<?xml version="1.0" ?>
<svg xmlns="http://www.w3.org/2000/svg" xmlns:ev="http://www.w3.org/2001/xml-events" xmlns:xlink="http://www.w3.org/1999/xlink" baseProfile="full" height="485" preserveAspectRatio="xMidYMid meet" transform="scale(0.20618556701030927 0.20618556701030927) translate(-332.0 -242.5)" version="1.1" viewBox="0 0 664 485" width="664" zoomAndPan="magnify">
	<defs/>
	<path d="M 356.19140600000003,462.45703200000025 C 356.33203100000003,461.6875000000002 356.417968,460.89453200000025 356.417968,460.0898440000002 L 356.417968,357.37890600000026 C 363.22265600000003,362.7109380000003 406.527343,396.2148440000002 420.08203100000003,395.6367190000002 C 404.22265600000003,374.1523440000002 432.085937,356.64453200000025 432.085937,356.64453200000025 C 432.085937,356.64453200000025 441.53125,370.5585940000002 461.636718,381.5312500000002 L 428.421874,417.4960940000002 L 468.121093,400.36328200000025 C 468.121093,400.36328200000025 473.566406,411.08593800000017 462.554687,422.1992190000002 C 487.492187,423.3281250000002 512.667968,400.36328200000025 512.667968,400.36328200000025 C 512.667968,400.36328200000025 516.7382809999999,401.3828130000003 521.4570309999999,403.6718750000002 L 521.4570309999999,462.45703200000025 L 356.19140600000003,462.45703200000025 M 132.765624,400.81640600000026 C 137.027343,404.1562500000002 164.128906,425.1210940000002 172.609374,424.7617190000002 C 162.683593,411.3125000000002 180.109374,400.36328200000025 180.109374,400.36328200000025 C 180.109374,400.36328200000025 197.300781,425.72656300000017 235.55078100000003,424.0000000000002 C 219.328124,414.48828200000025 206.785156,400.36328200000025 206.785156,400.36328200000025 L 178.414062,369.2890630000003 L 200.042968,359.9492190000002 C 201.867187,360.0429690000002 203.757812,360.0625000000002 205.726562,359.9687500000002 C 204.957031,359.4804690000002 204.195312,358.9843750000002 203.449218,358.4765630000003 L 207.691406,356.64453200000025 C 207.691406,356.64453200000025 216.38671799999997,373.7890630000003 198.796874,391.5468750000002 C 238.648437,393.3515630000003 278.890624,356.64453200000025 278.890624,356.64453200000025 C 278.890624,356.64453200000025 285.386718,358.26953200000025 292.929687,361.9375000000002 L 292.929687,460.0898440000002 C 292.929687,460.89453200000025 293.011718,461.6875000000002 293.148437,462.45703200000025 L 132.765624,462.45703200000025 L 132.765624,400.81640600000026 M 164.332031,341.1210940000002 C 164.332031,341.1210940000002 167.617187,346.2890630000003 174.550781,351.2265630000003 L 168.203124,358.1054690000002 L 158.402343,347.3710940000002 C 160.738281,343.5390630000003 164.332031,341.1210940000002 164.332031,341.1210940000002 M 487.88671800000003,341.1210940000002 C 487.88671800000003,341.1210940000002 490.71484300000003,347.0859380000003 486.867187,354.2109380000003 L 479.738281,361.9335940000002 C 476.51562399999995,358.6835940000002 474.710937,356.64453200000025 474.710937,356.64453200000025 L 468.632812,349.9960940000002 L 487.88671800000003,341.1210940000002 M 635.2070309999999,400.36328200000025 L 586.824218,347.3710940000002 C 589.1601559999999,343.5390630000003 592.75,341.1210940000002 592.75,341.1210940000002 C 592.75,341.1210940000002 605.5820309999999,361.34765600000026 634.1484370000001,359.9687500000002 C 622.0351559999999,352.3867190000002 612.667968,341.1210940000002 612.667968,341.1210940000002 L 577.5039059999999,300.0234380000003 C 577.875,294.3242190000002 583.8671870000001,290.2968750000002 583.8671870000001,290.2968750000002 C 583.8671870000001,290.2968750000002 594.2539059999999,306.66015600000026 617.3671870000001,305.5468750000002 C 607.5625,299.41015600000026 599.9843739999999,290.2968750000002 599.9843739999999,290.2968750000002 C 599.9843739999999,290.2968750000002 556.0625,219.82031300000025 542.6132809999999,177.17968800000025 C 536.1015620000001,215.28515600000023 475.023437,301.3515630000003 475.023437,301.3515630000003 L 499.01562399999995,290.2968750000002 C 499.01562399999995,290.2968750000002 502.304687,297.2109380000003 495.65234300000003,304.3828130000003 C 497.910156,304.4960940000002 500.175781,304.2500000000002 502.382812,303.7617190000002 L 465.42578100000003,346.4804690000002 L 397.386718,271.9765630000003 C 401.121093,265.83203200000025 406.859374,261.9765630000003 406.859374,261.9765630000003 C 406.859374,261.9765630000003 427.36328100000003,294.2968750000002 473.01171800000003,292.0937500000002 C 453.652343,279.9843750000002 438.6875,261.9765630000003 438.6875,261.9765630000003 L 382.496093,196.29296900000023 C 383.089843,187.19140600000023 392.66015600000003,180.76171900000023 392.66015600000003,180.76171900000023 C 392.66015600000003,180.76171900000023 409.257812,206.91015600000023 446.199218,205.1250000000002 C 430.527343,195.3281250000002 418.417968,180.76171900000023 418.417968,180.76171900000023 C 418.417968,180.76171900000023 348.230468,68.13281300000023 326.734374,2.2737367544323206e-13 C 316.335937,60.882813000000226 218.73046799999997,198.4218750000002 218.73046799999997,198.4218750000002 L 257.0625,180.76171900000023 C 257.0625,180.76171900000023 262.320312,191.82031300000025 251.6875,203.27734400000023 C 255.304687,203.44921900000023 258.91015600000003,203.05468800000025 262.453124,202.27734400000023 L 191.90625,283.8125000000002 L 239.28125,261.9765630000003 C 239.28125,261.9765630000003 243.80078100000003,271.5117190000002 237.648437,282.89453200000025 L 184.070312,340.9140630000003 L 149.082031,300.0234380000003 C 149.453124,294.3242190000002 155.445312,290.2968750000002 155.445312,290.2968750000002 C 155.445312,290.2968750000002 165.832031,306.66015600000026 188.945312,305.5468750000002 C 179.144531,299.41015600000026 171.5625,290.2968750000002 171.5625,290.2968750000002 C 171.5625,290.2968750000002 127.644531,219.82031300000025 114.191406,177.17968800000025 C 107.679687,215.28515600000023 46.609374,301.3515630000003 46.609374,301.3515630000003 L 70.59375,290.2968750000002 C 70.59375,290.2968750000002 73.882812,297.2109380000003 67.230468,304.3828130000003 C 69.488281,304.4960940000002 71.753906,304.2500000000002 73.96875,303.7617190000002 L 29.824218000000002,354.7812500000002 L 59.46875,341.1210940000002 C 59.46875,341.1210940000002 62.292968,347.0859380000003 58.445312,354.2109380000003 L 0.0,417.4960940000002 L 39.699218,400.36328200000025 C 39.699218,400.36328200000025 45.144531,411.08593800000017 34.132812,422.1992190000002 C 59.070312,423.3281250000002 84.253906,400.36328200000025 84.253906,400.36328200000025 C 84.253906,400.36328200000025 88.316406,401.3828130000003 93.035156,403.6718750000002 L 93.035156,462.45703200000025 L 69.316406,462.45703200000025 C 63.238281,462.45703200000025 58.316406,467.3867190000002 58.316406,473.45703200000025 C 58.316406,479.5273440000002 63.238281,484.44531300000017 69.316406,484.44531300000017 L 594.6601559999999,484.44531300000017 C 600.730468,484.44531300000017 605.652343,479.5273440000002 605.652343,473.45703200000025 C 605.652343,467.3867190000002 600.730468,462.45703200000025 594.6601559999999,462.45703200000025 L 561.1875,462.45703200000025 L 561.1875,400.81640600000026 C 565.4414059999999,404.1562500000002 592.542968,425.1210940000002 601.03125,424.7617190000002 C 591.105468,411.3125000000002 608.53125,400.36328200000025 608.53125,400.36328200000025 C 608.53125,400.36328200000025 625.714843,425.72656300000017 663.96875,424.0000000000002 C 647.75,414.48828200000025 635.2070309999999,400.36328200000025 635.2070309999999,400.36328200000025" fill="#000000" fill-opacity="1" fill-rule="nonzero"/>
</svg>
