<?xml version="1.0" ?>
<svg xmlns="http://www.w3.org/2000/svg" xmlns:ev="http://www.w3.org/2001/xml-events" xmlns:xlink="http://www.w3.org/1999/xlink" baseProfile="full" height="218" id="katman_2" transform="scale(0.7352941176470589 0.7352941176470589) translate(-68.0 -109.0)" version="1.1" viewBox="0 0 136 218" width="136">
	<defs/>
	<path d="M 58.42,158.53 C 58.599999999999994,175.72 58.709999999999994,193.41 53.83,209.55 C 53.45,210.8 51.69,212.49 52.129999999999995,213.72 C 52.36,214.37 52.94,214.81 53.599999999999994,215.16 C 57.28,217.10999999999999 62.75,217.96 66.47999999999999,217.97 C 73.96999999999998,218.0 81.53999999999999,217.66 88.55999999999999,215.53 C 89.05999999999999,215.38 89.57999999999998,215.31 89.87999999999998,214.82 C 90.13999999999999,214.4 90.15999999999998,214.04999999999998 90.02999999999999,213.56 C 89.02999999999999,209.52 86.11999999999999,209.01 84.48999999999998,205.25 C 79.22999999999998,193.14 77.23999999999998,172.93 77.43999999999998,159.37 L 58.40999999999998,158.53 L 58.42,158.53 M 135.07000000000002,166.24 C 125.22000000000001,160.8 116.03000000000002,154.05 107.29,145.81 C 112.76,144.25 117.86,141.16 120.02000000000001,135.28 C 104.06000000000002,125.27999999999999 100.52000000000001,123.02999999999999 95.13000000000001,115.97999999999999 C 100.81000000000002,117.13999999999999 105.15,115.07 108.46000000000001,112.35 C 102.43,107.86999999999999 97.88000000000001,105.69 95.92,101.17999999999999 C 98.34,100.69 106.60000000000001,99.66 108.07000000000001,95.55 C 98.97000000000001,88.57 92.94000000000001,84.03 87.09,74.16 C 90.46000000000001,75.38 94.2,75.52 97.65,74.55 C 90.63000000000001,65.16 83.89,56.11 79.10000000000001,45.730000000000004 C 81.7,47.08 84.59,47.66 87.46000000000001,48.510000000000005 C 82.38000000000001,38.75 81.02000000000001,33.260000000000005 68.98,17.69 C 64.51,11.91 62.94000000000001,8.23 59.27000000000001,0.0 C 54.71000000000001,16.69 46.230000000000004,28.54 37.94000000000001,44.75 C 42.07000000000001,46.49000000000001 46.78,46.75 51.110000000000014,45.58 C 45.640000000000015,56.83 38.360000000000014,67.21 29.60000000000001,76.13 C 32.650000000000006,76.85 35.7,77.57 38.760000000000005,78.3 C 33.28,87.21 26.800000000000008,95.51 19.500000000000007,103.0 C 23.950000000000006,104.55 28.65000000000001,105.37 33.370000000000005,105.41 C 29.880000000000006,112.75 24.61000000000001,119.24 18.120000000000008,124.14 C 22.070000000000007,124.57000000000001 26.03000000000001,124.99 29.980000000000008,125.42 C 23.640000000000008,135.09 8.720000000000006,142.87 8.720000000000006,142.87 C 8.720000000000006,142.87 17.200000000000006,146.24 21.680000000000007,145.82 C 18.520000000000007,156.9 14.680000000000007,159.04999999999998 7.105427357601002e-15,168.79 C 14.800000000000008,173.2 18.000000000000007,171.85999999999999 26.44000000000001,167.85 C 27.70000000000001,171.88 26.910000000000007,176.5 24.38000000000001,179.89 C 33.22000000000001,176.89999999999998 41.360000000000014,171.86999999999998 47.99000000000001,165.29999999999998 L 47.83000000000001,178.23999999999998 C 51.97000000000001,175.40999999999997 55.91000000000001,172.29999999999998 59.610000000000014,168.92 C 60.140000000000015,173.19 62.82000000000002,177.14 66.60000000000001,179.2 C 69.19000000000001,176.10999999999999 71.74000000000001,173.39 74.32000000000001,170.29999999999998 C 83.05000000000001,174.48999999999998 92.71000000000001,176.71999999999997 102.4,176.77999999999997 C 100.88000000000001,174.27999999999997 99.94000000000001,171.43999999999997 99.65,168.52999999999997 C 110.52000000000001,176.08999999999997 124.8,172.55999999999997 135.09000000000003,166.23999999999998 L 135.07000000000002,166.24"/>
</svg>
