<?xml version="1.0" ?>
<svg xmlns="http://www.w3.org/2000/svg" xmlns:ev="http://www.w3.org/2001/xml-events" xmlns:xlink="http://www.w3.org/1999/xlink" baseProfile="full" height="1743" id="Layer_1" style="enable-background:new 0 0 2000 2000;" transform="scale(0.10438413361169102 0.10438413361169102) translate(-479.0 -871.5)" version="1.1" viewBox="0 0 958 1743" width="958" x="0px" xml:space="preserve" y="0px">
	<defs/>
	<path d="M 563.2940611395168,1451.458922795812 C 543.2940611395168,1432.558922795812 523.2940611395168,1413.558922795812 502.3940611395167,1393.858922795812 C 502.3940611395167,1398.458922795812 502.3940611395167,1401.958922795812 502.3940611395167,1405.358922795812 C 502.4940611395166,1430.658922795812 503.3940611395167,1456.0589227958121 502.3940611395167,1481.358922795812 C 501.69406113951663,1501.658922795812 505.9940611395166,1520.358922795812 514.6940611395166,1538.2589227958122 C 530.6940611395166,1571.1589227958123 546.8940611395167,1603.9589227958122 562.8940611395167,1636.7589227958122 C 574.6940611395166,1660.9589227958122 587.0940611395167,1684.9589227958122 594.5940611395167,1710.9589227958122 C 596.5940611395167,1717.9589227958122 597.2940611395168,1725.6589227958123 597.2940611395168,1732.9589227958122 C 597.2940611395168,1738.6589227958123 593.7940611395168,1741.0589227958121 588.0940611395167,1741.2589227958122 C 573.9940611395168,1741.7589227958122 559.7940611395168,1742.358922795812 545.6940611395166,1742.5589227958121 C 526.4940611395166,1742.858922795812 507.3940611395167,1743.0589227958121 488.19406113951663,1742.9589227958122 C 451.5940611395166,1742.7589227958122 414.8940611395167,1742.3589227958123 378.29406113951666,1741.9589227958122 C 369.29406113951666,1741.8589227958123 360.29406113951666,1740.9589227958122 351.3940611395167,1741.4589227958122 C 343.9940611395167,1741.8589227958123 339.79406113951666,1735.6589227958123 340.69406113951663,1729.1589227958123 C 342.19406113951663,1719.1589227958123 344.29406113951666,1709.1589227958123 344.9940611395166,1699.0589227958124 C 346.19406113951663,1680.0589227958124 354.4940611395166,1663.6589227958123 361.9940611395166,1646.7589227958124 C 379.29406113951654,1608.1589227958125 394.29406113951654,1568.8589227958123 404.0940611395166,1527.5589227958124 C 408.89406113951657,1507.4589227958124 409.69406113951663,1487.0589227958124 410.5940611395166,1466.6589227958123 C 411.79406113951666,1438.0589227958124 413.39406113951657,1409.4589227958122 414.79406113951666,1380.8589227958123 C 414.8940611395167,1379.5589227958124 414.79406113951666,1378.2589227958124 414.79406113951666,1376.1589227958123 C 408.9940611395167,1379.1589227958123 403.5940611395166,1381.8589227958123 398.19406113951663,1384.7589227958122 C 367.5940611395166,1401.0589227958121 336.9940611395166,1417.2589227958122 309.4940611395166,1438.4589227958122 C 304.0940611395166,1442.5589227958121 299.69406113951663,1447.9589227958122 294.69406113951663,1452.5589227958121 C 292.69406113951663,1454.358922795812 290.29406113951666,1455.658922795812 288.0940611395166,1457.158922795812 C 287.19406113951663,1454.458922795812 285.29406113951666,1451.658922795812 285.69406113951663,1449.0589227958121 C 287.4940611395166,1435.7589227958122 289.19406113951663,1422.358922795812 292.19406113951663,1409.2589227958122 C 296.9940611395166,1388.6589227958123 303.79406113951666,1368.7589227958122 315.79406113951666,1349.4589227958122 C 306.4940611395167,1353.9589227958122 298.3940611395167,1357.9589227958122 290.29406113951666,1361.9589227958122 C 233.39406113951668,1389.4589227958122 176.0940611395166,1416.0589227958121 121.09406113951673,1447.2589227958122 C 106.4940611395167,1455.5589227958121 92.79406113951677,1465.358922795812 78.9940611395167,1474.858922795812 C 75.59406113951673,1477.2589227958122 73.09406113951673,1480.958922795812 69.4940611395167,1483.658922795812 C 78.4940611395167,1459.258922795812 91.59406113951673,1437.0589227958121 104.9940611395167,1415.0589227958121 C 118.4940611395167,1392.858922795812 132.39406113951668,1370.9589227958122 150.9940611395167,1351.9589227958122 C 149.19406113951675,1352.5589227958121 147.4940611395167,1353.0589227958121 145.69406113951675,1353.6589227958123 C 108.8940611395168,1366.7589227958122 72.09406113951673,1379.6589227958123 33.9940611395167,1388.5589227958124 C 24.994061139516702,1390.6589227958123 15.694061139516748,1391.4589227958124 6.39406113951668,1392.3589227958123 C 4.294061139516657,1392.5589227958124 0.794061139516657,1391.1589227958123 0.19406113951663428,1389.6589227958123 C -0.5059388604834112,1388.0589227958124 0.794061139516657,1384.5589227958124 2.3940611395166798,1383.1589227958123 C 11.194061139516634,1375.0589227958124 19.89406113951668,1366.7589227958122 29.494061139516702,1359.5589227958124 C 62.89406113951668,1334.3589227958123 96.79406113951666,1310.0589227958124 129.9940611395167,1284.5589227958124 C 172.19406113951675,1252.1589227958123 212.39406113951668,1217.4589227958124 247.29406113951666,1177.0589227958124 C 263.8940611395167,1157.8589227958123 278.79406113951666,1137.4589227958124 290.4940611395167,1114.8589227958123 C 291.29406113951666,1113.2589227958124 292.0940611395167,1111.6589227958123 293.5940611395167,1108.5589227958124 C 285.69406113951675,1112.3589227958123 279.0940611395167,1115.4589227958124 272.4940611395167,1118.6589227958123 C 233.59406113951673,1137.7589227958122 194.29406113951666,1156.4589227958122 157.19406113951675,1179.1589227958123 C 148.09406113951673,1184.7589227958122 138.9940611395167,1190.3589227958123 132.3940611395168,1199.0589227958124 C 132.09406113951684,1199.5589227958124 131.3940611395168,1199.6589227958123 129.49406113951682,1200.8589227958123 C 138.09406113951684,1179.3589227958123 149.09406113951684,1160.6589227958123 160.3940611395168,1142.0589227958124 C 171.69406113951675,1123.4589227958124 183.49406113951682,1105.0589227958124 200.3940611395168,1088.6589227958123 C 188.69406113951675,1092.7589227958122 178.49406113951682,1096.7589227958122 168.09406113951684,1099.8589227958123 C 143.09406113951684,1107.3589227958123 118.09406113951684,1114.5589227958124 92.99406113951682,1121.5589227958124 C 87.99406113951682,1122.9589227958124 82.49406113951682,1122.9589227958124 77.19406113951686,1123.0589227958124 C 75.49406113951682,1123.0589227958124 73.19406113951686,1121.9589227958124 72.39406113951691,1120.5589227958124 C 71.79406113951688,1119.5589227958124 72.69406113951686,1116.8589227958123 73.79406113951688,1115.7589227958124 C 78.99406113951693,1110.6589227958125 84.09406113951684,1105.2589227958124 89.89406113951691,1100.9589227958124 C 118.39406113951691,1079.5589227958124 147.29406113951688,1058.6589227958125 175.59406113951695,1037.0589227958124 C 212.99406113951693,1008.5589227958124 248.794061139517,978.1589227958123 279.794061139517,942.5589227958124 C 298.794061139517,920.6589227958123 314.49406113951704,896.6589227958123 325.99406113951704,869.9589227958123 C 326.294061139517,869.2589227958123 326.394061139517,868.4589227958123 326.99406113951704,866.5589227958124 C 319.6940611395171,870.0589227958124 313.294061139517,873.0589227958124 307.09406113951707,876.1589227958124 C 263.49406113951704,898.1589227958123 219.7940611395171,920.0589227958124 176.39406113951713,942.5589227958124 C 166.39406113951713,947.7589227958124 157.2940611395171,954.7589227958124 148.09406113951718,961.1589227958123 C 144.99406113951716,963.2589227958122 142.6940611395172,966.3589227958123 139.39406113951713,968.6589227958123 C 156.1940611395171,931.5589227958124 176.09406113951718,896.3589227958123 203.99406113951716,864.7589227958123 C 196.59406113951718,867.3589227958123 190.1940611395172,869.8589227958123 183.59406113951718,871.8589227958123 C 156.59406113951718,879.8589227958123 129.49406113951716,887.8589227958123 102.29406113951723,895.5589227958124 C 97.89406113951725,896.7589227958124 93.09406113951718,896.9589227958124 88.49406113951727,896.7589227958124 C 84.19406113951732,896.5589227958124 82.89406113951725,893.6589227958124 85.69406113951732,890.2589227958124 C 88.79406113951734,886.4589227958124 92.39406113951736,882.7589227958124 96.29406113951734,879.7589227958124 C 120.89406113951736,861.2589227958124 145.69406113951732,842.9589227958124 170.39406113951736,824.4589227958124 C 202.29406113951734,800.5589227958125 233.19406113951732,775.4589227958124 261.1940611395173,747.0589227958125 C 278.0940611395173,729.9589227958124 293.5940611395173,711.7589227958125 306.39406113951736,691.2589227958125 C 307.29406113951734,689.8589227958125 307.9940611395174,688.4589227958126 309.5940611395174,685.7589227958125 C 300.5940611395174,690.0589227958125 292.89406113951736,693.5589227958125 285.29406113951745,697.4589227958126 C 257.5940611395174,711.6589227958126 229.89406113951748,725.7589227958125 202.4940611395175,740.3589227958125 C 190.39406113951748,746.8589227958125 178.29406113951745,753.6589227958125 169.19406113951754,764.9589227958126 C 168.69406113951754,754.1589227958126 202.3940611395176,699.2589227958125 228.09406113951752,668.8589227958125 C 221.4940611395175,671.1589227958125 216.09406113951752,673.2589227958125 210.59406113951752,674.9589227958126 C 186.29406113951757,682.3589227958125 161.9940611395175,689.6589227958126 137.59406113951752,696.6589227958126 C 132.89406113951748,698.0589227958126 127.69406113951754,697.9589227958126 122.79406113951757,698.2589227958126 C 121.19406113951754,698.3589227958126 118.69406113951754,697.5589227958126 118.19406113951754,696.4589227958127 C 117.69406113951754,695.2589227958126 118.59406113951752,692.7589227958126 119.69406113951754,691.6589227958127 C 123.79406113951757,687.5589227958127 127.89406113951759,683.3589227958128 132.4940611395175,679.8589227958128 C 159.9940611395175,659.0589227958128 187.89406113951748,638.8589227958128 215.19406113951754,617.8589227958128 C 248.3940611395176,592.2589227958127 279.8940611395176,564.7589227958127 305.9940611395175,531.8589227958128 C 321.8940611395175,511.85892279581276 330.79406113951745,496.0589227958128 345.4940611395175,462.75892279581274 C 344.5940611395175,462.9589227958128 343.79406113951745,462.85892279581276 343.19406113951754,463.1589227958127 C 301.4940611395175,484.25892279581274 259.69406113951754,505.1589227958127 218.29406113951757,526.6589227958127 C 208.69406113951754,531.6589227958127 200.29406113951757,538.9589227958127 191.09406113951752,545.3589227958128 C 205.4940611395175,515.1589227958127 221.89406113951748,486.0589227958128 244.9940611395175,459.75892279581274 C 239.39406113951748,461.6589227958127 234.79406113951745,463.4589227958128 230.19406113951754,464.85892279581276 C 207.79406113951757,471.5589227958128 185.3940611395176,478.25892279581274 162.8940611395176,484.85892279581276 C 159.3940611395176,485.85892279581276 155.69406113951754,486.25892279581274 152.09406113951763,486.35892279581276 C 150.09406113951763,486.35892279581276 148.09406113951763,485.25892279581274 146.19406113951766,484.6589227958127 C 147.09406113951763,482.6589227958127 147.3940611395177,480.0589227958127 148.8940611395177,478.6589227958127 C 153.59406113951775,474.1589227958127 158.49406113951773,469.85892279581276 163.59406113951775,465.95892279581267 C 191.8940611395177,444.5589227958127 220.49406113951773,423.6589227958127 248.3940611395177,401.7589227958126 C 274.19406113951766,381.45892279581255 298.09406113951775,358.85892279581265 318.2940611395177,332.7589227958126 C 319.8940611395177,330.6589227958126 321.3940611395177,328.5589227958126 323.19406113951766,326.1589227958126 C 322.2940611395177,325.95892279581255 321.7940611395177,325.6589227958126 321.4940611395176,325.7589227958126 C 286.29406113951757,343.7589227958126 250.9940611395176,361.6589227958126 215.9940611395176,380.1589227958126 C 207.29406113951757,384.7589227958126 199.69406113951766,391.45892279581255 191.19406113951766,397.5589227958126 C 205.3940611395177,367.2589227958125 221.8940611395177,338.35892279581253 244.8940611395177,312.0589227958126 C 242.19406113951766,312.95892279581255 240.29406113951768,313.6589227958126 238.3940611395177,314.2589227958125 C 213.49406113951773,321.85892279581253 188.59406113951775,329.5589227958126 163.59406113951775,336.85892279581253 C 159.19406113951777,338.1589227958126 154.3940611395177,338.35892279581253 149.7940611395178,338.35892279581253 C 145.7940611395178,338.35892279581253 144.49406113951784,335.6589227958126 147.2940611395178,332.85892279581253 C 151.99406113951784,327.95892279581255 156.99406113951784,323.2589227958125 162.39406113951782,319.1589227958126 C 184.2940611395178,302.5589227958126 206.59406113951786,286.5589227958126 228.49406113951784,269.85892279581253 C 258.09406113951786,247.25892279581254 286.1940611395179,223.15892279581257 310.49406113951784,194.65892279581257 C 325.7940611395178,176.7589227958126 336.7940611395178,156.35892279581256 346.99406113951784,135.35892279581256 C 366.1940611395179,95.75892279581257 387.59406113951786,57.35892279581256 414.99406113951784,22.758922795812566 C 419.59406113951786,16.958922795812555 425.09406113951786,11.758922795812566 430.3940611395178,6.458922795812555 C 432.09406113951786,4.758922795812566 434.2940611395178,3.258922795812566 436.3940611395178,2.058922795812549 C 443.09406113951786,-1.741077204187448 446.59406113951786,-0.3410772041874566 449.59406113951786,6.758922795812538 C 473.3940611395178,63.75892279581254 501.6940611395179,118.25892279581254 537.8940611395178,168.45892279581253 C 551.3940611395178,187.25892279581254 566.3940611395178,204.95892279581253 583.0940611395179,221.05892279581255 C 607.0940611395179,244.25892279581254 635.0940611395179,259.5589227958126 667.5940611395179,267.95892279581255 C 698.0940611395179,275.85892279581253 727.8940611395178,286.5589227958126 756.1940611395178,300.7589227958125 C 761.0940611395179,303.2589227958125 765.5940611395179,306.35892279581253 770.2940611395177,309.2589227958125 C 771.4940611395177,310.0589227958126 772.4940611395177,311.1589227958125 774.8940611395176,313.0589227958126 C 722.9940611395175,315.35892279581253 672.3940611395176,318.6589227958126 622.1940611395175,308.2589227958125 C 621.8940611395176,308.6589227958125 621.6940611395175,309.0589227958126 621.3940611395176,309.5589227958126 C 623.1940611395175,311.2589227958125 624.7940611395177,313.2589227958125 626.7940611395177,314.45892279581255 C 643.9940611395177,324.85892279581253 661.0940611395176,335.5589227958126 678.5940611395176,345.45892279581255 C 696.7940611395177,355.7589227958125 715.4940611395177,365.35892279581253 733.8940611395176,375.2589227958125 C 734.7940611395177,375.7589227958125 735.5940611395176,376.2589227958125 736.1940611395175,377.45892279581255 C 715.5940611395176,372.5589227958126 694.8940611395176,367.6589227958125 674.2940611395175,362.6589227958125 C 653.5940611395174,357.6589227958125 632.9940611395175,352.6589227958125 612.3940611395174,347.35892279581253 C 591.6940611395173,342.05892279581246 570.9940611395173,336.35892279581253 549.3940611395174,330.6589227958125 C 577.0940611395174,364.35892279581253 605.8940611395174,395.35892279581253 648.0940611395174,409.35892279581253 C 671.8940611395174,417.2589227958125 696.0940611395174,424.0589227958126 719.5940611395174,432.6589227958125 C 736.0940611395174,438.7589227958125 751.6940611395173,447.05892279581246 767.5940611395174,454.55892279581246 C 770.1940611395173,455.7589227958125 772.2940611395175,457.95892279581244 774.6940611395173,459.6589227958125 C 774.5940611395174,460.2589227958125 774.3940611395174,460.85892279581253 774.2940611395172,461.35892279581253 C 748.8940611395171,461.95892279581255 723.4940611395173,462.95892279581255 698.0940611395172,462.95892279581255 C 672.7940611395172,463.0589227958126 647.5940611395172,461.6589227958126 622.7940611395172,455.7589227958125 C 622.4940611395173,456.2589227958125 622.2940611395172,456.85892279581253 621.9940611395173,457.35892279581253 C 623.9940611395173,459.0589227958126 625.7940611395172,461.1589227958125 627.9940611395173,462.5589227958126 C 648.6940611395173,474.85892279581253 669.3940611395174,487.35892279581253 690.2940611395172,499.2589227958126 C 704.5940611395172,507.45892279581267 719.2940611395172,514.8589227958126 733.7940611395172,522.5589227958126 C 735.0940611395172,523.2589227958126 736.2940611395172,523.9589227958126 737.3940611395171,525.0589227958126 C 666.8940611395171,508.5589227958126 596.2940611395172,492.5589227958126 525.8940611395171,470.85892279581253 C 528.5940611395172,475.0589227958126 530.494061139517,478.2589227958125 532.5940611395172,481.35892279581253 C 551.9940611395173,511.1589227958125 573.2940611395172,539.4589227958126 598.4940611395173,564.6589227958125 C 625.3940611395174,591.4589227958124 656.4940611395173,610.0589227958125 693.4940611395173,619.7589227958125 C 727.8940611395174,628.7589227958125 761.4940611395173,640.5589227958125 793.3940611395174,656.5589227958125 C 800.4940611395173,660.0589227958125 806.9940611395173,664.5589227958125 813.8940611395174,668.6589227958125 C 813.6940611395173,669.4589227958124 813.4940611395173,670.2589227958125 813.3940611395174,671.0589227958125 C 785.2940611395175,671.7589227958125 757.1940611395173,673.1589227958125 728.9940611395173,673.0589227958125 C 700.8940611395174,672.9589227958124 672.7940611395172,671.8589227958124 645.2940611395172,664.7589227958125 C 645.0940611395172,665.2589227958125 644.7940611395172,665.8589227958125 644.5940611395172,666.3589227958125 C 646.2940611395172,667.9589227958126 647.6940611395171,670.0589227958126 649.5940611395172,671.2589227958125 C 666.3940611395171,681.6589227958125 683.0940611395172,692.4589227958126 700.2940611395172,702.1589227958125 C 723.1940611395173,715.0589227958125 746.4940611395173,727.1589227958125 769.6940611395173,739.6589227958125 C 770.3940611395174,740.0589227958125 771.0940611395174,740.4589227958124 771.6940611395173,741.3589227958125 C 698.8940611395174,724.7589227958125 626.0940611395174,707.7589227958125 553.0940611395174,686.3589227958125 C 557.7940611395175,692.7589227958125 561.7940611395175,698.3589227958125 565.9940611395175,703.7589227958125 C 588.7940611395175,733.2589227958125 613.6940611395175,760.6589227958125 644.4940611395175,782.2589227958125 C 663.3940611395176,795.5589227958125 684.4940611395175,803.5589227958125 706.5940611395174,809.8589227958125 C 742.6940611395173,820.2589227958125 778.3940611395174,831.8589227958125 812.4940611395175,847.8589227958125 C 819.9940611395175,851.3589227958125 827.1940611395175,855.6589227958125 834.3940611395176,859.7589227958125 C 837.0940611395176,861.2589227958125 839.3940611395176,863.4589227958126 841.6940611395175,866.0589227958125 C 780.3940611395176,869.5589227958125 719.1940611395175,873.3589227958124 658.2940611395175,860.7589227958125 C 658.0940611395174,861.3589227958125 657.8940611395174,861.9589227958126 657.6940611395175,862.4589227958126 C 660.4940611395175,864.8589227958125 663.0940611395176,867.7589227958125 666.2940611395175,869.5589227958126 C 687.6940611395175,882.4589227958126 708.9940611395175,895.4589227958127 730.6940611395175,907.6589227958125 C 751.6940611395175,919.4589227958124 773.1940611395175,930.4589227958124 794.3940611395176,941.8589227958125 C 795.1940611395175,942.2589227958126 795.9940611395175,942.8589227958125 796.7940611395177,943.4589227958124 C 796.5940611395176,943.9589227958124 796.4940611395177,944.4589227958124 796.2940611395177,944.9589227958124 C 717.5940611395176,925.1589227958125 638.8940611395176,905.3589227958125 560.3940611395176,885.6589227958125 C 561.2940611395177,886.9589227958124 562.4940611395175,888.9589227958124 563.7940611395177,890.8589227958125 C 582.5940611395176,918.1589227958125 602.9940611395177,944.3589227958125 626.6940611395178,967.6589227958125 C 649.7940611395177,990.5589227958126 674.9940611395177,1010.8589227958125 705.8940611395178,1022.0589227958126 C 727.2940611395179,1029.7589227958126 749.3940611395178,1035.4589227958127 770.9940611395177,1042.5589227958126 C 800.0940611395176,1052.0589227958126 828.8940611395178,1062.1589227958125 856.0940611395176,1076.4589227958127 C 861.7940611395177,1079.4589227958127 867.1940611395175,1083.1589227958127 872.6940611395175,1086.6589227958127 C 874.0940611395176,1087.5589227958128 875.2940611395175,1088.9589227958127 876.2940611395175,1090.6589227958127 C 811.2940611395175,1093.5589227958128 746.3940611395174,1098.1589227958127 681.8940611395174,1084.8589227958128 C 681.5940611395174,1085.4589227958127 681.3940611395174,1086.0589227958128 681.0940611395174,1086.5589227958128 C 683.2940611395175,1088.5589227958128 685.2940611395175,1090.958922795813 687.7940611395175,1092.5589227958128 C 707.2940611395175,1104.5589227958128 726.6940611395175,1116.958922795813 746.6940611395175,1128.2589227958129 C 772.5940611395176,1142.8589227958128 799.0940611395176,1156.5589227958128 825.2940611395175,1170.658922795813 C 826.4940611395175,1171.358922795813 827.6940611395175,1172.058922795813 828.9940611395175,1172.7589227958129 C 828.7940611395175,1173.2589227958129 828.6940611395175,1173.7589227958129 828.4940611395175,1174.2589227958129 C 746.5940611395174,1153.7589227958129 664.5940611395174,1133.158922795813 582.7940611395175,1112.658922795813 C 582.6940611395175,1112.2589227958129 582.6940611395175,1112.858922795813 582.9940611395175,1113.2589227958129 C 610.3940611395176,1153.158922795813 640.3940611395176,1190.8589227958128 676.6940611395175,1223.2589227958129 C 707.8940611395176,1251.0589227958128 743.0940611395176,1270.7589227958129 783.6940611395175,1281.8589227958128 C 830.1940611395175,1294.4589227958127 875.9940611395175,1309.7589227958129 919.6940611395175,1330.4589227958127 C 931.6940611395175,1336.1589227958127 942.6940611395175,1343.6589227958127 954.1940611395175,1350.3589227958128 C 955.2940611395175,1351.0589227958128 956.3940611395176,1351.8589227958128 957.0940611395176,1353.3589227958128 C 879.2940611395177,1357.4589227958127 801.8940611395176,1362.5589227958128 724.9940611395177,1346.6589227958127 C 724.6940611395178,1347.2589227958126 724.4940611395177,1347.9589227958127 724.1940611395178,1348.5589227958128 C 726.7940611395177,1350.958922795813 728.9940611395177,1353.7589227958129 731.8940611395178,1355.6589227958127 C 751.5940611395179,1368.0589227958128 771.0940611395179,1380.8589227958128 791.3940611395178,1392.2589227958126 C 826.1940611395178,1411.7589227958126 861.5940611395179,1430.3589227958125 896.6940611395178,1449.3589227958125 C 898.0940611395179,1450.1589227958125 899.4940611395177,1450.9589227958124 900.4940611395177,1452.4589227958124 C 869.6940611395178,1445.1589227958125 838.6940611395178,1438.1589227958125 807.9940611395177,1430.3589227958125 C 744.6940611395178,1414.2589227958126 681.4940611395177,1397.8589227958125 618.3940611395178,1381.3589227958125 C 602.2940611395179,1377.1589227958125 586.5940611395179,1371.8589227958125 570.6940611395178,1367.0589227958126 C 569.6940611395178,1366.7589227958126 568.7940611395177,1366.5589227958126 567.7940611395177,1366.4589227958127 C 548.3940611395176,1364.2589227958126 539.6940611395178,1373.8589227958128 542.9940611395177,1393.6589227958127 C 546.0940611395176,1412.0589227958128 553.3940611395178,1428.9589227958127 561.5940611395176,1445.5589227958128 C 562.4940611395177,1447.458922795813 563.4940611395177,1449.3589227958128 564.3940611395176,1451.2589227958129 C 563.7940611395168,1451.258922795812 563.5940611395167,1451.358922795812 563.2940611395168,1451.458922795812" id="XMLID_2_"/>
</svg>
