<?xml version="1.0" ?>
<svg xmlns="http://www.w3.org/2000/svg" xmlns:ev="http://www.w3.org/2001/xml-events" xmlns:xlink="http://www.w3.org/1999/xlink" baseProfile="full" height="210" id="katman_2" transform="scale(0.7407407407407407 0.7407407407407407) translate(-67.5 -105.0)" version="1.1" viewBox="0 0 135 210" width="135">
	<defs/>
	<path d="M 127.43000000000002,161.26 C 131.59000000000003,159.1 133.81,153.79 134.12,150.32 C 120.06000000000002,149.85999999999999 114.24000000000002,147.04 108.94000000000001,142.41 C 114.17000000000002,141.88 118.17000000000002,138.91 120.54,134.19 C 115.19000000000001,132.93 105.37,126.74 102.53,122.12 C 105.58,121.32000000000001 110.4,118.45 111.53,115.58 C 107.16,113.55 102.2,110.97 97.71,107.95 C 99.3,107.48 100.77999999999999,106.78 102.41,105.8 C 104.63,104.46 107.83999999999999,101.34 107.83999999999999,101.34 C 107.83999999999999,101.34 92.61999999999999,97.24000000000001 91.40999999999998,92.84 C 93.53999999999998,91.45 98.62999999999998,89.35000000000001 100.27999999999999,86.14 C 94.07,85.71 87.97999999999999,83.85 82.69999999999999,80.77 C 85.61999999999999,80.00999999999999 92.52,76.32 94.14999999999999,73.75 C 88.67999999999999,71.94 86.14999999999999,70.77 80.47999999999999,65.62 C 86.72999999999999,64.52000000000001 90.19999999999999,62.220000000000006 94.8,58.120000000000005 C 86.92,55.02 80.22,49.38 76.11,42.38 C 80.4,41.38 84.3,39.010000000000005 87.03,35.77 C 75.02,32.64 63.230000000000004,12.240000000000002 59.28,0.0 C 56.7,9.48 54.94,13.19 51.980000000000004,20.89 C 49.400000000000006,27.6 44.71000000000001,34.14 40.13,39.53 C 44.010000000000005,41.36 45.6,41.32 49.92,41.69 C 44.97,49.879999999999995 41.38,55.019999999999996 33.09,60.37 C 37.56,64.03999999999999 40.650000000000006,66.12 46.330000000000005,67.81 C 42.82000000000001,73.88 35.61000000000001,77.43 28.440000000000005,79.14 C 30.110000000000007,81.68 36.14000000000001,85.24 39.300000000000004,85.64 C 34.34,91.62 26.860000000000007,96.45 18.920000000000005,99.78 C 23.050000000000004,102.64 27.820000000000007,104.68 32.84,105.72 C 30.340000000000003,109.39 25.280000000000005,111.96 19.990000000000002,114.08 C 23.32,116.14 27.220000000000002,117.37 31.200000000000003,117.67999999999999 C 25.78,121.83999999999999 19.200000000000003,124.57 11.660000000000004,126.61999999999999 C 13.150000000000004,130.47 16.120000000000005,132.76 21.010000000000005,134.29999999999998 C 18.210000000000004,137.36999999999998 11.590000000000005,138.92 7.900000000000006,139.23 C 11.850000000000005,145.86999999999998 17.470000000000006,147.83999999999997 24.980000000000004,150.10999999999999 C 15.670000000000003,156.64 10.480000000000004,156.73 3.552713678800501e-15,161.26 C 5.610000000000004,167.19 13.590000000000003,170.47 20.300000000000004,170.2 C 18.920000000000005,174.13 11.310000000000004,180.06 8.440000000000005,182.51 C 24.710000000000004,187.85999999999999 38.790000000000006,188.34 55.31,183.79 C 55.120000000000005,192.07 52.92,201.78 48.89,209.06 L 92.08,209.06 C 89.44,205.81 87.64999999999999,201.61 86.1,197.74 C 83.97999999999999,192.45000000000002 82.5,189.18 82.02,183.02 C 90.86999999999999,188.86 102.5,192.64000000000001 113.14999999999999,191.8 C 109.13999999999999,188.32000000000002 105.82,184.08 103.44999999999999,179.39000000000001 C 111.92999999999999,180.68 122.07,181.41000000000003 127.60999999999999,175.00000000000003 C 123.84999999999998,171.84000000000003 120.73999999999998,167.94000000000003 118.52999999999999,163.60000000000002 C 122.05999999999999,164.13000000000002 124.28999999999999,162.90000000000003 127.43999999999998,161.26000000000002 L 127.43000000000002,161.26"/>
</svg>
