<?xml version="1.0" ?>
<svg xmlns="http://www.w3.org/2000/svg" xmlns:cc="http://creativecommons.org/ns#" xmlns:dc="http://purl.org/dc/elements/1.1/" xmlns:ev="http://www.w3.org/2001/xml-events" xmlns:rdf="http://www.w3.org/1999/02/22-rdf-syntax-ns#" xmlns:svg="http://www.w3.org/2000/svg" xmlns:xlink="http://www.w3.org/1999/xlink" baseProfile="full" height="120" id="svg8" transform="scale(1.2820512820512822 1.2820512820512822) translate(-39.0 -60.0)" version="1.1" viewBox="0 0 78 120" width="78">
	<defs/>
	<path d="M 38.56561382348957,0.0 C 38.464923823489585,0.0 38.36406382348957,0.06300000000010186 38.340033823489534,0.19229999999993197 C 38.09853382348956,1.4942999999998392 37.87298382348956,3.346499999999878 37.57897382348949,4.585499999999911 C 37.28497382348951,5.824399999999969 36.99091382348945,6.454199999999901 36.5709538234895,6.905599999999822 C 36.15098382348947,7.357099999999718 35.60518382348948,7.630099999999857 35.13266382348945,7.9345999999998185 C 34.66016382348948,8.23909999999978 34.26116382348948,8.575199999999768 33.20069382348947,8.984599999999773 C 32.14024382348953,9.394099999999753 30.41841382348946,9.876999999999725 30.155953823489426,10.22349999999983 C 29.893493823489393,10.570099999999911 31.09048382348942,10.779999999999745 32.12997382348942,11.158099999999877 C 33.16948382348937,11.536099999999806 34.05147382348946,12.082299999999805 34.13546382348943,12.402499999999918 C 34.21946382348938,12.722700000000032 33.5051638234894,12.817299999999932 32.728143823489404,12.993099999999913 C 31.95114382348936,13.168999999999869 31.11130382348938,13.42599999999993 30.239793823489435,13.767299999999977 C 29.368293823489466,14.10850000000005 28.465203823489446,14.533599999999979 28.444273823489425,14.84069999999997 C 28.423273823489467,15.147899999999936 29.284473823489407,15.336999999999989 30.155953823489426,15.378999999999905 C 31.02742382348947,15.420999999999822 31.909433823489394,15.315999999999804 32.077353823489375,15.578399999999874 C 32.24529382348942,15.84089999999992 31.699323823489408,16.470999999999776 31.037863823489374,16.9224999999999 C 30.37641382348943,17.373999999999796 29.599263823489423,17.646999999999935 28.0137638234894,18.31899999999996 C 26.4282538234894,18.990999999999985 24.034493823489356,20.061899999999923 23.787793823489437,20.59739999999988 C 23.54106382348948,21.132899999999836 25.441273823489382,21.132699999999886 26.869283823489468,21.22199999999998 C 28.29729382348944,21.310999999999922 29.252843823489457,21.490099999999984 30.06658382348951,21.70010000000002 C 30.880353823489486,21.910100000000057 31.552253823489536,22.151299999999992 31.300193823489508,22.58699999999999 C 31.048123823489505,23.022699999999986 29.87217382348956,23.652700000000095 28.53867382348949,24.440200000000004 C 27.20519382348948,25.227699999999913 25.714263823489546,26.172900000000027 24.359783823489465,26.981399999999894 C 23.00529382348941,27.78989999999999 21.787573823489424,28.461899999999787 20.61164382348943,28.91339999999991 C 19.435653823489474,29.364899999999807 18.30140382348941,29.595599999999877 18.217443823489475,29.87909999999988 C 18.13344382348953,30.16269999999986 19.099393823489436,30.49869999999987 20.107373823489525,30.63519999999994 C 21.115343823489525,30.771600000000035 22.16525382348948,30.708200000000033 22.77422382348948,30.6561999999999 C 23.383193823489478,30.603199999999788 23.551373823489484,30.562199999999848 23.257343823489464,30.876999999999953 C 22.963313823489443,31.192000000000007 22.20734382348951,31.863900000000058 21.1468738234895,32.54639999999995 C 20.086393823489516,33.228799999999865 18.721483823489507,33.922000000000025 18.91053382348946,34.14249999999993 C 19.099573823489436,34.36299999999983 20.842403823489462,34.1105 22.039343823489503,33.76440000000002 C 23.236293823489518,33.41789999999992 23.88750382348951,32.97700000000009 23.782503823489492,33.208000000000084 C 23.677483823489524,33.43900000000008 22.816213823489534,34.34190000000012 22.060243823489486,34.98230000000012 C 21.304283823489527,35.6228000000001 20.653393823489523,36.00070000000005 21.26243382348946,36.06370000000015 C 21.87146382348942,36.126700000000255 23.74046382348945,35.874700000000075 25.420433823489475,35.433700000000044 C 27.100383823489437,34.99270000000001 28.591403823489486,34.363000000000056 29.536383823489473,33.922000000000025 C 30.48134382348951,33.480999999999995 30.88036382348946,33.228599999999915 30.817313823489485,33.88000000000011 C 30.754313823489497,34.53110000000015 30.22904382348952,36.08520000000021 29.34706382348952,37.37660000000005 C 28.46510382348947,38.668100000000095 27.226133823489477,39.697000000000116 26.029173823489486,40.44250000000011 C 24.83220382348952,41.1880000000001 23.677433823489537,41.650100000000066 22.700963823489474,41.95460000000003 C 21.724493823489524,42.25909999999999 20.926523823489447,42.405899999999974 20.779563823489525,42.573900000000094 C 20.632593823489515,42.74189999999999 21.13651382348951,42.931100000000015 21.98698382348948,43.057000000000016 C 22.837473823489518,43.18299999999999 24.03449382348947,43.246000000000095 24.275943823489456,43.44550000000004 C 24.517393823489442,43.64499999999998 23.803383823489412,43.980999999999995 22.942403823489485,44.30650000000014 C 22.08141382348947,44.63200000000006 21.073553823489533,44.94680000000017 19.78210382348948,45.04130000000009 C 18.49064382348945,45.13630000000012 16.91549382348944,45.01030000000014 15.718513823489502,44.86310000000003 C 14.521543823489537,44.7161000000001 13.702723823489464,44.54790000000003 12.988723823489522,44.40090000000009 C 12.274733823489555,44.25390000000016 11.665643823489518,44.12810000000013 11.686643823489476,44.2962 C 11.707643823489434,44.46419999999989 12.35857382348945,44.92599999999993 13.146073823489473,45.38799999999992 C 13.93358382348947,45.84999999999991 14.857813823489437,46.31189999999992 15.004783823489447,46.584899999999834 C 15.151743823489483,46.85779999999977 14.52171382348945,46.94179999999983 13.744743823489443,46.899799999999914 C 12.967773823489438,46.8578 12.043723823489472,46.6900999999998 12.022733823489489,46.91079999999988 C 12.00173382348953,47.13129999999978 12.883693823489466,47.740299999999934 13.986183823489455,48.38079999999991 C 15.088683823489419,49.02119999999991 16.411423823489486,49.692999999999984 17.38790382348941,50.12339999999995 C 18.364393823489422,50.553899999999885 18.994563823489443,50.74289999999996 19.593043823489438,50.86889999999994 C 20.191523823489433,50.994899999999916 20.75845382348939,51.05790000000002 21.04189382348943,51.08939999999984 C 21.32531382348941,51.12139999999977 21.892313823489417,51.12139999999977 21.577373823489438,51.162399999999934 C 21.262423823489485,51.20439999999985 20.632563823489477,51.288499999999885 19.84504382348939,51.48799999999983 C 19.057543823489368,51.68749999999977 18.112463823489406,52.00239999999985 17.32497382348936,52.34889999999973 C 16.53744382348941,52.695399999999836 15.90774382348934,53.07329999999979 15.246223823489345,53.545799999999645 C 14.584713823489324,54.018299999999726 13.89162382348934,54.585299999999734 13.9126738234894,54.79519999999957 C 13.933773823489446,55.005199999999604 14.668693823489434,54.85819999999967 15.529693823489424,54.75319999999965 C 16.390693823489414,54.64819999999963 17.377653823489368,54.58519999999976 18.60615382348942,54.64819999999963 C 19.83466382348945,54.711199999999735 21.30445382348944,54.899999999999636 22.627453823489418,55.05759999999964 C 23.950433823489448,55.215099999999666 25.12650382348943,55.34119999999962 26.302333823489448,55.46719999999959 C 26.74330382348944,55.46719999999959 27.184503823489422,55.46719999999959 27.203873823489403,55.618499999999585 C 27.22327382348942,55.7696999999996 26.821073823489428,56.07209999999964 26.26532382348944,56.32109999999966 C 25.70957382348945,56.570099999999684 25.000043823489477,56.7656999999997 23.950173823489422,56.94199999999955 C 22.900303823489367,57.11819999999966 21.509753823489405,57.27529999999956 21.44898382348947,57.4861999999996 C 21.3881838234895,57.697299999999586 22.65732382348949,57.96209999999951 23.971323823489456,57.973099999999704 C 25.28533382348951,57.98409999999967 26.64430382348951,57.74149999999963 27.61523382348946,57.4861999999996 C 28.586173823489503,57.23099999999954 29.168673823489485,56.963099999999486 29.284123823489494,57.02349999999956 C 29.399603823489542,57.0834999999995 29.04775382348953,57.47249999999963 28.357413823489537,57.918799999999464 C 27.667073823489545,58.364999999999554 26.63834382348955,58.86899999999946 25.4833738234895,59.24699999999939 C 24.328403823489452,59.62499999999932 23.047413823489478,59.8769999999995 21.69293382348951,60.0344999999993 C 20.33846382348952,60.191999999999325 18.910723823489548,60.2549999999992 17.829233823489517,60.2549999999992 C 16.74776382348955,60.2549999999992 16.012613823489573,60.1919999999991 15.267113823489467,60.12889999999925 C 14.521633823489424,60.06589999999915 13.765723823489452,60.00299999999925 13.633473823489453,60.14089999999919 C 13.501233823489429,60.27819999999929 13.992643823489402,60.615599999999176 14.696133823489504,60.95159999999919 C 15.399633823489467,61.2875999999992 16.315043823489532,61.622299999999086 17.192793823489524,61.87349999999924 C 18.07053382348954,62.12479999999914 18.910343823489484,62.29259999999931 18.77382382348958,62.449999999999136 C 18.637293823489586,62.60749999999916 17.52456382348953,62.75459999999907 16.256013823489525,62.768799999999146 C 14.987453823489545,62.78279999999904 13.563253823489504,62.664199999999255 12.41875382348951,62.47019999999907 C 11.274253823489516,62.27619999999911 10.409713823489483,62.00699999999915 9.73579382348953,61.78289999999902 C 9.061863823489489,61.55879999999911 8.578833823489504,61.37969999999905 8.484313823489515,61.47919999999908 C 8.389813823489476,61.57919999999899 8.683743823489522,61.956699999999046 9.229753823489546,62.42909999999915 C 9.775773823489544,62.901599999999235 10.573653823489508,63.46859999999924 10.6471438234895,63.67859999999905 C 10.720643823489468,63.88859999999909 10.069853823489552,63.74159999999915 9.208863823489537,63.56329999999912 C 8.347863823489547,63.38479999999913 7.276923823489483,63.17469999999912 6.9934138234895045,63.342799999999215 C 6.709913823489501,63.51079999999911 7.213953823489533,64.05649999999923 7.7494338234895395,64.56049999999914 C 8.284943823489584,65.06449999999904 8.851753823489503,65.52659999999923 9.334743823489589,65.89409999999907 C 9.817743823489536,66.26149999999916 10.2167638234896,66.53459999999905 10.878253823489558,66.87059999999906 C 11.539753823489605,67.20659999999907 12.463583823489557,67.60549999999898 12.852023823489503,67.8468999999991 C 13.24046382348945,68.08839999999918 13.093753823489465,68.17259999999919 12.495283823489558,68.32999999999902 C 11.896803823489563,68.48759999999902 10.846563823489532,68.71839999999906 9.922593823489592,68.88639999999896 C 8.998603823489589,69.05439999999885 8.200563823489574,69.15919999999892 8.022083823489538,69.33779999999888 C 7.843623823489565,69.51639999999884 8.284753823489496,69.76859999999897 8.904243823489537,70.12559999999894 C 9.523743823489554,70.48259999999891 10.32166382348953,70.94429999999898 11.58166382348952,71.41679999999883 C 12.841663823489512,71.88929999999891 14.563733823489542,72.37239999999883 15.960193823489476,72.6768999999988 C 17.356683823489448,72.98129999999878 18.4277638234895,73.10749999999871 19.29923382348943,73.08649999999875 C 20.170703823489475,73.06549999999879 20.842353823489475,72.89729999999872 20.779303823489386,73.07549999999878 C 20.716303823489397,73.25399999999877 19.918413823489345,73.77899999999886 19.109913823489364,74.25139999999874 C 18.301433823489333,74.72389999999882 17.482433823489373,75.14399999999864 16.734343823489326,75.39589999999885 C 15.986273823489341,75.6478999999988 15.309173823489346,75.73189999999886 14.41668382348928,75.72149999999874 C 13.524193823489327,75.71149999999875 12.416433823489228,75.60589999999866 12.177573823489297,75.72149999999874 C 11.93872382348934,75.83699999999885 12.568793823489273,76.17299999999864 13.534783823489306,76.46689999999876 C 14.500783823489314,76.76089999999886 15.802693823489335,77.01309999999876 17.13615382348928,77.03409999999872 C 18.469613823489226,77.05509999999867 19.834593823489286,76.84489999999869 20.17056382348926,76.88679999999863 C 20.50652382348926,76.92879999999855 19.81349382348924,77.22299999999859 18.585003823489274,77.48549999999864 C 17.356543823489233,77.74799999999868 15.592543823489223,77.97879999999873 15.24345382348929,78.19139999999857 C 14.894353823489269,78.4040999999986 15.960023823489337,78.59859999999867 17.170143823489298,78.60909999999853 C 18.380253823489284,78.61909999999853 19.73460382348935,78.4461999999985 20.97618382348935,78.06559999999854 C 22.217793823489387,77.6848999999986 23.346663823489394,77.09699999999862 23.601243823489312,77.11539999999854 C 23.855843823489295,77.13339999999857 23.236213823489265,77.7582999999986 22.133753823489315,78.35679999999866 C 21.031313823489313,78.95529999999872 19.445803823489314,79.52749999999855 19.369733823489355,79.76639999999861 C 19.29363382348936,80.00529999999867 20.726973823489402,79.91089999999872 21.944943823489325,79.58539999999857 C 23.162903823489273,79.25989999999865 24.165613823489366,78.70329999999853 24.351983823489377,78.71909999999866 C 24.53832382348935,78.73509999999874 23.908233823489354,79.32289999999875 23.068273823489335,79.82689999999866 C 22.22830382348934,80.33079999999859 21.178533823489374,80.75099999999861 19.992073823489363,81.06599999999867 C 18.805593823489403,81.38099999999872 17.48257382348936,81.59079999999858 16.233103823489387,81.58029999999872 C 14.983633823489413,81.57029999999872 13.807593823489356,81.3389999999988 12.720863823489367,81.03449999999862 C 11.634123823489404,80.72999999999865 10.636653823489382,80.35179999999855 9.681153823489353,80.00529999999867 C 8.725653823489324,79.65879999999856 7.812383823489313,79.34409999999866 7.5236038234893385,79.40719999999874 C 7.234833823489339,79.47019999999884 7.570803823489314,79.91109999999867 8.200833823489347,80.54109999999878 C 8.830843823489317,81.17099999999868 9.754693823489333,81.98999999999887 10.68919382348929,82.64099999999871 C 11.623693823489248,83.2918999999988 12.568723823489336,83.77489999999875 13.345713823489291,84.05829999999878 C 14.122703823489246,84.34179999999878 14.731783823489309,84.42589999999882 14.71073382348925,84.56239999999889 C 14.689633823489203,84.69889999999896 14.038763823489262,84.88779999999883 12.32207382348929,84.77759999999898 C 10.605363823489256,84.6673999999989 7.8228338234893045,84.2579999999989 5.9800938234892556,83.80129999999895 C 4.137353823489207,83.34459999999899 3.234403823489288,82.84049999999888 2.4731338234892064,82.48869999999897 C 1.7118838234891882,82.13689999999906 1.092373823489197,81.93749999999886 1.034603823489192,82.2262999999989 C 0.9768038234891492,82.51509999999894 1.4808538234891557,83.291999999999 2.1108638234892396,83.96389999999883 C 2.74087382348921,84.63589999999886 3.49679382348927,85.20299999999884 4.75681382348921,85.7909999999988 C 6.016813823489201,86.3788999999988 7.780883823489262,86.98789999999872 8.095853823489165,87.32389999999873 C 8.410813823489207,87.65989999999874 7.276783823489154,87.72269999999867 6.153303823489182,87.69119999999862 C 5.029833823489184,87.65919999999869 3.9168138234891785,87.53359999999861 2.7513238234892015,87.29219999999873 C 1.585853823489174,87.05069999999864 0.3679038234892005,86.69389999999862 0.07390382348921776,86.87249999999881 C -0.2200861765107902,87.0509999999988 0.4100438234892181,87.76499999999874 1.1345538234892274,88.34249999999884 C 1.8590638234892367,88.91999999999894 2.6778438234891837,89.36079999999879 3.827583823489249,89.81749999999874 C 4.977293823489276,90.27429999999868 6.4579238234892955,90.74669999999878 7.780903823489211,90.91999999999871 C 9.103883823489241,91.09319999999866 10.269133823489256,90.96699999999873 10.641863823489189,90.99899999999866 C 11.014593823489236,91.03099999999858 10.594763823489188,91.21959999999876 9.807283823489229,91.65529999999876 C 9.019773823489231,92.09109999999873 7.864733823489246,92.77349999999865 6.541763823489191,93.47179999999867 C 5.2187838234891615,94.16999999999871 3.7278238234891887,94.88409999999863 2.4678538234892358,95.38809999999876 C 1.2078938234892576,95.89209999999866 0.17872382348923566,96.18609999999876 0.126273823489214,96.42759999999885 C 0.07377382348920491,96.66909999999893 0.9979538234891834,96.85799999999881 2.373443823489197,96.83699999999885 C 3.7489238234892355,96.8159999999989 5.575673823489183,96.58509999999887 6.268603823489229,96.66909999999893 C 6.961523823489188,96.753099999999 6.520653823489283,97.15209999999888 6.027173823489193,97.48799999999892 C 5.533693823489216,97.82399999999893 4.987583823489217,98.09689999999887 4.294593823489208,98.44339999999897 C 3.6016038234891994,98.78989999999908 2.761683823489193,99.20989999999892 2.7722238234891847,99.40939999999887 C 2.782723823489164,99.60889999999881 3.6437938234892044,99.5880999999988 4.893263823489178,99.36739999999895 C 6.142743823489127,99.14679999999885 7.7805838234892235,98.72669999999903 9.523553823489124,98.01269999999886 C 11.266513823489163,97.29869999999892 13.114523823489094,96.29079999999885 14.459233823489171,95.39269999999897 C 15.803943823489135,94.49459999999885 16.64535382348913,93.70629999999892 16.80282382348912,93.80079999999907 C 16.960313823489173,93.89479999999912 16.433933823489156,94.87259999999901 15.70869382348917,95.79169999999908 C 14.983453823489185,96.71079999999915 14.059503823489194,97.57179999999903 13.282523823489214,98.21239999999898 C 12.505553823489208,98.85279999999898 11.875433823489175,99.27279999999905 11.014453823489248,99.77669999999898 C 10.153473823489207,100.28069999999889 9.06179382348921,100.86869999999908 9.240333823489209,101.08909999999901 C 9.418883823489182,101.30959999999891 10.867823823489175,101.16309999999908 12.316783823489232,100.83709999999905 C 13.765743823489288,100.51169999999911 15.214623823489205,100.007599999999 16.59009382348927,99.39859999999908 C 17.965573823489308,98.78959999999915 19.267443823489316,98.07579999999916 19.645403823489232,98.06529999999907 C 20.023363823489262,98.05529999999908 19.477293823489276,98.74789999999916 18.700313823489182,99.47239999999897 C 17.9233338234892,100.19679999999903 16.91561382348914,100.95289999999886 16.023143823489136,101.40959999999905 C 15.130693823489082,101.86639999999898 14.353623823489102,102.02359999999908 13.36661382348916,102.30719999999906 C 12.379593823489131,102.59059999999909 11.182723823489141,103.00019999999904 11.2037738234892,103.28899999999908 C 11.224873823489247,103.57779999999912 12.463563823489153,103.74559999999906 13.681553823489253,103.88209999999913 C 14.899553823489214,104.0185999999992 16.096623823489267,104.12359999999921 16.915613823489252,104.20769999999902 C 17.734583823489288,104.29169999999908 18.175503823489294,104.35489999999913 18.038953823489237,104.59629999999902 C 17.90238382348923,104.8377999999991 17.188413823489213,105.257599999999 16.21195382348924,105.60409999999911 C 15.235493823489264,105.95059999999921 13.996593823489206,106.22359999999912 12.831123823489293,106.42309999999907 C 11.66564382348929,106.62259999999901 10.573853823489344,106.74839999999904 9.460873823489237,106.72219999999902 C 8.347893823489244,106.69619999999895 7.213673823489216,106.51769999999897 6.35269382348929,106.40219999999908 C 5.491713823489249,106.28669999999897 4.903713823489284,106.23419999999919 4.919453823489334,106.65949999999907 C 4.935253823489347,107.08479999999918 5.554813823489326,107.98779999999897 6.62584382348939,108.7752999999991 C 7.696883823489429,109.56269999999904 9.21943382348934,110.23449999999912 10.505663823489385,110.60199999999918 C 11.791893823489431,110.96939999999927 12.84170382348941,111.03249999999912 13.986183823489341,111.06399999999917 C 15.130663823489385,111.0959999999991 16.369593823489367,111.0959999999991 16.443063823489297,111.22159999999917 C 16.516563823489264,111.34749999999917 15.424613823489267,111.59929999999918 14.301133823489295,111.83029999999917 C 13.177643823489348,112.06129999999916 12.0226738234893,112.27139999999918 10.867683823489301,112.41839999999911 C 9.712693823489303,112.56539999999904 8.55789382348928,112.6493999999991 8.463413823489304,112.96449999999913 C 8.368913823489265,113.27949999999919 9.334793823489349,113.82559999999921 10.951773823489361,113.98309999999924 C 12.568743823489399,114.14049999999929 14.836503823489352,113.91009999999915 16.537473823489336,113.47899999999913 C 18.23842382348937,113.0484999999992 19.37225382348936,112.41839999999911 20.590243823489345,111.6308999999992 C 21.808223823489357,110.84339999999929 23.110433823489302,109.8984999999991 23.41872382348936,109.91969999999924 C 23.72699382348935,109.9406999999992 23.041563823489355,110.92839999999933 22.0776138234894,111.78319999999917 C 21.113653823489358,112.63799999999924 19.871363823489446,113.36049999999909 18.733543823489413,113.93769999999927 C 17.595733823489468,114.51499999999919 16.562733823489452,114.94709999999918 15.426733823489371,115.1947999999993 C 14.290743823489379,115.44239999999922 13.051723823489397,115.50559999999928 13.030763823489337,115.82059999999933 C 13.00976382348938,116.13569999999936 14.20672382348937,116.70259999999939 15.561163823489323,116.8809999999994 C 16.91562382348934,117.05949999999939 18.427463823489347,116.84899999999948 20.117943823489327,116.3769999999995 C 21.80843382348928,115.90449999999942 23.677423823489335,115.16919999999959 25.021403823489322,114.54979999999955 C 26.365373823489335,113.93029999999953 27.18430382348936,113.42659999999955 28.339283823489268,112.58659999999963 C 29.49426382348929,111.74659999999972 30.985153823489213,110.57049999999958 31.43664382348925,110.3919999999996 C 31.88811382348922,110.21359999999959 31.30010382348928,111.03249999999957 30.75413382348927,111.70439999999962 C 30.20813382348922,112.37639999999965 29.70416382348924,112.90149999999971 28.895673823489233,113.57349999999951 C 28.087183823489227,114.24549999999954 26.974273823489284,115.06419999999957 26.95639382348918,115.41579999999954 C 26.938593823489214,115.7673999999995 28.01557382348915,115.65199999999959 29.1884638234892,115.32579999999962 C 30.361363823489228,114.99929999999972 31.630173823489145,114.46169999999961 32.647583823489185,113.91449999999963 C 33.40391382348923,113.50769999999966 34.03799382348916,113.09069999999974 34.70317382348924,112.66469999999958 L 34.70317382348924,119.22429999999963 L 42.24476382348928,119.22429999999963 L 42.24476382348928,112.53589999999963 C 42.98963382348927,113.00779999999963 43.671003823489286,113.46669999999972 44.50352382348933,113.91449999999963 C 45.52093382348937,114.46169999999961 46.78974382348929,114.99929999999972 47.96265382348929,115.32579999999962 C 49.13554382348934,115.65239999999972 50.21258382348924,115.76779999999962 50.19471382348934,115.41579999999954 C 50.17691382348937,115.06419999999957 49.06392382348929,114.24539999999956 48.25544382348937,113.57349999999951 C 47.44694382348939,112.90149999999949 46.94297382348941,112.37639999999942 46.396983823489336,111.70439999999962 C 45.85100382348935,111.03249999999957 45.26325382348932,110.21359999999959 45.714723823489294,110.3919999999996 C 46.16618382348929,110.57049999999958 47.6570838234893,111.74659999999949 48.8120738234893,112.58659999999963 C 49.9670638234893,113.42659999999955 50.785733823489295,113.93029999999953 52.12971382348928,114.54979999999955 C 53.473683823489296,115.16919999999959 55.342673823489235,115.90449999999964 57.03315382348933,116.3769999999995 C 58.72364382348928,116.84949999999958 60.235743823489315,117.05949999999939 61.59019382348936,116.8809999999994 C 62.94463382348931,116.70259999999939 64.14156382348938,116.13569999999936 64.12059382348934,115.82059999999933 C 64.09959382348939,115.50559999999928 62.8606138234893,115.44239999999922 61.7246338234894,115.1947999999993 C 60.588643823489406,114.94709999999941 59.55562382348944,114.51499999999942 58.41782382348936,113.93769999999927 C 57.28001382348941,113.36049999999932 56.037683823489374,112.63799999999924 55.073733823489306,111.78319999999917 C 54.10978382348935,110.9283999999991 53.42434382348927,109.94099999999912 53.73263382348932,109.91969999999924 C 54.04092382348938,109.89869999999928 55.34289382348936,110.84339999999929 56.56087382348937,111.6308999999992 C 57.77886382348936,112.41839999999911 58.9126738234894,113.0484999999992 60.61363382348941,113.47899999999913 C 62.31460382348939,113.90959999999905 64.5826138234894,114.14049999999907 66.19959382348941,113.98309999999924 C 67.81656382348945,113.82559999999921 68.78242382348935,113.27949999999919 68.68795382348947,112.96449999999913 C 68.59345382348943,112.6493999999991 67.43865382348952,112.56539999999904 66.2836738234895,112.41839999999911 C 65.12870382348945,112.27139999999918 63.973453823489535,112.06129999999916 62.84998382348954,111.83029999999917 C 61.7264838234895,111.59929999999918 60.634833823489544,111.34749999999917 60.70828382348952,111.22159999999917 C 60.78178382348949,111.0955999999992 62.02068382348955,111.09539999999924 63.16518382348954,111.06399999999917 C 64.30966382348959,111.03199999999924 65.35974382348957,110.96899999999914 66.64595382348955,110.60199999999918 C 67.9321838234896,110.23449999999912 69.45448382348957,109.56269999999927 70.52551382348952,108.7752999999991 C 71.59654382348947,107.9877999999992 72.21592382348956,107.08479999999918 72.2316638234895,106.65949999999907 C 72.24746382348951,106.23419999999896 71.6593938234895,106.28669999999897 70.79841382348945,106.40219999999908 C 69.93743382348941,106.5176999999992 68.80346382348944,106.69589999999903 67.69049382348942,106.72219999999902 C 66.5775238234894,106.74819999999909 65.48547382348943,106.62219999999911 64.31998382348945,106.42309999999907 C 63.1545238234894,106.22359999999912 61.91559382348942,105.95059999999899 60.93916382348948,105.60409999999911 C 59.96268382348944,105.257599999999 59.248713823489425,104.8377999999991 59.11215382348951,104.59629999999902 C 58.97560382348945,104.3548999999989 59.416523823489456,104.29159999999911 60.23549382348949,104.20769999999902 C 61.05448382348948,104.12369999999896 62.25155382348953,104.01859999999897 63.46955382348949,103.88209999999913 C 64.68752382348953,103.74559999999906 65.92628382348948,103.57779999999912 65.94733382348954,103.28899999999908 C 65.96843382348959,103.00019999999904 64.77152382348959,102.59059999999909 63.78450382348956,102.30719999999906 C 62.79748382348953,102.02359999999908 62.0206638234896,101.86639999999898 61.128213823489546,101.40959999999905 C 60.23574382348954,100.95289999999909 59.22779382348949,100.19679999999903 58.45080382348954,99.47239999999897 C 57.673823823489556,98.74789999999894 57.12800382348951,98.05479999999898 57.50596382348954,98.06529999999907 C 57.88391382348959,98.07529999999906 59.18580382348955,98.78959999999915 60.561263823489526,99.39859999999908 C 61.9367238234895,100.007599999999 63.38561382348951,100.51159999999913 64.83457382348956,100.83709999999905 C 66.2835438234896,101.16259999999897 67.73248382348959,101.30959999999914 67.91102382348959,101.08909999999901 C 68.08957382348956,100.86869999999908 66.99763382348954,100.28069999999911 66.13665382348961,99.77669999999898 C 65.27565382348962,99.27279999999905 64.6455738234896,98.85279999999898 63.868583823489644,98.21239999999898 C 63.09160382348966,97.57179999999903 62.1676438234897,96.71079999999893 61.4424038234896,95.79169999999908 C 60.71717382348959,94.87259999999901 60.190813823489634,93.895299999999 60.34828382348962,93.80079999999907 C 60.505773823489676,93.70679999999902 61.34716382348961,94.49459999999908 62.69188382348966,95.39269999999897 C 64.03658382348965,96.29079999999908 65.8845938234897,97.29869999999892 67.62754382348965,98.01269999999886 C 69.37052382348963,98.7266999999988 71.00861382348967,99.14689999999882 72.25809382348962,99.36739999999895 C 73.50758382348965,99.58789999999885 74.36834382348957,99.60869999999886 74.37889382348965,99.40939999999887 C 74.38939382348963,99.20989999999892 73.54950382348966,98.78989999999885 72.85651382348965,98.44339999999897 C 72.16351382348967,98.09689999999887 71.61741382348964,97.82399999999893 71.12393382348966,97.48799999999892 C 70.63045382348969,97.1519999999989 70.18958382348967,96.753099999999 70.88250382348963,96.66909999999893 C 71.57544382348965,96.58509999999887 73.40218382348962,96.81589999999892 74.77766382348966,96.83699999999885 C 76.15313382348961,96.85799999999881 77.07730382348961,96.66909999999893 77.02484382348962,96.42759999999885 C 76.97234382348961,96.18609999999876 75.9434838234896,95.89209999999889 74.68351382348965,95.38809999999876 C 73.4235438234897,94.88409999999885 71.93231382348961,94.16999999999871 70.60934382348967,93.47179999999867 C 69.28636382348964,92.77349999999865 68.13158382348968,92.09109999999873 67.34407382348968,91.65529999999876 C 66.55656382348968,91.21959999999876 66.13678382348974,91.03049999999871 66.5095038234897,90.99899999999866 C 66.88222382348965,90.96699999999873 68.0474638234897,91.09399999999869 69.3704538234897,90.91999999999871 C 70.69343382348973,90.74669999999878 72.17380382348972,90.27429999999868 73.3235338234897,89.81749999999874 C 74.47327382348965,89.36079999999879 75.29229382348967,88.91999999999871 76.01681382348966,88.34249999999884 C 76.74131382348969,87.76499999999874 77.37121382348971,87.0509999999988 77.07721382348961,86.87249999999881 C 76.78320382348966,86.69389999999885 75.56527382348963,87.05069999999887 74.39978382348966,87.29219999999873 C 73.23430382348965,87.53359999999884 72.12155382348965,87.6596999999988 70.9980638234897,87.69119999999862 C 69.87457382348975,87.72319999999854 68.74053382348973,87.66019999999867 69.05550382348974,87.32389999999873 C 69.37048382348974,86.98789999999872 71.13454382348971,86.3788999999988 72.3945438234897,85.7909999999988 C 73.65454382348969,85.20299999999884 74.41022382348967,84.63589999999886 75.04024382348973,83.96389999999883 C 75.6702538234897,83.29199999999878 76.1745338234897,82.51509999999894 76.11675382348972,82.2262999999989 C 76.05895382348967,81.93749999999886 75.43922382348967,82.13729999999896 74.67797382348976,82.48869999999897 C 73.91672382348975,82.84039999999891 73.01402382348977,83.34459999999899 71.17126382348977,83.80129999999895 C 69.32852382348972,84.2579999999989 66.54624382348982,84.6673999999989 64.82953382348978,84.77759999999898 C 63.11282382348975,84.88779999999906 62.461663823489744,84.69859999999903 62.44062382348977,84.56239999999889 C 62.419623823489815,84.42589999999882 63.028653823489776,84.34179999999878 63.80564382348973,84.05829999999878 C 64.58263382348969,83.77489999999875 65.5274238234897,83.2918999999988 66.46192382348977,82.64099999999871 C 67.39643382348982,81.98999999999864 68.32051382348982,81.17079999999874 68.95052382348979,80.54079999999863 C 69.58053382348976,79.91079999999852 69.9165238234898,79.47019999999861 69.6277538234898,79.40719999999874 C 69.3389838234898,79.34419999999864 68.42545382348976,79.65879999999879 67.46995382348985,80.00529999999867 C 66.51445382348982,80.35179999999878 65.5169838234898,80.72999999999865 64.4302538234898,81.03449999999862 C 63.34351382348984,81.33899999999858 62.16771382348986,81.56979999999862 60.91825382348986,81.58029999999872 C 59.66878382348989,81.59129999999868 58.34576382348985,81.38099999999872 57.159283823489886,81.06599999999867 C 55.972823823489875,80.75099999999861 54.92280382348986,80.33079999999859 54.082833823489864,79.82689999999866 C 53.242873823489845,79.32289999999875 52.612793823489824,78.73479999999859 52.79913382348991,78.71909999999866 C 52.98548382348986,78.70309999999859 53.98845382348986,79.25989999999865 55.206413823489925,79.58539999999857 C 56.42438382348996,79.91089999999849 57.85745382348989,80.00529999999867 57.78138382348993,79.76639999999861 C 57.705283823489935,79.52749999999855 56.119803823489974,78.95529999999872 55.01734382348991,78.35679999999866 C 53.91488382348996,77.7582999999986 53.29552382348993,77.1337999999987 53.55011382348994,77.11539999999854 C 53.804703823489945,77.09739999999852 54.93333382348999,77.6848999999986 56.17492382348996,78.06559999999854 C 57.416513823489936,78.4461999999985 58.77087382348998,78.61959999999863 59.98097382348999,78.60909999999853 C 61.191083823489976,78.59909999999854 62.256743823489956,78.4040999999986 61.90765382349002,78.19139999999857 C 61.558563823489976,77.9787999999985 59.79482382348999,77.74799999999846 58.566353823489976,77.48549999999864 C 57.337873823489986,77.22299999999859 56.64458382348994,76.92879999999855 56.98054382348994,76.88679999999863 C 57.31651382348991,76.84479999999871 58.681753823489885,77.05509999999867 60.015213823489944,77.03409999999872 C 61.348663823489915,77.01309999999876 62.650573823489935,76.76089999999863 63.616573823489944,76.46689999999876 C 64.58256382348998,76.17299999999886 65.21240382348992,75.83699999999885 64.97354382348999,75.72149999999874 C 64.73469382349003,75.60589999999866 63.62716382349004,75.71149999999875 62.73467382348997,75.72149999999874 C 61.84218382349002,75.73149999999873 61.164823823489996,75.64749999999867 60.41675382349001,75.39589999999885 C 59.668663823489965,75.14399999999887 58.84992382349003,74.72389999999882 58.04144382349,74.25139999999874 C 57.23296382348997,73.77899999999863 56.43483382348995,73.25399999999877 56.37180382349004,73.07549999999878 C 56.30880382349005,72.8969999999988 56.98090382349005,73.06549999999879 57.852373823489984,73.08649999999875 C 58.72385382349,73.10749999999871 59.79467382349003,72.98129999999878 61.191153823490026,72.6768999999988 C 62.58763382349002,72.37239999999883 64.30944382349003,71.88929999999868 65.56944382349002,71.41679999999883 C 66.82944382349001,70.94429999999875 67.62738382349005,70.48259999999891 68.24686382349,70.12559999999894 C 68.86637382349,69.76859999999897 69.30750382349004,69.51659999999902 69.12902382349,69.33809999999903 C 68.95055382349005,69.15949999999907 68.15250382348995,69.05439999999908 67.22851382348995,68.88639999999896 C 66.3045438234899,68.71839999999906 65.25455382348991,68.48759999999902 64.65607382348992,68.32999999999902 C 64.05761382348987,68.17259999999897 63.91065382348995,68.08839999999896 64.2990938234899,67.8468999999991 C 64.6875138234899,67.60549999999898 65.61134382348985,67.20659999999907 66.27286382348984,66.87059999999906 C 66.9343538234898,66.53459999999905 67.33337382348986,66.26149999999916 67.81637382348981,65.89409999999907 C 68.29938382348985,65.52659999999901 68.8664038234898,65.06449999999904 69.40192382348982,64.56049999999914 C 69.9374138234898,64.05649999999923 70.44119382348981,63.51079999999911 70.15769382348981,63.342799999999215 C 69.87418382348983,63.17469999999912 68.80323382348979,63.38479999999913 67.94224382348978,63.56329999999912 C 67.08123382348981,63.7417999999991 66.43046382348973,63.88859999999909 66.50396382348981,63.67859999999905 C 66.57746382348978,63.468599999999014 67.37533382348977,62.90159999999901 67.92135382348977,62.42909999999915 C 68.46736382348979,61.956699999999046 68.76132382348976,61.57879999999909 68.6667938234898,61.47919999999908 C 68.57229382348976,61.38019999999915 68.08924382348982,61.55919999999901 67.41531382348978,61.78289999999902 C 66.7414038234898,62.006999999998925 65.87710382348973,62.27619999999911 64.73260382348974,62.47019999999907 C 63.58809382348977,62.66419999999903 62.163903823489704,62.78289999999902 60.8953538234897,62.768799999999146 C 59.626803823489695,62.75479999999925 58.51381382348973,62.60749999999916 58.37729382348971,62.449999999999136 C 58.240763823489715,62.292599999999084 59.08057382348966,62.12479999999914 59.958313823489675,61.87349999999924 C 60.83605382348969,61.62229999999931 61.751713823489695,61.2875999999992 62.45523382348972,60.95159999999919 C 63.15872382348971,60.615599999999176 63.65012382348971,60.27819999999929 63.51788382348968,60.14089999999919 C 63.385633823489684,60.003599999999096 62.62973382348969,60.06689999999912 61.88424382348967,60.12889999999925 C 61.138743823489676,60.19189999999935 60.40385382348961,60.2549999999992 59.32237382348967,60.2549999999992 C 58.2409038234897,60.2549999999992 56.812653823489654,60.1919999999991 55.45818382348966,60.0344999999993 C 54.10369382348961,59.87699999999927 52.822953823489684,59.62479999999937 51.66799382348961,59.24679999999921 C 50.51302382348956,58.86879999999928 49.48404382348963,58.3649999999991 48.79369382348966,57.91879999999924 C 48.103363823489644,57.47249999999917 47.75150382348966,57.083899999999176 47.866983823489704,57.02349999999933 C 47.982453823489664,56.963499999999385 48.56494382348967,57.23099999999931 49.53588382348971,57.48619999999937 C 50.506793823489716,57.741499999999405 51.86602382348974,57.98419999999942 53.18003382348968,57.97309999999948 C 54.49404382348973,57.96209999999951 55.76288382348969,57.697299999999586 55.70212382348973,57.48619999999937 C 55.641323823489756,57.27529999999933 54.250793823489744,57.11819999999943 53.20092382348969,56.941999999999325 C 52.151073823489696,56.76569999999924 51.441543823489724,56.57009999999923 50.885783823489646,56.32109999999943 C 50.33003382348966,56.07209999999941 49.92811382348964,55.769499999999425 49.947493823489594,55.61819999999943 C 49.96689382348961,55.46689999999944 50.407773823489606,55.46689999999944 50.84877382348964,55.46689999999944 C 52.024623823489605,55.340899999999465 53.20068382348961,55.21509999999944 54.52366382348964,55.05759999999941 C 55.84664382348967,54.89999999999941 57.31670382348966,54.71119999999951 58.54521382348969,54.648199999999406 C 59.773703823489654,54.585199999999304 60.760403823489696,54.648199999999406 61.621403823489686,54.753199999999424 C 62.482403823489676,54.85819999999944 63.21763382348968,55.00499999999943 63.23869382348971,54.79519999999934 C 63.25969382348967,54.58529999999928 62.56665382348967,54.01829999999927 61.905143823489766,53.54579999999942 C 61.243613823489795,53.073299999999335 60.613893823489775,52.69539999999938 59.82639382348975,52.3488999999995 C 59.03889382348973,52.0024999999996 58.093573823489805,51.687499999999545 57.30606382348981,51.4879999999996 C 56.518543823489836,51.28849999999966 55.8886938234898,51.20439999999962 55.57374382348985,51.16239999999971 C 55.25880382348987,51.12039999999979 55.825783823489814,51.12039999999979 56.10921382348988,51.089399999999614 C 56.392643823489834,51.05739999999969 56.95981382348987,50.99439999999959 57.5583238234899,50.86889999999971 C 58.15681382348987,50.742899999999736 58.78673382348995,50.55389999999966 59.7632038234899,50.12339999999972 C 60.73968382348994,49.692999999999756 62.06268382348992,49.02099999999973 63.16518382348988,48.380499999999756 C 64.2676638234899,47.73999999999978 65.14960382348988,47.13109999999983 65.12862382348987,46.91049999999973 C 65.10762382348992,46.68999999999983 64.18357382348984,46.85749999999962 63.40661382348992,46.89949999999976 C 62.62963382348994,46.94149999999968 61.99961382348988,46.857499999999845 62.146573823489916,46.58449999999971 C 62.29353382348995,46.311499999999796 63.217543823489905,45.84959999999978 64.00503382348995,45.38769999999977 C 64.79254382348995,44.92569999999978 65.44347382348997,44.463799999999765 65.46447382348993,44.29579999999987 C 65.48547382348988,44.12779999999998 64.8763638234899,44.253799999999956 64.1623838234899,44.400499999999965 C 63.44838382348985,44.5474999999999 62.629573823489864,44.715799999999945 61.4326038234899,44.862699999999904 C 60.23561382348987,45.009799999999814 58.660713823489914,45.135499999999865 57.36924382348991,45.04099999999994 C 56.077773823489906,44.94599999999991 55.069693823489956,44.631599999999935 54.208713823489916,44.306100000000015 C 53.347733823489875,43.980600000000095 52.633703823489896,43.64460000000008 52.87516382348997,43.44509999999991 C 53.11660382348998,43.24559999999997 54.31366382348995,43.182599999999866 55.164123823489945,43.056699999999864 C 56.01460382348989,42.93069999999989 56.51851382348991,42.741799999999785 56.3715438234899,42.57379999999989 C 56.224593823489954,42.4058 55.42662382348988,42.25869999999986 54.45015382348993,41.9541999999999 C 53.47367382348989,41.64969999999994 52.31889382348993,41.18769999999995 51.121923823489965,40.44219999999996 C 49.92495382349,39.696699999999964 48.686003823489955,38.66769999999997 47.80404382349002,37.3762999999999 C 46.92206382349002,36.08479999999986 46.39682382348997,34.53099999999995 46.333793823490055,33.87989999999991 C 46.27079382349007,33.228799999999865 46.669753823490055,33.480999999999995 47.61473382349004,33.92189999999982 C 48.55972382349,34.362899999999854 50.05072382348999,34.99259999999981 51.73068382349004,35.43359999999984 C 53.41063382349,35.87459999999987 55.279643823490005,36.126799999999776 55.88867382349008,36.0637999999999 C 56.49771382349013,36.0007999999998 55.846873823490114,35.62279999999987 55.090863823490054,34.98219999999992 C 54.334903823490095,34.34179999999992 53.47388382349004,33.438899999999876 53.3688538234901,33.20789999999988 C 53.263843823490106,32.97689999999989 53.91482382349011,33.41779999999994 55.11176382349015,33.76429999999982 C 56.308713823490166,34.11079999999993 58.051533823490104,34.362899999999854 58.24058382349017,34.142399999999725 C 58.42962382349015,33.92189999999982 57.06470382349016,33.22869999999966 56.004233823490154,32.546299999999746 C 54.94375382349017,31.863799999999856 54.187803823490185,31.191899999999805 53.8937538234901,30.87689999999975 C 53.599733823490055,30.561899999999696 53.76791382349006,30.603799999999637 54.37688382349006,30.656299999999646 C 54.98585382349006,30.709299999999757 56.03575382349004,30.771699999999555 57.043733823490015,30.63529999999969 C 58.051703823490016,30.49879999999962 59.017653823490036,30.162799999999606 58.93367382349004,29.879199999999628 C 58.84967382349009,29.595699999999624 57.71569382349003,29.364999999999554 56.53972382349002,28.913499999999658 C 55.36376382348999,28.46199999999976 54.145813823490016,27.789999999999736 52.791323823490075,26.981599999999617 C 51.43684382349011,26.173099999999522 49.94593382349012,25.22779999999966 48.61243382349005,24.440299999999525 C 47.27893382349009,23.65289999999959 46.103233823490086,23.022799999999506 45.85117382349006,22.58709999999951 C 45.59909382349008,22.151499999999487 46.271023823490054,21.910199999999577 47.08477382349008,21.70019999999954 C 47.89852382349011,21.490199999999504 48.85383382349005,21.311399999999594 50.28183382349005,21.2220999999995 C 51.70982382349007,21.13309999999956 53.61004382349006,21.13309999999956 53.3633138234901,20.5974999999994 C 53.11661382349007,20.061999999999443 50.72284382349005,18.991099999999506 49.13734382349014,18.31909999999948 C 47.55185382349009,17.647099999999455 46.77496382349011,17.374099999999544 46.11350382349019,16.922699999999395 C 45.452053823490246,16.4711999999995 44.906083823490235,15.841299999999364 45.074003823490216,15.578799999999319 C 45.24194382349026,15.316199999999299 46.12394382349021,15.421099999999342 46.995403823490165,15.379099999999426 C 47.866883823490184,15.33709999999951 48.72804382349011,15.147999999999456 48.70709382349014,14.840899999999465 C 48.68619382349016,14.533699999999499 47.7830738234901,14.10859999999957 46.91157382349013,13.767399999999498 C 46.040063823490186,13.426099999999451 45.19996382349018,13.16909999999939 44.422963823490136,12.993199999999433 C 43.64594382349014,12.817399999999452 42.93193382349011,12.722799999999324 43.015903823490135,12.402599999999438 C 43.09990382349008,12.082399999999325 43.98188382349008,11.536199999999326 45.02138382349017,11.158199999999397 C 46.060863823490195,10.780099999999493 47.25787382349017,10.570199999999431 46.995403823490165,10.223599999999351 C 46.732963823490195,9.877199999999448 45.01113382349013,9.394299999999248 43.95066382349012,8.984799999999268 C 42.89020382349008,8.575299999999288 42.49094382349017,8.2391999999993 42.01844382349009,7.934699999999339 C 41.54592382349006,7.630199999999377 41.00012382349007,7.357499999999391 40.580163823490125,6.905999999999267 C 40.16021382349015,6.4545999999993455 39.866133823490145,5.8244999999992615 39.57213382349016,4.585599999999204 C 39.278123823490205,3.346599999999171 39.03242382349015,1.4984999999992397 38.79093382349015,0.19649999999910506 C 38.76693382349015,0.06689999999912288 38.666303823490125,0.0010999999990417564 38.56561382349014,9.999999906540324e-05 L 38.56561382348957,0.0" id="path2840" style="fill:#1a1a1a;stroke-width:0.87312;stroke-linecap:round;stroke-linejoin:round;stroke-dashoffset:2.43;paint-order:stroke fill markers"/>
</svg>
