<?xml version="1.0" ?>
<svg xmlns="http://www.w3.org/2000/svg" xmlns:ev="http://www.w3.org/2001/xml-events" xmlns:xlink="http://www.w3.org/1999/xlink" baseProfile="full" height="211" id="katman_2" transform="scale(0.704225352112676 0.704225352112676) translate(-71.0 -105.5)" version="1.1" viewBox="0 0 142 211" width="142">
	<defs/>
	<path d="M 63.57000000000001,0.0 C 59.63000000000001,13.75 54.150000000000006,27.09 44.49000000000001,38.95 C 47.55000000000001,40.190000000000005 51.40000000000001,40.28 54.63000000000001,40.25 C 50.93000000000001,55.17 40.11000000000001,66.19 32.690000000000005,71.28999999999999 C 32.690000000000005,71.28999999999999 40.63,73.66999999999999 47.7,72.97 C 40.63,83.11 30.42,94.46 20.130000000000003,102.85 C 24.46,104.66 30.680000000000003,106.61 39.54,106.83 C 30.58,118.17 24.0,124.97 11.559999999999999,131.73 C 18.419999999999998,135.89999999999998 27.88,136.63 36.71,136.34 C 26.590000000000003,147.94 14.580000000000002,157.84 0.0,166.19 C 19.38,174.3 51.66,177.24 71.26999999999998,176.39 C 90.88999999999999,175.54 122.78999999999999,169.82 141.39,160.06 C 126.13999999999999,153.0 113.32,144.18 102.22999999999999,133.49 C 111.04999999999998,133.01000000000002 120.41,131.46 126.88999999999999,126.72000000000001 C 113.91,121.06000000000002 106.75999999999999,114.85000000000001 96.85999999999999,104.33000000000001 C 105.66999999999999,103.35000000000001 111.69999999999999,100.86000000000001 115.85,98.69000000000001 C 104.86999999999998,91.22000000000001 93.72,80.79000000000002 85.79999999999998,71.30000000000001 C 92.91,71.39000000000001 100.60999999999999,68.33000000000001 100.60999999999999,68.33000000000001 C 92.78,63.90000000000001 81.04999999999998,53.85000000000001 76.07,39.30000000000001 C 79.28999999999999,39.05000000000001 83.13,38.640000000000015 86.06,37.13000000000001 C 75.43,26.17 68.69,13.36 63.57000000000001,0.0 M 91.82,206.98 C 84.81,190.17999999999998 81.81,176.47 79.30000000000001,156.35999999999999 L 61.54,157.13 C 60.769999999999996,177.39 58.98,191.3 53.44,208.64 C 66.97,211.38 79.84,211.16 91.82,206.98"/>
</svg>
