<?xml version="1.0" ?>
<svg xmlns="http://www.w3.org/2000/svg" xmlns:ev="http://www.w3.org/2001/xml-events" xmlns:xlink="http://www.w3.org/1999/xlink" baseProfile="full" height="395" id="Слой_1" style="enable-background:new 0 0 1280 1280;" transform="scale(0.25316455696202533 0.25316455696202533) translate(-200.5 -197.5)" version="1.1" viewBox="0 0 401 395" width="401" x="0px" xml:space="preserve" y="0px">
	<defs/>
	<path d="M 193.40000000000026,58.099999999999966 C 193.80000000000024,48.69999999999999 192.1000000000003,39.599999999999966 188.50000000000028,30.69999999999999 C 196.20000000000033,32.80000000000001 200.70000000000033,41.5 203.90000000000026,59.69999999999999 C 206.20000000000022,50.19999999999999 211.90000000000026,43.80000000000001 221.1000000000003,39.599999999999966 C 221.50000000000028,46.49999999999994 222.1000000000003,52.799999999999955 220.30000000000035,58.89999999999998 C 218.20000000000033,66.5 213.40000000000038,71.19999999999999 205.1000000000003,72.69999999999999 C 205.70000000000033,84.69999999999999 206.20000000000033,96.79999999999995 211.1000000000003,108.10000000000002 C 213.30000000000035,113.10000000000002 216.70000000000033,117.0 223.1000000000003,118.10000000000002 C 217.1000000000003,107.30000000000007 214.50000000000028,96.5 217.90000000000026,84.80000000000001 C 219.40000000000026,79.69999999999999 222.1000000000003,75.40000000000003 227.6000000000003,72.40000000000003 C 234.6000000000003,85.80000000000001 234.90000000000026,99.0 228.30000000000035,113.20000000000005 C 230.0000000000004,112.40000000000009 231.30000000000035,111.80000000000007 232.5000000000004,111.10000000000002 C 243.20000000000044,105.70000000000005 254.0000000000004,100.60000000000002 264.4000000000004,94.70000000000005 C 276.0000000000004,88.10000000000002 284.20000000000033,78.50000000000006 286.5000000000004,64.90000000000003 C 287.20000000000044,60.700000000000045 287.1000000000004,56.30000000000001 287.30000000000035,52.00000000000006 C 287.4000000000004,49.700000000000045 287.30000000000035,47.400000000000034 287.30000000000035,44.80000000000007 C 292.0000000000004,43.80000000000007 292.0000000000004,49.10000000000008 295.30000000000035,50.80000000000007 C 296.4000000000004,38.80000000000007 303.20000000000033,31.700000000000045 314.80000000000035,28.10000000000008 C 314.0000000000004,37.10000000000008 313.9000000000004,45.7000000000001 308.80000000000035,53.10000000000008 C 305.80000000000035,57.40000000000009 301.4000000000004,59.00000000000006 296.6000000000003,59.60000000000008 C 295.90000000000026,64.10000000000008 295.5000000000003,68.40000000000009 294.5000000000003,72.60000000000008 C 291.90000000000026,83.40000000000009 285.0000000000003,91.30000000000007 275.70000000000033,96.80000000000007 C 266.0000000000003,102.60000000000002 255.80000000000035,107.50000000000011 245.90000000000038,112.90000000000009 C 243.40000000000038,114.20000000000005 241.0000000000004,115.60000000000014 238.5000000000004,117.10000000000014 C 229.40000000000038,122.70000000000016 222.60000000000042,130.20000000000016 219.30000000000035,140.5000000000001 C 214.80000000000035,154.5000000000001 207.90000000000038,167.0000000000001 198.40000000000038,178.20000000000016 C 193.80000000000035,183.60000000000014 190.5000000000004,189.80000000000018 191.10000000000042,197.30000000000018 C 191.30000000000047,199.20000000000016 191.80000000000047,201.10000000000014 192.60000000000042,203.30000000000018 C 200.5000000000004,181.80000000000018 214.0000000000004,167.50000000000023 238.40000000000038,166.80000000000018 C 239.20000000000033,162.4000000000002 239.40000000000038,157.70000000000016 243.40000000000038,154.80000000000018 C 247.30000000000035,151.9000000000002 251.70000000000033,151.00000000000023 257.0000000000004,150.30000000000018 C 255.5000000000004,158.50000000000023 250.5000000000004,163.4000000000002 244.30000000000035,167.30000000000018 C 250.0000000000004,168.9000000000002 255.6000000000003,170.60000000000014 261.1000000000003,172.20000000000016 C 261.1000000000003,171.80000000000018 260.90000000000026,170.5000000000001 261.40000000000026,169.9000000000002 C 262.1000000000003,169.10000000000025 263.40000000000026,168.80000000000018 264.5000000000003,168.4000000000002 C 270.6000000000003,166.4000000000002 275.0000000000003,167.50000000000023 278.6000000000003,172.70000000000016 C 274.5000000000003,173.9000000000002 270.70000000000033,175.0000000000001 266.20000000000033,176.30000000000018 C 270.6000000000003,179.00000000000023 275.6000000000003,180.70000000000016 276.5000000000003,186.10000000000014 C 276.80000000000024,187.70000000000016 276.1000000000003,189.4000000000001 275.70000000000033,192.10000000000014 C 267.4000000000004,184.80000000000018 260.1000000000003,177.9000000000001 250.20000000000033,175.30000000000018 C 247.00000000000028,174.50000000000023 243.70000000000033,174.4000000000002 240.20000000000033,174.70000000000016 C 243.1000000000003,176.20000000000016 246.00000000000028,177.60000000000014 249.6000000000003,179.5000000000001 C 241.1000000000003,185.9000000000001 233.20000000000033,190.30000000000007 223.30000000000035,190.0000000000001 C 221.6000000000003,189.4000000000001 219.80000000000035,188.9000000000001 218.20000000000033,188.20000000000016 C 215.40000000000038,186.9000000000002 212.70000000000033,185.4000000000002 214.90000000000038,181.20000000000016 C 211.70000000000033,183.5000000000001 208.40000000000038,185.30000000000018 209.30000000000035,189.9000000000002 C 214.20000000000033,189.9000000000002 218.80000000000035,189.9000000000002 223.40000000000038,189.9000000000002 C 223.60000000000042,190.30000000000018 223.70000000000033,191.00000000000023 223.90000000000038,191.00000000000023 C 232.5000000000004,193.00000000000023 239.0000000000004,198.4000000000002 245.40000000000038,204.00000000000023 C 249.10000000000042,207.30000000000018 253.10000000000042,210.4000000000002 257.20000000000033,213.10000000000025 C 260.1000000000003,215.00000000000023 263.5000000000003,216.20000000000027 266.80000000000035,217.20000000000027 C 271.4000000000004,218.60000000000025 272.30000000000035,217.90000000000032 273.0000000000004,213.20000000000027 C 273.4000000000004,210.00000000000023 273.4000000000004,210.00000000000023 276.1000000000004,208.40000000000032 C 278.9000000000004,212.00000000000034 279.1000000000004,216.70000000000027 276.6000000000004,220.70000000000027 C 274.20000000000044,224.50000000000023 271.70000000000044,225.60000000000025 266.80000000000047,224.50000000000023 C 263.6000000000004,223.70000000000027 260.6000000000004,222.50000000000023 257.0000000000005,221.30000000000018 C 258.9000000000005,226.20000000000016 263.30000000000047,230.60000000000014 258.70000000000056,236.10000000000014 C 252.5000000000005,230.80000000000018 242.80000000000058,228.10000000000014 245.70000000000056,216.20000000000016 C 247.60000000000053,216.80000000000018 249.4000000000006,217.4000000000002 251.10000000000053,218.0000000000001 C 251.30000000000058,217.70000000000016 251.4000000000005,217.5000000000001 251.60000000000053,217.20000000000016 C 246.80000000000058,213.5000000000001 242.10000000000053,209.80000000000018 237.30000000000058,206.0000000000001 C 241.00000000000063,212.9000000000001 241.80000000000058,220.0000000000001 240.50000000000063,228.0000000000001 C 228.80000000000058,223.10000000000014 228.30000000000058,212.60000000000014 226.80000000000058,202.20000000000016 C 221.30000000000058,202.60000000000014 215.9000000000006,203.10000000000014 210.50000000000063,203.5000000000001 C 209.70000000000067,203.60000000000014 208.80000000000058,203.70000000000016 208.00000000000063,203.80000000000007 C 201.9000000000006,204.10000000000002 201.9000000000006,204.10000000000002 199.9000000000006,209.9000000000001 C 196.00000000000063,221.20000000000005 198.60000000000065,231.70000000000005 204.10000000000065,241.60000000000014 C 208.70000000000067,249.80000000000018 214.4000000000006,257.5000000000001 219.4000000000006,265.20000000000016 C 220.4000000000006,265.0000000000001 220.80000000000058,265.0000000000001 220.9000000000006,264.8000000000002 C 227.60000000000065,253.00000000000023 238.50000000000063,246.50000000000023 250.50000000000063,241.4000000000002 C 260.0000000000006,237.4000000000002 269.60000000000065,233.60000000000025 278.9000000000006,229.30000000000018 C 283.8000000000006,227.00000000000023 288.3000000000006,223.70000000000016 293.20000000000056,220.70000000000016 C 286.60000000000053,200.9000000000002 287.70000000000056,180.80000000000018 286.4000000000006,160.80000000000018 C 278.8000000000006,159.9000000000002 272.20000000000056,158.10000000000014 267.4000000000006,152.30000000000018 C 263.3000000000006,147.30000000000018 261.20000000000056,141.4000000000002 260.4000000000006,135.00000000000023 C 268.0000000000006,135.50000000000023 276.0000000000006,139.60000000000025 284.20000000000056,147.60000000000025 C 283.3000000000006,144.3000000000003 282.70000000000056,141.8000000000003 282.0000000000005,139.3000000000003 C 285.5000000000005,137.20000000000027 287.60000000000053,140.40000000000032 290.10000000000053,141.3000000000003 C 290.4000000000005,137.40000000000032 290.10000000000053,133.50000000000034 291.10000000000053,130.00000000000034 C 292.10000000000053,126.20000000000039 295.10000000000053,123.60000000000036 299.3000000000006,122.90000000000032 C 302.8000000000006,132.50000000000034 300.9000000000006,138.90000000000032 293.4000000000006,145.00000000000034 C 293.4000000000006,150.7000000000004 293.4000000000006,156.00000000000034 293.4000000000006,161.3000000000003 C 293.8000000000006,161.50000000000034 294.10000000000065,161.60000000000025 294.5000000000006,161.8000000000003 C 299.3000000000006,148.70000000000027 311.70000000000067,146.60000000000025 322.8000000000006,141.00000000000034 C 322.20000000000056,151.00000000000034 320.0000000000006,159.8000000000003 314.8000000000006,167.7000000000004 C 309.4000000000006,175.90000000000043 301.3000000000006,180.2000000000004 291.70000000000056,182.3000000000004 C 294.10000000000053,191.2000000000004 295.3000000000006,200.00000000000045 300.4000000000006,207.2000000000004 C 302.60000000000065,203.60000000000036 304.3000000000006,200.00000000000034 306.8000000000006,197.10000000000036 C 309.3000000000006,194.2000000000004 312.70000000000056,191.90000000000032 315.60000000000053,189.40000000000032 C 316.0000000000005,189.60000000000036 316.4000000000005,189.70000000000027 316.70000000000056,189.90000000000032 C 316.5000000000005,193.3000000000003 316.10000000000053,196.70000000000027 316.10000000000053,200.00000000000034 C 316.10000000000053,203.40000000000032 316.4000000000005,206.8000000000003 316.5000000000005,210.2000000000004 C 316.9000000000005,210.2000000000004 317.30000000000047,210.3000000000004 317.70000000000056,210.3000000000004 C 318.10000000000053,209.3000000000004 318.60000000000053,208.3000000000004 318.9000000000006,207.3000000000004 C 322.70000000000056,195.8000000000004 328.10000000000065,185.2000000000004 336.5000000000006,176.3000000000004 C 338.9000000000006,173.8000000000004 341.70000000000067,171.60000000000036 344.60000000000065,169.7000000000004 C 350.9000000000006,165.60000000000036 360.3000000000007,165.90000000000043 366.0000000000006,175.60000000000036 C 364.5000000000006,175.10000000000036 363.5000000000006,174.8000000000004 362.60000000000065,174.40000000000032 C 354.20000000000067,170.50000000000034 347.70000000000067,171.50000000000034 342.3000000000007,178.90000000000032 C 337.8000000000007,185.00000000000034 334.50000000000074,192.00000000000034 330.9000000000007,198.70000000000027 C 327.00000000000074,206.00000000000023 323.60000000000076,213.70000000000027 319.50000000000074,220.90000000000032 C 315.60000000000076,227.70000000000027 309.50000000000074,231.8000000000003 301.8000000000007,233.60000000000036 C 296.60000000000065,234.8000000000004 291.50000000000074,236.10000000000036 286.3000000000007,237.50000000000034 C 284.60000000000065,238.00000000000034 283.10000000000065,238.90000000000032 280.60000000000065,240.00000000000034 C 297.9000000000006,243.8000000000003 313.4000000000006,250.10000000000036 330.60000000000065,251.90000000000032 C 331.70000000000067,244.70000000000027 332.8000000000007,237.60000000000036 339.20000000000067,233.00000000000034 C 344.5000000000006,229.2000000000004 350.4000000000007,227.60000000000036 356.8000000000007,226.90000000000032 C 355.9000000000007,240.70000000000027 347.50000000000074,249.70000000000027 332.60000000000065,252.10000000000036 C 346.10000000000065,253.50000000000034 357.60000000000065,251.00000000000034 367.3000000000007,241.90000000000032 C 369.60000000000065,247.90000000000032 363.70000000000067,249.70000000000027 361.60000000000065,254.3000000000003 C 376.0000000000006,252.60000000000025 388.4000000000006,255.70000000000027 399.10000000000065,266.3000000000003 C 385.10000000000065,271.4000000000003 372.4000000000006,278.8000000000003 357.10000000000065,275.4000000000003 C 352.10000000000065,274.3000000000003 348.0000000000006,271.7000000000003 344.3000000000007,268.00000000000034 C 346.70000000000067,261.50000000000034 354.3000000000007,261.2000000000004 358.3000000000007,255.3000000000003 C 349.20000000000067,258.4000000000003 340.8000000000007,259.50000000000034 332.4000000000007,258.3000000000003 C 323.00000000000074,257.00000000000034 313.8000000000007,254.70000000000027 304.50000000000074,252.90000000000032 C 296.00000000000074,251.20000000000027 287.60000000000076,249.40000000000032 279.00000000000074,248.00000000000034 C 270.7000000000008,246.7000000000004 262.4000000000007,247.60000000000036 254.20000000000078,249.3000000000003 C 253.3000000000008,249.50000000000034 252.20000000000078,249.8000000000003 251.50000000000074,250.40000000000032 C 245.70000000000078,255.60000000000036 239.70000000000078,260.7000000000003 234.3000000000007,266.3000000000003 C 228.10000000000065,272.9000000000003 228.10000000000065,276.8000000000003 233.60000000000065,283.9000000000003 C 240.70000000000067,293.10000000000036 248.10000000000065,302.2000000000003 253.3000000000007,312.7000000000003 C 262.00000000000074,330.3000000000003 266.50000000000074,348.9000000000003 265.3000000000007,368.60000000000025 C 265.10000000000065,371.10000000000025 265.70000000000067,372.7000000000003 267.8000000000007,374.0000000000002 C 272.9000000000007,377.10000000000025 278.00000000000074,380.3000000000002 283.00000000000074,383.60000000000025 C 287.4000000000007,386.5000000000002 291.9000000000007,389.4000000000002 295.00000000000074,394.2000000000003 C 277.8000000000007,390.60000000000025 260.4000000000007,388.2000000000003 242.90000000000072,387.60000000000025 C 225.40000000000072,387.0000000000002 208.00000000000074,388.5000000000002 190.8000000000007,391.4000000000002 C 190.70000000000067,391.10000000000025 190.50000000000074,390.70000000000016 190.40000000000072,390.4000000000002 C 193.90000000000072,388.10000000000025 197.50000000000074,385.8000000000002 201.00000000000074,383.60000000000025 C 205.8000000000007,380.60000000000025 210.70000000000078,377.8000000000003 215.3000000000007,374.60000000000025 C 225.10000000000065,367.60000000000025 228.3000000000007,357.60000000000025 227.20000000000067,346.10000000000025 C 223.3000000000007,306.4000000000002 200.90000000000072,280.8000000000003 165.3000000000007,265.5000000000002 C 151.1000000000007,259.4000000000002 136.20000000000067,256.10000000000025 120.90000000000072,254.60000000000025 C 109.3000000000007,253.50000000000023 98.00000000000074,255.70000000000027 86.70000000000073,257.9000000000002 C 75.80000000000075,260.0000000000002 64.90000000000072,262.9000000000002 53.600000000000705,262.5000000000002 C 44.70000000000073,262.2000000000003 37.600000000000705,258.7000000000003 32.600000000000705,251.10000000000025 C 30.400000000000716,247.8000000000003 30.400000000000716,245.10000000000025 32.80000000000069,242.10000000000025 C 34.70000000000067,239.70000000000027 36.50000000000068,237.10000000000025 41.100000000000705,236.9000000000002 C 40.00000000000068,239.20000000000016 39.100000000000705,240.9000000000002 38.30000000000069,242.50000000000023 C 36.100000000000705,246.70000000000027 36.50000000000068,248.80000000000018 40.50000000000068,251.20000000000027 C 49.600000000000705,256.8000000000003 59.40000000000066,257.60000000000025 69.8000000000007,254.70000000000027 C 55.70000000000067,255.40000000000032 48.400000000000716,246.8000000000003 42.50000000000068,235.8000000000003 C 52.600000000000705,232.90000000000032 69.40000000000066,237.8000000000003 76.8000000000007,252.10000000000025 C 81.20000000000067,251.50000000000023 85.6000000000007,250.9000000000002 90.00000000000068,250.10000000000025 C 94.40000000000066,249.4000000000002 98.70000000000067,248.4000000000002 103.1000000000007,247.60000000000025 C 103.1000000000007,247.3000000000003 103.1000000000007,247.00000000000023 103.00000000000068,246.60000000000025 C 102.50000000000068,246.3000000000003 102.00000000000068,245.9000000000002 101.40000000000066,245.70000000000027 C 90.40000000000066,243.10000000000025 82.50000000000068,236.20000000000027 76.60000000000065,226.90000000000032 C 71.70000000000067,219.20000000000027 67.30000000000064,211.10000000000036 62.40000000000066,203.40000000000032 C 56.60000000000065,194.20000000000027 49.20000000000067,186.60000000000036 38.20000000000067,183.70000000000027 C 34.20000000000067,182.60000000000025 30.100000000000648,182.20000000000027 25.500000000000682,181.40000000000032 C 28.100000000000705,173.90000000000032 35.00000000000068,174.90000000000032 41.20000000000067,173.60000000000036 C 32.80000000000069,167.3000000000004 33.80000000000069,158.2000000000004 32.30000000000069,149.8000000000004 C 45.30000000000069,151.50000000000045 58.600000000000705,163.60000000000036 52.00000000000068,177.60000000000036 C 50.100000000000705,176.90000000000032 48.100000000000705,176.2000000000004 45.50000000000068,175.2000000000004 C 46.00000000000068,176.60000000000036 46.00000000000068,177.00000000000034 46.20000000000067,177.10000000000036 C 59.40000000000066,183.90000000000032 67.20000000000067,195.7000000000004 74.60000000000065,207.8000000000004 C 79.70000000000067,216.2000000000004 84.90000000000066,224.60000000000036 92.20000000000067,231.3000000000004 C 98.20000000000067,236.90000000000043 105.10000000000065,240.50000000000045 113.50000000000068,242.40000000000043 C 110.70000000000067,238.50000000000045 107.90000000000066,235.2000000000004 105.8000000000007,231.40000000000043 C 103.6000000000007,227.50000000000045 102.40000000000072,223.10000000000048 104.90000000000072,218.3000000000004 C 112.40000000000072,223.2000000000004 121.50000000000074,225.00000000000045 127.70000000000073,232.7000000000004 C 127.30000000000075,228.60000000000036 127.1000000000007,224.40000000000043 126.6000000000007,220.3000000000004 C 125.6000000000007,211.50000000000045 123.40000000000072,203.00000000000045 120.00000000000068,194.8000000000004 C 119.70000000000067,194.10000000000036 119.00000000000068,193.60000000000036 118.6000000000007,192.90000000000043 C 118.00000000000068,191.7000000000004 117.3000000000007,190.50000000000045 116.70000000000073,189.2000000000004 C 115.70000000000073,187.10000000000036 115.00000000000074,184.90000000000043 113.80000000000075,183.00000000000034 C 107.40000000000077,173.3000000000003 98.90000000000077,166.10000000000036 88.50000000000074,161.00000000000034 C 87.30000000000075,160.40000000000032 86.10000000000076,159.8000000000003 84.90000000000072,159.2000000000004 C 84.70000000000073,159.10000000000036 84.50000000000074,158.7000000000004 84.40000000000072,158.40000000000043 C 90.90000000000072,155.7000000000004 95.8000000000007,159.90000000000043 101.50000000000074,162.2000000000004 C 96.40000000000072,154.00000000000034 96.90000000000072,145.3000000000004 98.00000000000074,136.50000000000034 C 109.50000000000074,139.2000000000004 117.70000000000073,153.7000000000004 113.90000000000072,164.50000000000034 C 113.40000000000072,166.00000000000034 112.3000000000007,167.3000000000003 111.50000000000074,168.7000000000004 C 114.40000000000072,172.3000000000004 117.70000000000073,176.00000000000034 120.40000000000072,180.2000000000004 C 123.00000000000074,184.2000000000004 125.00000000000074,188.60000000000036 127.6000000000007,193.60000000000036 C 130.1000000000007,185.90000000000032 133.70000000000073,179.50000000000034 139.00000000000068,174.10000000000036 C 145.00000000000068,181.7000000000004 145.6000000000007,197.3000000000004 139.90000000000066,204.60000000000036 C 138.30000000000064,206.7000000000004 135.80000000000064,208.2000000000004 133.60000000000065,210.00000000000034 C 132.10000000000065,206.00000000000034 131.00000000000063,202.8000000000003 129.80000000000064,199.60000000000036 C 129.50000000000063,199.7000000000004 129.30000000000064,199.8000000000004 129.00000000000063,199.8000000000004 C 130.00000000000063,206.40000000000043 130.9000000000006,213.00000000000045 131.9000000000006,219.60000000000036 C 132.50000000000063,223.90000000000032 133.2000000000006,228.2000000000004 133.6000000000006,232.50000000000034 C 134.00000000000057,236.40000000000032 135.6000000000006,239.2000000000004 138.7000000000006,241.7000000000004 C 147.6000000000006,248.7000000000004 157.9000000000006,252.10000000000036 168.60000000000065,254.90000000000043 C 175.00000000000063,256.6000000000005 181.50000000000063,257.7000000000004 187.50000000000063,259.00000000000045 C 184.10000000000065,248.60000000000048 180.30000000000058,238.50000000000045 177.60000000000065,228.10000000000048 C 174.60000000000065,216.80000000000052 173.60000000000065,205.10000000000048 175.60000000000065,193.50000000000045 C 176.00000000000063,191.10000000000048 176.4000000000006,188.50000000000045 177.50000000000063,186.3000000000004 C 182.00000000000063,177.3000000000004 181.4000000000006,167.90000000000043 179.9000000000006,158.50000000000045 C 178.4000000000006,149.50000000000045 175.10000000000065,141.3000000000004 168.9000000000006,133.00000000000045 C 169.30000000000058,136.40000000000043 168.4000000000006,138.00000000000045 165.9000000000006,138.8000000000004 C 154.70000000000056,142.3000000000004 141.4000000000006,135.90000000000043 136.80000000000058,124.20000000000039 C 145.1000000000006,122.50000000000034 153.20000000000056,122.50000000000034 161.70000000000056,124.50000000000034 C 160.60000000000053,123.40000000000032 159.70000000000056,122.10000000000036 158.5000000000005,121.10000000000036 C 148.9000000000005,113.10000000000036 139.10000000000053,105.30000000000041 129.80000000000052,97.00000000000034 C 123.2000000000005,91.20000000000039 116.80000000000052,85.00000000000034 111.30000000000052,78.20000000000033 C 102.80000000000052,67.6000000000003 99.2000000000005,55.00000000000034 99.7000000000005,41.40000000000032 C 99.80000000000052,38.70000000000033 99.60000000000048,36.50000000000034 97.30000000000052,34.300000000000296 C 90.90000000000055,28.100000000000307 94.90000000000055,16.100000000000307 101.30000000000052,13.400000000000318 C 104.40000000000055,19.100000000000307 103.7000000000005,25.100000000000307 103.40000000000055,31.20000000000033 C 103.10000000000053,36.30000000000035 103.40000000000055,41.40000000000032 103.70000000000056,46.50000000000034 C 103.80000000000058,48.00000000000034 104.90000000000055,49.40000000000032 105.80000000000058,51.40000000000032 C 108.00000000000057,45.60000000000031 110.00000000000057,40.60000000000031 111.9000000000006,35.60000000000031 C 122.00000000000063,40.000000000000284 127.50000000000063,62.90000000000032 116.30000000000058,70.20000000000033 C 114.20000000000056,67.6000000000003 111.9000000000006,64.90000000000032 109.70000000000056,62.20000000000033 C 109.40000000000055,62.30000000000035 109.10000000000053,62.40000000000032 108.80000000000058,62.50000000000034 C 109.10000000000059,63.50000000000034 109.20000000000056,64.70000000000033 109.70000000000056,65.60000000000036 C 115.00000000000057,75.60000000000036 122.80000000000058,83.70000000000039 131.40000000000055,90.80000000000041 C 136.00000000000057,94.60000000000036 141.00000000000057,97.70000000000039 145.80000000000052,101.20000000000039 L 145.60000000000053,101.00000000000034 C 148.20000000000056,103.20000000000039 150.70000000000056,105.60000000000036 153.4000000000005,107.70000000000039 C 163.9000000000005,115.70000000000039 173.9000000000005,124.10000000000036 181.20000000000044,135.3000000000004 C 183.0000000000004,138.10000000000036 184.60000000000042,141.00000000000045 186.9000000000005,145.00000000000045 C 187.60000000000053,135.10000000000048 191.10000000000053,128.00000000000045 200.10000000000053,124.10000000000048 C 201.10000000000053,131.50000000000045 202.0000000000005,138.50000000000045 203.0000000000005,146.10000000000048 C 206.60000000000053,142.90000000000043 207.4000000000005,141.00000000000045 207.70000000000056,136.2000000000005 C 208.20000000000056,128.90000000000055 206.10000000000053,122.10000000000048 203.70000000000056,115.30000000000052 C 200.30000000000058,105.40000000000055 196.20000000000056,95.7000000000005 195.10000000000053,85.2000000000005 C 194.30000000000058,77.90000000000049 194.0000000000005,70.60000000000048 193.4000000000005,63.30000000000052 C 193.30000000000047,61.50000000000051 192.80000000000047,59.80000000000052 192.5000000000005,58.00000000000051 L 193.40000000000026,58.099999999999966 M 300.2000000000002,227.10000000000002 C 303.40000000000026,225.39999999999998 306.7000000000002,223.60000000000002 310.6000000000002,221.60000000000002 C 302.40000000000026,219.69999999999993 300.80000000000024,220.5 300.2000000000002,227.10000000000002 M 122.70000000000027,244.69999999999993 C 125.60000000000025,246.0999999999999 128.70000000000027,247.5999999999999 132.70000000000027,246.69999999999993 C 131.70000000000027,244.4999999999999 130.8000000000003,242.69999999999993 130.10000000000025,241.19999999999993 C 127.60000000000025,242.39999999999998 125.10000000000025,243.60000000000002 122.70000000000027,244.69999999999993 M 331.7000000000002,206.29999999999995 C 335.00000000000017,198.29999999999995 340.90000000000026,192.69999999999993 348.40000000000026,189.19999999999993 C 365.6000000000003,181.19999999999993 382.90000000000026,182.89999999999998 400.7000000000002,189.69999999999993 C 399.50000000000017,191.0999999999999 398.80000000000024,192.0999999999999 397.90000000000026,192.89999999999998 C 390.1000000000003,200.29999999999995 381.5000000000003,206.39999999999998 371.40000000000026,210.39999999999998 C 359.40000000000026,215.10000000000002 347.5000000000003,215.60000000000002 335.80000000000024,209.19999999999993 C 334.90000000000026,208.69999999999993 334.1000000000002,208.19999999999993 333.2000000000002,207.69999999999993 C 332.7000000000002,207.29999999999995 332.30000000000024,206.79999999999995 331.7000000000002,206.29999999999995 M 2.8421709430404007e-13,196.29999999999995 C 15.600000000000307,194.5 30.600000000000307,193.0999999999999 45.20000000000027,199.0 C 55.40000000000026,203.0 62.10000000000025,210.29999999999995 65.50000000000028,220.70000000000005 C 43.60000000000025,233.0 12.60000000000025,222.29999999999995 2.8421709430404007e-13,196.29999999999995 M 58.000000000000284,72.89999999999998 C 73.20000000000027,72.5 87.8000000000003,72.89999999999998 101.50000000000028,78.89999999999998 C 112.20000000000027,83.59999999999997 118.50000000000028,91.79999999999995 120.1000000000003,103.39999999999998 C 98.00000000000028,112.39999999999998 71.40000000000026,102.89999999999998 58.000000000000284,72.89999999999998 M 279.2000000000002,107.39999999999998 C 283.30000000000024,83.09999999999997 309.40000000000026,67.19999999999999 341.2000000000002,76.09999999999997 C 331.7000000000002,85.19999999999999 325.2000000000002,96.60000000000002 314.30000000000024,103.89999999999998 C 303.40000000000026,111.19999999999993 291.6000000000003,111.29999999999995 279.2000000000002,107.39999999999998 M 132.20000000000027,140.29999999999995 C 146.00000000000028,142.79999999999995 159.20000000000022,145.19999999999993 169.70000000000022,154.69999999999993 C 176.30000000000024,160.69999999999993 179.40000000000026,168.4999999999999 179.40000000000026,177.69999999999993 C 154.90000000000026,180.69999999999993 137.80000000000024,165.5 132.20000000000027,140.29999999999995 M 77.80000000000024,283.6 C 84.90000000000026,275.80000000000007 90.50000000000023,267.0 99.10000000000025,260.80000000000007 C 108.40000000000026,254.10000000000002 118.10000000000025,254.30000000000007 128.20000000000027,259.0000000000001 C 120.90000000000026,279.29999999999995 98.60000000000025,291.69999999999993 77.80000000000024,283.6 M 281.90000000000026,61.0 C 271.7000000000002,59.89999999999998 264.90000000000026,54.10000000000002 260.2000000000002,45.89999999999998 C 254.1000000000002,35.099999999999966 253.40000000000026,23.69999999999999 258.90000000000026,11.5 C 266.2000000000002,19.30000000000001 274.7000000000002,25.0 280.0000000000003,33.89999999999998 C 285.1000000000003,42.5 285.2000000000002,51.39999999999998 281.90000000000026,61.0 M 270.5000000000003,251.5 C 292.80000000000024,246.29999999999995 308.40000000000026,258.20000000000005 316.30000000000024,282.1 C 312.80000000000024,281.70000000000005 309.6000000000002,281.4 306.5000000000003,280.9 C 299.40000000000026,279.79999999999995 292.5000000000003,278.1 286.1000000000003,274.79999999999995 C 276.7000000000002,269.9 271.5000000000003,262.1 270.5000000000003,251.5 M 193.20000000000022,58.0 C 193.20000000000022,60.0 193.20000000000022,62.0 193.20000000000022,64.0 C 193.20000000000022,64.5 192.90000000000026,64.89999999999998 192.80000000000024,65.30000000000001 C 178.70000000000022,67.69999999999999 155.1000000000002,53.30000000000001 158.40000000000026,28.600000000000023 C 159.6000000000003,29.0 160.90000000000026,29.30000000000001 162.00000000000028,29.80000000000001 C 167.80000000000024,32.60000000000002 173.70000000000033,35.30000000000001 179.40000000000026,38.5 C 186.40000000000026,42.39999999999998 191.00000000000028,48.30000000000001 192.50000000000028,56.39999999999998 C 192.6000000000003,57.0 193.1000000000003,57.599999999999966 193.40000000000026,58.19999999999999 C 193.40000000000026,58.099999999999966 193.20000000000022,58.0 193.20000000000022,58.0 M 55.40000000000026,269.19999999999993 C 47.500000000000284,283.19999999999993 18.500000000000284,285.9999999999999 6.60000000000025,277.0999999999999 C 9.500000000000227,272.19999999999993 13.900000000000261,269.0999999999999 18.80000000000024,266.4999999999999 C 26.90000000000026,262.0999999999999 35.40000000000026,259.69999999999993 44.700000000000216,261.89999999999986 C 49.40000000000026,263.0 52.70000000000027,265.29999999999995 55.40000000000026,269.19999999999993 M 179.80000000000024,252.39999999999998 C 158.80000000000024,253.10000000000002 142.00000000000023,229.5 148.40000000000026,215.89999999999998 C 153.40000000000026,218.29999999999995 158.50000000000028,220.79999999999995 163.50000000000028,223.19999999999993 C 165.30000000000024,224.0999999999999 167.1000000000003,224.89999999999998 168.90000000000026,225.69999999999993 C 172.70000000000022,227.39999999999998 175.6000000000003,229.69999999999993 176.40000000000026,234.19999999999993 C 177.20000000000022,238.5999999999999 178.70000000000022,242.79999999999995 179.70000000000022,247.19999999999993 C 180.1000000000003,248.79999999999995 179.80000000000024,250.60000000000002 179.80000000000024,252.39999999999998 M 117.30000000000024,189.10000000000002 C 117.90000000000026,190.30000000000007 118.60000000000025,191.5 119.20000000000022,192.80000000000007 C 119.50000000000023,194.4000000000001 119.70000000000022,196.0000000000001 120.00000000000023,197.60000000000002 C 103.00000000000023,207.20000000000005 83.10000000000025,195.5 74.60000000000025,179.89999999999998 C 85.40000000000026,178.60000000000002 95.90000000000026,177.5 106.30000000000024,181.0 C 110.80000000000024,182.5 114.00000000000028,185.79999999999995 117.30000000000024,189.10000000000002 M 146.40000000000026,101.10000000000002 C 138.70000000000027,94.39999999999998 135.00000000000028,85.80000000000001 135.50000000000028,75.60000000000002 C 135.8000000000003,68.80000000000001 137.20000000000027,62.200000000000045 141.70000000000027,56.10000000000002 C 148.00000000000028,65.0 154.30000000000024,73.30000000000001 155.80000000000024,84.10000000000002 C 156.70000000000022,90.60000000000002 155.30000000000024,96.5 151.70000000000022,102.20000000000005 C 149.70000000000022,101.70000000000005 148.00000000000023,101.30000000000007 146.30000000000024,100.90000000000009 L 146.40000000000026,101.10000000000002 M 249.20000000000022,201.79999999999995 C 257.50000000000017,191.39999999999998 276.1000000000002,191.29999999999995 285.1000000000002,201.69999999999993 C 277.50000000000017,205.69999999999993 270.00000000000017,209.29999999999995 261.2000000000002,209.0999999999999 C 255.70000000000022,208.89999999999998 251.80000000000024,206.5 249.20000000000022,201.79999999999995 M 118.70000000000027,332.29999999999995 C 118.40000000000026,319.0999999999999 126.8000000000003,309.29999999999995 144.3000000000003,308.4 C 142.00000000000028,324.69999999999993 131.60000000000025,334.29999999999995 118.70000000000027,332.29999999999995 M 189.30000000000024,0.0 C 203.00000000000028,11.899999999999977 205.80000000000024,23.19999999999999 200.90000000000026,32.89999999999998 C 195.00000000000028,32.69999999999999 191.40000000000026,29.099999999999966 188.90000000000026,24.19999999999999 C 184.90000000000026,16.19999999999999 184.50000000000028,8.299999999999955 189.30000000000024,0.0 M 96.40000000000026,56.0 C 82.20000000000027,52.39999999999998 73.20000000000027,36.19999999999999 78.60000000000025,25.30000000000001 C 84.10000000000025,29.30000000000001 89.50000000000023,33.30000000000001 94.90000000000026,37.30000000000001 C 96.40000000000026,38.400000000000034 97.20000000000027,39.900000000000034 97.10000000000025,42.0 C 96.90000000000026,45.0 97.30000000000024,48.0 97.20000000000027,51.0 C 97.30000000000024,52.5 96.80000000000024,54.099999999999966 96.40000000000026,56.0 M 258.80000000000024,95.5 C 249.40000000000026,88.5 248.00000000000028,64.89999999999998 257.30000000000024,60.0 C 261.30000000000024,66.5 264.7000000000002,73.19999999999999 266.0000000000003,80.80000000000001 C 267.1000000000003,86.89999999999998 264.40000000000026,92.19999999999993 258.80000000000024,95.5 M 355.0000000000003,139.19999999999993 C 353.70000000000033,146.29999999999995 352.80000000000024,153.19999999999993 351.0000000000003,159.79999999999995 C 349.80000000000024,164.29999999999995 346.5000000000003,167.39999999999998 341.5000000000003,168.0999999999999 C 339.20000000000033,168.39999999999986 337.90000000000026,167.9999999999999 337.20000000000033,165.39999999999986 C 334.80000000000035,156.5999999999999 338.6000000000003,145.79999999999984 346.0000000000003,140.79999999999984 C 348.30000000000024,139.19999999999993 350.90000000000026,138.19999999999993 355.0000000000003,139.19999999999993 M 61.10000000000025,134.10000000000002 C 76.50000000000023,133.5 88.00000000000023,144.20000000000005 85.30000000000024,156.30000000000007 C 72.80000000000024,158.60000000000002 62.20000000000027,149.10000000000002 61.10000000000025,134.10000000000002 M 140.00000000000028,116.89999999999998 C 130.70000000000027,120.79999999999995 121.90000000000026,117.79999999999995 117.50000000000028,109.39999999999998 C 127.90000000000026,104.79999999999995 137.30000000000024,107.79999999999995 140.00000000000028,116.89999999999998 M 17.700000000000273,231.39999999999998 C 30.200000000000273,241.19999999999993 31.300000000000296,243.10000000000002 29.300000000000296,250.5 C 24.200000000000273,251.20000000000005 20.300000000000296,248.89999999999998 17.40000000000032,243.70000000000005 C 14.500000000000284,238.5 14.60000000000025,235.10000000000002 17.700000000000273,231.39999999999998 M 288.80000000000024,14.399999999999977 C 290.90000000000026,19.19999999999999 293.0000000000003,23.099999999999966 294.40000000000026,27.299999999999955 C 295.1000000000003,29.499999999999943 294.80000000000024,32.299999999999955 294.2000000000002,34.49999999999994 C 293.1000000000002,38.19999999999993 290.7000000000002,38.89999999999992 287.80000000000024,36.39999999999992 C 286.30000000000024,35.09999999999991 284.90000000000026,32.99999999999994 284.5000000000003,31.09999999999991 C 283.2000000000002,25.399999999999977 283.90000000000026,19.899999999999977 288.80000000000024,14.399999999999977 M 275.30000000000024,123.0 C 270.0000000000003,123.0 265.30000000000024,123.20000000000005 260.5000000000003,122.89999999999998 C 259.0000000000003,122.79999999999995 257.30000000000024,121.79999999999995 256.20000000000033,120.79999999999995 C 252.90000000000038,117.69999999999993 253.80000000000035,114.39999999999998 258.1000000000003,113.09999999999991 C 265.7000000000002,111.0 273.2000000000002,114.79999999999995 275.30000000000024,123.0 M 387.2000000000002,158.79999999999995 C 383.7000000000002,168.29999999999995 375.6000000000002,172.39999999999998 366.6000000000002,169.39999999999998 C 366.30000000000024,161.5 375.0000000000003,156.5 387.2000000000002,158.79999999999995 M 78.90000000000026,262.79999999999995 C 78.90000000000026,273.19999999999993 69.80000000000024,278.5 59.90000000000026,274.29999999999995 C 66.50000000000028,264.29999999999995 70.20000000000027,260.19999999999993 78.90000000000026,262.79999999999995 M 235.70000000000022,58.099999999999966 C 243.80000000000024,65.39999999999998 245.6000000000002,70.89999999999998 242.6000000000002,78.59999999999997 C 238.50000000000017,78.89999999999998 235.50000000000017,76.89999999999998 233.50000000000017,72.19999999999999 C 231.1000000000003,66.59999999999997 231.80000000000024,61.69999999999999 235.70000000000022,58.099999999999966 M 6.800000000000239,176.5 C 10.500000000000227,169.5 18.90000000000026,166.0 25.90000000000026,168.20000000000005 C 29.60000000000025,169.4000000000001 30.40000000000026,171.60000000000002 27.80000000000024,174.4000000000001 C 26.40000000000026,175.9000000000001 24.30000000000024,177.30000000000007 22.40000000000026,177.60000000000014 C 17.200000000000273,178.5 11.900000000000261,178.69999999999993 6.800000000000239,176.5 M 139.20000000000027,366.6 C 133.3000000000003,367.5 130.00000000000028,364.6 127.70000000000027,360.6 C 126.20000000000027,358.0 125.60000000000025,354.80000000000007 125.00000000000028,351.80000000000007 C 124.70000000000027,350.1 125.8000000000003,348.6 127.90000000000026,348.5000000000001 C 130.30000000000024,348.30000000000007 134.90000000000026,350.70000000000016 135.70000000000027,353.10000000000014 C 136.90000000000026,357.5 137.90000000000026,361.9 139.20000000000027,366.6 M 195.90000000000026,97.19999999999993 C 185.30000000000024,99.19999999999993 177.80000000000024,94.59999999999991 175.6000000000003,84.69999999999993 C 186.6000000000003,84.09999999999997 193.90000000000026,88.5 195.90000000000026,97.19999999999993 M 85.30000000000024,120.89999999999998 C 87.50000000000023,124.0 89.50000000000023,126.89999999999998 91.50000000000023,129.60000000000002 C 93.60000000000025,132.5 93.9000000000002,135.70000000000005 93.20000000000022,139.10000000000002 C 92.70000000000022,141.60000000000002 91.4000000000002,142.30000000000007 88.9000000000002,141.39999999999998 C 81.00000000000028,138.60000000000002 78.70000000000027,127.10000000000002 85.30000000000024,120.89999999999998 M 123.10000000000025,217.5 C 112.60000000000025,219.0 107.70000000000027,215.79999999999995 104.40000000000026,205.60000000000002 C 114.50000000000028,202.89999999999998 123.20000000000027,208.29999999999995 123.10000000000025,217.5 M 380.90000000000026,225.0 C 383.0000000000003,235.29999999999995 377.7000000000002,244.89999999999998 369.90000000000026,245.60000000000002 C 367.1000000000003,236.19999999999993 371.7000000000002,227.39999999999998 380.90000000000026,225.0"/>
</svg>
