<?xml version="1.0" ?>
<svg xmlns="http://www.w3.org/2000/svg" xmlns:ev="http://www.w3.org/2001/xml-events" xmlns:inkscape="http://www.inkscape.org/namespaces/inkscape" xmlns:sodipodi="http://sodipodi.sourceforge.net/DTD/sodipodi-0.dtd" xmlns:svg="http://www.w3.org/2000/svg" xmlns:xlink="http://www.w3.org/1999/xlink" baseProfile="full" height="732" id="svg11" inkscape:version="1.2.2 (1:1.2.2+202212051550+b0a8486541)" preserveAspectRatio="xMidYMid" sodipodi:docname="tree63.svg" transform="scale(0.2347417840375587 0.2347417840375587) translate(-213.0 -366.0)" version="1.1" viewBox="0 0 426 732" width="426" zoomAndPan="magnify">
	<defs/>
	<path d="M 194.0120300205607,0.0 L 193.7776600205607,4.589844 C 193.67610002056068,7.1171880000000005 193.4612500205607,14.734375 193.3050000205607,21.542969 L 193.07063002056069,33.90625 L 186.1175000205607,26.722656 C 178.0784400205607,18.367188 177.00813002056069,18.03125 177.0432800205607,23.78125 C 177.0588800205607,26.113281 180.3362500205607,31.585938 184.2893800205607,35.964844 C 190.6253100205607,42.980469 191.51594002056072,45.191406 191.89094002056072,54.507812 C 192.1761000205607,61.542969 191.62531002056073,64.6875 190.3011000205607,63.867188 C 189.2073500205607,63.191406 188.3557800205607,61.417969 188.3557800205607,59.925781 C 188.3557800205607,58.433594 187.5081300205607,57.21875 186.4729700205607,57.21875 C 185.4339100205607,57.21875 184.5862500205607,53.933594 184.5862500205607,49.917969 C 184.5862500205607,41.558594 179.8401600205607,35.714844 176.8675000205607,40.382812 C 175.9182800205607,41.867188 175.5276600205607,44.082031 175.9846900205607,45.324219 C 176.98860002056068,48.070312 171.5628100205607,46.28125 167.9104700205607,42.675781 C 166.53938002056069,41.324219 164.33235002056068,40.265625 162.9612500205607,40.265625 C 157.8636000205607,40.265625 158.69563002056069,45.578125 164.9065600205607,52.683594 C 172.2893800205607,61.136719 172.6917200205607,62.824219 167.7932800205607,64.105469 C 165.3870300205607,64.734375 164.5628100205607,66.195312 165.1995300205607,68.636719 C 166.2620300205607,72.691406 171.3206300205607,73.414062 174.7464100205607,69.992188 C 177.31281002056068,67.425781 177.3792200205607,67.5625 177.8089100205607,74.640625 C 178.1682800205607,80.550781 177.8440100205607,80.683594 171.3870300205607,76.996094 C 165.0667200205607,73.386719 163.8440600205607,73.476562 163.8440600205607,77.761719 C 163.8440600205607,79.757812 166.6018800205607,83.542969 169.9729700205607,86.179688 C 174.57063002056069,89.773438 175.08235002056068,90.726562 172.0940600205607,89.945312 C 169.4925000205607,89.265625 167.71516002056072,89.945312 166.9690600205607,91.89063 C 165.3440600205607,96.11328 164.0315600205607,95.76563 151.4729700205607,87.59375 C 145.3089100205607,83.582031 139.33235002056068,80.628906 138.2151600205607,81.058594 C 134.28938002056069,82.558594 136.78156002056068,89.75 142.28156002056068,92.77344 L 147.81672002056067,95.77344 L 142.75031002056068,96.36327999999999 C 139.98860002056068,96.69140999999999 137.28156002056068,98.13280999999999 136.74250002056067,99.54296999999998 C 135.68391002056066,102.29687999999999 140.39875002056067,104.99608999999998 143.22297002056067,103.24999999999999 C 144.16438002056066,102.66796999999998 144.98860002056065,103.09374999999999 144.98860002056065,104.19140999999999 C 144.98860002056065,105.28905999999999 146.47688002056066,106.23047 148.28938002056066,106.31249999999999 C 150.68781002056065,106.41796999999998 150.85578002056064,106.73046999999998 148.93781002056065,107.48827999999999 C 146.93781002056065,108.28124999999999 147.33235002056065,109.34765999999999 150.64875002056064,111.84374999999999 L 155.06672002056064,115.14062999999999 L 147.17219002056063,116.49608999999998 C 139.04719002056063,117.86718999999998 137.19563002056063,120.89452999999997 142.04328002056064,124.91405999999998 C 143.87141002056063,126.42577999999997 145.79719002056063,126.57811999999998 147.93781002056065,125.38280999999998 C 151.49250002056064,123.39452999999997 158.18781002056065,124.50780999999998 158.18781002056065,127.08983999999998 C 158.18781002056065,128.00780999999998 159.88703002056064,128.79686999999998 161.96125002056064,128.79686999999998 C 164.03547002056064,128.79686999999998 165.73078002056064,127.94921999999998 165.73078002056064,126.91405999999998 C 165.73078002056064,125.87890999999998 167.64094002056063,125.05468999999998 169.97297002056064,125.08983999999998 L 174.21516002056063,125.14843999999998 L 169.55891002056063,128.97266 C 165.94563002056063,131.98047 165.49250002056064,133.15233999999998 167.50031002056062,134.39061999999998 C 170.3284400205606,136.13672 175.21516002056063,134.85936999999998 177.63313002056063,131.74219 C 178.50813002056063,130.61328 178.73469002056063,132.02733999999998 178.10578002056062,134.92186999999998 C 177.1604700205606,139.23436999999998 177.5862500205606,140.10155999999998 180.7542200205606,140.10155999999998 C 182.8479700205606,140.10155999999998 184.6214100205606,139.03905999999998 184.7034400205606,137.74608999999998 C 184.8050000205606,136.13671999999997 185.16828002056062,136.23827999999997 185.8831300205606,138.03905999999998 C 186.6448500205606,139.96874999999997 187.5979700205606,139.44141 189.3596900205606,136.15624999999997 L 191.7737500205606,131.62499999999997 L 194.1292200205606,136.80468999999997 C 195.4261000205606,139.64452999999997 195.8909400205606,142.58202999999997 195.1331300205606,143.33983999999995 C 194.3753100205606,144.09374999999994 187.6175000205606,145.01952999999995 180.1057800205606,145.39843999999997 C 167.5432800205606,146.03124999999997 165.72297002056058,145.65233999999995 157.42219002056058,140.39452999999997 C 149.16047002056058,135.16015999999996 143.1057800205606,134.28515999999996 143.1057800205606,138.33593999999997 C 143.1057800205606,139.22655999999998 145.4378100205606,141.30468999999997 148.2893800205606,142.92577999999997 L 153.4768800205606,145.87108999999998 L 146.8753100205606,144.63280999999998 C 140.34797002056058,143.44141 129.36750002056058,137.78905999999998 124.54328002056057,133.09374999999997 C 123.17219002056058,131.76171999999997 120.41828002056057,130.68358999999998 118.41828002056057,130.68358999999998 C 114.57453002056057,130.68358999999998 113.57844002056058,134.32421999999997 116.59016002056057,137.33202999999997 C 117.72297002056058,138.46483999999998 114.82453002056057,139.37499999999997 108.69563002056057,139.74608999999998 C 103.35578002056057,140.07030999999998 98.27374702056058,140.76171999999997 97.44171702056057,141.27733999999998 C 91.24249702056058,145.10546999999997 106.51594002056058,152.05858999999998 117.59406002056058,150.46094 L 125.19172002056058,149.40233999999998 L 119.89094002056058,152.40233999999998 C 116.68000002056058,154.22266 114.79328002056057,156.66016 115.17610002056058,158.58594 C 116.09406002056058,163.19141 124.24250002056058,161.64453 129.4339100205606,155.875 C 131.8518800205606,153.19141 135.1214100205606,151.43359 136.9768800205606,151.875 C 139.5784400205606,152.49219 139.2425000205606,153.11719 135.2698500205606,154.75781 C 128.8479700205606,157.40625 126.89875002056058,160.50781 130.7893800205606,162.0 C 132.4729700205606,162.64453 133.4261000205606,164.25391 132.9104700205606,165.58984 C 132.3987500205606,166.92187 133.25031002056062,168.49219000000002 134.7386000205606,169.0625 C 136.2268800205606,169.63281 137.4495300205606,169.35547 137.4495300205606,168.47266 C 137.4495300205606,166.93358999999998 143.5432800205606,164.29297 148.1136000205606,163.82422 C 149.3167200205606,163.69922 152.0745300205606,161.95703 154.24250002056058,159.99609 C 156.41047002056058,158.03906 158.1878100205606,157.06641000000002 158.1878100205606,157.82031 C 158.1878100205606,159.77344 154.0706300205606,163.62109 149.1761000205606,166.23828 C 146.8636000205606,167.47266 144.99250002056058,169.32422 144.99250002056058,170.35547 C 144.99250002056058,173.91016 150.79719002056058,174.46094 154.35969002056058,171.24219 C 157.7620300205606,168.16406 157.8753100205606,168.19141 156.89485002056057,171.94531 C 155.45344002056058,177.44141000000002 159.31281002056056,176.89453 163.13703002056056,171.0625 C 165.53156002056056,167.41406 166.70344002056055,166.84375 167.91047002056055,168.71094 C 169.22297002056055,170.73436999999998 169.75813002056054,170.71875 171.09406002056056,168.64844 C 171.98860002056057,167.26561999999998 174.32063002056057,166.33983999999998 176.27766002056057,166.58983999999998 C 183.8870300205606,167.55469 193.88703002056056,160.76171999999997 194.19172002056058,154.40624999999997 C 194.35188002056057,150.97655999999998 194.53938002056057,151.07811999999998 195.72297002056058,155.16796999999997 C 196.8440600205606,159.05858999999998 195.9182800205606,160.94530999999998 190.35969002056058,165.94140999999996 C 186.6565600205606,169.27343999999997 178.39485002056057,174.74608999999995 171.97688002056057,178.12890999999996 L 160.30891002056057,184.24999999999997 L 151.23469002056058,179.71874999999997 C 146.24641002056057,177.22655999999998 141.10188002056057,175.01952999999997 139.80500002056058,174.77343999999997 C 136.44172002056058,174.13280999999998 136.8948500205606,177.77343999999997 140.7503100205606,182.30858999999995 C 143.7190600205606,185.80077999999995 143.70344002056058,185.89452999999995 140.8089100205606,183.66015999999996 C 139.0393800205606,182.29296999999997 136.8714100205606,181.63671999999997 135.9768800205606,182.18749999999997 C 135.0784400205606,182.74218999999997 131.9768800205606,181.98436999999998 129.0823500205606,180.48046999999997 C 122.13703002056059,176.88280999999998 119.96906002056058,177.05858999999998 121.24641002056059,181.07030999999998 C 122.09016002056059,183.73046999999997 121.20341002056058,184.32421999999997 116.64875002056058,184.19141 C 113.54328002056059,184.09770999999998 110.56281002056059,183.52733999999998 109.99250002056058,182.95311999999998 C 107.69563002056059,180.66016 101.62531002056058,184.03905999999998 101.62531002056058,187.60547 C 101.62531002056058,190.5 102.53938002056057,191.16406 105.57453002056057,190.37109 C 109.35969002056058,189.38281 109.38313002056057,189.47266000000002 106.21906002056058,192.96094000000002 C 102.80891002056057,196.73047000000003 103.36750002056057,197.25000000000003 110.52375002056057,196.67187 C 113.81281002056058,196.40625 114.49250002056057,197.03906 113.52766002056057,199.55469000000002 C 112.50813002056057,202.20703000000003 113.15656002056058,202.65625000000003 117.06281002056058,201.91016000000002 C 120.96516002056057,201.16406 121.63313002056057,201.60937 120.89094002056058,204.44141000000002 C 119.88313002056057,208.28906 121.07844002056058,208.70312 125.78156002056058,206.20703000000003 C 130.4065600205606,203.75391000000002 136.24250002056058,211.54687000000004 132.44172002056058,215.09375000000003 C 130.3128100205606,217.08203000000003 129.6682800205606,217.00000000000003 128.84797002056058,214.85937000000004 C 128.2815600205606,213.39062000000004 124.94172002056057,212.17187000000004 121.24641002056056,212.03516000000005 C 117.62141002056056,211.89844000000005 115.08625002056056,212.53906000000003 115.64875002056056,213.44531000000003 C 116.21125002056056,214.35547000000003 115.01203002056056,214.63672000000003 112.93781002056056,214.09375000000003 C 108.17610002056057,212.85156000000003 108.02766002056056,215.71094000000002 112.70344002056056,218.62891000000002 C 115.17610002056057,220.17187 115.94172002056057,222.24609 115.29328002056056,225.63281 C 114.15266002056056,231.59375 113.86750002056056,231.64062 106.92610002056055,225.80859 C 103.84797002056055,223.21875 100.09406002056055,221.10156 98.62140702056055,221.10156 C 95.46124702056055,221.10156 95.29718702056056,222.02344 97.73468702056056,226.57422 C 99.71515702056055,230.26953 98.47296702056056,230.35547 84.18390702056055,227.63281 C 79.52765702056055,226.74609 77.11359702056055,226.99219 77.11359702056055,228.33984 C 77.11359702056055,230.77734 86.90265702056054,236.16797 91.37140702056054,236.16797 C 93.94952702056054,236.16797 94.10187702056054,236.64453 92.19952702056054,238.9375 C 90.32452702056054,241.19141 90.39093702056054,241.96875 92.60968702056054,242.82031 C 94.12921702056055,243.40234 96.15655702056054,243.70312 97.08624702056055,243.52734 C 101.02766002056055,242.79297 103.48078002056054,243.85937 103.03938002056054,246.05859 C 102.75031002056055,247.50391000000002 104.57063002056054,248.35937 107.75422002056054,248.29687 C 111.74250002056054,248.21487000000002 112.94953002056054,249.08203 112.99641002056053,252.0625 C 113.05501002056053,255.78125 113.20735002056053,255.74609 116.76594002056054,251.47266 C 119.71125002056054,247.94530999999998 120.48078002056053,247.68358999999998 120.48078002056053,250.17969 C 120.48078002056053,251.91016 121.32453002056053,252.82031 122.36360002056053,252.17969 C 123.40266002056053,251.53906 125.05891002056053,253.21094 126.07844002056052,255.89061999999998 C 127.09797002056052,258.56640999999996 129.21906002056053,261.23046999999997 130.78938002056054,261.83594 C 132.36360002056054,262.4375 133.68000002056056,264.10156 133.68000002056056,265.54296999999997 C 133.68000002056056,266.98828 135.04328002056056,268.19140999999996 136.74250002056056,268.19140999999996 C 138.44172002056055,268.19140999999996 140.90656002056056,269.62890999999996 142.22297002056055,271.42968999999994 C 144.48078002056056,274.51561999999996 144.89875002056056,274.4882799999999 149.05500002056056,270.9570299999999 L 153.47688002056054,267.24999999999994 L 150.11750002056056,271.19530999999995 C 148.08625002056056,273.60155999999995 141.80110002056057,276.34374999999994 133.85578002056056,278.25780999999995 C 117.25031002056055,282.26171999999997 113.23860002056054,282.13671999999997 106.45735002056054,277.66796999999997 C 100.17610002056054,273.53124999999994 97.10968702056054,274.30078 98.79718702056054,279.61328 C 99.74640702056054,282.59375 99.02374702056055,283.26171999999997 94.55499702056055,283.26171999999997 C 91.58234702056055,283.26171999999997 88.28937702056055,282.41796999999997 87.25030702056056,281.37890999999996 C 85.98077702056055,280.11328 84.14874702056055,280.35936999999996 81.71124702056055,282.14453 C 78.21124702056055,284.69921999999997 78.29327702056055,284.9375 84.12530702056056,288.26561999999996 C 88.52374702056055,290.77343999999994 89.91437702056055,292.67968999999994 89.13312702056055,295.15234 C 88.43780702056056,297.35546999999997 88.98077702056055,298.43359 90.60577702056055,298.21484 C 96.06671702056055,297.46875 98.18390702056055,298.39844 97.14874702056055,301.09765999999996 C 95.34015702056055,305.80859 102.22297002056055,308.05468999999994 107.45735002056055,304.45311999999996 C 110.89485002056055,302.08984 111.40266002056056,301.98046999999997 109.69953002056056,304.10155999999995 C 106.51203002056056,308.06249999999994 109.57453002056056,312.20311999999996 114.52766002056056,310.63280999999995 C 121.66828002056056,308.3710899999999 123.59406002056056,311.99218999999994 116.59016002056056,314.51953 C 107.59797002056057,317.76561999999996 98.62530702056056,317.70311999999996 95.26202702056055,314.34375 C 91.54327702056055,310.625 85.76984702056055,310.58203 87.19171702056055,314.28515 C 88.07062702056055,316.57421 86.75812702056055,316.8828 79.82452702056055,315.93358 C 69.67999702056055,314.54296 68.41046702056055,317.67577 77.76202702056055,321.05468 C 82.30109702056055,322.69140000000004 83.90265702056055,324.28515000000004 83.30109702056055,326.58593 C 82.29327702056055,330.43358 88.25030702056054,332.57030000000003 92.84796702056055,329.99999 C 95.34796702056055,328.60155000000003 95.96905702056054,329.14843 95.96905702056054,332.88671000000005 C 95.96905702056054,336.70311000000004 96.66046702056055,337.35936000000004 100.03547002056054,336.47655000000003 C 103.37141002056053,335.60546000000005 103.85578002056054,335.97655000000003 102.80500002056054,338.71093 C 101.77375002056054,341.39452 102.30110002056054,341.91796 105.34016002056055,341.12499 C 107.43000002056054,340.58202 109.16828002056054,340.89452 109.16828002056054,341.83202 C 109.16828002056054,345.1328 113.15656002056055,343.48046 118.18391002056055,338.12499 C 124.23860002056054,331.67577 127.82453002056054,330.24999 132.26594002056055,332.53124 C 137.43000002056056,335.18358 136.14094002056055,337.33202 129.91047002056055,336.41796000000005 C 123.41438002056054,335.46483000000006 122.45735002056054,338.33202000000006 127.14094002056054,345.01171000000005 C 129.87922002056055,348.91796000000005 129.86360002056054,349.19140000000004 126.37531002056053,349.19140000000004 C 124.31281002056053,349.19140000000004 121.32844002056054,350.46093 119.77375002056053,352.01561000000004 C 118.21906002056053,353.57030000000003 115.68781002056053,354.83983000000006 114.11750002056053,354.83983000000006 C 112.55110002056053,354.83983000000006 110.76985002056053,355.63671000000005 110.16828002056053,356.60936000000004 C 109.57063002056053,357.57811000000004 105.77375002056053,358.31249 101.74250002056053,358.25390000000004 C 97.71515702056053,358.1992 93.31671702056053,358.83202000000006 91.96124702056052,359.66796000000005 C 90.60968702056051,360.50390000000004 86.75421702056052,361.01171000000005 83.41827702056052,360.78515000000004 C 78.39874702056052,360.44921000000005 77.26593702056053,361.12108000000006 76.76202702056052,364.67186000000004 C 76.32452702056052,367.75780000000003 74.85187702056052,368.99999 71.45734702056052,369.14452000000006 C 68.86749702056052,369.25780000000003 65.89484702056052,369.5859300000001 64.85968702056051,369.85155000000003 C 63.82062702056052,370.11718 61.48859702056052,370.15624 59.67609702056052,369.96874 C 57.85968702056052,369.78515000000004 56.37530702056052,370.38671000000005 56.37530702056052,371.26561000000004 C 56.37530702056052,373.76171000000005 66.80890702056051,379.32811000000004 71.51593702056051,379.32811000000004 C 75.64093702056051,379.32811000000004 75.71905702056051,379.43358000000006 72.40265702056051,383.09765000000004 C 69.07062702056051,386.77343 69.10577702056051,386.86327000000006 73.93390702056051,386.86327000000006 C 77.62921702056052,386.86327000000006 78.60187702056051,387.56640000000004 77.76202702056051,389.7499900000001 C 76.8479670205605,392.1289000000001 77.6448470205605,392.4414000000001 82.06280702056051,391.3984300000001 C 85.04718702056051,390.6953000000001 87.91046702056052,390.15233000000006 88.42609702056052,390.1601500000001 C 94.30890702056053,390.2773300000001 95.67609702056052,390.9218600000001 94.78937702056052,393.2226500000001 C 92.82062702056052,398.3476500000001 97.70734702056052,398.2031100000001 100.50813002056053,393.0468600000001 C 103.17219002056054,388.1328000000001 103.32453002056053,388.0703000000001 103.39485002056053,392.0429600000001 C 103.43395002056053,394.3749900000001 104.14875002056053,396.3476500000001 104.92610002056053,396.46093000000013 C 116.44563002056053,398.14061000000015 118.33625002056053,397.5820200000001 120.65656002056052,391.98436000000015 L 123.01594002056052,386.33593000000013 L 124.66438002056051,390.8085800000001 L 126.31281002056052,395.3398300000001 L 129.96906002056053,390.63280000000015 C 133.58235002056054,385.92968000000013 133.57844002056052,385.92186000000015 133.62141002056055,390.16015000000016 C 133.67611002056054,395.87499000000014 137.03938002056054,395.55077000000017 138.51203002056056,389.69140000000016 C 139.16047002056055,387.10155000000015 140.53156002056056,384.98046000000016 141.51594002056055,384.98046000000016 C 142.50031002056056,384.98046000000016 142.69563002056054,385.89452000000017 141.98860002056054,387.03905000000015 C 141.08625002056053,388.4960800000001 142.54719002056055,388.74218000000013 146.82063002056054,387.80468000000013 C 151.35578002056053,386.81249000000014 152.76985002056054,387.03905000000015 152.18000002056056,388.8085800000001 C 151.02375002056056,392.2773300000001 139.21516002056055,398.1679600000001 133.38313002056057,398.1679600000001 C 130.62922002056058,398.1679600000001 127.98860002056055,399.2265500000001 127.49250002056056,400.5195200000001 C 126.93781002056056,401.96874000000014 123.25031002056056,402.7929600000001 117.88703002056056,402.6992100000001 C 113.09016002056056,402.6172100000001 109.16828002056056,403.2070200000001 109.16828002056056,403.99218000000013 C 109.16828002056056,407.6210800000001 115.71125002056056,411.5429600000001 120.89485002056055,410.99999000000014 C 123.97297002056055,410.6757700000001 126.63313002056056,411.15624000000014 126.78547002056055,412.11718000000013 C 127.28547002056055,415.25390000000016 116.23078002056054,417.0195200000001 89.37140702056055,418.06249000000014 C 59.09796702056056,419.2382700000001 46.94562702056056,420.56249000000014 46.94562702056056,422.59374000000014 C 46.94562702056056,423.37890000000016 44.82452702056056,423.6210800000001 42.23468702056056,423.12499000000014 C 39.554997020560556,422.6132700000001 37.519847020560555,423.0858900000001 37.519847020560555,424.24218000000013 C 37.519847020560555,426.88280000000015 43.679997020560556,430.18749000000014 48.656557020560555,430.18749000000014 C 50.79718702056056,430.18749000000014 52.60187702056056,431.03515000000016 52.60187702056056,432.07421000000016 C 52.60187702056056,433.10936000000015 51.679997020560556,433.95702000000017 50.59796702056056,433.95702000000017 C 49.51984702056056,433.95702000000017 46.76202702056056,435.70702000000017 44.47296702056056,437.9023300000002 L 40.34796702056056,441.9023300000002 L 46.47687702056056,441.07811000000015 C 50.52765702056056,440.5273300000002 52.60187702056056,441.01561000000015 52.60187702056056,442.55077000000017 C 52.60187702056056,443.94530000000015 54.10968702056056,444.4960800000002 56.375307020560555,443.9062400000002 C 58.48077702056055,443.3554600000002 60.144847020560555,443.8476400000002 60.144847020560555,445.0234300000002 C 60.144847020560555,448.0664000000002 64.94171702056055,447.6210800000002 67.68780702056054,444.3164000000002 C 68.97687702056054,442.7617100000002 70.85968702056054,441.4921800000002 71.92999702056053,441.4921800000002 C 73.00030702056054,441.4921800000002 72.52765702056054,443.01171000000016 70.80890702056054,444.9062400000002 C 69.09405702056054,446.80077000000017 67.68780702056054,448.9179600000002 67.68780702056054,449.61327000000017 C 67.68780702056054,451.60936000000015 74.87921702056055,451.1171800000002 76.17218702056054,449.0273300000002 C 78.03937702056054,446.0078000000002 80.53546702056055,446.8398300000002 81.82843702056054,450.91015000000016 C 83.34405702056054,455.67577000000017 85.49249702056055,455.64452000000017 92.31671702056055,450.79296000000016 L 97.79718702056054,446.90624000000014 L 96.61749702056055,452.6757700000001 C 95.19952702056055,459.7695200000001 98.62530702056056,460.3398300000001 106.28156002056055,454.3242100000001 C 111.30891002056055,450.3710800000001 111.45344002056055,450.3749900000001 109.46125002056054,454.0898300000001 C 107.12141002056055,458.46093000000013 108.24641002056055,460.53905000000015 112.17219002056054,459.03124000000014 C 113.64094002056054,458.46874000000014 116.10969002056054,459.05074000000013 117.65266002056053,460.32811000000015 C 119.60188002056053,461.94530000000015 120.48078002056053,462.03124000000014 120.48078002056053,460.56249000000014 C 120.48078002056053,459.4023300000001 121.75422002056052,458.44530000000015 123.30891002056053,458.44530000000015 C 124.86360002056053,458.44530000000015 126.13703002056053,459.60936000000015 126.13703002056053,461.09374000000014 C 126.13703002056053,462.92186000000015 127.80500002056053,463.60936000000015 131.32063002056054,463.21093000000013 C 150.94953002056056,460.99218000000013 125.56281002056053,472.3945200000001 102.74641002056053,476.04686000000015 C 87.82843702056053,478.4335800000002 86.33234702056053,478.3398300000002 81.41827702056052,475.10155000000015 C 78.51202702056052,473.19140000000016 75.11359702056052,471.63671000000016 73.81671702056052,471.62890000000016 C 69.91437702056052,471.60940000000016 71.16046702056052,475.38280000000015 75.70343702056051,477.3398300000002 C 78.81671702056052,478.6835800000002 77.68780702056051,478.82811000000015 71.45734702056052,477.8710800000002 C 66.79327702056052,477.1523300000002 60.85187702056053,476.6796800000002 58.262027020560524,476.8085800000002 C 55.668277020560524,476.9374900000002 49.340157020560525,475.8203000000002 44.238597020560526,474.3359300000002 C 39.137027020560524,472.85546000000016 34.676097020560526,471.8828000000002 34.340157020560525,472.2187400000002 C 32.371407020560525,474.1835800000002 44.441717020560525,481.9531100000002 51.191717020560525,483.05077000000017 L 59.20343702056052,484.3437400000002 L 52.13312702056052,484.58202000000017 C 47.21124702056052,484.7460800000002 45.06280702056052,485.67577000000017 45.06280702056052,487.64061000000015 C 45.06280702056052,489.19530000000015 46.54718702056052,490.60546000000016 48.36359702056052,490.76171000000016 C 50.17609702056052,490.91796000000016 52.51202702056052,491.22655000000015 53.54718702056052,491.46874000000014 C 54.58234702056052,491.7070200000001 56.64874702056052,491.9960800000001 58.14484702056052,492.1132700000001 C 60.14093702056052,492.27343000000013 59.89093702056052,493.0351500000001 57.19952702056052,494.99999000000014 C 52.539377020560515,498.4023300000001 54.75421702056052,500.84765000000016 59.96905702056052,498.0585800000001 C 63.21515702056052,496.3242100000001 63.91827702056052,496.5039000000001 63.91827702056052,499.06249000000014 C 63.91827702056052,501.47655000000015 65.26593702056051,501.96874000000014 70.04718702056051,501.29686000000015 C 73.41437702056051,500.82421000000016 77.87140702056051,499.82030000000015 79.94562702056051,499.06249000000014 C 83.6604670205605,497.69921000000016 83.60968702056051,497.7148300000001 80.0042270205605,500.6523300000001 C 76.3284470205605,503.6406100000001 77.11750702056051,504.33593000000013 83.24250702056051,503.71093000000013 C 85.12141702056051,503.5195200000001 86.54328702056051,504.6835800000001 86.54328702056051,506.35936000000015 C 86.54328702056051,510.39061000000015 88.07063702056051,510.0585800000002 92.55500702056051,505.06640000000016 L 96.38313702056051,500.82811000000015 L 93.32063702056051,505.94921000000016 C 91.65266702056051,508.76171000000016 90.31281702056052,511.91796000000016 90.31281702056052,513.0117100000002 C 90.31281702056052,515.9257700000002 99.56281702056052,513.7734300000002 103.98470002056051,509.8320200000002 C 107.68782002056051,506.53124000000025 107.7151700205605,506.59374000000025 106.28157002056051,511.18749000000025 C 104.2893900205605,517.5742100000002 101.97298002056051,518.9218600000003 84.5979770205605,524.1367100000002 C 70.16438702056051,528.4687400000003 69.2971970205605,528.5234300000002 61.50031702056051,525.5507700000002 C 53.00813702056051,522.3085800000001 41.289387020560504,521.3867100000002 41.289387020560504,523.9609300000002 C 41.289387020560504,524.7890500000002 42.27766702056051,526.5351500000002 43.5315670205605,527.7890500000002 C 45.0628170205605,529.3164000000002 42.539387020560504,529.0781100000002 35.8128170205605,527.0820200000002 C 30.305007020560502,525.4492100000002 24.515947020560503,524.5820200000002 22.9065670205605,525.1953000000002 C 20.4417270205605,526.1406100000002 20.664387020560497,527.0781100000002 24.320637020560497,530.9648300000002 L 28.6214170205605,535.5585800000002 L 22.258137020560497,533.7343600000003 C 14.055007020560499,531.3828000000003 4.090166920560497,531.3867100000002 2.637036920560499,533.7343600000003 C 1.1409469205604992,536.1562400000003 13.7503170205605,541.3164000000003 21.1995370205605,541.3281100000003 L 27.148757020560502,541.3281100000003 L 21.609697020560503,545.7421800000003 C 16.1448570205605,550.1132700000003 16.195637020560504,555.8437400000003 21.672197020560503,553.7460800000003 C 23.492507020560502,553.0507700000004 24.320637020560504,554.1874900000004 24.320637020560504,557.3984300000003 C 24.320637020560504,560.7343600000003 25.305007020560502,562.0468600000003 27.914387020560504,562.0468600000003 C 29.914387020560504,562.0468600000003 32.8675070205605,563.3437400000003 34.4573570205605,564.9296800000003 C 36.8557870205605,567.3281100000003 37.9807870205605,567.3945200000003 41.1721970205605,565.4023300000003 C 43.289387020560504,564.0820200000004 45.0628170205605,562.3632700000004 45.0628170205605,561.5781100000004 C 45.0628170205605,560.7890500000004 46.5471970205605,561.6484100000004 48.4221970205605,563.4609300000004 C 52.0315670205605,566.9570200000004 53.05891702056051,571.4648300000005 50.2464170205605,571.4648300000005 C 49.3206370205605,571.4648300000005 49.1839170205605,572.3789000000005 49.8948570205605,573.5273300000005 C 50.789387020560504,574.9765500000004 49.3948570205605,575.2499900000005 45.2971970205605,574.3515500000004 C 41.539387020560504,573.5234300000004 39.4065670205605,573.7578000000004 39.4065670205605,575.0546800000004 C 39.4065670205605,576.2109300000004 35.7386070205605,577.1171800000004 30.922197020560503,577.1171800000004 C 22.086257020560502,577.1171800000004 20.418287020560506,578.7499900000004 25.265947020560503,582.7695200000004 C 27.1526670205605,584.3320200000004 31.140947020560503,584.7499900000004 37.0471970205605,584.0039000000004 L 46.0042270205605,582.8867100000003 L 38.9925070205605,586.5937400000004 C 34.1253170205605,589.1718600000004 32.320637020560504,591.2148300000003 33.101887020560504,593.2460800000003 C 33.8011070205605,595.0703000000003 35.3753170205605,595.6835800000003 37.285477020560506,594.8945200000004 C 38.96516702056051,594.1992100000004 41.62141702056051,593.4374900000004 43.17610702056051,593.1874900000004 C 44.730787020560506,592.9335800000003 44.94563702056051,593.0937900000004 43.64875702056051,593.5390500000003 C 38.87141702056051,595.1796800000003 41.34016702056051,598.2070200000003 46.47688702056051,597.0117100000003 C 50.18781702056051,596.1523300000003 50.87531702056051,596.3437400000004 48.89094702056051,597.6601500000004 C 43.90266702056051,600.9687400000004 48.33235702056051,601.9257700000004 54.31281702056051,598.8398300000003 C 57.51985702056051,597.1796800000003 60.14485702056051,596.6249900000004 60.14485702056051,597.6015500000003 C 60.14485702056051,598.5781100000003 59.08625702056051,599.7890500000003 57.78938702056051,600.2499900000004 C 56.49250702056051,600.7148300000003 56.08625702056051,601.7929600000003 56.90656702056051,602.6640500000003 C 57.722977020560506,603.5351500000003 60.80500702056051,603.3203000000003 63.79719702056051,602.1953000000003 C 68.2581370205605,600.5117100000003 69.1057870205605,600.6289000000003 68.2776670205605,602.7812400000004 C 67.5471970205605,604.6757700000004 68.2229670205605,605.0312400000004 70.7503170205605,604.1367100000003 C 73.6956370205605,603.0976500000004 73.8831370205605,603.3437400000004 71.8128170205605,605.5468600000004 C 69.8831370205605,607.6054600000003 63.39094702056051,608.0976500000004 42.11750702056051,607.7851500000004 C 25.652667020560507,607.5429600000003 14.894857020560506,608.1015500000004 14.894857020560506,609.1992100000003 C 14.894857020560506,610.1953000000003 16.21125702056051,611.0234300000003 17.840167020560507,611.0234300000003 C 19.46906702056051,611.0234300000003 21.980787020560506,612.2187400000003 23.43781702056051,613.6718600000003 C 25.707357020560508,615.9414000000003 25.660477020560506,616.4726500000003 23.14094702056051,617.4414000000003 C 21.527667020560507,618.0585800000002 17.53156702056051,618.5429600000002 14.246417020560509,618.5585800000002 C 7.316726920560509,618.5897800000002 2.5628169205605094,621.0468600000003 4.226886920560508,623.7382700000003 C 6.285476920560509,627.0624900000003 15.640947020560509,627.6679600000003 23.379227020560506,624.9726500000003 C 33.69172702056051,621.3828000000003 34.25031702056051,621.5898300000002 28.91438702056051,626.9179600000002 C 22.26594702056051,633.5585800000002 22.75031702056051,637.5664000000003 29.918287020560513,635.5117100000002 C 32.996417020560514,634.6289000000003 36.38703702056051,633.3476500000003 37.46125702056052,632.6835800000002 C 38.531567020560516,632.0234300000002 39.48078702056052,633.0468600000003 39.64094702056052,634.9218600000003 C 39.79719702056052,636.7968600000003 40.05500702056052,639.2929600000002 40.16828702056052,640.5156100000003 C 40.28547702056052,641.7382700000003 40.94953702056052,643.3554600000002 41.64485702056052,644.0468600000003 C 43.12922702056052,645.5312400000003 54.48860702056052,639.1796800000003 54.48860702056052,636.8632700000003 C 54.48860702056052,635.9921800000003 55.258137020560525,635.7773300000002 56.25422702056052,636.3945200000003 C 57.41828702056052,637.1093600000003 57.41828702056052,639.2304600000003 56.25422702056052,642.2812400000003 C 55.25813702056052,644.9023300000002 54.48860702056052,647.8945200000003 54.48860702056052,648.9335800000002 C 54.48860702056052,651.4218600000003 63.398757020560524,644.9765500000002 72.34016702056051,636.0390500000002 C 79.01203702056051,629.3749900000003 79.96516702056051,630.5156100000002 73.75422702056052,637.7460800000002 C 72.23078702056053,639.5234300000002 71.55110702056052,642.4179600000002 72.22297702056052,644.1640500000002 C 73.30891702056051,646.9882700000002 73.93000702056052,646.8281100000002 78.23469702056052,642.8085800000002 L 83.12531702056052,638.3359300000002 L 82.47688702056051,643.0468600000002 C 81.8792270205605,647.3710800000001 80.59406702056052,647.9374900000001 66.74250702056051,650.2265500000002 C 57.01203702056052,651.8359300000002 50.63703702056052,652.0859300000002 48.77375702056052,650.9335800000002 C 44.04719702056052,648.0195200000003 33.746417020560514,646.2851500000003 33.746417020560514,648.4023300000002 C 33.746417020560514,649.4492100000002 35.23078702056051,650.7070200000003 37.04719702056052,651.1679600000002 C 38.863607020560515,651.6328000000002 36.10578702056052,651.6249900000003 30.918287020560513,651.1679600000002 C 23.340167020560514,650.5039000000003 21.953447020560517,650.7890500000002 23.847977020560513,652.6992100000002 C 27.453447020560517,656.3359300000002 26.644857020560515,657.6874900000003 21.492507020560517,656.7031100000003 C 15.398757020560515,655.5390500000003 6.844066920560515,657.7148300000002 8.293286920560515,660.0585800000002 C 8.914386920560515,661.0624900000003 11.355787020560514,661.8828000000002 13.715167020560516,661.8828000000002 C 21.773757020560517,661.8828000000002 20.640947020560517,664.4765500000002 10.828447020560516,668.4179600000002 C -5.902023079439486,675.1367100000002 -2.2496830794394835,680.1328000000002 14.953447020560516,674.0664000000003 C 23.660477020560513,670.9999900000003 27.062817020560516,671.5312400000003 20.668287020560513,674.9492100000002 C 18.504227020560513,676.1054600000002 16.777667020560514,678.3828000000002 16.777667020560514,680.0117100000002 C 16.777667020560514,682.2851500000003 17.918287020560513,682.6914000000003 21.785477020560513,681.7187400000003 C 26.23469702056051,680.6054600000002 26.57063702056051,680.7890500000002 24.379227020560513,683.4257700000003 C 19.29719702056051,689.5429600000003 24.68781702056051,689.5585800000002 33.09797702056051,683.4257700000003 C 37.027667020560514,680.5664000000003 37.183917020560514,680.5937400000003 36.10578702056051,684.7812400000003 C 35.090167020560514,688.7109300000003 35.29328702056051,688.9023300000002 38.16828702056051,686.5468600000003 C 41.00422702056051,684.2226500000003 41.19563702056051,684.3320200000003 40.051107020560515,687.4882700000003 C 38.926107020560515,690.6054600000003 39.371417020560514,690.5078000000003 43.469067020560516,686.7812400000003 C 48.27375702056052,682.4179600000002 51.22688702056052,682.7890500000002 49.42219702056052,687.4882700000003 C 47.98078702056052,691.2382700000003 52.500317020560516,690.7382700000003 59.67219702056052,686.3710800000002 C 63.08625702056052,684.2890500000002 65.80110702056051,683.5742100000002 65.80110702056051,684.7226500000003 C 65.80110702056051,685.9999900000003 67.77375702056051,686.3320200000003 70.9846970205605,685.6054600000002 C 74.4964170205605,684.8124900000003 75.2581370205605,684.9804600000002 73.3440670205605,686.1367100000002 C 71.7854770205605,687.0742100000002 65.8479770205605,688.7851500000003 60.14485702056051,689.9609300000002 C 47.86360702056051,692.4921800000002 44.05110702056051,694.5546800000002 45.945637020560504,697.6132700000002 C 47.2425070205605,699.7148300000001 49.77766702056051,699.4882700000002 61.0862570205605,696.4374900000001 C 63.976887020560504,695.6562400000001 63.4221970205605,696.8515500000001 58.730787020560506,701.3828000000001 C 55.3596970205605,704.6328000000001 52.601887020560504,707.6874900000001 52.601887020560504,708.2109300000001 C 52.601887020560504,710.08202 63.0862570205605,707.7578000000001 69.1018870205605,704.5585800000001 C 75.7112570205605,701.0468600000002 76.7268870205605,702.1210800000001 72.3401670205605,707.9140500000001 C 68.5120370205605,712.97265 68.8792270205605,715.20311 73.3440670205605,714.03515 C 75.7932870205605,713.3984300000001 77.11360702056051,714.02345 77.11360702056051,715.74608 C 77.11360702056051,719.26952 78.84016702056051,719.07811 83.24250702056051,715.09765 C 86.7229770205605,711.94921 86.8792270205605,711.96874 86.24641702056051,715.5664 C 85.23860702056051,721.3164 95.69953702056051,719.58202 101.27376002056052,713.09374 L 105.63314002056052,708.03124 L 104.39486002056051,714.15624 C 102.75814002056052,722.2578 107.48861002056051,722.46874 114.82454002056052,714.62499 C 117.73079002056052,711.51952 120.35579002056052,708.97265 120.71517002056052,708.97655 C 121.07845002056052,708.97655 121.50423002056053,711.16796 121.66048002056053,713.8593599999999 C 122.08626002056053,721.2656099999999 125.16048002056053,723.2656099999999 129.08236002056054,718.6874899999999 C 132.18001002056053,715.0742099999999 132.62532002056054,715.0038999999999 134.91829002056053,717.9804599999999 C 137.18392002056052,720.9296799999998 137.44173002056053,720.8827999999999 138.51204002056053,717.0976499999999 C 139.20345002056052,714.64843 140.69564002056055,713.3945199999999 142.22298002056053,713.97655 C 143.84798002056053,714.60155 145.24642002056052,713.12499 146.05111002056051,709.91796 C 146.92611002056051,706.43749 147.8050100205605,705.56249 148.82064002056052,707.21093 C 149.6370400205605,708.52733 152.06673002056053,709.8788999999999 154.24251002056053,710.21093 C 157.31282002056054,710.67968 159.11751002056053,708.96093 162.31673002056053,702.3828 C 166.44564002056052,693.88671 170.80501002056053,690.6093599999999 168.55892002056052,697.6718599999999 C 167.10970002056052,702.2343599999999 168.19954002056053,702.3554599999999 174.27767002056052,698.3788999999999 C 176.83236002056051,696.7070199999999 178.98861002056051,693.5273299999999 179.10579002056053,691.3163999999999 C 179.28157002056054,688.0976499999999 179.53157002056054,687.9531099999999 180.22689002056055,690.6093599999999 C 181.66048002056056,696.0976499999999 184.58626002056056,692.2851499999999 184.64486002056054,684.8398299999999 C 184.69176002056054,679.2031099999999 185.03157002056054,678.5195199999999 186.59017002056055,681.1913999999999 C 187.64876002056056,683.0038999999999 190.27767002056055,684.4882699999999 192.42220002056055,684.4882699999999 C 196.13704002056056,684.4882699999999 196.28548002056056,685.1757699999999 195.07454002056056,699.08593 C 194.23079002056056,708.80468 192.25423002056056,716.7343599999999 189.18392002056055,722.80858 C 187.38704002056056,726.36327 185.87532002056054,729.53124 185.11751002056056,731.28515 L 232.01986002056057,731.28515 C 234.09798002056058,729.62108 233.16439002056057,726.70311 231.01595002056058,721.57421 C 227.67220002056058,713.57811 226.38314002056057,697.2539 229.01595002056058,696.3789 C 230.0432900205606,696.03515 232.3557900205606,698.26561 234.1995400205606,701.3828000000001 C 237.6370400205606,707.1953000000001 241.8636100205606,709.3359300000001 239.9143900205606,704.26561 C 237.6878200205606,698.46874 241.1956400205606,701.64452 243.74251002056062,707.73827 C 245.7776700205606,712.6054600000001 247.4104800205606,714.05858 250.8167300205606,713.8046800000001 C 253.2581400205606,713.6210800000001 256.48079002056056,714.3554600000001 257.9456400205606,715.4492100000001 C 259.85579002056056,716.8789000000002 260.8206400205606,716.8203000000001 261.3636100205606,715.2148300000001 C 261.8636100205606,713.7304600000001 263.3557900205606,714.2031100000002 265.7815700205606,716.6289000000002 C 270.6331400205606,721.4765500000002 273.0511100205606,721.2460800000001 271.9104800205606,716.0390500000002 C 271.3636100205606,713.5624900000003 271.63314002056063,712.6210800000002 272.5550100205606,713.8046800000002 C 274.73079002056056,716.5859300000002 280.7464200205606,718.6132700000002 280.7464200205606,716.5703000000002 C 280.7464200205606,714.6679600000002 291.1565700205606,715.3398300000002 296.5979800205606,717.5703000000002 C 299.4612600205606,718.7421800000002 299.9925100205606,718.3749900000003 299.07064002056063,715.9804600000002 C 298.43001002056064,714.3124900000003 298.89486002056066,712.6093600000003 300.13314002056063,712.1562400000003 C 301.85189002056063,711.5234300000003 301.87532002056065,710.7070200000003 300.0745400205606,708.8007700000003 C 295.7932900205606,704.2656100000003 297.5667300205606,703.6796800000003 304.60970002056064,707.2695200000003 C 312.39486002056066,711.2343600000003 314.5667300205606,710.6523300000002 310.79720002056064,705.6796800000003 C 308.77767002056066,703.0195200000003 308.75032002056065,702.8046800000003 310.7386000205606,704.5624900000003 C 312.1096900205606,705.7734300000003 314.3753100205606,706.3437400000003 315.8050000205606,705.7968600000003 C 317.2346900205606,705.2499900000003 318.4573500205606,705.5546800000003 318.4573500205606,706.5039000000003 C 318.4573500205606,707.4531100000003 319.60578002056064,709.8281100000003 321.0471900205606,711.8007700000003 C 323.30891002056063,714.8906100000003 324.1370300205606,715.0273300000002 326.8245300205606,712.8007700000003 C 329.53156002056056,710.5585800000002 330.2893800205606,710.8320200000003 332.9495300205606,714.6289000000003 L 336.0159400205606,718.9843600000003 L 337.7229700205606,714.4492100000002 C 339.2971900205606,710.2382700000002 339.5901600205606,710.1562400000003 341.8479700205606,713.2148300000002 C 344.83235002056057,717.2539000000003 346.1682800205606,717.3164000000003 349.86360002056057,713.6249900000003 C 352.1604700205606,711.3320200000003 352.28938002056054,710.1874900000003 350.4495300205606,707.9765500000002 C 349.1839100205606,706.4492100000002 348.70735002056057,705.2109300000002 349.3909400205606,705.2070200000002 C 350.0706300205606,705.2070200000002 349.65266002056063,703.3007700000002 348.4495300205606,700.9687400000001 C 346.6175000205606,697.4218600000002 347.3050000205606,697.6289000000002 352.6331300205606,702.4414000000002 C 364.3636000205606,713.0429600000001 365.1370300205606,713.4335800000001 368.4807800205606,710.0937400000001 C 370.14485002056057,708.4296800000002 370.8401600205606,706.0507700000002 370.0706300205606,704.7382700000002 C 369.2854700205606,703.3906100000002 370.2542200205606,703.6171800000002 372.3128100205606,705.2656100000002 C 382.27766002056063,713.2617100000001 392.3675000205606,714.8359300000002 385.56672002056064,707.3281100000002 C 382.49641002056063,703.9374900000001 382.60188002056066,703.6757700000002 387.51203002056064,702.4414000000002 L 392.63703002056064,701.1484300000002 L 387.10188002056066,696.6718600000002 C 379.85578002056064,690.7578000000002 383.73078002056064,690.7421800000002 394.1136000205607,696.6718600000002 C 398.6253100205607,699.2499900000001 403.42219002056066,701.3710800000001 404.7190600205607,701.3828000000002 C 408.52375002056067,701.4180000000002 407.4261000205607,698.4140500000002 402.8323500205607,696.2031100000002 C 399.01594002056066,694.3632700000002 399.3011000205607,694.1406100000002 406.1917200205607,694.0234300000002 C 410.39875002056067,693.9531300000002 415.49250002056067,692.6601500000002 417.5042200205607,691.1406100000002 C 420.9846900205607,688.5078000000002 420.9417200205607,688.3749900000001 415.5589100205607,688.3164000000002 C 407.48469002056066,688.2265000000002 378.7620300205607,682.9999900000001 372.7815600205607,680.5429600000001 C 365.45344002056066,677.5351500000002 364.0667200205607,672.92577 371.3089100205607,675.6601500000002 C 377.6643800205607,678.0546800000002 380.8792200205607,676.0742100000001 376.1995300205607,672.6562400000001 C 373.4846900205607,670.6718600000002 374.3596900205607,670.4374900000001 381.5628100205607,671.0078000000001 C 390.7542200205607,671.73827 392.7151600205607,669.42186 385.8636000205607,665.9453000000001 C 382.1917200205607,664.08202 382.8128100205607,663.84765 390.8128100205607,664.23827 C 401.60188002056066,664.76561 404.6448500205607,661.22265 395.3479700205607,658.9414 L 389.1604700205607,657.41015 L 395.2893800205607,656.70311 C 402.4651600205607,655.84765 403.0979700205607,653.91015 397.17610002056074,650.87499 C 393.7112500205607,649.10155 395.17610002056074,648.85936 405.18781002056073,649.69921 C 416.47297002056075,650.6445199999999 417.1018800205607,650.49218 413.73078002056076,647.8164 C 411.71906002056073,646.21483 408.59406002056073,644.9296800000001 406.77766002056075,644.9296800000001 C 404.96516002056075,644.9296800000001 402.93781002056073,643.9960800000001 402.2425000205607,642.8710800000001 C 401.4495300205607,641.5898300000001 402.6331300205607,640.9296800000001 405.4221900205607,641.1640500000001 C 413.30110002056074,641.8203000000001 418.3870300205607,641.1992500000001 418.3870300205607,639.51561 C 418.3870300205607,638.61327 412.4104700205607,637.2890500000001 405.1292200205607,636.5703000000001 C 397.8479700205607,635.8554600000001 392.2971900205607,634.58202 392.8167200205607,633.7460800000001 C 393.3323500205607,632.9101500000002 398.7659400205607,631.1015500000001 404.8948500205607,629.7421800000001 C 416.45344002056066,627.1796800000001 423.76594002056066,623.34765 421.4495300205607,621.03124 C 420.2659400205607,619.84765 409.7737500205607,621.5546800000001 395.7620300205607,625.26952 C 391.4534400205607,626.41015 391.5628100205607,626.0546800000001 397.4690600205607,620.97265 C 407.1878100205607,612.60546 401.70344002056066,611.74608 387.6878100205607,619.4414 C 373.61750002056067,627.16796 365.5589100205607,627.80077 349.97688002056066,622.4453000000001 C 332.29719002056066,616.3671800000001 303.62141002056063,601.8242100000001 301.48469002056066,597.8398300000001 C 298.8440600205607,592.9062400000001 300.3440600205607,593.0507700000002 305.13703002056064,598.1914000000002 C 307.25422002056064,600.4609300000002 309.02766002056063,601.6210800000001 309.02766002056063,600.7812400000001 C 309.02766002056063,599.9414000000002 310.3011000205606,600.3164000000002 311.85578002056064,601.6054600000001 C 314.19172002056064,603.5429600000001 314.68391002056063,603.36327 314.68391002056063,600.5468600000002 C 314.68391002056063,597.7109300000002 315.6487500205606,598.0585800000001 320.57453002056064,602.6679600000001 L 326.4690600205606,608.1992100000001 L 325.34797002056064,602.1367100000001 C 324.2190600205606,596.1601500000002 324.29719002056066,596.0976500000002 329.35578002056064,598.2499900000001 C 332.1761000205606,599.4492100000001 335.75422002056064,601.4101500000002 337.30891002056063,602.6054600000001 C 344.62141002056063,608.2304600000001 345.4690600205606,608.1054600000001 344.1448500205606,601.48827 C 343.1448500205606,596.4921800000001 343.34016002056063,595.62108 345.1487500205606,597.42577 C 348.4261000205606,600.70702 356.1643800205606,600.33202 356.1643800205606,596.8984300000001 C 356.1643800205606,593.3867100000001 359.2112500205606,593.2109300000001 361.2307800205606,596.6015500000001 C 362.06281002056056,597.9921800000001 365.0979700205606,600.5937400000001 367.9495300205606,602.4296800000001 C 372.2268800205606,605.1835800000001 373.1331300205606,605.2890500000001 373.1331300205606,603.01952 C 373.1331300205606,601.5078000000001 371.4378100205606,598.7734300000001 369.3636000205606,596.8984300000001 C 367.2893800205606,595.0234300000001 365.5940600205606,592.5898300000001 365.5940600205606,591.5390500000001 C 365.5940600205606,590.4921800000001 366.0706300205606,590.1914 366.7112500205606,590.8359300000001 C 367.3557800205606,591.4765500000001 369.2190600205606,590.6835800000001 370.8362500205606,589.0664 C 372.87922002056064,587.02733 375.94172002056064,586.41015 380.8518800205606,587.0664 C 385.7386000205606,587.72265 388.2542200205606,587.22265 388.9261000205606,585.4765500000001 C 389.6643800205606,583.5546800000001 391.37922002056064,583.3554600000001 396.1136000205606,584.7109300000001 C 412.7425000205606,589.4765500000001 415.8050000205606,584.04686 399.7659400205606,578.23827 C 388.9261000205606,574.30858 387.5550000205606,572.32811 397.7034400205606,575.23436 C 410.6057800205606,578.9296800000001 427.3870300205606,576.1328000000001 420.2737500205606,571.46874 C 418.71516002056063,570.4453 413.6253100205606,569.48827 408.9612500205606,569.34765 C 401.75422002056064,569.1328000000001 401.28547002056064,568.9453000000001 405.9534400205606,567.93358 C 408.9807800205606,567.28124 411.8323500205606,565.56249 412.3167200205606,564.10936 C 413.05110002056057,561.90233 410.0784400205606,561.65233 394.05110002056057,562.7539 C 375.1839100205606,564.0546800000001 374.8792200205606,564.0546800000001 377.1995300205606,560.34374 C 380.6526600205606,554.8164 378.28156002056056,553.85936 368.8909400205606,557.04686 C 363.8167200205606,558.76561 357.3011000205606,559.48827 352.2190600205606,558.87108 C 341.31672002056064,557.54296 305.2503100205606,545.46874 301.0159400205606,541.74218 C 296.5862500205606,537.8437399999999 296.8362500205606,535.1445199999999 301.4886000205606,536.61718 C 303.6018800205606,537.28905 305.2581300205606,536.94921 305.2581300205606,535.85546 C 305.2581300205606,533.81249 308.0823500205606,534.39843 317.5120300205606,538.5039 C 320.62531002056056,539.85546 327.4534400205606,541.0039 332.7151600205606,541.03515 C 337.9768800205606,541.06245 343.0667200205606,541.26171 344.0276600205606,541.4453000000001 C 348.4417200205606,542.2890500000001 348.90656002056056,540.9999900000001 345.61750002056056,537.0898300000001 C 343.2542200205606,534.2773300000001 343.9964100205606,534.5937400000001 347.79719002056055,538.0312400000001 C 354.32063002056054,543.9257700000002 356.16438002056054,544.4179600000001 356.16438002056054,540.3281100000002 C 356.16438002056054,537.8398300000001 356.77375002056056,537.8554600000001 360.9964100205605,540.6210800000001 C 363.8440600205605,542.4843600000002 366.3948500205605,543.0703000000001 367.1253100205605,542.0351500000002 C 367.8128100205605,541.0585800000001 370.91828002056053,539.1601500000002 374.0198500205605,537.7968600000002 C 379.4300000205605,535.4140500000002 379.5198500205605,535.2304600000001 376.0237500205605,532.6757700000002 C 371.7542200205605,529.5546800000002 372.8401600205605,529.3007700000002 379.5589100205605,531.8515500000002 C 383.2073500205605,533.2382700000002 384.44953002056053,533.1054600000002 384.44953002056053,531.2617100000002 C 384.44953002056053,529.7734300000002 389.23469002056055,527.8164000000003 396.70344002056055,526.2578000000002 C 403.44563002056054,524.8515500000002 408.96125002056056,522.9335800000002 408.96125002056056,522.0195200000002 C 408.96125002056056,521.1093600000002 409.75813002056054,520.9140500000002 410.7854700205606,521.5507700000002 C 411.8167200205606,522.1835800000001 414.1643800205606,521.8554600000002 415.9729700205606,520.8437400000001 C 418.84406002056056,519.2343600000002 418.58625002056056,518.8085800000001 414.0276600205606,517.6640500000001 C 410.09406002056056,516.6796800000001 409.08625002056056,515.5234300000001 409.9026600205606,512.95702 C 410.70344002056055,510.43358000000006 409.85966002056057,509.42186000000004 406.6604700205606,508.95311000000004 C 403.6096900205606,508.50390000000004 405.7776600205606,507.17968 414.08625002056056,504.53905000000003 C 426.96125002056056,500.44140000000004 430.14485002056057,496.73436000000004 418.85969002056055,498.94530000000003 C 408.43781002056056,500.98827000000006 382.56281002056056,501.44921000000005 382.56281002056056,499.59374 C 382.56281002056056,498.71093 383.4104700205606,498.00390000000004 384.4495300205606,498.00390000000004 C 385.4846900205606,498.00390000000004 386.33235002056057,497.14843 386.33235002056057,496.12108000000006 C 386.33235002056057,495.0937400000001 382.30500002056056,494.3124900000001 377.3792200205606,494.4140500000001 C 365.0042200205606,494.6640500000001 345.2268800205606,490.5312400000001 344.0276600205606,487.4062400000001 C 343.3518800205606,485.6484300000001 344.5706300205606,484.8164000000001 347.73860002056057,484.8164000000001 C 350.29719002056055,484.8164000000001 352.39485002056057,483.9960800000001 352.39485002056057,482.9921800000001 C 352.39485002056057,481.98827000000006 353.6682800205606,481.6289000000001 355.2229700205606,482.2265500000001 C 356.7776600205606,482.8242100000001 358.05110002056057,482.31245000000007 358.05110002056057,481.1093600000001 C 358.05110002056057,479.6640500000001 359.4729700205606,479.9414000000001 362.23469002056055,481.8749900000001 C 364.53938002056054,483.48827000000006 368.57063002056054,484.7929600000001 371.1917200205605,484.7578000000001 L 375.9612500205605,484.6992000000001 L 371.6018800205605,481.0507600000001 L 367.3011000205605,477.4609200000001 L 376.3167200205605,476.8710700000001 L 385.39094002056055,476.22264000000007 L 378.78938002056054,473.0429500000001 L 372.1917200205605,469.8671700000001 L 377.9651600205605,469.8046700000001 C 381.6448500205605,469.7577700000001 385.4065600205605,468.0273200000001 388.2190600205605,465.0390400000001 C 390.6526600205605,462.44920000000013 393.5159400205605,460.3281000000001 394.6409400205605,460.3281000000001 C 395.7659400205605,460.3281000000001 397.8089100205605,458.5976400000001 399.1175000205605,456.5038900000001 C 402.5667200205605,450.98826000000014 398.1761000205605,449.8827900000001 387.3362500205605,453.55857000000015 C 375.6448500205605,457.52342000000016 373.2190600205605,457.41404000000017 374.4300000205605,452.79295000000013 C 375.6214100205605,448.24607000000015 375.3128100205605,448.2187300000001 363.4729700205605,452.08982000000015 C 354.4651600205605,455.03123000000016 353.5276600205605,454.94529000000017 339.13703002056053,450.85154000000017 C 319.73078002056053,445.3320100000002 314.7542200205605,440.1601400000002 329.71125002056056,441.0195100000002 C 331.25031002056056,441.1093100000002 333.10578002056053,440.25779000000017 333.83235002056057,439.0781000000002 C 334.7620300205606,437.5781000000002 336.3245300205606,437.9335700000002 338.96125002056056,440.3163900000002 C 341.91438002056054,442.9882600000002 344.38313002056054,443.4492000000002 350.39094002056055,442.4335700000002 C 358.96125002056056,440.9882600000002 359.48860002056057,440.2734200000002 354.75031002056056,436.3710700000002 C 351.35969002056055,433.5820100000002 352.61360002056057,433.6679500000002 360.70344002056055,436.9023200000002 C 363.5979700205605,438.0585700000002 364.08625002056056,437.7109200000002 363.11750002056056,435.1952900000002 C 362.22688002056054,432.8710700000002 362.94563002056054,432.07420000000025 365.82844002056055,432.07420000000025 C 368.45344002056055,432.07420000000025 369.4104700205605,431.17967000000027 368.7151600205606,429.36717000000027 C 368.14485002056057,427.8788900000003 368.65656002056056,426.23826000000025 369.89485002056057,425.71482000000026 C 371.4729700205606,425.05467000000027 371.25813002056054,423.97264000000024 369.07063002056054,422.18357000000026 C 366.20735002056057,419.8437300000003 366.32453002056053,419.29685000000023 370.48469002056055,415.29685000000023 C 377.27375002056056,408.76560000000023 376.01203002056053,407.3984200000002 366.06281002056056,410.58982000000026 C 341.32063002056054,418.51560000000023 332.2464100205606,418.98826000000025 326.17610002056057,412.5312300000003 C 322.7307800205606,408.87107000000026 322.53156002056056,407.8749800000003 324.82063002056054,406.99607000000026 C 326.35578002056053,406.41014000000024 330.15656002056056,406.87107000000026 333.30500002056056,408.05857000000026 C 341.36360002056057,411.09764000000024 343.08625002056056,408.06657000000024 336.36750002056056,402.64060000000023 C 331.65656002056056,398.8359200000002 331.3401600205606,398.1327900000002 334.48078002056053,398.40232000000026 C 341.07844002056055,398.97264000000024 344.85188002056054,398.2265400000003 344.85188002056054,396.28514000000024 C 344.85188002056054,395.24607000000026 343.36750002056056,394.34764000000024 341.55110002056057,394.2812300000002 C 338.8792200205606,394.1875300000002 338.97688002056054,393.81639000000024 342.1995300205606,392.51560000000023 C 344.3909400205606,391.6327900000002 346.68781002056056,389.58982000000026 347.3284400205606,387.92576000000025 C 348.3323500205606,385.30467000000027 347.9573500205606,385.18357000000026 344.3206300205606,387.2187300000003 C 337.7464100205606,390.89451000000025 298.4495300205606,390.33592000000027 290.1721900205606,386.4531000000003 C 284.3870300205606,383.7382600000003 284.0784400205606,383.3515400000003 287.9925000205606,383.2148200000003 C 291.5628100205606,383.09373000000033 292.2932800205606,382.3085700000003 291.4690600205606,379.1523200000003 C 290.54328002056064,375.6210700000003 290.74641002056063,375.4843500000003 293.59016002056063,377.9179500000003 C 297.72297002056064,381.4531000000003 303.37141002056063,383.4296700000003 303.37141002056063,381.3320100000003 C 303.37141002056063,380.4257600000003 305.06672002056064,380.0820100000003 307.1409400205606,380.62498000000033 C 309.2503100205606,381.1757600000003 310.9143800205606,380.68358000000035 310.9143800205606,379.50779000000034 C 310.9143800205606,378.35154000000034 313.0354700205606,377.44529000000034 315.6253100205606,377.44529000000034 C 321.8948500205606,377.44529000000034 321.5823500205606,375.57420000000036 314.3323500205606,369.6171700000003 L 308.26203002056064,364.67185000000035 L 318.33625002056067,366.26170000000036 C 328.72688002056066,367.9023200000004 332.51203002056064,367.22264000000035 330.5354700205607,364.0273200000004 C 328.6018800205607,360.9023200000004 333.6682800205607,356.7265400000004 339.3714100205607,356.7265400000004 C 345.79719002056066,356.7265400000004 346.6839100205607,353.6171700000004 340.60969002056066,352.3124800000004 C 338.19953002056064,351.7929500000004 339.2190600205607,351.4648200000004 342.9651600205607,351.6054500000004 C 347.2581300205607,351.7656000000004 349.4026600205607,351.0937300000004 349.0940600205607,349.6015400000004 C 348.83625002056067,348.3398200000004 349.5198500205607,347.3085700000004 350.6839100205607,347.3085700000004 C 352.10969002056066,347.3085700000004 352.0354700205607,346.34764000000035 350.39094002056066,344.36326000000037 C 348.82844002056066,342.48435000000035 346.18000002056067,341.73435000000035 343.08625002056067,342.36326000000037 C 340.41438002056066,342.9062300000004 339.3128100205607,342.92576000000037 340.60969002056066,342.36326000000037 C 344.96125002056067,340.47264000000035 343.03547002056064,337.45701000000037 338.25422002056064,338.6523200000004 C 334.4300000205606,339.61326000000037 333.84016002056063,339.2421700000004 334.8362500205606,336.6523200000004 C 335.7268800205606,334.3359200000004 335.3362500205606,333.91795000000036 333.4807800205606,335.0624800000004 C 332.0862500205606,335.9218500000004 328.7854700205606,336.7851400000004 326.11360002056057,337.0077900000004 C 323.4417200205606,337.2265400000004 319.16438002056054,337.9960700000004 316.57063002056054,338.7148200000004 L 311.85578002056053,340.0077900000004 L 317.04328002056053,335.5937300000004 C 323.0315600205605,330.45701000000037 323.9026600205605,327.4452900000004 318.57453002056053,330.2968500000004 C 313.3167200205605,333.1054500000004 309.45344002056055,332.87107000000043 312.38703002056053,329.9413900000004 C 316.61750002056056,325.71482000000043 314.94953002056053,322.3788900000004 310.61750002056056,326.4101400000004 C 308.40656002056056,328.4726400000004 303.96125002056056,331.4062300000004 300.71906002056056,332.9452900000004 C 289.1995300205606,338.4062300000004 258.11750002056056,330.9687300000004 258.11750002056056,322.7617000000004 C 258.11750002056056,321.11717000000044 257.0667200205606,318.7656000000004 255.82063002056057,317.52342000000044 C 254.30891002056057,316.00779000000045 254.26594002056058,315.28514000000047 255.64485002056057,315.28514000000047 C 256.7776600205605,315.28514000000047 258.16828002056053,316.55467000000044 258.76594002056055,318.10935000000046 C 259.45735002056057,319.90623000000045 262.14875002056056,320.84373000000045 266.07453002056053,320.6992000000005 C 269.47688002056054,320.5742000000005 274.16828002056053,321.1171700000005 276.5042200205605,321.87889000000047 C 279.9886000205605,323.01560000000046 280.7464100205605,322.5117000000005 280.7464100205605,319.28904000000045 L 280.7464100205605,315.40232000000043 L 287.16828002056053,319.1679500000004 C 291.7854700205605,321.8906000000004 293.97688002056054,322.3827900000004 294.94563002056054,320.8163900000004 C 295.68781002056056,319.6171700000004 295.13703002056053,317.8359200000004 293.70735002056057,316.8749800000004 C 291.46906002056056,315.3710700000004 302.47688002056054,315.5702900000004 309.96906002056056,317.1679500000004 C 311.00813002056054,317.3906000000004 313.78156002056056,316.92967000000044 316.15656002056056,316.1679500000004 C 320.14094002056055,314.8906000000004 320.21125002056056,314.5038900000004 317.45344002056055,311.4570100000004 C 314.6839100205606,308.40232000000043 314.83625002056056,308.0976400000004 319.2776600205606,306.9843500000004 C 324.7268800205606,305.6171700000004 325.81281002056056,302.0937300000004 320.81281002056056,301.9804500000004 C 318.7307800205606,301.9335500000004 319.6057800205606,300.96482000000043 323.1682800205606,299.3320100000004 C 326.2776600205606,297.90623000000045 331.3206300205606,294.6757600000004 334.36360002056057,292.15232000000043 L 339.84406002056056,287.55857000000043 L 332.9495300205606,286.2656000000004 C 329.12531002056056,285.5468500000004 325.9964100205606,284.15232000000043 325.9964100205606,283.1445100000004 C 325.9964100205606,282.08592000000044 323.80110002056057,281.81248000000045 320.81281002056056,282.55467000000044 C 316.2854700205606,283.68357000000043 315.88313002056054,283.5117000000004 317.98469002056055,280.96482000000043 C 321.62531002056056,276.5507600000004 316.19953002056053,275.2031000000004 310.61750002056056,279.1406000000004 C 308.0042200205606,280.9843500000004 302.33625002056056,282.3554500000004 296.89094002056055,282.4374800000004 C 289.46125002056056,282.5468500000004 288.4026600205606,282.17576000000037 291.64485002056057,280.7304500000004 C 295.31281002056056,279.0976400000004 295.67610002056057,277.5624800000004 294.06281002056056,270.37107000000043 C 293.98471002056056,270.02732000000043 291.0745300205606,271.5117000000004 287.57844002056055,273.6679500000004 C 284.08625002056056,275.8242000000004 278.35969002056055,277.5624800000004 274.85188002056054,277.5507600000004 C 263.0979700205605,277.51556000000045 242.86360002056057,269.6913900000004 230.01203002056056,260.18748000000045 C 225.06672002056055,256.52732000000043 226.11360002056057,255.76951000000045 231.84016002056055,258.8320100000004 C 234.80891002056055,260.4218500000004 235.50422002056055,260.15623000000045 235.55110002056054,257.4218500000004 C 235.60580002056054,254.2109200000004 235.69953002056053,254.1757600000004 237.55500002056053,257.3593500000004 C 238.62531002056053,259.1952900000004 240.26594002056052,260.2382600000004 241.20735002056054,259.6562300000004 C 242.15266002056055,259.0742000000004 245.07063002056054,259.9999800000004 247.69172002056055,261.7187300000004 C 252.40656002056056,264.8046700000004 252.43391002056055,264.7617000000004 252.46125002056056,259.4218500000004 C 252.48075002056055,256.4531000000004 253.11360002056057,254.9843500000004 253.87531002056056,256.1249800000004 C 255.52766002056057,258.5937300000004 262.64875002056056,262.5429500000004 265.48469002056055,262.5429500000004 C 266.5901600205606,262.5429500000004 267.6214100205606,260.6327900000004 267.7229700205605,258.30467000000044 C 267.9026600205605,254.28123000000045 267.95344002056055,254.30467000000044 269.19563002056054,258.77342000000044 C 269.91828002056053,261.3632600000004 270.90656002056056,263.09373000000045 271.37531002056056,262.66014000000047 C 271.8479700205606,262.22654000000045 274.00031002056056,262.80467000000044 276.14875002056056,263.95310000000046 C 279.33625002056056,265.65623000000045 280.53938002056054,265.37889000000047 282.6292200205606,262.48435000000046 C 284.0393800205606,260.5273200000005 285.92610002056057,259.4023200000005 286.81281002056056,259.95310000000046 C 287.70344002056055,260.49998000000045 287.84406002056056,258.7617000000005 287.1682800205606,256.06639000000047 C 285.98860002056057,251.37498000000048 286.1487500205606,251.23826000000048 291.11360002056057,253.12107000000046 C 297.2464100205606,255.44920000000045 299.1526600205606,254.29685000000046 295.82844002056055,250.29685000000046 C 293.84406002056056,247.91014000000047 294.04328002056053,247.47264000000047 296.83235002056057,247.47264000000047 C 300.0042200205606,247.47264000000047 299.96125002056056,247.26951000000048 296.8909500205606,243.88279000000045 C 295.10579002056056,241.91014000000047 294.44954002056056,239.82810000000046 295.41829002056056,239.23045000000045 C 296.3831400205606,238.63279000000045 298.65267002056055,239.80076000000045 300.4847000205606,241.82029000000045 C 303.35579002056056,244.99217000000044 305.2034500205606,245.27732000000046 312.50423002056056,243.82029000000045 C 312.8909500205606,243.74609000000046 312.30501002056053,242.56248000000045 311.14876002056053,241.17185000000046 C 308.6956400205605,238.21873000000045 310.14876002056053,236.16795000000047 314.74251002056053,236.16795000000047 C 316.52767002056055,236.16795000000047 320.0120400205605,234.49998000000048 322.46126002056053,232.46092000000047 L 326.94173002056056,228.75389000000047 L 321.28157002056054,228.39842000000047 C 318.1722000205605,228.20310000000046 313.5472000205605,228.23045000000047 311.03157002056054,228.45702000000048 C 307.0472000205605,228.8203000000005 306.74251002056053,228.47652000000048 308.91048002056056,225.86718000000047 C 313.03157002056054,220.90624000000048 310.12923002056056,220.91796000000048 302.84017002056055,225.86718000000047 C 294.93782002056054,231.23436000000046 290.17611002056054,232.16796000000048 293.94173002056056,227.6328000000005 C 295.93782002056054,225.2343600000005 295.82454002056056,224.9335800000005 293.2347000205606,225.92577000000048 C 289.63704002056056,227.30468000000047 289.1136100205606,224.7460800000005 292.3518900205606,221.51171000000048 C 297.1800100205606,216.68749000000048 292.05892002056055,217.41015000000047 286.10579002056056,222.39452000000048 C 274.38704002056056,232.20702000000048 272.94954002056056,232.51952000000048 259.7112600205606,228.5156100000005 C 245.8284500205606,224.3203000000005 236.52376002056062,219.08202000000048 233.7268900205606,213.8593600000005 C 232.0120400205606,210.6640500000005 232.4026700205606,210.2109300000005 236.4964200205606,210.4453000000005 C 239.0784500205606,210.59374000000048 241.58626002056062,212.03124000000048 242.0940700205606,213.62499000000048 C 242.6018900205606,215.2148300000005 244.8050100205606,216.6406100000005 246.98470002056058,216.80468000000047 C 250.16439002056057,217.04296000000048 250.72298002056058,216.29296000000048 249.87142002056058,213.03515000000047 C 248.92611002056057,209.42577000000048 249.3245400205606,209.55468000000047 253.2307900205606,214.09374000000048 C 255.64095002056058,216.9023300000005 259.48861002056054,219.2148300000005 261.83236002056054,219.2148300000005 C 265.52767002056055,219.2148300000005 265.96517002056055,218.49999000000048 265.01204002056056,213.7421800000005 C 263.5862600205606,206.6132700000005 268.01204002056056,204.6445200000005 272.61361002056054,210.3867100000005 C 275.7581400205605,214.30858000000052 286.36361002056054,217.0664000000005 286.40267002056055,213.97655000000051 C 286.41067002056053,213.2109300000005 283.65267002056055,210.3242100000005 280.27376002056053,207.50390000000053 C 275.58626002056053,203.58983000000052 274.94173002056056,202.35936000000052 277.50423002056056,202.32030000000051 C 279.3518900205606,202.29300000000052 281.3284500205606,203.4804600000005 281.9222000205606,205.0312400000005 C 282.5198600205606,206.57811000000052 283.7190700205606,207.4414000000005 284.57454002056056,206.91405000000051 C 285.43392002056055,206.38280000000051 286.6331400205606,206.8007700000005 287.28548002056056,207.8554600000005 C 287.93782002056054,208.9101500000005 290.74251002056053,209.7968600000005 293.47298002056056,209.7968600000005 C 298.22298002056056,209.7968600000005 298.27376002056053,209.6601500000005 294.76986002056054,207.0898300000005 C 291.23861002056054,204.49999000000048 291.2972000205605,204.33202000000048 296.41829002056056,202.3828000000005 C 299.3362600205606,201.2656100000005 302.73079002056056,200.35546000000048 303.9612600205606,200.3203000000005 C 305.1878200205606,200.28510000000048 304.0784500205606,199.05077000000048 301.4847000205606,197.61327000000048 C 296.8909500205606,195.06640000000047 296.9378200205606,195.01171000000048 304.0784500205606,195.6718600000005 C 308.7034500205606,196.0976500000005 312.3909500205606,195.3710800000005 314.0940700205606,193.6679600000005 C 318.2386100205606,189.52733000000052 315.3011100205606,187.19530000000051 305.9651700205606,187.19530000000051 C 300.7464200205606,187.19530000000051 297.9378200205606,186.4179600000005 298.6565700205606,185.2499900000005 C 301.0315700205606,181.4101500000005 294.0706400205606,181.3476500000005 286.2229800205606,185.13280000000051 C 276.60970002056064,189.7734300000005 274.8245400205606,190.0117100000005 276.26595002056064,186.2499900000005 C 276.9495400205606,184.47655000000051 276.24645002056064,183.4257700000005 274.38314002056063,183.4257700000005 C 272.51595002056064,183.4257700000005 271.81282002056065,182.3749900000005 272.4964200205606,180.60155000000051 C 273.7659500205606,177.29686000000052 273.1097000205606,177.18358000000052 266.8987600205606,179.5429600000005 C 262.8597000205606,181.0742100000005 262.4143900205606,180.8359300000005 263.2464200205606,177.6562400000005 C 264.2347000205606,173.87108000000052 261.07064002056063,172.5507700000005 259.0042300205606,175.89061000000052 C 258.35189002056063,176.94140000000053 254.35970002056064,179.60936000000052 250.10579002056065,181.77733000000052 C 243.26595002056064,185.26561000000052 241.50032002056065,185.4374900000005 234.78548002056064,183.4257700000005 C 228.52767002056063,181.5507700000005 227.72689002056063,180.83983000000052 230.36751002056064,179.3632700000005 C 232.12923002056064,178.3789000000005 233.60970002056064,176.29686000000052 233.60970002056064,174.71483000000052 C 233.60970002056064,172.48436000000052 231.67611002056063,171.95311000000052 225.06282002056065,172.35936000000052 C 218.63314002056066,172.75390000000053 215.67220002056064,171.9570200000005 212.92611002056066,169.17968000000053 C 208.78939002056066,164.99999000000054 204.78939002056066,150.06640000000053 207.38704002056065,148.46093000000053 C 208.99642002056063,147.46874000000054 209.89486002056066,151.48046000000053 209.21517002056063,156.64452000000054 C 209.03939002056063,157.96483000000055 210.69954002056065,161.58202000000054 212.92611002056063,164.70702000000054 C 216.15657002056062,169.24218000000053 217.53157002056062,169.92968000000053 219.64486002056063,168.17968000000053 C 221.09798002056064,166.97265000000053 222.35189002056063,163.78124000000054 222.47298002056064,161.05858000000052 C 222.64486002056063,157.1445200000005 222.92220002056064,156.90233000000052 223.64876002056064,159.87890000000053 C 225.07845002056064,165.73436000000052 229.97298002056064,170.24218000000053 234.90267002056063,170.24218000000053 C 238.75814002056063,170.24218000000053 239.11361002056063,169.71874000000054 237.43782002056062,166.58983000000052 C 234.97689002056063,161.99218000000053 234.95736002056063,160.2695200000005 237.3792200205606,161.76561000000052 C 238.4143800205606,162.4062400000005 239.2659400205606,162.03905000000051 239.2659400205606,160.94140000000053 C 239.2659400205606,159.84374000000054 240.1136000205606,158.93749000000054 241.1487500205606,158.93749000000054 C 242.18781002056062,158.93749000000054 243.0354700205606,160.12499000000054 243.0354700205606,161.58593000000053 C 243.0354700205606,164.96483000000052 254.0511000205606,174.36718000000053 256.3518800205606,172.94921000000053 C 257.3011000205606,172.36327000000054 258.1214100205606,170.24999000000054 258.1214100205606,168.23827000000054 C 258.1214100205606,166.22655000000054 258.9651600205606,164.58983000000055 260.06281002056056,164.58983000000055 C 261.1604700205606,164.58983000000055 261.5589100205606,163.53124000000054 260.8870300205606,162.23436000000055 C 260.21906002056056,160.94140000000056 261.2425000205606,161.80077000000054 263.18781002056056,164.17577000000054 C 265.13313002056054,166.55468000000053 267.3714100205606,167.88280000000054 268.1370300205606,167.12108000000055 C 268.9026600205606,166.35546000000053 271.3675000205606,165.44140000000056 273.67610002056057,165.12108000000055 C 278.78156002056056,164.41015000000056 286.4026600205606,160.65233000000055 286.4026600205606,158.82030000000054 C 286.4026600205606,158.08593000000053 283.8792200205606,156.44140000000056 280.80500002056056,155.17186000000055 C 277.73078002056053,153.89843000000056 275.39875002056056,151.88280000000054 275.61750002056056,150.69530000000054 C 275.84406002056056,149.49608000000055 273.44953002056053,148.44921000000053 270.25813002056054,148.34374000000054 C 263.6604700205605,148.12499000000054 254.06281002056056,143.64843000000053 257.64875002056056,142.45702000000054 C 258.9417200205606,142.02343000000053 260.0042200205606,140.44921000000053 260.0042200205606,138.98436000000055 C 260.0042200205606,135.99608000000055 250.5784400205606,135.23436000000055 247.6331300205606,137.98046000000056 C 244.7815600205606,140.64061000000055 237.3792200205606,142.38280000000057 237.3792200205606,140.39452000000057 C 237.3792200205606,139.40233000000057 239.5276600205606,138.06640000000056 242.2112500205606,137.39452000000057 C 246.23078002056062,136.38671000000056 246.6839100205606,135.65624000000057 244.8050000205606,133.39061000000058 C 242.9417200205606,131.1484300000006 243.21906002056062,130.67186000000058 246.0979700205606,130.62499000000057 C 250.3011000205606,130.55079000000057 257.39485002056057,125.54296000000056 255.7034400205606,123.85546000000056 C 255.0511000205606,123.20311000000056 250.6409400205606,122.26561000000056 245.9221900205606,121.73436000000056 C 236.4886000205606,120.67186000000056 236.5354700205606,120.70311000000056 239.32453002056062,115.49608000000056 C 241.13313002056063,112.11718000000056 241.5901600205606,112.06640000000056 245.7464100205606,114.78905000000056 C 249.9456300205606,117.53515000000056 250.3011000205606,117.44140000000056 251.4612500205606,113.78905000000056 C 252.14485002056063,111.64062000000055 253.5042200205606,110.36718000000056 254.4651600205606,110.96093000000056 C 255.4300000205606,111.55468000000056 256.23469002056055,111.17577000000055 256.23469002056055,110.07812000000055 C 256.23469002056055,108.98046000000055 257.93000002056056,108.07812000000055 260.0042200205605,108.07812000000055 C 262.07844002056055,108.07812000000055 263.7776600205605,106.87108000000055 263.7776600205605,105.42968000000056 C 263.7776600205605,102.55077000000055 259.79328002056053,100.54296000000056 254.17219002056055,100.54296000000056 C 249.89094002056055,100.54296000000056 249.31672002056055,97.08593000000056 253.34797002056055,95.53905000000056 C 254.89485002056054,94.94530000000056 255.76985002056054,93.83983000000056 255.28938002056054,93.06640000000056 C 254.81281002056053,92.29687000000055 256.5393800205605,90.56249000000055 259.1214100205605,89.18358400000055 C 265.47688002056054,85.78514600000055 263.9026600205605,82.64842800000055 255.82063002056054,82.64842800000055 L 249.16438002056054,82.64842800000055 L 253.93391002056055,76.41014600000055 C 257.6565600205605,71.53905200000055 258.1526600205605,69.71092800000055 256.35188002056054,67.93358400000055 C 254.55500002056058,66.16014600000055 252.72688002056057,67.12499000000055 247.86750002056058,72.40624000000055 C 242.10188002056057,78.66405200000055 241.50422002056058,78.90624000000055 239.5003100205606,75.70311500000055 C 238.3128100205606,73.80077100000055 236.4964100205606,72.28905200000055 235.49250002056058,72.28905200000055 C 233.2503100205606,72.28905200000055 227.29719002056058,82.82811500000055 226.00813002056057,89.12499000000055 C 225.05500002056058,93.77733000000055 207.69953002056056,108.62890000000056 205.09016002056057,107.01952000000055 C 204.34406002056056,106.55858000000056 203.9807800205606,101.53124000000055 204.20344002056058,95.83202000000055 C 204.43000002056058,90.13670900000055 203.87141002056057,85.47264600000055 202.9690600205606,85.47264600000055 C 202.0628100205606,85.47264600000055 201.58625002056058,82.34374000000055 201.9065600205606,78.52733400000055 C 202.3948500205606,72.73827100000055 203.3440600205606,71.33202100000055 207.74250002056058,70.16795900000055 C 212.29719002056058,68.96092800000055 212.8753100205606,69.23045900000055 211.9261000205606,72.23045900000055 C 210.2034400205606,77.64452100000055 214.80500002056058,79.01952100000055 218.4651600205606,74.17186500000055 C 220.3987500205606,71.60936500000055 222.2190600205606,70.64452100000055 222.9417200205606,71.81639600000055 C 224.2268800205606,73.89452100000055 231.7229700205606,72.79686500000055 231.7229700205606,70.52342800000055 C 231.7229700205606,68.76952100000055 222.3362500205606,59.99999000000055 220.7034400205606,60.21874000000055 C 220.0081300205606,60.31640000000055 217.96906002056062,59.98436500000055 216.16828002056062,59.51561500000055 C 210.8479700205606,58.12499000000055 214.3050000205606,55.47655200000055 219.93781002056062,56.62889600000055 C 229.3909400205606,58.56639600000055 237.90656002056062,58.20311500000055 238.73469002056063,55.80467800000055 C 239.18000002056064,54.51170900000055 238.30500002056064,53.44920900000055 236.78938002056063,53.44920900000055 C 235.27375002056064,53.44920900000055 233.00422002056064,52.16795900000055 231.72297002056064,50.62499000000055 C 230.44172002056064,49.08202100000055 228.63313002056063,48.29295900000055 227.71516002056063,48.85936500000055 C 226.79719002056063,49.42577100000055 226.06281002056062,49.22655200000055 226.06672002056064,48.38670900000055 C 226.07072002056063,47.55077100000055 228.61750002056064,45.16405200000055 231.72297002056064,43.08983400000055 C 237.43000002056064,39.28124000000055 239.00031002056065,36.49608400000055 235.43391002056063,36.49608400000055 C 232.00031002056062,36.49608400000055 219.65266002056063,42.20311500000055 217.99250002056064,44.56249000000055 C 217.01203002056064,45.95702100000055 216.82453002056064,45.23436500000055 217.52375002056064,42.73827100000055 C 218.15266002056063,40.49217800000055 217.85188002056063,38.16014600000055 216.87531002056065,37.55858400000055 C 214.82063002056066,36.28905200000055 207.21125002056064,48.40624000000055 207.21125002056064,52.92186500000055 C 207.21125002056064,54.58983400000055 206.64875002056064,55.42186500000055 205.97297002056064,54.74608400000055 C 205.29719002056063,54.07030200000055 203.55891002056063,54.94920900000055 202.14485002056063,56.74608400000055 C 199.90266002056063,59.59374000000055 199.7112500205606,58.82420900000055 200.55110002056063,50.80077100000055 C 201.33235002056063,43.34764600000055 203.10578002056062,39.71092800000055 209.98078002056062,31.67186500000055 C 214.6526600205606,26.20702100000055 218.5237500205606,20.51952100000055 218.5237500205606,19.01561500000055 C 218.5237500205606,14.488271000000552 209.05110002056063,17.46483400000055 207.09406002056062,22.60545900000055 C 203.98078002056062,30.78514600000055 200.5550000205606,27.94920900000055 201.25813002056063,17.77733400000055 C 201.77375002056064,10.35545900000055 201.10578002056062,7.55467800000055 197.96125002056064,4.17967800000055 L 194.0120300205607,0.0 M 181.2268800205607,66.105469 C 182.09016002056072,66.156249 184.1370300205607,67.792969 186.47297002056072,70.402344 C 190.34797002056072,74.742188 192.12922002056072,78.65625 192.12922002056072,82.941406 C 192.12922002056072,86.378906 191.7698500205607,89.238281 191.3636000205607,89.238281 C 190.34797002056072,89.238281 187.9182800205607,83.402344 187.05891002056072,78.9375 C 186.67219002056072,76.921875 185.1136000205607,73.917969 183.5823500205607,72.226562 C 182.0550000205607,70.539062 180.81672002056072,67.976562 180.8128100205607,66.578125 C 180.8128100205607,66.226562 180.9417200205607,66.089844 181.2268800205607,66.105469 M 176.6331300205607,93.77344 C 180.2190600205607,94.03515999999999 188.9182800205607,100.03515999999999 190.3011000205607,103.66405999999999 C 192.7581300205607,110.11719 191.3636000205607,111.32030999999999 187.1175000205607,106.37109 C 185.25813002056069,104.19922 182.6917200205607,102.42577999999999 181.4026600205607,102.42577999999999 C 179.21906002056068,102.42577999999999 174.07063002056069,95.14062999999999 175.4534400205607,94.00780999999999 C 175.7190600205607,93.78905999999999 176.1175000205607,93.73437999999999 176.63313002056069,93.77344 L 176.6331300205607,93.77344 M 228.12922002056072,109.13672 C 228.5823500205607,109.14072 229.1331300205607,109.21871999999999 229.71906002056073,109.37109 C 232.82844002056072,110.18359 232.09797002056072,111.30469 224.82844002056072,116.84765999999999 C 220.11750002056073,120.44140999999999 214.6018800205607,123.52734 212.6331300205607,123.67577999999999 C 210.66047002056072,123.82421999999998 209.09797002056072,124.57030999999999 209.09797002056072,125.38280999999999 C 209.09797002056072,126.19922 208.14094002056072,126.91405999999999 207.03547002056072,126.91405999999999 C 205.9261000205607,126.91405999999999 205.2893800205607,125.00780999999999 205.62141002056072,122.67577999999999 C 206.14094002056072,119.00780999999999 207.2190600205607,118.49609 213.34016002056072,119.02734 C 218.77766002056072,119.5 220.41047002056072,118.95703999999999 220.41047002056072,116.67188 C 220.41047002056072,115.03906 221.68000002056073,113.73047 223.2386000205607,113.73047 C 224.7932800205607,113.73047 226.06672002056072,112.53515999999999 226.06672002056072,111.08203 C 226.06672002056072,109.80859000000001 226.76594002056072,109.12891 228.12922002056072,109.13672 M 206.26594002056072,136.09766 L 210.68781002056073,138.27344 C 213.11750002056073,139.45703 217.14875002056073,139.90233999999998 219.64094002056072,139.27733999999998 C 222.21125002056073,138.63280999999998 224.18000002056073,138.95311999999998 224.18000002056073,140.03905999999998 C 224.18000002056073,141.09766 223.36360002056074,141.98436999999998 222.41047002056072,141.98436999999998 C 221.46125002056073,141.98436999999998 219.46125002056073,142.42186999999998 217.99250002056073,142.98436999999998 C 216.52375002056073,143.54686999999998 213.30891002056072,142.21483999999998 210.80500002056073,140.03905999999998 L 206.26594002056072,136.09766 M 226.94953002056073,140.74608999999998 C 227.37922002056072,140.80858999999998 228.00813002056074,141.24999999999997 228.89485002056074,141.98436999999998 C 231.00031002056073,143.73047 231.72297002056075,143.75780999999998 231.72297002056075,142.10155999999998 C 231.72297002056075,140.87891 232.64875002056075,140.48046999999997 233.84406002056076,141.21874999999997 C 235.34797002056075,142.14843999999997 234.95344002056075,143.34374999999997 232.54719002056075,145.10155999999998 C 227.69172002056075,148.65233999999998 226.06672002056075,148.26561999999998 226.06672002056075,143.63280999999998 C 226.06672002056075,141.54296999999997 226.23469002056075,140.64061999999998 226.94953002056076,140.74608999999998 L 226.94953002056073,140.74608999999998 M 255.34797002056072,147.63280999999998 C 256.9651600205607,147.63280999999998 257.8167200205607,148.48046999999997 257.1761000205607,149.51952999999997 C 255.6682800205607,151.95702999999997 252.4612500205607,151.95702999999997 252.4612500205607,149.51952999999997 C 252.4612500205607,148.48046999999997 253.7307800205607,147.63280999999998 255.3479700205607,147.63280999999998 L 255.34797002056072,147.63280999999998 M 210.98078002056073,177.77344 C 212.01985002056074,177.77344 212.86750002056073,182.01172 212.86750002056073,187.19141 C 212.86750002056073,196.74219 212.58235002056074,197.5625 210.33235002056074,195.31641 C 208.32453002056073,193.30858999999998 208.90266002056075,177.77344 210.98078002056073,177.77344 M 196.60578002056073,202.91016 C 197.28156002056073,202.79686999999998 197.78156002056073,203.20703 197.78156002056073,204.02733999999998 C 197.78156002056073,205.12499999999997 196.93391002056075,206.03124999999997 195.89875002056073,206.03124999999997 C 193.48078002056073,206.03124999999997 193.48078002056073,204.69530999999998 195.89875002056073,203.20311999999998 C 196.15656002056073,203.04297 196.37922002056072,202.94922 196.60578002056073,202.91016 M 211.80500002056073,206.91405999999998 C 211.9143800205607,206.90236 212.09016002056072,207.06641 212.21906002056073,207.38280999999998 C 212.73469002056072,208.66016 212.75422002056072,211.20311999999998 212.27766002056075,213.03516 C 211.80110002056074,214.86719 211.37141002056075,213.84766 211.33625002056075,210.73828 C 211.30505002056074,208.40625 211.48078002056076,206.94141 211.80500002056075,206.91406 L 211.80500002056073,206.91405999999998 M 188.35578002056073,207.91405999999998 C 189.39094002056072,207.91405999999998 190.23860002056074,208.28124999999997 190.23860002056074,208.73827999999997 C 190.23860002056074,209.19530999999998 189.39094002056075,210.09765999999996 188.35578002056073,210.73827999999997 C 187.31672002056072,211.37890999999996 186.46906002056073,211.01171999999997 186.46906002056073,209.91405999999998 C 186.46906002056073,208.81641 187.31672002056072,207.91405999999998 188.35578002056073,207.91405999999998 M 178.92610002056074,211.67968999999997 C 179.96516002056075,211.67968999999997 180.81281002056073,212.04686999999996 180.81281002056073,212.50390999999996 C 180.81281002056073,212.96093999999997 179.96516002056075,213.86718999999997 178.92610002056074,214.50780999999995 C 177.89094002056075,215.14452999999995 177.04328002056073,214.77733999999995 177.04328002056073,213.68358999999995 C 177.04328002056073,212.58593999999997 177.89094002056072,211.67968999999997 178.92610002056074,211.67968999999997 M 139.68781002056073,211.73828999999998 C 140.97688002056074,211.86719999999997 142.57453002056073,212.71484999999998 143.80891002056075,214.26953999999998 C 147.63313002056074,219.08203999999998 153.96906002056073,219.72266999999997 157.48078002056076,215.62500999999997 C 160.58625002056075,212.00000999999997 165.01985002056077,211.95313 162.78156002056076,215.56640999999996 C 162.18781002056076,216.53124999999997 162.99641002056077,217.33202999999997 164.55110002056077,217.33202999999997 C 166.10578002056076,217.33202999999997 167.91828002056076,216.48436999999998 168.55891002056077,215.44921999999997 C 170.07844002056078,212.98827999999997 173.26985002056077,212.97265999999996 173.26985002056077,215.44921999999997 C 173.26985002056077,216.50780999999998 170.93781002056076,218.29686999999996 168.08625002056075,219.39061999999996 C 165.23469002056075,220.48436999999996 158.05110002056077,221.80077999999995 152.17610002056077,222.33593999999997 C 142.82063002056077,223.18358999999995 141.24250002056075,222.85936999999996 139.44953002056076,219.50780999999998 C 138.32453002056076,217.40624999999997 137.44563002056077,214.78516 137.44563002056077,213.68358999999998 C 137.44563002056077,212.24999999999997 138.39875002056078,211.61327999999997 139.68781002056076,211.73827999999997 L 139.68781002056073,211.73828999999998 M 312.68000002056067,311.51563 C 313.7776600205607,311.51563 314.6839100205607,312.36329 314.6839100205607,313.40235 C 314.6839100205607,315.81251000000003 313.3479700205607,315.81251000000003 311.8557800205607,313.40235 C 311.2151600205607,312.36329 311.5823500205607,311.51563 312.6800000205607,311.51563 L 312.68000002056067,311.51563 M 155.0628100205607,334.1211 C 156.2190600205607,334.1211 153.9846900205607,335.81642 150.1136000205607,337.88673 C 143.26594002056072,341.5547 139.3323500205607,342.57813 139.3323500205607,340.71485 C 139.3323500205607,339.54298 152.2815600205607,334.1211 155.0628100205607,334.1211 M 317.8636000205607,414.58985 C 319.9417200205607,414.57815 322.00813002056066,414.79688 323.2854700205607,415.29688 C 325.8636000205607,416.30469999999997 324.5940600205607,416.73438 318.9261000205607,416.82813 C 314.5198500205607,416.89842999999996 310.9104700205607,416.63673 310.9104700205607,416.23829 C 310.9104700205607,415.23829 314.4026600205607,414.60938 317.8636000205607,414.58985 M 360.0511000205607,424.77345 C 360.7073500205607,424.74605 361.49250002056067,424.85545 362.1761000205607,425.12892000000005 C 363.68000002056067,425.73048000000006 363.1917200205607,426.15626000000003 360.9964100205607,426.24610000000007 C 359.0081300205607,426.32810000000006 357.8948500205607,425.87110000000007 358.5198500205607,425.24610000000007 C 358.83625002056067,424.93360000000007 359.39875002056067,424.80079000000006 360.0511000205607,424.7734500000001 L 360.0511000205607,424.77345 M 360.52375002056067,471.68751000000003 C 360.60965002056065,471.66411000000005 360.7464100205607,471.68751000000003 360.8792200205607,471.68751000000003 C 361.9143800205607,471.68751000000003 364.0354700205607,472.51173000000006 365.5901600205607,473.51563000000004 C 367.14875002056067,474.51954000000006 367.5706300205607,475.33985000000007 366.5354700205607,475.33985000000007 C 365.4964100205607,475.33985000000007 363.3753100205607,474.51954000000006 361.8206300205607,473.51563000000004 C 360.4612500205607,472.63673000000006 359.9339100205607,471.85938000000004 360.5237500205607,471.68751000000003 L 360.52375002056067,471.68751000000003 M 32.09015702056068,547.80079 C 32.98077702056068,547.6679800000001 33.234687020560685,548.06251 32.73859702056068,548.86329 C 32.10577702056068,549.8867300000001 30.828437020560678,550.7461 29.85187702056068,550.7461 C 27.140937020560678,550.7461 27.703437020560678,549.34767 30.97296702056068,548.09767 C 31.390937020560678,547.93751 31.79327702056068,547.84767 32.09015702056068,547.80079 M 62.55109702056068,563.98829 L 66.85187702056068,568.58204 L 71.09796702056067,573.17188 L 74.33624702056068,568.22657 C 77.28546702056067,563.73438 77.69171702056067,563.64454 79.40265702056068,566.6992300000001 C 80.80890702056068,569.2031300000001 81.66827702056068,569.4101700000001 82.76202702056068,567.6406300000001 C 83.80109702056068,565.9609500000001 84.56671702056067,566.4336000000001 85.47296702056067,569.2890700000002 C 86.76202702056068,573.3437600000002 90.30499702056068,574.9492300000002 90.30499702056068,571.4648500000002 C 90.30499702056068,570.4297000000001 92.63702702056068,569.5742300000002 95.48859702056068,569.5820400000002 L 100.67610002056068,569.5820400000002 L 95.01984702056068,572.5859500000003 C 91.37140702056068,574.5039200000002 86.49249702056068,575.2070400000002 81.34796702056067,574.6445400000002 C 76.96124702056068,574.1640700000003 73.83624702056068,574.5625400000002 74.39484702056068,575.4687600000002 C 75.88312702056068,577.8711000000002 73.07062702056068,577.4336000000002 67.26593702056067,574.4101700000002 C 64.30499702056068,572.8672000000003 61.965157020560675,572.5195400000002 61.60968702056068,573.5859500000003 C 61.27374702056068,574.5898500000003 59.45343702056068,574.8242300000003 57.60187702056068,574.1132900000002 C 54.47296702056068,572.9140700000003 54.55890702056068,572.5234500000003 58.426097020560675,568.4062600000002 L 62.55109702056068,563.98829 M 106.39094002056068,566.05079 C 106.78547002056068,566.04679 107.16828002056067,566.05479 107.50813002056067,566.1679800000001 C 108.92219002056068,566.6367300000001 108.05500002056067,567.5039200000001 105.50813002056067,568.1679800000001 C 102.37141002056067,568.98829 101.63313002056067,568.7422 103.03156002056068,567.3437600000001 C 103.85188002056067,566.5234500000001 105.19953002056067,566.0586000000001 106.39094002056068,566.0507900000001 L 106.39094002056068,566.05079 M 87.24249702056068,643.69532 C 87.91827702056068,643.58204 88.41827702056068,643.98829 88.41827702056068,644.8125100000001 C 88.41827702056068,645.9101700000001 87.57062702056068,646.8125100000001 86.53546702056067,646.8125100000001 C 84.11749702056068,646.8125100000001 84.11749702056068,645.4804800000001 86.53546702056067,643.9882900000001 C 86.79327702056068,643.8281300000001 87.01593702056067,643.7304800000002 87.24249702056068,643.6953200000002 L 87.24249702056068,643.69532" id="path7"/>
</svg>
