<?xml version="1.0" ?>
<svg xmlns="http://www.w3.org/2000/svg" xmlns:ev="http://www.w3.org/2001/xml-events" xmlns:xlink="http://www.w3.org/1999/xlink" baseProfile="full" height="458" id="Слой_1" style="enable-background:new 0 0 1280 1280;" transform="scale(0.2375296912114014 0.2375296912114014) translate(-210.5 -229.0)" version="1.1" viewBox="0 0 421 458" width="421" x="0px" xml:space="preserve" y="0px">
	<defs/>
	<path d="M 118.82665116365456,224.3 C 119.72665116365454,223.59999999999997 120.72665116365454,223.00000000000006 121.62665116365457,222.3 C 121.7266511636546,222.50000000000006 122.02665116365455,222.90000000000003 121.92665116365458,223.09999999999997 C 116.7266511636546,230.99999999999994 120.2266511636546,237.89999999999992 124.92665116365458,244.09999999999997 C 129.82665116365456,250.59999999999997 137.12665116365457,250.8 144.0266511636546,248.49999999999994 C 152.92665116365458,245.59999999999997 161.82665116365462,244.7 170.92665116365458,244.99999999999994 C 178.62665116365457,245.2999999999999 186.12665116365457,245.99999999999994 193.42665116365458,248.7 C 195.7266511636546,249.49999999999994 198.12665116365457,250.09999999999997 201.12665116365457,250.90000000000003 C 200.7266511636546,249.00000000000006 200.52665116365455,247.40000000000003 200.12665116365457,245.90000000000003 C 197.42665116365458,234.3 194.7266511636546,222.7 191.82665116365456,211.10000000000008 C 189.82665116365456,202.90000000000003 181.82665116365456,197.50000000000006 171.62665116365457,197.00000000000006 C 163.82665116365456,196.60000000000008 156.02665116365455,196.3 148.12665116365457,196.00000000000006 C 127.12665116365457,195.3 109.82665116365456,187.2000000000001 97.32665116365456,170.00000000000006 C 90.32665116365456,160.40000000000003 76.92665116365458,155.90000000000003 64.82665116365456,159.60000000000008 C 59.12665116365457,161.30000000000013 55.42665116365458,165.10000000000008 54.32665116365456,171.10000000000008 C 53.62665116365457,166.60000000000008 55.62665116365457,163.30000000000013 58.92665116365458,160.7000000000001 C 66.2266511636546,155.00000000000006 74.62665116365457,155.2000000000001 83.2266511636546,156.60000000000008 C 85.0266511636546,156.90000000000003 86.7266511636546,157.50000000000006 89.2266511636546,158.2000000000001 C 84.2266511636546,149.60000000000008 80.32665116365462,141.00000000000006 73.12665116365457,135.00000000000006 C 61.32665116365456,125.2000000000001 43.32665116365456,123.90000000000003 29.426651163654583,134.90000000000003 C 26.726651163654594,137.00000000000006 24.026651163654577,139.10000000000008 21.226651163654594,141.2 L 21.32665116365459,141.3 C 21.726651163654594,137.2 25.026651163654577,135.2 27.6266511636546,132.90000000000003 C 39.726651163654594,122.30000000000001 53.526651163654606,120.30000000000001 68.5266511636546,125.60000000000008 C 70.12665116365463,126.2000000000001 72.0266511636546,128.30000000000013 73.82665116365462,125.80000000000013 L 73.62665116365463,125.60000000000008 C 74.22665116365465,126.7000000000001 74.42665116365464,128.2000000000001 75.32665116365462,128.90000000000003 C 82.7266511636546,134.10000000000008 87.5266511636546,141.50000000000006 92.7266511636546,148.7 C 96.2266511636546,153.59999999999997 99.7266511636546,158.40000000000003 103.42665116365458,163.09999999999997 C 114.42665116365458,177.2 129.12665116365457,183.59999999999997 146.7266511636546,183.49999999999994 C 153.7266511636546,183.49999999999994 160.7266511636546,183.09999999999997 167.7266511636546,182.89999999999992 C 172.32665116365462,182.7999999999999 176.92665116365458,182.89999999999992 181.92665116365458,182.89999999999992 C 180.82665116365456,180.2999999999999 179.7266511636546,177.2999999999999 178.32665116365456,174.39999999999992 C 173.82665116365456,165.09999999999997 169.32665116365456,155.89999999999992 164.72665116365454,146.69999999999987 C 162.72665116365454,142.7999999999999 161.92665116365453,142.7999999999999 158.82665116365456,145.99999999999983 C 155.32665116365456,149.69999999999987 150.62665116365457,150.49999999999983 145.12665116365457,148.19999999999987 C 139.12665116365457,145.69999999999987 135.02665116365455,141.39999999999992 132.52665116365455,135.19999999999987 C 136.32665116365456,131.99999999999983 140.32665116365456,129.39999999999992 145.82665116365456,129.69999999999987 C 152.22665116365454,130.09999999999985 156.62665116365457,133.2999999999999 158.82665116365456,139.49999999999983 C 159.32665116365456,140.99999999999983 159.12665116365457,142.99999999999983 162.02665116365455,142.8999999999998 C 161.72665116365454,141.8999999999998 161.62665116365457,141.09999999999985 161.22665116365454,140.29999999999978 C 155.92665116365453,130.19999999999976 150.62665116365451,119.99999999999983 145.22665116365454,109.8999999999998 C 139.62665116365451,99.59999999999985 128.12665116365451,92.79999999999978 115.52665116365455,92.59999999999985 C 116.02665116365455,93.8999999999998 116.32665116365456,95.09999999999985 116.92665116365453,95.99999999999983 C 120.3266511636545,100.79999999999978 120.3266511636545,104.29999999999978 117.02665116365455,109.19999999999987 C 113.12665116365457,114.99999999999983 107.62665116365457,117.89999999999992 100.62665116365457,118.7999999999999 C 97.92665116365458,114.39999999999992 96.62665116365457,109.69999999999987 98.32665116365456,104.69999999999987 C 100.52665116365455,98.2999999999999 105.32665116365456,95.19999999999987 111.92665116365458,94.89999999999992 C 113.62665116365457,94.7999999999999 115.5266511636546,94.99999999999994 114.82665116365456,92.09999999999997 C 107.62665116365457,90.80000000000001 100.82665116365456,92.30000000000001 94.32665116365456,95.30000000000001 C 100.82665116365456,89.69999999999999 108.92665116365458,89.5 118.22665116365454,89.5 C 116.72665116365454,87.89999999999998 116.22665116365454,86.89999999999998 115.42665116365453,86.60000000000002 C 114.22665116365454,86.20000000000005 112.8266511636545,86.20000000000005 111.52665116365455,86.10000000000002 C 103.02665116365455,85.60000000000002 96.52665116365455,75.20000000000005 100.32665116365456,66.70000000000005 C 100.92665116365458,65.40000000000003 101.52665116365455,64.00000000000006 102.12665116365457,62.60000000000002 C 109.02665116365455,63.0 114.12665116365457,66.20000000000005 118.32665116365456,71.40000000000003 C 123.22665116365454,77.40000000000003 120.42665116365458,83.10000000000002 117.32665116365456,88.60000000000002 C 124.52665116365455,90.80000000000001 131.02665116365455,92.90000000000003 137.82665116365456,95.00000000000006 C 137.62665116365457,94.30000000000001 137.42665116365458,93.2000000000001 137.02665116365455,92.2000000000001 C 132.92665116365453,82.00000000000011 129.22665116365454,71.80000000000013 127.72665116365454,60.800000000000125 C 127.22665116365454,57.000000000000114 127.42665116365453,53.300000000000125 127.32665116365456,49.500000000000114 C 127.32665116365456,48.100000000000136 127.72665116365454,46.7000000000001 129.92665116365458,47.7000000000001 C 129.12665116365457,61.000000000000114 133.82665116365456,72.7000000000001 140.0266511636546,84.2000000000001 C 151.42665116365458,105.30000000000013 167.2266511636546,123.10000000000008 182.7266511636546,142.40000000000015 C 186.12665116365457,130.40000000000015 194.12665116365457,122.2000000000001 201.12665116365457,113.30000000000013 C 201.12665116365457,113.30000000000013 201.02665116365455,113.40000000000015 201.02665116365455,113.40000000000015 C 202.72665116365454,110.80000000000013 204.92665116365453,108.40000000000015 206.22665116365454,105.6000000000002 C 209.12665116365451,99.20000000000022 207.92665116365453,93.20000000000022 203.32665116365456,88.1000000000002 C 201.22665116365454,85.80000000000018 198.62665116365457,84.00000000000017 196.12665116365457,82.00000000000017 C 193.42665116365458,79.80000000000018 190.52665116365455,77.90000000000015 187.82665116365456,75.70000000000016 C 180.72665116365454,69.90000000000015 178.22665116365454,62.00000000000017 178.52665116365455,53.100000000000136 C 178.52665116365455,52.800000000000125 178.52665116365455,52.40000000000015 178.52665116365455,52.100000000000136 C 178.52665116365455,52.000000000000114 178.32665116365456,51.800000000000125 177.82665116365456,51.100000000000136 C 176.62665116365457,51.600000000000136 175.02665116365455,51.800000000000125 173.92665116365458,52.600000000000136 C 169.5266511636546,56.100000000000136 165.0266511636546,55.600000000000136 160.42665116365458,53.100000000000136 C 154.42665116365458,49.70000000000016 150.92665116365458,44.600000000000136 149.82665116365456,37.800000000000125 C 163.02665116365455,30.200000000000102 173.32665116365456,35.100000000000136 175.32665116365456,50.000000000000114 C 176.32665116365456,50.100000000000136 177.32665116365456,50.300000000000125 177.82665116365456,50.40000000000009 C 181.32665116365456,42.90000000000009 184.72665116365454,35.80000000000007 188.32665116365456,28.200000000000102 C 187.52665116365455,28.10000000000008 186.52665116365455,27.800000000000125 185.52665116365455,28.000000000000114 C 180.22665116365454,28.90000000000009 176.02665116365455,27.000000000000114 173.32665116365456,22.40000000000009 C 169.92665116365458,16.500000000000114 168.92665116365458,10.300000000000068 171.82665116365456,3.6000000000000796 C 178.22665116365454,3.000000000000057 183.72665116365454,4.60000000000008 187.82665116365456,10.200000000000102 C 191.92665116365458,15.900000000000091 189.62665116365457,21.60000000000008 187.22665116365454,27.40000000000009 C 187.82665116365456,27.60000000000008 188.32665116365456,27.700000000000102 188.92665116365453,27.90000000000009 C 189.8266511636545,26.90000000000009 190.52665116365455,25.800000000000068 191.52665116365455,24.90000000000009 C 192.92665116365453,23.700000000000102 194.52665116365455,22.60000000000008 196.02665116365455,21.40000000000009 C 196.02665116365455,21.40000000000009 195.82665116365456,21.200000000000102 195.82665116365456,21.200000000000102 C 190.22665116365454,29.60000000000008 184.62665116365457,38.000000000000114 182.52665116365455,48.2000000000001 C 181.22665116365454,54.500000000000114 182.12665116365457,60.40000000000009 185.52665116365455,65.90000000000009 C 186.52665116365455,67.50000000000011 187.32665116365456,69.60000000000008 189.82665116365456,69.30000000000007 L 189.72665116365454,69.20000000000005 C 190.42665116365453,70.20000000000005 191.02665116365455,71.50000000000006 192.02665116365455,72.20000000000005 C 194.52665116365455,73.90000000000003 197.12665116365457,75.30000000000007 199.72665116365454,76.80000000000007 C 204.82665116365456,79.60000000000008 209.52665116365455,82.80000000000007 213.82665116365456,87.40000000000009 C 213.72665116365454,86.40000000000009 213.82665116365456,85.40000000000009 213.62665116365457,84.50000000000011 C 212.2266511636546,79.90000000000009 213.2266511636546,75.90000000000009 216.52665116365455,72.50000000000011 C 223.72665116365454,65.10000000000014 232.42665116365453,62.100000000000136 242.62665116365457,63.500000000000114 C 246.62665116365457,76.60000000000014 234.02665116365455,92.2000000000001 215.92665116365458,86.50000000000011 C 214.32665116365456,87.7000000000001 213.82665116365456,89.00000000000011 214.7266511636546,91.10000000000008 C 218.5266511636546,100.2000000000001 217.2266511636546,108.90000000000003 212.0266511636546,117.10000000000008 C 209.0266511636546,121.90000000000003 205.82665116365462,126.60000000000008 202.92665116365458,131.40000000000003 C 195.0266511636546,144.3 194.62665116365457,154.10000000000008 204.7266511636546,168.3 C 212.5266511636546,179.40000000000003 221.5266511636546,189.7 230.12665116365457,200.40000000000003 C 230.42665116365458,200.2 230.92665116365458,200.10000000000008 231.12665116365457,199.7 C 236.82665116365456,188.8 244.92665116365458,179.8 253.12665116365457,170.8 C 254.2266511636546,169.59999999999997 255.02665116365455,167.90000000000003 255.92665116365458,166.50000000000006 L 255.82665116365456,166.60000000000008 C 257.82665116365456,164.7000000000001 260.12665116365457,163.00000000000006 261.9266511636546,161.00000000000006 C 268.82665116365456,153.2000000000001 274.62665116365457,144.7000000000001 276.7266511636546,134.3 C 277.3266511636546,131.40000000000003 277.4266511636546,128.50000000000006 277.8266511636546,124.80000000000001 C 273.1266511636546,125.50000000000006 270.2266511636546,129.3 265.7266511636546,128.40000000000003 C 261.12665116365457,127.50000000000006 258.0266511636546,124.80000000000001 255.0266511636546,121.60000000000008 C 252.0266511636546,118.40000000000003 251.0266511636546,114.50000000000006 250.2266511636546,110.2000000000001 C 255.82665116365462,107.30000000000013 261.3266511636546,105.90000000000015 267.3266511636546,109.00000000000006 C 271.6266511636546,111.30000000000001 274.1266511636546,114.60000000000008 274.5266511636546,119.60000000000008 C 274.6266511636546,121.30000000000013 273.8266511636546,123.7000000000001 276.9266511636546,124.60000000000008 C 278.12665116365457,121.10000000000008 277.32665116365456,117.7000000000001 276.7266511636546,114.40000000000003 C 274.9266511636546,104.50000000000006 270.5266511636546,95.50000000000006 265.5266511636546,86.90000000000003 C 260.7266511636546,78.70000000000005 255.82665116365462,70.70000000000005 251.0266511636546,62.50000000000006 C 246.62665116365463,54.80000000000007 243.2266511636546,46.80000000000007 242.7266511636546,37.80000000000007 C 242.42665116365458,32.10000000000008 242.42665116365458,26.300000000000068 246.12665116365457,21.300000000000068 L 246.02665116365455,21.200000000000045 C 246.12665116365457,22.100000000000023 246.42665116365453,23.100000000000023 246.32665116365456,24.000000000000057 C 244.82665116365456,32.10000000000008 245.92665116365458,39.900000000000034 249.32665116365456,47.30000000000007 C 253.82665116365456,57.200000000000045 260.72665116365454,65.50000000000006 268.02665116365455,75.00000000000006 C 268.12665116365457,66.40000000000003 268.82665116365456,59.00000000000006 273.02665116365455,52.60000000000008 C 277.32665116365456,46.00000000000006 284.02665116365455,43.00000000000006 292.62665116365457,41.2000000000001 C 290.7266511636546,39.500000000000114 289.82665116365456,38.7000000000001 288.9266511636546,38.000000000000114 C 285.32665116365456,35.300000000000125 284.12665116365457,31.800000000000125 284.9266511636546,27.500000000000114 C 286.4266511636546,19.800000000000125 291.12665116365457,14.900000000000091 298.2266511636546,11.600000000000136 C 301.02665116365455,14.70000000000016 304.02665116365455,17.70000000000016 304.52665116365455,22.400000000000148 C 305.3266511636545,29.300000000000125 302.2266511636546,34.600000000000136 295.62665116365457,37.40000000000015 C 294.12665116365457,38.00000000000017 291.7266511636546,37.90000000000015 292.2266511636546,41.100000000000136 C 293.52665116365455,41.40000000000015 294.8266511636546,41.70000000000016 296.2266511636546,42.000000000000114 C 297.52665116365455,42.300000000000125 298.8266511636546,42.500000000000114 300.12665116365457,43.100000000000136 C 298.02665116365455,43.100000000000136 295.8266511636546,43.20000000000016 293.7266511636546,43.100000000000136 C 285.12665116365457,42.600000000000136 274.3266511636546,50.000000000000114 272.3266511636546,61.20000000000016 C 271.3266511636546,66.70000000000016 270.8266511636546,72.20000000000016 272.42665116365464,77.50000000000017 C 273.42665116365464,80.90000000000015 274.92665116365464,84.40000000000015 277.02665116365466,87.30000000000018 C 285.3266511636547,98.90000000000015 290.6266511636547,111.50000000000017 292.02665116365466,125.70000000000022 C 292.42665116365464,130.1000000000002 292.1266511636547,134.6000000000002 292.1266511636547,139.20000000000022 C 295.2266511636547,138.30000000000024 298.42665116365464,136.90000000000026 301.82665116365473,136.40000000000026 C 308.92665116365475,135.40000000000026 316.0266511636548,135.00000000000028 323.1266511636547,134.30000000000024 C 328.42665116365464,133.70000000000022 333.7266511636547,133.1000000000002 338.92665116365464,132.20000000000022 C 340.6266511636547,131.90000000000026 342.2266511636546,130.70000000000022 343.7266511636546,129.70000000000022 C 344.02665116365455,129.50000000000017 343.52665116365455,128.1000000000002 343.42665116365464,127.30000000000024 C 343.42665116365464,127.30000000000024 343.2266511636546,127.50000000000028 343.2266511636546,127.50000000000028 C 345.3266511636546,128.40000000000026 346.8266511636546,127.6000000000003 348.3266511636546,125.90000000000026 C 354.02665116365466,119.70000000000022 357.12665116365457,112.30000000000024 358.42665116365464,104.20000000000022 C 358.92665116365464,101.20000000000022 358.7266511636546,98.00000000000017 358.92665116365464,95.00000000000017 L 358.8266511636546,95.1000000000002 C 359.3266511636546,94.70000000000022 360.2266511636546,94.50000000000017 360.42665116365464,94.00000000000017 C 362.8266511636546,87.70000000000016 364.92665116365464,86.40000000000015 371.42665116365464,86.90000000000015 C 372.2266511636546,87.00000000000017 373.02665116365466,86.90000000000015 373.8266511636546,86.80000000000013 L 373.7266511636546,86.7000000000001 C 376.3266511636546,89.60000000000008 379.7266511636546,92.2000000000001 378.42665116365464,96.80000000000013 C 378.02665116365466,98.30000000000013 377.1266511636547,99.80000000000013 375.7266511636546,100.90000000000015 C 376.12665116365457,99.90000000000015 376.52665116365455,98.80000000000013 376.8266511636546,97.80000000000013 C 378.2266511636546,93.7000000000001 376.3266511636546,90.00000000000017 372.42665116365464,88.7000000000001 C 368.3266511636546,87.40000000000009 364.52665116365466,89.10000000000008 363.3266511636546,93.2000000000001 C 362.42665116365464,96.2000000000001 362.2266511636546,99.40000000000015 361.62665116365457,102.50000000000006 C 360.4266511636545,108.50000000000006 360.12665116365457,115.00000000000006 357.52665116365455,120.2000000000001 C 352.3266511636545,130.50000000000006 344.4266511636545,138.2000000000001 331.8266511636545,139.30000000000013 C 323.02665116365455,140.10000000000008 314.3266511636545,140.90000000000015 305.62665116365446,142.60000000000008 C 301.2266511636545,143.40000000000003 296.9266511636544,145.80000000000013 293.02665116365444,148.10000000000008 C 290.8266511636544,149.40000000000003 288.82665116365445,151.7000000000001 287.82665116365445,154.00000000000006 C 282.7266511636544,165.90000000000003 274.62665116365446,175.8 267.32665116365445,186.3 C 262.32665116365445,193.50000000000006 258.02665116365444,201.2 253.52665116365444,208.7 C 250.9266511636544,213.09999999999997 250.22665116365442,217.99999999999994 250.32665116365445,223.09999999999997 C 250.72665116365442,223.09999999999997 251.12665116365446,223.2 251.22665116365442,223.09999999999997 C 260.52665116365444,212.89999999999992 272.2266511636544,206.39999999999992 285.02665116365444,201.8 C 286.52665116365444,201.2 289.12665116365446,201.59999999999997 288.32665116365445,198.59999999999997 L 288.12665116365446,198.7 C 289.32665116365445,199.2 290.02665116365444,200.2 291.9266511636544,199.8 C 298.22665116365437,198.40000000000003 304.72665116365437,197.7 311.12665116365446,196.7 C 312.02665116365444,196.59999999999997 313.02665116365444,196.7 314.02665116365444,196.8 C 325.02665116365444,198.50000000000006 333.9266511636544,193.90000000000003 341.52665116365444,186.7 C 343.8266511636544,184.49999999999994 344.7266511636545,180.7 346.4266511636544,177.2 C 346.9266511636544,188.3 338.52665116365444,192.7 331.02665116365444,198.59999999999997 C 343.9266511636544,201.39999999999992 355.9266511636544,205.39999999999992 367.9266511636544,210.99999999999994 C 367.52665116365444,209.7999999999999 367.22665116365437,208.49999999999994 366.62665116365446,207.39999999999992 C 363.7266511636545,202.7999999999999 363.62665116365446,198.39999999999992 366.62665116365446,193.99999999999994 C 370.4266511636544,188.39999999999992 374.7266511636545,185.7999999999999 382.4266511636544,184.49999999999994 C 385.8266511636544,189.7999999999999 387.12665116365446,195.2999999999999 383.9266511636544,201.2999999999999 C 381.4266511636544,205.99999999999994 377.4266511636544,208.09999999999985 372.22665116365437,208.49999999999994 C 370.9266511636544,208.59999999999997 369.0266511636543,209.2 368.62665116365434,210.2 C 367.72665116365437,212.2 369.62665116365434,212.90000000000003 371.12665116365434,213.7 C 377.22665116365437,216.7 383.3266511636544,219.8 390.4266511636543,219.59999999999997 C 394.3266511636543,219.49999999999994 398.3266511636543,219.09999999999997 400.3266511636543,215.2 C 402.5266511636543,210.90000000000003 402.12665116365423,206.49999999999994 398.8266511636543,202.59999999999997 C 398.5266511636543,202.2 398.3266511636543,201.8 398.12665116365423,201.39999999999992 C 398.12665116365423,201.2999999999999 398.22665116365425,201.09999999999997 398.72665116365425,200.2999999999999 C 400.4266511636543,202.19999999999987 402.0266511636542,203.89999999999992 403.5266511636542,205.59999999999985 L 403.4266511636542,205.49999999999983 C 404.82665116365416,210.99999999999983 405.62665116365423,216.29999999999978 400.9266511636542,220.8999999999998 C 400.5266511636542,221.29999999999978 400.5266511636542,222.09999999999985 400.12665116365423,223.3999999999998 C 406.12665116365423,223.69999999999976 412.22665116365425,223.3999999999998 416.0266511636542,228.69999999999976 C 417.5266511636542,230.79999999999978 419.12665116365423,233.3999999999998 419.22665116365425,235.79999999999978 C 419.4266511636543,239.29999999999978 418.4266511636543,242.8999999999998 417.8266511636543,246.59999999999974 C 410.5266511636543,246.3999999999997 405.12665116365423,243.99999999999972 400.72665116365425,239.29999999999978 C 396.0266511636542,234.29999999999978 395.5266511636542,228.79999999999978 400.0266511636542,223.29999999999978 C 399.12665116365423,222.8999999999998 398.82665116365416,222.59999999999974 398.62665116365423,222.69999999999976 C 390.22665116365425,226.59999999999974 381.8266511636543,225.69999999999976 373.5266511636542,222.79999999999978 C 366.32665116365416,220.29999999999978 359.12665116365423,217.59999999999974 351.9266511636542,215.29999999999978 C 348.4266511636542,214.19999999999976 344.62665116365423,213.59999999999974 341.12665116365423,212.8999999999998 C 339.8266511636543,215.69999999999976 341.5266511636542,215.99999999999983 342.8266511636543,216.59999999999985 C 346.22665116365425,217.99999999999983 349.4266511636543,219.59999999999985 351.4266511636543,222.99999999999983 C 354.4266511636543,227.99999999999983 354.0266511636543,232.79999999999978 351.12665116365434,237.59999999999985 C 350.12665116365434,239.2999999999999 348.8266511636544,240.7999999999999 347.62665116365434,242.2999999999999 C 340.72665116365437,240.39999999999992 336.8266511636544,235.7999999999999 334.4266511636543,229.59999999999985 C 331.72665116365425,222.7999999999999 335.5266511636543,218.09999999999985 341.12665116365434,213.09999999999985 C 324.0266511636543,210.49999999999983 308.62665116365434,210.19999999999987 293.12665116365434,217.8999999999998 C 296.72665116365437,218.8999999999998 299.62665116365434,219.3999999999998 302.3266511636544,220.3999999999998 C 306.8266511636544,221.99999999999983 310.12665116365434,224.99999999999983 311.3266511636544,229.69999999999976 C 312.12665116365434,232.79999999999978 313.72665116365437,233.3999999999998 316.4266511636544,232.49999999999972 C 325.62665116365446,229.49999999999972 330.52665116365444,234.3999999999997 333.52665116365444,241.69999999999976 C 334.9266511636544,245.09999999999974 335.12665116365446,249.09999999999974 335.9266511636544,252.79999999999978 C 320.9266511636544,257.2999999999998 312.12665116365446,249.49999999999983 314.4266511636544,234.09999999999974 C 312.52665116365444,233.49999999999972 311.12665116365446,232.59999999999974 310.4266511636544,230.09999999999974 C 308.9266511636544,224.69999999999976 304.3266511636544,222.49999999999972 299.12665116365446,221.79999999999978 C 289.82665116365445,220.3999999999998 282.02665116365444,223.09999999999974 274.92665116365447,229.59999999999974 C 266.0266511636545,237.79999999999978 261.62665116365446,247.69999999999976 261.0266511636545,259.4999999999997 C 260.92665116365447,262.3999999999997 261.42665116365447,265.4999999999997 262.2266511636545,268.29999999999967 C 269.5266511636545,293.79999999999967 271.92665116365447,319.8999999999997 270.3266511636545,346.29999999999967 C 269.7266511636545,356.8999999999997 267.5266511636545,367.3999999999997 266.1266511636545,377.8999999999997 C 265.8266511636545,380.29999999999967 265.5266511636545,382.69999999999965 265.22665116365454,385.3999999999997 C 272.72665116365454,386.79999999999967 279.02665116365455,389.3999999999997 285.1266511636545,392.8999999999997 C 291.12665116365446,396.29999999999967 297.62665116365446,395.29999999999967 303.8266511636545,392.3999999999997 C 306.9266511636545,390.8999999999997 310.02665116365455,389.09999999999974 313.2266511636545,387.8999999999997 C 319.4266511636545,385.4999999999997 325.7266511636545,387.8999999999997 329.12665116365446,393.4999999999997 C 329.4266511636544,393.9999999999997 329.52665116365444,394.69999999999976 329.4266511636544,395.3999999999997 C 326.22665116365437,390.4999999999997 321.9266511636544,387.69999999999965 316.02665116365444,388.8999999999997 C 313.62665116365446,389.3999999999997 311.4266511636544,390.59999999999974 309.2266511636545,391.79999999999967 C 300.8266511636545,396.69999999999965 298.9266511636545,397.29999999999967 289.7266511636545,397.9999999999997 C 293.2266511636545,402.79999999999967 295.8266511636545,408.09999999999974 301.12665116365446,411.09999999999974 C 308.02665116365444,414.9999999999997 315.12665116365446,416.2999999999998 322.52665116365444,412.59999999999974 C 331.52665116365444,408.19999999999976 341.02665116365444,407.3999999999997 350.7266511636545,408.8999999999997 C 355.52665116365444,409.59999999999974 360.12665116365446,411.4999999999997 363.8266511636545,414.69999999999965 C 369.2266511636545,419.29999999999967 374.2266511636545,424.19999999999965 379.4266511636545,428.9999999999996 C 379.2266511636545,429.29999999999956 378.9266511636545,429.5999999999996 378.7266511636545,429.8999999999996 C 377.52665116365444,428.8999999999996 376.2266511636545,427.9999999999996 375.12665116365446,426.9999999999996 C 372.52665116365444,424.5999999999996 370.02665116365444,422.19999999999965 367.4266511636544,419.8999999999996 C 356.52665116365444,409.9999999999996 344.02665116365444,410.0999999999996 330.9266511636544,413.9999999999996 C 330.02665116365444,414.29999999999956 329.22665116365437,414.79999999999956 328.3266511636544,415.79999999999956 C 336.22665116365437,414.69999999999953 342.02665116365444,417.29999999999956 345.02665116365444,424.8999999999996 C 344.62665116365446,424.4999999999996 344.02665116365444,424.19999999999953 343.7266511636545,423.79999999999956 C 339.3266511636545,416.9999999999996 332.8266511636545,416.9999999999996 326.02665116365444,418.29999999999956 C 323.2266511636545,418.79999999999956 320.52665116365444,419.4999999999996 317.7266511636545,420.0999999999995 C 305.52665116365444,422.39999999999947 295.52665116365444,418.69999999999953 287.5266511636545,409.19999999999953 C 285.8266511636545,407.0999999999995 284.1266511636545,405.0999999999995 282.2266511636545,403.19999999999953 C 275.92665116365447,396.8999999999996 268.42665116365447,395.19999999999953 259.5266511636545,397.0999999999995 C 259.5266511636545,398.5999999999995 259.1266511636545,399.9999999999995 259.6266511636545,401.0999999999995 C 262.8266511636545,409.69999999999953 267.4266511636545,416.89999999999947 276.8266511636545,419.89999999999947 C 279.2266511636545,420.5999999999995 281.6266511636545,421.29999999999944 284.0266511636545,421.89999999999947 C 291.3266511636545,423.79999999999944 296.12665116365446,428.4999999999995 299.2266511636545,435.29999999999944 C 299.3266511636545,435.4999999999995 299.4266511636545,435.5999999999994 299.4266511636545,435.79999999999944 C 302.52665116365455,446.9999999999995 309.2266511636545,454.39999999999947 321.02665116365455,456.79999999999944 C 313.3266511636545,456.0999999999994 306.52665116365455,453.39999999999947 301.8266511636545,447.0999999999994 C 300.12665116365446,444.89999999999935 298.7266511636545,442.39999999999935 297.52665116365455,439.79999999999944 C 293.7266511636546,431.89999999999947 287.82665116365456,427.39999999999947 278.22665116365454,427.79999999999944 C 281.52665116365455,432.1999999999994 281.72665116365454,436.89999999999947 281.02665116365455,441.9999999999995 C 280.62665116365457,445.0999999999995 281.62665116365457,448.39999999999947 281.32665116365456,451.79999999999944 C 280.72665116365454,449.4999999999995 280.02665116365455,447.1999999999994 279.72665116365454,444.89999999999947 C 279.4266511636545,443.29999999999944 279.6266511636545,441.5999999999995 279.6266511636545,439.89999999999947 C 279.6266511636545,431.4999999999995 277.9266511636545,429.29999999999944 270.3266511636545,425.9999999999995 C 265.4266511636545,423.89999999999947 260.7266511636545,421.0999999999995 256.2266511636545,418.79999999999944 C 260.62665116365446,423.9999999999995 260.3266511636545,430.39999999999947 258.8266511636545,436.9999999999995 C 258.2266511636545,439.5999999999995 257.4266511636545,442.0999999999995 256.9266511636545,444.69999999999953 C 256.1266511636545,449.19999999999953 256.02665116365455,453.5999999999995 259.6266511636545,457.29999999999956 C 256.0266511636545,455.69999999999953 254.0266511636545,452.8999999999996 253.62665116365451,449.19999999999953 C 253.3266511636545,446.19999999999953 253.3266511636545,443.19999999999953 253.3266511636545,440.19999999999953 C 253.3266511636545,437.8999999999996 253.62665116365451,435.4999999999995 253.42665116365453,433.19999999999953 C 253.12665116365451,426.8999999999996 251.42665116365453,424.69999999999953 245.42665116365453,422.79999999999956 C 243.22665116365454,422.0999999999995 241.02665116365455,421.4999999999996 238.3266511636545,420.69999999999953 C 239.62665116365451,426.29999999999956 246.12665116365451,430.0999999999995 242.0266511636545,436.4999999999995 C 242.8266511636545,431.89999999999947 240.0266511636545,429.0999999999995 237.5266511636545,425.89999999999947 C 234.5266511636545,421.9999999999995 231.5266511636545,418.0999999999995 228.0266511636545,414.4999999999995 C 225.12665116365451,411.5999999999995 223.8266511636545,407.19999999999953 222.3266511636545,404.4999999999995 C 218.62665116365451,407.69999999999953 214.12665116365451,411.19999999999953 210.22665116365448,415.29999999999944 C 206.12665116365446,419.39999999999947 205.72665116365448,426.4999999999995 208.72665116365448,432.0999999999994 C 209.62665116365446,433.6999999999994 210.72665116365448,435.1999999999994 211.62665116365446,436.6999999999994 C 213.62665116365446,440.1999999999994 213.72665116365448,441.4999999999994 211.42665116365447,446.4999999999994 C 212.32665116365445,441.0999999999994 210.5266511636545,437.5999999999994 207.92665116365447,434.1999999999994 C 204.22665116365448,429.29999999999944 203.72665116365448,423.4999999999994 205.5266511636545,416.89999999999947 C 201.0266511636545,417.79999999999944 196.72665116365448,418.1999999999994 192.92665116365447,419.5999999999995 C 190.5266511636545,420.4999999999995 188.22665116365448,422.79999999999956 186.82665116365445,424.9999999999995 C 184.32665116365445,428.89999999999947 182.82665116365445,433.39999999999947 180.52665116365444,437.39999999999947 C 178.82665116365445,440.39999999999947 176.9266511636544,443.39999999999947 174.82665116365445,446.0999999999995 C 173.02665116365444,448.39999999999947 170.42665116365447,449.39999999999947 166.22665116365442,448.19999999999953 C 172.52665116365444,447.8999999999996 175.32665116365445,444.4999999999995 177.1266511636544,440.19999999999953 C 178.9266511636544,435.8999999999996 180.4266511636544,431.4999999999995 181.6266511636544,426.9999999999995 C 183.8266511636544,419.0999999999995 188.6266511636544,413.9999999999995 196.52665116365438,411.79999999999944 C 198.42665116365436,411.29999999999944 200.3266511636544,410.4999999999995 202.1266511636544,409.6999999999994 C 206.22665116365442,407.5999999999994 208.02665116365438,404.39999999999947 208.3266511636544,398.9999999999994 C 207.52665116365438,399.5999999999994 206.8266511636544,400.0999999999994 206.3266511636544,400.6999999999994 C 200.1266511636544,408.9999999999994 191.52665116365438,412.89999999999947 181.52665116365438,413.6999999999994 C 174.8266511636544,414.1999999999994 170.6266511636544,417.4999999999994 167.6266511636544,423.29999999999944 C 162.8266511636544,432.39999999999947 153.6266511636544,436.6999999999994 143.8266511636544,435.4999999999995 C 146.9266511636544,434.69999999999953 150.6266511636544,433.9999999999995 154.22665116365437,432.89999999999947 C 159.12665116365434,431.4999999999995 162.62665116365434,428.39999999999947 164.62665116365434,423.6999999999994 C 165.12665116365434,422.4999999999994 165.82665116365433,421.29999999999944 166.22665116365437,420.0999999999994 C 168.12665116365434,414.79999999999944 171.8266511636544,411.5999999999994 177.12665116365434,409.89999999999935 C 180.32665116365433,408.89999999999935 183.52665116365432,407.9999999999994 186.62665116365434,406.79999999999933 C 192.42665116365436,404.5999999999993 196.72665116365437,400.6999999999993 198.92665116365436,394.1999999999993 C 190.82665116365433,392.89999999999935 184.12665116365434,395.0999999999993 178.62665116365434,400.39999999999935 C 175.52665116365432,403.39999999999935 172.62665116365434,406.6999999999993 170.12665116365434,410.1999999999993 C 162.02665116365432,421.6999999999993 150.82665116365433,425.5999999999993 137.42665116365436,423.6999999999993 C 131.42665116365436,422.79999999999933 125.72665116365437,422.29999999999933 120.02665116365438,424.99999999999926 C 119.92665116365436,424.6999999999993 119.82665116365439,424.2999999999992 119.72665116365437,423.99999999999926 C 121.52665116365438,423.0999999999993 123.32665116365439,422.1999999999993 125.52665116365438,421.0999999999993 C 114.52665116365438,417.29999999999933 104.1266511636544,412.79999999999933 93.1266511636544,420.79999999999933 C 88.6266511636544,424.0999999999993 83.6266511636544,426.89999999999935 77.32665116365439,425.29999999999933 C 83.82665116365439,425.1999999999993 88.72665116365437,421.6999999999993 93.52665116365438,417.9999999999994 C 100.92665116365436,412.29999999999933 109.1266511636544,412.1999999999994 117.72665116365437,414.39999999999935 C 124.02665116365438,415.9999999999994 130.3266511636544,417.39999999999935 136.72665116365437,418.39999999999935 C 147.12665116365434,419.9999999999994 155.8266511636544,416.89999999999935 161.8266511636544,407.89999999999935 C 163.52665116365438,405.29999999999933 165.22665116365437,402.5999999999994 167.3266511636544,399.39999999999935 C 164.1266511636544,400.0999999999994 161.4266511636544,400.4999999999994 158.9266511636544,401.1999999999993 C 154.4266511636544,402.39999999999935 150.02665116365444,401.5999999999993 145.72665116365442,400.0999999999993 C 144.02665116365444,399.49999999999926 142.22665116365442,399.0999999999993 140.4266511636544,398.5999999999993 C 136.52665116365444,397.49999999999926 133.02665116365444,397.79999999999933 129.52665116365444,400.1999999999993 C 126.52665116365444,402.29999999999933 123.22665116365442,404.0999999999993 119.42665116365441,401.49999999999926 C 123.6266511636544,401.89999999999924 127.22665116365442,400.39999999999924 130.4266511636544,397.89999999999924 C 133.02665116365444,395.7999999999992 136.3266511636544,395.7999999999992 139.52665116365444,396.2999999999992 C 141.02665116365444,396.49999999999926 142.52665116365444,396.6999999999992 143.9266511636544,397.1999999999992 C 155.22665116365442,401.49999999999915 164.8266511636544,397.1999999999992 173.9266511636544,391.1999999999992 C 178.9266511636544,387.89999999999924 183.8266511636544,384.59999999999917 189.6266511636544,382.6999999999992 C 191.22665116365442,382.1999999999992 192.3266511636544,381.39999999999924 192.8266511636544,379.39999999999924 C 195.8266511636544,366.7999999999992 199.3266511636544,354.39999999999924 202.1266511636544,341.6999999999992 C 206.3266511636544,323.09999999999917 207.3266511636544,304.1999999999992 206.6266511636544,285.09999999999917 C 206.52665116365438,281.59999999999917 205.22665116365442,278.6999999999992 202.6266511636544,276.2999999999992 C 195.02665116365438,268.99999999999926 185.6266511636544,265.49999999999926 175.72665116365442,262.99999999999926 C 164.6266511636544,260.1999999999993 153.6266511636544,261.0999999999993 142.82665116365445,264.39999999999924 C 130.72665116365442,268.1999999999992 118.32665116365445,270.6999999999992 105.52665116365444,269.89999999999924 C 93.92665116365441,269.1999999999992 82.82665116365445,266.6999999999992 73.82665116365445,258.89999999999924 C 70.82665116365445,256.2999999999992 68.42665116365447,253.09999999999928 65.92665116365447,249.99999999999926 C 65.02665116365449,248.89999999999924 64.52665116365449,247.29999999999922 62.52665116365449,247.79999999999922 L 62.72665116365448,247.99999999999926 C 64.72665116365448,246.49999999999926 63.12665116365446,244.89999999999924 62.62665116365446,243.49999999999926 C 60.82665116365445,237.99999999999926 60.32665116365445,232.59999999999928 61.62665116365446,226.79999999999922 C 63.92665116365447,216.89999999999924 73.92665116365447,212.1999999999992 82.92665116365447,217.1999999999992 C 80.92665116365447,217.09999999999917 79.72665116365448,216.99999999999915 78.52665116365449,216.99999999999915 C 71.12665116365451,216.6999999999992 66.12665116365451,221.1999999999992 65.52665116365449,228.49999999999915 C 64.62665116365451,240.49999999999915 71.8266511636545,250.89999999999912 84.42665116365447,256.09999999999917 C 93.32665116365445,259.7999999999992 102.62665116365446,259.7999999999992 111.92665116365447,258.59999999999917 C 118.12665116365446,257.7999999999992 124.12665116365446,255.59999999999917 130.22665116365448,253.89999999999912 C 130.92665116365447,253.69999999999908 131.62665116365446,253.19999999999908 132.5266511636545,252.69999999999908 C 121.42665116365447,247.49999999999903 116.62665116365451,237.2999999999991 119.52665116365449,225.59999999999906 C 119.62665116365451,225.09999999999906 119.52665116365449,224.59999999999906 119.52665116365449,224.09999999999906 L 118.82665116365456,224.3 M 241.02665116365455,402.6000000000001 C 236.52665116365455,407.6000000000001 236.82665116365456,409.8000000000001 241.92665116365453,412.2000000000001 C 245.72665116365454,414.00000000000006 249.72665116365454,415.40000000000015 253.62665116365451,417.00000000000006 C 253.8266511636545,416.8 254.0266511636545,416.50000000000006 254.22665116365454,416.3 C 249.82665116365456,411.6000000000001 245.42665116365453,407.1000000000001 241.02665116365455,402.6000000000001 M 61.926651163654526,247.8 C 61.926651163654526,256.59999999999997 59.02665116365455,260.50000000000006 50.72665116365454,263.09999999999997 C 42.426651163654526,265.7 34.426651163654526,265.09999999999997 26.52665116365455,260.8999999999999 C 27.126651163654543,259.1999999999999 27.82665116365456,257.49999999999994 28.426651163654554,255.89999999999992 C 32.82665116365456,243.7999999999999 49.22665116365454,240.89999999999992 57.22665116365454,246.19999999999987 C 58.626651163654515,247.09999999999985 60.52665116365455,247.49999999999983 62.126651163654515,248.09999999999985 L 61.926651163654526,247.8 M 255.82665116365456,167.2000000000001 C 254.92665116365458,166.60000000000008 253.92665116365458,165.50000000000006 253.02665116365455,165.60000000000008 C 245.12665116365457,166.60000000000008 240.92665116365453,161.80000000000013 238.32665116365456,155.50000000000006 C 235.12665116365457,147.90000000000003 234.92665116365458,140.00000000000006 238.62665116365457,132.40000000000003 C 240.52665116365455,132.90000000000003 242.42665116365458,133.50000000000006 244.42665116365458,133.90000000000003 C 254.0266511636546,136.00000000000006 263.0266511636546,149.90000000000003 256.2266511636546,160.90000000000003 C 254.7266511636546,163.3 255.7266511636546,165.2 255.7266511636546,167.3 L 255.82665116365456,167.2000000000001 M 287.82665116365456,199.10000000000008 C 279.62665116365457,193.90000000000003 277.82665116365456,188.7000000000001 280.82665116365456,179.40000000000003 C 283.32665116365456,171.50000000000006 285.22665116365454,169.00000000000006 293.2266511636546,163.00000000000006 C 299.92665116365464,168.8 303.52665116365455,175.7000000000001 301.02665116365455,184.90000000000003 C 299.7266511636546,189.60000000000008 297.12665116365457,193.2 292.9266511636545,195.7 C 291.12665116365457,196.8 289.4266511636545,198.09999999999997 287.6266511636545,199.3 L 287.82665116365456,199.10000000000008 M 321.8266511636545,87.60000000000008 C 320.4266511636545,103.50000000000006 302.52665116365455,113.10000000000008 288.2266511636545,102.7000000000001 C 286.42665116365447,95.40000000000015 290.9266511636545,90.60000000000008 296.52665116365444,88.10000000000008 C 304.8266511636545,84.40000000000003 313.12665116365457,83.80000000000007 321.8266511636545,87.60000000000008 M 94.22665116365454,144.60000000000008 C 94.02665116365455,137.80000000000013 96.42665116365453,133.60000000000008 102.72665116365454,131.2000000000001 C 111.62665116365451,127.7000000000001 120.52665116365455,127.80000000000013 129.02665116365455,132.40000000000015 C 126.52665116365455,147.7000000000001 108.72665116365454,156.3 94.22665116365454,144.60000000000008 M 148.02665116365455,243.40000000000003 C 141.12665116365457,242.8 137.62665116365457,239.8 136.02665116365455,233.10000000000008 C 134.32665116365456,225.80000000000013 135.42665116365453,219.00000000000006 139.22665116365454,212.50000000000006 C 140.02665116365455,211.10000000000008 140.92665116365453,209.7000000000001 141.72665116365454,208.3 C 159.52665116365455,215.2000000000001 160.82665116365456,234.7000000000001 148.02665116365455,243.40000000000003 M 21.32665116365456,141.2000000000001 C 20.726651163654566,141.50000000000006 20.12665116365457,141.7000000000001 18.926651163654554,142.30000000000013 C 21.82665116365456,148.50000000000017 21.82665116365456,154.60000000000008 16.426651163654554,159.80000000000013 C 12.526651163654549,163.50000000000017 7.9266511636545545,164.50000000000017 0.5266511636545488,163.30000000000013 C -0.8733488363454569,156.10000000000008 0.42665116365455447,149.50000000000017 5.526651163654549,144.00000000000017 C 8.626651163654543,140.6000000000002 12.426651163654554,138.90000000000015 17.126651163654543,140.70000000000022 C 18.426651163654554,141.20000000000022 20.02665116365455,141.1000000000002 21.52665116365455,141.30000000000024 L 21.32665116365456,141.2000000000001 M 358.4266511636545,95.7000000000001 C 357.02665116365455,96.10000000000008 355.52665116365455,96.30000000000013 354.2266511636545,96.90000000000015 C 349.4266511636545,99.00000000000017 345.3266511636545,97.6000000000002 341.9266511636545,94.30000000000013 C 336.7266511636545,89.30000000000013 334.62665116365457,83.10000000000014 335.52665116365455,75.60000000000014 C 340.4266511636545,75.00000000000011 345.2266511636546,74.00000000000011 349.7266511636546,76.60000000000014 C 355.7266511636546,80.00000000000011 358.12665116365457,85.10000000000014 356.7266511636546,92.1000000000002 C 356.3266511636546,94.1000000000002 356.2266511636546,95.30000000000024 358.42665116365464,95.70000000000022 C 358.3266511636545,95.7000000000001 358.4266511636545,95.7000000000001 358.4266511636545,95.7000000000001 M 403.02665116365455,206.10000000000008 C 403.62665116365457,205.40000000000003 404.3266511636545,204.60000000000008 405.12665116365457,203.60000000000008 C 401.62665116365457,198.50000000000006 399.3266511636546,193.30000000000013 402.52665116365455,187.00000000000006 C 405.62665116365457,180.90000000000003 411.12665116365457,179.3 417.12665116365457,178.3 C 420.4266511636545,184.40000000000003 421.12665116365457,190.7 418.52665116365455,197.09999999999997 C 416.52665116365455,201.99999999999994 413.02665116365455,204.8 407.52665116365455,204.8 C 406.02665116365455,204.8 404.4266511636545,205.50000000000006 402.9266511636545,205.90000000000003 L 403.02665116365455,206.10000000000008 M 311.3266511636545,194.50000000000006 C 305.9266511636545,191.10000000000008 305.8266511636545,183.90000000000003 309.2266511636545,178.60000000000008 C 312.62665116365446,173.30000000000013 317.3266511636545,170.00000000000006 323.52665116365444,168.7000000000001 C 327.02665116365444,174.00000000000006 329.52665116365444,179.30000000000013 326.4266511636544,185.90000000000015 C 323.4266511636545,192.3 317.7266511636546,193.40000000000003 311.3266511636545,194.50000000000006 M 196.02665116365455,22.10000000000008 C 196.42665116365453,20.300000000000068 196.62665116365457,18.40000000000009 197.32665116365456,16.800000000000068 C 199.32665116365456,12.400000000000091 203.22665116365454,10.700000000000045 207.72665116365454,10.200000000000045 C 214.12665116365451,9.500000000000057 219.82665116365456,11.200000000000045 224.82665116365456,15.400000000000034 C 222.42665116365458,25.30000000000001 215.12665116365457,28.500000000000057 208.52665116365455,28.200000000000045 C 205.12665116365457,28.000000000000057 202.62665116365457,26.400000000000034 200.12665116365457,24.500000000000057 C 198.82665116365456,23.500000000000057 197.42665116365458,22.800000000000068 196.02665116365455,22.000000000000057 C 195.82665116365456,21.900000000000034 196.02665116365455,22.10000000000008 196.02665116365455,22.10000000000008 M 242.32665116365456,51.900000000000034 C 236.22665116365454,56.50000000000006 231.02665116365455,56.400000000000034 225.02665116365455,51.30000000000001 C 220.52665116365455,47.5 218.22665116365454,42.60000000000002 217.52665116365455,36.80000000000001 C 223.32665116365456,33.900000000000034 228.92665116365453,32.69999999999999 235.02665116365455,36.0 C 241.22665116365454,39.50000000000006 242.02665116365455,45.400000000000034 242.32665116365456,51.900000000000034 M 201.22665116365454,113.90000000000003 C 199.82665116365456,113.80000000000001 198.32665116365456,113.50000000000006 197.02665116365455,113.69999999999999 C 192.12665116365457,114.59999999999997 188.42665116365453,112.69999999999999 185.92665116365453,108.80000000000001 C 182.72665116365454,103.80000000000001 180.92665116365453,98.30000000000001 182.92665116365453,92.30000000000001 C 183.22665116365454,91.40000000000003 183.22665116365454,90.40000000000003 183.42665116365453,89.19999999999999 C 188.92665116365453,88.59999999999997 193.92665116365453,89.5 197.8266511636545,93.40000000000003 C 202.12665116365451,97.80000000000001 203.5266511636545,103.10000000000008 200.72665116365448,108.90000000000003 C 199.8266511636545,110.80000000000001 198.8266511636545,112.40000000000003 201.12665116365446,114.00000000000006 L 201.22665116365454,113.90000000000003 M 342.9266511636545,128.00000000000006 C 336.02665116365455,129.90000000000003 331.4266511636545,127.90000000000003 328.2266511636545,121.50000000000006 C 325.4266511636545,115.90000000000003 325.12665116365446,110.10000000000008 327.52665116365444,104.00000000000006 C 334.02665116365444,103.60000000000008 339.62665116365446,105.00000000000006 343.52665116365444,110.80000000000001 C 346.12665116365446,114.69999999999999 346.7266511636545,118.69999999999999 344.8266511636544,123.09999999999997 C 344.12665116365434,124.80000000000001 343.4266511636544,126.49999999999994 342.72665116365437,128.09999999999997 L 342.9266511636545,128.00000000000006 M 27.02665116365455,154.50000000000006 C 32.22665116365454,149.7000000000001 38.22665116365454,148.40000000000003 44.72665116365454,149.00000000000006 C 51.22665116365454,149.60000000000008 54.626651163654515,153.2000000000001 55.426651163654526,160.10000000000008 C 50.72665116365454,164.7000000000001 45.8266511636545,168.60000000000008 38.72665116365454,166.50000000000006 C 32.926651163654554,164.90000000000003 30.32665116365456,163.00000000000006 27.02665116365455,154.50000000000006 M 385.8266511636545,133.60000000000008 C 379.7266511636545,137.10000000000008 373.7266511636545,138.00000000000006 367.3266511636545,135.90000000000003 C 365.4266511636545,135.3 363.52665116365455,134.40000000000003 362.02665116365455,133.2 C 356.7266511636546,128.99999999999994 357.12665116365457,124.09999999999997 362.9266511636545,120.59999999999997 C 370.9266511636545,115.80000000000001 380.9266511636545,119.30000000000001 384.12665116365457,128.09999999999997 C 384.7266511636546,129.90000000000003 385.2266511636546,131.60000000000008 385.8266511636545,133.60000000000008 M 132.42665116365453,46.900000000000034 C 123.02665116365455,33.00000000000006 125.92665116365453,25.200000000000045 142.22665116365454,20.200000000000045 C 146.62665116365451,26.900000000000034 147.32665116365456,33.900000000000034 143.82665116365456,41.200000000000045 C 141.82665116365456,45.60000000000008 138.62665116365457,47.00000000000006 132.42665116365453,46.900000000000034 M 65.32665116365456,290.00000000000006 C 61.52665116365455,283.90000000000003 60.92665116365458,277.8 63.12665116365457,271.6000000000001 C 63.82665116365456,269.6000000000001 64.92665116365458,267.6000000000001 66.42665116365458,266.2000000000001 C 70.12665116365457,262.90000000000015 74.7266511636546,261.00000000000006 78.62665116365457,267.6000000000001 C 82.92665116365458,275.1000000000001 80.2266511636546,284.6000000000001 72.32665116365456,287.90000000000003 C 70.12665116365457,288.8 67.82665116365456,289.3 65.32665116365456,290.00000000000006 M 74.02665116365455,125.90000000000003 C 72.92665116365453,124.69999999999999 72.02665116365455,123.40000000000003 70.72665116365454,122.40000000000003 C 63.02665116365455,116.00000000000006 65.72665116365454,105.00000000000006 71.82665116365456,100.90000000000003 C 73.62665116365457,99.69999999999999 75.42665116365458,98.60000000000008 77.12665116365457,97.60000000000008 C 81.92665116365458,101.7000000000001 84.12665116365457,106.7000000000001 84.7266511636546,112.50000000000006 C 85.5266511636546,120.30000000000001 81.62665116365457,125.00000000000006 73.82665116365462,125.80000000000001 L 74.02665116365455,125.90000000000003 M 379.62665116365457,227.7000000000001 C 385.4266511636545,232.30000000000013 386.3266511636546,236.40000000000015 383.3266511636546,242.60000000000008 C 380.42665116365464,248.50000000000006 375.8266511636546,252.2000000000001 369.52665116365466,254.30000000000013 C 365.52665116365466,249.30000000000013 363.3266511636546,244.00000000000017 365.52665116365466,237.40000000000015 C 367.7266511636546,230.40000000000003 373.62665116365457,229.2000000000001 379.62665116365457,227.7000000000001 M 118.92665116365453,224.2000000000001 C 117.62665116365451,222.10000000000008 116.22665116365454,222.60000000000008 114.42665116365453,223.7000000000001 C 109.72665116365454,226.60000000000008 104.62665116365451,226.50000000000006 99.72665116365454,224.10000000000008 C 94.92665116365453,221.80000000000013 92.72665116365454,217.7000000000001 92.12665116365451,212.60000000000008 C 91.92665116365453,210.50000000000006 92.62665116365451,209.2000000000001 94.72665116365454,208.50000000000006 C 101.62665116365451,206.00000000000006 108.12665116365451,207.10000000000008 114.22665116365454,210.90000000000003 C 116.92665116365453,212.60000000000008 118.22665116365454,215.2 118.22665116365454,218.50000000000006 C 118.22665116365454,220.40000000000003 118.62665116365451,222.40000000000003 118.82665116365456,224.3 C 118.82665116365456,224.3 118.92665116365453,224.2000000000001 118.92665116365453,224.2000000000001 M 300.52665116365455,71.70000000000005 C 293.62665116365457,72.70000000000005 287.62665116365457,72.20000000000005 283.12665116365457,66.50000000000006 C 279.82665116365456,62.30000000000007 278.7266511636546,54.700000000000045 281.82665116365456,50.700000000000045 C 282.9266511636546,49.200000000000045 285.9266511636546,48.60000000000002 288.02665116365455,48.60000000000002 C 291.4266511636545,48.60000000000002 294.3266511636545,50.400000000000034 296.4266511636545,53.200000000000045 C 300.52665116365455,58.60000000000008 301.9266511636545,64.60000000000008 300.52665116365455,71.70000000000005 M 134.52665116365455,150.8 C 137.02665116365455,157.40000000000003 135.72665116365454,163.2 132.32665116365456,168.59999999999997 C 128.72665116365454,174.39999999999992 124.12665116365457,175.89999999999992 117.72665116365454,173.49999999999994 C 115.52665116365455,167.7999999999999 113.82665116365456,162.2 118.02665116365455,156.59999999999997 C 122.32665116365456,151.00000000000006 128.12665116365457,150.40000000000003 134.52665116365455,150.8 M 175.72665116365454,84.20000000000005 C 177.12665116365451,91.30000000000001 175.42665116365453,97.30000000000001 170.92665116365453,102.50000000000006 C 167.52665116365455,106.40000000000003 162.92665116365453,107.80000000000001 158.92665116365453,106.2000000000001 C 157.3266511636545,105.60000000000008 156.62665116365451,104.60000000000008 155.92665116365453,102.80000000000013 C 151.32665116365456,90.60000000000008 163.52665116365455,80.10000000000008 175.72665116365454,84.20000000000005 M 99.02665116365455,45.200000000000045 C 102.82665116365456,43.200000000000045 106.42665116365453,41.80000000000007 110.52665116365455,42.00000000000006 C 118.82665116365456,42.50000000000006 125.32665116365456,50.200000000000045 124.12665116365457,58.400000000000034 C 123.92665116365458,59.400000000000034 123.12665116365457,60.50000000000006 122.32665116365456,61.10000000000002 C 118.62665116365457,63.900000000000034 114.52665116365455,63.700000000000045 110.62665116365457,61.60000000000002 C 105.32665116365456,58.700000000000045 101.52665116365455,54.60000000000002 100.02665116365455,48.5 C 99.82665116365456,47.50000000000006 99.42665116365453,46.60000000000008 99.02665116365455,45.200000000000045 M 69.52665116365455,161.3 C 78.12665116365457,161.50000000000006 81.72665116365454,169.00000000000006 79.42665116365453,178.7 C 78.52665116365455,182.59999999999997 75.92665116365453,185.99999999999994 74.12665116365451,189.49999999999994 C 59.72665116365454,184.50000000000006 57.02665116365455,169.2000000000001 69.52665116365455,161.3 M 376.3266511636545,170.50000000000006 C 373.62665116365446,178.50000000000006 368.4266511636545,183.3 360.62665116365446,185.40000000000003 C 359.3266511636545,185.7 357.9266511636544,185.90000000000003 356.7266511636545,185.7 C 350.52665116365444,184.8 348.4266511636545,181.3 350.4266511636545,175.40000000000003 C 353.12665116365457,167.50000000000006 362.02665116365455,163.50000000000006 369.8266511636545,166.90000000000003 C 372.12665116365457,167.8 374.12665116365457,169.3 376.3266511636545,170.50000000000006 M 8.526651163654549,108.30000000000001 C 14.926651163654554,108.50000000000006 20.726651163654537,109.59999999999997 24.626651163654543,115.40000000000003 C 28.726651163654537,121.50000000000006 26.126651163654543,127.00000000000006 23.726651163654537,132.7 C 12.626651163654543,134.3 4.826651163654532,125.30000000000001 7.126651163654543,112.99999999999994 C 7.526651163654549,111.40000000000003 8.126651163654543,109.80000000000001 8.526651163654549,108.30000000000001 M 245.62665116365457,119.2000000000001 C 240.42665116365458,124.30000000000013 234.12665116365457,125.90000000000015 227.2266511636546,125.00000000000006 C 225.0266511636546,124.7000000000001 222.62665116365457,123.90000000000003 220.82665116365462,122.60000000000008 C 216.0266511636546,119.30000000000013 215.92665116365464,115.30000000000013 220.12665116365463,111.30000000000013 C 227.42665116365464,104.60000000000008 238.0266511636546,106.10000000000008 243.0266511636546,114.60000000000008 C 244.12665116365457,116.10000000000008 244.92665116365453,117.80000000000001 245.62665116365457,119.2000000000001 M 403.62665116365457,116.60000000000008 C 394.52665116365455,120.60000000000008 388.7266511636546,119.2000000000001 383.2266511636546,113.7000000000001 C 379.52665116365455,110.00000000000006 379.52665116365455,105.2000000000001 380.3266511636546,100.7000000000001 C 380.62665116365457,99.2000000000001 383.62665116365457,97.7000000000001 385.7266511636546,97.2000000000001 C 389.7266511636546,96.30000000000013 393.12665116365457,98.10000000000008 396.12665116365457,100.7000000000001 C 400.3266511636545,104.40000000000003 402.02665116365455,108.10000000000008 403.62665116365457,116.60000000000008 M 53.62665116365457,93.7000000000001 C 63.62665116365457,106.10000000000008 60.726651163654594,115.00000000000006 44.92665116365458,120.60000000000008 C 38.62665116365457,118.00000000000006 37.82665116365456,111.10000000000008 40.226651163654594,105.90000000000003 C 42.82665116365456,100.00000000000006 47.22665116365454,95.90000000000003 53.62665116365457,93.7000000000001 M 246.02665116365455,22.000000000000057 C 245.92665116365453,21.10000000000008 245.92665116365453,20.000000000000057 245.62665116365457,19.200000000000045 C 243.2266511636546,13.300000000000068 244.12665116365457,9.200000000000045 248.92665116365458,5.100000000000023 C 254.0266511636546,0.8000000000000114 259.7266511636546,-0.8999999999999773 266.7266511636546,0.0 C 266.7266511636546,4.0 267.5266511636546,8.100000000000023 266.5266511636546,11.699999999999989 C 264.8266511636546,18.099999999999966 258.8266511636546,21.30000000000001 251.32665116365462,20.899999999999977 C 249.42665116365464,20.799999999999955 247.42665116365464,19.799999999999955 245.92665116365464,21.899999999999977 L 246.02665116365455,22.000000000000057 M 302.3266511636545,42.60000000000008 C 304.02665116365455,36.90000000000009 310.7266511636545,34.90000000000009 316.2266511636545,36.50000000000006 C 322.8266511636545,38.50000000000006 327.62665116365446,42.30000000000007 330.7266511636545,48.50000000000006 C 322.8266511636545,58.30000000000007 306.8266511636545,58.50000000000006 302.3266511636545,42.60000000000008 M 336.02665116365455,141.40000000000003 C 342.8266511636545,140.7 347.12665116365457,143.60000000000008 348.9266511636545,150.40000000000003 C 350.52665116365455,156.8 350.2266511636545,159.50000000000006 346.3266511636545,167.8 C 340.12665116365446,166.7 334.7266511636545,164.59999999999997 331.9266511636545,158.3 C 329.12665116365457,151.7000000000001 331.9266511636545,146.50000000000006 336.02665116365455,141.40000000000003 M 93.82665116365456,91.40000000000003 C 78.42665116365458,98.80000000000001 70.22665116365454,95.00000000000006 67.62665116365457,79.40000000000003 C 73.52665116365455,76.30000000000001 79.7266511636546,76.00000000000006 85.92665116365458,78.10000000000002 C 92.32665116365456,80.30000000000007 94.52665116365455,84.10000000000008 93.82665116365456,91.40000000000003 M 142.72665116365454,83.60000000000008 C 138.82665116365456,78.30000000000007 135.42665116365453,73.30000000000007 138.42665116365453,66.50000000000006 C 141.12665116365451,60.50000000000006 146.22665116365454,58.30000000000007 152.3266511636545,57.00000000000006 C 156.62665116365451,62.80000000000007 157.12665116365451,69.20000000000005 155.0266511636545,75.80000000000007 C 153.12665116365457,81.60000000000008 149.22665116365454,84.00000000000006 142.72665116365454,83.60000000000008 M 272.82665116365456,26.300000000000068 C 273.62665116365457,33.00000000000006 271.4266511636546,38.50000000000006 267.12665116365457,42.90000000000009 C 265.02665116365455,45.000000000000114 262.02665116365455,46.7000000000001 259.12665116365457,47.500000000000114 C 254.62665116365457,48.800000000000125 251.7266511636546,45.90000000000009 251.02665116365455,41.500000000000114 C 249.12665116365457,29.700000000000102 260.52665116365455,22.700000000000102 270.12665116365457,25.600000000000136 C 270.9266511636545,25.800000000000068 271.72665116365454,26.000000000000057 272.82665116365456,26.300000000000068 M 189.82665116365456,69.90000000000003 C 189.72665116365454,68.90000000000003 190.12665116365457,67.60000000000002 189.52665116365455,67.00000000000006 C 181.62665116365457,57.80000000000007 189.22665116365454,44.700000000000045 199.52665116365455,43.900000000000034 C 200.32665116365456,43.80000000000001 201.12665116365457,43.400000000000034 202.02665116365455,43.10000000000002 C 205.52665116365455,48.400000000000034 205.92665116365453,54.200000000000045 204.62665116365457,60.10000000000002 C 203.2266511636546,66.5 198.7266511636546,69.80000000000001 192.12665116365457,69.70000000000005 C 191.32665116365456,69.70000000000005 190.52665116365455,69.70000000000005 189.62665116365457,69.70000000000005 C 189.72665116365454,69.80000000000007 189.82665116365456,69.90000000000003 189.82665116365456,69.90000000000003 M 285.52665116365455,250.50000000000006 C 285.12665116365457,250.10000000000008 284.9266511636545,249.8 284.72665116365454,249.60000000000008 C 276.9266511636545,239.50000000000006 281.9266511636545,226.90000000000003 296.3266511636545,225.2000000000001 C 298.7266511636545,224.90000000000015 301.3266511636545,227.10000000000008 302.02665116365455,230.30000000000013 C 303.02665116365455,235.2000000000001 301.52665116365455,239.40000000000015 298.02665116365455,243.00000000000017 C 294.52665116365455,246.50000000000006 290.52665116365455,249.00000000000006 285.52665116365455,250.50000000000006 M 56.82665116365456,188.2000000000001 C 63.02665116365455,189.10000000000008 67.72665116365454,191.60000000000008 71.52665116365455,195.90000000000015 C 74.52665116365455,199.30000000000013 75.42665116365453,203.2000000000001 75.02665116365455,207.40000000000015 C 74.72665116365454,211.00000000000017 72.32665116365456,212.40000000000015 68.62665116365457,212.50000000000017 C 58.32665116365456,212.6000000000002 52.52665116365455,203.70000000000022 54.02665116365455,195.90000000000015 C 54.62665116365457,193.3 55.82665116365456,190.90000000000003 56.82665116365456,188.2000000000001 M 373.3266511636545,87.40000000000003 C 373.12665116365446,86.10000000000002 373.3266511636545,84.70000000000005 372.8266511636545,83.50000000000006 C 370.8266511636545,78.50000000000006 372.9266511636545,74.80000000000007 376.62665116365446,71.70000000000005 C 382.2266511636545,67.00000000000006 388.7266511636545,66.10000000000002 396.02665116365444,67.30000000000007 C 397.2266511636545,73.00000000000006 396.9266511636544,78.30000000000007 392.3266511636544,82.70000000000005 C 388.3266511636544,86.50000000000006 383.72665116365437,88.10000000000002 378.22665116365437,86.30000000000007 C 376.5266511636543,85.80000000000007 374.4266511636544,84.40000000000009 373.3266511636544,87.30000000000007 L 373.3266511636545,87.40000000000003 M 165.62665116365457,215.3 C 172.02665116365455,217.8 176.62665116365457,221.59999999999997 179.42665116365458,227.40000000000003 C 181.82665116365456,232.2 181.32665116365456,236.90000000000003 178.32665116365456,239.90000000000003 C 176.82665116365456,241.40000000000003 175.42665116365458,242.00000000000006 173.02665116365455,241.40000000000003 C 162.12665116365457,238.8 157.82665116365456,229.8 162.92665116365453,219.90000000000003 C 163.72665116365454,218.40000000000003 164.62665116365457,217.00000000000006 165.62665116365457,215.3 M 84.02665116365455,230.40000000000003 C 89.82665116365456,231.7 93.82665116365456,235.10000000000008 97.22665116365454,239.3 C 99.52665116365455,242.2 100.22665116365454,245.59999999999997 99.92665116365453,249.09999999999997 C 99.42665116365453,254.49999999999994 96.62665116365451,256.3999999999999 91.3266511636545,255.3 C 87.92665116365453,254.59999999999997 85.12665116365451,253.50000000000006 82.92665116365453,250.59999999999997 C 78.62665116365451,245.2 78.62665116365451,239.8 81.8266511636545,233.99999999999994 C 82.42665116365453,232.90000000000003 83.12665116365457,231.8 84.02665116365455,230.40000000000003 M 31.626651163654543,218.00000000000006 C 39.32665116365456,213.50000000000006 46.02665116365455,213.8 52.52665116365455,219.10000000000008 C 56.82665116365456,222.60000000000008 56.22665116365454,227.40000000000003 56.22665116365454,231.90000000000003 C 56.22665116365454,234.2 52.126651163654515,236.10000000000008 48.82665116365456,235.7 C 41.92665116365458,234.7 36.82665116365456,231.09999999999997 33.82665116365456,224.8 C 32.926651163654554,222.7000000000001 32.426651163654554,220.40000000000003 31.626651163654543,218.00000000000006"/>
</svg>
