<?xml version="1.0" ?>
<svg xmlns="http://www.w3.org/2000/svg" xmlns:cc="http://creativecommons.org/ns#" xmlns:dc="http://purl.org/dc/elements/1.1/" xmlns:ev="http://www.w3.org/2001/xml-events" xmlns:rdf="http://www.w3.org/1999/02/22-rdf-syntax-ns#" xmlns:svg="http://www.w3.org/2000/svg" xmlns:xlink="http://www.w3.org/1999/xlink" baseProfile="full" height="119" id="svg8" transform="scale(1.1764705882352942 1.1764705882352942) translate(-42.5 -59.5)" version="1.1" viewBox="0 0 85 119" width="85">
	<defs/>
	<path d="M 42.42061625835652,1.0067878974950872e-08 C 42.2534762583565,1.0067878974950872e-08 42.062536258356545,0.7440000100677935 41.955616258356486,1.21900001006793 C 41.75979625835646,2.0890000100678208 41.60590625835653,2.8945000100679863 41.48936625835654,3.7544000100679114 C 41.37285625835659,4.614300010067836 41.1287462583565,6.245100010067972 40.72931625835656,7.748500010067801 C 40.329856258356585,9.251900010067857 39.775056258356585,10.627800010067858 39.064956258356574,11.765000010067752 C 38.35485625835656,12.902300010067847 37.48961625835659,13.80120001006776 36.785056258356576,14.444700010067663 C 36.080516258356624,15.088200010067567 35.53687625835653,15.476300010067689 35.07085625835657,15.864600010067761 C 34.604826258356525,16.253000010067808 34.21661625835657,16.641300010067653 34.19448625835662,16.791100010067794 C 34.17228625835662,16.940900010067708 34.51603625835662,16.852100010067716 34.94320625835667,16.73610001006773 C 35.370396258356664,16.619600010067643 35.88097625835667,16.475300010067713 36.363616258356615,16.303300010067687 C 36.84625625835656,16.131400010067637 37.30121625835659,15.931700010067743 37.434336258356666,15.920700010067776 C 37.567446258356654,15.909700010067809 37.378436258356714,16.087000010067868 37.056696258356624,16.3255000100678 C 36.73494625835667,16.56400001006773 36.280076258356644,16.863600010067785 35.94721625835666,17.113200010067885 C 35.61432625835664,17.36290001006796 35.40352625835669,17.562800010067804 35.442446258356654,17.701600010067978 C 35.481346258356666,17.84030001006795 35.76980625835665,17.918000010068 36.0637762583566,17.873500010068028 C 36.35774625835654,17.82950001006793 36.65723625835665,17.66260001006799 37.067776258356616,17.457400010068113 C 37.478316258356585,17.252100010068034 37.99996625835661,17.00810001006812 38.493716258356585,16.786200010068114 C 38.987486258356626,16.56430001006811 39.453366258356596,16.364300010068064 39.80285625835654,16.175700010068113 C 40.15234625835649,15.987100010068161 40.38547625835656,15.809700010068127 40.352186258356596,15.909600010068061 C 40.31888625835654,16.00960001006797 40.019416258356614,16.386500010067948 39.52566625835664,16.91910001006795 C 39.031926258356634,17.451700010067952 38.34393625835662,18.139600010067852 37.728136258356585,18.74440001006792 C 37.11233625835655,19.349100010068014 36.568816258356605,19.870400010067897 35.91976625835662,20.25310001006801 C 35.27071625835663,20.6359000100681 34.51630625835662,20.880100010067963 33.86166625835665,21.140800010068006 C 33.20702625835668,21.401600010068023 32.65193625835661,21.679200010067916 32.05279625835669,21.89000001006798 C 31.453666258356748,22.100900010068017 30.81034625835673,22.245200010067947 30.655056258356694,22.41170001006799 C 30.499736258356734,22.57820001006803 30.832486258356653,22.766600010068032 31.320696258356747,22.866300010068016 C 31.808876258356804,22.966300010067926 32.452426258356695,22.977200010067918 33.01828625835674,22.91630001006797 C 33.58413625835669,22.85530001006805 34.072416258356725,22.722200010068036 34.227716258356736,22.73330001006798 C 34.38301625835675,22.744300010067946 34.20531625835679,22.899700010068045 33.88356625835672,23.04950001006796 C 33.561826258356746,23.199300010067873 33.0960662583567,23.343400010067853 32.79094625835671,23.437700010068056 C 32.4858362583567,23.531700010068107 32.34145625835674,23.576300010068053 32.38033625835669,23.63180001006799 C 32.419236258356705,23.686800010068055 32.64095625835671,23.754100010067987 33.07920625835675,23.781900010068057 C 33.51747625835674,23.809900010068077 34.1720762583567,23.79890001006811 34.80448625835675,23.681900010068148 C 35.436916258356746,23.56540001006806 36.047286258356735,23.343500010068055 36.59648625835678,23.093800010068207 C 37.14570625835677,22.844200010068107 37.63386625835676,22.566800010068164 38.02218625835678,22.317100010068316 C 38.41051625835678,22.067500010068215 38.69902625835675,21.84560001006821 38.92094625835682,21.67920001006837 C 39.142866258356776,21.51270001006833 39.29807625835679,21.401800010068428 39.32577625835677,21.45740001006834 C 39.35347625835675,21.512400010068404 39.25367625835679,21.73490001006826 38.981876258356806,22.03440001006834 C 38.71004625835678,22.334000010068394 38.2662362583568,22.711000010068346 37.74474625835683,23.104900010068377 C 37.223276258356805,23.498800010068408 36.62438625835682,23.90920001006839 36.03079625835687,24.22540001006837 C 35.4372162583569,24.541700010068325 34.848796258356856,24.763700010068305 34.38279625835685,24.91900001006843 C 33.916786258356865,25.07440001006853 33.57302625835689,25.16310001006832 33.184696258356894,25.257400010068523 C 32.79633625835686,25.351400010068573 32.363636258356905,25.451500010068457 32.396946258356934,25.556900010068603 C 32.43024625835699,25.662400010068495 32.929486258356974,25.7734000100686 33.35664625835693,25.82330001006858 C 33.78380625835689,25.873300010068533 34.138856258356896,25.862300010068566 34.14992625835691,25.895300010068468 C 34.16102625835697,25.92830001006837 33.82827625835694,26.005900010068444 33.47320625835687,26.083600010068494 C 33.11815625835686,26.16160001006847 32.74081625835686,26.23930001006852 32.74638625835689,26.328000010068536 C 32.752386258356864,26.417000010068477 33.14040625835685,26.516600010068487 33.606386258356906,26.53320001006864 C 34.072386258356914,26.550200010068693 34.61591625835695,26.483200010068686 35.098536258356944,26.389000010068685 C 35.58117625835689,26.295000010068634 36.00294625835693,26.172600010068663 36.424536258356966,25.967300010068584 C 36.84615625835693,25.762000010068505 37.26784625835694,25.47330001006867 37.32330625835698,25.478900010068628 C 37.37880625835703,25.48890001006862 37.06803625835698,25.78410001006864 36.607566258357,26.194600010068598 C 36.14711625835696,26.60520001006853 35.53696625835698,27.12690001006854 34.832436258357006,27.59290001006866 C 34.127886258356966,28.058900010068555 33.329056258357014,28.469500010068714 32.480286258356955,28.78020001006871 C 31.631486258356972,29.090800010068733 30.73266625835697,29.301300010068644 30.061416258356985,29.451100010068785 C 29.390146258356936,29.6009000100687 28.94615625835695,29.689600010068716 28.480136258356993,29.77280001006875 C 28.01412625835701,29.855800010068833 27.52608625835694,29.933900010068783 27.453976258356988,30.083700010068696 C 27.38187625835701,30.233600010068585 27.725696258356948,30.45550001006859 28.15285625835702,30.555300010068777 C 28.580026258357066,30.655300010068686 29.090526258357045,30.63330001006875 29.47330625835707,30.599300010068873 C 29.856086258357095,30.56630001006897 30.11128625835704,30.5213000100689 30.12233625835711,30.616300010068926 C 30.133436258357165,30.710300010068977 29.900206258357116,30.943700010068824 29.62285625835716,31.143400010068945 C 29.34548625835714,31.343100010068838 29.023836258357164,31.509300010068955 29.05161625835717,31.60920001006889 C 29.079416258357128,31.7092000100688 29.456776258357195,31.742300010068902 29.889466258357174,31.64220001006879 C 30.322136258357204,31.542200010068882 30.810056258357122,31.309400010068885 31.303826258357162,31.12630001006869 C 31.797586258357114,30.943200010068722 32.29694625835714,30.810400010068633 32.335776258357214,30.83810001006873 C 32.37457625835725,30.86610001006875 31.953206258357227,31.0543000100688 31.60366625835718,31.254000010068694 C 31.254146258357196,31.453700010068587 30.976466258357163,31.664800010068802 31.004236258357196,31.73680001006869 C 31.032036258357152,31.80880001006858 31.3651862583572,31.746800010068682 31.731306258357222,31.63110001006862 C 32.09745625835717,31.520100010068518 32.49663625835717,31.36500001006857 32.80731625835722,31.242900010068524 C 33.1179762583572,31.120900010068453 33.33978625835721,31.03210001006846 33.35639625835722,31.087600010068627 C 33.37299625835726,31.14260001006869 33.18450625835726,31.34290001006866 32.990336258357274,31.509300010068728 C 32.79618625835724,31.675700010068795 32.59651625835727,31.808700010068833 32.49664625835726,31.875300010068713 C 32.39674625835721,31.94230001006872 33.495326258357295,31.94230001006872 33.800486258357296,31.864300010068746 C 34.10568625835731,31.78630001006877 34.71566625835726,31.6313000100688 35.3092662583573,31.40110001006883 C 35.90285625835725,31.170800010068888 36.479906258357346,30.865800010068824 36.96254625835729,30.580100010068918 C 37.44519625835733,30.294400010069012 37.83359625835726,30.028200010068986 38.155366258357276,29.786800010068873 C 38.47713625835729,29.545500010068963 38.73221625835731,29.329000010068967 38.68782625835729,29.41500001006898 C 38.643426258357295,29.501000010068992 38.29964625835726,29.88940001006904 37.811466258357314,30.30540001006898 C 37.32326625835731,30.721500010068894 36.69073625835733,31.16520001006893 36.01392625835729,31.575800010069088 C 35.33710625835727,31.986300010069044 34.61591625835729,32.36360001006915 33.839256258357295,32.613300010069 C 33.06260625835728,32.8629000100691 32.23052625835726,32.98520001006909 31.47602625835725,33.09620001006897 C 30.72151625835727,33.20710001006887 30.044546258357286,33.30670001006888 29.417676258357233,33.37330001006899 C 28.79078625835723,33.440300010068995 28.213956258357257,33.4733000100689 27.825566258357185,33.56190001006894 C 27.437166258357138,33.65090001006888 27.237396258357194,33.79500001006886 27.23746625835713,33.92820001006885 C 27.23753625835718,34.06140001006884 27.43738625835715,34.18330001006893 27.725876258357175,34.29980001006879 C 28.014346258357136,34.41630001006888 28.39175625835719,34.52730001006876 28.713506258357143,34.610400010068815 C 29.035276258357158,34.6934000100689 29.301516258357196,34.74930001006874 29.423466258357166,34.84360001006871 C 29.54542625835711,34.93760001006876 29.523066258357176,35.071100010068676 29.389966258357163,35.16530001006868 C 29.25686625835715,35.25930001006873 29.012996258357134,35.314800010068666 29.046316258357137,35.35370001006868 C 29.07961625835719,35.392700010068666 29.39010625835715,35.4147000100686 29.77842625835717,35.37070001006873 C 30.166746258357193,35.326700010068635 30.63285625835715,35.21530001006863 30.838066258357117,35.2264000100688 C 31.043276258357082,35.23740001006877 30.987536258357068,35.37070001006873 30.86546625835706,35.50390001006872 C 30.74344625835704,35.63700001006873 30.554896258357076,35.770300010068695 30.610446258357115,35.87020001006863 C 30.665946258357167,35.97020001006854 30.96576625835712,36.03640001006852 31.38735625835716,36.014200010068635 C 31.808966258357145,35.9922000100687 32.35242625835713,35.88100001006865 32.93490625835716,35.70350001006864 C 33.51740625835714,35.52600001006863 34.13894625835712,35.28190001006874 34.37746625835712,35.24300001006873 C 34.615976258357136,35.20400001006874 34.47176625835709,35.37070001006873 33.9225462583571,35.659200010068616 C 33.37335625835715,35.94760001006853 32.41895625835707,36.35810001006871 31.54244625835713,36.61340001006852 C 30.665926258357104,36.868600010068576 29.866986258357088,36.968400010068535 29.07498625835717,37.117900010068524 C 28.282976258357166,37.26730001006854 27.49266625835719,37.46780001006846 26.88798625835716,37.6176000100686 C 26.283266258357116,37.76740001006851 25.861506258357167,37.8672000100687 25.61736625835715,37.961500010068676 C 25.373206258357186,38.05550001006873 25.306906258357117,38.14460001006864 25.440126258357168,38.26110001006873 C 25.573376258357143,38.37760001006882 25.906066258357214,38.52180001006877 26.416446258357155,38.58840001006865 C 26.92681625835712,38.654400010068684 27.61461625835716,38.64340001006872 28.18603625835715,38.649400010068575 C 28.757456258357138,38.659400010068566 29.21247625835713,38.677400010068595 29.38992625835715,38.77710001006858 C 29.567366258357197,38.87710001006849 29.467426258357136,39.05450001006852 29.301026258357183,39.215400010068606 C 29.13461625835714,39.376200010068715 28.90177625835713,39.520500010068645 28.557836258357156,39.65370001006863 C 28.21391625835713,39.786800010068646 27.75887625835719,39.90890001006869 27.670146258357136,40.02550001006853 C 27.58144625835712,40.142000010068614 27.858846258357175,40.25280001006854 28.25270625835708,40.26390001006848 C 28.646576258357072,40.27490001006845 29.156846258357064,40.18590001006851 29.57845625835705,40.04770001006841 C 30.000046258357088,39.908900010068464 30.333026258356995,39.720100010068336 30.604866258357106,39.54820001006851 C 30.876686258357154,39.37620001006849 31.087436258357116,39.22110001006854 31.13732625835712,39.24880001006841 C 31.1872262583571,39.27680001006843 31.076126258357135,39.487200010068364 30.90419625835716,39.69800001006843 C 30.732236258357148,39.908700010068515 30.499486258357138,40.119400010068375 30.28865625835715,40.37470001006841 C 30.077836258357138,40.62990001006847 29.88902625835715,40.9296000100685 29.911276258357134,41.035000010068416 C 29.933476258357132,41.14040001006833 30.166446258357155,41.05200001006847 30.399426258357153,40.896300010068444 C 30.6323862583572,40.74100001006855 30.8654562583572,40.519200010068516 31.126246258357128,40.369400010068375 C 31.387046258357145,40.21960001006846 31.67543625835708,40.14180001006844 31.941686258357095,40.003100010068465 C 32.20794625835708,39.86440001006849 32.452166258357124,39.66470001006837 32.513176258357134,39.664800010068575 C 32.57417625835717,39.664800010068575 32.4521762583571,39.86450001006847 32.313526258357115,40.07530001006853 C 32.17484625835709,40.286100010068594 32.019566258357145,40.50770001006845 32.08619625835706,40.57990001006851 C 32.15279625835706,40.6519000100684 32.44135625835702,40.56990001006852 32.801936258357046,40.44140001006849 C 33.16252625835705,40.30830001006848 33.59501625835708,40.11950001006858 34.027736258357095,39.91970001006848 C 34.46046625835709,39.72000001006859 34.89326625835713,39.5093000100685 35.36481625835711,39.2597000100684 C 35.83636625835709,39.010000010068325 36.34667625835709,38.721600010068414 36.50199625835705,38.71610001006843 C 36.65730625835704,38.70610001006844 36.45769625835703,38.987900010068415 35.99721625835707,39.37620001006849 C 35.536766258357034,39.76450001006856 34.81535625835704,40.26400001006846 34.03176625835704,40.75540001006857 C 33.248156258357085,41.24670001006848 32.38556625835702,41.73960001006867 31.575636258357008,42.08920001006868 C 30.76568625835705,42.43860001006874 30.00000625835696,42.6493000100686 29.306556258356977,42.79360001006876 C 28.613106258356993,42.93780001006871 27.991896258356974,43.01550001006876 27.376096258356938,43.09310001006884 C 26.76030625835699,43.17110001006881 26.15009625835694,43.24870001006889 25.84491625835699,43.287500010068925 C 25.53973625835704,43.32650001006891 23.775676258356953,43.32650001006891 23.914446258356975,43.41520001006893 C 24.053226258356972,43.50420001006887 24.33043625835694,43.68130001006898 24.740966258356934,43.84210001006886 C 25.151506258356903,44.003000010068945 25.695266258356924,44.147300010068875 26.22229625835689,44.274900010068905 C 26.749336258356948,44.402500010068934 27.259586258356876,44.513400010068835 27.54527625835692,44.59940001006885 C 27.830966258356966,44.68540001006886 27.90325625835692,44.75740001006875 27.792246258356954,44.884900010068804 C 27.68125625835694,45.01240001006886 27.39273625835699,45.20140001006871 27.037736258356972,45.312400010068814 C 26.682736258356954,45.423300010068715 26.261266258356954,45.456300010068844 25.828546258356937,45.50070001006884 C 25.39582625835692,45.54470001006894 24.95166625835691,45.60070001006875 24.957226258356968,45.706100010068894 C 24.96322625835694,45.81160001006879 25.417946258357006,45.96710001006886 25.872856258356933,46.06130001006886 C 26.327766258356974,46.15530001006891 26.78259625835699,46.18880001006892 27.176456258356893,46.150300010068804 C 27.57031625835691,46.11130001006882 27.903176258356893,46.000400010068915 28.263786258356845,45.89500001006877 C 28.624396258356796,45.78960001006885 29.012676258356805,45.68970001006869 29.095836258356826,45.73970001006887 C 29.17903625835686,45.78970001006883 28.95712625835688,45.98940001006895 28.629836258356818,46.18350001006888 C 28.302556258356844,46.37770001006879 27.869746258356827,46.566100010068794 27.431486258356813,46.732600010068836 C 26.99320625835685,46.8990000100689 26.549486258356865,47.04340001006881 26.588346258356864,47.132100010068825 C 26.627246258356877,47.22110001006877 27.14875625835691,47.25420001006887 27.620296258356916,47.25420001006887 C 28.091846258356895,47.25420001006887 28.51360625835696,47.22120001006897 28.946296258356938,47.10440001006896 C 29.378986258356917,46.98790001006887 29.822606258356927,46.78800001006903 30.172096258356987,46.593900010068865 C 30.521586258356933,46.399700010068955 30.776736258357005,46.21130001006895 31.109636258357,46.017100010068816 C 31.442516258357045,45.822900010068906 31.853256258356964,45.623200010068786 32.208296258356995,45.417900010068706 C 32.563336258357026,45.21260001006863 32.86283625835699,45.00200001006874 33.02927625835696,44.95770001006872 C 33.19570625835695,44.913700010068624 33.22894625835693,45.035700010068695 33.068076258356996,45.301600010068796 C 32.90715625835696,45.56780001006882 32.55189625835703,45.978200010068804 32.135816258356954,46.355400010068706 C 31.719756258356938,46.73270001006881 31.242706258356975,47.07660001006866 30.721206258356915,47.448300010068806 C 30.199716258356943,47.820000010068725 29.634116258356926,48.219500010068714 29.162586258356896,48.50240001006887 C 28.69104625835689,48.78540001006877 28.313706258356888,48.95180001006884 27.819966258356885,49.118200010068904 C 27.326236258356857,49.284700010068946 26.71584625835692,49.450900010068835 26.654846258356883,49.51750001006894 C 26.593846258356848,49.58450001006895 27.08205625835683,49.550500010068845 27.55914625835692,49.506500010068976 C 28.03626625835693,49.46250001006888 28.502606258356877,49.40650001006907 28.89647625835687,49.32930001006889 C 29.290336258356888,49.25130001006892 29.611776258356826,49.15170001006891 29.58955625835688,49.21830001006879 C 29.56735625835688,49.285300010068795 29.201196258356845,49.51780001006887 28.823966258356904,49.71200001006878 C 28.446726258356875,49.90610001006871 28.058656258356905,50.06150001006881 27.73688625835689,50.18350001006888 C 27.415146258356913,50.305500010068954 27.15988625835689,50.39440001006892 27.28750625835687,50.427700010068975 C 27.415146258356913,50.46070001006888 27.925406258356816,50.43870001006894 28.43576625835692,50.38870001006899 C 28.94615625835695,50.33870001006903 29.456576258356904,50.26100001006898 29.95032625835688,50.155600010069065 C 30.444066258356884,50.05020001006915 30.92115625835686,49.91690001006896 31.348326258356906,49.789300010069155 C 31.775496258356952,49.66160001006915 32.152676258356905,49.53990001006923 32.19145625835688,49.63420001006921 C 32.23025625835692,49.72820001006926 31.9305962583569,50.039100010069205 31.497866258356908,50.41640001006931 C 31.065166258356953,50.79360001006921 30.499246258356948,51.23730001006925 29.966696258356933,51.592300010069266 C 29.43411625835688,51.94740001006926 28.935036258356945,52.21350001006931 28.297046258356886,52.46320001006916 C 27.65905625835694,52.71280001006926 26.882496258356923,52.946000010069156 26.216786258356933,53.13460001006911 C 25.55106625835697,53.32320001006906 24.99616625835688,53.467500010069216 24.452486258356885,53.56180001006919 C 23.90882625835684,53.65580001006924 23.376146258356926,53.70070001006911 22.8213562583569,53.77830001006919 C 22.266586258356938,53.85630001006916 21.689886258356864,53.96670001006919 21.290426258356888,54.07770001006929 C 20.89096625835691,54.188600010069194 20.668866258356843,54.29950001006932 20.76879625835693,54.42710001006935 C 20.868696258356977,54.55470001006938 21.290306258356964,54.69910001006929 21.8284262583569,54.8155000100694 C 22.366556258356923,54.93210001006946 23.021246258356882,55.02100001006943 23.48171625835687,55.14860001006946 C 23.94217625835688,55.27630001006946 24.20861625835687,55.44250001006935 24.19745625835685,55.6144000100694 C 24.18625625835682,55.78630001006945 23.897766258356796,55.96400001006941 23.48724625835689,56.152600010069364 C 23.076736258356846,56.34130001006929 22.54398625835688,56.54080001006946 22.477456258356938,56.69620001006933 C 22.41095625835692,56.85160001006943 22.810536258356933,56.96260001006931 23.28760625835696,56.95140001006939 C 23.764676258356985,56.940400010069425 24.319346258356973,56.80720001006944 24.76868625835698,56.657400010069296 C 25.218026258356986,56.50760001006938 25.562006258356973,56.34110001006934 25.83940625835703,56.235700010069195 C 26.116826258357037,56.13030001006928 26.327906258357075,56.086000010069256 26.305656258356976,56.1917000100691 C 26.283456258356978,56.297100010069016 26.02794625835702,56.552300010069075 25.728376258357002,56.818600010069076 C 25.428806258356985,57.08490001006908 25.085006258356998,57.36250001006897 25.134996258356978,57.47890001006908 C 25.184996258356932,57.59540001006917 25.628676258357018,57.55090001006897 26.11683625835701,57.406900010069194 C 26.605016258357068,57.26270001006924 27.13754625835702,57.01860001006912 27.692326258356957,56.78010001006919 C 28.247106258357007,56.541500010069285 28.824146258356905,56.308600010069085 29.489866258356983,56.070100010069154 C 30.15560625835701,55.83150001006925 30.910026258356993,55.58740001006913 31.52581625835694,55.33770001006906 C 32.14160625835689,55.088100010068956 32.61878625835698,54.833100010069074 33.0071462583569,54.638900010069165 C 33.395476258356894,54.444700010069255 33.694946258356936,54.31160001006924 33.72263625835694,54.39490001006925 C 33.750336258356924,54.477900010069334 33.50612625835697,54.77750001006916 32.89033625835691,55.29350001006924 C 32.2745262583569,55.80930001006914 31.287166258356933,56.541900010069185 30.194276258356922,57.17990001006933 C 29.10138625835691,57.81780001006928 27.90307625835692,58.36140001006925 26.80186625835688,58.80520001006926 C 25.700656258356844,59.24900001006927 24.696866258356863,59.59300001006932 23.81755625835683,59.86760001006928 C 22.938236258356824,60.142200010069246 22.183586258356854,60.34740001006935 21.515756258356873,60.52670001006936 C 20.847926258356893,60.7059000100694 20.266746258356875,60.85910001006937 19.831256258356916,60.956200010069324 C 19.395726258356945,61.053200010069304 19.105936258356905,61.09440001006942 19.188516258356913,61.187100010069344 C 19.27111625835687,61.28010001006942 19.725836258356935,61.42390001006925 20.164076258356886,61.47380001006945 C 20.602326258356925,61.52380001006941 21.024126258356887,61.483800010069444 21.451306258356908,61.42880001006938 C 21.87848625835693,61.378800010069426 22.31132625835687,61.32350001006944 22.494326258356864,61.384800010069284 C 22.67733625835683,61.445800010069206 22.610736258356837,61.62340001006919 22.394426258356816,61.83980001006921 C 22.178096258356845,62.05600001006928 21.81175625835681,62.311200010069115 21.40679625835685,62.52200001006918 C 21.001846258356863,62.73280001006924 20.55823625835683,62.899100010069105 20.192066258356817,63.06550001006917 C 19.82590625835678,63.232000010069214 19.53722625835678,63.398500010069256 19.664886258356773,63.47060001006912 C 19.792546258356765,63.54260001006901 20.336286258356722,63.520600010069074 20.841096258356743,63.45360001006907 C 21.345926258356712,63.38660001006906 21.812076258356797,63.27580001006913 22.30027625835669,63.13710001006916 C 22.788476258356695,62.99840001006919 23.29871625835665,62.8321000100691 23.76473625835672,62.74340001006908 C 24.230786258356716,62.65440001006914 24.652276258356665,62.64340001006917 24.790896258356725,62.727400010069005 C 24.92951625835667,62.81040001006909 24.784896258356753,62.98810001006905 24.54668625835677,63.26550001006899 C 24.308126258356765,63.542900010068934 23.975346258356808,63.92030001006901 23.57037625835676,64.25870001006888 C 23.1654162583568,64.59700001006877 22.6886062583568,64.89650001006885 22.300276258356803,65.10180001006893 C 21.911966258356756,65.30700001006903 21.61217625835684,65.41790001006893 21.767556258356763,65.45120001006899 C 21.922916258356736,65.48420001006889 22.533136258356762,65.44020001006902 23.171096258356783,65.30690001006906 C 23.80906625835678,65.17380001006904 24.474696258356744,64.95190001006904 25.090486258356805,64.69670001006898 C 25.706266258356777,64.44150001006892 26.27223625835677,64.15310001006901 26.272226258356795,64.21960001006892 C 26.272196258356757,64.28660001006892 25.70650625835674,64.70760001006897 25.107346258356756,65.13470001006885 C 24.508186258356773,65.56190001006894 23.87537625835671,65.99480001006896 23.176376258356754,66.39430001006895 C 22.4773762583568,66.79370001006896 21.712076258356774,67.1599000100689 21.001966258356788,67.45390001006899 C 20.291866258356777,67.74800001006906 19.63723625835678,67.9698000100691 19.149046258356748,68.11400001006905 C 18.66086625835669,68.25830001006898 18.33911625835674,68.32480001006911 18.339146258356777,68.45240001006914 C 18.339166258356727,68.58010001006915 18.661016258356767,68.76900001006925 19.19914625835679,68.87990001006915 C 19.73725625835675,68.99080001006905 20.491516258356796,69.02390001006916 21.18499625835682,69.0350000100691 C 21.878456258356778,69.04600001006906 22.51081625835684,69.03480001006915 22.638376258356857,69.10700001006899 C 22.765936258356874,69.17900001006888 22.388806258356908,69.33440001006898 22.0004362583569,69.58400001006908 C 21.61206625835689,69.83370001006915 21.212756258356876,70.17790001006915 21.28493625835688,70.34440001006897 C 21.35713625835683,70.51080001006903 21.900506258356927,70.49950001006891 22.50368625835688,70.44810001006886 C 23.10687625835692,70.39610001006895 23.76973625835683,70.30490001006888 24.508926258356837,70.09790001006877 C 25.24810625835687,69.89080001006869 26.063776258356825,69.56870001006882 26.795126258356845,69.28220001006866 C 27.526476258356865,68.99570001006873 28.173406258356863,68.7449000100687 28.68933625835689,68.51730001006877 C 29.20527625835689,68.2898000100688 29.590106258356855,68.08530001006875 29.93098625835694,67.94060001006869 C 30.27188625835697,67.79580001006866 30.568746258356896,67.71080001006862 30.445326258356886,67.8686000100688 C 30.3218962583569,68.0258000100689 29.778466258356843,68.42510001006872 28.990686258356845,68.96870001006891 C 28.202906258356848,69.51240001006886 27.171006258356897,70.20060001006891 25.922786258356837,70.82750001006889 C 24.6745562583568,71.45440001006887 23.209736258356884,72.02020001006895 21.750686258356836,72.50290001006897 C 20.291646258356877,72.98550001006902 18.838206258356877,73.38480001006906 17.401356258356827,73.69550001006905 C 15.964506258356778,74.00610001006908 14.544546258356831,74.22820001006903 13.390636258356835,74.38350001006916 C 12.236716258356864,74.53880001006905 11.34910625835687,74.6274000100691 10.605706258356804,74.68840001006924 C 9.862306258356853,74.74940001006917 9.263156258356844,74.7824000100693 9.063456258356837,74.90490001006924 C 8.86373625835688,75.02700001006929 9.063386258356786,75.23790001006932 9.557146258356852,75.48190001006924 C 10.050916258356892,75.72600001006913 10.83869625835689,76.00350001006927 11.543246258356817,76.19770001006918 C 12.247806258356832,76.39180001006912 12.869156258356838,76.5029000100692 13.379556258356843,76.59720001006917 C 13.889936258356897,76.69120001006922 14.289436258356886,76.76900001006925 14.289396258356874,76.86880001006921 C 14.289346258356886,76.96880001006912 13.88988625835691,77.09060001006924 13.423866258356838,77.26810001006925 C 12.957856258356856,77.44570001006923 12.425316258356816,77.67870001006918 12.453096258356823,77.80640001006918 C 12.480896258356779,77.93400001006921 13.06877625835682,77.9562000100691 13.601356258356873,77.92290001006927 C 14.133926258356837,77.88990001006937 14.611016258356926,77.80080001006922 15.154686258356833,77.68430001006936 C 15.698356258356853,77.56780001006928 16.308446258356867,77.4237000100693 16.50812625835681,77.44590001006941 C 16.70779625835678,77.46790001006934 16.497426258356768,77.6566000100695 16.15893625835679,77.96170001006931 C 15.820516258356747,78.26680001006935 15.354326258356764,78.6886000100692 15.315556258356764,78.96600001006937 C 15.276756258356727,79.24340001006931 15.665196258356787,79.3766000100693 16.164476258356785,79.40980001006938 C 16.663756258356784,79.44280001006928 17.273826258356735,79.37680001006947 17.811966258356733,79.34880001006945 C 18.350096258356757,79.32080001006943 18.81612625835669,79.3318000100694 18.74396625835675,79.48200001006944 C 18.671766258356797,79.63180001006936 18.061436258356707,79.92030001006947 18.03930625835676,80.10340001006944 C 18.017106258356762,80.28640001006943 18.58315625835678,80.3640000100695 19.17119625835676,80.33620001006943 C 19.759236258356736,80.30820001006941 20.369526258356814,80.1756000100695 20.83001625835675,80.13680001006946 C 21.29049625835671,80.09780001006948 21.60114625835672,80.15380001006952 21.650996258356713,80.29770001006955 C 21.700896258356693,80.4419000100695 21.490046258356756,80.6747000100695 21.656996258356685,80.75790001006953 C 21.823496258356727,80.84090001006962 22.367006258356696,80.77490001006959 22.949506258356678,80.67990001006956 C 23.532016258356634,80.58590001006951 24.153356258356666,80.46370001006949 24.053456258356732,80.57470001006959 C 23.953556258356684,80.68560001006949 23.132586258356696,81.0294000100696 22.034126258356764,81.46770001006962 C 20.935676258356807,81.90590001006967 19.560136258356806,82.4388000100696 18.317446258356767,82.87150001006967 C 17.074766258356817,83.30420001006974 15.964946258356804,83.63700001006964 14.955256258356712,83.9533000100696 C 13.945566258356735,84.26950001006958 13.035936258356742,84.56900001006966 12.364686258356755,84.74100001006968 C 11.693446258356744,84.91300001006971 11.260696258356802,84.95730001006973 11.277346258356715,85.06270001006965 C 11.29404625835673,85.16820001006954 11.760076258356662,85.33460001006961 12.453556258356684,85.50660001006963 C 13.147016258356643,85.67850001006968 14.06779625835668,85.85640001006959 14.844476258356735,85.96730001006972 C 15.621166258356766,86.07820001006962 16.253616258356715,86.12250001006964 16.675246258356765,86.2002000100697 C 17.09688625835679,86.27820001006967 17.30777625835674,86.38880001006964 17.26889625835679,86.52750001006962 C 17.229996258356778,86.66610001006961 16.94158625835678,86.8324000100697 16.331346258356803,87.07660001006957 C 15.721106258356826,87.32060001006948 14.788846258356784,87.64240001006965 14.761146258356803,87.80890001006946 C 14.733446258356821,87.9754000100695 15.61013625835676,87.98650001006945 16.342426258356795,87.90090001006956 C 17.074696258356767,87.81490001006955 17.662566258356833,87.63190001006956 18.17571625835683,87.41830001006952 C 18.6888762583568,87.20470001006947 19.1271862583568,86.96060001006958 19.68196625835685,86.64160001006962 C 20.236746258356902,86.32260001006966 20.908006258356863,85.92880001006961 21.082736258356817,85.8650000100697 C 21.25747625835686,85.80100001006963 20.93578625835687,86.0674000100696 20.591816258356857,86.3781000100696 C 20.24785625835682,86.68870001006962 19.88157625835686,87.04350001006969 19.864996258356882,87.19880001006959 C 19.848396258356843,87.35410001006949 20.181286258356863,87.31000001006964 20.60289625835685,87.1888000100696 C 21.024496258356862,87.07240001006949 21.535016258356904,86.88390001006951 22.073146258356815,86.6620000100695 C 22.61127625835684,86.44000001006953 23.177076258356806,86.18460001006952 23.52099625835683,86.00710001006951 C 23.864936258356806,85.8296000100695 23.987186258356815,85.73000001006949 23.72642625835681,86.01810001006947 C 23.465666258356805,86.30660001006959 22.822016258356825,86.98320001006937 21.490586258356757,87.85420001006946 C 20.159156258356802,88.72520001006956 18.139726258356745,89.79050001006954 16.24877625835677,90.45060001006937 C 14.35781625835682,91.11060001006945 12.591996258356744,91.36600001006946 11.06637625835674,91.4880000100693 C 9.540756258356737,91.61010001006935 8.253906258356778,91.59910001006938 7.238686258356779,91.57700001006924 C 6.223436258356742,91.5550000100693 5.47994625835679,91.5210000100692 5.036076258356729,91.61600001006923 C 4.592176258356744,91.71000001006928 4.448016258356688,91.93220001006921 4.8198162583566955,92.2706000100693 C 5.19159625835664,92.60910001006937 6.079356258356711,93.06390001006935 6.844936258356711,93.37460001006934 C 7.610516258356711,93.68520001006937 8.253916258356753,93.85160001006943 8.652046258356677,94.00720001006925 C 9.050166258356626,94.16290001006928 9.202776258356721,94.30780001006929 9.06668625835664,94.41860001006921 C 8.93057625835661,94.52940001006914 8.505716258356642,94.60630001006916 8.068726258356605,94.71140001006916 C 7.631716258356619,94.81650001006915 7.1829662583566005,94.95000001006906 7.258066258356621,95.07220001006908 C 7.333166258356641,95.19430001006913 7.932166258356574,95.30510001006905 8.620066258356587,95.28290001006917 C 9.307976258356575,95.26090001006924 10.084596258356555,95.10560001006911 10.217716258356631,95.15550001006909 C 10.35082625835662,95.20550001006904 9.840366258356653,95.46060001006913 9.374336258356607,95.74360001006903 C 8.90830625835656,96.02650001006896 8.486546258356611,96.33710001006898 8.669666258356642,96.44250001006912 C 8.852806258356622,96.54790001006904 9.640886258356659,96.45250001006912 10.456376258356613,96.20380001006902 C 11.271856258356593,95.95970001006913 12.115036258356668,95.57140001006906 12.392376258356649,95.57700001006901 C 12.669736258356693,95.587000010069 12.381076258356643,95.98220001006894 12.342276258356605,96.31510001006905 C 12.303476258356568,96.64800001006915 12.514306258356555,96.914000010069 12.935916258356656,96.94730001006906 C 13.357516258356668,96.98030001006896 13.990016258356604,96.78100001006896 14.616896258356633,96.52030001006915 C 15.243766258356686,96.25950001006913 15.865326258356617,95.93740001006904 16.492226258356595,95.64890001006916 C 17.119126258356573,95.36050001006925 17.751486258356636,95.10550001006914 17.95114625835663,95.17760001006923 C 18.1508162583566,95.24960001006912 17.917946258356665,95.64900001006913 17.585096258356657,96.05960001006929 C 17.2522262583567,96.47010001006925 16.819236258356682,96.8920000100693 16.963506258356688,96.99180001006926 C 17.107796258356643,97.09180001006916 17.82917625835671,96.86950001006926 18.52816625835669,96.5532000100693 C 19.227166258356647,96.23700001006932 19.90366625835668,95.82670001006932 20.56386625835671,95.4994000100694 C 21.224066258356743,95.17210001006947 21.867846258356735,94.92790001006938 21.973196258356666,95.05000001006943 C 22.07856625835666,95.17210001006947 21.645836258356667,95.66010001006953 20.91355625835672,96.2204000100694 C 20.18128625835675,96.7807000100695 19.149476258356685,97.4133000100694 17.928996258356733,97.84050001006949 C 16.708526258356756,98.26770001006958 15.299366258356713,98.48960001006958 14.07888625835676,98.60610001006944 C 12.85839625835672,98.72260001006953 11.82669625835672,98.73370001006947 11.050016258356777,98.72820001006949 C 10.273336258356721,98.7182000100695 9.751796258356762,98.70020001006947 9.4078062583568,98.71720001006952 C 9.063836258356787,98.73420001006957 8.897396258356821,98.78920001006941 9.086066258356823,98.94450001006953 C 9.274736258356825,99.09990001006963 9.818316258356845,99.35510001006946 10.500686258356836,99.53810001006946 C 11.183056258356828,99.72120001006942 12.00422625835688,99.83200001006935 12.73652625835689,99.93190001006951 C 13.468826258356899,100.03190001006942 14.111986258356865,100.12070001006941 14.22843625835685,100.27050001006955 C 14.344896258356812,100.42030001006947 13.934686258356805,100.63100001006956 13.124736258356847,100.78080001006947 C 12.314796258356864,100.93060001006938 11.105476258356816,101.01940001006938 9.82396625835679,101.0361000100695 C 8.542436258356815,101.05310001006956 7.188776258356825,100.99710001006952 5.990476258356807,100.89730001006956 C 4.792166258356815,100.79730001006965 3.748996258356783,100.65340001006962 2.8835662583568364,100.50910001006946 C 2.0181162583568266,100.3649000100695 1.3303662583568894,100.2204000100694 0.7866862583567809,100.0927000100694 C 0.24301625835676077,99.96520001006934 -0.15650374164317782,99.85430001006944 0.0598662583568057,100.03170001006947 C 0.276246258356764,100.20930001006946 1.1085062583567833,100.67540001006955 1.9850462583567605,101.0470000100695 C 2.8615962583567125,101.41870001006941 3.782586258356787,101.69610001006959 4.392836258356738,101.94580001006943 C 5.003066258356739,102.19550001006951 5.302266258356781,102.41730001006954 5.268946258356777,102.60590001006949 C 5.235646258356724,102.79450001006944 4.869736258356738,102.94980001006957 4.3593462583568225,103.12730001006958 C 3.848966258356768,103.30480001006958 3.1941662583568586,103.50470001006966 3.21084625835681,103.65450001006957 C 3.227546258356824,103.80430001006948 3.915566258356762,103.90410001006967 4.642326258356775,103.98180001006949 C 5.369066258356725,104.05980001006947 6.13481625835675,104.11510001006945 6.700676258356793,104.18170001006956 C 7.2665462583568114,104.2477000100696 7.6324662583567715,104.32560001006959 7.676736258356755,104.5198000100695 C 7.721036258356776,104.71390001006944 7.443776258356706,105.02450001006946 7.022176258356808,105.32970001006947 C 6.6005862583567705,105.63480001006951 6.034756258356765,105.93440001006957 6.173506258356838,106.08420001006948 C 6.312256258356797,106.2340000100694 7.155456258356821,106.23410001006937 8.01535625835686,106.19520001006958 C 8.875236258356836,106.1562000100696 9.751556258356914,106.07880001006947 10.622536258356831,105.99000001006948 C 11.493546258356787,105.90100001006954 12.35901625835686,105.80130001006955 13.224426258356857,105.62370001006957 C 14.089876258356867,105.44620001006956 14.955396258356814,105.19110001006948 15.637766258356805,104.94700001006959 C 16.32010625835676,104.7029000100697 16.819296258356758,104.4700000100695 17.396276258356806,104.25920001006966 C 17.973256258356855,104.0484000100696 18.6277262583568,103.8596000100697 18.57776625835686,104.02050001006955 C 18.527766258356905,104.18140001006964 17.773606258356835,104.69180001006953 16.885966258356916,105.28530001006948 C 15.998336258356971,105.87900001006938 14.977506258356925,106.55570001006959 13.8291462583569,107.16600001006941 C 12.680786258356875,107.77620001006949 11.404826258356934,108.3200000100694 10.4228962583569,108.66950001006944 C 9.440956258356891,109.01900001006948 8.753046258356903,109.17430001006937 8.103966258356877,109.26860001006935 C 7.4548962583568255,109.3626000100694 6.844696258356862,109.39640001006933 6.667196258356853,109.46850001006942 C 6.489696258356844,109.54050001006931 6.744996258356878,109.65160001006939 7.216536258356882,109.80140001006953 C 7.688096258356836,109.95110001006947 8.375956258356837,110.13980001006962 8.952886258356898,110.22860001006961 C 9.529846258356883,110.31760001006955 9.995686258356955,110.30560001006961 10.184226258356944,110.40610001006962 C 10.372786258356996,110.50610001006953 10.284126258356991,110.7169000100696 10.12882625835698,110.94990001006954 C 9.973496258356931,111.18280001006951 9.751686258356926,111.43800001006957 9.624056258356973,111.6100000100696 C 9.496466258356918,111.78200001006962 9.463166258356978,111.87060001006967 9.746166258356993,111.8650000100697 C 10.029176258356983,111.85500001006972 10.62844625835703,111.75980001006974 11.172106258356962,111.58780001006971 C 11.715766258357007,111.41580001006969 12.203726258356937,111.17160001006982 12.70857625835697,110.9275000100697 C 13.213426258357003,110.68330001006962 13.73492625835695,110.4393000100697 14.08441625835701,110.26740001006965 C 14.433926258357019,110.09530001006965 14.611456258357066,109.99530001006974 14.555956258357014,110.10070001006966 C 14.500456258356962,110.20610001006958 14.211686258356963,110.5167000100696 13.817806258356995,110.88840001006974 C 13.42391625835694,111.26010001006966 12.92491625835703,111.69280001006973 12.991546258356948,111.83710001006966 C 13.058146258356942,111.98130001006962 13.690516258356979,111.83730001006961 14.250836258356912,111.69300001006968 C 14.81115625835696,111.54880001006973 15.299446258356966,111.40430001006962 15.737696258356891,111.24340001006976 C 16.175956258356905,111.08250001006968 16.5642862583569,110.90520001006985 16.381186258356934,111.10490001006974 C 16.198086258356966,111.30470001006984 15.443666258356984,111.88150001006966 15.704466258356888,112.09790001006968 C 15.965266258356905,112.31420001006973 17.240936258356896,112.16990001006957 18.333806258356844,111.91480001006971 C 19.42668625835688,111.65960001006965 20.3367562583569,111.29360001006967 21.124516258356834,110.93860001006965 C 21.912286258356858,110.58350001006966 22.577866258356835,110.23940001006963 23.071596258356863,109.93980001006958 C 23.56532625835689,109.6403000100695 23.88712625835683,109.38510001006966 23.837196258356812,109.45170001006954 C 23.787296258356832,109.51770001006958 23.365756258356782,109.90650001006952 22.68893625835676,110.45570001006945 C 22.01209625835679,111.00490001006938 21.07983625835675,111.71520001006934 20.231036258356767,112.34210001006954 C 19.38222625835681,112.96900001006952 18.616696258356797,113.51270001006947 18.794266258356743,113.71240001006959 C 18.971856258356752,113.91210001006948 20.09270625835677,113.76740001006965 21.10236625835671,113.44600001006961 C 22.112016258356675,113.12420001006967 23.010746258356676,112.6250000100697 23.737496258356714,112.17010001006952 C 24.46422625835669,111.71520001006957 25.018836258356714,111.30450001006943 25.096476258356688,111.34340001006944 C 25.174176258356738,111.38240001006943 24.77464625835671,111.87060001006944 24.364116258356717,112.30890001006946 C 23.953596258356697,112.74710001006952 23.531916258356773,113.13550001006956 23.74831625835668,113.1910000100695 C 23.964716258356702,113.24700001006954 24.819116258356644,112.9687000100696 25.5569362583567,112.63590001006946 C 26.29476625835673,112.30300001006935 26.916076258356725,111.91490001006946 27.576266258356668,111.5488000100695 C 28.236446258356636,111.18260001006956 28.935536258356706,110.83860001006951 29.540216258356622,110.51130001006959 C 30.144916258356602,110.18400001006967 30.655136258356606,109.87330001006967 30.73278625835667,109.89000001006957 C 30.81038625835663,109.90700001006962 30.45559625835665,110.25050001006957 30.00621625835663,110.68330001006962 C 29.556846258356586,111.11600001006968 29.01316625835659,111.63750001006952 28.45288625835667,112.0370000100695 C 27.892586258356687,112.43640001006952 27.31558625835669,112.71380001006946 27.360006258356634,112.80250001006948 C 27.40440625835663,112.89150001006942 28.070076258356607,112.79150001006951 28.76908625835665,112.61950001006949 C 29.468086258356607,112.44750001006946 30.200456258356667,112.20350001006955 31.032626258356686,111.98150001006957 C 31.86480625835668,111.75960001006956 32.796736258356646,111.55990001006967 32.79113625835669,111.69300001006945 C 32.785136258356715,111.82620001006944 31.842466258356694,112.29230001006954 30.954836258356636,112.73060001006957 C 30.067196258356603,113.16880001006962 29.23492625835661,113.57910001006962 28.402786258356628,113.95630001006953 C 27.570626258356583,114.33360001006963 26.738636258356678,114.67760001006945 26.322526258356675,114.8495000100695 C 25.90641625835667,115.02150001006953 28.76902625835669,115.0216000100695 29.23508625835666,114.94950001006941 C 29.701156258356605,114.87750001006953 30.633316258356672,114.73310001006939 31.421086258356695,114.55000001006943 C 32.20884625835674,114.36690001006946 32.852106258356685,114.14510001006943 33.27929625835668,114.02300001006938 C 33.70649625835665,113.90100001006931 33.91751625835673,113.8789000100694 33.77323625835663,113.99000001006948 C 33.62895625835665,114.10100001006958 33.12949625835665,114.34510001006947 32.508166258356596,114.59480001006955 C 31.886836258356652,114.84440001006965 31.14345625835665,115.09960001006948 30.92713625835654,115.29940001006958 C 30.710816258356544,115.49920001006967 31.02163625835658,115.64330001006965 31.76497625835657,115.68760001006967 C 32.508366258356546,115.73160001006977 33.684446258356616,115.6766000100697 34.72739625835652,115.4877000100696 C 35.77032625835648,115.29910001006965 36.680286258356546,114.97740001006969 37.434776258356464,114.68890001006957 C 38.18383625835645,114.40250001006962 38.777326258356425,114.14850001006948 39.16584625835651,113.83550001006961 L 39.16584625835651,118.87790001006965 L 45.67625625835649,118.87790001006965 L 45.67625625835649,113.83550001006961 C 46.06477625835646,114.14850001006971 46.658676258356536,114.40250001006962 47.40782625835652,114.68890001006957 C 48.16232625835653,114.97740001006969 49.072266258356535,115.29910001006965 50.115216258356554,115.4877000100696 C 51.15814625835651,115.67640001006953 52.33397625835653,115.7319000100697 53.077366258356506,115.68760001006967 C 53.82075625835648,115.64360001006958 54.131286258356454,115.49890001006975 53.91496625835646,115.29920001006963 C 53.69864625835646,115.09940001006953 52.95553625835646,114.8442000100697 52.33418625835645,114.59450001006962 C 51.71285625835651,114.34490001006952 51.21338625835642,114.10070001006966 51.069116258356416,113.98980001006953 C 50.924836258356436,113.87880001006943 51.135616258356436,113.90080001006959 51.56280625835643,114.02280001006943 C 51.98998625835645,114.14490001006948 52.633766258356445,114.36660001006953 53.42152625835638,114.5497000100695 C 54.20928625835643,114.73280001006947 55.14120625835642,114.8771000100694 55.60726625835639,114.94920001006949 C 56.073336258356335,115.02120001006938 58.93594625835635,115.02120001006938 58.519826258356375,114.84920001006958 C 58.10371625835637,114.67720001006955 57.27172625835635,114.3332000100695 56.43956625835642,113.9560000100696 C 55.60742625835644,113.5787000100695 54.775156258356446,113.16850001006969 53.88752625835639,112.73020001006967 C 52.999886258356355,112.29190001006964 52.0567862583564,111.82590001006974 52.05121625835636,111.69270001006976 C 52.04521625835639,111.55950001006977 52.97754625835637,111.75870001006979 53.80972625835636,111.98100001006969 C 54.64189625835638,112.2029000100697 55.37427625835642,112.44720001006976 56.0732662583564,112.61910001006959 C 56.77227625835644,112.79110001006961 57.437936258356444,112.89090001006957 57.482346258356415,112.80220001006955 C 57.52674625835641,112.71320001006961 56.94977625835645,112.43600001006962 56.38947625835647,112.0366000100696 C 55.82917625835648,111.63720001006959 55.28550625835646,111.11560001006956 54.83613625835642,110.68290001006972 C 54.386766258356374,110.25020001006965 54.03166625835638,109.9063000100698 54.10931625835644,109.88960001006967 C 54.186916258356405,109.87260001006962 54.6974562583564,110.18360001006977 55.30213625835643,110.51100001006967 C 55.90683625835641,110.83830001006959 56.60589625835644,111.18200001006971 57.26608625835638,111.54820001006965 C 57.926276258356324,111.91440001006958 58.54758625835643,112.30270001006966 59.28541625835635,112.63550001006956 C 60.023236258356405,112.96840001006967 60.877386258356296,113.24590001006959 61.09378625835632,113.19040001006965 C 61.310196258356314,113.13440001006961 60.888516258356276,112.74680001006959 60.47798625835628,112.30850001006957 C 60.06745625835629,111.87020001006954 59.66823625835627,111.38180001006958 59.74587625835625,111.34300001006955 C 59.8235762583563,111.30400001006956 60.37812625835625,111.71490001006964 61.10485625835622,112.1698000100696 C 61.83160625835626,112.62470001006955 62.730346258356235,113.1236000100696 63.739986258356225,113.44540001006953 C 64.74963625835619,113.76720001006947 65.87025625835622,113.91170001006958 66.04783625835626,113.71200001006946 C 66.22541625835629,113.51230001006957 65.46011625835627,112.9686000100694 64.61131625835628,112.34170001006942 C 63.762506258356325,111.71480001006944 62.830496258356334,111.00460001006945 62.15367625835631,110.45530001006932 C 61.47686625835627,109.9061000100694 61.055336258356306,109.5179000100693 61.00541625835626,109.45130001006942 C 60.95551625835628,109.38430001006941 61.2770162583563,109.63990001006937 61.7707562583563,109.93950001006942 C 62.26448625835633,110.23910001006948 62.930066258356305,110.58310001006953 63.71783625835633,110.93820001006952 C 64.50559625835638,111.29320001006954 65.41566625835628,111.6593000100695 66.50854625835632,111.91450001006956 C 67.60143625835633,112.16970001006962 68.87733625835631,112.31390001006957 69.13813625835633,112.09750001006955 C 69.39893625835634,111.88110001006953 68.64452625835634,111.30410001006953 68.46141625835628,111.10430001006966 C 68.27831625835631,110.90460001006977 68.66638625835628,111.08230001006973 69.1046462583563,111.24310001006961 C 69.54290625835631,111.4040000100697 70.03122625835624,111.5484000100696 70.59152625835634,111.69270001006953 C 71.15184625835639,111.83700001006946 71.78442625835635,111.98090001006949 71.85105625835638,111.83670001006953 C 71.91765625835637,111.69250001006958 71.41817625835643,111.25980001006951 71.02429625835634,110.88810001006959 C 70.63041625835638,110.51640001006967 70.34215625835634,110.20580001006965 70.28664625835631,110.10030001006953 C 70.23114625835626,109.99490001006961 70.40843625835635,110.09030001006954 70.75793625835627,110.2667000100696 C 71.10744625835628,110.4388000100696 71.6291862583563,110.68300001006969 72.13403625835622,110.92710001006958 C 72.63886625835619,111.17120001006947 73.12685625835627,111.41520001006961 73.67049625835625,111.58720001006964 C 74.21414625835621,111.75920001006966 74.8131762583563,111.85900001006962 75.09619625835626,111.86460001006958 C 75.37919625835627,111.87460001006957 75.34615625835625,111.7816000100695 75.21854625835624,111.60960001006947 C 75.09093625835624,111.43760001006945 74.8690962583562,111.18220001006944 74.71377625835623,110.94930001006946 C 74.55844625835618,110.71630001006952 74.46958625835623,110.50540001006948 74.6581762583562,110.40550001006955 C 74.84669625835625,110.30550001006964 75.31282625835615,110.3165000100696 75.88975625835621,110.22820001006949 C 76.46672625835618,110.13920001006954 77.15455625835625,109.95080001006954 77.6261162583562,109.8010000100694 C 78.09765625835621,109.65120001006949 78.35270625835619,109.54010001006941 78.17519625835621,109.46790001006934 C 77.9976962583562,109.39590001006945 77.38748625835626,109.36230001006925 76.73842625835618,109.26810001006925 C 76.08934625835616,109.1741000100692 75.40145625835623,109.01860001006935 74.41950625835614,108.66910001006931 C 73.4375762583561,108.31960001006928 72.16162625835614,107.77590001006934 71.01324625835616,107.16560001006928 C 69.86488625835614,106.55530001006923 68.84431625835612,105.87860001006925 67.95668625835617,105.28500001006933 C 67.06904625835614,104.6914000100694 66.3143362583562,104.18110001006926 66.26437625835615,104.0202000100694 C 66.2143762583562,103.85930001006932 66.86914625835618,104.04820001006942 67.44612625835612,104.25890001006951 C 68.02309625835608,104.46970001006957 68.52226625835613,104.70250001006957 69.20463625835612,104.94660001006946 C 69.88698625835616,105.19070001006935 70.75227625835612,105.44580001006943 71.61771625835615,105.62340001006942 C 72.4831462583561,105.80090001006943 73.34861625835617,105.90070001006939 74.21961625835615,105.9894000100694 C 75.09059625835619,106.07840001006934 75.96739625835619,106.15600001006942 76.82729625835611,106.19480001006946 C 77.68718625835606,106.23380001006944 78.53014625835613,106.23380001006944 78.66889625835609,106.08380001006935 C 78.8076262583561,105.93400001006944 78.24182625835613,105.63440001006938 77.82022625835612,105.32930001006935 C 77.39861625835613,105.02420001006931 77.1211162583561,104.71360001006929 77.16540625835614,104.51940001006938 C 77.20970625835616,104.32530001006944 77.57609625835619,104.24760001006939 78.14196625835609,104.18110001006949 C 78.70784625835608,104.11410001006948 79.47331625835614,104.05880001006949 80.20006625835606,103.98120001006941 C 80.9268162583561,103.90320001006944 81.61487625835605,103.80390001006936 81.63155625835611,103.65410001006944 C 81.64825625835613,103.50430001006953 80.99344625835613,103.30450001006943 80.48304625835613,103.12690001006945 C 79.97266625835607,102.94940001006944 79.60653625835607,102.79410001006954 79.57319625835612,102.60560001006934 C 79.53989625835607,102.41700001006939 79.83955625835608,102.19510001006938 80.44981625835612,101.94550001006928 C 81.0600562583561,101.6958000100692 81.98081625835607,101.41840001006926 82.85735625835616,101.04670001006934 C 83.73390625835611,100.67500001006943 84.56615625835616,100.20890001006933 84.78252625835614,100.03140001006932 C 84.99891625835619,99.85380001006934 84.59938625835616,99.96440001006931 84.05571625835614,100.09240001006924 C 83.51202625835617,100.22000001006927 82.82402625835618,100.3643000100692 81.95858625835615,100.50850001006916 C 81.09313625835614,100.65280001006909 80.0502462583562,100.79720001006922 78.85191625835614,100.89700001006918 C 77.6536262583561,100.99700001006909 76.29993625835618,101.05210001006913 75.01843625835613,101.0355000100692 C 73.73690625835616,101.01850001006915 72.52759625835608,100.93020001006926 71.7176562583561,100.78040001006912 C 70.90772625835609,100.6306000100692 70.49726625835615,100.41970001006916 70.61371625835613,100.26990001006902 C 70.7301762583561,100.12010001006911 71.3738162583561,100.03140001006909 72.10612625835608,99.93150001006893 C 72.8384262583561,99.83150001006902 73.6593462583561,99.72080001006884 74.34171625835609,99.53780001006885 C 75.0240762583561,99.35470001006888 75.56765625835612,99.09950001006882 75.75632625835613,98.94410001006895 C 75.94499625835613,98.78870001006885 75.77882625835616,98.73320001006891 75.43483625835609,98.71660001006899 C 75.09084625835612,98.69960001006893 74.56931625835614,98.72660001006898 73.79263625835608,98.72760001006895 C 73.01595625835603,98.73760001006895 71.98423625835608,98.71760001006896 70.76375625835612,98.60520001006898 C 69.54326625835608,98.4887000100689 68.13388625835614,98.26710001006904 66.91340625835608,97.83990001006896 C 65.6929362583561,97.41270001006887 64.66112625835603,96.78010001006896 63.928836258356114,96.21980001006887 C 63.19656625835614,95.65950001006877 62.76383625835615,95.17150001006894 62.86919625835617,95.0494000100689 C 62.97454625835621,94.92730001006885 63.618076258356155,95.17120001006879 64.27827625835619,95.49850001006894 C 64.93847625835622,95.82580001006886 65.61549625835619,96.23670001006894 66.3144762583562,96.55290001006892 C 67.01346625835617,96.8691000100689 67.73459625835619,97.09080001006896 67.87888625835615,96.99090001006903 C 68.0231762583561,96.89090001006912 67.59041625835619,96.46950001006894 67.2575562583562,96.05900001006898 C 66.92471625835617,95.64840001006905 66.69158625835621,95.24920001006899 66.8912462583562,95.17700001006892 C 67.09091625835617,95.10500001006903 67.72353625835615,95.35990001006894 68.35042625835615,95.64830001006885 C 68.97732625835613,95.93680001006896 69.5983762583561,96.25890001006883 70.22525625835613,96.51970001006885 C 70.85212625835618,96.78040001006889 71.48487625835617,96.97980001006886 71.90647625835618,96.94670001006875 C 72.32810625835623,96.91370001006885 72.53887625835614,96.64740001006885 72.50011625835623,96.31450001006874 C 72.46131625835619,95.98150001006866 72.17266625835623,95.5819000100687 72.45001625835619,95.57630001006873 C 72.72735625835617,95.56630001006874 73.57076625835623,95.95910001006882 74.38627625835613,96.20320001006871 C 75.20174625835614,96.4473000100686 75.98936625835609,96.54730001006874 76.17248625835612,96.44190001006882 C 76.35561625835612,96.3365000100689 75.93408625835616,96.02590001006888 75.46806625835609,95.74300001006873 C 75.00203625835604,95.46000001006882 74.49157625835608,95.20460001006882 74.62468625835606,95.15470001006884 C 74.75778625835608,95.10470001006888 75.53468625835603,95.26010001006875 76.22257625835607,95.28230001006887 C 76.91047625835608,95.3043000100688 77.5094862583561,95.19330001006892 77.58457625835604,95.07160001006878 C 77.65967625835606,94.94940001006876 77.21066625835601,94.81590001006884 76.77367625835609,94.71080001006885 C 76.3366662583561,94.60570001006886 75.91181625835611,94.52910001006876 75.77571625835606,94.41830001006883 C 75.63960625835603,94.3075000100689 75.792216258356,94.16230001006875 76.19035625835602,94.00660001006872 C 76.58848625835606,93.85100001006867 77.23187625835601,93.68460001006883 77.99745625835601,93.37400001006881 C 78.76304625835598,93.06330001006882 79.65103625835604,92.60850001006884 80.02283625835605,92.27000001006877 C 80.394616258356,91.93160001006868 80.25022625835607,91.70980001006888 79.80632625835608,91.6154000100687 C 79.36243625835607,91.52140001006865 78.61918625835608,91.55440001006878 77.60396625835608,91.57640001006871 C 76.5887362583561,91.59840001006864 75.30138625835605,91.60940001006861 73.77576625835604,91.48740001006877 C 72.25015625835601,91.3654000100687 70.48456625835604,91.11000001006869 68.59361625835606,90.44990001006886 C 66.70266625835609,89.78990001006878 64.68323625835603,88.7246000100688 63.35181625835605,87.85360001006893 C 62.02037625835601,86.98260001006884 61.376986258356055,86.30600001006883 61.11622625835605,86.01750001006894 C 60.85545625835607,85.72900001006883 60.97745625835603,85.82900001006897 61.32140625835609,86.00650001006898 C 61.66532625835612,86.18400001006898 62.23111625835611,86.43890001006889 62.76925625835611,86.6608000100689 C 63.30737625835616,86.8827000100689 63.81787625835614,87.0715000100688 64.23950625835607,87.18800001006889 C 64.66110625835609,87.30450001006898 64.99398625835602,87.34890001006897 64.97740625835604,87.19800001006888 C 64.960806258356,87.04270001006898 64.59454625835599,86.68770001006897 64.25058625835607,86.37710001006894 C 63.90661625835605,86.06640001006895 63.58492625835606,85.80020001006892 63.75965625835602,85.86400001006905 C 63.934406258356034,85.92800001006913 64.60564625835605,86.32140001006906 65.16042625835598,86.64040001006902 C 65.71519625835595,86.95940001006898 66.15353625835598,87.20350001006909 66.66668625835598,87.4171000100689 C 67.179826258356,87.63060001006897 67.76769625835595,87.81370001006894 68.49996625835593,87.89970001006895 C 69.2322362583559,87.98570001006897 70.1089462583559,87.974700010069 70.08124625835592,87.80870001006906 C 70.05354625835594,87.64220001006902 69.12153625835595,87.32040001006908 68.51129625835597,87.07640001006916 C 67.90104625835602,86.83220001006907 67.61239625835594,86.66590001006921 67.57350625835602,86.52730001006921 C 67.534606258356,86.38860001006924 67.74550625835604,86.27770001006911 68.16714625835607,86.20000001006929 C 68.58877625835612,86.12200001006931 69.22150625835604,86.07780001006927 69.99816625835604,85.96680001006939 C 70.77484625835609,85.85590001006949 71.69536625835599,85.67830001006928 72.38884625835601,85.50640001006946 C 73.08230625835597,85.33440001006943 73.54839625835598,85.16800001006936 73.565046258356,85.06250001006947 C 73.58174625835602,84.95710001006955 73.14921625835598,84.91280001006953 72.47796625835599,84.7408000100695 C 71.80672625835598,84.56880001006948 70.89683625835596,84.26920001006943 69.88714625835598,83.95310001006942 C 68.877456258356,83.63680001006946 67.76788625835593,83.3037000100694 66.525196258356,82.87100001006934 C 65.28251625835605,82.43830001006927 63.90671625835603,81.90580001006924 62.808276258356045,81.46750001006944 C 61.709806258356025,81.02920001006942 60.88882625835606,80.68540001006954 60.78893625835599,80.57450001006941 C 60.68903625835594,80.46350001006931 61.310126258356036,80.58550001006938 61.89263625835599,80.67970001006938 C 62.47514625835595,80.77370001006943 63.01915625835602,80.84070001006944 63.18565625835595,80.75770001006936 C 63.35215625835599,80.67470001006927 63.141056258356,80.44150001006938 63.19065625835594,80.29730001006942 C 63.24045625835595,80.15300001006949 63.55114625835597,80.09760001006953 64.01162625835593,80.13640001006934 C 64.47212625835596,80.17540001006932 65.0824262583559,80.30820001006941 65.67044625835592,80.33600001006926 C 66.2584862583559,80.36400001006928 66.82446625835587,80.2860000100693 66.8023462583559,80.10320001006926 C 66.7801462583559,79.92010001006929 66.16983625835587,79.63130001006925 66.09767625835593,79.48160001006931 C 66.02547625835598,79.3318000100694 66.4912862583559,79.32090001006941 67.0294262583559,79.34860001006928 C 67.56755625835592,79.3766000100693 68.17814625835592,79.44260001006933 68.67742625835592,79.4096000100692 C 69.1767162583559,79.3766000100693 69.56483625835597,79.24310001006916 69.52609625835589,78.96570001006921 C 69.48729625835585,78.68830001006927 69.02137625835587,78.26680001006912 68.68296625835592,77.96170001006931 C 68.34454625835588,77.65660001006927 68.13383625835593,77.46810001006929 68.33352625835596,77.44590001006941 C 68.53318625835595,77.42390001006947 69.14329625835592,77.5678000100695 69.68696625835594,77.68430001006936 C 70.23063625835596,77.80080001006945 70.70773625835591,77.88960001006944 71.2402962583559,77.92290001006927 C 71.77286625835586,77.95590001006917 72.36104625835594,77.93390001006924 72.38880625835588,77.80640001006918 C 72.41660625835584,77.67880001006915 71.88404625835585,77.44570001006923 71.41803625835587,77.26810001006925 C 70.95202625835589,77.09060001006924 70.55253625835587,76.96870001006914 70.55250625835583,76.86890001006918 C 70.55246625835582,76.76890001006927 70.95194625835586,76.69150001006915 71.46234625835586,76.59720001006917 C 71.9727362583559,76.50320001006912 72.5940862583559,76.39180001006912 73.29865625835589,76.19770001006918 C 74.0032162583559,76.00350001006927 74.79100625835588,75.72600001006913 75.28475625835586,75.48190001006924 C 75.7785262583559,75.23790001006932 75.97816625835583,75.02700001006929 75.77844625835587,74.90490001006924 C 75.57875625835584,74.7828000100692 74.9795762583559,74.74940001006917 74.2361962583559,74.68840001006924 C 73.49279625835595,74.62740001006932 72.60517625835587,74.53880001006928 71.45127625835585,74.38350001006916 C 70.2973462583559,74.22820001006926 68.87689625835583,74.00610001006908 67.44004625835589,73.69550001006905 C 66.00319625835584,73.38480001006906 64.54974625835587,72.98560001006899 63.09070625835591,72.50290001006897 C 61.631646258355886,72.02020001006895 60.16733625835593,71.45410001006894 58.91911625835587,70.82720001006896 C 57.670886258355836,70.20030001006899 56.63899625835586,69.51240001006886 55.85121625835586,68.96870001006891 C 55.063436258355864,68.42510001006895 54.51975625835587,68.0258000100689 54.39631625835591,67.8686000100688 C 54.272886258355925,67.71130001006873 54.56975625835594,67.79660001006891 54.91065625835586,67.94060001006869 C 55.2515462583558,68.08540001006872 55.636386258355856,68.29010001006873 56.15231625835588,68.51760001006869 C 56.66826625835586,68.74520001006863 57.31518625835588,68.9958000100687 58.046526258355925,69.28220001006866 C 58.77788625835592,69.5687000100686 59.593536258355925,69.89110001006861 60.33272625835593,70.0982000100687 C 61.071906258355966,70.3052000100688 61.734506258355964,70.39690001006875 62.33770625835598,70.44840001006878 C 62.94088625835593,70.49940001006871 63.48452625835603,70.51140001006888 63.55670625835603,70.34470001006889 C 63.62890625835598,70.17820001006885 63.22982625835607,69.83400001006885 62.84147625835601,69.584300010069 C 62.45309625835603,69.3347000100689 62.07569625835606,69.17960001006895 62.20326625835605,69.10750001006909 C 62.33082625835607,69.0355000100692 62.963196258356106,69.04650001006917 63.656656258356065,69.0355000100692 C 64.35013625835609,69.02450001006923 65.10464625835607,68.9915000100691 65.64275625835603,68.88040001006925 C 66.18088625835605,68.76950001006935 66.50247625835607,68.58060001006925 66.502506258356,68.45290001006924 C 66.50253625835603,68.32530001006921 66.18079625835594,68.25900001006926 65.69260625835602,68.1148000100693 C 65.20441625835599,67.97050001006937 64.549786258356,67.74850001006939 63.83968625835598,67.45440001006932 C 63.129576258355996,67.16040001006922 62.36400625835597,66.79420001006929 61.66501625835599,66.39480001006928 C 60.96600625835595,65.99540001006926 60.333696258355985,65.5627000100692 59.73455625835595,65.13550001006934 C 59.13538625835599,64.70830001006925 58.5694562583559,64.28670001006935 58.569426258355975,64.22010001006925 C 58.569416258356,64.15310001006924 59.13537625835602,64.44200001006925 59.751166258355966,64.69720001006931 C 60.36695625835591,64.95240001006937 61.032596258355966,65.17430001006937 61.67055625835599,65.30740001006939 C 62.30852625835598,65.44060001006937 62.918726258355946,65.48500001006937 63.07409625835601,65.45170001006932 C 63.229466258355956,65.41870001006941 62.92994625835604,65.30750001006936 62.54163625835599,65.10230001006926 C 62.153306258356,64.89700001006918 61.67623625835597,64.59730001006915 61.271266258356036,64.25890001006928 C 60.86629625835599,63.92050001006919 60.53326625835598,63.54340001006926 60.294706258356086,63.26600001006932 C 60.056156258356054,62.988600010069376 59.912126258356125,62.81120001006934 60.050756258356046,62.72800001006931 C 60.18937625835599,62.645000010069225 60.610866258356054,62.65600001006942 61.07691625835605,62.744000010069385 C 61.54293625835601,62.83300001006933 62.0534362583561,62.99930001006942 62.54163625835611,63.13800001006939 C 63.029806258356075,63.27660001006939 63.495736258356146,63.38760001006949 64.00055625835614,63.45420001006937 C 64.50538625835611,63.5202000100694 65.04912625835618,63.54320001006931 65.17675625835614,63.471200010069424 C 65.30441625835613,63.399200010069535 65.01599625835615,63.23260001006952 64.64983625835612,63.06620001006945 C 64.28368625835617,62.89970001006941 63.83956625835617,62.733400010069545 63.4346062583561,62.52260001006948 C 63.02965625835611,62.31180001006942 62.66380625835609,62.05670001006956 62.44747625835612,61.840400010069516 C 62.23114625835615,61.624000010069494 62.16452625835609,61.446500010069485 62.347476258356096,61.38540001006959 C 62.53047625835609,61.32440001006967 62.96332625835612,61.3754000100696 63.39049625835605,61.429400010069685 C 63.8176662583561,61.47940001006964 64.23896625835607,61.523400010069736 64.67722625835609,61.47340001006978 C 65.11545625835606,61.42340001006983 65.5704562583561,61.279500010069796 65.65302625835614,61.18690001006985 C 65.73562625835609,61.093900010069774 65.44604625835609,61.053100010069784 65.01054625835616,60.95600001006983 C 64.57503625835614,60.85900001006985 63.99362625835613,60.70580001006988 63.32579625835615,60.52650001006987 C 62.657956258356194,60.347200010069855 61.90357625835611,60.14200001006998 61.02424625835613,59.86740001006979 C 60.14492625835612,59.59280001006982 59.140906258356154,59.24880001006977 58.03967625835617,58.80500001006976 C 56.93846625835613,58.36120001006975 55.74015625835614,57.81760001006978 54.647276258356214,57.17970001006984 C 53.5543862583562,56.54170001006992 52.566756258356236,55.809200010069844 51.950966258356175,55.29330001006974 C 51.33517625835623,54.777300010069666 51.09122625835619,54.47800001006976 51.118916258356194,54.394700010069755 C 51.146616258356175,54.31170001006967 51.44605625835618,54.44470001006971 51.83440625835624,54.63870001006967 C 52.22274625835621,54.83290001006958 52.69994625835625,55.08790001006969 53.315736258356196,55.33750001006956 C 53.931506258356194,55.58720001006964 54.68596625835619,55.831300010069526 55.35168625835615,56.06990001006966 C 56.01742625835618,56.30840001006959 56.59444625835613,56.54150001006974 57.149216258356205,56.780100010069646 C 57.70400625835623,57.01870001006955 58.23651625835623,57.26250001006974 58.72470625835615,57.4067000100697 C 59.21287625835612,57.55100001006963 59.65683625835618,57.5955000100696 59.706806258356096,57.47870001006959 C 59.75680625835605,57.3622000100695 59.412756258356126,57.08490001006953 59.113166258356046,56.81860001006953 C 58.813606258356,56.55230001006953 58.55837625835602,56.29710001006947 58.5361462583561,56.19170001006955 C 58.5139462583561,56.086300010069635 58.72475625835614,56.13070001006963 59.002146258356106,56.23570001006965 C 59.27956625835611,56.34120001006954 59.62352625835615,56.50760001006961 60.07286625835616,56.65740001006975 C 60.52219625835619,56.807200010069664 61.0771262583562,56.94030001006968 61.554196258356114,56.95140001006985 C 62.031276258356115,56.962400010069814 62.43061625835617,56.85140001006994 62.364096258356085,56.69620001006979 C 62.297596258356066,56.54080001006969 61.76482625835604,56.341300010069745 61.354296258356044,56.15260001006982 C 60.94379625835609,55.96400001006987 60.655526258356076,55.78630001006991 60.644346258355995,55.61440001006986 C 60.633146258355964,55.44250001006981 60.89937625835603,55.27630001006992 61.35983625835604,55.14860001006991 C 61.82030625835603,55.02100001006988 62.474996258355986,54.93210001006992 63.013116258356035,54.815500010069854 C 63.551236258356084,54.69910001006974 63.972586258356046,54.55470001006984 64.07250625835604,54.42710001006981 C 64.17240625835609,54.29950001006978 63.950826258356074,54.18860001006988 63.55137625835607,54.07770001006975 C 63.151916258356096,53.966700010069644 62.57497625835606,53.85600001006969 62.02019625835612,53.77830001006964 C 61.4654062583561,53.70030001006967 60.93274625835613,53.6562000100696 60.38906625835614,53.561800010069646 C 59.84540625835609,53.467800010069595 59.29047625835619,53.32320001006974 58.62476625835609,53.13460001006956 C 57.95902625835606,52.94600001006961 57.18247625835613,52.712800010069486 56.54450625835614,52.46320001006961 C 55.90651625835619,52.21350001006954 55.40741625835619,51.947400010069714 54.87485625835609,51.59230001006972 C 54.34227625835604,51.2373000100697 53.77615625835608,50.79340001006972 53.34342625835609,50.41610001006961 C 52.91071625835605,50.03890001006971 52.611296258356106,49.72850001006964 52.650086258356055,49.63420001006966 C 52.68888625835609,49.54020001006961 53.06630625835601,49.661200010069706 53.493476258356054,49.78930001006961 C 53.9206462583561,49.91690001006964 54.397486258356025,50.04990001006968 54.89121625835605,50.155300010069595 C 55.384956258356056,50.26070001006951 55.89541625835602,50.33880001006969 56.4057862583561,50.38870001006967 C 56.91617625835613,50.438700010069624 57.42640625835611,50.46070001006956 57.55404625835615,50.42670001006968 C 57.68166625835613,50.39370001006978 57.426666258356136,50.304800010069584 57.104916258356184,50.182700010069766 C 56.78314625835617,50.060700010069695 56.39481625835617,49.90510001006987 56.017576258356144,49.710900010069736 C 55.64035625835618,49.5168000100698 55.27421625835609,49.283800010069626 55.251996258356144,49.217200010069746 C 55.229796258356146,49.15020001006974 55.5514562583561,49.25020001006965 55.94532625835609,49.328300010069825 C 56.33919625835608,49.4063000100698 56.8050562583561,49.46140001006984 57.28214625835608,49.50570001006986 C 57.75925625835612,49.549700010069955 58.247716258356036,49.58370001006983 58.186706258356026,49.516700010069826 C 58.12570625835599,49.450700010069795 57.515556258356014,49.28390001006983 57.021836258356075,49.11750001006976 C 56.52810625835605,48.95100001006972 56.15075625835607,48.78460001006965 55.679216258356064,48.50160001006975 C 55.20767625835606,48.218700010069824 54.64156625835608,47.819200010069835 54.12009625835606,47.44750001006969 C 53.59859625835611,47.075900010069745 53.121796258356085,46.731900010069694 52.705726258356094,46.35470001006979 C 52.2896562583561,45.97740001006969 51.934656258356085,45.567000010069705 51.77372625835608,45.30080001006968 C 51.61282625835611,45.03460001006965 51.645826258356124,44.91240001006963 51.81222625835608,44.95670001006965 C 51.97866625835604,45.00070001006975 52.27839625835611,45.21190001006971 52.63345625835609,45.417200010069564 C 52.98847625835606,45.62240001006967 53.3989862583561,45.82210001006956 53.731866258356035,46.01630001006947 C 54.06474625835608,46.21050001006938 54.320176258356014,46.39890001006938 54.669656258355985,46.59310001006952 C 55.01914625835593,46.78730001006943 55.46276625835594,46.987100010069526 55.895456258356035,47.10360001006961 C 56.32815625835599,47.220200010069675 56.74964625835605,47.25340001006953 57.22119625835603,47.25340001006953 C 57.69274625835601,47.2535000100695 58.21428625835608,47.220400010069625 58.25314625835608,47.131400010069456 C 58.292046258356095,47.042400010069514 57.84827625835612,46.89820001006956 57.41001625835611,46.73180001006949 C 56.97174625835612,46.565400010069425 56.53894625835608,46.37690001006945 56.21165625835613,46.18270001006954 C 55.884376258356156,45.988600010069604 55.6624962583561,45.78880001006951 55.74565625835612,45.73890001006953 C 55.828856258356154,45.688900010069574 56.217356258356176,45.78890001006948 56.57796625835613,45.894200010069426 C 56.938566258356104,45.999600010069344 57.271186258356124,46.1104000100695 57.66504625835614,46.14930001006951 C 58.05890625835616,46.1883000100695 58.513736258356175,46.1593000100695 58.96863625835613,46.061300010069544 C 59.42355625835614,45.96730001006949 59.878456258356096,45.811500010069494 59.884016258356155,45.70610001006958 C 59.89001625835613,45.600600010069684 59.44593625835614,45.54500001006954 59.013196258356174,45.50060001006955 C 58.58048625835613,45.45660001006945 58.15877625835617,45.42260001006957 57.8037562583562,45.312000010069596 C 57.44874625835621,45.201100010069695 57.160256258356185,45.01260001006949 57.04924625835622,44.885100010069664 C 56.938256258356205,44.75760001006961 57.01054625835627,44.68560001006972 57.29622625835623,44.59960001006971 C 57.58191625835627,44.513600010069695 58.0924362583562,44.40240001006964 58.619456258356195,44.27480001006961 C 59.14649625835625,44.14720001006958 59.68973625835622,44.00290001006965 60.10027625835619,43.842100010069544 C 60.51080625835618,43.68120001006946 60.78852625835623,43.50390001006963 60.92729625835614,43.41510001006964 C 61.066056258356184,43.326100010069695 59.30174625835616,43.326100010069695 58.996576258356185,43.28740001006963 C 58.691396258356235,43.248400010069645 58.08118625835618,43.170700010069595 57.46540625835621,43.09310001006952 C 56.8495962583562,43.015100010069546 56.228156258356194,42.93770001006942 55.53468625835626,42.793500010069465 C 54.841236258356275,42.64930001006951 54.07579625835626,42.43860001006942 53.265866258356255,42.08910001006939 C 52.4559162583563,41.73960001006935 51.59305625835623,41.24670001006939 50.8094762583562,40.75530001006928 C 50.02587625835622,40.263900010069165 49.304726258356254,39.76450001006924 48.84427625835622,39.37620001006917 C 48.38383625835627,38.98780001006912 48.18419625835622,38.71060001006913 48.33950625835621,38.71610001006911 C 48.49480625835622,38.7261000100691 49.005386258356225,39.01000001006901 49.476936258356204,39.25960001006911 C 49.94848625835618,39.50930001006918 50.381036258356175,39.72020001006922 50.81375625835619,39.919900010069114 C 51.246486258356185,40.11970001006921 51.67921625835618,40.307900010069034 52.039816258356154,40.44110001006902 C 52.40039625835618,40.574200010069035 52.688926258356105,40.651900010069085 52.75555625835614,40.57980001006899 C 52.82215625835613,40.507800010069104 52.66665625835617,40.2859000100691 52.52796625835617,40.07500001006906 C 52.38928625835615,39.864200010069 52.26731625835612,39.664700010069055 52.32832625835613,39.664700010069055 C 52.389326258356164,39.66460001006908 52.63330625835613,39.86430001006897 52.89955625835614,40.003000010068945 C 53.165826258356105,40.14170001006892 53.45444625835614,40.21930001006899 53.71524625835616,40.369100010068905 C 53.9760362583562,40.51890001006882 54.20908625835614,40.7409000100688 54.442066258356135,40.8963000100689 C 54.67503625835616,41.051600010068796 54.90773625835618,41.14010001006886 54.9299662583561,41.034700010068946 C 54.952266258356076,40.929400010069 54.763666258356125,40.62980001006895 54.55283625835614,40.37460001006889 C 54.341996258356176,40.11940001006883 54.10901625835618,39.90870001006897 53.93704625835619,39.697900010068906 C 53.7650762583562,39.48710001006884 53.65426625835619,39.27630001006901 53.70417625835614,39.24850001006894 C 53.75407625835612,39.22050001006892 53.96506625835616,39.37610001006897 54.236886258356094,39.54810001006899 C 54.50872625835609,39.72010001006902 54.84145625835606,39.90870001006897 55.2630462583561,40.047300010068966 C 55.684636258356136,40.18600001006894 56.19492625835608,40.274900010068905 56.588786258356095,40.26380001006896 C 56.98265625835609,40.252800010068995 57.26008625835607,40.14170001006892 57.17135625835613,40.02520001006906 C 57.08265625835611,39.908600010068994 56.62758625835613,39.78650001006895 56.28365625835613,39.65330001006896 C 55.93972625835613,39.52020001006895 55.70687625835615,39.37610001006897 55.54047625835608,39.21530001006886 C 55.37406625835604,39.054400010068775 55.274166258356104,38.876900010068766 55.45157625835611,38.77700001006883 C 55.62901625835616,38.67700001006892 56.08403625835615,38.654900010068786 56.65547625835609,38.64930001006883 C 57.22689625835608,38.63930001006884 57.91468625835614,38.65930001006882 58.42506625835608,38.588300010068906 C 58.93543625835605,38.522300010068875 59.26814625835607,38.37750001006884 59.401376258356095,38.26110001006896 C 59.534616258356095,38.144500010068896 59.46827625835613,38.05580001006888 59.22413625835611,37.96140001006893 C 58.979996258356095,37.86740001006888 58.55822625835606,37.76730001006899 57.95352625835608,37.61750001006885 C 57.348806258356035,37.46770001006894 56.558526258356096,37.26720001006879 55.766526258356066,37.11780001006878 C 54.97450625835609,36.96840001006876 54.175826258356096,36.86850001006883 53.29931625835604,36.61330001006877 C 52.422796258356016,36.35810001006871 51.468416258356,35.947600010068754 50.91921625835607,35.65910001006887 C 50.37001625835603,35.37070001006896 50.22578625835604,35.20420001006892 50.46429625835606,35.243000010068954 C 50.70280625835608,35.28200001006894 51.32409625835601,35.52590001006888 51.90660625835608,35.70340001006889 C 52.48908625835611,35.881000010068874 53.03279625835603,35.991900010069 53.45439625835604,36.01410001006889 C 53.87600625835603,36.03610001006882 54.17552625835606,35.97010001006879 54.23106625835601,35.86990001006893 C 54.28656625835606,35.76990001006902 54.09806625835597,35.636900010068985 53.976036258355975,35.50380001006897 C 53.85400625835598,35.37070001006896 53.79852625835599,35.23750001006897 54.00373625835596,35.22640001006903 C 54.20894625835592,35.21540001006906 54.67480625835594,35.32640001006894 55.063126258355965,35.37060001006898 C 55.45145625835596,35.41460001006908 55.76216625835593,35.39260001006892 55.79547625835596,35.35360001006893 C 55.828776258356015,35.31460001006894 55.58468625835599,35.25960001006888 55.451586258355974,35.16520001006893 C 55.318496258355935,35.07120001006888 55.29638625835594,34.937900010068915 55.41838625835601,34.843500010068965 C 55.54034625835595,34.749500010068914 55.80656625835604,34.693600010069076 56.12833625835606,34.61040001006904 C 56.45010625835607,34.52740001006896 56.82748625835609,34.41620001006913 57.11597625835611,34.299700010069046 C 57.40445625835616,34.18320001006896 57.60406625835617,34.06130001006909 57.60412625835613,33.9281000100691 C 57.60420625835616,33.794900010069114 57.404406258356175,33.65080001006913 57.01602625835608,33.562100010069116 C 56.62762625835603,33.473100010069174 56.05080625835603,33.43980001006912 55.42392625835612,33.37320001006901 C 54.79704625835609,33.30720001006898 54.12005625835616,33.206800010068946 53.365566258356125,33.09580001006907 C 52.61107625835609,32.98490001006917 51.7789862583561,32.8629000100691 51.00233625835608,32.61320001006902 C 50.22568625835606,32.36360001006892 49.504476258356135,31.986500010068994 48.82766625835609,31.576000010069038 C 48.15085625835604,31.165400010069106 47.51832625835607,30.721400010069146 47.03012625835606,30.30540001006898 C 46.54193625835603,29.889300010069064 46.19816625835608,29.500900010069017 46.153766258356086,29.414900010069005 C 46.10936625835609,29.328900010068992 46.36446625835606,29.545400010068988 46.686236258356075,29.7868000100691 C 47.00798625835603,30.02810001006901 47.39640625835602,30.294300010069037 47.87905625835606,30.58000001006917 C 48.361696258356005,30.865700010069077 48.93848625835608,31.170800010069115 49.532086258356,31.401000010069083 C 50.125656258356,31.63120001006905 50.73618625835604,31.78660001006915 51.04135625835602,31.864200010069 C 51.34652625835599,31.942200010068973 52.44483625835596,31.942200010068973 52.344946258356,31.875200010068966 C 52.245046258355956,31.809200010068935 52.045416258356,31.675600010069047 51.85125625835599,31.50920001006898 C 51.65710625835595,31.342800010068913 51.468606258355976,31.143000010069045 51.485206258356015,31.08750001006888 C 51.501806258356055,31.03150001006884 51.72360625835597,31.12050001006878 52.03428625835602,31.242800010068777 C 52.34495625835598,31.364900010068823 52.74440625835598,31.520100010068745 53.11053625835598,31.631000010068874 C 53.476666258355976,31.742000010068978 53.809586258356035,31.808900010068783 53.83735625835595,31.73680001006892 C 53.86515625835591,31.66480001006903 53.587696258356004,31.45360001006884 53.238186258355995,31.253900010068946 C 52.88864625835595,31.054200010069053 52.46701625835601,30.86580001006905 52.50581625835605,30.83800001006898 C 52.544616258356086,30.81000001006896 53.04374625835601,30.94320001006895 53.53751625835605,31.126300010068917 C 54.031276258356,31.309400010068885 54.51945625835606,31.542200010068882 54.95213625835606,31.642100010068816 C 55.38482625835604,31.742100010068725 55.76218625835611,31.709100010068823 55.78997625835609,31.609100010068914 C 55.81777625835605,31.509100010069005 55.49609625835615,31.343000010068863 55.21874625835608,31.14330001006897 C 54.94138625835603,30.943600010069076 54.708226258356035,30.71080001006908 54.71925625835604,30.616500010068876 C 54.730356258356096,30.522500010068825 54.98576625835608,30.56650001006892 55.368536258356016,30.599500010068823 C 55.75131625835604,30.632500010068725 56.26133625835598,30.654500010068887 56.688496258356054,30.555500010068727 C 57.11563625835606,30.455500010068818 57.459966258356076,30.233800010068762 57.38787625835607,30.083900010068646 C 57.315776258356095,29.934100010068732 56.827466258356026,29.856500010068658 56.36146625835602,29.773300010068624 C 55.89543625835597,29.69030001006854 55.451446258355986,29.601000010068674 54.780186258356025,29.451200010068533 C 54.108916258355976,29.30140001006862 53.210356258356,29.091000010068456 52.36156625835599,28.78030001006846 C 51.51278625835596,28.46960001006846 50.713956258356006,28.05900001006853 50.009406258355966,27.59300001006841 C 49.30487625835599,27.127000010068514 48.69474625835596,26.605300010068504 48.234276258355976,26.19480001006832 C 47.77382625835594,25.784300010068364 47.46308625835593,25.484600010068334 47.518536258355994,25.47910001006835 C 47.574036258356045,25.46910001006836 47.99569625835602,25.762200010068455 48.41730625835601,25.96740001006833 C 48.83890625835602,26.17270001006841 49.26043625835598,26.29480001006823 49.74305625835598,26.389100010068432 C 50.22568625835595,26.483100010068483 50.76947625835601,26.550000010068516 51.23546625835593,26.533400010068362 C 51.70145625835596,26.51640001006831 52.08963625835588,26.41700001006825 52.095206258355915,26.328200010068258 C 52.10120625835589,26.239200010068316 51.72344625835592,26.16140001006829 51.36838625835594,26.08370001006824 C 51.01332625835596,26.005700010068267 50.6805862583559,25.92870001006827 50.691666258355895,25.895400010068215 C 50.70276625835595,25.862400010068313 51.05779625835589,25.87340001006828 51.48495625835585,25.823400010068326 C 51.912106258355834,25.77340001006837 52.41157625835581,25.662200010068318 52.44489625835581,25.556700010068425 C 52.47829625835584,25.451300010068508 52.04548625835582,25.35150001006832 51.657156258355826,25.25710001006837 C 51.26879625835579,25.16310001006832 50.92478625835588,25.074100010068378 50.45879625835585,24.91880001006848 C 49.99279625835584,24.763500010068583 49.4046462583558,24.541600010068578 48.81105625835585,24.225500010068572 C 48.2174662583559,23.909200010068616 47.61833625835584,23.498500010068483 47.09684625835587,23.10460001006868 C 46.575376258355845,22.71070001006865 46.13153625835582,22.333700010068696 45.85971625835589,22.03410001006864 C 45.58789625835584,21.73460001006856 45.488106258355856,21.512700010068556 45.515816258355926,21.457200010068618 C 45.54351625835591,21.401200010068578 45.69872625835592,21.512200010068682 45.92064625835587,21.678900010068674 C 46.14254625835588,21.845400010068715 46.43106625835583,22.067200010068746 46.819416258355886,22.316900010068593 C 47.20773625835591,22.566500010068694 47.69614625835584,22.843900010068637 48.245356258355855,23.093600010068485 C 48.7945562583559,23.343200010068585 49.404676258355835,23.56510001006859 50.037106258355834,23.681700010068425 C 50.66952625835586,23.798200010068513 51.32412625835582,23.809300010068455 51.76238625835583,23.781700010068334 C 52.20065625835582,23.753700010068314 52.4223862583558,23.687700010068284 52.46125625835589,23.63190001006842 C 52.5001562583559,23.576900010068357 52.35601625835591,23.53180001006831 52.05089625835592,23.43760001006831 C 51.745786258355906,23.343600010068258 51.279756258355974,23.199400010068302 50.95802625835597,23.04960001006839 C 50.63629625835597,22.899800010068475 50.458826258356,22.744200010068425 50.61412625835601,22.733100010068483 C 50.76942625835602,22.722100010068516 51.257476258356064,22.855100010068554 51.823306258355956,22.91620001006845 C 52.389166258356,22.977200010068373 53.03272625835598,22.966200010068405 53.52089625835595,22.866200010068496 C 54.00908625835598,22.766200010068587 54.34185625835596,22.578000010068536 54.186546258355975,22.41160001006847 C 54.03123625835599,22.245100010068427 53.38792625835595,22.100800010068497 52.788796258356,21.88990001006846 C 52.18965625835597,21.679100010068396 51.634816258355954,21.401400010068528 50.98018625835596,21.140700010068485 C 50.32552625835592,20.880000010068443 49.57110625835594,20.63600001006853 48.9220762583559,20.25320001006844 C 48.27301625835594,19.870500010068326 47.72951625835594,19.34890001006852 47.11371625835591,18.744200010068425 C 46.49791625835587,18.139500010068332 45.809916258355884,17.451600010068432 45.31617625835588,16.91900001006843 C 44.82244625835585,16.386400010068428 44.522976258355925,16.0093000100685 44.489666258355896,15.909500010068541 C 44.45636625835584,15.809500010068632 44.689246258355865,15.98650001006854 45.0387462583559,16.175600010068592 C 45.38822625835587,16.364200010068544 45.85436625835587,16.56420001006859 46.34812625835593,16.786100010068594 C 46.841886258355885,17.0080000100686 47.363026258355944,17.252000010068514 47.77356625835591,17.457200010068618 C 48.18409625835591,17.662500010068698 48.483596258355874,17.829000010068512 48.77756625835593,17.873400010068508 C 49.07153625835588,17.917400010068604 49.36023625835594,17.840400010068606 49.3991562583559,17.701400010068483 C 49.438056258355914,17.56270001006851 49.22726625835594,17.362700010068465 48.894386258355894,17.113100010068592 C 48.56150625835585,16.863400010068517 48.106406258355946,16.563900010068664 47.784646258355906,16.32530001006853 C 47.462896258355954,16.0868000100686 47.27440625835595,15.909500010068541 47.40751625835594,15.920500010068508 C 47.54064625835599,15.931500010068476 47.99559625835593,16.131200010068596 48.47823625835599,16.303200010068622 C 48.96086625835596,16.475200010068647 49.47121625835598,16.619400010068603 49.89838625835603,16.736000010068665 C 50.32556625835605,16.852500010068752 50.66950625835602,16.941100010068567 50.64735625835601,16.79100001006873 C 50.625156258356014,16.64130001006879 50.236766258356056,16.253000010068718 49.770746258355985,15.86460001006867 C 49.304736258356,15.476200010068624 48.761076258355956,15.088200010068704 48.056536258356005,14.444700010068573 C 47.35197625835599,13.801100010068467 46.48648625835597,12.90230001006853 45.776386258355956,11.765000010068661 C 45.06629625835592,10.627700010068565 44.51172625835591,9.251900010068766 44.112276258355905,7.74850001006871 C 43.71284625835585,6.245100010068654 43.51214625835587,4.607300010068684 43.3522362583559,3.754400010068821 C 42.963166258355955,1.6794000100687754 42.99225625835595,1.6707000100689129 42.88622625835592,1.2189000100688645 C 42.77492625835589,0.7447000100687546 42.59207625835597,-9.99899311864283e-05 42.42073625835587,1.0068788469652645e-08 L 42.42061625835652,1.0067878974950872e-08" id="path2035-1" style="fill:#1a1a1a;stroke-width:0.922646;stroke-linecap:round;stroke-linejoin:round;stroke-dashoffset:2.43;paint-order:stroke fill markers"/>
</svg>
