<?xml version="1.0" ?>
<svg xmlns="http://www.w3.org/2000/svg" xmlns:cc="http://creativecommons.org/ns#" xmlns:dc="http://purl.org/dc/elements/1.1/" xmlns:ev="http://www.w3.org/2001/xml-events" xmlns:rdf="http://www.w3.org/1999/02/22-rdf-syntax-ns#" xmlns:svg="http://www.w3.org/2000/svg" xmlns:xlink="http://www.w3.org/1999/xlink" baseProfile="full" height="119" id="svg8" transform="scale(1.4705882352941178 1.4705882352941178) translate(-34.0 -59.5)" version="1.1" viewBox="0 0 68 119" width="68">
	<defs/>
	<path d="M 33.53620864358595,5.310002279657056e-06 C 33.361368643585934,5.310002279657056e-06 33.194118643585966,0.17320531000223127 33.152778643585975,0.5130053100021996 C 32.98095864358595,1.9258053100022607 32.95442864358597,2.598205310002186 32.393988643586,4.732705310002302 C 31.833568643585977,6.8673053100023935 30.992978643585957,8.927605310002264 30.275978643585972,10.254505310002287 C 29.558978643585988,11.581305310002335 28.965448643586,12.17490531000226 28.355578643586,12.702305310002203 C 27.745708643586,13.22980531000212 27.119718643585998,13.69100531000231 25.998888643586042,14.193705310002315 C 24.87806864358606,14.69640531000232 23.262628643586027,15.24070531000234 22.809398643586064,15.570305310002368 C 22.356168643586102,15.90000531000237 23.064898643586048,16.01550531000248 24.185748643586066,15.99070531000234 C 25.306578643586022,15.96570531000225 26.839308643586037,15.801005310002438 27.131788643586106,16.423305310002434 C 27.424288643586124,17.04560531000243 26.476718643586082,18.45470531000251 25.57015864358607,19.550805310002488 C 24.66358864358608,20.646905310002467 23.79802864358612,21.429905310002596 23.068708643586092,21.912105310002516 C 22.339368643586113,22.394205310002462 21.74604864358605,22.575205310002502 21.54003864358606,22.715405310002552 C 21.334048643586016,22.855605310002602 21.51553864358607,22.95470531000251 21.968788643586095,22.995905310002627 C 22.42205864358607,23.036905310002567 23.147128643586143,23.020905310002718 23.97125864358611,22.863905310002565 C 24.79536864358613,22.70730531000254 25.71859864358612,22.410605310002666 26.452058643586156,22.04800531000251 C 27.185518643586192,21.68540531000258 27.7295086435862,21.256605310002442 27.795418643586117,21.40500531000248 C 27.861318643586173,21.553405310002518 27.44933864358609,22.279005310002503 26.975448643586105,23.070205310002393 C 26.501568643586097,23.861305310002308 25.965778643586077,24.718305310002506 25.43420864358609,25.418805310002426 C 24.902628643586127,26.119305310002346 24.375188643586057,26.663405310002418 23.876588643586047,27.100205310002366 C 23.377988643586036,27.537005310002314 22.908118643586022,27.866505310002367 21.931528643586034,28.241505310002367 C 20.954938643586047,28.616405310002392 19.471768643586074,29.03650531000244 19.183358643586075,29.325005310002325 C 18.89491864358604,29.613505310002438 19.801178643586127,29.77020531000244 20.707738643586026,29.889705310002228 C 21.61429864358604,30.009205310002244 22.520808643586065,30.0918053100022 23.443828643586016,29.984705310002255 C 24.366848643585968,29.87760531000231 25.306438643586034,29.58070531000226 25.62779864358606,29.75390531000221 C 25.949158643586088,29.927005310002187 25.652398643586025,30.569805310002266 25.116738643586018,31.43100531000232 C 24.581048643585973,32.29230531000235 23.806288643586072,33.3718053100024 22.924458643586036,34.33610531000227 C 22.042628643586,35.30030531000216 21.05366864358598,36.149205310002344 20.21303864358606,36.75490531000219 C 19.372408643586027,37.36070531000223 18.680338643586083,37.72330531000216 17.806758643586022,38.0447053100022 C 16.93318864358605,38.36610531000224 15.878218643586024,38.64640531000214 15.622778643586003,38.86890531000222 C 15.367338643585981,39.091505310002276 15.911448643586027,39.256405310002265 16.55427864358603,39.38000531000216 C 17.197108643586034,39.50360531000206 17.938708643585983,39.58590531000209 18.56504864358601,39.61890531000222 C 19.191398643586012,39.65190531000212 19.702138643585954,39.63590531000227 19.866878643586006,39.775505310002245 C 20.031628643586032,39.91560531000232 19.850578643586005,40.21230531000219 19.578608643585994,40.5914053100023 C 19.30664864358596,40.97050531000241 18.94410864358599,41.43210531000227 18.499078643586017,41.86890531000222 C 18.054048643586043,42.30560531000219 17.52636864358601,42.71750531000225 16.817608643586027,43.18730531000233 C 16.108858643586018,43.65710531000241 15.21897864358607,44.184605310002325 14.947058643586047,44.481305310002426 C 14.675148643585999,44.7781053100025 15.021258643586066,44.84380531000238 15.721718643586087,44.777905310002325 C 16.42221864358612,44.711905310002294 17.477168643586083,44.51430531000233 18.37547864358612,44.291805310002246 C 19.27378864358616,44.06920531000219 20.015658643586107,43.821905310002194 20.69967864358614,43.52520531000232 C 21.383708643586147,43.22850531000222 22.00978864358615,42.88240531000224 22.28172864358612,42.791805310002246 C 22.553648643586143,42.70080531000235 22.471358643586086,42.865805310002315 22.19942864358609,43.282205310002155 C 21.927448643586104,43.698405310002045 21.465868643586077,44.366005310002265 20.926048643586114,45.00470531000224 C 20.38622864358615,45.64340531000221 19.768308643586124,46.25320531000216 18.968898643586158,46.83420531000229 C 18.16948864358619,47.41520531000219 17.18883864358611,47.96740531000228 16.096858643586188,48.424805310002284 C 15.004878643586153,48.88220531000229 13.801498643586228,49.24460531000227 13.467768643586169,49.50840531000222 C 13.134038643586223,49.77210531000219 13.669778643586142,49.937405310002305 14.526908643586125,50.184605310002325 C 15.384028643586134,50.431805310002346 16.562398643586107,50.761405310002374 17.567868643586166,50.93030531000227 C 18.573328643586137,51.09920531000216 19.40553864358617,51.10740531000238 19.706288643586163,51.272205310002164 C 20.007018643586207,51.43700531000218 19.776388643586188,51.75850531000219 19.46737864358613,52.17470531000208 C 19.15830864358611,52.59090531000197 18.77098864358618,53.10200531000214 17.876778643586135,53.92620531000216 C 16.98257864358618,54.75040531000218 15.5814486435861,55.8875053100021 14.13920864358613,56.71160531000214 C 12.696978643586135,57.535705310002186 11.2137886435861,58.04660531000218 10.842978643586093,58.359905310002205 C 10.472148643586138,58.673105310002256 11.213548643586137,58.788505310002165 12.087148643586147,58.89560531000211 C 12.960748643586157,59.00270531000206 13.966518643586141,59.101605310002014 14.873078643586155,59.14280531000213 C 15.779638643586168,59.18380531000207 16.587218643586198,59.16780531000222 16.817888643586116,59.45600531000218 C 17.048558643586148,59.744505310002296 16.70227864358617,60.33790531000227 16.1665986435861,60.95600531000218 C 15.630898643586079,61.574105310002096 14.905598643586131,62.2168053100022 13.838358643586048,62.785505310002236 C 12.771108643586103,63.354105310002296 11.362048643586036,63.84860531000231 11.015928643585994,64.15350531000217 C 10.669828643586015,64.45850531000224 11.386798643585962,64.57380531000217 12.169718643585952,64.59030531000212 C 12.952648643585917,64.60730531000218 13.801668643585913,64.52430531000209 14.526908643585898,64.39240531000223 C 15.252148643585883,64.26060531000212 15.85355864358587,64.07950531000233 16.38512864358586,63.88990531000218 C 16.916698643585846,63.700405310002225 17.37834864358581,63.50250531000211 17.501908643585807,63.634405310002194 C 17.625488643585754,63.76630531000228 17.411208643585837,64.22790531000214 16.99914864358584,64.9038053100021 C 16.587088643585844,65.5795053100021 15.977188643585805,66.4695053100022 15.375578643585868,67.2154053100021 C 14.773958643585843,67.96120531000201 14.180598643585881,68.56260531000203 13.504788643585812,69.13960531000203 C 12.82898864358583,69.71650531000205 12.070508643585868,70.26880531000211 11.040348643585844,70.767405310002 C 10.010178643585846,71.2660053100019 8.708428643585876,71.71110531000204 8.321128643585894,71.98310531000197 C 7.933818643585937,72.25510531000191 8.460898643585892,72.35380531000192 9.074898643585925,72.46100531000207 C 9.688878643585895,72.56810531000201 10.389698643585916,72.68360531000212 11.43635864358589,72.70410531000198 C 12.483038643585928,72.72510531000194 13.875518643585906,72.65110531000187 15.000468643585918,72.403305310002 C 16.125408643585956,72.156005310002 16.982548643585915,71.73560531000203 17.35337864358587,71.6573053100019 C 17.72419864358585,71.57930531000193 17.60886864358588,71.84290531000192 17.229768643585885,72.5599053100018 C 16.85064864358594,73.2769053100019 16.2078786435859,74.44700531000171 15.457908643585938,75.60090531000174 C 14.707918643585913,76.75470531000178 13.850738643585942,77.89200531000165 12.828818643585919,78.84800531000178 C 11.806898643585896,79.80400531000168 10.620278643585948,80.5789053100018 9.326388643585915,81.15580531000182 C 8.032488643585907,81.73280531000182 6.631578643585954,82.1115053100018 6.227788643585882,82.39170531000173 C 5.823998643585924,82.67200531000162 6.4170286435859225,82.85350531000176 7.282388643585932,83.05130531000168 C 8.147748643585942,83.2491053100016 9.285438643585962,83.46330531000172 10.447458643585946,83.44680531000176 C 11.609488643585905,83.42980531000171 12.795928643585967,83.18310531000179 13.990918643585928,82.7628053100018 C 15.185918643585978,82.3425053100018 16.38935864358598,81.74900531000185 16.75193864358596,81.79030531000171 C 17.11451864358594,81.83130531000165 16.636318643585923,82.50730531000181 15.989358643586002,83.31490531000168 C 15.342398643585966,84.12260531000175 14.526508643585998,85.06220531000167 13.570488643586032,85.95630531000165 C 12.614488643586014,86.85050531000161 11.518378643586061,87.69920531000162 10.591208643586015,88.31730531000176 C 9.664048643586057,88.93540531000167 8.906098643586006,89.32290531000172 7.801758643586027,89.65660531000185 C 6.697398643585984,89.99040531000196 5.2469586435860265,90.27060531000188 4.752498643586023,90.49320531000194 C 4.258058643585969,90.715805310002 4.719598643585982,90.88060531000201 5.308878643586013,91.06190531000198 C 5.898148643586069,91.24330531000192 6.615138643585965,91.44090531000188 7.4598786435859665,91.56440531000203 C 8.304618643585968,91.68800531000193 9.276968643585974,91.73770531000196 10.154668643585978,91.61440531000198 C 11.032348643586033,91.49070531000189 11.815308643585922,91.19420531000196 11.893548643585973,91.38370531000191 C 11.971848643585986,91.57330531000184 11.345258643586021,92.2488053100019 10.61587864358603,93.01940531000196 C 9.886508643586012,93.79000531000202 9.054268643586056,94.65560531000187 8.201288643586054,95.3149053100019 C 7.348318643586026,95.97420531000193 6.4746886435860915,96.42730531000188 5.547538643586108,96.74460531000182 C 4.620388643586125,97.06190531000175 3.6397386435861563,97.24330531000192 3.1493186435860707,97.33400531000188 C 2.658888643586124,97.42500531000178 1.818458643586041,97.4240053100018 1.975118643586029,97.56460531000198 C 2.131788643585992,97.70470531000205 2.44487864358598,97.98530531000188 3.038278643586068,98.26550531000203 C 3.631678643586042,98.54560531000197 4.505278643586053,98.82580531000212 5.378858643586113,98.90820531000213 C 6.252448643586149,98.99020531000224 7.126078643586084,98.87520531000223 8.032618643586147,98.57010531000219 C 8.939158643586097,98.2652053100021 9.87843864358615,97.77070531000209 10.24101864358613,97.6965053100023 C 10.60359864358611,97.62250531000223 10.389538643586093,97.96850531000223 9.952758643586094,98.39290531000233 C 9.51596864358612,98.81730531000244 8.856568643586115,99.31990531000224 7.917058643586074,99.71960531000241 C 6.977548643586033,100.11930531000235 5.757738643586094,100.41630531000237 5.667128643586125,100.65940531000251 C 5.57652864358613,100.9026053100024 6.615128643586104,101.09220531000256 7.492848643586171,101.18280531000255 C 8.370578643586214,101.27380531000244 9.087588643586173,101.26480531000266 9.878748643586164,101.08780531000252 C 10.669908643586155,100.91060531000244 11.535008643586139,100.56450531000246 12.322038643586211,100.0000053100025 C 13.109078643586258,99.43550531000255 13.817848643586217,98.65250531000243 14.081558643586163,98.44230531000244 C 14.345278643586198,98.23220531000243 14.16395864358617,98.59470531000238 13.834338643586193,99.22100531000251 C 13.504668643586228,99.84740531000261 13.026648643586213,100.73770531000241 12.367348643586183,101.4752053100026 C 11.708058643586128,102.2129053100025 10.867478643586196,102.79790531000253 10.068058643586141,103.26350531000253 C 9.268628643586112,103.7292053100025 8.510378643586137,104.07530531000248 7.628558643586189,104.34730531000264 C 6.746728643586152,104.61930531000257 5.741318643586169,104.81720531000269 4.859478643586158,104.93670531000271 C 3.977638643586147,105.05620531000272 3.2194786435861715,105.09720531000266 2.337648643586135,105.03170531000274 C 1.455818643586099,104.9657053100027 0.4505286435861535,104.79290531000265 0.12496864358615767,104.90830531000279 C -0.20059135641383818,105.0238053100029 0.15356864358614075,105.42750531000274 0.6851286435861539,106.03320531000281 C 1.2167086435861165,106.63890531000288 1.9255286435861763,107.44670531000293 2.9433786435861293,108.2131053100029 C 3.961238643586171,108.97960531000285 5.288158643586144,109.70460531000299 6.355418643586177,110.08370531000287 C 7.4226786435862095,110.46270531000278 8.230248643586151,110.4957053100029 9.037888643586143,110.38030531000277 C 9.84553864358611,110.26490531000286 10.65320864358614,110.00130531000286 10.875698643586134,109.99310531000287 C 11.098178643586152,109.98310531000288 10.735508643586172,110.23210531000291 10.24101864358613,110.58640531000287 C 9.746518643586114,110.94080531000282 9.12010864358615,111.40230531000293 8.518518643586162,111.73190531000296 C 7.916908643586112,112.06160531000296 7.340338643586165,112.25940531000288 6.442028643586127,112.383005310003 C 5.543728643586178,112.5066053100029 4.323938643586075,112.55630531000293 3.9118786435860784,112.67180531000304 C 3.4998286435860564,112.78720531000295 3.8953786435861275,112.96830531000296 4.719508643586096,113.21550531000298 C 5.543668643586102,113.46280531000298 6.796398643586144,113.77580531000308 8.032618643586147,113.973605310003 C 9.26883864358615,114.17130531000294 10.48862864358614,114.2540053100031 11.469328643586095,114.14680531000295 C 12.450018643586077,114.039705310003 13.191498643586101,113.74320531000285 13.924958643586137,113.26520531000301 C 14.658438643586123,112.78710531000297 15.383708643586147,112.12750531000302 15.672148643586183,112.02050531000305 C 15.960578643586132,111.9134053100031 15.812198643586157,112.35850531000301 15.540238643586235,112.84470531000306 C 15.268268643586225,113.33100531000309 14.87284864358628,113.85830531000306 14.444338643586207,114.20440531000304 C 14.015818643586158,114.55050531000302 13.554208643586207,114.715405310003 13.515108643586245,114.83080531000314 C 13.476008643586283,114.94620531000305 13.859288643586297,115.01230531000306 14.485618643586236,114.97100531000319 C 15.111958643586263,114.93000531000325 15.981418643586267,114.78150531000324 16.861188643586274,114.59190531000309 C 17.740968643586257,114.40230531000316 18.63101864358623,114.17140531000314 19.50664864358623,113.81500531000302 C 20.382298643586182,113.45850531000292 21.243588643586236,112.97650531000295 21.53200864358621,112.9270053100031 C 21.820428643586183,112.87800531000312 21.53600864358623,113.26110531000313 21.216568643586243,113.64430531000312 C 20.897208643586282,114.02750531000311 20.542878643586278,114.41040531000317 19.891828643586223,114.78950531000305 C 19.240788643586257,115.16860531000316 18.293218643586215,115.54350531000296 18.188198643586247,115.74340531000303 C 18.083158643586216,115.9433053100031 18.82068864358621,115.96820531000299 19.76846864358629,115.95990531000302 C 20.71623864358628,115.94990531000303 21.874108643586283,115.90990531000307 23.042298643586264,115.58080531000292 C 24.21049864358622,115.25110531000291 25.38892864358627,114.63290531000303 25.8936886435863,114.45170531000281 C 26.39845864358631,114.27040531000284 26.229368643586326,114.52570531000288 25.990388643586357,114.84720531000289 C 25.751388643586324,115.16860531000293 25.442338643586368,115.55610531000298 24.846918643586378,115.98460531000296 C 24.251488643586413,116.41310531000295 23.369708643586364,116.88310531000297 23.03804864358642,117.13870531000293 C 22.706388643586365,117.39420531000292 22.924848643586415,117.43510531000288 23.481138643586405,117.44330531000287 C 24.03743864358637,117.45330531000286 24.931568643586388,117.42630531000282 25.85872864358646,117.27430531000277 C 26.785888643586418,117.12190531000283 27.746008643586492,116.84180531000288 28.491848643586422,116.52030531000287 C 29.237678643586378,116.19890531000283 29.769258643586454,115.8363053100029 30.15040864358639,115.54780531000279 C 30.209508643586332,115.50280531000271 30.251028643586437,115.47180531000276 30.303978643586333,115.43030531000272 L 30.303978643586333,118.75820531000272 L 36.81438864358631,118.75820531000272 L 36.81438864358631,115.43030531000272 C 36.86738864358631,115.47130531000266 36.90888864358635,115.50330531000282 36.96795864358626,115.54780531000279 C 37.349108643586305,115.8363053100029 37.88043864358622,116.19890531000283 38.626268643586286,116.52030531000287 C 39.37208864358627,116.84180531000288 40.33247864358634,117.12190531000283 41.2596386435863,117.27430531000277 C 42.18679864358626,117.42680531000269 43.08067864358634,117.45150531000286 43.63696864358633,117.44330531000287 C 44.19327864358638,117.43330531000288 44.41172864358634,117.39430531000289 44.08005864358631,117.13870531000293 C 43.748408643586345,116.88310531000297 42.86661864358632,116.41310531000295 42.27119864358633,115.98460531000296 C 41.675788643586316,115.55610531000298 41.366728643586384,115.16860531000293 41.12771864358638,114.84720531000289 C 40.888718643586344,114.52580531000285 40.71987864358641,114.27040531000284 41.22461864358638,114.45170531000281 C 41.72938864358639,114.6329053100028 42.90780864358635,115.25110531000291 44.07600864358642,115.58080531000292 C 45.244188643586426,115.91050531000292 46.402068643586404,115.95170531000281 47.34984864358637,115.95990531000302 C 48.297628643586336,115.96990531000301 49.03514864358635,115.94290531000297 48.93010864358632,115.74340531000303 C 48.825088643586355,115.54350531000296 47.87753864358638,115.16860531000293 47.22647864358635,114.78950531000305 C 46.57543864358638,114.41040531000294 46.22084864358635,114.02750531000311 45.90148864358639,113.64430531000312 C 45.58212864358643,113.26110531000313 45.29786864358641,112.87760531000322 45.586288643586386,112.9270053100031 C 45.874718643586334,112.97600531000307 46.73601864358636,113.45850531000315 47.61166864358643,113.81500531000302 C 48.4873086435864,114.17140531000291 49.3770786435864,114.40230531000293 50.25686864358647,114.59190531000309 C 51.136648643586454,114.78150531000301 52.006338643586446,114.92980531000308 52.63268864358645,114.97100531000319 C 53.2590186435865,115.01300531000311 53.64206864358641,114.9460053100031 53.602958643586476,114.83080531000314 C 53.563858643586514,114.71540531000323 53.1024986435865,114.55050531000325 52.67397864358645,114.20440531000304 C 52.24546864358649,113.85830531000306 51.85004864358643,113.33090531000312 51.5780886435864,112.84470531000306 C 51.30611864358639,112.35850531000301 51.15772864358644,111.9134053100031 51.44616864358636,112.02050531000305 C 51.7346086435864,112.12750531000302 52.45986864358633,112.78710531000297 53.19334864358632,113.26520531000301 C 53.92681864358633,113.74320531000308 54.668268643586316,114.03960531000303 55.64896864358627,114.14680531000295 C 56.62967864358632,114.25400531000287 57.849468643586306,114.17080531000283 59.08568864358631,113.973605310003 C 60.32191864358629,113.77580531000308 61.57464864358633,113.46280531000298 62.398808643586335,113.21550531000298 C 63.22295864358637,112.96830531000296 63.618488643586375,112.78720531000295 63.20643864358635,112.67180531000304 C 62.794378643586356,112.55630531000293 61.57458864358637,112.50660531000312 60.676288643586304,112.383005310003 C 59.777978643586266,112.2594053100031 59.20116864358636,112.06160531000296 58.599558643586306,111.73190531000296 C 57.997958643586344,111.40230531000293 57.37153864358629,110.94080531000304 56.877038643586275,110.58640531000287 C 56.38254864358623,110.23210531000291 56.02011864358633,109.98490531000289 56.2426186435863,109.99310531000287 C 56.46510864358629,110.00310531000287 57.27254864358633,110.26490531000286 58.080188643586325,110.38030531000277 C 58.88783864358629,110.49570531000268 59.69537864358631,110.46230531000288 60.76263864358634,110.08370531000287 C 61.829898643586375,109.70460531000276 63.157078643586374,108.97960531000285 64.17494864358639,108.2131053100029 C 65.19279864358634,107.44670531000293 65.9013486435864,106.63890531000288 66.43293864358634,106.03320531000281 C 66.9645186435863,105.42750531000274 67.31890864358638,105.0238053100029 66.99334864358639,104.90830531000279 C 66.66778864358639,104.79290531000288 65.6622486435864,104.96630531000278 64.78040864358638,105.03170531000274 C 63.898588643586436,105.09770531000277 63.14041864358637,105.05670531000283 62.25857864358636,104.93670531000271 C 61.37673864358635,104.81720531000269 60.37133864358634,104.6193053100028 59.48951864358639,104.34730531000264 C 58.607698643586446,104.0753053100027 57.84941864358643,103.72910531000275 57.04999864358638,103.26350531000253 C 56.25057864358632,102.79780531000256 55.410008643586366,102.2129053100025 54.750708643586336,101.4752053100026 C 54.091408643586306,100.73770531000264 53.61365864358629,99.84740531000261 53.28397864358635,99.22100531000251 C 52.95432864358634,98.59470531000261 52.77303864358635,98.23220531000243 53.03675864358638,98.44230531000244 C 53.30046864358633,98.65250531000243 54.009248643586375,99.43540531000235 54.796278643586334,100.0000053100025 C 55.583328643586356,100.56450531000246 56.448418643586365,100.91060531000244 57.23956864358638,101.08780531000252 C 58.030738643586346,101.2650053100026 58.747728643586356,101.27340531000254 59.6254586435864,101.18280531000255 C 60.50316864358638,101.09180531000266 61.54181864358645,100.90260531000263 61.451198643586395,100.65940531000251 C 61.3605986435864,100.4163053100026 60.14075864358642,100.11930531000257 59.20124864358638,99.71960531000241 C 58.26174864358643,99.31990531000247 57.602348643586424,98.81730531000244 57.16555864358634,98.39290531000233 C 56.72878864358631,97.96850531000223 56.51446864358638,97.62240531000225 56.87703864358639,97.6965053100023 C 57.23962864358634,97.77050531000236 58.179158643586334,98.26520531000233 59.08568864358642,98.57010531000219 C 59.99223864358646,98.87510531000225 60.86587864358637,98.99060531000214 61.73944864358646,98.90820531000213 C 62.61303864358649,98.82620531000202 63.486608643586464,98.5456053100022 64.0800286435865,98.26550531000203 C 64.6734186435865,97.9853053100021 64.98651864358646,97.70470531000205 65.14319864358652,97.56460531000198 C 65.2998586435865,97.42440531000193 64.45918864358657,97.42460531000188 63.96875864358651,97.33400531000188 C 63.47833864358654,97.24300531000199 62.49768864358646,97.06190531000198 61.5705286435865,96.74460531000182 C 60.643378643586516,96.42730531000188 59.769988643586544,95.97420531000171 58.91700864358654,95.3149053100019 C 58.06402864358654,94.65560531000187 57.231558643586595,93.79000531000202 56.50217864358649,93.01940531000196 C 55.77280864358647,92.2488053100019 55.14652864358652,91.57330531000207 55.22476864358646,91.38370531000191 C 55.30306864358647,91.19420531000196 56.08569864358651,91.49070531000189 56.96338864358643,91.61440531000198 C 57.84108864358643,91.73800531000188 58.81369864358646,91.68840531000205 59.658438643586464,91.56440531000203 C 60.503178643586466,91.44090531000211 61.220168643586476,91.24320531000194 61.80943864358642,91.06190531000198 C 62.398698643586386,90.88060531000201 62.860028643586475,90.715805310002 62.365578643586446,90.49320531000194 C 61.87112864358642,90.27060531000188 60.4208986435865,89.99040531000196 59.316558643586404,89.65660531000185 C 58.212218643586425,89.32290531000194 57.45401864358644,88.9354053100019 56.52684864358639,88.31730531000176 C 55.59969864358641,87.69920531000184 54.50358864358634,86.85050531000184 53.547568643586374,85.95630531000165 C 52.591568643586356,85.0621053100017 51.775658643586326,84.12260531000175 51.128698643586404,83.31490531000168 C 50.48175864358643,82.50730531000158 50.00380864358635,81.8315053100016 50.36637864358636,81.79030531000171 C 50.72895864358634,81.74930531000177 51.93213864358631,82.3425053100018 53.12713864358636,82.7628053100018 C 54.32213864358641,83.18310531000179 55.50882864358641,83.43030531000181 56.67085864358637,83.44680531000176 C 57.832878643586355,83.46380531000182 58.97030864358635,83.24910531000182 59.835678643586334,83.05130531000168 C 60.70102864358637,82.85350531000176 61.29432864358637,82.67200531000162 60.8905386435863,82.39170531000173 C 60.48674864358634,82.1115053100018 59.08580864358635,81.73280531000182 57.791918643586314,81.15580531000182 C 56.49802864358628,80.5789053100018 55.31142864358628,79.80400531000191 54.289498643586285,78.84800531000178 C 53.26757864358626,77.89200531000188 52.41012864358629,76.75470531000178 51.66015864358633,75.60090531000174 C 50.91017864358628,74.44700531000171 50.267668643586376,73.27690531000167 49.88854864358632,72.5599053100018 C 49.509448643586325,71.8429053100017 49.39385864358633,71.57910531000175 49.76467864358631,71.6573053100019 C 50.13549864358629,71.73530531000188 50.992648643586335,72.156005310002 52.11758864358626,72.403305310002 C 53.2425286435863,72.65060531000199 54.635298643586225,72.72470531000204 55.68195864358631,72.70410531000198 C 56.72862864358626,72.684105310002 57.428928643586346,72.56810531000201 58.042928643586265,72.46100531000207 C 58.65691864358621,72.35380531000214 59.18448864358629,72.25510531000214 58.79718864358631,71.98310531000197 C 58.40988864358633,71.71110531000204 57.10787864358633,71.2660053100019 56.07771864358631,70.767405310002 C 55.047558643586285,70.26880531000211 54.289318643586284,69.71650531000205 53.61352864358628,69.13960531000203 C 52.93771864358632,68.56260531000203 52.34434864358627,67.96120531000201 51.74272864358625,67.2154053100021 C 51.14109864358625,66.4695053100022 50.53121864358627,65.5795053100021 50.1191486435863,64.9038053100021 C 49.70707864358633,64.22790531000214 49.492848643586285,63.76630531000205 49.61639864358631,63.634405310002194 C 49.73996864358628,63.50250531000211 50.20162864358633,63.700405310002225 50.733188643586345,63.88990531000218 C 51.26475864358633,64.0795053100021 51.866158643586346,64.26060531000212 52.59139864358633,64.39240531000223 C 53.316638643586316,64.52430531000232 54.16565864358631,64.6068053100023 54.94858864358628,64.59030531000212 C 55.73150864358627,64.57330531000207 56.448248643586226,64.45850531000201 56.10213864358627,64.15350531000217 C 55.756038643586294,63.848605310002085 54.3469486435863,63.35410531000207 53.27970864358622,62.785505310002236 C 52.21247864358622,62.2168053100022 51.4873886435862,61.574105310002324 50.95171864358622,60.95600531000218 C 50.4160186435862,60.33790531000227 50.069748643586195,59.744505310002296 50.3004286435862,59.45600531000218 C 50.53109864358623,59.16750531000207 51.33867864358615,59.18400531000225 52.24523864358616,59.14280531000213 C 53.151798643586176,59.10180531000219 54.157308643586134,59.00270531000206 55.03091864358612,58.89560531000211 C 55.904508643586155,58.788505310002165 56.64615864358609,58.67310531000203 56.27533864358611,58.359905310002205 C 55.904528643586104,58.04660531000218 54.421078643586156,57.535705310002186 52.978858643586136,56.71160531000214 C 51.536618643586166,55.8875053100021 50.135488643586086,54.75040531000218 49.24128864358613,53.92620531000216 C 48.347088643586176,53.10200531000214 47.96000864358609,52.5909053100022 47.65094864358616,52.17470531000208 C 47.34187864358614,51.75850531000219 47.11102864358611,51.43700531000218 47.41176864358613,51.272205310002164 C 47.71250864358615,51.10740531000215 48.544728643586154,51.09920531000216 49.5501986435861,50.93030531000227 C 50.55565864358607,50.761405310002374 51.73426864358612,50.431805310002346 52.5913986435861,50.184605310002325 C 53.44852864358609,49.937405310002305 53.98426864358612,49.772105310002416 53.65053864358606,49.50840531000222 C 53.316798643586026,49.24460531000227 52.113428643586076,48.88220531000229 51.02144864358604,48.424805310002284 C 49.929468643586006,47.96740531000228 48.94883864358599,47.41520531000219 48.149418643586046,46.83420531000229 C 47.350018643586054,46.253205310002386 46.73208864358605,45.64340531000221 46.19226864358609,45.00470531000224 C 45.6524586435861,44.366005310002265 45.1905986435861,43.69840531000227 44.91862864358609,43.282205310002155 C 44.646668643586054,42.866005310002265 44.564638643586136,42.70120531000225 44.83652864358612,42.791805310002246 C 45.10845864358612,42.88280531000214 45.734548643586095,43.22850531000222 46.41856864358613,43.52520531000232 C 47.102598643586134,43.82180531000222 47.84445864358611,44.06920531000242 48.742768643586146,44.291805310002246 C 49.641078643586184,44.51430531000233 50.69576864358612,44.711905310002294 51.396268643586154,44.777905310002325 C 52.09678864358614,44.843905310002356 52.442828643586154,44.778105310002275 52.170928643586194,44.481305310002426 C 51.899018643586146,44.184605310002325 51.00914864358617,43.65710531000241 50.30038864358619,43.18730531000233 C 49.59161864358623,42.71750531000225 49.064188643586135,42.30560531000242 48.619148643586186,41.86890531000222 C 48.17412864358619,41.43210531000227 47.81134864358614,40.97050531000218 47.53937864358613,40.5914053100023 C 47.2674186435861,40.21230531000219 47.08610864358616,39.91560531000232 47.25086864358616,39.775505310002245 C 47.41560864358621,39.63540531000217 47.92684864358614,39.651805310002146 48.55319864358614,39.61890531000222 C 49.17953864358617,39.58590531000232 49.92113864358612,39.503605310002285 50.56396864358612,39.38000531000216 C 51.206798643586126,39.256405310002265 51.750648643586146,39.09150531000205 51.4952186435861,38.86890531000222 C 51.2397686435861,38.64640531000214 50.1850586435861,38.36610531000224 49.31148864358613,38.0447053100022 C 48.437908643586184,37.72330531000216 47.7455786435861,37.36070531000223 46.904958643586156,36.75490531000219 C 46.06432864358612,36.14920531000212 45.07512864358614,35.30030531000216 44.19328864358613,34.33610531000227 C 43.31146864358618,33.37180531000217 42.536958643586104,32.29230531000235 42.00124864358611,31.43100531000232 C 41.465558643586064,30.569805310002266 41.16907864358609,29.927005310002414 41.49042864358614,29.75390531000221 C 41.811778643586194,29.58070531000226 42.75113864358616,29.87760531000231 43.67415864358611,29.984705310002255 C 44.59718864358615,30.091905310002176 45.50368864358609,30.009705310002346 46.4102486435861,29.889705310002228 C 47.316828643586064,29.77020531000221 48.22330864358605,29.61350531000221 47.9348786435861,29.325005310002325 C 47.64645864358613,29.036505310002212 46.163308643586106,28.616405310002392 45.18671864358612,28.241505310002367 C 44.21012864358613,27.866505310002367 43.74026864358609,27.53650531000244 43.241658643586106,27.099805310002466 C 42.743058643586096,26.663005310002518 42.21561864358614,26.119305310002574 41.684038643586064,25.418805310002426 C 41.15247864358605,24.71820531000253 40.616678643586056,23.861305310002535 40.14279864358605,23.070205310002393 C 39.66889864358609,22.279005310002503 39.25690864358603,21.55340531000229 39.32281864358606,21.40500531000248 C 39.38871864358612,21.256605310002442 39.93246864358605,21.68540531000258 40.665948643586034,22.04800531000251 C 41.39940864358607,22.41060531000244 42.32260864358602,22.70730531000254 43.14673864358599,22.863905310002565 C 43.97086864358596,23.02050531000259 44.69618864358597,23.03700531000254 45.14946864358603,22.995905310002627 C 45.60272864358603,22.954905310002687 45.783698643586035,22.855605310002602 45.57768864358604,22.715405310002552 C 45.371698643586,22.575205310002502 44.77860864358604,22.394205310002462 44.04928864358601,21.912105310002516 C 43.31994864358603,21.429905310002596 42.45464864358598,20.646905310002467 41.54808864358597,19.550805310002488 C 40.64152864358596,18.45470531000251 39.693968643586004,17.04560531000243 39.986458643585934,16.423305310002434 C 40.27894864358598,15.801005310002438 41.811668643585904,15.966005310002402 42.932488643585884,15.99070531000234 C 44.05332864358593,16.01570531000243 44.761828643585886,15.899705310002446 44.308588643585836,15.570305310002368 C 43.85535864358587,15.240605310002366 42.240178643585864,14.69640531000232 41.119348643585795,14.193705310002315 C 39.998528643585814,13.69100531000231 39.37202864358585,13.229805310002348 38.76215864358585,12.702305310002203 C 38.15229864358582,12.17490531000226 37.559268643585824,11.581305310002108 36.84226864358584,10.254505310002287 C 36.125268643585855,8.927605310002264 35.28443864358587,6.8673053100023935 34.72399864358579,4.732705310002302 C 34.16356864358579,2.598205310002413 34.256498643585815,1.9061053100022036 33.96544864358577,0.5130053100021996 C 33.89344864358577,0.168705310002224 33.71105864358583,-0.0010946899978989677 33.536208643585724,5.310002279657056e-06 L 33.53620864358595,5.310002279657056e-06" id="path5305" style="fill:#1a1a1a;stroke-width:0.979033;stroke-linecap:round;stroke-linejoin:round;stroke-dashoffset:2.43;paint-order:stroke fill markers"/>
</svg>
