<?xml version="1.0" ?>
<svg xmlns="http://www.w3.org/2000/svg" xmlns:ev="http://www.w3.org/2001/xml-events" xmlns:xlink="http://www.w3.org/1999/xlink" baseProfile="full" height="214" id="katman_2" transform="scale(0.6666666666666666 0.6666666666666666) translate(-75.0 -107.0)" version="1.1" viewBox="0 0 150 214" width="150">
	<defs/>
	<path d="M 86.11746211857329,151.65578951395096 C 84.44746211857328,167.33578951395097 88.88746211857328,188.08578951395097 95.26746211857329,210.44578951395096 C 84.30746211857328,214.18578951395097 70.3574621185733,215.13578951395095 54.2974621185733,211.28578951395096 C 59.6774621185733,189.00578951395096 61.1774621185733,168.22578951395096 61.1374621185733,152.64578951395094 L 86.1174621185733,151.64578951395094 L 86.11746211857329,151.65578951395096 M 101.45746211857329,126.28578951395097 C 101.72746211857329,125.70578951395098 103.05746211857328,124.86578951395097 103.44746211857328,125.37578951395098 C 104.94746211857328,127.32578951395098 105.52746211857328,131.80578951395097 107.93746211857328,131.23578951395098 C 110.04746211857328,130.73578951395098 110.35746211857328,127.65578951395099 110.39746211857327,125.33578951395098 C 112.70746211857328,127.91578951395098 116.55746211857327,128.75578951395096 119.99746211857327,128.16578951395098 C 123.43746211857327,127.575789513951 129.60746211857327,127.175789513951 129.35746211857327,123.745789513951 C 128.99746211857325,118.885789513951 120.58746211857327,119.115789513951 116.98746211857326,115.76578951395099 C 113.38746211857325,112.41578951395098 110.63746211857327,107.945789513951 110.35746211857327,103.08578951395098 C 113.61746211857327,106.52578951395098 119.28746211857327,107.45578951395099 123.49746211857327,105.22578951395099 C 124.53746211857327,104.67578951395099 125.52746211857327,103.91578951395098 126.02746211857327,102.84578951395099 C 127.07746211857327,100.605789513951 125.49746211857327,97.90578951395099 123.38746211857327,96.58578951395098 C 121.27746211857327,95.26578951395098 118.71746211857327,94.85578951395098 116.36746211857327,93.98578951395099 C 107.16746211857327,90.575789513951 103.03746211857327,82.76578951395099 103.42746211857327,73.745789513951 C 93.17746211857327,74.09578951395099 82.88746211857327,74.20578951395099 72.62746211857328,74.435789513951 L 52.307462118573284,74.87578951395099 C 51.047462118573286,74.90578951395099 44.337462118573285,74.12578951395099 43.42746211857328,75.075789513951 C 40.53746211857328,78.045789513951 36.64746211857328,80.555789513951 35.46746211857328,84.385789513951 C 32.04746211857328,95.45578951395099 23.04746211857328,104.495789513951 12.727462118573282,110.975789513951 C 10.967462118573282,112.075789513951 9.097462118573283,113.185789513951 8.02746211857328,114.885789513951 C 6.9574621185732815,116.585789513951 7.0374621185732815,119.09578951395099 8.807462118573282,120.165789513951 C 9.527462118573283,120.605789513951 10.407462118573282,120.745789513951 11.267462118573281,120.815789513951 C 19.49746211857328,121.535789513951 29.617462118573282,117.565789513951 35.82746211857328,112.455789513951 C 37.04746211857328,115.145789513951 36.11746211857328,118.225789513951 36.13746211857328,121.165789513951 C 36.14746211857328,124.525789513951 37.477462118573285,127.865789513951 39.82746211857328,130.41578951395098 C 40.59746211857328,131.255789513951 41.64746211857328,132.07578951395098 42.84746211857328,131.935789513951 C 43.92746211857328,131.815789513951 44.727462118573285,130.94578951395098 45.32746211857328,130.095789513951 C 46.41746211857328,128.565789513951 47.25746211857328,126.88578951395101 47.81746211857328,125.13578951395101 C 48.72746211857328,122.28578951395102 49.557462118573284,118.58578951395101 52.70746211857328,118.05578951395101 C 54.71746211857328,117.71578951395101 56.66746211857328,119.04578951395101 57.687462118573286,120.67578951395102 C 58.70746211857329,122.30578951395103 59.07746211857329,124.20578951395102 59.74746211857329,125.98578951395102 C 60.98746211857329,129.28578951395102 63.297462118573286,132.225789513951 66.31746211857327,134.305789513951 C 66.90746211857328,134.715789513951 67.56746211857327,135.095789513951 68.30746211857327,135.095789513951 C 70.33746211857327,135.07578951395098 70.87746211857326,132.48578951395098 70.74746211857327,130.60578951395098 C 70.57746211857327,128.04578951395098 70.39746211857327,125.48578951395099 70.22746211857327,122.915789513951 C 70.12746211857328,121.37578951395099 70.40746211857328,119.325789513951 72.04746211857326,119.01578951395099 C 73.81746211857326,118.685789513951 74.84746211857326,120.73578951395099 75.22746211857327,122.36578951395099 L 76.13746211857327,126.27578951395098 C 76.29746211857326,126.98578951395098 76.48746211857326,127.73578951395098 77.04746211857326,128.23578951395098 C 78.16746211857327,129.24578951395097 80.16746211857327,128.69578951395098 81.18746211857327,127.58578951395098 C 82.20746211857326,126.47578951395097 82.58746211857327,124.99578951395098 83.22746211857327,123.65578951395098 C 83.86746211857327,122.32578951395098 84.98746211857328,120.98578951395098 86.55746211857327,120.84578951395098 C 88.95746211857328,120.62578951395098 90.42746211857327,123.24578951395098 90.74746211857327,125.45578951395098 C 91.10746211857327,127.92578951395097 90.92746211857327,130.54578951395095 92.11746211857327,132.77578951395097 C 93.30746211857327,135.00578951395096 96.65746211857328,136.50578951395096 98.72746211857327,134.89578951395097 C 99.50746211857327,134.28578951395096 99.92746211857327,133.37578951395096 100.19746211857327,132.47578951395099 C 100.80746211857327,130.44578951395098 100.76746211857326,128.275789513951 101.46746211857327,126.275789513951 L 101.45746211857329,126.28578951395097 M 86.28746211857329,45.325789513950966 L 48.97746211857329,50.23578951395098 C 45.36746211857329,62.58578951395097 45.40746211857329,67.57578951395098 32.02746211857329,76.93578951395098 C 30.357462118573288,78.10578951395098 25.64746211857329,80.65578951395098 23.23746211857329,81.66578951395098 C 21.35746211857329,82.45578951395099 16.53746211857329,84.53578951395099 16.48746211857329,86.59578951395098 C 16.43746211857329,88.79578951395098 17.43746211857329,90.37578951395098 19.31746211857329,91.48578951395098 C 21.197462118573288,92.59578951395098 23.41746211857329,92.93578951395098 25.59746211857329,93.04578951395098 C 32.29746211857329,93.38578951395098 39.08746211857329,91.74578951395098 44.907462118573285,88.36578951395099 C 47.617462118573286,86.795789513951 50.127462118573284,84.85578951395098 52.96746211857329,83.545789513951 C 53.56746211857329,83.26578951395099 54.25746211857329,83.01578951395099 54.88746211857329,83.23578951395099 C 56.047462118573286,83.65578951395099 56.12746211857329,85.25578951395099 55.99746211857329,86.495789513951 L 54.71746211857329,98.605789513951 C 54.517462118573285,100.48578951395099 54.337462118573285,102.475789513951 55.127462118573284,104.195789513951 C 55.91746211857328,105.915789513951 58.057462118573284,107.145789513951 59.70746211857328,106.255789513951 C 60.73746211857328,105.695789513951 61.27746211857328,104.525789513951 61.697462118573284,103.415789513951 C 64.26746211857328,96.695789513951 65.55746211857328,89.275789513951 69.92746211857327,83.595789513951 C 70.35746211857328,83.035789513951 70.97746211857327,82.43578951395101 71.65746211857328,82.625789513951 C 72.30746211857328,82.80578951395101 72.55746211857328,83.585789513951 72.72746211857327,84.24578951395101 C 73.66746211857327,87.85578951395101 75.32746211857327,91.265789513951 77.57746211857327,94.22578951395101 C 78.29746211857326,95.16578951395101 79.17746211857326,96.12578951395102 80.33746211857327,96.32578951395101 C 82.07746211857327,96.63578951395101 83.67746211857327,95.04578951395101 84.15746211857326,93.32578951395101 C 84.63746211857325,91.60578951395101 84.30746211857327,89.77578951395101 84.15746211857326,87.99578951395101 C 84.00746211857326,86.21578951395101 84.08746211857327,84.265789513951 85.19746211857327,82.875789513951 C 85.56746211857327,82.405789513951 86.05746211857327,82.015789513951 86.63746211857327,81.85578951395101 C 87.81746211857327,81.53578951395102 89.06746211857327,82.27578951395101 89.78746211857327,83.27578951395101 C 90.50746211857327,84.27578951395101 90.85746211857327,85.49578951395101 91.31746211857327,86.63578951395101 C 92.30746211857327,89.08578951395101 93.90746211857328,91.28578951395102 95.92746211857327,92.96578951395101 C 96.79746211857328,93.68578951395101 97.85746211857328,94.345789513951 98.96746211857328,94.155789513951 C 101.11746211857329,93.785789513951 101.52746211857328,90.845789513951 101.24746211857328,88.655789513951 C 100.97746211857329,86.46578951395101 100.85746211857328,83.645789513951 102.82746211857328,82.69578951395101 C 103.39746211857327,82.42578951395102 104.18746211857328,82.28578951395102 104.68746211857328,82.67578951395102 C 106.67746211857327,84.23578951395102 107.27746211857328,84.72578951395101 108.07746211857328,84.91578951395101 C 113.19746211857328,86.14578951395102 118.33746211857328,85.53578951395102 119.64746211857329,81.32578951395101 C 120.44746211857328,78.765789513951 118.59746211857329,75.565789513951 116.81746211857329,73.88578951395101 C 113.98746211857329,71.22578951395101 110.62746211857329,70.07578951395101 104.98746211857329,66.375789513951 C 101.5274621185733,64.10578951395101 97.1074621185733,58.735789513951005 94.4374621185733,51.095789513951004 C 92.87746211857329,46.635789513950996 86.31746211857329,45.315789513951 86.31746211857329,45.315789513951 L 86.28746211857329,45.325789513950966 M 92.11746211857329,42.315789513950975 C 88.58746211857328,39.48578951395098 87.82746211857328,39.02578951395097 85.52746211857328,35.61578951395097 C 81.54746211857328,29.73578951395097 79.13746211857328,25.11578951395097 77.87746211857328,18.96578951395097 C 76.64746211857327,12.935789513950969 75.24746211857328,8.30578951395097 71.66746211857328,3.0757895139509692 C 71.24746211857328,2.4657895139509693 69.82746211857328,0.625789513950969 68.47746211857329,0.3057895139509692 C 63.02746211857329,-0.9642104860490308 62.22746211857329,2.085789513950969 61.93746211857329,2.815789513950969 C 61.22746211857329,4.625789513950969 60.007462118573294,8.695789513950968 59.637462118573296,11.82578951395097 C 59.147462118573294,15.915789513950969 58.817462118573296,20.63578951395097 57.897462118573294,24.585789513950967 C 56.72746211857329,29.595789513950965 55.077462118573294,33.155789513950964 52.19746211857329,37.64578951395097 C 50.10746211857329,40.63578951395097 47.74746211857329,43.23578951395098 45.47746211857329,45.63578951395097 C 42.09746211857329,49.22578951395097 37.857462118573295,52.435789513950965 31.647462118573294,56.215789513950966 C 29.617462118573293,57.44578951395097 29.427462118573295,59.72578951395097 29.457462118573293,60.66578951395097 C 29.497462118573292,62.23578951395098 30.757462118573294,63.455789513950975 32.04746211857329,64.28578951395097 C 38.497462118573296,68.42578951395097 44.74746211857329,64.56578951395097 47.49746211857329,64.31578951395097 C 53.187462118573286,63.80578951395097 51.547462118573286,62.545789513950965 54.33746211857329,65.26578951395098 C 56.36746211857329,67.24578951395098 62.44746211857329,60.095789513950976 64.18746211857328,57.83578951395097 C 65.31746211857327,56.36578951395097 67.58746211857328,53.57578951395098 67.58746211857328,53.57578951395098 C 67.58746211857328,53.57578951395098 67.47746211857329,60.345789513950976 68.49746211857328,63.52578951395098 C 69.51746211857328,66.70578951395099 71.62746211857328,69.64578951395099 74.62746211857328,70.94578951395098 C 75.13746211857328,71.16578951395098 75.70746211857328,71.33578951395098 76.21746211857328,71.13578951395098 C 76.67746211857327,70.95578951395098 76.99746211857328,70.51578951395098 77.26746211857328,70.08578951395098 C 79.51746211857328,66.42578951395099 79.93746211857328,61.79578951395098 79.13746211857328,57.555789513950984 C 78.53746211857329,54.35578951395098 77.89746211857329,51.89578951395099 80.45746211857328,49.96578951395098 C 82.10746211857328,50.595789513950976 82.76746211857328,50.75578951395097 83.39746211857327,52.44578951395097 C 84.02746211857327,54.13578951395097 84.45746211857328,55.955789513950975 85.55746211857327,57.36578951395097 C 86.65746211857326,58.77578951395097 90.83746211857327,63.96578951395098 92.30746211857327,62.97578951395097 C 93.89746211857327,61.90578951395098 93.84746211857328,59.50578951395097 93.43746211857327,57.595789513950976 C 93.02746211857327,55.68578951395098 92.81746211857326,52.79578951395098 92.81746211857326,52.79578951395098 C 92.81746211857326,52.79578951395098 96.09746211857326,56.91578951395097 98.28746211857326,58.50578951395097 C 100.48746211857326,60.095789513950976 103.82746211857327,60.37578951395098 105.67746211857326,58.36578951395097 C 107.70746211857326,56.15578951395098 106.91746211857325,52.345789513950976 104.91746211857325,50.11578951395097 C 102.91746211857325,47.87578951395098 100.01746211857325,46.80578951395097 97.46746211857325,45.26578951395098 C 96.27746211857325,44.54578951395098 93.20746211857325,43.175789513950974 92.13746211857325,42.30578951395097 L 92.11746211857329,42.315789513950975 M 123.14746211857329,171.35578951395095 C 138.81746211857327,174.47578951395096 127.51746211857329,159.97578951395096 127.51746211857329,159.97578951395096 C 127.51746211857329,159.97578951395096 134.6174621185733,162.14578951395094 141.1374621185733,162.89578951395094 C 143.6574621185733,163.18578951395094 145.2374621185733,162.84578951395093 147.3874621185733,161.51578951395095 C 149.3874621185733,160.28578951395096 149.4174621185733,158.98578951395095 149.5074621185733,158.18578951395094 C 149.6974621185733,156.52578951395094 147.5374621185733,153.98578951395095 145.9374621185733,153.45578951395095 C 144.3374621185733,152.92578951395095 142.5874621185733,152.99578951395094 140.92746211857332,152.66578951395095 C 136.85746211857332,151.86578951395094 125.42746211857332,143.12578951395096 124.67746211857332,139.10578951395095 C 126.74746211857331,140.49578951395094 129.70746211857332,140.85578951395095 132.19746211857333,140.68578951395097 C 132.61746211857331,140.65578951395096 132.99746211857334,140.51578951395098 133.37746211857333,140.34578951395096 C 135.54746211857332,139.39578951395097 134.69746211857333,136.30578951395097 133.91746211857333,135.56578951395096 C 130.5874621185733,132.38578951395095 124.07746211857332,131.26578951395095 122.16746211857333,127.02578951395098 C 118.63746211857332,119.19578951395098 99.98746211857332,120.46578951395098 99.05746211857333,111.75578951395099 C 98.81746211857333,111.57578951395098 98.58746211857333,111.38578951395098 98.36746211857333,111.16578951395098 L 37.99746211857334,105.94578951395098 C 37.617462118573336,110.36578951395099 31.467462118573337,116.45578951395099 28.767462118573338,119.09578951395099 C 22.537462118573337,125.15578951395099 15.077462118573338,130.285789513951 6.757462118573336,133.18578951395097 C 4.237462118573337,134.06578951395096 1.1674621185733363,135.24578951395097 0.8374621185733362,137.85578951395095 C 0.46746211857333625,140.73578951395095 3.7974621185733364,142.66578951395095 6.677462118573336,143.23578951395095 C 11.297462118573335,144.14578951395094 19.487462118573337,141.74578951395094 23.827462118573337,139.93578951395094 C 20.957462118573336,147.63578951395093 8.797462118573337,152.86578951395094 1.8874621185733351,157.43578951395094 C 1.307462118573335,157.81578951395093 0.7174621185733352,158.23578951395095 0.36746211857333516,158.82578951395092 C -0.042537881426664814,159.5257895139509 -0.07253788142666484,160.39578951395092 0.09746211857333514,161.19578951395093 C 0.6774621185733352,163.90578951395094 3.3674621185733353,165.77578951395094 6.117462118573335,166.30578951395094 C 8.877462118573334,166.82578951395095 11.707462118573336,166.27578951395094 14.457462118573336,165.70578951395095 C 20.187462118573336,164.52578951395094 25.707462118573336,162.65578951395094 31.147462118573337,160.52578951395094 C 33.837462118573335,159.47578951395093 39.657462118573335,155.51578951395095 39.657462118573335,155.51578951395095 C 39.657462118573335,155.51578951395095 39.52746211857333,158.54578951395095 38.30746211857333,160.59578951395096 C 37.197462118573334,162.46578951395097 35.48746211857333,164.09578951395096 33.77746211857333,165.34578951395096 C 32.06746211857333,166.59578951395096 30.097462118573333,167.58578951395097 28.78746211857333,169.24578951395097 C 28.36746211857333,169.77578951395097 28.01746211857333,170.39578951395097 28.01746211857333,171.06578951395096 C 28.01746211857333,172.72578951395096 29.97746211857333,173.62578951395096 31.637462118573332,173.96578951395097 C 40.10746211857333,175.69578951395096 56.10746211857333,168.24578951395097 56.10746211857333,168.24578951395097 C 56.10746211857333,168.24578951395097 54.36746211857333,172.19578951395096 56.58746211857333,174.81578951395096 C 58.42746211857333,176.98578951395095 62.51746211857333,174.70578951395095 64.26746211857332,172.46578951395097 C 66.01746211857332,170.22578951395096 68.13746211857332,167.38578951395095 70.96746211857332,167.89578951395097 C 72.77746211857333,168.22578951395099 75.06746211857332,169.77578951395097 76.05746211857333,168.24578951395097 C 76.32746211857332,167.83578951395097 76.51746211857332,167.30578951395097 76.36746211857333,166.83578951395097 C 74.09746211857333,159.66578951395098 76.95746211857333,159.31578951395096 79.48746211857333,162.47578951395096 C 83.10746211857334,166.99578951395097 83.82746211857334,167.79578951395095 85.60746211857334,169.45578951395095 C 88.53746211857334,172.18578951395094 90.71746211857334,173.92578951395095 93.59746211857333,175.15578951395094 C 96.46746211857334,176.38578951395093 100.56746211857333,174.95578951395095 101.01746211857333,171.89578951395094 C 101.21746211857334,170.53578951395093 100.98746211857333,169.05578951395094 100.26746211857333,167.87578951395093 C 97.68746211857334,163.66578951395093 97.45746211857333,159.92578951395095 97.45746211857333,159.92578951395095 C 97.45746211857333,159.92578951395095 102.56746211857333,163.53578951395096 105.12746211857333,165.01578951395095 C 110.74746211857334,168.27578951395094 120.49746211857334,170.81578951395096 123.12746211857333,171.33578951395094 L 123.14746211857329,171.35578951395095"/>
</svg>
