<?xml version="1.0" ?>
<svg xmlns="http://www.w3.org/2000/svg" xmlns:ev="http://www.w3.org/2001/xml-events" xmlns:xlink="http://www.w3.org/1999/xlink" baseProfile="full" height="678" preserveAspectRatio="xMidYMid meet" transform="scale(0.15151515151515152 0.15151515151515152) translate(-330.0 -339.0)" version="1.1" viewBox="0 0 660 678" width="660" zoomAndPan="magnify">
	<defs/>
	<path d="M 233.410156,353.160157 C 229.558594,349.29296899999997 235.277344,343.578125 231.425781,339.703125 C 227.574218,335.83593800000006 224.07812500000003,331.609375 220.22656199999997,327.73828100000003 C 216.37500000000003,323.86328100000003 214.761718,326.10546899999997 210.910156,322.234375 C 216.18750000000003,323.171875 215.324218,324.24218800000006 220.605468,325.17968800000006 C 225.886718,326.125 231.04687500000003,327.73828100000003 236.324218,328.68359399999997 C 241.605468,329.625 242.722656,324.60156300000006 248.003906,325.546875 C 243.98437500000003,322.11718800000006 246.308594,319.32421899999997 242.292968,315.90234399999997 C 238.27343699999997,312.47656300000006 235.91406199999997,307.10546899999997 231.89843699999997,303.67968800000006 C 227.88281199999997,300.25781300000006 219.39843699999997,302.0625 215.378906,298.640625 C 211.363281,295.21093800000006 206.078125,293.27343800000006 202.0625,289.84375 C 198.046875,286.421875 199.949218,276.066407 195.929687,272.64453100000003 C 191.914062,269.21484399999997 184.914062,269.98828100000003 180.894531,266.5625 C 186.425781,267.30468800000006 191.902344,265.13281300000006 197.429687,265.87109399999997 C 202.957031,266.61718800000006 209.109375,262.6875 214.636718,263.43359399999997 C 220.16406199999997,264.171875 224.144531,271.89843800000006 229.67187500000003,272.63671899999997 C 226.746094,267.83593800000006 221.38281199999997,265.21484399999997 218.457031,260.41406300000006 C 215.53125000000003,255.613281 211.152344,251.699219 208.222656,246.89062499999997 C 205.296875,242.089844 205.359375,235.472657 202.429687,230.67187499999997 C 199.503906,225.871094 191.738281,224.011719 188.8125,219.210938 C 188.0625,217.976563 186.957031,218.527344 180.847656,217.203125 C 174.433594,215.820313 166.726562,208.585938 166.804687,207.070313 C 166.882812,205.550781 175.453125,198.542969 182.425781,197.523438 C 188.996094,196.5625 197.546875,201.046875 198.929687,201.441407 C 194.65625,196.292969 188.765625,192.269531 184.496094,187.121094 C 180.226562,181.96875 171.953125,171.15625 167.679687,166.011719 C 175.460937,168.027344 187.785156,175.109375 195.566406,177.128907 C 191.785156,172.566407 185.40625,170.308594 181.625,165.738281 C 177.839844,161.175781 171.542968,158.6875 167.761718,154.125 C 163.980468,149.5625 165.882812,140.292969 162.101562,135.730469 C 158.320312,131.160157 157.75,129.335938 153.964844,124.769531 C 160.113281,125.546875 162.800781,124.171875 168.945312,124.953125 C 165.492187,119.730469 157.332031,117.285157 153.878906,112.058594 C 150.425781,106.835938 148.0625,92.921875 144.609375,87.695313 C 154.835937,88.96875 163.566406,99.484375 173.796875,100.753907 C 170.101562,95.691407 159.894531,89.914063 157.195312,84.851563 C 154.378906,79.558594 154.023437,73.105469 151.207031,67.816407 C 148.507812,62.746094 152.898437,56.636719 149.199218,51.566407 C 153.660156,50.851563 156.832031,50.777344 161.296875,50.070313 C 158.527344,46.570313 148.542968,45.179688 145.773437,41.671875 C 143.003906,38.167969 144.992187,31.414063 142.226562,27.914063 C 145.34375,28.296875 144.65625,29.386719 147.777344,29.777344 C 143.972656,26.527344 143.074218,22.261719 139.292968,18.417969 C 135.511718,14.570312999999999 132.089844,3.2421879999999987 128.289062,0.0 C 124.488281,3.2421879999999987 123.5,17.984375 119.160156,21.828125 C 114.820312,25.679688 113.652344,32.546875 109.851562,35.792969 C 112.96875,35.40625 115.164062,36.882813 112.328125,35.535157 C 117.75,38.113281 110.007812,37.109375 107.238281,40.617188 C 104.46875,44.117188 94.613281,47.058594 91.84375,50.558594 C 96.304687,51.265625 110.738281,49.523438 115.199218,50.234375 C 111.503906,55.304688 98.824218,59.011719 96.128906,64.082031 C 93.308594,69.371094 100.167968,79.660157 97.351562,84.949219 C 94.652344,90.015625 85.363281,93.78125 81.667968,98.851563 C 91.898437,97.574219 93.605468,99.101563 103.832031,97.824219 C 100.378906,103.046875 93.734375,100.109375 90.28125,105.328125 C 86.828125,110.554688 88.234375,120.097657 84.785156,125.324219 C 90.875,124.550781 97.960937,124.5 104.050781,123.726563 C 104.175781,123.714844 98.363281,118.160157 98.285156,118.257813 C 94.523437,122.804688 93.261718,129.238281 89.496094,133.78125 C 85.730468,138.328125 84.53125,144.988281 80.765625,149.53125 C 77.003906,154.078125 68.777344,154.925781 65.011718,159.464844 C 61.246094,164.007813 60.164062,176.382813 56.398437,180.929688 C 64.179687,178.910157 79.238281,167.648438 87.015625,165.628907 C 82.746094,170.777344 79.242187,186.203125 74.96875,191.351563 C 70.703125,196.5 63.261718,197.75 58.988281,202.898438 C 61.832031,202.082031 76.078125,207.910157 76.230468,210.859375 C 76.386718,213.8125 56.59375,210.304688 55.054687,212.828125 C 52.128906,217.628907 49.070312,222.35156300000003 46.144531,227.152344 C 43.21875,231.96093800000003 43.820312,238.89843800000003 40.890625,243.707031 C 37.964844,248.50781300000003 40.195312,256.44921899999997 37.269531,261.25 C 34.34375,266.046875 31.882812,265.15234399999997 28.957031,269.953125 C 34.453125,269.21484399999997 34.933594,270.19531300000006 40.425781,269.46093800000006 C 45.917968,268.72656300000006 51.542968,268.96484399999997 57.035156,268.234375 C 62.527344,267.49609399999997 67.546875,261.07421899999997 73.039062,260.33593800000006 C 73.175781,260.32421899999997 74.066406,267.05468800000006 73.964844,267.14843800000006 C 69.964844,270.55468800000006 63.167968,270.71484399999997 59.171875,274.125 C 55.175781,277.52734399999997 50.601562,280.26171899999997 46.605468,283.671875 C 42.605468,287.07421899999997 41.230468,293.55468800000006 37.234375,296.96484399999997 C 33.234375,300.375 30.195312,304.89843800000006 26.199218000000002,308.30859399999997 C 22.203125,311.71093800000006 16.328125,312.92578100000003 12.332031,316.33203100000003 C 8.335937000000001,319.73828100000003 3.9960939999999994,325.38671899999997 0.0,328.79296899999997 C 5.277343999999999,327.847657 12.011718000000002,325.49609399999997 17.292968000000002,324.55078100000003 C 22.570312,323.61328100000003 28.179687,324.49218800000006 33.457031,323.546875 C 38.738281,322.597657 42.699218,320.972657 47.976562,320.02734399999997 C 44.128906,323.89843800000006 43.558594,329.40234399999997 39.707031,333.27343800000006 C 35.855468,337.14843800000006 26.746094,335.79296899999997 22.894531,339.66796899999997 C 19.042968000000002,343.53906300000006 17.234375,350.65625 13.382812000000001,354.53125 C 17.984375,354.80468800000006 23.238281,361.33203100000003 27.839844,361.61328100000003 C 32.445312,361.89453100000003 39.15625,356.01953100000003 43.761718,356.30078100000003 C 38.402344,360.515625 35.660156,369.953125 30.296875,374.16406300000006 C 24.933594,378.378907 9.136718000000002,377.328125 3.7773439999999994,381.54296899999997 C 9.3125,381.90234399999997 21.058594,387.3125 26.605468000000002,387.21875 C 32.15625,387.128907 37.542968,380.58593800000006 43.066406,380.046875 C 48.589844,379.51171899999997 55.40625,386.40234399999997 60.867187,385.421875 C 66.332031,384.44531300000006 72.050781,382.16796899999997 77.417968,380.76171899999997 C 82.789062,379.35156300000006 88.421875,377.17968800000006 93.660156,375.34375 C 98.898437,373.50781300000006 101.96875,363.58984399999997 107.039062,361.33984399999997 C 116.953125,360.441407 117.226562,362.28906300000006 127.179687,362.28906300000006 C 137.128906,362.28906300000006 137.753906,356.55859399999997 147.667968,357.44921899999997 C 152.738281,359.703125 158.300781,365.40234399999997 163.539062,367.23828100000003 C 168.777344,369.07421899999997 172.300781,376.55859399999997 177.671875,377.96484399999997 C 183.039062,379.375 189.296875,377.34375 194.761718,378.32421899999997 C 200.222656,379.30078100000003 205.449218,382.76171899999997 210.972656,383.296875 C 216.50000000000003,383.83984399999997 222.29687500000003,381.23046899999997 227.847656,381.32031300000006 C 233.394531,381.41406300000006 240.86718699999997,381.734375 246.40625000000003,381.375 C 241.04687500000003,377.160157 229.183594,378.67968800000006 223.82031199999997,374.46484399999997 C 218.46093699999997,370.25 220.769531,359.703125 215.410156,355.48828100000003 C 220.01562500000003,355.21484399999997 221.222656,350.472657 225.82812500000003,350.19921899999997 C 230.42968699999997,349.91796899999997 228.808594,353.441407 233.410156,353.160157 M 134.675781,524.574219 L 120.214844,524.574219 L 120.214844,314.02343800000006 L 134.675781,314.02343800000006 L 134.675781,524.574219 M 307.94531199999994,399.94531300000006 C 305.14453100000003,397.13281300000006 309.30078100000003,392.98046899999997 306.50390600000003,390.16406300000006 C 303.703125,387.347657 301.16015600000003,384.28125 298.359375,381.46093800000006 C 295.5625,378.64453100000003 294.386718,380.27343800000006 291.58593699999994,377.46093800000006 C 295.42578100000003,378.14453100000003 294.796875,378.91796899999997 298.636718,379.609375 C 302.47265600000003,380.29296899999997 306.22656199999994,381.46093800000006 310.06640600000003,382.15234399999997 C 313.90234399999997,382.83203100000003 314.71875,379.17968800000006 318.55468699999994,379.87109399999997 C 315.636718,377.375 317.324218,375.34375 314.40234399999997,372.85546899999997 C 311.480468,370.36718800000006 309.76953100000003,366.46093800000006 306.84765600000003,363.97656300000006 C 303.92578100000003,361.48046899999997 297.75781199999994,362.796875 294.83593699999994,360.30859399999997 C 291.917968,357.8125 288.078125,356.40625 285.15625,353.91406300000006 C 282.234375,351.421875 283.61718699999994,343.89453100000003 280.69531199999994,341.40625 C 277.77343699999994,338.91406300000006 272.6875,339.47656300000006 269.765625,336.984375 C 273.78125,337.52734399999997 277.76953100000003,335.94531300000006 281.78515600000003,336.484375 C 285.80468699999994,337.01953100000003 290.27734399999997,334.171875 294.296875,334.70703100000003 C 298.3125,335.24609399999997 301.20703100000003,340.86328100000003 305.22656199999994,341.40625 C 303.09765600000003,337.910157 299.199218,336.00781300000006 297.074218,332.51171899999997 C 294.94531199999994,329.02343800000006 291.761718,326.171875 289.636718,322.68359399999997 C 287.50781199999994,319.191407 287.55078100000003,314.375 285.42578100000003,310.88671899999997 C 283.296875,307.39843800000006 277.64843699999994,306.04296899999997 275.52343699999994,302.55468800000006 C 274.97656199999994,301.660157 274.171875,302.0625 269.730468,301.097657 C 265.06640600000003,300.09375 259.46484399999997,294.828125 259.51953100000003,293.73046899999997 C 259.578125,292.625 265.80859399999997,287.53125 270.87890600000003,286.78906300000006 C 275.65234399999997,286.08593800000006 281.87109399999997,289.35156300000006 282.875,289.63671899999997 C 279.76953100000003,285.89843800000006 275.48828100000003,282.96875 272.38281199999994,279.22656300000006 C 269.27734399999997,275.484375 263.261718,267.625 260.15625,263.878907 C 265.8125,265.347657 274.77343699999994,270.48828100000003 280.42968699999994,271.96093800000006 C 277.68359399999997,268.640625 273.042968,267.0 270.292968,263.68359399999997 C 267.546875,260.36718800000006 262.96484399999997,258.55078100000003 260.21875,255.23437499999997 C 257.46484399999997,251.917969 258.85156199999994,245.183594 256.09765600000003,241.85937499999997 C 253.35156199999997,238.53906300000003 252.933594,237.214844 250.183594,233.89062499999997 C 254.652344,234.457031 256.605468,233.457031 261.074218,234.02343800000003 C 258.56640600000003,230.230469 252.63281199999997,228.45312499999997 250.121094,224.652344 C 247.613281,220.85156300000003 245.894531,210.738281 243.38281199999997,206.9375 C 250.82031199999997,207.867188 257.167968,215.507813 264.60156199999994,216.433594 C 261.91406199999994,212.75 254.496094,208.554688 252.53125000000003,204.871094 C 250.48437500000003,201.019531 250.22656199999997,196.332031 248.17968699999997,192.480469 C 246.21875000000003,188.796875 249.40625000000003,184.355469 246.71875000000003,180.671875 C 249.964844,180.15625 252.269531,180.101563 255.51562500000003,179.582031 C 253.50000000000003,177.035157 246.24218699999997,176.023438 244.230468,173.480469 C 242.214844,170.929688 243.66406199999997,166.011719 241.64843699999997,163.472657 C 243.917968,163.753907 243.417968,164.546875 245.68750000000003,164.824219 C 242.92187500000003,162.464844 242.26562500000003,159.367188 239.51562500000003,156.566407 C 236.76562500000003,153.773438 234.28125000000003,145.539063 231.519531,143.175781 C 228.753906,145.539063 228.035156,156.253907 224.878906,159.046875 C 221.72656199999997,161.847657 220.87500000000003,166.84375 218.113281,169.203125 C 220.378906,168.925781 221.97656199999997,169.996094 219.91406199999997,169.015625 C 223.855468,170.886719 218.22656199999997,170.160157 216.21093699999997,172.707031 C 214.199218,175.253907 207.035156,177.390625 205.019531,179.941407 C 208.265625,180.453125 218.753906,179.183594 222.00000000000003,179.703125 C 219.31250000000003,183.386719 210.09375,186.082031 208.136718,189.765625 C 206.085937,193.613281 211.074218,201.09375 209.023437,204.941407 C 207.0625,208.628907 200.308594,211.367188 197.621094,215.050781 C 205.058594,214.121094 206.300781,215.226563 213.738281,214.296875 C 211.22656199999997,218.097657 206.390625,215.960938 203.882812,219.75781300000003 C 201.371094,223.558594 202.394531,230.49218800000003 199.886718,234.292969 C 204.3125,233.73437499999997 209.464844,233.69531300000003 213.894531,233.136719 C 213.98437500000003,233.12499999999997 209.757812,229.089844 209.703125,229.16406300000003 C 206.96875,232.464844 206.050781,237.144531 203.3125,240.449219 C 200.578125,243.74999999999997 199.703125,248.59374999999997 196.964844,251.89843800000003 C 194.230468,255.199219 188.25,255.816407 185.511718,259.12109399999997 C 182.773437,262.41796899999997 181.984375,271.41796899999997 179.25,274.722657 C 184.90625,273.253907 195.851562,265.066407 201.511718,263.597657 C 198.40625,267.34375 195.855468,278.55859399999997 192.753906,282.30468800000006 C 189.648437,286.04296899999997 184.238281,286.953125 181.132812,290.69921899999997 C 183.199218,290.10156300000006 193.554687,294.33984399999997 193.667968,296.48828100000003 C 193.78125,298.628907 179.390625,296.078125 178.269531,297.91406300000006 C 176.144531,301.410157 173.921875,304.84375 171.792968,308.33203100000003 C 169.667968,311.82421899999997 170.105468,316.87109399999997 167.972656,320.36718800000006 C 165.847656,323.85546899999997 167.46875,329.625 165.339844,333.12109399999997 C 163.210937,336.61328100000003 161.425781,335.96093800000006 159.296875,339.44921899999997 C 163.289062,338.91406300000006 163.640625,339.625 167.636718,339.09375 C 171.628906,338.55468800000006 175.71875,338.734375 179.710937,338.19531300000006 C 183.707031,337.66406300000006 187.355468,332.99218800000006 191.347656,332.45703100000003 C 191.445312,332.453125 192.09375,337.34375 192.019531,337.410157 C 189.113281,339.88671899999997 184.171875,340.003907 181.265625,342.47656300000006 C 178.359375,344.96093800000006 175.03125,346.941407 172.125,349.421875 C 169.222656,351.89843800000006 168.21875,356.61328100000003 165.3125,359.08984399999997 C 162.410156,361.566407 160.199218,364.859375 157.292968,367.33593800000006 C 154.382812,369.8125 150.117187,370.6875 147.210937,373.171875 C 144.300781,375.64843800000006 141.148437,379.75 138.242187,382.23046899999997 C 142.082031,381.54296899999997 146.976562,379.83593800000006 150.816406,379.14843800000006 C 154.652344,378.46093800000006 158.730468,379.10156300000006 162.570312,378.410157 C 166.40625,377.73046899999997 169.289062,376.53906300000006 173.128906,375.85546899999997 C 170.324218,378.66796899999997 169.914062,382.66796899999997 167.113281,385.48828100000003 C 164.3125,388.30078100000003 157.691406,387.32421899999997 154.886718,390.13671899999997 C 152.089844,392.953125 150.773437,398.125 147.976562,400.94531300000006 C 151.320312,401.14453100000003 155.136718,405.890625 158.484375,406.09375 C 161.832031,406.29296899999997 166.710937,402.02343800000006 170.058594,402.23046899999997 C 166.160156,405.29296899999997 164.167968,412.15625 160.273437,415.21875 C 156.375,418.285157 144.886718,417.51171899999997 140.988281,420.58203100000003 C 145.015625,420.84375 153.554687,424.77734399999997 157.589844,424.71093800000006 C 161.625,424.640625 165.539062,419.88671899999997 169.554687,419.49218800000006 C 173.570312,419.10156300000006 178.527344,424.11328100000003 182.5,423.40234399999997 C 186.472656,422.6875 190.628906,421.03906300000006 194.535156,420.01171899999997 C 198.433594,418.98828100000003 202.53125,417.40625 206.339844,416.078125 C 210.148437,414.74218800000006 212.38281199999997,407.52734399999997 216.07031199999997,405.890625 C 223.27343699999997,405.23828100000003 223.472656,406.58593800000006 230.71093699999997,406.58593800000006 C 237.94531199999997,406.58593800000006 238.39843699999997,402.41406300000006 245.605468,403.066407 C 249.292968,404.703125 253.33593699999997,408.85156300000006 257.14453100000003,410.17968800000006 C 260.953125,411.515625 263.515625,416.95703100000003 267.421875,417.98046899999997 C 271.324218,419.003907 275.87109399999997,417.53125 279.84375,418.24218800000006 C 283.81640600000003,418.94921899999997 287.61718699999994,421.46875 291.63281199999994,421.859375 C 295.64843699999994,422.25 299.86718699999994,420.35546899999997 303.90234399999997,420.421875 C 307.93359399999997,420.48828100000003 313.37109399999997,420.72656300000006 317.39843699999994,420.45703100000003 C 313.5,417.39453100000003 304.875,418.503907 300.97656199999994,415.4375 C 297.078125,412.375 298.75781199999994,404.703125 294.859375,401.640625 C 298.20703100000003,401.4375 299.08593699999994,397.99218800000006 302.42968699999994,397.78906300000006 C 305.78125,397.58984399999997 304.59765600000003,400.15234399999997 307.94531199999994,399.94531300000006 M 236.160156,524.574219 L 225.644531,524.574219 L 225.644531,371.48828100000003 L 236.160156,371.48828100000003 L 236.160156,524.574219 M 387.58203100000003,416.42578100000003 C 385.15234399999997,413.984375 388.75781199999994,410.378907 386.328125,407.9375 C 383.89843699999994,405.49609399999997 381.69531199999994,402.828125 379.265625,400.38281300000006 C 376.83593699999994,397.941407 375.81640600000003,399.35156300000006 373.386718,396.91406300000006 C 376.72265600000003,397.503907 376.171875,398.17968800000006 379.50390600000003,398.77343800000006 C 382.83593699999994,399.37109399999997 386.08984399999997,400.38281300000006 389.421875,400.98046899999997 C 392.75781199999994,401.578125 393.45703100000003,398.40625 396.792968,399.003907 C 394.25781199999994,396.83984399999997 395.72265600000003,395.07421899999997 393.18359399999997,392.91796899999997 C 390.65234399999997,390.75781300000006 389.167968,387.36718800000006 386.62890600000003,385.20703100000003 C 384.09375,383.046875 378.74218699999994,384.191407 376.20703100000003,382.02734399999997 C 373.671875,379.86328100000003 370.34375,378.64453100000003 367.80859399999997,376.48046899999997 C 365.27343699999994,374.316407 366.47265600000003,367.78906300000006 363.9375,365.625 C 361.40625,363.46093800000006 356.984375,363.94921899999997 354.453125,361.78906300000006 C 357.9375,362.253907 361.39843699999994,360.88671899999997 364.88281199999994,361.35546899999997 C 368.37109399999997,361.82031300000006 372.25390600000003,359.34375 375.73828100000003,359.816407 C 379.22265600000003,360.285157 381.73828100000003,365.15625 385.22265600000003,365.62109399999997 C 383.38281199999994,362.59375 380.0,360.941407 378.14843699999994,357.910157 C 376.30468699999994,354.878907 373.53906199999994,352.410157 371.69531199999994,349.378907 C 369.84765600000003,346.35156300000006 369.88281199999994,342.171875 368.042968,339.140625 C 366.19140600000003,336.11718800000006 361.296875,334.94531300000006 359.44531199999994,331.91406300000006 C 358.97656199999994,331.140625 358.27734399999997,331.48046899999997 354.421875,330.65234399999997 C 350.375,329.77343800000006 345.515625,325.21093800000006 345.5625,324.26171899999997 C 345.61328100000003,323.296875 351.01953100000003,318.87109399999997 355.41406199999994,318.23046899999997 C 359.5625,317.62109399999997 364.95703100000003,320.453125 365.83203100000003,320.703125 C 363.13281199999994,317.45703100000003 359.41406199999994,314.91406300000006 356.72265600000003,311.66796899999997 C 354.03125,308.41796899999997 348.8125,301.597657 346.11328100000003,298.347657 C 351.01953100000003,299.62109399999997 358.796875,304.08984399999997 363.70703100000003,305.36328100000003 C 361.32031199999994,302.48046899999997 357.296875,301.0625 354.91015600000003,298.18359399999997 C 352.52343699999994,295.296875 348.55468699999994,293.73046899999997 346.167968,290.85156300000006 C 343.78125,287.972657 344.97656199999994,282.12109399999997 342.59375,279.24218800000006 C 340.20703100000003,276.36328100000003 339.84765600000003,275.21093800000006 337.46093699999994,272.33203100000003 C 341.33984399999997,272.828125 343.03515600000003,271.95703100000003 346.91015600000003,272.44921899999997 C 344.730468,269.14843800000006 339.58593699999994,267.60546899999997 337.40625,264.3125 C 335.230468,261.015625 333.73828100000003,252.23437499999997 331.55859399999997,248.941407 C 338.011718,249.746094 343.51953100000003,256.375 349.97265600000003,257.17968800000006 C 347.636718,253.98437499999997 341.199218,250.339844 339.50390600000003,247.144531 C 337.71875,243.80468800000003 337.5,239.73437499999997 335.72265600000003,236.394531 C 334.01953100000003,233.19531300000003 336.78515600000003,229.339844 334.453125,226.144531 C 337.27343699999994,225.69531300000003 339.26953100000003,225.652344 342.08203100000003,225.199219 C 340.33593699999994,222.99218800000003 334.042968,222.113281 332.292968,219.90624999999997 C 330.546875,217.695313 331.80078100000003,213.425781 330.05078100000003,211.21875 C 332.02343699999994,211.464844 331.58984399999997,212.152344 333.55468699999994,212.398438 C 331.15625,210.347657 330.58984399999997,207.65625 328.203125,205.230469 C 325.81640600000003,202.800781 323.66015600000003,195.660157 321.261718,193.609375 C 318.86328100000003,195.660157 318.23828100000003,204.957031 315.5,207.382813 C 312.765625,209.808594 312.02734399999997,214.144531 309.62890600000003,216.191407 C 311.59375,215.953125 312.980468,216.878907 311.19140600000003,216.03125 C 314.61328100000003,217.660157 309.72656199999994,217.027344 307.980468,219.234375 C 306.234375,221.441407 300.011718,223.29687499999997 298.265625,225.511719 C 301.08203100000003,225.957031 310.1875,224.85937499999997 313.00390600000003,225.30468800000003 C 310.671875,228.49999999999997 302.671875,230.839844 300.96875,234.03906300000003 C 299.19140600000003,237.378907 303.51953100000003,243.871094 301.74218699999994,247.207031 C 300.03906199999994,250.402344 294.17968699999994,252.777344 291.84765600000003,255.980469 C 298.30078100000003,255.17187499999997 299.37890600000003,256.13281300000006 305.83203100000003,255.332031 C 303.65234399999997,258.625 299.46093699999994,256.77343800000006 297.28125,260.066407 C 295.105468,263.359375 295.99218699999994,269.378907 293.8125,272.67968800000006 C 297.65625,272.191407 302.125,272.16406300000006 305.96875,271.67578100000003 C 306.046875,271.660157 302.38281199999994,268.160157 302.33203100000003,268.222657 C 299.95703100000003,271.08593800000006 299.16406199999994,275.14843800000006 296.78906199999994,278.015625 C 294.41406199999994,280.88281300000006 293.65234399999997,285.08593800000006 291.27734399999997,287.953125 C 288.90234399999997,290.82031300000006 283.71093699999994,291.35546899999997 281.33593699999994,294.21875 C 278.96484399999997,297.08593800000006 278.27734399999997,304.89453100000003 275.90234399999997,307.76171899999997 C 280.8125,306.484375 290.3125,299.38281300000006 295.22265600000003,298.109375 C 292.52734399999997,301.35546899999997 290.31640600000003,311.08984399999997 287.62109399999997,314.33984399999997 C 284.92968699999994,317.58593800000006 280.234375,318.37109399999997 277.53906199999994,321.625 C 279.33203100000003,321.10546899999997 288.32031199999994,324.785157 288.417968,326.64453100000003 C 288.515625,328.503907 276.02734399999997,326.296875 275.05468699999994,327.890625 C 273.21093699999994,330.91406300000006 271.28125,333.89453100000003 269.4375,336.92968800000006 C 267.58984399999997,339.953125 267.96875,344.33984399999997 266.12109399999997,347.37109399999997 C 264.27734399999997,350.39453100000003 265.68359399999997,355.40234399999997 263.83593699999994,358.43359399999997 C 261.98828100000003,361.46875 260.4375,360.89843800000006 258.58984399999997,363.92578100000003 C 262.05859399999997,363.46093800000006 262.359375,364.08593800000006 265.828125,363.62109399999997 C 269.292968,363.15625 272.83984399999997,363.30859399999997 276.30468699999994,362.84375 C 279.76953100000003,362.375 282.9375,358.32421899999997 286.40234399999997,357.86328100000003 C 286.48828100000003,357.85546899999997 287.046875,362.10156300000006 286.98828100000003,362.15625 C 284.46484399999997,364.3125 280.17578100000003,364.40625 277.65625,366.55859399999997 C 275.13281199999994,368.70703100000003 272.24609399999997,370.43359399999997 269.72656199999994,372.58203100000003 C 267.203125,374.734375 266.33203100000003,378.82031300000006 263.8125,380.96875 C 261.28906199999994,383.12109399999997 259.375,385.97656300000006 256.85156199999994,388.125 C 254.32812500000003,390.27343800000006 250.62500000000003,391.03906300000006 248.10156199999997,393.191407 C 245.582031,395.33984399999997 242.84375000000003,398.89843800000006 240.32031199999997,401.046875 C 243.652344,400.45703100000003 247.902344,398.972657 251.230468,398.375 C 254.56250000000003,397.785157 258.10156199999994,398.33203100000003 261.42968699999994,397.74218800000006 C 264.761718,397.14453100000003 267.261718,396.11328100000003 270.59375,395.52343800000006 C 268.16406199999994,397.96093800000006 267.80078100000003,401.43359399999997 265.37109399999997,403.878907 C 262.94140600000003,406.316407 257.19531199999994,405.46875 254.76562500000003,407.910157 C 252.33593699999997,410.35546899999997 251.19531199999997,414.84375 248.76562500000003,417.29296899999997 C 251.667968,417.46093800000006 254.980468,421.58593800000006 257.886718,421.75781300000006 C 260.78906199999994,421.93359399999997 265.02734399999997,418.23046899999997 267.92968699999994,418.40625 C 264.546875,421.066407 262.82031199999994,427.01953100000003 259.43359399999997,429.67968800000006 C 256.05468699999994,432.33984399999997 246.08593699999997,431.66796899999997 242.70312500000003,434.328125 C 246.199218,434.55859399999997 253.605468,437.96875 257.109375,437.91406300000006 C 260.609375,437.85156300000006 264.00781199999994,433.722657 267.49218699999994,433.390625 C 270.980468,433.046875 275.27734399999997,437.39453100000003 278.72265600000003,436.78125 C 282.171875,436.16406300000006 285.78125,434.722657 289.167968,433.83984399999997 C 292.55468699999994,432.94921899999997 296.109375,431.578125 299.41406199999994,430.421875 C 302.71875,429.265625 304.65625,423.00781300000006 307.855468,421.58593800000006 C 314.109375,421.01953100000003 314.28125,422.1875 320.55859399999997,422.1875 C 326.83984399999997,422.1875 327.234375,418.566407 333.48828100000003,419.13281300000006 C 336.6875,420.55468800000006 340.19531199999994,424.14843800000006 343.5,425.30859399999997 C 346.80859399999997,426.46484399999997 349.03125,431.1875 352.417968,432.078125 C 355.80468699999994,432.96093800000006 359.75,431.6875 363.199218,432.30468800000006 C 366.64843699999994,432.91796899999997 369.94531199999994,435.10156300000006 373.42968699999994,435.4375 C 376.917968,435.78125 380.57031199999994,434.13671899999997 384.078125,434.191407 C 387.574218,434.24609399999997 392.28906199999994,434.45703100000003 395.78515600000003,434.222657 C 392.40234399999997,431.566407 384.917968,432.53125 381.53906199999994,429.86718800000006 C 378.15234399999997,427.21093800000006 379.609375,420.55468800000006 376.22656199999994,417.89453100000003 C 379.13281199999994,417.71875 379.89453100000003,414.73046899999997 382.80078100000003,414.55859399999997 C 385.70703100000003,414.38281300000006 384.67968699999994,416.60156300000006 387.58203100000003,416.42578100000003 M 325.28906199999994,508.71484399999997 L 316.167968,508.71484399999997 L 316.167968,391.734375 L 325.28906199999994,391.734375 L 325.28906199999994,508.71484399999997 M 25.796875,494.71484399999997 C 25.796875,494.71484399999997 28.167968000000002,495.625 32.617187,497.32421899999997 C 33.726562,497.75781299999994 34.964844,498.234375 36.332031,498.765625 C 37.695312,499.28906299999994 39.210937,499.796875 40.832031,500.375 C 42.453125,500.94921899999997 44.199218,501.57031299999994 46.058594,502.23046899999997 C 47.902344,502.91796899999997 49.910156,503.546875 52.015625,504.2382809999999 C 54.117187,504.9257809999999 56.335937,505.65234399999997 58.660156,506.40625 C 61.007812,507.10156299999994 63.460937,507.82421899999997 66.019531,508.5820309999999 C 67.300781,508.953125 68.605468,509.33593799999994 69.933594,509.71875 C 71.273437,510.078125 72.636718,510.44531299999994 74.027344,510.8125 C 75.417968,511.18359399999997 76.832031,511.5625 78.269531,511.94921899999997 C 78.984375,512.1445309999999 79.710937,512.339844 80.441406,512.535157 C 81.175781,512.703125 81.921875,512.878907 82.671875,513.058594 C 94.613281,515.996094 108.234375,518.667969 123.199218,520.5859379999999 C 138.164062,522.503907 154.476562,523.6171879999999 171.722656,523.621094 C 180.34375,523.5234379999999 189.203125,523.359375 198.238281,522.667969 C 199.363281,522.597657 200.496094,522.5234379999999 201.632812,522.449219 C 202.769531,522.3632809999999 203.902344,522.25 205.042968,522.152344 C 207.324218,521.9570309999999 209.613281,521.753907 211.91406199999997,521.5546879999999 C 216.50781199999997,521.035157 221.152344,520.597657 225.816406,519.9375 C 244.488281,517.5390629999999 263.640625,513.90625 282.949218,509.421875 C 287.78125,508.32421899999997 292.61328100000003,507.10156299999994 297.46093699999994,505.90625 C 302.296875,504.6445309999999 307.15234399999997,503.41406299999994 312.0,502.09375 C 321.71093699999994,499.503907 331.42578100000003,496.734375 341.12109399999997,493.85546899999997 C 360.53125,488.1757809999999 379.859375,482.0625 398.97265600000003,476.21093799999994 C 403.75781199999994,474.73828100000003 408.511718,473.28125 413.25390600000003,471.82421899999997 C 418.00390600000003,470.40234399999997 422.73828100000003,468.98828100000003 427.4375,467.578125 C 436.85156199999994,464.796875 446.16406199999994,462.07031300000006 455.390625,459.57421899999997 C 464.605468,457.05468800000006 473.699218,454.63281300000006 482.6523440000001,452.49218800000006 C 491.60156200000006,450.316407 500.39843700000006,448.347657 509.0,446.58203100000003 C 526.207031,443.09375 542.6328120000001,440.453125 557.8671870000001,438.76953100000003 C 565.4921870000001,437.95703100000003 572.8046870000001,437.28125 579.78125,436.87109399999997 C 586.753906,436.453125 593.378906,436.22656300000006 599.597656,436.128907 C 602.703125,436.11718800000006 605.7148440000001,436.05468800000006 608.6210940000001,436.078125 C 611.5273440000001,436.12109399999997 614.3203120000001,436.18359399999997 617.011718,436.25 C 619.699218,436.328125 622.2773440000001,436.48828100000003 624.738281,436.597657 C 625.96875,436.660157 627.1640620000001,436.71875 628.3359370000001,436.77343800000006 C 629.5078120000001,436.859375 630.6523440000001,436.94531300000006 631.761718,437.03125 C 633.984375,437.19531300000006 636.0898440000001,437.35546899999997 638.0703120000001,437.5 C 640.0390620000001,437.67578100000003 641.890625,437.90234399999997 643.609375,438.078125 C 645.324218,438.26953100000003 646.921875,438.4375 648.375,438.597657 C 649.832031,438.75 651.1523440000001,438.96484399999997 652.328125,439.109375 C 657.046875,439.77734399999997 659.5703120000001,440.128907 659.5703120000001,440.128907 C 659.5703120000001,440.128907 657.0273440000001,440.00781300000006 652.2734370000001,439.77734399999997 C 651.082031,439.72656300000006 649.7578120000001,439.628907 648.300781,439.59375 C 646.8359370000001,439.55468800000006 645.2421870000001,439.51953100000003 643.519531,439.47656300000006 C 641.800781,439.441407 639.949218,439.378907 637.972656,439.35546899999997 C 636.0,439.347657 633.8984370000001,439.34375 631.6835940000001,439.33593800000006 C 622.824218,439.347657 612.0703120000001,439.640625 599.792968,440.55859399999997 C 593.6523440000001,441.01953100000003 587.1328120000001,441.628907 580.285156,442.453125 C 579.421875,442.55078100000003 578.5625,442.64843800000006 577.6953120000001,442.74609399999997 C 576.828125,442.859375 575.957031,442.97656300000006 575.082031,443.09375 C 573.324218,443.32031300000006 571.5546870000001,443.55078100000003 569.7578120000001,443.78906300000006 C 567.9648440000001,444.00781300000006 566.1484370000001,444.30078100000003 564.3203120000001,444.578125 C 562.488281,444.85546899999997 560.640625,445.13671899999997 558.769531,445.421875 C 555.0390620000001,446.046875 551.230468,446.67968800000006 547.355468,447.36328100000003 C 545.425781,447.73046899999997 543.472656,448.097657 541.5,448.46875 C 540.519531,448.65625 539.5273440000001,448.83984399999997 538.5390620000001,449.02734399999997 C 537.542968,449.23046899999997 536.550781,449.4375 535.5546870000001,449.63671899999997 C 533.5585940000001,450.05078100000003 531.546875,450.46093800000006 529.511718,450.88281300000006 C 527.484375,451.296875 525.4453120000001,451.76953100000003 523.386718,452.21875 C 519.265625,453.097657 515.1171870000001,454.10156300000006 510.890625,455.097657 C 502.47656200000006,457.160157 493.83203100000003,459.32031300000006 485.05468700000006,461.765625 C 480.6523440000001,462.94531300000006 476.22656200000006,464.234375 471.7460940000001,465.484375 C 467.2773440000001,466.78906300000006 462.765625,468.07421899999997 458.230468,469.44921899999997 C 449.14453100000003,472.171875 439.92578100000003,475.01171899999997 430.605468,477.941407 C 421.28906199999994,480.910157 411.85156199999994,483.90625 402.34765600000003,486.92968799999994 C 383.328125,493.03906299999994 363.94531199999994,499.1875 344.39843699999994,504.96875 C 334.61718699999994,507.83593799999994 324.80078100000003,510.597657 314.96093699999994,513.191407 C 305.13281199999994,515.816407 295.26953100000003,518.191407 285.43359399999997,520.3671879999999 C 282.97656199999994,520.921875 280.52343699999994,521.4609379999999 278.0625,521.9570309999999 C 275.605468,522.4570309999999 273.16015600000003,522.9921879999999 270.703125,523.464844 C 268.25,523.921875 265.80078100000003,524.378907 263.355468,524.8359379999999 C 260.91406199999994,525.3046879999999 258.46093699999994,525.683594 256.02734399999997,526.109375 C 254.808594,526.316407 253.589844,526.5234379999999 252.37500000000003,526.7265629999999 C 251.160156,526.9140629999999 249.941406,527.097657 248.72656199999997,527.2890629999999 C 246.292968,527.6484379999999 243.87500000000003,528.0390629999999 241.457031,528.3671879999999 C 236.613281,529.0078129999999 231.808594,529.640625 227.01562500000003,530.1171879999999 C 222.238281,530.671875 217.472656,531.015625 212.76562500000003,531.4296879999999 C 210.40625,531.5820309999999 208.058594,531.730469 205.722656,531.875 C 204.554687,531.9375 203.390625,532.0234379999999 202.226562,532.0703129999999 C 201.058594,532.1132809999999 199.902344,532.15625 198.742187,532.191407 C 189.484375,532.6015629999999 180.40625,532.5507809999999 171.585937,532.316407 C 153.945312,531.691407 137.324218,529.8671879999999 122.183594,527.1953129999999 C 118.402344,526.511719 114.71875,525.7421879999999 111.109375,525.042969 C 107.519531,524.246094 104.023437,523.4375 100.617187,522.636719 C 97.234375,521.75 93.941406,520.878907 90.738281,520.03125 C 87.550781,519.1445309999999 84.480468,518.1875 81.496094,517.308594 C 80.75,517.0820309999999 80.007812,516.8632809999999 79.277344,516.6445309999999 C 78.550781,516.40625 77.828125,516.167969 77.113281,515.9296879999999 C 75.6875,515.453125 74.277344,514.9882809999999 72.902344,514.53125 C 71.523437,514.074219 70.167968,513.625 68.839844,513.183594 C 67.527344,512.699219 66.242187,512.222657 64.980468,511.753907 C 62.460937,510.8125 60.046875,509.910157 57.738281,509.04296899999997 C 55.457031,508.11718799999994 53.28125,507.22656299999994 51.214844,506.390625 C 47.070312,504.76171899999997 43.453125,503.07031299999994 40.296875,501.66406299999994 C 38.722656,500.94531299999994 37.25,500.316407 35.933594,499.6757809999999 C 34.617187,499.03125 33.425781,498.453125 32.351562,497.93359399999997 C 28.074218000000002,495.83984399999997 25.796875,494.71484399999997 25.796875,494.71484399999997 M 32.308594,584.4375 C 32.308594,584.4375 34.585937,585.2890629999999 38.847656,586.8984379999999 C 39.914062,587.3007809999999 41.105468,587.753907 42.410156,588.253907 C 43.726562,588.730469 45.179687,589.2070309999999 46.738281,589.734375 C 49.859375,590.785157 53.414062,592.066407 57.488281,593.25 C 59.515625,593.859375 61.636718,594.542969 63.882812,595.1757809999999 C 66.144531,595.777344 68.507812,596.40625 70.972656,597.0546879999999 C 73.421875,597.746094 76.023437,598.2695309999999 78.695312,598.902344 C 80.03125,599.214844 81.394531,599.527344 82.78125,599.84375 C 84.164062,600.15625 85.59375,600.3945309999999 87.035156,600.6796879999999 C 98.554687,602.941407 111.695312,604.6875 126.066406,605.328125 C 127.859375,605.402344 129.675781,605.480469 131.507812,605.5546879999999 C 133.34375,605.5703129999999 135.195312,605.5820309999999 137.066406,605.59375 C 140.800781,605.6796879999999 144.609375,605.511719 148.476562,605.40625 C 150.410156,605.3828129999999 152.359375,605.2109379999999 154.324218,605.097657 C 156.285156,604.96875 158.265625,604.875 160.253906,604.7109379999999 C 162.242187,604.5234379999999 164.246094,604.328125 166.265625,604.1328129999999 C 167.273437,604.027344 168.285156,603.949219 169.300781,603.828125 C 170.3125,603.691407 171.328125,603.558594 172.347656,603.4296879999999 C 180.511718,602.464844 188.835937,600.980469 197.292968,599.265625 C 205.742187,597.472657 214.30468699999997,595.316407 222.94531199999997,592.8671879999999 C 231.558594,590.308594 240.261718,587.5234379999999 248.980468,584.3984379999999 C 251.160156,583.6132809999999 253.332031,582.7890629999999 255.51562500000003,581.9765629999999 C 256.605468,581.5703129999999 257.703125,581.171875 258.792968,580.746094 C 259.87890600000003,580.3203129999999 260.96875,579.890625 262.05859399999997,579.4570309999999 C 264.234375,578.5859379999999 266.4375,577.78125 268.609375,576.8671879999999 C 270.78906199999994,575.96875 272.97656199999994,575.0703129999999 275.167968,574.1757809999999 C 283.89453100000003,570.496094 292.61328100000003,566.5859379999999 301.328125,562.5507809999999 C 310.03125,558.480469 318.71484399999997,554.265625 327.355468,549.9296879999999 C 344.66015600000003,541.3046879999999 361.78906199999994,532.253907 378.730468,523.390625 C 382.96093699999994,521.167969 387.17578100000003,518.953125 391.37109399999997,516.753907 C 395.58203100000003,514.574219 399.77734399999997,512.40625 403.94140600000003,510.24609399999997 C 412.28515600000003,505.94531299999994 420.546875,501.7070309999999 428.74218699999994,497.67968799999994 C 445.109375,489.546875 461.17578100000003,482.10156299999994 476.640625,475.55078100000003 C 492.1210940000001,469.02343800000006 507.042968,463.48046899999997 521.019531,459.00781300000006 C 522.761718,458.42578100000003 524.503906,457.910157 526.2265620000001,457.390625 C 527.941406,456.875 529.644531,456.36718800000006 531.324218,455.859375 C 534.699218,454.88281300000006 538.015625,453.98828100000003 541.238281,453.109375 C 544.484375,452.30468800000006 547.6484370000001,451.52343800000006 550.722656,450.765625 C 553.8125,450.08203100000003 556.816406,449.42578100000003 559.730468,448.785157 C 571.4023440000001,446.34375 581.703125,444.972657 590.1835940000001,444.05078100000003 C 592.3085940000001,443.85156300000006 594.316406,443.660157 596.2109370000001,443.47656300000006 C 598.1015620000001,443.27734399999997 599.886718,443.22656300000006 601.5390620000001,443.11718800000006 C 604.8398440000001,442.93359399999997 607.6484370000001,442.74609399999997 609.9335940000001,442.734375 C 614.4921870000001,442.640625 616.921875,442.59375 616.921875,442.59375 C 616.921875,442.59375 614.511718,442.87109399999997 609.980468,443.390625 C 607.7148440000001,443.60546899999997 604.9453120000001,444.046875 601.6796870000001,444.515625 C 598.4140620000001,444.941407 594.6875,445.628907 590.511718,446.33203100000003 C 582.1835940000001,447.87109399999997 572.125,450.03906300000006 560.761718,453.097657 C 557.9335940000001,453.90625 555.015625,454.73828100000003 552.011718,455.597657 C 549.0273440000001,456.53125 545.9609370000001,457.49609399999997 542.8125,458.48046899999997 C 539.691406,459.55859399999997 536.4765620000001,460.58984399999997 533.203125,461.72656300000006 C 531.574218,462.30468800000006 529.925781,462.89843800000006 528.2578120000001,463.49609399999997 C 526.59375,464.097657 524.910156,464.691407 523.222656,465.35156300000006 C 519.847656,466.660157 516.3828120000001,467.91406300000006 512.894531,469.347657 C 511.14843700000006,470.046875 509.390625,470.753907 507.609375,471.46875 C 505.84375,472.21484399999997 504.0585940000001,472.96484399999997 502.265625,473.72656300000006 C 498.66406200000006,475.21875 495.03906200000006,476.8320309999999 491.34765600000003,478.44531299999994 C 489.4960940000001,479.2382809999999 487.66015600000003,480.109375 485.796875,480.94921899999997 C 483.94140600000003,481.8007809999999 482.05468700000006,482.63671899999997 480.17968700000006,483.52734399999997 C 465.140625,490.535157 449.48828100000003,498.390625 433.417968,506.83593799999994 C 425.39453100000003,511.0625 417.24218699999994,515.3984379999999 409.0,519.8359379999999 C 400.761718,524.28125 392.421875,528.777344 384.00781199999994,533.3125 C 367.18359399999997,542.40625 349.984375,551.527344 332.542968,560.292969 C 323.80859399999997,564.6445309999999 315.0,568.875 306.16015600000003,572.96875 C 297.31640600000003,577.0625 288.37890600000003,580.878907 279.453125,584.5507809999999 C 270.515625,588.1953129999999 261.52343699999994,591.53125 252.55468699999997,594.6015629999999 C 243.574218,597.6484379999999 234.59375000000003,600.3632809999999 225.675781,602.746094 C 221.18750000000003,603.84375 216.769531,605.027344 212.324218,605.9609379999999 C 211.214844,606.203125 210.113281,606.449219 209.011718,606.691407 C 207.910156,606.941407 206.808594,607.1796879999999 205.699218,607.375 C 203.492187,607.796875 201.296875,608.214844 199.109375,608.621094 C 196.929687,609.042969 194.730468,609.339844 192.5625,609.699219 C 190.390625,610.042969 188.230468,610.402344 186.070312,610.652344 C 183.914062,610.9257809999999 181.769531,611.1953129999999 179.640625,611.46875 C 177.503906,611.703125 175.375,611.8671879999999 173.269531,612.066407 C 156.386718,613.640625 140.289062,613.359375 125.597656,612.0 C 121.917968,611.714844 118.339844,611.1953129999999 114.839844,610.7421879999999 C 113.964844,610.625 113.09375,610.515625 112.230468,610.402344 C 111.367187,610.285157 110.519531,610.121094 109.667968,609.980469 C 107.972656,609.6875 106.292968,609.402344 104.640625,609.1171879999999 C 103.8125,608.96875 102.992187,608.828125 102.175781,608.683594 C 101.367187,608.511719 100.5625,608.339844 99.761718,608.171875 C 98.164062,607.828125 96.585937,607.4921879999999 95.035156,607.15625 C 91.921875,606.546875 88.949218,605.691407 86.050781,604.980469 C 84.605468,604.6015629999999 83.179687,604.2734379999999 81.789062,603.871094 C 80.40625,603.4609379999999 79.046875,603.058594 77.707031,602.660157 C 75.039062,601.8632809999999 72.453125,601.1445309999999 70.03125,600.2578129999999 C 67.59375,599.417969 65.257812,598.605469 63.027344,597.8359379999999 C 60.808594,597.027344 58.722656,596.1796879999999 56.730468,595.4140629999999 C 55.734375,595.03125 54.765625,594.652344 53.828125,594.285157 C 53.355468,594.1015629999999 52.890625,593.9257809999999 52.4375,593.75 C 51.984375,593.5546879999999 51.542968,593.359375 51.105468,593.171875 C 49.363281,592.410157 47.730468,591.6953129999999 46.210937,591.0234379999999 C 44.699218,590.3515629999999 43.289062,589.753907 42.019531,589.167969 C 40.757812,588.5546879999999 39.613281,588.003907 38.585937,587.503907 C 34.492187,585.503907 32.308594,584.4375 32.308594,584.4375 M 48.246094,661.378907 C 48.246094,661.378907 50.519531,661.9140629999999 54.777344,662.917969 C 55.839844,663.1757809999999 57.027344,663.464844 58.335937,663.7734379999999 C 59.648437,664.066407 61.085937,664.34375 62.636718,664.6640629999999 C 65.738281,665.2890629999999 69.277344,666.074219 73.296875,666.71875 C 75.300781,667.0546879999999 77.40625,667.453125 79.621094,667.792969 C 81.84375,668.1015629999999 84.171875,668.417969 86.597656,668.746094 C 89.011718,669.1171879999999 91.554687,669.3203129999999 94.171875,669.6132809999999 C 95.484375,669.753907 96.816406,669.890625 98.175781,670.0390629999999 C 99.53125,670.1796879999999 100.917968,670.2382809999999 102.328125,670.34375 C 113.566406,671.183594 126.292968,671.378907 140.070312,670.4453129999999 C 141.792968,670.3203129999999 143.53125,670.1953129999999 145.289062,670.0703129999999 C 147.039062,669.910157 148.808594,669.703125 150.589844,669.5195309999999 C 151.484375,669.4296879999999 152.378906,669.3320309999999 153.28125,669.2382809999999 C 153.730468,669.191407 154.183594,669.1445309999999 154.632812,669.09375 L 155.988281,668.90625 C 157.792968,668.6484379999999 159.617187,668.3945309999999 161.460937,668.128907 C 163.304687,667.8984379999999 165.144531,667.5507809999999 167.007812,667.234375 C 168.863281,666.902344 170.738281,666.578125 172.625,666.25 C 174.503906,665.859375 176.398437,665.464844 178.300781,665.066407 C 179.253906,664.875 180.207031,664.671875 181.164062,664.472657 C 182.121094,664.2382809999999 183.074218,664.0078129999999 184.035156,663.7734379999999 C 185.949218,663.3125 187.878906,662.839844 189.820312,662.371094 C 191.75,661.847657 193.691406,661.316407 195.644531,660.785157 C 196.621094,660.5195309999999 197.605468,660.2695309999999 198.582031,659.980469 C 199.554687,659.683594 200.53125,659.3828129999999 201.511718,659.0820309999999 C 203.464844,658.472657 205.449218,657.9140629999999 207.414062,657.261719 C 215.28906199999997,654.6796879999999 223.25000000000003,651.78125 231.238281,648.5625 C 239.19531199999997,645.25 247.214844,641.7109379999999 255.21093699999997,637.839844 C 257.21093699999994,636.871094 259.19531199999994,635.8515629999999 261.19531199999994,634.855469 C 262.19531199999994,634.355469 263.19140600000003,633.847657 264.19140600000003,633.347657 C 265.1875,632.824219 266.17968699999994,632.308594 267.17578100000003,631.78125 C 269.15625,630.71875 271.17578100000003,629.7265629999999 273.15625,628.628907 C 275.140625,627.546875 277.13281199999994,626.46875 279.125,625.3828129999999 C 287.06640600000003,620.972657 294.95703100000003,616.3203129999999 302.83593699999994,611.535157 C 310.69140600000003,606.730469 318.511718,601.7695309999999 326.261718,596.683594 C 341.792968,586.558594 357.07031199999994,575.9765629999999 372.12890600000003,565.53125 C 379.66406199999994,560.292969 387.140625,555.1015629999999 394.52343699999994,549.964844 C 401.92578100000003,544.84375 409.234375,539.7734379999999 416.50390600000003,534.875 C 430.99609399999997,525.03125 445.22656199999994,515.7734379999999 458.949218,507.33984399999997 C 472.69140600000003,498.93359399999997 485.96093700000006,491.421875 498.46875,484.96093799999994 C 501.5898440000001,483.3320309999999 504.69531200000006,481.83984399999997 507.699218,480.32031299999994 C 510.72656200000006,478.847657 513.707031,477.44531299999994 516.605468,476.0820309999999 C 519.535156,474.77343800000006 522.394531,473.5 525.1640620000001,472.26171899999997 C 527.9609370000001,471.078125 530.6835940000001,469.9375 533.316406,468.828125 C 543.886718,464.46875 553.332031,461.26953100000003 561.136718,458.79296899999997 C 565.0585940000001,457.609375 568.542968,456.51171899999997 571.6328120000001,455.74609399999997 C 574.707031,454.93359399999997 577.3085940000001,454.20703100000003 579.4453120000001,453.73046899999997 C 583.7109370000001,452.75 585.988281,452.21875 585.988281,452.21875 C 585.988281,452.21875 583.78125,452.96875 579.636718,454.37109399999997 C 577.5546870000001,455.035157 575.03125,455.99609399999997 572.0585940000001,457.07421899999997 C 569.074218,458.13281300000006 565.703125,459.5 561.9140620000001,460.96484399999997 C 554.363281,464.015625 545.3085940000001,467.95703100000003 535.125,472.87109399999997 C 532.597656,474.13281300000006 529.988281,475.441407 527.300781,476.78125 C 524.6484370000001,478.17968799999994 521.910156,479.61718799999994 519.109375,481.09375 C 516.332031,482.61718799999994 513.480468,484.18359399999997 510.5625,485.77734399999997 C 507.67578100000003,487.4375 504.69531200000006,489.07421899999997 501.703125,490.85156299999994 C 498.71875,492.63671899999997 495.62890600000003,494.38671899999997 492.55468700000006,496.28906299999994 C 491.00781200000006,497.22656299999994 489.453125,498.171875 487.87890600000003,499.13281299999994 C 486.31640600000003,500.109375 484.74218700000006,501.097657 483.1523440000001,502.08984399999997 C 476.792968,506.05859399999997 470.292968,510.285157 463.64843699999994,514.6953129999999 C 450.37109399999997,523.542969 436.57031199999994,533.1757809999999 422.375,543.3125 C 415.28906199999994,548.40625 408.08203100000003,553.578125 400.78515600000003,558.816407 C 397.13281199999994,561.4453129999999 393.46484399999997,564.09375 389.77734399999997,566.75 C 386.074218,569.3984379999999 382.34765600000003,572.0546879999999 378.61328100000003,574.722657 C 371.12109399999997,580.0507809999999 363.55859399999997,585.417969 355.886718,590.699219 C 348.20703100000003,595.9882809999999 340.44531199999994,601.2265629999999 332.609375,606.3828129999999 C 324.75,611.4921879999999 316.80468699999994,616.496094 308.80078100000003,621.355469 C 300.78906199999994,626.2070309999999 292.66015600000003,630.796875 284.515625,635.234375 C 276.355468,639.6445309999999 268.105468,643.753907 259.85156199999994,647.605469 C 251.582031,651.4296879999999 243.27343699999997,654.9296879999999 234.99218699999997,658.09375 C 230.82031199999997,659.609375 226.71093699999997,661.171875 222.558594,662.503907 C 220.488281,663.183594 218.45312500000003,663.9257809999999 216.37500000000003,664.527344 C 214.308594,665.1484379999999 212.25000000000003,665.761719 210.207031,666.378907 C 208.15625,666.980469 206.09375,667.5 204.058594,668.0625 C 203.039062,668.339844 202.019531,668.6132809999999 201.003906,668.878907 C 199.988281,669.1484379999999 198.964844,669.375 197.949218,669.6171879999999 C 195.917968,670.097657 193.898437,670.5820309999999 191.894531,671.058594 C 189.871094,671.4609379999999 187.863281,671.871094 185.867187,672.2734379999999 C 169.902344,675.484375 154.511718,676.8632809999999 140.347656,677.128907 C 136.808594,677.25 133.335937,677.128907 129.949218,677.078125 C 129.101562,677.066407 128.261718,677.046875 127.425781,677.035157 C 126.589844,676.9921879999999 125.757812,676.949219 124.933594,676.90625 C 123.28125,676.808594 121.652344,676.71875 120.042968,676.628907 C 119.238281,676.578125 118.4375,676.53125 117.644531,676.480469 C 116.851562,676.40625 116.066406,676.328125 115.285156,676.253907 C 113.726562,676.109375 112.183594,675.9570309999999 110.667968,675.808594 C 109.910156,675.734375 109.15625,675.667969 108.40625,675.597657 C 107.660156,675.5234379999999 106.925781,675.40625 106.191406,675.316407 C 104.722656,675.1132809999999 103.28125,674.921875 101.859375,674.734375 C 100.4375,674.535157 99.039062,674.3828129999999 97.671875,674.1484379999999 C 96.304687,673.917969 94.964844,673.6875 93.640625,673.4609379999999 C 91.007812,673.003907 88.460937,672.609375 86.046875,672.0390629999999 C 83.628906,671.515625 81.3125,671.015625 79.09375,670.5390629999999 C 76.886718,670.015625 74.800781,669.453125 72.808594,668.9609379999999 C 71.816406,668.7109379999999 70.851562,668.4609379999999 69.914062,668.222657 C 69.441406,668.105469 68.984375,667.984375 68.527344,667.8671879999999 C 68.074218,667.7382809999999 67.628906,667.605469 67.191406,667.4765629999999 C 65.441406,666.953125 63.800781,666.464844 62.273437,666.0078129999999 C 60.753906,665.542969 59.339844,665.140625 58.058594,664.7265629999999 C 56.785156,664.3007809999999 55.628906,663.902344 54.59375,663.5546879999999 C 50.453125,662.1328129999999 48.246094,661.378907 48.246094,661.378907 M 336.11718699999994,42.042969 C 413.84375,42.042969 476.855468,105.0 476.855468,182.660157 C 476.855468,211.304688 468.26953100000003,237.949219 453.546875,260.171875 C 475.636718,235.33593800000003 489.0625,202.636719 489.0625,166.800781 C 489.0625,89.140625 426.05078100000003,26.183594 348.328125,26.183594 C 299.27734399999997,26.183594 256.09375,51.265625 230.902344,89.292969 C 256.67968699999994,60.308594 294.265625,42.042969 336.11718699999994,42.042969" fill="#000000" fill-opacity="1" fill-rule="nonzero"/>
</svg>
