<?xml version="1.0" ?>
<svg xmlns="http://www.w3.org/2000/svg" xmlns:ev="http://www.w3.org/2001/xml-events" xmlns:xlink="http://www.w3.org/1999/xlink" baseProfile="full" height="474" id="Слой_1" style="enable-background:new 0 0 1280 1280;" transform="scale(0.2109704641350211 0.2109704641350211) translate(-288.0 -237.0)" version="1.1" viewBox="0 0 576 474" width="576" x="0px" xml:space="preserve" y="0px">
	<defs/>
	<path d="M 479.5000000000002,299.20000000000016 C 479.4000000000002,300.10000000000014 479.5000000000002,300.60000000000014 479.2000000000003,301.0000000000001 C 473.60000000000025,309.30000000000007 467.8000000000003,317.4000000000001 459.3000000000003,323.10000000000014 C 452.60000000000025,327.5000000000001 445.3000000000003,329.9000000000001 437.2000000000003,329.8000000000002 C 432.5000000000002,329.70000000000016 427.9000000000003,329.60000000000014 423.2000000000003,329.3000000000002 C 415.4000000000003,328.9000000000002 408.7000000000003,325.8000000000002 402.7000000000003,321.0000000000002 C 399.10000000000025,318.10000000000025 395.3000000000003,315.3000000000002 392.10000000000025,312.0000000000002 C 389.2000000000003,309.10000000000025 386.9000000000002,305.60000000000025 383.9000000000002,301.8000000000002 C 375.3000000000002,301.9000000000002 366.70000000000016,304.8000000000002 358.10000000000025,308.0000000000002 C 355.7000000000003,308.9000000000002 352.9000000000002,309.5000000000002 351.3000000000003,312.5000000000002 C 355.50000000000034,316.0000000000002 361.10000000000025,316.60000000000025 365.4000000000003,319.60000000000025 C 369.9000000000003,322.8000000000003 374.60000000000036,325.7000000000003 378.7000000000003,329.3000000000003 C 382.7000000000003,332.7000000000003 386.10000000000025,336.7000000000003 390.10000000000025,340.3000000000003 C 390.0000000000002,337.00000000000034 388.10000000000025,334.4000000000003 386.8000000000003,331.7000000000003 C 385.50000000000034,328.9000000000003 384.00000000000034,326.2000000000003 382.4000000000003,322.9000000000003 C 388.7000000000003,323.4000000000003 393.60000000000036,325.7000000000003 398.2000000000003,328.7000000000003 C 409.2000000000003,335.8000000000003 415.3000000000003,346.10000000000025 418.2000000000003,358.60000000000025 C 418.60000000000025,360.2000000000003 419.10000000000025,361.9000000000002 419.10000000000025,363.5000000000002 C 419.2000000000003,368.4000000000002 421.10000000000025,372.5000000000002 424.3000000000003,376.8000000000002 C 422.7000000000003,377.4000000000002 421.4000000000003,377.9000000000002 420.00000000000034,378.3000000000002 C 411.50000000000034,380.9000000000002 402.7000000000004,381.8000000000002 393.9000000000003,380.5000000000002 C 379.9000000000003,378.4000000000002 370.50000000000034,370.0000000000002 363.50000000000034,358.4000000000002 C 358.9000000000003,350.8000000000002 357.10000000000036,342.5000000000002 357.10000000000036,333.60000000000025 C 357.10000000000036,325.8000000000003 358.60000000000036,327.10000000000025 349.8000000000004,324.3000000000003 C 337.40000000000043,320.50000000000034 326.90000000000043,324.00000000000034 317.40000000000043,333.2000000000003 C 318.40000000000043,334.2000000000003 319.2000000000004,335.10000000000025 320.2000000000004,335.9000000000003 C 321.7000000000004,337.00000000000034 323.40000000000043,337.8000000000003 324.7000000000004,339.00000000000034 C 327.8000000000004,341.9000000000003 331.2000000000004,343.50000000000034 335.60000000000036,343.9000000000003 C 347.2000000000004,345.00000000000034 355.2000000000004,357.10000000000036 352.2000000000004,368.3000000000003 C 350.60000000000036,374.3000000000003 346.40000000000043,378.4000000000003 340.60000000000036,380.50000000000034 C 336.7000000000004,381.9000000000003 332.50000000000034,382.3000000000003 328.3000000000004,381.10000000000036 C 324.10000000000036,379.9000000000003 320.8000000000004,377.9000000000003 318.60000000000036,373.9000000000003 C 316.4000000000003,369.9000000000003 314.7000000000004,365.9000000000003 315.10000000000036,361.10000000000036 C 315.50000000000034,356.8000000000004 316.60000000000036,353.00000000000034 319.7000000000004,349.8000000000004 C 322.00000000000034,347.50000000000045 321.8000000000004,346.60000000000036 319.3000000000004,344.60000000000036 C 317.7000000000004,343.4000000000003 315.90000000000043,342.50000000000034 314.40000000000043,341.2000000000004 C 312.1000000000005,339.40000000000043 309.90000000000043,340.00000000000034 308.1000000000005,341.7000000000004 C 305.7000000000005,344.00000000000034 303.3000000000005,346.40000000000043 301.40000000000043,349.10000000000036 C 300.40000000000043,350.50000000000034 300.1000000000005,352.50000000000034 300.00000000000045,354.2000000000004 C 299.8000000000004,358.2000000000004 300.00000000000045,362.2000000000004 300.1000000000005,366.2000000000004 C 300.40000000000043,380.2000000000004 299.1000000000005,394.10000000000036 297.6000000000005,408.10000000000036 C 297.1000000000005,412.9000000000003 296.90000000000043,417.7000000000004 296.40000000000043,422.50000000000034 C 295.6000000000005,429.8000000000003 294.6000000000005,437.00000000000034 293.6000000000005,444.3000000000003 C 293.50000000000045,445.10000000000025 293.50000000000045,445.9000000000003 293.40000000000043,447.00000000000034 C 295.6000000000005,447.9000000000003 297.7000000000004,448.9000000000003 299.90000000000043,449.60000000000036 C 314.50000000000045,454.50000000000034 329.50000000000045,457.2000000000004 344.7000000000004,459.00000000000034 C 367.40000000000043,461.7000000000004 390.3000000000004,461.10000000000036 413.10000000000036,461.00000000000034 C 435.10000000000036,460.9000000000003 457.10000000000036,460.60000000000036 479.10000000000036,461.10000000000036 C 499.2000000000004,461.60000000000036 519.3000000000004,463.00000000000034 539.3000000000004,465.60000000000036 C 551.2000000000004,467.2000000000004 563.0000000000005,469.10000000000036 574.6000000000004,471.9000000000003 C 575.0000000000003,472.00000000000034 575.4000000000003,472.2000000000003 575.8000000000004,472.4000000000003 C 575.5000000000005,472.8000000000003 575.3000000000004,473.2000000000003 575.1000000000004,473.2000000000003 C 383.50000000000034,473.2000000000003 191.80000000000035,473.2000000000003 3.410605131648481e-13,472.9000000000003 C 1.3000000000003524,472.60000000000036 2.500000000000341,472.2000000000003 3.8000000000003524,472.10000000000036 C 21.900000000000375,470.8000000000004 40.00000000000034,469.4000000000003 58.100000000000364,468.2000000000004 C 69.90000000000038,467.40000000000043 81.70000000000039,466.7000000000004 93.50000000000034,465.90000000000043 C 109.60000000000036,464.90000000000043 125.70000000000033,463.8000000000004 141.90000000000032,462.8000000000004 C 151.00000000000034,462.2000000000004 160.20000000000033,461.50000000000045 169.3000000000003,461.10000000000036 C 190.70000000000027,460.10000000000036 211.50000000000028,456.00000000000034 231.6000000000003,448.2000000000004 C 237.10000000000036,446.10000000000036 240.60000000000036,443.2000000000004 242.50000000000034,437.3000000000004 C 247.8000000000003,421.40000000000043 253.90000000000032,405.7000000000004 259.8000000000003,390.00000000000045 C 261.50000000000034,385.50000000000045 261.3000000000003,381.40000000000043 259.7000000000003,376.90000000000043 C 255.3000000000003,364.50000000000045 248.50000000000023,353.50000000000045 240.50000000000023,343.2000000000004 C 235.00000000000023,336.10000000000036 231.00000000000023,335.3000000000004 222.80000000000024,339.2000000000004 C 221.60000000000025,339.8000000000004 220.50000000000023,340.50000000000034 219.00000000000023,341.40000000000043 C 219.30000000000024,343.2000000000004 219.60000000000025,344.90000000000043 220.00000000000023,346.7000000000004 C 221.9000000000002,355.2000000000004 217.4000000000002,363.90000000000043 209.60000000000025,366.50000000000034 C 201.20000000000027,369.4000000000003 191.50000000000023,365.7000000000004 187.90000000000026,357.8000000000003 C 184.90000000000026,351.10000000000025 185.70000000000027,343.8000000000003 190.50000000000028,338.60000000000025 C 195.3000000000003,333.5000000000002 201.40000000000026,331.4000000000002 208.20000000000027,333.9000000000002 C 211.70000000000027,335.20000000000016 214.3000000000003,335.4000000000002 217.3000000000003,332.8000000000002 C 218.8000000000003,331.4000000000002 221.20000000000027,331.0000000000002 223.20000000000027,330.20000000000016 C 224.20000000000027,329.8000000000002 225.20000000000027,329.3000000000002 226.90000000000026,328.60000000000014 C 222.20000000000027,322.70000000000016 217.00000000000028,318.3000000000002 210.80000000000024,315.10000000000014 C 206.50000000000023,312.8000000000002 203.40000000000026,312.70000000000016 188.90000000000026,315.70000000000016 C 181.80000000000024,339.60000000000014 165.30000000000024,353.8000000000002 140.80000000000024,358.60000000000014 C 126.10000000000025,361.5000000000001 107.70000000000022,358.5000000000001 100.40000000000026,351.0000000000001 C 100.40000000000026,350.70000000000016 100.30000000000024,350.30000000000007 100.40000000000026,350.0000000000001 C 102.60000000000025,345.20000000000016 104.80000000000024,340.4000000000001 107.00000000000028,335.60000000000014 C 109.70000000000027,329.70000000000016 112.3000000000003,323.8000000000002 116.70000000000027,318.8000000000002 C 124.10000000000025,310.20000000000016 133.10000000000025,304.8000000000002 144.3000000000003,303.3000000000002 C 152.6000000000003,302.10000000000014 160.90000000000032,301.8000000000002 169.6000000000003,304.8000000000002 C 165.3000000000003,308.4000000000002 161.3000000000003,311.8000000000002 157.3000000000003,315.10000000000014 C 157.40000000000032,315.3000000000002 157.6000000000003,315.60000000000014 157.70000000000027,315.8000000000002 C 158.20000000000027,315.70000000000016 158.8000000000003,315.70000000000016 159.3000000000003,315.5000000000002 C 168.90000000000032,311.2000000000003 178.8000000000003,307.9000000000002 189.20000000000027,306.2000000000003 C 190.8000000000003,305.9000000000003 192.3000000000003,305.4000000000003 194.70000000000027,304.7000000000003 C 192.70000000000027,302.9000000000003 191.3000000000003,301.4000000000003 189.70000000000027,300.4000000000003 C 186.00000000000028,298.2000000000003 182.20000000000027,296.00000000000034 178.3000000000003,294.2000000000003 C 171.00000000000028,290.9000000000003 163.6000000000003,288.10000000000025 156.20000000000027,284.8000000000003 C 153.60000000000025,283.7000000000003 151.60000000000025,283.9000000000003 149.20000000000027,285.3000000000003 C 141.60000000000025,289.7000000000003 133.60000000000025,293.50000000000034 125.20000000000027,296.3000000000003 C 108.70000000000027,301.7000000000003 93.60000000000025,298.50000000000034 79.50000000000028,289.50000000000034 C 70.50000000000028,283.8000000000003 63.40000000000026,276.10000000000036 58.500000000000284,266.60000000000036 C 56.500000000000284,262.8000000000004 55.300000000000296,258.60000000000036 53.500000000000284,254.10000000000036 C 54.800000000000296,254.10000000000036 55.800000000000296,254.00000000000034 56.70000000000027,254.10000000000036 C 60.60000000000025,254.50000000000034 64.3000000000003,253.7000000000004 67.90000000000026,252.2000000000004 C 74.20000000000027,249.7000000000004 80.60000000000025,247.3000000000004 86.90000000000026,244.60000000000036 C 93.40000000000026,241.8000000000004 100.30000000000024,240.7000000000004 107.30000000000024,240.3000000000004 C 117.00000000000023,239.60000000000036 125.50000000000023,243.60000000000036 133.70000000000022,248.2000000000004 C 137.00000000000023,250.10000000000036 139.9000000000002,252.7000000000004 143.00000000000023,255.00000000000034 C 145.60000000000025,256.9000000000003 147.50000000000023,259.3000000000003 149.10000000000025,261.9000000000003 C 148.50000000000023,264.3000000000003 146.70000000000027,264.3000000000003 145.10000000000025,264.2000000000003 C 140.90000000000026,264.10000000000025 136.80000000000024,263.9000000000003 132.60000000000025,263.8000000000003 C 124.40000000000026,263.60000000000025 116.30000000000024,263.4000000000003 108.10000000000025,263.3000000000003 C 107.00000000000023,263.3000000000003 106.00000000000023,263.7000000000003 104.80000000000024,264.9000000000003 C 106.30000000000024,265.2000000000003 107.80000000000024,265.7000000000003 109.30000000000024,265.9000000000003 C 139.10000000000025,268.10000000000036 167.60000000000025,275.50000000000034 195.00000000000023,287.50000000000034 C 207.00000000000023,292.8000000000003 217.80000000000024,299.8000000000003 228.30000000000024,307.50000000000034 C 229.60000000000025,308.50000000000034 231.00000000000023,309.3000000000003 232.40000000000026,310.3000000000003 C 233.8000000000003,306.10000000000025 233.10000000000025,302.9000000000003 230.30000000000024,299.50000000000034 C 227.40000000000026,296.00000000000034 224.40000000000026,292.7000000000004 221.80000000000024,289.10000000000036 C 215.40000000000026,280.10000000000036 211.40000000000026,270.2000000000004 212.20000000000022,258.8000000000004 C 212.70000000000022,251.00000000000045 214.4000000000002,243.60000000000036 219.1000000000002,237.2000000000004 C 222.30000000000018,232.8000000000004 225.70000000000022,228.50000000000034 229.6000000000002,223.50000000000034 C 230.9000000000002,229.10000000000036 234.30000000000018,232.2000000000004 237.4000000000002,235.60000000000036 C 239.9000000000002,238.3000000000004 242.50000000000023,240.90000000000032 244.80000000000018,243.7000000000004 C 250.50000000000023,250.90000000000043 253.4000000000002,259.2000000000004 254.4000000000002,268.40000000000043 C 255.30000000000018,277.40000000000043 253.4000000000002,285.6000000000005 249.4000000000002,293.40000000000043 C 248.9000000000002,294.40000000000043 248.10000000000025,295.1000000000005 247.20000000000016,296.2000000000004 C 241.20000000000016,290.60000000000036 240.5000000000001,282.8000000000004 237.4000000000002,275.7000000000004 C 235.80000000000018,277.40000000000043 236.20000000000016,278.90000000000043 236.30000000000018,280.3000000000004 C 237.4000000000002,289.10000000000036 239.10000000000014,297.7000000000004 241.60000000000014,306.2000000000004 C 242.9000000000001,310.50000000000034 244.0000000000001,314.90000000000043 245.20000000000016,319.2000000000004 C 245.9000000000002,321.60000000000036 246.70000000000016,324.00000000000034 248.80000000000018,325.8000000000004 C 251.50000000000023,322.7000000000004 250.30000000000018,318.60000000000036 252.10000000000014,315.50000000000045 C 253.9000000000001,312.3000000000004 256.0000000000001,309.40000000000043 258.3000000000002,306.40000000000043 C 256.60000000000014,312.7000000000004 256.60000000000014,319.1000000000005 257.0000000000002,325.50000000000045 C 257.3000000000002,330.7000000000005 259.2000000000003,335.6000000000005 261.4000000000002,340.2000000000005 C 262.0000000000002,341.50000000000045 263.20000000000016,342.50000000000045 264.5000000000002,344.2000000000005 C 265.60000000000025,342.8000000000005 266.60000000000025,342.00000000000045 267.0000000000002,340.90000000000055 C 267.5000000000002,339.50000000000057 267.8000000000002,338.00000000000057 267.8000000000002,336.50000000000057 C 268.60000000000014,317.7000000000006 269.3000000000002,298.90000000000055 270.0000000000002,280.1000000000006 C 270.10000000000025,278.2000000000006 269.7000000000003,276.1000000000006 269.0000000000002,274.30000000000064 C 266.8000000000002,268.2000000000006 264.3000000000002,262.2000000000006 261.9000000000002,256.2000000000006 C 257.10000000000025,243.90000000000066 249.4000000000002,233.50000000000057 241.60000000000025,223.2000000000006 C 239.00000000000023,219.80000000000064 236.50000000000023,216.30000000000064 233.9000000000002,212.90000000000066 C 235.50000000000023,209.40000000000066 237.00000000000023,206.1000000000007 238.50000000000023,202.7000000000006 C 247.60000000000025,209.1000000000006 254.30000000000018,218.1000000000006 262.2000000000003,226.00000000000057 C 261.5000000000002,210.2000000000006 254.70000000000027,196.50000000000057 248.60000000000025,182.30000000000052 C 252.3000000000003,185.60000000000048 256.10000000000025,188.80000000000052 260.0000000000002,192.30000000000052 C 261.5000000000002,190.50000000000057 261.0000000000002,188.90000000000055 260.60000000000025,187.30000000000052 C 258.3000000000003,178.10000000000048 256.3000000000003,168.80000000000052 253.70000000000027,159.7000000000005 C 251.50000000000023,151.9000000000005 248.60000000000025,144.2000000000005 246.10000000000025,136.5000000000005 C 245.3000000000003,134.0000000000005 243.9000000000002,132.30000000000052 241.4000000000002,131.10000000000053 C 231.80000000000018,126.60000000000053 223.20000000000022,120.70000000000056 215.4000000000002,113.60000000000053 C 205.50000000000023,104.50000000000051 198.1000000000002,93.70000000000056 195.70000000000022,80.20000000000056 C 192.80000000000024,64.40000000000055 194.4000000000002,49.00000000000057 201.80000000000024,34.50000000000057 C 203.60000000000025,31.00000000000057 206.30000000000024,28.00000000000057 208.90000000000026,24.30000000000058 C 210.40000000000026,25.80000000000058 211.50000000000028,26.900000000000603 212.50000000000028,28.200000000000557 C 215.20000000000027,31.700000000000557 218.6000000000003,34.20000000000056 222.40000000000026,36.400000000000546 C 226.90000000000026,39.00000000000057 231.20000000000027,41.80000000000052 235.50000000000023,44.600000000000534 C 248.00000000000023,52.600000000000534 254.9000000000002,64.30000000000052 258.0000000000002,78.60000000000053 C 259.7000000000003,86.30000000000052 258.9000000000002,93.80000000000052 257.7000000000003,101.40000000000055 C 257.5000000000002,102.90000000000055 257.2000000000003,104.40000000000055 256.9000000000003,105.80000000000052 C 256.10000000000036,108.90000000000055 255.3000000000003,111.90000000000055 252.10000000000036,114.30000000000052 C 251.10000000000036,113.00000000000051 250.00000000000034,111.7000000000005 249.10000000000036,110.40000000000055 C 244.8000000000004,104.30000000000052 240.60000000000036,98.10000000000053 236.3000000000004,92.00000000000057 C 235.2000000000004,90.40000000000055 233.8000000000004,89.00000000000057 232.10000000000042,87.10000000000059 C 231.8000000000004,89.60000000000059 232.90000000000043,91.20000000000061 233.8000000000004,92.60000000000059 C 249.10000000000036,116.50000000000057 259.10000000000036,142.7000000000006 268.8000000000004,169.1000000000006 C 276.10000000000036,188.80000000000064 281.00000000000045,209.2000000000006 286.3000000000004,229.40000000000055 C 288.90000000000043,239.30000000000052 290.10000000000036,249.7000000000005 291.8000000000004,259.8000000000005 C 292.60000000000036,264.7000000000005 293.2000000000004,269.7000000000005 294.00000000000045,274.6000000000005 C 294.2000000000005,275.7000000000005 294.7000000000005,276.7000000000005 295.1000000000005,278.00000000000045 C 297.7000000000005,276.90000000000043 298.6000000000005,274.6000000000005 299.8000000000005,272.8000000000004 C 304.1000000000005,265.8000000000004 308.8000000000005,259.2000000000004 314.90000000000055,253.60000000000036 C 315.3000000000005,253.2000000000004 315.8000000000005,252.8000000000004 316.8000000000005,252.8000000000004 C 315.40000000000055,255.00000000000045 314.2000000000005,257.2000000000004 312.7000000000005,259.3000000000004 C 305.6000000000005,269.50000000000045 300.90000000000055,280.8000000000004 297.8000000000005,292.90000000000043 C 297.50000000000057,294.00000000000045 297.1000000000005,295.2000000000004 297.2000000000005,296.3000000000004 C 297.7000000000005,304.8000000000004 298.3000000000005,313.2000000000004 298.90000000000055,321.7000000000004 C 299.00000000000057,322.60000000000036 299.50000000000057,323.50000000000034 299.90000000000055,324.8000000000004 C 303.6000000000006,322.7000000000004 307.1000000000006,320.90000000000043 310.40000000000055,318.8000000000004 C 311.40000000000055,318.10000000000036 312.00000000000057,316.7000000000004 312.50000000000057,315.50000000000045 C 315.7000000000006,308.6000000000005 319.00000000000057,301.6000000000005 321.90000000000055,294.6000000000005 C 323.50000000000057,290.7000000000005 324.6000000000006,286.50000000000045 325.50000000000057,282.3000000000005 C 321.40000000000055,286.7000000000005 319.2000000000006,292.40000000000055 314.50000000000057,296.7000000000005 C 311.7000000000006,293.1000000000005 311.3000000000005,289.1000000000005 311.2000000000006,285.2000000000005 C 311.1000000000006,274.3000000000005 316.2000000000006,266.2000000000005 325.00000000000057,260.1000000000005 C 328.40000000000055,257.7000000000005 331.6000000000006,255.00000000000045 334.90000000000055,252.50000000000045 C 335.7000000000005,251.90000000000043 336.40000000000055,251.3000000000004 337.1000000000006,250.8000000000004 C 337.50000000000057,251.00000000000045 337.7000000000006,251.10000000000036 337.80000000000064,251.2000000000004 C 341.80000000000064,259.8000000000004 344.0000000000007,268.8000000000004 342.40000000000066,278.3000000000004 C 341.7000000000006,282.40000000000043 340.30000000000064,286.3000000000004 338.7000000000006,290.2000000000004 C 336.2000000000006,296.3000000000004 332.1000000000006,300.90000000000043 325.7000000000006,303.2000000000004 C 322.1000000000006,304.50000000000034 322.6000000000006,307.8000000000004 321.50000000000057,311.2000000000004 C 329.6000000000006,307.60000000000036 336.8000000000005,303.90000000000043 344.3000000000005,301.3000000000004 C 352.00000000000057,298.7000000000004 360.00000000000057,296.90000000000043 367.90000000000055,295.2000000000004 C 376.1000000000006,293.50000000000034 384.50000000000057,293.90000000000043 392.8000000000005,293.90000000000043 C 401.00000000000057,293.90000000000043 409.1000000000005,295.3000000000004 417.00000000000057,297.2000000000004 C 424.90000000000055,299.10000000000036 432.6000000000006,301.50000000000034 441.50000000000057,303.90000000000043 C 436.1000000000006,299.50000000000045 431.1000000000006,296.7000000000004 425.7000000000006,294.6000000000005 C 421.40000000000066,292.90000000000043 417.00000000000057,291.2000000000005 412.6000000000006,289.8000000000005 C 409.80000000000064,288.90000000000055 406.80000000000064,288.50000000000057 403.80000000000064,288.00000000000057 C 402.5000000000007,287.8000000000005 401.0000000000007,288.00000000000057 400.6000000000006,286.2000000000006 C 400.30000000000064,284.50000000000057 401.7000000000006,283.80000000000064 402.90000000000055,283.40000000000066 C 411.3000000000005,280.30000000000064 419.8000000000005,278.40000000000066 428.8000000000005,279.30000000000064 C 438.7000000000005,280.30000000000064 447.90000000000055,283.7000000000006 456.50000000000057,288.7000000000006 C 458.7000000000006,290.00000000000057 460.90000000000055,291.1000000000006 463.00000000000057,292.50000000000057 C 466.8000000000005,295.00000000000057 470.90000000000055,296.8000000000005 475.3000000000005,297.90000000000055 C 477.10000000000025,298.10000000000025 478.3000000000002,298.70000000000016 479.5000000000002,299.20000000000016 M 336.7000000000003,167.50000000000023 C 349.3000000000003,172.60000000000025 359.0000000000002,179.70000000000027 365.3000000000003,191.00000000000023 C 367.2000000000003,194.50000000000023 368.9000000000003,198.10000000000025 370.50000000000034,201.80000000000018 C 372.3000000000003,205.80000000000018 373.00000000000034,210.00000000000023 373.4000000000003,214.4000000000002 C 374.3000000000003,226.10000000000025 370.9000000000003,236.80000000000018 366.60000000000036,247.30000000000018 C 365.60000000000036,249.9000000000002 365.00000000000034,252.70000000000016 364.50000000000034,255.50000000000023 C 364.3000000000003,256.4000000000002 364.9000000000003,257.5000000000002 365.4000000000003,259.3000000000002 C 368.4000000000003,254.9000000000002 371.10000000000036,251.30000000000018 373.50000000000034,247.60000000000014 C 378.10000000000036,240.60000000000014 383.7000000000004,234.4000000000001 389.8000000000003,228.70000000000016 C 392.7000000000003,225.9000000000002 395.3000000000003,223.0000000000001 397.00000000000034,219.30000000000018 C 404.2000000000004,203.60000000000014 416.3000000000003,193.9000000000002 432.8000000000003,189.20000000000016 C 444.50000000000034,185.80000000000018 455.50000000000034,187.10000000000014 465.9000000000003,193.30000000000018 C 473.50000000000034,197.9000000000002 481.60000000000036,201.30000000000018 490.9000000000003,201.9000000000002 C 489.4000000000003,208.10000000000025 486.4000000000003,213.10000000000025 483.3000000000003,217.9000000000002 C 473.9000000000003,231.9000000000002 460.8000000000003,240.50000000000023 443.60000000000025,241.50000000000023 C 434.60000000000025,242.00000000000023 425.7000000000003,240.50000000000023 417.2000000000003,237.00000000000023 C 416.9000000000003,236.9000000000002 416.60000000000025,236.80000000000018 416.3000000000003,236.60000000000025 C 411.3000000000003,234.3000000000003 411.10000000000025,232.20000000000027 415.2000000000003,228.8000000000003 C 420.3000000000003,224.60000000000025 426.3000000000003,222.10000000000025 432.0000000000002,219.00000000000034 C 434.4000000000002,217.7000000000004 436.8000000000002,216.40000000000032 439.10000000000025,214.60000000000036 C 433.5000000000002,215.00000000000034 428.4000000000002,216.90000000000032 423.4000000000002,219.00000000000034 C 410.8000000000002,224.3000000000003 399.8000000000002,232.10000000000036 390.3000000000002,241.8000000000003 C 385.10000000000014,247.10000000000025 381.0000000000002,253.40000000000032 376.4000000000002,259.4000000000003 C 376.20000000000016,259.60000000000036 376.60000000000025,260.3000000000003 376.70000000000016,261.10000000000036 C 377.70000000000016,260.8000000000004 378.60000000000014,260.50000000000034 379.5000000000001,260.2000000000004 C 384.60000000000014,258.10000000000036 389.60000000000014,256.00000000000034 394.70000000000016,254.00000000000034 C 397.60000000000014,252.90000000000032 399.8000000000002,251.60000000000036 401.60000000000014,248.8000000000003 C 406.4000000000001,241.50000000000034 418.60000000000014,241.10000000000025 424.20000000000016,246.70000000000027 C 429.4000000000002,252.00000000000023 430.4000000000002,258.3000000000003 429.10000000000014,265.2000000000003 C 428.9000000000001,266.10000000000025 428.3000000000002,267.0000000000002 427.8000000000002,267.9000000000003 C 422.10000000000014,276.60000000000036 408.60000000000014,277.50000000000034 401.8000000000002,269.7000000000003 C 396.8000000000002,263.9000000000003 396.8000000000002,264.0000000000002 389.9000000000002,267.2000000000003 C 380.20000000000016,271.60000000000025 371.60000000000025,277.3000000000003 364.8000000000002,285.60000000000025 C 364.10000000000014,286.5000000000002 363.10000000000014,287.4000000000002 362.0000000000002,287.60000000000025 C 359.0000000000002,288.2000000000003 355.9000000000002,288.5000000000002 352.7000000000003,289.0000000000002 C 353.8000000000003,277.4000000000002 355.3000000000003,266.2000000000003 355.9000000000003,255.00000000000023 C 356.50000000000034,243.9000000000002 355.8000000000003,232.70000000000027 352.50000000000034,221.80000000000018 C 352.3000000000003,222.9000000000002 352.00000000000034,224.00000000000023 351.8000000000003,225.10000000000014 C 351.60000000000025,226.4000000000001 351.4000000000003,227.70000000000016 351.3000000000003,229.10000000000014 C 350.9000000000003,233.10000000000014 350.60000000000025,237.10000000000014 349.9000000000003,241.0000000000001 C 349.7000000000003,242.5000000000001 349.7000000000003,244.80000000000007 347.60000000000036,245.0000000000001 C 346.4000000000003,245.10000000000014 344.8000000000004,244.0000000000001 343.9000000000003,243.0000000000001 C 337.00000000000034,235.5000000000001 330.10000000000036,227.80000000000007 328.9000000000003,217.20000000000016 C 328.3000000000003,212.30000000000018 328.60000000000036,207.30000000000018 328.8000000000003,202.30000000000018 C 329.10000000000025,195.20000000000016 332.4000000000003,188.9000000000002 334.3000000000003,182.20000000000016 C 335.60000000000025,177.4000000000002 337.8000000000002,173.20000000000016 336.7000000000003,167.50000000000023 M 200.4000000000002,280.10000000000025 C 196.00000000000023,278.10000000000025 191.6000000000002,276.2000000000003 187.30000000000018,274.0000000000002 C 186.00000000000017,273.3000000000002 184.9000000000002,271.7000000000003 184.1000000000002,270.3000000000002 C 179.6000000000002,262.3000000000002 172.9000000000002,256.70000000000016 165.00000000000017,252.50000000000023 C 161.30000000000018,250.50000000000023 157.00000000000017,249.4000000000002 153.30000000000018,248.10000000000025 C 156.1000000000002,246.4000000000002 159.20000000000016,246.20000000000027 168.50000000000017,247.3000000000003 C 168.50000000000017,246.40000000000032 168.80000000000018,245.3000000000003 168.40000000000015,244.70000000000027 C 167.10000000000014,242.60000000000025 165.50000000000017,240.60000000000025 164.10000000000014,238.60000000000025 C 163.10000000000014,237.20000000000027 161.80000000000013,236.9000000000002 160.20000000000016,236.9000000000002 C 155.00000000000017,236.9000000000002 149.90000000000015,237.00000000000023 144.70000000000016,236.80000000000018 C 131.20000000000016,236.10000000000014 118.90000000000015,232.30000000000018 108.50000000000017,223.20000000000016 C 101.70000000000016,217.30000000000018 98.00000000000017,209.60000000000014 95.20000000000016,201.30000000000018 C 93.50000000000017,196.30000000000018 91.90000000000015,191.20000000000016 90.30000000000018,186.10000000000014 C 88.9000000000002,181.70000000000016 86.50000000000017,178.0000000000001 82.9000000000002,175.10000000000014 C 81.9000000000002,174.30000000000018 80.70000000000022,173.60000000000014 78.80000000000018,172.20000000000016 C 81.20000000000016,171.4000000000002 82.20000000000016,171.0000000000001 83.20000000000016,170.80000000000018 C 91.00000000000017,168.80000000000018 98.80000000000018,166.9000000000002 106.80000000000018,167.20000000000016 C 128.70000000000016,167.9000000000002 145.80000000000018,177.20000000000016 156.9000000000002,196.5000000000001 C 159.1000000000002,200.4000000000001 160.70000000000022,204.60000000000014 162.4000000000002,208.80000000000007 C 162.9000000000002,209.9000000000001 162.9000000000002,211.30000000000007 163.20000000000022,213.0000000000001 C 158.4000000000002,211.9000000000001 155.6000000000002,208.70000000000016 152.1000000000002,206.60000000000014 C 148.6000000000002,204.60000000000014 145.1000000000002,202.4000000000001 141.4000000000002,200.20000000000016 C 141.4000000000002,201.20000000000016 141.30000000000018,201.60000000000014 141.4000000000002,201.70000000000016 C 155.30000000000018,214.20000000000016 167.30000000000018,228.5000000000001 178.50000000000023,243.30000000000018 C 178.70000000000022,243.50000000000023 179.10000000000025,243.50000000000023 179.80000000000024,243.70000000000016 C 180.00000000000023,242.80000000000018 180.30000000000024,241.9000000000002 180.30000000000024,241.10000000000014 C 180.30000000000024,234.60000000000014 179.90000000000026,228.20000000000016 178.40000000000026,221.80000000000018 C 175.10000000000025,207.80000000000018 177.90000000000026,194.70000000000016 186.10000000000025,182.80000000000018 C 189.30000000000024,178.10000000000014 193.00000000000023,173.80000000000018 196.50000000000023,169.4000000000002 C 200.10000000000025,164.80000000000018 205.20000000000022,162.10000000000025 209.9000000000002,159.10000000000025 C 217.80000000000018,154.10000000000025 226.6000000000002,151.00000000000023 235.80000000000018,147.50000000000023 C 235.80000000000018,148.9000000000002 235.9000000000002,149.80000000000024 235.80000000000018,150.60000000000025 C 235.70000000000016,152.40000000000026 235.30000000000018,154.20000000000027 235.30000000000018,156.00000000000023 C 234.9000000000002,164.80000000000018 234.80000000000018,173.70000000000027 234.10000000000014,182.4000000000002 C 233.30000000000013,192.30000000000018 230.20000000000016,201.60000000000025 224.90000000000015,210.10000000000025 C 223.40000000000015,212.4000000000002 221.30000000000013,214.50000000000023 219.00000000000017,216.20000000000027 C 214.00000000000017,219.8000000000003 208.80000000000018,223.10000000000025 203.6000000000002,226.40000000000032 C 202.80000000000018,226.90000000000032 201.9000000000002,227.40000000000032 200.9000000000002,227.70000000000027 C 198.1000000000002,228.60000000000025 195.70000000000022,227.70000000000027 195.1000000000002,224.70000000000027 C 194.4000000000002,221.00000000000023 194.4000000000002,217.10000000000025 194.50000000000017,213.3000000000003 C 194.70000000000016,208.60000000000025 195.30000000000018,203.8000000000003 195.1000000000002,198.8000000000003 C 194.4000000000002,199.90000000000032 193.6000000000002,200.90000000000032 193.1000000000002,202.00000000000034 C 189.9000000000002,210.3000000000003 188.20000000000022,219.00000000000034 188.30000000000018,227.90000000000032 C 188.30000000000018,234.3000000000003 189.70000000000016,240.8000000000003 190.4000000000002,247.20000000000027 C 191.4000000000002,257.3000000000003 195.50000000000023,266.4000000000003 199.4000000000002,275.60000000000025 C 199.9000000000002,276.8000000000003 200.4000000000002,277.9000000000002 200.80000000000018,279.10000000000025 C 200.9000000000002,279.70000000000016 200.70000000000022,279.9000000000002 200.4000000000002,280.10000000000025 M 307.8000000000002,2.2737367544323206e-13 C 315.3000000000002,7.60000000000025 321.60000000000014,15.200000000000216 323.9000000000002,25.400000000000205 C 324.4000000000002,27.500000000000227 325.20000000000016,29.500000000000227 325.9000000000002,31.600000000000193 C 331.10000000000025,47.00000000000017 330.20000000000016,61.80000000000018 321.3000000000002,75.6000000000002 C 316.4000000000002,83.20000000000022 310.3000000000002,89.9000000000002 302.60000000000014,94.70000000000022 C 296.4000000000001,98.6000000000002 290.0000000000001,102.1000000000002 283.5000000000001,105.6000000000002 C 281.30000000000007,106.80000000000018 279.70000000000016,108.1000000000002 279.20000000000016,110.70000000000022 C 278.70000000000016,113.6000000000002 276.8000000000002,116.20000000000022 277.4000000000002,119.80000000000024 C 281.3000000000002,118.00000000000023 284.9000000000002,116.40000000000026 288.5000000000002,114.70000000000022 C 288.60000000000025,114.9000000000002 288.8000000000002,115.1000000000002 288.9000000000002,115.4000000000002 C 286.0000000000002,118.30000000000018 282.70000000000016,121.00000000000023 280.3000000000002,124.30000000000018 C 277.70000000000016,127.9000000000002 275.10000000000014,131.70000000000016 274.3000000000002,136.20000000000016 C 273.60000000000014,140.50000000000017 272.9000000000002,144.70000000000016 272.10000000000014,150.20000000000016 C 269.5000000000001,145.30000000000018 267.60000000000014,141.30000000000018 266.5000000000001,137.00000000000017 C 266.0000000000001,134.90000000000015 266.9000000000001,132.40000000000015 267.4000000000001,130.20000000000016 C 270.10000000000014,118.50000000000017 272.20000000000005,106.70000000000016 275.70000000000005,95.30000000000018 C 278.80000000000007,85.00000000000017 283.4000000000001,75.1000000000002 287.30000000000007,65.1000000000002 C 287.5000000000001,64.6000000000002 287.6,64.00000000000017 287.1,63.00000000000017 C 286.20000000000005,64.1000000000002 285.1,65.00000000000017 284.30000000000007,66.20000000000016 C 281.30000000000007,70.60000000000014 278.4000000000001,75.10000000000014 275.4000000000001,79.40000000000015 C 274.70000000000005,80.40000000000015 273.5000000000001,81.50000000000017 272.5000000000001,81.70000000000016 C 270.9000000000001,81.90000000000015 269.9000000000001,80.50000000000017 269.5000000000001,78.90000000000015 C 269.30000000000007,78.30000000000013 269.10000000000014,77.60000000000014 269.0000000000001,77.00000000000017 C 268.20000000000016,68.6000000000002 266.70000000000016,60.10000000000019 268.80000000000007,51.70000000000016 C 271.1,42.50000000000017 275.9000000000001,34.50000000000017 282.5000000000001,27.70000000000016 C 285.80000000000007,24.20000000000016 289.5000000000001,21.00000000000017 293.4000000000001,18.100000000000136 C 299.10000000000014,13.800000000000125 303.9000000000001,8.900000000000148 306.60000000000014,2.200000000000159 C 306.60000000000025,1.4000000000002046 307.10000000000025,0.9000000000002046 307.8000000000002,2.2737367544323206e-13 M 381.8000000000002,218.80000000000018 C 381.10000000000014,213.70000000000016 381.10000000000014,209.30000000000018 384.0000000000002,204.50000000000023 C 390.8000000000002,193.00000000000023 394.9000000000002,180.30000000000018 397.5000000000002,167.20000000000027 C 398.10000000000025,164.10000000000025 398.7000000000003,161.00000000000023 399.2000000000003,157.90000000000032 C 399.5000000000002,155.70000000000027 399.9000000000003,153.3000000000003 398.2000000000003,151.20000000000033 C 395.2000000000003,158.40000000000032 392.3000000000003,165.50000000000034 389.4000000000003,172.50000000000034 C 388.8000000000003,173.90000000000032 388.3000000000003,175.3000000000003 387.60000000000036,176.60000000000036 C 385.4000000000003,180.8000000000004 382.8000000000004,181.2000000000004 380.10000000000036,177.50000000000034 C 377.60000000000036,174.2000000000004 375.3000000000004,170.7000000000004 373.50000000000034,167.00000000000034 C 368.4000000000003,156.90000000000032 368.2000000000004,146.30000000000035 370.10000000000036,135.40000000000032 C 371.7000000000004,126.50000000000034 376.00000000000034,118.8000000000003 380.00000000000034,111.00000000000034 C 383.60000000000036,103.90000000000032 387.7000000000004,97.00000000000034 390.10000000000036,89.30000000000035 C 390.2000000000004,88.90000000000038 390.7000000000004,88.50000000000034 390.9000000000003,88.30000000000035 C 405.00000000000034,99.40000000000038 414.00000000000034,113.90000000000038 419.00000000000034,130.90000000000038 C 419.7000000000004,133.10000000000036 420.3000000000003,135.5000000000004 420.3000000000003,137.7000000000004 C 420.4000000000003,144.8000000000004 420.3000000000003,152.0000000000004 420.00000000000034,159.10000000000036 C 419.7000000000004,166.00000000000034 416.7000000000004,172.00000000000034 412.7000000000004,177.40000000000032 C 409.40000000000043,181.8000000000003 405.90000000000043,186.00000000000034 402.2000000000004,190.00000000000034 C 399.50000000000034,192.90000000000032 397.50000000000034,195.90000000000032 396.2000000000004,199.60000000000036 C 394.2000000000003,204.9000000000002 386.8000000000002,214.60000000000025 381.8000000000002,218.80000000000018 M 174.4000000000002,75.50000000000023 C 179.50000000000023,87.70000000000022 187.1000000000002,98.00000000000023 192.9000000000002,109.4000000000002 C 200.30000000000018,123.80000000000018 202.00000000000023,138.9000000000002 195.4000000000002,154.20000000000016 C 193.9000000000002,157.70000000000016 192.00000000000023,161.0000000000001 190.00000000000023,164.30000000000018 C 188.80000000000024,166.20000000000016 187.4000000000002,168.4000000000002 184.60000000000025,168.10000000000014 C 181.70000000000027,167.80000000000018 180.50000000000023,165.5000000000001 179.50000000000023,163.20000000000016 C 176.9000000000002,156.9000000000002 174.60000000000025,150.50000000000017 173.4000000000002,143.70000000000016 C 173.20000000000022,142.30000000000018 172.70000000000022,141.00000000000017 171.80000000000018,139.70000000000016 C 171.20000000000016,148.20000000000016 170.70000000000016,156.60000000000014 172.70000000000016,164.9000000000002 C 173.80000000000018,169.4000000000002 174.80000000000018,174.00000000000023 176.00000000000017,178.50000000000023 C 176.40000000000015,180.20000000000027 176.50000000000017,181.70000000000027 175.70000000000016,183.30000000000018 C 174.30000000000018,185.9000000000002 173.20000000000016,188.70000000000016 171.90000000000015,191.70000000000016 C 169.70000000000016,189.20000000000016 169.00000000000017,186.10000000000014 168.60000000000014,183.20000000000016 C 168.0000000000001,179.5000000000001 166.20000000000016,176.9000000000002 163.70000000000016,174.30000000000018 C 155.20000000000016,165.80000000000018 149.70000000000016,155.4000000000002 148.00000000000017,143.80000000000018 C 146.40000000000015,133.00000000000017 147.20000000000016,122.1000000000002 151.00000000000017,111.30000000000018 C 155.70000000000016,98.30000000000018 163.40000000000015,87.50000000000017 172.30000000000018,77.30000000000018 C 172.80000000000024,76.70000000000022 173.4000000000002,76.30000000000018 174.4000000000002,75.50000000000023 M 307.4000000000002,166.4000000000002 C 300.3000000000002,175.10000000000025 295.70000000000016,185.20000000000016 288.20000000000016,194.10000000000025 C 287.60000000000014,192.60000000000025 287.20000000000016,191.60000000000025 286.8000000000002,190.60000000000025 C 284.20000000000016,182.9000000000002 281.60000000000014,175.20000000000027 279.0000000000002,167.50000000000023 C 277.60000000000025,163.4000000000002 278.0000000000002,159.30000000000018 279.5000000000002,155.30000000000018 C 282.3000000000002,148.00000000000017 285.8000000000002,141.1000000000002 291.4000000000002,135.30000000000018 C 296.20000000000016,130.30000000000018 300.70000000000016,124.9000000000002 305.20000000000016,119.50000000000017 C 307.0000000000001,117.40000000000015 308.3000000000002,114.90000000000015 310.0000000000001,112.40000000000015 C 315.20000000000016,122.00000000000017 320.70000000000016,131.40000000000015 322.4000000000001,142.20000000000016 C 324.20000000000005,153.9000000000002 324.30000000000007,165.70000000000016 320.70000000000005,177.30000000000018 C 319.20000000000005,182.20000000000016 316.4000000000001,186.20000000000016 313.1,190.10000000000014 C 309.20000000000005,194.70000000000016 301.9,200.5000000000001 297.20000000000005,202.5000000000001 C 297.20000000000005,201.10000000000014 296.9000000000001,199.80000000000007 297.30000000000007,198.70000000000016 C 298.30000000000007,195.20000000000016 299.6,191.80000000000018 300.70000000000005,188.30000000000018 C 303.0000000000002,180.9000000000002 305.2000000000003,173.70000000000016 307.4000000000002,166.4000000000002 M 363.4000000000002,58.200000000000216 C 371.10000000000025,72.30000000000024 373.8000000000002,86.80000000000024 367.60000000000025,102.4000000000002 C 361.10000000000025,118.6000000000002 349.2000000000003,127.9000000000002 332.8000000000003,132.00000000000023 C 329.7000000000003,127.30000000000024 329.9000000000003,127.4000000000002 332.4000000000003,123.4000000000002 C 336.2000000000003,117.50000000000023 339.7000000000003,111.50000000000023 343.4000000000003,105.6000000000002 C 343.8000000000003,104.9000000000002 344.00000000000034,104.20000000000022 344.7000000000003,102.6000000000002 C 340.3000000000003,104.6000000000002 338.7000000000003,108.30000000000018 335.9000000000003,110.6000000000002 C 333.00000000000034,113.00000000000017 330.2000000000003,115.6000000000002 326.9000000000003,118.50000000000017 C 324.00000000000034,113.50000000000017 321.3000000000003,109.00000000000017 318.8000000000003,104.30000000000018 C 318.3000000000003,103.30000000000018 318.3000000000003,101.70000000000016 318.60000000000025,100.50000000000017 C 321.4000000000002,89.6000000000002 326.2000000000003,79.90000000000015 336.3000000000003,73.70000000000016 C 341.10000000000025,70.70000000000016 346.10000000000025,68.00000000000017 351.00000000000034,65.20000000000016 C 354.8000000000002,62.900000000000205 358.7000000000003,60.80000000000018 363.4000000000002,58.200000000000216 M 462.10000000000025,246.10000000000025 C 469.2000000000003,252.20000000000027 476.10000000000025,257.9000000000002 481.0000000000002,266.2000000000003 C 479.60000000000025,266.5000000000002 478.7000000000003,266.7000000000003 477.8000000000002,266.9000000000003 C 473.60000000000014,267.9000000000003 469.4000000000002,268.9000000000003 465.20000000000016,270.00000000000034 C 462.5000000000001,270.7000000000004 459.8000000000002,271.60000000000036 457.10000000000014,272.60000000000036 C 453.60000000000014,273.9000000000003 450.3000000000002,274.3000000000004 446.60000000000014,272.4000000000003 C 443.9000000000001,271.00000000000034 440.60000000000014,270.7000000000003 437.3000000000002,269.9000000000003 C 439.5000000000002,263.7000000000003 440.70000000000016,257.60000000000036 438.60000000000014,251.10000000000036 C 446.8000000000002,250.20000000000016 454.60000000000025,249.70000000000016 462.10000000000025,246.10000000000025 M 316.8000000000002,204.80000000000018 C 316.8000000000002,208.70000000000016 316.8000000000002,212.00000000000023 316.8000000000002,215.30000000000018 C 316.8000000000002,220.9000000000002 316.70000000000016,226.60000000000014 316.70000000000016,232.20000000000016 C 316.70000000000016,237.10000000000014 314.70000000000016,241.20000000000016 312.20000000000016,245.20000000000016 C 309.4000000000002,249.60000000000014 305.9000000000002,253.30000000000018 301.9000000000002,257.0000000000001 C 298.8000000000002,244.0000000000001 298.4000000000002,231.0000000000001 294.8000000000002,218.10000000000014 C 300.60000000000025,211.9000000000002 308.5000000000002,208.20000000000016 316.8000000000002,204.80000000000018 M 430.5000000000002,144.9000000000002 C 436.2000000000003,142.00000000000023 441.8000000000002,139.1000000000002 447.5000000000002,136.30000000000018 C 450.7000000000003,146.50000000000017 448.0000000000002,166.30000000000018 442.10000000000025,177.20000000000016 C 435.3000000000003,179.0000000000001 428.60000000000025,180.80000000000018 421.7000000000003,182.60000000000014 C 421.7000000000003,182.20000000000016 421.4000000000003,181.70000000000016 421.60000000000025,181.4000000000001 C 428.0000000000002,170.10000000000025 431.7000000000003,158.20000000000016 430.5000000000002,144.9000000000002 M 118.4000000000002,123.50000000000023 C 124.1000000000002,126.20000000000022 129.30000000000018,128.60000000000025 134.50000000000023,131.00000000000023 C 136.00000000000023,131.70000000000022 136.10000000000025,132.9000000000002 136.10000000000025,134.30000000000024 C 136.10000000000025,137.60000000000025 136.20000000000027,141.00000000000023 136.30000000000024,144.30000000000024 C 136.60000000000025,150.70000000000022 138.40000000000026,156.70000000000027 141.80000000000024,162.20000000000027 C 143.00000000000023,164.20000000000027 144.10000000000025,166.10000000000025 145.80000000000024,168.90000000000032 C 144.20000000000022,168.3000000000003 143.30000000000024,168.20000000000027 142.50000000000023,167.8000000000003 C 139.00000000000023,165.90000000000032 135.50000000000023,164.00000000000034 131.9000000000002,162.10000000000025 C 130.6000000000002,161.4000000000002 129.20000000000022,160.4000000000002 127.80000000000018,160.3000000000003 C 123.00000000000017,159.8000000000003 121.50000000000017,156.60000000000025 120.4000000000002,152.40000000000032 C 118.30000000000018,144.8000000000003 117.20000000000022,137.1000000000003 117.6000000000002,129.20000000000033 C 117.80000000000024,127.6000000000002 118.10000000000025,125.80000000000018 118.4000000000002,123.50000000000023 M 334.60000000000025,144.6000000000002 C 341.3000000000003,140.00000000000017 348.10000000000025,136.00000000000017 356.60000000000025,134.9000000000002 C 359.8000000000003,145.80000000000018 361.5000000000002,156.30000000000018 355.2000000000003,166.60000000000025 C 348.5000000000002,163.50000000000023 342.0000000000002,160.50000000000023 335.60000000000025,157.50000000000023 C 335.10000000000025,153.20000000000022 334.8000000000002,149.00000000000023 334.60000000000025,144.6000000000002 M 88.80000000000024,211.10000000000025 C 92.60000000000025,218.00000000000023 95.80000000000024,225.20000000000027 103.20000000000022,230.70000000000027 C 98.80000000000024,231.40000000000032 95.4000000000002,231.70000000000027 92.20000000000022,232.50000000000023 C 88.9000000000002,233.4000000000002 85.70000000000022,234.80000000000018 82.30000000000024,236.10000000000025 C 77.20000000000022,230.60000000000025 72.10000000000025,225.20000000000027 66.80000000000024,219.60000000000025 C 73.30000000000024,215.80000000000018 80.80000000000024,213.10000000000025 88.80000000000024,211.10000000000025 M 96.70000000000022,307.4000000000002 C 102.70000000000022,307.70000000000016 107.9000000000002,307.9000000000002 113.30000000000024,308.10000000000025 C 109.70000000000022,313.10000000000025 106.10000000000025,318.0000000000002 102.30000000000024,323.4000000000002 C 97.40000000000026,321.9000000000002 91.90000000000026,320.8000000000002 87.00000000000023,317.4000000000002 C 90.50000000000023,313.8000000000002 93.70000000000022,310.5000000000002 96.70000000000022,307.4000000000002 M 245.10000000000025,364.9000000000002 C 245.20000000000027,369.0000000000002 241.9000000000002,372.70000000000016 237.8000000000003,372.9000000000002 C 233.40000000000032,373.10000000000025 229.8000000000003,369.9000000000002 229.50000000000028,365.5000000000002 C 229.20000000000027,361.4000000000002 233.1000000000003,357.4000000000002 237.3000000000003,357.4000000000002 C 241.20000000000027,357.4000000000002 245.00000000000023,361.0000000000002 245.10000000000025,364.9000000000002 M 210.10000000000025,127.70000000000022 C 216.50000000000023,132.20000000000022 221.60000000000025,136.30000000000024 225.90000000000026,142.00000000000023 C 220.60000000000025,145.30000000000024 214.70000000000027,146.20000000000022 208.60000000000025,149.80000000000024 C 211.10000000000025,142.1000000000002 210.70000000000022,135.4000000000002 210.10000000000025,127.70000000000022 M 207.70000000000022,239.80000000000018 C 206.80000000000024,242.80000000000018 206.00000000000023,245.50000000000023 205.00000000000023,248.50000000000023 C 202.00000000000023,245.50000000000023 197.4000000000002,243.9000000000002 198.70000000000022,238.20000000000027 C 200.50000000000023,237.50000000000023 202.30000000000024,236.8000000000003 204.30000000000024,236.00000000000023 C 205.60000000000025,237.30000000000018 206.70000000000022,238.60000000000025 207.70000000000022,239.80000000000018"/>
</svg>
