<?xml version="1.0" ?>
<svg xmlns="http://www.w3.org/2000/svg" xmlns:ev="http://www.w3.org/2001/xml-events" xmlns:xlink="http://www.w3.org/1999/xlink" baseProfile="full" height="210" id="katman_2" transform="scale(0.7246376811594203 0.7246376811594203) translate(-69.0 -105.0)" version="1.1" viewBox="0 0 138 210" width="138">
	<defs/>
	<path d="M 86.07000000000005,170.78000000000003 C 102.84000000000003,171.89000000000004 121.37000000000003,171.02000000000004 137.57000000000002,175.11000000000004 C 126.92000000000002,161.26000000000005 115.69000000000003,143.86000000000004 103.61000000000001,131.34000000000003 C 110.64000000000001,134.22000000000003 119.9,136.05000000000004 126.01000000000002,134.51000000000002 C 118.72000000000003,122.57000000000002 109.19000000000003,107.79000000000002 99.83000000000001,97.37 C 104.37000000000003,98.53 109.96000000000001,98.52000000000001 114.18,97.09 C 106.44000000000003,85.28 97.23000000000002,74.42000000000002 86.82000000000002,64.83000000000001 C 93.41000000000003,67.28 99.43,68.26000000000002 105.26000000000002,66.32 C 97.25,54.550000000000004 88.20000000000002,45.72 79.54000000000002,37.23 C 83.97,38.949999999999996 89.39000000000001,40.22 93.10000000000002,39.11 C 86.29000000000002,24.979999999999997 76.77000000000001,12.0 68.79000000000002,0.0 C 60.81000000000001,12.01 51.29000000000001,24.98 44.48000000000001,39.11 C 48.19000000000001,40.21 53.610000000000014,38.95 58.03000000000001,37.23 C 49.37000000000001,45.72 40.31000000000001,54.55 32.31000000000001,66.32 C 38.14000000000001,68.25999999999999 44.16000000000001,67.27000000000001 50.75000000000001,64.83000000000001 C 40.35000000000001,74.41 31.140000000000008,85.27000000000001 23.390000000000008,97.09 C 27.610000000000007,98.50999999999999 33.20000000000001,98.53 37.74000000000001,97.37 C 28.38000000000001,107.78999999999999 18.85000000000001,122.57 11.56000000000001,134.51000000000002 C 17.66000000000001,136.05 26.930000000000007,134.22000000000003 33.96000000000001,131.34000000000003 C 21.88000000000001,143.86000000000004 10.640000000000008,161.27000000000004 7.105427357601002e-15,175.11000000000004 C 15.230000000000008,172.69000000000005 34.730000000000004,171.89000000000004 51.50000000000001,170.78000000000003 C 60.13000000000001,170.21000000000004 77.46000000000001,170.21000000000004 86.08000000000001,170.78000000000003 L 86.07000000000005,170.78000000000003 M 57.86000000000004,140.57000000000002 C 58.58000000000004,166.82000000000002 55.08000000000004,186.26000000000002 47.93000000000004,207.52 C 61.70000000000004,209.63000000000002 75.60000000000005,209.55 89.61000000000004,207.52 C 82.47000000000006,186.27 78.96000000000004,166.83 79.68000000000004,140.57000000000002 L 57.86000000000004,140.57000000000002"/>
</svg>
