<?xml version="1.0" ?>
<svg xmlns="http://www.w3.org/2000/svg" xmlns:cc="http://creativecommons.org/ns#" xmlns:dc="http://purl.org/dc/elements/1.1/" xmlns:ev="http://www.w3.org/2001/xml-events" xmlns:rdf="http://www.w3.org/1999/02/22-rdf-syntax-ns#" xmlns:svg="http://www.w3.org/2000/svg" xmlns:xlink="http://www.w3.org/1999/xlink" baseProfile="full" height="117" id="svg8" transform="scale(1.2345679012345678 1.2345679012345678) translate(-40.5 -58.5)" version="1.1" viewBox="0 0 81 117" width="81">
	<defs/>
	<path d="M 43.96802922162328,0.0037982450699018955 C 43.884229221623286,-0.00620175493008901 43.80128922162328,0.0037982450699018955 43.72192922162333,0.03079824506994555 C 42.04963922162335,0.6342982450698855 42.07377922162334,2.1576982450699234 41.59692922162333,2.0541982450699834 C 41.008509221623285,1.9263982450700041 40.40679922162337,2.0391982450698833 40.260999221623365,2.308098245069914 C 40.11520922162333,2.576098245069943 39.32601922162337,2.6524982450698644 38.507089221623346,2.4779982450700118 C 37.355469221623366,2.2327982450699437 36.916229221623325,2.3665982450700085 36.57153922162331,3.0658982450700023 C 36.32644922162331,3.563198245069998 35.979019221623275,3.8005982450699776 35.79810922162335,3.5951982450699234 C 35.61713922162335,3.389798245069869 35.18332922162335,3.493798245069911 34.83325922162339,3.8236982450698633 C 34.415919221623426,4.216998245069817 34.09209922162336,4.246198245069763 33.89380922162343,3.909698245069876 C 33.7275292216234,3.626998245069899 33.23789922162348,3.246898245069815 32.80591922162341,3.065898245069775 C 32.373949221623434,2.88499824506971 32.02075922162339,2.431098245069734 32.02075922162339,2.0580982450696865 C 32.02075922162339,1.6851982450696141 31.278459221623393,1.0765982450695901 30.372319221623343,0.7045982450697466 C 28.926209221623367,0.11079824506964542 28.659229221623377,0.12939824506975128 28.190679221623327,0.8568982450697149 C 27.897109221623282,1.3127982450696436 27.51464922162336,1.6850982450696392 27.339119221623378,1.6850982450696392 C 26.729009221623414,1.6850982450696392 25.732479221623407,3.1269982450696716 26.216069221623343,3.3100982450696392 C 27.0334492216233,3.619398245069533 26.164069221623322,5.162498245069628 24.88794922162333,5.667498245069737 C 24.2139692216233,5.93429824506984 23.301399221623342,6.563198245069771 22.858649221623295,7.065898245069775 C 22.270799221623292,7.733398245069793 21.853139221623337,7.845598245069823 21.313729221623248,7.481898245069715 C 20.268399221623213,6.777398245069662 19.13658922162324,7.173098245069696 18.8684192216233,8.337398245069608 C 18.742749221623285,8.88299824506953 18.829519221623286,9.32959824506952 19.061779221623283,9.32959824506952 C 19.296829221623284,9.32959824506952 19.255529221623306,9.817398245069626 18.96807922162327,10.42729824506955 C 18.51985922162328,11.378498245069522 18.553349221623307,11.478198245069507 19.22588922162322,11.18509824506964 C 19.796329221623182,10.936498245069743 19.93296922162324,11.050098245069648 19.741509221623232,11.616698245069529 C 19.573599221623226,12.113498245069422 19.755709221623192,12.401398245069458 20.2532292216232,12.42729824506955 C 20.721429221623225,12.451298245069438 20.80468922162322,12.56809824506945 20.46416922162325,12.724098245069627 C 20.155619221623283,12.865498245069602 19.90166922162325,13.191798245069549 19.90166922162325,13.448698245069636 C 19.90166922162325,13.705698245069698 20.155619221623283,13.858698245069718 20.46416922162325,13.78859824506958 C 20.7913692216232,13.71459824506951 20.963319221623237,14.062098245069592 20.8782292216232,14.62259824506964 C 20.773649221623145,15.311798245069667 20.928529221623194,15.499198245069692 21.425109221623188,15.282698245069696 C 21.80601922162316,15.116698245069756 22.238229221623214,15.198698245069636 22.384089221623185,15.466298245069765 C 22.52998922162317,15.73439824506977 22.35598922162319,15.954598245069747 21.997369221623217,15.954598245069747 C 21.63890922162318,15.954598245069747 21.22335922162324,16.317998245069703 21.07354922162324,16.761198245069636 C 20.68424922162319,17.91319824506968 20.719969221623273,17.995598245069687 21.477839221623185,17.665498245069557 C 21.96316922162316,17.45399824506967 22.07681922162317,17.60349824506966 21.8782292216232,18.190898245069548 C 21.72558922162318,18.642498245069646 21.440809221623226,19.01319824506959 21.243469221623172,19.01319824506959 C 21.04612922162312,19.01319824506959 20.991569221623195,19.48369824506949 21.124329221623157,20.06009824506964 C 21.27530922162316,20.715598245069714 21.61124922162321,21.003298245069573 22.018859221623188,20.82569824506959 C 22.41358922162317,20.653698245069563 22.5968892216232,20.792698245069687 22.48369922162317,21.17919824506953 C 22.14412922162319,22.337298245069633 20.800109221623188,22.240498245069602 20.800109221623188,21.05809824506946 C 20.800109221623188,20.413498245069377 20.60361922162315,20.109498245069517 20.31768922162314,20.310098245069412 C 20.05257922162309,20.496098245069334 19.367059221623094,20.147598245069503 18.79424922162309,19.5365982450694 C 18.201499221623067,18.904198245069438 17.634729221623047,18.64059824506944 17.479799221623125,18.92529824506937 C 17.330079221623123,19.20029824506946 16.812029221623106,19.309298245069385 16.32744922162317,19.16549824506933 C 15.322079221623198,18.866998245069226 13.467379221623219,20.5686982450693 14.4094792216232,20.92529824506937 C 15.187269221623183,21.219598245069392 15.10754922162323,22.069798245069478 14.302059221623153,22.069798245069478 C 13.936509221623169,22.069798245069478 13.509689221623148,22.644398245069397 13.354799221623125,23.34519824506947 C 13.199909221623102,24.045798245069363 12.792079221623112,24.61869824506948 12.448549221623125,24.61869824506948 C 12.1050792216231,24.61869824506948 11.823549221623125,24.96179824506953 11.823549221623125,25.382298245069478 C 11.823549221623125,25.802598245069476 12.127099221623098,26.147998245069402 12.497369221623103,26.147998245069402 C 13.411779221623078,26.147998245069402 13.34645922162315,26.99969824506934 12.384089221623071,27.63619824506941 C 11.733479221623043,28.066498245069397 11.849679221623092,28.15859824506947 13.057919221623024,28.17139824506944 C 13.860159221623007,28.18139824506943 14.516909221622996,28.414598245069328 14.51689922162302,28.694798245069478 C 14.51689922162302,28.975198245069578 14.213349221623048,29.20459824506952 13.843079221623043,29.20459824506952 C 13.472819221623013,29.20459824506952 13.171199221623056,29.564098245069545 13.171199221623056,30.003398245069548 C 13.171199221623056,30.55879824506951 13.432179221623073,30.7073982450695 14.030579221623043,30.49169824506953 C 14.916709221623023,30.17229824506944 15.058819221623025,30.874398245069642 14.36455922162304,32.136198245069636 C 13.943889221623067,32.90079824506961 14.274959221623021,32.92519824506962 16.241509221623005,32.28469824506965 C 17.525509221622997,31.866598245069554 17.658369221623047,31.903298245069664 17.192689221623027,32.54049824506956 C 16.750609221622994,33.145298245069625 16.808959221623013,33.28269824506947 17.512999221622977,33.28269824506947 C 17.987579221622923,33.28269824506947 18.631839221622954,32.99439824506953 18.942689221623027,32.6439982450695 C 19.396029221623053,32.133098245069505 19.44302922162308,32.20089824506954 19.18096922162306,32.98189824506949 C 18.907909221623072,33.795898245069566 19.013929221623016,33.90699824506942 19.827449221623056,33.66549824506956 C 20.362789221623075,33.50639824506948 20.800109221623075,33.59849824506955 20.800109221623075,33.86869824506948 C 20.800109221623075,34.139398245069515 21.01653922162302,34.21019824506948 21.280579221623043,34.02489824506938 C 21.544569221623078,33.83959824506928 22.604099221623073,34.152398245069435 23.63604922162301,34.72019824506947 C 24.66795922162305,35.2879982450695 26.725279221623055,36.26779824506957 28.20635922162296,36.8979982450694 C 30.620409221622936,37.92529824506937 31.091539221622952,38.37639824506937 32.75908922162296,41.25929824506943 C 34.848889221622926,44.871998245069335 35.7324992216229,49.23369824506949 34.485659221622996,49.77689824506933 C 34.103229221622996,49.94349824506935 33.81572922162297,49.786898245069324 33.81572922162297,49.40579824506926 C 33.81572922162297,49.041498245069306 33.32209922162292,48.44269824506932 32.71807922162293,48.07569824506936 C 31.84447922162292,47.54479824506939 31.668979221622976,47.12629824506939 31.86260922162296,46.02689824506933 C 32.083099221623,44.775198245069305 31.986159221622984,44.64959824506923 30.829399221622907,44.69679824506943 C 29.998929221622916,44.730798245069536 29.361599221622896,44.39279824506934 29.00713922162288,43.72999824506951 C 28.7073292216229,43.16929824506951 28.455349221622896,42.96599824506961 28.446589221622844,43.27879824506954 C 28.435789221622827,43.663698245069554 27.84932922162284,43.726398245069504 26.634089221622844,43.47409824506963 C 25.255699221622876,43.18789824506962 24.839169221622797,43.26389824506964 24.839169221622797,43.798298245069645 C 24.839169221622797,44.181098245069734 24.636799221622823,44.49369824506971 24.389949221622828,44.49369824506971 C 24.143109221622808,44.49369824506971 23.9426892216228,44.01789824506977 23.9426892216228,43.43699824506962 L 23.9426892216228,42.382298245069705 L 22.759089221622844,43.43699824506962 C 21.46831922162289,44.58989824506966 20.800109221622847,44.77669824506961 20.800109221622847,43.98389824506967 C 20.800109221622847,43.70359824506977 21.237959221622873,43.47409824506963 21.77275922162289,43.47409824506963 C 22.307609221622897,43.47409824506963 22.59537922162292,43.30559824506963 22.41338922162288,43.09909824506963 C 21.934289221622862,42.554998245069555 20.648119221622892,42.62649824506957 20.126279221622895,43.22609824506958 C 19.879439221622874,43.50979824506953 19.716149221622914,43.65749824506952 19.762999221622863,43.55419824506953 C 20.012139221622874,43.00519824506955 18.686769221622853,42.13469824506956 17.938779221622895,42.35689824506949 C 17.320139221622867,42.54059824506953 17.169529221622838,42.43189824506953 17.419249221622863,41.97219824506942 C 17.68686922162283,41.480498245069384 17.438549221622907,41.41049824506945 16.36846922162283,41.67729824506932 C 15.207629221622824,41.96679824506941 14.966119221622876,41.869198245069356 14.966119221622876,41.118698245069254 C 14.966119221622876,40.4282982450693 14.840729221622837,40.354198245069256 14.442689221622913,40.806198245069254 C 14.044599221622889,41.25819824506925 13.803489221622954,41.2275982450692 13.43291922162291,40.67329824506919 C 12.898119221622892,39.87339824506921 9.913939221622854,39.532298245069114 8.386049221622898,40.097198245069194 C 7.233339221622941,40.52349824506928 6.608299221622929,41.94479824506925 7.573549221622898,41.94479824506925 C 7.936089221622865,41.94479824506925 8.233699221622942,42.18889824506914 8.233699221622942,42.48579824506919 C 8.233699221622942,42.78269824506924 8.43607922162289,42.88369824506913 8.68291922162291,42.710498245069175 C 8.929769221622905,42.53729824506922 9.130189221622913,42.62549824506914 9.130189221622913,42.90579824506926 C 9.130189221622913,43.75419824506935 8.231679221622926,44.10739824506936 7.59697922162286,43.5092982450692 C 7.268799221622885,43.19999824506931 6.6696392216229015,43.09249824506924 6.264949221622828,43.26899824506927 C 5.86024922162278,43.44519824506938 5.191979221622773,43.27899824506926 4.778619221622876,42.89399824506927 C 4.128339221622923,42.29349824506926 4.063549221622907,42.312898245069164 4.300109221622847,43.03079824506926 C 4.45045922162285,43.487198245069294 4.335509221622829,44.14379824506932 4.046199221622828,44.48979824506932 C 3.6340092216228186,44.98279824506926 3.739099221622837,45.04259824506926 4.530579221622816,44.77099824506922 C 5.278019221622799,44.51469824506921 5.540339221622844,44.632798245069125 5.540339221622844,45.22409824506917 C 5.540339221622844,45.663398245069175 5.327169221622853,46.022998245069175 5.06572922162286,46.022998245069175 C 4.804349221622829,46.022998245069175 4.7299992216228475,46.27979824506929 4.90166922162291,46.59519824506924 C 5.118269221622882,46.99319824506915 4.713929221622948,47.10279824506915 3.581359221622961,46.95259824506934 C 2.012949221622989,46.74479824506943 1.4587892216229648,47.14579824506927 2.399719221622945,47.806198245069254 C 3.2120192216229952,48.376298245069165 2.866549221622904,49.15659824506929 1.9485492216228977,48.82569824506936 C 0.9432592216229523,48.46349824506933 -0.2453107783770747,49.499198245069465 0.04424922162286293,50.48579824506942 C 0.14640922162288916,50.833598245069425 0.5167992216228185,51.11869824506948 0.8665092216228913,51.11869824506948 C 1.651559221622847,51.11869824506948 1.710269221622866,52.467298245069514 0.9407092216229103,52.81979824506948 C 0.6152292216229398,52.96899824506954 0.7196792216228687,53.09329824506949 1.1907092216229103,53.11669824506953 C 1.6372292216228743,53.13869824506946 1.8784192216229485,53.38729824506959 1.7258692216229292,53.66749824506951 C 1.5716992216229073,53.950798245069564 1.909719221622936,54.17899824506958 2.4856392216229324,54.18119824506948 C 3.150129221622933,54.19119824506947 3.7076592216229756,54.64019824506954 4.0403192216228945,55.45459824506952 C 4.325629221622876,56.153098245069486 4.380349221622851,56.72409824506963 4.16141922162285,56.72409824506963 C 3.9424992216228247,56.72409824506963 3.6346692216228575,57.298698245069545 3.4797792216228345,57.99949824506962 C 3.3248892216228114,58.700198245069714 2.9170492216228467,59.27299824506963 2.5735292216228345,59.27299824506963 C 1.6794592216227784,59.27299824506963 1.80319922162289,60.62719824506962 2.7336792216228787,61.032698245069696 C 3.429909221622893,61.33599824506973 3.391529221622932,61.48369824506972 2.395789221622863,62.35889824506967 L 1.276649221622847,63.341298245069765 L 2.680949221622882,63.040498245069784 C 4.25765922162293,62.70119824506969 5.15983922162286,63.60509824506971 3.7512592216228313,64.11279824506983 C 2.5463792216228285,64.54699824506974 2.584859221622878,65.5847982450698 3.792259221622885,65.2260982450698 C 4.602449221622919,64.9855982450697 4.704489221622907,65.12909824506983 4.5188192216228344,66.23189824506971 C 4.314519221622845,67.44559824506973 4.386459221622886,67.49849824506964 5.811789221622803,67.1947982450697 C 7.054539221622804,66.93009824506976 7.274679221622819,67.01239824506979 7.055929221622819,67.65969824506965 C 6.680989221622781,68.7690982450697 8.069819221622765,68.67719824506958 8.6457692216228,67.55419824506976 C 9.059929221622838,66.74689824506981 9.104119221622796,66.76519824506977 9.116469221622765,67.74559824506969 C 9.126769221622794,68.56649824506962 9.4113492216228,68.8275982450698 10.290299221622718,68.8275982450698 C 11.188579221622717,68.8275982450698 11.402139221622747,68.62039824506974 11.23756922162272,67.90579824506972 C 11.117239221622754,67.38339824506966 11.310869221622738,66.85769824506974 11.68482922162275,66.6947982450697 C 12.689619221622706,66.25709824506976 12.841199221622787,66.33879824506971 12.55982922162275,67.17139824506967 C 12.384129221622743,67.69129824506967 12.58382922162275,67.93699824506962 13.18482922162275,67.93699824506962 C 13.670749221622714,67.93699824506962 14.067649221622787,68.16659824506951 14.067649221622787,68.44679824506966 C 14.067649221622787,69.36899824506963 14.855229221622835,68.97799824506956 15.094989221622768,67.93699824506962 C 15.333159221622736,66.90269824506959 16.311789221622803,66.49289824506968 16.311789221622803,67.42729824506955 C 16.311789221622803,67.70759824506945 16.615339221622776,67.93699824506962 16.985619221622756,67.93699824506962 C 17.355879221622786,67.93699824506962 17.657489221622768,67.59189824506961 17.657489221622768,67.17139824506967 C 17.657489221622768,66.75089824506972 17.859879221622805,66.4076982450697 18.106709221622737,66.4076982450697 C 18.353569221622706,66.4076982450697 18.555929221622705,66.75089824506972 18.555929221622705,67.17139824506967 C 18.555929221622705,67.59189824506961 18.859489221622653,67.93699824506962 19.229759221622658,67.93699824506962 C 19.600029221622663,67.93699824506962 19.90162922162267,67.58259824506968 19.90162922162267,67.14989824506961 C 19.90162922162267,66.68329824506964 20.222919221622647,66.42429824506962 20.688739221622654,66.51319824506959 C 21.20441922162263,66.61119824506955 21.452329221622676,66.35659824506956 21.411399221622673,65.77099824506968 C 21.317099221622698,64.42209824506972 22.31234922162264,64.68519824506961 25.167259221622658,66.76509824506957 C 26.59142922162266,67.80269824506968 29.15684922162268,69.30169824506947 30.868429221622705,70.09519824506947 C 32.580049221622744,70.88859824506949 34.92801922162266,72.35909824506939 36.087179221622705,73.36279824506937 C 37.90619922162273,74.93799824506937 38.23359922162274,75.50299824506942 38.47389922162267,77.49369824506948 C 38.894779221622684,80.98039824506941 38.79231922162262,101.20409824506942 38.2961592216227,106.66749824506951 C 37.62747922162271,114.03059824506954 37.49621922162271,113.80589824506956 36.09303922162269,114.93699824506962 C 35.32670922162265,115.5547982450696 34.82088922162268,116.06239824506952 34.61646922162265,116.46239824506961 L 51.00122922162268,116.46239824506961 C 50.99722922162266,115.96899824506954 50.4123792216227,115.19039824506967 49.225839221622664,113.7689982450695 C 47.475609221622676,111.67239824506942 46.8354692216227,104.43209824506948 46.83325922162271,97.81589824506955 L 46.83125922162276,89.72799824506956 L 50.614459221622724,85.21439824506956 C 52.69584922162278,82.73079824506954 55.03651922162271,79.49039824506963 55.81562922162277,78.01319824506959 C 56.78855922162279,76.16849824506949 58.13370922162278,74.62329824506969 60.10859922162274,73.07959824506952 L 62.98359922162274,70.8314982450695 L 64.47578922162279,71.74369824506948 C 65.66184922162279,72.46899824506954 66.16360922162278,72.53949824506958 66.91719922162281,72.0814982450695 C 68.0660692216228,71.38339824506943 68.9704692216228,71.32759824506957 68.6164092216228,71.97799824506956 C 68.47439922162278,72.23899824506952 68.55050922162275,72.58749824506958 68.78437922162277,72.75149824506957 C 69.01819922162281,72.91559824506953 69.34354922162277,72.80149824506952 69.50898922162276,72.49759824506964 C 69.67443922162272,72.19359824506955 70.10986922162272,72.07449824506966 70.47578922162279,72.23389824506967 C 70.88801922162281,72.4134982450696 71.06228922162279,72.28189824506967 70.93476922162279,71.88619824506964 C 70.82157922162276,71.5357982450696 70.45192922162278,71.31019824506961 70.11250922162276,71.38429824506966 C 69.77309922162272,71.45829824506973 69.97083922162278,71.05879824506974 70.55195922162272,70.49559824506969 C 71.66085922162267,69.42099824506977 72.41328922162268,69.5326982450697 72.41328922162268,70.77099824506968 C 72.41328922162268,71.1748982450697 72.61371922162266,71.50539824506973 72.86055922162268,71.50539824506973 C 73.10740922162267,71.50539824506973 73.30976922162267,71.27579824506984 73.30976922162267,70.99559824506969 C 73.30976922162267,70.71519824506959 73.73898922162266,70.48579824506965 74.26289922162266,70.48579824506965 C 75.00890922162262,70.48579824506965 75.1074892216227,70.33589824506976 74.71601922162267,69.8002982450696 C 74.12556922162264,68.99239824506958 74.48755922162263,68.44679824506966 75.61445922162272,68.44679824506966 C 76.14893922162275,68.44679824506966 76.33596922162269,68.70539824506955 76.16523922162276,69.21049824506963 C 76.0231492216227,69.63099824506958 76.13023922162279,69.97609824506958 76.40351922162279,69.97609824506958 C 76.85785922162279,69.97609824506958 77.08839922162281,69.28419824506955 76.95429922162282,68.31979824506948 C 76.92509922162287,68.10959824506949 77.2031792216228,67.93699824506939 77.57344922162281,67.93699824506939 C 78.38550922162278,67.93699824506939 78.47264922162276,67.08849824506933 77.69062922162277,66.79249824506928 C 76.86781922162277,66.48099824506926 78.23972922162272,65.1052982450692 79.35859922162274,65.12059824506923 C 80.01938922162276,65.13059824506922 80.27238922162269,64.75609824506932 80.34687922162277,63.65579824506926 C 80.41587922162273,62.63559824506933 80.30437922162275,62.340298245069334 79.98359922162274,62.70459824506929 C 79.39804922162273,63.36949824506928 77.7980592216228,62.92889824506938 77.7980592216228,62.10299824506933 C 77.7980592216228,61.76299824506941 78.25241922162274,61.504598245069246 78.80781922162282,61.52689824506933 C 79.66872922162281,61.561898245069415 79.79578922162284,61.34059824506926 79.67109922162285,60.04049824506933 C 79.48921922162288,58.14399824506927 79.32850922162288,57.95609824506937 78.53437922162288,58.70459824506929 C 78.0398192216229,59.170598245069186 77.84211922162285,59.12079824506918 77.62422922162284,58.47609824506935 C 77.47118922162281,58.02319824506935 77.4600692216228,57.44389824506925 77.59882922162285,57.18899824506934 C 77.84058922162285,56.74469824506923 77.15584922162282,56.49749824506944 76.24530922162285,56.70069824506936 C 76.0078892216228,56.75369824506947 75.55352922162285,56.393698245069345 75.23554922162282,55.89989824506938 C 74.70506922162281,55.07609824506949 74.65741922162283,55.07239824506928 74.65741922162283,55.862898245069346 C 74.65741922162283,56.33689824506928 74.35386922162286,56.724198245069374 73.98358922162288,56.724198245069374 C 73.61332922162285,56.724198245069374 73.30975922162293,56.47039824506942 73.30975922162293,56.159798245069396 C 73.30975922162293,55.811698245069465 72.88000922162291,55.71849824506944 72.18866922162294,55.915598245069305 C 71.36066922162297,56.151498245069206 71.06561922162291,56.03179824506924 71.06561922162291,55.46059824506938 C 71.06561922162291,55.034798245069396 70.8651992216229,54.68519824506939 70.61835922162288,54.68519824506939 C 70.37151922162286,54.68519824506939 70.16913922162291,54.9146982450693 70.16913922162291,55.19489824506945 C 70.16913922162291,55.47519824506935 69.86557922162297,55.704698245069494 69.49530922162296,55.704698245069494 C 68.51412922162297,55.704698245069494 68.64612922162291,55.29049824506956 70.39374922162301,52.868798245069456 C 71.25770922162303,51.671498245069415 71.96405922162296,50.53809824506948 71.96405922162296,50.349198245069374 C 71.96405922162296,50.16029824506927 71.54750922162293,49.40459824506934 71.03827922162293,48.66949824506946 C 70.15928922162288,47.40059824506943 70.15251922162292,47.31419824506952 70.9249992216229,46.968398245069466 C 72.10507922162287,46.439998245069546 72.95371922162292,46.45849824506945 72.65546922162287,47.0053982450695 C 72.51344922162286,47.26629824506949 72.60376922162288,47.624198245069465 72.85468922162283,47.8002982450696 C 73.1055592216228,47.97629824506953 73.30975922162281,47.862298245069496 73.30975922162281,47.54639824506967 C 73.30975922162281,47.204298245069594 73.67321922162284,47.103598245069634 74.20819922162286,47.29639824506967 C 74.72310922162285,47.481898245069715 75.10468922162283,47.38739824506956 75.10468922162283,47.07569824506959 C 75.10468922162283,46.776398245069686 74.85269922162286,46.52409824506958 74.5441392216228,46.51509824506957 C 74.2281292216228,46.505098245069576 74.36395922162285,46.17289824506952 74.85468922162283,45.75149824506957 C 75.6183492216228,45.095598245069596 75.63074922162286,45.00149824506957 74.96210922162288,45.00149824506957 C 74.3130992216229,45.00149824506957 74.28275922162288,44.85219824506953 74.75702922162293,43.98979824506955 C 75.22991922162294,43.1299982450696 75.17058922162289,42.810198245069614 74.35858922162288,41.88819824506959 C 73.33597922162289,40.72699824506958 72.42101922162283,40.94569824506948 72.39764922162283,42.35689824506949 C 72.38514922162278,43.1149982450695 72.30504922162288,43.10039824506953 71.7316392216228,42.23979824506955 C 71.10008922162285,41.292198245069585 71.05163922162285,41.29139824506956 70.17499922162278,42.192798245069525 C 69.36373922162284,43.02639824506946 69.27069922162275,43.03449824506947 69.27069922162275,42.27879824506954 C 69.27069922162275,41.19029824506947 68.85058922162273,41.207798245069625 68.09491922162272,42.327798245069516 C 67.60398922162267,43.055198245069505 67.41823922162268,43.092798245069616 67.0910092216227,42.52899824506949 C 66.58448922162268,41.656098245069415 66.02050922162266,42.56199824506939 66.38983922162265,43.65399824506949 C 66.63250922162263,44.37199824506956 66.04013922162267,44.45979824506958 63.94257922162262,44.01919824506945 C 63.85067922162261,44.00019824506944 63.999679221622614,43.676698245069474 64.27460922162265,43.30049824506955 C 64.9223692216226,42.414198245069656 64.3745092216227,41.78449824506947 63.594919221622604,42.51919824506945 C 63.133849221622654,42.95369824506952 62.899149221622565,42.80599824506953 62.57147922162255,41.87669824506952 C 62.33780922162259,41.21409824506941 62.13400922162259,40.986198245069545 62.11835922162254,41.37079824506941 C 62.09635922162249,41.91089824506935 61.94741922162257,41.937598245069466 61.464059221622506,41.48209824506944 C 60.96684922162251,41.01359824506949 60.85190922162246,41.07789824506949 60.90350922162247,41.80049824506955 C 60.94950922162252,42.445598245069505 60.70613922162249,42.65949824506947 60.069529221622474,42.5348982450696 C 59.2560292216225,42.37569824506954 59.27375922162253,42.46089824506953 60.25116922162249,43.4274982450695 C 60.84433922162248,44.014598245069465 61.24712922162246,44.52409824506958 61.14764922162249,44.56029824506959 C 60.982009221622434,44.62129824506951 59.45987922162249,44.852098245069556 57.48944922162252,45.11689824506948 C 57.05745922162248,45.17489824506947 56.7042892216225,45.40699824506942 56.7042892216225,45.63249824506943 C 56.7042892216225,45.85819824506939 56.14874922162255,45.90409824506946 55.46991922162249,45.73599824506937 C 54.53392922162254,45.50419824506935 54.396589221622435,45.55829824506941 54.905469221622525,45.96069824506935 C 55.48536922162248,46.41939824506926 55.45662922162251,46.59759824506932 54.682809221622506,47.26729824506924 C 54.03442922162253,47.82839824506914 53.93437922162252,48.15349824506916 54.32343922162249,48.44699824506915 C 54.618959221622504,48.66999824506911 54.70885922162245,49.13219824506905 54.52264922162249,49.47429824506912 C 54.256709221622486,49.96289824506903 53.92570922162247,49.9616982450691 52.975779221622474,49.46229824506918 C 51.47052922162243,48.67119824506926 51.17871922162249,47.68719824506911 51.569529221622474,44.72789824506913 C 51.84662922162249,42.62969824506922 52.05847922162252,42.3054982450692 53.72968922162249,41.40759824506904 C 54.748829221622486,40.85999824506894 56.325469221622484,39.61059824506901 57.23358922162254,38.63219824506905 C 58.21165922162254,37.57839824506914 59.155559221622525,36.97199824506902 59.549999221622556,37.14389824506907 C 59.92605922162261,37.307698245069105 60.2828192216225,37.11289824506912 60.36835922162254,36.69469824506905 C 60.48106922162253,36.14459824506912 60.78689922162255,36.06879824506905 61.56366922162249,36.39979824506895 C 62.51374922162245,36.80459824506897 62.54330922162251,36.91699824506895 61.89960922162254,37.64789824506897 C 61.51066922162249,38.089598245069055 61.19257922162251,38.71039824506897 61.19257922162251,39.0267982450689 C 61.19257922162251,39.433698245068854 61.34866922162246,39.42319824506899 61.72968922162249,38.99179824506882 C 62.47727922162244,38.142898245068864 63.01055922162254,38.22619824506887 62.70038922162246,39.14409824506879 C 62.5403392216225,39.61759824506885 62.70238922162241,39.909798245068714 63.12616922162249,39.909798245068714 C 63.50265922162248,39.909798245068714 64.1655192216225,40.062798245068734 64.59882922162251,40.251598245068635 C 65.20624922162256,40.51629824506858 65.3210492216225,40.399398245068596 65.09882922162251,39.741798245068594 C 64.90684922162256,39.173698245068636 65.04052922162248,38.89019824506863 65.49725922162247,38.89019824506863 C 65.90224922162247,38.89019824506863 66.0501992216225,39.13169824506872 65.86054922162248,39.480098245068575 C 65.64054922162245,39.88429824506852 65.84394922162244,39.97789824506867 66.50702922162247,39.780898245068556 C 67.20160922162245,39.5745982450685 67.47577922162247,39.72689824506847 67.47577922162247,40.314098245068635 C 67.47577922162247,40.950798245068654 67.59595922162248,40.99669824506873 68.01483922162242,40.52109824506874 C 68.31105922162237,40.18469824506883 69.05616922162244,39.909798245068714 69.67108922162242,39.909798245068714 C 70.75051922162243,39.909798245068714 70.75828922162248,39.88279824506867 69.91718922162238,39.159798245068714 C 69.08033922162235,38.441098245068815 69.09424922162236,38.41169824506869 70.23944922162241,38.39609824506874 C 71.19381922162245,38.38309824506882 71.3858392216224,38.182398245068725 71.20428922162239,37.39409824506879 C 71.01733922162236,36.58229824506884 71.16138922162236,36.45479824506879 72.03046922162241,36.6675982450688 C 73.06940922162244,36.921998245068835 73.07326922162247,36.91369824506887 72.18866922162238,36.0874982450689 C 71.69496922162239,35.62649824506889 71.34179922162241,35.03759824506892 71.40350922162236,34.77699824506885 C 71.4653092216223,34.51659824506896 71.21127922162236,34.302398245068844 70.84100922162236,34.302398245068844 C 70.47073922162235,34.302398245068844 70.16913922162234,34.5249982450689 70.16913922162234,34.79649824506873 C 70.16913922162234,35.367298245068696 68.73682922162232,34.867498245068646 68.3117192216223,34.148098245068695 C 68.14431922162225,33.864898245068616 67.77050922162232,33.84779824506859 67.41327922162225,34.107098245068755 C 66.63734922162223,34.67099824506886 64.78241922162226,34.73499824506871 64.78241922162226,34.19909824506885 C 64.78241922162226,33.975798245068745 64.42923922162231,33.78619824506882 63.997259221622244,33.77729824506878 C 63.286589221622194,33.76229824506868 63.29490922162222,33.691298245068765 64.08315922162228,33.013598245068806 C 65.04877922162223,32.18419824506873 65.87096922162232,32.01239824506888 65.48550922162224,32.72059824506891 C 65.34914922162227,32.97119824506899 65.74446922162224,33.14369824506889 66.3624592216222,33.103398245069 C 67.0599592216222,33.05739824506895 67.40405922162222,32.78799824506905 67.27065922162217,32.392498245068964 C 67.15246922162214,32.0421982450689 67.33495922162217,31.753798245068992 67.67690922162217,31.753798245068992 C 68.01886922162214,31.753798245068992 68.37073922162222,31.999098245069035 68.45815922162217,32.296798245068885 C 68.56866922162214,32.67329824506896 68.98474922162222,32.67929824506882 69.82534922162222,32.31679824506887 C 70.63833922162223,31.965798245068754 71.12517922162226,31.964098245068953 71.31362922162225,32.306798245068876 C 71.50127922162221,32.65159824506895 71.78084922162225,32.64569824506884 72.15737922162225,32.2907982450688 C 72.46667922162226,31.999298245068758 72.83168922162224,31.888098245068704 72.96792922162228,32.04279824506875 C 73.21462922162232,32.322998245068675 75.55556922162225,29.92269824506866 75.51089922162225,29.435398245068654 C 75.40868922162224,28.320198245068696 75.92746922162223,27.99239824506867 76.68862922162225,28.693198245068743 C 77.44092922162224,29.385798245068827 77.49049922162226,29.374298245068758 77.22378922162227,28.56619824506879 C 77.0618992216223,28.075598245068704 77.1253892216223,27.673598245068888 77.36440922162228,27.673598245068888 C 77.60349922162231,27.673598245068888 77.79799922162226,27.913498245068922 77.79800922162224,28.20489824506899 C 77.79800922162224,28.51239824506888 78.05514922162229,28.4615982450689 78.41128922162227,28.08379824506892 C 78.92818922162223,27.535498245068993 78.91141922162228,27.32599824506883 78.29995922162232,26.751798245068812 C 77.90088922162226,26.377098245068737 77.82537922162237,26.216698245068756 78.13393922162231,26.39429824506874 C 78.44248922162228,26.571698245068774 78.69643922162231,26.45729824506884 78.69643922162231,26.14039824506881 C 78.69643922162231,25.26889824506884 77.41758922162228,23.998398245068756 76.90346922162234,24.35919824506891 C 76.65472922162235,24.533798245068965 76.4522992216223,24.484998245068937 76.4522992216223,24.24979824506886 C 76.4522992216223,24.014298245068858 77.10903922162231,23.520598245068868 77.91128922162227,23.15409824506878 C 78.71608922162227,22.786498245068742 79.11730922162224,22.375298245068734 78.80776922162227,22.236098245068888 C 78.49920922162221,22.09729824506894 78.24721922162223,21.697898245068927 78.24721922162223,21.34749824506889 C 78.24721922162223,20.979498245068953 77.67944922162224,20.710798245068872 76.90151922162227,20.710798245068872 C 76.16097922162226,20.710798245068872 75.55385922162225,20.894298245068967 75.55385922162225,21.11899824506895 C 75.55385922162225,21.34379824506891 75.22243922162227,21.382898245068873 74.81753922162227,21.206998245068917 C 74.15242922162224,20.917198245068903 74.16085922162222,20.819798245069023 74.9034392216223,20.203098245068986 C 75.52770922162233,19.684798245069032 75.57044922162231,19.50679824506892 75.07921922162234,19.46099824506905 C 74.1410592216223,19.372998245069084 74.13009922162234,19.37399824506906 72.41320922162231,19.783198245069116 L 70.8409392216223,20.158198245069116 L 71.69640922162228,19.074198245069056 C 72.45144922162228,18.117898245069 72.46369922162228,17.99219824506895 71.80773922162223,17.99219824506895 C 71.39920922162219,17.99219824506895 71.06554922162218,17.762698245069032 71.06554922162218,17.482398245068907 C 71.06554922162218,17.20209824506901 70.71238922162217,16.965898245068956 70.28039922162213,16.956998245068917 C 69.3095892216221,16.936998245068935 67.83141922162213,15.719798245068887 68.2296192216221,15.267598245068939 C 68.39033922162207,15.085098245069048 68.07209922162212,14.935598245068832 67.52062922162213,14.935598245068832 C 66.69870922162215,14.935598245068832 66.57410922162217,14.736698245068737 66.82531922162218,13.8378982450688 C 67.06896922162218,12.966298245068856 66.98184922162216,12.807398245068725 66.40539922162213,13.058598245068879 C 66.00664922162218,13.232298245068932 65.68078922162215,13.151598245068953 65.68078922162215,12.88089824506892 C 65.68078922162215,12.60939824506886 65.46758922162212,12.386698245068828 65.20617922162216,12.386698245068828 C 64.94476922162221,12.386698245068828 64.85440922162218,12.616198245068745 65.0069592216222,12.89649824506887 C 65.15951922162219,13.176698245068792 64.96995922162216,13.40629824506891 64.58507922162221,13.40629824506891 C 64.20024922162224,13.40629824506891 63.885869221622215,13.655298245068934 63.885869221622215,13.95899824506887 C 63.885869221622215,14.26259824506883 63.631919221622184,14.405798245068809 63.323369221622215,14.27739824506898 C 63.01480922162216,14.148898245068949 62.816349221622204,13.773898245068949 62.881959221622196,13.445298245068898 C 62.94765922162219,13.116698245068847 62.64596922162218,12.916698245068801 62.21007922162221,12.99999824506881 C 61.76482922162222,13.085998245068822 61.46540922162217,12.871598245068753 61.52843922162219,12.513698245068781 C 61.660009221622204,11.76669824506871 60.91814922162223,11.65649824506886 60.53234922162221,12.365298245068743 C 60.38644922162223,12.633298245068772 59.95158922162216,12.714298245068676 59.56750922162223,12.546898245068633 C 58.99168922162221,12.295998245068631 59.07267922162225,12.02989824506858 60.03039922162225,11.021498245068642 C 61.12818922162228,9.865598245068668 61.67406922162229,8.421498245068733 60.77453922162226,9.052798245068743 C 60.54474922162228,9.213998245068751 60.239349221622206,9.128798245068765 60.09484922162221,8.86329824506879 C 59.950339221622244,8.59789824506879 60.03934922162216,8.234098245068708 60.292119221622215,8.056698245068901 C 60.57816922162226,7.855898245068829 60.46574922162222,7.412898245068845 59.99718922162219,6.88089824506892 C 59.450429221622244,6.259898245068825 59.19453922162222,6.198798245068929 59.05968922162219,6.658198245068888 C 58.95756922162218,7.00609824506887 58.675539221622216,7.290998245068977 58.43468922162219,7.290998245068977 C 58.193849221622145,7.290998245068977 58.12196922162218,7.06169824506901 58.27453922162215,6.7812982450689105 C 58.42708922162217,6.501098245068988 58.3386392216222,6.271498245068869 58.077269221622146,6.271498245068869 C 57.81585922162219,6.271498245068869 57.60265922162216,6.513798245068756 57.60265922162216,6.810598245068832 C 57.60265922162216,7.107498245068882 57.42967922162211,7.231098245068779 57.21984922162221,7.083998245068869 C 57.108909221622184,7.005998245068895 57.296949221622185,4.057298245068978 55.456179221622165,2.3534982450689768 C 54.73971922162218,1.690298245069016 53.14800922162215,2.601498245069024 52.014769221622146,2.302498245069046 C 51.35246922162219,2.1275982450690663 51.53578922162217,1.1486982450689993 51.02062922162213,0.7379982450690932 C 50.39864922162212,0.2418982450690237 49.10511922162209,0.31149824506906043 48.6046192216221,0.20089824506908371 L 48.6046192216221,0.20089824506908371 C 48.17653922162208,0.10589824506905643 47.021479221622144,1.0623982450690619 46.17492922162205,0.9880982450690681 C 45.25756922162202,0.9070982450691645 44.55473922162207,0.05899824506900586 43.96789922162202,0.0016982450690647966 L 43.96802922162328,0.0037982450699018955 M 31.2121692216233,29.26159824506999 C 31.30146922162328,29.273598245069934 31.459539221623345,29.405198245070096 31.702399221623295,29.63269824507006 C 32.10277922162334,30.007198245069958 32.62583922162332,30.17459824507 32.866459221623245,30.005798245070082 C 33.107019221623204,29.836898245070188 33.41349922162328,29.90109824506999 33.548109221623235,30.148398245069984 C 33.68269922162324,30.39569824506998 34.35363922162321,30.49549824506994 35.03833922162323,30.37099824507004 C 36.02553922162326,30.191398245070104 36.14441922162325,30.259498245070063 35.610609221623235,30.702998245070148 C 35.02436922162326,31.189898245070253 35.051249221623266,31.3603982450702 35.80981922162323,32.0174982450701 C 36.804429221623195,32.879098245070054 37.59330922162326,33.02129824507006 37.180919221623185,32.26359824507017 C 37.02831922162318,31.98319824507007 37.23071922162319,31.75379824507013 37.63013922162315,31.75379824507013 C 38.02954922162314,31.75379824507013 38.24521922162319,31.95799824507003 38.10864922162318,32.20889824507003 C 37.972079221623176,32.45979824507003 38.16164922162318,32.7982982450701 38.53052922162317,32.95889824507003 C 38.89937922162312,33.11959824506994 39.198939221623164,33.65889824507008 39.1965392216232,34.15809824507005 C 39.190539221623226,35.49689824507004 37.14360922162325,40.25569824507011 36.44067922162321,40.56629824507013 C 35.647189221623194,40.917098245070065 33.21536922162318,37.779998245070146 31.784429221623213,34.56049824507022 C 31.141279221623222,33.11369824507028 30.84998922162322,31.940398245070128 31.110609221623235,31.84169824507012 C 31.373209221623256,31.742698245070187 31.441529221623227,31.089198245070065 31.27075922162328,30.31049824507022 C 31.138159221623255,29.70589824507033 31.08413922162333,29.38509824507014 31.143809221623314,29.29089824507014 C 31.158709221623326,29.26689824507025 31.18240922162329,29.257898245070237 31.21220922162331,29.261898245070142 L 31.2121692216233,29.26159824506999 M 46.59497922162325,30.47839824506991 C 46.92221922162321,30.49339824507001 46.796259221623245,30.875198245069896 46.366459221623245,31.78699824506998 C 46.09187922162323,32.36959824506994 46.07365922162319,32.773398245069984 46.32345922162324,32.773398245069984 C 46.5558692216232,32.773398245069984 46.63256922162327,33.26859824507005 46.493379221623286,33.872998245069994 C 46.31997922162327,34.62589824506995 46.40497922162331,34.855198245069914 46.76095922162324,34.60539824507009 C 47.06271922162318,34.39359824507005 47.28048922162327,34.55039824507003 47.28048922162327,34.97649824507016 C 47.28048922162327,35.38089824507006 47.784469221623226,35.820998245070086 48.40157922162325,35.9549982450701 C 49.625259221623196,36.22059824507005 49.824549221623215,35.866998245070135 48.98556922162322,34.91399824507016 C 48.566669221623215,34.438398245070175 48.61673922162322,34.30269824507013 49.21016922162323,34.30269824507013 C 49.62980922162319,34.30269824507013 49.9718892216232,34.5487982450702 49.9718892216232,34.85149824507016 C 49.9718892216232,35.197498245070165 50.47240922162325,35.27749824507009 51.31954922162322,35.06629824507013 C 52.90103922162325,34.671898245070224 52.96389922162325,34.89179824507005 51.79220922162324,36.74209824507011 C 51.26022922162326,37.58219824507 50.72979922162324,39.70479824507015 50.438689221623235,42.16199824507021 C 50.175529221623265,44.38359824507029 49.66087922162319,46.88399824507019 49.294159221623204,47.7186982450703 C 48.92743922162322,48.55349824507039 48.626189221623235,49.55479824507029 48.626189221623235,49.94329824507031 C 48.626189221623235,51.39839824507021 46.86619922162322,54.48649824507038 45.137909221623204,56.0623982450702 C 43.58947922162315,57.47429824507026 43.241009221623244,58.185998245070095 42.55782922162325,61.35149824507016 C 41.48487922162326,66.32309824507024 41.11662922162327,65.32629824507012 40.02266922162323,54.51359824507017 C 39.536049221623216,49.703798245070175 39.2365692216232,45.04269824507014 39.35860922162328,44.15619824507007 C 39.66654922162331,41.91939824507017 43.31167922162331,32.76259824506997 43.76680922162325,33.08189824507008 C 43.97119922162324,33.22539824506998 44.137909221623204,32.8933982450701 44.137909221623204,32.34369824507007 C 44.137909221623204,31.691398245070104 44.60676922162315,31.158398245069975 45.48556922162322,30.810498245069994 C 46.03953922162327,30.591298245069993 46.39858922162318,30.469198245069947 46.594939221623235,30.47839824506991 L 46.59497922162325,30.47839824506991 M 28.124279221623283,31.410098245070003 C 28.262779221623305,31.42909824507001 28.53547922162329,31.7348982450701 29.07153922162331,32.34369824507007 C 29.671109221623283,33.02459824507014 30.289849221623285,34.166898245070115 30.448499221623365,34.88469824507001 L 30.737559221623314,36.189398245069924 L 27.901619221623264,35.41979824506984 C 26.341149221623255,34.996498245069915 24.204629221623236,34.171998245069744 23.155529221623283,33.58589824506976 C 21.081579221623315,32.42729824506978 20.721119221623326,31.753798245069675 22.173109221623235,31.753798245069675 C 22.681349221623236,31.753798245069675 22.972149221623226,31.983198245069616 22.819589221623232,32.263598245069716 C 22.6669992216232,32.54379824506964 22.942739221623242,32.77339824506976 23.432869221623264,32.77339824506976 C 23.923019221623235,32.77339824506976 24.419089221623267,33.175498245069775 24.534429221623213,33.665898245069684 C 24.71457922162324,34.43189824506976 24.788239221623257,34.39979824506963 25.05981922162323,33.445198245069605 C 25.433129221623176,32.133098245069505 26.634039221623198,31.43899824506957 26.634039221623198,32.53509824506955 C 26.634039221623198,32.946698245069456 26.937599221623145,33.283098245069596 27.30786922162315,33.283098245069596 C 27.696179221623197,33.283098245069596 27.981699221623103,32.821298245069556 27.981699221623103,32.19329824506963 C 27.981699221623103,31.65779824506967 27.985699221623122,31.39129824506972 28.124279221623055,31.41009824506955 L 28.124279221623283,31.410098245070003 M 56.13794922162333,34.91199824506998 C 56.208249221623305,34.89499824506993 56.202649221623346,35.030398245070046 56.13594922162338,35.3162982450699 C 56.0389492216234,35.73419824506982 56.23104922162338,36.38239824506991 56.56172922162341,36.75769824506983 C 56.892399221623464,37.133198245069934 57.03661922162337,37.67069824506984 56.88398922162344,37.95109824506994 C 56.37327922162342,38.88939824506997 53.79976922162348,40.41399824506993 52.72187922162345,40.41589824506991 C 51.75869922162349,40.41589824506991 51.683169221623416,40.256698245069856 51.94648922162344,38.76159824506999 C 52.32668922162338,36.60309824506999 53.793819221623494,34.868498245069986 54.53047922162341,35.7049982450701 C 54.93519922162341,36.164498245070035 55.20390922162346,36.10169824507011 55.684769221623355,35.43159824507006 C 55.92069922162341,35.10279824507006 56.06758922162339,34.92979824507006 56.13789922162334,34.91199824506998 L 56.13794922162333,34.91199824506998 M 68.00708922162335,47.710898245069984 C 68.23708922162336,47.75989824506996 68.42787922162336,47.96579824506989 68.67505922162331,48.34949824506998 C 69.05284922162332,48.936198245070045 69.27075922162328,49.029498245070045 69.27075922162328,48.60539824507009 C 69.27075922162328,48.06819824507011 69.40427922162326,48.0614982450702 69.94458922162323,48.57039824507001 C 71.01417922162318,49.57849824507002 70.74294922162323,50.69839824506994 68.83520922162324,53.15639824507002 C 67.47024922162325,54.914898245069935 66.96083922162325,55.29049824507001 66.6496692216233,54.76179824506994 C 66.31597922162325,54.19469824506996 65.89417922162329,54.251898245069924 64.27856922162334,55.086098245069934 C 63.19805922162334,55.64399824506995 61.91092922162329,56.46319824506986 61.417249221623365,56.90639824507002 C 60.92355922162335,57.349398245070006 60.48154922162337,57.71969824507005 60.43481922162334,57.72859824507009 C 60.388119221623356,57.73859824507008 60.6600692216233,56.70669824507013 61.04028922162331,55.4395982450701 C 61.420519221623294,54.1723982450701 61.963709221623276,53.178598245070134 62.24731922162334,53.22859824507009 C 62.53094922162336,53.27859824507004 63.11807922162336,53.16659824507019 63.550059221623314,52.98249824507002 C 63.982049221623356,52.798198245070125 64.65046922162333,52.5346982450701 65.03638922162327,52.39659824506998 C 65.42229922162323,52.258498245070086 65.62044922162329,51.93209824506994 65.47778922162331,51.66999824507002 C 65.33513922162331,51.4078982450701 65.62699922162335,51.04659824507007 66.12427922162328,50.86729824507006 C 67.05036922162333,50.53349824506995 67.38638922162329,49.58999824507009 66.57934922162326,49.58999824507009 C 65.78086922162322,49.58999824507009 66.1032892216233,48.62429824507012 67.10474922162325,48.0156982450701 C 67.50844922162321,47.770398245070055 67.77710922162328,47.66209824507018 68.00708922162323,47.71109824507016 L 68.00708922162335,47.710898245069984 M 58.0305292216234,50.43159824507006 C 58.805889221623374,50.50159824507 60.381729221623345,51.292298245070015 60.58325922162339,51.88859824507017 C 60.70234922162342,52.24099824507016 60.28209922162341,53.924498245070254 59.64966922162341,55.63079824507008 C 58.83456922162338,57.82979824507015 58.4992792216234,59.648698245070136 58.4992792216234,61.88079824507008 C 58.4992792216234,65.5971982450701 56.96881922162345,69.48129824507009 53.33911922162338,74.96669824507012 C 51.26306922162337,78.10399824507022 46.93435922162337,82.20689824507008 45.70044922162333,82.20689824507008 C 45.37943922162333,82.20689824507008 44.967809221623384,80.55539824507014 44.65356922162334,78.00189824507015 C 43.99519922162335,72.65189824507024 43.99631922162337,69.18659824507017 44.65756922162336,67.78309824507005 C 44.94414922162332,67.17499824507013 45.44656922162335,65.08859824506999 45.77279922162336,63.14439824507008 C 46.14960922162334,60.89879824507011 46.81971922162336,58.90029824507019 47.60873922162341,57.66789824507009 C 48.291869221623415,56.60099824507006 49.367529221623386,54.54849824507005 49.9993692216234,53.10729824507007 C 51.077199221623346,50.64919824507001 51.195139221623435,50.54269824507014 51.9056192216234,51.34949824506998 C 52.37763922162344,51.885398245070064 53.00149922162336,52.086598245070036 53.5618692216234,51.88469824507001 C 54.07804922162336,51.69869824507009 54.46029922162336,51.79169824506994 54.46029922162336,52.10339824506991 C 54.46029922162336,52.402698245069814 54.857189221623344,52.648398245069984 55.3431192216234,52.648398245069984 C 55.94408922162336,52.648398245069984 56.14383922162335,52.404698245069994 55.9681192216234,51.88469824507001 C 55.78886922162337,51.35429824506991 55.999419221623384,51.11909824507006 56.6556192216234,51.11909824507006 C 57.17571922162335,51.11909824507006 57.602879221623425,50.90229824507014 57.602879221623425,50.63659824506999 C 57.602879221623425,50.46599824507007 57.77216922162347,50.40829824507 58.0306192216234,50.43159824507006 L 58.0305292216234,50.43159824507006 M 24.182869221623378,56.44329824507008 C 24.269469221623353,56.39529824507008 24.340139221623417,56.65859824507015 24.354749221623365,57.148398245069984 C 24.386149221623327,58.19729824506999 24.547859221623412,58.29659824507007 25.737559221623314,57.99989824506997 C 27.03976922162326,57.675098245069876 27.615629221623294,58.33059824506995 26.63403922162331,59.01939824507008 C 26.387189221623316,59.19259824507003 26.184819221623343,59.70989824507001 26.184819221623343,60.16979824507007 C 26.184819221623343,60.80319824507001 26.31302922162331,60.86249824507013 26.706309221623314,60.41589824507014 C 27.09964922162328,59.969398245070124 27.46593922162333,60.426898245070106 28.219979221623362,62.2674982450701 C 28.80239922162332,63.694898245070135 30.07630922162332,65.50909824507016 31.29028922162331,66.63859824507017 C 33.803759221623295,68.97719824507021 34.067469221623355,70.13919824507025 31.907479221623362,69.36119824507023 C 31.10523922162338,69.07219824507024 28.94125922162334,68.03689824507023 27.096929221623327,67.06049824507022 C 24.344379221623285,65.60319824507019 23.861449221623275,65.17829824507021 24.403569221623343,64.68939824507015 C 24.766839221623286,64.36189824507005 25.317559221623355,63.581998245070054 25.628179221623327,62.95689824507008 C 26.103689221623313,62.00019824507012 26.086799221623323,61.82219824507001 25.516849221623374,61.82219824507001 C 25.144539221623404,61.82219824507001 24.839119221623378,62.051598245069954 24.839119221623378,62.33189824507008 C 24.839119221623378,62.61209824507 24.524749221623324,62.84169824507012 24.13989922162341,62.84169824507012 C 23.73538922162345,62.84169824507012 23.5725392216234,62.59939824507023 23.75317922162344,62.2674982450701 C 23.976959221623474,61.85639824507007 23.838679221623465,61.83609824507016 23.266849221623488,62.19949824507012 C 22.256359221623484,62.841598245070145 20.800059221623542,62.43409824507012 20.800059221623542,61.50809824507019 C 20.800059221623542,61.12039824507019 20.950859221623546,60.82849824507025 21.135999221623592,60.86159824507013 C 22.247869221623546,61.060998245070095 23.061119221623585,60.735298245070226 22.772709221623586,60.20539824507023 C 22.54839922162364,59.79339824507019 22.71400922162354,59.716398245070195 23.307869221623605,59.953398245070275 C 24.04328922162358,60.24669824507032 24.06972922162356,60.202998245070376 23.49341922162364,59.6565982450702 C 22.577089221623623,58.78769824507026 22.396819221623673,57.23469824507015 23.21216922162364,57.23469824507015 C 23.57269922162368,57.23469824507015 23.968539221623587,56.94849824507014 24.093029221623624,56.59799824507013 C 24.12412922162366,56.509998245070165 24.15392922162357,56.45949824507011 24.182829221623592,56.44369824507021 L 24.182869221623378,56.44329824507008 M 63.948499221623365,57.23619824507 C 64.19344922162338,57.19819824506999 64.33520922162336,57.327198245069894 64.33520922162336,57.6424982450701 C 64.33520922162336,57.86669824507021 64.09605922162336,58.322498245070165 63.80395922162336,58.65419824507012 C 63.031479221623385,59.53139824507002 63.779059221623356,60.104398245070115 64.77466922162341,59.39839824507021 C 65.49941922162338,58.884398245070315 65.64393922162344,58.9541982450703 65.76489922162341,59.88079824507031 C 65.8956192216234,60.88209824507021 66.58210922162345,61.291298245070266 68.41919922162344,61.46279824507042 C 68.90995922162347,61.508798245070466 69.0622292216234,61.8573982450705 68.90161922162349,62.56629824507036 C 68.69262922162352,63.48859824507031 68.75161922162351,63.527398245070344 69.42895922162347,62.89639824507026 C 69.84799922162347,62.506098245070234 70.32115922162347,62.333598245070334 70.47974922162348,62.51359824507017 C 70.63834922162346,62.69369824507021 70.52444922162351,62.84169824507012 70.22778922162342,62.84169824507012 C 69.82613922162341,62.84169824507012 69.81281922162339,63.10259824507011 70.1730892216234,63.86709824507011 C 70.71174922162345,65.00999824507016 70.16608922162345,65.49099824507016 68.64768922162341,65.21089824507021 C 67.68067922162345,65.0324982450702 66.49045922162338,63.416898245070115 66.84495922162341,62.76549824507015 C 67.12050922162337,62.25939824507009 65.52495922162336,62.16939824507017 65.08714922162346,62.66549824507024 C 64.92473922162344,62.84999824507031 65.01534922162341,63.30889824507017 65.29026922162348,63.68509824507032 C 65.67675922162346,64.21389824507037 65.6083892216235,64.36869824507039 64.98753922162348,64.36869824507039 C 64.54589922162347,64.36869824507039 64.31703922162353,64.5180982450704 64.47776922162348,64.7006982450705 C 64.63849922162342,64.88309824507041 64.41956922162342,65.33539824507056 63.99143922162352,65.70459824507043 C 63.26478922162357,66.33119824507048 63.27266922162357,66.37569824507045 64.11058922162351,66.40769824507038 C 64.90988922162353,66.43769824507035 64.88511922162354,66.52049824507048 63.88597922162353,67.14989824507029 C 63.268869221623504,67.53849824507029 62.76156922162352,68.2181982450702 62.759019221623475,68.65969824507033 C 62.755019221623456,69.35149824507039 60.246399221623506,71.38889824507032 59.294179221623494,71.47409824507031 C 59.114349221623456,71.49009824507039 59.48900922162352,69.86259824507033 60.126209221623526,67.8568982450704 C 60.97915922162349,65.17179824507048 61.2111892216235,63.68549824507045 61.005119221623545,62.22219824507033 C 60.76032922162358,60.48389824507035 60.890619221623524,60.046098245070425 62.04612922162357,58.73389824507035 C 62.84467922162355,57.82719824507035 63.54020922162363,57.29939824507028 63.94847922162353,57.23579824507033 L 63.948499221623365,57.23619824507 M 35.43091922162341,57.98819824506995 C 35.82613922162341,57.82039824507001 35.995869221623366,59.04649824506987 36.48560922162346,63.35149824506993 C 36.756629221623484,65.7338982450699 37.09216922162341,68.54189824506989 37.231699221623444,69.59369824506985 C 37.56388922162341,72.09769824506975 36.71022922162342,71.78159824506974 34.74341922162341,68.6717982450698 C 33.95593922162345,67.42659824506973 33.13761922162337,66.40809824506982 32.92505922162343,66.40809824506982 C 32.21481922162343,66.40809824506982 29.753219221623453,63.75699824506978 29.06958922162346,62.255798245069855 C 28.34089922162343,60.65589824506992 28.613989221623456,59.27809824506994 29.46802922162351,60.247998245069766 C 30.18548922162347,61.062598245069694 30.73214922162356,60.922498245069846 30.581309221623542,59.962798245069735 C 30.50880922162355,59.50139824506982 30.71493922162358,59.017498245069646 31.04028922162354,58.888598245069716 C 31.37707922162349,58.75519824506978 31.570829221623512,58.95959824506963 31.489509221623507,59.36119824506977 C 31.331389221623454,60.14309824506972 31.57010922162351,60.292898245069864 32.973889221623494,60.292898245069864 C 33.73398922162346,60.292898245069864 33.8224992216235,60.15019824506976 33.411389221623494,59.58779824506996 C 33.014059221623484,59.04419824506999 33.051409221623544,58.813998245070024 33.57934922162349,58.58389824507003 C 33.95975922162347,58.418198245070016 34.27061922162352,58.56289824507007 34.27856922162346,58.90809824507005 C 34.286569221623495,59.24969824507002 34.583129221623494,59.09209824507002 34.938729221623475,58.55849824507004 C 35.140609221623436,58.25559824507013 35.299169221623515,58.04409824507002 35.430919221623526,57.98819824506995 L 35.43091922162341,57.98819824506995" id="path4682-4-2" style="fill:#1a1a1a;stroke-width:0.478251"/>
</svg>
