<?xml version="1.0" ?>
<svg xmlns="http://www.w3.org/2000/svg" xmlns:ev="http://www.w3.org/2001/xml-events" xmlns:xlink="http://www.w3.org/1999/xlink" baseProfile="full" height="213" id="katman_2" transform="scale(0.684931506849315 0.684931506849315) translate(-73.0 -106.5)" version="1.1" viewBox="0 0 146 213" width="146">
	<defs/>
	<path d="M 75.41,165.34000000000003 L 83.88,209.51000000000002 C 74.28,213.12000000000003 65.93,212.70000000000002 58.45,209.51000000000002 L 58.45,210.08 L 62.07,167.61 L 75.41999999999999,165.34 L 75.41,165.34000000000003 M 24.750000000000007,90.89000000000003 C 26.210000000000008,96.41000000000003 30.270000000000007,99.80000000000003 35.32000000000001,102.31000000000003 C 31.290000000000006,106.13000000000002 20.540000000000006,109.30000000000003 14.810000000000006,110.04000000000003 C 19.020000000000007,117.46000000000004 25.050000000000004,121.38000000000004 31.060000000000006,121.37000000000003 C 27.070000000000007,126.94000000000004 22.350000000000005,131.16000000000005 13.420000000000005,130.83000000000004 C 15.420000000000005,133.67000000000004 18.560000000000006,135.66000000000005 21.950000000000003,136.23000000000005 C 17.940000000000005,141.75000000000006 10.750000000000004,146.70000000000005 4.8700000000000045,148.69000000000005 C 10.020000000000005,153.84000000000006 18.040000000000006,152.48000000000005 25.210000000000004,151.65000000000006 C 20.040000000000006,156.49000000000007 12.860000000000005,161.73000000000008 3.552713678800501e-15,167.52000000000007 C 7.720000000000003,174.14000000000007 18.910000000000004,174.74000000000007 26.700000000000003,171.20000000000007 C 27.640000000000004,175.23000000000008 34.49,182.24000000000007 34.49,182.24000000000007 C 34.49,182.24000000000007 37.410000000000004,179.58000000000007 42.65,173.65000000000006 C 45.769999999999996,178.91000000000005 50.44,184.32000000000005 50.44,184.32000000000005 C 50.44,184.32000000000005 62.8,181.66000000000005 67.99000000000001,174.05000000000004 C 73.66,180.65000000000003 81.35,185.09000000000003 89.80000000000001,186.76000000000005 C 91.30000000000001,182.36000000000004 92.78999999999999,177.95000000000005 94.28999999999999,173.55000000000004 C 98.53,178.17000000000004 103.19,182.38000000000005 108.21000000000001,186.12000000000003 C 108.08000000000001,182.78000000000003 108.46000000000001,179.42000000000004 109.36000000000001,176.21000000000004 C 115.88,180.49000000000004 123.62,182.82000000000005 131.38,182.85000000000002 C 128.04999999999998,179.04000000000002 125.22,174.78000000000003 123.0,170.20000000000002 C 130.85,172.00000000000003 138.54,167.18 145.2,162.58 C 134.0,162.13000000000002 125.46000000000001,152.63000000000002 118.28,143.86 C 123.66,144.26000000000002 129.14,141.32000000000002 131.85999999999999,136.58 C 126.16999999999999,135.51000000000002 120.95999999999998,132.96 117.73999999999998,128.05 C 122.92999999999998,127.28999999999999 124.10999999999999,124.05 125.91999999999999,121.03999999999999 C 117.19999999999999,123.94999999999999 110.73999999999998,121.33999999999999 105.6,113.6 C 110.22999999999999,114.25 114.31,112.75 116.44999999999999,108.6 C 112.10999999999999,108.47 105.53999999999999,104.33 103.1,100.67 C 109.96000000000001,100.67 116.25999999999999,92.85000000000001 116.25999999999999,92.85000000000001 C 116.25999999999999,92.85000000000001 104.85999999999999,92.84 100.03999999999999,88.4 C 98.58000000000001,87.06 95.41999999999999,84.43 92.62,79.86 C 96.43,80.46 103.69999999999999,76.31 106.38999999999999,73.49 C 101.75999999999999,72.52 90.9,68.69999999999999 88.17999999999998,64.77 C 92.91999999999999,63.84 96.41,62.599999999999994 98.57,58.92999999999999 C 92.77999999999997,55.39 82.48999999999998,49.78 79.91999999999999,43.42 C 84.41,43.61 88.20999999999998,42.86 92.19,40.120000000000005 C 86.75999999999999,37.540000000000006 81.97,33.56 78.39999999999998,28.66 C 81.60999999999999,27.55 84.07999999999998,27.05 86.82,25.01 C 76.99999999999997,20.69 72.53999999999999,8.630000000000003 66.05999999999997,0.0 C 62.18999999999998,8.22 54.77999999999998,20.54 47.21999999999998,25.42 C 51.089999999999975,28.110000000000003 55.85999999999998,29.44 60.53999999999998,29.150000000000002 C 56.84999999999998,33.95 51.979999999999976,37.8 46.50999999999998,40.260000000000005 C 49.059999999999974,42.66 52.269999999999975,44.32000000000001 55.67999999999998,44.980000000000004 C 49.87999999999998,50.870000000000005 46.09999999999998,53.84 37.75999999999998,56.3 C 41.839999999999975,60.55 43.59999999999997,61.489999999999995 50.45999999999997,61.769999999999996 C 46.28999999999997,68.94 41.46999999999997,70.08 33.21999999999998,72.25 C 34.59999999999998,79.29 39.74999999999998,79.53 46.74999999999998,80.37 C 39.60999999999998,86.83 34.75999999999998,89.3 24.77999999999998,90.85000000000001 L 24.750000000000007,90.89000000000003"/>
</svg>
