<?xml version="1.0" ?>
<svg xmlns="http://www.w3.org/2000/svg" xmlns:ev="http://www.w3.org/2001/xml-events" xmlns:xlink="http://www.w3.org/1999/xlink" baseProfile="full" height="688" preserveAspectRatio="xMidYMid meet" transform="scale(0.2976190476190476 0.2976190476190476) translate(-168.0 -344.0)" version="1.1" viewBox="0 0 336 688" width="336" zoomAndPan="magnify">
	<defs/>
	<path d="M 153.29730168138366,685.5519993034518 C 152.0980826813837,684.0988743034518 151.39105168138366,679.7082493034518 151.70745868138368,675.6301243034518 C 152.2113646813837,669.0832493034518 151.8363646813837,668.2394993034518 148.1488646813837,667.6496563034518 C 145.8793326813837,667.2902803034517 141.82464568138369,665.6887183034518 139.1332396813837,664.0988743034518 C 134.57855168138366,661.4074683034518 133.93792668138366,661.4074683034518 129.83245868138368,664.0988743034518 C 125.11370868138368,667.1926243034518 120.00823968138371,666.4035623034517 120.00823968138371,662.5793433034518 C 120.00823968138371,661.0832493034518 117.34808268138369,660.0559063034518 112.59808268138369,659.7121563034518 C 106.18402068138369,659.2473123034517 105.20355168138366,658.6457493034518 105.32464568138369,655.2473123034517 C 105.51605168138366,649.7316873034517 100.19573968138371,650.1144993034518 87.55511468138371,656.5324683034518 C 76.58636468138371,662.1027803034517 67.57855168138366,663.2512183034518 64.44964568138369,659.4738743034518 C 62.976989681383714,657.6965303034517 63.73480168138366,656.2668433034518 67.72698968138371,653.3137183034518 C 70.58245868138368,651.1965303034517 72.92230168138366,647.8996563034518 72.92230168138366,645.9855933034518 C 72.92230168138366,643.9582493034518 74.59417668138366,641.8644993034518 76.91839568138369,640.9816873034517 C 82.18011468138371,638.9777803034517 85.87933268138369,634.5285623034517 83.50433268138369,633.0598123034517 C 80.86761468138371,631.4269993034518 64.66839568138369,633.6144993034518 57.648864681383714,636.5519993034518 C 54.305114681383714,637.9504373034517 50.070739681383714,639.0949683034518 48.238708681383685,639.0949683034518 C 43.414489681383685,639.0949683034518 42.019958681383685,633.8644993034518 46.043395681383686,630.8644993034518 C 47.875426681383686,629.4934063034518 49.06683268138369,627.4465303034517 48.684020681383686,626.3137183034518 C 48.301208681383685,625.1809063034518 47.906676681383686,622.2902803034517 47.809020681383686,619.8879373034517 C 47.664489681383685,616.2551243034518 46.176208681383685,615.0402803034517 38.934020681383686,612.6379373034517 C 29.441832681383687,609.4855933034518 25.531676681383686,605.5285623034517 28.738708681383685,602.3137183034518 C 30.180114681383685,600.8723123034517 31.711364681383685,600.9074683034518 34.594176681383686,602.4504373034517 C 37.250426681383686,603.8762183034518 42.555114681383685,604.1613743034518 51.211364681383714,603.3488743034518 C 59.586364681383714,602.5637183034518 65.19183268138369,602.8371563034518 67.63714568138369,604.1457493034518 C 69.68011468138371,605.2394993034518 73.41058268138369,605.8918433034518 75.93011468138371,605.5910623034517 L 80.51214568138369,605.0480933034518 L 76.23480168138366,600.0871563034518 C 72.46917668138366,595.7238743034518 70.17230168138366,594.9191873034517 57.180114681383714,593.4113743034518 C 35.387145681383686,590.8840303034517 32.027770681383686,589.8332493034518 31.379332681383687,585.3488743034518 C 31.074645681383686,583.2199683034518 31.512145681383686,581.4777803034517 32.355895681383686,581.4777803034517 C 33.195739681383685,581.4777803034517 35.41058268138369,580.3488743034518 37.273864681383685,578.9660623034517 C 40.617614681383685,576.4855933034518 40.617614681383685,576.4230933034518 37.168395681383686,573.7824683034518 C 35.250426681383686,572.3137183034518 31.621520681383686,571.0871563034518 29.098082681383687,571.0559063034518 C 26.578551681383686,571.0246563034518 23.535582681383687,569.8176243034518 22.336364681383685,568.3684063034518 C 20.496520681383686,566.1535623034517 21.012145681383686,565.4387183034518 25.609801681383686,563.8332493034518 C 32.562926681383686,561.4074683034518 32.56683268138369,558.9934063034518 25.617614681383685,557.6027803034517 L 20.168395681383686,556.5090303034517 L 26.926208681383685,552.2473123034517 L 33.680114681383685,547.9816873034517 L 25.398864681383685,548.9816873034517 C 17.535582681383687,549.9309063034518 14.109801681383686,548.0871563034518 19.730895681383686,545.9269993034518 C 24.461364681383685,544.1066873034517 22.484801681383686,542.0910623034517 12.723082681383687,538.7668433034518 C 2.223082681383687,535.1965303034517 -1.9409793186163142,531.7629373034517 0.8402706813836858,528.9777803034517 C 1.9691766813836864,527.8488743034518 5.555114681383685,527.8996563034518 11.269958681383685,529.1301243034518 C 17.211364681383685,530.4035623034517 22.441832681383687,530.4465303034517 27.703551681383686,529.2590303034517 C 34.945739681383685,527.6301243034518 35.750426681383686,527.8332493034518 40.656676681383686,532.5168433034518 C 43.53558268138369,535.2629373034517 49.164489681383714,538.4738743034518 53.16058268138369,539.6496563034518 C 57.945739681383714,541.0559063034518 63.168395681383686,544.6887183034518 68.42230168138366,550.2590303034517 C 76.80902068138369,559.1574683034518 84.41839568138369,563.3137183034518 94.12933268138369,564.2980933034518 C 103.42230168138366,565.2434063034518 102.51605168138366,561.7355933034518 92.53948968138371,558.1457493034518 C 83.55511468138371,554.9113743034518 80.74261468138371,550.9543433034518 86.00042668138366,548.9348123034517 C 90.46917668138366,547.2160623034517 88.90667668138366,545.0363743034518 81.64105168138366,542.8566873034517 C 76.78558268138369,541.4035623034517 74.66448968138371,539.7902803034517 74.66448968138371,537.5519993034518 C 74.66448968138371,535.7824683034518 73.48870868138368,534.3332493034518 72.05120868138368,534.3332493034518 C 70.60980168138366,534.3332493034518 67.86370868138368,532.7629373034517 65.94573968138371,530.8410623034517 C 64.02777068138369,528.9230933034518 61.387145681383686,527.3488743034518 60.07855168138366,527.3488743034518 C 58.76605168138366,527.3488743034518 55.824645681383686,525.8918433034518 53.53558268138369,524.1144993034518 C 51.25042668138366,522.3332493034518 46.238708681383685,519.8879373034517 42.402770681383686,518.6809063034518 C 26.000426681383686,513.5207493034518 23.191832681383687,506.3996563034519 37.559020681383686,506.3996563034519 C 44.824645681383686,506.3996563034519 45.34808268138369,506.10278030345177 44.41058268138369,502.5246563034519 C 41.863708681383685,492.7629373034518 48.406676681383686,486.47387430345185 52.273864681383714,494.9660623034518 C 53.34417668138366,497.32153030345177 56.949645681383686,500.54028030345177 60.28167668138366,502.1262183034518 C 65.94183268138369,504.8137183034518 66.78167668138366,504.8059063034519 73.06683268138369,501.9660623034518 C 86.01605168138366,496.1223123034518 88.46917668138366,489.0324683034518 77.61370868138368,488.8410623034518 C 73.06292668138366,488.75903030345177 70.87933268138369,487.2043433034518 65.62152068138369,480.28637430345185 C 59.059020681383686,471.65356230345185 58.851989681383714,469.73168730345185 64.49261468138371,469.73168730345185 C 68.18792668138366,469.73168730345185 68.36761468138371,469.0246563034518 65.84808268138369,464.3137183034518 C 63.62542668138366,460.15356230345185 65.25433268138369,454.0168433034518 68.58245868138368,454.0168433034518 C 69.90667668138366,454.0168433034518 72.01214568138369,456.0832493034518 73.26214568138369,458.6105933034518 C 74.82855168138366,461.7707493034518 78.60980168138366,464.35668730345185 85.38714568138369,466.90356230345185 C 90.80511468138371,468.9387183034518 97.86370868138368,472.7980933034518 101.07464568138369,475.48168730345185 C 108.30902068138369,481.5246563034519 115.94573968138371,481.4855933034518 115.10198968138371,475.4074683034518 C 114.71136468138371,472.5832493034518 115.44573968138371,471.4699683034518 117.71917668138366,471.45043730345185 C 119.45745868138368,471.43481230345185 122.02777068138369,470.70043730345185 123.42620868138368,469.8137183034518 C 125.62542668138366,468.41918730345185 125.56292668138366,467.74731230345185 122.99261468138371,464.8996563034518 C 121.35198968138371,463.0832493034518 119.99652068138369,460.8762183034518 119.97698968138371,459.9934063034518 C 119.96136468138371,459.10668730345185 117.96917668138366,456.5012183034518 115.55120868138368,454.2043433034518 C 111.90277068138369,450.7394993034518 110.46527068138369,450.34106230345185 107.13714568138369,451.8605933034518 C 101.57464568138369,454.3957493034518 98.61370868138368,452.1301243034518 100.03948968138371,446.4309063034518 C 101.03558268138369,442.46606230345185 100.64886468138371,441.79418730345185 97.36370868138368,441.79418730345185 C 94.98870868138368,441.79418730345185 93.17230168138366,440.4621563034518 92.60980168138366,438.3019993034518 C 91.97308268138369,435.8644993034518 90.23089568138369,434.8137183034518 86.83245868138368,434.8137183034518 C 82.92230168138366,434.8137183034518 82.13714568138369,434.1652803034518 82.82855168138366,431.5168433034518 C 84.00042668138366,427.02856230345185 80.49261468138371,425.2355933034518 77.12542668138366,428.60668730345185 C 73.77777068138369,431.9582493034518 71.17620868138368,430.6574683034518 71.17620868138368,425.6301243034518 C 71.17620868138368,422.7238743034518 70.71136468138371,422.35668730345185 69.08245868138368,423.9855933034518 C 66.28948968138371,426.7863743034518 60.711364681383714,426.6613743034518 60.711364681383714,423.7980933034518 C 60.711364681383714,422.5402803034518 61.863708681383685,419.9855933034518 63.273864681383714,418.12231230345185 C 66.84027068138369,413.40356230345185 66.56292668138366,411.46606230345185 62.03167668138366,409.4738743034518 C 59.87933268138369,408.5246563034518 57.836364681383714,406.1769993034518 57.492614681383714,404.2590303034518 C 57.144958681383685,402.3371563034518 55.66058268138369,399.4074683034518 54.19183268138369,397.74731230345185 C 51.894958681383685,395.15356230345185 51.832458681383685,393.6027803034518 53.746520681383686,386.7707493034518 C 55.793395681383686,379.4387183034518 55.68792668138366,378.5090303034518 52.367614681383714,374.9465303034518 C 47.965270681383686,370.2277803034518 45.75433268138369,362.30981230345185 48.37933268138369,360.68481230345185 C 51.50042668138366,358.7551243034518 68.51214568138369,373.5363743034518 76.41058268138369,385.0363743034518 C 78.80902068138369,388.52856230345185 84.08636468138371,394.59106230345185 88.14105168138366,398.5051243034518 C 92.19573968138371,402.4230933034518 95.95355168138366,407.01293730345185 96.49261468138371,408.7082493034518 C 97.02777068138369,410.3996563034518 100.53948968138371,413.0207493034518 104.29730168138366,414.5246563034518 C 110.60198968138371,417.0519993034518 111.89886468138371,417.0168433034518 121.23480168138366,414.0793433034518 C 126.79339568138369,412.3293433034518 136.25042668138366,409.8293433034518 142.2426146813837,408.52856230345185 C 153.61370868138368,406.0559063034518 155.60980168138366,404.40356230345185 149.55902068138369,402.48168730345185 C 145.2738646813837,401.1184063034518 145.9730826813837,397.49731230345185 150.67230168138366,396.7199683034518 C 152.51214568138369,396.4113743034518 156.5668326813837,395.0012183034518 159.68402068138369,393.5793433034518 C 166.79730168138366,390.34106230345185 167.6176146813837,384.1769993034518 160.93792668138366,384.1769993034518 C 158.5082396813837,384.1769993034518 156.11370868138368,383.1105933034518 155.61370868138368,381.80981230345185 C 154.85980168138366,379.8449683034518 153.3832396813837,379.9152803034518 147.0043326813837,382.2121563034518 C 140.73089568138369,384.4699683034518 138.88714568138369,384.5676243034518 137.0668326813837,382.7434063034518 C 135.25042668138366,380.9152803034518 135.64495868138368,379.87231230345185 139.1918326813837,377.13793730345185 L 143.55120868138368,373.77856230345185 L 137.34417668138366,373.7394993034518 C 130.03167668138366,373.6965303034518 124.25823968138371,370.0519993034518 125.66839568138369,366.37231230345185 C 126.23870868138368,364.8840303034518 130.84027068138369,362.93481230345185 136.40277068138369,361.8137183034518 C 146.51995868138368,359.7824683034518 156.6293326813837,353.7746563034518 156.6293326813837,349.8019993034518 C 156.6293326813837,346.91918730345185 155.14495868138368,346.9894993034518 149.65667668138366,350.1301243034518 C 144.59417668138366,353.02856230345185 134.6605826813837,353.5480933034518 133.0863646813837,351.0012183034518 C 132.4926146813837,350.0402803034518 133.93792668138366,348.5168433034518 136.30120868138368,347.6184063034518 C 143.00042668138366,345.0676243034518 143.7894896813837,342.13793730345185 137.43402068138369,343.4113743034518 C 132.88714568138369,344.3215303034518 131.85589568138369,343.8957493034518 131.0394896813837,340.7668433034518 C 129.8676146813837,336.2863743034518 129.15667668138366,336.2199683034518 121.81683268138369,339.8840303034518 C 114.69183268138369,343.4426243034518 104.31292668138366,345.87231230345185 104.31292668138366,343.9777803034518 C 104.31292668138366,343.1965303034518 107.25433268138369,340.7277803034518 110.85198968138371,338.4894993034518 L 117.39105168138366,334.41918730345185 L 107.50042668138366,333.5363743034518 C 94.66839568138369,332.38793730345185 93.26995868138368,330.68481230345185 102.25823968138371,327.1496563034518 C 106.26605168138366,325.57543730345185 109.54339568138369,323.7199683034518 109.54339568138369,323.0246563034518 C 109.54339568138369,322.3332493034518 106.49261468138371,321.27856230345185 102.75823968138371,320.6809063034518 C 95.81683268138369,319.5715303034518 91.77386468138371,314.87231230345185 96.49261468138371,313.3996563034518 L 101.69573968138371,311.7746563034518 C 103.26605168138366,311.2824683034518 104.31292668138366,308.84106230345185 104.31292668138366,305.6730933034518 C 104.31292668138366,300.6105933034518 104.57855168138366,300.4269993034518 110.66839568138369,301.2082493034518 C 114.16448968138371,301.65356230345185 122.25433268138369,305.18481230345185 128.6488646813837,309.0519993034518 C 140.01605168138366,315.9309063034518 149.92620868138368,318.1340303034518 152.2855826813837,314.3176243034518 C 152.88714568138369,313.3449683034518 152.13714568138369,310.0559063034518 150.6176146813837,307.0090303034518 C 146.9613646813837,299.66918730345185 149.1176146813837,298.02856230345185 158.95745868138368,300.6613743034518 C 169.34027068138369,303.4426243034518 172.5863646813837,301.1457493034518 167.7269896813837,294.4582493034518 C 164.9144896813837,290.5871563034518 163.33245868138368,290.0402803034518 155.8793326813837,290.3801243034518 C 148.01605168138366,290.7355933034518 147.18402068138369,290.3918433034518 146.2113646813837,286.41918730345185 C 145.17230168138366,282.1809063034518 142.5551146813837,280.7551243034518 131.78167668138366,278.57543730345185 C 126.01995868138368,277.4113743034518 125.80511468138371,275.5012183034518 130.6644896813837,268.6730933034518 C 134.23480168138366,263.65356230345185 134.24652068138369,263.4269993034518 131.1019896813837,261.12231230345185 C 127.96917668138366,258.8293433034518 127.99261468138371,258.6027803034518 131.78167668138366,254.5637183034518 C 136.5980826813837,249.4309063034518 136.84027068138369,247.2590303034518 132.33245868138368,249.6730933034518 C 127.11370868138368,252.4699683034518 123.42620868138368,251.95043730345182 124.71136468138371,248.6027803034518 C 125.60589568138369,246.27074930345177 125.01214568138369,245.9230933034518 121.60198968138371,246.7746563034518 C 118.51995868138368,247.54418730345182 116.29339568138369,246.6809063034518 113.29339568138369,243.5480933034518 C 111.03558268138369,241.1965303034518 108.55511468138371,239.6652803034518 107.78167668138366,240.14574930345177 C 104.84808268138369,241.9621563034518 100.54730168138366,238.77074930345177 101.41839568138369,235.42699930345177 C 102.03167668138366,233.08324930345177 101.02777068138369,231.49731230345182 98.07073968138371,230.1496563034518 C 94.02777068138369,228.30199930345177 92.04339568138369,221.7980933034518 95.52777068138369,221.7980933034518 C 96.44964568138369,221.7980933034518 101.35589568138369,223.3254373034518 106.42620868138368,225.1887183034518 C 111.50042668138366,227.05199930345177 118.78948968138371,229.0949683034518 122.62542668138366,229.7277803034518 C 129.43792668138366,230.84887430345177 129.2738646813837,230.6574683034518 115.64886468138371,221.4465303034518 L 101.69573968138371,212.0168433034518 L 101.61370868138368,203.8019993034518 L 101.53167668138366,195.5832493034518 L 107.71917668138366,196.6340303034518 C 111.12152068138369,197.2121563034518 119.78948968138371,200.4855933034518 126.98480168138366,203.9152803034518 C 141.28167668138366,210.7238743034518 149.75042668138366,211.6144993034518 155.00042668138366,206.8566873034518 C 158.62542668138366,203.5754373034518 159.5980826813837,197.3566873034518 156.48870868138368,197.3566873034518 C 155.44964568138369,197.3566873034518 154.92620868138368,196.3723123034518 155.33245868138368,195.1730933034518 C 155.73480168138366,193.9738743034518 153.8363646813837,192.0480933034518 151.1176146813837,190.8918433034518 C 144.14105168138366,187.9348123034518 144.9730826813837,185.1340303034518 152.82855168138366,185.1340303034518 C 157.76214568138369,185.1340303034518 160.4769896813837,184.0012183034518 163.28167668138366,180.7668433034518 C 165.3676146813837,178.3684063034518 168.3207396813837,176.4035623034518 169.8480826813837,176.4035623034518 C 171.37152068138369,176.4035623034518 172.28167668138366,175.4230933034518 171.87152068138369,174.2199683034518 C 171.4105826813837,172.8723123034518 168.7543326813837,172.2512183034518 164.92620868138368,172.5910623034518 C 161.51605168138366,172.8957493034518 158.18402068138369,172.2707493034518 157.5238646813837,171.1965303034518 C 156.75042668138366,169.9426243034518 153.5863646813837,169.6613743034518 148.6293326813837,170.4074683034518 C 141.35589568138369,171.4973123034518 138.18792668138366,169.5793433034518 142.6801146813837,166.8019993034518 C 146.0355826813837,164.7238743034518 144.5355826813837,162.2551243034518 141.05120868138368,164.1184063034518 C 135.80120868138368,166.9309063034518 133.5980826813837,166.3332493034518 134.83245868138368,162.4348123034518 C 135.55902068138369,160.1496563034518 135.14495868138368,158.9426243034518 133.64105168138366,158.9426243034518 C 130.43402068138369,158.9426243034518 121.34027068138369,147.1848123034518 123.50823968138371,145.8410623034518 C 124.46527068138369,145.2473123034518 128.58245868138368,145.2551243034518 132.65667668138366,145.8527803034518 C 136.73089568138369,146.4543433034518 143.5980826813837,147.2355933034518 147.9144896813837,147.5910623034518 C 152.23089568138369,147.9465303034518 158.12542668138366,148.7473123034518 161.01995868138368,149.3644993034518 C 167.83245868138368,150.8215303034518 177.17620868138368,144.3527803034518 173.92620868138368,140.4309063034518 C 172.81292668138366,139.0910623034518 170.8207396813837,137.9894993034518 169.50042668138366,137.9894993034518 C 166.23870868138368,137.9894993034518 166.48089568138369,136.2551243034518 170.1488646813837,133.2902803034518 C 172.96527068138369,131.0168433034518 172.8988646813837,130.8996563034518 169.27777068138369,131.7902803034518 C 167.1176146813837,132.3176243034518 163.71527068138369,133.2199683034518 161.71527068138369,133.7902803034518 C 158.54339568138369,134.6965303034518 158.31292668138366,134.3879373034518 159.9105826813837,131.4035623034518 C 162.17620868138368,127.1652803034518 160.9105826813837,125.7707493034518 154.81292668138366,125.7707493034518 C 152.2113646813837,125.7707493034518 149.14495868138368,124.63793730345179 148.00042668138366,123.2551243034518 C 146.85589568138369,121.87231230345179 144.20745868138368,120.4582493034518 142.1176146813837,120.1144993034518 C 138.92230168138366,119.58715630345179 139.39105168138366,119.0207493034518 145.07464568138369,116.5168433034518 C 148.7894896813837,114.8840303034518 154.03167668138366,113.5480933034518 156.7269896813837,113.5480933034518 C 160.23089568138369,113.5480933034518 161.9730826813837,112.46215630345179 162.83245868138368,109.7512183034518 C 164.1957396813837,105.4543433034518 159.68792668138366,100.93090630345179 155.60589568138369,102.49731230345179 C 154.2269896813837,103.02856230345179 152.67620868138368,102.0363743034518 152.0238646813837,100.1965303034518 C 151.39105168138366,98.4152803034518 149.6918326813837,95.5832493034518 148.25042668138366,93.90356230345179 C 146.80902068138369,92.2238743034518 146.34027068138369,90.8293433034518 147.20745868138368,90.80981230345179 C 148.07464568138369,90.7902803034518 150.73089568138369,89.27465630345179 153.10980168138366,87.4465303034518 C 156.71917668138366,84.66918730345179 156.89495868138368,84.16918730345179 154.16839568138369,84.4269993034518 C 152.37152068138369,84.5988743034518 150.57464568138369,83.7980933034518 150.16839568138369,82.65356230345179 C 149.30902068138369,80.2238743034518 162.51214568138369,76.18481230345179 167.2543326813837,77.4269993034518 C 169.00042668138366,77.8840303034518 171.75042668138366,76.7394993034518 173.46917668138366,74.83715630345179 C 176.09417668138366,71.93481230345179 176.1801146813837,71.20043730345179 174.0355826813837,69.8762183034518 C 172.15667668138366,68.71215630345179 171.4613646813837,64.0168433034518 171.2738646813837,51.2121563034518 C 170.85980168138366,23.0910623034518 171.12542668138366,24.5012183034518 166.2269896813837,24.5012183034518 C 160.91839568138369,24.5012183034518 160.3793326813837,20.1809063034518 165.3519896813837,17.5168433034518 C 167.6019896813837,16.3098123034518 168.84027068138369,13.8605933034518 168.84027068138369,10.614499303451801 C 168.84027068138369,-2.3347196965481984 174.84027068138369,-3.932375696548199 176.49652068138369,8.5754373034518 C 177.51605168138366,16.2824683034518 178.12152068138369,17.1926243034518 182.82464568138369,18.1340303034518 C 187.96917668138366,19.1652803034518 189.81292668138366,23.1887183034518 186.17230168138366,25.4387183034518 C 183.05902068138369,27.3684063034518 181.07855168138366,34.6926243034518 182.18402068138369,40.2160623034518 C 183.05120868138368,44.5637183034518 184.0707396813837,45.4543433034518 188.20355168138366,45.4543433034518 C 193.5043326813837,45.4543433034518 199.79339568138369,52.4035623034518 197.64495868138368,55.8879373034518 C 197.01214568138369,56.9074683034518 197.3988646813837,60.4777803034518 198.50042668138366,63.8215303034518 C 199.93402068138369,68.1730933034518 201.82464568138369,70.21215630345179 205.1644896813837,71.0051243034518 C 207.7269896813837,71.6144993034518 211.00042668138366,73.1105933034518 212.4418326813837,74.3332493034518 C 213.8793326813837,75.55590630345179 218.30120868138368,77.41918730345179 222.26605168138366,78.4777803034518 C 231.0980826813837,80.8293433034518 235.1019896813837,84.7512183034518 230.03167668138366,86.0793433034518 C 227.6293326813837,86.7043433034518 226.88714568138369,88.0051243034518 227.52777068138369,90.4582493034518 C 228.92230168138366,95.7863743034518 224.89495868138368,96.9230933034518 219.30120868138368,92.7824683034518 C 215.74652068138369,90.15356230345179 214.57464568138369,89.83715630345179 215.29339568138369,91.7043433034518 C 215.93402068138369,93.3801243034518 215.28167668138366,94.34106230345179 213.50042668138366,94.34106230345179 C 210.59027068138369,94.34106230345179 210.19964568138369,97.43090630345179 212.20355168138366,104.5949683034518 C 213.0082396813837,107.4582493034518 215.76995868138368,109.62231230345179 221.18792668138366,111.61840630345179 C 228.6019896813837,114.3488743034518 229.0355826813837,114.8840303034518 229.54339568138369,121.8801243034518 C 230.12152068138369,129.8059063034518 229.17230168138366,130.5949683034518 223.8793326813837,126.58715630345179 C 219.62542668138366,123.3644993034518 214.18792668138366,122.9777803034518 217.32464568138369,126.11840630345179 C 220.57464568138369,129.3723123034518 219.8168326813837,131.0090303034518 215.05902068138369,131.0090303034518 C 209.88714568138369,131.0090303034518 209.6957396813837,132.3801243034518 213.75042668138366,140.3762183034518 L 216.80120868138368,146.3957493034518 L 235.21917668138366,145.4426243034518 C 247.57464568138369,144.8019993034518 255.7855826813837,145.1965303034518 260.1605826813837,146.6418433034518 C 266.7152706813837,148.8059063034518 268.12542668138366,153.2746563034518 261.9574586813837,152.3215303034518 C 260.14105168138366,152.0441873034518 257.4808956813837,151.6496563034518 256.0394896813837,151.4504373034518 C 254.48870868138368,151.2355933034518 253.1918326813837,152.7355933034518 252.8519896813837,155.1496563034518 C 252.41839568138369,158.1926243034518 251.54730168138366,158.8957493034518 249.36370868138368,157.9582493034518 C 247.7582396813837,157.2668433034518 244.35589568138369,156.3410623034518 241.79730168138366,155.8996563034518 C 237.95745868138368,155.2355933034518 237.04339568138369,155.8137183034518 236.5668326813837,159.2043433034518 C 236.01605168138366,163.0910623034518 235.3832396813837,163.2824683034518 224.6488646813837,162.8293433034518 C 211.85589568138369,162.2863743034518 209.24652068138369,163.3684063034518 208.55902068138369,169.4973123034518 C 208.08245868138368,173.7629373034518 208.16839568138369,173.7902803034518 227.26605168138366,174.8332493034518 C 237.8168326813837,175.4074683034518 248.8051146813837,176.8957493034518 251.6801146813837,178.1418433034518 C 254.55902068138369,179.3879373034518 261.4027706813837,181.2746563034518 266.8871456813837,182.3332493034518 C 279.71917668138366,184.8137183034518 279.18792668138366,187.9074683034518 266.0433956813837,187.2434063034518 C 258.26605168138366,186.8527803034518 255.7543326813837,187.3449683034518 254.95355168138366,189.4269993034518 C 253.7426146813837,192.5871563034518 247.15667668138366,192.9973123034518 244.2543326813837,190.0949683034518 C 242.7269896813837,188.5637183034518 241.5863646813837,188.6144993034518 239.55902068138369,190.3019993034518 C 238.08245868138368,191.5246563034518 234.9730826813837,192.1652803034518 232.64105168138366,191.7160623034518 C 229.5668326813837,191.1301243034518 228.17230168138366,191.7902803034518 227.56292668138366,194.1301243034518 C 227.08245868138368,195.9699683034518 225.15277068138369,197.3566873034518 223.0707396813837,197.3566873034518 C 220.57855168138366,197.3566873034518 219.41839568138369,198.4660623034518 219.41839568138369,200.8488743034518 C 219.41839568138369,202.7863743034518 218.2543326813837,204.3410623034518 216.80120868138368,204.3410623034518 C 212.7543326813837,204.3410623034518 213.71527068138369,209.0480933034518 217.98870868138368,210.1652803034518 C 220.3363646813837,210.7824683034518 225.8168326813837,209.1965303034518 232.30902068138369,206.0246563034518 C 239.4301146813837,202.5480933034518 243.3988646813837,201.4621563034518 244.5980826813837,202.6613743034518 C 247.01605168138366,205.0832493034518 243.9926146813837,209.5988743034518 237.57464568138369,213.1457493034518 C 234.78167668138366,214.6887183034518 232.24652068138369,217.6535623034518 231.9418326813837,219.7316873034518 C 231.32464568138369,223.92699930345177 225.44964568138369,228.7824683034518 220.98870868138368,228.7824683034518 C 216.5980826813837,228.7824683034518 214.37152068138369,232.57543730345182 216.09027068138369,237.11449930345177 C 218.17620868138368,242.63012430345177 222.4301146813837,243.78637430345177 228.1644896813837,240.39574930345177 C 234.51995868138368,236.63793730345182 237.6918326813837,236.7590303034518 246.6918326813837,241.12231230345182 C 250.7894896813837,243.1105933034518 258.68792668138366,245.12231230345182 264.2465206813837,245.59887430345177 C 269.8051146813837,246.07543730345182 276.1176146813837,246.8215303034518 278.2777706813837,247.2590303034518 C 282.90667668138366,248.20043730345182 283.6019896813837,253.2277803034518 279.1019896813837,253.2277803034518 C 277.3949586813837,253.2277803034518 274.4144896813837,254.34106230345182 272.4769896813837,255.6965303034518 C 270.29730168138366,257.2277803034518 263.15667668138366,258.3918433034518 253.69964568138369,258.7551243034518 C 240.18402068138369,259.2707493034518 238.53167668138366,259.6887183034518 239.23089568138369,262.3957493034518 C 239.8480826813837,264.7863743034518 238.9144896813837,265.45043730345185 234.94964568138369,265.45043730345185 C 230.8480826813837,265.45043730345185 229.88714568138369,266.20043730345185 229.90667668138366,269.3801243034518 C 229.92230168138366,271.5402803034518 230.51214568138369,274.1613743034518 231.21527068138369,275.2043433034518 C 231.92230168138366,276.24731230345185 240.34417668138366,278.0559063034518 249.93792668138366,279.2238743034518 C 291.4652706813837,284.2824683034518 294.9144896813837,285.0988743034518 294.0433956813837,289.6340303034518 C 293.2113646813837,293.9621563034518 285.5980826813837,297.0363743034518 278.5121456813837,295.9113743034518 C 272.7465206813837,294.9894993034518 271.7426146813837,295.49731230345185 266.6957396813837,301.87231230345185 C 262.54730168138366,307.1184063034518 261.73480168138366,309.1965303034518 263.4105826813837,310.27856230345185 C 264.6332396813837,311.0715303034518 276.2269896813837,311.7199683034518 289.1762086813837,311.7199683034518 C 308.47698968138366,311.7199683034518 312.7191766813837,312.1730933034518 312.7191766813837,314.2277803034518 C 312.7191766813837,315.60668730345185 310.1098016813837,317.4113743034518 306.9223016813837,318.2394993034518 C 303.20355168138366,319.2043433034518 300.07855168138366,321.62231230345185 298.20355168138366,324.9894993034518 C 296.4418326813837,328.15356230345185 293.37542668138366,330.6340303034518 290.48480168138366,331.2355933034518 C 287.3871456813837,331.8801243034518 285.68792668138366,333.3527803034518 285.68792668138366,335.3918433034518 C 285.68792668138366,339.6965303034518 280.5980826813837,340.9699683034518 271.54730168138366,338.93481230345185 C 262.3558956813837,336.8684063034518 261.17230168138366,337.6769993034518 266.3402706813837,342.49731230345185 C 269.17230168138366,345.13793730345185 269.75042668138366,346.7082493034518 268.3949586813837,348.0637183034518 C 267.0394896813837,349.4230933034518 264.2777706813837,348.87231230345185 258.60980168138366,346.1144993034518 C 249.01214568138369,341.4465303034518 249.17620868138368,341.4543433034518 250.3051146813837,345.7668433034518 C 250.95745868138368,348.2707493034518 250.35589568138369,349.2590303034518 248.1801146813837,349.2590303034518 C 245.6918326813837,349.2590303034518 245.3363646813837,350.2902803034518 246.2230826813837,354.93481230345185 C 247.64105168138366,362.3762183034518 258.7582396813837,372.34106230345185 264.5238646813837,371.3371563034518 C 269.75042668138366,370.4269993034518 287.09417668138366,374.3996563034518 289.7699586813837,377.1184063034518 C 292.59417668138366,379.9894993034518 286.0707396813837,384.6496563034518 281.0082396813837,383.3801243034518 C 277.8637086813837,382.59106230345185 277.1058956813837,383.26293730345185 276.6488646813837,387.23168730345185 C 276.0824586813837,392.1730933034518 274.0394896813837,392.8176243034518 267.37542668138366,390.1574683034518 C 264.3051146813837,388.9309063034518 264.1683956813837,389.10668730345185 266.21917668138366,391.6340303034518 C 268.7699586813837,394.7746563034518 267.6215206813837,398.1457493034518 264.00042668138366,398.1457493034518 C 262.73480168138366,398.1457493034518 260.73480168138366,396.9855933034518 259.5590206813837,395.5637183034518 C 257.6957396813837,393.3176243034518 257.03167668138366,393.4543433034518 254.4769896813837,396.6105933034518 C 251.68402068138369,400.0676243034518 251.2230826813837,400.1144993034518 245.0707396813837,397.5402803034518 C 239.3207396813837,395.1340303034518 235.83245868138368,396.2277803034518 240.34417668138366,399.0207493034518 C 241.3051146813837,399.6144993034518 242.09027068138369,401.29418730345185 242.09027068138369,402.7512183034518 C 242.09027068138369,404.7551243034518 240.48870868138368,405.26293730345185 235.55120868138368,404.8332493034518 C 229.99652068138369,404.3449683034518 228.9301146813837,404.8176243034518 228.48089568138369,407.9582493034518 C 228.1332396813837,410.3957493034518 229.07855168138366,411.9543433034518 231.23870868138368,412.5207493034518 C 235.42230168138366,413.6144993034518 266.1371456813837,404.8527803034518 272.3168326813837,400.7980933034518 C 276.0863646813837,398.32543730345185 278.2582396813837,398.0519993034518 283.5238646813837,399.3957493034518 C 290.06292668138366,401.0676243034518 310.1058956813837,414.7980933034518 310.1058956813837,417.60668730345185 C 310.1058956813837,420.2902803034518 301.3402706813837,419.1769993034518 292.50042668138366,415.3684063034518 C 282.92230168138366,411.2434063034518 279.37542668138366,411.9269993034518 286.4105826813837,416.5402803034518 C 295.5668326813837,422.5480933034518 288.6996456813837,427.2277803034518 277.9301146813837,422.3137183034518 C 274.2894896813837,420.65356230345185 272.92230168138366,420.80981230345185 270.29730168138366,423.1887183034518 C 266.3676146813837,426.74731230345185 264.01605168138366,426.8215303034518 259.0043326813837,423.5324683034518 C 255.39105168138366,421.1613743034518 254.55120868138368,421.4269993034518 247.29339568138369,427.21606230345185 C 239.75042668138366,433.2355933034518 239.16839568138369,434.34106230345185 240.57464568138369,440.0519993034518 C 241.23870868138368,442.76293730345185 239.08245868138368,442.9582493034518 232.06292668138366,440.8332493034518 C 228.9457396813837,439.88793730345185 228.13714568138369,440.3332493034518 228.13714568138369,442.9894993034518 C 228.13714568138369,444.8332493034518 227.26214568138369,447.2121563034518 226.1957396813837,448.27856230345185 C 223.0668326813837,451.4113743034518 225.59027068138369,453.2863743034518 236.1176146813837,455.6418433034518 C 245.4105826813837,457.7238743034518 246.30902068138369,457.6262183034518 251.18792668138366,454.01293730345185 C 254.10589568138369,451.85668730345185 259.5551146813837,449.9582493034518 263.6215206813837,449.6809063034518 C 267.6058956813837,449.4113743034518 274.0043326813837,448.63793730345185 277.8402706813837,447.9621563034518 C 283.09417668138366,447.0402803034518 286.8949586813837,447.6340303034518 293.2465206813837,450.3762183034518 C 305.0590206813837,455.48168730345185 303.2230826813837,458.5090303034518 288.6762086813837,457.91918730345185 C 278.62542668138366,457.51293730345185 276.8832396813837,457.91918730345185 274.5824586813837,461.2082493034518 C 272.82855168138366,463.7082493034518 270.7777706813837,464.65356230345185 268.42230168138366,464.0363743034518 C 266.4301146813837,463.51293730345185 263.9574586813837,464.23168730345185 262.7582396813837,465.6809063034518 C 261.29730168138366,467.4426243034518 258.8676146813837,467.9230933034518 255.04730168138366,467.2082493034518 C 250.9613646813837,466.4387183034518 249.1957396813837,466.87231230345185 248.44964568138369,468.8176243034518 C 247.89105168138366,470.2824683034518 246.3207396813837,471.4777803034518 244.9613646813837,471.4777803034518 C 243.60589568138369,471.4777803034518 242.0863646813837,473.0519993034518 241.58245868138368,474.9699683034518 C 240.82855168138366,477.8644993034518 241.53167668138366,478.4621563034518 245.67620868138368,478.4621563034518 C 248.42620868138368,478.4621563034518 254.6605826813837,480.03637430345185 259.5277706813837,481.9543433034518 C 270.4769896813837,486.2746563034519 273.7308956813837,486.2980933034518 286.7074586813837,482.14574930345185 C 292.3832396813837,480.33324930345185 299.96917668138366,478.3332493034518 303.56292668138366,477.7043433034518 C 309.25823968138366,476.7082493034518 310.1058956813837,476.99731230345185 310.1058956813837,479.9309063034519 C 310.1058956813837,483.91528030345177 303.1605826813837,488.91528030345177 297.5238646813837,488.9934063034519 C 293.64105168138366,489.0480933034518 293.62542668138366,489.1184063034519 296.92230168138366,491.61449930345185 C 298.7855826813837,493.0246563034519 303.9965206813837,494.17699930345185 308.50823968138366,494.17699930345185 C 314.55511468138366,494.17699930345185 317.0004266813837,494.94262430345185 317.8246456813837,497.0871563034519 C 319.2816766813837,500.8918433034518 316.44183268138363,503.58324930345185 310.50823968138366,504.02074930345185 C 303.8207396813837,504.5129373034518 303.4340206813837,504.8410623034518 308.0277706813837,506.1379373034518 C 312.5473016813837,507.41137430345185 313.80120868138374,510.5910623034518 309.9808956813837,511.0910623034518 C 294.2308956813837,513.1457493034518 291.2426146813837,514.0285623034517 286.76605168138366,517.9465303034517 L 281.7387086813837,522.3449683034518 L 287.20355168138366,527.9855933034518 C 294.1332396813837,535.1457493034518 294.0902706813837,537.4504373034517 286.9965206813837,538.2316873034517 L 281.32855168138366,538.8566873034517 L 286.3949586813837,540.3449683034518 C 289.7387086813837,541.3293433034518 292.40667668138366,541.1340303034517 294.2426146813837,539.7785623034517 C 295.7738646813837,538.6496563034518 299.3480826813837,536.3762183034518 302.18792668138366,534.7199683034518 C 305.0277706813837,533.0676243034518 311.4027706813837,527.5910623034517 316.35198968138366,522.5480933034518 C 321.30120868138374,517.5090303034517 326.6527706813837,513.3840303034517 328.2465206813837,513.3840303034517 C 332.47698968138366,513.3840303034517 333.50433268138363,517.8684063034518 330.31683268138363,522.4230933034518 C 326.6527706813837,527.6574683034518 326.82073968138366,529.0988743034518 331.08636468138366,529.0988743034518 C 336.4965206813837,529.0988743034518 337.0121456813837,533.4309063034518 332.6683956813837,542.4152803034517 C 330.0277706813837,547.8762183034518 327.08245868138374,551.1887183034518 323.7308956813837,552.4543433034518 C 319.01995868138374,554.2316873034517 318.7973016813837,554.7746563034518 319.8441766813837,561.7785623034517 C 321.00823968138366,569.5402803034517 321.22308268138363,569.2551243034518 312.0160516813837,572.0910623034517 C 310.0785516813837,572.6887183034518 310.2152706813837,573.3176243034518 312.6683956813837,575.1105933034518 C 314.71136468138366,576.6066873034517 315.3871456813837,578.5754373034517 314.64886468138366,580.8957493034518 C 313.55120868138374,584.3644993034518 312.1098016813837,585.3059063034518 299.20355168138366,590.9855933034518 C 295.07855168138366,592.8019993034518 292.6644896813837,595.0441873034517 292.6644896813837,597.0598123034517 C 292.6644896813837,601.9191873034517 288.6058956813837,604.3215303034517 282.4769896813837,603.0949683034518 C 278.1332396813837,602.2277803034517 276.7777706813837,602.6691873034517 275.8168326813837,605.2707493034518 C 273.8168326813837,610.6848123034517 271.4496456813837,611.3215303034517 257.5551146813837,610.1809063034518 C 248.68402068138369,609.4504373034517 243.8480826813837,609.7238743034518 243.06292668138366,610.9973123034517 C 242.4144896813837,612.0480933034518 240.01605168138366,612.9074683034518 237.73089568138369,612.9074683034518 C 233.14495868138368,612.9074683034518 232.59027068138369,613.4894993034518 231.04730168138366,619.9894993034518 C 230.01214568138369,624.3332493034518 230.33245868138368,624.5129373034517 242.98480168138366,626.7629373034517 C 255.8363646813837,629.0519993034518 256.0238646813837,629.0285623034517 259.31292668138366,624.9621563034518 C 262.4027706813837,621.1418433034518 262.9808956813837,621.0246563034518 267.3207396813837,623.3527803034517 C 271.4457396813837,625.5637183034518 273.2699586813837,625.5012183034518 282.76605168138366,622.8176243034518 C 303.65667668138366,616.9230933034518 305.82073968138366,616.4816873034517 314.0277706813837,616.4387183034518 C 323.28558268138363,616.3918433034518 324.55120868138374,618.5715303034517 318.8441766813837,624.7082493034518 C 316.76995868138374,626.9309063034518 316.0785516813837,628.8723123034517 317.1254266813837,629.5207493034518 C 320.8558956813837,631.8293433034518 316.7816766813837,633.3957493034518 309.2621456813837,632.5480933034518 C 304.0433956813837,631.9582493034518 301.3871456813837,632.3254373034517 301.3871456813837,633.6301243034518 C 301.3871456813837,634.7160623034517 303.00042668138366,635.6027803034517 304.97698968138366,635.6027803034517 C 306.9496456813837,635.6027803034517 308.08245868138374,636.3918433034518 307.48870868138374,637.3488743034518 C 306.89495868138374,638.3098123034517 304.6019896813837,639.0949683034518 302.39105168138366,639.0949683034518 C 300.1762086813837,639.0949683034518 296.40667668138366,640.6418433034518 294.0082396813837,642.5324683034518 C 291.60980168138366,644.4191873034517 287.7738646813837,645.8801243034518 285.4887086813837,645.7746563034518 C 276.5551146813837,645.3684063034518 273.85980168138366,646.1809063034518 272.9808956813837,649.5519993034518 C 272.48480168138366,651.4621563034518 270.0394896813837,653.7980933034518 267.54730168138366,654.7473123034517 C 265.0551146813837,655.6926243034518 263.0199586813837,657.6691873034517 263.0199586813837,659.1340303034517 C 263.0199586813837,662.1144993034518 258.51605168138366,662.4894993034518 249.0668326813837,660.2941873034517 C 245.7113646813837,659.5129373034517 241.98089568138369,659.2043433034518 240.78167668138366,659.6066873034517 C 236.95355168138366,660.8918433034518 238.43792668138366,663.2277803034517 243.8363646813837,664.4152803034517 C 250.70745868138368,665.9230933034518 250.79730168138366,670.5246563034518 243.95355168138366,670.5246563034518 C 240.46527068138369,670.5246563034518 238.5043326813837,671.5754373034517 237.7894896813837,673.8332493034518 C 236.29730168138366,678.5402803034517 226.84417668138366,679.8254373034517 211.18402068138369,677.4504373034517 C 201.05120868138368,675.9113743034518 195.7855826813837,674.0012183034518 188.68792668138366,669.2824683034518 C 183.59417668138366,665.8957493034518 178.2738646813837,663.5637183034518 176.87152068138369,664.1027803034517 C 175.37152068138369,664.6809063034518 173.86370868138368,668.5402803034517 173.21527068138369,673.4777803034517 C 172.60589568138369,678.0949683034518 171.95745868138368,683.0519993034518 171.76995868138368,684.4934063034518 C 171.2855826813837,688.2238743034518 156.23089568138369,689.0871563034518 153.30120868138368,685.5519993034518 L 153.29730168138366,685.5519993034518 M 189.33245868138368,627.5246563034518 C 193.60589568138369,624.8254373034517 194.3051146813837,622.4894993034518 191.3832396813837,620.6809063034518 C 190.3519896813837,620.0441873034517 187.78167668138366,621.1496563034518 185.66839568138369,623.1379373034517 C 183.12152068138369,625.5324683034518 180.51995868138368,626.4074683034518 177.94964568138369,625.7355933034518 C 175.18792668138366,625.0129373034517 174.0707396813837,625.4894993034518 174.0707396813837,627.3957493034518 C 174.0707396813837,632.5324683034518 181.30120868138368,632.5949683034518 189.33245868138368,627.5246563034518 M 207.20745868138368,620.0168433034518 C 207.20745868138368,617.9074683034518 198.23089568138369,610.8332493034518 197.05120868138368,612.0168433034518 C 195.96917668138366,613.0988743034518 203.70745868138368,621.6340303034517 205.76605168138366,621.6340303034517 C 206.55902068138369,621.6340303034517 207.20745868138368,620.9074683034518 207.20745868138368,620.0168433034518 M 222.1332396813837,601.5012183034518 C 220.2738646813837,600.0910623034517 216.73870868138368,598.9660623034517 214.2855826813837,598.9973123034517 L 209.82464568138369,599.0598123034517 L 214.18402068138369,601.5559063034518 C 216.58245868138368,602.9269993034518 220.11370868138368,604.0519993034518 222.03167668138366,604.0559063034518 C 225.4730826813837,604.0637183034518 225.4730826813837,604.0285623034517 222.1332396813837,601.5012183034518 M 147.9144896813837,581.5168433034518 C 147.9144896813837,577.6769993034518 138.70355168138366,573.8215303034517 130.69964568138369,574.3098123034517 C 117.22308268138369,575.1301243034518 118.41448968138371,578.3801243034518 132.42620868138368,579.0090303034517 C 137.31292668138366,579.2277803034517 142.16839568138369,580.2668433034518 143.21527068138369,581.3176243034518 C 145.58245868138368,583.6848123034517 147.9105826813837,583.7824683034518 147.9105826813837,581.5168433034518 L 147.9144896813837,581.5168433034518 M 220.04730168138366,540.4465303034517 C 219.4926146813837,539.0051243034518 218.34027068138369,537.8254373034517 217.48480168138366,537.8254373034517 C 216.6293326813837,537.8254373034517 215.92620868138368,539.0051243034518 215.92620868138368,540.4465303034517 C 215.92620868138368,541.8879373034517 217.07855168138366,543.0637183034518 218.48870868138368,543.0637183034518 C 220.04730168138366,543.0637183034518 220.65667668138366,542.0402803034517 220.04730168138366,540.4465303034517 M 232.57855168138366,537.2863743034518 C 232.67230168138366,531.7668433034518 228.9457396813837,527.5871563034518 226.29730168138366,530.2394993034518 C 225.36370868138368,531.1730933034518 225.10980168138366,534.4738743034518 225.73089568138369,537.5832493034518 C 227.16839568138369,544.7707493034518 232.45355168138366,544.5402803034517 232.57855168138366,537.2863743034518 M 269.9574586813837,537.1809063034518 L 277.7738646813837,534.8410623034517 L 272.3715206813837,532.0441873034517 C 267.1996456813837,529.3684063034518 266.8090206813837,529.4191873034517 263.2308956813837,533.2316873034517 C 261.1762086813837,535.4191873034517 260.0238646813837,537.7434063034518 260.67230168138366,538.3918433034518 C 261.3207396813837,539.0402803034517 261.9183956813837,539.5598123034517 261.9965206813837,539.5480933034518 C 262.07855168138366,539.5324683034518 265.6605826813837,538.4660623034517 269.9574586813837,537.1809063034518 M 141.68792668138366,493.97778030345177 C 141.1605826813837,493.1262183034518 139.5980826813837,492.4309063034519 138.21917668138366,492.4309063034519 C 136.8363646813837,492.4309063034519 135.70355168138366,491.64574930345185 135.70355168138366,490.6848123034518 C 135.70355168138366,488.39574930345185 125.76995868138368,488.41528030345177 124.35589568138369,490.70824930345185 C 122.74652068138369,493.3098123034518 137.7738646813837,499.41137430345185 140.48089568138369,497.2512183034518 C 141.66839568138369,496.30199930345185 142.2113646813837,494.8293433034518 141.68402068138369,493.97778030345177 L 141.68792668138366,493.97778030345177 M 238.50042668138366,310.13793730345185 C 245.2738646813837,309.4074683034518 244.57855168138366,306.2902803034518 236.9613646813837,303.2394993034518 C 226.11370868138368,298.8918433034518 216.7543326813837,303.95043730345185 223.3363646813837,310.60668730345185 C 224.6332396813837,311.9152803034518 227.2855826813837,312.3605933034518 229.87542668138366,311.7043433034518 C 232.2738646813837,311.0949683034518 236.15667668138366,310.3918433034518 238.50042668138366,310.13793730345185" fill="#000000" fill-opacity="1" fill-rule="nonzero"/>
</svg>
