<?xml version="1.0" ?>
<svg xmlns="http://www.w3.org/2000/svg" xmlns:ev="http://www.w3.org/2001/xml-events" xmlns:xlink="http://www.w3.org/1999/xlink" baseProfile="full" height="220" id="katman_2" transform="scale(0.704225352112676 0.704225352112676) translate(-71.0 -110.0)" version="1.1" viewBox="0 0 142 220" width="142">
	<defs/>
	<path d="M 70.66000000000001,189.33 C 59.68000000000001,189.94000000000003 18.45000000000001,186.83 1.4210854715202004e-14,179.20000000000002 C 8.390000000000015,172.29000000000002 15.860000000000014,164.43 22.210000000000015,155.85000000000002 C 17.910000000000014,156.31000000000003 13.470000000000015,155.55 9.630000000000015,153.69000000000003 C 18.840000000000018,144.96000000000004 29.390000000000015,136.70000000000002 32.63000000000002,124.85000000000002 C 32.72000000000002,124.52000000000004 32.81000000000002,124.20000000000002 32.90000000000002,123.87000000000003 C 28.56000000000002,124.17000000000002 24.15000000000002,123.37000000000003 20.25000000000002,121.59000000000003 C 30.390000000000022,110.96000000000004 39.42000000000002,99.07000000000002 44.95000000000002,85.83000000000001 C 39.93000000000002,85.09000000000003 36.610000000000014,84.48000000000002 32.81000000000002,81.34000000000003 C 39.83000000000001,71.88000000000002 46.52000000000002,62.21000000000003 52.87000000000002,52.35000000000003 C 48.65000000000002,52.67000000000003 44.34000000000002,51.83000000000003 40.63000000000002,49.95000000000003 C 53.240000000000016,35.98000000000003 65.32000000000002,17.360000000000028 71.29000000000002,2.842170943040401e-14 C 72.57000000000002,3.8100000000000285 73.97000000000003,7.780000000000029 75.71000000000002,11.420000000000028 C 77.43000000000002,15.030000000000028 79.38000000000002,18.540000000000028 81.37000000000002,22.020000000000028 C 87.56000000000002,32.840000000000025 94.23000000000002,43.42000000000002 101.35000000000002,53.730000000000025 C 97.07000000000002,54.060000000000024 92.72000000000003,53.49000000000002 88.72000000000003,52.07000000000003 C 93.72000000000003,62.64000000000003 99.28000000000003,72.98000000000002 105.36000000000003,83.04000000000002 C 101.36000000000003,83.37000000000003 97.32000000000004,83.19000000000003 93.38000000000002,82.53000000000003 C 97.97000000000003,90.12000000000003 101.64000000000003,98.57000000000002 106.89000000000003,105.78000000000003 C 109.47000000000003,109.32000000000002 111.06000000000003,111.75000000000003 114.52000000000002,115.73000000000002 C 110.12000000000002,117.47000000000003 105.47000000000003,118.67000000000002 100.74000000000002,119.29000000000002 C 107.74000000000002,129.42000000000002 117.07000000000002,137.88000000000002 127.80000000000003,145.60000000000002 C 124.64000000000003,147.74 121.33000000000003,149.68000000000004 117.90000000000002,151.43000000000004 C 122.40000000000002,158.56000000000003 134.43,170.02000000000004 141.69,174.79000000000002 C 124.92000000000002,183.65000000000003 93.08000000000001,188.09000000000003 70.66000000000001,189.34000000000003 L 70.66000000000001,189.33 M 91.90000000000002,217.91 C 88.89000000000001,205.53 86.43000000000002,193.93 85.04000000000002,180.54 L 53.04000000000002,180.54 C 51.34000000000002,192.94 47.93000000000002,218.99 47.93000000000002,218.99 C 61.53000000000002,220.53 76.34000000000002,219.89000000000001 91.90000000000002,217.91"/>
</svg>
