<?xml version="1.0" ?>
<svg xmlns="http://www.w3.org/2000/svg" xmlns:ev="http://www.w3.org/2001/xml-events" xmlns:xlink="http://www.w3.org/1999/xlink" baseProfile="full" height="513" id="Слой_1" style="enable-background:new 0 0 1280 1280;" transform="scale(0.23923444976076555 0.23923444976076555) translate(-209.0 -256.5)" version="1.1" viewBox="0 0 418 513" width="418" x="0px" xml:space="preserve" y="0px">
	<defs/>
	<path d="M 199.73867919581397,5.115907697472721e-13 C 200.23867919581397,3.5000000000005116 200.23867919581397,4.100000000000534 197.338679195814,4.800000000000523 C 193.338679195814,5.800000000000523 189.23867919581397,6.500000000000512 185.13867919581395,7.100000000000534 C 175.338679195814,8.700000000000557 168.23867919581397,16.00000000000051 167.03867919581393,26.100000000000534 C 167.03867919581393,26.200000000000557 167.23867919581397,26.400000000000546 167.63867919581395,26.900000000000546 C 169.23867919581397,26.100000000000534 170.9386791958139,25.100000000000534 172.73867919581397,24.400000000000546 C 175.23867919581397,23.400000000000546 177.63867919581395,22.300000000000523 180.23867919581397,21.800000000000523 C 187.43867919581402,20.300000000000523 194.63867919581395,26.900000000000546 197.03867919581393,32.600000000000534 C 200.4386791958139,40.70000000000056 198.9386791958139,48.600000000000534 195.73867919581397,56.30000000000052 C 192.838679195814,63.100000000000534 188.03867919581393,68.30000000000052 182.23867919581397,72.7000000000005 C 175.43867919581402,77.80000000000052 168.53867919581393,82.60000000000048 160.53867919581393,85.90000000000049 C 158.4386791958139,86.80000000000047 156.53867919581393,88.30000000000047 154.63867919581395,89.50000000000051 C 153.33867919581394,90.30000000000052 152.13867919581395,90.2000000000005 151.13867919581395,89.00000000000051 C 145.93867919581396,82.60000000000053 140.23867919581397,76.40000000000049 135.53867919581393,69.60000000000053 C 131.33867919581394,63.50000000000051 127.33867919581394,57.100000000000534 126.23867919581392,49.400000000000546 C 124.9386791958139,40.600000000000534 125.73867919581392,32.100000000000534 129.83867919581394,24.200000000000557 C 133.53867919581393,16.900000000000546 139.93867919581396,13.30000000000058 147.93867919581396,12.80000000000058 C 154.33867919581394,12.400000000000603 159.13867919581395,15.30000000000058 162.13867919581395,21.10000000000059 C 162.9386791958139,22.700000000000614 163.73867919581397,24.200000000000614 164.838679195814,26.200000000000614 C 166.338679195814,22.800000000000637 167.43867919581402,19.900000000000603 168.73867919581397,17.10000000000059 C 171.73867919581397,10.80000000000058 176.43867919581402,6.80000000000058 183.43867919581402,5.600000000000591 C 186.338679195814,5.100000000000591 189.338679195814,4.500000000000568 192.13867919581406,3.700000000000614 C 194.63867919581406,3.0000000000006253 197.3386791958141,2.4000000000006025 198.93867919581402,6.252776074688882e-13 C 199.03867919581404,5.115907697472721e-13 199.338679195814,5.115907697472721e-13 199.73867919581397,5.115907697472721e-13 M 316.938679195814,72.80000000000052 C 316.438679195814,74.10000000000053 316.03867919581404,75.50000000000051 315.438679195814,76.80000000000052 C 308.338679195814,92.90000000000055 297.438679195814,106.30000000000052 284.338679195814,117.90000000000055 C 277.738679195814,123.70000000000056 270.838679195814,129.30000000000052 263.338679195814,133.90000000000055 C 249.53867919581404,142.40000000000055 240.23867919581397,154.5000000000005 233.53867919581404,168.60000000000053 C 230.2386791958141,175.5000000000005 228.7386791958141,183.4000000000005 226.93867919581402,191.0000000000005 C 224.53867919581404,201.20000000000056 223.93867919581402,211.70000000000056 223.63867919581406,222.20000000000056 C 223.13867919581406,240.4000000000006 224.2386791958141,258.4000000000006 225.63867919581406,276.5000000000005 C 225.7386791958141,278.0000000000005 225.7386791958141,279.5000000000005 225.8386791958141,281.0000000000005 C 225.93867919581413,282.30000000000047 226.13867919581406,283.60000000000053 226.3386791958141,285.80000000000047 C 227.3386791958141,284.5000000000005 228.03867919581415,283.9000000000005 228.43867919581413,283.20000000000044 C 237.8386791958141,268.5000000000004 251.63867919581418,260.5000000000004 268.43867919581413,257.80000000000047 C 286.3386791958141,254.9000000000005 304.2386791958141,256.80000000000047 322.1386791958142,259.30000000000047 C 331.3386791958142,260.6000000000004 340.6386791958142,261.5000000000005 349.93867919581413,262.30000000000047 C 352.8386791958141,262.6000000000004 355.8386791958141,261.9000000000005 358.8386791958141,262.1000000000004 C 351.8386791958141,264.1000000000004 344.63867919581406,264.9000000000004 337.43867919581413,264.6000000000004 C 328.6386791958142,264.20000000000044 319.8386791958141,263.6000000000004 311.03867919581415,263.0000000000004 C 307.2386791958142,262.80000000000035 303.43867919581413,262.4000000000004 299.53867919581415,262.30000000000035 C 286.03867919581415,262.0000000000004 272.53867919581415,262.4000000000004 259.7386791958142,267.70000000000033 C 241.63867919581418,275.30000000000035 231.93867919581425,289.70000000000033 228.03867919581415,308.4000000000004 C 227.8386791958141,309.4000000000004 227.93867919581413,310.4000000000004 227.93867919581413,311.4000000000004 C 228.53867919581415,328.9000000000004 229.2386791958141,346.30000000000035 229.63867919581418,363.80000000000035 C 230.13867919581418,383.6000000000003 232.43867919581413,403.30000000000035 236.2386791958142,422.70000000000033 C 239.83867919581422,440.9000000000004 245.03867919581415,458.5000000000003 252.7386791958142,475.4000000000004 C 258.3386791958142,487.6000000000004 265.3386791958142,498.9000000000004 275.3386791958142,508.0000000000004 C 275.6386791958142,508.30000000000035 275.8386791958142,508.80000000000035 276.43867919581425,509.70000000000044 C 274.6386791958143,509.80000000000047 273.2386791958142,510.0000000000004 271.8386791958142,510.0000000000004 C 252.33867919581422,510.4000000000004 232.83867919581422,510.70000000000044 213.33867919581422,511.1000000000004 C 202.63867919581418,511.30000000000047 192.03867919581427,511.6000000000004 181.33867919581422,512.0000000000005 C 177.03867919581427,512.1000000000004 172.7386791958142,512.5000000000005 168.33867919581422,512.8000000000004 C 167.2386791958142,512.9000000000003 166.03867919581427,512.8000000000004 164.33867919581422,512.8000000000004 C 164.83867919581422,511.70000000000033 165.03867919581427,510.9000000000004 165.43867919581425,510.4000000000004 C 178.2386791958142,497.80000000000035 185.93867919581425,482.20000000000033 192.03867919581427,465.70000000000033 C 200.03867919581427,444.30000000000035 205.2386791958143,422.1000000000003 208.33867919581422,399.5000000000003 C 210.53867919581427,383.5000000000003 212.63867919581418,367.5000000000003 213.93867919581425,351.5000000000003 C 214.93867919581425,339.1000000000003 214.83867919581422,326.5000000000003 215.03867919581427,314.1000000000003 C 215.1386791958143,306.90000000000026 212.6386791958143,300.40000000000026 209.2386791958143,294.20000000000033 C 203.03867919581427,283.0000000000003 194.93867919581436,273.30000000000035 185.43867919581436,264.9000000000004 C 180.83867919581434,260.80000000000035 175.93867919581436,257.1000000000004 171.03867919581438,253.30000000000035 C 162.53867919581438,246.70000000000033 152.73867919581437,246.0000000000004 142.53867919581438,247.40000000000038 C 131.93867919581436,248.90000000000038 122.43867919581436,253.10000000000042 113.3386791958144,258.5000000000004 C 107.03867919581438,262.20000000000044 101.03867919581438,266.5000000000004 94.93867919581442,270.6000000000004 C 85.1386791958144,277.1000000000004 74.8386791958144,282.4000000000004 63.138679195814404,284.4000000000004 C 56.138679195814404,285.6000000000004 49.23867919581443,285.30000000000035 42.33867919581439,283.6000000000004 C 41.53867919581438,283.4000000000004 40.73867919581437,282.80000000000047 40.138679195814404,281.80000000000047 C 41.03867919581438,282.0000000000005 41.938679195814416,282.1000000000004 42.83867919581439,282.4000000000005 C 51.638679195814404,284.9000000000005 60.23867919581437,283.60000000000053 68.8386791958144,280.9000000000005 C 80.73867919581437,277.10000000000053 90.8386791958144,270.0000000000005 100.73867919581437,262.70000000000044 C 105.43867919581436,259.20000000000044 110.13867919581435,255.80000000000047 115.03867919581438,252.70000000000044 C 126.43867919581436,245.5000000000004 138.8386791958144,241.70000000000044 153.53867919581438,241.70000000000044 C 150.3386791958144,239.4000000000005 148.03867919581438,237.80000000000047 145.6386791958144,236.10000000000042 C 134.23867919581443,228.0000000000004 126.1386791958144,217.5000000000004 122.43867919581442,204.0000000000004 C 120.73867919581443,197.90000000000038 119.43867919581442,191.70000000000044 118.23867919581443,185.5000000000004 C 114.73867919581443,167.40000000000038 109.1386791958144,150.10000000000042 98.23867919581443,134.90000000000038 C 96.33867919581445,132.2000000000004 94.33867919581445,129.5000000000004 92.43867919581442,126.80000000000035 C 92.43867919581442,126.70000000000033 92.53867919581444,126.50000000000034 92.8386791958144,125.80000000000035 C 94.3386791958144,127.50000000000034 95.8386791958144,128.90000000000038 97.1386791958144,130.50000000000034 C 107.3386791958144,143.40000000000032 113.8386791958144,158.00000000000028 118.3386791958144,173.6000000000003 C 121.03867919581438,183.00000000000028 123.43867919581442,192.50000000000028 126.3386791958144,201.90000000000026 C 130.53867919581438,215.90000000000026 139.23867919581437,226.40000000000026 151.73867919581437,234.00000000000028 C 161.03867919581438,239.6000000000003 170.1386791958144,245.40000000000026 179.03867919581438,251.50000000000028 C 191.23867919581443,259.70000000000033 202.33867919581434,269.30000000000024 211.23867919581443,281.1000000000003 C 211.83867919581445,281.90000000000026 212.53867919581438,282.6000000000003 213.73867919581443,284.0000000000003 C 213.83867919581445,282.20000000000033 214.03867919581438,281.0000000000003 214.03867919581438,279.90000000000026 C 213.83867919581434,271.1000000000003 213.53867919581438,262.30000000000024 213.43867919581436,253.40000000000026 C 213.43867919581436,237.80000000000024 213.83867919581434,222.1000000000003 215.83867919581434,206.6000000000003 C 217.53867919581438,192.80000000000035 220.6386791958143,179.40000000000026 226.03867919581438,166.6000000000003 C 231.03867919581438,154.80000000000035 237.93867919581436,144.20000000000033 248.1386791958144,136.3000000000003 C 254.03867919581438,131.70000000000027 260.5386791958144,127.90000000000032 266.7386791958144,123.8000000000003 C 275.4386791958145,118.00000000000028 283.83867919581445,111.70000000000027 291.5386791958144,104.6000000000003 C 301.1386791958144,95.70000000000033 309.2386791958144,85.6000000000003 314.6386791958144,73.6000000000003 C 314.83867919581445,73.20000000000033 315.1386791958144,72.8000000000003 315.43867919581436,72.40000000000032 C 316.338679195814,72.50000000000051 316.63867919581395,72.7000000000005 316.938679195814,72.80000000000052 M 150.43867919581402,377.70000000000056 C 151.23867919581403,377.10000000000053 152.03867919581404,376.60000000000053 153.338679195814,375.70000000000056 C 151.638679195814,374.8000000000006 150.838679195814,374.4000000000006 150.03867919581398,374.0000000000005 C 146.73867919581397,372.5000000000005 143.338679195814,371.0000000000005 140.138679195814,369.4000000000005 C 137.23867919581403,368.0000000000005 135.638679195814,365.30000000000047 135.03867919581398,362.30000000000047 C 133.838679195814,356.5000000000005 133.93867919581396,350.80000000000047 137.53867919581398,345.5000000000005 C 141.23867919581397,340.10000000000053 146.03867919581398,336.20000000000056 151.93867919581396,333.60000000000053 C 161.13867919581395,329.5000000000005 170.53867919581393,329.10000000000053 180.23867919581397,331.20000000000056 C 187.93867919581402,332.8000000000006 195.43867919581402,334.70000000000056 202.63867919581395,337.70000000000056 C 205.63867919581395,339.0000000000005 208.838679195814,339.70000000000056 212.03867919581393,340.60000000000053 C 210.4386791958139,353.5000000000005 210.13867919581395,366.4000000000005 205.53867919581393,378.5000000000005 C 199.83867919581388,393.4000000000005 189.53867919581393,403.4000000000005 173.73867919581397,406.5000000000005 C 165.93867919581402,408.0000000000005 158.93867919581402,404.70000000000056 153.838679195814,398.4000000000005 C 150.638679195814,394.4000000000005 150.03867919581398,389.60000000000053 151.638679195814,384.70000000000044 C 152.338679195814,382.5000000000004 153.138679195814,380.4000000000005 154.03867919581398,377.80000000000047 C 152.73867919581397,377.9000000000005 151.73867919581397,378.0000000000005 150.838679195814,378.0000000000005 C 150.73867919581397,378.10000000000053 150.638679195814,377.9000000000005 150.43867919581402,377.70000000000056 M 169.43867919581402,294.5000000000005 C 170.13867919581406,296.20000000000056 170.43867919581402,297.5000000000005 171.13867919581406,298.60000000000053 C 179.03867919581404,311.20000000000056 166.93867919581402,322.8000000000006 156.43867919581407,323.4000000000005 C 146.13867919581406,324.0000000000005 137.93867919581407,320.10000000000053 130.63867919581406,313.70000000000044 C 124.93867919581407,308.70000000000044 120.63867919581406,302.6000000000004 117.23867919581409,295.80000000000047 C 114.23867919581409,289.9000000000005 111.5386791958141,283.80000000000047 108.5386791958141,277.4000000000005 C 114.63867919581412,272.70000000000044 120.63867919581412,267.9000000000005 126.93867919581407,263.4000000000005 C 130.43867919581407,260.9000000000005 134.33867919581405,258.9000000000005 138.2386791958141,257.0000000000005 C 148.5386791958141,252.20000000000056 159.03867919581404,251.60000000000053 169.63867919581406,255.9000000000005 C 176.63867919581406,258.70000000000044 181.43867919581402,263.70000000000044 183.13867919581406,271.4000000000005 C 184.93867919581402,279.30000000000047 181.53867919581404,286.0000000000005 174.13867919581406,289.20000000000044 C 172.8386791958141,289.80000000000047 171.43867919581402,290.4000000000005 169.3386791958141,291.30000000000047 C 171.8386791958141,292.30000000000047 173.63867919581406,293.0000000000005 175.3386791958141,293.70000000000044 C 183.03867919581415,296.5000000000004 187.63867919581406,301.70000000000044 188.93867919581413,310.0000000000004 C 189.7386791958141,315.0000000000004 191.3386791958141,319.9000000000004 192.63867919581418,325.20000000000044 C 190.53867919581415,326.9000000000005 189.2386791958142,326.6000000000004 188.7386791958142,323.5000000000004 C 187.93867919581425,318.6000000000004 187.33867919581422,313.6000000000004 186.63867919581418,308.70000000000044 C 185.43867919581402,301.5000000000005 177.63867919581395,294.80000000000047 169.43867919581402,294.5000000000005 M 221.838679195814,111.10000000000053 C 226.838679195814,110.60000000000053 231.23867919581397,110.10000000000053 235.63867919581395,109.80000000000052 C 239.63867919581395,109.60000000000053 243.13867919581395,111.2000000000005 246.03867919581393,113.90000000000055 C 250.13867919581395,117.70000000000056 253.63867919581395,122.20000000000056 259.13867919581395,124.80000000000052 C 257.238679195814,126.90000000000055 255.73867919581397,126.7000000000005 254.13867919581395,125.10000000000053 C 251.4386791958139,122.40000000000055 248.4386791958139,119.90000000000055 246.03867919581393,117.00000000000051 C 240.23867919581397,110.2000000000005 230.03867919581393,109.90000000000049 222.73867919581397,114.00000000000051 C 224.838679195814,115.2000000000005 226.63867919581395,116.30000000000052 228.43867919581402,117.30000000000052 C 237.23867919581397,122.50000000000051 239.13867919581406,131.60000000000053 232.73867919581397,139.7000000000005 C 225.23867919581397,149.20000000000056 214.93867919581402,152.20000000000056 203.338679195814,150.60000000000053 C 195.73867919581397,149.60000000000053 188.63867919581395,146.5000000000005 181.73867919581397,143.20000000000056 C 176.93867919581402,140.90000000000055 172.43867919581402,138.20000000000056 167.43867919581402,135.50000000000057 C 167.53867919581404,134.90000000000055 167.43867919581402,134.00000000000057 167.63867919581406,133.30000000000058 C 168.3386791958141,130.70000000000056 169.2386791958141,128.20000000000056 169.7386791958141,125.60000000000059 C 171.43867919581413,117.70000000000061 174.2386791958141,110.30000000000058 178.03867919581404,103.20000000000061 C 184.03867919581404,92.20000000000061 193.338679195814,85.80000000000064 205.63867919581406,84.10000000000059 C 211.2386791958141,83.30000000000058 216.53867919581404,85.20000000000061 220.93867919581402,88.9000000000006 C 226.13867919581406,93.30000000000058 227.338679195814,100.50000000000063 224.23867919581397,106.60000000000059 C 223.63867919581395,108.2000000000005 222.73867919581397,109.50000000000051 221.838679195814,111.10000000000053 M 54.538679195813984,153.9000000000005 C 51.73867919581397,149.9000000000005 49.43867919581396,146.80000000000047 49.338679195813995,142.4000000000005 C 49.23867919581397,137.10000000000048 51.43867919581402,133.10000000000048 55.43867919581402,129.9000000000005 C 61.43867919581402,125.10000000000048 68.23867919581403,124.50000000000051 75.338679195814,126.40000000000049 C 85.338679195814,129.2000000000005 93.338679195814,134.7000000000005 98.43867919581402,144.10000000000048 C 102.03867919581404,150.9000000000005 105.53867919581404,157.60000000000042 107.53867919581404,165.10000000000042 C 108.23867919581403,167.60000000000042 109.43867919581402,170.0000000000004 110.53867919581404,173.0000000000004 C 107.83867919581405,174.70000000000044 105.03867919581404,176.5000000000004 102.23867919581403,178.10000000000042 C 95.83867919581405,181.60000000000042 89.53867919581404,185.40000000000038 82.93867919581402,188.40000000000038 C 75.838679195814,191.60000000000042 68.23867919581403,192.40000000000038 60.53867919581404,191.0000000000004 C 53.43867919581402,189.70000000000044 47.53867919581404,186.30000000000035 43.83867919581405,180.20000000000044 C 40.23867919581403,174.10000000000042 39.53867919581404,166.0000000000004 48.53867919581404,159.70000000000044 C 50.13867919581406,158.60000000000042 51.73867919581403,157.60000000000042 53.53867919581404,156.4000000000005 C 45.73867919581403,152.20000000000044 37.03867919581404,153.60000000000053 31.638679195814063,159.80000000000047 C 28.738679195814086,163.0000000000005 26.03867919581404,166.4000000000005 23.03867919581404,169.5000000000005 C 21.938679195814018,170.70000000000056 20.53867919581404,171.9000000000005 18.53867919581404,169.60000000000053 C 19.73867919581403,168.80000000000058 20.838679195814052,168.30000000000058 21.73867919581403,167.5000000000005 C 23.938679195814018,165.5000000000005 26.23867919581403,163.5000000000005 28.03867919581404,161.10000000000053 C 34.23867919581403,152.60000000000053 42.53867919581404,151.30000000000058 52.03867919581404,153.30000000000058 C 52.538679195813984,153.60000000000053 53.23867919581397,153.70000000000056 54.538679195813984,153.9000000000005 M 330.238679195814,320.0000000000005 C 329.13867919581395,321.10000000000053 328.338679195814,321.80000000000047 327.5386791958139,322.60000000000053 C 321.5386791958139,329.70000000000056 314.0386791958139,331.8000000000006 305.13867919581395,329.4000000000005 C 301.63867919581395,328.4000000000005 298.0386791958139,327.4000000000005 294.5386791958139,328.9000000000005 C 293.3386791958139,327.20000000000044 293.63867919581395,326.0000000000005 295.4386791958139,325.9000000000005 C 297.0386791958139,325.80000000000047 298.73867919581386,326.10000000000053 300.3386791958139,326.4000000000005 C 302.73867919581386,326.80000000000047 305.23867919581386,327.4000000000005 307.63867919581384,328.0000000000005 C 316.9386791958138,330.30000000000047 323.23867919581386,325.9000000000005 329.13867919581384,318.30000000000047 C 326.73867919581386,318.30000000000047 325.23867919581386,318.20000000000044 323.63867919581384,318.30000000000047 C 310.73867919581386,319.30000000000047 303.3386791958139,309.80000000000047 307.5386791958138,297.5000000000005 C 311.13867919581384,286.9000000000005 318.9386791958138,280.4000000000005 329.23867919581386,277.10000000000053 C 337.13867919581384,274.60000000000053 345.3386791958139,272.9000000000005 353.73867919581386,272.9000000000005 C 356.13867919581384,272.9000000000005 358.63867919581384,272.30000000000047 361.4386791958139,272.0000000000005 C 364.4386791958139,281.4000000000005 368.23867919581386,290.30000000000047 369.3386791958139,300.20000000000056 C 370.3386791958139,308.8000000000006 369.13867919581384,316.8000000000006 365.0386791958139,324.3000000000006 C 361.5386791958139,330.70000000000056 356.238679195814,335.10000000000053 349.0386791958139,336.9000000000006 C 340.8386791958139,338.9000000000006 333.238679195814,335.0000000000006 331.13867919581395,327.5000000000006 C 330.438679195814,325.20000000000056 330.53867919581404,322.9000000000005 330.238679195814,320.0000000000005 M 348.838679195814,211.5000000000005 C 347.13867919581395,212.70000000000056 345.938679195814,212.20000000000056 345.53867919581404,210.0000000000005 C 344.7386791958141,206.10000000000053 344.13867919581406,202.20000000000056 343.53867919581404,198.20000000000056 C 342.338679195814,191.0000000000005 335.338679195814,184.9000000000006 327.7386791958141,184.60000000000053 C 328.3386791958141,185.9000000000005 328.7386791958141,187.10000000000053 329.3386791958141,188.20000000000056 C 334.13867919581406,197.80000000000058 330.63867919581406,206.60000000000053 320.43867919581413,209.9000000000006 C 317.1386791958142,211.00000000000063 313.7386791958141,211.30000000000058 310.1386791958142,210.50000000000063 C 301.2386791958142,208.4000000000006 293.7386791958142,204.20000000000067 288.2386791958142,196.80000000000058 C 284.1386791958142,191.30000000000058 280.2386791958142,185.80000000000058 277.6386791958142,179.4000000000006 C 276.53867919581415,176.80000000000058 275.03867919581415,174.4000000000006 273.53867919581415,171.60000000000065 C 281.1386791958142,165.20000000000067 288.2386791958142,158.4000000000006 297.03867919581415,153.50000000000063 C 303.53867919581415,149.9000000000006 310.2386791958142,148.10000000000065 317.53867919581415,148.80000000000058 C 324.43867919581413,149.50000000000063 330.93867919581413,151.60000000000053 335.6386791958142,157.10000000000053 C 339.3386791958142,161.4000000000005 340.7386791958142,166.30000000000058 338.8386791958142,171.9000000000005 C 337.7386791958142,175.30000000000047 335.3386791958142,177.5000000000005 332.43867919581425,179.20000000000044 C 331.03867919581427,180.0000000000004 329.6386791958143,180.70000000000044 327.6386791958143,181.80000000000047 C 329.6386791958143,182.60000000000042 330.93867919581425,183.20000000000044 332.33867919581434,183.60000000000042 C 340.0386791958144,185.90000000000038 344.1386791958143,191.10000000000042 345.6386791958143,198.80000000000047 C 346.53867919581404,202.9000000000005 347.738679195814,206.80000000000047 348.838679195814,211.5000000000005 M 394.938679195814,220.5000000000005 C 396.338679195814,224.30000000000047 397.838679195814,227.30000000000047 398.53867919581404,230.5000000000005 C 399.53867919581404,235.0000000000005 398.938679195814,239.4000000000005 395.938679195814,243.30000000000047 C 394.438679195814,245.30000000000047 393.03867919581404,247.4000000000005 391.838679195814,249.5000000000005 C 390.738679195814,251.5000000000005 390.03867919581404,253.70000000000056 389.03867919581404,255.80000000000047 C 387.338679195814,256.1000000000004 386.338679195814,255.30000000000047 387.03867919581404,253.60000000000042 C 387.63867919581406,252.10000000000042 388.7386791958141,250.70000000000044 389.63867919581406,249.40000000000038 C 391.438679195814,246.80000000000035 393.3386791958141,244.30000000000035 395.13867919581406,241.60000000000042 C 397.938679195814,237.20000000000044 398.63867919581406,230.10000000000042 392.63867919581406,221.80000000000047 C 391.938679195814,223.5000000000005 391.2386791958141,225.0000000000005 390.8386791958141,226.5000000000005 C 388.3386791958141,237.0000000000005 375.53867919581415,239.4000000000005 368.3386791958141,234.10000000000053 C 361.43867919581413,229.0000000000005 357.3386791958141,222.0000000000005 356.53867919581415,213.60000000000053 C 355.6386791958142,204.20000000000056 357.2386791958142,195.10000000000053 360.43867919581413,186.20000000000056 C 361.3386791958141,183.70000000000056 361.93867919581413,181.10000000000053 362.7386791958141,178.60000000000053 C 363.13867919581406,177.4000000000005 363.63867919581406,176.20000000000056 364.2386791958141,174.9000000000005 C 372.8386791958141,175.9000000000005 381.03867919581404,176.60000000000053 389.2386791958141,178.0000000000005 C 398.93867919581413,179.60000000000053 407.13867919581406,184.30000000000047 412.8386791958141,192.5000000000005 C 416.43867919581413,197.70000000000056 418.13867919581406,203.4000000000005 417.03867919581415,209.9000000000005 C 415.6386791958142,217.70000000000044 409.03867919581415,225.20000000000044 397.8386791958141,221.4000000000005 C 397.03867919581404,221.10000000000053 396.238679195814,220.9000000000005 394.938679195814,220.5000000000005 M 104.138679195814,100.40000000000049 C 108.838679195814,101.2000000000005 113.23867919581403,102.30000000000047 117.638679195814,102.7000000000005 C 122.43867919581402,103.2000000000005 126.23867919581403,105.2000000000005 128.838679195814,109.2000000000005 C 130.43867919581402,111.7000000000005 131.838679195814,114.2000000000005 133.73867919581397,117.2000000000005 C 134.338679195814,115.60000000000048 134.63867919581395,114.60000000000048 135.03867919581398,113.60000000000048 C 138.03867919581398,106.90000000000049 144.53867919581398,104.2000000000005 151.53867919581398,106.40000000000049 C 159.63867919581395,109.00000000000051 163.13867919581395,115.30000000000047 164.73867919581397,123.00000000000051 C 166.43867919581402,131.0000000000005 165.03867919581393,138.4000000000005 161.43867919581402,145.7000000000005 C 157.63867919581406,153.5000000000005 152.138679195814,160.10000000000053 147.03867919581404,167.20000000000056 C 137.13867919581406,163.10000000000053 127.23867919581403,159.80000000000058 119.03867919581404,153.0000000000005 C 111.83867919581405,147.0000000000005 107.03867919581404,139.7000000000005 107.33867919581405,129.9000000000005 C 107.43867919581407,125.90000000000049 108.93867919581407,122.40000000000049 111.53867919581404,119.50000000000051 C 114.73867919581403,116.00000000000051 118.53867919581404,113.90000000000049 123.53867919581404,115.7000000000005 C 125.83867919581405,116.50000000000051 128.23867919581403,117.2000000000005 130.63867919581406,117.90000000000049 C 130.03867919581404,110.60000000000048 123.63867919581406,104.7000000000005 116.13867919581406,104.10000000000048 C 112.63867919581406,103.80000000000047 109.13867919581406,103.50000000000045 105.73867919581409,103.10000000000048 C 104.138679195814,103.00000000000051 104.138679195814,102.80000000000052 104.138679195814,100.40000000000049 M 320.738679195814,52.00000000000051 C 318.938679195814,51.600000000000534 317.238679195814,51.2000000000005 315.438679195814,50.80000000000052 C 313.838679195814,50.50000000000051 312.238679195814,50.30000000000052 309.738679195814,49.900000000000546 C 311.13867919581395,52.100000000000534 312.13867919581395,53.600000000000534 313.0386791958139,55.00000000000057 C 317.738679195814,62.20000000000056 315.8386791958139,69.80000000000058 308.3386791958139,74.00000000000057 C 302.4386791958139,77.30000000000058 296.3386791958139,77.50000000000057 290.0386791958139,75.60000000000059 C 285.0386791958139,74.00000000000057 280.4386791958139,71.80000000000058 276.8386791958139,67.9000000000006 C 274.13867919581384,65.00000000000063 271.13867919581384,62.30000000000058 268.63867919581384,59.200000000000614 C 265.3386791958139,55.10000000000059 262.4386791958138,50.60000000000059 259.23867919581386,46.200000000000614 C 266.23867919581386,37.80000000000064 272.63867919581384,29.300000000000637 282.13867919581384,24.10000000000059 C 291.23867919581386,19.10000000000059 300.5386791958138,17.30000000000058 310.23867919581386,22.200000000000614 C 315.4386791958139,24.800000000000637 318.8386791958139,29.000000000000625 318.9386791958139,35.200000000000614 C 319.0386791958139,39.700000000000614 317.23867919581386,43.200000000000614 313.5386791958139,45.9000000000006 C 312.63867919581395,46.60000000000059 311.738679195814,47.200000000000614 310.738679195814,48.000000000000625 C 314.238679195814,49.30000000000052 317.438679195814,50.600000000000534 320.738679195814,52.00000000000051 C 320.738679195814,52.00000000000051 320.738679195814,52.00000000000051 320.738679195814,52.00000000000051 M 84.93867919581402,319.70000000000056 C 86.638679195814,320.60000000000053 88.338679195814,321.5000000000005 90.73867919581403,322.8000000000006 C 90.33867919581405,320.70000000000056 90.03867919581404,319.3000000000006 89.73867919581403,317.9000000000006 C 87.638679195814,307.20000000000056 95.138679195814,299.70000000000056 105.93867919581402,301.4000000000006 C 115.338679195814,302.9000000000006 122.03867919581404,308.20000000000056 126.53867919581404,316.3000000000006 C 129.63867919581406,321.8000000000006 131.93867919581402,327.70000000000056 133.13867919581406,333.9000000000006 C 133.83867919581405,337.4000000000006 134.83867919581405,340.9000000000006 135.7386791958141,344.70000000000056 C 125.73867919581409,349.9000000000006 116.23867919581409,356.4000000000006 104.63867919581406,357.3000000000006 C 95.93867919581407,358.0000000000006 87.83867919581405,355.70000000000056 81.13867919581406,349.70000000000056 C 77.93867919581407,346.8000000000006 76.23867919581409,343.0000000000005 75.83867919581405,338.70000000000056 C 75.33867919581405,333.5000000000005 79.13867919581406,327.70000000000056 84.23867919581403,325.8000000000006 C 85.638679195814,325.3000000000006 87.138679195814,325.0000000000006 88.83867919581405,324.5000000000006 C 87.23867919581403,323.0000000000006 85.73867919581403,321.60000000000065 84.23867919581403,320.20000000000067 C 84.53867919581398,320.20000000000056 84.73867919581397,319.9000000000005 84.93867919581402,319.70000000000056 M 90.43867919581402,83.30000000000052 C 84.73867919581403,88.00000000000051 83.03867919581404,94.60000000000053 85.73867919581403,100.80000000000052 C 87.138679195814,104.2000000000005 88.73867919581403,107.50000000000051 90.138679195814,110.80000000000052 C 90.838679195814,112.40000000000055 90.638679195814,112.50000000000051 88.43867919581402,113.60000000000053 C 87.03867919581404,109.60000000000053 85.93867919581402,105.40000000000055 84.138679195814,101.50000000000051 C 81.638679195814,96.10000000000053 82.338679195814,91.2000000000005 85.43867919581402,86.40000000000049 C 86.43867919581402,84.90000000000049 87.43867919581402,83.40000000000049 88.73867919581403,81.60000000000048 C 87.23867919581403,81.60000000000048 86.138679195814,81.50000000000045 85.03867919581404,81.60000000000048 C 78.53867919581404,82.50000000000045 73.43867919581402,79.60000000000048 71.43867919581402,73.40000000000049 C 69.93867919581402,68.80000000000047 70.03867919581404,64.2000000000005 72.53867919581404,59.90000000000049 C 78.63867919581406,49.50000000000051 87.93867919581402,44.60000000000048 99.73867919581403,44.10000000000048 C 104.33867919581405,43.90000000000049 109.03867919581404,44.500000000000455 113.638679195814,44.7000000000005 C 116.73867919581403,44.90000000000049 119.93867919581402,45.2000000000005 123.338679195814,45.40000000000049 C 123.638679195814,46.300000000000466 124.138679195814,47.2000000000005 124.23867919581397,48.10000000000048 C 125.13867919581395,56.2000000000005 126.53867919581398,64.30000000000047 125.73867919581397,72.50000000000045 C 124.93867919581396,81.30000000000047 121.838679195814,89.00000000000045 114.63867919581395,94.60000000000048 C 110.23867919581397,98.00000000000045 105.43867919581396,99.7000000000005 99.73867919581397,98.2000000000005 C 95.338679195814,97.00000000000051 92.43867919581396,94.30000000000052 91.53867919581398,89.80000000000052 C 91.23867919581397,87.60000000000053 90.838679195814,85.50000000000051 90.43867919581402,83.30000000000052 M 102.73867919581397,212.4000000000005 C 104.838679195814,211.20000000000044 105.93867919581396,210.60000000000053 107.03867919581398,210.0000000000005 C 107.23867919581397,210.20000000000056 107.43867919581396,210.30000000000047 107.53867919581398,210.5000000000005 C 106.638679195814,211.60000000000053 105.73867919581397,212.70000000000056 104.53867919581398,214.20000000000056 C 105.53867919581398,214.5000000000005 106.138679195814,214.70000000000056 106.73867919581397,214.80000000000058 C 116.03867919581398,216.20000000000056 120.338679195814,223.50000000000063 117.13867919581395,232.30000000000058 C 114.43867919581396,239.9000000000006 108.23867919581397,243.70000000000056 101.13867919581395,246.10000000000053 C 95.23867919581397,248.0000000000005 89.23867919581397,248.20000000000056 83.03867919581393,246.60000000000053 C 74.9386791958139,244.5000000000005 67.53867919581393,241.10000000000053 59.63867919581395,237.80000000000058 C 61.83867919581394,227.9000000000006 62.53867919581393,217.9000000000006 67.03867919581393,208.80000000000058 C 69.9386791958139,203.00000000000063 73.83867919581394,198.20000000000056 79.63867919581395,195.10000000000053 C 84.43867919581396,192.5000000000005 89.53867919581393,191.10000000000053 94.93867919581396,193.0000000000005 C 101.63867919581395,195.30000000000047 104.53867919581398,200.30000000000047 103.23867919581397,207.30000000000047 C 103.03867919581398,208.60000000000053 102.93867919581402,210.10000000000053 102.73867919581397,212.4000000000005 M 283.738679195814,296.80000000000047 C 286.438679195814,297.20000000000044 288.5386791958139,297.6000000000004 290.63867919581395,297.9000000000005 C 295.63867919581395,298.80000000000047 299.63867919581395,301.10000000000053 301.9386791958139,305.9000000000005 C 303.8386791958139,309.9000000000005 306.0386791958139,313.70000000000044 308.13867919581395,317.80000000000047 C 306.838679195814,318.80000000000047 305.5386791958139,318.70000000000044 304.738679195814,316.9000000000005 C 303.938679195814,315.30000000000047 303.338679195814,313.5000000000005 302.5386791958139,311.9000000000005 C 301.4386791958139,309.70000000000044 300.5386791958139,307.30000000000047 299.13867919581395,305.30000000000047 C 295.738679195814,300.30000000000047 290.738679195814,298.5000000000005 284.13867919581395,299.20000000000044 C 285.4386791958139,300.9000000000005 286.4386791958139,302.20000000000044 287.5386791958139,303.5000000000004 C 292.5386791958139,309.30000000000035 291.3386791958139,314.9000000000004 286.4386791958139,319.9000000000004 C 281.13867919581395,325.4000000000004 274.23867919581386,326.30000000000035 267.0386791958139,324.70000000000033 C 258.63867919581395,322.9000000000004 251.73867919581397,318.30000000000035 245.9386791958139,312.20000000000033 C 242.13867919581395,308.30000000000035 238.63867919581395,304.1000000000003 235.03867919581393,299.9000000000004 C 239.9386791958139,292.70000000000033 244.63867919581395,285.5000000000004 250.9386791958139,279.4000000000004 C 258.63867919581395,272.0000000000004 267.9386791958139,269.30000000000035 278.4386791958139,270.9000000000004 C 285.0386791958139,271.9000000000004 290.5386791958139,277.9000000000004 291.0386791958139,284.0000000000004 C 291.3386791958139,288.0000000000004 290.13867919581395,291.20000000000044 287.13867919581395,293.80000000000035 C 286.03867919581404,294.60000000000053 285.13867919581395,295.5000000000005 283.738679195814,296.80000000000047 M 251.338679195814,71.30000000000052 C 239.93867919581402,72.10000000000053 228.63867919581395,73.90000000000055 217.53867919581404,70.30000000000052 C 210.43867919581402,67.90000000000055 205.13867919581406,63.30000000000052 201.53867919581404,56.80000000000052 C 198.53867919581404,51.400000000000546 199.03867919581404,45.80000000000052 202.13867919581406,40.600000000000534 C 204.53867919581404,36.50000000000051 208.53867919581404,34.900000000000546 213.13867919581406,35.100000000000534 C 214.43867919581402,35.100000000000534 215.7386791958141,35.50000000000051 217.53867919581404,35.900000000000546 C 216.2386791958141,33.80000000000052 215.338679195814,32.100000000000534 214.338679195814,30.50000000000057 C 211.43867919581402,25.900000000000546 211.23867919581397,21.200000000000557 213.23867919581397,16.200000000000557 C 214.63867919581395,12.700000000000557 215.73867919581397,9.000000000000568 216.93867919581402,5.400000000000546 C 217.43867919581402,4.000000000000568 218.23867919581397,3.5000000000005684 219.73867919581397,4.600000000000534 C 219.338679195814,8.200000000000557 217.338679195814,11.300000000000523 215.838679195814,14.600000000000534 C 212.43867919581402,22.00000000000051 213.338679195814,27.600000000000534 219.43867919581402,34.00000000000051 C 219.838679195814,32.40000000000049 220.23867919581397,31.00000000000051 220.53867919581404,29.600000000000534 C 221.93867919581402,21.100000000000534 229.338679195814,16.700000000000557 237.53867919581404,19.50000000000051 C 244.13867919581406,21.800000000000523 248.13867919581406,26.7000000000005 250.93867919581402,32.80000000000052 C 254.73867919581397,41.2000000000005 254.43867919581402,50.00000000000051 253.53867919581404,58.80000000000052 C 253.13867919581395,62.7000000000005 252.13867919581395,66.60000000000053 251.338679195814,71.30000000000052 M 23.438679195814018,237.70000000000056 C 24.23867919581403,235.80000000000058 25.03867919581404,233.80000000000058 25.838679195813995,231.9000000000006 C 23.738679195813972,230.4000000000006 22.238679195813972,231.80000000000058 20.838679195813995,232.30000000000058 C 12.438679195814018,235.00000000000063 5.638679195814007,231.20000000000056 3.538679195813984,222.60000000000053 C 2.338679195813995,217.4000000000005 3.538679195813984,212.70000000000056 5.838679195813995,208.20000000000056 C 9.538679195813984,201.0000000000005 15.538679195813984,196.0000000000005 22.438679195814018,192.10000000000053 C 25.638679195814007,190.30000000000058 29.03867919581404,189.0000000000005 32.338679195813995,187.5000000000005 C 35.038679195813984,186.30000000000047 37.73867919581397,185.10000000000053 40.73867919581397,183.80000000000047 C 47.538679195813984,193.0000000000005 55.338679195813995,201.5000000000005 57.43867919581396,213.20000000000044 C 58.93867919581396,221.4000000000005 58.23867919581397,229.10000000000042 52.83867919581394,235.9000000000005 C 49.93867919581396,239.5000000000005 46.03867919581393,241.70000000000044 41.33867919581394,242.10000000000053 C 36.13867919581395,242.60000000000053 32.33867919581394,240.4000000000005 29.93867919581396,235.80000000000058 C 29.33867919581394,234.60000000000053 28.738679195813972,233.4000000000006 28.038679195813984,232.00000000000063 C 26.638679195814007,234.20000000000067 25.338679195813995,236.20000000000067 24.038679195813984,238.20000000000067 C 23.738679195813972,238.10000000000053 23.538679195813984,237.9000000000005 23.438679195814018,237.70000000000056 M 248.93867919581402,361.80000000000047 C 247.73867919581397,360.1000000000004 247.13867919581406,359.20000000000044 246.43867919581402,358.30000000000047 C 243.03867919581404,353.30000000000047 241.93867919581402,348.1000000000004 244.53867919581404,342.30000000000047 C 246.13867919581406,338.70000000000044 247.13867919581406,334.9000000000005 248.63867919581406,330.70000000000044 C 249.2386791958141,331.30000000000047 250.13867919581406,331.9000000000005 250.13867919581406,332.5000000000004 C 250.13867919581406,333.4000000000004 249.63867919581406,334.4000000000004 249.2386791958141,335.30000000000035 C 248.43867919581413,337.30000000000035 247.63867919581406,339.30000000000035 246.63867919581406,341.20000000000033 C 242.7386791958141,348.5000000000003 245.2386791958141,354.6000000000003 250.7386791958141,360.9000000000004 C 251.03867919581404,359.0000000000004 251.2386791958141,357.6000000000004 251.43867919581413,356.30000000000035 C 252.63867919581418,347.5000000000004 259.43867919581413,343.1000000000003 267.93867919581413,345.6000000000003 C 276.43867919581413,348.1000000000003 283.43867919581413,357.40000000000026 284.6386791958142,366.80000000000035 C 285.8386791958142,376.20000000000033 284.53867919581415,385.4000000000004 283.43867919581413,394.6000000000003 C 283.43867919581413,394.90000000000026 283.1386791958142,395.1000000000003 282.7386791958141,395.70000000000033 C 272.43867919581413,396.70000000000033 261.93867919581413,398.9000000000004 251.3386791958141,396.1000000000003 C 243.63867919581406,394.0000000000003 237.53867919581415,389.70000000000033 233.63867919581406,382.6000000000003 C 231.13867919581406,377.90000000000026 231.2386791958141,373.0000000000003 233.53867919581404,368.20000000000033 C 235.63867919581406,364.0000000000003 239.03867919581404,361.6000000000003 243.93867919581402,361.80000000000035 C 245.53867919581404,361.80000000000047 246.838679195814,361.80000000000047 248.93867919581402,361.80000000000047 M 241.43867919581402,239.60000000000053 C 240.53867919581404,240.0000000000005 239.838679195814,240.30000000000058 238.93867919581402,240.60000000000053 C 239.03867919581404,239.80000000000058 239.03867919581404,239.20000000000056 239.13867919581406,238.60000000000053 C 238.8386791958141,238.4000000000005 238.63867919581406,238.20000000000056 238.3386791958141,238.10000000000053 C 237.8386791958141,238.0000000000005 237.3386791958141,238.0000000000005 236.8386791958141,238.0000000000005 C 232.53867919581415,237.5000000000005 228.43867919581413,236.30000000000047 227.03867919581415,231.60000000000053 C 225.63867919581418,226.80000000000058 225.7386791958142,222.10000000000053 229.13867919581418,217.9000000000005 C 234.43867919581413,211.4000000000005 241.13867919581418,207.9000000000005 249.43867919581413,208.0000000000005 C 254.53867919581415,208.10000000000053 259.7386791958141,208.70000000000056 264.8386791958141,209.20000000000056 C 266.8386791958141,209.4000000000006 268.7386791958141,209.9000000000006 270.8386791958141,210.30000000000058 C 271.03867919581415,210.70000000000056 271.43867919581413,211.10000000000053 271.53867919581415,211.50000000000063 C 272.03867919581415,219.50000000000063 272.53867919581415,227.50000000000063 270.6386791958142,235.4000000000006 C 268.7386791958142,243.70000000000056 264.2386791958142,250.00000000000063 255.63867919581418,252.50000000000063 C 248.93867919581413,254.50000000000063 243.33867919581422,251.00000000000063 242.13867919581418,244.10000000000065 C 241.93867919581402,242.60000000000053 241.73867919581397,241.10000000000053 241.43867919581402,239.60000000000053 M 362.03867919581404,152.10000000000053 C 361.838679195814,155.80000000000058 363.438679195814,159.30000000000058 360.63867919581406,162.80000000000058 C 360.63867919581406,159.00000000000063 360.63867919581406,155.80000000000058 360.63867919581406,151.20000000000056 C 358.8386791958141,153.30000000000058 357.8386791958141,154.5000000000005 356.8386791958141,155.60000000000053 C 351.7386791958141,161.20000000000056 344.93867919581413,160.80000000000058 340.2386791958141,154.80000000000058 C 336.3386791958141,149.80000000000058 336.03867919581404,144.1000000000006 337.03867919581404,138.20000000000056 C 337.938679195814,132.90000000000055 340.2386791958141,128.10000000000053 343.2386791958141,123.60000000000053 C 345.53867919581404,120.20000000000056 348.03867919581404,116.90000000000055 350.63867919581406,113.30000000000052 C 358.63867919581406,116.30000000000052 366.7386791958141,119.00000000000051 373.13867919581406,124.7000000000005 C 379.03867919581404,130.0000000000005 382.53867919581404,136.7000000000005 381.03867919581404,145.10000000000048 C 380.2386791958141,149.30000000000047 377.53867919581404,152.20000000000044 373.938679195814,154.30000000000047 C 371.438679195814,155.70000000000044 368.838679195814,155.60000000000042 366.238679195814,154.30000000000047 C 364.938679195814,153.80000000000047 363.738679195814,153.0000000000005 362.03867919581404,152.10000000000053 M 128.23867919581397,178.10000000000053 C 134.73867919581397,177.0000000000005 140.23867919581397,175.9000000000005 145.838679195814,175.10000000000053 C 150.838679195814,174.4000000000005 155.838679195814,175.10000000000053 160.53867919581404,177.0000000000005 C 165.53867919581404,179.0000000000005 169.13867919581406,182.5000000000005 171.03867919581404,187.70000000000056 C 173.13867919581406,193.60000000000053 170.7386791958141,198.9000000000006 164.838679195814,200.9000000000006 C 163.338679195814,201.4000000000006 161.73867919581397,201.80000000000058 159.93867919581402,202.30000000000058 C 166.13867919581406,207.50000000000063 169.43867919581402,207.80000000000058 175.93867919581402,204.30000000000058 C 177.838679195814,203.30000000000058 179.73867919581397,202.10000000000053 181.63867919581406,201.30000000000058 C 182.3386791958141,201.00000000000063 183.3386791958141,201.30000000000058 184.43867919581402,202.30000000000058 C 179.73867919581397,204.20000000000056 175.23867919581397,206.30000000000058 170.43867919581402,207.80000000000058 C 168.73867919581397,208.30000000000058 166.53867919581404,207.60000000000053 164.63867919581406,207.00000000000063 C 162.8386791958141,206.4000000000006 161.13867919581406,205.4000000000006 158.8386791958141,204.20000000000067 C 160.7386791958141,209.50000000000063 159.3386791958141,213.50000000000063 155.13867919581412,216.3000000000007 C 150.43867919581413,219.50000000000074 145.43867919581413,219.40000000000072 140.63867919581412,216.40000000000072 C 134.3386791958141,212.50000000000074 130.13867919581412,207.10000000000076 129.5386791958141,199.60000000000076 C 128.838679195814,192.60000000000053 128.638679195814,185.70000000000056 128.23867919581397,178.10000000000053 M 319.838679195814,350.30000000000047 C 320.738679195814,350.30000000000047 321.53867919581404,350.30000000000047 322.338679195814,350.30000000000047 C 322.03867919581404,351.0000000000005 321.838679195814,351.6000000000004 321.53867919581404,352.20000000000044 C 321.7386791958141,352.4000000000005 321.938679195814,352.70000000000044 322.13867919581406,352.70000000000044 C 323.438679195814,352.80000000000047 324.8386791958141,352.80000000000047 326.13867919581406,353.0000000000004 C 332.438679195814,354.0000000000004 336.03867919581404,359.70000000000044 334.13867919581406,365.9000000000004 C 331.8386791958141,373.5000000000004 326.13867919581406,377.70000000000033 319.03867919581404,379.9000000000004 C 313.63867919581406,381.6000000000004 308.03867919581404,382.30000000000035 302.338679195814,381.6000000000004 C 299.738679195814,381.30000000000047 297.03867919581404,381.30000000000047 294.13867919581395,381.1000000000004 C 292.13867919581395,372.6000000000004 289.4386791958139,364.20000000000044 291.5386791958139,355.30000000000047 C 293.4386791958139,347.30000000000047 297.5386791958139,341.30000000000047 305.63867919581395,338.70000000000044 C 307.4386791958139,338.1000000000004 309.5386791958139,337.9000000000005 311.5386791958139,338.1000000000004 C 316.4386791958139,338.5000000000004 319.63867919581395,342.1000000000004 319.9386791958139,347.0000000000004 C 319.938679195814,348.0000000000005 319.838679195814,349.20000000000056 319.838679195814,350.30000000000047 M 42.838679195813995,129.60000000000053 C 36.93867919581402,122.60000000000053 30.438679195814018,116.50000000000051 28.138679195814007,107.60000000000053 C 26.638679195814007,101.90000000000055 27.038679195813984,96.40000000000055 30.138679195814007,91.30000000000052 C 33.538679195813984,85.80000000000052 40.43867919581402,83.60000000000053 45.038679195813984,86.7000000000005 C 46.838679195813995,87.90000000000049 48.13867919581401,89.90000000000049 49.838679195813995,91.7000000000005 C 50.13867919581401,91.40000000000049 50.63867919581401,91.00000000000051 51.13867919581401,90.50000000000051 C 51.43867919581402,91.2000000000005 51.838679195813995,91.80000000000052 52.23867919581403,92.60000000000053 C 53.33867919581405,92.20000000000056 54.33867919581405,91.70000000000056 55.43867919581402,91.30000000000052 C 61.23867919581403,88.90000000000055 66.93867919581402,91.60000000000053 68.73867919581403,97.50000000000051 C 69.83867919581405,101.2000000000005 69.33867919581405,104.7000000000005 68.03867919581404,108.2000000000005 C 66.33867919581405,112.7000000000005 63.63867919581406,116.50000000000051 59.83867919581405,119.2000000000005 C 56.03867919581404,121.80000000000052 51.938679195814075,124.00000000000051 47.938679195814075,126.40000000000049 C 46.43867919581402,127.40000000000049 44.93867919581402,128.30000000000052 42.838679195813995,129.60000000000053 M 252.63867919581395,93.00000000000051 C 253.73867919581397,92.80000000000052 254.838679195814,92.7000000000005 256.238679195814,92.50000000000051 C 255.53867919581393,91.50000000000051 255.03867919581393,90.60000000000053 254.53867919581393,89.80000000000052 C 250.03867919581393,82.60000000000053 253.83867919581388,74.90000000000055 262.4386791958139,73.80000000000052 C 270.8386791958139,72.7000000000005 277.4386791958139,76.30000000000052 283.0386791958139,81.90000000000055 C 287.0386791958139,85.90000000000055 290.3386791958139,90.50000000000057 294.0386791958139,95.00000000000057 C 288.13867919581395,102.30000000000058 282.738679195814,109.70000000000056 273.8386791958139,113.30000000000058 C 268.5386791958139,115.4000000000006 263.23867919581386,116.10000000000059 257.8386791958139,114.10000000000059 C 253.9386791958139,112.70000000000061 251.53867919581393,109.9000000000006 250.63867919581384,105.9000000000006 C 249.83867919581388,102.20000000000061 250.63867919581384,99.00000000000063 253.73867919581386,96.50000000000063 C 254.5386791958138,95.9000000000006 255.23867919581386,95.30000000000064 256.0386791958138,94.70000000000061 C 254.73867919581397,94.00000000000051 253.73867919581397,93.50000000000051 252.63867919581395,93.00000000000051 C 252.73867919581397,93.00000000000051 252.63867919581395,93.00000000000051 252.63867919581395,93.00000000000051 M 187.93867919581402,222.9000000000005 C 187.93867919581402,219.4000000000005 187.93867919581402,216.5000000000005 187.93867919581402,213.60000000000053 C 188.03867919581404,213.60000000000053 188.23867919581397,213.60000000000053 188.338679195814,213.60000000000053 C 188.63867919581395,216.4000000000005 188.93867919581402,219.30000000000058 189.338679195814,223.30000000000058 C 190.838679195814,221.30000000000058 191.73867919581397,220.4000000000006 192.338679195814,219.4000000000006 C 195.03867919581404,214.20000000000056 202.43867919581402,214.10000000000065 206.63867919581395,217.9000000000006 C 211.4386791958139,222.30000000000058 213.23867919581397,227.9000000000006 212.13867919581395,234.20000000000056 C 210.73867919581397,242.20000000000056 206.53867919581393,249.10000000000053 202.338679195814,255.9000000000006 C 201.838679195814,256.70000000000056 200.23867919581397,257.4000000000006 199.53867919581404,257.20000000000056 C 190.93867919581402,254.60000000000053 182.13867919581406,252.30000000000058 175.93867919581402,245.20000000000056 C 172.03867919581404,240.70000000000056 170.338679195814,235.5000000000005 171.43867919581402,229.5000000000005 C 172.838679195814,222.10000000000053 180.13867919581406,218.60000000000053 186.13867919581406,222.20000000000056 C 186.63867919581395,222.30000000000047 187.03867919581404,222.5000000000005 187.93867919581402,222.9000000000005 M 188.23867919581397,180.60000000000053 C 187.53867919581393,180.30000000000058 186.838679195814,180.0000000000005 186.13867919581395,179.60000000000053 C 186.73867919581397,179.0000000000005 187.338679195814,178.5000000000005 187.9386791958139,177.9000000000005 C 187.73867919581386,177.60000000000053 187.63867919581395,177.30000000000047 187.4386791958139,177.20000000000044 C 186.73867919581386,176.80000000000047 185.9386791958139,176.5000000000004 185.13867919581395,176.20000000000044 C 178.9386791958139,173.5000000000004 177.23867919581397,167.0000000000004 181.4386791958139,161.5000000000004 C 186.03867919581393,155.60000000000042 192.33867919581388,153.60000000000042 199.53867919581393,154.30000000000035 C 206.83867919581388,155.0000000000004 213.63867919581395,157.70000000000033 220.53867919581393,160.80000000000035 C 219.9386791958139,168.40000000000038 218.83867919581388,175.90000000000038 215.33867919581388,182.70000000000033 C 212.23867919581386,188.90000000000038 207.03867919581393,192.80000000000035 200.03867919581393,194.40000000000038 C 192.73867919581397,196.10000000000042 184.73867919581397,190.10000000000042 188.13867919581395,181.60000000000042 C 188.338679195814,181.30000000000047 188.23867919581397,181.0000000000005 188.23867919581397,180.60000000000053 M 366.53867919581404,246.60000000000053 C 360.438679195814,251.0000000000005 354.53867919581404,254.60000000000053 347.938679195814,256.9000000000005 C 341.03867919581404,259.30000000000047 334.438679195814,258.30000000000047 328.53867919581404,253.9000000000005 C 321.438679195814,248.5000000000005 322.2386791958141,240.4000000000005 330.13867919581406,236.30000000000047 C 331.938679195814,235.4000000000005 332.2386791958141,233.60000000000042 332.438679195814,231.80000000000047 C 332.438679195814,231.30000000000047 332.13867919581406,230.9000000000005 332.03867919581404,230.4000000000005 C 330.2386791958141,222.70000000000044 335.63867919581406,216.9000000000005 343.63867919581406,218.10000000000053 C 349.8386791958141,219.0000000000005 354.938679195814,222.0000000000005 358.3386791958141,227.4000000000005 C 359.7386791958141,229.70000000000044 361.03867919581415,232.0000000000005 362.13867919581406,234.4000000000005 C 363.53867919581404,238.4000000000005 364.938679195814,242.30000000000047 366.53867919581404,246.60000000000053 M 55.63867919581401,298.0000000000005 C 55.43867919581402,299.4000000000005 55.23867919581403,300.9000000000005 54.93867919581402,302.9000000000005 C 56.43867919581402,302.4000000000005 57.73867919581403,301.9000000000005 59.03867919581404,301.4000000000005 C 64.03867919581404,299.70000000000044 68.43867919581402,301.5000000000005 70.63867919581406,306.30000000000047 C 72.63867919581406,310.70000000000044 72.03867919581404,315.1000000000004 70.03867919581404,319.30000000000047 C 68.23867919581403,323.1000000000004 65.73867919581403,326.5000000000005 62.23867919581403,328.80000000000047 C 57.23867919581403,332.1000000000004 52.13867919581401,335.1000000000004 47.03867919581404,338.30000000000047 C 41.93867919581402,333.0000000000005 37.23867919581403,328.1000000000004 34.23867919581403,321.9000000000005 C 31.73867919581403,316.80000000000047 30.73867919581403,311.4000000000005 32.73867919581403,306.0000000000005 C 33.53867919581404,303.70000000000056 34.83867919581405,301.5000000000005 36.53867919581404,299.70000000000056 C 41.33867919581405,294.4000000000006 48.73867919581403,294.8000000000006 52.03867919581404,300.9000000000006 C 52.33867919581405,301.5000000000006 52.83867919581405,301.9000000000006 53.23867919581403,302.4000000000006 C 54.038679195813984,300.80000000000047 54.838679195813995,299.4000000000005 55.63867919581401,298.0000000000005 L 55.63867919581401,298.0000000000005 M 371.13867919581395,88.90000000000049 C 371.5386791958139,90.40000000000049 371.738679195814,91.30000000000047 371.9386791958139,92.2000000000005 C 373.4386791958139,98.00000000000051 370.13867919581395,102.80000000000052 364.0386791958139,103.2000000000005 C 356.5386791958139,103.80000000000052 350.63867919581395,100.60000000000048 347.0386791958139,94.10000000000048 C 344.0386791958139,88.60000000000048 341.8386791958139,82.7000000000005 339.3386791958139,76.90000000000049 C 346.23867919581386,72.00000000000051 352.5386791958139,67.50000000000051 360.5386791958139,66.40000000000049 C 364.738679195814,65.80000000000047 368.9386791958139,66.40000000000049 372.63867919581395,68.40000000000049 C 374.63867919581395,69.50000000000051 376.5386791958139,71.00000000000051 377.838679195814,72.90000000000049 C 381.338679195814,77.90000000000049 380.03867919581404,82.80000000000047 374.738679195814,86.00000000000051 C 373.938679195814,86.50000000000051 373.0386791958139,86.90000000000049 371.938679195814,87.60000000000053 C 373.238679195814,88.30000000000052 374.238679195814,88.90000000000055 375.238679195814,89.50000000000051 C 378.0386791958139,91.10000000000053 379.738679195814,93.50000000000051 380.238679195814,96.60000000000053 C 380.738679195814,100.00000000000051 380.838679195814,103.40000000000055 380.338679195814,106.90000000000055 C 380.03867919581404,106.00000000000057 379.63867919581395,105.10000000000053 379.53867919581404,104.10000000000053 C 379.2386791958141,101.80000000000052 379.2386791958141,99.50000000000051 378.938679195814,97.20000000000056 C 378.338679195814,93.00000000000051 375.53867919581404,90.7000000000005 371.13867919581395,88.90000000000049 M 24.638679195814007,259.5000000000005 C 28.638679195814007,255.4000000000005 32.338679195813995,251.10000000000053 36.63867919581401,247.5000000000005 C 42.038679195813984,243.0000000000005 48.538679195813984,240.80000000000047 55.63867919581401,242.9000000000005 C 57.63867919581401,243.5000000000005 59.63867919581401,244.60000000000053 61.23867919581403,245.9000000000005 C 65.73867919581403,249.70000000000044 65.83867919581405,254.20000000000044 61.83867919581405,258.4000000000005 C 61.23867919581403,259.0000000000005 60.63867919581406,259.60000000000053 60.03867919581404,260.10000000000053 C 58.53867919581404,261.3000000000006 58.73867919581403,262.60000000000053 59.43867919581402,264.10000000000053 C 59.93867919581402,265.0000000000005 60.53867919581404,265.8000000000006 61.03867919581404,266.60000000000053 C 63.43867919581402,271.5000000000005 61.73867919581403,276.3000000000006 56.73867919581403,278.60000000000053 C 51.03867919581404,281.20000000000056 45.63867919581401,279.8000000000006 40.43867919581402,277.10000000000053 C 36.03867919581404,274.8000000000006 32.838679195813995,271.20000000000056 29.938679195814018,267.3000000000006 C 28.238679195813972,265.10000000000053 26.738679195813972,262.70000000000056 24.638679195814007,259.5000000000005 M 320.03867919581404,107.90000000000049 C 320.63867919581406,106.80000000000047 320.838679195814,106.30000000000047 321.13867919581406,105.80000000000047 C 321.63867919581406,106.40000000000049 322.03867919581404,107.00000000000045 322.63867919581406,107.80000000000047 C 323.438679195814,107.10000000000048 324.13867919581406,106.50000000000045 324.938679195814,105.90000000000049 C 329.938679195814,102.10000000000048 335.738679195814,103.50000000000051 338.63867919581406,109.10000000000048 C 340.63867919581406,113.00000000000045 340.63867919581406,117.2000000000005 339.3386791958141,121.2000000000005 C 338.53867919581415,123.7000000000005 337.43867919581413,126.30000000000052 335.8386791958141,128.30000000000052 C 332.03867919581415,132.90000000000055 327.7386791958141,137.10000000000053 323.53867919581415,141.5000000000005 C 316.43867919581413,137.4000000000005 309.8386791958141,133.60000000000053 305.7386791958142,126.80000000000052 C 302.8386791958142,122.00000000000051 301.03867919581415,116.80000000000052 303.43867919581425,111.2000000000005 C 304.3386791958142,109.10000000000048 305.7386791958142,107.10000000000048 307.43867919581425,105.60000000000048 C 310.53867919581427,102.7000000000005 314.53867919581427,102.80000000000047 317.8386791958142,105.50000000000045 C 318.63867919581395,106.00000000000051 319.238679195814,106.90000000000049 320.03867919581404,107.90000000000049 M 380.53867919581404,301.10000000000053 C 377.338679195814,296.0000000000005 373.938679195814,291.4000000000005 371.338679195814,286.5000000000005 C 368.13867919581395,280.4000000000005 368.438679195814,274.0000000000005 371.238679195814,267.80000000000047 C 372.938679195814,264.0000000000005 376.0386791958139,262.0000000000005 380.238679195814,261.70000000000044 C 383.63867919581395,261.5000000000004 386.338679195814,262.6000000000004 388.13867919581395,265.70000000000044 C 390.13867919581395,269.0000000000004 390.63867919581395,269.1000000000004 394.5386791958139,267.9000000000005 C 400.63867919581395,266.0000000000005 405.5386791958139,269.4000000000005 405.9386791958139,275.70000000000044 C 406.3386791958139,282.6000000000004 403.0386791958139,287.80000000000047 397.8386791958139,291.9000000000005 C 396.13867919581384,293.20000000000044 394.3386791958139,294.5000000000005 392.4386791958139,295.5000000000005 C 388.838679195814,297.4000000000005 385.03867919581404,299.0000000000005 380.53867919581404,301.10000000000053 M 275.13867919581395,189.20000000000056 C 274.63867919581395,192.80000000000058 274.238679195814,196.4000000000006 273.738679195814,200.0000000000005 C 273.5386791958139,201.4000000000005 273.0386791958139,202.70000000000056 271.438679195814,202.80000000000047 C 265.338679195814,203.30000000000047 259.238679195814,205.10000000000042 253.23867919581397,202.80000000000047 C 250.13867919581395,201.60000000000042 247.23867919581397,200.10000000000042 244.53867919581393,198.30000000000047 C 242.13867919581395,196.70000000000044 240.83867919581388,194.10000000000042 240.33867919581388,191.20000000000044 C 239.4386791958139,186.20000000000044 241.4386791958139,182.80000000000047 246.33867919581388,181.5000000000004 C 246.9386791958139,181.30000000000035 247.63867919581384,181.0000000000004 248.23867919581386,181.0000000000004 C 250.4386791958139,180.80000000000035 251.23867919581386,179.60000000000042 251.4386791958139,177.40000000000038 C 252.23867919581386,169.40000000000038 258.5386791958139,166.10000000000042 265.63867919581395,170.0000000000004 C 271.13867919581395,173.0000000000004 273.838679195814,178.10000000000042 274.738679195814,184.10000000000042 C 274.938679195814,185.70000000000044 274.738679195814,187.40000000000038 274.738679195814,189.10000000000042 C 274.938679195814,189.20000000000056 275.03867919581404,189.20000000000056 275.13867919581395,189.20000000000056 M 417.03867919581404,121.90000000000049 C 411.53867919581404,127.7000000000005 406.13867919581406,133.30000000000047 398.2386791958141,135.5000000000005 C 394.7386791958141,136.5000000000005 391.3386791958141,136.30000000000052 388.03867919581404,134.9000000000005 C 382.2386791958141,132.5000000000005 378.338679195814,123.80000000000047 385.7386791958141,119.60000000000048 C 385.93867919581413,119.50000000000045 385.93867919581413,119.00000000000045 386.13867919581406,118.60000000000048 C 384.8386791958141,118.00000000000045 383.53867919581404,117.50000000000045 382.13867919581406,116.90000000000049 C 382.13867919581406,116.7000000000005 382.13867919581406,116.60000000000048 382.2386791958141,116.40000000000049 C 383.53867919581404,116.60000000000048 384.7386791958141,116.7000000000005 385.93867919581413,116.90000000000049 C 386.1386791958142,116.40000000000049 386.3386791958141,116.10000000000048 386.3386791958141,115.80000000000047 C 386.2386791958141,115.30000000000047 385.93867919581413,114.90000000000049 385.7386791958141,114.40000000000049 C 383.3386791958141,108.7000000000005 386.03867919581404,103.60000000000048 392.2386791958141,102.7000000000005 C 395.93867919581413,102.2000000000005 399.53867919581404,102.7000000000005 402.8386791958141,104.60000000000048 C 407.03867919581415,107.00000000000045 410.2386791958141,110.30000000000047 412.7386791958141,114.30000000000047 C 414.13867919581395,116.80000000000052 415.53867919581404,119.30000000000052 417.03867919581404,121.90000000000049 M 282.03867919581404,218.9000000000005 C 287.63867919581406,219.80000000000047 293.13867919581406,219.4000000000005 298.338679195814,221.70000000000044 C 302.53867919581404,223.60000000000042 306.13867919581395,226.10000000000042 307.838679195814,230.70000000000044 C 309.838679195814,236.10000000000042 307.238679195814,241.10000000000042 301.53867919581404,241.80000000000047 C 298.7386791958141,242.10000000000042 297.2386791958141,242.9000000000005 296.338679195814,245.80000000000047 C 294.63867919581395,250.9000000000005 289.738679195814,252.4000000000005 284.938679195814,249.9000000000005 C 280.03867919581404,247.30000000000047 278.03867919581404,242.9000000000005 277.53867919581404,237.70000000000044 C 277.13867919581395,232.10000000000053 278.63867919581395,226.0000000000005 282.03867919581404,218.9000000000005 M 393.438679195814,176.10000000000053 C 390.13867919581406,172.10000000000053 386.838679195814,168.5000000000005 384.13867919581406,164.60000000000053 C 381.03867919581404,160.10000000000053 380.8386791958141,154.9000000000005 382.8386791958141,149.80000000000058 C 384.93867919581413,144.6000000000006 391.8386791958141,141.70000000000056 396.13867919581406,146.9000000000006 C 397.03867919581404,148.00000000000063 400.03867919581404,148.50000000000063 401.438679195814,148.00000000000063 C 407.03867919581404,146.00000000000063 411.338679195814,148.80000000000058 411.838679195814,154.80000000000058 C 412.13867919581395,159.00000000000063 410.63867919581395,162.60000000000053 407.838679195814,165.70000000000056 C 403.938679195814,170.0000000000005 398.938679195814,172.70000000000056 393.438679195814,176.10000000000053 M 265.238679195814,156.70000000000056 C 264.838679195814,156.60000000000053 264.63867919581395,156.5000000000005 264.5386791958139,156.5000000000005 C 261.5386791958139,157.0000000000005 258.63867919581395,156.80000000000047 257.13867919581395,153.9000000000005 C 255.73867919581397,151.10000000000053 256.13867919581395,148.10000000000053 257.738679195814,145.30000000000047 C 259.5386791958139,142.10000000000048 262.238679195814,139.9000000000005 265.63867919581395,138.9000000000005 C 269.738679195814,137.7000000000005 273.9386791958139,136.80000000000047 278.338679195814,135.7000000000005 C 281.938679195814,141.9000000000005 283.738679195814,148.20000000000056 282.53867919581404,155.0000000000005 C 281.7386791958141,159.10000000000053 279.2386791958141,162.20000000000056 275.03867919581404,163.60000000000053 C 271.438679195814,164.80000000000058 269.13867919581406,163.9000000000005 267.2386791958141,160.5000000000005 C 266.53867919581404,159.10000000000053 265.838679195814,157.80000000000047 265.238679195814,156.70000000000056 M 337.438679195814,70.2000000000005 C 333.438679195814,66.10000000000048 330.13867919581406,62.00000000000051 328.938679195814,56.60000000000048 C 327.938679195814,52.2000000000005 328.838679195814,48.300000000000466 332.438679195814,45.40000000000049 C 335.238679195814,43.2000000000005 337.938679195814,43.2000000000005 340.438679195814,45.800000000000466 C 342.03867919581404,47.500000000000455 343.938679195814,47.500000000000455 345.838679195814,47.40000000000049 C 350.738679195814,47.2000000000005 352.938679195814,49.00000000000051 353.03867919581404,53.800000000000466 C 353.13867919581406,58.000000000000455 351.2386791958141,61.300000000000466 348.03867919581404,63.60000000000048 C 344.738679195814,66.10000000000053 341.03867919581404,68.00000000000051 337.438679195814,70.2000000000005 M 253.23867919581397,4.7000000000005 C 257.338679195814,5.900000000000489 261.0386791958139,6.800000000000523 264.63867919581395,8.000000000000512 C 268.238679195814,9.300000000000523 270.838679195814,11.900000000000489 272.238679195814,15.500000000000512 C 273.738679195814,19.100000000000534 272.738679195814,23.00000000000051 269.738679195814,24.800000000000523 C 268.63867919581395,25.400000000000546 267.13867919581395,25.900000000000546 266.0386791958139,25.600000000000534 C 263.63867919581395,24.900000000000546 262.13867919581395,25.400000000000546 260.5386791958139,27.50000000000051 C 257.738679195814,31.2000000000005 253.23867919581397,30.800000000000523 250.53867919581393,27.00000000000051 C 248.03867919581393,23.50000000000051 247.83867919581388,19.40000000000049 248.9386791958139,15.500000000000512 C 249.93867919581402,11.900000000000489 251.73867919581397,8.500000000000512 253.23867919581397,4.7000000000005 M 286.738679195814,120.00000000000051 C 291.238679195814,119.40000000000049 295.0386791958139,120.40000000000049 298.738679195814,122.00000000000051 C 301.738679195814,123.30000000000052 303.838679195814,125.60000000000053 305.0386791958139,128.7000000000005 C 306.8386791958139,133.30000000000052 304.3386791958139,137.30000000000052 299.4386791958139,137.30000000000052 C 297.3386791958139,137.30000000000052 296.13867919581395,137.90000000000055 294.9386791958139,139.5000000000005 C 291.8386791958139,143.30000000000052 287.3386791958139,142.80000000000052 284.8386791958139,138.4000000000005 C 282.9386791958139,135.0000000000005 282.9386791958139,131.30000000000047 283.8386791958139,127.7000000000005 C 284.53867919581404,125.10000000000053 285.838679195814,122.60000000000053 286.738679195814,120.00000000000051 M 106.03867919581398,288.5000000000005 C 105.93867919581396,297.5000000000005 104.53867919581398,298.60000000000053 96.138679195814,297.30000000000047 C 93.43867919581402,296.9000000000005 90.93867919581402,296.1000000000004 89.138679195814,294.0000000000005 C 85.93867919581402,290.4000000000005 86.838679195814,286.70000000000056 91.23867919581403,284.70000000000056 C 92.43867919581402,284.10000000000053 93.43867919581402,282.9000000000006 94.138679195814,281.70000000000056 C 96.338679195814,278.3000000000006 99.73867919581403,277.60000000000053 102.73867919581403,280.3000000000006 C 105.138679195814,282.60000000000053 106.23867919581397,285.5000000000005 106.03867919581398,288.5000000000005 M 150.93867919581402,378.30000000000047 C 142.03867919581404,383.80000000000047 133.23867919581403,384.30000000000047 124.43867919581402,377.9000000000005 C 119.93867919581402,374.60000000000053 115.43867919581402,371.10000000000053 109.53867919581404,370.10000000000053 C 110.03867919581404,367.4000000000005 111.13867919581406,366.3000000000006 113.33867919581405,367.3000000000006 C 114.53867919581404,367.8000000000006 115.63867919581406,368.60000000000053 116.73867919581403,369.4000000000006 C 119.638679195814,371.60000000000065 122.73867919581403,373.70000000000056 125.53867919581404,376.0000000000006 C 131.63867919581406,381.20000000000067 138.43867919581402,381.60000000000065 145.63867919581406,379.10000000000065 C 147.2386791958141,378.60000000000065 148.83867919581405,378.20000000000067 150.43867919581407,377.70000000000067 C 150.638679195814,377.9000000000005 150.73867919581397,378.10000000000053 150.93867919581402,378.30000000000047 M 84.338679195814,320.4000000000005 C 79.53867919581398,317.70000000000044 77.53867919581398,313.5000000000005 77.53867919581398,308.10000000000053 C 77.53867919581398,303.5000000000005 77.43867919581396,298.9000000000005 77.338679195814,293.9000000000005 C 78.53867919581398,293.20000000000044 79.73867919581397,293.5000000000005 79.838679195814,295.60000000000053 C 79.93867919581402,298.20000000000056 80.03867919581398,300.9000000000005 79.73867919581397,303.5000000000005 C 78.93867919581396,309.80000000000047 80.43867919581396,315.30000000000047 85.03867919581398,319.80000000000047 C 84.73867919581397,319.9000000000005 84.53867919581398,320.20000000000056 84.338679195814,320.4000000000005 M 320.738679195814,52.00000000000051 C 325.338679195814,53.2000000000005 327.0386791958139,57.00000000000051 328.63867919581395,60.80000000000052 C 330.238679195814,64.60000000000053 331.738679195814,68.40000000000055 333.4386791958139,72.60000000000053 C 332.63867919581395,73.40000000000055 331.5386791958139,73.50000000000051 330.5386791958139,72.20000000000056 C 330.0386791958139,71.40000000000055 329.63867919581395,70.40000000000055 329.4386791958139,69.50000000000057 C 327.738679195814,63.00000000000051 325.438679195814,56.90000000000049 320.738679195814,52.00000000000051 L 320.738679195814,52.00000000000051 M 109.93867919581402,207.70000000000056 C 113.73867919581403,201.9000000000006 112.93867919581402,195.70000000000056 111.638679195814,189.5000000000005 C 111.338679195814,187.9000000000005 111.338679195814,186.20000000000056 111.53867919581398,184.5000000000005 C 111.638679195814,183.80000000000047 112.638679195814,183.30000000000047 113.53867919581398,182.30000000000047 C 113.93867919581396,187.9000000000005 114.53867919581398,193.0000000000005 114.638679195814,198.0000000000005 C 114.73867919581397,201.9000000000005 113.23867919581397,205.30000000000047 109.93867919581402,207.70000000000056 M 23.938679195814018,238.20000000000056 C 21.438679195814018,243.5000000000005 16.638679195814007,245.20000000000056 11.438679195814018,245.9000000000006 C 7.738679195814029,246.4000000000006 4.038679195814041,246.80000000000058 0.03867919581404067,247.30000000000058 C -0.2613208041859707,245.60000000000053 1.2386791958140293,245.10000000000053 2.6386791958140634,244.9000000000006 C 5.138679195814063,244.50000000000063 7.638679195814063,244.00000000000063 10.03867919581404,244.10000000000065 C 15.73867919581403,244.3000000000007 19.938679195814018,241.8000000000007 23.438679195814018,237.70000000000067 C 23.538679195813984,237.9000000000005 23.738679195813972,238.10000000000053 23.938679195814018,238.20000000000056 M 252.73867919581397,93.00000000000051 C 249.43867919581402,93.30000000000052 246.63867919581395,91.7000000000005 245.13867919581395,89.10000000000053 C 242.838679195814,85.20000000000056 241.338679195814,80.90000000000055 240.23867919581397,76.20000000000056 C 240.838679195814,76.60000000000053 241.53867919581393,76.90000000000055 241.838679195814,77.40000000000055 C 242.338679195814,78.20000000000056 242.73867919581397,79.20000000000056 242.93867919581402,80.20000000000056 C 244.23867919581397,85.90000000000049 247.43867919581402,90.2000000000005 252.73867919581397,93.00000000000051 L 252.73867919581397,93.00000000000051 M 323.238679195814,349.10000000000053 C 327.338679195814,345.10000000000053 331.438679195814,345.4000000000005 335.5386791958139,346.3000000000006 C 338.738679195814,346.9000000000006 341.738679195814,348.3000000000006 346.13867919581395,349.70000000000056 C 344.0386791958139,350.0000000000005 342.9386791958139,350.3000000000006 342.0386791958139,350.10000000000053 C 340.238679195814,349.70000000000056 338.63867919581395,348.9000000000005 336.8386791958139,348.3000000000006 C 333.13867919581384,346.9000000000006 329.4386791958139,346.60000000000053 325.73867919581386,348.5000000000006 C 325.338679195814,348.70000000000056 324.738679195814,348.70000000000056 323.238679195814,349.10000000000053 M 53.23867919581397,86.30000000000052 C 56.43867919581396,79.40000000000055 64.23867919581397,81.7000000000005 69.63867919581395,78.7000000000005 C 69.23867919581397,79.30000000000052 68.83867919581394,80.30000000000052 68.33867919581394,80.50000000000051 C 66.63867919581395,81.2000000000005 64.93867919581396,81.7000000000005 63.13867919581395,81.90000000000049 C 59.338679195813995,82.40000000000049 56.13867919581401,83.90000000000049 53.23867919581397,86.30000000000052 M 55.73867919581397,298.0000000000005 C 56.338679195813995,294.80000000000047 58.63867919581395,293.20000000000056 61.43867919581396,292.30000000000047 C 64.83867919581394,291.20000000000044 68.33867919581394,290.4000000000005 72.63867919581395,289.30000000000047 C 71.63867919581395,290.4000000000005 71.13867919581395,291.20000000000044 70.43867919581396,291.5000000000005 C 69.23867919581397,292.0000000000005 67.93867919581396,292.20000000000056 66.53867919581398,292.4000000000005 C 62.338679195813995,293.20000000000056 58.73867919581397,295.0000000000005 55.73867919581397,298.0000000000005 L 55.73867919581397,298.0000000000005"/>
</svg>
