<?xml version="1.0" ?>
<svg xmlns="http://www.w3.org/2000/svg" xmlns:ev="http://www.w3.org/2001/xml-events" xmlns:xlink="http://www.w3.org/1999/xlink" baseProfile="full" height="598" id="Слой_1" style="enable-background:new 0 0 1280 1280;" transform="scale(0.18691588785046728 0.18691588785046728) translate(-267.5 -299.0)" version="1.1" viewBox="0 0 535 598" width="535" x="0px" xml:space="preserve" y="0px">
	<defs/>
	<path d="M 252.19999999999987,597.7 C 233.39999999999992,596.8000000000001 215.59999999999985,593.9000000000001 197.7999999999999,589.8000000000001 C 198.4999999999999,581.3000000000001 199.0999999999999,573.2 199.7999999999999,565.2 C 201.2999999999999,547.3000000000001 202.89999999999992,529.4000000000001 204.39999999999992,511.6 C 205.5999999999999,497.20000000000005 206.69999999999993,482.80000000000007 207.89999999999992,468.4 C 209.0999999999999,453.0 210.39999999999992,437.6 211.49999999999994,422.19999999999993 C 212.19999999999993,411.9 212.49999999999994,401.5999999999999 213.49999999999994,391.29999999999995 C 214.69999999999993,379.29999999999995 210.09999999999997,369.5999999999999 202.69999999999993,360.69999999999993 C 192.39999999999992,348.29999999999995 180.0999999999999,338.0999999999999 166.5999999999999,329.4999999999999 C 146.9999999999999,317.0999999999999 129.4999999999999,302.0999999999999 111.09999999999991,288.0999999999999 C 105.89999999999992,284.19999999999993 100.89999999999992,280.0999999999999 95.7999999999999,276.0999999999999 C 94.89999999999992,275.39999999999986 93.89999999999992,274.69999999999993 93.19999999999987,273.79999999999995 C 91.7999999999999,272.19999999999993 91.49999999999989,270.19999999999993 92.99999999999989,268.9 C 94.19999999999987,267.9 96.19999999999987,267.4 97.7999999999999,267.5 C 99.09999999999991,267.6 100.2999999999999,269.0 101.49999999999989,269.79999999999995 C 112.09999999999991,277.5 122.89999999999986,285.0 133.19999999999987,293.0999999999999 C 142.7999999999999,300.5999999999999 153.59999999999985,304.39999999999986 165.59999999999985,305.9999999999999 C 182.89999999999986,308.29999999999984 199.29999999999984,306.0999999999999 215.19999999999987,298.69999999999993 C 218.89999999999992,296.9999999999999 220.49999999999983,294.5999999999999 221.49999999999983,290.69999999999993 C 224.49999999999983,279.0999999999999 227.8999999999998,267.69999999999993 231.3999999999998,256.29999999999995 C 232.59999999999985,252.5 234.49999999999983,249.0 236.3999999999998,245.5 C 237.3999999999998,243.60000000000002 238.69999999999976,241.5 241.3999999999998,242.20000000000005 C 244.19999999999976,242.9000000000001 245.3999999999998,244.9000000000001 245.19999999999976,247.80000000000007 C 244.69999999999976,256.1 244.49999999999972,264.4000000000001 243.79999999999978,272.70000000000005 C 242.8999999999998,284.1 241.49999999999983,295.5 240.59999999999974,306.9000000000001 C 240.09999999999974,312.80000000000007 242.99999999999972,317.70000000000005 246.79999999999978,321.70000000000005 C 251.09999999999974,326.20000000000005 252.29999999999978,331.0 252.29999999999978,337.0 C 252.19999999999976,421.79999999999995 252.19999999999976,506.6 252.19999999999976,591.5 C 252.19999999999987,593.3000000000001 252.19999999999987,595.1 252.19999999999987,597.7 M 288.1999999999999,597.9 C 288.1999999999999,595.9 288.1999999999999,594.6 288.1999999999999,593.3 C 288.1999999999999,506.79999999999995 288.1999999999999,420.29999999999995 288.09999999999985,333.79999999999995 C 288.09999999999985,329.9 288.7999999999999,326.69999999999993 291.6999999999999,323.9 C 298.99999999999983,316.69999999999993 299.99999999999983,308.0 298.8999999999999,298.19999999999993 C 297.1999999999999,282.9 296.2999999999999,267.4 295.09999999999997,251.9999999999999 C 294.99999999999994,250.19999999999993 295.2,248.29999999999984 295.09999999999997,246.4999999999999 C 294.99999999999994,243.9999999999999 296.59999999999997,242.5999999999999 298.59999999999997,242.29999999999984 C 299.8999999999999,242.0999999999998 301.8999999999999,242.9999999999999 302.7,244.0999999999998 C 304.49999999999994,246.5999999999998 306.2,249.39999999999975 307.2,252.39999999999975 C 311.3,265.4999999999998 315.3,278.6999999999997 319.09999999999997,291.9999999999998 C 319.8999999999999,294.89999999999975 321.09999999999997,296.6999999999998 323.99999999999994,298.1999999999998 C 345.2,308.9999999999998 367.2,308.79999999999984 389.49999999999994,302.79999999999984 C 393.99999999999994,301.5999999999998 398.2999999999999,298.79999999999984 402.2,296.0999999999998 C 413.90000000000003,287.89999999999975 425.40000000000003,279.39999999999975 436.99999999999994,270.9999999999998 C 438.7,269.6999999999998 440.3999999999999,268.0999999999998 442.3999999999999,267.4999999999998 C 443.7999999999999,267.0999999999998 446.2999999999999,267.6999999999998 447.09999999999997,268.6999999999998 C 447.8999999999999,269.6999999999998 447.59999999999997,272.0999999999998 446.99999999999994,273.5999999999998 C 446.49999999999994,274.79999999999984 444.8999999999999,275.6999999999998 443.7999999999999,276.5999999999998 C 426.7999999999999,289.9999999999998 409.8999999999999,303.4999999999998 392.7999999999999,316.5999999999998 C 385.99999999999994,321.79999999999984 378.3999999999999,326.0999999999998 371.2999999999999,331.0999999999998 C 358.7999999999999,339.89999999999975 346.8999999999999,349.4999999999998 337.09999999999985,361.4999999999998 C 330.09999999999985,370.0999999999998 326.09999999999985,379.2999999999997 327.09999999999985,390.7999999999997 C 328.7999999999999,409.9999999999998 329.6999999999999,429.2999999999997 331.09999999999985,448.4999999999998 C 332.09999999999985,463.0999999999998 333.2999999999999,477.6999999999998 334.49999999999983,492.2999999999997 C 336.2999999999998,513.7999999999997 338.1999999999999,535.3999999999997 339.99999999999983,556.8999999999997 C 340.8999999999998,567.9999999999998 341.7999999999998,578.9999999999998 342.7999999999998,590.4999999999998 C 324.49999999999994,594.6 306.7999999999999,597.0 288.1999999999999,597.9 M 230.59999999999997,137.40000000000003 C 232.99999999999994,142.40000000000003 235.2,146.60000000000002 237.2,150.90000000000003 C 242.3,161.70000000000005 246.49999999999994,172.90000000000003 249.59999999999997,184.50000000000006 C 253.89999999999992,200.60000000000002 249.3,216.20000000000005 235.2,230.5000000000001 C 233.90000000000003,209.20000000000016 232.7,187.9000000000001 231.40000000000003,166.60000000000014 C 230.90000000000003,166.60000000000014 230.3,166.60000000000014 229.8,166.60000000000014 C 227.90000000000003,187.80000000000018 225.59999999999997,208.9000000000001 226.40000000000003,230.5000000000001 C 225.7,230.4000000000001 225.10000000000008,230.4000000000001 224.90000000000003,230.20000000000016 C 217.50000000000006,222.10000000000014 211.50000000000006,213.10000000000014 210.10000000000002,202.0000000000001 C 209.5,197.0000000000001 209.8,191.70000000000016 210.70000000000005,186.70000000000016 C 212.89999999999992,174.20000000000005 222.7999999999999,150.0 230.59999999999997,137.40000000000003 M 88.99999999999994,110.40000000000003 C 89.49999999999994,110.50000000000006 89.69999999999993,110.40000000000003 89.79999999999995,110.50000000000006 C 103.19999999999993,123.20000000000005 115.79999999999995,136.80000000000007 124.59999999999997,153.20000000000005 C 132.59999999999997,168.00000000000006 129.2,182.60000000000002 122.49999999999994,196.9000000000001 C 115.79999999999995,176.10000000000008 107.09999999999997,156.2000000000001 98.19999999999993,136.4000000000001 C 97.79999999999995,136.5000000000001 97.29999999999995,136.7000000000001 96.89999999999992,136.80000000000007 C 102.39999999999992,157.70000000000005 107.99999999999994,178.70000000000005 113.49999999999994,199.70000000000005 C 112.99999999999994,199.5 111.99999999999994,199.20000000000005 111.19999999999993,198.60000000000002 C 105.99999999999994,194.5 100.49999999999994,190.70000000000005 95.79999999999995,186.10000000000002 C 88.89999999999998,179.20000000000005 86.09999999999997,170.40000000000003 85.49999999999994,160.8 C 84.59999999999991,144.8 85.69999999999993,128.0 88.99999999999994,110.40000000000003 M 1.1999999999999318,196.20000000000005 C 19.699999999999932,198.80000000000007 36.69999999999993,202.0 52.99999999999994,208.60000000000002 C 65.39999999999992,213.70000000000005 72.99999999999994,223.0 77.49999999999994,235.20000000000005 C 78.79999999999995,238.70000000000005 79.69999999999993,242.4000000000001 80.89999999999992,246.30000000000007 C 61.99999999999994,234.60000000000002 43.49999999999994,223.20000000000005 24.999999999999943,211.80000000000007 C 24.699999999999932,212.20000000000005 24.499999999999943,212.60000000000002 24.199999999999932,212.9000000000001 C 29.59999999999991,217.5000000000001 34.99999999999994,222.10000000000014 40.49999999999994,226.70000000000005 C 46.299999999999955,231.5 51.99999999999994,236.20000000000005 57.99999999999994,240.80000000000007 C 63.69999999999993,245.20000000000005 69.69999999999993,249.4000000000001 75.99999999999994,254.0000000000001 C 57.099999999999966,256.70000000000016 40.799999999999955,253.60000000000014 28.299999999999955,238.4000000000001 C 17.699999999999932,225.80000000000007 9.199999999999932,211.89999999999998 1.1999999999999318,196.20000000000005 M 308.09999999999997,231.30000000000007 C 308.99999999999994,209.10000000000002 306.59999999999997,187.9000000000001 304.2,166.70000000000005 C 301.7,187.9000000000001 299.49999999999994,209.0 300.2,231.10000000000002 C 298.90000000000003,230.0 297.90000000000003,229.5 297.3,228.70000000000005 C 289.2,219.10000000000002 282.90000000000003,208.60000000000002 283.40000000000003,195.5 C 283.6000000000001,190.29999999999995 284.8,185.0 286.2,179.89999999999998 C 290.2,165.29999999999995 296.49999999999994,151.59999999999997 304.59999999999997,137.59999999999997 C 304.8,138.2 304.99999999999994,138.89999999999998 305.2,139.49999999999994 C 312.8,154.49999999999994 319.49999999999994,169.79999999999995 323.59999999999997,186.0999999999999 C 328.49999999999994,204.60000000000002 318.49999999999994,221.70000000000005 308.09999999999997,231.30000000000007 M 459.49999999999994,254.10000000000002 C 476.49999999999994,240.60000000000002 493.59999999999997,227.0 510.7,213.39999999999998 C 510.40000000000003,213.0 510.2,212.60000000000002 509.90000000000003,212.19999999999993 C 491.00000000000006,222.9999999999999 472.00000000000006,233.69999999999993 454.2,246.4999999999999 C 457.40000000000003,231.29999999999984 463.2,217.79999999999984 478.09999999999997,210.29999999999984 C 487.99999999999994,205.29999999999984 498.59999999999997,202.5999999999998 509.3,200.29999999999984 C 516.9000000000001,198.69999999999982 524.5999999999999,197.4999999999999 532.0999999999999,196.19999999999982 C 532.3999999999999,196.99999999999977 532.7,197.29999999999984 532.5999999999999,197.49999999999977 C 525.0999999999999,212.39999999999975 516.3999999999999,226.49999999999977 505.59999999999997,239.19999999999982 C 494.7,251.99999999999977 480.59999999999997,255.89999999999986 464.49999999999994,254.69999999999982 C 462.6999999999999,254.60000000000002 460.8999999999999,254.30000000000007 459.49999999999994,254.10000000000002 M 420.7999999999999,200.10000000000002 C 427.59999999999985,178.8 432.2999999999999,157.70000000000005 436.99999999999994,136.60000000000002 C 436.59999999999997,136.5 436.09999999999997,136.3 435.7,136.20000000000005 C 427.7,156.30000000000007 419.7,176.50000000000006 411.59999999999997,196.70000000000005 C 408.59999999999997,191.70000000000005 407.2,185.70000000000005 405.99999999999994,179.60000000000002 C 403.7,168.40000000000003 406.2999999999999,158.20000000000005 412.2999999999999,148.70000000000005 C 421.1999999999999,134.50000000000006 432.3999999999999,122.30000000000007 444.2999999999999,110.70000000000005 C 444.49999999999994,110.50000000000006 444.8999999999999,110.50000000000006 445.49999999999994,110.40000000000003 C 448.59999999999997,128.10000000000002 450.2999999999999,145.90000000000003 448.49999999999994,163.8 C 447.2,177.10000000000002 439.8999999999999,186.89999999999998 429.3999999999999,194.60000000000002 C 426.6999999999999,196.5 423.6999999999999,198.20000000000005 420.7999999999999,200.10000000000002 M 252.2999999999999,125.5 C 253.09999999999985,103.80000000000001 251.69999999999987,82.19999999999999 249.49999999999994,60.69999999999999 C 249.09999999999997,60.69999999999999 248.59999999999997,60.69999999999999 248.2,60.69999999999999 C 246.59999999999997,82.19999999999999 244.99999999999994,103.59999999999997 243.49999999999994,125.19999999999999 C 243.09999999999997,124.89999999999998 242.2,124.30000000000001 241.59999999999997,123.5 C 238.59999999999997,119.10000000000002 235.39999999999992,114.89999999999998 232.8,110.19999999999999 C 227.8,101.30000000000001 227.00000000000006,91.59999999999997 229.2,81.69999999999999 C 233.09999999999997,64.5 240.59999999999997,48.80000000000001 248.90000000000003,33.39999999999998 C 249.00000000000006,33.099999999999966 249.40000000000003,33.0 250.00000000000006,32.599999999999966 C 258.3,49.299999999999955 266.00000000000006,66.19999999999999 269.1000000000001,84.69999999999999 C 271.00000000000006,95.89999999999998 267.8000000000001,106.09999999999997 261.40000000000003,115.39999999999998 C 258.90000000000003,119.0 256.00000000000006,122.39999999999998 253.3,125.89999999999998 C 252.99999999999994,125.80000000000001 252.59999999999997,125.70000000000005 252.2999999999999,125.5 M 436.2999999999999,384.4 C 432.2999999999999,383.5 429.09999999999985,383.0 425.99999999999994,382.0 C 417.99999999999994,379.4 409.8999999999999,376.9 401.99999999999994,373.79999999999995 C 390.49999999999994,369.4 384.2999999999999,360.69999999999993 383.49999999999994,348.4 C 383.2999999999999,345.0 383.49999999999994,341.5 383.49999999999994,337.1 C 394.8999999999999,349.0 406.99999999999994,358.80000000000007 419.7999999999999,367.80000000000007 C 410.7999999999999,355.20000000000005 400.99999999999994,343.20000000000005 389.59999999999985,332.4000000000001 C 400.09999999999985,329.60000000000014 416.59999999999985,333.5000000000001 422.49999999999983,344.0000000000001 C 428.3999999999998,354.4000000000001 431.8999999999998,365.60000000000014 434.7999999999998,377.0000000000001 C 435.3999999999999,379.1 435.6999999999999,381.30000000000007 436.2999999999999,384.4 M 115.49999999999994,368.5 C 127.29999999999995,358.4 138.99999999999994,348.29999999999995 150.69999999999993,338.29999999999995 C 153.69999999999993,353.5 147.49999999999994,366.5999999999999 133.49999999999994,373.29999999999995 C 122.49999999999994,378.5999999999999 110.89999999999992,381.79999999999995 98.09999999999997,384.29999999999995 C 98.79999999999995,380.79999999999995 99.19999999999999,377.9 99.99999999999994,375.19999999999993 C 102.59999999999997,367.19999999999993 104.99999999999994,358.9999999999999 108.19999999999993,351.19999999999993 C 113.79999999999995,337.4 120.99999999999994,331.69999999999993 139.79999999999995,331.29999999999995 C 141.19999999999993,331.29999999999995 142.69999999999993,331.5999999999999 145.09999999999997,331.79999999999995 C 133.39999999999998,343.19999999999993 123.49999999999994,355.0999999999999 114.09999999999997,367.29999999999995 C 114.69999999999993,367.70000000000005 115.09999999999991,368.1 115.49999999999994,368.5 M 343.2999999999999,277.5 C 345.09999999999985,260.79999999999995 346.7999999999999,244.70000000000005 348.49999999999994,228.60000000000002 C 348.09999999999997,228.5 347.7,228.5 347.2999999999999,228.39999999999998 C 342.59999999999985,243.89999999999998 337.7999999999999,259.4 335.59999999999985,275.79999999999995 C 326.59999999999985,267.29999999999995 322.49999999999983,252.0 326.8999999999998,242.39999999999998 C 332.8999999999998,229.39999999999998 341.59999999999985,218.5 351.2999999999998,207.39999999999998 C 355.7999999999998,218.10000000000002 358.99999999999983,228.19999999999993 360.99999999999983,238.79999999999995 C 361.3999999999998,240.89999999999998 361.6999999999999,243.0999999999999 361.99999999999983,245.19999999999993 C 363.3999999999998,256.29999999999995 358.8999999999998,264.9 350.6999999999999,271.9 C 348.49999999999994,273.9 345.99999999999994,275.5 343.2999999999999,277.5 M 191.0999999999999,277.20000000000005 C 184.7999999999999,273.5 179.4999999999999,268.70000000000005 175.5999999999999,262.4000000000001 C 172.0999999999999,256.70000000000005 171.69999999999993,250.4000000000001 172.5999999999999,244.10000000000014 C 174.2999999999999,231.70000000000016 177.89999999999992,219.9000000000001 182.89999999999992,208.10000000000014 C 183.5999999999999,208.5000000000001 184.2999999999999,208.70000000000016 184.69999999999993,209.20000000000016 C 192.19999999999993,217.70000000000016 198.99999999999994,226.60000000000014 204.69999999999993,236.5000000000001 C 211.69999999999993,248.5000000000001 210.49999999999994,259.9000000000001 203.0999999999999,271.10000000000014 C 201.9999999999999,272.70000000000016 200.89999999999992,274.3000000000002 199.69999999999993,276.0000000000001 C 195.5999999999999,259.9000000000001 191.69999999999993,244.20000000000016 187.69999999999993,228.4000000000001 C 187.0999999999999,228.5000000000001 186.5999999999999,228.60000000000014 185.99999999999994,228.70000000000005 C 187.69999999999993,244.70000000000005 189.39999999999992,260.70000000000005 191.0999999999999,277.20000000000005 M 320.09999999999997,76.5 C 329.2,88.10000000000002 337.2,99.0 342.2,111.89999999999998 C 344.99999999999994,119.09999999999997 344.90000000000003,126.29999999999995 341.2,133.09999999999997 C 338.90000000000003,137.39999999999998 336.09999999999997,141.59999999999997 333.09999999999997,146.59999999999997 C 329.8,129.59999999999997 326.59999999999997,113.69999999999999 323.49999999999994,97.79999999999995 C 322.8999999999999,97.89999999999998 322.3999999999999,97.89999999999998 321.7999999999999,97.99999999999994 C 322.59999999999985,114.19999999999993 323.49999999999994,130.49999999999994 324.3999999999999,146.89999999999992 C 318.09999999999997,142.39999999999992 312.49999999999994,137.0999999999999 309.09999999999997,129.7999999999999 C 306.99999999999994,125.39999999999992 306.8,120.7999999999999 307.3,116.09999999999991 C 308.8999999999999,102.40000000000003 314.09999999999997,89.90000000000003 320.09999999999997,76.5 M 373.6999999999999,92.80000000000001 C 381.3999999999999,103.80000000000001 388.49999999999983,115.0 392.7999999999999,127.69999999999999 C 395.59999999999985,135.8 394.99999999999994,143.8 390.2999999999999,151.09999999999997 C 387.8999999999999,154.89999999999998 384.99999999999994,158.49999999999994 381.8999999999999,162.7 C 379.6999999999999,145.7 377.59999999999997,129.8 375.49999999999994,113.80000000000001 C 374.99999999999994,113.80000000000001 374.3999999999999,113.90000000000003 373.8999999999999,113.90000000000003 C 373.8999999999999,130.00000000000006 373.8999999999999,146.10000000000002 373.8999999999999,162.3 C 361.99999999999994,155.5 355.99999999999994,141.2 357.6999999999999,132.8 C 360.3999999999999,118.90000000000003 365.99999999999983,106.30000000000001 372.59999999999985,94.0 C 372.6999999999999,93.5 373.09999999999997,93.30000000000001 373.6999999999999,92.80000000000001 M 161.19999999999993,92.30000000000001 C 168.69999999999993,106.30000000000001 175.49999999999994,119.90000000000003 177.0999999999999,135.40000000000003 C 177.4999999999999,139.00000000000006 176.19999999999993,143.00000000000006 174.7999999999999,146.40000000000003 C 171.9999999999999,153.10000000000002 167.0999999999999,158.20000000000005 160.7999999999999,162.90000000000003 C 160.7999999999999,146.20000000000005 160.7999999999999,130.00000000000006 160.7999999999999,113.80000000000001 C 160.39999999999992,113.80000000000001 160.0999999999999,113.80000000000001 159.69999999999987,113.69999999999999 C 156.4999999999999,129.5 154.2999999999999,145.39999999999998 153.39999999999986,161.59999999999997 C 144.09999999999985,155.99999999999994 137.9999999999999,140.89999999999998 140.9999999999999,130.29999999999995 C 144.99999999999994,116.5 152.5999999999999,104.5 161.19999999999993,92.30000000000001 M 167.99999999999994,29.0 C 179.49999999999994,39.19999999999999 190.09999999999997,48.80000000000001 197.29999999999995,61.39999999999998 C 203.29999999999995,71.89999999999998 201.09999999999997,82.39999999999998 196.79999999999995,93.29999999999995 C 190.19999999999993,78.99999999999994 183.89999999999998,64.99999999999994 177.49999999999994,51.099999999999966 C 176.99999999999994,51.299999999999955 176.59999999999997,51.39999999999998 176.09999999999997,51.599999999999966 C 179.99999999999994,66.39999999999998 184.29999999999995,81.09999999999997 189.79999999999995,95.59999999999997 C 178.79999999999995,90.49999999999994 169.79999999999995,83.59999999999997 167.49999999999994,70.99999999999994 C 165.2999999999999,57.400000000000034 166.2999999999999,43.900000000000034 167.99999999999994,29.0 M 353.09999999999997,98.90000000000003 C 353.09999999999997,82.20000000000005 353.09999999999997,66.50000000000006 353.09999999999997,50.80000000000001 C 349.59999999999997,66.19999999999999 347.59999999999997,81.80000000000001 346.8999999999999,98.19999999999999 C 345.7999999999999,97.19999999999999 344.8999999999999,96.59999999999997 344.3999999999999,95.80000000000001 C 336.59999999999997,85.0 334.2999999999999,73.40000000000003 338.8999999999999,60.5 C 342.7999999999999,49.69999999999999 347.59999999999997,39.39999999999998 353.6999999999999,28.600000000000023 C 354.99999999999983,31.600000000000023 356.1999999999999,33.80000000000001 356.8999999999999,36.200000000000045 C 359.8999999999999,46.200000000000045 363.3999999999999,56.10000000000002 365.49999999999994,66.30000000000007 C 368.1999999999999,79.10000000000002 362.3999999999999,89.30000000000001 353.09999999999997,98.90000000000003 M 154.69999999999993,253.89999999999998 C 149.79999999999995,238.19999999999993 145.19999999999993,223.5 140.5999999999999,208.79999999999995 C 140.0999999999999,208.89999999999998 139.69999999999993,209.0 139.19999999999993,209.0999999999999 C 142.19999999999993,224.29999999999995 145.29999999999995,239.39999999999986 148.39999999999992,255.19999999999993 C 139.89999999999992,249.0999999999999 133.69999999999993,241.79999999999995 131.69999999999993,231.79999999999995 C 130.69999999999993,227.0 130.39999999999992,221.89999999999998 130.69999999999993,216.89999999999998 C 131.29999999999995,207.19999999999993 132.49999999999994,197.5 133.39999999999992,187.79999999999995 C 133.89999999999992,187.5 134.49999999999994,187.29999999999995 134.99999999999994,187.0 C 135.69999999999993,188.10000000000002 136.29999999999995,189.20000000000005 137.09999999999997,190.20000000000005 C 144.39999999999998,199.70000000000005 151.49999999999994,209.30000000000007 156.49999999999994,220.30000000000007 C 161.49999999999994,231.70000000000005 159.69999999999993,242.5 154.69999999999993,253.89999999999998 M 201.99999999999994,152.3 C 195.29999999999995,143.0 191.49999999999994,132.90000000000003 194.59999999999997,121.5 C 198.2,108.19999999999999 204.59999999999997,96.30000000000001 211.99999999999994,83.60000000000002 C 213.59999999999997,88.5 215.2,92.5 216.09999999999997,96.5 C 217.89999999999992,104.60000000000002 219.89999999999992,112.69999999999999 220.99999999999994,120.89999999999998 C 222.7,133.89999999999998 217.2999999999999,144.29999999999995 207.89999999999992,153.59999999999997 C 208.7999999999999,137.29999999999995 209.5999999999999,121.59999999999997 210.39999999999992,105.89999999999998 C 210.0999999999999,105.89999999999998 209.7999999999999,105.79999999999995 209.49999999999994,105.79999999999995 C 208.49999999999994,110.79999999999995 207.39999999999992,115.79999999999995 206.49999999999994,120.79999999999995 C 205.59999999999997,125.99999999999994 204.69999999999993,131.29999999999995 203.99999999999994,136.49999999999994 C 203.19999999999993,141.8 202.5999999999999,147.10000000000002 201.99999999999994,152.3 M 268.09999999999997,178.8 C 271.3,162.7 274.3999999999999,147.3 277.49999999999994,131.90000000000003 C 277.09999999999997,131.8 276.7999999999999,131.70000000000005 276.3999999999999,131.60000000000002 C 273.8999999999999,139.10000000000002 271.2999999999999,146.5 268.99999999999994,154.10000000000002 C 266.59999999999997,161.60000000000002 264.49999999999994,169.20000000000005 261.99999999999994,177.60000000000002 C 256.99999999999994,166.5 255.09999999999997,156.0 259.59999999999997,145.20000000000005 C 264.8999999999999,132.50000000000006 273.09999999999997,121.70000000000005 282.49999999999994,110.10000000000002 C 283.2999999999999,115.80000000000001 284.2,120.5 284.7,125.10000000000002 C 285.7,134.0 286.7,142.90000000000003 285.49999999999994,151.90000000000003 C 283.99999999999994,163.60000000000002 277.3999999999999,171.8 268.09999999999997,178.8 M 379.99999999999994,254.30000000000007 C 375.2999999999999,243.60000000000002 373.09999999999997,233.70000000000005 376.99999999999994,223.4000000000001 C 382.09999999999997,209.9000000000001 390.8999999999999,198.70000000000005 399.59999999999997,187.5000000000001 C 399.99999999999994,187.60000000000014 400.49999999999994,187.60000000000014 400.8999999999999,187.70000000000016 C 401.8999999999999,196.5000000000001 403.1999999999999,205.30000000000018 403.6999999999999,214.10000000000014 C 403.99999999999983,219.70000000000016 403.6999999999999,225.4000000000001 402.8999999999999,231.0000000000001 C 401.2999999999999,241.5000000000001 394.6999999999999,248.80000000000007 385.6999999999999,255.70000000000016 C 387.59999999999985,247.20000000000016 389.3999999999999,239.70000000000016 390.8999999999999,232.10000000000014 C 392.3999999999999,224.5000000000001 393.6999999999999,216.80000000000018 394.09999999999997,208.9000000000001 C 391.7,216.20000000000005 389.09999999999997,223.4000000000001 386.8,230.70000000000005 C 384.59999999999997,238.20000000000005 382.49999999999994,245.70000000000005 379.99999999999994,254.30000000000007 M 132.7999999999999,57.0 C 133.4999999999999,61.39999999999998 134.4999999999999,65.69999999999999 134.9999999999999,70.10000000000002 C 136.2999999999999,80.60000000000002 137.69999999999987,91.20000000000005 135.4999999999999,101.80000000000001 C 133.39999999999986,111.80000000000001 126.99999999999989,118.69999999999999 119.19999999999987,124.90000000000003 C 122.09999999999985,109.10000000000002 124.99999999999989,93.70000000000005 127.7999999999999,78.30000000000001 C 127.2999999999999,78.19999999999999 126.7999999999999,78.10000000000002 126.39999999999992,78.0 C 121.99999999999994,92.89999999999998 117.49999999999994,107.69999999999999 113.19999999999993,122.39999999999998 C 107.69999999999993,115.29999999999995 106.29999999999995,101.19999999999999 110.29999999999995,91.29999999999995 C 115.39999999999992,78.60000000000002 123.39999999999992,67.60000000000002 132.7999999999999,57.0 M 404.59999999999997,75.80000000000001 C 407.3999999999999,91.10000000000002 410.2,106.30000000000001 412.99999999999994,121.40000000000003 C 406.7999999999999,118.80000000000001 398.59999999999997,108.50000000000006 397.09999999999997,99.90000000000003 C 396.2,94.50000000000006 395.7,89.00000000000006 396.09999999999997,83.50000000000006 C 396.7,73.80000000000007 398.09999999999997,64.10000000000008 399.09999999999997,54.400000000000034 C 399.59999999999997,54.30000000000001 399.99999999999994,54.200000000000045 400.49999999999994,54.10000000000002 C 402.09999999999997,56.200000000000045 403.8999999999999,58.200000000000045 405.3999999999999,60.5 C 410.3999999999999,68.30000000000001 415.59999999999997,76.0 420.1999999999999,84.10000000000002 C 426.8999999999999,96.10000000000002 425.49999999999983,108.30000000000001 419.59999999999985,120.80000000000001 C 414.99999999999983,105.40000000000003 410.59999999999985,90.40000000000003 406.09999999999985,75.40000000000003 C 405.49999999999994,75.60000000000002 405.09999999999997,75.70000000000005 404.59999999999997,75.80000000000001 M 39.39999999999992,279.1 C 52.49999999999994,279.30000000000007 65.59999999999991,280.1 78.2999999999999,283.5 C 89.09999999999991,286.4 97.7999999999999,294.5 102.49999999999989,305.9 C 87.7999999999999,299.9 73.39999999999986,294.1 58.999999999999886,288.19999999999993 C 58.7999999999999,288.5999999999999 58.59999999999991,288.9999999999999 58.399999999999864,289.4 C 72.09999999999985,296.79999999999995 85.89999999999986,304.19999999999993 99.89999999999986,311.79999999999995 C 89.49999999999989,314.5999999999999 79.29999999999984,315.0999999999999 70.29999999999984,309.0999999999999 C 62.899999999999864,304.19999999999993 56.29999999999984,297.9999999999999 49.69999999999982,291.89999999999986 C 45.69999999999982,288.29999999999984 42.39999999999981,283.89999999999986 38.69999999999982,279.89999999999986 C 38.99999999999994,279.80000000000007 39.19999999999993,279.4 39.39999999999992,279.1 M 495.6999999999999,280.1 C 486.3999999999999,290.9 476.99999999999983,301.6 464.59999999999985,309.1 C 455.1999999999999,314.9 445.09999999999985,314.6 434.3999999999998,311.9 C 448.49999999999983,304.29999999999995 462.19999999999976,296.9 475.8999999999998,289.5 C 475.69999999999976,289.1 475.49999999999983,288.6 475.2999999999998,288.20000000000005 C 460.99999999999983,294.0 446.69999999999976,299.80000000000007 431.59999999999974,305.9000000000001 C 436.59999999999974,295.60000000000014 443.09999999999974,287.60000000000014 453.7999999999998,284.20000000000005 C 459.2999999999998,282.5 465.09999999999974,281.30000000000007 470.7999999999998,280.6 C 478.8999999999998,279.6 486.99999999999983,279.20000000000005 495.09999999999974,278.6 C 495.3999999999999,279.20000000000005 495.49999999999994,279.70000000000005 495.6999999999999,280.1 M 310.1999999999999,75.20000000000005 C 310.6999999999999,61.60000000000002 311.1999999999999,48.900000000000034 311.6999999999999,36.10000000000002 C 311.1999999999999,36.0 310.7999999999999,36.0 310.2999999999999,35.900000000000034 C 308.09999999999985,48.50000000000006 305.99999999999994,61.00000000000006 303.7999999999999,73.50000000000006 C 296.3999999999999,67.40000000000003 293.49999999999994,55.50000000000006 297.09999999999985,45.30000000000007 C 300.6999999999999,35.00000000000006 306.2999999999999,25.90000000000009 313.1999999999999,16.10000000000008 C 314.99999999999983,20.700000000000102 316.7999999999999,24.60000000000008 317.8999999999999,28.60000000000008 C 319.6999999999999,35.00000000000006 321.3999999999999,41.40000000000009 322.59999999999997,47.90000000000009 C 324.7999999999999,59.700000000000045 318.49999999999994,67.80000000000001 310.1999999999999,75.20000000000005 M 107.49999999999994,323.9 C 96.89999999999992,329.79999999999995 86.69999999999993,335.4 76.49999999999994,341.1 C 76.69999999999993,341.5 76.89999999999992,341.9 77.09999999999997,342.4 C 88.29999999999995,339.0 99.09999999999997,334.69999999999993 109.69999999999999,329.5 C 109.30000000000001,338.20000000000005 100.89999999999998,347.4 91.5,349.79999999999995 C 85.0,351.4 66.69999999999999,351.79999999999995 58.5,350.4 C 60.89999999999998,347.19999999999993 62.89999999999998,344.29999999999995 65.19999999999999,341.5 C 69.0,337.1 72.69999999999999,332.6 76.89999999999998,328.6 C 85.89999999999992,320.0 94.99999999999994,318.70000000000005 107.49999999999994,323.9 M 426.3999999999999,323.80000000000007 C 437.3999999999999,319.9000000000001 446.99999999999994,319.20000000000005 455.7999999999999,326.70000000000005 C 463.2999999999999,333.1 469.3999999999999,340.80000000000007 474.99999999999994,348.9000000000001 C 475.2,349.30000000000007 475.2,349.80000000000007 475.3999999999999,350.80000000000007 C 464.09999999999997,351.1 453.09999999999997,352.20000000000005 442.1999999999999,349.4000000000001 C 433.2999999999999,347.0000000000001 427.59999999999985,340.60000000000014 424.2999999999999,329.80000000000007 C 435.2999999999999,334.1 446.1999999999999,338.4000000000001 457.09999999999985,342.70000000000005 C 457.2999999999999,342.20000000000005 457.59999999999985,341.70000000000005 457.7999999999999,341.30000000000007 C 452.7999999999999,338.4000000000001 447.8999999999999,335.30000000000007 442.7999999999999,332.5000000000001 C 437.6999999999999,329.6 432.49999999999994,327.0 426.3999999999999,323.80000000000007 M 72.49999999999994,202.80000000000007 C 64.79999999999995,198.10000000000002 58.89999999999992,192.5000000000001 56.99999999999994,184.20000000000005 C 54.099999999999966,171.50000000000006 56.099999999999966,158.90000000000003 58.299999999999955,145.00000000000006 C 61.89999999999998,149.20000000000005 64.99999999999994,152.30000000000007 67.59999999999997,155.80000000000007 C 71.59999999999997,161.30000000000007 75.69999999999999,166.80000000000007 78.99999999999994,172.70000000000005 C 84.29999999999995,182.10000000000002 82.49999999999994,191.5 78.19999999999993,201.10000000000002 C 73.59999999999991,188.5 69.19999999999993,176.20000000000005 64.69999999999993,164.0 C 64.29999999999995,164.10000000000002 63.799999999999955,164.3 63.39999999999992,164.39999999999998 C 66.39999999999992,176.90000000000003 69.39999999999992,189.5 72.49999999999994,202.80000000000007 M 476.1999999999999,145.10000000000002 C 478.2999999999999,159.0 480.49999999999983,171.8 477.3999999999999,184.60000000000002 C 475.3999999999999,192.70000000000005 469.59999999999997,198.20000000000005 461.99999999999994,202.89999999999998 C 465.2,189.60000000000002 468.09999999999997,177.0 471.09999999999997,164.39999999999998 C 470.7,164.29999999999995 470.2,164.09999999999997 469.8,164.0 C 465.3,176.2 460.90000000000003,188.39999999999998 456.50000000000006,200.5 C 451.2000000000001,192.29999999999995 450.6000000000001,180.60000000000002 455.40000000000003,172.8 C 459.7,165.8 464.8,159.2 469.6000000000001,152.5 C 471.2999999999999,150.10000000000002 473.3999999999999,148.20000000000005 476.1999999999999,145.10000000000002 M 467.1999999999999,88.20000000000005 C 474.1999999999999,94.20000000000005 480.2999999999999,100.40000000000003 485.09999999999985,107.90000000000003 C 488.49999999999983,113.20000000000005 488.49999999999983,118.60000000000002 485.1999999999999,123.80000000000001 C 483.2999999999999,126.80000000000001 480.8999999999999,129.5 478.49999999999983,132.60000000000002 C 475.6999999999999,122.0 472.99999999999983,112.20000000000005 470.3999999999998,102.30000000000001 C 469.8999999999998,102.40000000000003 469.2999999999998,102.5 468.7999999999998,102.60000000000002 C 469.59999999999974,112.60000000000002 470.2999999999998,122.70000000000005 471.09999999999974,132.60000000000002 C 462.2999999999998,131.5 455.2999999999998,122.40000000000003 456.7999999999998,113.60000000000002 C 458.2999999999999,104.5 462.49999999999994,96.40000000000003 467.1999999999999,88.20000000000005 M 56.49999999999994,133.0 C 54.19999999999993,130.2 52.299999999999955,128.2 50.69999999999993,125.89999999999998 C 45.799999999999955,119.0 45.39999999999992,113.29999999999995 50.39999999999992,106.59999999999997 C 55.2999999999999,100.09999999999997 60.89999999999992,94.29999999999995 66.99999999999994,87.29999999999995 C 69.49999999999994,92.09999999999997 71.69999999999993,95.79999999999995 73.19999999999993,99.59999999999997 C 74.99999999999994,104.19999999999999 76.49999999999994,108.99999999999994 77.79999999999995,113.79999999999995 C 79.19999999999993,119.39999999999998 77.19999999999993,123.99999999999994 72.89999999999998,127.49999999999994 C 70.09999999999997,129.79999999999995 67.0,131.59999999999997 63.39999999999998,133.99999999999994 C 64.29999999999995,122.89999999999992 65.0,112.79999999999995 65.79999999999995,102.59999999999997 C 65.39999999999998,102.49999999999994 65.09999999999997,102.39999999999998 64.69999999999993,102.39999999999998 C 60.99999999999994,112.0 58.39999999999992,121.90000000000003 56.49999999999994,133.0 M 279.59999999999997,56.30000000000001 C 279.99999999999994,43.19999999999999 280.3,31.0 280.7,18.80000000000001 C 280.3,18.80000000000001 279.8,18.69999999999999 279.40000000000003,18.69999999999999 C 277.50000000000006,30.80000000000001 275.6000000000001,42.89999999999998 273.7,55.5 C 269.8,50.80000000000001 266.90000000000003,45.69999999999999 266.40000000000003,39.69999999999999 C 266.1000000000001,36.099999999999966 266.3,32.30000000000001 267.3,28.899999999999977 C 270.2,18.599999999999966 275.59999999999997,9.399999999999977 281.8,0.0 C 285.90000000000003,9.399999999999977 288.59999999999997,18.5 290.50000000000006,27.899999999999977 C 292.7999999999999,39.5 288.09999999999997,48.10000000000002 279.59999999999997,56.30000000000001 M 183.49999999999994,365.70000000000005 C 182.49999999999994,371.0 180.99999999999994,375.1 178.29999999999995,378.70000000000005 C 176.09999999999997,381.6 173.19999999999993,383.4000000000001 169.59999999999997,383.9000000000001 C 160.59999999999997,385.20000000000005 151.79999999999995,383.9000000000001 142.2,382.30000000000007 C 147.09999999999997,373.30000000000007 151.8,365.1 159.5,359.0000000000001 C 163.10000000000002,356.10000000000014 167.5,355.9000000000001 171.8,357.10000000000014 C 174.8,357.9000000000001 177.60000000000002,359.10000000000014 181.0,360.3000000000002 C 172.10000000000002,365.5000000000002 163.8,370.3000000000002 155.60000000000002,375.10000000000014 C 155.8,375.5000000000001 156.0,375.8000000000002 156.10000000000002,376.20000000000016 C 165.19999999999993,373.5 174.0999999999999,370.30000000000007 183.49999999999994,365.70000000000005 M 350.59999999999997,366.1 C 360.49999999999994,369.80000000000007 369.3999999999999,373.1 378.3,376.4 C 378.50000000000006,375.9 378.7,375.4 379.00000000000006,375.0 C 370.7000000000001,370.20000000000005 362.50000000000006,365.4 353.1000000000001,359.9 C 358.2000000000001,358.6 362.40000000000003,357.1 366.8000000000001,356.6 C 370.1000000000001,356.20000000000005 373.3000000000001,357.4 376.00000000000017,359.70000000000005 C 383.00000000000017,365.80000000000007 387.50000000000017,373.70000000000005 392.3000000000001,382.1 C 382.3000000000001,384.20000000000005 372.8000000000001,385.6 363.2000000000001,383.5 C 359.3000000000001,382.70000000000005 356.40000000000015,379.9 354.7000000000001,376.4 C 353.1999999999999,373.30000000000007 352.09999999999997,370.0 350.59999999999997,366.1 M 511.8999999999999,183.10000000000002 C 509.49999999999994,173.0 507.1999999999999,163.60000000000002 504.8999999999999,154.20000000000005 C 504.3999999999999,154.30000000000007 503.99999999999994,154.40000000000003 503.49999999999994,154.40000000000003 C 504.2999999999999,164.20000000000005 505.2,174.00000000000006 505.99999999999994,183.70000000000005 C 495.8999999999999,178.60000000000002 491.7,170.30000000000007 494.59999999999997,160.20000000000005 C 495.99999999999994,155.30000000000007 497.3999999999999,150.30000000000007 498.99999999999994,145.50000000000006 C 499.59999999999997,143.50000000000006 500.59999999999997,141.60000000000008 501.7999999999999,138.90000000000003 C 508.6999999999999,146.90000000000003 515.5,154.20000000000005 518.3999999999999,163.90000000000003 C 520.5,171.3 516.8,177.40000000000003 511.8999999999999,183.10000000000002 M 110.99999999999994,240.80000000000007 C 107.49999999999994,231.60000000000002 104.09999999999997,222.70000000000005 100.59999999999997,213.70000000000005 C 100.09999999999997,213.80000000000007 99.59999999999997,214.0 99.09999999999997,214.10000000000002 C 101.09999999999997,223.39999999999998 103.09999999999997,232.60000000000002 105.09999999999997,241.89999999999998 C 96.09999999999997,239.39999999999998 90.59999999999997,232.60000000000002 90.59999999999997,223.69999999999993 C 90.59999999999997,215.39999999999998 92.39999999999998,207.29999999999995 95.09999999999997,198.5999999999999 C 96.89999999999998,200.0999999999999 98.49999999999994,201.19999999999993 99.79999999999995,202.5999999999999 C 103.59999999999997,206.4999999999999 107.59999999999997,210.39999999999986 110.89999999999998,214.69999999999993 C 118.09999999999991,223.5 117.89999999999992,230.70000000000005 110.99999999999994,240.80000000000007 M 258.7999999999999,206.20000000000005 C 266.99999999999994,213.10000000000002 274.1999999999999,219.5 278.49999999999994,228.30000000000007 C 282.09999999999997,235.80000000000007 278.7,242.4000000000001 274.8999999999999,248.9000000000001 C 271.2999999999999,239.4000000000001 267.7999999999999,230.30000000000007 264.2999999999999,221.20000000000005 C 263.99999999999994,221.30000000000007 263.59999999999985,221.4000000000001 263.2999999999999,221.5 C 264.1999999999999,231.10000000000002 266.99999999999994,240.39999999999998 269.1999999999999,250.0 C 259.09999999999985,246.60000000000002 253.99999999999983,239.60000000000002 254.39999999999992,229.79999999999995 C 254.49999999999994,226.69999999999993 254.89999999999992,223.5 255.49999999999994,220.39999999999998 C 256.49999999999994,216.10000000000002 257.59999999999997,211.80000000000007 258.7999999999999,206.20000000000005 M 29.59999999999991,154.3 C 27.299999999999898,163.7 25.09999999999991,173.10000000000002 22.799999999999898,182.5 C 15.89999999999992,176.5 13.89999999999992,168.0 17.699999999999875,159.89999999999998 C 21.299999999999898,152.2 26.599999999999852,145.7 32.7999999999999,139.0 C 36.89999999999992,148.2 40.499999999999886,157.0 40.699999999999875,166.60000000000002 C 40.899999999999864,175.20000000000005 34.999999999999886,179.90000000000003 28.499999999999886,184.20000000000005 C 29.399999999999864,174.00000000000006 30.299999999999898,164.30000000000007 31.09999999999991,154.60000000000002 C 30.59999999999991,154.60000000000002 30.09999999999991,154.5 29.59999999999991,154.3 M 439.7999999999999,198.20000000000005 C 441.2999999999999,206.5 442.8999999999999,213.4000000000001 443.59999999999985,220.5 C 444.6999999999999,231.39999999999998 439.99999999999983,238.20000000000005 429.1999999999999,242.29999999999995 C 431.2999999999999,232.89999999999998 433.2999999999999,223.5999999999999 435.2999999999999,214.29999999999995 C 434.8999999999999,214.19999999999993 434.59999999999985,214.0999999999999 434.1999999999999,214.0 C 429.6999999999999,222.5 426.7999999999999,231.70000000000005 423.6999999999999,240.89999999999998 C 416.7999999999999,232.10000000000002 416.3999999999999,224.29999999999995 422.49999999999983,215.69999999999993 C 427.09999999999997,209.39999999999998 432.59999999999997,203.89999999999998 439.7999999999999,198.20000000000005 M 199.69999999999993,199.60000000000002 C 195.79999999999995,189.60000000000002 192.19999999999993,180.3 188.49999999999994,171.0 C 188.09999999999997,171.10000000000002 187.79999999999995,171.2 187.39999999999992,171.39999999999998 C 189.49999999999994,181.2 191.5999999999999,191.0 193.7999999999999,200.69999999999993 C 185.7999999999999,199.0999999999999 179.4999999999999,191.79999999999995 179.4999999999999,183.39999999999992 C 179.4999999999999,180.5999999999999 179.4999999999999,177.69999999999993 179.9999999999999,174.99999999999994 C 180.9999999999999,169.29999999999995 182.2999999999999,163.69999999999993 183.69999999999987,156.89999999999992 C 191.9999999999999,164.2999999999999 200.09999999999985,170.7999999999999 203.89999999999986,180.5999999999999 C 206.2999999999999,187.20000000000005 203.7999999999999,193.5 199.69999999999993,199.60000000000002 M 340.49999999999994,201.5 C 342.7999999999999,190.89999999999998 344.99999999999994,181.10000000000002 347.09999999999997,171.3 C 346.7,171.2 346.3999999999999,171.10000000000002 345.99999999999994,171.0 C 342.3999999999999,180.39999999999998 338.7,189.70000000000005 335.09999999999997,199.10000000000002 C 329.2,192.5 328.3,183.60000000000002 332.8,176.40000000000003 C 337.40000000000003,169.20000000000005 343.50000000000006,163.3 350.59999999999997,157.50000000000006 C 353.8,167.40000000000003 356.3,177.00000000000006 354.8,186.9000000000001 C 353.59999999999997,194.39999999999998 347.49999999999994,198.30000000000007 340.49999999999994,201.5 M 209.99999999999994,42.0 C 211.69999999999993,50.39999999999998 213.39999999999992,58.69999999999999 214.99999999999994,67.10000000000002 C 205.29999999999995,65.5 200.39999999999992,59.400000000000034 201.19999999999993,50.0 C 201.79999999999995,42.89999999999998 203.89999999999992,36.10000000000002 206.89999999999992,29.30000000000001 C 213.0999999999999,33.30000000000001 218.2999999999999,37.900000000000034 222.89999999999992,43.10000000000002 C 227.89999999999992,48.700000000000045 228.09999999999997,54.700000000000045 224.39999999999992,60.900000000000034 C 223.39999999999992,62.60000000000002 222.2999999999999,64.20000000000005 221.19999999999987,66.00000000000006 C 217.7999999999999,57.50000000000006 214.4999999999999,49.50000000000006 211.2999999999999,41.50000000000006 C 210.89999999999992,41.700000000000045 210.49999999999994,41.900000000000034 209.99999999999994,42.0 M 380.7999999999999,299.70000000000005 C 381.6999999999999,298.30000000000007 382.49999999999994,297.1 383.3999999999999,296.0 C 391.7999999999999,284.5 400.09999999999997,272.9 405.49999999999994,259.5 C 406.49999999999994,256.9 407.2,254.20000000000005 407.99999999999994,251.39999999999998 C 408.8999999999999,248.19999999999993 412.2999999999999,246.5 415.2999999999999,247.60000000000002 C 418.09999999999985,248.70000000000005 418.8999999999999,250.89999999999998 417.1999999999999,254.10000000000002 C 410.59999999999985,267.1 403.8999999999999,280.1 397.2999999999999,293.1 C 396.8999999999999,294.0 396.1999999999999,294.80000000000007 395.49999999999994,295.4 C 392.6999999999999,298.0 385.59999999999997,300.0 380.7999999999999,299.70000000000005 M 159.69999999999993,300.20000000000005 C 153.99999999999994,300.0 149.5999999999999,298.5 145.5999999999999,296.1 C 144.2999999999999,295.30000000000007 143.0999999999999,293.9 142.39999999999992,292.5 C 135.99999999999994,280.1 129.69999999999993,267.70000000000005 123.39999999999992,255.29999999999995 C 122.39999999999992,253.39999999999998 120.89999999999992,251.19999999999993 122.89999999999992,249.39999999999998 C 124.19999999999993,248.29999999999995 126.39999999999992,247.69999999999993 128.19999999999993,247.69999999999993 C 130.79999999999995,247.79999999999995 131.69999999999993,249.79999999999995 132.5999999999999,252.29999999999995 C 134.4999999999999,258.0999999999999 136.4999999999999,264.0 139.4999999999999,269.19999999999993 C 144.69999999999987,278.19999999999993 150.7999999999999,286.79999999999995 156.4999999999999,295.4999999999999 C 157.2999999999999,296.9 158.2999999999999,298.20000000000005 159.69999999999993,300.20000000000005 M 289.6999999999999,65.10000000000002 C 292.49999999999983,71.20000000000005 295.6999999999999,77.30000000000001 298.09999999999985,83.60000000000002 C 300.8999999999998,90.80000000000001 298.6999999999999,97.20000000000005 293.2999999999999,103.5 C 292.1999999999999,94.89999999999998 291.09999999999985,86.89999999999998 290.09999999999985,79.0 C 289.8999999999998,79.0 289.59999999999985,79.0 289.3999999999998,79.0 C 289.3999999999998,86.89999999999998 289.3999999999998,94.89999999999998 289.3999999999998,104.0 C 284.2999999999998,99.69999999999999 281.3999999999998,95.39999999999998 281.2999999999998,89.69999999999999 C 281.09999999999974,80.80000000000001 284.99999999999983,73.09999999999997 288.2999999999998,65.09999999999997 C 288.6999999999999,65.10000000000002 289.1999999999999,65.10000000000002 289.6999999999999,65.10000000000002 M 495.3999999999999,268.30000000000007 C 504.6999999999999,269.0000000000001 512.8999999999999,269.6 521.1999999999998,270.20000000000005 C 521.3,269.9000000000001 521.3,269.5 521.3999999999999,269.20000000000005 C 513.3,267.6 505.1999999999999,265.9000000000001 497.09999999999997,264.30000000000007 C 500.7,259.70000000000005 507.8999999999999,257.9000000000001 514.3,259.9000000000001 C 521.5,262.20000000000005 527.5999999999999,266.4000000000001 534.2,271.0000000000001 C 533.0,271.70000000000016 532.0999999999999,272.5000000000001 531.2,272.70000000000016 C 525.9000000000001,274.10000000000014 520.7,275.70000000000016 515.4000000000001,276.8000000000002 C 507.09999999999997,278.5 500.8999999999999,275.20000000000005 495.3999999999999,268.30000000000007 M 143.69999999999993,50.5 C 149.5999999999999,55.89999999999998 154.39999999999992,61.60000000000002 157.99999999999994,68.19999999999999 C 161.19999999999993,74.09999999999997 160.79999999999995,79.59999999999997 156.89999999999992,87.0 C 153.99999999999994,79.30000000000001 151.19999999999993,71.69999999999999 148.39999999999992,64.19999999999999 C 147.99999999999994,64.30000000000001 147.5999999999999,64.39999999999998 147.19999999999993,64.5 C 148.99999999999994,72.19999999999999 150.79999999999995,80.0 152.69999999999993,88.39999999999998 C 146.29999999999995,84.69999999999999 141.89999999999992,80.29999999999995 141.39999999999992,73.0 C 140.99999999999994,65.60000000000002 141.5999999999999,58.200000000000045 143.69999999999993,50.5 M 96.89999999999992,95.70000000000005 C 93.99999999999994,87.80000000000007 91.19999999999993,80.40000000000003 88.49999999999994,73.00000000000006 C 88.09999999999997,73.10000000000008 87.69999999999993,73.20000000000005 87.39999999999992,73.30000000000007 C 89.09999999999991,80.90000000000009 90.89999999999992,88.50000000000006 92.69999999999993,96.80000000000007 C 86.69999999999993,93.70000000000005 82.69999999999993,89.80000000000007 81.79999999999995,83.60000000000008 C 80.69999999999993,75.60000000000008 81.69999999999993,67.7000000000001 83.69999999999993,58.80000000000007 C 90.39999999999992,66.00000000000006 96.99999999999994,72.10000000000008 99.59999999999991,81.20000000000005 C 100.89999999999992,85.70000000000005 99.99999999999994,89.70000000000005 96.89999999999992,95.70000000000005 M 38.49999999999994,264.1 C 29.499999999999943,265.9 21.299999999999955,267.6 13.099999999999966,269.20000000000005 C 13.199999999999989,269.5 13.199999999999989,269.9000000000001 13.299999999999955,270.20000000000005 C 21.699999999999932,269.6 29.999999999999943,269.0 39.299999999999955,268.4000000000001 C 34.799999999999955,273.80000000000007 30.099999999999966,277.30000000000007 23.399999999999977,277.20000000000005 C 15.5,277.0 8.199999999999989,274.4000000000001 0.0,271.5 C 7.600000000000023,266.0 14.600000000000023,260.9 23.19999999999999,259.29999999999995 C 28.59999999999991,258.20000000000005 33.39999999999992,260.4 38.49999999999994,264.1 M 441.7999999999999,96.90000000000003 C 443.6999999999999,88.60000000000002 445.3999999999999,81.00000000000006 447.09999999999985,73.30000000000001 C 446.6999999999999,73.19999999999999 446.3999999999998,73.10000000000002 445.99999999999983,73.0 C 443.1999999999999,80.39999999999998 440.49999999999983,87.80000000000001 437.49999999999983,95.60000000000002 C 433.8999999999998,89.30000000000001 432.99999999999983,83.20000000000005 436.2999999999998,76.90000000000003 C 439.7999999999998,70.30000000000001 444.69999999999976,64.70000000000005 450.69999999999976,59.10000000000002 C 452.69999999999976,68.20000000000005 454.19999999999976,76.80000000000001 452.09999999999974,85.5 C 450.8999999999999,90.70000000000005 447.1999999999999,94.10000000000002 441.7999999999999,96.90000000000003 M 404.3999999999999,287.80000000000007 C 407.59999999999997,282.80000000000007 410.3999999999999,277.70000000000005 413.8999999999999,273.0000000000001 C 418.7999999999999,266.30000000000007 424.1999999999999,260.0000000000001 429.3999999999999,253.60000000000014 C 432.3999999999999,249.9000000000001 434.6999999999999,249.20000000000016 439.59999999999997,250.4000000000001 C 440.7,254.10000000000014 439.59999999999997,257.30000000000007 437.2,260.30000000000007 C 428.2,271.5000000000001 417.90000000000003,281.20000000000005 405.40000000000003,288.4000000000001 C 404.99999999999994,288.20000000000005 404.6999999999999,288.0 404.3999999999999,287.80000000000007 M 155.2999999999999,170.5 C 161.39999999999992,176.60000000000002 166.39999999999992,182.10000000000002 169.89999999999992,188.79999999999995 C 173.0999999999999,194.89999999999998 171.99999999999994,200.89999999999998 168.69999999999993,207.39999999999998 C 165.79999999999995,199.60000000000002 163.0999999999999,192.39999999999998 160.39999999999992,185.2 C 159.99999999999994,185.3 159.5999999999999,185.39999999999998 159.19999999999993,185.5 C 160.89999999999992,193.0 162.5999999999999,200.5 164.49999999999994,208.70000000000005 C 157.79999999999995,204.80000000000007 153.49999999999994,200.20000000000005 153.19999999999993,192.70000000000005 C 152.89999999999992,185.5 153.5999999999999,178.5 155.2999999999999,170.5 M 135.2999999999999,288.20000000000005 C 126.7999999999999,282.4000000000001 117.69999999999987,277.9000000000001 111.2999999999999,269.70000000000005 C 108.69999999999987,266.4000000000001 105.59999999999991,263.6 103.19999999999987,260.20000000000005 C 101.69999999999987,258.1 100.7999999999999,255.5 100.09999999999985,253.0 C 99.39999999999986,250.39999999999998 101.29999999999984,249.10000000000002 103.49999999999983,249.5 C 105.69999999999982,249.89999999999998 108.3999999999998,250.79999999999995 109.59999999999985,252.39999999999998 C 117.99999999999983,263.29999999999995 128.19999999999987,272.79999999999995 134.19999999999987,285.5 C 134.5999999999999,286.4 134.89999999999992,287.30000000000007 135.2999999999999,288.20000000000005 M 379.1999999999999,170.5 C 381.09999999999985,180.0 382.6999999999999,188.60000000000002 380.49999999999983,197.29999999999995 C 379.1999999999999,202.29999999999995 375.1999999999999,205.5 370.09999999999985,208.79999999999995 C 371.99999999999983,200.39999999999998 373.6999999999999,192.79999999999995 375.3999999999998,185.29999999999995 C 374.99999999999983,185.19999999999993 374.59999999999985,185.09999999999997 374.19999999999976,184.99999999999994 C 371.4999999999997,192.19999999999993 368.7999999999998,199.4999999999999 365.8999999999998,207.29999999999995 C 362.69999999999976,201.5 361.59999999999985,196.0999999999999 363.8999999999998,190.39999999999998 C 367.09999999999997,182.70000000000005 372.7999999999999,176.90000000000003 379.1999999999999,170.5 M 377.59999999999997,87.90000000000003 C 379.09999999999997,81.10000000000002 380.59999999999997,74.40000000000003 381.99999999999994,67.60000000000002 C 381.7,67.5 381.3999999999999,67.40000000000003 380.99999999999994,67.20000000000005 C 378.49999999999994,73.60000000000002 375.99999999999994,79.90000000000003 373.49999999999994,86.20000000000005 C 369.09999999999997,81.20000000000005 368.2,75.30000000000007 372.09999999999997,69.80000000000007 C 375.49999999999994,65.00000000000006 379.8,60.80000000000007 384.3999999999999,55.50000000000006 C 387.1999999999999,63.700000000000045 388.8999999999999,70.80000000000007 387.59999999999997,78.30000000000007 C 386.8999999999999,82.5 383.3999999999999,85.5 377.59999999999997,87.90000000000003 M 182.99999999999994,302.70000000000005 C 179.09999999999997,302.5 175.99999999999994,302.30000000000007 172.49999999999994,302.1 C 171.19999999999993,294.0 169.79999999999995,286.1 168.49999999999994,278.1 C 167.99999999999994,274.80000000000007 167.19999999999993,271.6 167.09999999999997,268.30000000000007 C 167.09999999999997,267.0000000000001 168.09999999999997,265.20000000000005 169.29999999999995,264.5000000000001 C 170.89999999999998,263.5000000000001 172.79999999999995,264.5000000000001 173.29999999999995,266.30000000000007 C 176.49999999999994,278.1 179.5999999999999,290.0 182.99999999999994,302.70000000000005 M 367.6999999999999,302.0 C 364.3999999999999,302.20000000000005 361.3999999999999,302.5 357.6999999999999,302.79999999999995 C 357.99999999999983,300.79999999999995 358.09999999999985,299.19999999999993 358.49999999999983,297.69999999999993 C 360.99999999999983,288.0999999999999 363.49999999999983,278.4 366.09999999999985,268.79999999999995 C 366.2999999999999,268.0 366.3999999999998,266.9 366.8999999999998,266.5 C 368.09999999999985,265.6 369.59999999999985,264.5 370.8999999999998,264.6 C 371.69999999999976,264.70000000000005 372.99999999999983,266.70000000000005 373.09999999999985,267.80000000000007 C 373.1999999999999,270.30000000000007 372.59999999999985,272.70000000000005 372.1999999999999,275.20000000000005 C 370.6999999999999,284.0 369.1999999999999,292.80000000000007 367.6999999999999,302.0"/>
</svg>
