<?xml version="1.0" ?>
<svg xmlns="http://www.w3.org/2000/svg" xmlns:ev="http://www.w3.org/2001/xml-events" xmlns:inkscape="http://www.inkscape.org/namespaces/inkscape" xmlns:sodipodi="http://sodipodi.sourceforge.net/DTD/sodipodi-0.dtd" xmlns:svg="http://www.w3.org/2000/svg" xmlns:xlink="http://www.w3.org/1999/xlink" baseProfile="full" height="689" id="Layer_1" inkscape:version="1.2.2 (1:1.2.2+202212051550+b0a8486541)" sodipodi:docname="tree46.svg" transform="scale(0.22075055187637968 0.22075055187637968) translate(-226.5 -344.5)" version="1.1" viewBox="0 0 453 689" width="453" x="0px" xml:space="preserve" y="0px">
	<defs/>
	<path d="M 442.6643399329148,591.4500000000002 C 422.6543399329148,593.2900000000002 412.5843399329148,589.1200000000001 412.5843399329148,589.1200000000001 C 412.5843399329148,589.1200000000001 414.7943399329148,584.9500000000002 412.2143399329148,581.6300000000001 C 409.6343399329148,578.3100000000001 402.0243399329148,581.6300000000001 384.2143399329148,572.0500000000001 C 366.4043399329148,562.47 358.8843399329148,544.61 358.8843399329148,544.61 C 358.8843399329148,544.61 362.93433993291484,545.25 371.86433993291485,550.5 C 380.79433993291485,555.75 386.04433993291485,554.37 389.17433993291485,553.45 C 392.30433993291484,552.5300000000001 388.43433993291484,546.9100000000001 392.12433993291484,546.9100000000001 C 395.81433993291483,546.9100000000001 403.91433993291486,554.6500000000001 411.00433993291483,554.3700000000001 C 418.0943399329148,554.0900000000001 419.3843399329148,554.0000000000001 421.31433993291483,551.7900000000001 C 423.24433993291484,549.58 428.03433993291486,548.3800000000001 431.35433993291485,546.08 C 434.67433993291485,543.7800000000001 437.34433993291486,535.7700000000001 429.3243399329149,538.62 C 421.3043399329149,541.47 412.65433993291487,532.91 400.6843399329149,527.11 C 388.71433993291487,521.3100000000001 383.7043399329149,513.36 383.7043399329149,513.36 C 383.7043399329149,513.36 390.5843399329149,513.36 398.4343399329149,511.76 C 406.2943399329149,510.15999999999997 409.7343399329149,502.06 403.46433993291487,501.08 C 397.2043399329149,500.09999999999997 385.78433993291486,494.08 375.46433993291487,486.46999999999997 C 365.15433993291487,478.85999999999996 352.8743399329149,469.73999999999995 340.90433993291487,461.72999999999996 C 352.8743399329149,460.71999999999997 362.6343399329149,463.29999999999995 367.24433993291484,466.33 C 371.84433993291486,469.37 375.25433993291483,469.74 381.15433993291487,465.59 C 393.1243399329149,465.77 396.99433993291484,459.88 396.8143399329149,456.75 C 396.6343399329149,453.62 391.3843399329149,452.7 388.8143399329149,452.7 C 386.2443399329149,452.7 382.2643399329149,450.12 376.0043399329149,447.17 C 371.5843399329149,442.47 360.53433993291486,433.36 360.53433993291486,433.36 C 360.53433993291486,433.36 358.96433993291487,423.14 353.53433993291486,415.86 C 348.10433993291485,408.58000000000004 341.0143399329149,409.69 335.48433993291485,401.86 C 340.54433993291485,406.46000000000004 353.44433993291483,402.41 353.44433993291483,402.41 C 353.44433993291483,402.41 363.3943399329148,409.04 371.4043399329148,409.78000000000003 C 379.4143399329148,410.52000000000004 385.4943399329148,409.78000000000003 387.8843399329148,405.64000000000004 C 390.2743399329148,401.50000000000006 387.79433993291485,399.19000000000005 383.4643399329148,398.55000000000007 C 382.7243399329148,395.9700000000001 378.4943399329148,395.88000000000005 374.0743399329148,392.75000000000006 C 372.23433993291485,388.33000000000004 365.5143399329148,385.20000000000005 364.49433993291484,383.5400000000001 C 363.48433993291485,381.88000000000005 357.7743399329148,374.88000000000005 350.5843399329148,371.6600000000001 C 343.4043399329148,368.44000000000005 338.3943399329148,362.2100000000001 338.3943399329148,362.2100000000001 C 338.3943399329148,362.2100000000001 350.05433993291484,367.61000000000007 354.11433993291485,367.74000000000007 C 358.16433993291486,367.86000000000007 360.62433993291484,368.11000000000007 363.69433993291483,365.4100000000001 C 367.99433993291484,365.4100000000001 368.85433993291485,362.9500000000001 368.48433993291485,360.0100000000001 C 368.11433993291485,357.0600000000001 364.06433993291483,358.2900000000001 362.71433993291487,356.2000000000001 C 361.36433993291485,354.1100000000001 356.3243399329149,353.7400000000001 349.9443399329149,349.2000000000001 C 343.5543399329149,344.6600000000001 342.3343399329149,336.3100000000001 342.3343399329149,336.3100000000001 C 342.3343399329149,336.3100000000001 362.84433993291486,336.3100000000001 364.6843399329149,334.8400000000001 C 366.52433993291487,333.37000000000006 366.52433993291487,331.1600000000001 366.4043399329149,327.9600000000001 C 366.2843399329149,324.7700000000001 364.9343399329149,322.80000000000007 360.01433993291494,322.5600000000001 C 355.1043399329149,322.3100000000001 356.45433993291493,320.23000000000013 352.89433993291493,318.1400000000001 C 349.33433993291493,316.0500000000001 347.86433993291496,316.9100000000001 344.7943399329149,313.4700000000001 C 341.7243399329149,310.0300000000001 338.9043399329149,307.8200000000001 335.0943399329149,305.86000000000007 C 331.2843399329149,303.9000000000001 328.3443399329149,300.8300000000001 324.7843399329149,293.8300000000001 C 328.2243399329149,291.9900000000001 327.4843399329149,288.61000000000007 327.4843399329149,288.61000000000007 C 327.4843399329149,288.61000000000007 334.4843399329149,288.55000000000007 337.5543399329149,288.55000000000007 C 340.6243399329149,288.55000000000007 344.6743399329149,289.2900000000001 347.9943399329149,285.4800000000001 C 351.3143399329149,281.6700000000001 348.9743399329149,276.1500000000001 344.6743399329149,275.7800000000001 C 340.3743399329149,275.4100000000001 335.0943399329149,274.43000000000006 330.9243399329149,269.2700000000001 C 326.7543399329149,264.11000000000007 321.7143399329149,261.5300000000001 318.2743399329149,258.1000000000001 C 314.83433993291493,254.66000000000005 311.5243399329149,255.40000000000006 308.32433993291494,251.84000000000006 C 305.13433993291494,248.28000000000006 302.55433993291496,241.89000000000007 302.55433993291496,241.89000000000007 C 302.55433993291496,241.89000000000007 313.974339932915,247.29000000000008 317.904339932915,248.03000000000006 C 321.834339932915,248.77000000000007 322.324339932915,249.14000000000007 331.534339932915,253.31000000000006 C 340.74433993291495,257.4800000000001 344.55433993291496,255.77000000000007 345.774339932915,253.31000000000006 C 347.004339932915,250.85000000000005 344.54433993291497,248.03000000000006 341.35433993291497,245.21000000000006 C 338.16433993291497,242.39000000000007 334.724339932915,238.70000000000007 328.704339932915,236.00000000000006 C 322.684339932915,233.30000000000007 319.864339932915,226.95000000000005 319.864339932915,226.95000000000005 C 319.864339932915,226.95000000000005 322.074339932915,225.81000000000006 326.254339932915,226.55000000000004 C 330.424339932915,227.29000000000005 334.604339932915,227.29000000000005 335.834339932915,224.22000000000003 C 337.064339932915,221.15000000000003 335.224339932915,218.94000000000003 330.184339932915,216.36 C 325.15433993291504,213.78 319.624339932915,208.62 314.464339932915,206.29000000000002 C 309.30433993291496,203.96 310.29433993291497,201.99 301.574339932915,196.34000000000003 C 292.85433993291497,190.69000000000003 279.224339932915,173.13000000000002 279.224339932915,173.13000000000002 C 279.224339932915,173.13000000000002 282.29433993291497,174.36 285.974339932915,175.95000000000002 C 289.654339932915,177.55 290.394339932915,175.95000000000002 297.764339932915,175.34 C 305.134339932915,174.73 304.884339932915,173.99 306.114339932915,169.57 C 307.34433993291503,165.15 298.374339932915,159.87 291.624339932915,155.57 C 284.874339932915,151.26999999999998 284.744339932915,148.07999999999998 282.044339932915,142.54999999999998 C 279.33433993291504,137.01999999999998 272.47433993291503,135.67 267.064339932915,125.10999999999999 C 273.204339932915,128.05999999999997 280.084339932915,127.06999999999998 281.794339932915,122.03999999999999 C 283.51433993291505,117.00999999999999 275.90433993291504,109.75999999999999 262.884339932915,96.75 C 267.304339932915,99.21 274.674339932915,98.22 274.184339932915,92.08 C 273.694339932915,85.94 251.34433993291503,79.8 250.11433993291504,71.21 C 248.88433993291505,62.61 245.69433993291506,62.86 244.22433993291506,54.269999999999996 C 242.75433993291506,45.67 234.15433993291506,42.730000000000004 234.15433993291506,28.98 C 234.15433993291506,15.23 229.73433993291508,0.0 226.13433993291505,0.0 C 222.53433993291506,0.0 218.11433993291504,15.23 218.11433993291504,28.98 C 218.11433993291504,42.730000000000004 209.51433993291505,45.67999999999999 208.04433993291505,54.269999999999996 C 206.57433993291505,62.870000000000005 203.37433993291506,62.620000000000005 202.15433993291506,71.21 C 200.92433993291507,79.80999999999999 178.57433993291508,85.94 178.08433993291507,92.08 C 177.59433993291506,98.22 184.96433993291507,99.2 189.38433993291508,96.75 C 176.36433993291507,109.77 168.7543399329151,117.01 170.4743399329151,122.03999999999999 C 172.19433993291509,127.07 179.07433993291508,128.06 185.20433993291508,125.10999999999999 C 179.80433993291507,135.67 172.93433993291507,137.01999999999998 170.2243399329151,142.54999999999998 C 167.51433993291508,148.07999999999998 167.39433993291507,151.26999999999998 160.64433993291507,155.57 C 153.89433993291507,159.87 144.92433993291507,165.15 146.15433993291506,169.57 C 147.38433993291505,173.98999999999998 147.13433993291505,174.73 154.50433993291506,175.34 C 161.87433993291506,175.95000000000002 162.60433993291505,177.55 166.29433993291505,175.95000000000002 C 169.97433993291506,174.35000000000002 173.04433993291505,173.13000000000002 173.04433993291505,173.13000000000002 C 173.04433993291505,173.13000000000002 159.41433993291506,190.69000000000003 150.69433993291506,196.34000000000003 C 141.97433993291506,201.99000000000004 142.95433993291505,203.95000000000005 137.80433993291504,206.29000000000002 C 132.64433993291505,208.62000000000003 127.12433993291502,213.78000000000003 122.08433993291503,216.36 C 117.05433993291503,218.94000000000003 115.20433993291503,221.15 116.43433993291502,224.22000000000003 C 117.66433993291503,227.29000000000002 121.83433993291503,227.29000000000002 126.01433993291502,226.55000000000004 C 130.18433993291504,225.81000000000003 132.39433993291505,226.95000000000005 132.39433993291505,226.95000000000005 C 132.39433993291505,226.95000000000005 129.57433993291505,233.30000000000004 123.55433993291503,236.00000000000006 C 117.53433993291503,238.70000000000005 114.10433993291502,242.38000000000005 110.90433993291502,245.21000000000006 C 107.71433993291502,248.03000000000006 105.25433993291502,250.86000000000007 106.48433993291502,253.31000000000006 C 107.71433993291502,255.77000000000007 111.51433993291502,257.4800000000001 120.72433993291502,253.31000000000006 C 129.93433993291504,249.14000000000007 130.42433993291502,248.77000000000007 134.35433993291502,248.03000000000006 C 138.28433993291503,247.29000000000005 149.70433993291502,241.89000000000007 149.70433993291502,241.89000000000007 C 149.70433993291502,241.89000000000007 147.124339932915,248.27000000000007 143.934339932915,251.84000000000006 C 140.744339932915,255.40000000000006 137.42433993291502,254.66000000000005 133.98433993291502,258.1000000000001 C 130.54433993291502,261.5400000000001 125.51433993291501,264.12000000000006 121.334339932915,269.2700000000001 C 117.164339932915,274.4300000000001 111.884339932915,275.4100000000001 107.584339932915,275.7800000000001 C 103.284339932915,276.1500000000001 100.954339932915,281.6700000000001 104.26433993291501,285.4800000000001 C 107.584339932915,289.2900000000001 111.63433993291501,288.55000000000007 114.704339932915,288.55000000000007 C 117.774339932915,288.55000000000007 124.774339932915,288.61000000000007 124.774339932915,288.61000000000007 C 124.774339932915,288.61000000000007 124.034339932915,291.99000000000007 127.474339932915,293.8300000000001 C 123.914339932915,300.8300000000001 120.964339932915,303.9000000000001 117.164339932915,305.86000000000007 C 113.354339932915,307.82000000000005 110.534339932915,310.0300000000001 107.464339932915,313.4700000000001 C 104.394339932915,316.9100000000001 102.92433993291499,316.05000000000007 99.36433893291499,318.1400000000001 C 95.80433893291499,320.2300000000001 97.154338932915,322.3100000000001 92.24433893291499,322.5600000000001 C 87.33433893291499,322.8100000000001 85.98433893291498,324.7700000000001 85.86433893291499,327.9600000000001 C 85.74433893291499,331.1500000000001 85.74433893291499,333.36000000000007 87.58433893291499,334.8400000000001 C 89.42433893291499,336.3100000000001 109.934339932915,336.3100000000001 109.934339932915,336.3100000000001 C 109.934339932915,336.3100000000001 108.70433993291499,344.66000000000014 102.324339932915,349.2000000000001 C 95.94433893291499,353.7400000000001 90.904338932915,354.1100000000001 89.554338932915,356.2000000000001 C 88.20433893291501,358.2900000000001 84.154338932915,357.0600000000001 83.784338932915,360.0100000000001 C 83.414338932915,362.9600000000001 84.274338932915,365.4100000000001 88.57433893291501,365.4100000000001 C 91.644338932915,368.11000000000007 94.10433893291501,367.87000000000006 98.15433893291501,367.74000000000007 C 102.204339932915,367.62000000000006 113.874339932915,362.2100000000001 113.874339932915,362.2100000000001 C 113.874339932915,362.2100000000001 108.874339932915,368.4400000000001 101.68433993291501,371.6600000000001 C 94.504338932915,374.8800000000001 88.79433893291501,381.8800000000001 87.77433893291501,383.5400000000001 C 86.75433893291502,385.2000000000001 80.03433893291502,388.3300000000001 78.19433893291502,392.75000000000006 C 73.77433893291501,395.88000000000005 69.53433893291502,395.9700000000001 68.80433893291502,398.55000000000007 C 64.47433893291502,399.19000000000005 61.994338932915014,401.50000000000006 64.38433893291501,405.64000000000004 C 66.77433893291501,409.78000000000003 72.85433893291501,410.52000000000004 80.86433893291502,409.78000000000003 C 88.87433893291502,409.04 98.82433893291501,402.41 98.82433893291501,402.41 C 98.82433893291501,402.41 111.71433993291501,406.46000000000004 116.78433993291502,401.86 C 111.25433993291502,409.69 104.16433993291501,408.58000000000004 98.73433893291501,415.86 C 93.304338932915,423.14 91.73433893291501,433.36 91.73433893291501,433.36 C 91.73433893291501,433.36 80.68433893291501,442.48 76.26433893291501,447.17 C 70.004338932915,450.12 66.02433893291501,452.7 63.45433893291501,452.7 C 60.88433893291501,452.7 55.63433893291501,453.62 55.45433893291501,456.75 C 55.27433893291501,459.88 59.13433893291501,465.77 71.114338932915,465.59 C 77.004338932915,469.72999999999996 80.414338932915,469.36999999999995 85.024338932915,466.33 C 89.624338932915,463.28999999999996 99.394338932915,460.71 111.364339932915,461.72999999999996 C 99.394338932915,469.73999999999995 87.114338932915,478.85999999999996 76.804338932915,486.46999999999997 C 66.494338932915,494.08 55.074338932915,500.09999999999997 48.804338932915,501.08 C 42.544338932915004,502.06 45.984338932915,510.16999999999996 53.834338932915,511.76 C 61.694338932915,513.36 68.564338932915,513.36 68.564338932915,513.36 C 68.564338932915,513.36 63.56433893291501,521.3100000000001 51.584338932915,527.11 C 39.614338932915004,532.91 30.954338932915007,541.48 22.944338932915002,538.62 C 14.934338932915004,535.77 17.604338932915006,543.78 20.914338932915,546.08 C 24.234338932915,548.38 29.014338932915003,549.58 30.954338932915,551.7900000000001 C 32.884338932915,554.0000000000001 34.174338932915,554.09 41.264338932915,554.3700000000001 C 48.354338932915,554.6500000000001 56.464338932915,546.9100000000001 60.144338932915005,546.9100000000001 C 63.824338932915005,546.9100000000001 59.964338932915005,552.5300000000001 63.09433893291501,553.45 C 66.224338932915,554.37 71.474338932915,555.75 80.40433893291501,550.5 C 89.334338932915,545.25 93.38433893291501,544.61 93.38433893291501,544.61 C 93.38433893291501,544.61 85.86433893291502,562.48 68.06433893291502,572.0500000000001 C 50.264338932915024,581.6300000000001 42.64433893291502,578.3100000000001 40.06433893291502,581.6300000000001 C 37.48433893291502,584.9500000000002 39.694338932915024,589.1200000000001 39.694338932915024,589.1200000000001 C 39.694338932915024,589.1200000000001 29.624338932915023,593.2900000000001 9.614338832915026,591.4500000000002 C -10.395661067084975,589.6100000000001 6.664338832915026,600.6600000000002 9.004338832915026,602.7500000000001 C 11.334338932915026,604.8400000000001 23.614338932915025,610.9800000000001 30.124338932915023,611.9600000000002 C 36.63433893291502,612.9400000000002 53.20433893291502,615.7700000000001 53.20433893291502,615.7700000000001 C 53.20433893291502,615.7700000000001 42.89433893291502,624.9800000000001 44.36433893291502,629.5200000000001 C 45.83433893291502,634.0600000000001 61.06433893291502,630.6300000000001 70.51433893291501,629.5200000000001 C 79.96433893291501,628.4200000000001 93.96433893291501,628.0500000000001 104.40433993291501,619.08 C 95.564338932915,626.82 93.724338932915,630.99 97.40433893291501,633.32 C 101.08433993291501,635.6500000000001 122.94433993291501,634.4200000000001 137.06433993291503,630.13 C 131.04433993291502,637.99 131.90433993291504,640.6899999999999 135.59433993291503,643.15 C 139.27433993291504,645.61 170.22433993291503,643.15 170.22433993291503,643.15 C 170.22433993291503,643.15 166.78433993291503,647.6899999999999 169.36433993291502,649.66 C 171.94433993291503,651.62 200.554339932915,647.4499999999999 206.56433993291503,642.54 L 205.09433993291503,677.41 C 205.09433993291503,677.41 65.60433893291501,678.27 50.62433893291502,678.52 C 35.64433893291502,678.77 20.664338932915022,688.34 20.664338932915022,688.34 L 226.13433993291503,688.34 L 431.604339932915,688.34 C 431.604339932915,688.34 416.624339932915,678.76 401.64433993291505,678.52 C 386.664339932915,678.27 247.17433993291507,677.41 247.17433993291507,677.41 L 245.70433993291508,642.54 C 251.7243399329151,647.4499999999999 280.33433993291504,651.63 282.90433993291504,649.66 C 285.47433993291503,647.6899999999999 282.044339932915,643.15 282.044339932915,643.15 C 282.044339932915,643.15 312.984339932915,645.61 316.674339932915,643.15 C 320.354339932915,640.6899999999999 321.21433993291504,637.99 315.204339932915,630.13 C 329.324339932915,634.43 351.184339932915,635.66 354.864339932915,633.32 C 358.544339932915,630.99 356.704339932915,626.8100000000001 347.864339932915,619.08 C 358.304339932915,628.0400000000001 372.294339932915,628.4100000000001 381.754339932915,629.5200000000001 C 391.204339932915,630.6300000000001 406.434339932915,634.0600000000001 407.904339932915,629.5200000000001 C 409.374339932915,624.9800000000001 399.064339932915,615.7700000000001 399.064339932915,615.7700000000001 C 399.064339932915,615.7700000000001 415.644339932915,612.95 422.144339932915,611.9600000000002 C 428.654339932915,610.9800000000001 440.934339932915,604.8400000000001 443.264339932915,602.7500000000001 C 445.614339932915,600.6600000000001 462.684339932915,589.6100000000001 442.66433993291497,591.4500000000002 L 442.6643399329148,591.4500000000002" id="path4"/>
</svg>
