<?xml version="1.0" ?>
<svg xmlns="http://www.w3.org/2000/svg" xmlns:ev="http://www.w3.org/2001/xml-events" xmlns:xlink="http://www.w3.org/1999/xlink" baseProfile="full" height="451" preserveAspectRatio="xMidYMid meet" transform="scale(0.22172949002217296 0.22172949002217296) translate(-337.5 -225.5)" version="1.1" viewBox="0 0 675 451" width="675" zoomAndPan="magnify">
	<defs/>
	<path d="M 150.585938,372.0117180000001 L 174.976562,372.0117180000001 C 166.171875,376.9960930000001 157.996094,382.3554680000001 150.585938,388.08203100000003 L 150.585938,372.0117180000001 M 221.96875,259.05468700000006 C 218.320312,257.42968700000006 214.886719,255.71875000000003 211.535156,253.95703100000006 L 303.578125,253.95703100000006 C 303.578125,253.95703100000006 266.195312,278.875 210.046875,292.07031200000006 C 180.429688,279.46875 168.730469,259.05468700000006 168.730469,259.05468700000006 L 221.96875,259.05468700000006 M 463.398438,253.95703100000006 C 460.058594,255.71875000000003 456.617188,257.42968700000006 452.96875,259.05468700000006 L 506.20703100000003,259.05468700000006 C 506.20703100000003,259.05468700000006 495.359375,278.0 468.082031,290.652343 C 415.175781,277.17968700000006 380.351562,253.95703100000006 380.351562,253.95703100000006 L 463.398438,253.95703100000006 M 524.085938,372.0117180000001 L 524.085938,381.41406200000006 C 519.296875,378.14453100000003 514.238281,375.00390600000003 508.94921899999997,372.0117180000001 L 524.085938,372.0117180000001 M 358.128906,299.80078100000003 L 438.117188,299.80078100000003 C 436.90625,300.0 435.6875,300.20703100000003 434.445312,300.38281200000006 L 496.87109399999997,300.38281200000006 C 496.87109399999997,300.38281200000006 471.703125,336.36718700000006 427.121094,338.03515600000003 L 507.88281199999994,338.03515600000003 C 507.88281199999994,338.03515600000003 494.875,346.703124 473.3125,355.308593 C 439.820312,342.50390600000003 400.476562,334.484374 358.128906,332.84375 L 358.128906,299.80078100000003 M 178.078125,300.38281200000006 L 240.48828099999997,300.38281200000006 C 239.242188,300.20703100000003 238.03125,300.0 236.828125,299.80078100000003 L 325.449219,299.80078100000003 L 325.449219,332.859374 C 281.34375,334.605468 240.546875,343.296874 206.199219,357.08203100000003 C 181.914062,347.9375 167.0625,338.03515600000003 167.0625,338.03515600000003 L 247.82421900000003,338.03515600000003 C 203.234375,336.36718700000006 178.078125,300.38281200000006 178.078125,300.38281200000006 M 548.324219,401.14843700000006 L 548.324219,372.0117180000001 L 674.9375,372.0117180000001 C 611.589844,369.25390600000003 564.792969,338.03515600000003 564.792969,338.03515600000003 L 645.554688,338.03515600000003 C 600.972656,336.36718700000006 575.800781,300.38281200000006 575.800781,300.38281200000006 L 638.230469,300.38281200000006 C 585.898438,293.03515600000003 566.472656,259.05468700000006 566.472656,259.05468700000006 L 619.707031,259.05468700000006 C 537.09375,222.324218 536.335938,149.777343 536.335938,149.777343 C 536.335938,149.777343 535.644531,212.93750000000003 468.445312,251.22656200000003 C 421.382812,240.56250000000003 395.214844,203.167968 395.214844,203.167968 L 479.41796899999997,203.167968 C 408.835938,193.261718 382.617188,147.417968 382.617188,147.417968 L 454.441406,147.417968 C 342.996094,97.87109300000003 341.96875,2.842170943040401e-14 341.96875,2.842170943040401e-14 C 341.96875,2.842170943040401e-14 340.941406,97.87109300000003 229.49609400000003,147.417968 L 301.3125,147.417968 C 301.3125,147.417968 275.101562,193.261718 204.507812,203.167968 L 288.722656,203.167968 C 288.722656,203.167968 260.066406,244.08593700000003 208.808594,252.511718 C 139.320312,214.36328100000006 138.605469,149.777343 138.605469,149.777343 C 138.605469,149.777343 137.84375,222.324218 55.234375,259.05468700000006 L 108.46875,259.05468700000006 C 108.46875,259.05468700000006 89.035156,293.03515600000003 36.714844,300.38281200000006 L 99.132812,300.38281200000006 C 99.132812,300.38281200000006 73.964844,336.36718700000006 29.382812,338.03515600000003 L 110.144531,338.03515600000003 C 110.144531,338.03515600000003 63.34375,369.25390600000003 0.0,372.0117180000001 L 126.363281,372.0117180000001 L 126.363281,402.9023430000001 L 133.832031,402.9023430000001 C 119.765625,417.2304680000001 109.910156,433.14453100000003 105.3125,450.078124 L 578.625,450.078124 C 573.828125,432.44531200000006 563.324219,415.92578100000003 548.324219,401.14843700000006" fill="#000000" fill-opacity="1" fill-rule="nonzero"/>
</svg>
