<?xml version="1.0" ?>
<svg xmlns="http://www.w3.org/2000/svg" xmlns:ev="http://www.w3.org/2001/xml-events" xmlns:xlink="http://www.w3.org/1999/xlink" baseProfile="full" height="211" id="katman_2" transform="scale(0.7692307692307693 0.7692307692307693) translate(-65.0 -105.5)" version="1.1" viewBox="0 0 130 211" width="130">
	<defs/>
	<path d="M 95.21,135.28 C 101.36999999999999,133.13 113.58,129.49 117.50999999999999,124.87 C 102.82,117.09 92.24,104.86000000000001 84.04999999999998,92.63 C 91.41999999999999,91.52000000000001 98.71999999999998,89.6 105.11999999999998,84.41999999999999 C 90.24999999999997,74.87 74.19999999999997,61.04999999999999 70.71999999999997,46.06999999999999 C 76.45999999999997,46.269999999999996 85.41999999999997,42.129999999999995 88.63999999999997,38.92999999999999 C 74.66,26.610000000000007 64.63,17.130000000000006 55.22,7.105427357601002e-15 C 45.89,14.510000000000007 33.19,30.390000000000008 22.339999999999996,44.09000000000001 C 27.749999999999996,45.48000000000001 33.3,46.48000000000001 38.91,47.07000000000001 C 31.9,61.28000000000001 22.449999999999996,74.58000000000001 10.939999999999998,86.41 C 17.499999999999996,90.68 26.07,92.6 34.22,91.61000000000001 C 25.07,104.89000000000001 15.919999999999998,118.18 6.759999999999998,131.46 C 12.209999999999997,134.33 18.58,135.89000000000001 24.97,135.93 C 18.56,147.1 10.1,157.4 0.0,166.33 C 23.28,173.52 49.67,172.49 64.63,170.49 C 82.49,173.10000000000002 115.28999999999999,171.77 129.26,161.84 C 114.08999999999999,154.77 102.69999999999999,145.93 95.19999999999999,135.28 L 95.21,135.28 M 49.25,158.23 C 48.85,175.13 46.9,192.0 43.4,208.64 C 55.239999999999995,210.73999999999998 72.39,211.02999999999997 84.22,208.86999999999998 C 81.97,193.96999999999997 77.41,173.92999999999998 73.58,159.28999999999996 L 49.25,158.23999999999995 L 49.25,158.23"/>
</svg>
