<?xml version="1.0" ?>
<svg xmlns="http://www.w3.org/2000/svg" xmlns:ev="http://www.w3.org/2001/xml-events" xmlns:xlink="http://www.w3.org/1999/xlink" baseProfile="full" height="217" id="katman_2" transform="scale(0.6711409395973155 0.6711409395973155) translate(-74.5 -108.5)" version="1.1" viewBox="0 0 149 217" width="149">
	<defs/>
	<path d="M 96.49916429229059,212.44 C 81.54916429229058,218.17 65.5991642922906,217.42 52.38916429229059,212.04 C 56.99916429229059,197.67 59.45916429229059,180.48 60.969164292290586,162.04999999999998 L 83.50916429229059,162.04999999999998 C 84.4091642922906,175.96999999999997 89.83916429229059,194.67999999999998 96.49916429229059,212.44 M 34.12916429229058,133.67 C 36.509164292290585,128.01 45.579164292290585,123.73999999999998 49.26916429229058,118.82999999999998 L 91.85916429229059,123.10999999999999 C 98.38916429229059,128.10999999999999 105.90916429229058,130.10999999999999 109.46916429229059,137.52999999999997 C 112.76916429229058,144.39999999999998 118.18916429229058,149.23999999999998 126.09916429229058,152.36999999999998 C 132.0691642922906,154.73 139.3191642922906,156.92999999999998 143.76916429229058,158.20999999999998 C 147.5691642922906,159.29999999999998 148.54916429229058,160.90999999999997 148.74916429229057,161.79999999999998 C 149.11916429229058,163.42 148.88916429229056,167.64 145.96916429229057,168.98999999999998 C 137.20916429229058,173.02999999999997 124.47916429229058,168.98999999999998 115.04916429229057,166.95999999999998 C 116.09916429229057,170.70999999999998 118.70916429229057,173.98999999999998 122.12916429229057,175.85999999999999 C 123.02916429229057,176.35 123.76916429229057,176.88 123.99916429229057,178.08999999999997 C 124.28916429229058,179.56999999999996 123.71916429229057,180.82999999999998 123.21916429229057,181.52999999999997 C 121.97916429229058,183.27999999999997 118.86916429229058,183.91999999999996 116.80916429229057,184.17999999999998 C 110.22916429229058,185.04 103.00916429229058,180.73999999999998 97.62916429229057,176.84999999999997 C 95.28916429229056,175.15999999999997 93.85916429229057,171.63999999999996 90.97916429229056,171.51999999999995 C 88.16916429229056,171.39999999999995 87.92916429229057,174.31999999999996 85.11916429229056,176.00999999999996 C 83.32916429229056,177.08999999999997 78.94916429229056,177.34999999999997 77.18916429229057,177.01999999999995 C 74.21916429229057,176.46999999999994 67.76916429229057,167.97999999999996 67.76916429229057,167.97999999999996 C 67.76916429229057,167.97999999999996 57.50916429229057,174.92999999999995 51.959164292290566,177.87999999999997 C 44.499164292290565,181.82999999999996 37.59916429229057,184.63999999999996 29.349164292290563,182.88999999999996 C 27.969164292290564,182.59999999999997 23.719164292290564,179.72999999999996 22.969164292290564,178.53999999999996 C 21.419164292290564,176.08999999999997 23.169164292290564,174.19999999999996 23.789164292290565,173.47999999999996 C 26.949164292290565,169.75999999999996 30.649164292290564,168.41999999999996 30.889164292290562,164.06999999999996 C 22.199164292290565,165.77999999999997 15.569164292290564,170.78999999999996 6.479164292290563,169.20999999999995 C 4.209164292290564,168.81999999999996 1.3691642922905631,168.09999999999994 0.5191642922905635,165.95999999999995 C -0.6408357077094364,163.06999999999996 0.19916429229056348,161.46999999999994 2.4791642922905632,159.46999999999994 C 4.489164292290563,157.69999999999993 9.029164292290565,155.90999999999994 11.529164292290565,154.93999999999994 C 22.509164292290563,150.64999999999995 30.26916429229056,145.69999999999993 34.139164292290566,133.66999999999993 L 34.12916429229058,133.67 M 21.92916429229058,107.76 C 34.03916429229058,100.81 39.67916429229058,92.74000000000001 45.24916429229059,78.09 L 93.60916429229059,77.10000000000001 C 92.38916429229059,83.31 97.89916429229059,90.36000000000001 102.47916429229059,94.72000000000001 C 107.97916429229059,99.96000000000001 114.2891642922906,104.37000000000002 121.11916429229059,107.70000000000002 C 123.5691642922906,108.90000000000002 127.9591642922906,111.93000000000002 127.6891642922906,114.42000000000002 C 127.4691642922906,116.43000000000002 124.1091642922906,119.86000000000001 122.2991642922906,120.75000000000001 C 119.0891642922906,122.34000000000002 113.6091642922906,122.30000000000001 110.0491642922906,121.20000000000002 C 108.7291642922906,120.79000000000002 104.8091642922906,118.65000000000002 104.8091642922906,118.65000000000002 C 104.6191642922906,120.36000000000001 105.56916429229061,121.84000000000002 106.5791642922906,123.14000000000001 C 109.9491642922906,127.46000000000001 117.9291642922906,132.39000000000001 123.00916429229059,134.43 C 124.6791642922906,135.1 126.5191642922906,135.70000000000002 127.39916429229059,137.41 C 127.77916429229059,138.16 127.80916429229059,139.07999999999998 127.39916429229059,139.81 C 126.75916429229059,140.95 126.0691642922906,142.39000000000001 122.7991642922906,143.05 C 120.0691642922906,143.60000000000002 108.8591642922906,140.88000000000002 106.2491642922906,139.26000000000002 C 102.5591642922906,136.95000000000002 95.3091642922906,131.83 90.9791642922906,132.34000000000003 C 86.29916429229061,132.89000000000004 83.76916429229061,137.35000000000002 79.0891642922906,137.89000000000004 C 77.70916429229061,138.05000000000004 74.9491642922906,137.28000000000003 73.6891642922906,136.72000000000006 C 71.9991642922906,135.97000000000006 70.9691642922906,134.29000000000005 69.7991642922906,132.86000000000004 C 68.0291642922906,130.68000000000004 65.7391642922906,128.92000000000004 63.1791642922906,127.76000000000005 C 62.4391642922906,127.42000000000004 61.6091642922906,127.14000000000004 60.8291642922906,127.34000000000005 C 60.2291642922906,127.50000000000004 59.7291642922906,127.93000000000005 59.3191642922906,128.39000000000004 C 57.8191642922906,130.11000000000004 57.2091642922906,132.40000000000003 56.199164292290604,134.45000000000005 C 55.189164292290606,136.49000000000004 53.4191642922906,138.49000000000004 51.1391642922906,138.51000000000005 C 48.449164292290604,138.53000000000006 42.8491642922906,136.73000000000005 41.5291642922906,134.38000000000005 C 41.2391642922906,133.86000000000004 40.8991642922906,133.29000000000005 40.339164292290604,133.08000000000004 C 39.909164292290605,132.91000000000005 38.9891642922906,133.06000000000003 38.9891642922906,133.06000000000003 C 38.9891642922906,133.06000000000003 35.8591642922906,140.28000000000003 33.7791642922906,141.43000000000004 C 26.799164292290598,145.30000000000004 15.609164292290599,145.30000000000004 10.929164292290599,142.85000000000002 C 7.1591642922905985,140.88000000000002 8.8891642922906,135.15000000000003 12.4191642922906,132.67000000000002 C 15.4591642922906,130.54000000000002 31.189164292290595,124.58000000000001 36.199164292290604,117.35000000000002 C 36.199164292290604,117.35000000000002 24.889164292290598,120.50000000000003 21.5191642922906,113.88000000000002 C 20.8191642922906,112.51000000000002 20.5991642922906,108.51000000000002 21.939164292290602,107.74000000000002 L 21.92916429229058,107.76 M 31.14916429229058,63.23 C 31.90916429229058,66.97 34.91916429229058,68.24 37.09916429229058,68.41 C 39.41916429229058,68.59 43.09916429229058,67.72 43.09916429229058,67.72 C 43.09916429229058,67.72 39.83916429229058,77.83 32.64916429229058,81.09 C 31.909164292290576,81.65 22.489164292290575,87.91 25.449164292290575,90.87 C 30.849164292290578,96.27000000000001 35.96916429229058,94.10000000000001 42.339164292290576,91.05000000000001 C 46.24916429229057,89.18 49.70916429229057,83.67000000000002 49.70916429229057,83.67000000000002 C 49.70916429229057,83.67000000000002 53.54916429229057,89.02000000000001 56.47916429229058,88.21000000000002 C 57.849164292290574,87.83000000000003 58.809164292290575,83.75000000000003 59.46916429229058,81.41000000000003 C 60.24916429229058,78.66000000000003 66.76916429229058,84.98000000000002 69.62916429229058,84.90000000000002 C 73.60916429229059,84.79000000000002 73.88916429229059,78.94000000000003 74.89916429229058,78.95000000000002 C 75.88916429229057,78.95000000000002 82.94916429229058,88.59000000000002 85.59916429229058,80.23000000000002 C 85.96916429229059,79.07000000000002 91.61916429229058,84.11000000000001 92.63916429229059,84.79000000000002 C 97.33916429229059,87.91000000000003 106.51916429229058,89.93000000000002 109.08916429229059,86.42000000000002 C 109.86916429229059,85.35000000000002 109.3191642922906,82.86000000000001 108.82916429229059,81.62000000000002 C 107.83916429229059,79.12000000000002 103.48916429229058,77.91000000000003 101.67916429229058,76.20000000000002 C 99.54916429229058,74.18000000000002 97.06916429229058,71.23000000000002 96.83916429229058,68.30000000000001 C 100.05916429229057,68.89000000000001 100.68916429229057,68.75000000000001 103.62916429229058,67.37 C 105.74916429229059,66.37 108.32916429229059,63.43000000000001 107.91916429229059,61.61000000000001 C 107.23916429229058,58.660000000000004 101.8491642922906,57.27000000000001 99.24916429229059,56.52000000000001 C 86.5691642922906,52.89000000000001 89.08916429229059,51.47000000000001 79.61916429229059,38.43000000000001 L 50.82916429229059,39.660000000000004 C 49.779164292290595,45.84 45.76916429229059,50.260000000000005 41.03916429229059,54.370000000000005 C 36.30916429229059,58.480000000000004 38.53916429229059,57.150000000000006 33.60916429229059,59.39 C 32.639164292290594,59.83 30.94916429229059,62.19 31.15916429229059,63.230000000000004 L 31.14916429229058,63.23 M 75.10916429229059,44.42 C 79.47916429229059,44.21 83.62916429229058,46.88 87.90916429229058,46.120000000000005 C 92.18916429229058,45.370000000000005 98.52916429229059,43.580000000000005 97.45916429229058,39.970000000000006 C 97.10916429229059,38.78000000000001 96.27916429229057,37.13000000000001 91.31916429229058,34.92000000000001 C 87.03916429229058,33.02000000000001 84.88916429229059,31.90000000000001 81.61916429229058,29.56000000000001 C 78.26916429229058,27.16000000000001 76.50916429229058,24.09000000000001 74.44916429229058,19.85000000000001 C 71.13916429229059,13.07 72.99916429229059,0.0 64.53916429229058,0.0 C 60.81916429229058,0.0 60.67916429229058,11.78 57.54916429229058,18.12 C 54.11916429229058,25.060000000000002 49.849164292290574,31.700000000000003 45.10916429229058,35.91 C 42.76916429229058,37.989999999999995 38.81916429229058,37.65 39.85916429229058,40.89 C 40.35916429229058,42.45 41.659164292290576,43.72 43.28916429229058,44.55 C 46.80916429229058,46.339999999999996 50.91916429229058,46.08 54.84916429229058,45.8 C 57.14916429229058,45.64 59.45916429229058,45.32 61.70916429229058,45.75 C 63.17916429229058,46.03 64.38916429229059,49.19 65.85916429229059,49.46 C 67.32916429229059,49.730000000000004 69.75916429229059,49.32 71.14916429229059,48.82 C 72.10916429229059,48.48 74.0791642922906,44.46 75.11916429229059,44.41 L 75.10916429229059,44.42"/>
</svg>
