<?xml version="1.0" ?>
<svg xmlns="http://www.w3.org/2000/svg" xmlns:ev="http://www.w3.org/2001/xml-events" xmlns:xlink="http://www.w3.org/1999/xlink" baseProfile="full" height="1852" id="Layer_1" style="enable-background:new 0 0 2000 2000;" transform="scale(0.09225092250922509 0.09225092250922509) translate(-542.0 -926.0)" version="1.1" viewBox="0 0 1084 1852" width="1084" x="0px" xml:space="preserve" y="0px">
	<defs/>
	<path d="M 983.2494185898759,1422.6012771527242 C 934.649418589876,1406.901277152724 870.9494185898759,1380.3012771527242 787.649418589876,1332.6012771527242 C 783.049418589876,1325.1012771527242 777.2494185898759,1316.6012771527242 770.7494185898759,1307.5012771527242 C 792.2494185898759,1324.7012771527243 811.0494185898758,1331.6012771527242 817.5494185898758,1325.6012771527242 C 823.4494185898759,1320.201277152724 818.0494185898758,1304.901277152724 815.6494185898757,1298.8012771527242 C 820.7494185898756,1304.8012771527242 828.9494185898757,1312.901277152724 840.7494185898756,1319.2012771527243 C 865.8494185898755,1332.8012771527242 898.8494185898755,1333.9012771527243 902.2494185898756,1325.2012771527243 C 903.9494185898757,1321.0012771527242 899.4494185898757,1312.4012771527243 872.3494185898755,1293.5012771527242 C 881.5494185898756,1292.4012771527243 895.2494185898756,1289.9012771527243 910.7494185898756,1283.6012771527242 C 917.2494185898756,1281.0012771527242 943.5494185898756,1270.3012771527242 942.3494185898755,1262.701277152724 C 941.0494185898756,1254.901277152724 910.7494185898756,1253.901277152724 898.7494185898756,1253.401277152724 C 769.1494185898757,1247.901277152724 639.0494185898756,1206.201277152724 606.1494185898757,1195.701277152724 C 599.1494185898757,1193.401277152724 589.0494185898758,1190.1012771527242 576.8494185898758,1185.701277152724 C 576.4494185898757,1132.6012771527242 576.0494185898758,1076.701277152724 575.6494185898757,1018.1012771527242 C 577.1494185898757,1021.6012771527242 578.8494185898758,1025.201277152724 580.7494185898756,1028.701277152724 C 602.0494185898756,1069.501277152724 643.1494185898757,1109.901277152724 660.1494185898757,1101.501277152724 C 667.2494185898756,1098.001277152724 673.7494185898756,1084.201277152724 664.7494185898756,1033.201277152724 C 682.8494185898755,1067.201277152724 701.2494185898756,1093.1012771527242 715.6494185898757,1111.301277152724 C 730.2494185898756,1129.801277152724 745.7494185898756,1149.201277152724 755.8494185898758,1151.701277152724 C 755.9494185898757,1151.701277152724 756.0494185898758,1151.701277152724 756.1494185898757,1151.801277152724 C 756.3494185898758,1151.9012771527239 756.5494185898758,1151.9012771527239 756.8494185898758,1151.9012771527239 C 757.0494185898758,1151.9012771527239 757.2494185898759,1152.0012771527238 757.4494185898757,1152.0012771527238 C 757.5494185898756,1152.0012771527238 757.6494185898757,1152.0012771527238 757.7494185898756,1152.0012771527238 C 758.0494185898756,1152.0012771527238 758.2494185898756,1152.0012771527238 758.5494185898756,1152.0012771527238 C 758.5494185898756,1152.0012771527238 758.5494185898756,1152.0012771527238 758.6494185898755,1152.0012771527238 C 759.2494185898754,1151.9012771527239 759.9494185898754,1151.8012771527237 760.4494185898754,1151.6012771527237 C 768.8494185898755,1148.1012771527237 767.2494185898754,1125.0012771527238 765.0494185898754,1108.4012771527237 C 770.2494185898754,1122.5012771527236 780.5494185898754,1144.3012771527237 801.4494185898754,1163.0012771527236 C 803.3494185898755,1164.7012771527236 805.3494185898755,1166.5012771527236 807.6494185898755,1168.2012771527236 C 824.2494185898754,1181.5012771527236 848.6494185898755,1195.8012771527235 859.0494185898756,1189.1012771527237 C 859.3494185898755,1188.9012771527237 859.6494185898755,1188.8012771527237 859.8494185898755,1188.6012771527237 C 860.4494185898754,1188.1012771527237 861.1494185898755,1187.4012771527237 861.8494185898755,1186.3012771527237 C 861.8494185898755,1186.3012771527237 861.9494185898754,1186.2012771527238 861.9494185898754,1186.2012771527238 C 862.0494185898754,1186.101277152724 862.0494185898754,1186.0012771527238 862.1494185898755,1185.9012771527239 C 862.2494185898754,1185.801277152724 862.2494185898754,1185.7012771527238 862.3494185898755,1185.5012771527238 C 862.3494185898755,1185.5012771527238 862.3494185898755,1185.4012771527239 862.3494185898755,1185.4012771527239 C 863.0494185898756,1184.101277152724 863.6494185898755,1182.2012771527238 863.9494185898754,1179.801277152724 C 863.9494185898754,1179.801277152724 863.9494185898754,1179.801277152724 863.9494185898754,1179.801277152724 C 864.5494185898754,1174.9012771527239 863.9494185898754,1167.501277152724 860.7494185898754,1156.201277152724 C 895.5494185898754,1181.501277152724 926.2494185898754,1191.001277152724 939.5494185898754,1183.6012771527242 C 939.5494185898754,1183.6012771527242 939.5494185898754,1183.6012771527242 939.6494185898753,1183.6012771527242 C 939.9494185898752,1183.401277152724 940.3494185898753,1183.201277152724 940.6494185898753,1183.0012771527242 C 940.9494185898752,1182.8012771527242 941.2494185898752,1182.6012771527242 941.4494185898752,1182.4012771527243 C 941.5494185898751,1182.3012771527244 941.6494185898753,1182.2012771527243 941.7494185898752,1182.2012771527243 C 942.0494185898751,1181.9012771527243 942.4494185898752,1181.6012771527244 942.7494185898752,1181.3012771527242 C 943.0494185898751,1181.0012771527242 943.3494185898751,1180.6012771527242 943.6494185898753,1180.3012771527242 C 943.7494185898752,1180.1012771527242 943.9494185898752,1179.901277152724 944.0494185898754,1179.7012771527243 C 944.1494185898753,1179.5012771527242 944.2494185898754,1179.3012771527242 944.4494185898754,1179.1012771527244 C 944.5494185898754,1178.9012771527243 944.6494185898755,1178.8012771527244 944.7494185898754,1178.6012771527244 C 944.7494185898754,1178.6012771527244 944.7494185898754,1178.6012771527244 944.7494185898754,1178.6012771527244 C 950.2494185898754,1168.8012771527244 944.8494185898753,1151.2012771527243 940.4494185898754,1140.3012771527244 C 970.0494185898754,1135.9012771527243 1002.7494185898754,1128.4012771527243 1004.1494185898755,1115.3012771527244 C 1006.5494185898756,1093.3012771527244 920.4494185898754,1069.8012771527244 865.2494185898754,1049.3012771527244 C 826.4494185898754,1034.9012771527243 781.6494185898755,1014.1012771527244 733.1494185898755,983.0012771527245 C 733.9494185898754,970.1012771527244 731.1494185898755,947.9012771527246 726.3494185898755,921.9012771527246 C 741.2494185898756,952.3012771527244 758.4494185898754,969.8012771527244 768.7494185898756,966.6012771527244 C 778.1494185898757,963.7012771527243 780.1494185898757,943.9012771527243 780.7494185898756,935.9012771527243 C 783.2494185898756,945.3012771527244 788.0494185898756,958.5012771527242 797.8494185898755,971.8012771527244 C 812.3494185898755,991.5012771527245 834.2494185898756,1006.5012771527245 848.9494185898754,1011.1012771527244 C 849.1494185898755,1011.2012771527243 849.2494185898754,1011.2012771527243 849.4494185898754,1011.3012771527244 C 849.9494185898754,1011.4012771527243 850.3494185898755,1011.6012771527244 850.8494185898755,1011.7012771527245 C 851.1494185898755,1011.8012771527244 851.3494185898755,1011.8012771527244 851.6494185898755,1011.9012771527246 C 852.0494185898756,1012.0012771527245 852.3494185898755,1012.1012771527246 852.6494185898755,1012.1012771527246 C 852.9494185898754,1012.2012771527245 853.2494185898754,1012.2012771527245 853.5494185898756,1012.3012771527247 C 853.8494185898755,1012.3012771527247 854.1494185898755,1012.4012771527246 854.3494185898755,1012.4012771527246 C 854.6494185898755,1012.4012771527246 854.9494185898754,1012.5012771527245 855.3494185898755,1012.5012771527245 C 855.5494185898756,1012.5012771527245 855.8494185898755,1012.5012771527245 856.0494185898756,1012.6012771527244 C 856.3494185898755,1012.6012771527244 856.6494185898755,1012.6012771527244 857.0494185898756,1012.6012771527244 C 857.2494185898756,1012.6012771527244 857.4494185898757,1012.6012771527244 857.6494185898755,1012.6012771527244 C 857.9494185898754,1012.6012771527244 858.3494185898755,1012.6012771527244 858.6494185898755,1012.6012771527244 C 858.7494185898754,1012.6012771527244 858.9494185898754,1012.6012771527244 859.0494185898756,1012.6012771527244 C 859.2494185898756,1012.6012771527244 859.5494185898756,1012.6012771527244 859.7494185898756,1012.5012771527245 C 859.7494185898756,1012.5012771527245 859.7494185898756,1012.5012771527245 859.7494185898756,1012.5012771527245 C 861.1494185898757,1012.2012771527245 862.2494185898756,1011.7012771527245 863.1494185898757,1010.9012771527246 C 867.2494185898756,1007.1012771527246 866.7494185898756,995.2012771527245 846.6494185898757,960.0012771527245 C 857.4494185898757,963.6012771527244 873.9494185898757,968.1012771527244 894.5494185898758,969.2012771527245 C 903.1494185898757,969.7012771527245 938.0494185898758,971.6012771527246 940.5494185898758,962.6012771527246 C 943.2494185898759,953.2012771527245 910.0494185898758,936.2012771527247 897.0494185898758,929.3012771527247 C 868.2494185898759,914.2012771527247 840.3494185898758,897.3012771527247 813.6494185898757,879.9012771527248 C 813.6494185898757,879.9012771527248 813.6494185898757,879.8012771527247 813.6494185898757,879.8012771527247 C 809.6494185898757,877.2012771527247 805.4494185898757,874.5012771527247 801.5494185898758,871.8012771527247 C 801.5494185898758,871.8012771527247 801.5494185898758,871.8012771527247 801.5494185898758,871.8012771527247 C 787.7494185898759,862.5012771527247 774.3494185898758,853.1012771527246 761.4494185898759,843.8012771527247 C 761.4494185898759,843.8012771527247 761.4494185898759,843.8012771527247 761.4494185898759,843.8012771527247 C 758.9494185898759,842.0012771527247 756.4494185898759,840.2012771527247 753.9494185898759,838.4012771527248 C 736.149418589876,825.2012771527247 719.2494185898759,812.2012771527247 703.7494185898759,799.8012771527247 C 715.7494185898759,800.7012771527247 724.4494185898759,799.2012771527247 726.5494185898758,794.8012771527247 C 728.9494185898759,789.7012771527247 723.3494185898758,778.4012771527248 687.8494185898758,751.6012771527246 C 697.6494185898757,758.4012771527246 719.0494185898758,770.9012771527246 747.0494185898758,769.8012771527247 C 765.1494185898757,769.1012771527246 790.9494185898759,762.4012771527248 791.6494185898757,752.7012771527247 C 792.5494185898758,740.8012771527247 755.6494185898757,729.8012771527247 733.5494185898758,721.9012771527248 C 692.0494185898758,707.2012771527247 636.4494185898759,680.2012771527247 573.2494185898759,626.4012771527248 C 573.0494185898758,602.7012771527247 572.9494185898759,578.8012771527247 572.7494185898759,554.6012771527248 C 596.2494185898759,577.3012771527249 610.7494185898759,586.8012771527249 616.2494185898759,583.1012771527248 C 619.5494185898758,580.8012771527249 619.649418589876,573.6012771527248 616.2494185898759,561.5012771527247 C 646.3494185898758,598.9012771527248 666.9494185898759,619.0012771527247 677.8494185898758,622.1012771527248 C 677.9494185898757,622.1012771527248 678.0494185898758,622.2012771527247 678.1494185898757,622.2012771527247 C 678.2494185898756,622.2012771527247 678.4494185898757,622.3012771527249 678.5494185898758,622.3012771527249 C 678.8494185898758,622.4012771527248 679.1494185898757,622.4012771527248 679.4494185898759,622.5012771527249 C 679.4494185898759,622.5012771527249 679.4494185898759,622.5012771527249 679.5494185898758,622.5012771527249 C 679.9494185898759,622.5012771527249 680.2494185898759,622.6012771527248 680.5494185898758,622.6012771527248 C 680.5494185898758,622.6012771527248 680.5494185898758,622.6012771527248 680.5494185898758,622.6012771527248 C 681.2494185898759,622.6012771527248 681.8494185898758,622.5012771527249 682.3494185898758,622.3012771527249 C 682.3494185898758,622.3012771527249 682.4494185898757,622.3012771527249 682.4494185898757,622.3012771527249 C 682.7494185898756,622.201277152725 682.9494185898757,622.1012771527248 683.2494185898756,622.0012771527249 C 683.4494185898757,621.901277152725 683.6494185898757,621.701277152725 683.7494185898756,621.6012771527251 C 688.0494185898756,618.401277152725 688.2494185898756,607.901277152725 684.3494185898755,590.1012771527251 C 736.3494185898755,634.201277152725 766.3494185898755,652.701277152725 774.2494185898756,645.901277152725 C 778.4494185898757,642.3012771527249 776.5494185898756,631.701277152725 768.5494185898756,614.0012771527249 C 778.0494185898756,617.901277152725 792.1494185898755,622.6012771527251 809.5494185898756,624.201277152725 C 843.7494185898756,627.401277152725 881.0494185898756,618.1012771527251 881.2494185898756,609.401277152725 C 881.4494185898757,600.6012771527251 844.0494185898756,593.401277152725 828.8494185898755,590.1012771527251 C 801.1494185898755,584.0012771527252 765.9494185898754,572.6012771527251 721.0494185898756,551.5012771527252 C 719.7494185898756,550.901277152725 718.3494185898755,550.2012771527252 717.0494185898756,549.6012771527251 C 717.0494185898756,549.6012771527251 717.0494185898756,549.6012771527251 717.0494185898756,549.6012771527251 C 714.9494185898757,548.6012771527251 712.9494185898757,547.6012771527251 710.8494185898755,546.6012771527251 C 708.3494185898755,545.3012771527251 705.7494185898756,544.1012771527251 703.0494185898756,542.8012771527251 C 687.9494185898757,535.2012771527252 671.8494185898755,526.6012771527251 654.6494185898755,516.8012771527251 C 654.6494185898755,516.8012771527251 654.6494185898755,516.8012771527251 654.6494185898755,516.8012771527251 C 654.5494185898756,516.8012771527251 654.5494185898756,516.7012771527252 654.4494185898754,516.7012771527252 C 650.8494185898755,514.6012771527251 647.1494185898755,512.5012771527252 643.3494185898755,510.30127715272516 C 642.7494185898756,510.0012771527252 642.2494185898756,509.6012771527251 641.6494185898755,509.30127715272516 C 641.6494185898755,509.30127715272516 641.6494185898755,509.30127715272516 641.6494185898755,509.30127715272516 C 620.0494185898756,496.6012771527251 596.7494185898754,482.0012771527252 571.7494185898754,465.30127715272516 C 571.5494185898754,441.5012771527252 571.4494185898754,417.50127715272515 571.2494185898754,393.30127715272516 C 578.8494185898753,401.80127715272516 588.7494185898754,411.50127715272515 601.3494185898753,420.9012771527252 C 616.1494185898753,432.0012771527252 646.5494185898754,454.70127715272514 661.1494185898753,444.80127715272516 C 663.8494185898753,443.0012771527252 670.0494185898754,437.20127715272514 668.9494185898752,417.50127715272515 C 689.5494185898751,432.50127715272515 708.2494185898752,440.0012771527252 720.9494185898752,444.0012771527252 C 736.7494185898752,449.0012771527252 758.0494185898751,455.60127715272523 765.3494185898753,446.60127715272523 C 771.1494185898753,439.4012771527252 765.3494185898753,425.5012771527252 762.7494185898754,420.10127715272523 C 769.7494185898754,425.20127715272525 786.3494185898753,435.70127715272525 808.3494185898753,435.20127715272525 C 837.2494185898754,434.60127715272523 865.6494185898753,415.3012771527253 863.4494185898752,405.60127715272523 C 861.6494185898753,397.20127715272525 837.5494185898751,396.20127715272525 826.7494185898752,395.40127715272524 C 800.4494185898752,393.40127715272524 759.3494185898751,385.60127715272523 691.7494185898752,363.8012771527252 C 688.9494185898752,360.5012771527252 684.9494185898752,356.60127715272523 679.5494185898751,351.8012771527252 C 695.9494185898752,358.8012771527252 710.0494185898751,362.8012771527252 720.4494185898752,365.2012771527252 C 732.7494185898752,368.0012771527252 745.9494185898752,371.0012771527252 748.2494185898752,366.8012771527252 C 750.2494185898752,363.10127715272523 743.0494185898751,355.3012771527252 737.3494185898751,349.90127715272524 C 743.2494185898752,353.50127715272527 753.3494185898751,358.3012771527252 766.2494185898752,359.00127715272527 C 776.3494185898751,359.50127715272527 793.2494185898752,357.8012771527253 794.6494185898753,351.3012771527253 C 794.9494185898752,349.8012771527253 794.9494185898752,346.00127715272527 785.5494185898754,339.4012771527253 C 807.1494185898753,338.4012771527253 821.6494185898753,331.9012771527253 822.3494185898753,324.7012771527253 C 822.8494185898753,319.0012771527253 814.8494185898753,313.5012771527253 809.6494185898753,310.6012771527253 C 819.0494185898754,300.50127715272527 828.6494185898753,288.3012771527253 825.3494185898753,283.1012771527253 C 819.6494185898753,274.1012771527253 778.8494185898753,291.4012771527253 756.2494185898754,299.50127715272527 C 715.2494185898754,314.20127715272525 655.1494185898755,326.8012771527253 570.7494185898754,318.3012771527253 C 570.5494185898754,285.1012771527253 570.2494185898754,251.6012771527253 570.0494185898754,217.6012771527253 C 579.7494185898754,231.00127715272527 599.6494185898753,256.1012771527253 609.0494185898754,251.80127715272528 C 617.9494185898754,247.80127715272528 613.4494185898754,219.50127715272527 611.6494185898753,209.1012771527253 C 645.1494185898753,239.7012771527253 665.7494185898752,252.30127715272528 673.4494185898752,246.80127715272528 C 678.8494185898753,242.9012771527253 677.9494185898752,230.1012771527253 670.5494185898751,208.30127715272528 C 677.3494185898751,212.70127715272525 690.2494185898752,219.70127715272525 707.2494185898752,220.1012771527253 C 718.9494185898752,220.4012771527253 737.0494185898751,217.80127715272528 737.9494185898752,211.7012771527253 C 739.0494185898751,205.00127715272532 718.9494185898752,197.6012771527253 699.5494185898751,188.7012771527253 C 650.4494185898752,166.2012771527253 620.2494185898752,152.3012771527253 603.0494185898751,127.20127715272531 C 581.0494185898751,95.00127715272532 578.7494185898752,41.60127715272532 562.9494185898751,12.001277152725308 C 560.1494185898752,6.801277152725305 555.8494185898751,0.20127715272531077 550.1494185898752,0.0012771527253079284 C 544.7494185898752,-0.09872284727468639 540.5494185898751,5.701277152725311 539.0494185898751,7.701277152725311 C 524.5494185898751,27.70127715272531 525.5494185898751,97.70127715272531 511.7494185898752,131.50127715272532 C 483.4494185898752,201.00127715272532 357.7494185898752,203.4012771527253 361.2494185898752,226.80127715272533 C 362.54941858987513,235.7012771527253 381.4494185898752,239.80127715272533 389.64941858987515,241.60127715272534 C 423.3494185898752,249.00127715272532 450.9494185898751,229.80127715272533 457.04941858987513,225.40127715272536 C 449.8494185898751,258.30127715272533 449.8494185898751,276.5012771527254 457.04941858987513,280.0012771527254 C 466.04941858987513,284.40127715272536 486.2494185898752,265.90127715272536 517.6494185898752,224.50127715272538 C 513.5494185898751,258.6012771527254 514.4494185898751,276.5012771527254 520.2494185898752,278.3012771527254 C 525.0494185898751,279.8012771527254 533.2494185898752,270.0012771527254 544.9494185898752,249.1012771527254 C 544.7494185898752,275.9012771527254 544.4494185898752,302.6012771527254 544.2494185898752,328.9012771527254 C 541.8494185898752,330.2012771527254 539.4494185898752,331.50127715272544 536.9494185898752,332.9012771527254 C 536.9494185898752,332.9012771527254 536.9494185898752,332.8012771527254 536.9494185898752,332.8012771527254 C 532.4494185898752,335.3012771527254 527.7494185898752,337.6012771527254 522.9494185898752,340.0012771527254 C 522.9494185898752,340.0012771527254 522.9494185898752,340.0012771527254 522.9494185898752,340.1012771527254 C 508.4494185898752,347.2012771527254 492.2494185898752,354.3012771527254 474.4494185898752,360.7012771527254 C 474.4494185898752,360.7012771527254 474.4494185898752,360.7012771527254 474.4494185898752,360.7012771527254 C 471.9494185898752,361.6012771527254 469.3494185898752,362.50127715272544 466.7494185898752,363.4012771527254 C 466.64941858987515,363.4012771527254 466.54941858987513,363.50127715272544 466.4494185898752,363.50127715272544 C 463.8494185898752,364.4012771527254 461.2494185898752,365.2012771527254 458.64941858987527,366.10127715272546 C 458.64941858987527,366.10127715272546 458.64941858987527,366.10127715272546 458.64941858987527,366.2012771527255 C 454.2494185898753,367.60127715272546 449.64941858987527,369.0012771527255 445.04941858987524,370.40127715272547 C 445.04941858987524,370.40127715272547 445.04941858987524,370.40127715272547 445.04941858987524,370.30127715272545 C 444.14941858987527,370.60127715272546 443.14941858987527,370.90127715272547 442.2494185898753,371.2012771527254 C 439.54941858987524,372.00127715272544 436.8494185898753,372.7012771527254 434.14941858987527,373.4012771527254 C 433.7494185898753,373.50127715272544 433.3494185898753,373.6012771527254 432.9494185898752,373.7012771527254 C 432.8494185898752,373.7012771527254 432.7494185898752,373.80127715272545 432.54941858987524,373.80127715272545 C 431.14941858987527,374.10127715272546 429.7494185898753,374.50127715272544 428.3494185898752,374.80127715272545 C 428.3494185898752,374.80127715272545 428.3494185898752,374.80127715272545 428.2494185898752,374.90127715272547 C 422.04941858987513,376.40127715272547 415.7494185898752,377.90127715272547 409.2494185898752,379.2012771527255 C 330.14941858987515,395.40127715272547 256.04941858987513,389.0012771527255 254.74941858987518,401.40127715272547 C 254.04941858987513,408.10127715272546 274.8494185898752,415.5012771527255 288.04941858987513,420.2012771527255 C 318.14941858987515,430.90127715272547 344.54941858987513,429.0012771527255 358.54941858987513,426.90127715272547 C 341.64941858987515,443.4012771527255 340.04941858987513,450.3012771527255 341.8494185898751,453.50127715272544 C 342.54941858987513,454.8012771527254 343.8494185898751,455.60127715272546 345.54941858987513,456.2012771527255 C 345.64941858987515,456.2012771527255 345.7494185898752,456.3012771527255 345.8494185898751,456.3012771527255 C 346.04941858987513,456.3012771527255 346.14941858987504,456.4012771527255 346.3494185898751,456.4012771527255 C 348.24941858987506,456.9012771527255 350.54941858987513,457.00127715272555 353.24941858987506,456.9012771527255 C 353.3494185898751,456.9012771527255 353.4494185898751,456.9012771527255 353.549418589875,456.9012771527255 C 353.549418589875,456.9012771527255 353.64941858987504,456.9012771527255 353.64941858987504,456.9012771527255 C 368.049418589875,456.3012771527255 390.049418589875,448.9012771527255 391.449418589875,448.4012771527255 C 401.14941858987504,445.1012771527256 409.949418589875,441.1012771527256 418.049418589875,436.70127715272554 C 418.14941858987504,436.6012771527255 418.14941858987504,436.6012771527255 418.24941858987506,436.50127715272555 C 431.24941858987506,429.4012771527255 442.14941858987504,421.30127715272556 451.24941858987506,413.4012771527255 C 447.24941858987506,439.00127715272555 449.24941858987506,454.00127715272555 457.24941858987506,458.6012771527256 C 470.24941858987506,466.1012771527256 499.049418589875,446.00127715272555 543.7494185898751,398.4012771527256 C 543.549418589875,422.2012771527256 543.3494185898751,445.7012771527256 543.149418589875,469.1012771527256 C 515.149418589875,492.50127715272555 474.64941858987504,520.3012771527256 421.449418589875,538.5012771527256 C 328.349418589875,570.5012771527256 234.64941858987504,560.4012771527255 232.449418589875,580.1012771527255 C 231.449418589875,589.2012771527257 250.84941858987497,598.4012771527255 252.949418589875,599.4012771527255 C 276.949418589875,610.9012771527255 302.24941858987495,600.1012771527255 308.74941858987495,597.1012771527255 C 289.849418589875,618.7012771527257 282.349418589875,631.9012771527255 285.949418589875,636.9012771527255 C 291.849418589875,644.9012771527255 326.74941858987495,631.7012771527254 390.64941858987504,597.1012771527255 C 383.049418589875,619.9012771527255 382.3494185898751,633.6012771527255 388.3494185898751,638.1012771527255 C 399.14941858987504,646.1012771527255 431.3494185898751,625.2012771527257 485.04941858987513,575.5012771527256 C 482.54941858987513,592.9012771527255 483.64941858987515,602.8012771527256 488.4494185898751,605.1012771527255 C 496.3494185898751,608.9012771527255 514.2494185898751,591.8012771527256 542.2494185898751,553.9012771527255 C 542.049418589875,580.6012771527255 541.7494185898751,607.0012771527256 541.549418589875,633.1012771527255 C 533.449418589875,638.9012771527255 525.549418589875,644.6012771527255 517.7494185898751,650.0012771527256 C 517.2494185898751,650.4012771527255 516.649418589875,650.8012771527256 516.149418589875,651.1012771527255 C 502.14941858987504,660.9012771527255 488.449418589875,670.0012771527256 475.14941858987504,678.5012771527256 C 470.24941858987506,681.6012771527255 465.549418589875,684.6012771527255 460.74941858987506,687.6012771527255 C 460.74941858987506,687.6012771527255 460.74941858987506,687.6012771527255 460.74941858987506,687.6012771527255 C 454.049418589875,691.8012771527256 447.4494185898751,695.9012771527255 440.8494185898751,699.8012771527256 C 437.54941858987513,701.7012771527257 434.3494185898751,703.6012771527255 431.24941858987506,705.5012771527256 C 431.24941858987506,705.5012771527256 431.24941858987506,705.5012771527256 431.24941858987506,705.5012771527256 C 352.64941858987504,751.7012771527257 289.54941858987513,776.4012771527257 241.54941858987513,790.5012771527256 C 214.24941858987518,798.5012771527256 145.74941858987518,816.6012771527257 147.04941858987513,834.5012771527256 C 147.84941858987509,845.5012771527256 174.9494185898751,853.6012771527257 193.74941858987518,854.2012771527257 C 221.3494185898752,855.2012771527257 240.64941858987515,840.4012771527257 246.14941858987515,836.0012771527256 C 232.4494185898751,848.7012771527257 227.4494185898751,864.0012771527256 232.4494185898751,872.4012771527257 C 238.74941858987506,882.8012771527256 258.64941858987515,880.0012771527256 265.4494185898751,879.0012771527256 C 298.4494185898751,874.3012771527256 319.74941858987506,846.3012771527256 328.04941858987513,833.7012771527257 C 326.2494185898752,850.7012771527257 327.4494185898751,861.8012771527258 331.54941858987513,867.3012771527258 C 332.4494185898751,868.6012771527257 333.54941858987513,869.5012771527258 334.8494185898751,870.1012771527257 C 335.24941858987506,870.3012771527258 335.54941858987513,870.4012771527257 335.9494185898751,870.6012771527257 C 336.04941858987513,870.6012771527257 336.14941858987515,870.7012771527257 336.24941858987506,870.7012771527257 C 336.64941858987504,870.8012771527258 337.049418589875,870.9012771527257 337.4494185898751,871.0012771527256 C 337.4494185898751,871.0012771527256 337.54941858987513,871.0012771527256 337.54941858987513,871.0012771527256 C 338.4494185898751,871.2012771527257 339.3494185898751,871.2012771527257 340.3494185898751,871.1012771527257 C 340.54941858987513,871.1012771527257 340.64941858987504,871.1012771527257 340.8494185898751,871.1012771527257 C 340.8494185898751,871.1012771527257 340.8494185898751,871.1012771527257 340.9494185898751,871.1012771527257 C 356.3494185898751,869.4012771527257 384.64941858987515,842.6012771527257 425.9494185898751,790.5012771527256 C 422.64941858987515,818.8012771527256 424.9494185898751,834.7012771527257 432.74941858987506,838.2012771527257 C 433.14941858987504,838.4012771527257 433.549418589875,838.5012771527256 433.9494185898751,838.6012771527257 C 433.9494185898751,838.6012771527257 434.04941858987513,838.6012771527257 434.04941858987513,838.6012771527257 C 436.54941858987513,839.3012771527258 439.64941858987515,838.8012771527258 443.14941858987515,837.3012771527258 C 443.2494185898752,837.3012771527258 443.3494185898752,837.2012771527257 443.4494185898751,837.2012771527257 C 443.54941858987513,837.1012771527257 443.74941858987506,837.1012771527257 443.8494185898751,837.0012771527256 C 444.24941858987506,836.8012771527256 444.74941858987506,836.6012771527257 445.14941858987504,836.4012771527257 C 445.14941858987504,836.4012771527257 445.14941858987504,836.4012771527257 445.14941858987504,836.4012771527257 C 464.049418589875,826.4012771527257 495.8494185898751,788.0012771527256 540.649418589875,721.0012771527256 C 540.2494185898751,767.4012771527257 539.8494185898751,812.6012771527257 539.449418589875,856.6012771527257 C 514.149418589875,886.6012771527257 479.74941858987495,922.3012771527258 434.949418589875,956.7012771527257 C 262.549418589875,1089.1012771527257 61.24941858987495,1107.3012771527256 66.14941858987504,1143.4012771527257 C 67.84941858987509,1155.7012771527257 92.64941858987504,1162.4012771527257 98.04941858987502,1163.9012771527257 C 136.949418589875,1174.4012771527257 173.64941858987504,1147.4012771527257 184.54941858987502,1138.9012771527257 C 160.04941858987502,1159.9012771527257 144.84941858987497,1181.4012771527257 150.449418589875,1191.3012771527258 C 157.24941858987495,1203.5012771527258 193.84941858987497,1195.1012771527257 211.949418589875,1189.0012771527258 C 250.14941858987504,1176.2012771527259 274.449418589875,1150.401277152726 287.049418589875,1134.401277152726 C 277.14941858987504,1160.901277152726 275.64941858987504,1176.801277152726 282.449418589875,1182.2012771527259 C 295.14941858987504,1192.3012771527258 336.949418589875,1165.7012771527259 407.64941858987504,1102.5012771527258 C 404.549418589875,1117.2012771527259 402.549418589875,1134.5012771527258 409.949418589875,1138.901277152726 C 424.449418589875,1147.5012771527258 466.14941858987504,1101.801277152726 475.949418589875,1091.101277152726 C 494.449418589875,1070.901277152726 517.249418589875,1041.501277152726 538.149418589875,1000.4012771527259 C 537.549418589875,1065.301277152726 536.949418589875,1127.101277152726 536.449418589875,1185.5012771527258 C 427.14941858987504,1234.901277152726 340.24941858987495,1245.0012771527258 278.549418589875,1244.0012771527258 C 237.54941858987502,1243.3012771527258 171.74941858987506,1237.2012771527259 167.64941858987504,1252.8012771527258 C 165.24941858987506,1262.1012771527257 185.449418589875,1275.6012771527257 204.24941858987506,1286.2012771527259 C 198.24941858987506,1292.7012771527259 189.54941858987502,1303.901277152726 191.74941858987506,1312.101277152726 C 191.84941858987509,1312.501277152726 191.9494185898751,1312.901277152726 192.14941858987504,1313.301277152726 C 192.54941858987502,1314.301277152726 193.14941858987504,1315.201277152726 193.84941858987509,1316.001277152726 C 193.84941858987509,1316.001277152726 193.9494185898751,1316.101277152726 193.9494185898751,1316.101277152726 C 194.14941858987515,1316.301277152726 194.34941858987509,1316.501277152726 194.64941858987515,1316.801277152726 C 194.74941858987518,1316.901277152726 194.8494185898752,1317.001277152726 194.9494185898751,1317.101277152726 C 195.14941858987515,1317.2012771527259 195.24941858987506,1317.401277152726 195.4494185898751,1317.501277152726 C 195.74941858987506,1317.701277152726 196.04941858987513,1318.001277152726 196.4494185898751,1318.201277152726 C 196.4494185898751,1318.201277152726 196.4494185898751,1318.201277152726 196.4494185898751,1318.201277152726 C 205.74941858987506,1324.4012771527262 227.14941858987515,1324.801277152726 253.9494185898751,1317.501277152726 C 243.14941858987515,1331.801277152726 244.9494185898751,1337.601277152726 246.14941858987515,1339.601277152726 C 251.3494185898752,1348.601277152726 277.3494185898752,1343.001277152726 292.2494185898752,1337.301277152726 C 311.2494185898752,1330.001277152726 323.8494185898752,1318.001277152726 330.9494185898752,1309.801277152726 C 325.14941858987527,1320.501277152726 318.04941858987524,1335.601277152726 322.8494185898752,1340.201277152726 C 328.2494185898752,1345.4012771527262 346.4494185898752,1334.701277152726 363.4494185898752,1324.501277152726 C 377.8494185898752,1315.9012771527262 396.9494185898752,1303.101277152726 417.9494185898752,1284.801277152726 C 412.9494185898752,1293.201277152726 409.2494185898752,1300.201277152726 406.64941858987527,1305.901277152726 C 389.7494185898753,1318.0012771527258 373.14941858987527,1329.101277152726 356.9494185898752,1339.101277152726 C 356.9494185898752,1339.101277152726 356.9494185898752,1339.101277152726 356.9494185898752,1339.101277152726 C 356.8494185898752,1339.2012771527259 356.64941858987527,1339.301277152726 356.54941858987524,1339.301277152726 C 344.04941858987524,1347.101277152726 331.64941858987527,1354.201277152726 319.64941858987527,1360.901277152726 C 318.9494185898752,1361.301277152726 318.14941858987527,1361.7012771527259 317.4494185898752,1362.101277152726 C 283.4494185898752,1380.601277152726 251.54941858987524,1395.001277152726 222.04941858987524,1406.2012771527259 C 222.04941858987524,1406.2012771527259 222.04941858987524,1406.101277152726 222.14941858987527,1406.101277152726 C 215.8494185898753,1408.601277152726 209.8494185898753,1410.801277152726 203.8494185898753,1412.801277152726 C 203.8494185898753,1412.801277152726 203.8494185898753,1412.901277152726 203.7494185898753,1412.901277152726 C 202.7494185898753,1413.301277152726 201.64941858987527,1413.601277152726 200.64941858987527,1414.0012771527258 C 122.54941858987524,1441.2012771527259 -2.8505814101247324,1470.5012771527258 0.049418589875244834,1489.401277152726 C 1.3494185898752562,1497.601277152726 25.949418589875222,1500.2012771527259 31.949418589875222,1500.801277152726 C 76.64941858987527,1505.501277152726 110.74941858987518,1477.701277152726 120.74941858987518,1468.901277152726 C 108.3494185898752,1494.601277152726 105.24941858987518,1510.601277152726 111.64941858987515,1516.7012771527259 C 112.14941858987515,1517.2012771527259 112.64941858987515,1517.5012771527258 113.24941858987518,1517.901277152726 C 124.54941858987513,1524.7012771527259 155.8494185898752,1510.7012771527259 207.24941858987518,1475.801277152726 C 198.8494185898752,1520.101277152726 200.04941858987513,1545.701277152726 210.8494185898752,1552.601277152726 C 211.14941858987515,1552.801277152726 211.44941858987522,1553.001277152726 211.74941858987518,1553.101277152726 C 212.3494185898752,1553.401277152726 212.94941858987522,1553.7012771527259 213.54941858987513,1553.801277152726 C 233.4494185898751,1560.201277152726 278.3494185898751,1518.301277152726 348.3494185898751,1427.901277152726 C 341.9494185898751,1457.7012771527259 341.14941858987504,1475.901277152726 345.74941858987506,1482.601277152726 C 345.74941858987506,1482.601277152726 345.74941858987506,1482.601277152726 345.74941858987506,1482.601277152726 C 346.4494185898751,1483.601277152726 347.3494185898751,1484.401277152726 348.3494185898751,1484.801277152726 C 348.64941858987504,1485.001277152726 349.04941858987513,1485.101277152726 349.4494185898751,1485.201277152726 C 349.64941858987515,1485.201277152726 349.74941858987506,1485.301277152726 349.9494185898751,1485.301277152726 C 350.14941858987515,1485.301277152726 350.3494185898751,1485.401277152726 350.54941858987513,1485.401277152726 C 350.8494185898751,1485.401277152726 351.14941858987515,1485.401277152726 351.54941858987513,1485.401277152726 C 351.64941858987515,1485.401277152726 351.64941858987515,1485.401277152726 351.7494185898752,1485.401277152726 C 364.8494185898752,1484.601277152726 392.54941858987513,1453.301277152726 434.9494185898752,1391.5012771527258 C 431.54941858987524,1424.901277152726 433.7494185898752,1443.1012771527257 441.7494185898752,1446.1012771527257 C 455.64941858987515,1451.3012771527258 486.7494185898752,1410.5012771527258 535.0494185898751,1323.8012771527258 C 531.9494185898751,1644.7012771527259 529.9494185898751,1833.3012771527258 529.4494185898751,1838.7012771527259 C 529.3494185898751,1839.3012771527258 528.8494185898751,1843.2012771527259 530.8494185898751,1846.401277152726 C 533.4494185898751,1850.401277152726 538.7494185898751,1850.901277152726 546.7494185898751,1851.101277152726 C 567.3494185898751,1851.601277152726 577.649418589875,1851.801277152726 581.149418589875,1845.601277152726 C 583.0494185898751,1842.301277152726 582.5494185898751,1838.7012771527259 582.5494185898751,1837.901277152726 C 582.0494185898751,1831.5012771527258 580.4494185898752,1637.301277152726 577.9494185898752,1309.8012771527258 C 597.3494185898753,1342.3012771527258 616.0494185898751,1365.8012771527258 630.6494185898753,1382.3012771527258 C 644.2494185898752,1397.5012771527258 656.1494185898753,1408.7012771527259 667.8494185898753,1405.9012771527257 C 684.6494185898753,1401.8012771527258 689.4494185898752,1371.6012771527257 689.8494185898753,1368.7012771527257 C 747.6494185898753,1440.9012771527257 782.5494185898754,1473.5012771527256 794.5494185898754,1466.6012771527257 C 801.5494185898754,1462.6012771527257 800.7494185898754,1445.1012771527257 792.2494185898754,1414.2012771527257 C 836.5494185898754,1491.2012771527257 888.6494185898755,1519.1012771527257 917.4494185898754,1530.3012771527256 C 932.4494185898754,1536.1012771527255 952.5494185898754,1541.9012771527255 968.9494185898754,1544.1012771527255 C 968.9494185898754,1544.1012771527255 969.0494185898754,1544.2012771527254 969.0494185898754,1544.2012771527254 C 974.8494185898753,1545.0012771527254 980.1494185898753,1545.2012771527254 984.6494185898753,1544.8012771527253 C 990.8494185898753,1544.3012771527253 995.3494185898753,1542.7012771527254 997.0494185898754,1539.4012771527252 C 1002.7494185898754,1528.8012771527253 977.9494185898754,1504.6012771527253 960.6494185898753,1489.3012771527253 C 971.9494185898752,1494.3012771527253 991.1494185898753,1501.1012771527253 1015.2494185898752,1500.7012771527254 C 1024.5494185898751,1500.5012771527254 1035.0494185898751,1499.3012771527253 1045.0494185898751,1497.2012771527254 C 1045.2494185898752,1497.2012771527254 1045.5494185898751,1497.1012771527255 1045.7494185898752,1497.1012771527255 C 1045.9494185898752,1497.1012771527255 1046.1494185898753,1497.0012771527256 1046.349418589875,1497.0012771527256 C 1052.849418589875,1495.6012771527255 1059.0494185898751,1493.8012771527256 1064.449418589875,1491.7012771527257 C 1064.449418589875,1491.7012771527257 1064.349418589875,1491.7012771527257 1064.349418589875,1491.7012771527257 C 1075.2494185898752,1487.5012771527256 1082.949418589875,1482.0012771527256 1083.649418589875,1475.8012771527256 C 1085.449418589876,1454.1012771527242 1007.649418589876,1430.5012771527242 983.2494185898759,1422.6012771527242 M 711.849418589876,1286.8012771527242 C 711.7494185898761,1286.7012771527243 711.649418589876,1286.7012771527243 711.549418589876,1286.6012771527242 C 711.2494185898761,1285.901277152724 710.9494185898761,1285.3012771527242 710.649418589876,1284.701277152724 C 711.0494185898758,1285.401277152724 711.4494185898759,1286.1012771527242 711.849418589876,1286.8012771527242 M 574.2494185898759,850.9012771527241 C 574.149418589876,831.2012771527241 573.9494185898759,811.4012771527241 573.8494185898758,791.2012771527241 C 582.4494185898757,807.1012771527242 593.8494185898758,823.001277152724 602.5494185898758,821.1012771527242 C 609.4494185898759,819.6012771527242 612.7494185898759,807.2012771527241 614.5494185898758,796.6012771527242 C 619.5494185898758,835.2012771527241 630.6494185898757,863.001277152724 639.5494185898758,880.8012771527242 C 644.0494185898758,889.9012771527241 655.1494185898757,911.9012771527241 662.3494185898758,910.4012771527241 C 671.1494185898757,908.6012771527242 671.5494185898758,877.1012771527242 671.4494185898757,864.9012771527241 C 673.1494185898757,894.5012771527242 680.2494185898756,927.4012771527241 698.0494185898756,959.2012771527241 C 696.9494185898757,958.4012771527241 695.8494185898755,957.6012771527242 694.7494185898756,956.801277152724 C 694.7494185898756,956.801277152724 694.7494185898756,956.801277152724 694.7494185898756,956.801277152724 C 656.149418589876,928.8012771527242 615.649418589876,894.1012771527242 574.2494185898759,850.9012771527241" id="XMLID_39_"/>
</svg>
