<?xml version="1.0" ?>
<svg xmlns="http://www.w3.org/2000/svg" xmlns:ev="http://www.w3.org/2001/xml-events" xmlns:xlink="http://www.w3.org/1999/xlink" baseProfile="full" height="205" id="katman_2" transform="scale(0.7092198581560284 0.7092198581560284) translate(-70.5 -101.5)" version="1.1" viewBox="0 0 141 205" width="141">
	<defs/>
	<path d="M 119.02997795862606,163.67480000000003 C 118.35997795862606,162.47480000000004 114.64997795862607,161.53480000000005 112.79997795862606,160.40480000000002 C 112.54997795862606,160.25480000000002 112.29997795862606,160.09480000000002 112.05997795862606,159.92480000000003 C 114.45997795862607,161.10480000000004 117.54997795862606,160.78480000000005 119.29997795862606,159.48480000000004 C 121.11997795862605,158.14480000000003 121.49997795862606,155.60480000000004 119.87997795862606,153.62480000000002 C 120.37997795862606,153.81480000000002 120.86997795862605,154.02480000000003 121.33997795862605,154.25480000000002 C 123.46997795862605,155.27480000000003 125.55997795862605,156.52480000000003 127.93997795862605,156.78480000000002 C 130.31997795862605,157.0448 133.11997795862604,155.87480000000002 133.53997795862605,153.68480000000002 C 134.04997795862604,151.0748 132.58997795862606,147.56480000000002 130.37997795862606,145.54480000000004 C 130.61997795862607,145.43480000000002 130.84997795862606,145.30480000000003 131.05997795862606,145.15480000000005 C 132.65997795862606,143.97480000000004 132.82997795862607,141.55480000000006 131.16997795862608,139.57480000000004 C 132.60997795862608,138.87480000000005 134.00997795862608,138.15480000000005 135.4099779586261,137.35480000000004 C 138.7699779586261,135.42480000000003 143.10997795862608,127.38480000000004 139.16997795862608,127.12480000000004 C 136.63997795862608,126.95480000000003 134.19997795862608,127.36480000000003 134.19997795862608,127.36480000000003 C 134.19997795862608,127.36480000000003 135.5599779586261,124.91480000000003 136.09997795862608,122.06480000000003 C 136.37997795862609,120.60480000000004 136.76997795862607,118.90480000000004 135.6199779586261,117.87480000000004 C 134.3699779586261,116.75480000000003 132.1999779586261,117.19480000000003 130.9199779586261,118.27480000000004 C 129.6299779586261,119.35480000000004 128.9299779586261,120.88480000000004 127.9899779586261,122.23480000000004 C 124.9799779586261,126.52480000000004 119.4099779586261,128.85480000000004 113.8999779586261,129.26480000000004 C 108.38997795862609,129.67480000000003 102.8999779586261,128.39480000000003 97.6599779586261,126.76480000000004 C 94.8699779586261,125.89480000000003 91.8999779586261,124.72480000000003 90.4499779586261,122.37480000000004 C 92.1099779586261,123.09480000000003 94.03997795862611,123.16480000000004 95.70997795862611,121.83480000000003 C 96.6699779586261,121.06480000000003 96.22997795862611,119.47480000000003 95.4499779586261,117.79480000000002 C 96.75997795862611,118.93480000000002 98.7199779586261,120.18480000000002 100.9499779586261,120.03480000000002 C 102.5199779586261,119.92480000000002 103.98997795862611,118.90480000000002 104.2999779586261,117.47480000000002 C 104.6099779586261,116.04480000000001 103.8599779586261,114.50480000000002 102.6099779586261,113.62480000000002 C 102.4699779586261,113.52480000000003 102.3099779586261,113.43480000000002 102.1599779586261,113.34480000000002 C 103.5799779586261,113.78480000000002 104.9599779586261,113.68480000000002 105.9599779586261,112.94480000000001 C 107.19997795862609,112.03480000000002 107.5499779586261,110.35480000000001 107.0999779586261,108.55480000000001 C 107.8999779586261,108.74480000000001 108.69997795862609,108.92480000000002 109.5099779586261,108.99480000000001 C 111.55997795862609,109.18480000000001 114.0999779586261,108.16480000000001 114.1199779586261,106.25480000000002 C 114.13997795862609,104.37480000000002 111.8799779586261,103.40480000000002 110.44997795862609,101.99480000000001 C 110.8399779586261,101.88480000000001 111.2099779586261,101.72480000000002 111.5399779586261,101.4848 C 113.3799779586261,100.12480000000001 113.2599779586261,97.0848 111.3999779586261,94.4248 C 113.1499779586261,92.60480000000001 115.4399779586261,91.2448 116.9799779586261,89.2548 C 118.5399779586261,87.2348 119.0199779586261,84.0848 116.9799779586261,82.4648 C 115.49997795862609,81.2948 113.2099779586261,81.3848 111.4899779586261,82.23479999999999 C 109.7699779586261,83.08479999999999 108.5099779586261,84.5248 107.3299779586261,85.9648 C 104.50997795862611,89.4348 101.7799779586261,93.20479999999999 97.6499779586261,95.25479999999999 C 92.9399779586261,97.58479999999999 86.7899779586261,97.13479999999998 82.5399779586261,94.14479999999999 C 80.8699779586261,92.97479999999999 80.2199779586261,91.74479999999998 80.0199779586261,88.6248 C 83.4399779586261,90.17479999999999 83.9799779586261,85.67479999999999 83.9799779586261,85.67479999999999 C 83.9799779586261,85.67479999999999 90.40997795862609,89.4048 90.0499779586261,82.55479999999999 C 89.97997795862611,81.20479999999999 89.6999779586261,80.09479999999999 89.3599779586261,79.13479999999998 C 90.5999779586261,80.17479999999999 92.0499779586261,80.63479999999998 93.3599779586261,80.23479999999998 C 95.6399779586261,79.55479999999997 96.6799779586261,76.54479999999998 95.8199779586261,73.36479999999997 C 95.9699779586261,73.43479999999997 96.1199779586261,73.49479999999997 96.2699779586261,73.55479999999997 C 97.9599779586261,74.23479999999998 100.3699779586261,74.28479999999998 101.1799779586261,72.75479999999997 C 102.1299779586261,70.96479999999997 100.0699779586261,69.48479999999998 98.6299779586261,67.77479999999997 C 99.9599779586261,67.87479999999996 100.9399779586261,67.65479999999997 101.3999779586261,66.56479999999998 C 102.0499779586261,65.02479999999997 101.2899779586261,62.65479999999999 99.5699779586261,60.92479999999998 C 99.8299779586261,60.624799999999986 100.0999779586261,60.32479999999998 100.3499779586261,60.04479999999998 C 101.8599779586261,58.33479999999998 102.9899779586261,55.57479999999998 101.19997795862609,54.11479999999998 C 99.2099779586261,52.494799999999984 96.46997795862609,55.04479999999998 94.24997795862609,56.39479999999998 C 90.41997795862609,58.71479999999998 86.46997795862609,61.08479999999998 81.98997795862608,61.954799999999985 C 78.77997795862609,62.57479999999998 74.88997795862609,62.124799999999986 73.10997795862609,59.57479999999998 C 72.96997795862609,59.37479999999998 72.84997795862608,59.14479999999998 72.74997795862609,58.914799999999985 C 74.82997795862609,59.68479999999999 77.10997795862609,59.46479999999998 78.43997795862609,58.484799999999986 C 79.94997795862609,57.374799999999986 80.18997795862609,55.14479999999998 78.79997795862609,53.22479999999999 C 79.34997795862608,53.60479999999999 80.27997795862609,54.094799999999985 81.49997795862609,54.21479999999999 C 83.54997795862609,54.40479999999999 85.05997795862609,53.86479999999999 85.57997795862609,52.02479999999999 C 86.0099779586261,50.48479999999999 85.18997795862609,47.37479999999999 85.18997795862609,47.37479999999999 C 85.18997795862609,47.37479999999999 89.06997795862608,47.63479999999999 90.43997795862609,46.4648 C 91.80997795862609,45.3048 92.16997795862609,43.114799999999995 90.92997795862608,41.824799999999996 C 90.46997795862609,41.3448 89.84997795862608,41.014799999999994 89.26997795862609,40.6448 C 90.02997795862609,40.724799999999995 90.72997795862608,40.6348 91.21997795862609,40.3548 C 92.45997795862608,39.6348 91.84997795862608,37.9648 90.7299779586261,36.1248 C 92.04997795862609,35.2748 93.3699779586261,34.4248 94.30997795862609,33.2348 C 95.69997795862609,31.4748 95.8399779586261,28.5748 93.8199779586261,27.4548 C 92.4799779586261,26.7148 90.7199779586261,27.0448 89.3699779586261,27.7748 C 88.0199779586261,28.5048 86.93997795862609,29.584799999999998 85.6599779586261,30.4148 C 82.9599779586261,32.1948 79.5999779586261,32.8148 76.3399779586261,33.3948 C 74.07997795862609,33.794799999999995 70.8399779586261,34.224799999999995 69.44997795862609,32.5248 C 65.9299779586261,28.244799999999998 64.44997795862609,22.564799999999998 65.4899779586261,17.2648 C 66.0699779586261,14.2848 67.3999779586261,11.4448 67.6899779586261,8.4348 C 67.97997795862611,5.4248 66.86997795862611,1.9648000000000003 63.9299779586261,0.6448 C 61.619977958626095,-0.3952 58.369977958626095,-0.2652 56.909977958626094,1.6848 C 55.1099779586261,4.0848 53.1799779586261,9.1948 53.30997795862609,12.1248 C 53.509977958626095,16.5848 53.74997795862609,19.5248 54.96997795862609,26.4048 C 55.60997795862609,30.004800000000003 55.99997795862609,31.954800000000002 55.64997795862609,34.744800000000005 C 55.379977958626085,36.9048 54.32997795862609,38.274800000000006 53.71997795862609,38.73480000000001 C 51.84997795862609,40.144800000000004 51.12997795862609,41.40480000000001 49.06997795862609,40.23480000000001 C 47.00997795862609,39.064800000000005 45.66997795862609,37.08480000000001 43.94997795862609,35.50480000000001 C 42.229977958626094,33.92480000000001 39.659977958626094,32.70480000000001 37.439977958626095,33.59480000000001 C 35.05997795862609,34.544800000000016 34.34997795862609,37.544800000000016 35.229977958626094,39.81480000000001 C 35.549977958626094,40.654800000000016 36.27997795862609,41.63480000000001 37.0699779586261,42.554800000000014 C 36.4099779586261,43.904800000000016 36.2399779586261,45.06480000000001 37.2099779586261,45.624800000000015 C 37.7399779586261,45.93480000000002 38.539977958626096,46.014800000000015 39.3899779586261,45.89480000000002 C 38.6099779586261,48.11480000000002 38.8499779586261,50.11480000000002 40.149977958626096,50.86480000000002 C 40.44997795862609,51.044800000000016 40.799977958626094,51.13480000000002 41.1699779586261,51.154800000000016 C 41.149977958626096,51.20480000000001 41.1099779586261,51.24480000000002 41.0999779586261,51.304800000000014 C 40.8499779586261,52.17480000000001 40.8099779586261,53.06480000000001 41.289977958626096,54.13480000000001 C 41.9599779586261,55.654800000000016 45.1399779586261,56.56480000000001 45.1399779586261,56.56480000000001 C 44.4499779586261,57.624800000000015 46.009977958626095,61.47480000000001 49.6399779586261,59.24480000000001 C 50.719977958626096,58.57480000000001 51.4799779586261,60.93480000000001 52.1099779586261,62.00480000000001 C 53.579977958626095,64.51480000000001 53.219977958626096,68.1448 50.5999779586261,69.6448 C 48.2599779586261,70.9848 45.0899779586261,70.15480000000001 42.939977958626095,68.54480000000001 C 40.799977958626094,66.93480000000001 39.34997795862609,64.69480000000001 37.549977958626094,62.764800000000015 C 35.7499779586261,60.834800000000016 33.329977958626095,59.09480000000001 30.569977958626094,59.13480000000001 C 26.579977958626095,59.194800000000015 24.539977958626093,62.13480000000001 26.379977958626093,65.4148 C 27.359977958626093,67.1548 28.88997795862609,68.6548 30.629977958626093,69.8948 C 30.199977958626093,71.5348 30.36997795862609,72.8648 31.219977958626092,73.3648 C 31.629977958626093,73.6048 32.159977958626094,73.6148 32.74997795862609,73.4548 C 31.71997795862609,76.01480000000001 32.09997795862609,78.5648 33.87997795862609,79.5948 C 34.869977958626095,80.1648 36.119977958626095,80.1648 37.37997795862609,79.71480000000001 C 37.329977958626095,79.79480000000001 37.27997795862609,79.88480000000001 37.219977958626096,79.96480000000001 C 36.5699779586261,80.7848 35.509977958626095,81.35480000000001 35.159977958626094,82.32480000000001 C 34.51997795862609,84.0648 36.06997795862609,86.4848 38.049977958626094,86.6448 C 39.8199779586261,86.7848 41.009977958626095,86.7548 41.289977958626096,86.54480000000001 C 40.979977958626094,87.08480000000002 39.8199779586261,89.2348 40.219977958626096,90.2048 C 41.6099779586261,93.54480000000001 46.119977958626095,92.0048 46.119977958626095,92.0048 C 46.119977958626095,92.0048 44.66997795862609,95.26480000000001 43.3899779586261,96.57480000000001 C 41.399977958626096,98.60480000000001 38.549977958626094,100.33480000000002 35.6399779586261,99.7848 C 33.149977958626096,99.3148 31.359977958626096,97.3048 30.0999779586261,95.26480000000001 C 28.839977958626097,93.2248 27.8799779586261,90.96480000000001 26.069977958626097,89.30480000000001 C 24.269977958626097,87.64480000000002 21.249977958626097,86.78480000000002 19.179977958626097,88.14480000000002 C 16.429977958626097,89.94480000000001 17.289977958626096,93.96480000000003 19.069977958626097,96.61480000000002 C 20.839977958626097,99.27480000000001 24.369977958626098,103.52480000000001 24.369977958626098,103.52480000000001 C 24.369977958626098,103.52480000000001 21.279977958626098,104.06480000000002 22.839977958626097,106.96480000000001 C 23.1899779586261,107.61480000000002 23.719977958626096,108.16480000000001 24.369977958626098,108.57480000000001 C 25.5099779586261,109.29480000000001 26.7199779586261,109.91480000000001 27.9899779586261,110.43480000000001 C 25.9199779586261,112.44480000000001 26.369977958626098,115.38480000000001 28.5199779586261,116.96480000000001 C 29.4799779586261,117.6748 30.779977958626098,118.14480000000002 32.1399779586261,118.30480000000001 C 31.1899779586261,119.41480000000001 30.289977958626096,120.59480000000002 30.4199779586261,121.96480000000001 C 30.619977958626098,124.14480000000002 33.3899779586261,125.38480000000001 35.7499779586261,125.21480000000001 C 36.899977958626096,125.12480000000001 37.9899779586261,124.82480000000001 39.079977958626095,124.46480000000001 C 38.759977958626095,125.85480000000001 39.189977958626095,127.18480000000001 40.2499779586261,127.97480000000002 C 41.829977958626095,129.1348 44.7799779586261,129.2348 47.0999779586261,127.84480000000002 C 46.9399779586261,128.62480000000002 46.6199779586261,129.37480000000002 46.1699779586261,130.00480000000002 C 43.3799779586261,133.8848 37.8399779586261,135.4848 32.8399779586261,134.8948 C 27.8399779586261,134.3048 23.329977958626102,131.8548 19.3099779586261,129.0548 C 15.289977958626098,126.25479999999999 11.5799779586261,123.0448 7.3299779586261,120.5548 C 5.3099779586261,119.3748 2.3299779586261002,118.4948 0.8299779586261,120.2148 C 0.25997795862610007,120.8648 0.08997795862610006,121.7448 0.0299779586261,122.5848 C -0.37002204137390005,128.1048 3.2699779586261006,133.6748 8.7299779586261,135.9148 C 5.979977958626098,137.1148 4.069977958626098,138.94480000000001 4.3899779586260985,141.50480000000002 C 4.709977958626099,144.06480000000002 6.589977958626099,146.21480000000003 8.5799779586261,148.0148 C 10.8299779586261,150.0448 13.319977958626101,151.8548 15.9899779586261,153.3848 C 14.559977958626101,153.8248 13.0799779586261,154.28480000000002 11.9999779586261,155.2648 C 10.9299779586261,156.2448 10.399977958626101,157.8948 11.229977958626101,159.0548 C 11.899977958626101,160.0048 13.1899779586261,160.3448 14.369977958626102,160.6248 C 17.8699779586261,161.4548 21.9099779586261,161.4748 25.639977958626098,161.9048 C 24.029977958626098,163.3748 23.709977958626098,165.3948 24.7599779586261,166.7648 C 26.0399779586261,168.4348 29.2699779586261,169.3048 32.1199779586261,168.1748 C 32.0599779586261,168.2148 32.0099779586261,168.2648 31.9499779586261,168.3048 C 30.8599779586261,169.1148 29.6299779586261,170.0648 29.3399779586261,171.3248 C 29.0599779586261,172.59480000000002 30.0599779586261,173.7448 31.2899779586261,174.3848 C 34.1299779586261,175.8648 37.0699779586261,176.12480000000002 40.2499779586261,176.3848 C 39.799977958626094,178.46480000000003 40.299977958626094,180.3648 41.7799779586261,181.22480000000002 C 42.899977958626096,181.87480000000002 44.3399779586261,181.7948 45.7499779586261,181.1448 C 45.5699779586261,181.7848 45.3899779586261,182.4348 45.4299779586261,183.0748 C 45.5599779586261,185.1348 48.0699779586261,186.5448 50.26997795862609,186.2648 C 52.44997795862609,185.9848 54.229977958626094,184.47480000000002 55.42997795862609,182.75480000000002 L 54.25997795862609,202.7048 C 63.199977958626086,205.25480000000002 72.1299779586261,205.25480000000002 81.0699779586261,202.7048 L 76.8799779586261,181.37480000000002 C 78.5299779586261,182.72480000000002 82.3299779586261,184.96480000000003 85.1399779586261,182.4148 C 86.2799779586261,181.3848 87.0999779586261,178.3848 87.0999779586261,178.3848 C 87.9299779586261,178.94480000000001 88.3599779586261,179.2748 89.1199779586261,179.6748 C 90.8399779586261,180.5748 93.7099779586261,181.4848 94.8399779586261,180.0448 C 95.5699779586261,179.1148 94.60997795862609,176.56480000000002 94.04997795862609,175.03480000000002 C 93.91997795862609,174.68480000000002 92.26997795862609,172.4848 92.23997795862608,172.1048 C 94.60997795862609,174.78480000000002 100.28997795862608,176.8248 102.25997795862608,175.37480000000002 C 103.83997795862608,174.21480000000003 102.42997795862608,170.00480000000002 100.82997795862607,168.02480000000003 C 100.96997795862607,168.10480000000004 101.12997795862607,168.17480000000003 101.24997795862608,168.28480000000002 C 102.87997795862607,169.71480000000003 104.16997795862608,170.1048 105.15997795862607,170.3848 C 107.97997795862607,171.19480000000001 110.37997795862607,171.5148 113.23997795862607,170.96480000000003 C 114.81997795862607,170.6648 116.75997795862607,169.57480000000004 117.98997795862607,168.4148 C 119.11997795862607,167.3548 119.72997795862607,165.0448 118.98997795862607,163.7048 L 119.02997795862606,163.67480000000003"/>
</svg>
