<?xml version="1.0" ?>
<svg xmlns="http://www.w3.org/2000/svg" xmlns:ev="http://www.w3.org/2001/xml-events" xmlns:xlink="http://www.w3.org/1999/xlink" baseProfile="full" height="360" id="Layer_1" style="enable-background:new 0 0 500 500;" transform="scale(0.2777777777777778 0.2777777777777778) translate(-227.5 -180.0)" version="1.1" viewBox="0 0 455 360" width="455" x="0px" xml:space="preserve" y="0px">
	<defs/>
	<path d="M 263.4927922024248,251.57246483984474 C 254.09279220242485,276.57246483984477 243.99279220242482,300.97246483984475 246.29279220242483,328.1724648398447 C 246.99279220242482,336.57246483984466 252.09279220242485,342.8724648398447 256.6927922024248,349.3724648398447 C 258.29279220242483,351.57246483984466 261.1927922024248,354.07246483984466 259.5927922024248,356.97246483984475 C 257.8927922024248,360.2724648398447 254.0927922024248,359.1724648398447 251.0927922024248,358.97246483984475 C 242.0927922024248,358.3724648398447 233.49279220242477,356.7724648398447 231.69279220242478,345.7724648398447 C 230.9927922024248,341.8724648398447 226.29279220242478,346.8724648398447 225.5927922024248,342.2724648398447 C 224.8927922024248,337.97246483984475 223.19279220242478,333.8724648398447 224.0927922024248,329.2724648398447 C 225.5927922024248,322.1724648398447 226.29279220242478,314.8724648398447 227.3927922024248,307.57246483984477 C 229.6927922024248,292.2724648398447 224.7927922024248,277.6724648398448 223.5927922024248,262.6724648398448 C 223.0927922024248,256.3724648398447 218.3927922024248,254.2724648398448 212.79279220242478,254.17246483984476 C 205.29279220242478,254.07246483984474 197.69279220242478,254.17246483984476 190.19279220242478,254.2724648398448 C 183.0927922024248,254.3724648398448 175.9927922024248,254.17246483984476 169.0927922024248,252.17246483984476 C 166.29279220242478,251.37246483984475 163.3927922024248,251.7724648398448 160.4927922024248,252.2724648398448 C 154.2927922024248,253.3724648398448 148.3927922024248,253.7724648398448 142.5927922024248,250.17246483984476 C 137.9927922024248,247.2724648398448 132.0927922024248,248.2724648398448 126.69279220242478,246.57246483984474 C 120.79279220242478,244.67246483984476 114.89279220242477,243.27246483984473 109.9927922024248,239.67246483984476 C 91.3927922024248,262.3724648398447 99.79279220242478,285.07246483984477 110.09279220242479,307.47246483984475 C 115.59279220242479,319.3724648398447 122.69279220242478,330.3724648398447 132.0927922024248,339.6724648398448 C 133.9927922024248,341.57246483984477 135.5927922024248,343.6724648398448 137.0927922024248,345.8724648398447 C 139.69279220242478,349.57246483984477 139.19279220242478,352.2724648398447 134.19279220242478,352.57246483984477 C 129.0927922024248,352.7724648398447 123.19279220242478,354.1724648398448 119.09279220242479,352.07246483984477 C 110.29279220242478,347.6724648398448 100.79279220242478,340.8724648398447 97.89279220242477,332.3724648398447 C 92.49279220242477,315.97246483984475 85.09279220242479,300.8724648398447 76.9927922024248,285.8724648398447 C 71.9927922024248,276.6724648398448 67.8927922024248,267.07246483984477 66.4927922024248,256.6724648398448 C 65.69279220242478,250.97246483984478 63.19279220242479,252.47246483984478 60.49279220242479,254.67246483984476 C 55.69279220242479,258.6724648398448 54.39279220242479,264.3724648398447 54.19279220242479,270.2724648398448 C 53.39279220242479,294.97246483984475 58.99279220242479,317.7724648398448 74.9927922024248,337.2724648398448 C 78.4927922024248,341.57246483984477 78.4927922024248,343.2724648398448 72.59279220242479,343.87246483984484 C 68.39279220242477,344.2724648398448 64.19279220242478,344.57246483984477 59.99279220242479,344.2724648398448 C 55.792792202424785,343.87246483984484 52.89279220242479,342.2724648398448 51.792792202424785,337.87246483984484 C 50.792792202424785,333.97246483984486 48.792792202424785,330.97246483984486 44.49279220242479,330.07246483984477 C 41.49279220242479,329.37246483984484 41.19279220242479,326.87246483984484 40.892792202424786,324.37246483984484 C 37.69279220242478,301.7724648398448 35.59279220242479,279.07246483984477 30.092792202424782,256.7724648398448 C 27.89279220242478,247.77246483984484 30.192792202424783,239.67246483984482 36.09279220242478,232.57246483984486 C 42.89279220242478,224.27246483984484 43.99279220242479,215.27246483984484 39.792792202424785,205.27246483984484 C 36.09279220242478,196.27246483984484 32.09279220242478,187.37246483984487 27.492792202424788,178.77246483984484 C 22.892792202424786,170.17246483984485 20.492792202424788,161.17246483984485 20.792792202424785,151.37246483984484 C 21.092792202424782,141.27246483984484 20.892792202424786,131.07246483984483 20.892792202424786,120.07246483984483 C 17.59279220242479,121.77246483984482 17.392792202424786,124.47246483984483 16.892792202424786,126.47246483984483 C 15.492792202424788,132.07246483984483 10.09279220242479,134.47246483984483 7.392792202424786,139.07246483984483 C 5.392792202424786,142.37246483984484 0.8927922024247863,140.77246483984482 0.192792202424787,136.67246483984482 C -0.20720779757521157,134.77246483984482 0.09279220242478559,132.67246483984482 0.3927922024247863,130.77246483984482 C 6.692792202424787,92.97246483984483 32.892792202424786,68.47246483984483 71.4927922024248,63.67246483984482 C 96.19279220242478,60.57246483984483 120.59279220242479,63.772464839844815 145.1927922024248,65.67246483984482 C 189.99279220242482,69.27246483984482 234.79279220242478,74.17246483984482 279.8927922024248,73.27246483984482 C 293.8927922024248,72.9724648398448 303.7927922024248,67.67246483984482 310.3927922024248,55.97246483984482 C 314.9927922024248,47.772464839844815 322.9927922024248,42.272464839844815 327.2927922024248,33.87246483984481 C 329.0927922024248,30.472464839844804 333.8927922024248,30.572464839844812 336.99279220242477,28.37246483984481 C 341.0927922024248,25.572464839844812 344.39279220242474,22.972464839844804 338.2927922024248,18.672464839844807 C 335.69279220242476,16.87246483984481 334.5927922024248,13.672464839844807 333.99279220242477,10.572464839844812 C 333.2927922024248,6.87246483984481 333.99279220242477,3.1724648398448068 336.69279220242476,0.7724648398448153 C 338.99279220242477,-1.2275351601551847 341.69279220242476,1.172464839844821 343.99279220242477,2.172464839844821 C 350.0927922024248,4.772464839844815 357.49279220242477,5.972464839844818 357.49279220242477,15.272464839844815 C 357.49279220242477,18.87246483984481 360.19279220242476,17.472464839844818 362.7927922024248,16.972464839844818 C 373.49279220242477,14.772464839844815 384.3927922024248,12.372464839844824 394.2927922024248,19.972464839844818 C 395.19279220242476,20.67246483984482 396.5927922024248,21.072464839844812 396.8927922024248,21.872464839844824 C 399.5927922024248,30.67246483984482 407.5927922024248,33.17246483984482 414.4927922024248,36.872464839844824 C 424.59279220242485,42.372464839844824 434.3927922024248,48.57246483984483 443.9927922024248,54.772464839844815 C 450.29279220242483,58.87246483984481 453.6927922024248,64.67246483984482 454.59279220242485,71.67246483984482 C 455.69279220242487,79.67246483984482 449.29279220242483,84.17246483984482 444.19279220242487,88.67246483984482 C 440.19279220242487,92.17246483984482 434.59279220242485,93.27246483984482 429.09279220242485,91.77246483984482 C 417.9927922024248,88.57246483984483 407.59279220242485,92.4724648398448 397.09279220242485,94.77246483984482 C 391.29279220242483,96.07246483984483 388.59279220242485,101.4724648398448 388.29279220242483,106.9724648398448 C 387.1927922024248,125.17246483984479 384.79279220242483,143.17246483984482 380.9927922024248,160.8724648398448 C 378.9927922024248,170.17246483984482 378.6927922024248,180.17246483984482 373.09279220242485,188.97246483984483 C 370.39279220242486,193.17246483984482 368.39279220242486,199.17246483984482 367.89279220242486,203.97246483984483 C 366.59279220242485,215.07246483984486 358.69279220242487,220.27246483984484 351.59279220242485,226.3724648398448 C 349.29279220242483,228.3724648398448 345.9927922024248,229.2724648398448 344.09279220242485,231.67246483984482 C 339.69279220242487,237.17246483984482 334.09279220242485,240.17246483984482 326.9927922024248,240.77246483984484 C 323.59279220242485,241.07246483984486 320.79279220242483,242.87246483984487 318.09279220242485,244.97246483984483 C 315.9927922024248,246.57246483984486 313.9927922024248,248.57246483984486 311.19279220242487,248.8724648398448 C 303.39279220242486,249.67246483984482 300.19279220242487,254.67246483984482 299.19279220242487,261.7724648398448 C 297.09279220242485,276.6724648398448 293.09279220242485,291.2724648398448 294.39279220242486,306.57246483984477 C 295.29279220242483,316.87246483984484 298.9927922024249,325.7724648398448 305.9927922024249,333.47246483984475 C 308.4927922024249,336.1724648398448 312.2927922024249,339.2724648398448 310.69279220242487,343.07246483984477 C 308.9927922024249,347.07246483984477 303.9927922024249,346.7724648398448 300.09279220242485,347.1724648398448 C 289.59279220242485,348.2724648398448 287.89279220242486,344.97246483984486 283.89279220242486,336.6724648398448 C 274.69279220242487,317.2724648398448 279.89279220242486,296.2724648398448 275.4927922024249,276.37246483984484 C 273.5927922024248,266.97246483984475 267.2927922024248,260.2724648398447 263.4927922024248,251.57246483984474"/>
</svg>
