<?xml version="1.0" ?>
<svg xmlns="http://www.w3.org/2000/svg" xmlns:ev="http://www.w3.org/2001/xml-events" xmlns:xlink="http://www.w3.org/1999/xlink" baseProfile="full" height="399" id="Layer_1" style="enable-background:new 0 0 500 500;" transform="scale(0.2506265664160401 0.2506265664160401) translate(-221.0 -199.5)" version="1.1" viewBox="0 0 442 399" width="442" x="0px" xml:space="preserve" y="0px">
	<defs/>
	<path d="M 407.3193587066866,298.9374922433285 C 402.91935870668664,287.7374922433285 393.3193587066866,288.8374922433285 389.8193587066866,281.8374922433285 C 386.3193587066866,274.9374922433285 377.8193587066866,269.6374922433285 388.1193587066866,260.0374922433285 C 390.3193587066866,258.0374922433285 395.41935870668664,242.93749224332845 387.5193587066866,234.53749224332847 C 386.6193587066866,233.6374922433285 386.2193587066866,232.23749224332846 385.3193587066866,231.33749224332848 C 379.8193587066866,225.53749224332847 380.5193587066866,212.73749224332846 372.0193587066866,212.23749224332846 C 358.5193587066866,211.33749224332848 344.3193587066866,212.83749224332848 332.6193587066866,221.83749224332848 C 327.3193587066866,225.9374922433285 321.21935870668665,228.53749224332847 314.8193587066866,229.1374922433285 C 276.6193587066866,232.53749224332847 241.5193587066866,248.23749224332852 204.71935870668662,257.0374922433285 C 169.91935870668664,265.23749224332846 136.11935870668663,277.43749224332845 100.71935870668662,283.43749224332845 C 94.21935870668662,284.5374922433285 88.91935870668662,287.93749224332845 83.51935870668662,291.73749224332846 C 72.31935870668661,299.73749224332846 60.619358706686626,307.8374922433285 45.51935870668662,303.5374922433285 C 41.21935870668662,302.3374922433285 40.01935870668662,304.73749224332846 39.61935870668661,308.0374922433285 C 38.61935870668661,318.23749224332846 35.719358706686606,328.8374922433285 40.11935870668661,338.73749224332846 C 43.41935870668661,345.93749224332845 42.11935870668661,351.5374922433285 38.219358706686606,358.0374922433285 C 31.219358706686602,369.73749224332846 29.1193587066866,384.23749224332846 18.219358706686602,393.73749224332846 C 16.419358706686605,395.3374922433285 16.1193587066866,398.63749224332844 12.6193587066866,397.93749224332845 C 6.5193587066865994,396.73749224332846 -1.6806412933133998,376.43749224332845 2.3193587066866,372.0374922433285 C 12.919358706686598,360.43749224332845 12.819358706686597,346.5374922433285 10.0193587066866,332.5374922433285 C 7.619358706686601,320.3374922433285 3.3193587066865966,308.43749224332845 0.7193587066865987,296.23749224332846 C -1.580641293313402,285.23749224332846 1.3193587066866002,276.73749224332846 14.0193587066866,273.8374922433285 C 23.219358706686602,271.73749224332846 32.3193587066866,268.8374922433285 41.3193587066866,265.8374922433285 C 49.919358706686594,262.9374922433285 53.6193587066866,257.5374922433285 46.8193587066866,249.33749224332848 C 37.6193587066866,238.23749224332846 29.919358706686598,226.4374922433285 29.719358706686595,211.33749224332848 C 29.719358706686595,210.9374922433285 29.619358706686594,210.33749224332848 29.419358706686598,210.1374922433285 C 13.119358706686594,198.03749224332853 28.419358706686598,191.9374922433285 34.5193587066866,184.33749224332848 C 51.8193587066866,162.83749224332848 74.3193587066866,150.83749224332848 101.6193587066866,146.53749224332847 C 141.0193587066866,140.33749224332848 178.0193587066866,125.03749224332849 215.91935870668658,113.53749224332849 C 238.0193587066866,106.8374922433285 257.4193587066866,91.23749224332848 277.81935870668656,79.3374922433285 C 283.11935870668657,76.2374922433285 286.81935870668656,70.93749224332849 288.9193587066866,65.2374922433285 C 295.7193587066866,46.437492243328506 308.31935870668656,31.737492243328504 321.61935870668657,17.5374922433285 C 341.4193587066866,-3.662507756671502 371.31935870668656,-6.062507756671501 393.7193587066866,12.637492243328502 C 407.9193587066866,24.5374922433285 421.2193587066866,37.63749224332851 435.11935870668657,49.8374922433285 C 441.7193587066866,55.637492243328495 442.4193587066866,63.0374922433285 439.11935870668657,69.6374922433285 C 435.7193587066866,76.43749224332849 432.11935870668657,82.8374922433285 420.81935870668656,82.13749224332851 C 404.51935870668655,81.13749224332851 388.21935870668653,83.43749224332852 372.11935870668657,78.3374922433285 C 364.11935870668657,75.8374922433285 359.7193587066866,79.8374922433285 360.01935870668655,88.3374922433285 C 360.9193587066865,111.63749224332851 356.9193587066865,134.9374922433285 362.11935870668657,158.1374922433285 C 363.01935870668655,162.23749224332852 363.81935870668656,167.23749224332852 362.31935870668656,170.9374922433285 C 357.01935870668655,184.1374922433285 365.11935870668657,185.1374922433285 374.51935870668655,185.53749224332853 C 378.81935870668656,185.73749224332852 383.11935870668657,186.23749224332852 387.4193587066865,186.53749224332853 C 399.4193587066865,187.33749224332854 406.6193587066865,193.6374922433285 408.8193587066865,205.33749224332848 C 411.2193587066865,218.1374922433285 414.9193587066865,230.4374922433285 421.4193587066865,241.83749224332848 C 425.3193587066865,248.6374922433285 425.3193587066865,254.9374922433285 421.4193587066865,262.4374922433285 C 415.8193587066866,272.6374922433285 412.8193587066866,283.9374922433285 407.3193587066866,298.9374922433285"/>
</svg>
