<?xml version="1.0" ?>
<svg xmlns="http://www.w3.org/2000/svg" xmlns:ev="http://www.w3.org/2001/xml-events" xmlns:xlink="http://www.w3.org/1999/xlink" baseProfile="full" height="386" id="Layer_1" style="enable-background:new 0 0 500 500;" transform="scale(0.25906735751295334 0.25906735751295334) translate(-217.5 -193.0)" version="1.1" viewBox="0 0 435 386" width="435" x="0px" xml:space="preserve" y="0px">
	<defs/>
	<path d="M 334.20982683083395,383.9000000000001 C 330.90982683083394,385.2000000000001 328.80982683083397,383.5000000000001 326.6098268308339,382.9000000000001 C 325.1098268308339,382.5000000000001 323.1098268308339,381.4000000000001 322.20982683083395,382.5000000000001 C 317.6098268308339,387.60000000000014 316.30982683083397,383.60000000000014 315.00982683083396,379.9000000000001 C 308.109826830834,385.0000000000001 306.80982683083397,384.5000000000001 305.70982683083395,376.30000000000007 C 305.20982683083395,372.1000000000001 304.90982683083394,367.9000000000001 305.00982683083396,363.70000000000005 C 305.80982683083397,336.6 303.00982683083396,309.70000000000005 298.90982683083394,283.00000000000006 C 298.40982683083394,280.00000000000006 298.3098268308339,276.90000000000003 297.90982683083394,272.90000000000003 C 292.50982683083396,282.50000000000006 293.70982683083395,292.1 294.50982683083396,301.40000000000003 C 295.70982683083395,315.00000000000006 295.50982683083396,327.8 291.00982683083396,341.20000000000005 C 287.00982683083396,353.30000000000007 285.80982683083397,366.90000000000003 291.90982683083394,379.50000000000006 C 294.3098268308339,384.50000000000006 291.6098268308339,386.00000000000006 287.20982683083395,385.90000000000003 C 281.90982683083394,385.70000000000005 276.80982683083397,383.90000000000003 271.40982683083394,385.40000000000003 C 268.90982683083394,386.1 267.20982683083395,384.3 268.00982683083396,381.3 C 268.40982683083394,379.6 268.70982683083395,377.8 269.30982683083397,376.2 C 277.609826830834,354.5 277.109826830834,332.4 272.609826830834,310.1 C 271.909826830834,306.90000000000003 271.30982683083397,303.5 271.409826830834,300.20000000000005 C 272.209826830834,285.90000000000003 264.209826830834,275.1 257.509826830834,263.80000000000007 C 255.60982683083407,260.6000000000001 252.60982683083407,262.50000000000006 250.30982683083406,263.00000000000006 C 234.40982683083408,266.1000000000001 218.40982683083405,268.20000000000005 202.40982683083405,270.6000000000001 C 179.00982683083404,274.1000000000001 157.10982683083407,268.50000000000006 135.40982683083405,260.7000000000001 C 134.80982683083406,260.5000000000001 134.20982683083406,260.2000000000001 133.50982683083404,260.0000000000001 C 119.10982683083404,254.7000000000001 119.00982683083404,254.7000000000001 109.00982683083404,266.9000000000001 C 98.10982683083404,280.30000000000007 88.20982683083403,294.6000000000001 73.50982683083404,304.4000000000001 C 69.10982683083404,307.30000000000007 68.60982683083404,312.30000000000007 68.20982683083403,316.80000000000007 C 66.50982683083404,333.1000000000001 65.10982683083404,349.50000000000006 65.20982683083403,365.9000000000001 C 65.20982683083403,369.9000000000001 66.10982683083404,373.80000000000007 67.50982683083404,377.6000000000001 C 68.30982683083403,379.80000000000007 68.20982683083403,382.00000000000006 66.20982683083403,383.6000000000001 C 64.10982683083404,385.4000000000001 61.50982683083404,386.00000000000006 59.609826830834045,384.00000000000006 C 57.20982683083404,381.50000000000006 56.00982683083405,383.6000000000001 54.20982683083404,384.6000000000001 C 49.609826830834045,387.2000000000001 46.90982683083404,385.6000000000001 46.70982683083404,380.7000000000001 C 46.20982683083404,365.4000000000001 45.90982683083404,350.1000000000001 45.109826830834045,334.9000000000001 C 44.609826830834045,324.0000000000001 44.70982683083404,313.2000000000001 45.80982683083405,301.4000000000001 C 41.40982683083404,303.80000000000007 39.50982683083405,307.2000000000001 37.50982683083405,310.4000000000001 C 24.90982683083405,331.1000000000001 19.00982683083405,353.4000000000001 21.00982683083405,377.6000000000001 C 21.209826830834054,380.2000000000001 21.90982683083405,385.7000000000001 19.50982683083405,385.00000000000006 C 13.709826830834054,383.30000000000007 8.40982683083405,386.6000000000001 3.2098268308340536,385.00000000000006 C -0.09017316916594353,384.00000000000006 0.009826830834050782,380.6000000000001 0.009826830834050782,377.70000000000005 C -0.19017316916595206,363.70000000000005 2.7098268308340536,349.90000000000003 4.409826830834049,336.1 C 5.609826830834052,326.20000000000005 6.809826830834048,316.3 7.809826830834048,306.40000000000003 C 8.40982683083405,300.00000000000006 9.609826830834045,294.50000000000006 14.50982683083405,289.1 C 19.00982683083405,284.1 21.00982683083405,276.40000000000003 21.309826830834048,269.40000000000003 C 21.809826830834048,257.90000000000003 21.00982683083405,246.40000000000003 18.209826830834047,235.10000000000002 C 17.509826830834044,232.3 16.90982683083405,230.8 13.209826830834047,230.8 C 6.509826830834044,230.8 1.9098268308340423,226.40000000000003 1.7098268308340465,219.5 C 0.9098268308340494,186.8 8.509826830834044,156.6 33.50982683083405,133.9 C 47.40982683083406,121.30000000000001 65.20982683083406,115.5 84.30982683083406,115.4 C 116.70982683083406,115.4 149.00982683083404,118.0 181.40982683083405,117.20000000000002 C 210.30982683083406,116.50000000000003 238.90982683083408,114.70000000000002 266.709826830834,105.50000000000003 C 274.309826830834,103.00000000000003 280.009826830834,99.10000000000002 283.709826830834,91.90000000000003 C 288.109826830834,83.40000000000003 292.809826830834,75.20000000000005 297.609826830834,66.90000000000003 C 305.80982683083397,52.80000000000003 319.709826830834,43.40000000000003 328.80982683083397,29.900000000000027 C 329.909826830834,28.200000000000024 332.30982683083397,27.200000000000024 334.409826830834,26.400000000000027 C 346.80982683083397,21.400000000000027 356.80982683083397,14.000000000000021 361.409826830834,2.842170943040401e-14 C 364.80982683083397,3.900000000000027 363.009826830834,7.900000000000027 363.109826830834,11.500000000000021 C 363.109826830834,13.100000000000016 361.00982683083396,15.100000000000016 363.50982683083396,16.100000000000016 C 365.40982683083394,16.80000000000002 367.50982683083396,16.00000000000002 369.20982683083395,14.800000000000018 C 373.30982683083397,11.800000000000018 376.30982683083397,7.600000000000016 379.50982683083396,3.700000000000017 C 382.00982683083396,5.000000000000014 380.80982683083397,7.000000000000021 380.609826830834,8.500000000000021 C 380.109826830834,11.800000000000018 380.909826830834,13.800000000000018 384.50982683083396,14.700000000000024 C 389.70982683083395,15.900000000000027 391.40982683083394,20.200000000000024 391.50982683083396,24.80000000000002 C 391.50982683083396,32.40000000000001 395.609826830834,37.00000000000002 401.609826830834,40.80000000000002 C 412.609826830834,47.700000000000024 421.30982683083397,57.30000000000002 429.609826830834,67.10000000000002 C 436.50982683083396,75.30000000000001 435.50982683083396,83.40000000000003 427.80982683083397,90.40000000000003 C 427.00982683083396,91.10000000000002 426.20982683083395,92.00000000000003 425.80982683083397,93.00000000000003 C 423.909826830834,97.90000000000003 420.609826830834,98.50000000000003 416.20982683083395,96.50000000000003 C 408.30982683083397,92.90000000000003 400.00982683083396,92.30000000000004 391.50982683083396,92.40000000000003 C 374.80982683083397,92.70000000000005 369.70982683083395,97.50000000000003 369.80982683083397,114.50000000000003 C 369.909826830834,140.50000000000003 372.30982683083397,166.3 374.80982683083397,192.10000000000002 C 375.609826830834,201.0 375.80982683083397,209.8 374.70982683083395,218.60000000000002 C 373.20982683083395,230.40000000000003 366.70982683083395,238.5 356.80982683083397,244.3 C 354.109826830834,245.90000000000003 351.409826830834,247.3 348.609826830834,248.60000000000002 C 331.409826830834,256.8 320.709826830834,273.3 322.80982683083397,292.3 C 324.409826830834,306.7 322.30982683083397,320.6 320.409826830834,334.6 C 319.30982683083397,342.8 320.30982683083397,350.40000000000003 323.109826830834,358.0 C 326.20982683083395,366.80000000000007 329.109826830834,375.7000000000001 334.20982683083395,383.9000000000001"/>
</svg>
