<?xml version="1.0" ?>
<svg xmlns="http://www.w3.org/2000/svg" xmlns:ev="http://www.w3.org/2001/xml-events" xmlns:xlink="http://www.w3.org/1999/xlink" baseProfile="full" height="365" id="Layer_1" style="enable-background:new 0 0 500 500;" transform="scale(0.273972602739726 0.273972602739726) translate(-235.5 -182.5)" version="1.1" viewBox="0 0 471 365" width="471" x="0px" xml:space="preserve" y="0px">
	<defs/>
	<path d="M 470.472539533265,24.32119729680535 C 461.472539533265,34.12119729680535 454.87253953326496,44.421197296805346 441.472539533265,45.72119729680536 C 436.272539533265,46.22119729680536 436.272539533265,48.62119729680536 438.472539533265,52.62119729680536 C 444.17253953326497,62.82119729680535 449.87253953326496,73.02119729680537 454.972539533265,83.42119729680537 C 458.87253953326496,91.42119729680537 457.17253953326497,95.02119729680537 449.072539533265,99.02119729680537 C 441.672539533265,102.72119729680536 433.572539533265,102.32119729680538 425.572539533265,102.52119729680537 C 424.572539533265,106.12119729680536 427.872539533265,108.22119729680536 428.172539533265,111.22119729680536 C 429.072539533265,119.22119729680536 429.27253953326505,126.82119729680535 420.172539533265,130.62119729680535 C 416.072539533265,132.32119729680534 414.072539533265,135.42119729680536 414.372539533265,140.02119729680538 C 414.672539533265,144.62119729680535 413.772539533265,148.62119729680535 408.672539533265,150.22119729680537 C 404.572539533265,151.52119729680538 406.77253953326505,153.62119729680535 408.372539533265,155.12119729680535 C 414.672539533265,161.72119729680537 416.572539533265,168.62119729680535 410.672539533265,176.52119729680538 C 410.47253953326504,176.72119729680537 410.172539533265,177.12119729680535 410.172539533265,177.22119729680537 C 416.27253953326505,187.42119729680536 405.672539533265,195.3211972968054 406.372539533265,204.8211972968054 C 407.072539533265,213.6211972968054 402.172539533265,217.72119729680537 395.072539533265,222.72119729680537 C 387.972539533265,227.72119729680537 377.072539533265,227.02119729680538 373.372539533265,236.92119729680536 C 372.97253953326504,237.92119729680536 370.97253953326504,238.82119729680534 369.772539533265,238.82119729680534 C 363.972539533265,238.72119729680531 361.972539533265,242.82119729680534 358.272539533265,246.32119729680534 C 338.872539533265,264.5211972968053 332.872539533265,289.2211972968053 323.67253953326497,312.42119729680536 C 318.272539533265,325.92119729680536 318.972539533265,338.92119729680536 325.472539533265,352.0211972968054 C 327.17253953326497,355.42119729680536 332.272539533265,359.8211972968054 326.772539533265,363.8211972968054 C 322.972539533265,366.6211972968054 310.272539533265,363.3211972968054 308.17253953326497,359.1211972968054 C 301.37253953326496,346.0211972968054 294.57253953326494,333.5211972968054 302.972539533265,317.5211972968054 C 310.67253953326497,302.72119729680537 313.87253953326496,286.1211972968054 313.772539533265,268.3211972968054 C 308.072539533265,269.9211972968054 306.17253953326497,273.9211972968054 304.472539533265,277.5211972968054 C 297.072539533265,292.6211972968054 291.972539533265,308.5211972968054 287.772539533265,324.92119729680536 C 285.17253953326497,334.92119729680536 290.072539533265,342.62119729680535 293.67253953326497,350.82119729680534 C 295.472539533265,354.82119729680534 299.67253953326497,360.0211972968053 296.17253953326497,363.12119729680535 C 292.57253953326494,366.42119729680536 286.472539533265,364.42119729680536 281.472539533265,362.92119729680536 C 278.67253953326497,362.0211972968054 276.37253953326496,360.32119729680534 275.072539533265,357.62119729680535 C 269.372539533265,346.32119729680534 265.172539533265,335.0211972968053 270.672539533265,321.92119729680536 C 276.672539533265,307.72119729680537 279.672539533265,292.62119729680535 281.372539533265,277.22119729680537 C 281.872539533265,272.5211972968054 282.172539533265,268.12119729680535 276.272539533265,266.12119729680535 C 274.872539533265,265.62119729680535 273.072539533265,263.62119729680535 273.17253953326497,262.42119729680536 C 273.972539533265,254.02119729680538 265.87253953326496,251.12119729680535 262.87253953326496,245.12119729680535 C 261.17253953326497,241.72119729680537 258.87253953326496,242.82119729680534 256.472539533265,244.02119729680533 C 219.07253953326497,262.0211972968053 180.97253953326498,259.7211972968053 142.47253953326498,247.9211972968053 C 139.47253953326498,247.02119729680533 136.37253953326498,246.52119729680533 133.37253953326498,245.6211972968053 C 128.272539533265,244.1211972968053 124.37253953326498,245.4211972968053 122.07253953326497,250.32119729680528 C 115.97253953326498,263.1211972968053 105.37253953326497,270.8211972968053 92.97253953326498,276.72119729680526 C 81.27253953326498,282.3211972968053 80.57253953326497,284.52119729680527 83.87253953326498,296.72119729680526 C 86.07253953326499,304.8211972968053 89.57253953326499,312.62119729680524 86.67253953326498,321.62119729680524 C 85.37253953326498,325.92119729680525 89.17253953326498,330.12119729680524 91.57253953326499,334.0211972968052 C 95.97253953326499,341.3211972968052 100.57253953326499,348.5211972968052 103.17253953326498,356.8211972968052 C 104.57253953326499,361.3211972968052 104.57253953326499,363.92119729680525 98.17253953326498,364.12119729680524 C 88.87253953326498,364.42119729680525 82.97253953326498,361.8211972968052 80.67253953326498,352.12119729680524 C 79.27253953326498,346.42119729680525 76.37253953326498,341.0211972968052 74.07253953326499,335.5211972968052 C 73.17253953326498,333.4211972968052 72.37253953326498,330.5211972968052 70.67253953326498,329.7211972968052 C 57.572539533264994,323.4211972968052 59.072539533264994,310.8211972968052 57.17253953326499,299.7211972968052 C 56.77253953326498,297.4211972968052 56.572539533264994,295.2211972968052 53.77253953326498,292.8211972968052 C 50.87253953326498,301.2211972968052 52.37253953326498,309.3211972968052 52.27253953326498,317.2211972968052 C 52.27253953326498,321.1211972968052 53.27253953326498,324.9211972968052 50.67253953326499,328.7211972968052 C 48.472539533264985,331.7211972968052 50.87253953326499,334.7211972968052 52.17253953326499,337.5211972968052 C 55.17253953326499,343.9211972968052 58.472539533264985,350.2211972968052 61.472539533264985,356.7211972968052 C 64.17253953326498,362.6211972968052 61.77253953326498,364.4211972968052 55.77253953326498,363.8211972968052 C 42.57253953326498,362.42119729680525 41.972539533264985,361.8211972968052 38.17253953326498,348.5211972968052 C 36.372539533264984,342.0211972968052 35.07253953326498,335.3211972968052 30.872539533264984,329.5211972968052 C 28.67253953326498,326.5211972968052 28.272539533264982,322.5211972968052 28.572539533264987,318.8211972968052 C 29.472539533264985,307.92119729680525 26.672539533264988,298.0211972968052 21.172539533264988,288.62119729680524 C 15.172539533264986,278.42119729680525 15.872539533264986,268.8211972968052 23.172539533264988,259.3211972968052 C 26.27253953326499,255.32119729680522 28.672539533264988,250.7211972968052 31.072539533264987,246.12119729680524 C 32.17253953326499,243.92119729680525 33.57253953326499,240.5211972968052 32.67253953326499,238.82119729680522 C 28.172539533264988,230.62119729680524 28.672539533264988,221.12119729680524 24.77253953326499,212.92119729680525 C 24.072539533264987,211.42119729680525 22.77253953326499,209.72119729680526 22.972539533264992,208.32119729680522 C 24.87253953326499,198.0211972968052 18.472539533264992,189.7211972968052 16.672539533264988,180.32119729680522 C 16.172539533264988,177.82119729680522 14.87253953326499,176.7211972968052 12.47253953326499,175.7211972968052 C -0.8274604667350101,170.0211972968052 -4.127460466735011,154.0211972968052 5.67253953326499,143.7211972968052 C 6.472539533264991,142.9211972968052 8.072539533264989,141.82119729680522 7.872539533264989,141.32119729680522 C 4.372539533264989,130.2211972968052 13.97253953326499,121.9211972968052 13.97253953326499,111.82119729680521 C 13.97253953326499,103.5211972968052 16.572539533264994,97.9211972968052 24.572539533264994,95.62119729680522 C 28.072539533264994,94.62119729680522 29.772539533264997,93.12119729680522 30.072539533264994,89.32119729680521 C 30.672539533264995,82.0211972968052 35.072539533264994,78.0211972968052 42.47253953326499,78.12119729680522 C 49.072539533264994,78.22119729680522 53.87253953326499,76.42119729680523 57.772539533265,70.02119729680523 C 61.772539533265,63.42119729680523 69.37253953326498,63.32119729680524 76.172539533265,66.42119729680523 C 80.372539533265,68.32119729680524 83.072539533265,68.12119729680522 86.572539533265,64.52119729680523 C 93.872539533265,57.12119729680522 98.072539533265,57.02119729680523 106.672539533265,63.02119729680523 C 109.27253953326499,64.92119729680523 111.27253953326499,66.22119729680522 113.972539533265,63.32119729680524 C 119.172539533265,57.721197296805244 125.572539533265,57.52119729680524 131.972539533265,60.52119729680523 C 135.572539533265,62.221197296805215 137.672539533265,61.62119729680522 139.972539533265,58.72119729680523 C 146.372539533265,50.821197296805224 154.672539533265,50.72119729680523 163.172539533265,54.22119729680523 C 166.87253953326498,55.72119729680523 168.672539533265,55.92119729680523 171.572539533265,52.52119729680523 C 178.272539533265,44.52119729680523 186.972539533265,43.72119729680523 195.772539533265,49.821197296805224 C 198.772539533265,51.92119729680522 200.87253953326498,53.22119729680523 204.672539533265,50.52119729680523 C 211.972539533265,45.321197296805224 219.37253953326498,47.12119729680522 225.572539533265,52.92119729680523 C 228.472539533265,55.621197296805235 230.472539533265,57.32119729680524 234.172539533265,54.42119729680523 C 239.672539533265,50.02119729680523 244.872539533265,51.82119729680524 249.572539533265,55.82119729680524 C 253.272539533265,59.02119729680524 256.672539533265,60.32119729680524 260.472539533265,55.92119729680523 C 261.472539533265,54.82119729680524 263.772539533265,53.72119729680523 264.972539533265,54.02119729680523 C 273.772539533265,56.92119729680523 282.772539533265,54.72119729680523 291.67253953326497,55.321197296805224 C 302.87253953326496,56.12119729680522 314.07253953326494,56.12119729680522 325.37253953326496,56.821197296805224 C 325.07253953326494,52.12119729680522 321.87253953326496,51.62119729680522 319.57253953326494,50.22119729680523 C 317.27253953326493,48.821197296805224 314.07253953326494,48.821197296805224 312.17253953326497,45.621197296805235 C 319.972539533265,40.82119729680524 327.772539533265,37.121197296805235 336.972539533265,39.32119729680524 C 340.972539533265,40.32119729680524 343.37253953326496,40.02119729680524 344.37253953326496,35.42119729680523 C 347.37253953326496,22.421197296805232 354.972539533265,14.021197296805227 368.57253953326494,10.821197296805238 C 375.07253953326494,9.221197296805244 380.9725395332649,5.321197296805238 387.27253953326493,2.7211972968052436 C 397.87253953326496,-1.678802703194762 408.57253953326494,-0.2788027031947564 418.87253953326496,3.6211972968052493 C 428.37253953326496,7.221197296805244 434.77253953326493,13.62119729680525 435.07253953326494,24.421197296805246 C 435.27253953326493,29.12119729680525 436.77253953326493,31.12119729680525 441.17253953326497,27.821197296805252 C 449.572539533265,21.12119729680535 458.972539533265,21.721197296805343 470.472539533265,24.32119729680535"/>
</svg>
