<?xml version="1.0" ?>
<svg xmlns="http://www.w3.org/2000/svg" xmlns:ev="http://www.w3.org/2001/xml-events" xmlns:xlink="http://www.w3.org/1999/xlink" baseProfile="full" height="449" id="Layer_1" style="enable-background:new 0 0 500 500;" transform="scale(0.22271714922049 0.22271714922049) translate(-238.0 -224.5)" version="1.1" viewBox="0 0 476 449" width="476" x="0px" xml:space="preserve" y="0px">
	<defs/>
	<path d="M 346.58760523313856,333.7 C 326.8876052331385,352.2 310.58760523313856,348.4 293.2876052331385,331.3 C 288.8876052331385,366.6 282.48760523313854,398.40000000000003 290.48760523313854,431.0 C 292.3876052331385,438.6 296.48760523313854,447.7 281.98760523313854,448.3 C 270.2876052331385,448.8 263.48760523313854,445.6 264.2876052331385,432.5 C 266.18760523313847,402.6 259.48760523313854,374.1 251.78760523313852,345.5 C 248.9876052331385,335.1 244.9876052331385,330.6 234.38760523313852,329.7 C 217.28760523313852,328.3 200.1876052331385,319.8 185.1876052331385,337.7 C 178.8876052331385,345.3 172.2876052331385,328.5 162.2876052331385,333.8 C 157.5876052331385,351.3 152.2876052331385,370.40000000000003 153.2876052331385,390.6 C 153.98760523313848,406.0 161.2876052331385,417.90000000000003 172.7876052331385,427.6 C 178.0876052331385,432.1 185.6876052331385,438.20000000000005 181.7876052331385,444.20000000000005 C 177.0876052331385,451.50000000000006 166.7876052331385,447.90000000000003 159.1876052331385,446.50000000000006 C 155.6876052331385,445.80000000000007 150.5876052331385,442.00000000000006 150.0876052331385,438.90000000000003 C 144.6876052331385,409.20000000000005 119.98760523313851,386.6 119.5876052331385,355.20000000000005 C 119.48760523313851,344.50000000000006 117.88760523313852,334.6 105.8876052331385,330.40000000000003 C 94.5876052331385,359.00000000000006 88.5876052331385,360.90000000000003 68.5876052331385,341.6 C 56.78760523313851,371.3 53.1876052331385,400.40000000000003 65.98760523313851,430.6 C 67.7876052331385,434.8 76.2876052331385,444.40000000000003 64.38760523313852,447.1 C 54.78760523313852,449.3 43.48760523313852,450.3 40.48760523313852,435.40000000000003 C 36.48760523313852,415.50000000000006 41.887605233138515,394.1 29.687605233138513,374.1 C 20.787605233138514,379.5 19.98760523313851,394.5 3.887605233138512,394.40000000000003 C 18.58760523313851,370.50000000000006 8.587605233138511,347.90000000000003 2.787605233138512,325.1 C -0.5123947668614868,312.1 -1.7123947668614878,298.8 3.887605233138512,286.70000000000005 C 17.08760523313851,258.6 17.687605233138513,228.50000000000006 20.887605233138515,198.70000000000005 C 25.287605233138514,158.00000000000006 33.387605233138515,151.3 74.68760523313851,152.70000000000005 C 115.78760523313852,154.10000000000002 156.88760523313852,155.8 197.9876052331385,157.3 C 225.6876052331385,158.40000000000003 250.6876052331385,153.90000000000003 269.2876052331385,129.90000000000003 C 276.58760523313856,120.50000000000001 287.68760523313847,114.00000000000001 298.3876052331385,105.00000000000001 C 276.58760523313856,93.50000000000001 288.58760523313856,85.90000000000002 302.98760523313854,78.30000000000001 C 284.6876052331386,69.89999999999999 266.6876052331386,63.0 267.8876052331385,40.0 C 268.98760523313854,19.700000000000003 281.48760523313854,8.299999999999997 301.48760523313854,0.0 C 300.48760523313854,8.700000000000003 293.3876052331385,10.700000000000003 291.1876052331386,15.600000000000001 C 287.1876052331386,24.299999999999997 282.48760523313854,33.3 288.2876052331386,42.900000000000006 C 293.88760523313863,52.400000000000006 303.88760523313863,52.0 312.1876052331386,49.900000000000006 C 336.58760523313856,43.7 361.2876052331386,46.60000000000001 385.8876052331385,45.30000000000001 C 398.2876052331385,44.60000000000001 410.48760523313854,45.20000000000002 422.58760523313856,48.30000000000001 C 434.58760523313856,51.30000000000001 446.1876052331386,51.10000000000001 453.48760523313854,39.10000000000001 C 460.8876052331385,27.10000000000001 455.8876052331385,17.10000000000001 443.48760523313854,5.000000000000007 C 461.2876052331385,8.20000000000001 469.98760523313854,17.200000000000003 473.3876052331385,28.60000000000001 C 477.48760523313854,42.2 474.3876052331385,55.60000000000001 462.2876052331385,65.7 C 455.3876052331385,71.5 444.58760523313845,73.9 451.58760523313845,89.3 C 456.18760523313847,99.3 442.08760523313845,104.99999999999999 432.58760523313845,104.60000000000001 C 417.68760523313847,104.00000000000001 415.4876052331384,111.40000000000002 416.18760523313847,123.40000000000002 C 417.68760523313847,148.20000000000005 409.3876052331385,172.70000000000005 409.7876052331385,196.8 C 410.98760523313854,263.90000000000003 385.08760523313856,325.1000000000001 372.68760523313847,389.20000000000005 C 369.8876052331385,403.6 369.18760523313847,417.90000000000003 372.68760523313847,432.00000000000006 C 374.7876052331385,440.50000000000006 378.48760523313854,448.00000000000006 364.2876052331385,448.6000000000001 C 352.58760523313856,449.1000000000001 344.98760523313854,446.30000000000007 346.3876052331385,433.2000000000001 C 348.2876052331385,416.1000000000001 349.6876052331386,399.1000000000001 348.6876052331386,382.0000000000001 C 347.98760523313854,367.5 347.48760523313854,353.1 346.58760523313856,333.7 M 31.487605233138552,333.8 C 35.78760523313855,312.40000000000003 32.48760523313855,292.2 23.187605233138555,268.90000000000003 C 11.587605233138554,295.2 21.487605233138552,314.5 31.487605233138552,333.8"/>
</svg>
