<?xml version="1.0" ?>
<svg xmlns="http://www.w3.org/2000/svg" xmlns:ev="http://www.w3.org/2001/xml-events" xmlns:xlink="http://www.w3.org/1999/xlink" baseProfile="full" height="340" id="Layer_1" style="enable-background:new 0 0 500 500;" transform="scale(0.29411764705882354 0.29411764705882354) translate(-229.0 -170.0)" version="1.1" viewBox="0 0 458 340" width="458" x="0px" xml:space="preserve" y="0px">
	<defs/>
	<path d="M 263.05450849718744,244.72861819950242 C 251.45450849718745,273.7286181995024 259.05450849718744,300.2286181995024 273.75450849718743,325.6286181995024 C 266.4545084971874,330.2286181995024 258.55450849718744,327.4286181995024 251.05450849718747,327.9286181995024 C 247.85450849718748,328.1286181995024 246.25450849718746,326.3286181995024 245.75450849718746,323.52861819950243 C 245.15450849718744,320.4286181995024 244.95450849718745,317.2286181995024 244.45450849718745,314.12861819950245 C 244.25450849718746,312.7286181995025 244.85450849718742,310.42861819950247 243.25450849718746,310.2286181995025 C 234.65450849718744,309.0286181995025 238.25450849718746,302.5286181995025 238.95450849718745,298.8286181995025 C 241.45450849718745,284.2286181995025 241.85450849718742,269.7286181995025 241.15450849718744,255.0286181995025 C 240.85450849718742,249.22861819950248 239.15450849718744,243.8286181995025 237.75450849718746,238.3286181995025 C 236.05450849718747,231.92861819950252 233.75450849718746,225.6286181995025 233.45450849718745,218.92861819950252 C 233.05450849718744,210.8286181995025 223.65450849718744,203.72861819950253 215.85450849718745,205.72861819950253 C 199.15450849718746,210.1286181995025 182.05450849718747,210.82861819950256 164.95450849718745,212.42861819950252 C 150.15450849718744,213.8286181995025 136.25450849718746,213.42861819950252 122.55450849718744,208.22861819950253 C 117.65450849718744,206.42861819950252 113.05450849718744,203.72861819950253 107.45450849718745,204.02861819950255 C 100.05450849718744,204.42861819950252 93.55450849718744,207.62861819950257 90.45450849718745,213.62861819950257 C 85.95450849718745,222.2286181995026 77.95450849718745,225.2286181995026 70.75450849718744,229.7286181995026 C 66.55450849718744,232.42861819950258 61.754508497187445,234.12861819950257 57.45450849718745,236.8286181995026 C 53.15450849718745,239.5286181995026 51.55450849718744,243.12861819950263 51.254508497187445,247.2286181995026 C 50.65450849718745,257.8286181995026 50.45450849718745,268.4286181995026 52.95450849718745,278.9286181995026 C 55.05450849718744,287.5286181995026 58.85450849718745,295.0286181995026 64.95450849718745,301.7286181995026 C 67.25450849718744,304.2286181995026 75.05450849718744,307.62861819950257 66.85450849718745,312.8286181995026 C 65.85450849718745,313.42861819950264 67.55450849718746,315.0286181995026 68.15450849718745,316.0286181995026 C 71.85450849718745,322.0286181995026 75.65450849718745,327.9286181995026 80.05450849718746,333.3286181995026 C 81.65450849718745,335.2286181995026 83.25450849718746,337.1286181995026 78.55450849718746,337.6286181995026 C 75.35450849718745,337.92861819950264 72.25450849718746,339.1286181995026 68.85450849718745,339.42861819950264 C 58.15450849718745,340.3286181995026 50.65450849718745,336.92861819950264 48.25450849718746,325.6286181995026 C 47.95450849718746,324.22861819950265 47.154508497187464,322.3286181995026 46.154508497187464,321.92861819950264 C 38.154508497187464,318.42861819950264 36.45450849718746,311.1286181995026 34.75450849718746,303.92861819950264 C 33.554508497187456,298.92861819950264 31.55450849718746,294.3286181995026 28.354508497187464,290.22861819950265 C 25.15450849718746,286.1286181995026 25.954508497187465,280.52861819950266 24.354508497187464,275.72861819950265 C 18.354508497187464,257.82861819950267 14.754508497187462,239.32861819950267 13.054508497187467,220.52861819950266 C 12.554508497187467,215.32861819950267 13.75450849718747,210.62861819950268 17.154508497187468,206.22861819950265 C 19.054508497187467,203.82861819950267 20.954508497187465,201.22861819950265 18.954508497187465,196.72861819950265 C 17.754508497187462,194.02861819950266 19.954508497187465,189.12861819950263 19.354508497187464,184.92861819950264 C 18.954508497187465,182.3286181995026 18.454508497187465,181.12861819950263 16.054508497187467,180.62861819950263 C 11.954508497187465,179.72861819950265 10.654508497187468,177.22861819950265 10.054508497187467,173.02861819950266 C 9.354508497187467,167.92861819950264 7.254508497187466,162.92861819950264 5.754508497187466,157.92861819950264 C 3.0545084971874665,149.32861819950267 2.6545084971874644,140.42861819950264 0.4545084971874651,131.82861819950267 C 0.2545084971874658,131.22861819950265 -0.1454915028125363,130.42861819950264 0.05450849718746653,130.02861819950266 C 4.854508497187467,117.52861819950265 -0.845491502812532,103.02861819950265 7.754508497187466,91.32861819950263 C 11.354508497187464,86.42861819950262 14.154508497187468,80.82861819950263 20.154508497187468,78.12861819950264 C 21.054508497187467,77.72861819950263 22.154508497187468,77.02861819950265 22.554508497187467,76.12861819950264 C 26.75450849718747,66.22861819950263 36.154508497187464,63.42861819950265 44.654508497187464,59.228618199502634 C 51.85450849718747,55.728618199502634 59.25450849718746,51.42861819950262 66.45450849718746,49.32861819950263 C 77.35450849718747,46.128618199502625 88.15450849718746,40.728618199502634 100.25450849718746,41.92861819950262 C 103.65450849718746,42.22861819950262 106.95450849718745,42.02861819950262 110.35450849718745,41.02861819950262 C 112.75450849718746,40.328618199502614 115.35450849718745,39.22861819950262 117.85450849718745,40.42861819950262 C 125.85450849718745,44.22861819950262 133.45450849718745,41.628618199502625 141.35450849718745,39.92861819950262 C 155.05450849718744,36.82861819950263 168.75450849718746,39.52861819950262 182.45450849718745,40.82861819950263 C 188.55450849718744,41.42861819950262 194.45450849718745,43.228618199502634 200.75450849718746,42.728618199502634 C 211.65450849718746,41.82861819950263 222.15450849718746,45.62861819950264 232.95450849718745,46.32861819950263 C 248.85450849718742,47.32861819950263 264.75450849718743,46.02861819950263 280.6545084971874,45.32861819950263 C 288.25450849718743,45.02861819950263 295.5545084971874,46.228618199502634 302.6545084971874,47.728618199502634 C 309.1545084971874,49.12861819950264 313.4545084971874,47.82861819950263 317.8545084971874,43.12861819950264 C 321.9545084971874,38.728618199502634 323.8545084971874,33.42861819950264 326.7545084971874,28.528618199502645 C 328.0545084971874,26.228618199502648 326.45450849718736,24.92861819950265 325.15450849718735,23.62861819950264 C 322.65450849718735,21.028618199502645 320.0545084971873,18.528618199502645 317.5545084971873,15.928618199502637 C 315.65450849718735,13.928618199502637 314.35450849718734,11.428618199502637 315.7545084971873,9.028618199502631 C 317.1545084971873,6.528618199502631 319.9545084971873,6.328618199502628 322.5545084971873,7.228618199502634 C 329.2545084971873,9.328618199502628 335.85450849718734,11.528618199502631 342.5545084971873,13.528618199502631 C 345.35450849718734,14.428618199502637 348.2545084971873,15.128618199502625 351.15450849718735,15.728618199502634 C 359.7545084971874,17.52861819950263 359.65450849718735,17.428618199502637 358.7545084971874,8.928618199502637 C 358.45450849718736,6.028618199502631 357.15450849718735,2.528618199502631 360.15450849718735,0.6286181995026396 C 363.15450849718735,-1.271381800497366 365.65450849718735,1.6286181995026396 368.2545084971874,2.8286181995026425 C 368.45450849718736,2.928618199502637 368.65450849718735,3.0286181995026453 368.7545084971874,3.228618199502648 C 374.3545084971874,8.928618199502651 379.65450849718735,11.128618199502654 388.0545084971874,7.228618199502648 C 396.0545084971874,3.5286181995026453 404.6545084971874,7.128618199502654 411.0545084971874,12.928618199502651 C 421.5545084971874,22.42861819950265 433.1545084971874,30.228618199502648 445.5545084971874,36.82861819950266 C 455.5545084971874,42.22861819950266 455.6545084971874,51.82861819950266 457.5545084971874,60.62861819950267 C 458.45450849718736,64.82861819950266 446.95450849718736,74.72861819950266 441.6545084971874,75.32861819950266 C 434.6545084971874,76.12861819950267 427.75450849718743,77.02861819950265 420.8545084971874,78.02861819950265 C 415.5545084971874,78.82861819950266 411.1545084971874,81.72861819950263 408.7545084971874,86.52861819950265 C 404.7545084971874,94.52861819950265 400.2545084971874,102.02861819950265 392.15450849718735,106.72861819950263 C 389.5545084971873,108.22861819950263 388.85450849718734,111.22861819950263 388.35450849718734,113.82861819950263 C 386.5545084971873,124.42861819950262 381.65450849718735,133.8286181995026 377.15450849718735,143.42861819950264 C 375.35450849718734,147.22861819950265 372.7545084971874,150.12861819950263 369.5545084971873,152.62861819950263 C 361.35450849718734,159.12861819950263 355.4545084971873,167.12861819950263 352.35450849718734,177.3286181995026 C 347.45450849718736,193.2286181995026 336.2545084971873,201.42861819950264 319.85450849718734,203.12861819950263 C 312.85450849718734,203.8286181995026 306.0545084971873,205.3286181995026 299.0545084971873,205.72861819950265 C 292.15450849718735,206.12861819950263 285.35450849718734,215.12861819950263 285.0545084971873,224.52861819950266 C 284.7545084971873,233.12861819950268 283.0545084971873,241.32861819950267 280.5545084971873,249.52861819950266 C 278.4545084971873,256.32861819950267 281.65450849718735,262.92861819950264 281.65450849718735,269.72861819950265 C 281.5545084971873,283.1286181995026 290.5545084971873,292.82861819950267 295.7545084971874,304.02861819950266 C 298.5545084971874,310.22861819950265 298.95450849718736,310.1286181995027 292.15450849718735,310.32861819950267 C 289.65450849718735,310.4286181995027 287.0545084971873,310.4286181995027 284.45450849718736,310.32861819950267 C 273.65450849718735,309.9286181995027 273.45450849718736,308.72861819950265 269.15450849718735,298.72861819950265 C 265.85450849718734,291.22861819950265 265.95450849718736,284.22861819950265 266.7545084971874,276.52861819950266 C 267.4545084971874,265.5286181995024 265.25450849718743,255.1286181995024 263.05450849718744,244.72861819950242"/>
</svg>
