<?xml version="1.0" ?>
<svg xmlns="http://www.w3.org/2000/svg" xmlns:ev="http://www.w3.org/2001/xml-events" xmlns:xlink="http://www.w3.org/1999/xlink" baseProfile="full" height="460" id="Layer_1" style="enable-background:new 0 0 500 500;" transform="scale(0.25510204081632654 0.25510204081632654) translate(-196.0 -230.0)" version="1.1" viewBox="0 0 392 460" width="392" x="0px" xml:space="preserve" y="0px">
	<defs/>
	<path d="M 282.1732655875846,40.13288523354336 C 284.4732655875846,27.03288523354336 287.37326558758457,18.232885233543364 294.7732655875846,11.832885233543362 C 297.8732655875846,9.132885233543362 300.8732655875846,5.132885233543362 305.4732655875846,7.232885233543364 C 310.2732655875846,9.432885233543363 308.87326558758457,14.532885233543361 308.6732655875846,18.43288523354336 C 306.7732655875846,51.73288523354336 304.6732655875846,85.03288523354335 302.6732655875846,118.43288523354336 C 302.1732655875846,126.73288523354337 302.2732655875846,134.73288523354336 305.6732655875846,142.93288523354335 C 309.37326558758457,152.03288523354337 308.37326558758457,162.33288523354338 301.9732655875846,169.63288523354333 C 292.9732655875846,179.93288523354335 291.2732655875846,191.63288523354333 291.1732655875846,205.83288523354332 C 310.57326558758456,197.83288523354332 319.6732655875846,174.13288523354333 343.07326558758456,174.43288523354335 C 368.07326558758456,174.73288523354336 374.1732655875846,196.73288523354336 391.87326558758457,213.13288523354333 C 374.07326558758456,210.83288523354332 360.87326558758457,208.93288523354335 350.87326558758457,219.43288523354335 C 342.1732655875846,228.63288523354333 336.1732655875846,239.53288523354337 332.57326558758456,251.83288523354332 C 319.6732655875846,296.63288523354333 290.77326558758455,327.8328852335433 250.17326558758458,349.2328852335433 C 246.07326558758456,351.4328852335433 241.9732655875846,353.6328852335433 237.9732655875846,356.0328852335433 C 236.67326558758458,356.8328852335433 235.7732655875846,358.2328852335433 234.7732655875846,359.3328852335433 C 236.07326558758461,365.2328852335433 241.87326558758463,362.43288523354335 244.87326558758463,364.93288523354335 C 248.87326558758463,368.3328852335433 253.17326558758464,371.3328852335433 252.2732655875846,377.63288523354333 C 250.87326558758463,388.0328852335433 228.67326558758458,408.63288523354333 216.87326558758463,410.13288523354333 C 216.67326558758464,405.63288523354333 220.2732655875846,402.93288523354335 221.87326558758463,399.23288523354336 C 223.2732655875846,395.8328852335434 229.97326558758465,393.3328852335434 225.07326558758461,389.03288523354337 C 220.9732655875846,385.43288523354335 217.67326558758464,390.1328852335434 214.57326558758461,392.73288523354336 C 212.2732655875846,394.63288523354333 210.2732655875846,397.13288523354333 206.67326558758464,396.63288523354333 C 203.77326558758466,391.23288523354336 212.37326558758463,389.3328852335433 210.37326558758463,384.3328852335433 C 175.47326558758465,376.8328852335433 172.87326558758463,382.93288523354335 155.67326558758464,411.93288523354335 C 145.57326558758467,428.93288523354335 133.07326558758467,442.73288523354336 115.97326558758466,452.23288523354336 C 109.67326558758465,455.73288523354336 101.37326558758467,469.13288523354333 98.17326558758465,449.63288523354333 C 84.27326558758465,448.8328852335433 87.07326558758466,437.23288523354336 85.27326558758465,429.13288523354333 C 81.47326558758463,412.0328852335433 94.07326558758466,402.13288523354333 103.57326558758466,391.3328852335433 C 107.57326558758466,386.7328852335433 113.57326558758466,383.8328852335433 118.67326558758465,380.2328852335433 C 135.97326558758465,368.2328852335433 151.37326558758463,355.1328852335433 159.37326558758463,334.2328852335433 C 163.87326558758463,322.4328852335433 172.67326558758464,312.2328852335433 180.67326558758464,299.6328852335433 C 167.07326558758467,300.83288523354327 155.37326558758463,301.2328852335433 144.37326558758463,295.53288523354325 C 139.27326558758466,292.83288523354327 135.97326558758465,297.6328852335433 131.77326558758466,299.03288523354325 C 121.37326558758464,302.43288523354323 114.47326558758463,298.53288523354325 109.37326558758464,288.53288523354325 C 99.47326558758463,302.1328852335433 90.77326558758465,288.1328852335433 84.57326558758463,282.83288523354327 C 59.973265587584635,261.6328852335433 41.973265587584635,235.03288523354325 25.07326558758463,207.03288523354325 C 15.173265587584623,190.53288523354325 13.173265587584623,172.13288523354328 5.1732655875846305,156.73288523354324 C -3.1267344124153738,140.73288523354324 0.5732655875846291,124.83288523354325 2.573265587584629,112.83288523354325 C 5.073265587584629,97.23288523354326 -3.0267344124153723,75.53288523354325 18.373265587584626,64.83288523354325 C 23.273265587584632,67.63288523354325 22.47326558758462,76.03288523354325 28.373265587584626,80.73288523354326 C 29.173265587584623,72.63288523354326 21.873265587584626,65.43288523354326 26.97326558758462,55.63288523354326 C 36.77326558758462,65.83288523354327 36.873265587584626,80.53288523354327 47.17326558758462,89.53288523354327 C 48.07326558758463,82.53288523354327 42.07326558758463,76.33288523354327 46.97326558758462,69.23288523354327 C 54.17326558758462,74.73288523354327 55.77326558758462,83.13288523354328 58.373265587584626,90.63288523354326 C 75.57326558758463,138.73288523354324 112.47326558758463,167.23288523354324 155.57326558758461,189.83288523354327 C 164.2732655875846,194.4328852335433 172.37326558758463,183.9328852335433 171.97326558758465,182.33288523354327 C 169.57326558758461,172.7328852335433 177.77326558758466,165.03288523354325 176.17326558758464,156.83288523354327 C 171.87326558758463,134.9328852335433 176.7732655875846,111.83288523354328 186.37326558758463,95.73288523354329 C 193.87326558758463,83.23288523354329 188.37326558758463,62.43288523354329 207.57326558758461,56.53288523354328 C 208.57326558758461,56.232885233543286 207.67326558758464,50.732885233543286 208.17326558758464,47.63288523354328 C 209.97326558758465,36.33288523354328 210.07326558758461,23.33288523354328 227.57326558758461,26.23288523354328 C 232.2732655875846,27.032885233543276 232.4732655875846,23.532885233543276 232.9732655875846,20.532885233543276 C 234.07326558758461,14.732885233543279 235.17326558758458,8.532885233543276 241.7732655875846,7.032885233543276 C 249.4732655875846,5.232885233543275 251.37326558758463,12.632885233543277 255.07326558758461,19.33288523354328 C 256.2732655875846,14.732885233543279 257.0732655875846,12.232885233543279 257.5732655875846,9.732885233543279 C 258.67326558758464,5.032885233543279 259.8732655875846,0.4328852335432778 265.8732655875846,0.03288523354327921 C 272.3732655875846,-0.4671147664567208 273.47326558758465,4.83288523354328 274.67326558758464,9.232885233543279 C 277.47326558758454,18.132885233543362 279.27326558758455,27.232885233543357 282.1732655875846,40.13288523354336"/>
</svg>
