<?xml version="1.0" ?>
<svg xmlns="http://www.w3.org/2000/svg" xmlns:ev="http://www.w3.org/2001/xml-events" xmlns:xlink="http://www.w3.org/1999/xlink" baseProfile="full" height="297" id="Layer_1" style="enable-background:new 0 0 500 500;" transform="scale(0.3367003367003367 0.3367003367003367) translate(-240.5 -148.5)" version="1.1" viewBox="0 0 481 297" width="481" x="0px" xml:space="preserve" y="0px">
	<defs/>
	<path d="M 389.2127143651277,146.06749192747475 C 387.0127143651277,147.76749192747474 386.5127143651277,149.36749192747476 387.5127143651277,151.76749192747474 C 389.91271436512767,157.66749192747477 391.3127143651277,163.86749192747476 395.2127143651277,169.06749192747475 C 398.8127143651277,173.96749192747473 399.0127143651277,179.36749192747476 396.7127143651277,185.36749192747476 C 390.11271436512766,202.56749192747475 383.11271436512766,219.66749192747477 378.7127143651277,237.76749192747474 C 377.7127143651277,241.96749192747473 376.91271436512767,246.26749192747474 378.11271436512766,250.36749192747476 C 379.41271436512767,254.86749192747476 377.2127143651277,257.16749192747477 374.31271436512765,259.56749192747475 C 368.2127143651276,264.4674919274747 355.51271436512764,268.4674919274747 342.61271436512766,263.9674919274747 C 358.51271436512764,252.46749192747473 362.51271436512764,234.06749192747475 367.91271436512767,217.3674919274747 C 373.81271436512765,199.3674919274747 364.41271436512767,182.8674919274747 357.41271436512767,166.1674919274747 C 355.31271436512765,168.26749192747474 356.2127143651277,170.0674919274747 356.2127143651277,171.6674919274747 C 356.0127143651277,177.46749192747473 356.11271436512766,177.46749192747473 351.0127143651277,174.8674919274747 C 344.1127143651277,171.46749192747473 344.0127143651277,171.46749192747473 343.3127143651277,163.46749192747473 C 343.1127143651277,161.1674919274747 342.0127143651277,160.06749192747475 340.4127143651277,158.96749192747473 C 337.3127143651277,156.8674919274747 333.21271436512774,156.46749192747473 330.51271436512775,153.3674919274747 C 328.9127143651277,151.5674919274747 327.9127143651277,153.8674919274747 327.01271436512775,154.76749192747474 C 322.4127143651277,159.26749192747474 317.21271436512774,162.06749192747475 310.6127143651278,162.1674919274747 C 306.01271436512775,162.26749192747474 302.2127143651278,164.26749192747474 298.7127143651278,167.3674919274747 C 292.8127143651278,172.6674919274747 286.0127143651278,173.1674919274747 279.4127143651278,168.8674919274747 C 276.4127143651278,166.8674919274747 273.4127143651278,166.1674919274747 269.9127143651278,165.96749192747473 C 259.4127143651278,165.26749192747474 249.81271436512776,160.56749192747475 239.51271436512778,159.1674919274747 C 235.61271436512777,158.6674919274747 231.51271436512778,159.0674919274747 227.91271436512778,156.5674919274747 C 225.7127143651278,155.0674919274747 222.7127143651278,156.26749192747468 222.2127143651278,158.76749192747468 C 221.2127143651278,163.8674919274747 217.3127143651278,167.0674919274747 215.41271436512778,171.26749192747468 C 207.91271436512778,187.8674919274747 202.91271436512778,204.96749192747467 211.2127143651278,222.8674919274747 C 216.91271436512778,235.0674919274747 219.5127143651278,248.0674919274747 222.0127143651278,261.1674919274747 C 222.5127143651278,263.76749192747474 221.9127143651278,264.76749192747474 219.31271436512782,264.6674919274747 C 214.61271436512783,264.6674919274747 210.0127143651278,264.0674919274747 205.5127143651278,262.5674919274747 C 200.81271436512782,260.96749192747467 201.81271436512782,257.0674919274747 201.9127143651278,253.5674919274747 C 202.21271436512782,245.8674919274747 200.71271436512782,238.3674919274747 198.21271436512782,231.0674919274747 C 194.21271436512782,240.96749192747467 191.9127143651278,251.0674919274747 193.21271436512782,261.6674919274747 C 193.31271436512782,262.76749192747474 193.71271436512782,263.76749192747474 193.71271436512782,264.76749192747474 C 193.9127143651278,269.76749192747474 196.71271436512782,276.26749192747474 192.61271436512783,279.26749192747474 C 187.11271436512783,283.4674919274747 180.11271436512783,286.4674919274747 172.31271436512782,284.86749192747476 C 164.71271436512782,283.36749192747476 162.71271436512782,279.26749192747474 167.61271436512783,273.36749192747476 C 175.91271436512784,263.36749192747476 178.21271436512782,251.26749192747474 180.91271436512784,239.26749192747474 C 181.51271436512783,236.76749192747474 181.61271436512783,234.1674919274747 180.61271436512783,231.6674919274747 C 176.51271436512783,221.26749192747474 176.01271436512783,210.6674919274747 179.71271436512782,199.0674919274747 C 174.51271436512783,200.6674919274747 170.11271436512783,202.26749192747468 165.51271436512783,203.46749192747467 C 160.31271436512785,204.76749192747468 154.91271436512784,205.36749192747465 150.41271436512784,201.46749192747467 C 149.01271436512783,200.36749192747465 147.71271436512785,199.96749192747467 146.51271436512783,201.26749192747468 C 141.11271436512783,207.0674919274747 135.61271436512783,204.16749192747466 130.41271436512784,201.16749192747466 C 120.11271436512784,195.16749192747466 120.21271436512787,195.06749192747463 112.31271436512786,204.06749192747463 C 110.31271436512786,206.26749192747462 108.41271436512785,209.06749192747463 105.41271436512785,209.4674919274746 C 99.51271436512785,210.1674919274746 97.91271436512785,214.26749192747462 96.91271436512785,219.06749192747463 C 95.11271436512786,227.76749192747462 91.51271436512785,235.36749192747465 86.41271436512785,242.76749192747462 C 82.21271436512785,248.86749192747465 79.31271436512786,255.76749192747462 76.01271436512785,262.4674919274746 C 71.01271436512785,272.6674919274746 64.01271436512785,280.9674919274746 53.71271436512785,286.1674919274746 C 52.51271436512785,286.7674919274746 50.312714365127846,287.0674919274746 50.71271436512785,288.8674919274746 C 52.312714365127846,296.3674919274746 46.912714365127854,294.8674919274746 42.912714365127854,295.1674919274746 C 37.912714365127854,295.5674919274746 32.812714365127846,296.2674919274746 27.81271436512785,296.7674919274746 C 23.41271436512785,297.2674919274746 18.51271436512785,295.4674919274746 13.712714365127848,295.6674919274746 C 12.012714365127849,295.7674919274746 11.31271436512785,293.2674919274746 11.012714365127849,291.6674919274746 C 10.512714365127849,288.7674919274746 9.512714365127849,285.4674919274746 10.31271436512785,282.8674919274746 C 14.61271436512785,268.5674919274746 10.91271436512785,253.56749192747458 14.31271436512785,239.1674919274746 C 14.712714365127848,237.4674919274746 14.512714365127849,235.76749192747462 13.31271436512785,234.3674919274746 C 5.912714365127849,225.3674919274746 7.212714365127848,215.4674919274746 12.012714365127849,206.26749192747457 C 16.41271436512785,197.96749192747455 17.31271436512785,189.56749192747458 16.81271436512785,180.56749192747458 C 16.712714365127848,177.96749192747455 15.11271436512785,177.3674919274746 13.712714365127848,176.26749192747457 C 9.112714365127847,172.76749192747457 4.412714365127847,169.46749192747455 1.5127143651278487,164.26749192747457 C 0.5127143651278487,162.46749192747455 -0.9872856348721513,160.16749192747454 0.9127143651278491,158.46749192747455 C 3.11271436512785,156.56749192747458 3.912714365127849,159.66749192747454 5.412714365127849,160.46749192747455 C 13.41271436512785,164.46749192747455 21.212714365127848,168.46749192747455 27.712714365127848,174.86749192747453 C 29.612714365127847,176.7674919274745 33.61271436512784,177.46749192747455 36.912714365127854,174.56749192747452 C 40.01271436512785,171.86749192747453 40.01271436512785,169.36749192747453 38.812714365127846,166.16749192747454 C 37.51271436512785,162.56749192747452 35.912714365127854,159.06749192747452 34.912714365127854,155.46749192747455 C 34.51271436512785,153.86749192747453 33.71271436512785,151.26749192747457 36.11271436512786,150.46749192747455 C 38.11271436512786,149.86749192747453 38.71271436512785,152.16749192747454 39.61271436512786,153.56749192747452 C 39.81271436512786,153.96749192747455 39.912714365127854,154.36749192747453 40.11271436512786,154.76749192747457 C 44.21271436512785,161.26749192747457 46.71271436512785,161.3674919274746 50.31271436512786,154.66749192747454 C 61.912714365127854,132.7674919274745 73.41271436512785,110.76749192747452 84.51271436512786,88.56749192747453 C 88.21271436512787,81.26749192747452 90.51271436512786,73.26749192747452 93.21271436512787,65.56749192747453 C 94.81271436512786,61.16749192747453 94.41271436512787,55.76749192747452 97.01271436512786,50.96749192747454 C 98.31271436512786,48.66749192747453 99.01271436512786,46.567491927474535 101.41271436512787,45.16749192747453 C 103.01271436512786,44.26749192747452 104.91271436512787,42.96749192747454 105.51271436512786,41.36749192747452 C 108.81271436512786,33.16749192747453 117.41271436512787,30.867491927474518 123.11271436512787,25.467491927474512 C 126.81271436512786,21.967491927474512 132.51271436512786,22.167491927474515 137.21271436512785,20.067491927474506 C 143.81271436512785,17.067491927474506 151.01271436512786,16.067491927474506 157.11271436512786,11.26749192747451 C 161.01271436512786,8.167491927474515 166.81271436512785,10.76749192747451 171.91271436512787,9.667491927474515 C 193.81271436512787,4.767491927474509 215.71271436512785,-0.832508072525485 238.61271436512789,3.467491927474512 C 246.0127143651279,4.867491927474518 253.9127143651279,4.467491927474512 261.51271436512786,3.5674919274745065 C 278.8127143651279,1.6674919274745008 295.3127143651279,6.767491927474509 312.1127143651279,8.467491927474512 C 320.7127143651279,9.367491927474518 329.01271436512786,9.467491927474512 337.4127143651279,7.367491927474518 C 346.3127143651279,5.167491927474515 355.4127143651279,3.967491927474512 364.6127143651279,4.367491927474518 C 370.6127143651279,4.667491927474515 375.7127143651279,1.8674919274745179 381.4127143651279,0.8674919274745179 C 399.9127143651279,-2.532508072525488 410.7127143651279,4.067491927474521 419.4127143651279,20.56749192747452 C 425.5127143651279,32.16749192747453 423.9127143651279,44.46749192747451 426.3127143651279,56.36749192747452 C 428.9127143651279,69.66749192747453 431.1127143651279,83.0674919274745 435.51271436512786,96.0674919274745 C 439.41271436512784,107.7674919274745 447.01271436512786,116.1674919274745 456.91271436512784,122.96749192747451 C 458.51271436512786,124.0674919274745 460.91271436512784,124.5674919274745 461.21271436512785,126.46749192747451 C 462.61271436512783,135.06749192747452 468.41271436512784,141.56749192747452 474.21271436512785,146.4674919274745 C 479.41271436512784,150.86749192747453 480.41271436512784,154.36749192747453 479.51271436512786,160.46749192747455 C 478.91271436512784,164.36749192747453 482.51271436512786,168.46749192747455 479.6127143651279,173.26749192747457 C 478.4127143651279,171.66749192747454 477.3127143651279,170.16749192747454 475.4127143651279,167.56749192747458 C 475.1127143651279,170.96749192747455 474.9127143651279,173.26749192747457 474.7127143651279,175.46749192747455 C 471.4127143651279,170.26749192747457 464.0127143651279,169.96749192747455 461.6127143651279,163.46749192747455 C 460.3127143651279,159.96749192747455 458.6127143651279,162.56749192747458 458.3127143651279,165.16749192747454 C 458.21271436512785,165.86749192747453 458.01271436512786,166.66749192747454 457.8127143651279,167.56749192747452 C 455.21271436512785,166.2674919274745 454.51271436512786,164.06749192747452 454.4127143651279,162.16749192747454 C 453.9127143651279,151.46749192747455 447.2127143651279,143.7674919274745 441.6127143651279,135.56749192747452 C 441.1127143651279,134.86749192747453 440.51271436512786,133.96749192747455 440.6127143651279,133.2674919274745 C 442.3127143651279,119.76749192747452 432.8127143651279,109.46749192747451 430.01271436512786,97.26749192747452 C 428.51271436512786,90.76749192747452 425.8127143651279,84.46749192747451 422.51271436512786,78.06749192747453 C 422.41271436512784,80.16749192747453 422.21271436512785,82.36749192747455 422.1127143651279,84.46749192747454 C 421.2127143651279,100.66749192747453 421.1127143651279,116.76749192747455 422.7127143651279,132.86749192747453 C 423.7127143651279,143.16749192747454 428.6127143651279,151.86749192747453 433.81271436512793,160.36749192747453 C 437.91271436512795,167.06749192747452 439.91271436512795,173.56749192747452 438.31271436512793,181.86749192747453 C 434.7127143651279,200.86749192747453 434.41271436512795,220.36749192747453 433.31271436512793,239.66749192747454 C 433.2127143651279,242.16749192747454 433.41271436512795,244.76749192747457 433.7127143651279,247.26749192747457 C 434.1127143651279,251.16749192747454 436.4127143651279,254.76749192747457 432.2127143651279,258.66749192747454 C 429.6127143651279,261.0674919274745 432.2127143651279,265.5674919274745 433.31271436512793,268.96749192747455 C 435.11271436512794,274.36749192747453 433.2127143651279,276.46749192747455 427.81271436512793,276.5674919274746 C 421.2127143651279,276.6674919274746 414.61271436512794,277.5674919274746 408.11271436512794,276.3674919274746 C 403.71271436512797,275.5674919274746 402.5127143651279,273.3674919274746 406.11271436512794,270.0674919274746 C 413.41271436512795,263.46749192747455 415.41271436512795,254.96749192747455 417.11271436512794,245.46749192747455 C 421.41271436512795,220.16749192747454 416.0127143651279,197.46749192747455 402.41271436512795,176.16749192747454 C 398.11271436512794,169.46749192747455 396.61271436512794,161.66749192747454 393.61271436512794,154.36749192747453 C 392.11271436512766,151.66749192747477 391.5127143651277,148.46749192747478 389.2127143651277,146.06749192747475"/>
</svg>
