<?xml version="1.0" ?>
<svg xmlns="http://www.w3.org/2000/svg" xmlns:ev="http://www.w3.org/2001/xml-events" xmlns:xlink="http://www.w3.org/1999/xlink" baseProfile="full" height="423" id="Layer_1" style="enable-background:new 0 0 500 500;" transform="scale(0.2364066193853428 0.2364066193853428) translate(-219.0 -211.5)" version="1.1" viewBox="0 0 438 423" width="438" x="0px" xml:space="preserve" y="0px">
	<defs/>
	<path d="M 166.5526776557861,383.34 C 166.7526776557861,380.03999999999996 168.35267765578612,378.23999999999995 170.85267765578612,377.03999999999996 C 176.85267765578612,374.14 178.85267765578612,368.84 179.25267765578613,362.64 C 179.65267765578614,356.44 179.95267765578612,350.24 179.95267765578612,344.03999999999996 C 179.85267765578612,337.23999999999995 177.35267765578612,334.53999999999996 171.45267765578612,336.84 C 166.1526776557861,338.94 162.6526776557861,337.14 158.45267765578612,335.23999999999995 C 149.85267765578612,331.23999999999995 140.75267765578613,328.34 131.35267765578612,326.63999999999993 C 118.95267765578612,324.43999999999994 115.25267765578613,317.23999999999995 121.15267765578614,306.3399999999999 C 122.55267765578614,303.8399999999999 124.05267765578614,301.5399999999999 126.05267765578614,298.3399999999999 C 118.65267765578614,298.0399999999999 113.35267765578615,301.63999999999993 107.75267765578613,303.8399999999999 C 97.75267765578613,307.8399999999999 89.15267765578614,305.8399999999999 81.45267765578612,298.7399999999999 C 76.15267765578614,293.8399999999999 75.95267765578612,291.2399999999999 81.05267765578611,285.8399999999999 C 86.35267765578612,280.2399999999999 92.6526776557861,275.8399999999999 98.95267765578612,271.43999999999994 C 105.1526776557861,267.03999999999996 112.05267765578611,263.3399999999999 117.1526776557861,257.43999999999994 C 116.3526776557861,253.83999999999992 110.55267765578611,254.13999999999993 111.3526776557861,248.93999999999994 C 111.7526776557861,246.63999999999993 107.7526776557861,246.73999999999995 105.8526776557861,247.23999999999995 C 96.45267765578609,249.53999999999996 87.7526776557861,246.63999999999993 78.95267765578609,244.23999999999995 C 74.25267765578607,243.03999999999996 69.95267765578609,241.23999999999995 66.95267765578609,237.13999999999993 C 64.05267765578608,233.23999999999995 60.45267765578608,232.73999999999995 55.45267765578608,233.43999999999994 C 45.45267765578608,234.83999999999992 37.152677655786086,229.53999999999996 29.152677655786086,224.33999999999992 C 25.752677655786087,222.13999999999993 26.35267765578609,218.5399999999999 28.35267765578609,215.5399999999999 C 30.652677655786086,212.2399999999999 33.45267765578608,209.33999999999992 36.152677655786086,206.33999999999992 C 39.85267765578609,202.23999999999995 42.45267765578608,198.13999999999993 42.85267765578609,192.0399999999999 C 43.45267765578608,184.13999999999993 42.35267765578609,178.43999999999994 36.05267765578609,172.93999999999994 C 29.35267765578609,167.0399999999999 26.45267765578609,158.33999999999992 23.95267765578609,149.93999999999994 C 21.85267765578609,142.93999999999994 19.252677655786087,136.23999999999995 15.552677655786091,129.83999999999992 C 10.252677655786094,120.53999999999992 6.95267765578609,110.43999999999993 7.552677655786091,99.43999999999993 C 7.95267765578609,91.83999999999993 5.552677655786091,84.93999999999993 3.0526776557860913,78.13999999999993 C -4.447322344213884,58.239999999999995 2.652677655786114,41.64 15.852677655786117,27.14 C 22.852677655786117,19.340000000000003 32.45267765578612,14.240000000000002 38.85267765578612,5.439999999999998 C 42.95267765578611,-0.1600000000000037 50.55267765578612,-0.2600000000000051 57.152677655786114,0.14000000000000057 C 74.95267765578612,1.1400000000000006 90.55267765578611,7.640000000000001 103.75267765578613,19.740000000000002 C 107.75267765578613,23.440000000000005 111.85267765578612,27.14 116.15267765578614,30.540000000000006 C 122.45267765578615,35.64 127.75267765578613,41.44000000000001 131.55267765578614,48.84 C 135.45267765578615,56.540000000000006 140.55267765578614,63.540000000000006 146.65267765578614,69.64 C 149.15267765578614,67.34 147.35267765578612,65.54 148.35267765578612,62.64 C 151.45267765578612,72.34 160.35267765578612,65.74 165.25267765578613,70.14 C 170.65267765578614,60.14 183.45267765578612,66.74 189.55267765578614,58.540000000000006 C 193.55267765578614,65.34 197.85267765578615,68.04 203.15267765578614,65.24000000000001 C 207.05267765578614,63.24000000000001 209.65267765578614,63.84 213.15267765578614,65.04 C 215.05267765578614,65.74000000000001 217.35267765578612,65.64 219.35267765578612,65.34 C 230.15267765578614,63.64 239.35267765578612,68.14 248.15267765578614,73.34 C 250.75267765578616,74.94 252.5526776557861,77.14 255.65267765578614,74.94 C 256.0526776557861,74.64 256.75267765578616,74.64 257.3526776557861,74.53999999999999 C 258.45267765578615,81.13999999999999 266.7526776557861,81.44 268.65267765578614,87.03999999999999 C 270.25267765578616,91.74 273.65267765578614,94.14 277.8526776557861,95.43999999999998 C 288.3526776557861,98.53999999999998 295.3526776557861,105.63999999999997 300.7526776557861,114.83999999999999 C 303.7526776557861,119.83999999999999 307.1526776557861,124.64 310.6526776557861,129.33999999999997 C 315.55267765578606,135.64 321.55267765578606,139.64 330.1526776557861,140.03999999999996 C 339.35267765578607,140.44 347.05267765578606,144.53999999999996 351.9526776557861,152.73999999999995 C 353.85267765578607,155.83999999999997 355.6526776557861,160.03999999999996 360.0526776557861,158.03999999999996 C 364.3526776557861,156.03999999999996 365.9526776557861,151.33999999999997 364.8526776557861,146.73999999999995 C 363.95267765578615,142.53999999999996 361.8526776557861,138.53999999999996 360.45267765578615,134.33999999999997 C 356.95267765578615,124.43999999999996 358.15267765578614,114.73999999999997 362.75267765578616,105.63999999999997 C 375.65267765578614,80.13999999999997 410.45267765578615,87.73999999999997 421.15267765578614,103.33999999999996 C 423.8526776557861,107.23999999999997 426.5526776557861,111.03999999999995 429.75267765578616,114.63999999999997 C 435.3526776557862,120.93999999999998 437.95267765578615,128.73999999999995 437.55267765578617,136.94 C 436.95267765578615,147.94 436.1526776557862,158.83999999999997 436.25267765578616,169.83999999999997 C 436.25267765578616,171.94 436.25267765578616,174.33999999999997 432.75267765578616,175.64 C 430.3526776557862,166.14 430.95267765578615,156.54000000000002 430.05267765578617,147.04000000000002 C 429.6526776557862,142.74 429.95267765578615,138.24 427.25267765578616,134.44 C 423.8526776557862,129.74 421.25267765578616,129.34000000000003 418.3526776557862,134.34000000000003 C 413.05267765578617,143.74 407.4526776557862,153.24 408.05267765578617,164.84000000000003 C 408.25267765578616,168.64000000000004 406.6526776557862,171.94 405.25267765578616,175.34000000000003 C 402.45267765578615,182.24 397.25267765578616,188.44 399.3526776557862,196.94 C 399.9526776557862,199.44 397.4526776557862,201.54000000000002 395.6526776557862,203.34000000000003 C 392.9526776557862,206.24 389.8526776557862,208.94 389.6526776557862,213.44 C 389.55267765578617,216.64 387.6526776557862,217.33999999999997 384.7526776557862,218.04000000000002 C 377.4526776557862,219.94 376.35267765578624,222.14000000000004 375.9526776557862,229.44 C 375.5526776557862,236.44 378.8526776557862,242.83999999999997 378.8526776557862,249.83999999999997 C 378.8526776557862,253.83999999999997 383.8526776557862,251.33999999999997 385.8526776557862,253.64 C 385.55267765578617,257.44 382.4526776557862,259.24 379.6526776557862,260.44 C 373.7526776557862,263.04 371.55267765578617,268.04 371.4526776557862,273.54 C 371.3526776557862,281.54 367.8526776557862,286.44 361.1526776557862,289.84000000000003 C 360.1526776557862,290.34000000000003 358.6526776557862,290.74 358.4526776557862,291.54 C 355.9526776557862,298.24 351.5526776557862,296.54 346.8526776557862,293.84000000000003 C 342.1526776557862,301.94000000000005 339.4526776557862,311.24 331.6526776557862,316.64000000000004 C 327.3526776557862,313.64000000000004 332.2526776557862,309.24000000000007 328.1526776557862,307.14000000000004 C 326.2526776557862,311.54 324.2526776557862,315.94000000000005 321.8526776557862,321.44000000000005 C 313.75267765578616,312.74000000000007 306.8526776557862,318.34000000000003 299.8526776557862,322.44000000000005 C 298.25267765578616,323.34000000000003 297.25267765578616,327.5400000000001 295.4526776557862,325.44000000000005 C 293.4526776557862,323.0400000000001 289.2526776557862,324.5400000000001 288.8526776557862,320.74000000000007 C 288.3526776557862,316.44000000000005 286.25267765578616,317.14000000000004 283.8526776557862,319.14000000000004 C 282.4526776557862,320.24000000000007 281.05267765578617,321.54 279.75267765578616,322.74000000000007 C 278.45267765578615,324.0400000000001 277.05267765578617,326.74000000000007 276.05267765578617,326.5400000000001 C 268.3526776557862,325.24000000000007 261.8526776557862,332.8400000000001 255.1526776557862,330.74000000000007 C 249.05267765578617,328.8400000000001 245.25267765578621,330.14000000000004 241.4526776557862,333.74000000000007 C 237.05267765578623,337.8400000000001 232.6526776557862,340.0400000000001 226.05267765578623,335.24000000000007 C 226.65267765578625,341.0400000000001 226.35267765578624,345.5400000000001 227.55267765578623,349.5400000000001 C 231.55267765578623,363.24000000000007 235.4526776557862,376.94000000000005 240.85267765578624,390.1400000000001 C 243.35267765578624,396.3400000000001 247.35267765578624,398.4400000000001 253.55267765578623,397.4400000000001 C 255.75267765578621,397.04000000000013 257.9526776557862,396.8400000000001 260.15267765578625,396.8400000000001 C 264.2526776557863,396.8400000000001 268.35267765578624,396.74000000000007 263.35267765578624,402.4400000000001 C 261.5526776557862,404.4400000000001 264.15267765578625,405.4400000000001 265.7526776557862,406.04000000000013 C 269.5526776557862,407.54000000000013 273.5526776557862,407.7400000000001 277.6526776557862,408.04000000000013 C 281.6526776557862,408.34000000000015 285.6526776557862,408.64000000000016 288.2526776557862,413.7400000000001 C 273.9526776557862,416.2400000000001 260.6526776557862,413.04000000000013 247.6526776557862,410.2400000000001 C 245.4526776557862,413.34000000000015 248.25267765578621,414.34000000000015 249.4526776557862,415.84000000000015 C 250.85267765578618,417.64000000000016 252.25267765578621,419.2400000000001 250.25267765578621,422.2400000000001 C 243.9526776557862,418.54000000000013 236.4526776557862,416.6400000000001 233.1526776557862,408.7400000000001 C 232.05267765578617,406.04000000000013 230.35267765578618,403.54000000000013 226.85267765578618,403.34000000000015 C 226.1526776557862,403.34000000000015 224.85267765578618,403.2400000000001 224.7526776557862,403.04000000000013 C 222.35267765578618,390.9400000000001 212.6526776557862,396.34000000000015 205.7526776557862,395.04000000000013 C 203.35267765578618,394.54000000000013 200.7526776557862,394.7400000000001 198.45267765578618,394.64000000000016 C 196.7526776557862,397.04000000000013 200.15267765578616,399.04000000000013 197.85267765578618,401.44000000000017 C 197.85267765578618,401.44000000000017 197.1526776557862,401.94000000000017 196.6526776557862,401.7400000000002 C 189.85267765578618,399.7400000000002 185.1526776557862,395.7400000000002 183.35267765578618,388.5400000000002 C 182.85267765578618,386.44000000000017 181.55267765578617,384.5400000000002 180.45267765578618,382.6400000000002 C 179.05267765578617,380.0400000000002 177.2526776557862,378.4400000000002 174.55267765578617,381.4400000000002 C 172.25267765578613,384.03999999999996 169.45267765578612,383.74 166.5526776557861,383.34 M 193.25267765578613,335.34 C 192.75267765578613,336.73999999999995 192.55267765578614,337.03999999999996 192.45267765578612,337.34 C 190.5526776557861,350.44 195.95267765578612,363.14 194.35267765578612,376.34 C 193.85267765578612,380.23999999999995 197.35267765578612,381.94 201.0526776557861,381.73999999999995 C 204.6526776557861,381.53999999999996 208.2526776557861,380.63999999999993 211.85267765578612,380.63999999999993 C 214.5526776557861,380.63999999999993 219.45267765578612,379.13999999999993 217.0526776557861,385.3399999999999 C 216.35267765578612,387.0399999999999 217.85267765578612,387.7399999999999 219.45267765578612,388.0399999999999 C 224.0526776557861,389.13999999999993 226.5526776557861,386.7399999999999 224.45267765578612,381.7399999999999 C 219.0526776557861,369.1399999999999 218.45267765578612,355.0399999999999 210.5526776557861,343.0399999999999 C 206.85267765578612,337.4399999999999 204.35267765578612,334.2399999999999 197.7526776557861,335.2399999999999 C 196.35267765578612,335.44 194.85267765578612,335.34 193.25267765578613,335.34"/>
</svg>
