<?xml version="1.0" ?>
<svg xmlns="http://www.w3.org/2000/svg" xmlns:ev="http://www.w3.org/2001/xml-events" xmlns:xlink="http://www.w3.org/1999/xlink" baseProfile="full" height="397" id="Layer_1" style="enable-background:new 0 0 500 500;" transform="scale(0.2518891687657431 0.2518891687657431) translate(-220.5 -198.5)" version="1.1" viewBox="0 0 441 397" width="441" x="0px" xml:space="preserve" y="0px">
	<defs/>
	<path d="M 72.49041349615567,278.4022879099451 C 67.89041349615567,280.60228790994506 65.69041349615567,283.80228790994505 63.390413496155674,286.9022879099451 C 52.49041349615567,301.80228790994505 42.79041349615568,317.5022879099451 34.090413496155676,333.80228790994505 C 27.990413496155675,345.202287909945 24.890413496155674,357.50228790994504 29.79041349615568,370.50228790994504 C 31.29041349615568,374.50228790994504 33.19041349615568,378.10228790994506 36.590413496155676,381.00228790994504 C 39.090413496155676,383.10228790994506 41.29041349615568,385.80228790994505 42.99041349615568,388.60228790994506 C 44.99041349615568,391.80228790994505 43.590413496155676,394.7022879099451 39.690413496155685,395.00228790994504 C 32.190413496155685,395.702287909945 24.790413496155686,396.702287909945 17.190413496155685,396.402287909945 C 10.990413496155682,396.102287909945 9.190413496155685,394.802287909945 8.090413496155684,388.702287909945 C 6.190413496155685,378.80228790994505 5.790413496155686,368.902287909945 6.790413496155686,358.902287909945 C 7.490413496155689,352.00228790994504 7.5904134961556835,345.102287909945 6.490413496155689,338.102287909945 C 4.890413496155688,328.402287909945 6.690413496155692,319.202287909945 12.690413496155692,311.402287909945 C 21.790413496155693,299.802287909945 25.290413496155693,286.602287909945 24.490413496155696,272.302287909945 C 23.590413496155698,255.00228790994498 25.390413496155695,237.802287909945 24.990413496155696,220.602287909945 C 24.590413496155698,201.802287909945 29.890413496155695,184.802287909945 39.490413496155696,169.00228790994498 C 42.79041349615569,163.602287909945 45.990413496155696,158.20228790994497 49.3904134961557,152.50228790994498 C 44.29041349615571,149.602287909945 39.490413496155696,147.00228790994498 34.990413496155696,144.102287909945 C 23.1904134961557,136.50228790994498 12.6904134961557,127.402287909945 5.590413496155698,115.002287909945 C -2.6095865038443016,100.80228790994501 -1.9095865038443023,86.002287909945 8.490413496155696,73.60228790994499 C 18.290413496155693,62.002287909945 29.490413496155696,51.90228790994499 41.79041349615569,42.90228790994499 C 42.79041349615569,42.202287909944985 43.79041349615569,41.60228790994499 44.89041349615569,41.00228790994498 C 47.29041349615569,39.702287909944985 49.99041349615568,37.60228790994498 52.39041349615569,39.40228790994499 C 55.39041349615569,41.702287909944985 53.59041349615569,45.10228790994499 52.49041349615568,47.802287909944994 C 50.99041349615568,51.702287909945 48.99041349615568,55.502287909945 46.89041349615569,59.202287909945 C 41.49041349615568,68.402287909945 34.89041349615569,76.60228790994499 27.59041349615569,84.402287909945 C 17.890413496155688,94.80228790994501 18.290413496155693,102.70228790994501 29.290413496155693,112.20228790994501 C 40.6904134961557,122.00228790994503 54.490413496155696,127.60228790994502 67.7904134961557,134.102287909945 C 70.2904134961557,135.302287909945 72.4904134961557,134.20228790994503 74.7904134961557,133.602287909945 C 108.3904134961557,124.60228790994502 142.4904134961557,121.20228790994501 177.2904134961557,123.80228790994501 C 193.8904134961557,125.002287909945 210.4904134961557,125.902287909945 227.19041349615568,124.60228790994502 C 234.7904134961557,124.00228790994503 242.19041349615568,122.60228790994502 249.39041349615567,120.40228790994503 C 264.7904134961557,115.60228790994502 276.7904134961557,106.40228790994503 284.59041349615563,92.20228790994504 C 288.3904134961557,85.30228790994504 291.59041349615563,78.10228790994505 294.7904134961557,71.00228790994504 C 300.2904134961557,58.70228790994504 306.69041349615566,47.10228790994505 318.7904134961557,39.90228790994503 C 322.69041349615566,37.602287909945034 323.09041349615563,33.502287909945025 323.59041349615563,29.602287909945034 C 324.4904134961556,21.802287909945036 325.19041349615566,14.00228790994504 325.9904134961556,5.702287909945035 C 332.4904134961556,7.202287909945035 333.8904134961556,13.302287909945036 337.2904134961557,18.50228790994504 C 338.9904134961556,13.50228790994504 340.3904134961557,9.402287909945038 341.9904134961556,5.302287909945036 C 342.8904134961556,3.1022879099450336 343.69041349615566,-0.09771209005496218 346.2904134961557,0.002287909945039246 C 349.59041349615563,0.2022879099450421 349.7904134961557,3.902287909945038 350.2904134961557,6.302287909945036 C 351.2904134961557,11.302287909945036 351.7904134961557,16.50228790994504 352.3904134961557,21.602287909945034 C 353.3904134961557,30.302287909945036 354.2904134961557,31.302287909945036 362.8904134961557,31.50228790994504 C 375.2904134961557,31.702287909945042 385.09041349615563,37.302287909945036 392.4904134961557,46.70228790994504 C 395.69041349615566,50.802287909945036 398.9904134961557,52.402287909945045 403.8904134961557,52.302287909945036 C 411.4904134961557,52.20228790994504 418.9904134961557,52.50228790994504 426.59041349615563,52.40228790994503 C 431.7904134961557,52.302287909945036 436.3904134961557,53.40228790994503 438.9904134961556,58.302287909945036 C 441.3904134961556,62.802287909945036 439.3904134961556,67.10228790994503 436.9904134961556,71.10228790994503 C 433.69041349615566,76.50228790994504 428.7904134961557,79.90228790994503 423.19041349615566,82.40228790994503 C 421.8904134961556,83.00228790994503 420.09041349615563,82.90228790994503 419.3904134961556,85.40228790994503 C 422.29041349615557,86.90228790994503 425.3904134961556,88.50228790994503 428.3904134961556,90.10228790994502 C 431.8904134961556,92.00228790994503 431.9904134961556,94.60228790994502 429.8904134961556,97.60228790994502 C 426.69041349615566,102.00228790994503 422.19041349615566,104.40228790994503 417.19041349615566,105.90228790994503 C 411.9904134961556,107.50228790994503 406.59041349615563,108.30228790994504 401.09041349615563,107.90228790994503 C 392.79041349615557,107.30228790994504 387.3904134961556,111.50228790994503 383.4904134961556,118.30228790994504 C 380.59041349615563,123.30228790994504 378.4904134961556,128.70228790994503 376.59041349615563,134.10228790994506 C 374.09041349615563,141.20228790994503 371.69041349615566,148.40228790994507 369.09041349615563,155.50228790994504 C 366.59041349615563,162.30228790994505 363.8904134961556,169.20228790994503 359.29041349615557,174.90228790994507 C 348.4904134961556,188.30228790994505 341.79041349615557,203.90228790994507 336.4904134961556,220.0022879099451 C 331.59041349615563,235.3022879099451 321.8904134961556,244.90228790994507 306.3904134961556,248.3022879099451 C 297.9904134961556,250.10228790994512 294.4904134961556,255.10228790994512 292.8904134961556,263.0022879099451 C 288.9904134961556,282.6022879099451 286.8904134961556,302.5022879099451 285.8904134961556,322.4022879099451 C 285.4904134961556,330.4022879099451 286.69041349615554,338.10228790994506 290.8904134961556,345.10228790994506 C 293.9904134961556,350.30228790994505 297.8904134961556,353.80228790994505 304.79041349615557,353.4022879099451 C 310.3904134961556,353.0022879099451 317.79041349615557,361.4022879099451 317.69041349615554,367.30228790994505 C 317.69041349615554,369.9022879099451 315.8904134961555,371.00228790994504 313.5904134961555,371.202287909945 C 307.8904134961555,371.902287909945 302.29041349615545,372.602287909945 296.4904134961555,373.202287909945 C 296.5904134961555,376.602287909945 299.3904134961555,376.902287909945 301.29041349615545,378.00228790994504 C 304.0904134961555,379.80228790994505 307.19041349615543,381.00228790994504 309.9904134961555,382.80228790994505 C 312.8904134961555,384.702287909945 315.19041349615543,387.4022879099451 314.3904134961555,391.10228790994506 C 313.5904134961554,394.7022879099451 309.9904134961555,394.7022879099451 307.0904134961554,395.30228790994505 C 299.9904134961554,397.00228790994504 292.69041349615543,397.00228790994504 285.3904134961555,396.80228790994505 C 277.3904134961555,396.60228790994506 273.9904134961555,390.702287909945 271.69041349615543,384.202287909945 C 269.79041349615545,378.80228790994505 268.4904134961555,373.202287909945 266.4904134961555,367.80228790994505 C 264.9904134961555,363.60228790994506 263.3904134961555,359.202287909945 257.69041349615543,358.50228790994504 C 254.49041349615547,358.10228790994506 254.39041349615545,355.30228790994505 254.89041349615545,352.80228790994505 C 258.8904134961555,328.80228790994505 253.29041349615542,305.30228790994505 251.69041349615546,281.50228790994504 C 251.29041349615548,276.00228790994504 248.59041349615543,274.50228790994504 243.69041349615546,273.902287909945 C 228.39041349615545,271.902287909945 213.29041349615545,268.702287909945 198.59041349615546,263.902287909945 C 186.99041349615547,260.102287909945 176.29041349615545,255.00228790994504 166.79041349615545,247.00228790994504 C 153.89041349615545,236.20228790994503 136.49041349615544,241.50228790994504 131.29041349615545,257.402287909945 C 130.49041349615544,259.702287909945 129.69041349615546,262.00228790994504 128.39041349615545,264.00228790994504 C 120.69041349615546,276.30228790994505 113.09041349615543,288.702287909945 104.29041349615545,300.202287909945 C 101.89041349615545,303.30228790994505 99.59041349615546,306.702287909945 96.49041349615545,309.00228790994504 C 91.39041349615546,312.902287909945 89.49041349615545,317.902287909945 89.29041349615545,323.902287909945 C 88.99041349615545,334.50228790994504 88.29041349615545,345.102287909945 92.89041349615545,355.102287909945 C 95.29041349615545,360.302287909945 98.29041349615545,365.202287909945 103.19041349615546,368.702287909945 C 105.59041349615546,370.402287909945 107.79041349615545,372.702287909945 109.49041349615547,375.102287909945 C 111.89041349615547,378.602287909945 110.99041349615547,381.702287909945 107.09041349615546,383.002287909945 C 99.69041349615546,385.602287909945 91.89041349615546,386.602287909945 84.09041349615546,387.502287909945 C 80.59041349615546,387.90228790994496 78.39041349615546,385.90228790994496 77.29041349615547,382.70228790994497 C 72.19041349615547,367.20228790994497 66.99041349615547,351.802287909945 61.99041349615547,336.20228790994497 C 59.49041349615547,328.40228790994496 60.49041349615547,320.60228790994495 63.290413496155466,313.10228790994495 C 65.69041349615547,306.60228790994495 68.59041349615546,300.20228790994497 70.99041349615547,293.70228790994497 C 72.79041349615568,289.4022879099451 74.79041349615568,284.6022879099451 72.49041349615567,278.4022879099451"/>
</svg>
