<?xml version="1.0" ?>
<svg xmlns="http://www.w3.org/2000/svg" xmlns:ev="http://www.w3.org/2001/xml-events" xmlns:xlink="http://www.w3.org/1999/xlink" baseProfile="full" height="467" transform="scale(0.21413276231263384 0.21413276231263384) translate(-435.0 -233.5)" version="1.1" viewBox="0 0 870 467" width="870">
	<defs/>
	<path d="M 282.02606518621104,0.8696032968859413 C 287.9160651862111,0.4696032968859427 293.81606518621106,-0.5003967031140562 299.7260651862111,0.31960329688594413 C 331.59606518621104,2.1596032968859404 362.7260651862111,9.999603296885944 393.71606518621104,17.209603296885945 C 405.37606518621106,19.87960329688594 417.02606518621104,23.009603296885942 428.9860651862111,23.909603296885948 C 435.32606518621105,23.72960329688594 441.64606518621105,25.349603296885945 447.96606518621104,24.19960329688594 C 470.926065186211,23.629603296885946 493.49606518621107,17.849603296885938 514.8360651862112,9.58960329688594 C 525.0760651862112,5.799603296885941 536.0360651862111,2.6996032968859396 547.0360651862111,4.189603296885942 C 557.3060651862111,5.629603296885939 566.5260651862111,10.639603296885944 575.7360651862111,15.08960329688594 C 594.6160651862111,24.049603296885948 615.2960651862111,28.58960329688594 635.9860651862111,30.80960329688594 C 646.0060651862111,32.079603296885935 656.1560651862111,32.03960329688594 666.1060651862111,33.989603296885946 C 683.4160651862111,36.939603296885934 700.4660651862112,43.49960329688594 713.8760651862111,55.069603296885944 C 718.0960651862111,58.64960329688594 723.2460651862111,62.109603296885936 728.9960651862111,61.929603296885944 C 733.7960651862111,59.02960329688594 739.4760651862111,57.61960329688594 745.0760651862112,58.14960329688594 C 749.0360651862111,58.459603296885945 752.1360651862111,61.36960329688594 754.5860651862112,64.24960329688594 C 756.8360651862112,67.42960329688594 757.6560651862111,71.38960329688594 760.0460651862111,74.49960329688594 C 762.5660651862111,73.20960329688594 763.5860651862112,70.46960329688594 765.0660651862111,68.23960329688595 C 770.2060651862112,67.18960329688593 775.6060651862111,67.44960329688594 780.5260651862111,69.37960329688595 C 783.0860651862112,70.46960329688594 784.8660651862111,72.82960329688594 787.4860651862111,73.84960329688595 C 788.1160651862111,77.01960329688595 787.1660651862111,80.14960329688594 785.8560651862111,83.00960329688594 C 793.7760651862111,94.29960329688595 802.2060651862112,105.21960329688594 810.8860651862111,115.93960329688593 C 815.4760651862111,121.43960329688593 820.5560651862111,126.78960329688593 823.3860651862111,133.48960329688595 C 826.1060651862111,139.80960329688594 825.1460651862111,146.87960329688593 826.3560651862111,153.49960329688594 C 828.8560651862111,161.34960329688593 833.2860651862111,169.02960329688594 840.3360651862112,173.60960329688595 C 848.1960651862112,179.52960329688594 856.5560651862111,184.71960329688594 864.6060651862111,190.36960329688594 C 867.2260651862111,191.92960329688594 867.2360651862111,195.10960329688595 867.4560651862112,197.77960329688594 C 867.6560651862111,201.72960329688595 869.8860651862111,205.36960329688594 869.5160651862111,209.36960329688594 C 866.5960651862111,216.75960329688593 861.3460651862111,223.29960329688595 854.5460651862111,227.45960329688592 C 852.1660651862111,229.08960329688597 849.1360651862111,228.37960329688593 846.5760651862112,229.32960329688592 C 843.4160651862111,231.52960329688597 840.9060651862111,234.61960329688594 837.4060651862111,236.34960329688596 C 830.7960651862111,239.73960329688595 823.3860651862111,241.36960329688594 816.0160651862111,241.84960329688596 C 804.6660651862111,241.87960329688593 793.3060651862111,241.92960329688594 781.9560651862112,241.86960329688594 C 778.0960651862111,241.91960329688595 773.9760651862111,241.32960329688592 770.4360651862111,243.23960329688595 C 760.0960651862111,248.37960329688593 751.6760651862111,257.4496032968859 740.0860651862112,259.90960329688596 C 734.3860651862111,261.30960329688594 728.0960651862111,260.18960329688593 723.4760651862111,256.49960329688594 C 719.0760651862112,253.21960329688596 715.5060651862111,248.65960329688596 710.2660651862111,246.62960329688593 C 698.2660651862111,241.97960329688595 685.2460651862111,240.99960329688594 673.1160651862111,236.80960329688594 C 665.3460651862111,233.52960329688597 656.9360651862111,232.34960329688596 648.8960651862111,229.96960329688596 C 646.9760651862111,229.62960329688593 645.8660651862111,228.02960329688597 644.7960651862111,226.57960329688592 C 643.5260651862111,227.71960329688596 642.0760651862112,228.80960329688594 641.5060651862111,230.48960329688595 C 636.6860651862111,242.55960329688594 627.6960651862112,252.86960329688594 625.0060651862111,265.79960329688595 C 626.9760651862111,279.0096032968859 630.9360651862111,291.83960329688597 633.7560651862111,304.87960329688593 C 636.8560651862111,322.2596032968859 644.8260651862112,338.21960329688596 649.7760651862111,355.06960329688593 C 654.5260651862111,370.1496032968859 653.1860651862111,386.12960329688593 655.3260651862112,401.58960329688597 C 658.6460651862111,408.28960329688596 666.0060651862111,412.03960329688596 673.0160651862111,413.7096032968859 C 683.6860651862111,414.18960329688593 694.3960651862111,413.54960329688595 705.0760651862112,413.9496032968859 C 709.0360651862111,414.31960329688593 713.0060651862111,415.29960329688595 716.4060651862111,417.4596032968859 C 717.2560651862111,422.90960329688596 718.5660651862111,428.34960329688596 718.4560651862112,433.8996032968859 C 718.4660651862112,437.4496032968859 717.6960651862112,440.9496032968859 717.5560651862111,444.48960329688595 C 715.4960651862111,447.1396032968859 712.8160651862111,449.3896032968859 709.2360651862111,449.1496032968859 C 697.8360651862112,457.40960329688596 683.1660651862111,454.6396032968859 670.1060651862111,456.73960329688595 C 658.0560651862111,457.02960329688597 645.9960651862111,456.78960329688596 633.9360651862111,456.7696032968859 C 627.2560651862111,456.0796032968859 619.7660651862111,456.10960329688595 614.3560651862111,451.54960329688595 C 607.7660651862111,444.5196032968859 603.1460651862111,435.98960329688595 597.8160651862111,428.03960329688596 C 595.6860651862111,424.47960329688595 591.5260651862111,423.06960329688593 588.7760651862111,420.11960329688594 C 576.0660651862111,407.99960329688594 569.4960651862111,391.30960329688594 559.9960651862111,376.84960329688596 C 549.8060651862111,361.87960329688593 538.6060651862111,347.6396032968859 528.1360651862111,332.85960329688595 C 526.8660651862111,331.08960329688597 525.3160651862111,329.53960329688596 523.7660651862111,328.03960329688596 C 519.4860651862111,335.54960329688595 516.9260651862111,343.86960329688594 512.7160651862112,351.40960329688596 C 508.6960651862111,360.55960329688594 504.2160651862111,369.48960329688595 499.7360651862111,378.42960329688594 C 496.556065186211,385.1996032968859 493.296065186211,391.91960329688595 489.91606518621103,398.59960329688596 C 490.75606518621106,399.49960329688594 491.40606518621104,400.65960329688596 492.53606518621103,401.2696032968859 C 500.7260651862111,404.15960329688596 509.556065186211,402.35960329688595 517.9760651862111,403.74960329688594 C 523.4460651862112,404.0796032968859 528.4660651862112,406.46960329688596 533.4560651862112,408.5196032968859 C 539.4560651862112,411.23960329688595 545.5160651862111,413.9496032968859 550.9760651862111,417.67960329688594 C 552.7760651862111,418.84960329688596 554.6460651862111,420.96960329688596 553.8560651862111,423.28960329688596 C 553.1760651862111,424.81960329688593 552.1060651862111,426.12960329688593 551.0360651862111,427.3996032968859 C 550.9960651862111,427.97960329688595 550.9060651862111,429.11960329688594 550.8660651862111,429.6996032968859 C 548.1660651862111,432.49960329688594 544.3660651862111,433.58960329688597 540.6860651862111,434.40960329688596 C 538.8860651862111,437.77960329688597 534.6460651862111,437.06960329688593 531.4760651862111,437.9496032968859 C 528.1460651862111,441.1396032968859 523.1560651862111,440.35960329688595 518.9660651862112,441.03960329688596 C 517.3360651862112,441.73960329688595 515.8760651862111,443.29960329688595 513.9460651862112,442.84960329688596 C 510.62606518621106,442.24960329688594 507.39606518621105,440.68960329688593 503.9460651862111,441.1996032968859 C 499.12606518621106,441.96960329688596 494.2160651862111,441.6396032968859 489.40606518621104,442.40960329688596 C 483.5760651862111,443.31960329688593 477.75606518621106,441.92960329688594 471.9460651862111,441.58960329688597 C 458.296065186211,439.60960329688595 443.95606518621105,435.97960329688595 433.7960651862111,426.05960329688594 C 430.50606518621106,420.55960329688594 426.43606518621107,415.40960329688596 424.6660651862111,409.1496032968859 C 423.19606518621106,405.31960329688593 424.4760651862111,401.18960329688593 423.89606518621105,397.2596032968859 C 420.4260651862111,393.72960329688595 413.2960651862111,394.21960329688596 412.45606518621105,388.31960329688593 C 411.0460651862111,380.03960329688596 412.8560651862111,371.40960329688596 415.76606518621105,363.62960329688593 C 420.1160651862111,354.67960329688594 419.19606518621106,344.42960329688594 418.52606518621104,334.81960329688593 C 418.32606518621105,324.81960329688593 425.0460651862111,316.41960329688595 425.83606518621104,306.61960329688594 C 426.0560651862111,305.61960329688594 426.65606518621104,304.56960329688593 426.06606518621106,303.55960329688594 C 425.9760651862111,303.98960329688595 425.78606518621103,304.84960329688596 425.69606518621106,305.27960329688597 C 423.74606518621107,305.97960329688595 421.8060651862111,306.72960329688595 420.00606518621106,307.7696032968859 C 401.51606518621105,318.48960329688595 379.09606518621104,320.98960329688595 358.2360651862111,317.53960329688596 C 352.77606518621104,316.79960329688595 347.6760651862111,314.4496032968859 342.1660651862111,314.02960329688597 C 342.4160651862111,318.91960329688595 344.9860651862111,323.18960329688593 346.21606518621104,327.83960329688597 C 348.28606518621103,335.2696032968859 349.75606518621106,343.05960329688594 348.58606518621104,350.7696032968859 C 346.8060651862111,363.67960329688594 344.77606518621104,376.77960329688597 346.7360651862111,389.79960329688595 C 347.00606518621106,400.06960329688593 348.20606518621105,410.29960329688595 349.50606518621106,420.47960329688595 C 351.27606518621104,423.0796032968859 355.26606518621105,422.8996032968859 358.1060651862111,422.72960329688595 C 367.46606518621104,420.98960329688595 377.40606518621104,421.03960329688596 386.38606518621106,424.48960329688595 C 389.13606518621106,425.55960329688594 391.3060651862111,427.60960329688595 393.49606518621107,429.52960329688597 C 393.7260651862111,435.80960329688594 392.96606518621104,442.08960329688597 393.40606518621104,448.37960329688593 C 393.8060651862111,448.52960329688597 394.6160651862111,448.8296032968859 395.01606518621105,448.97960329688595 C 391.43606518621107,451.2696032968859 389.12606518621106,455.09960329688596 385.4160651862111,457.24960329688594 C 381.3660651862111,460.11960329688594 376.2960651862111,460.60960329688595 371.9260651862111,462.77960329688597 C 369.27606518621104,463.98960329688595 366.37606518621106,464.48960329688595 363.53606518621103,465.0096032968859 C 361.8660651862111,466.05960329688594 360.08606518621104,467.16960329688595 358.01606518621105,466.91960329688595 C 344.6660651862111,466.71960329688596 331.31606518621106,467.0096032968859 317.9760651862111,466.78960329688596 C 303.4760651862111,465.4496032968859 287.90606518621104,465.71960329688596 275.1060651862111,457.71960329688596 C 266.59606518621104,452.77960329688597 260.6760651862111,444.16960329688595 258.13606518621106,434.7596032968859 C 255.35606518621108,424.58960329688597 249.25606518621106,415.85960329688595 243.45606518621105,407.22960329688595 C 236.85606518621108,397.58960329688597 232.76606518621105,386.56960329688593 227.85606518621108,376.03960329688596 C 223.08606518621104,365.58960329688597 217.06606518621106,354.81960329688593 217.99606518621107,342.91960329688595 C 217.84606518621104,339.81960329688593 218.87606518621106,335.9596032968859 216.20606518621105,333.62960329688593 C 212.53606518621103,330.54960329688595 207.05606518621107,330.74960329688594 203.7260651862111,327.1396032968859 C 200.95606518621105,324.08960329688597 197.43606518621107,321.55960329688594 195.56606518621106,317.79960329688595 C 194.77606518621104,326.79960329688595 190.17606518621108,334.80960329688594 185.70606518621105,342.43960329688593 C 177.93606518621107,351.73960329688595 168.14606518621105,358.99960329688594 159.13606518621106,366.99960329688594 C 154.16606518621109,371.09960329688596 149.44606518621106,375.61960329688594 143.68606518621107,378.62960329688593 C 127.77606518621108,387.23960329688595 110.44606518621107,392.8296032968859 93.14606518621106,397.90960329688596 C 89.55606518621109,399.3296032968859 87.88606518621107,403.31960329688593 87.12606518621108,406.84960329688596 C 86.82606518621107,410.10960329688595 86.29606518621107,414.37960329688593 89.35606518621107,416.56960329688593 C 93.86606518621109,419.36960329688594 99.44606518621107,418.81960329688593 104.40606518621108,420.28960329688596 C 107.43606518621108,425.8896032968859 108.90606518621108,432.60960329688595 106.75606518621107,438.78960329688596 C 105.99606518621108,442.24960329688594 103.47606518621107,444.84960329688596 101.99606518621108,447.97960329688595 C 95.11606518621109,452.17960329688594 86.87606518621108,453.1396032968859 79.01606518621107,453.8996032968859 C 65.64606518621106,453.85960329688595 52.65606518621108,449.22960329688595 40.98606518621108,442.9596032968859 C 35.426065186211076,439.78960329688596 29.826065186211068,436.18960329688593 26.04606518621108,430.8996032968859 C 19.26606518621108,421.87960329688593 14.726065186211073,411.4596032968859 9.15606518621108,401.7096032968859 C 6.356065186211069,396.7596032968859 2.2360651862110785,392.4596032968859 0.856065186211076,386.80960329688594 C -1.3239348137889237,380.03960329688596 1.0460651862110808,372.8896032968859 3.646065186211075,366.58960329688597 C 10.096065186211078,352.49960329688594 19.866065186211074,340.31960329688593 29.226065186211073,328.09960329688596 C 39.146065186211075,315.11960329688594 51.38606518621107,304.21960329688596 62.27606518621107,292.10960329688595 C 66.61606518621109,286.0096032968859 67.32606518621107,278.15960329688596 67.28606518621108,270.8896032968859 C 67.46606518621108,263.10960329688595 65.50606518621107,255.52960329688597 64.82606518621107,247.81960329688593 C 62.98606518621108,235.87960329688593 64.52606518621107,223.81960329688593 65.31606518621108,211.85960329688595 C 66.46606518621108,203.10960329688595 67.36606518621109,194.26960329688595 69.83606518621109,185.76960329688595 C 72.40606518621108,176.62960329688593 76.49606518621108,168.02960329688594 80.70606518621106,159.55960329688594 C 83.42606518621106,154.33960329688594 84.29606518621107,147.49960329688594 81.78606518621108,142.11960329688594 C 76.10606518621107,136.59960329688593 72.93606518621108,128.79960329688595 72.96606518621108,120.89960329688594 C 73.05606518621109,115.42960329688594 72.19606518621107,109.64960329688594 74.57606518621107,104.51960329688595 C 78.08606518621109,96.57960329688595 85.15606518621108,91.01960329688595 91.96606518621108,85.99960329688594 C 110.87606518621108,72.70960329688594 129.6560651862111,59.16960329688594 149.56606518621106,47.38960329688594 C 175.75606518621106,32.69960329688594 202.13606518621106,17.639603296885944 230.99606518621107,8.799603296885941 C 247.54606518621108,3.6996032968859396 264.88606518621106,2.3796032968859393 282.02606518621104,0.8696032968859413" fill="#000000" opacity="1.00"/>
</svg>
