<?xml version="1.0" ?>
<svg xmlns="http://www.w3.org/2000/svg" xmlns:ev="http://www.w3.org/2001/xml-events" xmlns:inkscape="http://www.inkscape.org/namespaces/inkscape" xmlns:sodipodi="http://sodipodi.sourceforge.net/DTD/sodipodi-0.dtd" xmlns:svg="http://www.w3.org/2000/svg" xmlns:xlink="http://www.w3.org/1999/xlink" baseProfile="full" height="422" id="Layer_1" inkscape:version="1.2.2 (1:1.2.2+202212051550+b0a8486541)" sodipodi:docname="bear10.svg" transform="scale(0.23696682464454977 0.23696682464454977) translate(-352.5 -211.0)" version="1.1" viewBox="0 0 705 422" width="705" x="0px" xml:space="preserve" y="0px">
	<defs/>
	<path d="M 397.48116001744893,280.5789100258155 C 394.79116001744893,306.7289100258155 391.2511600174489,332.8289100258155 389.7411600174489,359.0489100258155 C 388.8811600174489,374.0289100258155 401.98116001744893,381.1689100258155 412.3311600174489,388.98891002581547 C 415.8811600174489,391.6689100258155 420.8711600174489,392.5989100258155 424.0711600174489,395.55891002581546 C 427.0511600174489,398.31891002581546 430.8411600174489,403.26891002581544 430.1211600174489,406.2289100258155 C 429.03116001744894,410.67891002581547 424.84116001744894,416.99891002581546 421.03116001744894,417.74891002581546 C 392.45116001744896,423.3589100258155 363.70116001744896,423.44891002581545 335.621160017449,414.7289100258155 C 324.491160017449,411.2689100258155 320.991160017449,400.75891002581545 318.69116001744896,390.55891002581546 C 312.19116001744896,361.73891002581547 305.931160017449,332.86891002581547 299.89116001744895,303.94891002581545 C 297.63116001744896,293.12891002581546 296.28116001744894,282.12891002581546 294.32116001744896,270.0489100258155 C 271.33116001744895,270.0489100258155 248.11116001744898,270.0489100258155 224.491160017449,270.0489100258155 C 222.281160017449,296.1589100258155 211.661160017449,318.6689100258155 197.66116001744902,339.7789100258155 C 192.96116001744903,346.86891002581547 191.981160017449,351.6689100258155 201.63116001744902,355.73891002581547 C 209.88116001744902,359.2189100258155 217.43116001744903,364.56891002581546 224.861160017449,369.7089100258155 C 235.41116001744902,377.0089100258155 235.271160017449,385.1489100258155 223.771160017449,389.4489100258155 C 199.461160017449,398.5389100258155 174.301160017449,397.4489100258155 150.241160017449,389.2889100258155 C 136.581160017449,384.6589100258155 129.29116001744902,372.5889100258155 129.401160017449,357.24891002581546 C 129.51116001744901,342.5489100258155 129.421160017449,327.8489100258155 129.421160017449,313.1589100258155 C 127.741160017449,312.48891002581547 126.051160017449,311.8289100258155 124.37116001744901,311.1589100258155 C 115.32116001744902,324.7989100258155 105.87116001744901,338.2189100258155 97.62116101744901,352.3289100258155 C 96.35116101744902,354.5089100258155 99.62116101744901,360.9389100258155 102.48116001744901,363.6189100258155 C 108.99116001744902,369.7089100258155 117.59116001744901,373.7689100258155 123.41116001744902,380.34891002581554 C 131.22116001744902,389.1889100258155 128.46116001744903,396.6189100258155 117.39116001744902,401.34891002581554 C 97.94116101744902,409.66891002581553 77.66116101744902,406.97891002581554 57.65116101744903,405.16891002581553 C 33.64116101744902,402.9989100258155 20.35116101744903,387.3689100258155 21.49116101744903,362.84891002581554 C 22.74116101744903,336.1189100258155 25.911161017449032,309.45891002581556 26.39116101744903,282.72891002581554 C 26.67116101744903,267.40891002581554 24.62116101744903,251.70891002581556 21.21116101744903,236.73891002581556 C 16.20116101744903,214.73891002581556 7.351161217449028,193.54891002581556 3.1111612174490295,171.44891002581554 C -5.90883878255097,124.45891002581553 3.6911612174490296,83.71890802581552 45.03116101744903,53.46890802581553 C 73.82116101744903,32.39890802581553 102.81116001744903,9.558908025815533 138.16116001744902,5.348908025815533 C 167.671160017449,1.8289080258155326 198.85116001744902,6.928908025815533 228.59116001744903,12.168908025815533 C 265.421160017449,18.658908025815535 300.651160017449,20.42890802581553 336.581160017449,6.798908025815533 C 369.30116001744904,-5.611091974184467 402.011160017449,-0.8110919441844668 430.67116001744904,19.38890802581553 C 467.41116001744905,45.29890802581553 509.2611600174491,48.948908025815534 551.8611600174492,50.48890802581553 C 555.1511600174491,50.60890802581553 559.2511600174491,47.728908025815535 561.8211600174492,45.10890802581553 C 572.8711600174491,33.80890802581553 589.3811600174491,37.11890802581553 595.6611600174492,51.64890802581553 C 597.5211600174492,55.94890802581553 601.5711600174492,59.66890802581553 605.3711600174493,62.698908025815534 C 619.8111600174493,74.22890802581554 634.6011600174493,85.31890802581555 649.1211600174493,96.75890802581554 C 650.5011600174493,97.84890802581555 651.6711600174492,100.24891002581555 651.5811600174493,101.96891002581555 C 650.6511600174493,118.71891002581555 661.7711600174493,127.05891002581555 674.0511600174493,134.51891002581553 C 681.4311600174493,138.99891002581552 689.0711600174493,143.03891002581554 696.5811600174493,147.29891002581553 C 705.2611600174492,152.21891002581552 706.1711600174493,158.30891002581552 700.6011600174493,166.62891002581554 C 684.4411600174493,190.76891002581553 657.0511600174493,202.34891002581554 628.5711600174493,196.30891002581555 C 621.7411600174493,194.85891002581556 614.9811600174493,193.02891002581555 608.2611600174494,191.09891002581554 C 595.7511600174494,187.51891002581553 585.9811600174494,190.35891002581553 575.5211600174493,199.05891002581555 C 568.7411600174494,204.68891002581555 556.3211600174493,208.32891002581556 548.1011600174494,206.24891002581555 C 537.7711600174493,203.63891002581553 525.9711600174494,209.32891002581556 516.6211600174494,200.56891002581554 C 515.4511600174494,199.47891002581554 507.29116001744933,202.89891002581555 505.4311600174493,206.03891002581554 C 499.0811600174493,216.79891002581553 490.59116001744934,227.96891002581555 489.28116001744934,239.69891002581554 C 485.9911600174493,269.0289100258155 485.78116001744934,298.72891002581554 485.15116001744934,328.3089100258155 C 484.7311600174493,348.09891002581554 488.83116001744935,352.22891002581554 507.6111600174493,360.1189100258155 C 516.1911600174494,363.72891002581554 524.7311600174494,368.53891002581554 531.6811600174494,374.6389100258155 C 542.6011600174494,384.2089100258155 539.4611600174494,397.6889100258155 525.4911600174494,400.6189100258155 C 497.15116001744934,406.5589100258155 468.8711600174493,403.27891002581555 441.46116001744934,395.10891002581553 C 436.12116001744937,393.51891002581556 430.6811600174494,385.79891002581553 428.90116001744934,379.82891002581556 C 421.50116001744937,355.0489100258156 415.58116001744935,329.81891002581557 408.89116001744935,304.81891002581557 C 406.62116001744937,296.32891002581556 403.6711600174493,288.02891002581555 401.04116001744933,279.63891002581556 C 399.85116001744933,279.97891002581554 398.6711600174493,280.27891002581555 397.4811600174493,280.57891002581556 L 397.48116001744893,280.5789100258155" id="path2"/>
</svg>
