<?xml version="1.0" ?>
<svg xmlns="http://www.w3.org/2000/svg" xmlns:ev="http://www.w3.org/2001/xml-events" xmlns:inkscape="http://www.inkscape.org/namespaces/inkscape" xmlns:sodipodi="http://sodipodi.sourceforge.net/DTD/sodipodi-0.dtd" xmlns:svg="http://www.w3.org/2000/svg" xmlns:xlink="http://www.w3.org/1999/xlink" baseProfile="full" height="382" id="Layer_1" inkscape:version="1.2.2 (1:1.2.2+202212051550+b0a8486541)" sodipodi:docname="bear11.svg" transform="scale(0.2617801047120419 0.2617801047120419) translate(-356.5 -191.0)" version="1.1" viewBox="0 0 713 382" width="713" x="0px" xml:space="preserve" y="0px">
	<defs/>
	<path d="M 507.8073499671415,341.22380999173436 C 505.95734996714145,323.73380999173435 496.63734996714146,307.1438099917344 486.0473499671415,290.99380999173434 C 480.44734996714146,282.4538099917343 475.9973499671415,273.03380999173436 469.5773499671415,265.1938099917343 C 464.9473499671415,259.5338099917343 458.5073499671415,253.18380999173434 451.8773499671415,251.76380999173432 C 434.2773499671415,248.00380999173433 416.1473499671415,246.76380999173432 397.10734996714154,244.37380999173433 C 397.10734996714154,250.53380999173433 397.16734996714155,255.69380999173433 397.09734996714155,260.85380999173435 C 396.72734996714155,287.98380999173435 399.14734996714157,315.52380999173437 395.2573499671416,342.1438099917344 C 390.1273499671416,377.27380999173437 381.1973499671416,382.78380999173436 350.5973499671416,381.79380999173435 C 336.6073499671416,381.34380999173436 322.6173499671416,380.73380999173435 308.6473499671416,379.87380999173433 C 304.80734996714165,379.6338099917343 301.0373499671416,378.22380999173436 295.5373499671416,376.9638099917343 C 303.32734996714163,362.1738099917343 314.7473499671416,356.1738099917343 328.5373499671416,353.6338099917343 C 342.8773499671416,350.98380999173435 347.2273499671416,346.29380999173435 343.2673499671416,332.0938099917343 C 338.7673499671416,315.9538099917343 332.13734996714163,300.3538099917343 325.74734996714164,284.8038099917343 C 321.22734996714166,273.7938099917343 315.55734996714165,263.2538099917343 310.40734996714167,252.50380999173427 C 306.30734996714165,243.96380999173428 297.54734996714166,243.02380999173428 292.5673499671417,250.95380999173426 C 264.1373499671417,296.27380999173425 226.68734996714173,332.83380999173426 183.93730996714172,364.51380999173426 C 172.18730996714172,373.22380999173424 160.3273099671417,378.69380999173427 145.29730996714173,377.21380999173425 C 130.57730996714173,375.76380999173426 115.70730996714171,375.82380999173427 100.93730996714172,374.77380999173425 C 98.01730796714172,374.5638099917343 92.99730796714171,372.5638099917343 92.85730796714172,371.03380999173424 C 92.57730796714172,367.92380999173423 94.16730796714172,363.82380999173427 96.38730796714172,361.4338099917342 C 105.58730996714172,351.53380999173424 116.13730996714172,343.5638099917342 130.74730996714175,345.34380999173425 C 144.52730996714175,347.02380999173425 152.34730996714174,340.7438099917342 156.77730996714175,328.21380999173425 C 165.81730996714174,302.66380999173424 175.26730996714176,277.27380999173425 184.43730996714174,251.77380999173425 C 188.47730996714174,240.54380999173426 186.43730996714174,231.19380999173427 179.37730996714174,220.73380999173426 C 171.30730996714175,208.77380999173425 165.45730996714175,194.72380999173427 161.49730996714175,180.76380999173426 C 158.29730996714176,169.47380999173427 152.67730996714175,164.67380999173426 141.81730996714174,162.17380999173426 C 109.16730996714172,154.66380999173427 76.31730796714173,150.24380999173425 42.757307967141735,151.81380999173427 C 26.657307967141733,152.56380999173427 14.167307967141733,145.72380999173427 4.437307667141736,133.15380999173428 C -2.1926923328582637,124.59380999173429 -1.5026923328582642,116.3538099917343 7.247307667141737,109.75380999173429 C 13.477307967141737,105.05380999173428 20.40730796714174,101.27380999173428 26.61730796714174,96.55381299173429 C 35.45730796714174,89.82381299173429 44.10730796714174,83.02381299173429 44.807307967141746,70.18381299173429 C 44.987307967141746,66.85381299173429 48.557307967141746,62.92381099173428 51.60730796714174,60.66381099173428 C 60.85730796714174,53.81381099173428 70.93730796714173,48.06381099173428 80.03730796714173,41.03381099173428 C 85.16730796714172,37.07381099173428 88.42730796714173,30.683810991734276 93.59730796714173,26.81381099173428 C 97.85730796714174,23.62381099173428 105.30730996714173,19.363810991734283 108.56730996714172,21.02381099173428 C 129.62730996714174,31.77381099173428 151.60730996714173,26.41381099173428 172.59730996714174,24.37381099173428 C 190.55730996714175,22.62381099173428 208.92730996714172,16.503810991734284 225.23734996714174,8.493810891734283 C 250.24734996714173,-3.776189108265717 273.4273499671417,-2.216189108265718 297.27734996714173,9.723810891734283 C 305.3573499671417,13.773810991734283 313.5473499671417,17.613810991734283 321.82734996714174,21.23381099173428 C 339.73734996714177,29.073810991734284 357.29734996714177,24.01381099173428 374.9773499671417,19.76381099173428 C 398.9373499671417,14.013810991734283 422.7973499671417,7.363810891734284 447.08734996714173,3.6138108917342837 C 474.3473499671417,-0.5961891182657162 501.27734996714173,4.073810891734284 527.0773499671418,13.943810991734283 C 548.1973499671418,22.02381099173428 569.7973499671418,29.243810991734286 590.0073499671417,39.22381099173428 C 617.9673499671418,53.04381099173428 631.9973499671418,78.3238129917343 641.0573499671417,107.31380999173429 C 649.9573499671417,135.81380999173427 652.5673499671417,165.28380999173427 649.0873499671417,194.07380999173427 C 644.3973499671416,232.87380999173428 661.3473499671417,259.54380999173424 688.2473499671416,283.1138099917343 C 689.7973499671416,284.4738099917343 691.4573499671417,285.7338099917343 692.8073499671416,287.2838099917343 C 700.6773499671416,296.3138099917343 713.8973499671416,302.4538099917343 711.9173499671416,317.1538099917343 C 709.2473499671416,336.9938099917343 700.4673499671416,355.3638099917343 684.7373499671417,366.7738099917343 C 675.0573499671417,373.8038099917343 659.9773499671417,374.0238099917343 647.1173499671416,375.8438099917343 C 637.8373499671417,377.1538099917343 628.1973499671417,376.4138099917343 618.7673499671416,375.8338099917343 C 615.5173499671416,375.6338099917343 610.0973499671417,373.5738099917343 609.7273499671417,371.6038099917343 C 609.0873499671417,368.1738099917343 610.5873499671417,363.1838099917343 613.0473499671417,360.63380999173427 C 616.5973499671417,356.9338099917343 621.5973499671417,354.38380999173427 626.3473499671417,352.1238099917343 C 633.7673499671416,348.5938099917343 641.9273499671417,346.46380999173425 648.9173499671417,342.2938099917343 C 652.9973499671418,339.8538099917343 657.3673499671418,334.8538099917343 657.9173499671417,330.5338099917343 C 658.3373499671417,327.3238099917343 653.2873499671417,322.8138099917343 649.8473499671417,319.8638099917343 C 646.8173499671417,317.2738099917343 642.7373499671417,315.7838099917343 638.9373499671417,314.2338099917343 C 613.6873499671417,303.8938099917343 589.8273499671417,291.3738099917343 571.5073499671416,270.0038099917343 C 570.3573499671417,270.3638099917343 569.2073499671417,270.7338099917343 568.0573499671416,271.09380999173425 C 565.8873499671416,289.21380999173425 563.2673499671416,307.29380999173424 561.7173499671416,325.46380999173425 C 560.7373499671415,336.92380999173423 561.4873499671415,348.51380999173426 561.2473499671415,360.04380999173424 C 561.0573499671415,369.1938099917342 556.7773499671415,374.73380999173423 547.0773499671416,375.23380999173423 C 521.5973499671416,376.5538099917342 496.1273499671415,378.34380999173425 470.6373499671415,378.95380999173426 C 465.7773499671415,379.07380999173427 460.80734996714153,374.6138099917343 455.8873499671415,372.26380999173426 C 458.7673499671415,367.76380999173426 460.61734996714154,361.19380999173427 464.7173499671415,359.13380999173427 C 477.6973499671415,352.63380999173427 491.4973499671415,347.83380999173426 507.80734996714153,341.22380999173424 L 507.8073499671415,341.22380999173436" id="path4"/>
</svg>
