<?xml version="1.0" ?>
<svg xmlns="http://www.w3.org/2000/svg" xmlns:ev="http://www.w3.org/2001/xml-events" xmlns:xlink="http://www.w3.org/1999/xlink" baseProfile="full" clip-rule="evenodd" fill-rule="evenodd" height="243" image-rendering="optimizeQuality" shape-rendering="geometricPrecision" text-rendering="geometricPrecision" transform="scale(0.411522633744856 0.411522633744856) translate(-153.0 -121.5)" version="1.1" viewBox="0 0 306 243" width="306" xml:space="preserve">
	<defs/>
	<path d="M 252.76565324423197,13.57323504426302 L 252.85565324423197,13.54323504426302 C 272.96565324423193,11.13323504426302 286.94565324423195,15.86323504426302 293.8456532442319,27.40323504426302 C 300.29565324423197,38.18323504426302 304.30565324423196,54.60323504426302 303.95565324423194,68.79323504426303 C 303.17565324423197,78.26323504426303 303.36565324423196,75.89323504426302 302.6556532442319,85.36323504426302 C 300.48565324423197,114.21323504426302 300.27565324423193,117.83323504426302 300.71565324423193,119.22323504426302 L 302.17565324423197,122.21323504426302 C 305.165653244232,128.293235044263 305.45565324423194,131.173235044263 305.27565324423193,152.763235044263 C 305.31565324423195,155.08323504426303 305.30565324423196,154.50323504426302 305.33565324423193,156.82323504426301 L 305.0356532442319,164.44323504426302 C 304.63565324423195,164.28323504426302 300.67565324423197,162.18323504426303 300.50565324423195,162.043235044263 C 299.105653244232,160.78323504426302 299.165653244232,160.893235044263 297.6556532442319,156.93323504426303 C 297.30565324423196,156.08323504426303 296.81565324423195,155.69323504426302 296.43565324423196,155.94323504426302 C 296.24565324423196,156.07323504426301 296.17565324423197,158.33323504426303 296.29565324423197,160.44323504426302 C 296.3456532442319,161.263235044263 296.07565324423194,161.72323504426302 295.55565324423196,161.71323504426303 C 294.61565324423196,161.68323504426303 293.48565324423197,158.77323504426303 292.95565324423194,154.983235044263 C 292.2856532442319,150.143235044263 291.71565324423193,136.59323504426303 291.93565324423196,130.763235044263 C 292.04565324423197,127.87323504426303 291.68565324423196,129.31323504426302 294.43565324423196,120.66323504426302 C 295.23565324423197,118.16323504426302 295.165653244232,119.90323504426303 294.89565324423194,108.48323504426303 C 294.48565324423197,90.75323504426302 294.5956532442319,95.18323504426303 294.14565324423194,77.46323504426302 C 294.06565324423195,77.06323504426302 293.68565324423196,76.85323504426302 293.30565324423196,77.00323504426302 C 292.83565324423193,77.18323504426303 292.80565324423196,77.34323504426303 290.70565324423194,90.81323504426302 L 286.355653244232,118.68323504426303 C 285.6556532442319,123.13323504426302 286.225653244232,121.16323504426302 282.36565324423196,132.453235044263 C 279.38565324423195,141.203235044263 279.36565324423196,142.36323504426304 281.5356532442319,181.37323504426303 L 284.06565324423195,226.72323504426302 C 284.1556532442319,229.49323504426303 284.02565324423193,229.673235044263 281.30565324423196,230.53323504426302 C 280.48565324423197,230.82323504426301 280.52565324423193,230.68323504426303 280.38565324423195,233.203235044263 C 279.93565324423196,240.90323504426303 271.19565324423195,244.143235044263 258.75565324423195,241.233235044263 C 255.97565324423198,240.58323504426303 255.14565324423197,239.953235044263 255.73565324423197,238.93323504426303 C 256.3456532442319,237.94323504426302 257.13565324423195,236.84323504426303 257.70565324423194,236.19323504426302 C 258.225653244232,235.59323504426303 258.11565324423196,235.22323504426302 257.31565324423195,234.78323504426302 C 253.13565324423197,232.953235044263 252.22565324423198,232.12323504426303 252.92565324423197,230.74323504426303 L 254.59565324423198,228.41323504426302 C 258.49565324423196,222.99323504426303 259.355653244232,221.02323504426303 261.01565324423194,213.78323504426302 C 262.6556532442319,206.62323504426303 262.68565324423196,209.013235044263 260.8456532442319,197.013235044263 C 259.77565324423193,190.013235044263 259.89565324423194,192.25323504426302 259.71565324423193,175.65323504426303 C 259.64565324423194,169.393235044263 258.50565324423195,163.16323504426302 256.355653244232,157.263235044263 L 254.29565324423197,152.703235044263 C 246.70565324423197,160.013235044263 247.69565324423198,158.19323504426302 247.35565324423197,165.40323504426303 C 247.01565324423197,168.043235044263 245.555653244232,169.263235044263 243.69565324423198,168.453235044263 C 243.01565324423197,167.93323504426303 243.185653244232,168.06323504426302 242.50565324423198,167.543235044263 C 241.41565324423198,166.77323504426303 241.41565324423198,166.77323504426303 239.85565324423197,166.85323504426302 C 238.085653244232,166.88323504426302 237.525653244232,165.08323504426303 238.085653244232,161.08323504426303 C 238.32565324423197,159.44323504426302 237.935653244232,159.00323504426302 236.28565324423198,159.02323504426303 C 227.95565324423197,158.93323504426303 226.75565324423198,159.12323504426303 224.72565324423198,160.82323504426301 L 223.60565324423197,162.983235044263 C 223.31565324423198,163.46323504426303 223.48565324423197,163.33323504426303 222.37565324423198,163.893235044263 C 222.055653244232,164.07323504426301 222.185653244232,163.81323504426302 221.42565324423197,165.72323504426302 C 220.715653244232,167.34323504426303 218.525653244232,167.643235044263 216.98565324423197,166.34323504426303 C 216.41565324423198,165.793235044263 216.40565324423198,165.72323504426302 216.365653244232,162.83323504426303 C 215.995653244232,157.59323504426303 216.23565324423197,158.52323504426303 214.63565324423197,156.263235044263 C 213.56565324423198,155.71323504426303 213.835653244232,155.85323504426302 212.76565324423197,155.31323504426302 C 210.53565324423198,154.09323504426303 210.40565324423198,153.96323504426303 206.37565324423198,149.05323504426303 C 205.13565324423197,147.53323504426302 206.15565324423198,148.31323504426302 199.20565324423197,143.58323504426303 C 197.64565324423197,142.513235044263 198.215653244232,142.60323504426302 195.23565324423197,142.99323504426303 L 161.70565324423197,144.38323504426302 C 160.585653244232,149.25323504426302 161.16565324423198,145.97323504426302 157.60565324423197,167.393235044263 C 156.17565324423197,175.97323504426302 156.20565324423197,175.32323504426301 157.00565324423198,184.423235044263 C 157.25565324423198,187.16323504426302 157.32565324423197,184.983235044263 156.50565324423198,199.703235044263 C 156.055653244232,207.793235044263 156.04565324423197,214.32323504426301 156.465653244232,217.06323504426302 C 157.35565324423197,220.86323504426304 157.13565324423197,219.91323504426302 157.995653244232,223.71323504426303 C 158.965653244232,228.013235044263 158.69565324423198,229.013235044263 156.39565324423197,229.61323504426304 C 155.805653244232,229.763235044263 155.50565324423198,230.08323504426303 155.50565324423198,230.55323504426303 C 155.50565324423198,230.77323504426303 155.39565324423197,230.56323504426302 156.26565324423197,231.99323504426303 C 157.38565324423197,233.83323504426303 157.37565324423198,234.93323504426303 156.22565324423198,236.94323504426302 C 154.20565324423197,240.46323504426303 152.14565324423197,242.143235044263 149.615653244232,242.30323504426303 C 140.04565324423197,242.41323504426302 142.435653244232,242.393235044263 132.85565324423197,242.49323504426303 C 134.745653244232,238.33323504426303 134.09565324423198,239.41323504426302 137.40565324423198,234.99323504426303 C 140.91565324423198,230.31323504426302 141.365653244232,229.043235044263 141.85565324423197,222.513235044263 C 142.34565324423198,215.93323504426303 142.15565324423198,202.59323504426303 141.53565324423198,199.58323504426303 C 140.85565324423197,196.91323504426302 141.025653244232,197.58323504426303 140.365653244232,194.90323504426303 C 138.03565324423198,185.40323504426303 137.59565324423198,180.84323504426303 137.63565324423197,167.05323504426303 C 137.64565324423197,163.40323504426303 137.47565324423198,161.84323504426303 136.76565324423197,159.13323504426302 L 135.745653244232,155.233235044263 L 126.21565324423197,173.62323504426303 C 120.29565324423199,185.05323504426303 119.10565324423197,194.043235044263 121.31565324423198,210.90323504426303 C 122.30565324423198,218.47323504426302 122.82565324423197,221.05323504426303 124.46565324423197,226.31323504426302 C 125.07565324423197,228.47323504426302 124.49565324423197,229.393235044263 122.21565324423197,229.893235044263 C 121.37565324423198,230.03323504426302 121.86565324423198,230.07323504426301 118.80565324423198,229.58323504426303 C 117.75565324423198,229.46323504426303 117.26565324423198,229.55323504426303 117.06565324423198,229.90323504426303 C 116.93565324423199,230.13323504426302 116.88565324423197,229.86323504426304 117.41565324423198,231.74323504426303 C 118.06565324423198,234.393235044263 117.79565324423199,238.263235044263 116.88565324423197,239.31323504426302 C 114.16565324423198,242.18323504426303 105.71565324423197,242.88323504426302 99.43565324423199,240.763235044263 C 98.23565324423198,240.35323504426302 97.31565324423198,240.013235044263 96.15565324423198,239.53323504426302 L 102.25565324423198,230.49323504426303 C 103.51565324423198,228.22323504426302 104.28565324423198,225.74323504426303 106.02565324423198,218.35323504426302 C 106.69565324423198,215.543235044263 106.90565324423198,218.293235044263 104.55565324423198,199.11323504426304 C 103.35565324423197,189.35323504426302 103.49565324423197,192.80323504426303 103.61565324423198,174.91323504426302 C 103.71565324423197,160.41323504426302 103.55565324423198,158.74323504426303 101.84565324423198,156.80323504426303 C 101.42565324423198,156.36323504426304 101.90565324423198,156.65323504426303 98.47565324423198,154.80323504426303 C 97.16565324423198,154.05323504426303 96.46565324423197,152.74323504426303 96.43565324423199,150.94323504426302 C 96.32565324423197,145.37323504426303 95.13565324423197,143.10323504426302 87.81565324423198,134.50323504426302 C 79.75565324423198,125.04323504426303 77.58565324423198,119.91323504426302 75.81565324423198,106.11323504426302 C 74.88565324423197,98.84323504426303 72.36565324423198,93.02323504426302 69.46565324423197,91.44323504426302 C 65.84565324423198,89.48323504426303 64.76565324423198,88.39323504426302 63.01565324423198,84.91323504426302 L 59.64565324423198,87.38323504426302 C 56.305653244231976,88.84323504426303 47.44565324423198,88.20323504426302 38.07565324423198,85.82323504426301 C 33.79565324423198,84.73323504426303 32.39565324423198,80.63323504426302 33.61565324423198,72.77323504426302 C 34.28565324423198,68.43323504426303 35.42565324423198,65.96323504426302 37.07565324423198,65.28323504426302 C 39.38565324423198,64.32323504426301 39.37565324423198,64.50323504426302 37.77565324423198,51.843235044263025 C 37.00565324423198,45.76323504426302 37.40565324423198,47.48323504426302 34.93565324423198,39.80323504426302 C 33.90565324423198,36.593235044263025 33.45565324423198,33.18323504426302 33.485653244231976,28.733235044263022 L 28.265653244231977,32.10323504426302 C 22.095653244231976,34.96323504426302 16.555653244231976,33.07323504426302 4.705653244231977,24.033235044263023 C -0.01434675576802345,20.43323504426302 -0.06434675576802346,20.353235044263023 0.015653244231976553,16.74323504426302 C 0.005653244231976551,14.60323504426302 0.19565324423197655,14.37323504426302 3.9356532442319767,12.19323504426302 C 11.615653244231975,7.71323504426302 18.465653244231977,7.99323504426302 28.205653244231975,13.19323504426302 C 29.935653244231975,14.12323504426302 29.405653244231974,13.99323504426302 31.915653244231976,14.10323504426302 C 32.27565324423198,14.11323504426302 32.40565324423198,14.12323504426302 32.77565324423198,14.11323504426302 C 31.965653244231977,6.17323504426302 31.965653244231977,7.31323504426302 32.77565324423198,6.15323504426302 C 33.235653244231976,5.50323504426302 32.72565324423198,5.66323504426302 36.305653244231976,4.97323504426302 C 38.67565324423198,4.45323504426302 37.57565324423198,4.93323504426302 43.99565324423198,1.6432350442630201 C 46.82565324423198,0.19323504426302024 51.24565324423198,-0.20676495573697976 61.12565324423198,0.09323504426302023 C 64.10565324423197,0.18323504426302023 62.76565324423198,0.013235044263020237 70.46565324423197,1.3032350442630203 C 73.03565324423198,1.7332350442630202 74.04565324423199,1.6832350442630202 78.02565324423198,0.9032350442630203 L 81.25565324423198,6.06323504426302 C 82.60565324423197,8.12323504426302 82.15565324423198,7.84323504426302 86.99565324423197,9.67323504426302 C 92.29565324423199,4.49323504426302 91.32565324423197,5.30323504426302 93.75565324423198,4.05323504426302 C 97.20565324423198,2.3532350442630205 104.46565324423197,3.50323504426302 108.98565324423198,6.45323504426302 C 111.05565324423198,7.95323504426302 110.61565324423198,9.22323504426302 107.28565324423198,11.28323504426302 L 104.35565324423197,13.10323504426302 C 106.57565324423197,16.283235044263023 106.07565324423197,15.73323504426302 107.85565324423197,16.983235044263022 C 110.24565324423197,18.58323504426302 109.04565324423199,18.463235044263023 122.13565324423197,18.34323504426302 C 130.31565324423198,18.263235044263023 129.65565324423198,18.163235044263022 138.19565324423198,20.783235044263023 C 144.29565324423197,22.663235044263022 151.85565324423197,23.643235044263022 162.06565324423198,23.88323504426302 C 170.26565324423197,24.08323504426302 202.03565324423198,21.573235044263022 218.37565324423198,19.443235044263023 C 229.91565324423198,17.943235044263023 226.78565324423198,18.49323504426302 240.31565324423198,15.58323504426302 C 244.085653244232,14.77323504426302 248.01565324423197,14.14323504426302 252.76565324423197,13.57323504426302 L 252.76565324423197,13.57323504426302" fill="#010101"/>
</svg>
