<?xml version="1.0" ?>
<svg xmlns="http://www.w3.org/2000/svg" xmlns:ev="http://www.w3.org/2001/xml-events" xmlns:xlink="http://www.w3.org/1999/xlink" baseProfile="full" clip-rule="evenodd" fill-rule="evenodd" height="199" image-rendering="optimizeQuality" shape-rendering="geometricPrecision" text-rendering="geometricPrecision" transform="scale(0.5025125628140703 0.5025125628140703) translate(-212.0 -99.5)" version="1.1" viewBox="0 0 424 199" width="424" xml:space="preserve">
	<defs/>
	<path d="M 17.35903504685472,43.531826819179294 L 17.549035046854723,43.68182681917929 C 16.959035046854723,44.091826819179296 17.299035046854723,43.91182681917929 15.199035046854723,44.93182681917929 C 11.519035046854723,46.83182681917929 10.459035046854725,50.16182681917929 12.269035046854723,54.171826819179294 C 14.809035046854724,59.44182681917929 19.759035046854724,62.51182681917929 25.259035046854724,62.23182681917929 C 26.94903504685472,62.15182681917929 28.249035046854722,61.83182681917929 29.979035046854722,61.08182681917929 L 40.92903504685472,63.08182681917929 L 46.879035046854725,62.771826819179296 C 49.669035046854724,62.62182681917929 48.10903504685472,62.41182681917929 57.79903504685472,64.23182681917929 L 68.48903504685472,65.36182681917929 C 76.01903504685473,66.16182681917928 82.15903504685473,71.55182681917928 90.16903504685473,84.41182681917928 C 93.98903504685472,90.54182681917929 93.07903504685473,87.60182681917928 96.52903504685473,105.00182681917929 C 97.76903504685473,111.27182681917928 97.63903504685473,111.03182681917929 101.96903504685473,115.09182681917929 L 107.98903504685472,122.93182681917929 C 112.46903504685473,128.76182681917928 120.46903504685473,133.2718268191793 124.24903504685473,132.0918268191793 C 124.95903504685472,131.8718268191793 125.07903504685473,129.76182681917928 124.63903504685473,125.06182681917929 C 124.11903504685473,121.01182681917929 124.23903504685472,119.60182681917928 125.14903504685473,118.98182681917929 C 125.56903504685472,118.69182681917928 125.93903504685473,118.68182681917929 126.18903504685473,118.95182681917929 C 126.98903504685472,119.82182681917928 128.04903504685473,128.3018268191793 128.9690350468547,141.10182681917928 C 129.4390350468547,147.5318268191793 128.99903504685471,145.17182681917927 132.0090350468547,157.63182681917928 C 133.4390350468547,163.54182681917928 133.76903504685473,170.70182681917927 132.89903504685472,176.98182681917928 C 132.60903504685473,179.10182681917928 132.33903504685472,180.6818268191793 131.9090350468547,182.76182681917928 L 123.44903504685473,181.85182681917928 C 119.16903504685473,179.5318268191793 118.92903504685474,179.50182681917929 118.32903504685473,181.22182681917928 C 117.46903504685473,183.72182681917928 116.56903504685472,183.7418268191793 113.18903504685473,181.3318268191793 C 111.64903504685473,180.3118268191793 109.80903504685473,179.76182681917928 109.63903504685473,180.26182681917928 L 109.55903504685473,181.35182681917928 C 109.26903504685473,183.66182681917928 109.10903504685473,183.69182681917928 104.58903504685473,182.22182681917928 C 103.24903504685473,181.8318268191793 103.84903504685472,181.7718268191793 100.39903504685473,182.5818268191793 C 98.39903504685473,182.97182681917928 98.82903504685473,183.1118268191793 95.92903504685474,181.1218268191793 C 94.11903504685473,179.97182681917928 92.86903504685473,179.91182681917928 92.60903504685473,180.9618268191793 C 92.42903504685474,181.69182681917928 92.02903504685473,181.20182681917927 95.41903504685473,184.42182681917927 C 96.01903504685473,185.0218268191793 96.06903504685472,185.85182681917928 95.52903504685473,186.0618268191793 C 94.55903504685473,186.45182681917927 95.08903504685473,186.7718268191793 91.82903504685473,183.8618268191793 C 89.42903504685474,181.8318268191793 88.61903504685473,181.66182681917928 85.59903504685472,182.5918268191793 C 84.49903504685473,182.88182681917928 84.11903504685473,182.7118268191793 81.73903504685472,180.97182681917928 C 80.28903504685474,179.97182681917928 78.97903504685473,179.66182681917928 78.79903504685473,180.2718268191793 C 78.72903504685473,180.5218268191793 78.74903504685473,180.2718268191793 78.63903504685473,182.04182681917928 C 78.54903504685473,183.5918268191793 77.55903504685473,183.63182681917928 74.10903504685473,182.25182681917929 L 67.97903504685473,182.5518268191793 C 67.06903504685472,182.5618268191793 67.49903504685473,182.75182681917929 64.96903504685473,181.19182681917928 C 62.04903504685472,179.6518268191793 61.45903504685472,179.7718268191793 60.56903504685472,182.1518268191793 C 59.989035046854724,183.69182681917928 59.769035046854725,183.6518268191793 55.18903504685472,181.10182681917928 C 52.919035046854724,179.9018268191793 52.13903504685472,179.66182681917928 52.03903504685472,180.14182681917927 L 52.40903504685472,182.5318268191793 C 52.53903504685472,183.60182681917928 52.21903504685472,183.67182681917927 50.17903504685472,183.0518268191793 C 47.03903504685472,182.0818268191793 46.379035046854725,182.1218268191793 46.14903504685472,183.2818268191793 C 46.09903504685472,183.50182681917929 46.11903504685472,183.60182681917928 46.32903504685472,184.25182681917929 C 46.52903504685472,184.9618268191793 46.39903504685472,185.4018268191793 45.96903504685472,185.4318268191793 C 45.379035046854725,185.47182681917928 45.63903504685472,185.6118268191793 44.14903504685472,184.4318268191793 C 43.43903504685472,183.88182681917928 42.67903504685472,184.14182681917927 42.36903504685472,185.0518268191793 C 42.13903504685472,185.73182681917928 41.79903504685472,186.04182681917928 41.449035046854725,185.91182681917928 L 38.949035046854725,183.79182681917928 C 38.46903504685472,183.3718268191793 37.919035046854724,183.25182681917929 37.78903504685472,183.5318268191793 L 38.56903504685472,185.2418268191793 C 39.10903504685472,186.4318268191793 38.839035046854725,187.7118268191793 38.02903504685472,187.7818268191793 C 35.97903504685472,185.5918268191793 36.489035046854724,186.13182681917928 34.42903504685472,183.95182681917927 C 32.59903504685472,182.07182681917928 30.819035046854722,181.5618268191793 30.189035046854723,182.72182681917928 C 29.849035046854723,183.35182681917928 29.919035046854724,183.47182681917928 31.279035046854723,184.4618268191793 C 31.939035046854723,184.9318268191793 32.06903504685472,185.70182681917927 31.569035046854722,186.20182681917927 C 30.909035046854722,186.8618268191793 31.409035046854722,187.22182681917928 28.029035046854723,183.64182681917927 C 25.689035046854723,181.35182681917928 22.349035046854723,179.66182681917928 21.57903504685472,180.38182681917928 C 20.779035046854723,181.1118268191793 21.389035046854723,182.1118268191793 23.919035046854724,184.23182681917928 C 24.85903504685472,185.07182681917928 24.959035046854723,185.66182681917928 24.249035046854722,186.10182681917928 C 23.62903504685472,186.4918268191793 24.119035046854723,186.70182681917927 20.80903504685472,184.5818268191793 C 16.939035046854723,182.0918268191793 15.949035046854723,181.8018268191793 15.459035046854725,183.01182681917928 C 15.339035046854724,183.3018268191793 15.309035046854724,183.04182681917928 15.639035046854724,184.82182681917928 C 15.709035046854725,185.22182681917928 15.449035046854723,185.66182681917928 15.099035046854723,185.70182681917927 C 14.809035046854724,185.72182681917928 14.339035046854724,185.4018268191793 13.539035046854723,184.6118268191793 C 12.949035046854723,184.04182681917928 12.199035046854723,184.1518268191793 11.869035046854723,184.8718268191793 C 11.249035046854724,186.22182681917928 11.669035046854724,186.17182681917927 8.909035046854724,185.2118268191793 C 8.099035046854723,184.97182681917928 7.909035046854724,185.00182681917929 7.9290350468547235,185.38182681917928 L 8.119035046854723,186.4318268191793 C 8.249035046854724,187.10182681917928 7.799035046854724,187.57182681917928 7.089035046854724,187.51182681917928 L 6.479035046854724,187.3118268191793 C 6.029035046854724,187.0918268191793 5.879035046854724,187.1218268191793 5.829035046854724,187.44182681917928 L 6.079035046854724,189.0618268191793 C 6.349035046854723,190.79182681917928 5.709035046854724,191.38182681917928 3.079035046854724,191.82182681917928 C 1.4890350468547235,192.1118268191793 1.3190350468547236,192.3318268191793 0.7590350468547236,194.8718268191793 C -0.32096495314527645,198.1518268191793 -0.30096495314527644,198.3118268191793 1.1590350468547235,198.41182681917928 L 420.5490350468547,198.1518268191793 C 421.5790350468547,197.75182681917929 423.22903504685473,195.14182681917927 423.1390350468547,194.0318268191793 C 423.10903504685473,193.5318268191793 423.4990350468547,193.6818268191793 420.3790350468547,193.00182681917929 C 419.2990350468547,192.7718268191793 419.4490350468547,192.88182681917928 418.5590350468547,191.63182681917928 C 417.96903504685474,190.8118268191793 417.85903504685473,190.8318268191793 416.59903504685474,191.97182681917928 C 415.65903504685474,192.8118268191793 416.3190350468547,193.13182681917928 411.97903504685473,189.76182681917928 C 409.3190350468547,187.88182681917928 407.3190350468547,187.3618268191793 406.7490350468547,188.39182681917927 C 406.5190350468547,188.8118268191793 406.6390350468547,189.23182681917928 407.34903504685474,190.3118268191793 C 407.5190350468547,190.5818268191793 407.53903504685474,190.73182681917928 407.3990350468547,190.8018268191793 C 407.1390350468547,190.94182681917928 407.8990350468547,191.4018268191793 402.0590350468547,187.5518268191793 C 400.0490350468547,186.29182681917928 399.47903504685473,186.17182681917927 397.8390350468547,186.64182681917927 C 396.6890350468547,186.94182681917928 397.0890350468547,187.1118268191793 395.09903504685474,185.45182681917927 C 394.7590350468547,185.17182681917927 394.28903504685474,185.2118268191793 394.0590350468547,185.5318268191793 C 393.6390350468547,186.1218268191793 393.60903504685473,185.9018268191793 394.40903504685474,188.1518268191793 C 394.5190350468547,188.45182681917927 394.47903504685473,188.6518268191793 394.28903504685474,188.7418268191793 C 393.7990350468547,188.97182681917928 394.28903504685474,189.4018268191793 390.8990350468547,185.76182681917928 C 388.85903504685473,183.69182681917928 389.3290350468547,183.8318268191793 385.28903504685474,184.0518268191793 C 384.2490350468547,184.0618268191793 383.1890350468547,183.66182681917928 379.4590350468547,181.9018268191793 C 378.5190350468547,181.45182681917927 378.1290350468547,181.75182681917929 377.7790350468547,183.1518268191793 C 377.2590350468547,184.91182681917928 375.90903504685474,184.8318268191793 373.1290350468547,182.8718268191793 C 371.5190350468547,181.7718268191793 371.3690350468547,181.82182681917928 369.5890350468547,183.9618268191793 C 368.72903504685473,184.95182681917927 369.09903504685474,184.9918268191793 364.84903504685474,183.48182681917928 C 363.7590350468547,183.13182681917928 363.1990350468547,183.23182681917928 361.0290350468547,184.16182681917928 C 360.0690350468547,184.54182681917928 360.1890350468547,184.5918268191793 357.6290350468547,182.7418268191793 C 356.4990350468547,181.9918268191793 354.9590350468547,181.88182681917928 354.66903504685473,182.51182681917928 C 354.3090350468547,183.3318268191793 354.3890350468547,183.47182681917928 356.1990350468547,185.16182681917928 C 356.8290350468547,185.79182681917928 357.0690350468547,186.3118268191793 356.8090350468547,186.4918268191793 C 356.1290350468547,186.9618268191793 356.5790350468547,187.17182681917927 353.6390350468547,184.97182681917928 C 351.3290350468547,183.39182681917927 350.0490350468547,183.1118268191793 348.9390350468547,183.94182681917928 C 347.8390350468547,184.7818268191793 348.34903504685474,184.92182681917927 345.3790350468547,182.92182681917927 C 343.1990350468547,181.60182681917928 342.5690350468547,181.50182681917929 342.1990350468547,182.4318268191793 C 341.1390350468547,185.0618268191793 341.2790350468547,184.98182681917928 339.0290350468547,184.39182681917927 C 336.6790350468547,183.63182681917928 336.2690350468547,182.16182681917928 335.78903504685474,172.7718268191793 C 335.35903504685473,164.22182681917928 335.2590350468547,168.39182681917927 336.4890350468547,143.6118268191793 C 336.7990350468547,137.4318268191793 335.7390350468547,133.1818268191793 332.5790350468547,128.0218268191793 C 328.4890350468547,120.78182681917929 328.6490350468547,112.31182681917929 333.16903504685473,95.00182681917929 C 336.8690350468547,80.89182681917929 337.5590350468547,64.66182681917928 335.03903504685474,51.55182681917929 L 334.3090350468547,47.11182681917929 C 334.0890350468547,46.021826819179296 333.97903504685473,45.72182681917929 333.4390350468547,44.781826819179294 C 332.8290350468547,43.72182681917929 332.8790350468547,42.39182681917929 333.5490350468547,42.04182681917929 C 333.6790350468547,41.97182681917929 333.7790350468547,42.00182681917929 333.8890350468547,42.131826819179295 C 334.16903504685473,42.47182681917929 334.10903504685473,42.16182681917929 334.34903504685474,44.33182681917929 C 334.40903504685474,44.79182681917929 334.2790350468547,44.591826819179296 335.2590350468547,45.75182681917929 C 335.9890350468547,46.61182681917929 337.8790350468547,55.23182681917929 338.16903504685473,59.021826819179296 C 339.53903504685474,76.81182681917929 337.0790350468547,95.74182681917928 332.1990350468547,104.92182681917929 C 333.28903504685474,108.65182681917929 333.21903504685474,106.98182681917929 332.7090350468547,116.61182681917929 C 332.4390350468547,124.20182681917929 335.6890350468547,133.38182681917928 340.5690350468547,138.8718268191793 C 344.03903504685474,142.5518268191793 343.16903504685473,141.63182681917928 346.6390350468547,145.3118268191793 C 348.5090350468547,139.7818268191793 348.2690350468547,141.0318268191793 348.2790350468547,136.5518268191793 C 348.1990350468547,132.69182681917928 348.71903504685474,134.7818268191793 344.6490350468547,121.90182681917929 C 341.5190350468547,111.98182681917929 341.2590350468547,105.60182681917928 342.91903504685473,80.19182681917928 C 344.35903504685473,58.19182681917929 342.6990350468547,38.66182681917929 338.71903504685474,30.68182681917929 C 332.5790350468547,18.37182681917929 322.0690350468547,14.98182681917929 300.3290350468547,18.32182681917929 L 255.0390350468547,24.401826819179288 C 248.9790350468547,25.01182681917929 254.6690350468547,24.91182681917929 215.24903504685471,25.061826819179288 L 195.98903504685472,25.46182681917929 C 182.26903504685473,25.741826819179288 184.02903504685472,25.92182681917929 165.9490350468547,22.36182681917929 C 153.83903504685472,19.971826819179288 155.1290350468547,20.07182681917929 132.5990350468547,19.67182681917929 C 123.43903504685473,19.50182681917929 126.61903504685473,20.061826819179288 110.31903504685472,15.73182681917929 C 106.27903504685473,14.66182681917929 108.49903504685473,14.96182681917929 94.83903504685473,13.621826819179288 C 87.64903504685473,12.91182681917929 90.13903504685473,13.66182681917929 77.39903504685473,8.32182681917929 C 75.63903504685473,7.621826819179289 76.94903504685473,7.94182681917929 68.24903504685473,6.061826819179289 C 65.63903504685473,5.431826819179289 66.78903504685474,6.091826819179289 59.589035046854725,1.1118268191792895 C 56.38903504685472,-0.9881731808207106 54.839035046854725,-0.3181731808207106 50.84903504685472,4.891826819179289 C 49.419035046854724,6.541826819179289 48.93903504685472,6.69182681917929 45.169035046854724,6.621826819179289 C 43.879035046854725,6.631826819179289 42.169035046854724,8.781826819179289 41.85903504685472,10.781826819179289 C 41.75903504685472,11.46182681917929 41.60903504685472,11.16182681917929 42.839035046854725,12.89182681917929 C 43.07903504685472,13.22182681917929 43.38903504685472,12.80182681917929 40.67903504685472,15.80182681917929 L 17.35903504685472,43.531826819179294 L 17.35903504685472,43.531826819179294 M 305.35903504685473,153.25182681917929 L 304.7390350468547,152.5618268191793 C 310.41903504685473,145.0518268191793 309.6890350468547,146.3118268191793 309.8690350468547,143.8018268191793 C 310.0590350468547,138.5918268191793 309.9890350468547,139.2818268191793 310.34903504685474,138.98182681917928 C 310.46903504685474,138.8718268191793 310.6290350468547,138.9018268191793 310.7790350468547,139.04182681917928 L 312.85903504685473,142.82182681917928 C 315.6390350468547,149.48182681917928 314.9390350468547,147.8118268191793 317.71903504685474,154.47182681917928 C 322.4590350468547,161.70182681917927 321.9390350468547,160.63182681917928 323.0590350468547,165.42182681917927 C 324.0090350468547,169.44182681917928 324.7690350468547,181.8118268191793 324.15903504685474,183.3118268191793 C 323.7790350468547,184.25182681917929 322.96903504685474,184.41182681917928 322.1190350468547,183.7118268191793 C 320.34903504685474,182.1818268191793 319.2590350468547,181.9618268191793 318.5790350468547,183.01182681917928 C 317.2390350468547,185.10182681917928 317.5790350468547,184.8618268191793 316.2090350468547,184.6518268191793 C 313.2590350468547,184.0518268191793 313.41903504685473,183.9918268191793 312.91903504685473,185.9018268191793 C 312.7090350468547,186.6118268191793 312.3690350468547,186.7818268191793 311.7990350468547,186.4618268191793 C 310.1390350468547,185.4318268191793 309.10903504685473,185.04182681917928 308.6890350468547,185.26182681917928 L 308.6890350468547,185.48182681917928 C 309.5790350468547,186.73182681917928 309.6190350468547,186.92182681917927 309.0690350468547,187.41182681917928 C 308.78903504685474,187.66182681917928 308.4590350468547,187.4618268191793 308.1890350468547,186.89182681917927 C 307.72903504685473,185.9318268191793 307.5690350468547,185.7418268191793 307.10903504685473,185.64182681917927 C 306.46903504685474,185.51182681917928 305.96903504685474,186.0318268191793 305.8790350468547,186.9318268191793 C 305.7790350468547,188.7418268191793 305.7990350468547,188.63182681917928 305.5590350468547,188.82182681917928 C 305.2990350468547,189.04182681917928 305.6490350468547,189.3618268191793 303.0590350468547,186.5618268191793 C 300.7390350468547,183.8718268191793 300.4990350468547,183.72182681917928 299.2390350468547,184.3318268191793 C 298.59903504685474,184.64182681917927 298.5190350468547,185.4318268191793 299.0690350468547,186.01182681917928 C 300.3690350468547,187.41182681917928 300.22903504685473,187.2118268191793 300.0690350468547,187.42182681917927 C 299.66903504685473,187.97182681917928 298.3690350468547,187.5618268191793 297.60903504685473,186.6518268191793 C 295.59903504685474,184.1218268191793 291.3090350468547,181.3018268191793 290.5790350468547,182.0318268191793 C 290.0090350468547,182.5918268191793 290.16903504685473,183.63182681917928 290.9390350468547,184.3118268191793 C 292.78903504685474,185.8418268191793 293.2690350468547,186.4918268191793 292.9990350468547,187.1518268191793 C 292.78903504685474,187.67182681917927 292.2490350468547,187.73182681917928 291.65903504685474,187.29182681917928 C 287.7690350468547,184.2418268191793 285.4490350468547,183.38182681917928 284.8390350468547,184.7418268191793 C 284.1890350468547,186.35182681917928 283.46903504685474,186.76182681917928 282.5890350468547,186.04182681917928 C 281.21903504685474,184.9318268191793 281.2990350468547,184.26182681917928 283.1290350468547,181.22182681917928 C 288.5290350468547,172.2818268191793 287.28903504685474,174.04182681917928 291.7990350468547,168.85182681917928 L 305.35903504685473,153.25182681917929 L 305.35903504685473,153.25182681917929 M 277.6390350468547,118.87182681917929 L 277.6290350468547,118.86182681917929 C 277.2790350468547,119.20182681917929 277.0490350468547,119.89182681917929 277.09903504685474,120.49182681917928 C 278.2590350468547,122.73182681917929 277.96903504685474,122.17182681917929 279.1390350468547,124.40182681917929 C 285.1790350468547,143.2118268191793 284.40903504685474,140.39182681917927 284.5690350468547,144.0918268191793 C 283.9390350468547,148.45182681917927 284.0890350468547,147.3618268191793 283.4590350468547,151.73182681917928 C 284.0490350468547,155.76182681917928 284.0490350468547,155.13182681917928 283.5190350468547,156.1118268191793 C 279.85903504685473,162.1818268191793 280.7690350468547,160.66182681917928 277.10903504685473,166.72182681917928 C 269.2690350468547,182.1818268191793 270.16903504685473,181.0218268191793 264.6390350468547,182.92182681917927 C 259.65903504685474,184.64182681917927 258.65903504685474,184.6218268191793 254.70903504685472,182.7818268191793 C 251.8190350468547,181.5818268191793 251.10903504685473,181.5918268191793 250.73903504685472,182.8618268191793 C 249.9790350468547,185.26182681917928 249.67903504685472,185.3018268191793 246.02903504685472,183.45182681917927 C 244.45903504685472,182.6518268191793 244.8490350468547,182.85182681917928 243.2890350468547,182.0518268191793 C 242.36903504685472,181.6518268191793 241.98903504685472,181.7718268191793 241.8790350468547,182.48182681917928 C 241.51903504685473,184.75182681917929 240.5990350468547,185.14182681917927 237.61903504685472,184.2818268191793 C 233.51903504685473,182.97182681917928 234.1590350468547,183.0818268191793 233.1690350468547,183.5518268191793 C 230.6690350468547,184.8618268191793 230.85903504685473,184.8318268191793 229.30903504685472,184.13182681917928 C 224.0990350468547,181.45182681917927 224.83903504685472,181.72182681917928 224.07903504685473,182.29182681917928 C 223.6390350468547,182.63182681917928 223.7590350468547,183.6218268191793 224.29903504685473,184.0518268191793 C 225.36903504685472,184.9018268191793 225.32903504685473,184.8318268191793 225.0690350468547,185.39182681917927 C 224.7190350468547,186.16182681917928 224.17903504685472,186.32182681917928 223.51903504685473,185.85182681917928 C 220.35903504685473,183.45182681917927 218.77903504685472,182.8618268191793 217.45903504685472,183.5818268191793 C 215.80903504685472,184.57182681917928 215.74903504685471,184.57182681917928 214.32903504685473,183.8418268191793 C 210.9490350468547,181.8718268191793 210.0390350468547,181.6118268191793 209.6290350468547,182.5218268191793 C 208.45903504685472,185.10182681917928 208.1990350468547,185.2118268191793 205.3190350468547,184.35182681917928 C 201.4490350468547,182.9918268191793 202.0990350468547,183.1118268191793 200.80903504685472,183.5318268191793 C 198.2890350468547,184.39182681917927 197.74903504685471,184.41182681917928 196.1990350468547,183.6518268191793 C 192.1590350468547,181.50182681917929 191.49903504685471,181.4018268191793 190.73903504685472,182.8418268191793 C 189.6690350468547,184.85182681917928 188.99903504685471,185.10182681917928 187.1990350468547,184.13182681917928 C 184.60903504685473,182.6518268191793 185.0390350468547,182.8718268191793 184.2190350468547,182.5618268191793 C 182.33903504685472,182.0218268191793 182.6890350468547,182.1518268191793 181.7590350468547,181.64182681917927 L 182.5690350468547,182.0918268191793 C 181.83903504685472,181.6818268191793 181.73903504685472,181.64182681917927 181.55903504685472,181.6518268191793 C 181.1890350468547,181.66182681917928 181.1290350468547,182.0318268191793 181.3890350468547,182.63182681917928 C 181.54903504685473,182.98182681917928 181.58903504685472,183.14182681917927 181.58903504685472,183.32182681917928 C 181.57903504685473,184.44182681917928 180.27903504685472,184.9018268191793 178.2590350468547,184.51182681917928 C 175.4090350468547,183.8318268191793 175.79903504685473,183.8018268191793 175.54903504685473,184.69182681917928 C 174.9390350468547,186.9318268191793 175.07903504685473,186.64182681917927 174.5690350468547,186.70182681917927 C 174.04903504685473,186.76182681917928 173.4390350468547,186.13182681917928 173.3190350468547,185.41182681917928 C 172.36903504685472,178.23182681917928 172.45903504685472,178.70182681917927 171.01903504685473,173.26182681917928 C 167.48903504685472,159.92182681917927 166.95903504685472,152.3718268191793 168.39903504685472,135.8018268191793 C 168.85903504685473,130.39182681917927 169.0090350468547,130.9918268191793 167.0690350468547,130.2818268191793 C 164.20903504685472,129.3718268191793 164.54903504685473,129.5918268191793 164.70903504685472,128.72182681917928 C 164.99903504685471,127.15182681917929 169.52903504685472,127.27182681917928 175.55903504685472,129.00182681917929 C 190.24903504685471,133.22182681917928 187.98903504685472,132.73182681917928 196.58903504685472,133.5618268191793 C 211.9390350468547,135.0518268191793 239.83903504685472,129.5918268191793 269.4890350468547,119.28182681917929 C 280.8090350468547,115.34182681917929 288.6190350468547,113.87182681917929 290.5190350468547,115.31182681917929 C 290.9990350468547,115.67182681917929 290.9590350468547,115.98182681917929 290.3990350468547,116.33182681917928 L 285.1990350468547,117.56182681917929 L 277.6390350468547,118.87182681917929 L 277.6390350468547,118.87182681917929 M 152.1290350468547,130.7118268191793 L 152.0090350468547,130.6518268191793 L 154.32903504685473,124.43182681917929 L 154.6290350468547,124.49182681917928 C 155.01903504685473,124.90182681917929 155.07903504685473,126.54182681917929 154.7290350468547,127.50182681917929 C 154.1590350468547,128.9918268191793 154.42903504685472,127.02182681917928 152.77903504685472,141.3318268191793 C 150.70903504685472,159.2818268191793 150.67903504685472,158.0518268191793 153.14903504685472,161.1818268191793 C 154.2290350468547,162.5518268191793 153.3490350468547,160.23182681917928 159.30903504685472,177.4618268191793 C 159.89903504685472,179.6818268191793 159.9490350468547,179.85182681917928 160.32903504685473,180.9318268191793 C 160.7890350468547,182.41182681917928 160.42903504685472,183.45182681917927 159.4490350468547,183.44182681917928 C 158.3790350468547,183.4318268191793 158.5990350468547,183.3418268191793 157.9390350468547,184.0518268191793 L 158.51903504685473,183.4318268191793 C 158.35903504685473,183.5918268191793 159.0390350468547,185.3718268191793 159.4390350468547,185.8418268191793 C 160.58903504685472,187.0918268191793 160.54903504685473,187.0218268191793 160.26903504685473,187.38182681917928 C 159.86903504685472,187.88182681917928 158.67903504685472,187.63182681917928 157.95903504685472,186.89182681917927 C 154.82903504685473,183.6518268191793 153.95903504685472,183.10182681917928 150.52903504685472,182.1818268191793 C 147.9190350468547,181.2718268191793 148.2590350468547,181.3618268191793 148.1590350468547,181.6118268191793 L 149.14903504685472,182.6118268191793 C 150.14903504685472,183.6218268191793 151.17903504685472,185.38182681917928 150.9490350468547,185.67182681917927 C 150.48903504685472,186.2418268191793 148.9690350468547,186.0518268191793 148.3190350468547,185.3418268191793 C 146.99903504685471,183.89182681917927 146.30903504685472,173.35182681917928 147.1390350468547,167.42182681917927 C 148.11903504685472,160.5218268191793 147.86903504685472,162.2418268191793 148.8890350468547,155.35182681917928 C 148.80903504685472,145.0218268191793 148.76903504685473,145.3118268191793 152.1290350468547,130.7118268191793 L 152.1290350468547,130.7118268191793" fill="#08080A"/>
</svg>
