<?xml version="1.0" ?>
<svg xmlns="http://www.w3.org/2000/svg" xmlns:ev="http://www.w3.org/2001/xml-events" xmlns:xlink="http://www.w3.org/1999/xlink" baseProfile="full" clip-rule="evenodd" fill-rule="evenodd" height="204" image-rendering="optimizeQuality" shape-rendering="geometricPrecision" text-rendering="geometricPrecision" transform="scale(0.49019607843137253 0.49019607843137253) translate(-151.5 -102.0)" version="1.1" viewBox="0 0 303 204" width="303" xml:space="preserve">
	<defs/>
	<path d="M 3.8452,67.09915003470196 L 3.8352000000000004,67.10915003470197 C 0.9252000000000002,64.09915003470196 -0.3447999999999997,61.169150034701964 0.025200000000000278,58.309150034701965 C 1.1052000000000002,56.169150034701964 0.7452000000000003,56.54915003470196 2.5552,55.669150034701964 C 5.2552,54.25915003470196 11.725200000000001,47.47915003470196 16.4252,41.13915003470196 C 18.8452,37.86915003470196 18.1852,39.239150034701964 21.045199999999998,31.499150034701966 C 21.9152,29.129150034701965 24.3252,26.869150034701967 32.6852,20.569150034701966 L 32.3252,16.839150034701966 C 31.6652,14.969150034701967 32.6852,16.069150034701966 25.2252,9.139150034701967 C 22.5752,6.669150034701965 20.4052,2.009150034701965 21.2152,0.5091500347019653 C 21.455199999999998,0.06915003470196529 21.9952,-0.11084996529803472 22.5652,0.06915003470196529 C 22.9752,0.18915003470196529 22.5652,-0.28084996529803474 25.4052,3.3591500347019654 C 27.3052,5.799150034701965 27.1452,5.659150034701965 33.175200000000004,9.909150034701966 C 34.3752,10.759150034701966 35.9752,12.329150034701966 36.9452,13.609150034701965 C 38.245200000000004,12.809150034701966 39.3952,12.349150034701966 40.6552,12.139150034701967 L 40.845200000000006,12.109150034701965 C 43.415200000000006,11.749150034701966 47.595200000000006,13.689150034701965 49.455200000000005,16.099150034701967 C 49.915200000000006,16.639150034701967 50.6052,17.029150034701967 50.7652,16.829150034701964 C 51.3352,16.089150034701966 51.065200000000004,15.769150034701966 47.205200000000005,12.489150034701966 C 43.8752,9.659150034701966 41.235200000000006,3.7391500347019653 42.7952,2.6091500347019654 C 43.4652,2.119150034701965 43.565200000000004,2.1991500347019652 45.845200000000006,5.1891500347019655 C 48.3552,8.489150034701966 49.665200000000006,9.519150034701966 55.0152,12.399150034701966 C 56.5752,13.319150034701966 56.915200000000006,14.769150034701966 56.3952,18.279150034701967 C 55.9452,21.289150034701965 56.3252,21.789150034701965 60.8252,24.219150034701965 C 69.3952,28.849150034701967 79.0152,30.909150034701966 92.28519999999999,30.979150034701966 C 107.1352,31.049150034701967 101.1152,30.849150034701967 134.4052,32.419150034701964 C 139.8152,32.54915003470196 138.4652,32.519150034701966 143.8752,32.65915003470196 C 146.8552,32.739150034701964 143.45520000000002,32.39915003470196 167.6552,35.06915003470196 L 190.0252,36.96915003470196 C 200.2152,37.82915003470196 207.9752,37.57915003470196 213.8852,36.199150034701965 L 236.3552,30.969150034701965 C 250.73520000000002,28.779150034701967 262.5152,29.309150034701965 275.8752,32.75915003470196 C 283.5052,34.739150034701964 285.11519999999996,35.74915003470196 288.91519999999997,41.019150034701966 C 291.86519999999996,45.099150034701964 298.5652,60.96915003470196 299.86519999999996,66.92915003470198 C 301.61519999999996,74.98915003470196 301.7552,78.55915003470197 300.79519999999997,91.41915003470197 C 300.30519999999996,98.06915003470196 300.30519999999996,98.11915003470197 301.5252,107.40915003470197 C 302.7152,116.50915003470197 303.0752,123.89915003470198 302.5052,127.91915003470197 C 301.8752,132.47915003470195 300.4052,138.51915003470197 299.7252,139.35915003470197 C 299.35519999999997,139.78915003470195 299.0852,139.87915003470195 298.8452,139.61915003470196 C 298.2252,138.96915003470195 298.4052,140.00915003470195 297.5952,132.31915003470195 C 296.79519999999997,126.64915003470198 296.98519999999996,128.06915003470195 296.2152,122.39915003470198 C 295.2752,115.59915003470196 295.23519999999996,116.61915003470197 297.2052,97.01915003470197 C 298.42519999999996,84.81915003470196 297.7252,74.82915003470197 295.0052,65.62915003470196 C 293.61519999999996,60.919150034701964 291.9052,56.74915003470196 291.2252,56.43915003470196 C 290.9052,56.28915003470196 290.6552,56.38915003470196 290.5352,56.739150034701964 L 290.49519999999995,58.629150034701965 C 290.3952,64.32915003470197 290.85519999999997,60.53915003470196 287.30519999999996,85.17915003470198 C 285.8452,95.27915003470197 285.4652,107.41915003470197 286.3452,115.48915003470196 L 288.0252,127.92915003470198 L 289.9052,140.24915003470196 C 290.23519999999996,142.39915003470196 290.35519999999997,141.40915003470195 289.05519999999996,147.18915003470195 C 288.55519999999996,149.38915003470194 288.7152,147.53915003470195 287.9752,160.20915003470196 C 287.85519999999997,162.26915003470197 288.0152,160.96915003470195 286.8452,169.28915003470195 C 285.3452,179.91915003470194 285.29519999999997,182.76915003470197 286.49519999999995,189.50915003470195 C 286.73519999999996,191.18915003470195 286.4552,191.60915003470197 284.48519999999996,192.52915003470196 C 283.54519999999997,193.02915003470196 283.48519999999996,193.20915003470196 283.23519999999996,196.23915003470196 C 283.1852,196.68915003470195 283.5252,195.70915003470196 280.86519999999996,203.04915003470197 L 266.41519999999997,203.89915003470196 C 265.16519999999997,203.70915003470196 264.7052,202.66915003470194 265.2152,201.17915003470196 C 265.66519999999997,200.01915003470197 265.2052,200.66915003470194 268.41519999999997,196.60915003470197 C 271.6952,192.45915003470196 272.92519999999996,188.50915003470195 274.0152,178.72915003470195 C 275.0352,169.45915003470196 274.85519999999997,160.20915003470196 273.5752,156.69915003470194 L 270.6252,151.18915003470195 C 269.9452,149.89915003470196 270.3452,150.73915003470196 267.7852,145.30915003470196 C 265.35519999999997,149.77915003470196 266.17519999999996,148.03915003470195 262.04519999999997,157.44915003470194 C 258.36519999999996,165.78915003470195 254.4952,176.74915003470196 252.26520000000002,185.10915003470197 C 251.3452,188.51915003470197 250.6552,189.29915003470197 248.9052,188.84915003470195 C 248.4952,188.74915003470196 248.2252,188.95915003470196 248.1252,189.44915003470194 C 248.0952,189.56915003470195 248.1052,189.43915003470195 248.1052,190.34915003470195 C 248.04520000000002,192.00915003470195 248.4152,191.09915003470195 245.5552,196.69915003470194 C 244.7252,198.03915003470195 243.4052,198.83915003470196 241.8852,198.90915003470195 C 234.2852,199.07915003470197 236.1852,199.03915003470195 228.58520000000001,199.20915003470196 C 228.7452,196.15915003470195 228.6252,196.79915003470197 229.4352,194.70915003470196 C 229.89520000000002,193.59915003470195 229.4452,194.11915003470196 232.6352,191.05915003470196 C 237.48520000000002,186.38915003470194 241.48520000000002,179.97915003470195 244.5352,172.00915003470195 C 246.2552,167.50915003470195 246.9752,162.13915003470194 247.4652,150.06915003470195 C 247.6852,146.73915003470196 247.73520000000002,147.17915003470196 247.1052,147.01915003470197 C 246.73520000000002,146.92915003470196 246.9652,146.85915003470197 245.5352,147.48915003470196 C 244.51520000000002,147.87915003470195 242.4452,146.76915003470197 241.8152,145.48915003470196 L 241.4352,142.68915003470195 C 241.26520000000002,141.72915003470195 241.8052,142.08915003470196 237.70520000000002,140.16915003470194 C 237.11520000000002,141.97915003470195 236.3452,143.09915003470195 235.2452,143.73915003470196 L 235.0952,143.83915003470196 C 233.6252,144.58915003470196 231.51520000000002,144.09915003470195 230.6852,142.80915003470196 C 230.1852,142.02915003470196 230.2852,142.67915003470196 230.0252,138.28915003470195 C 229.8152,135.64915003470196 230.9052,136.72915003470195 221.54520000000002,129.94915003470194 C 219.4652,128.43915003470195 219.98520000000002,128.81915003470195 217.9052,127.30915003470197 L 213.26520000000002,129.49915003470196 C 201.4952,133.49915003470196 190.45520000000002,134.56915003470195 178.5552,132.84915003470195 C 165.3552,130.63915003470194 168.6552,131.18915003470195 155.4452,129.02915003470196 C 147.4152,127.72915003470197 140.42520000000002,127.45915003470196 134.1652,128.20915003470196 L 130.4452,128.65915003470195 C 132.7852,148.35915003470197 132.45520000000002,145.79915003470197 132.7452,146.56915003470195 C 133.29520000000002,148.01915003470197 133.32520000000002,147.05915003470196 132.57520000000002,153.30915003470196 C 131.5252,162.08915003470196 131.5952,159.55915003470196 131.82520000000002,179.10915003470197 C 131.8852,184.27915003470196 131.8852,184.37915003470195 132.2452,188.04915003470197 C 132.29520000000002,188.82915003470197 132.4052,188.51915003470197 131.42520000000002,190.18915003470195 C 131.20520000000002,190.58915003470196 131.1852,190.10915003470197 131.6052,193.52915003470196 C 131.7552,194.93915003470195 130.7452,199.03915003470195 130.0652,199.80915003470196 C 128.67520000000002,201.23915003470196 125.53519999999999,201.88915003470194 120.06519999999999,201.87915003470195 L 112.5052,201.15915003470195 C 111.98519999999999,201.05915003470196 112.1152,201.08915003470196 111.59519999999999,200.98915003470196 L 116.03519999999999,192.81915003470195 C 117.7552,188.12915003470195 119.5252,179.44915003470194 119.70519999999999,174.88915003470194 C 119.9452,168.45915003470196 120.0152,168.87915003470195 117.4152,160.75915003470195 L 112.9152,146.68915003470195 C 112.78519999999999,145.96915003470195 112.5852,145.65915003470195 112.3252,145.77915003470196 C 111.7452,146.03915003470195 111.92519999999999,145.41915003470194 111.0752,150.06915003470195 L 107.53519999999999,169.24915003470196 C 106.9152,174.47915003470195 106.7652,176.65915003470195 106.4952,184.40915003470195 C 106.3952,185.69915003470194 106.5252,185.53915003470195 104.3252,186.96915003470195 C 103.1152,187.83915003470196 103.2152,187.20915003470196 103.62519999999999,191.40915003470195 L 103.03519999999999,195.78915003470195 L 90.3652,197.37915003470195 C 86.0052,197.53915003470195 83.81519999999999,196.83915003470196 83.6652,195.22915003470195 C 83.6352,193.39915003470196 83.7752,193.22915003470195 89.4752,188.29915003470197 C 93.09519999999999,185.16915003470194 93.5452,184.34915003470195 94.62519999999999,178.91915003470194 C 95.1652,176.23915003470196 95.0552,177.93915003470195 95.3352,167.01915003470197 L 95.8552,157.33915003470196 C 96.28519999999999,149.11915003470196 95.9052,144.96915003470195 93.9052,136.46915003470195 L 87.2152,134.48915003470196 C 80.0552,130.94915003470194 75.3352,125.16915003470197 69.9052,113.27915003470197 C 68.0452,109.18915003470197 68.87519999999999,111.59915003470196 64.0752,96.37915003470196 C 62.1852,90.36915003470197 62.9652,91.50915003470197 51.8952,78.80915003470197 C 50.955200000000005,77.73915003470196 49.6852,76.18915003470197 47.8352,73.88915003470197 L 43.4352,75.53915003470198 C 40.565200000000004,76.02915003470197 40.165200000000006,75.96915003470197 33.2552,74.06915003470196 C 29.8852,73.14915003470198 19.9252,72.36915003470197 16.8152,72.78915003470198 C 10.8752,73.57915003470197 9.185200000000002,72.83915003470197 3.8452,67.09915003470196 L 3.8452,67.09915003470196" fill="#020202"/>
</svg>
