<?xml version="1.0" ?>
<svg xmlns="http://www.w3.org/2000/svg" xmlns:ev="http://www.w3.org/2001/xml-events" xmlns:xlink="http://www.w3.org/1999/xlink" baseProfile="full" clip-rule="evenodd" fill-rule="evenodd" height="297" image-rendering="optimizeQuality" shape-rendering="geometricPrecision" text-rendering="geometricPrecision" transform="scale(0.38461538461538464 0.38461538461538464) translate(-130.0 -148.5)" version="1.1" viewBox="0 0 260 297" width="260" xml:space="preserve">
	<defs/>
	<path d="M 37.07132242428365,25.532650948380727 L 37.07132242428365,25.532650948380727 C 40.27132242428365,27.002650948380726 39.47132242428365,26.63265094838072 42.66132242428365,28.112650948380725 C 45.58132242428365,29.462650948380727 45.13132242428365,29.182650948380726 53.05132242428365,34.55265094838072 C 58.26132242428365,38.082650948380724 61.46132242428365,39.612650948380725 67.04132242428366,41.24265094838073 C 73.39132242428366,43.112650948380725 76.82132242428364,41.78265094838073 79.43132242428365,36.45265094838073 C 80.21132242428365,34.85265094838073 79.90132242428365,35.84265094838073 81.61132242428366,29.532650948380727 C 83.28132242428364,23.352650948380727 86.71132242428365,20.13265094838072 91.35132242428364,20.38265094838072 C 94.78132242428364,20.572650948380726 96.11132242428366,22.902650948380725 94.53132242428364,25.99265094838072 C 94.22132242428364,26.592650948380722 94.56132242428365,26.112650948380725 92.19132242428364,29.392650948380727 C 91.15132242428365,30.842650948380722 91.13132242428364,30.892650948380727 90.50132242428364,33.92265094838073 C 89.82132242428364,37.16265094838072 89.82132242428364,37.432650948380726 90.48132242428366,38.46265094838073 C 91.10132242428364,39.39265094838073 92.06132242428365,39.73265094838072 93.98132242428366,39.692650948380724 C 95.64132242428366,39.66265094838072 96.05132242428365,39.52265094838073 97.98132242428366,38.28265094838073 C 99.88132242428364,37.072650948380726 101.05132242428365,36.942650948380724 102.45132242428366,37.77265094838073 C 104.31132242428365,38.942650948380724 105.20132242428366,41.06265094838073 105.93132242428365,46.05265094838072 C 106.36132242428366,48.96265094838073 105.97132242428364,47.35265094838073 108.68132242428365,57.30265094838072 C 110.09132242428365,62.45265094838073 110.33132242428366,64.44265094838072 110.14132242428366,69.78265094838072 C 109.97132242428364,74.85265094838071 110.39132242428366,76.90265094838072 113.70132242428366,86.97265094838072 C 115.70132242428366,93.03265094838072 116.09132242428365,97.04265094838073 115.40132242428365,104.39265094838072 C 114.74132242428365,111.53265094838072 114.84132242428365,109.95265094838072 114.71132242428365,115.43265094838073 C 114.62132242428365,117.26265094838072 114.64132242428366,116.80265094838072 114.57132242428364,118.64265094838072 C 114.29132242428366,125.66265094838072 113.94132242428364,128.23265094838072 112.82132242428364,131.49265094838074 C 111.63132242428364,134.94265094838073 111.02132242428365,135.97265094838073 105.65132242428365,143.60265094838073 C 103.51132242428366,146.64265094838072 102.93132242428365,147.67265094838072 100.95132242428366,151.87265094838074 C 97.95132242428366,158.23265094838072 95.44132242428364,160.20265094838072 91.76132242428366,159.06265094838074 C 89.50132242428364,158.37265094838074 87.25132242428364,156.45265094838072 86.33132242428366,154.45265094838072 L 85.46132242428365,152.42265094838072 C 84.72132242428364,150.68265094838074 83.70132242428366,149.82265094838073 82.07132242428364,149.58265094838075 C 80.12132242428365,149.29265094838073 79.36132242428366,148.71265094838074 78.94132242428364,147.23265094838072 C 78.86132242428366,146.89265094838072 78.88132242428364,147.19265094838073 78.79132242428366,145.12265094838074 L 77.99132242428365,138.78265094838073 C 77.14132242428366,131.92265094838072 77.22132242428364,121.98265094838072 78.23132242428366,110.54265094838073 C 78.80132242428365,104.08265094838072 78.81132242428365,104.22265094838072 77.20132242428366,99.86265094838072 C 76.57132242428364,97.92265094838072 76.73132242428366,98.40265094838072 76.08132242428366,96.47265094838072 C 75.24132242428365,93.95265094838072 75.42132242428366,94.30265094838072 73.44132242428364,91.40265094838072 C 72.26132242428366,89.68265094838073 72.02132242428365,88.27265094838071 72.34132242428365,85.04265094838073 C 72.90132242428365,79.40265094838072 72.54132242428366,78.32265094838071 68.86132242428366,74.66265094838072 L 65.78132242428364,71.26265094838072 C 62.79132242428365,67.97265094838072 61.53132242428365,67.55265094838072 53.79132242428365,67.36265094838072 C 50.76132242428365,67.29265094838073 50.12132242428365,67.41265094838072 44.75132242428365,69.08265094838072 C 39.44132242428365,70.73265094838072 36.19132242428365,71.02265094838071 29.28132242428365,70.43265094838073 C 22.18132242428365,69.84265094838072 18.66132242428365,67.31265094838072 14.38132242428365,59.78265094838073 C 12.25132242428365,56.02265094838073 13.09132242428365,57.252650948380726 8.47132242428365,51.222650948380725 C 4.22132242428365,45.682650948380726 3.46132242428365,44.012650948380724 1.18132242428365,35.28265094838073 C 0.05132242428365004,30.932650948380726 -0.25867757571635,27.652650948380725 0.21132242428365003,24.802650948380723 C 1.01132242428365,19.982650948380723 3.57132242428365,17.122650948380723 8.34132242428365,15.742650948380724 C 14.49132242428365,13.972650948380725 21.54132242428365,15.182650948380724 27.33132242428365,19.002650948380726 L 32.95132242428365,23.082650948380724 C 34.24132242428365,24.012650948380724 35.26132242428365,24.622650948380723 37.07132242428365,25.532650948380727 L 37.07132242428365,25.532650948380727 M 77.71132242428365,68.08265094838072 C 77.25132242428364,68.11265094838072 76.39132242428366,69.78265094838072 76.50132242428364,70.42265094838072 C 76.52132242428365,70.56265094838072 76.59132242428365,70.67265094838072 76.66132242428364,70.67265094838072 C 76.74132242428365,70.66265094838072 76.80132242428365,70.58265094838072 76.83132242428366,70.43265094838073 C 76.93132242428365,69.80265094838072 76.96132242428365,69.73265094838072 77.19132242428364,69.64265094838072 C 77.45132242428366,69.53265094838072 77.90132242428365,69.84265094838072 77.96132242428365,70.16265094838072 C 78.04132242428366,70.66265094838072 78.03132242428364,70.58265094838072 78.09132242428365,70.70265094838072 C 78.35132242428364,71.22265094838072 79.17132242428366,71.25265094838072 79.69132242428364,70.75265094838072 C 80.00132242428364,70.45265094838072 80.09132242428365,69.56265094838072 79.83132242428366,69.33265094838072 C 79.33132242428366,68.89265094838072 79.15132242428365,68.86265094838072 78.56132242428365,69.14265094838072 C 78.05132242428365,69.41265094838072 78.13132242428364,69.38265094838071 78.02132242428365,69.36265094838072 C 77.58132242428366,69.26265094838072 77.46132242428365,68.90265094838072 77.71132242428365,68.48265094838072 C 77.92132242428366,68.19265094838072 77.89132242428366,68.25265094838072 77.93132242428365,68.06265094838072 L 77.89132242428366,68.23265094838072 C 77.92132242428366,68.13265094838071 77.84132242428365,68.07265094838071 77.71132242428365,68.08265094838072 L 77.71132242428365,68.08265094838072 M 86.26132242428366,70.32265094838071 L 86.26132242428366,70.32265094838071 C 86.22132242428364,70.29265094838073 86.17132242428366,70.27265094838071 86.12132242428365,70.26265094838072 C 85.35132242428364,70.06265094838072 85.07132242428364,70.51265094838072 84.78132242428364,72.38265094838071 C 84.48132242428366,74.27265094838071 83.56132242428365,75.32265094838071 81.78132242428364,75.77265094838071 C 80.79132242428366,75.99265094838071 80.93132242428365,75.94265094838072 80.81132242428365,76.08265094838072 L 80.91132242428364,75.96265094838071 C 80.84132242428365,76.04265094838073 80.89132242428366,76.12265094838072 81.05132242428365,76.18265094838073 C 82.15132242428365,76.58265094838072 83.74132242428365,75.93265094838073 85.02132242428365,74.57265094838071 C 86.65132242428365,72.84265094838072 87.21132242428365,70.91265094838072 86.26132242428366,70.32265094838071 L 86.26132242428366,70.32265094838071 M 69.51132242428366,137.73265094838072 L 69.51132242428366,137.73265094838072 C 68.98132242428366,140.05265094838074 69.11132242428366,139.47265094838073 68.57132242428364,141.78265094838073 C 68.09132242428365,143.85265094838073 68.26132242428366,143.41265094838073 66.63132242428364,146.49265094838074 C 65.67132242428366,148.31265094838074 65.56132242428365,150.74265094838074 66.32132242428364,153.30265094838074 C 66.71132242428365,154.52265094838074 67.21132242428365,154.68265094838074 69.14132242428366,154.18265094838074 C 71.53132242428364,153.56265094838074 74.27132242428365,153.78265094838073 76.77132242428365,154.80265094838074 C 79.53132242428364,155.92265094838072 80.14132242428366,158.57265094838073 78.39132242428366,161.81265094838074 C 77.40132242428365,163.64265094838072 76.91132242428364,163.98265094838072 73.40132242428365,165.28265094838073 C 70.42132242428366,166.38265094838073 69.57132242428364,167.21265094838074 68.32132242428364,170.26265094838072 C 65.84132242428365,176.28265094838073 66.62132242428365,174.59265094838074 62.84132242428365,182.08265094838075 C 61.33132242428365,185.07265094838073 61.62132242428365,184.61265094838075 60.79132242428365,185.29265094838073 C 60.12132242428365,185.84265094838074 60.55132242428365,185.66265094838073 57.80132242428365,186.53265094838073 C 54.58132242428365,187.56265094838074 50.79132242428365,190.54265094838073 49.90132242428365,192.74265094838074 C 49.46132242428365,193.85265094838073 49.47132242428365,193.73265094838072 49.41132242428365,196.86265094838075 C 49.39132242428365,198.46265094838074 49.05132242428365,198.93265094838074 48.03132242428365,198.80265094838074 C 46.78132242428365,198.57265094838073 46.03132242428365,196.19265094838073 45.85132242428365,191.88265094838073 C 45.68132242428365,188.08265094838075 46.27132242428365,183.71265094838074 47.46132242428365,179.88265094838073 L 48.54132242428365,176.80265094838074 C 49.28132242428365,174.69265094838073 48.96132242428365,175.86265094838075 50.80132242428365,168.64265094838072 C 52.14132242428365,163.42265094838072 55.19132242428365,156.20265094838072 57.32132242428365,153.25265094838073 C 60.02132242428365,149.52265094838074 59.75132242428365,150.05265094838074 60.63132242428365,146.61265094838075 C 61.12132242428365,144.69265094838073 62.16132242428365,142.22265094838073 65.35132242428364,135.35265094838073 C 67.02132242428365,131.75265094838073 68.17132242428366,130.17265094838072 70.16132242428364,128.77265094838074 C 70.70132242428366,128.42265094838072 70.51132242428366,128.48265094838072 71.49132242428365,128.37265094838074 C 71.67132242428366,128.35265094838073 71.74132242428365,128.35265094838073 71.92132242428366,128.34265094838074 L 72.26132242428366,129.69265094838073 L 70.55132242428365,134.42265094838072 C 70.14132242428366,135.57265094838073 69.75132242428364,136.80265094838074 69.51132242428366,137.73265094838072 L 69.51132242428366,137.73265094838072 M 50.07132242428365,208.81265094838074 L 50.08132242428365,208.83265094838075 C 49.42132242428365,204.12265094838074 49.96132242428365,200.88265094838073 51.74132242428365,198.81265094838074 C 53.33132242428365,196.96265094838074 53.94132242428365,196.54265094838073 59.40132242428365,193.58265094838075 C 62.77132242428365,191.76265094838072 63.71132242428365,190.56265094838074 63.79132242428365,187.97265094838073 C 63.85132242428365,186.12265094838074 64.05132242428365,185.69265094838073 65.13132242428364,185.02265094838074 C 65.55132242428365,184.76265094838072 65.18132242428365,184.92265094838072 67.76132242428366,183.89265094838072 C 71.29132242428366,182.48265094838072 73.31132242428365,179.76265094838072 74.30132242428365,175.09265094838074 C 75.37132242428365,170.03265094838073 75.81132242428365,168.97265094838073 77.65132242428365,166.91265094838073 C 79.76132242428366,164.54265094838073 81.72132242428364,163.54265094838073 83.50132242428364,163.92265094838072 C 85.43132242428365,164.38265094838073 86.92132242428366,165.95265094838072 88.00132242428364,168.68265094838074 L 88.75132242428364,170.76265094838072 C 88.03132242428364,171.97265094838073 88.20132242428366,171.59265094838074 87.55132242428365,173.44265094838073 C 85.29132242428366,179.96265094838074 86.75132242428364,186.86265094838075 91.04132242428366,189.89265094838072 C 92.74132242428365,191.09265094838074 94.03132242428364,191.50265094838073 97.21132242428365,191.87265094838074 C 102.34132242428365,192.47265094838073 105.35132242428364,194.41265094838073 106.48132242428366,197.83265094838075 C 106.91132242428364,199.13265094838073 106.89132242428366,198.71265094838074 106.72132242428364,201.75265094838073 C 106.63132242428364,203.23265094838072 106.66132242428364,203.32265094838073 108.20132242428366,207.11265094838075 C 109.96132242428365,211.43265094838074 109.76132242428366,210.54265094838073 110.08132242428366,215.86265094838075 C 110.37132242428365,220.90265094838074 110.89132242428366,222.56265094838074 112.59132242428365,223.96265094838074 C 113.68132242428365,224.85265094838073 114.01132242428366,224.94265094838073 118.79132242428366,225.74265094838074 C 123.06132242428365,226.45265094838072 124.47132242428364,228.13265094838073 124.59132242428365,232.68265094838074 C 124.63132242428364,233.89265094838072 124.67132242428366,233.24265094838074 124.32132242428364,237.24265094838074 C 124.23132242428366,238.84265094838074 124.25132242428364,238.44265094838073 124.16132242428364,240.03265094838073 C 123.79132242428366,245.87265094838074 122.67132242428366,249.81265094838074 120.57132242428364,252.59265094838074 C 119.34132242428365,254.21265094838074 119.65132242428365,253.81265094838074 118.43132242428365,255.44265094838073 C 117.38132242428364,257.0926509483807 117.40132242428365,257.04265094838075 116.67132242428366,261.3426509483807 C 116.02132242428365,265.1426509483807 114.73132242428366,266.47265094838076 111.61132242428366,266.5926509483807 C 108.76132242428366,266.7026509483807 106.29132242428366,265.3426509483807 105.75132242428364,263.38265094838073 C 105.41132242428364,262.04265094838075 105.60132242428364,261.3926509483807 107.09132242428365,258.63265094838073 C 108.41132242428364,256.19265094838073 108.33132242428366,254.73265094838072 106.80132242428365,253.34265094838074 C 106.48132242428366,253.05265094838074 106.80132242428365,253.26265094838072 104.52132242428365,251.87265094838074 C 101.07132242428364,249.78265094838073 99.35132242428364,246.82265094838073 99.46132242428365,243.17265094838072 C 99.70132242428366,234.74265094838074 99.71132242428365,235.11265094838075 99.36132242428366,233.38265094838073 C 99.06132242428365,231.85265094838073 98.53132242428364,230.95265094838072 97.67132242428366,230.51265094838072 C 97.33132242428366,230.33265094838075 97.07132242428364,230.23265094838072 96.70132242428366,230.12265094838074 L 94.42132242428366,234.50265094838073 C 93.85132242428364,235.35265094838073 93.22132242428364,236.06265094838074 92.64132242428366,236.51265094838072 C 92.32132242428364,236.77265094838074 92.05132242428365,236.95265094838072 91.70132242428366,237.16265094838073 L 90.57132242428364,233.87265094838074 C 89.37132242428365,231.26265094838072 88.18132242428365,230.16265094838073 87.15132242428365,230.72265094838073 C 86.33132242428366,231.23265094838072 85.67132242428366,233.15265094838074 85.85132242428364,234.51265094838072 C 86.04132242428366,235.88265094838073 86.08132242428366,235.95265094838072 88.60132242428364,239.02265094838074 C 90.66132242428364,241.54265094838073 90.80132242428365,242.36265094838075 90.02132242428365,247.77265094838074 C 89.67132242428366,250.16265094838073 89.66132242428364,249.91265094838073 90.26132242428366,254.68265094838074 C 90.48132242428366,256.38265094838073 90.42132242428366,257.30265094838074 90.01132242428366,258.5926509483807 C 89.92132242428366,258.88265094838073 89.86132242428366,259.0826509483807 89.75132242428364,259.37265094838074 C 88.16132242428364,260.11265094838075 88.49132242428365,259.9026509483807 87.45132242428366,260.81265094838074 C 86.49132242428365,261.66265094838076 86.02132242428365,262.2626509483807 84.28132242428364,264.88265094838073 C 83.98132242428366,265.31265094838074 83.64132242428366,265.38265094838073 83.43132242428365,265.0726509483807 C 83.30132242428365,264.88265094838073 83.37132242428365,265.22265094838076 82.93132242428365,262.7026509483807 C 82.54132242428366,260.48265094838075 81.84132242428365,259.79265094838075 79.74132242428365,259.56265094838074 C 77.54132242428366,259.31265094838074 75.64132242428366,260.60265094838076 75.34132242428365,262.54265094838075 C 75.25132242428364,263.4526509483807 75.30132242428365,263.3326509483807 74.95132242428366,263.38265094838073 C 74.49132242428365,263.44265094838073 74.09132242428365,263.0926509483807 74.06132242428365,262.5926509483807 C 73.96132242428365,260.68265094838074 73.85132242428364,260.5226509483807 71.58132242428366,258.9626509483807 C 70.03132242428364,257.8926509483807 69.85132242428364,257.63265094838073 69.34132242428365,255.71265094838074 C 68.96132242428365,254.24265094838074 69.18132242428365,254.45265094838072 65.90132242428365,252.61265094838075 C 65.03132242428364,252.13265094838073 64.61132242428366,251.46265094838074 64.62132242428365,250.61265094838075 C 64.66132242428364,249.80265094838074 64.41132242428364,250.35265094838073 66.36132242428366,246.78265094838073 C 66.96132242428365,245.69265094838073 67.18132242428365,245.10265094838073 67.25132242428364,244.37265094838074 C 67.29132242428366,244.00265094838073 67.30132242428365,243.73265094838072 67.28132242428364,243.35265094838073 C 66.37132242428365,242.76265094838072 66.58132242428366,242.85265094838073 65.80132242428365,242.72265094838073 C 65.15132242428365,242.63265094838073 65.58132242428366,242.51265094838072 62.86132242428365,243.56265094838074 C 61.40132242428365,244.12265094838074 60.54132242428365,244.15265094838074 60.00132242428365,243.66265094838073 L 59.64132242428365,242.89265094838072 C 59.53132242428365,242.21265094838074 59.63132242428365,241.56265094838074 59.99132242428365,240.74265094838074 C 59.28132242428365,240.61265094838075 59.72132242428365,240.66265094838073 56.89132242428365,240.45265094838072 C 55.07132242428365,240.32265094838073 54.44132242428365,239.83265094838075 54.38132242428365,238.47265094838073 C 54.33132242428365,237.83265094838075 54.51132242428365,238.35265094838073 53.14132242428365,234.80265094838074 C 52.52132242428365,233.17265094838072 52.61132242428365,233.70265094838072 52.50132242428365,230.85265094838073 C 52.46132242428365,229.79265094838073 52.61132242428365,230.23265094838072 51.40132242428365,227.72265094838073 C 50.87132242428365,226.61265094838075 50.84132242428365,225.86265094838075 51.32132242428365,225.16265094838073 C 51.49132242428365,224.93265094838074 51.32132242428365,225.01265094838072 52.46132242428365,224.61265094838075 L 54.15132242428365,223.08265094838075 L 52.90132242428365,219.18265094838074 C 52.86132242428365,218.54265094838073 52.80132242428365,218.79265094838073 53.37132242428365,217.43265094838074 C 54.12132242428365,215.57265094838073 53.81132242428365,214.25265094838073 52.25132242428365,212.60265094838073 L 51.45132242428365,211.80265094838074 C 50.61132242428365,210.94265094838073 50.27132242428365,210.21265094838074 50.07132242428365,208.81265094838074 L 50.07132242428365,208.81265094838074 M 60.07132242428365,260.43265094838074 L 60.06132242428365,260.43265094838074 C 61.06132242428365,261.12265094838074 60.17132242428365,260.68265094838074 66.26132242428366,263.5126509483807 C 70.19132242428364,265.3326509483807 71.77132242428365,266.69265094838073 71.94132242428364,268.38265094838073 C 71.97132242428364,269.30265094838074 71.26132242428366,270.44265094838073 70.10132242428364,271.3326509483807 C 69.78132242428364,271.56265094838074 69.55132242428365,271.73265094838075 69.23132242428366,271.9526509483807 C 65.92132242428366,269.18265094838074 66.48132242428366,269.5926509483807 65.35132242428364,269.0326509483807 C 64.10132242428364,268.4026509483807 64.41132242428364,268.5126509483807 63.16132242428365,268.2826509483807 C 62.64132242428365,268.18265094838074 62.24132242428365,268.1426509483807 61.70132242428365,268.12265094838074 L 62.79132242428365,270.0826509483807 L 64.73132242428366,272.2126509483807 C 66.23132242428366,273.87265094838074 66.90132242428365,275.8426509483807 66.91132242428364,278.7126509483807 C 66.92132242428366,280.48265094838075 66.27132242428365,283.2126509483807 64.82132242428364,287.56265094838074 C 63.29132242428365,292.11265094838075 61.55132242428365,294.87265094838074 59.67132242428365,295.69265094838073 C 59.31132242428365,295.85265094838076 59.01132242428365,295.94265094838073 58.61132242428365,296.0326509483807 C 58.04132242428365,294.0326509483807 58.12132242428365,294.54265094838075 58.07132242428365,292.4626509483807 C 57.96132242428365,288.5926509483807 58.34132242428365,286.00265094838073 59.60132242428365,281.87265094838074 C 60.44132242428365,279.1426509483807 60.26132242428365,278.55265094838074 57.92132242428365,276.19265094838073 C 56.33132242428365,274.5926509483807 56.15132242428365,273.72265094838076 56.26132242428365,268.18265094838074 C 56.34132242428365,264.29265094838075 56.21132242428365,263.75265094838073 54.29132242428365,259.99265094838074 C 52.64132242428365,256.74265094838074 52.22132242428365,254.41265094838073 52.46132242428365,249.94265094838073 C 52.47132242428365,249.35265094838073 52.47132242428365,249.50265094838073 52.48132242428365,248.91265094838073 C 52.51132242428365,248.45265094838072 52.75132242428365,248.28265094838073 53.18132242428365,248.40265094838074 C 54.00132242428365,248.64265094838072 55.36132242428365,250.84265094838074 55.93132242428365,252.82265094838073 C 56.23132242428365,253.97265094838073 56.15132242428365,253.68265094838074 56.45132242428365,254.82265094838073 C 57.17132242428365,257.54265094838075 58.18132242428365,259.10265094838076 60.07132242428365,260.43265094838074 L 60.07132242428365,260.43265094838074 M 90.97132242428364,277.38265094838073 L 90.96132242428365,277.38265094838073 C 91.67132242428366,277.31265094838074 92.34132242428365,277.5826509483807 92.62132242428365,278.06265094838074 C 93.09132242428365,278.98265094838075 92.97132242428364,279.81265094838074 92.17132242428366,281.05265094838074 C 91.95132242428366,281.3926509483807 91.76132242428366,281.6426509483807 91.51132242428366,281.9526509483807 L 89.98132242428366,281.25265094838073 C 89.11132242428366,280.63265094838073 88.81132242428365,280.0126509483807 88.99132242428365,279.2026509483807 C 89.26132242428366,278.31265094838074 90.14132242428366,277.49265094838074 90.97132242428364,277.38265094838073 L 90.97132242428364,277.38265094838073 M 93.97132242428364,266.8226509483807 L 93.97132242428364,266.8226509483807 C 96.28132242428364,266.80265094838074 97.25132242428364,267.4626509483807 97.26132242428366,269.0226509483807 C 97.22132242428364,270.8426509483807 96.02132242428365,272.19265094838073 94.52132242428365,272.12265094838074 C 92.60132242428364,271.99265094838074 90.82132242428364,270.18265094838074 90.83132242428366,268.36265094838075 L 90.88132242428364,267.3226509483807 C 92.00132242428364,266.85265094838076 91.73132242428366,266.91265094838076 92.78132242428364,266.8426509483807 C 93.02132242428365,266.8326509483807 93.26132242428366,266.8226509483807 93.97132242428364,266.8226509483807 L 93.97132242428364,266.8226509483807 M 165.92132242428363,18.112650948380725 L 165.91132242428364,18.112650948380725 C 166.36132242428366,18.662650948380723 166.50132242428364,18.862650948380725 166.48132242428363,18.912650948380723 C 166.42132242428363,19.042650948380725 166.06132242428365,18.892650948380727 165.52132242428365,18.512650948380724 L 157.48132242428363,12.182650948380724 C 149.69132242428364,6.052650948380724 140.48132242428363,2.072650948380724 132.79132242428363,1.5226509483807242 C 127.23132242428366,1.1226509483807243 121.31132242428365,2.4926509483807244 113.11132242428366,6.062650948380724 C 109.74132242428365,7.5326509483807245 109.15132242428365,7.902650948380725 103.97132242428364,11.782650948380724 C 98.55132242428365,15.602650948380724 99.90132242428365,14.652650948380725 94.48132242428366,18.462650948380727 C 94.28132242428364,18.612650948380725 94.40132242428365,18.532650948380727 93.62132242428365,19.002650948380726 C 93.33132242428366,19.192650948380724 93.21132242428365,19.222650948380725 93.12132242428365,19.102650948380727 C 92.99132242428365,18.95265094838072 93.14132242428366,18.70265094838072 94.01132242428366,17.612650948380725 C 98.33132242428366,12.182650948380724 104.76132242428366,7.932650948380724 113.81132242428365,4.522650948380724 C 125.25132242428364,0.2126509483807242 131.11132242428366,-0.7373490516192758 138.56132242428365,0.5026509483807242 C 145.31132242428365,1.6226509483807243 151.26132242428363,4.392650948380724 156.36132242428366,8.782650948380724 C 160.42132242428363,12.282650948380724 162.62132242428365,14.372650948380723 164.61132242428366,16.602650948380727 C 165.39132242428363,17.482650948380723 165.48132242428363,17.582650948380724 165.92132242428363,18.112650948380725 L 165.92132242428363,18.112650948380725 M 174.32132242428364,189.28265094838073 L 174.34132242428365,189.29265094838073 L 175.16132242428364,189.87265094838074 C 175.78132242428364,190.32265094838073 175.89132242428363,190.46265094838074 175.77132242428365,190.69265094838073 C 175.65132242428365,190.90265094838074 175.39132242428363,190.88265094838073 175.06132242428365,190.63265094838073 C 174.75132242428364,190.40265094838074 172.31132242428365,189.56265094838074 171.02132242428365,189.23265094838072 C 167.51132242428363,188.32265094838073 164.64132242428363,187.92265094838072 160.23132242428363,187.73265094838072 L 142.18132242428365,186.96265094838074 L 140.21132242428365,186.78265094838073 C 137.03132242428364,186.48265094838072 132.30132242428365,186.60265094838073 127.69132242428364,187.10265094838073 C 125.79132242428366,187.30265094838074 122.14132242428366,187.99265094838074 115.24132242428365,189.45265094838072 L 110.66132242428364,190.42265094838072 C 106.76132242428366,191.25265094838073 107.29132242428366,191.14265094838072 106.93132242428365,191.19265094838073 L 105.32132242428364,191.39265094838072 C 103.97132242428364,191.57265094838073 103.10132242428364,191.46265094838074 103.04132242428366,191.11265094838075 C 103.01132242428366,190.93265094838074 103.17132242428366,190.91265094838073 104.29132242428366,190.94265094838073 C 105.23132242428366,190.94265094838073 104.32132242428364,191.15265094838074 110.70132242428366,189.42265094838072 C 112.55132242428365,188.99265094838074 112.09132242428365,189.10265094838073 113.94132242428364,188.67265094838072 C 117.25132242428364,187.72265094838073 116.42132242428366,187.95265094838072 119.74132242428365,187.03265094838073 C 124.59132242428365,185.66265094838073 130.45132242428363,184.68265094838074 134.49132242428365,184.56265094838074 C 138.74132242428365,184.42265094838072 137.96132242428365,184.43265094838074 139.90132242428365,184.49265094838074 L 150.74132242428365,184.54265094838073 C 158.44132242428364,184.58265094838075 162.67132242428363,185.04265094838073 167.64132242428363,186.40265094838074 C 170.27132242428365,187.11265094838075 172.53132242428364,188.09265094838074 174.32132242428364,189.28265094838073 L 174.32132242428364,189.28265094838073 M 133.31132242428365,200.94265094838073 L 133.31132242428365,200.94265094838073 C 135.22132242428364,200.34265094838074 134.29132242428363,200.74265094838074 139.80132242428365,198.13265094838073 C 142.33132242428366,196.93265094838074 142.29132242428363,196.93265094838074 144.47132242428364,198.66265094838073 L 145.13132242428364,199.13265094838073 C 145.61132242428366,199.46265094838074 145.86132242428366,199.68265094838074 145.86132242428366,199.74265094838074 C 145.86132242428366,199.78265094838073 145.84132242428365,199.80265094838074 145.80132242428365,199.82265094838073 C 145.56132242428365,199.94265094838073 145.94132242428364,200.10265094838073 143.18132242428365,198.74265094838074 C 143.12132242428365,198.70265094838072 142.33132242428366,198.31265094838074 142.26132242428363,198.28265094838073 C 139.95132242428363,199.66265094838073 140.53132242428364,199.32265094838073 138.21132242428365,200.68265094838074 C 133.55132242428365,203.43265094838074 128.94132242428364,204.35265094838073 122.12132242428365,203.91265094838073 C 116.34132242428365,203.53265094838073 111.25132242428364,201.73265094838072 108.39132242428366,199.03265094838073 C 107.86132242428366,198.53265094838073 107.87132242428365,198.54265094838073 107.91132242428364,198.44265094838073 C 107.93132242428365,198.39265094838072 108.00132242428364,198.38265094838073 108.13132242428364,198.42265094838072 C 108.19132242428364,198.43265094838074 108.13132242428364,198.40265094838074 108.56132242428365,198.67265094838072 C 110.57132242428364,199.88265094838073 113.93132242428365,201.00265094838073 117.04132242428366,201.51265094838072 C 121.50132242428364,202.24265094838074 126.52132242428365,202.28265094838073 130.49132242428365,201.62265094838074 C 131.45132242428363,201.46265094838074 132.33132242428366,201.25265094838073 133.31132242428365,200.94265094838073 L 133.31132242428365,200.94265094838073 M 114.79132242428366,151.20265094838072 L 114.79132242428366,151.19265094838073 L 114.73132242428366,152.59265094838074 C 114.68132242428365,153.81265094838074 114.75132242428364,154.03265094838073 115.98132242428366,156.56265094838074 C 116.51132242428366,157.64265094838072 116.46132242428365,157.59265094838074 118.67132242428366,158.95265094838072 C 120.39132242428366,160.00265094838073 121.81132242428365,161.16265094838073 122.87132242428365,162.38265094838073 C 124.27132242428365,163.99265094838074 124.45132242428366,164.46265094838074 124.15132242428365,165.75265094838073 C 123.73132242428366,167.32265094838073 121.62132242428365,168.88265094838073 119.40132242428365,169.26265094838072 C 115.45132242428366,169.95265094838072 112.41132242428364,168.39265094838072 111.09132242428365,165.03265094838073 C 110.61132242428366,163.79265094838073 110.58132242428366,164.13265094838073 111.43132242428365,160.48265094838072 C 111.66132242428364,159.50265094838073 111.59132242428365,159.95265094838072 111.91132242428364,157.33265094838075 C 111.99132242428365,156.68265094838074 111.92132242428366,156.95265094838072 112.44132242428364,155.43265094838074 C 112.67132242428366,154.59265094838074 112.61132242428366,154.80265094838074 112.83132242428366,153.96265094838074 C 113.08132242428366,153.20265094838072 113.02132242428365,153.39265094838072 113.25132242428364,152.62265094838074 C 113.74132242428365,151.03265094838073 113.50132242428364,149.34265094838074 112.66132242428364,148.52265094838074 C 112.48132242428366,148.32265094838073 112.45132242428366,148.10265094838073 112.60132242428364,148.00265094838073 C 112.67132242428366,147.96265094838074 112.83132242428366,147.96265094838074 112.96132242428365,148.02265094838074 C 114.02132242428365,148.48265094838072 114.74132242428365,149.72265094838073 114.79132242428366,151.20265094838072 L 114.79132242428366,151.20265094838072 M 222.66132242428364,178.46265094838074 L 222.66132242428364,178.46265094838074 C 225.48132242428363,183.50265094838073 227.62132242428365,186.46265094838074 235.23132242428363,195.87265094838074 C 240.47132242428364,202.34265094838074 240.69132242428364,202.67265094838072 242.21132242428365,206.77265094838074 L 244.54132242428363,213.05265094838074 C 246.58132242428366,217.82265094838073 246.82132242428364,220.54265094838073 245.55132242428365,224.38265094838073 C 244.94132242428364,226.22265094838073 245.04132242428363,226.04265094838073 241.56132242428365,231.02265094838074 C 239.52132242428365,233.96265094838074 239.33132242428366,234.68265094838074 238.83132242428366,241.48265094838072 C 238.47132242428364,246.35265094838073 236.25132242428364,253.36265094838075 233.88132242428364,257.1526509483807 C 231.96132242428365,260.19265094838073 229.49132242428365,261.6526509483807 226.87132242428365,261.2726509483807 C 226.42132242428363,261.2026509483807 226.09132242428365,261.1426509483807 225.65132242428365,261.04265094838075 C 226.17132242428363,258.85265094838076 225.97132242428364,259.44265094838073 227.02132242428365,256.8926509483807 C 229.87132242428365,249.96265094838074 230.23132242428363,248.85265094838073 230.38132242428364,246.77265094838074 C 230.58132242428366,243.82265094838073 229.12132242428365,241.95265094838072 226.77132242428365,242.16265094838073 C 225.41132242428364,242.34265094838074 224.58132242428366,243.30265094838074 222.58132242428366,247.00265094838073 C 221.17132242428363,249.59265094838074 220.62132242428365,250.09265094838074 218.45132242428363,250.69265094838073 C 215.82132242428364,251.42265094838072 212.41132242428364,251.01265094838072 210.42132242428363,249.72265094838073 C 209.00132242428364,248.80265094838074 208.68132242428365,248.14265094838072 208.59132242428365,245.96265094838074 C 208.48132242428363,243.50265094838073 207.63132242428364,242.68265094838074 204.83132242428366,242.36265094838075 C 202.67132242428363,242.11265094838075 201.81132242428365,242.21265094838074 197.95132242428363,243.13265094838073 C 192.91132242428364,244.32265094838073 190.36132242428366,244.05265094838074 188.61132242428366,242.11265094838075 C 187.61132242428366,240.96265094838074 187.31132242428365,240.12265094838074 187.07132242428364,237.87265094838074 C 186.68132242428365,234.24265094838074 185.98132242428363,233.70265094838072 177.88132242428364,230.86265094838075 L 175.48132242428363,229.97265094838073 C 171.76132242428363,228.57265094838073 171.03132242428364,228.83265094838075 167.94132242428364,232.68265094838074 L 166.03132242428364,234.90265094838074 C 164.50132242428364,236.69265094838073 164.36132242428366,237.17265094838072 164.21132242428365,240.99265094838074 C 164.10132242428364,243.62265094838074 162.57132242428364,246.44265094838073 160.32132242428364,248.17265094838072 C 159.67132242428363,248.66265094838073 160.21132242428365,248.39265094838072 156.57132242428364,250.05265094838074 C 153.95132242428363,251.25265094838073 153.75132242428364,251.64265094838072 153.83132242428366,255.39265094838072 C 153.88132242428364,257.87265094838074 153.73132242428363,258.17265094838075 150.11132242428366,262.9626509483807 C 148.69132242428364,264.8426509483807 148.59132242428365,265.04265094838075 147.17132242428363,268.68265094838074 C 146.13132242428364,271.38265094838073 145.06132242428365,272.29265094838075 142.50132242428364,272.68265094838074 C 139.19132242428364,273.19265094838073 137.68132242428365,272.10265094838076 136.59132242428365,268.38265094838073 C 135.84132242428365,265.8226509483807 135.89132242428363,265.9026509483807 132.78132242428364,262.23265094838075 C 130.19132242428364,259.17265094838075 130.00132242428364,258.2026509483807 130.52132242428365,250.54265094838073 C 130.58132242428366,249.11265094838075 130.56132242428365,249.47265094838073 130.63132242428364,248.04265094838073 C 130.68132242428365,246.95265094838072 130.65132242428365,247.30265094838074 130.84132242428365,245.57265094838073 C 130.95132242428363,244.56265094838074 130.97132242428364,244.61265094838075 129.24132242428365,242.56265094838074 C 127.92132242428366,241.00265094838073 127.88132242428364,240.62265094838074 128.62132242428365,236.41265094838073 C 128.79132242428363,235.43265094838074 128.74132242428365,236.09265094838074 129.03132242428364,231.81265094838074 C 129.44132242428364,225.75265094838073 129.85132242428364,224.76265094838072 132.81132242428365,222.63265094838073 C 135.21132242428365,220.91265094838073 135.43132242428365,220.55265094838074 136.02132242428365,217.36265094838075 C 136.42132242428363,215.16265094838073 136.89132242428363,214.44265094838073 138.68132242428365,213.28265094838073 C 141.09132242428365,212.04265094838073 140.49132242428365,212.35265094838073 142.88132242428364,211.10265094838073 C 146.19132242428364,209.36265094838075 147.16132242428364,207.68265094838074 146.89132242428363,204.16265094838073 C 146.76132242428363,202.45265094838072 146.78132242428364,203.02265094838074 146.74132242428365,200.19265094838073 L 152.58132242428366,201.17265094838072 C 157.70132242428363,202.02265094838074 159.62132242428365,201.11265094838075 162.97132242428364,196.22265094838073 C 166.23132242428363,191.46265094838074 167.11132242428366,190.75265094838073 169.15132242428365,191.24265094838074 C 170.53132242428364,191.66265094838073 170.18132242428365,191.56265094838074 171.57132242428364,191.97265094838073 C 178.49132242428365,194.01265094838072 183.00132242428364,191.71265094838074 185.16132242428364,185.05265094838074 C 186.72132242428364,180.22265094838073 186.91132242428364,175.29265094838073 185.68132242428365,170.99265094838074 C 184.71132242428365,167.59265094838074 184.29132242428363,166.87265094838074 179.50132242428364,160.44265094838073 C 176.39132242428363,156.27265094838074 174.98132242428363,153.44265094838073 174.76132242428363,150.96265094838074 C 174.75132242428364,150.56265094838074 174.79132242428363,150.44265094838073 174.96132242428365,150.32265094838073 C 175.31132242428365,150.09265094838074 175.96132242428365,150.16265094838073 176.73132242428363,150.50265094838073 L 181.53132242428364,152.63265094838073 C 181.66132242428364,151.23265094838072 181.59132242428365,151.52265094838074 181.98132242428363,150.60265094838073 C 182.85132242428364,148.59265094838074 184.79132242428363,147.90265094838074 186.84132242428365,148.86265094838075 C 187.34132242428365,149.09265094838074 187.73132242428363,149.30265094838074 188.21132242428365,149.58265094838075 L 187.91132242428364,146.25265094838073 C 187.44132242428364,141.11265094838075 187.78132242428364,139.63265094838073 189.61132242428366,138.83265094838075 C 190.67132242428363,138.40265094838074 192.30132242428365,138.59265094838074 193.44132242428364,139.25265094838073 C 194.28132242428364,139.75265094838073 193.84132242428365,139.36265094838075 196.50132242428364,141.94265094838073 C 197.78132242428364,143.17265094838072 197.07132242428364,142.73265094838072 201.46132242428365,144.97265094838073 C 204.28132242428364,146.41265094838073 205.29132242428363,147.41265094838073 210.29132242428363,153.71265094838074 L 214.22132242428364,158.99265094838074 C 217.41132242428364,163.30265094838074 217.65132242428365,163.82265094838073 220.06132242428365,171.96265094838074 C 220.93132242428365,174.92265094838072 221.57132242428364,176.51265094838072 222.66132242428364,178.46265094838074 L 222.66132242428364,178.46265094838074 M 165.57132242428364,152.74265094838074 L 165.57132242428364,152.76265094838072 C 165.49132242428365,150.41265094838073 165.65132242428365,149.79265094838073 166.36132242428366,149.59265094838074 C 166.69132242428364,149.50265094838073 166.72132242428364,149.61265094838075 166.69132242428364,150.69265094838073 C 166.65132242428365,151.88265094838073 166.44132242428364,150.85265094838073 168.11132242428366,157.92265094838072 C 168.95132242428363,161.46265094838074 169.03132242428364,163.81265094838074 168.41132242428364,166.28265094838073 C 167.71132242428365,169.06265094838074 165.40132242428365,170.29265094838073 161.66132242428364,169.89265094838072 C 159.26132242428363,169.63265094838073 157.03132242428364,168.21265094838074 156.37132242428365,166.52265094838074 C 155.92132242428363,165.21265094838074 156.39132242428363,164.07265094838073 157.94132242428364,162.71265094838074 C 158.64132242428363,162.09265094838074 158.22132242428364,162.40265094838074 160.86132242428366,160.56265094838074 C 163.99132242428365,158.39265094838072 165.56132242428365,155.96265094838074 165.57132242428364,153.30265094838074 C 165.57132242428364,153.09265094838074 165.57132242428364,153.00265094838073 165.57132242428364,152.74265094838074 L 165.57132242428364,152.74265094838074 M 216.23132242428363,35.85265094838073 L 216.23132242428363,35.85265094838073 C 219.33132242428366,34.28265094838073 218.92132242428363,34.41265094838072 230.00132242428364,31.582650948380724 C 235.18132242428365,30.252650948380726 239.14132242428363,29.622650948380723 243.56132242428365,29.402650948380725 C 248.23132242428363,29.182650948380726 252.95132242428363,30.49265094838072 255.45132242428363,32.70265094838073 C 258.57132242428366,35.45265094838073 260.03132242428364,41.112650948380725 259.4813224242837,48.332650948380724 C 259.15132242428365,52.652650948380725 257.53132242428364,55.182650948380726 253.03132242428364,58.37265094838072 C 249.77132242428365,60.682650948380726 247.63132242428364,63.542650948380725 244.75132242428364,69.45265094838072 C 240.87132242428365,77.40265094838072 239.10132242428364,78.84265094838072 232.54132242428363,79.36265094838072 C 229.75132242428364,79.58265094838072 229.50132242428364,79.56265094838072 219.27132242428365,78.44265094838072 L 209.65132242428365,77.51265094838072 C 198.48132242428363,76.43265094838073 192.96132242428365,78.25265094838072 191.96132242428365,83.36265094838072 C 191.72132242428364,84.59265094838072 191.67132242428363,84.27265094838071 192.79132242428363,88.43265094838073 C 193.95132242428363,92.73265094838072 193.16132242428364,95.67265094838072 189.02132242428365,102.53265094838072 C 184.79132242428363,109.54265094838073 184.15132242428365,111.67265094838072 182.55132242428365,124.10265094838071 C 181.79132242428363,130.04265094838073 182.04132242428363,128.87265094838074 179.69132242428364,137.48265094838072 C 179.27132242428365,139.03265094838073 179.38132242428364,138.34265094838074 178.90132242428365,142.32265094838073 C 178.38132242428364,146.68265094838074 177.35132242428364,147.93265094838074 174.89132242428363,147.19265094838073 C 172.01132242428363,146.26265094838072 170.24132242428365,143.83265094838075 167.76132242428363,137.41265094838073 C 165.57132242428364,131.75265094838073 165.25132242428364,130.27265094838074 164.67132242428363,123.38265094838071 C 164.03132242428364,115.71265094838071 163.98132242428363,114.77265094838071 163.86132242428366,108.43265094838073 C 163.76132242428363,103.44265094838072 163.76132242428363,104.80265094838072 163.85132242428364,98.87265094838072 L 163.89132242428363,95.93265094838073 C 163.92132242428363,94.04265094838073 163.91132242428364,94.51265094838072 163.95132242428363,92.62265094838072 C 164.01132242428363,89.89265094838072 164.06132242428365,90.50265094838072 163.20132242428363,83.14265094838072 C 162.61132242428366,78.06265094838072 163.06132242428365,74.04265094838073 164.57132242428364,70.98265094838072 C 165.02132242428365,70.08265094838072 164.55132242428365,70.81265094838072 167.86132242428366,65.86265094838072 C 169.42132242428363,63.53265094838073 170.31132242428365,61.73265094838072 173.32132242428364,54.80265094838072 C 174.51132242428363,52.05265094838072 173.93132242428365,53.152650948380725 177.37132242428365,47.082650948380724 C 180.00132242428364,42.42265094838073 180.32132242428364,39.292650948380725 178.53132242428364,35.682650948380726 C 177.05132242428365,32.692650948380724 174.92132242428363,29.712650948380727 171.52132242428365,25.852650948380727 C 169.55132242428365,23.63265094838072 168.53132242428364,22.13265094838072 168.23132242428363,21.06265094838072 C 168.08132242428366,20.49265094838072 168.00132242428364,20.042650948380725 167.97132242428364,19.45265094838072 L 170.36132242428366,21.172650948380728 L 172.87132242428365,23.752650948380726 C 173.66132242428364,24.56265094838072 173.18132242428365,24.162650948380723 176.21132242428365,26.512650948380724 C 180.06132242428365,29.49265094838072 181.70132242428363,31.582650948380724 184.73132242428363,37.35265094838073 C 187.48132242428363,42.582650948380724 188.98132242428363,44.502650948380726 191.86132242428366,46.502650948380726 C 195.91132242428364,49.30265094838072 199.48132242428363,49.182650948380726 203.19132242428364,46.14265094838073 L 207.57132242428364,42.05265094838072 C 210.16132242428364,39.62265094838072 213.49132242428365,37.24265094838073 216.23132242428363,35.85265094838073 L 216.23132242428363,35.85265094838073 M 186.14132242428363,72.40265094838072 L 186.15132242428365,72.40265094838072 C 185.85132242428364,72.43265094838073 185.70132242428363,72.50265094838072 185.56132242428365,72.67265094838072 C 185.12132242428365,73.25265094838072 185.17132242428363,73.20265094838072 184.95132242428363,73.30265094838072 C 184.67132242428363,73.41265094838072 184.38132242428364,73.35265094838071 184.20132242428363,73.13265094838071 C 183.95132242428363,72.79265094838073 184.01132242428363,72.87265094838072 183.76132242428363,72.53265094838072 C 183.50132242428364,72.34265094838072 182.94132242428364,72.42265094838072 182.73132242428363,72.67265094838072 C 181.94132242428364,73.72265094838072 182.78132242428364,76.23265094838072 184.44132242428364,77.78265094838072 C 184.93132242428365,78.24265094838071 186.02132242428365,78.75265094838072 186.61132242428366,78.81265094838072 C 186.98132242428363,78.83265094838072 187.28132242428364,78.77265094838071 187.28132242428364,78.68265094838073 C 187.28132242428364,78.62265094838072 187.20132242428363,78.58265094838072 187.06132242428365,78.55265094838072 C 186.31132242428365,78.40265094838072 185.45132242428363,77.83265094838072 184.91132242428364,77.11265094838072 C 184.33132242428366,76.33265094838072 183.97132242428364,74.89265094838072 184.18132242428365,74.20265094838072 C 184.25132242428364,73.96265094838071 185.12132242428365,73.88265094838071 185.39132242428363,74.09265094838072 C 185.69132242428364,74.33265094838072 185.62132242428365,74.27265094838071 185.92132242428363,74.51265094838072 C 186.64132242428363,74.64265094838072 187.31132242428365,74.12265094838072 187.28132242428364,73.46265094838071 C 187.24132242428365,72.73265094838072 186.85132242428364,72.37265094838072 186.14132242428363,72.40265094838072 L 186.14132242428363,72.40265094838072 M 191.87132242428365,71.17265094838072 L 191.87132242428365,71.16265094838072 C 191.80132242428365,71.13265094838071 191.72132242428364,71.16265094838072 191.69132242428364,71.22265094838072 C 191.67132242428363,71.28265094838072 191.67132242428363,71.35265094838071 191.70132242428363,71.43265094838073 L 192.25132242428364,73.08265094838072 C 192.43132242428365,74.48265094838072 192.40132242428365,74.31265094838072 192.47132242428364,74.31265094838072 L 192.62132242428365,73.96265094838071 C 192.87132242428365,73.14265094838072 192.41132242428364,71.44265094838072 191.87132242428365,71.17265094838072 L 191.87132242428365,71.17265094838072 M 166.11132242428366,251.35265094838073 L 166.12132242428365,251.35265094838073 C 166.94132242428364,251.36265094838075 167.73132242428363,251.79265094838073 168.14132242428363,252.44265094838073 C 168.75132242428364,253.47265094838073 168.73132242428363,254.08265094838075 168.04132242428363,255.43265094838074 C 167.84132242428365,255.83265094838075 167.74132242428365,256.0226509483807 167.54132242428363,256.41265094838076 L 166.23132242428363,255.76265094838072 C 165.69132242428364,255.28265094838073 165.37132242428365,254.75265094838073 164.78132242428364,253.35265094838073 L 164.38132242428364,252.40265094838074 C 165.12132242428365,251.54265094838073 164.96132242428365,251.68265094838074 165.50132242428364,251.46265094838074 C 165.73132242428363,251.38265094838073 165.86132242428366,251.35265094838073 166.11132242428366,251.35265094838073 L 166.11132242428366,251.35265094838073 M 171.09132242428365,233.74265094838074 L 171.09132242428365,233.74265094838074 C 173.48132242428363,233.85265094838073 174.93132242428365,235.52265094838074 174.89132242428363,238.10265094838073 C 174.88132242428364,238.81265094838074 174.78132242428364,238.44265094838073 175.63132242428364,240.72265094838073 C 176.97132242428364,244.33265094838075 175.44132242428364,248.65265094838074 172.66132242428364,249.08265094838075 C 170.22132242428364,249.41265094838073 168.22132242428364,247.73265094838072 167.90132242428365,245.08265094838075 C 167.74132242428365,243.73265094838072 167.85132242428364,244.31265094838074 167.11132242428366,240.97265094838073 C 166.28132242428364,237.23265094838072 166.80132242428365,235.37265094838074 169.03132242428364,234.12265094838074 C 169.63132242428364,233.80265094838074 170.13132242428364,233.71265094838074 171.09132242428365,233.74265094838074 L 171.09132242428365,233.74265094838074 M 197.14132242428363,103.33265094838072 C 198.81132242428365,104.19265094838072 203.09132242428365,108.66265094838072 210.79132242428363,117.58265094838072 C 214.29132242428363,121.63265094838071 213.40132242428365,120.54265094838073 217.03132242428364,125.26265094838072 C 218.94132242428364,127.73265094838072 218.20132242428363,126.95265094838072 222.24132242428365,130.77265094838074 C 226.41132242428364,134.71265094838074 227.23132242428363,136.53265094838073 228.79132242428363,145.32265094838073 C 229.59132242428365,149.80265094838074 229.43132242428365,149.40265094838074 234.52132242428365,159.94265094838073 C 236.92132242428363,164.91265094838073 237.57132242428364,166.89265094838072 238.18132242428365,170.96265094838074 C 238.60132242428364,173.79265094838073 238.74132242428365,174.24265094838074 240.01132242428363,176.72265094838073 C 240.72132242428364,178.11265094838075 240.78132242428364,179.11265094838075 240.17132242428363,179.18265094838074 C 239.76132242428363,179.22265094838073 238.94132242428364,178.21265094838074 237.02132242428365,175.28265094838073 C 235.53132242428364,172.99265094838074 235.96132242428365,173.90265094838074 233.99132242428365,168.92265094838072 C 232.55132242428365,165.27265094838074 232.07132242428364,164.59265094838074 229.06132242428365,161.82265094838073 C 226.87132242428365,159.80265094838074 225.94132242428364,158.05265094838074 225.05132242428365,154.28265094838073 C 224.16132242428364,150.54265094838073 224.60132242428364,151.85265094838073 221.97132242428364,145.13265094838073 C 220.70132242428363,141.86265094838075 220.50132242428364,140.95265094838072 220.45132242428363,138.19265094838073 C 220.42132242428363,136.22265094838073 220.03132242428364,135.76265094838072 216.62132242428365,133.66265094838073 C 214.67132242428363,132.47265094838073 214.72132242428364,132.53265094838073 213.47132242428364,129.67265094838072 C 211.10132242428364,124.21265094838071 207.54132242428363,118.75265094838072 198.04132242428363,106.00265094838072 C 196.64132242428363,104.12265094838072 196.41132242428364,103.74265094838071 196.52132242428365,103.47265094838072 C 196.59132242428365,103.31265094838072 196.94132242428364,103.23265094838072 197.14132242428363,103.33265094838072 L 197.14132242428363,103.33265094838072" fill="#050505"/>
</svg>
