<?xml version="1.0" ?>
<svg xmlns="http://www.w3.org/2000/svg" xmlns:ev="http://www.w3.org/2001/xml-events" xmlns:xlink="http://www.w3.org/1999/xlink" baseProfile="full" clip-rule="evenodd" fill-rule="evenodd" height="256" image-rendering="optimizeQuality" shape-rendering="geometricPrecision" text-rendering="geometricPrecision" transform="scale(0.390625 0.390625) translate(-195.0 -128.0)" version="1.1" viewBox="0 0 390 256" width="390" xml:space="preserve">
	<defs/>
	<path d="M 96.38049840789719,98.86228072973265 L 96.3704984078972,98.86228072973265 C 98.88049840789719,96.17228072973265 98.2504984078972,96.85228072973266 100.74049840789719,94.15228072973265 C 102.5504984078972,92.19228072973266 102.63049840789719,91.80228072973266 101.85049840789719,88.36228072973265 C 100.4004984078972,81.94228072973266 101.2304984078972,83.32228072973265 96.0204984078972,78.73228072973265 C 79.4804984078972,64.19228072973266 81.2204984078972,65.59228072973265 76.0204984078972,62.64228072973266 C 68.0504984078972,58.12228072973266 62.3204984078972,56.84228072973266 50.8104984078972,57.01228072973266 C 34.4504984078972,57.25228072973266 18.970498407897196,61.66228072973266 11.210498407897196,68.30228072973266 C 4.2904984078971955,74.21228072973265 3.6904984078971954,80.98228072973265 9.250498407897195,90.42228072973265 C 13.120498407897195,96.99228072973266 24.570498407897198,106.98228072973265 38.220498407897196,115.69228072973266 C 38.8604984078972,116.10228072973266 39.330498407897196,116.39228072973265 39.980498407897194,116.77228072973266 L 51.4504984078972,110.00228072973265 C 63.150498407897196,112.96228072973265 61.6004984078972,112.47228072973265 62.290498407897196,113.46228072973265 C 62.620498407897195,113.94228072973266 62.6404984078972,113.72228072973265 62.1104984078972,114.99228072973266 C 61.9304984078972,115.45228072973265 62.2504984078972,115.95228072973265 62.720498407897196,115.94228072973266 C 62.900498407897196,115.94228072973266 62.7404984078972,116.00228072973265 63.8604984078972,115.54228072973265 C 64.4204984078972,115.34228072973265 64.2504984078972,115.21228072973265 65.9804984078972,117.09228072973265 C 66.4304984078972,117.52228072973266 66.0804984078972,117.46228072973265 68.46049840789719,117.52228072973266 C 69.74049840789719,117.60228072973266 70.10049840789719,118.37228072973265 69.9104984078972,120.71228072973265 C 69.88049840789719,121.48228072973265 69.6704984078972,121.09228072973265 71.4004984078972,123.43228072973265 C 72.9204984078972,125.47228072973265 73.1104984078972,126.08228072973264 73.8304984078972,131.07228072973265 C 74.3404984078972,134.61228072973265 75.32049840789719,135.77228072973264 78.8604984078972,136.99228072973264 C 79.82049840789719,137.36228072973265 80.0204984078972,138.23228072973265 79.35049840789719,139.13228072973266 C 79.0204984078972,139.56228072973266 79.2304984078972,139.35228072973266 77.8904984078972,140.58228072973264 C 77.0404984078972,141.39228072973265 77.0504984078972,141.99228072973264 77.9104984078972,142.58228072973264 C 78.10049840789719,142.69228072973266 77.96049840789719,142.64228072973265 78.9304984078972,142.92228072973265 C 79.5004984078972,143.12228072973267 79.60049840789719,143.22228072973266 79.5104984078972,143.45228072973265 C 78.4304984078972,146.43228072973264 62.300498407897194,145.37228072973267 52.7704984078972,141.69228072973266 C 43.7104984078972,138.19228072973266 39.4504984078972,134.14228072973265 38.6304984078972,128.25228072973266 C 38.5204984078972,127.46228072973265 38.550498407897194,127.89228072973265 38.410498407897194,125.22228072973265 C 38.220498407897196,121.55228072973266 37.660498407897194,120.90228072973265 30.560498407897192,116.00228072973265 C 20.560498407897192,109.11228072973265 12.300498407897196,102.94228072973266 9.700498407897195,100.41228072973266 C 1.3304984078971955,92.30228072973266 -1.4595015921028045,83.62228072973265 0.7004984078971954,72.49228072973266 C 1.5804984078971955,67.95228072973265 4.3304984078971955,65.20228072973265 9.800498407897196,63.39228072973266 C 36.720498407897196,54.47228072973266 48.1004984078972,52.16228072973266 62.2404984078972,52.77228072973266 C 72.6504984078972,53.22228072973266 80.3904984078972,55.86228072973266 87.3004984078972,61.33228072973266 L 89.5304984078972,63.10228072973266 C 91.1104984078972,53.39228072973266 90.7004984078972,55.18228072973266 92.4004984078972,50.54228072973266 C 97.2604984078972,37.30228072973266 107.1504984078972,27.672280729732655 121.4704984078972,22.242280729732656 C 126.07049840789719,20.492280729732656 123.9104984078972,20.772280729732657 146.9304984078972,18.97228072973266 C 153.2204984078972,18.482280729732658 157.0004984078972,17.252280729732654 159.6104984078972,14.862280729732657 L 161.3104984078972,12.792280729732656 L 158.7604984078972,8.652280729732658 C 157.5704984078972,6.722280729732657 157.4504984078972,4.662280729732657 158.4904984078972,4.082280729732657 C 159.4704984078972,3.542280729732657 160.7604984078972,3.862280729732657 162.7004984078972,5.132280729732657 C 163.7604984078972,5.762280729732657 163.89049840789718,5.692280729732657 165.4404984078972,3.712280729732657 C 169.2204984078972,-0.09771927026734296 169.2804984078972,-0.14771927026734297 170.4104984078972,0.07228072973265703 C 172.1904984078972,1.212280729732657 172.1504984078972,0.902280729732657 171.2204984078972,5.632280729732657 C 170.1604984078972,11.012280729732657 170.17049840789718,10.952280729732657 170.7404984078972,12.112280729732657 C 170.9004984078972,12.432280729732657 171.3104984078972,12.612280729732657 171.7904984078972,12.562280729732658 C 172.8204984078972,12.452280729732657 171.2604984078972,13.072280729732658 182.67049840789718,8.202280729732657 C 193.7104984078972,3.4822807297326572 199.42049840789718,3.242280729732657 207.4004984078972,7.152280729732657 C 213.1304984078972,4.762280729732657 211.9904984078972,5.112280729732657 215.3604984078972,4.702280729732657 C 221.5304984078972,3.962280729732657 231.3704984078972,5.762280729732657 250.64049840789718,11.152280729732658 C 260.7304984078972,13.972280729732658 264.7404984078972,17.43228072973266 266.1004984078972,24.492280729732656 C 266.33049840789715,26.022280729732657 266.27049840789715,25.642280729732654 266.51049840789716,27.162280729732657 C 266.9104984078972,29.76228072973266 266.34049840789714,28.43228072973266 270.4704984078972,36.48228072973266 C 271.6004984078972,38.69228072973266 271.27049840789715,37.94228072973266 272.75049840789717,41.71228072973266 C 273.13049840789716,42.54228072973266 273.58049840789715,42.53228072973266 274.77049840789715,41.64228072973266 L 277.63049840789716,38.72228072973266 C 297.7404984078972,18.162280729732657 307.81049840789717,11.562280729732658 325.5504984078972,7.272280729732657 C 330.34049840789714,6.112280729732657 330.45049840789716,6.102280729732657 342.78049840789714,6.022280729732657 C 355.51049840789716,5.942280729732657 358.9904984078972,6.182280729732657 365.65049840789715,7.592280729732657 C 376.02049840789715,9.792280729732656 385.06049840789717,14.342280729732657 388.69049840789717,19.172280729732655 C 391.5404984078972,23.172280729732655 388.0404984078972,36.73228072973266 381.13049840789716,48.43228072973266 C 378.69049840789717,52.562280729732656 366.4304984078972,70.26228072973265 351.9904984078972,90.49228072973266 C 339.2204984078972,108.38228072973266 330.4704984078972,114.73228072973265 315.4904984078972,116.95228072973265 C 305.2404984078972,118.48228072973265 296.07049840789716,115.10228072973266 290.31049840789717,107.69228072973266 L 288.4104984078972,105.25228072973265 L 287.5404984078972,112.26228072973265 C 287.19049840789717,113.24228072973266 286.40049840789715,113.71228072973265 285.5504984078972,113.44228072973266 C 284.84049840789714,113.22228072973265 284.7404984078972,113.13228072973266 283.65049840789715,111.83228072973264 C 283.4904984078972,111.65228072973265 283.26049840789716,111.56228072973265 283.1104984078972,111.62228072973265 C 282.46049840789715,111.89228072973265 282.46049840789715,111.90228072973265 282.4304984078972,117.36228072973265 L 282.4104984078972,121.34228072973265 L 277.8504984078972,121.96228072973265 C 274.78049840789714,121.87228072973265 273.3504984078972,121.48228072973265 267.1704984078972,119.06228072973265 C 265.46049840789715,118.39228072973265 264.53049840789714,118.73228072973265 264.26049840789716,120.12228072973265 C 264.1704984078972,120.70228072973265 263.9904984078972,120.30228072973266 265.4804984078972,122.91228072973266 C 268.0504984078972,127.43228072973265 268.46049840789715,129.05228072973264 270.08049840789715,140.99228072973264 C 271.15049840789715,148.86228072973265 271.89049840789716,151.84228072973266 276.02049840789715,165.20228072973265 C 279.57049840789716,176.67228072973265 279.53049840789714,181.88228072973266 275.7304984078972,201.63228072973266 C 273.90049840789715,211.13228072973266 273.52049840789715,214.91228072973266 273.50049840789717,223.88228072973266 L 273.4904984078972,226.22228072973266 L 269.2404984078972,229.07228072973265 C 265.7904984078972,230.89228072973265 266.3004984078972,230.77228072973264 259.78049840789714,231.29228072973265 C 255.2704984078972,231.65228072973264 256.76049840789716,230.98228072973265 249.3204984078972,235.98228072973265 C 245.17049840789718,238.77228072973264 242.7904984078972,239.90228072973264 226.2304984078972,247.03228072973266 C 221.2704984078972,249.17228072973265 222.7604984078972,248.38228072973266 215.7604984078972,252.57228072973265 C 210.8104984078972,255.53228072973266 207.0904984078972,256.00228072973266 198.4504984078972,254.76228072973265 L 185.3504984078972,252.02228072973264 C 178.6504984078972,250.61228072973265 175.7804984078972,250.66228072973266 164.5704984078972,252.35228072973266 C 149.0804984078972,254.70228072973265 130.8104984078972,248.14228072973265 121.2604984078972,236.80228072973264 C 119.5504984078972,234.55228072973264 119.9804984078972,235.11228072973265 118.2504984078972,232.87228072973267 C 116.9204984078972,231.14228072973265 116.8004984078972,231.09228072973266 113.1504984078972,230.78228072973266 C 100.1204984078972,229.70228072973265 102.1604984078972,229.78228072973266 98.9104984078972,230.27228072973264 C 97.2804984078972,230.51228072973265 96.6504984078972,230.70228072973265 94.6904984078972,231.49228072973264 L 92.63049840789719,232.33228072973264 L 89.5104984078972,229.56228072973266 C 86.35049840789719,225.62228072973267 83.4204984078972,216.86228072973265 82.7904984078972,209.42228072973265 C 81.4504984078972,193.55228072973264 81.5504984078972,196.50228072973266 82.0904984078972,188.80228072973264 C 82.2704984078972,184.57228072973265 82.2204984078972,185.62228072973267 82.4304984078972,181.39228072973265 C 82.9704984078972,169.86228072973265 83.10049840789719,167.82228072973265 83.6804984078972,161.57228072973265 L 84.2504984078972,153.26228072973265 C 84.7504984078972,145.92228072973265 84.63049840789719,146.91228072973266 85.0404984078972,146.36228072973265 C 85.5604984078972,145.69228072973266 86.7704984078972,145.80228072973264 87.2504984078972,146.55228072973264 C 88.6404984078972,148.69228072973266 89.7504984078972,156.58228072973264 89.8304984078972,164.85228072973266 C 89.9004984078972,173.53228072973266 90.2604984078972,169.14228072973265 87.35049840789719,195.53228072973266 C 86.0204984078972,207.64228072973265 87.5304984078972,218.74228072973264 91.4804984078972,225.86228072973265 C 92.2204984078972,227.11228072973265 92.4404984078972,227.22228072973266 93.9104984078972,227.04228072973265 C 94.85049840789719,226.62228072973267 95.1204984078972,225.86228072973265 95.5004984078972,222.46228072973264 C 95.7804984078972,220.03228072973266 95.8404984078972,219.92228072973265 99.6704984078972,214.46228072973264 C 106.07049840789719,205.37228072973267 106.8304984078972,191.34228072973266 101.6804984078972,177.68228072973264 C 100.3104984078972,174.05228072973264 100.9504984078972,175.36228072973265 97.1504984078972,168.50228072973266 C 96.3304984078972,167.02228072973264 96.35049840789719,165.68228072973264 97.1904984078972,165.50228072973266 L 98.6404984078972,165.82228072973265 C 102.46049840789719,166.68228072973264 106.7704984078972,166.60228072973266 109.0904984078972,165.63228072973266 C 114.96049840789719,163.18228072973264 119.4104984078972,156.00228072973266 120.1204984078972,147.85228072973266 C 120.3904984078972,144.70228072973265 120.1604984078972,143.25228072973266 119.4204984078972,143.41228072973266 C 118.9204984078972,143.51228072973265 119.2904984078972,142.91228072973266 116.8404984078972,147.67228072973265 C 114.1704984078972,152.84228072973266 111.7704984078972,154.98228072973265 109.2504984078972,154.42228072973265 C 100.0804984078972,152.39228072973265 92.6704984078972,142.77228072973264 91.3004984078972,131.10228072973266 C 90.2004984078972,121.75228072973265 91.5104984078972,113.31228072973265 94.6504984078972,109.48228072973265 C 96.2204984078972,107.70228072973265 97.7604984078972,107.74228072973266 103.4304984078972,109.71228072973265 C 105.5904984078972,110.46228072973265 105.99049840789719,110.42228072973265 106.0404984078972,109.47228072973265 C 106.07049840789719,109.06228072973265 106.2204984078972,109.46228072973265 104.9404984078972,106.66228072973266 C 103.3604984078972,103.20228072973265 103.8004984078972,101.62228072973265 106.7604984078972,100.18228072973265 C 110.4404984078972,98.39228072973265 116.24049840789719,96.75228072973265 118.9504984078972,96.73228072973265 C 119.4304984078972,96.71228072973265 119.82049840789719,96.37228072973265 119.71049840789719,96.06228072973265 C 119.4804984078972,95.40228072973265 119.4104984078972,95.39228072973265 115.6704984078972,95.37228072973265 C 112.6604984078972,95.36228072973265 111.74049840789719,95.04228072973265 111.7204984078972,94.00228072973265 C 111.7204984078972,93.44228072973266 112.6604984078972,92.63228072973266 118.3704984078972,88.23228072973265 C 129.3304984078972,79.79228072973265 137.7604984078972,77.60228072973266 146.2804984078972,80.95228072973265 C 153.0404984078972,83.62228072973265 160.8704984078972,83.09228072973265 172.2104984078972,79.20228072973265 L 179.0404984078972,76.33228072973264 C 181.6004984078972,75.25228072973265 182.1304984078972,75.28228072973265 189.0904984078972,76.89228072973265 C 193.1804984078972,77.84228072973265 189.5704984078972,77.30228072973266 214.3304984078972,80.66228072973266 C 217.4704984078972,81.09228072973265 218.1604984078972,81.42228072973265 217.9004984078972,82.39228072973265 C 217.8404984078972,82.61228072973265 217.8204984078972,82.63228072973266 217.3304984078972,83.20228072973265 C 216.9304984078972,83.71228072973265 217.1204984078972,84.28228072973265 217.7804984078972,84.50228072973265 L 223.2604984078972,85.25228072973265 C 231.6004984078972,86.39228072973265 238.7004984078972,89.28228072973265 243.1304984078972,93.33228072973264 C 249.6204984078972,99.28228072973265 251.1804984078972,109.95228072973265 246.6804984078972,117.55228072973266 C 245.1804984078972,119.81228072973265 245.5504984078972,119.25228072973265 244.0704984078972,121.52228072973266 C 241.0304984078972,126.18228072973265 240.7104984078972,128.34228072973266 242.0504984078972,135.26228072973265 C 243.5204984078972,142.85228072973266 241.3304984078972,148.89228072973265 235.7304984078972,152.74228072973264 C 231.4804984078972,155.67228072973265 225.8004984078972,155.34228072973266 219.0304984078972,151.79228072973265 C 213.3304984078972,148.80228072973264 207.1804984078972,143.02228072973264 204.1004984078972,137.76228072973265 C 203.2504984078972,136.31228072973266 202.9804984078972,135.78228072973266 201.64049840789718,132.89228072973265 C 201.3104984078972,132.24228072973264 200.8504984078972,131.90228072973264 200.5504984078972,132.09228072973266 C 199.2804984078972,132.87228072973267 201.8104984078972,138.20228072973265 205.8104984078972,143.18228072973264 C 210.0704984078972,148.49228072973264 215.8804984078972,153.32228072973265 231.2004984078972,164.29228072973265 C 248.8404984078972,176.94228072973266 256.6604984078972,184.81228072973266 261.2204984078972,194.50228072973266 C 263.9304984078972,200.27228072973264 264.58049840789715,204.79228072973265 263.9304984078972,213.51228072973265 C 263.4704984078972,219.76228072973265 263.4904984078972,220.03228072973266 264.39049840789716,221.20228072973265 L 266.14049840789716,223.46228072973264 L 269.01049840789716,219.17228072973265 C 271.39049840789716,214.12228072973267 272.00049840789717,209.53228072973266 271.65049840789715,199.37228072973267 C 271.3604984078972,190.68228072973264 270.4304984078972,185.27228072973264 268.1004984078972,178.72228072973266 L 267.01049840789716,175.92228072973265 C 265.70049840789716,172.59228072973266 265.6804984078972,172.29228072973265 266.6204984078972,167.04228072973265 C 268.4304984078972,156.95228072973265 267.76049840789716,151.21228072973264 262.46049840789715,131.27228072973264 C 260.13049840789716,122.52228072973266 260.56049840789717,124.63228072973266 259.4804984078972,116.49228072973266 C 258.2204984078972,106.99228072973266 255.0104984078972,99.86228072973265 248.17049840789718,91.36228072973265 C 243.2404984078972,85.23228072973265 238.9704984078972,82.28228072973265 230.6904984078972,79.32228072973265 C 225.2004984078972,77.35228072973266 226.4904984078972,77.66228072973266 221.6604984078972,77.20228072973265 C 220.5704984078972,77.10228072973266 221.3404984078972,77.32228072973265 216.2404984078972,75.63228072973266 C 206.5904984078972,72.44228072973266 208.6004984078972,73.24228072973266 202.14049840789718,70.06228072973265 C 189.2604984078972,63.71228072973266 182.4704984078972,62.66228072973266 167.64049840789718,64.72228072973265 C 159.5704984078972,65.84228072973265 149.1004984078972,68.52228072973266 147.7904984078972,69.81228072973265 C 147.1004984078972,70.51228072973265 147.39049840789718,70.41228072973266 145.7604984078972,70.50228072973265 C 141.3504984078972,70.99228072973266 121.8104984078972,82.75228072973265 110.3604984078972,91.81228072973265 C 94.6604984078972,104.23228072973265 91.6104984078972,108.42228072973265 88.74049840789719,121.51228072973265 C 86.7604984078972,130.53228072973266 85.0904984078972,134.89228072973265 82.8704984078972,136.87228072973267 C 82.5504984078972,137.16228072973266 82.2604984078972,137.15228072973264 81.9304984078972,136.84228072973266 C 79.2504984078972,134.30228072973264 83.9704984078972,117.68228072973265 90.3604984078972,107.13228072973266 C 92.21049840789719,104.07228072973265 93.9404984078972,101.69228072973266 96.38049840789719,98.86228072973265 L 96.38049840789719,98.86228072973265 M 101.9104984078972,44.20228072973266 L 101.74049840789719,44.242280729732656 C 101.1604984078972,44.26228072973266 100.6404984078972,44.30228072973266 99.9304984078972,44.382280729732656 C 99.63049840789719,44.68228072973266 98.0004984078972,46.57228072973266 97.7904984078972,46.87228072973266 C 95.5604984078972,49.992280729732656 96.1204984078972,48.79228072973266 93.8604984078972,55.312280729732656 L 97.8904984078972,55.83228072973266 C 104.0404984078972,56.37228072973266 107.1804984078972,58.242280729732656 109.60049840789719,62.812280729732656 C 112.0104984078972,67.34228072973265 112.2504984078972,71.20228072973265 110.32049840789719,74.07228072973265 C 107.9304984078972,77.60228072973266 108.2904984078972,77.02228072973266 107.7904984078972,78.13228072973266 C 106.4104984078972,81.25228072973265 105.7204984078972,85.22228072973265 106.3004984078972,86.78228072973265 C 106.5604984078972,87.49228072973266 107.2304984078972,87.68228072973265 108.1104984078972,87.31228072973265 C 112.5904984078972,85.05228072973266 116.3004984078972,80.79228072973265 117.9204984078972,76.04228072973265 C 120.8704984078972,67.40228072973265 119.6604984078972,58.34228072973266 114.6904984078972,51.96228072973266 C 110.71049840789719,46.85228072973266 106.2504984078972,44.14228072973266 101.9104984078972,44.20228072973266 L 101.9104984078972,44.20228072973266 M 103.7604984078972,65.20228072973265 L 103.63049840789719,65.16228072973266 C 103.0204984078972,65.05228072973266 101.4004984078972,66.77228072973266 101.2804984078972,67.64228072973265 C 101.2304984078972,68.02228072973266 101.4704984078972,68.41228072973266 101.7804984078972,68.45228072973265 C 102.4504984078972,68.54228072973265 104.1904984078972,67.28228072973265 104.4004984078972,66.55228072973266 C 104.5604984078972,66.00228072973265 104.2704984078972,65.39228072973265 103.7604984078972,65.20228072973265 L 103.7604984078972,65.20228072973265 M 158.9704984078972,208.71228072973264 L 158.9504984078972,208.73228072973265 C 151.6504984078972,209.56228072973266 150.5004984078972,209.74228072973264 143.14049840789718,211.25228072973266 C 124.5404984078972,215.07228072973265 127.3404984078972,214.33228072973264 123.5604984078972,216.43228072973264 C 124.3004984078972,218.95228072973265 124.1204984078972,218.32228072973265 124.8404984078972,220.84228072973266 C 126.7004984078972,227.34228072973266 128.4704984078972,230.42228072973265 132.9504984078972,234.96228072973264 C 139.3504984078972,241.45228072973265 149.1904984078972,245.38228072973266 160.6304984078972,246.02228072973264 L 171.4404984078972,245.84228072973266 L 172.17049840789718,234.68228072973264 C 172.3404984078972,232.14228072973265 172.9104984078972,230.67228072973265 173.7004984078972,230.77228072973264 C 173.9604984078972,230.81228072973266 174.8804984078972,232.09228072973266 175.42049840789718,233.19228072973266 C 177.39049840789718,237.20228072973265 177.0704984078972,236.59228072973266 177.6804984078972,237.49228072973264 C 182.0504984078972,243.87228072973267 189.7804984078972,247.58228072973264 198.6504984078972,247.58228072973264 C 206.3004984078972,247.58228072973264 212.92049840789718,246.28228072973266 220.0804984078972,243.40228072973264 C 229.3304984078972,239.66228072973266 237.89049840789718,233.63228072973266 242.5004984078972,227.59228072973266 L 244.5504984078972,223.79228072973265 L 244.3004984078972,223.62228072973267 C 239.9404984078972,220.50228072973266 237.3004984078972,217.90228072973264 234.7604984078972,214.19228072973266 C 231.4904984078972,209.41228072973266 230.8704984078972,208.87228072973267 228.3804984078972,208.51228072973265 C 226.5804984078972,208.30228072973264 227.1004984078972,208.26228072973265 224.7704984078972,208.76228072973265 C 224.2404984078972,208.33228072973264 223.8304984078972,208.11228072973265 223.2404984078972,207.91228072973266 C 222.7504984078972,207.75228072973266 223.8704984078972,207.83228072973264 215.4104984078972,207.35228072973266 C 210.1304984078972,207.05228072973264 211.4504984078972,207.12228072973267 206.17049840789718,206.84228072973266 C 198.2404984078972,206.16228072973266 191.2304984078972,206.03228072973266 186.7504984078972,206.47228072973266 L 181.1104984078972,207.03228072973266 C 172.5504984078972,207.01228072973265 175.7104984078972,206.77228072973264 158.9704984078972,208.71228072973264 L 158.9704984078972,208.71228072973264 M 173.9304984078972,24.732280729732658 L 173.9304984078972,24.742280729732656 C 170.8204984078972,24.962280729732655 170.7004984078972,24.97228072973266 170.5704984078972,25.242280729732656 C 170.5504984078972,25.302280729732658 170.5504984078972,25.36228072973266 170.5904984078972,25.43228072973266 C 170.8504984078972,25.90228072973266 168.7604984078972,25.76228072973266 185.2304984078972,26.36228072973266 C 188.4904984078972,26.482280729732658 189.0004984078972,26.44228072973266 189.0104984078972,26.062280729732656 C 189.0204984078972,25.952280729732657 188.9104984078972,25.922280729732655 188.3204984078972,25.822280729732654 L 186.4904984078972,25.522280729732657 C 182.4004984078972,24.532280729732655 179.3504984078972,24.33228072973266 173.9304984078972,24.732280729732658 L 173.9304984078972,24.732280729732658 M 255.9304984078972,16.412280729732657 L 255.9504984078972,16.422280729732655 L 252.2404984078972,14.622280729732656 C 247.5104984078972,20.11228072973266 248.3304984078972,19.072280729732654 246.5104984078972,21.922280729732655 C 241.8704984078972,29.212280729732655 239.5304984078972,39.90228072973266 241.6104984078972,44.28228072973266 C 242.3704984078972,45.77228072973266 242.0404984078972,45.35228072973266 243.9404984078972,47.25228072973266 C 244.7904984078972,45.95228072973266 244.5804984078972,46.27228072973266 245.42049840789718,44.97228072973266 C 246.9704984078972,42.58228072973266 248.2004984078972,41.09228072973266 250.6604984078972,38.61228072973266 C 260.0504984078972,29.15228072973266 260.1004984078972,29.08228072973266 260.1704984078972,24.702280729732657 C 260.2204984078972,20.97228072973266 258.82049840789716,18.232280729732658 255.9304984078972,16.412280729732657 L 255.9304984078972,16.412280729732657 M 245.3504984078972,57.14228072973266 L 245.3404984078972,57.132280729732656 C 244.9104984078972,57.132280729732656 244.7104984078972,57.14228072973266 244.2804984078972,57.16228072973266 C 243.9504984078972,57.78228072973266 243.7404984078972,58.22228072973266 243.4704984078972,58.85228072973266 C 242.64049840789718,60.83228072973266 242.4104984078972,63.242280729732656 242.7204984078972,66.58228072973264 C 244.5404984078972,76.30228072973266 244.0904984078972,73.87228072973265 245.9104984078972,83.59228072973265 C 253.4704984078972,90.33228072973264 253.5404984078972,90.41228072973266 256.71049840789715,95.78228072973265 C 261.3004984078972,103.55228072973266 260.70049840789716,102.58228072973264 260.88049840789716,102.59228072973265 C 261.21049840789715,102.61228072973265 261.6204984078972,101.94228072973266 261.78049840789714,101.10228072973266 C 263.84049840789714,90.84228072973265 263.96049840789715,80.84228072973265 262.1204984078972,73.21228072973265 C 260.26049840789716,65.54228072973265 255.7904984078972,60.03228072973266 249.6304984078972,57.84228072973266 C 247.39049840789718,57.04228072973266 248.0004984078972,57.14228072973266 245.3504984078972,57.14228072973266 L 245.3504984078972,57.14228072973266 M 248.6504984078972,48.90228072973266 L 248.6504984078972,48.90228072973266 C 248.4804984078972,49.08228072973266 248.4904984078972,49.07228072973266 248.3804984078972,49.22228072973266 C 246.8304984078972,51.54228072973266 246.9904984078972,52.73228072973266 249.0404984078972,54.22228072973266 C 250.42049840789718,55.08228072973266 250.9804984078972,55.22228072973266 251.2304984078972,54.77228072973266 C 251.4904984078972,54.32228072973266 250.0704984078972,48.82228072973266 249.6104984078972,48.45228072973266 C 249.3604984078972,48.25228072973266 249.1604984078972,48.34228072973266 248.6504984078972,48.90228072973266 L 248.6504984078972,48.90228072973266 M 255.1104984078972,41.45228072973266 L 255.1004984078972,41.45228072973266 C 254.3404984078972,41.76228072973266 253.9404984078972,42.29228072973266 254.0504984078972,42.87228072973266 C 254.1204984078972,43.21228072973266 253.8404984078972,43.07228072973266 256.00049840789717,43.79228072973266 L 258.01049840789716,44.46228072973266 C 259.57049840789716,45.14228072973266 259.33049840789715,45.07228072973266 259.6804984078972,44.90228072973266 C 260.09049840789714,44.69228072973266 259.9804984078972,44.422280729732655 259.27049840789715,43.80228072973266 C 257.2304984078972,42.21228072973266 255.5904984078972,41.28228072973266 255.1104984078972,41.45228072973266 L 255.1104984078972,41.45228072973266 M 366.95049840789716,13.252280729732657 L 366.9704984078972,13.252280729732657 C 364.32049840789716,12.662280729732657 362.4804984078972,12.292280729732656 360.8704984078972,12.002280729732657 C 338.88049840789716,8.132280729732656 313.20049840789716,13.442280729732657 299.8004984078972,24.642280729732654 C 293.1804984078972,30.172280729732655 289.70049840789716,35.422280729732655 288.27049840789715,42.04228072973266 C 286.2904984078972,51.23228072973266 284.1004984078972,55.79228072973266 278.31049840789717,62.79228072973266 L 270.7204984078972,71.98228072973265 C 270.9704984078972,72.52228072973266 271.13049840789716,72.90228072973265 271.34049840789714,73.46228072973265 C 273.83049840789715,80.17228072973265 275.6004984078972,87.48228072973265 276.44049840789717,94.57228072973265 C 276.8004984078972,97.69228072973266 276.6204984078972,97.29228072973265 277.71049840789715,97.33228072973264 C 279.2204984078972,97.33228072973264 279.51049840789716,97.42228072973265 280.19049840789717,98.13228072973266 C 282.4204984078972,100.60228072973266 282.1004984078972,100.29228072973265 282.4304984078972,100.28228072973265 C 282.6104984078972,100.28228072973265 282.75049840789717,99.99228072973266 282.7404984078972,99.64228072973265 C 282.63049840789716,97.11228072973265 285.19049840789717,95.09228072973265 288.1204984078972,95.42228072973265 C 290.1004984078972,95.75228072973265 291.00049840789717,96.59228072973265 291.1004984078972,98.22228072973265 C 291.25049840789717,101.63228072973266 291.6804984078972,102.88228072973266 293.02049840789715,103.86228072973265 C 293.33049840789715,104.08228072973264 293.59049840789714,103.90228072973265 293.8704984078972,103.24228072973266 C 294.8704984078972,100.34228072973265 294.6704984078972,100.71228072973265 295.6204984078972,99.96228072973265 C 296.9204984078972,99.01228072973265 297.2204984078972,99.18228072973265 298.53049840789714,101.59228072973265 C 299.82049840789716,103.94228072973266 299.50049840789717,103.35228072973266 300.77049840789715,105.70228072973265 C 302.31049840789717,108.25228072973265 304.6804984078972,110.51228072973265 305.65049840789715,110.36228072973265 C 306.7904984078972,110.18228072973265 306.50049840789717,107.53228072973265 305.0504984078972,104.91228072973266 C 302.5504984078972,100.36228072973265 302.71049840789715,100.90228072973265 302.7304984078972,97.42228072973265 C 302.75049840789717,91.91228072973266 302.83049840789715,91.07228072973265 303.3504984078972,90.34228072973265 C 304.51049840789716,88.84228072973265 305.3504984078972,88.63228072973266 307.1004984078972,89.38228072973266 C 312.56049840789717,91.71228072973265 312.81049840789717,91.78228072973265 313.27049840789715,91.16228072973266 C 313.75049840789717,90.53228072973265 313.2304984078972,90.16228072973266 308.3604984078972,87.71228072973265 C 306.7904984078972,86.52228072973266 306.69049840789717,85.29228072973265 308.07049840789716,84.06228072973265 C 310.3504984078972,82.15228072973265 312.39049840789716,82.20228072973265 316.4104984078972,84.26228072973265 C 319.9904984078972,86.10228072973266 319.52049840789715,85.88228072973266 319.70049840789716,85.80228072973266 C 320.0404984078972,85.63228072973266 320.00049840789717,85.34228072973265 319.59049840789714,84.80228072973266 C 318.08049840789715,82.81228072973265 317.9104984078972,80.87228072973265 319.20049840789716,80.32228072973265 C 327.82049840789716,77.11228072973265 334.83049840789715,79.23228072973265 339.09049840789714,86.34228072973265 L 341.46049840789715,91.59228072973265 C 342.20049840789716,90.89228072973265 342.77049840789715,90.31228072973265 343.46049840789715,89.56228072973265 C 348.94049840789717,83.53228072973265 355.0504984078972,75.53228072973265 359.58049840789715,68.42228072973265 C 369.38049840789716,53.04228072973266 377.8504984078972,38.50228072973266 381.5404984078972,30.72228072973266 C 384.20049840789716,25.11228072973266 384.1604984078972,22.15228072973266 381.40049840789715,19.502280729732654 C 378.2204984078972,16.562280729732656 374.15049840789715,14.802280729732656 366.95049840789716,13.252280729732657 L 366.95049840789716,13.252280729732657 M 32.400498407897196,67.38228072973266 L 32.400498407897196,67.38228072973266 C 36.8204984078972,66.88228072973266 42.3604984078972,66.93228072973265 43.2004984078972,67.48228072973265 C 44.1004984078972,68.08228072973264 43.8904984078972,67.83228072973264 44.720498407897196,69.25228072973265 C 45.470498407897196,70.35228072973266 46.040498407897196,70.31228072973265 48.790498407897196,69.01228072973265 C 50.2004984078972,68.40228072973265 51.470498407897196,68.91228072973266 51.5904984078972,70.13228072973266 C 51.6104984078972,70.33228072973264 51.6304984078972,70.19228072973266 51.4504984078972,71.11228072973265 C 51.2504984078972,72.28228072973265 51.730498407897194,72.57228072973265 54.1704984078972,72.75228072973265 C 56.5704984078972,72.92228072973265 56.900498407897196,73.80228072973266 56.0004984078972,77.56228072973265 L 55.1704984078972,81.04228072973265 C 64.9104984078972,81.15228072973265 63.6104984078972,81.08228072973264 64.2604984078972,81.55228072973266 C 65.2604984078972,82.26228072973265 65.0804984078972,83.30228072973266 63.730498407897194,84.72228072973265 C 60.870498407897195,87.38228072973266 61.580498407897196,86.72228072973265 58.730498407897194,89.39228072973265 C 54.2004984078972,93.65228072973265 52.290498407897196,95.77228072973266 47.6104984078972,101.80228072973266 C 45.1004984078972,105.02228072973266 43.3604984078972,105.22228072973265 35.970498407897196,103.10228072973266 C 30.840498407897194,101.63228072973266 28.970498407897196,99.04228072973265 30.910498407897194,96.11228072973265 C 31.750498407897197,94.91228072973266 31.270498407897193,95.32228072973265 34.2704984078972,93.28228072973265 C 34.8904984078972,92.83228072973264 35.0704984078972,92.49228072973266 34.8204984078972,92.27228072973266 C 34.6404984078972,92.10228072973266 34.980498407897194,92.13228072973266 32.480498407897194,92.10228072973266 C 31.110498407897197,92.04228072973265 31.150498407897196,92.07228072973265 30.070498407897198,90.27228072973266 C 29.4204984078972,89.31228072973265 29.070498407897198,89.26228072973265 23.840498407897194,89.46228072973265 C 21.630498407897193,89.55228072973266 21.310498407897192,89.40228072973265 20.610498407897197,87.97228072973265 C 20.440498407897195,86.75228072973265 21.430498407897197,85.43228072973265 23.2804984078972,84.42228072973265 C 25.910498407897194,82.99228072973266 25.620498407897195,83.26228072973265 25.310498407897192,82.51228072973265 C 24.7804984078972,81.36228072973265 21.320498407897198,79.43228072973265 20.320498407897198,79.73228072973265 L 19.2804984078972,80.26228072973265 C 18.390498407897198,80.69228072973266 17.750498407897197,80.27228072973266 17.360498407897197,79.02228072973266 C 16.340498407897194,75.03228072973265 19.900498407897196,70.70228072973265 25.800498407897194,68.76228072973265 C 27.740498407897192,68.13228072973266 29.870498407897195,67.68228072973265 32.400498407897196,67.38228072973266 L 32.400498407897196,67.38228072973266 M 353.8704984078972,26.072280729732654 L 353.9304984078972,26.072280729732654 C 361.7204984078972,27.912280729732657 365.6104984078972,32.03228072973266 365.38049840789716,38.20228072973266 C 365.2304984078972,40.382280729732656 364.6704984078972,40.83228072973266 358.5504984078972,43.61228072973266 C 354.15049840789715,45.62228072973266 350.40049840789715,47.83228072973266 349.09049840789714,49.19228072973266 C 348.4704984078972,49.78228072973266 348.39049840789716,50.21228072973266 348.83049840789715,50.492280729732656 L 351.39049840789716,50.26228072973266 C 355.33049840789715,49.90228072973266 357.34049840789714,50.19228072973266 358.82049840789716,51.34228072973266 C 359.3704984078972,51.76228072973266 359.75049840789717,52.11228072973266 360.2304984078972,52.62228072973266 L 358.1004984078972,55.69228072973266 C 352.8704984078972,61.00228072973266 343.70049840789716,64.63228072973266 335.44049840789717,64.66228072973266 C 326.69049840789717,64.69228072973266 319.00049840789717,61.51228072973266 316.4904984078972,56.812280729732656 C 315.9704984078972,55.742280729732656 316.3604984078972,55.02228072973266 317.6104984078972,54.742280729732656 L 319.01049840789716,54.64228072973266 C 320.33049840789715,54.46228072973266 320.50049840789717,54.07228072973266 320.06049840789717,52.28228072973266 C 319.5504984078972,50.242280729732656 319.76049840789716,49.65228072973266 321.3604984078972,48.672280729732655 C 322.2204984078972,48.05228072973266 322.2204984078972,48.04228072973266 321.57049840789716,46.922280729732655 C 320.1104984078972,44.29228072973266 320.4904984078972,43.53228072973266 323.8704984078972,42.312280729732656 L 326.31049840789717,41.422280729732655 C 326.4904984078972,41.08228072973266 326.39049840789716,40.73228072973266 326.0404984078972,40.53228072973266 C 325.31049840789717,40.382280729732656 325.4904984078972,40.422280729732655 324.76049840789716,40.26228072973266 C 323.6104984078972,39.94228072973266 323.00049840789717,39.21228072973266 323.09049840789714,38.28228072973266 C 323.2304984078972,36.89228072973266 324.08049840789715,36.52228072973266 327.4304984078972,36.382280729732656 L 333.7304984078972,36.132280729732656 C 333.75049840789717,30.642280729732654 333.7404984078972,32.01228072973266 333.77049840789715,26.522280729732657 C 337.1704984078972,25.572280729732654 335.89049840789716,25.742280729732656 342.7404984078972,25.29228072973266 C 346.96049840789715,25.01228072973266 350.26049840789716,25.242280729732656 353.8704984078972,26.072280729732654 L 353.8704984078972,26.072280729732654" fill="#020202"/>
</svg>
