<?xml version="1.0" ?>
<svg xmlns="http://www.w3.org/2000/svg" xmlns:ev="http://www.w3.org/2001/xml-events" xmlns:xlink="http://www.w3.org/1999/xlink" baseProfile="full" clip-rule="evenodd" fill-rule="evenodd" height="189" image-rendering="optimizeQuality" shape-rendering="geometricPrecision" text-rendering="geometricPrecision" transform="scale(0.5291005291005291 0.5291005291005291) translate(-186.5 -94.5)" version="1.1" viewBox="0 0 373 189" width="373" xml:space="preserve">
	<defs/>
	<path d="M 7.588764913264853,67.71166640938682 L 7.588764913264853,67.71166640938682 C 15.348764913264853,57.78166640938683 16.458764913264854,56.09166640938683 25.578764913264852,40.441666409386826 C 26.468764913264852,38.911666409386825 26.268764913264853,39.801666409386826 26.968764913264852,34.25166640938683 C 27.688764913264855,28.541666409386828 28.648764913264852,27.201666409386828 36.218764913264856,21.34166640938683 C 41.908764913264854,16.94166640938683 43.35876491326486,14.901666409386827 43.60876491326486,10.981666409386827 C 43.91876491326486,6.161666409386828 46.23876491326486,1.5516664093868275 48.80876491326486,0.6216664093868276 C 51.718764913264856,-0.3483335906131724 53.63876491326486,-0.2283335906131724 60.10876491326486,1.3016664093868275 C 61.30876491326486,1.5916664093868276 60.868764913264854,1.4016664093868276 63.158764913264854,2.6116664093868276 C 65.94876491326485,4.101666409386827 66.90876491326485,5.541666409386828 67.90876491326485,9.711666409386828 C 68.06876491326484,10.371666409386826 68.17876491326486,10.861666409386826 68.29876491326485,11.521666409386826 L 75.35876491326485,14.961666409386828 C 77.98876491326484,10.991666409386827 77.48876491326484,11.621666409386826 78.86876491326485,10.521666409386826 C 80.44876491326485,9.261666409386827 81.94876491326485,9.091666409386827 84.41876491326485,9.911666409386827 C 85.02876491326485,10.121666409386826 85.48876491326484,10.301666409386828 86.06876491326484,10.591666409386827 C 87.36876491326485,8.871666409386826 87.07876491326485,9.181666409386827 88.09876491326484,8.461666409386828 C 88.99876491326485,7.871666409386828 90.20876491326484,7.841666409386828 91.20876491326484,8.401666409386827 C 93.24876491326485,9.631666409386828 94.03876491326486,12.921666409386827 93.82876491326485,19.23166640938683 C 93.78876491326486,20.55166640938683 93.79876491326485,20.221666409386827 93.75876491326486,21.541666409386828 L 102.68876491326485,26.67166640938683 C 109.74876491326485,30.721666409386827 113.97876491326485,31.48166640938683 126.02876491326485,30.89166640938683 C 134.90876491326486,30.451666409386828 132.82876491326488,30.46166640938683 140.58876491326487,30.831666409386827 L 168.05876491326487,31.10166640938683 C 179.07876491326488,31.21166640938683 176.31876491326486,31.17166640938683 187.33876491326487,31.34166640938683 L 193.43876491326486,31.581666409386827 C 198.39876491326487,31.78166640938683 227.32876491326488,34.61166640938683 241.12876491326486,36.26166640938683 C 291.15876491326486,42.22166640938683 312.24876491326484,47.45166640938683 329.2087649132648,58.10166640938683 C 340.0287649132648,64.89166640938683 351.7787649132648,76.45166640938683 362.2087649132648,90.56166640938683 C 372.8987649132648,105.01166640938683 375.24876491326484,116.18166640938684 369.8887649132648,127.07166640938682 L 367.9487649132648,130.71166640938682 L 366.78876491326486,133.3816664093868 C 364.5187649132648,138.37166640938682 352.04876491326485,148.9516664093868 339.7687649132648,156.31166640938682 C 335.05876491326484,159.1316664093868 332.31876491326483,159.93166640938682 322.11876491326484,161.43166640938682 C 317.55876491326484,162.1016664093868 312.04876491326485,162.75166640938681 309.53876491326486,162.9216664093868 C 308.8387649132648,162.9716664093868 308.30876491326484,163.02166640938682 307.59876491326486,163.11166640938683 L 308.06876491326483,171.8916664093868 C 307.86876491326484,172.6716664093868 307.2787649132648,173.2616664093868 306.30876491326484,173.65166640938682 C 305.06876491326483,174.1416664093868 298.93876491326483,175.7916664093868 291.74876491326484,177.5716664093868 C 287.0087649132648,178.74166640938682 282.7087649132648,178.2916664093868 262.42876491326484,174.55166640938683 C 256.7087649132648,173.50166640938681 248.78876491326486,173.50166640938681 240.04876491326488,174.56166640938682 C 235.72876491326485,175.09166640938682 233.40876491326486,175.9116664093868 220.72876491326485,181.3816664093868 C 219.29876491326488,182.00166640938681 219.85876491326488,181.4716664093868 216.78876491326486,185.08166640938683 C 215.82876491326488,186.21166640938682 214.52876491326487,186.80166640938683 211.69876491326485,187.37166640938682 C 204.85876491326488,188.75166640938681 197.91876491326485,188.05166640938683 191.58876491326487,185.33166640938683 C 190.02876491326487,184.6716664093868 188.43876491326486,182.8916664093868 187.82876491326488,181.1416664093868 C 187.71876491326486,180.84166640938682 187.66876491326485,180.68166640938682 187.57876491326488,180.36166640938683 C 189.01876491326487,178.49166640938682 187.53876491326486,179.6916664093868 197.93876491326486,171.9516664093868 L 204.40876491326486,167.1316664093868 C 206.72876491326485,165.4116664093868 205.72876491326485,166.27166640938682 211.39876491326487,161.0716664093868 C 214.15876491326486,158.5416664093868 217.23876491326487,156.08166640938683 218.07876491326488,155.75166640938681 C 219.68876491326486,155.15166640938682 219.77876491326487,155.15166640938682 227.07876491326488,155.15166640938682 C 249.49876491326486,155.15166640938682 247.12876491326486,155.12166640938682 255.63876491326485,155.50166640938681 C 260.8387649132648,155.7316664093868 262.0887649132648,155.27166640938682 263.8887649132648,152.4816664093868 L 265.2587649132648,149.5716664093868 L 238.39876491326487,151.7316664093868 C 210.95876491326487,153.93166640938682 214.82876491326488,154.02166640938682 210.02876491326487,151.0716664093868 C 204.75876491326486,147.83166640938683 203.19876491326485,146.27166640938682 200.33876491326487,141.4116664093868 C 197.12876491326486,135.96166640938682 194.89876491326487,134.61166640938683 190.72876491326485,135.58166640938683 C 188.55876491326487,136.08166640938683 188.64876491326487,136.09166640938682 181.74876491326486,135.3516664093868 C 174.51876491326487,134.59166640938682 164.02876491326487,136.40166640938682 158.63876491326485,139.3516664093868 C 150.21876491326486,143.96166640938682 148.44876491326485,144.71166640938682 146.08876491326487,144.6616664093868 C 145.19876491326485,144.6416664093868 144.52876491326487,144.5416664093868 143.65876491326486,144.30166640938683 C 144.46876491326486,141.02166640938682 144.14876491326487,141.8516664093868 145.90876491326486,138.5116664093868 C 147.61876491326487,135.27166640938682 146.51876491326487,136.80166640938683 153.62876491326486,127.76166640938683 C 156.82876491326488,123.69166640938683 158.33876491326487,121.41166640938683 158.41876491326485,120.52166640938682 C 158.47876491326485,118.84166640938683 157.37876491326486,117.86166640938683 155.66876491326485,118.07166640938682 C 154.13876491326485,118.36166640938683 150.12876491326486,123.16166640938683 143.51876491326487,132.61166640938683 L 137.60876491326488,141.0416664093868 C 135.32876491326488,144.11166640938683 135.04876491326488,145.6616664093868 136.37876491326486,147.93166640938682 C 138.21876491326486,150.8816664093868 142.23876491326487,150.5716664093868 149.76876491326487,146.90166640938682 C 162.36876491326487,140.7616664093868 166.28876491326486,139.6016664093868 174.31876491326486,139.6716664093868 L 177.50876491326486,139.8216664093868 C 180.34876491326486,139.96166640938682 179.20876491326487,140.0716664093868 187.62876491326486,138.81166640938682 C 192.37876491326486,138.09166640938682 194.74876491326486,138.77166640938682 197.50876491326486,141.61166640938683 C 199.81876491326486,144.00166640938681 203.70876491326487,151.25166640938681 204.36876491326487,154.3916664093868 C 204.66876491326485,156.02166640938682 203.91876491326485,157.0716664093868 202.19876491326485,157.4216664093868 C 200.23876491326487,157.80166640938683 200.65876491326486,157.81166640938682 194.08876491326487,157.09166640938682 C 192.83876491326487,156.96166640938682 193.38876491326485,156.99166640938682 190.21876491326486,156.87166640938682 C 188.40876491326486,156.81166640938682 187.85876491326488,156.5116664093868 185.09876491326486,154.15166640938682 C 183.55876491326487,152.83166640938683 183.08876491326487,152.83166640938683 178.98876491326487,154.1616664093868 C 177.08876491326487,154.77166640938682 180.15876491326486,154.1316664093868 157.52876491326487,158.61166640938683 C 148.44876491326485,160.4116664093868 144.45876491326487,161.3216664093868 138.67876491326487,162.93166640938682 C 133.48876491326487,164.36166640938683 117.91876491326485,161.75166640938681 114.97876491326485,158.9516664093868 C 113.31876491326484,157.28166640938682 112.58876491326485,153.68166640938682 112.68876491326485,147.7616664093868 C 112.70876491326484,146.4516664093868 112.69876491326485,146.78166640938682 112.71876491326485,145.46166640938682 L 106.66876491326485,144.74166640938682 C 98.94876491326485,143.06166640938682 89.64876491326486,138.7216664093868 88.16876491326485,136.1016664093868 C 86.95876491326484,133.8216664093868 87.19876491326485,131.6916664093868 89.43876491326485,124.69166640938683 C 90.34876491326484,121.86166640938683 90.03876491326486,119.58166640938683 88.02876491326485,114.44166640938683 C 85.34876491326484,108.57166640938682 86.01876491326485,110.03166640938683 83.33876491326485,104.16166640938683 L 81.10876491326485,98.78166640938683 C 78.48876491326484,92.45166640938683 74.95876491326484,90.19166640938683 67.42876491326486,90.04166640938683 L 60.27876491326486,90.04166640938683 C 57.73876491326486,90.04166640938683 59.06876491326486,90.14166640938683 50.968764913264856,89.38166640938682 C 46.12876491326486,88.93166640938684 34.81876491326486,88.54166640938683 32.468764913264856,88.74166640938682 C 29.558764913264852,88.98166640938683 29.558764913264852,88.98166640938683 26.228764913264854,91.50166640938683 C 25.088764913264853,92.36166640938683 25.468764913264852,92.13166640938682 23.568764913264854,93.07166640938682 L 20.528764913264855,92.14166640938683 C 17.588764913264853,91.40166640938683 18.328764913264852,91.59166640938683 15.398764913264854,90.83166640938683 C 10.738764913264854,89.63166640938682 3.3387649132648534,85.71166640938682 1.2087649132648537,83.32166640938682 C -1.0512350867351463,80.79166640938683 -0.18123508673514627,77.45166640938683 4.148764913264854,72.03166640938683 L 7.588764913264853,67.71166640938682 L 7.588764913264853,67.71166640938682 M 346.1387649132648,135.53166640938682 L 346.12876491326483,135.52166640938682 C 343.6487649132648,136.25166640938681 341.12876491326483,137.52166640938682 335.78876491326486,140.74166640938682 C 330.09876491326486,144.1716664093868 325.8387649132648,145.59166640938682 319.04876491326485,146.31166640938682 C 316.67876491326484,146.5716664093868 317.0087649132648,146.52166640938682 316.71876491326486,146.62166640938682 L 304.06876491326483,155.00166640938681 C 305.67876491326484,155.2016664093868 305.2787649132648,155.15166640938682 306.8887649132648,155.3516664093868 C 312.81876491326483,156.11166640938683 320.7787649132648,155.28166640938682 327.98876491326484,153.15166640938682 C 333.8287649132648,151.4416664093868 342.21876491326486,147.7216664093868 344.72876491326485,145.7316664093868 L 346.74876491326484,144.08166640938683 C 348.90876491326486,142.6416664093868 348.36876491326484,142.9116664093868 350.55876491326484,142.18166640938682 C 350.59876491326486,141.55166640938683 350.59876491326486,141.1016664093868 350.5787649132648,140.4816664093868 C 350.46876491326486,136.84166640938682 348.6387649132648,134.81166640938682 346.1387649132648,135.53166640938682 L 346.1387649132648,135.53166640938682" fill="#000000"/>
</svg>
