<?xml version="1.0" ?>
<svg xmlns="http://www.w3.org/2000/svg" xmlns:ev="http://www.w3.org/2001/xml-events" xmlns:xlink="http://www.w3.org/1999/xlink" baseProfile="full" clip-rule="evenodd" fill-rule="evenodd" height="248" image-rendering="optimizeQuality" shape-rendering="geometricPrecision" text-rendering="geometricPrecision" transform="scale(0.4032258064516129 0.4032258064516129) translate(-190.0 -124.0)" version="1.1" viewBox="0 0 380 248" width="380" xml:space="preserve">
	<defs/>
	<path d="M 358.3997637087892,129.37422683103722 L 358.4097637087892,129.3942268310372 C 350.2597637087892,115.58422683103723 346.8697637087892,104.50422683103723 346.5897637087892,90.81422683103723 L 346.0297637087892,63.61422683103722 C 345.2597637087892,55.36422683103722 343.2097637087892,48.744226831037224 340.5597637087892,45.994226831037224 C 340.2397637087892,45.674226831037224 340.0897637087892,45.71422683103722 339.8897637087892,46.19422683103722 L 335.8797637087892,74.40422683103724 C 332.2997637087892,99.64422683103723 332.7697637087892,95.00422683103723 332.5797637087892,106.90422683103724 C 332.5097637087892,111.06422683103723 332.5297637087892,110.02422683103723 332.4497637087892,114.17422683103723 C 332.2297637087892,125.41422683103723 332.6897637087892,131.3942268310372 334.1897637087892,137.00422683103722 C 338.3797637087892,152.6442268310372 337.3297637087892,149.43422683103722 341.5297637087892,159.49422683103722 C 343.5597637087892,164.37422683103722 343.5697637087892,165.2642268310372 341.6297637087892,175.2342268310372 C 339.1097637087892,188.1442268310372 338.7297637087892,190.6942268310372 337.0697637087892,205.87422683103722 C 336.0797637087892,214.8942268310372 336.21976370878923,213.1342268310372 336.0797637087892,218.18422683103722 C 335.8897637087892,224.7242268310372 334.9497637087892,233.2642268310372 334.3497637087892,233.9742268310372 C 334.1397637087892,234.2242268310372 334.4797637087892,233.99422683103722 331.9497637087892,235.5742268310372 C 330.6497637087892,236.49422683103722 330.4597637087892,237.3942268310372 330.3397637087892,243.1042268310372 C 330.1997637087892,246.1342268310372 329.8197637087892,246.2642268310372 321.1197637087892,246.34422683103722 C 306.4497637087892,246.46422683103722 307.6697637087892,246.6742268310372 307.7397637087892,244.03422683103722 C 307.8097637087892,243.00422683103722 307.0997637087892,243.81422683103722 312.71976370878923,238.3542268310372 C 316.1297637087892,235.03422683103722 318.7597637087892,227.55422683103723 320.8097637087892,215.30422683103723 C 322.1897637087892,207.0442268310372 321.6397637087892,198.4542268310372 319.0397637087892,187.6942268310372 C 318.46976370878923,185.52422683103723 317.7997637087892,184.5742268310372 317.0797637087892,184.8842268310372 C 316.1297637087892,185.2942268310372 317.4297637087892,179.0442268310372 308.0497637087892,228.59422683103722 C 307.1697637087892,232.3542268310372 307.2997637087892,232.12422683103722 306.1597637087892,231.9842268310372 C 305.9897637087892,231.96422683103722 305.9897637087892,231.96422683103722 305.4797637087892,231.75422683103722 C 304.2497637087892,231.3242268310372 304.0597637087892,231.9842268310372 304.0697637087892,236.61422683103723 C 304.0797637087892,241.36422683103723 303.6097637087892,242.4742268310372 301.1797637087892,243.4742268310372 C 291.2397637087892,243.6342268310372 293.71976370878923,243.59422683103722 283.7797637087892,243.7642268310372 C 281.3797637087892,243.86422683103723 281.1397637087892,243.5442268310372 281.5097637087892,240.6642268310372 C 281.7297637087892,239.50422683103722 280.8697637087892,240.5742268310372 287.5297637087892,233.1942268310372 C 292.9897637087892,227.1342268310372 296.7397637087892,218.30422683103723 298.3397637087892,207.7042268310372 C 300.0597637087892,196.3842268310372 300.0097637087892,192.25422683103722 298.0797637087892,182.78422683103722 C 296.3497637087892,174.3542268310372 292.3697637087892,161.2942268310372 291.3897637087892,160.87422683103722 C 290.8097637087892,160.62422683103722 290.5397637087892,160.86422683103723 290.2797637087892,161.8842268310372 C 289.5497637087892,164.2942268310372 287.7697637087892,166.33422683103723 286.7897637087892,165.8842268310372 C 285.9097637087892,165.4842268310372 286.0497637087892,166.3242268310372 285.7797637087892,159.9842268310372 C 285.6197637087892,157.5142268310372 285.5797637087892,157.46422683103722 283.4297637087892,156.6042268310372 C 281.4397637087892,155.8242268310372 281.8397637087892,155.58422683103723 280.6397637087892,158.27422683103723 C 278.4197637087892,163.27422683103723 276.6397637087892,165.15422683103722 275.21976370878923,163.99422683103722 C 274.3197637087892,163.25422683103722 274.3597637087892,161.9542268310372 275.3597637087892,158.99422683103722 C 276.1697637087892,156.21422683103722 276.0097637087892,156.7042268310372 276.5197637087892,155.52422683103723 C 276.8997637087892,154.5742268310372 276.46976370878923,154.0142268310372 274.9597637087892,153.4542268310372 C 273.96976370878923,153.43422683103722 274.2997637087892,153.03422683103722 272.6197637087892,156.25422683103722 C 271.2097637087892,158.9542268310372 270.1897637087892,159.74422683103722 269.1897637087892,158.87422683103722 C 268.5797637087892,158.34422683103722 268.6697637087892,157.2642268310372 269.6397637087892,153.83422683103723 C 270.4397637087892,150.74422683103722 270.1597637087892,150.4242268310372 264.2797637087892,147.68422683103722 C 259.9097637087892,145.65422683103722 256.2997637087892,146.1042268310372 239.5297637087892,150.83422683103723 C 227.8497637087892,154.12422683103722 230.7697637087892,153.2942268310372 219.0997637087892,156.59422683103722 C 203.9997637087892,159.2642268310372 192.3797637087892,158.2342268310372 176.5597637087892,152.8542268310372 C 164.2297637087892,148.6642268310372 159.6897637087892,148.53422683103722 154.8197637087892,152.2242268310372 C 152.0897637087892,154.40422683103722 151.7497637087892,155.4842268310372 150.1797637087892,166.9542268310372 C 149.07976370878922,175.02422683103723 149.7897637087892,172.08422683103723 143.9297637087892,192.78422683103722 C 141.4297637087892,201.62422683103722 141.1397637087892,205.28422683103722 141.7697637087892,220.5442268310372 C 142.1897637087892,225.00422683103722 142.0897637087892,223.8942268310372 142.4797637087892,228.3542268310372 C 143.0297637087892,234.52422683103723 142.9897637087892,237.9142268310372 142.3797637087892,238.1642268310372 C 142.1497637087892,238.2642268310372 141.8797637087892,238.28422683103722 141.3497637087892,238.25422683103722 C 140.54976370878921,238.21422683103722 140.5697637087892,238.15422683103722 140.5597637087892,240.9142268310372 C 140.3897637087892,243.3242268310372 139.10976370878922,246.7642268310372 138.3097637087892,247.00422683103722 C 136.85976370878922,247.4142268310372 116.3097637087892,247.27422683103723 114.89976370878921,246.83422683103723 C 112.17976370878921,245.80422683103723 111.8597637087892,245.05422683103723 113.17976370878921,242.71422683103722 C 113.5897637087892,242.03422683103722 112.86976370878921,242.8242268310372 118.2697637087892,237.2242268310372 C 123.4597637087892,231.84422683103722 124.2997637087892,227.27422683103723 123.5897637087892,208.1742268310372 C 123.2997637087892,200.2942268310372 123.00976370878921,198.9842268310372 117.7197637087892,181.9842268310372 C 114.3897637087892,171.2942268310372 114.86976370878921,173.2042268310372 114.3797637087892,168.56422683103722 C 114.25976370878921,167.4742268310372 114.2097637087892,166.71422683103722 114.17976370878921,165.6042268310372 L 103.1397637087892,166.21422683103722 C 92.78976370878921,165.28422683103722 85.0297637087892,156.99422683103722 78.7797637087892,140.1642268310372 C 76.0897637087892,132.9142268310372 77.1697637087892,136.46422683103722 71.1597637087892,115.34422683103723 C 64.6597637087892,92.53422683103723 65.6297637087892,95.57422683103722 62.199763708789206,87.36422683103723 L 38.6797637087892,85.64422683103723 C 35.4097637087892,84.20422683103723 34.7497637087892,81.93422683103724 35.419763708789205,74.38422683103722 C 35.949763708789206,68.35422683103722 35.9297637087892,68.18422683103724 32.139763708789204,44.80422683103722 L 30.379763708789202,36.50422683103722 C 27.839763708789203,36.494226831037224 28.809763708789202,36.354226831037224 23.599763708789204,37.51422683103722 C 17.0797637087892,38.97422683103722 11.6997637087892,36.64422683103722 2.889763708789202,28.524226831037225 C -0.6702362912107983,25.254226831037226 -0.8702362912107983,23.564226831037224 1.8997637087892016,19.904226831037224 C 5.559763708789202,15.244226831037224 12.5397637087892,13.054226831037226 18.599763708789204,14.684226831037225 C 19.849763708789204,15.024226831037225 19.369763708789204,14.874226831037223 21.949763708789202,15.704226831037225 C 27.169763708789205,17.384226831037225 29.819763708789203,16.614226831037225 31.949763708789202,12.804226831037226 C 36.0697637087892,5.414226831037225 38.5797637087892,3.104226831037225 44.4297637087892,1.294226831037225 C 52.3297637087892,-1.155773168962775 64.4697637087892,0.004226831037224876 69.2297637087892,3.664226831037225 C 71.64976370878921,5.594226831037225 71.0997637087892,4.764226831037225 76.39976370878921,14.484226831037226 C 77.5197637087892,16.564226831037224 77.1297637087892,15.944226831037223 79.1297637087892,18.834226831037224 L 87.0797637087892,18.324226831037226 C 93.7397637087892,17.144226831037226 96.50976370878921,17.594226831037226 101.1697637087892,20.584226831037224 C 103.50976370878921,22.094226831037226 102.78976370878921,21.354226831037227 106.5797637087892,26.064226831037224 C 108.2197637087892,28.014226831037227 110.2197637087892,28.244226831037224 116.5897637087892,27.234226831037226 C 129.1797637087892,25.244226831037224 127.61976370878921,25.234226831037226 146.4997637087892,27.364226831037225 C 151.9897637087892,27.774226831037225 150.6197637087892,27.674226831037227 156.1197637087892,28.064226831037224 C 165.7797637087892,28.744226831037224 163.35976370878922,28.574226831037226 173.0297637087892,29.234226831037226 L 185.60976370878922,30.094226831037226 C 194.0397637087892,30.274226831037225 191.79976370878921,30.154226831037224 201.2897637087892,30.934226831037225 C 209.4997637087892,31.164226831037226 207.4497637087892,31.104226831037227 215.6597637087892,31.344226831037226 L 224.8697637087892,32.094226831037226 L 259.1997637087892,33.57422683103722 C 287.3197637087892,33.75422683103722 284.5797637087892,33.854226831037224 296.71976370878923,32.204226831037225 C 307.2897637087892,30.444226831037227 304.6497637087892,30.874226831037227 315.2297637087892,29.174226831037227 C 319.8797637087892,28.424226831037227 326.4297637087892,30.474226831037225 335.1697637087892,35.41422683103722 C 344.9397637087892,40.94422683103722 350.4997637087892,51.14422683103722 351.2797637087892,65.00422683103723 C 351.6097637087892,70.91422683103723 351.6197637087892,68.00422683103723 351.2597637087892,85.39422683103723 C 350.9197637087892,102.22422683103723 353.4097637087892,111.62422683103723 362.8097637087892,128.9542268310372 C 365.3997637087892,133.74422683103722 364.0397637087892,131.99422683103722 372.3497637087892,141.1742268310372 C 377.7097637087892,147.08422683103723 381.3697637087892,156.1742268310372 378.8297637087892,157.25422683103722 C 378.0797637087892,157.5742268310372 377.6597637087892,157.4142268310372 375.4997637087892,156.02422683103723 C 370.2997637087892,152.6642268310372 367.3197637087892,148.3242268310372 364.21976370878923,139.59422683103722 C 363.5797637087892,137.78422683103722 364.3397637087892,139.12422683103722 358.9397637087892,130.2642268310372 L 358.3997637087892,129.37422683103722 L 358.3997637087892,129.37422683103722" fill="#010101"/>
</svg>
