<?xml version="1.0" ?>
<svg xmlns="http://www.w3.org/2000/svg" xmlns:ev="http://www.w3.org/2001/xml-events" xmlns:xlink="http://www.w3.org/1999/xlink" baseProfile="full" clip-rule="evenodd" fill-rule="evenodd" height="231" image-rendering="optimizeQuality" shape-rendering="geometricPrecision" text-rendering="geometricPrecision" transform="scale(0.4329004329004329 0.4329004329004329) translate(-155.5 -115.5)" version="1.1" viewBox="0 0 311 231" width="311" xml:space="preserve">
	<defs/>
	<path d="M 269.2413132923068,22.62114853780231 L 269.2513132923068,22.62114853780231 L 278.8213132923068,27.001148537802308 C 283.0813132923068,28.951148537802307 281.6313132923068,28.431148537802308 288.9413132923068,30.64114853780231 C 298.1813132923068,33.42114853780231 303.3813132923068,36.761148537802306 305.3613132923068,41.17114853780231 C 308.3313132923068,47.77114853780231 309.1313132923068,56.621148537802306 308.1913132923068,72.45114853780231 L 306.9513132923068,103.3511485378023 C 306.8613132923068,116.84114853780231 307.2613132923068,122.1311485378023 309.5013132923068,137.4811485378023 C 310.8913132923068,146.94114853780232 310.7513132923068,169.52114853780233 309.2813132923068,175.41114853780232 C 308.1713132923068,179.87114853780233 307.7913132923068,180.68114853780233 306.9913132923068,180.32114853780232 C 306.1413132923068,179.94114853780232 306.3513132923068,180.7311485378023 305.5413132923068,174.82114853780232 C 305.2813132923068,172.9211485378023 304.6913132923068,171.85114853780232 303.9313132923068,171.9211485378023 C 303.4513132923068,171.97114853780232 303.5313132923068,171.69114853780232 303.3813132923068,173.88114853780232 C 303.3313132923068,174.60114853780232 302.1713132923068,177.52114853780233 301.91131329230683,177.59114853780233 C 300.91131329230683,177.86114853780234 300.3013132923068,175.84114853780233 300.3613132923068,172.43114853780233 C 298.66131329230683,158.0111485378023 298.8013132923068,158.96114853780233 298.3013132923068,159.06114853780232 C 297.4413132923068,159.25114853780232 297.3113132923068,160.00114853780232 296.3813132923068,170.2611485378023 C 291.5613132923068,223.08114853780233 292.2413132923068,216.43114853780233 291.6313132923068,216.80114853780233 C 290.91131329230683,217.25114853780232 290.7513132923068,217.1711485378023 288.8413132923068,215.40114853780233 C 288.5613132923068,215.1711485378023 288.3613132923068,215.18114853780233 288.0813132923068,215.44114853780232 C 287.7313132923068,215.78114853780232 287.7013132923068,215.8911485378023 286.5013132923068,220.58114853780233 C 285.0013132923068,225.97114853780232 281.7413132923068,227.12114853780233 273.66131329230683,225.13114853780232 C 269.47131329230683,224.09114853780233 268.0413132923068,222.54114853780231 269.1413132923068,220.2311485378023 C 269.8713132923068,218.72114853780232 270.8213132923068,217.85114853780232 276.7313132923068,213.31114853780232 C 279.8613132923068,210.90114853780233 279.3113132923068,212.57114853780232 280.6013132923068,201.68114853780233 C 282.5213132923068,185.52114853780233 282.0913132923068,179.62114853780233 278.4613132923068,172.07114853780232 L 276.41131329230683,167.81114853780232 C 270.1813132923068,178.4811485378023 271.2613132923068,176.38114853780232 268.8113132923068,182.53114853780232 C 266.0813132923068,189.37114853780233 267.0313132923068,186.02114853780233 262.1813132923068,206.00114853780232 C 261.8213132923068,207.4811485378023 261.9613132923068,206.9811485378023 261.16131329230683,209.47114853780232 C 260.3213132923068,212.06114853780232 260.6513132923068,211.75114853780232 258.8813132923068,211.65114853780233 C 257.8613132923068,211.60114853780232 257.8513132923068,211.63114853780232 257.6113132923068,214.22114853780232 L 256.66131329230683,216.9211485378023 C 256.2713132923068,218.1411485378023 255.8513132923068,218.31114853780232 251.7413132923068,219.00114853780232 C 246.0113132923068,219.97114853780232 239.7213132923068,218.75114853780232 239.2113132923068,216.58114853780233 C 238.7013132923068,214.44114853780232 237.7313132923068,215.87114853780233 245.9513132923068,206.5111485378023 C 248.9213132923068,203.13114853780232 248.2913132923068,204.30114853780233 250.3913132923068,198.32114853780232 L 254.6013132923068,187.86114853780234 C 257.1913132923068,181.44114853780232 260.1113132923068,171.9511485378023 260.0113132923068,170.32114853780232 C 259.7913132923068,168.19114853780232 260.2413132923068,169.80114853780233 256.8613132923068,159.06114853780232 C 256.5013132923068,157.82114853780232 256.4013132923068,157.65114853780233 256.0513132923068,157.65114853780233 C 255.2213132923068,157.63114853780232 254.4913132923068,159.2011485378023 254.4013132923068,161.2011485378023 C 254.1913132923068,165.66114853780232 253.36131329230682,167.36114853780234 251.6313132923068,166.8911485378023 C 250.6813132923068,166.63114853780232 250.3413132923068,166.05114853780233 248.9813132923068,162.47114853780232 C 248.77131329230681,161.9211485378023 248.5113132923068,161.78114853780232 248.02131329230681,161.96114853780233 C 247.8513132923068,162.02114853780233 248.0013132923068,161.79114853780231 247.0113132923068,163.52114853780233 C 246.4313132923068,164.55114853780233 245.9513132923068,164.85114853780232 245.1913132923068,164.66114853780232 C 244.0313132923068,164.37114853780233 242.7013132923068,161.50114853780232 242.3413132923068,158.5111485378023 C 242.0313132923068,156.4811485378023 242.8513132923068,157.18114853780233 236.6313132923068,153.65114853780233 C 232.8913132923068,151.52114853780233 229.4213132923068,148.4511485378023 226.8713132923068,145.02114853780233 C 226.2413132923068,144.1711485378023 225.7613132923068,143.49114853780233 225.1813132923068,142.60114853780232 C 220.1513132923068,141.97114853780232 221.33131329230682,141.99114853780233 216.9613132923068,142.4811485378023 C 213.4013132923068,142.8911485378023 215.27131329230681,142.3911485378023 203.8513132923068,145.97114853780232 C 195.7613132923068,148.50114853780232 188.9313132923068,148.06114853780232 167.8913132923068,143.65114853780233 C 160.2013132923068,142.04114853780231 158.9013132923068,141.86114853780234 147.02131329230681,140.80114853780233 C 142.3813132923068,140.3911485378023 143.5413132923068,140.50114853780232 138.9013132923068,140.06114853780232 L 137.7513132923068,147.07114853780232 L 136.9313132923068,155.91114853780232 C 136.08131329230682,165.15114853780233 136.2013132923068,161.90114853780233 136.11131329230682,178.62114853780233 C 136.0113132923068,196.53114853780232 135.7013132923068,193.30114853780233 138.2613132923068,201.27114853780233 C 139.3113132923068,204.55114853780233 139.4213132923068,202.99114853780233 137.5113132923068,212.18114853780233 C 137.2013132923068,216.66114853780232 137.2813132923068,215.54114853780231 136.9513132923068,220.02114853780233 C 136.3713132923068,227.91114853780232 134.2813132923068,229.79114853780231 125.69131329230682,230.1711485378023 C 121.95131329230682,230.33114853780233 118.04131329230682,229.55114853780233 117.43131329230683,228.5111485378023 C 116.35131329230681,226.4811485378023 116.65131329230682,225.7611485378023 121.05131329230682,219.86114853780234 C 125.79131329230682,213.50114853780232 126.25131329230682,212.2311485378023 125.50131329230682,207.4811485378023 L 124.97131329230682,200.66114853780232 C 124.08131329230682,189.28114853780232 123.30131329230682,185.1711485378023 119.72131329230682,172.9211485378023 C 118.93131329230683,170.22114853780232 118.86131329230682,170.08114853780233 118.00131329230682,169.4511485378023 C 117.84131329230682,169.34114853780233 117.71131329230681,169.44114853780232 117.56131329230682,169.77114853780233 L 117.17131329230682,172.65114853780233 C 116.81131329230682,174.2311485378023 116.90131329230682,173.84114853780233 116.54131329230682,175.4211485378023 C 115.57131329230681,180.04114853780231 115.66131329230682,187.9511485378023 116.74131329230681,194.30114853780233 C 117.53131329230682,198.9511485378023 117.37131329230682,203.6711485378023 116.34131329230682,205.94114853780232 C 115.90131329230682,206.91114853780232 115.48131329230682,207.61114853780234 114.81131329230682,208.49114853780233 L 114.80131329230682,213.83114853780233 C 113.96131329230681,218.2611485378023 110.02131329230681,220.7611485378023 104.08131329230682,220.62114853780233 C 99.13131329230681,220.50114853780232 96.53131329230682,219.54114853780231 96.03131329230682,217.63114853780232 C 95.43131329230683,215.37114853780233 95.25131329230682,215.7011485378023 102.16131329230682,206.82114853780232 C 104.10131329230681,204.32114853780232 103.89131329230682,206.00114853780232 104.15131329230682,191.35114853780232 C 104.34131329230682,186.87114853780233 104.30131329230682,187.99114853780233 104.47131329230682,183.5111485378023 C 104.81131329230682,174.35114853780232 103.71131329230681,163.99114853780233 101.49131329230681,155.38114853780232 C 99.61131329230682,148.09114853780233 100.17131329230682,150.83114853780233 97.61131329230682,136.24114853780233 C 96.07131329230681,127.48114853780231 96.20131329230682,127.68114853780231 85.82131329230681,118.79114853780231 C 79.93131329230683,113.75114853780231 79.51131329230682,113.06114853780231 76.44131329230682,103.36114853780231 C 74.48131329230682,97.2111485378023 73.07131329230681,95.18114853780231 66.26131329230682,88.75114853780231 C 61.37131329230681,84.15114853780231 60.801313292306816,83.36114853780231 50.131313292306814,66.4111485378023 L 45.46131329230681,59.89114853780231 L 35.96131329230681,61.90114853780231 L 29.391313292306815,62.39114853780231 C 25.861313292306814,62.661148537802305 27.261313292306816,62.14114853780231 19.571313292306815,66.03114853780231 C 15.001313292306815,68.34114853780231 8.471313292306816,67.87114853780231 5.5213132923068144,65.01114853780231 C 0.9713132923068148,60.58114853780231 -0.6986867076931851,55.95114853780231 0.2613132923068149,50.40114853780231 C 0.7713132923068149,47.911148537802305 0.7613132923068149,47.92114853780231 5.031313292306815,44.74114853780231 C 11.521313292306814,39.911148537802305 15.611313292306814,34.941148537802306 16.861313292306814,30.41114853780231 C 17.241313292306813,29.03114853780231 17.441313292306816,27.98114853780231 17.601313292306816,26.55114853780231 L 12.281313292306814,24.55114853780231 C 10.011313292306815,23.07114853780231 9.871313292306814,22.85114853780231 7.7713132923068144,17.96114853780231 C 7.401313292306815,17.081148537802306 7.6413132923068146,17.451148537802307 6.091313292306815,15.361148537802308 C 4.5613132923068145,13.111148537802308 5.281313292306815,10.281148537802308 7.5213132923068144,9.841148537802308 C 12.821313292306815,9.111148537802308 19.571313292306815,9.321148537802308 21.251313292306815,10.251148537802308 L 23.841313292306815,11.781148537802308 C 24.411313292306815,11.781148537802308 26.531313292306816,10.761148537802308 26.731313292306815,10.391148537802309 C 27.471313292306814,9.041148537802307 26.321313292306815,8.121148537802307 21.101313292306816,5.901148537802309 C 19.341313292306815,5.151148537802309 19.861313292306814,5.251148537802309 17.431313292306815,5.211148537802309 C 15.801313292306816,5.091148537802309 14.671313292306815,4.151148537802309 14.831313292306815,3.051148537802309 C 15.161313292306815,0.7111485378023089 24.031313292306816,-0.008851462197691054 29.841313292306815,1.8311485378023091 L 34.24131329230681,3.671148537802309 C 37.45131329230682,5.021148537802309 42.82131329230681,4.651148537802309 43.36131329230682,3.041148537802309 L 44.18131329230681,0.551148537802309 C 45.12131329230681,-0.37885146219769106 46.551313292306816,-0.17885146219769105 50.92131329230682,1.5111485378023088 C 53.93131329230681,2.671148537802309 52.411313292306815,1.6411485378023087 61.54131329230681,8.731148537802309 C 65.92131329230682,12.131148537802309 64.93131329230683,11.661148537802308 73.40131329230682,14.361148537802308 C 76.05131329230682,15.211148537802309 74.54131329230682,14.501148537802308 83.92131329230682,19.291148537802307 C 90.09131329230682,22.431148537802308 94.81131329230682,22.80114853780231 112.00131329230682,21.471148537802307 C 119.17131329230682,20.92114853780231 116.43131329230683,20.841148537802308 131.2113132923068,22.021148537802308 C 146.0713132923068,23.881148537802307 142.36131329230682,23.41114853780231 157.2213132923068,25.271148537802308 L 164.2913132923068,25.901148537802307 C 174.8413132923068,26.831148537802306 184.8413132923068,27.03114853780231 196.1813132923068,26.541148537802307 C 206.0413132923068,26.12114853780231 216.5613132923068,24.931148537802308 225.5713132923068,23.23114853780231 C 242.52131329230681,20.021148537802308 251.4313132923068,19.241148537802307 260.4613132923068,20.16114853780231 C 263.16131329230683,20.431148537802308 266.1513132923068,21.271148537802308 269.2413132923068,22.62114853780231 L 269.2413132923068,22.62114853780231 M 226.1413132923068,44.27114853780231 L 226.0113132923068,44.261148537802306 C 224.52131329230681,44.15114853780231 223.3113132923068,44.11114853780231 221.6313132923068,44.121148537802306 C 210.8913132923068,44.22114853780231 202.1813132923068,48.54114853780231 195.1313132923068,57.261148537802306 C 190.52131329230681,62.96114853780231 187.55131329230682,71.84114853780231 187.8513132923068,78.98114853780231 C 188.5313132923068,94.87114853780231 198.7013132923068,107.42114853780231 214.1513132923068,111.4611485378023 C 229.8113132923068,115.5511485378023 246.27131329230681,107.53114853780231 253.3413132923068,92.36114853780231 C 256.3213132923068,85.98114853780231 257.16131329230683,79.6311485378023 255.9413132923068,72.75114853780231 C 253.1913132923068,57.27114853780231 240.8813132923068,45.511148537802306 226.1413132923068,44.27114853780231 L 226.1413132923068,44.27114853780231 M 295.0013132923068,90.9411485378023 L 294.9813132923068,90.93114853780231 C 290.2713132923068,100.7711485378023 289.9013132923068,101.8311485378023 289.8413132923068,105.6011485378023 C 289.6813132923068,114.73114853780231 289.0313132923068,119.39114853780231 287.0913132923068,125.15114853780231 C 283.7513132923068,135.11114853780234 283.8713132923068,136.03114853780232 289.4813132923068,143.1711485378023 C 297.5013132923068,153.3911485378023 296.4913132923068,152.05114853780233 296.6113132923068,152.5111485378023 C 297.0013132923068,154.15114853780233 296.91131329230683,153.93114853780233 297.2413132923068,154.02114853780233 C 297.47131329230683,154.08114853780233 297.6113132923068,153.97114853780232 297.7013132923068,153.6411485378023 L 299.16131329230683,93.87114853780231 C 299.3713132923068,85.39114853780231 299.2813132923068,83.98114853780231 298.5513132923068,83.93114853780231 C 298.0713132923068,83.90114853780231 298.0513132923068,83.93114853780231 297.0313132923068,86.29114853780231 L 295.0013132923068,90.9411485378023 L 295.0013132923068,90.9411485378023" fill="#010101"/>
</svg>
