<?xml version="1.0" ?>
<svg xmlns="http://www.w3.org/2000/svg" xmlns:ev="http://www.w3.org/2001/xml-events" xmlns:xlink="http://www.w3.org/1999/xlink" baseProfile="full" clip-rule="evenodd" fill-rule="evenodd" height="236" image-rendering="optimizeQuality" shape-rendering="geometricPrecision" text-rendering="geometricPrecision" transform="scale(0.423728813559322 0.423728813559322) translate(-181.0 -118.0)" version="1.1" viewBox="0 0 362 236" width="362" xml:space="preserve">
	<defs/>
	<path d="M 12.9783443787063,137.55840364623265 L 12.9883443787063,137.49840364623265 C 11.4183443787063,141.46840364623264 7.8383443787062985,145.89840364623265 3.9283443787062984,148.70840364623265 C 2.5983443787062983,149.66840364623263 1.4983443787062984,150.34840364623264 0.05834437870629847,151.09840364623264 C -0.03165562129370153,146.75840364623264 -0.13165562129370154,147.68840364623264 0.7083443787062984,144.57840364623266 C 1.8883443787062983,140.48840364623265 3.9983443787062987,137.44840364623263 10.448344378706299,130.54840364623266 C 16.008344378706298,124.61840364623266 23.3083443787063,109.29840364623266 25.908344378706296,98.13840364623266 C 26.568344378706296,95.28840364623267 26.498344378706296,98.77840364623266 26.368344378706297,73.69840364623266 C 26.2883443787063,57.93840364623265 27.458344378706297,51.74840364623265 32.0083443787063,43.82840364623265 C 36.018344378706296,36.848403646232654 42.878344378706295,32.088403646232656 54.2083443787063,28.428403646232656 C 58.3183443787063,27.098403646232658 57.9683443787063,27.088403646232656 66.8383443787063,28.808403646232655 L 89.6683443787063,31.888403646232657 C 96.21834437870629,32.768403646232656 109.6883443787063,32.56840364623265 125.5583443787063,31.348403646232658 L 163.96834437870632,29.788403646232656 L 173.2383443787063,29.068403646232657 C 180.36834437870633,28.838403646232656 178.58834437870632,28.888403646232657 185.71834437870632,28.668403646232658 L 195.9583443787063,27.868403646232657 L 205.43834437870632,27.478403646232657 L 238.3183443787063,24.558403646232655 C 246.2283443787063,25.508403646232658 244.2583443787063,25.278403646232658 252.1683443787063,26.208403646232657 C 255.93834437870632,26.648403646232655 255.0183443787063,26.628403646232655 258.64834437870627,26.368403646232657 C 264.27834437870627,19.678403646232656 263.1883443787063,20.718403646232655 266.2583443787063,19.048403646232657 C 270.8283443787063,16.548403646232657 272.21834437870626,16.428403646232656 281.2083443787063,17.768403646232656 C 286.02834437870627,18.478403646232657 286.5783443787063,18.068403646232657 290.5183443787063,10.738403646232657 C 294.84834437870626,2.678403646232656 297.4783443787063,0.9484036462326558 306.5483443787063,0.18840364623265587 C 318.6383443787063,-0.8215963537673441 325.5683443787063,2.178403646232656 330.14834437870627,10.418403646232656 C 333.4583443787063,16.378403646232655 334.8783443787063,16.928403646232656 341.5183443787063,14.768403646232656 C 348.4583443787063,12.508403646232656 353.3283443787063,13.258403646232656 358.1983443787063,17.318403646232657 C 359.9883443787063,18.818403646232657 360.6883443787063,19.778403646232658 361.2983443787063,21.588403646232656 C 361.5683443787063,22.428403646232656 361.71834437870626,22.958403646232657 361.89834437870627,23.798403646232657 L 358.1783443787063,27.868403646232657 C 349.84834437870626,35.18840364623265 346.4583443787063,36.74840364623265 340.4783443787063,35.988403646232655 L 332.0583443787063,34.018403646232656 L 330.9383443787063,43.71840364623265 C 327.46834437870626,63.668403646232655 327.5683443787063,62.528403646232654 328.1783443787063,74.94840364623266 C 328.46834437870626,80.94840364623266 325.40834437870626,82.70840364623265 314.9983443787063,82.52840364623266 C 310.1683443787063,82.44840364623266 307.9783443787063,82.53840364623267 305.3883443787063,82.95840364623265 C 304.1983443787063,83.14840364623267 303.33834437870627,83.31840364623265 302.15834437870626,83.59840364623265 C 298.1783443787063,93.54840364623266 299.0683443787063,90.84840364623265 295.96834437870626,102.49840364623266 C 284.8883443787063,144.21840364623264 279.3783443787063,154.24840364623265 265.3583443787063,158.20840364623265 C 262.8183443787063,158.92840364623265 260.65834437870626,158.96840364623264 257.9983443787063,158.34840364623264 C 256.2383443787063,157.94840364623263 254.8583443787063,157.46840364623264 253.18834437870632,156.69840364623263 L 252.27834437870632,163.50840364623264 C 250.37834437870632,171.03840364623264 251.09834437870632,168.58840364623265 247.2583443787063,180.62840364623264 C 243.65834437870632,191.90840364623264 242.62834437870632,206.56840364623264 244.61834437870633,218.29840364623266 C 245.27834437870632,222.20840364623265 245.49834437870632,222.52840364623265 252.18834437870632,229.32840364623266 C 254.40834437870632,231.58840364623265 254.96834437870632,233.69840364623263 253.6483443787063,234.87840364623264 L 230.0483443787063,235.59840364623264 C 228.61834437870633,234.79840364623266 228.21834437870632,233.32840364623266 228.12834437870632,228.42840364623265 C 228.08834437870632,227.46840364623264 228.0083443787063,227.40840364623264 226.2683443787063,227.05840364623265 C 225.27834437870632,226.82840364623266 225.3583443787063,227.56840364623264 225.7283443787063,221.90840364623264 C 226.9183443787063,203.57840364623266 227.0783443787063,200.68840364623264 227.05834437870632,198.76840364623266 C 226.96834437870632,192.58840364623265 227.3583443787063,194.46840364623264 222.3183443787063,176.04840364623266 C 219.11834437870633,164.33840364623265 219.8183443787063,167.81840364623264 217.3983443787063,151.67840364623265 C 216.2983443787063,144.36840364623265 209.7383443787063,140.92840364623265 201.40834437870632,143.28840364623264 C 197.52834437870632,144.38840364623263 199.12834437870632,143.88840364623263 190.2583443787063,146.78840364623264 C 174.2383443787063,152.01840364623266 159.58834437870632,151.91840364623263 142.1983443787063,146.47840364623264 C 117.0683443787063,138.60840364623266 113.60834437870629,138.22840364623264 106.4383443787063,142.55840364623265 C 104.2783443787063,143.86840364623265 104.4483443787063,142.82840364623266 105.24834437870629,149.82840364623266 C 105.32834437870629,150.98840364623265 104.9083443787063,151.83840364623265 104.2883443787063,151.74840364623265 C 103.2983443787063,151.57840364623266 103.0083443787063,151.19840364623263 101.1183443787063,147.53840364623264 C 100.1583443787063,145.87840364623264 99.7383443787063,145.79840364623266 98.5183443787063,147.00840364623264 C 98.0483443787063,147.49840364623265 97.9883443787063,146.98840364623265 98.9583443787063,150.52840364623265 C 100.46834437870629,156.08840364623265 100.3883443787063,155.34840364623264 99.5483443787063,156.24840364623265 C 98.6783443787063,157.17840364623265 97.6683443787063,156.63840364623263 96.0583443787063,154.36840364623265 C 94.46834437870629,151.65840364623264 94.7583443787063,152.23840364623265 93.9883443787063,150.28840364623264 C 93.3983443787063,149.03840364623264 92.9783443787063,148.87840364623264 91.5083443787063,149.33840364623265 C 89.3183443787063,150.02840364623265 89.4883443787063,149.47840364623264 89.5483443787063,155.60840364623266 C 89.5083443787063,157.35840364623266 88.6183443787063,158.26840364623266 87.3083443787063,157.88840364623263 C 86.3683443787063,157.61840364623265 86.7083443787063,158.20840364623265 84.9383443787063,153.72840364623264 C 84.8183443787063,153.40840364623264 84.5283443787063,153.14840364623265 84.32834437870629,153.15840364623264 C 83.2383443787063,153.23840364623265 79.6583443787063,164.76840364623266 77.4083443787063,175.44840364623263 C 75.3183443787063,185.36840364623265 76.6583443787063,200.45840364623265 80.4583443787063,209.93840364623264 C 83.5283443787063,217.57840364623266 84.3883443787063,218.83840364623265 91.5383443787063,226.14840364623265 L 93.6383443787063,229.54840364623266 C 94.0283443787063,230.55840364623265 94.2283443787063,231.23840364623265 94.46834437870629,232.32840364623266 L 74.3883443787063,231.81840364623264 C 72.2883443787063,231.14840364623265 72.07834437870629,230.51840364623266 71.85834437870629,224.39840364623265 C 71.7583443787063,221.66840364623263 71.5083443787063,221.26840364623266 69.82834437870629,221.11840364623265 C 68.3783443787063,220.95840364623265 69.6983443787063,226.94840364623263 60.6083443787063,179.23840364623265 C 60.4383443787063,178.32840364623266 60.418344378706294,178.16840364623263 60.3183443787063,177.16840364623263 C 60.1383443787063,175.81840364623264 59.8883443787063,175.19840364623263 59.5283443787063,175.24840364623265 C 58.7883443787063,175.34840364623264 58.478344378706296,175.99840364623265 57.838344378706296,178.76840364623266 C 54.7083443787063,192.20840364623265 54.5083443787063,199.26840364623266 56.9583443787063,210.49840364623265 C 59.0383443787063,220.05840364623265 60.988344378706294,224.78840364623264 63.8983443787063,227.34840364623264 C 68.6183443787063,231.49840364623265 68.24834437870629,231.07840364623266 68.4283443787063,232.58840364623265 C 68.6783443787063,234.65840364623264 67.8783443787063,235.12840364623264 63.9983443787063,235.17840364623265 C 58.7583443787063,235.25840364623264 50.5083443787063,234.97840364623264 49.558344378706295,234.69840364623263 C 47.198344378706295,234.00840364623264 47.0683443787063,233.77840364623265 46.4383443787063,229.15840364623264 C 46.3283443787063,227.93840364623264 46.338344378706296,228.33840364623265 46.378344378706295,226.40840364623264 C 46.3183443787063,225.05840364623265 46.6483443787063,225.39840364623265 44.0483443787063,224.00840364623264 C 42.228344378706296,222.93840364623264 41.838344378706296,220.52840364623265 41.5683443787063,208.77840364623265 C 41.418344378706294,201.71840364623264 39.0083443787063,182.65840364623264 36.8283443787063,171.24840364623265 C 34.0283443787063,156.55840364623265 34.058344378706295,157.24840364623265 35.8183443787063,152.78840364623264 L 38.3983443787063,146.75840364623264 C 41.2483443787063,140.07840364623266 44.6083443787063,125.79840364623266 44.978344378706296,118.75840364623267 C 45.478344378706296,109.14840364623267 44.728344378706296,92.42840364623267 43.3683443787063,83.15840364623266 C 40.3283443787063,62.49840364623265 41.0783443787063,67.66840364623266 38.1083443787063,46.988403646232655 C 38.198344378706295,45.11840364623265 37.978344378706296,44.058403646232655 37.478344378706296,43.948403646232656 C 36.8883443787063,43.81840364623265 35.6083443787063,46.028403646232654 34.128344378706295,49.768403646232656 C 32.0283443787063,55.058403646232655 31.918344378706298,56.028403646232654 31.8583443787063,69.77840364623266 C 31.7883443787063,85.03840364623267 31.0183443787063,95.65840364623266 29.598344378706297,101.13840364623266 C 27.0383443787063,110.98840364623265 24.938344378706297,115.47840364623266 16.7683443787063,128.66840364623263 C 15.2683443787063,131.09840364623264 15.7583443787063,129.94840364623263 13.3183443787063,136.68840364623264 C 13.1783443787063,137.07840364623266 13.1383443787063,137.18840364623264 12.9783443787063,137.55840364623265 L 12.9783443787063,137.55840364623265 M 167.68834437870632,51.89840364623265 L 167.68834437870632,51.918403646232655 C 144.2983443787063,50.36840364623265 125.85834437870629,69.58840364623266 128.68834437870632,92.56840364623265 C 131.46834437870632,115.15840364623266 154.2583443787063,129.65840364623264 175.8283443787063,122.56840364623265 C 196.0483443787063,115.92840364623267 206.3583443787063,93.64840364623267 198.1783443787063,74.30840364623266 C 192.8283443787063,61.68840364623265 180.68834437870632,52.75840364623265 167.68834437870632,51.89840364623265 L 167.68834437870632,51.89840364623265" fill="#010101"/>
</svg>
