<?xml version="1.0" ?>
<svg xmlns="http://www.w3.org/2000/svg" xmlns:ev="http://www.w3.org/2001/xml-events" xmlns:xlink="http://www.w3.org/1999/xlink" baseProfile="full" height="160" id="a" transform="scale(0.625 0.625) translate(-328.0 -80.0)" version="1.1" viewBox="0 0 656 160" width="656">
	<defs/>
	<path class="b" d="M 654.6499999999995,147.33621454808952 C 654.0999999999996,147.5362145480895 653.2399999999996,147.4762145480895 652.7499999999995,147.1662145480895 C 650.2799999999995,145.58621454808952 647.9699999999996,143.76621454808952 645.4499999999996,142.2862145480895 C 644.1899999999996,141.5462145480895 642.6199999999995,141.2862145480895 641.1599999999996,140.93621454808948 C 638.9899999999997,140.4162145480895 636.8099999999996,139.7962145480895 634.5999999999997,139.6062145480895 C 631.6699999999997,139.3562145480895 628.7199999999997,139.4662145480895 625.7699999999996,139.49621454808948 C 625.3199999999996,139.49621454808948 624.8899999999996,139.9062145480895 624.4199999999996,140.01621454808947 C 623.0899999999996,140.34621454808945 621.9599999999996,139.83621454808946 620.8599999999997,139.1162145480895 C 619.6299999999997,138.30621454808949 618.2599999999996,137.70621454808946 617.0499999999997,136.8562145480895 C 615.2299999999997,135.58621454808952 613.4599999999997,134.4162145480895 612.6599999999997,131.9662145480895 C 612.2699999999998,130.7862145480895 610.2599999999998,129.9262145480895 608.8099999999997,129.37621454808954 C 607.8399999999997,129.00621454808953 606.6199999999997,129.39621454808952 605.5999999999997,130.1562145480895 C 603.9599999999997,131.38621454808953 602.1099999999997,132.31621454808953 600.4699999999997,133.5462145480895 C 598.4999999999997,135.0262145480895 596.4099999999997,135.6162145480895 594.0199999999996,134.9762145480895 C 593.0299999999996,134.7162145480895 592.0599999999996,134.2162145480895 591.0599999999996,134.1662145480895 C 590.0099999999996,134.1162145480895 588.7499999999997,133.4262145480895 587.8699999999995,134.70621454808952 C 587.8299999999996,134.76621454808952 587.3599999999996,134.43621454808954 587.1199999999995,134.4762145480895 C 584.4699999999996,134.9862145480895 581.8599999999996,135.6162145480895 579.6699999999995,137.3662145480895 C 579.1499999999995,137.7762145480895 578.4799999999994,138.00621454808947 577.8699999999995,138.2862145480895 C 575.2499999999995,139.4762145480895 572.5799999999996,140.56621454808948 570.2199999999996,142.26621454808952 C 569.4699999999996,142.80621454808954 568.4999999999995,143.1062145480895 567.5799999999996,143.3562145480895 C 565.7699999999996,143.8462145480895 565.8099999999996,142.1662145480895 565.0499999999996,141.12621454808948 C 565.8799999999997,140.68621454808948 566.6199999999997,140.2962145480895 567.3599999999996,139.89621454808946 C 567.5799999999996,139.77621454808946 567.8199999999996,139.67621454808943 567.9899999999996,139.50621454808947 C 569.1599999999995,138.3562145480895 570.2699999999995,137.13621454808947 571.4999999999995,136.0462145480895 C 573.8599999999996,133.94621454808947 576.0599999999995,131.5362145480895 578.7499999999995,129.9662145480895 C 581.7199999999996,128.2362145480895 585.1599999999995,127.30621454808949 588.2099999999996,126.0962145480895 C 587.8099999999996,125.11621454808949 587.0599999999996,124.14621454808952 587.1599999999996,123.2862145480895 C 587.2699999999996,122.4162145480895 588.1799999999996,121.61621454808949 588.8099999999996,120.83621454808952 C 589.1799999999996,120.38621454808953 589.6399999999996,119.99621454808954 590.1199999999995,119.65621454808951 C 591.5599999999996,118.62621454808954 592.9699999999996,117.58621454808952 593.9599999999996,116.0462145480895 C 594.3799999999995,115.39621454808952 594.9999999999995,114.8562145480895 595.5899999999996,114.32621454808947 C 597.1499999999995,112.91621454808944 596.2299999999996,111.40621454808945 595.8299999999996,109.90621454808945 C 595.7399999999996,109.56621454808948 595.4599999999996,109.25621454808947 595.4099999999996,108.91621454808944 C 595.0399999999996,106.21621454808945 592.9199999999996,105.45621454808946 590.7799999999996,104.75621454808942 C 589.9599999999996,104.48621454808944 587.6799999999996,102.11621454808943 587.6399999999996,101.1462145480894 C 587.5699999999996,99.4062145480894 587.6399999999996,97.6562145480894 587.6399999999996,95.91621454808939 C 587.6399999999996,94.50621454808936 587.6099999999997,93.10621454808938 587.6399999999996,91.69621454808936 C 587.6399999999996,91.22621454808933 587.7699999999996,90.74621454808937 587.8499999999997,90.15621454808934 C 587.4599999999997,90.12621454808937 587.0399999999997,90.09621454808934 586.5499999999997,90.05621454808932 C 586.4499999999997,90.6362145480893 586.3599999999997,91.15621454808934 586.2799999999997,91.59621454808934 C 585.1499999999997,91.89621454808935 584.0999999999998,92.34621454808934 583.0099999999998,92.44621454808936 C 581.3899999999998,92.58621454808934 579.7499999999998,92.52621454808934 578.1299999999998,92.42621454808938 C 577.7399999999998,92.3962145480894 577.1799999999997,91.92621454808938 577.0399999999997,91.54621454808938 C 576.5999999999997,90.2762145480894 575.6999999999997,89.9562145480894 574.4899999999998,89.69621454808936 C 573.5699999999998,89.49621454808937 572.7299999999998,88.77621454808934 571.9199999999997,88.19621454808936 C 570.5599999999997,87.22621454808933 569.1099999999998,86.30621454808937 567.9499999999997,85.12621454808937 C 566.6799999999997,83.83621454808934 565.6199999999997,82.30621454808937 564.5899999999997,80.79621454808938 C 564.0199999999996,79.9662145480894 563.4899999999997,79.34621454808939 562.4399999999997,79.01621454808941 C 561.6299999999998,78.76621454808941 561.0399999999997,77.87621454808942 560.3099999999997,77.31621454808942 C 558.6299999999998,76.0262145480894 557.0099999999998,74.63621454808941 555.2199999999997,73.5262145480894 C 553.7399999999997,72.61621454808937 552.0699999999997,71.97621454808939 550.4199999999997,71.38621454808941 C 550.0799999999997,71.26621454808941 549.4099999999997,71.7762145480894 548.9999999999998,72.12621454808942 C 547.8399999999998,73.12621454808942 546.7499999999998,74.10621454808944 545.0899999999998,74.3362145480894 C 544.5299999999999,74.41621454808939 544.1599999999999,75.51621454808941 543.5999999999998,76.04621454808938 C 543.2899999999998,76.34621454808939 542.7899999999998,76.49621454808937 542.3399999999998,76.5862145480894 C 540.6499999999997,76.91621454808939 538.9499999999998,77.18621454808942 537.3699999999998,77.4662145480894 C 537.0099999999998,77.43621454808942 536.6899999999998,77.37621454808942 536.3799999999998,77.38621454808941 C 535.4899999999998,77.42621454808943 534.5599999999997,77.34621454808939 533.7299999999998,77.5862145480894 C 532.9899999999998,77.80621454808943 532.1499999999997,78.25621454808942 531.7599999999998,78.85621454808938 C 531.5699999999997,79.1562145480894 532.1899999999997,80.13621454808936 532.6199999999998,80.6562145480894 C 533.6299999999998,81.88621454808941 534.7799999999997,83.00621454808942 535.8099999999998,84.2062145480894 C 536.0999999999998,84.54621454808938 536.3699999999998,85.04621454808938 536.3599999999998,85.4562145480894 C 536.3199999999998,87.19621454808942 537.9899999999998,87.68621454808942 538.6999999999998,88.85621454808938 C 539.3899999999999,89.97621454808939 540.6699999999998,91.19621454808936 540.5499999999998,92.23621454808938 C 540.3099999999998,94.31621454808936 538.8599999999998,95.87621454808937 536.5999999999998,96.3362145480894 C 535.9299999999998,96.47621454808939 535.2499999999998,96.61621454808937 534.3999999999997,96.79621454808938 C 535.0299999999997,98.25621454808936 534.5999999999998,100.00621454808936 536.4899999999998,100.9662145480894 C 537.0099999999998,101.22621454808939 536.9899999999998,102.81621454808942 536.9699999999998,103.78621454808939 C 536.9099999999999,106.59621454808939 534.4599999999998,108.50621454808942 531.7399999999998,107.8962145480894 C 530.7699999999998,107.67621454808938 529.8499999999998,107.18621454808942 528.8799999999998,106.94621454808942 C 528.3499999999998,106.81621454808942 527.6799999999997,106.7762145480894 527.2099999999998,106.98621454808944 C 524.6499999999999,108.14621454808946 522.2199999999998,109.67621454808943 519.5699999999998,110.50621454808942 C 518.1099999999998,110.9662145480894 516.2799999999999,110.73621454808944 514.6399999999999,110.28621454808939 C 511.8299999999999,109.5262145480894 508.9999999999999,108.82621454808941 506.1999999999998,108.00621454808942 C 505.37999999999977,107.76621454808941 504.6999999999998,107.01621454808941 503.8899999999999,106.84621454808939 C 499.9899999999999,106.00621454808942 496.29999999999984,106.97621454808939 492.65999999999985,108.32621454808941 C 492.0899999999998,108.53621454808939 491.4499999999998,108.57621454808941 490.8599999999999,108.74621454808943 C 489.01999999999987,109.26621454808941 487.2199999999999,110.11621454808943 485.3499999999999,110.2762145480894 C 482.9299999999999,110.48621454808938 480.9799999999999,112.19621454808942 478.4799999999999,112.07621454808941 C 477.7699999999999,112.04621454808944 476.9299999999999,112.66621454808939 476.3099999999999,113.18621454808942 C 474.5399999999999,114.6462145480894 472.2999999999999,114.5862145480894 470.2799999999999,115.23621454808944 C 467.69999999999993,116.06621454808942 465.1499999999999,117.05621454808943 462.69999999999993,118.20621454808946 C 461.5199999999999,118.75621454808947 460.48999999999995,119.73621454808944 459.5799999999999,120.70621454808946 C 458.00999999999993,122.36621454808949 456.6099999999999,124.19621454808947 455.0899999999999,125.91621454808944 C 454.0499999999999,127.08621454808946 452.9099999999999,128.15621454808945 451.8399999999999,129.29621454808944 C 450.4099999999999,130.81621454808942 448.9799999999999,132.33621454808946 447.5999999999999,133.90621454808945 C 446.5499999999999,135.11621454808943 445.8099999999999,136.69621454808947 443.7199999999999,136.32621454808947 C 443.2299999999999,136.24621454808948 442.5199999999999,136.59621454808945 442.1199999999999,136.97621454808944 C 439.4399999999999,139.52621454808946 436.0399999999999,140.34621454808945 432.5899999999999,140.91621454808944 C 430.6599999999999,141.23621454808944 429.6199999999999,142.67621454808943 428.1699999999999,143.62621454808942 C 427.5799999999999,144.0162145480894 426.7199999999999,143.98621454808944 425.9799999999999,144.1562145480894 C 425.9299999999999,143.4762145480894 425.6899999999999,142.74621454808937 425.8599999999999,142.11621454808937 C 426.2599999999999,140.55621454808937 427.4799999999999,139.76621454808935 428.9099999999999,139.10621454808938 C 430.2399999999999,138.48621454808938 431.4299999999999,137.56621454808936 432.6799999999999,136.7762145480894 C 434.0899999999999,135.87621454808942 435.4999999999999,134.98621454808938 436.8999999999999,134.0762145480894 C 437.74999999999994,133.5262145480894 438.5899999999999,132.94621454808942 439.4299999999999,132.37621454808942 C 440.26999999999987,131.79621454808944 441.1399999999999,131.23621454808944 441.9299999999999,130.60621454808944 C 443.3499999999999,129.46621454808945 444.70999999999987,128.25621454808942 446.1299999999999,127.11621454808943 C 448.2899999999999,125.3962145480894 450.82999999999987,124.07621454808941 452.14999999999986,121.46621454808945 C 452.54999999999984,120.67621454808943 452.8699999999999,119.84621454808945 453.16999999999985,119.01621454808947 C 454.03999999999985,116.60621454808944 455.1999999999998,114.43621454808948 457.26999999999987,112.78621454808945 C 459.07999999999987,111.34621454808945 460.6799999999999,109.64621454808946 462.5099999999999,108.23621454808944 C 463.84999999999985,107.19621454808942 465.3199999999999,106.25621454808942 466.8699999999999,105.57621454808941 C 468.4399999999999,104.8962145480894 470.0499999999999,105.12621454808942 471.7999999999999,105.60621454808938 C 473.8199999999999,106.1562145480894 476.0999999999999,106.03621454808939 478.2299999999999,105.82621454808941 C 481.3299999999999,105.5262145480894 483.8799999999999,103.88621454808941 486.17999999999995,101.84621454808939 C 486.69999999999993,101.38621454808941 487.31999999999994,101.00621454808942 487.77,100.48621454808938 C 489.34000000000003,98.66621454808939 491.15,98.19621454808936 493.49,98.88621454808936 C 494.66999999999996,99.23621454808938 496.03,98.94621454808936 497.28999999999996,98.99621454808937 C 498.18999999999994,98.99621454808937 499.18999999999994,99.24621454808937 499.9699999999999,98.93621454808937 C 500.93999999999994,98.54621454808938 501.7199999999999,97.68621454808937 502.5999999999999,97.04621454808938 C 503.2399999999999,96.57621454808935 503.90999999999985,96.13621454808936 504.5799999999999,95.7062145480894 C 505.6099999999999,95.04621454808938 506.7199999999999,94.49621454808943 507.66999999999996,93.74621454808943 C 508.4599999999999,93.12621454808942 509.36,92.38621454808941 509.69999999999993,91.49621454808943 C 510.4799999999999,89.43621454808942 510.31999999999994,87.57621454808941 508.64,85.8962145480894 C 507.96000000000004,85.2162145480894 507.15,84.6562145480894 506.28999999999996,83.9562145480894 C 506.28999999999996,83.8962145480894 506.49,83.43621454808942 506.3399999999999,83.26621454808941 C 505.1199999999999,81.84621454808939 506.1399999999999,80.53621454808939 506.6199999999999,79.3362145480894 C 507.0999999999999,78.13621454808941 507.8799999999999,77.10621454808938 509.2299999999999,76.41621454808939 C 511.28999999999985,75.35621454808938 513.2499999999999,74.00621454808936 515.0299999999999,72.50621454808936 C 515.7899999999998,71.86621454808937 515.9799999999999,70.55621454808937 516.4299999999998,69.55621454808937 C 514.7599999999999,68.34621454808939 513.3299999999998,67.2162145480894 511.79999999999984,66.22621454808939 C 510.78999999999985,65.57621454808941 509.6299999999999,65.1562145480894 508.5799999999998,64.57621454808941 C 506.51999999999987,63.42621454808943 504.75999999999976,61.936214548089424 504.29999999999984,59.50621454808942 C 504.15999999999985,58.79621454808944 504.54999999999984,57.92621454808943 504.8499999999998,57.196214548089415 C 505.1999999999998,56.34621454808939 505.79999999999984,55.60621454808944 506.13999999999976,54.75621454808942 C 506.38999999999976,54.13621454808941 506.28999999999974,53.35621454808944 506.5599999999997,52.746214548089426 C 507.8499999999997,49.87621454808942 509.4799999999997,47.12621454808942 510.4799999999997,44.15621454808945 C 511.2299999999997,41.92621454808943 511.26999999999964,39.44621454808947 511.50999999999965,37.06621454808948 C 511.5799999999997,36.4162145480895 511.3399999999997,35.68621454808948 511.0599999999996,35.07621454808947 C 510.9099999999996,34.756214548089474 510.27999999999963,34.37621454808948 510.00999999999965,34.45621454808946 C 508.61999999999966,34.89621454808946 507.26999999999964,35.476214548089445 505.9099999999996,36.016214548089465 C 505.3099999999996,36.256214548089474 504.6999999999996,36.49621454808948 504.11999999999966,36.776214548089456 C 503.50999999999965,37.07621454808947 502.9199999999996,37.41621454808944 502.26999999999964,37.776214548089456 L 502.0999999999997,37.41621454808944 C 500.75999999999965,38.16621454808944 499.4499999999997,38.59621454808945 497.9299999999997,37.81621454808942 C 497.3499999999997,37.51621454808941 496.50999999999976,37.75621454808942 495.8699999999998,37.53621454808945 C 495.05999999999983,37.246214548089426 494.3299999999998,36.736214548089436 493.5699999999998,36.31621454808942 C 492.3499999999998,35.656214548089395 491.1199999999998,34.996214548089426 489.89999999999986,34.3362145480894 C 489.1399999999999,33.926214548089376 488.3899999999999,33.50621454808942 487.6399999999999,33.0862145480894 C 487.26999999999987,33.85621454808938 486.8599999999999,34.60621454808938 486.53999999999985,35.396214548089404 C 486.1999999999998,36.22621454808939 486.04999999999984,37.13621454808941 485.64999999999986,37.936214548089424 C 485.1999999999998,38.8362145480894 484.53999999999985,39.63621454808941 484.0099999999999,40.50621454808942 C 483.21999999999986,41.80621454808943 482.4299999999999,43.09621454808939 481.71999999999986,44.446214548089415 C 481.33999999999986,45.16621454808944 480.8199999999999,45.78621454808939 480.96999999999986,46.79621454808944 C 481.34999999999985,49.32621454808941 482.96999999999986,50.95621454808946 484.7299999999999,52.496214548089426 C 485.41999999999996,53.09621454808945 486.1299999999999,53.51621454808941 486.44999999999993,54.50621454808942 C 486.7599999999999,55.446214548089415 487.66999999999996,56.10621454808944 488.2399999999999,56.9662145480894 C 489.4599999999999,58.82621454808941 488.5899999999999,60.37621454808942 487.9999999999999,61.85621454808938 C 487.30999999999983,63.59621454808939 486.0799999999999,65.12621454808937 485.0999999999999,66.76621454808941 C 484.5799999999999,67.62621454808942 484.77999999999986,68.9562145480894 483.44999999999993,69.28621454808939 C 483.63999999999993,69.9662145480894 483.62999999999994,70.9062145480894 484.06999999999994,71.26621454808941 C 485.30999999999995,72.25621454808942 486.7499999999999,72.97621454808939 488.0899999999999,73.84621454808939 C 488.6099999999999,74.18621454808937 489.05999999999995,74.6462145480894 489.4899999999999,75.00621454808942 C 489.28999999999985,75.44621454808942 489.06999999999994,75.99621454808943 488.79999999999984,76.5262145480894 C 488.1099999999998,77.9062145480894 487.6399999999999,79.49621454808943 486.64999999999986,80.61621454808937 C 484.8699999999999,82.63621454808936 482.8099999999999,84.41621454808939 480.78999999999985,86.2162145480894 C 479.78999999999985,87.10621454808938 478.80999999999983,87.78621454808939 479.09999999999985,89.44621454808942 C 479.17999999999984,89.9062145480894 478.03999999999985,90.8362145480894 477.28999999999985,91.11621454808943 C 476.15999999999985,91.54621454808944 474.8799999999998,91.73621454808944 473.65999999999985,91.77621454808946 C 472.95999999999987,91.79621454808944 472.08999999999986,91.49621454808948 471.5699999999999,91.03621454808945 C 469.6699999999999,89.31621454808942 467.15999999999985,89.67621454808943 464.9999999999999,88.91621454808944 C 462.77999999999986,88.13621454808947 461.9699999999999,90.01621454808947 460.76999999999987,91.09621454808945 C 459.04999999999984,92.64621454808946 457.6299999999999,94.49621454808943 455.46999999999986,95.57621454808947 C 453.48999999999984,96.56621454808948 451.66999999999985,97.86621454808949 450.22999999999985,98.75621454808947 C 449.10999999999984,98.2262145480895 448.3799999999998,97.8562145480895 447.6299999999998,97.53621454808945 C 446.8299999999998,97.18621454808942 446.0299999999998,96.81621454808942 445.1899999999998,96.56621454808942 C 442.67999999999984,95.82621454808941 440.3399999999998,96.38621454808941 438.0799999999998,97.5862145480894 C 437.8399999999998,97.7162145480894 437.4099999999998,97.49621454808943 437.1599999999998,97.61621454808937 C 436.4999999999998,97.93621454808937 435.8999999999998,98.37621454808937 435.2699999999998,98.74621454808937 C 432.5999999999998,100.30621454808937 429.6599999999998,101.13621454808936 426.7799999999998,102.19621454808936 C 424.0999999999998,103.17621454808938 421.1699999999998,103.60621454808938 418.7999999999998,105.58621454808934 C 417.4599999999998,106.70621454808935 415.43999999999977,107.00621454808936 413.7899999999998,107.80621454808937 C 412.9899999999998,108.18621454808937 412.3499999999998,108.89621454808935 411.5899999999998,109.38621454808936 C 411.2399999999998,109.61621454808937 410.7899999999998,109.68621454808937 410.3899999999998,109.82621454808935 C 408.9199999999998,110.34621454808934 407.4499999999998,110.87621454808937 405.8999999999998,111.42621454808938 C 405.9299999999998,111.51621454808935 405.8799999999998,111.31621454808936 405.7999999999998,111.13621454808936 C 405.5299999999998,110.47621454808933 404.8499999999998,109.52621454808934 405.06999999999977,109.21621454808934 C 405.6699999999998,108.36621454808932 406.63999999999976,107.76621454808935 407.4899999999998,107.10621454808933 C 407.6599999999998,106.97621454808933 408.12999999999977,107.07621454808935 408.1799999999998,106.9462145480893 C 409.1699999999998,104.45621454808929 411.7399999999998,104.08621454808929 413.63999999999976,102.8262145480893 C 414.31999999999977,102.37621454808931 414.89999999999975,101.8862145480893 415.8699999999998,101.87621454808931 C 416.6599999999998,101.86621454808932 417.4199999999998,101.0762145480893 418.2399999999998,100.78621454808933 C 420.62999999999977,99.93621454808931 423.0399999999998,99.17621454808932 425.43999999999977,98.33621454808934 C 425.7299999999998,98.23621454808932 425.9099999999998,97.84621454808934 426.1799999999998,97.64621454808935 C 426.81999999999977,97.18621454808937 427.4699999999998,96.71621454808934 428.1599999999998,96.33621454808934 C 428.9499999999998,95.89621454808935 429.8799999999998,95.66621454808933 430.5799999999998,95.12621454808937 C 431.5699999999998,94.37621454808937 432.6699999999998,93.75621454808936 433.6599999999998,93.03621454808939 C 435.2299999999998,91.8962145480894 437.4199999999998,91.59621454808939 439.3299999999998,90.9062145480894 C 440.9199999999998,90.32621454808941 442.5699999999998,89.84621454808939 444.0699999999998,89.07621454808941 C 446.6999999999998,87.7162145480894 449.30999999999983,86.28621454808939 451.7699999999998,84.6462145480894 C 453.2799999999998,83.63621454808941 453.4599999999998,81.32621454808941 452.4199999999998,79.97621454808939 C 452.18999999999977,79.67621454808938 451.7099999999998,79.55621454808937 451.5199999999998,79.4562145480894 C 451.1399999999998,78.88621454808941 450.92999999999984,78.32621454808941 450.5199999999998,77.99621454808943 C 448.3299999999998,76.15621454808945 447.9799999999998,72.17621454808943 450.17999999999984,70.24621454808943 C 451.60999999999984,68.98621454808944 453.52999999999986,68.30621454808943 455.14999999999986,67.24621454808943 C 456.82999999999987,66.1462145480894 458.7599999999999,65.59621454808945 460.40999999999985,64.30621454808943 C 461.5099999999999,63.456214548089406 462.6899999999998,62.686214548089424 463.64999999999986,61.63621454808941 C 464.29999999999984,60.92621454808943 464.5699999999999,58.17621454808943 464.03999999999985,57.36621454808943 C 463.84999999999985,57.07621454808941 463.45999999999987,56.92621454808943 462.91999999999985,56.526214548089456 C 462.8199999999998,56.276214548089456 462.67999999999984,55.54621454808944 462.27999999999986,55.016214548089465 C 460.60999999999984,52.82621454808947 459.07999999999987,50.45621454808946 457.05999999999983,48.64621454808946 C 455.6499999999998,47.38621454808947 454.71999999999986,45.42621454808943 452.59999999999985,44.976214548089445 C 452.42999999999984,44.936214548089424 452.15999999999985,44.65621454808945 452.17999999999984,44.54621454808944 C 452.55999999999983,42.946214548089415 451.16999999999985,42.026214548089456 450.7699999999998,40.736214548089436 C 450.3399999999998,39.35621454808944 450.5299999999998,38.06621454808942 451.4199999999998,36.85621454808944 C 452.4599999999998,35.42621454808943 453.3699999999998,33.90621454808945 454.4199999999998,32.486214548089436 C 455.3399999999998,31.246214548089426 456.4599999999998,30.15621454808945 457.3599999999998,28.89621454808946 C 458.2899999999998,27.58621454808946 459.06999999999977,26.176214548089433 459.87999999999977,24.776214548089456 C 460.5399999999998,23.63621454808947 461.2499999999998,22.496214548089483 461.7299999999998,21.266214548089465 C 462.2499999999998,19.956214548089463 462.6399999999998,18.566214548089476 462.8699999999998,17.18621454808948 C 463.2299999999998,15.046214548089495 463.7399999999998,12.856214548089497 462.75999999999976,10.726214548089501 C 462.18999999999977,9.476214548089501 461.56999999999977,8.246214548089483 460.93999999999977,6.92621454808949 C 457.87999999999977,8.696214548089472 455.0399999999998,10.246214548089483 452.3099999999998,11.946214548089472 C 451.2899999999998,12.576214548089467 450.5499999999998,13.63621454808947 449.57999999999976,14.366214548089488 C 448.37999999999977,15.276214548089513 447.0599999999998,16.026214548089513 445.8099999999998,16.866214548089488 C 445.4999999999998,17.076214548089467 445.2199999999998,17.346214548089506 444.9099999999998,17.556214548089486 C 443.8299999999998,18.296214548089495 443.2099999999998,19.4762145480895 441.6999999999998,19.87621454808948 C 440.5999999999998,20.1662145480895 439.49999999999983,21.446214548089472 438.92999999999984,22.546214548089495 C 437.84999999999985,24.646214548089517 435.79999999999984,25.736214548089492 434.39999999999986,27.4762145480895 C 433.46999999999986,28.636214548089526 432.22999999999985,29.556214548089486 431.08999999999986,30.536214548089504 C 429.7599999999999,31.69621454808953 428.48999999999984,32.96621454808951 427.0099999999999,33.90621454808951 C 424.7299999999999,35.346214548089506 422.2999999999999,36.576214548089524 419.90999999999985,37.836214548089515 C 418.86999999999983,38.38621454808953 417.98999999999984,39.39621454808952 416.53999999999985,38.93621454808954 C 416.15999999999985,38.81621454808953 415.54999999999984,39.31621454808953 415.07999999999987,39.59621454808956 C 413.32999999999987,40.626214548089536 411.09999999999985,40.696214548089586 409.7499999999999,42.626214548089536 C 408.7399999999999,44.076214548089524 407.2499999999999,45.19621454808953 406.0699999999999,46.54621454808955 C 405.1099999999999,47.646214548089574 403.7899999999999,48.52621454808957 403.6799999999999,50.20621454808958 C 403.6699999999999,50.426214548089604 403.2899999999999,50.62621454808959 403.0999999999999,50.84621454808956 C 402.31999999999994,51.73621454808955 401.69999999999993,52.906214548089565 400.7199999999999,53.406214548089565 C 400.0799999999999,53.73621454808955 399.6699999999999,54.166214548089556 399.1599999999999,54.58621454808957 C 397.9899999999999,55.53621454808956 396.7799999999999,56.446214548089586 395.4899999999999,57.22621454808956 C 393.9799999999999,58.13621454808958 392.3499999999999,58.866214548089545 390.8099999999999,59.73621454808955 C 389.6899999999999,60.366214548089545 388.4999999999999,61.01621454808952 387.4199999999999,61.53621454808956 C 386.0199999999999,62.21621454808957 384.6599999999999,63.04621454808955 383.2399999999999,63.71621454808957 C 381.3999999999999,64.58621454808957 379.6399999999999,65.62621454808959 377.9099999999999,66.70621454808958 C 376.7399999999999,67.4362145480896 376.63999999999993,68.81621454808959 377.3499999999999,70.32621454808958 C 377.7299999999999,71.13621454808958 378.0799999999999,71.9862145480896 378.31999999999994,72.85621454808955 C 378.62999999999994,74.00621454808953 379.0199999999999,74.99621454808954 380.1599999999999,75.64621454808957 C 381.4799999999999,76.39621454808957 382.7199999999999,77.12621454808959 384.2499999999999,77.5562145480896 C 386.1299999999999,78.08621454808957 387.8799999999999,79.1762145480896 389.57999999999987,80.1862145480896 C 390.16999999999985,80.53621454808962 390.45999999999987,81.40621454808962 390.8699999999999,82.04621454808961 C 391.1099999999999,82.4262145480896 391.32999999999987,82.82621454808958 391.4799999999999,83.09621454808962 L 391.4799999999999,85.46621454808962 C 391.1599999999999,86.03621454808962 390.94999999999993,86.6162145480896 390.5799999999999,87.0562145480896 C 389.38999999999993,88.45621454808958 388.2299999999999,89.91621454808961 386.87999999999994,91.14621454808957 C 385.05999999999995,92.8062145480896 384.87999999999994,94.81621454808959 386.93999999999994,96.12621454808959 C 388.13999999999993,96.88621454808958 388.9699999999999,97.7362145480896 389.54999999999995,98.96621454808957 C 389.65999999999997,99.20621454808958 389.99999999999994,99.32621454808958 390.25999999999993,99.52621454808957 C 389.5899999999999,102.26621454808958 387.47999999999996,103.66621454808956 385.13999999999993,104.66621454808956 C 381.8499999999999,106.06621454808953 378.4599999999999,107.22621454808956 375.10999999999996,108.46621454808957 C 374.78999999999996,108.58621454808957 374.41999999999996,108.52621454808957 374.08,108.59621454808956 C 372.25,109.01621454808958 370.39,109.34621454808956 368.59999999999997,109.90621454808957 C 366.84999999999997,110.45621454808958 365.21,111.34621454808956 363.46,111.88621454808958 C 360.78,112.71621454808957 358.32,113.9262145480896 355.97999999999996,115.46621454808957 C 354.80999999999995,116.23621454808955 353.37999999999994,116.60621454808955 352.11999999999995,117.25621454808959 C 349.50999999999993,118.60621454808961 347.05999999999995,120.37621454808959 344.30999999999995,121.29621454808961 C 341.96999999999997,122.07621454808958 340.74999999999994,123.8062145480896 338.99999999999994,125.3062145480896 C 337.88999999999993,124.94621454808959 336.04999999999995,125.1762145480896 336.41999999999996,122.96621454808962 C 336.53999999999996,122.25621454808964 336.9,121.4862145480896 337.37999999999994,120.93621454808965 C 339.79999999999995,118.21621454808962 342.37999999999994,115.62621454808965 344.74999999999994,112.86621454808966 C 346.34999999999997,111.00621454808964 348.31999999999994,109.67621454808966 350.2699999999999,108.26621454808964 C 350.8499999999999,107.84621454808962 351.2099999999999,107.13621454808964 351.7999999999999,106.73621454808966 C 354.3999999999999,104.99621454808965 357.07999999999987,103.37621454808965 359.6599999999999,101.60621454808967 C 361.0499999999999,100.64621454808969 362.2999999999999,99.48621454808966 363.6199999999999,98.41621454808967 C 363.7899999999999,98.27621454808968 363.9699999999999,98.08621454808969 364.1799999999999,98.04621454808967 C 365.76999999999987,97.76621454808969 366.5099999999999,96.42621454808966 367.1399999999999,95.26621454808969 C 367.4399999999999,94.71621454808968 366.91999999999985,93.35621454808967 366.34999999999985,92.79621454808967 C 365.60999999999984,92.06621454808965 364.4399999999998,91.79621454808967 363.90999999999985,90.73621454808966 C 363.40999999999985,89.72621454808967 362.92999999999984,88.70621454808969 362.3899999999999,87.72621454808967 C 361.3699999999999,85.8862145480897 361.70999999999987,84.34621454808968 362.9899999999999,82.6962145480897 C 363.76999999999987,81.68621454808971 364.2199999999999,80.3162145480897 364.5099999999999,79.04621454808972 C 364.9999999999999,76.91621454808973 364.82999999999987,76.24621454808971 362.90999999999985,75.8162145480897 C 361.23999999999984,75.4462145480897 360.65999999999985,74.35621454808972 359.95999999999987,73.23621454808972 C 358.73999999999984,71.30621454808971 357.64999999999986,69.29621454808972 356.4399999999999,67.22621454808973 C 354.33999999999986,68.6262145480897 352.1199999999999,69.96621454808974 350.08999999999986,71.52621454808974 C 349.03999999999985,72.33621454808974 348.32999999999987,73.58621454808974 347.42999999999984,74.59621454808973 C 346.16999999999985,76.01621454808975 344.9399999999998,77.47621454808973 343.55999999999983,78.76621454808975 C 341.3999999999998,80.76621454808975 339.1399999999998,82.65621454808974 336.8799999999998,84.54621454808972 C 335.99999999999983,85.28621454808973 334.99999999999983,85.89621454808974 334.05999999999983,86.5762145480897 C 333.6299999999998,86.8862145480897 333.2099999999998,87.22621454808967 332.77999999999986,87.55621454808971 C 332.05999999999983,87.79621454808972 331.23999999999984,88.04621454808972 330.4399999999999,88.34621454808973 C 329.5099999999999,88.69621454808976 328.6199999999999,89.16621454808973 327.6699999999999,89.45621454808975 C 327.3299999999999,89.55621454808977 326.8699999999999,89.29621454808972 326.5899999999999,89.22621454808973 C 326.2099999999999,89.5062145480897 325.9099999999999,89.91621454808973 325.5499999999999,89.96621454808974 C 323.7899999999999,90.21621454808974 322.5599999999999,91.31621454808976 321.2699999999999,92.38621454808975 C 319.69999999999993,93.68621454808977 318.06999999999994,94.92621454808977 316.5399999999999,96.27621454808974 C 315.1599999999999,97.49621454808977 313.9199999999999,98.87621454808976 312.5499999999999,100.11621454808972 C 311.2499999999999,101.29621454808972 310.7099999999999,103.2562145480897 308.7999999999999,103.80621454808971 C 308.7499999999999,103.8162145480897 308.6999999999999,103.84621454808973 308.6699999999999,103.8862145480897 C 306.8099999999999,105.93621454808971 304.4299999999999,107.33621454808969 302.2899999999999,109.02621454808968 C 300.6899999999999,110.28621454808967 298.8999999999999,111.10621454808967 297.2199999999999,112.15621454808968 C 296.9999999999999,112.29621454808967 296.8999999999999,112.6362145480897 296.9599999999999,112.54621454808967 C 296.0499999999999,112.97621454808967 295.43999999999994,113.27621454808968 294.80999999999995,113.55621454808966 C 293.98999999999995,113.92621454808966 293.09999999999997,114.18621454808965 292.3399999999999,114.64621454808963 C 290.4799999999999,115.75621454808964 288.4599999999999,116.45621454808963 286.4199999999999,117.05621454808966 C 283.7499999999999,117.84621454808968 280.9699999999999,118.10621454808967 278.1999999999999,118.02621454808968 C 275.9299999999999,117.95621454808969 274.1099999999999,119.23621454808966 272.0699999999999,119.83621454808969 C 270.02999999999986,120.43621454808971 268.1199999999999,121.49621454808971 266.14999999999986,122.35621454808967 C 266.0599999999999,122.39621454808969 265.92999999999984,122.38621454808964 265.8799999999999,122.44621454808964 C 265.0099999999999,123.40621454808962 263.9199999999999,123.91621454808967 262.70999999999987,124.43621454808965 C 260.0699999999999,125.57621454808964 258.60999999999984,127.94621454808964 257.32999999999987,130.47621454808967 C 256.2599999999999,132.58621454808969 254.77999999999986,134.43621454808965 252.70999999999987,135.8262145480897 C 251.2499999999999,136.8062145480897 250.09999999999985,138.23621454808972 248.81999999999988,139.48621454808972 C 246.9999999999999,141.2562145480897 245.01999999999987,142.72621454808973 242.63999999999987,143.73621454808972 C 240.90999999999985,144.47621454808973 239.13999999999987,145.3862145480897 237.75999999999988,146.6262145480897 C 236.03999999999985,148.17621454808972 233.7399999999999,148.1862145480897 231.94999999999987,149.41621454808973 C 231.26999999999987,149.8762145480897 230.5599999999999,150.3062145480897 229.7999999999999,150.6262145480897 C 228.12999999999988,151.3262145480897 226.4299999999999,151.9362145480897 224.7499999999999,152.61621454808972 C 222.9299999999999,153.34621454808973 221.15999999999988,154.23621454808972 219.2999999999999,154.83621454808974 C 217.9199999999999,155.28621454808973 216.4099999999999,155.32621454808975 214.96999999999989,155.63621454808975 C 213.68999999999988,155.91621454808973 212.43999999999988,156.33621454808974 211.16999999999987,156.69621454808976 C 209.81999999999988,157.07621454808975 208.41999999999987,157.35621454808978 207.11999999999986,157.85621454808978 C 205.79999999999987,158.36621454808977 204.55999999999986,159.0962145480898 203.06999999999985,159.8362145480898 C 201.74999999999986,159.2162145480898 201.27999999999986,158.3862145480898 202.15999999999985,157.7062145480898 C 202.68999999999986,157.29621454808978 203.26999999999987,156.81621454808982 203.89999999999986,156.68621454808982 C 206.10999999999987,156.23621454808983 206.92999999999986,154.00621454808982 208.71999999999986,153.0862145480898 C 209.57999999999987,152.6462145480898 210.66999999999985,152.66621454808978 211.57999999999987,152.2862145480898 C 213.60999999999987,151.4462145480898 215.57999999999987,150.4462145480898 217.60999999999987,149.5862145480898 C 219.16999999999987,148.91621454808978 220.76999999999987,148.3862145480898 222.32999999999987,147.72621454808979 C 222.65999999999988,147.5862145480898 222.82999999999987,147.04621454808978 223.15999999999988,146.9062145480898 C 225.4299999999999,145.9462145480898 227.75999999999988,145.10621454808978 230.00999999999988,144.0862145480898 C 231.43999999999988,143.4462145480898 232.76999999999987,142.5762145480898 234.12999999999988,141.7862145480898 C 235.06999999999988,141.23621454808978 235.94999999999987,140.56621454808976 236.9299999999999,140.0962145480898 C 239.01999999999987,139.10621454808978 240.64999999999992,137.5862145480898 242.33999999999992,136.05621454808977 C 243.51999999999992,134.98621454808978 244.99999999999994,134.23621454808978 246.3499999999999,133.3462145480898 C 246.5999999999999,133.18621454808977 246.89999999999992,133.0862145480898 247.1099999999999,132.8962145480898 C 249.63999999999987,130.54621454808978 252.1099999999999,128.12621454808982 254.70999999999992,125.85621454808978 C 255.67999999999995,125.00621454808976 257.1499999999999,124.67621454808977 258.0199999999999,123.74621454808977 C 259.55999999999995,122.09621454808979 261.8499999999999,121.72621454808979 263.3999999999999,120.26621454808975 C 264.7399999999999,119.00621454808976 266.25999999999993,118.31621454808976 267.9599999999999,117.85621454808972 C 268.2299999999999,117.78621454808973 268.5799999999999,117.72621454808973 268.7099999999999,117.52621454808974 C 269.4799999999999,116.45621454808975 270.5299999999999,116.21621454808974 271.7899999999999,115.91621454808973 C 274.7299999999999,115.20621454808975 277.5799999999999,114.09621454808973 280.4599999999999,113.13621454808975 C 281.1099999999999,112.91621454808973 281.75999999999993,112.69621454808976 282.36999999999995,112.38621454808975 C 282.81999999999994,112.15621454808974 283.18999999999994,111.78621454808973 283.5199999999999,111.26621454808975 C 280.0899999999999,110.44621454808976 277.0299999999999,108.96621454808974 273.56999999999994,108.50621454808976 C 271.1499999999999,108.17621454808977 269.61999999999995,109.59621454808973 267.61999999999995,109.90621454808974 C 265.4599999999999,110.24621454808971 263.3999999999999,111.15621454808974 261.28999999999996,111.81621454808976 C 261.2,111.84621454808973 261.03,111.85621454808978 260.99999999999994,111.81621454808976 C 260.09999999999997,110.30621454808977 258.2699999999999,111.28621454808979 257.12999999999994,110.37621454808976 C 256.69999999999993,110.03621454808979 256.0799999999999,109.84621454808979 255.50999999999993,109.76621454808975 C 253.32999999999993,109.43621454808977 252.11999999999995,111.01621454808975 251.0999999999999,112.45621454808975 C 249.01999999999992,115.38621454808975 247.2399999999999,118.52621454808974 245.20999999999992,121.49621454808977 C 244.1099999999999,123.11621454808977 242.88999999999993,124.70621454808975 241.44999999999993,126.02621454808974 C 239.99999999999994,127.35621454808972 238.2199999999999,128.31621454808976 236.58999999999992,129.44621454808976 C 234.5499999999999,130.85621454808978 232.43999999999994,132.16621454808978 230.49999999999994,133.69621454808976 C 227.91999999999996,135.74621454808977 225.46999999999994,137.97621454808973 222.97999999999993,140.14621454808974 C 222.58999999999995,140.48621454808972 222.26999999999992,140.89621454808974 221.89999999999992,141.28621454808973 C 219.82999999999993,139.98621454808972 219.50999999999993,138.14621454808974 221.24999999999991,136.21621454808974 C 222.6699999999999,134.63621454808975 223.77999999999992,132.86621454808972 224.92999999999992,131.09621454808973 C 225.95999999999992,129.51621454808975 227.14999999999992,127.97621454808973 228.93999999999994,126.90621454808974 C 231.11999999999995,125.59621454808973 232.9699999999999,123.74621454808971 234.95999999999992,122.13621454808975 C 235.50999999999993,121.68621454808977 236.06999999999994,121.23621454808978 236.80999999999995,120.64621454808974 C 235.75999999999993,119.80621454808977 235.78999999999996,117.81621454808976 233.99999999999994,117.86621454808977 C 233.49999999999994,116.94621454808976 233.01999999999992,116.16621454808978 232.64999999999992,115.3362145480898 C 231.37999999999994,112.56621454808982 232.75999999999993,108.24621454808982 234.99999999999994,106.10621454808978 C 235.98999999999995,105.15621454808979 236.82999999999993,103.97621454808979 237.49999999999994,102.7662145480898 C 238.09999999999997,101.68621454808982 237.70999999999992,100.7662145480898 236.82999999999993,99.7162145480898 C 235.2199999999999,97.78621454808979 234.1099999999999,95.43621454808982 232.54999999999995,93.4562145480898 C 231.01999999999998,91.5262145480898 231.60999999999996,89.25621454808982 231.11999999999995,87.16621454808978 C 231.05999999999995,86.92621454808977 231.35999999999996,86.56621454808976 231.54999999999995,86.31621454808976 C 232.36999999999995,85.27621454808974 233.10999999999996,84.15621454808974 234.05999999999995,83.25621454808976 C 235.69999999999993,81.70621454808975 235.83999999999992,79.91621454808978 235.29999999999995,77.90621454808974 C 234.84999999999997,76.25621454808976 232.48999999999995,73.04621454808972 231.07999999999993,71.97621454808973 C 230.37999999999994,71.44621454808976 229.86999999999995,70.65621454808974 229.23999999999995,70.01621454808975 C 228.78999999999996,69.56621454808976 228.28999999999996,69.17621454808977 227.80999999999995,68.76621454808975 C 226.17999999999995,67.35621454808972 224.52999999999994,65.94621454808976 222.91999999999996,64.51621454808975 C 222.66999999999996,64.29621454808972 222.54999999999995,63.91621454808973 222.23999999999995,63.41621454808973 C 221.02999999999994,64.61621454808972 219.93999999999994,65.70621454808975 218.83999999999995,66.79621454808972 C 218.76999999999995,66.86621454808972 218.69999999999996,66.95621454808975 218.60999999999996,66.98621454808972 C 217.26999999999995,67.3762145480897 215.91999999999996,68.0662145480897 214.57999999999996,68.0662145480897 C 212.06999999999996,68.05621454808971 211.95999999999995,68.0662145480897 210.98999999999995,70.22621454808973 C 210.33999999999995,71.65621454808974 209.29999999999995,72.92621454808972 208.39999999999995,74.23621454808972 C 206.83999999999995,76.51621454808969 205.25999999999996,78.78621454808973 203.67999999999995,81.0662145480897 C 203.64999999999995,81.10621454808972 203.61999999999995,81.14621454808969 203.60999999999996,81.1962145480897 C 203.50999999999996,81.6262145480897 205.20999999999995,84.71621454808968 205.67999999999995,84.86621454808972 C 206.71999999999994,85.20621454808969 207.95999999999995,85.26621454808969 208.75999999999996,85.89621454808969 C 209.47999999999996,86.46621454808968 209.90999999999997,87.59621454808968 210.12999999999997,88.5662145480897 C 210.49999999999997,90.1962145480897 210.67999999999998,91.8162145480897 209.91999999999996,93.51621454808969 C 209.31999999999996,94.85621454808967 209.20999999999995,96.46621454808968 207.94999999999996,97.41621454808967 C 206.23999999999995,98.71621454808968 204.48999999999995,99.97621454808967 202.61999999999995,101.02621454808968 C 200.41999999999996,102.27621454808968 198.05999999999995,103.21621454808968 195.85999999999996,104.46621454808968 C 195.40999999999997,104.72621454808967 195.37999999999997,105.73621454808966 195.10999999999996,106.53621454808967 C 196.69999999999996,107.22621454808967 198.24999999999994,107.86621454808966 199.77999999999994,108.5762145480897 C 201.39999999999995,109.3162145480897 202.52999999999994,110.53621454808967 203.05999999999995,112.27621454808968 C 202.84999999999994,112.45621454808969 202.35999999999996,112.68621454808971 202.36999999999995,112.8862145480897 C 202.64999999999995,116.72621454808967 200.16999999999996,118.74621454808971 197.38999999999996,120.5762145480897 C 196.74999999999997,120.99621454808971 196.13999999999996,121.45621454808969 195.46999999999997,121.80621454808971 C 194.88999999999996,122.11621454808972 194.23999999999998,122.29621454808972 193.67999999999998,122.58621454808969 C 192.76,123.02621454808968 191.87999999999997,123.67621454808966 190.92,123.8862145480897 C 187.1,124.67621454808972 183.23999999999998,125.28621454808967 179.42,126.05621454808971 C 177.97,126.34621454808973 176.48,126.74621454808971 175.16,127.40621454808974 C 173.62,128.16621454808973 172.24,129.25621454808976 170.81,130.21621454808974 C 170.68,130.3062145480897 170.64000000000001,130.5562145480897 170.6,130.73621454808972 C 170.23,132.45621454808975 169.66,132.8162145480897 168.1,132.42621454808972 C 166.48999999999998,133.3162145480897 166.0,135.53621454808973 163.56,135.1862145480897 C 162.83,135.0762145480897 161.92000000000002,136.2662145480897 160.64000000000001,137.1862145480897 C 160.51000000000002,136.0062145480897 160.12,135.10621454808972 160.39000000000001,134.4962145480897 C 161.16000000000003,132.7462145480897 161.93,130.85621454808972 163.21,129.48621454808972 C 165.12,127.43621454808971 167.5,125.8162145480897 169.61,123.95621454808975 C 170.73000000000002,122.96621454808974 171.96,122.21621454808974 172.86,120.81621454808976 C 173.58,119.68621454808977 174.64000000000001,118.70621454808975 175.09,117.29621454808978 C 173.82,116.32621454808975 173.0,115.2762145480898 172.81,113.53621454808979 C 172.67000000000002,112.32621454808981 173.67000000000002,112.55621454808977 173.98,111.98621454808978 C 174.56,110.90621454808979 175.72,110.1462145480898 176.64999999999998,109.25621454808976 C 176.81999999999996,109.09621454808973 177.02999999999997,108.95621454808975 177.23999999999998,108.85621454808978 C 179.29999999999998,107.90621454808979 180.32,106.16621454808978 180.98,104.11621454808977 C 181.19,103.45621454808975 181.61999999999998,102.86621454808977 181.82999999999998,102.20621454808975 C 181.94,101.88621454808975 181.77999999999997,101.47621454808973 181.74999999999997,101.10621454808972 C 181.38999999999996,101.16621454808973 181.03999999999996,101.22621454808973 180.64999999999998,101.28621454808973 C 180.64999999999998,99.94621454808976 179.51999999999998,99.89621454808974 178.64999999999998,99.97621454808973 C 176.10999999999999,100.22621454808973 174.57999999999998,98.49621454808971 172.86999999999998,97.18621454808971 C 172.18999999999997,96.66621454808973 172.65999999999997,94.91621454808973 173.56999999999996,94.51621454808969 C 175.69999999999996,93.5662145480897 177.84999999999997,92.65621454808968 180.02999999999997,91.8262145480897 C 181.32999999999998,91.3262145480897 182.79999999999998,91.17621454808972 184.00999999999996,90.52621454808968 C 185.51999999999995,89.71621454808968 186.71999999999997,88.30621454808966 188.25999999999996,87.60621454808967 C 190.20999999999995,86.72621454808967 190.73999999999995,85.16621454808967 190.55999999999997,83.45621454808969 C 190.43999999999997,82.28621454808967 189.76999999999998,80.93621454808971 188.90999999999997,80.1262145480897 C 187.12999999999997,78.4462145480897 185.97999999999996,76.39621454808969 185.36999999999998,74.1962145480897 C 184.92,72.59621454808968 186.20999999999998,71.24621454808971 187.56999999999996,70.22621454808967 C 188.99999999999997,69.15621454808968 190.39999999999998,68.04621454808967 191.74999999999997,66.87621454808965 C 192.78999999999996,65.97621454808967 192.67999999999998,64.83621454808963 191.81999999999996,63.64621454808963 C 190.97999999999996,62.476214548089615 189.70999999999995,61.65621454808962 189.17999999999998,60.226214548089615 C 189.04,59.85621454808961 188.42999999999998,59.686214548089595 188.04999999999998,59.39621454808963 C 186.35,58.08621454808963 184.98,56.40621454808962 183.02999999999997,55.33621454808963 C 181.01999999999998,54.236214548089606 180.61999999999998,52.62621454808965 181.01999999999998,50.40621454808962 C 181.26999999999998,49.03621454808962 181.23,47.6162145480896 181.26,46.216214548089624 C 181.32,43.476214548089615 182.88,41.28621454808962 184.06,38.716214548089624 C 183.37,38.57621454808964 182.73,38.4962145480896 182.12,38.31621454808965 C 181.65,38.17621454808966 181.20000000000002,37.91621454808967 180.76,37.69621454808964 C 180.57,37.60621454808967 180.41,37.36621454808966 180.23,37.35621454808967 C 178.76999999999998,37.326214548089695 177.31,37.37621454808965 175.85,37.31621454808965 C 174.29999999999998,37.246214548089654 172.75,37.07621454808964 171.07999999999998,36.94621454808964 C 171.07999999999998,36.93621454808965 171.04,37.20621454808963 170.98,37.57621454808964 C 169.82999999999998,36.216214548089624 168.63,35.17621454808966 166.47,35.28621454808962 C 168.39,37.38621454808964 167.21,39.426214548089604 166.92,41.45621454808963 C 166.82999999999998,42.06621454808965 167.10999999999999,42.726214548089615 167.17999999999998,43.36621454808966 C 167.20999999999998,43.62621454808965 167.26,44.006214548089645 167.11999999999998,44.15621454808968 C 165.80999999999997,45.496214548089654 166.49999999999997,47.126214548089706 166.48,48.626214548089706 C 166.47,49.356214548089724 166.97,50.076214548089695 167.10999999999999,50.816214548089704 C 167.63,53.47621454808973 169.54,54.616214548089715 171.80999999999997,55.616214548089715 C 173.04999999999998,56.16621454808973 174.50999999999996,56.566214548089704 174.92999999999998,58.41621454808973 C 175.37999999999997,60.366214548089715 174.39999999999998,63.52621454808974 172.54999999999998,64.5062145480897 C 170.52999999999997,65.5762145480897 170.46999999999997,66.46621454808968 172.27999999999997,67.80621454808971 C 172.60999999999999,68.04621454808972 172.78999999999996,68.53621454808973 172.93999999999997,68.9462145480897 C 173.04999999999998,69.24621454808971 172.91999999999996,69.65621454808968 173.06999999999996,69.91621454808973 C 174.87999999999997,73.0062145480897 173.27999999999997,74.60621454808972 170.97999999999996,75.70621454808975 C 170.13999999999996,76.10621454808972 169.51999999999995,76.93621454808977 168.71999999999997,77.42621454808977 C 168.13999999999996,77.78621454808979 167.42999999999998,77.9662145480898 166.75999999999996,78.1462145480898 C 165.52999999999997,78.47621454808979 164.27999999999997,78.75621454808982 162.80999999999997,79.11621454808983 C 163.09999999999997,80.12621454808982 163.34999999999997,80.84621454808985 163.50999999999996,81.57621454808981 C 163.73999999999995,82.63621454808981 163.44999999999996,83.5862145480898 162.39999999999995,83.97621454808979 C 160.47999999999996,84.68621454808977 158.49999999999994,85.11621454808977 156.42999999999995,84.48621454808978 C 156.00999999999996,84.35621454808978 155.49999999999994,84.49621454808977 155.03999999999996,84.55621454808977 C 152.39999999999998,84.88621454808975 149.74999999999997,85.16621454808978 147.11999999999998,85.56621454808976 C 145.2,85.86621454808977 143.27999999999997,86.25621454808976 141.40999999999997,86.76621454808975 C 140.47999999999996,87.01621454808975 139.67999999999998,87.69621454808976 138.77999999999997,88.08621454808974 C 137.41999999999996,88.67621454808972 136.02999999999997,89.20621454808975 134.64,89.71621454808974 C 133.23999999999998,90.22621454808973 131.79,90.61621454808972 130.41,91.16621454808973 C 128.18,92.04621454808972 125.88,92.82621454808975 123.79999999999998,93.99621454808971 C 122.49999999999997,94.72621454808973 121.01999999999998,94.95621454808969 119.80999999999997,95.79621454808972 C 120.34999999999997,97.30621454808971 119.95999999999998,97.8762145480897 118.56999999999996,98.85621454808972 C 116.91999999999996,100.01621454808975 114.95999999999995,99.67621454808972 113.22999999999996,100.28621454808973 C 110.70999999999995,101.18621454808971 108.14999999999995,102.01621454808975 105.70999999999995,103.11621454808972 C 103.53999999999996,104.09621454808973 101.50999999999996,105.3862145480897 99.43999999999994,106.5762145480897 C 97.96999999999994,107.42621454808972 96.51999999999995,108.3162145480897 95.08999999999995,109.21621454808968 C 94.48999999999995,109.59621454808968 93.99999999999994,110.22621454808967 93.36999999999995,110.42621454808966 C 92.85999999999996,110.58621454808969 91.99999999999994,110.46621454808968 91.65999999999997,110.11621454808966 C 91.06999999999996,109.50621454808964 90.03999999999996,108.78621454808967 91.19999999999996,107.70621454808963 C 92.38999999999996,106.59621454808962 93.52999999999997,105.42621454808966 94.65999999999997,104.26621454808964 C 95.13999999999996,103.77621454808963 95.48999999999995,103.15621454808962 96.00999999999996,102.73621454808966 C 97.54999999999995,101.49621454808965 99.28999999999996,100.47621454808967 100.67999999999995,99.10621454808967 C 102.36999999999995,97.44621454808964 104.49999999999994,96.71621454808968 106.48999999999995,95.64621454808969 C 107.31999999999996,95.1962145480897 107.90999999999994,94.3262145480897 108.72999999999996,93.83621454808969 C 110.79999999999995,92.60621454808967 112.07999999999996,90.51621454808969 114.00999999999996,89.1262145480897 C 115.92999999999995,87.73621454808972 117.79999999999995,86.27621454808968 119.72999999999996,84.89621454808969 C 121.04999999999995,83.95621454808969 122.41999999999996,83.09621454808968 123.78999999999996,82.22621454808967 C 125.32999999999996,81.24621454808965 126.85999999999996,80.25621454808964 128.44999999999996,79.35621454808967 C 128.89999999999995,79.10621454808967 129.51999999999995,79.10621454808967 130.05999999999997,79.09621454808968 C 131.70999999999998,79.0662145480897 132.67999999999998,77.49621454808965 134.15999999999997,77.27621454808968 C 135.72999999999996,77.04621454808967 137.02999999999997,76.27621454808968 138.43999999999997,75.72621454808967 C 139.78999999999996,75.1962145480897 141.26999999999998,75.00621454808964 142.70999999999998,74.72621454808967 C 145.86999999999998,74.11621454808966 148.98,73.42621454808966 151.67,71.49621454808965 C 152.42999999999998,70.95621454808963 152.35999999999999,70.57621454808964 151.89,69.80621454808966 C 150.7,67.82621454808964 149.79999999999998,65.69621454808964 149.51999999999998,63.37621454808965 C 149.49999999999997,63.18621454808965 149.67999999999998,62.97621454808967 149.76999999999998,62.786214548089674 C 150.61999999999998,60.92621454808966 151.46999999999997,59.06621454808965 152.32999999999998,57.21621454808968 C 152.52999999999997,56.77621454808968 152.89,56.3862145480897 152.98,55.92621454808966 C 153.10999999999999,55.27621454808968 153.29999999999998,54.46621454808968 153.04,53.93621454808965 C 152.25,52.31621454808965 151.39,50.69621454808964 150.31,49.27621454808963 C 148.88,47.40621454808962 147.24,45.70621454808963 145.63,43.986214548089606 C 145.17,43.4962145480896 144.49,43.226214548089615 143.95,42.8062145480896 C 143.7,42.60621454808961 143.48,42.3062145480896 143.35999999999999,42.00621454808959 C 142.47,39.946214548089586 141.66,37.85621454808961 140.73,35.82621454808958 C 140.1,34.446214548089586 140.82,33.28621454808956 141.22,32.1162145480896 C 141.85,30.29621454808961 142.82,28.59621454808962 143.44,26.76621454808958 C 143.79,25.746214548089597 143.73,24.57621454808958 143.82,23.47621454808956 C 144.01999999999998,20.966214548089567 145.54,18.946214548089586 146.32,16.656214548089565 C 146.79,15.27621454808957 146.85999999999999,13.766214548089579 147.10999999999999,12.306214548089542 C 146.89,12.216214548089567 146.67999999999998,12.116214548089545 146.45999999999998,12.02621454808957 C 145.54999999999998,12.906214548089565 144.68999999999997,13.836214548089572 143.71999999999997,14.646214548089574 C 142.95999999999998,15.28621454808956 142.04999999999998,15.73621454808955 141.23999999999998,16.32621454808958 C 140.35,16.966214548089567 139.43999999999997,17.586214548089572 138.65999999999997,18.346214548089563 C 136.60999999999996,20.356214548089554 134.54999999999995,22.31621454808959 133.06999999999996,24.876214548089536 C 132.10999999999996,26.54621454808955 130.39999999999998,27.766214548089522 129.12999999999997,29.28621454808956 C 127.74999999999997,30.946214548089586 126.42999999999998,32.666214548089556 125.20999999999998,34.446214548089586 C 123.92999999999998,36.3062145480896 122.82999999999998,38.28621454808956 121.59999999999997,40.176214548089604 C 121.40999999999997,40.466214548089624 120.95999999999998,40.676214548089604 120.58999999999997,40.76621454808958 C 119.35999999999999,41.07621454808958 118.54999999999998,41.4962145480896 119.05999999999997,43.0562145480896 C 119.20999999999998,43.50621454808959 118.69999999999996,44.226214548089615 118.38999999999999,44.75621454808959 C 117.75,45.83621454808957 117.1,46.91621454808961 116.33999999999997,47.896214548089574 C 116.07999999999998,48.23621454808955 115.45999999999998,48.31621454808959 114.98999999999998,48.45621454808958 C 113.00999999999999,49.0562145480896 111.35,50.176214548089604 109.76999999999998,51.47621454808956 C 109.48999999999998,51.70621454808958 108.78999999999999,51.54621454808955 108.33999999999997,51.38621454808958 C 107.75999999999996,51.176214548089604 107.22999999999996,50.79621454808961 106.60999999999999,50.436214548089595 C 106.61999999999998,50.32621454808958 106.64999999999998,50.03621454808962 106.66999999999999,49.90621454808962 C 104.35,50.176214548089604 104.53,47.82621454808964 103.35,47.02621454808963 C 103.18,47.12621454808965 102.97999999999999,47.256214548089645 102.78999999999999,47.3662145480896 C 102.47999999999999,46.60621454808961 102.16999999999999,45.8662145480896 101.73999999999998,44.81621454808959 C 101.15999999999997,46.226214548089615 100.69999999999999,47.38621454808958 100.20999999999998,48.52621454808957 C 99.71999999999997,49.666214548089556 99.08999999999997,50.75621454808959 98.71999999999997,51.936214548089595 C 98.36999999999998,53.02621454808957 98.30999999999997,54.20621454808958 98.04999999999998,55.33621454808957 C 97.94999999999999,55.76621454808958 97.65999999999997,56.166214548089556 97.43999999999997,56.56621454808959 C 96.62999999999997,58.0562145480896 95.64999999999998,59.476214548089615 95.02999999999997,61.03621454808962 C 94.21999999999997,63.0562145480896 92.80999999999997,64.57621454808964 91.48999999999998,66.20621454808963 C 90.98999999999998,66.81621454808965 90.61999999999998,67.53621454808962 90.12999999999997,68.14621454808963 C 90.00999999999996,68.29621454808961 89.77999999999997,68.34621454808962 89.72999999999996,68.33621454808963 C 89.04999999999995,69.25621454808964 88.63999999999996,70.05621454808966 88.01999999999998,70.59621454808962 C 86.07999999999998,72.29621454808961 83.99999999999997,73.83621454808963 82.07999999999998,75.5562145480896 C 81.03999999999996,76.4862145480896 80.20999999999998,77.65621454808962 79.29999999999998,78.7362145480896 C 78.78999999999996,79.33621454808963 78.22999999999999,79.91621454808961 77.84999999999997,80.59621454808962 C 77.23999999999998,81.6762145480896 76.75999999999996,82.83621454808963 76.22999999999996,83.95621454808963 C 75.94999999999996,84.53621454808962 75.54999999999995,85.10621454808961 75.44999999999996,85.71621454808962 C 74.95999999999998,88.63621454808964 76.50999999999996,90.66621454808961 78.56999999999996,92.39621454808963 C 80.46999999999997,93.9862145480896 81.08999999999997,95.4262145480896 80.52999999999997,98.1762145480896 C 80.01999999999995,100.65621454808962 78.26999999999995,102.1162145480896 76.71999999999997,103.71621454808962 C 74.94999999999996,105.53621454808962 72.80999999999997,106.9862145480896 70.97999999999996,108.76621454808964 C 70.24999999999997,109.47621454808962 69.92999999999998,110.61621454808966 69.40999999999997,111.55621454808966 C 68.37999999999997,113.41621454808967 68.30999999999997,115.50621454808964 67.83999999999997,117.50621454808964 C 67.68999999999997,118.13621454808964 66.85999999999999,118.65621454808962 66.25999999999999,119.10621454808967 C 64.48999999999998,120.41621454808967 62.63999999999998,121.62621454808965 60.899999999999984,122.96621454808968 C 59.38999999999998,124.1262145480897 57.98999999999999,125.41621454808967 56.52999999999998,126.64621454808969 C 54.80999999999998,128.08621454808969 53.02999999999998,129.47621454808967 51.34999999999999,130.9562145480897 C 50.07999999999999,132.0762145480897 48.87999999999999,133.28621454808967 47.68999999999999,134.48621454808966 C 46.87,135.30621454808966 46.29999999999999,136.19621454808964 44.98999999999999,136.66621454808967 C 43.899999999999984,137.05621454808966 42.46999999999999,138.1362145480897 42.38999999999999,139.36621454808966 C 41.089999999999996,140.00621454808964 39.93,140.47621454808967 38.88999999999999,141.13621454808964 C 37.93,141.75621454808964 37.09999999999999,142.58621454808963 35.87999999999999,143.58621454808963 C 35.249999999999986,143.24621454808965 34.29999999999999,142.87621454808965 33.57999999999999,142.24621454808965 C 33.35999999999999,142.05621454808966 33.57999999999999,140.99621454808965 33.90999999999999,140.62621454808965 C 34.389999999999986,140.08621454808963 35.16999999999999,139.82621454808964 35.819999999999986,139.43621454808965 C 36.61999999999998,138.93621454808965 37.41999999999998,138.45621454808963 38.179999999999986,137.89621454808963 C 38.399999999999984,137.72621454808962 38.509999999999984,137.36621454808966 38.59999999999999,137.06621454808965 C 38.87999999999999,136.20621454808963 38.82999999999999,135.36621454808966 39.759999999999984,134.60621454808967 C 41.01999999999999,133.59621454808968 41.819999999999986,132.0162145480897 42.819999999999986,130.68621454808965 C 43.21999999999999,130.15621454808968 44.08999999999998,130.69621454808964 44.46999999999999,129.67621454808966 C 44.779999999999994,128.83621454808969 46.039999999999985,128.38621454808964 46.76,127.65621454808968 C 47.38999999999999,127.01621454808969 47.79,126.14621454808969 48.419999999999995,125.49621454808965 C 50.43,123.41621454808967 52.51999999999999,121.40621454808968 54.54,119.31621454808965 C 54.99999999999999,118.83621454808963 55.46,118.21621454808962 55.580000000000005,117.59621454808962 C 55.79,116.50621454808964 55.74,115.3662145480896 55.800000000000004,114.2462145480896 C 55.800000000000004,114.16621454808961 55.75000000000001,114.0562145480896 55.800000000000004,113.9962145480896 C 56.79,112.39621454808957 57.68,110.72621454808962 58.82,109.2362145480896 C 59.690000000000005,108.08621454808963 61.26,107.51621454808958 61.68,105.94621454808959 C 61.699999999999996,105.8662145480896 61.779999999999994,105.7362145480896 61.839999999999996,105.72621454808956 C 64.6,105.18621454808954 64.87,102.62621454808954 65.78999999999999,100.67621454808955 C 65.99000000000001,100.24621454808954 65.53999999999999,99.22621454808956 65.09,98.84621454808956 C 63.949999999999996,97.88621454808958 62.38999999999999,97.34621454808956 61.449999999999996,96.24621454808954 C 60.1,94.67621454808955 59.13999999999999,92.76621454808952 58.01999999999999,90.99621454808954 C 57.88999999999999,90.79621454808955 57.79999999999999,90.58621454808952 57.68999999999999,90.36621454808954 C 55.29999999999999,91.90621454808957 53.01999999999999,93.49621454808954 50.60999999999999,94.87621454808954 C 48.21999999999999,96.25621454808953 45.59999999999999,97.08621454808952 42.68999999999999,97.59621454808956 C 42.32999999999999,99.76621454808958 42.18999999999999,102.00621454808959 41.54999999999999,104.09621454808956 C 40.88999999999999,106.26621454808958 39.949999999999996,108.42621454808955 38.74999999999999,110.35621454808955 C 37.309999999999995,112.68621454808954 35.53999999999999,114.83621454808957 33.779999999999994,116.95621454808958 C 32.709999999999994,118.25621454808959 31.389999999999993,119.34621454808956 30.209999999999994,120.56621454808959 C 29.249999999999993,121.5562145480896 28.359999999999992,122.63621454808958 27.379999999999995,123.60621454808961 C 26.709999999999994,124.27621454808963 25.879999999999995,124.79621454808961 25.189999999999998,125.44621454808959 C 24.11,126.45621454808958 23.239999999999995,127.78621454808956 22.0,128.5062145480896 C 20.78,129.21621454808957 20.229999999999997,130.3562145480896 19.32,131.21621454808957 C 17.65,132.79621454808955 15.649999999999999,134.01621454808958 13.96,135.57621454808958 C 12.93,136.53621454808956 11.770000000000003,136.97621454808956 10.5,137.33621454808957 C 10.130000000000003,137.44621454808959 9.740000000000002,137.61621454808954 9.469999999999999,137.8762145480896 C 7.600000000000001,139.6862145480896 5.289999999999999,140.44621454808959 2.8099999999999987,140.95621454808958 C 1.8399999999999999,141.15621454808957 0.9299999999999997,141.73621454808955 0.35999999999999943,140.5062145480896 C 0.10999999999999943,139.96621454808957 0.14000000000000057,139.2962145480896 0.0,138.45621454808958 C 0.6700000000000017,138.70621454808958 0.9899999999999984,138.82621454808958 1.3399999999999999,138.95621454808958 C 1.379999999999999,138.82621454808958 1.4299999999999997,138.70621454808958 1.4400000000000013,138.57621454808958 C 1.5899999999999999,137.01621454808958 3.1400000000000006,137.1262145480896 4.020000000000003,136.47621454808956 C 7.230000000000004,134.07621454808958 10.590000000000003,131.87621454808954 13.780000000000001,129.44621454808959 C 15.310000000000002,128.27621454808957 16.590000000000003,126.76621454808958 17.96,125.40621454808957 C 20.090000000000003,123.29621454808955 22.28,121.24621454808954 24.310000000000002,119.04621454808955 C 26.980000000000004,116.16621454808956 29.590000000000003,113.23621454808955 32.09,110.20621454808958 C 34.040000000000006,107.83621454808957 35.87,105.33621454808957 37.57,102.77621454808957 C 38.419999999999995,101.4962145480896 38.910000000000004,99.95621454808958 39.49,98.50621454808959 C 39.6,98.2362145480896 39.46,97.8062145480896 39.330000000000005,97.4962145480896 C 38.85,96.28621454808962 39.39000000000001,95.10621454808961 40.6,94.77621454808957 C 40.79,94.72621454808956 41.11000000000001,94.71621454808957 41.14000000000001,94.61621454808954 C 41.79000000000001,92.65621454808957 42.73000000000001,94.14621454808952 43.570000000000014,94.35621454808955 C 44.490000000000016,93.83621454808957 45.39000000000001,93.20621454808958 46.38000000000002,92.80621454808954 C 47.960000000000015,92.16621454808956 49.16000000000002,91.20621454808952 50.44000000000002,90.00621454808953 C 52.340000000000025,88.22621454808956 54.00000000000002,86.11621454808954 56.47000000000002,84.85621454808955 C 58.990000000000016,83.57621454808958 61.200000000000024,81.68621454808954 63.590000000000025,80.13621454808953 C 64.40000000000003,79.60621454808955 65.63000000000002,79.50621454808953 66.16000000000003,78.81621454808953 C 67.13000000000002,77.54621454808955 68.60000000000002,77.28621454808956 69.81000000000003,76.57621454808952 C 72.12000000000003,75.20621454808952 74.67000000000002,74.26621454808952 77.05000000000001,72.99621454808954 C 78.12,72.42621454808955 79.01000000000002,71.50621454808953 80.11000000000001,70.64621454808952 C 80.17000000000002,70.68621454808954 80.27000000000001,70.73621454808949 80.29000000000002,70.71621454808951 C 81.29000000000002,69.6662145480895 82.26000000000002,68.57621454808952 83.24000000000004,67.50621454808953 C 84.21000000000004,66.45621454808952 85.20000000000002,65.42621454808955 86.16000000000003,64.37621454808954 C 87.15000000000003,63.29621454808955 88.14000000000004,62.20621454808952 89.10000000000002,61.09621454808956 C 90.13000000000002,59.896214548089574 91.37000000000003,58.78621454808956 92.09000000000003,57.416214548089556 C 93.52000000000004,54.69621454808953 96.02000000000004,52.54621454808955 96.17000000000002,49.08621454808957 C 96.24000000000001,47.50621454808959 97.17000000000002,45.92621454808955 97.90000000000003,44.446214548089586 C 98.43000000000004,43.3662145480896 99.19000000000003,42.3662145480896 100.03000000000003,41.50621454808959 C 100.32000000000002,41.20621454808958 101.15000000000003,41.426214548089604 101.73000000000002,41.426214548089604 C 102.02000000000001,41.426214548089604 102.31000000000003,41.486214548089606 102.72000000000003,41.53621454808962 C 102.72000000000003,41.56621454808959 102.68000000000004,41.84621454808962 102.66000000000003,42.06621454808959 C 103.23000000000002,42.09621454808956 103.79000000000002,42.13621454808958 104.36000000000001,42.156214548089565 C 106.51000000000002,42.24621454808954 108.65,42.406214548089565 110.80000000000001,42.356214548089554 C 111.56,42.33621454808957 112.43,41.906214548089565 113.05000000000001,41.416214548089556 C 114.22,40.46621454808957 115.5,39.77621454808957 116.42000000000002,38.366214548089545 C 118.07000000000002,35.826214548089524 120.27000000000001,33.656214548089565 122.22000000000003,31.316214548089533 C 122.44000000000003,31.056214548089542 122.46000000000004,30.646214548089517 122.67000000000002,30.376214548089536 C 123.94000000000003,28.79621454808955 125.21000000000001,27.20621454808952 126.53000000000003,25.666214548089556 C 127.85000000000002,24.126214548089536 129.23000000000002,22.626214548089536 130.59000000000003,21.116214548089545 C 130.68000000000004,21.016214548089522 130.82000000000002,20.936214548089538 130.94000000000003,20.866214548089545 C 134.24000000000004,19.24621454808954 136.69000000000003,16.666214548089556 139.02000000000004,13.886214548089526 C 140.04000000000005,12.6662145480895 141.52000000000004,11.836214548089515 142.78000000000003,10.816214548089533 C 144.54000000000002,9.376214548089536 146.29000000000002,7.916214548089556 148.04000000000002,6.476214548089558 C 149.07000000000002,5.626214548089536 150.26000000000002,6.24621454808954 150.76000000000002,7.616214548089545 C 151.49,9.626214548089536 152.27,11.676214548089547 154.48000000000002,12.626214548089536 C 154.65,12.696214548089529 154.78000000000003,12.95621454808952 154.86,13.156214548089508 C 155.56,14.986214548089492 156.93,16.18621454808948 158.48000000000002,17.286214548089504 C 159.08,17.70621454808952 159.42000000000002,18.50621454808953 159.95000000000002,19.056214548089486 C 161.59,20.756214548089474 163.27,22.42621454808949 164.93,24.106214548089497 C 165.1,24.276214548089513 165.39000000000001,24.396214548089517 165.46,24.596214548089506 C 165.82000000000002,25.646214548089517 165.99,26.796214548089495 166.5,27.766214548089522 C 167.36,29.386214548089526 168.23,31.086214548089515 169.47,32.39621454808952 C 170.37,33.346214548089506 171.6,34.18621454808954 173.29,33.9762145480895 C 174.7,33.796214548089495 176.17999999999998,34.26621454808952 177.63,34.346214548089506 C 178.37,34.38621454808953 179.13,34.21621454808951 179.85999999999999,34.06621454808953 C 180.79,33.876214548089536 181.69,33.596214548089506 182.63,33.356214548089554 C 183.28,34.67621454808955 184.88,35.396214548089574 186.75,35.07621454808958 C 187.1,36.62621454808959 188.38,37.08621454808957 189.68,37.676214548089604 C 190.51000000000002,38.04621454808961 191.20000000000002,38.77621454808963 191.85,39.446214548089586 C 192.95,40.57621454808958 193.97,41.78621454808956 194.9,43.07621454808958 C 195.87,43.436214548089595 197.03,43.58621454808957 197.36,45.01621454808958 C 197.42000000000002,45.28621454808956 197.78,45.6162145480896 198.06,45.686214548089595 C 198.75,45.84621454808962 199.21,45.84621454808962 198.95,46.896214548089574 C 198.83999999999997,47.356214548089554 199.85,48.106214548089554 200.39,48.696214548089586 C 200.57,48.896214548089574 200.98999999999998,48.936214548089595 201.07999999999998,49.146214548089574 C 201.98,51.1162145480896 202.80999999999997,53.12621454808959 203.71999999999997,55.09621454808956 C 203.85999999999996,55.396214548089574 204.29999999999998,55.55621454808954 204.58999999999997,55.80621454808954 C 206.31999999999996,57.31621454808953 208.10999999999999,58.77621454808957 209.75999999999996,60.376214548089536 C 210.60999999999996,61.19621454808953 211.07999999999996,62.416214548089556 211.96999999999997,63.166214548089556 C 212.65999999999997,63.75621454808953 213.46999999999997,64.25621454808953 214.65999999999997,64.28621454808956 C 216.23999999999998,64.31621454808953 217.40999999999997,63.76621454808958 218.55999999999997,62.946214548089586 C 219.21999999999997,62.47621454808956 219.71999999999997,61.78621454808956 220.27999999999997,61.186214548089595 C 221.07999999999998,60.32621454808958 221.85999999999999,59.45621454808958 222.37999999999997,58.88621454808958 C 223.54999999999995,59.196214548089586 224.36999999999998,59.416214548089556 225.18999999999997,59.60621454808961 C 225.31999999999996,59.63621454808958 225.48999999999998,59.516214548089636 225.59999999999997,59.56621454808959 C 227.48999999999995,60.3062145480896 229.57999999999998,60.76621454808958 231.2,61.896214548089574 C 232.67000000000002,62.92621454808955 234.77999999999997,63.396214548089574 235.39999999999998,65.48621454808955 C 235.44,65.62621454808954 235.79999999999995,65.66621454808956 235.96999999999997,65.79621454808955 C 236.97999999999996,66.57621454808952 238.15999999999997,67.09621454808956 238.89999999999998,68.26621454808958 C 239.81,69.70621454808958 240.83999999999997,71.09621454808956 241.97999999999996,72.35621454808955 C 242.67999999999995,73.13621454808953 243.76999999999998,73.57621454808958 244.53999999999996,74.30621454808954 C 246.51,76.16621454808956 248.39999999999998,78.10621454808955 250.30999999999995,80.02621454808957 C 250.50999999999993,80.22621454808956 250.72999999999996,80.4962145480896 250.76999999999992,80.76621454808958 C 250.92999999999995,81.79621454808955 251.4099999999999,82.26621454808958 252.17999999999995,81.89621454808957 C 252.95999999999992,83.08621454808957 253.49999999999994,84.3062145480896 254.37999999999994,85.17621454808955 C 256.85999999999996,87.61621454808954 259.28999999999996,90.20621454808952 262.1499999999999,92.12621454808954 C 263.3599999999999,92.94621454808953 264.4199999999999,94.10621454808955 265.8499999999999,94.65621454808951 C 266.94999999999993,95.08621454808952 268.06999999999994,95.5362145480895 269.0499999999999,96.18621454808948 C 270.2699999999999,96.98621454808949 271.3099999999999,98.05621454808949 272.5099999999999,98.89621454808946 C 273.4999999999999,99.58621454808946 274.5599999999999,100.48621454808944 275.6699999999999,100.61621454808949 C 277.2799999999999,100.80621454808949 278.4799999999999,101.71621454808951 279.5799999999999,102.5362145480895 C 282.0199999999999,104.36621454808949 284.1599999999999,106.6062145480895 286.93999999999994,108.00621454808953 C 287.5299999999999,108.30621454808954 287.99999999999994,108.81621454808953 288.54999999999995,109.19621454808953 C 290.34999999999997,110.42621454808955 291.66999999999996,108.85621454808955 292.97999999999996,108.20621454808952 C 296.39,106.49621454808954 299.77,104.65621454808951 302.93999999999994,102.5362145480895 C 305.60999999999996,100.73621454808949 308.05999999999995,98.56621454808948 310.43999999999994,96.36621454808949 C 312.38999999999993,94.56621454808948 313.94999999999993,92.32621454808947 315.9599999999999,90.61621454808949 C 317.19999999999993,89.55621454808949 318.8999999999999,88.94621454808947 320.4899999999999,88.42621454808949 C 323.9999999999999,87.27621454808951 327.5499999999999,86.24621454808948 330.7399999999999,84.32621454808947 C 331.6499999999999,83.77621454808946 332.2999999999999,82.71621454808945 333.2499999999999,82.30621454808949 C 336.2299999999999,81.00621454808947 338.3499999999999,78.63621454808947 340.76999999999987,76.63621454808947 C 342.3699999999999,75.31621454808948 344.01999999999987,74.03621454808945 345.4299999999999,72.53621454808945 C 346.5299999999999,71.36621454808943 347.32999999999987,69.90621454808945 348.1799999999999,68.52621454808946 C 348.7999999999999,67.51621454808947 349.1099999999999,66.38621454808947 350.5399999999999,65.97621454808944 C 351.3599999999999,65.73621454808944 351.9799999999999,64.79621454808944 352.6899999999999,64.16621454808944 C 354.4099999999999,62.60621454808944 356.2499999999999,61.92621454808943 358.5599999999999,62.996214548089426 C 359.6799999999999,63.51621454808941 360.9899999999999,63.60621454808944 362.20999999999987,63.936214548089424 C 363.23999999999984,64.2162145480894 364.2599999999999,64.53621454808945 365.2499999999999,64.8962145480894 C 365.51999999999987,64.99621454808943 365.76999999999987,65.30621454808943 365.9299999999999,65.57621454808941 C 366.4399999999999,66.4662145480894 367.0599999999999,66.49621454808943 367.8999999999999,66.00621454808942 C 369.4899999999999,65.0862145480894 371.1099999999999,64.23621454808944 372.7199999999999,63.34621454808939 C 374.2999999999999,62.4662145480894 375.8599999999999,61.53621454808939 377.4699999999999,60.7162145480894 C 379.3699999999999,59.75621454808942 381.43999999999994,59.0862145480894 383.2099999999999,57.946214548089415 C 386.2199999999999,55.996214548089426 389.75999999999993,55.32621454808941 392.87999999999994,53.656214548089395 C 394.9099999999999,52.56621454808942 396.81999999999994,51.38621454808941 398.30999999999995,49.57621454808941 C 398.7699999999999,49.01621454808941 399.54999999999995,48.736214548089436 400.0799999999999,48.22621454808939 C 401.50999999999993,46.81621454808936 402.8999999999999,45.366214548089374 404.2699999999999,43.906214548089395 C 405.3599999999999,42.74621454808937 406.2699999999999,41.38621454808941 407.4799999999999,40.396214548089404 C 409.2099999999999,38.996214548089426 411.0799999999999,37.73621454808938 413.0299999999999,36.646214548089404 C 413.9699999999999,36.11621454808943 415.24999999999994,36.2162145480894 416.3099999999999,35.8362145480894 C 418.1699999999999,35.176214548089376 419.9199999999999,34.246214548089426 421.82999999999987,33.7162145480894 C 421.9499999999999,33.686214548089424 422.03999999999985,33.55621454808937 422.1299999999999,33.456214548089406 C 424.3899999999999,31.3362145480894 426.6799999999999,29.23621454808938 428.8899999999999,27.06621454808942 C 429.41999999999985,26.546214548089438 429.65999999999985,25.736214548089436 430.1199999999999,25.126214548089422 C 432.4699999999999,22.0262145480894 434.7599999999999,18.886214548089413 437.2499999999999,15.906214548089395 C 438.1999999999999,14.766214548089408 439.6399999999999,14.046214548089381 440.7899999999999,13.056214548089372 C 442.2199999999999,11.816214548089363 443.5499999999999,10.486214548089379 444.9599999999999,9.226214548089388 C 445.3999999999999,8.836214548089401 445.94999999999993,8.556214548089372 446.44999999999993,8.226214548089388 C 448.8499999999999,6.646214548089404 451.25999999999993,5.096214548089392 453.61999999999995,3.456214548089406 C 454.03,3.1762145480894333 454.19999999999993,2.546214548089381 454.68999999999994,1.7262145480893878 L 454.9699999999999,2.3562145480893832 C 455.7799999999999,1.8362145480894014 456.62999999999994,1.3362145480894014 457.4199999999999,0.7562145480893605 C 458.9299999999999,-0.34378545191066223 461.6199999999999,-0.22378545191065768 463.0299999999999,0.9862145480893787 C 463.3999999999999,1.3062145480893719 463.9799999999999,1.376214548089365 464.18999999999994,1.456214548089406 C 465.41999999999996,3.2462145480894264 466.53999999999996,4.886214548089413 467.65999999999997,6.53621454808939 L 467.68999999999994,6.49621454808937 C 467.93999999999994,6.846214548089392 468.22999999999996,7.1662145480893855 468.42999999999995,7.53621454808939 C 469.22999999999996,9.03621454808939 470.09999999999997,10.366214548089374 471.54999999999995,11.456214548089406 C 472.85999999999996,12.446214548089415 473.55999999999995,14.196214548089415 474.68999999999994,15.466214548089397 C 476.34999999999997,17.32621454808941 478.13999999999993,19.07621454808941 479.90999999999997,20.82621454808941 C 480.59,21.496214548089426 481.34,22.106214548089383 482.13,22.646214548089404 C 482.46999999999997,22.876214548089422 482.98,22.856214548089383 483.54,22.98621454808938 C 483.39000000000004,24.75621454808936 484.64,25.676214548089376 486.15,26.51621454808935 C 487.14,27.076214548089354 487.9,28.036214548089333 488.9,28.556214548089372 C 489.4599999999999,28.836214548089345 489.63,29.116214548089374 489.92999999999995,29.606214548089383 C 490.54999999999995,30.596214548089392 491.43999999999994,31.48621454808938 492.37,32.206214548089406 C 493.02,32.706214548089406 493.92999999999995,32.87621454808942 494.73,33.166214548089386 C 496.37,33.75621454808936 497.99,34.68621454808937 499.6700000000001,34.80621454808937 C 501.09000000000003,34.906214548089395 502.6300000000001,34.176214548089376 504.0300000000001,33.616214548089374 C 505.18000000000006,33.156214548089395 506.1400000000001,32.166214548089386 507.30000000000007,31.846214548089392 C 508.05000000000007,31.646214548089404 508.9200000000001,32.0262145480894 509.0300000000001,30.966214548089397 C 509.8900000000001,30.876214548089422 510.69000000000005,30.78621454808939 511.5400000000001,30.696214548089415 C 513.0000000000001,32.0862145480894 514.6100000000001,33.51621454808941 516.08,35.05621454808943 C 516.5400000000001,35.53621454808945 516.58,36.37621454808942 516.9300000000001,36.986214548089436 C 518.1,39.07621454808941 519.33,41.13621454808941 520.5000000000001,43.226214548089445 C 520.7500000000001,43.67621454808943 520.7900000000001,44.236214548089436 521.0200000000001,44.69621454808947 C 521.9800000000001,46.56621454808948 523.1000000000001,48.256214548089474 524.9100000000001,49.506214548089474 C 525.83,50.14621454808946 526.2900000000001,51.42621454808949 527.0300000000001,52.3562145480895 C 527.6200000000001,53.1062145480895 528.3600000000001,53.73621454808949 528.95,54.4762145480895 C 529.2,54.786214548089504 529.19,55.296214548089495 529.4000000000001,55.65621454808951 C 529.7900000000001,56.3562145480895 530.2400000000001,57.01621454808952 530.69,57.67621454808949 C 530.7600000000001,57.77621454808951 531.0600000000001,57.766214548089465 531.07,57.836214548089515 C 531.44,60.20621454808952 533.6600000000001,60.096214548089506 535.1700000000001,60.93621454808954 C 536.0100000000001,61.406214548089565 536.7600000000001,62.09621454808956 537.6500000000001,62.39621454808952 C 540.4000000000001,63.346214548089506 542.3500000000001,65.5962145480895 544.9900000000001,66.69621454808953 C 545.3500000000001,66.8462145480895 545.9000000000001,66.85621454808955 546.2500000000001,66.69621454808953 C 548.5100000000001,65.5962145480895 550.6400000000001,64.2862145480895 553.2100000000002,63.88621454808953 C 554.7100000000002,63.65621454808951 555.7100000000002,64.08621454808952 556.7100000000002,65.14621454808952 C 557.2200000000001,65.68621454808954 558.1700000000002,65.7862145480895 558.7400000000001,66.2862145480895 C 560.0800000000002,67.4762145480895 561.2800000000001,68.82621454808952 562.5700000000002,70.06621454808948 C 564.0100000000002,71.43621454808948 565.6200000000001,72.65621454808945 566.9300000000002,74.13621454808947 C 569.0000000000002,76.49621454808948 570.8600000000001,79.0462145480895 572.8600000000001,81.46621454808945 C 573.3200000000002,82.01621454808947 574.0000000000001,82.38621454808947 574.5700000000002,82.84621454808945 C 574.7100000000002,82.95621454808946 574.9100000000002,83.09621454808945 574.9300000000002,83.24621454808943 C 575.2400000000001,84.92621454808943 576.5900000000001,85.0862145480894 577.4400000000002,85.21621454808945 C 578.1500000000002,86.20621454808946 578.5200000000002,87.13621454808947 579.2100000000002,87.55621454808943 C 579.7800000000002,87.90621454808945 580.9000000000002,87.92621454808943 580.9900000000001,86.53621454808945 C 581.1000000000001,86.74621454808943 581.2200000000001,86.95621454808946 581.2200000000001,86.95621454808946 C 584.3700000000001,86.09621454808945 587.4800000000001,85.24621454808948 590.4700000000001,84.43621454808948 C 590.7200000000001,84.61621454808949 590.9500000000002,84.92621454808949 591.1800000000002,84.92621454808949 C 593.0100000000002,84.90621454808951 593.8500000000001,86.17621454808949 594.6400000000002,87.50621454808947 C 595.2900000000002,88.6062145480895 596.1300000000002,89.39621454808946 597.2800000000002,90.1062145480895 C 599.1900000000002,91.2962145480895 601.0300000000002,92.77621454808951 602.5000000000002,94.4762145480895 C 604.7200000000003,97.0362145480895 606.5000000000002,99.96621454808951 608.6500000000002,102.58621454808952 C 609.7200000000003,103.87621454808954 611.3300000000002,104.70621454808952 612.4600000000002,105.95621454808952 C 612.9800000000001,106.5362145480895 614.5300000000002,106.92621454808955 613.5400000000002,108.18621454808954 C 613.9100000000002,108.43621454808954 614.2800000000002,108.57621454808952 614.4900000000002,108.83621454808952 C 616.0200000000002,110.70621454808952 617.4100000000002,112.70621454808952 619.0600000000003,114.46621454808951 C 619.9200000000003,115.37621454808954 621.2200000000003,115.86621454808949 622.2800000000003,116.6062145480895 C 622.8000000000003,116.96621454808951 623.2300000000004,117.43621454808948 623.6900000000003,117.87621454808948 C 624.7800000000003,118.90621454808945 625.8700000000002,119.94621454808947 626.9600000000003,120.98621454808949 C 628.1600000000003,122.12621454808948 629.2500000000002,123.40621454808951 630.5700000000003,124.39621454808952 C 632.5100000000003,125.8462145480895 634.6200000000002,127.0462145480895 636.6200000000002,128.4162145480895 C 637.0900000000003,128.7362145480895 637.3900000000002,129.2862145480895 637.7900000000002,129.7162145480895 C 640.0000000000002,132.06621454808953 642.4500000000002,134.06621454808953 645.3100000000002,135.63621454808953 C 646.6300000000002,136.36621454808954 647.6300000000002,137.69621454808953 648.7000000000002,138.81621454808953 C 648.9200000000002,139.04621454808955 648.8400000000001,139.56621454808953 648.9100000000002,139.9662145480895 C 650.4000000000002,139.88621454808953 650.8100000000002,140.5262145480895 651.7400000000002,142.39621454808952 C 652.1700000000002,143.26621454808952 653.6000000000003,143.62621454808954 654.5700000000003,144.2362145480895 C 655.0700000000003,144.5462145480895 655.8500000000003,144.83621454808952 655.9500000000003,145.26621454808947 C 656.1600000000003,146.15621454808945 655.6400000000003,147.03621454808945 654.7800000000003,147.34621454808945 L 654.6499999999995,147.33621454808952 M 80.00999999999948,70.6662145480895 L 80.0199999999995,70.6662145480895 C 79.9299999999995,70.6062145480895 79.9499999999995,70.63621454808953 80.00999999999948,70.6662145480895"/>
</svg>
