<?xml version="1.0" ?>
<svg xmlns="http://www.w3.org/2000/svg" xmlns:ev="http://www.w3.org/2001/xml-events" xmlns:xlink="http://www.w3.org/1999/xlink" baseProfile="full" height="186" id="a" transform="scale(0.5376344086021505 0.5376344086021505) translate(-307.5 -93.0)" version="1.1" viewBox="0 0 615 186" width="615">
	<defs/>
	<path class="b" d="M 614.72,185.5099999999996 L 584.6700000000001,185.5099999999996 C 584.96,184.6999999999996 585.2400000000001,183.8899999999996 585.5300000000001,183.1199999999996 C 589.0200000000001,174.8099999999996 591.69,171.5599999999996 579.1800000000001,168.2599999999996 C 579.1800000000001,164.14999999999958 581.19,159.9899999999996 581.0400000000001,155.78999999999957 C 580.7500000000001,147.37999999999954 576.1700000000001,136.8199999999996 574.21,128.50999999999954 C 574.1600000000001,128.31999999999954 574.11,128.17999999999955 574.07,127.97999999999956 L 574.07,127.95999999999958 C 571.71,125.7499999999996 569.38,123.66999999999956 567.07,121.94999999999959 C 560.61,117.01999999999958 555.2700000000001,109.7499999999996 548.97,105.3099999999996 C 546.38,103.44999999999959 542.99,104.01999999999958 540.89,102.39999999999958 C 538.3,100.3799999999996 536.85,95.6899999999996 534.83,93.02999999999957 C 532.49,89.95999999999958 528.0400000000001,82.36999999999955 524.0,86.39999999999958 C 523.05,85.53999999999957 522.12,84.5099999999996 521.19,83.53999999999957 C 521.2,83.59999999999957 521.21,83.65999999999957 521.23,83.71999999999957 L 521.23,83.76999999999958 C 521.28,84.14999999999958 521.37,84.48999999999961 521.47,84.95999999999958 C 524.62,99.04999999999956 532.94,109.89999999999958 529.88,123.03999999999957 C 536.28,124.65999999999957 538.1899999999999,129.81999999999954 541.78,134.35999999999956 C 539.1999999999999,141.04999999999956 533.28,138.12999999999954 530.79,144.24999999999955 C 528.5899999999999,149.64999999999952 531.5999999999999,159.29999999999956 531.5999999999999,164.73999999999955 C 531.5999999999999,171.56999999999954 531.0299999999999,178.58999999999958 529.9799999999999,185.46999999999957 L 526.2099999999999,185.46999999999957 C 523.68,177.24999999999955 520.81,169.17999999999955 518.9,160.6299999999996 C 516.99,151.97999999999962 512.16,142.47999999999962 509.34999999999997,133.53999999999962 C 508.38999999999993,130.38999999999965 507.68,127.32999999999964 507.44,124.41999999999962 C 504.43,124.79999999999961 501.36999999999995,124.03999999999962 498.7,122.7499999999996 C 497.50999999999993,122.17999999999961 496.41,121.5099999999996 495.40000000000003,120.73999999999961 C 495.16,119.8799999999996 494.5900000000001,117.8699999999996 494.5900000000001,116.67999999999961 C 493.9700000000001,114.52999999999963 493.49000000000007,112.27999999999963 493.01000000000005,110.03999999999962 L 493.01000000000005,110.01999999999964 C 490.05,112.83999999999963 486.51000000000005,115.36999999999966 482.64000000000004,116.98999999999967 L 480.92,117.65999999999968 L 479.44,116.31999999999971 L 478.24999999999994,115.2699999999997 L 478.24999999999994,115.2699999999997 C 477.4199999999999,116.02999999999969 476.46,116.74999999999972 475.2799999999999,117.41999999999967 C 470.1899999999999,120.40999999999968 465.25999999999993,119.03999999999968 465.49999999999994,126.54999999999967 C 470.59,131.23999999999967 481.6599999999999,137.85999999999967 483.19,144.31999999999965 C 479.71999999999997,145.20999999999964 475.92,146.09999999999962 472.60999999999996,146.41999999999967 C 474.38999999999993,151.98999999999967 475.2,164.67999999999967 473.73999999999995,170.81999999999965 C 467.43,156.92999999999967 461.0299999999999,143.47999999999968 454.34999999999997,130.22999999999968 C 451.43999999999994,127.3299999999997 448.73999999999995,124.2699999999997 445.09,122.09999999999968 C 440.15999999999997,119.2699999999997 433.7,120.96999999999969 429.97999999999996,118.4599999999997 C 425.53999999999996,115.54999999999967 422.05999999999995,105.93999999999971 419.15,101.56999999999971 C 415.91999999999996,96.71999999999969 413.16999999999996,92.43999999999971 411.56,86.77999999999969 C 409.7,79.90999999999968 409.22,76.99999999999972 404.85,71.58999999999969 C 400.33000000000004,66.0199999999997 400.16,61.249999999999716 398.79,53.97999999999968 C 398.33000000000004,51.469999999999686 397.66,48.959999999999695 397.01000000000005,46.43999999999966 C 394.93000000000006,43.089999999999634 392.80000000000007,39.77999999999963 390.58000000000004,36.46999999999963 C 390.53000000000003,36.41999999999962 390.53000000000003,36.36999999999961 390.48,36.32999999999964 C 390.34000000000003,36.139999999999645 390.24,35.99999999999966 390.15000000000003,35.849999999999625 C 384.04,26.629999999999598 377.25000000000006,17.839999999999634 369.56000000000006,9.999999999999602 C 368.8500000000001,10.519999999999584 368.14000000000004,11.039999999999623 367.4700000000001,11.559999999999604 C 365.7100000000001,22.159999999999627 365.1900000000001,32.66999999999962 370.0800000000001,42.16999999999962 C 365.9600000000001,45.639999999999645 364.2600000000001,50.649999999999636 363.2900000000001,55.65999999999963 C 366.93000000000006,58.07999999999964 378.24000000000007,78.84999999999962 377.43000000000006,83.85999999999962 C 375.81000000000006,93.63999999999959 358.2800000000001,96.53999999999962 353.3500000000001,104.29999999999961 C 356.6600000000001,105.66999999999962 364.9000000000001,107.3699999999996 367.25000000000006,109.78999999999962 C 369.3500000000001,112.04999999999961 368.78000000000003,116.97999999999962 370.40000000000003,119.96999999999963 C 375.73,129.9899999999996 382.44000000000005,138.46999999999963 387.04,149.21999999999963 C 374.84000000000003,144.20999999999964 361.59000000000003,138.7999999999996 349.71000000000004,132.7399999999996 C 346.07000000000005,137.9899999999996 347.04,150.02999999999963 349.87000000000006,155.51999999999964 C 342.11000000000007,148.08999999999963 333.87000000000006,142.66999999999962 324.99000000000007,136.36999999999966 C 312.2200000000001,127.21999999999969 298.70000000000005,121.48999999999967 285.25000000000006,114.77999999999969 C 283.86000000000007,115.91999999999967 281.7300000000001,117.43999999999971 279.64000000000004,118.28999999999968 C 277.35,119.24999999999966 274.72,119.81999999999965 271.90000000000003,119.47999999999968 C 269.27000000000004,119.1399999999997 266.98,118.18999999999966 265.12000000000006,117.27999999999969 C 261.25000000000006,115.41999999999967 257.81000000000006,113.21999999999969 254.42000000000007,111.0199999999997 C 248.07000000000005,106.85999999999967 242.00000000000006,102.36999999999972 236.0300000000001,98.11999999999972 L 236.0300000000001,98.11999999999972 C 235.41000000000008,101.2099999999997 235.17000000000007,104.02999999999975 235.6500000000001,106.2699999999997 C 235.79000000000008,107.12999999999971 236.0800000000001,107.93999999999971 236.42000000000007,108.74999999999972 Q 236.42000000000007,108.74999999999972 236.42000000000007,108.79999999999973 C 238.67000000000007,114.62999999999971 244.2100000000001,119.30999999999972 246.88000000000005,125.03999999999974 C 243.39000000000004,128.76999999999975 239.24000000000007,131.91999999999973 234.70000000000005,134.20999999999975 C 234.56000000000006,134.30999999999977 234.41000000000003,134.34999999999974 234.27000000000004,134.44999999999976 C 234.46000000000004,134.82999999999976 234.60000000000002,135.1699999999998 234.84000000000003,135.49999999999977 C 237.95000000000005,140.55999999999977 245.49,142.70999999999975 247.60000000000002,148.48999999999978 C 245.40000000000003,151.06999999999977 243.49,154.26999999999975 241.92000000000002,157.8999999999998 C 238.24,166.25999999999982 236.19,176.62999999999982 235.23000000000002,185.4199999999998 L 231.41000000000003,185.4199999999998 C 230.5,183.6499999999998 229.64000000000004,181.87999999999977 228.78000000000003,180.06999999999977 C 223.91000000000003,169.79999999999978 219.61,158.99999999999977 214.73000000000002,148.67999999999978 C 214.40000000000003,147.95999999999975 214.01,147.19999999999976 213.63,146.4799999999998 C 210.57999999999998,140.6099999999998 206.81,134.50999999999976 203.70999999999998,128.3499999999998 C 203.51999999999998,128.80999999999977 203.32,129.2899999999998 203.26999999999998,129.3999999999998 C 198.5,121.7199999999998 194.79000000000002,113.88999999999982 187.43,108.63999999999982 C 183.55,105.80999999999983 170.95,99.9099999999998 176.36,93.60999999999984 C 167.71999999999997,89.56999999999982 163.68,82.21999999999986 158.26,74.77999999999986 C 154.62,69.60999999999984 141.05,65.56999999999988 148.24,57.72999999999985 C 147.86,56.80999999999983 147.40999999999997,55.88999999999987 146.99,54.96999999999986 L 146.98000000000002,54.96999999999986 C 140.24,49.949999999999875 133.26999999999998,45.119999999999834 126.33999999999999,40.199999999999875 C 124.90999999999998,42.67999999999989 123.71,45.06999999999988 122.65999999999998,47.88999999999987 L 122.65999999999998,47.909999999999854 C 121.79999999999997,67.40999999999985 119.07999999999997,86.77999999999986 120.02,106.44999999999987 C 120.26,110.40999999999985 124.46,115.33999999999986 122.61,119.21999999999986 C 121.39999999999999,121.71999999999986 114.92999999999999,122.60999999999984 113.32000000000001,124.87999999999988 C 108.8,131.33999999999986 105.24,137.7299999999999 107.34000000000002,146.44999999999987 C 97.64000000000003,148.22999999999985 89.00000000000001,147.97999999999985 82.7,155.81999999999988 C 75.11,165.26999999999987 80.28000000000002,172.21999999999986 68.88000000000001,177.46999999999986 C 57.000000000000014,183.03999999999985 40.84000000000002,179.56999999999988 28.560000000000016,178.75999999999988 C 18.990000000000023,178.12999999999988 10.030000000000015,178.4299999999999 1.0100000000000193,178.89999999999986 C 0.9800000000000182,178.89999999999986 0.9700000000000202,178.89999999999986 0.930000000000021,178.93999999999988 C 0.8300000000000196,179.02999999999986 0.7900000000000205,179.07999999999987 0.690000000000019,179.1799999999999 L 0.5900000000000176,179.2299999999999 L 0.5900000000000176,179.27999999999992 L 0.5900000000000176,179.27999999999992 C 0.4000000000000199,179.13999999999993 0.20000000000001705,179.01999999999992 1.4210854715202004e-14,178.88999999999993 L 0.1600000000000108,178.75999999999993 L 0.21000000000000796,178.70999999999992 L 0.2600000000000051,178.6599999999999 C 24.53,157.68999999999994 48.030000000000015,135.8099999999999 70.44000000000001,112.87999999999988 C 76.03000000000002,107.14999999999986 81.71000000000002,101.36999999999989 87.45,95.77999999999986 C 93.08999999999999,90.13999999999987 98.63000000000001,84.40999999999985 103.31000000000002,78.14999999999986 C 105.60000000000001,75.04999999999984 107.85000000000001,71.69999999999987 109.38000000000001,68.30999999999989 C 111.05,64.86999999999989 112.39,61.189999999999884 113.63000000000001,57.4199999999999 C 114.87000000000002,53.64999999999992 116.11,49.779999999999916 117.55,45.90999999999991 C 118.89,42.13999999999993 121.08999999999999,38.07999999999993 123.08999999999999,34.729999999999905 L 124.67,32.14999999999992 L 127.14999999999999,33.86999999999995 C 140.57,43.039999999999964 154.32999999999998,51.92999999999995 166.99,62.52999999999997 C 178.5,71.98999999999995 189.39999999999998,82.78999999999996 197.51999999999998,95.82999999999998 C 197.84999999999997,95.39999999999998 198.19,94.96999999999997 198.51999999999998,94.49000000000001 L 202.28999999999996,89.09000000000003 C 203.57999999999998,87.23000000000002 204.91999999999996,85.32000000000005 206.53999999999996,83.40000000000003 L 207.82999999999998,81.97000000000003 L 208.55,81.30000000000001 L 208.74,81.11000000000001 L 209.46000000000004,80.58000000000004 L 209.84000000000003,80.34000000000003 L 211.23000000000002,79.43 L 211.95000000000005,79.0 L 212.28000000000003,78.75999999999999 L 212.47000000000003,78.65999999999997 L 213.43,78.22999999999996 L 213.48000000000002,78.22999999999996 L 213.58000000000004,78.17999999999995 C 214.25000000000006,78.03999999999996 214.49000000000007,77.88999999999993 215.44000000000005,77.74999999999994 C 216.30000000000007,77.64999999999992 217.40000000000003,77.55999999999995 218.07000000000005,77.64999999999992 C 219.65000000000003,77.7899999999999 221.13000000000005,78.1799999999999 222.42000000000007,78.69999999999993 C 225.00000000000006,79.74999999999994 227.10000000000008,81.2299999999999 229.01000000000005,82.70999999999992 C 232.40000000000003,85.33999999999992 235.36000000000007,88.34999999999991 238.13000000000005,90.5399999999999 L 238.23000000000008,90.5399999999999 L 239.19000000000005,91.20999999999992 C 245.69000000000005,95.83999999999992 251.99000000000007,100.4799999999999 258.5400000000001,104.67999999999995 C 261.7900000000001,106.77999999999997 265.13000000000005,108.83999999999997 268.38000000000005,110.35999999999996 C 271.91,112.02999999999997 273.87000000000006,112.36999999999995 276.64000000000004,111.16999999999996 C 278.12000000000006,110.49999999999994 279.12000000000006,109.82999999999998 280.80000000000007,108.44999999999993 C 282.19000000000005,107.29999999999995 283.24000000000007,106.24999999999994 284.5300000000001,104.81999999999994 C 286.9700000000001,102.09999999999991 289.2100000000001,98.98999999999995 291.31000000000006,95.78999999999996 C 295.56000000000006,89.33999999999997 299.14000000000004,82.50999999999999 303.40000000000003,75.48999999999995 C 305.69000000000005,71.75999999999993 308.08000000000004,68.79999999999995 310.33000000000004,65.54999999999995 L 317.31000000000006,55.89999999999998 C 322.0400000000001,49.5 326.82000000000005,43.099999999999966 331.83000000000004,36.889999999999986 C 341.91,24.46999999999997 352.90000000000003,12.430000000000007 366.32000000000005,2.9199999999999875 L 367.85,1.8199999999999932 L 370.33000000000004,0.0 L 372.62000000000006,2.25 C 381.38000000000005,10.920000000000016 388.9700000000001,20.660000000000025 395.70000000000005,30.850000000000023 L 395.75000000000006,30.879999999999995 L 397.58000000000004,33.65999999999997 L 397.58000000000004,33.70999999999998 C 412.38000000000005,56.31999999999999 424.15000000000003,80.5 440.94000000000005,100.65999999999997 C 443.33000000000004,98.60999999999996 445.9100000000001,96.16999999999996 449.25000000000006,94.25999999999999 C 450.30000000000007,93.63999999999999 451.50000000000006,93.11000000000001 452.7900000000001,92.73000000000002 C 454.2200000000001,92.35000000000002 455.1800000000001,92.11000000000001 457.38000000000005,92.30000000000001 L 458.91,92.68 L 459.71999999999997,92.92000000000002 L 459.7699999999999,92.97000000000003 L 459.86999999999995,93.02000000000004 L 460.00999999999993,93.07000000000005 L 460.38999999999993,93.26000000000005 L 461.1499999999999,93.64000000000004 C 462.34,94.31000000000006 463.24999999999994,94.88000000000005 464.1599999999999,95.50000000000006 C 467.7899999999999,98.03000000000003 470.98999999999995,100.75000000000006 474.1899999999999,103.53000000000003 L 478.9199999999999,107.73000000000002 L 482.0699999999999,110.69 C 483.49999999999983,110.01999999999998 484.9399999999999,109.16000000000003 486.2699999999999,108.20999999999998 C 488.09,106.87 489.71,105.38999999999999 491.4299999999999,103.62 C 493.09999999999985,101.89999999999998 494.57999999999987,100.18 496.0599999999999,98.26999999999998 C 497.48999999999984,96.35999999999996 498.87999999999994,94.39999999999998 500.21999999999986,92.34999999999997 C 502.8999999999998,88.28999999999996 505.4299999999999,84.08999999999997 508.0499999999999,79.82999999999998 L 510.0599999999999,76.68 L 512.26,73.43 L 514.46,70.47000000000003 C 515.32,69.37 515.7,68.70000000000005 516.94,67.27000000000004 L 517.94,66.03000000000003 L 519.5200000000001,66.75000000000006 C 528.45,70.86000000000007 534.19,78.17000000000007 539.82,84.90000000000003 C 545.46,91.73000000000002 550.5200000000001,98.71000000000004 557.35,103.91000000000003 C 564.0400000000001,109.36000000000001 571.73,113.99000000000001 577.99,120.54000000000002 C 581.14,123.79000000000002 583.87,127.47000000000003 586.02,131.43 L 592.23,143.04000000000002 L 592.37,143.28000000000003 L 592.37,143.42000000000002 C 599.73,157.51 606.51,171.84000000000003 614.73,185.41000000000003 L 614.72,185.5099999999996 M 187.53999999999996,146.59999999999957 C 187.53999999999996,146.30999999999955 187.82999999999998,145.11999999999955 187.82999999999998,144.68999999999954 C 178.79999999999995,144.11999999999955 176.13,137.23999999999955 174.73999999999995,130.11999999999955 C 176.32,146.26999999999953 174.01999999999998,162.69999999999953 173.30999999999995,178.27999999999952 C 173.16999999999996,180.71999999999952 173.06999999999994,183.0999999999995 173.06999999999994,185.4899999999995 L 205.50999999999993,185.4899999999995 C 200.68999999999994,175.7899999999995 196.18999999999994,166.37999999999948 192.03999999999996,156.63999999999947 C 190.69999999999993,153.19999999999948 190.02999999999997,149.51999999999947 187.54999999999995,146.6099999999995 L 187.53999999999996,146.59999999999957 M 338.78,166.22999999999956 C 338.64,166.03999999999957 338.48999999999995,165.84999999999957 338.29999999999995,165.65999999999957 L 338.15999999999997,165.46999999999957 C 338.05999999999995,165.41999999999956 337.96999999999997,165.3299999999996 337.91999999999996,165.3299999999996 L 337.81999999999994,165.1899999999996 C 331.22999999999996,162.9899999999996 329.4599999999999,164.1399999999996 324.86999999999995,160.83999999999958 C 324.43999999999994,160.5099999999996 323.9599999999999,160.11999999999955 323.43999999999994,159.6899999999996 C 317.4699999999999,154.71999999999957 311.87999999999994,147.45999999999958 304.7099999999999,142.58999999999958 C 306.56999999999994,150.08999999999958 309.9199999999999,158.8799999999996 311.7799999999999,166.1399999999996 C 311.8299999999999,166.27999999999957 311.8299999999999,166.3799999999996 311.87999999999994,166.51999999999958 C 313.97999999999996,174.8299999999996 311.73999999999995,173.34999999999957 307.38999999999993,181.70999999999958 C 306.62999999999994,183.04999999999956 306.0999999999999,184.3899999999996 305.7699999999999,185.47999999999956 L 350.62999999999994,185.47999999999956 C 349.5799999999999,183.75999999999954 348.42999999999995,181.89999999999958 347.28999999999996,179.98999999999955 C 343.60999999999996,173.87999999999954 339.78999999999996,167.65999999999957 338.78999999999996,166.22999999999956 L 338.78,166.22999999999956"/>
</svg>
