<?xml version="1.0" ?>
<svg xmlns="http://www.w3.org/2000/svg" xmlns:ev="http://www.w3.org/2001/xml-events" xmlns:xlink="http://www.w3.org/1999/xlink" baseProfile="full" height="220" id="a" transform="scale(0.45454545454545453 0.45454545454545453) translate(-320.5 -110.0)" version="1.1" viewBox="0 0 641 220" width="641">
	<defs/>
	<path class="b" d="M 302.44999999999993,85.06735905201205 L 269.36999999999995,102.21735905201203 C 272.03,101.71735905201203 274.6499999999999,101.21735905201203 277.19999999999993,100.63735905201204 L 302.50999999999993,87.92735905201206 C 302.5299999999999,87.24735905201206 302.50999999999993,86.51735905201204 302.4599999999999,85.74735905201206 C 302.43999999999994,85.51735905201204 302.43999999999994,85.28735905201208 302.4599999999999,85.06735905201205 L 302.4599999999999,85.06735905201205 L 302.44999999999993,85.06735905201205 M 58.43999999999996,150.52735905201203 L 58.43999999999996,150.52735905201203 C 62.47999999999997,146.84735905201202 63.55999999999997,143.47735905201202 68.56999999999996,139.10735905201201 C 74.00999999999996,134.367359052012 78.77999999999997,132.117359052012 82.87999999999997,129.757359052012 C 84.52999999999997,128.807359052012 87.78999999999996,127.19735905201199 91.57999999999996,125.23735905201201 C 96.36999999999995,122.23735905201201 100.39999999999995,119.79735905201201 108.15999999999994,115.687359052012 L 108.52999999999994,115.42735905201201 C 117.85999999999996,108.64735905201204 145.00999999999993,87.33735905201203 155.94999999999996,81.48735905201201 C 159.06999999999996,79.817359052012 160.78999999999996,79.64735905201204 163.75999999999996,81.48735905201201 C 166.72999999999996,83.32735905201199 173.90999999999997,88.83735905201203 176.24999999999997,89.83735905201203 C 178.58999999999997,90.83735905201203 179.05999999999997,89.83735905201203 182.33999999999997,87.33735905201203 C 185.61999999999998,84.82735905201204 192.01999999999998,86.66735905201202 196.54999999999998,85.66735905201202 C 201.07999999999998,84.66735905201202 201.54999999999998,81.82735905201204 211.23,76.47735905201202 C 220.91,71.13735905201204 228.10999999999999,73.307359052012 229.50999999999996,69.45735905201204 C 230.92,65.61735905201206 233.40999999999994,59.097359052012024 246.05999999999997,53.58735905201203 C 258.7099999999999,48.06735905201205 263.0799999999999,42.897359052012035 269.48999999999995,37.71735905201203 C 275.9,32.53735905201202 288.69999999999993,21.847359052012024 291.81999999999994,21.177359052012036 C 294.93999999999994,20.50735905201205 299.62999999999994,21.847359052012024 300.87999999999994,21.347359052012024 C 302.12999999999994,20.847359052012024 303.99999999999994,18.337359052012033 310.4099999999999,14.157359052012026 C 316.8099999999999,9.97735905201202 325.0899999999999,7.647359052012035 328.5299999999999,7.137359052012016 C 331.9699999999999,6.637359052012016 335.7099999999999,8.637359052012016 337.8999999999999,7.4773590520120194 C 340.4599999999999,6.107359052012015 345.50999999999993,-1.152640947987976 349.61999999999995,0.15735905201202627 C 353.62999999999994,1.4273590520120365 359.1499999999999,6.197359052012018 362.04999999999995,9.037359052012022 C 366.35999999999996,13.25735905201202 369.93999999999994,17.077359052012014 374.86999999999995,22.877359052012025 C 379.79999999999995,28.677359052012008 389.15999999999997,36.98735905201201 393.10999999999996,40.41735905201202 C 395.25999999999993,42.28735905201202 396.93999999999994,43.41735905201202 398.02,44.04735905201201 C 399.28999999999996,42.63735905201199 400.35999999999996,41.377359052012 401.69,39.847359052012024 C 404.92,36.127359052012 407.16,37.98735905201201 411.39,41.70735905201204 C 415.62,45.437359052012056 427.81,56.347359052012024 430.78999999999996,58.73735905201207 C 433.77,61.127359052012054 436.46999999999997,63.61735905201206 436.46999999999997,63.61735905201206 L 437.72999999999996,62.70735905201204 L 437.56999999999994,62.427359052012065 L 439.3999999999999,61.49735905201206 C 446.4299999999999,56.40735905201208 464.2299999999999,43.53735905201208 471.7699999999999,38.15735905201208 C 475.38999999999993,35.56735905201211 477.96,33.53735905201208 482.6899999999999,35.5173590520121 C 484.12999999999994,36.11735905201212 493.48999999999984,43.09735905201208 499.98999999999984,52.457359052012094 C 506.48999999999984,61.81735905201211 514.7299999999999,70.36735905201212 517.9799999999999,73.84735905201208 C 520.0099999999999,76.0173590520121 519.67,74.5173590520121 523.8199999999999,79.66735905201207 C 528.2199999999999,83.91735905201207 533.5699999999999,88.90735905201208 535.9699999999999,90.9573590520121 C 539.7199999999999,94.16735905201207 544.2199999999999,97.10735905201207 551.4599999999999,104.58735905201209 C 558.7099999999999,112.0773590520121 566.9499999999999,119.28735905201208 571.6999999999999,124.10735905201207 C 573.6099999999999,126.04735905201207 575.6099999999999,128.84735905201208 577.3199999999999,131.49735905201206 C 589.53,143.55735905201206 599.3699999999999,148.81735905201205 611.41,158.64735905201204 C 614.2099999999999,160.927359052012 615.81,164.35735905201201 618.8,167.21735905201203 C 621.79,170.06735905201205 628.4699999999999,177.95735905201204 631.38,180.737359052012 C 634.29,183.507359052012 637.9,191.28735905201202 640.27,193.447359052012 C 628.36,189.15735905201197 624.76,183.90735905201197 613.6899999999999,172.10735905201201 C 608.6999999999999,166.77735905201203 610.41,169.507359052012 604.81,164.177359052012 C 595.4599999999999,155.26735905201198 585.55,145.60735905201201 576.6099999999999,136.08735905201203 C 571.5999999999999,130.74735905201206 569.0699999999999,128.95735905201204 564.56,125.64735905201204 C 560.05,122.33735905201203 555.0999999999999,118.74735905201206 550.27,113.68735905201206 C 545.43,108.62735905201205 542.11,105.13735905201204 538.3,101.45735905201204 C 530.7099999999999,96.25735905201205 526.56,93.72735905201202 521.26,87.65735905201203 C 514.3,79.67735905201201 507.58,73.28735905201202 503.09999999999997,67.437359052012 C 498.61999999999995,61.587359052011976 490.8999999999999,53.63735905201199 486.68,48.04735905201201 C 485.2,46.097359052012024 483.8,44.877359052012 482.51000000000005,44.13735905201199 C 482.4800000000001,45.01735905201198 482.31,45.94735905201199 481.94,46.84735905201197 C 480.52000000000004,50.22735905201196 480.32,51.777359052011974 480.61999999999995,54.48735905201195 C 480.9199999999999,57.19735905201193 481.62999999999994,59.70735905201198 480.21999999999997,62.12735905201194 C 478.8,64.54735905201196 478.29,65.79735905201196 478.19,67.82735905201193 C 478.09,69.8573590520119 479.08,72.44735905201193 477.79,73.24735905201194 C 477.32,73.52735905201192 476.96,74.04735905201196 476.68,74.58735905201192 C 476.84,75.09735905201191 476.95,75.6773590520119 476.97999999999996,76.28735905201191 C 477.09999999999997,78.75735905201194 478.0399999999999,81.55735905201189 478.61999999999995,84.02735905201192 C 479.21,86.49735905201194 478.49999999999994,86.15735905201191 477.56,87.7273590520119 C 476.61999999999995,89.2973590520119 475.56,90.08735905201192 475.21,91.4273590520119 C 474.84999999999997,92.77735905201192 479.33,95.2373590520119 480.85999999999996,98.26735905201187 C 482.38999999999993,101.29735905201184 478.73999999999995,102.52735905201186 474.85999999999996,106.6773590520119 C 472.12999999999994,109.59735905201191 471.2,112.2973590520119 470.88999999999993,113.63735905201187 L 479.2799999999999,128.47735905201185 C 479.2799999999999,128.47735905201185 467.58999999999986,114.90735905201186 464.5999999999999,109.04735905201184 C 461.6099999999999,103.18735905201183 445.1899999999999,82.69735905201182 441.9599999999999,78.97735905201185 C 438.7299999999999,75.24735905201183 431.2699999999999,67.79735905201184 425.5399999999999,62.20735905201187 C 419.8199999999999,56.61735905201189 415.3399999999999,54.22735905201185 411.3599999999999,51.02735905201186 C 407.3799999999999,47.83735905201186 405.3899999999999,45.17735905201184 402.3999999999999,47.83735905201186 C 401.7399999999999,48.42735905201184 401.05999999999995,49.97735905201185 400.3299999999999,51.29735905201184 C 400.36999999999995,51.66735905201185 400.3999999999999,52.067359052011824 400.3999999999999,52.47735905201185 C 400.3999999999999,56.127359052011826 400.30999999999995,58.00735905201182 399.1099999999999,61.657359052011856 C 397.9099999999999,65.30735905201183 397.9999999999999,70.53735905201185 397.1699999999999,73.00735905201188 C 396.3399999999999,75.4773590520119 393.9399999999999,77.34735905201185 394.1299999999999,76.65735905201186 C 394.3199999999999,75.96735905201186 394.6799999999999,73.10735905201184 394.58999999999986,70.93735905201183 C 394.4999999999999,68.76735905201181 393.66999999999985,63.23735905201184 394.21999999999986,60.377359052011826 C 396.3199999999999,49.55735905201183 391.35999999999984,48.59735905201185 385.55999999999983,42.39735905201181 C 382.22999999999985,38.837359052011806 377.05999999999983,33.037359052011794 373.47999999999985,28.94735905201182 C 369.90999999999985,24.857359052011844 362.6299999999998,21.297359052011814 356.83999999999986,15.897359052011808 C 354.95999999999987,14.147359052011808 352.5599999999999,10.777359052011803 349.91999999999985,9.767359052011813 C 349.11999999999983,10.44735905201182 348.1999999999998,11.507359052011822 347.6299999999998,13.067359052011824 C 346.6599999999998,15.737359052011811 346.22999999999985,18.49735905201183 344.48999999999984,22.45735905201181 C 342.95999999999987,25.93735905201183 341.23999999999984,29.75735905201182 339.47999999999985,33.63735905201182 C 342.2599999999998,36.29735905201184 351.35999999999984,45.0273590520118 353.71999999999986,47.7773590520118 C 355.51999999999987,49.877359052011826 358.65999999999985,52.39735905201181 358.90999999999985,55.17735905201178 C 358.90999999999985,55.17735905201178 355.6399999999999,52.73735905201178 351.1999999999999,49.247359052011774 C 348.1299999999999,46.82735905201176 341.4299999999999,41.08735905201175 337.59999999999985,37.77735905201175 C 335.55999999999983,42.237359052011726 333.51999999999987,46.65735905201174 331.73999999999984,50.58735905201175 C 334.04999999999984,52.95735905201175 341.74999999999983,60.79735905201173 350.27999999999986,68.59735905201174 C 360.48999999999984,77.94735905201176 364.97999999999985,83.45735905201175 369.92999999999984,90.13735905201176 C 374.8799999999998,96.81735905201177 377.98999999999984,100.35735905201179 377.98999999999984,100.35735905201179 C 377.98999999999984,100.35735905201179 357.1299999999998,82.30735905201178 350.95999999999987,76.3473590520118 C 346.35999999999984,71.9073590520118 335.1299999999999,60.557359052011776 329.71999999999986,55.06735905201177 C 328.15999999999985,58.557359052011776 326.9399999999999,61.39735905201175 326.27999999999986,63.16735905201179 C 322.4999999999999,73.32735905201181 321.80999999999983,76.2773590520118 315.26999999999987,79.55735905201178 C 308.72999999999985,82.83735905201175 305.6399999999999,86.7773590520118 308.3899999999999,91.35735905201179 C 311.14999999999986,95.94735905201176 301.5099999999999,98.24735905201177 297.3899999999999,98.56735905201177 C 293.2599999999999,98.89735905201175 277.4399999999999,107.74735905201177 268.4999999999999,107.74735905201177 C 259.5599999999999,107.74735905201177 256.1199999999999,107.08735905201175 253.0199999999999,112.00735905201176 C 249.91999999999987,116.92735905201178 244.0799999999999,125.77735905201175 235.8199999999999,135.61735905201178 C 234.2799999999999,137.45735905201175 232.48999999999992,139.50735905201176 230.60999999999993,141.63735905201176 C 232.66999999999993,144.54735905201179 234.82999999999996,147.42735905201178 236.84999999999994,149.52735905201175 C 242.00999999999996,154.89735905201175 250.96999999999994,162.50735905201176 255.00999999999996,168.67735905201172 C 255.92,170.0673590520117 265.3999999999999,180.04735905201173 273.38999999999993,187.42735905201172 C 273.38999999999993,187.42735905201172 259.50999999999993,177.5073590520117 254.94999999999996,173.49735905201172 C 250.37999999999997,169.49735905201172 246.90999999999994,164.79735905201173 243.25999999999996,162.5273590520117 C 239.60999999999999,160.2573590520117 235.18999999999997,157.68735905201171 231.93999999999997,154.16735905201168 L 228.26999999999995,150.2073590520117 C 224.27999999999994,145.90735905201169 222.60999999999993,144.28735905201168 222.42999999999998,143.0673590520117 C 222.24999999999997,141.84735905201168 221.69999999999996,139.40735905201169 220.97,137.3273590520117 C 220.23999999999998,135.23735905201173 213.29999999999998,127.5773590520117 207.28,122.18735905201171 C 201.25,116.78735905201174 196.69,113.8273590520117 193.95,111.56735905201171 C 191.20999999999998,109.30735905201172 175.38,101.0173590520117 171.0,96.83735905201169 C 169.48,96.02735905201169 168.0,94.9573590520117 166.53,93.58735905201169 C 166.16,93.23735905201167 165.8,92.8973590520117 165.46,92.58735905201169 C 164.72,94.46735905201169 163.66,96.31735905201171 162.99,97.12735905201171 C 162.0,98.31735905201171 161.86,100.3973590520117 162.56,103.0773590520117 C 163.14000000000001,105.27735905201169 164.01,110.08735905201169 163.59,112.80735905201172 C 166.57,114.99735905201172 174.08,120.4473590520117 182.22,125.7673590520117 C 192.73,132.6473590520117 197.57,136.92735905201172 203.0,142.16735905201168 C 208.43,147.40735905201169 211.73999999999998,150.12735905201166 211.73999999999998,150.12735905201166 C 211.73999999999998,150.12735905201166 190.42,136.99735905201166 184.01999999999998,132.55735905201166 C 179.04,129.10735905201167 166.45,119.94735905201165 161.12999999999997,116.07735905201164 C 158.88999999999996,117.76735905201164 155.69999999999996,119.75735905201165 155.18999999999997,121.67735905201167 C 154.63999999999996,123.73735905201167 157.11999999999998,127.83735905201169 156.60999999999996,130.69735905201165 C 159.60999999999996,132.58735905201164 164.27999999999994,135.59735905201163 166.22999999999996,137.23735905201167 C 168.15999999999997,138.85735905201167 171.32999999999996,140.65735905201169 171.97999999999996,143.0873590520117 C 171.97999999999996,143.0873590520117 168.68999999999997,141.3773590520117 164.20999999999995,138.8873590520117 C 161.48999999999995,137.3773590520117 157.14999999999995,135.0773590520117 154.13999999999996,133.49735905201172 C 150.12999999999997,135.96735905201174 143.06999999999996,139.79735905201173 141.19999999999996,141.1973590520117 C 139.15999999999997,142.72735905201168 137.69999999999996,145.79735905201173 136.23999999999995,150.7173590520117 C 136.16999999999996,150.9673590520117 136.08999999999995,151.2073590520117 136.00999999999996,151.4473590520117 C 140.15999999999997,153.5773590520117 151.91999999999996,159.05735905201172 158.67999999999998,164.5773590520117 C 166.58999999999997,171.03735905201168 194.2,185.2773590520117 194.45,185.99735905201172 C 183.78,181.4473590520117 174.86999999999998,177.2573590520117 168.34,172.9573590520117 C 161.81,168.6473590520117 137.06,157.42735905201172 133.79,155.98735905201173 L 133.79,155.98735905201173 C 132.1,158.42735905201172 129.51,160.78735905201174 125.13,163.91735905201173 C 119.43,167.98735905201173 112.07999999999998,180.6373590520117 106.06,188.30735905201172 L 106.14000000000001,188.42735905201172 L 105.83000000000001,188.60735905201173 C 104.23000000000002,190.6273590520117 102.72,192.27735905201175 101.37,193.29735905201173 C 101.37,193.29735905201173 102.06,192.0673590520117 103.19,190.09735905201174 L 81.87,200.04735905201173 L 104.99000000000001,186.98735905201173 C 105.53,186.05735905201172 106.12,185.05735905201172 106.74000000000001,184.0073590520117 C 103.91,185.59735905201168 100.42000000000002,187.5173590520117 96.42000000000002,189.6973590520117 C 90.77000000000001,192.7673590520117 80.21000000000001,198.04735905201173 74.16,199.5773590520117 C 82.07,195.3773590520117 89.36000000000001,191.4673590520117 95.49000000000001,188.1273590520117 C 100.99000000000001,185.1373590520117 105.51000000000002,182.6373590520117 108.64000000000001,180.8273590520117 C 109.04000000000002,180.17735905201172 109.44000000000003,179.5073590520117 109.85000000000002,178.8373590520117 C 101.90000000000003,182.84735905201168 73.65,198.5673590520117 67.06000000000003,199.1473590520117 L 111.50000000000003,175.92735905201167 L 111.57000000000002,176.04735905201167 C 112.16000000000003,175.09735905201168 112.76000000000002,174.1473590520117 113.36000000000001,173.2173590520117 C 99.77000000000001,180.0073590520117 73.15,195.4473590520117 59.87,198.72735905201168 L 115.35,170.1473590520117 L 115.35,170.1473590520117 C 116.32,168.6973590520117 117.26999999999998,167.3273590520117 118.16999999999999,166.0873590520117 C 97.47999999999999,176.53735905201168 73.44999999999999,190.55735905201166 52.039999999999985,198.2673590520117 L 120.84,162.65735905201169 C 121.71000000000001,161.65735905201169 122.46000000000001,160.91735905201168 123.07,160.5273590520117 C 124.07,159.8873590520117 125.03999999999999,158.9673590520117 125.97,157.8773590520117 L 70.5,186.3973590520117 C 61.87,190.8273590520117 53.29999999999999,194.1373590520117 44.32999999999999,197.80735905201172 L 128.29,154.6473590520117 C 128.95,153.5873590520117 129.57,152.4673590520117 130.14,151.3273590520117 L 55.91999999999998,188.72735905201168 C 49.129999999999974,192.1473590520117 42.179999999999986,194.79735905201167 34.96999999999998,197.25735905201165 L 131.39,148.66735905201168 C 131.89999999999998,147.48735905201167 132.35,146.3373590520117 132.73999999999998,145.25735905201165 L 48.769999999999975,187.53735905201168 C 40.94999999999998,191.47735905201168 35.72999999999998,194.28735905201168 27.329999999999977,196.80735905201166 L 133.53,142.81735905201165 C 133.67,142.33735905201164 133.79,141.88735905201165 133.89000000000001,141.48735905201167 C 134.05,140.79735905201167 134.45000000000002,140.1473590520117 135.01000000000002,139.5273590520117 L 45.90000000000001,184.4673590520117 C 44.55000000000002,185.1473590520117 26.610000000000007,194.05735905201166 24.020000000000017,194.0073590520117 L 151.08,129.3173590520117 C 151.16000000000003,128.6973590520117 151.08,128.03735905201174 150.91000000000003,127.36735905201172 L 49.52000000000002,178.5173590520117 C 47.01000000000001,179.65735905201169 24.560000000000024,190.0673590520117 24.72000000000002,188.99735905201172 L 150.38000000000002,125.59735905201174 C 150.15000000000003,124.89735905201175 149.93000000000004,124.20735905201175 149.78000000000003,123.51735905201176 L 27.700000000000024,184.77735905201175 C 24.50000000000002,187.40735905201174 18.730000000000025,190.92735905201172 14.880000000000024,192.23735905201173 C 10.250000000000021,193.80735905201172 2.1316282072803006e-14,195.04735905201173 2.1316282072803006e-14,195.04735905201173 C 2.1316282072803006e-14,195.04735905201173 8.100000000000023,189.7573590520117 12.320000000000022,187.76735905201176 C 16.54000000000002,185.78735905201174 18.11000000000002,184.12735905201177 22.240000000000016,180.57735905201176 C 26.37000000000001,177.01735905201176 33.73000000000001,172.72735905201174 38.11000000000002,168.50735905201176 C 41.50000000000002,165.24735905201177 50.870000000000026,157.03735905201174 55.65000000000003,152.87735905201177 C 56.370000000000026,152.2273590520118 56.92000000000002,151.74735905201177 57.28000000000002,151.45735905201175 L 57.370000000000026,151.38735905201176 L 58.40000000000003,150.49735905201177 L 58.40000000000003,150.49735905201177 L 58.43999999999996,150.52735905201203 M 31.359999999999964,180.95735905201204 L 32.04999999999996,180.11735905201206 C 34.17999999999996,178.43735905201206 36.21999999999996,176.79735905201207 38.029999999999966,175.26735905201204 L 158.74999999999997,114.19735905201205 L 158.74999999999997,114.19735905201205 C 155.93999999999997,117.45735905201204 150.40999999999997,118.71735905201203 149.74999999999997,121.55735905201206 L 31.359999999999964,180.95735905201204 L 31.359999999999964,180.95735905201204 M 161.36999999999998,91.79735905201201 C 161.33999999999997,92.22735905201202 161.24999999999997,92.627359052012 161.10999999999999,93.01735905201204 L 137.85,105.16735905201202 C 139.07999999999998,104.187359052012 140.22,103.187359052012 141.29,102.14735905201204 C 141.82999999999998,101.60735905201201 142.35999999999999,101.11735905201206 142.87,100.65735905201203 L 160.86,91.38735905201204 C 161.21,91.38735905201204 161.4,91.47735905201202 161.37,91.79735905201207 L 161.36999999999998,91.79735905201201 M 159.18999999999997,96.067359052012 C 158.79999999999998,96.58735905201198 158.42999999999998,97.117359052012 158.13999999999996,97.69735905201199 C 150.94999999999996,101.877359052012 124.22999999999996,117.307359052012 95.79999999999995,132.82735905201199 C 104.35999999999996,127.16735905201196 108.09999999999997,125.90735905201197 117.72999999999996,118.997359052012 C 120.49999999999997,117.00735905201199 123.08999999999997,115.26735905201198 125.49999999999997,113.66735905201202 L 159.17999999999998,96.067359052012 L 159.17999999999998,96.067359052012 L 159.18999999999997,96.067359052012 M 157.60999999999996,100.10735905201201 C 157.63999999999996,100.73735905201201 157.79999999999995,101.41735905201202 158.12999999999997,102.187359052012 L 104.85999999999996,129.927359052012 C 128.45999999999995,116.92735905201201 149.59999999999997,104.747359052012 157.60999999999996,100.10735905201201 L 157.60999999999996,100.10735905201201 M 158.94999999999996,103.807359052012 C 159.32999999999996,104.557359052012 159.64999999999995,105.247359052012 159.90999999999997,105.89735905201198 L 56.499999999999964,159.137359052012 C 58.029999999999966,157.797359052012 59.58999999999997,156.367359052012 61.23999999999996,154.687359052012 L 158.94999999999996,103.807359052012 L 158.94999999999996,103.807359052012 M 160.50999999999996,107.627359052012 C 160.86999999999998,108.98735905201201 160.88999999999996,110.13735905201199 160.52999999999997,111.25735905201199 L 43.109999999999964,170.65735905201197 C 45.749999999999964,168.17735905201195 48.029999999999966,166.21735905201197 50.12999999999996,164.46735905201197 L 160.49999999999997,107.63735905201199 L 160.49999999999997,107.63735905201199 L 160.50999999999996,107.627359052012 M 182.20999999999995,95.60735905201201 L 183.70999999999995,96.807359052012 C 185.30999999999995,96.15735905201203 187.04999999999995,95.42735905201201 188.90999999999994,94.617359052012 C 187.01999999999995,94.64735905201198 184.99999999999994,94.75735905201199 183.65999999999994,95.07735905201199 C 183.14999999999995,95.19735905201199 182.66999999999993,95.38735905201199 182.20999999999995,95.617359052012 L 182.20999999999995,95.617359052012 L 182.20999999999995,95.60735905201201 M 185.32999999999996,98.09735905201202 L 187.56999999999996,99.877359052012 L 337.09999999999997,23.827359052011985 L 338.42999999999995,20.627359052011997 C 328.34999999999997,26.03735905201202 277.53999999999996,53.20735905201198 234.77999999999994,74.66735905201202 C 233.14999999999995,76.09735905201202 231.09999999999994,76.97735905201202 228.96999999999994,77.567359052012 C 219.20999999999995,82.42735905201201 210.01999999999995,86.90735905201197 201.98999999999995,90.65735905201197 C 198.38999999999996,93.20735905201198 193.79999999999995,94.67735905201195 193.79999999999995,94.67735905201195 L 193.26999999999995,94.64735905201198 C 190.37999999999997,95.937359052012 187.71999999999994,97.09735905201197 185.33999999999995,98.07735905201199 L 185.33999999999995,98.07735905201199 L 185.32999999999996,98.09735905201202 M 189.12999999999997,101.117359052012 L 190.92999999999998,102.53735905201202 L 334.61999999999995,29.707359052012038 L 336.0199999999999,26.407359052012026 L 189.13999999999996,101.10735905201201 L 189.13999999999996,101.10735905201201 L 189.12999999999997,101.117359052012 M 192.49999999999997,103.77735905201203 L 194.05999999999997,104.99735905201206 L 331.49999999999994,36.937359052012056 C 332.17999999999995,35.377359052012054 332.84999999999997,33.82735905201204 333.49999999999994,32.30735905201206 L 192.49999999999997,103.77735905201203 L 192.49999999999997,103.77735905201203 M 195.65999999999997,106.23735905201201 C 196.52999999999997,106.90735905201203 197.15999999999997,107.367359052012 197.43999999999997,107.54735905201201 L 328.74999999999994,43.147359052012035 C 329.28999999999996,41.94735905201205 329.81999999999994,40.73735905201201 330.35999999999996,39.52735905201203 L 195.66,106.22735905201202 L 195.66,106.22735905201202 L 195.65999999999997,106.23735905201201 M 199.18999999999997,108.70735905201204 C 199.90999999999997,109.19735905201205 200.75999999999996,109.78735905201202 201.67999999999998,110.42735905201206 L 326.1499999999999,48.887359052012044 C 326.62999999999994,47.85735905201207 327.1099999999999,46.80735905201206 327.5899999999999,45.74735905201206 L 199.18999999999994,108.71735905201209 L 199.18999999999994,108.71735905201209 L 199.18999999999997,108.70735905201204 M 203.35999999999996,111.60735905201201 C 204.01999999999995,112.07735905201204 204.68999999999997,112.557359052012 205.34999999999997,113.03735905201202 L 323.56999999999994,54.29735905201201 L 323.93999999999994,53.52735905201203 C 324.25999999999993,52.867359052012006 324.5799999999999,52.19735905201205 324.8999999999999,51.51735905201204 L 203.34999999999994,111.61735905201206 L 203.34999999999994,111.61735905201206 L 203.35999999999996,111.60735905201201 M 207.00999999999996,114.23735905201201 C 207.84999999999997,114.85735905201201 208.62999999999997,115.437359052012 209.29999999999995,115.95735905201204 L 320.3399999999999,61.02735905201203 L 322.2899999999999,56.95735905201204 L 207.00999999999993,114.23735905201207 L 207.00999999999993,114.23735905201207 L 207.00999999999996,114.23735905201201 M 210.85999999999996,117.20735905201204 L 210.94999999999996,117.28735905201202 C 211.30999999999997,117.60735905201201 211.80999999999997,118.10735905201201 212.42,118.73735905201201 L 317.32,67.19735905201199 C 317.84,66.14735905201198 318.42,64.98735905201201 319.05,63.67735905201201 L 210.86000000000004,117.19735905201199 L 210.86000000000004,117.19735905201199 L 210.85999999999996,117.20735905201204 M 213.69999999999996,120.12735905201205 C 214.29999999999998,120.78735905201208 214.94999999999996,121.52735905201203 215.63999999999996,122.29735905201207 L 313.6599999999999,73.66735905201207 C 314.3499999999999,72.7073590520121 315.06999999999994,71.48735905201207 315.9299999999999,69.89735905201209 L 213.7099999999999,120.11735905201206 L 213.7099999999999,120.11735905201206 L 213.69999999999996,120.12735905201205 M 216.86999999999998,123.72735905201208 C 217.56999999999996,124.53735905201208 218.29,125.37735905201205 218.99999999999997,126.22735905201208 L 249.35999999999999,110.48735905201207 C 249.78,109.83735905201209 250.13999999999996,109.26735905201204 250.42,108.78735905201208 C 251.35999999999999,107.18735905201206 252.37999999999997,106.18735905201206 253.60999999999999,105.5073590520121 L 216.87999999999997,123.72735905201208 L 216.87999999999997,123.72735905201208 L 216.86999999999998,123.72735905201208 M 220.18999999999997,127.64735905201209 C 220.95999999999995,128.5673590520121 221.69999999999996,129.46735905201209 222.38999999999996,130.3173590520121 C 228.25999999999996,126.84735905201208 241.04999999999998,119.54735905201213 244.37999999999997,117.64735905201209 C 245.42,116.1973590520121 246.37999999999997,114.84735905201208 247.23,113.62735905201211 L 220.20000000000002,127.6373590520121 L 220.20000000000002,127.6373590520121 L 220.18999999999997,127.64735905201209 M 223.54,131.7573590520121 C 224.1,132.46735905201209 224.6,133.10735905201213 225.02,133.65735905201208 C 225.25000000000003,133.96735905201209 225.49000000000004,134.28735905201208 225.74000000000004,134.6273590520121 L 237.17000000000004,127.52735905201209 C 238.78000000000006,125.35735905201207 240.34000000000006,123.23735905201207 241.79000000000005,121.23735905201207 C 236.58000000000007,124.21735905201209 228.02000000000007,129.12735905201205 223.54000000000005,131.75735905201205 L 223.54000000000005,131.75735905201205 L 223.54,131.7573590520121 M 226.79999999999998,136.10735905201213 C 227.42999999999998,136.98735905201212 228.07999999999996,137.9373590520121 228.75999999999996,138.89735905201215 C 230.55999999999997,136.46735905201214 232.40999999999994,133.96735905201214 234.23999999999998,131.48735905201212 L 226.79999999999998,136.10735905201213 L 226.79999999999998,136.10735905201213 M 263.21999999999997,103.34735905201214 L 303.22999999999996,82.60735905201213 C 303.93999999999994,81.3873590520121 305.08,80.29735905201213 306.4,79.31735905201211 L 254.26000000000002,105.17735905201212 C 256.42,104.22735905201213 259.21,104.0173590520121 263.21999999999997,103.34735905201214 L 263.21999999999997,103.34735905201214 M 288.83,96.80735905201212 C 295.63,93.78735905201214 301.84999999999997,92.54735905201213 301.84999999999997,92.54735905201213 C 301.84999999999997,92.54735905201213 302.15,91.58735905201215 302.34999999999997,90.01735905201215 L 288.82,96.80735905201217 L 288.82,96.80735905201217 L 288.83,96.80735905201212 M 339.39,18.277359052012116 L 340.02,16.757359052012106 L 238.02,70.05735905201212 C 237.77,70.47735905201213 237.51000000000002,70.92735905201212 237.23,71.40735905201214 C 284.10999999999996,47.797359052012126 339.04999999999995,18.237359052012124 339.28999999999996,18.10735905201213 L 339.39,18.277359052012116 L 339.39,18.277359052012116 M 340.96999999999997,14.427359052012122 L 341.51,13.11735905201212 C 339.05,14.747359052012115 336.94,16.257359052012106 336.94,16.257359052012106 C 336.94,16.257359052012106 335.21,16.467359052012114 332.92,16.547359052012098 L 262.48,52.257359052012106 C 261.5,53.047359052012126 260.69,53.757359052012106 260.13,54.34735905201208 C 256.64,58.08735905201209 250.70000000000002,59.207359052012094 246.16,61.81735905201211 C 243.21,63.5173590520121 241.73999999999998,64.58735905201209 240.02,66.96735905201209 L 340.89,14.257359052012077 L 340.97999999999996,14.427359052012065 L 340.97999999999996,14.427359052012065 L 340.96999999999997,14.427359052012122 M 322.52,158.13735905201216 L 315.28,161.80735905201217 L 314.39,160.2173590520122 L 321.82,156.44735905201222 L 321.02,154.4573590520122 L 316.62,156.73735905201218 L 315.72,155.1673590520122 L 320.35,152.7673590520122 L 319.75,151.2273590520122 L 319.51,150.63735905201221 L 302.14,159.25735905201222 C 303.22999999999996,159.66735905201224 304.31,160.0773590520122 305.33,160.5173590520122 L 307.97999999999996,159.13735905201221 L 308.87999999999994,160.7173590520122 L 307.3999999999999,161.4773590520122 C 309.6799999999999,162.63735905201221 311.31999999999994,163.80735905201217 312.7999999999999,164.99735905201217 L 323.1099999999999,159.60735905201219 L 322.4999999999999,158.1473590520122 L 322.4999999999999,158.1473590520122 L 322.52,158.13735905201216 M 301.45,116.17735905201218 L 268.59999999999997,133.3473590520122 L 268.92999999999995,133.50735905201222 C 279.09,128.56735905201222 290.29999999999995,122.94735905201222 301.71999999999997,117.13735905201221 C 301.61999999999995,116.80735905201223 301.53,116.49735905201223 301.45,116.17735905201224 L 301.45,116.17735905201224 L 301.45,116.17735905201218 M 266.57,132.35735905201219 L 301.0,114.36735905201218 C 300.65,112.82735905201216 300.49,111.73735905201218 300.49,111.73735905201218 C 300.49,111.73735905201218 303.94,114.68735905201217 305.76,117.45735905201221 C 307.58,120.22735905201219 311.03,124.03735905201219 312.67,125.94735905201222 C 314.31,127.85735905201224 316.67,131.1473590520122 318.3,134.43735905201223 C 319.94,137.72735905201225 321.57,142.92735905201224 322.84000000000003,146.04735905201224 C 324.11,149.16735905201224 325.20000000000005,155.05735905201223 327.75000000000006,159.38735905201221 C 330.2900000000001,163.7173590520122 329.93000000000006,164.23735905201224 331.93000000000006,168.56735905201222 C 333.1600000000001,171.23735905201224 334.12000000000006,173.24735905201223 334.6700000000001,174.3973590520122 C 335.45000000000005,173.3273590520122 336.36000000000007,172.3473590520122 337.5200000000001,171.5373590520122 C 342.7700000000001,167.85735905201219 348.6200000000001,163.24735905201217 353.0000000000001,162.3273590520122 C 357.3800000000001,161.4073590520122 368.7700000000001,154.0373590520122 371.4000000000001,150.35735905201219 C 374.0300000000001,146.67735905201218 383.3700000000001,142.68735905201217 386.8800000000001,142.06735905201216 C 390.3800000000001,141.45735905201215 395.35000000000014,138.07735905201216 397.3900000000001,136.23735905201218 C 399.4300000000001,134.3973590520122 406.1500000000001,129.7873590520122 410.5300000000001,131.62735905201217 C 414.9100000000001,133.46735905201214 417.2500000000001,135.92735905201218 422.2100000000001,139.9173590520122 C 427.1700000000001,143.9073590520122 429.2200000000001,143.9073590520122 435.3500000000001,143.9073590520122 C 441.4800000000001,143.9073590520122 442.94000000000005,144.2173590520122 449.0700000000001,150.04735905201218 C 455.2000000000001,155.87735905201217 458.7000000000001,157.7173590520122 463.67000000000013,160.17735905201218 C 468.63000000000017,162.62735905201217 475.0600000000001,168.1573590520122 481.4800000000001,174.29735905201218 C 487.91,180.43735905201217 509.8000000000001,195.7873590520122 509.8000000000001,195.7873590520122 C 509.8000000000001,195.7873590520122 487.86000000000007,184.6673590520122 483.90000000000015,181.68735905201217 C 479.9400000000001,178.70735905201215 475.1200000000002,176.32735905201216 470.4500000000001,172.00735905201216 C 465.7800000000001,167.68735905201217 461.8100000000001,165.45735905201215 457.9900000000001,163.2273590520122 C 454.17000000000013,160.99735905201217 449.35000000000014,154.43735905201217 447.23000000000013,152.9573590520122 C 445.1100000000001,151.4673590520122 440.72000000000014,148.93735905201223 439.72000000000014,148.93735905201223 C 438.72000000000014,148.93735905201223 429.8100000000001,150.12735905201222 427.54000000000013,148.78735905201225 C 425.27000000000015,147.44735905201227 417.20000000000016,140.89735905201226 417.20000000000016,140.89735905201226 C 417.20000000000016,140.89735905201226 416.07000000000016,142.83735905201226 415.08000000000015,144.02735905201226 C 414.09000000000015,145.21735905201226 413.94000000000017,147.29735905201224 414.65000000000015,149.97735905201225 C 415.23000000000013,152.17735905201224 416.10000000000014,156.98735905201224 415.6800000000001,159.70735905201227 C 418.66000000000014,161.89735905201226 426.17000000000013,167.34735905201225 434.3100000000001,172.66735905201224 C 444.8200000000001,179.54735905201224 449.66000000000014,183.82735905201227 455.0900000000001,189.06735905201222 C 460.5200000000001,194.31735905201222 463.8300000000001,197.0273590520122 463.8300000000001,197.0273590520122 C 463.8300000000001,197.0273590520122 442.5000000000001,183.8973590520122 436.11000000000007,179.4573590520122 C 431.13000000000005,176.00735905201222 418.5400000000001,166.8473590520122 413.2200000000001,162.9773590520122 C 410.9800000000001,164.6673590520122 407.7800000000001,166.6573590520122 407.2800000000001,168.5773590520122 C 406.7300000000001,170.63735905201221 409.2200000000001,174.73735905201224 408.7000000000001,177.5973590520122 C 411.7000000000001,179.48735905201218 416.3700000000001,182.48735905201218 418.3200000000001,184.13735905201221 C 420.2400000000001,185.75735905201222 423.42000000000013,187.55735905201223 424.0700000000001,189.98735905201224 C 424.0700000000001,189.98735905201224 420.79000000000013,188.27735905201226 416.3000000000001,185.79735905201224 C 413.5800000000001,184.28735905201225 409.2400000000001,181.98735905201224 406.23000000000013,180.40735905201225 C 402.21000000000015,182.87735905201228 395.15000000000015,186.70735905201227 393.29000000000013,188.10735905201224 C 391.2500000000001,189.63735905201221 389.78000000000014,192.71735905201226 388.33000000000015,197.62735905201222 C 386.8700000000002,202.53735905201225 384.53000000000014,205.60735905201224 377.23000000000013,210.8273590520122 C 369.9300000000001,216.04735905201224 365.2600000000001,219.4173590520122 365.2600000000001,219.4173590520122 C 365.2600000000001,219.4173590520122 366.5900000000001,216.9573590520122 368.6400000000001,214.1573590520122 C 364.6800000000001,215.81735905201222 361.8700000000001,217.1473590520122 357.6600000000001,218.0773590520122 L 371.75000000000006,210.3973590520122 C 372.84000000000003,209.25735905201222 374.00000000000006,208.2173590520122 375.19000000000005,207.4573590520122 C 376.13000000000005,206.8473590520122 377.05000000000007,206.00735905201222 377.9200000000001,205.00735905201222 C 368.5900000000001,209.54735905201224 360.0800000000001,213.7673590520122 350.39000000000004,217.50735905201222 L 380.35,201.67735905201224 C 381.03000000000003,200.58735905201226 381.67,199.43735905201223 382.26000000000005,198.2673590520122 L 368.53000000000003,205.19735905201222 C 359.3,209.49735905201223 351.08000000000004,213.29735905201224 341.51000000000005,216.79735905201224 L 383.50000000000006,195.60735905201224 C 384.01000000000005,194.44735905201222 384.46000000000004,193.30735905201223 384.84000000000003,192.23735905201224 L 363.40000000000003,203.23735905201224 C 353.90000000000003,208.10735905201224 343.94000000000005,212.06735905201222 334.11,216.21735905201226 L 385.64000000000004,189.78735905201225 C 385.78000000000003,189.30735905201223 385.90000000000003,188.84735905201225 386.00000000000006,188.43735905201223 C 386.15000000000003,187.79735905201224 386.50000000000006,187.19735905201222 387.00000000000006,186.61735905201223 L 354.08000000000004,203.50735905201222 C 344.96000000000004,208.18735905201223 336.03000000000003,211.79735905201224 326.51000000000005,215.61735905201223 L 403.18000000000006,176.27735905201226 C 403.26000000000005,175.65735905201225 403.18000000000006,174.99735905201229 403.01000000000005,174.31735905201228 L 344.45000000000005,203.90735905201225 C 335.69000000000005,207.89735905201226 327.52000000000004,211.56735905201228 318.51000000000005,214.97735905201225 L 402.4800000000001,172.54735905201224 C 402.25000000000006,171.84735905201225 402.0300000000001,171.14735905201226 401.88000000000005,170.45735905201227 L 337.82000000000005,202.54735905201224 C 327.69000000000005,207.61735905201223 319.83000000000004,210.94735905201222 310.25000000000006,214.3273590520122 L 401.81000000000006,168.4673590520122 C 402.4700000000001,165.63735905201221 407.99000000000007,164.37735905201222 410.80000000000007,161.12735905201222 L 333.5300000000001,200.31735905201222 C 323.31000000000006,205.05735905201223 313.5400000000001,209.75735905201222 303.00000000000006,213.75735905201222 L 412.5900000000001,158.17735905201224 C 412.9500000000001,157.06735905201222 412.93000000000006,155.91735905201224 412.5700000000001,154.55735905201223 L 333.6400000000001,195.64735905201226 C 321.0200000000001,201.84735905201225 309.0500000000001,207.97735905201225 295.9800000000001,213.20735905201227 L 411.9700000000001,152.82735905201227 C 411.7000000000001,152.1773590520123 411.3800000000001,151.4873590520123 411.0100000000001,150.74735905201229 C 384.7600000000001,164.5373590520123 360.3200000000001,178.13735905201227 334.0800000000001,191.93735905201228 C 319.9100000000001,199.38735905201227 306.61000000000007,206.2373590520123 291.7800000000001,212.5573590520123 L 410.2000000000001,149.13735905201227 C 409.8600000000001,148.3673590520123 409.7000000000001,147.6773590520123 409.67000000000013,147.0473590520123 C 376.42000000000013,166.3073590520123 322.1800000000001,197.12735905201228 286.0700000000001,210.26735905201227 C 320.7100000000001,195.83735905201226 397.0500000000001,152.26735905201227 410.2100000000001,144.62735905201228 C 410.5000000000001,144.0573590520123 410.8700000000001,143.52735905201226 411.2500000000001,143.00735905201228 L 341.9900000000001,179.19735905201227 C 340.3600000000001,180.75735905201228 338.5100000000001,182.4273590520123 336.34000000000015,184.1673590520123 C 332.21000000000015,187.4773590520123 327.16000000000014,188.5573590520123 321.8000000000001,189.74735905201229 C 306.6200000000001,197.31735905201228 291.7000000000001,205.32735905201227 275.97000000000014,211.64735905201226 L 313.91000000000014,191.81735905201228 L 313.85000000000014,191.83735905201226 C 305.67000000000013,194.59735905201225 297.21000000000015,197.0573590520123 289.3200000000001,201.34735905201225 C 281.4400000000001,205.64735905201226 268.3000000000001,211.78735905201225 268.3000000000001,211.78735905201225 C 268.3000000000001,211.78735905201225 282.6100000000001,199.50735905201228 284.65000000000015,198.28735905201225 C 286.69000000000017,197.05735905201223 318.23000000000013,188.46735905201226 325.2400000000002,185.39735905201226 C 328.8400000000002,183.81735905201228 330.5900000000002,181.18735905201228 332.1500000000002,178.49735905201229 C 329.5000000000002,177.33735905201226 324.1000000000002,174.9873590520123 320.6400000000002,173.4673590520123 C 315.9100000000002,171.38735905201233 312.2800000000002,169.13735905201233 308.4600000000002,166.18735905201234 C 304.6400000000002,163.24735905201234 301.7400000000002,164.97735905201236 296.2800000000002,163.06735905201234 C 290.8300000000002,161.16735905201236 289.0100000000002,157.17735905201235 284.2900000000002,152.49735905201234 C 279.5600000000002,147.81735905201234 276.8400000000002,144.87735905201234 275.38000000000017,142.44735905201233 C 273.9300000000002,140.01735905201232 269.75000000000017,138.80735905201234 266.2900000000002,136.0373590520123 C 262.8400000000002,133.26735905201232 261.2000000000002,129.7973590520123 261.2000000000002,129.7973590520123 C 261.2000000000002,129.7973590520123 263.5300000000002,130.9273590520123 266.5400000000002,132.39735905201232 L 266.5400000000002,132.39735905201232 L 266.57,132.35735905201219 M 302.3,118.87735905201217 C 291.43,124.41735905201219 280.74,129.76735905201215 270.99,134.52735905201214 L 272.42,135.23735905201212 L 302.68,119.84735905201214 C 302.55,119.52735905201214 302.43,119.20735905201215 302.31,118.88735905201216 L 302.3,118.87735905201217 M 303.44,121.47735905201219 L 274.43,136.2273590520122 C 275.28000000000003,136.6573590520122 276.07,137.05735905201217 276.78000000000003,137.4173590520122 L 304.65000000000003,123.28735905201219 C 304.21000000000004,122.7773590520122 303.8,122.1473590520122 303.43,121.4673590520122 L 303.44,121.47735905201219 M 305.96,124.67735905201218 L 278.76,138.45735905201215 C 279.57,138.89735905201215 280.24,139.33735905201215 280.84,139.79735905201213 L 307.72999999999996,126.47735905201213 C 307.22999999999996,125.94735905201216 306.65999999999997,125.38735905201216 305.95,124.66735905201213 L 305.95,124.66735905201213 L 305.96,124.67735905201218 M 308.95,127.9073590520122 L 282.31,141.0973590520122 C 282.81,141.5973590520122 283.27,142.13735905201221 283.75,142.7273590520122 L 310.14,129.7873590520122 C 309.71999999999997,129.0273590520122 309.34,128.42735905201218 308.95,127.9073590520122 M 310.96,131.4073590520122 L 284.90999999999997,144.17735905201218 C 285.4,144.7873590520122 285.92999999999995,145.45735905201215 286.54999999999995,146.18735905201217 L 311.94999999999993,133.62735905201217 C 311.5999999999999,132.80735905201217 311.2699999999999,132.05735905201217 310.9599999999999,131.40735905201214 L 310.96,131.4073590520122 M 312.65,135.30735905201217 L 287.78,147.60735905201219 C 288.34,148.23735905201218 288.80999999999995,148.7773590520122 289.21,149.23735905201218 L 313.41999999999996,137.2073590520122 C 313.16999999999996,136.56735905201222 312.90999999999997,135.92735905201224 312.65,135.30735905201223 L 312.65,135.30735905201223 L 312.65,135.30735905201217 M 314.09,138.9073590520122 L 290.4,150.67735905201218 C 291.19,151.6673590520122 291.5,152.20735905201215 291.87,152.86735905201218 L 315.06,141.39735905201215 L 314.08,138.90735905201214 L 314.08,138.90735905201214 L 314.09,138.9073590520122 M 315.73999999999995,143.0873590520122 L 292.79999999999995,154.43735905201223 L 292.84999999999997,154.5273590520122 C 293.17999999999995,155.04735905201218 293.74999999999994,155.5373590520122 294.48999999999995,155.99735905201223 L 316.62999999999994,145.11735905201223 L 316.47999999999996,144.81735905201222 C 316.30999999999995,144.4573590520122 316.04999999999995,143.8473590520122 315.73999999999995,143.0773590520122 L 315.73999999999995,143.0773590520122 L 315.73999999999995,143.0873590520122 M 317.50999999999993,146.7073590520122 L 296.47999999999996,157.0373590520122 C 297.48999999999995,157.49735905201217 298.61999999999995,157.93735905201217 299.80999999999995,158.38735905201221 L 318.7699999999999,148.9773590520122 C 318.3299999999999,148.0773590520122 317.9099999999999,147.36735905201218 317.5199999999999,146.7073590520122 L 317.5199999999999,146.7073590520122 L 317.50999999999993,146.7073590520122 M 323.8499999999999,161.2773590520122 L 314.3299999999999,166.24735905201223 L 315.2099999999999,166.98735905201224 C 318.24999999999994,165.42735905201224 321.2899999999999,163.86735905201223 324.30999999999995,162.30735905201223 C 324.16999999999996,162.00735905201222 324.0199999999999,161.65735905201225 323.8399999999999,161.27735905201226 L 323.8399999999999,161.27735905201226 L 323.8499999999999,161.2773590520122 M 325.1299999999999,163.92735905201218 C 322.3499999999999,165.36735905201218 319.5499999999999,166.80735905201217 316.7499999999999,168.23735905201218 C 316.95999999999987,168.3973590520122 317.1699999999999,168.56735905201216 317.3899999999999,168.7273590520122 L 317.5699999999999,168.85735905201219 L 325.6099999999999,164.87735905201217 L 325.1299999999999,163.9173590520122 L 325.1299999999999,163.9173590520122 L 325.1299999999999,163.92735905201218 M 326.40999999999985,166.50735905201216 L 319.52999999999986,169.89735905201215 C 320.46999999999986,170.27735905201214 321.4999999999999,170.58735905201215 322.52999999999986,170.84735905201214 L 327.3799999999999,168.48735905201212 L 326.40999999999985,166.5173590520121 L 326.40999999999985,166.5173590520121 L 326.40999999999985,166.50735905201216 M 328.17999999999984,170.10735905201219 L 325.4499999999998,171.42735905201218 C 327.4799999999998,171.74735905201217 329.0299999999998,171.8473590520122 329.0299999999998,171.8473590520122 L 328.1799999999998,170.10735905201219 L 328.1799999999998,170.10735905201219 L 328.17999999999984,170.10735905201219 M 328.90999999999985,16.527359052012173 C 327.9499999999999,16.47735905201216 326.99999999999983,16.387359052012187 326.10999999999984,16.247359052012172 C 321.5699999999998,15.497359052012172 316.67999999999984,19.607359052012185 311.4499999999998,23.347359052012166 C 306.2099999999998,27.087359052012147 301.67999999999984,28.20735905201215 298.17999999999984,31.567359052012165 C 294.6899999999998,34.92735905201218 288.04999999999984,34.92735905201218 282.46999999999986,38.66735905201219 C 280.15999999999985,40.2173590520122 276.52999999999986,42.5273590520122 272.8199999999999,44.97735905201219 L 328.9199999999999,16.537359052012192 L 328.9199999999999,16.537359052012192 L 328.90999999999985,16.527359052012173 M 222.5899999999999,78.70735905201215 C 222.0699999999999,78.76735905201215 221.5699999999999,78.83735905201215 221.09999999999988,78.89735905201215 L 206.81999999999988,86.35735905201213 L 206.76999999999987,86.39735905201215 C 211.72999999999988,84.02735905201214 217.03999999999988,81.44735905201216 222.57999999999984,78.70735905201215 L 222.57999999999984,78.70735905201215 L 222.5899999999999,78.70735905201215 M 77.49999999999989,142.66735905201213 C 74.90999999999988,143.42735905201212 72.40999999999988,144.73735905201212 69.72999999999988,146.7573590520121 C 72.28999999999988,145.41735905201213 74.88999999999987,144.05735905201212 77.49999999999989,142.66735905201213 M 346.36999999999983,174.8173590520121 C 347.4599999999998,173.72735905201213 348.47999999999985,172.72735905201213 349.49999999999983,171.8373590520121 C 350.60999999999984,170.86735905201206 351.53999999999985,170.10735905201207 352.53999999999985,169.3873590520121 L 413.4399999999998,138.0173590520121 C 413.4699999999998,138.22735905201208 413.4699999999998,138.4473590520121 413.4499999999998,138.6873590520121 C 413.41999999999985,139.11735905201212 413.3299999999998,139.5273590520121 413.1899999999998,139.90735905201214 L 346.36999999999983,174.8173590520121 L 346.36999999999983,174.8173590520121 M 379.8799999999998,153.2573590520121 C 380.4099999999998,152.8973590520121 380.8999999999998,152.53735905201208 381.3299999999998,152.1873590520121 C 385.1299999999998,149.11735905201212 388.9199999999998,146.35735905201213 392.1299999999998,145.1273590520121 C 395.3399999999998,143.8973590520121 398.2599999999998,141.4473590520121 402.92999999999984,138.0673590520121 C 406.41999999999985,135.53735905201214 410.73999999999984,134.90735905201208 412.5699999999998,136.41735905201213 L 379.86999999999983,153.2573590520121 L 379.86999999999983,153.2573590520121 L 379.8799999999998,153.2573590520121 M 474.7799999999998,98.77735905201209 L 464.9299999999998,103.8873590520121 L 466.2999999999998,105.7673590520121 L 472.08999999999975,102.85735905201207 C 474.6499999999997,101.02735905201209 475.3899999999997,100.50735905201205 474.7799999999998,98.77735905201209 L 474.7799999999998,98.77735905201209 M 463.8599999999998,102.39735905201209 L 473.99999999999983,97.1373590520121 C 473.6899999999999,96.60735905201213 473.34999999999985,96.10735905201213 473.0299999999998,95.6373590520121 L 462.6899999999998,100.7673590520121 L 463.85999999999984,102.39735905201209 L 463.85999999999984,102.39735905201209 L 463.8599999999998,102.39735905201209 M 521.2099999999998,151.42735905201212 L 509.5499999999998,157.42735905201212 C 510.1599999999998,157.84735905201214 510.7699999999998,158.29735905201213 511.32999999999976,158.7573590520121 L 521.3799999999998,153.5073590520121 C 521.3499999999998,152.7773590520121 521.3399999999998,152.1273590520121 521.2099999999998,151.42735905201212 M 507.8099999999998,156.28735905201214 L 520.6099999999998,149.69735905201216 L 520.5499999999998,149.56735905201216 C 519.5399999999998,147.58735905201215 513.9999999999999,139.48735905201218 513.9999999999999,139.48735905201218 C 513.9999999999999,139.48735905201218 519.0199999999999,144.63735905201216 521.2699999999999,147.04735905201218 C 523.5199999999999,149.4573590520122 523.2099999999999,152.74735905201217 523.3199999999998,153.8373590520122 C 523.4199999999998,154.93735905201223 525.4699999999998,156.0273590520122 529.5599999999998,159.42735905201218 C 533.6499999999999,162.82735905201216 534.1699999999998,163.5873590520122 534.2699999999999,164.57735905201216 C 534.3699999999999,165.56735905201216 534.8799999999999,171.69735905201216 535.1899999999998,172.35735905201213 C 535.4999999999998,173.01735905201215 540.2099999999998,175.97735905201213 541.2299999999998,177.28735905201214 C 542.2499999999998,178.59735905201214 542.7699999999998,181.00735905201216 544.0999999999998,182.65735905201214 C 545.4299999999998,184.29735905201213 550.5499999999998,187.69735905201216 553.1099999999998,189.44735905201216 C 555.6699999999997,191.19735905201216 559.9699999999998,194.81735905201216 559.9699999999998,194.81735905201216 C 559.9699999999998,194.81735905201216 549.1199999999998,193.38735905201216 546.2499999999998,191.74735905201217 C 543.3799999999998,190.10735905201219 542.1499999999997,189.33735905201215 537.5499999999997,186.26735905201215 C 532.9399999999997,183.19735905201216 531.7099999999997,185.39735905201215 527.4099999999997,180.46735905201214 C 523.1099999999998,175.53735905201214 521.4699999999997,172.57735905201216 519.2199999999997,170.60735905201213 C 516.9699999999997,168.6373590520121 513.9999999999997,168.30735905201212 513.1799999999997,166.0073590520121 C 512.3599999999997,163.7073590520121 513.8999999999997,162.9373590520121 511.43999999999966,160.41735905201213 C 508.9799999999996,157.89735905201215 505.70999999999964,155.04735905201213 505.70999999999964,155.04735905201213 C 505.70999999999964,155.04735905201213 506.6199999999996,155.54735905201213 507.81999999999965,156.28735905201214 L 507.81999999999965,156.28735905201214 L 507.8099999999998,156.28735905201214 M 521.5799999999998,155.45735905201215 L 512.7299999999998,160.07735905201216 C 512.8999999999997,160.26735905201215 512.8699999999998,160.18735905201217 513.1699999999998,160.62735905201217 C 513.4699999999998,161.06735905201216 514.0299999999999,162.08735905201215 514.3199999999998,162.80735905201217 C 517.3999999999999,161.11735905201218 520.4499999999998,159.43735905201217 523.4499999999998,157.7773590520122 C 522.2699999999999,156.6473590520122 521.7999999999998,156.38735905201221 521.5799999999998,155.44735905201222 L 521.5799999999998,155.44735905201222 L 521.5799999999998,155.45735905201215 M 524.7699999999999,159.12735905201217 C 521.5299999999999,160.9173590520122 518.2399999999999,162.73735905201218 514.9099999999999,164.55735905201217 L 514.9899999999999,164.86735905201218 L 525.1399999999999,159.49735905201217 C 525.0199999999999,159.37735905201217 524.8899999999999,159.24735905201217 524.7699999999999,159.12735905201217 L 524.7699999999999,159.12735905201217 M 526.5999999999999,160.77735905201214 L 515.9899999999999,166.38735905201216 C 516.4999999999999,166.65735905201214 517.2199999999999,167.02735905201214 517.9599999999999,167.44735905201216 L 528.3599999999999,162.02735905201214 C 527.81,161.67735905201212 527.2099999999999,161.25735905201216 526.5899999999999,160.77735905201214 L 526.5899999999999,160.77735905201214 L 526.5999999999999,160.77735905201214 M 530.1299999999999,163.15735905201214 L 519.8099999999998,168.52735905201214 C 520.3699999999998,168.87735905201217 520.8899999999999,169.25735905201216 521.1599999999999,169.49735905201217 C 521.4299999999998,169.73735905201218 521.6399999999999,169.99735905201217 521.8999999999999,170.33735905201215 L 531.6399999999999,165.39735905201215 C 531.3899999999999,164.55735905201217 530.9399999999998,163.82735905201216 530.6799999999998,163.57735905201216 C 530.4199999999998,163.32735905201216 530.3499999999998,163.29735905201218 530.1299999999999,163.14735905201215 L 530.1299999999999,163.14735905201215 L 530.1299999999999,163.15735905201214 M 532.0199999999999,167.24735905201211 L 522.9299999999998,171.85735905201213 C 523.3199999999998,172.46735905201214 523.7099999999998,173.1273590520121 524.1099999999998,173.77735905201214 L 532.1999999999998,169.72735905201213 C 532.1799999999998,168.8173590520121 532.1199999999998,167.98735905201212 532.0199999999999,167.24735905201211 M 532.3299999999998,171.6973590520121 L 525.0899999999998,175.3273590520121 C 525.3899999999998,175.78735905201208 525.6899999999998,176.22735905201208 525.9799999999998,176.61735905201212 C 526.1299999999998,176.80735905201212 526.2999999999998,176.99735905201211 526.4899999999998,177.1873590520121 L 533.3999999999997,173.6973590520121 C 532.8899999999998,173.21735905201209 532.5199999999998,172.6273590520121 532.3399999999998,171.6973590520121 L 532.3399999999998,171.6973590520121 L 532.3299999999998,171.6973590520121 M 535.0599999999998,174.8873590520121 L 528.0799999999998,178.41735905201207 C 528.7399999999998,178.8373590520121 529.4699999999998,179.24735905201206 530.2399999999998,179.65735905201208 L 536.8499999999998,176.2673590520121 C 536.6199999999998,176.0673590520121 536.4199999999998,175.8973590520121 536.0999999999998,175.6473590520121 C 535.7899999999998,175.3973590520121 535.3899999999998,175.11735905201212 535.0599999999998,174.8973590520121 L 535.0599999999998,174.8973590520121 L 535.0599999999998,174.8873590520121 M 538.2199999999998,177.59735905201208 L 532.2099999999998,180.68735905201206 C 532.9999999999998,181.09735905201208 533.7899999999998,181.52735905201203 534.5199999999998,181.96735905201203 L 539.5599999999997,179.37735905201205 C 539.1499999999997,178.74735905201206 538.7299999999997,178.17735905201206 538.2099999999997,177.59735905201208 L 538.2199999999998,177.59735905201208 M 540.5399999999998,180.91735905201207 L 536.2499999999999,183.11735905201206 C 537.1299999999999,183.74735905201206 537.7499999999999,184.26735905201204 538.2499999999999,184.70735905201204 L 542.1199999999999,182.75735905201205 C 541.5099999999999,182.11735905201206 540.9699999999999,181.48735905201207 540.5399999999998,180.91735905201207 L 540.5399999999998,180.91735905201207 M 543.4599999999998,184.10735905201207 L 539.6999999999998,186.00735905201205 C 540.0199999999999,186.27735905201203 540.4699999999998,186.59735905201202 540.7999999999998,186.80735905201206 C 541.1299999999999,187.01735905201204 541.3999999999999,187.15735905201208 541.8799999999999,187.39735905201204 L 545.1199999999999,185.68735905201206 C 544.5999999999999,185.18735905201206 544.0299999999999,184.65735905201208 543.4599999999999,184.10735905201207 L 543.4599999999999,184.10735905201207 L 543.4599999999998,184.10735905201207 M 546.5099999999998,186.99735905201206 L 543.8899999999998,188.37735905201205 C 544.5099999999998,188.67735905201206 545.1699999999997,188.98735905201207 545.8499999999998,189.29735905201207 L 547.8299999999998,188.21735905201209 L 546.5099999999998,186.99735905201206 L 546.5099999999998,186.99735905201206 M 549.2499999999998,189.51735905201204 L 547.9099999999997,190.24735905201206 C 550.2199999999997,191.29735905201207 552.1699999999997,192.16735905201207 552.1699999999997,192.16735905201207 C 552.1699999999997,192.16735905201207 550.7999999999997,190.92735905201206 549.2499999999998,189.5173590520121 L 549.2499999999998,189.51735905201204 M 477.72999999999973,44.08735905201203 L 466.91999999999973,49.56735905201205 C 464.9399999999997,51.397359052012035 462.72999999999973,53.49735905201206 460.5499999999997,55.52735905201203 L 479.43999999999977,45.657359052012026 C 479.5499999999998,44.687359052012 478.7499999999997,44.247359052012 477.72999999999973,44.08735905201203 L 477.72999999999973,44.08735905201203 M 478.8799999999997,48.00735905201205 L 454.8199999999997,60.57735905201204 C 449.6899999999997,64.56735905201205 446.28999999999974,65.09735905201202 443.7499999999997,67.60735905201201 C 455.7799999999997,61.41735905201202 467.6599999999997,55.22735905201202 478.3899999999997,49.58735905201203 C 478.54999999999967,49.03735905201202 478.71999999999974,48.51735905201204 478.8799999999997,47.99735905201206 L 478.8799999999997,47.99735905201206 L 478.8799999999997,48.00735905201205 M 477.85999999999973,51.917359052012074 C 466.57999999999976,57.83735905201209 454.10999999999973,64.33735905201209 441.5499999999997,70.77735905201209 C 441.35999999999973,71.16735905201207 441.1799999999997,71.5773590520121 440.9999999999997,72.02735905201209 L 441.1299999999997,72.16735905201207 L 477.69999999999976,53.56735905201205 L 477.69999999999976,53.377359052012054 C 477.7399999999997,52.84735905201208 477.7999999999998,52.35735905201207 477.85999999999973,51.907359052012026 L 477.85999999999973,51.917359052012074 M 477.68999999999977,55.61735905201206 L 442.34999999999974,73.58735905201209 C 442.75999999999976,74.06735905201211 443.25999999999976,74.64735905201209 443.8099999999997,75.29735905201207 L 477.8899999999997,58.02735905201209 C 477.81999999999965,57.28735905201208 477.71999999999974,56.53735905201208 477.67999999999967,55.61735905201206 L 477.67999999999967,55.61735905201206 L 477.68999999999977,55.61735905201206 M 477.95999999999975,60.03735905201208 L 445.01999999999975,76.72735905201208 C 445.53999999999974,77.34735905201208 446.08999999999975,78.0173590520121 446.65999999999974,78.71735905201209 L 477.1499999999997,63.61735905201206 C 477.54999999999967,62.69735905201205 477.79999999999967,61.80735905201206 477.9099999999997,60.627359052012054 C 477.92999999999967,60.417359052012074 477.93999999999966,60.21735905201203 477.94999999999965,60.02735905201203 L 477.94999999999965,60.02735905201203 L 477.95999999999975,60.03735905201208 M 475.70999999999975,66.36735905201206 L 447.83999999999975,80.16735905201207 C 448.3099999999998,80.75735905201205 448.7999999999997,81.35735905201207 449.27999999999975,81.97735905201208 L 474.2499999999997,69.72735905201208 C 474.4999999999997,68.77735905201209 474.80999999999966,67.9573590520121 475.06999999999977,67.49735905201206 L 475.69999999999976,66.36735905201206 L 475.69999999999976,66.36735905201206 L 475.70999999999975,66.36735905201206 M 473.81999999999977,71.96735905201209 L 450.4199999999998,83.4473590520121 C 450.9099999999998,84.08735905201209 451.4099999999998,84.73735905201212 451.8999999999998,85.3873590520121 L 473.96999999999986,74.47735905201208 C 473.73999999999984,73.83735905201209 473.71999999999986,72.92735905201206 473.8199999999999,71.97735905201208 L 473.8199999999999,71.97735905201208 L 473.81999999999977,71.96735905201209 M 474.45999999999975,76.24735905201206 L 452.9999999999998,86.85735905201207 C 453.4099999999998,87.40735905201208 453.8099999999998,87.96735905201209 454.19999999999976,88.5173590520121 L 474.8999999999998,78.23735905201212 C 474.7599999999998,77.62735905201211 474.60999999999984,76.93735905201211 474.46999999999986,76.24735905201211 L 474.46999999999986,76.24735905201211 L 474.45999999999975,76.24735905201206 M 475.4299999999998,79.99735905201206 L 455.2499999999998,90.02735905201203 L 455.6799999999998,90.65735905201203 L 456.76999999999975,92.26735905201204 L 476.70999999999975,82.39735905201204 C 476.4199999999998,81.79735905201201 475.8699999999997,81.02735905201203 475.4299999999998,79.98735905201201 L 475.4299999999998,79.98735905201201 L 475.4299999999998,79.99735905201206 M 476.60999999999973,84.47735905201208 L 457.7999999999997,93.78735905201208 L 459.09999999999974,95.66735905201207 L 475.07999999999976,87.81735905201205 C 475.9999999999997,86.33735905201203 476.3899999999997,85.27735905201203 476.60999999999973,84.48735905201207 L 476.60999999999973,84.48735905201207 L 476.60999999999973,84.47735905201208 M 472.8999999999997,90.90735905201208 L 460.1399999999997,97.17735905201206 L 461.60999999999973,99.27735905201209 L 472.0599999999998,94.09735905201208 C 471.93999999999977,93.85735905201207 471.85999999999973,93.6373590520121 471.81999999999977,93.42735905201206 C 471.6699999999998,92.64735905201209 472.08999999999975,91.99735905201206 472.8899999999998,90.92735905201206 L 472.8899999999998,90.92735905201206 L 472.8999999999997,90.90735905201208 M 468.58999999999975,106.6373590520121 L 467.32999999999976,107.2673590520121 L 467.70999999999975,107.93735905201211 C 467.97999999999973,107.5173590520121 468.2799999999998,107.0773590520121 468.58999999999975,106.6373590520121 L 468.58999999999975,106.6373590520121"/>
</svg>
