<?xml version="1.0" ?>
<svg xmlns="http://www.w3.org/2000/svg" xmlns:ev="http://www.w3.org/2001/xml-events" xmlns:xlink="http://www.w3.org/1999/xlink" baseProfile="full" height="219" id="a" transform="scale(0.45662100456621 0.45662100456621) translate(-324.5 -109.5)" version="1.1" viewBox="0 0 649 219" width="649">
	<defs/>
	<path class="b" d="M 515.7129014305591,131.43913155908928 C 525.1129014305591,146.7991315590893 526.5329014305591,150.02913155908925 508.1029014305591,147.27913155908925 C 507.9429014305591,151.37913155908927 524.7129014305591,170.64913155908926 511.4329014305591,168.53913155908924 C 513.7829014305591,179.02913155908925 561.3929014305592,210.73913155908923 569.8329014305591,218.51913155908926 C 556.7929014305591,213.07913155908926 516.6729014305591,210.25913155908927 512.8729014305591,193.50913155908927 C 499.292901430559,190.46913155908925 509.26290143055905,170.13913155908926 494.53290143055904,167.75913155908927 L 491.65290143055904,167.1691315590893 C 507.192901430559,151.8491315590893 477.4829014305591,149.5391315590893 467.682901430559,147.12913155908927 C 463.9729014305591,143.51913155908926 478.822901430559,136.14913155908926 482.432901430559,133.05913155908928 C 477.092901430559,128.88913155908926 491.602901430559,111.99913155908928 482.75290143055906,107.44913155908927 C 464.8129014305591,80.67913155908929 446.67290143055914,121.97913155908924 401.4429014305591,97.31913155908927 C 369.76290143055905,78.42913155908929 336.9729014305591,85.17913155908929 385.7429014305591,107.21913155908925 C 398.65290143055915,115.42913155908923 400.87290143055907,139.47913155908924 418.1029014305591,139.96913155908925 C 400.0629014305591,157.92913155908923 383.8529014305591,134.77913155908925 372.66290143055915,125.98913155908923 C 318.7129014305591,146.23913155908923 399.78290143055915,178.33913155908925 426.2229014305591,177.23913155908923 C 491.2329014305591,182.81913155908921 380.38290143055906,205.18913155908922 361.5729014305591,183.53913155908924 C 340.41290143055915,167.59913155908924 318.29290143055914,192.26913155908926 295.4829014305591,184.68913155908922 C 233.8829014305591,165.41913155908924 179.0429014305591,228.6991315590892 152.4929014305591,208.17913155908923 C 166.1129014305591,214.37913155908922 177.4729014305591,198.04913155908923 186.3929014305591,190.1491315590892 C 209.7929014305591,171.37913155908922 249.8729014305591,172.35913155908918 269.90290143055915,143.9591315590892 C 252.1129014305591,130.5791315590892 278.3529014305591,133.8491315590892 275.8729014305592,123.0891315590892 C 274.77290143055916,104.87913155908922 312.6829014305591,98.49913155908922 306.15290143055915,76.69913155908921 C 275.6829014305591,74.65913155908919 284.7129014305592,85.0891315590892 297.26290143055917,37.78913155908921 C 319.94290143055923,23.319131559089215 283.66290143055915,32.21913155908922 275.0829014305592,30.9291315590892 C 256.27290143055916,37.4891315590892 242.4429014305592,66.43913155908922 219.5029014305592,74.81913155908921 C 184.6929014305592,161.7091315590892 88.6029014305592,151.5091315590892 112.3829014305592,164.0891315590892 C 123.64290143055919,170.7591315590892 109.80290143055919,175.35913155908918 108.1329014305592,180.9091315590892 C 114.06290143055921,182.6391315590892 110.4529014305592,189.23913155908917 114.56290143055921,190.86913155908917 C 116.93290143055921,192.81913155908916 146.7629014305592,197.49913155908916 129.8729014305592,202.98913155908917 C 121.62290143055921,201.93913155908916 84.4129014305592,219.4091315590892 89.86290143055922,198.13913155908915 C 92.49290143055921,190.66913155908912 86.42290143055922,190.01913155908915 83.21290143055921,185.28913155908913 C 90.67290143055922,171.7491315590891 88.14290143055922,137.57913155908915 66.96290143055921,158.94913155908915 C 49.66290143055922,175.88913155908915 26.742901430559215,196.28913155908918 1.9529014305592085,194.30913155908917 C -12.117098569440792,192.6591315590892 53.962901430559214,172.36913155908917 68.3929014305592,147.68913155908916 C 78.9129014305592,140.62913155908916 90.14290143055919,145.57913155908915 100.99290143055921,147.80913155908917 C 119.30290143055922,147.86913155908917 144.0929014305592,139.64913155908914 162.16290143055923,137.23913155908917 C 193.81290143055924,114.31913155908916 201.17290143055922,64.7791315590892 243.59290143055924,51.47913155908918 C 259.0729014305592,43.489131559089174 260.94290143055923,15.839131559089196 279.68290143055924,28.62913155908919 C 290.7129014305592,22.809131559089195 314.4629014305592,-18.12086844091081 321.2529014305593,9.459131559089201 C 344.4529014305592,36.1191315590892 354.0729014305592,79.61913155908923 391.8829014305593,87.25913155908921 C 408.04290143055925,89.97913155908924 412.4929014305593,94.0291315590892 425.1429014305593,99.35913155908923 C 440.8429014305592,96.17913155908923 455.8829014305593,95.04913155908923 469.67290143055925,86.83913155908925 C 497.28290143055926,87.26913155908926 511.8729014305593,125.89913155908926 534.4529014305592,139.99913155908922 C 568.8429014305592,163.5891315590892 608.4829014305592,185.0291315590892 648.4329014305592,192.61913155908923 C 598.2529014305593,203.12913155908922 554.2429014305592,161.67913155908923 515.7129014305592,131.41913155908924 L 515.7129014305591,131.43913155908928"/>
</svg>
