<?xml version="1.0" ?>
<svg xmlns="http://www.w3.org/2000/svg" xmlns:ev="http://www.w3.org/2001/xml-events" xmlns:xlink="http://www.w3.org/1999/xlink" baseProfile="full" height="236" id="a" transform="scale(0.423728813559322 0.423728813559322) translate(-304.5 -118.0)" version="1.1" viewBox="0 0 609 236" width="609">
	<defs/>
	<path class="b" d="M 594.4900000000001,212.01142581971632 C 589.4800000000001,205.0414258197163 585.2900000000001,195.1614258197163 579.4300000000002,189.06142581971633 C 574.1000000000001,183.5214258197163 568.6000000000001,184.01142581971632 561.7800000000002,181.80142581971634 C 559.2200000000003,180.97142581971636 557.1600000000002,179.84142581971636 555.3900000000002,178.47142581971636 C 555.3900000000002,178.52142581971637 555.3900000000002,178.59142581971636 555.3800000000002,178.65142581971637 C 555.2800000000002,178.89142581971637 554.9600000000003,178.7514258197164 554.8000000000002,178.70142581971638 C 554.6300000000002,178.4214258197164 554.8900000000002,178.6214258197164 554.8000000000002,178.3114258197164 C 554.9500000000002,178.2414258197164 555.0700000000002,178.28142581971642 555.1900000000002,178.34142581971636 C 551.6900000000002,175.58142581971637 549.4100000000002,171.79142581971635 547.1400000000002,167.05142581971634 C 539.7600000000002,151.58142581971632 535.5100000000002,132.62142581971634 524.8100000000002,118.92142581971635 C 519.7900000000002,112.50142581971633 514.4400000000002,114.29142581971635 508.3400000000001,110.52142581971637 C 501.0900000000001,106.04142581971635 499.0800000000001,96.6814258197164 493.6800000000001,90.65142581971637 C 487.4500000000001,83.70142581971638 487.8400000000001,89.52142581971637 480.5900000000001,87.19142581971639 C 475.2000000000001,85.46142581971637 471.3000000000001,73.85142581971638 468.41000000000014,69.6114258197164 C 466.26000000000016,66.4614258197164 463.3500000000002,61.23142581971641 460.3300000000001,59.0514258197164 C 457.7100000000001,57.151425819716394 454.9500000000001,57.8314258197164 452.53000000000014,56.421425819716404 C 446.14000000000016,52.681425819716395 442.78000000000014,45.26142581971641 438.66000000000014,38.85142581971641 C 432.22000000000014,28.85142581971641 431.1200000000001,27.881425819716412 424.1200000000001,37.35142581971641 C 419.17000000000013,44.0514258197164 412.9600000000001,48.8614258197164 407.8600000000001,55.171425819716404 C 399.16000000000014,65.9314258197164 389.8000000000001,73.3914258197164 382.79000000000013,85.45142581971638 C 374.0600000000001,74.10142581971638 364.91000000000014,57.55142581971637 353.3100000000001,50.06142581971639 C 351.9600000000001,51.1414258197164 350.4600000000001,51.25142581971639 348.8200000000001,50.401425819716394 C 346.3400000000001,47.631425819716384 343.8300000000001,44.901425819716394 341.29000000000013,42.191425819716386 C 336.8100000000001,37.421425819716376 332.0000000000001,30.8014258197164 326.14000000000016,27.661425819716385 C 323.38000000000017,26.181425819716395 321.33000000000015,25.411425819716385 319.46000000000015,24.581425819716372 C 319.66000000000014,24.841425819716363 319.83000000000015,25.151425819716366 319.72000000000014,25.461425819716368 C 319.54000000000013,25.54142581971638 319.45000000000016,25.32142581971638 319.3600000000001,25.161425819716357 C 319.1900000000001,24.931425819716367 319.23000000000013,24.671425819716347 319.16000000000014,24.441425819716358 C 316.63000000000017,23.30142581971637 314.38000000000017,21.95142581971635 311.13000000000017,18.391425819716346 C 308.03000000000014,15.01142581971635 300.78000000000014,1.531425819716361 296.91000000000014,0.24142581971634058 C 288.5000000000001,-2.5685741802836617 279.45000000000016,19.94142581971633 274.0000000000001,26.71142581971634 C 265.6300000000001,37.111425819716345 258.1800000000001,45.70142581971635 251.1500000000001,57.05142581971634 C 244.4600000000001,67.84142581971633 235.3300000000001,67.38142581971636 226.6500000000001,74.72142581971636 C 209.4000000000001,89.31142581971633 199.42000000000007,113.51142581971638 184.4400000000001,130.43142581971634 C 179.8800000000001,126.89142581971632 176.91000000000008,120.94142581971633 171.8300000000001,118.09142581971636 C 166.85000000000014,115.29142581971635 164.7700000000001,115.93142581971634 160.4400000000001,111.13142581971638 C 158.81000000000012,109.32142581971638 155.9500000000001,104.2314258197164 153.66000000000014,103.4314258197164 C 150.48000000000013,102.33142581971637 149.42000000000013,104.75142581971639 147.90000000000015,104.38142581971638 C 147.41000000000014,104.26142581971638 146.96000000000015,105.9814258197164 145.77000000000015,105.62142581971639 C 143.10000000000014,104.81142581971639 140.49000000000012,100.9214258197164 138.48000000000013,98.8614258197164 C 133.31000000000017,93.57142581971638 131.63000000000017,88.81142581971639 124.76000000000015,93.13142581971638 C 121.30000000000014,95.3014258197164 118.13000000000015,102.32142581971638 115.93000000000013,105.57142581971638 C 112.01000000000015,111.3614258197164 109.61000000000014,115.90142581971637 103.57000000000012,119.3614258197164 C 97.10000000000012,123.07142581971638 94.49000000000011,122.70142581971638 91.87000000000013,130.70142581971638 C 88.20000000000014,141.9414258197164 81.94000000000013,147.39142581971637 71.13000000000012,153.1114258197164 C 62.660000000000124,157.59142581971642 58.51000000000012,158.8714258197164 51.86000000000013,167.14142581971637 C 33.89000000000013,189.48142581971635 16.980000000000118,212.65142581971637 1.2789769243681803e-13,235.73142581971635 L 2.790000000000134,235.73142581971635 C 3.1100000000001273,235.63142581971633 3.4100000000001387,235.51142581971632 3.750000000000128,235.43142581971634 C 11.380000000000123,233.43142581971634 18.39000000000013,231.26142581971632 25.230000000000132,228.62142581971634 C 22.740000000000137,229.44142581971633 13.530000000000129,231.32142581971632 12.610000000000127,230.12142581971634 C 10.190000000000126,226.95142581971632 47.160000000000124,183.80142581971634 50.00000000000013,180.21142581971637 C 52.42000000000013,177.16142581971636 64.03000000000013,153.51142581971638 67.32000000000012,167.51142581971638 C 69.35000000000012,176.13142581971638 53.18000000000012,192.53142581971636 48.770000000000124,198.60142581971635 C 48.36000000000013,199.24142581971634 47.95000000000013,199.88142581971633 47.54000000000012,200.52142581971637 C 48.86000000000011,198.91142581971636 63.50000000000013,189.42142581971635 62.890000000000114,187.98142581971635 C 64.45000000000012,192.27142581971637 52.84000000000012,209.77142581971637 50.22000000000011,213.75142581971633 C 49.77000000000011,214.43142581971634 48.19000000000011,216.43142581971634 46.290000000000106,218.6514258197163 C 50.5300000000001,216.3414258197163 54.71000000000011,214.4814258197163 58.96000000000011,213.0514258197163 C 59.170000000000115,211.3014258197163 59.26000000000012,209.82142581971627 59.2800000000001,209.69142581971627 C 59.6900000000001,207.22142581971625 65.29000000000009,199.40142581971625 64.8400000000001,197.13142581971627 C 65.29000000000009,199.4214258197163 65.46000000000011,207.37142581971628 68.82000000000009,207.84142581971625 C 68.55000000000008,208.05142581971623 68.2800000000001,209.23142581971624 68.0600000000001,210.62142581971622 C 72.21000000000011,209.79142581971624 76.51000000000009,209.28142581971625 81.0900000000001,209.09142581971625 C 82.26000000000009,209.04142581971624 83.3700000000001,208.89142581971626 84.5000000000001,208.78142581971625 C 85.8100000000001,207.07142581971627 87.1500000000001,205.30142581971623 86.9400000000001,204.26142581971627 C 87.1000000000001,205.08142581971626 87.23000000000009,206.77142581971626 87.54000000000009,208.47142581971625 C 101.24000000000008,206.47142581971625 112.43000000000008,200.16142581971624 124.45000000000009,192.46142581971625 C 125.83000000000008,191.57142581971627 127.2200000000001,190.71142581971625 128.61000000000007,189.86142581971623 C 129.5300000000001,187.97142581971625 130.29000000000008,186.3814258197162 130.24000000000007,186.11142581971623 C 130.36000000000007,186.7014258197162 130.4600000000001,187.61142581971623 130.5800000000001,188.66142581971624 C 139.1400000000001,183.46142581971625 147.5700000000001,178.42142581971623 154.11000000000007,170.47142581971625 C 154.5200000000001,169.97142581971625 155.0300000000001,169.58142581971626 155.5200000000001,169.17142581971623 C 156.06000000000006,166.61142581971623 156.68000000000006,164.72142581971625 157.17000000000007,166.25142581971622 C 160.8200000000001,163.06142581971622 159.5200000000001,145.86142581971623 167.87000000000006,149.6314258197162 C 167.85000000000008,149.6314258197162 168.0300000000001,150.24142581971623 168.31000000000006,151.18142581971622 L 168.31000000000006,151.1414258197162 C 168.36000000000007,151.2014258197162 168.48000000000008,151.35142581971618 168.63000000000005,151.3314258197162 L 168.6500000000001,151.18142581971622 C 168.6500000000001,151.18142581971622 168.81000000000006,151.65142581971625 168.97000000000008,151.34142581971625 C 169.07000000000005,151.66142581971624 169.42000000000007,151.95142581971626 169.2800000000001,152.30142581971623 C 169.31000000000006,152.3214258197162 169.32000000000005,152.3814258197162 169.37000000000006,152.37142581971622 L 169.37000000000006,152.22142581971625 C 169.5300000000001,152.36142581971623 169.81000000000006,152.46142581971625 169.85000000000008,152.71142581971625 C 169.8400000000001,152.77142581971626 169.81000000000006,152.86142581971623 169.73000000000008,152.86142581971623 C 169.24000000000007,152.86142581971623 169.37000000000006,152.05142581971623 168.75000000000006,152.28142581971625 C 168.70000000000005,152.26142581971627 168.6500000000001,152.21142581971625 168.60000000000008,152.17142581971623 C 169.7800000000001,156.11142581971623 171.95000000000005,163.2614258197162 171.95000000000005,163.25142581971622 C 171.85000000000008,165.19142581971622 171.05000000000007,165.61142581971623 170.40000000000003,167.42142581971623 C 170.99000000000007,167.67142581971623 171.53000000000003,168.00142581971622 172.06000000000006,168.33142581971626 C 172.04000000000002,168.3014258197163 172.02000000000004,168.28142581971625 172.00000000000006,168.25142581971627 C 171.96000000000004,168.1014258197163 172.23000000000002,167.89142581971626 172.35000000000002,168.1014258197163 C 172.45000000000005,168.2114258197163 172.43000000000006,168.4214258197163 172.24,168.45142581971632 C 172.44,168.58142581971632 172.68,168.6614258197163 172.87,168.80142581971634 L 173.79000000000002,168.80142581971634 C 174.89,168.74142581971634 174.92000000000002,169.30142581971634 174.42000000000002,170.17142581971635 C 174.51999999999998,170.28142581971636 174.66000000000003,170.36142581971635 174.76,170.47142581971636 C 176.88,172.93142581971634 178.93,175.47142581971636 180.93,178.05142581971634 C 185.07999999999998,179.33142581971632 189.2,180.94142581971633 193.29999999999995,182.59142581971636 C 196.45999999999998,181.11142581971635 200.11999999999995,180.65142581971637 203.39999999999998,181.53142581971636 C 203.34999999999997,181.43142581971634 203.44,181.2514258197164 203.58999999999997,181.35142581971635 C 203.69,181.39142581971637 203.73999999999995,181.51142581971638 203.65999999999997,181.59142581971636 C 204.79999999999995,181.93142581971634 205.89,182.43142581971634 206.89999999999998,183.11142581971635 C 209.85999999999996,185.15142581971637 211.91999999999996,187.65142581971637 213.69,190.29142581971635 C 216.45999999999998,191.30142581971634 219.21999999999997,192.36142581971635 221.92000000000002,193.53142581971636 C 222.82,193.0014258197164 223.90000000000003,192.60142581971635 224.21000000000004,191.7514258197164 C 225.09000000000003,189.3614258197164 229.65000000000003,180.4814258197164 229.54000000000002,179.9314258197164 C 230.17000000000002,183.15142581971642 230.42000000000002,194.34142581971642 235.14000000000004,195.0014258197164 C 233.73000000000002,196.1214258197164 233.12000000000006,197.89142581971637 233.07000000000005,199.71142581971637 C 237.70000000000005,203.47142581971636 240.91000000000003,208.92142581971635 244.96000000000004,212.9314258197164 C 247.76000000000005,211.6814258197164 250.47000000000003,210.2414258197164 253.14000000000004,208.64142581971637 C 253.14000000000004,208.3614258197164 252.81000000000006,208.0614258197164 252.87000000000006,207.83142581971637 C 252.77000000000004,207.5514258197164 253.7800000000001,207.0514258197164 253.11000000000007,206.38142581971638 C 253.00000000000006,205.97142581971636 254.2800000000001,206.21142581971637 253.86000000000007,205.4414258197164 L 253.6500000000001,205.09142581971636 C 254.0700000000001,204.9414258197164 253.9500000000001,205.71142581971637 254.37000000000012,205.40142581971637 C 254.6300000000001,205.05142581971634 254.18000000000012,205.02142581971637 254.17000000000013,204.72142581971636 C 254.28000000000014,204.79142581971635 254.85000000000014,205.6914258197164 255.21000000000015,204.90142581971637 L 255.18000000000018,204.18142581971634 C 255.38000000000017,204.35142581971635 255.57000000000016,204.65142581971637 255.83000000000015,204.76142581971632 C 256.38000000000017,204.73142581971635 255.84000000000015,204.05142581971634 256.17000000000013,204.2214258197163 C 256.2400000000001,204.44142581971633 256.2000000000001,204.7714258197163 256.5500000000001,204.7314258197163 L 257.1100000000001,204.1614258197163 C 257.0100000000001,204.7214258197163 257.8700000000001,204.6514258197163 257.8700000000001,205.1514258197163 C 257.9500000000001,205.3514258197163 258.04000000000013,205.4114258197163 258.1400000000001,205.43142581971628 C 263.0600000000001,202.0414258197163 267.8600000000001,198.0914258197163 272.7400000000001,193.63142581971627 C 280.9300000000001,186.13142581971627 288.6400000000001,178.8614258197163 299.34000000000015,175.1714258197163 C 308.29000000000013,172.08142581971632 315.46000000000015,168.19142581971627 323.29000000000013,163.88142581971627 C 323.77000000000015,160.52142581971626 325.20000000000016,157.74142581971628 327.3000000000001,155.70142581971626 C 328.48000000000013,151.31142581971628 330.22000000000014,147.70142581971626 334.5100000000001,149.64142581971626 C 334.4900000000001,149.64142581971626 334.7500000000001,150.52142581971626 335.1400000000001,151.84142581971625 C 338.3400000000001,151.31142581971628 341.8000000000001,151.73142581971624 345.0600000000001,153.26142581971627 C 351.0800000000001,156.08142581971626 355.9400000000001,161.04142581971624 360.3200000000001,166.47142581971625 C 363.6600000000001,164.53142581971625 366.8200000000001,161.98142581971624 370.1900000000001,160.17142581971623 C 371.4900000000001,159.48142581971624 372.8300000000001,158.8814258197162 374.1900000000001,158.37142581971622 C 374.3800000000001,157.75142581971622 374.5300000000001,157.0114258197162 374.6400000000001,156.03142581971625 C 374.5400000000001,156.89142581971626 374.2300000000001,143.16142581971624 376.1800000000001,149.26142581971627 C 380.0000000000001,145.9214258197163 383.17000000000013,116.60142581971624 390.4300000000001,133.14142581971626 C 390.91000000000014,134.24142581971628 392.4900000000001,138.94142581971627 393.4900000000001,142.28142581971625 C 393.5200000000001,142.30142581971623 393.5500000000001,142.31142581971622 393.5800000000001,142.35142581971624 C 393.6600000000001,142.50142581971622 393.7700000000001,142.67142581971623 393.6900000000001,142.83142581971626 C 393.67000000000013,142.84142581971625 393.66000000000014,142.83142581971626 393.6500000000001,142.83142581971626 C 394.0400000000001,144.16142581971624 394.3100000000001,145.21142581971625 394.3300000000001,145.59142581971625 C 394.5500000000001,149.45142581971626 392.8300000000001,148.32142581971627 391.9600000000001,152.36142581971623 L 395.61000000000007,152.40142581971625 C 395.5400000000001,152.38142581971627 395.4700000000001,152.34142581971625 395.39000000000004,152.31142581971628 C 395.39000000000004,152.18142581971628 395.35,151.9714258197163 395.53000000000003,151.93142581971628 C 395.69000000000005,151.8514258197163 395.82000000000005,151.88142581971627 395.91,152.0414258197163 C 396.07000000000005,152.1514258197163 395.86,152.26142581971632 395.88000000000005,152.37142581971628 C 395.8500000000001,152.39142581971626 395.82000000000005,152.39142581971626 395.7900000000001,152.40142581971625 L 396.61000000000007,152.40142581971625 C 399.45000000000005,152.22142581971625 396.57000000000005,155.43142581971622 393.76000000000005,158.44142581971627 C 397.78000000000003,160.4814258197163 401.06000000000006,164.09142581971625 402.87000000000006,169.6614258197163 C 404.30000000000007,174.07142581971632 404.4200000000001,177.18142581971628 405.56000000000006,180.5314258197163 C 407.45000000000005,180.37142581971628 408.4700000000001,181.00142581971633 406.74000000000007,183.2914258197163 C 407.1700000000001,184.12142581971628 407.6600000000001,184.9814258197163 408.30000000000007,185.9014258197163 C 409.36000000000007,187.4214258197163 410.32000000000005,189.0514258197163 411.26000000000005,190.7114258197163 C 414.2300000000001,188.5314258197163 417.29,186.4714258197163 420.53000000000003,184.6714258197163 C 420.92,184.4614258197163 421.31,184.2914258197163 421.70000000000005,184.0914258197163 C 421.6700000000001,184.0214258197163 421.62000000000006,183.95142581971632 421.62000000000006,183.88142581971633 C 421.70000000000005,183.9014258197163 421.82000000000005,184.07142581971632 421.90000000000003,183.92142581971635 L 422.07000000000005,183.67142581971635 C 422.01000000000005,183.65142581971637 422.00000000000006,183.59142581971636 422.00000000000006,183.52142581971637 L 422.31000000000006,183.65142581971637 C 422.45000000000005,183.45142581971638 422.1000000000001,183.35142581971635 422.20000000000005,183.18142581971634 C 422.34000000000003,183.60142581971635 422.58000000000004,183.24142581971634 422.80000000000007,183.49142581971634 C 422.82000000000005,183.46142581971637 422.86000000000007,183.44142581971633 422.83000000000004,183.40142581971637 C 422.87000000000006,183.40142581971637 422.92,183.4414258197164 422.97,183.47142581971636 C 423.44000000000005,183.25142581971633 423.90000000000003,182.99142581971634 424.37,182.78142581971636 C 425.11,181.12142581971634 425.69,179.87142581971634 425.7,179.95142581971638 C 425.8,180.47142581971636 425.89,181.21142581971637 426.0,182.0614258197164 C 427.36,181.4814258197164 428.73,180.9214258197164 430.07,180.3614258197164 C 432.34999999999997,178.51142581971638 434.92,177.15142581971642 437.29,175.4414258197164 L 437.01000000000005,175.4414258197164 C 436.93000000000006,175.2914258197164 436.77000000000004,175.22142581971636 436.59000000000003,175.09142581971636 C 436.48,175.33142581971637 436.27000000000004,175.59142581971636 436.03000000000003,175.67142581971635 C 435.58000000000004,175.86142581971635 435.53000000000003,175.37142581971634 435.22,175.26142581971632 C 435.33000000000004,175.06142581971633 435.21000000000004,174.82142581971632 435.11,174.6514258197163 L 435.03000000000003,174.5514258197163 C 435.39000000000004,174.7214258197163 435.26000000000005,174.1514258197163 435.33000000000004,173.93142581971628 L 435.33000000000004,173.7914258197163 C 435.41,173.87142581971628 435.39000000000004,174.0314258197163 435.53000000000003,174.0214258197163 L 435.53000000000003,173.68142581971634 C 435.54,173.74142581971634 435.54,173.82142581971632 435.63000000000005,173.88142581971633 L 435.76000000000005,173.7814258197163 C 435.74000000000007,173.8614258197163 435.82000000000005,173.88142581971633 435.86000000000007,173.9214258197163 C 435.9200000000001,173.94142581971627 435.9600000000001,173.8614258197163 435.99000000000007,173.82142581971627 L 436.0900000000001,173.9814258197163 C 436.2100000000001,173.8614258197163 436.2200000000001,173.7214258197163 436.4200000000001,173.7814258197163 L 436.49000000000007,173.31142581971628 L 436.5900000000001,173.45142581971626 C 436.6700000000001,173.39142581971626 436.7000000000001,173.31142581971628 436.68000000000006,173.21142581971625 L 436.64000000000004,173.17142581971623 L 436.78000000000003,173.27142581971626 L 436.81,172.94142581971627 C 436.97,172.9814258197163 437.04,173.43142581971628 437.25,173.1714258197163 L 437.25,173.07142581971627 C 437.29,173.21142581971625 437.43,173.28142581971625 437.53,173.40142581971625 C 437.58,173.35142581971624 437.60999999999996,173.30142581971623 437.60999999999996,173.24142581971623 C 437.63999999999993,173.3314258197162 437.63999999999993,173.48142581971624 437.81999999999994,173.40142581971625 L 437.85999999999996,173.34142581971625 C 437.80999999999995,173.77142581971626 438.19999999999993,173.84142581971625 438.15,174.23142581971624 C 438.33,174.37142581971622 438.32,174.54142581971624 438.28,174.70142581971626 C 439.23999999999995,173.94142581971627 440.15999999999997,173.10142581971624 440.98999999999995,172.12142581971628 C 446.45,165.65142581971625 447.2799999999999,154.43142581971628 450.2699999999999,146.68142581971628 C 453.34,138.75142581971627 457.4399999999999,131.74142581971628 463.98999999999995,126.19142581971627 C 469.57,121.46142581971625 479.32,119.78142581971625 484.6699999999999,126.19142581971627 C 488.13999999999993,130.3514258197163 491.6599999999999,134.37142581971628 495.1699999999999,138.43142581971628 L 495.3099999999999,138.46142581971625 L 495.2899999999999,138.13142581971627 C 495.70999999999987,138.38142581971627 496.21999999999986,138.4814258197163 496.5199999999999,138.99142581971628 C 496.6699999999999,139.3014258197163 496.4499999999999,139.51142581971627 496.1899999999999,139.6114258197163 C 497.0399999999999,140.5914258197163 497.88999999999993,141.57142581971627 498.73999999999984,142.56142581971628 C 501.96999999999986,146.37142581971628 503.20999999999987,150.64142581971626 504.9099999999998,154.96142581971625 C 504.98999999999984,154.91142581971624 505.06999999999977,154.85142581971624 505.1499999999998,154.83142581971626 L 505.1499999999998,154.62142581971628 C 505.60999999999984,154.77142581971626 506.3799999999998,154.5514258197163 506.85999999999984,155.18142581971628 C 507.1899999999999,155.51142581971627 507.1899999999999,155.8614258197163 507.34999999999985,156.3414258197163 C 506.95999999999987,157.00142581971633 506.45999999999987,157.01142581971632 505.7899999999999,156.99142581971628 C 505.7799999999999,156.95142581971626 505.73999999999995,156.9214258197163 505.70999999999987,156.89142581971626 C 505.95999999999987,157.46142581971625 506.20999999999987,158.03142581971625 506.49999999999983,158.60142581971624 C 508.32999999999987,162.27142581971626 511.1699999999998,165.28142581971625 513.7299999999999,168.52142581971626 C 513.9399999999999,168.56142581971628 514.1599999999999,168.59142581971625 514.3599999999999,168.75142581971627 L 514.3299999999999,168.50142581971627 C 514.67,168.71142581971625 514.93,169.14142581971626 515.2399999999999,169.44142581971627 C 515.3999999999999,168.87142581971628 515.7699999999999,169.95142581971626 516.0399999999998,169.59142581971625 C 515.9499999999998,169.98142581971624 516.0599999999998,170.35142581971624 516.3299999999998,170.35142581971624 C 516.4199999999998,170.82142581971627 516.4399999999998,171.46142581971625 516.1699999999998,171.91142581971624 C 519.7999999999998,177.61142581971623 521.2299999999998,184.64142581971626 525.4099999999999,189.97142581971625 C 529.3099999999998,194.94142581971627 535.5999999999999,197.84142581971625 540.5999999999999,201.53142581971625 C 546.2499999999999,205.70142581971626 551.1899999999999,210.44142581971627 555.8899999999999,215.58142581971626 C 557.3099999999998,214.24142581971628 558.4899999999999,209.87142581971628 558.5999999999999,208.41142581971624 C 558.7099999999999,206.86142581971623 556.4599999999999,205.18142581971622 556.7799999999999,203.70142581971626 C 557.0499999999998,202.43142581971628 559.3299999999998,202.23142581971624 559.6199999999999,201.14142581971626 C 560.1999999999999,199.04142581971624 564.0299999999999,192.25142581971627 563.9099999999999,191.64142581971626 C 564.4199999999998,194.23142581971624 564.6099999999999,203.22142581971625 568.4099999999999,203.75142581971627 C 565.4199999999998,206.13142581971627 566.4499999999998,213.00142581971627 570.3199999999998,213.26142581971627 C 569.8599999999998,214.99142581971628 569.3899999999999,216.72142581971625 568.9299999999998,218.45142581971626 C 571.3099999999998,218.34142581971625 572.5899999999998,218.37142581971628 571.1599999999999,221.10142581971624 C 572.4499999999998,221.24142581971623 573.7399999999999,221.37142581971622 575.0199999999999,221.53142581971625 C 575.4599999999999,221.55142581971623 575.8999999999999,221.50142581971627 576.3399999999999,221.56142581971622 C 576.4399999999999,221.5914258197162 576.42,221.67142581971623 576.4499999999999,221.74142581971623 C 587.68,223.29142581971624 598.3799999999999,226.0114258197162 608.39,230.3214258197162 C 603.63,224.31142581971622 598.91,218.2614258197162 594.43,212.0314258197162 L 594.4900000000001,212.01142581971632 M 120.19000000000007,154.68142581971634 C 117.52000000000008,160.58142581971632 119.95000000000006,159.10142581971635 120.21000000000008,165.13142581971633 C 120.42000000000009,169.87142581971634 116.21000000000008,171.3414258197163 121.12000000000008,173.29142581971635 C 124.38000000000007,174.58142581971637 127.18000000000008,166.18142581971634 128.97000000000008,173.29142581971635 C 130.44000000000005,179.11142581971635 106.18000000000008,201.56142581971633 101.33000000000006,203.22142581971636 C 95.27000000000005,205.29142581971635 77.99000000000005,199.57142581971638 76.84000000000005,193.10142581971635 C 76.54000000000003,191.42142581971635 86.83000000000006,171.19142581971633 84.72000000000004,172.65142581971637 C 80.60000000000004,174.86142581971635 74.69000000000004,180.79142581971635 68.88000000000004,183.5614258197164 C 68.03000000000004,183.76142581971638 78.91000000000004,161.65142581971637 80.46000000000005,161.40142581971637 C 77.82000000000006,161.04142581971635 76.75000000000004,164.71142581971637 73.96000000000005,162.9414258197164 C 71.28000000000004,161.2414258197164 80.19000000000004,154.5014258197164 80.77000000000005,153.96142581971637 C 84.82000000000006,150.26142581971638 89.75000000000004,147.02142581971637 92.82000000000006,142.3714258197164 C 95.58000000000006,138.20142581971638 95.45000000000006,133.09142581971642 98.11000000000006,129.0014258197164 C 102.10000000000007,122.85142581971641 108.43000000000005,122.62142581971639 109.13000000000007,129.89142581971637 C 109.78000000000007,136.5514258197164 100.59000000000007,141.3614258197164 101.40000000000008,148.08142581971637 C 101.96000000000008,151.77142581971637 108.69000000000007,141.54142581971635 109.36000000000008,140.39142581971637 C 113.53000000000007,133.26142581971638 116.55000000000008,125.21142581971637 120.01000000000009,117.73142581971635 C 122.70000000000009,113.07142581971632 116.23000000000009,119.69142581971633 115.6900000000001,118.82142581971632 C 114.1000000000001,116.20142581971632 116.58000000000008,113.95142581971632 119.1500000000001,110.20142581971632 C 120.95000000000012,107.57142581971632 125.80000000000011,98.13142581971633 129.10000000000008,98.62142581971634 C 135.55000000000007,99.57142581971632 131.16000000000008,108.54142581971635 130.16000000000008,111.38142581971633 C 128.17000000000007,117.06142581971633 124.23000000000009,122.5914258197163 127.4000000000001,128.23142581971635 C 130.5900000000001,133.92142581971635 134.8300000000001,130.76142581971632 132.68000000000012,138.72142581971636 C 131.0200000000001,144.84142581971636 122.7800000000001,148.97142581971636 120.1800000000001,154.70142581971638 L 120.19000000000007,154.68142581971634 M 291.99000000000007,99.93142581971634 C 288.39000000000004,104.95142581971632 283.76000000000005,109.36142581971635 279.61000000000007,113.92142581971635 C 278.45000000000005,115.19142581971633 261.6500000000001,133.09142581971636 266.63000000000005,133.79142581971635 C 271.49000000000007,135.54142581971635 275.30000000000007,126.40142581971637 278.80000000000007,133.73142581971635 C 279.5300000000001,135.26142581971632 279.25000000000006,137.07142581971632 278.49000000000007,138.89142581971637 L 278.94000000000005,138.65142581971637 C 279.14000000000004,138.70142581971638 277.9200000000001,140.07142581971638 279.13000000000005,139.91142581971636 C 278.39000000000004,140.85142581971635 278.28000000000003,142.46142581971637 276.99000000000007,142.76142581971638 C 276.99000000000007,142.89142581971637 276.83000000000004,143.0614258197164 276.9700000000001,143.1814258197164 L 277.3900000000001,142.8714258197164 C 277.3200000000001,143.65142581971637 277.6100000000001,144.64142581971637 276.9500000000001,145.27142581971637 C 276.7600000000001,145.35142581971635 276.4400000000001,145.47142581971636 276.2900000000001,145.23142581971635 C 275.5300000000001,144.17142581971635 276.7700000000001,143.21142581971637 276.68000000000006,142.24142581971634 C 275.3500000000001,144.28142581971636 273.81000000000006,146.14142581971632 272.89000000000004,147.46142581971637 C 270.96000000000004,150.21142581971637 250.94000000000005,170.22142581971636 257.41,171.63142581971638 C 257.92,171.72142581971636 258.43,171.8014258197164 258.92,171.8714258197164 C 258.95,171.8014258197164 258.97,171.72142581971642 259.05,171.6614258197164 C 259.14,171.7914258197164 259.24,171.8714258197164 259.33,171.9214258197164 C 259.46,171.9414258197164 259.59999999999997,171.95142581971638 259.72999999999996,171.97142581971642 C 259.91999999999996,171.9114258197164 260.10999999999996,171.76142581971644 260.28,171.59142581971642 L 260.52,170.65142581971642 C 260.40999999999997,171.08142581971643 260.56,171.6614258197164 261.01,171.87142581971645 C 261.59,172.22142581971647 261.38,171.38142581971644 261.67,171.24142581971645 C 261.82,171.49142581971645 261.29,171.77142581971643 261.67,172.04142581971647 C 261.91,171.93142581971645 262.2,171.59142581971648 262.09000000000003,171.23142581971646 L 262.11,171.1414258197165 C 262.24,171.4314258197165 262.11,171.85142581971647 262.09000000000003,172.2414258197165 C 267.92,172.8114258197165 270.95000000000005,173.0514258197165 264.92,181.0114258197165 C 263.84000000000003,182.4414258197165 262.05,184.7414258197165 259.91,187.2514258197165 C 259.95000000000005,187.28142581971647 259.98,187.3014258197165 260.0,187.34142581971648 C 259.82,187.8814258197165 259.74,188.7014258197165 259.15,188.72142581971647 L 258.79999999999995,188.54142581971647 C 254.27999999999997,193.69142581971644 248.61999999999995,199.19142581971644 244.66999999999996,199.66142581971647 C 244.71999999999997,199.78142581971647 244.78999999999996,199.90142581971648 244.85999999999996,200.02142581971648 C 244.92999999999995,200.04142581971647 245.05999999999995,200.0714258197165 245.15999999999997,199.97142581971647 C 245.01,200.23142581971646 245.15999999999997,200.43142581971645 245.18999999999994,200.6914258197165 L 245.59999999999997,200.5814258197165 C 245.18999999999994,201.53142581971647 245.43999999999994,203.35142581971647 243.82,203.65142581971648 L 242.38,203.0814258197165 L 242.48000000000002,203.02142581971648 C 241.84000000000003,202.5614258197165 241.95000000000005,201.97142581971647 241.49,201.47142581971647 L 241.29000000000002,201.42142581971646 L 241.77000000000004,201.04142581971647 C 241.55,200.74142581971645 241.95000000000005,200.96142581971648 241.98000000000002,200.68142581971645 L 241.78000000000003,199.83142581971643 C 241.94000000000005,199.83142581971643 241.94000000000005,200.00142581971645 242.00000000000006,200.09142581971642 C 242.30000000000007,200.0414258197164 242.24000000000007,199.84142581971642 242.19000000000005,199.6614258197164 C 234.68000000000006,198.84142581971642 246.19000000000005,190.02142581971643 246.79000000000008,185.46142581971642 C 248.0300000000001,176.1614258197164 239.68000000000006,179.4114258197164 235.24000000000007,174.46142581971642 C 228.7800000000001,167.26142581971644 237.7800000000001,162.3014258197164 240.66000000000008,155.97142581971642 C 245.55000000000007,145.22142581971642 238.17000000000007,140.7314258197164 228.29000000000008,144.8614258197164 C 222.92000000000007,147.1014258197164 211.36000000000007,163.47142581971642 205.51000000000005,162.6114258197164 C 195.65000000000003,161.1714258197164 207.98000000000008,148.7914258197164 209.21000000000004,145.63142581971638 C 217.26000000000005,124.95142581971638 189.95000000000005,148.45142581971638 187.18,142.4214258197164 C 184.35000000000002,136.28142581971642 199.38,121.38142581971638 202.59000000000003,117.2414258197164 C 211.50000000000006,105.76142581971638 221.35000000000002,82.9814258197164 234.26000000000005,76.4314258197164 C 236.22000000000003,75.44142581971639 239.11000000000007,77.2414258197164 241.56000000000006,75.84142581971639 C 245.02000000000004,73.8614258197164 247.49000000000007,69.97142581971639 250.13000000000005,66.9814258197164 C 250.59000000000003,66.4614258197164 263.21000000000004,52.451425819716405 262.00000000000006,51.35142581971641 C 269.21000000000004,57.90142581971642 237.22000000000008,89.5514258197164 239.25000000000006,90.29142581971641 C 240.80000000000007,90.85142581971641 243.58000000000004,86.22142581971642 243.78000000000003,90.10142581971641 C 243.97000000000003,93.78142581971642 239.37,97.1814258197164 237.12,99.84142581971642 C 232.18,105.6814258197164 218.64,114.6814258197164 217.36,122.88142581971644 C 216.40000000000003,126.75142581971645 226.89,116.68142581971645 228.45,115.01142581971644 C 233.53999999999996,109.53142581971642 251.57,94.01142581971644 252.36,87.10142581971641 C 251.52000000000004,86.31142581971639 250.5,85.96142581971642 249.32,86.06142581971639 C 247.86,84.08142581971637 265.49,63.661425819716385 267.45,60.87142581971639 C 269.58,57.85142581971638 273.15,54.211425819716396 273.8,50.461425819716396 C 274.62,45.76142581971641 271.18,42.411425819716385 272.68,38.441425819716386 C 275.26,31.631425819716384 285.72,21.951425819716377 290.23,15.701425819716377 C 295.26,8.171425819716376 297.22,29.79142581971638 295.86,32.93142581971637 C 293.8,37.651425819716366 280.96000000000004,43.23142581971638 283.31,49.611425819716374 C 286.27,57.641425819716375 294.26,50.611425819716374 287.28000000000003,63.29142581971638 C 282.14000000000004,72.63142581971638 273.92,81.35142581971635 267.00000000000006,89.4214258197164 C 262.75000000000006,95.50142581971639 275.56000000000006,94.3014258197164 266.58000000000004,104.2414258197164 C 265.45000000000005,105.50142581971639 253.22000000000003,116.79142581971641 255.93000000000006,118.50142581971639 C 257.37000000000006,118.64142581971637 258.70000000000005,118.25142581971639 259.9100000000001,117.32142581971638 C 269.9800000000001,109.77142581971637 279.4700000000001,101.45142581971638 288.2800000000001,92.46142581971637 C 288.2700000000001,92.35142581971635 288.2600000000001,92.24142581971634 288.18000000000006,92.13142581971638 L 288.5300000000001,91.50142581971639 L 288.6400000000001,91.69142581971639 C 288.7500000000001,91.38142581971638 288.8900000000001,91.69142581971639 289.0200000000001,91.7314258197164 C 291.2200000000001,89.50142581971639 292.6800000000001,88.71142581971642 293.5900000000001,88.82142581971638 C 293.6400000000001,88.84142581971636 293.6900000000001,88.8614258197164 293.7600000000001,88.87142581971639 C 293.7800000000001,88.87142581971639 293.8000000000001,88.87142581971639 293.8100000000001,88.87142581971639 C 296.04000000000013,89.60142581971641 294.22000000000014,96.82142581971638 291.98000000000013,99.95142581971638 L 291.99000000000007,99.93142581971634 M 425.02000000000004,155.04142581971635 C 415.07000000000005,141.18142581971634 407.71000000000004,125.02142581971637 399.73,110.01142581971632 C 396.99,104.8514258197163 388.92,96.18142581971634 387.97,91.02142581971631 C 386.94000000000005,85.45142581971632 392.58000000000004,78.52142581971631 396.94000000000005,74.52142581971631 C 397.07000000000005,74.39142581971632 397.3500000000001,74.13142581971633 397.9100000000001,73.6614258197163 C 398.5400000000001,73.24142581971631 398.6700000000001,73.18142581971631 398.56000000000006,73.30142581971629 C 400.1000000000001,72.64142581971629 398.37000000000006,75.59142581971628 398.69000000000005,75.86142581971629 C 398.38000000000005,74.77142581971628 425.41,40.90142581971628 428.19000000000005,42.261425819716294 C 431.12000000000006,43.70142581971629 421.50000000000006,58.1314258197163 421.5400000000001,60.301425819716286 C 421.6600000000001,66.61142581971629 425.7300000000001,64.73142581971629 424.1500000000001,70.80142581971629 C 423.3100000000001,74.05142581971629 418.3800000000001,77.13142581971627 416.8100000000001,80.5414258197163 C 413.8000000000001,87.0914258197163 414.5700000000001,87.46142581971631 415.97000000000014,94.56142581971628 C 416.3700000000001,96.6014258197163 415.82000000000016,105.31142581971628 418.85000000000014,104.90142581971625 C 422.52000000000015,104.40142581971625 420.3100000000001,82.50142581971627 425.23000000000013,78.06142581971628 C 430.59000000000015,73.23142581971626 434.77000000000015,75.30142581971629 435.09000000000015,84.96142581971625 C 435.27000000000015,90.29142581971624 431.94000000000017,89.76142581971627 431.46000000000015,94.50142581971627 C 430.70000000000016,102.05142581971629 434.83000000000015,99.28142581971625 436.6800000000002,104.19142581971627 C 438.5600000000002,109.20142581971626 432.3600000000002,120.46142581971625 431.50000000000017,126.2914258197163 C 430.1600000000002,135.39142581971632 429.76000000000016,146.7914258197163 425.02000000000015,155.0214258197163 L 425.02000000000004,155.04142581971635 M 172.09000000000015,168.34142581971636 C 172.14000000000016,168.40142581971637 172.1900000000001,168.45142581971638 172.27000000000015,168.45142581971638 C 172.21000000000015,168.41142581971636 172.15000000000015,168.38142581971638 172.09000000000015,168.34142581971636"/>
</svg>
