<?xml version="1.0" ?>
<svg xmlns="http://www.w3.org/2000/svg" xmlns:ev="http://www.w3.org/2001/xml-events" xmlns:xlink="http://www.w3.org/1999/xlink" baseProfile="full" data-name="Layer 1" height="582" id="Layer_1" transform="scale(0.1718213058419244 0.1718213058419244) translate(-945.0 -291.0)" version="1.1" viewBox="0 0 1890 582" width="1890">
	<defs/>
	<path d="M 1104.8055081664622,42.92660985090026 C 1102.8655081664622,49.11660985090032 1100.8855081664622,55.29660985090027 1099.0055081664623,61.506609850900304 C 1089.1455081664624,94.11660985090032 1072.0055081664623,122.66660985090027 1050.1855081664623,148.5066098509003 C 1027.4855081664623,175.36660985090032 1001.0455081664621,198.5066098509003 976.1855081664622,223.30660985090026 C 973.4755081664622,226.0166098509003 971.0155081664622,228.9866098509002 967.9755081664622,232.30660985090026 C 973.4955081664622,234.08660985090023 977.6255081664623,231.53660985090028 981.8555081664623,230.81660985090025 C 986.0855081664623,230.09660985090022 988.1755081664622,231.2366098509002 988.9555081664622,235.3666098509002 C 996.5355081664621,275.18660985090025 988.5955081664623,310.55660985090026 950.1955081664622,335.06660985090025 C 908.4055081664623,361.7366098509003 865.0255081664623,385.79660985090027 821.6855081664622,409.8766098509002 C 815.0955081664622,413.5366098509003 807.9755081664622,413.8766098509002 800.5755081664622,412.8766098509002 C 796.4755081664622,412.33660985090023 796.4555081664622,410.8766098509002 798.4155081664622,408.0266098509003 C 803.9855081664623,399.96660985090034 809.5955081664622,391.93660985090037 815.0655081664622,383.80660985090026 C 834.9855081664622,354.21660985090034 855.8755081664623,325.2866098509003 874.8255081664622,295.04660985090027 C 878.8255081664622,288.6366098509003 884.5455081664622,283.7766098509003 889.8255081664622,278.57660985090024 C 928.7555081664622,240.22660985090022 963.2755081664623,198.14660985090018 995.3655081664623,154.0166098509003 C 1028.1255081664624,108.95660985090035 1058.1355081664624,62.096609850900336 1086.3655081664624,14.106609850900327 C 1089.5255081664625,8.736609850900322 1093.2755081664625,4.376609850900309 1098.7855081664625,1.2266098509003314 C 1102.5855081664624,-0.9433901490996277 1104.4755081664625,-0.163390149099655 1107.0355081664625,3.006609850900304 C 1129.4155081664626,30.666609850900272 1148.2055081664626,60.71660985090034 1166.8255081664624,90.93660985090037 C 1198.1755081664624,141.81660985090036 1228.3355081664624,193.47660985090033 1261.6555081664624,243.06660985090036 C 1280.1855081664623,270.6466098509004 1300.2455081664623,297.46660985090034 1323.8355081664624,321.06660985090036 C 1340.4755081664625,337.7566098509003 1361.1755081664624,347.1366098509004 1384.5355081664625,350.7666098509003 C 1400.7355081664625,353.2866098509003 1416.8655081664624,353.8966098509004 1433.0555081664625,351.0266098509003 C 1454.4155081664624,347.2466098509003 1470.6155081664624,335.19660985090036 1484.5655081664625,319.3566098509003 C 1494.8755081664624,307.6566098509003 1502.7755081664625,294.3566098509003 1510.4455081664626,280.8966098509003 C 1514.4455081664626,273.8966098509003 1518.7655081664625,267.07660985090024 1526.2255081664625,263.1466098509003 C 1537.5555081664625,257.1466098509003 1548.8255081664624,260.05660985090026 1559.7155081664625,264.1466098509003 C 1577.7155081664625,270.96660985090034 1590.1555081664626,284.3966098509003 1600.7855081664625,299.80660985090026 C 1620.2555081664625,328.04660985090027 1637.5055081664625,357.70660985090035 1656.2755081664625,386.3966098509002 C 1668.7855081664625,405.5266098509003 1683.2755081664625,422.93660985090014 1702.2755081664625,436.1266098509002 C 1722.0655081664625,449.8466098509002 1743.9555081664626,455.31660985090025 1767.8755081664624,453.7866098509003 C 1789.5155081664625,452.40660985090017 1807.5555081664625,460.54660985090027 1823.0955081664624,475.2366098509003 C 1832.5855081664624,484.2366098509003 1839.9555081664623,494.7366098509003 1847.3455081664624,505.3966098509004 Q 1866.9255081664624,533.6566098509004 1887.4255081664624,561.2866098509005 C 1890.9855081664623,566.1066098509004 1890.1655081664624,570.4266098509006 1888.3155081664625,575.0266098509005 C 1886.4655081664625,579.6266098509004 1882.3155081664625,579.3166098509005 1878.3155081664625,579.3166098509005 C 1826.5255081664625,579.3166098509005 1774.7455081664625,578.8266098509005 1722.9655081664625,579.3966098509004 C 1627.4555081664626,580.4566098509003 1531.9655081664625,579.1466098509004 1436.4455081664626,580.1066098509004 C 1339.3655081664626,581.1066098509004 1242.2855081664625,580.3866098509004 1145.2055081664626,580.6266098509004 Q 961.6155081664624,581.0566098509005 778.0355081664624,581.0266098509005 Q 393.51550816646244,581.2466098509005 8.975508166462468,581.2966098509005 C 6.21550816646247,581.2966098509005 1.7955081664624686,583.1166098509004 1.1355081664624649,578.6366098509004 C 0.5255081664624655,574.5466098509005 -1.9144918335375323,569.5266098509005 3.0655081664624646,566.1866098509004 C 30.855508166462464,547.5666098509005 54.365508166462455,523.7366098509003 80.33550816646246,502.9066098509004 C 97.08550816646246,489.46660985090034 114.86550816646246,477.8166098509005 136.33550816646246,473.0266098509003 C 151.15550816646245,469.70660985090035 166.27550816646246,468.8866098509002 181.33550816646246,468.44660985090036 C 203.3355081664625,467.7866098509003 224.3355081664625,462.72660985090033 245.17550816646246,456.36660985090043 C 274.17550816646246,447.50660985090053 302.37550816646245,436.36660985090043 330.69550816646245,425.5466098509005 C 397.42550816646246,399.97660985090056 441.57550816646244,352.5466098509005 468.38550816646244,287.48660985090055 C 469.64550816646243,284.4166098509005 471.23550816646247,281.4066098509005 471.98550816646247,278.2066098509006 C 473.3455081664625,272.4566098509006 476.13550816646244,272.2066098509006 480.98550816646247,274.5466098509006 A 278.23,278.23 0.0 0,1 528.3655081664624,303.9166098509006 C 552.8255081664624,322.7866098509006 574.0455081664624,345.0366098509005 595.2955081664624,367.3166098509007 C 614.7755081664624,387.74660985090077 637.4055081664624,404.25660985090076 662.1755081664624,417.6866098509006 C 691.8755081664624,433.7866098509005 722.5255081664624,436.0166098509005 753.6455081664624,421.97660985090056 C 764.8855081664624,416.89660985090063 775.1155081664624,417.4566098509006 785.2955081664624,424.3166098509005 C 793.4555081664623,429.8166098509005 802.5055081664624,430.4266098509004 812.2955081664624,429.99660985090054 A 491.32,491.32 0.0 0,0 889.1855081664623,420.32660985090047 A 603.88,603.88 0.0 0,0 990.1855081664622,389.9066098509004 C 1005.6455081664623,383.7866098509005 1021.1855081664622,377.7666098509003 1036.7455081664623,372.0266098509003 C 1040.6555081664624,370.5966098509002 1042.1455081664624,368.7566098509003 1041.2355081664623,364.69660985090036 C 1040.1255081664624,359.69660985090036 1039.5755081664622,354.69660985090036 1038.2955081664622,349.69660985090036 C 1033.6655081664621,331.9866098509003 1040.7255081664623,318.32660985090035 1053.9355081664623,307.69660985090036 C 1075.3555081664624,290.5266098509004 1098.6355081664624,275.9066098509004 1121.3555081664624,260.5366098509004 C 1126.5555081664625,257.0266098509004 1131.8155081664625,253.61660985090043 1136.9655081664623,250.0366098509004 C 1142.9655081664623,245.84660985090034 1142.9055081664624,245.19660985090036 1136.8155081664622,241.4066098509004 C 1121.8155081664622,232.07660985090035 1107.0155081664623,222.5266098509004 1091.9055081664621,213.4066098509004 C 1087.4055081664621,210.69660985090036 1086.6355081664622,208.1366098509004 1088.8355081664622,203.49660985090043 C 1093.1055081664622,194.49660985090043 1096.8355081664622,185.19660985090047 1100.8355081664622,176.07660985090047 A 89.79,89.79 0.0 0,1 1112.3255081664622,156.99660985090043 C 1124.8155081664622,141.06660985090048 1132.3255081664622,123.32660985090047 1130.1655081664621,102.60660985090044 A 77.63,77.63 0.0 0,0 1126.3355081664622,85.46660985090045 C 1121.205508166462,70.46660985090045 1112.0755081664622,57.33660985090046 1106.3355081664622,42.57660985090047 L 1104.8055081664622,42.92660985090026 M 1335.4955081664623,499.9266098509004 A 24.27,24.27 0.0 0,0 1339.3355081664622,499.5266098509003 C 1350.3355081664622,495.94660985090036 1361.3355081664622,492.58660985090023 1372.1155081664622,488.5266098509003 C 1375.7755081664623,487.1666098509004 1378.1155081664622,488.0066098509003 1380.5455081664622,490.22660985090033 C 1385.4555081664623,494.7366098509003 1390.6655081664621,498.9866098509003 1395.0455081664622,503.96660985090034 C 1402.3255081664622,512.2466098509003 1411.1555081664621,513.8466098509004 1421.5655081664622,512.5266098509003 C 1447.2055081664623,509.29660985090027 1472.4355081664621,503.79660985090027 1497.8855081664622,499.5266098509003 C 1499.5655081664622,499.2466098509003 1501.8855081664622,499.2466098509003 1502.195508166462,497.18660985090037 C 1502.4255081664621,495.47660985090033 1500.195508166462,495.0066098509003 1498.8955081664622,494.3166098509005 C 1485.8955081664622,487.46660985090057 1472.8955081664622,480.71660985090057 1459.8955081664622,473.9266098509004 C 1453.205508166462,470.4266098509004 1453.1455081664622,470.0166098509003 1456.8955081664622,463.34660985090045 C 1476.2955081664622,429.11660985090043 1495.6255081664622,394.83660985090046 1505.3655081664622,356.23660985090055 A 169.5,169.5 0.0 0,0 1510.7855081664623,323.8866098509005 C 1510.8555081664622,322.59660985090056 1511.4255081664624,320.8866098509005 1509.7855081664623,320.23660985090055 C 1508.1455081664622,319.5866098509006 1507.3755081664622,321.0666098509006 1506.4055081664621,321.96660985090057 C 1503.975508166462,324.22660985090056 1501.495508166462,326.4566098509006 1499.1355081664622,328.7966098509006 Q 1433.8055081664622,393.5266098509003 1368.4055081664621,458.2466098509003 C 1355.9155081664621,470.5266098509003 1344.6655081664621,483.6466098509002 1335.4555081664623,499.9166098509004 L 1335.4955081664623,499.9266098509004 M 321.6655081664622,472.9266098509004 L 322.1755081664622,474.2866098509003 C 327.5955081664622,474.2866098509003 333.0255081664622,474.58660985090023 338.4255081664622,474.2866098509003 C 369.87550816646217,472.2866098509003 401.1455081664622,468.8866098509002 432.00550816646216,462.0166098509003 C 459.58550816646215,455.8766098509002 470.83550816646215,444.58660985090023 475.2755081664622,416.83660985090023 C 477.1555081664622,405.07660985090024 477.82550816646216,393.1266098509002 481.2755081664622,381.6066098509002 C 482.4255081664622,377.79660985090027 483.61550816646223,376.43660985090014 487.7655081664622,377.3866098509002 C 498.7655081664622,379.93660985090014 509.93550816646217,382.04660985090027 521.0455081664621,384.29660985090027 C 522.4955081664622,384.58660985090023 524.3355081664621,385.4266098509004 525.2955081664621,383.7766098509003 C 526.0855081664621,382.4266098509004 524.5655081664621,381.22660985090033 523.8555081664621,380.1766098509004 Q 500.85550816646213,346.0666098509005 477.85550816646213,312.0366098509004 C 477.1155081664621,310.94660985090036 476.58550816646215,309.3866098509004 474.8055081664622,309.8866098509004 C 473.49550816646223,310.2566098509004 473.2655081664622,311.5166098509004 473.0555081664622,312.68660985090037 C 471.60550816646213,320.7966098509004 469.0555081664622,328.58660985090035 466.44550816646216,336.36660985090043 A 174.85,174.85 0.0 0,1 419.93550816646217,409.36660985090043 C 402.26550816646215,426.00660985090053 381.93550816646217,438.86660985090043 360.9955081664622,450.85660985090044 C 347.8655081664622,458.2766098509003 334.7155081664622,465.5266098509003 321.62550816646217,472.94660985090036 L 321.6655081664622,472.9266098509004 M 1112.1855081664623,295.35660985090044 C 1110.2355081664623,299.9066098509004 1108.6455081664624,304.5466098509005 1106.3355081664624,308.7866098509004 C 1104.3355081664624,312.5466098509004 1104.8855081664624,315.31660985090036 1107.6655081664624,318.2466098509004 C 1114.2955081664625,325.2466098509004 1119.4155081664624,333.35660985090044 1124.5255081664623,341.47660985090033 C 1135.1355081664622,358.32660985090024 1143.8555081664622,376.47660985090033 1157.8755081664622,391.0366098509003 C 1166.3055081664622,399.79660985090027 1175.8755081664622,406.68660985090037 1188.0555081664622,409.1066098509002 C 1189.3055081664622,409.3566098509002 1190.7755081664623,410.3466098509002 1191.7655081664623,408.7666098509003 C 1192.4655081664623,407.6366098509002 1191.6555081664624,406.54660985090027 1191.1555081664624,405.47660985090033 C 1188.6755081664624,400.1666098509004 1186.3355081664624,394.7866098509003 1183.7355081664623,389.47660985090033 C 1182.2555081664623,386.47660985090033 1181.8655081664624,383.8466098509002 1183.3855081664624,380.5966098509002 C 1186.0255081664625,374.94660985090013 1187.9355081664623,368.9566098509001 1190.4855081664623,363.2566098509003 C 1191.9555081664623,359.9866098509003 1191.2355081664623,358.2566098509003 1187.9855081664623,357.0166098509003 C 1182.7055081664623,355.0166098509003 1177.5355081664623,352.6266098509002 1172.2455081664623,350.6066098509002 C 1147.5955081664622,341.18660985090014 1127.5255081664623,326.6066098509002 1116.6755081664624,301.6066098509002 C 1115.8055081664622,299.57660985090024 1115.6155081664622,296.9166098509003 1112.1455081664622,295.3766098509003 L 1112.1855081664623,295.35660985090044 M 1582.5055081664623,433.8866098509004 A 19.19,19.19 0.0 0,0 1587.3155081664622,433.20660985090035 C 1589.7755081664623,432.20660985090035 1593.8455081664622,432.9066098509004 1594.4555081664623,430.4266098509004 C 1595.1055081664624,427.7866098509003 1591.4555081664623,426.2666098509003 1589.3655081664624,424.61660985090043 C 1574.5855081664624,412.9066098509004 1561.5355081664625,399.96660985090034 1556.1055081664624,381.07660985090047 C 1554.1055081664624,374.32660985090047 1551.6755081664624,367.72660985090056 1549.3755081664624,361.07660985090047 C 1548.9655081664623,359.9066098509004 1549.2255081664623,357.99660985090054 1547.2955081664625,358.07660985090047 C 1545.6355081664624,358.07660985090047 1545.3555081664624,359.72660985090056 1544.8555081664624,360.99660985090054 C 1541.4355081664623,369.73660985090055 1537.9555081664623,378.4466098509006 1534.5955081664624,387.2066098509006 C 1533.6755081664624,389.60660985090067 1532.9755081664625,392.2066098509006 1535.0555081664625,394.4166098509006 C 1545.9455081664626,405.9266098509006 1555.6255081664624,418.61660985090066 1568.0555081664625,428.5766098509007 A 22.93,22.93 0.0 0,0 1582.4655081664623,433.9066098509004 L 1582.5055081664623,433.8866098509004 M 907.4855081664621,326.5266098509003 C 923.5655081664621,325.8566098509003 935.045508166462,318.21660985090034 941.535508166462,303.58660985090023 C 943.125508166462,300.0166098509002 947.175508166462,295.42660985090026 944.065508166462,292.29660985090027 C 940.585508166462,288.79660985090027 934.855508166462,290.29660985090027 930.215508166462,292.1566098509003 C 915.825508166462,297.8566098509003 910.815508166462,311.2466098509003 904.7655081664619,323.69660985090024 C 903.6655081664621,325.96660985090034 905.3155081664621,326.8766098509003 907.4855081664621,326.5266098509003"/>
</svg>
