<?xml version="1.0" ?>
<svg xmlns="http://www.w3.org/2000/svg" xmlns:ev="http://www.w3.org/2001/xml-events" xmlns:xlink="http://www.w3.org/1999/xlink" baseProfile="full" height="2886" transform="scale(0.03465003465003465 0.03465003465003465) translate(-2012.5 -1443.0)" version="1.1" viewBox="0 0 4025 2886" width="4025" xml:space="preserve">
	<defs/>
	<path d="M 281.76060642777503,2884.3880861701073 C 281.76060642777503,2883.6340861701074 292.11060642777505,2722.778086170107 304.76060642777503,2526.932086170107 C 317.410606427775,2331.084086170107 327.76060642777503,2169.251086170107 327.76060642777503,2167.302086170107 L 327.76060642777503,2163.758086170107 L 163.64260642777504,2163.758086170107 C 7.820606427775033,2163.758086170107 -0.44939357222497733,2163.670086170107 0.016606427775030852,2162.008086170107 C 0.28660642777503087,2161.045086170107 35.481606427775034,2074.3880861701073 78.22760642777503,1969.4360861701073 C 120.97460642777503,1864.4840861701073 155.79360642777505,1778.4920861701073 155.60360642777505,1778.3430861701072 C 155.41360642777505,1778.193086170107 125.55860642777505,1787.1480861701073 89.25860642777505,1798.2400861701071 C 52.95860642777505,1809.3330861701072 23.135606427775045,1818.117086170107 22.98460642777505,1817.7600861701071 C 22.832606427775048,1817.4020861701072 64.94260642777505,1710.2680861701072 116.55960642777505,1579.684086170107 C 168.17760642777506,1449.099086170107 210.10560642777506,1342.130086170107 209.73160642777503,1341.974086170107 C 209.35860642777504,1341.8170861701071 174.97660642777504,1350.744086170107 133.32760642777504,1361.812086170107 C 91.67860642777504,1372.880086170107 57.477606427775044,1381.782086170107 57.32360642777503,1381.5960861701071 C 57.170606427775034,1381.4100861701072 96.33760642777503,1286.552086170107 144.36060642777505,1170.800086170107 C 192.38460642777505,1055.0480861701071 231.51060642777506,960.176086170107 231.30860642777503,959.9740861701071 C 231.10660642777503,959.7720861701071 199.57860642777504,968.670086170107 161.24860642777503,979.747086170107 C 122.91660642777504,990.823086170107 91.41860642777503,999.745086170107 91.25360642777503,999.572086170107 C 91.08860642777502,999.399086170107 136.30360642777504,910.832086170107 191.732606427775,802.7580861701072 C 247.160606427775,694.6830861701071 292.38560642777503,606.1140861701072 292.232606427775,605.9380861701072 C 292.07760642777504,605.7620861701071 262.14260642777504,614.6580861701073 225.706606427775,625.7060861701073 C 189.271606427775,636.7540861701073 159.264606427775,645.5960861701071 159.023606427775,645.3560861701071 C 158.782606427775,645.1150861701071 195.55660642777502,567.2140861701073 240.743606427775,472.24208617010714 C 285.929606427775,377.27008617010716 322.687606427775,299.35208617010716 322.425606427775,299.09208617010717 C 322.16460642777497,298.83008617010717 298.845606427775,307.5600861701072 270.605606427775,318.49108617010717 C 242.36460642777502,329.4210861701072 219.140606427775,338.09808617010714 218.995606427775,337.77108617010714 C 218.394606427775,336.4160861701071 386.217606427775,-1.1769138298928397 386.905606427775,0.0030861701071671632 C 400.32060642777503,23.02808617010752 581.5136064277751,338.3130861701075 581.4006064277751,338.4350861701075 C 581.3106064277749,338.5320861701075 551.8776064277749,329.5720861701075 515.992606427775,318.5240861701075 C 480.107606427775,307.47508617010755 450.509606427775,298.6740861701075 450.218606427775,298.9640861701075 C 449.928606427775,299.2550861701075 492.814606427775,377.2900861701075 545.5216064277749,472.3750861701075 C 598.228606427775,567.4610861701076 641.094606427775,645.3750861701076 640.778606427775,645.5170861701076 C 640.463606427775,645.6590861701077 610.546606427775,636.7800861701076 574.297606427775,625.7850861701077 C 538.047606427775,614.7900861701075 508.1936064277751,605.9890861701076 507.95460642777505,606.2280861701076 C 507.71560642777507,606.4680861701077 552.7826064277751,694.9750861701075 608.104606427775,802.9130861701076 C 663.424606427775,910.8500861701075 708.530606427775,999.3190861701075 708.338606427775,999.5100861701076 C 708.1466064277749,999.7020861701076 673.6886064277751,990.8110861701075 631.7636064277749,979.7520861701075 C 589.8396064277749,968.6920861701076 555.327606427775,959.8550861701074 555.068606427775,960.1130861701074 C 554.8106064277749,960.3720861701074 596.894606427775,1055.2350861701075 648.588606427775,1170.9200861701074 C 700.2826064277749,1286.6050861701074 742.434606427775,1381.4040861701073 742.258606427775,1381.5840861701074 C 742.0816064277749,1381.7640861701075 707.872606427775,1372.8510861701075 666.238606427775,1361.7780861701074 C 624.603606427775,1350.7040861701073 590.305606427775,1341.8770861701073 590.020606427775,1342.1620861701074 C 589.588606427775,1342.5940861701074 713.5136064277749,1657.5480861701074 715.701606427775,1661.5800861701075 C 716.1876064277751,1662.4740861701075 741.029606427775,1636.3400861701075 792.2236064277752,1581.0800861701075 L 868.027606427775,1499.2570861701074 L 794.422606427775,1498.7570861701074 L 720.816606427775,1498.2570861701074 L 818.094606427775,1393.2570861701074 L 915.372606427775,1288.2570861701074 L 867.565606427775,1287.9970861701074 C 841.2716064277752,1287.8540861701074 819.758606427775,1287.5080861701074 819.758606427775,1287.2270861701074 C 819.758606427775,1286.9470861701075 849.4536064277752,1249.0390861701073 885.7466064277751,1202.9870861701074 C 922.0396064277752,1156.9350861701075 951.739606427775,1118.9190861701074 951.7466064277751,1118.5070861701074 C 951.7566064277751,1118.0940861701074 931.0586064277752,1117.7570861701074 905.758606427775,1117.7570861701074 C 880.4586064277751,1117.7570861701074 859.758606427775,1117.4950861701075 859.758606427775,1117.1750861701073 C 859.758606427775,1116.3050861701074 1086.178606427775,778.7750861701072 1086.758606427775,778.7800861701073 C 1087.291606427775,778.7800861701073 1313.028606427775,1115.1650861701073 1313.591606427775,1116.7940861701074 C 1313.8026064277751,1117.4020861701074 1296.911606427775,1117.7570861701074 1267.758606427775,1117.7570861701074 C 1236.9756064277751,1117.7570861701074 1221.704606427775,1118.0950861701074 1221.930606427775,1118.7720861701075 C 1222.116606427775,1119.3300861701075 1251.740606427775,1157.1920861701076 1287.7636064277751,1202.9100861701074 C 1323.785606427775,1248.6280861701075 1353.4076064277751,1286.4170861701075 1353.5886064277752,1286.8860861701075 C 1353.7706064277752,1287.3540861701076 1332.371606427775,1287.8540861701076 1306.034606427775,1287.9970861701077 L 1258.150606427775,1288.2570861701076 L 1355.413606427775,1393.2570861701076 L 1452.675606427775,1498.2570861701076 L 1379.085606427775,1498.7570861701076 L 1305.496606427775,1499.2570861701076 L 1403.0526064277751,1604.5760861701076 C 1456.708606427775,1662.5010861701076 1500.931606427775,1709.9760861701077 1501.324606427775,1710.0760861701076 C 1502.194606427775,1710.2960861701076 1580.9946064277751,1564.8870861701075 1580.564606427775,1563.8540861701076 C 1580.395606427775,1563.4520861701076 1546.075606427775,1569.7700861701076 1504.297606427775,1577.8940861701076 C 1462.517606427775,1586.0190861701076 1428.257606427775,1592.5740861701076 1428.163606427775,1592.4620861701076 C 1428.069606427775,1592.3490861701075 1467.310606427775,1522.9900861701076 1515.365606427775,1438.3300861701075 C 1563.420606427775,1353.6700861701074 1602.629606427775,1284.2940861701074 1602.4956064277749,1284.1600861701074 C 1602.3616064277749,1284.0260861701074 1570.753606427775,1290.5820861701075 1532.2556064277749,1298.7280861701074 C 1493.7576064277748,1306.8740861701074 1462.1626064277748,1313.4540861701075 1462.0436064277749,1313.3500861701075 C 1461.925606427775,1313.2460861701074 1507.0666064277748,1248.6730861701076 1562.357606427775,1169.8550861701076 C 1617.647606427775,1091.0370861701076 1662.661606427775,1026.3260861701076 1662.388606427775,1026.0540861701077 C 1662.116606427775,1025.7810861701078 1632.3036064277749,1032.1180861701077 1596.138606427775,1040.1360861701078 C 1559.972606427775,1048.1540861701078 1530.2086064277748,1054.5400861701078 1529.9966064277749,1054.3280861701078 C 1529.7836064277749,1054.1150861701078 1566.5866064277748,997.1680861701077 1611.780606427775,927.7780861701078 C 1656.973606427775,858.3880861701077 1693.7946064277749,801.4590861701079 1693.604606427775,801.2690861701078 C 1693.414606427775,801.0790861701078 1670.308606427775,807.4090861701077 1642.258606427775,815.3350861701078 C 1614.208606427775,823.2620861701078 1590.905606427775,829.6320861701079 1590.474606427775,829.4900861701078 C 1589.922606427775,829.3100861701078 1755.012606427775,584.2150861701077 1757.1586064277749,582.0280861701078 C 1757.281606427775,581.9020861701079 1801.154606427775,637.4030861701078 1854.6526064277748,705.3630861701079 C 1908.1506064277746,773.3230861701079 1951.6996064277748,829.1490861701079 1951.4286064277749,829.4210861701079 C 1951.156606427775,829.6930861701078 1921.791606427775,823.3570861701078 1886.1736064277748,815.3410861701077 C 1850.5556064277748,807.3260861701078 1821.2616064277747,800.9210861701079 1821.0746064277748,801.1070861701078 C 1820.888606427775,801.2940861701077 1863.888606427775,858.3280861701078 1916.6316064277748,927.8510861701077 C 1969.3736064277748,997.3740861701078 2012.4206064277748,1054.3770861701078 2012.291606427775,1054.525086170108 C 2012.1616064277748,1054.6720861701078 1982.4376064277749,1048.2480861701079 1946.2366064277749,1040.2480861701079 C 1910.0366064277748,1032.2480861701079 1880.0486064277748,1025.8280861701078 1879.5966064277748,1025.9800861701078 C 1879.1456064277747,1026.1320861701079 1924.0326064277747,1090.7590861701078 1979.3466064277748,1169.5950861701078 C 2034.6596064277749,1248.4310861701078 2079.7686064277746,1313.0560861701078 2079.5866064277748,1313.207086170108 C 2079.406606427775,1313.357086170108 2044.8336064277748,1306.8360861701078 2002.7586064277748,1298.714086170108 C 1960.6836064277747,1290.5920861701081 1926.1226064277748,1284.077086170108 1925.9576064277749,1284.237086170108 C 1925.5446064277749,1284.6330861701078 2109.131606427775,1584.7600861701078 2109.758606427775,1584.716086170108 C 2110.5146064277747,1584.6620861701078 2228.823606427775,1336.4890861701078 2228.328606427775,1335.994086170108 C 2228.093606427775,1335.7580861701078 2201.0396064277747,1338.554086170108 2168.209606427775,1342.208086170108 C 2135.379606427775,1345.861086170108 2108.2846064277746,1348.6160861701078 2107.997606427775,1348.329086170108 C 2107.710606427775,1348.042086170108 2147.7806064277747,1263.309086170108 2197.0416064277747,1160.032086170108 C 2246.301606427775,1056.756086170108 2286.2236064277745,972.118086170108 2285.7556064277746,971.9480861701079 C 2285.2866064277746,971.7780861701078 2263.2286064277746,974.6230861701079 2236.736606427775,978.2700861701078 C 2210.245606427775,981.9180861701079 2188.468606427775,984.7570861701079 2188.344606427775,984.5800861701077 C 2188.219606427775,984.4020861701079 2221.378606427775,910.9850861701077 2262.029606427775,821.4310861701078 C 2302.680606427775,731.8770861701078 2335.787606427775,658.4710861701078 2335.599606427775,658.3050861701079 C 2335.4126064277752,658.1400861701079 2312.585606427775,664.0380861701078 2284.873606427775,671.4120861701078 C 2257.161606427775,678.7870861701078 2234.329606427775,684.6620861701078 2234.135606427775,684.4670861701077 C 2233.9416064277752,684.2730861701077 2271.4486064277753,607.9900861701078 2317.485606427775,514.9500861701079 C 2363.521606427775,421.9100861701078 2401.5176064277753,346.1170861701078 2401.920606427775,346.5210861701078 C 2403.315606427775,347.92208617010783 2569.436606427775,684.2580861701078 2568.849606427775,684.4910861701078 C 2568.5246064277753,684.6210861701079 2545.759606427775,678.7410861701078 2518.259606427775,671.4260861701077 C 2490.759606427775,664.1110861701077 2468.123606427775,658.4490861701079 2467.957606427775,658.8440861701079 C 2467.792606427775,659.2390861701078 2500.766606427775,732.5700861701077 2541.232606427775,821.8010861701077 C 2581.699606427775,911.0330861701077 2614.632606427775,984.2170861701079 2614.416606427775,984.4320861701078 C 2614.2006064277753,984.6480861701077 2592.333606427775,981.8400861701077 2565.822606427775,978.1930861701078 C 2539.311606427775,974.5460861701076 2517.406606427775,971.7760861701076 2517.145606427775,972.0370861701078 C 2516.884606427775,972.2980861701078 2556.969606427775,1057.013086170108 2606.223606427775,1160.292086170108 C 2655.477606427775,1263.571086170108 2695.585606427775,1348.264086170108 2695.350606427775,1348.4980861701079 C 2695.116606427775,1348.7320861701078 2668.0866064277748,1345.9120861701078 2635.285606427775,1342.2300861701078 C 2602.4836064277747,1338.5490861701078 2575.390606427775,1335.7920861701077 2575.078606427775,1336.1040861701078 C 2574.335606427775,1336.8470861701078 2722.022606427775,1645.839086170108 2722.9636064277747,1645.5100861701078 C 2723.781606427775,1645.2230861701078 2823.758606427775,1500.2550861701077 2823.758606427775,1499.3550861701078 C 2823.758606427775,1499.034086170108 2794.073606427775,1498.6550861701078 2757.7916064277747,1498.514086170108 L 2691.8246064277746,1498.2570861701079 L 2776.2896064277747,1386.7570861701079 C 2822.7446064277747,1325.4320861701078 2860.754606427775,1274.9240861701078 2860.756606427775,1274.5170861701079 C 2860.756606427775,1274.109086170108 2839.266606427775,1273.659086170108 2812.998606427775,1273.5170861701079 L 2765.238606427775,1273.2570861701079 L 2822.0886064277747,1176.2570861701079 C 2853.3586064277747,1122.907086170108 2879.1726064277746,1078.6940861701078 2879.4566064277747,1078.0070861701079 C 2879.863606427775,1077.0210861701078 2872.459606427775,1076.7570861701079 2844.3666064277745,1076.7570861701079 C 2824.7816064277745,1076.7570861701079 2808.7806064277747,1076.419086170108 2808.8086064277745,1076.0070861701079 C 2808.8356064277746,1075.5940861701079 2846.7976064277746,999.2070861701079 2893.1686064277746,906.2570861701079 L 2977.4786064277746,737.2570861701079 L 3061.9236064277748,906.7570861701079 L 3146.3696064277747,1076.2570861701079 L 3105.9616064277748,1076.5180861701078 C 3070.6376064277747,1076.746086170108 3065.625606427775,1076.967086170108 3066.125606427775,1078.2700861701078 C 3066.439606427775,1079.0900861701077 3097.511606427775,1123.410086170108 3135.172606427775,1176.7590861701078 L 3203.648606427775,1273.7570861701079 L 3156.703606427775,1273.7570861701079 C 3129.873606427775,1273.7570861701079 3109.758606427775,1274.139086170108 3109.758606427775,1274.648086170108 C 3109.758606427775,1275.139086170108 3144.183606427775,1325.5260861701079 3186.258606427775,1386.620086170108 C 3228.3336064277746,1447.714086170108 3262.758606427775,1497.934086170108 3262.758606427775,1498.221086170108 C 3262.758606427775,1498.508086170108 3233.038606427775,1498.858086170108 3196.714606427775,1499.000086170108 L 3130.670606427775,1499.257086170108 L 3210.577606427775,1615.257086170108 L 3290.485606427775,1731.257086170108 L 3238.6226064277753,1731.516086170108 C 3210.097606427775,1731.6580861701082 3186.7586064277752,1731.978086170108 3186.7586064277752,1732.2270861701081 C 3186.7586064277752,1732.8390861701082 3334.5936064277753,1932.776086170108 3336.7416064277754,1935.0690861701082 C 3338.3516064277756,1936.7880861701083 3340.0986064277754,1932.8070861701083 3370.6756064277756,1857.7290861701083 C 3388.4056064277756,1814.1950861701082 3402.7656064277758,1778.4620861701083 3402.5856064277755,1778.3210861701084 C 3402.4056064277756,1778.1810861701083 3372.5586064277754,1787.1410861701083 3336.2586064277757,1798.2340861701084 C 3299.9586064277755,1809.3260861701085 3270.129606427776,1818.0940861701083 3269.9726064277756,1817.7200861701085 C 3269.8146064277757,1817.3440861701085 3311.915606427776,1710.2120861701085 3363.5296064277754,1579.6470861701084 C 3415.1436064277755,1449.0820861701084 3457.0726064277756,1342.1270861701084 3456.7036064277754,1341.9690861701085 C 3456.3356064277755,1341.8110861701086 3421.9596064277753,1350.7360861701086 3380.3126064277753,1361.8020861701086 C 3338.6656064277754,1372.8680861701087 3304.4626064277754,1381.7720861701087 3304.3066064277755,1381.5890861701087 C 3304.1496064277753,1381.4060861701087 3343.3066064277755,1286.5390861701087 3391.3216064277754,1170.7710861701087 C 3439.336606427775,1055.0040861701086 3478.461606427775,960.1270861701087 3478.2676064277753,959.9330861701087 C 3478.0736064277753,959.7380861701085 3446.557606427775,968.6470861701087 3408.2306064277755,979.7290861701088 C 3369.9046064277754,990.8110861701086 3338.4056064277756,999.7370861701088 3338.2326064277754,999.5640861701088 C 3338.0596064277756,999.3910861701088 3383.2646064277756,910.8260861701087 3438.6866064277756,802.7540861701088 C 3494.110606427775,694.6800861701074 3539.340606427775,606.1100861701075 3539.200606427775,605.9320861701076 C 3539.0596064277747,605.7520861701075 3509.1306064277746,614.6420861701076 3472.6906064277746,625.6870861701075 C 3436.2526064277745,636.7320861701076 3406.2386064277744,645.5670861701076 3405.9926064277747,645.3220861701075 C 3405.7466064277746,645.0760861701076 3442.517606427775,567.1720861701076 3487.705606427775,472.2020861701075 C 3532.893606427775,377.2320861701075 3569.654606427775,299.31708617010753 3569.395606427775,299.0580861701075 C 3569.136606427775,298.80008617010753 3545.825606427775,307.5410861701075 3517.593606427775,318.4840861701075 C 3489.3606064277747,329.4270861701075 3466.1396064277747,338.1010861701075 3465.9906064277748,337.7590861701075 C 3465.8426064277746,337.4170861701075 3503.3966064277747,260.9860861701075 3549.444606427775,167.91108617010747 C 3626.223606427775,12.720086170107523 3633.270606427775,-1.1239138298924778 3634.419606427775,0.9720861701075223 C 3635.109606427775,2.2290861701075224 3679.065606427775,78.63208617010751 3732.100606427775,170.75808617010753 C 3785.136606427775,262.88308617010756 3828.466606427775,338.3340861701075 3828.390606427775,338.4280861701075 C 3828.314606427775,338.5220861701075 3798.870606427775,329.58108617010754 3762.958606427775,318.5580861701075 C 3727.047606427775,307.53808617010753 3697.440606427775,298.7430861701075 3697.166606427775,299.0180861701075 C 3696.8926064277753,299.2920861701075 3739.7166064277753,377.2170861701075 3792.333606427775,472.1840861701075 C 3844.949606427775,567.1520861701074 3887.797606427775,645.0540861701074 3887.551606427775,645.2990861701076 C 3887.305606427775,645.5450861701074 3858.114606427775,636.9560861701075 3822.681606427775,626.2130861701075 C 3787.2496064277752,615.4700861701074 3757.283606427775,606.4330861701076 3756.090606427775,606.1310861701074 C 3754.3456064277752,605.6890861701074 3773.681606427775,644.1410861701074 3854.7836064277753,802.3930861701076 C 3910.2576064277755,910.6400861701075 3955.4966064277755,999.3550861701076 3955.3136064277755,999.5380861701076 C 3955.1296064277753,999.7210861701076 3920.6786064277753,990.8220861701075 3878.7546064277753,979.7630861701075 C 3836.8306064277754,968.7030861701076 3802.3106064277754,959.8730861701076 3802.0436064277756,960.1410861701077 C 3801.7766064277757,960.4080861701077 3843.8576064277754,1055.2680861701076 3895.5566064277755,1170.9420861701076 C 3947.2566064277753,1286.6160861701076 3989.4156064277754,1381.4060861701075 3989.2446064277756,1381.5880861701075 C 3989.0736064277758,1381.7690861701076 3954.8686064277754,1372.8580861701075 3913.2346064277754,1361.7840861701075 C 3871.5986064277754,1350.7100861701074 3837.2946064277753,1341.8890861701075 3837.0036064277756,1342.1810861701074 C 3836.7116064277757,1342.4730861701073 3878.7736064277756,1449.7090861701074 3930.475606427776,1580.4850861701075 C 3982.176606427776,1711.2600861701076 4024.417606427776,1818.3430861701074 4024.3456064277757,1818.4480861701074 C 4024.2716064277756,1818.5530861701075 3994.297606427776,1809.5040861701075 3957.7356064277756,1798.3390861701075 C 3921.1736064277757,1787.1740861701076 3891.1056064277755,1778.1690861701074 3890.9166064277756,1778.3250861701076 C 3890.7276064277758,1778.4820861701076 3919.6406064277758,1864.9490861701076 3955.1666064277756,1970.4730861701075 C 3990.6926064277754,2075.997086170107 4019.7596064277755,2162.655086170107 4019.7596064277755,2163.046086170107 C 4019.7596064277755,2163.438086170107 3949.586606427775,2163.758086170107 3863.8196064277754,2163.758086170107 C 3778.0516064277754,2163.758086170107 3707.6786064277753,2164.095086170107 3707.434606427775,2164.508086170107 C 3707.190606427775,2164.920086170107 3714.8016064277754,2326.133086170107 3724.346606427775,2522.758086170107 C 3733.892606427775,2719.383086170107 3741.715606427775,2881.4950861701072 3741.730606427775,2883.008086170107 L 3741.760606427775,2885.758086170107 L 3635.260606427775,2885.758086170107 C 3542.204606427775,2885.758086170107 3528.760606427775,2885.572086170107 3528.760606427775,2884.2880861701074 C 3528.760606427775,2883.4780861701074 3539.110606427775,2722.316086170107 3551.760606427775,2526.1490861701072 C 3564.4106064277753,2329.9820861701073 3574.760606427775,2168.1940861701073 3574.760606427775,2166.619086170107 L 3574.760606427775,2163.758086170107 L 3410.760606427775,2163.758086170107 C 3317.302606427775,2163.758086170107 3246.760606427775,2163.380086170107 3246.760606427775,2162.880086170107 C 3246.760606427775,2162.397086170107 3247.440606427775,2160.372086170107 3248.273606427775,2158.380086170107 L 3249.786606427775,2154.758086170107 L 3048.5666064277752,2154.758086170107 L 3049.210606427775,2165.008086170107 C 3050.1626064277752,2180.168086170107 3083.760606427775,2877.2590861701074 3083.760606427775,2881.843086170107 L 3083.760606427775,2885.758086170107 L 2870.5896064277754,2885.758086170107 L 2871.211606427775,2878.508086170107 C 2871.880606427775,2870.726086170107 2917.759606427775,2158.892086170107 2917.759606427775,2156.305086170107 C 2917.759606427775,2154.9150861701073 2899.627606427775,2154.758086170107 2738.759606427775,2154.758086170107 C 2640.309606427775,2154.758086170107 2559.759606427775,2154.508086170107 2559.759606427775,2154.2030861701073 C 2559.759606427775,2153.8980861701075 2561.559606427775,2150.997086170107 2563.759606427775,2147.758086170107 C 2565.959606427775,2144.5180861701074 2567.759606427775,2141.6180861701073 2567.759606427775,2141.313086170107 C 2567.759606427775,2141.007086170107 2546.384606427775,2140.758086170107 2520.259606427775,2140.758086170107 L 2472.759606427775,2140.758086170107 L 2472.759606427775,2146.7680861701074 C 2472.759606427775,2150.0720861701075 2480.634606427775,2315.5010861701076 2490.259606427775,2514.3860861701073 C 2499.884606427775,2713.2720861701073 2507.759606427775,2878.1920861701074 2507.759606427775,2880.8760861701076 L 2507.759606427775,2885.7580861701076 L 2294.704606427775,2885.7580861701076 L 2295.2786064277752,2879.5080861701076 C 2295.905606427775,2872.6860861701075 2342.7596064277755,2145.4540861701075 2342.7596064277755,2142.5440861701077 C 2342.7596064277755,2140.8410861701077 2337.9386064277755,2140.7580861701076 2238.7596064277755,2140.7580861701076 C 2167.5286064277752,2140.7580861701076 2134.7596064277755,2141.085086170108 2134.7596064277755,2141.7960861701076 C 2134.7596064277755,2142.3670861701075 2136.7846064277755,2147.2520861701078 2139.2596064277755,2152.652086170108 C 2141.7346064277754,2158.052086170108 2143.7596064277755,2162.759086170108 2143.7596064277755,2163.1130861701076 C 2143.7596064277755,2163.4680861701077 2073.586606427775,2163.7580861701076 1987.8196064277754,2163.7580861701076 C 1902.0516064277754,2163.7580861701076 1831.6996064277755,2164.0950861701076 1831.4816064277754,2164.5080861701076 C 1831.2626064277754,2164.9200861701074 1838.8636064277755,2325.2330861701075 1848.3716064277755,2520.7580861701076 C 1857.8796064277756,2716.2830861701077 1865.6816064277755,2878.395086170108 1865.7096064277755,2881.0080861701076 L 1865.7596064277755,2885.7580861701076 L 1759.2596064277755,2885.7580861701076 C 1700.6846064277754,2885.7580861701076 1652.7596064277755,2885.5120861701075 1652.7596064277755,2885.2110861701076 C 1652.7596064277755,2884.9100861701077 1663.1096064277754,2724.2810861701078 1675.7596064277755,2528.2580861701076 C 1688.4096064277755,2332.2350861701075 1698.7596064277755,2170.0310861701078 1698.7596064277755,2167.8050861701076 L 1698.7596064277755,2163.7580861701076 L 1534.7596064277755,2163.7580861701076 C 1444.5596064277754,2163.7580861701076 1370.7596064277755,2163.538086170108 1370.7596064277755,2163.268086170108 C 1370.7596064277755,2162.999086170108 1373.2346064277754,2158.3480861701078 1376.2596064277755,2152.932086170108 C 1379.2846064277755,2147.5160861701083 1381.7596064277755,2142.562086170108 1381.7596064277755,2141.922086170108 C 1381.7596064277755,2141.043086170108 1354.2696064277754,2140.7580861701076 1269.7596064277755,2140.7580861701076 L 1157.7596064277755,2140.7580861701076 L 1157.7596064277755,2144.8180861701076 C 1157.7596064277755,2148.7820861701075 1192.2376064277755,2865.6400861701077 1193.0716064277754,2879.0080861701076 L 1193.4926064277754,2885.7580861701076 L 979.853606427775,2885.7580861701076 L 980.3436064277751,2881.0080861701076 C 981.0036064277749,2874.6150861701076 1027.759606427775,2147.6610861701074 1027.759606427775,2143.7980861701076 L 1027.759606427775,2140.7580861701076 L 896.759606427775,2140.7580861701076 C 824.709606427775,2140.7580861701076 765.759606427775,2140.8940861701076 765.759606427775,2141.0610861701075 C 765.759606427775,2141.2280861701074 767.334606427775,2146.0410861701075 769.259606427775,2151.7580861701076 C 771.184606427775,2157.4740861701075 772.759606427775,2162.5120861701075 772.759606427775,2162.9540861701075 C 772.759606427775,2163.3960861701075 702.586606427775,2163.7580861701076 616.8196064277749,2163.7580861701076 C 531.0516064277749,2163.7580861701076 460.687606427775,2164.0950861701076 460.45560642777497,2164.5080861701076 C 460.22360642777494,2164.9200861701074 467.83160642777494,2325.9080861701077 477.36260642777495,2522.2580861701076 C 486.89360642777496,2718.6080861701075 494.70660642777494,2880.7200861701076 494.72560642777495,2882.5080861701076 L 494.75960642777494,2885.7580861701076 L 388.25960642777494,2885.7580861701076 C 298.74960642777495,2885.7580861701076 281.75960642777494,2885.5390861701076 281.75960642777494,2884.3880861701077 L 281.76060642777503,2884.3880861701073 M 3316.1456064277754,1991.7300861701076 C 3322.5336064277753,1976.0400861701075 3327.7596064277755,1962.8770861701075 3327.7596064277755,1962.4800861701076 C 3327.7596064277755,1962.0830861701077 3313.3596064277754,1961.7580861701076 3295.7596064277755,1961.7580861701076 C 3278.1596064277755,1961.7580861701076 3263.7596064277755,1962.0200861701076 3263.7596064277755,1962.3410861701077 C 3263.7596064277755,1962.9010861701076 3296.4636064277756,2010.7510861701078 3301.5096064277755,2017.5740861701076 C 3302.8586064277756,2019.3970861701077 3304.0896064277754,2020.7470861701077 3304.2466064277755,2020.5740861701076 C 3304.4036064277757,2020.4000861701077 3309.7586064277757,2007.4200861701077 3316.1466064277756,1991.7300861701076 L 3316.1456064277754,1991.7300861701076 M 1490.5096064277755,1947.8650861701076 C 1494.4976064277755,1940.7750861701077 1497.7596064277755,1934.7000861701076 1497.7596064277755,1934.3650861701076 C 1497.7596064277755,1934.0310861701075 1488.9476064277756,1933.7580861701076 1478.1766064277754,1933.7580861701076 C 1467.3406064277754,1933.7580861701076 1458.7416064277754,1934.1500861701077 1458.9266064277754,1934.6360861701075 C 1459.3616064277753,1935.7820861701075 1482.1066064277754,1960.6760861701075 1482.7596064277755,1960.7220861701076 C 1483.0346064277755,1960.7410861701076 1486.5226064277754,1954.9560861701075 1490.5096064277755,1947.8650861701076 M 2063.6326064277755,1925.7580861701076 C 2071.3996064277753,1909.5330861701077 2077.2786064277757,1896.0990861701075 2076.6986064277753,1895.9050861701076 C 2074.358606427775,1895.1230861701076 2015.2426064277754,1881.9610861701076 2015.0216064277754,1882.1730861701076 C 2014.7946064277753,1882.3900861701077 2047.0916064277753,1952.8670861701075 2048.3546064277753,1954.9110861701076 C 2048.6876064277753,1955.4500861701076 2049.0846064277753,1955.7480861701076 2049.2346064277754,1955.5740861701076 C 2049.3866064277754,1955.4000861701077 2055.865606427775,1941.9830861701078 2063.6326064277755,1925.7580861701076 M 708.509606427775,1941.8200861701075 C 711.9476064277751,1938.0160861701074 714.759606427775,1934.6450861701076 714.759606427775,1934.3300861701075 C 714.759606427775,1934.0150861701075 710.709606427775,1933.7570861701074 705.759606427775,1933.7570861701074 C 699.0216064277749,1933.7570861701074 696.759606427775,1934.0850861701074 696.759606427775,1935.0630861701075 C 696.759606427775,1937.1330861701074 700.872606427775,1948.7580861701074 701.6016064277751,1948.7470861701074 C 701.963606427775,1948.7370861701074 705.0716064277751,1945.6250861701074 708.509606427775,1941.8200861701075 M 697.1676064277751,1824.8410861701075 C 709.0446064277751,1811.9630861701075 718.5596064277752,1801.2230861701075 718.3116064277751,1800.9750861701075 C 717.7056064277751,1800.3690861701075 644.3406064277751,1777.9700861701074 643.9636064277752,1778.2750861701074 C 643.8006064277752,1778.4080861701075 649.4256064277752,1795.6570861701075 656.4636064277752,1816.6070861701076 L 669.2596064277752,1854.6980861701074 L 672.4166064277752,1851.4780861701074 C 674.1526064277753,1849.7060861701075 685.2906064277752,1837.7200861701074 697.1666064277752,1824.8410861701075 L 697.1676064277751,1824.8410861701075 M 2133.610606427775,1779.5790861701075 C 2147.442606427775,1750.6060861701076 2158.760606427775,1726.5050861701075 2158.760606427775,1726.0220861701075 C 2158.760606427775,1725.1640861701076 2056.036606427775,1736.1470861701075 2055.076606427775,1737.1070861701076 C 2054.809606427775,1737.3740861701076 2065.249606427775,1757.3170861701076 2078.275606427775,1781.4240861701076 C 2106.8456064277752,1834.2990861701076 2106.771606427775,1834.1700861701077 2107.710606427775,1833.1060861701076 C 2108.122606427775,1832.6390861701075 2119.777606427775,1808.5520861701075 2133.610606427775,1779.5790861701075 M 2723.221606427775,1780.9490861701074 C 2739.588606427775,1757.1310861701074 2752.817606427775,1737.5060861701074 2752.619606427775,1737.3390861701075 C 2752.4216064277753,1737.1720861701076 2741.4596064277753,1735.8460861701076 2728.259606427775,1734.3920861701076 C 2710.448606427775,1732.4300861701076 2699.167606427775,1731.7490861701076 2684.509606427775,1731.7520861701075 C 2673.647606427775,1731.7520861701075 2664.759606427775,1731.3970861701075 2664.759606427775,1730.9570861701075 C 2664.759606427775,1730.5170861701074 2665.299606427775,1729.6170861701075 2665.959606427775,1728.9570861701075 C 2666.6196064277747,1728.2970861701074 2666.732606427775,1727.7350861701075 2666.209606427775,1727.7090861701074 C 2665.687606427775,1727.6830861701073 2660.422606427775,1727.0940861701074 2654.509606427775,1726.4000861701074 C 2648.597606427775,1725.7070861701075 2643.759606427775,1725.2450861701075 2643.759606427775,1725.3740861701074 C 2643.759606427775,1725.6600861701074 2689.579606427775,1821.5130861701073 2690.959606427775,1824.1140861701074 C 2691.5016064277747,1825.1360861701073 2692.286606427775,1825.5860861701074 2692.7046064277747,1825.1140861701074 C 2693.122606427775,1824.6430861701074 2706.854606427775,1804.7690861701074 2723.2216064277745,1780.9500861701074 L 2723.221606427775,1780.9490861701074 M 1475.644606427775,1759.1640861701073 C 1487.258606427775,1737.6640861701073 1496.759606427775,1719.5510861701073 1496.759606427775,1718.9140861701073 C 1496.759606427775,1718.0510861701073 1481.638606427775,1717.7570861701074 1437.174606427775,1717.7570861701074 L 1377.589606427775,1717.7570861701074 L 1381.424606427775,1722.0930861701074 C 1398.554606427775,1741.4610861701074 1453.298606427775,1799.6050861701074 1453.842606427775,1799.0090861701074 C 1454.220606427775,1798.5950861701074 1464.0326064277751,1780.6650861701073 1475.644606427775,1759.1640861701073 M 771.9366064277751,1744.0070861701074 C 780.9826064277752,1734.2440861701075 790.096606427775,1724.3440861701074 792.1886064277751,1722.0070861701074 L 795.992606427775,1717.7570861701074 L 767.376606427775,1717.7570861701074 C 745.626606427775,1717.7570861701074 738.759606427775,1718.0470861701074 738.759606427775,1718.9690861701074 C 738.759606427775,1720.1190861701075 754.834606427775,1761.7570861701074 755.278606427775,1761.7570861701074 C 755.394606427775,1761.7570861701074 762.8906064277751,1753.7690861701074 771.9366064277751,1744.0070861701074 M 2077.942606427775,1651.8670861701073 C 2093.822606427775,1618.6530861701074 2106.689606427775,1591.3970861701073 2106.537606427775,1591.2970861701074 C 2105.8076064277748,1590.8190861701073 1961.2116064277748,1563.0710861701075 1960.8896064277749,1563.3470861701073 C 1960.6326064277748,1563.5670861701074 2036.472606427775,1704.8010861701073 2044.5566064277748,1719.1570861701073 C 2045.2246064277747,1720.3430861701072 2044.6766064277747,1721.4480861701072 2077.942606427775,1651.8670861701073" style="fill:#000"/>
</svg>
