<?xml version="1.0" ?>
<svg xmlns="http://www.w3.org/2000/svg" xmlns:ev="http://www.w3.org/2001/xml-events" xmlns:inkscape="http://www.inkscape.org/namespaces/inkscape" xmlns:sodipodi="http://sodipodi.sourceforge.net/DTD/sodipodi-0.dtd" xmlns:svg="http://www.w3.org/2000/svg" xmlns:xlink="http://www.w3.org/1999/xlink" baseProfile="full" height="373" id="svg4" inkscape:version="1.2.2 (1:1.2.2+202212051550+b0a8486541)" sodipodi:docname="forest25.svg" transform="scale(0.2680965147453083 0.2680965147453083) translate(-392.0 -186.5)" version="1.1" viewBox="0 0 784 373" width="784" xml:space="preserve">
	<defs/>
	<path d="M 783.226945812555,349.17999999999995 C 782.2469458125549,341.0799999999999 774.8769458125549,363.17999999999995 732.6369458125549,330.75999999999993 C 755.596945812555,335.60999999999996 765.5469458125549,328.05999999999995 771.4369458125549,323.81999999999994 C 758.7269458125548,327.31999999999994 754.6769458125549,322.3499999999999 754.6769458125549,322.3499999999999 C 754.6769458125549,322.3499999999999 779.5369458125549,313.6899999999999 777.5169458125549,306.50999999999993 C 775.486945812555,299.3299999999999 774.5669458125549,315.16999999999996 747.3069458125549,306.50999999999993 C 720.0469458125549,297.8499999999999 718.9469458125549,282.37999999999994 718.9469458125549,282.37999999999994 C 718.9469458125549,282.37999999999994 723.3669458125548,281.0899999999999 723.7369458125548,277.5899999999999 C 735.4369458125549,283.0199999999999 750.1669458125548,279.7999999999999 755.3269458125549,276.2999999999999 C 742.5269458125549,277.1299999999999 735.9869458125548,271.5999999999999 735.9869458125548,271.5999999999999 C 735.9869458125548,271.5999999999999 743.3569458125548,266.6299999999999 746.2969458125548,260.9199999999999 C 740.6769458125548,263.9599999999999 721.9569458125547,258.4299999999999 708.3269458125548,236.32999999999993 C 723.7969458125548,235.58999999999992 729.8169458125548,228.7199999999999 723.1869458125548,224.04999999999993 C 731.5369458125548,225.14999999999992 740.8669458125547,218.64999999999992 740.0069458125548,216.55999999999992 C 731.9069458125548,218.88999999999993 721.0969458125548,217.66999999999993 718.3969458125548,214.3499999999999 C 715.6969458125548,211.02999999999992 709.1869458125548,202.92999999999992 709.1869458125548,202.92999999999992 C 709.1869458125548,202.92999999999992 714.5869458125547,205.01999999999992 717.8469458125547,203.66999999999993 C 721.0969458125547,202.31999999999994 721.2869458125548,200.34999999999994 723.4369458125548,201.02999999999994 C 725.5869458125547,201.70999999999995 727.0569458125548,200.34999999999994 725.6469458125548,197.83999999999995 C 724.2369458125548,195.31999999999994 723.3169458125548,194.02999999999994 719.9369458125548,192.61999999999995 C 716.5569458125548,191.20999999999995 711.8969458125548,187.58999999999995 710.1169458125547,179.90999999999994 C 708.3369458125547,172.23999999999995 705.6369458125547,172.35999999999993 705.6369458125547,172.35999999999993 C 705.6369458125547,172.35999999999993 706.1569458125547,134.9399999999999 697.9669458125547,134.10999999999993 C 689.7669458125547,133.27999999999992 694.9269458125548,154.54999999999993 687.7469458125547,162.83999999999992 C 680.5669458125548,171.1299999999999 679.5469458125547,173.14999999999992 672.5469458125547,173.42999999999992 C 665.5469458125547,173.70999999999992 667.8469458125546,181.25999999999993 674.3869458125547,182.54999999999993 C 670.9369458125547,184.47999999999993 661.8669458125547,182.91999999999993 661.8669458125547,182.91999999999993 C 661.8669458125547,182.91999999999993 664.9569458125547,185.81999999999994 668.5469458125547,186.92999999999992 C 672.1369458125547,188.02999999999992 678.2169458125546,187.79999999999993 678.2169458125546,187.79999999999993 C 678.2169458125546,187.79999999999993 677.0169458125546,194.01999999999992 681.7169458125546,195.80999999999992 C 681.1669458125547,198.8499999999999 668.3669458125546,204.23999999999992 668.3669458125546,204.23999999999992 C 668.3669458125546,204.23999999999992 676.8869458125546,198.11999999999992 673.8969458125546,195.48999999999992 C 670.9069458125546,192.86999999999992 668.7869458125546,195.4399999999999 664.7369458125546,196.22999999999993 C 660.6869458125547,197.00999999999993 659.7369458125546,196.66999999999993 651.9969458125546,195.19999999999993 C 644.2569458125546,193.72999999999993 640.6569458125546,192.03999999999994 633.8369458125546,187.65999999999994 C 627.0269458125547,183.28999999999994 620.4369458125547,174.99999999999994 620.4369458125547,174.99999999999994 L 626.8369458125546,175.08999999999995 L 622.3269458125546,170.38999999999996 C 622.3269458125546,170.38999999999996 633.6069458125546,171.02999999999994 640.4269458125547,170.10999999999996 C 647.2369458125546,169.18999999999997 651.5669458125546,166.32999999999996 650.4669458125546,163.01999999999995 C 649.3569458125546,159.69999999999996 646.6869458125547,159.79999999999995 643.0069458125546,158.96999999999994 C 639.3269458125546,158.13999999999993 638.1269458125546,155.58999999999995 634.2569458125546,154.11999999999995 C 630.3869458125546,152.64999999999995 627.8769458125546,154.36999999999995 624.9869458125546,151.22999999999996 C 622.0969458125546,148.09999999999997 608.2269458125546,141.03999999999996 604.3569458125546,133.72999999999996 C 612.2769458125546,135.68999999999997 620.4469458125546,131.33999999999997 620.0169458125546,128.26999999999995 C 619.5869458125546,125.19999999999995 616.8269458125545,127.58999999999993 613.6369458125546,127.28999999999994 C 610.4469458125545,126.97999999999993 609.3969458125546,122.98999999999994 609.3969458125546,122.98999999999994 C 609.3969458125546,122.98999999999994 615.1669458125546,124.88999999999994 620.6269458125546,123.23999999999994 C 626.0869458125546,121.57999999999994 627.3769458125546,115.92999999999994 626.8869458125546,114.88999999999994 C 626.3969458125546,113.84999999999994 624.5569458125545,114.14999999999995 620.8069458125545,114.51999999999994 C 617.0569458125545,114.88999999999994 612.3969458125546,113.10999999999994 611.7869458125546,109.54999999999994 C 611.1769458125545,105.98999999999994 607.4269458125545,101.37999999999994 603.8069458125545,100.15999999999994 C 607.4269458125545,99.05999999999995 607.5469458125546,95.91999999999994 607.5469458125546,95.91999999999994 C 607.5469458125546,95.91999999999994 610.0069458125546,99.53999999999995 614.4269458125545,98.55999999999995 C 618.8469458125545,97.57999999999994 617.6169458125546,91.80999999999995 615.0369458125546,89.59999999999995 C 612.4569458125545,87.38999999999996 609.8769458125546,85.17999999999995 608.0369458125546,78.54999999999995 C 606.1969458125545,71.91999999999996 603.2469458125546,69.21999999999996 603.2469458125546,64.66999999999996 C 603.2469458125546,60.12999999999997 599.3169458125546,41.94999999999996 595.2669458125546,42.319999999999965 C 591.2169458125546,42.689999999999955 592.5669458125545,50.05999999999996 592.4469458125545,51.89999999999996 C 592.3269458125545,53.73999999999997 589.4969458125545,57.789999999999964 589.2569458125545,63.689999999999955 C 589.0069458125545,69.57999999999996 579.8069458125544,83.82999999999996 577.7169458125545,87.99999999999996 C 575.6269458125545,92.16999999999996 563.2269458125545,90.57999999999996 562.4869458125545,99.16999999999996 C 561.7469458125545,107.75999999999996 572.7969458125544,99.41999999999996 572.7969458125544,102.97999999999996 C 572.7969458125544,106.53999999999996 566.9069458125545,109.72999999999996 559.9069458125545,111.07999999999996 C 552.9069458125545,112.42999999999995 556.3469458125545,113.77999999999996 550.8169458125544,115.37999999999995 C 545.2869458125544,116.97999999999995 542.8369458125544,122.25999999999995 542.7169458125544,124.58999999999996 C 537.2569458125544,123.72999999999996 534.3669458125544,121.57999999999996 534.3669458125544,121.57999999999996 C 534.3669458125544,121.57999999999996 534.8569458125544,123.41999999999996 536.0869458125544,124.70999999999995 C 531.8469458125544,125.13999999999996 531.0569458125544,123.96999999999996 531.0569458125544,123.96999999999996 C 531.0569458125544,123.96999999999996 532.5269458125545,128.50999999999996 540.4469458125544,128.87999999999997 C 548.3669458125544,129.24999999999997 550.8869458125545,132.19999999999996 557.1469458125545,131.51999999999995 C 552.2369458125545,133.72999999999996 549.4769458125545,137.83999999999995 545.7269458125545,138.20999999999995 C 541.9869458125545,138.57999999999996 533.0769458125545,139.67999999999995 528.6569458125545,144.34999999999994 C 524.2369458125545,149.01999999999992 522.6969458125544,146.18999999999994 522.7669458125545,149.68999999999994 C 522.8269458125544,153.18999999999994 525.0969458125545,151.46999999999994 527.0069458125545,152.20999999999995 C 528.9069458125545,152.94999999999996 533.0869458125545,155.09999999999994 538.7969458125544,155.33999999999995 C 544.5069458125545,155.58999999999995 546.6569458125545,153.86999999999995 546.6569458125545,153.86999999999995 C 546.6569458125545,153.86999999999995 546.4769458125545,159.08999999999995 549.6669458125544,160.25999999999993 C 548.1369458125545,164.42999999999992 545.9869458125545,164.92999999999992 543.4069458125545,165.04999999999993 C 540.8269458125544,165.16999999999993 538.6769458125544,166.64999999999992 538.8069458125544,168.91999999999993 C 538.9269458125544,171.18999999999994 540.9569458125544,172.53999999999994 545.3169458125544,172.53999999999994 C 549.6769458125544,172.53999999999994 557.7169458125544,170.93999999999994 557.7169458125544,170.93999999999994 C 557.7169458125544,170.93999999999994 546.8769458125544,186.77999999999994 527.0769458125544,192.76999999999995 L 524.2269458125544,191.56999999999996 C 524.2269458125544,191.56999999999996 526.8969458125543,189.07999999999996 526.8069458125544,186.50999999999996 C 535.9269458125544,185.76999999999995 541.8169458125544,182.08999999999997 540.8969458125545,178.86999999999998 C 539.9769458125545,175.64999999999998 533.0669458125544,180.70999999999998 522.2069458125544,169.65999999999997 C 511.3369458125544,158.60999999999996 509.6869458125544,154.27999999999997 508.4869458125544,151.60999999999996 C 507.2869458125544,148.93999999999997 504.6169458125544,148.01999999999995 504.6169458125544,148.01999999999995 C 504.6169458125544,148.01999999999995 510.14694581255435,147.37999999999997 514.3769458125544,146.26999999999995 C 518.6169458125544,145.15999999999994 519.4469458125544,141.93999999999994 517.8769458125544,140.00999999999996 C 516.3069458125543,138.07999999999996 515.1169458125544,138.25999999999996 513.4569458125544,138.25999999999996 C 511.7969458125544,138.25999999999996 509.6369458125544,135.95999999999995 507.5169458125544,135.76999999999995 C 505.3969458125544,135.57999999999996 504.61694581255443,134.19999999999996 504.6669458125544,132.35999999999996 C 504.7169458125544,130.51999999999995 503.2869458125544,129.45999999999995 502.7769458125544,129.50999999999996 C 502.2669458125544,129.55999999999997 504.4369458125544,125.86999999999995 502.3669458125544,124.39999999999995 C 500.2969458125544,122.92999999999995 500.1569458125544,122.73999999999995 500.20694581255435,122.00999999999995 C 500.25694581255436,121.26999999999995 503.10694581255433,119.24999999999994 502.46694581255434,117.03999999999995 C 501.82694581255436,114.82999999999996 503.20694581255435,114.91999999999994 502.78694581255434,112.61999999999995 C 502.3769458125543,110.31999999999995 501.95694581255435,109.52999999999994 502.09694581255434,106.72999999999995 C 502.2369458125543,103.91999999999994 500.71694581255434,102.81999999999995 500.8069458125543,100.37999999999995 C 500.8969458125543,97.93999999999996 501.5869458125543,88.08999999999996 499.1969458125543,87.75999999999995 C 496.8069458125543,87.43999999999996 495.8769458125543,90.88999999999994 495.7469458125543,94.38999999999994 C 495.60694581255433,97.88999999999994 492.5269458125543,105.34999999999995 491.1469458125543,107.87999999999994 C 489.7669458125543,110.40999999999994 489.2569458125543,113.26999999999994 489.5769458125543,114.64999999999993 C 489.8969458125543,116.02999999999993 487.7369458125543,117.96999999999993 487.9669458125543,119.71999999999993 C 488.1969458125543,121.46999999999993 489.30694581255426,121.74999999999993 489.30694581255426,123.58999999999993 C 489.30694581255426,125.42999999999994 485.8569458125543,128.28999999999994 482.30694581255426,128.92999999999995 C 478.75694581255425,129.56999999999994 476.9669458125543,128.18999999999994 475.5369458125543,129.70999999999995 C 474.1069458125543,131.22999999999996 475.0269458125543,134.40999999999994 477.92694581255427,135.73999999999995 C 480.82694581255424,137.07999999999996 482.62694581255425,138.54999999999995 484.92694581255427,138.17999999999995 C 478.29694581255427,143.65999999999994 471.38694581255425,145.86999999999995 468.0269458125543,144.29999999999995 C 464.6669458125543,142.72999999999996 465.4969458125543,144.61999999999995 462.9569458125543,144.06999999999996 C 460.4169458125543,143.51999999999995 455.9169458125543,142.36999999999998 455.9169458125543,142.36999999999998 C 455.9169458125543,142.36999999999998 461.99694581255426,149.31999999999996 467.1569458125543,150.7 C 463.6069458125543,152.85999999999999 454.7269458125543,153.14 454.7269458125543,153.14 C 454.7269458125543,153.14 461.12694581255425,154.89 462.92694581255427,156.35999999999999 C 464.7269458125543,157.82999999999998 479.68694581255426,156.41 479.68694581255426,156.41 C 479.68694581255426,156.41 477.75694581255425,159.23 473.39694581255424,161.63 C 469.0369458125542,164.01999999999998 465.1069458125542,166.04999999999998 461.9769458125542,167.4 C 458.8469458125542,168.75 453.9969458125542,169.86 449.45694581255424,171.33 C 444.9169458125542,172.8 443.62694581255425,170.10000000000002 442.02694581255423,169.86 C 440.4269458125542,169.61 439.81694581255425,170.72000000000003 438.2869458125542,169.68 C 436.75694581255425,168.64000000000001 431.1069458125542,168.94 428.27694581255423,167.29000000000002 C 430.3069458125542,173.86 441.3569458125542,182.45000000000002 450.06694581255425,184.05 C 458.7869458125543,185.65 463.93694581255426,183.99 463.93694581255426,183.99 C 463.93694581255426,183.99 467.80694581255426,187.86 472.1669458125543,187.61 C 461.0869458125543,197.49 455.18694581255426,200.9 444.9669458125543,202.01000000000002 C 448.2869458125543,196.39000000000001 449.8469458125543,194.37000000000003 449.3869458125543,193.54000000000002 C 448.9269458125543,192.71 432.8069458125543,200.82000000000002 425.9969458125543,200.91000000000003 C 419.1869458125543,201.00000000000003 411.16694581255433,200.54000000000002 402.8869458125543,197.23000000000002 C 394.5969458125543,193.91000000000003 380.7869458125543,191.24 377.4669458125543,185.81000000000003 C 393.5869458125543,191.43000000000004 402.6069458125543,187.19000000000003 409.23694581255427,187.19000000000003 C 415.86694581255426,187.19000000000003 423.87694581255425,182.12000000000003 423.87694581255425,182.12000000000003 C 423.87694581255425,182.12000000000003 415.95694581255424,180.92000000000004 409.7869458125543,181.29000000000002 C 405.4569458125543,173.55 395.4169458125543,171.8 385.1069458125543,166.74 C 405.9169458125543,175.49 416.13694581255425,169.04000000000002 416.13694581255425,169.04000000000002 C 416.13694581255425,169.04000000000002 406.64694581255424,163.88000000000002 404.71694581255423,157.62000000000003 C 415.02694581255423,157.90000000000003 428.75694581255425,145.10000000000002 428.75694581255425,145.10000000000002 C 428.75694581255425,145.10000000000002 392.83694581255423,139.73000000000002 373.68694581255426,122.54 C 389.3469458125543,123.28 408.67694581255427,117.2 408.67694581255427,107.07000000000001 C 408.67694581255427,96.94000000000001 407.93694581255426,105.60000000000001 392.0969458125543,103.39 C 376.2569458125543,101.18 370.36694581255426,97.86 370.36694581255426,97.86 C 370.36694581255426,97.86 384.9169458125543,97.49 379.94694581255425,88.84 C 397.62694581255425,93.08 407.75694581255425,90.68 417.51694581255424,81.84 C 397.43694581255426,84.05 386.38694581255425,78.16 386.38694581255425,78.16 C 386.38694581255425,78.16 398.3569458125543,77.97999999999999 403.32694581255424,71.16 C 395.2269458125542,69.86999999999999 390.06694581255425,69.13 378.64694581255424,68.21 C 367.2269458125542,67.28999999999999 366.4869458125542,64.16 366.4869458125542,64.16 C 366.4869458125542,64.16 378.5769458125542,60.17 377.96694581255423,55.379999999999995 C 377.3569458125542,50.59 369.6169458125542,54.879999999999995 357.82694581255424,42.36 C 368.01694581255424,48.379999999999995 373.29694581255427,44.94 373.29694581255427,44.94 C 373.29694581255427,44.94 366.7869458125543,38.43000000000001 363.4769458125543,34.010000000000005 C 360.1569458125543,29.59 356.5969458125543,26.150000000000002 355.37694581255425,20.63 C 354.14694581255424,15.099999999999998 356.7269458125543,12.53 354.26694581255424,9.7 C 351.80694581255426,6.879999999999999 354.38694581255425,0.0 350.94694581255425,0.0 C 347.50694581255425,0.0 349.71694581255423,3.19 347.50694581255425,8.47 C 345.29694581255427,13.75 343.45694581255424,16.330000000000002 343.57694581255424,21.85 C 343.69694581255425,27.380000000000003 329.82694581255424,43.83 325.1569458125542,56.97 C 332.89694581255424,54.39 337.5569458125542,48.129999999999995 337.5569458125542,48.129999999999995 C 337.5569458125542,48.129999999999995 333.1969458125542,58.94 331.3569458125542,62.8 C 329.51694581255424,66.67 326.1969458125542,68.2 324.2969458125542,71.89 C 322.39694581255424,75.57000000000001 320.6769458125542,75.21 317.2969458125542,76.68 C 313.9169458125542,78.15 313.3669458125542,79.69000000000001 313.2469458125542,81.28 C 313.1269458125542,82.88 314.1669458125542,85.21000000000001 318.7069458125542,85.52 C 311.6469458125542,89.14 300.47694581255416,94.11999999999999 296.72694581255416,96.2 C 292.97694581255416,98.29 295.55694581255415,101.3 298.93694581255414,102.22 C 302.31694581255414,103.14 307.53694581255417,104.55 313.73694581255415,103.08 C 319.93694581255414,101.61 323.25694581255414,99.64 323.25694581255414,99.64 C 323.25694581255414,99.64 321.16694581255416,102.16 320.00694581255414,105.41 C 318.8369458125541,108.66 287.8969458125541,123.64 275.37694581255414,125.05999999999999 C 285.56694581255414,129.48 318.47694581255416,123.76999999999998 327.13694581255413,117.62999999999998 C 315.2869458125541,138.01 303.68694581255414,139.67 294.47694581255416,143.17 C 285.2669458125542,146.67 279.00694581255414,144.82999999999998 276.97694581255416,147.41 C 274.9469458125542,149.99 274.3969458125542,162.32999999999998 302.9469458125542,162.51 C 298.7069458125542,169.14 289.8669458125542,167.10999999999999 287.47694581255416,170.79999999999998 C 285.0869458125542,174.48 286.92694581255415,180.38 295.0269458125542,181.29999999999998 C 303.1269458125542,182.21999999999997 299.4469458125542,186.26999999999998 299.4469458125542,186.26999999999998 C 296.8369458125542,190.27999999999997 294.1769458125542,195.01 292.0169458125542,195.92999999999998 C 289.85694581255416,196.83999999999997 284.78694581255417,193.10999999999999 281.7169458125542,192.27999999999997 C 278.6469458125542,191.44999999999996 271.99694581255415,190.69999999999996 268.5069458125542,185.39 C 275.8169458125542,185.55999999999997 282.2969458125542,181.64999999999998 281.1369458125542,178.57999999999998 C 279.97694581255416,175.51 271.9969458125542,175.58999999999997 267.5169458125542,171.6 C 263.0269458125542,167.60999999999999 258.6269458125542,165.29 256.1369458125542,159.97 C 261.9469458125542,161.71 268.59694581255417,156.56 266.6869458125542,153.57 C 264.7769458125542,150.57999999999998 258.7969458125542,152.66 251.4069458125542,145.35 C 260.5469458125542,147.09 266.1969458125542,141.28 265.1169458125542,138.87 C 264.0369458125542,136.46 251.6569458125542,137.71 245.4269458125542,126.58 C 249.9669458125542,128.21 256.9969458125542,127.16 257.0569458125542,125.56 C 257.1169458125542,123.95 251.1269458125542,123.01 246.9769458125542,115.7 C 242.8269458125542,108.39 244.98694581255418,103.91000000000001 241.8269458125542,100.64 C 241.04694581255418,98.65 240.77694581255417,74.67 239.7269458125542,74.72 C 238.67694581255418,74.78 236.4069458125542,86.39999999999999 236.6269458125542,90.0 C 236.8469458125542,93.6 237.7369458125542,96.81 236.1869458125542,99.75 C 234.6369458125542,102.69 234.6369458125542,105.23 234.6869458125542,107.61 C 234.7469458125542,109.99 232.1969458125542,111.32 231.7569458125542,113.09 C 231.3169458125542,114.86 225.8869458125542,116.08 225.9969458125542,117.35000000000001 C 226.10694581255422,118.62 229.7669458125542,119.4 230.8669458125542,120.06 C 231.97694581255422,120.72 223.3369458125542,125.87 217.85694581255422,126.32000000000001 C 212.37694581255423,126.76 213.97694581255422,128.48000000000002 212.2669458125542,128.37000000000003 C 210.5469458125542,128.26000000000002 210.10694581255422,127.37000000000002 209.82694581255421,127.82000000000002 C 209.5469458125542,128.26000000000005 209.43694581255423,131.59000000000003 212.75694581255422,131.42000000000004 C 216.07694581255421,131.25000000000006 216.18694581255423,133.86000000000004 218.84694581255422,134.13000000000005 C 221.50694581255422,134.41000000000005 224.27694581255423,134.07000000000005 224.27694581255423,134.07000000000005 C 224.27694581255423,134.07000000000005 222.11694581255423,137.50000000000006 220.06694581255422,138.06000000000006 C 218.0169458125542,138.61000000000007 214.52694581255423,138.17000000000007 213.97694581255422,139.83000000000007 C 213.4269458125542,141.49000000000007 216.02694581255423,143.93000000000006 219.34694581255422,144.04000000000008 C 222.66694581255422,144.1500000000001 225.43694581255423,143.10000000000008 225.43694581255423,143.10000000000008 C 225.43694581255423,143.10000000000008 219.67694581255424,148.3100000000001 215.30694581255423,148.69000000000008 C 210.93694581255423,149.08000000000007 204.45694581255424,148.86000000000007 203.28694581255422,150.2400000000001 C 202.12694581255423,151.6200000000001 203.00694581255422,153.6200000000001 208.21694581255423,155.1100000000001 C 213.42694581255424,156.6100000000001 213.58694581255423,158.4300000000001 213.58694581255423,158.4300000000001 C 213.58694581255423,158.4300000000001 208.15694581255423,158.9300000000001 207.77694581255423,159.9800000000001 C 207.38694581255425,161.03000000000011 208.60694581255424,163.5200000000001 213.42694581255424,163.6300000000001 C 218.24694581255423,163.74000000000012 220.40694581255423,162.2500000000001 220.40694581255423,162.2500000000001 C 220.40694581255423,162.2500000000001 214.53694581255422,166.02000000000012 211.0469458125542,168.62000000000012 C 207.5569458125542,171.2200000000001 200.3069458125542,170.78000000000011 198.3069458125542,172.39000000000013 C 196.3169458125542,174.00000000000014 192.4369458125542,173.55000000000013 190.60694581255422,173.72000000000014 C 188.7769458125542,173.89000000000013 186.00694581255422,176.38000000000014 189.7769458125542,179.26000000000013 C 193.5469458125542,182.14000000000013 202.4569458125542,182.42000000000013 202.4569458125542,182.42000000000013 C 202.4569458125542,182.42000000000013 197.5869458125542,187.96000000000012 203.56694581255422,190.01000000000013 C 202.5169458125542,194.27000000000012 190.38694581255422,199.48000000000013 188.83694581255423,199.76000000000013 C 187.28694581255422,200.04000000000013 183.96694581255423,199.65000000000012 182.18694581255423,200.76000000000013 C 180.41694581255422,201.87000000000015 179.63694581255422,205.52000000000012 184.89694581255424,207.18000000000012 C 190.15694581255423,208.84000000000012 193.69694581255425,213.71000000000012 201.11694581255423,212.99000000000012 C 197.79694581255424,215.93000000000012 185.88694581255425,220.96000000000012 185.88694581255425,220.96000000000012 C 185.88694581255425,220.96000000000012 174.03694581255425,213.87000000000012 168.49694581255426,205.79000000000013 C 162.95694581255427,197.71000000000012 157.53694581255425,190.28000000000014 154.31694581255425,187.18000000000015 C 166.94694581255425,190.50000000000014 176.35694581255424,190.39000000000016 182.44694581255425,189.51000000000016 C 188.53694581255425,188.62000000000018 192.30694581255426,187.36000000000016 192.30694581255426,186.28000000000017 C 192.30694581255426,185.19000000000017 179.45694581255427,183.20000000000016 177.57694581255427,182.31000000000017 C 182.39694581255426,179.65000000000018 181.61694581255426,176.27000000000018 181.61694581255426,176.27000000000018 C 181.61694581255426,176.27000000000018 172.31694581255425,178.8200000000002 162.67694581255427,169.8500000000002 C 153.03694581255428,160.8800000000002 141.49694581255426,147.3400000000002 137.59694581255428,135.21000000000018 C 150.13694581255427,149.08000000000018 163.59694581255428,155.64000000000019 169.7469458125543,158.14000000000019 C 175.8969458125543,160.6300000000002 189.03694581255428,162.59000000000017 197.3269458125543,158.39000000000019 C 182.2969458125543,153.3200000000002 172.65694581255428,145.27000000000018 172.65694581255428,145.27000000000018 C 172.65694581255428,145.27000000000018 187.0269458125543,139.37000000000018 184.53694581255428,129.0700000000002 C 174.56694581255428,128.99000000000018 162.7769458125543,125.17000000000017 155.79694581255427,119.19000000000018 C 148.81694581255428,113.21000000000018 147.82694581255427,113.54000000000018 147.82694581255427,113.54000000000018 C 147.82694581255427,113.54000000000018 160.11694581255426,105.82000000000018 156.62694581255428,97.84000000000017 C 155.87694581255428,96.26000000000018 148.4569458125543,97.92000000000017 142.91694581255427,94.38000000000018 C 137.37694581255428,90.84000000000017 136.32694581255427,91.06000000000019 133.94694581255428,88.07000000000018 C 138.87694581255428,89.18000000000018 147.51694581255427,86.80000000000018 146.34694581255428,82.03000000000017 C 145.18694581255428,77.27000000000017 138.26694581255427,76.71000000000016 134.93694581255428,71.67000000000017 C 136.2069458125543,69.68000000000018 136.2669458125543,68.24000000000017 135.43694581255428,67.02000000000017 C 138.1469458125543,65.80000000000017 139.47694581255428,61.260000000000176 139.03694581255428,58.55000000000017 C 138.59694581255428,55.840000000000174 135.2169458125543,49.30000000000017 131.78694581255428,45.20000000000017 C 128.35694581255427,41.100000000000165 127.24694581255427,17.90000000000017 125.63694581255427,18.01000000000017 C 124.02694581255427,18.120000000000168 125.63694581255427,23.60000000000017 123.91694581255427,26.59000000000017 C 122.19694581255428,29.580000000000172 121.69694581255428,33.79000000000018 121.36694581255428,37.61000000000017 C 121.03694581255428,41.43000000000018 119.86694581255428,45.75000000000017 117.71694581255427,48.19000000000017 C 115.55694581255428,50.630000000000166 113.11694581255428,52.730000000000175 112.78694581255428,54.56000000000017 C 112.45694581255428,56.39000000000017 107.19694581255428,57.00000000000017 107.13694581255427,59.100000000000165 C 107.07694581255427,61.20000000000017 108.35694581255427,63.81000000000017 109.51694581255427,64.91000000000017 C 110.67694581255427,66.02000000000017 113.39694581255426,66.07000000000016 113.39694581255426,66.07000000000016 C 113.39694581255426,66.07000000000016 110.12694581255427,70.83000000000017 104.53694581255426,73.27000000000017 C 98.94694581255426,75.71000000000016 96.56694581255427,78.42000000000017 96.33694581255426,80.14000000000017 C 96.11694581255426,81.86000000000017 97.77694581255426,84.13000000000017 101.04694581255426,84.79000000000018 C 104.31694581255425,85.45000000000017 104.58694581255426,87.28000000000017 107.08694581255426,87.50000000000017 C 109.57694581255426,87.72000000000017 109.63694581255426,84.95000000000017 111.45694581255427,84.95000000000017 C 113.28694581255426,84.95000000000017 114.61694581255426,85.12000000000018 114.66694581255426,85.73000000000017 C 114.72694581255426,86.34000000000017 109.18694581255426,88.55000000000017 108.46694581255426,91.16000000000018 C 107.74694581255426,93.76000000000018 103.25694581255426,94.37000000000018 100.43694581255426,95.26000000000018 C 97.61694581255426,96.15000000000018 93.56694581255425,95.48000000000017 92.79694581255426,96.98000000000017 C 92.01694581255425,98.48000000000017 85.81694581255425,101.96000000000018 85.65694581255426,103.85000000000018 C 85.48694581255425,105.73000000000017 91.74694581255426,105.68000000000018 93.24694581255426,107.17000000000017 C 94.74694581255426,108.67000000000017 103.82694581255426,111.21000000000018 105.37694581255425,111.27000000000017 C 106.92694581255425,111.33000000000017 106.92694581255425,111.77000000000017 106.92694581255425,112.05000000000017 C 106.92694581255425,112.33000000000017 102.21694581255426,111.16000000000017 99.83694581255425,113.88000000000017 C 97.45694581255425,116.59000000000016 97.78694581255425,118.92000000000017 93.13694581255425,118.14000000000017 C 88.48694581255424,117.36000000000017 87.48694581255424,122.07000000000018 80.45694581255424,123.01000000000018 C 73.42694581255424,123.95000000000017 44.98694581255424,121.27000000000018 37.01694581255424,110.63000000000018 C 40.75694581255424,118.35000000000018 46.06694581255424,123.09000000000019 47.31694581255424,126.25000000000018 C 48.56694581255424,129.4100000000002 53.79694581255424,128.5800000000002 57.28694581255424,131.4000000000002 C 60.77694581255424,134.2200000000002 67.00694581255424,140.3700000000002 69.82694581255424,139.54000000000022 C 67.83694581255425,141.70000000000022 54.29694581255424,144.3600000000002 47.39694581255424,140.87000000000023 C 50.636945812554245,145.52000000000024 59.276945812554246,147.02000000000024 61.59694581255424,148.68000000000023 C 63.92694581255424,150.34000000000023 72.55694581255423,151.92000000000024 76.79694581255424,150.59000000000023 C 81.03694581255424,149.26000000000022 89.33694581255423,149.18000000000023 89.33694581255423,149.18000000000023 C 89.33694581255423,149.18000000000023 90.33694581255423,150.68000000000023 92.57694581255423,150.18000000000023 C 91.66694581255423,152.26000000000025 84.35694581255423,155.50000000000023 80.11694581255423,159.65000000000023 C 75.87694581255424,163.80000000000024 49.966945812554236,176.76000000000025 41.826945812554236,175.85000000000022 C 44.156945812554234,179.75000000000023 53.03694581255424,183.82000000000022 59.84694581255424,184.41000000000022 C 66.65694581255424,184.99000000000024 77.95694581255424,183.91000000000022 77.95694581255424,183.91000000000022 C 77.95694581255424,183.91000000000022 78.20694581255424,189.06000000000023 69.39694581255424,191.1400000000002 C 76.28694581255424,195.29000000000022 91.82694581255424,193.7100000000002 91.82694581255424,193.7100000000002 C 91.82694581255424,193.7100000000002 86.67694581255424,195.04000000000022 80.11694581255423,202.51000000000022 C 73.55694581255423,209.9900000000002 58.02694581255423,211.23000000000022 54.44694581255423,214.8900000000002 C 50.87694581255423,218.54000000000022 39.906945812554234,222.70000000000022 35.92694581255424,222.70000000000022 C 31.936945812554235,222.70000000000022 20.646945812554236,224.53000000000023 18.146945812554236,222.95000000000022 C 15.656945812554234,221.3700000000002 11.416945812554234,224.45000000000022 17.816945812554238,231.59000000000023 C 24.216945812554236,238.73000000000022 27.20694581255424,239.73000000000022 33.436945812554235,239.73000000000022 C 39.66694581255423,239.73000000000022 54.116945812554235,238.9000000000002 54.116945812554235,238.9000000000002 C 54.116945812554235,238.9000000000002 34.26694581255423,250.6100000000002 33.686945812554235,252.3600000000002 C 33.10694581255424,254.1100000000002 35.09694581255423,258.6700000000002 43.23694581255424,258.0900000000002 C 51.37694581255424,257.5100000000002 68.65694581255424,253.11000000000024 74.38694581255425,247.54000000000022 C 73.80694581255425,252.3600000000002 76.87694581255424,253.60000000000022 79.11694581255425,253.69000000000023 C 81.35694581255424,253.77000000000024 87.91694581255425,251.53000000000023 94.73694581255425,245.13000000000022 C 91.24694581255426,251.03000000000023 76.57694581255426,268.94000000000017 62.726945812554256,276.25000000000017 C 48.88694581255426,283.5600000000002 33.59694581255425,285.2200000000002 32.49694581255426,288.5400000000002 C 31.38694581255426,291.8600000000002 31.946945812554254,296.8500000000002 42.35694581255426,297.5100000000002 C 52.766945812554255,298.17000000000024 60.18694581255426,298.73000000000025 60.18694581255426,298.73000000000025 C 60.18694581255426,298.73000000000025 42.906945812554255,317.67000000000024 31.726945812554256,324.09000000000026 C 20.536945812554258,330.5100000000003 7.696945812554253,331.73000000000025 3.7069458125542543,330.74000000000024 C -0.28305418744574595,329.74000000000024 -1.8330541874457458,334.73000000000025 3.046945812554254,337.5000000000002 C 7.916945812554254,340.2700000000002 11.356945812554255,340.7100000000002 12.906945812554254,341.8200000000002 C 14.456945812554254,342.93000000000023 21.656945812554255,341.7100000000002 26.306945812554254,343.1500000000002 C 30.956945812554252,344.5900000000002 46.68694581255426,339.8300000000002 46.68694581255426,339.8300000000002 C 46.68694581255426,339.8300000000002 45.13694581255426,342.49000000000024 47.34694581255425,344.7000000000002 C 38.046945812554256,350.3500000000002 36.93694581255426,357.6600000000002 32.726945812554256,359.43000000000023 C 28.516945812554255,361.2000000000002 10.316945812554254,366.78000000000026 6.296945812554254,372.5800000000002 L 754.8169458125542,372.5800000000002 C 754.7469458125541,372.5100000000002 784.2169458125542,357.2800000000002 783.2269458125542,349.18000000000023 L 783.226945812555,349.17999999999995 M 161.62694581255494,258.5199999999999 C 157.97694581255493,254.86999999999995 157.30694581255494,250.70999999999995 157.30694581255494,250.70999999999995 L 168.60694581255495,256.68999999999994 C 168.60694581255495,256.68999999999994 164.78694581255496,257.5299999999999 161.62694581255496,258.5199999999999 L 161.62694581255494,258.5199999999999 M 177.74694581255494,243.73999999999995 L 187.04694581255495,244.39999999999995 L 182.89694581255495,248.88999999999996 L 177.74694581255494,243.73999999999995 M 197.84694581255494,289.74999999999994 C 197.84694581255494,289.74999999999994 190.53694581255493,286.92999999999995 185.38694581255493,279.94999999999993 C 194.5269458125549,283.43999999999994 208.14694581255492,281.60999999999996 208.14694581255492,281.60999999999996 L 197.84694581255494,289.74999999999994 M 413.47694581255496,230.77999999999997 L 411.48694581255495,225.45999999999998 L 416.46694581255497,219.98 L 422.946945812555,226.63 L 413.47694581255496,230.77999999999997 M 536.076945812555,237.25999999999996 L 530.096945812555,231.27999999999997 L 540.066945812555,231.27999999999997 L 536.076945812555,237.25999999999996 M 544.8769458125549,220.97999999999996 L 536.076945812555,216.48999999999995 L 550.696945812555,216.48999999999995 L 544.8769458125549,220.97999999999996 M 547.5369458125549,204.69999999999996 L 536.0769458125549,200.04999999999995 C 536.0769458125549,200.04999999999995 553.6869458125549,199.71999999999994 559.0069458125548,197.05999999999995 C 556.1769458125548,200.37999999999994 547.5369458125548,204.69999999999993 547.5369458125548,204.69999999999993 L 547.5369458125549,204.69999999999996 M 664.1569458125549,224.23999999999995 C 661.9369458125549,225.12999999999994 649.5369458125549,227.00999999999996 646.7669458125549,232.43999999999994 C 643.9969458125549,237.86999999999995 659.2769458125549,242.95999999999995 659.2769458125549,242.95999999999995 C 656.726945812555,246.72999999999996 655.3969458125549,253.25999999999996 655.3969458125549,253.25999999999996 L 639.4469458125549,240.74999999999997 L 642.8769458125548,240.74999999999997 L 628.0369458125548,226.79999999999998 L 636.6769458125548,229.79 L 625.4869458125547,216.5 C 625.4869458125547,216.5 639.1069458125547,216.28 643.0969458125547,219.16 C 647.0869458125547,222.04 643.7569458125547,210.74 640.8869458125547,208.42 C 649.1969458125546,210.51999999999998 659.9369458125547,208.42 659.9369458125547,208.42 C 659.9369458125547,208.42 653.6269458125547,213.63 649.6369458125547,216.73 C 645.6469458125547,219.82999999999998 647.1969458125546,222.48999999999998 657.2769458125547,221.16 C 667.3569458125547,219.82999999999998 669.1269458125547,219.17 669.1269458125547,219.17 C 669.1269458125547,219.17 666.3669458125547,223.35999999999999 664.1569458125547,224.23999999999998 L 664.1569458125549,224.23999999999995" id="path297"/>
</svg>
