<?xml version="1.0" ?>
<svg xmlns="http://www.w3.org/2000/svg" xmlns:ev="http://www.w3.org/2001/xml-events" xmlns:inkscape="http://www.inkscape.org/namespaces/inkscape" xmlns:sodipodi="http://sodipodi.sourceforge.net/DTD/sodipodi-0.dtd" xmlns:svg="http://www.w3.org/2000/svg" xmlns:xlink="http://www.w3.org/1999/xlink" baseProfile="full" height="459" id="svg4" inkscape:version="1.2.2 (1:1.2.2+202212051550+b0a8486541)" sodipodi:docname="forest27.svg" transform="scale(0.2178649237472767 0.2178649237472767) translate(-380.0 -229.5)" version="1.1" viewBox="0 0 760 459" width="760" xml:space="preserve">
	<defs/>
	<path d="M 759.73,396.37 C 759.73,396.37 752.12,396.68 746.78,397.17 C 741.4399999999999,397.66 738.06,396.0 733.15,394.90000000000003 C 728.24,393.79 726.4599999999999,391.71000000000004 722.59,389.37000000000006 C 718.72,387.0400000000001 718.48,385.01000000000005 719.27,383.8400000000001 C 720.0699999999999,382.6700000000001 724.24,381.3800000000001 726.8199999999999,379.6700000000001 C 729.4,377.95000000000005 730.81,377.2800000000001 737.4399999999999,378.26000000000005 C 744.0699999999999,379.24000000000007 751.7399999999999,374.82000000000005 751.7399999999999,374.82000000000005 C 751.7399999999999,374.82000000000005 743.3299999999999,375.62000000000006 737.9899999999999,373.41 C 742.9599999999999,373.96000000000004 743.7599999999999,371.57000000000005 748.2999999999998,370.16 C 752.8399999999998,368.75 755.2399999999999,363.22 755.2399999999999,363.22 C 755.2399999999999,363.22 741.8599999999999,364.26000000000005 736.0199999999999,362.85 C 730.1899999999998,361.44 726.8699999999999,360.15000000000003 716.2499999999999,352.78000000000003 C 736.8199999999999,355.91 745.5999999999999,346.76000000000005 745.5999999999999,346.76000000000005 C 745.5999999999999,346.76000000000005 739.4599999999999,349.46000000000004 728.5299999999999,346.76000000000005 C 733.6899999999998,345.35 739.4599999999998,341.4200000000001 739.4599999999998,341.4200000000001 C 739.4599999999998,341.4200000000001 729.2099999999998,341.24000000000007 722.7599999999998,339.95000000000005 C 716.3099999999997,338.66 704.1599999999997,332.89000000000004 702.4399999999997,330.99000000000007 C 700.7199999999997,329.0900000000001 697.7699999999998,322.27000000000004 694.7699999999998,315.70000000000005 C 710.4899999999998,327.18000000000006 722.0299999999997,319.38000000000005 722.0299999999997,319.38000000000005 C 722.0299999999997,319.38000000000005 714.2899999999997,319.26000000000005 710.6099999999998,316.37000000000006 C 715.9499999999998,317.2900000000001 716.1399999999998,310.7800000000001 718.4099999999997,309.9200000000001 C 720.6799999999997,309.06000000000006 720.8699999999998,307.6500000000001 718.8399999999997,306.11000000000007 C 716.8099999999997,304.5800000000001 715.3399999999997,306.36000000000007 714.1099999999997,306.9100000000001 C 712.8799999999997,307.4600000000001 712.2699999999996,308.0200000000001 709.8099999999997,303.5300000000001 C 707.3499999999997,299.05000000000007 702.2599999999998,296.2200000000001 699.2499999999998,294.2600000000001 C 696.2399999999998,292.3000000000001 694.7699999999998,287.0200000000001 692.0699999999998,283.3900000000001 C 689.3699999999998,279.7700000000001 687.4699999999998,280.3200000000001 686.9699999999998,280.2000000000001 C 686.4799999999998,280.0800000000001 686.2299999999998,279.4000000000001 686.7899999999998,277.9300000000001 C 692.3199999999998,279.28000000000014 696.3699999999999,274.6100000000001 699.6799999999998,271.42000000000013 C 702.9999999999999,268.23000000000013 702.8699999999999,261.1100000000001 702.8699999999999,261.1100000000001 C 702.8699999999999,261.1100000000001 699.06,266.6400000000001 695.9899999999999,266.6400000000001 C 695.4999999999999,255.3400000000001 689.9699999999999,250.31000000000012 687.8899999999999,246.8700000000001 C 685.7999999999998,243.4300000000001 687.5199999999999,231.8900000000001 686.9099999999999,225.75000000000009 C 686.2999999999998,219.6100000000001 682.6099999999999,216.79000000000008 682.6099999999999,211.1400000000001 C 682.6099999999999,205.4900000000001 683.4699999999999,200.0900000000001 679.9099999999999,199.8400000000001 C 676.3499999999999,199.5900000000001 677.6999999999998,218.0100000000001 677.2099999999998,228.3300000000001 C 672.5399999999998,231.4000000000001 674.7499999999998,251.0500000000001 674.2599999999998,256.3300000000001 C 673.7699999999998,261.61000000000007 666.0299999999997,269.3500000000001 666.0299999999997,269.3500000000001 L 673.7699999999998,266.1600000000001 C 673.0299999999997,271.0700000000001 675.9799999999998,277.7000000000001 675.9799999999998,277.7000000000001 C 675.9799999999998,277.7000000000001 671.8099999999998,280.8900000000001 671.0699999999998,284.8200000000001 C 668.1199999999998,283.5900000000001 647.3699999999998,279.17000000000013 637.1799999999998,278.0700000000001 C 626.9899999999998,276.9700000000001 623.6699999999998,271.3200000000001 623.6699999999998,271.3200000000001 C 623.6699999999998,271.3200000000001 649.9499999999998,276.8500000000001 660.2599999999999,271.8100000000001 C 660.2599999999999,271.8100000000001 644.6699999999998,268.2500000000001 644.9099999999999,267.8800000000001 C 645.1599999999999,267.5100000000001 649.5799999999998,265.42000000000013 653.1399999999999,265.1800000000001 C 656.6999999999998,264.9300000000001 660.6299999999999,266.65000000000015 662.7199999999999,264.3200000000001 C 664.81,261.9900000000001 671.68,254.37000000000012 668.1199999999999,251.6700000000001 C 664.56,248.9700000000001 660.2599999999999,254.8600000000001 656.0899999999999,253.2700000000001 C 651.92,251.6800000000001 651.55,250.5700000000001 639.2699999999999,246.7600000000001 C 655.1099999999999,247.87000000000012 659.4099999999999,238.4100000000001 656.5799999999998,236.0800000000001 C 653.7599999999998,233.75000000000009 649.5799999999998,237.4300000000001 644.9199999999998,236.4500000000001 C 640.2499999999999,235.4700000000001 635.8299999999998,237.4300000000001 625.3999999999999,234.3600000000001 C 614.9599999999998,231.2900000000001 607.0999999999999,220.2400000000001 607.0999999999999,220.2400000000001 C 607.0999999999999,220.2400000000001 622.3299999999999,223.0600000000001 625.5199999999999,223.0600000000001 C 628.7099999999999,223.0600000000001 628.4699999999999,221.22000000000008 637.3099999999998,220.2400000000001 C 646.1499999999999,219.2600000000001 660.1499999999999,205.2300000000001 660.1499999999999,205.2300000000001 C 660.1499999999999,205.2300000000001 654.2599999999999,208.7300000000001 641.0899999999999,208.4500000000001 C 649.93,202.28000000000011 654.54,194.4500000000001 656.56,191.6900000000001 C 658.5899999999999,188.93000000000012 660.6099999999999,184.05000000000013 660.6099999999999,184.05000000000013 C 660.6099999999999,184.05000000000013 642.7399999999999,195.7500000000001 637.68,196.9400000000001 C 632.6099999999999,198.1400000000001 616.5899999999999,195.28000000000011 611.89,195.28000000000011 C 607.1899999999999,195.28000000000011 602.4,194.08000000000013 595.77,188.74000000000012 C 608.02,187.9100000000001 610.6899999999999,185.42000000000013 610.6899999999999,183.68000000000012 C 610.6899999999999,181.93000000000012 608.02,179.6300000000001 608.02,179.6300000000001 C 608.02,179.6300000000001 617.97,177.3300000000001 626.99,171.8900000000001 C 636.01,166.4600000000001 638.69,154.7600000000001 638.69,154.7600000000001 C 638.69,154.7600000000001 635.37,159.7300000000001 632.4300000000001,161.5700000000001 C 629.48,163.4100000000001 620.3700000000001,165.62000000000012 616.8700000000001,165.90000000000012 C 613.3700000000001,166.18000000000012 611.0700000000002,165.99000000000012 607.3800000000001,162.95000000000013 C 603.7000000000002,159.91000000000014 598.4500000000002,159.54000000000013 596.5100000000001,158.99000000000012 C 594.5800000000002,158.4400000000001 591.8100000000001,154.48000000000013 594.6700000000001,153.10000000000014 C 597.5200000000001,151.72000000000014 597.8900000000001,156.23000000000013 608.1200000000001,153.56000000000014 C 618.3400000000001,150.89000000000016 621.2900000000001,140.85000000000014 626.4500000000002,132.20000000000016 C 625.1600000000002,133.30000000000015 620.8300000000002,137.45000000000016 617.4300000000002,138.37000000000015 C 614.0200000000002,139.29000000000013 603.5200000000002,139.84000000000015 603.5200000000002,139.84000000000015 C 603.5200000000002,139.84000000000015 601.2200000000003,136.89000000000016 597.5300000000002,136.16000000000014 C 601.5800000000002,135.06000000000014 606.6500000000002,129.71000000000015 610.8800000000002,123.54000000000013 C 605.9100000000002,127.22000000000014 596.8800000000002,130.72000000000014 587.9500000000003,129.34000000000015 C 587.7700000000003,125.47000000000014 585.6400000000003,125.47000000000014 585.0000000000002,124.83000000000014 C 584.3600000000002,124.19000000000014 584.8200000000003,119.95000000000014 587.2100000000003,114.33000000000014 C 589.6000000000003,108.71000000000014 585.3700000000002,104.94000000000014 586.1000000000003,100.98000000000015 C 586.8400000000003,97.02000000000015 586.0100000000002,90.48000000000015 585.2700000000002,86.52000000000015 C 584.5300000000002,82.56000000000016 579.7400000000002,81.73000000000015 579.1900000000002,78.32000000000015 C 578.6400000000002,74.91000000000015 579.9300000000002,70.68000000000015 577.4400000000002,70.40000000000015 C 574.9500000000002,70.12000000000015 574.0300000000002,79.06000000000014 575.1400000000002,82.37000000000015 C 576.2500000000002,85.69000000000014 576.3400000000003,95.08000000000015 574.6800000000002,100.60000000000015 C 573.0200000000002,106.13000000000015 573.3900000000002,110.27000000000015 575.0500000000002,113.77000000000015 C 576.7100000000002,117.27000000000015 575.6900000000002,121.60000000000015 575.6900000000002,123.44000000000015 C 575.6900000000002,125.28000000000016 573.7600000000002,127.49000000000015 571.6400000000002,128.50000000000014 C 569.5200000000002,129.51000000000013 562.0600000000002,132.09000000000015 562.8900000000002,137.06000000000014 C 563.7200000000003,142.03000000000014 566.3900000000002,141.76000000000013 577.4400000000002,145.53000000000014 C 576.6100000000001,147.83000000000015 572.3700000000001,149.49000000000015 565.0100000000002,151.42000000000013 C 557.6400000000002,153.35000000000014 552.3900000000002,158.79000000000013 552.3900000000002,158.79000000000013 C 552.3900000000002,158.79000000000013 546.4000000000002,156.86000000000013 546.0400000000002,161.00000000000014 C 545.6700000000002,165.14000000000013 549.8200000000002,165.88000000000014 556.4500000000002,165.88000000000014 C 563.0800000000002,165.88000000000014 566.8600000000001,166.43000000000015 566.8600000000001,166.43000000000015 C 566.8600000000001,166.43000000000015 565.5700000000002,168.82000000000014 561.5200000000001,171.40000000000015 C 557.4700000000001,173.98000000000016 554.9800000000001,174.44000000000014 552.0300000000001,174.99000000000015 C 549.08,175.54000000000016 546.69,181.71000000000015 551.7500000000001,183.55000000000015 C 556.8200000000002,185.39000000000016 560.3100000000001,181.98000000000016 567.4100000000001,182.91000000000017 C 574.5000000000001,183.83000000000015 574.5000000000001,179.50000000000017 575.33,180.15000000000018 C 576.1600000000001,180.79000000000016 576.71,185.86000000000018 573.76,189.64000000000019 C 570.81,193.4200000000002 561.51,199.31000000000017 558.93,199.59000000000017 C 556.3499999999999,199.87000000000018 547.51,206.59000000000017 538.67,214.69000000000017 C 550.4599999999999,216.72000000000017 553.5,210.73000000000016 558.4699999999999,212.48000000000016 C 563.4399999999999,214.23000000000016 572.7399999999999,210.45000000000016 572.7399999999999,210.45000000000016 C 572.7399999999999,210.45000000000016 555.9799999999999,219.11000000000016 556.5299999999999,222.88000000000017 C 557.0799999999998,226.66000000000017 573.7499999999999,225.00000000000017 573.7499999999999,225.00000000000017 C 573.7499999999999,225.00000000000017 564.1699999999998,233.84000000000017 557.4499999999999,238.26000000000016 C 550.7299999999999,242.68000000000015 542.7199999999999,242.86000000000016 542.7199999999999,242.86000000000016 C 542.7199999999999,242.86000000000016 551.7399999999999,236.51000000000016 553.3999999999999,235.22000000000017 C 555.0599999999998,233.93000000000018 555.2399999999999,230.15000000000018 552.4799999999999,229.14000000000016 C 549.7199999999999,228.13000000000017 538.5699999999999,228.40000000000015 532.68,227.11000000000016 C 526.79,225.82000000000016 519.51,221.22000000000017 519.51,221.22000000000017 C 519.51,221.22000000000017 524.5699999999999,218.27000000000018 524.85,216.89000000000016 C 525.13,215.51000000000016 524.94,208.97000000000017 522.36,207.68000000000015 C 519.78,206.39000000000016 518.03,208.69000000000014 514.26,208.42000000000016 C 510.4800000000001,208.14000000000016 501.46000000000004,204.09000000000015 491.88000000000005,195.80000000000015 C 495.84000000000003,197.92000000000016 515.46,200.22000000000014 521.81,198.47000000000014 C 528.16,196.72000000000014 533.05,196.90000000000015 540.5999999999999,192.85000000000014 C 535.8999999999999,194.42000000000013 526.2299999999999,194.60000000000014 519.6999999999999,190.55000000000013 C 530.1099999999999,186.04000000000013 530.1099999999999,180.79000000000013 528.91,178.95000000000013 C 527.7099999999999,177.11000000000013 525.23,177.94000000000014 522.4599999999999,178.03000000000014 C 519.6999999999999,178.12000000000015 517.7599999999999,179.04000000000013 511.96,177.02000000000015 C 506.15999999999997,174.99000000000015 499.71,173.70000000000016 499.71,173.70000000000016 C 499.71,173.70000000000016 513.5199999999999,170.48000000000016 518.04,167.35000000000016 C 522.55,164.22000000000017 526.88,160.54000000000016 525.2199999999999,155.65000000000018 C 525.2199999999999,155.65000000000018 532.9599999999999,154.18000000000018 537.0999999999999,150.77000000000018 C 532.1299999999999,151.3200000000002 509.84,151.69000000000017 499.53,150.77000000000018 C 489.21999999999997,149.8500000000002 484.42999999999995,150.03000000000017 481.76,147.7300000000002 C 479.09,145.43000000000018 474.76,143.3100000000002 474.76,143.3100000000002 C 474.76,143.3100000000002 474.02,138.7100000000002 475.59,138.0600000000002 C 477.15999999999997,137.42000000000021 483.51,139.9900000000002 491.25,140.2700000000002 C 498.99,140.5500000000002 508.56,137.7800000000002 508.56,137.7800000000002 C 508.56,137.7800000000002 501.1,137.2300000000002 497.23,135.8500000000002 C 493.36,134.4700000000002 489.59000000000003,130.2300000000002 489.59000000000003,130.2300000000002 C 489.59000000000003,130.2300000000002 493.83000000000004,131.9800000000002 497.69000000000005,132.5300000000002 C 501.56000000000006,133.0800000000002 504.97,130.4100000000002 510.49000000000007,127.2800000000002 C 516.02,124.1500000000002 516.75,119.7300000000002 514.27,115.3100000000002 C 516.9399999999999,113.2800000000002 519.6999999999999,106.1900000000002 519.6999999999999,106.1900000000002 C 519.6999999999999,106.1900000000002 513.2499999999999,113.0000000000002 508.37,114.0200000000002 C 503.49,115.0300000000002 499.81,115.68000000000019 496.05,114.48000000000019 C 492.3,113.28000000000019 489.21000000000004,114.0200000000002 485.53000000000003,113.93000000000019 C 481.85,113.84000000000019 477.43,111.3500000000002 471.53000000000003,104.3500000000002 C 474.02000000000004,106.84000000000019 480.46000000000004,105.92000000000019 483.87,104.17000000000019 C 487.28000000000003,102.42000000000019 494.64,96.53000000000019 495.75,94.04000000000019 C 496.86,91.5500000000002 494.65,89.34000000000019 493.01,88.79000000000019 C 491.37,88.2400000000002 490.78,89.62000000000019 487.46,91.18000000000019 C 484.14,92.75000000000018 481.84,93.0200000000002 481.46999999999997,92.1000000000002 C 481.09999999999997,91.18000000000019 482.94,90.07000000000019 485.79999999999995,89.34000000000019 C 488.65,88.6000000000002 491.04999999999995,85.3800000000002 492.52,81.05000000000018 C 493.99,76.72000000000018 491.69,72.03000000000019 490.77,70.83000000000018 C 489.84999999999997,69.63000000000018 487.64,68.90000000000018 485.7,71.66000000000018 C 483.77,74.42000000000019 480.08,77.37000000000018 477.59999999999997,77.92000000000019 C 475.10999999999996,78.47000000000018 472.26,77.28000000000019 465.43999999999994,75.43000000000019 C 469.30999999999995,74.6900000000002 473.90999999999997,69.17000000000019 473.90999999999997,69.17000000000019 C 473.90999999999997,69.17000000000019 463.59999999999997,70.28000000000019 462.95,70.00000000000018 C 462.31,69.72000000000018 460.74,66.13000000000018 461.75,65.03000000000019 C 462.76,63.920000000000186 466.91,55.08000000000018 468.66,52.780000000000186 C 470.41,50.48000000000019 470.41,47.250000000000185 469.86,46.70000000000019 C 469.31,46.15000000000019 464.52000000000004,54.34000000000019 463.97,53.880000000000194 C 463.42,53.420000000000186 463.05,47.250000000000185 462.96000000000004,42.920000000000186 C 462.87000000000006,38.59000000000019 461.85,35.000000000000185 460.75000000000006,31.22000000000019 C 459.64000000000004,27.44000000000019 459.46000000000004,21.370000000000193 459.18000000000006,15.66000000000019 C 458.90000000000003,9.950000000000003 456.7900000000001,3.552713678800501e-15 456.7900000000001,3.552713678800501e-15 C 456.7900000000001,3.552713678800501e-15 454.9500000000001,17.310000000000002 453.75000000000006,22.100000000000005 C 452.55000000000007,26.890000000000004 452.9200000000001,32.78 452.9200000000001,39.14 C 452.9200000000001,45.5 450.5300000000001,51.57000000000001 450.07000000000005,57.10000000000001 C 449.61000000000007,62.63000000000001 451.96000000000004,69.81 451.96000000000004,69.81 C 451.96000000000004,69.81 443.63000000000005,73.49000000000001 439.48,73.82000000000001 C 435.34000000000003,74.14 426.86,72.21000000000001 426.86,72.21000000000001 C 426.86,72.21000000000001 431.69,77.04 437.08000000000004,77.92 C 432.01000000000005,80.45 424.46000000000004,78.66 424.46000000000004,78.66 C 424.46000000000004,78.66 425.1,82.34 432.75000000000006,85.94 C 440.39000000000004,89.53 442.51000000000005,87.41 443.71000000000004,88.78999999999999 C 444.91,90.16999999999999 458.35,100.75999999999999 457.89000000000004,102.78999999999999 C 457.43000000000006,104.82 450.89000000000004,110.24999999999999 447.30000000000007,111.07999999999998 C 443.7100000000001,111.90999999999998 433.0300000000001,112.73999999999998 420.9600000000001,108.77999999999999 C 426.7600000000001,117.33999999999999 439.6500000000001,118.07999999999998 439.6500000000001,118.07999999999998 C 439.6500000000001,118.07999999999998 426.8500000000001,119.45999999999998 422.1500000000001,117.52999999999999 C 417.4500000000001,115.59999999999998 413.7700000000001,115.96 413.7700000000001,115.96 C 413.7700000000001,115.96 417.36000000000007,123.41999999999999 421.9700000000001,124.42999999999999 C 426.5700000000001,125.44 427.5900000000001,125.63 432.8400000000001,127.83999999999999 C 438.0900000000001,130.04999999999998 447.5700000000001,128.20999999999998 447.5700000000001,128.20999999999998 C 447.5700000000001,128.20999999999998 432.7400000000001,140.36999999999998 421.1400000000001,142.48 C 423.9900000000001,147.07999999999998 429.0600000000001,147.73 438.7300000000001,146.89999999999998 C 448.4000000000001,146.06999999999996 459.82000000000005,141.36999999999998 459.82000000000005,141.36999999999998 C 459.82000000000005,141.36999999999998 456.69000000000005,147.35999999999999 450.15000000000003,152.32999999999998 C 443.61,157.29999999999998 441.13000000000005,156.57 438.18,156.2 C 435.23,155.82999999999998 432.56,155.92 429.25,158.58999999999997 C 425.93,161.25999999999996 422.44,162.92 417.83,163.46999999999997 C 413.22999999999996,164.01999999999998 410.19,163.83999999999997 407.52,161.71999999999997 C 404.84999999999997,159.59999999999997 400.06,159.59999999999997 400.06,159.59999999999997 L 400.15,158.30999999999997 C 400.15,158.30999999999997 401.71999999999997,159.14 408.07,158.02999999999997 C 414.42,156.91999999999996 415.81,150.65999999999997 415.81,150.65999999999997 C 415.81,150.65999999999997 413.78000000000003,152.58999999999997 411.11,152.77999999999997 C 411.02000000000004,148.90999999999997 406.87,147.52999999999997 403.93,142.55999999999997 C 400.99,137.58999999999997 403.56,137.30999999999997 400.71,132.24999999999997 C 397.85999999999996,127.18999999999997 398.78,125.33999999999997 398.59,119.35999999999997 C 398.40999999999997,113.36999999999998 396.84,112.63999999999997 396.28999999999996,108.94999999999997 C 395.73999999999995,105.26999999999997 396.28999999999996,94.76999999999998 396.28999999999996,94.76999999999998 C 396.28999999999996,94.76999999999998 391.03999999999996,106.09999999999998 391.03999999999996,110.69999999999999 C 391.03999999999996,115.29999999999998 391.40999999999997,124.69999999999999 390.4,128.38 C 389.39,132.06 384.32,139.34 384.32,139.34 C 384.32,139.34 383.58,134.55 383.86,129.58 C 379.35,136.58 382.94,145.42000000000002 382.94,145.42000000000002 C 382.94,145.42000000000002 380.45,142.84 378.52,137.22000000000003 C 377.32,150.30000000000004 387.64,155.27000000000004 387.64,155.27000000000004 C 387.64,155.27000000000004 385.34,157.39000000000004 381.56,159.51000000000005 C 377.78000000000003,161.63000000000005 378.34,165.13000000000005 378.34,165.13000000000005 C 378.34,165.13000000000005 376.59,163.10000000000005 373.27,159.60000000000005 C 375.15999999999997,168.11000000000004 377.96999999999997,171.76000000000005 387.64,174.43000000000006 C 385.06,174.43000000000006 381.46999999999997,178.57000000000005 377.51,178.57000000000005 C 373.55,178.57000000000005 366.64,175.07000000000005 365.26,174.61000000000004 C 363.88,174.15000000000003 360.84,173.97000000000006 362.68,178.48000000000005 C 364.52,182.99000000000004 370.23,187.04000000000005 370.23,187.04000000000005 C 370.23,187.04000000000005 365.49,185.20000000000005 363.42,185.01000000000005 C 369.22,193.39000000000004 382.67,197.63000000000005 383.5,199.10000000000005 C 384.33,200.57000000000005 384.42,207.66000000000005 382.58,211.26000000000005 C 380.74,214.85000000000005 363.06,225.72000000000006 359.28,225.63000000000005 C 355.5,225.54000000000005 344.45,218.26000000000005 344.45,218.26000000000005 C 344.45,218.26000000000005 350.99,218.08000000000004 360.2,217.06000000000006 C 369.40999999999997,216.05000000000007 373.55,210.74000000000007 373.55,210.74000000000007 C 373.55,210.74000000000007 368.33,211.35000000000008 366.43,210.86000000000007 C 373.12,206.81000000000006 376.01,202.26000000000008 374.53000000000003,201.71000000000006 C 373.06,201.16000000000005 361.02000000000004,202.51000000000008 354.76000000000005,201.77000000000007 C 348.50000000000006,201.03000000000006 340.39000000000004,195.08000000000007 340.39000000000004,195.08000000000007 C 340.39000000000004,195.08000000000007 352.18000000000006,188.63000000000008 352.67,185.38000000000008 C 356.05,185.13000000000008 358.5,180.41000000000008 358.07,179.0600000000001 C 357.64,177.7100000000001 355.12,176.60000000000008 353.34,178.0800000000001 C 351.56,179.5500000000001 349.71999999999997,179.00000000000009 347.14,178.7600000000001 C 344.56,178.5100000000001 341.12,175.6300000000001 341.43,174.8300000000001 C 341.74,174.0300000000001 344.87,174.9500000000001 346.83,174.4600000000001 C 348.78999999999996,173.97000000000008 348.60999999999996,171.5100000000001 351.13,171.5100000000001 C 353.65,171.5100000000001 354.94,171.0800000000001 357.45,169.0500000000001 C 359.17,169.6000000000001 361.44,170.0300000000001 362.3,168.0700000000001 C 363.16,166.1100000000001 361.87,164.0800000000001 361.87,164.0800000000001 C 361.87,164.0800000000001 365.55,160.5200000000001 365.12,157.3900000000001 C 368.07,156.0400000000001 369.91,154.8100000000001 371.81,150.7000000000001 C 369.54,152.9100000000001 364.81,155.0000000000001 360.39,155.0000000000001 C 355.96999999999997,155.0000000000001 353.15,156.0400000000001 350.44,156.0400000000001 C 347.74,156.0400000000001 339.27,157.2100000000001 339.57,155.9200000000001 C 339.88,154.6300000000001 342.82,152.4200000000001 347.0,151.3800000000001 C 351.17,150.34000000000012 354.46,148.06000000000012 355.07,146.2200000000001 C 355.68,144.3800000000001 353.9,141.58000000000013 352.21999999999997,142.4100000000001 C 350.53,143.24000000000012 349.27,143.3900000000001 347.85999999999996,143.24000000000012 C 346.44999999999993,143.09000000000012 344.93999999999994,140.82000000000014 342.52,141.06000000000012 C 340.09999999999997,141.31000000000012 338.40999999999997,140.4800000000001 338.59,139.68000000000012 C 338.77,138.8800000000001 339.41999999999996,139.2200000000001 343.19,136.79000000000013 C 346.96999999999997,134.37000000000015 347.61,129.45000000000013 347.61,129.45000000000013 C 347.61,129.45000000000013 345.68,131.41000000000014 344.2,131.54000000000013 C 343.62,130.37000000000015 340.95,130.47000000000014 339.65999999999997,130.47000000000014 C 338.36999999999995,130.47000000000014 335.84999999999997,129.33000000000015 335.72999999999996,128.38000000000014 C 335.60999999999996,127.43000000000013 337.78999999999996,126.88000000000014 339.28999999999996,125.83000000000014 C 340.78999999999996,124.79000000000013 343.24999999999994,122.91000000000014 342.76,121.13000000000014 C 342.27,119.35000000000014 339.57,119.04000000000013 338.68,118.49000000000014 C 337.79,117.94000000000014 335.52,116.43000000000013 335.52,115.02000000000014 C 335.52,113.61000000000014 336.2,111.83000000000014 336.32,108.82000000000014 C 336.44,105.81000000000013 336.44,102.74000000000014 335.28,100.04000000000013 C 334.10999999999996,97.34000000000013 334.66999999999996,90.09000000000013 334.66999999999996,90.09000000000013 C 334.66999999999996,90.09000000000013 332.89,94.02000000000014 333.00999999999993,98.69000000000013 C 333.12999999999994,103.36000000000013 332.2099999999999,114.47000000000013 330.61999999999995,115.63000000000012 C 329.0199999999999,116.80000000000013 326.0799999999999,118.45000000000012 325.7699999999999,121.52000000000012 C 325.4599999999999,124.59000000000012 329.93999999999994,126.49000000000012 329.93999999999994,126.49000000000012 C 329.93999999999994,126.49000000000012 324.59999999999997,127.17000000000013 323.12999999999994,130.05000000000013 C 321.6599999999999,132.9400000000001 326.0199999999999,138.40000000000012 326.0199999999999,138.40000000000012 C 326.0199999999999,138.40000000000012 323.86999999999995,138.40000000000012 321.1699999999999,138.2200000000001 C 318.4699999999999,138.0400000000001 314.5399999999999,136.0700000000001 314.5399999999999,136.0700000000001 C 314.5399999999999,136.0700000000001 314.0499999999999,138.1000000000001 318.5899999999999,140.37000000000012 C 315.7699999999999,140.43000000000012 315.1499999999999,143.2900000000001 315.1499999999999,143.2900000000001 C 315.1499999999999,143.2900000000001 311.55999999999995,141.0800000000001 307.86999999999995,136.84000000000012 C 311.18999999999994,149.46000000000012 327.66999999999996,153.39000000000013 327.66999999999996,153.39000000000013 C 327.66999999999996,153.39000000000013 326.31999999999994,154.68000000000012 324.47999999999996,155.17000000000013 C 322.64,155.66000000000014 319.93999999999994,155.48000000000013 316.00999999999993,155.48000000000013 C 312.0799999999999,155.48000000000013 309.49999999999994,158.61000000000013 309.55999999999995,160.45000000000013 C 309.61999999999995,162.29000000000013 311.3999999999999,165.67000000000013 316.18999999999994,164.93000000000012 C 315.93999999999994,166.53000000000011 319.31999999999994,167.6900000000001 323.61999999999995,169.84000000000012 C 318.94999999999993,169.2300000000001 311.09999999999997,170.64000000000013 308.38999999999993,171.4400000000001 C 305.68999999999994,172.24000000000012 300.0999999999999,171.0100000000001 300.0999999999999,171.0100000000001 L 302.1299999999999,179.7300000000001 C 302.1299999999999,179.7300000000001 305.6299999999999,179.9800000000001 306.6099999999999,181.8800000000001 C 307.5899999999999,183.78000000000011 311.3999999999999,183.7200000000001 311.3999999999999,183.7200000000001 C 311.3999999999999,183.7200000000001 308.63999999999993,186.05000000000013 303.99999999999994,185.7500000000001 C 307.03999999999996,190.3500000000001 322.41999999999996,186.03000000000011 322.41999999999996,187.4100000000001 C 322.41999999999996,188.7900000000001 314.21999999999997,193.8600000000001 310.44999999999993,195.15000000000012 C 308.05999999999995,195.96000000000012 305.0899999999999,195.7500000000001 303.2299999999999,195.48000000000013 C 303.7099999999999,193.18000000000012 303.7399999999999,191.11000000000013 302.8099999999999,190.73000000000013 C 300.8499999999999,189.93000000000012 296.6099999999999,191.34000000000015 293.3599999999999,192.76000000000013 C 290.1099999999999,194.17000000000013 284.2699999999999,192.88000000000014 284.2699999999999,192.88000000000014 C 284.2699999999999,192.88000000000014 289.17999999999995,191.65000000000015 290.1599999999999,189.38000000000014 C 286.0499999999999,188.64000000000013 282.2999999999999,183.24000000000015 280.5199999999999,183.00000000000014 C 278.73999999999995,182.75000000000014 275.7299999999999,185.09000000000015 273.63999999999993,184.78000000000014 C 271.54999999999995,184.47000000000014 271.67999999999995,182.82000000000014 270.87999999999994,180.91000000000014 C 270.0799999999999,179.01000000000013 271.55999999999995,177.84000000000015 270.87999999999994,175.08000000000013 C 270.19999999999993,172.32000000000014 266.88999999999993,170.11000000000013 266.0299999999999,168.39000000000013 C 265.1699999999999,166.67000000000013 264.9199999999999,161.45000000000013 264.9199999999999,158.14000000000013 C 264.9199999999999,154.82000000000014 266.1499999999999,143.28000000000014 263.7499999999999,143.34000000000012 C 261.3599999999999,143.40000000000012 262.45999999999987,147.27000000000012 262.27999999999986,152.06000000000012 C 262.09999999999985,156.8500000000001 260.98999999999984,157.59000000000012 260.3199999999999,160.7200000000001 C 259.6399999999999,163.8500000000001 261.4899999999999,162.1900000000001 260.8099999999999,166.06000000000012 C 260.1299999999999,169.93000000000012 258.5999999999999,173.7300000000001 255.83999999999986,176.87000000000012 C 253.50999999999988,176.93000000000012 251.84999999999985,179.8800000000001 250.06999999999988,181.11000000000013 C 248.28999999999985,182.34000000000012 247.48999999999984,184.12000000000012 248.83999999999986,184.61000000000013 C 250.18999999999988,185.10000000000014 251.22999999999985,186.45000000000013 250.6199999999999,187.0000000000001 C 250.00999999999988,187.55000000000013 249.93999999999988,189.09000000000012 251.78999999999985,189.33000000000013 C 253.62999999999988,189.58000000000013 254.91999999999985,193.14000000000013 254.2499999999999,194.43000000000012 C 253.57999999999987,195.7200000000001 246.07999999999987,194.68000000000012 242.88999999999987,195.04000000000013 C 239.69999999999987,195.41000000000014 237.85999999999984,197.31000000000014 235.94999999999987,196.70000000000013 C 234.04999999999984,196.09000000000012 231.58999999999986,194.06000000000014 230.48999999999984,195.47000000000014 C 229.37999999999982,196.88000000000014 230.73999999999984,198.42000000000013 231.09999999999985,199.71000000000015 C 231.46999999999986,201.00000000000014 232.87999999999988,202.04000000000016 232.87999999999988,204.19000000000014 C 226.3099999999999,203.39000000000013 219.9899999999999,206.95000000000013 218.32999999999987,207.01000000000013 C 216.66999999999985,207.07000000000014 214.58999999999986,206.76000000000013 213.96999999999986,207.56000000000014 C 213.35999999999984,208.36000000000016 212.49999999999983,209.03000000000014 210.40999999999985,208.17000000000016 C 208.31999999999982,207.31000000000014 204.81999999999982,207.86000000000016 204.81999999999982,207.86000000000016 C 204.81999999999982,207.86000000000016 207.5199999999998,204.24000000000015 210.52999999999986,199.69000000000017 C 213.53999999999985,195.15000000000018 211.32999999999987,193.18000000000018 211.69999999999982,191.83000000000015 C 212.06999999999982,190.48000000000016 218.2699999999998,187.29000000000016 218.69999999999982,182.01000000000016 C 216.73999999999984,182.26000000000016 211.94999999999982,186.43000000000015 211.94999999999982,186.43000000000015 C 211.94999999999982,186.43000000000015 213.23999999999984,182.99000000000015 214.15999999999985,180.78000000000014 C 215.0799999999998,178.57000000000014 214.58999999999986,174.33000000000015 214.09999999999985,173.78000000000014 C 213.60999999999984,173.23000000000013 211.88999999999982,172.80000000000015 213.60999999999984,171.39000000000016 C 215.3299999999998,169.98000000000016 215.87999999999982,166.05000000000015 215.87999999999982,166.05000000000015 C 215.87999999999982,166.05000000000015 201.81999999999982,178.82000000000016 200.95999999999987,178.57000000000016 C 200.09999999999985,178.32000000000016 199.35999999999984,175.25000000000017 199.35999999999984,175.25000000000017 C 199.35999999999984,175.25000000000017 202.11999999999983,175.07000000000016 203.77999999999986,174.64000000000016 C 205.43999999999983,174.21000000000015 207.02999999999986,170.22000000000017 207.02999999999986,168.87000000000015 C 207.02999999999986,167.52000000000015 204.13999999999987,168.13000000000014 203.70999999999987,167.64000000000016 C 203.27999999999986,167.15000000000015 204.38999999999987,166.90000000000015 205.42999999999984,165.92000000000016 C 206.46999999999986,164.94000000000017 205.60999999999984,161.25000000000017 202.78999999999985,160.33000000000015 C 199.96999999999986,159.41000000000017 195.17999999999984,157.51000000000016 194.43999999999988,155.73000000000016 C 193.69999999999987,153.95000000000016 194.43999999999988,150.57000000000016 194.43999999999988,150.57000000000016 C 194.43999999999988,150.57000000000016 199.34999999999985,151.25000000000017 203.70999999999987,153.64000000000016 C 208.06999999999988,156.03000000000014 216.4799999999999,159.53000000000014 227.77999999999986,154.13000000000017 C 222.4999999999999,155.42000000000016 213.65999999999985,153.88000000000017 210.27999999999986,150.14000000000016 C 213.40999999999985,150.69000000000017 218.19999999999987,147.50000000000017 219.3699999999999,141.85000000000016 C 220.53999999999985,136.20000000000016 218.07999999999987,136.32000000000016 216.3599999999999,137.12000000000018 C 214.63999999999987,137.9200000000002 211.07999999999987,137.9200000000002 209.6699999999999,136.38000000000017 C 208.25999999999988,134.85000000000016 204.44999999999987,134.48000000000016 203.77999999999992,133.06000000000017 C 203.0999999999999,131.65000000000018 200.39999999999992,129.68000000000018 199.1799999999999,128.52000000000018 C 197.94999999999993,127.35000000000018 196.5999999999999,126.06000000000019 197.51999999999992,122.26000000000018 C 203.9699999999999,126.00000000000017 210.1099999999999,122.81000000000017 210.1099999999999,122.81000000000017 C 210.1099999999999,122.81000000000017 208.63999999999993,121.34000000000017 204.45999999999992,119.92000000000017 C 206.4899999999999,119.92000000000017 215.93999999999988,112.25000000000017 214.58999999999992,108.56000000000017 C 213.2399999999999,104.88000000000017 204.33999999999992,105.67000000000017 202.12999999999988,106.53000000000017 C 199.9199999999999,107.39000000000017 195.89999999999992,106.71000000000018 194.14999999999992,105.89000000000017 C 192.39999999999992,105.06000000000017 193.31999999999988,104.32000000000018 193.2299999999999,103.03000000000017 C 193.13999999999993,101.74000000000017 191.75999999999993,102.48000000000017 191.38999999999993,100.64000000000017 C 191.01999999999992,98.80000000000017 191.93999999999994,97.05000000000017 193.50999999999993,98.15000000000018 C 195.07999999999993,99.25000000000017 197.55999999999995,99.62000000000018 200.0499999999999,97.51000000000018 C 202.5399999999999,95.39000000000017 204.00999999999993,91.16000000000018 201.88999999999993,89.87000000000018 C 199.76999999999992,88.58000000000017 197.2899999999999,85.91000000000018 195.7199999999999,82.41000000000018 C 194.14999999999992,78.91000000000018 190.00999999999993,78.63000000000018 190.00999999999993,78.63000000000018 C 190.00999999999993,78.63000000000018 190.18999999999994,66.93000000000018 190.00999999999993,61.32000000000018 C 189.82999999999993,55.70000000000019 189.45999999999992,40.60000000000018 188.25999999999993,40.60000000000018 C 187.05999999999995,40.60000000000018 187.70999999999992,51.93000000000018 187.61999999999995,55.98000000000019 C 187.52999999999992,60.030000000000186 185.77999999999992,66.02000000000018 184.51999999999992,69.06000000000019 C 183.25999999999993,72.1000000000002 183.60999999999996,78.41000000000018 183.60999999999996,78.41000000000018 C 183.60999999999996,78.41000000000018 180.93999999999994,75.60000000000018 176.37999999999994,76.06000000000019 C 179.69999999999993,77.3500000000002 181.48999999999995,83.01000000000019 181.07999999999993,83.61000000000018 C 180.66999999999996,84.21000000000018 176.70999999999992,87.43000000000018 176.56999999999994,90.52000000000018 C 172.42999999999995,88.59000000000017 165.51999999999992,90.52000000000018 165.51999999999992,90.52000000000018 C 165.51999999999992,90.52000000000018 173.02999999999992,91.53000000000019 175.50999999999993,94.89000000000019 C 168.92999999999995,94.38000000000018 166.34999999999997,97.94000000000018 166.34999999999997,97.94000000000018 C 166.34999999999997,97.94000000000018 170.21999999999997,97.45000000000019 174.38999999999993,97.20000000000019 C 178.55999999999995,96.95000000000019 183.10999999999996,97.69000000000018 184.51999999999992,99.59000000000019 C 182.06999999999994,104.26000000000019 177.08999999999992,106.40000000000019 174.19999999999993,106.40000000000019 C 171.30999999999995,106.40000000000019 169.09999999999997,108.73000000000019 167.01999999999992,108.67000000000019 C 164.92999999999995,108.61000000000018 162.84999999999997,109.78000000000019 157.06999999999994,110.14000000000019 C 159.45999999999992,111.12000000000019 162.22999999999996,111.67000000000019 164.49999999999994,111.74000000000018 C 166.76999999999998,111.80000000000018 167.31999999999994,113.83000000000018 170.57999999999998,114.56000000000017 C 173.82999999999998,115.30000000000017 174.32,114.87000000000018 177.45999999999998,117.63000000000017 C 180.58999999999997,120.39000000000017 184.45999999999998,120.33000000000017 184.51999999999998,121.01000000000016 C 184.57999999999998,121.69000000000017 183.34999999999997,123.16000000000017 180.83999999999997,123.71000000000016 C 178.31999999999994,124.26000000000016 173.16999999999996,125.61000000000017 170.02999999999997,125.61000000000017 C 166.89999999999998,125.61000000000017 165.29999999999995,127.15000000000018 162.53999999999996,127.51000000000018 C 159.77999999999997,127.88000000000018 155.10999999999996,126.10000000000018 153.93999999999994,127.51000000000018 C 152.76999999999998,128.9200000000002 153.13999999999993,131.19000000000017 157.12999999999994,133.22000000000017 C 161.11999999999995,135.25000000000017 168.60999999999996,138.50000000000017 168.60999999999996,138.50000000000017 C 168.60999999999996,138.50000000000017 164.06999999999994,140.96000000000018 162.15999999999997,142.37000000000018 C 160.25999999999993,143.78000000000017 157.85999999999996,144.58000000000018 153.19999999999993,144.9500000000002 C 148.52999999999997,145.3200000000002 141.77999999999997,145.0100000000002 141.77999999999997,145.0100000000002 C 141.77999999999997,145.0100000000002 145.33999999999997,148.14000000000019 147.85999999999996,148.4500000000002 C 150.38,148.7600000000002 150.92999999999995,149.68000000000018 152.21999999999997,151.0300000000002 C 153.51,152.3800000000002 164.31,152.5000000000002 170.95,152.5000000000002 C 177.57999999999998,152.5000000000002 179.72999999999996,150.1700000000002 179.72999999999996,150.1700000000002 C 179.72999999999996,150.1700000000002 179.04999999999995,153.55000000000018 176.83999999999997,153.9200000000002 C 174.63,154.2900000000002 174.38,155.27000000000018 170.26999999999998,157.36000000000018 C 166.15999999999997,159.4500000000002 164.74,159.5100000000002 158.48000000000002,159.4500000000002 C 152.22000000000003,159.39000000000019 149.32999999999998,158.59000000000017 140.98000000000002,157.61000000000018 C 147.67000000000002,164.00000000000017 160.87,163.14000000000019 160.87,163.14000000000019 C 160.87,163.14000000000019 155.70999999999998,166.15000000000018 149.63,166.46000000000018 C 157.12,169.78000000000017 163.38,166.77000000000018 165.09999999999997,167.0700000000002 C 166.82,167.3800000000002 169.08999999999997,169.3400000000002 171.78999999999996,170.3200000000002 C 174.48999999999995,171.30000000000018 175.28999999999996,173.21000000000018 178.47999999999996,174.5600000000002 C 181.66999999999996,175.9100000000002 184.44,175.3000000000002 184.19,175.9100000000002 C 183.94,176.5200000000002 181.85999999999996,176.4600000000002 179.58999999999997,176.89000000000019 C 177.32,177.3200000000002 175.65999999999997,179.78000000000017 171.06,180.08000000000018 C 166.45999999999998,180.39000000000019 160.01,177.87000000000018 158.22999999999996,178.7900000000002 C 156.45,179.71000000000018 157.67999999999995,185.18000000000018 159.45999999999998,188.3700000000002 C 161.23999999999995,191.5600000000002 169.46999999999997,194.1400000000002 174.32,194.9400000000002 C 179.16999999999996,195.7400000000002 182.12,198.0100000000002 182.23999999999995,199.9700000000002 C 182.35999999999996,201.9300000000002 173.33999999999997,207.1500000000002 169.46999999999997,208.0700000000002 C 165.59999999999997,208.99000000000018 162.71999999999997,207.7000000000002 158.90999999999997,208.0700000000002 C 155.09999999999997,208.4400000000002 151.96999999999997,212.61000000000018 154.17999999999995,216.7300000000002 C 156.39,220.8400000000002 164.91999999999996,225.33000000000018 164.91999999999996,225.33000000000018 C 164.91999999999996,225.33000000000018 160.61999999999995,227.11000000000018 157.48999999999995,226.62000000000018 C 154.35999999999996,226.13000000000017 148.64999999999998,226.93000000000018 152.26999999999998,231.53000000000017 C 154.60999999999996,234.51000000000016 162.67999999999995,236.12000000000018 168.09999999999997,236.89000000000019 L 167.54999999999995,237.30000000000018 C 167.54999999999995,237.30000000000018 160.73999999999995,242.7600000000002 155.82,245.34000000000017 C 150.89999999999998,247.9200000000002 138.96999999999997,251.43000000000018 138.96999999999997,251.43000000000018 C 138.96999999999997,251.43000000000018 144.16999999999996,244.66000000000017 143.47999999999996,242.50000000000017 C 142.78999999999996,240.34000000000017 140.57999999999998,239.32000000000016 136.47999999999996,240.31000000000017 C 146.66999999999996,235.40000000000018 145.38,228.89000000000019 144.57999999999998,228.40000000000018 C 143.77999999999997,227.91000000000017 142.30999999999995,227.97000000000017 140.40999999999997,229.44000000000017 C 138.51,230.91000000000017 131.32,232.26000000000016 128.5,231.77000000000018 C 125.67999999999999,231.28000000000017 120.21,228.7000000000002 120.21,228.7000000000002 C 120.21,228.7000000000002 124.25999999999999,229.3800000000002 125.86,228.7000000000002 C 127.46,228.02000000000018 128.25,226.9800000000002 131.2,226.74000000000018 C 134.14999999999998,226.49000000000018 137.33999999999997,222.75000000000017 135.01,217.16000000000017 C 144.40000000000003,216.18000000000018 152.26,206.91000000000017 150.97000000000003,206.29000000000016 C 149.68,205.68000000000015 144.95,210.89000000000016 140.72000000000003,211.20000000000016 C 142.87,205.37000000000015 144.10000000000002,197.75000000000017 141.09000000000003,197.08000000000015 C 138.08000000000004,196.40000000000015 135.93,201.99000000000015 133.97000000000003,202.30000000000015 C 132.01,202.61000000000016 129.73000000000002,204.69000000000014 127.52000000000001,205.06000000000014 C 125.31000000000002,205.43000000000015 124.70000000000002,205.00000000000014 115.82000000000001,204.57000000000014 C 121.07000000000001,203.83000000000013 125.00000000000001,198.12000000000015 125.74000000000001,193.76000000000013 C 126.48,189.40000000000012 125.80000000000001,187.37000000000015 124.33000000000001,186.95000000000013 C 122.86000000000001,186.52000000000012 121.51000000000002,188.12000000000012 120.03000000000002,188.12000000000012 C 118.56000000000002,188.12000000000012 116.90000000000002,187.4400000000001 115.18000000000002,186.59000000000012 C 113.46000000000002,185.7300000000001 108.55000000000003,186.59000000000012 108.55000000000003,186.59000000000012 C 108.55000000000003,186.59000000000012 113.95000000000003,182.6000000000001 115.36000000000003,180.20000000000013 C 116.77000000000002,177.81000000000014 120.39000000000003,174.86000000000013 126.78000000000003,168.90000000000012 C 124.88000000000002,168.59000000000012 118.98000000000003,171.6600000000001 118.98000000000003,171.6600000000001 C 118.98000000000003,171.6600000000001 118.18000000000004,168.84000000000012 115.97000000000003,167.9100000000001 C 113.76000000000003,166.99000000000012 107.80000000000003,169.7500000000001 107.37000000000003,169.5700000000001 C 106.94000000000003,169.3900000000001 106.57000000000004,168.7700000000001 106.94000000000003,167.2400000000001 C 108.54000000000002,167.2400000000001 111.24000000000002,160.3600000000001 111.61000000000003,157.2900000000001 C 111.98000000000003,154.2200000000001 112.22000000000003,146.6100000000001 111.00000000000003,144.8900000000001 C 109.77000000000002,143.1700000000001 108.79000000000003,141.5700000000001 109.28000000000003,139.2400000000001 C 109.77000000000002,136.91000000000008 108.42000000000003,134.5700000000001 104.86000000000003,130.6400000000001 C 104.86000000000003,130.6400000000001 104.06000000000003,146.2300000000001 103.82000000000002,147.5800000000001 C 103.58000000000003,148.9300000000001 102.90000000000002,149.0500000000001 100.57000000000002,154.3300000000001 C 98.24000000000002,159.6100000000001 99.83000000000003,172.2600000000001 98.36000000000003,169.8300000000001 C 96.89000000000003,167.4100000000001 93.45000000000003,165.8400000000001 90.62000000000003,166.1500000000001 C 87.80000000000004,166.4600000000001 87.67000000000003,169.9300000000001 88.78000000000003,171.5200000000001 C 89.88000000000002,173.1200000000001 93.29000000000003,177.97000000000008 95.87000000000003,182.2900000000001 C 98.45000000000003,186.62000000000012 97.19000000000003,189.2000000000001 97.19000000000003,189.2000000000001 C 97.19000000000003,189.2000000000001 95.16000000000003,189.5700000000001 90.50000000000003,192.3300000000001 C 85.83000000000003,195.0900000000001 88.47000000000003,202.0900000000001 88.47000000000003,202.0900000000001 C 88.47000000000003,202.0900000000001 83.56000000000003,199.57000000000008 79.94000000000003,200.00000000000009 C 85.22000000000003,205.4600000000001 96.95000000000003,207.4900000000001 96.95000000000003,207.4900000000001 C 96.95000000000003,207.4900000000001 86.57000000000004,210.9300000000001 80.44000000000003,210.25000000000009 C 74.30000000000003,209.57000000000008 60.24000000000002,209.64000000000007 59.93000000000002,209.64000000000007 C 59.62000000000002,209.64000000000007 73.19000000000003,217.87000000000006 73.19000000000003,217.87000000000006 C 73.19000000000003,217.87000000000006 67.30000000000003,216.34000000000006 63.67000000000003,218.12000000000006 C 67.42000000000003,221.86000000000007 77.73000000000003,221.99000000000007 77.73000000000003,221.99000000000007 C 77.73000000000003,221.99000000000007 82.10000000000004,224.61000000000007 88.00000000000003,224.89000000000007 C 87.95000000000003,227.74000000000007 95.17000000000003,231.20000000000007 95.17000000000003,231.20000000000007 C 95.17000000000003,231.20000000000007 83.75000000000003,236.60000000000008 79.82000000000004,237.22000000000008 C 75.89000000000003,237.8300000000001 74.05000000000004,235.01000000000008 71.72000000000004,236.97000000000008 C 69.39000000000004,238.9300000000001 71.23000000000005,243.11000000000007 75.77000000000004,243.23000000000008 C 72.58000000000004,243.97000000000008 57.84000000000004,247.65000000000006 57.84000000000004,247.65000000000006 C 57.84000000000004,247.65000000000006 69.50000000000004,248.76000000000008 71.59000000000005,249.74000000000007 C 73.68000000000005,250.72000000000006 82.76000000000005,249.37000000000006 86.69000000000004,249.37000000000006 C 90.62000000000005,249.37000000000006 90.01000000000003,251.83000000000007 89.27000000000004,253.42000000000007 C 88.53000000000004,255.02000000000007 77.48000000000003,259.07000000000005 71.34000000000005,259.80000000000007 C 65.20000000000005,260.5400000000001 57.83000000000005,261.64000000000004 57.83000000000005,261.64000000000004 C 57.83000000000005,261.64000000000004 62.00000000000005,261.76000000000005 67.53000000000004,265.08000000000004 C 73.06000000000004,268.40000000000003 82.88000000000004,270.61 82.88000000000004,270.61 L 73.30000000000004,274.17 C 73.30000000000004,274.17 84.96000000000004,274.17 96.26000000000003,276.5 C 91.84000000000003,280.18 76.74000000000004,288.66 64.21000000000004,290.62 C 66.42000000000003,292.34000000000003 80.54000000000003,299.09000000000003 92.45000000000003,292.22 C 88.64000000000003,297.75 75.38000000000004,304.13000000000005 69.49000000000002,304.13000000000005 C 63.60000000000002,304.13000000000005 58.560000000000024,299.22 58.560000000000024,299.22 C 58.560000000000024,299.22 58.810000000000024,308.31 69.73000000000002,312.24 C 65.19000000000001,312.12 56.59000000000002,314.7 56.59000000000002,314.7 C 56.59000000000002,314.7 77.96000000000002,319.12 96.62000000000002,314.09 C 93.43000000000002,321.33 83.60000000000002,323.90999999999997 76.36000000000001,325.76 C 69.12000000000002,327.59999999999997 66.66000000000001,325.76 54.63000000000001,327.59999999999997 C 67.52000000000001,337.54999999999995 80.91000000000001,336.80999999999995 80.91000000000001,336.80999999999995 C 80.91000000000001,336.80999999999995 78.09000000000002,340.48999999999995 59.790000000000006,342.4599999999999 C 41.49000000000001,344.4199999999999 29.580000000000005,334.9699999999999 29.580000000000005,334.9699999999999 C 29.580000000000005,334.9699999999999 36.7,347.3699999999999 65.8,354.4899999999999 C 53.15,359.2799999999999 38.42,360.6299999999999 22.949999999999996,356.6999999999999 C 26.139999999999997,361.2399999999999 39.16,363.57999999999987 39.16,363.57999999999987 C 39.16,363.57999999999987 25.9,364.5599999999999 13.739999999999995,358.41999999999985 C 20.739999999999995,373.14999999999986 29.699999999999996,373.76999999999987 32.39999999999999,374.0099999999998 C 35.099999999999994,374.2599999999998 47.629999999999995,384.5699999999998 47.629999999999995,384.5699999999998 C 47.629999999999995,384.5699999999998 25.769999999999996,386.16999999999985 8.459999999999994,377.1999999999998 C 14.349999999999994,388.73999999999984 33.019999999999996,395.85999999999984 33.019999999999996,395.85999999999984 C 33.019999999999996,395.85999999999984 27.619999999999997,396.46999999999986 16.569999999999997,392.17999999999984 C 23.749999999999996,399.54999999999984 46.41,409.36999999999983 83.0,406.17999999999984 C 75.14,417.22999999999985 36.34,425.8299999999998 0.0,414.27999999999986 C 22.1,437.85999999999984 46.29,433.79999999999984 46.29,433.79999999999984 C 46.29,433.79999999999984 34.26,451.23999999999984 2.5799999999999983,446.1999999999998 C 13.999999999999998,459.4599999999998 37.57,458.4799999999998 37.57,458.4799999999998 L 712.17,458.4799999999998 L 692.06,443.8399999999998 C 706.6999999999999,451.3899999999998 732.2099999999999,453.4199999999998 740.5,446.4199999999998 C 728.8,449.8299999999998 714.99,437.6699999999998 714.99,437.6699999999998 C 714.99,437.6699999999998 720.42,438.12999999999977 724.2,435.4599999999998 C 727.98,432.7899999999998 730.9200000000001,431.7799999999998 738.2,430.3999999999998 C 745.48,429.0199999999998 748.51,423.8599999999998 748.51,423.8599999999998 C 748.51,423.8599999999998 730.0,424.5999999999998 724.84,424.4099999999998 C 719.6800000000001,424.2299999999998 712.0400000000001,424.2299999999998 696.6600000000001,411.0599999999998 C 712.7800000000001,418.7999999999998 741.7800000000001,420.44999999999976 752.47,412.43999999999977 C 744.83,414.27999999999975 735.53,410.68999999999977 735.53,410.68999999999977 C 735.53,410.68999999999977 741.15,409.58999999999975 747.3199999999999,407.18999999999977 C 753.53,404.8699999999998 759.7299999999999,396.3699999999998 759.7299999999999,396.3699999999998 L 759.73,396.37 M 139.10000000000002,266.92 C 139.10000000000002,266.92 144.26000000000005,263.79 148.77000000000004,260.2 C 154.3,261.95 161.02000000000004,260.2 161.02000000000004,260.2 C 161.02000000000004,260.2 149.14000000000004,267.57 139.10000000000002,266.92 L 139.10000000000002,266.92 M 160.09000000000003,284.33000000000004 C 153.83000000000004,282.03000000000003 149.32000000000005,277.42 149.32000000000005,277.42 C 156.60000000000002,279.35 163.69000000000005,275.58000000000004 165.99000000000007,273.28000000000003 C 165.99000000000007,276.96000000000004 159.91000000000003,278.99 160.09000000000003,284.33000000000004 M 168.26000000000005,241.11000000000004 C 168.26000000000005,241.11000000000004 168.95000000000005,238.75000000000003 169.46000000000004,237.13000000000005 C 171.73000000000002,237.42000000000004 173.29000000000002,237.55000000000004 173.29000000000002,237.55000000000004 L 168.26000000000005,241.11000000000004 M 214.43000000000006,220.88000000000005 L 224.10000000000002,222.81000000000006 C 224.10000000000002,222.81000000000006 213.51000000000005,224.01000000000005 206.79000000000002,226.22000000000006 C 210.93,224.28000000000006 214.43,220.88000000000005 214.43,220.88000000000005 L 214.43000000000006,220.88000000000005 M 235.24000000000007,248.87000000000006 C 236.07000000000005,250.80000000000007 226.22000000000003,267.6600000000001 226.22000000000003,267.6600000000001 C 226.22000000000003,267.6600000000001 229.07000000000005,250.8100000000001 226.77000000000004,248.69000000000008 C 224.47000000000003,246.57000000000008 215.44000000000005,245.19000000000008 215.44000000000005,245.19000000000008 C 222.99000000000007,243.35000000000008 228.06000000000006,232.48000000000008 228.06000000000006,232.48000000000008 C 228.06000000000006,232.48000000000008 231.84000000000003,235.33000000000007 233.95000000000005,235.33000000000007 C 230.82000000000005,238.28000000000006 233.40000000000003,241.59000000000006 235.70000000000005,242.70000000000007 C 233.49,244.54000000000008 234.41000000000003,246.94000000000008 235.24,248.87000000000006 L 235.24000000000007,248.87000000000006 M 302.61000000000007,197.92000000000007 C 308.0200000000001,199.7800000000001 316.69000000000005,197.57000000000008 320.0900000000001,196.56000000000006 C 318.12000000000006,197.20000000000005 314.6300000000001,198.43000000000006 312.9600000000001,199.51000000000005 C 310.5700000000001,201.08000000000004 305.6800000000001,202.83000000000004 300.6200000000001,202.06000000000006 C 301.3100000000001,201.26000000000005 302.0500000000001,199.66000000000005 302.6100000000001,197.92000000000007 L 302.61000000000007,197.92000000000007 M 313.5200000000001,224.16000000000008 C 315.1200000000001,225.63000000000008 307.5000000000001,233.3700000000001 293.5100000000001,238.6500000000001 C 303.5800000000001,232.0200000000001 308.6100000000001,221.0900000000001 305.5400000000001,219.3700000000001 C 302.4700000000001,217.6500000000001 299.7700000000001,221.5200000000001 296.5800000000001,220.8700000000001 C 293.3900000000001,220.2300000000001 292.6500000000001,219.4900000000001 290.5600000000001,219.6100000000001 C 288.47000000000014,219.7300000000001 287.1200000000001,216.9100000000001 284.42000000000013,217.1500000000001 C 281.72000000000014,217.4000000000001 279.8800000000001,216.9000000000001 279.8800000000001,216.9000000000001 C 279.8800000000001,216.9000000000001 288.9700000000001,211.25000000000009 291.3000000000001,211.6200000000001 C 293.6300000000001,211.9900000000001 294.0000000000001,215.3000000000001 301.0000000000001,215.9200000000001 C 308.0000000000001,216.53000000000011 311.5600000000001,217.8800000000001 316.72000000000014,217.7600000000001 C 311.92000000000013,219.37000000000012 311.92000000000013,222.6900000000001 313.52000000000015,224.1600000000001 L 313.5200000000001,224.16000000000008 M 401.1000000000001,187.0800000000001 C 402.30000000000007,186.7100000000001 405.7000000000001,187.3600000000001 408.38000000000005,184.9600000000001 C 411.05000000000007,182.5700000000001 413.91,178.6100000000001 414.00000000000006,177.0400000000001 C 414.09000000000003,175.4700000000001 415.93000000000006,174.1900000000001 417.96000000000004,174.5500000000001 C 419.99,174.9200000000001 427.54,176.6700000000001 430.94000000000005,175.47000000000008 C 424.68000000000006,173.63000000000008 423.11000000000007,170.6800000000001 423.11000000000007,170.6800000000001 L 438.6700000000001,172.1500000000001 C 429.9200000000001,179.5200000000001 409.0200000000001,190.2000000000001 406.1600000000001,190.1100000000001 C 403.31000000000006,190.0300000000001 399.9000000000001,187.4500000000001 401.1000000000001,187.0800000000001 M 433.24000000000007,195.5500000000001 C 431.2100000000001,197.1500000000001 423.2300000000001,201.0100000000001 423.2300000000001,201.0100000000001 C 423.2300000000001,201.0100000000001 426.4200000000001,194.3200000000001 424.4000000000001,191.7400000000001 C 424.4000000000001,191.7400000000001 430.9100000000001,190.5100000000001 439.0100000000001,188.8500000000001 C 434.4000000000001,190.5800000000001 435.2600000000001,193.9500000000001 433.2400000000001,195.5500000000001 L 433.24000000000007,195.5500000000001 M 463.44000000000005,259.7800000000001 L 455.38000000000005,251.45000000000007 C 455.38000000000005,251.45000000000007 456.8500000000001,249.61000000000007 458.47,248.83000000000007 C 460.08000000000004,248.05000000000007 461.79,248.83000000000007 463.03000000000003,249.98000000000008 C 464.27000000000004,251.13000000000008 463.49,259.32000000000005 463.44000000000005,259.7800000000001 M 481.03000000000003,200.5200000000001 C 480.66,194.9000000000001 481.03000000000003,192.7800000000001 481.03000000000003,192.7800000000001 C 484.81,198.7700000000001 491.25000000000006,203.00000000000009 491.25000000000006,203.00000000000009 C 491.25000000000006,203.00000000000009 482.32000000000005,201.44000000000008 481.03000000000003,200.5200000000001 M 536.75,296.4800000000001 C 532.7,295.6500000000001 531.69,294.9100000000001 529.2,297.2200000000001 C 526.71,299.5200000000001 534.1700000000001,308.4600000000001 534.1700000000001,308.4600000000001 C 534.1700000000001,308.4600000000001 525.2400000000001,304.0400000000001 522.0100000000001,302.5700000000001 C 518.7900000000001,301.1000000000001 515.2900000000001,305.1500000000001 513.6300000000001,303.4900000000001 C 510.13000000000017,299.9900000000001 508.84000000000015,297.5000000000001 509.1200000000002,296.5800000000001 C 509.40000000000015,295.6600000000001 513.6300000000001,293.7200000000001 519.5300000000001,293.9100000000001 C 525.4200000000001,294.0900000000001 527.08,292.7100000000001 529.7500000000001,292.7100000000001 C 532.4200000000001,292.7100000000001 537.3000000000001,293.9100000000001 539.5100000000001,293.8200000000001 C 541.7200000000001,293.73000000000013 543.6500000000001,293.4500000000001 543.6500000000001,293.4500000000001 L 545.0300000000001,296.2100000000001 C 545.0300000000001,296.2100000000001 540.8000000000001,297.3100000000001 536.7500000000001,296.4800000000001 L 536.75,296.4800000000001 M 564.19,279.9100000000001 C 557.5600000000001,282.6700000000001 540.8000000000001,283.9600000000001 536.75,282.86000000000007 C 532.7,281.76000000000005 514.1,266.8400000000001 512.62,265.9200000000001 C 512.62,265.9200000000001 518.7,265.43000000000006 521.4,266.6600000000001 C 524.1,267.8900000000001 523.73,267.8900000000001 529.01,268.62000000000006 C 534.29,269.36000000000007 537.73,266.5300000000001 540.8,268.01000000000005 C 543.87,269.4800000000001 550.25,269.61000000000007 552.7099999999999,268.38000000000005 C 555.17,267.15000000000003 560.9399999999999,270.1000000000001 564.3699999999999,267.64000000000004 C 567.81,265.18000000000006 574.6799999999998,265.92 574.6799999999998,265.92 C 574.6799999999998,265.92 570.8199999999998,277.14000000000004 564.1899999999998,279.91 L 564.19,279.9100000000001 M 583.1600000000001,357.82000000000005 C 583.1600000000001,357.82000000000005 575.9800000000001,349.90000000000003 571.0000000000001,349.44000000000005 C 580.3900000000001,346.03000000000003 587.9400000000002,341.06000000000006 587.9400000000002,341.06000000000006 L 583.1600000000001,357.82000000000005 M 656.22,323.0 C 652.78,325.7 654.87,328.28 654.87,328.28 C 654.87,328.28 645.29,327.04999999999995 635.96,320.17999999999995 C 646.64,317.84999999999997 656.22,322.99999999999994 656.22,322.99999999999994 L 656.22,323.0 M 640.13,393.36 L 644.92,384.64 L 652.41,384.15 L 640.13,393.36 M 641.45,374.58000000000004 L 641.45,363.25000000000006 C 641.45,363.25000000000006 656.09,366.75000000000006 670.1800000000001,364.45000000000005 C 657.85,371.81000000000006 641.45,374.58000000000004 641.45,374.58000000000004 M 669.36,312.51000000000005 C 665.12,311.59000000000003 658.12,306.62000000000006 655.5500000000001,305.2300000000001 C 652.97,303.8500000000001 649.7500000000001,302.01000000000005 647.45,301.18000000000006 C 645.1500000000001,300.3500000000001 642.2900000000001,299.52000000000004 646.25,297.82000000000005 C 650.21,296.12000000000006 661.72,295.20000000000005 661.72,295.20000000000005 C 661.72,295.20000000000005 666.51,300.45000000000005 670.1,300.45000000000005 C 670.1,300.45000000000005 663.3100000000001,303.12000000000006 656.47,301.9200000000001 C 676.09,311.2200000000001 681.7,304.30000000000007 681.7,304.30000000000007 L 682.34,311.5900000000001 C 679.21,314.2600000000001 673.59,313.43000000000006 669.36,312.5100000000001 L 669.36,312.51000000000005" id="path301"/>
</svg>
