<?xml version="1.0" ?>
<svg xmlns="http://www.w3.org/2000/svg" xmlns:ev="http://www.w3.org/2001/xml-events" xmlns:inkscape="http://www.inkscape.org/namespaces/inkscape" xmlns:sodipodi="http://sodipodi.sourceforge.net/DTD/sodipodi-0.dtd" xmlns:svg="http://www.w3.org/2000/svg" xmlns:xlink="http://www.w3.org/1999/xlink" baseProfile="full" height="424" id="svg4" inkscape:version="1.2.2 (1:1.2.2+202212051550+b0a8486541)" sodipodi:docname="forest28.svg" transform="scale(0.2358490566037736 0.2358490566037736) translate(-367.0 -212.0)" version="1.1" viewBox="0 0 734 424" width="734" xml:space="preserve">
	<defs/>
	<path d="M 1.1707577515639251,423.11 L 733.7207577515638,423.11 L 733.7207577515638,421.27000000000004 L 661.700757751564,421.27000000000004 C 661.700757751564,421.27000000000004 646.690757751564,414.24000000000007 639.140757751564,414.70000000000005 C 640.610757751564,412.21000000000004 636.4707577515641,412.12000000000006 632.510757751564,410.74000000000007 L 628.550757751564,409.36000000000007 C 628.550757751564,409.36000000000007 636.560757751564,410.2800000000001 640.9807577515639,406.7800000000001 C 645.4007577515639,403.2800000000001 644.3907577515639,398.12000000000006 643.0107577515639,398.12000000000006 C 641.6307577515639,398.12000000000006 640.340757751564,400.51000000000005 639.330757751564,400.33000000000004 C 638.320757751564,400.15000000000003 627.450757751564,395.73 623.770757751564,388.45000000000005 C 631.410757751564,393.79 643.480757751564,388.45000000000005 643.480757751564,388.45000000000005 C 643.480757751564,388.45000000000005 638.9707577515641,387.16 636.390757751564,387.44000000000005 C 645.140757751564,385.32000000000005 646.700757751564,381.18000000000006 646.700757751564,381.18000000000006 C 646.700757751564,381.18000000000006 637.1207577515639,384.31000000000006 633.350757751564,382.4700000000001 C 629.570757751564,380.6300000000001 628.100757751564,379.06000000000006 628.100757751564,379.06000000000006 C 628.100757751564,379.06000000000006 633.350757751564,379.70000000000005 637.590757751564,378.05000000000007 C 622.670757751564,377.13000000000005 617.2407577515639,370.5900000000001 616.5007577515639,367.74000000000007 C 615.7607577515639,364.89000000000004 613.9207577515639,361.94000000000005 615.1207577515639,361.4800000000001 C 616.320757751564,361.0200000000001 619.820757751564,364.06000000000006 625.9907577515639,361.4800000000001 C 624.950757751564,360.31000000000006 621.8807577515639,359.76000000000005 621.8807577515639,359.76000000000005 C 621.8807577515639,359.76000000000005 627.470757751564,357.7300000000001 627.470757751564,355.46000000000004 C 627.470757751564,353.19000000000005 622.7407577515639,355.34000000000003 620.9007577515639,354.54 C 619.0607577515639,353.74 614.9407577515639,350.18 614.9407577515639,349.20000000000005 C 614.9407577515639,348.22 620.1607577515639,347.30000000000007 619.7907577515639,344.35 C 619.4207577515639,341.40000000000003 614.9407577515639,343.92 612.7907577515639,342.39000000000004 C 610.6407577515639,340.86000000000007 613.6507577515639,338.15000000000003 611.3207577515639,335.15000000000003 C 613.7107577515638,334.41 613.7107577515638,332.39000000000004 613.2807577515639,331.53000000000003 C 612.850757751564,330.67 610.3907577515639,329.32000000000005 610.6407577515639,326.99 C 610.8907577515639,324.66 610.9507577515639,324.72 611.8707577515639,324.78000000000003 C 612.7907577515639,324.84000000000003 612.4807577515639,322.88000000000005 611.6207577515639,322.57000000000005 C 610.7607577515639,322.26000000000005 607.940757751564,320.6700000000001 607.8807577515639,319.50000000000006 C 607.820757751564,318.33000000000004 607.330757751564,314.65000000000003 607.6307577515639,312.38000000000005 C 607.9407577515639,310.11000000000007 606.8907577515639,302.68000000000006 606.6507577515639,302.56000000000006 C 606.4007577515639,302.44000000000005 605.5507577515639,308.52000000000004 605.6107577515639,312.44000000000005 C 605.6707577515639,316.36000000000007 604.320757751564,318.21000000000004 604.1407577515639,320.4200000000001 C 603.960757751564,322.63000000000005 604.7507577515639,325.3300000000001 604.3207577515639,326.56000000000006 C 603.8907577515639,327.7900000000001 602.2307577515638,331.3500000000001 603.1507577515639,333.01000000000005 C 604.0707577515639,334.6700000000001 604.8707577515639,334.85 603.5207577515639,335.53000000000003 C 602.1707577515639,336.21000000000004 599.1607577515639,337.68 599.840757751564,339.15000000000003 C 600.5207577515639,340.62000000000006 601.3807577515639,340.44000000000005 601.3807577515639,340.44000000000005 C 601.3807577515639,340.44000000000005 597.700757751564,342.47 595.0007577515639,342.77000000000004 C 592.3007577515639,343.08000000000004 592.5407577515639,345.66 594.570757751564,346.64000000000004 C 596.600757751564,347.62000000000006 598.560757751564,349.1 599.420757751564,349.1 C 600.280757751564,349.1 601.880757751564,347.93 602.310757751564,348.12 C 602.7407577515639,348.31 603.310757751564,351.74 601.010757751564,353.31 C 598.7107577515641,354.88 598.7107577515641,353.68 596.9607577515641,354.97 C 595.2107577515641,356.26000000000005 595.7207577515641,357.73 593.9707577515641,357.92 C 592.2207577515641,358.1 591.390757751564,359.21000000000004 591.7107577515641,360.18 C 592.0307577515641,361.15000000000003 594.750757751564,361.79 596.0407577515641,361.79 C 597.3307577515641,361.79 599.9507577515641,361.56 599.9507577515641,361.56 C 599.9507577515641,361.56 598.3407577515641,365.38 592.9007577515641,368.88 C 599.2507577515642,369.57 602.6207577515642,364.51 602.6207577515642,364.51 C 602.6207577515642,364.51 598.3807577515641,374.09999999999997 592.2407577515642,377.05 C 586.1007577515642,380.0 583.2207577515642,379.2 582.9707577515642,380.43 C 579.8407577515642,380.61 579.1607577515642,380.25 579.1607577515642,380.25 C 579.1607577515642,380.25 581.8007577515642,382.71 586.1607577515642,383.44 C 590.5207577515642,384.18 592.6707577515642,383.62 592.6707577515642,383.62 C 592.6707577515642,383.62 589.2907577515642,385.65 586.4707577515642,385.58 C 591.9307577515642,387.3 596.2307577515642,384.9 596.2307577515642,384.9 C 596.2307577515642,384.9 592.7907577515641,389.69 588.4307577515642,389.5 C 590.0307577515642,392.02 592.1107577515642,391.89 592.1107577515642,391.89 C 592.1107577515642,391.89 589.1607577515641,402.39 575.1707577515641,400.18 C 582.9107577515641,398.89 581.8907577515641,394.6 583.4007577515641,393.06 C 586.5307577515641,389.87 586.9607577515641,387.1 585.8607577515642,386.98 C 584.7507577515642,386.86 569.6507577515641,392.51 561.7307577515642,387.41 C 569.5907577515642,388.82000000000005 575.7307577515642,385.94 575.7307577515642,385.94 C 575.7307577515642,385.94 568.1207577515642,384.77 566.6407577515641,383.36 C 565.1707577515641,381.95 569.3407577515642,381.03000000000003 572.1007577515642,381.27000000000004 C 574.8607577515642,381.52000000000004 582.2307577515642,378.75000000000006 583.8907577515641,375.99000000000007 C 585.5507577515641,373.2300000000001 582.9707577515642,370.0300000000001 582.9707577515642,370.0300000000001 C 582.9707577515642,370.0300000000001 588.2507577515642,368.0000000000001 588.8007577515642,364.6900000000001 C 580.8807577515643,369.0500000000001 576.5207577515642,369.60000000000014 572.6507577515642,368.0100000000001 C 568.7807577515642,366.4100000000001 567.7407577515643,367.2100000000001 565.5907577515643,366.5400000000001 C 563.4407577515643,365.87000000000006 560.1307577515643,362.43000000000006 560.1307577515643,362.43000000000006 C 560.1307577515643,362.43000000000006 562.1607577515642,360.96000000000004 562.7707577515642,359.36000000000007 C 569.1607577515642,361.69000000000005 574.8007577515642,360.5300000000001 576.5807577515642,357.2100000000001 C 578.3607577515642,353.8900000000001 575.7207577515642,351.2500000000001 572.6507577515642,352.5400000000001 C 569.5807577515642,353.8300000000001 561.1707577515642,346.4000000000001 561.1707577515642,346.4000000000001 C 561.1707577515642,346.4000000000001 570.3207577515642,347.7500000000001 577.0107577515643,343.0800000000001 C 573.1407577515643,343.5100000000001 571.0507577515642,343.5700000000001 571.0507577515642,343.5700000000001 C 571.0507577515642,343.5700000000001 578.3607577515642,340.0100000000001 578.4207577515642,333.5000000000001 C 578.5407577515642,332.2700000000001 575.6607577515642,334.85000000000014 571.4207577515642,336.0800000000001 C 567.1807577515642,337.3100000000001 557.7307577515642,332.1500000000001 557.7307577515642,332.1500000000001 C 557.7307577515642,332.1500000000001 565.3407577515642,329.0200000000001 565.3407577515642,324.3500000000001 C 565.3407577515642,319.68000000000006 559.7507577515642,322.4200000000001 556.3507577515642,320.11000000000007 C 552.9407577515642,317.81000000000006 551.7107577515642,316.7900000000001 551.8407577515642,316.37000000000006 C 551.9607577515642,315.94000000000005 557.7607577515641,313.7900000000001 560.3907577515641,306.75000000000006 C 555.9707577515642,308.09000000000003 554.4507577515641,310.80000000000007 554.4507577515641,310.80000000000007 C 554.4507577515641,310.80000000000007 554.5407577515641,299.24000000000007 554.2707577515641,296.11000000000007 C 553.9907577515642,292.9800000000001 550.9507577515641,292.9800000000001 550.9507577515641,291.6000000000001 C 550.9507577515641,290.2200000000001 550.4307577515641,277.5100000000001 547.4207577515641,277.69000000000005 C 544.4107577515641,277.87000000000006 546.1907577515641,283.34000000000003 547.1707577515641,284.38000000000005 C 548.1507577515641,285.4200000000001 547.230757751564,287.88000000000005 545.9407577515641,289.97 C 544.6507577515641,292.06 544.5307577515641,294.51000000000005 544.5307577515641,295.56 C 544.5307577515641,296.6 542.2007577515641,299.0 542.2007577515641,299.67 C 542.2007577515641,300.34000000000003 544.230757751564,303.78000000000003 543.610757751564,306.06 C 543.000757751564,308.33 541.890757751564,305.45 542.380757751564,310.05 C 542.870757751564,314.65000000000003 545.7007577515641,312.69 545.3307577515641,314.16 C 544.9607577515641,315.63000000000005 543.000757751564,314.8 541.4407577515641,315.70000000000005 C 539.870757751564,316.6 539.870757751564,317.50000000000006 538.9307577515641,317.52000000000004 C 537.990757751564,317.54 533.110757751564,316.85 532.0007577515642,318.21000000000004 C 530.8907577515641,319.57000000000005 530.9907577515642,320.47 530.9907577515642,320.47 C 530.9907577515642,320.47 529.0307577515641,319.62 527.7707577515641,318.01000000000005 C 529.0807577515641,322.71000000000004 530.9207577515641,323.77000000000004 532.6007577515642,324.50000000000006 C 534.2807577515641,325.24000000000007 536.3507577515642,324.9800000000001 537.2307577515642,325.86000000000007 C 536.2407577515642,327.0800000000001 532.0707577515642,327.2200000000001 532.0707577515642,327.2200000000001 C 532.0707577515642,327.2200000000001 534.9707577515642,328.4200000000001 538.8407577515642,328.3900000000001 C 542.7107577515642,328.3700000000001 545.8207577515642,328.3200000000001 545.8207577515642,328.3200000000001 C 545.8207577515642,328.3200000000001 541.9907577515642,330.8300000000001 538.5807577515642,332.2400000000001 C 535.1707577515642,333.65000000000015 535.4507577515642,334.73000000000013 533.4807577515642,334.85000000000014 C 531.5207577515641,334.97000000000014 530.4107577515641,335.16000000000014 530.0707577515642,336.57000000000016 C 529.7307577515642,337.9800000000002 531.2407577515642,340.07000000000016 534.5507577515642,340.53000000000014 C 537.8707577515643,340.9900000000001 542.8107577515642,340.6200000000001 542.8107577515642,340.6200000000001 C 542.8107577515642,340.6200000000001 544.9907577515642,341.6300000000001 543.0907577515642,343.1400000000001 C 541.1907577515642,344.6400000000001 537.9907577515642,344.5200000000001 536.6707577515642,345.9600000000001 C 535.3507577515642,347.4000000000001 534.2807577515642,347.7700000000001 532.0707577515642,347.7700000000001 C 529.8607577515642,347.7700000000001 529.4607577515642,349.1200000000001 527.8007577515642,349.2100000000001 C 526.1407577515643,349.30000000000007 523.7507577515643,349.2100000000001 523.0107577515643,350.5900000000001 C 522.2707577515642,351.9700000000001 522.7307577515643,353.7800000000001 522.7307577515643,353.7800000000001 C 522.7307577515643,353.7800000000001 518.8307577515643,353.3500000000001 517.4207577515643,352.49000000000007 C 520.2707577515644,355.62000000000006 525.9207577515643,358.8400000000001 530.4007577515644,358.6000000000001 C 534.8807577515644,358.3500000000001 537.6407577515644,357.86000000000007 537.6407577515644,357.86000000000007 C 537.6407577515644,357.86000000000007 538.4407577515643,359.5200000000001 539.6707577515643,359.5200000000001 C 536.1707577515643,361.7900000000001 535.6207577515644,363.3900000000001 532.4907577515644,363.5100000000001 C 529.3607577515644,363.6300000000001 517.5707577515644,363.5100000000001 512.1707577515643,358.7200000000001 C 516.7707577515644,366.0900000000001 521.9907577515644,367.62000000000006 521.9907577515644,367.62000000000006 C 521.9907577515644,367.62000000000006 516.2807577515644,367.44000000000005 515.3007577515643,369.89000000000004 C 514.3207577515643,372.35 516.1007577515643,376.15000000000003 520.5807577515643,376.77000000000004 C 525.0607577515643,377.38000000000005 525.5507577515643,379.29 527.2707577515644,380.09000000000003 C 528.9907577515644,380.89000000000004 536.0507577515643,381.32000000000005 536.0507577515643,381.32000000000005 C 536.0507577515643,381.32000000000005 533.4407577515643,386.1700000000001 528.4707577515643,386.26000000000005 C 523.5007577515643,386.35 506.00075775156427,381.47 506.00075775156427,381.47 C 506.00075775156427,381.47 512.1707577515642,388.38000000000005 517.5107577515643,390.49 C 506.1807577515643,390.40000000000003 475.9807577515643,380.82 470.54075775156423,374.37 C 480.1207577515642,375.75 498.54075775156423,373.73 505.90075775156424,370.59000000000003 C 481.8607577515642,368.75000000000006 453.87075775156427,358.34000000000003 446.96075775156424,351.62 C 465.01075775156426,357.15 479.7407577515643,351.99 479.7407577515643,351.99 C 479.7407577515643,351.99 468.2307577515643,344.99 460.4007577515643,341.49 C 470.8107577515643,341.40000000000003 476.7907577515643,346.37 481.8607577515643,347.66 C 486.9307577515643,348.95000000000005 510.4107577515643,350.88000000000005 517.1307577515643,347.11 C 523.8507577515643,343.33000000000004 528.3707577515643,337.72 526.9807577515643,336.61 C 525.6007577515643,335.5 519.8907577515643,338.73 511.88075775156426,338.18 C 503.87075775156427,337.63 495.03075775156424,332.01 488.77075775156425,330.63 C 482.51075775156426,329.25 480.85075775156423,324.0 480.85075775156423,324.0 C 480.85075775156423,324.0 482.2307577515642,324.55 489.78075775156424,321.88 C 497.33075775156425,319.21 502.03075775156424,321.14 507.28075775156424,319.12 C 512.5307577515642,317.09000000000003 521.0007577515643,312.67 518.8807577515643,309.73 C 516.7607577515643,306.78000000000003 506.82075775156426,312.40000000000003 500.28075775156424,311.57 C 493.7407577515642,310.74 483.89075775156425,309.82 477.90075775156424,307.52 C 471.91075775156423,305.21999999999997 465.84075775156424,305.85999999999996 460.6807577515642,303.01 C 455.5207577515642,300.15999999999997 451.47075775156424,297.02 446.1307577515642,295.92 C 440.79075775156423,294.81 435.9107577515642,284.32 435.9107577515642,284.32 C 435.9107577515642,284.32 443.0907577515642,284.87 445.67075775156417,283.03 C 448.25075775156415,281.19 448.1607577515642,279.61999999999995 448.1607577515642,279.61999999999995 C 448.1607577515642,279.61999999999995 461.42075775156417,284.40999999999997 469.1607577515642,284.9599999999999 C 476.9007577515642,285.50999999999993 479.0107577515642,283.2999999999999 482.05075775156416,282.4699999999999 C 485.0907577515642,281.63999999999993 491.17075775156417,281.2699999999999 491.5407577515642,278.87999999999994 C 491.9107577515642,276.48999999999995 465.75075775156415,267.54999999999995 465.75075775156415,267.54999999999995 C 465.75075775156415,267.54999999999995 480.39075775156414,267.91999999999996 492.36075775156417,264.41999999999996 C 479.6507577515642,264.50999999999993 456.8407577515642,262.15 442.48075775156417,254.40999999999997 C 428.11075775156417,246.66999999999996 425.0407577515642,240.77999999999997 425.0407577515642,240.77999999999997 C 425.0407577515642,240.77999999999997 433.1407577515642,241.94999999999996 435.0807577515642,239.91999999999996 C 437.0207577515642,237.88999999999996 427.6207577515642,229.87999999999997 427.6207577515642,229.87999999999997 C 427.6207577515642,229.87999999999997 436.9207577515642,233.00999999999996 442.8107577515642,232.91999999999996 C 448.7007577515642,232.82999999999996 457.91075775156423,233.09999999999997 466.1107577515642,223.52999999999997 C 460.22075775156424,222.41999999999996 452.7607577515642,218.09999999999997 452.7607577515642,218.09999999999997 C 452.7607577515642,218.09999999999997 473.3907577515642,215.97999999999996 481.5807577515642,201.33999999999997 C 475.5907577515642,205.39 467.86075775156417,205.47999999999996 463.8107577515642,204.00999999999996 C 459.7607577515642,202.53999999999996 453.5907577515642,199.95999999999995 449.54075775156423,200.32999999999996 C 445.4907577515642,200.69999999999996 440.4207577515642,194.89999999999995 436.46075775156424,194.89999999999995 C 432.50075775156427,194.89999999999995 431.76075775156426,197.56999999999994 424.58075775156425,196.64999999999995 C 417.40075775156424,195.72999999999996 413.90075775156424,193.14999999999995 413.90075775156424,192.13999999999996 C 413.90075775156424,191.12999999999997 417.06075775156427,187.00999999999996 411.35075775156423,182.28999999999996 C 405.64075775156425,177.55999999999997 400.6707577515642,168.04999999999995 401.40075775156424,167.24999999999997 C 402.14075775156425,166.44999999999996 405.21075775156424,169.45999999999998 408.52075775156425,169.33999999999997 C 411.84075775156424,169.21999999999997 416.07075775156426,171.54999999999998 419.51075775156426,171.67 C 422.95075775156425,171.79 423.6807577515643,170.2 427.06075775156427,170.75 C 430.44075775156426,171.3 432.40075775156424,171.61 438.6007577515643,171.18 C 444.8007577515643,170.75 450.2007577515643,163.08 450.2007577515643,163.08 C 450.2007577515643,163.08 445.6007577515643,165.23000000000002 439.0907577515643,164.61 C 432.5807577515643,164.0 428.2207577515643,161.97000000000003 428.2207577515643,161.97000000000003 C 428.2207577515643,161.97000000000003 437.8607577515643,162.15000000000003 441.7307577515643,157.06000000000003 C 435.9607577515643,158.47000000000003 418.2207577515643,155.10000000000002 414.9007577515643,153.19000000000003 C 411.5807577515643,151.29000000000002 408.9407577515643,140.11 400.5307577515643,137.29000000000002 C 392.12075775156427,134.47000000000003 391.0807577515643,129.92000000000002 391.0807577515643,129.92000000000002 C 391.0807577515643,129.92000000000002 403.05075775156433,132.56 409.3107577515643,127.34000000000002 C 415.5707577515643,122.12000000000002 414.9607577515643,115.92000000000002 413.30075775156433,115.80000000000001 C 411.6407577515643,115.68 411.46075775156436,117.76 408.02075775156436,117.33000000000001 C 404.58075775156436,116.9 402.3707577515644,111.80000000000001 402.3707577515644,111.80000000000001 L 406.8507577515644,112.17000000000002 C 406.8507577515644,112.17000000000002 405.1907577515644,107.50000000000001 396.0407577515644,106.89000000000001 C 386.8907577515644,106.28000000000002 390.2107577515644,103.33000000000001 389.1607577515644,101.00000000000001 C 388.1107577515644,98.67000000000002 390.88075775156443,98.42000000000002 392.1107577515644,98.05000000000001 C 393.3407577515644,97.68 401.1307577515644,95.47000000000001 405.8007577515644,91.24000000000001 C 410.4707577515644,87.00000000000001 409.4807577515644,79.45000000000002 407.89075775156437,79.45000000000002 C 406.29075775156434,79.45000000000002 405.8007577515644,81.91000000000001 403.41075775156435,81.72000000000001 C 401.02075775156436,81.54 397.76075775156437,80.49000000000001 396.47075775156435,78.22000000000001 C 395.18075775156433,75.95000000000002 391.1907577515644,77.05000000000001 388.98075775156434,78.22000000000001 C 386.77075775156436,79.39000000000001 385.48075775156434,80.74000000000001 384.3107577515643,79.63000000000001 C 383.1407577515643,78.52000000000001 381.73075775156434,75.39000000000001 381.61075775156434,72.51 C 381.49075775156433,69.62 385.23075775156434,68.95 387.3207577515643,64.16000000000001 C 389.4107577515643,59.37000000000001 388.8507577515643,48.20000000000001 389.04075775156434,45.07000000000001 C 389.22075775156435,41.940000000000005 392.42075775156434,35.74000000000001 390.76075775156437,31.500000000000007 C 389.10075775156434,27.260000000000005 382.66075775156435,18.610000000000007 381.7407577515644,14.80000000000001 C 380.8207577515639,10.990000000000002 378.92075775156394,1.7763568394002505e-15 378.92075775156394,1.7763568394002505e-15 C 378.92075775156394,1.7763568394002505e-15 377.39075775156397,12.890000000000002 377.2607577515639,19.03 C 377.1407577515639,25.17 376.4007577515639,36.71 375.30075775156394,40.519999999999996 C 374.1907577515639,44.33 375.18075775156393,48.87 373.21075775156396,53.53999999999999 C 371.250757751564,58.209999999999994 368.67075775156394,62.92999999999999 369.59075775156396,67.35 C 370.510757751564,71.77 373.000757751564,72.88 373.000757751564,72.88 C 373.000757751564,72.88 373.740757751564,74.81 372.630757751564,75.92 C 371.52075775156396,77.03 355.860757751564,79.55 351.110757751564,76.87 C 345.340757751564,73.62 343.440757751564,68.46000000000001 343.440757751564,68.46000000000001 C 343.440757751564,68.46000000000001 342.89075775156397,74.54 345.47075775156395,80.19000000000001 C 348.05075775156394,85.84000000000002 352.35075775156395,89.28000000000002 352.35075775156395,89.28000000000002 C 352.35075775156395,89.28000000000002 351.12075775156393,92.66000000000001 354.5607577515639,94.68000000000002 C 358.0007577515639,96.71000000000002 366.78075775156395,97.26000000000002 366.78075775156395,97.26000000000002 C 366.78075775156395,97.26000000000002 363.53075775156395,105.98000000000002 360.760757751564,107.82000000000002 C 358.000757751564,109.66000000000003 353.39075775156397,107.27000000000002 349.46075775156396,110.34000000000002 C 345.53075775156395,113.41000000000001 341.36075775156394,112.92000000000002 338.41075775156395,116.17000000000002 C 335.46075775156396,119.42000000000002 336.510757751564,121.45000000000002 337.37075775156393,121.45000000000002 C 338.23075775156394,121.45000000000002 340.93075775156393,119.61000000000001 342.9007577515639,120.65000000000002 C 344.8607577515639,121.69000000000003 345.7907577515639,123.60000000000002 348.6107577515639,124.82000000000002 C 351.4307577515639,126.05000000000003 354.38075775156386,126.35000000000002 354.38075775156386,126.35000000000002 C 354.38075775156386,126.35000000000002 348.1807577515639,133.47000000000003 343.57075775156386,134.15000000000003 C 354.8007577515639,136.61000000000004 360.94075775156386,127.27000000000004 364.14075775156385,128.56000000000003 C 367.34075775156384,129.85000000000002 365.6107577515639,136.91000000000003 359.97075775156384,141.58000000000004 C 354.32075775156386,146.25000000000003 336.89075775156385,153.61000000000004 328.54075775156383,153.61000000000004 C 320.1907577515638,153.61000000000004 319.52075775156385,153.18000000000004 317.6707577515638,155.21000000000004 C 315.83075775156385,157.24000000000004 318.3107577515638,159.08000000000004 323.47075775156384,159.91000000000003 C 328.63075775156386,160.74000000000004 328.72075775156384,162.40000000000003 333.23075775156383,162.76000000000002 C 337.7407577515638,163.13000000000002 339.40075775156384,162.58 339.40075775156384,162.58 C 339.40075775156384,162.58 325.6807577515638,170.13000000000002 330.01075775156386,173.82000000000002 C 334.34075775156384,177.50000000000003 336.82075775156386,172.16000000000003 341.25075775156387,172.07000000000002 C 345.6707577515639,171.98000000000002 348.1607577515639,172.35000000000002 349.3507577515639,174.56000000000003 C 350.5507577515639,176.77000000000004 358.1007577515639,172.53000000000003 361.9707577515639,167.84000000000003 C 365.8407577515639,163.14000000000004 362.25075775156387,175.48000000000002 360.7707577515639,178.06000000000003 C 359.2907577515639,180.64000000000004 351.4707577515639,187.55000000000004 344.2907577515639,193.16000000000003 C 337.1107577515639,198.78000000000003 323.94075775156386,205.41000000000003 313.1607577515639,206.51000000000002 C 302.3907577515639,207.62000000000003 296.8607577515639,206.23000000000002 295.8507577515639,208.63000000000002 C 294.8407577515639,211.02 296.9507577515639,216.18000000000004 304.1407577515639,217.47000000000003 C 311.3207577515639,218.76000000000002 319.80075775156394,217.01000000000002 321.36075775156394,218.39000000000001 C 322.93075775156393,219.77 317.77075775156396,230.36 313.0707577515639,231.47000000000003 C 308.37075775156393,232.57000000000002 305.7007577515639,232.57000000000002 305.0607577515639,235.89000000000001 C 304.42075775156394,239.21 311.23075775156394,240.96 315.47075775156395,240.59 C 319.71075775156396,240.22 329.380757751564,234.24 329.380757751564,234.24 C 329.380757751564,234.24 326.34075775156396,243.54000000000002 327.810757751564,247.22 C 321.000757751564,251.92 299.630757751564,276.14 299.630757751564,276.14 C 299.630757751564,276.14 295.21075775156396,273.28999999999996 285.45075775156397,271.53999999999996 C 275.690757751564,269.78999999999996 276.430757751564,265.36999999999995 276.430757751564,265.36999999999995 C 276.430757751564,265.36999999999995 278.090757751564,261.49999999999994 284.990757751564,262.23999999999995 C 291.900757751564,262.97999999999996 304.510757751564,253.02999999999994 305.530757751564,248.69999999999996 C 306.540757751564,244.36999999999995 302.770757751564,244.45999999999995 302.770757751564,244.45999999999995 C 302.770757751564,244.45999999999995 304.24075775156405,235.89999999999995 294.76075775156403,234.96999999999994 C 285.270757751564,234.04999999999995 283.43075775156404,231.00999999999993 276.62075775156404,226.03999999999994 C 269.81075775156404,221.06999999999994 269.07075775156403,221.89999999999995 269.07075775156403,221.89999999999995 C 269.07075775156403,221.89999999999995 272.94075775156404,216.09999999999994 275.700757751564,215.35999999999996 C 278.460757751564,214.61999999999995 284.63075775156403,215.07999999999996 289.24075775156405,209.73999999999995 C 293.84075775156407,204.39999999999995 296.330757751564,202.36999999999995 297.99075775156405,201.72999999999996 C 299.6507577515641,201.08999999999997 299.56075775156404,196.84999999999997 293.390757751564,191.96999999999997 C 287.220757751564,187.08999999999997 287.19075775156404,187.45999999999998 284.43075775156404,183.70999999999998 C 281.67075775156405,179.95999999999998 278.35075775156406,178.36999999999998 278.35075775156406,178.36999999999998 C 278.35075775156406,178.36999999999998 280.25075775156404,173.82999999999998 279.3907577515641,171.67999999999998 C 278.53075775156407,169.52999999999997 274.85075775156406,167.31999999999996 274.97075775156407,164.55999999999997 C 275.09075775156407,161.79999999999998 274.54075775156406,154.60999999999999 270.67075775156405,149.89 C 266.80075775156405,145.16 266.86075775156405,140.86999999999998 267.05075775156405,138.58999999999997 C 267.23075775156406,136.31999999999996 267.11075775156405,130.17999999999998 264.16075775156406,127.65999999999997 C 261.2107577515641,125.13999999999997 263.79075775156406,119.30999999999997 261.34075775156407,119.61999999999998 C 258.8807577515641,119.92999999999998 260.42075775156405,125.81999999999998 260.11075775156405,128.08999999999997 C 259.80075775156405,130.35999999999999 257.9607577515641,129.37999999999997 257.59075775156407,135.75999999999996 C 257.22075775156407,142.13999999999996 258.7007577515641,147.11999999999995 256.30075775156405,150.67999999999995 C 253.91075775156406,154.23999999999995 248.93075775156404,159.51999999999995 247.34075775156404,166.14999999999995 C 245.74075775156405,172.77999999999994 250.23075775156403,175.16999999999996 250.23075775156403,175.16999999999996 C 250.23075775156403,175.16999999999996 252.19075775156404,175.84999999999997 251.95075775156403,179.70999999999995 C 251.70075775156403,183.57999999999996 256.55075775156405,187.87999999999994 257.720757751564,187.80999999999995 C 256.800757751564,191.73999999999995 254.90075775156402,194.06999999999994 250.780757751564,194.06999999999994 C 246.660757751564,194.06999999999994 243.600757751564,191.05999999999995 238.99075775156402,195.23999999999992 C 234.39075775156402,199.4099999999999 228.80075775156402,198.55999999999992 227.940757751564,203.1599999999999 C 227.080757751564,207.7599999999999 227.820757751564,210.27999999999992 233.530757751564,210.89999999999992 C 239.24075775156402,211.51999999999992 244.58075775156402,210.64999999999992 250.05075775156402,210.2199999999999 C 255.51075775156403,209.7899999999999 256.07075775156403,209.9099999999999 256.37075775156404,211.8799999999999 C 256.68075775156404,213.83999999999992 258.49075775156405,220.9699999999999 253.52075775156405,223.4499999999999 C 248.55075775156405,225.9299999999999 232.98075775156406,227.6899999999999 220.00075775156404,227.8699999999999 C 207.02075775156405,228.0499999999999 196.70075775156403,225.65999999999988 196.70075775156403,225.65999999999988 C 196.70075775156403,225.65999999999988 215.49075775156402,236.9899999999999 223.50075775156404,238.3699999999999 C 209.78075775156404,241.03999999999988 213.00075775156404,250.8899999999999 215.40075775156404,252.0899999999999 C 217.79075775156403,253.28999999999988 225.53075775156404,250.2499999999999 229.12075775156404,250.8899999999999 C 232.71075775156405,251.5299999999999 240.26075775156403,255.9499999999999 243.39075775156405,257.6999999999999 C 246.52075775156405,259.4499999999999 254.07075775156406,260.64999999999986 254.07075775156406,260.64999999999986 C 254.07075775156406,260.64999999999986 253.24075775156405,263.22999999999985 251.49075775156405,264.51999999999987 C 249.74075775156405,265.8099999999999 243.66075775156403,263.22999999999985 239.79075775156406,267.1899999999999 C 235.92075775156405,271.14999999999986 232.88075775156406,271.6999999999999 230.12075775156407,271.7899999999999 C 227.36075775156408,271.8799999999999 223.95075775156408,271.1799999999999 217.56075775156407,275.7799999999999 C 211.17075775156408,280.37999999999994 196.81075775156407,276.5199999999999 194.66075775156406,278.9099999999999 C 192.51075775156406,281.2999999999999 191.71075775156407,284.6199999999999 196.26075775156406,286.2199999999999 C 200.80075775156405,287.81999999999994 235.25075775156407,291.9899999999999 235.25075775156407,291.9899999999999 C 235.25075775156407,291.9899999999999 229.02075775156408,296.2899999999999 224.97075775156407,301.3499999999999 C 220.92075775156405,306.4099999999999 223.96075775156407,310.4699999999999 228.65075775156407,310.2799999999999 C 233.35075775156406,310.0999999999999 252.87075775156407,306.8699999999999 253.51075775156409,308.3499999999999 C 254.15075775156407,309.81999999999994 238.5607577515641,317.2799999999999 224.3207577515641,319.1199999999999 C 210.08075775156408,320.95999999999987 156.17075775156408,317.2799999999999 156.17075775156408,317.2799999999999 C 156.17075775156408,317.2799999999999 169.92075775156408,324.7699999999999 175.8207577515641,327.0999999999999 C 169.0707577515641,331.1499999999999 173.61075775156408,335.44999999999993 176.6807577515641,337.2899999999999 C 179.7507577515641,339.1299999999999 199.76075775156409,344.5299999999999 199.76075775156409,344.5299999999999 C 199.76075775156409,344.5299999999999 189.20075775156408,344.7799999999999 178.27075775156408,351.0399999999999 C 190.43075775156407,353.4999999999999 200.62075775156407,351.1599999999999 200.62075775156407,351.1599999999999 C 200.62075775156407,351.1599999999999 195.83075775156408,355.8299999999999 200.74075775156408,361.2299999999999 C 196.81075775156407,366.6299999999999 195.21075775156407,370.1899999999999 191.16075775156406,370.6799999999999 C 187.11075775156405,371.1699999999999 184.04075775156406,371.2899999999999 181.34075775156407,373.7499999999999 C 178.64075775156408,376.20999999999987 175.45075775156408,374.3599999999999 171.89075775156408,376.32999999999987 C 168.33075775156408,378.28999999999985 160.84075775156407,379.76999999999987 156.9107577515641,384.5599999999999 C 152.98075775156408,389.3499999999999 148.8107577515641,395.8599999999999 140.95075775156408,396.2199999999999 L 133.95075775156408,388.8499999999999 C 133.95075775156408,388.8499999999999 135.7907577515641,387.4999999999999 137.39075775156408,387.7399999999999 C 138.99075775156408,387.9899999999999 141.3207577515641,389.2099999999999 143.65075775156407,387.1299999999999 C 145.98075775156408,385.0399999999999 145.37075775156407,381.1099999999999 145.37075775156407,381.1099999999999 C 145.37075775156407,381.1099999999999 152.49075775156408,381.8499999999999 156.91075775156406,377.5499999999999 C 161.33075775156405,373.2499999999999 158.84075775156407,371.4999999999999 157.92075775156405,371.1299999999999 C 157.00075775156407,370.7599999999999 153.04075775156406,373.4299999999999 150.55075775156405,372.2299999999999 C 148.06075775156404,371.0299999999999 146.77075775156405,368.7299999999999 144.75075775156404,368.44999999999993 C 142.72075775156404,368.16999999999996 138.12075775156404,363.6599999999999 138.12075775156404,363.6599999999999 C 138.12075775156404,363.6599999999999 143.65075775156404,362.7399999999999 147.70075775156405,362.1899999999999 C 151.75075775156407,361.6399999999999 153.59075775156404,358.5999999999999 152.40075775156404,356.4799999999999 C 151.20075775156405,354.3599999999999 150.53075775156404,353.9599999999999 145.37075775156404,353.8399999999999 C 140.21075775156405,353.7199999999999 137.02075775156405,351.80999999999995 136.16075775156403,348.8699999999999 C 135.30075775156402,345.9199999999999 134.81075775156404,343.3399999999999 132.97075775156404,342.0599999999999 C 131.13075775156403,340.76999999999987 131.50075775156404,339.8499999999999 131.99075775156405,339.6699999999999 C 132.48075775156406,339.4899999999999 134.63075775156403,342.7999999999999 136.96075775156405,342.1299999999999 C 139.29075775156406,341.4499999999999 138.80075775156405,340.3499999999999 139.54075775156406,340.0999999999999 C 140.28075775156407,339.8499999999999 143.16075775156406,340.5299999999999 145.99075775156405,337.3399999999999 C 148.81075775156404,334.1499999999999 150.23075775156406,331.0199999999999 148.51075775156406,330.7699999999999 C 146.79075775156406,330.5199999999999 143.84075775156407,332.9199999999999 141.94075775156406,331.25999999999993 C 140.04075775156406,329.5999999999999 139.42075775156405,330.3999999999999 137.95075775156405,329.16999999999996 C 136.48075775156406,327.93999999999994 135.68075775156404,322.84999999999997 131.07075775156406,321.98999999999995 C 130.58075775156405,319.84 130.95075775156405,318.85999999999996 131.38075775156406,318.05999999999995 C 131.81075775156407,317.25999999999993 134.39075775156405,313.5199999999999 134.39075775156405,310.44999999999993 C 134.39075775156405,307.37999999999994 133.47075775156407,306.1499999999999 132.49075775156405,303.13999999999993 C 131.51075775156406,300.12999999999994 133.29075775156406,298.2299999999999 131.45075775156405,295.2199999999999 C 129.61075775156405,292.2099999999999 129.79075775156406,289.38999999999993 128.93075775156404,286.5599999999999 C 128.07075775156403,283.7399999999999 127.89075775156404,280.9099999999999 125.86075775156405,280.9699999999999 C 123.83075775156405,281.0299999999999 125.80075775156405,287.2899999999999 125.68075775156404,291.0999999999999 C 125.56075775156404,294.9099999999999 123.90075775156404,297.8499999999999 122.24075775156405,303.1899999999999 C 120.58075775156405,308.52999999999986 119.35075775156405,311.0499999999999 119.91075775156405,313.0099999999999 C 120.46075775156405,314.96999999999986 122.92075775156405,315.58999999999986 123.90075775156404,315.39999999999986 C 124.39075775156404,317.60999999999984 124.39075775156404,317.54999999999984 122.49075775156405,319.9999999999999 C 120.59075775156404,322.45999999999987 119.05075775156405,322.45999999999987 113.96075775156405,324.7899999999999 C 108.86075775156405,327.1199999999999 106.35075775156405,330.6199999999999 107.08075775156405,332.5899999999999 C 107.82075775156405,334.5499999999999 109.11075775156405,333.56999999999994 111.19075775156405,334.18999999999994 C 113.28075775156405,334.79999999999995 113.22075775156405,336.4599999999999 115.18075775156404,336.3399999999999 C 117.14075775156404,336.2199999999999 118.25075775156404,335.4199999999999 118.25075775156404,335.4199999999999 C 118.25075775156404,335.4199999999999 120.28075775156404,337.9399999999999 117.64075775156404,340.4499999999999 C 115.00075775156404,342.96999999999986 115.74075775156403,343.26999999999987 111.32075775156403,343.26999999999987 C 106.90075775156403,343.26999999999987 97.63075775156403,345.29999999999984 94.07075775156403,343.57999999999987 C 97.63075775156403,347.6299999999999 110.30075775156403,347.8699999999999 105.49075775156403,349.34999999999985 C 97.32075775156403,351.86999999999983 99.84075775156403,351.86999999999983 96.96075775156403,352.96999999999986 C 94.07075775156403,354.0699999999999 92.60075775156403,354.3799999999999 92.54075775156403,356.52999999999986 C 92.48075775156403,358.67999999999984 95.61075775156402,358.2499999999999 96.35075775156403,358.73999999999984 C 97.09075775156403,359.22999999999985 97.70075775156403,361.3199999999998 99.97075775156404,361.49999999999983 C 102.24075775156403,361.67999999999984 104.76075775156404,360.3899999999998 106.66075775156403,360.3899999999998 C 108.56075775156404,360.3899999999998 112.06075775156404,360.6399999999998 114.52075775156403,359.4699999999998 C 113.60075775156403,363.1499999999998 112.06075775156404,364.7499999999998 105.00075775156404,367.0199999999998 C 97.94075775156404,369.2899999999998 87.81075775156404,371.6899999999998 76.88075775156403,370.2099999999998 C 80.63075775156403,375.5499999999998 99.29075775156403,374.74999999999983 99.29075775156403,374.74999999999983 C 99.29075775156403,374.74999999999983 94.38075775156403,377.99999999999983 84.31075775156403,379.71999999999986 C 74.24075775156402,381.4399999999999 70.74075775156402,382.96999999999986 70.74075775156402,382.96999999999986 C 70.74075775156402,382.96999999999986 75.41075775156402,386.34999999999985 79.15075775156402,387.1399999999999 C 82.89075775156401,387.9299999999999 85.66075775156402,386.27999999999986 88.97075775156401,386.52999999999986 C 92.290757751564,386.77999999999986 94.070757751564,388.98999999999984 98.67075775156401,388.48999999999984 C 103.270757751564,387.99999999999983 104.99075775156402,386.27999999999986 104.99075775156402,386.27999999999986 C 104.99075775156402,386.27999999999986 105.48075775156401,389.71999999999986 108.86075775156402,390.01999999999987 C 100.11075775156402,399.4399999999999 89.06075775156403,405.51999999999987 82.43075775156402,406.2599999999999 C 75.80075775156402,406.9999999999999 68.71075775156402,404.6899999999999 63.46075775156402,406.4399999999999 C 72.21075775156402,413.9899999999999 80.50075775156401,414.8199999999999 83.35075775156402,414.9099999999999 C 86.20075775156401,414.9999999999999 95.05075775156402,415.0899999999999 95.05075775156402,415.0899999999999 C 95.05075775156402,415.0899999999999 76.45075775156403,417.24999999999994 75.25075775156402,421.5399999999999 L 1.2407577515639252,421.5399999999999 C 1.1707577515639251,421.5999999999999 -1.4692422484360748,423.1099999999999 1.1707577515639251,423.1099999999999 L 1.1707577515639251,423.11" id="path303"/>
</svg>
