<?xml version="1.0" ?>
<svg xmlns="http://www.w3.org/2000/svg" xmlns:ev="http://www.w3.org/2001/xml-events" xmlns:xlink="http://www.w3.org/1999/xlink" baseProfile="full" height="231" id="Layer_1" style="enable-background:new 0 0 1000 1000" transform="scale(0.4329004329004329 0.4329004329004329) translate(-411.0 -115.5)" version="1.1" viewBox="0 0 822 231" width="822" x="0" xml:space="preserve" y="0">
	<defs/>
	<path d="M 408.50000000000006,131.50000000000045 C 406.1000000000001,131.00000000000045 404.00000000000006,129.7000000000005 401.70000000000005,128.90000000000043 C 400.1,128.3000000000004 398.50000000000006,127.40000000000043 396.80000000000007,127.20000000000039 C 394.1000000000001,126.90000000000043 392.6000000000001,125.70000000000039 391.4000000000001,123.60000000000036 C 390.5000000000001,122.00000000000034 389.30000000000007,120.60000000000036 388.0000000000001,118.70000000000039 C 388.5000000000001,117.70000000000039 389.3000000000001,116.20000000000039 390.2000000000001,114.40000000000043 C 387.2000000000001,114.80000000000041 384.6000000000001,115.20000000000039 381.9000000000001,114.50000000000045 C 382.6000000000001,113.00000000000045 383.1000000000001,111.7000000000005 383.9000000000001,110.00000000000045 C 382.80000000000007,110.30000000000041 382.4000000000001,110.40000000000043 382.0000000000001,110.50000000000045 C 378.60000000000014,111.30000000000041 378.2000000000001,111.00000000000045 377.4000000000001,108.00000000000045 C 377.0000000000001,106.60000000000048 376.2000000000001,105.2000000000005 375.6000000000001,103.80000000000041 C 375.00000000000006,102.40000000000043 374.50000000000006,101.00000000000045 374.00000000000006,99.60000000000036 L 373.1000000000001,99.60000000000036 C 373.4000000000001,102.80000000000041 371.9000000000001,105.80000000000041 372.7000000000001,109.30000000000041 C 371.1000000000001,109.00000000000045 369.8000000000001,108.80000000000041 368.2000000000001,108.50000000000045 C 369.1000000000001,109.80000000000041 369.7000000000001,110.80000000000041 370.7000000000001,112.30000000000041 C 368.7000000000001,111.80000000000041 367.3000000000001,111.40000000000043 365.9000000000001,111.10000000000036 C 366.6000000000001,112.60000000000036 367.4000000000001,113.90000000000032 368.7000000000001,114.60000000000036 C 370.8000000000001,115.90000000000032 370.5000000000001,117.50000000000034 370.0000000000001,119.80000000000041 C 369.0000000000001,118.50000000000045 368.3000000000001,117.60000000000036 367.5000000000001,116.40000000000043 C 366.3000000000001,117.40000000000043 365.3000000000001,118.30000000000041 364.10000000000014,119.30000000000041 L 363.20000000000016,118.10000000000036 C 362.8000000000002,117.60000000000036 362.50000000000017,117.20000000000039 362.10000000000014,116.70000000000039 C 362.60000000000014,116.20000000000039 363.0000000000001,115.80000000000041 363.3000000000001,115.40000000000043 C 363.60000000000014,114.90000000000043 363.90000000000015,114.40000000000043 364.2000000000001,113.80000000000041 C 360.6000000000001,113.20000000000039 360.6000000000001,113.20000000000039 360.0000000000001,110.10000000000036 C 359.7000000000001,108.80000000000041 359.2000000000001,107.60000000000036 358.9000000000001,106.40000000000032 L 358.2000000000001,106.40000000000032 C 357.8000000000001,108.8000000000003 357.8000000000001,111.3000000000003 355.7000000000001,113.10000000000036 C 355.4000000000001,113.40000000000032 355.4000000000001,114.10000000000036 355.6000000000001,114.60000000000036 C 356.7000000000001,117.10000000000036 355.2000000000001,118.30000000000041 352.9000000000001,119.30000000000041 C 352.7000000000001,119.40000000000043 352.6000000000001,119.80000000000041 352.4000000000001,120.20000000000039 C 353.6000000000001,120.30000000000041 354.7000000000001,120.40000000000043 355.80000000000007,120.50000000000034 C 355.00000000000006,122.50000000000034 353.00000000000006,122.10000000000036 350.6000000000001,122.40000000000032 C 352.4000000000001,123.40000000000032 353.6000000000001,124.10000000000036 355.00000000000006,124.90000000000032 C 354.1000000000001,125.10000000000036 353.50000000000006,125.20000000000027 352.80000000000007,125.3000000000003 C 353.1000000000001,125.90000000000032 353.30000000000007,126.3000000000003 353.80000000000007,127.40000000000032 C 351.30000000000007,125.60000000000036 349.9000000000001,126.70000000000027 348.50000000000006,127.70000000000027 C 348.40000000000003,125.00000000000023 348.20000000000005,122.50000000000023 348.1000000000001,120.10000000000025 C 347.00000000000006,119.9000000000002 346.2000000000001,119.8000000000003 345.1000000000001,119.60000000000025 C 346.6000000000001,118.00000000000023 347.7000000000001,116.60000000000025 349.30000000000007,114.9000000000002 C 348.20000000000005,115.00000000000023 347.9000000000001,115.10000000000025 347.6000000000001,115.00000000000023 C 346.9000000000001,114.9000000000002 346.2000000000001,114.80000000000018 345.50000000000006,114.60000000000025 C 345.70000000000005,114.10000000000025 345.70000000000005,113.4000000000002 346.00000000000006,113.00000000000023 C 346.6000000000001,112.00000000000023 347.50000000000006,111.20000000000027 348.1000000000001,110.20000000000027 C 348.7000000000001,109.20000000000027 349.80000000000007,108.20000000000027 349.4000000000001,106.50000000000023 C 347.6000000000001,108.20000000000027 345.80000000000007,109.4000000000002 343.30000000000007,109.4000000000002 C 342.4000000000001,106.50000000000023 341.6000000000001,103.70000000000016 340.6000000000001,100.4000000000002 C 339.6000000000001,102.70000000000016 339.1000000000001,104.60000000000025 338.00000000000006,106.00000000000023 C 337.00000000000006,107.4000000000002 335.30000000000007,108.4000000000002 333.70000000000005,109.80000000000018 C 334.90000000000003,110.20000000000016 335.80000000000007,110.4000000000002 336.90000000000003,110.80000000000018 C 335.50000000000006,113.50000000000023 334.1,116.00000000000023 332.50000000000006,118.9000000000002 C 331.00000000000006,116.70000000000016 329.70000000000005,114.9000000000002 328.40000000000003,113.00000000000023 C 328.6,111.9000000000002 329.1,110.60000000000025 328.8,109.50000000000023 C 328.2,107.50000000000023 326.3,109.50000000000023 324.8,108.9000000000002 C 324.90000000000003,107.9000000000002 324.90000000000003,106.80000000000018 325.0,105.70000000000016 C 325.1,104.50000000000011 325.2,103.30000000000018 323.7,102.4000000000002 C 323.3,102.80000000000018 322.8,103.10000000000025 322.59999999999997,103.50000000000023 C 321.79999999999995,104.9000000000002 321.09999999999997,106.4000000000002 320.4,107.9000000000002 C 319.79999999999995,109.20000000000016 319.0,110.20000000000016 317.2,110.10000000000025 C 316.8,110.10000000000025 316.4,110.3000000000003 315.5,110.60000000000025 C 316.7,111.8000000000003 317.6,112.8000000000003 318.9,114.20000000000027 C 316.59999999999997,114.60000000000025 314.7,115.00000000000023 312.59999999999997,115.40000000000032 C 314.29999999999995,117.70000000000027 316.59999999999997,119.00000000000034 319.2,119.8000000000003 C 318.5,121.60000000000025 316.7,120.60000000000025 315.9,121.00000000000034 C 314.59999999999997,123.20000000000039 313.4,125.20000000000039 312.09999999999997,127.3000000000003 C 310.99999999999994,125.8000000000003 310.7,125.20000000000027 310.99999999999994,124.20000000000027 C 311.29999999999995,123.3000000000003 311.69999999999993,122.50000000000023 312.09999999999997,121.70000000000027 C 313.4,119.00000000000023 312.79999999999995,118.00000000000023 309.59999999999997,117.60000000000025 C 308.79999999999995,117.50000000000023 307.9,117.3000000000003 306.99999999999994,117.20000000000027 C 307.79999999999995,115.40000000000032 308.59999999999997,113.90000000000032 309.3999999999999,112.10000000000025 C 305.7999999999999,112.4000000000002 304.69999999999993,110.60000000000025 304.0999999999999,108.4000000000002 C 303.7999999999999,107.30000000000018 303.69999999999993,105.9000000000002 301.5999999999999,105.9000000000002 C 300.19999999999993,108.70000000000016 301.8999999999999,112.70000000000016 297.0999999999999,114.20000000000016 C 298.19999999999993,114.9000000000002 298.9999999999999,115.4000000000002 300.0999999999999,116.20000000000016 C 299.19999999999993,116.80000000000018 298.3999999999999,117.10000000000014 297.9999999999999,117.70000000000016 C 297.39999999999986,118.50000000000011 296.89999999999986,119.4000000000002 296.7999999999999,120.4000000000002 C 296.6999999999999,122.30000000000018 296.9999999999999,124.20000000000016 296.9999999999999,126.10000000000025 C 296.9999999999999,126.70000000000027 296.5999999999999,127.3000000000003 296.39999999999986,127.8000000000003 L 295.59999999999985,127.8000000000003 C 295.29999999999984,126.10000000000025 294.89999999999986,124.40000000000032 294.59999999999985,122.60000000000025 C 294.09999999999985,119.60000000000025 294.49999999999983,116.3000000000003 291.6999999999999,113.8000000000003 C 290.89999999999986,113.10000000000025 291.1999999999999,112.10000000000025 291.9999999999999,111.3000000000003 L 293.4999999999999,109.8000000000003 C 292.89999999999986,109.20000000000027 292.39999999999986,108.8000000000003 292.0999999999999,108.3000000000003 C 290.7999999999999,106.60000000000025 290.9999999999999,106.10000000000025 293.0999999999999,105.10000000000025 C 293.9999999999999,104.70000000000027 294.8999999999999,104.10000000000025 296.2999999999999,103.20000000000027 C 294.8999999999999,102.50000000000023 293.9999999999999,102.10000000000025 293.1999999999999,101.60000000000025 C 292.4999999999999,101.20000000000027 291.59999999999985,100.70000000000027 291.39999999999986,100.00000000000023 C 290.4999999999999,97.30000000000018 289.6999999999999,94.60000000000025 288.9999999999999,91.9000000000002 C 288.5999999999999,90.30000000000018 288.2999999999999,88.80000000000018 286.5999999999999,87.10000000000025 C 286.4999999999999,92.20000000000027 284.69999999999993,96.20000000000027 281.69999999999993,100.10000000000025 C 280.19999999999993,97.00000000000023 279.49999999999994,94.10000000000025 281.5999999999999,91.10000000000025 C 280.0999999999999,89.4000000000002 277.7999999999999,88.3000000000003 277.69999999999993,85.8000000000003 C 277.69999999999993,83.70000000000027 277.19999999999993,81.70000000000027 276.99999999999994,79.70000000000027 C 276.59999999999997,79.60000000000025 276.29999999999995,79.60000000000025 275.8999999999999,79.50000000000023 C 275.3999999999999,80.60000000000025 274.69999999999993,81.60000000000025 274.2999999999999,82.70000000000027 C 273.1999999999999,85.90000000000032 272.2999999999999,89.10000000000025 271.0999999999999,92.20000000000027 C 270.5999999999999,93.50000000000023 269.7999999999999,94.8000000000003 268.9999999999999,96.00000000000023 C 268.2999999999999,97.00000000000023 267.39999999999986,97.80000000000018 265.4999999999999,98.10000000000025 C 265.9999999999999,97.20000000000027 266.2999999999999,96.70000000000027 266.5999999999999,96.20000000000027 C 267.7999999999999,94.50000000000023 267.9999999999999,92.90000000000032 266.7999999999999,91.10000000000025 C 265.6999999999999,89.50000000000023 266.0999999999999,87.8000000000003 266.6999999999999,86.10000000000025 C 267.4999999999999,84.00000000000023 267.1999999999999,83.70000000000027 264.7999999999999,82.9000000000002 C 262.6999999999999,82.20000000000016 262.1999999999999,81.80000000000018 262.9999999999999,80.10000000000025 C 263.89999999999986,78.10000000000025 263.0999999999999,76.70000000000027 261.6999999999999,75.50000000000023 A 8.53,8.53 0.0 0,1 258.89999999999986,70.80000000000018 C 258.6999999999999,69.9000000000002 258.1999999999999,69.00000000000023 257.59999999999985,67.4000000000002 C 256.89999999999986,71.20000000000016 256.49999999999983,74.30000000000018 255.49999999999983,77.30000000000018 C 254.99999999999983,79.00000000000023 254.79999999999984,80.30000000000018 256.29999999999984,81.9000000000002 C 254.29999999999984,84.20000000000016 252.29999999999984,86.50000000000023 250.49999999999983,88.70000000000016 C 252.3999999999998,91.4000000000002 251.69999999999982,93.80000000000018 248.59999999999985,96.00000000000011 C 248.19999999999987,95.30000000000007 247.89999999999986,94.50000000000011 247.39999999999986,93.90000000000009 C 246.79999999999984,93.30000000000007 246.09999999999985,92.80000000000007 245.39999999999986,92.40000000000009 C 243.09999999999985,90.90000000000009 243.09999999999985,89.10000000000014 245.39999999999986,87.50000000000011 C 246.19999999999987,87.00000000000011 247.19999999999987,86.60000000000014 248.29999999999984,86.00000000000011 C 243.19999999999982,85.10000000000014 242.49999999999983,84.30000000000007 242.89999999999986,80.60000000000014 C 242.4999999999999,80.40000000000009 241.9999999999999,80.10000000000014 241.4999999999999,79.90000000000009 C 239.7999999999999,79.40000000000009 239.2999999999999,78.30000000000007 240.19999999999987,77.10000000000014 C 241.69999999999987,75.10000000000014 240.59999999999985,73.20000000000016 239.9999999999999,71.30000000000018 C 239.7999999999999,70.60000000000014 238.7999999999999,69.60000000000014 237.9999999999999,69.60000000000014 C 237.2999999999999,69.60000000000014 236.0999999999999,70.40000000000009 235.89999999999986,71.10000000000014 C 235.19999999999987,73.30000000000018 234.69999999999987,75.60000000000014 234.4999999999999,77.80000000000018 C 234.39999999999986,79.50000000000023 234.39999999999986,81.10000000000014 232.89999999999986,82.20000000000016 C 231.69999999999987,83.20000000000016 230.29999999999984,84.00000000000011 228.89999999999986,85.00000000000011 C 228.69999999999987,85.20000000000016 228.39999999999986,85.30000000000007 228.09999999999985,85.50000000000011 C 228.69999999999987,86.20000000000016 229.19999999999987,86.70000000000016 229.69999999999987,87.30000000000007 C 227.69999999999987,90.70000000000005 227.69999999999987,90.70000000000005 223.19999999999987,91.20000000000005 C 222.19999999999987,89.90000000000009 221.19999999999987,88.60000000000002 220.09999999999985,87.30000000000007 C 221.89999999999986,86.60000000000002 223.59999999999985,85.90000000000009 225.39999999999986,85.10000000000002 C 225.39999999999986,84.89999999999998 225.29999999999984,84.70000000000005 225.29999999999984,84.5 C 222.69999999999982,84.20000000000005 219.69999999999982,85.0 216.99999999999983,82.89999999999998 C 220.29999999999984,82.39999999999998 223.19999999999982,82.89999999999998 225.69999999999982,80.89999999999998 C 223.79999999999984,80.60000000000002 222.19999999999982,80.39999999999998 220.69999999999982,80.19999999999993 C 218.29999999999984,79.79999999999995 216.19999999999982,78.99999999999989 214.5999999999998,77.19999999999993 C 213.3999999999998,75.79999999999995 213.49999999999977,75.29999999999995 215.19999999999982,74.29999999999995 C 216.29999999999984,73.69999999999993 217.5999999999998,73.19999999999993 217.8999999999998,71.89999999999998 C 215.0999999999998,71.10000000000002 211.8999999999998,71.79999999999995 208.99999999999983,70.0 C 211.59999999999985,68.5 211.29999999999984,66.29999999999995 211.09999999999985,64.20000000000005 C 210.99999999999983,62.90000000000009 210.79999999999984,61.60000000000002 210.59999999999985,60.30000000000007 C 210.49999999999983,59.700000000000045 210.29999999999984,59.10000000000002 209.89999999999986,58.60000000000002 C 209.09999999999985,57.60000000000002 207.79999999999984,57.700000000000045 207.29999999999984,58.80000000000007 C 207.09999999999985,59.200000000000045 206.89999999999986,59.80000000000007 206.89999999999986,60.30000000000007 C 206.9999999999999,62.80000000000007 205.9999999999999,65.00000000000011 204.39999999999986,67.10000000000002 C 203.59999999999985,68.10000000000002 203.29999999999984,69.10000000000002 204.19999999999987,70.20000000000005 C 205.09999999999985,71.40000000000009 204.69999999999987,72.5 203.7999999999999,73.5 C 202.5999999999999,74.89999999999998 201.39999999999992,76.39999999999998 200.19999999999987,77.89999999999998 C 201.09999999999985,81.5 200.69999999999987,82.29999999999995 196.89999999999986,84.10000000000002 C 196.09999999999985,84.5 195.29999999999984,84.89999999999998 193.9999999999999,85.60000000000002 C 195.7999999999999,86.39999999999998 196.89999999999986,86.89999999999998 198.0999999999999,87.39999999999998 C 197.69999999999993,91.19999999999993 193.5999999999999,90.89999999999998 191.19999999999993,92.29999999999995 C 191.49999999999994,95.19999999999993 193.79999999999995,95.79999999999995 196.79999999999995,96.0 C 195.29999999999995,98.60000000000002 193.69999999999993,100.70000000000005 192.79999999999995,103.0 C 191.89999999999998,105.39999999999998 191.79999999999995,107.89999999999998 191.29999999999995,110.39999999999998 C 190.69999999999993,109.89999999999998 190.49999999999994,109.5 190.39999999999998,109.0 C 189.5,103.20000000000005 188.0,97.5 186.2,91.89999999999998 C 185.6,90.19999999999993 185.0,88.69999999999993 182.7,88.29999999999995 C 182.0,88.19999999999993 181.39999999999998,87.39999999999998 180.89999999999998,87.0 C 181.99999999999997,85.10000000000002 182.99999999999997,83.39999999999998 183.89999999999998,81.70000000000005 C 182.49999999999997,80.60000000000002 181.39999999999998,79.80000000000007 179.99999999999997,78.80000000000007 C 182.09999999999997,78.80000000000007 183.79999999999998,79.00000000000011 185.29999999999998,78.70000000000005 C 187.0,78.40000000000009 188.2,77.20000000000005 188.89999999999998,75.80000000000007 C 185.7,74.60000000000002 182.2,74.30000000000007 180.39999999999998,71.30000000000007 C 181.49999999999997,70.50000000000011 182.49999999999997,69.80000000000007 183.79999999999998,68.90000000000009 C 179.29999999999998,67.00000000000011 177.79999999999998,63.80000000000007 177.1,60.000000000000114 C 176.79999999999998,58.600000000000136 176.2,57.30000000000007 175.6,55.70000000000016 C 173.79999999999998,56.500000000000114 173.79999999999998,57.70000000000016 173.6,58.70000000000016 C 172.79999999999998,62.20000000000016 171.9,65.60000000000014 169.0,68.30000000000018 C 168.1,69.10000000000014 168.1,70.00000000000023 168.9,71.00000000000023 C 170.5,73.00000000000023 170.0,74.80000000000018 167.20000000000002,76.70000000000027 C 169.00000000000003,71.60000000000025 164.60000000000002,70.3000000000003 160.70000000000002,68.60000000000025 C 164.4,66.70000000000027 166.8,64.20000000000027 168.4,60.50000000000023 C 167.5,60.900000000000205 167.20000000000002,61.00000000000023 167.0,61.10000000000025 C 164.1,62.300000000000296 162.6,61.900000000000205 161.5,59.20000000000027 C 161.0,58.10000000000025 160.9,56.800000000000296 160.7,55.70000000000027 C 159.89999999999998,52.300000000000296 159.1,48.800000000000296 158.2,45.40000000000032 C 158.1,44.800000000000296 157.6,44.300000000000296 157.29999999999998,43.800000000000296 C 156.7,45.20000000000027 156.6,46.50000000000034 156.49999999999997,47.800000000000296 C 156.29999999999998,50.300000000000296 155.89999999999998,52.70000000000027 153.89999999999998,54.90000000000032 C 153.2,55.70000000000027 153.2,57.20000000000027 153.29999999999998,58.300000000000296 C 153.7,60.90000000000032 152.7,62.800000000000296 150.1,63.90000000000032 C 149.4,64.20000000000027 148.7,64.40000000000032 147.4,64.8000000000003 C 149.20000000000002,65.8000000000003 150.4,66.50000000000034 151.70000000000002,67.3000000000003 C 150.70000000000002,69.20000000000027 148.9,68.50000000000034 147.00000000000003,68.40000000000032 C 147.30000000000004,69.60000000000036 147.70000000000002,70.50000000000034 147.80000000000004,71.50000000000034 C 147.90000000000003,72.00000000000034 147.80000000000004,72.8000000000003 147.50000000000003,73.10000000000036 C 147.10000000000002,73.30000000000041 146.30000000000004,73.10000000000036 145.70000000000002,73.00000000000034 C 145.20000000000002,72.8000000000003 144.8,72.40000000000032 144.20000000000002,72.10000000000036 C 145.00000000000003,71.60000000000036 145.50000000000003,71.30000000000041 146.10000000000002,70.90000000000032 C 144.10000000000002,68.90000000000032 144.20000000000002,67.00000000000034 145.50000000000003,64.70000000000027 C 146.20000000000002,63.50000000000023 145.70000000000002,61.60000000000025 145.50000000000003,60.00000000000023 C 145.40000000000003,59.400000000000205 144.90000000000003,58.80000000000018 144.60000000000002,58.20000000000027 C 145.40000000000003,57.800000000000296 146.00000000000003,57.40000000000032 146.50000000000003,57.10000000000025 C 147.10000000000002,56.800000000000296 147.80000000000004,56.50000000000023 148.40000000000003,56.10000000000025 C 147.10000000000002,55.50000000000023 146.30000000000004,55.60000000000025 145.50000000000003,55.400000000000205 C 142.10000000000002,54.70000000000016 141.20000000000002,53.80000000000018 140.90000000000003,50.50000000000023 C 140.80000000000004,49.60000000000025 140.60000000000002,48.60000000000025 140.00000000000003,48.00000000000023 C 138.70000000000002,46.60000000000025 138.30000000000004,45.00000000000023 138.00000000000003,43.30000000000018 C 137.70000000000002,41.70000000000016 137.40000000000003,40.00000000000023 135.70000000000002,38.60000000000019 C 135.4,39.200000000000216 135.10000000000002,39.50000000000017 135.00000000000003,39.80000000000018 C 133.90000000000003,46.00000000000023 132.90000000000003,52.30000000000018 128.80000000000004,57.600000000000136 C 128.80000000000004,57.600000000000136 128.80000000000004,57.80000000000018 128.90000000000003,58.000000000000114 C 130.10000000000002,57.90000000000009 131.30000000000004,57.70000000000016 132.50000000000003,57.600000000000136 L 132.80000000000004,58.20000000000016 C 130.90000000000003,59.900000000000205 129.10000000000005,61.600000000000136 127.00000000000003,63.20000000000016 C 125.00000000000003,64.70000000000016 122.80000000000004,66.00000000000011 120.50000000000003,67.50000000000011 C 122.40000000000003,69.60000000000014 125.10000000000002,68.00000000000011 127.10000000000002,68.90000000000009 C 127.30000000000001,70.20000000000005 127.40000000000003,71.40000000000009 127.60000000000002,72.60000000000014 C 129.00000000000003,72.40000000000009 130.20000000000002,72.30000000000018 131.50000000000003,72.10000000000014 C 130.60000000000002,74.10000000000014 130.60000000000002,74.20000000000016 128.30000000000004,75.80000000000018 C 126.10000000000005,77.30000000000018 124.50000000000003,79.00000000000023 123.70000000000005,81.60000000000014 C 122.60000000000005,85.30000000000018 119.60000000000005,87.70000000000016 115.70000000000005,89.90000000000009 C 117.10000000000005,86.80000000000007 118.60000000000005,84.10000000000014 119.60000000000005,81.20000000000005 C 121.10000000000005,77.20000000000005 119.20000000000005,73.60000000000002 117.10000000000005,70.20000000000005 C 116.80000000000004,69.70000000000005 116.10000000000005,69.5 115.80000000000004,69.40000000000009 C 112.90000000000003,70.00000000000011 110.40000000000003,70.50000000000011 107.90000000000003,71.10000000000014 C 107.80000000000004,70.90000000000009 107.70000000000005,70.60000000000014 107.60000000000002,70.40000000000009 C 108.90000000000003,69.80000000000007 110.10000000000002,69.20000000000005 111.50000000000003,68.70000000000005 C 116.10000000000002,66.90000000000009 119.50000000000003,63.90000000000009 122.20000000000002,60.200000000000045 C 122.70000000000002,59.40000000000009 122.9,58.5 123.50000000000003,57.0 C 122.20000000000002,57.60000000000002 121.60000000000002,57.799999999999955 121.00000000000003,58.10000000000002 C 115.50000000000003,61.10000000000002 109.50000000000003,62.60000000000002 103.10000000000002,63.0 C 101.40000000000003,63.10000000000002 99.70000000000002,62.799999999999955 98.00000000000003,62.700000000000045 L 98.00000000000003,62.0 C 100.00000000000003,61.60000000000002 101.90000000000003,61.200000000000045 103.90000000000003,60.700000000000045 C 108.90000000000003,59.60000000000002 113.10000000000002,57.40000000000009 116.50000000000003,54.0 C 117.30000000000004,53.200000000000045 117.80000000000004,52.299999999999955 118.50000000000003,51.5 C 118.40000000000003,51.299999999999955 118.20000000000002,51.200000000000045 118.10000000000002,51.0 C 114.70000000000002,52.0 111.30000000000001,52.700000000000045 107.90000000000003,52.10000000000002 C 104.60000000000002,51.5 101.10000000000002,50.89999999999998 98.60000000000002,48.5 C 100.10000000000002,46.700000000000045 101.30000000000001,45.10000000000002 102.50000000000003,43.60000000000002 C 103.60000000000002,42.200000000000045 104.20000000000002,40.60000000000002 103.20000000000002,39.10000000000002 C 102.30000000000001,37.80000000000001 100.50000000000003,38.200000000000045 99.10000000000002,38.30000000000001 C 94.40000000000003,38.80000000000001 90.30000000000001,37.30000000000001 86.00000000000003,36.0 C 85.90000000000003,36.0 85.90000000000003,35.60000000000002 85.90000000000003,35.10000000000002 L 89.10000000000002,35.10000000000002 C 92.40000000000003,35.200000000000045 95.30000000000001,34.30000000000001 97.80000000000001,32.400000000000034 C 98.9,31.600000000000023 99.9,30.600000000000023 99.30000000000001,28.900000000000034 C 94.0,29.400000000000034 89.0,28.80000000000001 84.4,25.80000000000001 C 90.0,24.80000000000001 90.0,24.80000000000001 89.5,21.5 C 85.6,20.600000000000023 83.5,18.399999999999977 83.69999999999999,14.600000000000023 C 83.69999999999999,13.700000000000045 82.89999999999998,12.300000000000011 82.0,11.800000000000011 C 79.9,10.600000000000023 79.4,8.900000000000034 79.30000000000001,6.900000000000034 C 79.30000000000001,6.000000000000057 79.20000000000002,5.000000000000057 78.80000000000001,4.2000000000000455 C 78.20000000000002,2.7000000000000455 77.80000000000001,0.9000000000000341 75.70000000000002,5.684341886080802e-14 C 75.50000000000003,0.5000000000000568 75.20000000000002,0.8000000000000682 75.20000000000002,1.2000000000000455 L 74.30000000000001,9.600000000000023 C 74.10000000000002,11.600000000000023 73.70000000000002,13.300000000000011 71.30000000000001,14.200000000000045 C 69.4,14.900000000000034 68.70000000000002,16.600000000000023 69.0,18.200000000000045 C 69.4,20.500000000000057 69.1,22.500000000000057 67.19999999999999,24.600000000000023 C 68.6,24.400000000000034 69.5,24.30000000000001 70.5,24.200000000000045 C 69.9,25.400000000000034 69.19999999999999,26.300000000000068 68.19999999999999,26.600000000000023 C 66.1,27.400000000000034 64.0,27.900000000000034 61.79999999999998,28.5 C 60.69999999999999,28.80000000000001 59.69999999999999,29.19999999999999 57.999999999999986,29.69999999999999 C 61.39999999999998,31.69999999999999 64.39999999999998,32.5 68.39999999999998,32.89999999999998 C 63.69999999999999,36.599999999999966 58.79999999999998,38.0 53.29999999999998,38.599999999999966 C 54.999999999999986,39.49999999999994 56.79999999999998,40.19999999999993 58.59999999999998,40.60000000000002 C 60.39999999999998,40.89999999999998 62.29999999999998,40.89999999999998 64.29999999999998,41.10000000000002 C 64.1,43.0 64.19999999999999,45.0 63.599999999999994,46.80000000000007 C 62.900000000000006,48.60000000000002 61.400000000000006,50.10000000000002 60.0,52.200000000000045 C 62.400000000000006,51.700000000000045 64.30000000000001,51.40000000000009 66.19999999999999,51.0 C 66.29999999999998,51.200000000000045 66.5,51.5 66.6,51.700000000000045 C 65.1,52.80000000000007 63.69999999999999,54.0 62.099999999999994,55.10000000000002 C 59.400000000000006,56.80000000000007 56.69999999999999,58.30000000000007 53.89999999999999,59.89999999999998 C 52.19999999999999,60.89999999999998 50.8,62.39999999999998 51.19999999999999,64.10000000000002 C 51.69999999999999,66.5 50.099999999999994,67.10000000000002 48.39999999999999,67.89999999999998 C 44.3,69.79999999999995 39.999999999999986,69.89999999999998 35.499999999999986,69.39999999999998 C 34.39999999999999,69.29999999999995 33.19999999999999,69.10000000000002 32.09999999999998,69.0 C 35.29999999999998,72.20000000000005 39.59999999999998,72.89999999999998 44.29999999999998,74.20000000000005 C 43.09999999999998,75.30000000000007 42.29999999999998,76.10000000000002 41.19999999999999,77.10000000000002 C 43.29999999999998,77.39999999999998 45.19999999999999,77.60000000000002 47.099999999999994,77.89999999999998 C 48.0,78.0 48.89999999999999,78.19999999999993 49.599999999999994,78.69999999999993 C 51.19999999999999,79.69999999999993 52.69999999999999,80.89999999999998 54.3,82.09999999999991 C 55.0,84.79999999999995 52.099999999999994,86.29999999999995 50.5,88.69999999999993 C 53.099999999999994,88.89999999999998 55.3,88.99999999999989 57.7,89.19999999999993 C 57.2,90.19999999999993 57.0,90.99999999999989 56.5,91.59999999999991 C 54.8,93.79999999999995 52.099999999999994,95.29999999999995 51.599999999999994,98.19999999999993 C 51.5,98.59999999999991 50.89999999999999,98.99999999999989 50.5,99.29999999999995 C 42.2,106.59999999999991 32.2,110.19999999999993 20.599999999999994,110.19999999999993 L 17.0,110.19999999999993 C 18.0,112.59999999999991 18.099999999999994,112.59999999999991 19.5,113.49999999999989 C 22.400000000000006,115.39999999999986 25.599999999999994,115.29999999999984 28.900000000000006,114.69999999999993 C 30.200000000000003,114.49999999999989 31.400000000000006,113.99999999999989 32.900000000000006,114.99999999999989 C 29.60000000000001,117.99999999999989 25.0,118.59999999999991 21.200000000000003,120.99999999999989 C 24.0,122.09999999999991 26.60000000000001,121.79999999999984 29.10000000000001,121.49999999999989 C 31.700000000000003,121.19999999999993 34.30000000000001,120.69999999999993 37.10000000000001,120.29999999999984 C 36.7,121.49999999999989 36.500000000000014,122.29999999999984 36.2,123.29999999999984 C 39.8,124.19999999999982 42.7,121.69999999999982 46.2,121.89999999999986 C 44.900000000000006,124.79999999999984 42.3,126.49999999999989 40.10000000000001,128.4999999999999 C 38.000000000000014,130.39999999999986 35.60000000000001,132.19999999999993 33.2,133.69999999999993 C 30.700000000000003,135.29999999999995 28.0,136.69999999999993 25.299999999999997,138.0999999999999 C 25.299999999999997,138.29999999999995 25.39999999999999,138.39999999999986 25.39999999999999,138.5999999999999 C 28.39999999999999,138.69999999999993 31.499999999999986,138.79999999999995 34.8,138.89999999999986 C 33.5,142.19999999999982 30.299999999999997,143.69999999999982 28.200000000000003,145.89999999999986 C 30.0,149.19999999999982 30.10000000000001,150.79999999999984 28.299999999999997,153.29999999999984 C 25.599999999999994,157.0999999999998 21.799999999999997,159.39999999999986 16.700000000000003,159.79999999999984 C 15.200000000000003,159.89999999999986 13.600000000000009,159.9999999999999 11.799999999999997,160.0999999999998 C 15.599999999999994,163.99999999999977 21.200000000000003,165.29999999999984 30.400000000000006,164.5999999999998 C 29.80000000000001,165.0999999999998 29.5,165.49999999999977 29.0,165.69999999999982 C 27.400000000000006,166.49999999999977 25.900000000000006,167.29999999999984 24.299999999999997,168.0999999999998 C 22.0,169.29999999999984 20.5,170.79999999999984 20.0,173.39999999999975 C 18.599999999999994,181.29999999999973 14.5,187.89999999999975 6.200000000000003,191.6999999999997 C 6.0,191.79999999999973 6.0,191.99999999999966 5.799999999999997,192.29999999999973 C 7.700000000000003,193.39999999999975 9.700000000000003,192.6999999999997 11.599999999999994,192.59999999999968 C 13.0,192.49999999999966 14.699999999999989,191.49999999999966 15.599999999999994,193.09999999999968 C 16.39999999999999,194.49999999999966 15.099999999999994,195.59999999999968 14.199999999999989,196.59999999999968 C 11.699999999999989,199.1999999999997 8.599999999999994,201.29999999999973 5.099999999999994,202.79999999999973 C 3.299999999999997,203.59999999999968 1.3999999999999915,204.39999999999975 0.0,206.09999999999968 C 0.7999999999999972,206.1999999999997 1.2000000000000028,206.29999999999973 1.5999999999999943,206.29999999999973 C 4.299999999999997,206.1999999999997 6.799999999999997,206.59999999999968 8.399999999999991,208.89999999999975 C 8.699999999999989,209.39999999999975 9.699999999999989,209.6999999999997 10.399999999999991,209.79999999999973 L 26.89999999999999,210.6999999999997 C 27.499999999999986,210.6999999999997 28.099999999999994,210.89999999999975 29.099999999999994,210.99999999999966 C 27.19999999999999,214.39999999999964 23.099999999999994,213.99999999999966 20.299999999999997,215.7999999999996 C 20.799999999999997,215.99999999999966 21.099999999999994,216.1999999999996 21.39999999999999,216.2999999999996 C 22.099999999999994,216.39999999999964 22.69999999999999,216.49999999999966 23.39999999999999,216.59999999999957 C 28.39999999999999,217.1999999999996 33.3,216.49999999999955 38.099999999999994,215.1999999999996 C 40.69999999999999,214.49999999999955 43.3,213.6999999999996 46.0,214.59999999999957 C 51.599999999999994,216.39999999999952 57.3,216.1999999999996 63.0,215.1999999999996 C 64.1,214.99999999999955 65.19999999999999,214.99999999999955 66.4,214.89999999999964 C 66.6,215.7999999999996 66.70000000000002,216.49999999999966 66.80000000000001,217.1999999999996 C 67.0,219.7999999999996 67.20000000000002,222.39999999999964 67.4,225.09999999999957 C 67.6,227.09999999999957 68.70000000000002,228.2999999999996 70.9,228.99999999999955 C 75.5,230.49999999999955 79.9,229.89999999999952 84.20000000000002,228.59999999999957 C 87.10000000000002,227.6999999999996 89.20000000000002,225.6999999999996 89.20000000000002,222.39999999999952 C 89.20000000000002,220.09999999999957 89.60000000000002,217.7999999999995 89.9,215.59999999999957 C 90.4,215.49999999999955 90.6,215.39999999999952 90.9,215.49999999999955 L 93.6,215.7999999999995 C 100.5,216.19999999999948 107.1,215.39999999999952 112.69999999999999,211.19999999999948 C 113.39999999999998,210.69999999999948 114.39999999999998,210.2999999999995 115.39999999999998,210.19999999999948 C 118.59999999999997,209.69999999999948 121.89999999999998,209.49999999999943 124.99999999999997,208.7999999999995 C 130.29999999999998,207.49999999999955 135.09999999999997,205.39999999999952 139.49999999999997,202.39999999999952 C 141.09999999999997,201.2999999999995 142.09999999999997,200.09999999999957 140.59999999999997,197.49999999999955 C 144.09999999999997,199.7999999999995 146.29999999999995,198.99999999999955 148.09999999999997,196.59999999999957 C 148.49999999999997,196.09999999999957 149.39999999999998,195.6999999999996 150.09999999999997,195.6999999999996 C 153.79999999999995,195.49999999999955 157.09999999999997,194.39999999999964 160.49999999999997,192.39999999999964 C 160.69999999999996,194.7999999999996 162.39999999999998,195.49999999999966 164.39999999999998,195.59999999999968 C 165.79999999999998,195.59999999999968 167.29999999999998,195.39999999999964 168.7,195.09999999999968 C 170.1,194.79999999999973 171.0,193.99999999999966 171.1,192.49999999999966 C 171.2,191.1999999999997 171.5,189.89999999999964 171.7,188.89999999999964 C 174.2,188.49999999999966 176.5,188.2999999999996 178.7,187.89999999999964 C 183.79999999999998,186.99999999999966 188.8,185.99999999999966 193.89999999999998,184.89999999999964 C 195.89999999999998,184.49999999999966 198.0,184.09999999999968 199.59999999999997,183.09999999999968 C 202.39999999999998,181.1999999999997 205.59999999999997,180.49999999999966 208.89999999999998,179.79999999999973 C 211.5,179.29999999999973 214.2,178.79999999999973 216.79999999999995,178.1999999999997 C 218.69999999999993,177.6999999999997 220.69999999999993,177.09999999999968 222.39999999999998,176.1999999999997 C 228.59999999999997,172.89999999999975 235.5,172.59999999999968 242.29999999999995,172.09999999999968 C 242.49999999999994,172.09999999999968 242.59999999999997,172.29999999999973 242.99999999999994,172.59999999999968 C 242.79999999999995,173.1999999999997 242.49999999999994,173.89999999999964 242.19999999999993,174.59999999999968 C 244.89999999999992,175.29999999999973 245.49999999999994,175.39999999999964 248.29999999999995,174.6999999999997 C 252.69999999999993,173.6999999999997 256.99999999999994,172.49999999999966 261.29999999999995,171.39999999999975 C 268.79999999999995,169.5999999999998 276.29999999999995,167.5999999999998 284.09999999999997,167.0999999999998 C 286.49999999999994,166.89999999999975 289.09999999999997,166.39999999999975 291.2,164.79999999999984 C 289.0,164.4999999999999 286.8,164.69999999999982 284.59999999999997,164.39999999999986 C 282.4,164.0999999999999 279.9,164.9999999999999 277.59999999999997,162.9999999999999 C 279.2,162.4999999999999 280.4,161.9999999999999 281.7,161.69999999999993 C 284.9,161.0999999999999 288.09999999999997,160.5999999999999 291.3,159.89999999999998 C 292.90000000000003,159.5 294.7,159.10000000000002 295.90000000000003,158.19999999999993 C 297.6,156.69999999999993 299.50000000000006,156.19999999999993 301.70000000000005,156.0999999999999 C 303.1,155.9999999999999 304.70000000000005,156.0999999999999 306.40000000000003,154.69999999999993 C 302.20000000000005,154.0999999999999 298.70000000000005,153.5999999999999 294.70000000000005,152.9999999999999 C 295.40000000000003,152.5999999999999 295.6,152.4999999999999 295.80000000000007,152.39999999999986 C 299.00000000000006,151.5999999999999 302.6000000000001,151.89999999999986 305.30000000000007,149.69999999999982 C 305.80000000000007,149.29999999999984 306.80000000000007,149.39999999999986 307.6000000000001,149.39999999999986 C 309.50000000000006,149.4999999999999 311.4000000000001,149.69999999999982 313.30000000000007,149.69999999999982 C 316.30000000000007,149.79999999999984 319.4000000000001,149.89999999999986 322.4000000000001,149.79999999999984 C 325.4000000000001,149.69999999999982 328.5000000000001,149.39999999999986 331.5000000000001,149.19999999999982 C 335.8000000000001,148.89999999999986 340.0000000000001,148.29999999999984 344.0000000000001,146.5999999999998 C 344.3000000000001,146.49999999999977 344.5000000000001,146.19999999999982 344.8000000000001,145.99999999999977 C 344.40000000000015,145.29999999999973 344.0000000000001,144.69999999999982 343.3000000000001,143.5999999999998 C 344.7000000000001,143.39999999999975 345.7000000000001,143.0999999999998 346.8000000000001,143.0999999999998 C 349.5000000000001,143.0999999999998 352.2000000000001,142.99999999999977 354.90000000000015,143.19999999999982 C 357.70000000000016,143.29999999999984 360.50000000000017,143.0999999999998 363.3000000000001,142.5999999999998 C 366.8000000000001,141.99999999999977 370.40000000000015,141.99999999999977 374.0000000000001,141.79999999999984 C 374.9000000000001,141.79999999999984 376.2000000000001,141.89999999999986 376.5000000000001,142.39999999999986 C 378.10000000000014,144.79999999999984 380.4000000000001,143.89999999999986 382.5000000000001,143.69999999999982 C 387.60000000000014,143.0999999999998 392.7000000000001,142.29999999999984 397.9000000000001,141.5999999999998 C 398.7000000000001,141.49999999999977 399.5000000000001,141.29999999999984 400.30000000000007,141.19999999999982 C 396.1000000000001,139.89999999999986 391.50000000000006,140.39999999999986 387.30000000000007,138.79999999999984 C 387.9000000000001,138.19999999999982 388.6000000000001,137.79999999999984 389.20000000000005,137.79999999999984 C 391.6,137.69999999999982 393.90000000000003,137.4999999999999 396.30000000000007,137.69999999999982 C 406.4000000000001,138.29999999999984 416.30000000000007,136.69999999999982 426.30000000000007,135.5999999999998 C 426.9000000000001,135.49999999999977 427.6000000000001,135.29999999999984 428.9000000000001,134.99999999999977 C 427.7000000000001,134.69999999999982 427.30000000000007,134.5999999999998 426.7000000000001,134.49999999999977 C 420.5000000000001,133.5999999999998 414.5000000000001,132.69999999999982 408.5000000000001,131.49999999999977 L 408.50000000000006,131.50000000000045 M 821.5,208.30000000000052 C 819.7,207.30000000000052 817.9,206.40000000000055 816.1,205.40000000000055 C 813.6,203.90000000000055 811.0,202.40000000000055 808.6,200.7000000000005 C 805.2,198.30000000000052 801.9,195.7000000000005 798.6,193.10000000000048 C 797.8000000000001,192.40000000000043 796.7,191.7000000000005 797.0,190.10000000000048 C 803.0,195.2000000000005 809.8,197.90000000000043 818.1,197.10000000000048 C 811.3000000000001,192.2000000000005 810.8000000000001,185.00000000000045 808.6,178.10000000000048 C 811.0,177.90000000000043 813.7,178.2000000000005 815.0,175.7000000000005 C 814.4,175.50000000000045 814.0,175.2000000000005 813.4,175.10000000000048 C 809.6,174.2000000000005 806.4,172.40000000000043 803.3,170.30000000000052 C 799.8,167.90000000000055 797.5,165.00000000000057 798.8,160.60000000000048 C 796.9,159.60000000000048 795.0,158.7000000000005 792.5,157.50000000000045 C 796.1,157.10000000000048 799.0,157.00000000000045 801.8,156.3000000000004 C 804.5999999999999,155.60000000000036 807.1999999999999,154.40000000000043 810.1999999999999,152.3000000000004 C 805.5999999999999,151.60000000000036 801.4,152.10000000000036 797.9999999999999,150.00000000000045 C 794.5999999999999,147.90000000000043 790.0999999999999,148.10000000000048 786.3999999999999,145.2000000000005 L 793.0999999999999,145.2000000000005 C 798.6999999999999,145.2000000000005 803.8,143.80000000000052 807.9999999999999,140.40000000000055 C 808.4999999999999,140.00000000000057 808.6999999999999,139.40000000000055 809.0999999999999,138.7000000000005 C 795.9999999999999,139.2000000000005 793.1999999999999,138.7000000000005 790.9999999999999,135.80000000000052 C 795.2999999999998,135.30000000000052 799.1999999999999,134.2000000000005 801.9999999999999,130.2000000000005 C 796.3999999999999,130.2000000000005 791.2999999999998,130.10000000000048 786.4999999999999,128.7000000000005 C 780.8999999999999,127.10000000000048 776.0999999999999,124.00000000000045 774.5999999999999,121.30000000000052 C 777.4999999999999,122.10000000000048 780.3999999999999,122.90000000000055 783.8999999999999,123.90000000000055 C 782.9999999999999,122.2000000000005 782.4999999999999,121.2000000000005 781.8999999999999,120.10000000000059 C 783.5999999999999,118.60000000000059 785.1999999999998,117.20000000000061 785.1999999999998,114.90000000000055 C 785.1999999999998,112.00000000000057 783.5999999999998,109.90000000000055 781.4999999999998,108.00000000000057 C 780.7999999999997,107.40000000000055 779.5999999999998,106.60000000000059 779.6999999999998,106.00000000000057 C 779.9999999999998,103.60000000000059 779.2999999999998,101.50000000000057 777.7999999999998,99.40000000000055 C 781.1999999999998,98.80000000000052 784.2999999999998,98.30000000000052 787.2999999999998,97.60000000000059 C 790.3999999999999,96.80000000000064 793.4999999999999,95.70000000000061 795.2999999999998,92.70000000000061 C 786.6999999999998,94.80000000000064 778.7999999999998,93.90000000000066 770.7999999999998,89.70000000000061 C 778.7999999999998,90.10000000000059 781.7999999999998,89.30000000000064 783.7999999999998,86.50000000000057 C 782.0999999999998,86.50000000000057 780.2999999999998,86.70000000000061 778.5999999999998,86.50000000000057 C 774.9999999999998,86.00000000000057 771.7999999999998,84.90000000000055 770.9999999999998,81.10000000000059 C 770.7999999999997,80.30000000000064 770.2999999999997,79.30000000000064 769.5999999999998,78.70000000000061 C 767.5999999999998,77.10000000000059 767.4999999999998,75.10000000000059 767.7999999999998,72.90000000000066 C 770.3999999999999,72.6000000000007 772.9999999999999,72.90000000000066 775.8999999999999,71.50000000000068 C 773.5999999999999,70.90000000000066 771.9999999999999,70.6000000000007 770.3999999999999,70.1000000000007 C 768.8999999999999,69.6000000000007 766.8999999999999,69.40000000000066 766.4999999999999,67.40000000000066 C 770.4999999999999,66.6000000000007 770.4999999999999,66.6000000000007 771.7999999999998,64.6000000000007 C 768.2999999999998,63.70000000000073 765.3999999999999,62.20000000000073 763.6999999999998,59.20000000000073 C 763.3999999999999,58.70000000000073 762.3999999999999,58.600000000000705 761.6999999999998,58.20000000000073 C 761.1999999999998,57.90000000000077 760.6999999999998,57.600000000000705 760.0999999999998,57.30000000000075 L 760.6999999999998,56.70000000000073 C 763.5999999999998,55.50000000000068 763.7999999999998,54.600000000000705 761.6999999999998,52.600000000000705 C 760.3999999999999,51.30000000000075 759.7999999999998,49.90000000000066 759.5999999999998,48.30000000000075 C 759.1999999999998,45.500000000000796 758.8999999999997,42.500000000000796 756.9999999999998,39.30000000000075 C 756.2999999999997,41.80000000000075 755.7999999999997,43.70000000000073 755.0999999999998,45.600000000000705 C 754.5999999999998,47.00000000000068 754.0999999999998,48.70000000000073 752.9999999999998,49.600000000000705 C 751.8999999999997,50.600000000000705 749.9999999999998,50.80000000000075 748.2999999999997,51.40000000000066 C 748.9999999999998,53.30000000000064 751.6999999999997,53.50000000000068 753.6999999999997,55.100000000000705 L 748.6999999999997,56.100000000000705 C 746.2999999999997,56.600000000000705 746.1999999999997,56.70000000000073 746.0999999999997,58.90000000000066 C 745.9999999999997,61.40000000000066 745.7999999999997,61.700000000000614 743.0999999999997,62.600000000000705 C 741.7999999999997,63.00000000000068 740.4999999999997,63.30000000000075 738.6999999999997,63.80000000000075 C 740.1999999999997,64.40000000000077 740.9999999999997,64.70000000000073 742.1999999999997,65.1000000000007 C 740.0999999999997,66.90000000000066 737.7999999999997,66.70000000000073 735.6999999999997,66.50000000000068 C 733.5999999999997,66.30000000000064 731.4999999999997,65.80000000000064 729.3999999999997,65.50000000000068 C 729.2999999999997,65.70000000000073 729.1999999999997,65.90000000000066 729.0999999999998,66.00000000000068 C 732.6999999999998,68.1000000000007 736.2999999999998,70.1000000000007 739.8999999999997,72.20000000000073 C 739.7999999999997,72.40000000000077 739.6999999999997,72.70000000000073 739.6999999999997,72.90000000000077 C 737.2999999999997,73.0000000000008 734.7999999999997,73.20000000000073 732.3999999999997,73.30000000000075 C 732.3999999999997,73.5000000000008 732.2999999999997,73.6000000000007 732.2999999999997,73.80000000000075 C 733.6999999999997,74.5000000000008 735.0999999999997,75.30000000000075 736.4999999999998,76.1000000000007 C 735.9999999999998,77.00000000000068 735.6999999999998,77.70000000000073 735.1999999999998,78.6000000000007 C 738.0999999999998,80.30000000000075 741.2999999999998,80.6000000000007 745.0999999999998,81.30000000000075 C 741.1999999999998,83.0000000000008 737.6999999999998,82.80000000000075 734.0999999999998,82.80000000000075 C 730.4999999999998,82.80000000000075 726.8999999999997,82.70000000000073 723.0999999999998,82.6000000000007 C 725.1999999999998,85.20000000000073 728.4999999999998,86.20000000000073 731.4999999999998,88.30000000000075 C 726.9999999999998,90.6000000000007 723.1999999999998,88.80000000000075 718.6999999999998,87.30000000000075 C 720.3999999999999,89.5000000000008 721.5999999999998,91.1000000000007 722.8999999999999,92.80000000000075 C 718.3999999999999,93.90000000000077 715.2999999999998,92.40000000000077 712.3999999999999,90.0000000000008 C 713.1999999999998,89.10000000000082 713.6999999999998,88.5000000000008 714.2999999999998,87.90000000000077 C 714.3999999999999,87.80000000000075 714.2999999999998,87.5000000000008 714.2999999999998,87.20000000000073 C 709.9999999999999,86.20000000000073 705.9999999999999,84.70000000000073 703.0999999999998,81.20000000000073 C 707.0999999999998,81.20000000000073 710.9999999999998,81.6000000000007 714.1999999999998,78.70000000000073 C 710.6999999999998,77.20000000000073 707.1999999999998,75.90000000000077 705.1999999999998,72.70000000000073 C 707.0999999999998,72.20000000000073 709.0999999999998,71.90000000000077 709.6999999999998,70.30000000000075 C 707.8999999999999,69.1000000000007 705.8999999999999,68.40000000000077 704.6999999999998,67.0000000000008 C 702.6999999999998,64.60000000000082 699.7999999999998,62.60000000000082 700.1999999999998,59.000000000000796 C 700.1999999999998,58.80000000000075 699.9999999999998,58.60000000000082 699.9999999999998,58.40000000000077 C 699.0999999999998,54.500000000000796 698.0999999999998,50.500000000000796 697.1999999999998,46.60000000000082 C 697.0999999999998,46.000000000000796 696.8999999999999,45.300000000000864 696.7999999999998,44.500000000000796 C 695.2999999999998,45.40000000000077 694.5999999999998,46.20000000000084 694.3999999999999,47.60000000000082 C 693.8999999999999,51.10000000000082 693.1999999999998,54.60000000000082 692.3999999999999,58.000000000000796 C 691.8999999999999,60.20000000000084 691.0999999999999,60.60000000000082 688.6999999999998,60.70000000000084 L 687.2999999999998,60.70000000000084 C 686.2999999999998,63.000000000000796 688.6999999999998,63.70000000000084 689.5999999999998,65.10000000000082 C 686.3999999999997,67.30000000000086 683.9999999999998,64.90000000000077 681.0999999999998,64.30000000000086 C 681.2999999999998,66.40000000000089 681.8999999999997,68.10000000000082 683.5999999999998,69.20000000000084 C 685.2999999999998,70.30000000000086 685.9999999999998,71.70000000000084 686.1999999999998,73.70000000000084 C 684.3999999999999,75.40000000000089 682.3999999999999,77.10000000000082 678.9999999999998,77.5000000000008 C 681.8999999999997,79.10000000000082 684.6999999999998,78.40000000000077 687.6999999999998,78.80000000000075 C 685.7999999999998,80.30000000000075 683.9999999999998,80.70000000000073 682.0999999999998,80.90000000000077 C 680.1999999999998,81.10000000000082 678.1999999999998,81.10000000000082 676.2999999999998,81.20000000000073 C 676.2999999999998,81.40000000000077 676.1999999999998,81.6000000000007 676.1999999999998,81.80000000000075 C 678.0999999999998,82.70000000000073 679.9999999999998,83.70000000000073 681.9999999999998,84.70000000000073 C 679.7999999999997,89.30000000000075 675.6999999999998,91.6000000000007 670.9999999999998,93.90000000000077 C 673.7999999999997,94.40000000000077 676.6999999999998,94.90000000000077 679.8999999999997,95.5000000000008 C 673.7999999999997,98.10000000000082 665.0999999999998,96.80000000000075 662.3999999999997,93.30000000000075 C 667.5999999999998,92.6000000000007 672.2999999999997,91.1000000000007 676.1999999999997,86.70000000000073 C 671.5999999999997,87.1000000000007 667.4999999999997,88.6000000000007 663.5999999999997,85.50000000000068 C 667.0999999999997,84.50000000000068 670.1999999999997,83.6000000000007 672.1999999999997,80.90000000000066 C 665.7999999999997,81.70000000000061 665.7999999999997,81.70000000000061 664.0999999999997,79.50000000000068 C 665.0999999999997,78.6000000000007 666.9999999999997,78.70000000000073 667.6999999999997,77.1000000000007 C 664.8999999999997,76.80000000000075 661.9999999999997,77.20000000000073 659.9999999999997,74.70000000000073 C 660.5999999999997,74.40000000000077 661.0999999999997,74.30000000000075 661.3999999999996,74.1000000000007 C 662.1999999999996,73.50000000000068 663.2999999999996,72.80000000000075 663.5999999999997,72.00000000000068 C 663.9999999999997,70.70000000000073 662.3999999999996,70.6000000000007 661.3999999999996,70.1000000000007 C 660.0999999999997,69.50000000000068 659.6999999999996,68.70000000000073 659.6999999999996,67.40000000000066 C 659.5999999999996,64.70000000000061 659.3999999999996,62.00000000000068 659.1999999999996,59.200000000000614 C 659.0999999999996,58.60000000000059 658.7999999999996,58.00000000000057 658.4999999999995,56.700000000000614 C 657.6999999999996,58.40000000000066 657.3999999999995,59.700000000000614 656.6999999999996,60.60000000000059 C 654.9999999999995,62.900000000000546 653.9999999999995,66.00000000000057 649.3999999999996,66.30000000000064 C 651.6999999999996,67.70000000000061 653.5999999999997,68.80000000000064 655.2999999999996,69.90000000000066 C 651.6999999999996,71.50000000000068 651.1999999999996,75.40000000000066 647.3999999999996,76.70000000000061 C 648.3999999999996,77.30000000000064 648.9999999999997,77.70000000000061 649.7999999999996,78.20000000000061 C 647.4999999999997,82.10000000000059 643.6999999999996,83.00000000000057 639.2999999999996,83.00000000000057 C 640.4999999999997,85.70000000000061 643.7999999999996,85.10000000000059 645.8999999999996,86.30000000000052 C 644.4999999999997,90.60000000000048 640.7999999999996,92.80000000000052 637.0999999999997,94.90000000000055 L 634.9999999999997,96.10000000000059 C 637.5999999999997,96.60000000000059 640.0999999999997,96.60000000000059 642.4999999999997,96.60000000000059 C 645.1999999999997,96.50000000000057 645.6999999999997,96.70000000000061 647.0999999999997,99.20000000000061 C 646.3999999999996,100.50000000000057 645.0999999999997,100.40000000000066 643.8999999999996,100.20000000000061 C 642.3999999999996,100.00000000000057 641.2999999999996,100.30000000000064 640.1999999999996,101.30000000000064 C 638.0999999999996,103.20000000000061 635.8999999999996,105.00000000000068 633.5999999999996,106.90000000000066 C 632.2999999999996,106.00000000000068 630.6999999999996,105.20000000000061 630.4999999999995,103.30000000000064 C 631.8999999999995,101.90000000000066 634.4999999999995,101.30000000000064 634.0999999999996,98.60000000000059 C 630.2999999999996,98.90000000000055 626.5999999999996,98.50000000000057 622.6999999999996,97.10000000000059 C 630.2999999999996,95.60000000000059 634.8999999999996,92.50000000000057 635.3999999999996,88.60000000000059 C 631.5999999999997,89.60000000000059 627.8999999999996,90.90000000000055 623.1999999999996,89.40000000000055 C 625.5999999999996,88.60000000000059 627.2999999999996,88.10000000000059 629.1999999999996,87.50000000000057 C 627.9999999999995,86.70000000000061 627.1999999999996,86.20000000000061 626.1999999999996,85.50000000000057 C 629.2999999999996,82.80000000000052 633.0999999999996,80.70000000000061 634.7999999999996,76.40000000000055 C 627.3999999999996,79.7000000000005 624.3999999999996,79.30000000000052 622.7999999999996,75.40000000000055 C 624.0999999999996,74.7000000000005 625.2999999999996,74.00000000000057 626.4999999999997,73.30000000000052 C 624.6999999999997,71.50000000000057 623.1999999999997,70.10000000000048 622.2999999999996,69.2000000000005 C 621.8999999999996,66.60000000000048 622.1999999999996,64.40000000000055 621.1999999999996,63.000000000000455 C 619.1999999999996,60.40000000000043 618.6999999999996,57.7000000000005 618.1999999999996,54.80000000000041 C 617.9999999999995,53.80000000000041 617.5999999999996,52.80000000000041 617.1999999999996,51.90000000000043 C 616.8999999999996,51.90000000000043 616.6999999999996,51.90000000000043 616.3999999999996,52.000000000000455 C 615.3999999999996,54.40000000000043 614.8999999999996,56.90000000000043 614.2999999999996,59.500000000000455 C 613.8999999999996,61.10000000000048 613.4999999999997,63.000000000000455 612.3999999999996,64.30000000000041 C 610.3999999999996,66.70000000000039 609.5999999999997,69.00000000000045 611.3999999999996,71.80000000000041 C 607.9999999999997,73.30000000000041 605.0999999999997,71.80000000000041 601.7999999999996,71.40000000000043 C 602.6999999999996,72.60000000000048 603.6999999999996,73.80000000000041 604.8999999999996,75.40000000000043 C 602.7999999999996,75.70000000000039 600.9999999999997,75.90000000000043 598.9999999999997,76.10000000000048 C 600.8999999999996,78.60000000000048 603.5999999999997,79.2000000000005 606.2999999999996,79.90000000000043 C 603.3999999999996,83.20000000000039 600.1999999999996,84.20000000000039 595.7999999999996,81.90000000000043 C 596.7999999999996,85.30000000000041 600.0999999999996,86.30000000000041 602.1999999999996,88.10000000000048 L 601.8999999999996,88.7000000000005 C 599.2999999999996,88.30000000000052 596.6999999999996,87.90000000000055 593.9999999999997,87.40000000000055 C 593.8999999999996,87.60000000000059 593.6999999999997,87.80000000000052 593.5999999999997,87.90000000000055 C 594.8999999999996,89.30000000000052 596.2999999999997,90.60000000000059 597.9999999999997,92.30000000000052 C 594.2999999999996,92.80000000000052 591.1999999999997,92.60000000000048 588.1999999999997,90.10000000000048 C 590.0999999999997,88.80000000000052 591.7999999999997,87.50000000000045 593.9999999999997,86.00000000000045 C 591.0999999999997,86.00000000000045 588.1999999999997,87.80000000000041 587.1999999999997,84.2000000000005 C 587.5999999999997,83.80000000000052 587.9999999999997,83.30000000000052 588.3999999999997,82.80000000000052 C 588.7999999999997,82.30000000000052 588.9999999999998,81.80000000000052 589.3999999999997,81.2000000000005 C 585.8999999999997,80.60000000000048 585.8999999999997,80.60000000000048 586.1999999999997,77.30000000000052 C 586.2999999999997,75.80000000000052 586.6999999999997,74.2000000000005 585.1999999999997,72.90000000000055 C 582.1999999999997,75.30000000000052 582.7999999999997,78.30000000000052 583.4999999999997,81.2000000000005 C 582.0999999999997,81.50000000000045 581.0999999999997,81.7000000000005 579.8999999999996,81.90000000000055 C 580.1999999999996,82.50000000000057 580.3999999999996,82.80000000000052 580.6999999999996,83.2000000000005 C 582.1999999999996,85.7000000000005 581.7999999999996,86.50000000000045 578.5999999999996,87.10000000000048 L 575.2999999999996,87.7000000000005 C 577.1999999999996,90.30000000000052 577.1999999999996,90.30000000000052 574.7999999999996,92.2000000000005 C 573.6999999999996,91.30000000000052 572.5999999999996,90.40000000000055 571.5999999999996,89.60000000000048 C 571.9999999999995,88.7000000000005 572.2999999999996,88.10000000000048 572.3999999999995,87.90000000000043 C 570.6999999999995,86.90000000000043 568.6999999999995,86.30000000000041 567.9999999999995,85.10000000000048 C 567.3999999999995,84.10000000000048 566.8999999999995,83.40000000000043 565.7999999999995,83.2000000000005 C 563.6999999999995,82.80000000000052 562.6999999999995,81.7000000000005 562.7999999999995,79.7000000000005 C 563.4999999999995,79.2000000000005 564.2999999999995,78.7000000000005 565.3999999999995,77.90000000000055 C 562.6999999999995,77.10000000000059 563.3999999999995,75.10000000000059 563.1999999999995,73.50000000000057 C 562.8999999999995,71.80000000000052 562.7999999999995,70.20000000000061 562.4999999999994,68.10000000000059 C 560.5999999999995,70.10000000000059 559.6999999999995,72.10000000000059 559.1999999999995,74.20000000000061 C 557.8999999999995,74.40000000000066 556.6999999999995,74.60000000000059 555.3999999999995,74.90000000000066 C 559.6999999999995,80.80000000000064 556.9999999999995,82.50000000000068 551.0999999999996,85.00000000000068 C 552.3999999999995,85.50000000000068 553.5999999999996,86.00000000000068 554.9999999999995,86.6000000000007 C 553.4999999999995,91.00000000000068 549.7999999999995,88.40000000000066 546.4999999999995,88.6000000000007 C 547.6999999999996,90.00000000000068 548.5999999999996,90.90000000000066 549.5999999999996,92.00000000000068 C 548.8999999999995,92.40000000000066 548.1999999999996,92.80000000000064 547.1999999999996,93.40000000000066 C 548.9999999999995,93.80000000000064 550.3999999999996,94.20000000000061 551.9999999999995,94.50000000000068 C 550.2999999999995,96.40000000000066 547.9999999999995,96.80000000000064 545.5999999999996,97.50000000000068 C 547.2999999999996,98.6000000000007 548.8999999999995,99.6000000000007 550.5999999999996,100.70000000000073 C 547.5999999999996,103.1000000000007 544.4999999999995,104.30000000000075 540.2999999999996,102.30000000000075 C 541.5999999999996,100.90000000000077 540.7999999999996,99.90000000000077 539.1999999999996,99.0000000000008 C 538.7999999999996,98.80000000000075 538.4999999999995,98.20000000000084 538.2999999999996,97.80000000000075 C 537.6999999999996,95.6000000000007 537.1999999999996,93.30000000000075 536.5999999999996,91.1000000000007 C 536.3999999999995,90.50000000000068 536.0999999999996,89.90000000000066 535.7999999999996,89.30000000000075 C 534.6999999999996,91.1000000000007 533.9999999999997,92.90000000000077 533.5999999999996,94.70000000000073 C 533.0999999999996,97.1000000000007 532.5999999999996,99.20000000000073 528.9999999999995,99.50000000000068 C 529.5999999999996,100.80000000000064 530.1999999999996,101.80000000000064 530.4999999999995,102.80000000000064 C 530.9999999999995,104.30000000000064 530.3999999999995,105.20000000000061 528.6999999999996,105.30000000000064 C 527.6999999999996,105.30000000000064 526.5999999999996,105.10000000000059 525.2999999999996,104.90000000000066 C 525.0999999999996,107.80000000000064 527.2999999999996,108.80000000000064 529.8999999999996,109.80000000000064 C 528.0999999999997,111.30000000000064 526.4999999999997,112.80000000000064 524.6999999999996,114.30000000000064 C 525.8999999999996,114.90000000000066 526.7999999999996,115.40000000000066 527.9999999999995,116.00000000000068 C 526.5999999999996,118.30000000000064 525.3999999999995,120.50000000000068 523.9999999999995,122.70000000000073 C 522.5999999999996,125.00000000000068 521.2999999999995,125.1000000000007 518.7999999999995,122.90000000000077 C 520.4999999999995,121.5000000000008 523.3999999999995,121.20000000000073 523.7999999999995,118.5000000000008 C 521.8999999999995,117.80000000000075 519.4999999999995,118.0000000000008 519.0999999999995,115.5000000000008 C 519.9999999999994,114.80000000000075 520.7999999999995,114.20000000000084 521.7999999999995,113.40000000000077 C 519.9999999999995,112.0000000000008 518.4999999999995,110.70000000000073 516.5999999999995,109.20000000000073 C 518.3999999999994,108.6000000000007 519.6999999999995,108.20000000000073 521.2999999999995,107.70000000000073 C 520.4999999999995,106.70000000000073 519.8999999999995,105.90000000000077 519.2999999999995,105.00000000000068 C 518.2999999999995,103.50000000000068 516.9999999999995,102.00000000000068 518.5999999999995,100.1000000000007 C 518.9999999999994,99.6000000000007 518.7999999999995,98.1000000000007 518.1999999999995,97.70000000000073 C 516.1999999999995,96.20000000000073 516.4999999999994,94.40000000000077 516.6999999999995,92.40000000000077 C 516.7999999999995,91.30000000000075 516.5999999999995,90.20000000000073 516.4999999999994,89.20000000000073 C 515.6999999999995,89.6000000000007 515.4999999999994,89.90000000000077 515.2999999999994,90.30000000000075 C 514.5999999999993,92.20000000000073 514.1999999999994,94.30000000000075 511.69999999999936,95.1000000000007 C 511.2999999999994,95.20000000000073 510.9999999999993,95.90000000000066 510.9999999999993,96.40000000000066 C 510.8999999999993,98.30000000000064 510.7999999999993,100.1000000000007 510.8999999999993,102.00000000000068 C 511.09999999999934,105.20000000000073 510.69999999999925,105.70000000000073 507.09999999999934,105.70000000000073 C 506.7999999999994,105.70000000000073 506.4999999999993,105.80000000000075 506.09999999999934,105.90000000000077 C 506.3999999999993,108.10000000000082 508.9999999999993,107.80000000000075 510.69999999999936,109.20000000000073 C 507.7999999999994,110.1000000000007 505.3999999999994,110.90000000000077 502.3999999999994,111.80000000000075 C 503.7999999999994,112.6000000000007 504.69999999999936,113.1000000000007 505.59999999999945,113.6000000000007 C 508.7999999999995,115.40000000000066 508.8999999999994,117.40000000000066 505.7999999999995,119.40000000000066 C 504.8999999999995,119.90000000000066 504.09999999999945,120.50000000000068 503.09999999999945,121.30000000000064 C 504.3999999999994,122.20000000000061 505.2999999999995,122.80000000000064 506.2999999999995,123.60000000000059 C 502.09999999999945,124.40000000000055 499.8999999999995,123.00000000000057 497.3999999999995,118.30000000000064 C 498.2999999999995,117.50000000000068 499.2999999999995,116.70000000000061 500.1999999999995,116.00000000000068 C 498.99999999999943,114.30000000000064 497.7999999999995,113.1000000000007 497.09999999999945,111.6000000000007 C 496.49999999999943,110.20000000000073 496.2999999999995,108.6000000000007 495.7999999999995,106.40000000000066 C 495.09999999999945,108.1000000000007 494.6999999999995,109.20000000000061 494.1999999999995,110.20000000000061 C 493.59999999999945,111.50000000000057 493.09999999999945,112.90000000000066 492.09999999999945,114.00000000000057 C 490.99999999999943,115.20000000000061 490.2999999999995,116.40000000000055 490.1999999999995,118.00000000000057 C 490.1999999999995,118.70000000000061 489.49999999999943,119.40000000000055 488.8999999999995,120.00000000000057 C 488.3999999999995,120.60000000000059 487.6999999999995,121.00000000000057 486.49999999999955,121.90000000000055 C 488.3999999999995,122.00000000000057 489.59999999999957,122.10000000000059 491.3999999999995,122.30000000000052 C 487.2999999999995,126.10000000000048 483.6999999999995,129.50000000000057 479.7999999999995,133.2000000000005 C 479.1999999999995,131.50000000000045 478.49999999999955,129.90000000000055 476.7999999999995,128.7000000000005 C 477.59999999999945,127.7000000000005 478.2999999999995,126.80000000000052 478.99999999999955,126.10000000000048 C 477.99999999999955,123.7000000000005 476.99999999999955,121.40000000000043 475.99999999999955,118.90000000000043 C 473.6999999999996,122.30000000000041 471.6999999999996,125.40000000000043 469.59999999999957,128.50000000000045 C 468.2999999999996,127.7000000000005 467.3999999999995,127.2000000000005 466.09999999999957,126.40000000000043 C 464.99999999999955,127.90000000000043 463.7999999999996,129.2000000000004 462.8999999999995,130.60000000000048 C 461.7999999999995,132.60000000000048 460.2999999999995,133.60000000000048 457.6999999999995,133.7000000000005 C 453.3999999999995,133.90000000000055 449.1999999999995,134.50000000000045 444.8999999999995,135.00000000000045 C 447.8999999999995,135.8000000000004 450.8999999999995,136.40000000000043 453.8999999999995,136.7000000000005 C 460.8999999999995,137.50000000000045 468.09999999999957,137.10000000000048 475.09999999999957,138.50000000000045 C 479.1999999999996,139.3000000000004 483.49999999999955,139.8000000000004 487.6999999999996,140.40000000000043 C 486.2999999999996,141.10000000000048 484.89999999999964,141.2000000000004 483.49999999999955,141.40000000000043 C 482.1999999999996,141.60000000000048 480.8999999999995,141.90000000000043 479.59999999999957,142.2000000000004 C 480.1999999999996,142.90000000000043 480.6999999999996,143.2000000000004 481.1999999999996,143.2000000000004 C 486.39999999999964,143.7000000000004 491.2999999999996,145.10000000000036 496.1999999999996,146.60000000000036 C 497.7999999999996,147.10000000000036 499.39999999999964,147.40000000000032 500.99999999999955,148.00000000000034 C 501.7999999999995,148.3000000000003 502.6999999999996,148.90000000000032 502.8999999999995,149.50000000000034 C 503.59999999999957,151.40000000000032 505.2999999999995,151.8000000000003 507.09999999999957,152.2000000000004 C 508.59999999999957,152.50000000000034 510.2999999999996,152.40000000000043 511.7999999999996,152.7000000000004 C 513.0999999999996,152.90000000000043 514.5999999999996,153.10000000000036 515.4999999999997,153.8000000000004 C 518.8999999999996,156.40000000000043 522.7999999999996,157.10000000000036 526.9999999999997,157.50000000000045 C 532.2999999999996,158.00000000000045 537.4999999999997,158.90000000000043 542.6999999999997,159.60000000000048 C 543.6999999999997,159.80000000000052 544.9999999999997,159.90000000000043 545.0999999999997,161.60000000000048 C 541.2999999999997,162.40000000000043 537.1999999999997,161.7000000000005 532.6999999999997,162.60000000000048 C 537.5999999999997,163.90000000000043 541.7999999999997,165.00000000000045 545.9999999999997,166.00000000000045 C 549.1999999999997,166.8000000000004 552.2999999999996,167.40000000000043 555.4999999999997,168.00000000000045 C 558.0999999999997,168.50000000000045 560.6999999999997,168.40000000000043 563.4999999999997,168.10000000000048 C 568.8999999999996,167.50000000000045 574.2999999999996,167.40000000000043 579.0999999999997,170.50000000000045 C 580.5999999999997,171.40000000000043 582.5999999999997,171.8000000000004 584.4999999999997,172.00000000000045 C 587.1999999999997,172.2000000000005 589.5999999999997,173.00000000000045 591.5999999999997,174.50000000000045 C 593.0999999999997,175.60000000000048 594.6999999999997,175.90000000000043 596.5999999999997,176.00000000000045 C 600.4999999999997,176.10000000000048 604.4999999999997,175.50000000000045 608.2999999999997,177.10000000000048 C 608.9999999999998,177.40000000000043 609.8999999999997,177.30000000000052 610.5999999999997,177.2000000000005 C 615.0999999999997,176.60000000000048 618.3999999999996,179.40000000000055 622.1999999999997,180.80000000000052 C 622.3999999999997,180.90000000000055 622.3999999999997,181.30000000000052 622.6999999999997,182.10000000000048 C 618.5999999999997,182.40000000000043 614.7999999999997,181.80000000000052 610.6999999999997,182.30000000000052 C 615.5999999999997,183.80000000000052 620.2999999999997,185.80000000000052 625.2999999999997,186.7000000000005 C 632.4999999999998,188.00000000000045 639.7999999999997,188.50000000000045 647.0999999999997,189.2000000000005 C 648.3999999999996,189.30000000000052 649.7999999999997,189.10000000000048 651.0999999999997,188.80000000000052 C 655.7999999999997,187.60000000000048 660.4999999999997,187.7000000000005 664.9999999999997,189.2000000000005 C 670.5999999999997,191.10000000000048 676.0999999999997,193.2000000000005 681.9999999999997,194.00000000000045 C 682.7999999999996,194.10000000000048 683.5999999999997,194.3000000000004 684.1999999999997,194.7000000000005 C 684.8999999999997,195.2000000000005 685.2999999999997,196.00000000000045 685.8999999999997,196.7000000000005 C 685.1999999999997,197.10000000000048 684.4999999999998,197.80000000000052 683.6999999999997,197.90000000000055 C 681.9999999999997,198.2000000000005 680.2999999999997,198.2000000000005 678.5999999999997,198.40000000000055 C 679.9999999999997,199.40000000000055 681.4999999999997,200.00000000000057 683.0999999999997,200.50000000000057 C 689.5999999999997,202.40000000000055 696.3999999999996,202.50000000000057 703.0999999999997,203.1000000000006 C 704.4999999999997,203.2000000000006 706.2999999999997,203.40000000000055 707.0999999999997,204.2000000000006 C 711.1999999999997,208.7000000000006 716.7999999999997,210.50000000000057 722.7999999999997,211.2000000000006 C 726.9999999999998,211.7000000000006 730.8999999999997,212.30000000000064 734.4999999999998,214.50000000000057 C 737.6999999999998,216.40000000000055 741.6999999999998,216.80000000000052 745.4999999999998,216.90000000000055 C 748.2999999999997,217.00000000000057 748.7999999999997,217.40000000000055 749.1999999999998,219.90000000000055 C 749.4999999999998,221.6000000000006 749.2999999999998,223.30000000000052 749.4999999999998,225.00000000000057 C 749.5999999999998,225.90000000000055 749.9999999999998,227.1000000000006 750.6999999999998,227.6000000000006 C 754.1999999999998,229.80000000000064 758.1999999999998,230.90000000000055 762.4999999999998,230.00000000000057 C 766.0999999999998,229.2000000000006 766.5999999999998,228.6000000000006 766.8999999999997,225.30000000000052 C 766.9999999999998,224.30000000000052 766.9999999999998,223.30000000000052 767.0999999999998,222.30000000000052 C 767.1999999999998,220.80000000000052 767.3999999999997,219.40000000000055 767.4999999999998,218.00000000000057 C 770.6999999999998,217.2000000000006 773.2999999999997,218.1000000000006 775.8999999999997,218.50000000000057 C 778.7999999999997,219.00000000000057 781.7999999999997,219.50000000000057 784.5999999999998,218.40000000000055 C 786.3999999999997,217.7000000000005 787.7999999999998,217.90000000000055 789.4999999999998,218.2000000000005 C 793.3999999999997,218.80000000000052 797.2999999999997,219.50000000000045 801.1999999999998,219.80000000000052 C 802.8999999999999,219.90000000000055 804.6999999999998,219.2000000000005 806.3999999999999,218.7000000000005 C 806.5999999999999,218.60000000000048 806.7999999999998,218.2000000000005 806.9999999999999,218.00000000000045 C 806.5999999999999,217.3000000000004 806.0999999999999,216.7000000000005 805.5999999999999,216.00000000000045 C 814.5999999999999,215.40000000000043 816.3999999999999,214.90000000000043 818.4999999999999,212.50000000000045 C 811.7999999999998,212.50000000000045 805.6999999999999,211.00000000000045 799.5999999999999,207.7000000000005 C 818.8999999999999,209.60000000000048 818.8999999999999,209.60000000000048 821.4999999999999,208.30000000000052 L 821.5,208.30000000000052"/>
</svg>
