<?xml version="1.0" ?>
<svg xmlns="http://www.w3.org/2000/svg" xmlns:ev="http://www.w3.org/2001/xml-events" xmlns:xlink="http://www.w3.org/1999/xlink" baseProfile="full" height="247" id="Layer_1" style="enable-background:new 0 0 720 720;" transform="scale(0.4048582995951417 0.4048582995951417) translate(-300.5 -123.5)" version="1.1" viewBox="0 0 601 247" width="601" x="0px" xml:space="preserve" y="0px">
	<defs/>
	<path d="M 464.053,123.49800000000016 L 431.28499999999997,128.43900000000014 L 414.917,130.88800000000015 L 410.837,131.49300000000017 L 408.823,131.78800000000018 C 408.385,131.85400000000016 407.93,131.9170000000002 407.44599999999997,131.9650000000002 C 405.51099999999997,132.17300000000023 403.28,132.2300000000002 400.94199999999995,132.1770000000002 C 396.251,132.05800000000016 391.16299999999995,131.52900000000017 386.01499999999993,130.8110000000002 C 380.85299999999995,130.0930000000002 375.5949999999999,129.1790000000002 370.2989999999999,128.1820000000002 C 359.7109999999999,126.1790000000002 348.9889999999999,123.84300000000019 338.1959999999999,121.51200000000017 C 323.4729999999999,118.33400000000017 308.60599999999994,115.12200000000018 293.5049999999999,112.41900000000015 C 289.2789999999999,107.14700000000016 285.0029999999999,102.02000000000015 280.61899999999986,96.89200000000017 C 274.79799999999983,90.10700000000014 268.82299999999987,83.43100000000015 262.57299999999987,76.92300000000017 C 256.29699999999985,70.42700000000019 249.83799999999985,64.06700000000018 242.47999999999985,58.18200000000019 C 240.63099999999986,56.7150000000002 238.70999999999987,55.283000000000186 236.66599999999983,53.914000000000215 C 234.60799999999983,52.54800000000023 232.44399999999985,51.22900000000021 229.9309999999998,50.075000000000216 C 228.6699999999998,49.49700000000024 227.31999999999982,48.96300000000019 225.76899999999983,48.539000000000215 C 224.29699999999985,48.14400000000023 223.04699999999985,47.92500000000024 221.78499999999985,47.728000000000236 C 219.29199999999986,47.34900000000022 216.92599999999987,47.140000000000214 214.58299999999986,46.97900000000021 C 205.25499999999988,46.396000000000186 196.24199999999985,46.509000000000185 187.19999999999985,46.7030000000002 C 178.17299999999986,46.920000000000186 169.19099999999986,47.31000000000023 160.21899999999985,47.789000000000215 C 142.27399999999986,48.761000000000195 124.40799999999984,50.03600000000023 106.51899999999983,51.5660000000002 L 106.87099999999984,57.03600000000023 C 124.71899999999982,56.5660000000002 142.60799999999983,56.34400000000022 160.44799999999984,56.43500000000023 C 169.36699999999985,56.49000000000024 178.28199999999984,56.62300000000022 187.14999999999984,56.93500000000023 C 196.00099999999983,57.26900000000023 204.90199999999982,57.69500000000022 213.40599999999984,58.74100000000021 C 215.51399999999984,59.01400000000024 217.60599999999982,59.32600000000019 219.51399999999984,59.74000000000024 C 220.45599999999985,59.93900000000025 221.40199999999982,60.18100000000021 222.08199999999982,60.416000000000224 C 222.69199999999984,60.63300000000021 223.41099999999983,60.95900000000023 224.1549999999998,61.36200000000025 C 227.19199999999978,63.00100000000026 230.44499999999982,65.59900000000027 233.50199999999978,68.33800000000025 C 239.6669999999998,73.90400000000022 245.4579999999998,80.30400000000026 251.0469999999998,86.84800000000024 C 256.6339999999998,93.41900000000027 262.0119999999998,100.22400000000022 267.2469999999998,107.14300000000026 C 267.5899999999998,107.59200000000027 267.92599999999976,108.05200000000025 268.26699999999977,108.50400000000025 C 258.27699999999976,107.25400000000025 248.20199999999977,106.37100000000027 237.7969999999998,106.24100000000027 C 231.82899999999978,106.19500000000028 225.7849999999998,106.54000000000025 219.79099999999983,107.39100000000025 C 213.79799999999983,108.22700000000026 207.87299999999982,109.57800000000026 202.2029999999998,111.29700000000025 C 196.5229999999998,113.01100000000025 191.12199999999982,115.06600000000026 185.9489999999998,117.09000000000026 C 180.7739999999998,119.12500000000028 175.81299999999982,121.10500000000025 170.86599999999981,122.78000000000026 C 165.92799999999983,124.45900000000023 160.9939999999998,125.83400000000023 155.96199999999982,126.83200000000028 C 150.93799999999982,127.83000000000027 145.81999999999982,128.46300000000025 140.6329999999998,128.75800000000027 C 130.25399999999982,129.33800000000025 119.6189999999998,128.61000000000024 109.00499999999982,127.12500000000028 C 98.38199999999983,125.64200000000028 87.76899999999983,123.40200000000027 77.22199999999981,120.75600000000031 L 74.14699999999982,131.3000000000003 C 84.84299999999982,134.5310000000003 95.71799999999982,137.38800000000032 106.86799999999982,139.4950000000003 C 117.99799999999982,141.5930000000003 129.43499999999983,142.9680000000003 141.10999999999981,142.8720000000003 C 146.93999999999983,142.82700000000028 152.8179999999998,142.3930000000003 158.64199999999983,141.52000000000032 C 160.68399999999983,141.21700000000033 162.71899999999982,140.84400000000034 164.74099999999981,140.43300000000033 C 161.57499999999982,144.97300000000035 158.3169999999998,149.4460000000003 154.94599999999983,153.76000000000033 C 150.9669999999998,158.80700000000036 146.79999999999984,163.7680000000003 142.41399999999982,167.83200000000033 C 141.3239999999998,168.83400000000034 140.22299999999981,169.76600000000036 139.15799999999982,170.54300000000035 C 138.11199999999982,171.31600000000037 137.0499999999998,171.93900000000036 136.4189999999998,172.19700000000034 L 136.2259999999998,172.27500000000032 C 136.1559999999998,172.30300000000034 136.1929999999998,172.30300000000034 135.9129999999998,172.36800000000034 L 134.50899999999982,172.72200000000032 C 133.6089999999998,172.95900000000034 132.7449999999998,173.2060000000003 131.89099999999982,173.45900000000034 C 130.18999999999983,173.96600000000035 128.53299999999982,174.48900000000032 126.89399999999983,175.02400000000034 C 113.83399999999983,179.33700000000033 101.18199999999985,184.04400000000032 88.46699999999984,188.76300000000032 C 75.77799999999985,193.50800000000032 63.136999999999844,198.3210000000003 50.511999999999844,203.20700000000033 L 52.39199999999984,208.37300000000033 C 65.34199999999984,204.49600000000032 78.32899999999984,200.68000000000035 91.31899999999985,196.95500000000033 C 104.30499999999984,193.26000000000033 117.35299999999984,189.54300000000035 130.29799999999983,186.36500000000035 C 131.91499999999982,185.97400000000033 133.52599999999984,185.60100000000034 135.09699999999984,185.26700000000034 C 135.88199999999983,185.09600000000034 136.66699999999983,184.93900000000036 137.41499999999985,184.80200000000036 L 138.49699999999984,184.62000000000035 C 138.63699999999983,184.60200000000037 139.08599999999984,184.52200000000033 139.42199999999985,184.44600000000037 C 139.77799999999985,184.36400000000037 140.10999999999984,184.27700000000038 140.43699999999984,184.18200000000036 C 143.00799999999984,183.41200000000038 144.88999999999984,182.36600000000038 146.64899999999983,181.30800000000033 C 148.38799999999983,180.24100000000033 149.93499999999983,179.12100000000032 151.40999999999983,177.96900000000034 C 157.23899999999983,173.35800000000035 162.07799999999983,168.38700000000034 166.78899999999982,163.31900000000036 C 171.46999999999983,158.24100000000038 175.8939999999998,153.03600000000034 180.18799999999982,147.75400000000036 C 182.3349999999998,145.10900000000038 184.44499999999982,142.44400000000036 186.5309999999998,139.75900000000036 C 188.38999999999982,137.36100000000033 190.1949999999998,134.98900000000037 192.03299999999982,132.49800000000033 C 197.17099999999982,130.76500000000033 202.1429999999998,129.15700000000032 207.08699999999982,127.92300000000034 C 217.02899999999983,125.39000000000033 227.00299999999982,124.51900000000035 237.22399999999982,125.11400000000032 C 247.60799999999983,125.73100000000034 258.26599999999985,127.2640000000003 268.81699999999984,129.2060000000003 C 289.9789999999998,133.1360000000003 311.0649999999998,138.76500000000033 332.37499999999983,144.45200000000028 C 343.0419999999998,147.29400000000027 353.7699999999998,150.18300000000028 364.76599999999985,152.81600000000026 C 370.26899999999983,154.12800000000027 375.8439999999998,155.37600000000026 381.5699999999998,156.45400000000024 C 387.30999999999983,157.5320000000002 393.1779999999998,158.46800000000025 399.51399999999984,158.94000000000023 C 402.68599999999986,159.16500000000025 405.98299999999983,159.27300000000025 409.54799999999983,159.08700000000022 C 410.43399999999986,159.0370000000002 411.3519999999998,158.9650000000002 412.2769999999998,158.8740000000002 L 414.3779999999998,158.6690000000002 L 418.51899999999983,158.2560000000002 L 435.04899999999986,156.58700000000022 L 468.05899999999986,153.21100000000024 L 600.0379999999999,139.54300000000023 L 600.0379999999999,102.57000000000022 L 464.053,123.49800000000016 M 0.0,222.70100000000014 C 41.61699999999999,238.45900000000012 49.43899999999999,207.97400000000016 49.43899999999999,207.97400000000016 C 49.43899999999999,207.97400000000016 26.217,186.73400000000015 0.0,222.70100000000014 M 25.019999999999996,172.89800000000014 C 37.019999999999996,209.05200000000013 61.437,196.89600000000013 61.437,196.89600000000013 C 61.437,196.89600000000013 62.980999999999995,169.67000000000013 25.019999999999996,172.89800000000014 M 102.422,145.90200000000016 C 114.43099999999998,182.05800000000016 138.84,169.90400000000017 138.84,169.90400000000017 C 138.84,169.90400000000017 140.387,142.67400000000015 102.422,145.90200000000016 M 45.393,246.71500000000015 C 36.260999999999996,209.73300000000017 63.397000000000006,206.99300000000017 63.397000000000006,206.99300000000017 C 63.397000000000006,206.99300000000017 79.22800000000001,229.19700000000017 45.393,246.71500000000015 M 106.34299999999999,228.24000000000012 C 97.21499999999997,191.25400000000013 124.35199999999998,188.5150000000001 124.35199999999998,188.5150000000001 C 124.35199999999998,188.5150000000001 140.18,210.72500000000014 106.34299999999999,228.24000000000012 M 155.976,1.4210854715202004e-13 C 150.219,44.125000000000114 181.684,44.72300000000013 181.684,44.72300000000013 C 181.684,44.72300000000013 197.007,17.231000000000137 155.976,1.4210854715202004e-13 M 49.979,61.88700000000017 C 88.62299999999999,83.95000000000016 101.107,55.06100000000015 101.107,55.06100000000015 C 101.107,55.06100000000015 81.48400000000001,30.45600000000013 49.979,61.88700000000017 M 79.55600000000001,16.598000000000155 C 85.768,54.18600000000015 111.78200000000001,45.99200000000013 111.78200000000001,45.99200000000013 C 111.78200000000001,45.99200000000013 117.55699999999999,19.341000000000122 79.55600000000001,16.598000000000155 M 88.156,95.60000000000014 C 84.91,57.64300000000014 112.142,59.17400000000015 112.142,59.17400000000015 C 112.142,59.17400000000015 124.31,83.57900000000012 88.156,95.60000000000014 M 174.896,95.60000000000014 C 171.64999999999998,57.64300000000014 198.882,59.17400000000015 198.882,59.17400000000015 C 198.882,59.17400000000015 211.051,83.57900000000012 174.896,95.60000000000014 M 227.47899999999998,173.53700000000015 C 223.64499999999998,128.67200000000014 255.832,130.48000000000013 255.832,130.48000000000013 C 255.832,130.48000000000013 270.211,159.32400000000013 227.47899999999998,173.53700000000015"/>
</svg>
