<?xml version="1.0" ?>
<svg xmlns="http://www.w3.org/2000/svg" xmlns:ev="http://www.w3.org/2001/xml-events" xmlns:xlink="http://www.w3.org/1999/xlink" baseProfile="full" height="176" id="Layer_1" style="enable-background:new 0 0 720 720;" transform="scale(0.5681818181818182 0.5681818181818182) translate(-295.5 -88.0)" version="1.1" viewBox="0 0 591 176" width="591" x="0px" xml:space="preserve" y="0px">
	<defs/>
	<path d="M 589.0830000000001,62.483999999999924 L 587.9470000000001,62.05199999999991 L 585.7420000000001,61.23699999999991 C 584.2800000000001,60.70999999999992 582.8340000000001,60.203999999999894 581.388,59.713999999999885 C 578.496,58.73399999999987 575.615,57.8189999999999 572.73,56.9439999999999 C 566.957,55.1939999999999 561.179,53.62299999999988 555.375,52.18299999999988 C 543.769,49.314999999999884 532.078,47.00699999999989 520.316,45.1939999999999 C 496.80000000000007,41.58799999999991 473.029,39.993999999999915 449.298,40.45499999999993 C 425.571,40.924999999999955 401.896,43.47599999999994 378.677,48.160999999999945 C 362.61600000000004,51.398999999999944 346.781,55.68399999999997 331.302,60.91999999999996 C 319.613,54.69599999999997 307.86,48.80899999999997 295.803,43.29199999999997 C 288.704,40.06999999999999 281.521,36.99199999999996 274.106,34.252999999999986 C 270.399,32.88799999999998 266.63,31.611999999999966 262.721,30.53299999999996 C 261.745,30.261999999999944 260.759,30.003999999999962 259.757,29.762999999999977 L 256.88,29.120000000000005 C 255.06799999999998,28.720000000000027 253.24,28.27600000000001 251.413,27.800999999999988 C 236.733,23.990999999999985 222.04399999999998,19.32499999999999 207.43,14.637999999999977 C 192.81799999999998,9.906999999999982 178.226,5.015999999999963 163.70600000000002,0.0 L 162.183,4.026999999999987 C 176.45999999999998,9.84699999999998 190.779,15.520999999999958 205.16900000000004,21.050999999999988 C 219.59700000000004,26.551999999999964 233.99100000000004,32.002999999999986 248.87200000000007,36.74799999999999 C 250.74200000000008,37.33699999999999 252.62000000000006,37.90499999999997 254.53800000000007,38.447 L 257.25900000000007,39.20100000000002 C 258.12000000000006,39.46800000000002 258.97800000000007,39.738 259.8500000000001,40.025000000000034 C 263.31000000000006,41.18700000000001 266.7750000000001,42.57600000000002 270.2130000000001,44.05500000000001 C 277.0950000000001,47.02600000000001 283.90600000000006,50.38499999999999 290.6400000000001,53.894000000000005 C 298.6480000000001,58.08800000000002 306.6000000000001,62.512 314.4440000000001,67.07900000000001 C 313.22600000000006,67.55400000000003 312.0010000000001,68.01400000000001 310.7830000000001,68.50400000000002 C 305.3090000000001,70.714 299.88700000000006,73.041 294.5230000000001,75.50100000000003 L 290.6090000000001,77.30300000000005 C 289.4110000000001,77.86400000000003 288.2030000000001,78.38300000000004 286.9840000000001,78.88800000000003 C 284.5460000000001,79.88400000000001 282.0750000000001,80.79100000000005 279.5640000000001,81.58300000000003 C 269.5330000000001,84.76700000000005 258.94700000000006,86.16300000000001 248.10800000000006,86.101 C 237.27500000000003,86.05799999999999 226.21700000000004,84.65300000000002 215.10400000000004,82.72199999999998 C 203.99200000000002,80.77499999999998 192.78600000000006,78.315 181.49600000000004,75.93 C 165.24,72.44400000000002 148.73900000000003,69.207 132.06600000000003,66.94999999999999 C 131.678,66.52799999999996 131.296,66.11399999999998 130.90300000000002,65.68299999999999 C 129.84000000000003,64.536 128.76,63.411 127.66600000000001,62.30799999999999 C 125.47800000000002,60.09800000000001 123.22100000000002,57.962999999999965 120.908,55.89499999999998 C 116.271,51.766999999999996 111.39399999999999,47.90899999999999 106.258,44.400999999999954 C 101.11999999999999,40.89999999999998 95.71499999999999,37.74499999999995 90.039,35.10499999999996 C 87.20100000000001,33.78499999999997 84.29299999999999,32.599999999999966 81.324,31.563999999999965 C 78.341,30.523999999999944 75.33399999999999,29.69199999999995 72.349,28.95399999999995 C 60.36,26.033999999999935 48.277,24.62999999999994 36.211,23.80699999999996 C 24.128,23.021999999999935 12.096000000000004,22.83299999999997 0.0,23.303999999999974 L 0.07699999999999818,26.75 C 11.956999999999994,26.954000000000008 23.909999999999997,27.800999999999988 35.70299999999999,29.226999999999975 C 47.481999999999985,30.689999999999998 59.21899999999998,32.73499999999996 70.377,36.12399999999997 C 75.991,37.81299999999999 81.21,39.93599999999998 86.28599999999999,42.66699999999997 C 91.341,45.36699999999996 96.163,48.54599999999999 100.74399999999999,52.061999999999955 C 105.317,55.57099999999997 109.65999999999998,59.412999999999954 113.76499999999997,63.49399999999997 C 114.27199999999998,64.00799999999998 114.76099999999998,64.529 115.26199999999999,65.041 C 114.35199999999999,64.95799999999997 113.43999999999998,64.875 112.53099999999999,64.80000000000001 C 89.21,62.80799999999999 65.682,63.149 42.504999999999995,65.84100000000001 L 43.340999999999994,74.42400000000004 C 66.05,72.61900000000003 88.86799999999998,73.11800000000005 111.41099999999999,75.86400000000003 C 133.96999999999997,78.54400000000004 156.14499999999998,83.56800000000004 178.416,89.19100000000003 C 177.34799999999996,90.71300000000002 176.238,92.22500000000002 175.06899999999996,93.70400000000001 C 172.36599999999999,97.13900000000001 169.41799999999995,100.428 166.29399999999998,103.55900000000003 C 160.02999999999997,109.83000000000004 153.04999999999995,115.47500000000002 145.55199999999996,120.41600000000005 C 144.49199999999996,121.11100000000005 143.41999999999996,121.79700000000003 142.351,122.46200000000005 L 142.10399999999998,122.37900000000002 C 142.07299999999998,122.47800000000001 142.02499999999998,122.57600000000002 141.99499999999995,122.68200000000002 C 127.87299999999998,131.397 112.09399999999995,137.68400000000003 95.66899999999997,141.62400000000002 L 96.48999999999997,145.85400000000004 C 110.34399999999998,143.81800000000004 124.10299999999997,140.15900000000005 137.219,134.65000000000003 C 136.79399999999998,135.58400000000006 136.37599999999998,136.51300000000003 135.94299999999998,137.43300000000005 C 133.594,142.36200000000002 130.97999999999996,147.16800000000006 128.01599999999996,151.72500000000002 C 125.04299999999996,156.28500000000003 121.72299999999997,160.61700000000002 117.85599999999998,164.372 C 113.99399999999999,168.108 109.52799999999998,171.30200000000002 104.44099999999999,172.95300000000003 L 105.02499999999999,175.03000000000003 C 110.66799999999999,173.65500000000003 115.73799999999999,170.56 120.129,166.899 C 124.53699999999999,163.21800000000002 128.358,158.93200000000002 131.813,154.40300000000002 C 135.26800000000003,149.87600000000003 138.349,145.091 141.164,140.15800000000002 C 142.96699999999998,136.98700000000002 144.64499999999998,133.79700000000003 146.224,130.512 C 147.59500000000003,129.82600000000002 148.962,129.13100000000003 150.32,128.401 C 158.757,123.86599999999999 166.80700000000002,118.49200000000002 174.25799999999998,112.257 C 177.976,109.14100000000002 181.54199999999997,105.81299999999999 184.925,102.24400000000003 C 186.61700000000002,100.45500000000004 188.255,98.61500000000001 189.841,96.68100000000004 C 190.637,95.71400000000006 191.41500000000002,94.73400000000004 192.18099999999998,93.70900000000006 L 192.85699999999997,92.78600000000006 C 199.27499999999998,94.37200000000007 205.73899999999998,95.91100000000006 212.296,97.30700000000007 C 223.77499999999998,99.7290000000001 235.577,101.7050000000001 247.753,102.19800000000009 C 259.89799999999997,102.71900000000011 272.445,101.56900000000007 284.48199999999997,98.22100000000012 C 287.48699999999997,97.38900000000012 290.457,96.41600000000011 293.38399999999996,95.34400000000011 C 294.83899999999994,94.80300000000011 296.29499999999996,94.24200000000013 297.72599999999994,93.63900000000012 L 301.7219999999999,91.97100000000012 C 306.92099999999994,89.8130000000001 312.1619999999999,87.78300000000013 317.4509999999999,85.86700000000013 C 359.7179999999999,70.51500000000016 404.6609999999999,63.26600000000013 449.3599999999999,64.04300000000012 C 471.71799999999985,64.41200000000015 494.0179999999999,66.72100000000012 515.9229999999999,70.90300000000013 C 526.8629999999999,72.99200000000013 537.7139999999999,75.55000000000013 548.3759999999999,78.59900000000016 C 553.6999999999998,80.11400000000015 558.9799999999999,81.76800000000014 564.1789999999999,83.54800000000017 C 566.7729999999999,84.43900000000019 569.3489999999998,85.36800000000017 571.8859999999999,86.32600000000019 L 575.6339999999999,87.78900000000021 L 590.3649999999999,92.84800000000024 L 590.3649999999999,62.99900000000025 L 589.0830000000001,62.483999999999924"/>
</svg>
