<?xml version="1.0" ?>
<svg xmlns="http://www.w3.org/2000/svg" xmlns:ev="http://www.w3.org/2001/xml-events" xmlns:xlink="http://www.w3.org/1999/xlink" baseProfile="full" height="168" id="Layer_1" style="enable-background:new 0 0 720 720;" transform="scale(0.5952380952380952 0.5952380952380952) translate(-264.0 -84.0)" version="1.1" viewBox="0 0 528 168" width="528" x="0px" xml:space="preserve" y="0px">
	<defs/>
	<path d="M 524.234,97.291 L 524.234,97.291 C 524.2250000000001,97.291 524.219,97.291 524.234,97.291 M 526.4200000000001,64.88799999999998 L 525.7170000000001,64.858 L 524.4010000000001,64.81400000000002 L 521.897,64.76800000000003 C 520.259,64.76100000000002 518.666,64.781 517.0790000000001,64.822 C 513.921,64.89800000000002 510.81100000000004,65.05400000000003 507.73300000000006,65.267 C 501.58000000000004,65.69200000000001 495.5210000000001,66.34499999999997 489.51200000000006,67.16199999999998 C 477.51200000000006,68.798 465.73400000000004,71.094 454.13200000000006,73.87 C 430.9380000000001,79.43799999999999 408.4720000000001,86.93400000000003 386.69100000000003,95.74799999999999 C 375.80100000000004,100.16499999999996 365.093,104.91499999999996 354.55400000000003,109.96600000000001 L 346.79900000000004,113.73700000000002 C 344.408,114.89300000000003 342.00300000000004,116.00800000000004 339.569,117.04200000000003 C 334.71000000000004,119.11800000000005 329.77000000000004,120.96400000000006 324.755,122.48700000000002 C 314.745,125.555 304.442,127.42100000000005 294.066,127.81700000000001 C 283.69199999999995,128.233 273.236,127.18799999999999 262.909,124.846 C 252.582,122.50900000000001 242.389,118.90300000000002 232.346,114.51400000000001 C 222.288,110.13499999999999 212.38400000000001,104.97899999999998 202.32600000000002,99.63999999999999 C 192.257,94.327 182.05400000000003,88.75799999999998 170.98400000000004,83.99099999999999 C 165.44700000000006,81.618 159.67500000000004,79.46199999999999 153.55000000000004,77.844 C 150.02900000000005,76.91199999999998 146.36900000000003,76.18799999999999 142.62000000000003,75.73500000000001 C 142.01000000000002,74.543 141.38000000000002,73.38 140.73000000000005,72.23599999999999 C 139.31500000000005,69.73399999999998 137.80700000000004,67.305 136.23800000000006,64.93700000000001 C 133.09200000000007,60.18900000000002 129.67000000000004,55.67599999999999 126.00900000000007,51.367999999999995 C 118.69200000000006,42.75799999999998 110.42000000000007,34.999000000000024 101.42900000000009,28.238 C 83.45600000000007,14.670999999999992 62.61200000000008,5.288999999999987 41.05800000000008,0.0 L 39.619000000000085,4.694999999999993 C 60.04100000000008,11.629999999999995 78.93300000000008,22.307999999999993 94.43300000000008,36.32900000000001 C 102.19500000000008,43.31999999999999 109.12900000000008,51.10500000000002 115.04100000000008,59.485000000000014 C 118.00500000000008,63.668000000000006 120.7100000000001,68.007 123.11100000000008,72.46300000000002 C 123.68900000000008,73.53200000000004 124.24600000000007,74.606 124.79000000000008,75.69 C 115.85100000000008,76.36899999999997 107.17200000000008,77.74599999999998 98.57900000000006,79.48500000000001 C 87.00900000000007,81.85500000000002 75.69500000000005,84.94 64.59400000000005,88.457 C 53.48300000000006,91.988 42.56800000000004,95.95999999999998 31.81600000000006,100.269 C 21.046000000000063,104.60300000000001 10.529000000000053,109.16500000000002 5.684341886080802e-14,114.33300000000003 L 1.5650000000000546,117.43400000000003 L 4.440000000000055,123.13000000000005 C 14.67400000000005,118.62600000000003 25.34100000000005,114.50700000000006 35.990000000000066,110.72800000000007 C 46.672000000000054,106.94800000000009 57.474000000000075,103.52500000000009 68.36400000000006,100.55400000000009 C 79.25400000000008,97.59300000000007 90.24200000000008,95.08300000000008 101.26500000000007,93.2960000000001 C 106.77900000000008,92.40400000000011 112.29300000000006,91.7000000000001 117.79800000000006,91.24300000000011 C 123.26700000000005,90.7820000000001 128.84300000000005,90.57100000000008 134.11400000000006,90.71300000000014 C 143.91900000000007,91.04700000000014 153.92200000000005,94.64300000000014 163.68600000000004,99.31000000000012 C 169.91600000000005,102.3080000000001 176.098,105.73900000000009 182.31000000000006,109.31600000000014 C 178.52000000000004,110.25300000000016 174.75000000000006,111.26900000000012 171.01600000000008,112.38000000000017 C 159.61200000000008,115.78200000000015 148.4890000000001,119.97200000000015 137.77600000000007,124.96000000000015 C 116.35700000000006,134.91300000000012 96.54400000000007,148.13100000000014 79.96500000000006,164.38800000000015 L 83.38900000000007,167.98000000000013 C 100.83600000000007,153.52700000000016 120.90100000000007,142.45900000000012 142.06700000000006,134.66700000000014 C 152.65100000000007,130.76900000000012 163.52600000000007,127.66800000000012 174.52300000000008,125.34500000000014 C 180.0270000000001,124.19100000000014 185.5580000000001,123.22200000000015 191.1020000000001,122.48500000000013 C 193.87000000000006,122.11500000000012 196.6370000000001,121.79700000000014 199.40100000000007,121.55000000000013 C 200.57900000000006,121.4450000000001 201.75900000000007,121.35600000000011 202.93300000000005,121.27600000000012 C 209.65600000000006,125.1110000000001 216.52300000000002,128.87000000000012 223.66400000000004,132.34300000000013 C 234.33700000000005,137.54400000000015 245.61200000000002,142.11400000000015 257.51900000000006,145.3270000000001 C 269.40700000000004,148.55700000000013 281.91300000000007,150.3640000000001 294.47600000000006,150.37400000000014 C 307.04600000000005,150.4160000000001 319.59600000000006,148.66500000000013 331.61000000000007,145.51900000000012 C 337.6260000000001,143.95400000000012 343.51000000000005,142.03300000000013 349.2650000000001,139.85700000000014 C 352.1400000000001,138.77200000000016 354.9710000000001,137.60100000000017 357.7720000000001,136.38400000000013 L 365.5900000000001,132.9740000000001 C 375.8750000000001,128.5660000000001 386.2700000000001,124.4620000000001 396.7720000000001,120.70300000000009 C 417.76200000000006,113.19700000000012 439.1890000000001,107.05200000000008 460.82600000000014,102.79700000000008 C 471.64300000000014,100.67800000000005 482.50800000000015,99.02900000000011 493.32000000000016,98.0080000000001 C 498.7160000000001,97.4980000000001 504.1100000000001,97.14600000000007 509.4190000000002,97.00200000000012 C 512.0790000000002,96.9260000000001 514.7120000000002,96.9070000000001 517.2980000000002,96.94900000000013 C 518.5810000000002,96.97000000000014 519.8550000000002,97.01300000000015 521.0890000000003,97.07200000000012 L 522.8870000000003,97.17400000000009 L 524.0890000000003,97.2720000000001 L 527.3560000000003,97.29300000000012 L 527.3560000000003,64.95300000000009 L 526.4200000000001,64.88799999999998 M 524.234,97.28800000000001 L 524.234,97.291 C 524.2510000000001,97.291 524.297,97.29699999999997 524.246,97.291 L 524.234,97.28800000000001"/>
</svg>
