<?xml version="1.0" ?>
<svg xmlns="http://www.w3.org/2000/svg" xmlns:ev="http://www.w3.org/2001/xml-events" xmlns:xlink="http://www.w3.org/1999/xlink" baseProfile="full" height="194" id="Layer_1" style="enable-background:new 0 0 720 720;" transform="scale(0.5154639175257731 0.5154639175257731) translate(-291.0 -97.0)" version="1.1" viewBox="0 0 582 194" width="582" x="0px" xml:space="preserve" y="0px">
	<defs/>
	<path d="M 581.755,83.58300000000003 L 334.959,89.10300000000001 L 271.534,57.07400000000001 L 252.373,14.338000000000022 L 249.115,15.504999999999995 L 258.498,50.48700000000002 L 193.127,17.476 L 193.127,17.399999999999977 L 192.962,17.396000000000015 L 158.519,0.0 L 156.05,4.562000000000012 L 177.178,16.767999999999972 L 96.658,13.576999999999998 L 96.48,16.161 L 192.52800000000002,25.966999999999985 L 192.555,25.656000000000006 L 303.53900000000004,89.80799999999999 L 62.587,95.19799999999998 L 62.587,105.56599999999997 L 177.79700000000003,108.31299999999999 L 71.533,168.372 L 0.0,171.25 L 0.0,173.844 L 57.489999999999995,176.31099999999998 L 34.643,189.22199999999998 L 37.059,193.81099999999998 L 71.807,176.92000000000002 L 72.122,176.93599999999998 L 72.122,176.77100000000002 L 147.66899999999998,140.053 L 130.57799999999997,176.63099999999997 L 133.60399999999998,178.30200000000002 L 163.62,132.303 L 210.85400000000004,109.35000000000002 L 210.71500000000003,109.096 L 452.70599999999996,114.858 L 385.926,163.09300000000002 L 388.611,166.887 L 474.67699999999996,115.096 L 581.755,117.93299999999999 L 581.755,83.58300000000003" points="650.085,347.708 403.289,353.228 339.864,321.199 320.703,278.463 317.445,279.63 326.828,314.612 261.457,281.601   261.457,281.525 261.292,281.521 226.849,264.125 224.38,268.687 245.508,280.893 164.988,277.702 164.81,280.286 260.858,290.092   260.885,289.781 371.869,353.933 130.917,359.323 130.917,369.691 246.127,372.438 139.863,432.497 68.33,435.375 68.33,437.969   125.82,440.436 102.973,453.347 105.389,457.936 140.137,441.045 140.452,441.061 140.452,440.896 215.999,404.178 198.908,440.756   201.934,442.427 231.95,396.428 279.184,373.475 279.045,373.221 521.036,378.983 454.256,427.218 456.941,431.012 543.007,379.221   650.085,382.058 "/>
</svg>
