<?xml version="1.0" ?>
<svg xmlns="http://www.w3.org/2000/svg" xmlns:ev="http://www.w3.org/2001/xml-events" xmlns:xlink="http://www.w3.org/1999/xlink" baseProfile="full" height="218" id="Layer_1" style="enable-background:new 0 0 720 720;" transform="scale(0.45871559633027525 0.45871559633027525) translate(-254.5 -109.0)" version="1.1" viewBox="0 0 509 218" width="509" x="0px" xml:space="preserve" y="0px">
	<defs/>
	<path d="M 288.81500000000005,176.0170000000002 C 252.57400000000004,132.18100000000018 224.22600000000003,160.2360000000002 224.22600000000003,160.2360000000002 C 224.22600000000003,160.2360000000002 236.441,198.2020000000002 288.81500000000005,176.0170000000002 M 220.506,217.8150000000002 C 245.944,179.0600000000002 217.27900000000002,163.72000000000023 217.27900000000002,163.72000000000023 C 217.27900000000002,163.72000000000023 190.646,182.35500000000016 220.506,217.8150000000002 M 90.668,1.7053025658242404e-13 C 66.999,35.81400000000016 93.49700000000001,50.10600000000019 93.49700000000001,50.10600000000019 C 93.49700000000001,50.10600000000019 118.214,32.92700000000016 90.668,1.7053025658242404e-13 M 508.366,74.01300000000018 L 131.475,74.54000000000016 L 55.41499999999999,33.9950000000002 L 51.34800000000001,40.74000000000015 L 100.78399999999999,74.58100000000016 L 0.0,76.7670000000002 L 0.0,89.67900000000017 L 259.08900000000006,102.20300000000017 L 163.35600000000002,175.37200000000016 L 169.77200000000002,184.60700000000017 L 298.98900000000003,103.95500000000018 L 508.366,113.43600000000018 L 508.366,74.01300000000018"/>
</svg>
