<?xml version="1.0" ?>
<svg xmlns="http://www.w3.org/2000/svg" xmlns:ev="http://www.w3.org/2001/xml-events" xmlns:xlink="http://www.w3.org/1999/xlink" baseProfile="full" height="182" style="enable-background:new 0 0 288 288;" transform="scale(0.5813953488372093 0.5813953488372093) translate(-86.0 -91.0)" version="1.1" viewBox="0 0 172 182" width="172" x="0px" xml:space="preserve" y="0px">
	<defs/>
	<path d="M 171.57,73.15 L 164.73,78.57000000000001 L 85.79999999999998,12.240000000000009 L 6.869999999999997,78.57000000000001 L 0.0,73.15 L 85.80000000000001,0.0 L 134.57000000000002,41.59 L 134.57000000000002,31.379999999999995 L 152.44000000000003,31.379999999999995 L 152.44000000000003,56.83 L 171.57,73.15 M 85.80000000000001,17.85 L 16.1,77.27000000000001 L 16.1,181.49 L 36.77,181.49 L 36.77,131.87 L 63.32,131.87 L 63.32,181.49 L 155.49,181.49 L 155.49,77.28 L 85.80000000000001,17.85 M 113.25,122.94 L 100.09,122.94 L 100.09,109.75 L 113.25,109.75 L 113.25,122.94 M 113.25,105.30000000000001 L 100.09,105.30000000000001 L 100.09,92.18 L 113.25,92.18 L 113.25,105.30000000000001 M 130.85,122.94 L 117.69,122.94 L 117.69,109.75 L 130.85,109.75 L 130.85,122.94 M 130.85,105.30000000000001 L 117.69,105.30000000000001 L 117.69,92.18 L 130.85,92.18 L 130.85,105.30000000000001"/>
</svg>
