<?xml version="1.0" ?>
<svg xmlns="http://www.w3.org/2000/svg" xmlns:ev="http://www.w3.org/2001/xml-events" xmlns:xlink="http://www.w3.org/1999/xlink" baseProfile="full" height="208" style="enable-background:new 0 0 288 288;" transform="scale(0.5813953488372093 0.5813953488372093) translate(-86.0 -104.0)" version="1.1" viewBox="0 0 172 208" width="172" x="0px" xml:space="preserve" y="0px">
	<defs/>
	<path d="M 171.57000000000002,99.11921295495094 L 164.73000000000002,104.53921295495094 L 85.80000000000001,38.20921295495094 L 6.869999999999997,104.53921295495094 L 0.0,99.11921295495094 L 85.80000000000001,25.96921295495093 L 134.57000000000002,67.55921295495094 L 134.57000000000002,57.34921295495094 L 152.44000000000003,57.34921295495094 L 152.44000000000003,82.79921295495095 L 171.57000000000002,99.11921295495094 M 152.15000000000003,40.48921295495094 L 143.84000000000003,52.74921295495095 L 130.60000000000002,46.09921295495094 C 127.26000000000002,44.42921295495094 125.92000000000002,40.359212954950934 127.59000000000003,37.029212954950935 C 128.50000000000003,35.21921295495093 130.11000000000004,33.999212954950934 131.93000000000004,33.519212954950945 C 133.46000000000004,33.11921295495094 135.14000000000004,33.249212954950934 136.66000000000003,34.019212954950945 L 139.3,35.34921295495094 L 140.96,32.89921295495094 C 141.92000000000002,31.48921295495094 143.32000000000002,30.549212954950935 144.85,30.149212954950936 C 146.67,29.679212954950938 148.67,29.95921295495094 150.35,31.09921295495094 C 153.44000000000003,33.19921295495094 154.25000000000003,37.39921295495094 152.15000000000003,40.48921295495094 M 170.99000000000004,19.869212954950935 C 170.52000000000004,18.349212954950932 169.43000000000004,17.189212954950936 168.08000000000004,16.579212954950936 C 166.94000000000005,16.069212954950938 165.63000000000005,15.949212954950934 164.34000000000003,16.34921295495094 L 162.12000000000003,17.02921295495094 L 161.15000000000003,14.909212954950942 C 160.59000000000003,13.689212954950943 159.63000000000002,12.779212954950939 158.49000000000004,12.269212954950941 C 157.14000000000004,11.659212954950942 155.55000000000004,11.619212954950942 154.10000000000005,12.279212954950939 C 151.43000000000006,13.499212954950938 150.25000000000006,16.65921295495094 151.47000000000006,19.329212954950936 L 156.32000000000005,29.939212954950936 L 167.47000000000006,26.509212954950936 C 170.28000000000003,25.649212954950936 171.86,22.66921295495094 170.99000000000004,19.869212954950935 M 141.63000000000002,0.1092129549509373 C 140.07000000000002,-0.21078704504906298 138.53000000000003,0.1892129549509356 137.35000000000002,1.0892129549509377 C 136.36,1.8392129549509377 135.62000000000003,2.939212954950939 135.36,4.259212954950936 L 134.9,6.539212954950937 L 132.58,6.379212954950937 C 131.24,6.2792129549509355 129.98000000000002,6.699212954950937 128.99,7.449212954950937 C 127.81,8.339212954950938 127.01000000000002,9.719212954950937 126.9,11.309212954950937 C 126.69,14.23921295495094 128.9,16.77921295495094 131.83,16.98921295495094 L 143.46,17.80921295495094 L 145.79000000000002,6.37921295495094 C 146.36,3.499212954950938 144.51000000000002,0.6892129549509356 141.63000000000002,0.1092129549509373 M 155.50000000000003,103.23921295495094 L 155.50000000000003,207.45921295495094 L 63.340000000000025,207.45921295495094 L 63.340000000000025,158.26921295495094 L 36.78000000000002,158.26921295495094 L 36.78000000000002,207.45921295495094 L 16.100000000000016,207.45921295495094 L 16.100000000000016,103.23921295495094 L 85.80000000000001,43.81921295495094 L 155.50000000000003,103.23921295495094"/>
</svg>
