<?xml version="1.0" ?>
<svg xmlns="http://www.w3.org/2000/svg" xmlns:ev="http://www.w3.org/2001/xml-events" xmlns:xlink="http://www.w3.org/1999/xlink" baseProfile="full" data-name="Layer 1" height="1479" transform="scale(0.0676132521974307 0.0676132521974307) translate(-805.0 -739.5)" version="1.1" viewBox="0 0 1610 1479" width="1610">
	<defs/>
	<path d="M 496.76237625864417,1423.8798769946272 C 494.2023762586442,1422.9398769946272 491.6323762586442,1423.8798769946272 489.04237625864414,1424.1798769946272 C 476.2123762586441,1425.4398769946272 463.4923762586442,1426.029876994627 451.6023762586441,1419.4698769946272 C 447.52237625864404,1417.2198769946272 442.8323762586441,1416.839876994627 438.26237625864405,1416.4098769946272 A 35.59,35.59 0.0 0,1 429.77237625864404,1414.7298769946271 C 421.01237625864405,1411.6698769946272 416.77237625864404,1406.1598769946272 416.77237625864404,1396.8898769946272 C 416.77237625864404,1393.5798769946273 416.51237625864405,1390.9498769946272 413.66237625864403,1388.6298769946272 C 410.362376258644,1385.9398769946272 410.002376258644,1382.0198769946273 411.01237625864405,1377.9998769946271 C 412.40237625864404,1372.4798769946271 415.41237625864403,1367.839876994627 418.89237625864405,1363.4698769946272 A 128.08,128.08 0.0 0,1 434.0823762586441,1347.9498769946272 C 449.9523762586441,1333.809876994627 464.0823762586441,1317.8498769946273 479.51237625864405,1303.309876994627 A 55.4,55.4 0.0 0,0 492.7023762586441,1284.4698769946272 C 493.90237625864415,1281.6198769946272 494.75237625864406,1278.9098769946272 491.88237625864406,1275.8798769946272 C 488.37237625864407,1272.1598769946272 489.53237625864404,1267.1898769946272 490.682376258644,1262.7498769946271 C 492.332376258644,1256.4198769946272 495.462376258644,1250.6498769946272 498.222376258644,1244.7498769946271 C 510.322376258644,1218.8798769946272 520.412376258644,1192.2298769946271 526.6423762586439,1164.349876994627 C 532.5423762586439,1137.969876994627 536.972376258644,1111.2598769946271 538.6423762586439,1084.2198769946272 C 539.2723762586439,1073.809876994627 536.5523762586439,1063.6098769946273 534.3223762586439,1053.4698769946272 C 533.3223762586439,1048.769876994627 531.9323762586439,1044.1298769946272 530.7723762586439,1039.4698769946272 C 530.222376258644,1037.269876994627 529.6923762586439,1035.1998769946272 526.6823762586439,1035.4698769946272 C 521.6023762586439,1035.9398769946272 519.4923762586438,1032.3998769946272 517.5923762586439,1028.589876994627 A 198.06,198.06 0.0 0,1 501.50237625864384,982.199876994627 C 497.13237625864383,962.129876994627 495.2723762586438,941.659876994627 491.8123762586438,921.439876994627 C 488.6623762586438,903.049876994627 483.8123762586438,885.0998769946269 476.2823762586438,868.029876994627 C 458.4223762586438,827.549876994627 449.7823762586438,785.029876994627 446.2823762586438,741.119876994627 C 444.6523762586438,720.669876994627 443.09237625864375,700.1998769946271 439.9023762586438,679.899876994627 A 13.74,13.74 0.0 0,0 434.9023762586438,670.759876994627 C 428.21237625864376,665.169876994627 422.75237625864384,658.349876994627 417.25237625864384,651.609876994627 A 171.64,171.64 0.0 0,0 391.8923762586438,625.839876994627 A 74.56,74.56 0.0 0,1 378.4223762586438,611.709876994627 C 365.2823762586438,593.709876994627 353.4223762586438,575.0198769946271 344.9323762586438,554.3098769946271 A 66.31,66.31 0.0 0,0 335.3423762586438,537.369876994627 A 46.7,46.7 0.0 0,1 329.5723762586438,528.1998769946271 C 327.67237625864385,524.1998769946271 326.00237625864384,521.4498769946271 320.5723762586438,523.1398769946271 C 316.8323762586438,524.2998769946271 313.79237625864386,521.2698769946271 311.37237625864384,518.4498769946271 A 58.74,58.74 0.0 0,1 301.17237625864385,501.84987699462704 C 292.17237625864385,479.19987699462706 283.17237625864385,456.60987699462703 279.09237625864387,432.3098769946271 C 276.3323762586439,415.83987699462705 277.29237625864386,399.5298769946271 279.09237625864387,383.22987699462715 C 281.28237625864386,363.22987699462715 281.09237625864387,343.22987699462715 279.7623762586439,323.22987699462715 A 40.23,40.23 0.0 0,0 276.3323762586439,309.35987699462714 C 273.5023762586439,309.35987699462714 272.60237625864386,311.68987699462707 271.3323762586439,313.2698769946271 A 49.9,49.9 0.0 0,1 241.70237625864388,331.36987699462713 A 51.36,51.36 0.0 0,0 224.95237625864388,337.99987699462713 C 209.66237625864386,347.34987699462715 192.7523762586439,353.3898769946271 176.8823762586439,361.5698769946272 C 167.32237625864389,366.49987699462713 156.46237625864387,367.21987699462716 145.8823762586439,368.0298769946271 C 139.8823762586439,368.48987699462714 133.82237625864389,368.24987699462713 127.78237625864391,368.1498769946271 C 116.58237625864392,367.95987699462717 109.9523762586439,362.23987699462714 107.36237625864392,351.4198769946271 C 104.77237625864394,340.59987699462715 107.54237625864393,330.4198769946271 111.07237625864393,320.2898769946271 C 111.67237625864392,318.5598769946271 113.27237625864392,317.1498769946271 112.82237625864393,315.0298769946271 C 110.71237625864391,314.0298769946271 109.09237625864394,315.5698769946272 107.33237625864392,316.0298769946271 C 84.80237625864392,322.1398769946271 62.91237625864393,320.9098769946271 41.84237625864394,310.33987699462716 C 35.84237625864394,307.33987699462716 29.842376258643938,304.21987699462716 23.842376258643938,301.0298769946271 C 14.332376258643933,295.9198769946271 7.562376258643937,287.57987699462717 1.2123762586439426,278.97987699462715 C -0.3976237413560568,276.7898769946271 -0.10762374135605057,274.47987699462715 0.40237625864394033,272.0598769946271 C 1.9223762586439364,264.82987699462706 4.582376258643947,257.95987699462705 9.76237625864394,252.72987699462712 C 25.062376258643937,237.3098769946271 39.532376258643936,221.0698769946271 55.63237625864393,206.45987699462714 A 127.85,127.85 0.0 0,1 79.35237625864424,189.9498769946272 C 94.62237625864425,181.3998769946272 108.17237625864423,170.5798769946272 120.73237625864424,158.4498769946272 C 125.64237625864423,153.6998769946272 129.27237625864421,147.9698769946272 133.18237625864424,142.4498769946272 C 143.12237625864424,128.4498769946272 152.77237625864421,114.31987699462721 160.3423762586442,98.8598769946272 A 76.57,76.57 0.0 0,0 166.4123762586442,81.8598769946272 C 169.88237625864423,66.52987699462719 177.24237625864419,53.5798769946272 189.68237625864418,43.67987699462719 C 195.68237625864418,38.86987699462719 201.1123762586442,33.3298769946272 207.68237625864418,29.069876994627194 C 225.06237625864418,17.739876994627195 244.68237625864418,12.789876994627193 264.6323762586442,8.919876994627202 A 233.66,233.66 0.0 0,1 304.2423762586442,5.059876994627203 C 313.7423762586442,4.8598769946272 322.8523762586442,2.2998769946271977 332.1523762586442,0.9598769946272085 C 353.6223762586442,-2.1201230053727897 373.4023762586442,2.1498769946272063 391.2423762586442,14.669876994627202 C 402.3823762586442,22.479876994627205 411.8723762586442,32.1698769946272 421.3723762586442,41.77987699462719 C 437.66237625864414,58.27987699462719 453.65237625864415,75.06987699462718 469.67237625864414,91.77987699462719 A 183.3,183.3 0.0 0,1 488.0023762586442,114.1998769946272 C 503.89237625864416,137.1998769946272 523.0623762586441,157.24987699462721 543.5923762586442,176.0198769946272 C 558.0523762586442,189.2598769946272 571.2123762586442,203.7098769946272 584.5423762586443,218.0198769946272 C 613.0723762586442,248.66987699462717 645.9223762586442,273.0198769946272 685.8723762586443,286.8998769946272 C 690.2023762586443,288.3998769946272 694.5123762586443,289.97987699462715 698.7323762586443,291.75987699462723 C 712.1823762586444,297.4398769946272 724.3623762586443,304.83987699462716 734.6423762586443,315.57987699462717 C 743.9823762586443,325.3198769946272 754.6423762586443,333.7798769946272 764.3123762586442,343.22987699462715 C 779.2123762586442,357.7898769946272 796.9723762586442,366.97987699462715 816.7723762586443,372.70987699462717 C 829.9923762586443,376.5298769946272 843.1123762586443,380.70987699462717 855.3623762586443,387.09987699462715 C 858.7723762586443,388.88987699462723 862.2423762586443,390.6298769946271 865.5123762586443,392.6698769946272 C 892.5123762586443,409.48987699462714 922.2123762586443,417.6698769946272 953.6723762586442,420.49987699462713 A 401.48,401.48 0.0 0,0 1000.6723762586442,421.6898769946272 C 1020.5223762586442,421.1798769946272 1040.1823762586444,422.3198769946272 1059.6723762586444,426.38987699462723 C 1074.5723762586445,429.48987699462725 1089.8223762586445,430.0598769946272 1105.0623762586445,430.47987699462726 C 1129.4423762586446,431.1598769946272 1153.8423762586444,430.09987699462727 1178.2123762586446,431.5698769946273 C 1193.0123762586445,432.46987699462727 1207.5823762586444,429.63987699462734 1222.2123762586446,428.4298769946273 Q 1243.1523762586446,426.6898769946273 1263.8823762586446,423.26987699462734 C 1274.4523762586446,421.5398769946273 1285.0823762586447,423.9498769946273 1295.7023762586446,423.4798769946274 A 6.82,6.82 0.0 0,1 1299.1223762586446,424.4798769946274 C 1311.4523762586446,431.5598769946274 1324.2423762586445,437.77987699462733 1335.9223762586446,446.0498769946274 C 1356.0223762586445,460.27987699462744 1376.5423762586445,473.90987699462744 1396.9223762586446,487.7198769946274 A 87.53,87.53 0.0 0,0 1406.9223762586446,493.5898769946274 C 1435.7823762586445,507.9598769946274 1458.9223762586446,529.2498769946274 1479.8423762586447,553.3298769946274 C 1489.3623762586446,564.3298769946274 1497.9923762586448,575.8498769946274 1504.6223762586446,588.8798769946274 C 1507.3523762586447,594.2298769946274 1511.1123762586446,599.0498769946273 1514.4023762586446,604.1098769946274 C 1523.1423762586446,617.5898769946274 1528.0223762586445,631.9898769946274 1527.7623762586445,648.4298769946274 C 1527.5023762586445,665.3098769946274 1528.7623762586445,682.2198769946274 1526.3323762586444,699.0498769946274 C 1525.5723762586445,704.2998769946274 1525.0023762586445,709.6098769946274 1523.8423762586444,714.7798769946274 A 99.92,99.92 0.0 0,0 1522.0523762586445,750.7198769946274 C 1524.7723762586445,770.5698769946274 1523.1423762586444,790.2798769946273 1519.1323762586444,809.7198769946274 A 345.0,345.0 0.0 0,0 1512.5023762586443,870.1198769946274 C 1511.9223762586444,892.1998769946274 1508.5023762586443,913.8298769946274 1503.9423762586443,935.3498769946273 C 1502.6423762586444,941.4898769946274 1501.7023762586443,947.6998769946272 1500.5823762586444,953.8698769946272 C 1498.5123762586445,965.2598769946273 1499.5823762586444,976.4198769946272 1502.5823762586444,987.5398769946273 C 1504.1423762586444,993.3398769946273 1506.0823762586444,999.0898769946273 1506.1423762586444,1005.2298769946274 C 1506.1423762586444,1010.8298769946273 1504.8623762586444,1015.8498769946273 1500.4823762586443,1019.5398769946273 C 1496.7023762586443,1022.7198769946274 1495.9723762586443,1026.7098769946274 1496.3823762586444,1031.2698769946273 C 1497.0023762586443,1038.2698769946273 1497.6023762586444,1045.2198769946274 1498.0823762586444,1052.2098769946274 C 1498.4723762586445,1057.9198769946274 1500.6223762586444,1062.9898769946274 1503.4523762586443,1067.8198769946273 C 1509.9223762586444,1078.8198769946273 1515.6123762586444,1090.3298769946273 1522.5423762586443,1101.1098769946273 C 1529.1023762586442,1111.3198769946273 1533.7123762586443,1122.4698769946272 1537.6323762586442,1133.9198769946272 C 1542.0223762586443,1146.7298769946271 1547.002376258644,1159.2398769946271 1553.8023762586442,1171.029876994627 C 1561.5823762586442,1184.539876994627 1565.6323762586442,1199.529876994627 1569.6723762586441,1214.4298769946272 A 174.59,174.59 0.0 0,0 1580.742376258644,1244.9898769946271 C 1589.972376258644,1264.109876994627 1599.742376258644,1282.9898769946271 1606.9123762586441,1303.049876994627 C 1607.3923762586442,1304.409876994627 1608.0723762586442,1305.7098769946272 1608.482376258644,1307.049876994627 C 1610.342376258644,1313.309876994627 1607.8823762586442,1316.829876994627 1601.322376258644,1317.379876994627 C 1592.802376258644,1318.089876994627 1592.712376258644,1318.069876994627 1590.922376258644,1326.149876994627 C 1589.922376258644,1330.619876994627 1589.2023762586439,1335.149876994627 1588.5323762586438,1339.689876994627 C 1587.7923762586438,1344.689876994627 1585.912376258644,1349.2798769946269 1581.412376258644,1351.689876994627 C 1575.882376258644,1354.689876994627 1574.042376258644,1359.619876994627 1572.682376258644,1365.109876994627 A 77.6,77.6 0.0 0,1 1570.5023762586438,1372.7598769946271 C 1566.5023762586438,1383.9598769946272 1559.152376258644,1391.9098769946272 1547.2323762586439,1394.3898769946272 C 1537.8423762586438,1396.3898769946272 1532.392376258644,1400.3898769946272 1530.7223762586439,1410.9498769946272 C 1529.352376258644,1419.7098769946272 1528.8123762586438,1427.569876994627 1532.912376258644,1435.4398769946272 C 1536.592376258644,1442.4998769946271 1533.592376258644,1446.8998769946272 1525.582376258644,1447.6998769946272 A 25.17,25.17 0.0 0,1 1521.242376258644,1447.8498769946273 C 1508.6423762586442,1446.9098769946272 1496.1623762586441,1448.0498769946273 1483.722376258644,1449.9698769946272 C 1478.4123762586441,1450.789876994627 1473.1123762586442,1449.9698769946272 1467.832376258644,1449.4298769946272 C 1464.432376258644,1449.0698769946273 1461.142376258644,1448.9298769946272 1458.022376258644,1450.8398769946273 C 1453.132376258644,1453.8398769946273 1447.622376258644,1454.5398769946273 1442.022376258644,1454.8398769946273 A 237.0,237.0 0.0 0,1 1402.252376258644,1453.8398769946273 A 429.7,429.7 0.0 0,0 1333.562376258644,1451.0098769946273 C 1318.432376258644,1451.6298769946272 1304.302376258644,1448.4898769946274 1290.502376258644,1443.0798769946273 C 1280.862376258644,1439.2998769946273 1271.4223762586441,1435.4898769946274 1260.832376258644,1434.5698769946273 C 1255.2023762586439,1434.0798769946273 1249.832376258644,1431.9298769946272 1243.912376258644,1433.3898769946272 C 1240.912376258644,1434.1498769946272 1237.612376258644,1433.2898769946273 1234.7523762586438,1431.8798769946272 C 1227.8323762586438,1428.4698769946272 1220.8623762586437,1425.1198769946272 1214.162376258644,1421.3098769946273 C 1208.7023762586439,1418.2098769946274 1207.0323762586438,1411.5398769946273 1209.4523762586439,1404.6598769946272 A 23.52,23.52 0.0 0,1 1214.142376258644,1396.5498769946273 C 1226.142376258644,1383.3598769946273 1237.282376258644,1369.2998769946273 1252.332376258644,1359.1798769946274 A 153.1,153.1 0.0 0,0 1266.012376258644,1348.4698769946274 C 1280.1623762586441,1336.3998769946274 1288.842376258644,1321.2298769946274 1291.502376258644,1302.7098769946274 C 1291.9423762586441,1299.6098769946275 1292.582376258644,1296.5298769946273 1293.332376258644,1293.4798769946274 A 15.66,15.66 0.0 0,0 1293.332376258644,1285.6098769946275 C 1290.482376258644,1274.8898769946275 1287.512376258644,1264.1898769946274 1283.622376258644,1253.7798769946276 A 10.09,10.09 0.0 0,0 1278.422376258644,1248.1698769946277 C 1265.422376258644,1241.2598769946276 1252.062376258644,1235.1698769946277 1238.422376258644,1229.4798769946276 A 55.74,55.74 0.0 0,1 1229.422376258644,1224.9298769946276 C 1225.132376258644,1222.1398769946277 1221.052376258644,1219.7598769946276 1215.4923762586438,1219.9998769946276 C 1210.662376258644,1220.2098769946276 1207.142376258644,1216.5098769946276 1203.9923762586438,1213.1498769946277 A 96.72,96.72 0.0 0,1 1182.7923762586438,1178.9098769946277 A 218.55,218.55 0.0 0,1 1172.1223762586437,1133.9098769946277 C 1169.2323762586436,1111.4198769946277 1167.0223762586438,1088.9098769946277 1163.6823762586437,1066.4098769946277 C 1160.7723762586436,1046.8498769946277 1159.2423762586436,1027.0798769946277 1160.5923762586438,1007.1998769946276 C 1161.1223762586437,999.3098769946275 1160.7923762586438,999.2698769946276 1152.7923762586438,998.6598769946277 A 11.89,11.89 0.0 0,1 1149.9123762586437,998.4198769946277 C 1140.1523762586437,995.0598769946278 1131.6623762586437,997.7398769946276 1123.2023762586437,1003.0098769946276 C 1116.2723762586436,1007.3298769946275 1108.7223762586436,1010.6898769946276 1101.3023762586436,1014.1798769946276 C 1095.9323762586437,1016.7098769946276 1090.5623762586436,1017.2798769946276 1086.2323762586436,1011.8998769946277 A 4.0,4.0 0.0 0,0 1083.1023762586435,1010.2998769946278 C 1077.3923762586435,1010.4098769946277 1072.2123762586434,1008.4098769946277 1066.9923762586436,1006.4998769946278 C 1062.9923762586436,1005.0298769946278 1059.4423762586437,1005.9398769946279 1056.2723762586436,1008.7498769946278 A 37.5,37.5 0.0 0,0 1048.6823762586437,1017.4498769946279 C 1047.8123762586438,1018.8998769946279 1047.0423762586436,1020.4498769946279 1046.0823762586438,1021.7998769946278 C 1039.8223762586438,1030.8998769946277 1029.9423762586437,1032.7398769946278 1020.8523762586436,1026.4698769946278 A 31.67,31.67 0.0 0,1 1016.9623762586435,1023.2298769946278 C 1014.7123762586435,1021.0898769946277 1012.2223762586435,1020.7698769946278 1009.7223762586435,1022.4798769946278 C 1001.0823762586434,1028.409876994628 991.4723762586435,1027.8498769946277 981.7823762586435,1026.8198769946277 C 977.2523762586435,1026.3298769946277 972.8823762586434,1025.1298769946277 970.1723762586436,1030.9498769946279 C 968.6723762586436,1034.1798769946279 964.8423762586436,1034.609876994628 961.1723762586436,1033.7898769946278 C 957.5023762586435,1032.9698769946276 954.5423762586435,1030.9898769946278 951.3623762586436,1029.2698769946278 C 947.5623762586437,1027.2098769946278 946.5623762586437,1027.399876994628 944.5423762586437,1031.2698769946278 C 942.2023762586438,1035.7598769946278 940.2123762586438,1040.4298769946279 938.2323762586437,1045.0898769946277 A 34.75,34.75 0.0 0,1 929.2323762586437,1058.0898769946277 A 17.07,17.07 0.0 0,0 923.2323762586437,1069.2998769946278 A 73.23,73.23 0.0 0,1 912.1423762586437,1100.3798769946277 C 908.4723762586437,1106.1398769946277 907.5223762586437,1112.9998769946276 906.1423762586437,1119.6398769946277 A 148.6,148.6 0.0 0,1 899.4923762586437,1144.0498769946278 C 897.5423762586437,1149.0498769946278 894.9623762586438,1153.2698769946278 888.4923762586437,1152.2698769946278 C 885.5823762586438,1151.8198769946277 885.4923762586437,1154.0698769946277 885.2323762586437,1155.9298769946279 C 883.5723762586438,1166.2898769946278 883.5323762586437,1176.619876994628 886.2323762586437,1186.829876994628 C 890.8923762586437,1204.359876994628 893.2323762586437,1222.329876994628 896.2323762586437,1240.159876994628 C 897.7123762586438,1248.649876994628 897.7323762586437,1257.159876994628 895.3423762586438,1265.289876994628 C 892.5323762586438,1274.909876994628 893.2623762586437,1284.389876994628 894.7623762586437,1293.979876994628 C 898.2823762586437,1316.319876994628 898.9823762586437,1338.439876994628 893.7623762586437,1360.839876994628 A 113.63,113.63 0.0 0,0 891.8723762586437,1399.029876994628 A 44.25,44.25 0.0 0,1 891.7523762586437,1411.299876994628 C 891.1423762586437,1414.959876994628 890.2323762586437,1418.779876994628 887.6223762586437,1421.179876994628 C 882.9723762586437,1425.429876994628 882.6223762586437,1430.5598769946282 882.4523762586438,1436.179876994628 C 882.2023762586438,1443.6198769946282 881.9323762586438,1451.1198769946282 879.8023762586438,1458.3898769946281 C 877.2123762586438,1467.249876994628 872.6823762586438,1472.3898769946281 863.6423762586438,1472.3898769946281 C 834.4223762586438,1472.5198769946282 805.6423762586438,1479.169876994628 776.3523762586439,1477.8398769946282 C 759.4723762586439,1477.0698769946282 742.6123762586438,1475.919876994628 725.7523762586438,1474.669876994628 C 714.1623762586438,1473.8098769946282 702.6223762586438,1473.429876994628 691.0623762586439,1475.039876994628 A 55.86,55.86 0.0 0,1 670.8923762586439,1474.369876994628 A 89.68,89.68 0.0 0,0 647.1523762586439,1472.4598769946278 A 177.17,177.17 0.0 0,1 615.342376258644,1471.2198769946278 A 114.5,114.5 0.0 0,1 600.7023762586442,1467.9498769946272 C 596.6323762586442,1466.8398769946273 592.7023762586442,1466.4998769946271 588.6223762586442,1467.8698769946272 A 40.77,40.77 0.0 0,1 556.8923762586442,1465.7298769946271 C 544.8923762586442,1459.7298769946271 532.1523762586442,1457.9198769946272 519.1223762586442,1456.809876994627 A 73.12,73.12 0.0 0,1 508.3823762586442,1455.269876994627 C 496.0023762586442,1452.359876994627 487.0723762586442,1441.059876994627 495.7023762586442,1427.269876994627 C 496.3423762586442,1426.2598769946271 497.18237625864424,1425.309876994627 496.76237625864417,1423.879876994627 L 496.76237625864417,1423.8798769946272"/>
</svg>
