<?xml version="1.0" ?>
<svg xmlns="http://www.w3.org/2000/svg" xmlns:ev="http://www.w3.org/2001/xml-events" xmlns:xlink="http://www.w3.org/1999/xlink" baseProfile="full" data-name="Layer 1" height="1457" transform="scale(0.06863417982155114 0.06863417982155114) translate(-809.0 -728.5)" version="1.1" viewBox="0 0 1618 1457" width="1618">
	<defs/>
	<path d="M 1182.1803252440736,383.759202923756 C 1178.9703252440736,377.31920292375594 1176.4103252440736,372.129202923756 1173.8003252440735,366.96920292375603 A 108.17,108.17 0.0 0,1 1163.6803252440736,338.889202923756 A 29.83,29.83 0.0 0,0 1161.1203252440737,331.239202923756 C 1154.6503252440737,318.389202923756 1153.9303252440736,304.89920292375604 1156.4703252440736,291.069202923756 A 91.83,91.83 0.0 0,0 1157.7103252440736,266.279202923756 C 1156.7103252440736,254.27920292375597 1158.7103252440736,242.699202923756 1165.3503252440737,232.22920292375596 A 40.92,40.92 0.0 0,1 1180.2303252440738,218.389202923756 C 1185.3003252440737,215.52920292375597 1190.4503252440738,212.809202923756 1195.4403252440738,209.829202923756 A 49.0,49.0 0.0 0,1 1220.380325244074,202.829202923756 C 1228.6903252440738,202.739202923756 1237.010325244074,203.179202923756 1245.320325244074,203.329202923756 C 1256.820325244074,203.549202923756 1265.880325244074,209.489202923756 1274.510325244074,216.09920292375597 C 1281.930325244074,221.77920292375597 1288.990325244074,227.85920292375596 1296.850325244074,233.01920292375598 C 1305.750325244074,238.869202923756 1311.630325244074,247.59920292375597 1315.530325244074,257.449202923756 C 1319.130325244074,266.529202923756 1322.160325244074,275.819202923756 1325.620325244074,284.959202923756 C 1327.2303252440738,289.22920292375596 1329.2403252440738,293.34920292375597 1331.110325244074,297.519202923756 C 1335.610325244074,307.579202923756 1337.800325244074,317.999202923756 1336.530325244074,329.079202923756 C 1335.140325244074,341.259202923756 1333.140325244074,353.379202923756 1332.640325244074,365.66920292375596 A 160.0,160.0 0.0 0,0 1332.540325244074,382.489202923756 A 124.93,124.93 0.0 0,1 1327.1503252440739,426.21920292375603 A 109.89,109.89 0.0 0,0 1323.9103252440739,441.43920292375606 C 1322.330325244074,452.0392029237561 1325.9103252440739,460.69920292375605 1333.5103252440738,467.83920292375603 C 1337.7403252440738,471.83920292375603 1342.2703252440738,475.509202923756 1346.7803252440738,479.19920292375605 A 38.94,38.94 0.0 0,1 1355.7003252440738,488.71920292375603 C 1362.2703252440738,499.42920292375607 1370.9003252440739,508.46920292375603 1378.840325244074,518.089202923756 C 1389.490325244074,530.989202923756 1398.840325244074,544.6692029237561 1403.550325244074,561.019202923756 C 1406.220325244074,570.279202923756 1406.390325244074,579.919202923756 1407.960325244074,589.339202923756 C 1409.5303252440742,598.7592029237561 1411.270325244074,608.139202923756 1414.670325244074,617.1592029237561 C 1418.520325244074,627.3492029237561 1419.8203252440742,638.0092029237561 1420.780325244074,648.8692029237561 C 1422.580325244074,669.1792029237561 1422.940325244074,689.5492029237561 1424.180325244074,709.8692029237561 C 1424.900325244074,721.4992029237561 1424.180325244074,733.1592029237561 1425.520325244074,744.7692029237561 C 1426.610325244074,754.4792029237561 1427.310325244074,764.2292029237561 1428.290325244074,773.9592029237562 A 57.23,57.23 0.0 0,0 1432.460325244074,790.8492029237561 C 1440.1403252440741,808.8492029237561 1444.460325244074,827.4892029237561 1444.3703252440741,847.1892029237562 C 1444.3103252440742,858.5992029237563 1448.1003252440742,869.3692029237562 1452.3703252440741,879.7392029237561 C 1459.6103252440741,897.4692029237561 1465.690325244074,915.589202923756 1471.8803252440741,933.6792029237562 A 144.0,144.0 0.0 0,0 1482.650325244074,958.2092029237562 C 1491.480325244074,973.7592029237561 1498.3603252440741,990.319202923756 1507.510325244074,1005.7192029237561 C 1517.580325244074,1022.6592029237562 1529.970325244074,1037.129202923756 1547.600325244074,1046.5992029237564 C 1556.4503252440738,1051.3492029237564 1564.2103252440738,1057.5992029237564 1571.530325244074,1064.4492029237563 C 1578.660325244074,1071.149202923756 1584.310325244074,1078.9092029237563 1586.970325244074,1088.2592029237562 C 1593.070325244074,1109.6792029237563 1601.220325244074,1130.3592029237561 1608.8803252440741,1151.2592029237562 A 102.87,102.87 0.0 0,1 1614.660325244074,1181.789202923756 C 1615.0503252440742,1189.6592029237559 1616.280325244074,1197.499202923756 1617.240325244074,1205.3392029237561 C 1617.8903252440741,1210.7392029237562 1618.240325244074,1216.1092029237561 1617.020325244074,1221.4692029237563 A 41.76,41.76 0.0 0,0 1616.380325244074,1236.9092029237563 A 51.12,51.12 0.0 0,1 1615.380325244074,1254.9092029237563 Q 1611.540325244074,1273.209202923756 1607.630325244074,1291.499202923756 A 90.3,90.3 0.0 0,1 1602.1703252440739,1307.4092029237563 A 87.88,87.88 0.0 0,0 1595.600325244074,1336.479202923756 C 1595.120325244074,1344.539202923756 1591.080325244074,1349.479202923756 1584.530325244074,1353.249202923756 C 1573.250325244074,1359.809202923756 1560.890325244074,1362.249202923756 1548.120325244074,1362.9092029237563 A 146.0,146.0 0.0 0,0 1530.120325244074,1364.709202923756 A 42.27,42.27 0.0 0,1 1515.2403252440738,1364.709202923756 A 199.13,199.13 0.0 0,0 1493.5803252440737,1362.229202923756 C 1481.3503252440737,1361.4092029237563 1473.0603252440737,1354.809202923756 1468.9103252440736,1343.3592029237561 C 1466.8403252440737,1337.649202923756 1464.5603252440737,1332.1592029237563 1460.9103252440736,1327.2392029237562 A 21.07,21.07 0.0 0,1 1456.8103252440737,1313.7592029237562 A 59.52,59.52 0.0 0,0 1455.1303252440737,1298.2792029237562 C 1452.7203252440736,1288.1392029237563 1453.1303252440737,1278.0792029237564 1454.8503252440737,1267.9392029237565 C 1455.2803252440738,1265.4992029237565 1455.8503252440737,1262.9392029237565 1455.5303252440738,1260.5292029237562 C 1454.1903252440738,1250.5292029237562 1455.0903252440737,1240.5292029237562 1454.7903252440738,1230.6192029237563 C 1454.6403252440737,1225.6192029237563 1454.3603252440737,1220.6192029237563 1452.8603252440737,1215.8292029237564 C 1449.7803252440738,1206.0792029237564 1448.3603252440737,1195.9692029237563 1446.0103252440738,1186.0692029237562 A 31.71,31.71 0.0 0,1 1444.6903252440738,1179.3492029237564 C 1444.5603252440737,1168.4892029237562 1439.620325244074,1159.3492029237564 1434.600325244074,1150.2192029237563 A 127.0,127.0 0.0 0,0 1427.010325244074,1138.0492029237562 A 153.21,153.21 0.0 0,1 1407.070325244074,1099.369202923756 C 1403.470325244074,1088.9692029237558 1396.6603252440739,1080.499202923756 1390.380325244074,1071.729202923756 C 1388.9303252440739,1069.729202923756 1387.110325244074,1067.9292029237558 1385.7503252440738,1065.8592029237561 C 1379.0503252440737,1055.669202923756 1370.4203252440739,1047.209202923756 1361.2503252440738,1039.379202923756 C 1346.5403252440738,1026.8192029237562 1335.130325244074,1011.5092029237561 1323.9703252440738,995.9692029237559 C 1320.140325244074,990.649202923756 1315.9703252440738,985.8092029237558 1310.2203252440738,982.629202923756 C 1302.6903252440738,978.4592029237559 1296.2203252440738,972.899202923756 1289.6503252440739,967.4992029237559 C 1288.2503252440738,966.3492029237558 1287.2003252440738,964.6092029237558 1284.4303252440739,964.4392029237559 C 1286.9303252440739,973.7892029237559 1287.9503252440738,983.4392029237559 1296.0303252440738,990.0192029237559 C 1299.3003252440737,992.6992029237559 1301.5703252440737,996.159202923756 1303.6803252440739,999.7792029237559 C 1308.5003252440738,1008.0892029237558 1312.080325244074,1016.929202923756 1315.560325244074,1025.849202923756 A 49.3,49.3 0.0 0,1 1316.840325244074,1058.269202923756 A 25.86,25.86 0.0 0,0 1315.740325244074,1069.3392029237557 A 46.18,46.18 0.0 0,1 1311.450325244074,1096.6892029237556 C 1305.6403252440741,1108.6892029237556 1302.450325244074,1121.1892029237556 1300.550325244074,1134.2292029237556 A 68.47,68.47 0.0 0,1 1293.620325244074,1156.1492029237556 A 30.19,30.19 0.0 0,0 1290.280325244074,1166.7992029237557 C 1289.880325244074,1170.3392029237557 1288.280325244074,1173.5692029237557 1287.190325244074,1176.9192029237556 C 1281.960325244074,1192.5492029237557 1274.6003252440742,1207.2292029237556 1266.8603252440741,1221.7192029237558 A 28.51,28.51 0.0 0,1 1263.0003252440742,1227.369202923756 A 167.78,167.78 0.0 0,0 1242.7903252440742,1254.1892029237556 C 1236.4903252440743,1264.8092029237555 1226.3403252440742,1269.7792029237557 1213.7903252440742,1268.9292029237558 A 41.31,41.31 0.0 0,0 1203.2403252440743,1269.6592029237559 C 1188.7103252440743,1272.4592029237556 1174.3203252440742,1272.329202923756 1160.1003252440742,1267.8792029237557 A 14.61,14.61 0.0 0,0 1152.700325244074,1267.8792029237557 A 60.7,60.7 0.0 0,1 1134.060325244074,1268.3592029237557 C 1124.370325244074,1267.249202923756 1118.1603252440739,1261.7292029237556 1115.480325244074,1252.4592029237556 C 1112.1303252440741,1240.8992029237556 1113.6203252440741,1229.7992029237557 1118.320325244074,1218.9992029237555 A 80.0,80.0 0.0 0,1 1130.040325244074,1199.9192029237556 A 114.21,114.21 0.0 0,0 1141.290325244074,1183.4592029237556 C 1145.600325244074,1175.8392029237557 1150.590325244074,1168.6892029237556 1157.070325244074,1162.6792029237558 C 1167.620325244074,1152.9192029237556 1172.820325244074,1140.4692029237558 1175.070325244074,1126.5492029237557 A 54.23,54.23 0.0 0,1 1178.1903252440738,1114.5492029237557 A 31.53,31.53 0.0 0,0 1180.2803252440738,1100.4792029237556 C 1179.6403252440737,1089.4792029237556 1178.9203252440739,1078.4792029237556 1178.3803252440737,1067.4792029237556 A 159.21,159.21 0.0 0,0 1173.6103252440737,1036.0892029237557 A 134.6,134.6 0.0 0,1 1170.3703252440737,1020.2092029237555 A 79.21,79.21 0.0 0,0 1164.9303252440736,1001.0592029237554 C 1162.6803252440736,995.4192029237553 1159.6503252440737,990.5392029237554 1154.6603252440736,986.5792029237554 C 1145.8503252440737,979.5792029237554 1139.3903252440737,970.1392029237553 1130.9603252440736,962.6792029237553 C 1127.8203252440735,959.9092029237553 1124.6903252440736,957.1692029237553 1120.7403252440736,955.6792029237553 C 1110.9503252440736,951.9892029237552 1104.0703252440735,944.9492029237553 1098.4203252440736,936.4792029237552 C 1095.1803252440736,931.6392029237553 1092.0103252440736,926.7592029237552 1088.8003252440737,921.8992029237553 A 38.35,38.35 0.0 0,0 1082.3903252440737,914.2792029237554 C 1067.6503252440737,901.1892029237555 1060.7003252440736,884.3592029237553 1060.3903252440737,865.0692029237554 A 99.29,99.29 0.0 0,0 1052.8303252440737,828.7192029237553 C 1048.3903252440737,817.7192029237553 1047.7403252440738,806.0492029237554 1046.2703252440738,794.5192029237553 A 57.19,57.19 0.0 0,0 1041.2703252440738,776.5192029237553 C 1036.6103252440737,766.9292029237553 1029.5503252440737,760.2092029237554 1019.2703252440738,756.7292029237553 C 1004.6903252440738,751.8092029237554 990.4503252440738,751.5492029237554 976.0003252440738,757.2792029237553 A 178.61,178.61 0.0 0,0 949.8603252440737,770.4392029237553 A 90.14,90.14 0.0 0,1 929.8603252440737,779.0092029237553 A 245.82,245.82 0.0 0,0 889.9703252440737,795.0092029237553 C 878.2803252440737,801.0092029237553 866.3803252440737,806.2492029237553 853.5103252440737,809.2992029237553 C 841.6403252440737,812.1092029237552 831.0603252440736,818.0092029237553 820.8703252440737,824.5292029237553 C 806.3203252440737,833.8392029237552 791.7203252440737,843.0392029237554 775.4703252440737,849.2092029237552 C 772.1603252440738,850.4592029237552 768.8703252440737,851.7792029237552 765.4703252440737,852.7192029237552 A 63.33,63.33 0.0 0,0 744.6703252440738,862.4792029237552 C 736.2103252440737,868.6992029237553 726.8803252440738,870.0492029237552 716.8903252440738,869.2692029237552 C 713.1603252440738,868.9792029237552 709.4503252440737,868.2692029237552 705.7203252440738,868.1792029237553 C 701.4403252440738,868.0292029237552 700.7203252440738,868.5892029237554 700.7203252440738,872.5792029237554 C 700.7803252440738,886.8892029237553 696.6603252440739,899.9592029237555 689.9903252440738,912.4892029237554 C 685.2803252440738,921.3492029237553 686.3803252440738,927.8592029237553 694.2303252440738,933.9592029237555 C 704.6203252440738,942.0392029237554 709.3003252440739,952.8992029237555 709.8903252440738,965.2792029237554 C 710.5203252440738,978.5592029237554 712.2403252440738,991.7892029237554 711.8903252440738,1005.1192029237553 A 87.61,87.61 0.0 0,1 709.7003252440737,1022.4092029237553 A 109.51,109.51 0.0 0,0 707.4603252440737,1059.5992029237555 C 709.0903252440737,1073.8592029237552 708.6603252440738,1087.6792029237554 703.0903252440737,1101.2692029237555 C 699.3203252440737,1110.4792029237556 699.9403252440737,1120.5292029237553 700.4503252440737,1130.2692029237555 C 700.9403252440737,1139.6392029237554 699.7303252440737,1148.4792029237556 695.7003252440737,1156.9592029237556 C 691.6703252440738,1165.4392029237556 692.9303252440737,1174.1092029237557 696.0103252440737,1182.4592029237556 A 75.91,75.91 0.0 0,1 700.6403252440737,1209.9592029237556 C 700.5603252440736,1217.2192029237553 699.1703252440736,1224.0392029237555 695.1403252440737,1230.1092029237557 A 36.0,36.0 0.0 0,0 688.8603252440737,1248.1092029237557 A 42.88,42.88 0.0 0,1 685.4203252440736,1261.3392029237557 A 57.27,57.27 0.0 0,0 681.0703252440736,1285.0892029237557 A 65.8,65.8 0.0 0,1 680.5703252440736,1295.6792029237554 C 679.6903252440736,1302.9292029237554 680.4603252440736,1310.1992029237554 679.9903252440736,1317.4492029237554 A 118.22,118.22 0.0 0,1 672.6403252440736,1352.0992029237555 A 228.0,228.0 0.0 0,0 661.7003252440735,1390.4292029237554 C 660.5003252440735,1396.6392029237554 658.3903252440736,1402.4892029237553 654.3903252440736,1407.4292029237554 A 169.73,169.73 0.0 0,0 641.8503252440736,1426.0392029237555 C 632.9003252440735,1440.8192029237553 619.4603252440736,1448.2592029237553 602.6703252440736,1450.7392029237553 C 584.5603252440736,1453.4192029237556 566.2403252440737,1454.0492029237553 548.1103252440737,1456.5392029237555 A 34.67,34.67 0.0 0,1 536.3303252440737,1455.9192029237556 C 530.0303252440738,1454.6092029237557 523.6903252440737,1453.6492029237556 517.2603252440737,1452.9192029237556 C 506.7203252440737,1451.7892029237555 501.26032524407367,1444.2392029237553 497.43032524407363,1435.1692029237556 A 27.16,27.16 0.0 0,1 496.27032524407366,1430.9692029237553 A 38.66,38.66 0.0 0,0 485.4403252440736,1411.6392029237554 C 479.78032524407365,1406.1992029237554 475.29032524407364,1400.0892029237557 472.8803252440737,1392.5792029237555 C 472.1303252440737,1390.2192029237558 471.0903252440737,1389.0492029237557 468.41032524407365,1390.0092029237558 C 466.26032524407367,1390.7692029237555 463.92032524407364,1391.0092029237558 461.77032524407366,1391.6892029237556 C 451.04032524407364,1395.2792029237557 440.1103252440737,1395.2592029237558 429.0603252440736,1393.8392029237557 C 420.9703252440736,1392.8392029237557 412.87032524407357,1392.6292029237557 404.8703252440736,1394.5492029237557 A 30.0,30.0 0.0 0,1 385.35032524407364,1392.6992029237558 C 375.85032524407364,1388.499202923756 366.47032524407365,1384.0292029237557 357.09032524407365,1379.579202923756 C 347.97032524407365,1375.2592029237562 344.7503252440737,1367.129202923756 343.49032524407363,1357.879202923756 A 51.15,51.15 0.0 0,1 344.96032524407366,1337.3892029237559 C 347.14032524407367,1329.3892029237559 349.36032524407364,1321.3892029237559 351.7503252440737,1313.3892029237559 C 353.95032524407367,1306.059202923756 358.53032524407365,1300.099202923756 363.28032524407365,1294.289202923756 C 367.51032524407367,1289.119202923756 372.54032524407364,1284.729202923756 377.35032524407364,1280.1392029237559 C 389.1203252440736,1268.8892029237559 393.0003252440736,1254.7592029237558 392.6303252440736,1238.919202923756 C 392.3403252440736,1226.0492029237562 391.85032524407364,1213.149202923756 393.9703252440736,1200.329202923756 C 395.9003252440736,1188.6392029237559 397.5803252440736,1176.9092029237559 399.4303252440736,1165.209202923756 C 401.19032524407356,1154.0692029237562 401.2303252440736,1142.7992029237562 401.37032524407357,1131.5992029237564 C 401.62032524407357,1110.5392029237564 403.90032524407354,1089.669202923756 406.37032524407357,1068.8192029237562 C 408.44032524407356,1050.9992029237565 408.7903252440736,1033.149202923756 408.75032524407357,1015.2592029237563 C 408.75032524407357,997.7992029237563 406.13032524407356,980.4492029237564 406.65032524407354,962.9592029237564 A 95.49,95.49 0.0 0,0 404.59032524407354,941.8692029237565 C 401.95032524407355,928.3892029237564 402.8603252440735,915.0992029237565 405.38032524407356,901.6292029237565 C 408.22032524407354,886.4192029237564 407.91032524407353,871.0392029237565 405.44032524407356,855.6892029237564 C 403.51032524407356,843.7892029237563 401.9803252440736,831.8192029237564 402.12032524407357,819.6892029237564 A 40.49,40.49 0.0 0,0 400.12032524407357,806.1592029237564 A 256.16,256.16 0.0 0,1 389.90032524407354,765.0592029237564 A 57.06,57.06 0.0 0,0 384.06032524407357,748.0592029237564 C 379.9103252440736,740.0592029237564 377.6703252440736,731.3992029237564 376.06032524407357,722.5492029237564 C 374.87032524407357,715.7992029237564 373.6103252440736,709.0492029237564 372.1603252440736,702.3492029237564 A 103.64,103.64 0.0 0,1 370.2803252440736,681.9192029237564 C 370.0903252440736,670.7492029237565 370.0503252440736,659.6192029237565 367.2803252440736,648.5492029237564 C 362.9003252440736,631.2292029237564 360.1903252440736,613.5492029237564 355.6403252440736,596.2092029237564 C 353.2103252440736,586.9592029237564 352.9803252440736,577.2992029237564 356.6403252440736,567.9692029237564 A 27.41,27.41 0.0 0,0 358.0603252440736,555.0492029237564 A 264.36,264.36 0.0 0,1 358.1903252440736,502.72920292375636 C 359.1903252440736,492.5392029237563 357.55032524407363,483.0792029237564 353.9403252440736,473.49920292375634 A 325.57,325.57 0.0 0,0 338.5203252440736,438.75920292375633 A 174.17,174.17 0.0 0,1 328.6203252440736,414.5292029237563 C 320.72032524407365,391.2992029237563 313.73032524407364,367.7992029237563 307.1903252440736,344.1492029237563 C 306.1303252440736,340.34920292375637 305.1903252440736,336.46920292375637 303.3203252440736,332.97920292375636 C 300.1303252440736,327.2092029237564 296.74032524407363,325.97920292375636 290.5203252440736,328.17920292375635 A 414.3,414.3 0.0 0,0 249.70032524407372,345.389202923756 C 243.52032524407372,348.389202923756 238.42032524407375,352.389202923756 236.24032524407374,359.29920292375596 C 235.68032524407374,361.07920292375593 234.58032524407372,362.7092029237559 234.19032524407373,364.509202923756 C 232.12032524407374,373.859202923756 227.2803252440737,381.78920292375597 221.98032524407375,389.56920292375594 A 38.54,38.54 0.0 0,0 214.98032524407375,412.4692029237559 A 33.63,33.63 0.0 0,1 213.86032524407375,422.3592029237559 C 210.78032524407377,433.3592029237559 210.18032524407374,444.93920292375594 205.72032524407376,455.6192029237559 A 47.82,47.82 0.0 0,1 197.51032524407378,469.3892029237559 C 193.91032524407376,473.3892029237559 190.6903252440738,477.77920292375586 187.20032524407378,481.90920292375586 C 180.20032524407378,490.2292029237559 173.6903252440738,492.51920292375587 164.1203252440738,487.3492029237559 C 156.1203252440738,483.04920292375596 147.82032524407379,485.1092029237559 139.8603252440738,483.15920292375586 C 138.20032524407384,482.7592029237559 136.69032524407385,483.9592029237558 135.14032524407384,484.54920292375584 A 16.7,16.7 0.0 0,1 125.36032524407382,484.93920292375583 A 15.48,15.48 0.0 0,1 114.63032524407383,477.1992029237558 C 110.70032524407382,470.3492029237558 106.48032524407382,463.65920292375586 102.69032524407383,456.7292029237558 C 98.69032524407383,449.3692029237558 93.14032524407382,443.65920292375574 85.56032524407384,440.05920292375583 A 28.8,28.8 0.0 0,1 74.56032524407384,431.05920292375583 C 69.83032524407385,424.5992029237558 63.81032524407384,421.3192029237558 55.56032524407384,420.90920292375586 C 43.31032524407384,420.29920292375584 33.67032524407382,410.90920292375586 30.740325244073844,397.40920292375586 A 145.0,145.0 0.0 0,0 24.200325244073838,375.3892029237559 A 16.79,16.79 0.0 0,0 18.450325244073838,367.5092029237559 C 16.100325244073844,365.78920292375585 13.820325244073842,363.9692029237559 11.520325244073845,362.18920292375583 C 0.7003252440738521,353.8392029237558 -2.9596747559261587,344.4592029237558 2.5203252440738453,332.1192029237558 C 6.690325244073847,322.69920292375576 8.040325244073841,313.31920292375577 8.820325244073842,303.32920292375576 C 9.820325244073842,290.71920292375574 14.600325244073844,279.32920292375576 21.910325244073846,268.76920292375576 C 37.48032524407385,246.32920292375576 50.91032524407383,222.76920292375576 59.760325244073854,196.67920292375572 C 63.62032524407387,185.27920292375575 68.38032524407386,174.17920292375572 71.96032524407384,162.67920292375572 A 40.65,40.65 0.0 0,0 74.15032524407384,151.74920292375572 C 74.37032524407384,144.4492029237557 76.15032524407384,137.3392029237557 82.15032524407384,132.74920292375572 C 97.53032524407384,120.74920292375572 106.44032524407383,103.9592029237557 116.74032524407384,88.1492029237557 C 120.15032524407384,82.91920292375568 123.43032524407384,77.61920292375572 126.68032524407384,72.28920292375568 C 132.63032524407384,62.53920292375568 140.56032524407385,54.80920292375569 149.87032524407385,48.21920292375569 C 163.22032524407382,38.7692029237557 178.1803252440738,32.5492029237557 192.68032524407386,25.28920292375568 C 209.00032524407385,17.119202923755694 226.00032524407385,13.959202923755669 243.94032524407385,14.379202923755685 A 34.09,34.09 0.0 0,0 255.45032524407384,12.199202923755678 C 273.8503252440738,6.199202923755678 292.45032524407384,0.9392029237556869 311.9703252440738,0.11920292375566532 C 328.1503252440738,-0.5607970762443415 343.88032524407384,1.5892029237556642 358.7403252440738,8.619202923755665 A 110.69,110.69 0.0 0,0 377.5903252440738,15.099202923755655 C 381.00032524407385,16.00920292375565 384.38032524407384,17.099202923755655 387.75032524407385,18.099202923755655 C 402.36032524407386,22.69920292375565 410.02032524407383,33.369202923755665 413.2803252440739,47.71920292375566 A 89.83,89.83 0.0 0,1 415.7803252440739,72.45920292375567 C 415.22032524407393,83.13920292375565 419.0103252440739,91.87920292375566 427.6503252440739,98.56920292375565 C 433.4103252440739,103.01920292375564 439.06032524407385,107.56920292375565 445.09032524407394,111.67920292375567 C 453.59032524407394,117.42920292375567 461.47032524407393,124.03920292375568 467.46032524407394,132.32920292375564 C 475.46032524407394,143.45920292375564 485.46032524407394,152.48920292375567 496.20032524407395,160.73920292375567 C 512.4903252440739,173.30920292375566 524.900325244074,188.92920292375567 534.680325244074,206.84920292375568 C 535.870325244074,209.0292029237557 536.880325244074,211.54920292375567 538.680325244074,213.11920292375567 C 545.680325244074,219.24920292375566 552.750325244074,225.44920292375565 560.330325244074,230.85920292375567 C 565.190325244074,234.31920292375565 569.330325244074,238.06920292375565 572.560325244074,243.06920292375565 C 575.3503252440739,247.44920292375565 578.2203252440739,251.78920292375568 581.080325244074,256.12920292375566 C 584.900325244074,261.93920292375566 589.540325244074,266.87920292375566 595.810325244074,270.12920292375566 C 599.670325244074,272.12920292375566 603.410325244074,274.40920292375563 607.2203252440739,276.5392029237557 C 614.4703252440739,280.5992029237557 621.8503252440739,284.4192029237557 628.4903252440739,289.5392029237557 C 633.1403252440739,293.12920292375566 638.3703252440739,295.3992029237557 644.6103252440739,295.2192029237557 C 651.3703252440739,295.0192029237557 656.560325244074,298.2792029237557 660.0303252440739,304.11920292375567 A 58.52,58.52 0.0 0,1 664.0303252440739,311.11920292375567 C 666.0303252440739,315.9792029237557 669.8103252440739,318.62920292375566 674.6403252440739,319.94920292375565 C 683.4603252440739,322.3592029237557 692.3703252440739,324.46920292375563 701.1303252440739,327.06920292375565 C 713.9703252440739,330.86920292375567 726.1303252440739,336.15920292375563 736.5203252440739,344.87920292375566 C 741.3603252440739,348.9292029237556 746.5803252440738,352.12920292375566 752.8803252440739,353.5592029237556 C 758.8803252440739,354.90920292375563 764.1103252440739,357.87920292375566 769.0203252440739,361.4692029237556 A 154.78,154.78 0.0 0,0 787.2803252440738,373.389202923756 C 792.2803252440738,376.05920292375595 797.4503252440737,377.81920292375594 803.2803252440738,377.729202923756 C 810.3603252440738,377.619202923756 817.3603252440738,378.999202923756 824.2803252440738,380.30920292375606 A 188.0,188.0 0.0 0,0 856.5503252440737,383.30920292375606 A 137.27,137.27 0.0 0,1 892.8503252440737,388.489202923756 C 903.6203252440737,391.57920292375604 914.5003252440737,395.489202923756 925.8503252440737,394.40920292375597 C 940.3703252440737,393.03920292375597 954.9303252440736,394.06920292375594 969.4303252440736,392.5892029237559 C 980.1903252440736,391.4892029237559 990.9903252440736,391.19920292375593 1001.7803252440735,393.01920292375587 A 39.59,39.59 0.0 0,0 1020.3003252440735,391.8392029237559 A 73.77,73.77 0.0 0,1 1053.5603252440735,389.3492029237559 C 1068.4503252440736,391.54920292375596 1083.3503252440735,391.69920292375593 1098.1503252440734,387.76920292375587 C 1107.2703252440733,385.3492029237559 1116.6203252440735,385.41920292375585 1126.0203252440733,386.65920292375586 C 1135.9603252440734,387.9692029237558 1145.8703252440732,388.2392029237559 1155.6003252440732,384.7492029237559 C 1163.8103252440733,381.7192029237559 1172.3003252440733,381.3892029237559 1182.1803252440732,383.7592029237559 L 1182.1803252440736,383.759202923756 M 1242.1203252440737,366.06920292375594 C 1250.5003252440738,355.06920292375594 1255.3303252440737,343.9792029237559 1255.7903252440738,331.31920292375594 C 1256.0503252440737,324.25920292375594 1256.0603252440737,317.16920292375596 1255.6303252440737,310.11920292375595 C 1255.0403252440738,300.48920292375595 1253.2803252440738,291.11920292375595 1246.5003252440736,283.53920292375597 C 1243.7003252440736,280.389202923756 1242.1803252440736,276.47920292375596 1240.8403252440735,272.53920292375597 C 1239.8403252440735,269.59920292375597 1238.9503252440734,266.53920292375597 1236.8403252440735,264.149202923756 C 1234.0203252440735,260.97920292375596 1230.8403252440735,258.29920292375596 1226.1403252440734,258.819202923756 C 1221.2403252440733,259.359202923756 1219.9803252440734,263.419202923756 1218.8003252440735,267.129202923756 A 52.17,52.17 0.0 0,0 1217.9703252440736,296.65920292375597 C 1219.6503252440737,303.079202923756 1221.5303252440735,309.469202923756 1223.6103252440737,315.779202923756 A 44.23,44.23 0.0 0,1 1226.2303252440736,331.04920292375596 A 24.56,24.56 0.0 0,0 1227.9903252440736,341.42920292375595 C 1231.5503252440735,349.81920292375594 1236.7303252440736,357.30920292375595 1242.1203252440737,366.06920292375594"/>
</svg>
