<?xml version="1.0" ?>
<svg xmlns="http://www.w3.org/2000/svg" xmlns:ev="http://www.w3.org/2001/xml-events" xmlns:xlink="http://www.w3.org/1999/xlink" baseProfile="full" data-name="Layer 1" height="1498" transform="scale(0.06675567423230974 0.06675567423230974) translate(-781.5 -749.0)" version="1.1" viewBox="0 0 1563 1498" width="1563">
	<defs/>
	<path d="M 103.58897964673375,384.2800674196491 A 98.58,98.58 0.0 0,0 78.11897964673375,381.2800674196491 C 59.19897964673373,381.5000674196491 42.21897964673374,375.6100674196491 27.89897964673375,363.05006741964905 A 48.5,48.5 0.0 0,1 13.588979646733748,340.1500674196491 C 11.37897964673374,332.91006741964907 9.028979646733745,325.7500674196491 8.758979646733735,318.0800674196491 C 8.668979646733732,315.36006741964906 7.3489796467337385,312.98006741964906 5.908979646733741,310.6900674196491 C 4.718979646733743,308.8100674196491 3.468979646733743,306.9600674196491 2.458979646733752,304.9800674196491 C -1.7710203532662518,296.7400674196491 -0.5410203532662479,288.3200674196491 6.12897964673374,281.7900674196491 A 57.0,57.0 0.0 0,1 21.778979646733745,270.5400674196491 A 135.75,135.75 0.0 0,0 38.038979646733736,261.39006741964914 C 49.71897964673374,253.84006741964913 62.67897964673375,249.15006741964913 75.79897964673373,244.83006741964914 C 87.42897964673372,240.99006741964917 98.79897964673373,236.65006741964913 108.92897964673372,229.42006741964911 C 114.56897964673371,225.42006741964911 118.51897964673373,220.97006741964913 117.77897964673372,213.52006741964914 C 117.53897964673371,211.12006741964916 118.21897964673371,208.63006741964915 118.10897964673373,206.20006741964914 C 116.78897964673374,177.46006741964914 130.93897964673374,155.66006741964912 149.5989796467337,135.91006741964912 C 158.5989796467337,126.35006741964912 169.06897964673368,118.32006741964915 178.83897964673372,109.5600674196491 A 190.54,190.54 0.0 0,0 196.2389796467337,91.14006741964909 C 200.5389796467337,86.14006741964909 202.1189796467337,80.4700674196491 202.2389796467337,73.96006741964908 C 202.4089796467337,61.22006741964907 200.4189796467337,48.69006741964907 199.1689796467337,36.090067419649074 A 69.5,69.5 0.0 0,1 199.86897964673375,14.830067419649026 C 203.08897964673378,-0.3599325803509714 215.05897964673375,-4.499932580350958 227.16897964673376,5.300067419649025 A 58.41,58.41 0.0 0,1 234.83897964673378,12.710067419649022 C 245.41897964673376,25.080067419649026 258.0189796467338,35.48006741964903 268.90897964673377,47.51006741964903 C 278.90897964673377,58.51006741964903 291.4389796467338,64.51006741964903 305.4589796467338,66.51006741964903 C 322.3389796467338,68.85006741964904 339.2689796467338,71.81006741964904 356.4589796467338,71.13006741964904 C 362.7489796467338,70.88006741964904 368.8989796467338,70.20006741964903 374.15897964673377,66.25006741964904 A 3.0,3.0 0.0 0,1 375.35897964673376,65.68006741964905 C 384.1689796467337,64.40006741964905 388.6989796467338,57.68006741964905 393.87897964673374,51.54006741964906 C 403.7889796467337,39.81006741964907 413.98897964673375,28.330067419649055 426.22897964673376,18.880067419649066 A 71.35,71.35 0.0 0,1 445.22897964673376,8.02006741964908 C 455.98897964673375,4.070067419649092 462.12897964673374,6.26006741964909 468.5889796467338,15.700067419649088 C 476.6489796467337,27.470067419649098 479.0589796467338,41.05006741964908 481.4489796467338,54.640067419649085 C 484.4489796467338,71.54006741964909 485.3089796467338,88.64006741964909 486.75897964673374,105.72006741964907 C 487.46897964673377,114.1300674196491 488.5589796467337,122.52006741964908 489.38897964673373,130.92006741964906 C 489.6589796467337,133.66006741964907 490.22897964673376,135.97006741964907 492.5789796467338,137.92006741964906 C 507.0689796467338,149.78006741964907 519.5789796467338,163.72006741964907 532.7789796467339,176.92006741964906 A 185.7,185.7 0.0 0,1 563.6089796467338,216.98006741964906 C 565.9989796467339,221.22006741964907 569.2589796467339,224.98006741964906 572.0489796467339,228.98006741964906 C 578.4789796467339,238.23006741964906 583.3489796467338,248.11006741964906 584.378979646734,259.55006741964905 A 33.08,33.08 0.0 0,0 589.918979646734,275.12006741964905 C 594.638979646734,282.18006741964905 595.8489796467338,289.830067419649 594.4689796467339,298.12006741964905 C 594.0289796467339,300.75006741964904 594.0689796467339,303.45006741964903 593.6289796467338,306.12006741964905 C 591.2589796467339,320.06006741964904 597.7489796467339,330.62006741964905 606.4689796467339,340.41006741964907 C 608.9889796467339,343.23006741964906 612.3589796467338,343.2700674196491 615.6189796467338,343.7000674196491 A 179.16,179.16 0.0 0,0 663.5289796467339,343.1300674196491 C 684.6989796467337,340.2300674196491 705.6589796467338,340.8400674196491 726.4589796467337,346.0300674196491 A 56.27,56.27 0.0 0,1 739.0289796467339,350.3500674196491 C 758.5489796467339,360.46006741964914 779.7789796467339,364.0400674196492 801.1689796467338,362.7500674196491 C 832.4089796467338,360.8600674196491 863.4289796467338,362.54006741964906 894.4789796467339,364.66006741964907 C 926.208979646734,366.830067419649 957.9989796467339,368.080067419649 989.638979646734,371.590067419649 C 1005.0089796467339,373.30006741964905 1019.7289796467339,377.590067419649 1034.458979646734,381.750067419649 C 1072.958979646734,392.66006741964895 1111.228979646734,404.41006741964895 1150.188979646734,413.57006741964904 C 1171.188979646734,418.5100674196491 1191.918979646734,424.44006741964904 1212.858979646734,429.57006741964904 C 1224.968979646734,432.57006741964904 1236.658979646734,436.870067419649 1248.388979646734,441.05006741964905 C 1270.158979646734,448.80006741964905 1292.0289796467341,456.2800674196491 1313.388979646734,465.2600674196491 C 1331.608979646734,472.93006741964905 1350.618979646734,478.6200674196491 1368.758979646734,486.6200674196491 C 1391.5689796467339,496.68006741964905 1414.138979646734,507.1300674196491 1434.658979646734,521.5100674196491 C 1443.238979646734,527.5100674196491 1451.228979646734,534.2600674196491 1459.378979646734,540.810067419649 C 1470.638979646734,549.870067419649 1482.0189796467341,558.810067419649 1492.928979646734,568.2800674196491 C 1500.468979646734,574.830067419649 1507.348979646734,582.1600674196491 1514.418979646734,589.2800674196491 A 39.61,39.61 0.0 0,1 1522.048979646734,600.1700674196491 C 1526.048979646734,608.3800674196491 1530.418979646734,616.3900674196491 1534.358979646734,624.580067419649 C 1537.198979646734,630.470067419649 1537.978979646734,637.2900674196491 1538.818979646734,643.890067419649 A 5.0,5.0 0.0 0,1 1538.818979646734,644.5600674196489 C 1538.568979646734,661.1100674196489 1541.088979646734,677.3300674196489 1544.378979646734,693.4900674196489 A 128.66,128.66 0.0 0,1 1546.628979646734,724.7100674196489 C 1545.968979646734,739.9400674196489 1547.358979646734,754.8100674196489 1552.0189796467341,769.4800674196489 C 1555.308979646734,779.8300674196489 1557.0189796467341,790.6600674196488 1559.798979646734,801.1900674196489 C 1562.578979646734,811.720067419649 1562.608979646734,822.3100674196489 1562.1789796467342,833.030067419649 A 420.82,420.82 0.0 0,1 1557.8189796467343,878.840067419649 C 1556.1489796467342,889.9400674196489 1557.2089796467344,901.050067419649 1556.8189796467343,912.150067419649 A 47.51,47.51 0.0 0,1 1549.9289796467342,936.150067419649 A 43.72,43.72 0.0 0,0 1543.1089796467343,962.150067419649 C 1543.5089796467344,969.300067419649 1542.2989796467343,976.350067419649 1540.9589796467342,983.350067419649 A 76.33,76.33 0.0 0,0 1539.7189796467342,1005.920067419649 A 57.63,57.63 0.0 0,1 1538.7189796467342,1025.8200674196491 A 28.09,28.09 0.0 0,0 1539.6489796467342,1041.5500674196492 A 199.44,199.44 0.0 0,1 1545.6489796467342,1064.770067419649 A 80.86,80.86 0.0 0,1 1542.5789796467343,1105.580067419649 A 45.25,45.25 0.0 0,0 1540.4889796467344,1125.2600674196492 A 334.07,334.07 0.0 0,1 1542.8189796467343,1169.190067419649 C 1542.7089796467344,1174.7200674196492 1541.8189796467343,1179.770067419649 1538.3889796467342,1184.190067419649 A 9.13,9.13 0.0 0,0 1536.5089796467341,1187.690067419649 C 1534.9789796467342,1195.690067419649 1529.328979646734,1200.3200674196491 1523.7689796467341,1205.690067419649 A 46.08,46.08 0.0 0,1 1495.5089796467341,1219.060067419649 C 1492.1489796467342,1219.4100674196488 1491.608979646734,1221.400067419649 1491.288979646734,1223.9300674196488 C 1490.2289796467342,1232.310067419649 1489.068979646734,1240.690067419649 1488.1689796467342,1249.0900674196491 C 1485.4189796467342,1274.7400674196492 1482.8589796467343,1300.4100674196488 1480.038979646734,1326.0900674196491 C 1478.648979646734,1338.710067419649 1475.6689796467342,1351.0900674196491 1472.7189796467342,1363.3700674196489 C 1471.2689796467341,1369.440067419649 1470.1389796467342,1375.540067419649 1469.2689796467341,1381.7200674196488 A 131.14,131.14 0.0 0,1 1451.4989796467341,1432.3400674196487 A 123.83,123.83 0.0 0,0 1445.7089796467342,1443.560067419649 C 1437.328979646734,1461.1200674196489 1419.8589796467343,1476.560067419649 1398.2689796467341,1475.830067419649 A 82.24,82.24 0.0 0,0 1379.6889796467342,1477.250067419649 A 76.35,76.35 0.0 0,1 1342.6889796467342,1475.250067419649 A 58.32,58.32 0.0 0,0 1318.3189796467343,1472.900067419649 A 28.22,28.22 0.0 0,1 1309.0189796467344,1472.650067419649 C 1291.3289796467343,1468.960067419649 1283.2289796467344,1448.650067419649 1293.2189796467344,1432.4500674196488 A 67.09,67.09 0.0 0,1 1322.8389796467343,1406.3700674196489 C 1330.7789796467343,1402.690067419649 1339.2189796467344,1400.770067419649 1347.5989796467343,1398.560067419649 C 1349.3189796467343,1398.110067419649 1351.0289796467343,1397.560067419649 1352.7789796467343,1397.3000674196492 C 1363.7789796467343,1395.520067419649 1369.8489796467343,1388.4300674196493 1372.6989796467344,1378.210067419649 C 1376.4589796467344,1364.710067419649 1379.9589796467344,1351.1400674196493 1381.1589796467345,1337.1000674196493 A 58.9,58.9 0.0 0,1 1381.8689796467345,1331.1000674196493 A 51.07,51.07 0.0 0,0 1382.5889796467345,1313.920067419649 C 1381.0189796467346,1302.4900674196492 1381.1989796467344,1290.920067419649 1378.6789796467344,1279.4900674196492 A 187.29,187.29 0.0 0,0 1367.3889796467345,1244.670067419649 Q 1358.2989796467346,1223.880067419649 1349.1389796467345,1203.1400674196493 A 66.67,66.67 0.0 0,0 1340.8589796467345,1188.710067419649 C 1335.7989796467346,1182.210067419649 1330.7489796467346,1175.710067419649 1325.6189796467345,1169.290067419649 A 50.0,50.0 0.0 0,0 1321.0389796467346,1164.440067419649 C 1317.0389796467346,1160.650067419649 1315.8089796467345,1160.9500674196493 1314.7189796467346,1166.1000674196493 C 1312.8389796467345,1175.0300674196492 1310.9689796467346,1184.0000674196494 1310.4589796467346,1193.1000674196493 C 1309.1089796467347,1217.170067419649 1304.7589796467346,1240.7900674196494 1299.7289796467346,1264.2600674196492 C 1296.4189796467347,1279.7000674196493 1293.9389796467347,1295.2600674196492 1290.5989796467345,1310.7100674196495 C 1287.1889796467344,1326.4300674196493 1280.9089796467345,1341.1600674196493 1274.7089796467344,1355.9100674196493 C 1272.3089796467343,1361.6200674196493 1270.2289796467344,1367.4000674196495 1265.7689796467344,1372.1000674196493 C 1258.9789796467344,1379.2600674196497 1251.0289796467343,1383.5500674196496 1241.0889796467343,1383.4600674196495 A 177.31,177.31 0.0 0,0 1211.9289796467342,1386.0100674196492 C 1199.3089796467343,1388.0100674196492 1186.6289796467343,1387.4800674196495 1174.5289796467341,1382.3900674196493 A 34.44,34.44 0.0 0,0 1157.5289796467341,1379.7900674196494 C 1151.608979646734,1380.3700674196493 1146.038979646734,1379.0600674196494 1140.588979646734,1376.9500674196497 C 1133.148979646734,1374.0800674196498 1128.818979646734,1368.0800674196498 1128.948979646734,1360.0200674196494 A 37.49,37.49 0.0 0,1 1138.778979646734,1335.1300674196495 A 76.77,76.77 0.0 0,1 1168.5389796467339,1314.2600674196497 C 1177.228979646734,1310.8600674196496 1185.8689796467338,1307.2600674196497 1194.2889796467339,1303.2600674196497 C 1203.978979646734,1298.6200674196493 1209.188979646734,1290.0700674196496 1211.5789796467338,1280.0400674196494 C 1215.8489796467338,1262.0400674196494 1215.4189796467338,1243.9100674196493 1213.458979646734,1225.6500674196495 C 1212.3289796467338,1215.0500674196496 1212.938979646734,1204.3000674196496 1211.688979646734,1193.6500674196495 C 1211.228979646734,1189.6500674196495 1211.028979646734,1185.6500674196495 1210.328979646734,1181.7200674196492 A 44.17,44.17 0.0 0,0 1199.438979646734,1158.7700674196494 C 1177.748979646734,1134.7700674196494 1153.158979646734,1113.8700674196493 1129.068979646734,1092.4300674196493 C 1111.9589796467342,1077.2000674196493 1094.2789796467341,1062.5400674196494 1079.808979646734,1044.6100674196496 A 190.64,190.64 0.0 0,1 1049.578979646734,993.0200674196495 C 1045.5189796467341,982.4300674196496 1040.908979646734,972.0200674196495 1034.578979646734,962.5500674196495 C 1030.188979646734,955.9500674196496 1024.668979646734,951.7500674196496 1016.368979646734,950.5500674196495 C 1008.4689796467339,949.4200674196494 1000.8089796467341,949.1500674196494 993.2989796467341,951.6200674196494 A 124.0,124.0 0.0 0,1 946.618979646734,957.6200674196494 C 937.5489796467341,957.0700674196495 929.128979646734,959.5300674196495 920.7989796467341,963.1300674196494 C 912.658979646734,966.6400674196494 903.6989796467342,967.6400674196494 895.098979646734,969.6700674196494 A 151.07,151.07 0.0 0,1 879.9789796467339,972.2600674196493 A 79.66,79.66 0.0 0,0 849.8089796467341,982.3600674196492 C 835.2989796467341,990.8500674196492 820.108979646734,997.4200674196492 803.648979646734,1001.0700674196493 A 78.78,78.78 0.0 0,0 790.9689796467342,1005.1700674196492 C 778.888979646734,1010.1000674196492 766.388979646734,1011.1700674196492 753.608979646734,1009.4600674196491 A 37.53,37.53 0.0 0,0 733.398979646734,1012.1800674196492 A 230.5,230.5 0.0 0,1 703.868979646734,1022.6100674196492 A 58.14,58.14 0.0 0,0 686.9989796467341,1030.440067419649 C 682.3089796467341,1033.5800674196494 677.2089796467342,1035.9300674196493 671.5789796467341,1036.3500674196493 C 658.8089796467341,1037.3500674196493 651.5789796467341,1047.8100674196494 649.5789796467341,1057.3500674196493 C 647.6889796467342,1066.4900674196492 645.638979646734,1075.6000674196493 643.5789796467341,1084.7000674196493 C 633.4689796467342,1129.1400674196493 622.2089796467342,1173.270067419649 610.378979646734,1217.2800674196492 C 603.9689796467342,1241.100067419649 598.5089796467341,1265.150067419649 590.628979646734,1288.580067419649 C 582.2689796467341,1313.4700674196492 577.5489796467341,1339.360067419649 570.8089796467341,1364.710067419649 C 563.8089796467341,1391.1400674196493 556.158979646734,1417.3900674196493 547.108979646734,1443.210067419649 C 542.688979646734,1455.8200674196491 537.928979646734,1468.3400674196491 529.5889796467341,1478.980067419649 C 519.8089796467341,1491.460067419649 507.17897964673404,1498.360067419649 490.868979646734,1497.150067419649 C 486.868979646734,1496.860067419649 482.868979646734,1496.8300674196494 478.868979646734,1496.150067419649 C 466.12897964673397,1493.9700674196492 453.098979646734,1494.7900674196494 440.39897964673395,1492.2800674196492 A 12.77,12.77 0.0 0,0 435.74897964673397,1492.3700674196493 C 419.41897964673393,1495.3700674196493 402.91897964673393,1494.0300674196492 386.488979646734,1494.3700674196493 A 63.0,63.0 0.0 0,1 367.398979646734,1491.6400674196493 C 355.128979646734,1488.0100674196492 346.568979646734,1475.4500674196493 347.578979646734,1462.6400674196493 C 348.748979646734,1447.940067419649 355.688979646734,1436.500067419649 367.518979646734,1427.960067419649 A 90.89,90.89 0.0 0,1 385.718979646734,1418.230067419649 C 401.30897964673403,1411.670067419649 416.718979646734,1404.7600674196492 430.078979646734,1394.0300674196492 C 439.38897964673396,1386.5500674196492 445.91897964673404,1377.5100674196492 448.698979646734,1365.6600674196493 C 453.25897964673396,1346.1600674196493 457.698979646734,1326.6600674196493 459.218979646734,1306.6600674196493 A 88.36,88.36 0.0 0,0 459.91897964673404,1297.3500674196493 C 459.3589796467341,1280.4100674196493 460.7489796467341,1263.5700674196491 462.65897964673405,1246.7600674196492 A 18.9,18.9 0.0 0,0 460.8889796467341,1236.5000674196494 A 390.4,390.4 0.0 0,1 438.4789796467341,1171.0100674196492 C 433.90897964673405,1152.4700674196492 429.30897964673414,1133.8200674196491 421.2289796467341,1116.4100674196493 C 410.52897964673406,1093.3500674196493 402.9789796467341,1069.1500674196495 394.56897964673414,1045.2600674196492 C 386.8989796467342,1023.4400674196494 378.72897964673416,1001.8000674196493 368.56897964673414,980.9900674196493 C 363.56897964673414,970.7400674196493 361.04897964673415,959.6100674196492 357.25897964673413,948.9900674196493 A 96.4,96.4 0.0 0,0 344.00897964673413,923.7200674196494 C 320.53897964673416,891.7200674196494 299.31897964673414,858.3900674196494 281.92897964673415,822.7200674196494 C 275.67897964673415,809.8900674196493 271.0889796467342,796.4300674196494 266.17897964673415,783.0800674196494 C 259.65897964673417,765.3400674196494 252.56897964673414,747.8200674196494 245.05897964673414,730.4900674196493 C 239.65897964673417,718.0400674196493 231.84897964673416,706.7900674196493 226.39897964673412,694.3500674196493 C 221.49897964673414,683.1500674196493 215.33897964673412,672.5400674196494 210.9689796467341,661.0900674196494 A 55.0,55.0 0.0 0,1 207.4689796467341,646.2300674196493 A 51.09,51.09 0.0 0,0 202.2889796467341,627.0300674196493 C 199.00897964673413,620.7700674196493 198.69897964673413,613.7700674196493 197.0989796467341,607.1000674196493 A 23.2,23.2 0.0 0,1 196.2389796467341,601.8400674196494 C 196.2389796467341,596.4900674196493 193.4789796467341,593.9200674196494 188.3589796467341,593.0300674196494 C 181.1689796467341,591.7700674196494 177.8689796467341,586.9000674196494 177.1789796467341,579.9600674196494 A 35.08,35.08 0.0 0,1 176.95897964673406,574.6400674196493 C 177.22897964673405,569.4300674196493 176.07897964673407,564.5700674196493 174.4289796467341,559.6400674196493 C 171.82897964673407,551.8500674196493 169.8689796467341,543.8500674196493 167.51897964673407,535.9700674196494 A 85.65,85.65 0.0 0,0 163.8689796467341,524.4200674196494 C 160.1689796467341,516.3400674196494 156.12897964673408,508.4200674196494 152.24897964673409,500.4200674196494 C 149.9789796467341,495.74006741964945 146.69897964673407,492.6800674196494 141.24897964673409,491.83006741964937 C 135.99897964673409,491.0000674196493 130.89897964673406,489.3100674196494 125.6089796467341,488.5200674196494 C 115.7589796467341,487.0600674196494 106.93897964673408,482.9300674196494 98.5089796467341,477.7900674196494 C 90.93897964673411,473.1700674196494 92.71897964673411,473.12006741964944 85.30897964673412,478.62006741964944 C 80.49897964673411,482.1900674196495 75.92897964673412,486.10006741964946 71.21897964673411,489.8200674196495 A 21.27,21.27 0.0 0,1 61.578979646734126,494.1700674196495 C 51.808979646734116,495.8200674196495 44.88897964673413,490.74006741964956 43.83897964673412,480.88006741964955 A 51.91,51.91 0.0 0,1 44.548979646734125,463.62006741964956 A 163.14,163.14 0.0 0,1 53.38897964673413,436.38006741964955 C 59.47897964673413,422.00006741964955 69.61897964673412,411.01006741964954 82.95897964673412,402.9600674196496 A 86.15,86.15 0.0 0,0 97.61897964673412,391.4200674196496 C 99.64897964673412,389.4800674196496 102.0089796467341,387.7200674196496 103.58897964673412,384.28006741964964 L 103.58897964673375,384.2800674196491"/>
</svg>
