<?xml version="1.0" ?>
<svg xmlns="http://www.w3.org/2000/svg" xmlns:ev="http://www.w3.org/2001/xml-events" xmlns:xlink="http://www.w3.org/1999/xlink" baseProfile="full" data-name="Layer 1" height="1327" transform="scale(0.07535795026375283 0.07535795026375283) translate(-839.0 -663.5)" version="1.1" viewBox="0 0 1678 1327" width="1678">
	<defs/>
	<path d="M 588.3615589870687,829.5834295192258 C 587.4215589870687,831.9834295192259 588.0615589870688,834.4134295192257 588.3615589870687,836.7934295192258 C 593.5915589870688,879.1134295192257 597.0715589870688,921.5634295192258 598.5415589870687,964.1834295192259 C 599.1615589870687,982.1834295192259 602.0115589870687,999.9434295192259 605.0215589870687,1017.6734295192259 A 34.8,34.8 0.0 0,0 607.6215589870687,1025.893429519226 A 89.77,89.77 0.0 0,1 611.9415589870688,1038.4734295192259 C 614.2015589870688,1046.703429519226 613.3315589870688,1054.0334295192258 607.5115589870688,1060.863429519226 C 602.7515589870688,1066.453429519226 601.3415589870689,1073.493429519226 601.3215589870688,1080.803429519226 C 601.3215589870688,1092.393429519226 600.3215589870688,1103.863429519226 596.2615589870688,1114.863429519226 C 594.2615589870688,1120.293429519226 592.1815589870688,1125.863429519226 588.3615589870689,1130.163429519226 C 584.1015589870689,1135.0134295192258 582.9115589870688,1140.4734295192259 582.4715589870689,1146.643429519226 C 581.4715589870689,1160.543429519226 576.7415589870689,1173.053429519226 566.7915589870689,1183.163429519226 C 553.6615589870689,1196.5234295192258 529.5515589870689,1203.703429519226 510.3615589870689,1193.553429519226 A 15.68,15.68 0.0 0,0 499.44155898706896,1192.003429519226 C 496.18155898706897,1192.6634295192262 492.8615589870689,1193.003429519226 489.551558987069,1193.3934295192262 C 482.82155898706895,1194.1534295192262 476.251558987069,1193.6434295192262 470.011558987069,1190.753429519226 C 455.44155898706896,1184.003429519226 452.141558987069,1168.073429519226 462.781558987069,1155.973429519226 C 469.21155898706894,1148.6734295192261 477.10155898706904,1143.463429519226 485.871558987069,1139.4134295192262 C 492.72155898706905,1136.263429519226 499.73155898706904,1133.3534295192262 506.271558987069,1129.6534295192262 C 522.801558987069,1120.3034295192263 531.831558987069,1106.263429519226 532.161558987069,1086.9034295192262 C 532.281558987069,1079.5934295192262 533.071558987069,1072.2934295192263 533.701558987069,1064.993429519226 C 535.341558987069,1046.1434295192262 533.471558987069,1027.753429519226 526.501558987069,1010.063429519226 C 521.4215589870689,997.1834295192259 518.641558987069,983.6934295192261 516.261558987069,970.1634295192259 C 513.141558987069,952.4634295192259 506.6215589870689,936.073429519226 498.67155898706886,920.1634295192259 C 489.9615589870688,902.6834295192259 481.05155898706886,885.293429519226 475.67155898706886,866.4134295192259 C 469.9815589870688,846.593429519226 464.1315589870689,826.793429519226 461.56155898706885,806.2534295192258 C 461.2115589870688,803.4134295192259 459.56155898706885,801.9634295192259 457.69155898706884,800.4134295192259 A 218.19,218.19 0.0 0,1 432.00155898706885,775.323429519226 C 426.45155898706884,768.863429519226 422.39155898706883,761.4734295192261 417.75155898706885,754.453429519226 C 405.43155898706885,735.853429519226 395.32155898706884,716.193429519226 390.11155898706886,694.293429519226 A 75.31,75.31 0.0 0,0 387.64155898706883,686.713429519226 C 384.50155898706885,677.903429519226 381.77155898706883,668.943429519226 381.2315589870688,659.593429519226 A 166.68,166.68 0.0 0,0 368.4215589870688,604.763429519226 C 360.1515589870688,584.763429519226 353.8715589870688,564.2734295192259 351.5515589870688,542.6934295192259 C 350.8515589870688,536.1834295192259 348.5515589870688,530.2034295192259 345.8215589870688,524.3734295192259 A 139.52,139.52 0.0 0,1 336.72155898706876,499.37342951922585 A 62.73,62.73 0.0 0,0 333.54155898706875,489.9334295192258 C 330.0115589870688,481.7934295192258 327.30155898706874,473.35342951922576 324.2615589870688,465.02342951922583 C 317.3115589870688,446.02342951922583 305.1115589870688,431.24342951922586 286.66155898706876,422.13342951922584 A 79.3,79.3 0.0 0,0 277.0215589870688,417.6534295192258 C 267.78155898706876,414.5334295192258 258.71155898706877,411.73342951922587 248.47155898706876,413.99342951922586 C 239.16155898706876,416.0434295192258 229.67155898706875,415.0534295192258 220.21155898706877,412.25342951922585 C 211.99155898706874,409.8234295192259 203.21155898706877,408.9534295192259 194.65155898706877,408.02342951922583 C 188.39155898706878,407.3434295192259 182.34155898706877,409.7234295192259 176.4415589870688,411.4534295192258 A 207.0,207.0 0.0 0,1 131.88155898706873,419.0834295192258 C 109.67155898706874,420.61342951922575 89.30155898706876,414.3334295192258 71.12155898706875,401.34342951922577 C 64.60155898706874,396.6834295192258 58.35155898706874,391.74342951922574 53.931558987068755,384.85342951922576 A 21.8,21.8 0.0 0,0 46.711558987068756,378.0334295192257 C 33.13155898706876,369.9034295192257 25.291558987068754,357.10342951922576 18.45155898706875,343.49342951922574 C 16.651558987068753,339.9334295192258 14.981558987068752,336.3034295192257 13.341558987068751,332.6634295192257 A 52.21,52.21 0.0 0,0 6.711558987068756,321.95342951922566 C -5.008441012931243,306.95342951922566 -1.0784410129312505,290.1734295192257 16.151558987068753,281.8034295192257 C 22.33155898706876,278.8034295192257 28.691558987068746,276.1434295192257 35.08155898706876,273.62342951922574 A 44.89,44.89 0.0 0,0 47.79155898706877,266.46342951922577 C 60.28155898706878,255.9234295192258 74.56155898706878,248.34342951922577 88.93155898706875,240.82342951922578 A 88.06,88.06 0.0 0,0 108.22155898706875,227.8734295192258 A 12.84,12.84 0.0 0,0 112.65155898706875,219.3134295192258 A 82.0,82.0 0.0 0,0 113.08155898706873,206.08342951922577 C 112.77155898706873,200.32342951922578 112.86155898706873,194.5534295192258 112.90155898706873,188.78342951922576 C 112.96155898706873,179.62342951922574 116.61155898706873,171.96342951922577 123.49155898706873,166.73342951922575 C 136.49155898706874,156.84342951922577 147.0915589870687,144.73342951922575 158.18155898706874,132.94342951922573 C 171.87155898706874,118.34342951922571 189.5315589870687,109.13342951922573 208.00155898706873,101.67342951922575 C 216.87155898706874,98.09342951922577 225.13155898706873,93.28342951922576 233.64155898706872,88.99342951922574 C 241.8415589870687,84.85342951922576 245.7815589870687,77.77342951922572 248.07155898706873,69.28342951922576 A 73.17,73.17 0.0 0,0 247.75155898706873,29.843429519225765 C 246.45155898706872,25.143429519225776 245.23155898706875,20.393429519225776 245.13155898706873,15.46342951922577 C 245.06155898706874,11.67342951922575 245.18155898706874,7.873429519225795 246.85155898706876,4.3834295192257855 C 249.12155898706874,-0.3965704807741872 253.85155898706876,-1.3865704807741963 257.85155898706876,2.00342951922579 A 8.67,8.67 0.0 0,1 260.00155898706873,4.50342951922579 C 264.41155898706876,13.273429519225772 272.18155898706874,18.663429519225815 280.18155898706874,23.313429519225792 C 290.0815589870687,29.083429519225774 296.98155898706875,36.623429519225795 300.19155898706873,47.78342951922582 C 302.0315589870687,54.193429519225845 305.3915589870687,58.23342951922581 310.66155898706876,62.463429519225826 C 312.09155898706877,55.10342951922581 313.42155898706875,48.00342951922585 314.87155898706874,40.9334295192258 C 315.62155898706874,37.2434295192258 316.55155898706874,33.583429519225774 317.49155898706874,29.933429519225797 A 17.65,17.65 0.0 0,1 321.68155898706874,22.45342951922578 C 325.68155898706874,18.063429519225792 330.93155898706874,17.163429519225758 336.09155898706877,20.043429519225754 A 19.89,19.89 0.0 0,1 342.8915589870688,26.323429519225726 C 349.8115589870688,36.58342951922572 359.17155898706875,44.43342951922574 368.42155898706875,52.40342951922571 C 374.92155898706875,58.00342951922573 380.35155898706876,64.67342951922569 383.42155898706875,72.51342951922572 C 390.31155898706874,90.11342951922575 401.56155898706874,105.00342951922573 411.7615589870687,120.56342951922574 C 412.8515589870687,122.23342951922575 414.19155898706873,123.75342951922573 415.24155898706874,125.44342951922573 C 417.5715589870687,129.17342951922575 420.8915589870687,131.24342951922574 424.96155898706877,132.98342951922575 A 285.51,285.51 0.0 0,1 479.2415589870688,163.81342951922574 C 498.43155898706885,177.55342951922574 516.2415589870689,192.89342951922572 531.8515589870689,210.6534295192257 C 535.3615589870689,214.6534295192257 538.7515589870688,218.76342951922572 542.0515589870689,222.94342951922573 C 551.2715589870689,234.61342951922575 560.3315589870689,246.4034295192257 570.381558987069,257.3934295192257 A 224.55,224.55 0.0 0,1 594.6915589870688,289.0834295192258 C 604.6915589870688,305.02342951922583 616.5815589870688,319.21342951922577 632.2515589870688,329.9334295192258 A 92.31,92.31 0.0 0,1 648.6815589870688,344.4534295192258 A 25.84,25.84 0.0 0,0 662.8015589870688,352.5834295192258 C 672.8015589870688,354.8034295192258 682.8015589870688,356.86342951922575 693.0515589870688,356.9234295192258 C 704.6915589870688,356.98342951922575 715.8115589870688,360.5434295192258 727.2715589870688,361.9234295192258 C 730.5815589870688,362.3134295192258 733.9215589870688,362.99342951922586 737.2115589870689,362.5334295192258 C 750.3415589870689,360.6834295192258 762.8415589870689,363.8234295192258 775.2115589870689,367.37342951922585 C 793.3615589870689,372.5734295192259 811.8715589870689,373.7034295192259 830.5815589870689,372.89342951922583 A 36.16,36.16 0.0 0,0 837.7815589870689,371.6634295192258 C 869.8815589870687,363.5834295192258 902.2315589870688,357.0834295192258 935.0815589870688,353.0834295192258 C 977.8015589870688,347.96342951922577 1020.5315589870688,347.97342951922576 1063.3515589870688,351.5434295192258 C 1088.5715589870688,353.64342951922583 1113.7015589870687,356.48342951922587 1138.8115589870688,359.5434295192258 C 1179.5715589870688,364.4534295192258 1218.8115589870688,375.5434295192258 1257.1415589870687,389.88342951922584 C 1274.7915589870688,396.4734295192259 1292.3115589870688,403.48342951922587 1310.6615589870687,408.0734295192259 A 63.86,63.86 0.0 0,1 1322.5415589870688,412.36342951922586 C 1343.2115589870689,422.1734295192258 1364.8215589870688,429.6634295192258 1386.1115589870687,437.9134295192258 A 385.27,385.27 0.0 0,1 1425.2815589870688,456.21342951922577 C 1444.1415589870687,466.10342951922576 1463.1315589870687,475.7934295192258 1481.671558987069,486.21342951922577 C 1502.4615589870689,497.9434295192258 1524.671558987069,505.00342951922573 1548.0415589870688,508.96342951922577 C 1568.8615589870687,512.4934295192257 1589.8615589870687,514.2134295192258 1610.8915589870687,515.7234295192258 C 1625.0615589870688,516.7234295192258 1639.2315589870686,517.6334295192257 1653.3015589870688,519.7234295192258 A 50.22,50.22 0.0 0,1 1666.6615589870687,523.6634295192258 A 16.93,16.93 0.0 0,1 1670.1915589870687,525.5134295192258 C 1679.4615589870687,532.8334295192259 1680.5515589870686,540.9734295192259 1669.6615589870687,547.7234295192259 A 29.0,29.0 0.0 0,1 1657.0915589870688,551.7734295192258 C 1650.0215589870688,552.4534295192258 1642.9415589870687,553.5234295192258 1635.8615589870687,553.4934295192259 C 1609.0215589870688,553.4134295192258 1582.1415589870687,554.3234295192259 1555.4315589870687,550.4934295192259 C 1537.8315589870688,547.9534295192259 1520.7215589870686,543.1734295192258 1503.4315589870687,539.2334295192259 C 1474.8615589870687,532.7134295192259 1446.6815589870687,524.8634295192259 1419.3015589870686,514.2334295192259 C 1409.1515589870685,510.3134295192259 1398.5315589870686,507.85342951922587 1387.9315589870687,505.4334295192259 A 9.09,9.09 0.0 0,0 1385.6315589870687,505.5734295192259 A 57.0,57.0 0.0 0,0 1392.3315589870688,520.7934295192259 C 1409.6115589870687,546.7934295192259 1415.4015589870687,576.1834295192259 1417.7915589870688,606.5934295192259 C 1418.7915589870688,619.2034295192259 1419.1315589870687,631.8834295192258 1421.1115589870687,644.3934295192258 C 1423.6915589870687,660.6334295192258 1428.1715589870687,676.3934295192258 1433.0415589870688,692.1134295192259 C 1437.1215589870687,705.2434295192259 1441.6215589870687,718.2334295192259 1445.7915589870688,731.3434295192259 C 1450.1215589870687,744.9834295192259 1451.1615589870687,759.1734295192259 1452.4815589870689,773.343429519226 C 1453.0215589870688,779.093429519226 1453.381558987069,784.863429519226 1454.2215589870689,790.563429519226 A 61.0,61.0 0.0 0,0 1460.5415589870688,810.053429519226 C 1466.7715589870688,822.053429519226 1473.0915589870688,834.053429519226 1477.2815589870688,846.9934295192261 C 1482.9915589870689,864.603429519226 1493.9715589870689,879.2034295192261 1504.0315589870688,894.343429519226 C 1511.5615589870688,905.6634295192259 1521.4015589870687,915.083429519226 1530.1015589870688,925.4434295192259 C 1542.3815589870687,940.0634295192258 1548.5215589870688,956.873429519226 1547.0415589870688,975.843429519226 C 1546.0415589870688,988.9334295192259 1548.3915589870687,1001.4634295192259 1550.5715589870688,1014.123429519226 C 1555.6515589870687,1043.7434295192259 1565.0015589870688,1072.183429519226 1574.1815589870687,1100.703429519226 A 398.37,398.37 0.0 0,1 1587.8215589870688,1159.653429519226 A 65.79,65.79 0.0 0,1 1587.2815589870688,1184.813429519226 C 1586.1515589870687,1189.813429519226 1585.3815589870687,1194.813429519226 1583.931558987069,1199.743429519226 C 1579.411558987069,1214.9534295192261 1569.401558987069,1224.553429519226 1553.601558987069,1227.013429519226 C 1543.751558987069,1228.543429519226 1533.921558987069,1230.073429519226 1524.111558987069,1231.883429519226 C 1512.111558987069,1234.093429519226 1500.621558987069,1232.203429519226 1491.181558987069,1223.433429519226 A 13.5,13.5 0.0 0,0 1485.9715589870689,1220.5534295192258 C 1478.2215589870689,1218.0634295192258 1474.9715589870689,1212.2234295192259 1473.8215589870688,1204.6234295192257 C 1471.8215589870688,1191.6234295192257 1476.4815589870689,1180.6234295192257 1483.9015589870687,1170.4934295192256 A 66.58,66.58 0.0 0,1 1494.5215589870686,1159.4934295192256 C 1499.0615589870686,1155.5934295192255 1503.7015589870687,1151.8034295192256 1507.6115589870685,1147.2034295192257 A 9.58,9.58 0.0 0,0 1509.9715589870684,1139.3034295192256 A 323.94,323.94 0.0 0,0 1489.2315589870684,1054.8934295192255 C 1478.4815589870684,1027.5834295192255 1462.5915589870683,1003.3434295192255 1444.2315589870684,980.6134295192255 C 1433.2315589870684,966.9634295192254 1422.2915589870684,953.2534295192256 1411.0315589870684,939.8234295192256 C 1403.9015589870683,931.3234295192256 1396.2515589870684,923.2634295192256 1388.7815589870684,915.0534295192256 C 1387.3115589870683,913.4334295192257 1385.6215589870683,912.0534295192256 1384.0815589870683,910.5334295192256 C 1381.5515589870683,912.0834295192255 1381.8015589870683,914.5334295192256 1381.3215589870683,916.6034295192255 A 36.72,36.72 0.0 0,1 1372.3215589870683,933.4834295192256 C 1367.3215589870683,938.8034295192256 1364.2615589870684,945.0734295192256 1361.6615589870682,951.7334295192256 A 154.6,154.6 0.0 0,0 1355.2415589870682,972.0234295192256 C 1350.2415589870682,992.7034295192257 1341.3815589870683,1011.7334295192256 1331.601558987068,1030.4734295192256 C 1323.811558987068,1045.4134295192257 1315.7715589870681,1060.2334295192256 1309.681558987068,1076.0134295192256 C 1306.861558987068,1083.3334295192255 1303.451558987068,1090.7734295192256 1295.681558987068,1093.8234295192256 C 1287.681558987068,1096.9334295192255 1279.681558987068,1100.4834295192256 1270.801558987068,1100.2734295192256 A 64.38,64.38 0.0 0,0 1261.481558987068,1100.5234295192256 C 1249.401558987068,1101.9634295192257 1237.6015589870678,1101.3034295192256 1226.0815589870679,1096.9334295192257 C 1223.0815589870679,1095.7834295192256 1219.5715589870679,1095.6034295192258 1216.271558987068,1095.2634295192256 A 24.11,24.11 0.0 0,1 1202.911558987068,1089.8134295192256 C 1198.161558987068,1085.8134295192256 1196.571558987068,1081.1234295192255 1197.341558987068,1074.5334295192256 C 1198.7915589870681,1062.1234295192255 1205.9915589870682,1055.0734295192256 1216.461558987068,1050.1934295192257 A 107.33,107.33 0.0 0,1 1243.051558987068,1041.8434295192258 C 1252.1315589870678,1040.2034295192257 1260.6415589870678,1037.2734295192258 1267.801558987068,1031.1634295192257 A 16.38,16.38 0.0 0,0 1272.1215589870678,1026.1634295192257 C 1282.281558987068,1006.3734295192257 1287.5915589870679,985.1634295192257 1290.771558987068,963.2934295192258 A 14.7,14.7 0.0 0,0 1290.171558987068,958.0534295192258 C 1287.941558987068,947.0534295192258 1283.721558987068,936.8634295192257 1278.581558987068,926.9834295192259 C 1275.201558987068,920.4834295192259 1272.0515589870681,913.873429519226 1268.581558987068,907.4434295192259 C 1262.581558987068,896.4434295192259 1255.701558987068,886.383429519226 1245.441558987068,878.6934295192259 C 1231.581558987068,868.3034295192258 1219.161558987068,856.1734295192259 1206.681558987068,844.1834295192259 C 1198.011558987068,835.843429519226 1191.741558987068,825.4734295192259 1184.241558987068,816.133429519226 C 1171.871558987068,800.7234295192259 1159.771558987068,785.133429519226 1149.121558987068,768.4434295192259 C 1140.0115589870682,754.1734295192259 1133.361558987068,738.643429519226 1125.971558987068,723.4434295192259 C 1121.501558987068,714.2734295192259 1117.101558987068,705.0734295192259 1112.101558987068,696.1634295192259 C 1110.2315589870682,692.8234295192259 1108.321558987068,692.0334295192259 1104.661558987068,693.1634295192259 C 1093.821558987068,696.4134295192259 1082.931558987068,699.503429519226 1071.5515589870681,700.2734295192259 C 1069.7815589870681,700.393429519226 1068.0115589870682,700.763429519226 1066.2515589870682,700.743429519226 C 1048.4915589870682,700.483429519226 1030.7515589870682,701.9034295192259 1012.9815589870682,701.333429519226 C 1001.3215589870681,700.963429519226 990.0415589870681,703.423429519226 979.1615589870682,707.573429519226 A 25.12,25.12 0.0 0,0 974.0115589870682,710.573429519226 C 955.5715589870681,723.353429519226 937.7515589870682,736.823429519226 921.2315589870682,752.133429519226 A 350.0,350.0 0.0 0,1 855.5015589870682,800.6834295192259 C 841.9515589870682,808.323429519226 827.5015589870682,814.0134295192258 813.4415589870682,820.6834295192259 C 806.0315589870683,824.1934295192259 798.5515589870682,827.593429519226 791.0615589870682,830.9334295192259 C 789.5015589870683,831.633429519226 788.4115589870682,832.2734295192258 788.6015589870682,834.2534295192258 C 790.0015589870682,848.8534295192258 788.3715589870682,863.5834295192258 790.2615589870682,878.1234295192257 A 288.76,288.76 0.0 0,0 804.4915589870682,938.2434295192256 A 137.56,137.56 0.0 0,1 812.4915589870682,977.1834295192257 A 261.0,261.0 0.0 0,0 818.1515589870681,1019.3334295192258 C 821.0815589870681,1032.5534295192258 821.8915589870682,1046.1334295192257 824.8515589870682,1059.3334295192258 C 825.9615589870682,1064.3334295192258 826.9315589870682,1069.3334295192258 828.8515589870682,1074.0934295192258 C 833.2615589870682,1085.1534295192257 835.0515589870682,1096.7534295192258 835.9015589870681,1108.5134295192258 C 836.6415589870682,1118.7534295192258 839.3015589870681,1128.643429519226 841.3815589870682,1138.5934295192258 C 843.4615589870682,1148.5434295192256 840.5715589870682,1156.5234295192258 834.9615589870682,1164.0734295192258 A 89.57,89.57 0.0 0,1 826.6215589870682,1173.5734295192258 C 819.8715589870682,1180.3734295192257 816.8915589870682,1188.7534295192258 815.7115589870682,1198.0134295192258 C 813.6315589870682,1214.3834295192257 813.8715589870682,1230.8334295192258 814.6015589870682,1247.2334295192259 C 815.1415589870682,1259.423429519226 812.2915589870682,1271.0234295192258 810.2315589870682,1282.8034295192258 C 809.7215589870682,1285.8034295192258 807.6615589870681,1287.9734295192259 806.0015589870682,1290.2734295192258 C 800.2815589870681,1298.2734295192258 793.8815589870682,1305.403429519226 784.8115589870681,1309.953429519226 C 776.2815589870681,1314.2234295192259 768.0715589870681,1319.103429519226 758.5015589870682,1320.833429519226 C 753.4215589870681,1321.763429519226 748.3715589870682,1322.063429519226 743.3415589870682,1320.623429519226 A 15.77,15.77 0.0 0,0 731.6815589870682,1321.543429519226 C 731.2815589870683,1321.733429519226 730.8015589870682,1321.763429519226 730.4215589870682,1321.973429519226 C 717.6815589870682,1328.813429519226 705.2815589870683,1327.523429519226 693.0015589870683,1320.6134295192262 C 690.9115589870682,1319.4234295192261 688.4115589870682,1318.9934295192263 686.1515589870683,1318.0734295192262 C 676.5015589870683,1314.0734295192262 671.7415589870683,1304.9634295192263 674.3315589870682,1294.9134295192262 C 675.8815589870682,1288.9134295192262 677.8715589870682,1283.0434295192263 679.3315589870682,1277.003429519226 C 680.8315589870682,1270.783429519226 685.0015589870682,1266.083429519226 689.7715589870683,1261.9034295192262 C 698.1615589870682,1254.5434295192263 707.8715589870683,1249.0834295192262 716.8715589870683,1242.5934295192262 C 718.3015589870682,1241.5934295192262 719.7815589870683,1240.5934295192262 721.1615589870682,1239.4434295192261 C 727.3015589870682,1234.4434295192261 731.8015589870682,1228.723429519226 733.7415589870683,1220.553429519226 C 738.3415589870683,1201.143429519226 744.5415589870682,1182.123429519226 747.1015589870683,1162.223429519226 A 43.31,43.31 0.0 0,0 743.1015589870683,1137.073429519226 A 299.33,299.33 0.0 0,1 717.1015589870683,1050.073429519226 A 127.84,127.84 0.0 0,0 702.0815589870683,1005.6634295192259 C 692.8515589870683,989.143429519226 686.2715589870684,971.4734295192259 679.8815589870683,953.7134295192259 C 674.1015589870683,937.643429519226 668.4915589870683,921.4934295192259 661.9915589870683,905.7134295192259 C 655.6215589870683,890.2634295192258 647.3615589870683,875.8134295192258 634.6915589870683,864.383429519226 C 631.2215589870683,861.2634295192261 628.4515589870683,857.4734295192259 625.5815589870683,853.793429519226 C 623.4015589870684,850.9934295192261 621.0415589870684,848.343429519226 618.7915589870684,845.593429519226 C 610.8815589870684,836.0134295192261 600.5015589870684,831.1834295192259 588.3615589870684,829.583429519226 L 588.3615589870687,829.5834295192258"/>
</svg>
