<?xml version="1.0" ?>
<svg xmlns="http://www.w3.org/2000/svg" xmlns:ev="http://www.w3.org/2001/xml-events" xmlns:xlink="http://www.w3.org/1999/xlink" baseProfile="full" data-name="Layer 1" height="1678" transform="scale(0.07230657989877079 0.07230657989877079) translate(-691.5 -839.0)" version="1.1" viewBox="0 0 1383 1678" width="1383">
	<defs/>
	<path d="M 1105.7885459088484,1046.718031799057 C 1104.4285459088485,1050.948031799057 1104.7885459088484,1054.908031799057 1105.1585459088483,1058.718031799057 C 1106.3885459088483,1072.618031799057 1104.3685459088483,1086.228031799057 1101.8385459088483,1099.7980317990568 C 1099.8385459088483,1110.5180317990569 1097.4985459088484,1121.188031799057 1095.3285459088484,1131.8880317990568 C 1092.6385459088483,1145.1480317990568 1089.4485459088482,1158.2980317990568 1084.7385459088484,1170.9880317990567 C 1075.1885459088485,1196.6980317990567 1070.2385459088484,1223.5580317990566 1064.6285459088485,1250.2580317990567 A 217.0,217.0 0.0 0,1 1056.7985459088486,1278.7980317990566 C 1053.1985459088487,1288.7980317990566 1047.5085459088486,1297.3880317990565 1037.7985459088486,1302.6080317990566 C 1031.1585459088485,1306.1680317990565 1024.5785459088486,1309.8480317990566 1017.7985459088486,1313.1580317990565 A 40.0,40.0 0.0 0,1 1001.2185459088486,1317.0980317990566 A 244.67,244.67 0.0 0,0 970.2185459088486,1320.0080317990567 C 963.7585459088485,1321.0080317990567 957.2185459088486,1321.0080317990567 950.7785459088485,1321.2080317990567 A 27.44,27.44 0.0 0,1 933.1385459088485,1316.1180317990568 A 17.67,17.67 0.0 0,0 925.2785459088485,1313.1180317990568 C 913.4785459088486,1311.1980317990567 906.7885459088485,1301.5280317990569 909.6285459088485,1289.7880317990569 A 69.79,69.79 0.0 0,1 938.0185459088485,1248.188031799057 C 945.1785459088485,1243.188031799057 951.4285459088485,1237.618031799057 956.0185459088485,1230.188031799057 C 959.7285459088486,1224.188031799057 965.0185459088485,1219.408031799057 969.7985459088485,1214.3080317990568 A 64.19,64.19 0.0 0,0 981.9085459088485,1196.3080317990568 C 984.0485459088485,1191.488031799057 985.6885459088485,1186.478031799057 985.1185459088485,1181.208031799057 C 982.7185459088486,1158.718031799057 982.2385459088486,1136.108031799057 980.4485459088486,1113.588031799057 C 980.2185459088486,1110.7480317990571 979.3085459088486,1107.958031799057 979.0885459088486,1105.118031799057 C 978.7085459088486,1100.188031799057 976.5885459088486,1096.358031799057 973.0885459088486,1092.838031799057 C 968.3385459088486,1088.048031799057 963.8785459088485,1082.938031799057 959.6085459088486,1077.698031799057 A 50.83,50.83 0.0 0,0 940.6085459088486,1063.0580317990568 A 177.39,177.39 0.0 0,1 921.9485459088486,1053.3480317990568 C 911.6485459088486,1047.238031799057 901.1485459088486,1041.6480317990568 889.7685459088486,1037.6780317990567 C 881.1185459088487,1034.6780317990567 873.6885459088486,1029.2280317990567 866.3285459088486,1023.8480317990567 A 37.42,37.42 0.0 0,0 854.5285459088486,1018.0080317990567 C 851.4485459088486,1017.1080317990567 849.7785459088486,1017.8280317990567 848.2085459088486,1020.5380317990566 C 845.4685459088486,1025.2580317990567 842.2085459088486,1029.6980317990567 839.4485459088486,1034.3780317990565 C 829.0685459088486,1051.7380317990564 815.8385459088486,1066.7180317990565 800.8685459088485,1080.1580317990565 A 178.48,178.48 0.0 0,0 768.8685459088485,1117.2380317990564 C 758.8685459088485,1133.0580317990564 743.5185459088485,1143.2380317990564 727.7185459088486,1152.3780317990565 C 711.3185459088486,1161.8780317990565 694.4985459088485,1170.6780317990565 677.2185459088486,1178.5680317990566 C 669.8385459088486,1181.9380317990565 662.0885459088486,1184.0780317990566 654.5085459088485,1186.7780317990566 A 23.73,23.73 0.0 0,0 643.5085459088485,1194.9080317990567 C 631.8885459088485,1209.5580317990568 625.8985459088485,1226.1480317990568 622.5085459088485,1244.5080317990567 A 359.46,359.46 0.0 0,0 616.8085459088485,1320.5080317990567 C 617.1285459088485,1332.3280317990566 614.4585459088485,1343.7580317990567 613.1385459088485,1355.3680317990566 C 610.4985459088485,1378.6080317990566 607.3085459088485,1401.7880317990566 604.9785459088486,1425.0580317990566 C 603.7085459088486,1437.7480317990567 604.8485459088486,1450.5480317990566 606.3585459088486,1463.2080317990567 A 155.0,155.0 0.0 0,1 607.0085459088485,1492.0180317990566 A 425.17,425.17 0.0 0,0 607.0085459088485,1554.3480317990566 C 608.1585459088485,1568.8580317990566 609.2585459088485,1583.4080317990565 609.7685459088485,1597.9180317990565 A 109.45,109.45 0.0 0,1 604.3785459088485,1636.2980317990566 C 602.3785459088485,1642.3980317990565 598.5385459088485,1647.1080317990566 593.4785459088486,1651.1280317990565 C 582.7685459088485,1659.6280317990565 570.5385459088485,1664.3180317990566 557.1585459088485,1666.1280317990565 A 335.13,335.13 0.0 0,0 515.1585459088485,1674.8180317990566 C 500.00854590884853,1678.8180317990566 485.8985459088485,1677.8180317990566 472.3685459088485,1669.6780317990565 A 33.6,33.6 0.0 0,0 456.1085459088485,1664.6780317990565 C 440.4285459088485,1664.1480317990565 430.9485459088485,1647.6780317990565 434.8185459088485,1633.8480317990566 C 439.1785459088485,1618.2380317990567 446.46854590884845,1604.3580317990566 460.21854590884845,1594.7680317990566 C 468.01854590884847,1589.3280317990566 473.3785459088485,1581.6080317990566 479.58854590884846,1574.6080317990566 C 494.0585459088485,1558.3180317990566 503.08854590884846,1539.1980317990565 510.3785459088485,1519.0280317990566 C 514.2585459088485,1508.2780317990566 514.3785459088485,1497.0280317990566 514.5085459088485,1485.8780317990565 C 514.7985459088485,1464.3080317990566 515.3085459088485,1442.7080317990565 514.0985459088486,1421.1280317990565 C 513.5685459088486,1411.5180317990566 514.5585459088486,1401.9080317990565 514.2685459088485,1392.2680317990566 C 513.7285459088486,1374.7780317990566 509.92854590884855,1357.7180317990567 507.99854590884854,1340.4280317990567 C 506.99854590884854,1331.6480317990568 505.65854590884857,1322.8980317990568 504.0785459088485,1314.2080317990567 C 501.5285459088485,1300.1080317990568 496.0785459088485,1287.3380317990568 485.61854590884855,1277.1280317990568 A 49.6,49.6 0.0 0,0 465.79854590884855,1265.1280317990568 C 450.42854590884855,1260.1980317990567 435.18854590884854,1254.9380317990567 422.73854590884855,1243.9480317990567 C 419.79854590884855,1241.3580317990568 416.00854590884853,1239.9480317990567 412.24854590884854,1238.9480317990567 C 404.36854590884855,1236.7580317990567 399.40854590884857,1238.6780317990567 394.86854590884855,1245.5880317990568 A 55.38,55.38 0.0 0,0 385.86854590884855,1270.2980317990568 A 228.5,228.5 0.0 0,1 380.86854590884855,1298.688031799057 C 373.56854590884853,1329.3080317990568 368.86854590884855,1360.388031799057 363.56854590884853,1391.388031799057 C 359.97854590884856,1412.318031799057 360.3885459088485,1432.518031799057 363.48854590884855,1453.268031799057 C 366.23854590884855,1471.7380317990571 367.68854590884854,1490.4880317990571 366.61854590884855,1509.268031799057 C 365.61854590884855,1526.268031799057 362.00854590884853,1542.618031799057 354.22854590884856,1558.028031799057 C 347.56854590884853,1571.2280317990571 337.31854590884853,1580.298031799057 324.31854590884853,1586.4980317990571 A 67.49,67.49 0.0 0,1 293.42854590884855,1593.4980317990571 A 140.08,140.08 0.0 0,0 257.1485459088485,1597.8980317990572 C 239.7685459088485,1602.1380317990572 223.5685459088485,1599.8980317990572 209.65854590884848,1587.6380317990572 A 20.09,20.09 0.0 0,0 203.04854590884847,1583.6380317990572 C 188.92854590884846,1578.5780317990573 182.96854590884848,1568.2880317990573 186.33854590884846,1553.7180317990571 C 190.21854590884845,1536.9680317990571 197.64854590884846,1521.9080317990572 209.85854590884847,1509.548031799057 C 217.10854590884847,1502.1980317990572 222.57854590884847,1494.048031799057 225.47854590884847,1483.918031799057 C 229.32854590884847,1470.448031799057 235.20854590884846,1457.578031799057 236.94854590884847,1443.488031799057 C 239.06854590884848,1426.488031799057 240.94854590884847,1409.398031799057 243.60854590884847,1392.488031799057 C 247.40854590884848,1368.3280317990568 249.05854590884846,1343.928031799057 252.06854590884848,1319.678031799057 A 166.3,166.3 0.0 0,0 252.96854590884848,1295.5280317990569 C 252.46854590884848,1273.5880317990568 254.96854590884848,1251.908031799057 258.12854590884854,1230.2880317990569 A 117.35,117.35 0.0 0,0 259.36854590884855,1209.2880317990569 C 258.84854590884856,1193.178031799057 258.21854590884857,1177.0680317990568 257.60854590884855,1160.958031799057 C 257.50854590884853,1158.368031799057 257.46854590884857,1155.7880317990569 256.02854590884857,1153.428031799057 C 245.55854590884854,1136.2980317990568 238.89854590884855,1117.248031799057 229.02854590884854,1099.828031799057 C 214.73854590884855,1074.648031799057 203.34854590884854,1048.178031799057 193.43854590884854,1021.0280317990571 A 120.2,120.2 0.0 0,0 187.43854590884854,1007.4780317990571 C 176.96854590884854,987.0480317990572 169.18854590884854,965.5780317990572 162.43854590884854,943.6680317990572 C 159.15854590884854,932.9880317990572 155.73854590884855,922.3180317990572 151.69854590884853,911.9080317990572 A 184.0,184.0 0.0 0,1 140.03854590884853,866.7580317990572 C 137.93854590884854,848.8980317990572 131.57854590884853,831.9080317990572 128.73854590884852,814.1880317990572 C 124.45854590884854,787.5180317990572 117.93854590884854,761.1180317990571 117.96854590884854,733.8980317990572 C 117.96854590884854,714.3980317990572 117.96854590884854,694.8980317990572 118.74854590884854,675.3880317990572 C 119.86854590884855,648.1080317990572 120.22854590884855,620.7880317990572 121.53854590884855,593.5180317990572 C 123.07854590884855,561.7280317990572 128.94854590884853,530.5180317990572 136.69854590884853,499.73803179905724 C 140.25854590884853,485.58803179905726 141.21854590884854,471.64803179905726 138.08854590884852,457.32803179905727 C 135.8485459088485,447.1180317990573 137.08854590884852,436.57803179905727 135.9985459088485,426.22803179905725 A 64.0,64.0 0.0 0,0 129.8785459088485,403.79803179905724 A 16.08,16.08 0.0 0,0 119.72854590884852,394.97803179905725 C 103.86854590884852,389.92803179905724 88.03854590884852,384.97803179905725 71.72854590884852,381.53803179905725 C 56.38854590884851,378.28803179905725 44.628545908848515,369.82803179905727 38.988545908848515,354.47803179905725 C 36.668545908848515,348.1380317990573 34.43854590884852,341.74803179905723 32.528545908848514,335.27803179905726 A 24.56,24.56 0.0 0,0 25.528545908848514,323.41803179905725 C 17.428545908848513,316.10803179905724 11.528545908848512,307.41803179905725 9.058545908848513,296.58803179905726 A 30.27,30.27 0.0 0,0 5.558545908848513,288.78803179905725 C 2.9485459088484576,284.17803179905684 1.6685459088484573,279.2080317990568 0.6685459088484574,274.0680317990568 C -1.7914540911515426,261.3280317990568 2.6685459088484573,250.99803179905683 11.888545908848458,242.58803179905686 C 21.108545908848463,234.17803179905684 30.88854590884846,226.29803179905684 41.62854590884846,219.91803179905685 C 57.16854590884846,210.70803179905687 70.97854590884846,199.40803179905686 83.97854590884846,186.91803179905685 A 31.54,31.54 0.0 0,0 93.87854590884847,164.80803179905683 C 94.38854590884847,155.07803179905687 92.49854590884847,145.64803179905687 89.39854590884846,136.46803179905686 C 87.14854590884846,129.78803179905685 85.06854590884846,123.11803179905685 85.50854590884846,115.91803179905685 A 12.89,12.89 0.0 0,0 84.88854590884846,111.30803179905685 C 81.14854590884846,99.85803179905685 83.16854590884846,88.66803179905685 86.33854590884846,77.55803179905685 A 205.62,205.62 0.0 0,1 101.99854590884846,37.718031799056845 C 105.99854590884846,30.038031799056846 111.70854590884845,24.338031799056843 119.80854590884846,21.048031799056844 C 128.70854590884844,17.418031799056845 137.51854590884844,13.558031799056844 146.43854590884845,9.968031799056844 C 156.43854590884845,5.968031799056844 166.79854590884847,6.238031799056843 177.20854590884846,7.528031799056844 C 188.85854590884847,8.978031799056843 200.44854590884847,9.628031799056844 212.14854590884846,7.528031799056844 C 219.14854590884846,6.268031799056844 226.14854590884846,7.528031799056844 232.88854590884847,9.838031799056845 A 41.0,41.0 0.0 0,0 247.44854590884844,12.058031799056849 C 267.20854590884846,11.588031799056848 286.96854590884845,11.43803179905685 306.6785459088485,13.348031799056848 A 3.23,3.23 0.0 0,1 307.4485459088485,13.348031799056848 C 319.3085459088485,17.208031799056847 329.9385459088485,13.228031799056849 340.39854590884846,8.218031799056849 A 82.75,82.75 0.0 0,1 383.59854590884845,0.31803179905684864 C 395.65854590884845,1.3180317990568486 407.04854590884844,5.018031799056849 418.26854590884847,9.078031799056848 C 428.33854590884846,12.718031799056849 438.4285459088485,15.998031799056848 449.1185459088485,17.07803179905685 C 459.9985459088485,18.07803179905685 469.7785459088485,22.26803179905685 478.9685459088485,27.778031799056848 A 269.69,269.69 0.0 0,0 516.7285459088486,46.30803179905685 C 522.9785459088486,48.82803179905685 528.9985459088485,51.95803179905685 535.0985459088486,54.86803179905685 C 550.4285459088486,62.17803179905685 561.4185459088486,74.03803179905685 570.1985459088486,88.26803179905686 C 573.0885459088486,92.95803179905685 574.0485459088486,97.58803179905685 572.3185459088486,103.08803179905685 A 100.0,100.0 0.0 0,1 565.1185459088485,120.31803179905685 Q 556.2685459088485,136.82803179905687 549.0385459088485,154.09803179905686 C 542.6685459088485,169.33803179905686 530.9285459088485,179.94803179905688 518.2285459088486,189.62803179905688 A 59.26,59.26 0.0 0,0 509.22854590884856,198.14803179905687 C 500.28854590884856,208.46803179905686 498.8385459088486,217.6780317990569 505.48854590884855,229.6080317990569 C 510.41854590884856,238.4780317990569 514.8585459088486,247.5580317990569 519.3685459088485,256.6080317990569 C 525.2585459088485,268.4680317990569 533.6685459088485,277.8580317990569 545.6485459088485,284.4080317990569 C 555.9385459088485,290.0280317990569 566.2685459088485,295.4080317990569 577.2185459088486,299.5480317990569 A 54.29,54.29 0.0 0,1 587.7285459088486,304.6480317990569 C 603.4285459088486,314.9580317990569 620.4585459088486,322.80803179905695 637.2385459088486,331.05803179905695 C 652.5185459088485,338.56803179905694 665.3085459088486,348.6480317990569 675.2385459088486,362.57803179905693 C 685.1685459088485,376.50803179905694 698.1485459088485,387.3480317990569 712.6285459088485,396.38803179905693 C 721.0085459088485,401.62803179905694 729.3385459088486,406.92803179905695 737.3085459088485,412.7880317990569 A 62.76,62.76 0.0 0,0 756.7285459088484,422.4180317990569 C 767.4485459088485,425.5680317990569 778.2385459088484,428.4680317990569 788.9885459088484,431.5180317990569 C 803.8585459088484,435.73803179905696 818.4785459088484,432.5180317990569 832.8685459088484,429.3380317990569 C 857.0285459088484,423.9280317990569 879.5485459088484,413.4280317990569 902.8685459088484,405.3380317990569 C 920.0485459088484,399.38803179905693 936.6385459088484,391.74803179905695 954.3085459088484,387.2280317990569 A 130.76,130.76 0.0 0,1 982.0285459088484,383.1480317990569 C 1001.3485459088485,382.4580317990569 1020.0285459088484,377.4080317990569 1039.0285459088484,374.56803179905694 C 1065.2985459088484,370.6480317990569 1091.6985459088485,368.31803179905694 1118.2685459088484,368.81803179905694 A 121.86,121.86 0.0 0,1 1174.9685459088485,384.03803179905697 C 1189.5785459088484,392.03803179905697 1204.1785459088485,400.03803179905697 1216.8785459088485,410.98803179905696 A 51.22,51.22 0.0 0,1 1231.6685459088485,432.648031799057 A 40.89,40.89 0.0 0,0 1241.8785459088485,449.028031799057 C 1253.4285459088485,459.92803179905695 1263.0485459088486,472.60803179905696 1274.2485459088484,483.868031799057 C 1280.5785459088484,490.228031799057 1285.2485459088484,498.358031799057 1289.4185459088485,506.458031799057 A 333.48,333.48 0.0 0,0 1308.7985459088486,538.4580317990569 C 1318.3385459088486,552.7380317990569 1325.9585459088487,568.158031799057 1332.7985459088486,583.928031799057 C 1337.6285459088485,595.148031799057 1341.7985459088486,606.668031799057 1346.7285459088487,617.8280317990569 A 157.38,157.38 0.0 0,1 1360.3185459088486,670.418031799057 C 1361.9285459088485,691.688031799057 1365.6985459088487,712.6980317990569 1370.0385459088486,733.5780317990569 A 404.25,404.25 0.0 0,1 1378.1385459088485,810.2480317990569 C 1378.4585459088485,831.8680317990569 1380.6185459088485,853.3280317990569 1382.0085459088484,874.8580317990569 A 145.88,145.88 0.0 0,1 1379.2085459088485,912.8580317990569 A 287.52,287.52 0.0 0,1 1370.4185459088485,945.188031799057 C 1368.2485459088484,951.898031799057 1365.6785459088485,958.4780317990569 1361.4185459088485,964.188031799057 C 1347.2285459088484,983.258031799057 1336.9085459088485,1004.6180317990569 1325.0885459088486,1025.098031799057 C 1323.4085459088485,1028.028031799057 1321.9485459088485,1031.168031799057 1319.8185459088486,1033.7380317990571 C 1313.5385459088486,1041.298031799057 1312.1285459088485,1049.848031799057 1313.2485459088487,1059.318031799057 A 250.28,250.28 0.0 0,0 1317.1885459088487,1084.7280317990571 C 1321.8985459088487,1105.7280317990571 1322.1885459088487,1127.1680317990572 1320.5285459088486,1148.4080317990572 C 1318.9285459088487,1168.9280317990572 1322.5285459088486,1188.1380317990572 1329.3985459088485,1207.2180317990571 C 1335.5185459088484,1224.298031799057 1343.1785459088485,1240.9880317990571 1344.7485459088484,1259.4280317990572 C 1345.2785459088484,1265.6380317990572 1345.7485459088484,1271.8580317990572 1346.2185459088485,1278.0780317990573 C 1347.0385459088484,1289.2280317990574 1347.8085459088484,1300.3780317990572 1348.6585459088485,1311.5180317990573 A 57.41,57.41 0.0 0,1 1336.4685459088485,1352.3880317990572 C 1328.7385459088484,1362.3880317990572 1318.5785459088484,1367.8380317990573 1306.0085459088484,1369.3180317990573 A 299.22,299.22 0.0 0,0 1269.1385459088485,1375.6180317990572 C 1265.0385459088486,1376.6180317990572 1260.8285459088486,1376.3380317990573 1256.7085459088485,1375.8080317990573 C 1246.7085459088485,1374.5080317990573 1236.5585459088484,1373.8980317990572 1226.9885459088484,1369.9880317990574 C 1217.4185459088485,1366.0780317990575 1212.3185459088484,1358.7880317990573 1211.1185459088485,1348.6780317990574 C 1210.1185459088485,1339.9680317990574 1210.9985459088487,1331.5180317990573 1215.2885459088486,1323.6780317990574 Q 1224.6785459088487,1306.5880317990575 1234.1885459088487,1289.5780317990575 C 1234.9385459088487,1288.2180317990576 1235.8585459088488,1286.9480317990574 1236.7185459088487,1285.6480317990574 C 1243.8985459088487,1274.8180317990575 1247.1885459088487,1263.3580317990575 1244.2585459088486,1250.1780317990574 C 1242.1185459088485,1240.5380317990573 1241.8985459088487,1230.5480317990573 1242.0785459088486,1220.6580317990574 C 1242.5285459088486,1196.3280317990575 1236.4285459088485,1173.2880317990575 1228.4185459088485,1150.6580317990574 C 1224.2385459088484,1138.8480317990575 1215.9585459088485,1129.6580317990574 1207.5885459088486,1120.7780317990573 A 175.69,175.69 0.0 0,1 1189.3385459088486,1098.5180317990573 C 1182.7085459088485,1088.6680317990574 1173.3385459088486,1081.4380317990574 1163.2385459088487,1075.4280317990574 C 1151.6185459088488,1068.5180317990573 1139.6385459088488,1062.2480317990573 1128.2385459088487,1054.9880317990574 A 58.15,58.15 0.0 0,0 1105.7885459088486,1046.7180317990574 L 1105.7885459088484,1046.718031799057"/>
</svg>
