<?xml version="1.0" ?>
<svg xmlns="http://www.w3.org/2000/svg" xmlns:ev="http://www.w3.org/2001/xml-events" xmlns:xlink="http://www.w3.org/1999/xlink" baseProfile="full" data-name="Layer 1" height="1308" transform="scale(0.0764525993883792 0.0764525993883792) translate(-846.5 -654.0)" version="1.1" viewBox="0 0 1693 1308" width="1693">
	<defs/>
	<path d="M 160.12151984440746,394.65805981769944 C 153.69151984440745,398.37805981769947 147.32151984440745,402.1880598176994 140.84151984440746,405.8080598176994 C 124.74151984440746,414.8080598176994 108.12151984440746,422.59805981769944 90.22151984440745,427.3880598176994 C 77.90151984440746,430.6880598176994 65.27151984440745,431.2380598176994 52.65151984440745,431.1780598176994 C 45.48151984440745,431.1780598176994 38.81151984440746,428.46805981769944 32.71151984440745,424.7380598176994 A 88.64,88.64 0.0 0,0 21.381519844407453,418.7380598176994 A 40.92,40.92 0.0 0,1 2.2015198444074566,401.3580598176994 C -0.7984801555925434,396.26805981769945 -0.6684801555925435,391.1880598176994 2.2015198444074566,386.1280598176994 A 35.53,35.53 0.0 0,1 8.041519844407455,378.4980598176994 C 14.601519844407454,372.0480598176994 21.291519844407457,365.6980598176994 28.851519844407456,360.40805981769944 A 60.0,60.0 0.0 0,0 42.02151984440745,348.26805981769945 C 50.90151984440745,336.9880598176995 62.37151984440745,328.77805981769944 74.18151984440745,320.9880598176994 A 255.56,255.56 0.0 0,0 95.58151984440744,305.6880598176994 C 107.02151984440744,296.3380598176994 114.99151984440743,284.6880598176994 117.13151984440744,269.6880598176994 C 117.74151984440743,265.4580598176994 118.26151984440743,261.2080598176994 118.66151984440744,256.9480598176994 A 48.4,48.4 0.0 0,1 126.95151984440744,234.3180598176994 C 137.31151984440746,218.77805981769941 148.18151984440743,203.73805981769942 163.22151984440745,192.2180598176994 A 48.2,48.2 0.0 0,0 169.50151984440745,185.80805981769942 A 29.73,29.73 0.0 0,0 177.50151984440745,168.07805981769943 C 178.50151984440745,157.37805981769944 179.50151984440745,146.83805981769942 176.39151984440744,136.26805981769942 A 55.23,55.23 0.0 0,1 174.39151984440744,122.96805981769944 C 173.83151984440744,109.57805981769944 169.19151984440745,97.41805981769944 163.31151984440743,85.71805981769944 C 157.63151984440742,74.42805981769943 152.71151984440743,62.818059817699435 147.74151984440743,51.22805981769943 A 98.46,98.46 0.0 0,1 142.54151984440745,34.05805981769943 A 13.0,13.0 0.0 0,1 142.22151984440745,30.23805981769943 C 142.74151984440746,23.84805981769943 148.29151984440745,21.02805981769943 153.78151984440746,24.38805981769943 A 27.07,27.07 0.0 0,1 161.39151984440747,32.118059817699425 C 168.24151984440746,41.70805981769943 175.66151984440748,50.838059817699424 183.19151984440748,59.88805981769942 C 186.45151984440747,63.79805981769942 189.75151984440748,67.69805981769943 193.85151984440748,70.47805981769943 A 1.6,1.6 0.0 0,0 195.13151984440748,68.84805981769944 Q 195.52151984440746,46.728059817699425 195.8715198444075,24.58805981769943 C 195.9615198444075,18.96805981769943 197.6715198444075,13.638059817699432 199.01151984440747,8.26805981769943 A 13.5,13.5 0.0 0,1 201.48151984440747,3.798059817699432 C 204.67151984440747,-0.491940182300568 207.99151984440746,-1.1319401823005677 212.57151984440748,1.798059817699432 A 40.36,40.36 0.0 0,1 226.08151984440747,16.98805981769943 C 235.99151984440746,35.42805981769943 249.16151984440748,51.41805981769943 262.9115198444075,66.98805981769944 Q 281.3815198444075,87.98805981769944 299.7415198444075,108.98805981769944 A 86.35,86.35 0.0 0,1 312.7415198444075,129.5680598176994 A 84.0,84.0 0.0 0,0 331.5415198444075,156.08805981769942 C 341.2115198444075,165.08805981769942 345.4415198444075,176.45805981769942 346.1115198444075,189.29805981769942 C 346.3715198444075,194.40805981769944 348.6715198444075,197.82805981769943 353.0215198444075,199.9680598176994 C 376.76151984440753,211.6280598176994 397.0815198444075,228.7180598176994 419.6615198444075,242.16805981769943 C 450.9215198444075,260.78805981769943 477.9115198444075,284.90805981769944 505.9515198444075,307.6880598176994 A 144.0,144.0 0.0 0,0 524.1615198444075,320.7780598176994 C 549.8415198444075,335.7780598176994 576.0315198444075,349.86805981769936 602.1615198444075,363.9980598176994 A 149.83,149.83 0.0 0,0 663.7615198444075,382.1480598176994 A 704.0,704.0 0.0 0,1 794.6315198444075,403.98805981769937 C 808.5415198444075,407.6680598176994 822.9015198444075,408.4580598176994 837.1715198444075,409.86805981769936 C 866.0915198444075,412.74805981769936 894.9315198444075,410.80805981769936 923.7115198444075,408.31805981769935 C 948.2415198444074,406.18805981769935 972.8015198444075,404.80805981769936 997.3815198444074,403.70805981769934 C 1010.0015198444074,403.14805981769933 1022.6015198444074,402.43805981769935 1035.2115198444076,401.8480598176993 C 1056.2115198444076,400.8480598176993 1077.1015198444077,403.56805981769935 1097.9815198444076,405.4180598176993 C 1113.7515198444075,406.8180598176993 1129.5515198444075,407.7980598176993 1145.1715198444076,410.6580598176993 C 1177.5615198444077,416.56805981769935 1208.3015198444077,427.4080598176993 1238.5515198444077,440.20805981769934 A 367.0,367.0 0.0 0,1 1315.4815198444078,484.9080598176993 A 210.36,210.36 0.0 0,1 1341.1915198444078,508.1280598176993 C 1355.1215198444079,522.6780598176992 1368.1915198444078,538.1280598176993 1377.861519844408,555.8580598176993 C 1388.781519844408,575.9580598176993 1398.861519844408,596.5180598176993 1405.771519844408,618.4480598176993 C 1411.671519844408,637.2080598176993 1417.151519844408,656.1180598176993 1423.501519844408,674.7380598176993 C 1428.321519844408,688.8980598176993 1434.651519844408,702.5080598176993 1441.131519844408,715.9980598176993 C 1453.441519844408,741.6680598176993 1467.3415198444081,766.4980598176993 1480.701519844408,791.6080598176993 C 1488.911519844408,807.0180598176993 1499.701519844408,820.6080598176993 1510.201519844408,834.3380598176993 C 1513.3415198444081,838.4480598176993 1517.691519844408,841.3380598176993 1521.731519844408,844.5080598176993 A 411.0,411.0 0.0 0,0 1576.471519844408,880.3180598176993 C 1599.921519844408,893.2480598176993 1622.711519844408,907.2080598176993 1644.121519844408,923.3180598176993 C 1650.7915198444082,928.3180598176993 1657.431519844408,933.4680598176993 1662.941519844408,939.7780598176994 C 1676.941519844408,955.7780598176994 1687.381519844408,973.7780598176994 1691.451519844408,994.9480598176993 C 1692.911519844408,1002.5680598176993 1691.511519844408,1009.8380598176993 1688.8315198444081,1016.9480598176993 A 19.29,19.29 0.0 0,1 1684.5215198444082,1023.2880598176994 C 1681.7915198444082,1026.1680598176995 1678.7415198444082,1028.7480598176994 1674.4515198444083,1027.5880598176993 C 1669.7915198444082,1026.3280598176993 1667.4515198444083,1022.5880598176993 1666.8315198444084,1018.1480598176993 A 36.0,36.0 0.0 0,0 1663.6115198444083,1007.1480598176993 A 22.65,22.65 0.0 0,0 1654.0015198444084,997.1480598176993 A 190.68,190.68 0.0 0,0 1628.2515198444084,985.6280598176993 C 1613.9615198444085,980.3580598176993 1600.0615198444084,974.4280598176992 1587.2515198444084,965.9180598176993 A 70.28,70.28 0.0 0,0 1564.4715198444085,955.8280598176992 C 1556.6815198444085,953.9780598176992 1549.6615198444085,950.3480598176992 1542.9815198444085,946.0080598176992 Q 1536.7915198444084,942.0080598176992 1530.5915198444084,938.0080598176992 C 1526.8015198444084,935.5680598176991 1523.0815198444084,933.3380598176992 1518.1515198444083,933.7380598176992 C 1514.6715198444083,934.0180598176992 1511.5315198444084,932.0680598176992 1508.7915198444084,929.9580598176992 C 1502.6915198444085,925.2580598176992 1496.5915198444084,920.5380598176993 1490.6615198444083,915.6280598176992 C 1485.0415198444084,910.9780598176992 1479.3915198444083,906.4280598176991 1472.5315198444082,903.6280598176992 C 1468.5315198444082,902.0480598176991 1465.9315198444083,898.9280598176991 1463.5315198444082,895.6280598176992 Q 1453.2715198444082,881.6280598176992 1443.1915198444083,867.5680598176992 C 1440.8015198444082,864.2180598176992 1438.5915198444084,860.8980598176993 1434.0715198444084,860.1080598176992 C 1432.1415198444083,859.7680598176992 1430.7915198444084,858.1980598176992 1429.5015198444084,856.7280598176992 A 49.42,49.42 0.0 0,1 1422.3015198444084,846.1480598176992 A 223.41,223.41 0.0 0,1 1405.9115198444083,803.7280598176992 C 1401.6015198444084,787.3880598176992 1397.1615198444083,771.0580598176992 1388.6715198444083,756.2180598176992 C 1387.6715198444083,754.5480598176993 1386.8015198444084,752.8580598176992 1385.8215198444084,751.2180598176992 C 1385.6315198444083,750.8880598176992 1385.2015198444085,750.6980598176992 1384.8215198444084,750.3980598176992 C 1383.1115198444083,751.3980598176992 1383.8215198444084,753.0380598176991 1383.7615198444084,754.3980598176992 A 402.22,402.22 0.0 0,0 1383.8615198444083,799.9380598176991 C 1384.7015198444083,812.1080598176991 1386.0915198444084,824.3080598176991 1385.7315198444082,836.4480598176991 C 1385.3115198444082,849.9780598176991 1389.3315198444081,862.1880598176991 1394.0515198444082,874.3080598176991 C 1407.661519844408,909.3080598176991 1423.2815198444082,943.2180598176991 1444.0515198444082,974.6280598176991 C 1450.9415198444083,985.0680598176991 1459.2715198444082,994.1980598176991 1467.911519844408,1003.1380598176991 C 1471.031519844408,1006.3680598176991 1474.191519844408,1009.5880598176991 1477.001519844408,1013.0780598176991 C 1485.541519844408,1023.7080598176991 1487.891519844408,1036.078059817699 1486.571519844408,1049.328059817699 C 1485.8915198444079,1056.138059817699 1485.291519844408,1062.9680598176992 1485.051519844408,1069.8080598176991 C 1484.6215198444079,1081.648059817699 1480.721519844408,1092.9380598176992 1479.771519844408,1104.678059817699 C 1478.111519844408,1125.168059817699 1474.081519844408,1145.358059817699 1471.771519844408,1165.758059817699 C 1469.771519844408,1183.178059817699 1468.971519844408,1200.758059817699 1467.421519844408,1218.218059817699 C 1465.791519844408,1236.538059817699 1464.0915198444081,1254.858059817699 1460.941519844408,1273.008059817699 C 1459.551519844408,1281.008059817699 1455.731519844408,1287.388059817699 1448.241519844408,1291.228059817699 C 1445.961519844408,1292.398059817699 1443.841519844408,1293.868059817699 1441.641519844408,1295.228059817699 C 1436.431519844408,1298.318059817699 1430.901519844408,1300.768059817699 1424.871519844408,1301.3380598176989 A 77.8,77.8 0.0 0,0 1405.481519844408,1305.3380598176989 A 27.57,27.57 0.0 0,1 1394.051519844408,1306.528059817699 C 1386.581519844408,1305.978059817699 1379.1215198444079,1305.438059817699 1371.6615198444078,1304.758059817699 C 1366.541519844408,1304.288059817699 1361.4515198444078,1303.8280598176989 1356.301519844408,1304.518059817699 C 1351.151519844408,1305.208059817699 1346.051519844408,1304.158059817699 1341.181519844408,1302.398059817699 C 1332.661519844408,1299.3180598176991 1329.371519844408,1292.668059817699 1332.181519844408,1284.018059817699 C 1334.431519844408,1276.958059817699 1338.6115198444081,1271.018059817699 1343.5715198444082,1265.6080598176989 A 94.24,94.24 0.0 0,0 1350.0515198444082,1258.498059817699 A 28.18,28.18 0.0 0,1 1373.2015198444083,1246.6080598176989 C 1384.7915198444082,1246.4280598176988 1390.9215198444083,1240.1180598176988 1395.2615198444082,1230.248059817699 A 179.38,179.38 0.0 0,0 1409.2615198444082,1178.438059817699 A 126.17,126.17 0.0 0,0 1408.8915198444083,1147.678059817699 C 1407.2615198444082,1135.388059817699 1405.1115198444083,1123.158059817699 1402.8915198444083,1110.958059817699 C 1399.3415198444084,1091.718059817699 1392.4015198444083,1073.518059817699 1385.1815198444083,1055.428059817699 A 40.52,40.52 0.0 0,0 1381.0215198444082,1048.228059817699 C 1371.2115198444083,1033.438059817699 1362.0215198444082,1018.228059817699 1350.6915198444083,1004.458059817699 A 181.14,181.14 0.0 0,1 1337.0415198444082,985.038059817699 C 1325.621519844408,966.7380598176991 1310.7215198444082,951.3480598176991 1295.6915198444083,936.0980598176991 C 1291.9315198444083,932.2980598176991 1288.0015198444082,928.6680598176991 1284.3615198444083,924.7480598176991 C 1282.5015198444084,922.7480598176991 1280.8015198444084,920.518059817699 1277.6415198444083,918.7480598176991 C 1282.9015198444083,938.928059817699 1289.0115198444082,957.8780598176991 1300.6915198444083,974.668059817699 A 357.13,357.13 0.0 0,0 1328.8115198444082,1010.4980598176991 C 1337.131519844408,1019.6980598176991 1345.0615198444082,1029.2580598176992 1353.0615198444082,1038.748059817699 A 40.88,40.88 0.0 0,1 1363.151519844408,1065.748059817699 A 66.18,66.18 0.0 0,1 1357.741519844408,1089.988059817699 C 1350.681519844408,1107.048059817699 1341.801519844408,1123.138059817699 1332.391519844408,1138.988059817699 A 162.72,162.72 0.0 0,0 1316.621519844408,1173.988059817699 C 1309.621519844408,1196.528059817699 1299.451519844408,1217.748059817699 1287.881519844408,1238.298059817699 C 1281.251519844408,1250.068059817699 1275.0715198444082,1262.1580598176988 1272.3115198444082,1275.438059817699 C 1270.0915198444081,1286.128059817699 1263.621519844408,1291.438059817699 1253.7515198444082,1294.108059817699 C 1245.7515198444082,1296.2680598176992 1237.8315198444081,1297.198059817699 1229.6615198444083,1295.418059817699 C 1226.7515198444082,1294.778059817699 1223.8015198444084,1294.208059817699 1220.7615198444082,1294.878059817699 C 1209.7615198444082,1297.2680598176992 1198.6015198444081,1296.428059817699 1187.5015198444082,1295.878059817699 C 1183.5015198444082,1295.668059817699 1179.8615198444081,1295.938059817699 1176.3515198444081,1297.928059817699 C 1164.121519844408,1304.848059817699 1151.171519844408,1296.088059817699 1144.971519844408,1289.048059817699 C 1141.971519844408,1285.688059817699 1142.541519844408,1281.468059817699 1144.271519844408,1277.508059817699 A 20.75,20.75 0.0 0,1 1151.271519844408,1269.278059817699 A 119.19,119.19 0.0 0,0 1166.271519844408,1256.198059817699 A 51.69,51.69 0.0 0,1 1174.271519844408,1249.788059817699 A 25.9,25.9 0.0 0,1 1189.951519844408,1245.018059817699 A 90.07,90.07 0.0 0,0 1209.131519844408,1243.778059817699 A 14.86,14.86 0.0 0,0 1217.461519844408,1239.458059817699 C 1227.191519844408,1229.458059817699 1234.731519844408,1218.318059817699 1236.701519844408,1203.998059817699 A 56.2,56.2 0.0 0,1 1240.531519844408,1191.1180598176988 C 1246.531519844408,1176.008059817699 1251.351519844408,1160.4680598176988 1256.031519844408,1144.9080598176988 A 70.64,70.64 0.0 0,0 1257.561519844408,1108.8580598176989 A 219.37,219.37 0.0 0,0 1244.1515198444079,1066.798059817699 C 1239.5215198444077,1056.228059817699 1236.791519844408,1044.9180598176988 1231.591519844408,1034.528059817699 C 1226.9415198444078,1025.248059817699 1221.231519844408,1017.0680598176989 1213.221519844408,1010.1880598176989 A 218.93,218.93 0.0 0,1 1171.021519844408,961.248059817699 C 1161.321519844408,945.958059817699 1150.021519844408,932.078059817699 1136.271519844408,920.248059817699 A 104.82,104.82 0.0 0,1 1118.981519844408,900.478059817699 C 1101.401519844408,875.478059817699 1087.321519844408,848.6580598176989 1078.501519844408,819.2980598176989 C 1075.031519844408,807.7680598176989 1074.151519844408,795.7780598176989 1073.331519844408,783.8080598176989 C 1072.6615198444078,773.9880598176989 1072.981519844408,764.1180598176988 1071.741519844408,754.3280598176989 A 60.31,60.31 0.0 0,0 1069.931519844408,744.1480598176989 C 1041.8215198444082,750.988059817699 1014.121519844408,757.988059817699 986.181519844408,763.988059817699 C 965.8615198444079,768.368059817699 945.7115198444079,773.4080598176989 926.401519844408,781.058059817699 A 351.52,351.52 0.0 0,1 866.741519844408,798.428059817699 A 651.1,651.1 0.0 0,0 800.851519844408,815.1380598176991 C 792.441519844408,817.788059817699 783.651519844408,818.4680598176991 774.9315198444081,819.418059817699 C 761.9315198444081,820.838059817699 749.2515198444081,823.928059817699 736.5015198444081,826.718059817699 A 8.33,8.33 0.0 0,0 730.0415198444081,832.128059817699 C 717.9815198444081,860.008059817699 709.721519844408,888.8180598176989 706.8915198444081,919.188059817699 C 705.4215198444081,934.998059817699 704.7815198444081,950.818059817699 704.6615198444081,966.6380598176991 C 704.4815198444081,990.6380598176991 703.3015198444081,1014.558059817699 702.6615198444081,1038.518059817699 A 46.0,46.0 0.0 0,0 702.831519844408,1045.518059817699 C 705.0215198444081,1062.978059817699 703.1515198444081,1080.1380598176988 698.961519844408,1097.0880598176989 A 174.85,174.85 0.0 0,0 693.5315198444081,1135.738059817699 A 89.12,89.12 0.0 0,1 685.201519844408,1171.738059817699 A 101.0,101.0 0.0 0,0 675.701519844408,1206.168059817699 C 673.9115198444081,1227.168059817699 668.441519844408,1247.398059817699 661.601519844408,1267.278059817699 C 660.351519844408,1270.908059817699 659.411519844408,1274.658059817699 658.2915198444081,1278.3380598176989 C 653.8015198444081,1293.018059817699 643.8015198444081,1301.228059817699 628.471519844408,1302.3380598176989 A 52.16,52.16 0.0 0,0 614.721519844408,1305.1680598176988 A 49.62,49.62 0.0 0,1 589.401519844408,1307.0380598176987 C 585.601519844408,1306.3880598176986 581.761519844408,1306.0380598176987 577.971519844408,1305.3180598176987 A 33.25,33.25 0.0 0,0 561.571519844408,1306.2280598176987 C 553.001519844408,1308.8880598176988 545.061519844408,1306.2280598176987 537.831519844408,1301.4580598176988 A 10.51,10.51 0.0 0,1 533.0515198444081,1291.5280598176987 A 21.62,21.62 0.0 0,1 538.311519844408,1278.0080598176987 A 109.05,109.05 0.0 0,0 551.121519844408,1259.6180598176986 C 554.931519844408,1252.9880598176985 559.761519844408,1247.4080598176986 567.291519844408,1244.7280598176985 A 11.54,11.54 0.0 0,0 573.4515198444079,1240.2580598176985 C 579.891519844408,1229.6380598176986 588.4515198444079,1220.5080598176985 594.551519844408,1209.6280598176984 C 600.881519844408,1198.2880598176985 603.291519844408,1185.5680598176984 607.911519844408,1173.6280598176984 C 614.611519844408,1156.2680598176985 612.751519844408,1138.6980598176983 608.801519844408,1121.1680598176983 A 104.29,104.29 0.0 0,1 609.931519844408,1069.1680598176983 A 53.0,53.0 0.0 0,0 611.931519844408,1050.8380598176984 C 611.151519844408,1039.2880598176985 612.1015198444079,1027.6980598176983 613.4815198444079,1016.2380598176984 C 615.8215198444079,996.8380598176984 616.2615198444079,977.3980598176984 615.9815198444079,957.9080598176984 C 615.7815198444079,943.9780598176984 616.5815198444079,930.1180598176984 617.3815198444079,916.2180598176983 C 618.3815198444079,899.2180598176983 617.1915198444078,882.4180598176983 612.8615198444079,865.9080598176984 C 610.5015198444079,856.9080598176984 606.4015198444079,848.7080598176983 601.7515198444079,840.7380598176984 A 2.49,2.49 0.0 0,0 599.7515198444079,839.2280598176984 C 590.9215198444078,855.9480598176984 584.4015198444079,873.0280598176984 584.6615198444078,892.6880598176984 C 585.0815198444078,924.5680598176984 584.0315198444079,956.4680598176984 582.2915198444078,988.3180598176984 C 581.2915198444078,1006.4980598176984 577.6215198444079,1024.3180598176984 574.1215198444079,1042.2080598176985 C 569.8015198444078,1064.2880598176985 566.9915198444079,1086.5580598176984 566.9415198444079,1109.1180598176986 C 566.9415198444079,1121.9580598176985 567.2315198444079,1134.8080598176987 565.9415198444079,1147.6180598176986 C 565.4515198444079,1152.4980598176987 566.5615198444079,1157.4280598176986 565.8115198444079,1162.3580598176986 C 564.5815198444079,1170.4580598176985 561.131519844408,1176.5880598176986 552.301519844408,1177.9780598176985 C 549.4615198444079,1178.4180598176986 549.121519844408,1180.5280598176985 548.641519844408,1182.5680598176984 C 546.641519844408,1191.0980598176984 544.5615198444079,1199.5680598176984 542.781519844408,1208.1880598176983 A 117.62,117.62 0.0 0,1 527.931519844408,1246.2780598176982 C 521.541519844408,1256.5980598176982 517.041519844408,1267.5580598176982 513.1015198444079,1278.8780598176982 C 510.80151984440795,1285.458059817698 507.49151984440795,1291.2680598176983 501.74151984440795,1295.5880598176982 A 32.25,32.25 0.0 0,1 484.65151984440797,1302.3180598176982 C 477.17151984440795,1302.8880598176981 469.79151984440796,1304.0780598176982 462.36151984440795,1304.8780598176982 C 457.18151984440794,1305.428059817698 452.11151984440795,1304.2580598176983 447.04151984440796,1303.6180598176982 A 88.41,88.41 0.0 0,0 423.38151984440793,1303.3780598176982 A 59.0,59.0 0.0 0,1 393.7615198444079,1299.5480598176982 A 25.56,25.56 0.0 0,1 385.1615198444079,1294.0480598176982 C 378.5015198444079,1287.5980598176982 379.4015198444079,1277.0480598176982 387.5915198444079,1272.8180598176982 A 74.22,74.22 0.0 0,0 406.2115198444079,1259.5180598176983 A 45.62,45.62 0.0 0,1 415.5415198444079,1252.7480598176983 A 28.67,28.67 0.0 0,1 429.5415198444079,1248.7480598176983 C 437.4515198444079,1248.4880598176983 445.3115198444079,1247.8280598176982 452.7515198444079,1244.5180598176983 A 25.17,25.17 0.0 0,0 464.2315198444079,1234.6380598176981 C 470.3215198444079,1224.7980598176982 475.7015198444079,1214.6380598176981 478.5915198444079,1203.2780598176982 C 481.7415198444079,1190.8480598176982 485.5215198444079,1178.5580598176982 489.4715198444079,1166.3580598176982 C 494.5915198444079,1150.5780598176982 494.38151984440793,1134.8180598176982 490.3915198444079,1118.9180598176981 C 490.13151984440793,1117.9180598176981 490.0415198444079,1116.7980598176982 489.7315198444079,1115.778059817698 C 484.5915198444079,1099.278059817698 485.5915198444079,1082.848059817698 490.2415198444079,1066.438059817698 A 64.87,64.87 0.0 0,0 492.5415198444079,1049.968059817698 C 492.9015198444079,1032.208059817698 493.4215198444079,1014.4480598176981 493.8015198444079,996.6880598176981 A 361.72,361.72 0.0 0,0 484.2215198444079,905.6880598176981 A 207.49,207.49 0.0 0,1 479.6215198444079,871.3980598176981 A 126.49,126.49 0.0 0,0 469.8015198444079,830.3980598176981 C 466.1515198444079,821.7180598176982 462.2915198444079,813.1580598176981 459.9315198444079,803.9880598176982 C 458.1115198444079,796.9080598176981 454.5915198444079,790.4780598176982 451.39151984440787,783.9880598176982 A 241.64,241.64 0.0 0,1 437.26151984440787,748.2280598176982 A 205.6,205.6 0.0 0,0 422.7415198444079,713.3080598176982 C 411.58151984440786,691.9480598176982 403.9815198444079,669.3080598176982 398.26151984440787,645.9380598176982 A 64.0,64.0 0.0 0,1 396.20151984440787,626.8580598176982 C 397.02151984440786,612.9780598176982 391.1215198444079,601.5280598176981 383.2515198444079,590.8580598176982 A 101.36,101.36 0.0 0,0 374.3515198444079,580.7480598176982 C 367.4715198444079,573.6080598176982 361.4015198444079,565.9480598176982 357.1415198444079,556.9180598176981 C 354.9215198444079,552.1880598176981 351.1415198444079,548.5680598176981 347.4015198444079,545.0680598176981 A 51.88,51.88 0.0 0,1 333.2215198444079,522.5180598176981 A 207.47,207.47 0.0 0,0 319.9815198444079,491.2380598176982 A 73.17,73.17 0.0 0,0 301.4715198444079,467.67805981769817 C 290.3715198444079,458.5980598176982 278.9515198444079,449.9080598176982 267.7815198444079,440.92805981769817 C 264.8715198444079,438.5880598176982 262.5215198444079,438.11805981769817 259.4115198444079,440.6680598176982 C 251.08151984440786,447.4880598176982 240.66151984440788,450.9080598176982 231.9615198444079,457.1980598176982 A 61.44,61.44 0.0 0,0 220.10151984440787,467.9280598176982 C 211.87151984440789,477.98805981769823 202.74151984440786,487.3780598176982 193.58151984440786,496.66805981769824 C 183.22151984440788,507.21805981769825 169.86151984440787,511.59805981769824 155.36151984440787,512.6680598176982 A 23.65,23.65 0.0 0,1 145.90151984440786,511.1180598176982 C 141.08151984440786,509.4380598176982 141.01151984440787,509.34805981769824 137.96151984440786,513.5780598176982 A 203.73,203.73 0.0 0,1 102.13151984440786,551.9480598176982 A 67.0,67.0 0.0 0,1 82.34151984440786,563.6280598176982 C 73.34151984440786,566.8880598176981 65.89151984440785,563.6280598176982 61.701519844407855,554.9480598176982 A 23.0,23.0 0.0 0,1 61.86151984440785,533.3780598176982 A 48.0,48.0 0.0 0,1 72.94151984440785,518.5780598176982 A 174.41,174.41 0.0 0,0 114.94151984440785,464.1280598176982 C 127.33151984440785,439.3980598176982 143.14151984440784,416.7080598176982 160.12151984440786,394.65805981769824 L 160.12151984440746,394.65805981769944"/>
</svg>
