<?xml version="1.0" ?>
<svg xmlns="http://www.w3.org/2000/svg" xmlns:ev="http://www.w3.org/2001/xml-events" xmlns:xlink="http://www.w3.org/1999/xlink" baseProfile="full" data-name="Layer 1" height="1391" transform="scale(0.07189072609633357 0.07189072609633357) translate(-821.0 -695.5)" version="1.1" viewBox="0 0 1642 1391" width="1642">
	<defs/>
	<path d="M 321.12969982685905,1.3978517477759893 C 338.58969982685903,2.3278517477759895 353.25969982685905,3.717851747775989 368.12969982685905,2.3978517477759893 C 393.76969982685904,0.20785174777598936 416.27969982685903,9.33785174777599 437.18969982685906,23.21785174777599 A 159.0,159.0 0.0 0,1 450.18969982685906,33.21785174777599 A 98.93,98.93 0.0 0,0 473.92969982685906,47.59785174777599 C 490.2296998268591,54.64785174777599 505.25969982685905,63.59785174777599 517.2696998268591,77.117851747776 C 522.6396998268591,83.117851747776 528.7496998268591,88.53785174777599 534.569699826859,94.16785174777598 C 541.2796998268591,100.66785174777598 548.569699826859,106.457851747776 557.0396998268591,110.47785174777599 C 573.1096998268591,118.12785174777599 584.8996998268591,130.187851747776 594.1496998268591,145.047851747776 C 599.689699826859,153.947851747776 605.2396998268591,162.837851747776 610.6696998268591,171.797851747776 C 615.3796998268591,179.557851747776 620.1196998268591,187.40785174777602 626.829699826859,193.527851747776 C 645.139699826859,210.207851747776 653.729699826859,231.797851747776 658.979699826859,255.19785174777599 A 56.67,56.67 0.0 0,1 660.459699826859,262.90785174777596 C 661.699699826859,278.02785174777597 667.329699826859,291.54785174777595 675.509699826859,304.077851747776 C 685.999699826859,320.15785174777596 690.509699826859,337.857851747776 690.599699826859,356.887851747776 A 99.81,99.81 0.0 0,0 691.769699826859,368.957851747776 A 78.28,78.28 0.0 0,0 701.209699826859,397.237851747776 C 706.379699826859,406.627851747776 711.6796998268591,415.937851747776 717.5296998268591,424.927851747776 C 725.5996998268591,437.357851747776 736.459699826859,445.487851747776 751.5296998268591,447.067851747776 C 754.6096998268591,447.397851747776 757.6696998268591,447.957851747776 760.7496998268591,448.187851747776 A 94.94,94.94 0.0 0,1 787.1196998268591,453.58785174777597 C 806.2096998268592,460.65785174777596 826.1196998268591,461.71785174777597 846.2896998268591,458.71785174777597 C 854.5296998268591,457.48785174777595 862.719699826859,455.817851747776 870.9996998268591,454.947851747776 C 890.7196998268591,452.867851747776 907.8096998268591,444.067851747776 924.7196998268591,434.687851747776 C 928.4696998268591,432.607851747776 932.0796998268592,430.267851747776 935.8796998268591,428.297851747776 A 43.91,43.91 0.0 0,0 955.4096998268591,408.14785174777603 C 957.4096998268591,404.087851747776 959.5496998268591,400.14785174777603 961.589699826859,396.06785174777605 C 966.939699826859,385.45785174777603 973.829699826859,376.32785174777604 984.469699826859,370.30785174777606 C 989.469699826859,367.4678517477761 992.9196998268591,362.67785174777606 996.349699826859,358.07785174777604 C 1001.469699826859,351.19785174777604 1006.629699826859,344.36785174777606 1012.819699826859,338.357851747776 C 1019.599699826859,331.76785174777604 1027.2096998268592,326.487851747776 1036.369699826859,324.01785174777604 C 1050.159699826859,320.30785174777606 1062.369699826859,313.727851747776 1073.759699826859,305.227851747776 C 1087.6996998268592,294.857851747776 1103.009699826859,287.557851747776 1120.759699826859,286.227851747776 C 1129.819699826859,285.537851747776 1138.529699826859,282.64785174777603 1146.759699826859,278.927851747776 C 1168.4796998268591,269.157851747776 1191.289699826859,265.497851747776 1214.9396998268592,265.757851747776 A 258.63,258.63 0.0 0,0 1241.3596998268592,264.917851747776 C 1267.1596998268592,262.557851747776 1292.1596998268592,266.917851747776 1316.9696998268591,273.20785174777603 A 279.74,279.74 0.0 0,1 1348.9696998268591,283.01785174777604 A 149.86,149.86 0.0 0,1 1397.6996998268592,313.44785174777604 C 1406.779699826859,321.85785174777607 1415.9396998268592,330.10785174777607 1426.009699826859,337.44785174777604 C 1439.4596998268592,347.23785174777606 1448.319699826859,360.967851747776 1454.2096998268592,376.277851747776 A 180.32,180.32 0.0 0,1 1466.039699826859,452.587851747776 C 1464.769699826859,473.927851747776 1454.869699826859,490.047851747776 1439.129699826859,503.337851747776 C 1434.189699826859,507.49785174777605 1429.289699826859,511.62785174777605 1425.799699826859,517.157851747776 A 33.92,33.92 0.0 0,0 1421.799699826859,525.507851747776 C 1420.139699826859,531.0978517477761 1420.799699826859,536.1178517477761 1424.4296998268592,540.9878517477761 C 1432.0596998268593,551.1778517477761 1441.8396998268593,559.2378517477761 1450.6196998268592,568.277851747776 C 1451.9496998268592,569.647851747776 1453.6196998268592,570.787851747776 1454.6196998268592,572.3578517477761 C 1464.0996998268593,586.9478517477761 1475.6896998268592,600.007851747776 1485.1896998268592,614.5678517477761 C 1500.6496998268592,638.247851747776 1507.1896998268592,664.9578517477761 1511.0696998268593,692.5678517477761 A 358.59,358.59 0.0 0,1 1514.0696998268593,731.7278517477761 C 1514.5596998268593,748.287851747776 1520.1696998268592,763.9678517477761 1523.0696998268593,780.1178517477761 A 228.14,228.14 0.0 0,1 1526.7896998268593,813.4578517477761 A 131.56,131.56 0.0 0,0 1531.5996998268593,845.877851747776 A 587.39,587.39 0.0 0,0 1590.0196998268593,983.5678517477761 A 210.15,210.15 0.0 0,0 1602.5896998268593,1002.6578517477761 C 1612.5896998268593,1016.1078517477762 1620.5896998268593,1030.6578517477762 1628.0196998268593,1045.6578517477762 C 1634.0196998268593,1057.7178517477762 1638.2196998268594,1070.2878517477764 1638.7796998268593,1083.8778517477763 C 1639.8496998268593,1109.8078517477763 1642.7796998268593,1135.6378517477763 1641.2796998268593,1161.6778517477762 C 1639.2796998268593,1197.4478517477762 1631.2796998268593,1231.3678517477763 1612.0196998268593,1262.0478517477761 A 109.34,109.34 0.0 0,1 1600.0196998268593,1278.0478517477761 A 514.29,514.29 0.0 0,1 1559.9396998268594,1317.7578517477762 C 1547.8496998268595,1328.2878517477761 1533.3396998268595,1333.0378517477761 1517.7696998268593,1332.627851747776 A 394.58,394.58 0.0 0,1 1471.4896998268594,1329.087851747776 C 1458.3096998268593,1327.177851747776 1446.9896998268594,1321.5478517477761 1438.1696998268594,1311.377851747776 A 35.18,35.18 0.0 0,0 1427.3596998268595,1303.2978517477761 C 1415.0396998268595,1296.9778517477762 1406.0896998268595,1287.407851747776 1399.5796998268595,1275.367851747776 C 1396.7496998268596,1270.127851747776 1393.9596998268596,1264.877851747776 1391.1196998268595,1259.647851747776 A 75.4,75.4 0.0 0,0 1386.9196998268594,1252.197851747776 C 1382.4196998268594,1245.737851747776 1382.1696998268594,1245.977851747776 1374.7096998268594,1247.747851747776 C 1351.4696998268594,1253.267851747776 1329.7096998268594,1250.137851747776 1310.4596998268594,1235.3278517477759 C 1292.7096998268594,1221.6778517477758 1279.0696998268593,1204.9178517477758 1272.3496998268595,1183.0878517477759 A 103.4,103.4 0.0 0,0 1263.8396998268595,1163.4578517477757 A 194.84,194.84 0.0 0,1 1249.5496998268595,1130.7778517477757 A 112.59,112.59 0.0 0,0 1224.2796998268595,1088.9178517477758 C 1211.5396998268595,1075.3778517477758 1200.1196998268595,1060.6978517477758 1188.2796998268595,1046.3778517477758 A 117.84,117.84 0.0 0,1 1173.7396998268596,1023.5178517477758 C 1169.8196998268595,1015.6278517477758 1165.9296998268596,1007.7178517477759 1161.8496998268595,999.9078517477758 C 1159.1996998268594,994.8478517477758 1156.5896998268595,989.6478517477758 1152.5496998268595,985.5578517477758 C 1140.6496998268594,973.5578517477758 1134.5496998268595,958.8178517477758 1132.0996998268595,942.4178517477758 C 1129.8996998268594,927.7278517477757 1124.0996998268595,914.6878517477758 1115.5996998268595,902.5578517477758 C 1111.4996998268596,896.7178517477757 1106.1796998268594,893.6778517477758 1099.4796998268596,893.5578517477758 C 1081.7696998268596,893.0978517477757 1064.2696998268596,894.6678517477758 1047.4796998268596,900.9678517477757 A 33.45,33.45 0.0 0,0 1040.6996998268596,904.9078517477758 C 1025.9496998268596,914.9678517477757 1011.3496998268596,925.2378517477758 996.0996998268596,934.5778517477758 C 983.9096998268595,942.0378517477758 972.3896998268596,950.5778517477758 960.9696998268596,959.1378517477757 C 945.1696998268596,971.0578517477757 927.4096998268597,979.9978517477757 911.4096998268597,991.6178517477757 C 908.7196998268596,993.6178517477757 905.6496998268597,995.1478517477757 903.3196998268596,997.4678517477757 C 896.3196998268596,1004.4678517477757 887.7196998268596,1008.1578517477758 878.3196998268596,1010.4678517477757 C 873.4596998268596,1011.6278517477757 868.7096998268596,1013.2278517477757 863.8596998268596,1014.4078517477758 C 860.7596998268596,1015.1578517477758 859.8596998268596,1016.8378517477757 859.7496998268596,1019.9778517477758 C 859.0996998268596,1044.277851747776 857.5396998268595,1068.517851747776 855.4896998268596,1092.737851747776 A 13.53,13.53 0.0 0,0 855.3996998268595,1094.157851747776 C 855.9096998268595,1119.927851747776 850.5196998268596,1144.727851747776 843.5196998268596,1169.347851747776 C 837.7196998268596,1189.7678517477761 834.5196998268596,1210.7778517477761 832.5196998268596,1231.877851747776 A 105.76,105.76 0.0 0,1 822.8596998268596,1266.7878517477761 C 814.6496998268595,1284.4878517477762 806.1196998268596,1302.057851747776 796.6896998268596,1319.1678517477762 C 785.1796998268596,1340.0478517477763 768.5396998268596,1354.9478517477762 746.0496998268596,1363.0978517477763 C 738.1996998268596,1365.9378517477762 730.7796998268597,1369.7178517477762 723.1496998268597,1373.0278517477764 A 169.19,169.19 0.0 0,1 676.5696998268596,1386.0278517477764 C 662.8396998268596,1387.7378517477764 649.0096998268597,1387.8778517477763 635.2396998268596,1389.0278517477764 C 632.6296998268596,1389.2378517477764 630.0196998268596,1389.4678517477764 627.4196998268595,1389.7978517477763 C 606.6096998268596,1392.4578517477764 588.3396998268595,1386.4478517477764 572.2896998268595,1373.3378517477763 A 50.26,50.26 0.0 0,1 555.9396998268595,1349.4978517477764 C 553.1696998268595,1340.8678517477763 548.7696998268596,1333.5978517477763 541.2496998268595,1328.1378517477765 C 535.1096998268595,1323.6778517477765 531.3996998268594,1317.1378517477765 529.0496998268594,1310.0278517477766 C 527.7996998268594,1306.2578517477766 526.3496998268594,1304.5478517477766 521.9696998268594,1305.5278517477766 C 517.5896998268594,1306.5078517477766 512.9696998268594,1306.4378517477767 508.4696998268593,1306.7578517477766 C 491.2996998268593,1307.9678517477766 475.4696998268593,1303.7578517477766 460.5796998268593,1295.2578517477766 C 447.4796998268593,1287.8078517477766 435.5796998268593,1278.6478517477767 423.5796998268593,1269.6378517477767 C 415.42969982685935,1263.5078517477766 411.49969982685934,1254.5078517477766 409.1696998268593,1244.7878517477768 C 408.2296998268593,1240.8478517477768 407.4796998268593,1236.8578517477767 406.2496998268593,1233.0178517477768 A 61.4,61.4 0.0 0,1 403.4996998268593,1206.937851747777 C 404.1296998268593,1201.427851747777 403.1096998268593,1196.0078517477768 402.7996998268593,1190.5478517477768 C 401.2996998268593,1163.8778517477767 401.5396998268593,1137.2678517477768 405.5196998268593,1110.7778517477768 C 406.2296998268593,1106.0678517477768 406.81969982685933,1101.3278517477768 407.2096998268593,1096.5878517477768 A 45.17,45.17 0.0 0,0 405.4696998268593,1080.4378517477767 C 403.1596998268593,1072.2278517477766 402.5396998268593,1063.5678517477768 400.6196998268593,1055.2378517477766 C 397.6196998268593,1042.4278517477767 395.2996998268593,1029.6578517477767 395.9996998268593,1016.3878517477766 C 396.45969982685926,1007.6978517477766 393.6796998268593,999.4878517477766 390.6196998268593,991.3878517477766 C 386.39969982685926,980.2678517477766 381.6996998268593,969.2578517477766 380.6996998268593,957.2078517477767 C 380.26969982685927,951.9878517477766 380.27969982685926,946.7278517477766 379.64969982685926,941.5378517477767 C 378.39969982685926,931.2378517477767 374.6996998268593,921.6378517477767 369.83969982685926,912.5978517477766 A 434.66,434.66 0.0 0,1 346.04969982685924,859.1378517477766 A 53.0,53.0 0.0 0,0 340.04969982685924,846.9978517477766 C 321.35969982685924,820.6778517477766 310.3796998268592,791.2178517477766 304.64969982685926,759.6778517477767 C 302.70969982685926,749.0178517477767 299.64969982685926,738.7578517477767 294.26969982685927,729.4178517477767 C 284.3696998268593,712.1978517477767 281.65969982685925,693.8178517477767 283.4396998268593,674.2978517477767 C 284.7296998268593,660.1678517477767 283.4396998268593,646.2978517477767 277.4396998268593,633.0478517477767 C 273.5996998268593,624.5178517477767 267.5596998268593,618.6078517477766 258.8096998268593,615.4378517477767 A 190.0,190.0 0.0 0,0 230.75969982685928,607.1478517477767 A 57.84,57.84 0.0 0,1 221.1196998268593,604.5578517477767 C 210.8396998268593,600.5578517477767 200.18969982685928,598.4178517477767 189.2896998268593,596.9178517477767 C 179.7596998268593,595.6078517477767 170.95969982685932,591.7278517477766 162.95969982685932,586.3678517477767 C 152.27969982685931,579.2078517477768 141.79969982685932,571.7478517477767 132.20969982685932,563.1178517477767 A 43.73,43.73 0.0 0,0 112.20969982685932,552.5878517477768 A 76.37,76.37 0.0 0,1 104.64969982685932,550.4678517477768 C 90.24969982685931,545.7078517477768 79.25969982685933,536.9278517477768 71.77969982685931,523.5378517477768 A 282.82,282.82 0.0 0,1 55.89969982685906,489.997851747776 A 86.85,86.85 0.0 0,0 31.529699826859062,456.107851747776 C 8.129699826859065,435.517851747776 -0.47030017314093553,408.897851747776 0.019699826859064445,378.787851747776 C 0.23969982685906444,364.737851747776 2.8996998268590644,350.847851747776 5.019699826859064,336.967851747776 A 115.87,115.87 0.0 0,0 6.289699826859064,309.247851747776 C 5.289699826859064,297.727851747776 7.399699826859064,286.297851747776 10.559699826859063,275.377851747776 C 16.559699826859063,254.567851747776 20.969699826859063,233.377851747776 27.109699826859064,212.567851747776 C 29.769699826859064,203.567851747776 32.569699826859065,194.807851747776 37.929699826859064,187.057851747776 A 33.48,33.48 0.0 0,0 43.859699826859064,166.157851747776 A 62.45,62.45 0.0 0,1 45.37969982685907,149.787851747776 A 50.32,50.32 0.0 0,1 63.529699826859066,120.67785174777597 A 67.76,67.76 0.0 0,0 79.33969982685906,103.39785174777597 A 112.76,112.76 0.0 0,1 114.21969982685906,68.10785174777598 A 108.42,108.42 0.0 0,1 130.01969982685907,59.83785174777598 C 144.69969982685907,53.497851747775975 158.81969982685908,46.25785174777598 171.63969982685907,36.497851747775975 A 75.51,75.51 0.0 0,1 203.2796998268591,22.177851747775975 C 210.09969982685908,20.857851747775975 216.2796998268591,17.517851747775975 222.8396998268591,15.467851747775974 C 255.74969982685906,5.22785174777599 288.86969982685906,-3.492148252224011 321.12969982685905,1.3978517477759893"/>
</svg>
