<?xml version="1.0" ?>
<svg xmlns="http://www.w3.org/2000/svg" xmlns:ev="http://www.w3.org/2001/xml-events" xmlns:xlink="http://www.w3.org/1999/xlink" baseProfile="full" data-name="Layer 1" height="1662" transform="scale(0.07012622720897616 0.07012622720897616) translate(-713.0 -831.0)" version="1.1" viewBox="0 0 1426 1662" width="1426">
	<defs/>
	<path d="M 284.33668386915116,975.1112460763134 A 12.0,12.0 0.0 0,0 283.33668386915116,977.5112460763133 C 280.4966838691512,992.5112460763133 277.23668386915114,1007.5712460763133 277.21668386915115,1022.9912460763134 C 277.21668386915115,1043.5012460763135 277.70668386915116,1064.0412460763134 275.71668386915115,1084.4912460763135 C 273.21668386915115,1110.3112460763134 272.55668386915113,1136.2012460763135 271.90668386915115,1162.1312460763136 C 271.0666838691512,1196.0312460763137 265.80668386915113,1229.3812460763136 257.90668386915115,1262.3612460763136 C 253.75668386915115,1279.6612460763135 250.34668386915115,1297.2912460763137 249.38668386915114,1315.0112460763137 C 248.60668386915114,1329.1512460763138 248.47668386915115,1343.3712460763136 247.38668386915114,1357.5112460763137 C 246.31668386915115,1370.8012460763136 247.10668386915114,1384.0912460763136 246.56668386915115,1397.3812460763136 C 246.26668386915114,1404.8412460763136 244.56668386915115,1412.1212460763136 244.56668386915115,1419.5712460763136 C 244.47668386915115,1445.2512460763137 247.56668386915115,1470.3112460763136 257.73668386915114,1494.2312460763137 C 261.73668386915114,1503.7312460763137 265.67668386915113,1513.4212460763138 267.0666838691511,1523.8112460763136 C 268.1466838691511,1531.9212460763135 268.47668386915115,1539.9812460763137 264.9666838691511,1547.7212460763137 C 263.5266838691511,1550.9012460763138 263.5866838691511,1554.2912460763137 263.8666838691511,1557.7212460763137 C 264.12668386915107,1560.8712460763138 264.38668386915106,1564.0112460763137 264.5566838691511,1567.1612460763138 C 265.63668386915106,1587.7912460763139 251.55668386915107,1600.9812460763137 235.09668386915106,1605.6912460763137 C 227.09668386915106,1607.9812460763137 218.98668386915108,1609.6912460763137 211.09668386915106,1612.6912460763137 C 201.31668386915106,1616.4012460763138 191.00668386915106,1614.6912460763137 181.03668386915106,1612.6912460763137 C 174.58668386915107,1611.3612460763138 168.41668386915106,1610.5012460763137 161.72668386915106,1611.5912460763138 C 151.58668386915105,1613.231246076314 140.49668386915107,1605.221246076314 136.90668386915107,1594.5912460763138 A 28.29,28.29 0.0 0,1 135.90668386915107,1579.271246076314 C 138.48668386915108,1567.441246076314 142.83668386915107,1556.271246076314 150.50668386915106,1546.901246076314 C 156.36668386915107,1539.711246076314 158.63668386915106,1531.621246076314 159.50668386915106,1522.651246076314 C 161.34668386915106,1503.201246076314 159.33668386915107,1483.911246076314 157.50668386915106,1464.651246076314 A 397.48,397.48 0.0 0,1 155.50668386915106,1415.371246076314 A 208.27,208.27 0.0 0,0 153.13668386915106,1376.991246076314 A 108.59,108.59 0.0 0,1 151.86668386915105,1361.501246076314 C 151.64668386915105,1340.501246076314 150.99668386915104,1319.651246076314 153.49668386915104,1298.711246076314 C 156.56668386915103,1272.931246076314 156.08668386915105,1246.971246076314 154.44668386915103,1221.0612460763139 A 357.44,357.44 0.0 0,1 153.84668386915104,1183.8812460763138 C 154.84668386915104,1158.5012460763137 151.00668386915103,1133.5512460763139 146.84668386915104,1108.6412460763138 A 141.71,141.71 0.0 0,1 145.70668386915105,1074.271246076314 C 146.56668386915106,1063.0412460763139 147.58668386915105,1051.8012460763139 147.92668386915105,1040.5412460763139 C 148.62668386915104,1017.7912460763139 151.23668386915105,995.1412460763139 151.46668386915104,972.3612460763138 A 166.19,166.19 0.0 0,0 143.76668386915105,921.1012460763138 C 140.82668386915105,911.6412460763138 137.84668386915106,902.1912460763139 134.91668386915106,892.7212460763138 A 66.8,66.8 0.0 0,1 131.91668386915106,865.3612460763138 A 59.75,59.75 0.0 0,0 129.91668386915106,841.9612460763138 C 127.41668386915104,833.2412460763138 126.81668386915105,824.2312460763138 126.98668386915104,815.1612460763139 A 264.73,264.73 0.0 0,1 131.52668386915104,772.8612460763139 C 133.83668386915105,760.1612460763139 134.91668386915103,747.4012460763139 133.46668386915104,734.5012460763139 C 132.46668386915104,725.6412460763139 134.74668386915104,717.0112460763139 135.65668386915104,708.2912460763139 C 136.41668386915103,700.9312460763139 138.52668386915104,693.6912460763139 137.15668386915104,686.1912460763139 A 7.27,7.27 0.0 0,1 137.26668386915105,684.1912460763139 C 138.64668386915105,670.9712460763138 140.55668386915104,657.8212460763139 141.16668386915106,644.5112460763139 A 61.64,61.64 0.0 0,1 147.96668386915107,619.9012460763139 C 150.42668386915108,614.9012460763139 151.89668386915108,609.6712460763139 150.90668386915107,604.2012460763139 C 148.24668386915107,589.4212460763139 152.08668386915107,575.9212460763139 159.00668386915106,563.2012460763139 A 56.32,56.32 0.0 0,0 165.70668386915105,529.9712460763138 C 165.15668386915104,524.1412460763138 164.70668386915105,518.2912460763139 164.05668386915104,512.4812460763138 C 163.05668386915104,504.0712460763138 164.69668386915103,495.84124607631384 165.48668386915105,487.5512460763138 A 60.84,60.84 0.0 0,0 165.39668386915105,472.0612460763138 A 28.42,28.42 0.0 0,0 161.04668386915105,460.0612460763138 C 156.73668386915105,453.8112460763138 155.57668386915105,446.8812460763138 156.43668386915104,439.4312460763138 C 157.22668386915103,432.4312460763138 158.81668386915103,425.6712460763138 160.15668386915104,418.8212460763138 C 161.49668386915104,411.9712460763138 162.66668386915103,405.1212460763138 161.77668386915104,398.2312460763138 C 159.66668386915103,397.0612460763138 158.00668386915103,398.2312460763138 156.38668386915106,398.72124607631383 A 44.47,44.47 0.0 0,1 137.69668386915106,400.59124607631384 C 131.09668386915106,399.77124607631384 124.64668386915105,401.13124607631386 118.30668386915104,402.69124607631386 C 106.65668386915104,405.56124607631386 96.25668386915105,403.69124607631386 86.37668386915105,396.49124607631387 A 176.0,176.0 0.0 0,1 42.20668386915105,349.49124607631387 C 38.26668386915105,343.39124607631385 34.06668386915105,337.49124607631387 28.69668386915105,332.6712460763139 C 20.936683869151054,325.7312460763139 16.84668386915105,316.88124607631386 14.286683869151052,307.18124607631387 C 12.426683869151052,300.12124607631387 9.286683869151052,293.76124607631385 5.906683869151052,287.3412460763139 C -0.8233161308489487,274.5412460763139 -2.643316130848949,261.4012460763139 4.906683869151052,248.02124607631387 C 8.226683869151053,242.12124607631387 11.286683869151052,236.09124607631387 15.496683869151052,230.76124607631388 A 43.0,43.0 0.0 0,0 21.82668386915105,218.8812460763139 C 30.94668386915105,194.60124607631388 38.746683869151056,169.9412460763139 43.41668386915105,144.3612460763139 A 68.29,68.29 0.0 0,1 50.67668386915105,124.08124607631392 C 55.67668386915105,114.82124607631391 56.77668386915105,104.34124607631392 59.35668386915105,94.32124607631391 A 30.31,30.31 0.0 0,0 60.44668386915105,89.0312460763139 C 61.396683869151055,75.8012460763139 69.93668386915105,68.0312460763139 80.36668386915106,61.95124607631391 C 90.46668386915105,56.031246076313906 101.26668386915107,51.391246076313905 111.43668386915105,45.531246076313906 C 120.12668386915105,40.531246076313906 127.63668386915106,34.73124607631391 133.28668386915106,25.991246076313907 C 138.50668386915106,17.91124607631391 146.03668386915106,11.291246076313907 153.93668386915107,5.731246076313904 C 161.11668386915116,0.671246076313349 169.81668386915118,-0.5287539236866511 178.55668386915116,0.19124607631334894 A 115.24,115.24 0.0 0,1 208.82668386915117,6.951246076313349 A 65.0,65.0 0.0 0,0 235.99668386915118,10.95124607631335 A 283.78,283.78 0.0 0,1 285.9966838691512,11.781246076313348 C 299.9966838691512,13.311246076313349 313.3566838691512,10.781246076313348 326.64668386915116,7.011246076313349 C 329.64668386915116,6.151246076313349 332.72668386915115,5.301246076313349 335.8066838691512,4.681246076313349 C 346.6166838691512,2.5112460763133493 356.57668386915117,4.681246076313349 364.9466838691512,11.851246076313348 C 376.4266838691512,21.72124607631335 389.70668386915116,27.22124607631335 404.5066838691512,29.53124607631335 C 409.1766838691512,30.25124607631335 413.8066838691512,31.261246076313352 418.5066838691512,32.08124607631335 A 82.94,82.94 0.0 0,1 441.02668386915116,38.98124607631335 C 451.02668386915116,43.84124607631335 461.67668386915113,46.76124607631335 472.38668386915117,49.48124607631335 C 494.9266838691512,55.22124607631335 515.5166838691512,65.16124607631335 534.6766838691511,78.22124607631335 C 536.1566838691512,79.22124607631335 537.5766838691511,80.36124607631335 538.9966838691512,81.46124607631334 C 542.7166838691512,84.36124607631335 544.1766838691511,87.85124607631334 542.9966838691512,92.72124607631335 C 539.9166838691511,105.17124607631335 537.8166838691512,117.92124607631335 529.9966838691512,128.72124607631335 C 527.6966838691512,131.92124607631334 527.2066838691512,135.84124607631335 526.6966838691512,139.63124607631335 A 40.36,40.36 0.0 0,1 515.9366838691512,162.48124607631334 C 508.93668386915124,169.94124607631335 504.47668386915126,179.17124607631334 498.73668386915125,187.48124607631334 A 144.41,144.41 0.0 0,1 484.23668386915125,205.28124607631335 C 480.77668386915127,208.92124607631334 476.78668386915126,211.91124607631335 471.74668386915124,212.96124607631336 C 468.30668386915124,213.68124607631336 466.6366838691512,215.65124607631336 466.74668386915124,219.06124607631335 C 466.92668386915125,226.92124607631337 462.84668386915126,232.72124607631335 457.74668386915124,238.06124607631335 A 34.06,34.06 0.0 0,0 451.92668386915125,245.48124607631334 A 8.82,8.82 0.0 0,0 451.78668386915126,254.38124607631335 A 410.88,410.88 0.0 0,1 488.6366838691513,363.5212460763134 C 491.6866838691513,379.73124607631337 498.1766838691513,394.4112460763134 509.9266838691513,406.5212460763134 C 517.5566838691514,414.3812460763134 526.3466838691513,419.8712460763134 537.1566838691513,421.7612460763134 C 552.6966838691512,424.4812460763134 568.2866838691513,426.8812460763134 583.8166838691512,429.6112460763134 A 187.66,187.66 0.0 0,1 612.6866838691512,436.6712460763134 C 628.9066838691513,442.28124607631344 645.6866838691512,443.7612460763134 662.6366838691513,444.1212460763134 C 678.6366838691513,444.47124607631343 694.6366838691513,444.1212460763134 710.6366838691513,443.1212460763134 C 732.0666838691512,441.8812460763134 753.4766838691513,442.60124607631343 774.8566838691513,443.6412460763134 Q 811.3666838691513,445.4112460763134 847.8566838691513,444.3712460763134 A 462.76,462.76 0.0 0,1 949.8666838691513,452.7612460763134 C 975.0766838691513,457.6612460763134 1000.3066838691512,462.4212460763134 1025.5266838691512,467.29124607631337 A 226.29,226.29 0.0 0,1 1053.616683869151,474.7012460763134 A 115.88,115.88 0.0 0,1 1097.5266838691512,500.5912460763134 C 1108.336683869151,510.8212460763134 1118.7866838691511,521.3912460763133 1128.6566838691513,532.5912460763134 A 264.0,264.0 0.0 0,0 1148.2866838691514,552.9912460763134 A 77.31,77.31 0.0 0,1 1168.4966838691514,583.8312460763134 C 1176.1466838691515,604.6112460763134 1180.7566838691514,626.2312460763134 1185.6266838691515,647.7412460763134 A 72.0,72.0 0.0 0,1 1186.6266838691515,673.2912460763133 A 215.13,215.13 0.0 0,0 1184.6266838691515,704.9812460763134 A 154.0,154.0 0.0 0,1 1181.2866838691516,741.2512460763134 A 20.24,20.24 0.0 0,0 1181.3766838691515,751.2512460763134 C 1189.9966838691514,782.0612460763133 1196.0566838691516,813.5412460763133 1206.2266838691514,843.9412460763133 C 1211.8366838691513,860.6912460763133 1218.6866838691515,876.7212460763133 1228.4866838691514,891.5412460763133 C 1245.7966838691514,917.7112460763133 1258.3166838691513,945.9112460763133 1264.8666838691515,976.8212460763133 C 1269.2066838691514,997.3212460763133 1275.8666838691515,1017.2312460763133 1282.8666838691515,1037.0212460763132 C 1287.8666838691515,1051.2412460763132 1292.2266838691514,1065.7212460763133 1297.1066838691515,1080.0212460763132 C 1305.8866838691515,1105.7512460763132 1320.1066838691515,1128.2812460763132 1337.6666838691515,1148.9112460763133 C 1347.3466838691515,1160.2912460763134 1354.4066838691515,1173.3512460763134 1360.5566838691516,1186.9812460763133 C 1371.2366838691516,1210.6612460763133 1375.1766838691515,1236.1312460763133 1380.9266838691515,1261.1312460763133 Q 1391.8466838691515,1308.5412460763134 1402.6766838691515,1355.9912460763132 C 1406.1666838691515,1371.4112460763133 1411.1466838691515,1386.3712460763134 1416.1766838691515,1401.3112460763132 C 1421.5266838691514,1417.1912460763133 1425.2766838691514,1433.3112460763132 1425.8466838691515,1450.1912460763133 C 1426.1866838691515,1460.4612460763133 1421.8466838691515,1468.9612460763133 1417.1166838691515,1477.3212460763134 A 21.94,21.94 0.0 0,1 1404.7266838691514,1487.3212460763134 A 61.56,61.56 0.0 0,0 1386.8966838691515,1496.7412460763135 C 1377.3666838691515,1503.8112460763134 1367.0066838691514,1504.6512460763136 1356.0466838691516,1501.5612460763134 A 45.59,45.59 0.0 0,0 1334.8066838691516,1500.1812460763133 C 1324.8866838691515,1502.0012460763132 1316.8066838691516,1498.2612460763132 1311.3666838691515,1489.1812460763133 C 1303.5766838691516,1476.1812460763133 1304.9966838691516,1462.8812460763133 1309.5466838691516,1449.4312460763133 A 72.47,72.47 0.0 0,1 1313.5466838691516,1440.8512460763134 C 1321.9566838691517,1423.7512460763135 1324.0566838691516,1405.7912460763134 1322.1466838691515,1386.9112460763133 C 1319.8866838691515,1364.6012460763134 1314.4266838691515,1343.0112460763132 1309.3566838691515,1321.2912460763132 C 1306.9566838691514,1310.9812460763133 1305.0866838691516,1300.5512460763132 1302.8666838691515,1290.2012460763133 A 152.0,152.0 0.0 0,0 1288.5866838691516,1251.6812460763133 C 1280.1566838691515,1235.5112460763132 1272.4766838691517,1218.9512460763133 1264.5866838691516,1202.5112460763132 A 142.66,142.66 0.0 0,0 1244.4766838691517,1171.3612460763131 A 120.89,120.89 0.0 0,1 1231.1566838691517,1151.8512460763131 C 1214.1566838691517,1121.681246076313 1192.7866838691518,1094.6212460763131 1170.2166838691517,1068.471246076313 C 1159.9066838691517,1056.531246076313 1150.5066838691516,1043.831246076313 1139.8066838691516,1032.211246076313 A 85.76,85.76 0.0 0,1 1131.0466838691516,1020.211246076313 C 1121.4666838691517,1005.211246076313 1110.8466838691515,990.881246076313 1100.5966838691515,976.331246076313 C 1095.1266838691515,968.581246076313 1088.5966838691515,961.7912460763131 1081.7766838691516,955.141246076313 C 1070.9966838691516,944.591246076313 1060.5666838691516,933.661246076313 1050.4366838691517,922.481246076313 A 178.08,178.08 0.0 0,0 1034.1366838691517,907.3112460763131 C 1032.4966838691516,905.9012460763131 1031.2266838691517,905.8012460763131 1029.3966838691517,907.0312460763131 C 1012.0466838691518,918.6912460763131 992.3966838691518,925.6012460763131 973.1966838691518,933.201246076313 C 967.7766838691518,935.341246076313 965.0266838691518,939.201246076313 965.0066838691517,945.481246076313 A 65.36,65.36 0.0 0,0 967.2366838691518,962.201246076313 C 971.0566838691518,976.8212460763131 973.5666838691518,991.711246076313 976.3266838691518,1006.5512460763131 A 130.15,130.15 0.0 0,0 1002.8166838691518,1064.3212460763132 A 151.86,151.86 0.0 0,0 1023.6366838691519,1086.3812460763131 A 115.77,115.77 0.0 0,1 1047.7566838691516,1115.3812460763131 C 1055.2066838691517,1127.751246076313 1055.9666838691517,1141.141246076313 1054.3966838691517,1155.171246076313 C 1050.3366838691518,1191.491246076313 1037.7466838691516,1225.661246076313 1028.3966838691517,1260.6312460763131 C 1021.3966838691518,1286.731246076313 1013.0666838691518,1312.481246076313 1007.0166838691518,1338.8412460763132 C 1003.5466838691518,1353.9812460763133 1001.9266838691518,1369.5112460763132 997.2366838691519,1384.411246076313 C 994.8666838691519,1391.951246076313 991.9766838691519,1399.271246076313 989.0166838691518,1406.5812460763132 A 51.0,51.0 0.0 0,1 983.9366838691518,1415.3312460763132 A 21.17,21.17 0.0 0,1 967.0766838691518,1425.2212460763133 A 54.06,54.06 0.0 0,0 948.1766838691518,1429.6412460763133 A 39.16,39.16 0.0 0,1 930.9966838691519,1432.6912460763133 C 923.9966838691519,1432.5212460763132 916.9966838691519,1432.6912460763133 909.9966838691519,1432.6912460763133 A 47.26,47.26 0.0 0,0 895.9966838691519,1434.5312460763132 A 20.92,20.92 0.0 0,1 879.6366838691519,1432.9512460763133 C 874.4066838691518,1430.3112460763132 869.0066838691519,1428.1212460763134 863.0566838691518,1427.4412460763133 C 839.3466838691518,1424.7112460763133 836.9266838691518,1397.7812460763132 847.6766838691518,1385.5812460763134 A 47.57,47.57 0.0 0,1 860.1666838691518,1375.3312460763134 C 866.0666838691518,1372.0312460763134 871.7866838691518,1368.4612460763135 877.4066838691518,1364.6712460763133 A 57.13,57.13 0.0 0,1 897.8266838691518,1356.0112460763132 C 915.9466838691518,1352.2712460763132 928.4866838691518,1342.2112460763133 933.6366838691519,1324.1412460763133 C 940.1866838691518,1301.1412460763133 948.0466838691518,1278.6112460763134 954.7566838691519,1255.6912460763133 A 86.4,86.4 0.0 0,0 957.8466838691519,1230.2712460763132 C 957.786683869152,1225.2712460763132 957.7966838691519,1220.3612460763131 957.7466838691519,1215.4012460763133 A 15.83,15.83 0.0 0,0 957.5366838691518,1211.4012460763133 C 952.2666838691518,1192.4012460763133 946.2566838691519,1174.0012460763132 932.2366838691519,1159.0612460763134 C 918.6666838691518,1144.6012460763134 904.2366838691519,1131.0012460763135 891.0266838691518,1116.1612460763133 C 871.4266838691518,1094.0812460763134 851.1966838691518,1072.4712460763133 834.5866838691519,1048.0012460763132 C 820.0166838691518,1026.5412460763132 806.9566838691519,1004.1412460763132 801.9466838691519,978.0012460763132 A 133.84,133.84 0.0 0,0 792.8266838691519,949.7712460763132 C 783.6666838691519,928.7712460763132 778.776683869152,906.5412460763132 776.5966838691519,883.7712460763132 C 776.4866838691519,882.6412460763132 776.2766838691518,881.5312460763132 776.2266838691519,880.4112460763132 C 776.0966838691519,877.4112460763132 774.8766838691519,876.1612460763132 771.5366838691518,876.4112460763132 C 753.6466838691518,877.9412460763132 737.0466838691518,882.7312460763133 722.6966838691518,894.0912460763132 A 347.54,347.54 0.0 0,1 662.2366838691518,932.3312460763132 A 173.58,173.58 0.0 0,0 624.3966838691517,958.2012460763132 A 76.89,76.89 0.0 0,1 601.9766838691518,972.1112460763131 C 597.3966838691517,973.9812460763131 593.0666838691518,976.4512460763132 588.6066838691518,978.6112460763131 C 580.4466838691518,982.5512460763132 576.9066838691517,989.4512460763132 576.0966838691518,998.0812460763132 A 85.17,85.17 0.0 0,0 578.2966838691518,1025.6112460763131 C 580.9266838691518,1036.7712460763132 580.0566838691518,1047.461246076313 576.5566838691518,1058.211246076313 C 574.1866838691518,1065.501246076313 572.0166838691518,1072.891246076313 568.4166838691518,1079.671246076313 C 560.8666838691519,1093.8412460763132 557.2666838691518,1109.031246076313 555.6666838691518,1124.901246076313 C 553.7566838691519,1143.731246076313 551.6666838691518,1162.5412460763132 549.4966838691519,1181.3412460763132 C 545.5866838691519,1215.401246076313 539.3066838691518,1249.0612460763132 533.6866838691519,1282.8312460763132 C 532.4666838691519,1290.161246076313 531.8066838691519,1297.5812460763132 530.906683869152,1304.9612460763133 C 527.4266838691519,1333.5912460763134 522.5666838691519,1361.9612460763133 516.906683869152,1390.2712460763132 A 217.25,217.25 0.0 0,0 512.986683869152,1429.9212460763133 C 512.786683869152,1441.7712460763132 511.19668386915197,1453.2212460763133 506.226683869152,1464.1312460763133 A 54.75,54.75 0.0 0,0 501.526683869152,1487.8312460763134 C 501.62668386915203,1494.5912460763134 501.706683869152,1501.3512460763134 501.856683869152,1508.1212460763134 A 143.14,143.14 0.0 0,1 498.94668386915197,1539.0012460763135 A 247.94,247.94 0.0 0,0 494.666683869152,1591.4512460763135 A 124.5,124.5 0.0 0,1 490.666683869152,1624.2412460763135 C 488.486683869152,1632.9412460763135 484.666683869152,1640.6912460763135 477.546683869152,1646.5912460763134 A 35.58,35.58 0.0 0,1 469.07668386915196,1652.0612460763134 A 137.76,137.76 0.0 0,1 452.53668386915194,1657.9512460763135 C 445.79668386915193,1659.9512460763135 439.14668386915196,1660.0412460763134 432.7466838691519,1657.0212460763134 C 426.3466838691519,1654.0012460763135 419.91668386915194,1654.0212460763134 413.0766838691519,1656.0212460763134 C 403.6266838691519,1658.8612460763134 394.1866838691519,1662.0212460763134 384.0266838691519,1661.7312460763135 C 374.5066838691519,1661.4212460763135 365.8266838691519,1658.9612460763135 358.1666838691519,1653.1812460763135 C 356.36668386915187,1651.8212460763136 354.55668386915187,1650.4712460763135 352.6566838691519,1649.2612460763135 C 344.8166838691519,1644.2612460763135 342.2266838691519,1637.0312460763134 343.9466838691519,1628.2612460763135 C 346.9466838691519,1612.7212460763135 354.1966838691519,1599.5212460763134 366.7466838691519,1589.5112460763135 C 370.6166838691519,1586.4212460763135 374.47668386915194,1583.3012460763134 378.3366838691519,1580.1912460763135 C 383.4066838691519,1576.1112460763136 387.0866838691519,1571.1912460763135 388.11668386915187,1564.5612460763134 C 389.49668386915187,1555.6512460763133 391.11668386915187,1546.7912460763134 392.57668386915185,1537.9012460763133 C 395.7366838691519,1519.0012460763132 399.9266838691519,1500.3112460763134 403.84668386915183,1481.5712460763134 C 407.7266838691518,1463.0112460763135 409.64668386915184,1444.1812460763133 411.08668386915184,1425.2812460763134 C 412.57668386915185,1405.7412460763135 414.34668386915183,1386.2012460763135 417.53668386915183,1366.8312460763134 A 136.15,136.15 0.0 0,1 422.6866838691518,1346.5412460763134 C 428.5466838691518,1328.7112460763135 431.84668386915183,1310.3012460763134 435.03668386915183,1291.8712460763134 A 15.33,15.33 0.0 0,0 435.3066838691518,1289.1812460763133 C 435.0866838691518,1254.7112460763133 437.9866838691518,1220.2512460763132 434.8766838691518,1185.7712460763132 C 433.3766838691518,1169.1612460763133 433.1766838691518,1152.5012460763132 435.3666838691518,1135.8412460763132 A 130.12,130.12 0.0 0,0 427.4466838691518,1070.7612460763132 C 424.2566838691518,1062.5812460763132 421.7066838691518,1054.1512460763133 418.1466838691518,1046.1012460763131 C 415.0266838691518,1039.0312460763132 413.5066838691518,1031.5012460763132 412.42668386915176,1023.9012460763131 C 411.68668386915175,1018.7212460763132 409.8466838691518,1015.461246076313 403.97668386915177,1014.3912460763131 C 396.4666838691518,1013.0112460763131 389.1566838691518,1010.5512460763131 381.5766838691518,1009.3212460763131 A 85.07,85.07 0.0 0,1 361.0066838691518,1002.8112460763131 C 351.5266838691518,998.6312460763131 342.0066838691518,994.5612460763131 332.5766838691518,990.211246076313 C 323.9566838691518,986.211246076313 315.2666838691518,982.641246076313 305.7066838691518,981.5312460763131 C 300.5266838691518,980.9312460763131 295.7066838691518,978.7712460763131 290.8666838691518,976.9912460763131 C 288.8066838691518,976.2612460763131 286.8666838691518,974.9212460763131 284.33668386915184,975.1112460763131 L 284.33668386915116,975.1112460763134"/>
</svg>
