<?xml version="1.0" ?>
<svg xmlns="http://www.w3.org/2000/svg" xmlns:ev="http://www.w3.org/2001/xml-events" xmlns:xlink="http://www.w3.org/1999/xlink" baseProfile="full" data-name="Layer 1" height="1305" transform="scale(0.07662835249042145 0.07662835249042145) translate(-859.0 -652.5)" version="1.1" viewBox="0 0 1718 1305" width="1718">
	<defs/>
	<path d="M 650.4239707668072,889.3944320945978 C 646.2639707668072,893.1744320945978 641.4239707668072,895.5044320945979 636.8639707668073,898.2244320945979 A 43.66,43.66 0.0 0,0 626.9539707668073,906.4944320945979 C 624.2039707668073,909.4944320945979 622.3839707668072,913.0544320945978 622.9539707668073,917.1444320945978 C 624.3039707668073,927.4944320945979 621.4139707668073,937.2044320945978 618.5039707668072,946.8144320945978 C 613.4439707668073,963.5144320945979 611.5039707668072,980.5644320945978 611.4239707668072,997.9244320945978 A 229.36,229.36 0.0 0,1 608.4239707668072,1033.5544320945978 C 605.7239707668072,1050.0844320945978 605.2139707668072,1066.6544320945977 604.6339707668072,1083.3144320945978 C 603.9339707668072,1103.454432094598 599.7039707668073,1122.8644320945978 589.2339707668073,1140.474432094598 A 62.12,62.12 0.0 0,1 584.4139707668072,1147.624432094598 C 576.2539707668072,1157.804432094598 571.5739707668072,1169.534432094598 568.6039707668073,1182.094432094598 C 566.2439707668073,1192.094432094598 563.3639707668073,1202.094432094598 558.8239707668073,1211.294432094598 C 552.0839707668073,1224.984432094598 547.4939707668073,1239.514432094598 541.4339707668073,1253.4744320945981 C 538.7139707668073,1259.7144320945981 535.4839707668073,1264.814432094598 529.2739707668073,1268.264432094598 C 521.6439707668073,1272.514432094598 513.9839707668074,1276.264432094598 505.2739707668073,1277.574432094598 C 498.1539707668073,1278.644432094598 491.0739707668073,1280.004432094598 483.9339707668073,1280.884432094598 A 115.54,115.54 0.0 0,0 462.2239707668073,1285.324432094598 A 39.84,39.84 0.0 0,1 436.76397076680735,1285.104432094598 C 432.68397076680736,1283.744432094598 428.37397076680736,1283.104432094598 424.1739707668074,1282.104432094598 A 37.14,37.14 0.0 0,1 418.2339707668074,1280.504432094598 C 405.6739707668074,1275.1744320945982 400.61397076680737,1265.804432094598 405.9539707668074,1252.7044320945981 C 411.8539707668074,1238.2244320945981 422.4139707668074,1228.3444320945982 437.5039707668074,1223.5844320945982 A 22.0,22.0 0.0 0,0 442.7139707668074,1221.6944320945981 C 451.2139707668074,1216.3444320945982 460.8439707668074,1214.1344320945982 470.2839707668074,1211.234432094598 C 481.5139707668074,1207.784432094598 489.5839707668074,1200.754432094598 493.5239707668074,1189.234432094598 C 495.3839707668074,1183.804432094598 497.9539707668074,1178.6144320945982 500.3539707668074,1173.3844320945982 A 142.73,142.73 0.0 0,0 512.9339707668074,1123.3844320945982 A 347.0,347.0 0.0 0,0 513.3239707668074,1080.8444320945982 C 512.2139707668074,1059.3944320945982 514.5539707668074,1038.1344320945982 518.0939707668074,1016.9744320945982 C 521.7139707668074,995.4144320945983 520.6939707668074,973.9744320945982 515.9339707668074,952.6444320945982 C 512.9839707668074,939.3944320945982 510.18397076680736,926.1144320945982 507.2239707668074,912.8744320945982 C 503.9439707668074,898.1544320945982 502.68397076680736,883.2044320945982 501.80397076680737,868.2044320945982 A 161.33,161.33 0.0 0,0 499.00397076680736,844.9744320945982 C 496.4139707668074,832.4144320945983 489.20397076680734,822.9744320945982 480.11397076680737,814.6444320945982 A 238.87,238.87 0.0 0,0 449.88397076680735,791.2444320945982 A 123.37,123.37 0.0 0,1 413.57397076680735,754.7844320945982 A 70.44,70.44 0.0 0,0 403.57397076680735,742.2844320945982 A 57.72,57.72 0.0 0,1 395.57397076680735,732.1044320945982 C 390.19397076680735,723.8244320945983 384.94397076680735,715.4544320945982 379.4139707668073,707.2744320945982 C 374.1039707668073,699.4244320945982 371.2939707668073,690.7144320945982 369.76397076680735,681.4944320945982 C 369.1639707668073,677.8444320945982 368.43397076680736,674.2044320945982 367.88397076680735,670.4944320945982 C 365.7239707668073,656.1744320945982 358.07397076680735,644.4944320945982 349.9739707668073,632.9944320945982 C 343.0639707668073,623.2344320945982 334.9139707668073,614.4944320945982 326.38397076680735,606.1344320945982 C 320.02397076680734,599.9144320945982 314.38397076680735,593.2544320945982 310.2939707668074,585.2144320945982 C 304.1539707668074,572.9744320945982 295.56397076680736,562.4544320945982 286.49397076680737,552.3144320945983 C 281.55397076680737,546.7944320945983 276.70397076680734,541.1844320945983 271.6739707668074,535.7544320945983 C 265.0339707668074,528.5744320945984 260.1739707668074,520.2344320945983 255.6739707668074,511.6444320945983 A 175.37,175.37 0.0 0,0 236.1339707668074,482.5644320945983 C 227.6339707668074,472.0044320945983 219.43397076680742,461.1844320945983 212.84397076680742,449.23443209459833 C 205.46397076680742,435.84443209459835 202.27397076680742,421.7444320945983 203.84397076680742,406.48443209459833 C 204.77397076680742,397.48443209459833 205.6939707668074,388.48443209459833 203.30397076680742,379.48443209459833 C 202.04397076680743,374.7644320945983 203.95397076680743,370.14443209459836 205.45397076680743,365.64443209459836 C 206.82397076680743,361.54443209459833 208.64397076680743,357.58443209459836 209.21397076680742,353.26443209459836 C 209.98397076680743,347.4944320945984 209.29397076680743,346.66443209459834 203.77397076680742,345.03443209459834 C 186.51397076680743,339.94443209459837 168.77397076680742,338.03443209459834 150.94397076680744,336.1244320945983 C 127.20397076680743,333.6544320945983 103.47397076680743,331.3244320945983 79.62397076680743,330.2544320945983 A 61.5,61.5 0.0 0,1 64.51397076680743,327.3444320945983 A 211.8,211.8 0.0 0,1 36.90397076680744,316.6944320945983 A 42.45,42.45 0.0 0,1 24.123970766807435,308.2044320945983 C 17.813970766807437,301.7844320945983 16.373970766807435,293.5844320945983 20.233970766807435,285.5244320945983 C 25.643970766807435,274.2144320945983 34.08397076680744,266.2244320945983 46.113970766807434,262.3144320945983 C 50.02397076680743,261.04443209459833 53.97397076680743,259.85443209459834 57.97397076680743,258.9444320945983 A 75.25,75.25 0.0 0,0 75.39397076680743,252.82443209459834 A 118.39,118.39 0.0 0,1 114.20397076680743,241.31443209459835 C 124.99397076680744,239.93443209459835 135.38397076680744,236.48443209459833 146.27397076680745,235.39443209459836 C 146.18397076680745,233.02443209459835 144.54397076680746,232.85443209459837 143.41397076680744,232.27443209459835 A 130.06,130.06 0.0 0,0 111.41397076680742,221.27443209459835 C 97.14397076680743,218.15443209459835 82.87397076680743,215.05443209459835 68.72397076680743,211.48443209459836 C 35.72397076680743,203.17443209459836 14.50397076680743,181.80443209459835 2.83397076680743,150.48443209459836 C -0.9160292331925701,140.42443209459836 -0.58602923319257,129.91443209459837 1.7439707668074298,119.48443209459836 C 2.9439707668074298,114.13443209459837 6.31397076680743,110.90443209459836 11.193970766807428,108.95443209459836 A 26.94,26.94 0.0 0,1 24.483970766807428,106.95443209459836 C 44.48397076680743,109.34443209459836 64.73397076680742,109.13443209459837 84.78397076680743,111.40443209459836 C 95.43397076680743,112.60443209459837 105.97397076680743,114.06443209459836 116.32397076680742,116.98443209459836 A 140.15,140.15 0.0 0,0 154.02397076680742,122.62443209459836 C 167.13397076680744,122.69443209459835 177.54397076680743,116.51443209459836 185.93397076680742,107.49443209459837 C 192.58397076680743,100.33443209459837 200.0439707668074,95.75443209459837 209.42397076680743,93.87443209459836 A 239.34,239.34 0.0 0,0 235.12397076680742,87.35443209459837 A 41.16,41.16 0.0 0,1 245.4139707668074,85.46443209459837 C 249.93397076680742,85.21443209459837 254.4139707668074,84.87443209459836 258.9739707668074,84.71443209459837 C 284.2539707668074,83.81443209459836 284.2539707668074,83.82443209459836 306.3839707668074,72.42443209459836 A 19.06,19.06 0.0 0,0 314.5539707668074,65.16443209459835 A 24.25,24.25 0.0 0,1 328.2039707668074,54.084432094598355 A 18.06,18.06 0.0 0,0 338.6839707668074,45.93443209459836 C 346.47397076680744,32.20443209459836 358.7739707668074,23.354432094598355 371.5639707668074,14.934432094598353 C 377.3739707668074,11.104432094598353 383.73397076680743,8.094432094598353 388.7639707668074,3.044432094598353 C 391.5039707668074,0.2944320945983532 395.3339707668074,-0.1655679054016468 399.1639707668074,0.04443209459835318 A 8.35,8.35 0.0 0,1 406.7339707668074,5.4744320945983524 A 19.86,19.86 0.0 0,1 408.06397076680736,15.164432094598352 C 407.61397076680737,20.69443209459835 407.20397076680734,26.254432094598354 406.38397076680735,31.73443209459835 C 403.68397076680736,49.95443209459835 403.74397076680737,68.31443209459835 404.9139707668073,86.55443209459835 C 405.6039707668073,97.38443209459835 407.3139707668073,108.15443209459835 407.1839707668073,119.07443209459836 A 16.0,16.0 0.0 0,0 410.0139707668073,128.40443209459838 A 19.49,19.49 0.0 0,1 412.7139707668073,146.05443209459838 C 410.3339707668073,153.8244320945984 411.5839707668073,161.1044320945984 415.2139707668073,168.1344320945984 C 421.60397076680727,180.5144320945984 429.8939707668073,191.86443209459838 440.2139707668073,200.7944320945984 C 450.5339707668073,209.7244320945984 460.8239707668073,219.1044320945984 472.5039707668073,226.5044320945984 C 485.5039707668073,234.7244320945984 496.5039707668073,245.1044320945984 507.1139707668073,256.1244320945984 A 128.17,128.17 0.0 0,0 539.7539707668074,281.1244320945984 A 70.0,70.0 0.0 0,0 567.3439707668074,289.1844320945984 C 575.5439707668074,289.8444320945984 583.7139707668074,290.7444320945984 591.8939707668073,291.64443209459836 A 86.22,86.22 0.0 0,1 626.2039707668073,303.00443209459837 C 641.2739707668073,311.77443209459835 657.5439707668073,316.14443209459836 674.8439707668073,317.34443209459835 C 690.2339707668073,318.41443209459834 705.5839707668073,319.95443209459836 720.8439707668073,322.27443209459835 C 730.6239707668072,323.76443209459836 740.5239707668072,323.78443209459834 750.3939707668072,324.10443209459834 A 22.55,22.55 0.0 0,0 757.0339707668072,322.9444320945983 C 784.6939707668072,315.3944320945983 812.6639707668072,310.3044320945983 841.5139707668072,310.0144320945983 A 648.18,648.18 0.0 0,0 916.5739707668072,305.0144320945983 C 931.8939707668072,303.0644320945983 947.0539707668072,300.2944320945983 962.3139707668072,298.0844320945983 C 990.8339707668072,293.9644320945983 1019.4639707668072,290.8544320945983 1048.3139707668072,291.5544320945983 C 1070.7439707668073,292.10443209459834 1093.1439707668071,290.91443209459834 1115.5739707668072,290.97443209459834 A 405.45,405.45 0.0 0,1 1221.653970766807,305.0544320945983 A 833.57,833.57 0.0 0,1 1309.3839707668071,334.2644320945983 C 1354.2839707668072,352.0244320945983 1392.463970766807,378.98443209459833 1423.733970766807,415.8344320945983 C 1436.3739707668071,430.7344320945983 1448.953970766807,445.7444320945983 1462.463970766807,459.8344320945983 C 1475.1339707668071,473.0344320945983 1487.463970766807,486.6044320945983 1500.463970766807,499.4144320945983 A 22.0,22.0 0.0 0,0 1505.1439707668071,503.4144320945983 C 1515.233970766807,508.81443209459826 1521.8939707668071,517.8444320945982 1529.3139707668072,526.0544320945983 A 28.47,28.47 0.0 0,1 1535.6339707668071,537.9644320945982 C 1537.8039707668072,546.1844320945983 1541.5239707668072,553.7544320945982 1544.8039707668072,561.5044320945982 C 1548.0839707668072,569.2544320945982 1549.5839707668072,577.2244320945982 1550.7339707668073,585.3744320945982 C 1551.1039707668072,587.9944320945982 1551.4039707668073,590.8944320945982 1550.6739707668073,593.3744320945982 C 1549.1439707668073,598.5144320945982 1550.4839707668073,603.0644320945983 1552.1739707668073,607.7544320945982 C 1555.9639707668073,618.2944320945982 1557.5139707668072,629.2844320945982 1558.5839707668074,640.3544320945982 C 1559.1639707668073,646.3544320945982 1558.5839707668074,652.2444320945982 1555.4739707668075,657.6844320945983 A 15.45,15.45 0.0 0,0 1553.7339707668075,662.9144320945983 A 89.94,89.94 0.0 0,1 1549.9239707668075,677.8344320945982 A 44.88,44.88 0.0 0,0 1547.3739707668076,695.3644320945982 C 1547.9239707668075,703.8944320945982 1545.3739707668076,712.0944320945982 1542.2839707668077,719.9444320945983 A 79.77,79.77 0.0 0,0 1537.2839707668077,738.9444320945983 C 1536.8139707668076,742.6044320945982 1535.9739707668077,746.2244320945982 1535.1539707668076,749.8244320945983 C 1534.2339707668075,753.8244320945983 1532.2239707668075,757.1544320945983 1528.2839707668077,758.7644320945983 C 1525.7639707668077,759.7644320945983 1524.9639707668077,761.4644320945984 1525.1439707668076,764.0344320945983 A 59.0,59.0 0.0 0,0 1532.9739707668075,789.1344320945983 A 7.37,7.37 0.0 0,0 1540.0639707668074,793.1344320945983 C 1549.5339707668074,793.0044320945983 1559.0639707668074,793.5644320945983 1568.4539707668075,792.9144320945983 C 1597.5239707668075,790.9144320945983 1623.9039707668076,798.3544320945983 1647.8039707668074,814.7444320945983 C 1674.1039707668074,832.7444320945983 1694.4339707668075,856.2144320945984 1709.1639707668073,884.4244320945984 C 1715.5739707668074,896.6944320945984 1718.0039707668072,910.2844320945984 1717.3639707668074,923.9044320945984 C 1716.7039707668073,937.9044320945984 1710.1739707668073,950.0444320945984 1700.0939707668074,959.7944320945984 A 110.13,110.13 0.0 0,1 1674.8139707668074,978.4044320945984 C 1665.6439707668073,983.2144320945984 1655.5439707668074,985.4644320945984 1645.6139707668074,988.0444320945984 C 1638.2639707668075,989.9544320945984 1630.7139707668073,991.0444320945984 1623.4739707668073,993.4944320945984 C 1612.3339707668072,997.2844320945984 1602.4739707668073,994.0044320945984 1593.1239707668074,987.8544320945985 C 1590.0339707668074,985.8544320945985 1586.8839707668074,983.8544320945985 1583.7239707668073,981.9544320945985 C 1582.2339707668073,981.0344320945985 1580.9639707668073,981.2744320945985 1580.2539707668072,983.0144320945984 C 1578.3139707668072,987.7644320945984 1575.3839707668074,991.4044320945984 1570.3639707668071,993.3744320945984 C 1563.2439707668073,996.1544320945984 1556.0839707668072,997.1144320945984 1548.6039707668072,995.4344320945984 C 1545.7939707668072,994.7944320945984 1542.9939707668073,994.1444320945984 1540.183970766807,993.5144320945984 C 1536.253970766807,992.6244320945984 1532.953970766807,993.4144320945984 1530.263970766807,996.6944320945984 C 1525.933970766807,1001.9744320945983 1520.193970766807,1004.3044320945984 1513.413970766807,1004.2244320945983 C 1509.713970766807,1004.2244320945983 1505.8739707668071,1004.7544320945983 1502.3339707668072,1003.9844320945983 C 1495.4839707668073,1002.4844320945983 1488.8139707668072,1003.1444320945983 1482.183970766807,1004.6044320945983 C 1476.3439707668072,1005.9044320945983 1471.703970766807,1004.2544320945983 1467.5639707668072,1000.2444320945983 A 91.76,91.76 0.0 0,0 1455.3939707668071,989.8144320945984 C 1453.2739707668072,988.3944320945984 1451.0839707668072,987.2544320945984 1448.473970766807,988.0344320945984 C 1438.943970766807,990.8644320945984 1430.163970766807,989.5544320945984 1422.6139707668071,983.0344320945984 C 1420.7739707668072,984.7644320945984 1421.7639707668072,986.1244320945984 1422.213970766807,987.3344320945984 C 1423.3739707668071,990.4144320945984 1424.563970766807,993.4844320945983 1425.973970766807,996.4444320945984 A 148.67,148.67 0.0 0,0 1438.693970766807,1019.0044320945983 C 1446.8639707668071,1030.5044320945983 1448.453970766807,1043.2644320945983 1446.783970766807,1056.6744320945984 C 1444.243970766807,1077.1044320945985 1440.393970766807,1097.2944320945983 1433.783970766807,1116.8744320945984 C 1429.503970766807,1129.6044320945985 1427.053970766807,1142.7544320945985 1425.1539707668069,1155.9744320945983 C 1423.823970766807,1165.1544320945984 1422.5039707668068,1174.2944320945983 1419.4439707668068,1183.0744320945983 C 1415.363970766807,1194.7944320945983 1413.4439707668068,1206.9844320945983 1411.7239707668068,1219.1844320945982 C 1409.2339707668068,1236.8244320945983 1403.1539707668069,1253.4644320945981 1397.9639707668068,1270.3544320945982 C 1394.4739707668068,1281.7344320945983 1386.6639707668069,1288.9544320945981 1375.6939707668068,1293.4744320945981 A 62.14,62.14 0.0 0,1 1339.4539707668068,1297.4744320945981 A 67.29,67.29 0.0 0,0 1316.7639707668068,1296.574432094598 A 35.58,35.58 0.0 0,1 1307.5439707668068,1296.734432094598 C 1294.9039707668067,1295.2044320945981 1288.1439707668067,1284.814432094598 1291.7539707668068,1272.6344320945982 C 1294.5939707668067,1263.0744320945983 1300.6239707668067,1255.4644320945981 1307.4839707668068,1248.6344320945982 C 1315.9139707668069,1240.1844320945982 1324.9239707668069,1232.2844320945983 1335.373970766807,1226.3444320945982 C 1345.533970766807,1220.5644320945983 1352.373970766807,1212.3444320945982 1355.763970766807,1201.1244320945982 C 1357.253970766807,1196.2044320945981 1359.063970766807,1191.3844320945982 1360.763970766807,1186.5244320945983 A 90.5,90.5 0.0 0,0 1365.943970766807,1159.9944320945983 C 1366.0839707668072,1155.4844320945983 1366.773970766807,1150.9944320945983 1367.3639707668071,1146.4944320945983 A 106.86,106.86 0.0 0,0 1364.663970766807,1105.4944320945983 A 243.66,243.66 0.0 0,1 1358.663970766807,1069.6344320945984 C 1357.8039707668072,1061.3144320945985 1355.0939707668072,1051.8244320945985 1351.663970766807,1046.4544320945984 C 1347.903970766807,1053.7944320945983 1343.8339707668072,1060.6744320945984 1341.3439707668072,1068.2744320945983 C 1336.5439707668072,1082.9444320945984 1330.4939707668073,1097.1444320945982 1325.0139707668072,1111.5444320945983 C 1318.1739707668073,1129.5444320945983 1308.1639707668073,1145.8444320945982 1297.0139707668072,1161.5444320945983 A 360.22,360.22 0.0 0,0 1277.1439707668073,1192.0244320945983 A 141.65,141.65 0.0 0,1 1255.1439707668073,1220.9144320945984 A 32.86,32.86 0.0 0,1 1236.2739707668075,1230.5844320945985 A 125.67,125.67 0.0 0,0 1220.5639707668074,1233.7844320945985 A 51.79,51.79 0.0 0,1 1186.0939707668074,1232.1244320945984 A 34.39,34.39 0.0 0,0 1167.3939707668073,1229.7344320945983 A 54.73,54.73 0.0 0,1 1161.2439707668073,1230.1044320945982 C 1151.9839707668073,1230.5244320945983 1144.3939707668073,1227.2444320945983 1140.3839707668074,1218.7144320945981 C 1136.3739707668074,1210.184432094598 1138.1439707668073,1201.804432094598 1143.5239707668075,1194.254432094598 A 44.0,44.0 0.0 0,1 1152.0239707668075,1185.344432094598 C 1161.7139707668075,1177.664432094598 1172.4639707668075,1172.344432094598 1184.9439707668075,1171.014432094598 C 1190.8639707668076,1170.364432094598 1196.7539707668075,1169.344432094598 1202.6739707668075,1168.6544320945982 A 35.74,35.74 0.0 0,0 1228.1839707668075,1154.0744320945983 C 1239.4439707668075,1138.8244320945983 1249.0539707668074,1122.7344320945983 1255.5439707668074,1104.6744320945982 C 1261.5439707668074,1087.8544320945982 1263.2639707668075,1070.9244320945982 1262.7739707668075,1053.2044320945981 C 1262.3239707668074,1037.2044320945981 1261.1639707668076,1021.4344320945982 1254.6539707668076,1006.7544320945981 C 1247.9339707668075,991.5944320945981 1241.7239707668075,976.0944320945981 1230.4439707668075,963.3344320945981 A 400.0,400.0 0.0 0,0 1197.2539707668075,929.3344320945981 A 26.85,26.85 0.0 0,0 1191.0839707668074,925.2844320945982 C 1183.0839707668074,921.4844320945982 1176.2939707668074,916.2844320945982 1171.4239707668073,908.8644320945982 C 1165.1239707668074,899.3244320945983 1156.9439707668073,891.5144320945982 1148.9739707668073,883.5044320945982 A 85.55,85.55 0.0 0,1 1129.1139707668074,852.6244320945982 C 1125.6739707668073,843.3744320945982 1121.8439707668074,834.2744320945982 1117.9939707668075,825.1844320945982 C 1114.1439707668076,816.0944320945981 1108.4239707668075,808.3944320945982 1103.1439707668076,800.3244320945981 A 79.9,79.9 0.0 0,1 1091.6539707668076,773.2444320945981 A 118.07,118.07 0.0 0,0 1085.3239707668076,753.914432094598 C 1084.0939707668076,750.914432094598 1082.1639707668076,749.6044320945981 1078.7539707668077,749.574432094598 C 1067.5739707668076,749.484432094598 1056.6839707668078,750.134432094598 1046.0939707668076,754.574432094598 A 155.64,155.64 0.0 0,1 1014.8839707668076,764.124432094598 C 1007.1939707668075,765.604432094598 1000.0039707668076,768.874432094598 992.9739707668076,772.314432094598 C 980.4439707668076,778.444432094598 967.4739707668076,781.434432094598 953.5139707668076,778.7544320945981 C 950.2539707668076,778.1344320945981 946.9639707668076,778.6144320945981 943.6839707668075,779.0144320945981 C 930.5539707668075,780.5944320945981 918.1539707668076,778.6344320945981 907.3539707668075,770.544432094598 C 900.6639707668074,765.544432094598 893.3539707668075,764.8944320945981 885.6539707668074,766.544432094598 C 877.8139707668074,768.224432094598 870.0639707668074,770.1244320945981 861.9539707668074,770.224432094598 C 855.9539707668074,770.294432094598 852.3939707668075,773.594432094598 850.2439707668074,779.354432094598 C 846.3339707668074,789.854432094598 843.7139707668074,800.354432094598 843.7239707668074,811.764432094598 C 843.7239707668074,819.534432094598 841.4339707668074,827.204432094598 838.7239707668074,834.5644320945979 A 144.23,144.23 0.0 0,0 831.6239707668074,864.514432094598 A 58.58,58.58 0.0 0,1 824.5439707668073,886.0544320945979 C 820.1739707668073,893.7344320945979 815.5439707668073,901.274432094598 810.8839707668074,908.784432094598 A 83.25,83.25 0.0 0,0 799.0039707668074,940.9444320945979 A 180.23,180.23 0.0 0,1 793.0039707668074,966.764432094598 A 56.26,56.26 0.0 0,0 791.2739707668073,989.3244320945979 Q 795.0339707668073,1025.5344320945978 797.0539707668073,1061.884432094598 A 118.4,118.4 0.0 0,1 794.7939707668073,1093.194432094598 C 793.4439707668073,1099.5144320945979 793.9639707668073,1105.894432094598 794.2339707668074,1112.2644320945979 A 226.81,226.81 0.0 0,1 793.2339707668074,1141.154432094598 C 792.1639707668073,1153.684432094598 788.0239707668073,1165.154432094598 784.2339707668074,1176.7744320945978 C 778.3339707668074,1194.8344320945978 774.3939707668073,1213.3644320945978 773.6039707668074,1232.3444320945978 C 773.0139707668073,1246.5744320945978 769.5139707668073,1259.8944320945977 764.1839707668074,1272.9444320945977 C 760.1239707668075,1282.9444320945977 753.0439707668074,1289.5044320945976 743.0639707668074,1293.2344320945977 A 98.0,98.0 0.0 0,1 717.2339707668074,1298.9144320945977 A 85.0,85.0 0.0 0,0 700.8439707668074,1301.7644320945976 A 56.59,56.59 0.0 0,1 670.3839707668074,1302.4944320945976 A 71.33,71.33 0.0 0,0 649.6739707668073,1300.0844320945976 C 638.0039707668074,1300.5344320945976 630.6039707668073,1290.8044320945976 633.3839707668074,1279.4644320945977 A 32.34,32.34 0.0 0,1 642.5939707668074,1263.6944320945977 C 647.0239707668073,1259.4044320945977 651.5239707668073,1255.1844320945977 655.9239707668074,1250.8644320945978 C 662.3139707668074,1244.5944320945978 669.9239707668074,1240.1144320945978 677.6139707668075,1235.7044320945977 A 50.38,50.38 0.0 0,0 695.1039707668075,1219.5044320945976 A 46.22,46.22 0.0 0,0 701.6439707668075,1203.0044320945976 C 705.7139707668075,1182.6944320945977 706.3339707668075,1162.1744320945977 705.8239707668074,1141.5644320945976 C 705.6039707668074,1132.9344320945975 705.5839707668074,1124.2944320945976 705.1939707668074,1115.6644320945975 C 704.6439707668075,1103.4244320945975 701.1939707668074,1091.6644320945975 697.4439707668074,1080.2044320945975 C 691.1739707668074,1060.9944320945974 689.1339707668075,1041.3044320945974 688.2939707668074,1021.2844320945975 A 191.49,191.49 0.0 0,0 674.1839707668074,956.4844320945975 C 666.4739707668074,937.6244320945975 658.8739707668075,918.7644320945975 654.1039707668074,898.8844320945975 C 653.4839707668074,895.6544320945975 652.7139707668074,892.4344320945975 650.4239707668074,889.3944320945975 L 650.4239707668072,889.3944320945978"/>
</svg>
