<?xml version="1.0" ?>
<svg xmlns="http://www.w3.org/2000/svg" xmlns:ev="http://www.w3.org/2001/xml-events" xmlns:xlink="http://www.w3.org/1999/xlink" baseProfile="full" data-name="Layer 1" height="1491" transform="scale(0.0670690811535882 0.0670690811535882) translate(-865.5 -745.5)" version="1.1" viewBox="0 0 1731 1491" width="1731">
	<defs/>
	<path d="M 468.61383432028595,1379.9525491546387 C 459.3238343202859,1391.3625491546388 450.00383432028593,1402.8225491546386 448.16383432028596,1418.8025491546387 A 88.41,88.41 0.0 0,1 439.23383432028595,1449.6325491546386 C 434.40383432028597,1458.9525491546385 427.50383432028593,1465.8625491546386 417.81383432028593,1469.8425491546386 C 401.67383432028595,1476.4725491546387 384.7138343202859,1479.0225491546387 367.40383432028597,1479.4625491546385 C 360.40383432028597,1479.6425491546386 353.703834320286,1477.4625491546385 346.99383432028594,1475.7725491546385 A 142.28,142.28 0.0 0,0 327.99383432028594,1472.3725491546384 C 309.91383432028596,1470.3725491546384 303.6438343202859,1459.3725491546384 310.72383432028596,1442.5925491546384 A 48.54,48.54 0.0 0,1 315.72383432028596,1433.9125491546383 A 38.27,38.27 0.0 0,0 321.61383432028595,1422.4925491546383 C 323.833834320286,1414.4325491546383 328.37383432028594,1407.7325491546383 333.68383432028594,1401.4925491546383 A 121.42,121.42 0.0 0,0 347.12383432028594,1382.9325491546383 C 352.53383432028596,1373.4725491546383 360.5738343202859,1368.4125491546383 371.40383432028597,1367.3425491546384 A 72.0,72.0 0.0 0,0 383.30383432028594,1364.8425491546384 C 391.9538343202859,1362.4725491546385 397.77383432028597,1357.3425491546384 400.54383432028595,1348.3925491546383 C 404.24383432028594,1336.3925491546383 406.02383432028597,1324.2025491546383 407.54383432028595,1311.8525491546384 C 411.75383432028593,1277.5425491546384 408.263834320286,1243.6025491546384 402.40383432028597,1209.8525491546384 C 399.40383432028597,1192.3825491546384 398.27383432028597,1174.7425491546385 396.40383432028597,1157.1625491546383 C 393.92383432028595,1134.1625491546383 390.22383432028596,1111.2525491546382 386.60383432028596,1088.3525491546384 A 348.92,348.92 0.0 0,0 354.143834320286,987.1125491546383 C 350.563834320286,979.8825491546382 347.29383432028595,972.3725491546383 339.53383432028596,968.1925491546383 C 337.013834320286,966.8425491546383 335.79383432028595,963.8725491546383 334.71383432028597,961.1925491546383 C 327.71383432028597,943.8825491546384 318.53383432028596,927.6125491546383 310.90383432028597,910.6025491546383 A 148.56,148.56 0.0 0,1 299.49383432028594,870.1125491546383 A 189.22,189.22 0.0 0,0 290.10383432028596,831.9125491546382 C 289.10383432028596,829.0325491546382 288.17383432028595,826.2325491546383 283.8838343202859,826.2825491546382 C 280.24383432028594,826.2825491546382 279.0838343202859,822.7325491546383 277.98383432028595,819.8425491546382 A 225.44,225.44 0.0 0,1 268.31383432028593,786.8425491546382 A 446.32,446.32 0.0 0,1 258.0238343202859,708.0525491546382 C 257.50383432028593,693.2625491546382 256.0838343202859,678.4925491546383 255.02383432028594,663.7225491546382 A 43.78,43.78 0.0 0,0 252.65383432028594,652.5225491546381 C 247.13383432028593,636.7525491546381 245.47383432028593,620.3625491546381 245.44383432028593,603.8325491546381 C 245.44383432028593,589.892549154638 244.83383432028592,576.232549154638 240.09383432028594,562.8325491546381 C 236.38383432028593,552.362549154638 235.78383432028593,541.1625491546381 236.75383432028593,530.2025491546381 C 238.31383432028593,512.5825491546381 235.50383432028593,496.12254915463814 227.27383432028594,480.3925491546381 C 215.84383432028594,458.5225491546381 214.03383432028593,434.74254915463814 214.49383432028594,410.6325491546381 C 214.78383432028593,395.80254915463814 215.38383432028593,380.9725491546381 210.70383432028595,366.5725491546381 C 208.95383432028595,361.2025491546381 208.20383432028595,355.3325491546381 200.99383432028594,353.86254915463815 C 198.46383432028594,353.34254915463816 197.35383432028596,350.25254915463813 196.14383432028595,347.86254915463815 A 76.08,76.08 0.0 0,1 188.14383432028595,316.86254915463815 C 187.41383432028596,303.73254915463815 187.00383432028596,290.59254915463816 186.51383432028595,277.46254915463817 C 186.13383432028596,267.67254915463815 185.51383432028595,267.09254915463816 176.01383432028595,269.84254915463816 A 52.45,52.45 0.0 0,0 156.39383432028595,279.9425491546382 A 166.29,166.29 0.0 0,0 140.61383432028595,295.6825491546382 C 131.34383432028594,305.9325491546382 120.61383432028593,313.5125491546382 106.04383432028594,313.5325491546382 A 58.58,58.58 0.0 0,1 82.92383432028593,309.2125491546382 C 71.68383432028594,304.45254915463823 60.08383432028593,302.81254915463825 47.923834320285934,302.95254915463823 C 30.45383432028594,303.1525491546382 16.443834320285937,294.50254915463825 3.393834320285935,284.01254915463824 C 0.14383432028593512,281.39254915463823 -0.4261656797140647,277.63254915463824 0.253834320285935,273.56254915463825 C 1.673834320285935,264.98254915463826 4.853834320285934,257.0225491546382 8.513834320285934,249.2025491546382 A 340.31,340.31 0.0 0,1 53.72383432028593,177.9625491546382 C 68.90383432028592,159.3925491546382 81.86383432028593,139.41254915463819 90.56383432028593,116.80254915463821 C 93.37383432028594,109.50254915463822 97.82383432028594,102.80254915463821 101.56383432028593,95.90254915463821 A 74.19,74.19 0.0 0,0 110.17383432028593,72.46254915463821 C 111.80383432028593,62.60254915463821 116.68383432028594,54.79254915463821 124.17383432028593,48.202549154638206 A 151.25,151.25 0.0 0,1 186.12383432028597,14.972549154638205 C 200.90383432028597,11.092549154638206 215.70383432028595,7.252549154638206 230.41383432028596,3.0725491546382058 C 246.08383432028594,-1.3874508453617942 262.1338343202859,-0.32745084536179414 278.0838343202859,2.0725491546382058 C 280.44383432028593,2.4325491546382056 282.7838343202859,2.9725491546382057 285.0838343202859,3.382549154638206 A 89.0,89.0 0.0 0,1 333.94383432028593,28.682549154638206 C 336.4638343202859,31.222549154638205 339.12383432028594,33.63254915463821 341.7638343202859,36.06254915463821 C 348.5238343202859,42.28254915463821 355.99383432028594,47.32254915463821 364.8838343202859,50.06254915463821 C 374.94383432028593,53.13254915463821 382.8838343202859,58.63254915463821 387.0738343202859,68.79254915463821 C 389.4138343202859,74.51254915463821 393.6438343202859,78.69254915463821 398.93383432028594,81.79254915463821 C 399.55383432028594,82.15254915463821 400.10383432028596,82.63254915463821 400.74383432028594,82.9525491546382 C 425.0738343202859,95.1625491546382 429.74383432028594,116.5925491546382 427.86383432028595,141.0025491546382 A 170.92,170.92 0.0 0,0 427.17383432028595,162.4725491546382 C 427.75383432028593,174.85254915463818 432.7038343202859,185.13254915463818 441.23383432028595,193.76254915463818 A 156.84,156.84 0.0 0,0 468.05383432028594,215.2325491546386 C 472.16383432028596,217.8825491546386 476.69383432028593,219.1325491546386 481.3838343202859,220.2325491546386 C 513.953834320286,227.81254915463862 546.693834320286,234.6525491546386 579.463834320286,241.3325491546386 C 594.733834320286,244.4425491546386 610.303834320286,244.8825491546386 625.843834320286,245.3325491546386 C 642.843834320286,245.8525491546386 659.7538343202859,246.4425491546386 676.693834320286,247.6925491546386 C 695.803834320286,249.1125491546386 714.693834320286,252.25254915463861 733.403834320286,255.93254915463862 A 92.21,92.21 0.0 0,0 748.333834320286,257.2125491546386 C 776.973834320286,258.1125491546386 805.6438343202859,257.45254915463863 834.183834320286,261.70254915463863 C 855.183834320286,264.82254915463864 876.493834320286,265.9625491546386 897.663834320286,268.0325491546386 C 927.163834320286,270.9125491546386 956.803834320286,271.76254915463863 986.323834320286,274.2125491546386 C 1015.143834320286,276.6025491546386 1043.8538343202858,280.0825491546386 1072.5738343202859,283.3625491546386 A 78.13,78.13 0.0 0,0 1081.8738343202858,283.8925491546386 A 59.09,59.09 0.0 0,1 1101.6238343202858,286.8925491546386 C 1110.8138343202859,290.03254915463856 1120.4138343202858,290.2625491546386 1129.9338343202858,290.84254915463856 A 112.53,112.53 0.0 0,1 1166.0438343202857,299.36254915463854 A 87.16,87.16 0.0 0,0 1190.1838343202858,305.6425491546385 C 1200.4938343202857,306.74254915463854 1209.9238343202858,311.0925491546385 1219.3638343202858,315.1725491546385 C 1222.4338343202858,316.5025491546385 1225.4338343202858,318.1725491546385 1228.6438343202858,318.94254915463847 C 1246.5738343202859,323.07254915463847 1262.033834320286,332.6125491546385 1277.9038343202858,341.22254915463844 A 120.61,120.61 0.0 0,1 1300.6138343202858,357.77254915463845 C 1309.3838343202858,365.59254915463845 1319.8238343202859,371.13254915463847 1329.3138343202859,377.98254915463843 C 1337.8438343202859,384.1325491546384 1346.6738343202858,389.8825491546384 1355.043834320286,396.23254915463843 C 1363.8238343202859,402.89254915463846 1372.043834320286,410.23254915463843 1378.223834320286,419.52254915463845 A 98.35,98.35 0.0 0,0 1404.473834320286,445.67254915463843 C 1417.753834320286,454.91254915463844 1427.3438343202859,467.33254915463846 1434.0738343202859,481.8925491546384 A 50.32,50.32 0.0 0,0 1446.1438343202858,498.6025491546384 A 138.16,138.16 0.0 0,1 1458.2138343202857,510.8525491546384 A 37.0,37.0 0.0 0,1 1465.8538343202858,524.5225491546383 Q 1484.6738343202858,587.3125491546383 1503.4438343202858,650.1225491546384 A 145.8,145.8 0.0 0,1 1508.2338343202857,674.7125491546384 C 1509.8138343202857,687.7725491546383 1512.9538343202858,700.5525491546384 1515.5538343202857,713.4325491546384 A 51.93,51.93 0.0 0,1 1513.0538343202857,743.7225491546384 A 76.18,76.18 0.0 0,0 1507.6738343202856,773.1425491546383 C 1507.8038343202857,787.9525491546383 1507.3738343202856,802.7625491546384 1508.8838343202856,817.5625491546383 C 1510.0338343202857,828.8225491546383 1513.0838343202856,839.5625491546383 1515.8838343202856,850.4825491546383 C 1517.6438343202856,857.4825491546383 1519.0938343202856,864.4825491546383 1519.0438343202857,871.7025491546383 A 106.49,106.49 0.0 0,0 1523.8838343202856,902.7525491546382 C 1531.5438343202857,928.6325491546382 1538.8838343202856,954.6025491546383 1548.9938343202855,979.7525491546382 C 1558.6238343202856,1003.7525491546382 1568.5038343202855,1027.5325491546384 1581.7238343202855,1049.8025491546384 A 102.16,102.16 0.0 0,0 1597.4438343202855,1070.1625491546383 C 1623.9138343202856,1096.5425491546384 1648.6238343202856,1124.3725491546384 1668.9438343202855,1155.9125491546383 C 1680.3338343202856,1173.5925491546384 1694.0338343202855,1189.7825491546382 1704.4938343202855,1208.0325491546382 C 1719.6238343202856,1234.4225491546383 1730.0738343202854,1262.4925491546383 1730.7238343202855,1293.4325491546383 C 1730.9438343202855,1303.9625491546383 1726.5538343202854,1307.8825491546384 1715.9938343202855,1306.0225491546382 C 1707.0738343202854,1304.4425491546383 1698.3638343202854,1301.8225491546382 1689.3738343202856,1300.5125491546382 A 23.43,23.43 0.0 0,1 1679.0138343202857,1295.7825491546382 A 60.33,60.33 0.0 0,1 1672.2238343202857,1290.5125491546382 A 214.76,214.76 0.0 0,0 1621.3638343202858,1253.5125491546382 C 1607.2238343202857,1245.9825491546383 1594.803834320286,1236.8725491546381 1584.1738343202858,1224.9125491546383 A 53.22,53.22 0.0 0,0 1566.2338343202857,1212.0125491546382 C 1561.4138343202858,1209.8325491546382 1557.6638343202858,1205.9425491546383 1553.4538343202858,1202.8125491546382 C 1549.5738343202856,1199.932549154638 1545.5838343202859,1197.3925491546381 1540.6938343202858,1196.6325491546381 C 1536.6938343202858,1196.002549154638 1533.8938343202858,1193.432549154638 1531.3238343202859,1190.492549154638 C 1529.003834320286,1187.842549154638 1526.963834320286,1184.652549154638 1522.203834320286,1184.652549154638 C 1520.343834320286,1193.912549154638 1518.423834320286,1203.232549154638 1516.603834320286,1212.5725491546382 C 1511.0338343202861,1241.2025491546383 1507.7738343202861,1270.192549154638 1503.423834320286,1299.0025491546382 C 1497.973834320286,1335.0725491546382 1497.043834320286,1371.3325491546382 1496.233834320286,1407.6625491546383 C 1495.913834320286,1421.6625491546383 1493.923834320286,1435.2825491546382 1484.413834320286,1446.6625491546383 C 1482.193834320286,1449.3225491546384 1481.263834320286,1453.0625491546384 1479.843834320286,1456.3525491546384 C 1471.143834320286,1476.5725491546384 1454.333834320286,1484.4525491546383 1433.843834320286,1486.3525491546384 C 1426.4838343202862,1487.0225491546385 1419.153834320286,1487.2225491546383 1411.843834320286,1488.8125491546384 C 1397.673834320286,1491.8725491546384 1383.343834320286,1491.2025491546385 1369.153834320286,1488.2625491546385 C 1357.153834320286,1485.7625491546385 1351.523834320286,1476.4625491546385 1347.433834320286,1466.3825491546384 C 1345.273834320286,1461.0425491546384 1347.603834320286,1455.2525491546382 1351.603834320286,1451.1625491546383 A 82.42,82.42 0.0 0,0 1368.223834320286,1427.1625491546383 C 1371.0838343202859,1420.8225491546384 1377.283834320286,1418.1625491546383 1383.633834320286,1416.4225491546383 A 103.0,103.0 0.0 0,1 1404.143834320286,1413.3325491546384 C 1421.683834320286,1412.2425491546385 1422.813834320286,1411.6725491546383 1428.863834320286,1395.2725491546385 C 1432.603834320286,1385.1325491546384 1434.233834320286,1374.4625491546385 1434.7938343202861,1363.6825491546385 C 1435.323834320286,1353.4225491546385 1435.633834320286,1343.1425491546386 1435.863834320286,1332.8625491546386 C 1436.213834320286,1317.1025491546386 1438.183834320286,1301.3825491546386 1437.363834320286,1285.5825491546386 C 1437.173834320286,1281.7625491546387 1437.063834320286,1277.9525491546385 1435.7638343202862,1273.9425491546385 C 1433.1538343202863,1275.5225491546385 1432.7638343202862,1278.2125491546385 1431.853834320286,1280.5025491546385 C 1426.963834320286,1292.9925491546385 1423.7938343202861,1306.0125491546385 1420.2838343202861,1318.9125491546386 C 1416.2838343202861,1333.6525491546386 1412.813834320286,1348.5525491546387 1408.9738343202862,1363.3525491546386 A 49.1,49.1 0.0 0,1 1398.9738343202862,1382.8825491546386 A 27.67,27.67 0.0 0,1 1379.9738343202862,1393.2325491546385 A 131.15,131.15 0.0 0,0 1354.6938343202862,1398.1025491546384 A 42.33,42.33 0.0 0,1 1337.6938343202862,1399.6925491546383 A 160.27,160.27 0.0 0,0 1306.1838343202862,1399.6925491546383 A 52.35,52.35 0.0 0,1 1292.6038343202863,1399.2225491546383 C 1286.3738343202863,1398.2225491546383 1281.4238343202862,1395.4125491546383 1278.0938343202863,1389.8325491546382 C 1276.2638343202864,1386.7725491546382 1273.8938343202863,1384.0325491546382 1271.8438343202863,1381.1025491546382 C 1267.5238343202864,1374.952549154638 1267.9638343202862,1369.1025491546382 1273.8438343202863,1364.682549154638 C 1282.9438343202862,1357.682549154638 1292.3238343202863,1351.1025491546382 1301.7338343202864,1344.542549154638 C 1309.0138343202864,1339.452549154638 1317.0138343202864,1339.712549154638 1325.0938343202863,1342.312549154638 C 1328.9538343202862,1343.552549154638 1332.7538343202864,1345.002549154638 1336.5538343202863,1346.4225491546379 C 1346.9538343202864,1350.322549154638 1358.5538343202863,1344.7525491546378 1363.1238343202863,1334.602549154638 C 1373.7038343202862,1311.1625491546379 1378.6738343202862,1286.522549154638 1381.2938343202864,1261.2125491546378 Q 1384.7538343202864,1227.7225491546378 1388.2938343202864,1194.2125491546378 C 1388.8838343202863,1188.4625491546378 1388.4938343202864,1187.852549154638 1382.8038343202863,1188.0525491546377 C 1372.2438343202864,1188.4225491546376 1361.8038343202863,1186.4425491546378 1351.3138343202863,1186.3325491546377 C 1347.7138343202864,1186.3325491546377 1344.3138343202863,1184.7125491546378 1341.0438343202864,1183.3325491546377 Q 1327.8038343202863,1177.8225491546377 1314.6238343202863,1172.1825491546376 C 1310.4038343202863,1170.3925491546377 1306.1238343202863,1169.0025491546376 1301.4338343202862,1169.4925491546376 C 1297.4938343202862,1169.9025491546377 1293.9238343202862,1168.6325491546377 1290.3838343202863,1167.0425491546375 C 1282.7038343202862,1163.5925491546375 1275.8238343202863,1158.8225491546375 1268.8538343202863,1154.2025491546376 C 1265.0238343202864,1151.6725491546376 1261.0938343202863,1149.4725491546376 1256.3538343202863,1149.2025491546376 C 1253.0038343202864,1149.0425491546375 1250.3538343202863,1147.2025491546376 1248.3538343202863,1144.8925491546377 A 295.15,295.15 0.0 0,0 1206.8938343202863,1107.6125491546377 C 1202.3038343202863,1104.1525491546377 1199.0638343202863,1099.1825491546376 1196.4638343202862,1094.0425491546378 C 1189.9938343202862,1081.2125491546378 1184.6738343202862,1068.0425491546378 1181.7038343202862,1053.8125491546377 C 1175.3038343202861,1023.1825491546376 1170.0438343202861,992.3225491546376 1163.0038343202862,961.8125491546376 C 1155.6938343202862,930.1625491546376 1148.6338343202863,898.4525491546376 1141.4038343202863,866.8125491546376 C 1134.9138343202862,838.3825491546377 1129.8738343202863,809.6725491546376 1125.8138343202863,780.8125491546376 C 1124.5838343202863,772.0725491546376 1124.3038343202863,763.2025491546376 1123.6538343202863,754.3825491546377 C 1122.7238343202862,741.9125491546376 1119.3838343202863,729.8625491546377 1116.0838343202863,717.9425491546377 C 1113.8138343202863,709.7725491546378 1107.9438343202862,702.9425491546377 1103.4638343202864,695.5725491546377 C 1102.2538343202864,693.5725491546377 1100.8238343202863,693.8725491546377 1099.4638343202864,695.5725491546377 C 1098.8838343202865,696.3225491546377 1098.4638343202864,697.1825491546377 1097.8438343202865,697.9425491546377 C 1092.6138343202865,704.6525491546378 1087.3938343202865,706.2525491546377 1079.6538343202865,702.5325491546378 C 1071.1338343202865,698.4425491546377 1062.1438343202865,696.1825491546377 1053.0038343202864,694.3825491546378 C 1044.2138343202864,692.6525491546378 1041.5838343202863,693.9525491546378 1037.2038343202864,701.5325491546378 A 22.27,22.27 0.0 0,1 1025.5638343202863,711.6625491546378 C 1021.5638343202864,713.1925491546377 1017.5638343202864,714.8525491546378 1013.6238343202864,716.5325491546378 A 37.81,37.81 0.0 0,0 1000.6838343202863,725.3325491546377 A 30.39,30.39 0.0 0,1 987.4738343202863,733.6225491546377 C 962.3338343202863,741.4425491546377 939.1238343202863,752.9925491546377 919.3538343202863,770.6225491546377 A 125.25,125.25 0.0 0,1 879.7738343202863,794.6225491546377 A 83.36,83.36 0.0 0,0 849.7738343202863,813.7225491546377 C 840.6238343202863,822.8625491546377 829.1438343202863,828.3025491546377 817.5238343202863,833.4025491546377 C 808.3438343202863,837.4025491546377 798.9638343202863,841.0125491546377 790.0238343202863,845.6325491546377 A 45.18,45.18 0.0 0,1 770.8938343202863,851.1425491546377 C 767.0238343202863,851.2825491546376 763.4338343202862,852.7425491546377 759.8238343202862,854.0025491546377 C 745.8238343202862,858.9125491546376 732.1738343202862,864.6125491546377 718.6138343202862,870.5825491546377 A 92.25,92.25 0.0 0,1 692.5138343202862,877.9925491546377 C 684.5738343202861,878.9925491546377 677.1638343202861,881.9925491546377 670.2738343202861,885.7525491546377 C 647.5438343202861,898.0425491546376 622.9338343202861,900.1225491546377 597.8838343202862,899.5825491546377 C 585.6638343202861,899.3125491546377 573.7638343202862,896.4725491546377 562.1838343202861,892.5025491546377 C 560.8238343202861,892.0425491546376 559.5038343202862,891.5025491546377 558.1838343202861,891.0225491546377 C 555.8138343202861,890.2425491546377 554.5038343202862,891.1325491546377 554.3838343202862,893.6425491546377 C 553.8238343202862,905.3525491546377 551.1938343202861,916.8425491546377 550.8738343202862,928.6425491546377 C 550.3638343202862,947.5225491546377 548.4038343202861,966.3225491546376 547.4138343202861,985.1725491546376 C 546.1238343202862,1009.7525491546377 545.3538343202862,1034.3525491546377 547.9738343202861,1058.9525491546378 C 550.4838343202861,1082.5225491546378 549.0638343202861,1105.7325491546378 539.5738343202861,1127.9525491546378 A 35.27,35.27 0.0 0,0 536.633834320286,1141.9525491546378 C 536.633834320286,1164.0425491546378 533.5738343202861,1185.7925491546378 529.253834320286,1207.382549154638 C 526.8438343202861,1219.382549154638 526.303834320286,1231.572549154638 525.673834320286,1243.7325491546378 C 524.6138343202861,1264.2325491546378 520.533834320286,1284.0325491546378 512.073834320286,1302.7325491546378 A 108.28,108.28 0.0 0,0 502.25383432028593,1345.7325491546378 C 502.06383432028593,1355.5325491546378 497.8238343202859,1363.7325491546378 492.67383432028595,1371.5625491546377 A 28.14,28.14 0.0 0,0 488.893834320286,1378.4225491546376 C 486.013834320286,1387.3525491546377 477.253834320286,1389.4225491546376 471.42383432028595,1381.6825491546376 C 470.66383432028596,1380.8525491546377 470.23383432028595,1379.8725491546377 468.61383432028595,1379.9525491546376 L 468.61383432028595,1379.9525491546387"/>
</svg>
