<?xml version="1.0" ?>
<svg xmlns="http://www.w3.org/2000/svg" xmlns:ev="http://www.w3.org/2001/xml-events" xmlns:xlink="http://www.w3.org/1999/xlink" baseProfile="full" data-name="Layer 1" height="1317" transform="scale(0.07593014426727411 0.07593014426727411) translate(-830.0 -658.5)" version="1.1" viewBox="0 0 1660 1317" width="1660">
	<defs/>
	<path d="M 222.93785990771167,114.62916430565915 C 225.93785990771167,111.96916430565915 226.93785990771167,108.18916430565915 228.18785990771167,104.62916430565915 C 232.49785990771167,92.10916430565916 236.63785990771166,79.52916430565915 240.88785990771166,66.99916430565915 A 330.42,330.42 0.0 0,1 254.01785990771165,33.93916430565914 A 81.72,81.72 0.0 0,1 266.6478599077117,14.469164305659142 C 273.21785990771167,6.919164305659142 281.6478599077117,2.7991643056591418 291.17785990771165,0.35916430565914226 A 10.17,10.17 0.0 0,1 299.61785990771165,1.7891643056591422 C 307.2078599077116,6.569164305659142 310.49785990771164,13.789164305659142 311.94785990771163,22.199164305659142 C 314.3978599077116,36.48916430565914 313.7278599077116,50.88916430565914 313.42785990771165,65.26916430565913 C 313.13785990771163,79.18916430565915 312.3378599077117,93.08916430565915 311.88785990771163,107.00916430565914 A 115.11,115.11 0.0 0,0 312.18785990771164,119.32916430565913 C 312.8378599077116,127.89916430565913 315.10785990771166,135.89916430565913 320.60785990771166,142.80916430565912 C 323.72785990771166,146.73916430565913 326.28785990771166,151.10916430565914 329.38785990771163,155.04916430565913 C 340.79785990771165,169.54916430565913 349.05785990771165,185.83916430565912 355.8478599077116,202.80916430565912 A 23.62,23.62 0.0 0,0 369.1078599077116,216.46916430565912 A 368.81,368.81 0.0 0,0 409.9278599077116,232.31916430565911 C 438.2878599077116,241.1091643056591 466.1778599077116,251.1391643056591 493.2378599077116,263.3891643056591 C 503.8578599077116,268.1991643056591 514.9178599077115,271.8691643056591 525.8778599077116,275.6991643056591 A 539.0,539.0 0.0 0,1 588.4078599077116,301.6991643056591 C 599.0178599077116,306.98916430565913 610.0078599077116,311.5391643056591 620.9778599077116,316.0391643056591 C 645.2878599077115,326.0391643056591 671.0578599077116,329.0391643056591 696.8678599077116,328.42916430565907 C 723.3878599077116,327.7891643056591 749.2378599077116,331.05916430565907 775.0478599077117,336.0291643056591 C 797.0478599077117,340.2691643056591 819.1378599077117,343.4391643056591 841.6078599077116,344.0291643056591 C 857.7978599077117,344.4591643056591 873.9678599077116,346.2791643056591 890.1978599077116,344.92916430565907 C 900.4278599077116,344.06916430565906 910.6378599077117,342.70916430565904 920.8778599077116,342.26916430565905 C 938.6678599077115,341.50916430565906 956.4978599077116,341.52916430565904 974.2878599077115,340.75916430565906 C 990.2878599077115,340.05916430565907 1006.1978599077115,338.6691643056591 1022.1478599077116,337.68916430565906 C 1052.4678599077115,335.82916430565905 1082.7678599077115,333.08916430565904 1113.1478599077116,334.11916430565907 C 1133.6878599077115,334.80916430565907 1154.1478599077116,337.4191643056591 1174.4878599077115,340.11916430565907 C 1180.5978599077114,340.92916430565907 1186.7078599077115,341.7891643056591 1192.8478599077114,342.26916430565905 C 1228.5278599077114,345.01916430565905 1262.2578599077115,355.26916430565905 1295.1478599077113,368.76916430565905 C 1306.7478599077112,373.539164305659 1318.6078599077114,377.76916430565905 1329.7778599077114,383.50916430565906 A 112.88,112.88 0.0 0,1 1340.6178599077114,389.3591643056591 C 1364.4678599077113,405.2791643056591 1386.4678599077113,423.3591643056591 1404.6178599077114,445.74916430565906 C 1410.4078599077113,452.88916430565905 1414.4578599077113,461.1691643056591 1418.7278599077113,469.17916430565907 C 1427.4578599077113,485.55916430565907 1438.5678599077112,500.37916430565906 1448.3278599077112,516.069164305659 A 94.6,94.6 0.0 0,1 1457.8378599077112,535.729164305659 A 229.51,229.51 0.0 0,0 1476.0378599077112,576.999164305659 A 160.29,160.29 0.0 0,1 1490.5478599077112,610.9291643056589 C 1494.8178599077112,625.1091643056589 1495.0078599077112,639.7691643056589 1495.9478599077113,654.3191643056589 A 295.19,295.19 0.0 0,1 1496.1478599077113,686.4991643056588 C 1494.9778599077113,712.4991643056588 1500.8978599077113,737.2591643056588 1510.1478599077113,761.3591643056589 C 1519.6978599077113,786.2991643056589 1529.3978599077113,811.1791643056589 1538.7378599077113,836.1991643056589 C 1546.9978599077112,858.2991643056589 1555.9678599077113,879.9991643056588 1570.4578599077113,898.8991643056589 C 1576.9778599077113,907.4191643056589 1583.5778599077112,915.8991643056589 1590.6778599077113,923.9591643056589 C 1601.2578599077112,935.9591643056589 1611.5578599077114,948.1591643056589 1622.5878599077114,959.7591643056588 A 224.73,224.73 0.0 0,1 1647.6678599077113,992.2691643056588 C 1654.6678599077113,1002.9991643056588 1657.2678599077112,1015.5291643056588 1657.7278599077113,1028.169164305659 C 1658.6478599077113,1053.279164305659 1658.4878599077113,1078.409164305659 1658.0878599077112,1103.529164305659 C 1657.8778599077111,1117.229164305659 1657.9678599077113,1130.939164305659 1658.1378599077111,1144.6391643056588 C 1658.3778599077111,1164.069164305659 1656.3078599077112,1183.4191643056588 1656.207859907711,1202.819164305659 A 308.0,308.0 0.0 0,0 1658.6078599077111,1241.0791643056589 C 1660.0578599077112,1253.0791643056589 1658.197859907711,1264.819164305659 1655.0578599077112,1276.279164305659 C 1652.8178599077112,1284.489164305659 1646.5178599077112,1289.5991643056589 1638.8278599077112,1292.8491643056589 A 97.18,97.18 0.0 0,1 1589.197859907711,1299.6691643056588 C 1583.197859907711,1298.9791643056587 1577.427859907711,1298.6691643056588 1571.6378599077111,1300.6691643056588 C 1565.6378599077111,1302.6691643056588 1559.487859907711,1302.6691643056588 1553.3278599077112,1301.819164305659 C 1543.4578599077113,1300.509164305659 1537.2478599077112,1294.3791643056588 1535.657859907711,1284.569164305659 C 1533.167859907711,1269.209164305659 1539.027859907711,1256.8491643056589 1549.5978599077112,1246.279164305659 A 82.62,82.62 0.0 0,1 1564.667859907711,1234.459164305659 C 1571.457859907711,1230.259164305659 1578.267859907711,1226.069164305659 1584.197859907711,1220.619164305659 A 24.64,24.64 0.0 0,0 1592.497859907711,1203.989164305659 C 1594.497859907711,1183.679164305659 1594.317859907711,1163.319164305659 1593.497859907711,1143.049164305659 C 1592.247859907711,1113.3691643056588 1581.557859907711,1087.049164305659 1561.287859907711,1064.929164305659 C 1552.347859907711,1055.159164305659 1543.587859907711,1045.219164305659 1534.687859907711,1035.409164305659 C 1533.187859907711,1033.759164305659 1531.917859907711,1031.749164305659 1529.687859907711,1030.969164305659 C 1528.517859907711,1031.649164305659 1528.3778599077111,1032.779164305659 1528.167859907711,1033.889164305659 C 1522.407859907711,1064.419164305659 1518.8078599077112,1095.249164305659 1515.257859907711,1126.089164305659 C 1513.657859907711,1139.919164305659 1511.557859907711,1153.689164305659 1509.587859907711,1167.4691643056592 A 155.88,155.88 0.0 0,0 1507.6578599077109,1189.9691643056592 C 1507.6578599077109,1200.329164305659 1504.4678599077108,1209.2291643056592 1496.7078599077108,1216.3191643056591 C 1494.857859907711,1218.0091643056592 1493.1678599077109,1219.879164305659 1491.387859907711,1221.659164305659 C 1487.7378599077108,1225.339164305659 1483.267859907711,1228.169164305659 1478.277859907711,1228.589164305659 C 1463.797859907711,1229.8091643056591 1449.407859907711,1233.7391643056592 1434.707859907711,1230.4891643056592 C 1431.1378599077111,1229.6891643056592 1427.317859907711,1229.3891643056593 1424.217859907711,1227.4891643056592 C 1417.397859907711,1223.359164305659 1410.037859907711,1222.7391643056592 1402.417859907711,1223.2091643056592 C 1396.507859907711,1223.5691643056591 1391.167859907711,1221.9091643056593 1386.037859907711,1219.1491643056593 C 1377.287859907711,1214.4391643056592 1373.607859907711,1205.6291643056593 1376.347859907711,1195.9691643056592 C 1378.9178599077109,1186.8991643056593 1385.347859907711,1181.2491643056592 1393.347859907711,1177.339164305659 C 1399.6978599077108,1174.2391643056592 1406.347859907711,1171.7491643056592 1412.877859907711,1169.0491643056591 C 1423.127859907711,1164.8191643056591 1432.3978599077109,1159.1791643056592 1440.007859907711,1150.9691643056592 A 30.43,30.43 0.0 0,0 1448.457859907711,1132.7191643056592 C 1448.987859907711,1127.2791643056592 1450.017859907711,1121.8791643056593 1450.957859907711,1116.4791643056592 A 94.89,94.89 0.0 0,0 1447.027859907711,1067.2191643056592 C 1441.027859907711,1050.5591643056591 1433.427859907711,1034.5491643056591 1422.387859907711,1020.8291643056591 A 206.7,206.7 0.0 0,0 1389.4678599077108,987.9691643056591 A 590.41,590.41 0.0 0,0 1336.877859907711,950.8791643056591 C 1319.627859907711,940.1191643056591 1303.877859907711,927.1991643056591 1287.877859907711,914.679164305659 C 1274.6778599077109,904.339164305659 1264.6478599077109,890.799164305659 1253.877859907711,878.049164305659 A 507.48,507.48 0.0 0,1 1206.277859907711,810.289164305659 C 1201.027859907711,801.429164305659 1196.907859907711,792.009164305659 1192.667859907711,782.659164305659 C 1188.517859907711,773.509164305659 1184.527859907711,764.299164305659 1180.407859907711,755.139164305659 C 1179.5678599077112,753.269164305659 1178.5378599077112,751.4791643056591 1177.527859907711,749.699164305659 C 1175.347859907711,745.849164305659 1172.357859907711,744.029164305659 1167.597859907711,743.829164305659 C 1147.017859907711,742.959164305659 1126.497859907711,743.979164305659 1105.9678599077108,744.949164305659 A 192.89,192.89 0.0 0,1 1080.6478599077109,744.279164305659 A 220.8,220.8 0.0 0,0 1033.4778599077108,745.559164305659 C 1017.6378599077108,747.609164305659 1001.8078599077108,749.809164305659 985.9778599077108,751.979164305659 A 89.0,89.0 0.0 0,0 960.9778599077108,758.879164305659 C 948.9178599077109,764.359164305659 936.3278599077108,768.5191643056589 923.9778599077108,773.2891643056589 C 901.5978599077108,781.9391643056589 882.2178599077108,795.749164305659 863.0778599077108,809.8091643056589 A 718.79,718.79 0.0 0,1 791.2378599077108,856.2791643056589 C 769.1378599077108,868.7791643056589 745.3978599077108,873.8391643056589 720.3478599077108,874.2091643056589 L 710.7578599077108,874.2091643056589 C 705.8178599077107,874.3191643056589 705.7578599077108,874.3591643056589 705.4178599077107,879.0991643056589 C 704.9778599077107,885.2491643056588 704.7478599077108,891.4091643056588 704.2678599077108,897.5591643056589 C 702.0478599077107,926.0291643056589 701.6578599077108,954.5591643056589 701.1878599077107,983.119164305659 C 700.9178599077107,999.349164305659 698.8578599077107,1015.439164305659 697.7778599077108,1031.609164305659 C 696.6378599077108,1048.699164305659 694.7178599077108,1065.7491643056592 694.7778599077108,1082.889164305659 C 694.7778599077108,1093.839164305659 695.1578599077108,1104.839164305659 696.2678599077108,1115.719164305659 C 698.1278599077108,1133.909164305659 698.4278599077107,1152.179164305659 699.7378599077108,1170.399164305659 A 18.49,18.49 0.0 0,0 700.3078599077108,1175.139164305659 C 703.1878599077108,1183.259164305659 699.5578599077108,1189.329164305659 694.2278599077108,1194.8091643056591 A 30.25,30.25 0.0 0,1 684.6378599077108,1201.339164305659 C 676.6378599077108,1204.859164305659 671.6378599077108,1211.079164305659 667.8778599077108,1218.669164305659 C 661.1478599077108,1232.409164305659 655.0878599077108,1246.449164305659 649.0778599077108,1260.509164305659 C 645.4978599077108,1268.899164305659 641.6578599077109,1277.189164305659 637.7478599077108,1285.439164305659 A 70.94,70.94 0.0 0,1 632.7478599077108,1293.619164305659 C 622.8678599077108,1308.7591643056592 608.8578599077108,1316.239164305659 590.7478599077108,1316.469164305659 C 581.1078599077108,1316.599164305659 571.5078599077108,1316.199164305659 562.2078599077108,1313.689164305659 C 556.7178599077108,1312.209164305659 551.2678599077108,1311.689164305659 545.9678599077108,1313.109164305659 C 530.1878599077108,1317.2591643056592 515.1678599077109,1313.479164305659 500.2178599077108,1309.219164305659 C 492.06785990771084,1306.889164305659 487.8678599077108,1299.809164305659 488.9978599077108,1291.219164305659 A 36.41,36.41 0.0 0,1 493.6578599077108,1277.699164305659 C 495.2278599077108,1274.969164305659 496.6578599077108,1272.159164305659 498.4278599077108,1268.939164305659 C 495.2478599077108,1267.939164305659 492.6178599077108,1268.739164305659 490.1578599077108,1269.409164305659 C 479.1578599077108,1272.409164305659 468.38785990771083,1271.0391643056591 457.88785990771083,1267.2991643056591 A 42.0,42.0 0.0 0,0 443.2078599077108,1264.5291643056592 A 39.0,39.0 0.0 0,1 425.2778599077108,1260.7291643056592 C 412.8578599077108,1254.5691643056591 409.8078599077108,1241.7991643056591 419.49785990771085,1232.0091643056592 C 432.7778599077108,1218.589164305659 447.63785990771083,1207.329164305659 467.19785990771084,1204.2291643056592 C 474.8478599077108,1203.0191643056592 482.3478599077108,1200.9191643056593 489.9078599077108,1199.1591643056593 C 499.4678599077108,1196.9291643056592 506.8078599077108,1191.6091643056593 512.3578599077108,1183.4891643056592 C 521.7578599077108,1169.7291643056592 531.4278599077109,1156.1591643056593 540.8878599077108,1142.4891643056592 A 70.23,70.23 0.0 0,0 545.6378599077108,1134.1791643056592 A 35.37,35.37 0.0 0,0 549.0178599077108,1112.4491643056592 C 546.0178599077108,1090.8891643056593 540.7878599077108,1069.8691643056593 535.0178599077108,1048.9891643056592 C 529.8778599077108,1030.4191643056593 527.5178599077108,1011.409164305659 524.3478599077108,992.509164305659 C 519.9678599077108,966.3691643056591 513.9578599077108,940.6091643056591 507.1678599077108,914.9991643056591 C 502.1678599077108,896.2491643056591 498.0378599077108,877.279164305659 494.4278599077108,858.2191643056591 C 492.6678599077108,848.9191643056591 489.0878599077108,840.3091643056591 485.8478599077108,831.5491643056591 A 13.0,13.0 0.0 0,0 483.31785990771084,827.5491643056591 C 470.36785990771085,813.0891643056591 459.01785990771083,797.2691643056592 445.7278599077108,783.0991643056591 A 146.58,146.58 0.0 0,1 424.4278599077108,752.9491643056591 C 416.9678599077108,739.3491643056591 410.2478599077108,725.3391643056591 403.2178599077108,711.4991643056591 C 394.4678599077108,694.269164305659 389.4278599077108,675.789164305659 384.6078599077108,657.1991643056591 C 379.4578599077108,637.2791643056592 373.0578599077108,617.6791643056591 364.4978599077108,599.0191643056592 C 352.2878599077108,572.0591643056591 333.7478599077108,550.1091643056592 310.2878599077108,531.9391643056591 C 296.6678599077108,521.4191643056591 281.4078599077108,515.6791643056591 265.13785990771083,511.70916430565916 C 247.40785990771082,507.3791643056592 229.6178599077108,503.29916430565913 211.8878599077108,498.9391643056592 C 202.49785990771082,496.63916430565916 192.8378599077108,497.02916430565915 183.3478599077108,495.69916430565917 C 171.17785990771083,493.9991643056592 159.80785990771082,490.2991643056592 149.4478599077108,483.63916430565916 C 148.4478599077108,483.02916430565915 147.49785990771082,482.44916430565917 146.5778599077108,481.76916430565916 C 138.1678599077108,475.64916430565916 128.7378599077108,473.9291643056592 118.63785990771082,475.4991643056592 A 103.59,103.59 0.0 0,1 81.19785990771082,474.0591643056592 C 72.49785990771082,472.2291643056592 63.52785990771082,472.13916430565916 54.927859907710825,469.5391643056592 C 43.927859907710825,466.1991643056592 34.577859907710824,460.5391643056592 27.157859907710822,451.6391643056592 C 15.507859907710822,437.6391643056592 5.657859907710823,422.8491643056592 1.6678599077108245,404.5691643056592 C -1.4721400922891756,390.2191643056592 0.03785990771082459,376.47916430565925 4.387859907710825,362.7791643056592 A 51.07,51.07 0.0 0,1 7.217859907710825,355.0691643056592 C 12.577859907710824,344.5991643056592 12.657859907710826,333.5891643056592 10.927859907710825,322.34916430565926 A 34.08,34.08 0.0 0,1 11.617859907710825,308.74916430565924 A 27.17,27.17 0.0 0,1 20.127859907710825,294.22916430565925 A 38.25,38.25 0.0 0,0 24.067859907710826,290.42916430565924 C 37.51785990771083,274.84916430565926 36.91785990771083,275.02916430565926 36.55785990771083,257.3291643056592 C 36.287859907710825,243.40916430565923 41.07785990771083,231.9091643056592 51.927859907710825,223.0291643056592 A 45.5,45.5 0.0 0,0 61.22785990771082,213.0291643056592 C 73.22785990771082,194.7891643056592 90.45785990771083,181.8091643056592 106.74785990771083,167.82916430565922 C 123.62785990771083,153.32916430565922 143.5078599077108,146.26916430565922 164.8878599077108,142.1191643056592 C 177.93785990771082,139.5891643056592 180.7578599077108,139.1191643056592 180.40785990771082,122.29916430565922 C 180.18785990771082,112.29916430565922 178.8878599077108,102.29916430565922 178.30785990771082,92.29916430565922 C 177.7878599077108,83.38916430565922 177.99785990771082,74.4991643056592 180.46785990771082,65.80916430565921 A 22.48,22.48 0.0 0,1 183.77785990771082,58.33916430565922 C 187.3478599077108,53.57916430565922 192.16785990771083,52.92916430565922 196.77785990771082,56.69916430565922 C 201.15785990771082,60.25916430565922 204.32785990771083,64.69916430565922 205.3178599077108,70.35916430565922 C 207.6978599077108,84.01916430565922 213.96785990771082,96.28916430565923 219.0078599077108,108.98916430565922 C 219.8278599077108,110.9391643056592 220.1278599077108,113.45916430565921 222.93785990771082,114.6291643056592 L 222.93785990771167,114.62916430565915 M 559.5178599077117,1238.9391643056592 A 22.68,22.68 0.0 0,0 573.1578599077117,1231.4091643056593 A 198.0,198.0 0.0 0,0 603.1578599077117,1188.2891643056594 A 32.33,32.33 0.0 0,0 606.7478599077117,1174.4391643056595 C 606.7478599077117,1172.6891643056595 607.4378599077118,1170.4391643056595 605.6878599077118,1169.3791643056595 C 603.9378599077118,1168.3191643056596 602.3078599077118,1170.0591643056596 600.8678599077117,1171.0191643056596 C 597.2078599077117,1173.4391643056597 594.3778599077117,1176.7591643056596 591.7078599077117,1180.1791643056597 C 578.4578599077117,1197.1791643056597 568.3478599077117,1216.0891643056598 559.5678599077117,1235.7191643056597 A 3.0,3.0 0.0 0,0 559.5178599077118,1238.9391643056597 L 559.5178599077117,1238.9391643056592"/>
</svg>
