<?xml version="1.0" ?>
<svg xmlns="http://www.w3.org/2000/svg" xmlns:ev="http://www.w3.org/2001/xml-events" xmlns:xlink="http://www.w3.org/1999/xlink" baseProfile="full" height="1351" style="enable-background:new 0 0 1741 1349.9" transform="scale(0.07401924500370097 0.07401924500370097) translate(-871.0 -675.5)" version="1.1" viewBox="0 0 1742 1351" width="1742" xml:space="preserve">
	<defs/>
	<path d="M 1556.1383919852224,1115.2616195923254 C 1553.5383919852225,1116.4616195923254 1553.1383919852224,1118.6616195923255 1552.0383919852225,1120.3616195923253 C 1548.7383919852225,1126.4616195923252 1543.4383919852226,1131.1616195923252 1537.1383919852224,1133.8616195923253 C 1532.7383919852223,1135.7616195923254 1528.7383919852223,1138.3616195923253 1525.3383919852224,1141.5616195923253 C 1516.4383919852223,1149.5616195923253 1506.1383919852224,1154.1616195923252 1493.8383919852224,1154.0616195923253 C 1484.0383919852225,1154.0616195923253 1474.5383919852225,1156.0616195923253 1464.9383919852223,1157.6616195923252 C 1453.5383919852222,1159.5616195923253 1442.3383919852224,1158.3616195923253 1431.1383919852224,1156.3616195923253 C 1420.8383919852224,1154.5616195923253 1411.9383919852223,1149.3616195923253 1408.7383919852223,1138.7616195923254 C 1405.5383919852222,1128.4616195923254 1410.5383919852222,1119.8616195923253 1417.6383919852224,1112.4616195923254 C 1422.0383919852225,1107.9616195923254 1427.2383919852223,1104.2616195923254 1432.9383919852223,1101.4616195923254 C 1443.7383919852223,1095.8616195923255 1450.1383919852224,1087.2616195923254 1451.2383919852223,1074.7616195923254 C 1451.5383919852222,1071.7616195923254 1451.4383919852223,1069.0616195923253 1449.9383919852223,1066.4616195923254 C 1448.2383919852223,1063.2616195923254 1446.2383919852223,1060.0616195923253 1444.1383919852224,1057.0616195923253 C 1435.6383919852224,1046.0616195923253 1426.6383919852224,1035.3616195923253 1417.0383919852225,1025.2616195923254 C 1413.1383919852224,1021.2616195923254 1409.0383919852225,1019.0616195923253 1403.0383919852225,1020.9616195923254 C 1398.0383919852225,1022.5616195923254 1393.1383919852224,1020.2616195923254 1388.7383919852225,1017.9616195923254 C 1380.6383919852226,1013.5616195923254 1372.4383919852226,1009.4616195923254 1365.0383919852225,1003.7616195923254 C 1360.6383919852224,1000.3616195923254 1356.5383919852225,997.7616195923254 1351.0383919852225,1002.1616195923253 C 1348.3383919852224,1004.3616195923254 1344.5383919852225,1003.7616195923254 1341.1383919852224,1002.9616195923253 C 1336.0383919852225,1001.7616195923252 1330.7383919852223,1001.4616195923253 1325.4383919852223,1002.1616195923253 C 1322.5383919852222,1002.5616195923253 1319.6383919852224,1002.4616195923253 1316.8383919852224,1001.7616195923254 C 1302.6383919852224,998.2616195923254 1288.1383919852224,999.0616195923253 1273.6383919852224,999.0616195923253 C 1265.9383919852223,999.0616195923253 1258.4383919852223,998.7616195923254 1251.0383919852225,996.3616195923253 C 1244.6383919852224,994.2616195923252 1238.1383919852224,994.1616195923252 1231.5383919852225,994.2616195923252 C 1224.1383919852224,994.4616195923253 1216.8383919852224,993.6616195923252 1209.6383919852224,991.7616195923252 C 1202.3383919852224,989.7616195923252 1195.0383919852225,990.1616195923252 1187.7383919852223,991.6616195923252 C 1185.2383919852223,992.2616195923252 1182.6383919852224,992.7616195923252 1179.9383919852223,992.9616195923252 C 1154.7383919852223,994.1616195923252 1131.0383919852222,1001.4616195923252 1107.6383919852224,1010.0616195923252 C 1102.2383919852223,1012.2616195923252 1096.4383919852223,1013.2616195923252 1090.6383919852224,1013.0616195923252 C 1084.3383919852224,1012.6616195923252 1078.0383919852225,1013.7616195923252 1072.1383919852224,1016.2616195923252 C 1066.0383919852225,1018.7616195923252 1059.5383919852225,1020.2616195923252 1052.9383919852223,1020.6616195923252 C 1035.4383919852223,1021.7616195923252 1018.8383919852224,1026.8616195923253 1002.2383919852224,1031.6616195923252 C 982.0383919852223,1037.5616195923253 961.9383919852224,1043.5616195923253 941.7383919852224,1049.5616195923253 C 932.1383919852224,1052.5616195923253 922.1383919852224,1053.7616195923254 912.1383919852224,1053.0616195923253 C 907.4383919852223,1052.7616195923254 902.6383919852224,1053.3616195923253 898.1383919852224,1054.6616195923252 C 894.6383919852224,1055.6616195923252 891.0383919852223,1056.5616195923253 887.4383919852223,1057.1616195923252 C 879.1383919852224,1058.5616195923253 871.6383919852224,1056.9616195923252 866.0383919852223,1050.2616195923251 C 862.1383919852224,1045.6616195923252 857.6383919852224,1044.6616195923252 851.9383919852223,1046.2616195923251 C 838.0383919852223,1050.1616195923252 823.8383919852223,1053.2616195923251 809.6383919852224,1055.6616195923252 C 801.8383919852224,1056.9616195923252 797.8383919852224,1061.1616195923252 795.3383919852224,1068.9616195923252 C 790.8383919852224,1082.4616195923252 789.0383919852225,1096.6616195923252 790.0383919852225,1110.8616195923253 C 790.7383919852225,1121.5616195923253 794.2383919852225,1131.9616195923252 797.2383919852225,1142.2616195923254 C 801.1383919852225,1155.8616195923253 796.7383919852225,1164.1616195923255 783.0383919852225,1167.5616195923253 C 775.8383919852224,1169.3616195923253 771.5383919852225,1173.3616195923253 770.2383919852225,1180.7616195923254 C 769.7383919852225,1183.5616195923253 769.1383919852225,1186.4616195923254 768.8383919852225,1189.3616195923253 C 768.2383919852225,1196.7616195923254 765.6383919852225,1203.7616195923254 761.2383919852225,1209.7616195923254 C 759.0383919852225,1212.7616195923254 756.8383919852225,1215.7616195923254 756.4383919852226,1219.5616195923253 C 755.4383919852226,1231.1616195923252 748.7383919852225,1239.1616195923252 739.3383919852225,1244.5616195923253 C 732.9383919852226,1248.2616195923254 731.2383919852225,1252.9616195923254 730.8383919852225,1259.9616195923254 C 730.2383919852225,1270.9616195923254 730.1383919852225,1281.9616195923254 728.6383919852225,1292.9616195923254 C 726.4383919852224,1309.4616195923254 717.2383919852225,1320.8616195923255 703.4383919852224,1329.0616195923253 C 696.6383919852225,1333.0616195923253 689.5383919852225,1336.4616195923254 682.5383919852225,1340.0616195923253 C 672.6383919852225,1345.1616195923252 662.1383919852225,1348.4616195923254 650.8383919852224,1348.7616195923254 C 640.0383919852225,1349.0616195923253 629.3383919852224,1349.7616195923254 618.5383919852225,1349.9616195923254 C 610.8383919852224,1350.2616195923254 603.2383919852225,1349.0616195923253 596.0383919852225,1346.5616195923253 C 588.3383919852224,1343.6616195923252 580.3383919852224,1342.6616195923252 572.1383919852225,1341.9616195923254 C 560.6383919852225,1341.0616195923253 556.7383919852225,1336.8616195923255 556.6383919852225,1325.3616195923255 C 556.6383919852225,1308.9616195923254 561.7383919852225,1295.5616195923255 576.1383919852225,1285.4616195923254 C 587.2383919852225,1277.6616195923255 598.5383919852225,1270.9616195923254 611.2383919852225,1266.3616195923255 C 620.2383919852225,1263.0616195923255 622.4383919852226,1259.5616195923255 623.7383919852225,1249.1616195923255 C 619.9383919852226,1247.7616195923254 616.4383919852226,1249.1616195923255 613.2383919852225,1250.7616195923254 C 605.2383919852225,1254.5616195923253 596.8383919852225,1256.1616195923255 588.1383919852225,1256.9616195923254 C 574.0383919852225,1258.1616195923255 560.1383919852225,1261.8616195923255 545.8383919852225,1260.6616195923255 C 533.7383919852225,1259.7616195923254 521.8383919852225,1257.7616195923254 510.1383919852225,1254.6616195923255 C 500.9383919852225,1252.2616195923254 493.03839198522246,1246.6616195923255 485.7383919852225,1240.5616195923255 C 481.33839198522253,1236.8616195923255 479.83839198522253,1231.9616195923256 480.5383919852225,1226.3616195923255 C 481.0383919852225,1220.2616195923256 483.13839198522254,1214.4616195923254 486.5383919852225,1209.4616195923254 C 494.7383919852225,1197.8616195923255 504.33839198522253,1188.0616195923253 518.6383919852226,1184.0616195923253 C 522.9383919852226,1182.8616195923253 527.1383919852226,1181.3616195923253 531.2383919852226,1179.6616195923252 C 540.5383919852226,1175.4616195923252 546.7383919852226,1168.9616195923252 549.7383919852226,1158.5616195923253 C 554.2383919852226,1143.0616195923253 554.2383919852226,1126.6616195923252 549.8383919852226,1111.1616195923252 C 546.0383919852227,1097.4616195923252 543.3383919852226,1083.5616195923253 537.8383919852226,1070.3616195923253 C 536.0383919852227,1065.9616195923252 535.1383919852226,1061.2616195923254 535.1383919852226,1056.4616195923252 C 535.0383919852226,1048.061619592325 533.1383919852226,1039.6616195923252 529.6383919852226,1032.061619592325 C 526.1383919852226,1024.061619592325 523.4383919852226,1015.861619592325 521.4383919852226,1007.361619592325 C 515.9383919852226,984.661619592325 502.1383919852225,967.161619592325 485.6383919852225,951.761619592325 C 477.3383919852225,943.9616195923251 466.9383919852225,941.761619592325 455.6383919852225,946.061619592325 C 450.53839198522246,948.061619592325 445.7383919852225,947.161619592325 441.8383919852225,943.261619592325 C 438.1383919852225,939.561619592325 434.1383919852225,936.261619592325 431.3383919852225,931.561619592325 C 427.3383919852225,925.061619592325 427.23839198522245,918.761619592325 430.3383919852225,912.061619592325 C 431.03839198522246,910.3616195923249 431.8383919852225,908.761619592325 432.8383919852225,907.161619592325 C 436.23839198522245,902.461619592325 434.03839198522246,896.961619592325 426.9383919852225,897.261619592325 C 420.1383919852225,897.561619592325 414.2383919852225,896.861619592325 408.0383919852225,893.761619592325 C 403.9383919852225,891.761619592325 399.2383919852225,894.261619592325 395.2383919852225,896.161619592325 C 389.5383919852225,898.861619592325 383.9383919852225,901.861619592325 378.33839198522253,904.661619592325 C 376.5383919852225,905.661619592325 374.5383919852225,906.461619592325 372.5383919852225,907.061619592325 C 368.0383919852225,908.261619592325 364.9383919852225,906.8616195923249 362.4383919852225,902.8616195923249 C 361.9383919852225,901.961619592325 361.8383919852225,900.6616195923249 361.1383919852225,900.061619592325 C 354.8383919852225,894.761619592325 349.7383919852225,888.761619592325 348.7383919852225,880.061619592325 C 348.5383919852225,878.261619592325 346.2383919852225,877.561619592325 344.6383919852225,876.561619592325 C 340.4383919852225,873.8616195923249 338.8383919852225,869.961619592325 339.2383919852225,865.061619592325 C 339.6383919852225,859.261619592325 340.0383919852225,853.561619592325 340.5383919852225,847.761619592325 C 341.13839198522254,841.4616195923251 341.63839198522254,835.161619592325 340.9383919852225,828.861619592325 C 340.3383919852225,823.761619592325 338.6383919852225,819.4616195923251 334.1383919852225,816.161619592325 C 328.9383919852225,812.361619592325 325.9383919852225,806.061619592325 320.53839198522246,802.161619592325 C 317.03839198522246,799.661619592325 317.43839198522244,795.261619592325 318.3383919852225,791.161619592325 C 320.23839198522245,782.361619592325 323.4383919852225,774.061619592325 326.1383919852225,765.561619592325 C 327.6383919852225,760.761619592325 329.3383919852225,756.061619592325 330.3383919852225,751.161619592325 C 332.03839198522246,742.961619592325 330.3383919852225,739.561619592325 322.3383919852225,737.661619592325 C 313.1383919852225,735.461619592325 305.53839198522246,730.361619592325 297.53839198522246,725.861619592325 C 289.6383919852225,721.4616195923251 285.73839198522245,714.861619592325 285.1383919852225,706.0616195923251 C 284.8383919852225,702.361619592325 284.9383919852225,698.6616195923251 284.8383919852225,695.0616195923251 C 284.8383919852225,689.2616195923251 283.03839198522246,683.6616195923251 279.53839198522246,679.0616195923251 C 276.8383919852225,675.7616195923251 274.8383919852225,671.9616195923251 273.73839198522245,667.9616195923251 C 272.93839198522244,664.4616195923251 270.8383919852225,662.6616195923251 267.6383919852224,661.4616195923251 C 265.43839198522244,660.6616195923251 263.3383919852224,659.5616195923251 261.3383919852224,658.1616195923251 C 257.3383919852224,655.3616195923252 255.53839198522243,651.4616195923251 256.5383919852224,646.5616195923251 C 258.0383919852224,639.5616195923251 260.0383919852224,632.861619592325 264.0383919852224,626.7616195923251 C 268.3383919852224,620.4616195923252 272.2383919852224,613.8616195923252 275.7383919852224,607.0616195923251 C 279.13839198522237,600.2616195923251 278.8383919852224,594.0616195923251 273.9383919852224,588.0616195923251 C 269.4383919852224,582.5616195923251 265.63839198522237,576.5616195923251 258.13839198522237,574.361619592325 C 256.2383919852224,573.861619592325 254.5383919852224,572.161619592325 253.1383919852224,570.5616195923251 C 248.5383919852224,565.6616195923251 242.9383919852224,565.0616195923251 237.2383919852224,567.6616195923251 C 231.53839198522238,570.2616195923251 226.0383919852224,570.0616195923251 220.2383919852224,568.9616195923251 C 213.5383919852224,567.6616195923251 206.8383919852224,566.1616195923251 199.93839198522238,565.9616195923251 C 188.8383919852224,565.6616195923251 178.8383919852224,562.0616195923251 169.3383919852224,556.4616195923251 C 164.53839198522238,553.6616195923251 159.8383919852224,550.761619592325 155.3383919852224,547.6616195923251 C 150.43839198522238,544.1616195923251 144.8383919852224,541.6616195923251 138.93839198522238,540.2616195923251 C 121.63839198522238,536.2616195923251 108.53839198522238,526.8616195923252 99.53839198522238,511.2616195923251 C 92.13839198522237,498.46161959232506 84.63839198522237,485.8616195923251 78.93839198522238,472.2616195923251 C 76.03839198522238,465.16161959232505 71.53839198522238,460.0616195923251 63.53839198522238,457.8616195923251 C 41.83839198522239,451.5616195923251 28.238391985222385,436.6616195923251 20.738391985222385,415.8616195923251 C 17.338391985222387,406.3616195923251 12.438391985222383,397.7616195923251 7.038391985222384,389.2616195923251 C -2.9616080147776156,373.5616195923251 -2.4616080147776156,361.7616195923251 9.538391985222384,347.46161959232506 C 14.938391985222385,341.0616195923251 19.038391985222383,334.66161959232505 21.038391985222383,326.46161959232506 C 23.038391985222383,318.2616195923251 28.738391985222385,312.16161959232505 36.238391985222385,308.16161959232505 C 40.43839198522239,305.96161959232506 44.738391985222385,304.06161959232503 49.238391985222385,302.46161959232506 C 66.53839198522239,296.0616195923251 81.13839198522238,285.46161959232506 95.13839198522238,273.7616195923251 C 97.93839198522238,271.3616195923251 100.53839198522239,268.7616195923251 103.53839198522239,266.5616195923251 C 108.9383919852224,262.5616195923251 111.83839198522239,257.1616195923251 113.13839198522238,250.7616195923251 C 114.23839198522238,245.56161959232512 113.43839198522238,240.8616195923251 110.13839198522238,236.56161959232512 C 106.73839198522238,232.1616195923251 103.13839198522238,227.96161959232512 99.33839198522239,224.06161959232512 C 93.93839198522238,218.6616195923251 89.43839198522238,212.36161959232513 86.13839198522238,205.56161959232512 C 83.03839198522239,199.06161959232512 83.23839198522238,192.96161959232512 86.83839198522239,186.7616195923251 C 89.43839198522238,182.1616195923251 92.43839198522238,177.8616195923251 96.03839198522239,173.9616195923251 C 99.23839198522239,170.5616195923251 102.33839198522239,166.8616195923251 105.53839198522239,163.4616195923251 C 110.13839198522238,158.5616195923251 111.9383919852224,152.7616195923251 112.13839198522238,146.2616195923251 C 112.43839198522238,135.1616195923251 117.53839198522239,127.66161959232511 128.2383919852224,126.2616195923251 C 142.6383919852224,124.4616195923251 151.6383919852224,115.3616195923251 160.8383919852224,105.9616195923251 C 162.1383919852224,104.66161959232511 163.3383919852224,103.2616195923251 164.3383919852224,101.7616195923251 C 169.43839198522238,94.5616195923251 177.43839198522238,88.3616195923251 177.7383919852224,79.0616195923251 C 178.2383919852224,63.7616195923251 176.93839198522238,48.561619592325094 168.43839198522238,34.96161959232509 C 164.8383919852224,29.161619592325092 160.43839198522238,23.761619592325093 157.93839198522238,17.36161959232509 C 154.53839198522238,8.861619592325091 159.3383919852224,1.1616195923250925 168.2383919852224,0.061619592325091066 C 171.43839198522238,-0.23838040767490898 174.6383919852224,0.5616195923250911 177.2383919852224,2.361619592325091 C 187.8383919852224,9.16161959232509 198.93839198522238,15.161619592325092 208.5383919852224,23.56161959232509 C 217.83839198522242,31.66161959232509 227.6383919852224,39.36161959232509 237.7383919852224,46.36161959232509 C 242.2383919852224,49.561619592325094 247.3383919852224,51.86161959232509 252.7383919852224,53.16161959232509 C 266.33839198522236,56.36161959232509 279.53839198522235,60.66161959232509 292.83839198522236,64.8616195923251 C 294.03839198522235,65.2616195923251 295.33839198522236,65.6616195923251 296.63839198522237,66.0616195923251 C 310.9383919852224,70.2616195923251 312.03839198522235,69.9616195923251 318.83839198522236,56.7616195923251 C 321.9383919852224,50.3616195923251 326.13839198522237,44.561619592325094 331.33839198522236,39.661619592325096 C 339.4383919852224,32.161619592325096 348.73839198522234,29.161619592325096 359.63839198522237,32.2616195923251 C 371.7383919852224,35.661619592325096 383.83839198522236,39.2616195923251 395.2383919852224,44.8616195923251 C 407.7383919852224,50.9616195923251 420.4383919852224,56.8616195923251 432.9383919852224,62.9616195923251 C 441.0383919852224,66.86161959232511 448.5383919852224,71.86161959232511 455.2383919852224,77.7616195923251 C 458.2383919852224,80.4616195923251 461.13839198522237,83.3616195923251 461.7383919852224,87.3616195923251 C 462.63839198522237,93.2616195923251 465.2383919852224,98.2616195923251 467.63839198522237,103.5616195923251 C 469.53839198522235,107.6616195923251 470.4383919852224,112.0616195923251 470.4383919852224,116.5616195923251 C 470.33839198522236,122.9616195923251 472.83839198522236,129.06161959232512 477.4383919852224,133.56161959232512 C 479.63839198522237,135.86161959232513 481.63839198522237,138.2616195923251 483.7383919852224,140.6616195923251 C 487.63839198522237,144.96161959232512 490.2383919852224,150.3616195923251 491.2383919852224,156.06161959232512 C 494.8383919852224,175.7616195923251 506.13839198522237,190.36161959232513 522.2383919852224,201.6616195923251 C 527.5383919852223,205.46161959232512 532.7383919852224,209.6616195923251 537.6383919852224,213.96161959232512 C 552.2383919852224,226.86161959232513 567.4383919852223,239.06161959232512 582.7383919852224,251.06161959232512 C 597.1383919852224,262.2616195923251 609.2383919852224,275.96161959232506 618.5383919852223,291.6616195923251 C 623.5383919852223,300.0616195923251 628.6383919852224,308.3616195923251 633.1383919852224,316.9616195923251 C 642.6383919852224,335.26161959232513 655.7383919852224,351.3616195923251 671.7383919852224,364.3616195923251 C 687.2383919852224,377.0616195923251 702.1383919852224,390.2616195923251 715.0383919852223,405.6616195923251 C 719.8383919852223,411.4616195923251 725.8383919852223,416.4616195923251 731.3383919852223,421.76161959232513 C 744.6383919852223,434.4616195923251 760.7383919852223,439.6616195923251 778.9383919852223,438.9616195923251 C 781.8383919852223,438.8616195923251 784.7383919852223,438.6616195923251 787.6383919852224,438.6616195923251 C 791.4383919852223,438.6616195923251 795.2383919852224,439.26161959232513 797.9383919852223,441.8616195923251 C 802.7383919852223,446.4616195923251 808.7383919852223,448.1616195923251 814.9383919852223,449.5616195923251 C 820.1383919852224,450.6616195923251 825.1383919852224,452.3616195923251 829.1383919852224,456.0616195923251 C 832.9383919852223,459.5616195923251 837.8383919852224,459.5616195923251 842.5383919852223,459.6616195923251 C 851.7383919852224,459.8616195923251 860.9383919852223,459.3616195923251 870.1383919852224,458.26161959232513 C 875.1383919852224,457.6616195923251 880.0383919852223,457.06161959232514 885.0383919852223,456.56161959232514 C 888.7383919852224,456.16161959232517 892.6383919852224,456.16161959232517 895.8383919852223,458.06161959232514 C 901.8383919852223,461.56161959232514 908.0383919852223,461.06161959232514 914.2383919852223,459.9616195923251 C 923.7383919852223,458.26161959232513 933.0383919852222,458.06161959232514 942.1383919852223,461.76161959232513 C 944.8383919852223,462.76161959232513 947.7383919852223,463.1616195923251 950.6383919852223,462.9616195923251 C 970.1383919852223,461.9616195923251 989.5383919852222,464.8616195923251 1008.8383919852223,466.8616195923251 C 1020.1383919852223,468.0616195923251 1031.3383919852222,468.4616195923251 1042.6383919852221,467.0616195923251 C 1055.438391985222,465.6616195923251 1068.3383919852222,465.0616195923251 1081.238391985222,465.1616195923251 C 1090.738391985222,465.26161959232513 1100.1383919852221,463.6616195923251 1109.038391985222,460.4616195923251 C 1122.738391985222,455.56161959232514 1136.838391985222,452.6616195923251 1151.638391985222,454.06161959232514 C 1156.538391985222,454.56161959232514 1161.638391985222,454.06161959232514 1166.638391985222,453.76161959232513 C 1178.838391985222,452.86161959232516 1190.838391985222,453.1616195923251 1202.2383919852218,458.4616195923251 C 1207.638391985222,460.9616195923251 1213.4383919852219,461.06161959232514 1219.2383919852218,459.9616195923251 C 1237.9383919852219,456.6616195923251 1255.138391985222,449.8616195923251 1270.2383919852218,438.1616195923251 C 1275.638391985222,433.9616195923251 1281.5383919852218,430.3616195923251 1287.7383919852218,427.4616195923251 C 1294.0383919852218,424.4616195923251 1300.638391985222,422.8616195923251 1307.638391985222,423.8616195923251 C 1312.138391985222,424.3616195923251 1316.638391985222,423.9616195923251 1320.9383919852219,422.7616195923251 C 1325.9383919852219,421.46161959232506 1328.9383919852219,418.5616195923251 1329.7383919852218,413.0616195923251 C 1331.638391985222,398.5616195923251 1330.7383919852218,384.1616195923251 1328.3383919852217,369.8616195923251 C 1326.7383919852218,360.7616195923251 1325.7383919852218,351.8616195923251 1327.5383919852218,342.5616195923251 C 1329.3383919852217,333.2616195923251 1325.4383919852219,324.3616195923251 1321.0383919852218,316.2616195923251 C 1317.8383919852217,310.2616195923251 1314.8383919852217,304.0616195923251 1311.8383919852217,297.96161959232506 C 1302.1383919852217,278.2616195923251 1297.9383919852216,257.2616195923251 1297.7383919852218,235.3616195923251 C 1297.638391985222,227.1616195923251 1298.138391985222,218.9616195923251 1305.4383919852219,213.1616195923251 C 1308.0383919852218,211.06161959232512 1308.0383919852218,207.96161959232512 1307.338391985222,205.1616195923251 C 1302.738391985222,185.96161959232512 1303.538391985222,166.06161959232512 1298.138391985222,146.86161959232513 C 1294.2383919852218,132.76161959232513 1293.838391985222,117.76161959232513 1295.2383919852218,102.96161959232512 C 1295.4383919852219,100.56161959232512 1295.8383919852217,98.26161959232512 1296.4383919852219,95.96161959232512 C 1299.2383919852218,85.46161959232512 1305.138391985222,82.26161959232512 1315.4383919852219,85.96161959232512 C 1326.9383919852219,89.96161959232512 1336.7383919852218,97.96161959232512 1343.0383919852218,108.36161959232513 C 1352.7383919852218,123.86161959232513 1359.1383919852217,140.86161959232513 1365.8383919852217,157.66161959232514 C 1367.2383919852218,161.26161959232513 1369.2383919852218,164.66161959232514 1371.6383919852217,167.66161959232514 C 1377.4383919852216,174.86161959232513 1380.7383919852216,183.66161959232514 1383.2383919852216,192.56161959232514 C 1389.2383919852216,213.26161959232513 1394.7383919852216,234.16161959232514 1398.7383919852216,255.26161959232516 C 1400.5383919852216,265.36161959232516 1403.3383919852215,275.26161959232513 1406.9383919852216,284.86161959232516 C 1410.7383919852216,294.36161959232516 1414.0383919852216,304.16161959232517 1416.6383919852217,314.06161959232514 C 1418.0383919852218,319.56161959232514 1420.6383919852217,323.66161959232517 1427.4383919852216,323.26161959232513 C 1430.9383919852216,323.06161959232514 1434.0383919852216,324.86161959232516 1436.5383919852216,327.36161959232516 C 1445.9383919852216,336.66161959232517 1453.1383919852215,347.06161959232514 1454.1383919852215,360.76161959232513 C 1454.3383919852215,364.1616195923251 1455.1383919852215,367.56161959232514 1455.7383919852214,370.86161959232516 C 1456.3383919852213,375.36161959232516 1458.5383919852213,379.4616195923252 1461.7383919852214,382.56161959232514 C 1465.0383919852213,385.56161959232514 1467.6383919852215,389.36161959232516 1469.4383919852214,393.4616195923251 C 1475.0383919852213,407.06161959232514 1481.8383919852215,420.26161959232513 1485.6383919852215,434.4616195923251 C 1487.1383919852215,440.6616195923251 1489.7383919852214,446.4616195923251 1493.3383919852215,451.56161959232514 C 1494.8383919852215,453.66161959232517 1496.1383919852215,455.9616195923251 1497.3383919852215,458.36161959232516 C 1502.8383919852215,468.9616195923252 1503.1383919852215,479.4616195923252 1496.5383919852216,489.86161959232516 C 1493.0383919852216,495.36161959232516 1489.7383919852216,501.06161959232514 1486.3383919852215,506.76161959232513 C 1484.0383919852216,510.56161959232514 1483.0383919852216,514.2616195923251 1484.9383919852214,518.6616195923252 C 1486.7383919852214,522.8616195923253 1486.0383919852213,527.4616195923252 1484.7383919852214,531.8616195923253 C 1483.7383919852214,535.3616195923253 1482.5383919852213,539.0616195923253 1483.8383919852213,542.6616195923252 C 1486.0383919852213,548.9616195923252 1485.4383919852212,554.9616195923252 1483.6383919852212,561.1616195923252 C 1481.8383919852213,567.3616195923253 1481.8383919852213,568.4616195923252 1487.5383919852213,571.1616195923252 C 1496.4383919852214,575.3616195923253 1500.6383919852212,582.9616195923252 1499.4383919852214,592.3616195923253 C 1497.8383919852215,605.0616195923253 1503.1383919852215,614.7616195923252 1510.6383919852215,623.9616195923253 C 1514.9383919852214,629.2616195923252 1519.3383919852215,634.4616195923253 1524.2383919852214,639.3616195923253 C 1528.3383919852213,643.4616195923253 1532.0383919852213,647.9616195923253 1535.1383919852215,652.8616195923253 C 1538.8383919852215,658.8616195923253 1540.7383919852214,665.3616195923253 1539.9383919852214,672.3616195923253 C 1539.3383919852215,677.4616195923253 1540.1383919852215,682.2616195923252 1541.0383919852213,687.1616195923252 C 1546.4383919852214,714.4616195923252 1556.7383919852214,739.9616195923252 1568.8383919852213,764.8616195923253 C 1572.7383919852214,772.9616195923253 1575.8383919852213,781.2616195923252 1576.2383919852214,790.3616195923253 C 1576.7383919852214,800.6616195923252 1579.9383919852214,810.6616195923252 1585.3383919852213,819.3616195923253 C 1589.8383919852213,826.8616195923253 1593.0383919852213,834.9616195923253 1594.9383919852212,843.4616195923253 C 1597.4383919852212,854.4616195923253 1601.038391985221,865.2616195923252 1605.538391985221,875.5616195923253 C 1607.638391985221,880.0616195923253 1608.9383919852212,884.9616195923253 1609.2383919852211,889.9616195923253 C 1609.538391985221,897.6616195923253 1611.538391985221,905.1616195923253 1614.9383919852212,911.9616195923253 C 1620.6383919852212,923.2616195923252 1622.6383919852212,935.3616195923253 1623.038391985221,947.8616195923253 C 1623.538391985221,962.3616195923253 1624.838391985221,976.7616195923252 1630.538391985221,990.3616195923253 C 1632.038391985221,994.2616195923252 1632.7383919852211,998.5616195923253 1632.538391985221,1002.7616195923252 C 1632.338391985221,1008.1616195923252 1635.038391985221,1011.6616195923252 1639.9383919852212,1013.7616195923252 C 1640.6383919852212,1014.0616195923252 1641.3383919852213,1014.4616195923253 1642.1383919852212,1014.6616195923252 C 1654.4383919852212,1018.9616195923252 1661.1383919852212,1028.0616195923253 1664.5383919852213,1040.2616195923251 C 1668.2383919852214,1052.9616195923252 1669.4383919852214,1066.1616195923252 1668.3383919852213,1079.2616195923251 C 1667.7383919852214,1084.9616195923252 1668.6383919852212,1090.2616195923251 1671.7383919852214,1095.1616195923252 C 1677.6383919852215,1104.4616195923252 1682.7383919852214,1114.3616195923253 1691.3383919852213,1121.6616195923252 C 1692.9383919852212,1123.0616195923253 1694.2383919852214,1124.6616195923252 1695.3383919852213,1126.4616195923252 C 1703.5383919852213,1140.2616195923251 1711.6383919852212,1154.061619592325 1717.1383919852212,1169.2616195923251 C 1720.9383919852212,1179.9616195923252 1725.4383919852212,1190.2616195923251 1730.5383919852213,1200.361619592325 C 1734.4383919852214,1207.861619592325 1737.4383919852214,1215.7616195923251 1739.3383919852213,1223.961619592325 C 1741.2383919852214,1231.5616195923249 1742.0383919852213,1239.261619592325 1740.3383919852213,1247.361619592325 C 1738.5383919852213,1255.861619592325 1736.7383919852214,1264.361619592325 1734.5383919852213,1272.661619592325 C 1732.8383919852213,1279.361619592325 1728.6383919852212,1285.161619592325 1722.7383919852214,1288.861619592325 C 1719.8383919852213,1290.661619592325 1717.1383919852215,1292.7616195923251 1714.3383919852213,1294.661619592325 C 1706.0383919852213,1300.261619592325 1697.7383919852214,1304.761619592325 1686.7383919852214,1303.661619592325 C 1676.0383919852213,1302.661619592325 1665.2383919852214,1302.161619592325 1654.6383919852215,1300.561619592325 C 1649.1383919852215,1299.561619592325 1643.9383919852214,1297.561619592325 1639.3383919852215,1294.561619592325 C 1633.0383919852216,1290.7616195923251 1630.1383919852215,1284.661619592325 1629.2383919852216,1277.561619592325 C 1628.2383919852216,1269.9616195923252 1629.3383919852215,1262.361619592325 1630.0383919852216,1254.7616195923251 C 1630.8383919852215,1244.861619592325 1631.8383919852215,1234.861619592325 1632.0383919852216,1224.861619592325 C 1632.1383919852215,1216.161619592325 1629.6383919852215,1207.561619592325 1624.8383919852215,1200.161619592325 C 1619.0383919852216,1190.861619592325 1611.6383919852215,1182.461619592325 1607.6383919852215,1171.961619592325 C 1606.9383919852214,1170.261619592325 1605.8383919852215,1168.761619592325 1604.3383919852215,1167.5616195923249 C 1595.5383919852216,1160.6616195923248 1589.1383919852215,1151.5616195923249 1582.7383919852216,1142.5616195923249 C 1574.9383919852216,1132.6616195923248 1564.6383919852217,1124.761619592325 1556.1383919852217,1115.261619592325 L 1556.1383919852224,1115.2616195923254"/>
</svg>
