<?xml version="1.0" ?>
<svg xmlns="http://www.w3.org/2000/svg" xmlns:ev="http://www.w3.org/2001/xml-events" xmlns:xlink="http://www.w3.org/1999/xlink" baseProfile="full" data-name="Layer 1" height="1386" transform="scale(0.07215007215007214 0.07215007215007214) translate(-848.0 -693.0)" version="1.1" viewBox="0 0 1696 1386" width="1696">
	<defs/>
	<path d="M 557.2031612285866,1278.795334568808 C 553.9031612285867,1278.005334568808 551.0731612285866,1278.525334568808 548.2931612285867,1278.795334568808 C 531.1031612285866,1280.795334568808 514.2131612285866,1278.0953345688079 497.2931612285866,1275.465334568808 C 493.9731612285866,1274.945334568808 491.0631612285866,1273.215334568808 488.2431612285866,1271.465334568808 Q 483.7431612285866,1268.615334568808 479.2431612285866,1265.8253345688079 C 467.6231612285866,1258.6653345688078 464.4031612285866,1245.0653345688079 472.57316122858657,1234.225334568808 C 486.5031612285866,1215.725334568808 504.78316122858655,1204.0953345688079 528.1431612285867,1201.225334568808 A 63.33,63.33 0.0 0,0 537.9731612285867,1199.645334568808 C 548.8831612285867,1196.5253345688081 557.7631612285867,1191.925334568808 562.5331612285867,1179.855334568808 C 568.9031612285867,1163.7453345688082 574.8131612285866,1147.585334568808 579.5331612285867,1130.925334568808 A 86.85,86.85 0.0 0,0 580.3331612285866,1085.615334568808 A 314.91,314.91 0.0 0,1 574.1631612285867,1054.3053345688081 C 572.3731612285867,1041.365334568808 571.2231612285866,1028.3053345688081 570.3031612285866,1015.3053345688081 C 568.5631612285866,990.5253345688081 566.9531612285866,965.7353345688081 563.4631612285866,941.1253345688081 C 562.0231612285866,931.035334568808 560.2631612285866,920.9553345688081 557.9831612285866,911.025334568808 C 552.3231612285866,886.305334568808 549.2131612285866,861.2453345688081 547.5631612285866,836.025334568808 C 546.6831612285866,822.565334568808 542.6231612285866,809.945334568808 538.6531612285867,797.2453345688081 C 537.7131612285866,794.2453345688081 535.7931612285867,791.785334568808 533.9231612285867,789.2453345688081 C 523.6631612285867,775.5853345688081 513.8731612285867,761.5953345688081 504.9231612285866,747.0553345688081 C 491.45316122858657,725.2253345688081 480.7731612285866,702.1853345688081 474.57316122858657,677.1753345688081 A 77.0,77.0 0.0 0,0 470.20316122858657,663.9253345688081 C 460.3031612285866,642.0253345688081 455.72316122858655,618.8253345688081 452.98316122858654,595.1553345688081 C 451.9331612285865,586.1553345688081 450.3131612285865,577.1553345688081 448.65316122858655,568.2353345688082 A 67.18,67.18 0.0 0,0 442.42316122858654,549.3653345688082 A 126.72,126.72 0.0 0,1 436.67316122858654,535.9153345688081 A 159.32,159.32 0.0 0,0 397.6331612285865,477.10533456880813 C 390.7631612285865,470.4953345688081 384.8231612285865,462.9453345688081 377.2031612285865,457.10533456880813 C 374.4731612285865,455.0053345688081 372.55316122858653,451.6153345688081 368.3731612285865,451.79533456880813 C 363.23316122858654,452.02533456880815 358.16316122858655,452.46533456880815 353.78316122858655,455.5653345688081 A 42.0,42.0 0.0 0,0 349.09316122858655,459.2753345688081 C 339.83316122858656,467.9653345688081 328.99316122858653,468.9453345688081 317.4431612285866,465.55533456880806 A 47.0,47.0 0.0 0,1 290.7331612285866,445.80533456880806 C 289.8831612285866,444.50533456880805 289.0331612285866,443.20533456880804 288.2431612285866,441.86533456880807 C 284.6131612285866,435.7153345688081 279.1731612285866,433.61533456880807 272.3731612285866,435.00533456880805 C 262.7531612285866,437.00533456880805 253.6731612285866,440.785334568808 244.9931612285866,445.08533456880804 C 223.8931612285866,455.52533456880803 202.72316122858658,465.545334568808 179.3931612285866,470.08533456880804 C 169.2831612285866,472.08533456880804 159.09316122858658,471.985334568808 148.8931612285866,471.90533456880803 C 141.5731612285866,471.855334568808 134.2331612285866,471.365334568808 126.94316122858659,471.76533456880804 C 112.12316122858658,472.58533456880804 99.58316122858659,467.355334568808 88.31316122858658,458.27533456880803 A 110.11,110.11 0.0 0,1 73.31316122858658,443.27533456880803 C 70.46316122858659,439.87533456880806 67.70316122858658,436.39533456880804 64.88316122858657,432.975334568808 C 57.403161228586576,423.90533456880803 57.403161228586576,423.90533456880803 46.503161228586585,427.77533456880803 C 33.99316122858659,432.19533456880805 24.313161228586583,426.37533456880806 22.503161228586585,413.14533456880804 C 21.363161228586584,404.95533456880804 23.243161228586583,397.24533456880806 27.273161228586584,390.14533456880804 A 67.78,67.78 0.0 0,1 37.20316122858659,376.845334568808 C 41.79316122858659,372.02533456880803 46.37316122858659,367.19533456880805 51.05316122858659,362.46533456880803 C 56.923161228586586,356.535334568808 56.05316122858659,357.56533456880805 51.50316122858659,352.12533456880806 A 352.35,352.35 0.0 0,1 19.213161228586593,307.25533456880805 C 11.093161228586537,293.7753345688079 9.003161228586537,278.50533456880794 8.383161228586538,263.11533456880795 C 8.033161228586538,254.39533456880795 7.0931612285865375,245.94533456880794 4.143161228586537,237.66533456880796 A 96.0,96.0 0.0 0,1 0.503161228586537,222.82533456880796 C -1.936838771413463,209.54533456880796 4.633161228586538,198.24533456880795 17.26316122858654,193.03533456880797 C 26.36316122858654,189.27533456880798 35.87316122858654,187.26533456880796 45.49316122858654,185.57533456880796 A 49.34,49.34 0.0 0,0 52.63316122858654,184.02533456880795 C 61.963161228586536,180.86533456880795 71.57316122858653,179.73533456880796 81.37316122858653,179.07533456880796 C 96.85316122858653,178.07533456880796 111.37316122858653,173.78533456880797 124.62316122858653,165.27533456880795 A 29.0,29.0 0.0 0,0 136.15316122858653,151.97533456880794 A 271.82,271.82 0.0 0,0 146.15316122858653,125.89533456880793 C 152.72316122858652,105.03533456880793 167.42316122858654,91.79533456880792 186.66316122858652,83.50533456880792 C 203.37316122858653,76.30533456880792 220.05316122858653,69.22533456880792 235.66316122858652,59.79533456880793 C 244.3931612285865,54.53533456880793 253.97316122858652,50.79533456880793 263.4631612285865,47.065334568807934 C 270.2531612285865,44.35533456880793 276.9831612285865,41.46533456880793 283.68316122858647,38.54533456880794 C 292.39316122858645,34.76533456880794 297.68316122858647,28.00533456880794 300.56316122858647,19.095334568807935 C 301.1731612285865,17.195334568807937 301.7831612285865,15.285334568807937 302.56316122858647,13.445334568807937 C 307.32316122858646,1.925334568807937 316.4831612285865,-2.364665431192064 328.39316122858645,1.2453345688079374 A 31.18,31.18 0.0 0,1 343.22316122858643,10.945334568807937 C 351.76316122858645,20.85533456880794 360.34316122858644,30.735334568807936 368.76316122858645,40.75533456880794 C 370.68316122858647,43.03533456880794 372.40316122858644,44.095334568807935 375.5431612285864,43.25533456880794 C 382.5431612285864,41.375334568807936 388.5431612285864,44.03533456880794 394.1731612285864,48.08533456880794 C 401.8231612285864,53.60533456880794 407.58316122858645,60.99533456880794 413.90316122858644,67.80533456880794 C 419.07316122858646,73.37533456880793 424.4831612285864,78.49533456880793 431.16316122858643,82.25533456880794 A 35.09,35.09 0.0 0,1 437.5531612285864,87.00533456880794 C 444.90316122858644,93.75533456880794 452.3931612285864,100.40533456880794 458.8231612285864,108.00533456880794 A 48.86,48.86 0.0 0,0 488.0931612285864,125.05533456880794 C 500.0931612285864,127.30533456880794 508.9731612285864,133.84533456880794 514.0931612285865,144.74533456880795 C 520.0931612285865,157.54533456880796 529.9031612285864,166.42533456880795 541.5731612285865,173.74533456880795 A 382.3,382.3 0.0 0,0 589.6931612285865,199.35533456880796 A 616.61,616.61 0.0 0,1 685.7731612285866,253.48533456880796 C 695.8531612285866,260.35533456880796 706.0931612285866,266.98533456880796 716.2431612285866,273.75533456880794 C 731.1331612285866,283.69533456880794 747.4631612285866,290.51533456880793 764.3931612285866,296.0253345688079 A 78.6,78.6 0.0 0,0 783.3131612285865,299.63533456880793 C 805.3131612285865,301.1653345688079 826.7031612285865,306.25533456880794 848.3731612285865,309.69533456880794 A 437.23,437.23 0.0 0,1 924.9731612285865,329.2053345688079 C 953.9731612285865,339.3953345688079 983.8031612285865,342.01533456880793 1014.1531612285864,340.6053345688079 C 1060.0131612285863,338.4853345688079 1105.8431612285865,335.8353345688079 1151.7131612285864,334.0353345688079 C 1186.5131612285863,332.6653345688079 1221.3231612285863,332.3153345688079 1256.1131612285865,331.1553345688079 C 1288.7031612285864,330.06533456880794 1320.7131612285864,334.9653345688079 1352.4331612285864,341.8353345688079 C 1384.5431612285863,348.8353345688079 1416.1031612285865,357.74533456880795 1446.6631612285864,369.93533456880795 C 1452.8331612285865,372.38533456880793 1458.8331612285865,375.30533456880795 1464.7631612285863,378.31533456880794 C 1478.7631612285863,385.43533456880795 1492.9831612285864,392.31533456880794 1507.5231612285863,398.31533456880794 C 1526.5231612285863,406.23533456880796 1546.8531612285863,408.74533456880795 1567.0431612285863,411.78533456880797 C 1592.0431612285863,415.54533456880796 1617.0431612285863,414.31533456880794 1642.1031612285863,413.98533456880796 A 148.79,148.79 0.0 0,1 1668.6231612285862,415.75533456880794 C 1675.4831612285861,416.8953345688079 1682.0031612285864,419.01533456880793 1687.2431612285861,423.92533456880795 C 1694.813161228586,431.01533456880793 1697.1431612285862,439.525334568808 1693.6631612285862,449.335334568808 A 40.19,40.19 0.0 0,1 1676.2231612285862,470.48533456880796 A 91.54,91.54 0.0 0,1 1643.9431612285862,482.335334568808 C 1628.6531612285862,485.055334568808 1613.2031612285862,486.625334568808 1597.8231612285863,488.775334568808 A 76.54,76.54 0.0 0,0 1582.4531612285864,492.275334568808 C 1581.8631612285865,494.645334568808 1582.9631612285864,496.435334568808 1583.7431612285864,498.205334568808 C 1598.5231612285863,531.7553345688079 1604.7431612285864,567.135334568808 1607.2631612285863,603.475334568808 A 338.64,338.64 0.0 0,1 1604.5231612285863,676.475334568808 C 1602.0731612285863,693.0153345688079 1596.5231612285863,708.715334568808 1591.6231612285862,724.605334568808 C 1586.8131612285863,740.2753345688079 1580.6231612285862,755.5353345688079 1577.5231612285863,771.735334568808 A 207.33,207.33 0.0 0,0 1573.6631612285864,817.375334568808 C 1574.0531612285865,830.8953345688079 1573.8931612285865,844.375334568808 1574.0931612285865,857.955334568808 C 1574.3031612285865,872.685334568808 1572.1631612285864,887.115334568808 1569.4231612285864,901.535334568808 A 84.0,84.0 0.0 0,0 1570.9331612285864,940.385334568808 C 1576.3131612285865,959.5953345688081 1581.6231612285865,978.8353345688081 1585.0031612285864,998.545334568808 A 62.35,62.35 0.0 0,0 1593.5331612285863,1020.775334568808 C 1595.6231612285862,1024.175334568808 1597.4431612285864,1027.775334568808 1599.5331612285863,1031.145334568808 C 1611.3431612285863,1050.5253345688081 1614.2131612285864,1071.255334568808 1609.0631612285863,1093.225334568808 C 1607.0631612285863,1101.645334568808 1605.2731612285863,1110.105334568808 1603.1631612285862,1118.485334568808 C 1599.6331612285862,1132.485334568808 1598.773161228586,1146.965334568808 1596.4131612285862,1161.175334568808 C 1594.023161228586,1175.605334568808 1591.5831612285863,1190.035334568808 1588.9231612285862,1204.425334568808 C 1586.543161228586,1217.325334568808 1585.9231612285862,1230.425334568808 1584.4531612285862,1243.425334568808 C 1583.6831612285862,1250.255334568808 1583.4531612285862,1257.135334568808 1583.0831612285863,1264.005334568808 C 1582.0831612285863,1284.0953345688079 1577.2031612285862,1303.3753345688078 1571.0831612285863,1322.405334568808 C 1569.8231612285863,1326.335334568808 1568.2731612285863,1329.955334568808 1563.5331612285863,1330.695334568808 A 1.25,1.25 0.0 0,0 1562.9631612285864,1331.015334568808 C 1552.4231612285864,1340.545334568808 1539.5031612285864,1342.915334568808 1525.9631612285864,1343.455334568808 C 1522.3831612285865,1343.605334568808 1518.9631612285864,1344.805334568808 1515.6031612285865,1345.805334568808 A 43.0,43.0 0.0 0,1 1491.9731612285864,1346.525334568808 A 58.77,58.77 0.0 0,0 1479.5131612285863,1344.525334568808 A 31.82,31.82 0.0 0,1 1472.9631612285864,1343.415334568808 C 1462.0931612285865,1340.565334568808 1455.9631612285864,1331.575334568808 1457.3131612285863,1320.415334568808 A 47.15,47.15 0.0 0,1 1468.8631612285863,1294.725334568808 C 1475.7131612285862,1286.785334568808 1483.7031612285862,1280.0853345688079 1491.5631612285863,1273.245334568808 C 1497.1531612285862,1268.385334568808 1501.4531612285864,1262.485334568808 1505.9331612285862,1256.705334568808 A 6.13,6.13 0.0 0,0 1507.5831612285863,1253.145334568808 C 1507.7531612285864,1245.145334568808 1510.9431612285862,1238.0353345688081 1513.6531612285862,1230.7953345688081 A 90.36,90.36 0.0 0,0 1519.4931612285861,1199.595334568808 C 1519.7431612285861,1165.595334568808 1517.863161228586,1131.7653345688082 1509.9931612285861,1098.5253345688081 C 1509.533161228586,1096.605334568808 1509.4331612285862,1094.5253345688081 1508.073161228586,1092.9553345688082 C 1506.073161228586,1093.7853345688081 1506.073161228586,1095.7853345688081 1505.433161228586,1097.3553345688083 C 1498.433161228586,1113.9153345688082 1493.0531612285859,1131.0653345688083 1485.433161228586,1147.3553345688083 C 1482.753161228586,1153.1353345688083 1481.433161228586,1159.5453345688084 1479.563161228586,1165.7053345688082 A 47.58,47.58 0.0 0,1 1466.773161228586,1186.4153345688082 A 37.89,37.89 0.0 0,1 1449.063161228586,1196.4153345688082 C 1428.4431612285862,1201.4753345688082 1407.673161228586,1201.0953345688083 1386.9631612285862,1197.7553345688082 C 1376.4831612285861,1196.065334568808 1368.833161228586,1189.2853345688081 1364.5931612285863,1179.625334568808 C 1360.6631612285862,1170.675334568808 1363.1231612285862,1162.0553345688081 1368.9331612285862,1154.675334568808 C 1378.9331612285862,1142.025334568808 1391.3631612285863,1132.735334568808 1407.043161228586,1128.075334568808 C 1423.6831612285862,1123.145334568808 1433.153161228586,1111.685334568808 1437.293161228586,1095.075334568808 C 1441.543161228586,1077.9853345688082 1445.1931612285862,1060.935334568808 1442.913161228586,1043.155334568808 C 1441.423161228586,1031.495334568808 1439.643161228586,1019.885334568808 1437.503161228586,1008.325334568808 A 7.79,7.79 0.0 0,1 1437.193161228586,1007.035334568808 C 1436.943161228586,994.8553345688081 1430.8131612285858,985.1053345688081 1424.123161228586,975.635334568808 C 1417.213161228586,965.8353345688081 1409.803161228586,956.445334568808 1401.123161228586,948.135334568808 C 1387.563161228586,935.2353345688081 1375.863161228586,920.7353345688081 1365.2631612285861,905.3753345688081 C 1347.0131612285861,878.905334568808 1328.5031612285861,852.5953345688081 1313.6731612285862,823.945334568808 C 1304.4931612285861,806.225334568808 1295.4831612285861,788.425334568808 1284.3331612285863,771.795334568808 C 1276.5231612285863,760.145334568808 1272.2531612285864,746.6253345688081 1265.7831612285863,734.255334568808 C 1265.3731612285862,733.4653345688081 1265.0131612285863,732.645334568808 1264.6031612285863,731.8653345688081 C 1261.3931612285862,725.7353345688081 1261.2631612285863,725.7453345688081 1255.3531612285863,729.8653345688081 A 254.13,254.13 0.0 0,1 1217.9431612285862,751.4453345688081 A 638.2,638.2 0.0 0,0 1151.4931612285861,787.9053345688081 Q 1126.613161228586,803.3653345688082 1100.9231612285862,817.3953345688082 A 105.59,105.59 0.0 0,1 1072.3431612285863,827.9853345688082 C 1056.5031612285864,831.4053345688081 1041.3431612285863,837.1153345688082 1025.7431612285864,841.5853345688082 C 1009.7431612285864,846.1853345688082 993.5631612285864,849.9653345688082 977.4031612285863,853.8553345688082 C 965.7331612285864,856.6653345688081 954.2231612285864,859.9453345688082 943.2331612285864,864.7653345688082 C 929.7931612285863,870.6653345688081 915.5331612285863,872.1553345688081 901.1531612285863,873.7653345688082 C 874.6431612285863,876.6453345688082 848.4531612285863,873.8853345688082 822.2631612285863,870.4253345688081 Q 803.1231612285864,867.9053345688081 783.9931612285864,865.4253345688081 C 782.4531612285864,865.2353345688081 780.9031612285863,865.1753345688081 779.3531612285864,865.0553345688081 C 776.6331612285863,864.8553345688081 775.3531612285864,866.0553345688081 775.0431612285864,868.8453345688081 A 52.0,52.0 0.0 0,1 773.0431612285864,877.9353345688081 A 44.37,44.37 0.0 0,1 761.3931612285865,897.0553345688081 C 755.9931612285865,902.1853345688081 753.3931612285865,908.4853345688081 752.0531612285864,915.7153345688081 C 749.8031612285864,928.1853345688081 748.9831612285864,940.8053345688081 747.6631612285864,953.3653345688081 C 745.9931612285865,969.3053345688081 743.3831612285865,985.0553345688081 738.7431612285865,1000.3653345688081 A 265.0,265.0 0.0 0,0 728.9331612285865,1050.5553345688081 C 726.5531612285865,1073.9953345688082 721.7331612285865,1096.9853345688082 717.2231612285865,1120.0553345688081 A 515.86,515.86 0.0 0,0 708.2231612285865,1194.615334568808 C 707.7631612285865,1204.315334568808 706.0831612285865,1213.975334568808 704.6131612285865,1223.615334568808 C 703.6731612285864,1229.7453345688082 700.2231612285865,1234.675334568808 695.7231612285865,1238.865334568808 A 9.25,9.25 0.0 0,1 694.7231612285865,1239.7653345688082 C 682.3331612285865,1248.5553345688081 677.1331612285865,1261.2853345688081 673.9131612285865,1275.615334568808 C 669.9131612285865,1293.335334568808 665.1831612285865,1310.915334568808 660.2031612285865,1328.395334568808 C 656.3831612285865,1341.815334568808 649.6531612285866,1353.725334568808 638.9531612285865,1363.065334568808 A 15.91,15.91 0.0 0,0 637.0531612285865,1364.925334568808 C 626.3531612285865,1378.345334568808 611.4431612285865,1382.375334568808 595.3031612285865,1383.655334568808 A 43.56,43.56 0.0 0,0 589.3031612285865,1384.175334568808 A 80.53,80.53 0.0 0,1 562.2131612285865,1385.275334568808 C 549.8931612285865,1383.8353345688079 537.4231612285865,1383.495334568808 525.2131612285865,1381.555334568808 C 516.3431612285865,1380.1453345688078 508.60316122858643,1375.195334568808 502.68316122858647,1368.3953345688078 C 498.25316122858646,1363.3253345688079 497.52316122858645,1356.7253345688077 498.4931612285865,1350.1153345688078 A 33.28,33.28 0.0 0,1 500.32316122858646,1342.3653345688078 C 508.63316122858646,1322.5753345688079 519.6331612285865,1304.9553345688078 538.6331612285865,1293.6553345688078 C 542.6331612285865,1291.2753345688077 546.6331612285865,1288.9153345688078 550.4731612285865,1286.2453345688077 C 553.1231612285865,1284.3753345688078 555.9031612285864,1282.4553345688078 557.2031612285865,1278.7953345688077 L 557.2031612285866,1278.795334568808"/>
</svg>
