<?xml version="1.0" ?>
<svg xmlns="http://www.w3.org/2000/svg" xmlns:ev="http://www.w3.org/2001/xml-events" xmlns:xlink="http://www.w3.org/1999/xlink" baseProfile="full" data-name="Layer 1" height="1640" transform="scale(0.06097560975609756 0.06097560975609756) translate(-848.0 -820.0)" version="1.1" viewBox="0 0 1696 1640" width="1696">
	<defs/>
	<path d="M 381.45948131712186,1560.5192612943467 C 369.9394813171219,1559.2092612943468 360.90948131712184,1552.6392612943466 349.9994813171219,1552.1992612943468 A 25.54,25.54 0.0 0,1 339.9994813171219,1549.4692612943468 C 332.52948131712185,1545.8292612943467 325.27948131712185,1541.849261294347 316.9994813171219,1539.8692612943469 C 311.3794813171219,1538.529261294347 308.39948131712185,1533.9492612943468 307.25948131712187,1528.289261294347 A 26.53,26.53 0.0 0,1 310.84948131712184,1508.289261294347 C 318.84948131712184,1495.349261294347 330.20948131712186,1485.989261294347 343.3794813171218,1478.739261294347 A 103.67,103.67 0.0 0,1 368.6294813171218,1469.199261294347 C 376.29948131712183,1467.299261294347 383.7594813171218,1464.959261294347 390.2594813171218,1460.199261294347 A 16.13,16.13 0.0 0,0 395.9094813171218,1452.609261294347 C 401.68948131712176,1437.699261294347 403.5094813171218,1422.0992612943471 404.05948131712177,1406.3292612943471 A 371.28,371.28 0.0 0,0 398.62948131712176,1329.5692612943471 C 394.8494813171218,1307.869261294347 393.76948131712174,1285.929261294347 392.70948131712174,1263.9492612943473 C 391.21948131712173,1232.9492612943473 392.63948131712175,1201.9492612943473 391.93948131712176,1170.9492612943473 C 391.63948131712175,1157.5192612943472 389.3594813171218,1144.2492612943472 387.33948131712174,1130.9492612943473 C 384.99948131712176,1115.6292612943473 382.07948131712175,1100.4092612943473 380.76948131712174,1084.9492612943473 A 239.68,239.68 0.0 0,0 376.76948131712174,1058.8992612943473 C 373.88948131712175,1044.2792612943474 374.39948131712174,1029.3892612943473 372.70948131712174,1014.6792612943472 A 178.23,178.23 0.0 0,0 358.96948131712173,962.4692612943471 A 20.1,20.1 0.0 0,0 356.58948131712174,958.2492612943471 C 344.2894813171217,942.5792612943471 334.50948131712175,925.1092612943471 322.00948131712175,909.5792612943471 A 67.39,67.39 0.0 0,0 317.68948131712176,904.1392612943471 C 306.76948131712174,893.1392612943471 299.49948131712176,879.6492612943471 292.2394813171218,866.2092612943471 C 284.86948131712177,852.5792612943471 277.93948131712176,838.6992612943471 270.2394813171218,825.2092612943471 C 263.51948131712174,813.3992612943472 260.55948131712177,800.2092612943471 257.38948131712175,787.2092612943471 A 212.24,212.24 0.0 0,0 248.22948131712178,757.4092612943472 C 243.78948131712178,746.4092612943472 241.22948131712178,734.8592612943472 239.41948131712178,723.1892612943471 C 237.60948131712178,711.5192612943471 240.01948131712177,700.1892612943471 242.76948131712177,688.8692612943471 C 245.17948131712177,678.9792612943471 249.07948131712178,669.4592612943471 250.29948131712177,659.299261294347 C 252.76948131712177,638.7492612943471 252.05948131712177,618.1592612943471 250.64948131712177,597.589261294347 C 249.73948131712177,584.429261294347 248.72948131712178,571.239261294347 243.95948131712177,558.739261294347 C 240.65948131712176,550.069261294347 235.58948131712177,542.269261294347 231.75948131712178,533.849261294347 C 230.42948131712177,530.909261294347 228.81948131712178,528.079261294347 227.22948131712178,525.259261294347 A 70.16,70.16 0.0 0,1 218.08948131712177,485.919261294347 A 99.21,99.21 0.0 0,0 214.14948131712177,452.919261294347 Q 208.22948131712178,431.919261294347 201.88948131712178,410.919261294347 C 199.10948131712178,401.679261294347 193.9394813171218,395.659261294347 184.3794813171218,394.919261294347 C 171.26948131712177,393.919261294347 159.9094813171218,389.029261294347 148.9994813171218,382.059261294347 C 142.81948131712178,378.109261294347 135.50948131712178,377.569261294347 128.1894813171218,377.95926129434696 C 117.55948131712178,378.50926129434697 106.93948131712177,379.33926129434695 96.26948131712177,378.51926129434696 A 52.49,52.49 0.0 0,1 80.12948131712177,374.749261294347 C 69.25948131712177,370.33926129434695 58.25948131712177,365.95926129434696 47.439481317121775,361.32926129434696 A 59.26,59.26 0.0 0,1 16.519481317121773,331.819261294347 C 12.739481317121776,324.09926129434695 8.909481317121775,316.46926129434695 8.259481317121775,307.739261294347 C 8.089481317121775,305.739261294347 6.879481317121775,303.859261294347 5.779481317121775,302.059261294347 C -4.220518682878225,285.75926129434697 -0.8905186828782252,264.939261294347 13.039481317121774,251.429261294347 C 25.109481317121777,239.729261294347 38.76948131712177,230.30926129434698 52.75948131712177,221.25926129434697 C 67.75948131712177,211.55926129434698 81.75948131712177,200.48926129434693 95.45948131712177,189.12926129434697 A 21.16,21.16 0.0 0,0 103.52948131712178,175.26926129434696 C 105.86948131712178,160.26926129434696 105.45948131712179,145.26926129434696 105.82948131712178,130.21926129434695 A 133.0,133.0 0.0 0,1 110.51948131712177,96.61926129434694 C 115.39948131712177,79.61926129434694 124.13948131712178,65.50926129434694 140.0894813171218,56.30926129434694 C 156.0394813171218,47.109261294346936 170.7994813171218,36.469261294346936 186.6094813171218,27.30926129434694 A 90.94,90.94 0.0 0,1 235.0694813171218,14.929261294346938 C 246.6394813171218,15.149261294346939 257.5494813171218,12.409261294346939 268.30948131712177,8.679261294346938 C 279.06948131712176,4.949261294346938 289.8594813171218,1.6792612943469383 301.24948131712176,0.559261294346939 A 112.62,112.62 0.0 0,1 358.24948131712176,9.729261294346939 C 375.7994813171218,17.48926129434694 393.24948131712176,25.53926129434694 410.88948131712175,33.01926129434694 C 425.58948131712174,39.24926129434694 437.68948131712176,49.319261294346944 449.88948131712175,59.33926129434694 C 468.76948131712174,74.85926129434694 483.1694813171218,93.91926129434694 495.32948131712175,114.93926129434693 C 506.0394813171217,133.45926129434696 518.5194813171219,150.64926129434696 534.5994813171218,165.01926129434696 C 544.9194813171218,174.24926129434692 552.4994813171218,185.53926129434694 558.5994813171218,197.89926129434696 C 567.2894813171218,215.33926129434695 573.7594813171218,233.67926129434693 580.8494813171218,251.76926129434696 C 582.4594813171218,255.85926129434694 583.8494813171218,260.059261294347 585.8494813171218,263.94926129434697 C 597.8494813171218,287.309261294347 606.3794813171218,312.00926129434697 614.6494813171217,336.82926129434696 C 617.7194813171218,346.049261294347 620.8994813171217,355.25926129434697 625.9794813171218,363.629261294347 C 627.1694813171218,365.629261294347 628.1794813171218,367.739261294347 630.2494813171218,369.01926129434696 C 636.3994813171217,372.819261294347 641.4194813171217,378.01926129434696 646.9094813171217,382.619261294347 A 60.83,60.83 0.0 0,0 660.9094813171217,391.499261294347 A 82.16,82.16 0.0 0,1 679.6794813171217,403.289261294347 C 690.7494813171218,412.509261294347 703.1194813171218,418.849261294347 717.3794813171218,421.509261294347 C 723.0494813171217,422.56926129434703 728.6594813171217,424.06926129434703 734.2294813171218,425.62926129434703 C 747.6594813171217,429.399261294347 760.5594813171218,434.34926129434706 772.1294813171218,442.399261294347 C 782.4794813171218,449.609261294347 794.0194813171217,454.31926129434703 806.0094813171218,458.089261294347 C 814.2394813171218,460.679261294347 821.9394813171217,464.279261294347 828.2594813171218,470.449261294347 A 62.29,62.29 0.0 0,0 847.6894813171217,483.56926129434703 A 52.64,52.64 0.0 0,0 871.3194813171217,488.089261294347 C 887.9594813171217,487.219261294347 904.6294813171218,486.759261294347 921.3194813171217,487.089261294347 C 944.9994813171216,487.539261294347 967.8894813171217,482.93926129434703 990.1894813171217,475.699261294347 A 243.89,243.89 0.0 0,1 1046.5694813171217,464.699261294347 C 1063.6394813171216,463.329261294347 1080.6594813171216,461.30926129434704 1097.7494813171218,460.159261294347 A 178.78,178.78 0.0 0,1 1119.9594813171218,460.489261294347 C 1134.7694813171217,461.32926129434696 1149.5694813171217,461.399261294347 1164.3894813171219,461.489261294347 C 1182.299481317122,461.619261294347 1199.799481317122,465.309261294347 1217.3894813171219,468.049261294347 C 1233.1994813171218,470.519261294347 1249.0094813171218,472.50926129434697 1265.089481317122,470.959261294347 A 77.72,77.72 0.0 0,1 1300.519481317122,476.039261294347 C 1311.1194813171219,480.039261294347 1321.819481317122,483.779261294347 1332.409481317122,487.859261294347 C 1343.8294813171221,492.25926129434697 1355.5394813171222,495.94926129434697 1367.239481317122,499.609261294347 A 120.0,120.0 0.0 0,1 1402.929481317122,517.859261294347 C 1414.539481317122,526.449261294347 1427.169481317122,533.149261294347 1440.199481317122,539.209261294347 C 1447.389481317122,542.559261294347 1455.0894813171221,544.209261294347 1462.629481317122,546.459261294347 C 1470.409481317122,548.729261294347 1478.209481317122,550.9092612943471 1485.629481317122,554.099261294347 A 49.73,49.73 0.0 0,1 1507.869481317122,572.309261294347 A 249.81,249.81 0.0 0,1 1523.399481317122,599.3992612943471 A 282.12,282.12 0.0 0,0 1545.0394813171222,634.949261294347 C 1556.5994813171221,651.249261294347 1566.879481317122,668.299261294347 1570.909481317122,688.2792612943471 C 1572.189481317122,694.6292612943471 1573.3194813171222,701.0192612943471 1574.159481317122,707.439261294347 C 1576.409481317122,724.6592612943471 1579.0594813171222,741.7792612943471 1584.8094813171222,758.2692612943471 C 1587.1894813171223,765.0892612943471 1587.899481317122,772.2692612943471 1588.3594813171221,779.429261294347 C 1588.929481317122,788.429261294347 1589.449481317122,797.429261294347 1590.3594813171221,806.429261294347 C 1591.8394813171221,821.099261294347 1596.5494813171222,834.919261294347 1602.7394813171222,848.179261294347 C 1613.8594813171221,871.979261294347 1618.0794813171221,897.599261294347 1622.6394813171223,923.079261294347 C 1624.4594813171223,933.2692612943471 1623.6394813171223,943.869261294347 1625.5394813171224,954.1592612943471 C 1629.5394813171224,976.1592612943471 1635.8694813171223,997.4092612943471 1645.6394813171223,1017.459261294347 C 1654.1894813171223,1035.0292612943472 1661.3194813171224,1052.9992612943472 1665.6394813171223,1072.0792612943471 C 1668.9594813171223,1086.8192612943471 1674.4894813171222,1100.7792612943472 1680.6394813171223,1114.5192612943472 C 1690.4994813171222,1136.359261294347 1695.0294813171224,1159.5192612943472 1695.1494813171223,1183.2992612943472 C 1695.2194813171222,1197.649261294347 1696.4494813171223,1211.9892612943472 1695.4194813171223,1226.3492612943471 A 49.48,49.48 0.0 0,1 1694.0394813171222,1236.649261294347 C 1692.2094813171223,1242.989261294347 1688.3194813171222,1245.749261294347 1681.7794813171222,1245.419261294347 C 1677.369481317122,1245.199261294347 1672.9394813171223,1244.719261294347 1668.869481317122,1242.989261294347 C 1652.0094813171222,1235.8592612943469 1635.0694813171222,1228.829261294347 1622.129481317122,1215.1092612943469 C 1618.639481317122,1211.3992612943468 1615.199481317122,1207.6492612943468 1611.689481317122,1203.9592612943468 C 1606.269481317122,1198.2392612943468 1600.769481317122,1192.6392612943469 1594.169481317122,1188.1992612943468 C 1588.169481317122,1184.1992612943468 1584.039481317122,1178.079261294347 1578.8194813171222,1173.1992612943468 C 1577.179481317122,1171.6592612943468 1576.159481317122,1169.3792612943469 1573.7394813171222,1168.6592612943468 C 1572.6094813171221,1170.2792612943467 1573.5794813171221,1171.7492612943468 1573.9194813171223,1173.2292612943468 C 1578.9194813171223,1194.5992612943467 1588.7994813171224,1213.5092612943467 1602.6294813171223,1230.4292612943468 A 207.49,207.49 0.0 0,1 1622.6294813171223,1258.7192612943468 C 1628.9794813171222,1269.8392612943467 1638.0194813171224,1278.9692612943468 1645.8194813171224,1289.0192612943467 C 1655.3394813171224,1301.2592612943467 1661.4594813171225,1314.5592612943467 1660.9994813171224,1330.4492612943468 C 1660.6394813171225,1342.9492612943468 1660.6894813171225,1355.4492612943468 1660.4194813171225,1367.9592612943468 A 159.65,159.65 0.0 0,0 1662.8394813171226,1398.349261294347 C 1665.2094813171225,1412.269261294347 1666.9694813171227,1426.259261294347 1668.1994813171225,1440.349261294347 A 647.0,647.0 0.0 0,0 1677.6894813171225,1505.579261294347 A 488.07,488.07 0.0 0,1 1685.3094813171224,1561.269261294347 C 1686.1794813171223,1572.819261294347 1685.4794813171225,1584.429261294347 1681.5194813171224,1595.559261294347 C 1676.7794813171224,1608.8592612943469 1668.6594813171225,1618.8892612943469 1654.8494813171224,1623.749261294347 A 108.21,108.21 0.0 0,0 1631.6794813171223,1634.749261294347 C 1624.6794813171223,1639.319261294347 1616.9994813171222,1640.139261294347 1608.9994813171222,1638.379261294347 C 1603.8094813171222,1637.229261294347 1598.6094813171221,1636.0192612943472 1593.5094813171222,1634.5192612943472 C 1585.5094813171222,1632.1592612943473 1577.5094813171222,1630.1792612943473 1569.0294813171222,1630.0892612943471 C 1557.0294813171222,1629.949261294347 1547.8594813171221,1624.2592612943472 1541.3594813171221,1614.199261294347 A 26.93,26.93 0.0 0,0 1538.419481317122,1610.3392612943471 C 1529.669481317122,1601.159261294347 1528.779481317122,1590.5792612943471 1533.629481317122,1579.4992612943472 A 91.0,91.0 0.0 0,1 1562.0094813171222,1543.1892612943473 C 1572.3194813171222,1535.3292612943474 1576.5094813171222,1524.9692612943472 1578.4494813171223,1513.0292612943472 A 63.58,63.58 0.0 0,0 1579.5394813171222,1500.5892612943471 C 1578.9594813171223,1484.7592612943472 1581.3594813171221,1469.199261294347 1583.149481317122,1453.5892612943471 C 1583.389481317122,1451.5192612943472 1583.5494813171222,1449.439261294347 1583.749481317122,1447.369261294347 C 1584.749481317122,1436.679261294347 1582.809481317122,1427.0792612943471 1576.339481317122,1417.939261294347 C 1566.339481317122,1403.739261294347 1558.769481317122,1388.049261294347 1552.339481317122,1371.8392612943471 C 1549.089481317122,1363.639261294347 1544.1594813171218,1356.2692612943472 1539.519481317122,1348.8392612943471 C 1533.759481317122,1339.5792612943471 1528.3694813171219,1330.109261294347 1524.469481317122,1319.939261294347 C 1519.049481317122,1305.789261294347 1509.889481317122,1294.219261294347 1500.009481317122,1283.139261294347 C 1488.009481317122,1269.669261294347 1475.689481317122,1256.429261294347 1463.479481317122,1243.139261294347 C 1461.689481317122,1241.139261294347 1460.099481317122,1238.919261294347 1456.659481317122,1237.449261294347 C 1456.659481317122,1244.379261294347 1456.3194813171222,1250.449261294347 1456.5594813171222,1256.689261294347 C 1457.0794813171221,1270.0892612943471 1457.619481317122,1283.519261294347 1456.0194813171222,1296.909261294347 C 1454.3594813171221,1310.699261294347 1452.6994813171223,1324.489261294347 1452.3594813171221,1338.399261294347 C 1452.2394813171222,1343.259261294347 1451.919481317122,1348.139261294347 1452.179481317122,1352.979261294347 C 1453.629481317122,1380.799261294347 1451.629481317122,1408.529261294347 1450.3294813171221,1436.279261294347 C 1449.5494813171222,1453.1392612943469 1449.699481317122,1470.059261294347 1446.7894813171222,1486.799261294347 C 1443.7894813171222,1504.009261294347 1435.9294813171223,1517.4192612943468 1420.0694813171222,1525.8892612943469 C 1405.9894813171222,1533.4092612943468 1391.439481317122,1537.599261294347 1375.379481317122,1535.329261294347 A 46.12,46.12 0.0 0,0 1357.449481317122,1536.329261294347 A 82.22,82.22 0.0 0,1 1340.929481317122,1538.239261294347 A 32.27,32.27 0.0 0,1 1322.279481317122,1533.829261294347 A 100.52,100.52 0.0 0,0 1309.259481317122,1527.469261294347 C 1299.549481317122,1523.339261294347 1294.259481317122,1515.469261294347 1292.3694813171219,1505.269261294347 A 14.89,14.89 0.0 0,1 1294.109481317122,1495.179261294347 A 37.85,37.85 0.0 0,1 1299.029481317122,1487.649261294347 C 1313.6394813171219,1471.949261294347 1330.219481317122,1459.3392612943471 1352.029481317122,1455.509261294347 C 1357.849481317122,1454.509261294347 1361.6294813171219,1451.709261294347 1363.699481317122,1446.079261294347 C 1366.429481317122,1438.6492612943468 1368.549481317122,1431.1592612943468 1368.999481317122,1423.1892612943468 C 1369.809481317122,1408.8792612943469 1372.519481317122,1394.6992612943468 1371.8694813171219,1380.2692612943467 C 1371.6794813171218,1376.0692612943467 1371.319481317122,1372.0792612943467 1369.6794813171218,1368.0992612943467 C 1368.109481317122,1364.2792612943467 1367.4094813171218,1360.0992612943467 1366.1894813171218,1356.0992612943467 C 1365.1894813171218,1353.0192612943467 1364.5194813171217,1349.7392612943468 1362.9494813171218,1346.9792612943468 C 1351.0394813171217,1326.0692612943467 1345.1494813171219,1302.8592612943469 1337.2694813171217,1280.4192612943468 C 1331.2694813171217,1263.2692612943467 1322.1094813171217,1247.7092612943468 1313.0994813171217,1232.079261294347 A 19.15,19.15 0.0 0,0 1309.7894813171217,1228.579261294347 C 1289.7894813171217,1208.579261294347 1270.3594813171217,1188.1392612943469 1252.7894813171217,1165.9292612943468 A 191.1,191.1 0.0 0,1 1235.7894813171217,1139.7192612943468 C 1224.2394813171218,1118.7892612943467 1211.2794813171217,1098.8992612943468 1195.3894813171216,1080.8792612943469 C 1186.2194813171216,1070.4792612943468 1178.6794813171216,1058.7092612943468 1171.1494813171216,1047.019261294347 C 1163.1494813171216,1034.569261294347 1155.0394813171217,1022.1492612943468 1147.1494813171216,1009.6392612943469 C 1145.2794813171217,1006.6392612943469 1143.2094813171216,1005.1292612943469 1139.4494813171216,1004.9092612943468 A 80.46,80.46 0.0 0,1 1119.1394813171216,1000.5392612943468 C 1110.4794813171216,997.6892612943468 1101.5294813171217,995.9492612943468 1092.4994813171215,996.5392612943468 C 1066.2594813171215,998.1292612943469 1040.1994813171216,995.5392612943468 1014.1194813171217,993.7292612943469 C 990.7794813171216,992.1192612943469 968.4594813171217,996.3192612943469 946.6794813171217,1003.7992612943469 C 931.5394813171217,1008.999261294347 916.3794813171218,1013.659261294347 900.4294813171217,1015.5892612943469 C 888.2294813171217,1017.0592612943469 876.3294813171217,1020.0692612943469 864.4294813171217,1023.1692612943469 C 846.3094813171217,1027.899261294347 828.1494813171217,1032.529261294347 809.9294813171217,1036.889261294347 A 168.0,168.0 0.0 0,0 768.6194813171218,1052.889261294347 C 753.1194813171218,1061.3392612943471 736.6194813171218,1064.889261294347 719.2294813171218,1064.7892612943472 C 710.9894813171218,1064.7892612943472 703.1594813171217,1065.7892612943472 695.5794813171218,1069.1792612943473 C 680.6494813171219,1075.8792612943473 665.2194813171218,1074.0392612943472 649.8394813171218,1071.1792612943473 C 642.8394813171218,1069.8792612943473 635.7694813171217,1068.3392612943474 628.8394813171218,1066.6892612943473 C 625.4594813171218,1065.8792612943473 623.2294813171218,1066.1492612943473 621.7794813171218,1069.8892612943473 C 613.7794813171218,1090.5092612943472 607.4094813171218,1111.4592612943472 607.3794813171219,1133.8892612943473 C 607.3794813171219,1145.2292612943472 607.3794813171219,1156.5792612943474 607.6594813171218,1167.8892612943473 A 79.76,79.76 0.0 0,1 602.8294813171218,1196.4792612943472 C 600.5794813171218,1202.7992612943472 598.4494813171218,1209.1592612943473 596.1094813171218,1215.4792612943472 C 591.7594813171218,1227.1392612943473 590.2394813171218,1239.2592612943472 590.1094813171218,1251.5992612943471 C 590.0394813171217,1262.5992612943471 588.8394813171218,1273.5292612943472 584.2694813171217,1283.4892612943472 C 574.9494813171217,1303.7992612943472 574.0594813171217,1325.0592612943472 575.4594813171218,1346.7392612943472 C 576.4594813171218,1361.5392612943472 576.8794813171218,1376.2692612943472 574.3094813171218,1391.0392612943472 C 572.4494813171218,1401.6792612943473 574.2294813171218,1412.2692612943472 577.3094813171218,1422.5792612943471 A 85.34,85.34 0.0 0,1 581.0394813171218,1450.669261294347 C 580.7194813171218,1459.109261294347 577.1494813171219,1465.259261294347 569.1694813171218,1468.5892612943471 C 565.3494813171218,1470.189261294347 561.7794813171218,1472.5892612943471 557.4294813171218,1472.5892612943471 C 554.4794813171218,1472.5892612943471 553.5394813171218,1474.119261294347 553.4294813171218,1476.929261294347 A 189.12,189.12 0.0 0,0 553.9294813171218,1504.689261294347 C 555.3194813171218,1519.689261294347 552.4094813171218,1533.8192612943471 544.5794813171218,1546.689261294347 A 83.35,83.35 0.0 0,0 533.5794813171218,1574.979261294347 A 63.0,63.0 0.0 0,1 529.7094813171218,1588.289261294347 C 525.1994813171218,1598.699261294347 517.7694813171217,1605.669261294347 507.24948131712176,1610.459261294347 C 493.4094813171218,1616.759261294347 479.14948131712174,1619.459261294347 464.1594813171218,1619.619261294347 C 456.99948131712176,1619.699261294347 450.0494813171218,1621.969261294347 442.7694813171218,1621.619261294347 A 109.64,109.64 0.0 0,1 410.9294813171218,1615.0692612943471 A 40.18,40.18 0.0 0,0 395.3194813171218,1612.5092612943472 A 47.26,47.26 0.0 0,1 375.5594813171218,1609.4492612943473 C 367.27948131712185,1606.0992612943473 364.71948131712185,1601.8292612943474 364.96948131712185,1592.8792612943473 A 36.27,36.27 0.0 0,1 373.58948131712185,1569.9492612943473 C 376.01948131712186,1567.0192612943472 378.33948131712185,1564.2392612943472 381.45948131712186,1560.5192612943472 L 381.45948131712186,1560.5192612943467"/>
</svg>
