<?xml version="1.0" ?>
<svg xmlns="http://www.w3.org/2000/svg" xmlns:ev="http://www.w3.org/2001/xml-events" xmlns:xlink="http://www.w3.org/1999/xlink" baseProfile="full" data-name="Layer 1" height="1263" transform="scale(0.0791765637371338 0.0791765637371338) translate(-866.5 -631.5)" version="1.1" viewBox="0 0 1733 1263" width="1733">
	<defs/>
	<path d="M 909.6692353920862,936.1907596505026 C 903.3092353920862,952.5207596505027 895.8892353920862,967.9207596505026 891.6692353920862,984.5307596505027 C 889.3692353920862,993.5907596505026 887.2692353920862,1002.7007596505026 885.1492353920862,1011.8107596505026 C 881.9292353920862,1025.6107596505026 875.2292353920863,1036.9207596505025 862.7792353920862,1044.4507596505025 C 854.7792353920862,1049.2607596505025 850.0992353920863,1056.9707596505025 846.4692353920863,1065.1407596505026 C 842.1192353920862,1074.9107596505025 836.5192353920862,1083.3507596505026 827.6392353920862,1089.6807596505025 C 822.1492353920862,1093.6007596505026 818.5492353920862,1099.4007596505026 815.7092353920863,1105.5507596505024 C 813.4792353920863,1110.4007596505023 811.2192353920863,1115.2507596505025 808.9692353920863,1120.0907596505024 C 802.3992353920862,1134.2707596505024 792.1492353920862,1145.0907596505024 778.9692353920863,1153.3307596505024 C 774.0592353920863,1156.3907596505023 769.1492353920862,1159.5007596505025 764.5592353920863,1163.0007596505025 C 754.5592353920863,1170.5907596505024 743.3492353920863,1174.0007596505025 730.9392353920863,1174.0007596505025 A 48.52,48.52 0.0 0,0 720.3092353920863,1174.8707596505024 C 713.3092353920863,1176.4307596505023 706.5292353920863,1176.0307596505024 700.3092353920863,1172.3407596505024 C 695.6792353920863,1169.6207596505024 692.0892353920863,1170.7307596505025 687.5192353920863,1173.3407596505024 A 68.76,68.76 0.0 0,0 666.0392353920863,1192.9007596505023 C 657.9392353920863,1203.9007596505023 646.2292353920864,1209.2007596505023 633.0392353920863,1211.2507596505022 C 625.5592353920863,1212.4207596505023 618.0392353920863,1213.4907596505022 610.8192353920863,1215.7107596505023 A 39.14,39.14 0.0 0,1 595.6092353920862,1217.1407596505023 A 78.76,78.76 0.0 0,0 574.9792353920863,1217.8307596505024 C 571.4792353920863,1218.4207596505023 567.8892353920862,1218.5107596505025 564.3492353920863,1218.9007596505023 C 555.1292353920862,1219.9007596505023 546.6892353920863,1217.6507596505023 538.8092353920863,1212.9007596505023 A 53.75,53.75 0.0 0,0 526.1292353920863,1207.0307596505024 C 513.9892353920864,1203.5407596505024 508.98923539208636,1191.3607596505024 515.1292353920863,1180.1807596505025 A 54.09,54.09 0.0 0,1 536.1292353920863,1159.1807596505025 A 83.41,83.41 0.0 0,1 568.9392353920863,1148.6407596505026 C 573.1392353920863,1148.1607596505025 577.3692353920862,1147.9007596505026 581.4092353920863,1146.5007596505025 C 591.6792353920863,1142.9507596505025 598.8092353920863,1136.1107596505024 603.2092353920863,1126.2007596505025 C 607.5392353920863,1116.4507596505025 612.1292353920862,1106.8007596505024 616.5092353920862,1097.0607596505024 A 55.56,55.56 0.0 0,0 621.3792353920862,1076.4107596505023 C 622.3792353920862,1051.9007596505023 622.5492353920862,1027.4107596505023 619.1792353920862,1003.0607596505024 C 616.5492353920862,984.0607596505024 616.2692353920862,964.8907596505024 614.0892353920862,945.8707596505025 A 101.06,101.06 0.0 0,0 603.7192353920861,911.5707596505025 C 600.7992353920862,905.7907596505025 595.8992353920861,901.7007596505025 590.5192353920861,898.6307596505025 C 577.6092353920861,891.2607596505025 568.0392353920861,880.5107596505025 559.2592353920861,868.9307596505024 A 51.83,51.83 0.0 0,0 546.3692353920861,856.5207596505024 C 539.3692353920861,851.9207596505024 533.9992353920861,845.6407596505024 529.5792353920862,838.6207596505025 C 525.1592353920862,831.6007596505025 520.6992353920862,824.2207596505025 516.5792353920862,816.8207596505025 C 511.4392353920862,807.5407596505025 505.3692353920862,799.2607596505026 496.25923539208617,793.3707596505025 C 487.63923539208616,787.8107596505025 482.09923539208614,779.2407596505025 476.40923539208615,771.0307596505024 C 471.53923539208614,764.0307596505024 465.82923539208616,758.6207596505025 457.57923539208616,755.8807596505025 C 452.3092353920862,754.1107596505025 447.57923539208616,751.0907596505025 442.75923539208617,748.2607596505025 A 44.22,44.22 0.0 0,0 410.64923539208615,742.8307596505025 C 391.8692353920861,746.4507596505025 373.08923539208615,750.3007596505025 353.8692353920861,751.0307596505025 A 96.09,96.09 0.0 0,1 337.8692353920861,750.5107596505026 C 330.15923539208615,749.5107596505026 323.8692353920861,746.1507596505026 319.73923539208613,739.3907596505026 C 316.0192353920861,733.3107596505025 312.04923539208613,727.3907596505026 307.8892353920861,721.6207596505026 C 303.1392353920861,715.0307596505025 300.7292353920861,707.3207596505026 297.8892353920861,699.8307596505026 C 296.3392353920861,695.7207596505026 294.3292353920861,693.1007596505026 289.23923539208613,693.3207596505026 C 282.5692353920861,693.6007596505026 277.34923539208614,689.9007596505027 272.9492353920861,685.3207596505026 C 269.7292353920861,681.9507596505026 266.9492353920861,678.1407596505027 264.0092353920861,674.5307596505027 C 261.8892353920861,671.9507596505026 260.0092353920861,669.0707596505026 257.6192353920861,666.8407596505026 C 249.48923539208613,659.3907596505026 244.66923539208614,649.9607596505026 240.78923539208614,639.9007596505026 A 212.83,212.83 0.0 0,0 229.99923539208615,615.5007596505026 C 226.44923539208614,608.9007596505026 225.58923539208615,601.5507596505025 224.82923539208616,594.2307596505026 C 223.57923539208616,582.2307596505026 225.25923539208617,570.2307596505026 225.21923539208615,558.2307596505026 A 45.91,45.91 0.0 0,0 224.96923539208615,550.9007596505026 C 222.61923539208615,536.7107596505025 223.13923539208614,522.5007596505026 224.48923539208616,508.2707596505025 A 35.34,35.34 0.0 0,0 223.93923539208615,497.6607596505025 A 71.23,71.23 0.0 0,1 223.86923539208615,468.4707596505025 A 22.25,22.25 0.0 0,0 224.03923539208614,458.5307596505025 C 222.03923539208614,450.2807596505025 222.95923539208613,442.1507596505025 224.94923539208614,434.0707596505025 C 225.94923539208614,429.9707596505025 227.10923539208613,425.8907596505025 228.34923539208614,421.8507596505025 A 57.93,57.93 0.0 0,0 231.18923539208615,400.1407596505025 A 46.39,46.39 0.0 0,1 233.71923539208615,382.3907596505025 A 47.82,47.82 0.0 0,0 235.71923539208615,364.5607596505025 C 235.35923539208613,359.0607596505025 233.07923539208616,356.78075965050255 228.04923539208616,358.2507596505025 C 213.32923539208616,362.5307596505025 198.04923539208616,364.8407596505025 183.89923539208615,371.0807596505025 C 170.82923539208616,376.8607596505025 157.23923539208616,381.0807596505025 143.57923539208616,385.1407596505025 A 62.72,62.72 0.0 0,1 122.38923539208615,387.1407596505025 A 31.75,31.75 0.0 0,1 104.08923539208615,379.8307596505025 C 102.34923539208616,378.4407596505025 100.69923539208615,376.9107596505025 98.86923539208615,375.6607596505025 C 95.86923539208615,373.6607596505025 92.86923539208615,373.0907596505025 89.57923539208615,375.3807596505025 A 18.66,18.66 0.0 0,1 84.18923539208615,377.9307596505025 C 78.46923539208615,379.6207596505025 73.95923539208614,376.8107596505025 72.75923539208615,370.9307596505025 A 14.54,14.54 0.0 0,1 74.30923539208615,361.2107596505025 C 80.85923539208615,348.4807596505025 89.40923539208615,337.5907596505025 102.74923539208615,331.2907596505025 C 106.74923539208615,329.3907596505025 110.74923539208615,327.3507596505025 114.81923539208616,325.57075965050245 A 101.49,101.49 0.0 0,0 145.05923539208618,305.06075965050246 A 163.13,163.13 0.0 0,1 167.2692353920862,286.90075965050244 A 72.76,72.76 0.0 0,0 174.61923539208618,281.14075965050245 C 176.2292353920862,279.72075965050243 178.89923539208618,278.14075965050245 177.9892353920862,275.88075965050245 C 176.8892353920862,273.09075965050243 173.7292353920862,274.55075965050247 171.42923539208618,274.34075965050243 A 7.0,7.0 0.0 0,0 169.42923539208618,274.5407596505024 C 158.9192353920862,276.6807596505024 148.5992353920862,279.3507596505024 139.42923539208618,285.2907596505024 C 135.1392353920862,288.08075965050244 130.7892353920862,290.7907596505024 126.47923539208617,293.5507596505024 A 54.28,54.28 0.0 0,1 113.26923539208617,299.8907596505024 C 100.91923539208618,303.67075965050236 88.50923539208617,307.0907596505024 75.59923539208617,308.6207596505024 C 63.41923539208618,310.0507596505024 52.02923539208618,307.4807596505024 41.33923539208618,302.1807596505024 A 197.38,197.38 0.0 0,1 18.539235392086177,288.3607596505024 C 10.389235392086176,282.84075965050243 4.939235392086177,274.90075965050244 1.4192353920861756,265.8207596505024 A 17.29,17.29 0.0 0,1 4.699235392086175,247.11075965050242 A 30.11,30.11 0.0 0,1 10.499235392086174,241.6207596505024 C 24.289235392086173,232.6207596505024 36.659235392086174,221.5207596505024 51.56923539208617,214.2407596505024 Q 68.95923539208617,205.73075965050242 86.40923539208617,197.38075965050243 A 248.4,248.4 0.0 0,0 147.2392353920862,156.68075965050244 A 92.9,92.9 0.0 0,0 162.8492353920862,137.59075965050243 C 165.4792353920862,133.46075965050244 168.2792353920862,129.42075965050245 170.6592353920862,125.15075965050244 C 176.0492353920862,115.48075965050242 184.0992353920862,108.86075965050244 193.5892353920862,103.41075965050243 C 211.3992353920862,93.17075965050245 227.5892353920862,80.60075965050243 243.2792353920862,67.41075965050243 C 248.0692353920862,63.410759650502435 249.7892353920862,57.97075965050244 251.1192353920862,52.31075965050243 A 91.91,91.91 0.0 0,1 263.6692353920862,22.310759650502433 Q 264.9592353920862,20.310759650502433 266.2692353920862,18.430759650502434 C 276.5292353920862,3.2407596505024348 289.2692353920862,-3.0892403494975653 313.0692353920862,1.4307596505024343 C 328.6492353920862,4.360759650502434 341.48923539208624,12.810759650502435 352.49923539208623,23.960759650502435 A 44.94,44.94 0.0 0,0 367.93923539208623,34.07075965050243 C 377.93923539208623,38.07075965050243 388.2792353920862,40.63075965050243 398.67923539208624,43.020759650502434 C 414.09923539208626,46.57075965050243 429.22923539208625,51.13075965050243 444.27923539208626,55.92075965050243 C 464.64923539208627,62.42075965050243 485.27923539208626,67.76075965050242 506.0792353920863,72.78075965050243 C 526.2592353920862,77.65075965050244 545.3692353920862,85.71075965050244 564.0792353920863,94.64075965050242 A 63.83,63.83 0.0 0,1 589.1492353920863,116.18075965050244 A 84.4,84.4 0.0 0,0 618.4192353920863,142.03075965050243 C 621.7192353920863,143.85075965050243 624.8792353920863,145.96075965050244 628.0092353920863,148.08075965050244 A 71.46,71.46 0.0 0,0 642.6892353920863,155.93075965050244 C 666.6092353920862,165.02075965050244 689.8592353920862,175.78075965050243 714.0292353920863,184.27075965050244 C 724.8192353920863,188.06075965050243 734.0292353920863,194.97075965050243 743.1192353920864,201.77075965050244 C 752.2092353920864,208.57075965050245 761.9392353920864,214.45075965050245 771.5392353920863,220.52075965050244 A 70.55,70.55 0.0 0,0 796.2692353920863,230.29075965050245 C 815.5592353920863,233.91075965050246 833.1792353920863,241.88075965050245 850.6392353920863,250.22075965050246 A 68.89,68.89 0.0 0,0 879.4892353920864,257.52075965050244 C 891.4892353920864,257.75075965050246 903.5492353920863,257.70075965050245 915.4892353920864,259.71075965050244 A 57.09,57.09 0.0 0,1 924.6392353920863,261.58075965050244 C 936.7592353920863,265.74075965050247 949.3692353920864,267.00075965050246 961.9792353920864,268.40075965050244 A 114.19,114.19 0.0 0,0 981.9792353920864,268.62075965050246 C 992.4192353920864,267.94075965050246 1002.8992353920863,267.8407596505025 1013.3292353920864,267.0907596505025 C 1027.3292353920863,266.0907596505025 1041.1692353920862,263.7107596505025 1054.9592353920864,261.1507596505025 A 102.37,102.37 0.0 0,1 1076.9592353920864,259.5607596505025 C 1091.2092353920864,260.0207596505025 1105.4592353920864,259.5607596505025 1119.6992353920864,260.6207596505025 C 1132.6992353920864,261.5607596505025 1145.4292353920864,258.85075965050254 1158.2992353920863,257.85075965050254 C 1175.8692353920862,256.4907596505025 1193.0492353920863,252.49075965050255 1210.4592353920864,250.07075965050257 C 1242.4592353920864,245.63075965050257 1274.0392353920863,239.07075965050257 1305.8992353920864,233.97075965050257 C 1325.0692353920865,230.97075965050257 1344.3992353920864,229.17075965050256 1363.7692353920863,231.87075965050258 A 217.93,217.93 0.0 0,1 1404.5492353920863,241.71075965050258 C 1433.8692353920862,251.71075965050258 1462.1292353920862,264.28075965050255 1490.6992353920864,276.13075965050257 C 1499.6992353920864,279.8707596505026 1508.9492353920864,283.22075965050254 1518.1192353920865,286.64075965050256 A 59.0,59.0 0.0 0,0 1538.4292353920864,290.19075965050257 A 101.23,101.23 0.0 0,1 1576.1392353920864,297.52075965050255 A 66.52,66.52 0.0 0,0 1586.9592353920864,300.91075965050254 C 1611.3292353920863,306.20075965050256 1629.4292353920864,320.58075965050256 1644.0492353920863,340.0507596505025 Q 1648.6692353920862,346.1807596505025 1653.0492353920863,352.5107596505025 A 263.3,263.3 0.0 0,0 1687.9392353920864,393.6207596505025 C 1701.6092353920865,406.6207596505025 1711.1692353920864,422.2507596505025 1715.6492353920864,440.7607596505025 C 1716.9092353920864,445.9707596505025 1719.0392353920865,450.8707596505025 1720.9192353920864,455.8707596505025 C 1725.7592353920863,468.73075965050253 1728.4892353920864,481.72075965050254 1726.0292353920863,495.71075965050255 C 1724.0292353920863,506.88075965050257 1724.6692353920864,518.3007596505026 1725.1592353920864,529.7107596505026 C 1725.8992353920864,547.0407596505027 1723.3692353920865,563.9907596505026 1714.1592353920864,579.1707596505026 C 1710.1592353920864,585.7807596505027 1709.3692353920865,593.0707596505026 1708.7492353920863,600.3107596505026 A 141.88,141.88 0.0 0,1 1703.5392353920863,628.4807596505026 C 1701.2992353920863,636.0707596505026 1702.0392353920863,643.2207596505026 1704.5392353920863,650.6907596505026 C 1710.3992353920862,668.2407596505026 1718.9092353920862,684.6907596505026 1724.8292353920863,702.2407596505026 C 1725.9692353920864,705.6107596505026 1727.5492353920863,708.8707596505026 1728.3192353920863,712.3207596505026 C 1732.3192353920863,730.2207596505026 1734.0792353920863,748.2607596505026 1730.7592353920863,766.4807596505026 C 1729.6692353920864,772.4807596505026 1727.0892353920863,777.9207596505026 1724.2792353920863,783.2407596505026 A 34.2,34.2 0.0 0,0 1720.2792353920863,795.9007596505026 C 1718.7092353920864,811.5607596505025 1712.7192353920864,825.0107596505026 1700.9592353920864,835.8207596505025 C 1692.8292353920863,843.3007596505025 1690.6392353920864,852.7507596505025 1693.6092353920865,863.2907596505025 C 1695.6692353920864,870.5607596505025 1697.9292353920864,877.7907596505025 1700.4092353920864,884.9307596505025 C 1702.2592353920863,890.2307596505025 1703.8092353920865,895.6007596505025 1704.0492353920865,901.1607596505025 C 1704.4992353920866,911.5307596505025 1707.2692353920866,921.3007596505025 1710.4192353920864,931.0907596505025 C 1714.3092353920865,943.1507596505024 1717.9992353920863,955.2907596505025 1719.7792353920863,967.9107596505025 C 1721.3792353920862,979.2307596505026 1721.9192353920864,990.4407596505025 1719.0892353920863,1001.7107596505025 C 1714.5192353920863,1019.8907596505024 1708.0192353920863,1036.9407596505023 1693.7392353920864,1049.9907596505025 C 1689.6092353920862,1053.7707596505024 1686.5092353920863,1058.4507596505025 1683.3392353920863,1062.9907596505025 A 71.53,71.53 0.0 0,1 1658.7292353920864,1085.1407596505026 A 30.92,30.92 0.0 0,0 1646.0592353920863,1097.5007596505025 A 71.41,71.41 0.0 0,1 1625.0592353920863,1121.4207596505025 A 36.33,36.33 0.0 0,1 1618.9092353920862,1125.4207596505025 C 1609.009235392086,1129.8007596505026 1603.4692353920861,1137.9407596505025 1599.769235392086,1147.5407596505024 C 1593.059235392086,1164.8807596505023 1588.329235392086,1182.5407596505024 1589.1992353920862,1201.5407596505024 C 1589.6292353920862,1211.0607596505024 1589.7392353920861,1220.6707596505025 1586.7192353920861,1230.0007596505025 C 1583.6992353920862,1239.3307596505024 1578.7192353920861,1246.9107596505025 1568.8592353920862,1249.9407596505025 A 89.72,89.72 0.0 0,0 1552.7892353920863,1256.4207596505025 A 37.09,37.09 0.0 0,1 1528.1592353920862,1260.1007596505026 A 33.52,33.52 0.0 0,0 1511.7292353920861,1260.8207596505026 C 1504.029235392086,1263.2507596505027 1496.269235392086,1262.3607596505026 1488.7292353920861,1259.7407596505027 A 50.0,50.0 0.0 0,0 1473.7292353920861,1257.0407596505027 C 1462.4492353920862,1256.6707596505028 1455.059235392086,1248.5607596505026 1456.1892353920862,1237.2807596505027 C 1457.4092353920862,1225.1307596505026 1461.299235392086,1213.8307596505026 1468.8192353920863,1203.9807596505027 A 32.34,32.34 0.0 0,1 1476.6392353920862,1196.7707596505027 A 153.9,153.9 0.0 0,1 1498.0192353920863,1184.4507596505027 C 1502.1292353920862,1182.5807596505028 1503.9592353920864,1179.3107596505026 1504.5692353920863,1175.0807596505028 C 1504.8192353920863,1173.2907596505029 1503.9392353920862,1172.520759650503 1502.3292353920863,1172.7907596505029 A 35.54,35.54 0.0 0,0 1497.8692353920862,1174.1107596505028 C 1486.0192353920863,1177.770759650503 1473.9892353920861,1179.4207596505028 1461.6292353920862,1177.3007596505029 A 15.32,15.32 0.0 0,0 1455.0292353920863,1177.5907596505028 C 1446.0292353920863,1179.9407596505027 1436.9292353920864,1179.730759650503 1427.7992353920863,1179.490759650503 A 30.66,30.66 0.0 0,1 1415.6092353920862,1176.3107596505029 A 38.77,38.77 0.0 0,0 1401.4792353920861,1172.690759650503 C 1379.349235392086,1171.350759650503 1376.3792353920862,1152.690759650503 1385.2292353920861,1139.360759650503 C 1394.6392353920862,1125.160759650503 1408.579235392086,1117.850759650503 1425.2292353920861,1115.480759650503 A 47.0,47.0 0.0 0,1 1435.8992353920862,1115.200759650503 C 1449.4392353920862,1116.380759650503 1457.1392353920862,1108.870759650503 1462.0492353920863,1097.600759650503 C 1465.7092353920864,1089.200759650503 1467.3292353920863,1080.140759650503 1468.8592353920862,1071.150759650503 C 1471.0692353920863,1058.150759650503 1470.6392353920862,1044.960759650503 1471.5592353920863,1031.860759650503 C 1471.8092353920863,1028.410759650503 1470.8992353920862,1025.7707596505031 1467.4592353920864,1024.330759650503 C 1464.0192353920866,1022.8907596505031 1461.9592353920864,1019.9207596505032 1460.2492353920863,1016.7307596505032 C 1456.7692353920863,1010.2607596505031 1453.1592353920864,1003.8607596505032 1449.8792353920865,997.2907596505031 C 1445.7892353920865,989.0707596505031 1439.5892353920865,982.720759650503 1432.2092353920864,977.6207596505031 A 43.46,43.46 0.0 0,1 1417.6592353920864,960.6207596505031 A 59.53,59.53 0.0 0,0 1398.0392353920865,937.4407596505032 C 1390.6792353920866,932.3007596505032 1382.7792353920865,928.8507596505032 1373.9792353920866,928.4407596505032 C 1356.7592353920866,927.6807596505032 1344.0692353920865,918.8607596505032 1333.8292353920865,906.2007596505032 C 1328.3992353920864,899.4907596505032 1322.8292353920865,893.5207596505032 1315.0292353920865,889.6107596505032 A 33.23,33.23 0.0 0,1 1308.4792353920866,885.0307596505031 C 1298.7792353920865,876.7107596505031 1287.6592353920867,870.5607596505031 1276.8692353920867,863.9007596505031 A 33.48,33.48 0.0 0,0 1261.6992353920866,859.2307596505032 A 38.56,38.56 0.0 0,1 1248.2992353920865,855.4307596505032 C 1245.2992353920865,854.0207596505032 1242.0792353920865,853.0507596505032 1238.9392353920866,851.9107596505032 A 13.0,13.0 0.0 0,0 1227.9892353920866,852.7407596505033 C 1225.6392353920867,853.9707596505033 1223.0892353920865,855.4207596505032 1220.5592353920865,855.5607596505033 C 1214.3092353920865,855.9207596505033 1210.3692353920865,859.5607596505033 1206.7992353920865,863.9807596505033 A 72.0,72.0 0.0 0,1 1196.4792353920866,874.3907596505032 C 1193.0292353920865,877.2107596505033 1189.8292353920865,880.3307596505033 1184.8592353920867,880.2507596505033 C 1182.0892353920867,880.2507596505033 1181.5892353920867,882.9407596505033 1180.3392353920867,884.6607596505032 C 1174.2692353920868,892.9807596505033 1166.8092353920867,899.3507596505033 1156.6192353920867,902.1007596505033 C 1148.7692353920868,904.2107596505033 1141.6192353920867,903.2007596505033 1135.3892353920867,897.7007596505033 C 1133.0492353920868,895.6507596505033 1130.6992353920866,893.6007596505033 1128.2292353920866,891.7007596505033 C 1119.9392353920866,885.3207596505033 1112.6292353920867,885.5007596505033 1104.7192353920866,892.3007596505033 A 105.82,105.82 0.0 0,1 1091.5192353920866,902.5007596505034 C 1083.9392353920866,907.1807596505033 1075.9592353920866,909.1407596505034 1067.3592353920865,905.6207596505034 C 1063.7692353920866,904.1507596505033 1061.0392353920865,905.0307596505033 1058.3592353920865,907.6207596505034 C 1055.4592353920864,910.3707596505034 1052.0592353920865,912.6207596505034 1049.0992353920865,915.2707596505034 A 36.57,36.57 0.0 0,1 1024.3192353920865,925.2707596505034 C 1018.4392353920866,925.3607596505034 1013.7192353920866,928.1607596505033 1009.6792353920866,932.3307596505033 C 1006.4192353920866,935.6807596505033 1002.9292353920866,938.8107596505033 999.6792353920866,942.1407596505032 C 995.0192353920867,946.8507596505033 989.6792353920866,950.2007596505032 983.0492353920866,951.4407596505032 A 20.18,20.18 0.0 0,0 974.6692353920866,955.3907596505032 A 48.23,48.23 0.0 0,1 965.0892353920866,961.4407596505032 C 957.2392353920866,964.8307596505032 949.4292353920866,965.0607596505032 942.0892353920866,960.3607596505032 C 934.2192353920866,955.3607596505032 926.7692353920866,949.6907596505032 918.7292353920866,944.9007596505031 C 915.4192353920866,942.9207596505031 912.9892353920866,939.4607596505031 909.6692353920866,936.1907596505031 L 909.6692353920862,936.1907596505026"/>
</svg>
