<?xml version="1.0" ?>
<svg xmlns="http://www.w3.org/2000/svg" xmlns:ev="http://www.w3.org/2001/xml-events" xmlns:xlink="http://www.w3.org/1999/xlink" baseProfile="full" data-name="Layer 1" height="1121" transform="scale(0.08920606601248884 0.08920606601248884) translate(-873.0 -560.5)" version="1.1" viewBox="0 0 1746 1121" width="1746">
	<defs/>
	<path d="M 1707.8510053673422,248.21373079106704 C 1710.661005367342,255.21373079106704 1713.461005367342,261.48373079106705 1715.6410053673421,267.91373079106705 C 1720.6410053673421,282.7037307910671 1722.3710053673421,298.04373079106705 1722.1310053673421,313.58373079106707 C 1721.8910053673421,329.1237307910671 1721.8110053673422,344.4437307910671 1723.1310053673421,359.90373079106706 C 1724.3510053673422,374.4437307910671 1720.8310053673422,388.66373079106705 1716.661005367342,402.5137307910671 C 1711.191005367342,420.7037307910671 1705.661005367342,438.89373079106707 1697.411005367342,456.08373079106707 A 30.46,30.46 0.0 0,0 1694.461005367342,470.0137307910671 Q 1695.041005367342,511.85373079106705 1691.571005367342,553.5637307910671 A 332.78,332.78 0.0 0,1 1677.361005367342,624.9637307910671 C 1675.771005367342,630.0337307910671 1674.241005367342,635.1537307910671 1672.2110053673418,640.0537307910671 C 1667.0110053673418,652.6237307910671 1666.4310053673419,665.7037307910671 1667.7110053673418,678.9337307910671 C 1668.9310053673419,691.5337307910671 1670.5810053673417,704.113730791067 1671.121005367342,716.7737307910671 C 1671.611005367342,728.1937307910671 1675.541005367342,738.5137307910671 1680.7210053673418,748.4937307910672 C 1687.601005367342,761.7737307910671 1695.371005367342,774.5537307910671 1703.1910053673419,787.2737307910671 C 1711.9910053673418,801.5837307910671 1717.7910053673418,816.6837307910671 1718.4610053673418,833.6337307910671 A 54.5,54.5 0.0 0,1 1717.381005367342,848.7337307910672 C 1710.031005367342,879.0237307910671 1705.281005367342,909.8137307910672 1699.791005367342,940.4637307910672 C 1697.701005367342,952.1637307910672 1697.301005367342,964.1537307910672 1695.431005367342,975.9037307910671 C 1693.281005367342,989.4037307910671 1690.431005367342,1002.7737307910671 1687.3110053673422,1016.1037307910672 A 481.0,481.0 0.0 0,0 1676.4410053673423,1081.9937307910673 A 48.81,48.81 0.0 0,1 1673.2310053673423,1096.7937307910672 C 1669.2910053673422,1106.1037307910672 1663.1010053673422,1112.8937307910671 1652.6510053673423,1115.2237307910673 A 131.0,131.0 0.0 0,1 1609.5910053673424,1117.9737307910673 C 1597.3210053673424,1116.6237307910674 1585.3210053673424,1117.8237307910672 1573.2410053673425,1119.1037307910674 A 81.93,81.93 0.0 0,1 1552.7810053673425,1119.2037307910673 C 1544.8810053673424,1118.0537307910672 1537.1010053673424,1119.4437307910673 1529.2910053673424,1120.2037307910673 A 48.0,48.0 0.0 0,1 1505.4910053673425,1116.6637307910673 C 1494.6610053673426,1112.0337307910672 1490.1110053673424,1105.2537307910673 1491.1110053673424,1093.5037307910673 C 1491.5210053673425,1088.6437307910674 1489.8510053673424,1087.3237307910672 1485.7510053673425,1086.6437307910674 C 1477.9710053673425,1085.3437307910674 1471.7510053673425,1080.8437307910674 1465.9110053673426,1075.9537307910673 C 1458.4810053673425,1069.6837307910673 1455.6810053673426,1061.7037307910673 1459.0210053673425,1052.0937307910674 C 1461.2910053673424,1045.5437307910674 1464.3210053673424,1039.3037307910674 1469.0910053673424,1034.3637307910674 C 1482.8710053673424,1020.1137307910674 1498.7710053673425,1009.1137307910674 1518.4910053673425,1004.7437307910674 C 1525.9710053673425,1003.0837307910674 1533.6510053673426,1003.3437307910674 1541.2310053673425,1003.5737307910674 C 1545.5710053673424,1003.7137307910674 1547.6010053673424,1002.1137307910674 1549.1310053673426,998.3237307910674 C 1553.4810053673425,987.5237307910675 1558.1310053673426,976.8537307910674 1562.6110053673426,966.0937307910674 C 1565.3710053673426,959.4237307910674 1565.8710053673426,952.2837307910675 1566.2010053673425,945.2137307910674 C 1566.7010053673425,934.3337307910674 1566.8010053673424,923.4337307910674 1566.8710053673426,912.5337307910675 A 99.44,99.44 0.0 0,0 1561.8710053673426,881.9237307910674 C 1559.4510053673425,874.1937307910674 1557.3310053673426,866.3537307910674 1555.5310053673427,858.4637307910674 A 146.82,146.82 0.0 0,0 1530.5310053673427,804.3537307910674 A 288.24,288.24 0.0 0,1 1495.7610053673427,740.4337307910674 A 173.0,173.0 0.0 0,0 1483.1510053673428,714.4937307910674 C 1472.3310053673429,696.6037307910674 1466.3710053673428,676.4937307910674 1457.7010053673428,657.6837307910673 C 1451.4410053673428,644.0937307910673 1446.7010053673428,640.8937307910674 1431.7010053673428,643.5137307910674 C 1412.7010053673428,646.8537307910674 1394.4110053673428,652.2837307910673 1377.7610053673427,662.8737307910674 A 524.21,524.21 0.0 0,1 1300.9910053673427,702.7837307910673 C 1289.5710053673427,707.6337307910674 1278.6810053673428,713.6237307910674 1267.2610053673427,718.5337307910673 C 1236.6810053673428,731.6737307910673 1204.6210053673426,740.3137307910673 1172.9110053673428,750.0037307910674 C 1139.4710053673427,760.2237307910674 1105.3710053673428,767.9437307910674 1071.2310053673427,775.3837307910674 C 1056.8710053673428,778.5137307910674 1042.0910053673426,779.0637307910673 1027.4910053673427,780.5837307910674 C 994.4910053673427,784.0337307910675 961.4310053673428,787.0737307910674 928.4410053673428,790.6337307910674 A 367.22,367.22 0.0 0,1 878.3310053673428,792.2037307910674 C 847.9110053673428,791.3037307910674 817.6310053673427,788.7237307910674 787.4310053673428,785.2837307910675 C 776.6210053673428,784.0537307910674 765.8810053673428,782.1137307910675 755.1410053673428,780.3437307910674 C 751.9010053673428,779.8037307910674 749.8910053673428,780.2737307910674 748.9910053673428,783.9037307910673 C 743.1810053673429,807.4937307910674 733.7410053673428,830.0837307910673 729.7010053673429,854.1737307910673 C 726.2610053673428,874.6637307910673 722.5110053673428,895.0937307910673 720.6310053673428,915.8037307910673 A 65.12,65.12 0.0 0,0 720.3910053673428,926.4337307910673 C 721.3910053673428,938.9737307910673 718.2110053673429,950.4937307910673 712.5810053673429,961.5737307910673 C 707.4410053673429,971.7137307910673 700.8510053673429,981.1737307910673 697.8510053673429,992.3437307910673 C 697.2610053673428,994.5437307910673 696.0810053673429,996.6337307910673 695.8510053673429,998.8537307910673 C 694.4710053673429,1010.4237307910673 687.5010053673428,1018.8537307910673 679.8510053673429,1026.6037307910674 C 672.5210053673428,1034.0637307910674 665.7510053673428,1041.7537307910675 661.0310053673428,1051.2337307910675 C 658.1910053673428,1056.9437307910675 653.3810053673428,1061.2337307910675 648.1410053673428,1064.9737307910675 C 641.2110053673429,1069.8637307910676 635.4410053673428,1075.7437307910675 631.6110053673428,1083.4637307910675 A 49.28,49.28 0.0 0,1 623.2210053673429,1095.1737307910676 A 33.84,33.84 0.0 0,1 601.3310053673429,1106.1737307910676 C 587.9710053673429,1107.5037307910675 574.6210053673428,1108.8737307910676 561.2810053673429,1110.3637307910676 C 549.1810053673429,1111.7137307910675 537.5110053673429,1110.7937307910677 526.611005367343,1104.7837307910677 A 19.91,19.91 0.0 0,0 513.371005367343,1102.6737307910678 C 500.1310053673429,1104.8437307910679 486.9410053673429,1107.3637307910678 473.4610053673429,1107.8637307910678 C 463.06100536734294,1108.253730791068 452.7210053673429,1108.513730791068 442.4610053673429,1106.3437307910679 A 38.29,38.29 0.0 0,0 427.4010053673429,1105.9637307910677 C 419.88100536734294,1107.3437307910679 412.8010053673429,1105.3337307910676 406.5510053673429,1100.8437307910679 C 400.3010053673429,1096.353730791068 398.1010053673429,1090.3537307910678 399.5510053673429,1082.8437307910679 C 400.4710053673429,1078.013730791068 402.7410053673429,1073.793730791068 405.4110053673429,1069.753730791068 A 90.9,90.9 0.0 0,0 416.5910053673429,1047.443730791068 C 420.06100536734294,1036.603730791068 427.2410053673429,1027.963730791068 435.07100536734293,1019.913730791068 C 445.01100536734293,1009.703730791068 456.25100536734294,1001.043730791068 467.87100536734295,992.913730791068 C 479.68100536734295,984.6037307910681 491.44100536734294,976.193730791068 505.24100536734295,971.303730791068 A 16.22,16.22 0.0 0,0 512.531005367343,966.013730791068 C 517.951005367343,959.253730791068 523.941005367343,953.013730791068 531.251005367343,948.3437307910681 C 534.251005367343,946.393730791068 535.001005367343,944.023730791068 534.381005367343,940.643730791068 C 533.381005367343,935.413730791068 532.801005367343,930.123730791068 532.031005367343,924.8537307910681 A 48.77,48.77 0.0 0,1 531.901005367343,908.9537307910681 C 535.001005367343,891.9537307910681 534.181005367343,875.2337307910681 530.6210053673431,858.393730791068 A 229.93,229.93 0.0 0,1 525.251005367343,810.133730791068 C 525.251005367343,799.663730791068 522.7210053673431,789.563730791068 519.4810053673431,779.643730791068 A 131.94,131.94 0.0 0,1 513.0810053673431,747.643730791068 A 67.11,67.11 0.0 0,0 509.63100536734305,730.543730791068 A 99.0,99.0 0.0 0,1 504.02100536734304,694.703730791068 C 504.19100536734305,689.703730791068 502.411005367343,686.703730791068 498.02100536734304,684.443730791068 C 490.351005367343,680.533730791068 482.791005367343,676.443730791068 475.26100536734305,672.233730791068 C 472.70100536734304,670.803730791068 470.721005367343,671.053730791068 468.31100536734306,672.673730791068 C 449.07100536734305,685.553730791068 428.84100536734303,681.183730791068 413.63100536734305,666.473730791068 C 400.3510053673431,653.6337307910679 390.83100536734304,638.743730791068 388.49100536734306,619.963730791068 C 388.08100536734304,616.693730791068 387.49100536734306,613.453730791068 386.81100536734306,610.223730791068 A 24.75,24.75 0.0 0,0 380.5410053673431,598.223730791068 C 377.7310053673431,595.163730791068 374.6510053673431,593.963730791068 370.3910053673431,595.093730791068 A 96.69,96.69 0.0 0,0 350.0910053673431,603.5037307910679 C 340.0110053673431,608.8037307910679 330.2710053673431,614.833730791068 319.5310053673431,618.7937307910679 C 301.31100536734306,625.5037307910679 282.7910053673431,630.3237307910679 263.06100536734306,627.3137307910679 A 87.53,87.53 0.0 0,1 232.2710053673431,616.9937307910678 C 216.67100536734307,608.0537307910678 200.93100536734306,599.3237307910679 186.2710053673431,588.7837307910678 A 33.24,33.24 0.0 0,0 175.47100536734308,583.2937307910678 A 145.6,145.6 0.0 0,1 129.39100536734304,562.2937307910678 C 125.46100536734305,559.5837307910678 121.95100536734306,559.2937307910678 116.87100536734306,560.8337307910678 C 103.94100536734307,564.7337307910677 91.15100536734306,561.9437307910678 79.49100536734305,555.5337307910678 A 135.19,135.19 0.0 0,1 54.69100536734305,538.0437307910678 C 50.55100536734305,534.3437307910677 45.781005367343056,531.3637307910678 41.34100536734305,528.0437307910678 C 20.52100536734305,512.3637307910678 5.99100536734305,492.7237307910678 1.291005367343054,466.50373079106777 A 76.54,76.54 0.0 0,1 7.011005367343054,420.50373079106777 C 11.811005367343054,409.88373079106776 16.891005367343055,399.4337307910678 18.761005367343053,387.7437307910678 A 28.16,28.16 0.0 0,1 22.051005367343052,378.4737307910678 A 18.4,18.4 0.0 0,0 23.18100536734305,361.7237307910678 C 19.691005367343053,352.7237307910678 19.52100536734305,343.3937307910678 20.00100536734305,333.9937307910678 C 20.56100536734305,322.9937307910678 20.27100536734305,312.3437307910678 15.941005367343053,301.9237307910678 C 13.271005367343053,295.4637307910678 13.521005367343053,288.51373079106776 15.021005367343053,281.7237307910678 A 96.62,96.62 0.0 0,0 17.34100536734305,265.19373079106776 C 18.121005367343052,250.12373079106777 25.07100536734305,236.98373079106776 30.96100536734305,223.56373079106777 A 125.84,125.84 0.0 0,1 37.481005367343045,211.56373079106777 A 284.91,284.91 0.0 0,0 54.25100536734304,177.56373079106777 A 96.48,96.48 0.0 0,1 86.30100536734304,136.72373079106777 C 95.92100536734304,129.57373079106776 104.80100536734304,121.72373079106777 112.36100536734304,112.46373079106776 A 75.49,75.49 0.0 0,1 124.96100536734303,100.37373079106776 C 142.63100536734305,86.76373079106776 160.59100536734303,73.56373079106775 179.33100536734304,61.453730791067755 C 196.66100536734302,50.23373079106776 216.33100536734304,45.173730791067754 235.97100536734303,40.19373079106775 A 182.41,182.41 0.0 0,1 262.921005367343,35.72373079106775 A 176.52,176.52 0.0 0,0 305.08100536734304,26.343730791067745 A 218.88,218.88 0.0 0,1 342.52100536734304,16.553730791067746 C 357.52100536734304,14.083730791067747 371.94100536734305,9.003730791067747 386.791005367343,5.7837307910677485 A 243.13,243.13 0.0 0,1 433.5210053673422,0.023730791067025688 C 446.36100536734216,-0.2262692089329743 458.8710053673422,1.4637307910670256 470.60100536734217,6.773730791067026 C 491.7110053673422,16.333730791067023 513.7210053673422,22.943730791067026 536.2910053673422,27.883730791067023 A 98.12,98.12 0.0 0,1 557.9510053673422,34.88373079106702 C 572.1210053673421,41.703730791067024 587.1610053673422,44.693730791067026 602.6810053673422,45.88373079106702 C 608.2410053673422,46.32373079106702 613.7710053673422,47.04373079106702 619.3310053673422,47.523730791067024 C 643.9110053673422,49.65373079106703 664.0210053673422,60.96373079106702 679.4110053673422,79.52373079106702 C 687.6510053673422,89.46373079106702 697.6110053673423,94.45373079106702 709.3010053673422,97.35373079106702 A 130.44,130.44 0.0 0,0 732.6310053673423,100.43373079106702 A 48.0,48.0 0.0 0,0 759.6310053673423,94.43373079106702 C 768.3210053673423,89.58373079106703 777.6310053673423,86.22373079106703 787.6310053673423,85.36373079106701 A 41.22,41.22 0.0 0,1 816.9310053673422,93.51373079106702 C 824.6810053673422,99.30373079106703 831.5510053673422,106.03373079106701 838.7010053673422,112.51373079106702 C 846.7010053673422,119.73373079106702 855.4010053673422,125.60373079106702 866.3610053673422,127.51373079106702 A 47.12,47.12 0.0 0,0 883.7510053673421,127.76373079106702 A 58.71,58.71 0.0 0,1 930.0910053673422,137.28373079106703 C 939.5310053673422,143.77373079106704 948.4710053673422,143.07373079106702 957.9810053673422,138.56373079106703 C 960.7310053673422,137.25373079106703 963.3910053673421,135.77373079106704 966.1610053673421,134.56373079106703 C 973.5410053673421,131.19373079106703 981.2410053673422,130.10373079106702 989.1610053673421,132.34373079106703 C 999.5510053673421,135.34373079106703 1008.8610053673422,134.34373079106703 1017.7810053673421,127.40373079106703 C 1024.421005367342,122.23373079106703 1032.5810053673422,120.95373079106703 1040.931005367342,123.22373079106703 C 1053.931005367342,126.76373079106703 1066.041005367342,124.63373079106702 1077.441005367342,117.81373079106703 C 1088.8410053673422,110.99373079106704 1101.0810053673422,108.28373079106703 1114.3710053673421,107.95373079106703 C 1139.661005367342,107.33373079106703 1163.991005367342,101.12373079106703 1187.7410053673423,92.75373079106703 C 1199.8610053673422,88.48373079106703 1212.0110053673422,86.16373079106702 1224.9610053673423,87.12373079106703 C 1244.0810053673422,88.52373079106704 1262.8710053673424,84.94373079106703 1281.5710053673422,81.70373079106703 A 676.29,676.29 0.0 0,1 1378.3410053673422,72.32373079106704 A 367.88,367.88 0.0 0,1 1498.3410053673422,88.55373079106704 C 1504.1310053673421,90.34373079106705 1508.0710053673422,89.91373079106704 1512.201005367342,85.11373079106704 C 1516.331005367342,80.31373079106704 1521.6210053673421,75.91373079106704 1526.681005367342,71.70373079106704 C 1540.161005367342,60.51373079106705 1555.271005367342,58.40373079106705 1571.6010053673422,64.27373079106704 C 1581.2410053673423,67.73373079106703 1589.8210053673422,73.12373079106703 1597.9010053673421,79.27373079106704 A 431.84,431.84 0.0 0,1 1632.011005367342,108.38373079106704 A 154.41,154.41 0.0 0,0 1680.331005367342,139.38373079106702 C 1696.511005367342,145.96373079106704 1712.541005367342,152.98373079106702 1726.6710053673419,163.613730791067 A 42.51,42.51 0.0 0,1 1740.341005367342,180.613730791067 C 1742.491005367342,185.433730791067 1743.271005367342,190.473730791067 1741.501005367342,195.41373079106702 C 1740.101005367342,199.31373079106703 1740.501005367342,202.70373079106702 1741.851005367342,206.41373079106702 C 1745.311005367342,216.18373079106703 1746.251005367342,226.12373079106703 1743.521005367342,236.29373079106702 A 36.0,36.0 0.0 0,1 1740.521005367342,244.07373079106702 C 1735.991005367342,252.583730791067 1727.621005367342,255.553730791067 1718.631005367342,251.993730791067 C 1715.391005367342,250.54373079106702 1712.6910053673419,247.85373079106702 1707.851005367342,248.213730791067 L 1707.8510053673422,248.21373079106704"/>
</svg>
