<?xml version="1.0" ?>
<svg xmlns="http://www.w3.org/2000/svg" xmlns:ev="http://www.w3.org/2001/xml-events" xmlns:xlink="http://www.w3.org/1999/xlink" baseProfile="full" data-name="Layer 1" height="1205" transform="scale(0.08298755186721991 0.08298755186721991) translate(-866.0 -602.5)" version="1.1" viewBox="0 0 1732 1205" width="1732">
	<defs/>
	<path d="M 545.2099014587818,1067.7931586434663 C 540.3999014587819,1074.0831586434663 534.4299014587818,1079.3731586434662 529.5299014587819,1085.5931586434663 C 521.3399014587818,1095.9831586434664 510.2199014587818,1101.4631586434662 497.5299014587818,1103.8331586434663 C 489.2999014587818,1105.3731586434662 481.2999014587818,1107.5631586434663 473.2399014587818,1109.8331586434663 C 459.1799014587818,1113.7131586434664 444.9399014587818,1114.2231586434664 431.6499014587818,1106.3431586434663 A 18.35,18.35 0.0 0,0 423.4799014587818,1103.9731586434664 C 420.4099014587818,1103.7431586434664 417.3399014587818,1103.4631586434664 414.2699014587818,1103.1031586434665 C 403.2699014587818,1101.8031586434665 397.8599014587818,1093.4831586434666 401.0899014587818,1082.7831586434665 A 41.2,41.2 0.0 0,1 407.1799014587818,1071.1231586434665 C 417.45990145878176,1056.4431586434664 431.8799014587818,1046.8231586434665 447.3799014587818,1038.6631586434664 A 33.52,33.52 0.0 0,1 465.25990145878177,1034.8331586434665 C 469.90990145878175,1035.1131586434665 474.44990145878177,1034.1431586434664 478.9799014587818,1033.1631586434664 A 14.46,14.46 0.0 0,0 489.0599014587818,1025.4631586434664 C 496.2899014587818,1012.5431586434664 501.82990145878176,998.8731586434664 507.3699014587818,985.2131586434664 C 509.75990145878177,979.3131586434664 512.2399014587818,973.4431586434664 514.0499014587818,967.2831586434664 C 518.2899014587819,952.8531586434665 518.2899014587819,938.1531586434664 517.4299014587818,923.3831586434665 C 516.0499014587818,899.5931586434665 515.8899014587819,875.8331586434665 518.0699014587818,852.0831586434665 C 519.2299014587818,839.3531586434665 519.0699014587818,826.5631586434665 519.3799014587818,813.7931586434665 C 519.9599014587818,791.5031586434666 517.7999014587817,769.3631586434666 516.4499014587818,747.1731586434665 Q 515.2299014587818,727.0631586434665 514.3999014587819,706.9231586434665 C 513.7699014587819,692.0031586434666 509.2299014587818,677.9231586434665 505.2699014587818,663.7331586434666 C 504.0799014587818,659.4731586434666 500.9099014587818,656.1031586434666 498.2699014587818,652.5831586434666 A 172.0,172.0 0.0 0,0 460.73990145878184,614.7231586434666 C 448.21990145878186,605.7231586434666 435.83990145878187,596.5231586434666 425.5099014587818,584.8931586434666 C 416.61990145878184,574.8931586434666 409.7199014587818,563.7631586434666 405.7599014587818,550.8931586434666 C 402.5199014587818,540.3731586434666 399.23990145878184,529.8931586434666 396.0199014587818,519.3431586434666 A 91.1,91.1 0.0 0,1 392.0199014587818,490.0231586434666 C 392.2099014587818,483.2131586434666 392.42990145878184,476.37315864346664 391.2699014587818,469.5831586434666 A 33.63,33.63 0.0 0,0 383.4799014587818,453.1031586434666 C 373.1899014587818,440.9731586434666 361.2799014587818,430.4731586434666 350.0499014587818,419.2731586434666 C 335.7099014587818,404.9631586434666 320.5599014587818,391.4831586434666 306.4799014587818,376.88315864346663 C 296.9199014587818,366.9731586434666 284.7299014587818,361.35315864346666 272.0499014587818,356.61315864346665 A 10.5,10.5 0.0 0,0 264.3099014587818,356.74315864346664 C 261.44990145878177,357.85315864346666 258.6599014587818,359.18315864346664 255.8299014587818,360.38315864346663 C 247.0699014587818,364.11315864346665 237.9499014587818,361.55315864346665 232.5399014587818,353.6531586434666 A 31.48,31.48 0.0 0,1 226.8399014587818,339.0331586434666 C 226.1499014587818,332.4631586434666 225.5399014587818,325.8731586434666 224.5399014587818,319.3531586434666 C 223.3799014587818,311.8131586434666 223.2099014587818,311.8031586434666 215.92990145878179,312.0131586434666 C 208.2099014587818,312.23315864346665 200.4899014587818,312.7231586434666 192.92990145878179,314.5131586434666 C 181.7099014587818,317.18315864346664 170.25990145878177,317.63315864346663 158.83990145878178,318.3431586434666 A 140.85,140.85 0.0 0,0 135.9199014587818,321.2431586434666 A 43.45,43.45 0.0 0,1 115.6399014587818,321.3631586434666 C 107.1699014587818,319.3631586434666 98.5699014587818,319.3631586434666 89.99990145878179,320.01315864346657 A 28.19,28.19 0.0 0,1 72.3699014587818,315.7431586434666 A 81.71,81.71 0.0 0,0 58.019901458781796,309.07315864346657 C 48.409901458781796,305.3831586434666 40.489901458781794,299.76315864346657 36.779901458781794,289.6731586434666 C 35.93990145878179,287.3831586434666 34.629901458781795,287.4231586434666 32.70990145878179,287.6731586434666 C 29.209901458781793,288.0931586434666 25.709901458781793,288.3331586434666 22.179901458781792,288.5431586434666 A 34.67,34.67 0.0 0,1 16.23990145878179,288.5431586434666 C 11.239901458781791,287.9931586434666 6.569901458781792,286.7431586434666 4.579901458781792,281.3831586434666 C 2.4399014587817915,275.6231586434666 4.059901458781792,270.53315864346655 7.9199014587817915,266.08315864346656 A 26.38,26.38 0.0 0,1 15.91990145878179,260.33315864346656 A 42.17,42.17 0.0 0,0 28.22990145878179,250.55315864346653 C 37.69990145878179,239.76315864346654 48.80990145878179,231.38315864346654 63.14990145878179,227.95315864346654 A 38.44,38.44 0.0 0,0 73.4799014587818,223.85315864346654 C 73.85990145878179,222.66315864346655 73.6599014587818,222.35315864346654 73.0999014587818,222.22315864346655 C 57.4099014587818,218.76315864346654 45.0199014587818,209.81315864346655 34.2499014587818,198.42315864346654 A 143.61,143.61 0.0 0,1 5.319901458781801,152.98315864346654 C 0.9699014587818011,141.95315864346654 -1.2600985412181993,130.26315864346654 0.7399014587818007,118.08315864346655 C 2.519901458781801,107.00315864346655 3.5399014587818005,95.81315864346655 4.929901458781801,84.67315864346655 C 5.179901458781801,82.67315864346655 5.539901458781801,80.75315864346655 5.929901458781801,78.82315864346656 C 8.48990145878173,67.18315864346634 14.699901458781731,61.37315864346635 26.43990145878173,59.593158643466346 A 3.59,3.59 0.0 0,1 27.08990145878173,59.523158643466346 C 50.57990145878173,59.843158643466346 74.08990145878172,56.023158643466346 97.56990145878173,60.44315864346635 C 99.50990145878173,60.813158643466345 101.50990145878173,60.843158643466346 103.47990145878173,61.03315864346635 A 10.0,10.0 0.0 0,0 113.16990145878172,56.68315864346635 A 159.09,159.09 0.0 0,0 123.53990145878173,40.59315864346635 C 135.66990145878174,19.50315864346635 153.32990145878173,6.863158643466353 178.10990145878174,5.313158643466349 A 55.79,55.79 0.0 0,0 190.41990145878174,2.9731586434663493 C 203.41990145878174,-0.9068413565336506 216.41990145878174,-0.7168413565336507 229.62990145878175,1.9731586434663493 C 244.31990145878174,4.9231586434663495 258.78990145878174,8.68315864346635 273.1199014587817,13.07315864346635 C 289.96990145878175,18.23315864346635 307.1199014587817,22.243158643466348 324.3299014587817,26.013158643466348 C 343.1799014587817,30.153158643466348 359.9199014587817,38.513158643466355 375.1399014587817,50.30315864346635 A 70.69,70.69 0.0 0,0 402.04990145878173,63.703158643466345 A 178.15,178.15 0.0 0,1 434.3799014587817,75.16315864346635 C 439.4299014587817,77.47315864346635 444.2199014587817,80.09315864346634 447.97990145878174,84.30315864346635 A 15.56,15.56 0.0 0,0 453.4399014587817,87.95315864346635 A 27.21,27.21 0.0 0,0 457.73990145878173,89.64315864346635 C 472.6399014587817,93.53315864346635 485.96990145878175,100.53315864346635 498.41990145878174,109.52315864346635 C 504.6299014587817,114.00315864346635 512.2499014587818,115.11315864346635 519.6499014587818,116.27315864346635 C 530.7499014587818,118.02315864346635 541.7199014587818,119.93315864346634 552.2699014587818,124.21315864346634 C 562.3699014587818,128.30315864346633 571.4899014587818,133.96315864346633 580.6199014587818,139.70315864346634 C 589.7499014587818,145.44315864346635 598.7499014587818,151.40315864346633 607.8799014587818,157.16315864346635 C 618.5699014587818,163.89315864346634 629.9899014587818,169.03315864346635 642.4299014587817,171.47315864346635 A 73.72,73.72 0.0 0,1 662.4299014587817,178.06315864346635 C 673.4299014587817,183.78315864346635 685.2499014587818,186.06315864346635 697.3799014587818,186.96315864346636 A 169.76,169.76 0.0 0,1 752.3799014587818,200.26315864346637 A 171.18,171.18 0.0 0,0 780.6599014587817,209.26315864346637 A 236.53,236.53 0.0 0,1 818.9499014587817,221.63315864346637 C 837.6899014587817,229.54315864346637 857.4099014587817,232.41315864346637 877.4699014587817,234.06315864346638 C 894.6699014587817,235.4931586434664 911.8099014587817,234.2431586434664 928.9599014587817,233.4631586434664 C 949.4299014587817,232.53315864346638 969.9599014587817,232.2331586434664 990.3099014587817,229.93315864346638 C 1015.9099014587817,227.0431586434664 1041.7199014587818,226.13315864346637 1067.1999014587818,222.1431586434664 C 1086.5699014587817,219.1431586434664 1105.5299014587818,214.06315864346638 1124.7199014587818,210.1431586434664 C 1145.6499014587819,205.81315864346638 1166.7199014587818,202.3931586434664 1187.9199014587819,199.7231586434664 C 1201.2399014587818,198.0431586434664 1214.5299014587818,195.9331586434664 1227.9199014587819,194.7231586434664 A 289.18,289.18 0.0 0,1 1284.6599014587819,194.7231586434664 A 167.75,167.75 0.0 0,1 1320.6599014587819,202.5731586434664 A 523.8,523.8 0.0 0,0 1372.119901458782,217.0631586434664 C 1392.589901458782,221.6631586434664 1411.869901458782,229.99315864346642 1431.779901458782,236.3531586434664 C 1446.919901458782,241.1831586434664 1461.479901458782,247.3531586434664 1476.029901458782,253.68315864346638 C 1504.279901458782,265.91315864346643 1525.119901458782,285.8331586434664 1539.3899014587819,312.9531586434664 C 1550.589901458782,334.2231586434664 1559.099901458782,356.3131586434664 1559.3899014587819,380.7131586434664 C 1559.5099014587818,390.6031586434664 1558.549901458782,400.5131586434664 1558.089901458782,410.4131586434664 C 1557.019901458782,433.30315864346636 1556.489901458782,456.2031586434664 1557.6499014587819,479.11315864346636 C 1558.1899014587818,489.89315864346634 1557.6499014587819,500.69315864346635 1559.039901458782,511.4531586434664 A 89.0,89.0 0.0 0,0 1563.549901458782,530.6931586434664 C 1569.619901458782,547.4531586434664 1575.959901458782,564.1231586434664 1581.6699014587819,581.0131586434665 C 1587.6699014587819,598.7531586434665 1592.9899014587818,616.7431586434665 1594.9399014587818,635.4531586434664 C 1596.329901458782,648.8131586434664 1596.819901458782,662.2631586434663 1598.0399014587817,675.6431586434664 A 260.22,260.22 0.0 0,0 1617.1299014587817,751.5731586434665 C 1626.4599014587816,774.2231586434665 1638.5699014587817,795.4831586434665 1650.4399014587816,816.8431586434665 C 1657.8199014587817,830.1131586434665 1665.7599014587815,843.1031586434665 1671.4399014587816,857.2531586434665 C 1679.3599014587817,876.9931586434665 1684.0799014587817,897.5231586434664 1686.7399014587816,918.5931586434665 C 1688.2099014587816,930.1831586434665 1690.2699014587815,941.5931586434665 1694.9699014587816,952.4931586434665 C 1700.9699014587816,966.4931586434665 1705.3799014587817,981.0131586434665 1709.9699014587816,995.4931586434665 C 1711.4799014587816,1000.3131586434665 1713.8399014587815,1004.8731586434665 1715.2799014587815,1009.7131586434665 A 360.08,360.08 0.0 0,1 1727.8699014587814,1069.7131586434666 C 1729.7399014587813,1085.2631586434666 1731.1699014587814,1100.8131586434665 1731.5099014587815,1116.4531586434666 C 1731.6599014587816,1122.8731586434667 1731.2099014587816,1129.3231586434665 1728.7199014587816,1135.2931586434665 C 1721.1699014587816,1153.4131586434664 1707.8299014587815,1163.7431586434666 1687.8499014587817,1164.6031586434665 A 74.83,74.83 0.0 0,1 1676.6499014587816,1164.1731586434664 C 1672.2499014587816,1163.6831586434664 1667.8399014587817,1163.0831586434665 1663.4699014587816,1163.5231586434663 C 1649.0499014587815,1164.9531586434664 1635.4699014587816,1161.2031586434664 1622.0199014587815,1156.9531586434664 C 1617.8199014587815,1155.6331586434665 1613.6399014587814,1154.2531586434663 1609.4599014587816,1152.8531586434665 C 1599.6199014587817,1149.5731586434665 1594.1899014587816,1141.6231586434665 1594.8399014587817,1131.1731586434664 A 42.37,42.37 0.0 0,1 1601.3899014587817,1111.2831586434663 C 1607.1499014587816,1101.9931586434664 1614.1899014587816,1093.9531586434664 1623.5099014587815,1088.0231586434663 A 77.09,77.09 0.0 0,0 1634.0999014587815,1080.1531586434664 C 1636.8699014587814,1077.6231586434665 1638.0299014587815,1074.6931586434664 1638.5199014587815,1070.9631586434664 C 1641.2499014587816,1050.4131586434664 1637.8399014587815,1030.4331586434664 1632.2399014587816,1010.9631586434664 C 1625.0399014587815,985.9031586434664 1613.1499014587816,962.7031586434664 1601.4499014587816,939.5031586434663 C 1600.3699014587817,937.3631586434664 1598.6599014587816,935.5031586434663 1597.2899014587815,933.5031586434663 A 256.28,256.28 0.0 0,1 1576.9299014587816,898.0031586434663 C 1570.5199014587815,884.4731586434664 1563.9299014587816,871.0031586434663 1557.7499014587816,857.3931586434663 C 1548.4899014587816,837.0831586434664 1536.4699014587816,818.3931586434663 1525.0399014587815,799.2731586434663 C 1509.2899014587815,773.0231586434663 1494.0399014587815,746.4931586434664 1476.2999014587815,721.4631586434664 C 1463.2999014587815,703.1031586434664 1449.1999014587816,685.6131586434664 1435.5399014587815,667.7731586434663 C 1432.7499014587816,664.1231586434664 1429.9699014587816,660.4631586434664 1427.3999014587814,657.0931586434664 C 1426.1199014587814,657.0031586434663 1425.6199014587814,657.4031586434663 1425.5399014587815,658.0931586434664 C 1423.5399014587815,674.0931586434664 1421.9899014587816,690.0931586434664 1423.9199014587816,706.1631586434664 A 95.94,95.94 0.0 0,0 1441.5399014587815,751.1631586434664 C 1451.9499014587816,765.6631586434664 1462.8899014587814,779.7531586434665 1473.9299014587816,793.7731586434664 A 193.89,193.89 0.0 0,1 1490.0099014587815,817.1631586434664 C 1495.8199014587815,827.2731586434664 1497.0799014587815,837.7831586434664 1493.4599014587816,848.9531586434664 A 171.26,171.26 0.0 0,1 1485.7199014587816,868.6031586434664 C 1477.8499014587817,885.5431586434664 1474.2199014587816,903.7131586434664 1470.3399014587815,921.7831586434663 A 331.0,331.0 0.0 0,1 1460.2099014587814,958.0031586434663 A 364.33,364.33 0.0 0,0 1449.9199014587814,994.8631586434664 A 133.35,133.35 0.0 0,1 1441.1599014587814,1021.1131586434664 C 1434.6099014587815,1035.5431586434663 1423.4899014587813,1043.7031586434664 1408.1599014587814,1046.6131586434662 A 45.15,45.15 0.0 0,0 1399.8499014587815,1048.7031586434662 C 1389.6099014587815,1052.763158643466 1379.2199014587814,1052.7031586434662 1368.6799014587814,1050.313158643466 A 37.75,37.75 0.0 0,0 1357.5099014587813,1049.663158643466 A 49.11,49.11 0.0 0,1 1336.7299014587813,1046.743158643466 C 1327.7299014587813,1043.403158643466 1324.5399014587813,1037.743158643466 1323.6299014587814,1028.213158643466 C 1322.4399014587814,1015.803158643466 1328.1399014587814,1007.4831586434659 1337.8099014587815,1001.2131586434659 C 1347.4799014587816,994.943158643466 1357.9699014587816,990.3831586434659 1368.7199014587816,986.3931586434659 A 36.0,36.0 0.0 0,1 1379.7199014587816,984.4931586434659 C 1385.6199014587817,984.2331586434659 1390.0999014587817,981.4931586434659 1393.4299014587816,976.573158643466 C 1401.1399014587817,965.1231586434659 1404.6599014587816,952.2431586434659 1406.3499014587817,938.803158643466 A 213.48,213.48 0.0 0,0 1406.0799014587817,886.063158643466 C 1404.4699014587818,873.063158643466 1399.6099014587817,861.063158643466 1394.8799014587817,848.893158643466 C 1384.8799014587817,823.273158643466 1367.9499014587816,802.063158643466 1352.2399014587816,780.053158643466 C 1335.5899014587815,756.7331586434659 1319.2399014587816,733.193158643466 1306.8399014587815,707.263158643466 C 1300.3199014587815,693.673158643466 1291.8399014587815,681.343158643466 1283.0099014587815,669.263158643466 A 136.56,136.56 0.0 0,1 1263.4299014587816,631.993158643466 C 1260.3299014587817,622.8131586434661 1257.0599014587817,613.6931586434661 1253.6899014587816,604.613158643466 C 1252.0499014587815,600.1831586434661 1251.8599014587817,600.223158643466 1247.6899014587816,601.6931586434661 C 1232.1199014587817,607.1731586434661 1216.5399014587815,612.623158643466 1200.9999014587816,618.1631586434661 C 1189.9999014587816,622.083158643466 1178.8799014587817,625.5231586434661 1167.6299014587817,628.6731586434661 C 1151.1099014587817,633.3031586434661 1134.7499014587816,638.5431586434661 1118.3799014587817,643.6731586434661 C 1094.6499014587816,651.1331586434661 1070.6099014587817,657.463158643466 1046.5199014587818,663.6731586434661 C 1015.3699014587818,671.6731586434661 983.8499014587818,677.9031586434661 952.4299014587817,684.6731586434661 C 938.8099014587817,687.603158643466 925.8899014587818,692.6731586434661 912.6499014587818,696.7831586434661 C 885.4499014587817,705.203158643466 857.5299014587818,710.2831586434661 829.5699014587817,715.2531586434661 C 802.6699014587817,720.0331586434661 775.6999014587817,724.2531586434661 748.4299014587817,726.2531586434661 C 738.0599014587817,727.0031586434661 727.7399014587817,726.1331586434661 717.4299014587817,725.1731586434661 C 708.4299014587817,724.333158643466 699.4299014587817,723.8031586434661 690.5699014587817,721.973158643466 C 687.9999014587817,721.4431586434661 686.5099014587818,722.1731586434661 685.7999014587817,724.973158643466 C 682.3899014587818,738.4231586434661 678.3799014587818,751.743158643466 679.1499014587818,765.883158643466 C 679.3999014587818,770.493158643466 679.0399014587817,775.143158643466 679.2499014587818,779.753158643466 C 680.0499014587817,797.103158643466 677.2499014587818,814.003158643466 673.0199014587818,830.753158643466 A 479.42,479.42 0.0 0,0 658.6599014587817,929.913158643466 Q 657.6599014587817,956.3431586434659 657.8399014587817,982.753158643466 A 137.58,137.58 0.0 0,0 661.3099014587817,1012.213158643466 C 662.7699014587818,1018.6831586434661 663.5199014587818,1025.2131586434662 662.5199014587818,1031.873158643466 C 660.9899014587818,1042.093158643466 656.0599014587817,1050.143158643466 647.3399014587818,1055.513158643466 A 26.77,26.77 0.0 0,0 634.8799014587818,1071.7231586434661 C 628.8799014587818,1092.4331586434662 620.4799014587818,1112.3931586434662 614.8799014587818,1133.263158643466 C 612.5499014587817,1141.9631586434662 611.1599014587817,1150.9031586434662 608.1199014587818,1159.4531586434662 C 601.8099014587818,1177.2331586434661 589.8899014587818,1188.6331586434662 571.4299014587818,1193.1631586434662 C 560.0999014587818,1195.9531586434662 548.8099014587818,1198.8931586434662 537.7899014587819,1202.773158643466 C 528.6399014587819,1205.9931586434661 519.4099014587819,1204.273158643466 510.3599014587818,1202.4831586434661 C 502.1799014587818,1200.8631586434662 493.8799014587818,1199.553158643466 485.94990145878177,1196.7431586434661 A 25.92,25.92 0.0 0,0 474.83990145878175,1195.7431586434661 C 467.83990145878175,1196.363158643466 461.29990145878173,1194.7431586434661 455.02990145878175,1191.6831586434662 C 446.85990145878174,1187.7431586434661 442.41990145878174,1180.9431586434662 440.26990145878176,1172.4431586434662 A 14.43,14.43 0.0 0,1 440.66990145878174,1164.6131586434662 A 32.91,32.91 0.0 0,1 445.95990145878176,1154.0231586434663 C 454.95990145878176,1142.3731586434662 465.56990145878177,1132.5531586434663 478.78990145878174,1125.9231586434664 A 52.84,52.84 0.0 0,1 504.94990145878177,1119.9231586434664 C 517.2399014587818,1120.4631586434664 525.5199014587819,1114.4431586434664 531.1299014587818,1104.2531586434663 C 537.3799014587818,1092.7831586434663 541.0899014587818,1080.3231586434663 545.2099014587818,1067.7931586434663"/>
</svg>
