<?xml version="1.0" ?>
<svg xmlns="http://www.w3.org/2000/svg" xmlns:ev="http://www.w3.org/2001/xml-events" xmlns:xlink="http://www.w3.org/1999/xlink" baseProfile="full" data-name="Layer 1" height="1198" transform="scale(0.08347245409015025 0.08347245409015025) translate(-871.5 -599.0)" version="1.1" viewBox="0 0 1743 1198" width="1743">
	<defs/>
	<path d="M 1516.49409541221,564.0706275334348 C 1513.08409541221,565.7906275334349 1510.8840954122102,569.0706275334348 1508.49409541221,572.1806275334349 C 1502.85409541221,579.3506275334348 1496.96409541221,586.1806275334349 1487.85409541221,589.1806275334349 A 5.08,5.08 0.0 0,0 1485.01409541221,591.8006275334349 C 1480.4440954122101,599.8706275334349 1474.28409541221,606.8506275334348 1469.23409541221,614.6006275334348 C 1464.47409541221,621.9106275334348 1456.6940954122101,622.0506275334349 1449.23409541221,622.5506275334349 C 1446.4440954122101,622.7306275334348 1443.56409541221,621.8306275334348 1440.74409541221,621.2906275334349 C 1436.09409541221,620.3906275334349 1432.4440954122101,621.5706275334348 1430.22409541221,626.0206275334349 C 1427.22409541221,631.9506275334348 1423.22409541221,636.6706275334349 1416.56409541221,638.6906275334348 C 1415.23409541221,639.1006275334348 1414.23409541221,640.6906275334348 1413.11409541221,641.6906275334348 C 1408.67409541221,645.8906275334349 1405.2040954122099,646.3606275334348 1400.11409541221,642.8606275334348 C 1394.80409541221,639.2106275334348 1389.82409541221,634.9706275334348 1386.74409541221,629.2606275334348 C 1383.52409541221,623.2606275334348 1379.6340954122102,618.7406275334348 1372.57409541221,617.5906275334348 C 1370.46409541221,617.2406275334348 1368.81409541221,615.2706275334348 1366.36409541221,615.3806275334348 C 1364.85409541221,616.7606275334348 1365.50409541221,618.6406275334348 1365.36409541221,620.2706275334348 C 1364.9540954122099,626.3406275334348 1363.05409541221,631.5206275334348 1357.36409541221,634.6206275334348 A 6.0,6.0 0.0 0,0 1354.7240954122099,638.1806275334347 C 1352.5340954122098,643.8206275334347 1349.5940954122098,645.0906275334347 1343.92409541221,642.9606275334347 A 29.7,29.7 0.0 0,1 1332.2340954122099,634.4706275334347 A 63.41,63.41 0.0 0,1 1320.5940954122098,614.5606275334347 C 1319.1040954122097,610.6406275334348 1317.9640954122096,606.5606275334347 1316.3940954122097,602.7006275334347 C 1313.8440954122098,596.3906275334348 1310.9040954122097,590.2806275334348 1305.0740954122098,585.2706275334348 C 1303.8640954122097,588.4006275334348 1304.9640954122099,590.8106275334347 1305.4240954122097,593.2706275334348 C 1305.9140954122097,595.9206275334348 1306.2740954122096,598.6906275334347 1303.6640954122097,600.5106275334348 C 1301.3040954122098,602.1706275334348 1299.0440954122098,600.8606275334348 1296.8140954122098,599.8606275334348 C 1287.7040954122099,595.8006275334349 1281.9840954122099,588.1406275334348 1276.5540954122098,580.3506275334348 A 88.38,88.38 0.0 0,0 1261.5540954122098,563.6406275334348 C 1259.9240954122097,562.2406275334348 1258.4540954122099,560.4606275334348 1255.7640954122098,560.2506275334348 C 1254.5940954122098,563.4706275334348 1256.1240954122097,566.2506275334348 1257.2540954122098,568.9806275334348 C 1261.38409541221,578.9206275334349 1267.93409541221,587.2406275334348 1275.2540954122098,594.9806275334348 A 59.87,59.87 0.0 0,1 1290.4540954122099,622.4806275334348 A 31.43,31.43 0.0 0,1 1291.2240954122099,634.9706275334348 A 32.51,32.51 0.0 0,0 1291.88409541221,648.0806275334348 C 1292.9640954122099,652.5806275334348 1292.7240954122099,656.8906275334348 1289.82409541221,660.7106275334348 C 1287.68409541221,663.5306275334349 1288.10409541221,666.4506275334348 1289.17409541221,669.5106275334348 Q 1291.57409541221,676.3806275334348 1293.82409541221,683.3106275334347 C 1299.23409541221,699.9206275334348 1299.00409541221,716.9406275334347 1296.19409541221,733.8106275334347 C 1294.2540954122098,745.4406275334347 1295.0240954122098,756.6806275334347 1297.19409541221,768.0006275334348 C 1299.19409541221,778.0006275334348 1300.19409541221,788.0006275334348 1298.19409541221,798.2406275334348 C 1297.0240954122098,804.4106275334348 1294.67409541221,809.8206275334348 1289.9940954122098,813.6806275334349 C 1285.8540954122097,817.0906275334348 1285.7040954122099,820.5206275334349 1287.8140954122098,824.6806275334349 C 1289.9240954122097,828.8406275334348 1291.9940954122098,832.9606275334348 1294.2440954122098,837.0106275334349 C 1296.2440954122098,840.6406275334349 1297.3540954122097,844.2806275334349 1295.8340954122098,848.3906275334349 C 1294.4740954122099,852.080627533435 1295.9740954122099,855.3906275334349 1297.7040954122097,858.4706275334349 A 75.06,75.06 0.0 0,0 1306.2940954122096,870.2306275334349 A 238.43,238.43 0.0 0,1 1325.4040954122095,896.460627533435 C 1329.4740954122094,902.920627533435 1332.5640954122096,909.6206275334349 1331.4040954122095,917.6406275334349 C 1330.9440954122094,920.7606275334349 1332.1940954122094,923.7706275334349 1333.6740954122095,926.5106275334349 C 1338.3040954122096,935.0906275334349 1341.4740954122094,944.2906275334349 1345.1540954122095,953.2706275334349 C 1349.0840954122095,962.8606275334349 1349.5240954122094,972.5406275334349 1347.4240954122095,982.5106275334349 C 1344.0640954122096,998.5106275334349 1340.7540954122094,1014.5106275334349 1337.2840954122094,1030.4506275334347 A 113.84,113.84 0.0 0,0 1334.8440954122093,1047.4506275334347 A 104.47,104.47 0.0 0,1 1329.6040954122093,1073.3306275334348 C 1326.2340954122094,1083.7006275334347 1325.8240954122093,1094.5706275334348 1325.8340954122093,1105.4106275334348 C 1325.8340954122093,1116.6606275334348 1326.6840954122092,1127.9506275334347 1324.1940954122092,1139.0806275334348 A 254.0,254.0 0.0 0,1 1315.8640954122093,1167.6706275334348 A 8.87,8.87 0.0 0,1 1314.5140954122094,1170.6706275334348 A 152.06,152.06 0.0 0,0 1303.5840954122093,1185.4906275334347 C 1300.2240954122094,1190.3806275334348 1294.9340954122092,1192.9606275334347 1289.2740954122094,1194.4406275334347 C 1280.9840954122094,1196.6106275334348 1272.7640954122094,1199.3606275334348 1263.9240954122095,1196.8406275334348 C 1261.2440954122094,1196.0806275334348 1258.2140954122094,1196.4106275334348 1255.3440954122095,1196.4606275334347 A 46.75,46.75 0.0 0,1 1234.8040954122096,1191.9806275334347 A 19.93,19.93 0.0 0,0 1221.9540954122097,1190.4706275334347 C 1214.7740954122096,1191.9506275334347 1208.4540954122097,1190.6206275334348 1203.9540954122097,1183.9006275334348 A 15.72,15.72 0.0 0,1 1203.3440954122098,1166.3306275334348 C 1208.6840954122097,1157.250627533435 1213.7640954122098,1148.020627533435 1219.0440954122098,1138.9106275334348 C 1222.3040954122098,1133.2806275334347 1228.43409541221,1130.9906275334347 1234.3640954122097,1129.1406275334348 C 1242.9640954122096,1126.4606275334347 1248.6440954122097,1119.770627533435 1255.1840954122097,1114.3406275334348 C 1257.4740954122096,1112.4506275334347 1258.6340954122097,1109.260627533435 1259.6740954122097,1106.3406275334348 C 1260.8640954122097,1102.980627533435 1262.5540954122098,1098.7906275334349 1261.2640954122096,1096.1306275334348 C 1259.3940954122097,1092.2506275334347 1255.0740954122095,1095.7406275334347 1251.8640954122095,1095.8306275334348 C 1247.2440954122096,1095.970627533435 1242.6440954122095,1096.6506275334348 1238.0040954122096,1095.9206275334348 A 49.13,49.13 0.0 0,0 1224.1440954122097,1095.9906275334347 C 1216.9340954122097,1096.8706275334348 1209.9940954122096,1095.9906275334347 1204.0440954122098,1091.3606275334346 C 1201.8340954122098,1089.6406275334346 1199.3640954122097,1089.1806275334345 1196.7140954122099,1088.7106275334345 C 1184.89409541221,1086.6006275334346 1180.2440954122098,1077.4406275334345 1185.38409541221,1066.5406275334344 A 29.15,29.15 0.0 0,1 1204.38409541221,1050.2506275334345 A 9.74,9.74 0.0 0,0 1206.28409541221,1049.6806275334345 C 1214.82409541221,1045.1806275334345 1223.98409541221,1043.4006275334345 1233.56409541221,1042.5806275334346 C 1240.75409541221,1041.9706275334347 1243.6940954122101,1038.4906275334347 1245.16409541221,1031.2206275334347 C 1246.29409541221,1025.6006275334348 1247.4840954122099,1020.1006275334348 1249.89409541221,1014.7706275334348 C 1253.9940954122098,1005.7706275334348 1253.38409541221,996.7706275334348 1247.67409541221,988.3106275334347 C 1245.40409541221,984.9406275334347 1242.82409541221,982.0406275334348 1238.9540954122099,980.4806275334347 C 1237.7440954122098,979.9806275334347 1236.18409541221,979.5706275334347 1235.5240954122098,978.6106275334347 C 1232.5240954122098,974.3506275334347 1229.2540954122098,973.4206275334346 1224.5240954122098,976.0306275334347 C 1222.3740954122097,977.2106275334346 1219.8140954122098,975.8706275334347 1217.94409541221,974.0306275334347 A 19.22,19.22 0.0 0,1 1213.85409541221,968.0306275334347 C 1212.39409541221,964.7406275334347 1210.85409541221,962.6606275334346 1206.40409541221,963.8906275334347 C 1202.86409541221,964.8906275334347 1200.2040954122099,962.4406275334346 1198.68409541221,958.1206275334347 A 52.09,52.09 0.0 0,1 1195.81409541221,940.5506275334346 A 66.42,66.42 0.0 0,0 1195.58409541221,931.2906275334346 C 1195.03409541221,927.2906275334346 1193.40409541221,926.0306275334347 1189.37409541221,925.9306275334346 A 32.49,32.49 0.0 0,1 1182.13409541221,925.3406275334346 C 1155.60409541221,918.7006275334346 1128.63409541221,913.7906275334346 1102.65409541221,904.9906275334346 A 112.39,112.39 0.0 0,1 1087.94409541221,898.9906275334346 C 1076.12409541221,892.9906275334346 1064.5340954122098,886.6006275334346 1052.2140954122099,881.6506275334345 A 24.0,24.0 0.0 0,1 1040.9640954122099,871.7106275334345 A 59.0,59.0 0.0 0,0 1027.5840954122098,856.2806275334345 C 1023.5040954122097,853.0806275334345 1020.7640954122097,848.7406275334346 1018.3340954122098,844.2806275334345 C 1016.0340954122098,840.0406275334345 1013.0540954122098,836.7006275334345 1008.4440954122098,835.0006275334346 A 6.13,6.13 0.0 0,1 1006.6840954122098,834.0906275334346 C 996.8040954122098,825.9906275334346 985.1840954122098,820.6406275334346 974.6140954122097,813.6506275334345 C 972.4240954122097,812.2106275334345 970.4040954122097,811.3906275334346 967.8740954122097,811.7306275334346 C 966.1240954122097,811.9806275334346 964.3540954122097,812.1406275334346 962.6240954122097,812.4506275334346 C 955.4540954122098,813.7506275334346 948.4240954122097,813.4506275334346 942.0440954122097,809.7006275334346 C 934.8640954122097,805.5106275334346 927.5540954122097,805.3206275334346 919.7040954122097,807.3006275334346 A 30.44,30.44 0.0 0,1 903.3140954122097,806.9506275334346 A 20.9,20.9 0.0 0,0 893.4640954122096,806.5706275334346 A 170.24,170.24 0.0 0,1 867.0840954122096,808.8006275334346 C 857.7140954122096,808.9906275334347 848.8840954122096,812.1806275334346 839.7640954122096,813.8006275334346 C 826.0740954122095,816.2406275334347 812.4540954122097,819.0306275334347 798.7640954122096,821.4906275334347 A 103.28,103.28 0.0 0,1 777.0440954122096,822.8906275334347 A 44.34,44.34 0.0 0,0 759.5240954122096,825.8006275334346 C 757.0440954122096,826.7406275334347 754.5240954122096,827.5906275334346 752.0940954122096,828.6106275334346 C 741.2840954122097,833.1006275334346 730.3640954122096,833.9806275334346 719.0940954122096,830.2606275334346 C 710.3040954122097,827.3606275334346 701.5140954122096,829.9006275334345 692.8340954122096,831.0806275334346 C 684.1540954122097,832.2606275334347 675.2440954122096,832.7906275334346 666.4440954122097,831.3906275334346 A 28.0,28.0 0.0 0,0 652.0940954122096,832.6806275334345 C 637.5340954122097,838.0706275334345 622.7240954122096,838.2506275334346 607.7140954122096,835.1506275334345 A 56.11,56.11 0.0 0,0 594.5340954122097,834.0906275334346 C 589.8640954122097,834.2406275334346 589.5340954122097,834.8506275334346 590.6340954122097,839.1806275334346 A 34.9,34.9 0.0 0,0 594.6340954122097,848.1806275334346 C 595.8840954122097,850.2606275334347 597.1440954122097,852.3506275334346 598.2940954122097,854.4806275334346 C 601.6940954122097,860.7906275334345 600.9640954122096,866.8306275334346 596.8540954122096,872.5306275334345 A 27.0,27.0 0.0 0,1 592.9240954122097,876.9906275334346 C 590.1440954122097,879.4606275334346 589.4140954122097,882.4406275334346 590.0040954122097,885.9906275334346 Q 591.1040954122097,892.5306275334345 592.0540954122097,899.0806275334346 C 592.8040954122097,904.3306275334346 593.7240954122096,909.5806275334346 590.5140954122097,914.5006275334346 C 589.0940954122098,916.6906275334346 589.7640954122097,919.2706275334345 590.2340954122097,921.6206275334346 C 591.4840954122097,927.9006275334345 593.0440954122097,934.1106275334346 594.2340954122097,940.4006275334345 C 596.2340954122097,950.7906275334345 598.7240954122097,961.1806275334345 596.6440954122097,971.8806275334346 C 595.1740954122097,979.4406275334345 592.0540954122097,985.7406275334346 583.5540954122097,987.5206275334345 A 7.92,7.92 0.0 0,0 577.7240954122096,992.4506275334345 C 576.7240954122096,994.6806275334345 575.5840954122096,996.8206275334345 574.7240954122096,999.0906275334345 A 27.21,27.21 0.0 0,1 564.9240954122097,1012.0906275334345 C 558.8040954122097,1016.4706275334345 554.6840954122097,1022.3706275334345 551.4440954122097,1029.0106275334344 C 549.2240954122096,1033.5706275334344 546.9540954122097,1038.1206275334343 544.7440954122096,1042.6906275334345 A 40.06,40.06 0.0 0,1 533.9840954122096,1055.8906275334346 C 530.1940954122097,1059.0606275334346 525.9840954122096,1061.5306275334347 520.7640954122096,1061.1406275334346 C 517.1540954122096,1060.8706275334346 514.7640954122096,1062.5206275334347 512.1240954122096,1064.9706275334345 A 73.93,73.93 0.0 0,0 491.66409541220963,1096.9706275334345 C 486.66409541220963,1112.6606275334345 474.58409541220965,1120.7706275334344 459.3740954122096,1124.3606275334346 C 444.7740954122096,1127.7906275334346 429.9540954122096,1130.2906275334346 415.2340954122096,1133.2406275334347 A 28.64,28.64 0.0 0,1 395.9240954122096,1130.6406275334348 A 25.54,25.54 0.0 0,0 380.5740954122096,1127.6406275334348 C 375.3940954122096,1128.3006275334349 370.5740954122096,1127.0006275334347 365.8540954122096,1124.6406275334348 C 361.13409541220955,1122.2806275334349 356.5740954122096,1120.520627533435 352.06409541220955,1118.2006275334347 C 343.7240954122096,1113.9106275334348 341.21409541220953,1107.0606275334346 344.42409541220957,1098.2006275334347 A 34.26,34.26 0.0 0,1 350.82409541220954,1087.4306275334347 C 352.58409541220954,1085.4306275334347 352.6640954122095,1084.1906275334347 350.45409541220954,1082.1006275334348 A 20.07,20.07 0.0 0,1 349.6040954122095,1053.1006275334348 C 358.32409541220954,1043.7806275334349 368.6740954122095,1037.760627533435 381.8640954122095,1036.770627533435 C 392.8640954122095,1035.950627533435 403.77409541220953,1034.260627533435 413.4340954122095,1028.000627533435 A 51.68,51.68 0.0 0,0 434.6640954122095,1000.870627533435 C 439.1140954122095,987.9506275334351 439.7940954122095,974.5706275334351 437.9140954122095,960.9606275334351 C 435.4440954122095,943.1906275334351 434.15409541220953,925.3106275334351 437.4440954122095,907.510627533435 C 439.1240954122095,898.410627533435 437.8040954122095,889.510627533435 437.5040954122095,880.440627533435 C 437.1540954122095,870.060627533435 436.6040954122095,859.690627533435 436.4040954122095,849.310627533435 A 11.11,11.11 0.0 0,0 433.0140954122095,841.1006275334349 C 429.59409541220947,837.6306275334349 426.2340954122095,834.1006275334349 422.1840954122095,831.4106275334349 A 51.57,51.57 0.0 0,1 406.5640954122095,814.5106275334349 C 404.4240954122095,810.8806275334349 402.1140954122095,807.2906275334349 398.8940954122095,804.580627533435 C 387.59409541220947,795.060627533435 379.5540954122095,782.8406275334349 370.8940954122095,771.160627533435 C 367.60409541220946,766.730627533435 364.2440954122095,762.3406275334349 360.6940954122095,758.160627533435 A 53.2,53.2 0.0 0,0 344.3740954122095,744.890627533435 C 337.6440954122095,741.450627533435 332.7040954122095,736.320627533435 328.5140954122095,730.220627533435 C 323.3840954122095,722.760627533435 318.1340954122095,715.380627533435 312.9940954122095,707.9206275334351 C 310.2940954122095,704.0106275334351 307.2240954122095,700.8306275334351 302.3240954122095,699.600627533435 C 298.2640954122095,698.600627533435 295.7640954122095,695.260627533435 293.4240954122095,692.010627533435 C 288.7440954122095,685.510627533435 285.5540954122095,678.2106275334351 282.02409541220953,671.090627533435 C 280.5540954122095,668.090627533435 279.40409541220953,664.7906275334351 277.2340954122095,662.4306275334351 C 268.8140954122095,653.2506275334351 266.6040954122095,641.8806275334351 264.89409541220954,630.1906275334351 C 262.5340954122095,614.0606275334351 261.7840954122095,597.6406275334351 256.70409541220954,581.9606275334351 A 24.31,24.31 0.0 0,1 255.89409541220957,578.0806275334351 A 49.2,49.2 0.0 0,1 256.0440954122095,560.890627533435 A 139.84,139.84 0.0 0,0 258.3840954122095,533.200627533435 C 258.4340954122095,519.1206275334349 261.9540954122095,506.12062753343497 270.8040954122095,494.88062753343496 A 33.0,33.0 0.0 0,0 277.7340954122095,477.94062753343496 A 114.68,114.68 0.0 0,1 282.0440954122095,457.89062753343495 C 284.3140954122095,450.4206275334349 283.27409541220953,443.01062753343496 281.6840954122095,435.62062753343497 A 135.0,135.0 0.0 0,0 275.4740954122095,414.680627533435 C 268.2840954122095,396.360627533435 262.7340954122095,377.51062753343496 257.4740954122095,358.58062753343495 A 104.9,104.9 0.0 0,0 243.60409541220955,327.89062753343495 C 232.50409541220955,311.38062753343496 222.68409541220953,294.1106275334349 212.51409541220954,277.03062753343494 C 199.65409541220956,255.41062753343493 186.87409541220953,233.67062753343492 171.87409541220953,213.42062753343492 A 102.56,102.56 0.0 0,0 143.54409541220954,186.89062753343492 C 128.09409541220955,177.29062753343493 111.29409541220954,172.96062753343492 93.41409541220955,171.5006275334349 C 79.25409541220955,170.3406275334349 65.41409541220955,167.7606275334349 52.84409541220954,160.5006275334349 A 61.51,61.51 0.0 0,1 32.84409541220954,142.4106275334349 C 25.014095412209542,131.18062753343492 16.84409541220954,120.1606275334349 9.764095412209544,108.4106275334349 C 1.8540954122100588,95.23062753343484 -1.0559045877899413,80.41062753343483 0.33409541221005873,65.12062753343484 C 1.0740954122100588,56.99062753343483 2.134095412210059,48.89062753343484 2.0440954122100585,40.720627533434836 C 1.9240954122100584,29.90062753343484 8.854095412210059,19.22062753343484 24.724095412210055,20.85062753343484 C 38.34409541221005,22.250627533434837 52.114095412210055,22.090627533434837 65.60409541221006,24.460627533434838 C 87.92409541221005,28.380627533434836 110.49409541221006,27.680627533434837 132.98409541221005,28.570627533434838 C 137.93409541221004,28.76062753343484 141.98409541221005,27.700627533434837 145.11409541221005,23.480627533434838 C 147.61409541221005,20.15062753343484 150.92409541221005,17.430627533434837 153.70409541221005,14.290627533434838 A 35.05,35.05 0.0 0,1 170.44409541221006,4.050627533434836 C 182.19409541221006,0.5406275334348365 194.15409541221007,-1.099372466565164 206.44409541221006,0.8006275334348363 C 209.92409541221005,1.3406275334348363 213.53409541221006,1.9906275334348362 216.98409541221005,1.6506275334348364 C 229.59409541221007,0.4106275334348364 240.98409541221005,4.520627533434837 252.20409541221005,9.280627533434837 A 82.79,82.79 0.0 0,0 272.39409541221005,15.390627533434838 C 282.19409541221006,16.87062753343484 290.65409541221004,21.980627533434838 298.81409541221007,27.230627533434838 C 309.58409541221005,34.15062753343484 320.20409541221005,41.34062753343484 330.53409541221004,48.90062753343484 C 343.68409541221,58.550627533434835 351.93409541221,71.00062753343485 351.17409541221,88.17062753343484 C 350.49409541221,103.24062753343483 355.45409541221,116.33062753343484 365.63409541221,127.49062753343483 A 41.29,41.29 0.0 0,1 374.04409541221,142.36062753343484 A 48.0,48.0 0.0 0,0 386.70409541221005,162.27062753343483 A 53.0,53.0 0.0 0,1 400.48409541221,183.06062753343483 A 32.0,32.0 0.0 0,0 409.48409541221,196.0106275334348 A 74.0,74.0 0.0 0,1 430.97409541221003,229.66062753343482 C 434.18409541221,239.87062753343483 440.16409541221003,248.7306275334348 444.75409541221,258.26062753343484 C 445.75409541221,260.40062753343483 447.59409541221,261.61062753343487 449.48409541221,262.75062753343485 A 77.71,77.71 0.0 0,1 465.73409541221,276.27062753343483 A 43.19,43.19 0.0 0,0 484.51409541221005,288.27062753343483 C 492.29409541221,290.68062753343486 498.63409541221006,295.58062753343484 504.85409541221003,300.4806275334348 A 97.25,97.25 0.0 0,0 531.33409541221,315.20062753343484 C 538.53409541221,317.90062753343483 545.93409541221,318.64062753343484 553.33409541221,319.51062753343484 C 574.79409541221,322.02062753343483 595.22409541221,328.13062753343485 615.12409541221,336.32062753343484 C 622.2740954122099,339.26062753343484 629.4040954122099,342.23062753343487 636.6540954122099,344.92062753343487 A 71.24,71.24 0.0 0,0 663.35409541221,349.1006275334349 C 682.49409541221,348.63062753343485 700.56409541221,353.7106275334349 718.49409541221,359.18062753343486 C 737.63409541221,365.01062753343484 756.73409541221,369.64062753343484 777.0240954122099,367.89062753343484 A 141.89,141.89 0.0 0,1 813.3240954122099,369.7806275334348 A 64.0,64.0 0.0 0,0 837.7240954122099,369.57062753343484 C 843.5440954122099,368.32062753343484 849.1840954122099,369.57062753343484 854.7240954122099,370.96062753343483 A 47.63,47.63 0.0 0,0 872.3140954122099,371.77062753343483 C 894.6940954122099,369.1006275334348 917.3140954122099,366.77062753343483 939.7240954122099,369.40062753343483 A 293.56,293.56 0.0 0,0 979.8140954122099,371.7406275334348 C 991.3040954122099,371.4806275334348 1002.5840954122099,375.0306275334348 1013.4440954122099,378.6106275334348 C 1026.5540954122098,382.9206275334348 1039.9840954122099,385.1706275334348 1053.44409541221,387.46062753343483 C 1063.9840954122099,389.25062753343485 1074.0340954122098,392.18062753343486 1083.2340954122099,397.9206275334348 A 39.21,39.21 0.0 0,0 1103.4540954122099,403.5606275334348 C 1116.0140954122098,403.8306275334348 1127.36409541221,407.2106275334348 1137.09409541221,415.4706275334348 C 1140.58409541221,418.4706275334348 1144.91409541221,419.4706275334348 1149.43409541221,419.5906275334348 C 1156.9540954122099,419.71062753343483 1163.2240954122099,422.15062753343483 1167.65409541221,428.5906275334348 A 25.78,25.78 0.0 0,0 1171.84409541221,432.82062753343484 C 1178.97409541221,439.2906275334349 1186.84409541221,440.82062753343484 1195.62409541221,436.32062753343484 C 1197.9840954122099,435.11062753343487 1200.32409541221,433.83062753343484 1202.77409541221,432.8506275334348 C 1209.05409541221,430.3606275334348 1213.53409541221,431.5906275334348 1216.83409541221,437.46062753343483 C 1218.56409541221,440.5506275334348 1220.46409541221,440.9106275334348 1223.26409541221,439.9206275334348 C 1227.84409541221,438.2906275334348 1232.3940954122102,436.6106275334348 1236.95409541221,434.9206275334348 C 1249.6940954122101,430.2406275334348 1258.53409541221,432.40062753343483 1266.95409541221,442.9206275334348 A 13.93,13.93 0.0 0,0 1278.95409541221,448.5906275334348 C 1286.30409541221,448.5406275334348 1293.4340954122101,446.88062753343485 1300.5840954122102,445.5906275334348 A 65.23,65.23 0.0 0,1 1325.5840954122102,446.4206275334348 C 1337.1740954122101,448.8406275334348 1348.5840954122102,449.1306275334348 1360.3240954122102,446.2906275334348 A 359.73,359.73 0.0 0,1 1402.7540954122103,439.0706275334348 C 1415.8240954122102,437.5406275334348 1428.1940954122103,433.6706275334348 1440.5240954122103,429.4206275334348 C 1444.5240954122103,428.0506275334348 1448.5240954122103,426.7306275334348 1452.4440954122103,425.4206275334348 A 91.78,91.78 0.0 0,1 1490.2940954122103,420.6306275334348 C 1501.2040954122103,421.6306275334348 1511.7840954122103,419.9906275334348 1522.2940954122103,417.0006275334348 A 292.2,292.2 0.0 0,1 1597.4740954122103,406.0006275334348 A 66.24,66.24 0.0 0,0 1611.1840954122104,404.0006275334348 Q 1633.4440954122103,398.8806275334348 1655.8240954122105,394.3006275334348 C 1664.7640954122105,392.4506275334348 1673.8240954122105,392.5506275334348 1682.8840954122104,393.52062753343483 C 1691.5340954122105,394.45062753343484 1700.0840954122104,393.4706275334348 1708.6340954122104,392.3406275334348 C 1716.2940954122105,391.3406275334348 1723.9540954122103,390.20062753343484 1731.7040954122103,390.1006275334348 A 30.1,30.1 0.0 0,1 1736.9940954122103,390.3006275334348 C 1741.9940954122103,391.1406275334348 1744.1840954122104,395.0106275334348 1741.9940954122103,399.5506275334348 A 42.75,42.75 0.0 0,1 1736.6540954122104,407.90062753343483 C 1730.0840954122104,416.06062753343485 1725.2340954122103,425.20062753343484 1720.6540954122104,434.56062753343485 C 1718.2340954122103,439.56062753343485 1715.5240954122103,444.31062753343485 1710.0640954122105,446.81062753343485 C 1707.3440954122104,448.05062753343486 1705.9340954122104,450.81062753343485 1704.6040954122104,453.30062753343486 C 1701.0040954122105,460.19062753343485 1696.3440954122104,466.30062753343486 1691.8640954122104,472.6506275334349 C 1688.6240954122104,477.2006275334349 1684.5540954122105,480.3706275334349 1679.1340954122104,481.49062753343486 A 15.0,15.0 0.0 0,0 1669.5340954122105,488.02062753343483 C 1664.9340954122106,494.6706275334348 1657.3640954122104,498.12062753343486 1652.2440954122105,504.2406275334348 A 6.5,6.5 0.0 0,1 1644.8440954122104,505.90062753343483 C 1640.4440954122103,504.00062753343485 1638.1540954122104,506.1606275334348 1636.3140954122105,509.52062753343483 C 1631.6340954122104,518.0406275334349 1623.8640954122104,523.1406275334348 1615.8340954122104,527.8606275334348 C 1610.4340954122104,531.0306275334348 1604.7440954122105,533.6406275334348 1598.3740954122104,530.1406275334348 C 1596.5040954122105,529.1406275334348 1595.3740954122104,530.2806275334348 1594.5240954122105,531.5706275334347 C 1587.3340954122104,541.9106275334348 1577.2040954122106,549.1206275334347 1567.6440954122104,556.9606275334347 A 54.08,54.08 0.0 0,1 1554.7040954122103,564.9606275334347 C 1550.0740954122102,566.9606275334347 1545.2240954122103,567.6106275334347 1540.4640954122103,566.1206275334347 C 1537.1440954122104,565.1206275334347 1534.4640954122103,565.2606275334347 1531.8740954122104,567.4706275334347 A 14.35,14.35 0.0 0,1 1529.6440954122104,568.9006275334347 C 1524.5840954122104,571.6806275334346 1522.4040954122104,571.2306275334347 1518.9540954122103,566.7006275334346 C 1518.4240954122104,565.7606275334346 1518.0440954122103,564.6306275334346 1516.4940954122103,564.0706275334346 L 1516.49409541221,564.0706275334348"/>
</svg>
