<?xml version="1.0" ?>
<svg xmlns="http://www.w3.org/2000/svg" xmlns:ev="http://www.w3.org/2001/xml-events" xmlns:xlink="http://www.w3.org/1999/xlink" baseProfile="full" data-name="Layer 1" height="1284" transform="scale(0.0778816199376947 0.0778816199376947) translate(-854.0 -642.0)" version="1.1" viewBox="0 0 1708 1284" width="1708">
	<defs/>
	<path d="M 1436.9081551610402,1221.3408208793248 A 52.64,52.64 0.0 0,0 1428.3881551610402,1235.5608208793249 C 1423.7881551610403,1247.0908208793248 1416.1781551610402,1256.700820879325 1408.9981551610401,1266.5608208793249 A 29.89,29.89 0.0 0,1 1392.6881551610402,1277.480820879325 C 1377.8381551610403,1281.750820879325 1362.9681551610402,1285.110820879325 1347.2081551610402,1282.5408208793249 C 1337.2081551610402,1280.9108208793248 1327.05815516104,1281.8908208793248 1316.9581551610402,1282.260820879325 C 1311.3781551610402,1282.460820879325 1305.76815516104,1282.8508208793248 1300.2281551610401,1282.3808208793248 C 1291.80815516104,1281.6808208793248 1284.1081551610403,1278.9008208793248 1278.6781551610402,1271.8808208793248 A 21.0,21.0 0.0 0,1 1278.6781551610402,1245.3308208793248 A 43.83,43.83 0.0 0,1 1293.3281551610403,1233.240820879325 C 1302.2681551610403,1228.5608208793249 1311.0581551610403,1223.500820879325 1320.5281551610403,1219.980820879325 C 1339.5281551610403,1212.920820879325 1352.6081551610403,1199.5708208793249 1361.5281551610403,1181.8208208793249 C 1369.2681551610403,1166.3808208793248 1368.1181551610402,1150.4308208793248 1363.2781551610403,1134.470820879325 A 62.81,62.81 0.0 0,0 1347.6881551610404,1107.940820879325 C 1340.1881551610404,1100.400820879325 1332.6881551610404,1092.820820879325 1325.2281551610404,1085.2908208793249 A 56.67,56.67 0.0 0,0 1302.2281551610404,1071.4008208793248 C 1282.4881551610404,1064.9708208793247 1263.5681551610403,1056.5608208793249 1244.8381551610403,1047.6708208793248 A 18.48,18.48 0.0 0,0 1241.1681551610402,1046.1508208793248 C 1221.9181551610402,1041.8408208793248 1204.0881551610403,1033.1508208793248 1185.1681551610402,1027.8408208793248 C 1173.8781551610402,1024.6508208793248 1164.1681551610402,1019.0608208793249 1156.8481551610403,1009.6208208793248 A 52.49,52.49 0.0 0,0 1147.6781551610402,1000.8008208793248 C 1133.2281551610401,989.2908208793248 1120.8181551610403,976.1308208793248 1111.4381551610402,959.9308208793248 C 1105.0781551610403,948.9308208793248 1096.8881551610402,939.0108208793248 1089.4381551610402,928.6308208793248 A 178.71,178.71 0.0 0,1 1067.6181551610402,888.0408208793248 C 1062.6181551610402,874.8808208793248 1056.7281551610401,862.0408208793248 1050.6181551610402,849.4308208793248 C 1047.6181551610402,843.3408208793247 1047.3381551610403,843.4908208793247 1042.1281551610402,847.3608208793247 C 1040.4181551610402,848.6308208793247 1038.6581551610402,849.8408208793247 1037.0781551610403,851.2608208793247 C 1030.6781551610402,856.9608208793247 1023.7081551610403,859.6708208793247 1015.1381551610402,856.3808208793247 C 1011.2781551610402,854.9008208793247 1007.3081551610402,856.0108208793247 1003.3581551610403,856.7808208793247 C 979.5381551610402,861.4308208793246 956.8081551610403,869.6408208793247 934.0881551610403,877.8708208793247 A 69.74,69.74 0.0 0,1 917.8981551610402,881.9308208793246 C 911.7081551610402,882.6008208793246 905.6281551610402,882.5008208793247 899.9781551610403,879.6408208793247 C 895.6781551610403,877.4608208793247 891.7381551610403,878.1708208793247 887.8581551610403,880.4108208793247 C 883.4781551610403,882.9308208793246 879.1981551610403,885.6108208793247 874.8581551610403,888.1508208793247 C 866.4481551610403,893.0708208793246 857.3281551610403,895.3508208793247 847.6181551610402,896.2208208793247 C 833.6181551610402,897.4708208793247 819.4981551610402,897.7908208793248 805.4681551610403,898.9408208793247 C 791.8481551610403,900.0508208793248 778.4181551610403,897.9408208793247 764.9081551610402,897.1108208793247 C 758.0181551610402,896.6808208793248 751.1881551610402,895.4608208793247 744.2981551610402,894.9708208793247 A 84.85,84.85 0.0 0,1 721.6981551610402,890.5608208793248 C 711.5781551610402,886.9608208793247 700.8781551610401,887.4308208793248 692.3581551610401,892.8108208793248 C 682.1781551610402,899.2408208793247 670.5981551610402,905.4908208793247 667.7581551610401,919.3808208793248 C 666.3681551610401,926.1608208793248 661.3481551610402,930.5108208793248 655.4081551610401,933.1608208793248 C 647.5481551610401,936.6608208793248 644.4881551610401,942.9108208793248 643.7281551610401,950.7408208793248 C 642.7281551610401,961.4108208793248 638.6481551610401,971.3308208793248 636.3881551610401,981.6908208793249 C 635.3881551610401,986.1308208793249 632.8881551610401,990.0308208793249 629.9781551610401,993.5208208793249 C 621.8681551610401,1003.220820879325 616.3481551610402,1014.3808208793249 611.3781551610401,1025.8708208793248 C 610.6381551610401,1027.5908208793248 609.7481551610401,1029.260820879325 609.8681551610401,1031.1808208793248 C 610.1981551610402,1036.5908208793248 608.4581551610402,1041.6708208793248 607.3981551610401,1046.8608208793248 C 605.8881551610401,1054.280820879325 605.8081551610401,1061.6008208793248 608.4481551610401,1068.8608208793248 C 611.8981551610401,1078.3508208793248 611.1581551610401,1087.6708208793248 606.7981551610401,1096.7108208793247 A 66.0,66.0 0.0 0,0 601.7981551610401,1110.1208208793248 A 32.35,32.35 0.0 0,1 589.6481551610401,1129.2208208793247 C 585.4481551610401,1132.3508208793248 582.3681551610401,1136.2208208793247 581.3381551610402,1141.4608208793247 C 577.9181551610402,1158.7808208793247 568.8681551610401,1173.4608208793247 559.7181551610402,1188.1408208793248 C 552.5281551610401,1199.6408208793248 545.5381551610402,1211.2308208793247 538.9981551610401,1223.1408208793248 C 528.4681551610402,1242.2608208793247 512.5081551610401,1255.4108208793248 492.65815516104016,1264.0608208793249 A 39.49,39.49 0.0 0,1 471.53815516104015,1266.740820879325 C 456.79815516104014,1264.8308208793248 442.6281551610401,1266.640820879325 428.20815516104017,1270.250820879325 C 404.6181551610402,1276.140820879325 380.54815516104014,1277.940820879325 356.20815516104017,1274.500820879325 C 348.60815516104014,1273.420820879325 340.90815516104016,1273.410820879325 333.39815516104017,1271.200820879325 A 32.78,32.78 0.0 0,1 318.67815516104014,1262.200820879325 C 311.02815516104016,1254.200820879325 310.77815516104016,1244.420820879325 318.73815516104014,1236.700820879325 A 63.86,63.86 0.0 0,1 350.73815516104014,1219.770820879325 C 360.59815516104015,1217.770820879325 370.68815516104013,1216.770820879325 380.68815516104013,1215.450820879325 A 25.5,25.5 0.0 0,0 394.2681551610401,1209.250820879325 C 412.3881551610401,1193.6108208793248 427.7081551610401,1175.8608208793248 436.6581551610401,1153.250820879325 A 56.24,56.24 0.0 0,0 440.4681551610401,1136.250820879325 C 443.1081551610401,1100.160820879325 441.2481551610401,1063.970820879325 443.3281551610401,1027.8708208793248 C 444.1981551610401,1012.7508208793248 445.6281551610401,997.6808208793248 446.7681551610401,982.5808208793248 C 449.2281551610401,949.8908208793248 446.0181551610401,917.6408208793248 434.5681551610401,886.8408208793248 C 427.61815516104014,868.1108208793248 416.5681551610401,851.3208208793249 403.7781551610401,835.8408208793248 C 389.5081551610401,818.6808208793249 374.7781551610401,801.8408208793248 362.9281551610401,782.8408208793248 C 352.51815516104006,766.1508208793248 342.4281551610401,749.2708208793248 336.5281551610401,730.2908208793249 C 333.1181551610401,719.2908208793249 330.7681551610401,708.2108208793248 330.8081551610401,696.6608208793249 C 330.8681551610401,681.5608208793249 326.87815516104007,667.2008208793249 322.14815516104005,653.0808208793248 A 31.55,31.55 0.0 0,0 308.71815516104004,635.7608208793248 C 299.83815516104005,630.3208208793247 294.85815516104003,622.1908208793247 292.14815516104005,612.2908208793248 A 224.83,224.83 0.0 0,1 286.09815516104004,580.2208208793247 C 282.98815516104,554.9408208793247 272.28815516104004,532.9508208793247 257.09815516104004,513.0008208793247 C 250.34815516104004,504.13082087932463 242.66815516104003,496.00082087932464 235.50815516104004,487.42082087932465 C 233.28815516104004,484.78082087932466 230.91815516104003,482.12082087932464 229.40815516104004,479.0808208793247 A 43.93,43.93 0.0 0,0 215.17815516104005,462.42082087932465 C 208.17815516104005,457.42082087932465 206.17815516104005,448.91082087932466 204.72815516104006,440.69082087932463 C 202.72815516104006,429.5308208793246 203.85815516104006,418.47082087932466 205.72815516104006,407.4008208793246 C 207.52815516104008,396.7108208793246 207.23815516104005,386.31082087932464 201.51815516104006,376.4908208793246 C 198.14815516104005,370.6908208793246 193.85815516104006,367.4308208793246 186.93815516104004,367.2208208793246 C 166.74815516104005,366.63082087932463 146.57815516104006,365.4608208793246 126.38815516104003,365.0308208793246 C 105.21815516104004,364.5908208793246 84.58815516104005,361.6708208793246 64.81815516104004,353.7908208793246 C 61.61815516104003,352.5208208793246 58.38815516104003,351.2908208793246 55.20815516104003,349.9608208793246 C 43.35815516104003,345.0308208793246 38.94815516104003,335.43082087932464 38.59815516104003,323.3308208793246 C 38.42815516104003,317.5808208793246 41.34815516104003,313.1408208793246 45.058155161040034,309.2208208793246 A 41.0,41.0 0.0 0,1 63.308155161040034,298.2808208793246 C 70.40815516104004,296.1108208793246 77.43815516104004,293.7108208793246 84.76815516104003,291.3308208793246 C 83.51815516104003,288.0308208793246 80.47815516104004,288.0808208793246 78.26815516104003,287.2308208793246 A 185.78,185.78 0.0 0,1 48.268155161040035,272.5208208793246 C 27.598155161040033,259.88082087932463 12.908155161040035,242.29082087932463 2.848155161040033,220.52082087932462 A 33.0,33.0 0.0 0,1 0.42815516104003315,201.8108208793246 C 1.3381551610400333,195.1208208793246 5.428155161040033,190.6608208793246 11.638155161040034,188.5408208793246 C 19.178155161040035,185.9808208793246 26.798155161040036,183.7108208793246 34.82815516104004,183.0108208793246 C 59.17815516104004,180.8608208793246 83.52815516104005,178.6408208793246 108.02815516104005,179.2708208793246 C 125.42815516104005,179.7108208793246 140.14815516104005,173.2708208793246 152.63815516104006,161.44082087932458 C 158.21815516104007,156.14082087932456 163.73815516104005,150.75082087932458 169.08815516104005,145.2108208793246 A 35.08,35.08 0.0 0,1 186.13815516104006,135.5108208793246 Q 203.48815516104005,131.0208208793246 220.68815516104007,125.99082087932462 C 232.90815516104007,122.42082087932462 242.22815516104006,114.61082087932462 249.32815516104006,104.38082087932462 C 252.92815516104005,99.19082087932462 256.81815516104007,94.71082087932461 262.58815516104005,92.19082087932462 C 268.16815516104003,89.75082087932462 271.19815516104006,85.34082087932462 273.0581551610401,79.84082087932462 C 276.88815516104006,68.52082087932463 280.5981551610401,57.16082087932462 284.5981551610401,45.91082087932462 A 113.38,113.38 0.0 0,1 299.8881551610401,17.15082087932462 A 54.06,54.06 0.0 0,1 316.0381551610404,1.9608208793248731 C 321.86815516104036,-1.489179120675127 326.6481551610404,-0.39917912067512673 330.29815516104037,5.3308208793248735 A 31.46,31.46 0.0 0,1 334.29815516104037,16.520820879324873 C 336.0381551610404,25.680820879324873 335.50815516104035,35.05082087932487 337.06815516104035,45.09082087932487 C 341.7281551610404,44.09082087932487 346.24815516104036,43.040820879324876 350.7881551610404,42.09082087932487 C 361.3881551610404,39.88082087932487 366.11815516104036,42.88082087932487 368.5881551610404,53.540820879324876 C 370.8181551610404,63.21082087932488 370.7081551610404,73.01082087932488 370.3781551610404,82.88082087932489 C 369.8781551610404,98.27082087932489 368.9581551610404,113.68082087932488 370.47815516104043,129.08082087932488 A 51.92,51.92 0.0 0,0 374.8081551610404,145.10082087932489 C 380.16815516104043,157.2508208793249 385.3881551610404,169.4608208793249 390.59815516104044,181.68082087932487 A 60.69,60.69 0.0 0,0 400.97815516104043,197.68082087932487 C 416.70815516104045,215.68082087932487 433.3681551610404,232.86082087932488 450.3081551610404,249.76082087932485 A 464.0,464.0 0.0 0,1 502.0081551610404,310.34082087932484 C 508.5981551610404,319.6708208793248 515.3381551610404,328.89082087932485 522.1281551610404,338.08082087932485 C 532.1281551610404,351.63082087932486 545.8381551610404,358.75082087932486 562.2181551610404,361.7408208793249 C 604.2781551610403,369.4008208793249 646.2181551610404,377.8508208793249 688.3481551610404,385.01082087932485 C 710.5881551610404,388.7908208793248 733.1481551610403,390.78082087932484 755.6081551610404,393.09082087932484 C 772.5281551610403,394.84082087932484 789.3881551610403,396.82082087932486 806.1181551610404,400.00082087932486 C 824.2081551610404,403.43082087932487 842.6481551610403,404.26082087932485 860.8981551610403,404.13082087932486 C 897.6581551610403,403.8608208793249 933.4681551610404,409.32082087932486 968.6481551610403,419.19082087932486 C 1015.4381551610403,432.3008208793249 1062.5181551610403,444.37082087932487 1108.9681551610404,458.7408208793249 C 1142.6181551610405,469.1508208793249 1174.8981551610404,482.5908208793249 1206.4781551610404,497.8408208793249 C 1226.5781551610403,507.5508208793249 1246.9281551610404,516.580820879325 1267.4781551610404,525.1308208793249 C 1285.1981551610404,532.4808208793249 1301.6881551610404,542.220820879325 1317.9481551610404,552.3108208793249 C 1346.8781551610405,570.3108208793249 1374.9481551610404,589.5208208793249 1400.6981551610404,611.8608208793248 A 292.15,292.15 0.0 0,1 1457.1581551610404,678.5608208793249 C 1460.9081551610404,684.5608208793249 1463.6281551610405,691.3808208793249 1466.1581551610404,698.0608208793249 C 1474.3281551610405,719.3908208793249 1482.8081551610405,740.6008208793248 1491.8181551610405,761.5908208793248 A 317.88,317.88 0.0 0,1 1506.8181551610405,806.0708208793249 C 1512.5881551610405,827.8908208793249 1519.1981551610406,849.4208208793249 1529.7281551610406,869.6308208793248 A 227.7,227.7 0.0 0,1 1546.2781551610406,909.3008208793248 C 1549.2781551610406,919.1608208793248 1555.2781551610406,925.8408208793247 1564.9181551610407,930.6708208793248 C 1584.4081551610407,940.4308208793248 1604.4581551610406,948.9308208793248 1624.1581551610407,958.1808208793248 C 1644.7081551610406,967.8408208793247 1659.1581551610407,982.7208208793247 1666.1581551610407,1004.5708208793247 A 210.0,210.0 0.0 0,0 1679.3281551610407,1036.1608208793248 C 1686.7381551610408,1050.5308208793247 1688.8481551610407,1066.5108208793247 1692.7081551610408,1081.9208208793248 C 1695.2181551610408,1091.9708208793247 1696.898155161041,1102.2608208793247 1701.0581551610408,1111.7808208793247 A 71.28,71.28 0.0 0,1 1705.8181551610407,1154.5008208793247 C 1701.9281551610406,1175.6908208793247 1698.6281551610407,1196.8808208793248 1689.8181551610407,1216.8008208793246 C 1681.2981551610408,1235.9608208793247 1667.1781551610406,1247.0908208793246 1646.1681551610407,1249.2008208793247 A 24.65,24.65 0.0 0,1 1642.9981551610406,1249.5708208793246 C 1632.9481551610406,1249.3008208793246 1623.8981551610407,1251.4108208793245 1615.9981551610406,1258.4708208793247 C 1612.0881551610405,1261.9808208793247 1606.5181551610406,1263.4708208793247 1601.1981551610406,1263.8608208793248 C 1589.9681551610406,1264.740820879325 1579.1981551610406,1267.760820879325 1568.5381551610405,1270.9208208793248 C 1551.6581551610404,1275.9208208793248 1535.0081551610406,1275.5708208793249 1518.1981551610406,1271.2608208793247 C 1509.1981551610406,1268.9508208793247 1500.1181551610407,1266.9808208793247 1490.9281551610406,1265.5508208793246 C 1481.7381551610406,1264.1208208793246 1474.1781551610406,1259.5508208793246 1467.7981551610405,1252.5508208793246 C 1458.4481551610406,1242.3808208793246 1448.6681551610404,1232.6208208793246 1439.0381551610405,1222.7108208793247 A 11.74,11.74 0.0 0,0 1436.9081551610404,1221.3408208793248 L 1436.9081551610402,1221.3408208793248 M 1515.1481551610402,1009.1908208793249 C 1514.2881551610403,1013.8608208793248 1516.4281551610402,1017.3608208793248 1517.5681551610403,1020.9608208793248 C 1524.4981551610404,1042.8208208793249 1533.0281551610403,1063.8808208793248 1547.5681551610403,1082.1108208793248 C 1553.5681551610403,1089.6108208793248 1560.4381551610402,1096.280820879325 1566.2981551610403,1103.8008208793249 A 304.66,304.66 0.0 0,0 1595.2081551610404,1135.6108208793248 C 1605.5581551610403,1145.6108208793248 1614.8281551610403,1156.500820879325 1622.2081551610404,1168.9808208793247 C 1623.6381551610405,1171.4108208793248 1624.6481551610404,1174.2808208793247 1628.2081551610404,1176.2508208793247 A 67.07,67.07 0.0 0,0 1629.4881551610404,1154.1208208793246 C 1628.6181551610405,1144.1208208793246 1627.0281551610403,1134.1208208793246 1626.1581551610404,1124.0408208793247 C 1624.4381551610404,1104.1408208793246 1616.5281551610403,1087.4408208793247 1602.2281551610404,1073.3708208793246 A 471.37,471.37 0.0 0,0 1540.8781551610405,1022.6808208793245 C 1533.0781551610405,1017.2708208793246 1525.0581551610405,1011.9608208793245 1515.1481551610404,1009.1908208793245 L 1515.1481551610402,1009.1908208793249"/>
</svg>
