<?xml version="1.0" ?>
<svg xmlns="http://www.w3.org/2000/svg" xmlns:ev="http://www.w3.org/2001/xml-events" xmlns:xlink="http://www.w3.org/1999/xlink" baseProfile="full" data-name="Layer 1" height="1564" transform="scale(0.0639386189258312 0.0639386189258312) translate(-849.0 -782.0)" version="1.1" viewBox="0 0 1698 1564" width="1698">
	<defs/>
	<path d="M 1173.2824633240455,965.0872041240235 C 1173.0024633240455,965.4172041240236 1172.5124633240455,965.7272041240235 1172.4724633240455,966.0872041240235 C 1170.3224633240454,986.0872041240235 1168.7124633240455,1006.0872041240235 1173.9724633240455,1025.8972041240236 C 1178.5624633240454,1043.2672041240235 1187.0824633240454,1058.6172041240236 1198.4624633240455,1072.2572041240235 C 1218.0624633240454,1095.7572041240235 1238.9124633240456,1118.0672041240234 1263.8024633240454,1136.2572041240235 C 1271.9024633240454,1142.1572041240236 1280.1424633240454,1147.8672041240234 1287.9624633240455,1154.1772041240235 A 82.69,82.69 0.0 0,1 1307.2324633240455,1177.0772041240236 C 1312.4524633240455,1185.9872041240237 1312.8324633240454,1195.7772041240237 1309.7824633240455,1205.5572041240237 A 104.26,104.26 0.0 0,1 1296.6724633240456,1233.2672041240237 C 1289.0724633240457,1244.4372041240238 1286.3724633240456,1257.4172041240238 1284.4224633240456,1270.4372041240238 C 1282.0724633240457,1286.1372041240238 1278.8524633240456,1301.5272041240237 1273.6324633240456,1316.5772041240239 C 1267.3824633240456,1334.5772041240239 1265.4224633240456,1353.5772041240239 1262.8724633240456,1372.297204124024 C 1260.9624633240455,1386.427204124024 1259.5324633240457,1400.6172041240238 1258.0324633240457,1414.797204124024 A 63.42,63.42 0.0 0,1 1253.4524633240458,1432.8772041240238 C 1249.1324633240458,1443.1672041240238 1244.5324633240457,1453.3872041240238 1238.6724633240458,1462.8772041240238 C 1228.9824633240457,1478.537204124024 1214.7424633240457,1487.0972041240238 1195.9724633240457,1487.1072041240238 A 96.79,96.79 0.0 0,1 1176.6824633240458,1485.257204124024 A 19.08,19.08 0.0 0,0 1164.9124633240458,1486.177204124024 C 1156.1924633240458,1489.947204124024 1147.1424633240458,1489.997204124024 1137.9624633240458,1488.747204124024 A 91.0,91.0 0.0 0,0 1123.9624633240458,1487.8472041240238 C 1121.0724633240457,1487.8472041240238 1118.1624633240458,1487.8472041240238 1115.2724633240457,1487.6072041240238 C 1099.2724633240457,1486.4372041240238 1092.8824633240456,1474.0972041240238 1098.0224633240457,1459.3872041240238 A 39.43,39.43 0.0 0,1 1109.8024633240457,1442.5572041240239 A 102.52,102.52 0.0 0,0 1124.1824633240458,1427.707204124024 A 35.29,35.29 0.0 0,1 1146.0124633240457,1414.477204124024 C 1150.8224633240457,1413.537204124024 1155.6324633240456,1412.5672041240239 1160.4024633240458,1411.477204124024 C 1169.812463324046,1409.247204124024 1176.9724633240457,1404.247204124024 1181.0924633240459,1395.137204124024 C 1190.482463324046,1374.407204124024 1199.9424633240458,1353.657204124024 1204.262463324046,1331.137204124024 C 1207.972463324046,1311.837204124024 1210.0724633240459,1292.347204124024 1208.002463324046,1272.607204124024 A 198.56,198.56 0.0 0,0 1199.8424633240459,1234.7572041240242 C 1198.8424633240459,1231.5172041240241 1196.742463324046,1228.867204124024 1194.8424633240459,1226.107204124024 C 1182.512463324046,1208.107204124024 1167.1024633240459,1193.0172041240241 1150.7124633240458,1178.7772041240241 C 1133.8424633240459,1164.127204124024 1115.1124633240458,1151.9172041240242 1097.9024633240458,1137.7272041240242 C 1082.5824633240459,1125.1172041240243 1066.292463324046,1113.7272041240242 1051.542463324046,1100.3972041240243 C 1032.6324633240458,1083.3172041240243 1014.5424633240459,1065.4572041240242 1000.7724633240459,1043.7972041240243 C 988.7724633240459,1024.9372041240244 978.5624633240459,1005.1572041240244 971.1824633240459,983.9872041240244 C 968.3024633240459,975.7272041240244 966.8024633240459,967.1972041240244 965.6024633240459,958.5672041240244 C 962.7924633240459,938.3072041240245 963.3624633240458,918.0972041240244 965.9724633240459,897.8972041240245 C 966.5524633240459,893.4072041240245 965.9124633240459,889.0072041240245 965.4024633240458,884.5672041240244 C 964.8924633240457,880.1272041240244 962.8324633240458,877.5672041240244 958.2624633240458,876.2172041240244 C 946.3224633240458,872.5872041240244 934.1324633240458,871.8772041240244 921.8524633240459,872.3272041240244 C 906.4224633240459,872.8872041240244 891.3024633240459,875.7572041240244 876.3624633240458,879.5672041240244 C 841.5724633240459,888.4272041240245 807.0224633240458,898.1872041240244 773.1424633240458,910.0672041240244 C 747.2824633240458,919.1372041240245 721.7824633240458,929.2472041240244 696.1424633240458,939.0072041240245 C 675.3124633240458,946.9372041240244 654.5624633240458,955.0972041240245 633.0524633240458,961.0872041240245 A 68.1,68.1 0.0 0,1 616.5624633240458,963.5472041240246 C 612.5624633240458,963.6672041240246 610.0624633240458,964.8972041240246 608.7724633240458,969.1172041240246 C 604.2624633240458,983.8572041240246 597.7724633240458,997.7972041240246 591.3424633240459,1011.7772041240246 A 181.81,181.81 0.0 0,0 577.1324633240458,1055.5672041240246 C 569.2824633240458,1098.7672041240246 559.8524633240459,1141.6572041240245 551.4224633240458,1184.7472041240246 C 547.0124633240458,1207.2772041240246 543.7124633240458,1230.0172041240246 541.3024633240458,1252.8572041240245 C 540.1724633240458,1263.5572041240246 538.3024633240458,1274.0872041240245 534.8424633240458,1284.2272041240244 C 527.8424633240458,1304.3972041240245 526.5624633240458,1325.1472041240245 527.4224633240458,1346.2272041240244 C 528.0124633240458,1360.7472041240244 527.5024633240458,1375.2272041240244 523.1724633240458,1389.2272041240244 C 521.3124633240458,1395.2272041240244 518.0824633240458,1400.1472041240245 512.7624633240458,1403.4472041240244 C 509.41246332404575,1405.5272041240244 508.0624633240458,1408.2572041240244 507.46246332404576,1412.1072041240245 A 165.47,165.47 0.0 0,0 505.99246332404573,1450.1072041240245 C 506.80246332404573,1460.7872041240246 505.46246332404576,1471.4672041240244 506.23246332404574,1482.1772041240245 C 506.90246332404575,1491.5072041240244 506.5024633240457,1500.9072041240245 506.64246332404576,1510.2672041240244 A 67.15,67.15 0.0 0,1 503.72246332404575,1531.4072041240245 C 498.91246332404575,1546.7672041240244 488.4324633240457,1556.2472041240244 472.46246332404576,1559.0972041240245 A 109.71,109.71 0.0 0,1 437.82246332404577,1559.7272041240246 C 430.16246332404575,1558.6472041240247 422.71246332404576,1558.3972041240247 415.32246332404577,1560.7272041240246 C 398.6724633240458,1565.9272041240247 382.26246332404577,1564.1972041240247 366.03246332404575,1558.9372041240247 C 362.30246332404573,1557.7272041240246 358.60246332404574,1557.7372041240246 354.8124633240457,1557.7872041240246 C 341.47246332404575,1557.9972041240246 332.99246332404573,1552.4172041240247 327.7524633240457,1540.0972041240245 C 323.60246332404574,1530.3372041240245 323.61246332404573,1530.2372041240246 312.8224633240457,1529.8772041240245 C 303.23246332404574,1529.5472041240246 293.7024633240457,1529.4172041240245 284.5224633240457,1525.7872041240246 C 277.8124633240457,1523.1372041240245 273.0724633240457,1519.1172041240245 271.3124633240457,1511.9372041240247 A 14.77,14.77 0.0 0,0 269.6324633240457,1507.5972041240248 C 266.1224633240457,1502.0772041240248 266.9524633240457,1496.5972041240248 269.3724633240457,1490.9872041240249 A 36.75,36.75 0.0 0,1 274.30246332404573,1483.0572041240248 C 288.6224633240457,1464.7572041240248 306.55246332404573,1452.5372041240248 330.04246332404574,1449.3572041240247 A 121.89,121.89 0.0 0,0 345.7524633240457,1446.1372041240247 C 352.3324633240457,1444.3672041240247 356.5924633240457,1440.5072041240246 359.1924633240457,1433.6072041240247 C 364.3124633240457,1420.0772041240248 366.6924633240457,1406.0972041240248 368.29246332404574,1391.9172041240247 C 370.09246332404575,1375.9672041240246 371.4324633240457,1359.9672041240246 373.01246332404577,1343.9872041240246 C 374.6124633240458,1327.7772041240246 372.1124633240458,1311.9872041240246 368.2324633240458,1296.3472041240245 C 363.2324633240458,1276.1172041240245 360.51246332404577,1255.6372041240245 362.7724633240458,1234.7072041240244 C 364.2024633240458,1221.5572041240243 363.0724633240458,1208.4372041240244 361.9124633240458,1195.3172041240243 C 359.6224633240458,1169.3172041240243 357.5524633240458,1143.3172041240243 354.2724633240458,1117.4372041240244 A 523.43,523.43 0.0 0,0 344.2724633240458,1062.8772041240245 C 339.56246332404584,1042.9672041240244 337.6424633240458,1022.8772041240245 337.0924633240458,1002.5572041240245 C 336.4724633240458,979.3272041240244 333.9824633240458,956.2572041240245 330.8324633240458,933.2972041240245 C 328.06246332404584,913.0172041240245 319.7624633240458,894.2972041240245 310.6724633240458,876.1472041240245 C 299.8924633240458,854.5972041240245 289.6724633240458,832.8172041240244 281.6124633240458,810.0972041240245 C 275.1824633240458,792.0972041240245 268.8824633240458,773.9372041240246 262.4224633240458,755.8872041240245 C 257.0624633240458,740.8872041240245 256.2724633240458,725.3672041240245 256.2124633240458,709.7272041240245 A 254.84,254.84 0.0 0,1 258.6024633240458,675.0472041240246 C 260.0524633240458,664.1072041240245 258.5024633240458,653.2372041240246 257.3324633240458,642.3772041240246 C 255.5924633240458,626.1772041240246 254.69246332404583,609.9172041240246 254.2524633240458,593.6472041240246 C 253.9124633240458,580.9772041240246 256.9824633240458,568.7772041240246 261.2524633240458,557.0472041240246 C 267.8824633240458,538.9072041240246 271.76246332404577,520.2172041240245 274.2524633240458,501.17720412402457 C 275.8824633240458,488.95720412402454 276.3124633240458,476.5272041240246 274.5624633240458,464.4672041240246 C 272.6224633240458,451.0772041240246 268.9924633240458,437.7972041240246 259.2224633240458,427.3272041240246 C 255.5724633240458,423.4172041240246 252.3724633240458,419.04720412402463 248.4524633240458,415.4472041240246 A 56.35,56.35 0.0 0,1 232.4524633240458,388.8372041240246 C 229.8024633240458,379.6072041240246 225.62246332404578,371.5072041240246 218.7224633240458,364.7572041240246 C 215.3624633240458,361.4672041240246 213.1624633240458,357.23720412402463 210.5324633240458,353.3672041240246 C 208.9324633240458,351.02720412402465 207.6024633240458,348.4472041240246 205.3424633240458,346.4972041240246 C 203.2124633240458,348.1472041240246 202.7124633240458,350.40720412402464 201.6824633240458,352.2772041240246 C 197.9624633240458,359.0472041240246 192.1824633240458,362.2772041240246 184.6224633240458,361.7972041240246 C 180.6224633240458,361.5472041240246 177.23246332404582,361.99720412402456 173.8424633240458,364.19720412402455 A 14.06,14.06 0.0 0,1 162.8424633240458,365.8572041240246 A 34.15,34.15 0.0 0,1 142.83246332404582,353.5872041240246 A 41.0,41.0 0.0 0,1 135.6224633240458,340.8272041240246 C 132.7124633240458,331.7772041240246 126.18246332404581,326.4172041240246 117.87246332404581,322.9372041240246 C 111.7224633240458,320.35720412402463 105.38246332404582,318.1772041240246 99.04246332404581,316.0672041240246 A 70.35,70.35 0.0 0,1 85.59246332404581,310.1772041240246 A 36.16,36.16 0.0 0,0 76.98246332404581,306.5772041240246 C 56.76246332404581,300.9972041240246 43.98246332404581,288.0072041240246 38.34246332404581,267.8472041240246 A 139.25,139.25 0.0 0,1 34.58246332404581,248.15720412402456 A 29.68,29.68 0.0 0,0 27.242463324045815,231.98720412402454 C 23.242463324045815,227.45720412402454 19.242463324045815,222.98720412402454 15.242463324045813,218.54720412402455 C 6.242463324045813,208.65720412402456 3.722463324045814,196.68720412402453 4.032463324045812,183.82720412402455 C 4.112463324045812,180.70720412402454 4.512463324045813,177.59720412402456 4.832463324045812,174.49720412402453 C 5.382463324045812,169.12720412402453 5.392463324045812,163.85720412402455 3.6424633240458126,158.62720412402453 A 27.79,27.79 0.0 0,1 2.2124633240458125,148.73720412402454 A 161.58,161.58 0.0 0,0 0.3924633240458123,119.43720412402456 C -2.0775366759541876,102.19720412402457 7.292463324045812,89.15720412402456 23.392463324045814,84.59720412402456 C 34.22246332404581,81.54720412402456 45.08246332404581,79.52720412402455 56.392463324045806,79.87720412402456 A 45.23,45.23 0.0 0,0 69.01246332404581,78.62720412402456 C 81.1924633240458,75.49720412402456 93.37246332404581,76.37720412402456 105.54246332404581,78.34720412402456 A 112.82,112.82 0.0 0,0 140.82246332404583,78.77720412402456 A 20.48,20.48 0.0 0,0 155.55246332404582,69.65720412402456 C 161.26246332404583,61.39720412402456 167.63246332404583,53.65720412402456 173.86246332404582,45.76720412402456 A 218.71,218.71 0.0 0,1 195.74246332404581,22.31720412402456 C 202.9324633240458,15.57720412402456 211.80246332404582,11.80720412402456 221.2124633240458,9.607204124024559 C 232.26246332404583,7.017204124024559 243.4624633240458,5.097204124024559 254.3524633240458,1.7172041240245588 C 261.6724633240458,-0.5527958759754412 269.3524633240458,-0.1327958759754413 276.9524633240458,0.5072041240245588 A 135.0,135.0 0.0 0,1 309.6624633240458,7.067204124024558 A 92.76,92.76 0.0 0,0 337.8324633240458,11.74720412402456 A 148.93,148.93 0.0 0,1 367.62246332404584,15.57720412402456 C 386.06246332404584,19.79720412402456 400.8924633240458,29.49720412402456 411.73246332404585,44.85720412402456 A 129.08,129.08 0.0 0,0 439.23246332404585,73.85720412402456 A 49.41,49.41 0.0 0,1 456.8324633240459,99.26720412402456 C 457.6224633240459,101.81720412402456 458.53246332404586,104.33720412402455 459.2024633240459,106.92720412402456 C 461.48246332404585,115.72720412402455 466.2624633240459,122.97720412402455 471.6324633240459,130.29720412402455 C 485.47246332404586,149.16720412402455 498.5624633240459,168.54720412402455 504.0224633240459,191.96720412402456 C 507.2624633240459,205.87720412402456 512.752463324046,219.11720412402457 517.372463324046,232.61720412402457 C 523.822463324046,251.45720412402457 527.452463324046,270.9472041240246 530.842463324046,290.5172041240246 C 532.842463324046,301.9372041240246 534.732463324046,313.4072041240246 537.562463324046,324.6272041240246 C 542.102463324046,342.6272041240246 547.472463324046,360.4072041240246 560.442463324046,374.54720412402463 C 570.832463324046,385.8872041240246 580.762463324046,397.64720412402465 591.612463324046,408.54720412402463 A 116.61,116.61 0.0 0,0 613.612463324046,425.90720412402464 A 73.06,73.06 0.0 0,0 630.612463324046,433.70720412402466 C 635.5124633240459,435.19720412402467 640.332463324046,436.96720412402465 645.1424633240459,438.70720412402466 A 59.83,59.83 0.0 0,1 663.5624633240459,449.26720412402466 A 79.71,79.71 0.0 0,0 695.2424633240458,465.94720412402467 A 53.37,53.37 0.0 0,1 713.8324633240459,474.88720412402466 C 715.8324633240459,476.3572041240247 717.9824633240459,477.51720412402466 719.9224633240459,479.00720412402467 C 730.382463324046,487.00720412402467 742.362463324046,489.08720412402465 755.2124633240459,489.00720412402467 C 803.8224633240459,488.6072041240247 852.4424633240459,488.00720412402467 901.0524633240459,488.84720412402464 C 916.2024633240459,489.1172041240246 931.3024633240459,490.84720412402464 946.372463324046,492.58720412402465 C 971.6524633240459,495.4372041240247 997.072463324046,496.29720412402463 1022.452463324046,497.58720412402465 C 1062.922463324046,499.66720412402464 1102.872463324046,504.44720412402467 1141.362463324046,517.8872041240246 C 1183.8124633240461,532.7072041240247 1222.112463324046,554.3472041240246 1254.0424633240461,586.4972041240246 C 1263.322463324046,595.8372041240247 1272.862463324046,604.8872041240246 1281.4424633240462,614.8972041240246 A 199.81,199.81 0.0 0,1 1321.9124633240463,689.5772041240245 C 1325.6824633240462,702.4072041240246 1328.9124633240463,715.3972041240246 1332.8224633240463,728.1672041240246 C 1340.7124633240464,754.1672041240246 1349.8224633240463,779.8172041240246 1362.2924633240464,804.1672041240246 C 1368.9924633240464,817.2272041240245 1377.5724633240463,828.9472041240246 1388.5624633240463,838.5272041240246 C 1409.7924633240464,857.0172041240246 1432.7424633240464,872.5872041240245 1461.4624633240464,877.0572041240246 A 127.0,127.0 0.0 0,0 1512.5624633240463,874.7272041240245 A 136.0,136.0 0.0 0,0 1537.8124633240463,866.0572041240246 C 1545.9024633240463,862.2172041240245 1554.6224633240463,860.1672041240246 1563.2624633240464,857.9572041240245 C 1588.5424633240464,851.4972041240245 1611.2124633240464,840.0972041240245 1630.4524633240464,822.2372041240245 C 1639.9324633240465,813.4372041240246 1649.3924633240465,804.6172041240245 1659.0924633240465,796.0672041240246 C 1665.7824633240466,790.1672041240246 1672.8324633240466,784.6572041240246 1681.2624633240466,781.2972041240246 A 46.58,46.58 0.0 0,1 1688.2624633240466,778.9772041240245 C 1691.4024633240467,778.2872041240245 1694.5724633240466,778.2772041240245 1696.7224633240467,781.3072041240246 C 1698.6524633240467,784.0172041240246 1698.0124633240466,786.8272041240245 1696.6224633240467,789.5172041240246 C 1695.7024633240467,791.2972041240246 1694.6924633240467,793.0372041240246 1693.6224633240467,794.7272041240246 C 1675.6224633240467,823.1572041240246 1653.8324633240468,848.4472041240247 1629.9924633240466,872.0372041240246 C 1622.3624633240465,879.5972041240245 1613.5324633240466,885.6972041240246 1604.3824633240467,891.2972041240246 C 1592.2124633240467,898.7472041240246 1580.0124633240468,906.1372041240246 1567.8424633240468,913.5872041240245 C 1561.8424633240468,917.2672041240245 1555.2224633240469,919.1372041240245 1548.4224633240467,920.5072041240245 C 1537.0624633240468,922.8072041240245 1525.5524633240468,924.2272041240245 1514.3024633240468,927.1672041240245 C 1505.1024633240468,929.5772041240244 1495.702463324047,928.9672041240244 1486.4724633240469,926.6872041240244 A 97.23,97.23 0.0 0,0 1461.2924633240468,923.6872041240244 C 1447.672463324047,923.9472041240244 1435.2924633240468,920.1172041240244 1423.6424633240467,913.6172041240244 C 1414.2624633240466,908.3672041240244 1404.6424633240467,903.8572041240244 1394.2624633240466,900.9872041240244 C 1376.0924633240465,895.9872041240244 1363.0024633240466,883.4672041240244 1350.6024633240465,870.1472041240244 C 1347.3024633240466,866.5972041240244 1344.3024633240466,862.7672041240244 1341.1524633240465,859.0572041240243 C 1338.6524633240465,860.8872041240244 1339.3724633240465,863.0572041240243 1339.3424633240465,864.9072041240244 A 496.91,496.91 0.0 0,0 1342.3424633240465,929.6672041240244 C 1348.7224633240467,984.6672041240244 1362.1824633240465,1037.8572041240243 1380.3424633240465,1090.0272041240244 C 1388.3424633240465,1113.1972041240244 1400.6424633240465,1133.5772041240243 1418.4624633240464,1150.5472041240243 C 1428.8124633240463,1160.3972041240243 1438.4624633240464,1170.8472041240243 1445.8824633240465,1183.2272041240244 A 95.57,95.57 0.0 0,1 1453.0124633240466,1198.3072041240243 C 1464.5524633240466,1228.5372041240244 1478.8424633240465,1257.5372041240244 1492.3424633240465,1286.8972041240243 A 280.76,280.76 0.0 0,1 1504.2324633240466,1317.2672041240241 C 1511.1224633240467,1338.4472041240242 1521.9124633240467,1357.6572041240242 1534.8124633240466,1375.7072041240242 C 1545.5624633240466,1390.7072041240242 1557.4624633240467,1404.9972041240242 1566.2024633240467,1421.4272041240242 C 1568.2024633240467,1425.1572041240242 1570.5524633240466,1428.8372041240243 1571.7224633240467,1432.8372041240243 C 1575.6724633240467,1446.3672041240243 1583.3424633240465,1457.8372041240243 1591.1324633240467,1469.2572041240244 A 47.56,47.56 0.0 0,1 1598.5024633240466,1487.7472041240244 A 28.06,28.06 0.0 0,1 1598.7724633240466,1497.0672041240243 C 1597.7724633240466,1503.7272041240244 1593.4324633240467,1508.3372041240243 1586.7124633240467,1508.3072041240243 C 1572.2424633240466,1508.3072041240243 1557.8824633240467,1511.8372041240243 1543.3624633240468,1509.4672041240244 A 13.13,13.13 0.0 0,0 1536.1124633240468,1510.1672041240245 C 1527.9024633240467,1513.6072041240245 1519.4324633240467,1512.4472041240244 1511.0424633240468,1511.4372041240244 C 1506.8224633240468,1510.9272041240245 1502.6624633240467,1510.5672041240246 1498.4124633240467,1510.4372041240244 C 1482.1524633240467,1510.0272041240244 1476.3024633240468,1504.5372041240244 1471.5824633240468,1491.9472041240244 A 65.3,65.3 0.0 0,1 1467.3724633240467,1469.0972041240245 Q 1467.2124633240467,1447.0372041240246 1466.5624633240468,1424.9572041240244 A 93.45,93.45 0.0 0,0 1447.8424633240468,1371.4372041240244 A 197.22,197.22 0.0 0,1 1417.9224633240467,1312.0572041240243 A 99.92,99.92 0.0 0,0 1406.5824633240468,1288.6672041240242 C 1399.212463324047,1276.9772041240242 1390.4324633240467,1266.2072041240242 1384.1224633240467,1253.8372041240243 C 1379.9524633240467,1245.6572041240242 1376.2424633240466,1237.3772041240243 1374.6824633240467,1228.2272041240244 C 1373.5924633240468,1221.7772041240244 1370.2424633240466,1216.1572041240245 1367.6824633240467,1210.2272041240244 C 1361.0724633240468,1195.3072041240243 1351.4924633240466,1182.6572041240245 1340.0924633240468,1171.1172041240245 A 254.72,254.72 0.0 0,1 1320.7424633240469,1148.9572041240244 A 461.13,461.13 0.0 0,0 1277.8124633240468,1101.2672041240244 A 170.52,170.52 0.0 0,1 1261.8124633240468,1083.2672041240244 C 1250.2624633240468,1068.4372041240244 1236.7424633240469,1055.4472041240244 1223.452463324047,1042.2672041240244 C 1210.452463324047,1029.3672041240243 1200.112463324047,1014.7072041240244 1193.132463324047,997.7972041240243 C 1188.682463324047,986.9972041240244 1182.602463324047,977.1672041240244 1176.132463324047,967.5072041240244 C 1175.392463324047,966.5372041240244 1174.922463324047,965.1572041240244 1173.282463324047,965.0872041240244 L 1173.2824633240455,965.0872041240235"/>
</svg>
