<?xml version="1.0" ?>
<svg xmlns="http://www.w3.org/2000/svg" xmlns:ev="http://www.w3.org/2001/xml-events" xmlns:xlink="http://www.w3.org/1999/xlink" baseProfile="full" data-name="Layer 1" height="1411" transform="scale(0.07087172218284904 0.07087172218284904) translate(-848.5 -705.5)" version="1.1" viewBox="0 0 1697 1411" width="1697">
	<defs/>
	<path d="M 489.04598852146034,1333.0182948459524 A 272.91,272.91 0.0 0,1 461.97598852146035,1336.8682948459523 C 450.5059885214603,1337.8682948459523 439.0659885214603,1339.0582948459523 427.54598852146034,1339.2382948459522 C 419.35598852146035,1339.3682948459523 411.54598852146034,1341.8782948459523 403.54598852146034,1343.1782948459522 C 384.89598852146037,1346.1782948459522 366.16598852146035,1345.3482948459523 347.48598852146034,1344.0082948459522 C 332.18598852146033,1342.9082948459522 316.9459885214603,1341.0082948459522 301.68598852146033,1339.5282948459521 C 292.68598852146033,1338.648294845952 283.68598852146033,1339.068294845952 274.62598852146033,1339.368294845952 C 260.79598852146034,1339.828294845952 247.13598852146035,1339.218294845952 234.03598852146035,1333.878294845952 A 68.55,68.55 0.0 0,1 209.66598852146035,1317.178294845952 C 202.85598852146035,1309.928294845952 203.14598852146034,1301.178294845952 205.10598852146035,1292.338294845952 A 34.92,34.92 0.0 0,1 213.86598852146034,1275.7182948459522 C 229.00598852146035,1259.9382948459522 244.47598852146032,1244.3482948459523 262.6059885214603,1232.068294845952 C 275.81598852146027,1223.128294845952 288.8359885214603,1213.668294845952 303.5159885214603,1207.068294845952 A 26.63,26.63 0.0 0,0 306.4159885214603,1205.348294845952 C 313.3459885214603,1201.108294845952 313.5159885214603,1201.058294845952 311.3259885214603,1192.9982948459522 C 309.48598852146034,1186.2582948459522 307.3259885214603,1179.618294845952 305.05598852146034,1172.9982948459522 C 299.74598852146033,1157.348294845952 298.84598852146036,1141.6882948459522 304.3859885214603,1125.8882948459523 C 305.5759885214603,1122.4882948459522 306.54598852146034,1119.0082948459522 307.49598852146033,1115.5282948459524 C 308.2759885214603,1112.6982948459524 309.30598852146034,1109.8582948459523 309.49598852146033,1106.9782948459524 C 310.93598852146033,1081.6582948459525 307.28598852146035,1057.8882948459525 288.23598852146034,1038.9182948459525 C 281.10598852146035,1031.8282948459525 276.79598852146034,1022.7282948459523 271.5159885214603,1014.3582948459524 C 260.6959885214603,997.1882948459524 250.74598852146033,979.4482948459524 238.05598852146034,963.5282948459524 C 230.55598852146034,954.1082948459524 226.85598852146035,943.0582948459523 223.43598852146033,931.8082948459523 C 220.28598852146033,921.4182948459523 218.50598852146032,910.7382948459523 216.55598852146034,900.0982948459523 C 214.39598852146034,888.2982948459523 211.64598852146034,876.6882948459523 206.75598852146032,865.6982948459523 A 105.32,105.32 0.0 0,1 197.75598852146032,822.9782948459523 A 78.19,78.19 0.0 0,0 190.2359885214603,790.2382948459523 A 144.88,144.88 0.0 0,1 177.4259885214603,742.7482948459523 C 175.9059885214603,727.3882948459523 170.6559885214603,713.4182948459522 162.51598852146032,700.3882948459523 C 158.0859885214603,693.3082948459522 154.04598852146032,685.9982948459523 149.8659885214603,678.7782948459522 A 27.29,27.29 0.0 0,0 141.2159885214603,669.4782948459523 C 133.6159885214603,664.4282948459523 130.9059885214603,657.2182948459523 132.8159885214603,648.3882948459523 C 133.1959885214603,646.6282948459523 133.5459885214603,644.8582948459523 134.0759885214603,643.1382948459523 C 137.3159885214603,632.6882948459522 134.14598852146028,623.4682948459523 128.17598852146028,615.1382948459523 C 122.84598852146027,607.6682948459522 119.60598852146028,599.6682948459522 120.55598852146026,590.5182948459523 C 121.55598852146026,581.0882948459523 117.26598852146026,573.9382948459522 111.55598852146026,567.3382948459523 A 48.33,48.33 0.0 0,0 103.13598852146026,559.5182948459523 C 84.00598852146027,545.9382948459522 74.68598852146026,526.9382948459522 71.68598852146026,504.1682948459523 A 118.17,118.17 0.0 0,0 62.625988521460265,472.37829484595227 C 60.625988521460265,467.75829484595226 57.335988521460266,464.37829484595227 53.625988521460265,460.90829484595224 C 45.405988521460266,453.12829484595227 35.50598852146026,447.37829484595227 27.62598852146026,439.4982948459522 C 14.815988521460262,426.7582948459522 8.835988521460262,410.8882948459522 12.025988521460263,392.6782948459522 A 49.48,49.48 0.0 0,0 9.665988521460264,366.1282948459522 C 6.775988521460262,358.3182948459522 3.4859885214602633,350.6482948459522 2.1959885214602632,342.28829484595224 A 70.77,70.77 0.0 0,1 2.0859885214602634,320.06829484595227 C 3.0859885214602634,314.00829484595226 3.1859885214602635,307.9282948459523 1.4359885214602635,301.95829484595225 C -1.3040114785397368,292.59829484595224 0.035988521460263545,283.64829484595225 4.105988521460263,274.95829484595225 C 6.215988521460264,270.46829484595224 8.455988521460263,266.03829484595224 10.505988521460264,261.52829484595225 C 13.425988521460265,255.12829484595224 15.745988521460266,248.56829484595224 15.425988521460265,241.33829484595225 C 15.235988521460264,236.61829484595225 17.125988521460265,232.54829484595226 19.935988521460263,228.85829484595226 A 71.19,71.19 0.0 0,1 32.125988521460265,216.21829484595224 C 43.125988521460265,207.51829484595225 54.125988521460265,198.88829484595226 66.17598852146025,191.75829484595224 A 297.13,297.13 0.0 0,0 92.28598852146025,174.81829484595224 A 70.82,70.82 0.0 0,0 113.71598852146026,149.99829484595224 A 114.19,114.19 0.0 0,1 151.49598852146028,107.40829484595224 C 169.7959885214603,94.93829484595224 189.25598852146027,85.50829484595224 211.40598852146027,82.01829484595224 C 218.71598852146028,80.86829484595224 225.89598852146028,78.56829484595224 232.93598852146027,76.17829484595224 C 254.93598852146027,68.72829484595223 277.52598852146025,67.33829484595223 300.4359885214603,68.53829484595224 C 317.8059885214603,69.44829484595223 335.0259885214603,71.80829484595223 352.31598852146027,73.53829484595224 C 368.01598852146026,75.11829484595224 383.7959885214603,76.03829484595224 399.2459885214603,79.64829484595224 A 341.91,341.91 0.0 0,1 436.96598852146025,90.34829484595224 A 144.65,144.65 0.0 0,1 470.96598852146025,108.23829484595224 C 501.75598852146027,129.67829484595225 531.2859885214604,152.66829484595223 558.5259885214604,178.50829484595224 C 569.0659885214603,188.50829484595224 581.1059885214604,196.50829484595224 593.2559885214604,204.30829484595225 A 106.47,106.47 0.0 0,1 614.5559885214603,221.96829484595224 C 623.4059885214604,231.67829484595225 633.8659885214603,239.60829484595223 643.8659885214603,248.04829484595223 A 68.69,68.69 0.0 0,1 656.8659885214603,261.7982948459522 C 659.5959885214603,265.7982948459522 661.3959885214603,270.16829484595223 661.1359885214603,275.08829484595225 C 660.7359885214603,282.6782948459522 663.5259885214602,289.20829484595225 667.5559885214602,295.3682948459522 C 671.1459885214603,300.85829484595223 674.4059885214602,306.46829484595224 676.0959885214602,312.91829484595223 A 23.4,23.4 0.0 0,1 675.0959885214602,328.78829484595224 C 670.8459885214602,338.4382948459522 665.8459885214602,347.39829484595225 655.2459885214602,351.60829484595223 C 648.2459885214602,354.3882948459522 645.7459885214602,360.0682948459522 645.8359885214602,367.27829484595225 C 645.8959885214601,372.46829484595224 645.7359885214602,377.66829484595223 645.6859885214602,382.85829484595223 A 56.22,56.22 0.0 0,0 649.4859885214602,404.02829484595225 C 652.7059885214602,412.26829484595225 655.5459885214601,420.6182948459522 653.8159885214602,429.69829484595226 C 653.4159885214602,431.84829484595224 654.3659885214602,432.9882948459523 656.2659885214603,433.8582948459523 C 666.2659885214603,438.4282948459523 675.8759885214603,444.0582948459523 687.0459885214602,445.8582948459523 A 35.52,35.52 0.0 0,1 701.5559885214602,451.2682948459523 C 712.6959885214602,458.8882948459523 725.1359885214603,461.0782948459523 738.2159885214602,461.0082948459523 Q 750.7259885214602,460.92829484595234 763.2159885214602,461.8382948459523 C 776.6259885214602,462.8382948459523 789.7459885214602,460.1482948459523 802.9259885214602,458.3982948459523 A 195.78,195.78 0.0 0,1 850.1459885214603,458.0082948459523 C 872.3459885214603,460.4382948459523 894.3859885214603,464.0982948459523 916.6459885214603,466.1282948459523 C 934.7059885214602,467.7682948459523 952.7259885214603,466.8982948459523 970.7659885214603,466.8282948459523 C 994.4859885214603,466.73829484595234 1018.0959885214603,464.5682948459523 1041.5959885214602,461.55829484595233 C 1053.67598852146,460.0082948459523 1065.67598852146,457.9382948459523 1077.8659885214602,457.24829484595233 C 1092.3159885214602,456.42829484595234 1106.7959885214602,456.47829484595235 1121.1059885214602,458.4582948459523 C 1156.47598852146,463.3382948459523 1191.3059885214602,460.55829484595233 1225.8559885214602,452.2982948459523 C 1228.2559885214603,451.7182948459523 1230.8559885214602,451.2382948459523 1232.8559885214602,449.8982948459523 C 1241.1159885214602,444.2882948459523 1250.5459885214602,442.0782948459523 1260.0559885214602,440.1682948459523 Q 1271.6859885214603,437.8282948459523 1283.0559885214602,434.5982948459523 C 1297.2859885214602,430.5982948459523 1304.9359885214603,421.5282948459523 1306.4659885214603,406.5982948459523 C 1307.4659885214603,396.3682948459523 1306.0159885214603,386.3382948459523 1303.3759885214604,376.4582948459523 C 1299.8259885214604,363.1382948459523 1297.7359885214603,349.55829484595233 1295.6559885214604,335.9482948459523 C 1294.1259885214604,325.9482948459523 1294.9359885214603,316.11829484595233 1296.5059885214603,306.30829484595233 C 1298.7959885214602,291.98829484595234 1297.2659885214603,277.96829484595236 1293.9559885214603,264.03829484595235 A 39.0,39.0 0.0 0,0 1287.1659885214603,250.14829484595236 C 1281.4459885214603,242.30829484595236 1275.7259885214603,234.46829484595236 1270.1659885214603,226.51829484595237 C 1264.7659885214603,218.78829484595238 1257.5559885214604,213.05829484595236 1249.9659885214603,207.70829484595237 C 1246.9659885214603,205.61829484595236 1243.8859885214604,203.76829484595237 1241.1359885214604,201.45829484595237 C 1229.4259885214603,191.65829484595235 1220.4259885214603,180.12829484595238 1216.9959885214603,164.81829484595238 C 1215.5159885214603,158.21829484595239 1213.5959885214602,151.72829484595238 1212.0959885214602,145.12829484595238 A 53.43,53.43 0.0 0,0 1200.5659885214602,121.69829484595238 C 1193.5159885214603,113.47829484595238 1186.2559885214603,105.42829484595238 1179.5659885214602,96.91829484595237 C 1171.5659885214602,86.80829484595237 1164.5659885214602,76.09829484595238 1160.6459885214601,63.60829484595237 C 1156.99598852146,51.948294845952375 1159.3659885214602,40.79829484595237 1163.4159885214601,29.89829484595237 C 1165.4159885214601,24.608294845952372 1167.8859885214601,19.46829484595237 1168.72598852146,13.89829484595237 C 1170.1659885214601,4.328294845952369 1186.72598852146,-4.021705154047632 1196.02598852146,2.078294845952369 C 1199.4159885214601,4.30829484595237 1203.02598852146,6.288294845952369 1206.02598852146,8.938294845952369 C 1221.08598852146,21.93829484595237 1237.84598852146,32.678294845952365 1253.19598852146,45.278294845952374 C 1263.19598852146,53.448294845952375 1272.80598852146,61.88829484595237 1280.79598852146,72.10829484595237 C 1287.37598852146,80.51829484595237 1295.44598852146,87.43829484595237 1304.17598852146,93.50829484595238 A 127.0,127.0 0.0 0,1 1337.1159885214602,126.22829484595238 C 1340.68598852146,131.43829484595238 1344.43598852146,136.51829484595237 1348.0359885214602,141.70829484595237 A 8.91,8.91 0.0 0,0 1352.6459885214601,145.44829484595238 C 1358.5359885214602,147.38829484595237 1362.4159885214601,151.78829484595238 1365.76598852146,156.68829484595238 C 1370.23598852146,163.2382948459524 1373.53598852146,170.43829484595238 1376.60598852146,177.68829484595238 A 85.0,85.0 0.0 0,0 1388.14598852146,197.51829484595237 C 1401.08598852146,213.92829484595237 1410.4859885214598,232.43829484595238 1420.30598852146,250.70829484595237 C 1421.80598852146,253.49829484595236 1423.12598852146,256.35829484595234 1425.19598852146,258.79829484595234 A 15.85,15.85 0.0 0,0 1433.3659885214602,264.41829484595235 C 1444.73598852146,267.41829484595235 1451.93598852146,275.17829484595234 1456.0159885214603,285.8882948459523 A 183.35,183.35 0.0 0,1 1467.9159885214603,337.7982948459523 C 1468.2159885214603,341.7982948459523 1468.6859885214603,345.88829484595226 1469.3659885214604,349.88829484595226 C 1470.2159885214603,354.88829484595226 1471.8259885214604,359.56829484595227 1475.5259885214605,363.18829484595227 C 1482.2359885214605,369.76829484595225 1483.6059885214604,378.0382948459523 1483.2159885214605,386.8682948459523 C 1482.7159885214605,398.2282948459523 1479.7259885214605,409.1182948459523 1476.6359885214606,419.9682948459523 C 1473.1559885214606,432.1482948459523 1468.2159885214605,443.7682948459523 1462.9759885214605,455.2682948459523 A 109.45,109.45 0.0 0,0 1454.9759885214605,482.4582948459523 C 1454.4259885214606,485.6882948459523 1455.1759885214606,487.8382948459523 1457.5259885214605,490.2082948459523 C 1462.9359885214606,495.6382948459523 1468.0059885214605,501.4182948459523 1473.0259885214605,507.2082948459523 C 1479.0259885214605,514.2082948459523 1482.0859885214604,522.7382948459523 1485.3159885214604,531.2082948459523 A 41.94,41.94 0.0 0,1 1487.6459885214604,538.9682948459523 C 1491.6459885214604,562.0382948459524 1502.9059885214604,581.6682948459523 1516.1059885214604,600.4582948459523 Q 1531.8759885214604,622.8982948459524 1546.8959885214604,645.8182948459523 C 1559.3659885214604,664.9582948459523 1568.5359885214605,685.3782948459524 1572.7059885214603,707.8782948459524 A 207.7,207.7 0.0 0,1 1575.9159885214603,742.2082948459524 C 1576.1159885214604,754.6082948459524 1575.9159885214603,766.9782948459524 1577.1959885214603,779.3882948459524 C 1578.4759885214603,791.3882948459524 1583.5959885214604,801.3282948459524 1590.9959885214603,810.3882948459524 C 1595.1459885214604,815.4782948459524 1600.1559885214604,819.7182948459524 1605.1259885214604,823.9782948459524 C 1610.2659885214605,828.3882948459524 1615.3859885214604,832.8082948459524 1619.6359885214604,838.1482948459524 A 27.93,27.93 0.0 0,1 1626.0959885214604,854.8982948459524 C 1626.3259885214604,862.3882948459524 1628.3659885214604,869.4982948459524 1632.8259885214604,875.1682948459523 C 1646.1059885214604,892.0682948459523 1653.3059885214604,912.1682948459523 1663.3259885214604,930.7882948459524 C 1666.8559885214604,937.3382948459523 1670.8059885214604,943.6282948459524 1673.9159885214603,950.4282948459523 C 1681.3059885214604,966.5882948459523 1684.3259885214604,983.9682948459523 1689.0459885214605,1000.8882948459524 C 1693.4059885214604,1016.5182948459524 1694.3059885214604,1032.3982948459525 1694.1459885214604,1048.4782948459524 A 88.63,88.63 0.0 0,1 1687.1459885214604,1082.7182948459524 A 66.0,66.0 0.0 0,0 1682.8759885214604,1119.8182948459523 A 216.92,216.92 0.0 0,0 1690.4659885214603,1150.6582948459522 A 128.28,128.28 0.0 0,1 1695.9359885214603,1187.3282948459523 C 1696.2659885214603,1211.2282948459524 1696.3259885214604,1235.1282948459523 1694.0859885214604,1258.9682948459524 C 1693.5659885214604,1264.5782948459523 1692.9959885214605,1270.1982948459524 1692.2859885214605,1275.7882948459524 C 1691.1659885214606,1284.7082948459524 1686.0159885214605,1291.6082948459523 1680.5459885214605,1298.2582948459524 A 91.25,91.25 0.0 0,1 1667.7859885214605,1310.3482948459523 A 23.4,23.4 0.0 0,1 1661.3259885214604,1313.9282948459522 C 1646.3959885214604,1319.8382948459523 1630.7559885214605,1321.6782948459522 1614.8959885214604,1321.9282948459522 C 1594.1159885214604,1322.2582948459522 1573.4759885214603,1324.2082948459522 1552.7859885214605,1325.9882948459522 C 1525.7359885214605,1328.308294845952 1498.6659885214606,1327.6282948459523 1471.7859885214605,1322.828294845952 A 45.42,45.42 0.0 0,1 1454.8459885214604,1316.2882948459521 C 1449.1859885214603,1312.588294845952 1443.2959885214605,1309.1882948459522 1438.1359885214604,1304.7782948459521 C 1428.9059885214604,1296.878294845952 1426.4659885214603,1287.598294845952 1430.9259885214603,1276.2082948459522 C 1436.9259885214603,1260.8682948459523 1445.4859885214603,1247.2082948459522 1458.1159885214604,1236.3382948459523 A 71.7,71.7 0.0 0,0 1476.9859885214603,1211.9082948459522 A 76.27,76.27 0.0 0,1 1495.0859885214602,1187.6482948459523 C 1502.8559885214602,1180.5582948459523 1506.4959885214603,1171.5882948459523 1506.6259885214602,1161.1382948459523 C 1506.68598852146,1155.9182948459522 1505.3559885214602,1151.2982948459523 1500.6259885214602,1148.3082948459523 C 1490.6259885214602,1141.9982948459524 1484.7859885214602,1132.5282948459524 1480.5059885214603,1121.8482948459523 C 1476.5959885214602,1112.0982948459523 1470.3959885214604,1104.3482948459523 1460.9559885214603,1099.3582948459523 A 57.06,57.06 0.0 0,1 1454.2059885214603,1094.8482948459523 A 27.07,27.07 0.0 0,0 1441.0259885214602,1090.0182948459524 C 1432.5359885214602,1089.0182948459524 1423.8959885214601,1088.5882948459523 1416.0859885214602,1084.5082948459524 C 1414.0859885214602,1083.4482948459524 1412.8359885214602,1084.1782948459525 1411.4959885214603,1085.7682948459524 C 1396.1159885214602,1103.9082948459525 1383.6059885214602,1123.2682948459524 1380.6959885214603,1147.7682948459524 C 1379.0559885214602,1161.6882948459524 1373.6059885214604,1174.7682948459524 1368.0659885214602,1187.6482948459525 C 1362.8959885214601,1199.6482948459525 1357.0659885214602,1211.3982948459525 1351.67598852146,1223.2982948459526 A 44.94,44.94 0.0 0,1 1326.8059885214602,1246.9582948459527 C 1301.3959885214601,1257.2782948459526 1274.8059885214602,1261.4382948459527 1247.4859885214603,1261.3782948459527 C 1230.7959885214602,1261.3782948459527 1214.1159885214604,1260.8882948459527 1197.4059885214604,1261.7482948459526 C 1176.5359885214605,1262.8282948459525 1155.9859885214603,1260.7482948459526 1135.9159885214603,1254.4082948459527 C 1125.8059885214604,1251.2382948459526 1115.5259885214602,1248.6282948459527 1105.2959885214605,1245.8582948459527 A 56.39,56.39 0.0 0,1 1086.1559885214604,1236.0082948459528 C 1073.7959885214605,1226.7282948459529 1071.4659885214603,1214.5382948459528 1079.8759885214604,1201.6082948459527 A 80.8,80.8 0.0 0,1 1116.2359885214603,1171.2282948459526 C 1123.2359885214603,1168.1682948459527 1130.4559885214603,1165.4782948459526 1137.7059885214603,1163.0182948459526 C 1154.1659885214603,1157.4182948459527 1170.0459885214602,1150.3682948459525 1186.2859885214602,1144.2182948459526 A 44.29,44.29 0.0 0,0 1207.4259885214603,1127.9282948459527 C 1212.7659885214603,1120.3282948459528 1214.7259885214603,1112.0282948459526 1212.4259885214603,1102.9282948459527 C 1208.5359885214602,1087.2882948459526 1208.2359885214603,1071.7682948459526 1213.0359885214602,1056.1782948459527 C 1214.7559885214603,1050.6082948459527 1215.3759885214602,1044.6982948459527 1216.4659885214603,1038.9382948459527 A 22.33,22.33 0.0 0,0 1216.4659885214603,1030.8682948459527 A 8.31,8.31 0.0 0,0 1210.0959885214604,1023.7782948459526 C 1196.3259885214604,1019.8282948459525 1182.6959885214603,1018.4482948459525 1169.1759885214603,1024.9582948459527 C 1158.1759885214603,1030.2782948459526 1146.4459885214603,1031.7882948459526 1134.2259885214603,1030.6782948459527 C 1121.5459885214602,1029.5182948459526 1110.1059885214604,1033.2782948459526 1100.1659885214603,1041.1982948459527 C 1094.7059885214603,1045.5582948459526 1089.4159885214603,1050.1982948459527 1084.2859885214602,1054.9082948459527 A 116.68,116.68 0.0 0,1 1063.2859885214602,1070.9082948459527 C 1053.8059885214602,1076.3582948459527 1047.2859885214602,1075.4882948459526 1039.5759885214602,1067.9082948459527 C 1038.5759885214602,1066.9082948459527 1037.7059885214603,1065.9082948459527 1036.69598852146,1065.0382948459528 C 1031.69598852146,1060.5282948459528 1026.0759885214602,1060.3582948459527 1020.8759885214602,1064.7882948459528 A 62.94,62.94 0.0 0,0 1014.7759885214601,1071.1182948459527 C 1003.4859885214602,1083.7982948459528 989.1559885214601,1090.7382948459526 972.6259885214602,1093.5782948459528 A 27.0,27.0 0.0 0,1 961.1959885214602,1093.4082948459527 C 956.4759885214602,1092.1882948459527 952.2559885214602,1093.2682948459526 948.2959885214602,1095.7482948459526 C 945.0459885214602,1097.7482948459526 941.8059885214602,1099.8382948459525 938.7159885214602,1102.0982948459525 C 921.5559885214602,1114.6582948459525 901.7759885214601,1115.4482948459524 883.7159885214602,1104.3682948459525 A 118.8,118.8 0.0 0,1 872.7159885214602,1096.5682948459526 C 865.1459885214601,1090.6382948459525 857.3259885214602,1093.2282948459526 849.5759885214602,1095.8982948459525 C 847.3559885214602,1096.6582948459525 846.5759885214602,1099.1682948459525 845.4959885214602,1101.1282948459525 C 838.4959885214602,1114.0382948459526 835.0959885214602,1127.9782948459524 834.0159885214601,1142.5382948459526 C 832.7659885214601,1159.4082948459525 832.7359885214602,1176.3682948459525 830.0159885214601,1193.1282948459525 C 829.6259885214602,1195.5782948459525 829.3559885214602,1198.0582948459526 828.7759885214601,1200.4682948459524 C 824.4459885214601,1218.3882948459525 824.2559885214602,1236.6682948459525 823.8859885214601,1254.9482948459524 C 823.4359885214601,1277.5082948459524 824.3759885214602,1300.0882948459525 823.2059885214602,1322.6382948459525 C 822.6059885214602,1334.2282948459524 819.6559885214602,1345.3582948459525 815.9959885214602,1356.2782948459526 C 814.0959885214602,1361.9382948459527 810.1859885214602,1366.3882948459525 805.5059885214602,1370.1282948459525 A 131.53,131.53 0.0 0,1 764.7559885214602,1392.1282948459525 C 728.2659885214601,1404.3182948459526 690.9759885214602,1410.6482948459525 652.3759885214602,1409.7682948459526 C 630.0559885214601,1409.2582948459526 607.6959885214602,1410.2682948459526 585.3759885214602,1410.5082948459526 C 566.8759885214602,1410.6982948459527 548.3759885214602,1411.1682948459527 529.8759885214602,1410.7282948459526 C 518.5159885214601,1410.4582948459527 507.5659885214601,1407.5482948459526 497.9459885214601,1400.9382948459527 A 29.31,29.31 0.0 0,1 488.5059885214601,1389.6982948459527 C 480.8059885214601,1374.7482948459526 480.2459885214601,1359.4982948459526 485.6559885214601,1343.7882948459526 C 486.73598852146006,1340.6282948459525 487.66598852146006,1337.3982948459525 489.04598852146006,1333.0182948459526 L 489.04598852146034,1333.0182948459524 M 524.3059885214604,1274.9482948459524 C 530.9359885214604,1272.5982948459525 536.7859885214605,1270.2582948459524 542.8059885214604,1268.4782948459524 A 14.62,14.62 0.0 0,0 552.8059885214604,1259.3382948459523 C 557.4059885214605,1248.3382948459523 562.1359885214605,1237.4382948459522 565.4459885214604,1225.8982948459523 C 571.0259885214605,1206.4282948459522 576.3759885214604,1186.8982948459523 580.2559885214604,1167.0182948459521 C 582.7659885214604,1154.1582948459522 580.7859885214604,1141.9582948459522 577.2559885214604,1129.7482948459522 C 576.6859885214603,1127.7982948459521 575.8259885214604,1125.2682948459521 573.3359885214604,1125.9882948459522 C 567.2759885214605,1127.7282948459522 560.7559885214604,1127.2282948459522 554.9559885214604,1130.1782948459522 C 549.3859885214604,1133.0082948459522 546.3359885214604,1136.9382948459522 546.8459885214604,1143.5782948459523 C 547.3059885214604,1149.4682948459524 548.6859885214604,1155.1482948459523 549.9259885214605,1160.8482948459523 C 551.6259885214605,1168.6682948459522 551.0159885214605,1176.0682948459523 547.1659885214605,1183.1282948459523 A 22.25,22.25 0.0 0,0 544.5159885214605,1196.1282948459523 C 544.8159885214604,1199.2682948459524 544.9659885214605,1202.4282948459522 545.3759885214605,1205.5482948459523 Q 547.3159885214606,1220.3782948459523 534.0959885214605,1227.2882948459524 C 530.9059885214605,1228.9582948459524 527.6759885214606,1230.5582948459523 524.5059885214605,1232.2882948459524 C 516.5659885214604,1236.6082948459523 514.3859885214605,1241.1482948459523 515.8359885214605,1250.0782948459523 A 21.45,21.45 0.0 0,0 518.5259885214606,1257.6782948459522 A 42.39,42.39 0.0 0,1 524.3059885214606,1274.9482948459522 L 524.3059885214604,1274.9482948459524"/>
</svg>
