<?xml version="1.0" ?>
<svg xmlns="http://www.w3.org/2000/svg" xmlns:ev="http://www.w3.org/2001/xml-events" xmlns:xlink="http://www.w3.org/1999/xlink" baseProfile="full" data-name="Layer 1" height="1713" transform="scale(0.06949270326615706 0.06949270326615706) translate(-719.5 -856.5)" version="1.1" viewBox="0 0 1439 1713" width="1439">
	<defs/>
	<path d="M 1294.7275898239766,795.1528052340511 C 1293.4575898239766,800.9028052340511 1294.1675898239766,806.3128052340511 1294.9975898239766,811.6228052340512 C 1302.0575898239765,856.6228052340512 1306.6375898239767,901.8828052340511 1306.5275898239765,947.5028052340512 C 1306.4675898239766,971.2028052340512 1310.0775898239765,994.3628052340512 1315.3875898239764,1017.3528052340512 A 581.84,581.84 0.0 0,1 1328.0075898239763,1093.8128052340512 C 1329.5175898239763,1109.9828052340513 1330.3675898239762,1126.2728052340512 1331.8975898239764,1142.4828052340513 C 1335.1675898239764,1177.1028052340512 1341.7675898239763,1211.0228052340512 1353.2675898239763,1243.9128052340513 A 187.74,187.74 0.0 0,0 1368.1875898239764,1277.1128052340514 C 1375.6375898239764,1289.8228052340514 1382.1875898239764,1303.0328052340515 1390.1875898239764,1315.4228052340513 A 38.93,38.93 0.0 0,1 1395.4975898239763,1329.8828052340514 C 1398.6175898239762,1347.0628052340514 1398.8275898239763,1364.2628052340515 1397.4975898239763,1381.6428052340514 C 1394.5675898239763,1419.6428052340514 1398.2675898239763,1456.8528052340514 1410.4975898239763,1493.3228052340514 C 1417.8975898239764,1515.3228052340514 1425.8775898239765,1537.2228052340515 1433.2975898239763,1559.2628052340515 C 1440.6075898239762,1580.9828052340515 1439.1675898239762,1602.5128052340515 1433.6175898239762,1624.1628052340516 C 1431.3875898239762,1632.8628052340516 1426.3875898239762,1639.2128052340515 1418.4975898239763,1643.8328052340516 C 1404.2375898239764,1652.1728052340516 1389.2975898239763,1656.7028052340515 1372.6175898239762,1654.8328052340516 C 1365.4275898239762,1654.0128052340517 1358.1575898239762,1654.6528052340516 1350.9175898239762,1654.9328052340516 C 1339.5475898239763,1655.3928052340516 1331.6575898239762,1650.3028052340514 1327.4475898239762,1639.6628052340516 A 62.59,62.59 0.0 0,1 1323.7375898239761,1609.9128052340516 C 1325.1675898239762,1595.7628052340515 1327.047589823976,1581.6628052340516 1328.4275898239762,1567.5128052340515 C 1331.547589823976,1535.5128052340515 1330.8075898239763,1503.4228052340516 1328.1975898239762,1471.4228052340516 C 1326.1975898239762,1447.3628052340516 1321.297589823976,1423.9428052340515 1311.8575898239762,1401.5128052340515 C 1306.0475898239763,1387.7028052340515 1300.9575898239762,1373.5128052340515 1297.6775898239762,1358.8928052340516 C 1293.6775898239762,1341.1528052340516 1287.2375898239761,1324.2828052340517 1280.9675898239761,1307.3128052340517 C 1270.057589823976,1277.7428052340517 1254.2275898239761,1250.7928052340517 1237.337589823976,1224.4228052340516 C 1222.687589823976,1201.5528052340517 1208.337589823976,1178.5528052340517 1195.917589823976,1154.3428052340516 A 210.85,210.85 0.0 0,0 1183.487589823976,1132.8728052340516 A 660.14,660.14 0.0 0,1 1128.137589823976,1032.4628052340515 A 161.28,161.28 0.0 0,0 1112.5075898239759,1004.8128052340516 C 1108.7475898239759,999.4828052340515 1108.407589823976,999.5828052340515 1103.937589823976,1004.0328052340516 C 1099.167589823976,1008.7928052340516 1094.607589823976,1013.6728052340516 1091.457589823976,1019.7628052340516 C 1088.947589823976,1024.6328052340516 1084.8275898239758,1028.3228052340517 1081.3075898239758,1032.4528052340515 C 1071.8375898239758,1043.5728052340514 1065.3075898239758,1056.0328052340515 1065.5275898239759,1071.0528052340514 C 1065.657589823976,1081.6528052340514 1066.1375898239758,1092.2528052340515 1066.6275898239758,1102.8428052340514 C 1067.5575898239758,1122.7528052340515 1067.4775898239757,1142.6628052340513 1066.7275898239757,1162.5728052340514 A 199.85,199.85 0.0 0,0 1067.7275898239757,1190.4628052340515 C 1069.4175898239757,1207.0128052340515 1077.1875898239757,1220.9228052340516 1086.6175898239758,1234.0828052340514 A 232.0,232.0 0.0 0,1 1107.0875898239758,1268.7528052340515 C 1110.9475898239757,1276.7528052340515 1111.9975898239759,1284.9828052340515 1112.5775898239758,1293.4728052340515 C 1113.5075898239759,1306.9428052340515 1111.8575898239758,1320.3428052340514 1110.8175898239758,1333.7428052340515 C 1107.7675898239759,1373.1928052340515 1101.5475898239758,1412.2928052340515 1097.467589823976,1451.6428052340516 C 1096.0275898239759,1465.5228052340517 1092.987589823976,1479.2028052340515 1092.107589823976,1493.1628052340516 C 1091.297589823976,1505.8028052340517 1090.467589823976,1518.4428052340515 1089.367589823976,1531.0528052340517 C 1088.267589823976,1543.6628052340518 1086.777589823976,1556.2628052340517 1080.367589823976,1567.6528052340516 A 72.22,72.22 0.0 0,1 1061.367589823976,1589.9328052340516 C 1058.877589823976,1591.8428052340516 1056.237589823976,1593.8128052340517 1053.177589823976,1594.1828052340516 C 1041.177589823976,1595.6328052340516 1030.707589823976,1601.7228052340515 1019.307589823976,1604.9628052340515 C 1011.307589823976,1607.2228052340515 1003.4775898239759,1609.8628052340516 995.2375898239759,1610.9028052340516 C 976.7575898239759,1613.2228052340515 961.0975898239759,1606.6228052340516 951.9975898239759,1590.3028052340517 C 947.6775898239758,1582.5528052340517 947.4075898239759,1575.1028052340516 951.1975898239759,1567.3728052340516 C 957.297589823976,1554.9228052340516 966.3575898239759,1545.3028052340517 978.9375898239759,1539.1728052340516 C 985.677589823976,1535.8928052340516 992.3575898239759,1532.4928052340515 999.1075898239759,1529.2328052340515 A 18.0,18.0 0.0 0,0 1008.3275898239759,1519.2328052340515 C 1010.1075898239759,1514.6628052340516 1012.1975898239759,1510.0928052340514 1013.0775898239759,1505.3228052340514 C 1017.677589823976,1480.4428052340513 1024.887589823976,1456.0628052340514 1026.5775898239758,1430.6128052340514 C 1028.0775898239758,1407.9728052340513 1027.1875898239757,1385.7128052340513 1020.7875898239758,1363.7728052340515 A 424.0,424.0 0.0 0,1 1009.6275898239759,1317.8328052340514 C 1006.9675898239759,1302.5728052340514 1000.0775898239759,1289.5928052340514 989.9475898239759,1278.0528052340514 Q 968.7075898239759,1253.8428052340514 949.1175898239759,1228.2628052340515 C 926.9775898239759,1199.4228052340516 911.0175898239759,1167.2628052340515 899.2975898239758,1133.1828052340516 A 396.0,396.0 0.0 0,1 881.5575898239758,1058.6028052340516 C 879.8975898239759,1046.5328052340517 875.7475898239759,1035.0328052340517 870.2975898239758,1024.0828052340516 C 866.5275898239759,1016.5328052340517 862.3875898239759,1014.9628052340516 854.4775898239758,1018.0828052340516 C 848.9575898239758,1020.2828052340517 843.4775898239758,1022.6828052340517 838.6775898239758,1026.2728052340517 C 817.5975898239758,1041.9428052340518 794.6775898239758,1054.2728052340517 770.5175898239759,1064.5128052340517 C 762.7775898239759,1067.7828052340517 758.8075898239758,1073.3628052340516 757.0375898239758,1081.1528052340518 A 122.89,122.89 0.0 0,0 754.2075898239758,1104.2228052340517 C 753.5375898239758,1124.4028052340518 754.7775898239759,1144.5028052340517 756.3975898239759,1164.6428052340518 C 759.9675898239759,1208.9628052340518 771.4975898239759,1251.6428052340518 781.3375898239759,1294.752805234052 A 371.42,371.42 0.0 0,1 789.677589823976,1351.472805234052 A 632.24,632.24 0.0 0,0 798.047589823976,1418.362805234052 A 403.73,403.73 0.0 0,1 804.167589823976,1485.4928052340522 C 804.267589823976,1496.1728052340522 802.167589823976,1506.5628052340521 796.4775898239759,1515.9528052340522 A 28.11,28.11 0.0 0,0 792.8575898239759,1529.2928052340521 A 201.58,201.58 0.0 0,0 793.547589823976,1555.642805234052 A 419.82,419.82 0.0 0,1 791.377589823976,1643.872805234052 C 790.127589823976,1653.172805234052 787.267589823976,1661.952805234052 781.487589823976,1669.652805234052 C 778.487589823976,1673.652805234052 775.1775898239761,1677.272805234052 770.787589823976,1679.592805234052 A 57.0,57.0 0.0 0,0 756.3475898239759,1691.0428052340521 C 747.8575898239759,1699.9828052340522 737.8275898239759,1705.4328052340522 725.1975898239759,1706.5328052340521 C 716.1975898239759,1707.3128052340521 707.4375898239759,1709.862805234052 698.527589823976,1711.4128052340523 A 54.81,54.81 0.0 0,1 661.727589823976,1705.5528052340524 A 99.0,99.0 0.0 0,0 648.387589823976,1699.4028052340523 C 639.537589823976,1696.1328052340523 634.257589823976,1684.8828052340523 635.257589823976,1673.5328052340524 C 636.887589823976,1654.8028052340524 646.257589823976,1640.5328052340524 660.487589823976,1628.9528052340524 C 664.897589823976,1625.3828052340525 669.747589823976,1622.3328052340526 673.487589823976,1617.9528052340524 A 21.64,21.64 0.0 0,0 678.157589823976,1609.1828052340525 C 685.247589823976,1581.4228052340525 687.157589823976,1553.0928052340525 687.777589823976,1524.6128052340525 C 688.097589823976,1508.6128052340525 688.617589823976,1492.6128052340525 687.607589823976,1476.5328052340526 C 687.017589823976,1467.2328052340526 685.827589823976,1458.1028052340525 682.837589823976,1449.1628052340527 C 677.247589823976,1432.4928052340526 672.087589823976,1415.6628052340527 669.837589823976,1398.1628052340527 C 668.767589823976,1389.9628052340527 667.997589823976,1381.7028052340527 667.567589823976,1373.4528052340527 C 666.327589823976,1349.1928052340527 660.0375898239761,1326.0328052340526 652.567589823976,1303.1428052340527 C 645.247589823976,1280.8028052340528 636.4075898239761,1258.9628052340527 630.937589823976,1236.0128052340526 Q 626.937589823976,1219.0128052340526 624.067589823976,1201.8228052340526 C 620.067589823976,1177.8228052340526 613.937589823976,1154.3128052340526 607.7675898239761,1130.8228052340526 C 606.6175898239761,1126.4428052340525 603.7675898239761,1124.5428052340526 599.7675898239761,1123.5128052340526 A 84.13,84.13 0.0 0,0 568.197589823976,1121.9228052340527 C 548.867589823976,1124.3728052340527 529.567589823976,1125.1628052340527 510.30758982397606,1121.0928052340528 C 502.19758982397605,1119.3828052340527 494.0275898239761,1117.7128052340527 486.4075898239761,1114.5328052340528 C 473.6575898239761,1109.192805234053 460.4075898239761,1106.3028052340528 446.8275898239761,1103.962805234053 A 166.64,166.64 0.0 0,1 373.6175898239761,1072.0628052340528 C 368.8575898239761,1068.462805234053 363.9975898239761,1065.0628052340528 358.4375898239761,1062.8028052340528 C 352.8775898239761,1060.5428052340528 350.53758982397613,1061.3328052340528 347.4375898239761,1066.3828052340527 C 345.65758982397614,1069.3028052340528 344.97758982397613,1072.5628052340528 344.4375898239761,1075.9228052340527 C 341.9275898239761,1091.0828052340528 342.5775898239761,1106.3628052340528 342.7375898239761,1121.6028052340528 C 343.02758982397614,1150.8728052340527 346.9975898239761,1179.8628052340528 350.20758982397615,1208.8928052340527 C 352.20758982397615,1226.8928052340527 352.70758982397615,1245.0128052340526 353.20758982397615,1263.1028052340528 C 354.00758982397616,1290.7528052340529 354.99758982397617,1318.4128052340527 355.06758982397616,1346.1028052340528 C 355.13758982397616,1376.6728052340527 350.2975898239762,1406.9028052340527 347.06758982397616,1437.2328052340529 C 344.9175898239762,1457.5528052340528 342.2975898239762,1477.8428052340528 338.06758982397616,1497.8128052340528 C 333.88758982397616,1517.5128052340528 328.6075898239762,1536.9928052340529 323.56758982397616,1556.5028052340529 C 320.26758982397615,1569.2528052340529 318.56758982397616,1582.432805234053 313.46758982397614,1594.692805234053 C 307.26758982397615,1609.462805234053 301.14758982397615,1624.2728052340528 294.8575898239761,1639.0028052340529 C 290.78758982397613,1648.5528052340528 284.1175898239761,1655.6128052340528 275.2575898239761,1661.3128052340528 C 259.7475898239761,1671.3128052340528 243.53758982397608,1677.3128052340528 224.78758982397608,1675.2228052340529 C 213.19758982397607,1673.952805234053 201.5275898239761,1674.9728052340529 189.88758982397607,1675.0828052340528 A 37.63,37.63 0.0 0,1 164.88758982397607,1666.1828052340527 A 65.87,65.87 0.0 0,0 157.42758982397606,1660.6328052340527 C 149.50758982397608,1655.8428052340528 147.37758982397605,1648.5028052340526 148.19758982397607,1639.9628052340527 C 149.62758982397608,1625.1828052340527 158.29758982397607,1614.8828052340527 169.5575898239761,1606.2828052340526 C 173.0475898239761,1603.6228052340525 176.69758982397607,1601.1528052340525 180.1075898239761,1598.3928052340525 C 205.1075898239761,1578.1328052340525 221.1075898239761,1551.5228052340526 233.2575898239761,1522.2428052340524 C 252.89758982397612,1474.8028052340524 260.0075898239761,1425.2428052340524 257.5575898239761,1374.2428052340524 C 256.22758982397613,1346.5528052340524 251.31758982397608,1319.3328052340523 244.50758982397608,1292.4328052340525 C 235.89758982397606,1258.3628052340525 227.59758982397608,1224.2028052340524 219.29758982397607,1190.0528052340526 C 216.22758982397607,1177.4428052340527 215.21758982397606,1164.5028052340526 214.42758982397606,1151.6128052340525 C 212.16758982397607,1114.6928052340525 208.69758982397607,1077.8828052340525 204.60758982397607,1041.1428052340525 C 202.03758982397608,1018.0028052340525 197.21758982397608,995.2828052340525 187.43758982397608,973.7928052340525 C 180.62758982397608,958.7928052340525 178.16758982397607,942.6128052340525 177.07758982397607,926.2928052340525 C 175.85758982397607,907.9528052340524 175.95758982397606,889.5828052340524 176.52758982397606,871.2228052340524 C 177.16758982397604,850.7428052340524 175.45758982397606,830.4128052340525 173.27758982397606,810.0828052340524 C 170.92758982397606,788.1528052340525 171.37758982397605,766.1628052340525 173.10758982397607,744.2328052340524 C 176.24758982397606,704.6928052340525 176.51758982397607,665.1828052340525 171.94758982397607,625.7528052340524 C 170.48758982397607,613.1628052340524 167.38758982397607,600.8128052340523 164.0575898239761,588.6028052340524 C 157.3075898239761,563.8328052340524 153.31758982397608,538.6028052340524 150.31758982397608,513.1728052340525 C 147.72758982397607,491.1728052340525 145.56758982397608,468.9728052340525 138.6175898239761,447.63280523405246 C 136.0275898239761,439.63280523405246 132.28758982397608,433.56280523405246 125.20758982397611,428.63280523405246 C 111.20758982397611,418.8628052340525 95.4275898239761,413.20280523405245 79.82758982397611,407.01280523405245 C 69.02758982397611,402.7328052340525 57.827589823976105,399.47280523405243 47.5175898239761,393.93280523405247 C 30.377589823976102,384.7228052340525 20.437589823976104,370.4228052340525 16.9875898239761,351.45280523405245 C 14.3475898239761,336.95280523405245 11.577589823976101,322.45280523405245 11.697589823976102,307.63280523405246 C 11.767589823976103,299.55280523405247 10.217589823976102,291.72280523405243 5.627589823976103,284.7328052340525 C -0.0924101760238969,276.0228052340525 -1.0624101760238975,266.49280523405247 0.9775898239761025,256.43280523405247 C 2.047589823976103,251.12280523405244 2.9775898239761025,245.75280523405243 3.5475898239761023,240.36280523405244 C 4.957589823976102,226.92280523405245 12.667589823976101,218.16280523405246 24.1775898239761,212.36280523405244 C 33.8575898239761,207.45280523405245 43.5175898239761,202.36280523405244 53.5975898239761,198.36280523405244 C 64.2775898239761,194.19280523405246 70.35758982397611,186.77280523405244 72.8075898239761,176.00280523405243 C 75.0375898239761,166.17280523405242 77.34758982397611,156.37280523405244 81.3275898239761,147.06280523405243 A 13.35,13.35 0.0 0,0 82.1675898239761,139.43280523405244 C 80.9775898239761,132.80280523405244 83.0275898239761,127.25280523405243 87.23758982397611,122.21280523405244 C 91.44758982397612,117.17280523405245 92.46758982397611,111.14280523405245 91.46758982397611,104.69280523405244 A 13.58,13.58 0.0 0,0 88.10758982397664,97.84280523405116 C 85.79758982397664,95.12280523405116 83.26758982397664,94.23280523405116 79.93758982397664,96.06280523405115 C 76.99758982397664,97.67280523405115 73.93758982397664,99.06280523405115 70.93758982397664,100.53280523405115 A 88.58,88.58 0.0 0,1 61.72758982397663,104.60280523405115 C 51.79758982397663,107.94280523405115 44.667589823976634,102.47280523405115 45.27758982397663,91.94280523405115 C 45.60758982397663,86.19280523405115 47.74758982397663,80.88280523405115 50.17758982397663,75.70280523405116 C 53.47758982397663,68.64280523405115 57.93758982397663,62.27280523405116 62.17758982397663,55.81280523405116 C 66.17758982397665,49.762805234051164 70.07758982397664,43.67280523405116 72.53758982397663,36.81280523405116 C 77.20758982397663,23.812805234051158 87.35758982397662,17.152805234051158 100.09758982397663,14.372805234051157 A 195.72,195.72 0.0 0,1 140.09758982397662,9.522805234051159 A 143.41,143.41 0.0 0,0 176.87758982397662,4.522805234051158 C 188.42758982397663,1.352805234051158 200.0775898239766,-0.6671947659488424 212.09758982397662,0.2028052340511577 A 73.4,73.4 0.0 0,1 221.30758982397663,1.3828052340511576 C 238.83758982397663,4.922805234051157 250.07758982397664,15.742805234051158 256.96758982397665,31.712805234051157 C 257.78758982397665,33.61280523405116 258.5075898239767,35.552805234051156 259.22758982397664,37.48280523405116 C 262.4375898239766,46.122805234051164 267.90758982397665,51.92280523405116 277.59758982397665,53.09280523405116 C 282.7575898239767,53.722805234051165 287.5075898239767,56.00280523405116 292.23758982397663,58.09280523405116 C 306.5675898239766,64.40280523405116 321.3875898239766,68.61280523405115 337.17758982397663,68.89280523405115 C 340.78758982397665,68.95280523405116 344.3875898239766,69.51280523405116 347.97758982397664,69.89280523405115 C 351.5675898239767,70.27280523405115 354.0675898239766,69.36280523405115 354.61758982397663,65.35280523405115 C 354.7475898239766,64.35280523405115 355.29758982397664,63.352805234051154 355.5175898239766,62.352805234051154 C 358.5175898239766,48.50280523405115 369.92758982397663,37.562805234051154 388.0875898239766,36.132805234051155 C 402.6775898239766,34.97280523405116 415.6075898239766,39.78280523405115 427.8975898239766,46.802805234051156 A 422.13,422.13 0.0 0,1 466.92758982397663,71.90280523405116 C 476.42758982397663,78.82280523405116 487.0075898239766,81.90280523405116 498.35758982397664,84.12280523405116 A 117.0,117.0 0.0 0,1 556.3575898239767,113.45280523405116 C 564.0175898239767,120.51280523405116 568.6175898239767,129.39280523405117 569.0575898239767,140.08280523405116 C 569.4275898239767,149.08280523405116 569.8175898239767,158.16280523405115 569.0575898239767,167.21280523405116 C 567.5375898239768,185.31280523405115 558.0575898239767,199.31280523405115 545.5175898239768,211.38280523405118 A 117.18,117.18 0.0 0,0 512.6375898239768,266.6028052340512 C 507.2675898239768,286.55280523405116 499.96758982397677,305.99280523405116 497.41758982397675,326.6628052340512 A 34.06,34.06 0.0 0,0 498.0175898239768,339.6628052340512 C 503.29758982397675,359.9528052340512 510.29758982397675,379.6628052340512 517.6675898239768,399.2828052340512 C 524.2775898239768,416.8328052340512 535.2375898239768,432.0428052340512 544.7575898239768,448.0128052340512 C 555.5175898239768,466.0828052340512 569.7575898239768,481.5928052340512 582.2075898239768,498.4328052340512 C 585.9675898239768,503.5228052340512 591.6075898239768,506.59280523405124 597.3075898239769,509.0628052340512 C 614.6275898239769,516.5628052340512 632.1775898239769,523.4128052340512 650.4975898239768,528.2228052340512 C 664.9975898239768,532.0228052340511 679.5975898239768,535.6728052340512 693.6975898239768,540.6828052340512 C 714.5575898239769,548.0928052340512 735.6975898239768,548.7728052340512 757.1675898239769,545.5628052340512 C 777.3675898239769,542.5628052340512 797.2675898239769,537.8528052340512 817.4775898239768,534.8428052340512 A 528.1,528.1 0.0 0,1 889.3075898239769,529.0128052340511 C 902.6975898239768,528.8728052340512 916.0675898239768,526.8728052340512 929.4575898239768,525.7128052340512 C 931.7675898239768,525.5128052340511 934.1175898239768,524.9628052340512 936.3875898239768,525.1828052340512 C 957.2975898239768,527.1828052340512 978.2675898239768,525.5328052340512 999.1975898239768,526.4828052340512 C 1022.3775898239768,527.5428052340511 1044.9975898239768,530.8928052340511 1066.317589823977,540.5628052340512 C 1082.387589823977,547.8528052340512 1099.587589823977,549.6828052340512 1116.877589823977,551.3428052340512 A 143.41,143.41 0.0 0,1 1169.517589823977,566.3428052340512 C 1183.247589823977,573.4528052340512 1196.007589823977,582.4528052340512 1209.077589823977,590.8028052340512 C 1223.257589823977,599.8028052340512 1236.807589823977,609.8028052340512 1250.257589823977,619.9028052340512 A 574.29,574.29 0.0 0,0 1342.657589823977,676.6728052340512 A 234.9,234.9 0.0 0,0 1371.927589823977,689.2128052340512 C 1378.3575898239772,691.3328052340512 1382.927589823977,695.9228052340512 1387.167589823977,700.8028052340512 C 1394.167589823977,708.8628052340512 1399.3175898239772,718.1828052340512 1404.037589823977,727.6728052340512 A 268.3,268.3 0.0 0,1 1418.307589823977,762.0428052340512 A 171.59,171.59 0.0 0,0 1425.9275898239769,779.8428052340512 C 1427.9875898239768,784.3028052340512 1430.0375898239768,788.7828052340512 1430.9275898239769,793.6428052340511 C 1433.107589823977,805.0628052340511 1428.587589823977,812.8228052340511 1417.5075898239768,816.4128052340511 A 48.24,48.24 0.0 0,1 1395.2475898239768,818.0028052340512 C 1387.8375898239767,816.8928052340511 1380.3575898239767,815.9228052340511 1373.2475898239768,813.4928052340512 C 1354.1075898239767,806.9528052340512 1334.3175898239767,803.2628052340511 1314.4675898239768,799.7028052340512 C 1307.9275898239769,798.5228052340512 1301.4475898239768,796.7228052340512 1294.7275898239768,795.1528052340512 L 1294.7275898239766,795.1528052340511"/>
</svg>
