<?xml version="1.0" ?>
<svg xmlns="http://www.w3.org/2000/svg" xmlns:ev="http://www.w3.org/2001/xml-events" xmlns:xlink="http://www.w3.org/1999/xlink" baseProfile="full" data-name="Layer 1" height="1614" transform="scale(0.061957868649318466 0.061957868649318466) translate(-825.5 -807.0)" version="1.1" viewBox="0 0 1651 1614" width="1651">
	<defs/>
	<path d="M 1072.470105873867,1115.5170814640965 A 98.76,98.76 0.0 0,0 1036.470105873867,1122.8570814640964 C 1030.390105873867,1125.3470814640964 1023.8101058738671,1125.9170814640963 1017.350105873867,1126.7370814640965 A 84.22,84.22 0.0 0,0 987.470105873867,1135.8870814640966 C 976.730105873867,1141.6870814640965 965.5601058738671,1144.7670814640967 953.260105873867,1143.3870814640966 C 947.870105873867,1142.7770814640967 942.630105873867,1144.3870814640966 937.400105873867,1145.5370814640967 A 124.44,124.44 0.0 0,1 909.000105873867,1148.6170814640966 A 302.33,302.33 0.0 0,0 878.310105873867,1149.8370814640966 A 64.11,64.11 0.0 0,1 855.440105873867,1148.1070814640966 C 848.3501058738669,1146.1670814640966 841.130105873867,1146.3270814640966 833.930105873867,1146.9570814640965 C 821.8501058738669,1148.0170814640965 809.790105873867,1148.6470814640966 797.710105873867,1146.8970814640966 C 785.8601058738669,1145.1670814640966 774.0201058738669,1145.8370814640966 762.180105873867,1146.9970814640965 A 66.09,66.09 0.0 0,1 737.920105873867,1145.3670814640964 C 732.290105873867,1143.8070814640964 726.8501058738669,1144.9270814640963 721.400105873867,1146.2770814640965 C 710.020105873867,1149.0870814640964 698.610105873867,1150.8170814640964 686.850105873867,1148.5570814640964 C 683.850105873867,1147.9770814640965 680.240105873867,1144.9470814640965 677.760105873867,1147.5570814640964 C 675.990105873867,1149.3870814640964 676.220105873867,1153.2170814640965 675.690105873867,1156.1870814640965 C 674.840105873867,1160.9970814640965 674.030105873867,1165.8170814640966 673.300105873867,1170.6470814640966 A 35.63,35.63 0.0 0,1 670.050105873867,1182.0170814640965 C 660.550105873867,1200.1570814640966 655.9801058738669,1219.9170814640966 651.140105873867,1239.5570814640964 C 648.7101058738671,1249.3970814640963 645.140105873867,1258.6770814640963 639.500105873867,1267.0470814640964 A 62.74,62.74 0.0 0,0 631.250105873867,1285.4070814640963 A 291.4,291.4 0.0 0,1 612.880105873867,1334.4070814640963 A 70.66,70.66 0.0 0,1 600.880105873867,1352.4070814640963 C 590.740105873867,1363.0170814640962 580.310105873867,1373.3170814640964 568.270105873867,1381.8270814640964 A 48.62,48.62 0.0 0,1 554.570105873867,1388.5870814640964 C 544.140105873867,1391.8470814640964 533.770105873867,1395.1570814640963 523.7401058738669,1399.6870814640963 C 515.7401058738669,1403.2970814640962 507.1501058738669,1405.8470814640964 497.99010587386687,1404.6870814640963 A 26.3,26.3 0.0 0,0 491.7301058738669,1404.9070814640963 C 483.5201058738669,1405.9070814640963 483.2001058738669,1406.3070814640964 480.9801058738669,1414.0770814640964 A 176.74,176.74 0.0 0,1 467.9101058738669,1447.8770814640964 C 461.6601058738669,1459.8770814640964 455.9101058738669,1471.9970814640963 449.31010587386686,1483.8770814640964 C 440.5401058738669,1499.7270814640963 428.58010587386684,1511.1570814640963 410.88010587386685,1516.0570814640964 C 396.05010587386687,1520.1670814640963 382.02010587386684,1526.5270814640965 367.4801058738669,1531.4270814640963 A 47.94,47.94 0.0 0,1 354.5301058738669,1534.1070814640964 C 339.6301058738669,1534.8870814640964 324.7601058738669,1535.2070814640963 310.11010587386687,1531.5270814640965 C 306.2801058738669,1530.5270814640965 302.3301058738669,1530.0870814640964 298.45010587386685,1529.3070814640964 C 278.36010587386687,1525.3070814640964 262.64010587386684,1507.3070814640964 268.7201058738668,1482.1470814640963 C 270.7201058738668,1473.7170814640963 273.90010587386683,1465.6770814640963 279.1801058738668,1458.7070814640963 C 281.4601058738668,1455.7070814640963 281.4801058738668,1453.5570814640962 279.4501058738668,1450.1070814640964 C 266.3101058738668,1427.8770814640964 269.5201058738668,1395.6470814640963 286.3701058738668,1376.2170814640963 A 52.26,52.26 0.0 0,1 296.3001058738668,1367.4870814640963 A 226.93,226.93 0.0 0,0 315.8101058738668,1352.7670814640962 C 322.8901058738668,1346.7070814640963 326.9301058738668,1339.2370814640963 327.2201058738668,1329.7670814640962 A 77.35,77.35 0.0 0,0 324.64010587386684,1305.5770814640962 C 323.08010587386684,1300.2170814640963 321.52010587386684,1294.8470814640962 319.80010587386687,1289.5770814640962 C 315.8501058738669,1277.3770814640961 312.5201058738669,1265.0570814640962 311.05010587386687,1252.2570814640962 C 310.1701058738669,1244.6170814640961 307.74010587386687,1237.2570814640962 305.7701058738669,1229.8470814640962 C 300.4601058738669,1209.8470814640962 296.7701058738669,1189.437081464096 293.1601058738669,1169.0270814640962 C 292.3501058738669,1164.4470814640963 291.06010587386686,1159.9570814640963 290.24010587386687,1155.3770814640961 C 287.1601058738669,1138.3170814640962 277.2901058738669,1125.687081464096 263.8401058738669,1115.667081464096 A 99.35,99.35 0.0 0,1 244.84010587386692,1097.287081464096 A 153.61,153.61 0.0 0,0 224.26010587386693,1076.437081464096 C 209.26010587386693,1063.437081464096 196.13010587386694,1048.6070814640962 181.51010587386693,1035.257081464096 C 177.36010587386693,1031.467081464096 173.12010587386695,1027.917081464096 167.85010587386694,1025.747081464096 C 160.58010587386693,1022.747081464096 155.13010587386694,1017.267081464096 149.41010587386694,1012.1370814640961 A 146.38,146.38 0.0 0,1 122.04010587386693,979.6970814640961 A 150.79,150.79 0.0 0,0 107.89010587386693,959.5870814640962 A 108.9,108.9 0.0 0,1 87.75010587386693,925.517081464096 A 48.73,48.73 0.0 0,0 78.07010587386694,909.517081464096 A 80.51,80.51 0.0 0,1 62.82010587386693,884.6170814640961 C 51.88010587386693,856.4270814640961 39.97010587386693,828.6170814640961 31.120105873866933,799.6170814640961 A 180.24,180.24 0.0 0,1 25.890105873866933,776.4470814640961 Q 23.000105873866996,758.8770814640964 19.020105873866996,741.5170814640965 A 297.11,297.11 0.0 0,1 12.700105873866994,697.3170814640964 A 80.93,80.93 0.0 0,0 7.360105873866995,673.5670814640964 C 2.080105873866995,660.1670814640963 0.1501058738669949,646.2770814640965 0.050105873866994895,631.8870814640964 C -0.07989412613300512,613.7170814640965 -0.13989412613300511,595.5970814640964 2.3101058738669944,577.5270814640965 A 105.92,105.92 0.0 0,1 5.890105873866995,559.7770814640965 A 78.57,78.57 0.0 0,0 9.890105873866995,534.3170814640964 C 9.390105873866995,513.0670814640964 14.690105873866996,493.31708146409636 24.740105873866998,474.70708146409635 A 160.18,160.18 0.0 0,0 39.920105873866994,432.82708146409635 C 44.25010587386699,413.2370814640964 52.800105873867,396.05708146409637 67.440105873867,382.03708146409633 C 73.330105873867,376.40708146409634 78.32010587386699,369.90708146409634 83.220105873867,363.39708146409635 A 217.53,217.53 0.0 0,1 114.600105873867,329.7370814640963 C 125.04010587386699,320.7370814640963 134.440105873867,310.7370814640963 141.86010587386698,299.0170814640963 C 151.93010587386698,283.1470814640963 165.93010587386698,272.7770814640963 184.11010587386698,267.9070814640963 C 192.00010587386697,265.79708146409627 199.320105873867,262.1570814640963 206.68010587386698,258.6470814640963 C 209.83010587386698,257.1470814640963 210.96010587386698,255.6470814640963 209.07010587386696,252.27708146409628 C 204.81010587386697,244.7970814640963 201.41010587386697,236.80708146409629 196.07010587386696,229.96708146409628 C 182.89010587386696,212.96708146409628 172.32010587386696,194.3370814640963 162.54010587386696,175.2670814640963 A 150.36,150.36 0.0 0,1 146.09010587386697,112.9670814640963 A 272.92,272.92 0.0 0,1 148.46010587386698,60.0670814640963 C 149.46010587386698,53.1770814640963 149.87010587386698,46.257081464096295 152.30010587386698,39.5870814640963 C 157.21010587386698,26.0670814640963 167.90010587386698,17.9970814640963 182.30010587386698,17.5870814640963 A 49.37,49.37 0.0 0,1 205.30010587386698,22.5870814640963 C 227.760105873867,33.4170814640963 249.450105873867,45.6470814640963 271.03010587386694,58.0870814640963 C 282.88010587386697,64.9170814640963 295.39010587386696,69.4270814640963 309.13010587386697,70.7070814640963 C 324.45010587386696,72.13708146409631 331.88010587386697,68.63708146409631 339.430105873867,55.08708146409631 C 343.170105873867,48.387081464096305 346.71010587386695,41.557081464096306 350.170105873867,34.707081464096305 C 359.840105873867,15.497081464096304 375.64010587386696,5.087081464096304 396.610105873867,1.707081464096305 A 163.39,163.39 0.0 0,1 432.110105873867,0.437081464096305 C 452.540105873867,1.657081464096305 473.110105873867,1.437081464096305 493.110105873867,6.437081464096305 C 496.050105873867,7.167081464096306 498.970105873867,7.937081464096305 501.89010587386696,8.737081464096306 C 516.010105873867,12.647081464096306 529.890105873867,17.217081464096307 544.640105873867,18.737081464096306 C 557.900105873867,20.137081464096305 570.240105873867,25.617081464096305 583.260105873867,28.197081464096307 C 589.440105873867,29.427081464096307 595.620105873867,30.667081464096306 601.930105873867,30.447081464096307 C 632.630105873867,29.337081464096308 649.990105873867,48.957081464096305 653.070105873867,77.3470814640963 C 654.1201058738669,87.0070814640963 657.950105873867,93.96708146409631 665.300105873867,99.7070814640963 C 676.560105873867,108.49708146409631 686.620105873867,118.4270814640963 694.040105873867,130.8170814640963 A 44.87,44.87 0.0 0,0 705.870105873867,143.5170814640963 C 711.650105873867,147.8670814640963 717.2101058738671,152.5170814640963 721.680105873867,158.2370814640963 C 734.900105873867,175.0770814640963 748.070105873867,191.96708146409628 759.680105873867,210.0170814640963 A 59.86,59.86 0.0 0,1 765.630105873867,221.8470814640963 A 82.0,82.0 0.0 0,0 772.9501058738671,236.3170814640963 C 779.5701058738671,247.1870814640963 784.350105873867,258.6270814640963 784.2001058738671,271.7470814640963 C 784.0501058738671,283.9370814640963 788.7701058738671,294.8770814640963 793.9301058738671,305.6170814640963 A 27.66,27.66 0.0 0,0 807.6601058738671,319.0570814640963 C 817.2601058738671,323.3670814640963 826.1301058738671,328.9370814640963 835.220105873867,334.0570814640963 C 846.220105873867,340.3270814640963 858.130105873867,341.5670814640963 870.380105873867,340.4270814640963 C 878.380105873867,339.6870814640963 884.770105873867,335.09708146409633 890.750105873867,330.4270814640963 C 897.240105873867,325.3070814640963 904.010105873867,320.97708146409633 911.860105873867,318.4270814640963 C 917.280105873867,316.6670814640963 921.730105873867,313.27708146409634 926.3201058738671,310.09708146409633 C 932.0501058738671,306.09708146409633 937.6901058738671,301.97708146409633 943.5301058738671,298.14708146409635 C 951.5301058738671,292.87708146409636 960.1501058738671,288.87708146409636 969.7301058738672,287.14708146409635 A 62.89,62.89 0.0 0,0 991.0501058738672,278.78708146409633 A 69.83,69.83 0.0 0,1 1022.1601058738672,269.22708146409633 A 102.53,102.53 0.0 0,0 1046.7301058738672,264.2970814640963 C 1051.580105873867,262.6770814640963 1056.5201058738671,261.2970814640963 1061.4601058738672,259.97708146409633 A 38.64,38.64 0.0 0,1 1079.4601058738672,259.1770814640963 A 53.38,53.38 0.0 0,0 1102.3401058738673,258.6070814640963 C 1121.2201058738674,254.20708146409632 1140.1101058738673,253.75708146409633 1159.0801058738673,258.1170814640963 A 71.41,71.41 0.0 0,0 1174.3301058738673,259.6370814640963 C 1195.6001058738673,259.9470814640963 1216.5701058738673,262.3170814640963 1236.9401058738672,268.9370814640963 A 207.38,207.38 0.0 0,0 1278.5301058738671,277.7570814640963 C 1294.2201058738672,279.47708146409633 1308.860105873867,284.7570814640963 1322.840105873867,291.9470814640963 C 1333.380105873867,297.3970814640963 1344.2401058738672,302.1270814640963 1355.160105873867,306.7770814640963 C 1370.400105873867,313.2670814640963 1382.260105873867,323.86708146409626 1389.670105873867,338.92708146409626 A 61.64,61.64 0.0 0,0 1399.200105873867,352.6470814640963 C 1411.590105873867,366.6470814640963 1421.000105873867,382.17708146409626 1426.0401058738669,400.2770814640963 A 36.67,36.67 0.0 0,0 1429.450105873867,408.66708146409627 A 88.8,88.8 0.0 0,1 1441.3001058738669,447.7270814640963 C 1441.9001058738668,457.29708146409627 1444.3001058738669,466.55708146409626 1447.220105873867,475.66708146409627 A 95.92,95.92 0.0 0,1 1451.740105873867,499.66708146409627 A 86.69,86.69 0.0 0,0 1455.3501058738668,520.2570814640962 C 1458.9601058738667,532.0970814640964 1459.8901058738668,544.4870814640963 1462.5801058738668,556.5270814640962 A 105.62,105.62 0.0 0,0 1472.0901058738668,583.4270814640963 C 1479.0901058738668,596.5870814640962 1486.1801058738668,609.6470814640963 1496.6401058738668,620.5770814640962 A 88.8,88.8 0.0 0,1 1512.0101058738667,642.9570814640963 A 228.31,228.31 0.0 0,0 1536.8601058738666,682.5070814640962 A 216.23,216.23 0.0 0,1 1555.6901058738665,711.8570814640962 C 1564.6901058738665,728.3970814640961 1574.1301058738666,744.7470814640963 1583.4501058738665,761.1470814640961 A 197.12,197.12 0.0 0,1 1596.8901058738666,789.3970814640961 C 1602.6801058738665,804.9070814640961 1609.8901058738666,819.7370814640963 1617.1301058738666,834.6170814640961 A 355.12,355.12 0.0 0,1 1647.5601058738666,930.0670814640962 A 28.0,28.0 0.0 0,1 1648.1701058738665,936.2970814640962 C 1647.5301058738664,946.8470814640962 1649.1701058738665,957.1970814640963 1650.5101058738665,967.5870814640962 A 9.45,9.45 0.0 0,1 1650.6901058738665,968.9770814640963 C 1650.0901058738666,992.1570814640961 1652.6901058738665,1015.4970814640963 1647.2201058738665,1038.427081464096 C 1644.4501058738665,1050.017081464096 1639.9901058738665,1061.0870814640962 1635.2201058738665,1071.8770814640961 C 1632.4501058738665,1078.0670814640962 1627.0501058738664,1083.0970814640962 1622.7401058738665,1088.5770814640962 C 1616.7401058738665,1096.2570814640962 1609.7401058738665,1103.2170814640963 1604.3301058738664,1111.3970814640961 C 1602.1501058738663,1114.697081464096 1599.9401058738663,1117.997081464096 1598.0801058738664,1121.477081464096 A 69.92,69.92 0.0 0,1 1587.5501058738664,1136.197081464096 C 1585.0201058738664,1138.927081464096 1582.6301058738663,1141.797081464096 1580.3501058738664,1144.727081464096 C 1576.2501058738665,1150.017081464096 1574.5101058738665,1155.827081464096 1574.1401058738663,1162.727081464096 C 1573.1401058738663,1180.997081464096 1574.7301058738663,1198.997081464096 1577.5901058738664,1216.967081464096 A 132.27,132.27 0.0 0,0 1583.7201058738665,1239.8670814640961 A 188.64,188.64 0.0 0,1 1591.7201058738665,1270.927081464096 A 76.34,76.34 0.0 0,1 1591.7201058738665,1298.017081464096 C 1589.3701058738666,1310.387081464096 1589.0201058738664,1323.017081464096 1587.4701058738665,1335.447081464096 C 1585.1801058738665,1353.917081464096 1580.7701058738664,1372.067081464096 1579.1501058738666,1390.667081464096 C 1578.4301058738665,1399.007081464096 1577.2901058738667,1407.3170814640962 1576.1501058738666,1415.6070814640962 A 178.0,178.0 0.0 0,1 1566.7401058738665,1452.7670814640962 A 169.65,169.65 0.0 0,0 1557.4901058738665,1492.0770814640962 C 1554.4901058738665,1517.8970814640961 1544.1801058738665,1540.2870814640962 1525.4001058738666,1558.6470814640961 C 1516.4001058738666,1567.477081464096 1505.4001058738666,1573.0570814640962 1494.2401058738665,1578.2770814640962 C 1482.1401058738666,1583.9570814640963 1471.3001058738664,1591.3370814640962 1460.4301058738665,1599.0070814640962 C 1441.8801058738666,1612.1170814640961 1420.9501058738665,1616.0070814640962 1398.6301058738666,1611.5470814640962 A 80.71,80.71 0.0 0,1 1375.0701058738666,1603.0670814640962 C 1369.7201058738667,1600.0670814640962 1364.0101058738667,1598.7270814640963 1357.8401058738666,1598.0670814640962 C 1339.2801058738667,1596.0670814640962 1327.3101058738666,1585.3270814640962 1321.0001058738667,1568.157081464096 C 1314.5901058738666,1550.697081464096 1319.2601058738667,1535.6270814640961 1332.0901058738666,1522.8670814640961 C 1338.9301058738665,1516.0570814640962 1347.8001058738666,1513.0370814640962 1357.1601058738665,1511.6270814640961 A 51.1,51.1 0.0 0,0 1369.8901058738666,1508.3170814640962 A 17.42,17.42 0.0 0,0 1379.8901058738666,1497.3170814640962 C 1383.6701058738665,1485.9770814640963 1384.5601058738666,1474.0670814640962 1386.8901058738666,1462.427081464096 C 1387.3101058738666,1460.297081464096 1386.2901058738667,1459.3670814640961 1384.2201058738665,1459.537081464096 C 1380.9701058738665,1459.797081464096 1377.7301058738665,1460.057081464096 1374.4901058738665,1460.427081464096 C 1361.3201058738664,1461.8970814640961 1349.8501058738664,1456.947081464096 1338.6301058738666,1451.027081464096 A 5.48,5.48 0.0 0,1 1336.9701058738665,1449.757081464096 C 1323.2101058738665,1432.977081464096 1315.9701058738665,1411.847081464096 1334.1001058738666,1393.497081464096 A 151.07,151.07 0.0 0,1 1352.9301058738665,1376.8770814640961 C 1358.3901058738666,1372.937081464096 1358.6401058738666,1371.747081464096 1354.8301058738666,1366.1070814640962 C 1349.6901058738665,1358.5070814640962 1343.4701058738667,1351.8470814640962 1335.3101058738666,1347.467081464096 C 1326.6201058738666,1342.807081464096 1318.5201058738667,1337.467081464096 1311.9001058738666,1330.087081464096 C 1308.4401058738665,1326.217081464096 1303.7501058738665,1323.9470814640958 1299.2801058738667,1321.4470814640958 Q 1283.7301058738667,1312.7770814640958 1268.2801058738667,1303.9770814640958 A 55.18,55.18 0.0 0,1 1261.7501058738667,1299.9270814640959 C 1244.1901058738667,1286.4970814640958 1225.4501058738667,1274.5170814640958 1208.5001058738667,1260.4570814640958 C 1179.9101058738668,1236.7570814640958 1154.9901058738667,1209.377081464096 1136.3001058738666,1176.9170814640959 Q 1125.3001058738666,1157.9170814640959 1115.8101058738666,1138.0170814640958 C 1106.5801058738666,1118.6870814640959 1107.5601058738666,1120.5070814640958 1087.0901058738666,1115.9470814640958 A 39.59,39.59 0.0 0,0 1079.4801058738667,1115.107081464096 C 1077.1201058738668,1115.017081464096 1074.7901058738667,1115.317081464096 1072.4701058738667,1115.517081464096 L 1072.470105873867,1115.5170814640965"/>
</svg>
