<?xml version="1.0" ?>
<svg xmlns="http://www.w3.org/2000/svg" xmlns:ev="http://www.w3.org/2001/xml-events" xmlns:xlink="http://www.w3.org/1999/xlink" baseProfile="full" data-name="Layer 1" height="1641" transform="scale(0.06093845216331505 0.06093845216331505) translate(-836.0 -820.5)" version="1.1" viewBox="0 0 1672 1641" width="1672">
	<defs/>
	<path d="M 346.566175370984,1579.2217469164113 C 337.026175370984,1581.4417469164114 329.446175370984,1582.6417469164114 322.246175370984,1585.0117469164113 C 310.756175370984,1588.8017469164113 299.15617537098404,1588.3817469164112 287.54617537098403,1586.9417469164114 C 277.28617537098404,1585.6717469164114 267.15617537098404,1583.3817469164114 256.946175370984,1581.6817469164114 A 49.84,49.84 0.0 0,1 234.00617537098398,1571.2917469164113 C 219.59617537098399,1559.9717469164113 217.82617537098398,1542.0817469164112 230.45617537098397,1528.9017469164112 A 233.62,233.62 0.0 0,1 250.45617537098397,1510.7117469164111 A 33.39,33.39 0.0 0,1 272.706175370984,1503.311746916411 C 279.886175370984,1503.431746916411 284.596175370984,1500.251746916411 288.776175370984,1494.831746916411 C 298.206175370984,1482.601746916411 302.566175370984,1468.011746916411 308.326175370984,1454.071746916411 C 309.936175370984,1450.161746916411 310.916175370984,1445.991746916411 312.266175370984,1441.9617469164111 A 39.83,39.83 0.0 0,0 314.086175370984,1424.6917469164111 C 312.886175370984,1413.8617469164112 311.746175370984,1403.041746916411 311.736175370984,1392.1217469164112 A 43.87,43.87 0.0 0,0 310.67617537098397,1382.6417469164112 C 306.06617537098396,1362.2117469164111 304.25617537098395,1341.2217469164111 298.106175370984,1321.0617469164113 C 294.296175370984,1308.5917469164112 295.536175370984,1295.7417469164113 298.416175370984,1283.2117469164114 C 300.416175370984,1274.5117469164113 301.076175370984,1266.0617469164113 299.11617537098397,1257.2117469164114 C 297.11617537098397,1248.2117469164114 295.74617537098396,1238.9517469164114 294.286175370984,1229.7717469164113 C 293.286175370984,1223.2717469164113 290.86617537098397,1217.4717469164113 286.016175370984,1212.9517469164114 C 278.476175370984,1205.9517469164114 274.696175370984,1197.2217469164113 273.016175370984,1187.1517469164114 A 99.91,99.91 0.0 0,0 268.206175370984,1170.3417469164115 A 50.29,50.29 0.0 0,1 266.106175370984,1146.8017469164115 C 266.976175370984,1139.9717469164116 267.526175370984,1133.0717469164115 267.786175370984,1126.1817469164116 C 268.086175370984,1117.8117469164117 264.966175370984,1110.7117469164116 258.916175370984,1104.8117469164117 C 251.68617537098396,1097.8117469164117 243.27617537098396,1092.8117469164117 233.40617537098396,1090.8717469164117 C 213.63617537098395,1087.0417469164117 197.21617537098396,1077.5117469164118 183.61617537098397,1062.8717469164117 C 179.94617537098398,1058.8717469164117 175.28617537098395,1056.2917469164117 170.61617537098397,1053.7317469164116 A 38.18,38.18 0.0 0,1 159.61617537098397,1044.6517469164116 C 150.23617537098397,1033.4117469164116 141.42617537098397,1021.8017469164116 135.13617537098398,1008.4617469164116 A 306.16,306.16 0.0 0,0 108.40617537098399,962.3417469164116 C 103.18617537098399,954.9517469164116 98.68617537098399,947.0417469164116 96.00617537098398,938.3417469164116 C 88.64617537098398,914.5617469164116 76.87617537098399,892.8317469164116 64.69617537098398,871.3417469164116 A 149.22,149.22 0.0 0,1 47.476175370983974,823.7917469164116 A 83.0,83.0 0.0 0,0 40.38617537098397,801.9017469164116 A 98.43,98.43 0.0 0,1 32.16617537098397,777.0317469164116 C 29.24617537098397,761.9317469164116 25.266175370983973,747.0317469164116 23.66617537098397,731.6717469164116 C 22.24617537098397,718.0217469164116 23.22617537098397,704.5917469164116 25.50617537098397,691.2317469164116 C 26.72617537098397,684.0917469164116 24.95617537098397,678.4517469164116 20.806175370983972,672.7017469164116 A 102.36,102.36 0.0 0,1 1.0061753709839896,614.8617469164112 C 0.7961753709839895,608.2217469164112 0.8761753709839895,601.5617469164113 0.39617537098398947,594.9517469164113 C -2.1038246290160103,560.7917469164113 7.4961753709839885,529.2917469164113 21.62617537098399,498.79174691641134 A 97.36,97.36 0.0 0,0 28.98617537098399,477.79174691641134 C 31.87617537098399,464.0017469164113 38.64617537098399,451.95174691641137 46.98617537098399,440.79174691641134 A 377.28,377.28 0.0 0,0 71.216175370984,404.33174691641136 C 76.846175370984,394.6317469164114 84.546175370984,386.51174691641137 92.55617537098401,378.6817469164114 C 98.776175370984,372.6017469164114 104.716175370984,366.2317469164114 111.096175370984,359.6817469164114 A 181.16,181.16 0.0 0,0 80.986175370984,340.4317469164114 C 71.986175370984,335.83174691641136 63.06617537098399,331.1617469164114 54.296175370983995,326.1817469164114 C 40.41617537098399,318.32174691641137 30.296175370983995,307.0917469164114 24.746175370983995,291.9617469164114 C 22.626175370983994,286.2417469164114 19.966175370983994,280.7317469164114 17.486175370983993,275.1517469164114 A 25.48,25.48 0.0 0,1 14.916175370983993,264.4017469164114 C 14.996175370983993,256.5417469164114 18.296175370983992,252.0917469164114 25.916175370983993,249.89174691641142 C 28.456175370983992,249.16174691641143 31.06617537098399,248.66174691641143 33.66617537098399,248.05174691641142 C 34.17617537098399,245.45174691641142 31.99617537098399,244.30174691641142 30.74617537098399,242.79174691641143 C 23.596175370983993,234.11174691641142 18.416175370983993,224.2117469164114 13.186175370983992,214.37174691641144 A 35.3,35.3 0.0 0,1 9.186175370983992,195.10174691641143 C 9.916175370983993,185.19174691641143 18.026175370983992,180.67174691641142 26.696175370983994,185.43174691641144 C 33.28617537098399,189.06174691641144 38.496175370984,194.43174691641144 43.516175370983994,199.95174691641145 C 48.336175370983995,205.25174691641146 53.16617537098399,210.55174691641145 57.876175370983994,215.95174691641145 A 81.55,81.55 0.0 0,0 82.486175370984,234.63174691641146 A 148.35,148.35 0.0 0,0 135.486175370984,250.77174691641147 C 139.656175370984,251.19174691641146 143.896175370984,250.83174691641148 148.486175370984,250.83174691641148 C 148.326175370984,247.54174691641148 145.706175370984,245.83174691641148 143.846175370984,243.9117469164115 C 127.54617537098403,226.79174691641148 110.84617537098403,210.04174691641148 93.37617537098403,194.1217469164115 C 82.14617537098403,183.9117469164115 71.73617537098403,172.9817469164115 63.89617537098402,159.8017469164115 C 59.20617537098402,151.9017469164115 57.976175370984016,143.6117469164115 59.24617537098402,134.5817469164115 C 61.78617537098402,116.64174691641149 69.33617537098402,101.24174691641149 81.35617537098402,87.7917469164115 C 88.94617537098402,79.2917469164115 99.04617537098402,76.7917469164115 109.35617537098402,81.6617469164115 C 113.89617537098403,83.8317469164115 118.17617537098401,86.56174691641151 122.59617537098401,88.9917469164115 C 134.686175370984,95.6417469164115 146.726175370984,102.4017469164115 159.596175370984,107.6117469164115 A 67.69,67.69 0.0 0,1 176.80617537098402,117.4917469164115 C 181.80617537098402,121.5517469164115 187.70617537098403,122.8617469164115 194.02617537098402,122.1317469164115 C 208.26617537098403,120.4717469164115 220.346175370984,114.7117469164115 230.02617537098402,103.8017469164115 C 237.946175370984,94.8617469164115 246.30617537098402,86.31174691641151 254.52617537098402,77.6417469164115 C 258.76617537098406,73.1617469164115 263.58617537098405,69.2417469164115 269.28617537098404,66.95174691641151 C 292.58617537098405,57.58174691641151 313.28617537098404,43.52174691641151 334.866175370984,31.02174691641151 C 355.09617537098404,19.311746916411508 376.866175370984,12.021746916411509 399.71617537098405,7.701746916411508 C 412.71617537098405,5.251746916411508 425.71617537098405,2.3117469164115088 438.91617537098404,0.8417469164115083 C 460.52617537098405,-1.5582530835884916 481.316175370984,0.9617469164115083 500.78617537098404,11.151746916411508 C 505.866175370984,13.811746916411508 511.29617537098403,14.811746916411508 516.786175370984,15.511746916411507 A 79.46,79.46 0.0 0,1 545.276175370984,25.151746916411508 A 28.64,28.64 0.0 0,1 557.556175370984,38.30174691641151 C 563.646175370984,51.30174691641151 570.4861753709839,63.92174691641151 574.626175370984,77.71174691641151 C 576.206175370984,82.97174691641152 579.206175370984,86.45174691641151 584.506175370984,88.19174691641152 C 595.246175370984,91.71174691641151 601.6961753709841,99.19174691641152 604.3261753709841,110.19174691641152 A 48.0,48.0 0.0 0,0 606.4261753709841,117.04174691641151 A 36.67,36.67 0.0 0,1 607.706175370984,141.26174691641154 A 30.69,30.69 0.0 0,0 611.8161753709841,167.85174691641154 C 616.246175370984,174.54174691641154 618.2561753709841,182.46174691641153 622.0061753709841,189.36174691641153 C 631.0061753709841,205.93174691641153 637.8661753709841,223.56174691641155 647.4561753709842,239.82174691641154 C 652.0461753709842,247.60174691641154 656.7261753709842,255.26174691641154 657.0861753709842,264.82174691641154 C 657.2461753709841,269.14174691641153 660.2061753709842,272.70174691641154 662.5861753709842,276.18174691641156 C 668.6861753709842,285.18174691641156 670.1661753709842,294.01174691641154 666.3161753709842,304.73174691641157 C 662.8461753709842,314.3917469164116 664.3961753709842,324.0917469164116 673.9661753709842,330.87174691641155 A 58.76,58.76 0.0 0,1 694.9661753709842,357.20174691641154 C 698.7261753709842,366.33174691641153 707.4861753709841,371.7117469164115 716.9661753709842,374.30174691641156 A 117.6,117.6 0.0 0,1 741.3261753709842,383.87174691641155 A 66.24,66.24 0.0 0,0 763.2261753709842,390.79174691641157 C 770.3061753709842,391.79174691641157 777.3261753709842,393.4117469164116 784.2861753709841,395.10174691641157 C 789.1861753709841,396.29174691641157 793.6061753709841,396.30174691641156 797.8261753709841,393.05174691641156 C 802.046175370984,389.80174691641156 806.7661753709841,389.76174691641154 811.5361753709841,391.05174691641156 A 53.71,53.71 0.0 0,0 833.6061753709841,392.33174691641153 A 35.0,35.0 0.0 0,1 856.6061753709841,396.80174691641156 C 860.4561753709842,398.98174691641157 864.4961753709841,401.0917469164116 869.7061753709842,398.48174691641157 C 867.9961753709841,396.18174691641156 865.7061753709842,395.48174691641157 863.7061753709842,394.7117469164116 C 850.9861753709841,389.8717469164116 840.8761753709841,381.2517469164116 831.2161753709842,372.1217469164116 C 823.6461753709841,364.9617469164116 818.9561753709842,356.2917469164116 818.6061753709841,345.4817469164116 C 818.3661753709841,337.8217469164116 816.8961753709841,330.2517469164116 818.2761753709841,322.4817469164116 C 819.2761753709841,316.9217469164116 821.4061753709841,312.3817469164116 825.7561753709841,308.91174691641163 C 834.8861753709841,301.6217469164116 843.8161753709841,294.0417469164116 853.2961753709841,287.2317469164116 C 865.0361753709841,278.78174691641163 878.6761753709841,275.3117469164116 892.956175370984,274.4317469164116 C 916.0261753709841,272.9917469164116 938.846175370984,269.2117469164116 961.8261753709841,266.9617469164116 C 976.606175370984,265.5117469164116 991.386175370984,263.6317469164116 1006.206175370984,263.2717469164116 C 1025.3461753709842,262.8217469164116 1044.306175370984,265.80174691641156 1063.206175370984,268.54174691641157 C 1070.026175370984,269.54174691641157 1076.826175370984,270.75174691641155 1083.776175370984,270.67174691641156 C 1102.496175370984,270.4717469164116 1120.046175370984,275.23174691641157 1136.596175370984,283.7217469164116 C 1148.876175370984,290.0117469164116 1161.1661753709839,296.3317469164116 1172.866175370984,303.7217469164116 A 61.29,61.29 0.0 0,0 1182.866175370984,308.6517469164116 C 1201.106175370984,315.99174691641156 1217.256175370984,326.42174691641156 1230.036175370984,341.54174691641157 A 246.18,246.18 0.0 0,1 1254.376175370984,375.0217469164116 A 81.84,81.84 0.0 0,0 1260.856175370984,384.0217469164116 C 1262.546175370984,386.1417469164116 1264.6961753709838,387.7717469164116 1267.6961753709838,387.3317469164116 C 1273.2361753709838,386.5117469164116 1276.7761753709838,389.79174691641157 1279.826175370984,393.5617469164116 C 1288.886175370984,404.8117469164116 1296.366175370984,416.9917469164116 1300.286175370984,431.0517469164116 Q 1304.666175370984,446.77174691641164 1308.746175370984,462.5717469164116 C 1311.1361753709841,471.8317469164116 1313.496175370984,481.1117469164116 1317.546175370984,489.8017469164116 C 1323.116175370984,501.8017469164116 1322.856175370984,514.6017469164116 1323.756175370984,527.2717469164115 C 1324.376175370984,536.0217469164115 1325.456175370984,544.6817469164115 1326.916175370984,553.3417469164116 A 25.92,25.92 0.0 0,0 1336.6061753709841,570.1717469164116 C 1361.916175370984,589.8817469164117 1384.6061753709841,612.8917469164116 1412.2761753709842,629.6317469164117 C 1421.5861753709842,635.2517469164117 1429.9561753709843,642.4517469164117 1437.7061753709843,650.0717469164117 C 1455.5261753709842,667.5717469164117 1474.7061753709843,683.5717469164117 1492.8261753709842,700.7317469164117 C 1496.2761753709842,704.0017469164117 1499.186175370984,707.8517469164117 1502.3861753709841,711.3917469164116 C 1505.236175370984,714.5417469164116 1507.956175370984,717.8317469164117 1511.0361753709842,720.7417469164117 C 1538.7161753709843,746.8517469164117 1554.0361753709842,778.6217469164117 1556.0361753709842,816.8217469164117 A 297.0,297.0 0.0 0,1 1554.7261753709843,865.2617469164118 C 1553.4061753709843,877.0217469164118 1554.7261753709843,889.0717469164117 1560.0561753709842,900.2617469164118 C 1567.666175370984,916.3317469164118 1569.6861753709843,933.8317469164118 1572.5461753709842,951.1117469164118 C 1574.7061753709843,964.2017469164118 1576.5461753709842,977.3317469164118 1578.3461753709842,990.4817469164118 C 1579.8361753709842,1001.6817469164118 1580.2761753709842,1012.6217469164118 1575.8761753709841,1023.4017469164118 A 39.47,39.47 0.0 0,0 1573.3861753709841,1042.2017469164118 C 1574.906175370984,1057.9117469164119 1574.476175370984,1073.4617469164118 1571.0861753709842,1088.9317469164118 C 1567.0861753709842,1107.0217469164118 1569.9961753709842,1124.871746916412 1573.5461753709842,1142.6417469164119 A 278.3,278.3 0.0 0,0 1584.3161753709842,1180.111746916412 A 115.41,115.41 0.0 0,1 1590.0461753709842,1209.7317469164118 C 1591.3361753709842,1226.1717469164118 1593.2661753709842,1242.4717469164118 1598.1961753709843,1258.3017469164117 A 85.52,85.52 0.0 0,1 1602.4761753709843,1283.3617469164117 C 1602.5361753709842,1305.8117469164117 1607.8961753709843,1327.0117469164118 1616.7761753709842,1347.4217469164116 C 1622.8461753709842,1361.3517469164117 1624.6961753709843,1376.5717469164117 1630.2061753709843,1390.6817469164116 C 1631.3361753709844,1393.5817469164117 1631.9361753709843,1396.7617469164115 1633.2661753709842,1399.6817469164116 A 235.87,235.87 0.0 0,1 1642.5761753709842,1424.2317469164116 A 194.86,194.86 0.0 0,0 1660.8261753709842,1464.8017469164115 A 32.61,32.61 0.0 0,1 1665.3761753709841,1481.5017469164115 A 64.17,64.17 0.0 0,0 1669.7961753709842,1504.0117469164115 C 1673.416175370984,1513.1817469164116 1671.906175370984,1522.3717469164114 1668.3561753709841,1531.1917469164116 A 164.08,164.08 0.0 0,1 1656.166175370984,1555.3417469164117 A 45.78,45.78 0.0 0,1 1641.646175370984,1569.9017469164116 C 1633.646175370984,1575.0317469164117 1624.896175370984,1576.6817469164116 1615.716175370984,1574.0117469164115 A 17.28,17.28 0.0 0,0 1604.8861753709841,1574.1517469164116 C 1600.8861753709841,1575.4617469164116 1596.6261753709841,1576.0617469164117 1592.486175370984,1577.0117469164115 C 1584.106175370984,1578.9317469164116 1576.066175370984,1577.5917469164115 1568.486175370984,1574.0117469164115 C 1564.066175370984,1571.9017469164116 1559.696175370984,1570.4717469164116 1554.736175370984,1570.7817469164115 A 15.0,15.0 0.0 0,1 1549.266175370984,1569.8817469164114 C 1538.456175370984,1566.3617469164114 1526.216175370984,1549.4217469164114 1526.086175370984,1538.0117469164115 A 24.28,24.28 0.0 0,1 1529.236175370984,1525.8417469164115 A 54.0,54.0 0.0 0,1 1545.096175370984,1508.2217469164116 Q 1548.9561753709838,1505.3917469164116 1552.816175370984,1502.5817469164115 C 1556.086175370984,1500.2217469164116 1557.816175370984,1497.3717469164114 1556.736175370984,1493.0817469164115 C 1556.006175370984,1490.2717469164115 1555.916175370984,1487.3017469164115 1555.396175370984,1484.4317469164114 C 1554.146175370984,1477.4817469164113 1552.3261753709842,1476.1717469164114 1545.0761753709842,1476.8217469164115 C 1541.896175370984,1477.1017469164115 1538.7361753709843,1477.5517469164115 1535.5561753709842,1477.6217469164114 C 1521.2961753709842,1477.9017469164114 1507.156175370984,1475.6217469164114 1492.7661753709842,1476.8017469164115 C 1481.1961753709843,1477.7317469164116 1471.2061753709843,1470.9517469164116 1462.5961753709842,1463.9817469164116 C 1453.2561753709842,1456.4117469164116 1447.0161753709842,1438.2917469164115 1461.8461753709842,1426.5317469164115 A 30.07,30.07 0.0 0,0 1468.8461753709842,1419.0017469164115 C 1473.2961753709842,1411.8917469164116 1478.8461753709842,1405.8717469164114 1486.5861753709842,1402.3617469164114 C 1490.186175370984,1400.7317469164113 1490.0061753709842,1398.2117469164114 1489.196175370984,1395.1417469164114 A 145.42,145.42 0.0 0,0 1479.046175370984,1367.5417469164115 A 119.93,119.93 0.0 0,1 1470.926175370984,1347.6717469164116 C 1467.726175370984,1336.7417469164116 1460.6261753709841,1328.6717469164116 1451.736175370984,1321.9717469164116 C 1451.316175370984,1321.6517469164116 1450.796175370984,1321.4517469164116 1450.396175370984,1321.1217469164117 C 1439.396175370984,1312.0217469164118 1426.746175370984,1306.3817469164117 1413.266175370984,1301.8317469164117 C 1396.166175370984,1296.0617469164117 1379.916175370984,1288.0717469164117 1363.566175370984,1280.4317469164116 A 109.85,109.85 0.0 0,1 1336.946175370984,1263.1517469164116 A 57.19,57.19 0.0 0,0 1315.646175370984,1251.1517469164116 C 1303.1061753709841,1247.2617469164115 1292.006175370984,1240.3517469164117 1280.926175370984,1233.5517469164117 C 1270.526175370984,1227.1517469164116 1260.236175370984,1220.5517469164117 1249.3061753709842,1215.0817469164117 A 72.06,72.06 0.0 0,1 1230.7061753709843,1201.5117469164118 C 1220.9261753709843,1191.7217469164118 1210.3961753709843,1182.8417469164117 1199.7061753709843,1174.0517469164117 C 1186.5361753709842,1163.2117469164118 1175.5961753709844,1150.1617469164116 1164.9961753709842,1136.8317469164117 C 1157.7661753709842,1127.7417469164118 1157.6761753709843,1127.8317469164117 1146.3861753709843,1130.8317469164117 C 1143.3161753709844,1131.6817469164116 1140.3061753709844,1132.7217469164118 1137.2761753709844,1133.6817469164116 A 22.72,22.72 0.0 0,1 1124.6961753709845,1134.1017469164117 C 1118.5261753709844,1132.5517469164117 1112.2261753709845,1131.3417469164117 1106.2261753709845,1129.2717469164118 A 25.33,25.33 0.0 0,0 1090.6361753709846,1129.0217469164118 C 1075.4461753709845,1133.2217469164118 1060.1361753709846,1135.3717469164117 1044.2261753709845,1134.0217469164118 C 1033.1161753709846,1133.1017469164117 1022.0161753709845,1135.5717469164117 1010.9961753709845,1137.2017469164118 C 1000.8161753709845,1138.7017469164118 990.9261753709844,1138.4117469164119 981.1761753709844,1134.8217469164117 A 108.0,108.0 0.0 0,0 961.8861753709845,1130.0317469164117 C 955.5861753709845,1128.9617469164118 949.3961753709845,1127.5817469164117 943.6061753709845,1124.7017469164118 C 935.3961753709845,1120.621746916412 927.7961753709845,1121.5317469164117 920.6061753709845,1127.4517469164118 C 910.4461753709845,1135.861746916412 898.9261753709845,1140.5217469164118 885.4561753709845,1140.0517469164117 A 125.09,125.09 0.0 0,0 849.2061753709845,1144.2617469164118 A 46.76,46.76 0.0 0,1 835.7861753709846,1145.7917469164117 C 812.8461753709845,1144.8917469164116 790.9361753709845,1149.2917469164117 769.7061753709845,1157.7917469164117 C 760.2761753709846,1161.5417469164117 750.4161753709845,1163.6217469164117 740.4161753709845,1165.1617469164116 A 51.61,51.61 0.0 0,0 717.6961753709845,1174.1617469164116 C 708.8561753709845,1180.5017469164115 699.6161753709845,1186.2917469164117 690.7661753709846,1192.6317469164117 C 683.1861753709845,1198.0717469164117 674.1461753709846,1200.7917469164117 666.6461753709846,1206.4817469164116 C 655.4461753709845,1214.9917469164116 645.0061753709846,1224.4817469164116 633.2761753709846,1232.3117469164115 C 629.8661753709846,1234.5917469164115 627.9061753709846,1238.1617469164114 626.7161753709846,1242.0617469164115 C 622.3661753709846,1256.2717469164115 616.5261753709846,1270.2417469164116 614.1761753709847,1284.7717469164115 C 611.8661753709847,1299.0017469164115 605.6961753709846,1312.1817469164116 604.5361753709847,1326.5417469164115 A 8.9,8.9 0.0 0,1 603.6861753709846,1329.6117469164114 C 597.3561753709846,1342.6117469164114 595.8661753709846,1357.1217469164114 590.9061753709847,1370.5517469164115 A 53.38,53.38 0.0 0,0 587.9061753709847,1384.5517469164115 A 38.31,38.31 0.0 0,1 579.5861753709846,1405.7417469164116 C 572.5161753709846,1414.5517469164115 569.4261753709847,1424.5817469164115 567.9761753709846,1435.7417469164116 C 566.4761753709846,1447.2817469164115 563.4461753709846,1458.6217469164117 561.0761753709846,1470.0417469164115 C 560.0761753709846,1474.8717469164114 557.2961753709847,1478.7917469164115 554.4461753709846,1482.6317469164114 C 550.2561753709846,1488.2817469164115 549.3861753709847,1494.2417469164113 550.2161753709846,1501.3617469164114 A 135.91,135.91 0.0 0,0 556.5861753709846,1530.6917469164114 C 559.2861753709847,1538.4217469164114 557.0361753709847,1546.4217469164114 553.7561753709846,1553.9117469164114 C 549.9061753709846,1562.7317469164113 543.8161753709845,1570.2317469164113 539.3461753709846,1578.6717469164114 C 538.2361753709846,1580.7817469164113 536.6861753709846,1582.6717469164114 535.7761753709846,1584.8817469164114 C 527.0461753709845,1605.8817469164114 510.70617537098457,1620.0117469164115 492.58617537098456,1632.5217469164115 C 484.8161753709846,1637.8917469164114 475.6961753709846,1638.6517469164116 466.84617537098455,1640.0417469164115 C 457.5761753709846,1641.5117469164115 448.35617537098454,1641.1817469164116 439.4461753709846,1637.3817469164114 C 433.4461753709846,1634.8117469164115 427.33617537098456,1634.7417469164113 420.8061753709846,1636.5317469164115 C 405.1761753709846,1640.8017469164115 389.89617537098457,1640.5317469164115 375.5061753709846,1631.5317469164115 C 370.58617537098456,1628.4617469164116 364.9161753709846,1626.6317469164114 359.7361753709846,1623.9317469164116 C 352.4661753709846,1620.1517469164116 347.8061753709846,1614.3617469164117 346.8761753709846,1605.9317469164116 A 17.0,17.0 0.0 0,0 346.1261753709846,1602.0317469164115 C 343.6261753709846,1594.9717469164116 342.3661753709846,1588.0317469164115 346.5661753709846,1579.2217469164116 L 346.566175370984,1579.2217469164113"/>
</svg>
