<?xml version="1.0" ?>
<svg xmlns="http://www.w3.org/2000/svg" xmlns:ev="http://www.w3.org/2001/xml-events" xmlns:xlink="http://www.w3.org/1999/xlink" baseProfile="full" data-name="Layer 1" height="1656" transform="scale(0.06134969325153374 0.06134969325153374) translate(-815.0 -828.0)" version="1.1" viewBox="0 0 1630 1656" width="1630">
	<defs/>
	<path d="M 1378.8497609830492,1095.8805718037938 A 72.26,72.26 0.0 0,0 1378.1697609830492,1119.270571803794 A 187.8,187.8 0.0 0,1 1379.529760983049,1160.170571803794 C 1379.119760983049,1165.000571803794 1378.529760983049,1169.820571803794 1377.999760983049,1174.640571803794 A 229.78,229.78 0.0 0,0 1377.869760983049,1220.210571803794 C 1379.549760983049,1237.600571803794 1378.689760983049,1255.030571803794 1378.809760983049,1272.450571803794 C 1378.889760983049,1283.910571803794 1378.669760983049,1295.390571803794 1379.089760983049,1306.840571803794 C 1379.529760983049,1319.0005718037942 1378.639760983049,1331.090571803794 1377.539760983049,1343.150571803794 A 44.54,44.54 0.0 0,1 1363.749760983049,1371.770571803794 C 1354.8797609830492,1380.3405718037939 1346.269760983049,1389.210571803794 1336.239760983049,1396.520571803794 C 1330.779760983049,1400.520571803794 1324.999760983049,1403.410571803794 1318.1797609830492,1404.0805718037939 C 1314.1797609830492,1404.480571803794 1310.499760983049,1406.0805718037939 1306.8597609830492,1407.6305718037938 C 1295.0797609830493,1412.7305718037937 1283.3297609830493,1412.8605718037938 1271.5897609830492,1407.5705718037939 C 1268.1397609830492,1406.010571803794 1264.4497609830491,1405.3205718037939 1260.8297609830493,1404.3605718037938 Q 1247.1497609830492,1400.7305718037937 1245.6197609830492,1386.6405718037938 C 1244.5297609830493,1376.7405718037937 1248.0897609830492,1368.5005718037937 1254.7197609830491,1361.3605718037938 A 153.75,153.75 0.0 0,1 1281.9297609830492,1338.310571803794 C 1291.8497609830492,1331.6405718037938 1297.9297609830492,1322.6305718037938 1301.289760983049,1311.6005718037939 C 1306.539760983049,1294.280571803794 1311.289760983049,1276.750571803794 1312.349760983049,1258.6005718037939 C 1312.959760983049,1248.760571803794 1311.579760983049,1238.810571803794 1309.559760983049,1229.050571803794 C 1307.369760983049,1218.3905718037938 1303.169760983049,1208.440571803794 1299.309760983049,1198.3605718037938 C 1292.599760983049,1180.8605718037938 1288.409760983049,1162.500571803794 1281.099760983049,1145.1905718037938 C 1277.9797609830491,1137.8105718037937 1274.439760983049,1130.9305718037938 1268.749760983049,1125.1005718037939 A 78.16,78.16 0.0 0,1 1258.589760983049,1112.1005718037939 C 1249.769760983049,1098.010571803794 1238.889760983049,1085.550571803794 1228.209760983049,1072.9405718037938 A 689.18,689.18 0.0 0,1 1174.5497609830488,1000.0005718037937 C 1162.8397609830488,981.7905718037937 1149.469760983049,964.7605718037937 1135.3797609830488,948.3905718037937 A 322.16,322.16 0.0 0,1 1090.2997609830488,879.3905718037937 C 1086.1297609830488,870.8805718037937 1081.6097609830488,862.5405718037937 1077.1397609830487,854.1805718037937 C 1073.9997609830486,848.3205718037937 1069.6797609830487,843.3105718037937 1065.4497609830487,838.1805718037937 C 1060.0397609830486,831.6505718037937 1053.0497609830486,829.0905718037936 1045.0097609830486,829.3705718037937 C 1032.0097609830486,829.8205718037938 1019.0097609830487,830.8805718037937 1006.0097609830487,831.3705718037937 C 992.0097609830487,831.9405718037938 978.5397609830487,835.1805718037937 965.2297609830488,839.2805718037937 C 942.0497609830488,846.4205718037937 918.7697609830487,853.1505718037937 895.1797609830488,858.8705718037937 C 873.1797609830488,864.2005718037938 852.7297609830488,873.5405718037937 832.8497609830488,884.2305718037937 C 807.4097609830487,897.9705718037937 781.0497609830488,909.7105718037938 754.2897609830487,920.7105718037938 C 725.9497609830487,932.3605718037937 697.9297609830487,944.8005718037938 669.1297609830488,955.3305718037938 A 245.16,245.16 0.0 0,1 620.5097609830487,967.5805718037938 C 594.9997609830488,971.3605718037937 569.3497609830488,974.2405718037937 543.9597609830488,978.8905718037937 C 538.6997609830488,979.8905718037937 538.3397609830488,979.9505718037937 539.0297609830488,984.6205718037937 C 542.0297609830488,1004.6205718037937 536.8397609830488,1023.1105718037937 529.1797609830488,1041.2105718037938 C 526.8497609830488,1046.6905718037938 524.5197609830489,1052.2105718037938 522.0797609830488,1057.5905718037939 C 516.4097609830488,1070.1605718037938 513.2897609830488,1083.4205718037938 510.9297609830488,1096.9305718037938 C 507.65976098304884,1115.6305718037938 505.9297609830488,1134.5205718037937 502.9297609830488,1153.2505718037937 C 500.0197609830488,1171.7705718037937 495.71976098304884,1190.0505718037937 493.71976098304884,1208.7105718037938 C 491.09976098304884,1233.0405718037937 488.71976098304884,1257.4005718037938 485.85976098304883,1281.7105718037938 C 482.45976098304885,1310.6505718037938 480.71976098304884,1339.7105718037938 480.0497609830488,1368.7905718037937 C 479.65976098304884,1385.4905718037937 479.1397609830488,1402.2505718037937 476.0497609830488,1418.8505718037936 C 474.52976098304885,1426.9905718037937 475.26976098304885,1435.5505718037937 474.9497609830488,1443.9305718037936 C 474.4097609830488,1458.6305718037936 472.0097609830488,1472.8705718037936 464.3797609830488,1485.8005718037934 A 91.46,91.46 0.0 0,1 455.8797609830488,1498.4005718037934 A 58.28,58.28 0.0 0,0 447.2197609830488,1513.1705718037933 C 438.04976098304877,1534.2405718037933 431.0397609830488,1556.0505718037934 424.8797609830488,1578.1705718037933 C 423.5697609830488,1582.8405718037934 421.7797609830488,1587.3705718037934 420.4297609830488,1592.0205718037932 C 416.1197609830488,1607.0205718037932 406.5697609830488,1617.9305718037933 393.91976098304883,1626.3605718037932 C 385.65976098304884,1631.8605718037932 377.41976098304883,1637.3605718037932 369.5697609830488,1643.460571803793 C 360.2697609830488,1650.710571803793 349.2797609830488,1653.9005718037931 337.6997609830488,1655.210571803793 A 28.2,28.2 0.0 0,1 327.85976098304883,1654.480571803793 A 66.07,66.07 0.0 0,0 306.85976098304883,1653.330571803793 A 98.0,98.0 0.0 0,1 266.51976098304885,1647.980571803793 A 219.09,219.09 0.0 0,0 242.51976098304883,1640.720571803793 C 229.69976098304883,1637.8505718037932 224.92976098304882,1630.3505718037932 227.4397609830488,1617.470571803793 A 36.0,36.0 0.0 0,1 234.02976098304882,1603.190571803793 C 235.1597609830488,1601.6205718037932 236.89976098304882,1600.430571803793 237.38976098304883,1597.920571803793 C 234.45976098304882,1597.3605718037932 231.76976098304883,1598.270571803793 229.16976098304883,1598.920571803793 C 209.33976098304882,1604.190571803793 189.86976098304885,1602.8305718037932 170.66976098304883,1595.920571803793 C 166.85976098304883,1594.5505718037932 162.92976098304882,1594.3705718037932 158.93976098304884,1594.3205718037932 C 144.68976098304884,1594.1305718037931 130.93976098304884,1583.3205718037932 127.49976098304884,1569.5405718037932 C 125.42976098304885,1561.1905718037933 127.43976098304884,1553.7905718037932 133.60976098304886,1547.6905718037933 A 122.58,122.58 0.0 0,1 153.37976098304887,1532.2205718037933 A 140.87,140.87 0.0 0,1 181.51976098304888,1517.7105718037933 C 191.1397609830489,1514.2005718037933 198.6097609830489,1508.1805718037933 205.1097609830489,1500.2905718037932 C 215.1097609830489,1488.1505718037931 224.42976098304888,1475.7305718037933 230.4097609830489,1460.9805718037933 C 233.9397609830489,1452.2905718037932 235.6697609830489,1443.2205718037933 236.7797609830489,1434.1005718037932 A 240.0,240.0 0.0 0,0 238.3397609830489,1396.460571803793 C 237.3397609830489,1367.530571803793 239.7997609830489,1338.750571803793 241.6597609830489,1309.920571803793 A 493.56,493.56 0.0 0,0 240.1497609830489,1226.680571803793 C 236.7997609830489,1194.6005718037932 230.6597609830489,1163.050571803793 224.2597609830489,1131.480571803793 C 220.1897609830489,1111.4105718037931 217.92976098304888,1090.970571803793 214.6997609830489,1070.730571803793 C 213.5597609830489,1063.550571803793 212.3197609830489,1056.340571803793 210.4797609830489,1049.320571803793 C 203.7897609830489,1023.770571803793 201.3097609830489,997.6205718037929 200.0397609830489,971.430571803793 C 198.92976098304888,948.580571803793 193.0397609830489,927.1205718037929 184.8897609830489,906.050571803793 C 174.0397609830489,877.870571803793 162.8897609830489,849.800571803793 154.73976098304888,820.660571803793 A 149.45,149.45 0.0 0,1 149.33976098304888,790.780571803793 C 148.20976098304888,774.690571803793 145.51976098304888,758.780571803793 142.8597609830489,742.950571803793 A 305.51,305.51 0.0 0,1 140.73976098304888,657.950571803793 A 171.0,171.0 0.0 0,0 141.79976098304888,625.590571803793 C 139.1397609830489,591.590571803793 143.33976098304888,558.180571803793 151.15976098304887,525.220571803793 C 155.76976098304888,505.78057180379295 152.79976098304886,487.17057180379294 147.38976098304886,468.58057180379296 C 146.45976098304885,465.41057180379295 145.24976098304887,462.320571803793 144.18976098304887,459.190571803793 A 63.88,63.88 0.0 0,1 141.18976098304887,428.570571803793 C 142.78976098304886,417.85057180379295 142.42976098304888,407.02057180379296 141.52976098304887,396.22057180379295 A 10.18,10.18 0.0 0,0 136.40976098304887,387.630571803793 C 128.34976098304887,382.630571803793 120.48976098304888,377.34057180379295 110.95976098304888,375.33057180379296 A 17.29,17.29 0.0 0,0 101.20976098304888,375.59057180379295 C 91.14976098304888,379.250571803793 81.70976098304888,377.59057180379295 72.64976098304888,372.34057180379295 C 69.98976098304888,370.78057180379295 67.27976098304887,369.28057180379295 64.50976098304886,367.93057180379293 C 60.31976098304887,365.93057180379293 59.05976098304887,366.1205718037929 55.68976098304887,369.30057180379293 C 54.56976098304887,370.35057180379295 53.63976098304887,371.61057180379294 52.55976098304887,372.71057180379296 C 46.069760983048866,379.23057180379294 38.00976098304887,379.14057180379297 31.67976098304887,372.380571803793 A 40.23,40.23 0.0 0,1 22.03976098304887,353.71057180379296 C 19.19976098304887,341.71057180379296 16.47976098304887,329.71057180379296 16.03976098304887,317.22057180379295 C 15.649760983048868,306.79057180379294 16.17976098304887,296.49057180379293 19.149760983048868,286.43057180379293 A 35.7,35.7 0.0 0,0 19.60976098304887,266.23057180379294 C 17.219760983048868,257.71057180379296 18.76976098304887,249.6705718037929 22.919760983048867,241.9605718037929 C 26.69976098304887,234.9605718037929 30.919760983048867,228.2605718037929 36.999760983048866,222.9605718037929 C 45.539760983048865,215.5105718037929 46.79976098304886,205.4405718037929 46.08976098304887,195.1305718037929 C 45.65976098304887,188.8705718037929 40.77976098304887,184.6205718037929 36.44976098304887,180.55057180379288 C 24.96976098304922,169.84057180379372 17.86976098304922,156.6405718037937 13.57976098304922,141.71057180379373 A 183.21,183.21 0.0 0,1 8.419760983049219,117.13057180379373 A 288.3,288.3 0.0 0,0 1.2897609830492192,80.86057180379373 C -1.9202390169507808,69.31057180379374 1.0397609830492192,58.31057180379374 8.189760983049219,49.00057180379374 C 18.64976098304922,35.36057180379374 31.86976098304922,25.700571803793736 49.18976098304922,21.780571803793737 C 66.5097609830492,17.86057180379374 83.57976098304923,13.93057180379374 101.10976098304923,11.78057180379374 A 42.75,42.75 0.0 0,0 113.62976098304921,7.870571803793738 C 126.0697609830492,2.180571803793738 139.1997609830492,-0.7994281962062615 152.8797609830492,1.640571803793738 A 96.59,96.59 0.0 0,0 188.9897609830492,1.590571803793738 C 201.8597609830492,-0.929428196206262 214.8297609830492,-0.14942819620626202 227.81976098304918,1.810571803793738 A 238.93,238.93 0.0 0,1 283.22976098304923,16.81057180379374 C 292.58976098304925,20.66057180379374 301.51976098304925,25.52057180379374 311.22976098304923,28.70057180379374 C 320.7397609830492,31.82057180379374 330.41976098304923,34.06057180379374 340.3697609830492,34.230571803793744 C 357.3697609830492,34.510571803793745 371.7097609830492,41.400571803793746 384.3697609830492,51.77057180379374 A 224.09,224.09 0.0 0,0 412.8997609830492,72.03057180379373 C 427.3397609830492,80.51057180379374 438.10976098304917,92.58057180379373 446.8997609830492,106.57057180379374 C 449.4797609830492,110.67057180379373 451.73976098304917,114.97057180379375 454.0097609830492,119.26057180379374 A 121.54,121.54 0.0 0,0 467.5697609830492,140.37057180379375 A 50.8,50.8 0.0 0,1 478.6897609830492,165.44057180379374 A 32.76,32.76 0.0 0,1 476.09976098304924,185.44057180379374 C 470.81976098304926,196.34057180379375 465.3597609830492,207.07057180379374 458.25976098304926,217.05057180379376 C 449.1797609830493,229.80057180379376 439.81976098304926,242.32057180379377 430.44976098304926,254.85057180379377 C 423.89976098304925,263.6105718037938 421.84976098304924,273.9605718037938 426.38976098304926,284.8505718037938 C 438.16976098304923,313.1605718037938 456.68976098304927,335.8505718037938 482.46976098304924,352.50057180379383 A 257.58,257.58 0.0 0,1 516.9697609830492,379.16057180379386 A 129.72,129.72 0.0 0,0 567.6397609830492,407.92057180379385 C 596.9197609830492,416.92057180379385 625.8497609830492,427.15057180379387 653.3797609830492,440.8305718037939 C 661.0697609830493,444.65057180379387 668.4897609830492,449.03057180379386 675.9797609830492,453.2605718037939 C 687.9797609830492,460.0705718037939 700.6297609830492,464.3905718037939 714.7297609830492,465.2605718037939 A 613.53,613.53 0.0 0,0 803.9497609830493,464.0605718037939 C 842.6397609830493,460.6905718037939 880.7697609830492,453.3605718037939 918.7397609830492,445.1905718037939 C 942.0197609830492,440.1905718037939 965.4797609830492,435.9205718037939 989.1297609830492,433.1905718037939 C 1003.7897609830492,431.4805718037939 1018.6497609830492,431.6905718037939 1033.4197609830492,432.2605718037939 C 1073.2997609830493,433.8005718037939 1113.1897609830492,435.1205718037939 1153.009760983049,438.0005718037939 C 1187.009760983049,440.4505718037939 1220.289760983049,446.8505718037939 1253.4597609830491,454.2805718037939 C 1267.2197609830491,457.3605718037939 1281.039760983049,460.2805718037939 1294.9097609830492,462.8005718037939 C 1320.0597609830493,467.4305718037939 1342.6497609830492,478.0005718037939 1364.0497609830493,491.6105718037939 C 1378.0497609830493,500.5105718037939 1391.7697609830493,509.7405718037939 1402.7597609830493,522.3605718037938 C 1431.5697609830493,555.3605718037938 1449.2897609830493,593.0305718037938 1451.9197609830494,637.4805718037939 C 1453.4397609830494,663.0805718037939 1449.9997609830493,688.0505718037939 1446.0797609830495,713.1105718037938 C 1442.7897609830495,734.2305718037939 1438.8097609830495,755.2405718037938 1437.3497609830495,776.6305718037938 A 272.27,272.27 0.0 0,0 1444.1497609830494,858.0705718037939 C 1449.5497609830495,881.0705718037939 1452.9797609830493,904.4205718037939 1458.3997609830494,927.3905718037938 C 1466.9597609830494,963.6205718037938 1480.7397609830493,997.8905718037938 1496.4597609830494,1031.540571803794 C 1509.8897609830494,1060.260571803794 1529.0797609830493,1084.790571803794 1549.1697609830494,1108.8905718037938 C 1566.2697609830493,1129.4005718037938 1584.9097609830494,1148.5105718037937 1602.3097609830495,1168.7305718037937 C 1606.1897609830496,1173.2405718037937 1610.0197609830495,1177.8205718037937 1613.5197609830495,1182.6205718037938 C 1618.1797609830496,1189.010571803794 1619.7897609830495,1196.6805718037938 1621.4297609830496,1204.2005718037938 A 181.2,181.2 0.0 0,1 1625.6697609830496,1246.2005718037938 Q 1624.7697609830495,1293.8505718037939 1627.9897609830496,1341.4105718037938 C 1630.0397609830495,1371.8205718037939 1628.9897609830496,1402.2105718037938 1627.9897609830496,1432.6505718037938 C 1627.4497609830496,1448.4305718037938 1624.7697609830495,1463.2005718037938 1618.6997609830496,1477.540571803794 A 88.57,88.57 0.0 0,1 1595.4497609830496,1510.0905718037939 A 29.58,29.58 0.0 0,1 1576.9197609830496,1517.8405718037939 A 55.87,55.87 0.0 0,0 1558.9197609830496,1521.540571803794 A 69.32,69.32 0.0 0,1 1544.9197609830496,1525.240571803794 C 1537.5797609830497,1526.480571803794 1530.3197609830497,1526.140571803794 1523.5397609830495,1522.940571803794 C 1517.7297609830496,1520.200571803794 1511.6997609830496,1518.160571803794 1505.7097609830496,1515.940571803794 C 1493.7797609830495,1511.500571803794 1490.1197609830497,1504.850571803794 1492.3397609830497,1492.270571803794 C 1495.2397609830498,1475.8805718037938 1503.0697609830497,1462.5705718037939 1516.7797609830498,1452.8805718037938 A 167.77,167.77 0.0 0,1 1533.4997609830498,1442.2105718037938 C 1534.8597609830497,1441.4805718037937 1536.1797609830498,1440.6705718037938 1537.4997609830498,1439.9605718037938 C 1548.4997609830498,1434.3405718037939 1554.2797609830498,1425.3405718037939 1555.0597609830497,1413.1005718037939 C 1556.1697609830496,1395.730571803794 1558.1797609830496,1378.4005718037938 1555.7797609830498,1360.9505718037938 A 187.0,187.0 0.0 0,0 1551.9497609830498,1339.4805718037937 C 1548.8197609830497,1327.4805718037937 1546.4697609830498,1315.4805718037937 1544.5297609830498,1303.2305718037937 C 1541.4397609830498,1283.7905718037937 1536.8597609830497,1264.7405718037937 1527.0297609830498,1247.3505718037936 C 1524.7597609830498,1243.3505718037936 1522.5497609830497,1239.2805718037937 1519.8797609830497,1235.4705718037935 C 1512.2897609830497,1224.6405718037936 1504.5497609830497,1213.8905718037936 1497.3797609830497,1202.7805718037935 C 1481.4597609830496,1178.1105718037934 1460.4897609830496,1158.4005718037934 1437.0097609830498,1141.2905718037935 C 1418.4597609830498,1127.7605718037935 1400.6097609830497,1113.4005718037934 1383.2597609830498,1098.4005718037934 C 1382.0197609830498,1097.3205718037934 1381.1097609830497,1095.9305718037933 1378.8497609830497,1095.8805718037934 L 1378.8497609830492,1095.8805718037938 M 367.1997609830494,1027.550571803794 A 12.92,12.92 0.0 0,0 365.97976098304935,1029.8305718037939 C 362.1897609830493,1042.510571803794 358.60976098304934,1055.230571803794 356.09976098304935,1068.240571803794 C 350.41976098304934,1097.5905718037939 349.6297609830493,1127.380571803794 347.95976098304936,1157.0905718037939 C 346.95976098304936,1174.040571803794 346.84976098304935,1191.0905718037939 344.1797609830494,1207.8605718037938 C 339.5297609830494,1237.0705718037939 337.4397609830494,1266.530571803794 334.9197609830494,1295.9705718037937 C 332.5897609830494,1323.0705718037937 331.6797609830494,1349.9705718037937 334.5597609830494,1377.1405718037938 C 337.26976098304937,1402.7405718037937 332.8197609830494,1427.1405718037938 318.9697609830494,1449.4605718037938 C 314.7397609830494,1456.2805718037937 312.9697609830494,1464.0705718037937 312.4997609830494,1472.1405718037938 C 312.0997609830494,1479.6305718037938 311.7497609830494,1487.1405718037938 310.9897609830494,1494.5805718037939 C 309.7197609830494,1507.1005718037939 308.0697609830494,1519.5805718037939 303.1697609830494,1531.300571803794 C 300.6897609830494,1537.190571803794 297.9597609830494,1542.960571803794 295.7097609830494,1548.950571803794 A 94.28,94.28 0.0 0,1 287.8897609830494,1564.950571803794 C 287.25976098304943,1565.950571803794 285.8897609830494,1566.840571803794 286.6497609830494,1568.440571803794 C 288.2697609830494,1568.900571803794 289.0397609830494,1567.590571803794 289.7897609830494,1566.710571803794 C 294.7897609830494,1560.940571803794 300.9597609830494,1556.710571803794 307.25976098304943,1552.710571803794 C 317.17976098304945,1546.290571803794 325.4697609830494,1538.110571803794 332.81976098304943,1528.940571803794 A 53.88,53.88 0.0 0,0 342.1497609830494,1512.280571803794 C 349.2697609830494,1490.810571803794 352.8997609830494,1468.6505718037938 354.62976098304944,1446.170571803794 C 355.2797609830494,1437.600571803794 355.1397609830494,1428.980571803794 355.7097609830494,1420.400571803794 C 357.43976098304944,1394.220571803794 360.5997609830494,1368.180571803794 363.3997609830494,1342.100571803794 C 365.18976098304944,1325.460571803794 366.9797609830494,1308.7605718037942 366.3997609830494,1291.950571803794 C 366.05976098304944,1282.460571803794 366.3997609830494,1272.950571803794 366.99976098304944,1263.530571803794 C 368.5197609830494,1237.780571803794 370.47976098304946,1212.050571803794 371.73976098304945,1186.290571803794 C 373.06976098304943,1158.990571803794 374.2097609830495,1131.670571803794 376.25976098304943,1104.4005718037938 A 168.4,168.4 0.0 0,0 377.0297609830494,1083.9405718037938 C 376.2097609830494,1066.0205718037937 372.8597609830494,1048.4905718037937 369.1097609830494,1031.0105718037937 C 368.8197609830494,1029.8005718037937 368.7097609830494,1028.4105718037938 367.1997609830494,1027.5505718037937 L 367.1997609830494,1027.550571803794"/>
</svg>
