<?xml version="1.0" ?>
<svg xmlns="http://www.w3.org/2000/svg" xmlns:ev="http://www.w3.org/2001/xml-events" xmlns:xlink="http://www.w3.org/1999/xlink" baseProfile="full" data-name="Layer 1" height="1283" transform="scale(0.0779423226812159 0.0779423226812159) translate(-871.5 -641.5)" version="1.1" viewBox="0 0 1743 1283" width="1743">
	<defs/>
	<path d="M 1599.5700337109158,1086.008716395609 C 1603.5700337109158,1110.6787163956092 1599.220033710916,1133.308716395609 1596.0300337109159,1156.008716395609 C 1594.8100337109158,1164.628716395609 1591.5300337109159,1172.7087163956091 1587.430033710916,1180.4887163956091 A 37.29,37.29 0.0 0,1 1563.960033710916,1199.578716395609 C 1552.8100337109158,1202.858716395609 1541.490033710916,1205.308716395609 1529.740033710916,1204.7187163956091 A 39.46,39.46 0.0 0,0 1518.970033710916,1205.838716395609 C 1505.250033710916,1208.918716395609 1491.670033710916,1208.838716395609 1478.360033710916,1203.838716395609 C 1475.360033710916,1202.708716395609 1472.210033710916,1202.668716395609 1469.130033710916,1202.118716395609 C 1466.050033710916,1201.568716395609 1462.930033710916,1201.268716395609 1459.960033710916,1200.118716395609 C 1451.230033710916,1196.668716395609 1447.8100337109158,1191.488716395609 1448.750033710916,1182.188716395609 A 34.47,34.47 0.0 0,1 1460.750033710916,1158.958716395609 A 119.67,119.67 0.0 0,1 1483.470033710916,1143.5587163956088 C 1491.970033710916,1139.0287163956089 1500.710033710916,1134.978716395609 1508.150033710916,1128.5587163956088 C 1514.750033710916,1122.8487163956088 1518.150033710916,1115.738716395609 1519.7700337109159,1107.488716395609 C 1522.6000337109158,1093.128716395609 1520.220033710916,1079.0387163956088 1516.7700337109159,1065.198716395609 C 1512.6400337109158,1048.5087163956089 1506.6000337109158,1032.488716395609 1497.160033710916,1017.9387163956089 C 1485.680033710916,1000.2287163956089 1470.630033710916,986.008716395609 1453.250033710916,974.3487163956089 Q 1432.8200337109158,960.6387163956089 1411.8300337109158,947.7287163956089 C 1377.5400337109158,926.7287163956089 1345.5100337109159,902.7287163956089 1318.3700337109158,872.7287163956089 A 270.83,270.83 0.0 0,1 1280.1600337109157,817.4587163956089 C 1276.0900337109158,809.788716395609 1271.9900337109157,802.1287163956089 1267.9700337109157,794.4587163956089 C 1262.9700337109157,784.908716395609 1255.6900337109157,777.168716395609 1248.3900337109158,769.4587163956089 C 1242.3900337109158,763.148716395609 1236.2600337109156,757.1087163956089 1228.3900337109158,752.8887163956089 C 1222.9900337109157,749.9787163956089 1217.6200337109158,747.5787163956089 1211.4800337109157,746.9687163956089 C 1206.2000337109157,746.4387163956089 1200.9400337109157,745.658716395609 1195.6600337109157,745.0587163956089 C 1178.8200337109158,743.168716395609 1162.9000337109157,746.9787163956089 1147.8400337109158,753.998716395609 C 1118.3200337109158,767.758716395609 1088.990033710916,781.948716395609 1059.6800337109157,796.168716395609 C 1047.5000337109157,802.0787163956089 1036.2200337109157,809.5987163956089 1025.0200337109156,817.168716395609 A 162.69,162.69 0.0 0,1 985.0200337109156,837.248716395609 A 94.13,94.13 0.0 0,1 955.0900337109157,841.868716395609 C 928.1600337109157,841.788716395609 902.4100337109157,847.578716395609 877.0100337109156,855.778716395609 C 859.7900337109156,861.3387163956089 842.6500337109156,867.178716395609 825.2400337109157,872.098716395609 C 801.6700337109156,878.768716395609 777.4900337109157,881.658716395609 752.9800337109157,881.868716395609 C 742.5900337109157,881.948716395609 732.2100337109157,882.308716395609 721.8400337109157,882.708716395609 C 714.4500337109157,882.988716395609 714.3100337109157,883.258716395609 713.5600337109157,890.3987163956091 C 711.3300337109157,911.5287163956091 708.5100337109158,932.5087163956091 703.0200337109158,953.1487163956091 C 698.4800337109158,970.208716395609 697.9400337109157,987.9787163956091 696.3700337109158,1005.5287163956091 C 694.4600337109158,1026.6787163956092 695.3700337109158,1048.008716395609 692.0900337109158,1069.088716395609 C 689.9800337109158,1082.678716395609 687.5200337109158,1096.198716395609 684.8300337109158,1109.698716395609 C 681.1900337109158,1127.978716395609 681.5700337109158,1146.698716395609 678.9700337109158,1165.128716395609 C 675.9100337109159,1186.888716395609 673.9700337109158,1208.768716395609 672.0400337109158,1230.638716395609 C 671.3800337109159,1237.938716395609 668.6600337109159,1244.638716395609 666.1300337109159,1251.468716395609 A 11.41,11.41 0.0 0,1 662.3800337109159,1256.668716395609 C 651.5400337109158,1265.178716395609 639.3800337109159,1268.7687163956089 625.7500337109159,1266.188716395609 C 618.7500337109159,1264.868716395609 611.8700337109159,1265.5087163956089 604.8600337109159,1265.9987163956089 C 588.5000337109159,1267.1187163956088 572.0700337109159,1268.3287163956088 555.8600337109159,1264.3587163956088 A 19.48,19.48 0.0 0,0 545.8600337109159,1264.6487163956087 C 538.4100337109159,1266.6487163956087 530.8600337109159,1268.3387163956088 523.0400337109158,1268.0787163956088 C 508.13003371091577,1267.5687163956088 500.6500337109158,1258.5587163956088 502.9800337109158,1243.738716395609 C 503.7300337109158,1238.968716395609 504.5000337109158,1234.198716395609 505.4500337109158,1229.468716395609 C 506.40003371091586,1224.738716395609 509.8300337109158,1221.0387163956088 511.1600337109158,1216.5387163956088 A 4.73,4.73 0.0 0,0 507.3000337109158,1216.0887163956088 A 98.43,98.43 0.0 0,1 460.0200337109158,1213.738716395609 C 451.5400337109158,1211.2887163956088 443.1900337109158,1210.0187163956089 434.3600337109158,1211.628716395609 A 40.05,40.05 0.0 0,1 415.70003371091576,1210.538716395609 C 402.0000337109158,1206.4687163956091 396.70003371091576,1195.2187163956091 402.45003371091576,1182.268716395609 C 406.95003371091576,1172.1987163956092 413.2400337109158,1163.4187163956092 422.13003371091577,1156.6987163956092 C 427.52003371091575,1152.6287163956092 432.8700337109158,1148.4687163956091 438.4800337109158,1144.6987163956092 C 446.9700337109158,1138.9887163956091 454.1000337109158,1131.798716395609 461.2700337109158,1124.6187163956092 A 28.39,28.39 0.0 0,0 469.2200337109158,1109.6187163956092 A 743.68,743.68 0.0 0,0 480.3600337109158,1029.3287163956093 C 481.0600337109158,1021.4087163956093 482.20003371091576,1013.4987163956092 483.57003371091577,1005.6587163956093 C 485.70003371091576,993.3987163956093 485.4300337109158,981.1287163956093 484.22003371091574,968.8387163956093 A 154.79,154.79 0.0 0,1 483.40003371091575,951.4887163956092 C 483.79003371091574,922.7487163956092 482.84003371091575,894.0287163956092 481.88003371091577,865.3087163956093 A 140.51,140.51 0.0 0,0 474.03003371091575,824.9187163956093 C 469.38003371091577,811.1987163956093 465.19003371091577,797.3487163956092 460.88003371091577,783.5387163956093 A 80.26,80.26 0.0 0,0 452.2300337109158,764.4887163956093 C 445.2800337109158,753.4887163956093 440.3500337109158,741.2887163956093 431.9300337109158,731.1287163956093 A 167.63,167.63 0.0 0,1 399.4700337109158,668.6087163956093 A 97.41,97.41 0.0 0,0 395.9200337109158,657.6087163956093 C 387.3600337109158,636.9087163956093 382.6000337109158,615.3287163956094 380.3300337109158,593.1187163956093 A 209.81,209.81 0.0 0,0 364.1300337109158,531.7487163956093 A 552.11,552.11 0.0 0,1 333.73003371091585,439.0087163956093 A 355.46,355.46 0.0 0,0 316.58003371091587,385.2687163956093 A 39.46,39.46 0.0 0,0 313.7000337109159,379.43871639560933 C 297.0500337109159,352.03871639560936 277.21003371091587,327.24871639560934 253.39003371091587,305.6987163956093 A 48.56,48.56 0.0 0,0 237.37003371091586,296.0087163956093 C 213.57003371091585,287.3287163956093 189.75003371091586,278.47871639560935 164.60003371091585,274.54871639560935 C 147.86003371091584,271.93871639560933 131.30003371091584,268.77871639560937 115.13003371091587,263.78871639560936 C 94.53003371091587,257.41871639560935 74.60003371091587,249.37871639560933 57.08003371091586,236.53871639560933 A 103.17,103.17 0.0 0,1 27.210033710915866,202.53871639560933 A 146.49,146.49 0.0 0,1 18.410033710915865,181.90871639560933 C 14.240033710915863,170.32871639560932 10.030033710915863,158.78871639560933 4.6500337109158645,147.67871639560934 C -0.8499662890841355,136.32871639560935 -1.3499662890841355,124.42871639560936 2.5100337109158644,112.41871639560937 C 5.010033710915864,104.61871639560937 10.020033710915865,99.88871639560936 18.510033710915867,98.72871639560937 C 30.720033710915867,97.05871639560937 42.96003371091586,95.60871639560936 55.27003371091586,95.43871639560936 C 79.47003371091587,95.09871639560936 103.41003371091587,91.90871639560936 127.38003371091587,89.05871639560937 C 143.95003371091585,87.05871639560937 159.00003371091586,80.75871639560937 172.67003371091585,71.05871639560937 C 185.48003371091585,61.98871639560936 198.48003371091585,53.178716395609364 209.67003371091585,42.00871639560936 A 42.23,42.23 0.0 0,0 218.67003371091585,29.87871639560936 C 222.55003371091584,21.40871639560936 229.17003371091585,16.21871639560936 238.27003371091584,14.228716395609359 C 242.51003371091585,13.308716395609359 246.75003371091583,12.348716395609358 251.04003371091585,11.658716395609359 C 258.67003371091585,10.438716395609358 266.29003371091585,9.148716395609359 273.60003371091585,6.548716395609358 A 45.0,45.0 0.0 0,1 290.66003371091585,3.8087163956093586 C 308.11003371091584,4.588716395609358 325.3900337109159,2.8787163956093584 342.66003371091585,0.6287163956093583 C 357.06003371091583,-1.2612836043906417 370.33003371091587,1.0187163956093586 382.9400337109159,8.708716395609358 C 393.33003371091587,15.038716395609358 405.1000337109159,18.358716395609356 417.10003371091585,20.098716395609358 C 435.71003371091587,22.78871639560936 448.34003371091586,33.64871639560936 457.10003371091585,49.22871639560936 C 463.17003371091585,59.99871639560936 469.58003371091587,70.35871639560936 477.3900337109159,79.96871639560936 C 483.48003371091585,87.46871639560936 487.71003371091587,96.25871639560937 492.3000337109159,104.74871639560936 C 502.5200337109159,123.64871639560936 511.8700337109159,143.00871639560935 522.8500337109159,161.49871639560936 C 528.290033710916,170.65871639560936 534.7500337109159,179.08871639560937 541.3300337109159,187.41871639560938 A 30.11,30.11 0.0 0,0 546.9500337109159,193.00871639560938 A 149.0,149.0 0.0 0,1 574.680033710916,219.36871639560937 C 588.1000337109159,236.19871639560935 603.150033710916,251.60871639560938 618.260033710916,266.8287163956094 C 633.930033710916,282.6187163956094 652.710033710916,294.7687163956094 671.410033710916,306.8287163956094 C 691.150033710916,319.5687163956094 712.240033710916,329.7387163956094 733.480033710916,339.5787163956094 C 749.720033710916,347.08871639560937 765.280033710916,355.83871639560937 780.890033710916,364.5187163956094 C 796.080033710916,372.9587163956094 811.380033710916,381.21871639560936 827.590033710916,387.58871639560937 C 840.650033710916,392.71871639560936 854.230033710916,396.14871639560937 867.740033710916,399.78871639560936 C 873.360033710916,401.30871639560934 879.170033710916,401.46871639560936 885.000033710916,401.31871639560933 C 925.800033710916,400.2587163956093 966.610033710916,399.31871639560933 1007.410033710916,400.0887163956093 C 1024.480033710916,400.3987163956093 1040.990033710916,396.81871639560933 1057.730033710916,394.8387163956093 C 1075.000033710916,392.7787163956093 1091.7900337109158,388.0487163956093 1108.980033710916,385.4187163956093 C 1134.640033710916,381.4887163956093 1160.450033710916,380.8487163956093 1186.2800337109159,381.0287163956093 Q 1243.1500337109157,381.4287163956093 1299.950033710916,384.0887163956093 C 1326.490033710916,385.31871639560933 1352.840033710916,388.7987163956093 1379.220033710916,391.8387163956093 C 1386.650033710916,392.6987163956093 1394.140033710916,393.0487163956093 1401.5800337109158,393.8387163956093 C 1404.5200337109159,394.1487163956093 1405.7900337109158,392.9687163956093 1406.9500337109157,390.3587163956093 A 128.28,128.28 0.0 0,0 1417.9500337109157,341.2187163956093 C 1418.2600337109156,329.8987163956093 1417.1100337109158,318.4887163956093 1419.5600337109156,307.2787163956093 C 1421.0000337109157,300.68871639560933 1422.7800337109156,294.1687163956093 1424.4100337109155,287.6087163956093 C 1425.1700337109155,284.6087163956093 1426.2000337109155,281.6087163956093 1426.6700337109155,278.4887163956093 C 1428.6000337109156,265.6187163956093 1421.7300337109154,256.8787163956093 1408.6700337109155,255.81871639560924 C 1398.3800337109155,254.98871639560923 1388.5800337109156,257.94871639560927 1378.7600337109154,260.4387163956093 C 1361.5100337109154,264.8187163956093 1345.9700337109155,273.14871639560926 1330.5000337109154,281.6187163956093 A 197.87,197.87 0.0 0,1 1289.2100337109155,299.00871639560927 A 41.25,41.25 0.0 0,1 1273.4300337109155,300.25871639560927 C 1266.2900337109154,299.4887163956093 1261.3400337109156,295.6887163956093 1258.5700337109156,289.15871639560925 C 1256.1600337109155,283.48871639560923 1255.1700337109155,277.63871639560926 1256.6200337109155,271.47871639560924 A 50.86,50.86 0.0 0,1 1260.4900337109154,259.8187163956092 C 1270.4900337109154,240.16871639560918 1284.1000337109153,223.5687163956092 1302.0500337109154,210.4387163956092 C 1332.2700337109154,188.32871639560918 1366.4000337109153,175.8687163956092 1402.6300337109153,167.97871639560918 C 1423.1600337109153,163.51871639560918 1443.7800337109154,161.32871639560918 1464.4300337109153,165.1887163956092 C 1482.9100337109153,168.63871639560918 1497.8800337109153,178.1887163956092 1508.0500337109152,194.7187163956092 C 1516.4800337109152,208.4287163956092 1520.4400337109153,223.3587163956092 1522.3200337109151,239.1287163956092 A 470.74,470.74 0.0 0,1 1525.7100337109152,310.6487163956092 C 1525.2200337109152,325.3587163956092 1525.7100337109152,340.0987163956092 1525.5700337109151,354.8287163956092 C 1525.2400337109152,390.9387163956092 1520.5700337109151,426.5687163956092 1513.0600337109151,461.8287163956092 C 1510.0600337109151,475.8287163956092 1511.4800337109152,488.9187163956092 1516.650033710915,502.17871639560923 A 340.84,340.84 0.0 0,1 1530.3200337109151,544.1787163956092 C 1532.890033710915,554.5587163956092 1537.4700337109152,564.1787163956092 1542.140033710915,573.6887163956092 C 1549.670033710915,589.0787163956091 1557.5300337109152,604.2787163956092 1564.610033710915,619.9087163956092 C 1577.730033710915,648.9087163956092 1580.860033710915,678.7187163956091 1575.440033710915,709.7587163956092 C 1573.240033710915,722.3787163956092 1569.560033710915,734.6387163956092 1566.510033710915,747.0487163956092 C 1561.150033710915,768.8687163956092 1555.210033710915,790.7087163956091 1557.3700337109149,813.4487163956092 C 1560.6300337109149,847.7487163956091 1571.4500337109148,878.9487163956092 1597.1100337109149,903.4487163956092 C 1609.1100337109149,914.9587163956091 1621.050033710915,926.5987163956091 1633.810033710915,937.3687163956091 A 110.31,110.31 0.0 0,1 1665.950033710915,983.0087163956091 C 1676.160033710915,1009.6187163956091 1685.230033710915,1036.548716395609 1692.010033710915,1064.2387163956091 C 1700.090033710915,1097.2387163956091 1713.250033710915,1128.318716395609 1727.490033710915,1159.008716395609 A 245.38,245.38 0.0 0,1 1738.490033710915,1185.768716395609 C 1743.730033710915,1201.768716395609 1744.150033710915,1217.4587163956091 1735.790033710915,1232.768716395609 C 1733.6000337109149,1236.768716395609 1732.190033710915,1241.1987163956092 1730.170033710915,1245.318716395609 C 1724.8000337109152,1256.318716395609 1717.170033710915,1264.9487163956092 1705.460033710915,1269.548716395609 C 1693.350033710915,1274.308716395609 1681.760033710915,1280.548716395609 1668.520033710915,1281.898716395609 C 1658.1300337109149,1282.968716395609 1647.800033710915,1283.148716395609 1637.650033710915,1280.058716395609 A 54.23,54.23 0.0 0,0 1622.650033710915,1278.118716395609 C 1608.460033710915,1277.848716395609 1600.750033710915,1271.188716395609 1598.410033710915,1257.208716395609 A 37.13,37.13 0.0 0,1 1601.620033710915,1233.928716395609 A 118.86,118.86 0.0 0,1 1618.880033710915,1208.118716395609 A 81.5,81.5 0.0 0,0 1628.880033710915,1194.868716395609 C 1633.2800337109152,1187.188716395609 1635.2600337109152,1179.128716395609 1635.8100337109151,1170.138716395609 C 1636.8100337109151,1153.738716395609 1632.350033710915,1139.138716395609 1624.5200337109152,1125.198716395609 Q 1614.0700337109151,1106.5487163956088 1602.3100337109151,1088.698716395609 A 27.73,27.73 0.0 0,0 1599.5700337109151,1086.0087163956089 L 1599.5700337109158,1086.008716395609 M 544.5700337109158,1193.4387163956092 C 554.3700337109158,1189.4387163956092 561.2200337109158,1184.7087163956091 564.9200337109158,1176.0787163956093 A 54.63,54.63 0.0 0,1 570.7300337109158,1166.0787163956093 A 74.94,74.94 0.0 0,0 583.1800337109158,1137.0087163956093 C 585.7000337109158,1124.4587163956094 587.4900337109158,1111.7787163956093 587.2500337109159,1098.9287163956094 A 167.13,167.13 0.0 0,1 588.0600337109158,1075.7787163956093 C 590.8200337109158,1052.9687163956094 592.9300337109158,1030.1887163956094 588.8400337109158,1007.2787163956093 C 588.0400337109158,1002.8087163956093 588.3000337109158,998.1387163956093 588.0200337109158,993.5587163956093 C 587.8900337109158,991.5587163956093 588.5000337109158,989.4187163956093 586.8900337109158,986.7487163956093 C 584.7600337109158,993.0987163956094 583.8900337109158,999.0087163956093 582.9800337109158,1004.8787163956093 C 581.3200337109158,1015.1287163956093 576.9800337109158,1024.8787163956092 576.1700337109158,1035.2087163956094 C 574.8200337109158,1051.7887163956093 574.1200337109159,1068.4187163956094 571.9700337109158,1084.9587163956094 C 570.8200337109158,1093.8587163956095 569.7300337109158,1102.7287163956094 565.9700337109158,1110.9587163956094 C 560.1600337109159,1123.5987163956095 557.1500337109157,1137.0387163956093 554.8400337109158,1150.5687163956093 C 552.4300337109158,1164.5487163956093 550.4600337109158,1178.6087163956092 544.5500337109158,1193.4187163956092 L 544.5700337109158,1193.4387163956092"/>
</svg>
