<?xml version="1.0" ?>
<svg xmlns="http://www.w3.org/2000/svg" xmlns:ev="http://www.w3.org/2001/xml-events" xmlns:xlink="http://www.w3.org/1999/xlink" baseProfile="full" data-name="Layer 1" height="1285" transform="scale(0.07782101167315175 0.07782101167315175) translate(-849.5 -642.5)" version="1.1" viewBox="0 0 1699 1285" width="1699">
	<defs/>
	<path d="M 419.62624153492857,925.0877601550256 C 415.8562415349286,927.6877601550257 413.3562415349286,929.4277601550257 410.83624153492855,931.0877601550256 A 24.64,24.64 0.0 0,1 402.56624153492857,935.0877601550256 C 397.7862415349286,936.1577601550257 394.4862415349286,933.8377601550256 393.8062415349286,928.9577601550257 A 21.69,21.69 0.0 0,1 394.2762415349286,921.6077601550256 C 395.6962415349286,914.6077601550256 398.9262415349286,908.4877601550256 402.7162415349286,902.6077601550256 C 405.3862415349286,898.4277601550257 407.8262415349286,894.1077601550256 408.2262415349286,889.0377601550256 C 408.4862415349286,885.6777601550256 408.0962415349286,882.7377601550256 404.6962415349286,880.5277601550256 C 399.2162415349286,876.9477601550255 398.3962415349286,872.1877601550256 401.5862415349286,866.1477601550256 C 402.7262415349286,863.9777601550256 404.4762415349286,862.1477601550256 404.9462415349286,859.6177601550256 C 405.6562415349286,855.8077601550257 404.5362415349286,854.2177601550256 400.7062415349286,853.9077601550256 C 397.8562415349286,853.6777601550256 394.9662415349286,853.9877601550256 392.1362415349286,853.1877601550256 C 385.1362415349286,851.1877601550256 382.7162415349286,845.7977601550256 386.1362415349286,839.3677601550255 A 34.91,34.91 0.0 0,1 392.23624153492864,831.6677601550255 C 395.23624153492864,828.5377601550255 396.97624153492865,825.1877601550254 396.02624153492866,820.5777601550254 C 395.11624153492863,816.1577601550255 396.5662415349287,812.0877601550254 399.10624153492864,808.3477601550254 A 60.05,60.05 0.0 0,0 403.51624153492867,800.9577601550254 C 405.90624153492865,796.0177601550254 406.51624153492867,791.4377601550254 403.97624153492865,785.7777601550255 C 399.42624153492864,775.5377601550255 398.32624153492867,764.3377601550254 399.3162415349286,753.1477601550255 A 168.87,168.87 0.0 0,0 399.8862415349286,727.9077601550255 C 399.3362415349286,719.2377601550255 399.2062415349286,710.4677601550254 402.3862415349286,702.3177601550254 C 408.0662415349286,687.7377601550254 407.0762415349286,672.8177601550254 405.3262415349286,657.9077601550255 C 403.3262415349286,640.9777601550255 400.1062415349286,624.2177601550254 397.0262415349286,607.4477601550254 A 46.41,46.41 0.0 0,1 396.0262415349286,600.7477601550254 A 281.93,281.93 0.0 0,0 392.2662415349286,567.0777601550254 A 128.25,128.25 0.0 0,0 386.7962415349286,544.3677601550254 A 122.31,122.31 0.0 0,1 380.9662415349286,518.5977601550254 A 228.91,228.91 0.0 0,0 371.8562415349286,477.6977601550255 C 369.2962415349286,469.6977601550255 366.69624153492856,461.6977601550255 365.93624153492857,453.2077601550255 A 28.57,28.57 0.0 0,0 365.2462415349286,449.9677601550255 C 362.07624153492856,450.90776015502547 360.3562415349286,453.3177601550255 358.4062415349286,455.24776015502545 A 59.77,59.77 0.0 0,1 327.3262415349286,471.82776015502543 A 35.0,35.0 0.0 0,0 315.9462415349286,476.3977601550254 C 312.1362415349286,478.7177601550254 309.9462415349286,481.9777601550254 309.9462415349286,486.4877601550254 C 309.9462415349286,491.8577601550254 309.04624153492864,497.1277601550254 308.3462415349286,502.4277601550254 C 307.3462415349286,509.9077601550254 304.3462415349286,516.6377601550254 300.6562415349286,523.0777601550253 C 298.5662415349286,526.6977601550253 295.8962415349286,529.4277601550253 291.1662415349286,527.7377601550253 C 289.0362415349286,526.9777601550253 288.2362415349286,528.4977601550253 287.2662415349286,529.8277601550253 C 284.8362415349286,533.1377601550253 282.49624153492863,536.5277601550254 279.9162415349286,539.7277601550253 C 276.7762415349286,543.6277601550253 273.00624153492856,546.7277601550253 267.9962415349286,548.0577601550253 C 263.9962415349286,549.1177601550253 261.26624153492855,551.7477601550254 259.1762415349286,555.2577601550254 C 255.8162415349286,560.9077601550254 252.66624153492862,566.6877601550253 248.5462415349286,571.8577601550254 C 245.2162415349286,576.0377601550254 241.9362415349286,580.1477601550254 237.0462415349286,582.8077601550254 C 233.3662415349286,584.8077601550254 231.6162415349286,588.8877601550255 228.8662415349286,591.9077601550255 C 227.8662415349286,592.9677601550254 227.2962415349286,594.3477601550255 226.3362415349286,595.3977601550255 C 220.6162415349286,601.6277601550255 211.7462415349286,605.3977601550255 202.9362415349286,597.7377601550255 C 201.5462415349286,596.5277601550255 200.2262415349286,595.2277601550255 198.9362415349286,593.9177601550255 C 196.4462415349286,591.4277601550255 194.0462415349286,589.4777601550254 189.9362415349286,589.4977601550255 C 185.0462415349286,589.4977601550255 182.4162415349286,585.8877601550255 181.1962415349286,581.3177601550256 C 179.42624153492858,574.7377601550255 178.73624153492858,567.9777601550255 178.08624153492858,561.2377601550255 A 58.35,58.35 0.0 0,0 174.79624153492858,546.9077601550255 C 171.51624153492858,537.8277601550254 167.96624153492857,528.8377601550254 165.07624153492858,519.6377601550255 C 163.2562415349286,513.8677601550255 159.39624153492858,510.0977601550255 154.67624153492858,507.20776015502554 C 150.33624153492858,504.5477601550255 145.4762415349286,502.27776015502553 140.4162415349286,501.63776015502555 A 18.12,18.12 0.0 0,1 126.11624153492859,492.12776015502556 A 33.0,33.0 0.0 0,0 110.00624153492859,477.69776015502555 C 106.24624153492859,476.01776015502554 103.21624153492859,473.12776015502556 100.1762415349286,470.32776015502554 A 32.19,32.19 0.0 0,0 87.5562415349286,462.9377601550257 C 81.20624153492861,461.0077601550257 76.2762415349286,456.30776015502573 70.5562415349286,453.0677601550257 C 66.6362415349286,450.8377601550257 63.1062415349286,447.9577601550257 58.9162415349286,446.1477601550257 A 12.24,12.24 0.0 0,1 52.476241534928604,439.0077601550257 A 31.07,31.07 0.0 0,1 50.31624153492861,429.42776015502574 A 48.0,48.0 0.0 0,0 41.10624153492861,404.2677601550257 A 53.36,53.36 0.0 0,1 31.326241534928606,373.0377601550257 A 16.2,16.2 0.0 0,0 29.3862415349286,365.3477601550257 C 24.3862415349286,355.9877601550257 21.7762415349286,345.8677601550257 20.056241534928603,335.4877601550257 C 19.1362415349286,329.9677601550257 17.416241534928602,325.25776015502566 13.1562415349286,320.9077601550257 C 2.3562415349285986,309.80776015502573 -1.9237584650714012,296.23776015502574 0.7962415349285987,280.6977601550257 C 1.7962415349285987,275.2577601550257 4.0862415349285985,271.4777601550257 9.4562415349286,269.0277601550257 Q 35.7962415349286,256.9677601550257 62.6062415349286,246.02776015502567 A 285.5,285.5 0.0 0,1 106.6562415349286,232.18776015502567 A 304.0,304.0 0.0 0,0 139.0362415349286,222.34776015502567 C 164.6162415349286,213.40776015502567 189.9762415349286,203.76776015502568 216.0362415349286,196.25776015502566 A 171.29,171.29 0.0 0,0 233.32624153492858,189.69776015502566 C 235.1662415349286,188.94776015502566 237.2262415349286,188.27776015502567 238.32624153492858,185.89776015502565 C 233.9162415349286,182.58776015502565 229.3862415349286,180.69776015502566 223.61624153492858,182.39776015502565 C 217.29624153492858,184.25776015502566 211.0062415349286,186.04776015502566 205.21624153492857,189.31776015502564 A 63.69,63.69 0.0 0,1 193.21624153492857,194.24776015502565 C 190.51624153492858,195.11776015502565 187.87624153492857,195.31776015502564 185.84624153492857,192.93776015502564 C 183.81624153492857,190.55776015502565 184.96624153492857,188.35776015502563 186.06624153492857,186.05776015502565 C 192.62624153492857,172.38776015502566 204.06624153492857,165.23776015502565 218.30624153492857,161.81776015502564 C 223.75624153492856,160.50776015502564 229.30624153492857,160.50776015502564 234.86624153492858,160.68776015502564 C 235.86624153492858,160.68776015502564 236.9162415349286,161.00776015502564 237.86624153492858,159.68776015502564 C 237.27624153492857,156.96776015502564 235.1362415349286,155.55776015502565 232.61624153492858,154.58776015502565 C 227.98624153492858,152.80776015502565 223.21624153492857,151.23776015502565 218.26624153492858,151.26776015502566 C 210.48624153492858,151.26776015502566 202.65624153492857,150.35776015502566 194.90624153492857,151.95776015502565 C 191.40624153492857,152.67776015502565 188.23624153492858,152.08776015502565 186.77624153492857,148.25776015502566 C 185.77624153492857,145.52776015502567 183.77624153492857,145.99776015502567 181.68624153492857,146.50776015502566 A 93.23,93.23 0.0 0,0 164.34624153492857,152.82776015502566 A 198.29,198.29 0.0 0,0 120.2262415349286,181.9377601550257 A 61.92,61.92 0.0 0,1 110.8262415349286,188.9377601550257 C 107.5962415349286,190.7777601550257 104.75624153492859,190.5177601550257 103.00624153492859,188.2977601550257 C 101.00624153492859,185.7477601550257 101.88624153492859,183.2977601550257 103.49624153492859,180.9377601550257 C 110.13624153492859,171.1677601550257 118.83624153492859,163.3077601550257 127.20624153492858,155.10776015502572 C 143.6662415349286,139.00776015502572 163.08624153492858,127.80776015502572 184.30624153492857,119.37776015502573 A 49.43,49.43 0.0 0,0 191.62624153492857,116.14776015502572 C 202.04624153492855,109.87776015502573 213.53624153492856,108.38776015502572 225.37624153492857,107.99776015502572 C 237.05624153492857,107.60776015502572 248.72624153492856,106.49776015502572 260.21624153492854,108.53776015502572 C 261.35624153492853,106.19776015502572 259.56624153492857,105.53776015502572 258.72624153492853,104.67776015502572 C 256.19624153492856,101.97776015502572 253.28624153492856,99.60776015502572 250.97624153492856,96.74776015502573 C 246.87624153492857,91.69776015502573 248.83624153492858,86.69776015502573 255.15624153492857,85.34776015502572 C 258.90624153492854,84.54776015502573 262.51624153492855,85.23776015502573 266.09624153492854,86.24776015502573 C 275.95624153492855,89.02776015502573 286.2462415349285,90.40776015502573 295.38624153492856,95.50776015502574 A 16.0,16.0 0.0 0,0 300.12624153492857,96.77776015502573 Q 332.95624153492855,103.04776015502573 347.8462415349286,132.96776015502573 C 350.62624153492857,138.55776015502573 350.4162415349286,138.14776015502574 355.6062415349286,135.91776015502572 A 112.0,112.0 0.0 0,1 401.2462415349286,127.08776015502572 Q 427.76624153492855,127.26776015502573 454.2462415349286,125.75776015502572 C 467.07624153492856,125.03776015502572 467.2462415349286,124.96776015502572 470.7962415349286,112.75776015502572 C 473.9262415349286,101.87776015502573 479.68624153492857,92.50776015502572 486.31624153492857,83.55776015502572 A 15.34,15.34 0.0 0,1 492.88624153492856,78.11776015502572 C 501.96624153492854,74.47776015502572 510.88624153492856,79.73776015502573 511.7362415349286,89.50776015502572 C 512.0362415349285,92.78776015502572 512.5762415349286,95.99776015502572 513.0362415349285,99.22776015502572 C 513.4962415349285,102.45776015502572 513.1362415349286,105.70776015502572 513.1362415349286,109.30776015502572 C 515.9262415349285,108.71776015502572 517.1362415349286,106.74776015502572 518.4462415349285,105.04776015502571 A 53.88,53.88 0.0 0,0 525.1062415349285,93.26776015502571 Q 537.7362415349285,64.48776015502571 550.2862415349284,35.66776015502572 A 133.34,133.34 0.0 0,1 564.5962415349284,11.247760155025713 A 38.31,38.31 0.0 0,1 574.1362415349283,1.6977601550257126 C 576.6862415349283,-0.032239844974287335 579.4562415349284,-0.6422398449742872 582.2762415349283,0.8277601550257127 C 585.0962415349283,2.2977601550257125 586.0462415349283,4.947760155025713 586.0162415349283,8.067760155025713 C 585.9562415349284,12.477760155025713 584.3662415349283,16.46776015502571 582.9162415349283,20.547760155025713 C 577.1462415349283,36.79776015502572 571.1462415349283,52.99776015502572 569.3962415349283,70.35776015502572 A 28.83,28.83 0.0 0,0 569.0862415349284,73.41776015502572 C 569.1862415349284,98.22776015502572 566.9262415349284,123.13776015502572 572.7462415349283,147.69776015502572 C 574.7462415349283,156.27776015502573 576.0462415349283,165.0477601550257 577.6462415349283,173.69776015502572 A 19.81,19.81 0.0 0,0 581.5662415349283,181.88776015502572 C 589.2862415349283,192.3977601550257 599.2162415349283,200.8077601550257 607.9962415349282,210.2977601550257 C 612.2262415349282,214.85776015502572 615.1962415349283,219.6877601550257 615.1962415349283,226.09776015502572 A 26.46,26.46 0.0 0,0 616.3262415349283,232.09776015502572 C 617.2662415349283,236.03776015502572 617.3262415349283,239.92776015502574 615.1562415349283,243.44776015502572 A 6.23,6.23 0.0 0,0 614.9762415349284,250.37776015502573 A 19.73,19.73 0.0 0,1 616.2362415349284,253.18776015502573 C 617.2362415349284,255.78776015502572 617.6662415349283,258.41776015502575 615.6262415349283,260.72776015502575 C 613.5862415349284,263.03776015502575 611.0662415349284,263.27776015502576 608.2762415349283,262.49776015502573 C 606.6962415349283,262.05776015502573 605.1162415349283,261.55776015502573 603.5162415349283,261.23776015502574 C 599.8262415349283,260.5077601550257 599.2062415349284,260.9477601550257 598.6962415349283,264.73776015502574 A 33.13,33.13 0.0 0,0 603.1762415349283,286.6977601550257 A 23.9,23.9 0.0 0,0 607.5162415349283,292.6977601550257 C 621.8462415349284,305.1277601550257 627.7462415349283,321.9777601550257 631.4462415349283,339.6277601550257 C 636.0662415349283,361.6277601550257 644.7662415349283,381.79776015502574 655.8662415349282,401.1977601550257 C 664.9462415349283,417.05776015502573 673.4262415349282,433.2777601550257 679.1462415349282,450.7677601550257 A 44.51,44.51 0.0 0,0 688.3762415349282,465.9677601550257 C 697.5662415349283,476.4877601550257 706.7062415349283,487.0477601550257 716.5362415349282,496.9677601550257 C 727.1062415349282,507.6877601550257 740.0162415349282,514.8377601550256 752.9162415349282,522.0777601550257 A 285.77,285.77 0.0 0,0 838.0862415349281,553.5977601550256 C 851.0162415349281,556.1477601550256 863.5562415349282,560.1177601550256 875.9862415349281,564.4177601550257 A 139.68,139.68 0.0 0,0 902.2962415349281,570.8077601550257 C 917.9862415349281,573.0177601550257 933.106241534928,577.9477601550257 948.716241534928,580.5877601550256 A 105.24,105.24 0.0 0,0 965.216241534928,582.4477601550257 C 976.9262415349281,582.5677601550257 988.636241534928,582.9077601550257 1000.346241534928,582.2777601550257 A 72.67,72.67 0.0 0,1 1020.566241534928,583.8477601550258 C 1031.6962415349283,586.4077601550257 1042.9562415349283,586.6077601550257 1054.2862415349282,585.9577601550258 C 1064.5962415349281,585.3677601550257 1074.8562415349281,585.9577601550258 1084.8562415349281,588.6677601550258 C 1095.226241534928,591.5177601550258 1105.646241534928,590.6677601550258 1116.0862415349281,589.4877601550259 C 1132.8462415349281,587.5877601550259 1149.706241534928,586.0177601550258 1166.5162415349282,587.0477601550258 C 1191.8162415349282,588.5977601550258 1216.5162415349282,585.2777601550258 1241.2362415349282,580.6977601550258 C 1251.7262415349282,578.6977601550258 1262.2362415349282,577.1377601550258 1272.5462415349282,573.9677601550258 C 1276.8662415349281,572.6377601550257 1279.0562415349282,570.5777601550258 1279.146241534928,565.8777601550257 C 1279.3262415349282,556.6277601550257 1282.446241534928,547.6677601550257 1282.0662415349282,538.3377601550258 A 5.5,5.5 0.0 0,1 1282.5362415349282,535.9377601550258 C 1286.6862415349283,527.0277601550258 1284.5362415349282,518.1677601550258 1282.0962415349281,509.4577601550258 C 1279.656241534928,500.7477601550258 1276.696241534928,492.19776015502583 1273.896241534928,483.6077601550258 C 1269.396241534928,469.7577601550258 1262.0762415349282,457.4277601550258 1253.236241534928,445.9577601550258 A 119.41,119.41 0.0 0,1 1242.056241534928,428.9577601550258 A 68.34,68.34 0.0 0,0 1223.496241534928,406.9577601550258 A 125.77,125.77 0.0 0,1 1199.426241534928,381.49776015502584 C 1185.8562415349281,362.7777601550259 1170.776241534928,345.49776015502584 1153.126241534928,330.49776015502584 A 52.92,52.92 0.0 0,1 1143.5662415349282,320.05776015502585 C 1137.4562415349283,311.05776015502585 1131.5662415349282,301.93776015502584 1125.5662415349282,292.8377601550258 A 24.35,24.35 0.0 0,1 1123.646241534928,288.9777601550258 C 1119.5562415349282,279.3277601550258 1122.8262415349282,271.4677601550258 1132.5262415349282,267.5677601550258 C 1139.3262415349282,264.83776015502576 1146.1962415349283,264.5677601550258 1152.9062415349283,267.5677601550258 A 82.0,82.0 0.0 0,0 1173.4562415349283,273.8577601550258 A 29.38,29.38 0.0 0,1 1188.1562415349283,281.2277601550258 C 1201.1562415349283,292.5877601550258 1214.8262415349284,303.1277601550258 1228.7462415349282,313.3477601550258 A 115.63,115.63 0.0 0,1 1246.3362415349281,329.6477601550258 A 216.35,216.35 0.0 0,0 1271.646241534928,353.9777601550258 C 1280.886241534928,361.4177601550258 1288.0662415349282,370.7277601550258 1294.0662415349282,380.8177601550258 C 1302.5862415349281,395.14776015502576 1312.186241534928,408.7477601550258 1321.7462415349282,422.3577601550258 A 186.0,186.0 0.0 0,1 1341.5162415349282,459.2077601550258 C 1348.3662415349281,475.9577601550258 1354.6762415349283,492.8677601550258 1358.2362415349282,510.69776015502583 A 45.66,45.66 0.0 0,0 1362.3062415349282,522.3077601550258 C 1368.906241534928,535.3077601550258 1372.126241534928,549.2277601550257 1375.4662415349283,563.2477601550258 C 1378.6562415349283,576.6177601550258 1382.7662415349282,589.7677601550258 1386.4662415349283,603.0177601550258 A 21.16,21.16 0.0 0,0 1394.4662415349283,614.3777601550258 C 1399.6862415349283,618.3777601550258 1404.7162415349283,622.6177601550258 1409.9662415349283,626.5777601550259 C 1416.9662415349283,631.8977601550259 1424.1162415349283,637.0777601550259 1430.1062415349284,643.7077601550259 A 36.45,36.45 0.0 0,0 1449.1062415349284,654.5777601550259 A 67.34,67.34 0.0 0,1 1475.7962415349284,668.2477601550258 C 1490.5062415349284,680.1077601550259 1505.7962415349284,691.2977601550258 1519.3962415349283,704.4877601550259 C 1529.3962415349283,714.2077601550259 1541.5662415349284,721.6877601550259 1550.6662415349283,732.3477601550259 C 1560.2262415349282,743.5277601550258 1571.3462415349284,752.8477601550259 1582.6662415349283,762.0077601550258 A 95.9,95.9 0.0 0,1 1601.1262415349283,781.7577601550258 C 1606.1862415349283,788.9977601550258 1611.6962415349283,795.9277601550258 1616.7462415349282,803.1777601550258 C 1621.9962415349282,810.7177601550258 1624.4162415349283,819.3177601550258 1626.3862415349283,828.2777601550258 C 1628.5362415349284,838.0377601550258 1626.8562415349284,847.9177601550258 1628.5162415349284,857.6277601550258 A 15.67,15.67 0.0 0,1 1627.5162415349284,865.5277601550258 C 1625.7762415349284,870.3077601550258 1626.5762415349284,874.7877601550258 1628.5762415349284,879.2577601550258 A 143.5,143.5 0.0 0,0 1640.9762415349285,901.2577601550258 C 1653.3762415349286,919.4877601550259 1663.2062415349285,939.1977601550259 1673.6162415349286,958.5177601550258 C 1687.9462415349285,985.0977601550259 1694.9062415349285,1013.9877601550259 1697.3162415349286,1044.0377601550258 C 1698.0062415349287,1052.6477601550257 1698.8762415349286,1061.2777601550258 1698.6862415349285,1069.8877601550257 C 1698.3962415349285,1083.4877601550256 1696.4662415349285,1096.8877601550257 1690.1462415349285,1109.2177601550256 A 19.94,19.94 0.0 0,0 1688.7962415349286,1112.6977601550257 C 1686.7962415349286,1119.6177601550257 1682.7962415349286,1125.2377601550256 1677.9362415349287,1130.3877601550257 C 1675.2662415349287,1133.2377601550256 1672.4162415349288,1135.9377601550257 1669.9362415349287,1138.9577601550257 C 1666.4062415349288,1143.2977601550256 1666.4762415349287,1144.5077601550256 1670.7562415349287,1148.0277601550256 A 27.11,27.11 0.0 0,1 1679.5362415349286,1161.8477601550255 A 21.6,21.6 0.0 0,0 1684.9262415349287,1171.3577601550255 C 1689.2462415349287,1175.7177601550254 1690.7962415349286,1181.0977601550255 1689.9262415349287,1187.2077601550254 C 1688.8262415349288,1194.8477601550255 1686.5362415349286,1201.9677601550254 1681.6462415349288,1208.1477601550255 A 197.82,197.82 0.0 0,0 1667.2662415349287,1228.9177601550255 A 33.59,33.59 0.0 0,1 1657.7162415349287,1239.2577601550254 C 1647.6362415349288,1246.3577601550253 1638.6462415349288,1254.8777601550253 1628.2762415349287,1261.6277601550253 A 36.85,36.85 0.0 0,0 1621.2062415349287,1267.5577601550253 C 1614.2062415349287,1275.2577601550254 1605.0262415349287,1278.6277601550253 1595.2062415349287,1280.4777601550254 A 72.33,72.33 0.0 0,1 1578.6462415349288,1281.8977601550255 A 172.29,172.29 0.0 0,0 1549.1462415349288,1283.5977601550255 C 1537.5762415349288,1285.0677601550256 1526.3962415349288,1283.7477601550256 1515.0762415349288,1280.5277601550256 C 1501.5962415349288,1276.6977601550257 1490.0762415349288,1270.3077601550256 1480.486241534929,1260.2377601550256 A 63.51,63.51 0.0 0,0 1467.966241534929,1250.2377601550256 C 1463.856241534929,1247.6977601550257 1460.856241534929,1244.0177601550256 1458.156241534929,1240.1277601550257 C 1455.696241534929,1236.5877601550258 1453.5262415349289,1232.8377601550258 1451.076241534929,1229.2977601550258 C 1448.6262415349292,1225.7577601550258 1446.5062415349291,1221.7177601550259 1443.326241534929,1218.9877601550259 C 1435.796241534929,1212.5177601550258 1431.7562415349291,1204.147760155026 1428.7462415349291,1195.1077601550257 C 1425.836241534929,1186.3777601550257 1419.7462415349291,1179.9977601550258 1413.4462415349292,1173.7977601550258 C 1405.066241534929,1165.6177601550257 1396.7662415349291,1157.3477601550258 1389.536241534929,1148.0977601550258 C 1387.056241534929,1144.9277601550257 1384.326241534929,1142.4277601550257 1380.126241534929,1141.7377601550259 C 1375.466241534929,1140.9577601550259 1373.126241534929,1137.7377601550259 1372.416241534929,1133.2677601550258 C 1372.016241534929,1130.6277601550257 1371.956241534929,1127.937760155026 1371.566241534929,1125.2677601550258 C 1370.4962415349291,1118.0077601550258 1368.566241534929,1111.197760155026 1362.126241534929,1106.5877601550258 A 20.39,20.39 0.0 0,1 1358.196241534929,1102.6977601550257 A 24.53,24.53 0.0 0,0 1344.426241534929,1093.9377601550257 C 1336.316241534929,1091.9377601550257 1331.876241534929,1086.3877601550257 1330.206241534929,1078.5677601550258 A 26.0,26.0 0.0 0,0 1324.5262415349289,1066.5077601550258 C 1320.8462415349288,1062.2277601550259 1319.8662415349288,1056.8377601550258 1320.3962415349288,1051.427760155026 C 1320.9862415349287,1045.337760155026 1318.6962415349287,1040.587760155026 1315.9762415349287,1035.2777601550258 C 1311.4462415349287,1026.417760155026 1305.2862415349286,1020.7477601550258 1295.6362415349288,1018.2777601550258 C 1291.0562415349289,1017.1077601550259 1287.5762415349288,1013.4377601550258 1283.7462415349287,1010.6877601550258 C 1279.5562415349286,1007.6877601550258 1275.1962415349287,1006.8077601550258 1269.9262415349287,1006.9377601550258 A 48.0,48.0 0.0 0,0 1246.5762415349288,1013.7377601550257 C 1240.9362415349287,1016.9877601550257 1234.6562415349288,1018.0577601550258 1228.3362415349288,1019.0077601550257 C 1223.3362415349288,1019.7677601550257 1223.0362415349289,1019.7577601550257 1222.5462415349289,1024.4677601550256 A 26.82,26.82 0.0 0,1 1211.2862415349289,1044.1677601550257 C 1207.3562415349288,1047.0577601550258 1204.946241534929,1051.1677601550257 1202.2862415349289,1055.0377601550256 C 1199.8262415349288,1058.6677601550257 1197.1162415349288,1061.9477601550257 1192.8162415349288,1063.5077601550256 C 1190.6062415349288,1064.3077601550256 1189.1762415349287,1066.1477601550257 1187.516241534929,1067.6577601550257 C 1183.726241534929,1071.1277601550257 1179.516241534929,1072.0577601550258 1175.166241534929,1069.0777601550258 C 1171.166241534929,1066.3377601550258 1167.946241534929,1066.4577601550259 1164.166241534929,1069.5877601550258 C 1161.356241534929,1071.9377601550257 1158.016241534929,1073.6677601550257 1155.656241534929,1076.5877601550258 A 10.37,10.37 0.0 0,1 1150.056241534929,1080.2177601550259 A 40.35,40.35 0.0 0,0 1142.056241534929,1083.357760155026 C 1134.9562415349292,1086.907760155026 1128.616241534929,1085.767760155026 1122.7562415349291,1080.517760155026 C 1118.6462415349292,1076.837760155026 1118.576241534929,1076.957760155026 1114.076241534929,1080.007760155026 A 26.19,26.19 0.0 0,0 1107.896241534929,1085.007760155026 C 1104.976241534929,1088.627760155026 1101.526241534929,1091.357760155026 1096.816241534929,1092.287760155026 C 1094.7162415349292,1092.707760155026 1093.336241534929,1094.287760155026 1091.816241534929,1095.747760155026 C 1087.4662415349292,1099.817760155026 1085.156241534929,1100.4177601550261 1080.386241534929,1097.007760155026 C 1074.606241534929,1092.877760155026 1068.106241534929,1090.527760155026 1061.7662415349291,1087.6477601550262 C 1057.096241534929,1085.5277601550263 1052.7662415349291,1085.1877601550261 1048.2462415349291,1087.7977601550263 C 1041.4262415349292,1091.7177601550263 1033.9662415349292,1092.7977601550263 1026.2462415349291,1092.3977601550262 C 1023.3362415349291,1092.247760155026 1020.3362415349291,1092.1377601550262 1017.7062415349291,1093.237760155026 C 1007.366241534929,1097.547760155026 996.3062415349291,1096.6577601550262 985.5662415349291,1098.067760155026 C 975.2862415349291,1099.417760155026 965.106241534929,1099.637760155026 955.1462415349291,1096.067760155026 C 953.3662415349291,1095.437760155026 951.4762415349292,1095.817760155026 949.6462415349291,1096.127760155026 C 944.3862415349291,1096.9877601550259 939.2162415349292,1098.367760155026 933.7962415349291,1098.2477601550258 A 11.05,11.05 0.0 0,0 926.5262415349291,1101.2477601550258 C 921.9962415349291,1105.0377601550258 916.7162415349292,1106.2477601550258 910.9862415349291,1105.9777601550259 C 907.4962415349291,1105.8177601550258 903.9862415349291,1105.7377601550259 900.5362415349291,1105.2977601550258 C 894.2062415349291,1104.4977601550258 887.8662415349291,1104.2977601550258 881.5362415349291,1104.1377601550257 C 874.096241534929,1103.9277601550257 866.8562415349292,1102.5177601550258 860.9462415349291,1097.2277601550256 C 859.126241534929,1095.6077601550257 858.6462415349291,1092.1377601550257 856.116241534929,1092.1377601550257 C 853.3062415349291,1092.1377601550257 851.0562415349291,1094.6377601550257 848.636241534929,1096.1377601550257 A 154.35,154.35 0.0 0,0 834.006241534929,1106.4077601550257 C 828.9462415349291,1110.4077601550257 823.526241534929,1113.6877601550257 816.636241534929,1113.1677601550257 A 12.0,12.0 0.0 0,0 810.726241534929,1114.6977601550257 C 809.0462415349291,1115.4677601550256 807.346241534929,1116.1877601550257 805.726241534929,1116.9877601550256 C 798.726241534929,1120.3177601550256 791.726241534929,1119.1977601550257 791.246241534929,1108.1077601550255 C 790.886241534929,1100.3177601550256 790.5662415349291,1100.3477601550255 783.616241534929,1104.1077601550255 A 51.0,51.0 0.0 0,1 765.666241534929,1110.2677601550256 C 760.136241534929,1110.9877601550256 759.156241534929,1112.3677601550255 759.0962415349289,1117.9277601550257 C 759.0162415349289,1124.0977601550258 758.946241534929,1130.2477601550256 758.3962415349289,1136.4077601550257 C 756.5962415349289,1156.4577601550257 748.836241534929,1174.0777601550258 736.7562415349289,1189.9477601550257 C 729.5462415349289,1199.4177601550257 722.5262415349289,1209.0577601550256 712.7562415349289,1216.2377601550256 A 26.53,26.53 0.0 0,0 704.5962415349289,1226.9377601550257 A 26.63,26.63 0.0 0,1 685.796241534929,1242.6277601550257 A 106.56,106.56 0.0 0,0 668.936241534929,1248.5077601550258 A 52.51,52.51 0.0 0,1 655.286241534929,1252.167760155026 C 642.876241534929,1253.9577601550259 630.456241534929,1255.627760155026 618.066241534929,1257.5077601550258 A 104.36,104.36 0.0 0,1 592.2462415349289,1258.2677601550258 C 576.5962415349289,1256.7177601550259 561.0462415349289,1257.927760155026 545.4762415349289,1259.187760155026 C 531.3462415349289,1260.327760155026 517.2162415349289,1261.897760155026 503.0062415349289,1260.9577601550259 C 492.7062415349289,1260.2877601550258 482.66624153492893,1258.4977601550258 473.2562415349289,1253.887760155026 C 470.2562415349289,1252.397760155026 467.3862415349289,1250.637760155026 465.4662415349289,1248.017760155026 C 460.1862415349289,1240.767760155026 455.73624153492887,1233.4277601550261 453.4662415349289,1224.207760155026 C 450.2262415349289,1211.207760155026 453.9562415349289,1200.8977601550262 460.99624153492886,1190.807760155026 A 51.59,51.59 0.0 0,0 465.51624153492884,1182.807760155026 C 468.25624153492885,1176.807760155026 472.2862415349288,1172.057760155026 478.51624153492884,1169.487760155026 A 25.8,25.8 0.0 0,0 482.32624153492884,1167.487760155026 C 491.48624153492887,1161.787760155026 493.80624153492886,1156.337760155026 491.9162415349288,1145.807760155026 C 490.1262415349288,1135.807760155026 487.4362415349288,1126.177760155026 482.7962415349288,1117.147760155026 C 480.4662415349288,1112.627760155026 480.8862415349288,1107.897760155026 481.6962415349288,1103.2677601550258 C 483.1862415349288,1094.7777601550258 485.0662415349288,1086.3577601550257 486.8662415349288,1077.927760155026 A 40.43,40.43 0.0 0,1 490.7862415349288,1067.577760155026 C 491.9262415349288,1065.397760155026 493.0962415349288,1063.227760155026 494.1662415349288,1061.007760155026 C 498.52624153492883,1051.9477601550261 498.3762415349288,1052.067760155026 491.8562415349288,1044.6377601550262 C 487.3062415349288,1039.4377601550261 482.3862415349288,1035.1277601550262 475.6762415349288,1032.8177601550262 C 471.1062415349288,1031.2477601550263 467.7662415349288,1027.7077601550263 465.2462415349288,1023.5677601550262 C 462.3862415349288,1018.8977601550263 459.0062415349288,1014.9977601550262 453.4862415349288,1013.2877601550263 C 450.4262415349288,1012.2877601550263 448.4862415349288,1009.8177601550262 446.9262415349288,1007.0577601550262 A 31.0,31.0 0.0 0,1 443.6862415349288,998.4277601550262 C 442.6862415349288,993.7777601550263 441.2562415349288,989.8777601550263 435.3362415349288,989.5577601550262 C 432.4562415349288,989.4077601550263 430.2062415349288,987.0377601550263 428.2462415349288,984.9077601550263 A 7.82,7.82 0.0 0,0 421.2462415349288,982.1677601550263 C 411.6162415349288,982.8977601550263 407.5762415349288,978.0777601550262 409.6962415349288,968.5177601550263 C 411.0862415349288,962.2977601550263 412.5162415349288,956.1177601550263 412.78624153492876,949.7077601550263 C 412.93624153492874,946.3777601550263 414.4562415349288,943.3677601550263 415.61624153492875,940.2977601550264 A 56.45,56.45 0.0 0,0 419.62624153492874,925.0877601550263 L 419.62624153492857,925.0877601550256"/>
</svg>
