<?xml version="1.0" ?>
<svg xmlns="http://www.w3.org/2000/svg" xmlns:ev="http://www.w3.org/2001/xml-events" xmlns:xlink="http://www.w3.org/1999/xlink" baseProfile="full" data-name="Layer 1" height="1600" transform="scale(0.0625 0.0625) translate(-814.0 -800.0)" version="1.1" viewBox="0 0 1628 1600" width="1628">
	<defs/>
	<path d="M 1197.1940547715235,373.68685145558607 C 1195.5040547715234,367.85685145558614 1192.5240547715234,364.59685145558615 1189.7040547715235,361.2468514555861 C 1187.9840547715235,359.2468514555861 1186.1940547715235,357.2468514555861 1184.5440547715234,355.1568514555861 C 1183.2340547715235,353.48685145558613 1182.6640547715233,351.55685145558607 1183.8740547715233,349.60685145558614 C 1185.2940547715234,347.33685145558616 1187.5040547715234,347.31685145558606 1189.7740547715234,347.9168514555861 A 18.68,18.68 0.0 0,1 1197.7740547715234,352.44685145558606 C 1206.1540547715235,360.2668514555861 1216.1640547715235,365.5168514555861 1226.2240547715235,370.6568514555861 A 53.47,53.47 0.0 0,1 1242.7340547715235,383.7568514555861 C 1243.8340547715234,381.35685145558614 1242.6840547715235,379.83685145558604 1242.5840547715234,378.31685145558606 C 1242.2440547715235,373.0068514555861 1245.8040547715234,370.4968514555861 1250.6940547715233,372.6768514555861 A 23.0,23.0 0.0 0,1 1257.9240547715233,378.44685145558606 C 1259.4040547715233,380.0368514555861 1260.8240547715234,381.6768514555861 1262.5740547715234,383.6368514555861 C 1271.2040547715235,375.4068514555861 1278.0240547715234,366.72685145558603 1279.5740547715234,354.82685145558605 A 16.67,16.67 0.0 0,0 1279.3140547715234,349.5468514555861 A 12.7,12.7 0.0 0,1 1279.2340547715235,344.2668514555861 A 4.76,4.76 0.0 0,1 1282.5440547715234,340.46685145558615 A 4.25,4.25 0.0 0,1 1287.2640547715234,342.1268514555861 A 21.86,21.86 0.0 0,1 1289.8740547715233,346.71685145558615 C 1290.6940547715233,348.48685145558613 1290.6440547715233,350.6468514555861 1292.3540547715234,352.1368514555861 C 1297.3540547715234,350.57685145558617 1302.3540547715234,348.94685145558617 1307.4340547715233,347.47685145558614 A 22.55,22.55 0.0 0,1 1312.6640547715233,346.6468514555861 C 1315.2040547715233,346.5368514555861 1317.0740547715234,347.8168514555862 1317.3240547715234,350.3968514555861 C 1317.7640547715234,354.98685145558613 1318.5940547715234,359.5068514555861 1317.6740547715233,364.2568514555861 C 1315.7640547715232,374.0368514555861 1314.1440547715233,383.8768514555861 1313.8940547715233,393.8968514555861 C 1313.7540547715232,399.47685145558614 1314.5840547715234,404.8968514555861 1315.2240547715232,410.4168514555861 C 1315.6340547715233,413.9168514555861 1318.9540547715233,415.2568514555861 1319.6140547715233,418.4168514555861 C 1320.5140547715234,422.7768514555861 1324.6140547715233,420.8868514555861 1327.2840547715234,421.9968514555861 C 1334.6340547715233,425.09685145558615 1341.2140547715235,422.3968514555861 1347.6140547715233,419.19685145558606 A 121.07,121.07 0.0 0,1 1373.2940547715234,410.30685145558607 A 29.61,29.61 0.0 0,1 1383.1540547715233,409.1568514555861 C 1387.6040547715234,409.57685145558617 1390.2340547715232,407.4268514555861 1392.2340547715232,403.8868514555861 A 35.43,35.43 0.0 0,0 1395.6040547715231,394.5568514555862 C 1396.6040547715231,390.6468514555861 1398.0440547715232,386.94685145558617 1401.0540547715232,384.07685145558617 C 1404.5240547715232,380.7468514555861 1407.424054771523,380.21685145558615 1410.894054771523,383.4968514555861 C 1413.434054771523,385.9068514555862 1414.494054771523,384.73685145558613 1416.1140547715231,382.97685145558614 A 56.14,56.14 0.0 0,1 1420.3640547715231,378.7768514555862 C 1422.3640547715231,377.0268514555862 1424.734054771523,376.3168514555862 1427.0840547715231,377.7768514555862 A 5.48,5.48 0.0 0,1 1429.434054771523,384.20685145558616 C 1427.124054771523,392.0468514555862 1426.0640547715232,400.36685145558624 1421.374054771523,407.3168514555862 C 1418.934054771523,410.9168514555862 1418.1040547715231,414.24685145558624 1420.0140547715232,418.3868514555862 C 1421.9240547715233,422.5268514555862 1419.8540547715231,426.61685145558624 1419.2240547715232,430.59685145558615 A 5.83,5.83 0.0 0,0 1420.4340547715233,431.5168514555862 C 1428.3040547715232,434.1868514555862 1429.4340547715233,439.25685145558623 1423.3040547715232,445.00685145558623 C 1419.3040547715232,448.8068514555862 1414.3040547715232,450.71685145558615 1409.0640547715232,451.7668514555862 C 1402.4940547715232,453.10685145558614 1398.4640547715233,456.1768514555862 1397.0640547715232,463.11685145558624 C 1395.7740547715232,469.49685145558624 1391.2240547715232,474.4068514555862 1388.2040547715233,480.36685145558624 C 1390.8940547715233,478.0468514555862 1393.6040547715234,475.75685145558623 1396.2640547715232,473.36685145558624 C 1398.5840547715231,471.36685145558624 1400.7540547715232,469.07685145558617 1403.1840547715233,467.1568514555862 C 1405.6140547715233,465.23685145558625 1408.2840547715232,464.2668514555862 1411.0740547715234,466.4568514555863 C 1413.8640547715236,468.6468514555862 1413.7040547715235,471.34685145558626 1412.8640547715233,474.3168514555863 A 17.15,17.15 0.0 0,1 1407.6440547715233,482.6768514555863 C 1398.0040547715232,491.11685145558624 1389.3540547715234,500.8068514555863 1377.6440547715233,506.6768514555863 C 1377.3640547715233,506.8168514555863 1377.2940547715234,507.37685145558623 1376.8540547715234,508.34685145558626 A 31.27,31.27 0.0 0,1 1388.2140547715233,511.47685145558626 C 1390.7340547715232,512.7268514555863 1392.9740547715232,514.2768514555862 1392.5840547715231,517.4768514555863 C 1392.134054771523,521.1168514555862 1389.144054771523,521.8068514555863 1386.184054771523,522.0368514555862 C 1381.374054771523,522.4168514555862 1376.544054771523,522.5168514555862 1371.754054771523,524.9568514555862 C 1373.554054771523,529.1868514555862 1376.754054771523,531.9568514555862 1379.884054771523,534.6068514555861 A 26.85,26.85 0.0 0,1 1389.7940547715232,552.1268514555861 A 45.76,45.76 0.0 0,0 1397.0740547715232,571.1968514555862 A 64.45,64.45 0.0 0,1 1407.5340547715232,600.2668514555862 C 1408.5340547715232,609.9068514555862 1413.8240547715232,618.1868514555862 1418.2940547715232,626.5668514555862 C 1422.0740547715232,633.6268514555861 1425.5740547715232,640.7168514555862 1427.7540547715232,648.4668514555862 C 1429.6740547715233,655.2968514555862 1434.1040547715231,660.5968514555861 1439.1540547715233,665.3468514555861 C 1445.4440547715233,671.2768514555861 1451.6940547715233,677.2768514555861 1458.2940547715234,682.8368514555862 C 1469.2940547715234,692.1468514555861 1476.8640547715233,704.1268514555861 1484.7740547715234,715.9068514555862 C 1496.5140547715234,733.3968514555862 1501.1440547715233,753.5768514555862 1506.8340547715234,773.3268514555862 C 1510.8340547715234,787.3968514555862 1515.2540547715234,801.3268514555862 1521.0940547715234,814.7468514555861 C 1526.6540547715233,827.5568514555861 1530.2540547715234,841.0968514555861 1534.7940547715234,854.2868514555861 C 1536.9540547715235,860.5668514555861 1539.1540547715233,866.836851455586 1541.3140547715234,873.1268514555861 C 1543.6640547715233,879.9168514555861 1543.9240547715233,886.6468514555861 1540.1940547715235,893.0368514555861 C 1537.6240547715236,897.466851455586 1537.9640547715235,902.0368514555861 1539.2740547715234,906.5668514555861 C 1541.7240547715235,914.956851455586 1542.2740547715234,923.5668514555861 1542.7040547715235,932.1768514555861 C 1543.7040547715235,952.4068514555861 1546.9140547715235,972.2568514555861 1554.5440547715234,991.1768514555861 C 1561.3740547715233,1008.086851455586 1563.8740547715233,1025.756851455586 1563.7440547715235,1043.886851455586 C 1563.6740547715235,1053.886851455586 1563.7440547715235,1063.8268514555862 1564.2540547715234,1073.7968514555862 A 51.83,51.83 0.0 0,0 1572.8040547715234,1099.9868514555862 A 173.31,173.31 0.0 0,1 1591.1140547715233,1137.5268514555862 A 41.49,41.49 0.0 0,1 1593.6640547715233,1147.1268514555861 C 1594.0540547715234,1150.8168514555862 1593.6640547715233,1154.436851455586 1590.5540547715234,1156.8068514555862 C 1587.6640547715233,1159.0168514555862 1587.8840547715233,1161.646851455586 1588.5540547715234,1164.5268514555862 A 170.22,170.22 0.0 0,0 1595.2240547715235,1184.7068514555863 A 26.06,26.06 0.0 0,1 1597.1040547715236,1197.7068514555863 C 1596.2840547715236,1204.2568514555862 1598.4240547715235,1210.4768514555863 1600.5340547715236,1216.5168514555862 A 138.86,138.86 0.0 0,1 1607.7640547715237,1254.2468514555862 C 1608.1840547715237,1261.1868514555863 1607.9440547715237,1267.9668514555863 1605.2240547715237,1274.4968514555862 C 1603.0840547715236,1279.6468514555863 1603.5840547715236,1284.8668514555861 1604.9440547715237,1290.1468514555863 C 1609.1540547715238,1306.4568514555863 1614.4340547715237,1322.4368514555863 1619.4640547715237,1338.4968514555862 C 1624.7940547715236,1355.5468514555862 1628.3840547715238,1372.7568514555862 1626.8640547715238,1390.7968514555862 A 73.83,73.83 0.0 0,1 1623.0440547715239,1408.156851455586 C 1620.3240547715238,1416.3468514555861 1617.744054771524,1424.5868514555862 1614.5840547715238,1432.6268514555861 A 57.27,57.27 0.0 0,1 1599.8240547715238,1454.466851455586 C 1595.224054771524,1458.636851455586 1590.5440547715239,1462.716851455586 1585.8240547715238,1466.756851455586 C 1578.0640547715238,1473.416851455586 1569.1240547715238,1477.116851455586 1559.004054771524,1479.016851455586 C 1545.004054771524,1481.6368514555859 1530.8540547715238,1482.356851455586 1516.934054771524,1485.216851455586 C 1510.404054771524,1486.566851455586 1503.624054771524,1486.146851455586 1497.0540547715239,1485.066851455586 C 1482.6340547715238,1482.696851455586 1468.2940547715239,1479.796851455586 1453.8740547715238,1477.4268514555858 C 1439.0640547715238,1474.9968514555858 1428.2940547715239,1465.9668514555858 1419.6040547715238,1454.9768514555858 C 1412.1340547715238,1445.5368514555857 1408.1140547715238,1433.9768514555858 1409.6740547715237,1421.3968514555859 A 94.65,94.65 0.0 0,0 1409.0140547715237,1390.9868514555858 C 1407.8340547715236,1385.0668514555857 1409.3140547715236,1379.0368514555857 1410.5140547715237,1373.1968514555858 A 55.08,55.08 0.0 0,0 1411.5140547715237,1354.7368514555858 A 136.28,136.28 0.0 0,1 1410.6340547715236,1339.4768514555858 C 1410.4440547715235,1327.6768514555858 1406.6340547715236,1316.8268514555857 1401.9040547715235,1306.2768514555858 A 63.2,63.2 0.0 0,1 1396.6140547715236,1287.1768514555858 C 1395.9240547715235,1280.836851455586 1394.2040547715235,1275.066851455586 1389.2840547715236,1270.576851455586 A 16.14,16.14 0.0 0,1 1384.8740547715236,1263.226851455586 C 1383.7740547715237,1259.586851455586 1382.5240547715237,1256.476851455586 1378.6840547715235,1254.456851455586 C 1375.3840547715236,1252.706851455586 1375.8040547715234,1248.776851455586 1376.1540547715235,1245.456851455586 A 65.67,65.67 0.0 0,0 1372.5040547715234,1216.686851455586 C 1369.7640547715234,1208.8568514555861 1367.8240547715234,1207.3368514555862 1359.4340547715235,1207.546851455586 C 1355.7040547715235,1207.6368514555859 1352.4340547715235,1207.056851455586 1349.7240547715235,1204.246851455586 A 17.84,17.84 0.0 0,0 1340.4540547715235,1199.3768514555861 A 55.35,55.35 0.0 0,1 1334.1840547715235,1197.206851455586 C 1328.9440547715235,1195.286851455586 1326.0540547715234,1191.416851455586 1324.7040547715235,1186.0968514555861 C 1323.1740547715235,1180.0268514555862 1322.9640547715235,1173.7968514555862 1322.4840547715235,1167.636851455586 A 48.79,48.79 0.0 0,0 1311.4840547715235,1140.3668514555861 C 1308.1740547715235,1136.206851455586 1304.8840547715236,1132.0368514555862 1301.6940547715235,1127.7768514555862 C 1299.2840547715234,1124.5568514555862 1296.7840547715234,1121.4968514555862 1293.0440547715234,1119.7068514555863 C 1289.8440547715234,1118.1668514555863 1288.1340547715233,1115.3468514555864 1286.7640547715234,1112.2368514555862 A 72.5,72.5 0.0 0,1 1282.5140547715234,1097.5868514555862 A 57.1,57.1 0.0 0,0 1278.2240547715235,1084.3468514555861 C 1274.7040547715235,1077.0068514555862 1269.1140547715236,1073.8568514555861 1261.0340547715234,1074.3468514555861 C 1255.3540547715234,1074.7368514555862 1253.0340547715234,1077.5668514555862 1254.2240547715235,1083.186851455586 A 54.84,54.84 0.0 0,0 1257.0440547715234,1091.3268514555862 C 1259.4640547715235,1097.5068514555862 1262.0440547715234,1103.6168514555861 1264.3940547715233,1109.8368514555862 C 1266.0440547715234,1114.3268514555862 1266.9640547715233,1118.926851455586 1262.8240547715234,1122.8368514555862 C 1261.3940547715233,1124.156851455586 1261.7240547715235,1125.6068514555861 1262.4040547715233,1127.0768514555862 C 1263.8740547715233,1130.3068514555862 1265.3040547715234,1133.5568514555862 1266.8840547715233,1136.7268514555863 C 1276.6040547715234,1156.1768514555863 1281.7340547715232,1176.9568514555863 1284.5940547715234,1198.3668514555864 C 1285.5340547715234,1205.3668514555864 1285.3240547715234,1212.2268514555863 1278.4240547715233,1216.7268514555863 C 1276.5440547715232,1217.9568514555863 1276.1040547715234,1220.0068514555862 1276.0940547715234,1221.9968514555862 C 1276.0940547715234,1230.3768514555863 1273.2540547715234,1237.9968514555862 1270.2240547715235,1245.6568514555863 C 1266.9640547715235,1253.9368514555863 1265.9340547715235,1262.8468514555864 1266.0540547715234,1271.7768514555862 C 1266.1540547715233,1278.3168514555862 1265.2740547715234,1284.6268514555861 1262.2740547715234,1290.4768514555863 C 1258.9840547715235,1296.8968514555863 1260.2040547715235,1303.4768514555863 1261.4440547715235,1309.9768514555863 C 1262.3040547715234,1314.5468514555862 1263.5240547715234,1319.0468514555862 1263.7140547715235,1323.7268514555863 C 1264.4840547715235,1342.7268514555863 1256.2740547715234,1358.0068514555862 1243.5740547715234,1371.2768514555862 A 72.93,72.93 0.0 0,1 1229.7540547715234,1382.6868514555863 C 1226.1940547715235,1384.9168514555863 1223.9640547715235,1387.7468514555862 1223.3640547715233,1392.1768514555863 C 1222.0040547715234,1402.1768514555863 1215.5440547715234,1408.3868514555863 1206.4840547715232,1411.7868514555862 A 56.25,56.25 0.0 0,0 1192.5740547715232,1419.386851455586 A 73.28,73.28 0.0 0,1 1151.8240547715232,1433.7768514555862 C 1135.7340547715232,1434.6268514555861 1119.9840547715232,1432.3468514555861 1104.3240547715232,1429.0968514555861 A 39.22,39.22 0.0 0,0 1085.924054771523,1429.676851455586 A 43.18,43.18 0.0 0,1 1060.434054771523,1428.5668514555862 C 1049.5740547715232,1424.886851455586 1039.434054771523,1420.2968514555862 1032.254054771523,1410.7668514555862 C 1029.584054771523,1407.2268514555863 1025.574054771523,1404.9668514555863 1021.8440547715229,1402.5668514555862 A 40.19,40.19 0.0 0,1 1004.8440547715229,1380.3168514555862 C 1002.5640547715229,1373.156851455586 999.6940547715229,1366.136851455586 1000.1940547715229,1358.3168514555862 A 35.86,35.86 0.0 0,1 1009.7040547715229,1335.4768514555863 C 1013.5040547715229,1331.3768514555863 1016.7640547715229,1326.9868514555862 1018.5940547715229,1321.6368514555863 A 10.16,10.16 0.0 0,1 1019.8140547715229,1319.2768514555864 C 1027.934054771523,1307.2768514555864 1033.254054771523,1293.8968514555863 1038.3340547715231,1280.4268514555865 A 102.37,102.37 0.0 0,0 1044.144054771523,1255.9168514555865 C 1044.504054771523,1252.7968514555866 1044.484054771523,1249.8568514555866 1041.644054771523,1247.4468514555865 C 1039.3240547715232,1245.4468514555865 1038.714054771523,1242.5768514555866 1039.464054771523,1239.5168514555864 A 8.7,8.7 0.0 0,0 1039.764054771523,1234.6268514555863 C 1036.994054771523,1234.8768514555863 1034.834054771523,1236.4768514555863 1032.424054771523,1237.2768514555864 C 1024.944054771523,1239.7468514555865 1019.4840547715229,1236.9068514555865 1019.424054771523,1229.1668514555865 C 1019.174054771523,1210.1668514555865 1012.8540547715229,1192.6468514555866 1007.0940547715229,1174.9668514555865 A 62.28,62.28 0.0 0,1 1004.0940547715229,1159.3568514555866 C 1003.7340547715229,1153.6168514555866 1003.0940547715229,1147.8768514555866 1002.2140547715229,1142.1868514555865 C 1001.4940547715229,1137.3768514555866 1000.3640547715229,1132.8168514555866 996.2140547715229,1129.3068514555864 C 993.3040547715229,1126.8568514555864 992.7540547715229,1122.7468514555865 991.9940547715229,1119.0268514555864 C 991.4440547715229,1116.3768514555863 990.6640547715228,1114.2868514555864 987.3440547715229,1113.3968514555863 C 982.674054771523,1112.1368514555863 982.0940547715229,1107.7968514555864 982.0940547715229,1103.6768514555863 C 982.0940547715229,1099.2568514555862 982.5740547715229,1094.8368514555864 981.924054771523,1090.4068514555863 C 981.274054771523,1085.9768514555863 981.024054771523,1085.5868514555864 976.4840547715229,1086.4968514555862 C 970.7740547715229,1087.6468514555863 965.3540547715229,1089.4168514555863 961.2140547715229,1093.9168514555863 C 957.7240547715229,1097.6968514555863 953.4340547715229,1100.4568514555863 949.0540547715229,1103.0968514555864 C 944.494054771523,1105.8368514555864 939.9340547715229,1108.5968514555864 935.5940547715229,1111.6668514555863 A 69.42,69.42 0.0 0,1 916.1540547715229,1121.6068514555864 C 911.4840547715229,1123.0668514555864 907.2140547715228,1125.4768514555863 902.9640547715228,1127.8568514555864 C 898.2940547715228,1130.4668514555863 893.5640547715228,1132.8568514555864 888.2640547715228,1133.8568514555864 C 884.2640547715228,1134.5868514555864 881.3940547715227,1136.9868514555865 878.8740547715228,1139.7868514555864 A 38.14,38.14 0.0 0,1 862.2740547715227,1150.3668514555864 C 857.8840547715228,1151.8568514555864 853.6840547715227,1153.9268514555863 849.3940547715227,1155.7268514555863 C 843.7940547715227,1158.0868514555862 838.7540547715228,1158.0468514555862 834.3940547715227,1152.9968514555862 C 832.0440547715227,1150.2868514555862 831.0640547715227,1150.5368514555862 828.6740547715227,1153.4168514555863 A 21.68,21.68 0.0 0,0 826.4640547715227,1156.7268514555863 A 30.28,30.28 0.0 0,1 805.7640547715226,1172.0668514555862 A 20.59,20.59 0.0 0,0 796.3440547715227,1176.6068514555861 C 785.3440547715227,1186.146851455586 772.8040547715227,1186.7768514555862 759.5640547715227,1182.5368514555862 C 757.4740547715227,1181.8668514555861 755.5640547715227,1180.8068514555862 753.4240547715227,1179.896851455586 C 751.9240547715227,1181.636851455586 752.8540547715227,1183.3668514555861 753.2740547715227,1184.896851455586 C 757.8040547715227,1201.3068514555862 758.0240547715227,1218.176851455586 758.4940547715228,1234.996851455586 A 61.76,61.76 0.0 0,1 755.8340547715228,1253.356851455586 A 43.25,43.25 0.0 0,0 754.1840547715228,1269.116851455586 A 26.81,26.81 0.0 0,1 749.1140547715228,1287.286851455586 C 744.2640547715228,1294.346851455586 743.2540547715228,1302.976851455586 740.0140547715228,1310.716851455586 C 733.3740547715228,1326.576851455586 730.3040547715227,1343.3468514555861 728.2940547715227,1360.336851455586 A 78.38,78.38 0.0 0,1 725.1840547715227,1374.596851455586 A 241.0,241.0 0.0 0,0 715.5940547715227,1418.596851455586 C 714.2540547715226,1429.8968514555859 711.0740547715227,1440.756851455586 703.1740547715227,1449.596851455586 C 701.3840547715228,1451.596851455586 700.6240547715228,1454.246851455586 699.7940547715227,1456.766851455586 C 698.4140547715227,1460.976851455586 697.0340547715227,1465.186851455586 695.7940547715227,1469.436851455586 C 691.3440547715227,1484.756851455586 683.7140547715227,1498.436851455586 674.0540547715227,1510.986851455586 C 670.7640547715228,1515.276851455586 667.9040547715227,1519.516851455586 667.1240547715228,1525.066851455586 C 666.2340547715228,1531.316851455586 662.4240547715227,1535.506851455586 656.4440547715228,1537.486851455586 A 35.57,35.57 0.0 0,0 639.2340547715228,1549.3768514555861 C 635.7540547715228,1553.7568514555862 630.8540547715228,1556.6068514555861 626.1340547715228,1559.496851455586 C 623.7040547715228,1560.986851455586 622.1340547715228,1562.776851455586 621.6240547715228,1565.636851455586 C 620.4040547715227,1572.636851455586 616.2540547715228,1577.636851455586 610.5740547715228,1581.636851455586 C 602.8440547715228,1586.946851455586 594.6740547715228,1590.996851455586 585.1240547715228,1592.3468514555861 C 571.5240547715227,1594.2568514555862 558.1240547715228,1594.1268514555861 545.0440547715227,1589.8068514555862 A 15.23,15.23 0.0 0,0 532.3140547715227,1590.8568514555861 A 85.69,85.69 0.0 0,1 513.0040547715228,1597.936851455586 C 505.39405477152275,1599.936851455586 497.6040547715228,1600.0868514555862 490.00405477152276,1597.556851455586 A 414.82,414.82 0.0 0,0 429.41405477152273,1582.626851455586 C 418.20405477152275,1580.626851455586 407.82405477152275,1576.1368514555859 397.70405477152275,1571.046851455586 C 386.9240547715228,1565.626851455586 380.1740547715227,1556.306851455586 374.09405477152274,1546.426851455586 C 371.69405477152276,1542.526851455586 371.50405477152276,1537.986851455586 371.84405477152274,1533.516851455586 A 25.16,25.16 0.0 0,0 368.3540547715227,1518.336851455586 C 363.5040547715227,1510.006851455586 361.41405477152273,1500.6468514555859 360.4940547715227,1491.086851455586 C 359.8340547715227,1484.236851455586 359.09405477152274,1477.4268514555858 357.1840547715227,1470.776851455586 C 355.9240547715227,1466.426851455586 356.41405477152273,1461.976851455586 356.91405477152273,1457.566851455586 C 358.1940547715227,1446.226851455586 361.84405477152274,1435.566851455586 366.1040547715227,1425.056851455586 A 41.61,41.61 0.0 0,1 375.91405477152273,1410.1468514555859 C 380.2340547715227,1406.1468514555859 382.0640547715227,1401.346851455586 382.63405477152276,1395.5168514555858 C 383.7340547715228,1384.2868514555857 385.28405477152273,1373.0968514555857 386.13405477152276,1361.8268514555857 C 387.13405477152276,1348.4968514555858 391.65405477152274,1335.8268514555857 394.51405477152275,1322.9068514555856 C 395.51405477152275,1318.3568514555857 396.51405477152275,1313.8168514555857 397.21405477152274,1309.2268514555856 C 398.72405477152273,1299.7168514555856 395.58405477152274,1290.8468514555855 393.45405477152275,1281.8468514555855 A 3.31,3.31 0.0 0,0 392.52405477152274,1280.0968514555855 C 384.7940547715227,1273.7968514555855 385.14405477152275,1264.3868514555854 383.26405477152275,1255.8768514555854 C 382.45405477152275,1252.2068514555854 382.13405477152276,1248.4368514555854 381.56405477152276,1244.7068514555854 A 34.65,34.65 0.0 0,0 376.7240547715228,1231.7068514555854 A 63.42,63.42 0.0 0,1 368.18405477152277,1209.5568514555853 A 390.62,390.62 0.0 0,0 358.01405477152275,1167.5568514555853 C 357.24405477152277,1164.9968514555853 356.7340547715228,1162.2568514555853 355.01405477152275,1160.2268514555853 C 349.64405477152275,1153.9868514555853 348.28405477152273,1146.3468514555852 347.41405477152273,1138.6268514555854 C 346.8140547715227,1133.3468514555855 344.2940547715227,1128.9968514555853 341.95405477152275,1124.4868514555853 C 340.8540547715227,1122.3368514555852 339.21405477152274,1121.8168514555853 336.95405477152275,1122.5368514555853 A 20.0,20.0 0.0 0,1 333.09405477152274,1123.4868514555853 C 326.8540547715227,1124.1768514555854 322.81405477152276,1121.1468514555854 321.84405477152274,1114.9568514555854 A 51.09,51.09 0.0 0,1 321.47405477152273,1102.3568514555855 A 28.08,28.08 0.0 0,0 318.15405477152274,1086.3568514555855 C 314.2440547715227,1078.9168514555854 311.15405477152274,1071.0568514555855 305.52405477152274,1064.5668514555855 A 21.75,21.75 0.0 0,1 300.7340547715227,1055.1568514555854 C 298.47405477152273,1044.8668514555854 293.3140547715227,1036.2768514555853 286.16405477152273,1028.7368514555853 A 51.06,51.06 0.0 0,1 273.53405477152273,1005.7368514555853 A 27.47,27.47 0.0 0,0 260.90405477152274,988.4068514555853 C 252.02405477152274,983.1068514555853 246.67405477152275,975.2168514555852 243.07405477152275,965.9568514555853 A 60.37,60.37 0.0 0,0 229.36405477152275,944.2568514555852 C 223.95405477152275,938.9068514555852 220.90405477152274,931.8868514555852 217.97405477152273,924.8968514555852 C 212.75405477152273,912.4468514555851 208.66405477152273,899.5568514555852 203.13405477152273,887.2068514555851 C 199.66405477152273,879.4668514555851 199.68405477152274,870.7868514555852 198.13405477152273,862.5268514555852 C 196.75405477152273,855.0968514555852 195.62405477152274,847.7468514555852 190.97405477152273,841.3668514555852 C 188.48405477152272,837.9368514555853 187.64405477152272,833.6668514555852 187.43405477152274,829.3668514555852 C 186.43405477152274,809.4268514555852 185.93405477152274,789.4968514555852 188.54405477152275,769.6168514555852 A 158.24,158.24 0.0 0,1 196.23405477152275,737.3568514555852 A 71.86,71.86 0.0 0,0 200.31405477152276,711.2468514555852 A 141.79,141.79 0.0 0,1 204.31405477152276,675.0268514555852 C 206.63405477152276,665.1668514555852 209.17405477152278,655.2068514555851 208.10405477152275,644.8368514555851 C 207.74405477152274,641.4368514555852 207.10405477152275,638.3368514555851 204.51405477152275,635.8368514555851 A 11.52,11.52 0.0 0,1 201.96405477152274,631.9968514555851 C 199.54405477152275,625.9168514555851 196.35405477152273,620.5968514555851 190.74405477152274,616.7368514555851 C 186.97405477152273,614.1468514555851 186.06405477152273,609.9468514555851 186.87405477152274,605.4268514555852 C 187.68405477152274,600.9068514555852 189.66405477152273,596.5668514555852 191.18405477152274,592.1768514555852 C 192.44405477152273,588.5068514555852 192.76405477152275,584.9968514555852 191.18405477152274,581.1768514555852 C 188.81405477152273,575.6568514555852 189.18405477152274,569.8568514555851 190.90405477152274,564.2268514555851 A 29.7,29.7 0.0 0,0 191.52405477152274,549.7868514555851 C 190.52405477152274,544.566851455585 189.60405477152275,539.326851455585 188.61405477152275,534.1068514555851 C 187.80405477152274,529.8868514555851 184.92405477152275,526.4868514555851 183.61405477152275,522.6268514555851 C 181.08405477152274,515.056851455585 175.90405477152274,512.9468514555851 168.70405477152275,511.1268514555851 C 145.91405477152276,505.3868514555851 124.11405477152275,496.68685145558516 102.77405477152274,486.7568514555851 C 86.32405477152274,479.06685145558515 73.32405477152274,467.2368514555851 62.12405477152275,453.21685145558513 A 189.18,189.18 0.0 0,0 45.434054771522746,434.30685145558505 C 38.324054771522746,427.46685145558513 33.64405477152275,418.7668514555851 30.684054771522742,409.3668514555851 C 27.554054771522743,399.3668514555851 24.04405477152274,389.7468514555851 18.484054771522743,380.7668514555851 C 11.704054771522742,369.7668514555851 9.154054771522745,357.30685145558505 8.164054771522743,344.6468514555851 A 177.82,177.82 0.0 0,0 3.0040547715233332,311.8968514555861 C 0.07405477152333306,301.0468514555861 0.5040547715233332,289.8968514555861 1.6940547715233332,278.8968514555861 C 2.264054771523333,273.5368514555861 2.634054771523333,268.34685145558603 0.7740547715233331,263.1468514555861 C -0.7359452284766669,258.93685145558607 0.1140547715233331,254.76685145558608 2.0240547715233332,250.89685145558607 A 47.76,47.76 0.0 0,1 20.26405477152333,231.13685145558608 C 24.13405477152333,228.76685145558608 28.55405477152333,228.2468514555861 33.074054771523336,228.2268514555861 C 39.28405477152334,228.2268514555861 39.28405477152334,228.10685145558608 41.294054771523335,222.0568514555861 C 42.294054771523335,219.1068514555861 43.17405477152334,216.1468514555861 44.194054771523334,213.2168514555861 A 16.0,16.0 0.0 0,1 54.64405477152334,202.8468514555861 A 123.81,123.81 0.0 0,1 73.90405477152333,197.7868514555861 C 76.49405477152334,197.3468514555861 77.90405477152333,196.23685145558608 78.36405477152333,193.73685145558608 C 81.73405477152333,177.0368514555861 85.90405477152333,160.39685145558607 83.09405477152333,143.13685145558608 C 82.63405477152334,140.36685145558607 83.30405477152333,137.8468514555861 83.85405477152334,135.26685145558608 C 84.48405477152333,132.26685145558608 83.57405477152334,130.65685145558606 80.52405477152334,130.0068514555861 A 60.72,60.72 0.0 0,1 71.52405477152334,127.58685145558609 C 65.91405477152334,125.46685145558608 64.12405477152333,122.58685145558609 65.52405477152334,116.78685145558609 C 66.19405477152334,114.02685145558608 65.84405477152333,112.56685145558609 63.33405477152335,111.61685145558609 C 57.634054771523346,109.46685145558608 52.71405477152335,106.81685145558609 49.90405477152335,100.67685145558609 C 46.04405477152335,92.2468514555861 46.46405477152335,83.88685145558608 48.57405477152335,75.36685145558609 A 28.09,28.09 0.0 0,1 60.84405477152335,57.806851455586084 A 33.65,33.65 0.0 0,0 71.71405477152332,46.356851455586074 C 78.04405477152332,35.706851455586076 87.63405477152332,29.356851455586074 99.35405477152332,25.986851455586073 C 101.69405477152333,25.306851455586074 104.02405477152332,24.596851455586073 106.35405477152332,23.986851455586073 C 108.35405477152332,23.456851455586072 110.01405477152332,22.796851455586072 110.79405477152332,20.536851455586074 C 112.57405477152332,15.396851455586074 117.06405477152332,13.956851455586074 121.79405477152332,13.196851455586074 A 107.81,107.81 0.0 0,1 133.68405477152334,11.876851455586074 C 138.60405477152332,11.636851455586074 143.18405477152334,11.196851455586074 147.14405477152334,7.516851455586074 C 149.67405477152334,5.176851455586074 153.42405477152334,5.716851455586074 156.74405477152334,5.886851455586074 C 164.58405477152334,6.2768514555860735 172.00405477152333,8.656851455586073 179.32405477152332,11.176851455586075 C 183.07405477152332,12.456851455586074 185.92405477152332,12.176851455586075 188.94405477152333,9.506851455586075 C 192.50405477152333,6.326851455586075 196.88405477152332,5.116851455586075 201.75405477152333,4.766851455586075 C 209.47405477152333,4.196851455586074 217.15405477152333,3.0668514555860744 224.81405477152333,1.9268514555860747 C 235.59405477152333,0.31685145558607586 246.44405477152333,0.17685145558607587 257.29405477152335,0.01685145558607587 A 49.53,49.53 0.0 0,1 274.29405477152335,2.556851455586076 C 275.7640547715234,3.066851455586076 277.24405477152334,3.7168514555860757 278.81405477152333,3.376851455586076 C 284.81405477152333,2.106851455586076 290.22405477152336,4.206851455586076 295.4440547715233,6.7268514555860754 C 298.18405477152334,8.046851455586076 300.5240547715233,8.726851455586075 303.4440547715233,7.086851455586076 C 308.24405477152334,4.396851455586075 312.8240547715233,5.5568514555860755 317.04405477152335,8.836851455586075 C 319.66405477152335,10.836851455586075 322.5140547715234,12.616851455586074 325.04405477152335,14.736851455586075 C 334.53405477152336,22.606851455586074 345.73405477152335,25.536851455586074 357.71405477152337,26.146851455586074 A 66.45,66.45 0.0 0,1 389.71405477152337,36.146851455586074 A 322.16,322.16 0.0 0,0 430.1840547715234,57.63685145558607 C 441.1840547715234,62.38685145558607 449.8240547715234,70.57685145558607 457.4340547715234,79.55685145558607 A 435.83,435.83 0.0 0,0 495.8540547715234,120.01685145558608 C 504.1340547715234,127.55685145558608 510.2940547715234,136.8168514555861 515.7640547715234,146.49685145558607 C 521.9940547715235,157.49685145558607 528.7640547715234,168.15685145558606 535.8240547715234,178.63685145558608 A 133.18,133.18 0.0 0,1 550.4740547715234,206.89685145558607 A 105.63,105.63 0.0 0,0 560.8940547715233,227.62685145558606 C 567.4140547715233,237.69685145558606 572.8940547715233,248.29685145558605 576.0340547715233,260.0068514555861 C 577.0340547715233,263.6368514555861 578.7140547715233,267.07685145558605 579.5840547715233,270.72685145558614 C 582.4040547715233,282.61685145558613 590.1540547715233,290.4268514555861 600.3040547715233,296.2768514555861 C 612.1840547715233,303.1268514555861 620.0740547715233,313.1468514555861 624.4740547715232,326.0368514555861 C 626.5640547715233,332.1668514555861 628.0440547715233,338.4968514555861 627.6440547715232,344.94685145558617 A 67.46,67.46 0.0 0,0 631.3140547715232,370.4168514555861 C 633.0340547715232,375.6568514555861 633.3140547715232,380.4168514555861 627.4640547715231,383.56685145558606 C 625.1140547715231,384.80685145558607 624.9240547715232,386.98685145558613 625.8640547715231,389.32685145558605 C 628.7940547715231,396.6368514555861 626.7140547715231,402.6268514555861 621.3940547715231,408.08685145558604 C 619.2740547715231,410.2668514555861 617.8540547715231,413.1568514555861 616.184054771523,415.7668514555861 C 613.494054771523,419.98685145558613 611.184054771523,423.83685145558604 616.1240547715231,428.606851455586 C 618.2440547715231,430.606851455586 619.1940547715232,434.32685145558605 620.804054771523,437.21685145558604 C 623.104054771523,441.366851455586 621.964054771523,445.366851455586 619.2940547715231,449.0368514555861 C 616.944054771523,452.2568514555861 614.2940547715231,455.2768514555861 612.2940547715231,458.736851455586 C 609.3840547715231,463.96685145558604 610.2940547715231,465.5268514555861 616.204054771523,467.016851455586 A 36.72,36.72 0.0 0,0 630.744054771523,467.376851455586 C 639.034054771523,466.146851455586 647.004054771523,466.236851455586 654.744054771523,470.146851455586 C 659.214054771523,472.406851455586 664.204054771523,472.276851455586 669.104054771523,471.996851455586 A 96.12,96.12 0.0 0,1 695.524054771523,473.996851455586 A 32.35,32.35 0.0 0,1 708.224054771523,479.68685145558607 C 714.454054771523,484.2968514555861 720.844054771523,488.68685145558607 727.024054771523,493.386851455586 C 731.504054771523,496.786851455586 736.764054771523,498.626851455586 741.674054771523,501.156851455586 Q 756.114054771523,508.68685145558595 771.114054771523,515.166851455586 C 785.114054771523,521.296851455586 798.244054771523,529.246851455586 811.584054771523,536.676851455586 C 819.234054771523,540.936851455586 826.484054771523,541.676851455586 834.454054771523,539.036851455586 Q 839.454054771523,537.3368514555859 844.454054771523,535.4668514555859 A 25.18,25.18 0.0 0,0 857.114054771523,525.186851455586 A 50.57,50.57 0.0 0,1 863.294054771523,517.386851455586 C 867.124054771523,513.4468514555859 869.794054771523,512.826851455586 874.5740547715229,515.386851455586 A 10.69,10.69 0.0 0,0 884.7140547715229,515.726851455586 C 888.8840547715229,513.856851455586 893.0540547715229,512.996851455586 897.6040547715229,514.386851455586 C 900.6040547715229,515.316851455586 903.8240547715229,514.826851455586 906.8340547715229,514.086851455586 C 911.5540547715229,512.9268514555861 916.414054771523,511.93685145558607 920.8340547715229,509.9968514555861 C 935.034054771523,503.7668514555861 949.0640547715229,497.1568514555861 963.1240547715229,490.61685145558613 A 32.77,32.77 0.0 0,0 969.3740547715229,486.84685145558615 C 987.2040547715229,473.1268514555861 1007.3740547715229,463.22685145558614 1026.584054771523,451.84685145558615 C 1032.6640547715228,448.23685145558613 1038.8740547715229,444.84685145558615 1045.054054771523,441.3768514555861 A 15.18,15.18 0.0 0,0 1052.214054771523,433.18685145558607 C 1057.044054771523,420.9968514555861 1063.684054771523,409.71685145558604 1070.674054771523,398.6468514555861 A 24.09,24.09 0.0 0,1 1078.3240547715232,391.3968514555861 A 84.94,84.94 0.0 0,1 1124.1140547715231,377.58685145558604 C 1136.1140547715231,377.4168514555861 1148.0540547715232,378.2668514555861 1159.394054771523,382.7868514555861 C 1165.8540547715231,385.366851455586 1172.7740547715232,385.7868514555861 1179.474054771523,387.19685145558606 C 1180.474054771523,387.4168514555861 1181.754054771523,387.93685145558607 1182.424054771523,386.69685145558606 A 2.64,2.64 0.0 0,0 1181.424054771523,383.20685145558605 C 1177.154054771523,380.0468514555861 1172.8040547715232,376.97685145558603 1168.484054771523,373.8868514555861 C 1168.124054771523,373.6268514555861 1167.704054771523,373.46685145558604 1167.324054771523,373.23685145558613 C 1164.824054771523,371.7868514555861 1161.744054771523,370.4968514555861 1163.1340547715229,366.7968514555861 C 1164.4040547715229,363.4268514555861 1167.604054771523,363.6468514555861 1170.524054771523,363.7968514555861 C 1176.194054771523,364.0468514555861 1181.224054771523,366.48685145558613 1186.314054771523,368.6368514555861 C 1189.544054771523,369.98685145558613 1192.6840547715228,371.58685145558604 1197.194054771523,373.68685145558607 L 1197.1940547715235,373.68685145558607 M 1156.5840547715236,399.0268514555861 C 1131.8240547715236,383.736851455586 1096.0340547715236,393.0268514555861 1084.1740547715235,416.71685145558604 C 1096.0940547715236,411.30685145558607 1107.1740547715235,405.7668514555861 1119.1740547715235,402.71685145558604 C 1131.4040547715235,399.496851455586 1144.1140547715236,400.68685145558607 1156.5840547715236,399.0368514555861 L 1156.5840547715236,399.0268514555861 M 1374.5840547715236,422.866851455586 C 1363.7140547715237,426.996851455586 1352.8740547715236,431.1668514555861 1344.9440547715235,440.2868514555861 C 1356.8740547715236,437.93685145558607 1367.1640547715235,432.82685145558605 1374.6040547715236,422.876851455586 L 1374.5840547715236,422.866851455586 M 1302.3540547715236,374.09685145558603 C 1292.7740547715237,380.2768514555861 1294.7640547715237,389.5368514555861 1294.0040547715237,397.9068514555861 C 1298.2740547715237,390.8968514555861 1300.3440547715236,383.1368514555861 1302.3740547715236,374.106851455586 L 1302.3540547715236,374.09685145558603"/>
</svg>
