<?xml version="1.0" ?>
<svg xmlns="http://www.w3.org/2000/svg" xmlns:ev="http://www.w3.org/2001/xml-events" xmlns:xlink="http://www.w3.org/1999/xlink" baseProfile="full" data-name="Layer 1" height="1347" transform="scale(0.07423904974016332 0.07423904974016332) translate(-866.0 -673.5)" version="1.1" viewBox="0 0 1732 1347" width="1732">
	<defs/>
	<path d="M 494.62160147534354,1115.0775879742932 C 493.75160147534353,1095.0775879742932 493.62160147534354,1074.9975879742933 487.5116014753435,1055.6075879742932 C 483.2816014753435,1042.1075879742932 482.8416014753435,1028.717587974293 487.87160147534354,1015.3275879742934 C 490.87160147534354,1007.3275879742934 489.87160147534354,999.0775879742934 488.9516014753435,990.9275879742934 A 138.89,138.89 0.0 0,1 488.0316014753435,969.0675879742934 A 124.18,124.18 0.0 0,0 486.9516014753435,944.4775879742933 A 27.18,27.18 0.0 0,0 477.63160147534353,927.5375879742933 C 464.63160147534353,915.9275879742933 453.1616014753435,903.0275879742933 444.8316014753435,887.5375879742933 C 439.6716014753435,877.9075879742933 437.38160147534353,867.4475879742932 435.00160147534353,857.0275879742933 A 92.56,92.56 0.0 0,0 425.5316014753435,832.1775879742933 C 416.3716014753435,815.7475879742933 411.44160147534353,798.0275879742933 409.8416014753435,779.4175879742933 C 408.31160147534354,761.5375879742933 404.8416014753435,744.2575879742933 397.4216014753435,727.7875879742933 C 392.7216014753435,717.4075879742933 388.8516014753435,706.6575879742933 384.8416014753435,695.9875879742933 C 381.7816014753435,687.8175879742934 379.6516014753435,679.2275879742933 380.0516014753435,670.5475879742933 C 380.8516014753435,653.3375879742932 377.2116014753435,636.9575879742932 372.1916014753435,620.7775879742933 A 113.0,113.0 0.0 0,1 367.1916014753435,587.0775879742932 C 367.1916014753435,571.4675879742932 363.45160147534347,556.2975879742933 360.2416014753435,541.0775879742932 A 84.71,84.71 0.0 0,1 358.70160147534347,515.8875879742932 A 266.05,266.05 0.0 0,0 359.20160147534347,485.08758797429317 A 28.0,28.0 0.0 0,0 356.4916014753435,473.1475879742932 C 346.4316014753435,453.1475879742932 339.4916014753435,431.84758797429316 329.7816014753435,411.7075879742932 A 39.75,39.75 0.0 0,0 324.0516014753435,402.41758797429316 C 321.7216014753435,399.77758797429317 320.0516014753435,399.8975879742932 318.20160147534347,402.9575879742932 C 315.5516014753435,407.2675879742932 314.20160147534347,412.1475879742932 312.4416014753435,416.84758797429316 C 309.78160147534345,423.9475879742932 306.7316014753435,430.84758797429316 301.4416014753435,436.42758797429315 C 295.4416014753435,442.71758797429317 289.4416014753435,448.91758797429316 283.1016014753435,454.83758797429317 A 35.0,35.0 0.0 0,1 265.5116014753435,463.53758797429316 A 12.88,12.88 0.0 0,0 257.8416014753435,467.53758797429316 C 249.5316014753435,476.87758797429314 238.8416014753435,477.43758797429314 227.6016014753435,475.53758797429316 C 223.00160147534353,474.7575879742932 220.07160147534353,471.71758797429317 217.7216014753435,467.78758797429316 C 214.45160147534352,462.33758797429317 214.20160147534352,462.24758797429314 208.9716014753435,465.78758797429316 C 202.1116014753435,470.46758797429317 194.82160147534353,473.05758797429314 186.4216014753435,471.97758797429316 C 182.6716014753435,471.49758797429314 179.25160147534353,472.97758797429316 175.76160147534353,474.02758797429317 C 165.9216014753435,477.02758797429317 161.0516014753435,472.9475879742932 162.6616014753435,462.79758797429315 C 163.2116014753435,459.3275879742931 163.0316014753435,457.29758797429315 159.13160147534353,456.24758797429314 C 156.5916014753435,455.55758797429314 155.4816014753435,452.97758797429316 155.13160147534353,450.3275879742931 A 27.37,27.37 0.0 0,1 155.9216014753435,438.12758797429314 C 160.0516014753435,425.2075879742931 160.1516014753435,412.05758797429314 157.7116014753435,398.85758797429315 A 44.74,44.74 0.0 0,0 149.6116014753435,380.91758797429316 C 146.1616014753435,376.15758797429316 143.4816014753435,375.91758797429316 138.0316014753435,378.22758797429316 A 14.85,14.85 0.0 0,1 132.82160147534347,379.7675879742932 C 127.90160147534348,379.91758797429316 123.08160147534349,379.29758797429315 118.87160147534348,383.21758797429317 C 116.87160147534348,385.03758797429316 113.66160147534349,384.1475879742932 110.96160147534349,383.3175879742932 A 30.0,30.0 0.0 0,1 99.81160147534348,376.7975879742932 C 87.64160147534358,365.93758797429325 76.67160147534358,354.07758797429324 69.24160147534359,339.35758797429327 C 66.24160147534359,333.44758797429324 63.241601475343586,327.5275879742933 60.48160147534359,321.5375879742933 C 57.13160147534359,314.29758797429326 53.671601475343586,307.16758797429327 48.40160147534359,300.93758797429325 A 29.74,29.74 0.0 0,1 41.77160147534359,285.3475879742933 C 40.77160147534359,276.6975879742933 38.101601475343585,268.3975879742933 36.95160147534359,259.79758797429326 A 35.24,35.24 0.0 0,0 32.77160147534359,246.84758797429325 C 29.881601475343587,241.78758797429325 29.271601475343587,236.01758797429324 27.991601475343586,230.47758797429324 C 27.141601475343585,226.79758797429324 25.991601475343586,224.12758797429325 21.551601475343585,223.98758797429323 C 18.031601475343585,223.87758797429322 15.921601475343586,221.24758797429322 14.281601475343585,218.37758797429322 A 26.32,26.32 0.0 0,1 11.281601475343585,209.31758797429322 C 10.471601475343585,204.31758797429322 9.091601475343586,199.68758797429322 5.4316014753435855,195.7675879742932 C 2.5716014753435856,192.6975879742932 1.7816014753435856,188.50758797429322 1.4316014753435855,184.31758797429322 A 100.37,100.37 0.0 0,1 1.7916014753435854,165.1675879742932 C 2.7916014753435854,157.1075879742932 1.9116014753435855,149.21758797429322 0.7916014753435854,141.30758797429323 A 89.35,89.35 0.0 0,1 0.15160147534358537,124.23758797429323 A 17.5,17.5 0.0 0,1 7.09160147534358,110.67758797429323 C 13.09160147534358,106.04758797429324 19.261601475343582,101.77758797429323 26.351601475343582,99.05758797429323 C 29.651601475343583,97.78758797429322 32.461601475343585,96.53758797429322 33.431601475343584,92.5175879742932 C 34.30160147534358,88.88758797429321 37.321601475343584,86.75758797429322 41.001601475343584,86.5175879742932 A 78.15,78.15 0.0 0,0 63.52160147534359,81.56758797429322 C 68.65160147534358,79.56758797429322 74.42160147534359,80.72758797429321 79.83160147534359,81.56758797429322 C 88.83160147534359,82.94758797429321 97.5416014753436,81.35758797429321 106.2016014753436,79.06758797429322 A 16.76,16.76 0.0 0,0 115.2016014753436,73.1775879742932 C 116.8716014753436,71.1175879742932 116.7316014753436,69.5175879742932 114.3516014753436,68.2375879742932 C 110.2816014753436,66.0575879742932 106.9416014753436,62.92758797429321 103.4916014753436,59.937587974293216 C 102.6316014753436,59.187587974293216 101.7116014753436,58.49758797429322 100.9016014753436,57.697587974293214 C 98.3216014753436,55.12758797429321 96.8116014753436,52.047587974293215 97.9016014753436,48.407587974293214 C 99.0416014753436,44.49758797429322 102.2216014753436,42.56758797429321 105.9916014753436,41.867587974293215 A 33.09,33.09 0.0 0,1 116.9116014753436,42.007587974293216 A 32.58,32.58 0.0 0,0 133.6816014753436,39.767587974293214 A 89.73,89.73 0.0 0,0 159.4316014753436,24.407587974293214 C 163.6116014753436,20.867587974293215 167.95160147534364,17.507587974293216 172.09160147534362,13.917587974293214 C 183.20160147534358,4.257587974293214 196.16160147534362,1.0575879742932148 210.39160147534358,3.5375879742932135 C 218.7416014753436,4.987587974293214 226.7416014753436,4.207587974293213 234.7916014753436,2.3175879742932137 A 52.63,52.63 0.0 0,1 253.1316014753436,0.9775879742932136 A 78.06,78.06 0.0 0,0 272.2616014753436,0.3875879742932137 A 51.0,51.0 0.0 0,1 298.40160147534357,4.027587974293214 Q 305.0616014753436,6.707587974293213 311.68160147534354,9.517587974293214 C 320.5816014753435,13.237587974293215 329.68160147534354,16.437587974293216 339.42160147534355,16.337587974293214 C 357.29160147534355,16.147587974293213 371.2716014753436,24.727587974293215 384.42160147534355,35.437587974293216 C 386.55160147534355,37.157587974293214 388.53160147534356,39.05758797429321 390.60160147534356,40.84758797429321 C 393.81160147534354,43.62758797429321 397.47160147534356,45.437587974293216 401.79160147534355,45.337587974293214 C 409.18160147534354,45.157587974293214 415.13160147534353,48.337587974293214 419.99160147534354,53.45758797429321 C 424.85160147534356,58.57758797429321 430.8316014753435,62.36758797429321 437.24160147534354,65.54758797429321 C 453.5216014753435,73.6475879742932 463.30160147534355,87.25758797429322 468.91160147534356,104.1775879742932 C 469.7016014753436,106.5575879742932 470.30160147534355,109.00758797429322 470.91160147534356,111.43758797429322 A 22.18,22.18 0.0 0,0 478.47160147534356,123.37758797429322 C 482.18160147534354,126.37758797429322 485.81160147534354,129.53758797429322 489.47160147534356,132.5775879742932 C 493.67160147534355,136.0175879742932 496.03160147534356,140.2675879742932 494.79160147534355,145.7775879742932 C 492.96160147534357,153.8975879742932 496.48160147534355,160.0475879742932 501.79160147534355,165.4575879742932 C 511.94160147534353,175.7375879742932 523.1016014753436,183.8975879742932 538.4916014753436,184.4575879742932 C 546.1616014753436,184.7375879742932 546.9616014753436,186.03758797429322 548.5616014753437,193.6575879742932 C 549.1716014753437,196.5575879742932 551.2616014753437,197.6575879742932 553.4116014753437,198.9875879742932 C 562.1116014753437,204.2175879742932 563.3416014753436,206.6575879742932 560.3316014753436,216.2975879742932 C 558.7216014753436,221.47758797429321 560.4216014753437,225.2475879742932 563.5516014753437,228.78758797429322 C 570.1016014753436,236.2375879742932 577.5516014753437,242.61758797429323 586.9216014753437,246.25758797429322 A 23.18,23.18 0.0 0,1 600.6916014753436,259.6575879742932 A 34.08,34.08 0.0 0,0 610.3916014753437,272.7175879742932 A 133.0,133.0 0.0 0,1 634.0816014753437,298.2975879742932 C 639.6516014753438,306.3575879742932 646.3516014753437,312.9275879742932 656.0116014753437,316.0475879742932 A 27.0,27.0 0.0 0,1 666.9316014753437,322.9675879742932 C 672.7016014753436,328.88758797429324 679.8716014753437,330.64758797429323 687.6116014753436,329.9675879742932 C 696.6716014753436,329.12758797429325 704.3016014753437,331.14758797429323 710.2816014753436,338.3675879742932 A 11.39,11.39 0.0 0,0 714.7316014753436,341.4775879742932 C 731.9316014753437,348.4775879742932 749.5316014753436,352.4775879742932 768.1116014753436,347.76758797429324 C 772.5516014753437,346.64758797429323 777.0216014753436,345.45758797429323 781.6116014753436,345.86758797429326 C 796.7316014753436,347.20758797429323 811.6916014753436,345.04758797429326 826.7016014753436,344.05758797429326 C 830.6116014753436,343.80758797429326 834.5416014753437,343.67758797429326 838.2816014753437,344.73758797429326 C 852.4116014753437,348.73758797429326 866.9416014753436,350.25758797429324 881.4516014753436,351.80758797429326 C 895.7416014753436,353.3475879742933 909.9916014753436,355.38758797429324 924.4516014753436,355.80758797429326 A 92.37,92.37 0.0 0,0 942.2016014753436,354.80758797429326 A 87.54,87.54 0.0 0,1 974.2016014753436,355.01758797429324 C 987.0116014753436,357.5975879742932 1000.0416014753437,358.01758797429324 1013.0716014753436,358.11758797429326 C 1032.4716014753437,358.2775879742933 1051.8916014753436,358.20758797429323 1071.3016014753437,358.41758797429327 A 221.91,221.91 0.0 0,0 1099.3016014753437,356.55758797429326 C 1120.6416014753436,354.05758797429326 1141.7316014753437,355.13758797429324 1162.4316014753438,360.95758797429323 C 1179.4316014753438,365.75758797429324 1196.9116014753438,367.55758797429326 1214.4316014753438,368.86758797429326 A 111.61,111.61 0.0 0,1 1235.3116014753439,372.5275879742933 A 236.87,236.87 0.0 0,0 1281.221601475344,379.80758797429326 C 1297.391601475344,380.91758797429327 1313.551601475344,382.19758797429324 1329.711601475344,383.37758797429325 C 1341.641601475344,384.24758797429325 1353.371601475344,382.2275879742933 1365.181601475344,381.00758797429324 C 1380.661601475344,379.4075879742932 1394.811601475344,373.6575879742932 1408.851601475344,367.61758797429326 C 1428.9916014753442,358.9675879742933 1449.221601475344,350.61758797429326 1470.211601475344,344.20758797429323 A 53.13,53.13 0.0 0,0 1493.911601475344,329.8475879742932 C 1505.0516014753441,318.06758797429325 1516.081601475344,306.3475879742932 1524.981601475344,292.5975879742932 C 1534.771601475344,277.4675879742932 1545.3116014753439,262.8375879742932 1554.651601475344,247.38758797429318 C 1566.951601475344,227.07758797429318 1572.771601475344,204.5975879742932 1577.461601475344,181.76758797429318 C 1581.731601475344,160.9075879742932 1586.931601475344,140.41758797429318 1595.8216014753439,120.98758797429318 C 1599.5716014753439,112.79758797429318 1601.3516014753438,104.10758797429318 1602.1816014753438,95.1875879742932 C 1603.5016014753437,81.00758797429319 1607.2916014753437,67.37758797429319 1611.7816014753437,53.947587974293185 A 42.78,42.78 0.0 0,1 1623.4016014753436,36.35758797429319 C 1629.1716014753436,30.917587974293188 1635.8616014753436,30.827587974293188 1642.5116014753435,33.767587974293185 C 1648.4316014753435,36.377587974293185 1650.3216014753434,41.977587974293186 1649.9616014753435,48.02758797429318 C 1649.0616014753434,62.96758797429318 1652.5116014753435,77.57758797429318 1652.9616014753435,92.38758797429318 C 1653.6616014753436,114.51758797429318 1654.5516014753434,136.66758797429318 1652.8216014753434,158.79758797429318 A 61.89,61.89 0.0 0,1 1651.6016014753434,167.5975879742932 C 1646.4516014753433,190.3375879742932 1644.9316014753433,213.5975879742932 1640.6816014753433,236.5175879742932 A 119.9,119.9 0.0 0,1 1633.3716014753434,261.42758797429326 A 94.21,94.21 0.0 0,0 1629.8016014753434,270.31758797429325 C 1622.8016014753434,293.0875879742932 1608.9016014753433,311.63758797429324 1594.2916014753434,329.89758797429323 C 1577.9816014753435,350.2975879742932 1559.6016014753434,368.6575879742932 1540.4716014753435,386.3375879742932 C 1533.9116014753436,392.4075879742932 1528.1816014753435,399.2375879742932 1522.5216014753435,406.0975879742932 A 235.0,235.0 0.0 0,1 1484.9116014753436,442.89758797429323 C 1477.4816014753435,448.62758797429325 1471.0116014753435,455.43758797429325 1464.8116014753437,462.45758797429323 A 82.0,82.0 0.0 0,1 1446.4016014753436,477.64758797429323 C 1434.9816014753435,484.76758797429324 1430.4016014753436,497.12758797429325 1433.9316014753435,510.20758797429323 C 1437.8216014753436,524.4075879742933 1444.6116014753436,537.3375879742932 1451.2016014753435,550.3675879742932 C 1460.2016014753435,568.2075879742932 1465.7016014753435,587.2775879742932 1470.4016014753436,606.5875879742932 A 43.23,43.23 0.0 0,1 1470.8716014753436,622.9475879742932 A 27.22,27.22 0.0 0,0 1474.1216014753436,640.7575879742932 C 1485.2316014753435,660.3775879742932 1490.7916014753437,681.6775879742931 1492.5116014753437,704.0175879742932 C 1493.8516014753436,721.3975879742932 1496.7916014753437,738.3775879742932 1502.8316014753436,754.8275879742931 C 1507.1816014753435,766.6475879742932 1510.2216014753437,778.9475879742931 1510.5316014753437,791.5475879742932 C 1511.0816014753436,814.1375879742932 1520.2816014753437,833.6375879742932 1531.5316014753437,852.2875879742932 C 1538.1416014753436,863.2875879742932 1545.1016014753436,873.9275879742931 1550.1316014753436,885.7475879742932 A 43.35,43.35 0.0 0,0 1562.4716014753435,901.9975879742932 C 1575.7916014753434,912.9975879742932 1585.0716014753434,927.0975879742932 1592.6916014753435,942.2375879742932 C 1601.3016014753434,959.3475879742932 1613.0616014753434,974.1375879742932 1625.0716014753436,988.7975879742932 C 1639.0716014753436,1005.8775879742932 1649.7016014753438,1024.9475879742931 1658.5716014753436,1045.027587974293 C 1662.1716014753436,1053.1775879742931 1665.5716014753436,1061.4075879742932 1669.5716014753436,1069.357587974293 A 105.13,105.13 0.0 0,0 1679.9016014753436,1085.457587974293 C 1687.2216014753435,1095.087587974293 1694.3316014753436,1104.887587974293 1701.4316014753435,1114.677587974293 C 1712.1516014753436,1129.457587974293 1717.8116014753437,1146.197587974293 1719.9016014753436,1164.167587974293 A 71.74,71.74 0.0 0,0 1725.6716014753436,1185.897587974293 C 1733.1116014753436,1202.197587974293 1732.4716014753435,1218.677587974293 1726.8016014753437,1235.2675879742928 C 1725.1416014753436,1240.147587974293 1721.4716014753437,1243.7475879742929 1718.1416014753436,1247.457587974293 A 65.26,65.26 0.0 0,1 1708.5716014753436,1256.2375879742929 A 158.0,158.0 0.0 0,0 1687.6916014753435,1274.9675879742929 A 78.13,78.13 0.0 0,1 1670.6916014753435,1288.647587974293 C 1665.8816014753436,1291.5075879742928 1662.1116014753436,1295.407587974293 1658.5116014753435,1299.557587974293 C 1657.6216014753434,1300.557587974293 1656.4316014753435,1301.6975879742931 1656.2316014753435,1302.907587974293 C 1655.0716014753434,1309.907587974293 1649.7716014753435,1313.107587974293 1644.4616014753435,1316.287587974293 C 1637.6116014753436,1320.397587974293 1630.7216014753435,1324.4475879742931 1623.7216014753435,1328.287587974293 A 53.6,53.6 0.0 0,1 1596.8116014753434,1335.097587974293 C 1584.4216014753433,1334.897587974293 1572.2316014753435,1335.987587974293 1560.2416014753435,1339.4675879742929 A 51.34,51.34 0.0 0,1 1534.4516014753435,1339.8075879742928 A 360.52,360.52 0.0 0,0 1482.4516014753435,1331.3875879742927 C 1465.7716014753435,1330.0875879742928 1456.4516014753435,1317.3075879742928 1454.2116014753435,1303.3875879742927 A 63.25,63.25 0.0 0,0 1449.9916014753435,1287.5775879742928 C 1446.9916014753435,1280.8175879742928 1445.8516014753434,1273.5775879742928 1444.9016014753436,1266.3475879742928 A 31.0,31.0 0.0 0,0 1438.1616014753436,1250.1575879742927 A 30.61,30.61 0.0 0,1 1433.9916014753435,1243.8975879742927 C 1429.1116014753434,1233.5075879742926 1422.1816014753435,1224.4275879742927 1415.8216014753434,1214.9775879742926 A 82.41,82.41 0.0 0,0 1397.8916014753434,1196.2475879742926 C 1386.7216014753433,1187.5175879742926 1378.2916014753434,1176.5575879742926 1370.4416014753433,1164.9975879742926 C 1369.6716014753433,1163.8675879742925 1368.9016014753433,1162.7375879742926 1368.2116014753433,1161.5475879742926 C 1362.3416014753434,1151.4075879742925 1355.4616014753433,1142.3575879742925 1345.6716014753433,1135.3475879742925 C 1337.9216014753433,1129.8075879742926 1331.5116014753432,1122.4775879742926 1325.6716014753433,1114.8175879742926 A 99.4,99.4 0.0 0,0 1301.5316014753432,1091.7275879742926 A 113.94,113.94 0.0 0,1 1278.5316014753432,1071.3275879742926 A 57.24,57.24 0.0 0,0 1265.6216014753431,1060.1875879742925 A 77.19,77.19 0.0 0,1 1238.8616014753432,1032.3575879742925 C 1233.7416014753433,1023.4375879742927 1228.451601475343,1014.6575879742926 1224.681601475343,1005.0475879742927 A 58.49,58.49 0.0 0,0 1215.931601475343,989.5975879742927 C 1199.171601475343,968.8175879742927 1189.8416014753432,944.7375879742926 1184.741601475343,918.8875879742926 A 62.72,62.72 0.0 0,0 1174.231601475343,893.8875879742926 A 46.16,46.16 0.0 0,1 1166.6116014753432,876.4475879742926 A 58.52,58.52 0.0 0,0 1152.8416014753432,849.2975879742926 A 59.88,59.88 0.0 0,1 1139.711601475343,825.5175879742926 A 53.74,53.74 0.0 0,0 1132.041601475343,808.7975879742926 C 1129.561601475343,805.2875879742926 1126.491601475343,803.5175879742926 1122.181601475343,804.0475879742926 A 20.06,20.06 0.0 0,0 1119.461601475343,804.3075879742926 C 1106.951601475343,807.6975879742926 1093.921601475343,809.3075879742926 1082.1216014753431,815.1075879742925 A 107.41,107.41 0.0 0,1 1060.401601475343,823.2975879742926 A 21.42,21.42 0.0 0,0 1054.5916014753432,825.2975879742926 C 1044.3216014753432,831.3675879742926 1032.951601475343,834.9875879742926 1022.2916014753432,840.1775879742926 A 36.48,36.48 0.0 0,0 1011.6316014753432,847.5375879742926 A 31.78,31.78 0.0 0,1 994.4916014753433,856.9275879742926 C 987.6016014753433,858.3275879742926 981.9316014753433,861.6275879742926 976.3916014753432,865.9275879742926 A 224.89,224.89 0.0 0,1 948.0016014753433,884.7975879742926 A 281.09,281.09 0.0 0,1 910.2516014753433,902.3975879742926 A 28.82,28.82 0.0 0,0 904.1616014753432,905.4875879742926 A 58.81,58.81 0.0 0,1 873.3916014753432,915.7975879742926 A 33.83,33.83 0.0 0,0 851.6616014753432,924.6375879742926 C 844.8816014753432,930.8475879742927 836.7516014753433,934.1575879742926 827.9416014753432,936.1875879742926 C 819.9416014753432,938.0375879742926 812.2516014753431,940.4875879742925 805.1116014753432,944.9975879742925 C 798.4416014753432,949.2075879742926 790.5616014753432,949.9975879742925 782.6416014753431,949.6075879742925 C 777.5616014753431,949.3275879742926 777.9216014753431,949.5375879742925 776.7616014753431,954.5375879742925 C 774.1016014753432,966.0575879742925 776.1116014753432,976.6675879742925 781.7616014753431,986.8575879742925 A 29.3,29.3 0.0 0,1 785.2816014753431,1006.7175879742925 C 784.2816014753431,1012.1675879742926 785.2816014753431,1017.0875879742925 787.2816014753431,1022.0575879742926 A 45.45,45.45 0.0 0,1 790.6116014753432,1044.1875879742925 C 789.7516014753431,1052.0575879742923 787.4516014753432,1059.4275879742925 781.7816014753431,1065.2675879742924 A 18.0,18.0 0.0 0,0 776.6316014753431,1078.9875879742924 C 777.1716014753431,1093.4375879742925 775.6916014753431,1107.6975879742924 773.2916014753431,1121.9175879742925 C 772.4916014753431,1126.6575879742925 773.0216014753431,1131.4975879742924 773.4516014753431,1136.2675879742924 C 774.4516014753431,1147.7875879742924 772.4516014753431,1158.5775879742923 765.9316014753431,1168.2675879742924 A 15.19,15.19 0.0 0,0 763.3816014753431,1177.9775879742924 A 208.69,208.69 0.0 0,0 766.0616014753431,1204.4775879742924 A 19.79,19.79 0.0 0,1 760.8116014753431,1222.1975879742924 C 758.481601475343,1224.6975879742924 755.9516014753431,1227.0175879742924 753.4116014753431,1229.3175879742923 A 23.55,23.55 0.0 0,0 747.0016014753431,1238.0775879742923 A 47.62,47.62 0.0 0,1 738.9316014753431,1251.5275879742924 A 23.32,23.32 0.0 0,0 733.0816014753431,1267.1975879742924 C 733.0816014753431,1269.0275879742924 732.8216014753431,1270.8475879742925 732.861601475343,1272.6775879742925 A 18.7,18.7 0.0 0,1 724.4316014753431,1289.0275879742924 A 34.0,34.0 0.0 0,0 711.6916014753431,1306.3575879742923 A 23.82,23.82 0.0 0,1 699.861601475343,1319.9975879742924 A 65.08,65.08 0.0 0,0 685.991601475343,1329.9975879742924 C 679.791601475343,1335.7275879742924 672.4616014753431,1338.1175879742923 664.371601475343,1339.2375879742924 C 653.7116014753431,1340.7075879742924 642.9616014753431,1340.7675879742924 632.291601475343,1341.8375879742923 C 620.031601475343,1343.0675879742923 607.731601475343,1343.9475879742922 595.571601475343,1346.0575879742923 A 60.25,60.25 0.0 0,1 572.431601475343,1345.5575879742923 C 560.261601475343,1342.9675879742924 547.921601475343,1343.0775879742923 535.6116014753429,1343.0775879742923 C 526.4816014753429,1343.0775879742923 517.3616014753429,1343.8675879742923 508.30160147534286,1342.1675879742922 A 20.09,20.09 0.0 0,0 497.5416014753429,1343.3375879742923 A 26.6,26.6 0.0 0,1 475.6416014753429,1342.1375879742923 A 31.43,31.43 0.0 0,0 465.17160147534287,1339.1375879742923 A 46.87,46.87 0.0 0,1 450.87160147534286,1334.6175879742923 C 443.87160147534286,1331.3575879742923 440.7816014753429,1325.6175879742923 440.87160147534286,1318.1175879742923 A 39.0,39.0 0.0 0,1 443.50160147534285,1304.0475879742924 C 451.31160147534285,1284.2275879742924 456.38160147534285,1263.7175879742924 459.99160147534286,1242.7375879742924 C 461.81160147534285,1232.1675879742925 464.4116014753429,1221.8175879742923 464.19160147534285,1210.9675879742924 C 464.11160147534287,1206.6975879742924 465.2816014753428,1202.3875879742925 466.0416014753429,1198.1175879742925 A 27.92,27.92 0.0 0,1 474.6416014753429,1182.1175879742925 C 479.5116014753429,1177.6075879742925 482.6416014753429,1172.3475879742925 483.1616014753429,1165.5075879742926 C 483.5416014753429,1160.7375879742926 485.2816014753429,1156.1675879742927 487.0816014753429,1151.7175879742927 C 491.7416014753429,1139.9575879742927 495.6216014753429,1128.0675879742926 494.6216014753429,1115.0775879742926 L 494.62160147534354,1115.0775879742932"/>
</svg>
