<?xml version="1.0" ?>
<svg xmlns="http://www.w3.org/2000/svg" xmlns:ev="http://www.w3.org/2001/xml-events" xmlns:xlink="http://www.w3.org/1999/xlink" baseProfile="full" data-name="Layer 1" height="1469" transform="scale(0.06807351940095303 0.06807351940095303) translate(-868.0 -734.5)" version="1.1" viewBox="0 0 1736 1469" width="1736">
	<defs/>
	<path d="M 1463.6039852974025,451.4913436552322 C 1463.2839852974025,454.7413436552322 1464.6039852974025,457.2213436552322 1465.7139852974024,459.7513436552322 C 1466.3139852974023,461.14134365523216 1467.1639852974024,462.4413436552322 1467.6439852974024,463.8613436552322 C 1475.3739852974024,487.20134365523217 1490.5739852974025,506.26134365523217 1503.5339852974025,526.6013436552322 A 70.75,70.75 0.0 0,0 1510.5339852974025,535.5213436552322 C 1518.6639852974026,544.6513436552322 1516.2339852974026,552.2513436552322 1504.3739852974024,555.2313436552322 C 1503.9539852974024,555.3413436552322 1503.6039852974025,555.7913436552321 1502.9839852974023,556.2313436552322 C 1504.0939852974022,560.2913436552321 1506.6139852974025,563.8013436552322 1508.3839852974024,567.6313436552322 C 1511.1139852974025,573.5313436552321 1512.7639852974025,579.4813436552322 1509.9439852974024,585.8513436552322 C 1509.0939852974025,587.7813436552321 1509.4339852974024,589.8513436552322 1509.5639852974023,591.8513436552322 C 1510.3339852974023,603.5413436552323 1508.7439852974023,605.7613436552322 1497.5639852974023,608.7213436552322 C 1496.9139852974022,610.7213436552322 1498.3039852974023,612.0913436552322 1499.1139852974022,613.5513436552322 C 1510.0339852974023,633.4913436552323 1519.1739852974022,654.3013436552322 1528.9239852974022,674.8113436552322 A 208.52,208.52 0.0 0,1 1547.8039852974023,736.8113436552322 A 44.72,44.72 0.0 0,1 1546.4939852974023,756.2913436552323 A 110.86,110.86 0.0 0,0 1541.6939852974024,794.4013436552323 C 1542.0339852974023,802.1413436552323 1540.1739852974024,809.2013436552322 1537.1639852974024,816.4013436552323 C 1531.4339852974024,830.0913436552323 1529.2239852974024,844.3413436552323 1531.9239852974024,859.3313436552322 C 1535.7839852974023,880.6913436552322 1539.9239852974024,901.9413436552322 1545.7239852974024,922.9013436552323 C 1553.9439852974024,952.7413436552323 1567.7239852974024,979.2013436552322 1590.1739852974024,1000.8013436552322 Q 1594.0039852974023,1004.4713436552322 1597.6439852974024,1008.3313436552322 C 1601.3239852974025,1012.2213436552322 1604.5339852974025,1016.5313436552323 1605.9639852974024,1021.7113436552322 C 1607.8539852974025,1028.5013436552322 1611.7539852974023,1033.861343655232 1616.2039852974024,1039.151343655232 C 1632.8139852974023,1058.851343655232 1651.2039852974024,1076.871343655232 1668.4039852974024,1096.0413436552321 C 1674.1639852974024,1102.4813436552322 1679.4039852974024,1109.1913436552322 1683.2539852974023,1116.9713436552322 C 1688.1239852974022,1126.9713436552322 1693.8539852974022,1136.5213436552322 1696.8439852974022,1147.3113436552321 C 1697.6739852974022,1150.3113436552321 1699.8439852974022,1151.881343655232 1701.9239852974022,1153.661343655232 C 1708.3339852974023,1159.181343655232 1713.543985297402,1165.571343655232 1716.8239852974023,1173.441343655232 C 1718.8939852974022,1178.381343655232 1720.4239852974022,1183.441343655232 1719.8239852974023,1188.861343655232 A 24.37,24.37 0.0 0,0 1722.1039852974022,1201.401343655232 C 1728.6639852974022,1216.0413436552321 1730.6939852974022,1231.951343655232 1734.8439852974022,1247.261343655232 C 1736.5639852974023,1253.6213436552318 1736.7239852974024,1260.561343655232 1729.1039852974022,1264.261343655232 C 1726.4839852974023,1265.541343655232 1726.5039852974023,1267.8213436552319 1727.2239852974021,1270.1113436552318 C 1731.063985297402,1282.281343655232 1727.593985297402,1294.751343655232 1728.793985297402,1307.031343655232 A 13.2,13.2 0.0 0,1 1726.743985297402,1315.031343655232 C 1722.1339852974022,1322.6513436552318 1721.243985297402,1331.271343655232 1720.293985297402,1339.731343655232 C 1718.903985297402,1352.211343655232 1713.163985297402,1360.791343655232 1701.293985297402,1365.551343655232 C 1694.293985297402,1368.3513436552319 1687.783985297402,1372.3613436552318 1681.033985297402,1375.791343655232 C 1671.6639852974022,1380.551343655232 1661.883985297402,1383.5713436552319 1651.1939852974022,1382.731343655232 C 1643.8839852974022,1382.151343655232 1637.1939852974022,1384.491343655232 1630.8539852974022,1387.731343655232 A 46.22,46.22 0.0 0,1 1609.0539852974023,1393.171343655232 A 26.39,26.39 0.0 0,0 1596.6639852974022,1396.171343655232 A 59.17,59.17 0.0 0,1 1568.9739852974021,1402.861343655232 A 19.17,19.17 0.0 0,0 1559.513985297402,1405.141343655232 C 1553.783985297402,1408.141343655232 1547.883985297402,1407.901343655232 1541.863985297402,1406.071343655232 C 1536.033985297402,1404.3013436552321 1530.603985297402,1401.621343655232 1525.133985297402,1399.071343655232 C 1521.133985297402,1397.2013436552322 1517.193985297402,1395.941343655232 1512.733985297402,1396.5113436552322 A 15.79,15.79 0.0 0,1 1504.6039852974018,1395.2013436552322 C 1497.6039852974018,1392.2813436552321 1493.7839852974018,1386.7113436552322 1496.1139852974018,1379.5913436552323 C 1501.1139852974018,1364.3313436552323 1507.4939852974019,1349.6913436552322 1523.3739852974018,1342.2313436552324 C 1525.7739852974019,1341.1013436552323 1527.7439852974017,1339.7013436552324 1528.5839852974018,1337.1113436552325 C 1530.5839852974018,1331.0513436552326 1535.0739852974018,1327.0113436552326 1539.7039852974017,1323.0513436552326 C 1543.5339852974016,1319.7713436552326 1547.4939852974017,1316.6213436552325 1551.0739852974016,1313.0513436552326 C 1554.6539852974015,1309.4813436552326 1556.9639852974017,1305.5213436552326 1556.2439852974017,1300.3513436552325 C 1555.6739852974017,1300.0413436552326 1555.1539852974017,1299.5213436552326 1554.8539852974016,1299.6313436552325 C 1547.1139852974015,1302.4713436552324 1539.5539852974016,1301.6313436552325 1531.9339852974015,1298.9513436552324 C 1522.3339852974016,1295.5613436552323 1512.9339852974015,1296.1113436552325 1503.1539852974015,1299.4213436552325 A 111.73,111.73 0.0 0,1 1466.7639852974014,1305.5413436552324 C 1462.1239852974013,1305.5413436552324 1457.8539852974013,1307.1413436552323 1453.4339852974015,1308.0513436552324 C 1444.0439852974014,1309.9713436552324 1434.8939852974015,1310.1213436552323 1426.1439852974015,1305.4713436552324 C 1423.9139852974015,1304.2913436552324 1421.5939852974016,1303.3413436552323 1418.9239852974015,1303.6413436552325 C 1407.9239852974015,1304.8913436552325 1400.0139852974014,1299.5213436552326 1393.7139852974015,1291.3213436552326 C 1386.4839852974014,1281.9313436552325 1388.4739852974014,1267.3213436552326 1397.7939852974014,1260.0813436552326 C 1403.4539852974015,1255.6613436552325 1410.0239852974014,1253.0813436552326 1416.9039852974013,1251.2313436552326 C 1427.8339852974013,1248.2313436552326 1438.7139852974012,1244.9913436552326 1449.6539852974013,1241.9813436552326 C 1456.2939852974014,1240.1613436552327 1462.3139852974014,1236.9013436552327 1468.3339852974013,1233.7913436552326 C 1475.3339852974013,1230.1713436552327 1475.8439852974013,1223.3813436552325 1470.2339852974014,1217.9113436552325 C 1456.8239852974014,1204.8113436552326 1441.9339852974015,1193.6613436552325 1426.2339852974014,1183.3713436552325 C 1418.6739852974015,1178.3713436552325 1411.9639852974015,1172.1413436552325 1404.7739852974014,1166.6013436552325 C 1402.1839852974015,1164.6013436552325 1399.5239852974014,1162.4013436552325 1396.5239852974014,1161.3113436552326 C 1379.4439852974015,1155.0913436552325 1366.2239852974014,1143.4313436552325 1353.2639852974014,1131.3113436552326 C 1348.6339852974013,1127.0013436552326 1344.0139852974014,1122.7113436552327 1338.4239852974015,1119.6413436552325 A 21.15,21.15 0.0 0,1 1332.2039852974015,1114.1813436552325 C 1330.4639852974015,1112.0113436552324 1328.6839852974015,1109.8713436552325 1327.0739852974014,1107.6113436552325 A 100.68,100.68 0.0 0,0 1292.2239852974014,1076.8513436552325 C 1278.8239852974014,1069.6313436552325 1268.7039852974015,1058.7013436552324 1260.2239852974014,1046.2813436552326 C 1254.8239852974014,1038.3613436552325 1249.8539852974016,1030.1413436552325 1244.7739852974014,1022.0013436552327 A 55.24,55.24 0.0 0,0 1230.5839852974013,1006.4513436552328 A 109.84,109.84 0.0 0,1 1207.3839852974013,982.6913436552328 C 1203.1939852974012,977.0013436552327 1199.2339852974012,971.1413436552328 1195.0839852974013,965.4213436552328 C 1188.4939852974014,956.3513436552328 1181.0839852974013,948.2013436552328 1170.6739852974013,943.3013436552328 C 1164.6739852974013,940.4713436552328 1160.2639852974012,935.4113436552328 1155.6739852974013,930.6613436552328 C 1150.1039852974013,924.8313436552328 1144.6139852974013,918.9213436552328 1137.4239852974013,914.8713436552329 C 1133.6839852974013,912.7513436552329 1130.2239852974012,912.2913436552328 1126.9639852974012,915.1413436552328 C 1115.5839852974011,925.1413436552328 1101.3839852974013,927.0213436552328 1087.3539852974013,928.1413436552328 A 187.82,187.82 0.0 0,0 1040.2239852974012,938.3013436552328 C 1027.6539852974013,942.6613436552328 1014.3739852974012,944.9913436552329 1001.3839852974012,948.1413436552328 C 995.3839852974012,949.6013436552329 989.3039852974011,948.8813436552329 983.2939852974012,948.1413436552328 C 974.6139852974012,947.0713436552328 966.7639852974012,948.6713436552328 959.8539852974011,954.3013436552328 C 953.9539852974011,959.1313436552329 946.8539852974011,960.9913436552329 939.4839852974011,961.5413436552328 C 931.4839852974011,962.1413436552328 924.1239852974011,964.3613436552329 917.5839852974011,969.0613436552328 A 29.59,29.59 0.0 0,1 907.2239852974011,973.5513436552328 C 898.1639852974012,975.7813436552328 889.0639852974011,977.8513436552328 879.9439852974011,979.8213436552328 C 876.7239852974011,980.5113436552328 873.4439852974011,980.9913436552328 870.4839852974011,982.4113436552328 A 53.0,53.0 0.0 0,1 840.2139852974011,987.0313436552328 C 833.9239852974011,986.2113436552328 829.3839852974011,988.3313436552328 825.9239852974011,993.3513436552329 C 820.0339852974012,1001.9213436552329 811.7639852974012,1006.7413436552329 801.7639852974012,1009.0313436552328 A 46.27,46.27 0.0 0,0 790.5339852974012,1013.4713436552329 C 779.3739852974012,1019.3613436552329 768.1339852974012,1025.0913436552328 756.9539852974011,1030.9313436552327 C 754.2739852974012,1032.3213436552328 751.6339852974011,1033.8113436552328 749.0939852974011,1035.4413436552327 C 742.5439852974012,1039.6413436552327 739.5439852974012,1044.9713436552327 741.7239852974011,1053.2313436552326 A 66.22,66.22 0.0 0,1 743.2539852974011,1075.8013436552326 C 742.5139852974011,1084.2613436552326 738.7239852974011,1090.8813436552325 730.6139852974011,1094.0513436552326 C 724.9539852974011,1096.2713436552326 723.0839852974011,1100.3613436552325 723.1039852974011,1105.8313436552326 A 61.0,61.0 0.0 0,0 723.6839852974011,1116.4013436552325 C 725.1839852974011,1124.7913436552326 723.9639852974011,1133.0313436552326 722.8039852974011,1141.2713436552324 A 27.08,27.08 0.0 0,1 716.3139852974011,1155.5813436552323 C 711.7239852974011,1160.7813436552324 709.8939852974012,1166.8513436552323 709.4739852974011,1173.5813436552323 A 42.47,42.47 0.0 0,1 702.8439852974011,1194.2513436552324 A 36.72,36.72 0.0 0,0 697.1939852974011,1215.1413436552325 C 697.3339852974011,1224.2113436552324 697.6239852974011,1233.2613436552324 696.1039852974011,1242.3213436552326 C 694.9639852974011,1249.1113436552325 696.903985297401,1255.8913436552325 697.9739852974011,1262.6013436552325 A 77.94,77.94 0.0 0,1 698.033985297401,1285.1713436552325 C 696.203985297401,1299.2713436552324 697.323985297401,1313.3913436552325 699.6439852974011,1327.4013436552325 C 700.6439852974011,1333.6213436552325 702.3639852974011,1339.7513436552324 702.5139852974011,1346.0913436552325 C 702.693985297401,1354.0313436552326 700.793985297401,1361.5713436552326 698.1039852974011,1369.0013436552326 C 696.1739852974011,1374.3313436552326 693.2239852974011,1378.3713436552325 687.4439852974011,1379.7413436552326 A 10.0,10.0 0.0 0,0 681.4439852974011,1384.0413436552326 C 676.8939852974012,1390.7013436552327 670.3139852974011,1394.9713436552327 663.6839852974011,1399.1313436552325 A 308.28,308.28 0.0 0,0 625.1139852974011,1428.3913436552325 A 30.42,30.42 0.0 0,1 611.9539852974011,1435.4513436552324 C 607.3039852974011,1436.5613436552323 602.6939852974011,1437.9213436552325 598.1239852974011,1439.3613436552325 C 590.1239852974011,1441.9113436552325 581.913985297401,1443.1713436552325 573.4939852974011,1441.9713436552324 A 45.49,45.49 0.0 0,0 556.9839852974011,1442.9013436552325 C 545.8039852974011,1445.3913436552325 534.523985297401,1446.1013436552325 523.1939852974011,1443.5313436552326 C 518.7439852974011,1442.5313436552326 514.3739852974011,1441.4213436552327 510.38398529740107,1439.1013436552325 C 506.6239852974011,1436.9213436552325 502.45398529740106,1435.8913436552325 498.22398529740104,1435.1013436552325 A 7.73,7.73 0.0 0,0 491.22398529740104,1436.7913436552326 C 481.32398529740107,1445.0913436552325 469.51398529740106,1449.5313436552326 457.22398529740104,1452.7913436552326 C 447.22398529740104,1455.4413436552327 437.53398529740105,1458.9413436552327 427.78398529740105,1462.3813436552325 C 411.70398529740106,1468.0613436552326 395.08398529740106,1470.8713436552325 378.003985297401,1466.5113436552326 A 38.16,38.16 0.0 0,0 366.003985297401,1465.6913436552327 C 357.833985297401,1466.2313436552326 352.083985297401,1462.5813436552328 348.283985297401,1455.2813436552326 C 343.823985297401,1446.7313436552326 342.953985297401,1438.2813436552326 346.573985297401,1429.0913436552325 C 351.773985297401,1415.8513436552325 360.903985297401,1406.8013436552326 373.703985297401,1401.0913436552325 C 378.003985297401,1399.1713436552325 382.633985297401,1397.8113436552326 386.873985297401,1394.6113436552325 C 383.933985297401,1393.6113436552325 381.79398529740104,1394.7113436552324 379.72398529740104,1395.1713436552325 C 368.72398529740104,1397.6013436552325 358.183985297401,1395.7413436552324 347.59398529740105,1392.8813436552325 C 336.59398529740105,1389.8813436552325 329.73398529740103,1381.8813436552325 323.123985297401,1373.6313436552325 C 319.123985297401,1368.6313436552325 319.183985297401,1362.1913436552325 320.583985297401,1356.1613436552325 A 64.61,64.61 0.0 0,1 327.743985297401,1338.7013436552324 A 23.23,23.23 0.0 0,1 330.41398529740104,1335.0313436552324 C 336.313985297401,1328.3013436552324 359.20398529740106,1319.2113436552324 368.183985297401,1320.0313436552324 C 371.713985297401,1320.3513436552323 375.253985297401,1320.9513436552324 378.743985297401,1320.1113436552323 C 389.133985297401,1317.6113436552323 395.893985297401,1311.8913436552323 398.553985297401,1300.8213436552323 A 184.0,184.0 0.0 0,0 403.393985297401,1243.0213436552324 C 402.623985297401,1233.0213436552324 405.393985297401,1223.5013436552324 407.213985297401,1213.8513436552323 C 407.913985297401,1210.1213436552323 408.963985297401,1206.3313436552323 408.153985297401,1202.6013436552323 C 405.55398529740097,1190.6013436552323 407.913985297401,1178.9913436552324 410.153985297401,1167.3413436552323 A 259.47,259.47 0.0 0,0 414.68398529740097,1122.9913436552324 C 414.983985297401,1109.1013436552323 415.77398529740094,1094.7813436552324 410.913985297401,1080.9913436552324 C 408.593985297401,1074.4213436552325 408.333985297401,1067.1613436552325 405.463985297401,1060.6013436552323 C 402.813985297401,1054.6013436552323 400.143985297401,1048.6013436552323 395.30398529740097,1043.9113436552323 C 391.95398529740095,1040.6513436552323 390.30398529740097,1036.3413436552323 388.663985297401,1032.1213436552323 C 387.023985297401,1027.9013436552323 384.413985297401,1025.3513436552323 379.773985297401,1025.3513436552323 C 371.853985297401,1025.4413436552322 366.483985297401,1021.2413436552324 360.773985297401,1016.0713436552325 C 351.213985297401,1007.3913436552325 342.983985297401,997.4613436552324 333.403985297401,988.8713436552324 A 33.71,33.71 0.0 0,1 324.623985297401,976.7113436552324 C 315.623985297401,955.3113436552325 307.333985297401,933.6513436552324 300.883985297401,911.3113436552325 C 296.963985297401,897.7413436552324 292.223985297401,884.4113436552325 287.883985297401,870.9613436552324 A 137.37,137.37 0.0 0,1 283.883985297401,857.1713436552325 C 281.883985297401,847.5213436552325 279.883985297401,837.9913436552325 275.04398529740104,829.1713436552325 C 271.98398529740103,823.6513436552325 271.36398529740103,817.1213436552325 270.45398529740106,810.8913436552325 A 49.82,49.82 0.0 0,0 263.91398529740104,791.8913436552325 C 259.03398529740105,783.7013436552324 255.70398529740103,774.5913436552325 251.71398529740105,765.8913436552325 C 250.03398529740105,762.2313436552325 248.50398529740104,758.5213436552325 245.26398529740106,755.7913436552325 C 241.73398529740106,752.7913436552325 241.08398529740106,748.3513436552324 240.07398529740107,744.2413436552325 C 235.44398529740107,725.3713436552325 231.50398529740107,706.3513436552325 227.96398529740105,687.2413436552325 A 40.24,40.24 0.0 0,0 221.57398529740107,671.3413436552325 C 216.10398529740107,663.3413436552325 216.08398529740106,653.6313436552325 215.93398529740108,644.3413436552325 C 215.7039852974011,630.4613436552326 215.55398529740108,616.5813436552326 214.32398529740107,602.7313436552325 C 213.96398529740105,598.6213436552325 213.22398529740107,594.7313436552325 210.90398529740108,591.2613436552325 C 206.55398529740108,584.8113436552325 204.6139852974011,577.5613436552325 203.4839852974011,570.0113436552325 C 202.6939852974011,564.7013436552326 201.2939852974011,559.6513436552325 197.77398529740108,555.4013436552325 C 194.99398529740108,552.0413436552325 194.77398529740108,547.9413436552325 195.00398529740107,543.8913436552325 C 195.32398529740107,537.3313436552326 195.76398529740106,530.7813436552325 196.38398529740107,524.2413436552325 C 196.95398529740106,518.3413436552325 195.38398529740107,514.0413436552325 190.58398529740106,509.7913436552325 C 179.47398529740104,499.88134365523246 166.80398529740106,491.7913436552325 156.58398529740106,480.8513436552325 A 18.4,18.4 0.0 0,0 149.64398529740106,476.3313436552325 C 137.94398529740107,471.8413436552325 127.87398529740108,464.6613436552325 118.13398529740107,457.0213436552325 C 108.39398529740106,449.3813436552325 98.4139852974025,442.0013436552322 92.4139852974025,430.70134365523217 C 90.81398529740251,427.70134365523217 87.9739852974025,426.79134365523214 84.7339852974025,426.79134365523214 C 75.7939852974025,426.79134365523214 68.0139852974025,423.34134365523215 60.73398529740249,418.60134365523214 A 196.41,196.41 0.0 0,0 41.183985297402494,407.08134365523216 A 29.88,29.88 0.0 0,1 27.753985297402497,393.08134365523216 C 25.6039852974025,388.8013436552322 23.683985297402497,384.39134365523216 21.893985297402498,379.95134365523217 C 19.803985297402498,374.76134365523217 17.393985297402498,369.95134365523217 12.893985297402498,366.20134365523217 C 8.393985297402498,362.45134365523217 6.523985297402498,356.58134365523216 5.343985297402498,350.83134365523216 C 3.933985297402498,343.9313436552322 2.5639852974024984,337.04134365523214 0.8439852974024981,330.1913436552322 C -1.6660147025975016,320.1913436552322 1.8439852974024982,310.71134365523216 5.843985297402498,301.6313436552322 C 9.4239852974025,293.5613436552322 13.263985297402499,285.6313436552322 17.1239852974025,277.6313436552322 A 15.6,15.6 0.0 0,0 18.7639852974025,268.1713436552322 C 16.823985297402498,254.4613436552322 18.5339852974025,241.38134365523223 23.393985297402498,228.17134365523222 C 26.613985297402497,219.42134365523222 26.483985297402498,209.44134365523223 27.793985297402497,200.0013436552322 A 6.93,6.93 0.0 0,0 26.593985297402497,195.7013436552322 C 23.433985297402497,190.1013436552322 24.1939852974025,184.5313436552322 26.863985297402497,179.0213436552322 C 28.073985297402498,176.53134365523218 29.413985297402498,174.09134365523218 30.673985297402496,171.62134365523218 C 33.23398529740249,166.62134365523218 35.87398529740249,161.8613436552322 32.393985297402494,156.00134365523218 C 31.003985297402497,153.67134365523216 31.9639852974025,150.57134365523217 33.073985297402494,147.93134365523218 A 45.22,45.22 0.0 0,1 39.86398529740249,136.1713436552322 C 49.423985297402496,124.7613436552322 58.40398529740249,112.83134365523219 69.8639852974025,103.17134365523219 C 73.05398529740249,100.47134365523219 75.4039852974025,97.69134365523219 74.18398529740249,92.80134365523219 C 73.08398529740249,88.39134365523219 76.18398529740249,85.22134365523219 79.32398529740249,82.52134365523219 C 87.98398529740248,75.21134365523218 98.07398529740249,70.74134365523219 108.87398529740248,67.72134365523219 A 108.0,108.0 0.0 0,1 132.79398529740246,64.19134365523219 C 136.45398529740245,64.01134365523218 139.73398529740246,63.73134365523219 139.96398529740244,58.61134365523219 C 140.11398529740245,55.39134365523219 142.96398529740244,53.45134365523219 145.75398529740244,52.10134365523219 A 82.93,82.93 0.0 0,0 159.29398529740243,43.81134365523219 C 180.43398529740244,28.07134365523219 204.06398529740244,23.321343655232194 229.58398529740242,28.721343655232193 C 242.82398529740243,31.521343655232194 254.52398529740242,29.291343655232193 265.4939852974024,21.621343655232195 C 269.6239852974024,18.731343655232195 274.0939852974024,16.341343655232194 278.4039852974024,13.691343655232194 A 65.0,65.0 0.0 0,1 300.1139852974025,5.151343655232214 C 307.7839852974025,3.6413436552322147 315.4739852974025,2.2113436552322145 323.1139852974025,0.6413436552322147 C 330.2439852974025,-0.8186563447677853 337.2239852974025,0.4813436552322147 344.1139852974025,1.8813436552322147 C 361.96398529740253,5.511343655232215 376.9839852974025,14.631343655232214 390.0339852974025,26.971343655232214 A 52.58,52.58 0.0 0,0 412.14398529740254,39.36134365523222 C 434.9739852974025,46.08134365523222 452.3639852974025,60.03134365523222 464.01398529740254,80.82134365523223 C 470.45398529740254,92.30134365523223 478.07398529740254,102.99134365523223 485.50398529740255,113.82134365523223 A 199.76,199.76 0.0 0,1 506.98398529740257,154.59134365523224 A 103.13,103.13 0.0 0,0 519.5539852974026,177.82134365523223 C 533.9739852974026,197.69134365523223 545.9539852974026,219.02134365523224 557.2839852974026,240.76134365523222 C 561.8839852974027,249.60134365523223 562.2839852974026,258.5313436552322 559.7639852974027,267.9013436552322 C 558.4339852974026,272.7613436552322 557.1439852974027,277.6413436552322 556.0239852974026,282.56134365523224 C 552.8939852974027,296.2713436552322 555.2539852974027,309.17134365523225 562.4039852974026,321.1513436552322 A 123.94,123.94 0.0 0,0 589.6039852974027,352.4813436552322 C 597.4139852974026,358.9313436552322 607.4139852974026,362.0613436552322 616.5039852974027,366.3513436552322 C 622.4539852974027,369.1113436552322 628.4439852974027,371.7913436552322 634.3639852974027,374.5913436552322 A 24.78,24.78 0.0 0,1 642.4239852974026,380.1613436552322 C 650.1439852974027,388.7513436552322 660.1039852974026,393.7513436552322 670.9939852974027,396.3613436552322 C 695.3139852974027,402.1913436552322 718.9239852974026,410.3613436552322 742.9939852974027,416.95134365523217 C 754.7039852974027,420.1313436552322 766.0839852974027,424.26134365523217 776.0739852974027,431.51134365523217 C 780.7139852974027,434.8813436552322 786.0739852974027,436.0613436552322 791.7839852974028,436.2413436552322 A 476.63,476.63 0.0 0,0 854.5339852974028,433.8713436552322 C 878.1539852974028,431.51134365523217 901.4239852974027,426.5413436552322 925.1039852974027,424.8713436552322 C 957.1039852974027,422.5413436552322 988.4739852974027,415.7513436552322 1020.0439852974027,410.46134365523216 C 1025.8639852974027,409.46134365523216 1029.9739852974028,406.78134365523215 1033.4939852974028,401.84134365523215 C 1042.5639852974027,389.11134365523213 1051.6839852974028,376.39134365523216 1062.7639852974028,365.20134365523217 C 1070.0539852974027,357.84134365523215 1075.7639852974028,349.20134365523217 1080.7639852974028,340.09134365523215 C 1095.9039852974029,312.76134365523217 1117.6739852974029,291.65134365523215 1143.8239852974027,274.92134365523214 C 1151.6939852974026,269.92134365523214 1159.8939852974027,265.40134365523215 1166.3239852974027,258.40134365523215 C 1168.9439852974026,255.5513436552322 1172.6639852974026,254.3013436552322 1176.1839852974026,252.9213436552322 A 213.0,213.0 0.0 0,1 1203.7339852974026,244.7313436552322 C 1209.0239852974025,243.4513436552322 1213.6239852974027,241.4113436552322 1217.0639852974025,236.8313436552322 C 1220.7039852974026,231.97134365523218 1226.1539852974024,229.6913436552322 1231.8939852974024,228.34134365523218 C 1252.4039852974024,223.50134365523218 1272.8939852974024,223.2013436552322 1293.2339852974023,229.21134365523218 C 1309.2339852974023,233.9513436552322 1324.4039852974024,240.93134365523218 1339.8239852974023,247.21134365523218 C 1350.1139852974022,251.3913436552322 1360.3139852974023,255.75134365523218 1370.8239852974023,259.26134365523217 A 90.27,90.27 0.0 0,1 1387.3739852974022,266.6913436552322 C 1394.8739852974022,271.01134365523217 1401.9039852974022,275.83134365523216 1406.6339852974022,283.3613436552322 C 1407.9839852974021,285.5013436552322 1409.1239852974022,287.2313436552322 1412.6339852974022,285.70134365523217 C 1417.2739852974023,283.70134365523217 1420.0739852974023,284.98134365523214 1422.8139852974023,289.27134365523216 A 34.74,34.74 0.0 0,1 1426.2739852974023,296.80134365523213 C 1430.1839852974024,308.3213436552321 1433.1539852974024,320.04134365523214 1432.4939852974023,332.3713436552321 A 20.14,20.14 0.0 0,0 1434.4239852974024,342.67134365523214 A 23.32,23.32 0.0 0,1 1436.7939852974023,350.61134365523213 C 1437.5639852974023,357.48134365523214 1441.0439852974023,362.7513436552321 1446.0339852974023,367.4513436552321 C 1452.3039852974023,373.3413436552321 1458.5839852974023,378.7713436552321 1466.6839852974024,382.3813436552321 C 1474.6039852974025,385.9013436552321 1479.8639852974025,393.29134365523214 1485.3339852974025,399.8413436552321 C 1491.3339852974025,407.0213436552321 1497.2339852974026,414.2313436552321 1504.3339852974025,420.4213436552321 A 25.67,25.67 0.0 0,1 1508.9939852974026,425.37134365523207 A 210.65,210.65 0.0 0,1 1531.4139852974026,468.9113436552321 C 1533.0339852974025,473.3413436552321 1534.2639852974025,478.8013436552321 1529.5539852974027,482.19134365523206 C 1524.5539852974027,485.8013436552321 1519.9739852974028,482.44134365523206 1515.7839852974028,479.4913436552321 A 117.87,117.87 0.0 0,1 1501.5439852974027,467.0313436552321 C 1495.6339852974027,461.2513436552321 1488.8839852974027,457.1613436552321 1480.6239852974027,455.56134365523206 C 1477.4339852974026,454.95134365523205 1474.3939852974027,453.56134365523206 1471.3139852974027,452.45134365523205 C 1469.0139852974028,451.60134365523203 1466.7839852974028,450.2413436552321 1463.6039852974027,451.4913436552321 L 1463.6039852974025,451.4913436552322"/>
</svg>
