<?xml version="1.0" ?>
<svg xmlns="http://www.w3.org/2000/svg" xmlns:ev="http://www.w3.org/2001/xml-events" xmlns:xlink="http://www.w3.org/1999/xlink" baseProfile="full" data-name="Layer 1" height="1430" transform="scale(0.06993006993006994 0.06993006993006994) translate(-862.0 -715.0)" version="1.1" viewBox="0 0 1724 1430" width="1724">
	<defs/>
	<path d="M 578.7092486013472,1239.2434062882517 C 578.2492486013472,1244.7734062882516 577.5292486013473,1250.3034062882516 577.3892486013472,1255.8434062882516 A 175.41,175.41 0.0 0,1 574.3292486013472,1283.4534062882515 C 571.7492486013472,1297.4534062882515 572.6692486013472,1311.6634062882515 571.7692486013473,1325.7634062882514 C 571.1192486013473,1336.0434062882514 566.7692486013473,1343.4334062882515 558.0492486013472,1348.3434062882513 C 549.7592486013473,1352.9834062882514 541.3392486013472,1357.4034062882513 532.9792486013472,1361.9134062882513 A 8.76,8.76 0.0 0,1 531.0992486013472,1362.8134062882514 C 517.5792486013472,1366.1034062882513 504.0192486013473,1369.3434062882513 489.98924860134724,1366.3634062882513 C 480.58924860134726,1364.3634062882513 472.98924860134724,1358.9434062882513 466.40924860134726,1352.3634062882513 C 459.8292486013473,1345.7834062882514 459.03924860134725,1336.1934062882513 463.70924860134727,1327.1434062882513 A 97.5,97.5 0.0 0,1 475.16924860134725,1309.7234062882512 A 31.31,31.31 0.0 0,1 492.6392486013472,1299.0134062882512 C 496.92924860134724,1298.0134062882512 501.2792486013472,1297.2034062882512 505.4492486013472,1295.853406288251 C 512.9392486013471,1293.413406288251 517.6592486013471,1288.5334062882512 520.3792486013472,1280.7534062882512 C 527.1092486013472,1261.4834062882512 528.0692486013472,1241.9334062882513 526.5192486013472,1221.7534062882512 C 524.9792486013472,1201.7534062882512 521.0592486013471,1182.3234062882511 517.4292486013471,1162.7534062882512 C 512.6292486013472,1136.7534062882512 508.4992486013472,1110.6934062882513 503.20924860134716,1084.7534062882512 C 496.20924860134716,1050.2434062882512 488.76924860134716,1015.7534062882512 483.20924860134716,980.9934062882512 C 479.26924860134716,956.2734062882512 475.72924860134714,931.5134062882512 472.78924860134714,906.6434062882512 A 275.0,275.0 0.0 0,0 456.0592486013471,840.0634062882511 C 446.22924860134714,814.5534062882512 438.40924860134714,788.3334062882511 428.21924860134715,762.9534062882511 C 421.32924860134716,745.7534062882511 414.00924860134717,728.7334062882511 407.83924860134715,711.2134062882511 C 398.26924860134716,684.0234062882511 394.13924860134716,656.0234062882512 392.70924860134716,627.4034062882511 C 391.47924860134714,602.793406288251 393.50924860134717,578.2534062882511 393.59924860134714,553.683406288251 A 116.52,116.52 0.0 0,0 389.44924860134716,524.213406288251 C 383.7392486013472,501.90340628825095 375.44924860134716,480.57340628825096 366.6692486013472,459.3634062882509 C 358.4792486013472,439.6234062882509 354.0292486013472,418.72340628825094 350.2992486013472,397.72340628825094 C 348.3992486013472,387.01340628825096 346.56924860134717,376.29340628825094 343.19924860134716,365.8734062882509 C 339.82924860134716,355.4534062882509 338.2392486013472,344.6234062882509 333.53924860134714,334.72340628825094 C 331.95924860134716,331.3734062882509 330.8092486013471,327.72340628825094 328.6792486013471,324.72340628825094 C 320.6192486013471,313.51340628825096 315.21924860134715,300.95340628825096 309.6792486013471,288.44340628825097 A 46.46,46.46 0.0 0,0 301.1892486013471,274.983406288251 A 35.62,35.62 0.0 0,1 293.5292486013471,263.463406288251 C 290.7692486013471,256.283406288251 285.2792486013471,252.363406288251 278.3492486013471,250.303406288251 A 53.08,53.08 0.0 0,1 260.4192486013471,241.303406288251 C 246.4692486013471,230.303406288251 230.41924860134708,227.48340628825102 213.29924860134707,228.13340628825102 C 198.00924860134708,228.71340628825104 182.70924860134707,229.31340628825103 167.42924860134707,230.06340628825103 A 152.8,152.8 0.0 0,1 141.04924860134707,228.92340628825104 A 46.36,46.36 0.0 0,1 121.69924860134707,221.72340628825106 A 64.23,64.23 0.0 0,0 93.69924860134707,212.19340628825105 A 79.48,79.48 0.0 0,1 54.63924860134706,196.99340628825107 C 38.92924860134707,185.39340628825107 26.469248601347065,170.87340628825106 15.689248601347064,154.78340628825106 A 48.0,48.0 0.0 0,1 8.059248601347065,134.78340628825106 A 27.09,27.09 0.0 0,0 5.299248601347065,126.22340628825106 C 4.679248601347065,124.98340628825108 4.159248601347065,123.69340628825105 3.529248601347065,122.45340628825107 C -6.610751398652935,102.28340628825106 6.9892486013470645,89.26340628825108 20.449248601347065,84.59340628825106 A 76.7,76.7 0.0 0,1 33.339248601347066,81.77340628825107 A 285.89,285.89 0.0 0,0 67.33924860134707,74.52340628825107 C 87.48924860134706,68.68340628825106 108.15924860134707,66.23340628825108 129.03924860134708,64.86340628825107 C 141.51924860134707,64.04340628825108 153.94924860134708,62.46340628825108 166.03924860134708,59.013406288251076 C 181.09924860134709,54.71340628825108 194.03924860134708,46.483406288251075 205.4392486013471,36.233406288251075 C 217.0592486013471,25.783406288251076 230.1492486013471,18.383406288251074 244.4392486013471,12.583406288251076 C 254.97924860134725,8.283406288251586 265.5192486013473,3.9434062882515857 276.97924860134725,2.973406288251586 C 288.04924860134724,2.033406288251586 299.08924860134726,0.303406288251586 310.2592486013472,1.6234062882515858 A 39.08,39.08 0.0 0,0 323.42924860134724,1.223406288251586 C 337.42924860134724,-1.906593711748414 350.58924860134726,1.363406288251586 363.42924860134724,6.573406288251586 A 177.36,177.36 0.0 0,1 384.17924860134724,16.323406288251586 C 394.5192486013472,22.15340628825159 405.5692486013472,26.323406288251586 416.84924860134726,29.913406288251586 C 426.41924860134725,32.913406288251586 433.21924860134726,39.29340628825159 438.29924860134724,47.703406288251585 A 58.24,58.24 0.0 0,1 442.03924860134725,54.37340628825159 A 181.07,181.07 0.0 0,0 464.17924860134724,92.01340628825159 A 40.58,40.58 0.0 0,1 472.89924860134727,120.7234062882516 C 472.2692486013473,128.3834062882516 474.53924860134725,134.7234062882516 480.42924860134724,139.9734062882516 C 483.8892486013472,143.0434062882516 486.9492486013472,146.5634062882516 490.71924860134726,149.3034062882516 C 498.20924860134727,154.7434062882516 503.6292486013473,161.88340628825162 507.71924860134726,170.0834062882516 C 508.54924860134724,171.7434062882516 509.4492486013473,173.38340628825162 510.1392486013473,175.0834062882516 C 528.5092486013472,220.4034062882516 551.2492486013472,263.8134062882516 568.6292486013472,309.57340628825165 C 572.7392486013472,320.38340628825165 577.3892486013472,330.99340628825166 584.4192486013471,340.43340628825166 C 588.6292486013472,346.08340628825164 593.5792486013471,349.77340628825164 600.5292486013471,351.57340628825165 A 59.93,59.93 0.0 0,1 629.9692486013472,369.13340628825165 C 638.6392486013472,378.52340628825164 648.8992486013472,385.3534062882516 661.5392486013473,388.42340628825167 C 668.9692486013472,390.2234062882517 676.2992486013472,392.42340628825167 683.8492486013472,393.68340628825166 C 696.2992486013472,395.7934062882517 708.0592486013472,400.20340628825164 719.3392486013472,405.62340628825166 C 733.5992486013472,412.4834062882517 748.6492486013472,417.14340628825164 763.4292486013472,422.56340628825166 C 768.2192486013472,424.31340628825166 773.2092486013472,425.75340628825165 777.6292486013473,428.19340628825165 C 797.5092486013473,439.19340628825165 818.8792486013473,444.19340628825165 841.3792486013473,445.9834062882517 C 859.8492486013473,447.4534062882517 878.2092486013473,450.2134062882517 896.6392486013473,452.2334062882517 C 911.1592486013473,453.81340628825166 925.7292486013473,454.92340628825167 940.2392486013473,456.62340628825166 C 956.3492486013473,458.51340628825164 972.4092486013473,460.86340628825167 988.4892486013473,462.9834062882517 C 1009.4092486013473,465.7334062882517 1030.4292486013474,467.4734062882517 1051.4892486013475,469.1434062882517 C 1081.1092486013474,471.5034062882517 1110.3292486013474,476.6634062882517 1139.5992486013474,481.5434062882517 C 1162.2292486013475,485.32340628825165 1185.0192486013475,488.17340628825167 1207.5992486013474,492.25340628825165 C 1227.9492486013473,495.92340628825167 1248.5992486013474,496.7334062882517 1268.9292486013474,500.43340628825166 C 1284.9292486013474,503.3534062882517 1301.0192486013473,504.92340628825167 1317.1492486013474,506.5934062882517 A 125.65,125.65 0.0 0,0 1341.4392486013473,506.8934062882517 C 1359.4392486013473,505.2834062882517 1377.4392486013473,503.5634062882517 1395.4392486013473,501.4034062882517 C 1407.4392486013473,499.9634062882517 1419.0592486013472,496.5134062882517 1430.4392486013473,492.5834062882517 C 1457.1192486013474,483.36340628825167 1484.5992486013474,478.36340628825167 1512.5992486013474,475.4634062882517 C 1530.1392486013474,473.6434062882517 1547.7592486013475,473.1534062882517 1565.3092486013475,471.6534062882517 A 157.63,157.63 0.0 0,0 1601.3092486013475,463.9734062882517 C 1623.5192486013475,456.6334062882517 1645.5192486013475,448.6634062882517 1667.7492486013475,441.3534062882517 A 184.11,184.11 0.0 0,1 1704.3792486013476,433.5134062882517 A 22.17,22.17 0.0 0,1 1716.6392486013476,435.2034062882517 C 1723.0492486013477,438.2034062882517 1725.2992486013477,444.2634062882517 1722.6392486013476,450.8634062882517 A 23.07,23.07 0.0 0,1 1715.4492486013476,460.09340628825174 A 187.76,187.76 0.0 0,1 1678.8092486013475,482.72340628825174 C 1643.6792486013474,499.66340628825174 1605.8692486013474,508.33340628825175 1568.5392486013475,518.4234062882518 C 1551.3192486013475,523.0834062882518 1534.0392486013475,527.5134062882519 1516.8392486013474,532.2534062882519 C 1500.6992486013473,536.7034062882519 1484.0492486013475,538.3334062882519 1467.5492486013475,540.7634062882519 C 1450.2892486013475,543.3134062882518 1433.4192486013474,547.2834062882519 1417.6392486013474,555.0234062882519 A 11.0,11.0 0.0 0,1 1415.1492486013474,556.2334062882519 C 1406.7992486013475,557.8634062882519 1403.8992486013474,564.3234062882519 1401.5892486013474,571.3534062882519 C 1397.8892486013474,582.6534062882519 1396.5892486013474,593.673406288252 1401.9792486013475,605.1534062882519 C 1405.7292486013475,613.1534062882519 1409.4092486013476,621.1534062882519 1414.1092486013476,628.5634062882518 C 1426.6192486013476,648.3534062882518 1434.7592486013477,669.9534062882518 1440.9292486013476,692.4034062882519 C 1446.3292486013477,712.0734062882518 1451.1892486013476,731.8634062882519 1454.4792486013475,752.0134062882519 C 1457.3592486013476,769.6734062882518 1457.9592486013476,787.5434062882518 1459.3592486013476,805.3334062882519 C 1460.3592486013476,818.0634062882519 1462.5792486013477,830.6234062882519 1463.9192486013476,843.3334062882519 C 1464.2592486013475,846.5834062882519 1465.8692486013476,849.4834062882519 1467.3292486013477,852.403406288252 C 1475.9692486013478,869.733406288252 1488.4692486013478,883.8234062882519 1503.3292486013477,896.093406288252 C 1513.8892486013476,904.823406288252 1525.2192486013478,912.503406288252 1535.9292486013476,921.003406288252 A 67.79,67.79 0.0 0,1 1542.7892486013475,926.893406288252 C 1555.3792486013474,939.983406288252 1570.7092486013476,949.003406288252 1586.9192486013476,956.6934062882519 C 1606.8492486013477,966.143406288252 1625.5892486013477,977.6934062882519 1644.7192486013475,988.6234062882519 C 1659.2492486013475,996.9034062882519 1666.6392486013476,1010.3534062882519 1671.2392486013475,1025.463406288252 C 1677.2392486013475,1045.0634062882518 1679.7492486013475,1065.383406288252 1680.5492486013475,1085.8034062882518 C 1681.4392486013476,1108.183406288252 1684.4592486013476,1130.0434062882518 1691.9792486013475,1151.2734062882519 A 128.08,128.08 0.0 0,1 1699.2592486013475,1185.183406288252 C 1699.4192486013476,1187.493406288252 1699.5692486013475,1189.8034062882518 1699.6392486013476,1192.123406288252 C 1700.0892486013477,1205.983406288252 1695.0592486013477,1216.743406288252 1681.5192486013477,1221.883406288252 C 1673.6892486013478,1224.883406288252 1671.2592486013477,1230.083406288252 1670.5992486013477,1238.173406288252 A 274.1,274.1 0.0 0,0 1670.2692486013477,1272.913406288252 C 1670.8592486013476,1285.433406288252 1670.9792486013478,1297.913406288252 1670.8492486013477,1310.473406288252 C 1670.7592486013477,1318.363406288252 1671.2992486013477,1326.203406288252 1671.9192486013476,1334.0834062882518 C 1673.1292486013476,1349.5734062882518 1672.7892486013475,1365.1534062882517 1672.0192486013475,1380.6634062882517 C 1671.3492486013474,1394.0034062882517 1665.0192486013475,1404.4834062882517 1653.0792486013474,1411.1634062882517 C 1636.9392486013473,1420.1634062882517 1619.8392486013474,1426.4334062882517 1601.5092486013475,1428.9834062882517 C 1592.5792486013474,1430.2234062882517 1583.9492486013476,1428.3334062882516 1575.7392486013475,1424.7634062882516 C 1568.3392486013474,1421.5434062882516 1564.7392486013475,1415.7634062882516 1565.1292486013476,1407.6834062882517 A 55.79,55.79 0.0 0,1 1566.3992486013476,1397.3534062882518 C 1569.2792486013477,1385.3534062882518 1574.0792486013477,1374.0734062882518 1578.9292486013476,1362.8434062882518 C 1581.6292486013476,1356.6034062882518 1586.9292486013476,1351.9034062882517 1592.7592486013475,1348.493406288252 C 1603.0792486013474,1342.493406288252 1607.5592486013475,1333.153406288252 1609.9292486013476,1322.0234062882519 C 1612.9292486013476,1308.0234062882519 1612.5592486013477,1293.903406288252 1611.8192486013477,1279.7734062882519 C 1611.3192486013477,1270.2834062882519 1610.4892486013478,1260.7734062882519 1609.6492486013476,1251.3434062882518 A 56.51,56.51 0.0 0,0 1607.9692486013475,1241.7634062882519 C 1597.4992486013475,1202.7634062882519 1579.8392486013474,1167.5034062882519 1553.6792486013476,1136.3634062882518 C 1527.2592486013475,1104.9234062882517 1496.6792486013476,1078.7934062882518 1461.0992486013477,1058.3634062882518 C 1435.9592486013476,1043.9534062882517 1411.0992486013477,1029.1034062882518 1388.0092486013477,1011.3634062882518 C 1370.4492486013478,997.8934062882518 1355.0092486013477,982.3634062882518 1340.4592486013478,965.6834062882518 C 1317.7492486013477,939.6834062882518 1300.2692486013477,910.1234062882518 1280.4092486013478,882.1834062882518 C 1256.9092486013478,849.1134062882518 1230.079248601348,819.0734062882518 1194.6192486013479,798.0434062882518 C 1170.7392486013478,783.8934062882519 1145.6992486013478,772.6034062882518 1118.329248601348,767.0434062882518 A 35.68,35.68 0.0 0,0 1111.4492486013478,766.1834062882518 C 1083.8592486013479,766.1234062882519 1056.2492486013477,766.1834062882518 1028.8792486013479,770.3134062882518 C 978.8792486013477,777.8834062882519 929.4092486013477,788.1234062882518 881.0192486013477,802.9234062882518 C 862.2192486013478,808.6834062882518 843.6092486013478,815.1834062882518 825.3192486013477,822.5734062882518 Q 786.3192486013477,838.3334062882518 746.4392486013477,851.7134062882518 C 732.3492486013477,856.4634062882518 717.6792486013477,858.7134062882518 703.0192486013477,861.0734062882518 C 691.8192486013477,862.8834062882518 680.3992486013477,863.3434062882518 669.4292486013477,866.5434062882518 C 662.2192486013477,868.6334062882519 659.5392486013477,873.6734062882518 661.8992486013477,880.8434062882518 A 27.28,27.28 0.0 0,0 662.8992486013477,883.4334062882518 A 63.37,63.37 0.0 0,1 666.6892486013477,924.8734062882518 C 660.1192486013476,952.4134062882517 659.6892486013477,980.4234062882517 661.0792486013477,1008.5234062882517 A 154.68,154.68 0.0 0,1 660.9092486013477,1027.2934062882518 C 659.5092486013477,1046.713406288252 657.6692486013477,1066.1234062882518 656.9992486013477,1085.5834062882518 C 656.3292486013478,1105.0434062882518 656.6392486013477,1124.5234062882519 656.9992486013477,1143.993406288252 C 657.1492486013477,1152.993406288252 657.9092486013477,1162.0534062882518 657.1192486013477,1171.0934062882518 C 655.9692486013478,1184.3534062882518 657.4192486013477,1197.5134062882519 658.7092486013478,1210.6634062882517 C 660.2692486013477,1226.5934062882518 661.2492486013477,1242.5234062882516 660.3592486013478,1258.5334062882516 C 660.0392486013477,1264.1634062882517 659.2092486013478,1269.8034062882516 655.6092486013478,1274.2834062882516 C 647.8892486013477,1283.8834062882515 645.1192486013477,1295.4734062882517 642.7992486013478,1306.9734062882517 C 638.6192486013479,1327.6534062882517 633.5292486013478,1348.1034062882518 628.2992486013478,1368.5234062882516 C 625.2992486013478,1380.4334062882517 620.8592486013478,1391.8734062882515 613.9592486013478,1402.2834062882516 C 606.1192486013477,1414.1034062882516 594.8092486013478,1420.2834062882516 581.4092486013478,1422.8734062882515 C 575.5092486013478,1424.0134062882516 569.5192486013478,1424.7534062882517 563.6892486013478,1426.2934062882516 A 35.34,35.34 0.0 0,1 547.8392486013478,1426.5834062882516 C 540.1092486013478,1425.1234062882515 532.3992486013477,1423.5834062882516 524.5292486013478,1422.8534062882516 C 506.7192486013479,1421.2034062882515 498.9692486013479,1408.3434062882516 510.4092486013479,1392.8534062882516 C 514.1192486013479,1387.8534062882516 517.5392486013478,1382.5634062882516 521.2492486013479,1377.5234062882516 C 528.3292486013479,1367.9234062882517 538.5192486013478,1362.3134062882516 549.4792486013479,1359.5234062882516 C 567.6192486013479,1354.8834062882515 577.9592486013479,1344.3234062882516 580.7992486013479,1325.9034062882517 C 581.9592486013479,1318.3434062882518 583.4592486013479,1310.8034062882518 583.7992486013479,1303.1734062882517 C 584.5792486013479,1286.7334062882517 585.019248601348,1270.2634062882516 584.1892486013479,1253.8134062882518 C 583.9192486013479,1248.6034062882518 583.1892486013479,1243.4234062882517 580.1892486013479,1238.983406288252 L 578.7092486013472,1239.2434062882517"/>
</svg>
