<?xml version="1.0" ?>
<svg xmlns="http://www.w3.org/2000/svg" xmlns:ev="http://www.w3.org/2001/xml-events" xmlns:xlink="http://www.w3.org/1999/xlink" baseProfile="full" data-name="Layer 1" height="1183" transform="scale(0.08453085376162299 0.08453085376162299) translate(-875.0 -591.5)" version="1.1" viewBox="0 0 1750 1183" width="1750">
	<defs/>
	<path d="M 830.9403533944705,1076.446547990686 A 28.19,28.19 0.0 0,0 831.3403533944705,1087.926547990686 C 834.7503533944705,1104.076547990686 831.2603533944705,1118.466547990686 821.4703533944705,1131.846547990686 C 811.2303533944705,1145.846547990686 798.5703533944705,1157.0165479906861 784.3103533944706,1166.606547990686 C 775.6303533944706,1172.426547990686 765.6103533944705,1173.896547990686 755.6903533944705,1175.316547990686 C 741.6303533944706,1177.316547990686 727.4703533944705,1178.7165479906862 713.3503533944705,1180.316547990686 A 62.69,62.69 0.0 0,1 696.9903533944705,1179.856547990686 A 24.34,24.34 0.0 0,0 685.9903533944705,1180.436547990686 C 674.7503533944705,1183.966547990686 663.5603533944706,1183.126547990686 652.3803533944705,1179.946547990686 C 642.5103533944705,1177.126547990686 632.6703533944705,1174.336547990686 622.3303533944705,1173.376547990686 C 612.6703533944706,1172.486547990686 606.3303533944705,1164.906547990686 605.9403533944705,1155.206547990686 C 605.8203533944705,1151.956547990686 605.9403533944705,1148.696547990686 605.9403533944705,1145.0565479906859 C 604.1203533944705,1144.286547990686 602.2103533944705,1145.0565479906859 600.4203533944706,1145.4065479906858 A 64.86,64.86 0.0 0,1 582.1303533944706,1146.1965479906858 A 28.5,28.5 0.0 0,0 571.7503533944706,1147.3865479906858 C 560.0003533944706,1150.5065479906857 548.3603533944706,1149.6665479906858 536.7503533944706,1146.4465479906858 C 533.5903533944706,1145.5665479906856 530.4003533944706,1144.7965479906857 527.2403533944706,1143.9365479906858 C 517.6403533944706,1141.3465479906858 513.3603533944706,1135.6765479906858 513.9803533944706,1125.6865479906858 C 514.6303533944706,1115.3565479906858 518.9803533944706,1106.2665479906857 524.4703533944706,1097.6865479906858 A 70.94,70.94 0.0 0,1 549.4703533944706,1074.0265479906857 C 567.1803533944707,1063.8965479906856 576.3503533944706,1047.7965479906857 578.4703533944706,1028.1965479906858 C 581.8503533944706,997.6465479906858 578.2003533944707,967.6265479906857 569.7503533944706,938.0365479906858 A 339.45,339.45 0.0 0,1 560.7503533944706,896.4065479906858 C 558.7503533944706,883.2565479906858 552.5803533944706,872.5865479906857 544.5003533944706,862.6065479906858 C 542.8503533944706,860.6065479906858 540.7303533944706,858.9065479906858 539.2103533944706,856.7965479906859 C 535.3903533944706,851.486547990686 530.8903533944706,849.3265479906859 524.1303533944706,851.1365479906859 C 521.1303533944706,851.9365479906859 519.0203533944706,852.4965479906859 517.5903533944706,855.3965479906859 A 79.66,79.66 0.0 0,1 511.91035339447063,864.976547990686 C 506.76035339447066,872.5165479906859 501.10035339447063,872.596547990686 495.91035339447063,864.976547990686 A 53.22,53.22 0.0 0,1 486.91035339447063,839.216547990686 C 485.9803533944706,827.956547990686 483.1803533944706,817.816547990686 474.72035339447064,809.666547990686 C 470.96035339447064,806.036547990686 470.10035339447063,800.8665479906861 469.6103533944706,795.776547990686 C 469.21035339447064,791.636547990686 468.8903533944706,787.4765479906861 468.1703533944706,783.396547990686 C 466.9903533944706,776.7365479906861 464.5403533944706,774.546547990686 457.83035339447065,773.516547990686 C 444.15035339447064,771.416547990686 442.15035339447064,769.276547990686 440.16035339447063,755.296547990686 A 76.0,76.0 0.0 0,1 439.7303533944706,736.966547990686 A 174.83,174.83 0.0 0,0 439.4303533944706,697.036547990686 A 96.7,96.7 0.0 0,0 436.3003533944706,682.306547990686 A 93.51,93.51 0.0 0,1 433.10035339447063,647.226547990686 C 435.90035339447064,618.046547990686 427.6803533944706,591.826547990686 411.83035339447065,567.736547990686 C 403.15035339447064,554.556547990686 395.2903533944706,541.056547990686 389.06035339447067,526.486547990686 C 381.65035339447064,509.1865479906859 372.8003533944707,492.4865479906859 361.14035339447065,477.6265479906859 C 348.19035339447066,461.1265479906859 334.59035339447064,445.1865479906859 318.4903533944707,431.45654799068586 C 303.8503533944707,419.02654799068586 287.14035339447065,415.02654799068586 268.4703533944707,417.3065479906859 A 277.81,277.81 0.0 0,0 239.3803533944707,422.3065479906859 A 77.65,77.65 0.0 0,1 212.6803533944707,424.0365479906859 C 204.8303533944707,423.1365479906859 197.04035339447069,423.7165479906859 189.1503533944707,424.3565479906859 C 172.2003533944707,425.7365479906859 155.1503533944707,428.1865479906859 138.1503533944707,424.8765479906859 C 117.3003533944707,420.8165479906859 97.5603533944707,413.9265479906859 81.2003533944707,399.7565479906859 C 74.13035339447069,393.6265479906859 67.11035339447069,387.3165479906859 63.7303533944707,378.02654799068586 A 39.0,39.0 0.0 0,1 61.960353394470694,358.02654799068586 A 24.87,24.87 0.0 0,1 70.8903533944707,342.42654799068583 C 75.7303533944707,338.42654799068583 77.66035339447069,332.9365479906858 78.60035339447069,326.9565479906858 C 79.13035339447069,323.61654799068583 78.32035339447069,320.9565479906858 75.34035339447068,319.0365479906858 C 74.24035339447069,318.3365479906858 73.34035339447068,317.2265479906858 72.20035339447068,316.68654799068577 C 63.75035339447068,312.7965479906858 58.30035339447068,305.68654799068577 52.33035339447068,298.95654799068575 C 40.33035339447068,285.34654799068574 29.650353394470674,270.6165479906858 18.330353394470674,256.46654799068574 C 11.760353394470673,248.28654799068576 6.860353394470674,238.88654799068578 2.440353394470674,229.36654799068577 C -6.149646605529326,210.89654799068578 9.250353394470672,184.77654799068577 28.160353394470672,184.36654799068577 A 25.0,25.0 0.0 0,0 38.810353394470674,181.29654799068578 C 55.660353394470675,172.70654799068578 73.62035339447067,167.21654799068577 91.81035339447067,162.29654799068578 C 101.93035339447067,159.55654799068577 112.20035339447067,157.29654799068578 122.16035339447066,154.0065479906858 C 136.99035339447067,149.14654799068578 151.03035339447067,142.5965479906858 162.33035339447065,131.32654799068578 A 50.88,50.88 0.0 0,0 175.53035339447064,109.02654799068577 C 178.53035339447064,98.53654799068578 180.67035339447062,87.74654799068577 185.62035339447064,77.88654799068577 C 194.47035339447064,60.286547990685776 206.09035339447064,45.38654799068577 224.62035339447064,36.93654799068577 C 231.53035339447064,33.786547990685776 238.86035339447065,32.80654799068577 246.20035339447065,31.74654799068577 C 267.41035339447063,28.68654799068577 288.45035339447065,24.68654799068577 309.47035339447064,20.54654799068577 A 118.16,118.16 0.0 0,1 334.94035339447066,18.67654799068577 C 342.43035339447067,18.83654799068577 349.78035339447064,18.29654799068577 356.89035339447065,15.67654799068577 A 20.0,20.0 0.0 0,1 376.26035339447066,17.95654799068577 C 379.68035339447067,20.30654799068577 383.65035339447064,21.90654799068577 386.84035339447064,24.50654799068577 C 396.2403533944706,32.16654799068577 405.60035339447063,30.22654799068577 414.7403533944706,24.56654799068577 C 420.6803533944706,20.89654799068577 426.2003533944706,16.56654799068577 431.7403533944706,12.29654799068577 A 70.3,70.3 0.0 0,1 450.46035339447064,1.6065479906857707 A 22.44,22.44 0.0 0,1 463.9803533944706,0.6065479906857707 C 471.09035339447064,2.4465479906857706 475.70035339447065,6.516547990685771 477.7303533944706,13.95654799068577 A 125.06,125.06 0.0 0,1 481.2603533944706,58.72654799068577 C 480.0903533944706,71.53654799068578 479.9103533944706,84.41654799068577 483.7103533944706,97.10654799068577 C 486.11035339447056,105.10654799068577 490.5103533944706,111.76654799068577 495.7103533944706,117.90654799068577 C 508.79035339447057,133.21654799068577 521.0203533944706,149.14654799068578 533.0403533944706,165.30654799068577 C 548.7403533944706,186.35654799068578 565.5703533944705,206.54654799068578 586.2603533944706,223.02654799068577 A 132.66,132.66 0.0 0,0 602.7703533944706,233.71654799068577 A 248.23,248.23 0.0 0,1 643.7703533944706,263.0465479906857 C 656.4503533944705,274.34654799068574 671.4803533944706,282.09654799068574 685.8303533944706,290.8665479906857 C 688.8303533944706,292.6865479906857 691.9703533944706,294.2565479906857 694.8303533944706,296.2465479906857 C 712.1903533944707,308.2465479906857 732.0203533944707,314.41654799068573 752.0003533944706,320.1265479906857 A 113.57,113.57 0.0 0,0 765.5203533944706,322.7165479906857 C 780.3303533944705,325.0765479906857 794.3003533944706,330.1665479906857 807.9303533944706,336.11654799068566 C 829.2303533944705,345.39654799068563 851.5403533944706,350.25654799068565 874.5303533944706,352.4065479906857 C 886.1303533944706,353.49654799068566 897.4403533944705,355.5365479906857 908.3103533944706,359.9765479906857 C 928.8903533944706,368.3965479906857 950.6903533944705,370.2765479906857 972.5903533944705,371.1365479906857 C 993.3603533944705,371.9665479906857 1014.0803533944705,373.1365479906857 1034.5903533944704,377.0465479906857 C 1039.1203533944704,377.89654799068575 1043.7503533944705,377.66654799068573 1048.3403533944704,377.58654799068574 C 1063.0003533944705,377.31654799068576 1077.6603533944703,377.22654799068573 1092.3403533944704,377.88654799068576 C 1112.1803533944703,378.77654799068574 1130.9603533944703,385.03654799068573 1150.0503533944704,389.68654799068577 C 1168.0503533944704,394.07654799068575 1185.8003533944704,399.76654799068575 1203.8903533944704,404.0365479906858 A 142.7,142.7 0.0 0,0 1244.2303533944703,408.1065479906858 C 1265.0503533944702,407.0165479906858 1284.5703533944702,411.75654799068576 1303.8203533944702,418.74654799068577 C 1317.3703533944702,423.6665479906858 1330.6403533944701,429.4865479906858 1344.93035339447,432.08654799068574 C 1353.3303533944702,433.6165479906857 1361.6203533944702,435.5565479906858 1369.93035339447,437.59654799068574 C 1389.1303533944701,442.32654799068575 1406.48035339447,450.65654799068574 1421.5603533944702,463.59654799068574 C 1427.68035339447,468.8665479906857 1433.9403533944703,473.9865479906857 1440.5603533944702,478.6765479906857 C 1449.42035339447,484.9265479906857 1459.3703533944702,488.84654799068574 1469.2403533944703,492.9965479906857 A 16.12,16.12 0.0 0,0 1473.6503533944704,494.1965479906857 C 1492.8203533944704,496.3865479906857 1511.9903533944703,498.1965479906857 1530.9703533944703,492.8365479906857 C 1539.4003533944704,490.4765479906857 1547.9703533944703,488.67654799068566 1556.5603533944702,487.1465479906857 A 103.5,103.5 0.0 0,0 1598.9803533944703,469.0265479906857 C 1607.5603533944702,462.9165479906857 1616.4103533944703,457.3465479906857 1626.4403533944703,453.85654799068567 A 137.16,137.16 0.0 0,1 1649.4403533944703,448.4665479906857 C 1662.0703533944704,446.3765479906857 1673.1403533944704,441.0765479906857 1683.5303533944702,433.9465479906857 A 211.0,211.0 0.0 0,1 1702.9103533944703,421.66654799068573 C 1711.8303533944704,416.88654799068576 1721.3403533944704,415.08654799068574 1731.3803533944704,415.26654799068575 C 1738.4503533944703,415.38654799068576 1743.2603533944705,418.39654799068575 1746.5203533944705,424.74654799068577 C 1750.8903533944704,433.26654799068575 1750.1903533944705,442.1165479906858 1749.0803533944704,451.0565479906858 C 1748.5103533944705,455.6165479906858 1747.7003533944703,460.13654799068576 1747.0803533944704,464.69654799068576 C 1745.4303533944703,477.32654799068575 1739.8003533944704,487.69654799068576 1728.7603533944705,494.28654799068573 A 119.83,119.83 0.0 0,0 1704.4403533944705,514.1165479906858 C 1692.2803533944705,526.6865479906859 1677.8303533944706,536.1165479906858 1662.4403533944705,544.1965479906859 C 1658.3403533944706,546.3665479906858 1654.5403533944705,548.7665479906859 1651.5903533944706,552.4665479906859 C 1642.0903533944706,564.3865479906858 1629.5303533944707,570.8265479906859 1614.4703533944707,572.3365479906859 C 1601.1903533944708,573.6665479906859 1588.0303533944707,575.7465479906858 1574.9103533944708,578.1765479906859 C 1562.1103533944708,580.5465479906859 1549.1603533944708,579.2565479906859 1536.2703533944707,579.5065479906859 A 35.62,35.62 0.0 0,0 1524.6503533944708,581.216547990686 C 1517.9203533944708,583.676547990686 1514.6503533944708,589.0265479906859 1517.030353394471,595.696547990686 C 1522.030353394471,609.3765479906859 1522.6203533944708,623.466547990686 1522.420353394471,637.696547990686 A 44.26,44.26 0.0 0,0 1524.5603533944711,651.236547990686 C 1528.680353394471,664.6565479906859 1531.410353394471,678.2865479906859 1531.7503533944712,692.426547990686 A 62.92,62.92 0.0 0,0 1540.1303533944713,723.136547990686 C 1548.1303533944713,736.8265479906861 1549.5003533944712,752.0765479906861 1550.9803533944712,767.306547990686 A 26.83,26.83 0.0 0,1 1550.2503533944712,774.456547990686 A 25.43,25.43 0.0 0,0 1554.7503533944712,794.356547990686 A 122.48,122.48 0.0 0,0 1564.100353394471,806.196547990686 C 1568.2603533944712,810.776547990686 1571.460353394471,815.766547990686 1572.620353394471,822.136547990686 C 1573.850353394471,828.8665479906861 1579.440353394471,832.5865479906861 1584.470353394471,836.436547990686 C 1588.810353394471,839.756547990686 1593.360353394471,842.796547990686 1597.770353394471,846.016547990686 C 1604.160353394471,850.686547990686 1608.010353394471,856.7365479906861 1607.6203533944708,864.926547990686 C 1607.510353394471,867.216547990686 1608.3803533944708,869.186547990686 1609.1403533944708,871.236547990686 C 1612.280353394471,879.716547990686 1613.060353394471,888.236547990686 1609.5003533944707,896.816547990686 A 13.81,13.81 0.0 0,0 1609.5803533944706,907.666547990686 C 1611.5803533944706,912.726547990686 1614.3903533944706,917.496547990686 1616.4803533944707,922.446547990686 C 1622.7403533944707,937.326547990686 1629.4803533944707,952.156547990686 1631.2903533944707,968.446547990686 A 150.68,150.68 0.0 0,1 1632.7803533944707,984.116547990686 C 1632.8603533944706,993.0465479906859 1635.1403533944706,1001.316547990686 1638.5603533944707,1009.486547990686 C 1643.0403533944707,1020.176547990686 1647.1703533944706,1031.026547990686 1647.6903533944708,1042.8465479906858 A 11.4,11.4 0.0 0,0 1649.1803533944708,1047.8465479906858 C 1652.2503533944707,1053.1565479906858 1654.6003533944709,1058.786547990686 1657.1803533944708,1064.3365479906859 C 1660.4503533944708,1071.4365479906858 1659.8203533944709,1076.6965479906858 1654.1303533944708,1082.016547990686 C 1651.4103533944708,1084.5665479906859 1648.4703533944707,1087.016547990686 1644.9603533944708,1088.276547990686 C 1634.7703533944707,1091.8965479906858 1627.7403533944707,1099.1465479906858 1621.6403533944708,1107.6365479906858 A 119.92,119.92 0.0 0,1 1607.310353394471,1123.8465479906858 C 1600.8403533944709,1130.0665479906859 1593.310353394471,1134.1765479906858 1584.1803533944708,1135.1165479906858 A 118.64,118.64 0.0 0,0 1563.6203533944708,1139.2265479906857 C 1554.1103533944708,1141.9465479906858 1544.6203533944708,1142.2265479906857 1535.300353394471,1138.5365479906857 A 24.13,24.13 0.0 0,0 1523.710353394471,1137.0665479906856 A 37.83,37.83 0.0 0,1 1508.210353394471,1135.0665479906856 C 1500.210353394471,1132.5465479906857 1494.380353394471,1127.7765479906857 1491.740353394471,1119.5465479906857 C 1490.940353394471,1117.0565479906857 1490.140353394471,1114.4065479906856 1488.160353394471,1112.6065479906856 C 1482.160353394471,1107.1665479906856 1481.940353394471,1100.1665479906856 1483.370353394471,1093.1865479906855 C 1485.370353394471,1083.5865479906856 1487.5203533944712,1074.0565479906854 1494.370353394471,1066.1865479906855 C 1498.430353394471,1061.5265479906855 1500.070353394471,1055.8365479906856 1495.2903533944711,1050.1065479906856 A 9.26,9.26 0.0 0,1 1493.5303533944711,1044.5465479906857 A 7.36,7.36 0.0 0,0 1491.5303533944711,1039.1665479906856 C 1487.9303533944712,1035.7365479906855 1487.890353394471,1031.4465479906855 1488.5303533944711,1026.9765479906855 C 1488.9803533944712,1023.9765479906855 1489.5303533944711,1020.9765479906855 1489.7603533944712,1017.8865479906855 C 1489.9603533944712,1015.4465479906854 1488.5503533944711,1014.8865479906855 1486.4103533944713,1015.6965479906854 A 2.42,2.42 0.0 0,0 1485.8403533944713,1016.0065479906854 C 1477.7603533944714,1022.3565479906854 1469.1603533944713,1028.1565479906853 1461.8403533944713,1035.2365479906853 C 1455.9403533944712,1040.9065479906853 1454.1603533944713,1049.0965479906852 1455.5303533944714,1057.2365479906853 A 41.86,41.86 0.0 0,1 1450.1303533944713,1086.2365479906853 A 20.58,20.58 0.0 0,0 1447.6203533944713,1096.9665479906853 A 48.27,48.27 0.0 0,1 1446.7103533944712,1107.4065479906853 C 1445.5303533944711,1112.9265479906853 1442.1603533944713,1116.1865479906853 1436.7903533944711,1117.5565479906854 C 1429.850353394471,1119.3365479906854 1422.890353394471,1119.5565479906854 1416.080353394471,1117.2165479906855 A 34.63,34.63 0.0 0,0 1395.440353394471,1116.5365479906854 C 1387.660353394471,1118.5365479906854 1379.810353394471,1118.2965479906854 1371.990353394471,1117.0165479906855 C 1362.160353394471,1115.4165479906856 1352.430353394471,1115.1565479906856 1342.740353394471,1117.9165479906856 A 29.42,29.42 0.0 0,1 1324.050353394471,1117.1865479906855 C 1318.680353394471,1115.1865479906855 1313.050353394471,1113.8265479906856 1307.3503533944709,1114.2965479906854 C 1297.800353394471,1115.0965479906854 1290.540353394471,1111.3565479906854 1283.8803533944708,1104.9265479906855 C 1272.5903533944709,1094.0165479906855 1271.8203533944709,1089.0265479906855 1280.3503533944709,1075.9265479906855 C 1282.280353394471,1072.9265479906855 1284.260353394471,1069.9265479906855 1287.1703533944708,1068.0165479906855 C 1292.3703533944708,1064.5465479906854 1296.1703533944708,1059.8065479906854 1300.1703533944708,1055.1865479906855 A 52.75,52.75 0.0 0,1 1313.5403533944707,1043.7365479906855 C 1318.0903533944706,1041.1265479906856 1321.9003533944706,1037.3265479906854 1325.3603533944706,1033.4065479906856 C 1331.4403533944705,1026.5265479906855 1337.0803533944706,1019.2665479906856 1343.0303533944707,1012.2765479906856 C 1346.4103533944708,1008.2765479906856 1345.5403533944707,1006.0365479906856 1340.2203533944707,1004.4065479906856 C 1338.6103533944708,1003.9165479906856 1336.7703533944707,1004.1465479906856 1335.0303533944707,1004.0765479906855 A 79.32,79.32 0.0 0,1 1325.8803533944706,1003.6465479906856 C 1320.6603533944706,1002.8265479906855 1317.8103533944707,999.6465479906856 1317.4903533944705,994.3065479906855 A 45.42,45.42 0.0 0,0 1316.2303533944705,984.5865479906855 C 1315.4303533944706,981.7465479906855 1313.9903533944705,980.1465479906855 1310.8003533944704,979.9465479906855 C 1307.1103533944704,979.6965479906855 1303.4403533944705,978.9465479906855 1299.8003533944704,978.3465479906855 C 1297.6403533944704,977.9965479906855 1295.3103533944704,977.9265479906855 1293.3903533944704,977.0165479906855 A 46.86,46.86 0.0 0,0 1275.9503533944703,972.2665479906855 A 9.0,9.0 0.0 0,1 1268.5003533944703,967.4665479906855 C 1267.2203533944703,965.0665479906855 1265.5003533944703,964.8665479906855 1263.1303533944704,965.0865479906855 C 1258.5703533944704,965.5065479906855 1253.9903533944703,965.5365479906856 1249.5803533944704,967.0865479906855 C 1244.7003533944703,968.8465479906855 1240.0803533944704,968.4765479906855 1236.2803533944705,964.4965479906855 A 4.79,4.79 0.0 0,0 1232.2803533944705,962.7065479906855 C 1227.4503533944705,963.0265479906856 1225.2203533944705,959.8765479906855 1223.6803533944706,956.0165479906855 C 1222.7903533944705,953.7865479906854 1222.2903533944705,951.4065479906855 1221.4503533944705,949.1565479906855 C 1219.5803533944706,944.1565479906855 1216.8803533944706,939.7265479906855 1212.1103533944706,936.8765479906855 C 1207.3403533944706,934.0265479906855 1204.6603533944706,929.7165479906855 1201.6703533944706,925.3365479906855 C 1193.9403533944705,913.9965479906855 1186.4003533944706,902.4565479906855 1175.5703533944707,893.6365479906855 A 79.58,79.58 0.0 0,1 1164.5703533944707,882.4065479906855 A 19.69,19.69 0.0 0,0 1153.8103533944707,875.4065479906855 C 1150.4303533944706,874.5665479906854 1147.1603533944706,873.2565479906855 1143.8103533944707,872.1265479906855 A 16.09,16.09 0.0 0,0 1135.4403533944708,871.3065479906854 C 1131.2003533944708,872.1065479906854 1127.1103533944708,871.5765479906854 1123.6603533944708,868.7365479906854 C 1121.4503533944708,866.9265479906854 1119.2203533944707,867.2665479906854 1116.9103533944708,868.2565479906854 C 1114.290353394471,869.3665479906854 1111.6803533944708,870.4765479906854 1109.1103533944708,871.6965479906854 A 28.1,28.1 0.0 0,1 1084.3603533944708,871.9465479906854 A 21.57,21.57 0.0 0,0 1069.1203533944708,870.7065479906854 C 1059.500353394471,873.1965479906854 1050.1203533944708,873.2265479906854 1041.3403533944709,867.4865479906854 C 1038.780353394471,865.8165479906854 1035.9503533944708,865.8965479906853 1033.1403533944708,866.8965479906853 C 1023.4703533944709,870.3365479906854 1013.5003533944708,873.1165479906854 1005.2203533944709,879.5865479906854 C 998.5103533944708,884.8265479906854 991.1303533944708,886.4165479906854 983.0303533944708,883.4665479906854 A 8.1,8.1 0.0 0,0 977.9703533944709,883.4665479906854 A 37.56,37.56 0.0 0,0 966.0603533944709,889.0265479906853 A 48.58,48.58 0.0 0,1 949.4103533944709,896.5365479906853 C 944.2003533944709,897.6565479906853 938.9303533944709,898.3065479906853 934.5603533944709,894.1565479906853 C 932.9403533944709,892.6165479906854 931.6203533944708,892.8765479906854 929.9703533944709,894.0465479906853 C 923.8903533944708,898.3865479906854 917.5903533944709,902.2665479906854 909.9703533944709,903.4065479906853 C 907.7703533944708,903.7365479906854 906.1903533944709,905.5465479906853 904.4503533944709,906.8565479906854 C 901.7903533944709,908.8565479906854 899.0203533944709,910.6565479906853 895.6003533944709,910.7965479906854 C 890.2903533944709,911.0165479906855 887.8403533944709,914.4065479906855 886.6003533944709,918.8965479906855 C 885.2403533944708,923.7265479906855 884.0603533944709,928.6265479906855 883.1103533944708,933.5565479906854 A 70.82,70.82 0.0 0,1 877.7103533944709,951.0465479906854 C 875.3603533944708,955.9265479906854 872.4803533944709,960.3365479906854 865.8003533944709,959.0465479906854 C 863.1603533944709,958.5565479906854 862.4103533944709,960.4465479906854 862.130353394471,962.5765479906854 A 36.34,36.34 0.0 0,0 862.830353394471,975.5765479906854 A 46.46,46.46 0.0 0,1 864.000353394471,988.5765479906854 C 863.850353394471,991.6865479906854 863.2803533944709,994.7265479906854 861.190353394471,997.1465479906855 C 859.1003533944711,999.5665479906855 858.480353394471,1002.5865479906855 858.480353394471,1005.7065479906854 C 858.480353394471,1009.6365479906854 858.480353394471,1013.5765479906854 858.6603533944709,1017.5065479906854 C 858.9603533944709,1026.6365479906854 857.6603533944709,1035.4065479906853 853.0303533944709,1043.4465479906853 C 850.500353394471,1047.8765479906854 850.3903533944709,1052.6165479906854 850.9303533944709,1057.4465479906853 C 851.3103533944709,1060.9265479906853 851.750353394471,1064.4465479906853 852.1103533944708,1067.8765479906854 A 17.78,17.78 0.0 0,1 851.5103533944708,1075.0265479906855 C 849.6003533944709,1081.2065479906855 844.5103533944708,1083.5265479906855 838.6703533944708,1080.7565479906855 C 836.1503533944708,1079.6965479906855 833.8303533944708,1078.1265479906854 830.9403533944708,1076.4465479906855 L 830.9403533944705,1076.446547990686"/>
</svg>
