<?xml version="1.0" ?>
<svg xmlns="http://www.w3.org/2000/svg" xmlns:ev="http://www.w3.org/2001/xml-events" xmlns:xlink="http://www.w3.org/1999/xlink" baseProfile="full" data-name="Layer 1" height="1749" transform="scale(0.07974481658692185 0.07974481658692185) translate(-627.0 -874.5)" version="1.1" viewBox="0 0 1254 1749" width="1254">
	<defs/>
	<path d="M 293.66238759952944,140.8741345160152 C 290.38238759952947,148.0641345160152 287.54238759952943,154.0941345160152 284.8723875995294,160.2141345160152 C 283.3823875995294,163.6341345160152 283.60238759952944,167.3841345160152 284.1523875995294,170.9041345160152 C 287.6423875995294,193.1641345160152 290.0223875995294,215.6641345160152 296.6323875995294,237.29413451601522 C 300.1423875995294,248.7441345160152 303.0523875995294,260.2941345160152 305.54238759952943,271.9741345160152 C 308.3223875995294,285.02413451601524 308.95238759952946,298.34413451601523 310.85238759952944,311.5041345160152 C 312.95238759952946,326.0041345160152 314.5623875995294,340.5741345160152 316.6923875995294,355.0641345160152 A 76.94,76.94 0.0 0,0 328.04238759952943,385.9641345160152 A 15.91,15.91 0.0 0,0 334.4323875995294,391.72413451601517 A 148.22,148.22 0.0 0,0 356.4323875995294,400.3841345160152 C 367.8323875995294,404.0541345160152 379.5623875995294,406.3841345160152 391.2023875995294,409.0341345160152 C 408.1123875995294,412.8841345160152 424.8223875995294,411.0941345160152 441.2023875995294,405.8441345160152 Q 456.0223875995294,401.10413451601516 470.73238759952943,396.05413451601515 A 157.85,157.85 0.0 0,1 519.8923875995293,387.8441345160152 C 556.7723875995293,387.22413451601517 593.3223875995293,390.0841345160152 629.3623875995294,398.3841345160152 C 637.0423875995293,400.1541345160152 644.8123875995294,401.5641345160152 652.5723875995294,402.9841345160152 C 674.4323875995294,406.9841345160152 695.1423875995295,414.6641345160152 715.6923875995294,422.8041345160152 A 39.0,39.0 0.0 0,1 721.1923875995294,425.4141345160152 C 746.5923875995294,440.4941345160152 772.5923875995294,454.5041345160152 798.6923875995294,468.3141345160152 C 820.0123875995295,479.5941345160152 838.6923875995294,494.3141345160152 856.6123875995294,510.2041345160152 Q 875.8823875995294,527.2041345160152 894.2723875995293,545.2041345160152 C 902.3323875995293,553.1241345160151 908.9623875995294,562.2941345160152 916.2123875995294,570.9241345160152 A 407.93,407.93 0.0 0,0 950.9223875995294,607.8641345160153 C 967.8623875995295,623.5941345160153 980.3223875995294,642.4141345160152 989.1723875995294,663.7841345160152 C 1001.1023875995294,692.6141345160153 1009.9023875995294,722.4141345160152 1017.2323875995294,752.6741345160152 C 1023.3823875995294,778.0841345160152 1030.7123875995294,803.2141345160152 1035.6423875995295,828.9141345160152 C 1037.9323875995294,840.9141345160152 1040.4823875995294,852.7641345160152 1043.4123875995294,864.5841345160152 A 122.81,122.81 0.0 0,0 1051.7523875995294,887.3841345160151 C 1061.4723875995294,907.9741345160152 1072.5023875995294,927.9241345160151 1081.3323875995293,948.9341345160151 C 1091.3323875995293,972.6641345160151 1098.4323875995292,997.374134516015 1106.3323875995293,1021.8241345160151 C 1110.9623875995294,1036.194134516015 1115.3323875995293,1050.6341345160151 1120.1623875995292,1064.9541345160153 A 161.19,161.19 0.0 0,0 1133.1623875995292,1093.9541345160153 C 1141.1623875995292,1108.0541345160152 1148.9923875995291,1122.2941345160152 1157.272387599529,1136.2441345160153 C 1167.562387599529,1153.5641345160152 1179.7123875995292,1169.5141345160152 1194.5023875995291,1183.2441345160153 C 1204.5023875995291,1192.5441345160152 1209.862387599529,1204.0341345160152 1212.282387599529,1217.3441345160152 C 1217.282387599529,1245.0941345160152 1219.282387599529,1273.2741345160152 1224.282387599529,1301.0041345160153 C 1232.2023875995292,1344.0041345160153 1238.282387599529,1387.3441345160152 1248.522387599529,1429.9141345160153 C 1253.522387599529,1450.7141345160153 1253.9623875995292,1471.9141345160153 1253.6623875995292,1493.1241345160154 C 1253.4523875995292,1507.5241345160155 1253.3323875995293,1522.0141345160155 1250.272387599529,1536.2141345160153 C 1249.4623875995292,1539.9541345160153 1248.552387599529,1543.6841345160153 1247.4223875995292,1547.3441345160154 C 1243.5123875995291,1560.0841345160154 1235.8423875995293,1568.6941345160153 1222.3023875995293,1572.1341345160154 C 1212.0523875995293,1574.7341345160153 1202.0923875995293,1578.3241345160154 1191.4523875995294,1579.4841345160153 C 1183.8223875995293,1580.3141345160152 1176.6323875995295,1579.9141345160153 1169.9323875995294,1575.7941345160152 A 21.81,21.81 0.0 0,0 1163.7023875995294,1573.2441345160153 C 1154.3823875995295,1570.9541345160153 1147.8323875995295,1563.8041345160152 1147.3123875995293,1554.2441345160153 C 1146.3123875995293,1535.5541345160152 1150.3123875995293,1518.3341345160152 1164.0023875995294,1504.5441345160152 A 42.78,42.78 0.0 0,0 1175.9323875995294,1481.4841345160153 A 101.67,101.67 0.0 0,0 1176.6323875995295,1447.8641345160154 C 1175.1323875995295,1437.8641345160154 1174.7023875995294,1427.6841345160153 1173.8023875995295,1417.5841345160154 C 1172.3723875995295,1401.5841345160154 1169.2023875995296,1385.9141345160153 1166.1523875995294,1370.2041345160153 C 1162.4023875995294,1350.9641345160153 1160.0623875995295,1331.4541345160153 1155.4723875995294,1312.3641345160154 C 1151.8123875995293,1297.1441345160154 1146.7623875995293,1282.5141345160155 1137.0823875995293,1269.8841345160154 A 70.0,70.0 0.0 0,1 1126.5023875995294,1250.3341345160154 C 1119.3523875995293,1229.9441345160153 1107.3823875995295,1212.6441345160154 1092.5023875995294,1197.2341345160155 C 1088.4223875995294,1193.0241345160155 1084.4223875995294,1188.7341345160155 1080.3423875995293,1184.5241345160155 C 1066.3423875995293,1170.0341345160155 1053.8323875995293,1154.5241345160155 1045.2323875995294,1136.0241345160155 A 97.9,97.9 0.0 0,0 1015.6823875995294,1099.6241345160154 C 999.3523875995294,1087.0441345160154 985.6123875995294,1071.7241345160153 971.3323875995294,1057.0641345160154 C 955.1023875995294,1040.4141345160153 941.1223875995294,1021.8041345160153 928.2523875995294,1002.4241345160153 A 57.15,57.15 0.0 0,1 923.6023875995294,993.4241345160153 A 295.36,295.36 0.0 0,0 898.3923875995293,947.1841345160153 C 890.7823875995293,935.7341345160153 883.5523875995293,924.0241345160154 876.1523875995293,912.4341345160153 C 875.3123875995293,911.1241345160154 874.4123875995293,909.8441345160153 873.5123875995293,908.5041345160154 C 870.7823875995293,909.5041345160154 870.6323875995294,912.0241345160154 869.7423875995294,913.9441345160154 C 853.7423875995294,948.3441345160154 841.7423875995294,984.2941345160154 830.3323875995294,1020.3941345160155 A 606.46,606.46 0.0 0,0 810.5423875995294,1101.8141345160157 A 16.5,16.5 0.0 0,0 813.0123875995295,1114.5141345160157 C 823.5123875995295,1130.8241345160156 834.1623875995294,1147.0141345160157 846.3523875995295,1162.1241345160156 C 852.2923875995295,1169.4841345160155 855.1023875995295,1178.3641345160156 858.1523875995294,1187.0241345160157 C 859.7023875995294,1191.4141345160158 859.0523875995294,1196.4941345160157 858.1523875995294,1201.1241345160156 C 854.4723875995295,1220.5841345160156 853.5823875995294,1240.5141345160157 847.7623875995295,1259.6341345160156 C 844.9923875995295,1268.7241345160155 844.9623875995295,1278.3441345160156 844.6923875995294,1287.8041345160157 C 844.0723875995294,1309.7141345160157 842.0523875995294,1331.4441345160158 837.5623875995294,1352.9241345160156 C 835.1123875995294,1364.6541345160156 834.0923875995294,1376.5741345160156 833.4323875995294,1388.5041345160155 C 832.0423875995294,1413.6141345160154 827.2323875995294,1438.1341345160156 820.8823875995295,1462.3641345160154 C 818.5823875995295,1471.1141345160154 815.7723875995295,1480.0141345160155 809.0223875995295,1486.3641345160154 C 800.5223875995295,1494.3641345160154 791.7223875995295,1502.1841345160153 781.9423875995294,1508.5941345160154 A 39.33,39.33 0.0 0,1 757.5123875995295,1515.1741345160153 A 37.08,37.08 0.0 0,0 742.2523875995295,1517.4941345160153 A 39.94,39.94 0.0 0,1 710.7023875995295,1516.1141345160152 C 702.1523875995296,1512.184134516015 698.4823875995295,1505.434134516015 701.3223875995295,1496.3341345160152 C 705.5223875995296,1482.8641345160152 712.0023875995295,1470.5041345160153 721.6323875995295,1460.0341345160152 A 177.2,177.2 0.0 0,1 740.9923875995295,1442.1341345160151 A 49.92,49.92 0.0 0,0 755.0523875995294,1424.204134516015 C 761.6623875995294,1410.1041345160152 767.5123875995295,1395.744134516015 771.2223875995294,1380.544134516015 A 483.13,483.13 0.0 0,1 786.3523875995294,1331.454134516015 C 788.2923875995294,1326.074134516015 787.5423875995294,1321.964134516015 785.1423875995293,1316.914134516015 C 771.7823875995293,1288.8241345160152 758.5723875995293,1260.5941345160152 753.1423875995293,1229.6141345160152 C 750.3723875995294,1213.8441345160152 748.2623875995293,1197.954134516015 750.4323875995293,1181.8641345160152 A 8.74,8.74 0.0 0,0 748.2623875995293,1174.3841345160151 C 744.3423875995294,1170.0341345160152 740.7223875995294,1165.3841345160151 736.5623875995293,1161.2641345160152 C 713.8723875995292,1138.8841345160151 692.9923875995293,1114.9741345160153 675.0723875995293,1088.5841345160152 A 183.49,183.49 0.0 0,1 655.4323875995293,1050.8741345160151 C 650.1923875995293,1037.1341345160151 643.8523875995293,1023.9541345160151 637.4323875995293,1010.794134516015 C 624.8123875995293,984.7241345160149 619.4323875995293,957.054134516015 618.1823875995293,928.424134516015 A 275.11,275.11 0.0 0,0 613.2423875995293,885.494134516015 C 610.9923875995293,874.494134516015 609.2423875995293,863.3141345160151 607.0923875995293,852.244134516015 A 81.46,81.46 0.0 0,0 602.2123875995293,835.7141345160151 C 599.8923875995292,836.3041345160151 599.0723875995293,837.7141345160151 598.0923875995293,838.9241345160151 C 580.0923875995293,860.4141345160151 559.8023875995293,879.6441345160151 539.3523875995293,898.7341345160152 C 524.8723875995292,912.2341345160152 510.8123875995293,926.2341345160152 494.9323875995293,938.2341345160152 C 485.03238759952933,945.7241345160152 474.7023875995293,952.5941345160152 464.4023875995293,959.4841345160152 C 460.2023875995293,962.2941345160151 458.29238759952926,965.1541345160151 459.1923875995293,970.5541345160152 A 150.81,150.81 0.0 0,0 463.5523875995293,990.9941345160153 A 86.62,86.62 0.0 0,1 467.2623875995293,1027.7041345160153 A 351.22,351.22 0.0 0,0 466.2623875995293,1098.5841345160154 C 468.1323875995293,1121.2641345160155 470.04238759952926,1143.9841345160155 468.5223875995293,1166.8041345160154 A 68.0,68.0 0.0 0,0 469.1523875995293,1180.9841345160155 C 472.29238759952926,1202.7741345160155 470.86238759952926,1224.6041345160154 470.10238759952927,1246.4741345160155 C 468.8223875995293,1283.2041345160155 467.17238759952926,1319.9341345160155 468.88238759952924,1356.7041345160155 C 469.32238759952924,1366.3841345160156 469.14238759952923,1376.0941345160156 469.19238759952924,1385.7841345160155 C 469.2823875995292,1403.6241345160154 471.32238759952924,1421.3441345160154 472.3323875995292,1439.1241345160154 C 472.88238759952924,1448.8241345160154 472.7823875995292,1458.4741345160153 472.38238759952924,1468.1841345160153 C 471.86238759952926,1480.7841345160152 472.38238759952924,1493.4341345160153 472.0223875995292,1506.0541345160152 C 471.5223875995292,1525.424134516015 471.0223875995292,1544.8241345160152 469.89238759952923,1564.164134516015 C 468.5923875995292,1585.5441345160152 470.9623875995292,1606.514134516015 475.6623875995292,1627.254134516015 C 480.6623875995292,1649.324134516015 480.6623875995292,1671.554134516015 478.4823875995292,1693.844134516015 C 477.7723875995292,1701.044134516015 478.4823875995292,1708.2141345160148 477.6623875995292,1715.4141345160149 C 476.13238759952924,1728.7241345160148 467.6623875995292,1737.814134516015 454.4023875995292,1739.304134516015 A 16.33,16.33 0.0 0,0 447.4023875995292,1741.694134516015 C 436.00238759952924,1748.804134516015 423.6623875995292,1749.694134516015 410.8723875995292,1747.1141345160152 A 24.47,24.47 0.0 0,0 400.2023875995292,1747.1141345160152 C 395.34238759952916,1748.2741345160152 390.33238759952917,1747.924134516015 385.3723875995292,1747.664134516015 C 381.8623875995292,1747.484134516015 378.90238759952916,1745.754134516015 376.3023875995292,1743.524134516015 C 362.3923875995292,1731.604134516015 355.6223875995292,1717.044134516015 359.9923875995292,1698.524134516015 C 364.08238759952917,1681.194134516015 368.3923875995292,1663.924134516015 372.6223875995292,1646.624134516015 C 376.3023875995292,1631.554134516015 379.1723875995292,1616.2141345160148 377.6223875995292,1600.4841345160148 C 377.46238759952917,1598.9141345160149 377.6223875995292,1597.2241345160148 377.0723875995292,1595.8041345160148 C 374.0723875995292,1588.0041345160148 375.5123875995292,1580.4241345160146 377.1823875995292,1572.5741345160147 A 265.29,265.29 0.0 0,0 380.7923875995292,1481.1441345160147 Q 378.9723875995292,1467.7541345160146 377.4023875995292,1454.3141345160147 C 375.5923875995292,1439.0741345160147 377.70238759952923,1424.1641345160147 381.4723875995292,1409.4341345160146 A 145.78,145.78 0.0 0,0 385.9223875995292,1371.9241345160146 C 385.7723875995292,1351.4141345160147 385.4923875995292,1330.9241345160146 383.5123875995292,1310.4341345160146 C 381.41238759952915,1288.6641345160147 380.5723875995292,1266.7441345160146 382.8023875995292,1244.9041345160147 C 385.1523875995292,1221.9041345160147 382.5923875995292,1199.5041345160146 376.7023875995292,1177.2841345160148 A 253.41,253.41 0.0 0,1 368.58238759952917,1113.0341345160148 A 114.32,114.32 0.0 0,0 363.58238759952917,1079.7141345160148 C 357.35238759952915,1059.4541345160148 350.91238759952915,1039.2841345160148 343.42238759952915,1019.4441345160147 C 341.68238759952914,1014.8341345160147 338.81238759952913,1012.3041345160148 334.42238759952915,1010.2541345160147 C 317.75238759952913,1002.4741345160147 299.8823875995291,1000.1441345160147 281.97238759952916,997.9941345160147 C 267.97238759952916,996.3041345160146 254.73238759952912,991.9941345160147 241.81238759952913,986.5041345160147 C 234.34238759952913,983.3441345160147 226.91238759952913,980.0741345160147 219.38238759952912,977.0541345160146 C 214.92238759952912,975.2741345160147 213.96238759952914,975.7941345160147 214.5223875995291,980.5941345160146 C 216.79238759952912,1000.2141345160146 211.67238759952912,1018.6541345160146 205.9723875995291,1036.9941345160148 A 101.6,101.6 0.0 0,0 201.5323875995291,1064.9941345160148 C 200.8523875995291,1091.8241345160147 200.4623875995291,1118.654134516015 199.7223875995291,1145.4741345160148 C 198.8323875995291,1177.4741345160148 198.7223875995291,1209.5641345160147 194.5023875995291,1241.3341345160147 C 189.9123875995291,1275.5341345160148 186.7323875995291,1309.8741345160147 183.0423875995291,1344.1541345160147 C 179.6123875995291,1375.9841345160146 178.0423875995291,1407.9341345160146 183.0423875995291,1439.9341345160146 C 185.0423875995291,1452.8041345160145 184.5923875995291,1466.0341345160145 182.7223875995291,1479.0341345160145 A 186.89,186.89 0.0 0,0 180.9523875995291,1499.2141345160146 C 180.2523875995291,1518.8141345160145 181.34238759952908,1538.4241345160146 179.6423875995291,1558.0241345160146 C 178.7023875995291,1568.7541345160146 179.2223875995291,1579.6641345160147 179.6423875995291,1590.4641345160146 A 139.71,139.71 0.0 0,1 173.6423875995291,1635.8341345160145 C 172.1123875995291,1641.0541345160145 170.7623875995291,1646.2441345160146 170.6423875995291,1651.7041345160144 C 170.30238759952908,1663.7041345160144 166.58238759952908,1675.2141345160144 164.46238759952908,1686.9441345160144 C 162.46238759952908,1697.9441345160144 152.06238759952907,1705.5941345160145 139.22238759952907,1707.0541345160143 A 77.68,77.68 0.0 0,1 111.06238759952909,1704.8941345160142 A 14.78,14.78 0.0 0,0 101.20238759952909,1705.3841345160142 A 58.78,58.78 0.0 0,1 80.08238759952908,1709.5341345160143 C 71.55238759952908,1709.7841345160143 63.082387599529085,1711.5341345160143 54.472387599529085,1709.9641345160144 C 36.32238759952909,1706.7541345160143 30.472387599529082,1695.9641345160144 38.652387599529085,1679.2941345160143 A 79.67,79.67 0.0 0,0 46.00238759952909,1657.6141345160142 A 30.11,30.11 0.0 0,1 52.89238759952909,1643.1341345160142 A 146.87,146.87 0.0 0,1 67.52238759952908,1628.1341345160142 A 152.54,152.54 0.0 0,0 90.30238759952908,1602.2341345160141 C 98.53238759952909,1590.6741345160142 99.62238759952909,1577.074134516014 101.23238759952908,1563.6741345160142 C 102.95238759952908,1549.3241345160143 102.57238759952908,1534.8641345160142 102.77238759952908,1520.4341345160142 C 103.18238759952908,1490.6741345160142 103.77238759952908,1460.9141345160142 104.00238759952909,1431.1541345160142 C 104.11238759952909,1417.8541345160143 102.86238759952909,1404.5641345160143 104.26238759952909,1391.274134516014 C 106.8223875995291,1367.034134516014 108.87238759952909,1342.7441345160141 107.9123875995291,1318.364134516014 C 106.1423875995291,1273.5041345160141 106.7223875995291,1228.624134516014 106.2723875995291,1183.7541345160141 A 245.55,245.55 0.0 0,0 101.8623875995291,1139.4241345160142 C 96.9323875995291,1113.9041345160142 95.6623875995291,1088.0041345160141 95.9623875995291,1061.9941345160141 C 96.17238759952909,1043.5041345160141 96.56238759952909,1024.9941345160141 97.3523875995291,1006.554134516014 A 291.87,291.87 0.0 0,0 94.6123875995291,952.554134516014 A 37.79,37.79 0.0 0,0 90.6123875995291,940.444134516014 Q 81.1823875995291,922.144134516014 72.1823875995291,903.5941345160139 C 60.90238759952909,880.444134516014 56.822387599529094,855.5941345160139 55.742387599529096,830.2041345160139 C 53.93238759952909,787.514134516014 56.5223875995291,744.9941345160139 62.04238759952909,702.664134516014 C 63.51238759952909,691.424134516014 63.59238759952909,680.174134516014 64.04238759952909,668.9541345160139 C 64.73238759952909,650.564134516014 67.87238759952909,632.684134516014 72.47238759952909,614.9541345160139 C 77.57238759952908,595.3341345160139 83.69238759952908,575.9541345160139 88.07238759952908,556.154134516014 C 92.62238759952908,535.554134516014 95.85238759952908,515.014134516014 93.68238759952908,493.82413451601406 C 92.83238759952908,485.5541345160141 93.08238759952908,477.16413451601403 92.94238759952908,468.82413451601406 C 92.44238759952908,440.18413451601407 90.60238759952908,411.63413451601406 88.14238759952909,383.09413451601404 Q 85.4323875995291,351.76413451601405 82.14238759952909,320.484134516014 A 40.0,40.0 0.0 0,0 80.24238759952908,311.234134516014 C 79.37238759952908,308.744134516014 77.87238759952908,307.71413451601404 75.12238759952908,308.114134516014 C 55.30238759952908,310.954134516014 38.272387599529075,304.66413451601403 23.212387599529077,292.054134516014 C 21.482387599529076,290.614134516014 19.612387599529075,289.334134516014 17.88238759952908,287.894134516014 C 13.82238759952908,284.524134516014 9.992387599529078,280.624134516014 8.882387599529078,275.494134516014 C 7.032387599529079,267.104134516014 3.4723875995290783,259.304134516014 1.242387599529079,251.05413451601402 C -1.5876124004709211,240.624134516014 0.782387599529079,230.91413451601403 4.682387599529079,221.41413451601403 C 7.422387599529079,214.75413451601403 10.51238759952908,208.21413451601404 13.75238759952908,201.77413451601404 C 23.11238759952908,183.17413451601405 25.83238759952908,164.25413451601403 17.82238759952908,144.36413451601405 C 15.31238759952908,138.12413451601404 13.74238759952908,131.48413451601405 11.82238759952908,124.99413451601403 C 8.00238759952908,111.99413451601403 10.41238759952908,99.07413451601403 12.31238759952908,86.15413451601403 C 13.31238759952908,79.35413451601403 16.21238759952908,73.29413451601403 19.312387599529078,67.24413451601403 A 276.48,276.48 0.0 0,1 39.89238759952908,33.114134516014026 C 52.092387599529076,16.00413451601403 69.55238759952908,6.5841345160140285 89.79238759952908,1.974134516014029 C 99.60238759952942,-0.25586548398480274 109.54238759952942,0.46413451601519723 119.44238759952943,0.7541345160151973 A 119.37,119.37 0.0 0,0 132.9523875995294,0.49413451601519726 C 157.5623875995294,-1.5058654839848027 181.4623875995294,2.834134516015197 205.1623875995294,8.674134516015197 C 213.7223875995294,10.784134516015197 221.78238759952941,14.524134516015197 229.52238759952942,18.674134516015197 C 241.86238759952943,25.234134516015196 255.01238759952943,27.2341345160152 268.73238759952943,27.2341345160152 C 279.78238759952944,27.2341345160152 290.8623875995294,26.9641345160152 301.8623875995294,27.7441345160152 C 314.8623875995294,28.6741345160152 326.6923875995294,33.914134516015196 337.9423875995294,40.35413451601519 C 356.1823875995294,50.774134516015195 365.67238759952943,66.98413451601519 368.6823875995294,87.2341345160152 C 371.1223875995294,103.5841345160152 375.5823875995294,119.3741345160152 380.60238759952944,135.07413451601522 C 384.32238759952946,146.70413451601522 386.8723875995294,158.5541345160152 386.78238759952944,170.90413451601523 A 56.46,56.46 0.0 0,1 382.23238759952943,191.90413451601523 C 378.34238759952945,201.42413451601524 370.9923875995294,205.51413451601525 360.66238759952944,204.31413451601523 C 353.77238759952945,203.50413451601523 347.66238759952944,200.52413451601524 341.97238759952944,196.86413451601524 A 108.13,108.13 0.0 0,1 323.04238759952943,181.63413451601525 C 318.14238759952946,176.63413451601525 313.3023875995294,171.63413451601525 307.76238759952946,167.29413451601525 A 26.76,26.76 0.0 0,1 299.6723875995295,155.79413451601525 C 297.82238759952946,151.23413451601525 295.9823875995295,146.65413451601523 293.6623875995295,140.87413451601526 L 293.66238759952944,140.8741345160152 M 780.9523875995294,1017.0441345160151 C 797.0623875995294,967.0441345160151 815.2823875995294,919.2141345160151 823.5423875995294,868.364134516015 C 821.7623875995295,868.874134516015 821.3923875995295,870.2141345160151 820.8423875995294,871.364134516015 C 810.7723875995293,892.5541345160151 798.7123875995294,912.624134516015 786.7623875995293,932.774134516015 A 78.9,78.9 0.0 0,0 775.3723875995294,975.984134516015 A 196.6,196.6 0.0 0,0 777.6123875995294,998.8341345160151 C 778.4223875995293,1004.374134516015 778.7323875995294,1009.994134516015 780.9523875995294,1017.0441345160151"/>
</svg>
