<?xml version="1.0" ?>
<svg xmlns="http://www.w3.org/2000/svg" xmlns:ev="http://www.w3.org/2001/xml-events" xmlns:xlink="http://www.w3.org/1999/xlink" baseProfile="full" data-name="Layer 1" height="1504" transform="scale(0.06648936170212766 0.06648936170212766) translate(-817.5 -752.0)" version="1.1" viewBox="0 0 1635 1504" width="1635">
	<defs/>
	<path d="M 1446.8904751135938,384.1110573858909 C 1448.0904751135938,407.4910573858909 1448.5204751135939,430.8110573858909 1442.1604751135937,453.6810573858909 A 86.86,86.86 0.0 0,0 1439.5904751135938,473.2910573858909 A 80.68,80.68 0.0 0,1 1433.1804751135937,502.13105738589087 A 256.88,256.88 0.0 0,0 1420.7504751135937,535.9410573858909 A 65.06,65.06 0.0 0,1 1411.3204751135936,555.6410573858909 C 1404.1704751135935,566.0110573858909 1400.3204751135936,578.0410573858909 1394.5004751135937,589.101057385891 C 1393.3304751135936,591.341057385891 1393.6504751135938,593.541057385891 1394.5004751135937,595.9010573858909 C 1396.6104751135936,601.4110573858909 1398.8704751135936,606.8210573858909 1401.5004751135937,612.1310573858909 C 1406.6804751135937,622.6910573858909 1412.1404751135938,633.1310573858909 1414.7504751135937,644.7910573858909 A 76.45,76.45 0.0 0,1 1416.8104751135936,656.6210573858909 A 84.23,84.23 0.0 0,0 1422.8104751135936,682.0110573858909 C 1425.8104751135936,689.5410573858909 1431.7104751135937,695.2610573858909 1437.0204751135936,701.2610573858909 A 107.76,107.76 0.0 0,1 1462.7504751135937,753.2410573858909 A 27.32,27.32 0.0 0,1 1463.3104751135936,757.441057385891 A 99.68,99.68 0.0 0,0 1469.7504751135937,791.2410573858909 A 39.64,39.64 0.0 0,1 1471.3604751135936,813.601057385891 C 1469.1804751135935,824.1410573858909 1470.5904751135936,834.2710573858909 1472.7404751135937,844.441057385891 Q 1480.7404751135937,882.441057385891 1489.0704751135936,920.441057385891 A 37.0,37.0 0.0 0,1 1489.0704751135936,937.941057385891 A 32.82,32.82 0.0 0,0 1489.9704751135937,956.7410573858909 A 94.84,94.84 0.0 0,1 1494.8204751135936,992.981057385891 C 1494.3904751135935,999.221057385891 1496.4104751135935,1005.091057385891 1498.2504751135937,1010.981057385891 C 1501.7904751135936,1022.231057385891 1505.4104751135937,1033.4410573858909 1508.9504751135937,1044.6810573858909 A 42.28,42.28 0.0 0,1 1511.3104751135936,1058.581057385891 C 1511.0504751135936,1067.271057385891 1515.1604751135935,1074.491057385891 1518.9304751135935,1081.821057385891 A 10.0,10.0 0.0 0,0 1521.8304751135936,1084.821057385891 C 1526.5604751135936,1088.401057385891 1530.5204751135936,1092.821057385891 1534.8304751135936,1096.821057385891 C 1555.2704751135936,1115.9310573858909 1572.3104751135936,1137.921057385891 1588.9904751135937,1160.241057385891 Q 1598.1004751135936,1172.4210573858911 1607.2704751135936,1184.571057385891 C 1613.5904751135936,1192.991057385891 1617.5404751135936,1202.571057385891 1620.5204751135936,1212.571057385891 C 1625.6404751135935,1229.791057385891 1627.6604751135937,1247.6810573858909 1631.7904751135936,1265.101057385891 C 1636.4204751135937,1284.611057385891 1635.6304751135935,1303.841057385891 1631.3904751135935,1323.271057385891 C 1628.5204751135936,1336.4110573858911 1627.1904751135935,1349.751057385891 1628.6004751135936,1363.271057385891 A 76.74,76.74 0.0 0,1 1627.8504751135936,1384.431057385891 A 79.73,79.73 0.0 0,0 1627.0904751135936,1397.8310573858912 A 57.07,57.07 0.0 0,1 1616.6804751135935,1431.0110573858913 A 122.06,122.06 0.0 0,1 1589.1704751135935,1459.2810573858912 C 1575.0404751135934,1469.9210573858913 1560.2504751135934,1479.6910573858913 1547.1704751135935,1491.7010573858913 C 1543.7904751135934,1494.8110573858912 1539.3404751135936,1496.0610573858912 1534.9404751135935,1496.9410573858913 C 1518.5004751135934,1500.2210573858913 1501.8204751135936,1501.8110573858912 1485.1804751135935,1503.5110573858913 C 1479.1804751135935,1504.1210573858912 1472.9004751135935,1503.3410573858912 1466.8404751135936,1502.5110573858913 C 1455.2404751135937,1500.9210573858913 1443.8404751135936,1502.6810573858913 1432.2904751135936,1503.2210573858913 C 1417.9604751135937,1503.8910573858914 1403.4104751135935,1504.2210573858913 1390.0504751135936,1497.5110573858913 C 1382.2204751135937,1493.5110573858913 1375.9104751135935,1488.1510573858914 1374.7404751135937,1478.5710573858912 C 1374.3004751135936,1474.9210573858911 1375.1904751135937,1471.5110573858913 1375.8604751135936,1468.0810573858912 A 41.61,41.61 0.0 0,0 1376.1904751135935,1454.7210573858913 A 80.2,80.2 0.0 0,1 1375.5304751135934,1442.7210573858913 C 1375.9304751135935,1428.5010573858913 1374.3504751135933,1414.4510573858913 1372.1504751135933,1400.4610573858913 C 1370.9704751135932,1392.9410573858913 1370.3604751135933,1385.4610573858913 1371.3504751135933,1377.9010573858914 C 1373.9804751135935,1358.1410573858914 1372.0604751135934,1338.3210573858914 1372.4404751135933,1318.5310573858915 C 1372.4404751135933,1316.0710573858914 1371.4404751135933,1314.0310573858915 1370.5804751135934,1311.8210573858914 C 1363.5804751135934,1293.9610573858915 1353.9804751135935,1277.4610573858915 1345.2504751135934,1260.4910573858915 C 1336.3904751135935,1243.2910573858915 1328.8704751135933,1225.4910573858915 1321.7704751135934,1207.4910573858915 C 1319.9504751135935,1202.8810573858916 1318.1504751135935,1198.2510573858915 1315.9804751135935,1193.8110573858914 C 1311.5004751135934,1184.6510573858914 1306.1804751135935,1176.3110573858914 1297.3804751135935,1170.2910573858915 C 1290.0104751135937,1165.2910573858915 1283.4504751135935,1159.0110573858915 1276.6804751135935,1153.1310573858914 A 75.87,75.87 0.0 0,1 1262.8204751135936,1137.1310573858914 A 123.09,123.09 0.0 0,0 1244.1404751135935,1115.0210573858915 A 107.14,107.14 0.0 0,1 1218.2004751135935,1077.4110573858916 C 1209.8204751135934,1056.5310573858915 1198.9204751135935,1037.0110573858915 1187.7604751135934,1017.5810573858915 A 101.26,101.26 0.0 0,1 1179.7604751135934,1000.2810573858916 C 1176.9004751135935,991.9810573858916 1172.1604751135935,984.5810573858915 1167.7604751135934,977.0610573858916 A 136.77,136.77 0.0 0,1 1156.0104751135934,952.1610573858916 A 67.65,67.65 0.0 0,0 1145.2604751135934,931.5710573858915 C 1141.8304751135934,927.2610573858916 1140.0704751135934,922.0710573858915 1138.7204751135935,916.7910573858916 C 1137.9704751135935,913.8510573858915 1136.4304751135935,913.1410573858916 1133.5604751135934,914.0110573858916 C 1108.7904751135934,921.5010573858916 1083.1004751135933,923.3510573858916 1057.6104751135933,926.5710573858915 C 1037.2504751135934,929.1410573858916 1017.0704751135934,932.8910573858916 996.9004751135933,936.6310573858915 C 969.7604751135933,941.6310573858915 942.3704751135933,945.0510573858915 915.0704751135933,949.0010573858915 C 876.7104751135932,954.5610573858914 838.7904751135933,961.7610573858915 802.7404751135932,976.6610573858915 C 798.6004751135932,978.3710573858915 794.3904751135932,979.9410573858914 790.3804751135932,981.9210573858915 A 334.12,334.12 0.0 0,1 749.9204751135932,998.7710573858915 A 73.5,73.5 0.0 0,0 725.4704751135931,1012.6510573858915 C 717.7504751135931,1019.2810573858915 714.2404751135931,1027.6510573858914 714.1904751135932,1037.5610573858914 Q 714.1904751135932,1047.1210573858914 714.6204751135931,1056.6710573858913 C 715.6204751135931,1077.7710573858913 713.2104751135931,1098.6710573858913 709.7404751135931,1119.3410573858914 A 258.35,258.35 0.0 0,0 709.1804751135932,1198.9210573858913 C 712.5104751135932,1222.3810573858914 713.2604751135932,1245.9210573858913 706.1804751135932,1269.0610573858914 C 703.0304751135932,1279.4210573858913 700.1204751135932,1289.7710573858915 692.6104751135931,1298.2510573858915 C 686.2704751135931,1305.4210573858916 683.6104751135931,1314.7710573858915 679.920475113593,1323.4110573858916 C 672.4004751135931,1341.0010573858915 663.710475113593,1358.0010573858915 654.920475113593,1374.9610573858915 C 651.680475113593,1381.2210573858915 646.920475113593,1386.6310573858916 644.200475113593,1393.2410573858915 C 642.200475113593,1398.0210573858915 640.2704751135931,1402.7910573858915 638.720475113593,1407.7710573858915 C 634.310475113593,1421.8710573858914 625.230475113593,1432.5110573858915 612.720475113593,1440.1010573858914 C 596.500475113593,1449.9510573858913 578.720475113593,1453.4110573858914 559.900475113593,1452.1010573858914 C 554.150475113593,1451.7010573858913 549.740475113593,1453.6710573858913 546.5704751135929,1458.3910573858914 C 543.9204751135929,1462.3210573858914 540.5704751135929,1465.6510573858914 537.6204751135929,1469.3310573858914 C 528.9604751135929,1480.1410573858914 517.6204751135929,1485.3910573858914 504.0604751135929,1486.6910573858913 C 494.90047511359285,1487.5710573858914 485.78047511359284,1488.7710573858913 476.63047511359287,1489.6910573858913 C 455.50047511359287,1491.7610573858913 434.76047511359286,1488.1510573858914 414.01047511359286,1485.0510573858912 A 24.25,24.25 0.0 0,1 408.63047511359287,1483.3310573858912 C 400.63047511359287,1480.0910573858912 397.4304751135929,1474.8210573858912 397.91047511359284,1466.191057385891 A 34.0,34.0 0.0 0,1 402.20047511359286,1452.0810573858912 C 405.20047511359286,1446.4910573858913 403.20047511359286,1440.441057385891 404.40047511359285,1434.7210573858913 C 404.72047511359284,1433.2010573858913 402.9904751135928,1432.4310573858913 402.10047511359284,1431.3810573858914 C 393.3704751135928,1421.0810573858914 388.72047511359284,1409.3810573858914 389.3604751135928,1395.6610573858914 C 390.0604751135928,1380.8110573858914 390.7404751135928,1365.9810573858913 394.3004751135928,1351.4510573858913 A 57.12,57.12 0.0 0,1 396.3004751135928,1343.9510573858913 C 405.5004751135928,1320.6410573858914 410.6104751135928,1296.0810573858914 418.21047511359285,1272.2810573858912 C 420.73047511359283,1264.4010573858911 423.34047511359284,1256.5710573858912 427.09047511359284,1249.2110573858913 A 126.27,126.27 0.0 0,0 435.95047511359286,1226.9010573858914 C 439.95047511359286,1213.0710573858914 445.1804751135929,1199.6610573858914 450.1804751135929,1186.1810573858913 A 125.94,125.94 0.0 0,0 457.2804751135929,1159.6210573858914 C 459.9204751135929,1140.3910573858914 466.3804751135929,1122.0810573858914 471.7204751135929,1103.5210573858915 C 476.9204751135929,1085.3910573858914 482.4404751135929,1067.3610573858914 487.8004751135929,1049.2810573858915 C 491.50047511359287,1036.7910573858915 492.8004751135929,1023.8610573858915 494.8004751135929,1011.0410573858915 C 498.6604751135929,986.1410573858915 497.3604751135929,961.1810573858914 496.19047511359287,936.2010573858914 C 495.9304751135929,930.7810573858915 495.75047511359287,925.3610573858914 495.6204751135929,919.9310573858914 C 495.2804751135929,904.8410573858914 489.7904751135929,890.9310573858914 485.75047511359287,876.6610573858915 C 483.6804751135929,869.3410573858914 481.6204751135929,862.2110573858914 482.9204751135929,854.4610573858914 C 483.5804751135929,850.4610573858914 482.63047511359287,846.4110573858915 481.6804751135929,842.5510573858915 C 477.3704751135929,825.1510573858915 473.0304751135929,807.7910573858915 463.44047511359287,792.2410573858915 C 457.32047511359286,782.3110573858916 453.1004751135929,771.5910573858915 452.8704751135929,759.6310573858915 C 452.8004751135929,755.8410573858915 451.6204751135929,752.2010573858915 450.44047511359287,748.6310573858915 C 449.1804751135929,744.8310573858915 447.2904751135929,741.1110573858915 446.76047511359286,737.2210573858915 C 444.76047511359286,722.7510573858915 440.10047511359284,708.8910573858915 437.8704751135929,694.4910573858915 C 436.71047511359285,687.0410573858915 435.3104751135929,679.6210573858915 434.1004751135929,672.1810573858916 C 430.6504751135929,651.0110573858916 427.38047511359287,629.8110573858916 423.7104751135929,608.6810573858916 A 150.15,150.15 0.0 0,0 418.2904751135929,586.6810573858916 C 413.5104751135929,572.3510573858915 409.6004751135929,557.7910573858916 405.9304751135929,543.1610573858916 C 404.52047511359285,537.5210573858916 402.20047511359286,532.6610573858916 397.8104751135929,528.6310573858916 C 393.21047511359285,524.4110573858916 390.75047511359287,518.6310573858916 388.38047511359287,512.9910573858916 C 386.5604751135929,508.64105738589166 384.84047511359284,504.2410573858917 383.32047511359286,499.7910573858917 C 380.25047511359287,490.8510573858917 376.94047511359287,482.0710573858917 371.59047511359284,474.1610573858917 C 370.17047511359283,472.0610573858917 369.52047511359285,469.4310573858917 368.59047511359284,467.0110573858917 C 367.26047511359286,463.48105738589175 366.3004751135928,459.7810573858917 364.69047511359287,456.3910573858917 C 358.3104751135929,442.9810573858917 353.9904751135929,428.7810573858917 348.7404751135929,414.9410573858917 A 27.69,27.69 0.0 0,0 344.7404751135929,407.48105738589175 C 336.6504751135929,397.35105738589175 329.25047511359287,386.65105738589176 319.94047511359287,377.48105738589175 A 29.51,29.51 0.0 0,1 316.5504751135929,373.8810573858917 C 304.01047511359286,356.37105738589173 286.3104751135929,345.0710573858917 268.4204751135929,334.0910573858917 C 263.0904751135929,330.8210573858917 258.1604751135929,327.3710573858917 254.76047511359292,322.0910573858917 A 17.94,17.94 0.0 0,0 246.20047511359292,314.9710573858917 A 30.17,30.17 0.0 0,1 230.34047511359293,300.4610573858917 C 225.94047511359292,291.9210573858917 218.89047511359294,288.7310573858917 209.82047511359292,287.7310573858917 C 198.82047511359292,286.5310573858917 187.92047511359291,284.4210573858917 176.82047511359292,283.9710573858917 A 14.86,14.86 0.0 0,1 170.01047511359292,282.2410573858917 C 163.17047511359291,278.3510573858917 155.90047511359293,279.07105738589166 148.6104751135929,280.0610573858917 C 141.8404751135929,280.9710573858917 135.0804751135929,282.0610573858917 128.2104751135929,282.0610573858917 C 122.1004751135929,282.00105738589167 116.64047511359291,284.1810573858917 111.47047511359291,287.0610573858917 A 88.14,88.14 0.0 0,1 88.75047511359291,296.4310573858917 A 43.0,43.0 0.0 0,0 75.82047511359292,302.0610573858917 C 63.08047511359291,310.2410573858917 48.75047511359291,315.34105738589165 36.170475113592914,323.8510573858917 C 31.400475113592915,327.0910573858917 25.870475113592914,328.7010573858917 20.000475113592913,326.9010573858917 C 17.000475113592913,325.9610573858917 14.530475113592916,327.2610573858917 11.890475113592915,328.3010573858917 C 4.710475113592915,331.13105738589167 1.0904751135929138,328.64105738589166 0.8904751135929145,320.94105738589167 C 0.7804751135929145,315.94105738589167 2.2704751135929144,311.1610573858917 3.3304751135929145,306.33105738589165 A 158.58,158.58 0.0 0,1 11.540475113592915,280.04105738589163 A 50.08,50.08 0.0 0,1 22.140475113592913,263.48105738589163 A 19.4,19.4 0.0 0,0 25.310475113592915,259.6810573858916 C 30.560475113592915,250.4810573858916 38.05047511359292,243.3510573858916 46.23047511359292,236.88105738589158 C 48.54047511359292,235.0610573858916 49.12047511359292,233.63105738589158 47.30047511359292,231.14105738589157 A 20.53,20.53 0.0 0,1 43.30047511359292,217.84105738589156 C 43.420475113592914,215.37105738589156 42.380475113592915,214.09105738589156 40.01047511359292,213.19105738589155 C 21.750475113592916,206.24105738589157 11.430475113592921,191.47105738589156 3.3904751135929216,174.85105738589155 C -0.25952488640631155,167.32105738589087 -0.19952488640631155,158.78105738589088 0.16047511359368846,150.52105738589086 C 0.4504751135936884,143.70105738589086 1.8104751135936883,136.95105738589086 1.5704751135936883,130.07105738589087 A 23.75,23.75 0.0 0,1 4.140475113593688,119.12105738589088 C 5.640475113593688,115.92105738589088 7.140475113593688,112.74105738589088 8.920475113593689,109.66105738589089 C 13.920475113593689,100.82105738589088 16.250475113593687,92.06105738589089 14.05047511359369,81.42105738589089 C 10.22047511359369,62.84105738589089 16.750475113593687,45.99105738589089 26.750475113593687,30.591057385890892 C 30.610475113593687,24.70105738589089 35.56047511359369,19.53105738589089 40.06047511359369,14.07105738589089 A 16.05,16.05 0.0 0,1 49.06047511359369,8.79105738589089 A 130.67,130.67 0.0 0,0 65.88047511359369,3.391057385890889 C 75.88047511359369,-0.44894261410911085 86.17047511359368,-0.608942614109111 96.58047511359369,0.851057385890889 A 214.0,214.0 0.0 0,1 127.7504751135937,7.301057385890889 C 144.9104751135937,12.43105738589089 162.48047511359368,16.091057385890892 179.4004751135937,22.10105738589089 C 183.1204751135937,23.42105738589089 187.2204751135937,23.81105738589089 191.1804751135937,24.291057385890888 A 102.13,102.13 0.0 0,1 209.2304751135937,27.721057385890887 A 27.49,27.49 0.0 0,0 229.8604751135937,26.13105738589089 A 39.56,39.56 0.0 0,1 240.57047511359372,22.63105738589089 C 248.57047511359372,21.301057385890893 256.0404751135937,18.46105738589089 263.38047511359366,15.20105738589089 C 271.38047511359366,11.67105738589089 279.82047511359366,9.35105738589089 287.32047511359366,4.721057385890889 A 16.4,16.4 0.0 0,1 297.59047511359364,2.581057385890889 C 305.81047511359367,3.431057385890889 314.14047511359365,2.201057385890889 322.27047511359365,4.0810573858908885 C 324.6804751135937,4.631057385890888 326.91047511359363,3.9310573858908886 329.27047511359365,3.5010573858908884 C 338.71047511359365,1.7610573858908884 343.97047511359364,4.161057385890889 348.40047511359364,12.761057385890888 C 350.32047511359366,16.481057385890885 352.82047511359366,18.761057385890886 356.90047511359364,19.32105738589089 C 360.63047511359366,19.861057385890888 364.34047511359364,20.701057385890884 368.09047511359364,20.981057385890885 C 380.9804751135936,21.981057385890885 392.97047511359364,26.091057385890885 404.7304751135936,31.091057385890885 C 411.6704751135936,34.09105738589089 418.6204751135936,36.981057385890885 425.52047511359365,40.021057385890884 C 430.75047511359367,42.311057385890884 436.12047511359367,42.091057385890885 441.52047511359365,41.121057385890886 C 449.87047511359367,39.631057385890884 458.1704751135936,37.86105738589089 466.52047511359365,36.441057385890886 C 474.87047511359367,35.021057385890884 482.97047511359364,35.22105738589089 490.38047511359366,40.121057385890886 A 30.29,30.29 0.0 0,0 500.21047511359365,44.00105738589089 C 507.8604751135936,45.81105738589089 513.2104751135937,50.48105738589089 516.7804751135936,57.271057385890884 Q 519.7804751135936,62.881057385890884 522.7804751135936,68.52105738589088 C 526.1704751135936,75.03105738589089 529.9504751135936,81.21105738589088 535.2604751135937,86.42105738589088 C 547.0504751135936,97.96105738589087 548.4504751135937,113.05105738589087 548.9404751135936,128.29105738589087 C 549.1904751135936,135.83105738589086 548.6604751135936,143.38105738589087 548.7104751135936,150.93105738589085 C 548.8004751135936,166.93105738589085 554.7804751135936,181.32105738589084 561.4504751135936,195.44105738589084 C 563.9704751135936,200.78105738589085 566.7204751135936,205.99105738589085 568.5604751135936,211.61105738589086 A 35.34,35.34 0.0 0,0 575.4004751135936,223.09105738589085 C 582.7504751135937,232.01105738589084 590.0404751135936,240.98105738589086 597.4904751135937,249.82105738589084 A 140.0,140.0 0.0 0,1 616.7504751135937,280.16105738589084 A 325.0,325.0 0.0 0,0 641.0504751135936,323.2410573858908 C 650.8304751135936,337.7010573858908 660.6804751135936,352.11105738589083 671.0504751135936,366.1810573858908 C 686.8304751135936,387.65105738589085 707.6804751135936,400.3410573858908 734.1404751135937,404.02105738589086 A 213.43,213.43 0.0 0,1 756.2704751135936,408.71105738589085 A 72.62,72.62 0.0 0,0 772.9904751135937,411.2410573858908 C 794.4804751135937,411.4310573858908 814.3704751135937,417.85105738589084 833.1704751135936,427.61105738589083 C 851.3704751135937,437.0710573858908 869.4004751135936,446.86105738589083 888.1704751135936,455.14105738589086 A 80.92,80.92 0.0 0,1 903.6004751135936,463.7510573858909 A 100.81,100.81 0.0 0,0 936.7504751135936,479.40105738589085 C 951.9804751135936,483.6210573858909 967.0104751135935,488.40105738589085 982.1304751135935,493.02105738589086 A 171.66,171.66 0.0 0,0 1022.5004751135936,499.84105738589085 C 1036.4104751135935,500.61105738589083 1050.2304751135935,502.2410573858908 1064.0804751135936,503.52105738589086 A 153.39,153.39 0.0 0,0 1083.0804751135936,503.71105738589085 C 1102.9004751135935,503.09105738589085 1122.7004751135935,502.52105738589086 1142.4804751135937,504.3710573858909 C 1154.8004751135936,505.52105738589086 1166.9704751135937,503.3010573858909 1179.1704751135937,502.3110573858909 C 1194.6904751135937,501.0610573858909 1210.1704751135937,499.7410573858909 1225.7804751135936,499.8610573858909 C 1261.1704751135937,500.14105738589086 1296.5504751135936,500.2810573858909 1331.9404751135937,500.4810573858909 C 1333.1204751135938,500.4810573858909 1334.3004751135936,500.4110573858909 1335.4804751135937,500.4810573858909 C 1344.1604751135937,500.6210573858909 1350.1704751135937,497.4310573858909 1353.0004751135937,488.4810573858909 C 1355.3304751135936,481.0610573858909 1358.1704751135937,473.7910573858909 1359.8904751135938,466.2010573858909 C 1365.6304751135938,440.92105738589095 1371.3704751135938,415.6410573858909 1376.7804751135939,390.2810573858909 A 112.49,112.49 0.0 0,0 1378.940475113594,360.7310573858909 C 1378.190475113594,346.82105738589087 1378.110475113594,332.9110573858909 1380.0604751135938,319.0610573858909 A 79.64,79.64 0.0 0,1 1384.8404751135938,300.6110573858909 C 1389.6404751135938,288.6110573858909 1398.9404751135937,282.0410573858909 1411.4104751135937,279.8010573858909 C 1419.6504751135938,278.32105738589087 1426.1804751135937,281.5210573858909 1431.2904751135939,287.9110573858909 C 1437.190475113594,295.3110573858909 1439.720475113594,304.1510573858909 1442.0304751135939,313.0910573858909 C 1446.8004751135938,331.5510573858909 1447.0304751135939,350.4210573858909 1446.9004751135938,369.31105738589093 C 1446.8604751135938,374.24105738589094 1446.8904751135938,379.16105738589096 1446.8904751135938,384.11105738589094 L 1446.8904751135938,384.1110573858909"/>
</svg>
