<?xml version="1.0" ?>
<svg xmlns="http://www.w3.org/2000/svg" xmlns:ev="http://www.w3.org/2001/xml-events" xmlns:xlink="http://www.w3.org/1999/xlink" baseProfile="full" height="789" id="Layer_1" style="enable-background:new 0 0 1000 800;" transform="scale(0.1692047377326565 0.1692047377326565) translate(-295.5 -394.5)" version="1.1" viewBox="0 0 591 789" width="591" x="0px" xml:space="preserve" y="0px">
	<defs/>
	<path d="M 224.40000000000023,738.6360079689285 C 222.90000000000023,730.0360079689285 232.10000000000022,728.1360079689285 231.50000000000026,721.1360079689285 C 214.80000000000027,715.7360079689286 200.20000000000024,730.7360079689286 183.40000000000023,726.3360079689286 C 184.50000000000026,717.2360079689286 191.70000000000024,714.7360079689286 198.20000000000024,711.8360079689286 C 206.70000000000024,708.0360079689286 215.40000000000023,707.1360079689285 221.00000000000026,696.1360079689285 C 226.20000000000024,685.8360079689286 240.40000000000023,691.1360079689285 250.70000000000024,692.1360079689285 C 273.10000000000025,694.5360079689285 277.4000000000002,691.6360079689285 281.10000000000025,669.4360079689285 C 281.2000000000003,668.7360079689284 281.2000000000003,668.1360079689285 281.4000000000002,667.4360079689285 C 289.5000000000002,635.8360079689285 290.60000000000025,612.4360079689285 251.00000000000026,595.4360079689285 C 210.90000000000023,578.2360079689284 175.10000000000028,550.1360079689285 136.30000000000027,528.3360079689285 C 74.60000000000028,493.7360079689285 42.500000000000256,436.2360079689285 25.90000000000026,369.3360079689285 C 6.9000000000002615,293.2360079689286 12.500000000000256,219.23600796892862 48.80000000000027,148.63600796892862 C 52.10000000000028,142.23600796892862 56.60000000000028,137.13600796892862 46.60000000000028,131.13600796892862 C 33.500000000000284,123.2360079689286 31.300000000000267,108.4360079689286 35.70000000000027,95.63600796892861 C 42.80000000000027,75.13600796892861 31.700000000000273,75.53600796892862 17.90000000000026,76.83600796892861 C 13.400000000000261,77.23600796892862 9.000000000000256,79.63600796892861 2.5579538487363607e-13,74.63600796892861 C 31.000000000000256,60.83600796892861 31.700000000000244,26.53600796892861 53.90000000000023,6.836007968928615 C 62.30000000000021,-0.6639920310713849 69.00000000000026,1.5360079689286152 77.70000000000024,0.4360079689286147 C 92.90000000000023,-1.5639920310713853 93.20000000000024,3.336007968928615 90.60000000000022,14.736007968928615 C 90.30000000000021,16.136007968928613 93.30000000000021,19.036007968928615 95.40000000000023,20.036007968928615 C 145.60000000000022,44.536007968928615 167.3000000000002,90.43600796892862 185.50000000000026,139.03600796892863 C 188.50000000000026,147.13600796892862 192.20000000000024,154.93600796892864 195.00000000000026,163.13600796892862 C 206.30000000000027,195.4360079689286 230.00000000000026,211.53600796892863 262.8000000000003,216.9360079689286 C 314.8000000000002,225.3360079689286 366.0000000000002,222.0360079689286 416.8000000000002,208.5360079689286 C 436.3000000000002,203.4360079689286 450.70000000000016,193.1360079689286 461.70000000000016,175.5360079689286 C 479.3000000000002,147.2360079689286 503.9000000000002,126.03600796892859 535.4000000000002,114.13600796892858 C 573.3000000000002,99.83600796892858 586.1000000000003,110.63600796892858 585.6000000000003,151.1360079689286 C 585.3000000000003,175.83600796892858 581.1000000000003,200.83600796892858 589.9000000000002,225.5360079689286 C 594.5000000000002,238.7360079689286 582.3000000000002,250.6360079689286 579.9000000000002,264.2360079689286 C 577.9000000000002,275.6360079689286 577.0000000000002,286.2360079689286 577.4000000000002,297.6360079689286 C 578.9000000000002,336.1360079689286 576.1000000000003,373.4360079689286 549.9000000000002,405.2360079689286 C 537.8000000000002,419.9360079689286 533.9000000000002,437.4360079689286 533.3000000000002,457.1360079689286 C 532.1000000000001,500.4360079689286 515.6000000000001,537.1360079689285 476.70000000000016,560.2360079689286 C 444.3000000000002,579.5360079689285 415.5000000000001,604.1360079689285 381.70000000000016,621.1360079689285 C 375.8000000000002,624.1360079689285 373.8000000000002,630.0360079689285 371.4000000000002,635.3360079689286 C 362.8000000000002,654.2360079689286 358.20000000000016,674.2360079689286 355.5000000000002,694.7360079689286 C 353.5000000000002,709.6360079689285 360.7000000000003,716.1360079689285 375.0000000000002,714.3360079689286 C 383.2000000000003,713.2360079689286 390.60000000000025,712.6360079689285 401.10000000000025,721.4360079689286 C 358.4000000000002,733.9360079689286 325.7000000000003,758.7360079689286 292.3000000000003,788.5360079689286 C 288.9000000000003,766.2360079689287 306.8000000000003,762.4360079689286 311.8000000000002,749.4360079689286 C 286.60000000000025,747.5360079689286 264.0000000000002,762.1360079689287 237.0000000000002,758.3360079689286 C 247.5000000000002,740.2360079689286 267.70000000000016,740.8360079689286 279.0000000000002,726.5360079689286 C 288.10000000000025,715.0360079689286 314.8000000000002,732.4360079689286 325.20000000000016,708.4360079689286 C 285.3000000000003,699.5360079689285 261.0000000000002,738.3360079689286 224.40000000000023,738.6360079689285 M 303.4000000000002,667.3360079689286 C 303.60000000000025,669.5360079689286 303.7000000000003,672.2360079689286 304.10000000000025,674.8360079689286 C 305.5000000000002,685.7360079689286 307.4000000000002,694.6360079689285 322.4000000000002,695.0360079689286 C 338.5000000000002,695.5360079689286 334.4000000000002,683.6360079689287 335.9000000000002,676.1360079689287 C 338.60000000000025,663.3360079689287 338.9000000000002,649.9360079689286 340.70000000000016,636.9360079689286 C 342.3000000000002,625.6360079689287 336.20000000000016,621.5360079689286 326.70000000000016,619.5360079689286 C 316.3000000000002,617.3360079689286 310.4000000000002,620.7360079689287 309.10000000000014,631.8360079689286 C 307.7000000000003,643.5360079689285 305.4000000000002,655.2360079689286 303.4000000000002,667.3360079689286"/>
</svg>
