<?xml version="1.0" ?>
<svg xmlns="http://www.w3.org/2000/svg" xmlns:ev="http://www.w3.org/2001/xml-events" xmlns:xlink="http://www.w3.org/1999/xlink" baseProfile="full" height="770" id="Layer_1" style="enable-background:new 0 0 1000 800;" transform="scale(0.12987012987012986 0.12987012987012986) translate(-421.0 -385.0)" version="1.1" viewBox="0 0 842 770" width="842" x="0px" xml:space="preserve" y="0px">
	<defs/>
	<path d="M 752.2933782868741,0.0 C 758.1933782868741,10.5 758.8933782868742,23.7 769.0933782868741,31.899999999999995 C 770.4933782868741,33.0 771.9933782868741,33.8 773.893378286874,35.099999999999994 C 776.5933782868741,29.8 779.0933782868741,24.899999999999995 781.5933782868741,19.999999999999996 C 782.393378286874,20.099999999999998 783.1933782868741,20.099999999999998 783.9933782868741,20.2 C 784.893378286874,23.2 785.6933782868741,26.2 786.5933782868741,29.099999999999998 C 789.2933782868741,38.0 791.7933782868741,46.89999999999999 795.0933782868741,55.599999999999994 C 795.7933782868741,57.5 799.6933782868741,58.19999999999999 803.7933782868741,60.39999999999999 C 808.6933782868741,72.6 802.4933782868742,87.19999999999999 786.4933782868742,96.39999999999999 C 807.4933782868742,102.1 815.3933782868742,109.1 814.2933782868741,118.7 C 804.5933782868741,119.89999999999999 795.3933782868742,121.00000000000001 786.0933782868741,122.10000000000001 C 785.4933782868741,123.00000000000001 784.893378286874,124.00000000000001 784.393378286874,124.90000000000002 C 787.4933782868741,129.20000000000005 789.893378286874,134.40000000000003 793.9933782868741,137.40000000000003 C 799.5933782868741,141.50000000000003 806.393378286874,143.90000000000003 812.6933782868741,146.90000000000003 C 820.4933782868741,150.70000000000005 821.1933782868741,155.00000000000003 815.9933782868741,161.60000000000002 C 814.6933782868741,163.20000000000002 814.9933782868741,166.90000000000003 815.793378286874,169.10000000000002 C 816.593378286874,171.40000000000003 819.193378286874,173.00000000000003 820.793378286874,175.10000000000002 C 828.293378286874,185.20000000000002 831.893378286874,196.00000000000003 824.9933782868741,207.70000000000002 C 818.9933782868741,218.00000000000003 819.393378286874,227.20000000000002 823.1933782868741,239.00000000000003 C 830.1933782868741,260.70000000000005 834.7933782868741,283.40000000000003 837.4933782868741,306.00000000000006 C 840.4933782868741,331.50000000000006 840.1933782868741,357.40000000000003 841.293378286874,383.1000000000001 C 840.393378286874,383.2000000000001 839.393378286874,383.4000000000001 838.4933782868741,383.50000000000006 C 836.6933782868741,378.6000000000001 834.9933782868741,373.70000000000005 832.893378286874,367.90000000000003 C 827.793378286874,386.3 822.693378286874,403.70000000000005 818.193378286874,421.20000000000005 C 811.493378286874,447.1 797.893378286874,469.50000000000006 779.893378286874,488.50000000000006 C 763.693378286874,505.6000000000001 744.0933782868741,518.3 718.293378286874,514.0 C 717.4933782868741,513.9 716.593378286874,514.1 715.9933782868741,513.8 C 702.793378286874,506.59999999999997 692.393378286874,514.5 681.293378286874,519.9 C 662.593378286874,529.1 643.9933782868741,538.5 624.793378286874,546.6 C 609.693378286874,553.0 596.593378286874,561.7 583.293378286874,573.6 C 592.9933782868741,579.1 601.193378286874,585.9 610.693378286874,588.6 C 629.093378286874,593.9 644.393378286874,605.0 661.293378286874,613.0 C 670.593378286874,617.4 677.193378286874,624.9 682.393378286874,634.3 C 688.5933782868741,645.4 696.4933782868741,655.5 704.193378286874,665.6999999999999 C 709.993378286874,673.4999999999999 714.293378286874,681.4999999999999 713.493378286874,691.4999999999999 C 712.7933782868739,700.8999999999999 707.8933782868739,706.9999999999999 696.593378286874,710.5999999999999 C 707.493378286874,700.3 693.8933782868739,693.1999999999999 697.093378286874,684.1999999999999 C 696.293378286874,684.1999999999999 695.493378286874,684.1999999999999 694.793378286874,684.3 C 693.593378286874,693.5999999999999 692.793378286874,702.9 691.093378286874,712.0999999999999 C 690.293378286874,716.5999999999999 688.3933782868739,721.1999999999999 685.793378286874,724.8999999999999 C 681.9933782868741,730.3999999999999 676.793378286874,729.9999999999999 671.293378286874,724.1999999999998 C 672.793378286874,723.4999999999998 673.9933782868741,722.8999999999999 675.393378286874,722.3999999999999 C 676.4933782868741,721.9999999999999 677.693378286874,721.7999999999998 677.793378286874,721.7999999999998 C 678.9933782868741,710.7999999999998 679.9933782868741,700.6999999999998 681.093378286874,690.5999999999998 C 682.193378286874,679.9999999999998 681.3933782868739,669.9999999999998 675.293378286874,660.6999999999998 C 672.693378286874,656.7999999999998 671.393378286874,651.9999999999998 669.293378286874,647.2999999999998 C 669.293378286874,660.7999999999998 670.093378286874,673.2999999999998 668.9933782868741,685.6999999999998 C 668.393378286874,692.5999999999998 665.1933782868741,699.5999999999998 661.793378286874,705.7999999999998 C 658.093378286874,712.3999999999999 651.4933782868741,715.0999999999998 642.593378286874,712.1999999999998 C 648.8933782868739,708.8999999999999 651.8933782868739,704.6999999999998 648.8933782868739,697.8999999999999 C 648.2933782868739,696.4999999999999 648.7933782868739,693.9999999999999 649.7933782868739,692.6999999999998 C 655.8933782868739,684.1999999999998 654.1933782868739,674.7999999999998 653.6933782868739,665.3999999999999 C 653.2933782868739,658.8999999999999 652.4933782868738,652.3999999999999 652.1933782868739,645.8999999999999 C 651.7933782868739,636.7999999999998 645.9933782868738,633.4999999999999 638.3933782868739,632.2999999999998 C 637.3933782868739,642.2999999999998 636.2933782868739,652.2999999999998 635.1933782868739,662.7999999999998 C 634.0933782868739,662.1999999999998 631.8933782868739,661.6999999999998 631.3933782868739,660.4999999999999 C 627.2933782868739,650.7999999999998 619.3933782868739,642.4999999999999 620.8933782868739,630.8999999999999 C 621.993378286874,622.3999999999999 619.593378286874,615.9999999999999 610.993378286874,612.6999999999998 C 602.993378286874,618.2999999999998 594.693378286874,623.9999999999998 586.493378286874,629.7999999999998 C 585.7933782868739,628.9999999999999 585.093378286874,628.1999999999998 584.3933782868739,627.3999999999999 C 587.093378286874,623.1999999999998 590.1933782868739,619.2999999999998 592.593378286874,614.8999999999999 C 598.293378286874,604.0999999999999 595.093378286874,599.2999999999998 582.993378286874,598.1999999999998 C 578.7933782868739,597.7999999999998 574.593378286874,595.8999999999999 570.693378286874,593.8999999999999 C 565.793378286874,591.4999999999999 562.993378286874,592.2999999999998 559.793378286874,596.9999999999999 C 549.593378286874,611.7999999999998 550.693378286874,628.3999999999999 552.693378286874,644.5999999999999 C 555.193378286874,664.6999999999999 559.593378286874,684.5999999999999 563.193378286874,704.5999999999999 C 564.293378286874,710.8999999999999 574.393378286874,717.6999999999999 584.493378286874,719.0999999999999 C 606.093378286874,722.3 627.7933782868739,725.1999999999999 649.2933782868739,728.8999999999999 C 655.3933782868739,729.9999999999999 661.5933782868739,732.6999999999998 666.7933782868739,736.1999999999998 C 670.0933782868739,738.3999999999999 671.5933782868739,743.3999999999999 672.993378286874,747.8999999999999 C 666.993378286874,743.1999999999998 661.7933782868739,739.7999999999998 654.8933782868739,745.6999999999998 C 653.6933782868739,746.7999999999998 649.8933782868739,746.4999999999998 648.3933782868739,745.3999999999999 C 639.1933782868739,737.9999999999999 628.993378286874,739.2999999999998 618.6933782868739,741.2999999999998 C 615.9933782868738,751.6999999999998 613.8933782868739,762.1999999999998 605.1933782868739,769.3999999999999 C 604.1933782868739,769.3999999999999 603.0933782868739,769.3999999999999 602.0933782868739,769.3999999999999 C 604.3933782868738,762.9999999999999 607.3933782868738,756.4999999999999 598.7933782868739,752.0999999999999 C 597.7933782868739,751.5999999999999 596.8933782868739,750.0999999999999 596.6933782868739,748.8999999999999 C 595.0933782868739,741.9999999999999 589.7933782868739,740.6999999999998 583.8933782868739,739.4999999999999 C 571.7933782868739,736.8999999999999 558.3933782868739,736.9999999999999 551.3933782868739,722.3999999999999 C 544.993378286874,734.6999999999998 535.8933782868739,737.4999999999999 523.7933782868739,735.5999999999999 C 515.2933782868739,734.3 506.39337828687394,735.3 497.0933782868739,735.3 C 497.0933782868739,735.5999999999999 496.8933782868738,734.3 497.0933782868739,733.0999999999999 C 498.5933782868739,726.6999999999999 508.8933782868738,718.9999999999999 515.4933782868738,719.3 C 519.6933782868739,719.5 523.9933782868738,720.0999999999999 527.9933782868738,719.3 C 530.8933782868738,718.6999999999999 534.3933782868738,716.8 535.8933782868738,714.4 C 542.7933782868738,703.5 536.6933782868738,693.4 523.7933782868738,692.6 C 517.6933782868738,692.2 511.6933782868738,690.3000000000001 505.6933782868738,689.0 C 505.7933782868738,687.7 505.8933782868738,686.4 505.99337828687374,685.1 C 509.2933782868737,684.5 512.4933782868737,683.7 515.7933782868737,683.5 C 529.7933782868737,682.3 534.7933782868737,674.6 530.6933782868737,661.2 C 527.8933782868737,651.8000000000001 525.8933782868737,642.1 523.4933782868736,632.5 C 521.9933782868736,626.5 521.3933782868736,619.9 518.4933782868736,614.6 C 515.7933782868736,609.6 510.69337828687367,606.0 506.7933782868736,602.0 C 506.59337828687353,602.7 506.09337828687353,604.2 505.09337828687353,606.9 C 502.7933782868736,601.0 500.9933782868735,596.5 499.09337828687353,591.4 C 498.09337828687353,594.1999999999999 497.19337828687355,596.8 495.59337828687353,601.1 C 494.9933782868735,595.8000000000001 494.2933782868736,592.4 494.2933782868736,589.1 C 494.2933782868736,585.8000000000001 494.8933782868736,582.4 495.3933782868736,578.3000000000001 C 493.09337828687364,579.5000000000001 491.3933782868736,580.4000000000001 489.3933782868736,581.4000000000001 C 493.09337828687364,559.6000000000001 491.9933782868736,554.8000000000001 480.8933782868736,547.2 C 481.3933782868736,549.4000000000001 482.09337828687364,551.1 481.9933782868736,552.8000000000001 C 481.9933782868736,553.9000000000001 480.8933782868736,555.6 480.09337828687364,555.8000000000001 C 478.8933782868736,556.0000000000001 476.9933782868736,555.4000000000001 476.19337828687367,554.5000000000001 C 471.4933782868736,548.6000000000001 466.9933782868736,542.4000000000001 462.2933782868737,536.1000000000001 C 460.3933782868737,543.8000000000002 458.49337828687374,551.6000000000001 456.2933782868737,559.4000000000001 C 455.8933782868737,560.7 454.09337828687364,561.6000000000001 452.99337828687374,562.7 C 452.2933782868737,561.5 451.2933782868737,560.3000000000001 450.99337828687374,559.0 C 450.6933782868738,557.5 450.99337828687374,555.9 451.2933782868737,554.3 C 453.09337828687364,543.8 454.99337828687374,533.4 456.8933782868737,522.9 C 456.09337828687376,522.6999999999999 455.2933782868737,522.6 454.49337828687374,522.4 C 451.49337828687374,537.3 448.49337828687374,552.3 445.3933782868737,567.1999999999999 C 439.2933782868737,548.8 439.7933782868737,530.0999999999999 440.99337828687374,511.3 C 439.7933782868737,513.9 438.7933782868737,516.5999999999999 438.1933782868738,519.3 C 436.6933782868738,525.5999999999999 435.59337828687376,532.0 433.8933782868738,538.3 C 433.49337828687385,539.9 431.49337828687385,541.0999999999999 430.19337828687384,542.4 C 429.69337828687384,540.6999999999999 428.69337828687384,538.9 428.8933782868738,537.1999999999999 C 429.19337828687384,533.3 430.0933782868738,529.4999999999999 430.69337828687384,525.6999999999999 C 428.0933782868738,530.4999999999999 427.29337828687386,535.5999999999999 426.0933782868738,540.4999999999999 C 425.69337828687384,542.1999999999999 424.19337828687384,543.5999999999999 423.19337828687384,545.1999999999999 C 421.79337828687386,543.9 420.0933782868738,542.8 418.99337828687385,541.3 C 418.29337828687386,540.4 418.5933782868739,538.8 418.3933782868738,537.5 C 416.19337828687384,522.9 413.99337828687385,508.3 411.8933782868738,493.80000000000007 C 410.3933782868738,501.8 409.99337828687385,509.7000000000001 408.99337828687385,517.6 C 408.69337828687384,520.0 406.8933782868738,522.2 405.79337828687386,524.5 C 404.69337828687384,522.2 402.79337828687386,520.0 402.69337828687384,517.7 C 402.29337828687386,509.6000000000001 402.5933782868738,501.50000000000006 402.5933782868738,493.4000000000001 C 398.4933782868738,498.2000000000001 397.0933782868738,503.40000000000015 393.9933782868738,507.40000000000015 C 392.0933782868738,510.00000000000017 387.7933782868738,510.8000000000001 384.5933782868738,512.3000000000001 C 384.69337828687384,509.00000000000017 384.19337828687384,505.6000000000001 384.8933782868738,502.40000000000015 C 386.69337828687384,493.3000000000001 388.99337828687385,484.3000000000001 391.0933782868738,475.20000000000016 C 390.5933782868738,475.10000000000014 389.9933782868738,475.00000000000017 389.4933782868738,474.90000000000015 C 386.5933782868738,485.3000000000001 383.5933782868738,495.70000000000016 380.6933782868738,506.1000000000002 C 380.4933782868738,506.00000000000017 380.2933782868738,505.90000000000015 379.9933782868738,505.80000000000024 C 379.9933782868738,492.7000000000002 379.9933782868738,479.60000000000025 379.9933782868738,466.5000000000002 C 378.9933782868738,480.10000000000025 374.0933782868738,492.0000000000002 366.7933782868738,502.90000000000026 C 365.7933782868738,502.6000000000003 364.7933782868738,502.40000000000026 363.8933782868738,502.1000000000003 C 366.69337828687384,487.9000000000003 369.3933782868738,473.8000000000003 372.19337828687384,459.6000000000003 C 371.0933782868738,459.3000000000003 369.99337828687385,459.0000000000003 368.79337828687386,458.8000000000003 C 365.8933782868739,468.0000000000003 362.8933782868739,477.2000000000003 361.19337828687384,482.6000000000003 C 361.19337828687384,476.3000000000003 361.19337828687384,465.9000000000003 361.19337828687384,455.4000000000003 C 360.49337828687385,455.1000000000003 359.79337828687386,454.8000000000003 358.99337828687385,454.50000000000034 C 355.5933782868739,463.50000000000034 352.0933782868739,472.50000000000034 348.99337828687385,481.60000000000036 C 347.49337828687385,486.00000000000034 347.3933782868738,491.00000000000034 345.49337828687385,495.10000000000036 C 344.69337828687384,496.9000000000004 339.49337828687385,498.70000000000033 338.29337828687386,497.80000000000035 C 332.29337828687386,493.4000000000004 325.8933782868739,488.9000000000004 325.8933782868739,480.10000000000036 C 325.9933782868739,469.60000000000036 325.8933782868739,459.10000000000036 325.8933782868739,448.60000000000036 C 321.0933782868739,459.60000000000036 316.8933782868739,471.2000000000004 313.5933782868739,483.00000000000034 C 311.29337828687386,491.50000000000034 310.5933782868739,500.4000000000004 308.29337828687386,508.80000000000035 C 307.3933782868739,512.2000000000003 304.29337828687386,517.2000000000003 301.79337828687386,517.4000000000003 C 298.5933782868739,517.7000000000003 294.3933782868739,514.5000000000003 291.79337828687386,511.70000000000033 C 288.8933782868739,508.5000000000003 286.19337828687384,504.4000000000004 285.3933782868739,500.20000000000033 C 283.29337828687386,489.30000000000035 281.3933782868739,478.20000000000033 285.0933782868739,467.1000000000003 C 285.5933782868739,465.6000000000003 285.1933782868739,463.70000000000033 285.1933782868739,459.8000000000003 C 283.3933782868739,462.9000000000003 282.4933782868739,464.0000000000003 282.0933782868739,465.4000000000003 C 276.49337828687385,484.9000000000003 271.0933782868739,504.30000000000035 265.5933782868739,523.8000000000003 C 264.1933782868739,528.8000000000003 263.0933782868739,534.0000000000003 261.0933782868739,538.7000000000003 C 259.79337828687386,541.8000000000003 255.89337828687388,545.2000000000003 253.6933782868739,540.0000000000002 C 249.59337828687387,530.0000000000002 245.9933782868739,519.6000000000003 243.79337828687392,509.1000000000003 C 242.9933782868739,505.40000000000026 246.6933782868739,500.70000000000033 248.39337828687394,496.4000000000003 C 248.59337828687393,495.8000000000003 248.69337828687395,495.00000000000034 249.09337828687393,493.70000000000033 C 246.9933782868739,495.20000000000033 245.4933782868739,496.20000000000033 243.89337828687394,497.30000000000035 C 237.99337828687396,482.00000000000034 251.89337828687394,476.80000000000035 258.89337828687394,468.20000000000033 C 258.39337828687394,467.70000000000033 257.7933782868739,467.30000000000035 257.2933782868739,466.80000000000035 C 252.89337828687394,469.9000000000004 248.4933782868739,472.9000000000004 244.09337828687393,476.00000000000034 C 243.4933782868739,475.70000000000033 242.9933782868739,475.50000000000034 242.39337828687394,475.20000000000033 C 247.49337828687396,451.9000000000003 252.49337828687396,428.6000000000003 257.7933782868739,404.50000000000034 C 244.9933782868739,423.70000000000033 237.59337828687393,444.50000000000034 233.29337828687392,466.00000000000034 C 230.1933782868739,481.4000000000003 231.1933782868739,497.5000000000003 230.09337828687393,513.3000000000003 C 229.89337828687394,515.8000000000003 228.19337828687395,518.3000000000003 227.09337828687393,520.7000000000003 C 224.9933782868739,518.7000000000003 221.79337828687392,517.1000000000003 221.09337828687393,514.7000000000003 C 218.4933782868739,505.20000000000033 215.4933782868739,495.6000000000003 214.79337828687392,485.80000000000035 C 213.79337828687392,471.20000000000033 214.4933782868739,456.4000000000004 214.4933782868739,442.60000000000036 C 214.89337828687388,442.2000000000004 214.1933782868739,442.60000000000036 213.89337828687388,443.2000000000004 C 205.1933782868739,463.5000000000004 196.29337828687386,483.7000000000004 193.9933782868739,506.1000000000004 C 193.39337828687388,511.9000000000004 190.89337828687388,517.4000000000003 189.29337828687392,523.1000000000004 C 187.9933782868739,522.8000000000004 186.79337828687392,522.4000000000003 185.4933782868739,522.1000000000004 C 177.1933782868739,467.90000000000043 193.29337828687392,418.5000000000004 216.89337828687388,370.40000000000043 C 211.89337828687388,377.00000000000045 207.29337828687386,383.6000000000004 203.6933782868739,390.8000000000004 C 186.39337828687388,425.0000000000004 179.4933782868739,461.8000000000004 175.89337828687388,499.6000000000004 C 174.1933782868739,517.5000000000003 170.59337828687387,535.2000000000004 167.7933782868739,552.9000000000003 C 166.99337828687388,552.9000000000003 166.1933782868739,552.8000000000003 165.39337828687388,552.8000000000003 C 162.99337828687388,533.2000000000003 158.39337828687388,513.6000000000003 158.59337828687387,494.10000000000036 C 158.79337828687386,465.50000000000034 161.99337828687388,436.9000000000004 164.69337828687387,408.4000000000004 C 165.89337828687385,395.60000000000036 168.19337828687387,382.4000000000004 181.09337828687387,374.5000000000004 C 177.6933782868739,375.7000000000004 174.19337828687387,376.9000000000004 169.59337828687387,378.5000000000004 C 172.29337828687386,370.0000000000004 174.49337828687388,362.7000000000004 176.79337828687386,355.3000000000004 C 174.59337828687387,356.7000000000004 173.19337828687387,358.40000000000043 172.09337828687387,360.3000000000004 C 157.19337828687387,385.6000000000004 145.09337828687387,412.3000000000004 139.19337828687387,441.0000000000004 C 131.29337828687386,480.3000000000004 125.39337828687385,520.0000000000003 118.69337828687387,559.5000000000003 C 116.19337828687387,573.9000000000003 111.79337828687386,587.6000000000004 105.59337828687387,598.4000000000003 C 105.59337828687387,560.3000000000003 105.59337828687387,520.8000000000003 105.59337828687387,481.30000000000035 C 105.39337828687388,481.10000000000036 105.19337828687387,481.00000000000034 105.09337828687387,480.80000000000035 C 99.39337828687388,506.80000000000035 93.69337828687387,532.7000000000003 87.89337828687388,558.7000000000003 C 87.1933782868739,558.8000000000003 86.59337828687387,558.9000000000003 85.89337828687388,559.0000000000002 C 85.09337828687387,550.1000000000003 82.6933782868739,541.1000000000003 83.6933782868739,532.4000000000002 C 86.1933782868739,509.90000000000026 89.9933782868739,487.5000000000003 93.6933782868739,465.2000000000003 C 98.79337828687389,434.90000000000026 102.6933782868739,404.3000000000003 115.6933782868739,376.0000000000003 C 123.1933782868739,359.8000000000003 131.4933782868739,344.0000000000003 139.4933782868739,328.1000000000003 C 139.29337828687392,327.9000000000003 139.0933782868739,327.8000000000003 138.8933782868739,327.6000000000003 C 126.4933782868739,345.8000000000003 113.9933782868739,364.0000000000003 101.29337828687392,382.70000000000033 C 100.29337828687392,380.20000000000033 99.59337828687393,378.4000000000003 99.09337828687393,377.20000000000033 C 98.19337828687392,382.9000000000003 97.39337828687394,388.6000000000003 96.49337828687393,394.30000000000035 C 95.49337828687393,394.20000000000033 94.49337828687393,394.20000000000033 93.59337828687393,394.10000000000036 C 92.89337828687394,387.80000000000035 92.19337828687392,381.60000000000036 91.49337828687393,375.30000000000035 C 90.79337828687395,375.30000000000035 90.09337828687393,375.4000000000004 89.49337828687393,375.4000000000004 C 89.49337828687393,385.10000000000036 91.29337828687395,395.30000000000035 88.99337828687393,404.4000000000004 C 86.69337828687392,413.60000000000036 80.39337828687394,421.9000000000004 75.89337828687394,430.60000000000036 C 75.29337828687395,430.60000000000036 74.79337828687395,430.50000000000034 74.19337828687395,430.50000000000034 C 73.09337828687396,424.20000000000033 71.89337828687394,417.9000000000003 70.79337828687395,411.60000000000036 C 69.69337828687395,416.7000000000004 68.59337828687396,422.10000000000036 69.99337828687393,426.80000000000035 C 72.59337828687393,436.00000000000034 70.79337828687395,443.9000000000004 66.99337828687393,452.30000000000035 C 51.19337828687392,487.00000000000034 43.39337828687394,523.4000000000003 45.993378286873934,561.7000000000003 C 46.09337828687393,563.9000000000003 45.69337828687394,566.1000000000003 45.39337828687394,570.4000000000003 C 43.89337828687394,567.4000000000003 43.39337828687394,566.3000000000003 42.89337828687394,565.3000000000003 C 28.493378286873934,533.4000000000003 29.39337828687394,499.80000000000035 32.09337828687394,466.20000000000033 C 32.793378286873946,457.1000000000003 32.39337828687394,447.00000000000034 42.99337828687395,442.1000000000003 C 43.19337828687395,442.0000000000003 43.19337828687395,441.20000000000033 43.19337828687395,440.8000000000003 C 41.293378286873946,440.6000000000003 39.393378286873954,440.3000000000003 36.293378286873946,440.0000000000003 C 43.39337828687394,418.40000000000026 50.19337828687395,397.6000000000003 57.09337828687396,376.7000000000003 C 39.29337828687396,401.60000000000025 32.09337828687396,430.5000000000003 23.893378286873954,459.30000000000024 C 15.393378286873954,489.40000000000026 20.19337828687395,519.0000000000002 22.593378286873957,549.5000000000002 C 18.19337828687395,548.0000000000002 14.593378286873957,546.3000000000002 12.893378286873954,543.5000000000002 C 9.893378286873954,538.4000000000002 7.693378286873951,532.7000000000003 5.9933782868739485,527.0000000000002 C -0.9066217131260572,503.1000000000003 -0.5066217131260515,478.5000000000003 0.6933782868739513,453.90000000000026 C 1.093378286873957,445.80000000000024 2.1933782868739513,437.80000000000024 2.893378286873954,429.7000000000003 C 3.79337828687396,419.2000000000003 6.093378286873957,409.5000000000003 17.19337828687395,405.0000000000003 C 17.293378286873946,405.0000000000003 16.99337828687395,404.2000000000003 16.893378286873954,403.40000000000026 C 13.893378286873954,404.40000000000026 10.893378286873954,405.40000000000026 6.9933782868739485,406.80000000000024 C 9.493378286873948,397.90000000000026 11.293378286873946,389.7000000000002 13.993378286873948,381.90000000000026 C 24.593378286873943,351.60000000000025 39.19337828687395,324.0000000000003 67.49337828687396,306.10000000000025 C 68.89337828687397,305.2000000000003 69.79337828687397,302.90000000000026 70.09337828687396,301.2000000000003 C 73.69337828687395,275.8000000000003 82.89337828687397,252.50000000000028 99.69337828687395,233.30000000000027 C 154.29337828687395,171.10000000000025 223.39337828687394,139.50000000000028 306.19337828687395,141.90000000000026 C 337.59337828687393,142.80000000000027 370.19337828687395,146.70000000000027 388.593378286874,181.80000000000027 C 387.793378286874,175.80000000000027 387.293378286874,172.00000000000026 386.593378286874,166.70000000000027 C 392.893378286874,170.80000000000027 398.293378286874,173.90000000000026 403.293378286874,177.50000000000028 C 432.49337828687396,198.3000000000003 456.29337828687403,224.3000000000003 476.693378286874,253.6000000000003 C 478.29337828687403,255.90000000000032 481.693378286874,258.4000000000003 484.29337828687403,258.4000000000003 C 495.193378286874,258.50000000000034 506.193378286874,257.70000000000033 517.093378286874,257.1000000000003 C 526.693378286874,256.5000000000003 536.193378286874,255.70000000000033 546.693378286874,254.90000000000032 C 545.093378286874,252.90000000000032 544.393378286874,252.1000000000003 542.893378286874,250.1000000000003 C 554.793378286874,250.1000000000003 565.793378286874,250.1000000000003 577.193378286874,250.1000000000003 C 576.493378286874,248.70000000000033 575.793378286874,247.1000000000003 574.893378286874,245.1000000000003 C 589.9933782868741,249.6000000000003 603.5933782868741,249.00000000000028 616.0933782868741,239.2000000000003 C 613.9933782868741,237.5000000000003 612.1933782868741,236.0000000000003 609.9933782868741,234.2000000000003 C 621.6933782868741,230.9000000000003 630.9933782868741,225.9000000000003 633.5933782868741,213.9000000000003 C 638.9933782868741,188.9000000000003 641.9933782868741,163.3000000000003 654.9933782868741,140.4000000000003 C 652.793378286874,140.00000000000028 651.1933782868741,139.7000000000003 647.9933782868741,139.10000000000028 C 655.0933782868741,133.10000000000028 660.9933782868741,128.10000000000028 667.0933782868741,123.00000000000027 C 665.7933782868741,122.50000000000027 664.7933782868741,122.10000000000026 662.5933782868741,121.20000000000026 C 685.393378286874,116.20000000000026 686.1933782868741,91.30000000000025 702.893378286874,80.60000000000026 C 694.793378286874,77.10000000000026 686.793378286874,74.80000000000027 678.893378286874,72.40000000000026 C 676.9933782868741,71.80000000000027 675.4933782868741,70.40000000000026 673.693378286874,69.40000000000026 C 669.593378286874,67.10000000000026 665.493378286874,65.00000000000026 661.493378286874,62.600000000000264 C 658.593378286874,60.90000000000026 654.2933782868739,59.30000000000027 653.593378286874,56.80000000000027 C 652.8933782868739,54.30000000000027 654.993378286874,49.30000000000027 657.3933782868739,47.900000000000276 C 664.2933782868739,43.900000000000276 668.6933782868739,40.00000000000027 659.993378286874,30.000000000000274 C 667.2933782868739,30.000000000000274 671.7933782868739,29.80000000000027 676.193378286874,30.000000000000274 C 684.493378286874,30.400000000000272 685.993378286874,28.900000000000272 684.093378286874,20.900000000000272 C 682.993378286874,16.200000000000273 681.3933782868739,11.700000000000273 679.593378286874,5.800000000000271 C 694.193378286874,6.100000000000271 701.493378286874,18.30000000000027 714.3933782868739,22.30000000000027 C 713.6933782868739,14.80000000000027 713.093378286874,8.400000000000272 712.493378286874,1.9000000000002721 C 713.093378286874,1.4000000000002721 713.693378286874,0.9000000000002721 714.2933782868739,0.5000000000002718 C 723.5933782868739,8.100000000000271 732.8933782868739,15.70000000000027 742.3933782868739,23.500000000000274 C 744.7933782868739,14.400000000000272 746.6933782868739,7.300000000000274 748.6933782868739,0.10000000000027498 C 750.1933782868741,0.0 751.2933782868741,0.0 752.2933782868741,0.0"/>
</svg>
