<?xml version="1.0" ?>
<svg xmlns="http://www.w3.org/2000/svg" xmlns:ev="http://www.w3.org/2001/xml-events" xmlns:xlink="http://www.w3.org/1999/xlink" baseProfile="full" height="467" id="Layer_1" style="enable-background:new 0 0 500 500;" transform="scale(0.2247191011235955 0.2247191011235955) translate(-222.5 -233.5)" version="1.1" viewBox="0 0 445 467" width="445" x="0px" xml:space="preserve" y="0px">
	<defs/>
	<path d="M 106.21405829545557,110.70000000000002 C 90.01405829545558,99.10000000000002 74.91405829545559,92.70000000000002 56.21405829545558,91.4 C 65.31405829545557,80.10000000000002 76.61405829545558,76.70000000000002 88.11405829545558,78.70000000000002 C 117.31405829545557,83.70000000000002 144.51405829545558,94.80000000000001 169.61405829545558,110.70000000000002 C 173.4140582954556,113.1 176.21405829545557,116.5 178.11405829545558,120.70000000000002 C 179.9140582954556,124.80000000000001 182.9140582954556,128.10000000000002 186.81405829545557,130.50000000000003 C 196.91405829545556,136.80000000000004 202.01405829545556,134.40000000000003 203.81405829545557,122.60000000000002 C 204.21405829545557,119.90000000000003 204.01405829545556,117.00000000000003 205.61405829545558,114.70000000000002 C 209.81405829545557,114.70000000000002 210.21405829545557,118.00000000000003 211.31405829545557,120.30000000000001 C 217.21405829545557,133.5 223.11405829545558,146.70000000000002 223.71405829545557,161.6 C 224.01405829545558,169.9 228.61405829545555,177.0 234.11405829545555,183.0 C 239.51405829545553,188.9 245.71405829545557,194.2 251.61405829545555,199.6 C 255.71405829545557,203.29999999999998 260.41405829545556,203.7 265.0140582954555,200.9 C 281.61405829545555,190.6 297.11405829545555,180.1 301.31405829545554,158.5 C 304.91405829545556,140.0 311.0140582954555,121.6 321.0140582954555,105.5 C 336.11405829545555,81.20000000000002 353.0140582954555,58.1 376.11405829545555,40.6 C 377.61405829545555,39.4 379.7140582954556,38.800000000000004 380.5140582954555,35.4 C 377.31405829545554,34.0 373.11405829545555,34.5 369.9140582954555,32.4 C 362.4140582954555,27.6 361.2140582954555,22.5 367.9140582954555,16.0 C 371.5140582954555,12.5 365.3140582954555,10.399999999999999 368.0140582954555,7.800000000000001 C 371.81405829545554,6.800000000000001 374.5140582954555,11.2 378.5140582954555,10.0 C 381.0140582954555,7.300000000000001 375.9140582954555,4.100000000000001 380.2140582954555,0.0 C 381.2140582954555,1.6999999999999993 382.0140582954555,3.6000000000000014 383.31405829545554,5.0 C 385.91405829545556,7.800000000000001 387.91405829545556,12.899999999999999 392.41405829545556,11.3 C 396.41405829545556,10.0 393.81405829545554,4.700000000000003 395.41405829545556,1.5 C 399.91405829545556,4.100000000000001 397.91405829545556,10.2 402.11405829545555,13.600000000000001 C 405.81405829545554,12.8 406.0140582954555,8.700000000000003 408.11405829545555,6.300000000000001 C 410.11405829545555,9.5 405.41405829545556,13.399999999999999 409.2140582954556,16.6 C 414.0140582954556,17.4 413.61405829545555,11.600000000000001 416.91405829545556,10.200000000000003 C 418.61405829545555,9.900000000000002 418.61405829545555,11.400000000000002 418.7140582954556,12.500000000000004 C 419.2140582954556,17.000000000000007 417.7140582954556,23.000000000000007 426.0140582954556,20.400000000000006 C 427.8140582954556,19.800000000000004 429.0140582954556,22.000000000000007 428.8140582954556,23.500000000000007 C 428.4140582954556,27.400000000000006 430.7140582954556,29.300000000000004 433.4140582954556,31.20000000000001 C 435.71405829545563,32.90000000000001 438.21405829545563,35.70000000000001 437.51405829545564,38.20000000000001 C 435.21405829545563,45.80000000000001 437.71405829545563,51.70000000000001 444.51405829545564,56.70000000000001 C 437.61405829545566,59.70000000000001 432.11405829545566,56.00000000000001 426.61405829545566,59.600000000000016 C 427.11405829545566,65.30000000000001 430.51405829545564,71.50000000000003 428.01405829545564,77.70000000000002 C 425.51405829545564,83.90000000000003 420.01405829545564,87.60000000000002 413.9140582954556,91.10000000000002 C 418.21405829545563,100.30000000000004 422.3140582954556,109.30000000000004 426.6140582954556,118.30000000000001 C 431.71405829545563,129.0 434.5140582954556,140.20000000000002 433.21405829545563,152.20000000000002 C 432.71405829545563,156.60000000000002 433.1140582954556,161.10000000000002 432.6140582954556,165.50000000000003 C 430.4140582954556,182.90000000000003 431.6140582954556,199.70000000000002 437.21405829545563,216.60000000000002 C 442.71405829545563,233.3 443.71405829545563,250.70000000000002 436.31405829545565,267.40000000000003 C 434.31405829545565,271.8 435.01405829545564,279.1 426.61405829545566,278.50000000000006 C 425.51405829545564,278.40000000000003 424.2140582954557,282.30000000000007 423.01405829545564,284.40000000000003 C 418.71405829545563,292.1 414.31405829545565,299.8 410.11405829545566,307.6 C 397.01405829545564,331.90000000000003 377.61405829545566,349.3 352.61405829545566,360.70000000000005 C 344.51405829545564,364.40000000000003 337.51405829545564,369.70000000000005 330.4140582954557,375.1 C 317.11405829545566,385.20000000000005 312.0140582954557,399.20000000000005 310.7140582954557,414.90000000000003 C 309.61405829545566,428.00000000000006 314.5140582954557,437.70000000000005 329.61405829545566,439.1 C 334.01405829545564,439.5 338.4140582954557,440.3 342.61405829545566,441.40000000000003 C 344.4140582954557,441.90000000000003 346.11405829545566,444.00000000000006 345.61405829545566,446.1 C 345.01405829545564,448.6 342.51405829545564,448.1 340.61405829545566,447.6 C 333.4140582954557,445.5 326.51405829545564,441.6 318.2140582954557,443.0 C 319.7140582954557,448.1 324.5140582954557,448.0 327.7140582954557,449.9 C 331.0140582954557,451.9 333.7140582954557,453.9 333.8140582954557,458.9 C 322.5140582954557,457.9 315.5140582954557,447.79999999999995 304.8140582954557,445.79999999999995 C 303.0140582954557,453.19999999999993 312.8140582954557,458.79999999999995 307.2140582954557,466.29999999999995 C 301.5140582954557,462.09999999999997 298.2140582954557,457.19999999999993 296.3140582954557,450.79999999999995 C 293.1140582954557,440.09999999999997 291.5140582954557,439.59999999999997 280.6140582954557,442.99999999999994 C 276.8140582954557,444.19999999999993 272.91405829545573,445.49999999999994 269.0140582954557,446.19999999999993 C 266.1140582954557,446.79999999999995 263.3140582954557,446.0999999999999 262.7140582954557,442.0999999999999 C 269.61405829545566,438.3999999999999 276.5140582954557,434.3999999999999 283.61405829545566,430.8999999999999 C 295.81405829545565,424.69999999999993 300.01405829545564,413.8999999999999 300.81405829545565,401.19999999999993 C 301.21405829545563,395.8999999999999 299.81405829545565,390.79999999999995 298.61405829545566,385.69999999999993 C 296.9140582954557,378.29999999999995 295.11405829545566,372.99999999999994 285.2140582954557,372.0999999999999 C 274.5140582954557,371.0999999999999 265.2140582954557,364.0999999999999 255.7140582954557,358.7999999999999 C 246.8140582954557,353.8999999999999 246.8140582954557,353.8999999999999 241.11405829545566,362.7999999999999 C 240.2140582954557,364.1999999999999 239.51405829545564,365.5999999999999 238.51405829545564,366.8999999999999 C 235.21405829545563,371.0999999999999 232.71405829545563,371.0999999999999 230.51405829545564,366.2999999999999 C 228.01405829545564,360.8999999999999 226.31405829545565,354.9999999999999 224.31405829545565,349.2999999999999 C 223.01405829545564,345.4999999999999 221.91405829545565,341.5999999999999 220.51405829545564,337.7999999999999 C 218.91405829545565,333.3999999999999 216.21405829545563,331.1999999999999 211.31405829545565,332.9999999999999 C 204.41405829545565,335.5999999999999 198.81405829545565,333.89999999999986 195.81405829545565,327.1999999999999 C 192.41405829545565,327.9999999999999 191.31405829545565,330.39999999999986 189.51405829545564,331.89999999999986 C 186.11405829545564,334.6999999999999 182.61405829545564,334.89999999999986 180.21405829545563,331.1999999999999 C 177.41405829545562,326.89999999999986 174.41405829545562,325.39999999999986 169.21405829545563,326.59999999999985 C 164.01405829545564,327.79999999999984 159.81405829545562,325.49999999999983 157.11405829545564,320.6999999999999 C 156.01405829545564,318.7999999999999 155.71405829545563,316.6999999999999 152.11405829545564,316.89999999999986 C 141.71405829545563,317.59999999999985 141.61405829545564,317.1999999999999 140.91405829545565,307.39999999999986 C 140.81405829545565,306.1999999999999 140.71405829545566,304.9999999999999 140.61405829545564,302.9999999999999 C 136.31405829545562,304.1999999999999 132.31405829545562,310.89999999999986 127.71405829545563,303.89999999999986 C 126.01405829545564,301.29999999999984 123.41405829545562,304.29999999999984 121.31405829545562,304.79999999999984 C 114.31405829545562,306.39999999999986 109.81405829545562,304.1999999999998 110.71405829545563,297.79999999999984 C 112.01405829545564,288.39999999999986 105.71405829545563,283.09999999999985 102.21405829545563,275.89999999999986 C 98.51405829545564,277.9999999999999 100.11405829545564,283.09999999999985 95.31405829545562,284.79999999999984 C 88.31405829545562,269.1999999999998 91.41405829545562,251.2999999999998 85.41405829545562,235.19999999999982 C 78.91405829545562,238.19999999999982 79.11405829545564,245.59999999999982 73.61405829545564,248.09999999999982 C 68.91405829545562,239.89999999999984 68.71405829545563,224.19999999999982 74.11405829545564,215.39999999999984 C 80.61405829545564,204.79999999999984 79.91405829545562,193.09999999999982 80.11405829545564,181.59999999999982 C 80.21405829545563,174.7999999999998 76.01405829545564,172.59999999999982 69.31405829545562,174.7999999999998 C 62.21405829545564,177.19999999999982 56.81405829545563,182.09999999999982 52.514058295455634,187.9999999999998 C 40.11405829545563,204.9999999999998 32.31405829545563,223.5999999999998 32.41405829545563,245.09999999999982 C 32.41405829545563,254.89999999999984 32.41405829545563,264.6999999999999 31.414058295455632,274.6999999999999 C 12.31405829545563,254.29999999999987 15.31405829545563,230.09999999999985 19.914058295455632,205.39999999999984 C 14.614058295455635,211.69999999999985 13.114058295455635,219.39999999999984 9.914058295455632,226.09999999999982 C 9.114058295455635,227.7999999999998 8.31405829545563,230.09999999999982 5.814058295455631,229.7999999999998 C 3.414058295455632,229.4999999999998 2.814058295455631,227.19999999999982 2.2140582954556294,225.4999999999998 C -1.0859417045443713,214.2999999999998 -0.7859417045443706,203.2999999999998 3.7140582954556294,192.3999999999998 C 21.81405829545558,147.0 53.21405829545558,117.20000000000002 106.21405829545557,110.70000000000002"/>
</svg>
