<?xml version="1.0" ?>
<svg xmlns="http://www.w3.org/2000/svg" xmlns:ev="http://www.w3.org/2001/xml-events" xmlns:xlink="http://www.w3.org/1999/xlink" baseProfile="full" height="790" id="Layer_1" style="enable-background:new 0 0 1000 800;" transform="scale(0.12658227848101267 0.12658227848101267) translate(-405.0 -395.0)" version="1.1" viewBox="0 0 809 790" width="809" x="0px" xml:space="preserve" y="0px">
	<defs/>
	<path d="M 299.3,757.5816606308381 C 301.6,756.0816606308381 303.6,754.881660630838 305.6,753.5816606308381 C 311.5,749.7816606308381 317.8,746.381660630838 322.1,740.4816606308381 C 325.20000000000005,736.281660630838 325.70000000000005,730.381660630838 322.5,726.0816606308381 C 316.9,718.4816606308381 311.4,710.7816606308381 305.3,703.6816606308381 C 294.1,690.5816606308381 282.5,677.8816606308382 270.90000000000003,665.1816606308381 C 265.70000000000005,659.3816606308382 260.20000000000005,653.8816606308382 254.8,648.2816606308381 C 253.40000000000003,646.8816606308382 251.60000000000002,645.8816606308382 250.0,644.7816606308381 C 234.60000000000002,634.4816606308382 225.2,620.0816606308381 221.8,601.9816606308382 C 220.8,596.5816606308382 221.0,590.8816606308382 220.8,585.2816606308381 C 220.7,583.6816606308381 220.40000000000003,582.7816606308381 218.8,582.2816606308381 C 199.60000000000002,575.8816606308382 186.40000000000003,562.2816606308381 174.90000000000003,546.3816606308382 C 167.10000000000002,535.6816606308381 161.00000000000006,523.9816606308382 155.00000000000006,512.2816606308381 C 151.00000000000006,504.4816606308381 146.90000000000003,496.6816606308381 144.00000000000006,488.38166063083816 C 142.10000000000002,482.9816606308382 142.00000000000006,476.88166063083816 141.60000000000002,471.18166063083817 C 141.10000000000002,463.08166063083814 141.50000000000006,454.88166063083816 137.20000000000005,447.4816606308382 C 136.3,445.88166063083816 135.3,444.88166063083816 133.3,445.2816606308382 C 123.60000000000004,447.2816606308382 114.60000000000004,444.18166063083817 105.80000000000003,440.68166063083817 C 100.30000000000003,438.4816606308382 94.90000000000002,435.7816606308382 89.90000000000002,432.58166063083814 C 84.60000000000001,429.18166063083817 83.40000000000002,424.58166063083814 85.00000000000001,418.4816606308381 C 86.50000000000001,412.58166063083814 88.10000000000001,406.58166063083814 89.50000000000001,400.6816606308381 C 90.80000000000003,394.9816606308381 89.60000000000001,390.3816606308381 84.7,386.3816606308381 C 79.3,381.9816606308381 76.3,375.7816606308381 76.50000000000001,368.4816606308381 C 76.60000000000001,365.08166063083814 75.40000000000002,363.1816606308381 72.2,361.78166063083813 C 57.8,355.4816606308381 44.60000000000001,347.1816606308381 32.3,337.28166063083813 C 28.799999999999997,334.4816606308381 24.200000000000003,333.08166063083814 20.200000000000003,330.9816606308381 C 19.0,330.3816606308381 17.700000000000003,329.78166063083813 16.5,329.1816606308381 C 11.700000000000003,326.8816606308381 8.900000000000006,323.5816606308381 10.400000000000006,317.78166063083813 C 10.700000000000003,316.58166063083814 10.5,315.08166063083814 10.0,313.9816606308381 C 6.900000000000006,307.4816606308381 10.900000000000006,301.3816606308381 16.900000000000006,297.9816606308381 C 18.30000000000001,297.1816606308381 19.900000000000006,296.6816606308381 21.400000000000006,295.9816606308381 C 24.5,294.58166063083814 24.80000000000001,292.78166063083813 22.30000000000001,290.3816606308381 C 12.800000000000011,281.0816606308381 5.200000000000003,270.5816606308381 1.2000000000000028,257.7816606308381 C -0.5,252.58166063083806 -0.8999999999999915,247.18166063083805 0.0,241.78166063083805 C 1.0999999999999943,234.98166063083804 4.900000000000006,230.48166063083804 11.200000000000003,227.98166063083804 C 14.5,226.68166063083802 15.100000000000009,225.58166063083803 13.700000000000003,222.38166063083804 C 11.100000000000009,216.38166063083804 8.400000000000006,210.38166063083804 5.6000000000000085,204.38166063083804 C 3.4000000000000057,199.68166063083805 4.1000000000000085,197.28166063083805 8.100000000000009,193.88166063083804 C 10.900000000000006,191.48166063083804 13.100000000000009,188.48166063083804 15.800000000000011,185.88166063083804 C 16.700000000000017,184.98166063083804 18.000000000000014,184.48166063083804 19.30000000000001,184.18166063083805 C 20.400000000000006,183.88166063083804 21.700000000000017,184.18166063083805 22.900000000000006,184.18166063083805 C 25.0,184.18166063083805 26.10000000000001,183.08166063083806 26.10000000000001,180.88166063083804 C 26.10000000000001,174.78166063083805 22.400000000000006,171.18166063083805 17.500000000000014,168.58166063083803 C 11.90000000000002,165.68166063083802 7.200000000000017,161.68166063083802 3.1000000000000085,156.88166063083804 C -2.1999999999999886,150.68166063083805 -1.3999999999999915,144.78166063083805 5.500000000000014,140.18166063083805 C 8.300000000000011,138.28166063083805 11.40000000000002,136.88166063083804 14.500000000000014,135.58166063083806 C 16.000000000000014,134.98166063083806 16.60000000000001,134.28166063083805 16.90000000000002,132.68166063083805 C 17.800000000000026,126.58166063083806 19.000000000000014,120.58166063083806 22.100000000000023,115.18166063083805 C 25.50000000000003,109.18166063083805 30.50000000000003,105.18166063083805 37.000000000000014,103.38166063083806 C 44.000000000000014,101.48166063083805 49.800000000000026,97.48166063083805 55.500000000000014,93.38166063083806 C 59.2,90.68166063083805 62.60000000000001,87.68166063083805 66.30000000000003,84.88166063083806 C 69.40000000000002,82.48166063083805 73.00000000000001,82.08166063083806 76.70000000000003,83.08166063083806 C 84.40000000000002,85.08166063083806 90.30000000000003,90.08166063083806 95.90000000000002,95.38166063083806 C 106.00000000000001,104.88166063083806 114.00000000000001,116.28166063083805 122.50000000000001,127.08166063083806 C 128.40000000000003,134.58166063083806 134.10000000000002,142.18166063083805 139.8,149.78166063083805 C 145.70000000000005,157.58166063083806 149.5,166.28166063083805 151.40000000000003,175.88166063083804 C 153.8,188.08166063083803 160.0,198.38166063083804 167.60000000000002,207.88166063083804 C 183.5,227.78166063083805 203.40000000000003,243.18166063083802 224.0,257.68166063083805 C 235.39999999999998,265.7816606308381 246.5,274.38166063083804 257.7,282.7816606308381 C 264.0,287.48166063083806 271.09999999999997,289.2816606308381 278.7,287.68166063083805 C 291.8,284.88166063083804 304.7,281.2816606308381 317.8,278.88166063083804 C 328.90000000000003,276.88166063083804 340.1,275.98166063083806 351.3,274.98166063083806 C 366.7,273.5816606308381 382.2,272.68166063083805 397.6,271.2816606308381 C 416.20000000000005,269.5816606308381 434.80000000000007,267.5816606308381 453.4,265.48166063083806 C 463.1,264.38166063083804 472.9,264.38166063083804 482.5,261.48166063083806 C 492.9,258.38166063083804 501.5,252.881660630838 508.0,244.28166063083805 C 513.7,236.78166063083805 519.4,229.18166063083805 524.0,220.98166063083804 C 528.8,212.38166063083804 532.5,203.18166063083802 536.1,193.98166063083804 C 540.4,182.98166063083804 544.0,171.78166063083805 548.2,160.68166063083802 C 550.2,155.381660630838 552.9000000000001,150.381660630838 556.9000000000001,146.18166063083802 C 562.9000000000001,139.881660630838 567.4000000000001,132.58166063083803 571.2,124.78166063083802 C 579.7,107.78166063083802 590.9000000000001,93.18166063083802 606.8000000000001,82.38166063083801 C 615.2,76.68166063083801 622.6,69.68166063083801 629.0000000000001,61.581660630838016 C 634.1000000000001,55.081660630838016 640.0000000000001,49.28166063083802 648.1000000000001,46.78166063083802 C 654.3000000000002,44.98166063083802 660.8000000000002,44.18166063083802 667.2000000000002,43.081660630838016 C 672.6000000000001,42.18166063083802 677.6000000000001,40.981660630838014 682.0000000000001,37.18166063083802 C 684.3000000000001,35.18166063083802 687.6000000000001,33.88166063083802 690.6000000000001,33.28166063083802 C 695.3000000000002,32.38166063083802 700.2000000000002,32.28166063083802 705.1000000000001,31.98166063083802 C 706.3000000000002,31.88166063083802 707.5000000000001,32.181660630838024 708.6000000000001,32.48166063083802 C 713.4000000000001,33.78166063083802 716.2000000000002,31.681660630838024 716.1000000000001,26.681660630838024 C 716.0000000000001,22.081660630838023 715.7000000000002,17.481660630838025 715.8000000000002,12.981660630838025 C 715.9000000000002,7.581660630838026 721.5000000000002,1.1816606308380253 726.9000000000002,0.1816606308380253 C 730.5000000000002,-0.5183393691619749 733.0000000000002,0.781660630838025 734.8000000000002,4.481660630838026 C 735.1000000000001,5.081660630838026 735.4000000000002,5.781660630838027 735.8000000000002,6.781660630838027 C 737.2000000000002,5.081660630838027 738.5000000000002,3.481660630838026 740.0000000000002,1.5816606308380265 C 742.2000000000003,5.481660630838026 742.1000000000003,9.181660630838024 740.7000000000003,13.581660630838027 C 741.7000000000003,12.981660630838025 742.4000000000003,12.581660630838027 743.0000000000002,12.281660630838026 C 744.5000000000002,11.281660630838026 746.0000000000002,10.281660630838026 747.6000000000003,9.381660630838027 C 749.2000000000003,8.481660630838025 750.2000000000003,8.881660630838027 750.1000000000003,10.981660630838025 C 750.0000000000002,11.981660630838025 750.1000000000003,12.981660630838025 750.1000000000003,13.981660630838025 C 750.2000000000003,17.981660630838025 750.6000000000003,18.381660630838027 754.6000000000003,18.881660630838027 C 755.6000000000003,18.98166063083803 756.8000000000003,19.781660630838026 757.4000000000002,20.681660630838028 C 758.9000000000002,22.98166063083803 760.2000000000002,25.381660630838027 761.6000000000003,27.781660630838026 C 763.7000000000003,31.181660630838024 765.7000000000003,34.58166063083802 767.9000000000002,37.88166063083803 C 768.4000000000002,38.681660630838024 769.6000000000003,39.181660630838024 770.6000000000003,39.281660630838026 C 774.1000000000003,39.681660630838024 776.7000000000003,40.88166063083803 778.3000000000003,44.38166063083803 C 779.5000000000003,46.88166063083803 781.5000000000003,49.08166063083803 783.0000000000003,51.38166063083803 C 786.0000000000003,56.08166063083803 786.2000000000004,61.38166063083803 786.0000000000003,66.78166063083803 C 785.9000000000003,70.08166063083803 785.9000000000003,73.38166063083803 785.8000000000003,76.68166063083804 C 785.7000000000003,80.58166063083804 787.2000000000003,83.68166063083804 790.2000000000003,86.28166063083803 C 794.8000000000003,90.28166063083803 799.5000000000002,94.28166063083803 803.7000000000003,98.68166063083804 C 806.5000000000002,101.68166063083804 808.2000000000003,105.48166063083804 808.7000000000003,110.18166063083804 C 804.5000000000002,109.18166063083804 800.5000000000002,108.18166063083804 796.5000000000002,107.48166063083804 C 789.5000000000002,106.28166063083803 782.5000000000002,104.88166063083804 775.4000000000002,104.28166063083803 C 766.9000000000002,103.58166063083803 762.0000000000002,106.98166063083804 758.9000000000002,114.98166063083804 C 757.2000000000002,119.38166063083804 755.9000000000002,124.08166063083803 753.9000000000002,128.28166063083805 C 749.1000000000003,138.58166063083806 741.4000000000002,145.78166063083805 730.0000000000002,148.28166063083805 C 722.7000000000003,149.88166063083804 716.5000000000002,147.68166063083805 710.9000000000002,143.08166063083806 C 707.4000000000002,140.18166063083805 706.3000000000002,140.38166063083807 704.3000000000002,144.38166063083807 C 697.9000000000002,157.08166063083806 694.3000000000002,170.58166063083806 693.5000000000002,184.68166063083808 C 692.2000000000003,208.68166063083808 691.6000000000003,232.68166063083808 690.6000000000003,256.6816606308381 C 689.7000000000003,277.4816606308381 687.6000000000003,298.1816606308381 683.8000000000003,318.6816606308381 C 680.9000000000003,334.1816606308381 677.4000000000003,349.6816606308381 673.3000000000003,364.9816606308381 C 670.5000000000003,375.4816606308381 666.6000000000003,385.6816606308381 662.9000000000003,395.8816606308381 C 658.1000000000004,409.4816606308381 654.2000000000003,423.2816606308381 652.6000000000004,437.6816606308381 C 651.5000000000003,448.28166063083813 647.1000000000004,457.5816606308381 641.3000000000004,466.5816606308381 C 633.1000000000004,479.48166063083806 625.6000000000004,492.7816606308381 618.0000000000005,506.0816606308381 C 611.0000000000005,518.0816606308381 604.5000000000005,530.5816606308381 594.6000000000005,540.4816606308381 C 588.2000000000005,546.9816606308381 581.2000000000005,552.881660630838 573.7000000000005,558.1816606308381 C 552.3000000000005,573.1816606308381 528.2000000000005,582.7816606308381 503.7000000000005,591.2816606308381 C 489.3000000000005,596.2816606308381 474.7000000000005,600.8816606308382 460.3000000000005,605.9816606308382 C 446.3000000000005,610.9816606308382 432.2000000000005,612.0816606308382 417.50000000000057,610.1816606308382 C 410.50000000000057,609.2816606308382 403.40000000000055,609.8816606308383 397.90000000000055,615.1816606308382 C 394.8000000000005,618.1816606308382 392.3000000000005,621.8816606308383 389.50000000000057,625.2816606308382 C 388.90000000000055,626.0816606308382 388.40000000000055,626.9816606308383 387.70000000000056,627.7816606308382 C 384.8000000000006,631.5816606308382 385.00000000000057,633.7816606308382 388.00000000000057,637.4816606308383 C 393.00000000000057,643.5816606308383 397.8000000000006,649.7816606308382 402.50000000000057,656.0816606308383 C 411.00000000000057,667.4816606308383 420.2000000000006,678.2816606308384 431.6000000000006,686.9816606308383 C 436.7000000000006,690.8816606308383 441.6000000000006,695.0816606308383 446.50000000000057,699.0816606308383 C 451.2000000000006,702.8816606308383 456.8000000000005,705.0816606308383 462.50000000000057,706.5816606308383 C 477.6000000000006,710.3816606308383 492.7000000000006,714.0816606308383 507.8000000000005,717.8816606308383 C 512.4000000000005,718.9816606308383 517.1000000000005,720.0816606308383 521.6000000000005,721.2816606308382 C 523.0000000000005,721.6816606308382 524.2000000000005,722.4816606308383 525.6000000000005,723.0816606308382 C 525.5000000000005,723.4816606308382 525.4000000000004,723.8816606308382 525.4000000000004,724.3816606308382 C 523.0000000000005,724.3816606308382 520.6000000000005,724.5816606308382 518.2000000000004,724.3816606308382 C 504.3000000000004,722.8816606308382 490.40000000000043,721.0816606308382 476.40000000000043,719.6816606308381 C 471.40000000000043,719.1816606308381 466.40000000000043,719.5816606308381 461.2000000000004,720.0816606308381 C 462.10000000000036,720.381660630838 463.00000000000034,720.881660630838 463.90000000000043,721.0816606308381 C 479.00000000000045,724.1816606308381 494.00000000000045,727.1816606308381 509.1000000000005,730.4816606308381 C 517.0000000000005,732.1816606308381 524.7000000000005,734.381660630838 532.5000000000005,736.381660630838 C 533.2000000000005,736.5816606308381 533.9000000000004,736.881660630838 534.5000000000005,737.281660630838 C 535.9000000000004,738.381660630838 535.9000000000004,739.581660630838 534.1000000000005,739.9816606308381 C 530.8000000000005,740.6816606308381 527.4000000000004,741.5816606308381 524.1000000000005,741.5816606308381 C 517.9000000000004,741.5816606308381 511.7000000000005,741.0816606308381 505.40000000000043,740.7816606308381 C 486.50000000000045,739.7816606308381 467.50000000000045,738.7816606308381 448.6000000000005,737.8816606308382 C 445.1000000000005,737.6816606308381 443.7000000000005,738.6816606308381 443.1000000000005,742.2816606308381 C 442.6000000000005,745.6816606308381 442.8000000000005,749.1816606308381 442.40000000000043,752.6816606308381 C 442.2000000000004,754.5816606308381 441.3000000000004,756.3816606308382 440.8000000000004,758.1816606308381 C 439.10000000000036,757.2816606308381 437.10000000000036,756.6816606308381 435.8000000000004,755.3816606308382 C 429.60000000000036,748.5816606308382 425.3000000000004,740.5816606308382 422.8000000000004,731.7816606308381 C 421.40000000000043,726.8816606308382 418.40000000000043,724.5816606308381 413.7000000000004,723.9816606308382 C 411.10000000000036,723.6816606308382 408.4000000000004,723.5816606308382 405.8000000000004,723.6816606308382 C 397.1000000000004,724.1816606308382 388.40000000000043,724.8816606308383 379.7000000000004,725.2816606308382 C 378.0000000000004,725.3816606308383 376.3000000000004,724.4816606308383 374.7000000000004,723.9816606308383 C 375.8000000000004,722.5816606308383 376.7000000000004,720.8816606308383 378.10000000000036,719.6816606308383 C 382.30000000000035,716.1816606308383 387.4000000000004,714.7816606308384 392.50000000000034,713.2816606308384 C 396.10000000000036,712.2816606308384 399.80000000000035,710.9816606308384 402.70000000000033,708.7816606308384 C 407.70000000000033,704.9816606308384 408.1000000000003,698.9816606308384 404.1000000000003,693.3816606308384 C 400.20000000000033,687.8816606308384 395.9000000000003,682.6816606308383 391.8000000000003,677.2816606308384 C 386.5000000000003,670.2816606308384 381.6000000000003,662.9816606308384 376.1000000000003,656.1816606308383 C 368.9000000000003,647.1816606308383 361.3000000000003,638.4816606308383 353.8000000000003,629.6816606308383 C 353.3000000000003,629.0816606308383 352.6000000000003,628.5816606308383 351.9000000000003,628.1816606308383 C 348.4000000000003,625.9816606308383 344.9000000000003,626.8816606308384 343.9000000000003,630.8816606308384 C 341.4000000000003,640.7816606308384 334.4000000000003,644.3816606308384 325.20000000000033,644.5816606308384 C 317.6000000000003,644.7816606308385 312.1000000000003,648.5816606308384 307.1000000000003,653.4816606308384 C 305.8000000000003,654.7816606308384 304.5000000000003,655.9816606308384 303.1000000000003,657.2816606308384 C 299.6000000000003,660.4816606308384 299.3000000000003,664.0816606308383 302.3000000000003,667.7816606308384 C 315.3000000000003,683.6816606308383 328.2000000000003,699.7816606308384 341.4000000000003,715.5816606308383 C 348.8000000000003,724.4816606308383 356.4000000000003,733.3816606308383 364.50000000000034,741.6816606308383 C 372.30000000000035,749.6816606308383 382.10000000000036,754.0816606308383 393.60000000000036,752.2816606308384 C 399.50000000000034,751.3816606308384 405.10000000000036,749.4816606308384 410.9000000000004,748.1816606308383 C 412.4000000000004,747.8816606308384 413.9000000000004,748.1816606308383 415.5000000000004,748.1816606308383 C 415.6000000000004,748.5816606308383 415.7000000000004,748.9816606308383 415.8000000000004,749.3816606308384 C 414.7000000000004,750.0816606308384 413.7000000000004,750.8816606308384 412.6000000000004,751.4816606308384 C 411.1000000000004,752.2816606308384 409.40000000000043,752.8816606308384 407.90000000000043,753.6816606308385 C 405.6000000000004,754.8816606308385 405.50000000000045,755.8816606308385 407.8000000000004,756.9816606308384 C 411.1000000000004,758.6816606308385 414.6000000000004,760.1816606308385 418.10000000000036,761.2816606308384 C 432.10000000000036,765.4816606308384 446.60000000000036,765.9816606308384 461.10000000000036,766.2816606308384 C 465.3000000000004,766.3816606308384 469.50000000000034,766.9816606308384 473.60000000000036,767.5816606308383 C 474.50000000000034,767.6816606308383 475.2000000000004,768.6816606308383 476.00000000000034,769.2816606308384 C 475.4000000000003,770.0816606308383 474.9000000000003,771.3816606308384 474.10000000000036,771.6816606308383 C 470.4000000000003,772.8816606308384 466.60000000000036,774.1816606308383 462.7000000000004,774.7816606308384 C 448.60000000000036,776.8816606308384 434.40000000000043,776.7816606308384 420.3000000000004,774.6816606308383 C 413.40000000000043,773.6816606308383 406.5000000000004,773.3816606308384 399.5000000000004,772.7816606308384 C 396.4000000000004,772.4816606308384 393.2000000000004,772.2816606308384 389.9000000000004,772.0816606308383 C 393.7000000000004,776.1816606308383 397.5000000000004,780.1816606308383 401.10000000000036,784.3816606308383 C 402.2000000000004,785.5816606308383 402.80000000000035,787.1816606308382 403.7000000000004,788.6816606308382 C 402.10000000000036,788.8816606308383 400.3000000000004,789.6816606308382 398.8000000000004,789.3816606308383 C 391.90000000000043,787.8816606308383 384.90000000000043,786.7816606308382 378.3000000000004,784.3816606308383 C 369.0000000000004,780.8816606308383 360.0000000000004,776.5816606308383 351.0000000000004,772.2816606308382 C 346.4000000000004,770.0816606308382 342.3000000000004,766.9816606308383 339.8000000000004,762.4816606308383 C 338.0000000000004,759.3816606308383 335.40000000000043,758.1816606308383 332.1000000000004,758.4816606308383 C 327.1000000000004,758.8816606308383 322.1000000000004,759.6816606308383 317.1000000000004,759.8816606308383 C 312.20000000000044,760.0816606308383 307.3000000000004,759.7816606308382 302.40000000000043,759.6816606308382 C 301.90000000000043,759.6816606308382 301.40000000000043,759.3816606308383 300.90000000000043,759.0816606308382 C 300.40000000000003,758.5816606308381 300.20000000000005,758.281660630838 299.3,757.5816606308381"/>
</svg>
