<?xml version="1.0" ?>
<svg xmlns="http://www.w3.org/2000/svg" xmlns:ev="http://www.w3.org/2001/xml-events" xmlns:xlink="http://www.w3.org/1999/xlink" baseProfile="full" height="444" id="Layer_1" style="enable-background:new 0 0 500 500;" transform="scale(0.26666666666666666 0.26666666666666666) translate(-187.5 -222.0)" version="1.1" viewBox="0 0 375 444" width="375" x="0px" xml:space="preserve" y="0px">
	<defs/>
	<path d="M 318.4020395380295,34.94973668278321 C 316.5020395380295,28.949736682783215 314.3020395380295,22.549736682783216 312.4020395380295,16.049736682783216 C 311.8020395380295,14.049736682783216 310.7020395380295,11.249736682783219 312.9020395380295,9.949736682783215 C 314.9020395380295,8.849736682783213 316.2020395380295,11.649736682783217 317.7020395380295,12.749736682783212 C 319.7020395380295,14.349736682783213 321.0020395380295,16.849736682783213 323.80203953802953,17.449736682783215 C 326.0020395380295,14.249736682783212 324.7020395380295,10.249736682783212 326.2020395380295,6.9497366827832145 C 326.7020395380295,5.849736682783213 326.6020395380295,4.249736682783212 327.9020395380295,3.9497366827832145 C 329.6020395380295,3.549736682783216 330.4020395380295,5.149736682783217 330.9020395380295,6.349736682783213 C 332.8020395380295,10.249736682783212 334.6020395380295,14.249736682783212 336.7020395380295,18.949736682783215 C 339.6020395380295,13.249736682783212 342.0020395380295,8.249736682783212 344.80203953802953,3.349736682783213 C 345.60203953802954,1.9497366827832145 346.0020395380295,-0.6502633172167869 348.40203953802956,0.14973668278321384 C 350.30203953802953,0.7497366827832153 350.40203953802956,3.0497366827832124 350.60203953802954,4.749736682783212 C 351.10203953802954,10.349736682783213 350.30203953802953,15.949736682783215 349.70203953802957,22.24973668278321 C 353.40203953802956,20.24973668278321 354.3020395380296,16.449736682783215 356.70203953802957,14.14973668278321 C 359.3020395380296,11.749736682783212 360.8020395380296,11.749736682783212 361.3020395380296,15.449736682783207 C 361.70203953802957,17.64973668278321 361.8020395380296,19.849736682783206 361.9020395380296,22.04973668278321 C 362.1020395380296,24.54973668278321 361.9020395380296,26.949736682783207 365.6020395380296,26.949736682783207 C 367.8020395380296,26.949736682783207 368.4020395380296,29.14973668278321 368.7020395380296,30.849736682783206 C 370.7020395380296,40.9497366827832 371.50203953802963,50.94973668278321 363.00203953802963,58.94973668278321 C 360.60203953802966,61.24973668278321 362.7020395380296,61.94973668278321 363.9020395380296,63.049736682783205 C 367.7020395380296,66.6497366827832 371.9020395380296,69.94973668278321 373.6020395380296,75.1497366827832 C 374.3020395380296,77.2497366827832 375.4020395380296,79.4497366827832 373.3020395380296,81.3497366827832 C 371.6020395380296,82.8497366827832 369.5020395380296,82.3497366827832 367.6020395380296,81.74973668278321 C 359.5020395380296,79.3497366827832 359.5020395380296,79.3497366827832 359.3020395380296,87.64973668278321 C 359.0020395380296,103.94973668278321 348.70203953802957,109.84973668278322 334.20203953802957,102.0497366827832 C 333.40203953802956,101.5497366827832 332.5020395380296,101.1497366827832 331.20203953802957,100.34973668278322 C 330.3020395380296,105.34973668278322 331.3020395380296,109.64973668278323 332.70203953802957,113.64973668278323 C 337.20203953802957,126.24973668278322 335.5020395380296,138.64973668278324 332.0020395380296,151.04973668278325 C 330.8020395380296,155.54973668278325 329.8020395380296,160.04973668278325 328.6020395380296,164.44973668278325 C 328.0020395380296,166.44973668278325 327.7020395380296,168.34973668278326 328.0020395380296,170.44973668278325 C 328.6020395380296,174.84973668278326 332.6020395380296,177.94973668278325 332.3020395380296,182.74973668278326 C 330.4020395380296,209.94973668278325 326.3020395380296,236.54973668278325 314.6020395380296,261.54973668278325 C 309.5020395380296,272.34973668278326 300.7020395380296,279.14973668278327 290.0020395380296,283.54973668278325 C 285.90203953802956,285.24973668278324 284.20203953802957,287.64973668278327 283.40203953802956,291.74973668278324 C 281.10203953802954,303.84973668278326 278.70203953802957,316.1497366827832 271.90203953802956,326.4497366827832 C 262.80203953802953,340.3497366827832 252.5020395380296,353.4497366827832 242.5020395380296,366.74973668278324 C 240.80203953802962,369.04973668278325 236.0020395380296,370.54973668278325 236.10203953802963,372.24973668278324 C 236.30203953802962,375.74973668278324 238.70203953802965,379.24973668278324 240.30203953802962,382.6497366827832 C 245.5020395380296,393.3497366827832 252.0020395380296,403.24973668278324 258.6020395380296,413.1497366827832 C 260.6020395380296,416.1497366827832 262.5020395380296,416.9497366827832 266.0020395380296,415.4497366827832 C 271.90203953802956,412.9497366827832 278.20203953802957,411.1497366827832 284.70203953802957,411.54973668278325 C 288.0020395380296,411.74973668278324 291.60203953802954,410.74973668278324 294.0020395380296,415.14973668278327 C 295.20203953802957,417.34973668278326 299.20203953802957,414.84973668278326 301.90203953802956,415.2497366827833 C 303.80203953802953,415.5497366827833 306.70203953802957,414.3497366827833 307.20203953802957,416.7497366827833 C 307.70203953802957,419.2497366827833 304.60203953802954,419.2497366827833 302.90203953802956,420.0497366827833 C 296.70203953802957,422.9497366827833 290.5020395380296,425.7497366827833 283.40203953802956,429.0497366827833 C 290.70203953802957,432.0497366827833 296.70203953802957,435.4497366827833 299.80203953802953,442.2497366827833 C 298.30203953802953,443.2497366827833 297.0020395380295,443.3497366827833 296.0020395380295,442.64973668278327 C 285.10203953802954,436.14973668278327 272.7020395380295,436.9497366827833 260.80203953802953,435.64973668278327 C 257.90203953802956,435.34973668278326 255.30203953802956,435.14973668278327 253.10203953802957,432.84973668278326 C 248.7020395380296,428.4497366827833 243.80203953802956,428.14973668278327 238.50203953802955,431.24973668278324 C 235.90203953802953,432.74973668278324 233.20203953802954,434.04973668278325 230.00203953802955,433.34973668278326 C 231.30203953802956,427.4497366827833 234.10203953802957,423.24973668278324 240.40203953802953,422.24973668278324 C 243.40203953802953,421.74973668278324 243.90203953802953,420.34973668278326 242.3020395380295,417.6497366827832 C 239.10203953802952,412.5497366827832 236.20203953802948,407.24973668278324 233.10203953802952,402.0497366827832 C 232.40203953802953,400.8497366827832 231.90203953802953,399.5497366827832 229.90203953802953,400.3497366827832 C 221.8020395380295,403.6497366827832 212.90203953802953,403.5497366827832 203.00203953802955,406.4497366827832 C 210.20203953802954,408.8497366827832 213.90203953802953,413.1497366827832 216.00203953802955,418.9497366827832 C 216.50203953802955,420.24973668278324 217.80203953802956,421.54973668278325 216.50203953802955,422.74973668278324 C 215.00203953802955,424.1497366827832 213.90203953802953,422.4497366827832 213.00203953802955,421.6497366827832 C 202.90203953802953,412.4497366827832 189.60203953802954,410.5497366827832 177.30203953802956,406.24973668278324 C 172.90203953802956,404.74973668278324 168.60203953802957,405.4497366827832 164.90203953802956,408.84973668278326 C 163.00203953802955,410.64973668278327 160.50203953802955,411.54973668278325 157.40203953802956,412.04973668278325 C 157.50203953802955,406.04973668278325 159.30203953802956,401.24973668278324 165.40203953802956,399.54973668278325 C 170.40203953802956,398.14973668278327 170.60203953802954,395.84973668278326 168.90203953802956,391.34973668278326 C 163.40203953802956,376.64973668278327 158.60203953802954,361.74973668278324 154.90203953802956,346.4497366827833 C 153.80203953802956,341.84973668278326 151.70203953802957,338.7497366827833 147.80203953802956,336.0497366827833 C 136.40203953802956,328.1497366827833 125.70203953802957,319.4497366827833 112.20203953802957,314.7497366827833 C 104.70203953802957,312.14973668278327 101.60203953802957,304.4497366827833 99.50203953802958,297.2497366827833 C 97.60203953802957,290.8497366827833 94.20203953802957,287.0497366827833 87.70203953802957,285.14973668278327 C 70.60203953802957,280.2497366827833 58.90203953802956,269.54973668278325 53.602039538029565,252.34973668278326 C 52.70203953802956,249.34973668278326 51.50203953802957,248.14973668278327 48.00203953802957,249.24973668278324 C 44.40203953802958,250.34973668278326 40.50203953802957,251.1497366827832 36.702039538029574,250.6497366827832 C 33.702039538029574,250.24973668278324 29.902039538029577,250.0497366827832 29.10203953802958,246.74973668278324 C 28.10203953802958,242.24973668278324 25.402039538029577,242.34973668278326 21.902039538029577,242.04973668278325 C 17.702039538029574,241.74973668278324 12.202039538029574,242.34973668278326 10.402039538029577,237.24973668278324 C 8.302039538029582,231.44973668278323 15.202039538029574,231.44973668278323 17.60203953802958,228.44973668278323 C 13.802039538029582,226.24973668278324 6.902039538029577,227.54973668278325 7.6020395380295795,220.74973668278324 C 8.302039538029582,214.04973668278325 15.002039538029585,215.34973668278323 20.202039538029574,213.54973668278325 C 15.302039538029568,211.04973668278325 10.302039538029568,210.94973668278325 5.802039538029568,209.34973668278326 C 3.502039538029571,208.54973668278325 -0.0979604619704304,208.54973668278325 0.0020395380295710197,205.14973668278327 C 0.10203953802957244,202.04973668278328 3.4020395380295767,201.54973668278328 5.802039538029568,200.64973668278327 C 10.202039538029574,199.04973668278328 14.802039538029568,199.64973668278327 20.202039538029574,199.24973668278326 C 15.302039538029568,191.64973668278327 10.802039538029568,184.54973668278328 6.202039538029574,177.54973668278328 C 3.9020395380295767,173.94973668278328 1.8020395380295682,170.24973668278326 0.8020395380295753,166.14973668278327 C 0.20203953802957386,163.74973668278326 -0.5979604619704233,160.64973668278327 2.202039538029574,159.04973668278328 C 4.6020395380295795,157.64973668278327 6.902039538029577,158.94973668278328 8.802039538029568,160.54973668278328 C 12.602039538029565,163.74973668278326 16.202039538029574,167.04973668278328 21.202039538029574,171.44973668278328 C 15.702039538029574,161.3497366827833 11.002039538029571,152.8497366827833 6.402039538029577,144.2497366827833 C 6.002039538029571,143.5497366827833 5.6020395380295795,142.8497366827833 5.302039538029582,142.0497366827833 C 3.202039538029588,136.9497366827833 -0.9979604619704148,131.2497366827833 3.202039538029588,126.24973668278328 C 6.402039538029591,122.44973668278327 12.502039538029585,123.84973668278327 18.102039538029594,123.84973668278327 C 16.102039538029594,118.64973668278328 14.202039538029588,113.44973668278327 12.302039538029597,108.34973668278327 C 10.902039538029591,104.54973668278326 9.702039538029602,100.74973668278328 9.802039538029597,96.64973668278327 C 9.902039538029591,94.64973668278327 9.802039538029597,92.44973668278327 11.902039538029591,91.44973668278327 C 14.302039538029597,90.34973668278327 16.40203953802959,91.54973668278326 17.90203953802959,93.24973668278326 C 21.302039538029597,97.14973668278327 24.502039538029585,101.34973668278327 27.702039538029588,105.44973668278327 C 28.302039538029582,106.24973668278328 28.90203953802959,106.94973668278327 30.502039538029585,108.84973668278327 C 28.202039538029588,102.44973668278327 26.202039538029588,97.44973668278327 24.802039538029582,92.34973668278327 C 24.002039538029585,89.54973668278328 23.902039538029577,86.34973668278327 24.202039538029588,83.34973668278327 C 24.802039538029582,77.24973668278328 29.702039538029588,75.14973668278327 34.502039538029585,79.04973668278328 C 36.30203953802958,80.44973668278328 37.502039538029585,82.54973668278328 39.502039538029585,83.94973668278328 C 38.70203953802959,77.64973668278328 34.90203953802959,72.74973668278328 33.80203953802958,66.84973668278327 C 33.20203953802959,63.34973668278327 32.20203953802959,59.84973668278327 35.80203953802958,57.64973668278327 C 39.70203953802959,55.249736682783265 43.30203953802958,57.14973668278327 46.10203953802958,59.94973668278327 C 51.80203953802958,65.74973668278326 55.60203953802958,72.94973668278327 59.202039538029574,80.14973668278327 C 67.90203953802958,97.44973668278327 74.00203953802958,115.84973668278327 83.50203953802958,132.7497366827833 C 86.10203953802957,137.3497366827833 89.20203953802957,141.5497366827833 91.40203953802958,146.2497366827833 C 97.40203953802958,158.94973668278328 108.2020395380296,161.44973668278328 120.2020395380296,158.6497366827833 C 133.3020395380296,155.6497366827833 146.2020395380296,155.7497366827833 159.1020395380296,157.9497366827833 C 172.4020395380296,160.1497366827833 184.2020395380296,157.9497366827833 195.10203953802963,150.0497366827833 C 198.90203953802964,147.34973668278332 202.80203953802962,144.9497366827833 206.70203953802965,142.34973668278332 C 210.10203953802963,140.0497366827833 213.40203953802964,137.84973668278332 217.80203953802967,139.0497366827833 C 219.00203953802966,139.34973668278332 220.70203953802965,138.9497366827833 221.9020395380297,138.4497366827833 C 234.1020395380297,132.84973668278332 245.80203953802967,126.54973668278329 251.4020395380297,113.3497366827833 C 255.6020395380297,103.54973668278329 259.30203953802965,93.5497366827833 263.0020395380297,83.5497366827833 C 272.80203953802953,57.74973668278321 293.1020395380295,44.149736682783214 318.4020395380295,34.94973668278321 M 229.70203953802954,397.24973668278324 C 229.40203953802953,396.04973668278325 229.40203953802953,395.54973668278325 229.20203953802954,395.34973668278326 C 222.40203953802953,385.9497366827833 220.20203953802954,373.74973668278324 209.80203953802956,366.34973668278326 C 205.30203953802956,363.14973668278327 203.40203953802958,356.34973668278326 200.60203953802957,350.9497366827833 C 193.80203953802956,338.0497366827833 188.20203953802957,336.2497366827833 175.40203953802958,342.64973668278327 C 172.10203953802957,344.34973668278326 171.10203953802957,346.04973668278325 172.00203953802958,349.64973668278327 C 175.10203953802957,361.34973668278326 178.90203953802958,372.7497366827833 183.00203953802958,384.04973668278325 C 184.50203953802958,388.04973668278325 186.70203953802957,388.84973668278326 190.70203953802957,388.4497366827832 C 198.70203953802954,387.6497366827832 206.80203953802956,387.1497366827832 214.40203953802958,390.74973668278324 C 215.7020395380296,391.34973668278326 217.2020395380296,391.9497366827832 216.90203953802958,393.74973668278324 C 216.60203953802957,395.54973668278325 214.40203953802958,394.24973668278324 213.5020395380296,395.4497366827832 C 218.90203953802953,395.54973668278325 224.10203953802952,396.1497366827832 229.70203953802954,397.24973668278324"/>
</svg>
