<?xml version="1.0" ?>
<svg xmlns="http://www.w3.org/2000/svg" xmlns:ev="http://www.w3.org/2001/xml-events" xmlns:xlink="http://www.w3.org/1999/xlink" baseProfile="full" height="793" id="Layer_1" style="enable-background:new 0 0 1000 800;" transform="scale(0.1524390243902439 0.1524390243902439) translate(-328.0 -396.5)" version="1.1" viewBox="0 0 656 793" width="656" x="0px" xml:space="preserve" y="0px">
	<defs/>
	<path d="M 611.3217748449274,146.0000000000004 C 619.1217748449274,163.0000000000004 626.0217748449274,180.0000000000004 626.4217748449274,198.4000000000004 C 626.7217748449274,214.0000000000004 627.8217748449274,230.9000000000004 606.4217748449274,235.20000000000041 C 599.4217748449274,236.60000000000042 602.8217748449274,241.8000000000004 603.7217748449274,245.20000000000041 C 608.2217748449274,261.80000000000047 612.8217748449274,278.50000000000045 618.0217748449273,294.90000000000043 C 640.8217748449273,366.70000000000044 613.8217748449273,469.40000000000043 559.6217748449274,515.8000000000004 C 550.0217748449273,524.0000000000005 539.9217748449273,532.4000000000004 527.9217748449273,535.6000000000004 C 514.7217748449273,539.1000000000004 507.72177484492727,546.9000000000003 502.62177484492736,558.5000000000003 C 492.8217748449274,580.7000000000004 479.3217748449274,600.0000000000003 461.2217748449274,616.8000000000003 C 451.52177484492734,625.9000000000003 439.52177484492734,636.7000000000003 439.02177484492734,651.3000000000003 C 438.12177484492736,676.8000000000003 437.52177484492734,702.8000000000003 449.8217748449273,726.4000000000003 C 455.52177484492734,737.4000000000003 465.4217748449273,741.5000000000003 477.72177484492727,737.4000000000003 C 490.8217748449273,733.0000000000003 501.5217748449272,735.4000000000003 511.8217748449273,745.6000000000004 C 520.2217748449273,753.9000000000003 536.1217748449272,752.2000000000004 542.6217748449272,767.3000000000004 C 530.8217748449273,768.1000000000004 519.8217748449273,768.9000000000004 508.9217748449272,769.6000000000004 C 488.72177484492715,770.8000000000004 488.72177484492715,770.8000000000004 483.12177484492724,792.5000000000003 C 471.0217748449272,768.1000000000004 442.3217748449273,772.0000000000003 428.0217748449272,752.8000000000003 C 424.3217748449272,747.8000000000003 417.4217748449272,752.5000000000003 412.0217748449272,752.8000000000003 C 407.12177484492724,753.0000000000003 396.8217748449272,763.0000000000003 395.72177484492727,745.6000000000003 C 395.22177484492727,738.6000000000003 377.12177484492724,736.5000000000002 370.9217748449273,726.6000000000003 C 370.72177484492727,726.3000000000003 362.02177484492734,730.5000000000002 358.12177484492736,733.6000000000003 C 351.62177484492736,738.7000000000003 344.4217748449273,740.2000000000003 335.52177484492734,741.1000000000003 C 335.7217748449273,728.7000000000003 343.12177484492736,722.2000000000003 352.12177484492736,716.4000000000002 C 372.62177484492736,703.3000000000002 372.52177484492734,703.1000000000003 353.02177484492734,687.7000000000002 C 369.4217748449273,686.4000000000002 370.8217748449273,675.9000000000002 369.52177484492734,663.7000000000002 C 366.9217748449273,640.1000000000001 371.8217748449273,616.1000000000001 362.9217748449273,592.5000000000001 C 354.62177484492736,570.3000000000001 334.7217748449273,561.1000000000001 319.02177484492734,547.0000000000001 C 313.62177484492736,542.2000000000002 312.9217748449273,553.2000000000002 307.32177484492735,551.4000000000001 C 302.7217748449273,542.6000000000001 301.92177484492737,531.7 294.7217748449273,522.1000000000001 C 287.32177484492735,528.2000000000002 276.6217748449273,541.4000000000001 278.02177484492734,517.7000000000002 C 271.02177484492734,517.8000000000002 271.82177484492735,526.4000000000002 266.12177484492736,527.2000000000002 C 260.02177484492734,525.3000000000002 264.42177484492737,518.3000000000002 260.2217748449274,515.6000000000001 C 255.12177484492736,516.7000000000002 257.12177484492736,523.3000000000002 251.92177484492737,525.2000000000002 C 246.92177484492737,519.1000000000001 252.0217748449274,511.4000000000002 249.12177484492736,503.3000000000002 C 242.02177484492734,516.9000000000002 237.22177484492738,510.20000000000016 232.92177484492737,500.50000000000017 C 229.82177484492735,506.50000000000017 227.5217748449274,511.0000000000001 224.72177484492738,516.6000000000001 C 221.92177484492737,512.8000000000002 219.92177484492737,510.10000000000014 217.92177484492737,507.3000000000001 C 214.12177484492736,510.60000000000014 216.82177484492735,516.8000000000001 212.22177484492738,519.5000000000001 C 207.92177484492737,517.9000000000001 207.12177484492736,514.2000000000002 206.3217748449274,510.9000000000001 C 204.72177484492738,504.6000000000001 205.22177484492738,500.5000000000001 194.5217748449274,500.80000000000007 C 186.8217748449274,501.00000000000006 176.0217748449274,490.00000000000006 172.0217748449274,478.80000000000007 C 168.0217748449274,467.9000000000001 165.92177484492737,456.70000000000005 165.3217748449274,445.1000000000001 C 165.0217748449274,438.80000000000007 164.72177484492738,432.50000000000006 157.0217748449274,429.6000000000001 C 153.92177484492737,439.00000000000006 156.8217748449274,448.4000000000001 156.0217748449274,457.50000000000006 C 155.72177484492738,461.00000000000006 155.12177484492742,465.30000000000007 150.3217748449274,465.6000000000001 C 146.62177484492742,465.80000000000007 145.12177484492742,462.4000000000001 143.8217748449274,459.6000000000001 C 138.5217748449274,448.50000000000006 136.12177484492742,436.80000000000007 136.5217748449274,424.6000000000001 C 136.72177484492738,418.1000000000001 135.92177484492737,413.30000000000007 128.12177484492742,412.50000000000006 C 125.3217748449274,417.70000000000005 128.3217748449274,422.90000000000003 128.12177484492742,428.00000000000006 C 127.92177484492743,431.70000000000005 128.42177484492743,436.00000000000006 124.02177484492739,437.20000000000005 C 119.8217748449274,438.40000000000003 117.12177484492742,434.90000000000003 115.52177484492739,431.70000000000005 C 112.62177484492742,426.20000000000005 108.62177484492742,420.40000000000003 108.3217748449274,414.6 C 106.92177484492743,392.70000000000005 98.02177484492739,372.40000000000003 95.22177484492738,350.6 C 93.22177484492738,334.6 85.02177484492739,319.40000000000003 92.62177484492736,299.40000000000003 C 81.72177484492735,305.6 83.22177484492735,312.90000000000003 82.52177484492736,318.6 C 80.12177484492736,336.8 87.02177484492734,353.6 91.32177484492735,370.8 C 93.32177484492735,379.0 98.62177484492736,390.8 88.22177484492732,394.40000000000003 C 78.12177484492733,397.90000000000003 74.92177484492731,385.20000000000005 70.52177484492734,377.90000000000003 C 68.62177484492733,374.8 66.62177484492733,371.3 66.32177484492735,367.8 C 62.62177484492736,325.6 41.42177484492734,287.9 35.82177484492735,246.2 C 35.521774844927336,243.7 34.72177484492735,241.29999999999998 33.42177484492734,236.2 C 25.821774844927347,255.99999999999997 29.321774844927347,273.20000000000005 32.021774844927336,290.20000000000005 C 33.221774844927324,297.90000000000003 35.82177484492735,305.40000000000003 37.521774844927336,313.00000000000006 C 39.32177484492735,320.90000000000003 44.521774844927336,331.30000000000007 34.62177484492733,335.20000000000005 C 25.92177484492734,338.70000000000005 20.221774844927324,329.00000000000006 15.12177484492733,322.40000000000003 C 4.321774844927319,308.50000000000006 2.021774844927336,291.70000000000005 0.5217748449273358,275.1 C -5.178225155072653,209.4 36.62177484492733,151.1 86.82177484492735,126.8 C 133.52177484492734,104.2 177.9217748449273,114.5 217.72177484492738,144.79999999999998 C 272.5217748449274,186.39999999999998 299.62177484492736,245.2 316.2217748449274,309.8 C 322.3217748449274,333.7 336.5217748449274,342.8 360.62177484492736,336.7 C 377.4217748449273,332.4 390.9217748449273,323.4 400.8217748449274,308.8 C 421.52177484492745,278.3 434.52177484492745,243.89999999999998 450.7217748449274,211.2 C 470.02177484492734,172.1 495.4217748449274,138.29999999999998 528.8217748449274,110.3 C 530.8217748449274,108.6 532.5217748449274,106.7 534.3217748449274,104.8 C 534.5217748449274,104.5 534.3217748449274,103.89999999999999 534.3217748449274,101.8 C 513.2217748449274,103.3 497.62177484492736,93.5 487.2217748449274,75.7 C 478.9217748449274,61.5 478.9217748449274,46.2 484.12177484492736,28.2 C 490.2217748449274,37.0 491.9217748449273,46.5 499.62177484492736,51.400000000000006 C 504.9217748449273,54.8 510.7217748449274,59.2 516.8217748449274,55.0 C 523.5217748449274,50.5 519.9217748449274,43.900000000000006 518.2217748449274,37.900000000000006 C 515.1217748449274,27.3 505.62177484492736,21.8 497.8217748449274,12.400000000000002 C 512.8217748449274,9.500000000000002 522.4217748449274,17.000000000000004 532.4217748449274,23.900000000000002 C 539.4217748449274,28.7 547.2217748449274,40.900000000000006 553.5217748449274,35.900000000000006 C 560.6217748449275,30.3 552.7217748449275,18.6 549.9217748449274,9.8 C 549.0217748449274,6.9 547.4217748449274,4.1000000000000005 545.5217748449274,0.0 C 558.7217748449275,0.3999999999999999 564.3217748449274,8.8 568.6217748449275,18.2 C 572.8217748449275,27.599999999999998 576.1217748449275,37.3 580.4217748449274,48.400000000000006 C 589.2217748449274,38.0 589.1217748449275,27.3 587.9217748449274,14.7 C 601.3217748449274,23.5 599.7217748449274,36.2 601.6217748449275,49.5 C 607.4217748449274,42.3 604.2217748449275,35.2 606.2217748449275,28.299999999999997 C 618.5217748449274,36.3 615.3217748449275,49.5 618.2217748449275,61.099999999999994 C 628.9217748449275,57.89999999999999 627.7217748449275,47.39999999999999 631.5217748449274,39.999999999999986 C 636.7217748449275,45.19999999999999 638.7217748449275,51.3 637.4217748449274,57.39999999999999 C 633.6217748449275,75.99999999999999 639.5217748449274,95.19999999999999 633.4217748449274,113.49999999999999 C 632.1217748449275,117.39999999999999 632.8217748449274,120.59999999999998 636.3217748449274,123.09999999999998 C 638.4217748449274,124.69999999999997 640.4217748449274,126.39999999999999 642.1217748449274,128.39999999999998 C 648.1217748449274,135.49999999999997 658.7217748449274,143.7 654.3217748449274,151.99999999999997 C 649.8217748449274,160.49999999999997 641.4217748449274,148.09999999999997 633.9217748449274,148.29999999999998 C 626.7217748449274,148.70000000000041 620.0217748449273,144.20000000000041 611.3217748449274,146.0000000000004 M 412.7217748449274,704.1000000000005 C 424.02177484492734,702.2000000000005 422.12177484492736,693.6000000000005 422.12177484492736,685.2000000000005 C 422.2217748449274,658.4000000000005 408.3217748449274,635.9000000000005 399.7217748449274,611.7000000000005 C 393.12177484492736,615.3000000000005 393.62177484492736,622.2000000000005 392.3217748449274,627.9000000000005 C 387.52177484492745,648.3000000000005 388.3217748449274,669.2000000000005 388.4217748449274,690.0000000000006 C 388.52177484492745,714.9000000000005 397.4217748449274,721.3000000000005 422.8217748449274,715.6000000000006 C 422.52177484492734,709.6000000000005 414.8217748449274,711.4000000000004 412.7217748449274,704.1000000000005 M 69.32177484492738,259.6000000000004 C 80.92177484492737,238.30000000000038 105.42177484492737,222.80000000000038 98.8217748449274,193.0000000000004 C 74.72177484492738,208.4000000000004 66.82177484492738,231.5000000000004 69.32177484492738,259.6000000000004"/>
</svg>
