<?xml version="1.0" ?>
<svg xmlns="http://www.w3.org/2000/svg" xmlns:ev="http://www.w3.org/2001/xml-events" xmlns:xlink="http://www.w3.org/1999/xlink" baseProfile="full" height="753" id="Layer_1" style="enable-background:new 0 0 1000 800;" transform="scale(0.13831258644536654 0.13831258644536654) translate(-361.5 -376.5)" version="1.1" viewBox="0 0 723 753" width="723" x="0px" xml:space="preserve" y="0px">
	<defs/>
	<path d="M 221.9195220564682,536.8270158172292 C 220.11952205646818,557.0270158172292 218.31952205646817,577.1270158172291 216.4195220564682,598.9270158172292 C 201.11952205646818,577.9270158172292 206.11952205646818,555.3270158172292 205.9195220564682,533.1270158172292 C 204.61952205646818,538.5270158172292 203.01952205646822,543.9270158172292 202.01952205646822,549.3270158172293 C 200.9195220564682,555.2270158172292 200.01952205646822,561.3270158172293 199.51952205646822,567.3270158172293 C 198.9195220564682,573.1270158172292 198.81952205646823,579.0270158172293 197.31952205646823,585.4270158172293 C 196.01952205646822,582.0270158172293 194.41952205646825,578.7270158172292 193.41952205646825,575.1270158172293 C 189.71952205646826,562.2270158172294 191.31952205646823,549.2270158172294 192.71952205646826,536.2270158172294 C 193.61952205646824,528.3270158172294 194.51952205646828,520.5270158172293 194.91952205646825,512.5270158172293 C 190.11952205646824,520.0270158172293 188.71952205646826,528.5270158172293 187.61952205646824,537.1270158172293 C 185.51952205646822,553.2270158172294 187.71952205646826,568.7270158172294 192.51952205646822,584.1270158172293 C 194.61952205646824,590.8270158172294 195.31952205646823,598.0270158172293 195.7195220564682,605.3270158172294 C 177.31952205646823,582.5270158172294 178.9195220564682,553.5270158172294 170.81952205646823,527.3270158172294 C 169.51952205646822,534.7270158172294 168.2195220564682,542.0270158172294 166.51952205646822,551.1270158172293 C 164.9195220564682,546.7270158172294 163.81952205646823,543.7270158172294 162.7195220564682,540.6270158172293 C 162.11952205646818,540.7270158172294 161.51952205646822,540.9270158172293 160.9195220564682,541.0270158172293 C 159.61952205646818,566.0270158172293 157.4195220564682,591.1270158172293 172.01952205646822,614.6270158172293 C 170.01952205646822,612.4270158172293 167.9195220564682,610.3270158172294 166.01952205646822,608.1270158172293 C 163.9195220564682,605.7270158172294 161.9195220564682,603.2270158172294 159.9195220564682,600.8270158172294 C 159.4195220564682,601.0270158172294 158.9195220564682,601.2270158172294 158.51952205646822,601.4270158172294 C 163.11952205646824,614.4270158172294 167.7195220564682,627.4270158172294 172.31952205646823,640.4270158172294 C 171.91952205646825,640.8270158172294 171.51952205646822,641.1270158172294 171.11952205646824,641.5270158172294 C 167.91952205646825,638.3270158172294 164.11952205646824,635.6270158172294 161.71952205646826,631.9270158172294 C 158.21952205646826,626.4270158172294 155.91952205646825,620.0270158172294 152.61952205646824,614.3270158172294 C 148.11952205646824,606.5270158172294 143.71952205646826,598.5270158172294 138.11952205646824,591.4270158172294 C 130.61952205646824,581.9270158172294 123.81952205646823,572.4270158172294 121.31952205646823,560.3270158172294 C 119.81952205646823,553.1270158172293 117.81952205646823,546.0270158172294 116.21952205646824,538.8270158172294 C 113.11952205646824,524.5270158172294 116.01952205646825,511.0270158172294 122.21952205646826,498.12701581722933 C 122.71952205646826,497.0270158172293 123.41952205646825,495.9270158172293 124.01952205646828,494.8270158172294 C 123.6195220564683,494.5270158172294 123.21952205646826,494.3270158172294 122.81952205646829,494.0270158172294 C 120.21952205646826,497.9270158172294 116.41952205646828,501.5270158172294 115.21952205646829,505.8270158172294 C 110.41952205646828,522.6270158172293 104.31952205646829,539.6270158172293 112.71952205646829,557.1270158172293 C 116.71952205646829,565.4270158172293 121.21952205646826,573.6270158172293 124.91952205646831,582.1270158172293 C 128.51952205646833,590.2270158172294 131.6195220564683,598.5270158172293 134.3195220564683,606.9270158172293 C 135.51952205646828,610.6270158172293 135.21952205646826,614.7270158172292 134.51952205646828,619.1270158172293 C 132.41952205646825,616.0270158172293 130.21952205646826,612.9270158172293 128.1195220564683,609.8270158172294 C 131.3195220564683,628.1270158172293 140.1195220564683,643.9270158172294 150.8195220564683,660.3270158172294 C 148.8195220564683,659.5270158172294 148.01952205646828,659.5270158172294 147.6195220564683,659.1270158172293 C 135.51952205646828,648.1270158172293 126.01952205646828,635.6270158172293 121.41952205646831,619.4270158172293 C 119.1195220564683,611.2270158172292 115.0195220564683,603.4270158172293 111.41952205646831,595.6270158172293 C 108.1195220564683,588.4270158172293 104.31952205646832,581.5270158172293 100.81952205646832,574.4270158172293 C 99.91952205646831,572.5270158172293 99.41952205646831,570.3270158172293 98.21952205646832,568.8270158172293 C 91.81952205646832,560.8270158172293 91.81952205646832,551.9270158172293 93.71952205646832,542.4270158172293 C 95.81952205646832,532.2270158172292 96.61952205646833,521.8270158172293 99.11952205646833,511.72701581722924 C 101.01952205646833,504.32701581722927 104.81952205646832,497.4270158172293 107.61952205646833,490.22701581722924 C 108.21952205646832,488.72701581722924 108.31952205646832,486.82701581722927 108.01952205646833,485.22701581722924 C 107.51952205646833,482.1270158172292 106.61952205646833,479.02701581722926 105.61952205646833,475.02701581722926 C 102.91952205646834,479.32701581722927 100.61952205646833,483.02701581722926 97.81952205646832,487.6270158172293 C 97.21952205646832,484.82701581722927 96.91952205646831,483.32701581722927 96.61952205646833,481.7270158172293 C 96.21952205646832,481.6270158172293 95.81952205646832,481.6270158172293 95.41952205646834,481.5270158172293 C 91.51952205646833,497.22701581722936 87.61952205646833,512.9270158172293 83.71952205646835,528.7270158172294 C 83.11952205646836,528.6270158172293 82.41952205646834,528.5270158172293 81.81952205646834,528.4270158172294 C 81.21952205646835,525.5270158172294 80.71952205646835,522.6270158172294 80.11952205646836,519.7270158172294 C 79.61952205646836,519.7270158172294 79.11952205646836,519.7270158172294 78.51952205646836,519.6270158172293 C 77.81952205646837,537.8270158172294 77.21952205646835,556.0270158172293 76.51952205646836,574.2270158172294 C 75.91952205646837,574.3270158172294 75.31952205646837,574.5270158172293 74.71952205646835,574.6270158172293 C 73.21952205646835,570.3270158172294 71.31952205646834,566.1270158172293 70.41952205646834,561.7270158172294 C 68.31952205646834,551.3270158172294 65.81952205646834,540.9270158172294 65.21952205646835,530.4270158172294 C 64.01952205646836,511.72701581722936 67.01952205646836,493.8270158172294 81.51952205646836,479.9270158172294 C 83.51952205646836,478.0270158172294 85.11952205646836,475.5270158172294 86.61952205646836,473.1270158172294 C 91.91952205646837,464.8270158172294 97.21952205646835,456.6270158172294 102.11952205646836,448.2270158172294 C 103.51952205646836,445.7270158172294 104.11952205646836,442.5270158172294 104.31952205646834,439.6270158172294 C 104.91952205646834,429.2270158172294 109.11952205646836,420.3270158172294 115.01952205646833,411.9270158172294 C 115.41952205646834,411.3270158172294 115.71952205646832,410.6270158172294 116.01952205646833,409.9270158172294 C 116.01952205646833,409.8270158172294 115.91952205646834,409.6270158172294 115.31952205646834,408.6270158172294 C 110.41952205646834,415.02701581722937 102.91952205646834,419.1270158172294 101.91952205646834,427.1270158172294 C 99.91952205646834,428.4270158172294 97.71952205646835,429.02701581722937 96.91952205646834,430.4270158172294 C 92.61952205646833,438.1270158172294 88.61952205646833,446.1270158172294 84.61952205646833,453.9270158172294 C 78.41952205646834,466.0270158172294 72.31952205646832,478.1270158172294 66.11952205646833,490.12701581722945 C 64.31952205646832,493.62701581722945 62.21952205646832,496.9270158172294 60.319522056468315,500.4270158172294 C 59.819522056468315,500.22701581722936 59.21952205646832,500.12701581722945 58.71952205646832,499.9270158172294 C 63.51952205646833,483.1270158172294 68.01952205646833,466.3270158172294 73.31952205646832,449.7270158172294 C 75.71952205646832,442.2270158172294 80.61952205646833,435.6270158172294 82.91952205646831,428.1270158172294 C 84.0195220564683,424.3270158172294 81.6195220564683,419.52701581722937 80.81952205646832,415.2270158172294 C 80.21952205646832,415.2270158172294 79.61952205646833,415.2270158172294 78.91952205646831,415.2270158172294 C 77.1195220564683,418.5270158172294 75.21952205646832,421.9270158172294 73.41952205646831,425.2270158172294 C 73.0195220564683,425.1270158172294 72.6195220564683,425.0270158172294 72.1195220564683,425.0270158172294 C 73.0195220564683,421.0270158172294 73.5195220564683,416.9270158172294 74.81952205646829,413.12701581722945 C 76.31952205646829,408.92701581722946 75.71952205646829,405.22701581722947 74.01952205646828,401.22701581722947 C 60.91952205646828,369.42701581722946 50.81952205646829,336.8270158172295 48.219522056468264,302.22701581722947 C 46.019522056468276,272.3270158172295 48.219522056468264,243.02701581722948 62.719522056468264,216.1270158172295 C 67.21952205646826,207.72701581722947 73.81952205646826,200.42701581722952 79.31952205646826,192.52701581722948 C 81.91952205646825,188.72701581722947 84.51952205646825,184.92701581722952 86.51952205646825,180.8270158172295 C 88.81952205646826,176.1270158172295 92.91952205646825,170.52701581722948 91.91952205646825,166.22701581722953 C 90.21952205646826,158.92701581722952 95.41952205646825,155.72701581722953 97.41952205646825,150.72701581722953 C 97.71952205646826,149.92701581722952 98.21952205646826,149.1270158172295 98.81952205646826,148.02701581722954 C 96.51952205646825,148.02701581722954 94.71952205646826,148.02701581722954 92.91952205646825,148.02701581722954 C 92.51952205646825,147.6270158172295 92.21952205646826,147.32701581722955 91.81952205646826,146.92701581722952 C 96.21952205646826,142.92701581722952 100.31952205646826,138.42701581722952 105.01952205646825,134.82701581722955 C 131.41952205646825,114.72701581722954 161.41952205646825,111.12701581722955 193.41952205646825,115.12701581722955 C 212.31952205646823,117.52701581722955 228.41952205646825,125.72701581722954 243.21952205646826,136.82701581722955 C 250.01952205646828,141.92701581722952 254.71952205646826,148.82701581722955 256.31952205646826,157.72701581722953 C 256.31952205646826,153.22701581722953 256.31952205646826,148.62701581722956 256.31952205646826,144.12701581722956 C 256.71952205646824,143.52701581722954 257.21952205646824,142.92701581722957 257.6195220564683,142.42701581722957 C 264.4195220564683,149.32701581722955 271.21952205646835,156.22701581722959 276.6195220564683,161.62701581722956 C 272.31952205646826,151.02701581722954 261.9195220564683,142.12701581722956 253.01952205646828,131.72701581722953 C 254.71952205646826,129.92701581722952 256.21952205646824,128.22701581722953 258.4195220564683,125.82701581722954 C 247.71952205646826,125.82701581722954 242.81952205646823,118.02701581722953 236.81952205646823,111.92701581722953 C 222.01952205646822,96.92701581722953 202.91952205646825,89.62701581722953 184.01952205646822,81.92701581722953 C 181.7195220564682,81.02701581722953 179.31952205646823,80.52701581722953 177.11952205646824,79.52701581722953 C 175.91952205646825,78.92701581722953 175.01952205646822,77.72701581722953 173.71952205646826,76.52701581722953 C 160.61952205646824,79.22701581722953 146.61952205646824,82.02701581722953 132.3195220564683,84.92701581722953 C 132.3195220564683,83.82701581722954 132.3195220564683,82.32701581722954 132.3195220564683,80.82701581722954 C 125.6195220564683,97.12701581722953 108.71952205646829,101.62701581722953 97.21952205646829,114.42701581722953 C 96.81952205646829,110.62701581722952 96.6195220564683,108.82701581722954 96.31952205646829,106.52701581722953 C 88.21952205646829,115.32701581722954 87.21952205646829,128.82701581722955 75.51952205646828,135.32701581722955 C 76.01952205646828,131.92701581722952 76.31952205646829,129.12701581722956 76.91952205646828,124.82701581722954 C 62.519522056468276,142.32701581722955 60.91952205646828,163.22701581722953 54.31952205646829,182.6270158172295 C 52.71952205646829,175.52701581722954 51.1195220564683,168.42701581722952 49.1195220564683,159.6270158172295 C 38.019522056468304,187.52701581722954 32.519522056468304,215.8270158172295 22.019522056468304,242.92701581722952 C 21.219522056468293,239.6270158172295 20.41952205646831,236.3270158172295 19.719522056468293,233.1270158172295 C 19.219522056468293,233.22701581722953 18.719522056468293,233.22701581722953 18.219522056468293,233.3270158172295 C 18.819522056468287,238.8270158172295 18.819522056468287,244.52701581722948 20.1195220564683,249.92701581722952 C 26.019522056468304,274.6270158172295 30.219522056468293,299.6270158172295 31.6195220564683,324.9270158172295 C 31.719522056468293,326.8270158172295 31.91952205646831,328.6270158172295 31.1195220564683,330.9270158172295 C 29.91952205646831,328.52701581722954 28.519522056468304,326.2270158172295 27.41952205646831,323.7270158172295 C 17.6195220564683,302.6270158172295 6.519522056468304,282.1270158172295 2.1195220564682984,258.9270158172295 C -2.680477943531713,233.52701581722954 0.9195220564683098,209.32701581722955 10.41952205646831,185.52701581722954 C 16.819522056468315,169.72701581722953 24.21952205646832,154.52701581722954 34.41952205646831,140.72701581722953 C 35.6195220564683,139.02701581722954 37.019522056468304,137.52701581722954 38.819522056468315,135.32701581722955 C 35.61952205646833,135.32701581722955 32.819522056468315,135.32701581722955 28.91952205646831,135.32701581722955 C 38.6195220564683,128.22701581722953 47.41952205646831,121.82701581722954 56.21952205646832,115.52701581722953 C 55.819522056468315,114.92701581722953 55.51952205646833,114.32701581722954 55.11952205646833,113.72701581722951 C 51.91952205646834,114.62701581722952 48.71952205646832,115.62701581722952 45.51952205646833,116.52701581722953 C 45.319522056468344,116.22701581722951 45.01952205646833,116.02701581722953 44.819522056468344,115.72701581722951 C 54.91952205646834,106.9270158172295 65.01952205646833,98.22701581722951 75.51952205646833,89.02701581722951 C 73.51952205646833,88.72701581722951 71.91952205646834,88.52701581722951 68.61952205646833,88.1270158172295 C 79.91952205646834,78.52701581722951 89.91952205646834,69.5270158172295 105.51952205646833,67.82701581722951 C 103.21952205646832,66.9270158172295 101.91952205646834,66.4270158172295 99.21952205646832,65.32701581722951 C 108.51952205646833,61.82701581722951 116.71952205646832,58.82701581722951 123.6195220564683,56.227015817229514 C 125.01952205646828,54.02701581722951 125.6195220564683,51.727015817229514 126.6195220564683,51.52701581722951 C 132.01952205646828,50.42701581722952 137.6195220564683,49.32701581722951 143.1195220564683,49.32701581722951 C 148.3195220564683,49.32701581722951 153.51952205646828,50.727015817229514 159.1195220564683,51.627015817229506 C 158.8195220564683,49.4270158172295 158.6195220564683,48.02701581722951 158.3195220564683,46.127015817229506 C 169.01952205646828,44.82701581722951 177.01952205646828,50.4270158172295 186.51952205646828,56.7270158172295 C 185.01952205646828,53.7270158172295 184.3195220564683,52.127015817229506 183.21952205646826,50.0270158172295 C 191.41952205646825,49.0270158172295 198.91952205646825,51.0270158172295 205.11952205646824,55.5270158172295 C 211.21952205646826,59.9270158172295 216.41952205646825,65.62701581722949 223.21952205646826,71.8270158172295 C 221.61952205646824,67.2270158172295 220.61952205646824,64.12701581722949 219.51952205646828,61.0270158172295 C 228.3195220564683,67.7270158172295 240.71952205646826,69.9270158172295 243.8195220564683,83.9270158172295 C 245.1195220564683,81.1270158172295 245.8195220564683,79.82701581722951 246.71952205646826,77.9270158172295 C 248.11952205646824,79.5270158172295 249.21952205646826,80.7270158172295 250.21952205646826,81.9270158172295 C 259.9195220564683,93.0270158172295 269.0195220564683,104.72701581722951 279.31952205646826,115.12701581722952 C 301.71952205646824,137.72701581722953 315.9195220564683,165.02701581722954 326.6195220564683,194.3270158172295 C 335.71952205646835,219.3270158172295 338.71952205646835,245.42701581722952 338.5195220564683,271.8270158172295 C 338.5195220564683,274.4270158172295 338.5195220564683,277.1270158172295 338.5195220564683,280.3270158172295 C 340.0195220564683,279.72701581722947 341.0195220564683,279.4270158172295 341.81952205646826,278.9270158172295 C 346.21952205646824,276.3270158172295 348.5195220564683,278.1270158172295 349.6195220564683,282.52701581722954 C 353.0195220564683,295.12701581722956 352.6195220564683,307.62701581722956 348.5195220564683,320.02701581722954 C 348.21952205646824,320.9270158172295 347.9195220564683,321.7270158172295 347.4195220564683,323.2270158172295 C 353.71952205646824,322.2270158172295 359.6195220564682,321.2270158172295 365.5195220564683,320.2270158172295 C 365.6195220564683,320.52701581722954 365.71952205646824,320.7270158172295 365.81952205646826,321.02701581722954 C 361.6195220564683,324.12701581722956 357.4195220564683,327.12701581722956 353.31952205646826,330.2270158172295 C 353.5195220564683,330.82701581722955 353.6195220564683,331.52701581722954 353.81952205646826,332.1270158172295 C 358.6195220564683,331.4270158172295 363.81952205646826,331.8270158172295 368.0195220564683,329.8270158172295 C 389.31952205646826,319.6270158172295 410.31952205646826,308.9270158172295 431.4195220564683,298.3270158172295 C 448.31952205646826,289.8270158172295 458.0195220564683,276.9270158172295 458.71952205646824,257.22701581722947 C 459.5195220564682,235.72701581722947 469.0195220564682,217.1270158172295 479.81952205646826,199.22701581722947 C 495.4195220564683,173.3270158172295 514.3195220564683,150.3270158172295 540.3195220564683,134.1270158172295 C 545.9195220564683,130.6270158172295 551.9195220564683,127.5270158172295 558.0195220564683,125.12701581722949 C 573.9195220564683,118.9270158172295 589.5195220564683,112.22701581722949 603.4195220564683,101.0270158172295 C 602.2195220564682,100.2270158172295 601.0195220564683,99.2270158172295 599.7195220564682,98.4270158172295 C 579.2195220564682,86.4270158172295 573.0195220564682,68.0270158172295 576.2195220564682,45.627015817229506 C 577.2195220564682,38.32701581722951 579.3195220564683,31.227015817229507 581.3195220564683,24.127015817229506 C 582.1195220564682,21.32701581722951 583.4195220564683,18.127015817229506 585.5195220564683,16.32701581722951 C 587.7195220564683,14.42701581722951 591.2195220564683,12.92701581722951 593.9195220564683,13.227015817229507 C 595.7195220564682,13.42701581722951 597.8195220564683,16.92701581722951 598.6195220564683,19.227015817229507 C 600.3195220564684,24.42701581722951 600.6195220564683,30.127015817229506 602.7195220564683,35.02701581722951 C 603.9195220564684,37.82701581722951 607.5195220564683,41.32701581722951 610.1195220564683,41.42701581722952 C 612.7195220564683,41.52701581722951 616.7195220564683,38.227015817229514 617.9195220564683,35.42701581722952 C 620.4195220564683,29.427015817229517 621.6195220564683,22.827015817229515 623.3195220564683,16.427015817229517 C 624.2195220564682,12.927015817229517 624.9195220564683,9.427015817229517 626.1195220564682,6.027015817229518 C 627.4195220564682,2.427015817229517 629.6195220564682,-0.672984182770481 634.0195220564682,0.1270158172295197 C 638.1195220564682,0.827015817229519 638.7195220564682,4.42701581722952 639.2195220564682,7.92701581722952 C 640.3195220564683,16.927015817229517 641.4195220564683,25.927015817229517 643.0195220564682,34.82701581722952 C 643.6195220564682,38.22701581722952 645.3195220564681,41.62701581722952 647.1195220564682,44.72701581722953 C 652.0195220564682,53.32701581722952 657.0195220564682,53.72701581722953 663.2195220564682,46.127015817229534 C 667.1195220564682,41.32701581722954 670.1195220564682,35.627015817229534 674.5195220564682,31.227015817229535 C 677.9195220564682,27.827015817229537 682.4195220564682,24.827015817229537 687.0195220564682,23.427015817229538 C 692.5195220564682,21.727015817229535 696.2195220564682,25.427015817229538 694.7195220564682,31.02701581722954 C 693.1195220564682,37.12701581722954 689.8195220564683,42.72701581722954 687.3195220564683,48.52701581722954 C 684.9195220564683,54.22701581722954 682.0195220564683,59.82701581722954 680.6195220564682,65.72701581722954 C 679.3195220564683,71.22701581722954 682.4195220564682,73.52701581722954 687.9195220564682,72.12701581722955 C 693.6195220564682,70.62701581722955 699.1195220564682,68.62701581722955 704.7195220564681,66.82701581722955 C 708.5195220564681,65.62701581722955 712.5195220564681,65.82701581722955 714.1195220564681,69.52701581722955 C 715.3195220564681,72.22701581722956 715.5195220564681,76.62701581722955 714.0195220564681,78.92701581722956 C 711.2195220564681,83.22701581722956 706.919522056468,86.52701581722955 703.2195220564681,90.32701581722957 C 701.5195220564681,91.92701581722956 699.8195220564681,93.52701581722957 698.1195220564681,95.12701581722956 C 698.3195220564681,95.62701581722956 698.5195220564681,96.12701581722956 698.7195220564681,96.72701581722956 C 700.7195220564681,96.52701581722955 702.8195220564681,96.62701581722956 704.8195220564681,96.12701581722956 C 708.6195220564681,95.12701581722956 712.3195220564681,93.52701581722957 716.2195220564681,92.62701581722956 C 720.5195220564681,91.62701581722956 723.4195220564682,94.12701581722956 722.1195220564681,98.12701581722956 C 720.7195220564681,102.42701581722956 718.6195220564681,107.42701581722956 715.2195220564681,109.92701581722956 C 706.5195220564681,116.32701581722957 702.0195220564681,124.22701581722957 702.1195220564681,134.82701581722955 C 702.1195220564681,135.92701581722957 701.919522056468,137.12701581722956 701.7195220564681,138.22701581722959 C 700.3195220564681,145.12701581722956 697.9195220564682,147.12701581722956 691.1195220564681,147.32701581722955 C 690.3195220564681,157.32701581722955 689.5195220564681,158.32701581722955 680.6195220564681,160.62701581722956 C 686.419522056468,167.12701581722956 689.7195220564681,174.42701581722957 687.6195220564681,183.72701581722959 C 678.5195220564681,178.72701581722959 669.8195220564681,174.0270158172296 660.5195220564681,168.92701581722957 C 657.919522056468,175.02701581722954 657.819522056468,181.72701581722959 659.319522056468,187.92701581722957 C 661.5195220564681,197.42701581722957 664.719522056468,206.72701581722959 667.719522056468,216.02701581722954 C 669.019522056468,220.12701581722956 671.119522056468,224.02701581722954 672.419522056468,228.22701581722953 C 677.919522056468,246.1270158172295 668.919522056468,258.4270158172295 650.6195220564681,258.32701581722955 C 656.2195220564681,274.52701581722954 661.919522056468,290.7270158172295 667.6195220564681,307.02701581722954 C 667.1195220564681,307.2270158172295 666.7195220564681,307.52701581722954 666.2195220564681,307.7270158172295 C 665.5195220564681,307.2270158172295 664.8195220564681,306.82701581722955 664.2195220564681,306.4270158172295 C 667.3195220564681,319.2270158172295 670.4195220564682,332.2270158172295 673.6195220564681,345.1270158172295 C 673.1195220564681,345.3270158172295 672.5195220564681,345.4270158172295 672.0195220564681,345.6270158172295 C 670.0195220564681,341.8270158172295 667.919522056468,338.0270158172295 665.919522056468,334.1270158172295 C 666.0195220564681,344.6270158172295 667.819522056468,354.7270158172295 662.6195220564681,365.1270158172295 C 662.2195220564681,362.8270158172295 661.919522056468,361.3270158172295 661.8195220564681,360.4270158172295 C 655.0195220564682,406.7270158172295 625.8195220564681,439.4270158172295 592.2195220564681,469.6270158172295 C 593.2195220564681,466.2270158172295 594.1195220564681,462.7270158172295 595.1195220564681,459.3270158172295 C 594.8195220564681,459.0270158172295 594.419522056468,458.8270158172295 594.1195220564681,458.5270158172295 C 583.5195220564681,471.1270158172295 572.919522056468,483.72701581722947 562.7195220564681,495.8270158172295 C 562.9195220564682,494.62701581722945 563.1195220564681,492.62701581722945 563.4195220564682,490.62701581722945 C 559.4195220564682,494.22701581722947 555.5195220564682,497.8270158172295 551.6195220564682,501.5270158172294 C 546.4195220564682,506.4270158172294 541.2195220564682,511.4270158172294 536.0195220564682,516.4270158172294 C 527.8195220564681,524.2270158172294 517.4195220564682,526.9270158172294 506.81952205646814,529.2270158172294 C 488.6195220564681,533.0270158172293 477.81952205646814,544.3270158172294 474.81952205646814,562.4270158172294 C 473.31952205646814,571.8270158172294 473.31952205646814,581.6270158172294 473.31952205646814,591.2270158172294 C 473.31952205646814,598.3270158172294 474.5195220564682,605.4270158172294 474.0195220564682,613.1270158172293 C 471.5195220564682,610.0270158172293 469.0195220564682,606.9270158172293 465.81952205646814,603.0270158172293 C 466.1195220564681,605.3270158172293 465.91952205646817,607.1270158172293 466.5195220564682,608.5270158172293 C 475.5195220564682,629.5270158172293 483.6195220564682,651.0270158172293 498.0195220564682,669.3270158172293 C 507.0195220564682,680.7270158172292 515.2195220564682,693.2270158172292 529.1195220564682,699.3270158172293 C 544.7195220564682,706.2270158172292 561.0195220564682,707.8270158172293 577.9195220564682,704.7270158172292 C 584.3195220564681,703.5270158172292 591.1195220564682,702.6270158172292 597.4195220564682,703.5270158172292 C 609.2195220564681,705.2270158172292 614.5195220564682,713.2270158172292 613.3195220564681,725.9270158172292 C 610.9195220564682,722.2270158172291 609.1195220564681,718.6270158172292 606.5195220564682,715.6270158172292 C 602.9195220564682,711.4270158172292 600.1195220564682,711.8270158172293 596.6195220564682,716.2270158172292 C 593.0195220564682,720.7270158172292 588.0195220564682,720.1270158172292 583.1195220564682,719.6270158172292 C 570.3195220564683,718.3270158172293 557.6195220564682,716.9270158172292 544.3195220564683,716.1270158172292 C 553.5195220564683,723.6270158172292 558.4195220564683,732.7270158172292 556.3195220564683,746.2270158172292 C 555.5195220564683,743.4270158172293 555.1195220564682,741.9270158172293 554.7195220564682,740.5270158172292 C 552.8195220564683,734.5270158172292 548.7195220564682,732.1270158172292 542.6195220564682,732.2270158172292 C 539.7195220564682,732.3270158172293 536.4195220564682,731.7270158172292 533.9195220564682,730.4270158172293 C 524.4195220564682,725.4270158172293 515.0195220564682,720.0270158172293 505.81952205646814,714.5270158172293 C 503.41952205646817,713.1270158172293 501.6195220564681,710.8270158172293 499.41952205646817,708.7270158172294 C 491.7195220564681,719.1270158172293 481.1195220564682,724.9270158172294 468.7195220564681,727.4270158172294 C 463.0195220564681,728.6270158172294 457.5195220564681,728.2270158172294 452.5195220564681,724.5270158172294 C 451.31952205646803,723.6270158172294 448.6195220564681,723.7270158172295 447.1195220564681,724.4270158172294 C 442.81952205646814,726.4270158172294 438.81952205646814,728.9270158172294 434.7195220564681,731.2270158172294 C 435.5195220564681,721.6270158172293 446.6195220564681,713.3270158172294 458.7195220564681,713.5270158172293 C 464.91952205646817,713.6270158172293 471.2195220564681,714.6270158172293 476.81952205646814,710.7270158172294 C 495.2195220564681,697.8270158172294 495.1195220564681,693.4270158172294 483.1195220564681,675.4270158172294 C 478.1195220564681,667.9270158172294 471.6195220564681,668.7270158172294 467.2195220564681,676.7270158172294 C 464.5195220564681,681.6270158172293 462.2195220564681,686.7270158172294 459.41952205646817,692.3270158172294 C 455.31952205646814,684.2270158172294 456.0195220564682,673.9270158172294 463.2195220564681,666.3270158172294 C 470.5195220564681,658.6270158172293 468.81952205646814,652.8270158172294 464.1195220564681,644.9270158172294 C 459.31952205646814,636.9270158172294 456.1195220564681,627.8270158172294 452.31952205646814,619.2270158172294 C 451.41952205646817,617.2270158172294 450.6195220564681,615.1270158172293 448.7195220564681,613.1270158172293 C 448.0195220564681,616.9270158172293 447.41952205646817,620.7270158172294 446.41952205646817,625.8270158172294 C 443.2195220564681,621.4270158172294 440.5195220564682,617.7270158172294 437.41952205646817,613.4270158172294 C 437.1195220564682,616.6270158172294 436.91952205646817,619.5270158172294 436.5195220564682,623.8270158172294 C 433.81952205646814,619.1270158172293 431.71952205646824,615.5270158172294 429.21952205646824,611.1270158172293 C 427.81952205646826,613.7270158172294 426.5195220564682,616.1270158172293 425.1195220564682,618.5270158172293 C 424.71952205646824,618.5270158172293 424.21952205646824,618.5270158172293 423.81952205646826,618.6270158172293 C 422.81952205646826,612.6270158172293 421.81952205646826,606.6270158172293 420.6195220564682,599.3270158172294 C 418.41952205646817,602.8270158172294 416.5195220564682,605.7270158172294 413.91952205646817,609.8270158172294 C 413.91952205646817,602.5270158172294 413.91952205646817,596.4270158172294 413.91952205646817,590.3270158172294 C 413.41952205646817,590.1270158172293 412.91952205646817,590.0270158172294 412.5195220564682,589.8270158172294 C 410.81952205646814,592.2270158172294 409.21952205646824,594.6270158172293 406.91952205646817,597.9270158172294 C 406.91952205646817,591.3270158172294 406.91952205646817,585.6270158172294 406.91952205646817,579.9270158172294 C 406.41952205646817,579.7270158172294 406.0195220564682,579.4270158172294 405.5195220564682,579.2270158172294 C 403.0195220564682,582.2270158172294 400.41952205646817,585.2270158172294 397.91952205646817,588.1270158172293 C 397.6195220564682,588.0270158172293 397.31952205646814,588.0270158172293 397.0195220564682,587.9270158172293 C 399.81952205646814,577.8270158172293 402.6195220564682,567.7270158172292 405.5195220564682,557.3270158172293 C 391.1195220564682,551.4270158172293 377.6195220564682,554.1270158172292 365.0195220564682,562.1270158172292 C 345.6195220564682,574.4270158172292 332.91952205646817,592.2270158172292 324.81952205646826,613.5270158172292 C 324.31952205646826,614.9270158172292 323.9195220564683,616.3270158172292 322.6195220564682,617.6270158172292 C 322.6195220564682,613.6270158172292 322.6195220564682,609.6270158172292 322.6195220564682,605.6270158172292 C 322.0195220564682,605.4270158172292 321.4195220564683,605.2270158172292 320.81952205646826,605.0270158172292 C 319.21952205646824,609.3270158172292 316.4195220564683,613.6270158172292 316.21952205646824,618.0270158172292 C 315.71952205646824,631.4270158172292 316.21952205646824,644.9270158172292 316.21952205646824,658.3270158172292 C 316.21952205646824,663.1270158172291 318.5195220564682,665.9270158172292 322.41952205646817,668.1270158172291 C 331.0195220564682,672.9270158172291 333.6195220564682,680.6270158172291 332.41952205646817,691.8270158172292 C 327.81952205646814,685.9270158172292 324.0195220564682,681.1270158172291 320.1195220564682,676.0270158172292 C 319.0195220564682,691.9270158172292 336.5195220564682,710.9270158172292 352.21952205646824,711.2270158172292 C 356.21952205646824,711.3270158172293 360.1195220564682,711.0270158172292 364.1195220564682,710.8270158172293 C 370.31952205646814,710.5270158172293 375.5195220564682,711.7270158172292 377.0195220564682,718.7270158172292 C 390.5195220564682,717.4270158172293 396.41952205646817,721.2270158172292 395.91952205646817,731.4270158172293 C 390.81952205646814,724.2270158172292 384.2195220564681,725.3270158172293 376.91952205646817,726.2270158172292 C 369.0195220564682,727.1270158172292 360.71952205646824,726.4270158172293 352.71952205646824,725.5270158172292 C 346.81952205646826,724.8270158172292 341.0195220564682,722.3270158172292 335.1195220564682,721.0270158172292 C 327.1195220564682,719.3270158172292 321.5195220564682,714.7270158172292 317.1195220564682,707.7270158172292 C 316.71952205646824,713.2270158172292 316.5195220564682,718.8270158172293 315.71952205646824,724.2270158172292 C 314.81952205646826,730.6270158172292 314.41952205646817,737.1270158172292 307.6195220564682,741.3270158172293 C 304.71952205646824,743.1270158172292 304.0195220564682,748.5270158172293 302.21952205646824,752.6270158172292 C 298.0195220564682,750.0270158172292 297.41952205646817,746.2270158172292 297.41952205646817,742.2270158172292 C 297.31952205646814,734.9270158172293 297.41952205646817,727.6270158172292 297.41952205646817,721.6270158172292 C 288.91952205646817,724.3270158172293 280.1195220564682,726.9270158172292 271.5195220564682,729.9270158172292 C 265.81952205646826,731.8270158172292 260.21952205646824,734.1270158172292 254.61952205646824,736.3270158172292 C 250.61952205646824,737.9270158172292 246.91952205646825,738.8270158172292 242.91952205646825,735.9270158172292 C 234.61952205646824,730.0270158172292 230.91952205646825,730.6270158172292 224.31952205646823,738.2270158172291 C 223.11952205646824,730.5270158172291 226.91952205646825,725.7270158172291 235.41952205646825,723.7270158172291 C 238.71952205646826,722.9270158172292 241.81952205646823,721.0270158172291 245.11952205646824,720.3270158172292 C 251.01952205646822,719.2270158172291 257.0195220564682,718.1270158172291 263.0195220564682,718.0270158172292 C 284.31952205646826,717.5270158172292 295.91952205646817,708.3270158172292 301.21952205646824,687.9270158172292 C 304.91952205646817,673.5270158172292 304.81952205646826,659.1270158172292 303.31952205646826,644.5270158172292 C 302.31952205646826,635.1270158172292 302.21952205646824,625.7270158172292 301.71952205646824,616.1270158172292 C 301.1195220564682,617.0270158172292 300.41952205646817,617.9270158172292 299.0195220564682,620.0270158172292 C 298.81952205646826,615.7270158172292 298.6195220564682,612.3270158172292 298.31952205646826,607.2270158172292 C 295.81952205646826,613.3270158172293 294.0195220564682,617.8270158172293 292.1195220564682,622.3270158172293 C 291.6195220564682,622.3270158172293 291.0195220564682,622.2270158172292 290.5195220564682,622.2270158172292 C 289.5195220564682,618.3270158172293 288.6195220564682,614.4270158172293 287.31952205646826,609.3270158172293 C 285.9195220564683,615.0270158172293 284.81952205646826,619.8270158172293 283.71952205646824,624.6270158172292 C 283.21952205646824,624.6270158172292 282.81952205646826,624.7270158172292 282.31952205646826,624.7270158172292 C 281.71952205646824,616.9270158172293 281.0195220564682,609.1270158172292 280.4195220564683,601.3270158172293 C 280.1195220564682,601.2270158172292 279.9195220564683,601.0270158172293 279.6195220564682,600.9270158172293 C 277.9195220564683,605.7270158172292 276.1195220564682,610.4270158172293 274.4195220564683,615.2270158172292 C 274.0195220564683,615.2270158172292 273.5195220564683,615.2270158172292 273.1195220564682,615.2270158172292 C 273.5195220564682,607.1270158172292 273.81952205646826,599.0270158172292 274.21952205646824,590.2270158172292 C 273.31952205646826,592.9270158172293 272.5195220564683,595.0270158172292 271.31952205646826,598.5270158172292 C 268.71952205646824,585.7270158172292 273.6195220564683,575.4270158172292 275.0195220564683,564.3270158172292 C 273.6195220564683,566.7270158172291 272.21952205646824,569.0270158172292 270.71952205646824,571.4270158172292 C 269.9195220564683,563.1270158172292 272.5195220564683,555.8270158172292 277.81952205646826,547.6270158172292 C 268.0195220564683,546.6270158172292 259.21952205646824,545.6270158172292 250.21952205646826,544.7270158172292 C 247.91952205646825,554.5270158172292 245.71952205646826,563.7270158172292 236.8195220564683,569.4270158172293 C 238.71952205646826,560.6270158172293 240.51952205646828,552.2270158172292 242.4195220564683,543.5270158172293 C 238.01952205646833,542.2270158172294 234.6195220564683,541.1270158172293 230.9195220564683,540.0270158172293 C 230.6195220564683,546.4270158172293 230.3195220564683,552.2270158172294 230.1195220564683,557.9270158172293 C 229.6195220564683,558.0270158172293 229.1195220564683,558.1270158172293 228.6195220564683,558.2270158172292 C 227.4195220564683,554.6270158172292 226.1195220564683,551.1270158172292 225.21952205646832,547.5270158172292 C 224.31952205646834,543.9270158172292 224.01952205646833,540.2270158172292 223.4195220564683,536.5270158172292 C 222.9195220564682,536.9270158172291 222.4195220564682,536.8270158172292 221.9195220564682,536.8270158172292 M 93.31952205646817,263.9270158172291 C 94.51952205646816,261.22701581722913 95.81952205646817,258.4270158172291 96.81952205646817,255.6270158172291 C 103.61952205646818,237.1270158172291 113.31952205646817,221.22701581722913 133.11952205646818,213.92701581722912 C 140.9195220564682,211.02701581722914 148.51952205646816,207.6270158172291 156.2195220564682,204.72701581722913 C 158.81952205646823,203.72701581722913 161.9195220564682,202.42701581722912 164.4195220564682,203.02701581722914 C 181.2195220564682,206.52701581722914 198.9195220564682,208.12701581722916 212.7195220564682,219.42701581722918 C 220.4195220564682,225.82701581722915 228.4195220564682,224.7270158172292 238.2195220564682,225.02701581722914 C 232.01952205646822,219.92701581722918 226.61952205646818,216.02701581722914 222.01952205646822,211.52701581722914 C 205.51952205646822,195.32701581722915 185.11952205646824,187.32701581722915 162.9195220564682,182.22701581722913 C 149.31952205646817,179.12701581722916 138.11952205646818,182.12701581722916 127.61952205646818,190.82701581722915 C 121.81952205646817,195.62701581722916 115.4195220564682,199.72701581722913 109.11952205646818,203.82701581722915 C 107.01952205646819,205.22701581722913 104.21952205646818,205.42701581722912 100.11952205646818,206.62701581722916 C 102.31952205646817,202.82701581722915 103.61952205646818,200.72701581722913 105.51952205646819,197.52701581722914 C 103.11952205646818,198.72701581722913 102.01952205646819,199.62701581722916 100.8195220564682,199.92701581722918 C 92.21952205646821,201.82701581722915 90.4195220564682,207.52701581722914 90.9195220564682,215.42701581722918 C 92.01952205646819,231.62701581722916 92.61952205646818,247.92701581722918 93.4195220564682,264.12701581722916 C 86.71952205646821,249.92701581722918 81.21952205646821,235.32701581722915 80.01952205646819,219.2270158172292 C 76.71952205646818,225.12701581722916 74.3195220564682,231.32701581722915 70.8195220564682,236.82701581722915 C 63.01952205646819,249.02701581722914 61.8195220564682,262.22701581722913 65.21952205646821,275.52701581722914 C 68.8195220564682,289.32701581722915 73.8195220564682,302.82701581722915 78.3195220564682,316.4270158172291 C 81.01952205646819,324.4270158172291 82.8195220564682,332.3270158172291 79.21952205646821,341.1270158172291 C 76.8195220564682,337.22701581722913 74.61952205646821,333.8270158172291 72.51952205646822,330.4270158172291 C 81.11952205646821,350.4270158172291 81.41952205646822,371.4270158172291 82.31952205646823,392.8270158172291 C 84.81952205646823,387.5270158172291 87.11952205646824,382.1270158172291 87.21952205646824,376.7270158172291 C 87.71952205646824,350.42701581722906 87.51952205646825,324.2270158172291 87.71952205646824,297.92701581722906 C 87.71952205646824,292.82701581722904 88.61952205646824,287.7270158172291 89.51952205646825,282.7270158172291 C 90.51952205646816,276.4270158172291 92.01952205646816,270.22701581722913 93.31952205646817,263.9270158172291 M 126.01952205646816,150.1270158172291 C 125.41952205646814,149.72701581722913 124.81952205646817,149.3270158172291 124.21952205646815,148.92701581722912 C 117.71952205646815,157.92701581722912 111.21952205646815,166.92701581722912 104.71952205646815,175.92701581722912 C 105.01952205646816,176.32701581722915 105.31952205646814,176.72701581722913 105.51952205646816,177.1270158172291 C 110.51952205646816,175.72701581722913 115.81952205646817,174.8270158172291 120.51952205646816,172.72701581722913 C 140.01952205646816,164.1270158172291 160.31952205646817,164.52701581722914 180.71952205646815,167.42701581722912 C 211.41952205646814,171.8270158172291 237.91952205646814,184.02701581722908 257.0195220564682,209.6270158172291 C 260.41952205646817,214.1270158172291 265.2195220564681,217.52701581722914 269.81952205646814,221.8270158172291 C 265.0195220564682,212.92701581722912 260.81952205646814,204.72701581722913 256.31952205646814,196.72701581722913 C 254.61952205646818,193.6270158172291 252.61952205646818,190.3270158172291 250.01952205646816,188.1270158172291 C 238.91952205646814,179.02701581722914 227.71952205646815,170.02701581722914 216.21952205646815,161.52701581722914 C 205.51952205646816,153.52701581722914 193.11952205646813,149.52701581722914 179.71952205646815,148.92701581722912 C 175.51952205646816,148.72701581722913 171.41952205646814,148.42701581722912 167.21952205646815,148.22701581722913 C 167.21952205646815,147.82701581722915 167.11952205646813,147.52701581722914 167.11952205646813,147.12701581722916 C 169.71952205646815,145.82701581722915 172.31952205646812,144.42701581722918 175.91952205646814,142.62701581722916 C 164.71952205646815,140.42701581722918 155.11952205646813,141.72701581722913 145.91952205646814,146.22701581722913 C 137.11952205646813,150.52701581722914 128.31952205646812,155.12701581722916 119.71952205646815,159.52701581722914 C 121.9195220564682,156.52701581722914 124.01952205646816,153.3270158172291 126.01952205646816,150.1270158172291 M 122.01952205646816,240.72701581722913 C 121.61952205646818,240.42701581722912 121.31952205646817,240.1270158172291 120.91952205646814,239.82701581722915 C 118.51952205646816,242.72701581722913 115.81952205646814,245.32701581722915 113.91952205646814,248.42701581722918 C 103.21952205646815,265.62701581722916 103.71952205646815,284.7270158172292 104.81952205646814,303.9270158172292 C 105.21952205646815,311.2270158172292 105.41952205646814,318.5270158172292 105.11952205646816,325.82701581722915 C 104.61952205646816,336.9270158172292 103.71952205646815,348.12701581722916 103.01952205646816,358.82701581722915 C 111.31952205646817,352.02701581722914 118.81952205646817,344.72701581722913 127.51952205646816,339.22701581722913 C 132.81952205646817,335.82701581722915 136.21952205646815,333.32701581722915 135.21952205646815,326.52701581722914 C 134.71952205646815,322.72701581722913 135.81952205646817,318.62701581722916 136.21952205646815,314.72701581722913 C 136.81952205646817,309.52701581722914 137.41952205646814,304.32701581722915 138.01952205646816,299.02701581722914 C 137.31952205646817,298.82701581722915 136.71952205646815,298.62701581722916 136.01952205646816,298.4270158172291 C 130.01952205646816,307.6270158172291 124.01952205646816,316.8270158172291 117.11952205646816,327.4270158172291 C 117.61952205646813,322.1270158172291 117.91952205646814,318.4270158172291 118.31952205646817,314.6270158172291 C 117.71952205646815,314.5270158172291 117.11952205646818,314.4270158172291 116.41952205646817,314.22701581722913 C 113.31952205646817,326.52701581722914 110.21952205646818,338.9270158172291 107.11952205646816,351.22701581722913 C 106.01952205646816,345.4270158172291 105.81952205646814,339.9270158172291 106.11952205646816,334.52701581722914 C 107.11952205646816,310.62701581722916 115.21952205646815,290.62701581722916 137.51952205646816,278.52701581722914 C 138.91952205646814,277.72701581722913 140.21952205646815,275.82701581722915 140.61952205646818,274.22701581722913 C 143.81952205646817,260.82701581722915 146.2195220564682,247.02701581722914 162.01952205646816,239.52701581722914 C 144.01952205646816,237.92701581722912 131.01952205646816,243.22701581722913 122.61952205646818,257.22701581722913 C 118.71952205646821,263.72701581722913 116.11952205646818,271.1270158172291 113.01952205646819,278.1270158172291 C 112.01952205646819,280.4270158172291 111.4195220564682,282.9270158172291 110.61952205646818,285.3270158172291 C 110.11952205646818,285.1270158172291 109.51952205646819,285.0270158172291 109.01952205646819,284.8270158172291 C 114.31952205646817,270.4270158172291 109.41952205646817,253.22701581722913 122.01952205646816,240.72701581722913 M 181.51952205646816,278.1270158172291 C 175.61952205646818,280.22701581722913 170.61952205646818,282.6270158172291 165.41952205646814,283.8270158172291 C 157.31952205646812,285.7270158172291 153.61952205646813,290.3270158172291 152.81952205646812,298.5270158172291 C 151.91952205646814,307.5270158172291 150.11952205646813,316.42701581722906 148.61952205646813,325.3270158172291 C 152.0195220564681,322.9270158172291 154.11952205646813,320.3270158172291 155.91952205646814,317.5270158172291 C 164.31952205646812,303.92701581722906 176.21952205646815,296.3270158172291 192.41952205646814,296.7270158172291 C 201.51952205646816,296.92701581722906 203.01952205646816,288.92701581722906 208.21952205646815,283.92701581722906 C 194.91952205646814,281.7270158172291 185.41952205646814,289.82701581722904 173.21952205646815,293.2270158172291 C 176.31952205646817,287.5270158172291 178.61952205646818,283.3270158172291 181.51952205646816,278.1270158172291 M 142.01952205646816,361.4270158172291 C 129.91952205646814,370.1270158172291 117.91952205646814,378.72701581722913 106.41952205646817,387.02701581722914 C 111.51952205646816,370.4270158172291 126.51952205646816,361.4270158172291 138.61952205646818,349.9270158172291 C 124.01952205646816,357.02701581722914 110.9195220564682,365.9270158172291 100.11952205646818,378.02701581722914 C 99.21952205646818,379.02701581722914 98.71952205646818,380.72701581722913 98.71952205646818,382.12701581722916 C 99.11952205646818,388.2270158172292 99.71952205646818,394.4270158172292 100.31952205646817,401.4270158172292 C 102.41952205646817,399.5270158172292 103.71952205646818,398.32701581722915 105.01952205646816,397.0270158172292 C 114.61952205646816,387.5270158172292 125.71952205646815,380.1270158172292 139.01952205646816,377.4270158172292 C 151.31952205646817,374.9270158172292 154.01952205646816,364.82701581722915 159.01952205646816,356.12701581722916 C 153.51952205646816,358.02701581722914 146.41952205646814,357.52701581722914 145.51952205646816,366.32701581722915 C 144.31952205646817,364.6270158172291 143.61952205646818,363.6270158172291 142.01952205646816,361.4270158172291 M 166.61952205646818,267.1270158172291 C 167.7195220564682,267.0270158172291 168.61952205646818,266.9270158172291 169.51952205646816,266.72701581722913 C 184.21952205646815,264.22701581722913 199.01952205646816,263.9270158172291 213.11952205646818,269.52701581722914 C 220.51952205646816,272.4270158172291 224.9195220564682,269.62701581722916 230.61952205646818,264.9270158172291 C 226.31952205646817,263.02701581722914 222.81952205646817,261.22701581722913 219.11952205646818,260.02701581722914 C 212.11952205646818,257.62701581722916 204.9195220564682,256.02701581722914 198.11952205646818,253.42701581722912 C 186.21952205646815,248.72701581722913 171.81952205646817,254.72701581722913 166.61952205646818,267.1270158172291 M 153.9195220564682,587.6270158172291 C 154.31952205646817,585.9270158172291 154.51952205646822,585.4270158172291 154.51952205646822,585.0270158172291 C 153.51952205646822,574.327015817229 152.51952205646822,563.6270158172291 151.31952205646823,553.0270158172291 C 151.11952205646824,551.4270158172291 150.01952205646822,550.0270158172291 149.41952205646825,548.4270158172291 C 146.51952205646828,540.327015817229 143.31952205646823,532.327015817229 140.81952205646823,524.0270158172291 C 139.51952205646822,519.6270158172291 139.51952205646822,514.9270158172291 138.91952205646825,510.32701581722904 C 133.71952205646826,521.127015817229 131.81952205646823,532.5270158172291 135.61952205646824,543.4270158172291 C 140.81952205646817,558.0270158172291 147.51952205646816,572.2270158172291 153.9195220564682,587.6270158172291 M 136.81952205646817,442.72701581722913 C 120.11952205646818,451.82701581722915 112.61952205646818,465.32701581722915 117.11952205646818,477.22701581722913 C 122.81952205646817,471.9270158172291 128.81952205646817,466.52701581722914 134.51952205646816,460.82701581722915 C 142.21952205646815,453.1270158172291 142.11952205646818,453.0270158172291 136.81952205646817,442.72701581722913 M 156.9195220564682,490.5270158172291 C 150.2195220564682,505.5270158172291 150.61952205646818,520.7270158172291 152.2195220564682,536.2270158172291 C 156.01952205646822,523.1270158172291 159.61952205646818,510.4270158172292 163.51952205646822,496.82701581722915 C 162.31952205646817,495.6270158172291 159.9195220564682,493.32701581722915 156.9195220564682,490.5270158172291 M 85.41952205646817,421.8270158172291 C 94.81952205646817,414.3270158172291 93.01952205646816,405.5270158172291 88.81952205646817,396.2270158172291 C 81.91952205646817,405.9270158172291 81.21952205646818,410.9270158172291 85.41952205646817,421.8270158172291 M 278.2195220564681,260.0270158172291 C 269.7195220564681,250.52701581722908 257.1195220564681,253.42701581722906 247.41952205646814,248.52701581722908 C 250.91952205646814,252.42701581722906 254.51952205646816,256.5270158172291 259.0195220564682,257.92701581722906 C 264.7195220564681,259.8270158172291 271.1195220564682,259.4270158172291 278.2195220564681,260.0270158172291 M 203.61952205646818,295.4270158172291 C 213.7195220564682,293.22701581722913 222.51952205646816,291.3270158172291 232.31952205646817,289.22701581722913 C 221.61952205646818,283.6270158172291 216.71952205646815,284.72701581722913 203.61952205646818,295.4270158172291 M 123.01952205646816,428.6270158172291 C 136.31952205646817,426.4270158172291 134.11952205646818,415.6270158172291 137.81952205646817,408.6270158172291 C 137.31952205646817,408.3270158172291 136.81952205646817,408.0270158172291 136.4195220564682,407.72701581722913 C 132.21952205646815,414.3270158172291 127.9195220564682,420.9270158172291 123.01952205646816,428.6270158172291 M 208.61952205646818,308.3270158172291 C 208.31952205646817,307.5270158172291 208.01952205646816,306.8270158172291 207.81952205646817,306.0270158172291 C 199.51952205646816,310.1270158172291 191.21952205646815,314.2270158172291 183.01952205646816,318.3270158172291 C 183.31952205646817,318.9270158172291 183.61952205646818,319.5270158172291 183.91952205646814,320.1270158172291 C 193.81952205646817,319.72701581722913 199.4195220564682,310.22701581722913 208.61952205646818,308.3270158172291 M 293.7195220564681,290.22701581722913 C 293.5195220564682,281.32701581722915 289.2195220564681,278.22701581722913 278.91952205646817,278.82701581722915 C 283.81952205646814,282.5270158172291 288.41952205646817,286.1270158172291 293.7195220564681,290.22701581722913 M 97.21952205646818,366.8270158172291 C 101.51952205646819,362.3270158172291 101.11952205646818,355.8270158172291 97.21952205646818,349.4270158172291 C 97.21952205646818,354.6270158172291 97.21952205646818,360.1270158172291 97.21952205646818,366.8270158172291 M 249.01952205646816,278.3270158172291 C 245.31952205646817,279.0270158172291 241.61952205646818,279.6270158172291 237.41952205646814,280.4270158172291 C 241.9195220564682,285.6270158172291 242.4195220564682,285.5270158172291 249.01952205646816,278.3270158172291"/>
</svg>
