<?xml version="1.0" ?>
<svg xmlns="http://www.w3.org/2000/svg" xmlns:ev="http://www.w3.org/2001/xml-events" xmlns:xlink="http://www.w3.org/1999/xlink" baseProfile="full" height="507" id="Layer_1" style="enable-background:new 0 0 1000 800;" transform="scale(0.2557544757033248 0.2557544757033248) translate(-195.5 -253.5)" version="1.1" viewBox="0 0 391 507" width="391" x="0px" xml:space="preserve" y="0px">
	<defs/>
	<path d="M 91.30000000000001,506.3348805533279 C 86.40000000000003,496.9348805533279 81.60000000000002,487.4348805533279 75.80000000000001,476.3348805533279 C 53.60000000000002,470.23488055332786 28.0,487.4348805533279 0.0,471.9348805533279 C 10.0,468.13488055332795 17.100000000000023,463.3348805533279 24.399999999999977,463.13488055332795 C 72.79999999999995,461.4348805533279 85.89999999999998,428.834880553328 86.5,390.13488055332795 C 86.60000000000002,385.63488055332795 81.89999999999998,380.13488055332795 77.89999999999998,376.73488055332797 C 63.69999999999999,364.73488055332797 51.89999999999998,351.73488055332797 52.89999999999998,331.034880553328 C 50.099999999999966,331.834880553328 47.89999999999998,332.43488055332796 45.599999999999966,333.034880553328 C 42.69999999999999,317.73488055332797 38.49999999999994,302.534880553328 37.099999999999966,287.034880553328 C 35.599999999999966,270.43488055332796 36.799999999999955,253.634880553328 36.799999999999955,235.73488055332797 C 34.69999999999993,234.834880553328 31.799999999999955,233.73488055332797 27.899999999999977,232.13488055332795 C 29.69999999999999,229.73488055332797 30.799999999999955,228.03488055332792 32.19999999999999,226.63488055332795 C 42.30000000000001,216.73488055332797 49.099999999999966,205.63488055332795 45.69999999999999,190.63488055332795 C 45.5,189.53488055332792 47.89999999999998,188.03488055332792 48.80000000000001,186.53488055332792 C 53.0,180.13488055332795 60.0,173.9348805533279 60.80000000000001,167.13488055332795 C 62.60000000000002,151.53488055332792 73.80000000000001,144.93488055332796 83.80000000000001,136.23488055332797 C 86.90000000000003,133.53488055332798 87.80000000000001,128.43488055332796 90.5,122.83488055332799 C 96.60000000000002,122.134880553328 105.89999999999998,120.93488055332801 118.10000000000002,119.53488055332798 C 113.0,115.03488055332798 110.80000000000001,113.134880553328 108.40000000000003,110.93488055332796 C 131.00000000000006,103.43488055332796 141.00000000000006,87.73488055332797 143.50000000000006,63.23488055332797 C 158.20000000000005,51.134880553327974 174.70000000000005,35.43488055332796 193.20000000000005,22.73488055332797 C 218.3,5.53488055332798 248.2000000000001,-2.96511944667202 277.50000000000006,0.9348805533279574 C 309.3,5.134880553327946 334.3,17.434880553327957 345.6000000000001,52.23488055332797 C 346.90000000000003,56.23488055332797 352.1000000000001,59.03488055332798 355.7000000000001,62.23488055332797 C 369.50000000000006,74.23488055332797 384.8000000000001,84.93488055332796 390.6000000000001,101.63488055332797 C 379.2000000000001,103.33488055332796 368.7000000000001,105.03488055332798 358.6000000000001,106.53488055332798 C 348.6000000000001,125.634880553328 344.6000000000001,147.73488055332797 323.1000000000001,158.834880553328 C 321.1000000000001,159.93488055332801 321.00000000000006,169.23488055332797 323.1000000000001,173.03488055332798 C 327.3000000000001,180.634880553328 333.7000000000001,187.03488055332798 341.6000000000001,196.93488055332796 C 335.7000000000001,194.63488055332795 332.90000000000003,193.63488055332795 326.8000000000001,191.23488055332797 C 332.6000000000001,200.03488055332798 336.90000000000015,206.53488055332798 341.6000000000001,213.73488055332797 C 339.2000000000001,213.73488055332797 337.3000000000001,213.73488055332797 337.6000000000001,213.73488055332797 C 339.1000000000001,232.43488055332796 340.6000000000001,251.13488055332795 342.00000000000006,267.63488055332795 C 330.6000000000001,278.93488055332796 337.00000000000006,291.33488055332793 337.8,304.33488055332793 C 334.90000000000003,302.0348805533279 332.90000000000003,300.43488055332796 329.7,297.93488055332796 C 331.59999999999997,344.83488055332793 291.99999999999994,358.73488055332797 263.7,384.13488055332795 C 265.2,393.63488055332795 266.7,404.9348805533279 268.99999999999994,416.0348805533279 C 275.3999999999999,447.8348805533279 280.3999999999999,452.0348805533279 311.99999999999994,457.9348805533279 C 322.8999999999999,459.9348805533279 333.3999999999999,463.9348805533279 344.09999999999997,467.0348805533279 C 343.7,469.3348805533279 343.3,471.73488055332797 342.8999999999999,474.0348805533279 C 334.99999999999994,473.4348805533279 326.99999999999994,473.3348805533279 319.09999999999997,472.13488055332795 C 305.09999999999997,470.0348805533279 291.2,467.334880553328 276.8999999999999,464.73488055332797 C 278.3999999999999,478.63488055332795 279.49999999999994,489.23488055332797 280.59999999999997,499.834880553328 C 278.59999999999997,500.53488055332804 276.59999999999997,501.334880553328 274.7,502.03488055332804 C 271.3,495.63488055332806 266.59999999999997,489.53488055332804 264.90000000000003,482.7348805533281 C 261.50000000000006,468.63488055332806 252.90000000000003,466.13488055332806 240.7,469.53488055332804 C 230.40000000000003,472.434880553328 220.40000000000003,476.7348805533281 209.99999999999994,478.434880553328 C 204.79999999999995,479.334880553328 198.89999999999992,475.834880553328 193.29999999999995,474.334880553328 C 198.59999999999997,457.63488055332795 222.49999999999994,466.334880553328 229.99999999999994,446.934880553328 C 250.09999999999997,440.13488055332806 260.7999999999999,413.73488055332797 245.99999999999994,392.23488055332797 C 242.2,386.73488055332797 227.49999999999994,385.434880553328 218.89999999999992,387.23488055332797 C 185.69999999999993,394.23488055332797 153.49999999999994,398.13488055332795 127.09999999999991,377.834880553328 C 119.2999999999999,380.434880553328 114.09999999999991,382.13488055332795 108.99999999999989,384.13488055332795 C 107.19999999999987,384.834880553328 105.2999999999999,386.23488055332797 104.39999999999986,387.834880553328 C 87.39999999999986,417.53488055332804 102.69999999999987,452.434880553328 134.9999999999999,460.834880553328 C 142.69999999999987,462.834880553328 148.5999999999999,471.434880553328 155.2999999999999,476.934880553328 C 154.4999999999999,478.13488055332806 153.7999999999999,479.334880553328 152.9999999999999,480.63488055332806 C 135.5999999999999,477.934880553328 118.19999999999987,475.13488055332806 100.09999999999991,472.3348805533281 C 97.89999999999992,485.3348805533281 96.09999999999991,495.7348805533281 94.39999999999992,506.2348805533281 C 93.40000000000003,506.3348805533279 92.40000000000003,506.3348805533279 91.30000000000001,506.3348805533279"/>
</svg>
