<?xml version="1.0" ?>
<svg xmlns="http://www.w3.org/2000/svg" xmlns:ev="http://www.w3.org/2001/xml-events" xmlns:xlink="http://www.w3.org/1999/xlink" baseProfile="full" height="81" id="Layer_1" style="enable-background:new 0 0 1190.55 841.89;" transform="scale(1.2345679012345678 1.2345679012345678) translate(-108.0 -40.5)" version="1.1" viewBox="0 0 216 81" width="216" x="0px" xml:space="preserve" y="0px">
	<defs/>
	<path class="st0" d="M 214.41596668132888,41.75011171658031 C 214.0359666813289,39.14011171658029 211.80596668132887,36.8801117165803 209.31596668132886,36.210111716580286 C 203.42596668132887,34.700111716580295 200.32596668132885,40.53011171658028 194.9059666813289,40.3801117165803 C 194.49596668132892,40.50011171658031 193.45596668132885,40.64011171658029 193.1359666813289,40.29011171658033 C 192.84596668132895,37.65011171658034 191.0159666813289,35.65011171658034 189.36596668132893,33.59011171658034 C 168.24596668132892,9.85011171658033 128.1359666813289,-0.6398882834196797 96.72596668132894,0.03011171658033618 C 80.1459666813289,0.3801117165803589 62.97596668132894,3.470111716580334 51.47596668132894,7.930111716580313 C 43.325966681328964,12.980111716580325 36.825966681328964,14.510111716580298 30.3959666813289,22.740111716580316 C 22.13596668132891,26.0701117165803 7.045966681328878,31.83011171658029 1.6159666813289277,40.89011171658029 C -0.3340333186710609,44.14011171658029 -0.8340333186710609,45.490111716580316 1.8959666813289004,48.31011171658031 C 1.1759666813288732,48.89011171658029 1.5459666813288777,50.05011171658032 1.60596668132888,50.80011171658032 C 3.775966681328896,54.740111716580316 7.985966681328875,56.450111716580295 11.525966681328896,58.42011171658032 C 17.235966681328875,63.15011171658034 24.075966681328907,65.2601117165803 30.83596668132884,67.49011171658032 C 35.935966681328864,69.37011171658031 39.935966681328864,73.90011171658034 45.33596668132884,75.12011171658031 C 59.65596668132889,82.0701117165803 76.82596668132885,81.3201117165803 91.57596668132885,76.16011171658033 C 94.5059666813288,76.10011171658033 97.18596668132886,75.64011171658035 100.1259666813288,76.65011171658034 C 105.92596668132876,78.48011171658032 110.99596668132881,75.21011171658034 114.73596668132882,70.63011171658036 C 120.04596668132876,71.56011171658037 124.1259666813288,75.38011171658036 129.46596668132884,76.28011171658034 C 145.41596668132888,80.44011171658036 176.54596668132888,71.84011171658034 190.92596668132887,63.84011171658034 C 192.0259666813289,62.85011171658033 194.05596668132887,62.16011171658033 194.2559666813289,60.39011171658035 C 194.80596668132887,58.220111716580334 193.41596668132888,56.59011171658034 191.96596668132895,55.08011171658035 C 191.5059666813289,54.760111716580354 190.925966681329,54.470111716580334 190.60596668132894,54.04011171658033 C 191.56596668132897,53.520111716580345 192.60596668132894,54.10011171658033 193.5359666813289,54.240111716580316 C 199.71596668132884,55.690111716580304 205.68596668132886,63.66011171658033 212.20596668132885,58.30011171658032 C 216.3859666813289,54.10011171658027 215.72596668132894,47.08011171658029 214.41596668132888,41.75011171658031 M 191.86596668132893,40.30011171658032 L 191.45596668132896,40.30011171658032 L 188.32596668132896,38.21011171658034 C 189.62596668132892,38.59011171658028 191.86596668132893,38.50011171658031 191.86596668132893,40.30011171658032 M 190.5259666813289,37.460111716580286 C 188.49596668132892,36.62011171658031 185.85596668132894,37.950111716580295 184.2659666813289,36.33011171658029 L 186.7559666813289,36.210111716580286 C 188.0059666813289,36.64011171658029 189.91596668132888,36.12011171658031 190.5259666813289,37.460111716580286 M 186.12596668132892,42.3801117165803 L 186.12596668132892,42.67011171658032 C 185.98596668132893,43.16011171658033 185.45596668132896,43.280111716580336 184.99596668132892,43.190111716580304 L 184.55596668132887,42.990111716580316 C 184.72596668132894,42.150111716580284 185.71596668132884,43.230111716580325 186.12596668132892,42.3801117165803 M 182.2659666813289,35.80011171658032 L 181.0159666813289,34.96011171658034 L 182.17596668132887,34.64011171658035 C 184.4059666813289,34.35011171658033 186.84596668132883,34.21011171658034 188.72596668132883,35.16011171658033 C 186.58596668132884,35.08011171658029 184.41596668132888,35.28011171658028 182.2659666813289,35.80011171658032 M 183.10596668132894,41.43011171658031 L 182.9059666813289,41.43011171658031 C 182.47596668132894,41.00011171658031 182.5259666813289,40.33011171658029 182.3859666813289,39.780111716580336 L 183.10596668132894,41.43011171658031 M 187.48596668132893,33.5101117165803 C 184.7559666813289,33.34011171658028 182.20596668132896,33.660111716580275 179.86596668132893,34.440111716580304 L 177.7759666813289,33.28011171658028 L 180.18596668132886,32.870111716580254 C 182.96596668132884,32.61011171658032 185.04596668132888,32.35011171658027 187.48596668132893,33.5101117165803 M 182.17596668132887,31.430111716580313 C 179.44596668132885,31.050111716580318 176.86596668132893,33.980111716580325 174.6359666813289,31.720111716580334 C 177.91596668132888,31.000111716580307 181.5359666813289,30.420111716580323 184.86596668132893,31.430111716580313 L 182.17596668132887,31.430111716580313 M 178.0059666813289,29.950111716580295 C 175.74596668132892,29.78011171658028 173.68596668132886,32.59011171658028 171.62596668132892,30.380111716580302 C 173.74596668132892,29.5701117165803 175.94596668132897,28.930111716580313 178.4059666813289,28.900111716580284 C 180.43596668132886,28.760111716580298 182.37596668132892,29.0701117165803 183.94596668132885,29.860111716580263 C 181.80596668132887,29.510111716580298 180.1459666813289,29.720111716580277 178.0059666813289,29.950111716580295 M 174.7559666813289,28.180111716580313 C 172.72596668132894,28.300111716580318 170.8959666813289,31.11011171658032 168.8959666813289,29.11011171658032 C 171.09596668132895,28.270111716580345 173.30596668132887,27.40011171658034 175.67596668132887,27.020111716580345 C 177.55596668132887,26.760111716580354 180.08596668132884,26.500111716580363 181.5359666813289,27.66011171658033 C 179.22596668132894,27.37011171658031 176.87596668132892,27.690111716580304 174.7559666813289,28.180111716580313 M 171.30596668132887,38.30011171658032 C 170.84596668132883,38.0101117165803 170.46596668132884,37.690111716580304 170.2659666813289,37.17011171658032 L 170.7859666813289,37.37011171658031 C 171.19596668132885,37.490111716580316 171.42596668132887,38.0101117165803 171.30596668132887,38.30011171658032 M 178.72596668132894,25.450111716580295 C 174.925966681329,25.59011171658028 171.5059666813289,26.670111716580323 168.37596668132892,28.490111716580316 C 167.99596668132892,28.90011171658034 167.2759666813289,28.66011171658033 167.04596668132888,28.290111716580327 C 169.6559666813289,26.87011171658031 172.2659666813289,25.510111716580354 175.2759666813289,25.040111716580327 C 176.43596668132886,25.190111716580304 177.71596668132884,24.700111716580295 178.72596668132894,25.450111716580295 M 176.0059666813289,23.680111716580313 C 172.43596668132886,24.09011171658034 169.2759666813289,25.480111716580325 166.5259666813289,27.86011171658032 L 166.5259666813289,28.06011171658031 C 166.1459666813289,28.150111716580284 165.80596668132887,28.000111716580307 165.68596668132886,27.77011171658029 C 168.58596668132884,25.5701117165803 171.5159666813289,23.450111716580295 175.16596668132888,23.160111716580275 C 175.48596668132893,23.28011171658028 175.97596668132894,23.34011171658028 176.0059666813289,23.680111716580313 M 164.43596668132886,27.34011171658028 L 162.55596668132887,26.500111716580307 C 163.19596668132885,25.720111716580334 164.23596668132882,25.02011171658029 165.16596668132888,24.41011171658033 C 167.74596668132892,23.080111716580348 170.61596668132893,22.06011171658031 173.60596668132894,22.030111716580336 C 170.20596668132885,22.930111716580313 167.21596668132884,24.960111716580286 164.43596668132886,27.34011171658028 M 171.42596668132887,20.760111716580298 C 167.80596668132887,21.800111716580318 163.94596668132885,22.930111716580313 161.5059666813289,26.210111716580286 C 160.7859666813289,26.210111716580286 160.2859666813289,25.690111716580304 159.62596668132892,25.5701117165803 C 162.37596668132892,23.190111716580304 165.5359666813289,21.31011171658031 169.0159666813289,20.470111716580277 C 169.79596668132888,20.230111716580325 171.1359666813289,19.890111716580293 171.42596668132887,20.760111716580298 M 168.69596668132885,19.100111716580273 C 166.1459666813289,19.940111716580248 163.56596668132886,21.010111716580298 161.3859666813289,22.640111716580293 C 159.9059666813289,23.220111716580277 159.09596668132895,26.150111716580284 157.41596668132888,24.730111716580268 C 159.73596668132893,22.29011171658027 162.48596668132893,20.900111716580284 165.24596668132892,19.630111716580245 C 166.31596668132886,19.28011171658028 167.97596668132894,18.260111716580298 168.69596668132885,19.100111716580273 M 156.49596668132892,24.3201117165803 C 155.71596668132895,24.380111716580302 155.07596668132896,23.83011171658029 154.5259666813289,23.600111716580273 C 157.71596668132895,20.50011171658025 161.45596668132885,18.730111716580268 165.68596668132886,18.060111716580252 C 162.34596668132883,19.510111716580298 159.0159666813289,21.130111716580302 156.49596668132892,24.3201117165803 M 164.6359666813289,16.81011171658031 C 160.4059666813289,17.8201117165803 156.5159666813289,19.77011171658029 153.35596668132894,23.36011171658032 L 151.58596668132896,22.750111716580307 C 154.45596668132896,19.8201117165803 158.1359666813289,17.85011171658033 162.025966681329,16.890111716580293 C 162.95596668132885,17.02011171658029 163.85596668132894,16.210111716580286 164.6359666813289,16.81011171658031 M 153.56596668132886,19.510111716580298 C 151.79596668132888,20.12011171658031 150.8659666813288,24.09011171658028 148.66596668132888,21.800111716580318 C 152.17596668132887,19.60011171658033 155.56596668132886,17.0701117165803 159.62596668132892,16.180111716580313 C 157.62596668132892,17.0701117165803 155.44596668132885,18.03011171658028 153.56596668132886,19.510111716580298 M 147.82596668132885,21.600111716580273 C 147.3659666813288,21.510111716580298 146.7559666813288,21.430111716580257 146.46596668132884,21.08011171658029 C 149.6559666813289,18.640111716580293 153.16596668132888,16.56011171658031 157.0159666813288,15.54011171658027 C 153.73596668132893,17.02011171658029 150.46596668132884,18.790111716580327 147.82596668132885,21.600111716580273 M 147.82596668132885,18.670111716580323 C 146.60596668132882,19.16011171658033 145.82596668132885,22.000111716580307 144.2859666813289,20.470111716580334 C 147.61596668132893,17.37011171658031 151.5059666813289,15.60011171658033 155.6459666813289,14.500111716580307 C 152.92596668132887,15.28011171658028 150.2859666813289,16.930111716580313 147.82596668132885,18.670111716580323 M 145.41596668132888,18.06011171658031 C 144.11596668132893,18.490111716580316 143.44596668132885,21.37011171658031 141.99596668132892,19.83011171658029 C 145.67596668132887,16.58011171658029 149.73596668132893,14.230111716580268 154.4059666813289,13.360111716580263 C 151.18596668132886,14.380111716580302 148.1459666813289,15.83011171658029 145.41596668132888,18.06011171658031 M 139.2659666813289,19.100111716580273 C 142.3959666813289,16.400111716580284 145.9059666813289,14.640111716580293 149.58596668132896,13.360111716580263 C 147.58596668132896,14.370111716580254 145.58596668132896,15.420111716580266 143.7559666813289,16.900111716580284 C 142.05596668132887,17.36011171658032 141.32596668132885,21.250111716580307 139.2659666813289,19.100111716580273 M 138.11596668132893,18.900111716580284 L 135.94596668132897,18.260111716580298 C 140.035966681329,14.870111716580311 144.70596668132896,12.950111716580295 149.71596668132895,11.79011171658027 C 145.58596668132884,13.540111716580327 141.32596668132885,15.340111716580282 138.11596668132893,18.900111716580284 M 149.06596668132886,10.440111716580304 C 144.16596668132888,12.010111716580298 139.1459666813289,13.60011171658033 135.29596668132888,17.540111716580327 C 134.54596668132888,18.530111716580336 133.20596668132885,17.5701117165803 132.36596668132893,17.420111716580323 C 133.72596668132894,15.970111716580334 135.4059666813289,14.840111716580338 137.06596668132897,13.880111716580302 C 140.80596668132887,12.090111716580282 144.80596668132887,10.060111716580309 149.06596668132886,10.440111716580304 M 131.23596668132893,17.220111716580277 C 130.80596668132898,17.310111716580252 130.45596668132896,17.08011171658029 130.07596668132896,17.02011171658029 C 133.72596668132894,12.210111716580286 139.46596668132895,9.710111716580286 144.8859666813289,9.400111716580284 C 139.93596668132886,11.020111716580288 134.60596668132894,12.840111716580282 131.23596668132893,17.220111716580277 M 128.94596668132885,16.81011171658031 L 124.7759666813289,15.970111716580334 L 124.7759666813289,15.65011171658034 L 129.47596668132894,12.320111716580357 C 133.44596668132897,10.320111716580357 137.62596668132892,8.120111716580368 142.20596668132896,8.15011171658034 C 137.09596668132883,9.36011171658032 131.84596668132883,12.000111716580307 128.94596668132885,16.81011171658031 M 138.22596668132894,7.1001117165802725 L 132.60596668132894,9.270111716580288 C 129.21596668132895,10.630111716580302 126.28596668132889,13.0701117165803 123.41596668132888,15.650111716580284 L 120.8959666813289,15.240111716580259 C 124.69596668132885,11.620111716580254 129.24596668132892,9.380111716580245 133.94596668132885,7.700111716580238 C 135.29596668132888,7.36011171658032 136.80596668132887,6.6701117165803225 138.22596668132894,7.1001117165802725 M 134.05596668132887,6.2601117165802975 C 130.34596668132883,7.220111716580277 127.09596668132883,9.250111716580307 123.82596668132885,11.28011171658028 C 121.5059666813288,12.120111716580254 120.2559666813288,16.410111716580275 117.47596668132883,14.610111716580263 C 121.1259666813288,10.900111716580284 125.18596668132886,8.140111716580236 129.7659666813288,6.670111716580266 C 131.1559666813289,6.430111716580313 132.6559666813289,5.5701117165803 134.05596668132887,6.2601117165802975 M 116.10596668132894,14.410111716580275 C 115.38596668132891,14.470111716580277 114.62596668132892,14.350111716580273 114.10596668132894,14.090111716580282 C 119.17596668132899,11.390111716580293 123.06596668132897,5.970111716580277 128.83596668132896,5.54011171658027 C 123.99596668132892,7.0101117165802975 119.67596668132887,10.490111716580316 116.10596668132894,14.410111716580275 M 113.90596668132889,13.450111716580295 C 113.41596668132888,14.810111716580309 112.10596668132894,13.510111716580298 111.09596668132895,13.770111716580288 C 115.47596668132894,9.450111716580295 120.43596668132898,6.090111716580282 126.11596668132893,4.700111716580295 C 121.55596668132887,6.230111716580325 117.72596668132894,10.3201117165803 113.90596668132889,13.450111716580295 M 109.72596668132894,13.680111716580313 L 107.23596668132893,13.450111716580295 L 107.23596668132893,13.36011171658032 C 111.69596668132897,9.390111716580293 116.36596668132893,5.910111716580332 121.93596668132898,4.5801117165803475 C 117.38596668132891,6.700111716580295 113.06596668132886,9.510111716580298 109.72596668132894,13.680111716580313 M 106.21596668132884,13.33011171658029 L 104.54596668132888,13.270111716580288 C 109.47596668132883,8.640111716580293 110.0159666813289,5.250111716580307 118.86596668132893,4.140111716580293 C 108.94596668132885,7.1701117165803225 106.93596668132886,13.58011171658029 106.21596668132884,13.33011171658029 M 113.66596668132888,4.120111716580311 C 109.43596668132886,6.210111716580286 106.13596668132891,9.0701117165803 103.38596668132891,13.160111716580332 L 101.29596668132888,12.930111716580313 C 103.67596668132887,10.490111716580316 106.13596668132891,7.680111716580313 109.00596668132891,5.540111716580327 C 110.71596668132884,4.720111716580277 111.45596668132885,3.5101117165802975 113.66596668132888,4.120111716580311 M 100.33596668132884,13.050111716580318 C 99.6359666813288,12.790111716580327 98.59596668132883,13.170111716580323 98.04596668132888,12.730111716580325 C 101.5259666813289,8.61011171658032 105.5259666813289,4.64011171658035 110.45596668132885,3.130111716580302 C 106.42596668132887,5.5101117165802975 103.0259666813289,9.190111716580304 100.33596668132884,13.050111716580318 M 102.10596668132894,5.330111716580291 C 103.69596668132897,4.29011171658027 105.06596668132897,2.720111716580277 107.12596668132892,2.9201117165802657 C 103.24596668132892,5.530111716580279 99.35596668132894,8.630111716580245 96.80596668132887,12.720111716580277 L 92.19596668132885,12.520111716580288 C 94.94596668132885,8.78011171658028 99.2659666813289,4.900111716580284 102.86596668132881,3.130111716580302 C 99.79596668132876,5.5701117165803 96.10596668132882,8.670111716580323 94.39596668132879,12.120111716580311 C 95.00596668132891,12.770111716580288 101.16596668132888,6.060111716580309 102.10596668132894,5.330111716580291 M 92.70596668132885,19.190111716580304 C 93.08596668132884,19.050111716580318 93.16596668132888,19.480111716580325 93.45596668132885,19.510111716580298 C 93.1359666813288,19.680111716580313 93.16596668132888,20.000111716580307 93.0259666813289,20.230111716580325 C 92.7659666813289,19.970111716580277 92.18596668132886,19.540111716580327 92.70596668132885,19.190111716580304 M 91.78596668132889,16.58011171658029 C 92.94596668132885,15.450111716580295 92.19596668132885,17.33011171658029 93.1459666813289,17.54011171658027 C 93.0259666813289,17.600111716580273 92.82596668132885,17.860111716580263 92.70596668132885,17.630111716580245 C 92.67596668132887,17.0701117165803 91.98596668132893,16.990111716580316 91.78596668132889,16.58011171658029 M 100.53596668132889,2.810111716580309 C 97.69596668132885,4.690111716580304 94.99596668132892,7.250111716580307 92.82596668132885,9.910111716580332 C 91.72596668132883,10.780111716580336 91.86596668132881,13.270111716580345 89.80596668132887,12.64011171658035 C 92.38596668132891,8.460111716580286 96.10596668132894,4.61011171658032 100.53596668132889,2.810111716580309 M 89.70596668132885,20.410111716580275 C 89.74596668132881,20.49011171658026 89.7759666813289,20.58011171658029 89.80596668132887,20.670111716580266 C 89.74596668132892,20.600111716580273 89.71596668132884,20.510111716580298 89.70596668132885,20.410111716580275 C 89.5259666813289,20.00011171658025 89.29596668132888,19.620111716580254 89.17596668132887,19.190111716580248 C 89.92596668132887,19.380111716580302 89.65596668132889,20.000111716580307 89.70596668132885,20.410111716580275 M 86.7659666813289,12.520111716580288 C 88.82596668132885,10.350111716580273 90.88596668132891,7.710111716580286 93.46596668132895,5.940111716580304 L 90.42596668132899,9.390111716580293 C 88.99596668132892,10.350111716580273 89.37596668132892,13.83011171658029 86.7659666813289,12.520111716580288 M 86.15596668132889,12.120111716580311 C 85.72596668132894,13.220111716580334 83.95596668132885,12.61011171658032 83.11596668132893,12.640111716580293 L 83.63596668132891,12.410111716580275 C 86.96596668132895,8.410111716580275 90.88596668132891,4.780111716580279 95.43596668132886,2.9301117165802566 C 91.86596668132893,5.040111716580327 88.09596668132883,8.460111716580286 86.15596668132889,12.120111716580311 M 82.79596668132888,11.800111716580318 C 83.0259666813289,13.710111716580343 80.73596668132893,12.500111716580307 79.8959666813289,12.840111716580338 C 83.20596668132885,9.250111716580363 87.08596668132896,5.270111716580345 91.46596668132895,3.3301117165803475 C 88.30596668132887,5.710111716580286 84.99596668132892,8.440111716580304 82.79596668132888,11.800111716580318 M 81.1459666813289,9.710111716580286 C 79.55596668132887,10.720111716580277 79.66596668132888,13.83011171658029 77.05596668132887,13.04011171658027 C 79.86596668132881,8.660111716580275 84.36596668132881,4.810111716580252 88.97596668132883,3.0101117165802975 C 86.2759666813289,4.840111716580282 83.57596668132885,7.040111716580327 81.1459666813289,9.710111716580286 M 75.60596668132894,13.250111716580307 L 73.11596668132893,13.370111716580311 C 75.84596668132895,10.700111716580295 78.91596668132888,7.690111716580304 81.75596668132891,5.86011171658032 C 79.34596668132883,7.970111716580277 76.96596668132884,10.490111716580316 75.60596668132894,13.250111716580307 M 72.35596668132894,13.450111716580295 L 71.31596668132897,13.450111716580295 C 74.09596668132895,9.880111716580302 77.51596668132902,6.400111716580284 81.34596668132895,4.29011171658027 C 77.86596668132893,6.810111716580309 74.67596668132887,9.86011171658032 72.35596668132894,13.450111716580295 M 69.66596668132888,13.770111716580288 L 68.30596668132887,13.770111716580288 C 70.74596668132892,10.460111716580286 73.72596668132883,7.190111716580304 77.29596668132888,5.330111716580291 C 74.50596668132891,7.770111716580288 71.74596668132892,10.870111716580311 69.66596668132888,13.770111716580288 M 67.57596668132885,13.970111716580277 C 66.5059666813288,14.03011171658028 65.3759666813288,14.460111716580286 64.44596668132885,14.29011171658027 C 67.48596668132882,10.870111716580254 70.59596668132883,6.780111716580279 74.67596668132887,5.330111716580291 C 71.5159666813289,7.4201117165803225 68.87596668132892,10.58011171658029 67.57596668132885,13.970111716580277 M 66.41596668132888,10.120111716580311 C 64.35596668132894,11.36011171658032 64.67596668132887,14.500111716580307 61.025966681328896,14.8201117165803 C 63.66596668132888,10.760111716580298 67.36596668132893,7.630111716580302 71.54596668132888,5.340111716580282 C 69.74596668132892,6.700111716580295 68.03596668132889,8.290111716580327 66.41596668132888,10.120111716580311 M 60.58596668132884,13.970111716580277 C 60.385966681328796,15.04011171658027 59.42596668132887,15.33011171658029 58.49596668132881,15.450111716580295 C 60.52596668132878,11.740111716580316 63.625966681328805,7.480111716580268 67.77596668132878,5.940111716580304 C 64.93596668132886,8.440111716580304 62.185966681328864,10.700111716580295 60.58596668132884,13.970111716580277 M 63.60596668132894,6.780111716580279 C 61.80596668132898,8.170111716580266 60.85596668132894,9.800111716580261 59.54596668132899,11.480111716580268 C 57.80596668132898,12.840111716580282 58.00596668132903,16.99011171658026 54.845966681328946,16.060111716580252 C 56.90596668132889,12.260111716580298 59.59596668132883,8.78011171658028 63.60596668132894,6.780111716580279 M 56.29596668132888,21.920111716580323 C 56.1459666813289,21.66011171658033 55.91596668132888,21.40011171658034 55.88596668132891,21.080111716580348 C 56.35596668132894,21.220111716580277 56.29596668132888,21.630111716580302 56.29596668132888,21.920111716580323 M 59.10596668132894,8.150111716580284 C 57.16596668132888,10.060111716580309 55.45596668132896,12.53011171658028 54.085966681328955,14.930111716580257 C 54.43596668132898,17.080111716580234 52.11596668132893,16.50011171658025 50.86596668132893,16.900111716580284 C 52.58596668132884,13.450111716580295 55.74596668132892,9.970111716580277 59.10596668132894,8.150111716580284 M 54.935966681328864,9.590111716580282 C 52.81596668132886,11.760111716580298 49.8959666813289,14.110111716580263 49.83596668132884,17.210111716580286 L 46.385966681328796,18.05011171658026 C 48.875966681328805,14.660111716580275 51.74596668132881,11.210111716580286 55.2559666813288,9.270111716580288 L 54.935966681328864,9.590111716580282 M 52.005966681328914,9.910111716580275 C 49.30596668132887,12.110111716580263 46.69596668132897,14.980111716580268 45.45596668132896,18.260111716580298 L 42.095966681328946,19.100111716580273 C 43.88596668132891,15.050111716580318 48.205966681328846,11.740111716580316 52.005966681328914,9.910111716580275 M 45.21596668132884,12.930111716580313 L 42.92596668132887,15.450111716580295 C 41.24596668132892,16.84011171658028 41.82596668132885,20.52011171658029 38.66596668132888,19.940111716580304 C 40.46596668132884,17.34011171658028 42.525966681328896,14.380111716580302 45.21596668132884,12.930111716580313 M 40.435966681328864,15.540111716580327 C 39.24596668132881,17.130111716580302 38.05596668132887,18.730111716580325 37.185966681328864,20.470111716580334 C 35.82596668132885,20.85011171658033 34.31596668132886,21.40011171658034 33.12596668132892,21.60011171658033 C 35.42596668132887,19.250111716580307 37.79596668132888,16.81011171658031 40.435966681328864,15.540111716580327 M 109.40596668132889,73.78011171658028 C 105.81596668132886,76.97011171658028 100.79596668132888,75.40011171658028 96.59596668132895,74.62011171658025 C 101.95596668132896,73.00011171658025 107.46596668132895,71.08011171658023 112.97596668132894,70.45011171658024 C 111.84596668132883,71.49011171658032 110.71596668132884,72.91011171658027 109.40596668132889,73.78011171658028 M 117.35596668132894,69.93011171658031 L 121.5259666813289,69.81011171658031 C 121.96596668132895,70.85011171658033 122.82596668132885,71.6901117165803 123.49596668132892,72.65011171658028 C 121.43596668132886,71.78011171658028 119.58596668132884,70.42011171658032 117.35596668132894,69.93011171658031 M 122.97596668132894,70.04011171658033 L 124.45596668132896,70.04011171658033 C 124.915966681329,71.58011171658035 126.25596668132891,72.74011171658032 127.155966681329,74.10011171658033 C 124.74596668132892,73.99011171658032 124.68596668132886,71.35011171658027 122.97596668132894,70.04011171658033 M 129.87596668132892,74.83011171658029 C 128.19596668132897,73.4401117165803 126.74596668132892,71.67011171658027 125.58596668132896,70.05011171658032 L 126.74596668132892,70.05011171658032 C 127.61596668132893,72.02011171658035 129.29596668132888,73.53011171658034 130.80596668132887,75.04011171658033 L 129.87596668132892,74.83011171658029 M 133.32596668132885,75.55011171658032 C 131.3859666813288,73.90011171658034 129.4959666813288,72.1301117165803 128.19596668132885,70.04011171658033 L 129.35596668132882,69.92011171658032 C 130.42596668132887,71.98011171658032 132.28596668132877,74.0101117165803 133.93596668132886,75.54011171658033 C 133.73596668132893,75.87011171658031 133.58596668132884,75.41011171658027 133.32596668132885,75.55011171658032 M 135.93596668132886,75.87011171658031 C 134.0259666813289,74.16011171658033 132.31596668132886,72.0101117165803 130.80596668132887,69.93011171658031 L 132.16596668132888,69.93011171658031 C 132.8859666813289,72.16011171658033 134.71596668132884,74.05011171658032 136.2559666813289,75.87011171658031 L 135.93596668132886,75.87011171658031 M 137.70596668132885,76.0701117165803 C 136.19596668132885,74.0701117165803 134.4059666813289,72.0101117165803 133.32596668132885,69.72011171658028 C 133.7559666813288,69.52011171658029 134.07596668132885,69.66011171658027 134.45596668132885,69.60011171658027 C 135.32596668132885,71.98011171658027 136.5159666813288,74.30011171658026 138.54596668132888,76.0701117165803 L 137.70596668132885,76.0701117165803 M 141.0359666813289,76.1901117165803 C 138.2559666813289,74.9401117165803 136.71596668132884,71.78011171658028 135.29596668132888,69.41011171658033 L 135.81596668132886,69.29011171658033 C 136.7459666813288,71.96011171658034 139.17596668132887,74.2501117165803 141.35596668132882,76.0701117165803 C 141.29596668132888,76.22011171658028 141.1559666813289,76.1901117165803 141.0359666813289,76.1901117165803 M 143.44596668132885,75.99011171658032 C 141.1259666813288,74.28011171658034 137.96596668132884,72.16011171658033 137.18596668132886,69.21011171658034 L 138.54596668132888,69.01011171658035 C 139.7659666813289,71.62011171658037 141.87596668132892,74.03011171658034 144.16596668132888,76.00011171658036 L 143.44596668132885,76.00011171658036 L 143.44596668132885,75.99011171658032 M 146.57596668132885,75.67011171658032 C 143.5059666813288,74.6301117165803 141.5059666813288,71.18011171658031 139.3859666813288,68.89011171658035 L 141.03596668132877,68.57011171658036 C 142.71596668132872,71.12011171658037 144.6359666813288,74.05011171658037 147.41596668132877,75.67011171658038 L 146.57596668132885,75.67011171658038 L 146.57596668132885,75.67011171658032 M 142.2859666813289,68.36011171658032 L 143.32596668132885,68.16011171658033 C 144.71596668132884,70.9401117165803 147.09596668132883,73.70011171658035 149.9059666813289,75.26011171658035 C 146.57596668132885,74.5701117165803 144.16596668132888,71.2001117165803 142.2859666813289,68.36011171658032 M 144.16596668132888,68.04011171658033 L 145.73596668132893,67.84011171658034 C 147.12596668132892,70.45011171658035 149.85596668132894,73.17011171658032 152.20596668132896,74.74011171658032 C 148.95596668132885,73.96011171658029 146.19596668132885,70.77011171658029 144.16596668132888,68.04011171658033 M 153.8859666813289,74.10011171658027 C 151.04596668132888,72.8201117165803 148.5259666813289,70.19011171658025 146.7859666813289,67.52011171658029 L 148.1459666813289,67.2001117165803 C 148.34596668132895,67.6901117165803 148.72596668132894,68.0701117165803 148.86596668132893,68.56011171658031 C 150.5159666813289,70.53011171658034 152.5159666813289,73.05011171658032 154.80596668132898,74.10011171658033 L 153.8859666813289,74.10011171658033 L 153.8859666813289,74.10011171658027 M 149.5059666813289,67.84011171658028 L 148.98596668132893,67.0001117165803 L 150.7559666813289,66.59011171658028 C 152.08596668132896,69.23011171658027 154.81596668132886,71.6901117165803 157.1359666813289,73.58011171658029 C 154.0259666813289,73.0001117165803 151.7659666813289,69.96011171658029 149.5059666813289,67.84011171658028 M 158.7859666813289,73.06011171658031 C 156.0359666813289,71.35011171658033 153.5059666813289,68.83011171658029 151.3959666813289,66.48011171658032 L 153.16596668132888,66.16011171658033 C 154.6459666813289,68.80011171658032 157.0259666813289,71.4401117165803 159.74596668132892,72.86011171658032 C 159.41596668132888,72.9401117165803 159.12596668132892,73.09011171658028 158.7859666813289,73.06011171658031 M 161.5059666813289,72.42011171658032 C 158.5159666813289,71.12011171658031 156.05596668132887,68.62011171658031 153.87596668132892,66.0701117165803 L 154.91596668132888,65.87011171658031 C 157.32596668132885,68.28011171658034 159.43596668132886,70.54011171658033 162.22596668132883,72.22011171658033 C 161.97596668132894,72.28011171658028 161.82596668132885,72.54011171658033 161.5059666813289,72.42011171658032 M 164.20596668132885,71.7001117165803 C 161.33596668132884,70.28011171658028 158.3759666813288,68.34011171658028 156.3759666813288,65.4401117165803 L 157.94596668132885,65.12011171658031 C 159.91596668132888,67.67011171658032 162.72596668132883,69.93011171658031 165.48596668132882,71.5001117165803 L 164.20596668132885,71.7001117165803 M 167.24596668132892,70.86011171658032 C 164.11596668132893,69.5001117165803 161.5059666813289,67.12011171658031 158.8959666813289,64.92011171658032 C 159.5059666813289,64.86011171658032 160.19596668132885,64.6301117165803 160.7759666813289,64.72011171658033 C 162.71596668132895,67.36011171658032 165.5259666813289,69.30011171658032 168.2859666813289,70.66011171658033 C 167.94596668132885,70.71011171658029 167.6559666813289,70.97011171658028 167.24596668132892,70.86011171658032 M 170.05596668132887,70.1301117165803 C 166.83596668132884,69.0001117165803 163.9059666813289,66.80011171658032 161.3859666813289,64.3901117165803 C 161.84596668132895,64.1301117165803 162.60596668132894,64.04011171658027 162.95596668132896,64.0701117165803 C 165.36596668132893,66.48011171658032 168.23596668132893,68.77011171658029 171.21596668132895,70.04011171658033 C 170.81596668132886,70.10011171658027 170.46596668132884,70.33011171658029 170.05596668132887,70.1301117165803 M 163.68596668132886,64.0701117165803 C 163.85596668132882,63.58011171658029 164.6459666813289,63.75011171658031 165.04596668132888,63.460111716580286 C 167.5359666813289,66.16011171658027 170.72596668132883,68.30011171658026 174.0359666813289,69.29011171658027 C 170.0059666813289,69.2601117165803 167.24596668132892,65.58011171658029 163.68596668132886,64.0701117165803 M 176.11596668132893,68.56011171658031 C 172.4059666813289,67.6901117165803 169.0159666813289,65.83011171658029 166.08596668132896,63.25011171658031 C 166.665966681329,62.93011171658031 167.33596668132896,62.960111716580286 167.96596668132895,62.8201117165803 C 170.45596668132896,65.6901117165803 173.85596668132894,67.17011171658032 177.24596668132892,68.24011171658032 L 176.11596668132893,68.56011171658031 M 179.85596668132894,67.3201117165803 C 175.91596668132888,67.35011171658027 172.34596668132895,65.15011171658028 169.0159666813289,63.03011171658028 L 168.69596668132885,62.5101117165803 L 170.2659666813289,61.990111716580316 L 171.10596668132894,63.030111716580336 C 173.8859666813289,64.91011171658033 176.84596668132895,66.60011171658033 180.09596668132895,67.20011171658035 C 179.97596668132894,67.17011171658032 179.94596668132885,67.2601117165803 179.85596668132894,67.3201117165803 M 182.3859666813289,66.3901117165803 C 178.18596668132886,65.81011171658031 174.3859666813289,64.0701117165803 170.99596668132892,61.78011171658028 L 173.08596668132896,61.2601117165803 L 173.31596668132897,61.78011171658028 C 176.155966681329,64.04011171658027 179.665966681329,65.08011171658029 183.11596668132893,66.0701117165803 L 182.3859666813289,66.3901117165803 M 185.30596668132887,65.11011171658032 C 183.10596668132882,64.97011171658033 181.1359666813289,64.30011171658032 179.12596668132892,63.66011171658033 C 177.24596668132892,62.91011171658033 175.24596668132892,62.18011171658031 173.58596668132896,61.05011171658032 C 174.165966681329,60.990111716580316 174.62596668132892,60.7601117165803 175.2659666813289,60.85011171658033 C 178.68596668132886,62.79011171658033 182.42596668132887,64.27011171658035 186.42596668132887,64.59011171658034 L 185.30596668132887,65.11011171658032 M 189.04596668132888,63.35011171658027 C 184.43596668132886,63.61011171658026 180.37596668132892,62.19011171658025 176.72596668132883,60.33011171658029 L 178.08596668132884,59.81011171658031 C 181.82596668132885,61.3801117165803 185.7659666813288,62.77011171658029 190.08596668132884,62.62011171658031 L 189.04596668132888,63.35011171658027 M 192.18596668132886,61.17011171658032 C 187.80596668132887,62.10011171658033 183.71596668132884,60.530111716580336 179.8659666813288,59.29011171658033 C 180.41596668132877,58.83011171658035 181.19596668132885,58.91011171658033 181.8659666813288,58.770111716580345 C 185.08596668132884,60.220111716580334 188.85596668132882,61.18011171658037 192.5059666813288,60.74011171658037 C 192.32596668132885,60.85011171658027 192.32596668132885,61.06011171658031 192.18596668132886,61.17011171658032 M 192.61596668132893,59.490111716580316 C 189.30596668132898,60.0701117165803 186.2659666813289,59.030111716580336 183.10596668132894,58.33011171658029 L 184.1459666813289,58.04011171658027 C 186.66596668132888,59.08011171658029 190.11596668132893,59.52011171658029 192.69596668132885,58.85011171658027 C 192.67596668132887,59.08011171658029 192.7859666813289,59.43011171658031 192.61596668132893,59.490111716580316 M 191.6559666813289,57.08011171658029 C 191.80596668132887,57.28011171658028 192.1459666813289,57.400111716580284 192.08596668132884,57.72011171658028 C 189.9959666813288,58.440111716580304 187.47596668132883,57.72011171658028 185.30596668132887,57.400111716580284 C 187.48596668132893,56.210111716580286 189.2859666813289,57.52011171658029 191.6559666813289,57.08011171658029 M 187.91596668132888,55.72011171658028 L 189.16596668132888,55.00011171658025 L 190.5259666813289,55.96011171658023 C 189.62596668132892,55.78011171658028 188.84596668132883,56.30011171658032 187.91596668132888,55.72011171658028 M 189.57596668132885,52.39011171658029 C 180.07596668132885,60.78011171658028 132.32596668132885,69.16011171658027 126.54596668132888,68.5701117165803 C 117.7659666813289,67.6401117165803 108.97596668132883,69.03011171658028 100.65596668132889,71.3801117165803 C 86.99596668132892,76.4501117165803 71.5159666813289,80.5701117165803 55.97596668132894,76.71011171658029 C 50.87596668132892,75.41011171658027 45.335966681328955,74.5101117165803 40.63596668132891,71.90011171658028 C 34.22596668132894,66.33011171658029 25.935966681328864,65.3201117165803 18.715966681328894,61.690111716580304 C 13.965966681328894,57.690111716580304 8.015966681328905,56.30011171658032 3.585966681328898,51.77011171658029 C 3.2059666813289027,50.900111716580284 2.015966681328905,50.03011171658028 2.745966681328923,49.04011171658027 C 4.945966681328912,50.630111716580245 7.815966681328916,50.630111716580245 10.485966681328932,51.130111716580245 C 14.685966681328921,51.390111716580236 18.835966681328955,48.78011171658022 22.695966681328912,50.93011171658026 C 22.8959666813289,50.81011171658025 22.755966681328914,50.580111716580234 22.785966681328887,50.410111716580275 C 21.775966681328896,49.19011171658025 20.265966681328905,48.7601117165803 18.84596668132889,48.84011171658028 C 14.205966681328903,49.68011171658026 8.925966681328873,50.49011171658026 4.525966681328896,48.52011171658029 C 3.275966681328896,47.85011171658027 1.9159666813288823,46.98011171658027 1.10596668132888,45.710111716580286 C 0.8759666813288618,43.54011171658027 2.615966681328871,41.910111716580275 3.7159666813288936,40.170111716580266 C 12.475966681328885,29.940111716580248 24.705966681328903,26.20011171658024 36.47596668132894,22.310111716580252 C 38.56596668132897,22.890111716580236 41.18596668132898,32.40011171658023 47.67596668132899,28.49011171658026 C 50.51596668132902,25.30011171658026 46.77596668132901,22.580111716580234 45.98596668132893,19.710111716580286 L 50.04596668132888,18.500111716580307 C 53.955966681328846,19.890111716580293 58.205966681328846,30.12011171658031 63.37596668132892,26.930111716580313 C 66.43596668132886,24.050111716580318 61.55596668132887,19.670111716580323 61.05596668132887,16.90011171658034 C 68.94596668132885,13.560111716580366 71.94596668132885,24.790111716580327 75.49596668132892,26.210111716580343 C 76.71596668132895,26.530111716580336 78.33596668132896,26.790111716580327 79.2659666813289,25.69011171658036 C 80.04596668132888,24.620111716580368 80.3959666813289,22.960111716580343 79.78596668132889,21.720111716580334 C 78.97596668132894,19.570111716580357 76.0159666813289,16.91011171658033 78.62596668132892,14.730111716580325 C 81.58596668132896,13.950111716580352 84.56596668132897,15.340111716580338 86.45596668132896,17.540111716580327 C 88.02596668132901,20.15011171658034 88.80596668132898,23.080111716580348 90.62596668132892,25.5701117165803 C 92.16596668132888,26.930111716580313 94.07596668132896,27.690111716580304 96.16596668132888,27.34011171658028 C 96.94596668132885,26.910111716580275 97.46596668132884,26.27011171658029 98.04596668132888,25.5701117165803 C 100.94596668132885,22.410111716580275 97.8959666813289,18.61011171658032 97.84596668132883,15.130111716580302 C 98.19596668132885,14.750111716580307 98.6259666813288,14.61011171658032 98.97596668132883,14.290111716580327 L 104.71596668132884,14.720111716580334 C 109.84596668132883,16.260111716580354 108.04596668132888,22.260111716580354 109.64596668132879,25.88011171658036 C 111.29596668132876,28.950111716580352 117.03596668132877,29.760111716580354 118.80596668132875,26.40011171658034 C 120.10596668132871,23.65011171658034 117.03596668132877,20.370111716580368 119.44596668132874,17.930111716580313 C 120.34596668132872,17.35011171658033 121.50596668132869,17.380111716580302 122.46596668132872,17.000111716580307 C 124.46596668132872,17.03011171658028 126.08596668132873,17.990111716580316 127.68596668132875,18.970111716580334 C 128.7259666813287,20.13011171658036 129.16596668132877,21.84011171658034 128.96596668132872,23.260111716580354 C 129.3759666813287,25.750111716580363 128.32596668132874,29.120111716580368 130.6159666813287,30.970111716580334 C 132.09596668132872,32.45011171658035 134.55596668132875,32.42011171658032 136.4759666813287,31.930111716580313 C 137.40596668132866,31.440111716580304 138.64596668132867,31.09011171658034 139.28596668132866,29.930111716580313 C 141.89596668132867,28.0701117165803 139.3459666813286,24.480111716580325 141.4859666813287,22.420111716580323 C 143.2559666813287,21.230111716580325 144.8759666813287,22.830111716580348 146.58596668132873,23.06011171658031 C 150.7559666813287,24.86011171658032 148.09596668132872,29.670111716580323 149.31596668132875,33.18011171658031 C 150.6459666813288,35.56011171658031 153.2259666813287,35.91011171658033 155.66596668132877,36.11011171658032 C 159.31596668132875,34.75011171658031 157.98596668132882,30.630111716580302 160.04596668132876,28.050111716580318 C 161.78596668132877,27.33011171658029 163.03596668132877,28.950111716580295 164.53596668132877,29.41011171658033 C 168.82596668132874,31.500111716580307 165.52596668132878,37.270111716580345 169.43596668132875,39.760111716580354 C 174.5059666813288,41.86011171658038 174.42596668132876,39.530111716580336 174.56596668132875,34.63011171658036 C 176.09596668132872,33.220111716580334 176.18596668132875,34.08011171658035 178.6259666813287,35.07011171658036 C 181.78596668132866,36.58011171658035 179.7559666813287,40.61011171658038 181.95596668132873,42.90011171658034 C 184.7359666813287,44.60011171658033 188.05596668132875,45.07011171658036 187.69596668132874,40.38011171658036 C 194.3859666813289,43.730111716580325 194.74596668132892,47.12011171658031 189.57596668132885,52.39011171658029 M 61.195966681328855,26.09011171658028 C 61.28596668132889,25.450111716580295 62.23596668132882,26.06011171658031 62.55596668132887,25.5701117165803 L 62.55596668132887,25.77011171658029 L 62.435966681328864,25.77011171658029 C 62.185966681328864,26.210111716580286 61.515966681328905,26.290111716580327 61.195966681328855,26.09011171658028 M 213.7759666813289,47.690111716580304 L 212.44596668132885,47.28011171658028 L 200.21596668132884,47.28011171658028 C 204.0159666813288,46.85011171658027 207.7859666813289,45.370111716580254 211.69596668132885,46.24011171658026 C 212.44596668132885,46.62011171658031 214.0159666813289,46.56011171658031 213.7759666813289,47.690111716580304 M 213.57596668132885,49.17011171658032 C 210.9059666813289,50.30011171658032 207.22596668132883,49.40011171658034 204.3859666813288,48.65011171658034 L 208.8759666813288,48.65011171658034 C 210.41596668132888,48.56011171658031 212.41596668132888,48.240111716580316 213.57596668132885,49.17011171658032 M 213.57596668132885,45.60011171658027 C 209.19596668132885,43.72011171658028 204.3859666813288,45.5701117165803 199.80596668132887,46.03011171658028 C 199.80596668132887,45.910111716580275 199.83596668132884,45.77011171658029 199.68596668132886,45.710111716580286 C 199.3959666813289,46.3801117165803 198.6459666813289,46.09011171658028 198.0359666813289,46.03011171658028 C 201.8959666813289,44.93011171658026 205.57596668132885,43.39011171658029 210.0359666813289,43.710111716580286 C 211.34596668132883,44.04011171658033 214.04596668132888,43.72011171658028 213.57596668132885,45.60011171658027 M 199.80596668132887,50.30011171658032 L 199.48596668132882,50.30011171658032 L 199.28596668132877,50.21011171658034 L 199.80596668132887,50.30011171658032 M 213.2559666813289,43.200111716580295 C 212.70596668132896,43.06011171658031 212.12596668132892,42.940111716580304 211.60596668132894,42.68011171658031 C 205.95596668132896,41.75011171658031 201.2859666813289,44.1301117165803 196.0359666813289,45.09011171658034 L 195.74596668132892,44.770111716580345 L 196.2659666813289,44.36011171658032 C 201.45596668132896,44.240111716580316 205.33596668132896,40.39011171658029 210.6459666813289,41.230111716580325 C 211.69596668132885,41.690111716580304 213.6359666813289,41.37011171658031 213.2559666813289,43.200111716580295 M 209.4059666813289,37.690111716580304 C 207.34596668132895,37.460111716580286 205.37596668132892,38.0101117165803 203.7859666813289,38.41011171658033 C 205.31596668132886,37.37011171658031 207.80596668132887,36.8201117165803 209.4059666813289,37.690111716580304 M 201.57596668132885,39.78011171658028 C 199.7759666813289,41.200111716580295 197.42596668132887,41.61011171658026 195.22596668132883,41.75011171658031 C 197.36596668132893,41.17011171658032 199.66596668132888,40.8801117165803 201.57596668132885,39.78011171658028 M 194.3859666813289,42.990111716580316 C 196.58596668132896,42.84011171658034 198.61596668132893,42.56011171658031 200.6459666813289,41.6301117165803 C 203.19596668132885,39.77011171658029 205.97596668132894,38.35011171658033 209.5159666813289,38.8201117165803 C 210.5259666813289,39.17011171658032 212.41596668132888,38.62011171658031 212.44596668132885,40.30011171658032 C 205.68596668132886,38.56011171658031 200.9059666813289,43.720111716580334 194.3859666813289,43.11011171658032 L 194.3859666813289,42.990111716580316 M 197.30596668132887,54.17011171658032 C 196.09596668132883,53.65011171658034 194.84596668132883,53.200111716580295 193.54596668132888,52.91011171658033 C 194.8959666813289,53.09011171658028 196.12596668132892,53.56011171658031 197.30596668132887,54.17011171658032 C 201.05596668132887,55.79011171658033 204.5159666813289,58.1301117165803 208.67596668132887,58.7601117165803 C 204.1359666813289,59.230111716580325 200.97596668132894,56.06011171658031 197.30596668132887,54.17011171658032 M 209.83596668132884,57.72011171658028 C 203.83596668132884,57.2601117165803 199.3659666813288,52.8201117165803 193.7459666813288,51.660111716580275 C 200.03596668132877,52.56011171658025 204.90596668132878,56.8201117165803 211.48596668132882,56.99011171658026 C 211.2859666813289,57.81011171658031 210.3859666813289,57.490111716580316 209.83596668132884,57.72011171658028 M 212.73596668132893,55.11011171658032 C 212.5059666813289,55.31011171658031 212.5059666813289,55.89011171658029 212.0159666813289,55.720111716580334 C 206.12596668132892,55.89011171658035 201.49596668132892,51.86011171658032 195.83596668132896,50.82011171658036 C 201.74596668132892,51.520111716580345 206.535966681329,54.88011171658036 212.73596668132893,54.790111716580384 L 212.73596668132893,55.11011171658032 M 212.0159666813289,53.75011171658031 C 207.7859666813289,53.17011171658032 203.95596668132896,51.690111716580304 200.0159666813289,50.42011171658032 C 204.3959666813289,51.41011171658033 208.6559666813289,53.55011171658032 213.3859666813289,52.71011171658034 L 213.3859666813289,53.030111716580336 C 213.60596668132894,54.04011171658033 212.44596668132885,53.43011171658031 212.0159666813289,53.75011171658031 M 213.57596668132885,51.460111716580286 C 213.22596668132883,51.55011171658026 212.8759666813288,51.660111716580275 212.5359666813289,51.78011171658028 C 209.34596668132883,51.61011171658026 206.06596668132886,51.00011171658031 203.1459666813289,49.900111716580284 L 207.84596668132895,50.74011171658026 C 209.70596668132896,50.94011171658025 211.93596668132898,51.150111716580284 213.785966681329,50.31011171658025 C 213.8959666813289,50.730111716580325 213.6359666813289,51.08011171658029 213.57596668132885,51.460111716580286 M 22.375966681328862,46.7601117165803 C 17.33596668132884,46.7601117165803 12.345966681328889,48.47011171658028 7.245966681328866,47.690111716580304 C 5.415966681328882,47.34011171658028 3.625966681328862,46.12011171658031 3.0759666813288504,44.240111716580316 L 3.275966681328839,44.15011171658034 C 4.665966681328825,45.14011171658035 5.915966681328825,46.44011171658036 7.5659666813288595,46.760111716580354 C 12.60596668132888,47.48011171658038 16.985966681328875,45.92011171658038 22.175966681328873,45.720111716580334 C 23.535966681328887,45.780111716580336 24.81596668132886,46.65011171658034 25.3959666813289,47.89011171658035 C 25.485966681328932,48.59011171658034 25.915966681328882,49.60011171658033 25.30596668132887,50.09011171658034 C 24.985966681328875,48.700111716580295 23.85596668132888,47.11011171658032 22.375966681328862,46.7601117165803 M 17.995966681328866,53.55011171658032 C 14.405966681328891,52.39011171658029 11.765966681328848,54.5101117165803 8.165966681328882,53.35011171658033 L 8.165966681328882,53.12011171658031 C 11.155966681328891,53.8201117165803 13.675966681328873,51.87011171658031 16.745966681328866,52.400111716580284 C 19.235966681328875,52.14011171658029 21.205966681328846,54.660111716580275 23.81596668132886,53.440111716580304 C 24.33596668132884,53.210111716580286 25.1459666813289,52.5701117165803 24.975966681328885,51.990111716580316 L 25.38596668132891,51.990111716580316 C 25.6459666813289,52.66011171658033 25.445966681328855,53.3801117165803 24.865966681328928,53.87011171658031 C 22.925966681328873,55.72011171658028 19.965966681328894,54.39011171658029 17.995966681328866,53.55011171658032 M 12.985966681328875,41.54011171658033 C 19.525966681328896,43.6301117165803 21.475966681328885,35.06011171658031 16.955966681328903,33.60011171658033 C 10.245966681328866,31.730111716580325 8.365966681328871,39.06011171658031 12.985966681328875,41.54011171658033 M 16.11596668132887,34.56011171658031 C 20.495966681328866,36.02011171658029 17.025966681328896,43.34011171658028 13.095966681328889,40.0701117165803 C 9.8959666813289,37.660111716580275 11.995966681328866,34.03011171658028 16.11596668132887,34.56011171658031 M 13.615966681328871,38.8201117165803 C 16.06596668132886,40.980111716580325 18.36596668132887,36.460111716580286 15.535966681328887,35.710111716580286 C 13.275966681328896,34.72011171658028 11.585966681328898,37.53011171658028 13.615966681328871,38.8201117165803 M 14.955966681328903,36.730111716580325 C 14.985966681328875,37.05011171658032 15.045966681328878,38.06011171658031 14.345966681328889,37.690111716580304 C 13.585966681328898,37.400111716580284 14.615966681328871,36.05011171658032 14.955966681328903,36.730111716580325 M 21.985966681328875,58.97011171658028 C 35.97596668132883,54.85011171658027 38.96596668132884,47.5701117165803 37.62596668132892,33.28011171658028 L 37.91596668132888,33.28011171658028 C 42.86596668132893,49.400111716580284 32.1459666813289,59.190111716580304 21.985966681328875,58.97011171658028 M 23.625966681328862,32.150111716580284 C 23.165966681328882,31.630111716580302 22.925966681328873,30.850111716580273 22.905966681328835,30.06011171658031 C 23.28596668132883,29.10011171658033 24.155966681328835,28.81011171658031 25.105966681328823,29.10011171658033 C 25.595966681328832,29.39011171658035 26.26596668132879,29.770111716580345 26.435966681328864,30.380111716580302 C 26.695966681328855,31.160111716580275 26.31596668132886,31.950111716580295 25.62596668132892,32.47011171658028 C 24.8959666813289,32.8801117165803 24.225966681328885,32.47011171658028 23.625966681328862,32.150111716580284 M 24.785966681328887,34.56011171658031 C 25.22596668132894,34.0701117165803 25.65596668132889,33.6301117165803 26.355966681328937,33.81011171658031 C 26.815966681328973,34.0701117165803 27.45596668132896,34.04011171658033 27.71596668132895,34.56011171658031 C 28.065966681328973,35.230111716580325 27.515966681328905,36.18011171658031 26.87596668132892,36.650111716580284 L 25.19596668132897,36.210111716580286 C 24.60596668132888,35.86011171658032 24.835966681328898,35.14011171658029 24.785966681328887,34.56011171658031 M 29.47596668132894,64.0701117165803 C 33.03596668132889,63.160111716580275 36.835966681328955,61.3801117165803 37.30596668132898,57.08011171658029 C 35.99596668132904,58.420111716580266 27.405966681329005,64.52011171658029 25.745966681329037,61.98011171658027 C 39.225966681329055,58.380111716580245 43.285966681329,48.14011171658029 39.395966681329014,35.160111716580275 C 38.75596668132903,33.59011171658028 37.395966681329014,32.200111716580295 37.51596668132902,30.460111716580286 L 37.83596668132907,30.460111716580286 C 38.555966681329096,31.360111716580263 39.31596668132909,32.14011171658029 39.9259666813291,33.190111716580304 C 43.055966681329096,39.16011171658033 43.38596668132914,48.66011171658033 39.32596668132908,54.400111716580284 C 39.96596668132884,60.04011171658033 34.83596668132884,65.2001117165803 29.47596668132894,64.0701117165803 M 26.235966681328932,28.290111716580327 C 28.735966681328932,25.31011171658031 33.265966681328905,27.260111716580354 31.775966681328896,30.06011171658031 C 30.595966681328832,32.04011171658033 26.485966681328932,30.050111716580318 26.235966681328932,28.290111716580327 M 30.205966681328846,33.190111716580304 C 32.10596668132882,32.89011171658029 34.17596668132887,30.640111716580293 33.455966681328846,35.36011171658032 C 32.11596668132893,35.730111716580325 28.205966681328846,35.36011171658032 30.205966681328846,33.190111716580304 M 33.33596668132884,27.140111716580293 C 32.7559666813288,23.08011171658029 37.945966681328855,22.740111716580316 38.14596668132879,26.210111716580286 C 37.185966681328864,30.050111716580318 35.755966681328914,29.190111716580304 33.33596668132884,27.140111716580293 M 34.8959666813289,36.33011171658029 C 36.205966681328846,36.62011171658031 37.755966681328914,38.200111716580295 36.255966681328914,39.35011171658027 C 34.1459666813289,40.59011171658028 32.74596668132892,36.61011171658032 34.8959666813289,36.33011171658029 M 65.85596668132894,57.54011171658033 C 69.44596668132897,50.220111716580334 67.32596668132896,40.68011171658031 56.93596668132898,40.30011171658032 C 48.835966681328955,40.730111716580325 45.585966681328955,42.990111716580316 42.00596668132903,49.690111716580304 C 42.725966681329055,50.0101117165803 42.32596668132908,50.79011171658033 42.725966681329055,51.2601117165803 C 47.24596668132904,58.33011171658029 42.485966681329046,62.17011171658032 36.1759666813291,65.35011171658027 C 42.685966681328864,70.46011171658029 59.22596668132894,66.2601117165803 65.85596668132894,57.54011171658033 M 65.28596668132889,54.79011171658033 C 60.87596668132892,56.04011171658033 56.81596668132886,56.21011171658034 52.12596668132892,56.67011171658032 C 50.185966681328864,56.55011171658032 48.44596668132897,56.93011171658031 46.70596668132896,56.35011171658033 C 53.515966681328905,56.490111716580316 59.95596668132896,55.6301117165803 65.81596668132897,53.42011171658032 C 65.83596668132884,53.980111716580325 65.42596668132887,54.33011171658029 65.28596668132889,54.79011171658033 M 66.09596668132883,52.18011171658031 C 61.83596668132884,53.75011171658031 57.33596668132884,54.67011171658032 52.52596668132878,54.990111716580316 C 57.22596668132883,53.89011171658029 61.91596668132877,52.7601117165803 66.20596668132873,50.730111716580325 C 66.47596668132894,51.200111716580295 66.15596668132889,51.690111716580304 66.09596668132883,52.18011171658031 M 65.8959666813289,49.37011171658031 C 62.505966681328914,51.230111716580325 58.705966681328846,52.10011171658033 54.935966681328864,53.02011171658029 C 58.525966681328896,51.5101117165803 62.29596668132888,50.35011171658027 65.28596668132889,47.60011171658027 C 65.48596668132893,48.18011171658031 65.92596668132887,48.68011171658031 65.8959666813289,49.37011171658031 M 64.6459666813289,46.440111716580304 C 60.1459666813289,50.31011171658031 52.63596668132891,52.8201117165803 46.90596668132889,54.0701117165803 C 52.87596668132892,52.10011171658027 58.6459666813289,49.43011171658031 63.60596668132894,45.200111716580295 C 63.945966681328855,45.60011171658027 64.5259666813289,45.92011171658032 64.6459666813289,46.440111716580304 M 62.87596668132892,44.56011171658031 C 61.94596668132897,45.230111716580325 45.845966681328946,55.7601117165803 46.05596668132887,52.0701117165803 C 51.705966681328846,50.10011171658027 57.07596668132885,47.14011171658029 62.025966681328896,43.72011171658028 C 62.35596668132894,43.89011171658029 62.90596668132889,44.210111716580286 62.87596668132892,44.56011171658031 M 61.31596668132886,43.200111716580295 C 56.96596668132884,45.72011171658028 52.41596668132888,48.39011171658029 47.945966681328855,50.10011171658027 C 51.97596668132883,47.61011171658026 55.775966681328896,44.650111716580284 59.83596668132884,42.27011171658029 C 60.41596668132888,42.410111716580275 61.195966681328855,42.7601117165803 61.31596668132886,43.200111716580295 M 58.17596668132887,41.86011171658032 L 45.96596668132884,50.09011171658034 L 45.445966681328855,50.09011171658034 C 48.60596668132882,46.810111716580366 52.515966681328905,44.32011171658036 55.96596668132884,41.54011171658033 L 58.17596668132887,41.86011171658032 M 46.17596668132887,47.28011171658028 C 48.72596668132883,45.450111716580295 50.84596668132883,41.68011171658026 54.32596668132885,41.74011171658026 C 51.07596668132885,43.45011171658024 48.23596668132882,46.03011171658028 45.33596668132884,48.52011171658023 L 46.17596668132887,47.28011171658028 M 38.66596668132888,64.91011171658027 C 39.65596668132889,64.56011171658025 40.63596668132891,64.24011171658026 41.47596668132883,63.55011171658026 C 41.615966681328814,64.25011171658025 42.02596668132878,64.83011171658023 42.60596668132882,65.35011171658027 C 41.33596668132884,65.43011171658031 39.91596668132888,65.2001117165803 38.66596668132888,64.91011171658027 M 45.53596668132889,65.7501117165803 C 44.11596668132893,65.6301117165803 42.92596668132887,64.21011171658029 42.515966681328905,62.940111716580304 C 43.445966681328855,63.900111716580284 44.45596668132896,64.85011171658033 45.6459666813289,65.6401117165803 L 45.53596668132889,65.7501117165803 M 43.65596668132889,62.30011171658032 C 45.74596668132892,63.92011171658032 48.23596668132893,64.68011171658031 50.55596668132887,65.43011171658031 C 47.56596668132886,67.0001117165803 45.56596668132886,63.900111716580284 43.65596668132889,62.30011171658032 M 53.36596668132893,64.91011171658027 C 50.1459666813289,64.10011171658027 46.49596668132892,63.43011171658026 43.88596668132891,61.05011171658026 C 46.90596668132889,63.170111716580266 50.55596668132887,63.72011171658028 54.095966681328946,64.59011171658028 L 53.36596668132893,64.91011171658027 M 54.41596668132888,63.55011171658032 C 51.54596668132888,62.480111716580325 48.005966681328914,62.970111716580334 45.74596668132892,60.33011171658029 C 49.45596668132896,61.84011171658028 53.28596668132889,63.00011171658031 57.66596668132888,62.8201117165803 C 56.81596668132886,63.93011171658031 55.54596668132888,63.43011171658031 54.41596668132888,63.55011171658032 M 47.015966681328905,59.17011171658032 C 51.07596668132885,61.05011171658032 55.3959666813289,61.00011171658031 59.82596668132885,61.37011171658031 C 55.33596668132884,61.950111716580295 50.695966681328855,61.58011171658029 47.015966681328905,59.17011171658032 M 61.62596668132892,59.900111716580284 C 58.20596668132896,60.36011171658026 54.60596668132894,60.02011171658029 51.3959666813289,59.3801117165803 C 55.16596668132888,59.3801117165803 58.78596668132889,59.50011171658031 62.55596668132887,58.86011171658032 L 61.62596668132892,59.900111716580284 M 50.03596668132889,57.92011171658032 C 54.99596668132892,57.720111716580334 60.06596668132886,57.200111716580295 64.53596668132889,56.35011171658033 L 63.81596668132886,57.39011171658035 C 59.48596668132893,58.190111716580304 54.29596668132888,58.53011171658028 50.03596668132889,57.92011171658032 M 43.13596668132891,34.7601117165803 C 42.41596668132888,33.72011171658028 43.71596668132895,32.990111716580316 43.56596668132886,31.950111716580295 C 43.97596668132883,31.170111716580323 44.755966681328914,30.850111716580273 45.65596668132889,30.990111716580316 C 47.015966681328905,31.450111716580295 48.695966681328855,32.530111716580336 48.87596668132892,34.12011171658031 C 48.61596668132893,35.1301117165803 47.88596668132891,35.480111716580325 47.10596668132894,36.210111716580286 C 46.03596668132889,36.440111716580304 45.335966681328955,35.690111716580304 44.40596668132889,35.60011171658027 L 43.13596668132891,34.7601117165803 M 53.80596668132887,69.09011171658028 C 54.23596668132882,69.7001117165803 54.73596668132882,70.4501117165803 54.525966681328896,71.18011171658026 C 54.095966681328946,72.02011171658023 53.16596668132888,72.37011171658025 52.435966681328864,72.34011171658028 C 51.685966681328864,71.6401117165803 50.31596668132886,71.12011171658025 50.34596668132883,69.93011171658026 C 50.375966681328805,69.18011171658026 51.21596668132884,68.60011171658027 51.79596668132888,68.25011171658025 C 52.55596668132887,68.0101117165803 53.22596668132894,68.59011171658028 53.80596668132887,69.09011171658028 M 51.59596668132883,34.04011171658033 C 52.46596668132884,33.43011171658031 53.625966681328805,33.46011171658034 54.615966681328814,33.20011171658035 C 55.83596668132884,32.88011171658036 55.545966681328764,34.270111716580345 55.89596668132879,34.85011171658033 C 56.81596668132886,37.8801117165803 52.56596668132886,39.240111716580316 51.59596668132883,34.04011171658033 M 51.80596668132887,27.02011171658029 C 52.005966681328914,25.860111716580263 53.255966681328914,26.350111716580273 54.005966681328914,26.09011171658028 C 54.78596668132889,26.440111716580304 55.575966681328964,26.99011171658026 56.095966681328946,27.77011171658029 C 56.21596668132895,28.670111716580266 56.005966681328914,29.54011171658027 55.13596668132891,29.940111716580304 C 54.585966681328955,30.37011171658031 53.775966681328896,30.06011171658031 53.16596668132888,29.940111716580304 C 52.06596668132886,29.34011171658028 51.33596668132884,28.3201117165803 51.80596668132887,27.02011171658029 M 61.83596668132884,69.81011171658031 C 61.66596668132888,70.4501117165803 60.99596668132881,70.77011171658029 60.35596668132882,70.77011171658029 C 59.48596668132882,69.87011171658031 58.35596668132882,69.0001117165803 58.705966681328846,67.6401117165803 C 59.115966681328814,67.3201117165803 59.83596668132884,66.9401117165803 60.47596668132883,67.21011171658029 C 61.54596668132888,67.6401117165803 61.83596668132884,68.74011171658032 61.83596668132884,69.81011171658031 M 59.42596668132887,37.78011171658028 C 57.61596668132893,34.620111716580254 61.505966681328914,32.170111716580266 62.96596668132884,36.0101117165803 C 63.195966681328855,38.60011171658027 61.38596668132891,39.0101117165803 59.42596668132887,37.78011171658028 M 64.00596668132891,21.390111716580293 C 63.28596668132889,20.550111716580318 63.22596668132894,18.550111716580318 64.00596668132891,17.940111716580304 C 64.6459666813289,17.420111716580323 65.33596668132896,17.62011171658031 66.09596668132895,17.740111716580316 C 67.10596668132894,18.3201117165803 68.21596668132895,19.16011171658033 68.18596668132898,20.470111716580334 C 68.06596668132897,21.14011171658035 67.48596668132893,21.830111716580348 66.85596668132894,22.12011171658031 C 65.7759666813289,22.500111716580307 64.81596668132886,22.000111716580307 64.00596668132891,21.390111716580293 M 66.32596668132885,30.470111716580277 C 67.3959666813289,31.54011171658027 68.47596668132883,32.79011171658027 68.41596668132888,34.440111716580304 C 67.92596668132887,35.6301117165803 66.6459666813289,35.22011171658028 65.57596668132885,35.16011171658033 C 64.5059666813288,34.29011171658033 63.865966681328814,32.87011171658031 63.71596668132884,31.420111716580323 C 64.2659666813289,30.53011171658028 65.36596668132893,30.59011171658028 66.32596668132885,30.470111716580277 M 67.25596668132891,65.55011171658032 C 64.13596668132891,66.91011171658033 64.32596668132896,65.79011171658033 64.32596668132896,63.2601117165803 C 64.5159666813289,62.61011171658032 69.48596668132893,61.09011171658028 67.25596668132891,65.55011171658032 M 68.70596668132885,29.86011171658032 C 67.69596668132885,29.690111716580304 67.71596668132884,28.56011171658031 67.05596668132887,27.980111716580325 C 66.88596668132891,26.880111716580302 66.85596668132882,25.540111716580327 67.46596668132884,24.65011171658034 C 67.8759666813288,24.36011171658032 68.24596668132881,23.950111716580352 68.82596668132885,24.13011171658036 C 70.2759666813289,24.94011171658036 72.85596668132882,25.290111716580384 72.79596668132888,27.550111716580375 C 71.95596668132885,28.960111716580286 70.47596668132894,30.010111716580298 68.70596668132885,29.86011171658032 M 70.18596668132886,46.85011171658027 L 69.75596668132891,46.650111716580284 C 69.29596668132888,45.660111716580275 68.50596668132891,44.8201117165803 68.82596668132896,43.52011171658029 C 70.04596668132899,42.77011171658029 71.63596668132891,42.39011171658029 72.99596668132892,42.80011171658026 C 73.37596668132892,43.70011171658024 74.18596668132898,44.51011171658024 73.71596668132895,45.61011171658026 C 73.34596668132883,47.2601117165803 71.37596668132892,46.7601117165803 70.18596668132886,46.85011171658027 M 71.95596668132885,37.460111716580286 C 73.20596668132885,36.53011171658028 74.8859666813288,37.34011171658028 75.92596668132887,37.98011171658027 C 76.38596668132891,38.56011171658025 75.92596668132887,39.26011171658024 75.92596668132887,39.86011171658026 C 75.48596668132882,40.70011171658024 74.56596668132886,41.57011171658024 73.5159666813289,41.11011171658026 C 72.7659666813289,40.50011171658025 71.83596668132896,40.04011171658027 71.31596668132886,39.25011171658025 C 71.28596668132889,38.53011171658028 71.31596668132886,37.80011171658032 71.95596668132885,37.460111716580286 M 72.15596668132889,63.14011171658029 C 71.1459666813289,62.30011171658032 71.19596668132885,60.50011171658031 72.2759666813289,59.690111716580304 C 74.49596668132892,59.490111716580316 76.90596668132889,61.30011171658032 74.36596668132893,63.02011171658029 C 73.66596668132888,63.17011171658032 72.67596668132887,63.78011171658028 72.15596668132889,63.14011171658029 M 75.92596668132887,70.77011171658029 C 75.48596668132882,71.09011171658028 74.85596668132882,71.4401117165803 74.15596668132889,71.29011171658027 C 73.25596668132891,71.03011171658028 72.35596668132894,70.59011171658028 71.74596668132892,69.93011171658026 C 71.57596668132896,69.67011171658027 71.59596668132895,69.26011171658024 71.74596668132892,69.00011171658025 C 72.23596668132893,68.39011171658024 72.90596668132889,66.97011171658028 73.91596668132888,67.52011171658023 C 74.87596668132892,68.59011171658028 76.53596668132889,69.23011171658032 75.92596668132887,70.77011171658029 M 74.67596668132887,55.72011171658028 C 72.86596668132893,54.3801117165803 72.10596668132882,53.14011171658029 74.44596668132885,51.2601117165803 C 79.45596668132885,50.960111716580286 78.75596668132891,59.2601117165803 74.67596668132887,55.72011171658028 M 74.24596668132892,29.740111716580316 C 74.36596668132893,29.190111716580304 74.96596668132895,28.930111716580313 75.40596668132889,28.700111716580295 C 77.05596668132887,28.000111716580307 78.36596668132893,29.34011171658028 79.57596668132885,30.380111716580302 C 80.09596668132883,30.790111716580327 79.86596668132881,31.630111716580302 79.7759666813289,32.150111716580284 C 79.16596668132888,33.160111716580275 77.94596668132885,34.03011171658028 76.5259666813289,33.80011171658026 C 75.05596668132887,33.14011171658029 74.12596668132892,31.450111716580295 74.24596668132892,29.740111716580316 M 80.09596668132883,45.400111716580284 C 78.47596668132883,44.73011171658027 77.94596668132885,42.7601117165803 78.84596668132883,41.43011171658026 C 79.77596668132878,40.97011171658028 81.04596668132888,40.07011171658024 82.06596668132886,41.02011171658023 C 82.6459666813289,41.86011171658021 83.16596668132888,42.82011171658024 82.78596668132889,43.95011171658024 C 82.18596668132886,44.8801117165803 81.11596668132893,45.54011171658033 80.09596668132883,45.400111716580284 M 81.98596668132893,54.160111716580275 C 79.03596668132889,52.950111716580295 79.04596668132888,49.3201117165803 82.59596668132895,49.170111716580266 C 85.8959666813289,49.900111716580284 85.73596668132893,54.3801117165803 81.98596668132893,54.160111716580275 M 84.99596668132892,57.81011171658031 C 85.28596668132889,58.39011171658029 85.74596668132892,59.00011171658031 85.40596668132889,59.690111716580304 C 85.20596668132885,60.27011171658029 84.7659666813289,60.59011171658028 84.2759666813289,60.940111716580304 C 83.55596668132887,61.3201117165803 82.91596668132888,60.80011171658032 82.3959666813289,60.33011171658029 C 81.87596668132892,59.660111716580275 81.09596668132895,58.940111716580304 80.94596668132885,58.04011171658027 C 81.08596668132884,57.43011171658026 81.84596668132883,57.460111716580286 82.2759666813289,57.200111716580295 C 83.17596668132887,56.85011171658027 84.41596668132888,56.85011171658027 84.99596668132892,57.81011171658031 M 85.31596668132886,70.56011171658031 C 85.31596668132886,70.91011171658033 84.96596668132884,71.08011171658029 84.79596668132888,71.37011171658031 C 84.07596668132885,71.17011171658032 83.40596668132889,71.7501117165803 82.59596668132883,71.6901117165803 C 81.84596668132883,71.02011171658029 80.79596668132888,70.30011171658032 80.94596668132885,69.2001117165803 C 81.49596668132881,68.68011171658031 81.95596668132885,67.49011171658032 82.80596668132887,67.9501117165803 C 83.86596668132893,68.2501117165803 84.79596668132888,69.55011171658032 85.31596668132886,70.56011171658031 M 81.54596668132888,25.450111716580295 C 81.63596668132891,24.440111716580304 82.50596668132891,23.480111716580268 83.42596668132887,23.0701117165803 C 84.84596668132883,22.550111716580318 85.86596668132893,23.62011171658031 86.87596668132892,24.400111716580284 C 87.42596668132887,25.390111716580293 86.35596668132894,25.940111716580304 85.91596668132888,26.600111716580273 C 85.04596668132888,27.180111716580257 83.88596668132891,28.140111716580293 82.78596668132889,27.760111716580298 C 81.98596668132893,27.250111716580307 81.45596668132885,26.440111716580304 81.54596668132888,25.450111716580295 M 86.04596668132888,29.950111716580295 C 86.94596668132885,29.52011171658029 87.92596668132887,29.52011171658029 88.85596668132882,29.86011171658032 C 89.86596668132881,30.270111716580345 90.33596668132884,31.31011171658031 90.10596668132882,32.470111716580334 C 89.78596668132877,33.17011171658032 89.20596668132885,33.980111716580325 88.45596668132885,34.33011171658035 C 87.35596668132882,34.62011171658037 86.28596668132889,34.91011171658033 85.20596668132885,34.33011171658035 C 84.48596668132882,33.92011171658032 84.42596668132887,33.08011171658035 84.48596668132882,32.24011171658037 C 84.93596668132886,31.37011171658031 85.1459666813289,30.640111716580293 86.04596668132888,29.950111716580295 M 88.6459666813289,67.0001117165803 C 88.35596668132894,68.0101117165803 87.16596668132888,67.7501117165803 86.35596668132894,67.96011171658029 C 85.34596668132895,67.52011171658029 84.93596668132898,66.4501117165803 84.87596668132892,65.4401117165803 C 85.36596668132893,64.48011171658032 86.49596668132892,64.11011171658032 87.28596668132889,64.31011171658031 C 88.15596668132889,64.8201117165803 88.53596668132889,65.96011171658029 88.6459666813289,67.0001117165803 M 87.92596668132887,48.42011171658032 C 89.11596668132893,45.18011171658031 94.0259666813289,47.08011171658035 93.54596668132888,49.780111716580336 C 92.22596668132894,52.42011171658032 88.07596668132885,50.950111716580295 87.92596668132887,48.42011171658032 M 89.37596668132892,39.86011171658032 C 90.07596668132896,39.05011171658032 90.67596668132887,37.83011171658035 91.8959666813289,37.89011171658029 C 94.60596668132894,40.28011171658028 94.54596668132888,42.990111716580316 90.73596668132893,42.59011171658028 C 89.83596668132884,41.86011171658032 89.05596668132887,41.200111716580295 89.37596668132892,39.86011171658032 M 91.98596668132893,59.690111716580304 C 89.95596668132896,59.230111716580325 91.78596668132889,57.400111716580284 92.41596668132888,56.67011171658032 C 93.69596668132885,56.58011171658035 94.96596668132884,55.86011171658032 96.06596668132886,56.87011171658031 C 96.61596668132881,57.710111716580286 96.8759666813288,59.16011171658033 95.63596668132891,59.68011171658031 C 94.50596668132891,60.480111716580325 93.25596668132891,59.55011171658032 91.98596668132893,59.690111716580304 M 97.20596668132885,65.87011171658031 C 97.46596668132884,66.42011171658032 97.23596668132882,67.03011171658034 96.79596668132888,67.4401117165803 C 96.24596668132892,67.96011171658029 95.57596668132885,67.56011171658031 94.91596668132888,67.53011171658028 C 93.81596668132886,67.04011171658027 92.42596668132887,65.18011171658026 93.98596668132893,64.2001117165803 C 95.28596668132889,63.87011171658031 96.30596668132887,64.85011171658027 97.20596668132885,65.87011171658031 M 96.79596668132888,36.12011171658031 C 95.57596668132885,35.02011171658029 96.38596668132891,33.190111716580304 96.88596668132891,32.030111716580336 C 101.67596668132887,31.290111716580327 100.86596668132893,39.22011171658028 96.79596668132888,36.12011171658031 M 101.81596668132886,42.59011171658028 C 102.07596668132885,43.34011171658028 101.84596668132883,44.27011171658029 101.17596668132887,44.68011171658026 C 100.2759666813289,45.140111716580236 98.88596668132891,44.80011171658026 98.04596668132888,44.160111716580275 C 97.32596668132885,43.52011171658029 96.91596668132888,41.900111716580284 97.84596668132883,41.120111716580254 C 98.65596668132878,40.830111716580234 99.43596668132886,40.130111716580245 100.33596668132884,40.40011171658023 C 101.17596668132887,40.700111716580295 101.63596668132891,41.72011171658028 101.81596668132886,42.59011171658028 M 101.37596668132892,53.34011171658028 C 100.85596668132894,53.98011171658027 100.21596668132895,54.410111716580275 99.40596668132889,54.3801117165803 C 98.44596668132885,54.18011171658031 98.47596668132894,53.160111716580275 97.83596668132884,52.700111716580295 C 97.51596668132879,52.03011171658028 98.03596668132889,51.42011171658032 98.44596668132885,50.93011171658031 C 98.99596668132881,50.700111716580295 99.60596668132882,50.3201117165803 100.24596668132881,50.61011171658032 C 101.08596668132884,51.230111716580325 101.63596668132891,52.30011171658032 101.37596668132892,53.34011171658028 M 103.98596668132893,30.380111716580302 C 103.23596668132893,30.640111716580293 102.47596668132894,31.250111716580307 101.57596668132896,30.900111716580284 C 101.25596668132891,29.54011171658027 100.415966681329,28.410111716580275 100.44596668132897,26.930111716580257 C 100.56596668132897,26.180111716580257 101.37596668132892,25.71011171658023 102.09596668132895,25.77011171658023 C 103.10596668132894,26.180111716580257 104.32596668132896,26.49011171658026 104.82596668132896,27.650111716580227 C 105.17596668132887,28.700111716580295 104.74596668132892,29.740111716580316 103.98596668132893,30.380111716580302 M 101.58596668132884,16.900111716580284 C 101.8759666813288,16.55011171658026 102.22596668132883,16.380111716580302 102.54596668132888,16.180111716580257 C 103.73596668132893,15.920111716580266 104.98596668132893,16.150111716580284 105.99596668132892,16.70011171658024 C 106.40596668132889,17.400111716580227 106.5159666813289,18.380111716580245 106.28596668132889,19.190111716580248 C 105.7659666813289,19.71011171658023 105.35596668132894,20.29011171658027 104.5159666813289,20.350111716580273 C 103.0259666813289,19.77011171658029 101.20596668132885,18.81011171658031 101.58596668132884,16.900111716580284 M 105.66596668132888,62.10011171658027 C 106.12596668132892,62.77011171658029 106.67596668132887,63.400111716580284 106.70596668132885,64.30011171658026 C 106.24596668132881,65.34011171658028 105.1359666813288,65.75011171658025 104.09596668132883,65.87011171658025 C 102.8759666813288,65.75011171658025 102.90596668132878,64.39011171658024 102.32596668132885,63.670111716580266 C 102.73596668132882,62.74011171658026 103.71596668132884,62.77011171658029 104.29596668132888,61.99011171658026 C 104.74596668132892,61.43011171658031 105.1459666813289,62.22011171658028 105.66596668132888,62.10011171658027 M 108.88596668132891,51.02011171658029 C 108.50596668132891,51.22011171658028 108.16596668132888,51.77011171658029 107.75596668132891,51.54011171658027 C 106.30596668132887,51.19011171658025 105.20596668132896,49.57011171658024 104.94596668132897,48.120111716580254 C 105.06596668132897,47.02011171658023 105.81596668132897,46.18011171658026 106.80596668132898,45.80011171658026 C 107.32596668132896,45.57011171658024 108.08596668132896,45.710111716580286 108.285966681329,46.32011171658024 C 108.19596668132885,48.0101117165803 110.19596668132885,49.37011171658031 108.88596668132891,51.02011171658029 M 106.91596668132888,31.83011171658029 C 107.72596668132883,32.06011171658031 108.59596668132883,32.47011171658028 109.11596668132893,33.190111716580304 C 109.72596668132894,33.91011171658033 108.91596668132888,34.61011171658032 108.47596668132894,35.16011171658033 C 107.57596668132896,35.59011171658034 106.88596668132891,34.90011171658034 106.18596668132898,34.55011171658032 C 105.86596668132893,34.00011171658031 105.43596668132898,33.5101117165803 105.54596668132899,32.75011171658031 C 105.69596668132885,32.150111716580284 106.45596668132885,31.83011171658029 106.91596668132888,31.83011171658029 M 108.36596668132893,37.690111716580304 C 109.23596668132893,37.72011171658028 109.84596668132895,38.50011171658031 110.36596668132893,39.14011171658029 C 110.42596668132887,39.78011171658028 111.11596668132893,40.39011171658029 110.56596668132897,41.02011171658029 C 109.98596668132893,41.72011171658028 108.97596668132894,42.150111716580284 108.07596668132896,41.950111716580295 C 107.32596668132896,41.72011171658028 107.35596668132894,40.7601117165803 107.23596668132893,40.0701117165803 C 107.69596668132885,39.31011171658031 107.05596668132887,37.72011171658028 108.36596668132893,37.690111716580304 M 112.65596668132889,56.56011171658031 C 111.87596668132892,57.2601117165803 110.71596668132884,57.00011171658031 109.72596668132894,57.200111716580295 C 109.00596668132891,56.62011171658031 107.69596668132897,56.27011171658029 107.95596668132896,55.11011171658032 C 108.36596668132893,53.980111716580325 109.46596668132895,53.08011171658035 110.56596668132897,53.020111716580345 C 111.61596668132893,53.78011171658028 112.82596668132885,55.17011171658032 112.65596668132889,56.56011171658031 M 115.58596668132884,40.910111716580275 C 114.10596668132882,40.19011171658025 113.09596668132883,38.33011171658029 113.90596668132889,36.74011171658026 C 114.60596668132894,36.22011171658028 115.29596668132888,35.32011171658024 116.42596668132887,35.61011171658026 C 117.20596668132885,36.22011171658028 117.99596668132892,37.00011171658025 118.28596668132889,37.900111716580284 C 118.66596668132888,38.97011171658028 118.22596668132894,39.99011171658026 117.35596668132894,40.710111716580286 C 116.82596668132885,41.230111716580325 116.22596668132894,40.990111716580316 115.58596668132884,40.910111716580275 M 117.46596668132884,43.43011171658031 C 118.36596668132881,44.04011171658033 120.1359666813288,44.18011171658031 120.07596668132885,45.60011171658033 C 119.55596668132887,46.96011171658034 118.0159666813289,46.70011171658035 116.94596668132885,47.17011171658032 C 116.16596668132888,47.34011171658034 115.35596668132882,46.970111716580334 114.74596668132881,46.450111716580295 C 114.65596668132878,45.490111716580316 114.36596668132881,44.5701117165803 115.15596668132878,43.84011171658028 C 115.78596668132889,43.400111716580284 116.74596668132892,43.400111716580284 117.46596668132884,43.43011171658031 M 116.71596668132884,54.39011171658029 C 115.81596668132886,54.0101117165803 115.52596668132878,53.06011171658031 114.94596668132885,52.39011171658029 C 114.53596668132889,51.84011171658028 114.42596668132887,51.00011171658031 115.06596668132886,50.62011171658031 C 115.99596668132881,50.56011171658031 117.35596668132882,50.210111716580286 118.08596668132884,50.940111716580304 C 118.5259666813289,51.61011171658032 119.44596668132885,52.36011171658032 119.04596668132888,53.35011171658033 C 118.54596668132888,54.160111716580275 117.61596668132893,54.68011171658031 116.71596668132884,54.39011171658029 M 115.46596668132884,32.150111716580284 C 115.11596668132881,31.630111716580302 114.82596668132885,31.08011171658029 114.94596668132885,30.380111716580302 C 115.35596668132882,29.050111716580318 117.0059666813288,29.420111716580323 117.98596668132882,28.81011171658031 C 118.5059666813288,28.550111716580318 119.43596668132886,28.750111716580307 119.7559666813288,29.420111716580323 C 120.07596668132885,29.85011171658033 120.07596668132885,30.670111716580323 119.7559666813288,31.10011171658033 C 119.32596668132885,31.740111716580316 118.65596668132878,32.29011171658033 117.98596668132882,32.55011171658032 C 117.1459666813289,32.730111716580325 116.10596668132894,32.7601117165803 115.46596668132884,32.150111716580284 M 121.93596668132886,62.42011171658032 C 122.28596668132889,63.17011171658032 121.2659666813289,63.200111716580295 121.12596668132892,63.67011171658032 C 120.28596668132889,64.1901117165803 119.18596668132886,64.71011171658034 118.19596668132897,64.1901117165803 C 117.58596668132896,63.87011171658031 117.76596668132902,63.230111716580325 117.35596668132894,62.83011171658029 C 117.09596668132895,62.22011171658028 116.42596668132899,61.06011171658031 117.55596668132898,60.660111716580275 C 119.17596668132887,60.910111716580275 120.56596668132886,61.61011171658032 121.93596668132886,62.42011171658032 M 123.93596668132886,27.86011171658032 C 123.18596668132886,27.980111716580325 122.54596668132888,28.12011171658031 121.84596668132883,27.770111716580345 C 121.06596668132886,27.16011171658033 119.78596668132889,26.780111716580336 119.84596668132883,25.570111716580357 C 120.07596668132885,24.35011171658033 121.29596668132888,24.270111716580345 121.93596668132886,23.48011171658038 C 123.2659666813289,23.42011171658038 124.13596668132891,24.760111716580354 124.66596668132888,25.770111716580402 C 125.03596668132889,26.700111716580295 124.48596668132893,27.220111716580277 123.93596668132886,27.86011171658032 M 126.42596668132887,38.730111716580325 C 125.2659666813289,38.18011171658031 123.98596668132882,37.690111716580304 123.20596668132885,36.41011171658033 C 123.08596668132884,35.770111716580345 123.29596668132888,35.25011171658031 123.81596668132886,34.84011171658034 C 124.22596668132883,34.38011171658036 124.85596668132882,34.060111716580366 125.49596668132881,33.91011171658033 C 126.79596668132876,34.58011171658035 128.48596668132882,36.17011171658032 128.6259666813288,37.88011171658036 C 128.04596668132888,38.8201117165803 127.2659666813289,38.36011171658032 126.42596668132887,38.730111716580325 M 124.45596668132885,22.3201117165803 C 123.90596668132889,21.62011171658031 123.67596668132887,20.380111716580302 124.2559666813288,19.62011171658031 C 124.77596668132878,19.210111716580286 125.29596668132876,19.420111716580323 125.90596668132878,19.500111716580307 C 126.83596668132873,19.91011171658033 127.67596668132876,20.86011171658032 127.90596668132878,21.790111716580327 C 127.93596668132875,22.460111716580343 127.49596668132881,23.010111716580354 127.06596668132875,23.36011171658032 C 125.99596668132892,23.480111716580325 125.15596668132889,22.900111716580284 124.45596668132885,22.3201117165803 M 124.45596668132885,44.150111716580284 C 124.91596668132888,41.85011171658027 127.42596668132887,41.62011171658031 128.6259666813288,43.83011171658029 C 128.71596668132884,44.3201117165803 129.08596668132884,45.11011171658026 128.5059666813288,45.5101117165803 C 127.80596668132875,46.18011171658031 126.6259666813288,46.3801117165803 125.80596668132875,46.12011171658031 C 125.03596668132889,45.78011171658028 124.45596668132885,44.990111716580316 124.45596668132885,44.150111716580284 M 129.7659666813289,50.210111716580286 C 130.31596668132886,51.11011171658026 129.7659666813289,52.0701117165803 129.04596668132888,52.700111716580295 C 128.34596668132883,53.400111716580284 127.2759666813289,53.400111716580284 126.34596668132883,53.22011171658028 C 125.18596668132886,52.700111716580295 124.7559666813288,51.5101117165803 124.77596668132878,50.29011171658027 C 125.47596668132883,49.19011171658025 126.92596668132876,49.0101117165803 128.19596668132874,48.84011171658028 C 128.94596668132885,49.02011171658029 129.55596668132887,49.43011171658031 129.7659666813289,50.210111716580286 M 128.31596668132886,58.450111716580295 C 128.83596668132884,59.09011171658028 129.06596668132886,59.84011171658028 128.72596668132883,60.650111716580284 C 128.31596668132886,61.2601117165803 127.71596668132884,61.900111716580284 126.86596668132881,61.690111716580304 C 125.41596668132877,61.230111716580325 124.48596668132882,59.5701117165803 125.5059666813288,58.240111716580316 C 126.33596668132884,57.6301117165803 127.5259666813289,58.04011171658033 128.31596668132886,58.450111716580295 M 133.41596668132888,64.1901117165803 C 133.67596668132887,64.86011171658032 134.2559666813289,65.6401117165803 133.73596668132893,66.3901117165803 C 133.1559666813289,67.72011171658028 131.70596668132896,66.8201117165803 130.71596668132895,67.0001117165803 L 130.19596668132897,66.48011171658032 C 130.31596668132897,65.35011171658033 129.35596668132894,63.81011171658031 130.71596668132895,63.15011171658034 C 131.70596668132885,62.97011171658028 132.71596668132884,63.35011171658027 133.41596668132888,64.1901117165803 M 134.37596668132892,53.950111716580295 C 133.94596668132897,53.660111716580275 133.41596668132888,53.52011171658029 132.8959666813289,53.43011171658031 C 132.37596668132892,52.68011171658031 132.60596668132894,51.84011171658034 132.69596668132885,50.940111716580304 C 133.0159666813289,50.10011171658033 133.8859666813289,49.78011171658028 134.69596668132885,49.690111716580304 C 136.81596668132886,49.52011171658029 135.44596668132885,51.84011171658028 135.82596668132885,52.91011171658033 C 135.58596668132884,53.400111716580284 134.95596668132885,53.87011171658031 134.37596668132892,53.950111716580295 M 134.16596668132888,41.950111716580295 C 135.06596668132886,39.04011171658027 139.86596668132893,38.64011171658029 139.06596668132886,43.950111716580295 C 138.3659666813288,44.0701117165803 138.31596668132886,44.960111716580286 137.4959666813288,44.7601117165803 C 136.2559666813289,44.150111716580284 134.6359666813289,43.34011171658028 134.16596668132888,41.950111716580295 M 139.3859666813289,58.97011171658028 C 139.79596668132888,59.75011171658025 140.31596668132886,60.56011171658025 140.10596668132894,61.460111716580286 C 139.5259666813289,62.97011171658028 137.84596668132895,62.30011171658026 136.6559666813289,62.62011171658031 C 135.43596668132886,62.740111716580316 135.6459666813289,61.3201117165803 134.97596668132894,60.740111716580316 C 134.80596668132898,60.04011171658033 134.2559666813289,59.06011171658031 135.295966681329,58.77011171658029 C 136.60596668132894,59.29011171658033 138.1359666813289,58.59011171658028 139.3859666813289,58.97011171658028 M 135.81596668132886,36.64011171658029 C 134.91596668132888,35.83011171658029 134.80596668132887,33.710111716580286 135.93596668132886,33.0701117165803 C 136.8959666813289,32.87011171658031 137.81596668132886,33.39011171658029 138.54596668132888,34.03011171658028 C 139.0059666813289,34.64011171658029 139.47596668132883,35.36011171658026 139.2659666813289,36.120111716580254 C 139.0359666813289,36.61011171658026 138.48596668132893,36.79011171658027 138.10596668132894,37.160111716580275 C 137.29596668132888,37.460111716580286 136.45596668132885,37.11011171658032 135.81596668132886,36.64011171658029 M 141.56596668132886,51.460111716580286 C 140.84596668132883,52.59011171658028 139.3659666813288,51.920111716580266 138.43596668132886,51.660111716580275 C 137.30596668132887,50.44011171658025 138.23596668132882,48.99011171658026 138.55596668132887,47.69011171658025 C 139.68596668132886,46.73011171658027 141.10596668132882,47.660111716580275 142.20596668132885,48.120111716580254 C 142.60596668132894,49.230111716580325 141.93596668132886,50.53011171658028 141.56596668132886,51.460111716580286 M 142.60596668132894,31.11011171658032 C 143.8859666813289,30.56011171658031 145.06596668132897,31.520111716580345 146.175966681329,32.04011171658033 C 146.87596668132903,32.50011171658031 146.95596668132896,33.14011171658035 146.69596668132897,33.81011171658031 C 146.20596668132896,34.8801117165803 145.045966681329,35.400111716580284 144.08596668132896,35.3801117165803 L 142.5159666813289,33.81011171658031 C 142.66596668132888,32.8801117165803 141.6459666813289,31.86011171658032 142.60596668132894,31.11011171658032 M 144.08596668132884,58.33011171658029 C 142.80596668132887,57.55011171658032 141.70596668132885,55.84011171658028 142.60596668132882,54.47011171658028 C 147.37596668132892,53.28011171658028 145.48596668132893,58.25011171658031 144.08596668132884,58.33011171658029 M 144.16596668132888,24.930111716580313 C 144.36596668132893,24.380111716580302 145.0059666813289,23.890111716580293 145.5259666813289,24.12011171658031 C 146.16596668132888,24.27011171658029 146.8859666813289,24.530111716580336 146.7759666813289,25.37011171658031 C 146.42596668132887,26.730111716580325 147.29596668132888,29.230111716580325 145.20596668132885,29.230111716580325 C 143.7659666813289,28.350111716580273 144.08596668132884,26.440111716580304 144.16596668132888,24.930111716580313 M 149.5059666813289,43.72011171658028 C 148.95596668132896,44.210111716580286 148.2559666813289,44.56011171658025 147.5059666813289,44.24011171658026 C 146.31596668132886,43.630111716580245 145.62596668132892,42.410111716580275 145.85596668132894,41.02011171658023 C 146.0259666813289,40.15011171658023 147.045966681329,40.03011171658022 147.73596668132893,40.300111716580204 C 148.54596668132888,40.820111716580186 149.32596668132896,41.4901117165802 149.70596668132896,42.39011171658018 C 149.79596668132888,42.7601117165803 150.0259666813289,43.460111716580286 149.5059666813289,43.72011171658028 M 148.2559666813289,36.0101117165803 C 148.80596668132887,35.460111716580286 149.5059666813289,34.910111716580275 150.34596668132895,35.29011171658027 C 150.69596668132897,35.55011171658026 150.98596668132893,36.0101117165803 150.95596668132896,36.54011171658027 C 150.98596668132893,37.150111716580284 150.69596668132897,37.73011171658027 150.34596668132895,38.11011171658026 C 149.85596668132894,38.72011171658028 149.0159666813289,38.69011171658025 148.34596668132895,38.52011171658029 C 146.80596668132887,38.27011171658029 147.73596668132893,36.62011171658031 148.2559666813289,36.0101117165803 M 150.11596668132893,57.92011171658032 L 149.18596668132898,57.200111716580295 C 148.98596668132893,55.92011171658032 147.76596668132902,54.33011171658029 148.98596668132893,53.23011171658027 C 150.49596668132892,52.82011171658024 152.4059666813289,53.78011171658028 153.36596668132893,55.200111716580295 C 153.59596668132895,56.04011171658027 153.16596668132888,56.85011171658027 152.43596668132898,57.400111716580284 C 151.79596668132888,57.92011171658032 150.8959666813289,58.0701117165803 150.11596668132893,57.92011171658032 M 153.56596668132886,59.900111716580284 C 154.67596668132887,63.02011171658029 154.29596668132888,63.27011171658029 151.2759666813289,62.420111716580266 C 148.73596668132893,60.990111716580316 152.0059666813289,58.740111716580316 153.56596668132886,59.900111716580284 M 156.8959666813289,48.0101117165803 C 157.3859666813289,48.650111716580284 157.0159666813289,49.58011171658029 156.2859666813289,49.89011171658029 C 155.70596668132885,49.89011171658029 155.0359666813289,50.35011171658027 154.5159666813289,49.89011171658029 C 153.35596668132894,49.48011171658027 153.2659666813289,48.12011171658031 153.35596668132894,47.160111716580275 C 153.58596668132896,46.35011171658027 154.5159666813289,46.06011171658025 155.23596668132893,46.3201117165803 C 155.99596668132892,46.650111716580284 156.49596668132892,47.34011171658028 156.8959666813289,48.0101117165803 M 153.8859666813289,39.02011171658029 C 154.0059666813289,38.35011171658027 154.55596668132887,37.60011171658027 155.24596668132892,37.450111716580295 C 156.23596668132893,37.190111716580304 157.24596668132892,37.5701117165803 157.94596668132897,38.29011171658027 C 158.43596668132898,38.960111716580286 158.72596668132894,39.83011171658029 158.58596668132896,40.58011171658029 C 157.80596668132898,40.960111716580286 156.84596668132895,41.62011171658031 155.775966681329,41.22011171658028 C 154.95596668132885,40.67011171658032 153.6459666813289,40.33011171658029 153.8859666813289,39.02011171658029 M 161.3959666813289,56.36011171658032 C 161.45596668132885,56.970111716580334 160.98596668132893,57.17011171658032 160.55596668132887,57.520111716580345 C 159.8859666813289,57.780111716580336 159.10596668132882,57.75011171658036 158.58596668132884,57.20011171658035 C 157.59596668132883,56.45011171658035 157.3959666813288,54.970111716580334 157.94596668132885,53.95011171658035 C 158.1159666813288,53.34011171658034 158.98596668132882,53.230111716580325 159.5159666813289,53.34011171658034 C 160.60596668132894,53.87011171658031 161.33596668132884,55.11011171658032 161.3959666813289,56.36011171658032 M 163.68596668132886,44.47011171658028 C 163.59596668132883,45.02011171658029 163.16596668132888,45.460111716580286 162.6459666813289,45.72011171658028 C 161.74596668132892,45.98011171658027 160.5259666813289,45.78011171658028 159.74596668132892,45.08011171658029 C 159.07596668132896,44.36011171658026 158.73596668132893,42.8801117165803 159.62596668132892,42.150111716580284 C 160.29596668132888,41.74011171658026 161.21596668132895,41.6301117165803 162.0359666813289,41.86011171658026 C 162.8959666813289,42.59011171658028 163.47596668132894,43.460111716580286 163.68596668132886,44.47011171658028 M 160.1459666813289,29.540111716580327 C 160.7859666813289,28.760111716580354 161.5059666813289,29.11011171658032 162.43596668132886,29.020111716580345 C 163.1559666813289,28.990111716580373 163.1559666813289,29.740111716580373 163.2759666813289,30.270111716580345 C 163.73596668132893,31.34011171658034 162.95596668132885,32.21011171658034 162.34596668132895,32.88011171658036 C 161.44596668132897,33.08011171658035 160.8959666813289,32.530111716580336 160.1459666813289,32.470111716580334 C 159.21596668132884,31.83011171658029 159.21596668132884,30.27011171658029 160.1459666813289,29.540111716580327 M 162.55596668132887,34.960111716580286 C 163.80596668132887,35.10011171658027 164.99596668132892,35.5101117165803 165.3659666813288,36.84011171658028 C 165.6259666813288,37.420111716580266 165.85596668132882,38.55011171658026 165.16596668132877,39.0101117165803 C 164.58596668132873,39.450111716580295 163.7459666813288,39.53011171658028 163.07596668132874,39.450111716580295 L 162.1159666813287,38.490111716580316 C 161.97596668132894,37.31011171658031 161.44596668132885,35.80011171658032 162.55596668132887,34.960111716580286 M 167.33596668132884,50.730111716580325 L 165.7659666813288,50.61011171658032 C 165.0159666813288,50.09011171658034 163.7659666813288,49.65011171658034 164.43596668132875,48.41011171658033 C 164.46596668132872,47.13011171658036 165.3659666813287,46.00011171658031 166.52596668132878,45.60011171658033 C 168.1459666813288,45.020111716580345 168.35596668132882,47.25011171658031 169.33596668132873,47.89011171658035 C 169.71596668132872,48.760111716580354 168.89596668132867,49.770111716580345 170.17596668132876,50.09011171658034 C 170.46596668132872,50.70011171658035 170.8959666813288,51.34011171658034 170.58596668132873,52.060111716580366 C 170.0059666813287,52.64011171658035 169.16596668132877,52.84011171658034 168.38596668132868,52.58011171658035 C 167.56596668132886,52.36011171658032 167.3959666813289,51.490111716580316 167.33596668132884,50.730111716580325 M 172.0359666813289,57.61011171658032 C 171.10596668132894,58.62011171658031 169.54596668132888,58.220111716580334 168.3859666813289,58.770111716580345 C 167.16596668132888,58.39011171658035 167.60596668132894,56.36011171658032 168.09596668132895,55.520111716580345 C 168.795966681329,55.17011171658032 169.425966681329,55.69011171658036 170.06596668132897,55.84011171658034 C 170.7859666813289,56.27011171658029 172.0359666813289,56.56011171658031 172.0359666813289,57.61011171658032 M 175.3959666813289,42.150111716580284 C 175.91596668132888,43.190111716580304 176.7859666813289,44.09011171658028 176.72596668132894,45.400111716580284 C 176.175966681329,45.72011171658028 175.85596668132894,46.39011171658029 175.1559666813289,46.650111716580284 C 174.6359666813289,46.710111716580286 174.19596668132885,46.59011171658028 173.82596668132885,46.33011171658029 C 172.43596668132886,45.72011171658028 171.9959666813288,43.920111716580266 172.98596668132882,42.910111716580275 C 173.68596668132886,42.3801117165803 174.43596668132886,41.75011171658031 175.3959666813289,42.150111716580284 M 179.45596668132885,41.230111716580325 C 178.9059666813289,41.58011171658035 178.23596668132882,41.87011171658031 177.57596668132885,41.64011171658035 C 175.8959666813289,41.470111716580334 176.2459666813288,39.520111716580345 176.6459666813289,38.42011171658032 C 176.9059666813289,37.700111716580295 177.83596668132896,37.43011171658031 178.5259666813289,37.58011171658035 C 179.07596668132885,38.04011171658033 179.56596668132886,38.74011171658037 179.7759666813289,39.46011171658034 C 179.97596668132894,40.04011171658033 179.8859666813289,40.7601117165803 179.45596668132885,41.230111716580325 M 182.46596668132884,49.2601117165803 C 182.69596668132885,50.1301117165803 182.58596668132884,51.14011171658029 182.17596668132887,51.87011171658031 C 181.56596668132886,52.220111716580334 180.7559666813289,52.68011171658031 180.08596668132884,52.190111716580304 C 179.1259666813288,51.200111716580295 178.6359666813288,49.18011171658031 180.4959666813288,48.650111716580284 C 181.2759666813289,48.53011171658028 182.0359666813289,48.730111716580325 182.46596668132884,49.2601117165803 M 189.8859666813289,48.210111716580286 C 189.91596668132888,48.910111716580275 189.30596668132887,49.170111716580266 188.84596668132895,49.5701117165803 C 188.55596668132898,49.77011171658029 188.035966681329,49.660111716580275 187.915966681329,49.37011171658031 L 188.00596668132903,49.25011171658031 C 186.96596668132906,48.58011171658029 186.905966681329,47.28011171658028 187.59596668132906,46.440111716580304 C 188.0559666813291,46.06011171658031 188.34596668132906,46.30011171658032 188.95596668132907,46.240111716580316 C 189.74596668132892,46.59011171658028 189.8859666813289,47.43011171658031 189.8859666813289,48.210111716580286"/>
</svg>
