<?xml version="1.0" ?>
<svg xmlns="http://www.w3.org/2000/svg" xmlns:ev="http://www.w3.org/2001/xml-events" xmlns:xlink="http://www.w3.org/1999/xlink" baseProfile="full" height="97" id="Layer_1" style="enable-background:new 0 0 1190.55 841.89;" transform="scale(1.0309278350515463 1.0309278350515463) translate(-73.0 -48.5)" version="1.1" viewBox="0 0 146 97" width="146" x="0px" xml:space="preserve" y="0px">
	<defs/>
	<path d="M 35.443689485894765,60.517611058208786 C 35.21368948589475,60.517611058208786 34.97368948589474,60.54761105820876 34.74368948589472,60.517611058208786 C 29.603689485894733,59.757611058208795 25.67368948589467,62.09761105820877 22.123689485894715,65.42761105820881 C 20.41368948589468,67.02761105820883 18.713689485894747,68.64761105820884 16.903689485894688,70.14761105820884 C 15.92368948589467,70.95761105820884 14.813689485894656,71.69761105820885 13.633689485894706,72.13761105820885 C 10.68368948589466,73.23761105820887 7.593689485894743,71.49761105820886 7.453689485894756,68.40761105820883 C 7.343689485894743,65.98761105820881 6.393689485894811,64.46761105820883 4.463689485894747,63.247611058208804 C 2.2736894858946926,61.85761105820882 1.793689485894788,59.8176110582088 2.5236894858946926,57.41761105820882 C 2.663689485894679,56.96761105820883 2.8436894858947426,56.527611058208834 2.9336894858946607,56.077611058208845 C 3.313689485894656,54.277611058208834 3.2136894858946334,52.577611058208845 1.8836894858947062,51.127611058208856 C 1.4936894858947198,50.69761105820885 1.153689485894688,50.20761105820884 0.8536894858947335,49.70761105820884 C -0.47631051410530745,47.50761105820885 -0.2863105141052529,45.037611058208824 1.663689485894679,43.34761105820883 C 3.133689485894706,42.077611058208845 3.9536894858946425,40.777611058208834 3.6936894858946516,38.807611058208806 C 3.6236894858946016,38.257611058208795 3.833689485894638,37.64761105820878 4.0236894858946926,37.09761105820883 C 4.863689485894724,34.73761105820881 6.513689485894702,33.787611058208824 8.963689485894747,34.297611058208815 C 11.07368948589476,34.73761105820881 12.903689485894802,35.797611058208815 14.57368948589476,37.11761105820881 C 16.50368948589471,38.63761105820879 18.383689485894706,40.247611058208804 20.363689485894724,41.707611058208784 C 21.863689485894724,42.8176110582088 23.453689485894756,43.82761105820879 25.05368948589478,44.78761105820877 C 26.493689485894834,45.64761105820878 28.103689485894733,46.017611058208786 29.783689485894797,45.83761105820878 C 30.56368948589477,45.757611058208795 31.763689485894815,45.747611058208804 32.003689485894824,45.29761105820876 C 32.56368948589477,44.24761105820875 31.233689485894843,44.13761105820873 30.673689485894784,43.697611058208736 C 28.08368948589475,41.677611058208754 27.58368948589475,39.77761105820872 29.213689485894747,37.01761105820873 C 29.943689485894765,35.78761105820871 30.443689485894765,34.5476110582087 30.75368948589471,33.147611058208724 C 31.313689485894656,30.61761105820875 33.0136894858947,29.467611058208718 35.68368948589466,29.747611058208747 C 39.50368948589471,30.147611058208724 43.03368948589468,31.287611058208768 45.61368948589461,34.397611058208724 C 46.28368948589457,35.20761105820873 46.983689485894615,35.99761105820875 47.68368948589466,36.7976110582087 C 48.77368948589469,38.0476110582087 49.053689485894665,38.09761105820871 50.243689485894606,37.18761105820869 C 50.61368948589461,36.907611058208715 50.94368948589465,36.56761105820868 51.30368948589455,36.26761105820867 C 52.173689485894556,35.537611058208654 52.28368948589457,34.787611058208654 51.51368948589459,33.867611058208695 C 49.673689485894556,31.687611058208688 49.85368948589462,29.267611058208672 51.11368948589461,26.967611058208718 C 51.70368948589464,25.887611058208734 52.673689485894556,24.81761105820874 53.743689485894606,24.24761105820869 C 56.723689485894624,22.637611058208677 58.39368948589458,20.137611058208677 59.663689485894565,17.117611058208695 C 62.06368948589454,11.417611058208706 62.413689485894565,11.197611058208679 68.47368948589451,10.937611058208688 C 70.40368948589446,10.857611058208704 71.87368948589449,10.2376110582087 72.93368948589455,8.637611058208677 C 73.19368948589454,8.24761105820869 73.49368948589449,7.877611058208686 73.7536894858946,7.487611058208699 C 75.82368948589465,4.337611058208722 78.82368948589465,3.2076110582087267 82.29368948589456,4.327611058208674 C 85.30368948589455,5.297611058208702 87.1036894858945,4.647611058208668 88.61368948589461,1.8876110582086767 C 89.73368948589462,-0.15238894179134377 91.67368948589456,-0.47238894179133695 93.78368948589457,0.607611058208704 C 94.70368948589453,1.0776110582087313 95.53368948589457,1.77761105820872 96.33368948589452,2.447611058208679 C 97.14368948589447,3.127611058208686 97.8536894858945,3.9076110582086585 98.62368948589449,4.637611058208677 C 99.89368948589447,5.847611058208656 101.31368948589454,6.507611058208681 103.09368948589452,5.807611058208693 C 103.41368948589457,5.677611058208697 103.77368948589447,5.617611058208695 104.1136894858945,5.557611058208693 C 106.69368948589454,5.0676110582086835 107.77368948589447,5.537611058208711 108.84368948589452,7.987611058208699 C 109.44368948589454,9.367611058208695 109.76368948589447,10.877611058208686 110.12368948589449,12.347611058208713 C 110.28368948589446,13.017611058208729 110.24368948589449,13.74761105820869 110.26368948589447,14.447611058208736 C 110.33368948589452,16.29761105820876 110.39368948589447,18.157611058208715 110.45368948589453,20.007611058208738 C 112.16368948589457,20.737611058208756 113.90368948589457,21.407611058208715 115.58368948589452,22.197611058208736 C 123.06368948589454,25.707611058208727 130.00368948589448,30.05761105820875 136.1136894858945,35.62761105820874 C 138.96368948589452,38.227611058208765 141.63368948589448,41.04761105820876 144.15368948589446,43.96761105820872 C 145.9736894858945,46.07761105820873 145.84368948589452,47.667611058208706 144.3536894858945,50.06761105820874 C 144.29368948589456,50.16761105820876 144.21368948589452,50.25761105820874 144.1236894858945,50.33761105820872 C 143.21368948589452,51.1776110582087 143.56368948589454,51.77761105820872 144.25368948589448,52.6776110582087 C 145.9736894858945,54.897611058208724 145.3736894858945,56.88761105820868 142.8636894858945,58.00761105820868 C 142.43368948589455,58.19761105820868 141.9936894858945,58.38761105820868 141.53368948589446,58.46761105820866 C 137.92368948589444,59.14761105820867 134.63368948589448,60.63761105820868 131.3636894858945,62.26761105820867 C 126.72368948589451,64.58761105820867 121.65368948589446,65.70761105820867 116.66368948589445,67.00761105820868 C 111.78368948589446,68.27761105820866 106.89368948589447,69.46761105820866 101.99368948589449,70.64761105820867 C 100.7336894858945,70.94761105820868 99.84368948589452,71.54761105820864 99.50368948589448,72.81761105820868 C 99.04368948589445,74.50761105820868 98.53368948589446,76.18761105820869 98.17368948589444,77.89761105820867 C 97.66368948589445,80.29761105820864 97.39368948589447,82.75761105820868 96.79368948589445,85.13761105820868 C 95.69368948589442,89.46761105820866 92.77368948589447,92.4876110582087 89.18368948589443,94.90761105820866 C 87.7136894858944,95.89761105820867 86.03368948589446,96.51761105820867 84.20368948589442,96.30761105820864 C 81.14368948589447,95.94761105820862 78.62368948589437,93.74761105820863 78.5936894858944,90.48761105820864 C 78.54368948589445,86.45761105820867 77.79368948589445,82.90761105820866 75.24368948589438,79.69761105820862 C 74.26368948589436,78.45761105820861 74.79368948589433,76.9776110582086 75.90368948589435,75.87761105820863 C 76.73368948589439,75.05761105820864 77.68368948589432,74.34761105820866 78.51368948589436,73.53761105820865 C 78.95368948589442,73.10761105820865 78.76368948589436,72.64761105820867 78.20368948589442,72.49761105820863 C 77.41368948589445,72.28761105820865 76.60368948589439,72.07761105820862 75.79368948589445,72.05761105820864 C 72.80368948589444,71.98761105820864 70.02368948589447,71.14761105820861 67.29368948589445,70.01761105820862 C 65.56368948589443,69.29761105820859 63.82368948589442,68.5976110582086 62.06368948589443,67.94761105820862 C 59.773689485894465,67.08761105820861 59.773689485894465,67.10761105820865 59.33368948589441,69.36761105820864 C 59.0936894858944,70.63761105820862 58.99368948589438,71.95761105820861 58.533689485894456,73.14761105820861 C 57.38368948589448,76.08761105820861 56.06368948589443,78.9676110582086 54.80368948589444,81.86761105820864 C 54.33368948589441,82.95761105820861 53.38368948589448,83.41761105820865 52.30368948589444,83.57761105820862 C 48.32368948589442,84.17761105820864 44.79368948589445,83.26761105820862 42.2236894858944,80.01761105820862 C 40.623689485894374,77.99761105820863 39.0936894858944,75.9676110582086 37.213689485894406,74.1576110582086 C 34.883689485894365,71.92761105820858 35.06368948589443,70.11761105820858 37.42368948589444,67.85761105820859 C 39.033689485894456,66.31761105820857 40.693689485894424,64.82761105820862 42.23368948589439,63.227611058208595 C 42.65368948589435,62.79761105820859 42.873689485894374,62.027611058208606 42.86368948589438,61.41761105820859 C 42.86368948589438,61.197611058208565 41.93368948589443,60.8476110582086 41.40368948589435,60.79761105820859 C 39.42368948589433,60.62761105820857 37.42368948589433,60.56761105820857 35.43368948589432,60.45761105820861 C 35.453689485894756,60.467611058208774 35.443689485894765,60.48761105820881 35.443689485894765,60.517611058208786"/>
</svg>
