<?xml version="1.0" ?>
<svg xmlns="http://www.w3.org/2000/svg" xmlns:ev="http://www.w3.org/2001/xml-events" xmlns:xlink="http://www.w3.org/1999/xlink" baseProfile="full" enable-background="new 0 0 1000 1000" height="260" id="Layer_1" transform="scale(0.38461538461538464 0.38461538461538464) translate(-445.5 -130.0)" version="1.1" viewBox="0 0 891 260" width="891" x="0px" xml:space="preserve" y="0px">
	<defs/>
	<path d="M 26.23787470053861,191.67970946028134 C 31.937874700538615,185.9797094602813 44.03787470053861,176.27970946028137 60.6378747005386,167.4797094602813 C 77.1378747005386,158.57970946028132 97.93787470053859,150.4797094602813 119.93787470053859,146.07970946028132 C 158.1378747005386,138.17970946028134 197.2378747005386,137.2797094602813 235.6378747005386,141.2797094602813 C 262.4378747005386,143.9797094602813 287.6378747005386,150.1797094602813 310.0378747005386,157.07970946028132 C 332.4378747005386,163.77970946028137 353.2378747005386,168.77970946028137 372.63787470053865,167.4797094602813 C 391.83787470053863,165.9797094602813 409.73787470053867,159.17970946028134 423.0378747005386,149.07970946028132 C 436.4378747005386,138.87970946028133 445.13787470053865,125.17970946028134 448.13787470053865,111.17970946028134 C 451.13787470053865,96.97970946028136 449.83787470053863,82.87970946028133 446.33787470053863,70.57970946028132 C 442.93787470053866,58.179709460281344 437.43787470053866,47.4797094602813 431.0378747005386,38.77970946028131 C 424.63787470053865,29.9797094602813 417.2378747005386,23.379709460281333 409.5378747005386,18.179709460281288 C 401.9378747005386,13.079709460281265 394.4378747005386,9.679709460281288 387.2378747005386,7.77970946028131 C 380.1378747005386,5.879709460281333 373.33787470053863,5.479709460281299 367.5378747005386,5.979709460281299 C 361.63787470053865,6.579709460281322 356.63787470053865,8.179709460281288 352.33787470053863,9.979709460281299 C 343.83787470053863,13.679709460281288 338.63787470053865,18.4797094602813 335.63787470053865,22.379709460281276 C 332.5378747005386,26.279709460281254 331.73787470053867,29.379709460281276 331.13787470053865,31.079709460281265 C 330.63787470053865,32.879709460281276 330.5378747005386,33.47970946028124 330.5378747005386,33.47970946028124 C 330.5378747005386,33.47970946028124 330.5378747005386,32.87970946028122 330.63787470053865,30.979709460281242 C 330.83787470053863,29.17970946028123 331.23787470053867,25.779709460281254 333.93787470053866,21.279709460281254 C 336.63787470053865,16.779709460281254 341.63787470053865,11.079709460281265 350.43787470053866,6.2797094602812535 C 354.83787470053863,3.8797094602812763 360.23787470053867,1.7797094602812535 366.73787470053867,0.6797094602812308 C 373.23787470053867,-0.3202905397187692 380.63787470053865,-0.3202905397187692 388.73787470053867,1.3797094602812194 C 396.73787470053867,3.079709460281208 405.3378747005387,6.379709460281219 413.8378747005387,11.579709460281208 C 422.23787470053867,16.67970946028123 431.0378747005387,23.779709460281197 438.4378747005387,33.2797094602812 C 445.9378747005387,42.679709460281174 452.3378747005387,54.2797094602812 456.53787470053874,67.7797094602812 C 460.7378747005388,81.2797094602812 462.8378747005387,96.97970946028119 459.63787470053876,113.7797094602812 C 456.43787470053877,130.67970946028117 446.2378747005388,147.37970946028122 430.83787470053875,159.47970946028119 C 415.43787470053877,171.5797094602812 395.63787470053876,179.47970946028119 373.53787470053874,181.5797094602812 C 351.2378747005387,183.37970946028116 328.4378747005387,177.97970946028119 305.83787470053875,171.37970946028116 C 283.33787470053875,164.67970946028112 259.83787470053875,159.0797094602812 233.9378747005387,156.5797094602812 C 197.23787470053873,152.87970946028116 159.73787470053873,157.87970946028116 127.8378747005387,171.97970946028119 C 109.73787470053871,179.87970946028116 93.53787470053872,190.37970946028116 81.3378747005387,199.97970946028119 C 69.03787470053871,209.5797094602812 60.837874700538705,218.47970946028119 56.337874700538705,222.87970946028116 C 45.4378747005387,233.37970946028116 35.9378747005387,242.5797094602812 27.837874700538705,249.47970946028119 C 19.837874700538705,256.27970946028114 12.737874700538711,260.87970946028116 6.937874700538707,258.87970946028116 C 4.13787470053871,257.87970946028116 2.0378747005387083,255.27970946028114 0.9378747005387069,251.17970946028112 C -0.36212529946129024,246.97970946028107 -0.2621252994612959,241.47970946028107 0.9378747005387069,234.87970946028116 C 3.4378747005386074,221.67970946028134 12.13787470053861,205.17970946028134 26.23787470053861,191.67970946028134 M 344.0378747005386,111.07970946028132 C 340.0378747005386,108.67970946028134 334.9378747005386,104.27970946028131 330.9378747005386,96.9797094602813 C 329.0378747005386,93.37970946028128 327.4378747005386,88.9797094602813 326.8378747005386,83.87970946028128 C 326.3378747005386,79.07970946028126 326.8378747005386,73.87970946028128 328.3378747005386,68.9797094602813 C 331.3378747005386,59.17970946028129 338.1378747005386,50.379709460281276 347.6378747005386,44.77970946028131 C 357.3378747005386,39.07970946028132 368.8378747005386,38.07970946028132 379.03787470053857,40.17970946028129 C 388.03787470053857,41.9797094602813 396.23787470053855,46.17970946028129 402.93787470053854,51.879709460281276 C 409.73787470053855,57.579709460281265 414.8378747005385,64.77970946028125 418.3378747005385,72.67970946028129 C 421.7378747005385,80.57970946028126 423.43787470053854,89.27970946028131 422.93787470053854,97.87970946028128 C 422.3378747005385,106.57970946028126 419.53787470053857,114.87970946028128 415.23787470053855,122.17970946028129 C 409.03787470053857,132.37970946028128 399.8378747005386,140.37970946028128 389.13787470053853,144.2797094602813 C 378.63787470053853,148.4797094602813 367.5378747005385,148.6797094602813 357.5378747005385,147.57970946028132 C 337.3378747005385,145.07970946028132 320.4378747005385,138.37970946028133 304.0378747005385,134.57970946028132 C 271.3378747005385,126.27970946028131 242.0378747005385,122.27970946028131 216.4378747005385,120.4797094602813 C 190.83787470053846,118.77970946028131 168.9378747005385,119.57970946028132 150.4378747005385,121.57970946028132 C 131.9378747005385,123.67970946028134 116.73787470053848,126.37970946028133 104.53787470053847,129.7797094602813 C 101.43787470053847,130.57970946028132 98.53787470053847,131.2797094602813 95.83787470053848,132.07970946028132 C 93.13787470053849,132.9797094602813 90.53787470053847,133.7797094602813 88.13787470053849,134.57970946028132 C 83.23787470053848,136.07970946028132 79.0378747005385,137.4797094602813 75.43787470053849,139.07970946028132 C 71.73787470053848,140.4797094602813 68.53787470053848,141.7797094602813 65.83787470053849,142.87970946028133 C 63.13787470053849,143.97970946028136 60.93787470053849,145.17970946028134 59.037874700538495,145.97970946028136 C 51.4378747005385,149.47970946028136 49.63787470053849,150.17970946028134 49.63787470053849,150.17970946028134 C 49.63787470053849,150.17970946028134 51.237874700538484,149.07970946028132 58.43787470053849,144.77970946028137 C 60.237874700538484,143.77970946028137 62.33787470053849,142.3797094602814 65.03787470053848,140.97970946028136 C 67.73787470053848,139.67970946028134 70.83787470053848,138.17970946028134 74.43787470053849,136.47970946028136 C 78.0378747005385,134.67970946028134 82.23787470053848,132.97970946028136 87.0378747005385,131.17970946028134 C 89.4378747005385,130.27970946028137 92.0378747005385,129.27970946028137 94.73787470053848,128.27970946028137 C 97.43787470053847,127.27970946028137 100.43787470053847,126.47970946028136 103.43787470053847,125.47970946028136 C 115.73787470053848,121.47970946028136 131.03787470053845,118.07970946028138 149.83787470053846,115.37970946028133 C 168.63787470053848,112.77970946028131 190.9378747005385,111.37970946028133 216.9378747005385,112.57970946028132 C 242.9378747005385,113.87970946028133 272.83787470053846,117.4797094602813 306.2378747005385,125.57970946028132 C 323.0378747005385,129.2797094602813 340.3378747005385,135.7797094602813 358.5378747005385,137.7797094602813 C 367.63787470053853,138.6797094602813 377.0378747005385,138.2797094602813 385.63787470053853,134.87970946028133 C 394.13787470053853,131.67970946028134 401.73787470053855,125.17970946028134 406.73787470053855,116.77970946028131 C 410.23787470053855,110.77970946028131 412.3378747005386,103.87970946028133 412.53787470053857,97.07970946028132 C 412.6378747005386,90.27970946028131 410.93787470053854,83.4797094602813 407.6378747005386,77.4797094602813 C 401.2378747005386,65.4797094602813 388.9378747005386,57.4797094602813 376.8378747005386,57.379709460281276 C 370.03787470053857,57.17970946028129 363.6378747005386,59.27970946028125 359.8378747005386,62.67970946028129 C 355.8378747005386,66.07970946028126 353.4378747005386,70.9797094602813 353.03787470053857,74.67970946028129 C 352.8378747005386,76.57970946028126 352.93787470053854,78.17970946028129 353.3378747005386,79.57970946028126 C 353.73787470053855,80.67970946028129 354.3378747005386,81.77970946028125 355.03787470053857,82.67970946028129 C 356.43787470053854,84.57970946028126 358.1378747005386,85.77970946028131 359.23787470053855,86.37970946028128 C 361.8378747005386,87.9797094602813 363.8378747005386,88.27970946028125 365.13787470053853,88.37970946028128 C 367.0378747005385,88.37970946028128 369.93787470053854,86.77970946028125 371.93787470053854,84.9797094602813 C 374.03787470053857,83.17970946028129 375.53787470053857,81.07970946028132 376.73787470053855,79.07970946028132 C 378.03787470053857,77.07970946028132 378.93787470053854,74.9797094602813 380.63787470053853,73.9797094602813 C 382.23787470053855,73.07970946028132 384.93787470053854,73.37970946028128 387.43787470053854,76.37970946028128 C 389.93787470053854,79.27970946028125 391.93787470053854,85.17970946028129 390.73787470053855,92.07970946028126 C 389.53787470053857,98.77970946028125 385.53787470053857,106.97970946028124 376.23787470053855,112.27970946028125 C 366.4378747005386,118.27970946028131 353.4378747005386,117.07970946028132 344.0378747005386,111.07970946028132 M 357.0378747005386,70.77970946028131 C 339.5378747005386,90.77970946028131 361.4378747005386,116.37970946028133 383.9378747005386,102.37970946028133 C 384.1378747005386,102.27970946028131 384.3378747005386,102.07970946028132 384.5378747005386,101.87970946028133 C 402.0378747005386,81.87970946028133 380.13787470053865,56.27970946028131 357.63787470053865,70.27970946028131 C 357.4378747005386,70.37970946028133 357.2378747005386,70.57970946028132 357.0378747005386,70.77970946028131 M 864.5378747005386,191.67970946028134 C 858.8378747005386,185.9797094602813 846.7378747005387,176.27970946028137 830.1378747005386,167.4797094602813 C 813.6378747005386,158.57970946028132 792.8378747005387,150.4797094602813 770.8378747005387,146.07970946028132 C 732.6378747005386,138.17970946028134 693.5378747005387,137.2797094602813 655.1378747005386,141.2797094602813 C 628.3378747005387,143.9797094602813 603.1378747005386,150.1797094602813 580.7378747005387,157.07970946028132 C 558.3378747005387,163.77970946028137 537.5378747005386,168.77970946028137 518.1378747005386,167.4797094602813 C 498.9378747005386,165.9797094602813 481.0378747005386,159.17970946028134 467.73787470053867,149.07970946028132 C 454.3378747005387,138.87970946028133 445.63787470053865,125.17970946028134 442.63787470053865,111.17970946028134 C 439.63787470053865,96.97970946028136 440.93787470053866,82.87970946028133 444.43787470053866,70.57970946028132 C 447.83787470053863,58.179709460281344 453.33787470053863,47.4797094602813 459.73787470053867,38.77970946028131 C 466.13787470053865,29.9797094602813 473.5378747005386,23.379709460281333 481.23787470053867,18.179709460281288 C 488.8378747005387,13.079709460281265 496.3378747005387,9.679709460281288 503.5378747005386,7.77970946028131 C 510.63787470053865,5.879709460281333 517.4378747005386,5.479709460281299 523.2378747005387,5.979709460281299 C 529.1378747005386,6.579709460281322 534.1378747005386,8.179709460281288 538.4378747005387,9.979709460281299 C 546.9378747005387,13.679709460281288 552.1378747005388,18.4797094602813 555.1378747005388,22.379709460281276 C 558.2378747005388,26.279709460281254 559.0378747005387,29.379709460281276 559.6378747005388,31.079709460281265 C 560.1378747005388,32.879709460281276 560.2378747005388,33.47970946028124 560.2378747005388,33.47970946028124 C 560.2378747005388,33.47970946028124 560.2378747005388,32.87970946028122 560.1378747005388,30.979709460281242 C 559.9378747005387,29.17970946028123 559.5378747005387,25.779709460281254 556.8378747005388,21.279709460281254 C 554.1378747005388,16.779709460281254 549.1378747005388,11.079709460281265 540.3378747005388,6.2797094602812535 C 535.9378747005388,3.8797094602812763 530.5378747005389,1.7797094602812535 524.0378747005389,0.6797094602812308 C 517.5378747005389,-0.3202905397187692 510.1378747005389,-0.3202905397187692 502.03787470053885,1.3797094602812194 C 494.03787470053885,3.079709460281208 485.4378747005388,6.379709460281219 476.9378747005388,11.579709460281208 C 468.53787470053885,16.67970946028123 459.73787470053884,23.779709460281197 452.3378747005388,33.2797094602812 C 444.8378747005388,42.679709460281174 438.4378747005388,54.2797094602812 434.2378747005388,67.7797094602812 C 430.0378747005388,81.2797094602812 427.93787470053877,96.97970946028119 431.13787470053876,113.7797094602812 C 434.33787470053875,130.67970946028117 444.53787470053874,147.37970946028122 459.93787470053877,159.47970946028119 C 475.3378747005388,171.5797094602812 495.13787470053876,179.47970946028119 517.2378747005388,181.5797094602812 C 539.5378747005387,183.37970946028116 562.3378747005388,177.97970946028119 584.9378747005388,171.37970946028116 C 607.4378747005388,164.67970946028112 630.9378747005388,159.0797094602812 656.8378747005388,156.5797094602812 C 693.5378747005389,152.87970946028116 731.0378747005389,157.87970946028116 762.9378747005388,171.97970946028119 C 781.0378747005389,179.87970946028116 797.2378747005388,190.37970946028116 809.4378747005388,199.97970946028119 C 821.7378747005388,209.5797094602812 829.9378747005388,218.47970946028119 834.4378747005388,222.87970946028116 C 845.3378747005388,233.37970946028116 854.8378747005388,242.5797094602812 862.9378747005388,249.47970946028119 C 870.9378747005388,256.27970946028114 878.0378747005389,260.87970946028116 883.8378747005388,258.87970946028116 C 886.6378747005388,257.87970946028116 888.7378747005388,255.27970946028114 889.8378747005388,251.17970946028112 C 891.1378747005388,246.97970946028107 891.0378747005389,241.47970946028107 889.8378747005388,234.87970946028116 C 887.3378747005386,221.67970946028134 878.6378747005386,205.17970946028134 864.5378747005386,191.67970946028134 M 546.7378747005387,111.07970946028132 C 550.7378747005387,108.67970946028134 555.8378747005387,104.27970946028131 559.8378747005387,96.9797094602813 C 561.7378747005387,93.37970946028128 563.3378747005387,88.9797094602813 563.9378747005387,83.87970946028128 C 564.4378747005387,79.07970946028126 563.9378747005387,73.87970946028128 562.4378747005387,68.9797094602813 C 559.4378747005387,59.17970946028129 552.6378747005388,50.379709460281276 543.1378747005388,44.77970946028131 C 533.4378747005387,39.07970946028132 521.9378747005387,38.07970946028132 511.7378747005388,40.17970946028129 C 502.7378747005388,41.9797094602813 494.53787470053874,46.17970946028129 487.8378747005388,51.879709460281276 C 481.03787470053885,57.579709460281265 475.9378747005388,64.77970946028125 472.4378747005388,72.67970946028129 C 469.03787470053885,80.57970946028126 467.3378747005388,89.27970946028131 467.8378747005388,97.87970946028128 C 468.4378747005388,106.57970946028126 471.2378747005388,114.87970946028128 475.53787470053885,122.17970946028129 C 481.7378747005389,132.37970946028128 490.9378747005388,140.37970946028128 501.6378747005389,144.2797094602813 C 512.1378747005389,148.4797094602813 523.2378747005389,148.6797094602813 533.2378747005389,147.57970946028132 C 553.4378747005389,145.07970946028132 570.3378747005389,138.37970946028133 586.7378747005389,134.57970946028132 C 619.4378747005389,126.27970946028131 648.7378747005389,122.27970946028131 674.3378747005389,120.4797094602813 C 699.9378747005389,118.77970946028131 721.8378747005389,119.57970946028132 740.3378747005389,121.57970946028132 C 758.8378747005389,123.67970946028134 774.037874700539,126.37970946028133 786.2378747005389,129.7797094602813 C 789.3378747005389,130.57970946028132 792.2378747005389,131.2797094602813 794.9378747005389,132.07970946028132 C 797.637874700539,132.9797094602813 800.2378747005389,133.7797094602813 802.637874700539,134.57970946028132 C 807.537874700539,136.07970946028132 811.737874700539,137.4797094602813 815.337874700539,139.07970946028132 C 819.0378747005391,140.4797094602813 822.237874700539,141.7797094602813 824.937874700539,142.87970946028133 C 827.6378747005391,143.97970946028136 829.837874700539,145.17970946028134 831.737874700539,145.97970946028136 C 839.337874700539,149.47970946028136 841.137874700539,150.17970946028134 841.137874700539,150.17970946028134 C 841.137874700539,150.17970946028134 839.537874700539,149.07970946028132 832.337874700539,144.77970946028137 C 830.5378747005391,143.77970946028137 828.437874700539,142.3797094602814 825.737874700539,140.97970946028136 C 823.037874700539,139.67970946028134 819.937874700539,138.17970946028134 816.337874700539,136.47970946028136 C 812.737874700539,134.67970946028134 808.5378747005391,132.97970946028136 803.737874700539,131.17970946028134 C 801.337874700539,130.27970946028137 798.737874700539,129.27970946028137 796.037874700539,128.27970946028137 C 793.3378747005389,127.27970946028137 790.3378747005389,126.47970946028136 787.3378747005389,125.47970946028136 C 775.037874700539,121.47970946028136 759.7378747005389,118.07970946028138 740.9378747005389,115.37970946028133 C 722.137874700539,112.77970946028131 699.8378747005389,111.37970946028133 673.8378747005389,112.57970946028132 C 647.8378747005389,113.87970946028133 617.9378747005389,117.4797094602813 584.537874700539,125.57970946028132 C 567.737874700539,129.2797094602813 550.4378747005389,135.7797094602813 532.237874700539,137.7797094602813 C 523.137874700539,138.6797094602813 513.737874700539,138.2797094602813 505.137874700539,134.87970946028133 C 496.637874700539,131.67970946028134 489.03787470053896,125.17970946028134 484.03787470053896,116.77970946028131 C 480.53787470053896,110.77970946028131 478.43787470053894,103.87970946028133 478.237874700539,97.07970946028132 C 478.137874700539,90.27970946028131 479.83787470053903,83.4797094602813 483.137874700539,77.4797094602813 C 489.53787470053896,65.4797094602813 501.83787470053903,57.4797094602813 513.9378747005389,57.379709460281276 C 520.7378747005389,57.17970946028129 527.137874700539,59.27970946028125 530.9378747005389,62.67970946028129 C 534.9378747005389,66.07970946028126 537.3378747005389,70.9797094602813 537.7378747005389,74.67970946028129 C 537.9378747005389,76.57970946028126 537.8378747005389,78.17970946028129 537.4378747005389,79.57970946028126 C 537.037874700539,80.67970946028129 536.4378747005389,81.77970946028125 535.7378747005389,82.67970946028129 C 534.3378747005389,84.57970946028126 532.6378747005389,85.77970946028131 531.5378747005389,86.37970946028128 C 528.9378747005388,87.9797094602813 526.9378747005388,88.27970946028125 525.6378747005389,88.37970946028128 C 523.7378747005389,88.37970946028128 520.8378747005389,86.77970946028125 518.8378747005389,84.9797094602813 C 516.7378747005389,83.17970946028129 515.2378747005389,81.07970946028132 513.9378747005389,79.07970946028132 C 512.637874700539,77.07970946028132 511.7378747005389,74.9797094602813 510.03787470053896,73.9797094602813 C 508.43787470053894,73.07970946028132 505.737874700539,73.37970946028128 503.237874700539,76.37970946028128 C 500.737874700539,79.27970946028125 498.737874700539,85.17970946028129 499.93787470053906,92.07970946028126 C 501.1378747005391,98.77970946028125 505.1378747005391,106.97970946028124 514.437874700539,112.27970946028125 C 524.3378747005386,118.27970946028131 537.3378747005386,117.07970946028132 546.7378747005387,111.07970946028132 M 533.7378747005387,70.77970946028131 C 551.2378747005387,90.77970946028131 529.4378747005387,116.37970946028133 506.8378747005387,102.37970946028133 C 506.63787470053865,102.27970946028131 506.4378747005387,102.07970946028132 506.23787470053867,101.87970946028133 C 488.73787470053867,81.87970946028133 510.5378747005386,56.27970946028131 533.1378747005386,70.27970946028131 C 533.3378747005386,70.37970946028133 533.5378747005386,70.57970946028132 533.7378747005387,70.77970946028131"/>
</svg>
