<?xml version="1.0" ?>
<svg xmlns="http://www.w3.org/2000/svg" xmlns:ev="http://www.w3.org/2001/xml-events" xmlns:xlink="http://www.w3.org/1999/xlink" baseProfile="full" enable-background="new 0 0 1000 1000" height="246" id="Layer_1" transform="scale(0.4065040650406504 0.4065040650406504) translate(-435.0 -123.0)" version="1.1" viewBox="0 0 870 246" width="870" x="0px" xml:space="preserve" y="0px">
	<defs/>
	<path d="M 375.38268706086683,57.41539227526073 C 381.1826870608669,85.3153922752607 410.48268706086685,112.61539227526072 448.38268706086683,115.21539227526068 C 465.7826870608668,116.61539227526066 484.0826870608669,113.41539227526067 501.48268706086685,106.91539227526067 C 511.1826870608669,133.41539227526073 528.6826870608669,156.71539227526068 551.1826870608669,172.11539227526066 C 569.6826870608669,184.91539227526061 590.6826870608669,192.3153922752607 611.2826870608669,195.11539227526066 C 631.8826870608669,197.8153922752607 652.1826870608669,196.01539227526064 670.1826870608669,190.51539227526064 C 706.4826870608669,179.61539227526066 732.4826870608669,154.41539227526061 743.1826870608669,129.61539227526066 C 753.9826870608669,104.61539227526066 751.1826870608669,84.01539227526064 749.3826870608669,75.21539227526068 C 745.982687060867,56.815392275260706 735.082687060867,40.315392275260706 721.582687060867,30.315392275260706 C 708.182687060867,20.215392275260683 692.3826870608669,15.215392275260683 677.3826870608669,15.615392275260717 C 662.3826870608669,16.015392275260695 648.582687060867,21.515392275260695 639.082687060867,31.315392275260706 C 634.282687060867,36.21539227526068 630.782687060867,42.015392275260695 628.982687060867,48.61539227526072 C 627.2826870608669,55.11539227526072 627.582687060867,61.21539227526074 628.982687060867,66.71539227526074 C 631.8826870608669,77.81539227526076 640.582687060867,86.31539227526076 650.2826870608669,87.71539227526074 C 659.482687060867,89.01539227526075 665.982687060867,85.51539227526075 669.8826870608669,81.91539227526073 C 673.8826870608669,78.21539227526074 675.2826870608669,73.91539227526073 675.1826870608669,71.3153922752607 C 675.1826870608669,68.61539227526072 674.0826870608669,67.41539227526073 673.1826870608669,67.3153922752607 C 671.0826870608669,67.11539227526072 668.9826870608669,70.8153922752607 663.5826870608669,72.11539227526072 C 660.9826870608669,72.8153922752607 657.1826870608669,72.8153922752607 654.5826870608669,71.3153922752607 C 654.1826870608669,71.11539227526072 654.2826870608669,71.0153922752607 654.1826870608669,70.91539227526073 C 653.6826870608669,70.51539227526075 653.0826870608669,70.11539227526072 652.4826870608669,69.71539227526074 C 652.6826870608669,69.81539227526076 651.8826870608668,69.41539227526073 652.9826870608669,70.01539227526075 L 652.9826870608669,70.01539227526075 L 652.9826870608669,70.01539227526075 L 652.9826870608669,69.91539227526073 L 652.8826870608668,69.8153922752607 L 652.6826870608668,69.61539227526072 C 652.5826870608668,69.41539227526073 652.3826870608668,69.3153922752607 652.2826870608668,69.11539227526072 C 652.0826870608668,68.8153922752607 651.7826870608668,68.5153922752607 651.5826870608668,68.11539227526072 C 650.6826870608668,66.71539227526074 650.1826870608668,64.71539227526074 649.9826870608667,62.515392275260695 C 649.8826870608667,60.315392275260706 650.1826870608668,57.815392275260706 651.1826870608668,55.71539227526068 C 651.9826870608667,53.815392275260706 653.7826870608668,51.515392275260695 655.9826870608667,49.61539227526066 C 660.5826870608668,45.71539227526068 668.2826870608667,42.91539227526067 676.6826870608668,43.01539227526064 C 693.4826870608667,43.01539227526064 715.3826870608668,55.61539227526066 721.1826870608668,79.01539227526064 C 721.8826870608668,82.01539227526064 722.9826870608667,86.71539227526063 723.1826870608668,93.31539227526065 C 723.2826870608668,99.81539227526065 722.3826870608668,108.11539227526066 719.0826870608668,117.11539227526066 C 715.7826870608668,126.01539227526064 709.7826870608668,135.8153922752607 700.5826870608668,144.71539227526068 C 691.3826870608667,153.51539227526064 679.1826870608668,161.51539227526064 664.5826870608668,166.71539227526068 C 650.0826870608668,171.8153922752607 633.2826870608668,174.41539227526073 615.7826870608668,172.71539227526068 C 598.3826870608668,171.11539227526066 580.2826870608668,165.71539227526068 564.1826870608668,155.61539227526066 C 544.0826870608668,143.3153922752607 527.6826870608668,123.01539227526064 518.3826870608668,99.41539227526067 C 524.3826870608668,96.41539227526067 530.3826870608668,93.0153922752607 536.1826870608668,89.11539227526066 C 545.2826870608668,82.91539227526067 554.0826870608668,75.21539227526068 560.2826870608668,64.81539227526065 C 566.3826870608668,54.51539227526064 569.6826870608668,41.81539227526065 566.7826870608668,28.81539227526065 C 563.8826870608668,15.715392275260626 553.5826870608668,4.61539227526066 539.8826870608668,0.9153922752606718 C 532.9826870608669,-0.8846077247393396 525.0826870608669,0.015392275260694532 518.6826870608668,3.215392275260683 C 512.2826870608668,6.315392275260706 507.1826870608668,11.11539227526066 503.38268706086683,16.715392275260683 C 495.7826870608668,28.015392275260695 493.88268706086683,40.815392275260706 493.1826870608668,52.315392275260706 C 492.1826870608668,67.5153922752607 493.98268706086674,82.61539227526072 498.08268706086676,96.91539227526073 C 481.98268706086674,103.61539227526072 465.1826870608668,107.21539227526074 449.08268706086676,106.51539227526075 C 431.08268706086676,105.91539227526073 414.48268706086674,99.21539227526074 402.1826870608668,89.01539227526075 C 391.08268706086676,80.01539227526075 383.48268706086685,68.31539227526076 380.2826870608668,56.51539227526075 C 387.1826870608668,55.21539227526074 394.2826870608668,53.21539227526074 401.0826870608669,49.01539227526075 C 404.38268706086683,46.81539227526076 407.5826870608669,44.115392275260774 409.98268706086685,40.51539227526075 C 412.38268706086683,36.91539227526073 413.7826870608668,32.21539227526074 412.48268706086685,27.71539227526074 C 411.6826870608668,24.01539227526075 408.6826870608668,20.21539227526074 404.0826870608669,18.315392275260763 C 399.48268706086685,16.315392275260763 393.6826870608669,16.01539227526075 388.2826870608668,18.315392275260763 C 382.6826870608668,20.71539227526074 378.48268706086685,26.01539227526075 376.1826870608668,32.21539227526074 C 373.88268706086683,38.51539227526075 373.38268706086683,45.71539227526074 374.48268706086685,52.91539227526073 C 374.5826870608669,53.815392275260706 374.7826870608668,54.71539227526074 374.98268706086685,55.61539227526072 C 371.6826870608668,55.91539227526073 368.48268706086685,55.91539227526073 365.38268706086683,55.71539227526074 C 365.2826870608668,56.21539227526074 365.2826870608668,56.71539227526074 365.08268706086676,57.11539227526072 C 368.48268706086685,57.815392275260706 371.88268706086683,57.71539227526074 375.38268706086683,57.41539227526073 M 514.7826870608668,88.91539227526073 C 511.58268706086676,77.8153922752607 509.88268706086683,66.21539227526074 510.1826870608668,54.41539227526073 C 510.2826870608668,44.01539227526075 511.7826870608668,33.91539227526073 516.2826870608668,26.315392275260706 C 520.6826870608668,18.715392275260683 528.5826870608668,13.815392275260706 535.8826870608668,15.315392275260706 C 543.5826870608669,16.515392275260695 551.0826870608669,23.41539227526073 553.2826870608668,31.41539227526073 C 555.7826870608668,39.815392275260706 553.9826870608669,49.61539227526072 549.5826870608668,57.91539227526073 C 542.3826870608668,71.41539227526073 528.8826870608668,81.21539227526074 514.7826870608668,88.91539227526073 M 380.0826870608669,55.21539227526074 C 379.88268706086683,54.31539227526076 379.5826870608669,53.41539227526073 379.48268706086685,52.51539227526075 C 378.1826870608668,46.01539227526075 378.38268706086683,39.51539227526075 380.1826870608668,33.91539227526073 C 381.88268706086683,28.41539227526073 385.38268706086683,23.71539227526074 389.7826870608668,21.615392275260717 C 398.98268706086685,17.315392275260706 408.98268706086685,21.815392275260706 410.6826870608668,28.615392275260717 C 411.7826870608668,32.515392275260695 410.58268706086676,36.61539227526072 408.48268706086685,39.71539227526074 C 406.38268706086683,42.91539227526073 403.38268706086683,45.61539227526072 400.1826870608668,47.71539227526074 C 393.88268706086683,51.815392275260706 386.7826870608668,53.91539227526073 380.0826870608669,55.21539227526074 M 492.6826870608668,118.11539227526077 C 492.6826870608668,118.11539227526077 496.58268706086676,127.91539227526073 503.58268706086676,142.41539227526073 C 510.6826870608668,156.91539227526073 521.0826870608668,176.21539227526068 535.7826870608668,193.71539227526068 C 543.0826870608668,202.51539227526064 551.2826870608668,210.71539227526068 560.2826870608668,217.71539227526068 C 569.1826870608668,224.61539227526066 578.5826870608668,230.21539227526068 587.3826870608668,234.3153922752607 C 605.0826870608669,242.51539227526075 620.1826870608668,244.71539227526068 624.1826870608668,245.11539227526066 C 637.6826870608668,246.91539227526061 648.2826870608668,243.61539227526066 654.1826870608668,239.3153922752607 C 660.1826870608668,235.01539227526075 661.8826870608668,230.11539227526066 660.4826870608667,226.3153922752607 C 659.0826870608668,222.41539227526073 654.9826870608667,219.8153922752607 649.3826870608667,218.41539227526073 C 643.6826870608667,217.01539227526075 636.2826870608667,216.71539227526068 626.3826870608667,216.8153922752607 C 623.3826870608667,216.91539227526073 611.6826870608667,217.21539227526068 595.9826870608667,212.8153922752607 C 580.2826870608667,208.51539227526075 561.3826870608667,198.71539227526068 545.5826870608668,184.41539227526073 C 529.4826870608667,170.51539227526075 516.2826870608668,153.41539227526073 507.1826870608668,140.3153922752607 C 498.08268706086676,127.21539227526068 492.6826870608668,118.11539227526077 492.6826870608668,118.11539227526077 M 669.4826870608669,212.71539227526068 C 669.4826870608669,212.71539227526068 671.1826870608669,212.51539227526064 674.2826870608668,212.21539227526068 C 677.3826870608668,212.01539227526064 681.6826870608668,211.3153922752607 686.9826870608669,210.41539227526073 C 697.4826870608669,208.41539227526073 711.4826870608669,204.21539227526068 724.7826870608668,197.3153922752607 C 738.1826870608668,190.61539227526066 750.8826870608668,181.51539227526075 759.9826870608669,173.01539227526075 C 769.0826870608669,164.51539227526075 774.9826870608669,157.2153922752608 776.4826870608669,155.2153922752608 C 779.0826870608669,151.91539227526084 780.9826870608669,148.7153922752608 782.0826870608669,145.7153922752608 C 783.2826870608669,142.7153922752608 783.7826870608669,140.01539227526075 783.7826870608669,137.61539227526077 C 783.7826870608669,132.91539227526073 781.8826870608669,129.81539227526082 779.1826870608669,128.61539227526077 C 773.3826870608669,126.2153922752608 765.7826870608669,130.91539227526073 759.0826870608669,143.2153922752608 C 758.0826870608669,145.11539227526077 754.1826870608669,152.2153922752608 747.5826870608669,161.11539227526077 C 740.8826870608668,169.91539227526073 731.0826870608669,180.2153922752608 719.7826870608669,188.61539227526077 C 708.5826870608669,197.2153922752608 696.0826870608669,203.51539227526075 686.2826870608669,207.31539227526082 C 681.3826870608669,209.11539227526077 677.1826870608669,210.61539227526077 674.2826870608669,211.31539227526082 C 671.0826870608668,212.21539227526068 669.4826870608669,212.71539227526068 669.4826870608669,212.71539227526068 M 670.9826870608669,223.01539227526075 C 670.9826870608669,223.01539227526075 671.4826870608669,223.3153922752607 672.4826870608669,224.01539227526075 C 673.4826870608669,224.61539227526077 674.9826870608669,225.61539227526077 676.8826870608668,226.61539227526077 C 680.7826870608668,228.7153922752608 686.5826870608669,231.41539227526073 694.0826870608669,233.51539227526075 C 709.0826870608669,237.91539227526073 730.3826870608668,238.91539227526073 751.4826870608669,236.7153922752608 C 772.7826870608668,234.81539227526082 794.1826870608669,229.81539227526082 810.8826870608668,224.31539227526082 C 827.5826870608669,218.81539227526082 839.3826870608668,213.2153922752608 842.5826870608669,211.7153922752608 C 863.9826870608669,201.41539227526084 870.0826870608669,188.81539227526082 866.4826870608669,184.11539227526077 C 862.6826870608669,179.11539227526077 850.6826870608669,181.7153922752608 832.7826870608668,192.81539227526082 C 829.9826870608669,194.41539227526084 819.7826870608668,201.01539227526087 804.8826870608668,208.01539227526087 C 789.9826870608669,215.1153922752609 770.3826870608668,222.31539227526082 750.1826870608668,226.7153922752609 C 730.0826870608668,231.31539227526093 709.7826870608668,232.91539227526096 694.8826870608668,230.51539227526087 C 687.3826870608668,229.41539227526084 681.3826870608668,227.51539227526087 677.2826870608668,225.81539227526082 C 675.1826870608668,225.01539227526087 673.6826870608668,224.31539227526082 672.5826870608668,223.7153922752608 C 671.5826870608668,223.21539227526068 670.9826870608669,223.01539227526075 670.9826870608669,223.01539227526075 M 727.7826870608668,211.51539227526075 C 727.7826870608668,211.51539227526075 729.7826870608668,210.8153922752607 733.1826870608668,209.51539227526075 C 736.6826870608668,208.2153922752608 741.5826870608668,206.3153922752607 747.5826870608668,203.8153922752607 C 759.4826870608667,198.91539227526073 775.1826870608668,191.61539227526066 790.7826870608668,183.01539227526075 C 806.3826870608668,174.51539227526075 821.7826870608668,164.61539227526077 833.6826870608668,156.2153922752608 C 845.5826870608668,147.81539227526082 854.0826870608668,141.01539227526075 856.2826870608668,139.11539227526077 C 871.4826870608669,126.7153922752608 872.2826870608668,113.61539227526077 866.2826870608668,108.41539227526079 C 860.1826870608668,103.01539227526081 848.4826870608669,105.11539227526077 836.7826870608668,118.61539227526077 C 834.9826870608669,120.7153922752608 828.3826870608668,128.51539227526075 818.8826870608668,138.51539227526075 C 809.2826870608668,148.61539227526077 796.6826870608668,160.7153922752608 783.3826870608668,171.8153922752607 C 770.1826870608668,183.01539227526075 756.2826870608668,193.01539227526075 745.6826870608668,200.11539227526066 C 740.3826870608668,203.61539227526066 735.8826870608668,206.51539227526064 732.7826870608668,208.41539227526061 C 729.5826870608668,210.41539227526073 727.7826870608668,211.51539227526075 727.7826870608668,211.51539227526075 M 126.58268706086685,129.71539227526068 C 137.18268706086684,154.51539227526064 163.28268706086683,179.71539227526068 199.48268706086685,190.61539227526066 C 217.48268706086688,196.11539227526066 237.78268706086683,197.91539227526061 258.38268706086683,195.21539227526068 C 278.98268706086685,192.41539227526073 299.98268706086685,185.01539227526064 318.48268706086685,172.21539227526068 C 340.98268706086685,156.71539227526068 358.48268706086685,133.51539227526064 368.1826870608669,107.0153922752607 C 385.5826870608669,113.51539227526064 403.88268706086683,116.71539227526068 421.2826870608669,115.3153922752607 C 459.1826870608669,112.61539227526072 488.48268706086685,85.3153922752607 494.2826870608668,57.515392275260695 C 497.7826870608668,57.815392275260706 501.1826870608668,57.815392275260706 504.38268706086683,57.515392275260695 C 504.0826870608669,57.015392275260695 503.88268706086683,56.61539227526072 503.6826870608668,56.11539227526072 C 500.6826870608668,56.315392275260706 497.58268706086676,56.315392275260706 494.48268706086674,56.015392275260695 C 494.6826870608668,55.11539227526072 494.8826870608667,54.21539227526068 494.98268706086674,53.315392275260706 C 496.08268706086676,46.11539227526072 495.58268706086676,38.91539227526073 493.2826870608667,32.61539227526072 C 490.98268706086674,26.41539227526073 486.7826870608667,21.015392275260695 481.18268706086667,18.71539227526074 C 475.68268706086667,16.41539227526073 469.8826870608667,16.71539227526074 465.3826870608667,18.71539227526074 C 460.7826870608667,20.615392275260717 457.7826870608667,24.41539227526073 456.98268706086674,28.115392275260717 C 455.7826870608668,32.61539227526072 457.08268706086676,37.315392275260706 459.48268706086674,40.91539227526073 C 461.98268706086674,44.51539227526075 465.08268706086676,47.21539227526074 468.3826870608667,49.41539227526073 C 475.08268706086676,53.61539227526072 482.2826870608667,55.71539227526074 489.18268706086667,56.91539227526073 C 485.9826870608666,68.71539227526074 478.3826870608667,80.41539227526073 467.2826870608667,89.41539227526073 C 454.8826870608667,99.61539227526072 438.3826870608667,106.21539227526074 420.3826870608667,106.91539227526073 C 404.3826870608667,107.61539227526072 387.48268706086674,104.01539227526075 371.3826870608667,97.3153922752607 C 375.48268706086674,82.91539227526073 377.2826870608667,67.8153922752607 376.2826870608667,52.71539227526068 C 375.58268706086676,41.21539227526068 373.68268706086667,28.415392275260672 366.08268706086676,17.11539227526066 C 362.2826870608667,11.61539227526066 357.1826870608668,6.715392275260683 350.7826870608667,3.6153922752606604 C 344.48268706086674,0.4153922752606718 336.48268706086674,-0.3846077247393396 329.58268706086676,1.315392275260649 C 315.8826870608667,4.915392275260672 305.6826870608668,16.015392275260638 302.6826870608668,29.215392275260626 C 299.7826870608668,42.115392275260604 303.1826870608668,54.915392275260615 309.1826870608668,65.21539227526063 C 315.3826870608667,75.6153922752606 324.2826870608668,83.31539227526065 333.2826870608668,89.51539227526064 C 339.08268706086676,93.41539227526061 345.08268706086676,96.81539227526065 351.08268706086676,99.81539227526065 C 341.7826870608668,123.41539227526061 325.38268706086683,143.71539227526068 305.2826870608668,156.01539227526064 C 289.2826870608668,166.01539227526064 271.1826870608668,171.51539227526064 253.68268706086675,173.11539227526066 C 236.18268706086675,174.8153922752607 219.38268706086674,172.21539227526068 204.88268706086674,167.11539227526066 C 190.38268706086674,162.01539227526064 178.08268706086673,154.01539227526064 168.88268706086674,145.11539227526066 C 159.68268706086675,136.21539227526068 153.68268706086675,126.41539227526061 150.38268706086674,117.51539227526064 C 146.98268706086674,108.51539227526064 146.18268706086675,100.21539227526063 146.28268706086675,93.71539227526063 C 146.48268706086674,87.21539227526063 147.48268706086674,82.41539227526061 148.28268706086675,79.41539227526061 C 154.18268706086675,56.01539227526064 176.08268706086676,43.415392275260615 192.78268706086675,43.415392275260615 C 201.18268706086675,43.31539227526059 208.88268706086674,46.01539227526064 213.48268706086677,50.01539227526064 C 215.78268706086678,51.915392275260615 217.48268706086677,54.215392275260626 218.28268706086678,56.11539227526066 C 219.18268706086675,58.21539227526068 219.5826870608668,60.71539227526068 219.48268706086677,62.91539227526067 C 219.28268706086678,65.11539227526066 218.78268706086678,67.11539227526066 217.88268706086674,68.5153922752607 C 217.68268706086675,68.91539227526067 217.48268706086677,69.21539227526068 217.18268706086675,69.5153922752607 C 217.08268706086673,69.71539227526068 216.88268706086674,69.8153922752607 216.78268706086678,70.0153922752607 L 216.5826870608668,70.21539227526068 L 216.48268706086677,70.3153922752607 L 216.48268706086677,70.41539227526073 L 216.48268706086677,70.41539227526073 L 216.48268706086677,70.41539227526073 C 217.5826870608668,69.8153922752607 216.78268706086678,70.21539227526074 216.98268706086677,70.11539227526072 C 216.38268706086674,70.5153922752607 215.88268706086674,70.91539227526073 215.28268706086678,71.3153922752607 C 215.18268706086675,71.41539227526073 215.28268706086678,71.5153922752607 214.8826870608668,71.71539227526068 C 212.28268706086678,73.21539227526068 208.48268706086682,73.21539227526068 205.8826870608668,72.5153922752607 C 200.4826870608668,71.21539227526068 198.3826870608668,67.5153922752607 196.2826870608668,67.71539227526068 C 195.3826870608668,67.8153922752607 194.2826870608668,69.0153922752607 194.2826870608668,71.71539227526068 C 194.1826870608668,74.3153922752607 195.58268706086682,78.61539227526066 199.58268706086682,82.3153922752607 C 203.5826870608668,85.91539227526073 210.0826870608668,89.3153922752607 219.1826870608668,88.11539227526072 C 228.8826870608668,86.71539227526074 237.5826870608668,78.21539227526074 240.48268706086682,67.11539227526072 C 241.98268706086682,61.61539227526072 242.28268706086683,55.41539227526073 240.58268706086685,49.015392275260695 C 238.78268706086683,42.41539227526067 235.28268706086683,36.61539227526072 230.48268706086682,31.715392275260683 C 220.8826870608668,22.015392275260695 207.08268706086685,16.415392275260672 192.1826870608668,16.015392275260695 C 177.1826870608668,15.615392275260717 161.3826870608668,20.615392275260717 147.98268706086682,30.715392275260683 C 134.48268706086682,40.71539227526068 123.58268706086682,57.21539227526068 120.18268706086681,75.61539227526066 C 118.68268706086684,84.11539227526072 115.88268706086683,104.71539227526074 126.58268706086685,129.71539227526068 M 490.2826870608668,52.51539227526075 C 490.08268706086676,53.41539227526073 489.88268706086683,54.31539227526076 489.6826870608668,55.21539227526074 C 482.98268706086674,53.91539227526073 475.88268706086683,51.81539227526076 469.58268706086676,47.71539227526074 C 466.48268706086674,45.61539227526072 463.48268706086674,42.91539227526073 461.2826870608668,39.71539227526074 C 459.1826870608668,36.51539227526075 457.98268706086685,32.51539227526075 459.08268706086676,28.615392275260717 C 460.6826870608668,21.815392275260706 470.7826870608668,17.41539227526073 479.98268706086674,21.615392275260717 C 484.3826870608667,23.615392275260717 487.8826870608667,28.41539227526073 489.58268706086676,33.91539227526073 C 491.38268706086683,39.51539227526075 491.58268706086676,46.01539227526075 490.2826870608668,52.51539227526075 M 359.5826870608669,54.51539227526075 C 359.88268706086683,66.21539227526074 358.1826870608669,77.91539227526073 354.98268706086685,89.01539227526075 C 340.88268706086683,81.21539227526074 327.38268706086683,71.51539227526075 320.1826870608668,58.115392275260774 C 315.7826870608668,49.81539227526076 314.08268706086676,39.915392275260785 316.48268706086685,31.615392275260774 C 318.6826870608668,23.615392275260774 326.1826870608668,16.715392275260797 333.88268706086683,15.515392275260751 C 341.2826870608668,14.015392275260751 349.08268706086676,18.91539227526073 353.48268706086685,26.51539227526075 C 357.98268706086685,33.91539227526073 359.38268706086683,44.11539227526072 359.5826870608669,54.51539227526075 M 377.0826870608669,118.11539227526077 C 377.0826870608669,118.11539227526077 373.1826870608669,127.91539227526073 366.1826870608669,142.41539227526073 C 359.0826870608669,156.91539227526073 348.6826870608669,176.21539227526068 333.98268706086685,193.71539227526068 C 326.6826870608669,202.51539227526064 318.48268706086685,210.71539227526068 309.48268706086685,217.71539227526068 C 300.5826870608669,224.61539227526066 291.1826870608669,230.21539227526068 282.38268706086683,234.3153922752607 C 264.6826870608669,242.51539227526075 249.58268706086685,244.71539227526068 245.58268706086685,245.11539227526066 C 232.08268706086685,246.91539227526061 221.48268706086682,243.61539227526066 215.58268706086685,239.3153922752607 C 209.58268706086685,235.01539227526075 207.88268706086686,230.11539227526066 209.28268706086683,226.3153922752607 C 210.6826870608668,222.41539227526073 214.78268706086683,219.8153922752607 220.38268706086686,218.41539227526073 C 226.08268706086685,217.01539227526075 233.48268706086688,216.71539227526068 243.38268706086686,216.8153922752607 C 246.38268706086686,216.91539227526073 258.0826870608669,217.21539227526068 273.7826870608668,212.8153922752607 C 289.48268706086685,208.51539227526075 308.38268706086683,198.71539227526068 324.1826870608668,184.41539227526073 C 340.2826870608668,170.51539227526075 353.48268706086685,153.41539227526073 362.58268706086676,140.3153922752607 C 371.6826870608668,127.21539227526068 377.0826870608669,118.11539227526077 377.0826870608669,118.11539227526077 M 200.28268706086683,212.71539227526068 C 200.28268706086683,212.71539227526068 198.58268706086685,212.51539227526064 195.48268706086682,212.21539227526068 C 192.38268706086683,212.01539227526064 188.08268706086682,211.3153922752607 182.78268706086683,210.41539227526073 C 172.28268706086683,208.41539227526073 158.28268706086683,204.21539227526068 144.98268706086682,197.3153922752607 C 131.58268706086682,190.61539227526066 118.88268706086683,181.51539227526075 109.78268706086683,173.01539227526075 C 100.68268706086684,164.51539227526075 94.78268706086683,157.2153922752608 93.28268706086683,155.2153922752608 C 90.68268706086684,151.91539227526084 88.78268706086683,148.7153922752608 87.68268706086684,145.7153922752608 C 86.48268706086685,142.7153922752608 85.98268706086685,140.01539227526075 85.98268706086685,137.61539227526077 C 85.98268706086685,132.91539227526073 87.88268706086686,129.81539227526082 90.58268706086685,128.61539227526077 C 96.38268706086686,126.2153922752608 103.98268706086685,130.91539227526073 110.68268706086684,143.2153922752608 C 111.68268706086684,145.11539227526077 115.58268706086685,152.2153922752608 122.18268706086684,161.11539227526077 C 128.88268706086683,169.91539227526073 138.68268706086684,180.2153922752608 149.98268706086685,188.61539227526077 C 161.18268706086684,197.2153922752608 173.68268706086684,203.51539227526075 183.48268706086685,207.31539227526082 C 188.38268706086686,209.11539227526077 192.58268706086685,210.61539227526077 195.48268706086685,211.31539227526082 C 198.58268706086685,212.21539227526068 200.28268706086683,212.71539227526068 200.28268706086683,212.71539227526068 M 198.68268706086684,223.01539227526075 C 198.68268706086684,223.01539227526075 198.18268706086684,223.3153922752607 197.18268706086684,224.01539227526075 C 196.18268706086684,224.61539227526077 194.68268706086684,225.61539227526077 192.78268706086683,226.61539227526077 C 188.88268706086683,228.7153922752608 183.08268706086685,231.41539227526073 175.58268706086685,233.51539227526075 C 160.58268706086685,237.91539227526073 139.28268706086683,238.91539227526073 118.18268706086684,236.7153922752608 C 96.88268706086683,234.81539227526082 75.48268706086682,229.81539227526082 58.782687060866834,224.31539227526082 C 42.08268706086683,218.81539227526082 30.282687060866834,213.2153922752608 27.08268706086683,211.7153922752608 C 5.682687060866833,201.41539227526084 -0.41731293913316847,188.81539227526082 3.182687060866833,184.11539227526077 C 6.98268706086683,179.11539227526077 18.982687060866837,181.7153922752608 36.88268706086683,192.81539227526082 C 39.682687060866826,194.41539227526084 49.88268706086683,201.01539227526087 64.78268706086683,208.01539227526087 C 79.68268706086684,215.1153922752609 99.28268706086683,222.31539227526082 119.48268706086682,226.7153922752609 C 139.58268706086682,231.31539227526093 159.88268706086683,232.91539227526096 174.78268706086683,230.51539227526087 C 182.28268706086683,229.41539227526084 188.28268706086683,227.51539227526087 192.38268706086683,225.81539227526082 C 194.48268706086682,225.01539227526087 195.98268706086682,224.31539227526082 197.08268706086682,223.7153922752608 C 198.18268706086684,223.21539227526068 198.68268706086684,223.01539227526075 198.68268706086684,223.01539227526075 M 141.98268706086682,211.51539227526075 C 141.98268706086682,211.51539227526075 139.98268706086682,210.8153922752607 136.58268706086682,209.51539227526075 C 133.08268706086682,208.2153922752608 128.1826870608668,206.3153922752607 122.18268706086681,203.8153922752607 C 110.2826870608668,198.91539227526073 94.58268706086682,191.61539227526066 78.98268706086682,183.01539227526075 C 63.38268706086683,174.51539227526075 47.98268706086682,164.61539227526077 36.08268706086682,156.2153922752608 C 24.18268706086681,147.81539227526082 15.682687060866812,141.01539227526075 13.482687060866823,139.11539227526077 C -1.7173129391331798,126.7153922752608 -2.517312939133177,113.61539227526077 3.482687060866823,108.41539227526079 C 9.582687060866817,103.01539227526081 21.28268706086682,105.11539227526077 32.98268706086682,118.61539227526077 C 34.78268706086682,120.7153922752608 41.38268706086683,128.51539227526075 50.88268706086683,138.51539227526075 C 60.48268706086682,148.61539227526077 73.08268706086682,160.7153922752608 86.38268706086683,171.8153922752607 C 99.58268706086682,183.01539227526075 113.48268706086682,193.01539227526075 124.08268706086685,200.11539227526066 C 129.38268706086686,203.61539227526066 133.88268706086686,206.51539227526064 136.98268706086685,208.41539227526061 C 140.18268706086684,210.41539227526073 141.98268706086682,211.51539227526075 141.98268706086682,211.51539227526075"/>
</svg>
