<?xml version="1.0" ?>
<svg xmlns="http://www.w3.org/2000/svg" xmlns:ev="http://www.w3.org/2001/xml-events" xmlns:xlink="http://www.w3.org/1999/xlink" baseProfile="full" enable-background="new 0 0 1000 1000" height="155" id="Layer_1" transform="scale(0.6451612903225806 0.6451612903225806) translate(-445.5 -77.5)" version="1.1" viewBox="0 0 891 155" width="891" x="0px" xml:space="preserve" y="0px">
	<defs/>
	<path d="M 370.6294209681056,118.79014776494768 C 371.02942096810557,119.19014776494765 371.3294209681056,119.69014776494765 371.8294209681056,120.29014776494768 C 372.22942096810556,120.79014776494768 372.9294209681056,121.29014776494768 373.52942096810557,121.8901477649477 C 374.6294209681056,123.19014776494765 376.42942096810555,124.19014776494765 378.22942096810556,125.59014776494774 C 382.22942096810556,127.99014776494772 387.72942096810556,130.2901477649478 394.42942096810555,131.2901477649478 C 401.02942096810557,132.2901477649478 408.62942096810553,131.69014776494777 415.42942096810555,128.7901477649478 C 417.22942096810556,128.19014776494777 418.52942096810557,126.99014776494784 420.3294209681055,126.09014776494774 C 421.7294209681055,124.8901477649477 423.12942096810553,123.79014776494779 424.62942096810553,122.3901477649477 C 427.3294209681055,119.29014776494768 429.92942096810555,115.8901477649477 431.5294209681055,111.79014776494768 C 437.92942096810555,97.79014776494768 436.3294209681055,79.29014776494768 428.2294209681055,64.09014776494769 C 424.2294209681055,56.490147764947665 418.7294209681055,49.490147764947665 412.0294209681055,44.09014776494769 C 405.2294209681055,38.69014776494771 397.2294209681055,34.490147764947665 388.7294209681055,31.790147764947676 C 376.8294209681055,27.8901477649477 364.5294209681055,26.590147764947687 352.6294209681055,26.8901477649477 C 340.6294209681055,27.090147764947687 329.02942096810546,29.19014776494771 318.02942096810546,31.99014776494772 C 296.02942096810546,37.99014776494772 276.32942096810547,47.49014776494772 258.02942096810546,56.49014776494772 C 239.62942096810548,65.59014776494774 222.42942096810543,74.49014776494772 205.32942096810547,81.29014776494773 C 188.32942096810547,88.09014776494774 171.72942096810547,92.79014776494773 155.82942096810547,94.69014776494771 C 139.92942096810546,96.69014776494771 124.82942096810547,95.8901477649477 111.32942096810547,92.49014776494772 C 97.92942096810546,89.09014776494774 86.02942096810546,82.8901477649477 77.72942096810547,74.09014776494774 C 69.52942096810548,65.39014776494776 64.92942096810546,54.590147764947744 64.92942096810546,44.390147764947756 C 64.92942096810546,34.19014776494777 68.92942096810546,25.290147764947733 74.82942096810547,19.49014776494778 C 80.72942096810547,13.490147764947778 88.42942096810546,11.190147764947767 94.92942096810546,11.29014776494779 C 101.52942096810546,11.29014776494779 107.22942096810547,13.690147764947767 111.02942096810546,16.99014776494778 C 114.92942096810546,20.29014776494779 116.92942096810546,24.49014776494778 117.82942096810547,27.99014776494778 C 118.82942096810547,31.5901477649478 118.72942096810547,34.79014776494779 118.42942096810546,37.29014776494779 C 117.52942096810546,42.49014776494778 115.62942096810545,45.19014776494777 114.42942096810546,46.5901477649478 C 113.12942096810545,47.99014776494778 112.72942096810547,48.39014776494781 112.72942096810547,48.39014776494781 C 112.72942096810547,48.39014776494781 113.12942096810548,47.89014776494781 114.12942096810548,46.39014776494781 C 115.12942096810548,44.89014776494781 116.72942096810547,42.0901477649478 117.22942096810547,37.190147764947824 C 117.42942096810546,34.79014776494785 117.22942096810547,31.790147764947847 116.12942096810548,28.490147764947835 C 115.02942096810548,25.290147764947847 113.02942096810548,21.690147764947824 109.42942096810549,18.890147764947812 C 105.92942096810549,16.0901477649478 100.7294209681055,14.29014776494779 94.92942096810549,14.490147764947835 C 89.12942096810548,14.690147764947824 82.62942096810548,16.890147764947812 77.7294209681055,22.190147764947824 C 72.8294209681055,27.390147764947812 69.52942096810551,35.39014776494781 69.8294209681055,44.190147764947824 C 70.1294209681055,52.990147764947835 74.3294209681055,62.490147764947835 81.8294209681055,70.0901477649478 C 89.3294209681055,77.69014776494782 100.2294209681055,83.19014776494782 112.8294209681055,86.0901477649478 C 125.52942096810548,88.99014776494778 139.7294209681055,89.5901477649478 154.8294209681055,87.49014776494778 C 169.9294209681055,85.39014776494776 185.9294209681055,80.69014776494777 202.32942096810552,73.89014776494776 C 218.82942096810552,67.09014776494774 235.7294209681055,58.19014776494777 254.12942096810553,48.79014776494773 C 272.5294209681055,39.49014776494772 292.5294209681055,29.69014776494771 315.62942096810553,23.19014776494771 C 327.22942096810556,20.19014776494771 339.42942096810555,17.8901477649477 352.22942096810556,17.590147764947687 C 365.02942096810557,17.19014776494771 378.42942096810555,18.490147764947665 391.52942096810557,22.790147764947676 C 429.72942096810556,33.490147764947665 458.3294209681055,75.59014776494769 446.8294209681055,117.09014776494763 C 445.2294209681055,122.99014776494761 442.2294209681055,128.39014776494759 438.92942096810555,133.4901477649476 C 437.02942096810557,135.9901477649476 434.8294209681055,138.39014776494759 432.62942096810553,140.59014776494763 C 430.12942096810553,142.4901477649476 427.8294209681055,144.79014776494768 425.12942096810553,146.19014776494765 C 414.5294209681055,152.59014776494763 402.92942096810555,154.59014776494763 392.72942096810556,154.29014776494768 C 382.42942096810555,153.99014776494772 373.22942096810556,151.29014776494768 365.92942096810555,147.69014776494765 C 362.3294209681055,145.69014776494765 359.12942096810553,143.79014776494768 356.52942096810557,141.4901477649476 C 355.22942096810556,140.39014776494759 353.92942096810555,139.4901477649476 352.92942096810555,138.39014776494759 C 351.92942096810555,137.29014776494756 351.02942096810557,136.19014776494754 350.22942096810556,135.29014776494756 C 335.92942096810555,117.59014776494752 338.02942096810557,91.99014776494755 354.72942096810556,81.59014776494757 C 359.52942096810557,78.79014776494756 364.72942096810556,78.39014776494759 368.62942096810553,79.1901477649476 C 372.5294209681055,79.89014776494759 375.62942096810553,81.89014776494759 377.3294209681055,83.79014776494762 C 380.92942096810555,87.89014776494764 379.92942096810555,91.49014776494761 378.42942096810555,92.49014776494761 C 376.92942096810555,93.59014776494763 374.72942096810556,92.89014776494759 372.12942096810553,93.29014776494762 C 369.62942096810553,93.59014776494763 366.8294209681055,95.39014776494764 366.22942096810556,97.29014776494762 C 365.62942096810553,98.99014776494761 364.8294209681056,102.09014776494763 365.3294209681056,106.39014776494764 C 366.1294209681056,110.8901477649477 367.42942096810555,114.99014776494772 370.6294209681056,118.79014776494768 M 391.42942096810555,86.3901477649477 C 391.3294209681055,84.3901477649477 391.42942096810555,79.8901477649477 388.8294209681055,73.79014776494768 C 386.42942096810555,67.79014776494768 381.42942096810555,60.790147764947676 373.92942096810555,55.19014776494765 C 367.42942096810555,50.290147764947676 359.3294209681055,46.89014776494764 350.72942096810556,45.39014776494764 C 342.22942096810556,43.79014776494762 332.92942096810555,44.19014776494765 324.02942096810557,45.89014776494764 C 311.52942096810557,48.29014776494762 299.92942096810555,52.490147764947665 289.22942096810556,56.990147764947665 C 278.52942096810557,61.490147764947665 268.52942096810557,66.09014776494769 259.62942096810553,70.99014776494766 C 241.72942096810556,80.69014776494765 227.72942096810556,91.89014776494764 218.22942096810556,103.69014776494765 C 213.52942096810557,109.59014776494763 210.32942096810558,115.69014776494765 209.32942096810558,121.69014776494765 C 208.32942096810558,127.69014776494765 209.4294209681056,133.4901477649476 212.02942096810557,137.59014776494763 C 214.6294209681056,141.79014776494768 218.82942096810558,144.19014776494765 222.92942096810555,144.9901477649476 C 227.02942096810557,145.79014776494756 230.92942096810555,144.89014776494759 233.72942096810556,143.09014776494763 C 239.62942096810553,139.29014776494768 241.42942096810555,132.89014776494759 240.52942096810557,128.69014776494765 C 239.72942096810556,124.29014776494768 237.32942096810558,121.59014776494763 235.6294209681056,119.8901477649477 C 231.72942096810561,116.8901477649477 230.22942096810561,116.99014776494772 230.32942096810558,116.8901477649477 C 230.22942096810556,117.09014776494774 231.72942096810556,116.29014776494768 236.4294209681056,118.8901477649477 C 238.52942096810563,120.3901477649477 241.6294209681056,122.99014776494772 243.1294209681056,128.09014776494774 C 244.6294209681056,133.09014776494774 243.22942096810561,140.99014776494772 236.1294209681056,146.3901477649477 C 232.6294209681056,148.99014776494772 227.52942096810557,150.59014776494774 222.22942096810561,149.79014776494768 C 216.9294209681056,149.09014776494763 211.1294209681056,146.19014776494765 207.4294209681056,140.69014776494765 C 203.72942096810561,135.29014776494768 202.02942096810563,128.09014776494763 203.02942096810563,120.69014776494765 C 204.02942096810563,113.19014776494765 207.62942096810565,105.89014776494764 212.62942096810565,99.29014776494768 C 222.52942096810563,86.19014776494765 237.12942096810565,73.99014776494766 255.62942096810565,63.59014776494769 C 264.82942096810564,58.3901477649477 274.92942096810566,53.490147764947665 285.82942096810564,48.790147764947676 C 296.7294209681056,44.09014776494769 308.82942096810564,39.490147764947665 322.32942096810564,36.790147764947676 C 341.5294209681056,32.790147764947676 362.42942096810566,32.790147764947676 381.82942096810564,40.790147764947676 C 392.92942096810566,45.09014776494769 403.0294209681056,53.09014776494769 409.12942096810565,61.8901477649477 C 415.5294209681056,70.59014776494769 417.72942096810567,80.09014776494769 417.82942096810564,85.19014776494771 C 418.12942096810565,91.29014776494773 416.5294209681056,97.69014776494771 413.62942096810565,102.49014776494772 C 410.72942096810567,107.3901477649477 406.72942096810567,110.69014776494771 402.92942096810566,112.49014776494772 C 399.12942096810565,114.29014776494768 395.5294209681057,114.49014776494772 393.0294209681057,113.8901477649477 C 390.5294209681057,113.19014776494765 389.22942096810567,111.69014776494765 388.72942096810567,109.99014776494772 C 388.0294209681057,106.3901477649477 389.8294209681057,102.59014776494774 390.5294209681057,98.69014776494771 C 390.92942096810566,96.69014776494771 391.3294209681057,94.69014776494771 391.42942096810566,92.69014776494771 C 391.42942096810555,90.8901477649477 391.52942096810557,88.8901477649477 391.42942096810555,86.3901477649477 M 42.829420968105566,105.3901477649477 C 42.42942096810556,104.09014776494769 41.72942096810557,100.79014776494768 38.42942096810556,97.49014776494772 C 36.829420968105566,95.8901477649477 34.72942096810556,94.3901477649477 32.12942096810556,93.69014776494771 C 29.52942096810557,92.8901477649477 26.129420968105563,92.8901477649477 22.829420968105566,93.8901477649477 C 16.92942096810556,95.49014776494772 12.229420968105572,100.69014776494771 10.92942096810556,107.8901477649477 C 9.629420968105563,114.99014776494772 11.729420968105558,122.8901477649477 16.729420968105558,128.79014776494768 C 23.729420968105558,137.19014776494765 34.029420968105555,141.69014776494765 44.029420968105555,143.3901477649477 C 54.12942096810556,145.19014776494765 64.12942096810556,144.49014776494772 73.42942096810555,143.29014776494768 C 92.12942096810553,140.79014776494768 107.92942096810555,135.79014776494768 121.42942096810555,130.49014776494772 C 134.92942096810555,125.19014776494777 145.92942096810555,119.69014776494777 155.32942096810555,114.79014776494768 C 164.62942096810556,109.8901477649477 172.22942096810556,105.49014776494766 178.52942096810554,101.8901477649477 C 191.02942096810557,94.59014776494769 198.22942096810556,90.3901477649477 202.42942096810555,88.09014776494769 C 206.62942096810553,85.79014776494768 207.62942096810553,85.3901477649477 207.62942096810553,85.3901477649477 C 207.62942096810553,85.3901477649477 206.82942096810552,86.19014776494771 203.12942096810553,89.09014776494769 C 199.32942096810552,91.99014776494766 192.72942096810556,97.09014776494769 180.72942096810556,105.29014776494768 C 174.72942096810556,109.3901477649477 167.32942096810555,114.19014776494765 158.12942096810556,119.69014776494765 C 148.92942096810557,125.09014776494763 137.82942096810555,131.19014776494765 124.22942096810556,137.09014776494763 C 110.62942096810556,142.89014776494759 94.22942096810556,148.59014776494763 74.72942096810556,151.59014776494763 C 65.02942096810557,152.9901477649476 54.22942096810556,153.89014776494759 42.72942096810556,152.09014776494763 C 31.329420968105552,150.29014776494768 18.92942096810556,145.19014776494765 9.829420968105552,134.69014776494765 C 3.329420968105552,127.19014776494765 -0.37057903189445085,117.09014776494763 0.029420968105554834,106.89014776494764 C 0.22942096810555768,101.79014776494762 1.4294209681055605,96.49014776494766 4.129420968105549,91.59014776494763 C 6.7294209681055435,86.69014776494765 10.729420968105543,82.49014776494761 15.329420968105552,79.39014776494764 C 20.62942096810555,75.79014776494762 27.029420968105555,73.69014776494765 33.529420968105555,73.59014776494763 C 40.12942096810555,73.39014776494764 46.42942096810556,75.29014776494762 51.429420968105546,78.09014776494763 C 61.629420968105535,83.59014776494763 66.62942096810553,92.69014776494765 68.02942096810554,97.69014776494765 C 69.92942096810555,103.59014776494763 69.82942096810555,110.09014776494763 67.72942096810553,115.69014776494765 C 66.72942096810553,118.49014776494761 65.12942096810553,121.09014776494763 63.22942096810553,123.09014776494763 C 61.329420968105524,125.09014776494763 59.329420968105524,126.59014776494763 57.22942096810553,127.49014776494761 C 53.129420968105535,129.39014776494759 49.22942096810553,129.29014776494756 46.829420968105524,128.19014776494765 C 44.42942096810552,127.09014776494763 43.42942096810552,125.29014776494768 43.42942096810552,123.49014776494761 C 43.42942096810552,121.69014776494765 44.12942096810552,119.89014776494759 44.52942096810551,118.19014776494765 C 45.02942096810551,116.49014776494761 45.229420968105515,114.79014776494768 45.12942096810551,113.29014776494768 C 45.12942096810551,112.49014776494772 45.02942096810551,111.79014776494768 44.82942096810551,111.29014776494768 C 44.62942096810551,110.79014776494768 44.429420968105504,110.29014776494768 44.229420968105515,109.69014776494765 C 43.62942096810556,108.59014776494774 43.329420968105566,107.09014776494774 42.829420968105566,105.3901477649477 M 171.92942096810557,31.8901477649477 C 171.52942096810557,30.99014776494772 170.92942096810557,29.19014776494771 169.42942096810557,27.590147764947687 C 167.92942096810557,25.990147764947665 164.7294209681056,24.3901477649477 160.92942096810557,24.490147764947665 C 157.62942096810556,24.590147764947687 154.2294209681056,25.890147764947642 151.7294209681056,28.390147764947642 C 149.2294209681056,30.890147764947642 147.5294209681056,34.59014776494763 147.1294209681056,38.29014776494762 C 146.4294209681056,43.59014776494763 147.9294209681056,48.690147764947596 150.4294209681056,52.79014776494762 C 152.9294209681056,56.89014776494764 156.4294209681056,60.09014776494763 160.1294209681056,62.39014776494764 C 167.6294209681056,66.99014776494766 175.6294209681056,68.09014776494763 182.4294209681056,68.29014776494762 C 196.1294209681056,68.29014776494762 205.6294209681056,64.99014776494761 212.22942096810561,63.09014776494763 C 218.82942096810564,60.99014776494761 222.6294209681056,59.79014776494762 224.82942096810564,59.09014776494763 C 227.02942096810563,58.39014776494764 227.52942096810563,58.29014776494762 227.52942096810563,58.29014776494762 C 227.52942096810563,58.29014776494762 227.12942096810565,58.59014776494763 225.02942096810563,59.59014776494763 C 223.02942096810563,60.59014776494763 219.4294209681056,62.39014776494764 212.9294209681056,64.99014776494761 C 206.4294209681056,67.39014776494759 196.9294209681056,71.39014776494759 182.4294209681056,71.89014776494759 C 175.22942096810561,71.99014776494761 166.5294209681056,70.99014776494761 158.0294209681056,66.09014776494757 C 153.8294209681056,63.590147764947574 149.7294209681056,59.99014776494755 146.7294209681056,55.29014776494756 C 143.7294209681056,50.590147764947574 141.82942096810558,44.390147764947585 142.5294209681056,37.890147764947585 C 143.0294209681056,33.29014776494756 144.6294209681056,28.790147764947562 147.5294209681056,24.890147764947585 C 150.4294209681056,20.990147764947608 154.6294209681056,18.090147764947574 159.3294209681056,16.490147764947608 C 164.72942096810561,14.690147764947596 171.12942096810562,15.190147764947596 175.9294209681056,17.890147764947585 C 180.72942096810561,20.590147764947574 183.1294209681056,24.490147764947608 184.02942096810563,26.490147764947608 C 186.32942096810564,31.490147764947608 185.52942096810563,36.890147764947585 183.52942096810563,39.890147764947585 C 181.52942096810563,42.99014776494761 178.82942096810564,43.590147764947574 177.42942096810563,42.590147764947574 C 175.92942096810563,41.590147764947574 175.22942096810564,39.590147764947574 174.42942096810563,37.79014776494756 C 173.62942096810556,35.8901477649477 172.82942096810558,33.99014776494772 171.92942096810557,31.8901477649477 M 241.92942096810555,14.19014776494771 C 241.22942096810556,13.69014776494771 239.92942096810555,12.390147764947699 237.82942096810552,11.590147764947687 C 235.82942096810552,10.69014776494771 232.7294209681055,10.390147764947699 229.5294209681055,11.490147764947665 C 226.7294209681055,12.390147764947642 224.0294209681055,14.490147764947665 222.32942096810552,17.190147764947653 C 220.62942096810553,19.890147764947642 219.92942096810555,23.390147764947642 220.32942096810552,26.790147764947676 C 220.82942096810552,31.590147764947687 223.12942096810553,35.790147764947676 226.12942096810553,38.69014776494765 C 229.22942096810556,41.69014776494765 233.0294209681055,43.59014776494763 236.82942096810552,44.490147764947665 C 244.42942096810555,46.290147764947676 251.42942096810555,44.09014776494769 257.12942096810553,41.790147764947676 C 262.8294209681055,39.3901477649477 267.62942096810553,36.69014776494765 271.8294209681055,34.69014776494765 C 276.0294209681055,32.69014776494765 279.42942096810555,30.990147764947665 282.2294209681055,29.59014776494763 C 293.6294209681055,24.190147764947653 295.5294209681055,23.690147764947653 295.5294209681055,23.690147764947653 C 295.5294209681055,23.690147764947653 294.0294209681055,24.990147764947665 283.12942096810553,31.390147764947642 C 280.42942096810555,32.990147764947665 277.0294209681055,34.89014776494764 273.0294209681055,37.19014776494765 C 268.9294209681055,39.39014776494764 264.3294209681055,42.19014776494765 258.4294209681055,44.990147764947665 C 252.62942096810548,47.59014776494769 244.82942096810547,50.490147764947665 235.7294209681055,48.59014776494769 C 231.32942096810552,47.59014776494769 226.7294209681055,45.490147764947665 222.9294209681055,41.990147764947665 C 219.12942096810548,38.39014776494764 216.2294209681055,33.290147764947676 215.5294209681055,27.390147764947642 C 215.0294209681055,23.190147764947653 215.4294209681055,18.79014776494762 217.12942096810553,14.79014776494762 C 218.82942096810552,10.690147764947596 221.62942096810553,7.190147764947596 225.22942096810556,4.390147764947642 C 229.32942096810558,1.1901477649476533 234.92942096810555,-0.40985223505236945 239.72942096810556,0.09014776494763055 C 244.52942096810557,0.4901477649476078 248.02942096810557,2.390147764947642 249.52942096810557,3.5901477649476305 C 253.42942096810555,6.490147764947608 255.42942096810555,10.79014776494762 255.32942096810558,13.990147764947608 C 255.32942096810558,17.29014776494762 253.72942096810556,19.09014776494763 252.02942096810557,19.29014776494762 C 250.22942096810556,19.490147764947608 248.42942096810555,18.490147764947608 246.72942096810556,17.490147764947608 C 245.32942096810558,16.590147764947744 243.6294209681056,15.490147764947721 241.92942096810555,14.19014776494771 M 222.32942096810558,117.69014776494777 C 205.72942096810556,128.2901477649478 215.82942096810558,151.19014776494777 234.82942096810558,145.99014776494772 C 235.02942096810557,145.8901477649477 235.32942096810558,145.79014776494768 235.52942096810557,145.69014776494777 C 252.1294209681056,135.09014776494774 242.02942096810557,112.29014776494779 223.02942096810557,117.39014776494781 C 222.72942096810556,117.49014776494772 222.52942096810557,117.59014776494774 222.32942096810558,117.69014776494777 M 520.3294209681055,118.79014776494768 C 519.9294209681055,119.19014776494765 519.6294209681055,119.69014776494765 519.1294209681055,120.29014776494768 C 518.7294209681055,120.79014776494768 518.0294209681055,121.29014776494768 517.4294209681054,121.8901477649477 C 516.3294209681054,123.19014776494765 514.5294209681055,124.19014776494765 512.7294209681054,125.59014776494774 C 508.7294209681054,127.99014776494772 503.2294209681054,130.2901477649478 496.52942096810534,131.2901477649478 C 489.9294209681053,132.2901477649478 482.3294209681053,131.69014776494777 475.52942096810534,128.7901477649478 C 473.7294209681054,128.19014776494777 472.4294209681053,126.99014776494784 470.62942096810536,126.09014776494774 C 469.2294209681054,124.8901477649477 467.8294209681054,123.79014776494779 466.3294209681054,122.3901477649477 C 463.62942096810536,119.29014776494768 461.02942096810546,115.8901477649477 459.42942096810543,111.79014776494768 C 453.02942096810546,97.79014776494768 454.6294209681055,79.29014776494768 462.7294209681054,64.09014776494769 C 466.7294209681054,56.490147764947665 472.2294209681054,49.490147764947665 478.92942096810543,44.09014776494769 C 485.7294209681054,38.69014776494771 493.7294209681054,34.490147764947665 502.2294209681054,31.790147764947676 C 514.1294209681054,27.8901477649477 526.4294209681054,26.590147764947687 538.3294209681054,26.8901477649477 C 550.3294209681054,27.090147764947687 561.9294209681054,29.19014776494771 572.9294209681054,31.99014776494772 C 594.9294209681054,37.99014776494772 614.6294209681055,47.49014776494772 632.9294209681054,56.49014776494772 C 651.3294209681054,65.59014776494774 668.5294209681055,74.49014776494772 685.6294209681055,81.29014776494773 C 702.6294209681055,88.09014776494774 719.2294209681055,92.79014776494773 735.1294209681055,94.69014776494771 C 751.0294209681055,96.69014776494771 766.2294209681055,95.8901477649477 779.6294209681055,92.49014776494772 C 793.0294209681055,89.09014776494774 804.9294209681054,82.8901477649477 813.2294209681055,74.09014776494774 C 821.4294209681055,65.39014776494776 826.0294209681055,54.590147764947744 826.0294209681055,44.390147764947756 C 826.0294209681055,34.19014776494777 822.0294209681055,25.290147764947733 816.1294209681055,19.49014776494778 C 810.2294209681055,13.490147764947778 802.5294209681055,11.190147764947767 796.0294209681055,11.29014776494779 C 789.4294209681054,11.29014776494779 783.7294209681055,13.690147764947767 779.9294209681054,16.99014776494778 C 776.0294209681055,20.29014776494779 774.0294209681055,24.49014776494778 773.1294209681055,27.99014776494778 C 772.1294209681055,31.5901477649478 772.2294209681055,34.79014776494779 772.5294209681055,37.29014776494779 C 773.4294209681054,42.49014776494778 775.3294209681054,45.19014776494777 776.5294209681055,46.5901477649478 C 777.8294209681054,47.99014776494778 778.2294209681055,48.39014776494781 778.2294209681055,48.39014776494781 C 778.2294209681055,48.39014776494781 777.8294209681055,47.89014776494781 776.8294209681055,46.39014776494781 C 775.8294209681055,44.89014776494781 774.2294209681055,42.0901477649478 773.7294209681055,37.190147764947824 C 773.5294209681055,34.79014776494785 773.7294209681055,31.790147764947847 774.8294209681055,28.490147764947835 C 775.9294209681055,25.290147764947847 777.9294209681055,21.690147764947824 781.5294209681056,18.890147764947812 C 785.0294209681056,16.0901477649478 790.2294209681056,14.29014776494779 796.0294209681056,14.490147764947835 C 801.8294209681055,14.690147764947824 808.3294209681055,16.890147764947812 813.2294209681056,22.190147764947824 C 818.1294209681056,27.390147764947812 821.4294209681057,35.39014776494781 821.1294209681056,44.190147764947824 C 820.8294209681056,52.990147764947835 816.6294209681056,62.490147764947835 809.1294209681056,70.0901477649478 C 801.6294209681056,77.69014776494782 790.7294209681056,83.19014776494782 778.1294209681056,86.0901477649478 C 765.4294209681055,88.99014776494778 751.2294209681056,89.5901477649478 736.1294209681056,87.49014776494778 C 721.0294209681056,85.39014776494776 705.0294209681056,80.69014776494777 688.6294209681056,73.89014776494776 C 672.1294209681056,67.09014776494774 655.2294209681056,58.19014776494777 636.8294209681056,48.79014776494773 C 618.4294209681057,39.49014776494772 598.4294209681057,29.69014776494771 575.3294209681056,23.19014776494771 C 563.7294209681056,20.19014776494771 551.5294209681057,17.8901477649477 538.7294209681056,17.590147764947687 C 525.9294209681057,17.19014776494771 512.5294209681056,18.490147764947665 499.42942096810566,22.790147764947676 C 461.2294209681056,33.490147764947665 432.62942096810565,75.59014776494769 444.1294209681057,117.09014776494763 C 445.7294209681057,122.99014776494761 448.7294209681057,128.39014776494759 452.0294209681057,133.4901477649476 C 453.92942096810566,135.9901477649476 456.1294209681057,138.39014776494759 458.32942096810564,140.59014776494763 C 460.82942096810564,142.4901477649476 463.1294209681056,144.79014776494768 465.82942096810564,146.19014776494765 C 476.42942096810566,152.59014776494763 488.0294209681057,154.59014776494763 498.2294209681056,154.29014776494768 C 508.52942096810557,153.99014776494772 517.7294209681056,151.29014776494768 525.0294209681056,147.69014776494765 C 528.6294209681056,145.69014776494765 531.8294209681055,143.79014776494768 534.4294209681055,141.4901477649476 C 535.7294209681055,140.39014776494759 537.0294209681056,139.4901477649476 538.0294209681056,138.39014776494759 C 539.0294209681056,137.29014776494756 539.9294209681055,136.19014776494754 540.7294209681056,135.29014776494756 C 555.0294209681056,117.59014776494752 552.9294209681057,91.99014776494755 536.2294209681056,81.59014776494757 C 531.4294209681057,78.79014776494756 526.2294209681056,78.39014776494759 522.3294209681056,79.1901477649476 C 518.4294209681057,79.89014776494759 515.3294209681056,81.89014776494759 513.6294209681056,83.79014776494762 C 510.02942096810557,87.89014776494764 511.02942096810557,91.49014776494761 512.5294209681056,92.49014776494761 C 514.0294209681056,93.59014776494763 516.2294209681056,92.89014776494759 518.8294209681055,93.29014776494762 C 521.3294209681055,93.59014776494763 524.1294209681055,95.39014776494764 524.7294209681055,97.29014776494762 C 525.3294209681055,98.99014776494761 526.1294209681055,102.09014776494763 525.6294209681055,106.39014776494764 C 524.8294209681055,110.8901477649477 523.5294209681056,114.99014776494772 520.3294209681055,118.79014776494768 M 499.52942096810557,86.3901477649477 C 499.6294209681056,84.3901477649477 499.52942096810557,79.8901477649477 502.1294209681056,73.79014776494768 C 504.52942096810557,67.79014776494768 509.52942096810557,60.790147764947676 517.0294209681056,55.19014776494765 C 523.5294209681056,50.290147764947676 531.6294209681056,46.89014776494764 540.2294209681056,45.39014776494764 C 548.7294209681056,43.79014776494762 558.0294209681056,44.19014776494765 566.9294209681057,45.89014776494764 C 579.4294209681057,48.29014776494762 591.0294209681057,52.490147764947665 601.7294209681056,56.990147764947665 C 612.4294209681057,61.490147764947665 622.4294209681057,66.09014776494769 631.3294209681056,70.99014776494766 C 649.2294209681056,80.69014776494765 663.2294209681056,91.89014776494764 672.7294209681056,103.69014776494765 C 677.4294209681057,109.59014776494763 680.6294209681056,115.69014776494765 681.6294209681056,121.69014776494765 C 682.6294209681056,127.69014776494765 681.5294209681056,133.4901477649476 678.9294209681055,137.59014776494763 C 676.3294209681055,141.79014776494768 672.1294209681056,144.19014776494765 668.0294209681056,144.9901477649476 C 663.9294209681055,145.79014776494756 660.0294209681056,144.89014776494759 657.2294209681056,143.09014776494763 C 651.3294209681056,139.29014776494768 649.5294209681056,132.89014776494759 650.4294209681057,128.69014776494765 C 651.2294209681056,124.29014776494768 653.6294209681057,121.59014776494763 655.3294209681056,119.8901477649477 C 659.2294209681056,116.8901477649477 660.7294209681056,116.99014776494772 660.6294209681056,116.8901477649477 C 660.7294209681056,117.09014776494774 659.2294209681056,116.29014776494768 654.5294209681056,118.8901477649477 C 652.4294209681055,120.3901477649477 649.3294209681055,122.99014776494772 647.8294209681055,128.09014776494774 C 646.3294209681055,133.09014776494774 647.7294209681055,140.99014776494772 654.8294209681055,146.3901477649477 C 658.3294209681055,148.99014776494772 663.4294209681055,150.59014776494774 668.8294209681055,149.79014776494768 C 674.1294209681055,149.09014776494763 679.9294209681055,146.19014776494765 683.6294209681055,140.69014776494765 C 687.3294209681055,135.29014776494768 689.0294209681055,128.09014776494763 688.0294209681055,120.69014776494765 C 687.0294209681055,113.19014776494765 683.4294209681054,105.89014776494764 678.4294209681054,99.29014776494768 C 668.5294209681055,86.19014776494765 653.9294209681054,73.99014776494766 635.4294209681054,63.59014776494769 C 626.2294209681054,58.3901477649477 616.1294209681055,53.490147764947665 605.2294209681054,48.790147764947676 C 594.3294209681054,44.09014776494769 582.2294209681054,39.490147764947665 568.7294209681054,36.790147764947676 C 549.5294209681053,32.790147764947676 528.6294209681054,32.790147764947676 509.2294209681054,40.790147764947676 C 498.12942096810536,45.09014776494769 488.02942096810534,53.09014776494769 481.92942096810543,61.8901477649477 C 475.52942096810546,70.59014776494769 473.3294209681054,80.09014776494769 473.2294209681054,85.19014776494771 C 472.92942096810543,91.29014776494773 474.52942096810534,97.69014776494771 477.42942096810543,102.49014776494772 C 480.3294209681054,107.3901477649477 484.3294209681054,110.69014776494771 488.1294209681055,112.49014776494772 C 491.92942096810543,114.29014776494768 495.52942096810546,114.49014776494772 498.02942096810546,113.8901477649477 C 500.52942096810546,113.19014776494765 501.8294209681054,111.69014776494765 502.3294209681054,109.99014776494772 C 503.02942096810546,106.3901477649477 501.2294209681054,102.59014776494774 500.52942096810546,98.69014776494771 C 500.1294209681055,96.69014776494771 499.7294209681055,94.69014776494771 499.6294209681055,92.69014776494771 C 499.42942096810555,90.8901477649477 499.42942096810555,88.8901477649477 499.52942096810557,86.3901477649477 M 848.1294209681056,105.3901477649477 C 848.5294209681056,104.09014776494769 849.2294209681056,100.79014776494768 852.5294209681056,97.49014776494772 C 854.1294209681056,95.8901477649477 856.2294209681056,94.3901477649477 858.8294209681055,93.69014776494771 C 861.4294209681055,92.8901477649477 864.8294209681055,92.8901477649477 868.1294209681055,93.8901477649477 C 874.0294209681055,95.49014776494772 878.7294209681055,100.69014776494771 880.0294209681055,107.8901477649477 C 881.3294209681054,114.99014776494772 879.2294209681055,122.8901477649477 874.2294209681055,128.79014776494768 C 867.2294209681055,137.19014776494765 856.9294209681055,141.69014776494765 846.9294209681055,143.3901477649477 C 836.8294209681055,145.19014776494765 826.8294209681055,144.49014776494772 817.5294209681056,143.29014776494768 C 798.8294209681055,140.79014776494768 783.0294209681056,135.79014776494768 769.5294209681056,130.49014776494772 C 756.0294209681056,125.19014776494777 745.0294209681056,119.69014776494777 735.6294209681056,114.79014776494768 C 726.3294209681056,109.8901477649477 718.7294209681056,105.49014776494766 712.4294209681055,101.8901477649477 C 699.9294209681055,94.59014776494769 692.7294209681055,90.3901477649477 688.5294209681056,88.09014776494769 C 684.3294209681055,85.79014776494768 683.3294209681055,85.3901477649477 683.3294209681055,85.3901477649477 C 683.3294209681055,85.3901477649477 684.1294209681055,86.19014776494771 687.8294209681055,89.09014776494769 C 691.6294209681055,91.99014776494766 698.2294209681055,97.09014776494769 710.2294209681055,105.29014776494768 C 716.2294209681055,109.3901477649477 723.6294209681055,114.19014776494765 732.8294209681055,119.69014776494765 C 742.0294209681056,125.09014776494763 753.1294209681055,131.19014776494765 766.7294209681055,137.09014776494763 C 780.3294209681055,142.89014776494759 796.7294209681055,148.59014776494763 816.2294209681055,151.59014776494763 C 825.9294209681055,152.9901477649476 836.7294209681055,153.89014776494759 848.2294209681055,152.09014776494763 C 859.6294209681055,150.29014776494768 872.0294209681055,145.19014776494765 881.1294209681055,134.69014776494765 C 887.6294209681055,127.19014776494765 891.3294209681055,117.09014776494763 890.9294209681054,106.89014776494764 C 890.7294209681054,101.79014776494762 889.5294209681055,96.49014776494766 886.8294209681054,91.59014776494763 C 884.2294209681054,86.69014776494765 880.2294209681054,82.49014776494761 875.6294209681054,79.39014776494764 C 870.3294209681054,75.79014776494762 863.9294209681053,73.69014776494765 857.4294209681053,73.59014776494763 C 850.8294209681053,73.39014776494764 844.5294209681053,75.29014776494762 839.5294209681053,78.09014776494763 C 829.3294209681053,83.59014776494763 824.3294209681053,92.69014776494765 822.9294209681053,97.69014776494765 C 821.0294209681053,103.59014776494763 821.1294209681054,110.09014776494763 823.2294209681053,115.69014776494765 C 824.2294209681053,118.49014776494761 825.8294209681053,121.09014776494763 827.7294209681053,123.09014776494763 C 829.6294209681053,125.09014776494763 831.6294209681053,126.59014776494763 833.7294209681053,127.49014776494761 C 837.8294209681053,129.39014776494759 841.7294209681053,129.29014776494756 844.1294209681053,128.19014776494765 C 846.5294209681052,127.09014776494763 847.5294209681052,125.29014776494768 847.5294209681052,123.49014776494761 C 847.5294209681052,121.69014776494765 846.8294209681052,119.89014776494759 846.4294209681052,118.19014776494765 C 845.9294209681052,116.49014776494761 845.7294209681052,114.79014776494768 845.8294209681052,113.29014776494768 C 845.8294209681052,112.49014776494772 845.9294209681052,111.79014776494768 846.1294209681051,111.29014776494768 C 846.3294209681052,110.79014776494768 846.5294209681051,110.29014776494768 846.7294209681052,109.69014776494765 C 847.2294209681056,108.59014776494774 847.6294209681056,107.09014776494774 848.1294209681056,105.3901477649477 M 718.9294209681055,31.8901477649477 C 719.3294209681055,30.99014776494772 719.9294209681055,29.19014776494771 721.4294209681055,27.590147764947687 C 722.9294209681055,25.990147764947665 726.1294209681056,24.3901477649477 729.9294209681055,24.490147764947665 C 733.2294209681055,24.590147764947687 736.6294209681056,25.890147764947642 739.1294209681056,28.390147764947642 C 741.6294209681056,30.890147764947642 743.3294209681056,34.59014776494763 743.7294209681056,38.29014776494762 C 744.4294209681057,43.59014776494763 742.9294209681057,48.690147764947596 740.4294209681057,52.79014776494762 C 737.9294209681057,56.89014776494764 734.4294209681057,60.09014776494763 730.7294209681056,62.39014776494764 C 723.2294209681056,66.99014776494766 715.2294209681056,68.09014776494763 708.4294209681057,68.29014776494762 C 694.7294209681056,68.29014776494762 685.2294209681056,64.99014776494761 678.6294209681057,63.09014776494763 C 672.0294209681057,60.99014776494761 668.2294209681057,59.79014776494762 666.0294209681057,59.09014776494763 C 663.8294209681056,58.39014776494764 663.3294209681056,58.29014776494762 663.3294209681056,58.29014776494762 C 663.3294209681056,58.29014776494762 663.7294209681056,58.59014776494763 665.8294209681056,59.59014776494763 C 667.8294209681056,60.59014776494763 671.4294209681057,62.39014776494764 677.9294209681057,64.99014776494761 C 684.4294209681057,67.39014776494759 693.9294209681057,71.39014776494759 708.4294209681057,71.89014776494759 C 715.6294209681057,71.99014776494761 724.3294209681056,70.99014776494761 732.8294209681056,66.09014776494757 C 737.0294209681057,63.590147764947574 741.1294209681056,59.99014776494755 744.1294209681056,55.29014776494756 C 747.1294209681056,50.590147764947574 749.0294209681056,44.390147764947585 748.3294209681056,37.890147764947585 C 747.8294209681056,33.29014776494756 746.2294209681056,28.790147764947562 743.3294209681056,24.890147764947585 C 740.4294209681057,20.990147764947608 736.2294209681056,18.090147764947574 731.5294209681057,16.490147764947608 C 726.1294209681057,14.690147764947596 719.7294209681057,15.190147764947596 714.9294209681057,17.890147764947585 C 710.1294209681057,20.590147764947574 707.7294209681056,24.490147764947608 706.8294209681056,26.490147764947608 C 704.5294209681057,31.490147764947608 705.3294209681056,36.890147764947585 707.3294209681056,39.890147764947585 C 709.3294209681056,42.99014776494761 712.0294209681057,43.590147764947574 713.4294209681057,42.590147764947574 C 714.9294209681057,41.590147764947574 715.6294209681057,39.590147764947574 716.4294209681057,37.79014776494756 C 717.3294209681055,35.8901477649477 718.1294209681056,33.99014776494772 718.9294209681055,31.8901477649477 M 649.0294209681056,14.19014776494771 C 649.7294209681056,13.69014776494771 651.0294209681056,12.390147764947699 653.1294209681056,11.590147764947687 C 655.1294209681056,10.69014776494771 658.2294209681056,10.390147764947699 661.4294209681055,11.490147764947665 C 664.2294209681055,12.390147764947642 666.9294209681055,14.490147764947665 668.6294209681056,17.190147764947653 C 670.3294209681056,19.890147764947642 671.0294209681056,23.390147764947642 670.6294209681056,26.790147764947676 C 670.1294209681056,31.590147764947687 667.8294209681056,35.790147764947676 664.8294209681056,38.69014776494765 C 661.7294209681056,41.69014776494765 657.9294209681057,43.59014776494763 654.1294209681056,44.490147764947665 C 646.5294209681056,46.290147764947676 639.5294209681056,44.09014776494769 633.8294209681056,41.790147764947676 C 628.1294209681056,39.3901477649477 623.3294209681056,36.69014776494765 619.1294209681056,34.69014776494765 C 614.9294209681055,32.69014776494765 611.5294209681056,30.990147764947665 608.7294209681056,29.59014776494763 C 597.3294209681056,24.190147764947653 595.4294209681057,23.690147764947653 595.4294209681057,23.690147764947653 C 595.4294209681057,23.690147764947653 596.9294209681057,24.990147764947665 607.8294209681056,31.390147764947642 C 610.5294209681057,32.990147764947665 613.9294209681057,34.89014776494764 617.9294209681057,37.19014776494765 C 622.0294209681057,39.39014776494764 626.6294209681057,42.19014776494765 632.5294209681057,44.990147764947665 C 638.3294209681056,47.59014776494769 646.1294209681057,50.490147764947665 655.2294209681057,48.59014776494769 C 659.6294209681057,47.59014776494769 664.2294209681057,45.490147764947665 668.0294209681057,41.990147764947665 C 671.8294209681056,38.39014776494764 674.7294209681057,33.290147764947676 675.4294209681057,27.390147764947642 C 675.9294209681057,23.190147764947653 675.5294209681057,18.79014776494762 673.8294209681056,14.79014776494762 C 672.1294209681056,10.690147764947596 669.3294209681056,7.190147764947596 665.7294209681056,4.390147764947642 C 661.6294209681056,1.1901477649476533 656.0294209681056,-0.40985223505236945 651.2294209681056,0.09014776494763055 C 646.4294209681057,0.4901477649476078 642.9294209681057,2.390147764947642 641.4294209681057,3.5901477649476305 C 637.5294209681057,6.490147764947608 635.5294209681057,10.79014776494762 635.6294209681057,13.990147764947608 C 635.6294209681057,17.29014776494762 637.2294209681057,19.09014776494763 638.9294209681057,19.29014776494762 C 640.7294209681056,19.490147764947608 642.5294209681057,18.490147764947608 644.2294209681056,17.490147764947608 C 645.6294209681056,16.590147764947744 647.3294209681055,15.490147764947721 649.0294209681056,14.19014776494771 M 668.6294209681056,117.69014776494777 C 685.2294209681056,128.2901477649478 675.1294209681056,151.19014776494777 656.1294209681056,145.99014776494772 C 655.9294209681055,145.8901477649477 655.6294209681056,145.79014776494768 655.4294209681055,145.69014776494777 C 638.8294209681055,135.09014776494774 648.9294209681055,112.29014776494779 667.9294209681055,117.39014776494781 C 668.1294209681056,117.49014776494772 668.4294209681055,117.59014776494774 668.6294209681056,117.69014776494777"/>
</svg>
