<?xml version="1.0" ?>
<svg xmlns="http://www.w3.org/2000/svg" xmlns:ev="http://www.w3.org/2001/xml-events" xmlns:xlink="http://www.w3.org/1999/xlink" baseProfile="full" enable-background="new 0 0 1000 1000" height="153" id="Layer_1" transform="scale(0.6535947712418301 0.6535947712418301) translate(-448.0 -76.5)" version="1.1" viewBox="0 0 896 153" width="896" x="0px" xml:space="preserve" y="0px">
	<defs/>
	<path d="M 850.6032806573126,116.45639452948444 C 846.2032806573126,118.55639452948446 837.1032806573126,122.2563945294844 822.5032806573125,122.95639452948444 C 808.0032806573125,123.7563945294844 788.6032806573126,122.45639452948444 769.6032806573126,119.85639452948442 C 752.8032806573126,117.55639452948446 735.9032806573125,113.45639452948444 719.5032806573125,107.7563945294844 C 703.0032806573125,102.05639452948435 687.0032806573125,94.65639452948437 671.5032806573125,86.05639452948435 C 649.7032806573126,74.05639452948435 629.7032806573126,61.65639452948437 610.4032806573125,50.35639452948436 C 591.1032806573126,39.05639452948435 572.4032806573125,29.05639452948435 554.1032806573126,21.05639452948435 C 535.8032806573126,13.05639452948435 517.8032806573126,7.256394529484339 500.60328065731255,3.7563945294843393 C 492.00328065731253,1.956394529484328 483.50328065731253,0.9563945294843279 475.3032806573126,0.2563945294843393 C 467.00328065731264,-0.24360547051566073 458.7032806573126,-0.143605470515638 450.8032806573126,1.7563945294843393 C 442.9032806573126,3.5563945294843506 435.50328065731253,7.456394529484328 430.00328065731253,12.956394529484328 C 424.50328065731253,18.356394529484305 420.7032806573126,25.656394529484317 420.3032806573126,33.15639452948432 C 419.8032806573126,40.65639452948432 422.2032806573126,47.556394529484294 425.60328065731255,52.95639452948433 C 429.00328065731253,58.45639452948433 433.3032806573126,62.856394529484305 437.7032806573126,66.45639452948433 C 455.9032806573126,80.55639452948435 475.00328065731264,84.25639452948428 489.9032806573126,85.05639452948435 C 505.10328065731267,85.7563945294844 516.9032806573126,82.95639452948433 525.7032806573126,80.05639452948435 C 534.5032806573125,77.05639452948435 540.5032806573125,73.7563945294844 544.6032806573126,71.15639452948437 C 548.7032806573126,68.55639452948435 551.0032806573125,66.65639452948437 552.4032806573125,65.45639452948433 C 553.8032806573125,64.3563945294843 554.2032806573125,63.95639452948433 554.2032806573125,63.95639452948433 C 554.2032806573125,63.95639452948433 553.7032806573125,64.25639452948428 552.2032806573125,65.15639452948437 C 550.7032806573125,66.05639452948435 548.2032806573125,67.65639452948437 543.9032806573125,69.85639452948442 C 539.7032806573125,72.05639452948446 533.6032806573126,74.7563945294844 524.9032806573125,77.05639452948446 C 516.2032806573125,79.25639452948451 504.70328065731246,81.35639452948442 490.4032806573125,79.95639452948444 C 483.20328065731246,79.2563945294844 475.4032806573125,77.85639452948442 467.10328065731255,74.95639452948444 C 458.9032806573125,72.05639452948446 450.10328065731255,67.65639452948449 442.4032806573125,61.056394529484464 C 438.60328065731255,57.65639452948449 434.9032806573125,53.75639452948445 432.3032806573125,49.056394529484464 C 429.60328065731255,44.45639452948444 428.00328065731253,39.15639452948449 428.50328065731253,33.75639452948445 C 429.3032806573125,22.95639452948444 439.9032806573125,12.956394529484442 453.10328065731255,10.456394529484442 C 466.4032806573125,7.556394529484464 482.50328065731253,9.956394529484442 498.9032806573125,13.256394529484453 C 515.3032806573125,16.856394529484476 532.5032806573125,22.65639452948443 550.2032806573125,30.556394529484464 C 567.9032806573125,38.45639452948444 586.1032806573124,48.45639452948444 605.1032806573124,59.75639452948451 C 624.2032806573125,71.05639452948446 644.2032806573125,83.65639452948449 666.3032806573125,95.95639452948456 C 682.1032806573124,104.75639452948451 698.2032806573125,113.1563945294846 714.8032806573125,120.45639452948456 C 731.4032806573125,127.75639452948451 748.3032806573125,134.1563945294846 765.4032806573125,139.55639452948458 C 775.2032806573125,142.6563945294846 785.0032806573125,145.25639452948462 794.5032806573125,147.35639452948453 C 803.9032806573125,149.45639452948456 813.3032806573125,151.1563945294845 822.3032806573125,151.85639452948453 C 831.3032806573125,152.55639452948458 839.8032806573125,152.35639452948453 847.2032806573125,151.1563945294845 C 854.5032806573124,149.95639452948444 860.5032806573124,147.95639452948444 864.5032806573124,146.1563945294845 C 874.5032806573124,141.7563945294845 882.6032806573124,134.2563945294845 887.6032806573124,126.55639452948446 C 892.8032806573125,118.75639452948451 895.1032806573124,110.15639452948449 895.3032806573125,102.95639452948444 C 895.4032806573125,95.65639452948449 893.2032806573125,89.95639452948444 890.6032806573124,86.7563945294844 C 888.0032806573124,83.55639452948435 885.3032806573125,82.65639452948437 883.2032806573125,83.35639452948442 C 878.9032806573125,85.05639452948446 877.3032806573125,91.7563945294844 872.7032806573125,97.95639452948444 C 867.8032806573125,104.35639452948442 860.4032806573125,112.15639452948437 850.6032806573126,116.45639452948444 M 733.8032806573125,61.95639452948444 C 738.8032806573125,60.85639452948442 747.7032806573125,58.056394529484464 759.3032806573125,57.95639452948444 C 770.7032806573125,57.65639452948449 784.8032806573125,60.556394529484464 795.0032806573125,69.45639452948444 C 803.9032806573125,77.2563945294844 809.6032806573126,90.65639452948449 807.2032806573126,102.85639452948442 C 806.1032806573126,108.95639452948444 802.8032806573126,114.55639452948446 798.0032806573125,119.15639452948437 C 793.2032806573126,123.7563945294844 787.0032806573125,127.2563945294844 780.3032806573125,129.65639452948437 C 761.4032806573125,136.45639452948433 741.4032806573125,136.35639452948442 723.5032806573125,133.05639452948435 C 705.5032806573125,129.65639452948437 689.1032806573126,123.2563945294844 674.4032806573125,115.8563945294843 C 659.7032806573125,108.45639452948433 646.8032806573125,99.8563945294843 634.8032806573125,91.55639452948435 C 622.9032806573125,83.15639452948437 611.9032806573125,74.95639452948433 601.7032806573125,67.3563945294843 C 581.2032806573125,52.15639452948432 562.9032806573125,39.65639452948432 546.3032806573125,30.956394529484328 C 529.7032806573125,22.156394529484317 515.1032806573124,16.656394529484317 502.8032806573125,13.156394529484317 C 478.10328065731244,6.256394529484339 463.00328065731253,6.756394529484339 454.8032806573125,6.856394529484305 C 450.70328065731246,6.956394529484328 448.10328065731244,7.356394529484305 446.60328065731244,7.456394529484328 C 445.10328065731244,7.6563945294843165 444.60328065731244,7.756394529484339 444.60328065731244,7.756394529484339 C 444.60328065731244,7.756394529484339 445.10328065731244,7.756394529484339 446.60328065731244,7.956394529484328 C 448.10328065731244,8.05639452948435 450.70328065731246,8.05639452948435 454.8032806573125,8.456394529484328 C 462.9032806573125,9.25639452948434 477.60328065731244,10.05639452948435 501.3032806573125,18.05639452948435 C 513.1032806573124,22.05639452948435 527.1032806573124,28.05639452948435 542.9032806573125,37.15639452948437 C 558.8032806573125,46.256394529484396 576.2032806573125,58.85639452948442 596.3032806573125,74.55639452948435 C 606.4032806573125,82.3563945294843 617.2032806573125,90.8563945294843 629.2032806573125,99.55639452948435 C 641.2032806573125,108.2563945294844 654.4032806573125,117.3563945294843 669.7032806573125,125.2563945294844 C 684.9032806573125,133.2563945294844 702.1032806573124,140.15639452948437 721.5032806573124,144.05639452948435 C 740.8032806573124,147.8563945294843 762.7032806573125,148.2563945294844 784.3032806573124,140.65639452948437 C 792.0032806573124,137.85639452948442 799.6032806573123,133.95639452948433 806.1032806573123,128.35639452948442 C 812.6032806573123,122.7563945294844 818.1032806573123,115.15639452948437 820.6032806573123,106.45639452948444 C 825.6032806573123,88.95639452948444 820.9032806573123,70.45639452948444 810.3032806573124,56.056394529484464 C 804.0032806573124,47.65639452948449 795.8032806573124,41.556394529484464 787.2032806573123,37.15639452948449 C 778.6032806573123,32.856394529484476 769.8032806573124,30.356394529484476 761.8032806573124,29.156394529484487 C 745.6032806573123,26.656394529484487 732.6032806573123,28.856394529484476 726.3032806573124,30.25639452948451 C 710.8032806573124,33.9563945294845 699.0032806573124,41.25639452948451 691.6032806573123,47.85639452948453 C 684.3032806573124,54.55639452948458 681.1032806573123,60.75639452948451 683.1032806573123,64.85639452948453 C 685.1032806573123,68.95639452948456 692.0032806573123,69.95639452948456 701.3032806573124,68.95639452948456 C 710.5032806573125,67.7563945294844 722.0032806573125,64.7563945294844 733.8032806573125,61.95639452948444 M 44.60328065731248,116.45639452948444 C 49.00328065731249,118.55639452948446 58.10328065731248,122.2563945294844 72.70328065731249,122.95639452948444 C 87.20328065731249,123.7563945294844 106.6032806573125,122.45639452948444 125.6032806573125,119.85639452948442 C 142.4032806573125,117.55639452948446 159.3032806573125,113.45639452948444 175.7032806573125,107.7563945294844 C 192.2032806573125,102.05639452948435 208.2032806573125,94.65639452948437 223.7032806573125,86.05639452948435 C 245.5032806573125,74.05639452948435 265.50328065731253,61.65639452948437 284.8032806573125,50.35639452948436 C 304.10328065731255,39.05639452948435 322.8032806573125,29.05639452948435 341.10328065731255,21.05639452948435 C 359.4032806573125,13.05639452948435 377.4032806573125,7.256394529484339 394.60328065731255,3.7563945294843393 C 403.2032806573126,1.956394529484328 411.7032806573126,0.9563945294843279 419.9032806573125,0.2563945294843393 C 428.2032806573126,-0.24360547051566073 436.50328065731253,-0.143605470515638 444.4032806573125,1.7563945294843393 C 452.3032806573125,3.5563945294843506 459.7032806573126,7.456394529484328 465.2032806573126,12.956394529484328 C 470.8032806573126,18.356394529484305 474.50328065731253,25.656394529484317 475.00328065731253,33.15639452948432 C 475.50328065731253,40.65639452948432 473.10328065731255,47.556394529484294 469.7032806573126,52.95639452948433 C 466.3032806573126,58.45639452948433 462.00328065731253,62.856394529484305 457.60328065731255,66.45639452948433 C 439.4032806573125,80.55639452948435 420.3032806573125,84.25639452948428 405.4032806573125,85.05639452948435 C 390.2032806573126,85.7563945294844 378.4032806573125,82.95639452948433 369.60328065731255,80.05639452948435 C 360.8032806573125,77.05639452948435 354.8032806573125,73.7563945294844 350.7032806573126,71.15639452948437 C 346.60328065731255,68.55639452948435 344.3032806573126,66.65639452948437 342.9032806573125,65.45639452948433 C 341.50328065731253,64.3563945294843 341.10328065731255,63.95639452948433 341.10328065731255,63.95639452948433 C 341.10328065731255,63.95639452948433 341.60328065731255,64.25639452948428 343.10328065731255,65.15639452948437 C 344.60328065731255,66.05639452948435 347.10328065731255,67.65639452948437 351.4032806573125,69.85639452948442 C 355.60328065731255,72.05639452948446 361.7032806573126,74.7563945294844 370.4032806573125,77.05639452948446 C 379.10328065731255,79.25639452948451 390.60328065731255,81.35639452948442 404.9032806573125,79.95639452948444 C 412.10328065731255,79.2563945294844 419.9032806573125,77.85639452948442 428.2032806573126,74.95639452948444 C 436.4032806573125,72.05639452948446 445.2032806573126,67.65639452948449 452.9032806573125,61.056394529484464 C 456.7032806573126,57.65639452948449 460.4032806573125,53.75639452948445 463.00328065731253,49.056394529484464 C 465.7032806573126,44.45639452948444 467.3032806573125,39.15639452948449 466.8032806573125,33.75639452948445 C 466.00328065731253,22.95639452948444 455.4032806573125,12.956394529484442 442.20328065731246,10.456394529484442 C 428.9032806573124,7.556394529484464 412.8032806573125,9.956394529484442 396.4032806573124,13.256394529484453 C 380.0032806573124,16.856394529484476 362.80328065731237,22.65639452948443 345.10328065731244,30.556394529484464 C 327.4032806573124,38.45639452948444 309.20328065731246,48.45639452948444 290.20328065731246,59.75639452948451 C 271.10328065731244,71.05639452948446 251.1032806573124,83.65639452948449 229.00328065731244,95.95639452948456 C 213.20328065731243,104.75639452948451 197.10328065731244,113.1563945294846 180.50328065731244,120.45639452948456 C 163.90328065731245,127.75639452948451 147.00328065731244,134.1563945294846 129.90328065731245,139.55639452948458 C 120.10328065731244,142.6563945294846 110.30328065731246,145.25639452948462 100.80328065731246,147.35639452948453 C 91.40328065731245,149.45639452948456 82.00328065731244,151.1563945294845 73.00328065731244,151.85639452948453 C 64.00328065731244,152.55639452948458 55.503280657312445,152.35639452948453 48.10328065731244,151.1563945294845 C 40.80328065731244,149.95639452948444 34.80328065731244,147.95639452948444 30.803280657312442,146.1563945294845 C 20.803280657312442,141.7563945294845 12.703280657312433,134.2563945294845 7.703280657312433,126.55639452948446 C 2.5032806573124304,118.75639452948451 0.20328065731243328,110.15639452948449 0.003280657312430435,102.95639452948444 C -0.09671934268757099,95.65639452948449 2.103280657312432,89.95639452948444 4.703280657312433,86.7563945294844 C 7.303280657312428,83.55639452948435 10.00328065731243,82.65639452948437 12.103280657312439,83.35639452948442 C 16.403280657312436,85.05639452948446 18.003280657312445,91.7563945294844 22.60328065731244,97.95639452948444 C 27.40328065731248,104.35639452948442 34.703280657312476,112.15639452948437 44.60328065731248,116.45639452948444 M 161.40328065731248,61.95639452948444 C 156.40328065731248,60.85639452948442 147.50328065731247,58.056394529484464 135.90328065731248,57.95639452948444 C 124.50328065731247,57.65639452948449 110.40328065731248,60.556394529484464 100.20328065731249,69.45639452948444 C 91.30328065731248,77.2563945294844 85.6032806573125,90.65639452948449 88.0032806573125,102.85639452948442 C 89.1032806573125,108.95639452948444 92.40328065731251,114.55639452948446 97.20328065731249,119.15639452948437 C 102.0032806573125,123.7563945294844 108.20328065731249,127.2563945294844 114.90328065731248,129.65639452948437 C 133.80328065731248,136.45639452948433 153.80328065731248,136.35639452948442 171.7032806573125,133.05639452948435 C 189.7032806573125,129.65639452948437 206.10328065731247,123.2563945294844 220.8032806573125,115.8563945294843 C 235.5032806573125,108.45639452948433 248.40328065731254,99.8563945294843 260.4032806573125,91.55639452948435 C 272.3032806573125,83.15639452948437 283.3032806573125,74.95639452948433 293.50328065731253,67.3563945294843 C 314.00328065731253,52.15639452948432 332.3032806573126,39.65639452948432 348.9032806573125,30.956394529484328 C 365.50328065731253,22.156394529484317 380.10328065731255,16.656394529484317 392.4032806573125,13.156394529484317 C 417.10328065731255,6.256394529484339 432.2032806573126,6.756394529484339 440.4032806573125,6.856394529484305 C 444.50328065731253,6.956394529484328 447.10328065731255,7.356394529484305 448.60328065731255,7.456394529484328 C 450.10328065731255,7.6563945294843165 450.60328065731255,7.756394529484339 450.60328065731255,7.756394529484339 C 450.60328065731255,7.756394529484339 450.10328065731255,7.756394529484339 448.60328065731255,7.956394529484328 C 447.10328065731255,8.05639452948435 444.50328065731253,8.05639452948435 440.4032806573125,8.456394529484328 C 432.3032806573125,9.25639452948434 417.60328065731255,10.05639452948435 393.9032806573125,18.05639452948435 C 382.10328065731255,22.05639452948435 368.10328065731255,28.05639452948435 352.3032806573125,37.15639452948437 C 336.4032806573125,46.256394529484396 319.00328065731253,58.85639452948442 298.9032806573125,74.55639452948435 C 288.8032806573125,82.3563945294843 278.00328065731253,90.8563945294843 266.00328065731253,99.55639452948435 C 254.00328065731256,108.2563945294844 240.80328065731257,117.3563945294843 225.50328065731256,125.2563945294844 C 210.30328065731257,133.2563945294844 193.10328065731255,140.15639452948437 173.70328065731255,144.05639452948435 C 154.40328065731254,147.8563945294843 132.50328065731256,148.2563945294844 110.90328065731254,140.65639452948437 C 103.20328065731255,137.85639452948442 95.60328065731252,133.95639452948433 89.10328065731252,128.35639452948442 C 82.60328065731252,122.7563945294844 77.10328065731252,115.15639452948437 74.60328065731252,106.45639452948444 C 69.60328065731252,88.95639452948444 74.30328065731251,70.45639452948444 84.90328065731254,56.056394529484464 C 91.20328065731255,47.65639452948449 99.40328065731254,41.556394529484464 108.00328065731253,37.15639452948449 C 116.60328065731252,32.856394529484476 125.40328065731254,30.356394529484476 133.40328065731254,29.156394529484487 C 149.60328065731252,26.656394529484487 162.60328065731252,28.856394529484476 168.90328065731254,30.25639452948451 C 184.40328065731254,33.9563945294845 196.20328065731255,41.25639452948451 203.60328065731252,47.85639452948453 C 210.90328065731254,54.55639452948458 214.10328065731252,60.75639452948451 212.10328065731252,64.85639452948453 C 210.10328065731252,68.95639452948456 203.20328065731255,69.95639452948456 193.90328065731254,68.95639452948456 C 184.60328065731247,67.7563945294844 173.2032806573125,64.7563945294844 161.40328065731248,61.95639452948444"/>
</svg>
