<?xml version="1.0" ?>
<svg xmlns="http://www.w3.org/2000/svg" xmlns:ev="http://www.w3.org/2001/xml-events" xmlns:xlink="http://www.w3.org/1999/xlink" baseProfile="full" enable-background="new 0 0 1000 1000" height="379" id="Layer_1" transform="scale(0.2638522427440633 0.2638522427440633) translate(-438.5 -189.5)" version="1.1" viewBox="0 0 877 379" width="877" x="0px" xml:space="preserve" y="0px">
	<defs/>
	<path d="M 587.8,1.3240039833023047 C 596.5999999999999,-0.775996016697718 610.0,-0.9759960166977066 623.8,5.224003983302282 C 637.6999999999999,11.12400398330226 651.0999999999999,24.62400398330226 657.8,41.52400398330229 C 664.5,58.324003983302305 665.9,78.12400398330232 660.3,97.42400398330227 C 659.5,99.72400398330228 658.6999999999999,102.42400398330227 657.9,104.42400398330227 C 657.1,106.5240039833023 656.1999999999999,108.5240039833023 655.4,110.62400398330226 C 653.6999999999999,114.72400398330228 651.8,118.92400398330227 649.8,123.02400398330224 C 645.8,131.32400398330225 641.4,139.52400398330224 636.1999999999999,147.4240039833022 C 627.1999999999999,161.22400398330223 616.1999999999999,174.6240039833022 601.9999999999999,184.6240039833022 C 588.2999999999998,194.3240039833022 573.3999999999999,201.8240039833022 557.5999999999999,207.22400398330223 C 541.8,212.4240039833022 524.9999999999999,215.32400398330225 508.0999999999999,214.72400398330223 C 491.19999999999993,214.22400398330223 474.4999999999999,210.22400398330223 459.19999999999993,203.22400398330223 C 453.79999999999995,201.02400398330224 448.79999999999995,197.82400398330225 443.69999999999993,195.22400398330223 C 438.4999999999999,192.02400398330224 433.69999999999993,188.22400398330223 429.5999999999999,183.6240039833022 C 425.4999999999999,179.02400398330218 421.9999999999999,173.6240039833022 420.19999999999993,167.22400398330223 C 418.29999999999995,160.82400398330225 418.99999999999994,153.32400398330225 421.99999999999994,147.32400398330225 C 425.09999999999997,141.12400398330226 430.29999999999995,136.72400398330223 435.69999999999993,133.82400398330225 C 441.0999999999999,131.02400398330224 446.69999999999993,129.32400398330225 452.19999999999993,128.42400398330227 C 457.69999999999993,127.42400398330227 463.29999999999995,127.22400398330228 468.4999999999999,127.22400398330228 C 473.69999999999993,127.12400398330226 478.9999999999999,127.42400398330227 484.0999999999999,127.92400398330227 C 504.69999999999993,129.72400398330228 523.9999999999999,135.0240039833023 541.8999999999999,141.82400398330225 C 559.7999999999998,148.62400398330226 576.2999999999998,157.12400398330226 591.6999999999998,166.02400398330224 C 622.4999999999998,184.02400398330224 648.9999999999998,203.82400398330225 674.4999999999998,220.72400398330223 C 700.0999999999998,237.4240039833022 724.1999999999998,253.4240039833022 749.0999999999998,259.4240039833022 C 773.8999999999997,265.9240039833022 798.4999999999998,258.9240039833022 815.2999999999998,245.4240039833022 C 832.3999999999999,232.02400398330224 841.2999999999998,212.1240039833022 841.7999999999998,193.9240039833022 C 842.4999999999999,175.52400398330224 833.5999999999998,159.52400398330224 821.6999999999998,150.1240039833022 C 809.7999999999998,140.52400398330218 794.9999999999998,137.72400398330223 782.9999999999998,141.22400398330223 C 770.8999999999997,144.32400398330225 761.4999999999998,152.02400398330224 756.3999999999997,160.52400398330224 C 751.1999999999997,169.12400398330226 750.3999999999997,178.52400398330224 752.2999999999997,186.02400398330224 C 754.0999999999997,193.62400398330226 758.6999999999997,199.22400398330223 763.7999999999997,201.9240039833022 C 768.8999999999997,204.6240039833022 774.1999999999997,204.3240039833022 778.1999999999997,203.3240039833022 C 786.2999999999997,201.02400398330218 789.6999999999997,196.1240039833022 790.7999999999997,193.3240039833022 C 791.9999999999998,190.4240039833022 791.7999999999997,189.3240039833022 791.9999999999998,189.3240039833022 C 791.8999999999997,189.3240039833022 792.1999999999998,190.4240039833022 791.2999999999997,193.4240039833022 C 790.3999999999997,196.3240039833022 787.2999999999997,201.8240039833022 778.6999999999997,204.8240039833022 C 774.4999999999997,206.1240039833022 768.7999999999997,206.8240039833022 762.6999999999997,204.02400398330218 C 756.7999999999997,201.22400398330217 751.3999999999997,195.1240039833022 748.9999999999997,186.8240039833022 C 746.4999999999997,178.6240039833022 746.9999999999997,168.02400398330218 752.4999999999997,158.22400398330217 C 757.8999999999996,148.52400398330218 767.9999999999997,139.72400398330217 781.4999999999997,135.8240039833022 C 794.8999999999996,131.52400398330218 812.0999999999997,134.3240039833022 825.6999999999997,144.8240039833022 C 832.4999999999997,150.02400398330218 838.4999999999997,156.9240039833022 842.7999999999997,165.3240039833022 C 847.0999999999997,173.72400398330217 849.4999999999998,183.6240039833022 849.3999999999997,193.9240039833022 C 849.2999999999997,214.4240039833022 839.5999999999998,236.72400398330217 820.6999999999997,252.12400398330226 C 811.3999999999997,259.8240039833023 799.8999999999997,265.7240039833023 787.1999999999997,268.8240039833023 C 774.4999999999997,272.12400398330226 760.2999999999997,271.9240039833023 746.7999999999997,268.7240039833023 C 733.0999999999997,265.62400398330226 719.8999999999997,259.7240039833023 707.0999999999997,252.8240039833023 C 694.2999999999997,245.8240039833023 681.5999999999997,237.92400398330233 668.5999999999997,229.42400398330233 C 642.5999999999997,212.52400398330235 615.9999999999997,193.12400398330232 585.8999999999996,175.72400398330234 C 570.7999999999996,167.12400398330232 554.7999999999996,159.02400398330235 537.5999999999997,152.62400398330232 C 520.4999999999997,146.22400398330234 502.0999999999997,141.3240039833023 482.89999999999964,139.72400398330234 C 478.0999999999997,139.32400398330236 473.2999999999996,139.12400398330232 468.39999999999964,139.12400398330232 C 463.39999999999964,139.12400398330232 458.7999999999996,139.3240039833023 454.1999999999996,140.12400398330232 C 445.09999999999957,141.72400398330234 436.09999999999957,145.62400398330232 432.8999999999996,152.5240039833023 C 429.29999999999956,159.3240039833023 432.1999999999996,168.12400398330232 438.6999999999996,175.12400398330232 C 441.89999999999964,178.72400398330234 445.6999999999996,181.8240039833023 449.99999999999955,184.3240039833023 C 454.6999999999996,186.72400398330228 459.1999999999996,189.62400398330232 464.1999999999996,191.62400398330232 C 478.09999999999957,197.92400398330233 493.1999999999996,201.3240039833023 508.2999999999996,201.3240039833023 C 523.3999999999996,201.42400398330233 538.3999999999996,198.3240039833023 552.4999999999997,192.8240039833023 C 566.4999999999997,187.3240039833023 579.6999999999997,179.5240039833023 591.0999999999997,170.12400398330232 C 602.0999999999997,161.0240039833023 610.4999999999997,149.0240039833023 617.0999999999997,136.0240039833023 C 620.8999999999996,128.62400398330232 624.0999999999997,120.8240039833023 626.9999999999997,113.12400398330232 C 628.3999999999996,109.22400398330234 629.6999999999997,105.3240039833023 630.8999999999996,101.42400398330233 C 631.4999999999997,99.42400398330233 632.0999999999997,97.52400398330235 632.5999999999997,95.62400398330232 C 633.1999999999997,93.62400398330232 633.3999999999996,92.22400398330234 633.7999999999997,90.5240039833023 C 636.2999999999997,77.22400398330228 633.8999999999997,63.624003983302316 628.8999999999997,54.02400398330229 C 623.8999999999997,44.324003983302305 616.7999999999997,38.824003983302305 610.3999999999997,36.624003983302316 C 603.8999999999997,34.324003983302305 598.5999999999998,34.824003983302305 595.6999999999997,35.52400398330229 C 588.8999999999997,36.824003983302305 583.5999999999997,43.22400398330228 582.9999999999997,47.324003983302305 C 582.4999999999997,49.52400398330229 582.8999999999996,52.52400398330229 583.9999999999997,54.72400398330228 C 584.9999999999997,57.02400398330229 586.4999999999997,58.72400398330228 587.8999999999996,59.824003983302305 C 589.4999999999997,61.02400398330229 591.9999999999997,61.624003983302316 594.3999999999996,61.624003983302316 C 596.7999999999996,61.624003983302316 599.0999999999997,61.22400398330234 600.9999999999997,60.72400398330234 C 604.8999999999996,59.624003983302316 607.7999999999996,57.52400398330235 610.1999999999997,58.22400398330234 C 612.3999999999997,58.72400398330234 614.3999999999997,63.02400398330235 611.1999999999997,70.02400398330235 C 609.5999999999997,73.42400398330233 606.4999999999997,77.12400398330237 601.7999999999997,80.02400398330235 C 597.1999999999997,82.92400398330233 590.7999999999997,85.12400398330237 582.8999999999997,84.42400398330233 C 566.7999999999997,82.92400398330233 551.2999999999997,68.02400398330235 550.2999999999997,47.02400398330235 C 549.6999999999999,25.924003983302327 565.6999999999999,6.324003983302305 587.8,1.3240039833023047 M 814.4,333.1240039833024 C 814.5,334.6240039833024 814.3,338.9240039833023 817.3,344.02400398330235 C 820.0,348.9240039833023 827.6999999999999,354.52400398330235 837.0,355.02400398330235 C 844.9,355.7240039833024 853.6,351.3240039833023 858.9,343.52400398330235 C 864.3,335.8240039833023 865.3,325.52400398330235 861.4,316.4240039833023 C 855.8,303.6240039833024 843.9,294.3240039833023 832.0,289.2240039833023 C 819.6,284.02400398330224 806.6,281.9240039833023 794.2,280.02400398330224 C 769.0,276.8240039833022 746.6,271.2240039833023 728.4000000000001,264.02400398330224 C 691.8000000000001,249.62400398330226 669.6000000000001,232.22400398330228 655.1000000000001,219.82400398330225 C 640.7000000000002,206.92400398330227 633.8000000000002,198.22400398330223 629.9000000000001,193.32400398330225 C 626.1000000000001,188.32400398330225 625.4000000000001,187.02400398330224 625.4000000000001,187.02400398330224 C 625.4000000000001,187.02400398330224 626.6000000000001,187.9240039833022 631.1000000000001,192.22400398330223 C 635.7000000000002,196.4240039833022 643.5000000000001,204.1240039833022 658.5000000000001,215.6240039833022 C 673.6000000000001,226.72400398330217 696.0000000000001,242.3240039833022 731.7000000000002,255.02400398330224 C 749.6000000000001,261.4240039833022 770.4000000000002,266.12400398330226 795.7000000000002,268.8240039833022 C 808.3000000000002,270.52400398330224 822.3000000000002,272.4240039833022 836.6000000000001,278.22400398330217 C 843.8000000000002,281.22400398330217 850.8000000000002,285.3240039833022 857.1000000000001,290.8240039833022 C 863.4000000000001,296.22400398330217 869.1000000000001,303.12400398330215 872.8000000000002,311.62400398330215 C 875.5000000000002,317.72400398330217 876.8000000000002,324.4240039833021 876.8000000000002,331.22400398330217 C 876.7000000000002,338.12400398330215 874.9000000000002,344.8240039833022 872.0000000000002,350.9240039833022 C 869.0000000000002,357.02400398330224 864.8000000000002,362.62400398330226 859.4000000000002,367.22400398330217 C 854.0000000000002,371.8240039833022 847.2000000000002,375.22400398330217 840.1000000000003,377.0240039833021 C 823.8000000000003,381.22400398330217 805.9000000000002,376.3240039833021 794.5000000000002,365.8240039833021 C 783.0000000000002,355.5240039833021 779.3000000000002,342.22400398330205 779.0000000000002,335.22400398330205 C 778.8000000000002,330.9240039833021 779.2000000000003,326.72400398330205 780.4000000000002,322.62400398330203 C 781.6000000000003,318.424003983302 783.5000000000002,314.8240039833021 785.7000000000002,311.8240039833021 C 790.2000000000002,305.8240039833021 796.0000000000001,302.12400398330203 801.2000000000002,300.62400398330203 C 806.5000000000001,299.12400398330203 811.2000000000002,299.62400398330203 814.1000000000001,301.22400398330205 C 817.1000000000001,302.72400398330205 818.4000000000001,305.12400398330203 818.5000000000001,307.524003983302 C 818.6000000000001,310.024003983302 817.8000000000001,312.32400398330196 817.0000000000001,314.72400398330205 C 816.2000000000002,317.024003983302 815.4000000000001,319.4240039833021 814.9000000000001,321.62400398330203 C 814.4000000000001,323.8240039833021 814.1000000000001,326.12400398330203 814.0000000000001,328.024003983302 C 814.0000000000001,329.024003983302 814.0000000000001,329.82400398330196 814.1000000000001,330.524003983302 C 814.3,331.2240039833023 814.4,332.2240039833023 814.4,333.1240039833024 M 672.0,304.02400398330235 C 671.1,305.7240039833024 668.5,309.4240039833023 668.2,316.02400398330235 C 668.0,319.3240039833023 668.6,322.9240039833023 670.0,326.7240039833024 C 671.5,330.52400398330235 674.0,334.3240039833024 677.5,337.6240039833024 C 683.5,343.4240039833023 692.3,346.9240039833023 701.3,345.7240039833024 C 710.3,344.7240039833024 719.1999999999999,339.42400398330244 724.5,331.8240039833024 C 732.0,321.1240039833024 732.2,306.92400398330244 729.8,294.8240039833024 C 727.3,282.6240039833024 722.0,271.52400398330246 714.5999999999999,263.92400398330244 C 698.6999999999999,247.92400398330244 680.0999999999999,238.6240039833025 665.0999999999999,228.7240039833024 C 649.8,218.92400398330238 637.9999999999999,209.0240039833024 627.8,201.12400398330237 C 617.6999999999999,193.12400398330237 609.0999999999999,186.92400398330238 601.8,181.92400398330238 C 587.1999999999999,172.0240039833024 578.5,166.82400398330236 573.5999999999999,163.7240039833024 C 568.6999999999999,160.62400398330237 567.5999999999999,159.82400398330242 567.5999999999999,159.82400398330242 C 567.5999999999999,159.82400398330242 568.8999999999999,160.2240039833024 574.1999999999999,162.62400398330243 C 579.4999999999999,165.0240039833024 588.8,169.22400398330245 604.1999999999999,178.22400398330245 C 611.9,182.72400398330245 620.9999999999999,188.62400398330243 631.5999999999999,196.22400398330245 C 642.1999999999999,203.82400398330248 654.0999999999999,213.12400398330243 669.3,222.12400398330243 C 676.9,226.7240039833024 685.3,231.32400398330242 694.1999999999999,236.82400398330242 C 703.0999999999999,242.32400398330242 712.4999999999999,248.82400398330242 721.1999999999999,257.42400398330244 C 730.3,266.7240039833024 736.3,279.02400398330246 739.3,292.8240039833024 C 740.8,299.7240039833024 741.4,307.1240039833024 740.6999999999999,314.8240039833024 C 739.9999999999999,322.42400398330244 737.6999999999999,330.6240039833024 732.8,337.6240039833024 C 725.9,347.52400398330235 715.5,354.7240039833024 703.5999999999999,357.7240039833024 C 691.5999999999999,360.8240039833024 678.3,358.52400398330235 667.3999999999999,352.3240039833024 C 661.0999999999999,348.8240039833024 655.4999999999999,343.8240039833024 651.1999999999998,338.02400398330246 C 646.9999999999998,332.1240039833025 644.1999999999998,325.42400398330244 642.9999999999998,319.02400398330246 C 640.3999999999997,306.1240039833025 644.1999999999998,294.7240039833025 647.3999999999997,289.52400398330246 C 651.1999999999997,283.1240039833025 656.9999999999998,278.2240039833025 662.6999999999997,275.8240039833024 C 668.3999999999997,273.2240039833024 674.1999999999997,272.8240039833024 678.7999999999997,273.52400398330246 C 683.3999999999997,274.3240039833024 686.8999999999997,276.2240039833025 688.6999999999997,278.42400398330244 C 690.5999999999997,280.6240039833025 690.8999999999997,282.7240039833024 690.2999999999997,284.6240039833025 C 688.7999999999997,288.32400398330253 684.5999999999997,290.52400398330246 681.2999999999997,293.6240039833025 C 677.6,296.52400398330235 674.1999999999999,300.2240039833023 672.0,304.02400398330235 M 776.5,169.8240039833023 C 753.6,171.72400398330228 751.7,200.8240039833023 774.2,205.72400398330228 C 774.4000000000001,205.72400398330228 774.7,205.8240039833023 774.9000000000001,205.72400398330228 C 797.8000000000001,203.8240039833023 799.7,174.62400398330226 777.2,169.8240039833023 C 776.9,169.72400398330234 776.6999999999999,169.72400398330234 776.5,169.8240039833023 M 289.0,1.3240039833023047 C 280.2,-0.775996016697718 266.8,-0.9759960166977066 253.0,5.224003983302282 C 239.10000000000002,11.12400398330226 225.7,24.62400398330226 219.0,41.52400398330229 C 212.3,58.324003983302305 210.89999999999998,78.12400398330232 216.5,97.42400398330227 C 217.3,99.72400398330228 218.10000000000002,102.42400398330227 218.89999999999998,104.42400398330227 C 219.7,106.5240039833023 220.59999999999997,108.5240039833023 221.39999999999998,110.62400398330226 C 223.09999999999997,114.72400398330228 225.0,118.92400398330227 227.0,123.02400398330224 C 231.0,131.32400398330225 235.39999999999998,139.52400398330224 240.60000000000002,147.4240039833022 C 249.60000000000002,161.22400398330223 260.6,174.6240039833022 274.8,184.6240039833022 C 288.5,194.3240039833022 303.40000000000003,201.8240039833022 319.2,207.22400398330223 C 335.0,212.4240039833022 351.8,215.32400398330225 368.7,214.72400398330223 C 385.59999999999997,214.22400398330223 402.3,210.22400398330223 417.59999999999997,203.22400398330223 C 422.99999999999994,201.02400398330224 427.99999999999994,197.82400398330225 433.09999999999997,195.22400398330223 C 438.29999999999995,192.02400398330224 443.1,188.22400398330223 447.19999999999993,183.6240039833022 C 451.29999999999995,179.02400398330218 454.79999999999995,173.6240039833022 456.5999999999999,167.22400398330223 C 458.4999999999999,160.82400398330225 457.79999999999995,153.32400398330225 454.79999999999995,147.32400398330225 C 451.69999999999993,141.12400398330226 446.5,136.72400398330223 441.0999999999999,133.82400398330225 C 435.69999999999993,131.02400398330224 430.0999999999999,129.32400398330225 424.5999999999999,128.42400398330227 C 419.0999999999999,127.42400398330227 413.4999999999999,127.22400398330228 408.2999999999999,127.22400398330228 C 403.0999999999999,127.12400398330226 397.7999999999999,127.42400398330227 392.6999999999999,127.92400398330227 C 372.09999999999985,129.72400398330228 352.7999999999999,135.0240039833023 334.89999999999986,141.82400398330225 C 316.9999999999999,148.62400398330226 300.4999999999999,157.12400398330226 285.09999999999985,166.02400398330224 C 254.29999999999984,184.02400398330224 227.79999999999984,203.82400398330225 202.29999999999984,220.72400398330223 C 176.69999999999982,237.4240039833022 152.59999999999985,253.4240039833022 127.69999999999983,259.4240039833022 C 102.89999999999982,265.9240039833022 78.29999999999983,258.9240039833022 61.499999999999815,245.4240039833022 C 44.39999999999982,232.02400398330224 35.499999999999815,212.1240039833022 34.999999999999815,193.9240039833022 C 34.29999999999981,175.52400398330224 43.19999999999982,159.52400398330224 55.09999999999981,150.1240039833022 C 66.99999999999982,140.52400398330218 81.7999999999998,137.72400398330223 93.79999999999983,141.22400398330223 C 105.89999999999982,144.32400398330225 115.29999999999983,152.02400398330224 120.39999999999982,160.52400398330224 C 125.59999999999981,169.12400398330226 126.39999999999982,178.52400398330224 124.49999999999982,186.02400398330224 C 122.6999999999998,193.62400398330226 118.09999999999981,199.22400398330223 112.99999999999982,201.9240039833022 C 107.89999999999982,204.6240039833022 102.59999999999981,204.3240039833022 98.59999999999981,203.3240039833022 C 90.49999999999982,201.02400398330218 87.09999999999981,196.1240039833022 85.99999999999982,193.3240039833022 C 84.79999999999983,190.4240039833022 84.99999999999982,189.3240039833022 84.79999999999983,189.3240039833022 C 84.89999999999982,189.3240039833022 84.59999999999984,190.4240039833022 85.49999999999982,193.4240039833022 C 86.39999999999982,196.3240039833022 89.49999999999982,201.8240039833022 98.09999999999981,204.8240039833022 C 102.2999999999998,206.1240039833022 107.99999999999982,206.8240039833022 114.09999999999981,204.02400398330218 C 119.99999999999982,201.22400398330217 125.39999999999982,195.1240039833022 127.7999999999998,186.8240039833022 C 130.29999999999978,178.6240039833022 129.79999999999978,168.02400398330218 124.2999999999998,158.22400398330217 C 118.89999999999979,148.52400398330218 108.7999999999998,139.72400398330217 95.2999999999998,135.8240039833022 C 81.89999999999979,131.52400398330218 64.6999999999998,134.3240039833022 51.09999999999978,144.8240039833022 C 44.299999999999784,150.02400398330218 38.299999999999784,156.9240039833022 33.99999999999979,165.3240039833022 C 29.69999999999979,173.72400398330217 27.299999999999784,183.6240039833022 27.399999999999793,193.9240039833022 C 27.499999999999787,214.4240039833022 37.19999999999979,236.72400398330217 56.09999999999978,252.12400398330226 C 65.39999999999979,259.8240039833023 76.89999999999979,265.7240039833023 89.59999999999978,268.8240039833023 C 102.29999999999977,272.12400398330226 116.49999999999979,271.9240039833023 129.99999999999977,268.7240039833023 C 143.69999999999976,265.62400398330226 156.8999999999998,259.7240039833023 169.69999999999982,252.8240039833023 C 182.49999999999983,245.8240039833023 195.19999999999982,237.92400398330233 208.19999999999982,229.42400398330233 C 234.19999999999982,212.52400398330235 260.79999999999984,193.12400398330232 290.8999999999998,175.72400398330234 C 305.99999999999983,167.12400398330232 321.99999999999983,159.02400398330235 339.1999999999998,152.62400398330232 C 356.29999999999984,146.22400398330234 374.6999999999998,141.3240039833023 393.8999999999998,139.72400398330234 C 398.6999999999998,139.32400398330236 403.49999999999983,139.12400398330232 408.3999999999998,139.12400398330232 C 413.3999999999998,139.12400398330232 417.99999999999983,139.3240039833023 422.5999999999998,140.12400398330232 C 431.6999999999998,141.72400398330234 440.6999999999998,145.62400398330232 443.89999999999975,152.5240039833023 C 447.4999999999998,159.3240039833023 444.5999999999998,168.12400398330232 438.0999999999998,175.12400398330232 C 434.89999999999975,178.72400398330234 431.0999999999998,181.8240039833023 426.7999999999998,184.3240039833023 C 422.0999999999998,186.72400398330228 417.5999999999998,189.62400398330232 412.5999999999998,191.62400398330232 C 398.6999999999998,197.92400398330233 383.5999999999998,201.3240039833023 368.4999999999998,201.3240039833023 C 353.39999999999975,201.42400398330233 338.39999999999975,198.3240039833023 324.2999999999998,192.8240039833023 C 310.2999999999998,187.3240039833023 297.0999999999998,179.5240039833023 285.69999999999976,170.12400398330232 C 274.69999999999976,161.0240039833023 266.2999999999998,149.0240039833023 259.69999999999976,136.0240039833023 C 255.89999999999975,128.62400398330232 252.69999999999976,120.8240039833023 249.79999999999978,113.12400398330232 C 248.3999999999998,109.22400398330234 247.0999999999998,105.3240039833023 245.8999999999998,101.42400398330233 C 245.29999999999978,99.42400398330233 244.69999999999982,97.52400398330235 244.19999999999982,95.62400398330232 C 243.5999999999998,93.62400398330232 243.3999999999998,92.22400398330234 242.99999999999983,90.5240039833023 C 240.49999999999983,77.22400398330228 242.8999999999998,63.624003983302316 247.8999999999998,54.02400398330229 C 252.8999999999998,44.324003983302305 259.99999999999983,38.824003983302305 266.3999999999998,36.624003983302316 C 272.8999999999998,34.324003983302305 278.1999999999998,34.824003983302305 281.0999999999998,35.52400398330229 C 287.8999999999998,36.824003983302305 293.1999999999998,43.22400398330228 293.7999999999998,47.324003983302305 C 294.2999999999998,49.52400398330229 293.8999999999998,52.52400398330229 292.7999999999998,54.72400398330228 C 291.7999999999998,57.02400398330229 290.2999999999998,58.72400398330228 288.8999999999998,59.824003983302305 C 287.2999999999998,61.02400398330229 284.7999999999998,61.624003983302316 282.3999999999998,61.624003983302316 C 279.99999999999983,61.624003983302316 277.6999999999998,61.22400398330234 275.7999999999998,60.72400398330234 C 271.8999999999998,59.624003983302316 268.9999999999998,57.52400398330235 266.5999999999998,58.22400398330234 C 264.3999999999998,58.72400398330234 262.3999999999998,63.02400398330235 265.5999999999998,70.02400398330235 C 267.1999999999998,73.42400398330233 270.2999999999998,77.12400398330237 274.9999999999998,80.02400398330235 C 279.5999999999998,82.92400398330233 285.9999999999998,85.12400398330237 293.89999999999975,84.42400398330233 C 309.9999999999998,82.92400398330233 325.4999999999998,68.02400398330235 326.4999999999998,47.02400398330235 C 327.09999999999997,25.924003983302327 311.0,6.324003983302305 289.0,1.3240039833023047 M 62.39999999999996,333.1240039833024 C 62.29999999999997,334.6240039833024 62.49999999999996,338.9240039833023 59.49999999999996,344.02400398330235 C 56.79999999999997,348.9240039833023 49.09999999999995,354.52400398330235 39.799999999999955,355.02400398330235 C 31.89999999999995,355.7240039833024 23.199999999999946,351.3240039833023 17.899999999999963,343.52400398330235 C 12.499999999999957,335.8240039833023 11.499999999999957,325.52400398330235 15.399999999999963,316.4240039833023 C 20.999999999999957,303.6240039833024 32.89999999999996,294.3240039833023 44.79999999999997,289.2240039833023 C 57.199999999999974,284.02400398330224 70.19999999999997,281.9240039833023 82.59999999999995,280.02400398330224 C 107.79999999999994,276.8240039833022 130.19999999999993,271.2240039833023 148.39999999999998,264.02400398330224 C 185.0,249.62400398330226 207.2,232.22400398330228 221.7,219.82400398330225 C 236.09999999999997,206.92400398330227 243.0,198.22400398330223 246.89999999999998,193.32400398330225 C 250.7,188.32400398330225 251.39999999999998,187.02400398330224 251.39999999999998,187.02400398330224 C 251.39999999999998,187.02400398330224 250.2,187.9240039833022 245.7,192.22400398330223 C 241.09999999999997,196.4240039833022 233.3,204.1240039833022 218.3,215.6240039833022 C 203.2,226.72400398330217 180.8,242.3240039833022 145.10000000000002,255.02400398330224 C 127.2,261.4240039833022 106.40000000000002,266.12400398330226 81.10000000000001,268.8240039833022 C 68.50000000000001,270.52400398330224 54.500000000000014,272.4240039833022 40.2,278.22400398330217 C 33.0,281.22400398330217 26.0,285.3240039833022 19.700000000000003,290.8240039833022 C 13.400000000000006,296.22400398330217 7.700000000000003,303.12400398330215 4.0,311.62400398330215 C 1.2999999999999972,317.72400398330217 0.0,324.4240039833021 0.0,331.22400398330217 C 0.09999999999999432,338.12400398330215 1.9000000000000057,344.8240039833022 4.799999999999997,350.9240039833022 C 7.799999999999997,357.02400398330224 12.0,362.62400398330226 17.39999999999999,367.22400398330217 C 22.799999999999997,371.8240039833022 29.599999999999994,375.22400398330217 36.69999999999999,377.0240039833021 C 52.999999999999986,381.22400398330217 70.89999999999999,376.3240039833021 82.3,365.8240039833021 C 93.8,355.5240039833021 97.60000000000001,342.22400398330205 97.8,335.22400398330205 C 97.99999999999999,330.9240039833021 97.60000000000001,326.72400398330205 96.39999999999999,322.62400398330203 C 95.2,318.424003983302 93.3,314.8240039833021 91.09999999999998,311.8240039833021 C 86.59999999999998,305.8240039833021 80.79999999999997,302.12400398330203 75.59999999999998,300.62400398330203 C 70.29999999999997,299.12400398330203 65.59999999999998,299.62400398330203 62.699999999999974,301.22400398330205 C 59.699999999999974,302.72400398330205 58.39999999999996,305.12400398330203 58.29999999999997,307.524003983302 C 58.199999999999974,310.024003983302 58.99999999999996,312.32400398330196 59.79999999999997,314.72400398330205 C 60.59999999999998,317.024003983302 61.39999999999996,319.4240039833021 61.89999999999996,321.62400398330203 C 62.39999999999996,323.8240039833021 62.699999999999974,326.12400398330203 62.79999999999997,328.024003983302 C 62.79999999999997,329.024003983302 62.79999999999997,329.82400398330196 62.699999999999974,330.524003983302 C 62.39999999999996,331.2240039833023 62.39999999999996,332.2240039833023 62.39999999999996,333.1240039833024 M 204.79999999999995,304.02400398330235 C 205.69999999999993,305.7240039833024 208.29999999999995,309.4240039833023 208.59999999999997,316.02400398330235 C 208.79999999999995,319.3240039833023 208.2,322.9240039833023 206.79999999999995,326.7240039833024 C 205.29999999999995,330.52400398330235 202.79999999999995,334.3240039833024 199.29999999999995,337.6240039833024 C 193.29999999999995,343.4240039833023 184.49999999999994,346.9240039833023 175.49999999999994,345.7240039833024 C 166.49999999999994,344.7240039833024 157.5999999999999,339.42400398330244 152.29999999999995,331.8240039833024 C 144.79999999999995,321.1240039833024 144.59999999999997,306.92400398330244 146.99999999999994,294.8240039833024 C 149.49999999999994,282.6240039833024 154.79999999999995,271.52400398330246 162.19999999999993,263.92400398330244 C 178.0999999999999,247.92400398330244 196.69999999999993,238.6240039833025 211.69999999999993,228.7240039833024 C 226.99999999999994,218.92400398330238 238.79999999999995,209.0240039833024 248.99999999999994,201.12400398330237 C 259.09999999999997,193.12400398330237 267.69999999999993,186.92400398330238 274.99999999999994,181.92400398330238 C 289.59999999999997,172.0240039833024 298.29999999999995,166.82400398330236 303.19999999999993,163.7240039833024 C 308.0999999999999,160.62400398330237 309.19999999999993,159.82400398330242 309.19999999999993,159.82400398330242 C 309.19999999999993,159.82400398330242 307.8999999999999,160.2240039833024 302.5999999999999,162.62400398330243 C 297.2999999999999,165.0240039833024 287.9999999999999,169.22400398330245 272.5999999999999,178.22400398330245 C 264.8999999999999,182.72400398330245 255.7999999999999,188.62400398330243 245.19999999999993,196.22400398330245 C 234.5999999999999,203.82400398330248 222.69999999999993,213.12400398330243 207.49999999999994,222.12400398330243 C 199.89999999999992,226.7240039833024 191.49999999999994,231.32400398330242 182.59999999999997,236.82400398330242 C 173.69999999999993,242.32400398330242 164.29999999999995,248.82400398330242 155.59999999999997,257.42400398330244 C 146.49999999999994,266.7240039833024 140.49999999999994,279.02400398330246 137.49999999999994,292.8240039833024 C 135.99999999999994,299.7240039833024 135.39999999999998,307.1240039833024 136.09999999999997,314.8240039833024 C 136.79999999999995,322.42400398330244 139.09999999999997,330.6240039833024 143.99999999999994,337.6240039833024 C 150.89999999999998,347.52400398330235 161.29999999999995,354.7240039833024 173.19999999999993,357.7240039833024 C 185.19999999999993,360.8240039833024 198.49999999999994,358.52400398330235 209.39999999999998,352.3240039833024 C 215.7,348.8240039833024 221.29999999999995,343.8240039833024 225.59999999999997,338.02400398330246 C 229.79999999999995,332.1240039833025 232.59999999999997,325.42400398330244 233.79999999999995,319.02400398330246 C 236.39999999999998,306.1240039833025 232.59999999999997,294.7240039833025 229.39999999999998,289.52400398330246 C 225.59999999999997,283.1240039833025 219.79999999999995,278.2240039833025 214.09999999999997,275.8240039833024 C 208.39999999999998,273.2240039833024 202.59999999999997,272.8240039833024 197.99999999999994,273.52400398330246 C 193.39999999999992,274.3240039833024 189.89999999999992,276.2240039833025 188.09999999999997,278.42400398330244 C 186.2,280.6240039833025 185.89999999999998,282.7240039833024 186.49999999999994,284.6240039833025 C 187.99999999999994,288.32400398330253 192.19999999999993,290.52400398330246 195.49999999999994,293.6240039833025 C 199.09999999999997,296.52400398330235 202.59999999999997,300.2240039833023 204.79999999999995,304.02400398330235 M 100.29999999999997,169.8240039833023 C 123.19999999999997,171.72400398330228 125.09999999999998,200.8240039833023 102.59999999999998,205.72400398330228 C 102.39999999999999,205.72400398330228 102.09999999999998,205.8240039833023 101.89999999999999,205.72400398330228 C 78.99999999999999,203.8240039833023 77.09999999999998,174.62400398330226 99.59999999999998,169.8240039833023 C 99.89999999999996,169.72400398330234 100.09999999999995,169.72400398330234 100.29999999999997,169.8240039833023"/>
</svg>
