<?xml version="1.0" ?>
<svg xmlns="http://www.w3.org/2000/svg" xmlns:ev="http://www.w3.org/2001/xml-events" xmlns:xlink="http://www.w3.org/1999/xlink" baseProfile="full" enable-background="new 0 0 1000 1000" height="139" id="Layer_1" transform="scale(0.7194244604316546 0.7194244604316546) translate(-431.5 -69.5)" version="1.1" viewBox="0 0 863 139" width="863" x="0px" xml:space="preserve" y="0px">
	<defs/>
	<path d="M 408.6342880595944,56.97640468673728 C 409.6342880595944,55.67640468673727 411.3342880595943,53.47640468673728 412.2342880595944,49.776404686737294 C 412.7342880595944,47.97640468673728 413.03428805959436,45.87640468673732 412.93428805959434,43.67640468673727 C 412.8342880595943,41.37640468673726 412.43428805959434,39.47640468673728 411.2342880595944,36.87640468673726 C 409.03428805959436,31.87640468673726 404.1342880595944,26.776404686737237 397.2342880595944,23.07640468673725 C 393.7342880595944,21.276404686737237 389.93428805959434,19.87640468673726 385.8342880595944,18.976404686737226 C 381.6342880595944,18.07640468673725 377.1342880595944,17.676404686737214 372.43428805959445,17.776404686737237 C 356.0342880595945,17.976404686737226 338.3342880595944,23.476404686737226 321.2342880595944,29.476404686737226 C 304.1342880595944,35.676404686737214 287.3342880595944,43.476404686737226 270.7342880595944,51.8764046867372 C 247.53428805959445,63.57640468673719 225.73428805959443,75.17640468673721 204.33428805959446,84.57640468673719 C 182.93428805959445,94.07640468673719 162.03428805959445,101.47640468673717 141.73428805959446,106.07640468673719 C 121.43428805959445,110.67640468673721 101.73428805959446,112.17640468673721 83.23428805959446,110.67640468673721 C 74.03428805959447,109.77640468673724 64.93428805959445,107.77640468673724 56.834288059594456,103.67640468673721 C 52.834288059594456,101.57640468673719 49.03428805959446,98.97640468673717 45.93428805959445,95.87640468673726 C 42.73428805959445,92.77640468673724 39.93428805959445,88.47640468673728 38.93428805959445,83.87640468673726 C 36.73428805959445,74.47640468673728 41.834288059594456,64.97640468673728 49.034288059594445,60.57640468673725 C 52.534288059594445,58.27640468673724 56.83428805959444,57.17640468673727 60.334288059594456,56.67640468673727 C 63.93428805959445,56.07640468673725 67.43428805959445,55.67640468673727 70.83428805959446,55.47640468673728 C 84.63428805959447,54.776404686737294 97.23428805959446,56.87640468673726 108.33428805959446,59.97640468673728 C 119.43428805959445,63.076404686737305 129.13428805959447,67.0764046867373 137.63428805959447,71.37640468673726 C 146.23428805959446,75.67640468673727 153.63428805959447,80.87640468673726 158.73428805959446,87.17640468673727 C 164.03428805959447,93.37640468673726 166.63428805959447,100.67640468673733 166.73428805959446,107.17640468673733 C 166.93428805959445,113.67640468673733 165.23428805959446,119.27640468673735 162.73428805959446,123.67640468673733 C 157.73428805959446,132.47640468673728 150.63428805959447,135.77640468673735 145.93428805959445,137.47640468673728 C 141.03428805959445,139.0764046867373 137.83428805959446,138.97640468673728 135.93428805959445,138.87640468673726 C 134.03428805959445,138.77640468673724 133.53428805959445,138.67640468673721 133.53428805959445,138.67640468673721 C 133.53428805959445,138.67640468673721 134.13428805959444,138.67640468673721 135.93428805959445,138.5764046867372 C 137.73428805959446,138.37640468673715 140.83428805959446,138.17640468673721 145.43428805959445,136.27640468673724 C 149.83428805959446,134.37640468673726 156.23428805959446,130.77640468673724 160.33428805959446,122.47640468673728 C 162.33428805959446,118.37640468673726 163.63428805959447,113.27640468673724 163.23428805959446,107.47640468673728 C 162.83428805959446,101.67640468673733 160.33428805959446,95.47640468673728 155.43428805959445,90.0764046867373 C 150.63428805959444,84.67640468673733 143.63428805959444,79.97640468673728 135.33428805959446,76.17640468673733 C 126.93428805959445,72.27640468673735 117.43428805959445,68.67640468673733 106.73428805959446,65.97640468673734 C 96.03428805959447,63.37640468673732 84.03428805959447,61.57640468673736 71.23428805959446,62.57640468673736 C 68.03428805959447,62.77640468673735 64.73428805959446,63.176404686737385 61.53428805959447,63.876404686737374 C 58.234288059594476,64.4764046867374 55.53428805959447,65.27640468673735 52.93428805959448,66.9764046867374 C 47.93428805959448,70.17640468673738 44.93428805959448,76.4764046867374 46.334288059594485,82.37640468673737 C 47.13428805959448,85.37640468673737 48.73428805959449,87.9764046867374 51.334288059594485,90.4764046867374 C 53.93428805959448,92.9764046867374 57.03428805959449,95.07640468673742 60.43428805959448,96.77640468673735 C 67.33428805959448,100.17640468673733 75.43428805959448,101.87640468673737 84.03428805959447,102.67640468673733 C 101.33428805959448,103.87640468673737 120.23428805959449,102.27640468673735 139.7342880595945,97.67640468673733 C 159.33428805959448,93.0764046867373 179.5342880595945,85.77640468673735 200.5342880595945,76.27640468673735 C 221.43428805959448,66.87640468673737 243.0342880595945,55.27640468673735 266.33428805959454,43.376404686737374 C 282.93428805959456,34.876404686737374 299.7342880595945,26.476404686737396 316.83428805959454,18.876404686737374 C 325.43428805959456,15.076404686737362 334.1342880595945,11.576404686737362 342.93428805959456,8.376404686737374 C 351.83428805959454,5.176404686737385 361.0342880595946,2.276404686737351 370.93428805959456,0.8764046867373736 C 376.5342880595946,0.07640468673736223 382.43428805959456,-0.22359531326264914 388.2342880595945,0.17640468673738496 C 394.2342880595945,0.5764046867373622 400.0342880595946,1.8764046867373736 405.5342880595946,3.8764046867373736 C 416.5342880595946,7.876404686737374 426.5342880595946,15.176404686737385 432.6342880595946,24.976404686737396 C 435.6342880595946,29.676404686737385 437.83428805959454,35.476404686737396 438.73428805959463,40.57640468673742 C 439.6342880595946,45.77640468673741 439.5342880595946,50.77640468673741 438.83428805959466,55.17640468673744 C 437.5342880595946,64.07640468673742 433.6342880595946,70.97640468673745 430.1342880595946,75.07640468673742 C 426.0342880595946,80.17640468673744 420.23428805959463,84.17640468673744 414.1342880595946,86.17640468673744 C 408.0342880595946,88.17640468673744 401.9342880595947,88.37640468673743 396.4342880595947,87.37640468673743 C 385.4342880595947,85.37640468673743 376.9342880595947,77.97640468673745 373.6342880595946,70.87640468673743 C 370.0342880595946,63.77640468673741 370.33428805959466,57.37640468673743 371.5342880595946,53.37640468673743 C 372.83428805959466,49.37640468673743 375.1342880595946,47.77640468673741 376.93428805959456,47.97640468673745 C 380.73428805959463,48.47640468673745 383.33428805959454,55.17640468673744 389.5342880595946,59.17640468673744 C 395.1342880595944,62.776404686737294 404.6342880595944,62.67640468673727 408.6342880595944,56.97640468673728 M 35.83428805959434,104.67640468673733 C 38.83428805959434,106.37640468673737 44.43428805959434,109.87640468673737 52.73428805959435,112.77640468673735 C 61.03428805959436,115.77640468673735 72.13428805959435,117.9764046867374 84.13428805959435,118.87640468673737 C 105.23428805959435,120.37640468673737 127.63428805959435,118.4764046867374 149.23428805959435,113.67640468673733 C 179.53428805959436,106.97640468673728 205.43428805959437,97.5764046867373 227.63428805959435,87.67640468673733 C 238.73428805959438,82.77640468673735 248.73428805959438,77.37640468673732 258.8342880595943,72.77640468673735 C 268.8342880595943,68.17640468673733 279.1342880595944,64.97640468673734 289.2342880595943,64.57640468673736 C 299.13428805959427,64.07640468673736 308.93428805959434,66.37640468673737 316.2342880595943,71.47640468673734 C 323.43428805959434,76.37640468673732 328.53428805959436,83.57640468673736 330.03428805959436,91.07640468673736 C 331.6342880595944,98.67640468673733 329.6342880595944,105.77640468673735 326.43428805959434,110.9764046867374 C 323.2342880595943,116.27640468673735 318.7342880595943,119.9764046867374 314.2342880595943,122.17640468673744 C 309.63428805959427,124.27640468673746 304.93428805959434,124.77640468673746 301.03428805959436,124.17640468673744 C 297.1342880595944,123.67640468673744 293.8342880595943,122.4764046867374 291.2342880595943,120.9764046867374 C 285.93428805959434,118.07640468673742 283.13428805959427,114.57640468673742 281.43428805959434,111.9764046867374 C 278.3342880595943,106.57640468673742 278.7342880595943,104.87640468673737 278.53428805959436,104.9764046867374 C 278.6342880595944,104.87640468673737 278.8342880595943,106.4764046867374 282.43428805959434,111.17640468673744 C 284.3342880595943,113.37640468673749 287.3342880595943,116.37640468673749 292.3342880595943,118.4764046867374 C 297.2342880595943,120.57640468673742 304.7342880595943,122.07640468673742 312.2342880595943,118.17640468673744 C 315.9342880595942,116.17640468673744 319.4342880595942,112.87640468673749 321.9342880595942,108.27640468673746 C 324.3342880595942,103.77640468673746 325.63428805959427,97.97640468673751 324.13428805959427,92.27640468673746 C 322.7342880595943,86.47640468673745 318.53428805959425,80.87640468673749 312.4342880595942,76.97640468673745 C 306.3342880595942,73.07640468673748 298.3342880595942,71.27640468673746 289.7342880595943,71.97640468673745 C 281.03428805959425,72.57640468673748 271.8342880595943,75.57640468673748 262.4342880595942,80.17640468673744 C 253.03428805959427,84.67640468673744 242.83428805959423,90.47640468673745 231.43428805959425,95.67640468673744 C 208.83428805959423,106.17640468673744 182.43428805959425,116.07640468673742 151.43428805959425,123.07640468673742 C 129.23428805959426,128.07640468673742 107.23428805959426,132.57640468673742 84.83428805959426,136.07640468673742 C 72.03428805959425,138.07640468673742 58.53428805959426,138.4764046867374 47.134288059594255,136.77640468673746 C 35.634288059594255,135.17640468673744 26.534288059594246,131.3764046867375 22.134288059594255,128.8764046867375 C 11.434288059594252,122.87640468673749 3.9342880595942518,113.47640468673751 1.3342880595942574,105.57640468673753 C -1.3657119404057454,97.57640468673753 0.33428805959425745,91.77640468673752 3.734288059594263,90.37640468673754 C 7.3342880595942574,88.87640468673754 11.934288059594266,90.97640468673757 17.13428805959427,93.8764046867376 C 22.23428805959435,96.87640468673726 28.63428805959434,100.5764046867373 35.83428805959434,104.67640468673733 M 373.6342880595944,46.67640468673727 C 361.2342880595944,68.2764046867373 385.93428805959434,87.87640468673726 404.2342880595944,70.97640468673728 C 404.43428805959434,70.7764046867373 404.6342880595944,70.5764046867373 404.8342880595944,70.2764046867373 C 417.2342880595944,48.67640468673727 392.53428805959436,29.076404686737305 374.2342880595944,45.97640468673728 C 373.93428805959434,46.17640468673727 373.7342880595943,46.37640468673726 373.6342880595944,46.67640468673727 M 279.93428805959434,91.97640468673728 C 270.2342880595944,108.87640468673726 289.6342880595944,124.37640468673726 303.93428805959434,111.0764046867373 C 304.1342880595944,110.87640468673726 304.2342880595944,110.67640468673733 304.43428805959434,110.47640468673728 C 314.1342880595944,93.5764046867373 294.7342880595944,78.0764046867373 280.43428805959434,91.37640468673726 C 280.2342880595943,91.5764046867373 280.03428805959436,91.7764046867373 279.93428805959434,91.97640468673728 M 454.03428805959436,56.97640468673728 C 453.03428805959436,55.67640468673727 451.3342880595943,53.47640468673728 450.43428805959434,49.776404686737294 C 449.93428805959434,47.97640468673728 449.6342880595944,45.87640468673732 449.7342880595943,43.67640468673727 C 449.8342880595943,41.37640468673726 450.2342880595943,39.47640468673728 451.43428805959434,36.87640468673726 C 453.6342880595944,31.87640468673726 458.53428805959436,26.776404686737237 465.43428805959434,23.07640468673725 C 468.93428805959434,21.276404686737237 472.7342880595943,19.87640468673726 476.8342880595943,18.976404686737226 C 481.03428805959436,18.07640468673725 485.53428805959436,17.676404686737214 490.2342880595943,17.776404686737237 C 506.63428805959427,17.976404686737226 524.3342880595943,23.476404686737226 541.4342880595943,29.476404686737226 C 558.5342880595944,35.676404686737214 575.3342880595943,43.476404686737226 591.9342880595943,51.8764046867372 C 615.1342880595944,63.57640468673719 636.9342880595943,75.17640468673721 658.3342880595943,84.57640468673719 C 679.7342880595943,94.07640468673719 700.6342880595943,101.47640468673717 720.9342880595943,106.07640468673719 C 741.2342880595943,110.67640468673721 760.9342880595943,112.17640468673721 779.4342880595943,110.67640468673721 C 788.6342880595944,109.77640468673724 797.7342880595943,107.77640468673724 805.8342880595943,103.67640468673721 C 809.8342880595943,101.57640468673719 813.6342880595943,98.97640468673717 816.7342880595943,95.87640468673726 C 819.9342880595943,92.77640468673724 822.7342880595943,88.47640468673728 823.7342880595943,83.87640468673726 C 825.9342880595943,74.47640468673728 820.8342880595943,64.97640468673728 813.6342880595943,60.57640468673725 C 810.1342880595943,58.27640468673724 805.8342880595943,57.17640468673727 802.3342880595943,56.67640468673727 C 798.7342880595943,56.07640468673725 795.2342880595943,55.67640468673727 791.8342880595943,55.47640468673728 C 778.0342880595944,54.776404686737294 765.4342880595943,56.87640468673726 754.3342880595943,59.97640468673728 C 743.2342880595943,63.076404686737305 733.5342880595944,67.0764046867373 725.0342880595944,71.37640468673726 C 716.4342880595943,75.67640468673727 709.0342880595944,80.87640468673726 703.9342880595943,87.17640468673727 C 698.6342880595944,93.37640468673726 696.0342880595944,100.67640468673733 695.9342880595943,107.17640468673733 C 695.7342880595943,113.67640468673733 697.4342880595943,119.27640468673735 699.9342880595943,123.67640468673733 C 704.9342880595943,132.47640468673728 712.0342880595944,135.77640468673735 716.7342880595943,137.47640468673728 C 721.6342880595943,139.0764046867373 724.8342880595943,138.97640468673728 726.7342880595943,138.87640468673726 C 728.6342880595943,138.77640468673724 729.1342880595943,138.67640468673721 729.1342880595943,138.67640468673721 C 729.1342880595943,138.67640468673721 728.5342880595942,138.67640468673721 726.7342880595943,138.5764046867372 C 724.9342880595943,138.37640468673715 721.8342880595943,138.17640468673721 717.2342880595943,136.27640468673724 C 712.8342880595943,134.37640468673726 706.4342880595943,130.77640468673724 702.3342880595943,122.47640468673728 C 700.3342880595943,118.37640468673726 699.0342880595944,113.27640468673724 699.4342880595943,107.47640468673728 C 699.8342880595943,101.67640468673733 702.3342880595943,95.47640468673728 707.2342880595943,90.0764046867373 C 712.0342880595942,84.67640468673733 719.0342880595942,79.97640468673728 727.3342880595943,76.17640468673733 C 735.7342880595943,72.27640468673735 745.2342880595943,68.67640468673733 755.9342880595943,65.97640468673734 C 766.6342880595944,63.37640468673732 778.6342880595944,61.57640468673736 791.4342880595943,62.57640468673736 C 794.6342880595944,62.77640468673735 797.9342880595943,63.176404686737385 801.1342880595944,63.876404686737374 C 804.4342880595943,64.4764046867374 807.1342880595944,65.27640468673735 809.7342880595944,66.9764046867374 C 814.7342880595944,70.17640468673738 817.7342880595944,76.4764046867374 816.3342880595944,82.37640468673737 C 815.5342880595945,85.37640468673737 813.9342880595945,87.9764046867374 811.3342880595944,90.4764046867374 C 808.7342880595944,92.9764046867374 805.6342880595944,95.07640468673742 802.2342880595944,96.77640468673735 C 795.3342880595944,100.17640468673733 787.2342880595944,101.87640468673737 778.6342880595944,102.67640468673733 C 761.3342880595944,103.87640468673737 742.4342880595943,102.27640468673735 722.9342880595943,97.67640468673733 C 703.3342880595943,93.0764046867373 683.1342880595944,85.77640468673735 662.1342880595944,76.27640468673735 C 641.2342880595944,66.87640468673737 619.6342880595944,55.27640468673735 596.3342880595944,43.376404686737374 C 579.7342880595944,34.876404686737374 562.9342880595945,26.476404686737396 545.8342880595944,18.876404686737374 C 537.2342880595944,15.076404686737362 528.5342880595945,11.576404686737362 519.7342880595944,8.376404686737374 C 510.8342880595944,5.176404686737385 501.6342880595944,2.276404686737351 491.7342880595944,0.8764046867373736 C 486.1342880595944,0.07640468673736223 480.2342880595944,-0.22359531326264914 474.43428805959445,0.17640468673738496 C 468.43428805959445,0.5764046867373622 462.6342880595945,1.8764046867373736 457.1342880595945,3.8764046867373736 C 446.1342880595945,7.876404686737374 436.1342880595945,15.176404686737385 430.0342880595945,24.976404686737396 C 427.0342880595945,29.676404686737385 424.83428805959454,35.476404686737396 423.93428805959445,40.57640468673742 C 423.0342880595945,45.77640468673741 423.1342880595945,50.77640468673741 423.8342880595944,55.17640468673744 C 425.1342880595945,64.07640468673742 429.0342880595945,70.97640468673745 432.5342880595945,75.07640468673742 C 436.6342880595945,80.17640468673744 442.43428805959445,84.17640468673744 448.53428805959436,86.17640468673744 C 454.6342880595944,88.17640468673744 460.7342880595944,88.37640468673743 466.2342880595944,87.37640468673743 C 477.2342880595944,85.37640468673743 485.7342880595944,77.97640468673745 489.03428805959436,70.87640468673743 C 492.6342880595944,63.77640468673741 492.3342880595943,57.37640468673743 491.1342880595944,53.37640468673743 C 489.8342880595944,49.37640468673743 487.53428805959436,47.77640468673741 485.7342880595944,47.97640468673745 C 481.93428805959445,48.47640468673745 479.3342880595944,55.17640468673744 473.1342880595944,59.17640468673744 C 467.53428805959436,62.776404686737294 458.03428805959436,62.67640468673727 454.03428805959436,56.97640468673728 M 826.8342880595943,104.67640468673733 C 823.8342880595943,106.37640468673737 818.2342880595943,109.87640468673737 809.9342880595943,112.77640468673735 C 801.6342880595944,115.77640468673735 790.5342880595944,117.9764046867374 778.5342880595944,118.87640468673737 C 757.4342880595943,120.37640468673737 735.0342880595944,118.4764046867374 713.4342880595943,113.67640468673733 C 683.1342880595944,106.97640468673728 657.2342880595943,97.5764046867373 635.0342880595944,87.67640468673733 C 623.9342880595943,82.77640468673735 613.9342880595943,77.37640468673732 603.8342880595943,72.77640468673735 C 593.8342880595943,68.17640468673733 583.5342880595944,64.97640468673734 573.4342880595943,64.57640468673736 C 563.5342880595944,64.07640468673736 553.7342880595943,66.37640468673737 546.4342880595943,71.47640468673734 C 539.2342880595943,76.37640468673732 534.1342880595944,83.57640468673736 532.6342880595944,91.07640468673736 C 531.0342880595944,98.67640468673733 533.0342880595944,105.77640468673735 536.2342880595944,110.9764046867374 C 539.4342880595945,116.27640468673735 543.9342880595945,119.9764046867374 548.4342880595945,122.17640468673744 C 553.0342880595945,124.27640468673746 557.7342880595944,124.77640468673746 561.6342880595945,124.17640468673744 C 565.5342880595945,123.67640468673744 568.8342880595945,122.4764046867374 571.4342880595945,120.9764046867374 C 576.7342880595944,118.07640468673742 579.5342880595945,114.57640468673742 581.2342880595944,111.9764046867374 C 584.3342880595944,106.57640468673742 583.9342880595945,104.87640468673737 584.1342880595944,104.9764046867374 C 584.0342880595944,104.87640468673737 583.8342880595944,106.4764046867374 580.2342880595944,111.17640468673744 C 578.3342880595944,113.37640468673749 575.3342880595944,116.37640468673749 570.3342880595944,118.4764046867374 C 565.4342880595945,120.57640468673742 557.9342880595945,122.07640468673742 550.4342880595945,118.17640468673744 C 546.7342880595944,116.17640468673744 543.2342880595944,112.87640468673749 540.7342880595944,108.27640468673746 C 538.3342880595944,103.77640468673746 537.0342880595944,97.97640468673751 538.5342880595944,92.27640468673746 C 539.9342880595943,86.47640468673745 544.1342880595944,80.87640468673749 550.2342880595944,76.97640468673745 C 556.3342880595944,73.07640468673748 564.3342880595944,71.27640468673746 572.9342880595945,71.97640468673745 C 581.6342880595945,72.57640468673748 590.8342880595944,75.57640468673748 600.2342880595944,80.17640468673744 C 609.6342880595944,84.67640468673744 619.8342880595944,90.47640468673745 631.2342880595944,95.67640468673744 C 653.8342880595944,106.17640468673744 680.2342880595944,116.07640468673742 711.2342880595944,123.07640468673742 C 733.4342880595945,128.07640468673742 755.4342880595945,132.57640468673742 777.8342880595944,136.07640468673742 C 790.6342880595944,138.07640468673742 804.1342880595944,138.4764046867374 815.5342880595945,136.77640468673746 C 827.0342880595945,135.17640468673744 836.1342880595945,131.3764046867375 840.5342880595945,128.8764046867375 C 851.2342880595945,122.87640468673749 858.7342880595945,113.47640468673751 861.3342880595944,105.57640468673753 C 864.0342880595945,97.57640468673753 862.3342880595944,91.77640468673752 858.9342880595945,90.37640468673754 C 855.3342880595944,88.87640468673754 850.7342880595944,90.97640468673757 845.5342880595945,93.8764046867376 C 840.4342880595943,96.87640468673726 834.0342880595944,100.5764046867373 826.8342880595943,104.67640468673733 M 489.03428805959436,46.67640468673727 C 501.43428805959434,68.2764046867373 476.7342880595944,87.87640468673726 458.53428805959436,70.97640468673728 C 458.3342880595943,70.7764046867373 458.1342880595944,70.5764046867373 457.93428805959434,70.2764046867373 C 445.53428805959436,48.67640468673727 470.2342880595943,29.076404686737305 488.43428805959434,45.97640468673728 C 488.7342880595943,46.17640468673727 488.8342880595943,46.37640468673726 489.03428805959436,46.67640468673727 M 582.7342880595943,91.97640468673728 C 592.4342880595943,108.87640468673726 573.0342880595942,124.37640468673726 558.7342880595943,111.0764046867373 C 558.5342880595942,110.87640468673726 558.4342880595943,110.67640468673733 558.2342880595943,110.47640468673728 C 548.5342880595942,93.5764046867373 567.9342880595943,78.0764046867373 582.2342880595943,91.37640468673726 C 582.4342880595943,91.5764046867373 582.6342880595943,91.7764046867373 582.7342880595943,91.97640468673728"/>
</svg>
