<?xml version="1.0" ?>
<svg xmlns="http://www.w3.org/2000/svg" xmlns:ev="http://www.w3.org/2001/xml-events" xmlns:xlink="http://www.w3.org/1999/xlink" baseProfile="full" enable-background="new 0 0 1000 1000" height="150" id="Layer_1" transform="scale(0.6666666666666666 0.6666666666666666) translate(-470.0 -75.0)" version="1.1" viewBox="0 0 940 150" width="940" x="0px" xml:space="preserve" y="0px">
	<defs/>
	<path d="M 468.6877631862943,83.9120629557084 C 468.6877631862943,83.9120629557084 469.78776318629434,85.01206295570842 471.8877631862943,87.11206295570844 C 474.0877631862943,89.11206295570844 477.1877631862943,92.01206295570842 481.6877631862943,95.21206295570846 C 490.58776318629435,101.51206295570842 504.8877631862943,108.61206295570844 523.3877631862944,112.31206295570848 C 541.7877631862943,116.01206295570853 564.0877631862944,116.4120629557085 587.5877631862944,113.01206295570853 C 611.0877631862944,109.61206295570855 635.6877631862944,102.51206295570853 660.1877631862944,94.11206295570855 C 684.6877631862944,85.8120629557086 709.4877631862944,76.4120629557085 733.9877631862944,69.3120629557086 C 758.4877631862944,62.11206295570855 782.7877631862943,57.61206295570855 804.8877631862944,56.712062955708575 C 826.9877631862944,55.8120629557086 846.5877631862944,58.51206295570853 861.2877631862943,62.8120629557086 C 876.0877631862943,67.01206295570864 885.7877631862943,72.21206295570857 889.7877631862943,74.41206295570862 C 903.3877631862944,81.71206295570857 913.7877631862943,90.91206295570862 921.3877631862944,99.8120629557086 C 928.8877631862944,108.91206295570862 933.5877631862944,117.8120629557086 936.1877631862943,125.3120629557086 C 941.1877631862943,140.51206295570864 938.7877631862943,149.11206295570855 935.7877631862943,149.61206295570855 C 932.2877631862943,150.4120629557085 928.1877631862943,144.01206295570853 920.3877631862944,133.51206295570853 C 912.5877631862944,123.21206295570857 900.2877631862943,108.51206295570853 878.9877631862944,95.21206295570857 C 875.6877631862944,93.3120629557086 867.9877631862944,88.41206295570862 855.6877631862944,84.11206295570855 C 843.3877631862945,79.71206295570857 826.2877631862945,76.11206295570855 806.0877631862944,75.8120629557086 C 785.8877631862944,75.41206295570862 762.6877631862944,78.3120629557086 738.5877631862944,83.91206295570862 C 714.4877631862944,89.41206295570862 689.2877631862945,97.41206295570862 664.0877631862944,104.51206295570864 C 638.7877631862945,111.61206295570867 613.1877631862944,117.61206295570867 588.7877631862945,119.8120629557086 C 564.4877631862945,122.11206295570855 541.5877631862944,120.41206295570862 522.8877631862945,115.61206295570855 C 504.08776318629447,110.8120629557086 489.8877631862944,102.8120629557086 481.2877631862944,95.9120629557085 C 476.8877631862944,92.51206295570853 473.8877631862944,89.31206295570848 471.7877631862944,87.21206295570846 C 469.6877631862943,85.11206295570832 468.6877631862943,83.9120629557084 468.6877631862943,83.9120629557084 M 810.1877631862943,60.81206295570837 C 808.9877631862943,56.012062955708416 805.6877631862943,48.81206295570837 798.7877631862943,43.41206295570839 C 797.0877631862943,42.11206295570844 795.2877631862943,40.81206295570837 793.0877631862943,39.71206295570835 C 791.9877631862943,39.21206295570835 790.8877631862943,38.612062955708325 789.7877631862943,38.112062955708325 C 788.6877631862943,37.612062955708325 787.3877631862944,37.41206295570828 786.1877631862943,37.0120629557083 C 784.9877631862943,36.71206295570835 783.6877631862943,36.31206295570826 782.4877631862943,36.112062955708325 C 781.2877631862942,36.0120629557083 779.9877631862943,35.81206295570837 778.6877631862943,35.71206295570835 C 776.0877631862943,35.31206295570837 773.5877631862943,35.71206295570835 770.9877631862943,35.71206295570835 C 760.5877631862943,36.612062955708325 750.2877631862942,40.612062955708325 740.7877631862942,46.81206295570837 C 736.0877631862942,50.012062955708416 731.4877631862943,53.71206295570835 727.6877631862942,58.31206295570837 C 723.6877631862942,62.71206295570835 720.3877631862943,68.21206295570835 718.5877631862942,74.4120629557084 C 717.6877631862942,77.11206295570844 717.3877631862941,80.01206295570842 717.2877631862942,82.81206295570837 C 717.1877631862942,85.61206295570832 717.6877631862942,88.11206295570832 717.8877631862943,90.81206295570837 C 718.0877631862943,93.4120629557084 719.0877631862943,96.01206295570842 719.6877631862942,98.61206295570832 C 720.2877631862942,101.21206295570835 721.7877631862942,103.61206295570832 722.7877631862942,106.0120629557083 C 727.7877631862942,115.71206295570835 736.9877631862943,122.71206295570835 746.8877631862943,126.0120629557083 C 756.8877631862943,129.41206295570828 767.5877631862943,129.61206295570832 777.5877631862943,127.61206295570832 C 787.6877631862943,125.61206295570832 797.1877631862943,121.41206295570828 805.7877631862943,115.81206295570837 C 817.5877631862943,107.9120629557084 827.0877631862943,96.4120629557084 831.3877631862944,83.51206295570842 C 833.7877631862943,77.11206295570844 834.6877631862943,70.31206295570837 834.8877631862944,63.71206295570846 C 834.7877631862943,62.012062955708416 834.5877631862944,60.41206295570851 834.4877631862944,58.71206295570846 C 834.3877631862944,57.012062955708416 834.1877631862944,55.41206295570851 833.6877631862944,53.812062955708484 L 832.4877631862944,49.01206295570853 L 830.5877631862944,44.51206295570853 C 825.3877631862944,32.312062955708484 814.3877631862944,24.112062955708552 803.2877631862945,19.812062955708484 C 800.4877631862945,18.912062955708507 797.6877631862944,17.61206295570844 794.7877631862945,17.01206295570853 C 791.8877631862945,16.412062955708507 789.0877631862944,15.812062955708484 786.2877631862945,15.212062955708575 C 783.3877631862945,15.01206295570853 780.4877631862945,14.712062955708575 777.5877631862944,14.612062955708552 C 774.7877631862945,14.812062955708598 771.8877631862944,14.812062955708598 769.0877631862944,15.112062955708552 C 757.9877631862944,16.412062955708507 747.6877631862944,19.812062955708598 738.2877631862945,23.812062955708598 C 728.7877631862945,27.812062955708598 719.9877631862945,32.3120629557086 711.6877631862944,37.11206295570855 C 695.1877631862944,46.61206295570855 680.5877631862944,56.712062955708575 667.0877631862944,66.01206295570853 C 613.3877631862944,103.21206295570857 566.4877631862944,115.21206295570857 534.5877631862944,113.71206295570857 C 526.5877631862944,113.41206295570862 519.4877631862944,112.21206295570857 513.1877631862944,110.71206295570857 C 506.98776318629433,109.01206295570853 501.6877631862944,107.11206295570855 497.1877631862944,105.01206295570853 C 488.08776318629435,100.81206295570848 482.2877631862944,96.31206295570848 478.1877631862944,93.01206295570853 C 474.08776318629435,89.61206295570855 471.7877631862944,87.31206295570848 470.4877631862944,85.9120629557085 C 469.0877631862944,84.51206295570853 468.6877631862944,84.11206295570855 468.6877631862944,84.11206295570855 C 468.6877631862944,84.11206295570855 469.08776318629435,84.61206295570855 470.38776318629436,86.01206295570853 C 471.6877631862944,87.51206295570853 473.78776318629434,89.9120629557085 477.78776318629434,93.51206295570853 C 481.78776318629434,97.01206295570853 487.48776318629433,101.81206295570848 496.58776318629435,106.4120629557085 C 501.08776318629435,108.71206295570846 506.48776318629433,110.81206295570848 512.7877631862945,112.71206295570846 C 519.0877631862944,114.4120629557085 526.3877631862945,115.81206295570848 534.5877631862944,116.31206295570848 C 567.2877631862945,118.51206295570853 615.1877631862944,107.01206295570853 669.8877631862944,69.81206295570848 C 683.4877631862944,60.61206295570844 697.9877631862944,50.71206295570846 714.3877631862944,41.41206295570851 C 722.5877631862944,36.812062955708484 731.1877631862943,32.41206295570851 740.3877631862944,28.612062955708552 C 749.5877631862944,24.812062955708598 759.4877631862944,21.612062955708552 769.7877631862943,20.412062955708507 C 772.3877631862944,20.112062955708552 774.9877631862944,20.112062955708552 777.5877631862943,20.01206295570853 C 780.1877631862943,20.112062955708552 782.7877631862943,20.412062955708507 785.4877631862943,20.612062955708552 C 788.0877631862943,21.212062955708575 790.7877631862942,21.812062955708598 793.4877631862943,22.312062955708598 C 796.1877631862943,22.812062955708598 798.6877631862943,24.112062955708552 801.2877631862942,24.91206295570862 C 811.3877631862943,28.91206295570862 820.9877631862943,36.112062955708666 825.3877631862943,46.712062955708575 L 827.0877631862943,50.712062955708575 L 828.0877631862943,54.91206295570862 L 828.5877631862943,57.01206295570864 L 828.7877631862943,59.21206295570869 C 828.8877631862944,60.71206295570869 829.0877631862943,62.112062955708666 829.0877631862943,63.612062955708666 C 828.8877631862943,69.51206295570864 828.0877631862943,75.61206295570867 825.8877631862943,81.41206295570862 C 821.7877631862942,93.11206295570867 813.4877631862943,103.3120629557086 802.4877631862943,110.8120629557086 C 794.5877631862943,116.01206295570864 785.6877631862943,119.8120629557086 776.5877631862943,121.41206295570862 C 767.3877631862943,123.01206295570864 757.8877631862943,122.51206295570864 749.4877631862943,119.3120629557086 C 741.0877631862943,116.11206295570855 733.9877631862943,110.11206295570855 730.5877631862943,102.21206295570857 C 729.8877631862943,100.11206295570855 728.7877631862943,98.3120629557086 728.4877631862943,96.21206295570857 C 728.1877631862943,94.11206295570855 727.4877631862943,92.01206295570853 727.4877631862943,89.8120629557086 C 727.4877631862943,87.71206295570857 727.2877631862942,85.41206295570862 727.4877631862943,83.41206295570862 C 727.7877631862942,81.51206295570864 727.9877631862943,79.61206295570867 728.8877631862943,77.8120629557086 C 730.4877631862943,73.61206295570855 733.1877631862942,69.71206295570857 736.5877631862943,66.51206295570864 C 739.8877631862943,63.112062955708666 743.7877631862943,60.41206295570862 747.7877631862943,58.112062955708666 C 755.8877631862944,53.71206295570869 764.5877631862943,51.112062955708666 771.9877631862944,51.01206295570864 C 773.7877631862943,51.112062955708666 775.6877631862944,50.91206295570862 777.1877631862944,51.3120629557086 C 777.9877631862944,51.41206295570862 778.7877631862945,51.61206295570855 779.5877631862944,51.712062955708575 C 780.3877631862944,51.91206295570862 780.9877631862944,52.212062955708575 781.6877631862944,52.41206295570862 C 782.3877631862945,52.712062955708575 783.0877631862944,52.8120629557086 783.6877631862944,53.112062955708666 C 784.2877631862945,53.41206295570862 784.7877631862945,53.71206295570869 785.2877631862945,54.112062955708666 C 786.3877631862945,54.612062955708666 787.3877631862945,55.51206295570864 788.2877631862945,56.21206295570869 C 791.7877631862945,59.412062955708734 793.0877631862944,62.71206295570869 793.6877631862944,65.11206295570867 C 795.1877631862944,70.91206295570862 793.6877631862944,77.71206295570869 790.7877631862945,82.81206295570871 C 787.8877631862945,88.01206295570876 783.7877631862945,91.41206295570873 779.7877631862945,92.91206295570873 C 775.7877631862945,94.41206295570873 771.7877631862945,94.21206295570869 768.7877631862945,93.91206295570873 C 765.6877631862944,93.61206295570878 763.6877631862944,93.31206295570871 762.9877631862945,94.41206295570873 C 762.3877631862945,95.31206295570871 763.0877631862945,97.51206295570876 765.9877631862945,100.01206295570876 C 768.7877631862945,102.51206295570876 774.3877631862945,105.51206295570876 782.0877631862945,104.91206295570873 C 789.7877631862946,104.31206295570871 798.2877631862946,99.51206295570876 803.9877631862945,91.61206295570878 C 809.4877631862944,83.71206295570835 813.0877631862944,72.61206295570832 810.1877631862943,60.81206295570837 M 674.3877631862944,18.112062955708325 C 672.1877631862943,22.612062955708325 666.1877631862943,35.5120629557083 657.0877631862944,47.612062955708325 C 649.1877631862944,58.31206295570837 639.0877631862944,67.81206295570837 627.5877631862944,75.41206295570828 C 611.4877631862944,86.0120629557083 595.5877631862944,92.81206295570826 581.0877631862944,97.21206295570823 C 566.5877631862944,101.61206295570821 553.3877631862944,103.61206295570821 541.9877631862944,104.01206295570819 C 536.2877631862943,104.41206295570817 530.8877631862944,103.91206295570817 525.9877631862944,103.71206295570823 C 521.0877631862944,103.11206295570821 516.5877631862944,102.61206295570821 512.4877631862944,101.71206295570823 C 508.48776318629433,100.71206295570823 504.6877631862944,100.01206295570819 501.3877631862943,98.91206295570828 C 498.08776318629435,97.81206295570826 495.08776318629435,96.71206295570823 492.3877631862943,95.81206295570826 C 487.18776318629426,93.5120629557083 483.0877631862943,91.61206295570821 479.7877631862943,90.11206295570821 C 476.68776318629426,88.31206295570826 474.4877631862943,87.11206295570821 472.7877631862943,86.11206295570821 C 469.4877631862943,84.31206295570826 468.68776318629426,83.91206295570817 468.68776318629426,83.91206295570817 C 468.68776318629426,83.91206295570817 469.38776318629425,84.51206295570819 472.4877631862943,86.71206295570812 C 474.0877631862943,87.81206295570814 476.18776318629426,89.31206295570814 479.18776318629426,91.31206295570814 C 482.2877631862943,93.1120629557081 486.3877631862943,95.31206295570814 491.58776318629424,97.81206295570814 C 494.2877631862943,98.91206295570817 497.2877631862943,100.1120629557081 500.58776318629424,101.41206295570817 C 503.8877631862942,102.71206295570812 507.7877631862943,103.51206295570819 511.8877631862942,104.71206295570812 C 516.0877631862943,105.71206295570812 520.6877631862942,106.41206295570817 525.6877631862942,107.21206295570812 C 530.7877631862942,107.6120629557081 536.1877631862942,108.21206295570812 542.0877631862942,107.91206295570817 C 553.8877631862941,107.81206295570814 567.4877631862942,106.01206295570819 582.3877631862941,101.61206295570821 C 597.2877631862941,97.21206295570823 613.6877631862941,90.41206295570817 630.3877631862941,79.61206295570821 C 642.2877631862941,71.81206295570826 653.4877631862942,63.11206295570821 663.7877631862941,53.61206295570821 C 675.6877631862941,42.81206295570826 684.6877631862941,29.712062955708234 687.1877631862941,24.712062955708234 C 690.3877631862941,18.712062955708234 691.8877631862941,12.712062955708234 692.1877631862941,8.212062955708234 C 692.2877631862941,3.612062955708211 691.3877631862941,0.6120629557082111 689.487763186294,0.11206295570821112 C 685.4877631862944,-1.0879370442916638 679.9877631862944,7.512062955708302 674.3877631862944,18.112062955708325 M 639.2877631862943,26.512062955708302 C 638.2877631862943,28.312062955708257 637.2877631862943,32.112062955708325 634.7877631862943,36.31206295570826 C 633.6877631862943,38.5120629557083 632.3877631862944,40.91206295570828 631.0877631862943,43.5120629557083 C 629.4877631862943,45.91206295570828 627.7877631862943,48.41206295570828 626.0877631862943,51.0120629557083 C 625.2877631862943,52.112062955708325 624.5877631862943,53.31206295570826 623.7877631862943,54.31206295570826 L 621.0877631862943,57.41206295570828 L 615.3877631862943,63.5120629557083 L 608.8877631862943,68.81206295570826 C 606.6877631862942,70.61206295570821 604.4877631862943,72.31206295570826 601.9877631862943,73.71206295570823 C 588.6877631862943,82.31206295570826 575.2877631862942,87.21206295570823 563.2877631862942,90.51206295570819 C 560.2877631862942,91.31206295570814 557.3877631862943,92.01206295570819 554.4877631862943,92.71206295570823 C 551.5877631862943,93.11206295570821 548.7877631862942,93.61206295570821 546.0877631862943,94.01206295570819 C 540.6877631862943,95.01206295570819 535.5877631862943,95.11206295570821 530.8877631862943,95.41206295570817 C 526.1877631862942,95.91206295570817 521.7877631862942,95.41206295570817 517.6877631862942,95.21206295570812 C 515.6877631862942,95.1120629557081 513.6877631862942,95.01206295570807 511.78776318629417,94.91206295570817 C 509.8877631862942,94.61206295570821 508.18776318629415,94.31206295570814 506.4877631862942,94.11206295570821 C 503.08776318629424,93.61206295570821 499.9877631862942,93.11206295570821 497.08776318629424,92.71206295570823 C 494.2877631862943,92.01206295570819 491.7877631862943,91.31206295570826 489.4877631862942,90.71206295570823 C 487.18776318629426,90.11206295570821 485.18776318629426,89.61206295570821 483.2877631862942,89.11206295570821 C 481.4877631862942,88.51206295570819 479.9877631862942,87.91206295570817 478.58776318629424,87.41206295570817 C 475.7877631862942,86.41206295570817 473.7877631862942,85.71206295570812 472.38776318629425,85.21206295570812 C 469.4877631862943,84.21206295570812 468.68776318629426,84.01206295570807 468.68776318629426,84.01206295570807 C 468.68776318629426,84.01206295570807 469.2877631862943,84.41206295570805 472.08776318629424,85.81206295570803 C 473.4877631862942,86.51206295570807 475.4877631862942,87.41206295570805 478.08776318629424,88.712062955708 C 479.38776318629425,89.31206295570803 480.9877631862942,90.11206295570798 482.68776318629426,90.81206295570803 C 484.4877631862942,91.41206295570805 486.58776318629424,92.11206295570798 488.7877631862943,92.81206295570803 C 491.08776318629424,93.51206295570807 493.58776318629424,94.31206295570803 496.3877631862943,95.212062955708 C 499.2877631862943,95.81206295570803 502.3877631862943,96.41206295570805 505.8877631862943,97.11206295570798 C 507.58776318629435,97.41206295570794 509.3877631862943,97.81206295570803 511.2877631862943,98.11206295570798 C 513.1877631862943,98.31206295570803 515.1877631862943,98.41206295570794 517.2877631862943,98.61206295570798 C 521.4877631862944,98.91206295570794 525.9877631862944,99.51206295570796 530.7877631862943,99.212062955708 C 535.6877631862943,99.01206295570796 540.8877631862944,99.11206295570798 546.4877631862944,98.212062955708 C 549.2877631862943,97.81206295570803 552.1877631862944,97.41206295570805 555.1877631862944,97.01206295570796 C 558.0877631862944,96.31206295570792 561.1877631862944,95.61206295570798 564.2877631862945,94.91206295570794 C 576.6877631862944,91.71206295570789 590.5877631862944,86.81206295570792 604.4877631862945,77.91206295570794 C 607.0877631862945,76.51206295570796 609.4877631862945,74.81206295570792 611.8877631862945,73.11206295570798 L 619.1877631862944,68.11206295570798 L 625.9877631862944,62.612062955707984 L 629.4877631862944,59.91206295570794 C 630.5877631862944,59.01206295570796 631.5877631862944,57.91206295570794 632.6877631862944,56.91206295570794 C 635.0877631862944,54.612062955707984 637.5877631862944,52.312062955707916 639.8877631862945,50.112062955707984 C 641.8877631862945,47.612062955707984 643.7877631862945,45.31206295570803 645.5877631862945,43.112062955707984 C 649.2877631862946,38.91206295570794 651.1877631862945,34.81206295570803 652.2877631862946,32.71206295570801 C 653.4877631862946,30.112062955707984 654.6877631862945,27.712062955708006 655.0877631862945,25.31206295570803 C 655.4877631862945,22.81206295570803 655.6877631862945,20.612062955707984 655.6877631862945,18.712062955708006 C 655.5877631862945,14.81206295570803 654.4877631862945,12.31206295570803 652.5877631862945,11.912062955708052 C 650.6877631862945,11.412062955708052 648.2877631862946,13.012062955708075 645.9877631862945,15.712062955708006 C 644.8877631862945,17.112062955707984 643.7877631862945,18.712062955708006 642.7877631862945,20.612062955707984 C 641.6877631862943,22.412062955708393 640.2877631862943,24.31206295570837 639.2877631862943,26.512062955708302 M 718.9877631862944,123.9120629557084 C 717.9877631862944,122.01206295570842 715.7877631862943,118.61206295570844 712.1877631862944,115.31206295570837 C 708.6877631862944,111.9120629557084 703.8877631862945,108.61206295570832 698.5877631862944,106.4120629557084 C 689.2877631862945,102.51206295570842 679.6877631862944,101.01206295570842 670.0877631862944,100.61206295570844 C 656.5877631862944,100.01206295570842 644.9877631862944,102.61206295570844 634.9877631862944,105.01206295570842 C 624.9877631862944,107.51206295570842 616.4877631862944,109.9120629557084 608.9877631862944,111.51206295570842 C 593.8877631862944,114.9120629557084 583.0877631862944,116.31206295570837 575.5877631862944,117.4120629557084 C 567.9877631862944,118.31206295570837 563.5877631862944,118.9120629557084 561.0877631862944,119.21206295570835 C 558.5877631862944,119.5120629557083 557.9877631862944,119.71206295570835 557.9877631862944,119.71206295570835 C 557.9877631862944,119.71206295570835 558.5877631862944,119.81206295570837 561.0877631862944,119.9120629557084 C 563.5877631862944,120.01206295570842 568.0877631862944,120.11206295570844 575.7877631862945,119.71206295570835 C 583.4877631862945,119.31206295570837 594.4877631862945,118.4120629557084 609.7877631862945,115.5120629557083 C 617.4877631862945,114.11206295570832 626.1877631862944,111.91206295570828 636.0877631862944,109.61206295570832 C 645.9877631862944,107.5120629557083 657.1877631862944,105.11206295570832 669.8877631862944,105.81206295570837 C 678.8877631862944,106.31206295570837 687.7877631862943,109.11206295570832 694.1877631862943,114.31206295570837 C 697.7877631862943,117.21206295570835 700.6877631862943,120.71206295570835 702.6877631862943,123.71206295570835 C 704.5877631862943,126.71206295570835 705.6877631862943,129.31206295570837 706.3877631862944,130.5120629557083 C 707.9877631862944,133.5120629557083 709.4877631862944,136.21206295570835 711.0877631862944,138.31206295570826 C 712.6877631862944,140.41206295570828 714.3877631862944,142.0120629557083 716.3877631862944,142.1120629557082 C 718.2877631862943,142.1120629557082 720.2877631862943,140.31206295570826 721.0877631862944,136.91206295570817 C 721.7877631862943,133.31206295570837 721.3877631862944,128.4120629557084 718.9877631862944,123.9120629557084 M 586.1877631862943,46.5120629557083 C 585.4877631862943,47.612062955708325 584.4877631862943,50.112062955708325 583.1877631862943,53.112062955708325 C 582.3877631862944,54.5120629557083 581.4877631862943,56.112062955708325 580.5877631862943,57.81206295570837 C 580.0877631862943,58.71206295570835 579.6877631862943,59.512062955708416 579.1877631862943,60.41206295570839 C 578.5877631862943,61.21206295570835 577.9877631862943,62.012062955708416 577.3877631862944,62.91206295570839 C 576.2877631862943,64.4120629557084 575.1877631862943,65.9120629557084 574.0877631862944,67.31206295570837 C 572.7877631862945,68.71206295570835 571.3877631862944,69.9120629557084 570.0877631862944,71.21206295570835 C 567.3877631862944,73.9120629557084 564.0877631862944,75.71206295570835 560.7877631862945,77.71206295570835 C 551.3877631862945,82.71206295570835 542.0877631862944,85.4120629557084 533.8877631862945,87.21206295570835 C 525.5877631862945,88.61206295570832 518.1877631862944,89.4120629557084 511.6877631862944,89.4120629557084 C 498.7877631862944,89.51206295570842 489.6877631862944,88.11206295570844 483.38776318629436,86.9120629557084 C 476.9877631862944,85.81206295570837 473.4877631862944,84.71206295570835 471.38776318629436,84.31206295570837 C 469.28776318629434,83.9120629557084 468.78776318629434,83.81206295570837 468.78776318629434,83.81206295570837 C 468.78776318629434,83.81206295570837 469.1877631862943,84.11206295570832 471.1877631862943,84.9120629557084 C 473.1877631862943,85.71206295570835 476.5877631862943,87.31206295570837 482.8877631862943,89.01206295570842 C 489.18776318629426,90.81206295570837 498.3877631862943,92.81206295570837 511.68776318629426,93.21206295570846 C 518.3877631862944,93.51206295570842 525.9877631862943,92.9120629557085 534.6877631862943,91.61206295570844 C 543.2877631862943,89.9120629557084 553.0877631862943,87.21206295570846 563.0877631862943,82.01206295570842 C 566.5877631862943,79.9120629557084 570.2877631862943,78.21206295570846 573.5877631862943,75.9120629557084 L 578.7877631862943,72.71206295570835 C 580.3877631862944,71.5120629557083 582.0877631862943,70.31206295570837 583.6877631862943,69.11206295570832 C 584.6877631862943,68.41206295570828 585.5877631862943,67.71206295570835 586.5877631862943,67.0120629557083 C 587.3877631862943,66.21206295570835 588.2877631862943,65.41206295570828 589.0877631862943,64.71206295570835 C 590.6877631862943,63.112062955708325 592.2877631862943,61.612062955708325 593.6877631862943,60.31206295570837 C 596.1877631862943,57.41206295570839 597.9877631862943,54.81206295570837 598.7877631862943,53.41206295570839 C 599.2877631862943,52.61206295570844 599.6877631862943,51.71206295570835 600.0877631862943,50.91206295570839 C 600.3877631862943,50.012062955708416 600.5877631862943,49.11206295570844 600.7877631862943,48.31206295570837 C 601.0877631862943,46.612062955708325 601.1877631862943,45.012062955708416 601.0877631862943,43.612062955708325 C 600.8877631862943,40.81206295570837 599.7877631862943,38.81206295570837 597.8877631862943,38.21206295570835 C 595.9877631862943,37.612062955708325 593.7877631862942,38.31206295570837 591.6877631862942,39.81206295570837 C 590.6877631862942,40.612062955708325 589.6877631862942,41.612062955708325 588.7877631862942,42.71206295570835 C 588.3877631862943,43.31206295570837 587.8877631862943,43.91206295570839 587.5877631862942,44.612062955708325 C 586.9877631862944,45.21206295570835 586.5877631862944,45.81206295570837 586.1877631862943,46.5120629557083 M 470.3877631862943,83.9120629557084 C 470.3877631862943,83.9120629557084 469.2877631862943,85.01206295570842 467.1877631862943,87.11206295570844 C 464.98776318629433,89.11206295570844 461.8877631862943,92.01206295570842 457.3877631862943,95.21206295570846 C 448.48776318629433,101.51206295570842 434.1877631862943,108.61206295570844 415.6877631862943,112.31206295570848 C 397.28776318629434,116.01206295570853 374.98776318629433,116.4120629557085 351.48776318629433,113.01206295570853 C 327.98776318629433,109.61206295570855 303.3877631862943,102.51206295570853 278.8877631862943,94.11206295570855 C 254.3877631862943,85.8120629557086 229.5877631862943,76.4120629557085 205.0877631862943,69.3120629557086 C 180.5877631862943,62.11206295570855 156.28776318629428,57.61206295570855 134.18776318629432,56.712062955708575 C 112.08776318629431,55.8120629557086 92.4877631862943,58.51206295570853 77.7877631862943,62.8120629557086 C 62.9877631862943,67.01206295570864 53.2877631862943,72.21206295570857 49.2877631862943,74.41206295570862 C 35.6877631862943,81.71206295570857 25.2877631862943,90.91206295570862 17.687763186294298,99.8120629557086 C 10.187763186294298,108.91206295570862 5.487763186294302,117.8120629557086 2.887763186294297,125.3120629557086 C -2.112236813705703,140.51206295570864 0.28776318629429554,149.11206295570855 3.2877631862942955,149.61206295570855 C 6.787763186294299,150.4120629557085 10.887763186294293,144.01206295570853 18.687763186294298,133.51206295570853 C 26.487763186294295,123.21206295570857 38.7877631862943,108.51206295570853 60.087763186294296,95.21206295570857 C 63.38776318629429,93.3120629557086 71.0877631862943,88.41206295570862 83.3877631862943,84.11206295570855 C 95.68776318629429,79.71206295570857 112.7877631862943,76.11206295570855 132.98776318629427,75.8120629557086 C 153.18776318629426,75.41206295570862 176.3877631862943,78.3120629557086 200.48776318629427,83.91206295570862 C 224.5877631862943,89.41206295570862 249.78776318629428,97.41206295570862 274.9877631862943,104.51206295570864 C 300.2877631862943,111.61206295570867 325.88776318629425,117.61206295570867 350.2877631862943,119.8120629557086 C 374.5877631862943,122.11206295570855 397.4877631862943,120.41206295570862 416.18776318629426,115.61206295570855 C 434.9877631862943,110.8120629557086 449.18776318629426,102.8120629557086 457.7877631862943,95.9120629557085 C 462.18776318629426,92.51206295570853 465.18776318629426,89.31206295570848 467.2877631862943,87.21206295570846 C 469.2877631862943,85.11206295570832 470.3877631862943,83.9120629557084 470.3877631862943,83.9120629557084 M 128.78776318629434,60.81206295570837 C 129.98776318629433,56.012062955708416 133.28776318629434,48.81206295570837 140.18776318629432,43.41206295570839 C 141.8877631862943,42.11206295570844 143.68776318629432,40.81206295570837 145.8877631862943,39.71206295570835 C 146.98776318629433,39.21206295570835 148.0877631862943,38.612062955708325 149.18776318629432,38.112062955708325 C 150.28776318629434,37.612062955708325 151.58776318629435,37.41206295570828 152.78776318629434,37.0120629557083 C 153.98776318629433,36.71206295570835 155.28776318629434,36.31206295570826 156.48776318629433,36.112062955708325 C 157.68776318629432,36.0120629557083 158.98776318629433,35.81206295570837 160.28776318629434,35.71206295570835 C 162.8877631862943,35.31206295570837 165.3877631862943,35.71206295570835 167.98776318629433,35.71206295570835 C 178.3877631862943,36.612062955708325 188.68776318629432,40.612062955708325 198.18776318629432,46.81206295570837 C 202.8877631862943,50.012062955708416 207.48776318629433,53.71206295570835 211.28776318629428,58.31206295570837 C 215.28776318629428,62.71206295570835 218.5877631862943,68.21206295570835 220.3877631862943,74.4120629557084 C 221.28776318629428,77.11206295570844 221.5877631862943,80.01206295570842 221.68776318629432,82.81206295570837 C 221.78776318629428,85.61206295570832 221.28776318629428,88.11206295570832 221.0877631862943,90.81206295570837 C 220.8877631862943,93.4120629557084 219.8877631862943,96.01206295570842 219.28776318629428,98.61206295570832 C 218.68776318629432,101.21206295570835 217.18776318629432,103.61206295570832 216.18776318629432,106.0120629557083 C 211.18776318629432,115.71206295570835 201.98776318629433,122.71206295570835 192.0877631862943,126.0120629557083 C 182.0877631862943,129.41206295570828 171.3877631862943,129.61206295570832 161.3877631862943,127.61206295570832 C 151.28776318629434,125.61206295570832 141.78776318629434,121.41206295570828 133.18776318629432,115.81206295570837 C 121.38776318629432,107.9120629557084 111.88776318629432,96.4120629557084 107.58776318629434,83.51206295570842 C 105.18776318629433,77.11206295570844 104.28776318629433,70.31206295570837 104.08776318629434,63.71206295570846 C 104.18776318629433,62.012062955708416 104.38776318629435,60.41206295570851 104.48776318629434,58.71206295570846 C 104.58776318629434,57.012062955708416 104.78776318629436,55.41206295570851 105.28776318629436,53.812062955708484 L 106.48776318629434,49.01206295570853 L 108.38776318629435,44.51206295570853 C 113.58776318629434,32.312062955708484 124.58776318629434,24.112062955708552 135.68776318629438,19.812062955708484 C 138.4877631862944,18.912062955708507 141.28776318629434,17.61206295570844 144.18776318629438,17.01206295570853 C 147.08776318629435,16.412062955708507 149.88776318629436,15.812062955708484 152.68776318629438,15.212062955708575 C 155.58776318629435,15.01206295570853 158.4877631862944,14.712062955708575 161.38776318629436,14.612062955708552 C 164.18776318629438,14.812062955708598 167.08776318629435,14.812062955708598 169.88776318629436,15.112062955708552 C 180.98776318629433,16.412062955708507 191.28776318629434,19.812062955708598 200.68776318629438,23.812062955708598 C 210.18776318629438,27.812062955708598 218.9877631862944,32.3120629557086 227.28776318629434,37.11206295570855 C 243.78776318629434,46.61206295570855 258.38776318629436,56.712062955708575 271.88776318629436,66.01206295570853 C 325.58776318629435,103.21206295570857 372.48776318629433,115.21206295570857 404.38776318629436,113.71206295570857 C 412.38776318629436,113.41206295570862 419.4877631862944,112.21206295570857 425.78776318629434,110.71206295570857 C 431.98776318629433,109.01206295570853 437.28776318629434,107.11206295570855 441.78776318629434,105.01206295570853 C 450.88776318629436,100.81206295570848 456.6877631862943,96.31206295570848 460.78776318629434,93.01206295570853 C 464.88776318629436,89.61206295570855 467.1877631862943,87.31206295570848 468.48776318629433,85.9120629557085 C 469.8877631862943,84.51206295570853 470.28776318629434,84.11206295570855 470.28776318629434,84.11206295570855 C 470.28776318629434,84.11206295570855 469.88776318629436,84.61206295570855 468.58776318629435,86.01206295570853 C 467.28776318629434,87.51206295570853 465.1877631862944,89.9120629557085 461.1877631862944,93.51206295570853 C 457.1877631862944,97.01206295570853 451.4877631862944,101.81206295570848 442.38776318629436,106.4120629557085 C 437.88776318629436,108.71206295570846 432.4877631862944,110.81206295570848 426.1877631862944,112.71206295570846 C 419.88776318629436,114.4120629557085 412.58776318629435,115.81206295570848 404.38776318629436,116.31206295570848 C 371.6877631862944,118.51206295570853 323.7877631862944,107.01206295570853 269.08776318629435,69.81206295570848 C 255.48776318629433,60.61206295570844 240.98776318629433,50.71206295570846 224.58776318629435,41.41206295570851 C 216.38776318629436,36.812062955708484 207.78776318629434,32.41206295570851 198.58776318629435,28.612062955708552 C 189.38776318629436,24.812062955708598 179.4877631862944,21.612062955708552 169.18776318629438,20.412062955708507 C 166.58776318629435,20.112062955708552 163.9877631862944,20.112062955708552 161.38776318629436,20.01206295570853 C 158.78776318629434,20.112062955708552 156.18776318629438,20.412062955708507 153.48776318629433,20.612062955708552 C 150.88776318629436,21.212062955708575 148.18776318629432,21.812062955708598 145.48776318629433,22.312062955708598 C 142.78776318629434,22.812062955708598 140.28776318629434,24.112062955708552 137.68776318629432,24.91206295570862 C 127.58776318629434,28.91206295570862 117.98776318629434,36.112062955708666 113.58776318629434,46.712062955708575 L 111.88776318629435,50.712062955708575 L 110.88776318629435,54.91206295570862 L 110.38776318629435,57.01206295570864 L 110.18776318629436,59.21206295570869 C 110.08776318629437,60.71206295570869 109.88776318629435,62.112062955708666 109.88776318629435,63.612062955708666 C 110.08776318629434,69.51206295570864 110.88776318629435,75.61206295570867 113.08776318629434,81.41206295570862 C 117.18776318629433,93.11206295570867 125.48776318629434,103.3120629557086 136.48776318629433,110.8120629557086 C 144.38776318629436,116.01206295570864 153.28776318629434,119.8120629557086 162.38776318629436,121.41206295570862 C 171.58776318629435,123.01206295570864 181.08776318629435,122.51206295570864 189.48776318629433,119.3120629557086 C 197.88776318629436,116.11206295570855 204.98776318629433,110.11206295570855 208.38776318629436,102.21206295570857 C 209.08776318629435,100.11206295570855 210.18776318629438,98.3120629557086 210.48776318629433,96.21206295570857 C 210.78776318629434,94.11206295570855 211.48776318629433,92.01206295570853 211.48776318629433,89.8120629557086 C 211.48776318629433,87.71206295570857 211.68776318629432,85.41206295570862 211.48776318629433,83.41206295570862 C 211.18776318629432,81.51206295570864 210.98776318629433,79.61206295570867 210.08776318629435,77.8120629557086 C 208.48776318629433,73.61206295570855 205.78776318629434,69.71206295570857 202.38776318629436,66.51206295570864 C 199.08776318629435,63.112062955708666 195.18776318629438,60.41206295570862 191.18776318629438,58.112062955708666 C 183.08776318629435,53.71206295570869 174.38776318629436,51.112062955708666 166.9877631862944,51.01206295570864 C 165.18776318629438,51.112062955708666 163.2877631862944,50.91206295570862 161.7877631862944,51.3120629557086 C 160.9877631862944,51.41206295570862 160.18776318629438,51.61206295570855 159.38776318629436,51.712062955708575 C 158.58776318629435,51.91206295570862 157.9877631862944,52.212062955708575 157.2877631862944,52.41206295570862 C 156.5877631862944,52.712062955708575 155.88776318629436,52.8120629557086 155.2877631862944,53.112062955708666 C 154.68776318629438,53.41206295570862 154.18776318629438,53.71206295570869 153.68776318629438,54.112062955708666 C 152.5877631862944,54.612062955708666 151.5877631862944,55.51206295570864 150.68776318629438,56.21206295570869 C 147.18776318629438,59.412062955708734 145.88776318629436,62.71206295570869 145.2877631862944,65.11206295570867 C 143.7877631862944,70.91206295570862 145.2877631862944,77.71206295570869 148.18776318629438,82.81206295570871 C 151.0877631862944,88.01206295570876 155.18776318629438,91.41206295570873 159.18776318629438,92.91206295570873 C 163.18776318629438,94.41206295570873 167.18776318629438,94.21206295570869 170.18776318629438,93.91206295570873 C 173.2877631862944,93.61206295570878 175.2877631862944,93.31206295570871 175.9877631862944,94.41206295570873 C 176.5877631862944,95.31206295570871 175.88776318629442,97.51206295570876 172.9877631862944,100.01206295570876 C 170.18776318629438,102.51206295570876 164.5877631862944,105.51206295570876 156.88776318629442,104.91206295570873 C 149.18776318629443,104.31206295570871 140.68776318629443,99.51206295570876 134.9877631862944,91.61206295570878 C 129.48776318629433,83.71206295570835 125.88776318629432,72.61206295570832 128.78776318629434,60.81206295570837 M 264.5877631862943,18.112062955708325 C 266.7877631862943,22.612062955708325 272.7877631862943,35.5120629557083 281.8877631862943,47.612062955708325 C 289.7877631862943,58.31206295570837 299.8877631862943,67.81206295570837 311.3877631862943,75.41206295570828 C 327.48776318629433,86.0120629557083 343.3877631862943,92.81206295570826 357.8877631862943,97.21206295570823 C 372.3877631862943,101.61206295570821 385.5877631862943,103.61206295570821 396.98776318629433,104.01206295570819 C 402.6877631862943,104.41206295570817 408.08776318629435,103.91206295570817 412.98776318629433,103.71206295570823 C 417.8877631862943,103.11206295570821 422.3877631862943,102.61206295570821 426.48776318629433,101.71206295570823 C 430.48776318629433,100.71206295570823 434.28776318629434,100.01206295570819 437.58776318629435,98.91206295570828 C 440.88776318629436,97.81206295570826 443.88776318629436,96.71206295570823 446.58776318629435,95.81206295570826 C 451.78776318629434,93.5120629557083 455.88776318629436,91.61206295570821 459.1877631862944,90.11206295570821 C 462.2877631862944,88.31206295570826 464.4877631862944,87.11206295570821 466.1877631862944,86.11206295570821 C 469.4877631862944,84.31206295570826 470.2877631862944,83.91206295570817 470.2877631862944,83.91206295570817 C 470.2877631862944,83.91206295570817 469.5877631862944,84.51206295570819 466.4877631862944,86.71206295570812 C 464.88776318629436,87.81206295570814 462.7877631862944,89.31206295570814 459.7877631862944,91.31206295570814 C 456.6877631862944,93.1120629557081 452.5877631862944,95.31206295570814 447.3877631862944,97.81206295570814 C 444.68776318629443,98.91206295570817 441.68776318629443,100.1120629557081 438.3877631862944,101.41206295570817 C 435.0877631862944,102.71206295570812 431.18776318629443,103.51206295570819 427.0877631862944,104.71206295570812 C 422.8877631862944,105.71206295570812 418.2877631862944,106.41206295570817 413.2877631862944,107.21206295570812 C 408.1877631862944,107.6120629557081 402.7877631862944,108.21206295570812 396.8877631862944,107.91206295570817 C 385.0877631862944,107.81206295570814 371.48776318629444,106.01206295570819 356.5877631862944,101.61206295570821 C 341.68776318629443,97.21206295570823 325.2877631862944,90.41206295570817 308.5877631862944,79.61206295570821 C 296.68776318629443,71.81206295570826 285.4877631862944,63.11206295570821 275.18776318629443,53.61206295570821 C 263.28776318629446,42.81206295570826 254.28776318629446,29.712062955708234 251.78776318629446,24.712062955708234 C 248.58776318629447,18.712062955708234 247.08776318629447,12.712062955708234 246.78776318629446,8.212062955708234 C 246.58776318629447,3.612062955708211 247.58776318629447,0.6120629557082111 249.48776318629444,0.11206295570821112 C 253.48776318629433,-1.0879370442916638 258.98776318629433,7.512062955708302 264.5877631862943,18.112062955708325 M 299.6877631862943,26.512062955708302 C 300.6877631862943,28.312062955708257 301.6877631862943,32.112062955708325 304.1877631862943,36.31206295570826 C 305.28776318629434,38.5120629557083 306.5877631862943,40.91206295570828 307.8877631862943,43.5120629557083 C 309.48776318629433,45.91206295570828 311.1877631862943,48.41206295570828 312.8877631862943,51.0120629557083 C 313.6877631862943,52.112062955708325 314.3877631862943,53.31206295570826 315.1877631862943,54.31206295570826 L 317.8877631862943,57.41206295570828 L 323.5877631862943,63.5120629557083 L 330.0877631862943,68.81206295570826 C 332.2877631862943,70.61206295570821 334.4877631862943,72.31206295570826 336.9877631862943,73.71206295570823 C 350.2877631862943,82.31206295570826 363.68776318629426,87.21206295570823 375.68776318629426,90.51206295570819 C 378.68776318629426,91.31206295570814 381.58776318629424,92.01206295570819 384.4877631862943,92.71206295570823 C 387.38776318629425,93.11206295570821 390.18776318629426,93.61206295570821 392.88776318629425,94.01206295570819 C 398.2877631862942,95.01206295570819 403.38776318629425,95.11206295570821 408.08776318629424,95.41206295570817 C 412.7877631862942,95.91206295570817 417.18776318629426,95.41206295570817 421.2877631862942,95.21206295570812 C 423.2877631862942,95.1120629557081 425.2877631862942,95.01206295570807 427.1877631862942,94.91206295570817 C 429.0877631862942,94.61206295570821 430.7877631862942,94.31206295570814 432.4877631862942,94.11206295570821 C 435.8877631862942,93.61206295570821 438.9877631862942,93.11206295570821 441.8877631862942,92.71206295570823 C 444.6877631862942,92.01206295570819 447.1877631862942,91.31206295570826 449.4877631862942,90.71206295570823 C 451.7877631862942,90.11206295570821 453.7877631862942,89.61206295570821 455.6877631862942,89.11206295570821 C 457.4877631862942,88.51206295570819 458.9877631862942,87.91206295570817 460.3877631862942,87.41206295570817 C 463.1877631862942,86.41206295570817 465.1877631862942,85.71206295570812 466.5877631862942,85.21206295570812 C 469.48776318629416,84.21206295570812 470.28776318629417,84.01206295570807 470.28776318629417,84.01206295570807 C 470.28776318629417,84.01206295570807 469.68776318629415,84.41206295570805 466.8877631862942,85.81206295570803 C 465.4877631862942,86.51206295570807 463.4877631862942,87.41206295570805 460.8877631862942,88.712062955708 C 459.5877631862942,89.31206295570803 457.9877631862942,90.11206295570798 456.28776318629417,90.81206295570803 C 454.48776318629416,91.41206295570805 452.3877631862942,92.11206295570798 450.18776318629415,92.81206295570803 C 447.88776318629414,93.51206295570807 445.38776318629414,94.31206295570803 442.5877631862941,95.212062955708 C 439.68776318629415,95.81206295570803 436.5877631862941,96.41206295570805 433.0877631862941,97.11206295570798 C 431.38776318629414,97.41206295570794 429.5877631862941,97.81206295570803 427.68776318629415,98.11206295570798 C 425.78776318629417,98.31206295570803 423.78776318629417,98.41206295570794 421.68776318629415,98.61206295570798 C 417.48776318629416,98.91206295570794 412.98776318629416,99.51206295570796 408.18776318629415,99.212062955708 C 403.28776318629417,99.01206295570796 398.0877631862941,99.11206295570798 392.48776318629416,98.212062955708 C 389.68776318629415,97.81206295570803 386.78776318629417,97.41206295570805 383.78776318629417,97.01206295570796 C 380.8877631862942,96.31206295570792 377.78776318629417,95.61206295570798 374.68776318629415,94.91206295570794 C 362.28776318629417,91.71206295570789 348.38776318629414,86.81206295570792 334.48776318629416,77.91206295570794 C 331.88776318629414,76.51206295570796 329.48776318629416,74.81206295570792 327.0877631862942,73.11206295570798 L 319.78776318629417,68.11206295570798 L 312.98776318629416,62.612062955707984 L 309.48776318629416,59.91206295570794 C 308.38776318629414,59.01206295570796 307.38776318629414,57.91206295570794 306.28776318629417,56.91206295570794 C 303.8877631862942,54.612062955707984 301.3877631862942,52.312062955707916 299.0877631862942,50.112062955707984 C 297.0877631862942,47.612062955707984 295.1877631862942,45.31206295570803 293.3877631862942,43.112062955707984 C 289.6877631862942,38.91206295570794 287.78776318629417,34.81206295570803 286.6877631862942,32.71206295570801 C 285.4877631862942,30.112062955707984 284.2877631862942,27.712062955708006 283.8877631862942,25.31206295570803 C 283.4877631862942,22.81206295570803 283.28776318629417,20.612062955707984 283.28776318629417,18.712062955708006 C 283.3877631862942,14.81206295570803 284.48776318629416,12.31206295570803 286.3877631862942,11.912062955708052 C 288.28776318629417,11.412062955708052 290.6877631862942,13.012062955708075 292.9877631862942,15.712062955708006 C 294.08776318629424,17.112062955707984 295.1877631862942,18.712062955708006 296.1877631862942,20.612062955707984 C 297.2877631862943,22.412062955708393 298.6877631862943,24.31206295570837 299.6877631862943,26.512062955708302 M 219.98776318629433,123.9120629557084 C 220.98776318629433,122.01206295570842 223.18776318629432,118.61206295570844 226.78776318629434,115.31206295570837 C 230.28776318629428,111.9120629557084 235.0877631862943,108.61206295570832 240.3877631862943,106.4120629557084 C 249.68776318629432,102.51206295570842 259.2877631862943,101.01206295570842 268.8877631862943,100.61206295570844 C 282.3877631862943,100.01206295570842 293.98776318629433,102.61206295570844 303.98776318629433,105.01206295570842 C 313.98776318629433,107.51206295570842 322.48776318629433,109.9120629557084 329.98776318629433,111.51206295570842 C 345.08776318629435,114.9120629557084 355.8877631862943,116.31206295570837 363.3877631862943,117.4120629557084 C 370.98776318629433,118.31206295570837 375.3877631862943,118.9120629557084 377.8877631862943,119.21206295570835 C 380.3877631862943,119.5120629557083 380.98776318629433,119.71206295570835 380.98776318629433,119.71206295570835 C 380.98776318629433,119.71206295570835 380.3877631862943,119.81206295570837 377.8877631862943,119.9120629557084 C 375.3877631862943,120.01206295570842 370.8877631862943,120.11206295570844 363.1877631862943,119.71206295570835 C 355.48776318629433,119.31206295570837 344.48776318629433,118.4120629557084 329.1877631862943,115.5120629557083 C 321.48776318629433,114.11206295570832 312.78776318629434,111.91206295570828 302.8877631862943,109.61206295570832 C 292.98776318629433,107.5120629557083 281.7877631862943,105.11206295570832 269.0877631862943,105.81206295570837 C 260.0877631862943,106.31206295570837 251.18776318629432,109.11206295570832 244.78776318629428,114.31206295570837 C 241.18776318629426,117.21206295570835 238.28776318629428,120.71206295570835 236.28776318629428,123.71206295570835 C 234.3877631862943,126.71206295570835 233.28776318629428,129.31206295570837 232.5877631862943,130.5120629557083 C 230.98776318629427,133.5120629557083 229.48776318629427,136.21206295570835 227.8877631862943,138.31206295570826 C 226.28776318629434,140.41206295570828 224.5877631862943,142.0120629557083 222.5877631862943,142.1120629557082 C 220.68776318629432,142.1120629557082 218.68776318629432,140.31206295570826 217.8877631862943,136.91206295570817 C 217.18776318629432,133.31206295570837 217.5877631862943,128.4120629557084 219.98776318629433,123.9120629557084 M 352.7877631862943,46.5120629557083 C 353.4877631862943,47.612062955708325 354.4877631862943,50.112062955708325 355.7877631862943,53.112062955708325 C 356.5877631862943,54.5120629557083 357.4877631862943,56.112062955708325 358.3877631862943,57.81206295570837 C 358.8877631862943,58.71206295570835 359.2877631862943,59.512062955708416 359.7877631862943,60.41206295570839 C 360.3877631862943,61.21206295570835 360.9877631862943,62.012062955708416 361.5877631862943,62.91206295570839 C 362.6877631862943,64.4120629557084 363.7877631862943,65.9120629557084 364.8877631862943,67.31206295570837 C 366.1877631862943,68.71206295570835 367.5877631862943,69.9120629557084 368.8877631862943,71.21206295570835 C 371.5877631862943,73.9120629557084 374.8877631862943,75.71206295570835 378.1877631862943,77.71206295570835 C 387.5877631862943,82.71206295570835 396.8877631862943,85.4120629557084 405.0877631862943,87.21206295570835 C 413.3877631862943,88.61206295570832 420.7877631862943,89.4120629557084 427.2877631862943,89.4120629557084 C 440.18776318629426,89.51206295570842 449.2877631862943,88.11206295570844 455.5877631862943,86.9120629557084 C 461.9877631862943,85.81206295570837 465.4877631862943,84.71206295570835 467.5877631862943,84.31206295570837 C 469.6877631862943,83.9120629557084 470.1877631862943,83.81206295570837 470.1877631862943,83.81206295570837 C 470.1877631862943,83.81206295570837 469.78776318629434,84.11206295570832 467.78776318629434,84.9120629557084 C 465.78776318629434,85.71206295570835 462.38776318629436,87.31206295570837 456.08776318629435,89.01206295570842 C 449.78776318629434,90.81206295570837 440.58776318629435,92.81206295570837 427.28776318629434,93.21206295570846 C 420.58776318629435,93.51206295570842 412.98776318629433,92.9120629557085 404.28776318629434,91.61206295570844 C 395.6877631862943,89.9120629557084 385.88776318629436,87.21206295570846 375.88776318629436,82.01206295570842 C 372.38776318629436,79.9120629557084 368.6877631862944,78.21206295570846 365.38776318629436,75.9120629557084 L 360.1877631862944,72.71206295570835 C 358.58776318629435,71.5120629557083 356.88776318629436,70.31206295570837 355.2877631862944,69.11206295570832 C 354.2877631862944,68.41206295570828 353.3877631862944,67.71206295570835 352.3877631862944,67.0120629557083 C 351.5877631862944,66.21206295570835 350.68776318629443,65.41206295570828 349.8877631862944,64.71206295570835 C 348.2877631862944,63.112062955708325 346.68776318629443,61.612062955708325 345.2877631862944,60.31206295570837 C 342.7877631862944,57.41206295570839 340.9877631862944,54.81206295570837 340.1877631862944,53.41206295570839 C 339.6877631862944,52.61206295570844 339.2877631862944,51.71206295570835 338.88776318629436,50.91206295570839 C 338.58776318629435,50.012062955708416 338.38776318629436,49.11206295570844 338.1877631862944,48.31206295570837 C 337.88776318629436,46.612062955708325 337.7877631862944,45.012062955708416 337.88776318629436,43.612062955708325 C 338.08776318629435,40.81206295570837 339.1877631862944,38.81206295570837 341.08776318629435,38.21206295570835 C 342.98776318629433,37.612062955708325 345.1877631862944,38.31206295570837 347.28776318629434,39.81206295570837 C 348.28776318629434,40.612062955708325 349.28776318629434,41.612062955708325 350.1877631862943,42.71206295570835 C 350.5877631862943,43.31206295570837 351.0877631862943,43.91206295570839 351.3877631862943,44.612062955708325 C 351.98776318629433,45.21206295570835 352.3877631862943,45.81206295570837 352.7877631862943,46.5120629557083"/>
</svg>
