<?xml version="1.0" ?>
<svg xmlns="http://www.w3.org/2000/svg" xmlns:ev="http://www.w3.org/2001/xml-events" xmlns:xlink="http://www.w3.org/1999/xlink" baseProfile="full" enable-background="new 0 0 1000 1000" height="227" id="Layer_1" transform="scale(0.44052863436123346 0.44052863436123346) translate(-423.5 -113.5)" version="1.1" viewBox="0 0 847 227" width="847" x="0px" xml:space="preserve" y="0px">
	<defs/>
	<path d="M 419.9000000000001,164.58050614670407 C 423.5000000000001,158.7805061467041 429.4000000000001,146.7805061467041 430.5000000000001,130.6805061467041 C 431.80000000000007,114.48050614670404 427.4000000000001,95.78050614670411 418.10000000000014,80.08050614670407 C 410.10000000000014,66.28050614670406 399.5000000000001,54.280506146704056 387.20000000000016,44.480506146704045 C 374.90000000000015,34.68050614670403 361.20000000000016,26.980506146704045 346.90000000000015,20.880506146704022 C 326.90000000000015,12.380506146704022 307.00000000000017,7.5805061467040105 288.20000000000016,4.5805061467040105 C 285.8000000000002,4.180506146704033 283.50000000000017,3.780506146703999 281.20000000000016,3.380506146704022 C 278.90000000000015,3.0805061467040105 276.50000000000017,2.880506146704022 274.20000000000016,2.5805061467040105 C 269.60000000000014,2.0805061467040105 265.10000000000014,1.5805061467040105 260.60000000000014,1.0805061467040105 C 256.10000000000014,0.8805061467040218 251.70000000000016,0.5805061467040105 247.40000000000015,0.38050614670402183 C 243.10000000000014,0.08050614670401046 238.80000000000013,-0.11949385329597817 234.60000000000014,0.08050614670401046 C 200.90000000000015,-0.019493853296012276 171.70000000000016,4.5805061467040105 147.00000000000017,10.780506146703999 C 97.50000000000016,23.58050614670401 65.80000000000014,41.48050614670399 44.80000000000014,54.98050614670399 C 39.60000000000015,58.48050614670399 35.00000000000014,61.680506146703976 30.900000000000134,64.48050614670399 C 27.000000000000128,67.58050614670401 23.500000000000128,70.280506146704 20.400000000000134,72.68050614670398 C 14.20000000000013,77.38050614670396 10.20000000000013,81.280506146704 7.200000000000131,84.08050614670395 C 1.2000000000001307,89.58050614670395 1.2789769243681803e-13,90.98050614670393 1.2789769243681803e-13,90.98050614670393 C 1.2789769243681803e-13,90.98050614670393 1.6000000000001222,89.98050614670393 8.100000000000122,85.08050614670395 C 11.40000000000012,82.68050614670398 15.700000000000117,79.08050614670395 22.100000000000122,74.88050614670396 C 25.300000000000125,72.68050614670398 28.90000000000012,70.28050614670394 32.90000000000012,67.48050614670399 C 37.10000000000012,64.88050614670396 41.80000000000011,61.98050614670399 47.10000000000012,58.780506146704 C 68.40000000000013,46.48050614670399 100.10000000000012,29.980506146703988 148.80000000000013,18.480506146703988 C 173.10000000000014,12.880506146703965 201.60000000000014,8.880506146703965 234.4000000000001,9.380506146703965 C 238.5000000000001,9.280506146703942 242.7000000000001,9.580506146703954 246.9000000000001,9.880506146703965 C 251.10000000000008,10.180506146703976 255.4000000000001,10.380506146703965 259.80000000000007,10.680506146703976 C 264.1000000000001,11.180506146703976 268.50000000000006,11.780506146703999 273.00000000000006,12.280506146703999 C 275.20000000000005,12.58050614670401 277.50000000000006,12.880506146704022 279.70000000000005,13.08050614670401 C 281.90000000000003,13.480506146703988 284.20000000000005,13.880506146704022 286.50000000000006,14.280506146703999 C 304.80000000000007,17.280506146704 323.90000000000003,22.180506146703976 342.80000000000007,30.180506146703976 C 356.30000000000007,35.98050614670399 368.80000000000007,43.780506146704 379.1000000000001,53.580506146703954 C 389.30000000000007,63.380506146703965 397.2000000000001,75.18050614670398 401.7000000000001,87.68050614670398 C 407.0000000000001,101.88050614670402 407.4000000000001,116.68050614670398 404.9000000000001,127.280506146704 C 402.4000000000001,138.08050614670395 397.5000000000001,145.68050614670398 395.1000000000001,149.48050614670404 C 389.2000000000001,158.780506146704 382.80000000000007,166.1805061467041 377.4000000000001,171.6805061467041 C 372.1000000000001,177.2805061467041 367.6000000000001,181.58050614670407 368.30000000000007,185.58050614670407 C 368.9000000000001,189.2805061467041 375.80000000000007,192.1805061467041 386.70000000000005,189.7805061467041 C 397.6,187.48050614670404 411.20000000000005,178.58050614670407 419.9000000000001,164.58050614670407 M 309.20000000000005,134.6805061467041 C 309.1,128.7805061467041 308.20000000000005,119.68050614670409 302.6,110.48050614670404 C 297.1,101.38050614670402 288.20000000000005,92.78050614670406 275.70000000000005,87.68050614670403 C 263.30000000000007,82.48050614670404 248.50000000000006,82.48050614670404 235.00000000000006,86.48050614670404 C 228.30000000000007,88.68050614670403 221.70000000000005,91.58050614670407 215.80000000000007,95.78050614670406 C 212.70000000000005,97.68050614670403 210.10000000000008,100.28050614670411 207.30000000000007,102.58050614670407 C 204.80000000000007,105.28050614670411 202.20000000000005,107.78050614670411 200.20000000000005,110.98050614670404 C 196.30000000000007,116.08050614670407 193.70000000000005,122.280506146704 191.80000000000007,128.58050614670407 L 190.00000000000006,137.2805061467041 C 189.60000000000008,140.2805061467041 189.20000000000005,143.1805061467041 188.90000000000003,146.1805061467041 C 188.10000000000002,158.1805061467041 189.8,170.88050614670414 195.50000000000006,181.98050614670404 C 198.40000000000003,187.58050614670407 202.20000000000005,192.48050614670404 206.60000000000008,196.88050614670402 C 211.10000000000008,201.18050614670398 216.2000000000001,204.68050614670398 221.50000000000006,207.68050614670398 C 232.30000000000007,213.280506146704 244.20000000000005,216.38050614670402 256.20000000000005,217.08050614670395 C 272.90000000000003,218.08050614670395 289.40000000000003,214.98050614670393 303.6,208.08050614670395 C 317.8,201.280506146704 330.0,190.3805061467039 337.3,177.48050614670393 C 341.2,171.3805061467039 344.2,164.8805061467039 347.0,158.3805061467039 C 349.5,151.78050614670389 351.6,145.08050614670395 352.8,138.28050614670389 C 355.2,124.68050614670386 354.40000000000003,110.88050614670391 350.40000000000003,98.38050614670391 C 346.50000000000006,85.88050614670391 339.70000000000005,74.98050614670393 331.50000000000006,65.98050614670393 C 323.30000000000007,56.98050614670393 313.80000000000007,49.88050614670391 304.00000000000006,44.38050614670391 C 284.20000000000005,33.48050614670393 263.30000000000007,28.68050614670392 244.00000000000006,27.68050614670392 C 205.70000000000005,25.98050614670393 173.20000000000005,30.48050614670393 146.30000000000007,36.5805061467039 C 119.40000000000008,42.88050614670391 97.90000000000008,50.780506146703885 80.6000000000001,58.280506146703885 C 63.400000000000105,65.78050614670389 50.400000000000105,72.88050614670391 40.5000000000001,78.88050614670391 C 30.5000000000001,84.78050614670389 23.700000000000102,89.78050614670389 18.600000000000094,93.18050614670392 C 8.800000000000097,100.48050614670393 6.700000000000088,102.38050614670391 6.700000000000088,102.38050614670391 C 6.700000000000088,102.38050614670391 9.200000000000088,100.98050614670393 19.40000000000009,94.38050614670391 C 24.700000000000088,91.38050614670391 31.700000000000088,86.78050614670389 41.900000000000105,81.38050614670391 C 52.0000000000001,75.88050614670391 65.20000000000012,69.38050614670391 82.4000000000001,62.48050614670393 C 99.6000000000001,55.580506146703954 121.0000000000001,48.38050614670391 147.60000000000008,42.78050614670394 C 174.2000000000001,37.380506146703965 206.2000000000001,33.580506146703954 243.5000000000001,35.68050614670392 C 261.8000000000001,36.88050614670391 281.4000000000001,41.68050614670392 299.7000000000001,51.98050614670393 C 308.8000000000001,57.18050614670392 317.4000000000001,63.78050614670394 324.8000000000001,71.98050614670393 C 332.2000000000001,80.18050614670392 338.10000000000014,90.08050614670395 341.5000000000001,101.18050614670398 C 344.9000000000001,112.280506146704 345.60000000000014,124.48050614670393 343.3000000000001,136.68050614670398 C 342.2000000000001,142.780506146704 340.3000000000001,148.88050614670402 338.0000000000001,154.88050614670402 C 335.4000000000001,160.780506146704 332.60000000000014,166.780506146704 328.9000000000001,172.48050614670404 C 322.30000000000007,183.98050614670404 311.9000000000001,193.08050614670407 299.30000000000007,199.1805061467041 C 286.70000000000005,205.2805061467041 271.80000000000007,207.98050614670404 257.00000000000006,207.08050614670407 C 246.30000000000007,206.48050614670404 235.90000000000003,203.48050614670404 226.80000000000007,198.48050614670404 C 222.4000000000001,195.88050614670402 218.30000000000007,192.6805061467041 214.80000000000007,189.08050614670407 C 211.50000000000006,185.38050614670402 208.60000000000008,181.2805061467041 206.60000000000008,176.7805061467041 C 202.60000000000008,167.7805061467041 202.00000000000006,157.6805061467041 203.50000000000006,147.7805061467041 L 205.10000000000008,140.38050614670414 L 207.4000000000001,133.1805061467041 C 209.30000000000007,129.1805061467041 211.30000000000007,125.18050614670409 214.5000000000001,121.98050614670404 C 216.0000000000001,119.98050614670404 218.30000000000013,118.48050614670404 220.10000000000014,116.780506146704 C 222.30000000000013,115.38050614670402 224.20000000000016,113.780506146704 226.60000000000014,112.68050614670398 C 231.0000000000001,110.18050614670398 235.90000000000015,108.780506146704 240.60000000000014,107.780506146704 C 250.0000000000001,106.18050614670398 259.0000000000001,107.280506146704 265.20000000000016,110.88050614670402 C 271.50000000000017,114.18050614670398 275.8000000000002,119.58050614670407 277.8000000000002,123.68050614670398 C 280.00000000000017,127.98050614670393 279.9000000000002,131.780506146704 280.1000000000002,134.18050614670398 C 279.9000000000002,140.18050614670398 277.8000000000002,146.08050614670395 274.3000000000002,149.58050614670395 C 271.00000000000017,153.280506146704 266.70000000000016,155.280506146704 261.8000000000002,156.18050614670398 C 260.6000000000002,156.280506146704 259.4000000000002,156.38050614670402 258.20000000000016,156.58050614670395 C 257.00000000000017,156.780506146704 255.80000000000018,156.48050614670393 254.60000000000014,156.58050614670395 C 253.40000000000015,156.58050614670395 252.30000000000013,156.58050614670395 251.20000000000016,156.68050614670398 C 250.10000000000014,156.68050614670398 249.10000000000014,156.48050614670393 248.20000000000016,156.48050614670393 C 244.40000000000015,156.3805061467039 241.60000000000014,156.98050614670393 240.40000000000015,158.58050614670395 C 239.30000000000013,160.18050614670398 240.10000000000014,162.8805061467039 242.90000000000015,166.3805061467039 C 243.60000000000014,167.28050614670389 244.40000000000015,168.28050614670389 245.50000000000017,169.18050614670386 C 246.6000000000002,169.98050614670382 247.80000000000018,170.8805061467039 249.20000000000016,171.78050614670389 C 250.60000000000014,172.58050614670384 252.00000000000017,173.78050614670389 253.80000000000018,174.3805061467039 C 255.6000000000002,175.08050614670395 257.6000000000002,175.78050614670389 259.70000000000016,176.3805061467039 C 261.8000000000002,177.18050614670386 264.3000000000002,177.08050614670395 266.8000000000002,177.3805061467039 C 269.3000000000002,177.78050614670389 272.00000000000017,177.3805061467039 274.8000000000002,176.98050614670393 C 277.70000000000016,176.68050614670398 280.4000000000002,175.68050614670398 283.3000000000002,174.58050614670395 C 286.3000000000002,173.58050614670395 288.8000000000002,171.68050614670398 291.50000000000017,169.98050614670393 C 302.20000000000005,162.58050614670407 308.90000000000003,148.98050614670404 309.20000000000005,134.6805061467041 M 317.70000000000005,89.58050614670407 C 317.70000000000005,89.58050614670407 314.70000000000005,87.88050614670408 309.30000000000007,84.88050614670408 C 303.80000000000007,82.18050614670409 296.00000000000006,78.18050614670409 286.1000000000001,74.78050614670406 C 276.2000000000001,71.38050614670408 264.30000000000007,68.18050614670403 251.30000000000007,66.48050614670404 C 238.30000000000007,64.68050614670403 224.20000000000005,64.38050614670402 210.20000000000005,65.88050614670402 C 182.10000000000002,68.38050614670402 155.40000000000003,79.68050614670403 137.00000000000006,91.88050614670402 C 118.40000000000008,104.08050614670407 107.40000000000008,116.280506146704 104.50000000000007,119.48050614670404 C 94.70000000000006,130.1805061467041 87.30000000000008,138.280506146704 81.30000000000008,143.280506146704 C 75.30000000000008,148.280506146704 70.40000000000008,150.18050614670398 67.40000000000008,148.58050614670395 C 64.50000000000007,146.98050614670393 63.50000000000007,141.780506146704 66.10000000000007,133.58050614670395 C 68.70000000000006,125.48050614670393 75.10000000000007,114.38050614670391 87.10000000000007,103.280506146704 C 90.70000000000006,99.88050614670402 104.60000000000007,87.08050614670401 126.60000000000007,75.48050614670399 C 148.4000000000001,63.780506146704 179.10000000000002,54.380506146703965 209.30000000000007,54.680506146703976 C 224.30000000000007,54.580506146703954 239.10000000000008,56.380506146703965 252.4000000000001,59.580506146703954 C 265.7000000000001,62.78050614670394 277.6000000000001,67.18050614670398 287.30000000000007,71.68050614670398 C 297.1000000000001,76.18050614670398 304.50000000000006,80.88050614670396 309.70000000000005,84.18050614670398 C 314.90000000000003,87.58050614670407 317.70000000000005,89.58050614670407 317.70000000000005,89.58050614670407 M 197.70000000000005,83.78050614670406 C 197.70000000000005,83.78050614670406 195.80000000000007,84.78050614670406 192.60000000000002,86.58050614670407 C 189.40000000000003,88.48050614670404 184.90000000000003,91.18050614670409 179.8,95.08050614670407 C 169.7,102.68050614670409 157.60000000000002,114.78050614670411 149.10000000000002,129.2805061467041 C 140.3,143.58050614670407 135.70000000000005,159.98050614670416 134.20000000000005,172.88050614670414 C 132.70000000000005,185.88050614670414 133.70000000000005,195.48050614670416 134.00000000000006,197.98050614670416 C 134.90000000000003,206.48050614670416 134.60000000000002,212.88050614670414 133.20000000000005,217.6805061467042 C 131.8,222.48050614670416 129.20000000000005,225.58050614670418 125.80000000000003,226.48050614670416 C 122.50000000000001,227.2805061467041 118.60000000000004,225.7805061467041 115.40000000000002,221.1805061467042 C 112.20000000000003,216.6805061467042 109.60000000000001,208.98050614670416 110.10000000000001,198.78050614670423 C 110.2,195.6805061467042 110.8,184.08050614670418 115.10000000000001,169.28050614670423 C 119.3,154.58050614670418 127.7,136.98050614670427 139.8,122.98050614670427 C 151.60000000000002,108.78050614670423 166.29999999999995,98.28050614670428 177.89999999999998,92.28050614670428 C 183.7,89.18050614670426 188.7,87.28050614670428 192.2,85.8805061467043 C 195.70000000000005,84.48050614670404 197.70000000000005,83.78050614670406 197.70000000000005,83.78050614670406 M 426.30000000000007,164.58050614670407 C 422.70000000000005,158.7805061467041 416.80000000000007,146.7805061467041 415.70000000000005,130.6805061467041 C 414.40000000000003,114.48050614670404 418.80000000000007,95.78050614670411 428.1,80.08050614670407 C 436.1,66.28050614670406 446.70000000000005,54.280506146704056 459.0,44.480506146704045 C 471.29999999999995,34.68050614670403 485.0,26.980506146704045 499.29999999999995,20.880506146704022 C 519.3,12.380506146704022 539.1999999999999,7.5805061467040105 558.0,4.5805061467040105 C 560.4,4.180506146704033 562.7,3.780506146703999 565.0,3.380506146704022 C 567.3,3.0805061467040105 569.7,2.880506146704022 572.0,2.5805061467040105 C 576.6,2.0805061467040105 581.1,1.5805061467040105 585.6,1.0805061467040105 C 590.1,0.8805061467040218 594.5,0.5805061467040105 598.8000000000001,0.38050614670402183 C 603.1,0.08050614670401046 607.4000000000001,-0.11949385329597817 611.6,0.08050614670401046 C 645.3000000000001,-0.019493853296012276 674.5,4.5805061467040105 699.2,10.780506146703999 C 748.7,23.58050614670401 780.4000000000001,41.48050614670399 801.4000000000001,54.98050614670399 C 806.6000000000001,58.48050614670399 811.2,61.680506146703976 815.3000000000001,64.48050614670399 C 819.2,67.58050614670401 822.7,70.280506146704 825.8000000000001,72.68050614670398 C 832.0000000000001,77.38050614670396 836.0000000000001,81.280506146704 839.0000000000001,84.08050614670395 C 845.0000000000001,89.58050614670395 846.2000000000002,90.98050614670393 846.2000000000002,90.98050614670393 C 846.2000000000002,90.98050614670393 844.6000000000001,89.98050614670393 838.1000000000001,85.08050614670395 C 834.8000000000002,82.68050614670398 830.5000000000001,79.08050614670395 824.1000000000001,74.88050614670396 C 820.9000000000001,72.68050614670398 817.3000000000002,70.28050614670394 813.3000000000002,67.48050614670399 C 809.1000000000001,64.88050614670396 804.4000000000002,61.98050614670399 799.1000000000001,58.780506146704 C 777.8000000000002,46.48050614670399 746.1000000000001,29.980506146703988 697.4000000000001,18.480506146703988 C 673.1000000000001,12.880506146703965 644.6000000000001,8.880506146703965 611.8000000000001,9.380506146703965 C 607.7,9.280506146703942 603.5000000000001,9.580506146703954 599.3000000000001,9.880506146703965 C 595.1,10.180506146703976 590.8000000000001,10.380506146703965 586.4000000000001,10.680506146703976 C 582.1000000000001,11.180506146703976 577.7,11.780506146703999 573.2,12.280506146703999 C 571.0,12.58050614670401 568.7,12.880506146704022 566.5,13.08050614670401 C 564.3,13.480506146703988 562.0,13.880506146704022 559.7,14.280506146703999 C 541.4000000000001,17.280506146704 522.3000000000001,22.180506146703976 503.4000000000001,30.180506146703976 C 489.9000000000001,35.98050614670399 477.4000000000001,43.780506146704 467.10000000000014,53.580506146703954 C 456.9000000000001,63.380506146703965 449.0000000000001,75.18050614670398 444.5000000000001,87.68050614670398 C 439.20000000000016,101.88050614670402 438.80000000000007,116.68050614670398 441.30000000000007,127.280506146704 C 443.80000000000007,138.08050614670395 448.70000000000005,145.68050614670398 451.1,149.48050614670404 C 457.0,158.780506146704 463.4,166.1805061467041 468.80000000000007,171.6805061467041 C 474.1,177.2805061467041 478.6,181.58050614670407 477.9000000000001,185.58050614670407 C 477.30000000000007,189.2805061467041 470.4000000000001,192.1805061467041 459.5000000000001,189.7805061467041 C 448.6,187.48050614670404 435.1,178.58050614670407 426.30000000000007,164.58050614670407 M 537.1,134.6805061467041 C 537.2,128.7805061467041 538.1,119.68050614670409 543.7,110.48050614670404 C 549.2,101.38050614670402 558.1,92.78050614670406 570.6,87.68050614670403 C 583.0,82.48050614670404 597.8000000000001,82.48050614670404 611.3000000000001,86.48050614670404 C 618.0000000000001,88.68050614670403 624.6,91.58050614670407 630.5000000000001,95.78050614670406 C 633.6000000000001,97.68050614670403 636.2000000000002,100.28050614670411 639.0000000000001,102.58050614670407 C 641.5000000000001,105.28050614670411 644.1000000000001,107.78050614670411 646.1000000000001,110.98050614670404 C 650.0000000000001,116.08050614670407 652.6000000000001,122.280506146704 654.5000000000001,128.58050614670407 L 656.3000000000001,137.2805061467041 C 656.7,140.2805061467041 657.1,143.1805061467041 657.4000000000001,146.1805061467041 C 658.2,158.1805061467041 656.5000000000001,170.88050614670414 650.8000000000001,181.98050614670404 C 647.9000000000001,187.58050614670407 644.1,192.48050614670404 639.7,196.88050614670402 C 635.2,201.18050614670398 630.1,204.68050614670398 624.8000000000001,207.68050614670398 C 614.0000000000001,213.280506146704 602.1,216.38050614670402 590.1,217.08050614670395 C 573.4,218.08050614670395 556.9,214.98050614670393 542.7,208.08050614670395 C 528.5,201.280506146704 516.3000000000001,190.3805061467039 509.0,177.48050614670393 C 505.1,171.3805061467039 502.1,164.8805061467039 499.29999999999995,158.3805061467039 C 496.79999999999995,151.78050614670389 494.69999999999993,145.08050614670395 493.5,138.28050614670389 C 491.1,124.68050614670386 491.9,110.88050614670391 495.9,98.38050614670391 C 499.79999999999995,85.88050614670391 506.6,74.98050614670393 514.8,65.98050614670393 C 523.0,56.98050614670393 532.5,49.88050614670391 542.3,44.38050614670391 C 562.0999999999999,33.48050614670393 583.0,28.68050614670392 602.3,27.68050614670392 C 640.5999999999999,25.98050614670393 673.0999999999999,30.48050614670393 700.0,36.5805061467039 C 726.9,42.88050614670391 748.4,50.780506146703885 765.7,58.280506146703885 C 782.9000000000001,65.78050614670389 795.9000000000001,72.88050614670391 805.8000000000001,78.88050614670391 C 815.8000000000001,84.78050614670389 822.6,89.78050614670389 827.7,93.18050614670392 C 837.5,100.48050614670393 839.6,102.38050614670391 839.6,102.38050614670391 C 839.6,102.38050614670391 837.1,100.98050614670393 826.9,94.38050614670391 C 821.6,91.38050614670391 814.6,86.78050614670389 804.4,81.38050614670391 C 794.3,75.88050614670391 781.1,69.38050614670391 763.9,62.48050614670393 C 746.6999999999999,55.580506146703954 725.3,48.38050614670391 698.6999999999999,42.78050614670394 C 672.0999999999999,37.380506146703965 640.0999999999999,33.580506146703954 602.8,35.68050614670392 C 584.5,36.88050614670391 564.9,41.68050614670392 546.5999999999999,51.98050614670393 C 537.4999999999999,57.18050614670392 528.8999999999999,63.78050614670394 521.4999999999999,71.98050614670393 C 514.0999999999999,80.18050614670392 508.19999999999993,90.08050614670395 504.79999999999984,101.18050614670398 C 501.39999999999986,112.280506146704 500.6999999999998,124.48050614670393 502.9999999999999,136.68050614670398 C 504.0999999999999,142.780506146704 505.9999999999999,148.88050614670402 508.29999999999984,154.88050614670402 C 510.89999999999986,160.780506146704 513.6999999999998,166.780506146704 517.3999999999999,172.48050614670404 C 523.9999999999999,183.98050614670404 534.3999999999999,193.08050614670407 546.9999999999999,199.1805061467041 C 559.5999999999999,205.2805061467041 574.4999999999999,207.98050614670404 589.2999999999998,207.08050614670407 C 599.9999999999999,206.48050614670404 610.3999999999999,203.48050614670404 619.4999999999999,198.48050614670404 C 623.8999999999999,195.88050614670402 627.9999999999999,192.6805061467041 631.4999999999999,189.08050614670407 C 634.7999999999998,185.38050614670402 637.6999999999999,181.2805061467041 639.6999999999999,176.7805061467041 C 643.6999999999999,167.7805061467041 644.3,157.6805061467041 642.8,147.7805061467041 L 641.1999999999999,140.38050614670414 L 638.9,133.1805061467041 C 637.0,129.1805061467041 635.0,125.18050614670409 631.8,121.98050614670404 C 630.3,119.98050614670404 628.0,118.48050614670404 626.1999999999999,116.780506146704 C 623.9999999999999,115.38050614670402 622.0999999999999,113.780506146704 619.6999999999999,112.68050614670398 C 615.3,110.18050614670398 610.4,108.780506146704 605.6999999999999,107.780506146704 C 596.3,106.18050614670398 587.3,107.280506146704 581.0999999999999,110.88050614670402 C 574.8,114.18050614670398 570.4999999999999,119.58050614670407 568.4999999999999,123.68050614670398 C 566.2999999999998,127.98050614670393 566.3999999999999,131.780506146704 566.1999999999999,134.18050614670398 C 566.4,140.18050614670398 568.4999999999999,146.08050614670395 571.9999999999999,149.58050614670395 C 575.2999999999998,153.280506146704 579.5999999999999,155.280506146704 584.4999999999999,156.18050614670398 C 585.6999999999999,156.280506146704 586.8999999999999,156.38050614670402 588.0999999999999,156.58050614670395 C 589.3,156.780506146704 590.4999999999999,156.48050614670393 591.6999999999999,156.58050614670395 C 592.9,156.58050614670395 593.9999999999999,156.58050614670395 595.0999999999999,156.68050614670398 C 596.1999999999999,156.68050614670398 597.1999999999999,156.48050614670393 598.0999999999999,156.48050614670393 C 601.8999999999999,156.3805061467039 604.6999999999999,156.98050614670393 605.8999999999999,158.58050614670395 C 606.9999999999999,160.18050614670398 606.1999999999998,162.8805061467039 603.3999999999999,166.3805061467039 C 602.6999999999998,167.28050614670389 601.8999999999999,168.28050614670389 600.7999999999998,169.18050614670386 C 599.6999999999998,169.98050614670382 598.4999999999999,170.8805061467039 597.0999999999998,171.78050614670389 C 595.6999999999998,172.58050614670384 594.2999999999998,173.78050614670389 592.4999999999998,174.3805061467039 C 590.6999999999998,175.08050614670395 588.6999999999998,175.78050614670389 586.5999999999998,176.3805061467039 C 584.4999999999998,177.18050614670386 581.9999999999998,177.08050614670395 579.4999999999998,177.3805061467039 C 576.9999999999998,177.78050614670389 574.2999999999997,177.3805061467039 571.4999999999998,176.98050614670393 C 568.5999999999998,176.68050614670398 565.8999999999997,175.68050614670398 562.9999999999998,174.58050614670395 C 559.9999999999998,173.58050614670395 557.4999999999998,171.68050614670398 554.7999999999997,169.98050614670393 C 544.1,162.58050614670407 537.3000000000001,148.98050614670404 537.1,134.6805061467041 M 528.5,89.58050614670407 C 528.5,89.58050614670407 531.5,87.88050614670408 536.9,84.88050614670408 C 542.4,82.18050614670409 550.1999999999999,78.18050614670409 560.1,74.78050614670406 C 570.0,71.38050614670408 581.9,68.18050614670403 594.9,66.48050614670404 C 607.9,64.68050614670403 622.0,64.38050614670402 636.0,65.88050614670402 C 664.1,68.38050614670402 690.8,79.68050614670403 709.2,91.88050614670402 C 727.8000000000001,104.08050614670407 738.8000000000001,116.280506146704 741.7,119.48050614670404 C 751.5,130.1805061467041 758.9000000000001,138.280506146704 764.9000000000001,143.280506146704 C 770.9000000000001,148.280506146704 775.8000000000001,150.18050614670398 778.8000000000001,148.58050614670395 C 781.7,146.98050614670393 782.7,141.780506146704 780.1,133.58050614670395 C 777.5,125.48050614670393 771.1,114.38050614670391 759.1,103.280506146704 C 755.5,99.88050614670402 741.6,87.08050614670401 719.6,75.48050614670399 C 697.8000000000001,63.780506146704 667.1,54.380506146703965 636.9,54.680506146703976 C 621.9,54.580506146703954 607.1,56.380506146703965 593.8,59.580506146703954 C 580.5,62.78050614670394 568.5999999999999,67.18050614670398 558.9,71.68050614670398 C 549.1,76.18050614670398 541.6999999999999,80.88050614670396 536.5,84.18050614670398 C 531.3000000000001,87.58050614670407 528.5,89.58050614670407 528.5,89.58050614670407 M 648.5,83.78050614670406 C 648.5,83.78050614670406 650.4,84.78050614670406 653.6,86.58050614670407 C 656.8000000000001,88.48050614670404 661.3000000000001,91.18050614670409 666.4,95.08050614670407 C 676.5,102.68050614670409 688.6,114.78050614670411 697.1,129.2805061467041 C 705.9,143.58050614670407 710.5,159.98050614670416 712.0,172.88050614670414 C 713.5,185.88050614670414 712.5,195.48050614670416 712.2,197.98050614670416 C 711.3000000000001,206.48050614670416 711.6,212.88050614670414 713.0,217.6805061467042 C 714.4,222.48050614670416 717.0,225.58050614670418 720.4,226.48050614670416 C 723.6999999999999,227.2805061467041 727.6,225.7805061467041 730.8,221.1805061467042 C 734.0,216.6805061467042 736.5999999999999,208.98050614670416 736.0999999999999,198.78050614670423 C 735.9999999999999,195.6805061467042 735.3999999999999,184.08050614670418 731.0999999999999,169.28050614670423 C 726.8999999999999,154.58050614670418 718.4999999999999,136.98050614670427 706.3999999999999,122.98050614670427 C 694.5999999999999,108.78050614670423 679.8999999999999,98.28050614670428 668.2999999999998,92.28050614670428 C 662.4999999999999,89.18050614670426 657.4999999999999,87.28050614670428 653.9999999999999,85.8805061467043 C 650.5,84.48050614670404 648.5,83.78050614670406 648.5,83.78050614670406"/>
</svg>
