<?xml version="1.0" ?>
<svg xmlns="http://www.w3.org/2000/svg" xmlns:ev="http://www.w3.org/2001/xml-events" xmlns:xlink="http://www.w3.org/1999/xlink" baseProfile="full" enable-background="new 0 0 1000 1000" height="294" id="Layer_1" transform="scale(0.3401360544217687 0.3401360544217687) translate(-424.0 -147.0)" version="1.1" viewBox="0 0 848 294" width="848" x="0px" xml:space="preserve" y="0px">
	<defs/>
	<path d="M 118.50789636096601,191.05190648441163 C 121.50789636096601,190.65190648441165 126.00789636096601,190.15190648441165 131.50789636096601,191.05190648441163 C 137.00789636096601,192.15190648441165 143.607896360966,194.75190648441168 149.207896360966,200.15190648441165 C 152.00789636096601,202.75190648441168 154.607896360966,206.05190648441163 156.407896360966,209.8519064844117 C 157.307896360966,211.75190648441168 158.10789636096598,213.8519064844117 158.707896360966,215.95190648441172 C 159.207896360966,218.25190648441168 159.50789636096601,220.8519064844117 160.00789636096601,223.3519064844117 C 161.107896360966,233.3519064844117 159.107896360966,243.95190648441172 152.50789636096601,252.95190648441172 C 141.20789636096603,269.05190648441163 118.80789636096603,278.7519064844117 96.80789636096603,279.3519064844116 C 74.60789636096604,280.25190648441156 52.50789636096603,269.75190648441156 37.40789636096602,252.9519064844116 C 26.607896360966024,241.25190648441156 19.707896360966018,226.8519064844116 15.40789636096602,212.3519064844116 C 11.40789636096602,197.65190648441154 10.307896360966026,182.65190648441154 11.707896360966018,168.4519064844116 C 13.107896360966024,154.15190648441165 17.207896360966018,140.75190648441162 24.007896360966015,129.25190648441162 C 30.707896360966018,117.75190648441162 39.80789636096601,108.25190648441162 50.10789636096601,100.85190648441164 C 70.707896360966,86.25190648441162 95.00789636096601,79.95190648441167 117.30789636096603,79.45190648441167 C 139.70789636096603,78.95190648441167 160.70789636096603,83.35190648441164 178.50789636096601,91.45190648441167 C 196.407896360966,99.45190648441167 211.30789636096603,110.25190648441168 224.707896360966,120.85190648441164 C 238.10789636096598,131.45190648441167 250.10789636096598,142.05190648441163 262.307896360966,150.55190648441163 C 274.40789636096605,159.15190648441165 286.807896360966,165.55190648441163 298.90789636096605,169.05190648441163 C 302.0078963609661,169.75190648441168 305.0078963609661,170.4519064844116 307.90789636096605,171.15190648441165 C 310.807896360966,171.8519064844117 313.807896360966,171.75190648441168 316.60789636096604,172.05190648441163 C 322.307896360966,172.75190648441168 327.60789636096604,172.25190648441168 332.70789636096606,172.05190648441163 C 353.0078963609661,170.9519064844116 368.5078963609661,165.55190648441163 379.5078963609661,159.75190648441168 C 390.6078963609661,153.8519064844117 397.3078963609661,147.3519064844117 401.5078963609661,142.3519064844117 C 405.70789636096606,137.3519064844117 407.6078963609661,133.6519064844117 408.70789636096606,131.5519064844117 C 409.8078963609661,129.3519064844117 409.90789636096605,128.6519064844117 409.90789636096605,128.6519064844117 C 409.90789636096605,128.6519064844117 409.60789636096604,129.3519064844117 408.307896360966,131.3519064844117 C 407.007896360966,133.3519064844117 404.807896360966,136.75190648441168 400.307896360966,141.3519064844117 C 395.807896360966,145.95190648441172 389.007896360966,151.8519064844117 378.007896360966,157.05190648441175 C 367.10789636096604,162.15190648441177 352.007896360966,166.7519064844118 332.307896360966,167.15190648441177 C 327.40789636096605,167.15190648441177 322.207896360966,167.45190648441172 316.90789636096605,166.65190648441177 C 314.307896360966,166.2519064844118 311.5078963609661,166.2519064844118 308.807896360966,165.65190648441177 C 306.10789636096604,164.95190648441172 303.307896360966,164.2519064844118 300.507896360966,163.45190648441172 C 289.307896360966,159.8519064844117 277.807896360966,153.55190648441175 266.307896360966,145.05190648441175 C 254.707896360966,136.55190648441175 243.00789636096601,125.85190648441176 229.60789636096604,114.85190648441176 C 216.20789636096606,103.85190648441176 200.90789636096605,92.25190648441173 182.00789636096604,83.55190648441175 C 163.20789636096603,74.75190648441173 140.90789636096605,69.65190648441177 117.00789636096604,69.95190648441172 C 93.20789636096603,70.3519064844117 67.00789636096604,76.65190648441171 44.10789636096604,92.55190648441175 C -3.8921036390339623,123.05190648441175 -18.19210363903396,205.55190648441175 28.907896360966035,260.65190648441177 C 37.407896360966035,270.15190648441177 47.807896360966026,278.15190648441177 59.307896360966026,283.7519064844118 C 70.70789636096603,289.55190648441175 83.80789636096603,292.65190648441177 96.60789636096604,293.05190648441175 C 109.40789636096605,293.4519064844117 122.30789636096603,291.55190648441175 134.60789636096604,287.2519064844118 C 146.80789636096603,282.95190648441184 158.60789636096604,276.05190648441175 167.90789636096605,265.8519064844118 C 178.90789636096605,254.45190648441184 184.70789636096606,237.8519064844118 184.60789636096604,222.65190648441177 C 184.40789636096605,218.8519064844118 184.40789636096605,215.15190648441177 183.90789636096605,211.45190648441172 C 183.30789636096605,207.55190648441175 182.40789636096605,203.8519064844117 181.20789636096606,200.15190648441177 C 178.70789636096606,192.95190648441172 174.80789636096605,186.45190648441172 170.20789636096606,181.05190648441175 C 165.60789636096607,175.65190648441177 160.40789636096605,171.3519064844117 155.00789636096607,167.95190648441172 C 149.60789636096607,164.65190648441177 144.10789636096607,162.45190648441172 138.80789636096608,160.95190648441172 C 128.30789636096608,158.05190648441175 119.20789636096609,158.55190648441175 113.1078963609661,159.45190648441172 C 97.9078963609661,161.95190648441172 85.5078963609661,170.8519064844117 78.1078963609661,180.75190648441168 C 70.6078963609661,190.65190648441165 67.30789636096608,201.45190648441172 66.9078963609661,210.45190648441172 C 66.5078963609661,219.45190648441172 68.5078963609661,226.55190648441175 71.20789636096612,230.8519064844117 C 73.9078963609661,235.15190648441165 76.70789636096612,236.65190648441165 78.70789636096612,236.05190648441175 C 83.10789636096612,234.65190648441177 83.70789636096612,225.55190648441175 89.10789636096612,215.3519064844117 C 94.10789636096604,204.9519064844116 105.10789636096604,193.15190648441165 118.50789636096601,191.05190648441163 M 87.60789636096604,141.4519064844116 C 92.90789636096605,138.05190648441163 103.20789636096603,131.4519064844116 118.00789636096604,127.25190648441162 C 125.40789636096605,125.35190648441164 133.90789636096605,123.6519064844116 142.90789636096605,123.85190648441164 C 151.90789636096605,123.95190648441167 161.60789636096604,125.15190648441165 170.80789636096605,128.15190648441165 C 187.20789636096606,133.55190648441163 202.70789636096606,144.75190648441168 218.70789636096606,156.05190648441163 C 234.80789636096608,167.55190648441163 252.00789636096607,177.9519064844116 270.40789636096605,186.25190648441168 C 283.20789636096606,192.05190648441163 296.40789636096605,196.3519064844117 309.5078963609661,198.95190648441172 C 322.8078963609661,201.55190648441175 336.0078963609661,201.95190648441172 348.6078963609661,200.65190648441177 C 373.8078963609661,197.95190648441172 397.1078963609661,188.45190648441172 413.9078963609661,172.95190648441172 C 422.3078963609661,165.15190648441177 428.8078963609661,156.05190648441175 433.6078963609661,146.45190648441172 C 435.7078963609661,141.55190648441175 437.8078963609661,136.6519064844117 438.9078963609661,131.6519064844117 C 440.50789636096613,126.75190648441173 441.00789636096613,121.65190648441171 441.7078963609661,116.65190648441171 C 443.1078963609661,96.55190648441169 437.00789636096613,77.65190648441171 426.1078963609661,64.05190648441169 C 415.4078963609661,50.25190648441168 400.0078963609661,41.951906484411666 385.1078963609661,40.15190648441171 C 381.3078963609661,39.95190648441172 377.7078963609661,39.45190648441172 374.1078963609661,39.95190648441172 C 372.3078963609661,40.15190648441171 370.5078963609661,40.15190648441171 368.8078963609661,40.45190648441172 C 367.1078963609661,40.8519064844117 365.4078963609661,41.251906484411734 363.70789636096606,41.551906484411745 C 356.90789636096605,42.751906484411734 350.5078963609661,46.551906484411745 345.8078963609661,50.751906484411734 C 336.20789636096606,59.35190648441176 331.3078963609661,70.65190648441171 330.1078963609661,81.15190648441171 C 328.8078963609661,91.75190648441173 332.1078963609661,101.45190648441172 336.4078963609661,108.65190648441171 C 345.50789636096613,123.15190648441171 359.2078963609661,129.5519064844117 369.8078963609661,129.45190648441172 C 380.5078963609661,129.1519064844117 387.4078963609661,124.3519064844117 390.70789636096606,120.15190648441171 C 394.10789636096604,115.75190648441173 394.3078963609661,112.15190648441171 394.5078963609661,110.25190648441173 C 394.5078963609661,108.25190648441173 394.40789636096605,107.65190648441171 394.40789636096605,107.65190648441171 C 394.40789636096605,107.65190648441171 394.307896360966,108.25190648441173 394.0078963609661,110.15190648441171 C 393.5078963609661,111.95190648441172 392.90789636096605,115.3519064844117 389.40789636096605,119.05190648441169 C 386.0078963609661,122.65190648441171 379.307896360966,126.55190648441169 369.70789636096606,126.25190648441168 C 360.40789636096605,125.8519064844117 348.3078963609661,119.45190648441167 340.60789636096604,106.05190648441169 C 337.007896360966,99.3519064844117 334.507896360966,91.05190648441169 335.90789636096605,81.8519064844117 C 337.20789636096606,72.8519064844117 341.90789636096605,63.15190648441171 350.20789636096606,56.05190648441169 C 354.5078963609661,52.55190648441169 359.20789636096606,49.8519064844117 365.10789636096604,48.8519064844117 C 366.60789636096604,48.55190648441169 368.10789636096604,48.25190648441168 369.60789636096604,47.95190648441172 C 371.10789636096604,47.751906484411734 372.70789636096606,47.751906484411734 374.20789636096606,47.65190648441171 C 377.3078963609661,47.251906484411734 380.5078963609661,47.8519064844117 383.70789636096606,48.05190648441169 C 396.5078963609661,49.951906484411666 409.60789636096604,57.25190648441168 418.8078963609661,69.55190648441169 C 428.20789636096606,81.55190648441169 433.3078963609661,98.3519064844117 431.8078963609661,115.8519064844117 C 431.1078963609661,120.15190648441171 430.70789636096606,124.65190648441171 429.20789636096606,129.0519064844117 C 428.20789636096606,133.5519064844117 426.20789636096606,137.75190648441168 424.3078963609661,142.1519064844117 C 420.0078963609661,150.55190648441175 414.20789636096606,158.55190648441175 406.70789636096606,165.3519064844117 C 391.60789636096604,178.95190648441172 370.40789636096605,187.55190648441175 347.3078963609661,189.8519064844117 C 335.70789636096606,190.95190648441172 323.5078963609661,190.55190648441175 311.5078963609661,188.05190648441175 C 299.3078963609661,185.55190648441175 287.0078963609661,181.45190648441172 274.90789636096605,175.95190648441172 C 257.5078963609661,168.05190648441175 241.50789636096607,157.3519064844117 226.80789636096603,145.15190648441177 C 212.00789636096601,132.95190648441178 197.30789636096603,119.25190648441179 178.60789636096604,109.65190648441177 C 167.80789636096603,104.15190648441177 156.20789636096603,100.85190648441176 144.80789636096603,99.05190648441175 C 133.40789636096602,97.15190648441177 122.30789636096603,97.75190648441173 112.30789636096603,99.05190648441175 C 92.30789636096603,101.95190648441172 77.30789636096603,109.45190648441172 70.10789636096604,114.05190648441175 C 61.20789636096603,119.35190648441176 54.20789636096603,126.55190648441175 48.50789636096604,133.35190648441176 C 45.90789636096605,136.95190648441178 43.40789636096605,140.45190648441178 41.50789636096604,143.85190648441176 C 39.707896360966046,147.45190648441172 38.10789636096604,150.65190648441177 37.00789636096604,153.8519064844118 C 36.00789636096604,157.05190648441186 35.30789636096604,160.05190648441186 34.80789636096604,162.65190648441177 C 34.30789636096604,165.2519064844118 34.407896360966035,167.7519064844118 34.60789636096604,169.65190648441177 C 35.00789636096604,173.65190648441177 36.20789636096603,176.05190648441175 38.30789636096604,176.8519064844118 C 40.407896360966035,177.65190648441177 43.10789636096604,176.7519064844118 46.10789636096604,174.7519064844118 C 47.60789636096604,173.7519064844118 49.10789636096604,172.3519064844118 50.907896360966035,170.95190648441184 C 52.70789636096603,169.55190648441186 54.60789636096604,167.8519064844118 56.50789636096603,165.95190648441184 C 58.50789636096603,164.15190648441188 60.807896360966026,162.2519064844118 62.90789636096602,160.15190648441188 C 65.20789636096603,158.15190648441188 67.60789636096601,156.15190648441188 70.20789636096603,153.95190648441184 C 75.50789636096601,149.9519064844116 81.00789636096601,145.3519064844116 87.60789636096604,141.4519064844116 M 335.40789636096605,147.75190648441168 C 335.40789636096605,147.75190648441168 333.807896360966,146.55190648441163 331.10789636096604,144.45190648441167 C 328.307896360966,142.35190648441164 324.507896360966,139.15190648441165 320.007896360966,135.0519064844117 C 311.10789636096604,126.75190648441168 299.907896360966,114.3519064844117 290.907896360966,99.65190648441171 C 281.707896360966,85.15190648441171 274.507896360966,68.65190648441171 270.30789636096597,54.8519064844117 C 266.20789636096595,41.05190648441169 264.407896360966,30.251906484411677 264.107896360966,27.3519064844117 C 263.407896360966,22.55190648441169 263.607896360966,18.15190648441171 264.607896360966,14.551906484411688 C 265.50789636096596,10.8519064844117 267.00789636096596,7.951906484411666 269.00789636096596,5.651906484411711 C 272.90789636096594,1.151906484411711 278.107896360966,-0.5480935155882776 283.107896360966,0.15190648441171106 C 288.107896360966,0.8519064844116997 292.707896360966,3.751906484411734 295.707896360966,8.051906484411688 C 297.107896360966,10.251906484411677 298.307896360966,12.8519064844117 299.007896360966,15.751906484411677 C 299.307896360966,17.251906484411677 299.507896360966,18.8519064844117 299.60789636096604,20.55190648441169 C 299.70789636096606,22.251906484411677 299.70789636096606,24.05190648441169 299.60789636096604,25.951906484411666 C 299.307896360966,28.351906484411643 298.40789636096605,37.151906484411654 298.70789636096606,49.451906484411666 C 299.10789636096604,61.75190648441168 301.40789636096605,77.35190648441164 306.0078963609661,92.35190648441164 C 310.5078963609661,107.45190648441167 317.6078963609661,121.55190648441163 323.90789636096605,131.65190648441165 C 327.10789636096604,136.55190648441163 329.90789636096605,140.75190648441168 332.10789636096604,143.45190648441167 C 334.207896360966,146.25190648441168 335.40789636096605,147.75190648441168 335.40789636096605,147.75190648441168 M 313.10789636096604,144.75190648441162 C 313.10789636096604,144.75190648441162 311.60789636096604,144.25190648441162 309.007896360966,143.25190648441162 C 306.307896360966,142.35190648441164 302.60789636096604,140.85190648441164 298.007896360966,138.85190648441164 C 289.007896360966,134.85190648441164 277.207896360966,128.45190648441167 266.10789636096604,119.95190648441167 C 254.90789636096605,111.65190648441165 244.50789636096601,101.45190648441167 237.00789636096601,92.55190648441169 C 229.50789636096601,83.55190648441169 224.60789636096604,76.15190648441171 223.407896360966,74.15190648441171 C 221.207896360966,70.8519064844117 220.10789636096598,67.55190648441169 219.707896360966,64.45190648441172 C 219.30789636096603,61.45190648441172 219.707896360966,58.65190648441171 220.80789636096603,56.15190648441171 C 222.80789636096603,51.3519064844117 227.00789636096601,48.05190648441169 231.90789636096605,46.65190648441171 C 236.70789636096606,45.15190648441171 242.00789636096607,45.45190648441172 246.20789636096606,47.45190648441172 C 248.30789636096608,48.45190648441172 250.20789636096606,49.8519064844117 251.80789636096608,51.751906484411734 C 253.30789636096608,53.65190648441171 254.6078963609661,56.051906484411745 255.50789636096607,59.051906484411745 C 256.0078963609661,60.95190648441172 257.8078963609661,67.85190648441176 261.40789636096605,77.05190648441175 C 265.0078963609661,86.25190648441173 270.807896360966,97.55190648441175 278.0078963609661,108.05190648441175 C 285.1078963609661,118.55190648441175 293.8078963609661,127.95190648441172 300.8078963609661,134.45190648441172 C 304.4078963609661,137.6519064844117 307.4078963609661,140.25190648441173 309.6078963609661,141.95190648441172 C 311.807896360966,143.75190648441162 313.10789636096604,144.75190648441162 313.10789636096604,144.75190648441162 M 728.507896360966,191.05190648441163 C 725.507896360966,190.65190648441165 721.007896360966,190.15190648441165 715.507896360966,191.05190648441163 C 710.007896360966,192.15190648441165 703.4078963609661,194.75190648441168 697.807896360966,200.15190648441165 C 695.007896360966,202.75190648441168 692.4078963609661,206.05190648441163 690.6078963609659,209.8519064844117 C 689.7078963609661,211.75190648441168 688.9078963609659,213.8519064844117 688.307896360966,215.95190648441172 C 687.807896360966,218.25190648441168 687.507896360966,220.8519064844117 687.007896360966,223.3519064844117 C 685.9078963609661,233.3519064844117 687.9078963609661,243.95190648441172 694.507896360966,252.95190648441172 C 705.9078963609661,269.05190648441175 728.2078963609661,278.7519064844117 750.2078963609661,279.2519064844117 C 772.4078963609661,280.15190648441165 794.507896360966,269.65190648441165 809.6078963609662,252.8519064844117 C 820.4078963609661,241.15190648441165 827.3078963609662,226.75190648441168 831.6078963609662,212.25190648441168 C 835.6078963609662,197.55190648441163 836.7078963609661,182.55190648441163 835.3078963609662,168.3519064844117 C 833.9078963609661,154.05190648441175 829.8078963609662,140.6519064844117 823.0078963609662,129.1519064844117 C 816.3078963609662,117.65190648441171 807.2078963609663,108.15190648441171 796.9078963609661,100.75190648441173 C 776.3078963609662,86.15190648441171 752.0078963609662,79.85190648441176 729.7078963609661,79.35190648441176 C 707.3078963609662,78.85190648441176 686.3078963609662,83.25190648441173 668.507896360966,91.35190648441176 C 650.6078963609662,99.35190648441176 635.7078963609661,110.15190648441177 622.307896360966,120.75190648441173 C 608.9078963609661,131.35190648441176 596.9078963609661,141.95190648441172 584.7078963609661,150.45190648441172 C 572.6078963609659,159.05190648441175 560.2078963609661,165.45190648441172 548.1078963609659,168.95190648441172 C 545.007896360966,169.65190648441177 542.007896360966,170.3519064844117 539.1078963609659,171.05190648441175 C 536.2078963609661,171.7519064844118 533.2078963609661,171.65190648441177 530.4078963609659,171.95190648441172 C 524.7078963609658,172.65190648441177 519.4078963609659,172.15190648441177 514.307896360966,171.95190648441172 C 494.00789636096596,170.8519064844117 478.50789636096596,165.45190648441172 467.50789636096596,159.65190648441177 C 456.40789636096594,153.7519064844118 449.707896360966,147.2519064844118 445.50789636096596,142.2519064844118 C 441.30789636096597,137.2519064844118 439.40789636096594,133.5519064844118 438.30789636096597,131.45190648441178 C 437.20789636096595,129.2519064844118 437.107896360966,128.5519064844118 437.107896360966,128.5519064844118 C 437.107896360966,128.5519064844118 437.407896360966,129.2519064844118 438.707896360966,131.2519064844118 C 440.007896360966,133.2519064844118 442.207896360966,136.65190648441177 446.707896360966,141.2519064844118 C 451.207896360966,145.8519064844118 458.00789636096596,151.7519064844118 469.00789636096596,156.95190648441184 C 479.90789636096594,162.05190648441186 495.00789636096596,166.65190648441188 514.7078963609661,167.05190648441186 C 519.6078963609659,167.05190648441186 524.807896360966,167.3519064844118 530.1078963609659,166.55190648441186 C 532.7078963609661,166.15190648441188 535.507896360966,166.15190648441188 538.2078963609661,165.55190648441186 C 540.9078963609661,164.8519064844118 543.7078963609661,164.15190648441188 546.507896360966,163.3519064844118 C 557.7078963609661,159.7519064844118 569.2078963609661,153.45190648441184 580.7078963609661,144.95190648441184 C 592.307896360966,136.45190648441184 604.007896360966,125.75190648441185 617.4078963609661,114.75190648441185 C 630.807896360966,103.75190648441185 646.1078963609662,92.15190648441182 665.007896360966,83.45190648441184 C 683.807896360966,74.65190648441182 706.1078963609662,69.55190648441186 730.007896360966,69.85190648441181 C 753.807896360966,70.25190648441179 780.007896360966,76.5519064844118 802.9078963609661,92.45190648441184 C 850.9078963609661,122.95190648441184 865.2078963609661,205.45190648441184 818.1078963609662,260.55190648441186 C 809.6078963609662,270.05190648441186 799.2078963609661,278.05190648441186 787.7078963609661,283.6519064844119 C 776.3078963609662,289.45190648441184 763.2078963609661,292.55190648441186 750.4078963609661,292.95190648441184 C 737.6078963609662,293.3519064844118 724.7078963609661,291.45190648441184 712.4078963609661,287.1519064844119 C 700.2078963609661,282.8519064844119 688.4078963609661,275.95190648441184 679.1078963609662,265.7519064844119 C 668.1078963609662,254.35190648441193 662.3078963609662,237.7519064844119 662.4078963609661,222.55190648441186 C 662.6078963609662,218.7519064844119 662.6078963609662,215.05190648441186 663.1078963609662,211.3519064844118 C 663.7078963609663,207.45190648441184 664.6078963609662,203.7519064844118 665.8078963609662,200.05190648441186 C 668.3078963609662,192.8519064844118 672.2078963609663,186.3519064844118 676.8078963609662,180.95190648441184 C 681.4078963609663,175.55190648441186 686.6078963609662,171.2519064844118 692.0078963609662,167.8519064844118 C 697.4078963609663,164.55190648441186 702.9078963609663,162.3519064844118 708.2078963609663,160.8519064844118 C 718.7078963609663,157.95190648441184 727.8078963609664,158.45190648441184 733.9078963609663,159.3519064844118 C 749.1078963609664,161.8519064844118 761.5078963609665,170.7519064844118 768.9078963609663,180.65190648441177 C 776.4078963609663,190.55190648441175 779.7078963609663,201.3519064844118 780.1078963609664,210.3519064844118 C 780.5078963609665,219.3519064844118 778.5078963609665,226.45190648441184 775.8078963609664,230.7519064844118 C 773.1078963609664,235.05190648441175 770.3078963609664,236.55190648441175 768.3078963609664,235.95190648441184 C 763.9078963609666,234.55190648441186 763.3078963609664,225.45190648441184 757.9078963609666,215.2519064844118 C 753.007896360966,204.9519064844116 742.007896360966,193.15190648441165 728.507896360966,191.05190648441163 M 759.4078963609661,141.4519064844116 C 754.1078963609662,138.05190648441163 743.807896360966,131.4519064844116 729.007896360966,127.25190648441162 C 721.6078963609662,125.35190648441164 713.1078963609662,123.6519064844116 704.1078963609662,123.85190648441164 C 695.1078963609662,123.95190648441167 685.507896360966,125.15190648441165 676.2078963609661,128.15190648441165 C 659.8078963609662,133.55190648441163 644.3078963609662,144.75190648441168 628.3078963609662,156.05190648441163 C 612.2078963609661,167.55190648441163 595.0078963609662,177.9519064844116 576.6078963609662,186.25190648441168 C 563.8078963609662,192.05190648441163 550.6078963609662,196.3519064844117 537.507896360966,198.95190648441172 C 524.2078963609661,201.55190648441175 511.0078963609661,201.95190648441172 498.40789636096605,200.65190648441177 C 473.207896360966,197.95190648441172 449.90789636096605,188.45190648441172 433.10789636096604,172.95190648441172 C 424.70789636096606,165.15190648441177 418.20789636096606,156.05190648441175 413.40789636096605,146.45190648441172 C 411.307896360966,141.55190648441175 409.20789636096606,136.6519064844117 408.10789636096604,131.6519064844117 C 406.507896360966,126.75190648441173 406.007896360966,121.65190648441171 405.307896360966,116.65190648441171 C 403.90789636096605,96.55190648441169 410.007896360966,77.65190648441171 420.90789636096605,64.05190648441169 C 431.60789636096604,50.25190648441168 447.0078963609661,41.951906484411666 461.90789636096605,40.15190648441171 C 465.707896360966,39.95190648441172 469.307896360966,39.45190648441172 472.90789636096605,39.95190648441172 C 474.707896360966,40.15190648441171 476.5078963609661,40.15190648441171 478.207896360966,40.45190648441172 C 479.90789636096605,40.8519064844117 481.607896360966,41.251906484411734 483.307896360966,41.551906484411745 C 490.107896360966,42.751906484411734 496.5078963609661,46.551906484411745 501.207896360966,50.751906484411734 C 510.807896360966,59.35190648441176 515.7078963609661,70.65190648441171 516.9078963609661,81.15190648441171 C 518.2078963609661,91.75190648441173 514.9078963609661,101.45190648441172 510.6078963609661,108.65190648441171 C 501.5078963609661,123.15190648441171 487.80789636096614,129.5519064844117 477.2078963609661,129.45190648441172 C 466.5078963609661,129.1519064844117 459.6078963609661,124.3519064844117 456.30789636096614,120.15190648441171 C 452.90789636096616,115.75190648441173 452.7078963609661,112.15190648441171 452.5078963609662,110.25190648441173 C 452.5078963609662,108.25190648441173 452.6078963609662,107.65190648441171 452.6078963609662,107.65190648441171 C 452.6078963609662,107.65190648441171 452.70789636096623,108.25190648441173 453.0078963609662,110.15190648441171 C 453.5078963609662,111.95190648441172 454.1078963609662,115.3519064844117 457.6078963609662,119.05190648441169 C 461.0078963609662,122.65190648441171 467.70789636096623,126.55190648441169 477.30789636096625,126.25190648441168 C 486.6078963609662,125.8519064844117 498.70789636096623,119.45190648441167 506.4078963609663,106.05190648441169 C 510.0078963609663,99.3519064844117 512.5078963609662,91.05190648441169 511.1078963609663,81.8519064844117 C 509.80789636096637,72.8519064844117 505.1078963609663,63.15190648441171 496.80789636096637,56.05190648441169 C 492.5078963609664,52.55190648441169 487.80789636096637,49.8519064844117 481.9078963609664,48.8519064844117 C 480.4078963609664,48.55190648441169 478.9078963609664,48.25190648441168 477.4078963609664,47.95190648441172 C 475.9078963609664,47.751906484411734 474.30789636096637,47.751906484411734 472.80789636096637,47.65190648441171 C 469.70789636096634,47.251906484411734 466.5078963609664,47.8519064844117 463.30789636096637,48.05190648441169 C 450.5078963609664,49.951906484411666 437.4078963609664,57.25190648441168 428.20789636096634,69.55190648441169 C 418.80789636096637,81.55190648441169 413.70789636096634,98.3519064844117 415.20789636096634,115.8519064844117 C 415.90789636096633,120.15190648441171 416.30789636096637,124.65190648441171 417.80789636096637,129.0519064844117 C 418.80789636096637,133.5519064844117 420.80789636096637,137.75190648441168 422.70789636096634,142.1519064844117 C 427.00789636096636,150.55190648441175 432.80789636096637,158.55190648441175 440.30789636096637,165.3519064844117 C 455.4078963609664,178.95190648441172 476.6078963609663,187.55190648441175 499.70789636096634,189.8519064844117 C 511.30789636096637,190.95190648441172 523.5078963609662,190.55190648441175 535.5078963609662,188.05190648441175 C 547.7078963609663,185.55190648441175 560.0078963609662,181.45190648441172 572.1078963609664,175.95190648441172 C 589.5078963609662,168.05190648441175 605.5078963609662,157.3519064844117 620.2078963609663,145.15190648441177 C 635.0078963609662,132.95190648441178 649.7078963609663,119.25190648441179 668.4078963609663,109.65190648441177 C 679.2078963609663,104.15190648441177 690.8078963609664,100.85190648441176 702.2078963609663,99.05190648441175 C 713.6078963609664,97.15190648441177 724.7078963609663,97.75190648441173 734.7078963609663,99.05190648441175 C 754.7078963609663,101.95190648441172 769.7078963609663,109.45190648441172 776.9078963609663,114.05190648441175 C 785.8078963609664,119.35190648441176 792.8078963609664,126.55190648441175 798.5078963609665,133.35190648441176 C 801.1078963609664,136.95190648441178 803.6078963609664,140.45190648441178 805.5078963609665,143.85190648441176 C 807.3078963609664,147.45190648441172 808.9078963609663,150.65190648441177 810.0078963609665,153.8519064844118 C 811.0078963609665,157.05190648441186 811.7078963609665,160.05190648441186 812.2078963609665,162.65190648441177 C 812.7078963609665,165.2519064844118 812.6078963609664,167.7519064844118 812.4078963609666,169.65190648441177 C 812.0078963609665,173.65190648441177 810.8078963609664,176.05190648441175 808.7078963609665,176.8519064844118 C 806.6078963609664,177.65190648441177 803.9078963609666,176.7519064844118 800.9078963609666,174.7519064844118 C 799.4078963609666,173.7519064844118 797.9078963609666,172.3519064844118 796.1078963609666,170.95190648441184 C 794.3078963609667,169.55190648441186 792.4078963609666,167.8519064844118 790.5078963609665,165.95190648441184 C 788.5078963609665,164.15190648441188 786.2078963609665,162.2519064844118 784.1078963609666,160.15190648441188 C 781.8078963609667,158.15190648441188 779.4078963609666,156.15190648441188 776.8078963609667,153.95190648441184 C 771.507896360966,149.9519064844116 766.007896360966,145.3519064844116 759.4078963609661,141.4519064844116 M 511.607896360966,147.75190648441168 C 511.607896360966,147.75190648441168 513.2078963609661,146.55190648441163 515.9078963609659,144.45190648441167 C 518.7078963609658,142.35190648441164 522.507896360966,139.15190648441165 527.007896360966,135.0519064844117 C 535.9078963609659,126.75190648441168 547.1078963609659,114.3519064844117 556.1078963609659,99.65190648441171 C 565.307896360966,85.15190648441171 572.507896360966,68.65190648441171 576.7078963609661,54.8519064844117 C 580.807896360966,41.05190648441169 582.6078963609659,30.251906484411677 582.9078963609661,27.3519064844117 C 583.6078963609662,22.55190648441169 583.4078963609661,18.15190648441171 582.4078963609661,14.551906484411688 C 581.507896360966,10.8519064844117 580.007896360966,7.951906484411666 578.007896360966,5.651906484411711 C 574.1078963609662,1.151906484411711 568.9078963609661,-0.5480935155882776 563.9078963609661,0.15190648441171106 C 558.9078963609661,0.8519064844116997 554.307896360966,3.751906484411734 551.307896360966,8.051906484411688 C 549.9078963609661,10.251906484411677 548.7078963609661,12.8519064844117 548.007896360966,15.751906484411677 C 547.7078963609661,17.251906484411677 547.507896360966,18.8519064844117 547.4078963609661,20.55190648441169 C 547.307896360966,22.251906484411677 547.307896360966,24.05190648441169 547.4078963609661,25.951906484411666 C 547.7078963609661,28.351906484411643 548.6078963609662,37.151906484411654 548.307896360966,49.451906484411666 C 547.9078963609661,61.75190648441168 545.6078963609659,77.35190648441164 541.007896360966,92.35190648441164 C 536.507896360966,107.45190648441167 529.4078963609661,121.55190648441163 523.1078963609662,131.65190648441165 C 519.9078963609661,136.55190648441163 517.1078963609662,140.75190648441168 514.9078963609661,143.45190648441167 C 512.807896360966,146.25190648441168 511.607896360966,147.75190648441168 511.607896360966,147.75190648441168 M 533.9078963609661,144.75190648441162 C 533.9078963609661,144.75190648441162 535.4078963609661,144.25190648441162 538.007896360966,143.25190648441162 C 540.7078963609661,142.35190648441164 544.4078963609661,140.85190648441164 549.007896360966,138.85190648441164 C 558.007896360966,134.85190648441164 569.807896360966,128.45190648441167 580.9078963609661,119.95190648441167 C 592.1078963609662,111.65190648441165 602.507896360966,101.45190648441167 610.007896360966,92.55190648441169 C 617.507896360966,83.55190648441169 622.4078963609661,76.15190648441171 623.6078963609662,74.15190648441171 C 625.8078963609662,70.8519064844117 626.9078963609661,67.55190648441169 627.3078963609662,64.45190648441172 C 627.7078963609661,61.45190648441172 627.3078963609662,58.65190648441171 626.2078963609661,56.15190648441171 C 624.2078963609661,51.3519064844117 620.007896360966,48.05190648441169 615.1078963609662,46.65190648441171 C 610.3078963609662,45.15190648441171 605.007896360966,45.45190648441172 600.8078963609662,47.45190648441172 C 598.7078963609661,48.45190648441172 596.8078963609662,49.8519064844117 595.2078963609661,51.751906484411734 C 593.7078963609661,53.65190648441171 592.4078963609661,56.051906484411745 591.507896360966,59.051906484411745 C 591.007896360966,60.95190648441172 589.2078963609661,67.85190648441176 585.6078963609662,77.05190648441175 C 582.007896360966,86.25190648441173 576.2078963609661,97.55190648441175 569.007896360966,108.05190648441175 C 561.9078963609661,118.55190648441175 553.2078963609661,127.95190648441172 546.2078963609661,134.45190648441172 C 542.6078963609662,137.6519064844117 539.6078963609662,140.25190648441173 537.4078963609661,141.95190648441172 C 535.2078963609661,143.75190648441162 533.9078963609661,144.75190648441162 533.9078963609661,144.75190648441162"/>
</svg>
