<?xml version="1.0" ?>
<svg xmlns="http://www.w3.org/2000/svg" xmlns:ev="http://www.w3.org/2001/xml-events" xmlns:xlink="http://www.w3.org/1999/xlink" baseProfile="full" enable-background="new 0 0 1000 1000" height="340" id="Layer_1" transform="scale(0.29411764705882354 0.29411764705882354) translate(-447.5 -170.0)" version="1.1" viewBox="0 0 895 340" width="895" x="0px" xml:space="preserve" y="0px">
	<defs/>
	<path d="M 682.562979271021,56.16514189135597 C 686.462979271021,47.965141891355984 693.6629792710211,36.66514189135597 705.462979271021,26.265141891355995 C 717.262979271021,15.965141891355984 733.562979271021,6.765141891355995 753.1629792710211,2.365141891356018 C 762.962979271021,0.2651418913559951 773.462979271021,-0.5348581086439594 784.3629792710211,0.3651418913560178 C 795.2629792710211,1.265141891355995 806.2629792710211,4.165141891356029 816.6629792710211,8.66514189135603 C 837.562979271021,17.66514189135603 855.962979271021,33.56514189135601 869.2629792710211,52.86514189135602 C 880.9629792710211,69.66514189135603 889.062979271021,89.36514189135602 892.4629792710211,109.66514189135603 C 896.0629792710212,129.96514189135604 895.5629792710212,150.66514189135603 891.9629792710211,170.66514189135603 C 884.7629792710211,210.76514189135605 865.0629792710212,247.76514189135605 837.6629792710212,277.065141891356 C 818.4629792710211,297.465141891356 795.9629792710211,313.465141891356 771.8629792710212,324.065141891356 C 747.8629792710212,334.66514189135603 722.3629792710212,339.66514189135603 697.7629792710212,339.86514189135596 C 648.5629792710212,339.965141891356 602.5629792710212,321.26514189135594 570.6629792710212,290.76514189135594 C 538.6629792710212,260.36514189135596 519.7629792710212,220.86514189135596 514.2629792710212,182.26514189135594 C 513.3629792710212,177.46514189135593 513.1629792710212,172.56514189135595 512.6629792710212,167.86514189135596 C 512.5629792710212,163.06514189135595 512.1629792710212,158.36514189135596 512.3629792710212,153.56514189135595 C 512.5629792710213,144.06514189135595 513.6629792710212,134.56514189135595 516.5629792710213,125.56514189135595 C 519.3629792710212,116.56514189135595 524.1629792710213,107.96514189135593 530.8629792710212,101.56514189135595 C 537.5629792710213,95.16514189135597 545.9629792710213,90.66514189135597 555.0629792710213,89.56514189135595 C 564.1629792710213,88.46514189135593 573.6629792710213,91.46514189135593 580.3629792710212,97.26514189135594 C 587.2629792710212,102.96514189135593 591.3629792710212,110.76514189135594 594.1629792710212,118.46514189135593 C 596.6629792710212,126.26514189135594 597.7629792710212,134.26514189135594 597.4629792710211,142.16514189135592 C 597.2629792710211,146.0651418913559 596.8629792710211,149.96514189135593 595.9629792710211,153.66514189135592 L 594.6629792710212,159.16514189135592 L 592.9629792710211,164.46514189135593 C 588.0629792710212,178.46514189135593 579.7629792710211,190.26514189135594 570.3629792710211,199.66514189135592 C 560.7629792710211,208.96514189135587 549.8629792710211,215.96514189135587 538.6629792710211,220.46514189135587 C 527.3629792710211,224.86514189135585 515.6629792710211,226.86514189135585 504.662979271021,226.46514189135587 C 493.562979271021,226.16514189135592 483.162979271021,223.66514189135592 473.86297927102106,219.86514189135585 C 455.162979271021,212.26514189135582 441.06297927102105,199.76514189135582 431.06297927102105,186.56514189135584 C 426.1629792710211,179.86514189135585 422.36297927102106,172.9651418913558 419.462979271021,166.06514189135584 C 416.662979271021,159.16514189135586 414.76297927102104,152.36514189135585 413.56297927102105,145.76514189135582 C 411.26297927102104,132.6651418913558 411.86297927102106,120.76514189135582 413.56297927102105,110.76514189135582 C 416.962979271021,90.46514189135581 424.26297927102104,77.1651418913558 430.06297927102105,68.36514189135585 C 435.962979271021,59.565141891355836 440.6629792710211,54.86514189135585 443.36297927102106,52.265141891355825 C 446.1629792710211,49.6651418913558 447.06297927102105,48.86514189135585 447.06297927102105,48.86514189135585 C 447.06297927102105,48.86514189135585 446.26297927102104,49.765141891355825 443.6629792710211,52.565141891355836 C 441.06297927102105,55.36514189135585 436.7629792710211,60.265141891355825 431.36297927102106,69.26514189135582 C 426.06297927102105,78.1651418913558 419.36297927102106,91.56514189135584 416.6629792710211,111.26514189135582 C 415.36297927102106,121.06514189135584 415.06297927102105,132.56514189135584 417.56297927102105,145.06514189135584 C 418.86297927102106,151.26514189135582 420.76297927102104,157.76514189135582 423.6629792710211,164.26514189135582 C 426.6629792710211,170.6651418913558 430.36297927102106,177.1651418913558 435.1629792710211,183.4651418913558 C 444.86297927102106,195.76514189135582 458.4629792710211,207.26514189135582 476.16297927102113,214.1651418913558 C 493.66297927102113,221.06514189135578 515.3629792710212,222.56514189135578 536.1629792710212,213.86514189135585 C 546.5629792710212,209.5651418913559 556.4629792710211,202.96514189135587 565.2629792710212,194.26514189135582 C 573.8629792710212,185.4651418913558 581.2629792710212,174.56514189135584 585.5629792710212,161.86514189135585 L 587.0629792710212,157.06514189135584 L 588.1629792710212,152.06514189135584 C 588.9629792710211,148.76514189135582 589.1629792710212,145.4651418913558 589.3629792710212,141.9651418913558 C 589.4629792710213,135.1651418913558 588.4629792710213,128.06514189135584 586.2629792710212,121.46514189135581 C 583.8629792710212,114.96514189135581 580.3629792710212,108.56514189135584 575.0629792710212,104.36514189135579 C 569.9629792710211,100.06514189135578 563.0629792710212,97.96514189135581 556.2629792710212,98.86514189135579 C 549.4629792710213,99.76514189135577 542.5629792710212,103.26514189135577 537.2629792710212,108.56514189135578 C 531.8629792710212,113.76514189135577 527.9629792710213,120.76514189135577 525.5629792710212,128.6651418913558 C 523.1629792710212,136.4651418913558 522.1629792710212,145.06514189135578 522.0629792710212,153.9651418913558 C 521.9629792710211,158.3651418913558 522.3629792710211,162.8651418913558 522.4629792710211,167.3651418913558 C 522.9629792710211,171.8651418913558 523.1629792710212,176.4651418913558 524.0629792710212,180.9651418913558 C 529.4629792710211,217.26514189135582 547.6629792710212,254.6651418913558 577.8629792710211,283.0651418913558 C 607.8629792710211,311.5651418913558 651.3629792710211,329.0651418913558 697.8629792710211,328.86514189135573 C 721.0629792710212,328.5651418913558 744.9629792710211,323.86514189135573 767.5629792710212,313.7651418913557 C 790.1629792710212,303.7651418913557 811.4629792710211,288.56514189135567 829.5629792710212,269.2651418913557 C 855.3629792710211,241.56514189135567 873.3629792710211,205.96514189135576 878.5629792710212,168.7651418913557 C 881.1629792710212,150.1651418913557 880.6629792710212,131.2651418913557 876.5629792710212,113.56514189135572 C 872.4629792710211,95.76514189135571 864.3629792710211,79.56514189135572 853.3629792710211,65.9651418913557 C 840.8629792710211,50.4651418913557 824.5629792710212,38.86514189135568 807.8629792710211,33.06514189135572 C 791.0629792710212,27.065141891355722 774.4629792710211,27.565141891355722 760.1629792710211,31.665141891355745 C 745.8629792710211,35.865141891355734 734.462979271021,43.365141891355734 726.6629792710211,50.865141891355734 C 718.8629792710211,58.56514189135572 714.562979271021,65.96514189135576 712.062979271021,71.26514189135571 C 708.962979271021,77.56514189135572 707.362979271021,83.86514189135573 706.562979271021,90.56514189135572 C 705.862979271021,97.16514189135574 705.862979271021,103.76514189135571 706.962979271021,110.06514189135572 C 708.862979271021,122.76514189135571 713.762979271021,133.66514189135574 719.062979271021,142.06514189135572 C 729.862979271021,158.9651418913557 742.962979271021,164.86514189135573 741.7629792710211,169.7651418913557 C 741.2629792710211,171.86514189135573 737.1629792710211,173.36514189135573 729.7629792710211,172.2651418913557 C 722.4629792710211,171.36514189135573 712.062979271021,166.9651418913557 701.9629792710211,157.86514189135573 C 692.0629792710212,148.66514189135574 682.4629792710211,134.7651418913557 677.6629792710212,116.86514189135573 C 675.0629792710212,107.96514189135576 674.1629792710212,98.06514189135572 674.6629792710212,87.76514189135571 C 675.162979271021,77.065141891356 677.762979271021,65.86514189135596 682.562979271021,56.16514189135597 M 765.162979271021,123.96514189135598 C 767.862979271021,121.96514189135598 772.662979271021,119.16514189135597 778.162979271021,117.96514189135598 C 783.762979271021,116.66514189135597 790.662979271021,116.46514189135598 797.5629792710209,118.265141891356 C 804.4629792710209,119.96514189135598 811.262979271021,123.265141891356 817.262979271021,128.16514189135597 C 823.362979271021,132.96514189135598 828.362979271021,139.56514189135595 831.762979271021,146.265141891356 C 837.962979271021,158.265141891356 840.462979271021,171.065141891356 841.862979271021,183.46514189135598 C 843.262979271021,195.96514189135598 843.362979271021,208.565141891356 842.162979271021,221.065141891356 C 839.162979271021,256.065141891356 823.9629792710209,285.965141891356 803.162979271021,303.965141891356 C 792.862979271021,313.065141891356 781.762979271021,319.565141891356 770.862979271021,323.965141891356 C 759.962979271021,328.465141891356 749.362979271021,331.26514189135594 739.362979271021,332.86514189135596 C 719.362979271021,336.1651418913559 702.062979271021,335.26514189135594 687.662979271021,333.6651418913559 C 673.262979271021,331.96514189135587 661.5629792710209,329.36514189135596 651.9629792710209,327.1651418913559 C 632.8629792710209,322.46514189135587 622.0629792710209,318.86514189135596 615.9629792710209,316.86514189135596 C 609.8629792710209,314.86514189135596 608.4629792710209,314.26514189135594 608.4629792710209,314.26514189135594 C 608.4629792710209,314.26514189135594 609.9629792710209,314.36514189135596 616.2629792710209,315.6651418913559 C 622.5629792710208,316.86514189135596 633.5629792710208,319.46514189135587 652.7629792710209,323.1651418913559 C 662.3629792710209,324.86514189135596 673.9629792710209,326.86514189135596 688.1629792710208,328.0651418913559 C 702.2629792710209,329.1651418913559 719.0629792710208,329.46514189135587 738.0629792710208,325.86514189135585 C 756.9629792710208,322.2651418913558 778.6629792710208,314.6651418913558 797.5629792710208,297.6651418913558 C 816.3629792710208,280.86514189135585 830.2629792710209,253.26514189135582 832.9629792710208,220.36514189135585 C 833.9629792710208,208.6651418913558 833.2629792710208,196.76514189135582 830.8629792710208,185.36514189135585 C 828.5629792710208,174.06514189135584 824.3629792710208,163.26514189135582 817.9629792710208,155.36514189135585 C 814.2629792710208,150.86514189135585 810.2629792710208,147.36514189135585 805.8629792710208,145.26514189135582 C 801.5629792710208,142.9651418913558 797.0629792710208,141.86514189135585 793.3629792710208,141.76514189135582 C 789.6629792710207,141.56514189135584 786.6629792710207,142.26514189135582 784.5629792710208,143.1651418913558 C 782.2629792710209,144.06514189135578 781.3629792710208,144.9651418913558 780.3629792710208,145.56514189135578 C 775.9629792710208,148.8651418913558 772.4629792710208,154.46514189135576 770.5629792710208,158.76514189135577 C 769.5629792710208,160.96514189135576 768.8629792710208,163.16514189135574 768.1629792710208,165.3651418913558 C 767.5629792710208,167.3651418913558 766.7629792710209,169.3651418913558 765.3629792710209,170.4651418913558 C 763.9629792710209,171.56514189135584 761.8629792710209,171.76514189135582 759.2629792710209,170.26514189135582 C 756.7629792710209,168.76514189135582 753.7629792710209,165.4651418913558 752.1629792710208,160.36514189135585 C 749.262979271021,150.36514189135596 751.962979271021,134.16514189135597 765.162979271021,123.96514189135598 M 709.362979271021,207.66514189135603 C 710.662979271021,205.065141891356 713.162979271021,201.26514189135605 716.962979271021,197.96514189135604 C 720.762979271021,194.66514189135603 725.962979271021,191.76514189135605 731.762979271021,190.46514189135604 C 737.662979271021,189.06514189135606 744.162979271021,189.06514189135606 750.5629792710209,190.86514189135602 C 756.9629792710209,192.565141891356 763.162979271021,196.46514189135604 767.5629792710209,201.26514189135605 C 775.4629792710209,209.86514189135607 779.3629792710209,220.66514189135603 779.9629792710209,231.565141891356 C 780.4629792710209,242.46514189135598 777.5629792710209,252.86514189135596 772.8629792710209,261.965141891356 C 766.1629792710208,274.86514189135596 756.1629792710208,283.965141891356 746.2629792710209,290.86514189135596 C 736.2629792710209,297.76514189135594 726.2629792710209,302.965141891356 716.3629792710209,306.86514189135596 C 696.6629792710208,314.6651418913559 678.2629792710209,317.26514189135594 662.3629792710209,317.465141891356 C 646.3629792710209,317.565141891356 632.9629792710209,314.965141891356 621.8629792710209,311.86514189135596 C 610.7629792710209,308.6651418913559 602.0629792710209,304.76514189135594 595.0629792710209,301.1651418913559 C 581.162979271021,293.76514189135594 574.262979271021,287.76514189135594 570.3629792710209,284.46514189135587 C 566.5629792710209,281.0651418913559 565.7629792710209,280.0651418913559 565.7629792710209,280.0651418913559 C 565.7629792710209,280.0651418913559 566.8629792710209,280.6651418913559 571.0629792710208,283.46514189135587 C 575.3629792710208,286.1651418913559 582.7629792710209,291.1651418913559 596.7629792710209,297.36514189135585 C 610.6629792710208,303.2651418913558 631.6629792710208,310.96514189135587 662.1629792710208,310.1651418913558 C 677.2629792710209,309.5651418913558 694.7629792710209,306.6651418913558 713.2629792710209,298.86514189135585 C 722.4629792710209,295.0651418913559 731.9629792710209,289.96514189135587 741.1629792710208,283.36514189135585 C 750.2629792710209,276.7651418913558 759.0629792710208,268.46514189135587 764.6629792710208,257.46514189135587 C 768.6629792710208,249.66514189135592 770.3629792710209,240.66514189135592 768.9629792710208,232.5651418913559 C 767.5629792710208,224.5651418913559 762.8629792710208,217.36514189135585 756.9629792710208,213.76514189135594 C 753.5629792710208,211.66514189135592 750.1629792710208,210.76514189135594 746.9629792710208,210.86514189135596 C 743.7629792710208,210.86514189135596 740.7629792710208,211.76514189135594 738.5629792710208,212.96514189135598 C 734.0629792710208,215.46514189135598 733.2629792710209,218.36514189135596 732.6629792710208,219.36514189135596 C 731.1629792710208,222.46514189135598 729.9629792710208,226.76514189135594 729.3629792710209,230.565141891356 C 728.5629792710209,234.36514189135596 729.0629792710209,238.76514189135605 727.1629792710208,241.86514189135596 C 726.1629792710208,243.36514189135596 724.4629792710208,244.36514189135596 721.8629792710209,244.16514189135592 C 719.3629792710209,243.96514189135587 716.0629792710209,242.46514189135587 713.0629792710209,239.36514189135596 C 707.262979271021,233.565141891356 703.262979271021,220.565141891356 709.362979271021,207.66514189135603 M 599.062979271021,225.565141891356 C 599.7629792710211,223.36514189135596 601.062979271021,220.16514189135603 603.462979271021,216.66514189135603 C 605.762979271021,213.26514189135605 609.762979271021,209.26514189135605 614.362979271021,206.76514189135605 C 623.762979271021,201.36514189135607 636.262979271021,200.86514189135607 646.462979271021,205.16514189135603 C 650.962979271021,206.96514189135598 655.1629792710211,209.565141891356 658.762979271021,212.86514189135607 C 662.262979271021,216.06514189135612 665.162979271021,219.76514189135605 667.462979271021,223.76514189135605 C 672.062979271021,231.76514189135605 674.362979271021,240.565141891356 674.762979271021,249.565141891356 C 675.362979271021,262.065141891356 671.5629792710209,274.16514189135603 663.862979271021,282.66514189135603 C 660.062979271021,286.965141891356 655.162979271021,289.965141891356 650.362979271021,291.8651418913561 C 645.562979271021,293.76514189135605 640.762979271021,294.66514189135603 636.162979271021,295.0651418913561 C 627.0629792710209,295.76514189135617 618.4629792710209,295.3651418913561 610.662979271021,293.8651418913561 C 602.862979271021,292.5651418913561 595.762979271021,290.16514189135603 589.4629792710209,287.5651418913561 C 576.8629792710209,282.16514189135614 567.162979271021,275.26514189135617 559.7629792710209,268.66514189135614 C 552.2629792710209,262.0651418913561 547.1629792710208,255.56514189135612 543.2629792710209,249.9651418913561 C 535.7629792710209,238.66514189135614 533.1629792710208,231.06514189135612 531.9629792710209,226.86514189135607 C 530.7629792710209,222.66514189135603 530.5629792710209,221.56514189135612 530.5629792710209,221.56514189135612 C 530.5629792710209,221.56514189135612 531.162979271021,222.4651418913561 533.0629792710209,226.36514189135607 C 534.9629792710209,230.26514189135605 538.4629792710209,237.16514189135603 546.4629792710209,247.4651418913561 C 550.5629792710209,252.4651418913561 555.8629792710209,258.3651418913561 563.2629792710209,264.26514189135605 C 570.6629792710208,270.16514189135603 580.0629792710208,276.16514189135603 591.9629792710209,280.76514189135605 C 597.9629792710209,282.9651418913561 604.5629792710209,284.9651418913561 611.8629792710209,285.9651418913561 C 619.0629792710209,287.16514189135614 626.9629792710209,287.3651418913561 635.1629792710208,286.5651418913561 C 643.2629792710209,285.5651418913561 651.6629792710208,283.0651418913561 657.2629792710209,276.5651418913561 C 662.9629792710209,270.16514189135614 666.0629792710208,260.26514189135617 665.4629792710209,250.06514189135612 C 665.0629792710209,242.76514189135617 662.4629792710209,235.56514189135612 658.162979271021,230.16514189135614 C 655.9629792710209,227.4651418913561 653.4629792710209,225.26514189135617 650.662979271021,223.76514189135617 C 647.9629792710209,222.26514189135617 644.9629792710209,221.4651418913562 642.0629792710209,221.26514189135617 C 635.262979271021,220.76514189135617 629.3629792710209,223.56514189135612 626.8629792710209,226.56514189135612 C 625.4629792710209,228.06514189135612 625.0629792710209,229.26514189135617 624.5629792710209,230.4651418913561 C 624.0629792710209,231.66514189135614 623.8629792710209,232.76514189135605 623.662979271021,233.4651418913561 C 622.5629792710209,237.36514189135607 621.4629792710209,240.76514189135605 620.5629792710209,243.76514189135605 C 619.4629792710209,247.16514189135603 619.262979271021,251.26514189135605 616.9629792710209,254.16514189135603 C 614.8629792710209,256.965141891356 609.4629792710209,257.565141891356 604.0629792710209,252.16514189135603 C 599.062979271021,247.16514189135603 595.662979271021,236.36514189135596 599.062979271021,225.565141891356 M 212.36297927102095,56.16514189135597 C 208.46297927102097,47.965141891355984 201.26297927102092,36.66514189135597 189.46297927102094,26.265141891355995 C 177.66297927102093,15.965141891355984 161.36297927102095,6.765141891355995 141.76297927102092,2.365141891356018 C 131.9629792710209,0.2651418913559951 121.46297927102091,-0.5348581086439594 110.56297927102094,0.3651418913560178 C 99.66297927102093,1.265141891355995 88.66297927102093,4.165141891356029 78.26297927102092,8.66514189135603 C 57.362979271020926,17.66514189135603 38.962979271020934,33.56514189135601 25.662979271020937,52.86514189135602 C 13.962979271020934,69.66514189135603 5.86297927102094,89.36514189135602 2.4629792710209344,109.66514189135603 C -1.137020728979067,129.96514189135604 -0.637020728979067,150.66514189135603 2.9629792710209344,170.66514189135603 C 10.162979271020937,210.76514189135605 29.862979271020926,247.76514189135605 57.26297927102093,277.065141891356 C 76.46297927102091,297.465141891356 98.96297927102091,313.465141891356 123.06297927102094,324.065141891356 C 147.06297927102094,334.66514189135603 172.56297927102094,339.66514189135603 197.1629792710209,339.86514189135596 C 246.3629792710209,339.965141891356 292.3629792710209,321.26514189135594 324.2629792710209,290.76514189135594 C 356.2629792710209,260.36514189135596 375.1629792710209,220.86514189135596 380.6629792710209,182.26514189135594 C 381.5629792710209,177.46514189135593 381.7629792710209,172.56514189135595 382.2629792710209,167.86514189135596 C 382.36297927102095,163.06514189135595 382.7629792710209,158.36514189135596 382.56297927102094,153.56514189135595 C 382.36297927102095,144.06514189135595 381.2629792710209,134.56514189135595 378.36297927102095,125.56514189135595 C 375.56297927102094,116.56514189135595 370.7629792710209,107.96514189135593 364.06297927102094,101.56514189135595 C 357.36297927102095,95.16514189135597 348.9629792710209,90.66514189135597 339.86297927102095,89.56514189135595 C 330.7629792710209,88.46514189135593 321.2629792710209,91.46514189135593 314.56297927102094,97.26514189135594 C 307.66297927102096,102.96514189135593 303.56297927102094,110.76514189135594 300.7629792710209,118.46514189135593 C 298.2629792710209,126.26514189135594 297.1629792710209,134.26514189135594 297.4629792710209,142.16514189135592 C 297.6629792710209,146.0651418913559 298.06297927102094,149.96514189135593 298.9629792710209,153.66514189135592 L 300.2629792710209,159.16514189135592 L 301.9629792710209,164.46514189135593 C 306.8629792710209,178.46514189135593 315.1629792710209,190.26514189135594 324.56297927102094,199.66514189135592 C 334.16297927102096,208.96514189135587 345.06297927102094,215.96514189135587 356.2629792710209,220.46514189135587 C 367.56297927102094,224.86514189135585 379.2629792710209,226.86514189135585 390.2629792710209,226.46514189135587 C 401.36297927102095,226.16514189135592 411.7629792710209,223.66514189135592 421.06297927102094,219.86514189135585 C 439.7629792710209,212.26514189135582 453.86297927102095,199.76514189135582 463.86297927102095,186.56514189135584 C 468.7629792710209,179.86514189135585 472.562979271021,172.9651418913558 475.46297927102097,166.06514189135584 C 478.2629792710209,159.16514189135586 480.162979271021,152.36514189135585 481.36297927102095,145.76514189135582 C 483.6629792710209,132.6651418913558 483.062979271021,120.76514189135582 481.36297927102095,110.76514189135582 C 477.96297927102097,90.46514189135581 470.6629792710209,77.1651418913558 464.86297927102095,68.36514189135585 C 458.96297927102097,59.565141891355836 454.2629792710209,54.86514189135585 451.56297927102094,52.265141891355825 C 448.7629792710209,49.6651418913558 447.86297927102095,48.86514189135585 447.86297927102095,48.86514189135585 C 447.86297927102095,48.86514189135585 448.66297927102096,49.765141891355825 451.2629792710209,52.565141891355836 C 453.86297927102095,55.36514189135585 458.1629792710209,60.265141891355825 463.5629792710209,69.26514189135582 C 468.86297927102083,78.1651418913558 475.5629792710209,91.56514189135584 478.2629792710209,111.26514189135582 C 479.5629792710209,121.06514189135584 479.86297927102095,132.56514189135584 477.36297927102095,145.06514189135584 C 476.062979271021,151.26514189135582 474.1629792710209,157.76514189135582 471.36297927102095,164.26514189135582 C 468.36297927102095,170.6651418913558 464.6629792710209,177.1651418913558 459.86297927102095,183.4651418913558 C 450.16297927102096,195.76514189135582 436.56297927102094,207.26514189135582 418.86297927102095,214.1651418913558 C 401.36297927102095,221.06514189135578 379.66297927102096,222.56514189135578 358.86297927102095,213.86514189135585 C 348.46297927102097,209.5651418913559 338.56297927102094,202.96514189135587 329.7629792710209,194.26514189135582 C 321.1629792710209,185.4651418913558 313.7629792710209,174.56514189135584 309.4629792710209,161.86514189135585 L 307.9629792710209,157.06514189135584 L 306.8629792710209,152.06514189135584 C 306.0629792710209,148.76514189135582 305.8629792710209,145.4651418913558 305.6629792710209,141.9651418913558 C 305.5629792710209,135.1651418913558 306.5629792710209,128.06514189135584 308.7629792710209,121.46514189135581 C 311.1629792710209,114.96514189135581 314.6629792710209,108.56514189135584 319.9629792710209,104.36514189135579 C 325.06297927102094,100.06514189135578 331.9629792710209,97.96514189135581 338.7629792710209,98.86514189135579 C 345.56297927102094,99.76514189135577 352.4629792710209,103.26514189135577 357.7629792710209,108.56514189135578 C 363.1629792710209,113.76514189135577 367.06297927102094,120.76514189135577 369.4629792710209,128.6651418913558 C 371.8629792710209,136.4651418913558 372.8629792710209,145.06514189135578 372.9629792710209,153.9651418913558 C 373.06297927102094,158.3651418913558 372.6629792710209,162.8651418913558 372.56297927102094,167.3651418913558 C 372.06297927102094,171.8651418913558 371.86297927102095,176.4651418913558 370.9629792710209,180.9651418913558 C 365.56297927102094,217.26514189135582 347.3629792710209,254.6651418913558 317.1629792710209,283.0651418913558 C 287.1629792710209,311.5651418913558 243.6629792710209,329.0651418913558 197.1629792710209,328.86514189135573 C 173.9629792710209,328.5651418913558 150.0629792710209,323.86514189135573 127.46297927102091,313.7651418913557 C 104.86297927102092,303.7651418913557 83.56297927102091,288.56514189135567 65.46297927102091,269.2651418913557 C 39.66297927102092,241.56514189135567 21.662979271020923,205.96514189135576 16.46297927102092,168.7651418913557 C 13.862979271020926,150.1651418913557 14.362979271020926,131.2651418913557 18.46297927102092,113.56514189135572 C 22.562979271020914,95.76514189135571 30.662979271020923,79.56514189135572 41.66297927102092,65.9651418913557 C 54.16297927102092,50.4651418913557 70.46297927102091,38.86514189135568 87.1629792710209,33.06514189135572 C 103.96297927102091,27.065141891355722 120.56297927102091,27.565141891355722 134.8629792710209,31.665141891355745 C 149.1629792710209,35.865141891355734 160.56297927102088,43.365141891355734 168.3629792710209,50.865141891355734 C 176.1629792710209,58.56514189135572 180.46297927102088,65.96514189135576 182.96297927102088,71.26514189135571 C 186.06297927102088,77.56514189135572 187.66297927102087,83.86514189135573 188.46297927102088,90.56514189135572 C 189.16297927102087,97.16514189135574 189.16297927102087,103.76514189135571 188.06297927102088,110.06514189135572 C 186.16297927102087,122.76514189135571 181.26297927102087,133.66514189135574 175.96297927102088,142.06514189135572 C 165.16297927102087,158.9651418913557 152.06297927102088,164.86514189135573 153.2629792710209,169.7651418913557 C 153.7629792710209,171.86514189135573 157.8629792710209,173.36514189135573 165.2629792710209,172.2651418913557 C 172.5629792710209,171.36514189135573 182.96297927102088,166.9651418913557 193.0629792710209,157.86514189135573 C 202.9629792710209,148.66514189135574 212.56297927102088,134.7651418913557 217.3629792710209,116.86514189135573 C 219.9629792710209,107.96514189135576 220.8629792710209,98.06514189135572 220.3629792710209,87.76514189135571 C 219.86297927102095,77.065141891356 217.26297927102092,65.86514189135596 212.36297927102095,56.16514189135597 M 129.76297927102095,123.96514189135598 C 127.06297927102096,121.96514189135598 122.26297927102095,119.16514189135597 116.76297927102095,117.96514189135598 C 111.16297927102096,116.66514189135597 104.26297927102095,116.46514189135598 97.36297927102095,118.265141891356 C 90.46297927102094,119.96514189135598 83.66297927102096,123.265141891356 77.66297927102096,128.16514189135597 C 71.56297927102096,132.96514189135598 66.56297927102096,139.56514189135595 63.162979271020966,146.265141891356 C 56.96297927102096,158.265141891356 54.46297927102096,171.065141891356 53.06297927102097,183.46514189135598 C 51.662979271020966,195.96514189135598 51.56297927102097,208.565141891356 52.762979271020974,221.065141891356 C 55.762979271020974,256.065141891356 70.96297927102097,285.965141891356 91.76297927102098,303.965141891356 C 102.06297927102099,313.065141891356 113.16297927102099,319.565141891356 124.06297927102099,323.965141891356 C 134.962979271021,328.465141891356 145.562979271021,331.26514189135594 155.562979271021,332.86514189135596 C 175.562979271021,336.1651418913559 192.862979271021,335.26514189135594 207.26297927102098,333.6651418913559 C 221.66297927102096,331.96514189135587 233.362979271021,329.36514189135596 242.96297927102097,327.1651418913559 C 262.062979271021,322.46514189135587 272.86297927102095,318.86514189135596 278.96297927102097,316.86514189135596 C 285.062979271021,314.86514189135596 286.46297927102097,314.26514189135594 286.46297927102097,314.26514189135594 C 286.46297927102097,314.26514189135594 284.96297927102097,314.36514189135596 278.66297927102096,315.6651418913559 C 272.36297927102095,316.86514189135596 261.36297927102095,319.46514189135587 242.16297927102096,323.1651418913559 C 232.56297927102094,324.86514189135596 220.96297927102097,326.86514189135596 206.76297927102098,328.0651418913559 C 192.662979271021,329.1651418913559 175.86297927102098,329.46514189135587 156.86297927102098,325.86514189135585 C 137.96297927102097,322.2651418913558 116.16297927102096,314.6651418913558 97.36297927102098,297.6651418913558 C 78.56297927102096,280.86514189135585 64.66297927102099,253.26514189135582 61.96297927102098,220.36514189135585 C 60.96297927102098,208.6651418913558 61.66297927102098,196.76514189135582 64.06297927102096,185.36514189135585 C 66.36297927102098,174.06514189135584 70.56297927102096,163.26514189135582 76.96297927102097,155.36514189135585 C 80.66297927102096,150.86514189135585 84.66297927102096,147.36514189135585 89.06297927102096,145.26514189135582 C 93.36297927102098,142.9651418913558 97.86297927102098,141.86514189135585 101.56297927102096,141.76514189135582 C 105.26297927102095,141.56514189135584 108.26297927102095,142.26514189135582 110.36297927102098,143.1651418913558 C 112.66297927102099,144.06514189135578 113.56297927102096,144.9651418913558 114.56297927102096,145.56514189135578 C 118.96297927102097,148.8651418913558 122.46297927102097,154.46514189135576 124.36297927102098,158.76514189135577 C 125.36297927102098,160.96514189135576 126.06297927102096,163.16514189135574 126.76297927102098,165.3651418913558 C 127.36297927102098,167.3651418913558 128.162979271021,169.3651418913558 129.562979271021,170.4651418913558 C 130.962979271021,171.56514189135584 133.062979271021,171.76514189135582 135.662979271021,170.26514189135582 C 138.162979271021,168.76514189135582 141.162979271021,165.4651418913558 142.76297927102098,160.36514189135585 C 145.76297927102095,150.36514189135596 143.06297927102094,134.16514189135597 129.76297927102095,123.96514189135598 M 185.56297927102094,207.66514189135603 C 184.26297927102092,205.065141891356 181.76297927102092,201.26514189135605 177.96297927102094,197.96514189135604 C 174.16297927102093,194.66514189135603 168.96297927102094,191.76514189135605 163.16297927102093,190.46514189135604 C 157.26297927102092,189.06514189135606 150.76297927102092,189.06514189135606 144.36297927102092,190.86514189135602 C 137.9629792710209,192.565141891356 131.76297927102092,196.46514189135604 127.36297927102092,201.26514189135605 C 119.46297927102091,209.86514189135607 115.56297927102091,220.66514189135603 114.96297927102091,231.565141891356 C 114.46297927102091,242.46514189135598 117.36297927102092,252.86514189135596 122.06297927102091,261.965141891356 C 128.7629792710209,274.86514189135596 138.7629792710209,283.965141891356 148.6629792710209,290.86514189135596 C 158.6629792710209,297.76514189135594 168.6629792710209,302.965141891356 178.5629792710209,306.86514189135596 C 198.26297927102092,314.6651418913559 216.6629792710209,317.26514189135594 232.56297927102088,317.465141891356 C 248.56297927102088,317.565141891356 261.96297927102086,314.965141891356 273.0629792710209,311.86514189135596 C 284.1629792710209,308.6651418913559 292.8629792710209,304.76514189135594 299.8629792710209,301.1651418913559 C 313.76297927102087,293.76514189135594 320.6629792710209,287.76514189135594 324.5629792710209,284.46514189135587 C 328.3629792710209,281.0651418913559 329.1629792710209,280.0651418913559 329.1629792710209,280.0651418913559 C 329.1629792710209,280.0651418913559 328.0629792710209,280.6651418913559 323.8629792710209,283.46514189135587 C 319.5629792710209,286.1651418913559 312.1629792710209,291.1651418913559 298.1629792710209,297.36514189135585 C 284.2629792710209,303.2651418913558 263.2629792710209,310.96514189135587 232.76297927102092,310.1651418913558 C 217.6629792710209,309.5651418913558 200.1629792710209,306.6651418913558 181.66297927102093,298.86514189135585 C 172.46297927102094,295.0651418913559 162.96297927102094,289.96514189135587 153.76297927102092,283.36514189135585 C 144.66297927102093,276.7651418913558 135.86297927102092,268.46514189135587 130.26297927102092,257.46514189135587 C 126.26297927102092,249.66514189135592 124.56297927102094,240.66514189135592 125.96297927102091,232.5651418913559 C 127.36297927102092,224.5651418913559 132.0629792710209,217.36514189135585 137.9629792710209,213.76514189135594 C 141.36297927102092,211.66514189135592 144.76297927102092,210.76514189135594 147.9629792710209,210.86514189135596 C 151.1629792710209,210.86514189135596 154.1629792710209,211.76514189135594 156.36297927102092,212.96514189135598 C 160.86297927102092,215.46514189135598 161.66297927102093,218.36514189135596 162.26297927102092,219.36514189135596 C 163.76297927102092,222.46514189135598 164.9629792710209,226.76514189135594 165.56297927102094,230.565141891356 C 166.36297927102095,234.36514189135596 165.86297927102095,238.76514189135605 167.76297927102092,241.86514189135596 C 168.76297927102092,243.36514189135596 170.4629792710209,244.36514189135596 173.06297927102094,244.16514189135592 C 175.56297927102094,243.96514189135587 178.86297927102095,242.46514189135587 181.86297927102095,239.36514189135596 C 187.76297927102095,233.565141891356 191.66297927102096,220.565141891356 185.56297927102094,207.66514189135603 M 295.96297927102097,225.565141891356 C 295.262979271021,223.36514189135596 293.96297927102097,220.16514189135603 291.562979271021,216.66514189135603 C 289.262979271021,213.26514189135605 285.262979271021,209.26514189135605 280.662979271021,206.76514189135605 C 271.26297927102104,201.36514189135607 258.76297927102104,200.86514189135607 248.562979271021,205.16514189135603 C 244.062979271021,206.96514189135598 239.862979271021,209.565141891356 236.26297927102098,212.86514189135607 C 232.76297927102098,216.06514189135612 229.862979271021,219.76514189135605 227.562979271021,223.76514189135605 C 222.96297927102097,231.76514189135605 220.66297927102102,240.565141891356 220.26297927102098,249.565141891356 C 219.66297927102096,262.065141891356 223.46297927102097,274.16514189135603 231.16297927102096,282.66514189135603 C 234.96297927102097,286.965141891356 239.86297927102095,289.965141891356 244.66297927102096,291.8651418913561 C 249.46297927102097,293.76514189135605 254.26297927102098,294.66514189135603 258.86297927102095,295.0651418913561 C 267.96297927102097,295.76514189135617 276.56297927102094,295.3651418913561 284.36297927102095,293.8651418913561 C 292.16297927102096,292.5651418913561 299.2629792710209,290.16514189135603 305.56297927102094,287.5651418913561 C 318.16297927102096,282.16514189135614 327.86297927102095,275.26514189135617 335.2629792710209,268.66514189135614 C 342.7629792710209,262.0651418913561 347.86297927102095,255.56514189135612 351.7629792710209,249.9651418913561 C 359.2629792710209,238.66514189135614 361.86297927102095,231.06514189135612 363.06297927102094,226.86514189135607 C 364.2629792710209,222.66514189135603 364.4629792710209,221.56514189135612 364.4629792710209,221.56514189135612 C 364.4629792710209,221.56514189135612 363.8629792710209,222.4651418913561 361.9629792710209,226.36514189135607 C 360.06297927102094,230.26514189135605 356.56297927102094,237.16514189135603 348.56297927102094,247.4651418913561 C 344.4629792710209,252.4651418913561 339.16297927102096,258.3651418913561 331.7629792710209,264.26514189135605 C 324.36297927102095,270.16514189135603 314.9629792710209,276.16514189135603 303.06297927102094,280.76514189135605 C 297.06297927102094,282.9651418913561 290.4629792710209,284.9651418913561 283.16297927102096,285.9651418913561 C 275.96297927102097,287.16514189135614 268.06297927102094,287.3651418913561 259.86297927102095,286.5651418913561 C 251.76297927102092,285.5651418913561 243.36297927102095,283.0651418913561 237.76297927102092,276.5651418913561 C 232.06297927102094,270.16514189135614 228.9629792710209,260.26514189135617 229.56297927102094,250.06514189135612 C 229.9629792710209,242.76514189135617 232.56297927102094,235.56514189135612 236.86297927102095,230.16514189135614 C 239.06297927102094,227.4651418913561 241.56297927102094,225.26514189135617 244.36297927102095,223.76514189135617 C 247.06297927102094,222.26514189135617 250.06297927102094,221.4651418913562 252.96297927102097,221.26514189135617 C 259.762979271021,220.76514189135617 265.66297927102096,223.56514189135612 268.16297927102096,226.56514189135612 C 269.56297927102094,228.06514189135612 269.96297927102097,229.26514189135617 270.46297927102097,230.4651418913561 C 270.96297927102097,231.66514189135614 271.16297927102096,232.76514189135605 271.36297927102095,233.4651418913561 C 272.46297927102097,237.36514189135607 273.56297927102094,240.76514189135605 274.46297927102097,243.76514189135605 C 275.562979271021,247.16514189135603 275.762979271021,251.26514189135605 278.062979271021,254.16514189135603 C 280.162979271021,256.965141891356 285.562979271021,257.565141891356 290.96297927102097,252.16514189135603 C 295.96297927102097,247.16514189135603 299.2629792710209,236.36514189135596 295.96297927102097,225.565141891356"/>
</svg>
