<?xml version="1.0" ?>
<svg xmlns="http://www.w3.org/2000/svg" xmlns:ev="http://www.w3.org/2001/xml-events" xmlns:xlink="http://www.w3.org/1999/xlink" baseProfile="full" enable-background="new 0 0 1000 1000" height="236" id="Layer_1" transform="scale(0.423728813559322 0.423728813559322) translate(-460.5 -118.0)" version="1.1" viewBox="0 0 921 236" width="921" x="0px" xml:space="preserve" y="0px">
	<defs/>
	<path d="M 439.88340184184244,122.5672933576281 C 438.88340184184244,125.0672933576281 437.7834018418424,127.5672933576281 435.38340184184244,130.7672933576281 C 432.98340184184246,133.96729335762808 429.68340184184245,137.2672933576281 425.2834018418424,140.5672933576281 C 416.38340184184244,147.16729335762813 402.7834018418424,152.96729335762814 386.08340184184243,156.8672933576281 C 369.58340184184243,160.7672933576281 350.58340184184243,163.06729335762816 330.2834018418424,162.96729335762814 C 309.9834018418424,162.96729335762814 288.38340184184244,161.06729335762816 266.38340184184244,158.16729335762818 C 227.98340184184246,153.36729335762823 188.58340184184243,145.56729335762816 147.98340184184244,144.36729335762817 C 127.78340184184245,143.56729335762816 107.28340184184242,144.56729335762816 86.98340184184244,148.16729335762818 C 66.68340184184244,151.66729335762818 46.88340184184244,158.56729335762816 28.68340184184244,168.7672933576282 C 22.383401841842442,172.36729335762823 16.083401841842445,176.56729335762816 10.78340184184244,182.16729335762818 C 5.4834018418424435,187.66729335762818 1.2834018418424407,195.16729335762818 0.28340184184244066,203.16729335762818 C -0.21659815815755934,207.16729335762818 -0.11659815815755792,211.36729335762823 1.0834018418424378,215.36729335762823 C 2.2834018418424407,219.46729335762825 4.483401841842436,223.16729335762818 7.483401841842436,226.16729335762818 C 13.483401841842436,232.2672933576282 21.58340184184243,234.66729335762818 28.883401841842442,235.16729335762818 C 36.28340184184245,235.7672933576282 43.28340184184245,234.86729335762823 50.083401841842445,233.36729335762823 C 53.48340184184245,232.56729335762827 56.68340184184244,231.56729335762827 59.78340184184245,230.66729335762818 C 62.98340184184245,229.7672933576282 66.08340184184244,228.7672933576282 69.18340184184245,227.56729335762816 C 81.58340184184246,223.2672933576282 93.48340184184246,218.06729335762816 104.78340184184245,212.16729335762818 C 127.38340184184244,200.46729335762814 147.58340184184243,186.2672933576282 166.28340184184245,171.66729335762818 C 184.88340184184244,156.96729335762814 201.98340184184246,141.66729335762818 218.18340184184245,126.56729335762816 C 250.58340184184243,96.46729335762814 280.18340184184245,67.76729335762815 310.88340184184244,44.76729335762815 C 326.08340184184243,33.167293357628125 341.7834018418424,23.06729335762816 357.18340184184245,14.667293357628125 C 364.88340184184244,10.767293357628148 372.88340184184244,7.967293357628137 380.38340184184244,8.367293357628114 C 387.88340184184244,8.767293357628091 395.2834018418424,12.467293357628137 398.38340184184244,18.26729335762809 C 401.58340184184243,24.16729335762807 400.58340184184243,31.96729335762808 397.18340184184245,38.16729335762807 C 393.88340184184244,44.36729335762806 388.08340184184243,49.36729335762806 381.88340184184244,53.46729335762808 C 369.18340184184245,61.5672933576281 355.7834018418424,68.46729335762808 343.08340184184243,74.86729335762806 C 317.38340184184244,87.36729335762806 292.68340184184245,96.26729335762803 269.48340184184246,103.06729335762805 C 222.98340184184246,116.56729335762805 182.78340184184248,120.46729335762802 149.88340184184247,121.46729335762802 C 133.38340184184247,121.76729335762803 118.58340184184246,121.367293357628 105.48340184184246,120.367293357628 C 92.38340184184247,119.26729335762798 80.58340184184246,118.56729335762799 71.08340184184246,115.26729335762798 C 61.483401841842465,112.16729335762795 54.68340184184245,106.06729335762799 51.383401841842456,99.46729335762797 C 47.98340184184245,92.96729335762797 48.08340184184246,85.96729335762797 50.58340184184246,81.46729335762797 C 53.08340184184246,76.86729335762794 56.983401841842465,74.36729335762794 60.08340184184246,73.06729335762799 C 63.28340184184246,71.867293357628 65.98340184184246,71.867293357628 67.98340184184246,72.16729335762801 C 71.88340184184247,72.96729335762802 72.78340184184246,74.16729335762801 72.78340184184246,73.96729335762802 C 72.68340184184247,74.06729335762805 71.88340184184246,72.867293357628 67.98340184184246,71.76729335762803 C 66.08340184184246,71.36729335762806 63.18340184184247,71.16729335762801 59.78340184184246,72.26729335762803 C 56.483401841842465,73.46729335762802 52.28340184184246,75.86729335762806 49.383401841842456,80.76729335762803 C 46.383401841842456,85.66729335762801 46.08340184184246,93.16729335762801 49.48340184184245,100.36729335762806 C 52.78340184184245,107.56729335762805 60.083401841842445,114.36729335762806 70.08340184184246,117.96729335762808 C 80.08340184184246,121.66729335762807 91.88340184184247,122.66729335762807 105.08340184184246,124.0672933576281 C 118.28340184184245,125.36729335762811 133.18340184184245,126.0672933576281 149.88340184184244,126.0672933576281 C 183.18340184184245,125.76729335762809 223.88340184184244,122.36729335762811 271.18340184184245,109.26729335762809 C 294.7834018418425,102.76729335762809 320.08340184184243,93.86729335762811 346.2834018418424,81.46729335762808 C 359.38340184184244,75.0672933576281 372.6834018418424,68.36729335762806 386.1834018418424,59.96729335762808 C 392.8834018418424,55.5672933576281 399.6834018418424,50.0672933576281 404.1834018418424,41.96729335762808 C 406.3834018418424,37.96729335762808 407.7834018418424,33.5672933576281 408.2834018418424,28.867293357628057 C 408.6834018418424,24.16729335762807 407.9834018418424,19.067293357628046 405.58340184184243,14.567293357628046 C 403.18340184184245,10.067293357628046 399.38340184184244,6.467293357628023 394.9834018418424,4.067293357628046 C 390.58340184184243,1.7672933576280343 385.7834018418424,0.36729335762805704 380.8834018418424,0.06729335762804567 C 370.8834018418424,-0.5327066423719771 361.5834018418424,2.967293357628023 353.28340184184236,7.067293357628046 C 336.98340184184235,15.767293357628034 321.18340184184234,25.867293357628057 305.48340184184235,37.567293357628046 C 274.0834018418424,60.86729335762806 244.08340184184237,89.56729335762805 211.68340184184234,119.46729335762802 C 195.48340184184235,134.367293357628 178.58340184184235,149.46729335762802 160.18340184184234,163.867293357628 C 141.78340184184233,178.16729335762795 121.98340184184235,191.867293357628 100.18340184184234,203.16729335762795 C 89.28340184184233,208.867293357628 77.88340184184234,213.867293357628 65.88340184184234,217.9672933576279 C 62.88340184184234,219.06729335762793 59.88340184184234,219.9672933576279 56.88340184184234,220.8672933576279 C 53.88340184184234,221.76729335762786 50.78340184184235,222.76729335762786 47.78340184184235,223.3672933576279 C 41.78340184184235,224.66729335762784 35.583401841842345,225.3672933576279 29.78340184184235,224.8672933576279 C 23.883401841842343,224.4672933576279 18.48340184184235,222.4672933576279 14.883401841842343,218.8672933576279 C 11.18340184184234,215.26729335762786 9.783401841842341,209.9672933576279 10.583401841842345,204.3672933576279 C 11.983401841842344,192.9672933576279 22.18340184184234,184.06729335762793 33.88340184184234,177.56729335762793 C 50.88340184184234,168.06729335762793 69.58340184184235,161.76729335762798 88.78340184184233,158.76729335762798 C 108.08340184184235,155.66729335762795 127.78340184184233,155.26729335762798 147.28340184184233,156.66729335762795 C 186.48340184184235,159.16729335762795 224.58340184184232,168.66729335762795 263.2834018418423,176.26729335762798 C 285.3834018418423,180.66729335762795 307.5834018418423,184.16729335762795 329.3834018418423,185.56729335762793 C 351.0834018418423,187.06729335762793 372.2834018418423,185.9672933576279 391.3834018418423,182.4672933576279 C 410.2834018418423,179.06729335762793 427.8834018418423,173.26729335762786 441.5834018418423,163.9672933576279 C 448.3834018418423,159.3672933576279 454.18340184184234,154.06729335762793 458.4834018418423,148.6672933576279 C 460.5834018418423,145.9672933576279 462.58340184184226,143.06729335762788 464.08340184184226,140.3672933576279 C 465.58340184184226,137.6672933576279 466.6834018418423,135.06729335762788 467.6834018418423,132.6672933576279 C 471.8834018418423,121.26729335762792 472.6834018418423,109.06729335762788 469.2834018418423,97.36729335762789 C 466.08340184184226,85.6672933576279 457.6834018418423,74.96729335762791 446.8834018418423,69.86729335762789 C 425.68340184184234,59.767293357627864 403.18340184184234,68.26729335762786 393.8834018418423,82.46729335762791 C 389.2834018418423,89.36729335762789 387.5834018418423,96.46729335762791 387.3834018418423,102.46729335762791 C 387.18340184184234,108.46729335762791 388.48340184184235,113.56729335762793 390.18340184184234,117.26729335762792 C 393.78340184184236,124.76729335762792 398.28340184184236,126.76729335762792 399.78340184184236,125.6672933576279 C 401.5834018418424,124.46729335762791 400.8834018418424,120.56729335762788 401.48340184184235,114.86729335762789 C 401.98340184184235,109.36729335762789 404.18340184184234,101.06729335762788 410.18340184184234,95.76729335762786 C 413.0834018418423,93.26729335762786 416.68340184184234,91.66729335762784 421.18340184184234,91.26729335762786 C 425.5834018418423,90.86729335762789 430.48340184184235,91.86729335762789 434.0834018418423,94.16729335762784 C 437.4834018418423,96.36729335762783 440.0834018418423,100.06729335762782 441.2834018418423,105.06729335762782 C 442.48340184184246,110.26729335762809 442.08340184184243,116.66729335762813 439.88340184184244,122.5672933576281 M 72.48340184184244,73.0672933576281 C 89.58340184184243,84.46729335762808 78.48340184184244,107.96729335762808 58.88340184184244,102.16729335762813 C 58.68340184184244,102.0672933576281 58.483401841842436,101.96729335762814 58.28340184184245,101.86729335762811 C 41.28340184184245,90.46729335762814 52.28340184184245,66.96729335762814 71.88340184184244,72.76729335762809 C 71.98340184184244,72.76729335762809 72.28340184184245,72.86729335762811 72.48340184184244,73.0672933576281 M 480.98340184184246,122.5672933576281 C 481.98340184184246,125.0672933576281 483.0834018418425,127.5672933576281 485.48340184184246,130.7672933576281 C 487.88340184184244,133.96729335762808 491.1834018418425,137.2672933576281 495.5834018418425,140.5672933576281 C 504.48340184184246,147.16729335762813 518.0834018418425,152.96729335762814 534.7834018418425,156.8672933576281 C 551.2834018418425,160.7672933576281 570.2834018418425,163.06729335762816 590.5834018418425,162.96729335762814 C 610.8834018418424,162.96729335762814 632.4834018418425,161.06729335762816 654.4834018418425,158.16729335762818 C 692.8834018418424,153.3672933576281 732.2834018418424,145.66729335762813 772.8834018418424,144.3672933576281 C 793.0834018418425,143.5672933576281 813.5834018418425,144.5672933576281 833.8834018418424,148.16729335762813 C 854.1834018418424,151.66729335762807 873.9834018418425,158.56729335762816 892.1834018418424,168.7672933576281 C 898.4834018418424,172.3672933576281 904.7834018418424,176.56729335762805 910.0834018418424,182.16729335762807 C 915.3834018418423,187.66729335762807 919.5834018418424,195.16729335762807 920.5834018418424,203.16729335762807 C 921.0834018418424,207.16729335762807 920.9834018418424,211.3672933576281 919.7834018418424,215.3672933576281 C 918.5834018418424,219.46729335762814 916.3834018418424,223.16729335762807 913.3834018418424,226.16729335762807 C 907.3834018418424,232.2672933576281 899.2834018418424,234.66729335762807 891.9834018418425,235.16729335762807 C 884.5834018418425,235.7672933576281 877.5834018418425,234.8672933576281 870.7834018418424,233.3672933576281 C 867.3834018418424,232.56729335762816 864.1834018418424,231.56729335762816 861.0834018418424,230.66729335762807 C 857.8834018418423,229.7672933576281 854.7834018418424,228.7672933576281 851.6834018418424,227.56729335762805 C 839.2834018418424,223.2672933576281 827.3834018418424,218.06729335762805 816.0834018418424,212.16729335762807 C 793.4834018418424,200.46729335762802 773.2834018418424,186.2672933576281 754.5834018418424,171.66729335762807 C 735.9834018418424,156.96729335762802 718.8834018418423,141.66729335762807 702.6834018418424,126.56729335762805 C 670.2834018418424,96.46729335762802 640.6834018418424,67.76729335762803 609.9834018418424,44.767293357628034 C 594.7834018418423,33.16729335762801 579.0834018418424,23.067293357628046 563.6834018418424,14.667293357628012 C 555.9834018418424,10.767293357628034 547.9834018418424,7.967293357628023 540.4834018418424,8.367293357628 C 532.9834018418424,8.767293357627977 525.5834018418424,12.467293357628023 522.4834018418424,18.267293357627977 C 519.2834018418423,24.167293357627955 520.2834018418423,31.967293357627966 523.6834018418424,38.167293357627955 C 526.9834018418424,44.36729335762794 532.7834018418424,49.36729335762794 538.9834018418424,53.467293357627966 C 551.6834018418424,61.56729335762799 565.0834018418424,68.46729335762797 577.7834018418423,74.86729335762794 C 603.4834018418424,87.36729335762794 628.1834018418423,96.26729335762792 651.3834018418423,103.06729335762793 C 697.8834018418423,116.56729335762793 738.0834018418424,120.46729335762791 770.9834018418424,121.46729335762791 C 787.4834018418424,121.76729335762792 802.2834018418423,121.36729335762789 815.3834018418423,120.36729335762789 C 828.4834018418424,119.26729335762786 840.2834018418423,118.56729335762788 849.7834018418423,115.26729335762786 C 859.3834018418423,112.16729335762784 866.1834018418423,106.06729335762788 869.4834018418424,99.46729335762785 C 872.8834018418423,92.96729335762785 872.7834018418423,85.96729335762785 870.2834018418423,81.46729335762785 C 867.7834018418423,76.86729335762783 863.8834018418423,74.36729335762783 860.7834018418423,73.06729335762788 C 857.5834018418423,71.86729335762789 854.8834018418423,71.86729335762789 852.8834018418423,72.1672933576279 C 848.9834018418424,72.96729335762791 848.0834018418424,74.1672933576279 848.0834018418424,73.96729335762791 C 848.1834018418424,74.06729335762793 848.9834018418424,72.86729335762789 852.8834018418423,71.76729335762792 C 854.7834018418423,71.36729335762794 857.6834018418423,71.1672933576279 861.0834018418424,72.26729335762792 C 864.3834018418423,73.46729335762791 868.5834018418424,75.86729335762794 871.4834018418424,80.76729335762792 C 874.4834018418424,85.6672933576279 874.7834018418423,93.1672933576279 871.3834018418423,100.36729335762794 C 868.0834018418424,107.56729335762793 860.7834018418423,114.36729335762794 850.7834018418423,117.96729335762797 C 840.7834018418423,121.66729335762795 828.9834018418424,122.66729335762795 815.7834018418423,124.06729335762799 C 802.5834018418423,125.367293357628 787.6834018418423,126.06729335762799 770.9834018418424,126.06729335762799 C 737.6834018418424,125.76729335762798 696.9834018418424,122.367293357628 649.6834018418424,109.26729335762798 C 626.0834018418424,102.76729335762798 600.7834018418424,93.867293357628 574.5834018418424,81.46729335762797 C 561.4834018418424,75.06729335762799 548.1834018418424,68.36729335762794 534.6834018418424,59.967293357627966 C 527.9834018418424,55.56729335762799 521.1834018418424,50.06729335762799 516.6834018418424,41.967293357627966 C 514.4834018418424,37.967293357627966 513.0834018418424,33.56729335762799 512.5834018418424,28.867293357627943 C 512.1834018418424,24.167293357627955 512.8834018418423,19.067293357627932 515.2834018418424,14.567293357627932 C 517.6834018418424,10.067293357627932 521.4834018418425,6.467293357627909 525.8834018418424,4.067293357627932 C 530.2834018418424,1.7672933576279206 535.0834018418425,0.36729335762794335 539.9834018418425,0.06729335762793198 C 549.9834018418425,-0.5327066423720908 559.2834018418424,2.9672933576279092 567.5834018418425,7.067293357627932 C 583.8834018418424,15.76729335762792 599.6834018418425,25.867293357627943 615.3834018418424,37.56729335762793 C 646.7834018418424,60.86729335762794 676.7834018418424,89.56729335762793 709.1834018418424,119.46729335762791 C 725.3834018418424,134.3672933576279 742.2834018418424,149.4672933576279 760.6834018418424,163.8672933576279 C 779.0834018418424,178.16729335762784 798.8834018418424,191.8672933576279 820.6834018418424,203.16729335762784 C 831.5834018418424,208.8672933576279 842.9834018418424,213.8672933576279 854.9834018418424,217.9672933576278 C 857.9834018418424,219.06729335762782 860.9834018418424,219.9672933576278 863.9834018418424,220.86729335762777 C 866.9834018418424,221.76729335762775 870.0834018418424,222.76729335762775 873.0834018418424,223.36729335762777 C 879.0834018418424,224.66729335762773 885.2834018418424,225.36729335762777 891.0834018418424,224.86729335762777 C 896.9834018418424,224.4672933576278 902.3834018418423,222.4672933576278 905.9834018418424,218.86729335762777 C 909.6834018418424,215.26729335762775 911.0834018418424,209.9672933576278 910.2834018418423,204.36729335762777 C 908.8834018418423,192.9672933576278 898.6834018418423,184.06729335762782 886.9834018418424,177.56729335762782 C 869.9834018418424,168.06729335762782 851.2834018418423,161.76729335762786 832.0834018418424,158.76729335762786 C 812.7834018418424,155.66729335762784 793.0834018418424,155.26729335762786 773.5834018418424,156.66729335762784 C 734.3834018418423,159.16729335762784 696.2834018418424,168.66729335762784 657.4834018418424,176.26729335762786 C 635.3834018418423,180.66729335762784 613.1834018418424,184.16729335762784 591.3834018418423,185.56729335762782 C 569.6834018418423,187.06729335762782 548.4834018418424,185.9672933576278 529.3834018418423,182.4672933576278 C 510.48340184184235,179.06729335762782 492.8834018418423,173.26729335762775 479.1834018418423,163.9672933576278 C 472.3834018418423,159.36729335762777 466.58340184184226,154.06729335762782 462.2834018418423,148.66729335762778 C 460.1834018418423,145.9672933576278 458.1834018418423,143.06729335762776 456.6834018418423,140.36729335762777 C 455.1834018418423,137.66729335762778 454.08340184184226,135.06729335762776 453.08340184184226,132.66729335762778 C 448.88340184184227,121.2672933576278 448.08340184184226,109.06729335762776 451.48340184184224,97.36729335762777 C 454.6834018418422,85.66729335762778 463.08340184184226,74.9672933576278 473.8834018418422,69.86729335762777 C 495.08340184184226,59.76729335762775 517.5834018418423,68.26729335762775 526.8834018418422,82.4672933576278 C 531.4834018418422,89.36729335762777 533.1834018418422,96.4672933576278 533.3834018418422,102.4672933576278 C 533.5834018418423,108.4672933576278 532.1834018418422,113.56729335762782 530.5834018418423,117.2672933576278 C 526.9834018418422,124.7672933576278 522.4834018418422,126.7672933576278 520.9834018418422,125.66729335762778 C 519.1834018418423,124.4672933576278 519.8834018418422,120.56729335762776 519.2834018418422,114.86729335762777 C 518.7834018418422,109.36729335762777 516.5834018418421,101.06729335762776 510.58340184184215,95.76729335762775 C 507.68340184184217,93.26729335762775 504.08340184184215,91.66729335762773 499.58340184184215,91.26729335762775 C 495.18340184184217,90.86729335762777 490.2834018418422,91.86729335762777 486.68340184184217,94.16729335762773 C 483.2834018418422,96.36729335762772 480.68340184184217,100.0672933576277 479.4834018418421,105.0672933576277 C 478.38340184184244,110.26729335762809 478.7834018418424,116.66729335762813 480.98340184184246,122.5672933576281 M 848.4834018418425,73.0672933576281 C 831.3834018418424,84.46729335762808 842.4834018418425,107.96729335762808 862.0834018418425,102.16729335762813 C 862.2834018418425,102.0672933576281 862.4834018418425,101.96729335762814 862.6834018418425,101.86729335762811 C 879.6834018418425,90.46729335762814 868.6834018418425,66.96729335762814 849.0834018418425,72.76729335762809 C 848.8834018418424,72.76729335762809 848.6834018418424,72.86729335762811 848.4834018418425,73.0672933576281"/>
</svg>
