<?xml version="1.0" ?>
<svg xmlns="http://www.w3.org/2000/svg" xmlns:ev="http://www.w3.org/2001/xml-events" xmlns:xlink="http://www.w3.org/1999/xlink" baseProfile="full" enable-background="new 0 0 1000 1000" height="368" id="Layer_1" transform="scale(0.2717391304347826 0.2717391304347826) translate(-439.5 -184.0)" version="1.1" viewBox="0 0 879 368" width="879" x="0px" xml:space="preserve" y="0px">
	<defs/>
	<path d="M 456.69999999999993,9.95555555555552 C 449.0999999999999,14.255555555555532 434.99999999999994,24.055555555555543 423.49999999999994,41.55555555555554 C 411.8999999999999,58.95555555555552 404.99999999999994,82.75555555555553 405.49999999999994,106.25555555555553 C 405.69999999999993,126.85555555555555 410.09999999999997,146.85555555555555 417.49999999999994,165.55555555555554 C 424.99999999999994,184.2555555555556 435.49999999999994,201.3555555555555 447.5999999999999,217.15555555555557 C 464.5999999999999,239.15555555555557 483.5999999999999,256.9555555555555 502.79999999999995,271.9555555555555 C 505.19999999999993,273.8555555555555 507.5,275.7555555555555 509.79999999999995,277.65555555555557 C 512.1999999999999,279.4555555555555 514.5999999999999,281.15555555555557 517.0,282.8555555555556 C 521.8,286.2555555555556 526.5,289.65555555555557 531.2,293.05555555555566 C 536.0,296.1555555555557 540.8000000000001,299.1555555555557 545.5,302.05555555555566 C 550.2,305.05555555555566 554.8,307.95555555555563 559.6,310.3555555555556 C 597.1,331.3555555555556 632.5,344.45555555555563 663.9,352.7555555555556 C 727.0,369.15555555555557 773.6,368.65555555555557 805.5,366.55555555555554 C 813.5,365.7555555555556 820.6,365.05555555555554 827.0,364.4555555555555 C 833.3,363.4555555555555 838.9,362.55555555555554 843.8,361.7555555555555 C 853.5999999999999,360.3555555555555 860.5999999999999,358.3555555555555 865.6999999999999,357.15555555555545 C 875.8,354.65555555555545 878.0999999999999,353.8555555555555 878.0999999999999,353.8555555555555 C 878.0999999999999,353.8555555555555 875.5999999999999,353.9555555555555 865.3,355.4555555555555 C 860.0999999999999,356.15555555555557 853.0999999999999,357.4555555555555 843.3,358.2555555555555 C 838.4,358.7555555555555 832.9,359.2555555555555 826.5999999999999,359.8555555555555 C 820.3,360.15555555555545 813.1999999999999,360.4555555555555 805.3,360.7555555555555 C 773.8,361.3555555555555 728.0999999999999,360.15555555555545 666.6999999999999,342.9555555555555 C 636.0999999999999,334.15555555555557 601.9,320.9555555555555 565.5999999999999,300.05555555555554 C 560.9999999999999,297.55555555555554 556.4999999999999,294.7555555555556 551.9999999999999,291.7555555555556 C 547.4999999999999,288.8555555555556 542.8999999999999,285.8555555555556 538.1999999999999,282.8555555555556 C 533.6999999999999,279.55555555555566 529.1999999999999,276.2555555555556 524.4999999999999,272.8555555555556 C 522.1999999999999,271.15555555555557 519.8999999999999,269.45555555555563 517.4999999999999,267.7555555555556 C 515.2999999999998,265.8555555555556 512.9999999999999,264.05555555555554 510.69999999999993,262.15555555555557 C 492.19999999999993,247.45555555555552 473.9,230.05555555555554 457.9999999999999,209.2555555555556 C 446.69999999999993,194.3555555555556 437.5999999999999,177.7555555555556 432.2999999999999,160.3555555555556 C 427.0999999999999,143.0555555555556 425.6999999999999,124.75555555555559 428.5999999999999,107.85555555555561 C 431.69999999999993,88.5555555555556 440.39999999999986,71.65555555555562 449.89999999999986,61.35555555555561 C 459.4999999999999,50.75555555555559 469.6999999999998,45.25555555555559 474.79999999999984,42.455555555555634 C 487.0999999999998,35.65555555555562 498.89999999999986,31.255555555555645 508.4999999999999,28.455555555555634 C 517.9999999999999,25.455555555555634 525.6999999999999,23.455555555555634 527.3999999999999,18.35555555555561 C 528.9999999999999,13.755555555555588 523.1999999999998,6.1555555555556225 509.4999999999999,2.1555555555556225 C 496.0,-2.04444444444448 475.29999999999995,-0.4444444444445139 456.69999999999993,9.95555555555552 M 561.3,112.45555555555552 C 557.6999999999999,119.15555555555551 553.0,129.95555555555552 553.5,143.75555555555553 C 553.9,157.45555555555552 558.4,172.55555555555554 569.1,186.05555555555554 C 579.6,199.65555555555557 596.2,208.8555555555555 613.7,212.65555555555557 C 622.5,214.3555555555556 631.7,215.2555555555556 640.9000000000001,214.05555555555554 C 645.5000000000001,213.8555555555555 650.1000000000001,212.55555555555554 654.6000000000001,211.65555555555557 C 659.1000000000001,210.05555555555554 663.6000000000001,208.95555555555552 667.8000000000002,206.65555555555557 C 675.4000000000002,203.3555555555556 682.2000000000002,197.95555555555552 688.2000000000002,192.15555555555557 L 695.7000000000002,183.45555555555552 C 698.0000000000001,180.3555555555555 700.3000000000002,177.25555555555547 702.5000000000001,174.05555555555554 C 711.0000000000001,161.05555555555554 717.0000000000001,145.75555555555553 717.6000000000001,129.55555555555554 C 717.9000000000001,121.55555555555554 716.7000000000002,113.55555555555554 714.6000000000001,105.85555555555555 C 712.3000000000002,98.25555555555553 708.9000000000001,91.05555555555554 704.8000000000002,84.45555555555558 C 696.3000000000002,71.35555555555555 684.9000000000002,60.5555555555556 672.1000000000001,52.355555555555554 C 654.1000000000001,40.855555555555554 633.9000000000001,34.05555555555554 613.6000000000001,33.05555555555554 C 593.5000000000001,31.95555555555552 573.0000000000001,36.655555555555566 556.9000000000001,46.55555555555554 C 548.7,51.05555555555554 541.3000000000001,56.45555555555552 534.1000000000001,62.05555555555554 C 527.1000000000001,67.95555555555552 520.6000000000001,74.15555555555557 515.0000000000001,81.15555555555557 C 503.80000000000007,94.95555555555558 496.0000000000001,111.05555555555554 492.5000000000001,127.55555555555554 C 489.0000000000001,144.05555555555554 489.70000000000016,160.55555555555554 493.20000000000016,175.75555555555553 C 496.70000000000016,190.95555555555552 502.8000000000002,204.8555555555555 510.3000000000002,217.15555555555557 C 525.5000000000002,241.7555555555556 545.8000000000002,260.05555555555554 566.7000000000002,273.2555555555556 C 608.3000000000002,298.95555555555563 647.3000000000002,314.05555555555554 681.1000000000001,323.95555555555563 C 715.1000000000001,333.6555555555557 744.0000000000001,338.1555555555557 767.8000000000002,340.3555555555556 C 791.7000000000002,342.55555555555566 810.6000000000001,342.65555555555557 825.5000000000002,342.05555555555566 C 840.3000000000002,341.6555555555557 851.1000000000003,340.3555555555556 858.9000000000002,339.6555555555557 C 874.4000000000002,337.45555555555563 877.9000000000002,336.7555555555557 877.9000000000002,336.7555555555557 C 877.9000000000002,336.7555555555557 874.2000000000002,336.7555555555557 858.7000000000002,337.8555555555557 C 850.9000000000002,338.05555555555577 840.2000000000002,338.7555555555557 825.5000000000001,338.45555555555575 C 810.8000000000001,338.3555555555557 792.0000000000001,337.55555555555577 768.5000000000001,334.55555555555577 C 745.0000000000001,331.55555555555577 716.6000000000001,326.3555555555557 683.4000000000001,316.1555555555558 C 650.4000000000001,305.7555555555558 612.3000000000001,290.1555555555558 572.1000000000001,264.55555555555577 C 552.5000000000001,251.85555555555572 533.6000000000001,234.25555555555582 519.8000000000002,211.25555555555582 C 513.0000000000002,199.75555555555582 507.5000000000002,186.95555555555586 504.4000000000002,173.1555555555558 C 501.4000000000002,159.35555555555578 501.0000000000002,144.55555555555577 504.10000000000025,129.9555555555558 C 507.3000000000003,115.35555555555578 514.2000000000003,101.1555555555558 524.4000000000002,88.85555555555578 C 529.5000000000002,82.6555555555558 535.4000000000002,77.05555555555577 541.8000000000002,71.6555555555558 C 548.4000000000002,66.55555555555577 555.3000000000002,61.55555555555577 563.0000000000002,57.455555555555804 C 577.6000000000003,48.55555555555583 594.9000000000002,44.755555555555816 612.8000000000002,45.755555555555816 C 630.7000000000002,46.755555555555816 648.9000000000002,52.85555555555584 664.9000000000002,63.255555555555816 C 676.4000000000002,70.6555555555558 686.2000000000002,80.4555555555558 693.1000000000003,91.75555555555582 C 696.4000000000002,97.4555555555558 699.0000000000002,103.55555555555583 700.6000000000003,109.75555555555582 C 702.0000000000002,116.05555555555583 702.6000000000003,122.35555555555584 702.0000000000002,128.6555555555558 C 700.8000000000002,141.25555555555582 695.1000000000003,153.05555555555577 687.2000000000003,163.1555555555558 L 680.8000000000003,170.4555555555558 L 673.7000000000003,177.1555555555558 C 669.1000000000003,180.55555555555577 664.4000000000003,183.75555555555582 658.8000000000003,185.35555555555584 C 655.8000000000003,186.6555555555558 652.4000000000003,186.95555555555586 649.3000000000003,187.75555555555582 C 646.0000000000003,187.95555555555586 642.8000000000003,188.55555555555577 639.5000000000003,188.25555555555582 C 633.0000000000003,188.35555555555584 626.6000000000004,186.95555555555586 620.8000000000003,185.1555555555558 C 609.3000000000003,181.1555555555558 600.0000000000003,174.25555555555582 595.4000000000003,166.35555555555578 C 590.5000000000003,158.75555555555576 589.0000000000003,150.05555555555577 589.4000000000003,144.05555555555577 C 589.6000000000004,137.85555555555578 592.1000000000004,133.6555555555558 593.5000000000003,130.75555555555576 C 597.5000000000003,124.15555555555574 603.6000000000004,118.85555555555578 609.6000000000004,116.95555555555575 C 615.6000000000004,114.95555555555575 621.7000000000004,115.35555555555572 627.7000000000004,117.35555555555572 C 629.1000000000004,118.05555555555571 630.6000000000004,118.55555555555571 632.0000000000003,119.15555555555574 C 633.5000000000003,119.65555555555574 634.6000000000004,120.75555555555576 636.0000000000003,121.35555555555572 C 637.3000000000003,122.05555555555571 638.6000000000004,122.7555555555557 639.8000000000003,123.35555555555572 C 641.0000000000003,124.05555555555571 642.0000000000003,124.85555555555572 643.0000000000003,125.45555555555575 C 647.1000000000004,127.95555555555575 650.7000000000004,129.05555555555577 653.0000000000003,127.85555555555572 C 655.3000000000003,126.65555555555574 656.1000000000004,123.2555555555557 655.1000000000004,117.45555555555575 C 654.8000000000004,116.05555555555577 654.6000000000004,114.35555555555572 654.0000000000003,112.75555555555576 C 653.3000000000003,111.15555555555574 652.5000000000003,109.35555555555578 651.5000000000003,107.55555555555577 C 650.5000000000003,105.75555555555576 649.6000000000004,103.55555555555577 648.0000000000003,101.75555555555576 C 646.4000000000003,99.85555555555578 644.7000000000004,97.85555555555578 642.7000000000004,95.85555555555578 C 640.9000000000004,93.6555555555558 638.1000000000004,92.1555555555558 635.5000000000003,90.35555555555578 C 632.9000000000003,88.35555555555578 629.7000000000004,87.1555555555558 626.3000000000003,85.85555555555578 C 622.9000000000003,84.35555555555578 619.2000000000003,83.85555555555578 615.3000000000003,83.35555555555578 C 611.4000000000003,82.55555555555577 607.4000000000003,83.1555555555558 603.2000000000003,83.4555555555558 C 586.5999999999999,85.3555555555555 570.5999999999999,96.45555555555552 561.3,112.45555555555552 M 523.4,157.8555555555555 C 523.4,157.8555555555555 525.6999999999999,161.6555555555555 529.8,168.3555555555555 C 534.1999999999999,174.8555555555555 540.4,184.05555555555554 549.3,194.15555555555545 C 558.1999999999999,204.15555555555545 569.4,215.05555555555543 582.8,225.15555555555545 C 596.1999999999999,235.25555555555547 611.6999999999999,244.3555555555555 628.1999999999999,251.4555555555554 C 661.0999999999999,266.15555555555545 697.9,270.05555555555543 726.0999999999999,267.75555555555536 C 754.4999999999999,265.5555555555553 774.3999999999999,258.65555555555534 779.5999999999999,256.8555555555554 C 797.3,250.85555555555538 810.5999999999999,246.35555555555538 820.4999999999999,244.4555555555554 C 830.3999999999999,242.55555555555543 836.8999999999999,243.4555555555554 839.2999999999998,247.15555555555545 C 841.5999999999998,250.75555555555547 839.3999999999999,257.2555555555555 831.2999999999998,264.8555555555555 C 823.2999999999998,272.3555555555555 809.1999999999998,280.9555555555555 788.7999999999998,285.9555555555555 C 782.6999999999998,287.4555555555555 759.1999999999998,293.2555555555555 727.2999999999998,292.65555555555557 C 695.5999999999998,292.2555555555556 655.5999999999998,283.7555555555556 622.0999999999998,264.65555555555557 C 605.2999999999998,255.3555555555556 589.8999999999997,244.2555555555556 577.0999999999998,232.3555555555556 C 564.1999999999998,220.55555555555566 553.7999999999998,208.15555555555557 545.7999999999998,197.05555555555566 C 537.6999999999998,185.95555555555563 532.3999999999999,175.95555555555563 528.6999999999998,169.05555555555566 C 525.3,161.8555555555555 523.4,157.8555555555555 523.4,157.8555555555555 M 653.4,238.95555555555552 C 653.4,238.95555555555552 656.1,238.95555555555552 660.8,239.05555555555554 C 665.5,238.8555555555555 672.3,238.65555555555557 680.3,237.45555555555552 C 696.3,235.25555555555547 717.4,229.05555555555554 735.9,218.05555555555554 C 754.6999999999999,207.3555555555555 770.1,191.8555555555555 779.9,178.2555555555556 C 789.8,164.5555555555556 794.6,153.15555555555557 795.9,150.15555555555557 C 800.3,140.05555555555554 804.6,133.05555555555554 809.1999999999999,128.55555555555554 C 813.8,124.05555555555554 818.6999999999999,122.15555555555557 822.9,123.25555555555553 C 827.1,124.35555555555555 830.4,128.55555555555554 831.1,135.75555555555553 C 831.9,142.85555555555555 829.9,153.05555555555554 823.0,164.25555555555553 C 820.9,167.6555555555555 812.9,180.3555555555555 798.9,194.3555555555555 C 785.0,208.3555555555555 764.5,222.95555555555552 742.3,231.15555555555545 C 720.1999999999999,239.75555555555547 697.3,242.4555555555554 680.5999999999999,242.05555555555543 C 672.1999999999999,241.9555555555554 665.3999999999999,241.05555555555543 660.5999999999999,240.35555555555538 C 656.0999999999999,239.3555555555555 653.4,238.95555555555552 653.4,238.95555555555552 M 421.4,9.95555555555552 C 429.0,14.255555555555532 443.1,24.055555555555543 454.6,41.55555555555554 C 466.20000000000005,58.95555555555552 473.1,82.75555555555553 472.6,106.25555555555553 C 472.4,126.85555555555555 468.0,146.85555555555555 460.6,165.55555555555554 C 453.1,184.2555555555556 442.6,201.3555555555555 430.5,217.15555555555557 C 413.5,239.15555555555557 394.5,256.9555555555555 375.3,271.9555555555555 C 372.90000000000003,273.8555555555555 370.6,275.7555555555555 368.3,277.65555555555557 C 365.90000000000003,279.4555555555555 363.5,281.15555555555557 361.1,282.8555555555556 C 356.3,286.2555555555556 351.6,289.65555555555557 346.90000000000003,293.05555555555566 C 342.1,296.1555555555557 337.3,299.1555555555557 332.6,302.05555555555566 C 327.90000000000003,305.05555555555566 323.3,307.95555555555563 318.5,310.3555555555556 C 281.0,331.3555555555556 245.60000000000002,344.45555555555563 214.2,352.7555555555556 C 151.1,369.15555555555557 104.5,368.65555555555557 72.6,366.55555555555554 C 64.6,365.7555555555556 57.5,365.05555555555554 51.099999999999994,364.4555555555555 C 44.8,363.4555555555555 39.19999999999999,362.55555555555554 34.3,361.7555555555555 C 24.5,360.3555555555555 17.5,358.3555555555555 12.400000000000006,357.15555555555545 C 2.3000000000000114,354.65555555555545 0.0,353.8555555555555 0.0,353.8555555555555 C 0.0,353.8555555555555 2.5,353.9555555555555 12.799999999999997,355.4555555555555 C 18.0,356.15555555555557 25.0,357.4555555555555 34.8,358.2555555555555 C 39.7,358.7555555555555 45.2,359.2555555555555 51.5,359.8555555555555 C 57.80000000000001,360.15555555555545 64.9,360.4555555555555 72.80000000000001,360.7555555555555 C 104.30000000000001,361.3555555555555 150.0,360.15555555555545 211.39999999999998,342.9555555555555 C 242.0,334.15555555555557 276.2,320.9555555555555 312.5,300.05555555555554 C 317.1,297.55555555555554 321.6,294.7555555555556 326.1,291.7555555555556 C 330.6,288.8555555555556 335.20000000000005,285.8555555555556 339.90000000000003,282.8555555555556 C 344.40000000000003,279.55555555555566 348.90000000000003,276.2555555555556 353.6,272.8555555555556 C 355.90000000000003,271.15555555555557 358.20000000000005,269.45555555555563 360.6,267.7555555555556 C 362.8,265.8555555555556 365.1,264.05555555555554 367.40000000000003,262.15555555555557 C 385.90000000000003,247.45555555555552 404.20000000000005,230.05555555555554 420.1,209.2555555555556 C 431.40000000000003,194.3555555555556 440.5,177.7555555555556 445.80000000000007,160.3555555555556 C 451.0000000000001,143.0555555555556 452.4000000000001,124.75555555555559 449.5000000000001,107.85555555555561 C 446.4000000000001,88.5555555555556 437.7000000000001,71.65555555555562 428.2000000000001,61.35555555555561 C 418.6000000000001,50.75555555555559 408.4000000000001,45.25555555555559 403.3000000000001,42.455555555555634 C 391.0000000000001,35.65555555555562 379.2000000000001,31.255555555555645 369.60000000000014,28.455555555555634 C 360.10000000000014,25.455555555555634 352.40000000000015,23.455555555555634 350.70000000000016,18.35555555555561 C 349.10000000000014,13.755555555555588 354.90000000000015,6.1555555555556225 368.60000000000014,2.1555555555556225 C 382.19999999999993,-2.04444444444448 402.9,-0.4444444444445139 421.4,9.95555555555552 M 316.9,112.45555555555552 C 320.5,119.15555555555551 325.2,129.95555555555552 324.7,143.75555555555553 C 324.3,157.45555555555552 319.8,172.55555555555554 309.09999999999997,186.05555555555554 C 298.59999999999997,199.65555555555557 281.99999999999994,208.8555555555555 264.49999999999994,212.65555555555557 C 255.69999999999993,214.3555555555556 246.49999999999994,215.2555555555556 237.29999999999995,214.05555555555554 C 232.69999999999993,213.8555555555555 228.09999999999997,212.55555555555554 223.59999999999997,211.65555555555557 C 219.09999999999997,210.05555555555554 214.59999999999997,208.95555555555552 210.39999999999998,206.65555555555557 C 202.79999999999995,203.3555555555556 196.0,197.95555555555552 190.0,192.15555555555557 L 182.5,183.45555555555552 C 180.2,180.3555555555555 177.9,177.25555555555547 175.7,174.05555555555554 C 167.2,161.05555555555554 161.2,145.75555555555553 160.6,129.55555555555554 C 160.29999999999998,121.55555555555554 161.5,113.55555555555554 163.6,105.85555555555555 C 165.9,98.25555555555553 169.29999999999998,91.05555555555554 173.4,84.45555555555558 C 181.9,71.35555555555555 193.3,60.5555555555556 206.10000000000002,52.355555555555554 C 224.10000000000002,40.855555555555554 244.3,34.05555555555554 264.6,33.05555555555554 C 284.70000000000005,31.95555555555552 305.20000000000005,36.655555555555566 321.3,46.55555555555554 C 329.5,51.05555555555554 336.90000000000003,56.45555555555552 344.1,62.05555555555554 C 351.1,67.95555555555552 357.6,74.15555555555557 363.20000000000005,81.15555555555557 C 374.40000000000003,94.95555555555558 382.20000000000005,111.05555555555554 385.70000000000005,127.55555555555554 C 389.20000000000005,144.05555555555554 388.50000000000006,160.55555555555554 385.00000000000006,175.75555555555553 C 381.50000000000006,190.95555555555552 375.40000000000003,204.8555555555555 367.90000000000003,217.15555555555557 C 352.70000000000005,241.7555555555556 332.40000000000003,260.05555555555554 311.50000000000006,273.2555555555556 C 269.90000000000003,298.95555555555563 230.9000000000001,314.05555555555554 197.10000000000002,323.95555555555563 C 163.10000000000002,333.6555555555557 134.20000000000002,338.1555555555557 110.40000000000003,340.3555555555556 C 86.50000000000003,342.55555555555566 67.60000000000002,342.65555555555557 52.70000000000003,342.05555555555566 C 37.900000000000034,341.6555555555557 27.100000000000023,340.3555555555556 19.30000000000004,339.6555555555557 C 3.80000000000004,337.45555555555563 0.3000000000000398,336.7555555555557 0.3000000000000398,336.7555555555557 C 0.3000000000000398,336.7555555555557 4.000000000000043,336.7555555555557 19.500000000000043,337.8555555555557 C 27.30000000000004,338.05555555555577 38.00000000000004,338.7555555555557 52.700000000000045,338.45555555555575 C 67.40000000000003,338.3555555555557 86.20000000000005,337.55555555555577 109.70000000000005,334.55555555555577 C 133.20000000000005,331.55555555555577 161.60000000000005,326.3555555555557 194.80000000000007,316.1555555555558 C 227.80000000000007,305.7555555555558 265.9000000000001,290.1555555555558 306.1000000000001,264.55555555555577 C 325.7000000000001,251.85555555555572 344.6000000000001,234.25555555555582 358.4000000000001,211.25555555555582 C 365.2000000000001,199.75555555555582 370.7000000000001,186.95555555555586 373.80000000000007,173.1555555555558 C 376.80000000000007,159.35555555555578 377.20000000000005,144.55555555555577 374.1000000000001,129.9555555555558 C 370.9000000000001,115.35555555555578 364.00000000000006,101.1555555555558 353.80000000000007,88.85555555555578 C 348.70000000000005,82.6555555555558 342.80000000000007,77.05555555555577 336.4000000000001,71.6555555555558 C 329.80000000000007,66.55555555555577 322.9000000000001,61.55555555555577 315.2000000000001,57.455555555555804 C 300.6000000000001,48.55555555555583 283.3000000000001,44.755555555555816 265.4000000000001,45.755555555555816 C 247.5000000000001,46.755555555555816 229.30000000000007,52.85555555555584 213.30000000000007,63.255555555555816 C 201.80000000000007,70.6555555555558 192.00000000000006,80.4555555555558 185.10000000000008,91.75555555555582 C 181.80000000000007,97.4555555555558 179.20000000000007,103.55555555555583 177.60000000000008,109.75555555555582 C 176.20000000000007,116.05555555555583 175.60000000000008,122.35555555555584 176.20000000000007,128.6555555555558 C 177.40000000000006,141.25555555555582 183.10000000000008,153.05555555555577 191.00000000000006,163.1555555555558 L 197.40000000000003,170.4555555555558 L 204.50000000000006,177.1555555555558 C 209.10000000000008,180.55555555555577 213.80000000000007,183.75555555555582 219.40000000000003,185.35555555555584 C 222.40000000000003,186.6555555555558 225.8,186.95555555555586 228.90000000000003,187.75555555555582 C 232.20000000000005,187.95555555555586 235.40000000000003,188.55555555555577 238.70000000000005,188.25555555555582 C 245.20000000000005,188.35555555555584 251.60000000000002,186.95555555555586 257.40000000000003,185.1555555555558 C 268.90000000000003,181.1555555555558 278.20000000000005,174.25555555555582 282.8,166.35555555555578 C 287.7,158.75555555555576 289.2,150.05555555555577 288.8,144.05555555555577 C 288.6,137.85555555555578 286.1,133.6555555555558 284.7,130.75555555555576 C 280.7,124.15555555555574 274.59999999999997,118.85555555555578 268.59999999999997,116.95555555555575 C 262.59999999999997,114.95555555555575 256.49999999999994,115.35555555555572 250.49999999999994,117.35555555555572 C 249.09999999999997,118.05555555555571 247.59999999999997,118.55555555555571 246.19999999999993,119.15555555555574 C 244.69999999999993,119.65555555555574 243.5999999999999,120.75555555555576 242.19999999999993,121.35555555555572 C 240.89999999999992,122.05555555555571 239.5999999999999,122.7555555555557 238.39999999999992,123.35555555555572 C 237.19999999999993,124.05555555555571 236.19999999999993,124.85555555555572 235.19999999999993,125.45555555555575 C 231.0999999999999,127.95555555555575 227.49999999999994,129.05555555555577 225.19999999999993,127.85555555555572 C 222.89999999999992,126.65555555555574 222.0999999999999,123.2555555555557 223.0999999999999,117.45555555555575 C 223.39999999999992,116.05555555555577 223.5999999999999,114.35555555555572 224.19999999999993,112.75555555555576 C 224.89999999999992,111.15555555555574 225.69999999999993,109.35555555555578 226.69999999999993,107.55555555555577 C 227.69999999999993,105.75555555555576 228.5999999999999,103.55555555555577 230.19999999999993,101.75555555555576 C 231.79999999999995,99.85555555555578 233.49999999999994,97.85555555555578 235.49999999999994,95.85555555555578 C 237.29999999999995,93.6555555555558 240.09999999999997,92.1555555555558 242.69999999999993,90.35555555555578 C 245.29999999999995,88.35555555555578 248.49999999999994,87.1555555555558 251.89999999999992,85.85555555555578 C 255.2999999999999,84.35555555555578 258.99999999999994,83.85555555555578 262.8999999999999,83.35555555555578 C 266.7999999999999,82.55555555555577 270.7999999999999,83.1555555555558 274.99999999999994,83.4555555555558 C 291.59999999999997,85.3555555555555 307.49999999999994,96.45555555555552 316.9,112.45555555555552 M 354.79999999999995,157.8555555555555 C 354.79999999999995,157.8555555555555 352.49999999999994,161.6555555555555 348.4,168.3555555555555 C 344.0,174.8555555555555 337.79999999999995,184.05555555555554 328.9,194.15555555555545 C 320.0,204.15555555555545 308.79999999999995,215.05555555555543 295.4,225.15555555555545 C 282.0,235.25555555555547 266.5,244.3555555555555 250.0,251.4555555555554 C 217.10000000000002,266.15555555555545 180.3,270.05555555555543 152.1,267.75555555555536 C 123.69999999999999,265.5555555555553 103.80000000000001,258.65555555555534 98.6,256.8555555555554 C 80.9,250.85555555555538 67.6,246.35555555555538 57.69999999999999,244.4555555555554 C 47.79999999999998,242.55555555555543 41.29999999999998,243.4555555555554 38.89999999999999,247.15555555555545 C 36.599999999999994,250.75555555555547 38.8,257.2555555555555 46.89999999999999,264.8555555555555 C 54.89999999999999,272.3555555555555 69.0,280.9555555555555 89.39999999999998,285.9555555555555 C 95.49999999999997,287.4555555555555 118.99999999999997,293.2555555555555 150.89999999999998,292.65555555555557 C 182.59999999999997,292.2555555555556 222.59999999999997,283.7555555555556 256.09999999999997,264.65555555555557 C 272.9,255.3555555555556 288.29999999999995,244.2555555555556 301.09999999999997,232.3555555555556 C 313.99999999999994,220.55555555555566 324.4,208.15555555555557 332.4,197.05555555555566 C 340.5,185.95555555555563 345.79999999999995,175.95555555555563 349.5,169.05555555555566 C 352.9,161.8555555555555 354.79999999999995,157.8555555555555 354.79999999999995,157.8555555555555 M 224.79999999999995,238.95555555555552 C 224.79999999999995,238.95555555555552 222.09999999999997,238.95555555555552 217.39999999999998,239.05555555555554 C 212.7,238.8555555555555 205.89999999999998,238.65555555555557 197.89999999999998,237.45555555555552 C 181.89999999999998,235.25555555555547 160.79999999999998,229.05555555555554 142.29999999999998,218.05555555555554 C 123.49999999999997,207.3555555555555 108.09999999999997,191.8555555555555 98.29999999999998,178.2555555555556 C 88.39999999999998,164.5555555555556 83.6,153.15555555555557 82.29999999999998,150.15555555555557 C 77.89999999999998,140.05555555555554 73.6,133.05555555555554 68.99999999999997,128.55555555555554 C 64.39999999999998,124.05555555555554 59.49999999999997,122.15555555555557 55.29999999999997,123.25555555555553 C 51.099999999999966,124.35555555555555 47.79999999999997,128.55555555555554 46.99999999999997,135.75555555555553 C 46.199999999999974,142.85555555555555 48.199999999999974,153.05555555555554 55.099999999999966,164.25555555555553 C 57.19999999999996,167.6555555555555 65.19999999999996,180.3555555555555 79.19999999999996,194.3555555555555 C 93.09999999999997,208.3555555555555 113.59999999999997,222.95555555555552 135.79999999999995,231.15555555555545 C 157.89999999999995,239.75555555555547 180.79999999999995,242.4555555555554 197.49999999999994,242.05555555555543 C 205.89999999999992,241.9555555555554 212.69999999999993,241.05555555555543 217.49999999999994,240.35555555555538 C 222.09999999999997,239.3555555555555 224.79999999999995,238.95555555555552 224.79999999999995,238.95555555555552"/>
</svg>
