<?xml version="1.0" ?>
<svg xmlns="http://www.w3.org/2000/svg" xmlns:ev="http://www.w3.org/2001/xml-events" xmlns:xlink="http://www.w3.org/1999/xlink" baseProfile="full" enable-background="new 0 0 1000 1000" height="173" id="Layer_1" transform="scale(0.5780346820809249 0.5780346820809249) translate(-474.0 -86.5)" version="1.1" viewBox="0 0 948 173" width="948" x="0px" xml:space="preserve" y="0px">
	<defs/>
	<path d="M 124.9578573687696,52.401976426399585 C 125.05785736876959,50.401976426399585 125.15785736876958,47.20197642639954 124.2578573687696,43.30197642639956 C 123.8578573687696,41.401976426399585 123.2578573687696,39.30197642639956 122.3578573687696,37.30197642639956 C 121.4578573687696,35.30197642639956 120.4578573687696,33.601976426399574 118.65785736876961,31.601976426399574 C 115.45785736876962,27.901976426399585 110.3578573687696,24.801976426399563 103.65785736876961,23.701976426399597 C 97.05785736876962,22.501976426399608 89.2578573687696,23.501976426399608 81.8578573687696,26.701976426399597 C 68.8578573687696,32.30197642639962 58.457857368769616,45.10197642639963 55.35785736876961,60.401976426399585 C 52.05785736876961,75.60197642639963 55.05785736876961,93.00197642639961 66.4578573687696,103.70197642639954 C 74.2578573687696,111.20197642639954 84.7578573687696,115.20197642639954 95.55785736876962,116.90197642639959 C 106.2578573687696,118.70197642639954 117.35785736876963,118.60197642639963 127.95785736876962,118.20197642639954 C 149.25785736876963,117.30197642639956 169.15785736876964,113.70197642639954 187.65785736876964,109.40197642639959 C 224.75785736876963,100.70197642639954 256.55785736876965,90.00197642639961 284.9578573687696,82.80197642639956 C 313.3578573687696,75.40197642639959 338.25785736876963,71.20197642639954 359.75785736876963,70.30197642639956 C 381.25785736876963,69.30197642639956 398.9578573687696,71.30197642639956 413.25785736876963,74.40197642639959 C 441.9578573687696,80.80197642639956 456.4578573687696,90.40197642639959 464.35785736876966,95.30197642639956 C 468.35785736876966,97.80197642639956 470.55785736876965,99.80197642639956 471.9578573687697,100.80197642639956 C 473.35785736876966,101.90197642639959 473.7578573687697,102.20197642639954 473.7578573687697,102.20197642639954 C 473.7578573687697,102.20197642639954 471.8578573687697,101.10197642639952 463.5578573687697,96.60197642639952 C 455.2578573687697,92.5019764263995 440.4578573687697,84.20197642639954 412.3578573687697,79.10197642639952 C 398.3578573687697,76.70197642639954 380.95785736876974,75.40197642639947 360.1578573687697,76.90197642639947 C 339.3578573687697,78.5019764263995 315.0578573687697,83.10197642639952 287.1578573687697,90.90197642639947 C 259.1578573687697,98.5019764263995 227.55785736876976,109.70197642639943 189.95785736876977,119.0019764263995 C 171.15785736876975,123.5019764263995 150.65785736876975,127.40197642639947 128.45785736876977,128.60197642639952 C 117.35785736876977,129.0019764263995 105.95785736876977,129.30197642639956 93.75785736876975,127.40197642639947 C 81.85785736876974,125.5019764263995 68.95785736876977,121.0019764263995 58.95785736876976,111.5019764263995 C 51.95785736876976,104.70197642639954 46.757857368769756,95.90197642639947 44.357857368769764,86.60197642639952 C 41.857857368769764,77.30197642639956 41.357857368769764,67.70197642639954 42.55785736876977,58.20197642639954 C 44.857857368769764,39.30197642639956 55.65785736876976,20.801976426399563 72.45785736876977,9.901976426399528 C 81.95785736876977,3.601976426399517 93.55785736876976,-0.09802357360047154 105.25785736876978,0.001976426399551201 C 116.85785736876977,0.001976426399551201 128.65785736876978,4.20197642639954 137.0578573687698,11.20197642639954 C 141.25785736876978,14.601976426399517 144.8578573687698,18.801976426399563 147.4578573687698,22.90197642639953 C 150.0578573687698,27.00197642639955 151.8578573687698,31.00197642639955 153.0578573687698,34.801976426399506 C 155.65785736876978,42.40197642639953 156.0578573687698,49.001976426399494 155.8578573687698,53.60197642639952 C 155.2578573687698,64.60197642639952 151.3578573687698,75.90197642639947 141.6578573687698,83.80197642639956 C 132.2578573687698,91.20197642639954 120.8578573687698,91.90197642639959 112.95785736876982,88.80197642639956 C 104.85785736876983,85.90197642639959 100.85785736876983,79.60197642639952 99.95785736876982,75.60197642639952 C 99.45785736876982,73.5019764263995 99.65785736876981,71.80197642639956 100.05785736876982,70.5019764263995 C 100.55785736876982,69.20197642639954 101.2578573687698,68.40197642639947 102.2578573687698,68.0019764263995 C 104.2578573687698,67.10197642639952 106.65785736876981,67.80197642639945 109.3578573687698,68.10197642639952 C 112.05785736876979,68.5019764263995 114.7578573687698,68.40197642639947 117.05785736876979,67.40197642639947 C 119.3578573687698,66.5019764263995 121.4578573687698,64.70197642639943 122.4578573687698,62.701976426399426 C 123.2578573687696,61.30197642639956 124.7578573687696,57.20197642639954 124.9578573687696,52.401976426399585 M 40.7578573687696,119.20197642639954 C 44.9578573687696,120.70197642639954 52.9578573687696,123.80197642639956 63.4578573687696,126.5019764263995 C 73.9578573687696,129.20197642639954 86.9578573687696,131.70197642639954 100.4578573687696,132.70197642639954 C 124.2578573687696,134.60197642639952 149.1578573687696,131.60197642639952 173.4578573687696,125.80197642639956 C 207.4578573687696,117.60197642639952 237.05785736876962,107.50197642639961 263.7578573687696,100.10197642639952 C 290.45785736876957,92.5019764263995 314.15785736876956,87.20197642639954 335.2578573687696,84.70197642639954 C 356.3578573687696,82.20197642639954 374.45785736876957,82.30197642639956 389.7578573687696,83.30197642639956 C 405.0578573687696,84.30197642639956 417.65785736876956,86.40197642639959 427.8578573687696,88.50197642639961 C 448.3578573687696,92.70197642639965 459.6578573687696,97.10197642639963 466.0578573687696,99.30197642639956 C 472.3578573687696,101.80197642639956 473.8578573687696,102.50197642639961 473.8578573687696,102.50197642639961 C 473.8578573687696,102.50197642639961 472.2578573687696,102.20197642639965 465.7578573687696,100.30197642639956 C 459.15785736876956,98.60197642639952 447.7578573687696,95.10197642639952 427.3578573687696,91.80197642639956 C 417.1578573687696,90.20197642639954 404.7578573687696,88.60197642639952 389.6578573687696,88.00197642639961 C 374.5578573687696,87.40197642639959 356.75785736876963,87.70197642639965 336.1578573687696,90.60197642639963 C 315.5578573687696,93.40197642639959 292.25785736876963,98.90197642639959 265.7578573687696,106.70197642639965 C 239.2578573687696,114.4019764263997 209.7578573687696,124.70197642639965 175.3578573687696,133.10197642639963 C 150.6578573687696,139.0019764263996 125.7578573687696,144.10197642639963 100.55785736876959,145.90197642639959 C 86.15785736876958,147.0019764263996 71.8578573687696,146.40197642639959 60.0578573687696,144.90197642639959 C 48.15785736876959,143.40197642639959 38.7578573687696,140.80197642639956 33.957857368769595,139.10197642639963 C 22.357857368769594,135.10197642639963 12.7578573687696,128.90197642639959 6.957857368769595,123.20197642639965 C 1.0578573687695965,117.50197642639961 -1.1421426312304064,112.4019764263997 0.5578573687695965,110.10197642639963 C 2.357857368769597,107.70197642639965 7.457857368769595,108.40197642639959 14.557857368769596,110.40197642639959 C 21.557857368769596,112.40197642639959 30.657857368769598,115.70197642639954 40.7578573687696,119.20197642639954 M 145.7578573687696,150.80197642639956 C 149.05785736876962,150.10197642639952 155.4578573687696,149.0019764263996 163.4578573687696,146.80197642639956 C 171.4578573687696,144.70197642639954 181.15785736876958,141.40197642639959 190.9578573687696,137.5019764263996 C 208.2578573687696,130.60197642639963 225.15785736876958,121.00197642639961 242.65785736876958,112.20197642639965 C 267.2578573687696,99.9019764263997 290.65785736876956,92.60197642639963 311.65785736876956,88.10197642639963 C 332.7578573687696,83.70197642639965 351.55785736876953,82.20197642639965 367.85785736876954,82.00197642639961 C 384.15785736876956,81.90197642639959 398.05785736876953,83.00197642639961 409.7578573687695,84.70197642639965 C 412.6578573687695,85.10197642639963 415.4578573687695,85.50197642639961 418.1578573687695,85.9019764263997 C 420.8578573687695,86.4019764263997 423.3578573687695,86.9019764263997 425.7578573687695,87.4019764263997 C 430.55785736876953,88.30197642639968 434.9578573687695,89.30197642639968 438.7578573687695,90.4019764263997 C 454.35785736876954,94.4019764263997 462.9578573687695,98.00197642639972 467.7578573687695,99.9019764263997 C 472.55785736876953,101.9019764263997 473.6578573687695,102.50197642639972 473.6578573687695,102.50197642639972 C 473.6578573687695,102.50197642639972 472.4578573687695,102.30197642639968 467.4578573687695,100.9019764263997 C 462.4578573687695,99.50197642639972 453.6578573687695,96.70197642639965 438.05785736876953,93.60197642639974 C 434.15785736876956,92.80197642639979 429.85785736876954,91.9019764263997 425.05785736876953,91.30197642639979 C 422.65785736876956,90.90197642639981 420.15785736876956,90.50197642639984 417.55785736876953,90.10197642639974 C 414.9578573687695,89.80197642639979 412.15785736876956,89.50197642639972 409.2578573687695,89.20197642639977 C 397.6578573687695,87.90197642639981 384.05785736876953,87.20197642639977 368.05785736876953,87.70197642639977 C 352.05785736876953,88.20197642639977 333.7578573687695,90.00197642639972 313.15785736876956,94.60197642639974 C 292.65785736876956,99.20197642639977 269.85785736876954,106.50197642639972 246.05785736876956,118.70197642639977 C 228.95785736876957,127.50197642639972 213.15785736876956,138.50197642639972 197.05785736876956,149.00197642639972 C 187.85785736876957,155.00197642639972 178.25785736876955,160.50197642639972 169.85785736876957,164.30197642639968 C 161.45785736876957,168.10197642639963 154.15785736876958,170.50197642639972 150.25785736876958,171.30197642639968 C 140.85785736876957,173.4019764263997 131.85785736876957,173.00197642639972 125.55785736876959,171.10197642639963 C 119.25785736876958,169.20197642639965 115.8578573687696,166.10197642639963 116.15785736876958,163.30197642639968 C 116.4578573687696,160.4019764263997 120.15785736876958,158.20197642639965 125.4578573687696,156.30197642639968 C 130.8578573687696,154.30197642639956 137.8578573687696,152.5019764263995 145.7578573687696,150.80197642639956 M 262.8578573687696,137.90197642639959 C 265.4578573687696,133.20197642639954 275.5578573687696,121.80197642639956 288.3578573687696,114.20197642639954 C 299.3578573687696,107.40197642639959 311.0578573687696,101.90197642639959 323.0578573687696,97.40197642639959 C 339.8578573687696,91.10197642639963 355.6578573687696,89.00197642639961 369.45785736876957,88.10197642639963 C 383.35785736876954,87.30197642639968 395.35785736876954,87.80197642639968 405.7578573687696,88.60197642639963 C 426.65785736876956,90.30197642639968 441.0578573687696,93.40197642639959 451.0578573687696,95.70197642639965 C 461.0578573687696,98.20197642639965 466.7578573687696,100.10197642639963 469.8578573687696,101.20197642639965 C 473.0578573687696,102.4019764263997 473.7578573687696,102.70197642639965 473.7578573687696,102.70197642639965 C 473.7578573687696,102.70197642639965 472.95785736876957,102.70197642639965 469.65785736876956,102.10197642639963 C 466.35785736876954,101.50197642639961 460.55785736876953,100.60197642639963 450.45785736876957,98.80197642639968 C 440.35785736876954,97.30197642639968 425.95785736876957,95.10197642639963 405.35785736876954,94.20197642639965 C 395.05785736876953,93.80197642639968 383.2578573687695,93.60197642639963 369.85785736876954,94.70197642639965 C 356.45785736876957,95.80197642639968 341.35785736876954,98.20197642639965 325.55785736876953,104.20197642639965 C 314.2578573687695,108.50197642639961 304.05785736876953,115.4019764263997 296.65785736876956,124.20197642639965 C 287.95785736876957,134.10197642639963 282.95785736876957,144.9019764263997 280.95785736876957,148.5019764263996 C 278.45785736876957,152.80197642639956 275.65785736876956,156.30197642639956 272.7578573687696,158.80197642639956 C 269.8578573687696,161.30197642639956 266.7578573687696,162.80197642639956 263.95785736876957,162.0019764263996 C 261.15785736876956,161.30197642639956 259.2578573687696,158.30197642639956 258.7578573687696,153.80197642639956 C 258.3578573687696,149.40197642639959 259.65785736876956,143.40197642639959 262.8578573687696,137.90197642639959 M 822.5578573687695,52.401976426399585 C 822.4578573687695,50.401976426399585 822.3578573687695,47.20197642639954 823.2578573687696,43.30197642639956 C 823.6578573687696,41.401976426399585 824.2578573687696,39.30197642639956 825.1578573687696,37.30197642639956 C 826.0578573687695,35.30197642639956 827.0578573687695,33.601976426399574 828.8578573687696,31.601976426399574 C 832.0578573687696,27.901976426399585 837.1578573687696,24.801976426399563 843.8578573687696,23.701976426399597 C 850.4578573687696,22.501976426399608 858.2578573687696,23.501976426399608 865.6578573687696,26.701976426399597 C 878.6578573687696,32.30197642639962 889.0578573687695,45.10197642639963 892.1578573687696,60.401976426399585 C 895.4578573687695,75.60197642639963 892.4578573687695,93.00197642639961 881.0578573687695,103.70197642639954 C 873.2578573687696,111.20197642639954 862.7578573687696,115.20197642639954 851.9578573687695,116.90197642639959 C 841.2578573687695,118.70197642639954 830.1578573687696,118.60197642639963 819.5578573687695,118.20197642639954 C 798.2578573687696,117.30197642639956 778.3578573687695,113.70197642639954 759.8578573687695,109.40197642639959 C 722.7578573687695,100.70197642639954 690.9578573687695,90.00197642639961 662.5578573687695,82.80197642639956 C 634.1578573687696,75.40197642639959 609.2578573687696,71.20197642639954 587.7578573687696,70.30197642639956 C 566.2578573687696,69.30197642639956 548.5578573687695,71.30197642639956 534.2578573687696,74.40197642639959 C 505.55785736876953,80.80197642639956 491.05785736876953,90.40197642639959 483.15785736876956,95.30197642639956 C 479.15785736876956,97.80197642639956 476.95785736876957,99.80197642639956 475.55785736876953,100.80197642639956 C 474.15785736876956,101.90197642639959 473.7578573687695,102.20197642639954 473.7578573687695,102.20197642639954 C 473.7578573687695,102.20197642639954 475.6578573687695,101.10197642639952 483.9578573687695,96.60197642639952 C 492.25785736876946,92.5019764263995 507.05785736876953,84.20197642639954 535.1578573687696,79.10197642639952 C 549.1578573687696,76.70197642639954 566.5578573687695,75.40197642639947 587.3578573687696,76.90197642639947 C 608.1578573687696,78.5019764263995 632.4578573687696,83.10197642639952 660.3578573687696,90.90197642639947 C 688.3578573687696,98.5019764263995 719.9578573687696,109.70197642639943 757.5578573687696,119.0019764263995 C 776.3578573687696,123.5019764263995 796.8578573687696,127.40197642639947 819.0578573687696,128.60197642639952 C 830.1578573687697,129.0019764263995 841.5578573687696,129.30197642639956 853.7578573687697,127.40197642639947 C 865.6578573687697,125.5019764263995 878.5578573687696,121.0019764263995 888.5578573687696,111.5019764263995 C 895.5578573687696,104.70197642639954 900.7578573687697,95.90197642639947 903.1578573687697,86.60197642639952 C 905.6578573687697,77.30197642639956 906.1578573687697,67.70197642639954 904.9578573687696,58.20197642639954 C 902.6578573687697,39.30197642639956 891.8578573687696,20.801976426399563 875.0578573687696,9.901976426399528 C 865.5578573687696,3.601976426399517 853.9578573687696,-0.09802357360047154 842.2578573687697,0.001976426399551201 C 830.6578573687697,0.001976426399551201 818.8578573687697,4.20197642639954 810.4578573687697,11.20197642639954 C 806.2578573687697,14.601976426399517 802.6578573687698,18.801976426399563 800.0578573687698,22.90197642639953 C 797.4578573687697,27.00197642639955 795.6578573687698,31.00197642639955 794.4578573687697,34.801976426399506 C 791.8578573687697,42.40197642639953 791.4578573687697,49.001976426399494 791.6578573687698,53.60197642639952 C 792.2578573687698,64.60197642639952 796.1578573687698,75.90197642639947 805.8578573687698,83.80197642639956 C 815.1578573687698,91.20197642639954 826.6578573687698,91.90197642639959 834.5578573687699,88.80197642639956 C 842.6578573687699,85.90197642639959 846.6578573687699,79.60197642639952 847.5578573687699,75.60197642639952 C 848.0578573687699,73.5019764263995 847.8578573687698,71.80197642639956 847.4578573687699,70.5019764263995 C 846.9578573687699,69.20197642639954 846.2578573687698,68.40197642639947 845.2578573687698,68.0019764263995 C 843.2578573687698,67.10197642639952 840.8578573687698,67.80197642639945 838.1578573687698,68.10197642639952 C 835.4578573687697,68.5019764263995 832.7578573687698,68.40197642639947 830.4578573687697,67.40197642639947 C 828.1578573687698,66.5019764263995 826.0578573687698,64.70197642639943 825.0578573687698,62.701976426399426 C 824.2578573687696,61.30197642639956 822.7578573687696,57.20197642639954 822.5578573687695,52.401976426399585 M 906.7578573687696,119.20197642639954 C 902.5578573687695,120.70197642639954 894.5578573687695,123.80197642639956 884.0578573687695,126.5019764263995 C 873.5578573687695,129.20197642639954 860.5578573687695,131.70197642639954 847.0578573687695,132.70197642639954 C 823.2578573687696,134.60197642639952 798.3578573687695,131.60197642639952 774.0578573687695,125.80197642639956 C 740.0578573687695,117.60197642639952 710.4578573687695,107.50197642639961 683.7578573687696,100.10197642639952 C 657.0578573687695,92.5019764263995 633.3578573687696,87.20197642639954 612.2578573687696,84.70197642639954 C 591.1578573687696,82.20197642639954 573.0578573687695,82.30197642639956 557.7578573687696,83.30197642639956 C 542.4578573687696,84.30197642639956 529.8578573687696,86.40197642639959 519.6578573687696,88.50197642639961 C 499.15785736876956,92.70197642639965 487.8578573687696,97.10197642639963 481.45785736876957,99.30197642639956 C 475.15785736876956,101.80197642639956 473.65785736876956,102.50197642639961 473.65785736876956,102.50197642639961 C 473.65785736876956,102.50197642639961 475.2578573687696,102.20197642639965 481.7578573687696,100.30197642639956 C 488.3578573687696,98.60197642639952 499.7578573687696,95.10197642639952 520.1578573687696,91.80197642639956 C 530.3578573687696,90.20197642639954 542.7578573687696,88.60197642639952 557.8578573687696,88.00197642639961 C 572.9578573687696,87.40197642639959 590.7578573687696,87.70197642639965 611.3578573687696,90.60197642639963 C 631.9578573687696,93.40197642639959 655.2578573687696,98.90197642639959 681.7578573687696,106.70197642639965 C 708.2578573687696,114.4019764263997 737.7578573687696,124.70197642639965 772.1578573687696,133.10197642639963 C 796.8578573687696,139.0019764263996 821.7578573687696,144.10197642639963 846.9578573687695,145.90197642639959 C 861.3578573687695,147.0019764263996 875.6578573687696,146.40197642639959 887.4578573687695,144.90197642639959 C 899.3578573687695,143.40197642639959 908.7578573687695,140.80197642639956 913.5578573687695,139.10197642639963 C 925.1578573687696,135.10197642639963 934.7578573687696,128.90197642639959 940.5578573687695,123.20197642639965 C 946.4578573687695,117.50197642639961 948.6578573687696,112.4019764263997 946.9578573687695,110.10197642639963 C 945.1578573687696,107.70197642639965 940.0578573687695,108.40197642639959 932.9578573687695,110.40197642639959 C 925.9578573687696,112.40197642639959 916.8578573687696,115.70197642639954 906.7578573687696,119.20197642639954 M 801.7578573687696,150.80197642639956 C 798.4578573687696,150.10197642639952 792.0578573687695,149.0019764263996 784.0578573687695,146.80197642639956 C 776.0578573687695,144.70197642639954 766.3578573687695,141.40197642639959 756.5578573687695,137.5019764263996 C 739.2578573687696,130.60197642639963 722.3578573687695,121.00197642639961 704.8578573687695,112.20197642639965 C 680.2578573687695,99.9019764263997 656.8578573687695,92.60197642639963 635.8578573687695,88.10197642639963 C 614.7578573687695,83.70197642639965 595.9578573687695,82.20197642639965 579.6578573687694,82.00197642639961 C 563.3578573687695,81.90197642639959 549.4578573687694,83.00197642639961 537.7578573687695,84.70197642639965 C 534.8578573687695,85.10197642639963 532.0578573687694,85.50197642639961 529.3578573687695,85.9019764263997 C 526.6578573687694,86.4019764263997 524.1578573687694,86.9019764263997 521.7578573687695,87.4019764263997 C 516.9578573687695,88.30197642639968 512.5578573687694,89.30197642639968 508.75785736876946,90.4019764263997 C 493.15785736876944,94.4019764263997 484.5578573687695,98.00197642639972 479.75785736876946,99.9019764263997 C 474.95785736876945,101.9019764263997 473.8578573687695,102.50197642639972 473.8578573687695,102.50197642639972 C 473.8578573687695,102.50197642639972 475.0578573687695,102.30197642639968 480.0578573687695,100.9019764263997 C 485.0578573687695,99.50197642639972 493.8578573687695,96.70197642639965 509.4578573687695,93.60197642639974 C 513.3578573687695,92.80197642639979 517.6578573687696,91.9019764263997 522.4578573687695,91.30197642639979 C 524.8578573687695,90.90197642639981 527.3578573687695,90.50197642639984 529.9578573687695,90.10197642639974 C 532.5578573687695,89.80197642639979 535.3578573687695,89.50197642639972 538.2578573687695,89.20197642639977 C 549.8578573687695,87.90197642639981 563.4578573687695,87.20197642639977 579.4578573687695,87.70197642639977 C 595.4578573687695,88.20197642639977 613.7578573687695,90.00197642639972 634.3578573687695,94.60197642639974 C 654.8578573687695,99.20197642639977 677.6578573687694,106.50197642639972 701.4578573687695,118.70197642639977 C 718.5578573687695,127.50197642639972 734.3578573687695,138.50197642639972 750.4578573687695,149.00197642639972 C 759.6578573687696,155.00197642639972 769.2578573687695,160.50197642639972 777.6578573687696,164.30197642639968 C 786.0578573687695,168.10197642639963 793.3578573687696,170.50197642639972 797.2578573687696,171.30197642639968 C 806.6578573687696,173.4019764263997 815.6578573687696,173.00197642639972 821.9578573687696,171.10197642639963 C 828.2578573687696,169.20197642639965 831.6578573687697,166.10197642639963 831.3578573687696,163.30197642639968 C 831.0578573687696,160.4019764263997 827.3578573687696,158.20197642639965 822.0578573687696,156.30197642639968 C 816.6578573687696,154.30197642639956 809.6578573687696,152.5019764263995 801.7578573687696,150.80197642639956 M 684.6578573687696,137.90197642639959 C 682.0578573687695,133.20197642639954 671.9578573687695,121.80197642639956 659.1578573687696,114.20197642639954 C 648.1578573687696,107.40197642639959 636.4578573687695,101.90197642639959 624.4578573687695,97.40197642639959 C 607.6578573687696,91.10197642639963 591.8578573687695,89.00197642639961 578.0578573687695,88.10197642639963 C 564.1578573687696,87.30197642639968 552.1578573687696,87.80197642639968 541.7578573687696,88.60197642639963 C 520.8578573687696,90.30197642639968 506.4578573687696,93.40197642639959 496.4578573687696,95.70197642639965 C 486.4578573687696,98.20197642639965 480.75785736876963,100.10197642639963 477.6578573687696,101.20197642639965 C 474.4578573687696,102.4019764263997 473.75785736876963,102.70197642639965 473.75785736876963,102.70197642639965 C 473.75785736876963,102.70197642639965 474.55785736876965,102.70197642639965 477.85785736876966,102.10197642639963 C 481.15785736876967,101.50197642639961 486.9578573687696,100.60197642639963 497.05785736876965,98.80197642639968 C 507.15785736876967,97.30197642639968 521.5578573687696,95.10197642639963 542.1578573687697,94.20197642639965 C 552.4578573687696,93.80197642639968 564.2578573687697,93.60197642639963 577.6578573687697,94.70197642639965 C 591.0578573687696,95.80197642639968 606.1578573687697,98.20197642639965 621.9578573687696,104.20197642639965 C 633.2578573687696,108.50197642639961 643.4578573687696,115.4019764263997 650.8578573687696,124.20197642639965 C 659.5578573687696,134.10197642639963 664.5578573687696,144.9019764263997 666.5578573687696,148.5019764263996 C 669.0578573687696,152.80197642639956 671.8578573687696,156.30197642639956 674.7578573687697,158.80197642639956 C 677.6578573687697,161.30197642639956 680.7578573687697,162.80197642639956 683.5578573687696,162.0019764263996 C 686.3578573687696,161.30197642639956 688.2578573687697,158.30197642639956 688.7578573687697,153.80197642639956 C 689.1578573687696,149.40197642639959 687.8578573687696,143.40197642639959 684.6578573687696,137.90197642639959"/>
</svg>
