<?xml version="1.0" ?>
<svg xmlns="http://www.w3.org/2000/svg" xmlns:ev="http://www.w3.org/2001/xml-events" xmlns:xlink="http://www.w3.org/1999/xlink" baseProfile="full" enable-background="new 0 0 1000 1000" height="174" id="Layer_1" transform="scale(0.5747126436781609 0.5747126436781609) translate(-449.5 -87.0)" version="1.1" viewBox="0 0 899 174" width="899" x="0px" xml:space="preserve" y="0px">
	<defs/>
	<path d="M 852.0999999999999,147.68189737862537 C 844.8,150.08189737862534 830.5,153.08189737862534 812.7,153.3818973786254 C 795.0,153.7818973786254 773.9000000000001,151.68189737862537 753.5,146.08189737862546 C 717.8999999999999,136.3818973786254 684.5999999999999,120.38189737862541 653.8,100.58189737862546 C 632.3,86.88189737862541 613.8,70.7818973786255 597.8,55.38189737862547 C 581.8,40.18189737862548 566.3999999999999,26.98189737862549 549.5,19.781897378625445 C 532.7,12.881897378625467 514.7,10.981897378625433 499.09999999999997,13.781897378625445 C 483.3999999999999,16.581897378625456 470.2,24.481897378625433 461.59999999999997,34.98189737862543 C 452.99999999999994,45.581897378625456 447.99999999999994,58.18189737862542 445.7,69.98189737862543 C 443.3,81.88189737862541 443.3,93.28189737862539 444.99999999999994,103.38189737862541 C 446.59999999999997,113.58189737862546 449.99999999999994,122.28189737862539 454.2999999999999,129.8818973786254 C 458.49999999999994,137.3818973786254 463.3999999999999,143.58189737862546 468.59999999999985,148.18189737862537 C 473.7999999999999,152.8818973786254 479.2999999999999,156.08189737862534 484.3999999999998,158.18189737862537 C 489.59999999999985,160.18189737862537 494.59999999999985,160.98189737862532 498.8999999999998,161.2818973786254 C 507.69999999999976,161.7818973786254 514.0999999999999,159.8818973786254 518.2999999999997,157.98189737862543 C 522.5999999999997,155.98189737862543 524.5999999999997,153.7818973786254 525.7999999999997,152.58189737862546 C 526.9999999999998,151.2818973786255 527.2999999999997,150.8818973786254 527.2999999999997,150.8818973786254 C 527.2999999999997,150.8818973786254 526.9999999999998,151.3818973786254 526.1999999999998,152.98189737862543 C 525.1999999999998,154.3818973786254 523.4999999999998,157.08189737862546 519.1999999999998,159.7818973786254 C 514.9999999999998,162.3818973786254 508.3999999999998,165.08189737862534 498.7999999999998,165.3818973786254 C 494.09999999999974,165.48189737862543 488.59999999999974,164.98189737862543 482.59999999999974,163.18189737862537 C 476.69999999999976,161.2818973786254 470.3999999999997,158.08189737862534 464.2999999999998,153.18189737862537 C 458.19999999999976,148.3818973786254 452.49999999999983,141.8818973786254 447.49999999999983,133.8818973786254 C 442.59999999999985,125.98189737862543 438.1999999999998,116.28189737862539 436.09999999999985,105.08189737862546 C 433.79999999999984,93.98189737862543 433.39999999999986,81.48189737862543 435.6999999999999,68.18189737862548 C 437.89999999999986,54.98189737862549 442.8999999999999,40.88189737862547 452.7999999999999,27.98189737862549 C 462.6999999999999,15.081897378625513 478.49999999999994,5.381897378625467 496.6999999999999,1.7818973786255015 C 514.8999999999999,-1.8181026213745213 534.8999999999999,-0.01810262137450991 554.4999999999998,7.681897378625479 C 574.0999999999999,15.681897378625479 590.9999999999998,30.081897378625456 607.1999999999998,45.2818973786255 C 623.3,60.58189737862551 640.8,75.38189737862552 661.4999999999998,88.48189737862555 C 690.8999999999999,107.38189737862552 724.5999999999999,119.18189737862559 757.5999999999999,120.98189737862555 C 776.3,122.08189737862557 794.3999999999999,120.18189737862559 808.8,117.2818973786255 C 823.3,114.48189737862555 834.0,110.48189737862555 839.6999999999998,108.68189737862548 C 853.3,104.48189737862543 865.3,100.7818973786255 875.0999999999999,98.48189737862543 C 884.8,96.18189737862548 892.6999999999998,95.38189737862541 896.8,99.48189737862543 C 898.8,101.48189737862543 899.3999999999999,104.58189737862546 898.5999999999999,108.58189737862546 C 897.8999999999999,112.68189737862548 895.4999999999998,117.2818973786255 891.6999999999998,122.38189737862541 C 884.0999999999999,132.08189737862546 869.7,142.2818973786254 852.0999999999999,147.68189737862537 M 549.4000000000001,79.38189737862541 C 551.7,83.18189737862537 554.2,89.08189737862546 554.4000000000001,96.88189737862541 C 554.5,100.78189737862539 553.9000000000001,105.18189737862537 552.2,109.68189737862537 C 550.5999999999999,113.98189737862532 547.9000000000001,118.08189737862534 544.5999999999999,121.58189737862534 C 537.8999999999999,128.58189737862534 528.3999999999999,133.08189737862534 517.8999999999999,133.68189737862537 C 507.2999999999999,134.2818973786254 497.1999999999999,130.2818973786254 489.49999999999994,124.08189737862534 C 482.7,118.78189737862539 477.49999999999994,111.68189737862537 474.2999999999999,103.98189737862532 C 470.99999999999994,96.28189737862527 469.7999999999999,87.98189737862532 470.2999999999999,79.8818973786253 C 470.7999999999999,71.78189737862527 473.09999999999985,63.68189737862525 477.2999999999999,56.68189737862531 C 481.49999999999994,49.581897378625285 487.3999999999999,43.78189737862533 494.2999999999999,39.48189737862532 C 503.8999999999999,33.58189737862534 515.0999999999999,30.78189737862533 525.8,31.98189737862532 C 536.5,32.98189737862532 545.8999999999999,37.58189737862534 553.8999999999999,42.68189737862531 C 569.8999999999999,53.3818973786253 581.1999999999998,66.3818973786253 593.5,76.48189737862532 C 617.5,97.48189737862532 640.5,113.3818973786253 661.3,125.8818973786253 C 682.0999999999999,138.28189737862527 701.0,146.98189737862532 717.3999999999999,153.18189737862525 C 733.8999999999999,159.28189737862527 747.8999999999999,163.4818973786252 759.5999999999999,165.8818973786253 C 762.5,166.48189737862532 765.3,167.18189737862525 768.0,167.68189737862525 C 770.7,168.08189737862523 773.2,168.4818973786252 775.5,168.8818973786253 C 780.2,169.68189737862525 784.3999999999999,170.28189737862527 788.2,170.58189737862534 C 791.9000000000001,170.98189737862532 795.0999999999999,171.2818973786254 797.9000000000001,171.48189737862532 C 800.7,171.68189737862537 803.0,171.68189737862537 805.0,171.78189737862527 C 812.9000000000001,172.08189737862523 814.8,172.28189737862527 814.8,172.28189737862527 C 814.8,172.28189737862527 813.0,172.58189737862523 805.0999999999999,173.08189737862523 C 803.0999999999999,173.18189737862525 800.8,173.38189737862518 797.8999999999999,173.38189737862518 C 795.0999999999999,173.28189737862516 791.8,173.28189737862516 788.0999999999999,173.18189737862514 C 784.3,173.18189737862514 780.0,172.78189737862516 775.2,172.28189737862516 C 772.8,171.9818973786252 770.2,171.78189737862516 767.5,171.4818973786252 C 764.8,171.08189737862523 762.0,170.58189737862523 758.8999999999999,170.08189737862523 C 746.8,168.18189737862525 732.3999999999999,164.4818973786252 715.5,158.78189737862527 C 698.5999999999999,152.98189737862532 679.0999999999999,144.58189737862523 657.7,132.3818973786253 C 636.3,120.08189737862534 612.5999999999999,104.28189737862527 587.9000000000001,83.18189737862525 C 575.3,72.8818973786253 563.6000000000001,59.98189737862526 549.0,50.48189737862526 C 541.7,45.88189737862524 533.6000000000001,42.081897378625285 524.9000000000001,41.38189737862524 C 516.3,40.38189737862524 507.2,42.68189737862525 499.3,47.58189737862523 C 493.7,51.18189737862525 489.00000000000006,55.981897378625206 486.00000000000006,61.68189737862525 C 483.00000000000006,67.3818973786253 481.50000000000006,73.8818973786253 481.7000000000001,80.28189737862527 C 481.90000000000015,93.18189737862525 488.90000000000015,105.18189737862525 499.1000000000001,110.48189737862532 C 504.8000000000001,113.58189737862534 511.00000000000006,114.48189737862532 515.7,113.28189737862527 C 520.5,112.18189737862525 524.6000000000001,109.08189737862523 526.6000000000001,106.08189737862523 C 527.6000000000001,104.58189737862523 528.2,103.08189737862523 528.4000000000001,101.78189737862527 C 528.6000000000001,100.68189737862525 528.5,99.48189737862532 528.3,98.3818973786253 C 527.9000000000001,96.18189737862525 527.0,94.48189737862532 526.4000000000001,93.48189737862532 C 524.9000000000001,91.08189737862534 523.4000000000001,89.8818973786253 522.2,89.28189737862527 C 520.5999999999999,88.48189737862532 517.5,88.58189737862523 515.0,89.28189737862527 C 512.5,89.98189737862532 510.2999999999999,90.98189737862532 508.3999999999999,92.18189737862525 C 506.3999999999999,93.3818973786253 504.7999999999999,94.68189737862525 502.8999999999999,94.78189737862527 C 501.1999999999999,94.8818973786253 498.99999999999994,93.48189737862532 498.1999999999999,89.78189737862527 C 497.2999999999999,86.18189737862525 498.1999999999999,80.48189737862532 502.09999999999985,75.18189737862525 C 505.99999999999983,69.9818973786252 512.8999999999999,64.8818973786253 522.9999999999998,64.3818973786253 C 533.5999999999999,63.78189737862539 544.0999999999999,70.38189737862541 549.4000000000001,79.38189737862541 M 521.3,107.78189737862539 C 544.5999999999999,98.38189737862541 537.2,67.48189737862543 512.2,69.58189737862534 C 511.90000000000003,69.58189737862534 511.7,69.68189737862537 511.40000000000003,69.78189737862539 C 488.1000000000001,79.18189737862537 495.50000000000006,110.08189737862534 520.5,107.98189737862543 C 520.7,107.98189737862543 521.0,107.88189737862541 521.3,107.78189737862539 M 46.500000000000014,147.68189737862537 C 53.80000000000001,150.08189737862534 68.10000000000002,153.08189737862534 85.9,153.3818973786254 C 103.6,153.7818973786254 124.69999999999999,151.68189737862537 145.10000000000002,146.08189737862546 C 180.70000000000002,136.3818973786254 214.00000000000006,120.38189737862541 244.8,100.58189737862546 C 266.3,86.88189737862541 284.8,70.7818973786255 300.8,55.38189737862547 C 316.8,40.18189737862548 332.2,26.98189737862549 349.1,19.781897378625445 C 365.90000000000003,12.881897378625467 383.90000000000003,10.981897378625433 399.5,13.781897378625445 C 415.2,16.581897378625456 428.4,24.481897378625433 437.0,34.98189737862543 C 445.59999999999997,45.581897378625456 450.59999999999997,58.18189737862542 452.90000000000003,69.98189737862543 C 455.3,81.88189737862541 455.3,93.28189737862539 453.6000000000001,103.38189737862541 C 452.00000000000006,113.58189737862546 448.6000000000001,122.28189737862539 444.3000000000001,129.8818973786254 C 440.1000000000001,137.3818973786254 435.2000000000001,143.58189737862546 430.0000000000001,148.18189737862537 C 424.8000000000001,152.8818973786254 419.3000000000001,156.08189737862534 414.2000000000001,158.18189737862537 C 409.0000000000001,160.18189737862537 404.0000000000001,160.98189737862532 399.7000000000001,161.2818973786254 C 390.9000000000001,161.7818973786254 384.5000000000001,159.8818973786254 380.3000000000001,157.98189737862543 C 376.0000000000001,155.98189737862543 374.0000000000001,153.7818973786254 372.8000000000001,152.58189737862546 C 371.60000000000014,151.2818973786255 371.3000000000001,150.8818973786254 371.3000000000001,150.8818973786254 C 371.3000000000001,150.8818973786254 371.60000000000014,151.3818973786254 372.40000000000015,152.98189737862543 C 373.40000000000015,154.3818973786254 375.10000000000014,157.08189737862546 379.40000000000015,159.7818973786254 C 383.60000000000014,162.3818973786254 390.20000000000016,165.08189737862534 399.8000000000001,165.3818973786254 C 404.5000000000001,165.48189737862543 410.0000000000001,164.98189737862543 416.0000000000001,163.18189737862537 C 421.9000000000001,161.2818973786254 428.2000000000001,158.08189737862534 434.3000000000001,153.18189737862537 C 440.40000000000015,148.3818973786254 446.1000000000001,141.8818973786254 451.1000000000001,133.8818973786254 C 456.00000000000006,125.98189737862543 460.40000000000003,116.28189737862539 462.50000000000006,105.08189737862546 C 464.8,93.98189737862543 465.2000000000001,81.48189737862543 462.90000000000003,68.18189737862548 C 460.7,54.98189737862549 455.7,40.88189737862547 445.8,27.98189737862549 C 435.90000000000003,15.081897378625513 420.1,5.381897378625467 401.90000000000003,1.7818973786255015 C 383.70000000000005,-1.8181026213745213 363.70000000000005,-0.01810262137450991 344.1,7.681897378625479 C 324.5,15.681897378625479 307.6,30.081897378625456 291.40000000000003,45.2818973786255 C 275.3,60.58189737862551 257.8,75.38189737862552 237.10000000000002,88.48189737862555 C 207.70000000000005,107.38189737862552 174.00000000000003,119.18189737862559 141.00000000000003,120.98189737862555 C 122.30000000000004,122.08189737862557 104.20000000000005,120.18189737862559 89.80000000000001,117.2818973786255 C 75.30000000000001,114.48189737862555 64.60000000000002,110.48189737862555 58.900000000000006,108.68189737862548 C 45.30000000000001,104.48189737862543 33.30000000000001,100.7818973786255 23.5,98.48189737862543 C 13.799999999999997,96.18189737862548 5.900000000000006,95.38189737862541 1.7999999999999972,99.48189737862543 C -0.20000000000000284,101.48189737862543 -0.7999999999999972,104.58189737862546 0.0,108.58189737862546 C 0.7000000000000028,112.68189737862548 3.0999999999999943,117.2818973786255 6.900000000000006,122.38189737862541 C 14.500000000000014,132.08189737862546 28.900000000000006,142.2818973786254 46.500000000000014,147.68189737862537 M 349.2,79.38189737862541 C 346.9,83.18189737862537 344.4,89.08189737862546 344.2,96.88189737862541 C 344.09999999999997,100.78189737862539 344.7,105.18189737862537 346.4,109.68189737862537 C 348.0,113.98189737862532 350.7,118.08189737862534 354.0,121.58189737862534 C 360.7,128.58189737862534 370.2,133.08189737862534 380.7,133.68189737862537 C 391.3,134.2818973786254 401.4,130.2818973786254 409.09999999999997,124.08189737862534 C 415.9,118.78189737862539 421.09999999999997,111.68189737862537 424.29999999999995,103.98189737862532 C 427.59999999999997,96.28189737862527 428.79999999999995,87.98189737862532 428.29999999999995,79.8818973786253 C 427.79999999999995,71.78189737862527 425.49999999999994,63.68189737862525 421.29999999999995,56.68189737862531 C 417.09999999999997,49.581897378625285 411.19999999999993,43.78189737862533 404.29999999999995,39.48189737862532 C 394.69999999999993,33.58189737862534 383.49999999999994,30.78189737862533 372.79999999999995,31.98189737862532 C 362.09999999999997,32.98189737862532 352.69999999999993,37.58189737862534 344.69999999999993,42.68189737862531 C 328.69999999999993,53.3818973786253 317.3999999999999,66.3818973786253 305.0999999999999,76.48189737862532 C 281.0999999999999,97.48189737862532 258.0999999999999,113.3818973786253 237.2999999999999,125.8818973786253 C 216.4999999999999,138.28189737862527 197.5999999999999,146.98189737862532 181.1999999999999,153.18189737862525 C 164.6999999999999,159.28189737862527 150.6999999999999,163.4818973786252 138.9999999999999,165.8818973786253 C 136.09999999999988,166.48189737862532 133.2999999999999,167.18189737862525 130.59999999999988,167.68189737862525 C 127.89999999999989,168.08189737862523 125.39999999999989,168.4818973786252 123.09999999999988,168.8818973786253 C 118.39999999999989,169.68189737862525 114.19999999999987,170.28189737862527 110.39999999999989,170.58189737862534 C 106.6999999999999,170.98189737862532 103.49999999999989,171.2818973786254 100.6999999999999,171.48189737862532 C 97.89999999999989,171.68189737862537 95.59999999999991,171.68189737862537 93.59999999999991,171.78189737862527 C 85.6999999999999,172.08189737862523 83.7999999999999,172.28189737862527 83.7999999999999,172.28189737862527 C 83.7999999999999,172.28189737862527 85.59999999999991,172.58189737862523 93.49999999999989,173.08189737862523 C 95.49999999999989,173.18189737862525 97.7999999999999,173.38189737862518 100.69999999999987,173.38189737862518 C 103.49999999999989,173.28189737862516 106.79999999999987,173.28189737862516 110.49999999999989,173.18189737862514 C 114.2999999999999,173.18189737862514 118.59999999999988,172.78189737862516 123.39999999999989,172.28189737862516 C 125.7999999999999,171.9818973786252 128.3999999999999,171.78189737862516 131.09999999999988,171.4818973786252 C 133.79999999999987,171.08189737862523 136.59999999999988,170.58189737862523 139.69999999999987,170.08189737862523 C 151.79999999999987,168.18189737862525 166.19999999999987,164.4818973786252 183.09999999999985,158.78189737862527 C 199.99999999999983,152.98189737862532 219.49999999999983,144.58189737862523 240.89999999999986,132.3818973786253 C 262.29999999999984,120.08189737862534 285.9999999999999,104.28189737862527 310.6999999999999,83.18189737862525 C 323.2999999999999,72.8818973786253 334.9999999999999,59.98189737862526 349.59999999999985,50.48189737862526 C 356.89999999999986,45.88189737862524 364.99999999999983,42.081897378625285 373.6999999999999,41.38189737862524 C 382.2999999999999,40.38189737862524 391.39999999999986,42.68189737862525 399.2999999999999,47.58189737862523 C 404.8999999999999,51.18189737862525 409.5999999999999,55.981897378625206 412.5999999999999,61.68189737862525 C 415.5999999999999,67.3818973786253 417.0999999999999,73.8818973786253 416.8999999999999,80.28189737862527 C 416.69999999999993,93.18189737862525 409.69999999999993,105.18189737862525 399.49999999999994,110.48189737862532 C 393.79999999999995,113.58189737862534 387.59999999999997,114.48189737862532 382.8999999999999,113.28189737862527 C 378.0999999999999,112.18189737862525 373.99999999999994,109.08189737862523 371.99999999999994,106.08189737862523 C 370.99999999999994,104.58189737862523 370.3999999999999,103.08189737862523 370.19999999999993,101.78189737862527 C 369.99999999999994,100.68189737862525 370.0999999999999,99.48189737862532 370.29999999999995,98.3818973786253 C 370.69999999999993,96.18189737862525 371.59999999999997,94.48189737862532 372.19999999999993,93.48189737862532 C 373.69999999999993,91.08189737862534 375.19999999999993,89.8818973786253 376.3999999999999,89.28189737862527 C 377.99999999999994,88.48189737862532 381.0999999999999,88.58189737862523 383.5999999999999,89.28189737862527 C 386.0999999999999,89.98189737862532 388.2999999999999,90.98189737862532 390.19999999999993,92.18189737862525 C 392.19999999999993,93.3818973786253 393.79999999999995,94.68189737862525 395.69999999999993,94.78189737862527 C 397.3999999999999,94.8818973786253 399.5999999999999,93.48189737862532 400.3999999999999,89.78189737862527 C 401.2999999999999,86.18189737862525 400.3999999999999,80.48189737862532 396.49999999999994,75.18189737862525 C 392.59999999999997,69.9818973786252 385.69999999999993,64.8818973786253 375.59999999999997,64.3818973786253 C 365.0,63.78189737862539 354.5,70.38189737862541 349.2,79.38189737862541 M 377.3,107.78189737862539 C 354.0,98.38189737862541 361.40000000000003,67.48189737862543 386.40000000000003,69.58189737862534 C 386.70000000000005,69.58189737862534 386.90000000000003,69.68189737862537 387.20000000000005,69.78189737862539 C 410.50000000000006,79.18189737862537 403.1,110.08189737862534 378.1,107.98189737862543 C 377.90000000000003,107.98189737862543 377.6,107.88189737862541 377.3,107.78189737862539"/>
</svg>
