<?xml version="1.0" ?>
<svg xmlns="http://www.w3.org/2000/svg" xmlns:ev="http://www.w3.org/2001/xml-events" xmlns:xlink="http://www.w3.org/1999/xlink" baseProfile="full" enable-background="new 0 0 1000 1000" height="283" id="Layer_1" transform="scale(0.35335689045936397 0.35335689045936397) translate(-449.0 -141.5)" version="1.1" viewBox="0 0 898 283" width="898" x="0px" xml:space="preserve" y="0px">
	<defs/>
	<path d="M 810.9995616164954,137.42949037506543 C 829.9995616164954,163.12949037506542 801.2995616164953,191.72949037506544 775.6995616164954,172.72949037506544 C 775.3995616164955,172.52949037506545 775.1995616164954,172.22949037506544 774.9995616164954,172.02949037506545 C 755.9995616164954,146.42949037506543 784.6995616164954,117.72949037506544 810.2995616164953,136.72949037506544 C 810.4995616164954,136.8294903750654 810.7995616164955,137.12949037506542 810.9995616164954,137.42949037506543 M 764.3995616164955,182.12949037506542 C 760.3995616164955,181.92949037506543 754.4995616164955,181.3294903750654 747.4995616164955,178.42949037506543 C 740.4995616164955,175.52949037506545 732.3995616164955,170.12949037506542 725.8995616164955,161.8294903750654 C 719.2995616164955,153.62949037506542 714.9995616164955,142.5294903750654 714.5995616164955,129.5294903750654 C 714.2995616164956,116.72949037506538 717.9995616164955,102.5294903750654 725.7995616164956,90.72949037506538 C 739.3995616164956,69.72949037506538 766.1995616164955,56.52949037506539 793.0995616164955,56.62949037506536 C 820.0995616164955,56.62949037506536 847.2995616164956,70.02949037506534 865.0995616164955,91.32949037506535 C 877.5995616164955,106.12949037506536 885.1995616164955,124.12949037506536 886.7995616164956,142.32949037506535 C 888.1995616164955,160.52949037506534 884.4995616164956,178.62949037506536 876.9995616164956,194.12949037506536 C 873.1995616164957,201.92949037506537 868.5995616164956,209.12949037506536 863.1995616164957,215.52949037506534 C 857.6995616164957,221.8294903750653 851.5995616164956,227.4294903750653 844.9995616164956,232.02949037506534 C 831.5995616164956,241.22949037506538 816.2995616164956,246.4294903750653 801.0995616164956,248.62949037506536 C 785.7995616164957,250.62949037506536 770.5995616164956,250.02949037506534 756.1995616164957,247.3294903750654 C 741.7995616164957,244.8294903750654 728.1995616164957,240.52949037506545 715.4995616164956,235.12949037506536 C 690.0995616164956,224.3294903750654 668.3995616164956,209.82949037506535 648.3995616164956,196.12949037506536 C 628.3995616164956,182.32949037506535 610.1995616164955,168.82949037506535 592.3995616164956,157.52949037506534 C 574.5995616164956,146.22949037506532 557.3995616164956,136.9294903750653 540.7995616164956,130.22949037506532 C 524.1995616164955,123.42949037506531 508.0995616164955,119.22949037506532 493.19956161649554,117.32949037506535 C 478.29956161649557,115.62949037506536 464.4995616164955,115.92949037506537 452.3995616164956,118.12949037506536 C 427.9995616164956,122.42949037506537 410.6995616164956,133.72949037506538 400.6995616164956,145.12949037506536 C 390.4995616164956,156.62949037506536 386.7995616164956,167.52949037506534 384.9995616164956,175.22949037506538 C 383.3995616164956,183.0294903750654 383.6995616164956,188.0294903750654 383.7995616164956,190.92949037506537 C 384.09956161649563,193.82949037506535 384.1995616164956,194.72949037506538 384.1995616164956,194.72949037506538 C 384.1995616164956,194.72949037506538 384.1995616164956,193.8294903750654 384.1995616164956,190.92949037506537 C 384.2995616164956,188.0294903750654 384.3995616164956,183.12949037506536 386.3995616164956,175.62949037506536 C 388.5995616164956,168.22949037506538 392.79956161649557,157.92949037506537 402.8995616164956,147.22949037506538 C 412.8995616164956,136.62949037506536 429.6995616164956,126.5294903750654 453.19956161649554,122.92949037506537 C 464.8995616164956,121.12949037506536 478.0995616164955,121.12949037506536 492.3995616164956,123.12949037506536 C 506.69956161649554,125.32949037506535 522.0995616164956,129.62949037506536 538.0995616164956,136.52949037506534 C 554.1995616164957,143.32949037506535 570.7995616164957,152.62949037506536 588.0995616164956,164.02949037506534 C 605.3995616164956,175.4294903750653 623.3995616164956,189.02949037506534 643.3995616164956,203.12949037506536 C 663.3995616164956,217.12949037506536 685.3995616164956,232.22949037506538 711.6995616164955,243.72949037506538 C 724.8995616164956,249.42949037506543 739.0995616164955,254.12949037506536 754.2995616164956,256.9294903750654 C 769.4995616164956,259.8294903750654 785.6995616164955,260.7294903750654 802.2995616164956,258.6294903750655 C 818.7995616164956,256.3294903750655 835.6995616164955,250.82949037506552 850.6995616164955,240.62949037506547 C 858.0995616164955,235.52949037506545 864.9995616164955,229.32949037506552 870.9995616164955,222.32949037506552 C 876.8995616164955,215.2294903750655 882.0995616164955,207.32949037506552 886.2995616164955,198.7294903750655 C 894.6995616164954,181.62949037506547 898.8995616164955,161.7294903750655 897.3995616164955,141.42949037506548 C 895.7995616164955,121.0294903750655 887.1995616164954,100.82949037506546 873.3995616164955,84.32949037506546 C 863.4995616164955,72.52949037506545 851.3995616164955,62.72949037506544 837.6995616164954,55.72949037506544 C 824.0995616164954,48.52949037506545 808.8995616164955,44.42949037506543 793.3995616164955,43.52949037506545 C 777.8995616164955,42.72949037506544 762.2995616164955,45.52949037506545 747.8995616164955,51.42949037506543 C 733.4995616164955,57.329490375065404 720.1995616164954,66.72949037506544 710.1995616164954,79.22949037506544 C 698.6995616164954,93.3294903750654 691.8995616164955,111.0294903750654 690.6995616164954,128.72949037506538 C 690.0995616164954,137.62949037506536 690.8995616164955,146.5294903750654 693.0995616164954,154.8294903750654 C 695.2995616164955,163.22949037506538 698.8995616164954,170.92949037506543 703.2995616164955,177.62949037506542 C 711.9995616164955,191.0294903750654 723.6995616164954,200.22949037506544 734.6995616164954,205.72949037506544 C 745.7995616164955,211.3294903750654 756.1995616164954,212.92949037506543 763.2995616164955,213.2294903750655 C 780.4995616164955,213.7294903750655 796.9995616164955,207.5294903750655 808.1995616164954,196.32949037506552 C 813.7995616164955,190.82949037506552 817.7995616164955,184.12949037506553 819.9995616164954,177.12949037506553 C 822.0995616164954,170.22949037506555 822.1995616164954,163.72949037506555 821.2995616164953,158.0294903750655 C 819.4995616164954,146.62949037506553 813.4995616164954,138.7294903750655 808.1995616164953,135.32949037506552 C 802.8995616164954,131.82949037506552 798.9995616164953,132.32949037506552 797.9995616164953,134.0294903750655 C 796.7995616164952,135.82949037506552 797.8995616164952,138.92949037506548 798.7995616164952,143.0294903750655 C 799.7995616164952,147.0294903750655 800.4995616164953,152.5294903750655 799.2995616164952,158.7294903750655 C 798.6995616164952,161.82949037506552 797.5995616164952,164.92949037506548 795.8995616164952,167.7294903750655 C 794.1995616164952,170.32949037506552 791.9995616164953,172.92949037506548 788.8995616164952,175.12949037506547 C 783.0995616164954,179.5294903750654 773.8995616164955,182.42949037506543 764.3995616164955,182.12949037506542 M 513.1995616164954,189.8294903750654 C 509.19956161649543,189.5294903750654 503.29956161649545,189.72949037506538 496.5995616164954,192.22949037506538 C 489.79956161649545,194.72949037506538 482.4995616164954,200.0294903750654 477.69956161649543,207.3294903750654 C 472.69956161649543,214.62949037506536 469.79956161649545,223.72949037506538 470.0995616164954,233.3294903750654 C 470.39956161649536,242.92949037506543 473.79956161649545,252.02949037506545 479.0995616164954,259.4294903750654 C 483.69956161649543,265.9294903750654 489.79956161649545,271.2294903750654 496.5995616164954,275.02949037506545 C 503.39956161649536,278.7294903750655 510.69956161649543,281.02949037506545 517.9995616164954,281.8294903750654 C 532.6995616164954,283.4294903750654 547.8995616164954,280.3294903750654 560.0995616164954,271.7294903750654 C 577.0995616164954,259.8294903750654 585.6995616164954,240.92949037506543 587.3995616164954,223.3294903750654 C 589.1995616164953,205.42949037506543 583.6995616164953,188.62949037506542 575.4995616164954,175.62949037506542 C 567.2995616164953,162.42949037506543 556.2995616164953,152.62949037506542 544.8995616164954,145.62949037506542 C 533.3995616164954,138.72949037506544 521.5995616164954,134.5294903750654 510.4995616164954,131.92949037506543 C 488.0995616164954,127.02949037506545 468.39956161649536,127.72949037506544 452.0995616164954,131.22949037506544 C 435.7995616164954,134.82949037506546 423.2995616164954,141.82949037506546 415.0995616164954,149.72949037506544 C 406.7995616164954,157.52949037506545 402.19956161649543,165.52949037506545 399.69956161649543,172.02949037506545 C 397.19956161649543,178.52949037506545 396.49956161649544,183.62949037506547 396.29956161649545,187.32949037506546 C 396.09956161649546,190.92949037506548 396.3995616164955,193.22949037506544 396.59956161649546,194.52949037506545 C 396.79956161649545,195.82949037506546 396.8995616164955,196.22949037506544 396.8995616164955,196.22949037506544 C 396.8995616164955,196.22949037506544 396.8995616164955,195.82949037506546 396.9995616164955,194.52949037506545 C 397.0995616164955,193.22949037506544 397.1995616164955,191.02949037506545 397.7995616164955,187.52949037506545 C 398.39956161649553,184.02949037506545 399.4995616164955,179.22949037506544 402.4995616164955,173.32949037506546 C 405.3995616164955,167.42949037506548 410.1995616164955,160.22949037506544 418.2995616164955,153.42949037506548 C 426.2995616164955,146.62949037506547 438.1995616164955,140.7294903750655 453.4995616164955,137.92949037506548 C 468.79956161649545,135.2294903750655 487.69956161649554,135.12949037506547 508.5995616164955,140.32949037506546 C 518.9995616164955,142.92949037506548 529.7995616164956,147.12949037506547 540.0995616164955,153.62949037506547 C 550.2995616164956,160.12949037506547 559.9995616164955,169.2294903750655 567.1995616164955,181.02949037506545 C 574.3995616164956,192.62949037506547 578.7995616164956,207.22949037506544 577.1995616164955,222.3294903750654 C 575.5995616164955,237.3294903750654 567.9995616164955,253.3294903750654 554.1995616164955,262.8294903750654 C 544.4995616164955,269.62949037506536 531.6995616164955,271.52949037506545 520.3995616164956,268.9294903750654 C 509.09956161649563,266.3294903750654 499.79956161649557,258.9294903750654 495.9995616164956,249.62949037506547 C 493.79956161649557,244.32949037506552 493.19956161649566,238.82949037506552 494.19956161649566,234.42949037506543 C 495.09956161649563,230.12949037506547 497.3995616164957,226.42949037506543 499.7995616164957,224.22949037506538 C 502.2995616164957,221.92949037506543 504.4995616164957,221.22949037506538 506.3995616164957,220.92949037506543 C 508.3995616164957,220.62949037506547 509.9995616164957,220.8294903750654 510.9995616164957,220.8294903750654 C 513.4995616164957,221.02949037506545 515.2995616164957,221.62949037506536 516.8995616164957,222.12949037506536 C 518.5995616164957,222.8294903750654 520.5995616164957,224.52949037506534 522.2995616164957,226.3294903750654 C 523.8995616164957,228.22949037506538 525.2995616164957,230.22949037506538 526.5995616164956,232.3294903750654 C 527.8995616164956,234.3294903750654 528.9995616164956,236.3294903750654 530.8995616164956,237.42949037506543 C 532.6995616164955,238.52949037506545 535.2995616164956,238.42949037506543 537.9995616164956,236.22949037506538 C 540.6995616164957,234.12949037506536 543.3995616164956,229.72949037506538 544.0995616164956,223.62949037506536 C 544.6995616164957,217.62949037506536 543.4995616164956,209.92949037506537 538.0995616164956,202.82949037506535 C 532.0995616164954,195.5294903750654 522.7995616164955,190.5294903750654 513.1995616164954,189.8294903750654 M 723.0995616164954,219.52949037506545 C 723.0995616164954,219.52949037506545 722.3995616164954,219.2294903750655 721.0995616164954,218.7294903750655 C 719.7995616164955,218.2294903750655 717.7995616164955,217.52949037506545 715.3995616164954,216.32949037506552 C 710.4995616164954,214.12949037506547 703.5995616164954,210.52949037506556 696.0995616164954,204.82949037506552 C 688.5995616164954,199.12949037506553 680.5995616164954,191.32949037506552 673.4995616164954,181.5294903750655 C 666.4995616164954,171.62949037506553 660.5995616164954,159.7294903750655 657.1995616164954,146.7294903750655 C 653.6995616164954,133.82949037506552 652.5995616164954,120.12949037506547 653.3995616164955,107.0294903750655 C 654.2995616164955,94.0294903750655 657.1995616164954,81.62949037506553 661.1995616164954,71.2294903750655 C 669.1995616164954,50.229490375065495 680.1995616164954,37.12949037506547 682.7995616164955,33.62949037506547 C 692.2995616164955,21.929490375065484 702.5995616164954,16.02949037506545 710.0995616164954,13.829490375065461 C 717.6995616164954,11.729490375065438 722.7995616164955,13.229490375065438 724.5995616164954,16.32949037506546 C 726.4995616164954,19.629490375065473 725.1995616164954,24.32949037506546 721.2995616164955,30.02949037506545 C 717.4995616164955,35.72949037506544 710.9995616164955,42.32949037506546 702.4995616164955,50.72949037506544 C 699.9995616164955,53.32949037506546 689.5995616164955,62.82949037506546 680.7995616164955,79.42949037506543 C 676.3995616164955,87.62949037506542 672.5995616164954,97.72949037506544 670.2995616164955,108.8294903750654 C 668.0995616164954,119.92949037506543 667.5995616164954,132.0294903750654 669.1995616164954,143.92949037506543 C 670.7995616164955,155.8294903750654 674.6995616164954,167.22949037506544 679.9995616164954,177.22949037506544 C 685.2995616164953,187.12949037506542 691.9995616164954,195.52949037506545 698.4995616164954,201.82949037506546 C 704.9995616164954,208.12949037506547 711.2995616164953,212.52949037506545 715.7995616164953,215.3294903750654 C 718.0995616164953,216.72949037506538 719.8995616164954,217.72949037506538 721.1995616164953,218.3294903750654 C 722.3995616164955,219.12949037506536 723.0995616164954,219.52949037506545 723.0995616164954,219.52949037506545 M 678.3995616164955,204.22949037506538 C 678.3995616164955,204.22949037506538 676.0995616164955,202.8294903750654 671.9995616164955,200.3294903750654 C 668.0995616164955,197.62949037506542 662.3995616164955,193.62949037506542 656.3995616164955,187.8294903750654 C 650.3995616164955,182.0294903750654 643.9995616164955,174.5294903750654 638.1995616164954,165.5294903750654 C 632.3995616164955,156.5294903750654 627.2995616164955,146.12949037506542 623.3995616164955,135.0294903750654 C 615.3995616164955,112.8294903750654 613.5995616164955,88.22949037506538 614.3995616164955,69.22949037506538 C 615.1995616164954,50.02949037506539 618.0995616164955,36.12949037506536 618.6995616164954,32.329490375065404 C 621.0995616164954,19.829490375065404 625.5995616164954,11.129490375065416 630.0995616164954,5.929490375065427 C 634.5995616164954,0.7294903750654385 639.1995616164954,-0.8705096249345843 642.6995616164954,0.4294903750654271 C 649.7995616164955,3.2294903750654385 651.1995616164954,16.929490375065427 644.0995616164954,38.329490375065404 C 643.0995616164954,41.629490375065416 638.6995616164954,53.92949037506543 635.5995616164954,71.0294903750654 C 632.4995616164954,88.0294903750654 630.8995616164954,110.22949037506538 635.2995616164955,131.42949037506537 C 637.3995616164955,142.0294903750654 640.6995616164954,152.32949037506535 644.8995616164955,161.5294903750654 C 649.0995616164955,170.72949037506538 654.1995616164954,178.72949037506538 659.1995616164954,185.12949037506542 C 664.1995616164954,191.5294903750654 669.0995616164954,196.22949037506544 672.5995616164954,199.42949037506543 C 676.2995616164955,202.5294903750654 678.3995616164955,204.22949037506538 678.3995616164955,204.22949037506538 M 641.7995616164955,183.92949037506543 C 641.7995616164955,183.92949037506543 635.3995616164955,178.52949037506545 625.7995616164955,170.12949037506542 C 616.1995616164954,161.72949037506544 603.4995616164955,150.0294903750654 591.7995616164955,136.62949037506542 C 579.9995616164955,123.3294903750654 569.4995616164955,107.72949037506544 562.8995616164955,94.12949037506542 C 556.1995616164954,80.62949037506542 553.0995616164955,69.42949037506543 552.3995616164955,66.42949037506543 C 549.6995616164954,56.329490375065404 550.7995616164955,48.129490375065416 553.3995616164955,42.92949037506543 C 555.9995616164955,37.72949037506544 559.8995616164955,35.42949037506543 563.4995616164955,35.72949037506544 C 567.1995616164955,36.02949037506545 570.5995616164955,38.629490375065416 573.0995616164955,42.92949037506543 C 575.5995616164955,47.22949037506544 577.1995616164955,53.22949037506544 577.9995616164955,61.42949037506543 C 578.1995616164955,63.92949037506543 578.9995616164955,73.42949037506543 582.5995616164955,86.12949037506542 C 586.0995616164955,98.8294903750654 592.7995616164956,114.62949037506542 601.6995616164955,129.22949037506544 C 610.3995616164956,143.92949037506543 620.6995616164955,157.52949037506545 628.4995616164955,167.52949037506545 C 636.3995616164955,177.42949037506543 641.7995616164955,183.92949037506543 641.7995616164955,183.92949037506543 M 86.69956161649546,137.42949037506543 C 67.69956161649546,163.02949037506545 96.39956161649545,191.72949037506544 121.99956161649547,172.72949037506544 C 122.29956161649548,172.52949037506545 122.49956161649547,172.22949037506544 122.69956161649546,172.02949037506545 C 141.69956161649546,146.42949037506543 112.99956161649547,117.72949037506544 87.39956161649545,136.72949037506544 C 87.19956161649546,136.92949037506543 86.89956161649545,137.12949037506542 86.69956161649546,137.42949037506543 M 133.29956161649545,182.12949037506542 C 137.29956161649545,181.92949037506543 143.19956161649546,181.3294903750654 150.19956161649546,178.42949037506543 C 157.19956161649546,175.52949037506545 165.29956161649545,170.12949037506542 171.79956161649545,161.8294903750654 C 178.39956161649545,153.62949037506542 182.69956161649546,142.5294903750654 183.09956161649546,129.5294903750654 C 183.39956161649548,116.72949037506538 179.69956161649546,102.5294903750654 171.89956161649548,90.72949037506538 C 158.29956161649548,69.72949037506538 131.49956161649547,56.52949037506539 104.59956161649549,56.62949037506536 C 77.59956161649549,56.62949037506536 50.39956161649548,70.02949037506534 32.599561616495485,91.32949037506535 C 20.099561616495485,106.12949037506536 12.499561616495491,124.12949037506536 10.899561616495482,142.32949037506535 C 9.499561616495477,160.52949037506534 13.19956161649548,178.62949037506536 20.69956161649548,194.12949037506536 C 24.499561616495477,201.92949037506537 29.099561616495485,209.12949037506536 34.49956161649548,215.52949037506534 C 39.99956161649548,221.8294903750653 46.09956161649547,227.4294903750653 52.69956161649548,232.02949037506534 C 66.09956161649549,241.22949037506538 81.39956161649548,246.4294903750653 96.59956161649549,248.62949037506536 C 111.8995616164955,250.62949037506536 127.09956161649549,250.02949037506534 141.4995616164955,247.3294903750654 C 155.8995616164955,244.8294903750654 169.4995616164955,240.52949037506545 182.19956161649552,235.12949037506536 C 207.5995616164955,224.3294903750654 229.29956161649554,209.82949037506535 249.29956161649548,196.12949037506536 C 269.29956161649545,182.32949037506535 287.49956161649544,168.82949037506535 305.29956161649545,157.52949037506534 C 323.09956161649546,146.22949037506532 340.29956161649545,136.9294903750653 356.8995616164955,130.22949037506532 C 373.4995616164955,123.42949037506531 389.59956161649546,119.22949037506532 404.4995616164955,117.32949037506535 C 419.3995616164955,115.62949037506536 433.1995616164955,115.92949037506537 445.2995616164955,118.12949037506536 C 469.69956161649554,122.42949037506537 486.9995616164955,133.72949037506538 496.9995616164955,145.12949037506536 C 507.19956161649554,156.62949037506536 510.8995616164955,167.52949037506534 512.6995616164955,175.22949037506538 C 514.2995616164956,183.0294903750654 513.9995616164955,188.0294903750654 513.8995616164956,190.92949037506537 C 513.5995616164956,193.82949037506535 513.4995616164956,194.72949037506538 513.4995616164956,194.72949037506538 C 513.4995616164956,194.72949037506538 513.4995616164956,193.8294903750654 513.4995616164956,190.92949037506537 C 513.3995616164956,188.0294903750654 513.2995616164956,183.12949037506536 511.29956161649557,175.62949037506536 C 509.0995616164955,168.22949037506538 504.8995616164956,157.92949037506537 494.79956161649557,147.22949037506538 C 484.79956161649557,136.62949037506536 467.9995616164956,126.5294903750654 444.49956161649555,122.92949037506537 C 432.79956161649557,121.12949037506536 419.5995616164956,121.12949037506536 405.29956161649557,123.12949037506536 C 390.99956161649555,125.32949037506535 375.5995616164956,129.62949037506536 359.5995616164956,136.52949037506534 C 343.49956161649555,143.32949037506535 326.8995616164956,152.62949037506536 309.5995616164956,164.02949037506534 C 292.29956161649557,175.4294903750653 274.29956161649557,189.02949037506534 254.2995616164956,203.12949037506536 C 234.2995616164956,217.12949037506536 212.2995616164956,232.22949037506538 185.99956161649558,243.72949037506538 C 172.7995616164956,249.42949037506543 158.59956161649558,254.12949037506536 143.3995616164956,256.9294903750654 C 128.1995616164956,259.8294903750654 111.99956161649558,260.7294903750654 95.39956161649559,258.6294903750655 C 78.89956161649559,256.3294903750655 61.999561616495576,250.82949037506552 46.999561616495576,240.62949037506547 C 39.59956161649557,235.52949037506545 32.69956161649558,229.32949037506552 26.69956161649558,222.32949037506552 C 20.799561616495573,215.2294903750655 15.599561616495585,207.32949037506552 11.399561616495582,198.7294903750655 C 2.9995616164955763,181.62949037506547 -1.2004383835044194,161.7294903750655 0.29956161649558055,141.42949037506548 C 1.899561616495582,121.0294903750655 10.499561616495576,100.82949037506546 24.299561616495588,84.32949037506546 C 34.19956161649559,72.52949037506545 46.29956161649559,62.72949037506544 59.99956161649559,55.72949037506544 C 73.5995616164956,48.52949037506545 88.7995616164956,44.42949037506543 104.2995616164956,43.52949037506545 C 119.7995616164956,42.72949037506544 135.3995616164956,45.52949037506545 149.7995616164956,51.42949037506543 C 164.1995616164956,57.329490375065404 177.49956161649558,66.72949037506544 187.49956161649558,79.22949037506544 C 198.99956161649558,93.42949037506543 205.7995616164956,111.12949037506542 206.99956161649558,128.82949037506546 C 207.5995616164956,137.72949037506544 206.7995616164956,146.62949037506547 204.5995616164956,154.92949037506548 C 202.39956161649562,163.32949037506546 198.7995616164956,171.0294903750655 194.39956161649562,177.7294903750655 C 185.69956161649563,191.12949037506547 173.9995616164956,200.32949037506552 162.9995616164956,205.82949037506552 C 151.89956161649562,211.42949037506554 141.4995616164956,213.02949037506556 134.39956161649562,213.32949037506552 C 117.19956161649563,213.82949037506552 100.69956161649563,207.62949037506553 89.49956161649561,196.42949037506554 C 83.89956161649562,190.92949037506554 79.89956161649562,184.22949037506555 77.6995616164956,177.22949037506555 C 75.5995616164956,170.32949037506557 75.49956161649561,163.82949037506557 76.39956161649559,158.12949037506553 C 78.1995616164956,146.72949037506555 84.1995616164956,138.82949037506552 89.49956161649558,135.42949037506554 C 94.7995616164956,131.92949037506554 98.69956161649557,132.42949037506554 99.69956161649557,134.12949037506553 C 100.89956161649556,135.92949037506554 99.79956161649557,139.0294903750655 98.89956161649556,143.12949037506553 C 97.89956161649556,147.12949037506553 97.19956161649557,152.62949037506553 98.39956161649556,158.82949037506552 C 98.99956161649555,161.92949037506554 100.09956161649555,165.0294903750655 101.79956161649557,167.82949037506552 C 103.49956161649555,170.42949037506554 105.69956161649557,173.0294903750655 108.79956161649557,175.2294903750655 C 114.59956161649546,179.5294903750654 123.79956161649545,182.42949037506543 133.29956161649545,182.12949037506542 M 384.5995616164954,189.8294903750654 C 388.5995616164954,189.5294903750654 394.4995616164954,189.72949037506538 401.19956161649543,192.22949037506538 C 407.99956161649544,194.72949037506538 415.29956161649545,200.0294903750654 420.0995616164954,207.3294903750654 C 425.0995616164954,214.62949037506536 427.9995616164954,223.72949037506538 427.69956161649543,233.3294903750654 C 427.3995616164954,242.92949037506543 423.99956161649544,252.02949037506545 418.69956161649543,259.4294903750654 C 414.0995616164954,265.9294903750654 407.99956161649544,271.2294903750654 401.19956161649543,275.02949037506545 C 394.3995616164954,278.7294903750655 387.0995616164954,281.02949037506545 379.79956161649545,281.8294903750654 C 365.09956161649546,283.4294903750654 349.8995616164955,280.3294903750654 337.69956161649543,271.7294903750654 C 320.69956161649543,259.8294903750654 312.0995616164954,240.92949037506543 310.3995616164954,223.3294903750654 C 308.5995616164954,205.42949037506543 314.0995616164954,188.62949037506542 322.2995616164954,175.62949037506542 C 330.4995616164954,162.42949037506543 341.4995616164954,152.62949037506542 352.8995616164954,145.62949037506542 C 364.3995616164954,138.72949037506544 376.19956161649543,134.5294903750654 387.2995616164954,131.92949037506543 C 409.6995616164954,127.02949037506545 429.3995616164954,127.72949037506544 445.6995616164954,131.22949037506544 C 461.9995616164954,134.82949037506546 474.4995616164954,141.82949037506546 482.69956161649543,149.72949037506544 C 490.9995616164954,157.52949037506545 495.5995616164954,165.52949037506545 498.0995616164954,172.02949037506545 C 500.5995616164954,178.52949037506545 501.29956161649545,183.62949037506547 501.4995616164954,187.32949037506546 C 501.69956161649543,190.92949037506548 501.39956161649536,193.22949037506544 501.19956161649543,194.52949037506545 C 500.9995616164954,195.82949037506546 500.8995616164955,196.22949037506544 500.8995616164955,196.22949037506544 C 500.8995616164955,196.22949037506544 500.8995616164955,195.82949037506546 500.79956161649545,194.52949037506545 C 500.69956161649543,193.22949037506544 500.5995616164954,191.02949037506545 499.9995616164955,187.52949037506545 C 499.3995616164955,184.02949037506545 498.29956161649545,179.22949037506544 495.29956161649545,173.32949037506546 C 492.3995616164955,167.42949037506548 487.5995616164954,160.22949037506544 479.4995616164955,153.42949037506548 C 471.4995616164955,146.62949037506547 459.5995616164955,140.7294903750655 444.2995616164955,137.92949037506548 C 428.9995616164955,135.2294903750655 410.0995616164955,135.12949037506547 389.1995616164955,140.32949037506546 C 378.7995616164955,142.92949037506548 367.9995616164955,147.12949037506547 357.6995616164955,153.62949037506547 C 347.4995616164955,160.12949037506547 337.7995616164955,169.2294903750655 330.59956161649546,181.02949037506545 C 323.3995616164955,192.62949037506547 318.99956161649544,207.22949037506544 320.59956161649546,222.3294903750654 C 322.1995616164955,237.3294903750654 329.79956161649545,253.3294903750654 343.59956161649546,262.8294903750654 C 353.29956161649545,269.62949037506536 366.09956161649546,271.52949037506545 377.3995616164955,268.9294903750654 C 388.79956161649545,266.3294903750654 397.9995616164955,258.9294903750654 401.79956161649545,249.62949037506547 C 403.99956161649544,244.32949037506552 404.59956161649546,238.82949037506552 403.59956161649546,234.42949037506543 C 402.6995616164955,230.12949037506547 400.3995616164955,226.42949037506543 397.99956161649544,224.22949037506538 C 395.49956161649544,221.92949037506543 393.29956161649545,221.22949037506538 391.3995616164954,220.92949037506543 C 389.3995616164954,220.62949037506547 387.7995616164954,220.8294903750654 386.7995616164954,220.8294903750654 C 384.2995616164954,221.02949037506545 382.4995616164954,221.62949037506536 380.8995616164954,222.12949037506536 C 379.19956161649543,222.8294903750654 377.19956161649543,224.52949037506534 375.49956161649544,226.3294903750654 C 373.8995616164954,228.22949037506538 372.49956161649544,230.22949037506538 371.19956161649543,232.3294903750654 C 369.8995616164954,234.3294903750654 368.79956161649545,236.3294903750654 366.8995616164954,237.42949037506543 C 365.0995616164954,238.52949037506545 362.49956161649544,238.42949037506543 359.7995616164954,236.22949037506538 C 357.0995616164954,234.12949037506536 354.3995616164954,229.72949037506538 353.6995616164954,223.62949037506536 C 353.09956161649535,217.62949037506536 354.2995616164954,209.92949037506537 359.6995616164954,202.82949037506535 C 365.69956161649543,195.5294903750654 374.8995616164954,190.5294903750654 384.5995616164954,189.8294903750654 M 174.59956161649546,219.52949037506545 C 174.59956161649546,219.52949037506545 175.29956161649545,219.2294903750655 176.59956161649546,218.7294903750655 C 177.89956161649548,218.2294903750655 179.89956161649548,217.52949037506545 182.29956161649545,216.32949037506552 C 187.19956161649546,214.12949037506547 194.09956161649546,210.52949037506556 201.59956161649544,204.82949037506552 C 209.09956161649544,199.12949037506553 217.09956161649544,191.32949037506552 224.19956161649546,181.5294903750655 C 231.19956161649546,171.62949037506553 237.09956161649544,159.7294903750655 240.49956161649547,146.7294903750655 C 243.99956161649547,133.82949037506552 245.0995616164955,120.12949037506547 244.29956161649548,107.0294903750655 C 243.3995616164955,94.0294903750655 240.49956161649547,81.62949037506553 236.49956161649547,71.2294903750655 C 228.49956161649547,50.229490375065495 217.49956161649547,37.12949037506547 214.89956161649545,33.62949037506547 C 205.39956161649545,21.929490375065484 195.09956161649544,16.02949037506545 187.59956161649544,13.829490375065461 C 179.99956161649544,11.729490375065438 174.89956161649545,13.229490375065438 173.09956161649544,16.32949037506546 C 171.19956161649543,19.629490375065473 172.49956161649544,24.32949037506546 176.39956161649545,30.02949037506545 C 180.19956161649546,35.72949037506544 186.69956161649546,42.32949037506546 195.19956161649546,50.72949037506544 C 197.69956161649546,53.32949037506546 208.09956161649544,62.82949037506546 216.89956161649545,79.42949037506543 C 221.29956161649542,87.62949037506542 225.09956161649544,97.72949037506544 227.39956161649545,108.8294903750654 C 229.59956161649544,119.92949037506543 230.09956161649544,132.0294903750654 228.49956161649547,143.92949037506543 C 226.89956161649545,155.8294903750654 222.99956161649547,167.22949037506544 217.69956161649546,177.22949037506544 C 212.39956161649545,187.12949037506542 205.69956161649546,195.52949037506545 199.19956161649546,201.82949037506546 C 192.69956161649546,208.12949037506547 186.39956161649545,212.52949037506545 181.89956161649545,215.3294903750654 C 179.59956161649544,216.72949037506538 177.79956161649545,217.72949037506538 176.49956161649544,218.3294903750654 C 175.29956161649545,219.12949037506536 174.59956161649546,219.52949037506545 174.59956161649546,219.52949037506545 M 219.29956161649548,204.22949037506538 C 219.29956161649548,204.22949037506538 221.5995616164955,202.8294903750654 225.69956161649546,200.3294903750654 C 229.59956161649544,197.62949037506542 235.29956161649548,193.62949037506542 241.29956161649548,187.8294903750654 C 247.29956161649548,182.0294903750654 253.69956161649546,174.5294903750654 259.49956161649544,165.5294903750654 C 265.29956161649545,156.5294903750654 270.3995616164954,146.12949037506542 274.29956161649545,135.0294903750654 C 282.29956161649545,112.8294903750654 284.09956161649546,88.22949037506538 283.29956161649545,69.22949037506538 C 282.49956161649544,50.02949037506539 279.69956161649543,36.12949037506536 278.99956161649544,32.329490375065404 C 276.59956161649546,19.829490375065404 272.09956161649546,11.129490375065416 267.59956161649546,5.929490375065427 C 263.09956161649546,0.7294903750654385 258.49956161649544,-0.8705096249345843 254.99956161649547,0.4294903750654271 C 247.89956161649545,3.2294903750654385 246.49956161649547,16.929490375065427 253.5995616164955,38.329490375065404 C 254.5995616164955,41.629490375065416 258.99956161649544,53.92949037506543 262.09956161649546,71.0294903750654 C 265.1995616164955,88.0294903750654 266.79956161649545,110.22949037506538 262.3995616164955,131.42949037506537 C 260.29956161649545,142.0294903750654 256.9995616164955,152.32949037506535 252.79956161649548,161.5294903750654 C 248.5995616164955,170.72949037506538 243.49956161649547,178.72949037506538 238.49956161649547,185.12949037506542 C 233.49956161649547,191.5294903750654 228.5995616164955,196.22949037506544 225.0995616164955,199.42949037506543 C 221.39956161649545,202.5294903750654 219.29956161649548,204.22949037506538 219.29956161649548,204.22949037506538 M 255.89956161649545,183.92949037506543 C 255.89956161649545,183.92949037506543 262.2995616164954,178.52949037506545 271.8995616164954,170.12949037506542 C 281.49956161649544,161.72949037506544 294.19956161649543,150.0294903750654 305.8995616164954,136.62949037506542 C 317.69956161649543,123.3294903750654 328.19956161649543,107.72949037506544 334.7995616164954,94.12949037506542 C 341.4995616164954,80.62949037506542 344.5995616164954,69.42949037506543 345.2995616164954,66.42949037506543 C 347.9995616164954,56.329490375065404 346.8995616164954,48.129490375065416 344.2995616164954,42.92949037506543 C 341.6995616164954,37.72949037506544 337.7995616164954,35.42949037506543 334.1995616164954,35.72949037506544 C 330.4995616164954,36.02949037506545 327.09956161649535,38.629490375065416 324.59956161649535,42.92949037506543 C 322.09956161649535,47.22949037506544 320.4995616164953,53.22949037506544 319.6995616164954,61.42949037506543 C 319.4995616164954,63.92949037506543 318.6995616164954,73.42949037506543 315.09956161649535,86.12949037506542 C 311.59956161649535,98.8294903750654 304.89956161649536,114.62949037506542 295.9995616164953,129.22949037506544 C 287.29956161649534,143.92949037506543 276.9995616164953,157.52949037506545 269.1995616164953,167.52949037506545 C 261.29956161649545,177.42949037506543 255.89956161649545,183.92949037506543 255.89956161649545,183.92949037506543"/>
</svg>
