<?xml version="1.0" ?>
<svg xmlns="http://www.w3.org/2000/svg" xmlns:ev="http://www.w3.org/2001/xml-events" xmlns:xlink="http://www.w3.org/1999/xlink" baseProfile="full" enable-background="new 0 0 1000 1000" height="170" id="Layer_1" transform="scale(0.5882352941176471 0.5882352941176471) translate(-439.5 -85.0)" version="1.1" viewBox="0 0 879 170" width="879" x="0px" xml:space="preserve" y="0px">
	<defs/>
	<path d="M 37.214014049418736,139.3741635095945 C 35.81401404941873,138.57416350959454 33.214014049418736,137.07416350959454 30.91401404941874,133.8741635095945 C 29.714014049418736,132.3741635095945 28.614014049418742,130.3741635095945 27.814014049418745,128.27416350959447 C 27.014014049418748,126.07416350959443 26.614014049418742,124.07416350959443 26.71401404941875,121.07416350959443 C 26.914014049418753,115.4741635095944 29.514014049418748,108.4741635095944 34.71401404941875,102.27416350959447 C 37.314014049418745,99.17416350959445 40.41401404941875,96.27416350959447 44.01401404941875,93.8741635095945 C 47.71401404941875,91.3741635095945 51.814014049418745,89.17416350959445 56.41401404941875,87.3741635095945 C 72.21401404941876,81.07416350959454 91.51401404941875,79.3741635095945 110.21401404941876,78.27416350959447 C 129.11401404941876,77.47416350959452 148.31401404941874,78.27416350959447 167.61401404941876,79.77416350959447 C 194.5140140494188,81.8741635095945 220.11401404941876,84.3741635095945 244.41401404941877,84.97416350959452 C 268.7140140494188,85.67416350959456 291.7140140494188,84.47416350959452 313.11401404941876,80.77416350959447 C 334.51401404941873,77.17416350959445 354.01401404941873,70.77416350959447 371.11401404941876,62.07416350959443 C 379.61401404941876,57.57416350959443 387.61401404941876,52.07416350959443 393.7140140494188,44.87416350959438 C 396.8140140494188,41.27416350959436 399.3140140494188,37.27416350959436 401.11401404941876,33.07416350959443 C 403.01401404941873,28.774163509594473 404.01401404941873,23.574163509594428 403.11401404941876,18.774163509594416 C 401.51401404941873,8.874163509594439 392.91401404941877,1.6741635095943934 384.2140140494188,0.3741635095944389 C 379.91401404941877,-0.4258364904055725 375.41401404941877,0.17416350959445026 371.8140140494188,1.0741635095944275 C 368.1140140494188,1.874163509594439 364.6140140494188,2.874163509594439 361.2140140494188,4.17416350959445 C 347.61401404941876,8.974163509594462 336.41401404941877,15.974163509594462 326.91401404941877,23.274163509594473 C 317.5140140494188,30.67416350959445 309.81401404941874,38.374163509594496 303.2140140494188,45.874163509594496 C 296.7140140494188,53.374163509594496 291.61401404941876,61.27416350959447 289.11401404941876,69.3741635095945 C 286.51401404941873,77.3741635095945 286.91401404941877,85.47416350959452 289.31401404941874,91.77416350959447 C 291.7140140494187,98.07416350959443 295.61401404941876,102.8741635095945 299.61401404941876,106.07416350959443 C 307.91401404941877,112.57416350959443 316.11401404941876,112.9741635095944 321.2140140494188,112.57416350959443 C 326.5140140494188,112.17416350959445 329.61401404941876,110.77416350959447 331.3140140494188,109.9741635095944 C 333.0140140494188,109.17416350959445 333.5140140494188,108.77416350959436 333.5140140494188,108.77416350959436 C 333.5140140494188,108.77416350959436 332.91401404941877,108.9741635095944 331.1140140494188,109.57416350959431 C 329.3140140494188,110.07416350959431 326.21401404941884,111.07416350959431 321.1140140494188,111.07416350959431 C 316.1140140494188,110.97416350959429 308.5140140494188,109.97416350959429 301.3140140494188,103.77416350959436 C 297.8140140494188,100.67416350959434 294.5140140494188,96.17416350959434 292.6140140494188,90.4741635095944 C 290.71401404941884,84.77416350959436 290.6140140494188,77.77416350959436 293.21401404941884,70.67416350959445 C 295.71401404941884,63.474163509594405 300.6140140494188,56.27416350959447 307.01401404941885,49.374163509594496 C 313.51401404941885,42.374163509594496 321.31401404941886,35.07416350959454 330.51401404941885,28.17416350959445 C 339.71401404941884,21.374163509594496 350.61401404941887,14.974163509594462 363.31401404941886,10.774163509594473 C 366.51401404941885,9.67416350959445 369.81401404941886,8.774163509594473 373.11401404941887,8.17416350959445 C 376.51401404941885,7.374163509594439 379.4140140494189,7.0741635095944275 382.61401404941887,7.774163509594473 C 388.7140140494189,8.874163509594496 394.11401404941887,13.67416350959445 395.01401404941885,20.074163509594428 C 395.51401404941885,23.274163509594473 394.9140140494188,26.474163509594405 393.4140140494188,29.874163509594382 C 391.9140140494188,33.27416350959436 389.8140140494188,36.57416350959443 387.1140140494188,39.57416350959443 C 381.9140140494188,45.57416350959443 374.71401404941884,50.474163509594405 366.8140140494188,54.57416350959443 C 350.7140140494188,62.57416350959443 331.8140140494188,68.57416350959443 311.2140140494188,71.87416350959438 C 290.61401404941876,75.27416350959436 268.2140140494188,76.17416350959434 244.3140140494188,75.37416350959438 C 220.41401404941882,74.67416350959434 195.1140140494188,72.07416350959443 168.0140140494188,69.87416350959438 C 148.61401404941876,68.27416350959436 129.21401404941878,66.77416350959436 109.71401404941876,66.27416350959436 C 99.91401404941875,66.07416350959431 90.21401404941876,66.17416350959434 80.41401404941875,66.4741635095944 C 70.61401404941876,66.9741635095944 60.614014049418756,67.87416350959438 50.51401404941875,70.37416350959438 C 44.814014049418745,71.77416350959436 39.01401404941875,73.77416350959436 33.61401404941874,76.57416350959443 C 28.014014049418748,79.37416350959438 22.91401404941874,82.87416350959438 18.41401404941874,86.9741635095944 C 9.41401404941874,95.17416350959445 2.7140140494187364,106.17416350959445 0.7140140494187364,117.9741635095944 C -0.38598595058126506,123.67416350959445 -0.18598595058126222,130.17416350959445 1.114014049418735,135.37416350959438 C 2.314014049418738,140.77416350959436 4.414014049418732,145.4741635095944 6.814014049418738,149.4741635095944 C 11.614014049418742,157.4741635095944 18.114014049418742,162.57416350959443 23.014014049418734,165.17416350959445 C 28.91401404941874,168.4741635095944 36.11401404941873,169.9741635095944 42.81401404941873,169.57416350959443 C 49.51401404941873,169.07416350959443 55.414014049418725,166.87416350959438 60.31401404941873,163.67416350959445 C 70.11401404941873,157.4741635095944 75.31401404941873,146.8741635095945 75.71401404941874,138.77416350959447 C 76.31401404941873,130.47416350959452 73.51401404941875,124.47416350959452 70.81401404941873,121.17416350959445 C 67.91401404941872,117.8741635095945 65.11401404941873,117.17416350959445 63.51401404941873,118.17416350959445 C 60.11401404941873,120.17416350959445 60.214014049418736,127.67416350959445 55.81401404941873,133.9741635095944 C 52.51401404941875,139.57416350959454 43.314014049418745,143.27416350959447 37.214014049418736,139.3741635095945 M 414.51401404941873,37.47416350959452 C 412.31401404941874,40.27416350959447 408.31401404941874,45.874163509594496 401.4140140494187,51.97416350959452 C 394.6140140494187,58.174163509594564 384.8140140494187,64.67416350959456 373.7140140494187,70.27416350959447 C 354.01401404941873,80.07416350959443 331.7140140494187,87.07416350959443 309.11401404941876,91.07416350959443 C 277.41401404941877,96.67416350959445 248.71401404941878,97.87416350959438 223.41401404941877,97.17416350959445 C 210.71401404941878,96.8741635095945 199.01401404941873,95.57416350959443 187.51401404941873,95.17416350959445 C 176.11401404941876,94.77416350959447 164.91401404941877,95.77416350959447 155.11401404941876,99.27416350959447 C 145.31401404941874,102.67416350959445 136.91401404941877,108.8741635095945 131.91401404941877,116.57416350959443 C 126.91401404941875,124.17416350959445 124.91401404941875,133.07416350959443 126.41401404941875,140.9741635095944 C 127.91401404941875,148.9741635095944 132.61401404941876,154.9741635095944 137.81401404941874,158.67416350959445 C 143.01401404941873,162.57416350959443 148.71401404941878,164.27416350959447 154.01401404941873,164.57416350959443 C 159.31401404941874,164.77416350959447 163.91401404941877,163.37416350959438 167.51401404941873,161.27416350959447 C 171.11401404941876,159.27416350959447 173.71401404941872,156.77416350959447 175.71401404941872,154.3741635095945 C 179.71401404941872,149.47416350959452 180.9140140494187,144.97416350959452 181.51401404941873,141.8741635095945 C 182.31401404941874,135.47416350959452 181.31401404941874,133.97416350959452 181.51401404941873,134.07416350959454 C 181.31401404941874,134.07416350959454 181.81401404941874,135.67416350959456 180.21401404941872,141.57416350959454 C 179.21401404941872,144.47416350959452 177.61401404941876,148.47416350959452 173.61401404941876,152.57416350959454 C 169.81401404941874,156.47416350959452 163.11401404941876,160.97416350959452 154.31401404941874,160.17416350959456 C 150.01401404941873,159.67416350959456 145.21401404941872,157.97416350959452 141.11401404941876,154.47416350959452 C 137.01401404941873,151.17416350959456 133.51401404941873,146.07416350959454 132.61401404941876,139.97416350959452 C 131.71401404941872,133.8741635095945 133.51401404941873,126.77416350959447 137.81401404941874,120.67416350959456 C 142.11401404941876,114.47416350959452 149.11401404941876,109.67416350959456 157.71401404941872,106.77416350959459 C 166.31401404941874,103.87416350959461 176.31401404941874,103.17416350959456 187.21401404941872,103.77416350959459 C 198.11401404941876,104.37416350959461 210.21401404941878,105.87416350959461 223.11401404941876,106.37416350959461 C 248.91401404941877,107.47416350959463 278.31401404941874,106.57416350959465 310.91401404941877,100.97416350959463 C 334.2140140494188,97.07416350959465 357.11401404941876,92.57416350959465 380.11401404941876,87.07416350959465 C 393.2140140494188,83.87416350959461 406.31401404941874,78.97416350959463 416.61401404941876,72.7741635095947 C 427.01401404941873,66.67416350959468 434.31401404941874,59.37416350959472 437.51401404941873,55.2741635095947 C 445.4140140494187,45.2741635095947 448.9140140494187,33.2741635095947 448.2140140494187,24.674163509594678 C 447.7140140494187,15.874163509594666 443.7140140494187,11.074163509594655 439.81401404941874,11.074163509594655 C 435.7140140494187,10.974163509594632 432.2140140494187,14.974163509594632 428.31401404941874,19.774163509594644 C 424.51401404941873,24.57416350959454 419.7140140494188,30.674163509594564 414.51401404941873,37.47416350959452 M 66.71401404941874,115.57416350959454 C 87.21401404941874,131.3741635095945 71.21401404941874,160.17416350959456 47.01401404941873,151.07416350959454 C 46.714014049418736,150.97416350959452 46.51401404941873,150.7741635095946 46.214014049418736,150.67416350959456 C 25.714014049418736,134.8741635095946 41.714014049418736,106.07416350959454 65.91401404941874,115.17416350959456 C 66.21401404941874,115.27416350959447 66.51401404941875,115.3741635095945 66.71401404941874,115.57416350959454 M 174.81401404941874,121.97416350959452 C 190.9140140494187,134.3741635095945 178.31401404941874,156.97416350959452 159.31401404941874,149.8741635095945 C 159.11401404941876,149.77416350959447 158.9140140494187,149.67416350959445 158.71401404941872,149.47416350959452 C 142.61401404941876,137.07416350959454 155.21401404941872,114.47416350959452 174.21401404941872,121.57416350959454 C 174.41401404941877,121.67416350959456 174.61401404941876,121.77416350959447 174.81401404941874,121.97416350959452 M 840.8140140494188,139.3741635095945 C 842.2140140494188,138.57416350959454 844.8140140494188,137.07416350959454 847.1140140494188,133.8741635095945 C 848.3140140494188,132.3741635095945 849.4140140494187,130.3741635095945 850.2140140494188,128.27416350959447 C 851.0140140494187,126.07416350959443 851.4140140494188,124.07416350959443 851.3140140494188,121.07416350959443 C 851.1140140494188,115.4741635095944 848.5140140494188,108.4741635095944 843.3140140494188,102.27416350959447 C 840.7140140494188,99.17416350959445 837.6140140494188,96.27416350959447 834.0140140494188,93.8741635095945 C 830.3140140494188,91.3741635095945 826.1140140494189,89.17416350959445 821.6140140494189,87.3741635095945 C 805.8140140494189,81.07416350959454 786.5140140494188,79.3741635095945 767.8140140494189,78.27416350959447 C 748.9140140494189,77.47416350959452 729.7140140494189,78.27416350959447 710.4140140494189,79.77416350959447 C 683.514014049419,81.8741635095945 657.9140140494189,84.3741635095945 633.614014049419,84.97416350959452 C 609.314014049419,85.67416350959456 586.314014049419,84.47416350959452 564.9140140494189,80.77416350959447 C 543.514014049419,77.17416350959445 524.014014049419,70.77416350959447 506.91401404941894,62.07416350959443 C 498.41401404941894,57.57416350959443 490.41401404941894,52.07416350959443 484.3140140494189,44.87416350959438 C 481.2140140494189,41.27416350959436 478.7140140494189,37.27416350959436 476.91401404941894,33.07416350959443 C 475.01401404941896,28.774163509594473 474.01401404941896,23.574163509594428 474.91401404941894,18.774163509594416 C 476.51401404941896,8.874163509594439 485.114014049419,1.6741635095943934 493.8140140494189,0.3741635095944389 C 498.11401404941887,-0.4258364904055725 502.61401404941887,0.17416350959445026 506.2140140494189,1.0741635095944275 C 509.91401404941894,1.874163509594439 513.4140140494189,2.874163509594439 516.8140140494189,4.17416350959445 C 530.4140140494189,8.974163509594462 541.6140140494189,15.974163509594462 551.1140140494189,23.274163509594473 C 560.5140140494188,30.67416350959445 568.2140140494189,38.374163509594496 574.8140140494189,45.874163509594496 C 581.3140140494189,53.374163509594496 586.4140140494189,61.27416350959447 588.9140140494189,69.3741635095945 C 591.514014049419,77.3741635095945 591.114014049419,85.47416350959452 588.7140140494189,91.77416350959447 C 586.3140140494189,98.07416350959443 582.4140140494189,102.8741635095945 578.4140140494189,106.07416350959443 C 570.114014049419,112.57416350959443 561.9140140494189,112.9741635095944 556.8140140494189,112.57416350959443 C 551.514014049419,112.17416350959445 548.4140140494189,110.77416350959447 546.7140140494189,109.9741635095944 C 545.0140140494188,109.17416350959445 544.5140140494188,108.77416350959436 544.5140140494188,108.77416350959436 C 544.5140140494188,108.77416350959436 545.1140140494189,108.9741635095944 546.9140140494188,109.57416350959431 C 548.7140140494188,110.07416350959431 551.8140140494188,111.07416350959431 556.9140140494188,111.07416350959431 C 561.9140140494188,110.97416350959429 569.5140140494188,109.97416350959429 576.7140140494188,103.77416350959436 C 580.2140140494188,100.67416350959434 583.5140140494187,96.17416350959434 585.4140140494188,90.4741635095944 C 587.3140140494188,84.77416350959436 587.4140140494188,77.77416350959436 584.8140140494188,70.67416350959445 C 582.3140140494188,63.474163509594405 577.4140140494188,56.27416350959447 571.0140140494188,49.374163509594496 C 564.5140140494188,42.374163509594496 556.7140140494189,35.07416350959454 547.5140140494188,28.17416350959445 C 538.3140140494188,21.374163509594496 527.4140140494188,14.974163509594462 514.7140140494189,10.774163509594473 C 511.51401404941885,9.67416350959445 508.2140140494189,8.774163509594473 504.91401404941894,8.17416350959445 C 501.51401404941896,7.374163509594439 498.614014049419,7.0741635095944275 495.41401404941894,7.774163509594473 C 489.3140140494189,8.874163509594496 483.91401404941894,13.67416350959445 483.01401404941896,20.074163509594428 C 482.51401404941896,23.274163509594473 483.114014049419,26.474163509594405 484.614014049419,29.874163509594382 C 486.114014049419,33.27416350959436 488.214014049419,36.57416350959443 490.91401404941894,39.57416350959443 C 496.114014049419,45.57416350959443 503.3140140494189,50.474163509594405 511.2140140494189,54.57416350959443 C 527.3140140494189,62.57416350959443 546.2140140494189,68.57416350959443 566.8140140494189,71.87416350959438 C 587.4140140494189,75.27416350959436 609.8140140494189,76.17416350959434 633.7140140494189,75.37416350959438 C 657.6140140494189,74.67416350959434 682.9140140494189,72.07416350959443 710.0140140494188,69.87416350959438 C 729.4140140494188,68.27416350959436 748.8140140494188,66.77416350959436 768.3140140494188,66.27416350959436 C 778.1140140494188,66.07416350959431 787.8140140494188,66.17416350959434 797.6140140494188,66.4741635095944 C 807.4140140494187,66.9741635095944 817.4140140494187,67.87416350959438 827.5140140494187,70.37416350959438 C 833.2140140494188,71.77416350959436 839.0140140494187,73.77416350959436 844.4140140494187,76.57416350959443 C 850.0140140494187,79.37416350959438 855.1140140494188,82.87416350959438 859.6140140494188,86.9741635095944 C 868.6140140494188,95.17416350959445 875.3140140494188,106.17416350959445 877.3140140494188,117.9741635095944 C 878.4140140494188,123.67416350959445 878.2140140494188,130.17416350959445 876.9140140494188,135.37416350959438 C 875.7140140494188,140.77416350959436 873.6140140494189,145.4741635095944 871.2140140494188,149.4741635095944 C 866.4140140494188,157.4741635095944 859.9140140494188,162.57416350959443 855.0140140494187,165.17416350959445 C 849.1140140494188,168.4741635095944 841.9140140494187,169.9741635095944 835.2140140494188,169.57416350959443 C 828.5140140494187,169.07416350959443 822.6140140494188,166.87416350959438 817.7140140494188,163.67416350959445 C 807.9140140494188,157.4741635095944 802.7140140494188,146.8741635095945 802.3140140494188,138.77416350959447 C 801.7140140494188,130.47416350959452 804.5140140494188,124.47416350959452 807.2140140494188,121.17416350959445 C 810.1140140494188,117.8741635095945 812.9140140494188,117.17416350959445 814.5140140494187,118.17416350959445 C 817.9140140494187,120.17416350959445 817.8140140494187,127.67416350959445 822.2140140494188,133.9741635095944 C 825.5140140494187,139.57416350959454 834.7140140494188,143.27416350959447 840.8140140494188,139.3741635095945 M 463.51401404941873,37.47416350959452 C 465.7140140494188,40.27416350959447 469.7140140494188,45.874163509594496 476.61401404941876,51.97416350959452 C 483.4140140494187,58.174163509594564 493.2140140494188,64.67416350959456 504.3140140494188,70.27416350959447 C 524.0140140494188,80.07416350959443 546.3140140494188,87.07416350959443 568.9140140494188,91.07416350959443 C 600.6140140494189,96.67416350959445 629.3140140494188,97.87416350959438 654.6140140494189,97.17416350959445 C 667.3140140494189,96.8741635095945 679.0140140494188,95.57416350959443 690.5140140494188,95.17416350959445 C 701.9140140494188,94.77416350959447 713.1140140494189,95.77416350959447 722.9140140494188,99.27416350959447 C 732.7140140494188,102.67416350959445 741.1140140494189,108.8741635095945 746.1140140494189,116.57416350959443 C 751.1140140494189,124.17416350959445 753.1140140494189,133.07416350959443 751.6140140494189,140.9741635095944 C 750.1140140494189,148.9741635095944 745.4140140494188,154.9741635095944 740.2140140494189,158.67416350959445 C 735.0140140494188,162.57416350959443 729.3140140494189,164.27416350959447 724.0140140494188,164.57416350959443 C 718.7140140494189,164.77416350959447 714.1140140494189,163.37416350959438 710.5140140494188,161.27416350959447 C 706.9140140494188,159.27416350959447 704.3140140494188,156.77416350959447 702.3140140494188,154.3741635095945 C 698.3140140494188,149.47416350959452 697.1140140494188,144.97416350959452 696.5140140494188,141.8741635095945 C 695.7140140494189,135.47416350959452 696.7140140494189,133.97416350959452 696.5140140494188,134.07416350959454 C 696.7140140494189,134.07416350959454 696.2140140494189,135.67416350959456 697.8140140494188,141.57416350959454 C 698.8140140494188,144.47416350959452 700.4140140494188,148.47416350959452 704.4140140494188,152.57416350959454 C 708.2140140494188,156.47416350959452 714.9140140494188,160.97416350959452 723.7140140494188,160.17416350959456 C 728.0140140494187,159.67416350959456 732.8140140494188,157.97416350959452 736.9140140494188,154.47416350959452 C 741.0140140494188,151.17416350959456 744.5140140494188,146.07416350959454 745.4140140494188,139.97416350959452 C 746.3140140494188,133.8741635095945 744.5140140494188,126.77416350959447 740.2140140494188,120.67416350959456 C 735.9140140494188,114.47416350959452 728.9140140494188,109.67416350959456 720.3140140494188,106.77416350959459 C 711.7140140494188,103.87416350959461 701.7140140494188,103.17416350959456 690.8140140494188,103.77416350959459 C 679.9140140494188,104.37416350959461 667.8140140494188,105.87416350959461 654.9140140494188,106.37416350959461 C 629.1140140494189,107.47416350959463 599.7140140494188,106.57416350959465 567.1140140494189,100.97416350959463 C 543.8140140494189,97.07416350959465 520.9140140494188,92.57416350959465 497.9140140494188,87.07416350959465 C 484.8140140494188,83.87416350959461 471.7140140494188,78.97416350959463 461.4140140494188,72.7741635095947 C 451.01401404941885,66.67416350959468 443.71401404941884,59.37416350959472 440.51401404941885,55.2741635095947 C 432.61401404941887,45.2741635095947 429.11401404941887,33.2741635095947 429.81401404941886,24.674163509594678 C 430.31401404941886,15.874163509594666 434.31401404941886,11.074163509594655 438.21401404941884,11.074163509594655 C 442.31401404941886,10.974163509594632 445.81401404941886,14.974163509594632 449.71401404941884,19.774163509594644 C 453.51401404941873,24.57416350959454 458.3140140494188,30.674163509594564 463.51401404941873,37.47416350959452 M 811.3140140494188,115.57416350959454 C 790.8140140494188,131.3741635095945 806.8140140494188,160.07416350959454 831.0140140494188,151.07416350959454 C 831.3140140494188,150.97416350959452 831.5140140494188,150.7741635095946 831.8140140494188,150.67416350959456 C 852.3140140494188,134.8741635095946 836.3140140494188,106.07416350959454 812.1140140494188,115.17416350959456 C 811.8140140494188,115.27416350959447 811.5140140494187,115.3741635095945 811.3140140494188,115.57416350959454 M 703.2140140494188,121.97416350959452 C 687.1140140494188,134.3741635095945 699.7140140494188,156.97416350959452 718.7140140494188,149.8741635095945 C 718.9140140494188,149.77416350959447 719.1140140494188,149.67416350959445 719.3140140494188,149.47416350959452 C 735.4140140494188,137.07416350959454 722.8140140494188,114.47416350959452 703.8140140494188,121.57416350959454 C 703.6140140494188,121.67416350959456 703.4140140494187,121.77416350959447 703.2140140494188,121.97416350959452"/>
</svg>
