<?xml version="1.0" ?>
<svg xmlns="http://www.w3.org/2000/svg" xmlns:ev="http://www.w3.org/2001/xml-events" xmlns:xlink="http://www.w3.org/1999/xlink" baseProfile="full" enable-background="new 0 0 1000 1000" height="296" id="Layer_1" transform="scale(0.33783783783783783 0.33783783783783783) translate(-434.0 -148.0)" version="1.1" viewBox="0 0 868 296" width="868" x="0px" xml:space="preserve" y="0px">
	<defs/>
	<path d="M 753.7580527639454,290.2086588492061 C 746.4580527639455,293.9086588492061 734.9580527639455,296.9086588492061 721.5580527639454,294.50865884920603 C 708.1580527639454,292.308658849206 693.5580527639454,283.408658849206 684.2580527639454,270.10865884920605 C 674.7580527639454,256.908658849206 669.4580527639455,240.00865884920603 670.1580527639454,222.00865884920603 C 670.3580527639455,219.80865884920598 670.4580527639454,217.30865884920598 670.7580527639454,215.408658849206 C 671.0580527639454,213.408658849206 671.3580527639455,211.408658849206 671.6580527639454,209.50865884920603 C 672.2580527639454,205.50865884920603 672.9580527639454,201.50865884920603 673.8580527639455,197.50865884920603 C 675.5580527639455,189.50865884920603 677.6580527639454,181.408658849206 680.4580527639455,173.30865884920598 C 685.3580527639455,159.30865884920598 692.0580527639455,145.408658849206 702.2580527639454,133.60865884920594 C 712.0580527639454,122.20865884920596 723.4580527639455,112.50865884920591 736.0580527639454,104.50865884920591 C 748.7580527639454,96.60865884920594 762.7580527639454,90.50865884920591 777.5580527639454,87.40865884920589 C 792.3580527639454,84.2086588492059 807.7580527639454,84.10865884920588 822.5580527639454,86.90865884920589 C 827.7580527639454,87.7086588492059 832.7580527639454,89.40865884920589 837.7580527639454,90.60865884920588 C 842.9580527639455,92.30865884920587 847.9580527639455,94.60865884920588 852.4580527639455,97.7086588492059 C 856.9580527639455,100.80865884920593 861.1580527639455,104.80865884920593 864.0580527639455,110.00865884920591 C 867.0580527639455,115.2086588492059 868.0580527639455,121.80865884920587 866.7580527639456,127.70865884920596 C 865.3580527639456,133.70865884920596 861.7580527639456,138.70865884920596 857.7580527639456,142.408658849206 C 853.6580527639455,146.00865884920603 849.1580527639455,148.60865884920605 844.5580527639455,150.60865884920605 C 839.9580527639455,152.60865884920605 835.1580527639455,154.00865884920603 830.6580527639455,155.10865884920605 C 826.0580527639455,156.3086588492061 821.5580527639455,157.20865884920607 816.9580527639455,157.8086588492061 C 798.6580527639455,160.60865884920605 780.6580527639455,160.20865884920607 763.6580527639455,158.10865884920605 C 746.5580527639455,156.00865884920603 730.4580527639455,152.20865884920607 715.0580527639455,147.70865884920607 C 684.4580527639455,138.60865884920605 657.1580527639455,127.10865884920605 631.2580527639456,117.8086588492061 C 605.4580527639456,108.70865884920607 580.9580527639456,100.00865884920609 558.0580527639455,100.00865884920609 C 535.1580527639455,99.60865884920611 515.1580527639455,110.90865884920606 503.35805276394547,126.40865884920612 C 491.35805276394547,141.70865884920607 487.85805276394547,161.00865884920614 491.25805276394544,176.90865884920612 C 494.6580527639454,193.00865884920614 505.75805276394544,205.10865884920617 518.1580527639454,210.70865884920607 C 530.5580527639454,216.50865884920603 544.0580527639454,215.8086588492061 553.7580527639454,210.20865884920607 C 563.6580527639454,204.90865884920612 570.1580527639454,196.20865884920607 572.7580527639454,187.70865884920607 C 575.4580527639455,179.10865884920605 574.1580527639454,170.8086588492061 570.8580527639455,164.60865884920605 C 567.6580527639454,158.408658849206 562.4580527639455,154.50865884920603 557.4580527639455,153.20865884920607 C 552.4580527639455,151.90865884920612 547.8580527639455,153.3086588492061 544.6580527639455,155.00865884920603 C 538.0580527639455,158.70865884920607 536.1580527639455,163.70865884920607 535.7580527639456,166.408658849206 C 535.3580527639456,169.20865884920596 535.7580527639456,170.10865884920605 535.5580527639455,170.10865884920605 C 535.6580527639455,170.10865884920605 535.1580527639455,169.20865884920607 535.3580527639455,166.3086588492061 C 535.4580527639455,163.60865884920605 537.0580527639455,158.10865884920605 543.8580527639455,153.70865884920607 C 547.2580527639454,151.70865884920607 552.0580527639455,149.8086588492061 557.9580527639455,151.00865884920603 C 563.6580527639455,152.10865884920605 569.6580527639455,156.30865884920598 573.5580527639455,163.00865884920603 C 577.4580527639455,169.60865884920605 579.3580527639455,179.00865884920603 576.5580527639455,188.70865884920607 C 573.9580527639455,198.3086588492061 567.0580527639455,208.10865884920605 556.1580527639455,214.40865884920612 C 545.4580527639455,221.00865884920614 529.8580527639456,222.3086588492061 515.7580527639456,216.00865884920614 C 508.65805276394553,213.00865884920614 502.0580527639455,208.2086588492062 496.4580527639456,201.8086588492061 C 490.8580527639456,195.40865884920612 486.75805276394556,187.3086588492061 484.5580527639456,178.3086588492061 C 480.25805276394567,160.50865884920614 483.9580527639456,138.90865884920612 497.0580527639456,121.50865884920614 C 503.5580527639456,112.80865884920615 512.2580527639457,105.20865884920613 522.6580527639456,99.80865884920615 C 533.0580527639456,94.20865884920613 545.3580527639457,91.30865884920615 557.8580527639457,91.20865884920613 C 570.4580527639457,91.00865884920614 583.1580527639456,93.30865884920615 595.8580527639457,96.60865884920611 C 608.5580527639457,100.00865884920609 621.2580527639457,104.10865884920611 634.3580527639457,108.70865884920613 C 660.5580527639457,117.80865884920615 687.8580527639457,129.10865884920617 717.8580527639457,137.8086588492061 C 732.8580527639457,142.10865884920605 748.4580527639457,145.70865884920607 764.8580527639457,147.60865884920605 C 781.1580527639456,149.50865884920603 798.1580527639456,149.908658849206 815.2580527639457,147.10865884920605 C 819.5580527639456,146.408658849206 823.7580527639457,145.60865884920605 828.0580527639456,144.50865884920603 C 832.3580527639456,143.50865884920603 836.3580527639456,142.30865884920598 840.1580527639456,140.60865884920605 C 847.7580527639457,137.3086588492061 854.7580527639457,131.908658849206 856.0580527639456,125.3086588492061 C 857.7580527639457,118.60865884920605 853.3580527639456,111.60865884920611 846.1580527639456,106.8086588492061 C 842.6580527639456,104.40865884920612 838.6580527639456,102.50865884920609 834.3580527639457,101.20865884920607 C 829.7580527639457,100.10865884920605 825.2580527639457,98.60865884920605 820.4580527639457,97.90865884920606 C 806.9580527639457,95.40865884920606 793.1580527639458,95.70865884920607 779.9580527639457,98.90865884920606 C 766.7580527639457,102.10865884920605 754.3580527639457,108.00865884920609 743.3580527639457,115.70865884920607 C 732.3580527639457,123.50865884920603 722.4580527639457,133.10865884920605 714.6580527639456,143.70865884920607 C 707.0580527639456,154.00865884920603 702.3580527639457,166.20865884920607 699.2580527639457,179.00865884920603 C 697.5580527639456,186.30865884920598 696.3580527639457,193.70865884920607 695.5580527639456,201.10865884920605 C 695.1580527639456,204.8086588492061 694.8580527639456,208.50865884920603 694.6580527639456,212.10865884920605 C 694.5580527639456,213.908658849206 694.4580527639456,215.70865884920607 694.3580527639457,217.60865884920605 C 694.2580527639457,219.408658849206 694.3580527639457,220.70865884920607 694.3580527639457,222.3086588492061 C 695.0580527639457,234.40865884920612 700.0580527639457,245.70865884920607 706.4580527639457,253.00865884920614 C 712.8580527639457,260.4086588492061 720.2580527639457,263.60865884920617 726.2580527639457,264.2086588492062 C 732.4580527639457,264.8086588492062 736.9580527639457,263.2086588492062 739.3580527639457,262.00865884920614 C 745.0580527639457,259.4086588492061 748.2580527639457,252.7086588492062 747.9580527639457,249.00865884920614 C 747.9580527639457,247.00865884920614 746.8580527639457,244.50865884920614 745.5580527639457,242.7086588492062 C 744.1580527639458,240.90865884920623 742.5580527639457,239.8086588492062 741.0580527639457,239.10865884920617 C 739.4580527639457,238.40865884920612 737.0580527639457,238.40865884920612 735.0580527639457,238.90865884920612 C 732.9580527639457,239.40865884920612 731.0580527639457,240.20865884920607 729.4580527639457,241.10865884920617 C 726.2580527639457,242.90865884920612 724.2580527639457,245.3086588492062 721.9580527639457,245.2086588492062 C 719.9580527639457,245.2086588492062 717.2580527639457,241.90865884920623 718.5580527639457,235.10865884920617 C 719.2580527639458,231.8086588492062 721.1580527639458,228.00865884920614 724.5580527639457,224.40865884920612 C 727.9580527639457,220.90865884920612 733.0580527639457,217.60865884920617 740.0580527639457,216.50865884920614 C 754.3580527639457,214.40865884920612 771.1580527639458,224.00865884920614 776.4580527639457,242.10865884920617 C 781.7580527639454,260.7086588492061 771.9580527639454,281.2086588492061 753.7580527639454,290.2086588492061 M 485.4580527639454,49.8086588492061 C 485.0580527639454,48.508658849206086 484.35805276394535,44.708658849206074 480.5580527639454,40.90865884920612 C 477.1580527639454,37.20865884920613 469.25805276394544,34.00865884920614 461.0580527639454,35.50865884920614 C 454.0580527639454,36.608658849206165 447.35805276394535,42.308658849206154 444.4580527639454,50.20865884920613 C 441.4580527639454,58.10865884920611 442.75805276394533,67.30865884920615 448.1580527639454,74.30865884920615 C 455.75805276394544,84.20865884920613 468.0580527639454,89.80865884920615 479.5580527639454,91.70865884920613 C 491.4580527639454,93.60865884920611 503.25805276394544,92.60865884920611 514.4580527639454,91.60865884920611 C 537.0580527639454,89.00865884920609 557.8580527639454,89.10865884920611 575.1580527639454,91.50865884920609 C 610.1580527639454,96.20865884920607 633.0580527639454,106.60865884920611 648.4580527639454,114.40865884920606 C 663.7580527639453,122.50865884920603 671.6580527639454,128.60865884920605 676.0580527639454,132.10865884920605 C 680.4580527639454,135.60865884920605 681.3580527639454,136.60865884920605 681.3580527639454,136.60865884920605 C 681.3580527639454,136.60865884920605 680.0580527639454,136.10865884920605 675.2580527639453,133.3086588492061 C 670.3580527639454,130.60865884920605 661.8580527639454,125.60865884920605 646.3580527639454,118.8086588492061 C 630.8580527639454,112.40865884920612 608.0580527639454,103.60865884920611 574.2580527639453,100.10865884920611 C 557.2580527639453,98.40865884920612 538.1580527639453,98.70865884920613 515.5580527639453,101.70865884920613 C 504.25805276394533,102.90865884920612 491.6580527639453,104.20865884920613 477.95805276394526,102.30865884920615 C 471.0580527639453,101.20865884920613 464.0580527639453,99.20865884920613 457.45805276394526,95.70865884920613 C 450.7580527639452,92.30865884920615 444.35805276394524,87.50865884920614 439.35805276394524,80.90865884920612 C 435.7580527639452,76.20865884920613 433.1580527639452,70.60865884920611 431.6580527639452,64.70865884920613 C 430.2580527639452,58.70865884920613 430.35805276394524,52.50865884920614 431.6580527639452,46.50865884920614 C 432.95805276394526,40.50865884920614 435.45805276394526,34.808658849206154 439.1580527639453,29.608658849206165 C 442.85805276394535,24.508658849206142 448.0580527639453,20.008658849206142 453.85805276394535,17.008658849206142 C 467.1580527639453,9.90865884920612 483.75805276394533,10.308658849206154 495.9580527639454,17.008658849206142 C 508.1580527639454,23.508658849206142 514.2580527639453,34.20865884920613 516.0580527639454,40.308658849206154 C 517.1580527639454,44.00865884920614 517.6580527639454,47.808658849206154 517.4580527639454,51.50865884920614 C 517.2580527639453,55.40865884920612 516.4580527639454,58.90865884920612 515.1580527639454,62.00865884920614 C 512.5580527639454,68.20865884920613 508.25805276394544,72.60865884920617 504.0580527639454,75.10865884920617 C 499.75805276394544,77.60865884920617 495.5580527639454,78.10865884920617 492.6580527639454,77.40865884920618 C 489.75805276394544,76.70865884920619 488.0580527639454,74.90865884920618 487.4580527639454,72.90865884920618 C 486.75805276394533,70.80865884920615 487.0580527639454,68.60865884920617 487.25805276394533,66.30865884920615 C 487.4580527639454,64.10865884920617 487.6580527639453,61.90865884920618 487.5580527639453,59.808658849206154 C 487.5580527639453,57.70865884920613 487.25805276394533,55.70865884920613 486.95805276394526,54.108658849206165 C 486.7580527639452,53.308658849206154 486.5580527639453,52.50865884920614 486.35805276394524,51.90865884920618 C 485.9580527639454,51.40865884920606 485.75805276394544,50.60865884920605 485.4580527639454,49.8086588492061 M 615.6580527639454,44.8086588492061 C 616.1580527639454,43.10865884920611 617.5580527639454,39.40865884920612 616.3580527639455,33.508658849206086 C 615.7580527639454,30.60865884920611 614.5580527639455,27.60865884920611 612.4580527639455,24.60865884920611 C 610.3580527639455,21.70865884920613 607.2580527639454,18.808658849206097 603.5580527639455,16.70865884920613 C 597.0580527639455,13.008658849206142 588.6580527639455,11.808658849206154 581.1580527639455,14.708658849206131 C 573.5580527639455,17.508658849206142 566.9580527639455,24.008658849206142 563.8580527639456,31.808658849206154 C 559.6580527639455,42.70865884920613 562.5580527639456,55.108658849206165 567.1580527639455,65.10865884920617 C 571.9580527639455,75.20865884920619 578.9580527639455,83.70865884920619 586.9580527639455,88.80865884920615 C 604.2580527639454,99.40865884920618 622.3580527639455,103.50865884920614 637.5580527639455,108.80865884920615 C 652.9580527639455,114.00865884920614 665.3580527639455,120.20865884920619 675.9580527639455,124.90865884920612 C 686.4580527639455,129.70865884920607 695.3580527639455,133.3086588492061 702.7580527639454,136.00865884920614 C 717.5580527639454,141.50865884920614 726.3580527639455,144.10865884920617 731.2580527639454,145.8086588492061 C 736.1580527639454,147.40865884920612 737.2580527639454,148.00865884920614 737.2580527639454,148.00865884920614 C 737.2580527639454,148.00865884920614 736.0580527639454,147.90865884920612 730.9580527639455,147.00865884920614 C 725.8580527639455,146.00865884920614 716.8580527639455,144.3086588492061 701.5580527639455,139.8086588492061 C 693.9580527639455,137.50865884920614 684.7580527639456,134.3086588492061 673.8580527639455,130.00865884920614 C 662.9580527639455,125.70865884920619 650.6580527639454,120.10865884920617 635.5580527639455,115.50865884920614 C 627.9580527639455,113.10865884920617 619.6580527639455,110.90865884920612 610.7580527639456,108.00865884920614 C 601.8580527639456,105.10865884920617 592.2580527639456,101.50865884920614 582.8580527639456,95.80865884920615 C 572.9580527639456,89.70865884920613 565.0580527639456,80.20865884920613 559.4580527639456,68.80865884920615 C 556.6580527639456,63.108658849206165 554.5580527639456,56.808658849206154 553.5580527639456,50.00865884920614 C 552.5580527639456,43.308658849206154 552.8580527639456,35.608658849206165 555.5580527639456,28.508658849206142 C 559.4580527639456,18.40865884920612 566.9580527639456,9.90865884920612 576.7580527639457,4.808658849206154 C 586.5580527639456,-0.3913411507938349 598.5580527639456,-1.291341150793869 609.4580527639457,1.708658849206131 C 615.6580527639458,3.4086588492061196 621.6580527639458,6.508658849206142 626.6580527639458,10.708658849206131 C 631.5580527639457,14.90865884920612 635.4580527639457,20.20865884920613 637.8580527639458,25.508658849206142 C 642.9580527639458,36.108658849206165 642.0580527639459,46.90865884920612 640.3580527639458,52.108658849206165 C 638.4580527639458,58.50865884920614 634.3580527639458,64.00865884920614 629.9580527639458,67.30865884920615 C 625.5580527639459,70.80865884920615 620.5580527639459,72.40865884920618 616.4580527639458,72.80865884920615 C 612.2580527639458,73.10865884920617 608.8580527639458,72.10865884920617 606.7580527639458,70.60865884920617 C 604.6580527639458,69.10865884920617 603.9580527639458,67.30865884920615 604.0580527639457,65.50865884920614 C 604.5580527639457,61.90865884920612 607.7580527639458,59.108658849206165 609.9580527639457,55.70865884920613 C 612.4580527639454,52.40865884920606 614.6580527639454,48.508658849206086 615.6580527639454,44.8086588492061 M 553.5580527639454,183.90865884920612 C 573.0580527639454,177.3086588492061 568.4580527639454,151.60865884920617 547.8580527639454,152.20865884920607 C 547.6580527639453,152.20865884920607 547.3580527639454,152.20865884920607 547.1580527639453,152.3086588492061 C 527.6580527639453,158.90865884920612 532.2580527639453,184.60865884920605 552.8580527639454,184.00865884920614 C 553.0580527639454,184.00865884920603 553.3580527639454,184.00865884920603 553.5580527639454,183.90865884920612 M 113.55805276394537,290.2086588492061 C 120.85805276394538,293.9086588492061 132.35805276394538,296.9086588492061 145.75805276394536,294.50865884920603 C 159.15805276394536,292.308658849206 173.75805276394536,283.408658849206 183.05805276394537,270.10865884920605 C 192.55805276394537,256.908658849206 197.85805276394538,240.00865884920603 197.1580527639454,222.00865884920603 C 196.9580527639454,219.80865884920598 196.85805276394538,217.30865884920598 196.55805276394537,215.408658849206 C 196.25805276394536,213.408658849206 195.95805276394535,211.408658849206 195.6580527639454,209.50865884920603 C 195.05805276394537,205.50865884920603 194.35805276394538,201.50865884920603 193.4580527639454,197.50865884920603 C 191.75805276394541,189.50865884920603 189.6580527639454,181.408658849206 186.85805276394538,173.30865884920598 C 181.9580527639454,159.30865884920598 175.2580527639454,145.408658849206 165.05805276394537,133.60865884920594 C 155.25805276394536,122.20865884920596 143.85805276394538,112.50865884920591 131.25805276394536,104.50865884920591 C 118.55805276394537,96.60865884920594 104.55805276394537,90.50865884920591 89.75805276394536,87.40865884920589 C 74.95805276394535,84.2086588492059 59.55805276394537,84.10865884920588 44.75805276394536,86.90865884920589 C 39.558052763945355,87.7086588492059 34.558052763945355,89.40865884920589 29.558052763945355,90.60865884920588 C 24.358052763945352,92.30865884920587 19.358052763945352,94.60865884920588 14.858052763945352,97.7086588492059 C 10.358052763945352,100.80865884920593 6.158052763945349,104.80865884920593 3.258052763945358,110.00865884920591 C 0.2580527639453578,115.2086588492059 -0.7419472360546422,121.80865884920587 0.558052763945355,127.70865884920596 C 1.9580527639453607,133.70865884920596 5.558052763945355,138.70865884920596 9.558052763945355,142.408658849206 C 13.65805276394535,146.00865884920603 18.15805276394535,148.60865884920605 22.758052763945358,150.60865884920605 C 27.358052763945352,152.60865884920605 32.15805276394536,154.00865884920603 36.65805276394536,155.10865884920605 C 41.25805276394536,156.3086588492061 45.75805276394536,157.20865884920607 50.358052763945366,157.8086588492061 C 68.65805276394536,160.60865884920605 86.65805276394536,160.20865884920607 103.65805276394536,158.10865884920605 C 120.75805276394536,156.00865884920603 136.85805276394538,152.20865884920607 152.25805276394536,147.70865884920607 C 182.85805276394538,138.60865884920605 210.15805276394534,127.10865884920605 236.05805276394537,117.8086588492061 C 261.85805276394535,108.70865884920607 286.35805276394535,100.00865884920609 309.25805276394533,100.00865884920609 C 332.1580527639453,99.60865884920611 352.1580527639453,110.90865884920606 363.9580527639454,126.40865884920612 C 375.9580527639454,141.70865884920607 379.4580527639454,161.00865884920614 376.0580527639454,176.90865884920612 C 372.6580527639454,193.00865884920614 361.5580527639454,205.10865884920617 349.1580527639454,210.70865884920607 C 336.75805276394544,216.50865884920603 323.25805276394544,215.8086588492061 313.5580527639454,210.20865884920607 C 303.6580527639454,204.90865884920612 297.1580527639454,196.20865884920607 294.5580527639454,187.70865884920607 C 291.85805276394535,179.10865884920605 293.1580527639454,170.8086588492061 296.4580527639454,164.60865884920605 C 299.6580527639453,158.408658849206 304.85805276394535,154.50865884920603 309.85805276394535,153.20865884920607 C 314.85805276394535,151.90865884920612 319.4580527639454,153.3086588492061 322.6580527639453,155.00865884920603 C 329.25805276394533,158.70865884920607 331.1580527639453,163.70865884920607 331.5580527639453,166.408658849206 C 331.95805276394526,169.20865884920596 331.5580527639453,170.10865884920605 331.75805276394533,170.10865884920605 C 331.6580527639453,170.10865884920605 332.1580527639453,169.20865884920607 331.95805276394526,166.3086588492061 C 331.85805276394524,163.60865884920605 330.25805276394533,158.10865884920605 323.45805276394526,153.70865884920607 C 320.0580527639453,151.70865884920607 315.25805276394533,149.8086588492061 309.35805276394524,151.00865884920603 C 303.6580527639453,152.10865884920605 297.6580527639453,156.30865884920598 293.7580527639452,163.00865884920603 C 289.85805276394524,169.60865884920605 287.95805276394526,179.00865884920603 290.7580527639452,188.70865884920607 C 293.35805276394524,198.3086588492061 300.2580527639452,208.10865884920605 311.1580527639452,214.40865884920612 C 321.85805276394524,221.00865884920614 337.45805276394526,222.3086588492061 351.55805276394517,216.00865884920614 C 358.6580527639452,213.00865884920614 365.2580527639452,208.2086588492062 370.85805276394524,201.8086588492061 C 376.45805276394526,195.40865884920612 380.55805276394517,187.3086588492061 382.7580527639452,178.3086588492061 C 387.05805276394517,160.50865884920614 383.35805276394524,138.90865884920612 370.2580527639452,121.50865884920614 C 363.7580527639452,112.80865884920615 355.05805276394517,105.20865884920613 344.6580527639452,99.80865884920615 C 334.2580527639452,94.20865884920613 321.95805276394515,91.30865884920615 309.45805276394515,91.20865884920613 C 296.8580527639451,91.00865884920614 284.1580527639452,93.30865884920615 271.45805276394515,96.60865884920611 C 258.7580527639452,100.00865884920609 246.0580527639452,104.10865884920611 232.95805276394518,108.70865884920613 C 206.7580527639452,117.80865884920615 179.45805276394518,129.10865884920617 149.45805276394518,137.8086588492061 C 134.45805276394518,142.10865884920605 118.85805276394518,145.70865884920607 102.45805276394518,147.60865884920605 C 86.15805276394516,149.50865884920603 69.15805276394516,149.908658849206 52.05805276394517,147.10865884920605 C 47.75805276394517,146.408658849206 43.55805276394517,145.60865884920605 39.25805276394517,144.50865884920603 C 34.958052763945176,143.50865884920603 30.958052763945176,142.30865884920598 27.15805276394518,140.60865884920605 C 19.558052763945184,137.3086588492061 12.558052763945184,131.908658849206 11.258052763945173,125.3086588492061 C 9.55805276394517,118.60865884920605 13.958052763945176,111.60865884920611 21.15805276394518,106.8086588492061 C 24.65805276394518,104.40865884920612 28.758052763945173,102.50865884920609 32.958052763945176,101.20865884920607 C 37.55805276394517,100.10865884920605 42.05805276394517,98.60865884920605 46.85805276394518,97.90865884920606 C 60.35805276394518,95.40865884920606 74.1580527639452,95.70865884920607 87.35805276394518,98.90865884920606 C 100.55805276394517,102.10865884920605 112.95805276394518,108.00865884920609 123.95805276394518,115.70865884920607 C 134.95805276394518,123.50865884920603 144.85805276394518,133.10865884920605 152.65805276394516,143.70865884920607 C 160.25805276394516,154.00865884920603 164.95805276394518,166.20865884920607 168.05805276394517,179.00865884920603 C 169.75805276394516,186.30865884920598 170.95805276394518,193.70865884920607 171.75805276394516,201.10865884920605 C 172.15805276394516,204.8086588492061 172.45805276394515,208.50865884920603 172.65805276394516,212.10865884920605 C 172.75805276394516,213.908658849206 172.85805276394515,215.70865884920607 172.95805276394518,217.60865884920605 C 173.05805276394517,219.408658849206 172.95805276394518,220.70865884920607 172.95805276394518,222.3086588492061 C 172.2580527639452,234.40865884920612 167.2580527639452,245.70865884920607 160.85805276394518,253.00865884920614 C 154.45805276394518,260.4086588492061 147.05805276394517,263.60865884920617 141.05805276394517,264.2086588492062 C 134.85805276394518,264.8086588492062 130.35805276394518,263.2086588492062 127.95805276394518,262.00865884920614 C 122.25805276394519,259.4086588492061 119.05805276394517,252.7086588492062 119.35805276394518,249.00865884920614 C 119.35805276394518,247.00865884920614 120.45805276394518,244.50865884920614 121.75805276394519,242.7086588492062 C 123.1580527639452,240.90865884920623 124.75805276394519,239.8086588492062 126.25805276394519,239.10865884920617 C 127.85805276394518,238.40865884920612 130.2580527639452,238.40865884920612 132.2580527639452,238.90865884920612 C 134.35805276394518,239.40865884920612 136.2580527639452,240.20865884920607 137.85805276394518,241.10865884920617 C 141.05805276394517,242.90865884920612 143.05805276394517,245.3086588492062 145.35805276394518,245.2086588492062 C 147.35805276394518,245.2086588492062 150.05805276394517,241.90865884920623 148.7580527639452,235.10865884920617 C 148.0580527639452,231.8086588492062 146.1580527639452,228.00865884920614 142.7580527639452,224.40865884920612 C 139.35805276394518,220.90865884920612 134.2580527639452,217.60865884920617 127.25805276394519,216.50865884920614 C 112.95805276394518,214.40865884920612 96.1580527639452,224.00865884920614 90.85805276394518,242.10865884920617 C 85.65805276394536,260.7086588492061 95.45805276394537,281.2086588492061 113.55805276394537,290.2086588492061 M 381.85805276394535,49.8086588492061 C 382.25805276394533,48.508658849206086 382.9580527639454,44.708658849206074 386.75805276394533,40.90865884920612 C 390.1580527639453,37.20865884920613 398.0580527639454,34.00865884920614 406.25805276394533,35.50865884920614 C 413.25805276394533,36.608658849206165 419.9580527639454,42.308658849206154 422.85805276394535,50.20865884920613 C 425.85805276394535,58.10865884920611 424.5580527639454,67.30865884920615 419.1580527639454,74.30865884920615 C 411.5580527639454,84.20865884920613 399.25805276394544,89.80865884920615 387.75805276394544,91.70865884920613 C 375.85805276394547,93.60865884920611 364.0580527639454,92.60865884920611 352.85805276394547,91.60865884920611 C 330.25805276394544,89.00865884920609 309.4580527639455,89.10865884920611 292.1580527639454,91.50865884920609 C 257.1580527639454,96.20865884920607 234.25805276394547,106.60865884920611 218.85805276394544,114.40865884920606 C 203.55805276394543,122.50865884920603 195.65805276394545,128.60865884920605 191.25805276394541,132.10865884920605 C 186.85805276394544,135.60865884920605 185.9580527639454,136.60865884920605 185.9580527639454,136.60865884920605 C 185.9580527639454,136.60865884920605 187.25805276394541,136.10865884920605 192.05805276394543,133.3086588492061 C 196.9580527639454,130.60865884920605 205.4580527639454,125.60865884920605 220.9580527639454,118.8086588492061 C 236.4580527639454,112.40865884920612 259.25805276394544,103.60865884920611 293.0580527639454,100.10865884920611 C 310.0580527639454,98.40865884920612 329.1580527639454,98.70865884920613 351.75805276394533,101.70865884920613 C 363.0580527639454,102.90865884920612 375.6580527639453,104.20865884920613 389.35805276394535,102.30865884920615 C 396.25805276394533,101.20865884920613 403.25805276394533,99.20865884920613 409.9580527639454,95.70865884920613 C 416.6580527639454,92.30865884920615 423.0580527639454,87.50865884920614 428.0580527639454,80.90865884920612 C 431.6580527639454,76.20865884920613 434.25805276394544,70.60865884920611 435.75805276394544,64.70865884920613 C 437.1580527639454,58.70865884920613 437.0580527639454,52.50865884920614 435.75805276394544,46.50865884920614 C 434.4580527639454,40.50865884920614 431.9580527639454,34.808658849206154 428.25805276394544,29.608658849206165 C 424.5580527639454,24.508658849206142 419.35805276394547,20.008658849206142 413.5580527639454,17.008658849206142 C 400.25805276394544,9.90865884920612 383.6580527639454,10.308658849206154 371.4580527639454,17.008658849206142 C 359.25805276394544,23.508658849206142 353.1580527639454,34.20865884920613 351.35805276394535,40.308658849206154 C 350.25805276394533,44.00865884920614 349.75805276394533,47.808658849206154 349.9580527639454,51.50865884920614 C 350.1580527639454,55.40865884920612 350.9580527639454,58.90865884920612 352.25805276394544,62.00865884920614 C 354.85805276394547,68.20865884920613 359.1580527639454,72.60865884920617 363.35805276394547,75.10865884920617 C 367.6580527639454,77.60865884920617 371.85805276394547,78.10865884920617 374.75805276394544,77.40865884920618 C 377.6580527639454,76.70865884920619 379.35805276394547,74.90865884920618 379.9580527639454,72.90865884920618 C 380.6580527639454,70.80865884920615 380.35805276394535,68.60865884920617 380.1580527639454,66.30865884920615 C 379.9580527639454,64.10865884920617 379.75805276394544,61.90865884920618 379.85805276394535,59.808658849206154 C 379.85805276394535,57.70865884920613 380.1580527639454,55.70865884920613 380.4580527639454,54.108658849206165 C 380.6580527639454,53.308658849206154 380.85805276394535,52.50865884920614 381.0580527639454,51.90865884920618 C 381.35805276394535,51.40865884920606 381.6580527639454,50.60865884920605 381.85805276394535,49.8086588492061 M 251.6580527639454,44.8086588492061 C 251.1580527639454,43.10865884920611 249.75805276394541,39.40865884920612 250.9580527639454,33.508658849206086 C 251.55805276394543,30.60865884920611 252.75805276394541,27.60865884920611 254.85805276394538,24.60865884920611 C 256.9580527639454,21.70865884920613 260.0580527639454,18.808658849206097 263.75805276394533,16.70865884920613 C 270.25805276394533,13.008658849206142 278.6580527639453,11.808658849206154 286.1580527639453,14.708658849206131 C 293.75805276394533,17.508658849206142 300.35805276394535,24.008658849206142 303.4580527639454,31.808658849206154 C 307.6580527639453,42.70865884920613 304.75805276394533,55.108658849206165 300.1580527639453,65.10865884920617 C 295.35805276394535,75.20865884920619 288.35805276394535,83.70865884920619 280.35805276394535,88.80865884920615 C 263.0580527639453,99.40865884920618 244.95805276394535,103.50865884920614 229.7580527639453,108.80865884920615 C 214.35805276394532,114.00865884920614 201.9580527639453,120.20865884920619 191.35805276394532,124.90865884920612 C 180.85805276394532,129.70865884920607 171.95805276394532,133.3086588492061 164.5580527639453,136.00865884920614 C 149.7580527639453,141.50865884920614 140.95805276394532,144.10865884920617 136.0580527639453,145.8086588492061 C 131.1580527639453,147.40865884920612 130.0580527639453,148.00865884920614 130.0580527639453,148.00865884920614 C 130.0580527639453,148.00865884920614 131.2580527639453,147.90865884920612 136.35805276394532,147.00865884920614 C 141.45805276394532,146.00865884920614 150.45805276394532,144.3086588492061 165.75805276394533,139.8086588492061 C 173.35805276394532,137.50865884920614 182.5580527639453,134.3086588492061 193.45805276394535,130.00865884920614 C 204.35805276394532,125.70865884920619 216.65805276394534,120.10865884920617 231.75805276394536,115.50865884920614 C 239.35805276394538,113.10865884920617 247.65805276394534,110.90865884920612 256.5580527639454,108.00865884920614 C 265.4580527639454,105.10865884920617 275.0580527639454,101.50865884920614 284.4580527639454,95.80865884920615 C 294.35805276394535,89.70865884920613 302.25805276394533,80.20865884920613 307.85805276394535,68.80865884920615 C 310.6580527639453,63.108658849206165 312.75805276394533,56.808658849206154 313.75805276394533,50.00865884920614 C 314.75805276394533,43.308658849206154 314.45805276394526,35.608658849206165 311.75805276394533,28.508658849206142 C 307.85805276394535,18.40865884920612 300.35805276394535,9.90865884920612 290.5580527639453,4.808658849206154 C 280.75805276394533,-0.3913411507938349 268.75805276394533,-1.291341150793869 257.85805276394535,1.708658849206131 C 251.65805276394534,3.4086588492061196 245.65805276394534,6.508658849206142 240.65805276394534,10.708658849206131 C 235.75805276394536,14.90865884920612 231.85805276394532,20.20865884920613 229.45805276394535,25.508658849206142 C 224.35805276394532,36.108658849206165 225.25805276394536,46.90865884920612 226.95805276394535,52.108658849206165 C 228.85805276394532,58.50865884920614 232.95805276394535,64.00865884920614 237.35805276394532,67.30865884920615 C 241.7580527639453,70.80865884920615 246.7580527639453,72.40865884920618 250.85805276394532,72.80865884920615 C 255.0580527639453,73.10865884920617 258.4580527639454,72.10865884920617 260.5580527639453,70.60865884920617 C 262.6580527639453,69.10865884920617 263.35805276394535,67.30865884920615 263.25805276394533,65.50865884920614 C 262.75805276394533,61.90865884920612 259.5580527639453,59.108658849206165 257.35805276394535,55.70865884920613 C 254.95805276394535,52.40865884920606 252.75805276394536,48.508658849206086 251.6580527639454,44.8086588492061 M 313.85805276394535,183.90865884920612 C 294.35805276394535,177.3086588492061 298.9580527639454,151.60865884920617 319.5580527639454,152.20865884920607 C 319.75805276394533,152.20865884920607 320.0580527639454,152.20865884920607 320.25805276394533,152.3086588492061 C 339.75805276394533,158.90865884920612 335.1580527639453,184.60865884920605 314.5580527639454,184.00865884920614 C 314.25805276394533,184.00865884920603 314.0580527639454,184.00865884920603 313.85805276394535,183.90865884920612"/>
</svg>
