<?xml version="1.0" ?>
<svg xmlns="http://www.w3.org/2000/svg" xmlns:ev="http://www.w3.org/2001/xml-events" xmlns:xlink="http://www.w3.org/1999/xlink" baseProfile="full" height="128" transform="scale(1.1111111111111112 1.1111111111111112) translate(-45.0 -64.0)" version="1.1" viewBox="0 0 90 128" width="90">
	<defs/>
	<path d="M 88.787693857774,2.4815902160800025 A 3.8,3.8 0.0 0,0 87.417693857774,1.4115902160800025 C 86.927693857774,1.1315902160800024 86.677693857774,0.6215902160800024 86.187693857774,0.29159021608000235 C 85.06769385777399,-0.4284097839199976 84.34769385777399,0.29159021608000235 83.89769385777399,1.2915902160800024 A 3.63,3.63 0.0 0,0 82.23769385777399,2.691590216080002 C 81.62769385777399,3.461590216080002 80.887693857774,4.121590216080001 80.23769385777399,4.881590216080001 A 6.66,6.66 0.0 0,1 78.027693857774,6.841590216080002 A 7.45,7.45 0.0 0,1 75.677693857774,7.431590216080002 A 10.85,10.85 0.0 0,0 71.18769385777401,8.611590216080002 A 6.68,6.68 0.0 0,0 69.18769385777401,10.541590216080001 A 20.67,20.67 0.0 0,1 67.027693857774,13.051590216080003 C 65.777693857774,12.381590216080003 64.09769385777399,12.641590216080003 62.747693857773996,12.591590216080002 C 61.677693857773995,12.591590216080002 60.29769385777399,12.661590216080002 60.147693857773994,13.991590216080002 C 59.997693857773996,15.321590216080002 61.007693857773994,16.651590216080002 61.777693857774,17.641590216080004 C 62.18769385777399,18.181590216080004 62.567693857773996,18.711590216080005 62.947693857774,19.271590216080003 C 63.157693857774,19.581590216080002 63.357693857773995,19.891590216080004 63.587693857774,20.191590216080005 C 63.817693857774,20.491590216080006 63.967693857774,20.581590216080006 64.01769385777399,20.831590216080006 A 0.2,0.2 0.0 0,0 64.01769385777399,20.931590216080007 C 63.967693857774,21.60159021608001 63.967693857774,22.241590216080006 63.907693857774,22.931590216080007 A 17.86,17.86 0.0 0,1 63.427693857774,25.351590216080005 A 9.75,9.75 0.0 0,1 62.507693857774,27.801590216080005 A 22.92,22.92 0.0 0,1 57.507693857774,34.26159021608 C 57.097693857774004,34.641590216080004 56.667693857774,35.031590216080005 56.287693857774,35.44159021608 C 55.90769385777401,35.85159021608 55.597693857774004,36.44159021608 55.157693857774,36.81159021608 C 54.907693857774,37.041590216079996 54.547693857774,37.20159021608 54.267693857774,37.43159021608 A 13.8,13.8 0.0 0,1 52.887693857773996,38.50159021608 C 51.817693857773996,39.191590216079994 50.79769385777399,39.93159021608 49.677693857773995,40.50159021608 A 32.94,32.94 0.0 0,1 45.677693857773995,42.291590216079996 C 42.997693857773996,43.291590216079996 40.217693857773995,43.92159021608 37.51769385777399,44.791590216079996 A 41.75,41.75 0.0 0,0 29.887693857773996,48.001590216080004 C 25.497693857773996,50.41159021608 21.027693857773997,53.781590216080005 18.517693857773992,58.20159021608001 A 21.22,21.22 0.0 0,0 16.247693857773996,65.20159021608 A 14.9,14.9 0.0 0,0 16.027693857773997,68.00159021608 A 2.84,2.84 0.0 0,0 16.357693857773995,69.45159021608 A 17.0,17.0 0.0 0,0 13.907693857773994,72.87159021608001 C 12.177693857773994,75.30159021608002 11.157693857773994,78.21159021608001 9.907693857773994,80.87159021608001 A 50.79,50.79 0.0 0,0 7.027693857773995,89.67159021608 C 6.217693857773995,92.91159021608 5.417693857773995,96.18159021608001 4.577693857773995,99.39159021608 A 25.08,25.08 0.0 0,1 2.867693857773995,103.50159021608 C 2.287693857773995,104.73159021608001 1.547693857773995,105.85159021608 0.9876938577739951,107.08159021608 A 12.26,12.26 0.0 0,0 0.13769385777399512,111.70159021608 A 10.7,10.7 0.0 0,0 0.2476938577739951,115.70159021608 C 0.3176938577739951,115.95159021608 0.5776938577739952,115.98159021608001 0.7776938577739951,115.83159021608 C 0.9376938577739952,116.06159021608 1.0876938577739952,116.29159021608 1.217693857773995,116.52159021608 C 1.347693857773995,116.75159021608 1.497693857773995,117.26159021608 1.647693857773995,117.64159021608 A 6.89,6.89 0.0 0,1 2.237693857773995,119.86159021608 A 20.25,20.25 0.0 0,0 2.237693857773995,124.53159021608 A 0.32,0.32 0.0 0,0 2.617693857773995,124.76159021608001 A 12.2,12.2 0.0 0,1 4.1776938577739955,124.17159021608 A 12.71,12.71 0.0 0,1 3.5376938577739954,127.17159021608 A 0.32,0.32 0.0 0,0 3.837693857773995,127.57159021608001 A 10.0,10.0 0.0 0,0 8.207693857773995,126.40159021608001 C 8.717693857773995,127.11159021608 10.497693857773994,125.84159021608001 10.957693857773995,125.48159021608001 C 11.417693857773996,125.12159021608001 12.027693857773995,124.59159021608001 12.567693857773994,124.15159021608001 C 13.107693857773993,123.71159021608001 13.867693857773995,123.15159021608001 14.507693857773994,122.62159021608001 A 14.47,14.47 0.0 0,0 17.507693857773994,118.62159021608001 A 13.0,13.0 0.0 0,0 18.367693857773993,116.62159021608001 C 18.49769385777399,116.21159021608001 18.59769385777399,115.80159021608002 18.70769385777399,115.40159021608001 A 1.63,1.63 0.0 0,1 18.87769385777399,114.78159021608 C 18.87769385777399,114.60159021608 18.87769385777399,114.58159021608 18.98769385777399,114.71159021608001 A 0.38,0.38 0.0 0,0 19.16769385777399,114.86159021608002 C 20.05769385777399,115.42159021608002 21.227693857773993,113.58159021608002 21.587693857773992,113.02159021608001 A 27.17,27.17 0.0 0,0 23.397693857773987,109.45159021608002 A 14.1,14.1 0.0 0,0 24.217693857773988,107.00159021608002 A 4.8,4.8 0.0 0,0 24.38769385777399,105.82159021608001 A 0.59,0.59 0.0 0,0 24.38769385777399,105.62159021608001 C 24.437693857773993,105.62159021608001 24.517693857773992,105.54159021608001 24.537693857773988,105.49159021608001 A 4.16,4.16 0.0 0,0 25.027693857773997,104.00159021608 C 25.207693857773997,103.21159021608 25.357693857773995,102.42159021608 25.487693857773998,101.60159021608 C 25.767693857774,99.92159021607999 25.917693857773997,98.21159021608 26.307693857773998,96.52159021608 A 7.83,7.83 0.0 0,0 26.307693857773998,92.52159021608 A 0.35,0.35 0.0 0,0 26.507693857773994,92.31159021608 A 6.9,6.9 0.0 0,0 26.607693857773995,88.87159021608001 C 26.477693857774,87.95159021608 26.327693857773994,87.03159021608 26.147693857773994,86.13159021608001 A 8.54,8.54 0.0 0,0 28.677693857773995,87.64159021608002 A 33.0,33.0 0.0 0,0 33.677693857774,89.27159021608001 C 35.437693857774,89.76159021608001 37.177693857774,90.35159021608001 38.937693857774,90.86159021608002 A 10.11,10.11 0.0 0,0 40.937693857774,91.32159021608001 A 7.14,7.14 0.0 0,0 43.437693857774,90.86159021608002 A 11.82,11.82 0.0 0,1 45.937693857774,90.27159021608001 A 7.67,7.67 0.0 0,0 47.937693857774,89.73159021608001 A 2.06,2.06 0.0 0,0 49.127693857774,87.00159021608 A 3.44,3.44 0.0 0,0 48.587693857774,85.62159021608001 A 10.19,10.19 0.0 0,0 47.387693857773996,84.55159021608002 A 5.0,5.0 0.0 0,0 46.137693857773996,83.47159021608002 A 3.59,3.59 0.0 0,0 44.277693857774,83.17159021608002 C 43.43769385777399,83.17159021608002 42.617693857774,83.55159021608002 41.777693857774,83.55159021608002 A 6.43,6.43 0.0 0,1 39.197693857774,82.86159021608002 C 38.257693857774,82.45159021608002 37.367693857774,81.99159021608001 36.447693857774,81.56159021608002 A 14.78,14.78 0.0 0,0 34.737693857774,80.89159021608002 A 21.93,21.93 0.0 0,0 36.737693857774,79.95159021608002 A 16.35,16.35 0.0 0,1 38.597693857774,78.95159021608002 C 39.487693857774,78.62159021608002 40.327693857773994,78.24159021608003 41.217693857773995,77.95159021608002 A 10.14,10.14 0.0 0,0 43.747693857773996,76.69159021608002 A 12.78,12.78 0.0 0,0 45.29769385777399,75.21159021608001 A 0.35,0.35 0.0 0,0 45.607693857773995,75.01159021608001 C 45.607693857773995,75.01159021608001 45.607693857773995,74.91159021608001 45.707693857774,74.83159021608 C 45.807693857774,74.75159021607999 45.887693857773996,74.68159021608 45.987693857774,74.60159021608 A 29.0,29.0 0.0 0,1 49.127693857774,73.00159021608 A 32.39,32.39 0.0 0,0 53.507693857774,70.27159021608 C 53.507693857774,70.27159021608 53.507693857774,70.27159021608 53.507693857774,70.35159021608 A 0.51,0.51 0.0 0,0 53.787693857774,70.63159021608 C 53.837693857774,70.73159021608 53.887693857774,70.86159021608 53.937693857774,70.99159021608 A 5.11,5.11 0.0 0,1 54.217693857774,72.47159021608 C 54.377693857774,73.47159021608 54.707693857774004,74.41159021608 54.857693857774,75.37159021608001 C 55.187693857774,77.37159021608001 55.057693857774005,79.37159021608001 55.347693857774004,81.37159021608001 C 55.497693857774,82.37159021608001 55.72769385777401,83.37159021608001 55.927693857774,84.37159021608001 C 56.127693857774,85.37159021608001 56.087693857774,86.31159021608 56.207693857774004,87.28159021608 C 56.317693857774,88.07159021608001 56.487693857774005,88.84159021608001 56.54769385777401,89.60159021608 C 56.60769385777401,90.36159021607999 56.64769385777401,91.08159021608 56.767693857774006,91.82159021608 A 7.88,7.88 0.0 0,0 57.127693857774005,93.38159021608 A 2.72,2.72 0.0 0,0 58.07769385777401,94.50159021608 A 7.0,7.0 0.0 0,0 62.467693857773995,96.00159021608 A 14.64,14.64 0.0 0,0 65.027693857774,95.36159021608 A 2.3,2.3 0.0 0,0 66.557693857774,94.54159021608001 A 2.07,2.07 0.0 0,0 66.687693857774,92.54159021608001 C 66.587693857774,92.28159021608 66.637693857774,92.03159021608 66.557693857774,91.77159021608001 A 2.4,2.4 0.0 0,0 66.177693857774,91.14159021608002 A 6.37,6.37 0.0 0,0 64.697693857774,89.48159021608002 A 3.64,3.64 0.0 0,0 63.497693857773996,88.92159021608002 C 63.317693857773996,88.86159021608002 63.037693857773995,88.92159021608002 62.857693857773995,88.84159021608002 A 1.52,1.52 0.0 0,1 62.447693857774,88.45159021608002 A 2.57,2.57 0.0 0,1 62.027693857774,87.12159021608001 C 61.977693857774,86.56159021608 61.977693857774,85.99159021608001 61.927693857773995,85.46159021608001 A 13.12,13.12 0.0 0,0 61.647693857773994,83.72159021608002 A 35.91,35.91 0.0 0,1 61.05769385777399,77.27159021608001 C 61.05769385777399,76.04159021608001 61.05769385777399,74.84159021608001 61.05769385777399,73.61159021608002 A 3.8,3.8 0.0 0,0 61.23769385777399,74.15159021608002 A 7.71,7.71 0.0 0,0 62.84769385777399,76.83159021608003 A 16.64,16.64 0.0 0,1 66.05769385777398,82.55159021608003 C 66.77769385777398,84.31159021608003 67.43769385777398,86.02159021608003 69.52769385777398,86.35159021608003 A 4.24,4.24 0.0 0,0 70.80769385777398,86.56159021608002 C 71.25769385777399,86.63159021608001 71.38769385777398,87.07159021608003 71.66769385777398,87.40159021608002 C 71.66769385777398,87.40159021608002 71.66769385777398,87.40159021608002 71.74769385777398,87.40159021608002 A 1.67,1.67 0.0 0,0 72.25769385777399,87.68159021608002 A 3.33,3.33 0.0 0,0 72.81769385777399,87.86159021608003 C 72.81769385777399,87.86159021608003 72.81769385777399,87.86159021608003 72.81769385777399,87.78159021608003 C 72.81769385777399,87.70159021608004 72.81769385777399,87.86159021608003 72.88769385777398,87.86159021608003 A 3.88,3.88 0.0 0,0 73.88769385777398,88.01159021608004 A 5.42,5.42 0.0 0,0 77.07769385777398,87.63159021608004 A 2.44,2.44 0.0 0,0 77.98769385777398,86.15159021608004 A 3.52,3.52 0.0 0,0 77.50769385777397,84.00159021608003 C 76.38769385777397,82.22159021608003 74.11769385777397,82.00159021608003 72.25769385777397,81.71159021608003 A 5.88,5.88 0.0 0,1 70.77769385777397,81.43159021608002 A 2.09,2.09 0.0 0,1 69.85769385777397,80.43159021608002 C 69.41769385777397,79.67159021608002 69.13769385777397,78.83159021608003 68.67769385777396,78.09159021608002 A 11.2,11.2 0.0 0,1 67.07769385777397,75.09159021608002 C 66.79769385777396,73.86159021608002 67.25769385777397,72.56159021608002 67.25769385777397,71.33159021608002 C 67.25769385777397,68.63159021608001 66.25769385777397,66.10159021608001 65.71769385777397,63.47159021608002 A 8.1,8.1 0.0 0,0 69.47769385777397,62.32159021608002 A 25.46,25.46 0.0 0,0 73.60769385777397,59.411590216080015 A 17.22,17.22 0.0 0,0 77.027693857774,56.16159021608 A 15.53,15.53 0.0 0,0 78.527693857774,53.53159021608 C 78.857693857774,52.761590216079995 79.167693857774,51.971590216079996 79.527693857774,51.261590216079995 A 0.32,0.32 0.0 0,0 79.887693857774,51.261590216079995 C 80.777693857774,50.67159021607999 80.827693857774,49.07159021608 81.107693857774,48.121590216079994 C 81.67769385777399,46.231590216079994 82.107693857774,44.32159021608 82.797693857774,42.481590216079994 A 42.65,42.65 0.0 0,0 84.73769385777399,37.25159021607999 C 85.03769385777399,35.87159021607999 85.11769385777399,34.47159021607999 85.497693857774,33.09159021607999 L 85.497693857774,33.09159021607999 A 18.93,18.93 0.0 0,0 86.027693857774,27.441590216080005 A 39.34,39.34 0.0 0,1 86.15769385777399,22.591590216080007 A 30.89,30.89 0.0 0,1 86.51769385777399,19.381590216080006 A 22.73,22.73 0.0 0,1 87.437693857774,16.131590216080006 C 87.78769385777399,15.131590216080005 88.14769385777399,14.021590216080005 88.437693857774,12.971590216080005 A 13.0,13.0 0.0 0,0 88.81769385777399,11.541590216080005 A 2.63,2.63 0.0 0,0 88.94769385777398,10.671590216080006 A 13.26,13.26 0.0 0,0 89.807693857774,6.001590216080002 A 7.27,7.27 0.0 0,0 88.787693857774,2.4815902160800025 M 25.907693857773992,79.28159021608 A 2.08,2.08 0.0 0,0 25.907693857773992,82.45159021608 A 0.07,0.07 0.0 0,0 25.907693857773992,82.52159021608 A 6.57,6.57 0.0 0,0 25.397693857773994,83.19159021608 C 25.327693857773994,83.03159021608 25.267693857773992,82.88159021608 25.19769385777399,82.73159021608001 C 24.937693857773993,82.12159021608001 24.637693857773996,81.53159021608 24.327693857773994,80.94159021608 A 18.09,18.09 0.0 0,0 22.69769385777399,78.67159021608 A 12.7,12.7 0.0 0,0 25.907693857773992,79.28159021608"/>
</svg>
