<?xml version="1.0" ?>
<svg xmlns="http://www.w3.org/2000/svg" xmlns:ev="http://www.w3.org/2001/xml-events" xmlns:xlink="http://www.w3.org/1999/xlink" baseProfile="full" height="128" transform="scale(0.78125 0.78125) translate(-71.5 -64.0)" version="1.1" viewBox="0 0 143 128" width="143">
	<defs/>
	<path class="cls-1" d="M 83.7,78.77142608667693 C 83.61,77.77142608667693 83.94,77.22142608667693 83.83,76.19142608667693 L 84.67999999999999,76.19142608667693 C 84.25,76.95142608667693 84.17,78.07142608667694 83.7,78.77142608667693 M 12.75,55.95142608667693 C 12.75,56.081426086676935 12.66,56.21142608667693 12.61,56.34142608667693 C 12.45,56.761426086676934 11.33,58.75142608667693 12.32,58.56142608667693 A 1.81,1.81 0.0 0,0 12.42,58.39142608667693 C 12.52,59.06142608667693 11.93,59.99142608667693 11.78,60.63142608667693 A 16.36,16.36 0.0 0,0 11.709999999999999,62.63142608667693 A 13.5,13.5 0.0 0,0 11.48,64.95142608667693 A 2.68,2.68 0.0 0,0 11.96,64.71142608667694 A 13.88,13.88 0.0 0,0 11.040000000000001,66.71142608667694 A 8.0,8.0 0.0 0,0 10.09,68.95142608667693 C 9.73,70.46142608667694 8.45,71.87142608667693 8.57,73.47142608667693 L 9.22,73.11142608667693 C 9.56,74.84142608667693 7.5600000000000005,76.11142608667693 6.670000000000001,77.26142608667693 C 6.360000000000001,77.67142608667693 4.280000000000001,80.64142608667693 5.430000000000001,80.78142608667693 C 5.49,81.78142608667693 3.8000000000000007,82.42142608667693 4.1000000000000005,83.78142608667693 A 1.25,1.25 0.0 0,0 4.86,83.62142608667693 C 4.5200000000000005,83.81142608667693 4.2,84.48142608667693 3.8600000000000003,84.77142608667694 C 3.5200000000000005,85.06142608667695 3.16,85.33142608667694 2.8600000000000003,85.66142608667694 A 6.18,6.18 0.0 0,0 1.6400000000000003,88.34142608667695 A 7.21,7.21 0.0 0,1 2.8800000000000003,87.79142608667695 C 1.8800000000000003,89.28142608667694 0.7300000000000004,90.79142608667695 0.8800000000000003,92.69142608667696 C 1.3100000000000003,92.44142608667696 1.6400000000000003,91.86142608667696 2.1300000000000003,91.78142608667696 A 11.55,11.55 0.0 0,0 1.5600000000000005,93.50142608667696 C 1.4100000000000006,94.16142608667695 1.4900000000000004,94.85142608667695 1.2900000000000005,95.50142608667696 C 1.0900000000000005,96.15142608667696 0.83,96.56142608667693 0.68,97.16142608667693 A 28.36,28.36 0.0 0,0 0.5,100.59142608667693 C 0.39,101.43142608667694 0.07,102.24142608667694 0.0,103.08142608667693 A 13.93,13.93 0.0 0,0 2.44,101.40142608667692 C 2.44,102.63142608667692 0.8,103.19142608667693 0.020000000000000018,103.87142608667692 A 5.35,5.35 0.0 0,0 2.02,103.62142608667692 A 16.56,16.56 0.0 0,1 3.59,102.95142608667693 C 3.42,103.61142608667693 2.71,104.12142608667693 2.3499999999999996,104.66142608667693 A 10.53,10.53 0.0 0,0 7.47,103.66142608667693 A 5.42,5.42 0.0 0,0 9.469999999999999,102.03142608667693 A 9.24,9.24 0.0 0,0 10.12,101.03142608667693 C 10.239999999999998,100.83142608667693 10.799999999999999,100.10142608667692 10.829999999999998,99.96142608667694 A 14.76,14.76 0.0 0,0 10.719999999999999,102.86142608667694 A 5.42,5.42 0.0 0,1 10.639999999999999,104.31142608667695 C 10.579999999999998,104.55142608667694 10.149999999999999,105.10142608667695 10.149999999999999,105.31142608667695 C 10.149999999999999,110.79142608667695 8.04,117.31142608667695 7.909999999999998,122.04142608667695 C 7.909999999999998,123.47142608667696 8.429999999999998,124.98142608667695 9.589999999999998,125.24142608667695 A 30.54,30.54 0.0 0,0 17.08,126.16142608667695 C 18.08,126.16142608667695 19.029999999999998,126.44142608667696 19.389999999999997,125.34142608667696 A 5.76,5.76 0.0 0,0 19.089999999999996,122.01142608667696 A 5.48,5.48 0.0 0,0 18.089999999999996,120.21142608667697 C 17.969999999999995,120.07142608667696 16.839999999999996,119.21142608667697 16.849999999999998,119.21142608667697 C 16.849999999999998,118.98142608667696 16.849999999999998,118.77142608667697 16.709999999999997,118.75142608667697 C 16.709999999999997,113.69142608667697 16.499999999999996,107.75142608667697 17.83,103.99142608667697 A 23.0,23.0 0.0 0,1 19.409999999999997,98.36142608667697 C 19.689999999999998,97.63142608667697 21.719999999999995,93.09142608667698 21.209999999999997,92.69142608667697 A 4.0,4.0 0.0 0,1 22.22,93.95142608667693 C 22.5,93.07142608667694 22.84,92.23142608667693 23.04,91.35142608667694 A 1.18,1.18 0.0 0,1 23.72,92.49142608667694 A 8.0,8.0 0.0 0,0 24.72,89.49142608667694 A 3.55,3.55 0.0 0,1 26.09,90.49142608667694 A 5.23,5.23 0.0 0,1 26.69,88.00142608667694 C 27.09,88.41142608667694 27.290000000000003,89.13142608667694 27.810000000000002,89.43142608667695 A 14.2,14.2 0.0 0,1 27.750000000000004,86.66142608667695 A 2.0,2.0 0.0 0,0 29.250000000000004,87.60142608667695 A 2.47,2.47 0.0 0,1 29.010000000000005,86.75142608667696 A 8.34,8.34 0.0 0,0 30.350000000000005,86.62142608667696 C 29.790000000000006,86.00142608667696 30.270000000000007,84.33142608667696 30.890000000000004,83.90142608667696 C 31.250000000000004,83.64142608667696 31.170000000000005,86.62142608667696 31.170000000000005,86.74142608667697 A 11.05,11.05 0.0 0,1 31.170000000000005,89.67142608667697 C 31.0,90.30142608667693 30.0,90.85142608667694 30.0,91.25142608667693 C 29.45,95.58142608667693 27.06,97.90142608667693 25.09,100.68142608667692 C 24.39,101.68142608667692 25.86,104.80142608667693 26.18,105.81142608667692 C 26.81,107.81142608667692 27.49,109.73142608667692 28.31,111.63142608667691 C 29.209999999999997,113.71142608667691 30.779999999999998,115.05142608667691 32.1,116.9514260866769 C 32.57,117.63142608667691 32.75,118.57142608667691 33.22,119.2314260866769 C 33.53,119.66142608667691 34.08,119.88142608667691 34.35,120.3014260866769 C 34.95,121.2414260866769 34.79,122.1714260866769 36.35,122.4314260866769 C 37.68,122.6614260866769 39.35,122.09142608667689 40.980000000000004,122.28142608667689 C 42.61000000000001,122.47142608667689 44.330000000000005,123.61142608667689 46.45,123.34142608667689 C 47.78,123.1814260866769 49.510000000000005,122.5214260866769 49.6,121.0214260866769 A 4.16,4.16 0.0 0,0 47.6,117.6414260866769 A 5.74,5.74 0.0 0,0 44.800000000000004,116.7014260866769 A 6.0,6.0 0.0 0,0 43.220000000000006,116.7914260866769 C 43.03000000000001,116.7914260866769 41.85000000000001,117.30142608667691 41.77,117.2614260866769 A 16.63,16.63 0.0 0,1 35.6,108.43142608667691 A 23.11,23.11 0.0 0,1 38.0,97.33142608667693 C 38.35,96.56142608667693 38.89,95.94142608667693 39.19,95.09142608667693 A 16.07,16.07 0.0 0,1 40.419999999999995,92.55142608667693 A 13.18,13.18 0.0 0,1 42.83,88.95142608667693 A 5.93,5.93 0.0 0,0 44.05,87.72142608667693 C 44.41,87.14142608667693 44.239999999999995,86.23142608667693 44.55,85.72142608667693 C 44.86,85.21142608667692 45.61,84.45142608667693 45.949999999999996,84.50142608667693 A 15.22,15.22 0.0 0,1 46.709999999999994,81.74142608667692 A 17.64,17.64 0.0 0,0 47.419999999999995,79.40142608667692 A 5.41,5.41 0.0 0,0 47.879999999999995,77.66142608667693 A 15.84,15.84 0.0 0,1 48.0,79.95142608667693 A 8.33,8.33 0.0 0,0 48.61,77.08142608667693 A 4.65,4.65 0.0 0,1 49.78,78.08142608667693 A 3.4,3.4 0.0 0,1 50.32,78.86142608667693 C 50.39,79.03142608667693 50.32,79.74142608667692 50.45,79.86142608667693 C 51.28,80.62142608667693 52.080000000000005,78.13142608667692 52.1,77.54142608667694 C 53.22,78.17142608667693 53.0,79.20142608667693 53.1,80.31142608667693 A 3.49,3.49 0.0 0,0 54.28,79.07142608667694 C 54.47,78.65142608667693 54.370000000000005,78.07142608667694 54.72,77.73142608667693 C 54.94,78.34142608667693 56.08,79.73142608667693 56.72,79.84142608667693 A 1.47,1.47 0.0 0,1 56.54,77.93142608667694 C 57.24,78.63142608667694 58.61,79.59142608667693 59.64,79.47142608667694 C 59.15,79.16142608667694 59.36,78.47142608667694 59.12,78.02142608667694 C 60.57,77.84142608667693 60.839999999999996,79.02142608667694 61.51,80.02142608667694 A 5.0,5.0 0.0 0,0 63.43,77.73142608667693 C 63.26,78.10142608667694 64.54,79.32142608667694 64.91,79.33142608667693 C 65.81,79.33142608667693 66.27,78.01142608667693 66.28999999999999,77.33142608667693 C 66.77999999999999,77.45142608667693 66.55,78.59142608667693 66.58,79.05142608667693 C 67.32,78.82142608667692 67.99,77.64142608667693 68.71,77.16142608667693 C 68.71,77.77142608667693 68.05999999999999,78.30142608667693 67.94,78.86142608667693 C 68.58,78.47142608667693 69.36,77.31142608667693 70.14,77.34142608667693 C 70.14,77.34142608667693 69.73,79.02142608667694 69.7,79.18142608667694 A 5.69,5.69 0.0 0,0 69.79,82.18142608667694 C 69.94000000000001,82.55142608667694 70.2,82.85142608667694 70.37,83.18142608667694 A 4.15,4.15 0.0 0,1 70.7,85.32142608667694 C 70.7,86.32142608667694 70.91,87.40142608667693 71.0,88.44142608667694 A 19.51,19.51 0.0 0,1 71.0,90.98142608667695 A 3.68,3.68 0.0 0,0 71.22,92.29142608667695 C 71.27,92.42142608667695 71.87,93.36142608667694 71.86,93.38142608667695 A 3.8,3.8 0.0 0,0 72.19,96.72142608667696 C 72.55,97.38142608667695 72.46,97.33142608667696 72.27,98.03142608667696 A 7.0,7.0 0.0 0,0 72.53,101.31142608667696 C 72.71000000000001,102.31142608667696 72.88,103.42142608667696 73.03,104.48142608667696 C 73.18,105.54142608667696 73.31,106.79142608667696 73.38,107.95142608667696 C 73.38,108.58142608667696 73.44,109.23142608667696 73.44,109.86142608667696 C 73.44,110.27142608667695 73.19,111.63142608667695 73.44,111.93142608667695 C 73.69,112.23142608667695 74.12,112.21142608667695 74.44,112.39142608667694 A 6.92,6.92 0.0 0,0 74.87,116.39142608667694 A 13.0,13.0 0.0 0,0 76.09,122.24142608667694 C 76.45,123.05142608667694 76.83,123.84142608667693 77.16,124.66142608667694 C 77.41,125.29142608667694 77.56,126.49142608667694 78.16,126.87142608667693 A 3.23,3.23 0.0 0,0 78.96,127.12142608667693 A 18.28,18.28 0.0 0,0 81.19,127.54142608667694 A 13.7,13.7 0.0 0,0 85.97,127.54142608667694 A 9.08,9.08 0.0 0,0 89.41,124.95142608667693 C 90.31,124.10142608667694 90.08,122.81142608667693 89.71,121.72142608667693 C 89.52,121.15142608667693 88.71,119.49142608667692 87.89999999999999,119.52142608667693 C 85.89999999999999,119.60142608667692 84.24999999999999,119.84142608667692 83.55999999999999,118.30142608667693 A 4.45,4.45 0.0 0,0 82.55999999999999,115.41142608667693 C 82.69999999999999,112.35142608667692 82.01999999999998,109.35142608667692 81.71,106.32142608667692 C 81.57,104.97142608667693 81.61,103.60142608667692 81.5,102.25142608667691 C 81.39,100.9014260866769 81.18,99.30142608667691 81.02,97.87142608667692 A 15.09,15.09 0.0 0,0 80.63,96.26142608667692 A 22.67,22.67 0.0 0,1 80.53,93.52142608667693 A 29.39,29.39 0.0 0,1 80.38,90.52142608667693 C 80.38,89.52142608667693 80.38,88.52142608667693 80.38,87.46142608667692 C 80.38,86.94142608667693 80.38,86.46142608667692 80.38,85.90142608667692 C 80.38,85.62142608667692 80.19,84.73142608667692 80.38,84.50142608667691 C 80.83,83.78142608667692 80.97,82.71142608667691 81.38,81.91142608667691 C 81.38,81.71142608667691 81.72999999999999,81.7914260866769 81.94,81.77142608667691 L 81.94,80.30142608667693 A 2.24,2.24 0.0 0,0 83.42,78.95142608667693 C 83.82000000000001,79.52142608667693 83.42,80.42142608667693 83.42,81.23142608667693 C 83.5,82.77142608667694 84.42,84.10142608667694 84.59,85.61142608667693 A 28.64,28.64 0.0 0,0 85.66,90.39142608667693 A 22.4,22.4 0.0 0,1 86.18,92.95142608667693 A 6.84,6.84 0.0 0,0 86.35000000000001,94.51142608667693 C 86.72000000000001,95.51142608667693 86.72000000000001,96.51142608667693 87.09,97.51142608667693 A 26.34,26.34 0.0 0,1 88.19,100.83142608667693 C 88.28999999999999,101.28142608667693 88.28,101.73142608667693 88.39,102.17142608667693 C 88.5,102.61142608667693 88.65,103.08142608667693 88.77,103.54142608667694 C 88.88999999999999,104.00142608667694 89.13,104.43142608667694 89.21,104.90142608667693 A 10.55,10.55 0.0 0,0 89.36999999999999,106.29142608667694 A 6.3,6.3 0.0 0,1 89.58999999999999,109.81142608667693 C 88.07,111.60142608667694 91.14999999999999,112.29142608667694 91.82999999999998,113.60142608667694 C 91.98999999999998,113.91142608667694 91.82999999999998,114.43142608667694 92.10999999999999,114.82142608667694 C 92.55999999999999,115.58142608667694 93.36999999999999,116.32142608667694 93.93999999999998,117.11142608667694 A 32.72,32.72 0.0 0,1 95.93999999999998,120.11142608667694 C 96.64999999999998,121.35142608667694 96.93999999999998,122.82142608667694 98.17999999999998,123.45142608667695 A 16.45,16.45 0.0 0,0 105.35999999999999,124.09142608667695 C 106.58999999999999,123.97142608667694 107.82999999999998,123.75142608667694 109.07999999999998,123.67142608667695 A 2.31,2.31 0.0 0,0 111.26999999999998,122.30142608667694 C 111.64999999999998,121.23142608667695 110.88999999999999,120.15142608667693 110.33999999999997,119.30142608667694 C 109.78999999999996,118.45142608667695 109.12999999999998,117.30142608667694 108.00999999999998,117.05142608667694 C 106.88999999999997,116.80142608667694 105.56999999999998,117.65142608667693 104.50999999999998,117.50142608667694 C 103.44999999999997,117.35142608667695 102.03999999999998,115.50142608667694 101.50999999999998,114.76142608667695 C 100.50999999999998,113.22142608667694 100.29999999999998,111.22142608667694 99.11999999999998,109.76142608667695 A 79.23,79.23 0.0 0,1 97.0,96.72142608667693 C 96.93,95.64142608667693 96.59,94.72142608667693 96.58,93.53142608667693 C 96.58,90.79142608667694 96.33,87.73142608667693 96.3,84.86142608667693 A 35.77,35.77 0.0 0,1 98.03999999999999,74.61142608667693 A 33.42,33.42 0.0 0,1 98.77999999999999,71.11142608667693 C 99.08999999999999,70.37142608667693 99.63999999999999,69.77142608667693 99.94999999999999,69.01142608667693 C 100.25999999999999,68.25142608667694 100.51999999999998,67.49142608667694 100.80999999999999,66.73142608667693 C 101.02999999999999,66.15142608667693 101.14999999999999,65.55142608667693 101.36999999999999,65.00142608667693 C 101.69999999999999,65.53142608667693 102.05999999999999,65.56142608667693 101.93999999999998,66.28142608667693 A 5.45,5.45 0.0 0,0 103.0,64.86142608667693 C 103.22,64.34142608667693 103.29,63.75142608667693 103.51,63.25142608667693 C 103.94000000000001,63.39142608667693 104.22,63.661426086676926 104.09,64.15142608667693 A 9.48,9.48 0.0 0,0 106.16,61.38142608667693 A 1.7,1.7 0.0 0,1 106.83,62.81142608667693 A 5.44,5.44 0.0 0,0 108.0,61.471426086676935 C 108.26,60.92142608667694 108.23,60.27142608667693 108.5,59.751426086676936 A 6.6,6.6 0.0 0,1 108.62,61.751426086676936 A 4.17,4.17 0.0 0,0 110.13000000000001,59.751426086676936 C 110.35000000000001,59.20142608667694 110.36000000000001,58.191426086676934 110.71000000000001,57.82142608667694 A 1.76,1.76 0.0 0,1 111.12,59.23142608667693 A 5.56,5.56 0.0 0,0 112.39,57.32142608667694 C 112.64,56.691426086676934 112.45,55.56142608667694 112.85,55.09142608667694 A 2.43,2.43 0.0 0,1 113.16,56.22142608667694 C 113.92,55.51142608667694 115.09,54.421426086676945 115.22,53.37142608667694 A 2.0,2.0 0.0 0,1 115.88,54.67142608667694 C 116.75,53.55142608667694 116.88,51.861426086676936 117.14999999999999,50.55142608667694 A 12.22,12.22 0.0 0,0 118.26,51.95142608667693 C 117.75,51.30142608667693 118.45,50.23142608667693 118.57000000000001,49.471426086676935 C 118.92,50.001426086676936 119.57000000000001,50.291426086676935 119.84,50.861426086676936 A 5.93,5.93 0.0 0,1 120.45,48.64142608667694 C 120.78,47.971426086676935 121.45,47.57142608667694 121.58,46.85142608667694 C 125.14,47.99142608667694 127.44,50.401426086676935 131.4,51.56142608667694 A 16.0,16.0 0.0 0,1 133.91,51.37142608667694 C 134.91,51.22142608667694 135.96,51.03142608667694 136.98,50.93142608667694 A 13.0,13.0 0.0 0,0 140.04999999999998,50.311426086676946 A 3.91,3.91 0.0 0,0 142.32999999999998,48.43142608667694 C 142.74999999999997,47.55142608667694 142.99999999999997,46.23142608667694 142.32999999999998,45.491426086676945 C 141.49999999999997,44.59142608667695 140.14999999999998,44.08142608667695 139.26,43.19142608667695 C 138.84,42.77142608667695 138.7,42.04142608667695 138.26,41.52142608667695 C 138.01,41.201426086676946 137.51999999999998,41.211426086676944 137.26,40.91142608667695 C 136.89,40.44142608667695 136.79,39.68142608667695 136.42,39.241426086676945 C 135.23999999999998,37.84142608667695 133.54,36.961426086676944 133.47,34.071426086676944 C 134.26,33.55142608667694 134.18,32.811426086676946 133.97,32.00142608667694 A 5.0,5.0 0.0 0,1 133.69,31.001426086676943 C 133.69,30.58142608667694 133.95,30.201426086676943 133.85999999999999,29.771426086676943 A 13.0,13.0 0.0 0,0 132.63,27.08142608667694 C 132.29999999999998,26.431426086676943 131.28,25.721426086676942 130.95,24.80142608667694 C 130.82999999999998,24.48142608667694 131.07999999999998,24.471426086676942 130.95,24.19142608667694 C 130.60999999999999,23.52142608667694 129.42,22.26142608667694 129.41,21.91142608667694 C 129.4,21.56142608667694 129.84,21.40142608667694 129.98,21.21142608667694 A 2.87,2.87 0.0 0,0 130.44,19.811426086676942 A 6.17,6.17 0.0 0,1 131.32999999999998,17.661426086676943 C 132.57,15.491426086676942 132.92999999999998,12.911426086676942 133.73999999999998,10.571426086676942 A 10.16,10.16 0.0 0,0 134.18999999999997,8.261426086676941 A 7.0,7.0 0.0 0,0 133.78999999999996,4.201426086676943 C 132.15999999999997,1.2014260866769422 130.85999999999996,5.021426086676943 129.93999999999997,6.201426086676943 C 129.01999999999998,7.381426086676942 128.32999999999996,8.29142608667694 127.51999999999997,9.341426086676941 A 16.62,16.62 0.0 0,1 122.10999999999997,14.341426086676941 C 121.10999999999997,9.95142608667694 123.50999999999998,4.581426086676942 121.26999999999997,0.6414260866769426 C 119.26999999999997,-0.5085739133230573 117.83999999999996,-0.08857391332305742 116.77999999999997,1.7114260866769426 A 40.66,40.66 0.0 0,0 113.72,6.95142608667693 A 16.3,16.3 0.0 0,0 112.12,11.071426086676931 A 12.0,12.0 0.0 0,1 111.61,14.401426086676931 C 111.11,15.501426086676931 110.42,16.401426086676935 110.37,17.601426086676934 C 109.89,17.601426086676934 110.03,17.881426086676935 109.74000000000001,18.061426086676935 A 6.08,6.08 0.0 0,1 108.67000000000002,18.641426086676933 A 17.59,17.59 0.0 0,0 105.86000000000001,19.721426086676935 C 105.30000000000001,21.101426086676934 103.75000000000001,21.461426086676934 102.51000000000002,21.991426086676935 A 16.53,16.53 0.0 0,0 100.75000000000001,23.121426086676934 A 5.09,5.09 0.0 0,1 97.63000000000001,23.261426086676934 C 97.97000000000001,23.671426086676934 98.13000000000001,24.191426086676934 98.76,24.171426086676934 C 98.21000000000001,24.641426086676933 96.19000000000001,24.531426086676934 95.58,24.411426086676933 A 1.61,1.61 0.0 0,0 96.91,25.331426086676935 A 4.19,4.19 0.0 0,1 92.91,25.131426086676935 C 93.17999999999999,25.531426086676934 93.5,26.301426086676933 93.78,26.481426086676937 C 92.93,26.531426086676937 91.71000000000001,26.781426086676937 91.04,26.121426086676937 A 3.78,3.78 0.0 0,0 91.17,27.541426086676935 C 89.17,27.601426086676934 87.49,27.941426086676934 85.62,27.001426086676936 C 85.74000000000001,27.501426086676936 86.02000000000001,28.001426086676936 86.18,28.501426086676936 C 84.86000000000001,28.711426086676937 83.33000000000001,28.051426086676937 81.95,28.021426086676936 A 1.39,1.39 0.0 0,1 82.87,29.281426086676937 C 82.25,29.351426086676938 81.52000000000001,29.051426086676937 80.87,29.101426086676938 A 5.4,5.4 0.0 0,0 78.61,29.88142608667694 A 1.29,1.29 0.0 0,1 79.61,30.34142608667694 A 7.73,7.73 0.0 0,1 78.0,30.201426086676932 A 5.56,5.56 0.0 0,0 75.83,30.661426086676933 C 74.75,31.13142608667693 73.59,31.481426086676933 72.53999999999999,31.981426086676933 C 69.74,33.30142608667693 66.53999999999999,32.77142608667693 63.47999999999999,32.721426086676935 A 69.79,69.79 0.0 0,0 53.25999999999999,33.151426086676935 C 51.14999999999999,33.431426086676936 48.52999999999999,33.91142608667693 46.79999999999999,34.21142608667694 C 44.49999999999999,34.611426086676936 41.98999999999999,34.081426086676935 39.92999999999999,34.511426086676934 C 38.209999999999994,34.88142608667693 36.47999999999999,35.121426086676934 34.75999999999999,35.441426086676934 A 29.42,29.42 0.0 0,1 31.29999999999999,36.03142608667694 C 30.24999999999999,36.10142608667694 29.75999999999999,35.651426086676935 28.79999999999999,36.151426086676935 C 27.83999999999999,36.651426086676935 26.79999999999999,37.151426086676935 25.79999999999999,37.64142608667694 A 15.07,15.07 0.0 0,0 22.58999999999999,39.52142608667694 A 9.0,9.0 0.0 0,0 20.419999999999987,41.74142608667694 A 19.54,19.54 0.0 0,1 18.10999999999999,45.60142608667694 A 12.69,12.69 0.0 0,0 14.629999999999988,51.27142608667694 A 1.87,1.87 0.0 0,1 14.0,52.331426086676935 A 4.26,4.26 0.0 0,0 13.29,53.80142608667693 C 13.069999999999999,54.541426086676935 12.95,55.24142608667693 12.729999999999999,55.931426086676936"/>
</svg>
