<?xml version="1.0" ?>
<svg xmlns="http://www.w3.org/2000/svg" xmlns:ev="http://www.w3.org/2001/xml-events" xmlns:xlink="http://www.w3.org/1999/xlink" baseProfile="full" height="84" transform="scale(1.3513513513513513 1.3513513513513513) translate(-37.0 -42.0)" version="1.1" viewBox="0 0 74 84" width="74">
	<defs/>
	<path class="cls-1" d="M 1.4833798898691322,5.255224172588517 L 2.2733798898691324,4.885224172588517 C 2.5633798898691325,5.515224172588517 2.9533798898691326,6.355224172588517 3.2733798898691324,6.975224172588517 C 3.4433798898691323,7.355224172588517 3.6533798898691323,7.855224172588517 3.8333798898691325,8.215224172588517 C 4.013379889869133,8.575224172588518 4.483379889869132,9.405224172588516 4.483379889869132,9.405224172588516 C 3.953379889869132,9.045224172588517 3.183379889869132,8.525224172588517 2.6533798898691323,8.135224172588517 L 1.4333798898691323,7.135224172588517 C 1.4333798898691323,6.915224172588517 1.3833798898691323,6.405224172588516 1.3833798898691323,6.405224172588516 L 0.9533798898691321,6.895224172588517 A 2.05,2.05 0.0 0,0 0.5433798898691322,6.7352241725885165 A 3.09,3.09 0.0 0,0 0.00337988986913218,6.7352241725885165 C 0.00337988986913218,6.975224172588517 0.00337988986913218,7.295224172588517 0.00337988986913218,7.535224172588516 A 7.47,7.47 0.0 0,0 0.13337988986913213,9.165224172588516 A 4.24,4.24 0.0 0,0 0.5333798898691322,10.165224172588516 A 7.4,7.4 0.0 0,0 1.3833798898691323,11.235224172588516 C 1.6933798898691323,11.575224172588516 2.1733798898691323,11.965224172588517 2.4633798898691324,12.315224172588517 A 10.65,10.65 0.0 0,1 3.6733798898691323,14.045224172588517 C 3.8133798898691325,14.335224172588516 4.043379889869132,15.045224172588517 4.043379889869132,15.045224172588517 A 1.72,1.72 0.0 0,1 4.043379889869132,14.655224172588516 A 2.0,2.0 0.0 0,1 4.283379889869132,14.265224172588516 C 4.493379889869132,14.815224172588517 4.743379889869132,15.555224172588515 4.963379889869132,16.105224172588514 C 5.183379889869132,16.655224172588518 5.443379889869132,17.105224172588514 5.603379889869132,17.575224172588513 A 3.45,3.45 0.0 0,1 5.783379889869131,18.145224172588513 A 13.59,13.59 0.0 0,1 5.953379889869132,20.565224172588515 C 5.953379889869132,21.305224172588517 5.833379889869132,22.275224172588516 5.803379889869132,23.015224172588518 A 27.13,27.13 0.0 0,0 5.723379889869132,25.86522417258852 A 8.46,8.46 0.0 0,0 5.953379889869132,27.18522417258852 C 6.043379889869132,27.525224172588516 6.303379889869132,27.955224172588515 6.3933798898691325,28.305224172588517 C 6.3933798898691325,28.49522417258852 6.493379889869132,28.96522417258852 6.493379889869132,28.96522417258852 A 0.86,0.86 0.0 0,1 6.493379889869132,28.79522417258852 A 5.39,5.39 0.0 0,1 6.953379889869132,28.04522417258852 C 7.023379889869132,28.305224172588517 7.133379889869132,28.655224172588518 7.183379889869133,28.93522417258852 A 8.3,8.3 0.0 0,1 7.333379889869133,30.155224172588518 A 4.45,4.45 0.0 0,1 7.333379889869133,31.155224172588518 A 4.14,4.14 0.0 0,1 7.163379889869133,31.665224172588516 A 1.83,1.83 0.0 0,0 7.443379889869133,31.525224172588516 A 2.7,2.7 0.0 0,0 7.753379889869133,31.205224172588515 C 7.753379889869133,31.625224172588517 7.753379889869133,32.205224172588515 7.753379889869133,32.62522417258852 C 7.753379889869133,33.04522417258852 7.753379889869133,33.455224172588515 7.833379889869133,33.815224172588515 A 3.82,3.82 0.0 0,0 8.013379889869132,34.69522417258852 A 4.78,4.78 0.0 0,0 8.473379889869133,35.33522417258852 A 5.66,5.66 0.0 0,1 8.473379889869133,34.75522417258852 A 4.2,4.2 0.0 0,1 8.673379889869132,34.165224172588516 L 9.253379889869134,35.90522417258852 L 9.513379889869132,37.595224172588516 C 9.703379889869133,38.785224172588514 9.893379889869134,40.37522417258852 10.123379889869131,41.595224172588516 A 39.22,39.22 0.0 0,0 11.243379889869132,46.32522417258852 A 7.15,7.15 0.0 0,0 11.853379889869132,47.74522417258852 A 8.0,8.0 0.0 0,0 12.61337988986913,48.59522417258852 A 1.77,1.77 0.0 0,1 12.463379889869131,48.21522417258852 A 3.22,3.22 0.0 0,1 12.463379889869131,47.67522417258852 L 13.14337988986913,49.58522417258852 C 13.443379889869131,50.44522417258852 13.833379889869128,51.58522417258852 14.14337988986913,52.44522417258852 C 14.45337988986913,53.30522417258852 15.04337988986913,54.745224172588514 15.313379889869129,55.775224172588516 A 57.77,57.77 0.0 0,1 16.48337988986913,62.97522417258852 C 16.75337988986913,65.18522417258852 16.95337988986913,68.14522417258851 17.04337988986913,70.37522417258852 C 17.09337988986913,71.55522417258852 17.123379889869128,73.12522417258852 17.09337988986913,74.30522417258852 A 27.43,27.43 0.0 0,1 16.953379889869133,77.45522417258852 C 16.953379889869133,77.58522417258851 16.843379889869134,77.90522417258852 16.843379889869134,77.90522417258852 A 8.58,8.58 0.0 0,0 15.613379889869133,77.76522417258852 A 3.34,3.34 0.0 0,0 14.613379889869133,78.03522417258851 A 2.88,2.88 0.0 0,0 13.903379889869132,78.58522417258851 A 2.05,2.05 0.0 0,0 13.403379889869132,79.3552241725885 A 0.76,0.76 0.0 0,0 13.883379889869133,80.3552241725885 A 4.46,4.46 0.0 0,0 15.243379889869132,80.69522417258851 A 8.58,8.58 0.0 0,0 17.82337988986913,80.56522417258851 A 4.89,4.89 0.0 0,0 19.18337988986913,79.95522417258852 A 4.62,4.62 0.0 0,0 19.63337988986913,79.55522417258851 C 19.693379889869128,78.9052241725885 19.783379889869128,78.02522417258851 19.84337988986913,77.3752241725885 C 19.98337988986913,75.8952241725885 20.19337988986913,73.9352241725885 20.32337988986913,72.4652241725885 C 20.50337988986913,70.30522417258851 20.66337988986913,67.4652241725885 20.81337988986913,65.27522417258851 C 20.92337988986913,63.58522417258851 21.18337988986913,59.645224172588506 21.18337988986913,59.645224172588506 C 21.39337988986913,61.03522417258851 21.71337988986913,62.895224172588506 21.88337988986913,64.2852241725885 C 22.053379889869127,65.67522417258849 22.29337988986913,67.5952241725885 22.373379889869128,69.0152241725885 C 22.47337988986913,70.91522417258851 22.42337988986913,73.4452241725885 22.373379889869128,75.3452241725885 C 22.373379889869128,76.27522417258851 22.373379889869128,77.5152241725885 22.283379889869128,78.4452241725885 C 22.283379889869128,78.71522417258849 22.163379889869127,79.3352241725885 22.163379889869127,79.3352241725885 A 6.17,6.17 0.0 0,0 20.613379889869126,79.3352241725885 A 3.3,3.3 0.0 0,0 19.513379889869125,79.9452241725885 A 2.76,2.76 0.0 0,0 18.763379889869125,80.7552241725885 A 1.35,1.35 0.0 0,0 18.563379889869125,81.7552241725885 C 18.683379889869126,82.0152241725885 19.123379889869124,82.1452241725885 19.393379889869124,82.2352241725885 A 6.23,6.23 0.0 0,0 21.273379889869123,82.4252241725885 A 7.72,7.72 0.0 0,0 24.343379889869123,81.9752241725885 A 4.62,4.62 0.0 0,0 25.193379889869124,81.1952241725885 C 25.313379889869125,79.5652241725885 25.473379889869125,77.3952241725885 25.603379889869124,75.7752241725885 C 25.733379889869124,74.15522417258849 25.913379889869123,71.93522417258849 26.073379889869123,70.29522417258849 C 26.343379889869123,67.6652241725885 26.803379889869124,64.17522417258849 27.073379889869123,61.54522417258849 C 27.183379889869123,60.54522417258849 27.333379889869125,59.28522417258849 27.463379889869124,58.31522417258849 C 27.573379889869123,57.595224172588495 27.673379889869125,56.61522417258849 27.843379889869123,55.90522417258849 C 27.973379889869122,55.35522417258849 28.40337988986912,54.09522417258849 28.40337988986912,54.09522417258849 A 22.35,22.35 0.0 0,0 30.523379889869123,55.315224172588486 A 12.53,12.53 0.0 0,0 32.87337988986912,55.94522417258849 A 18.3,18.3 0.0 0,0 34.87337988986912,56.12522417258849 C 35.33337988986912,56.12522417258849 35.963379889869124,56.12522417258849 36.43337988986912,56.12522417258849 L 35.813379889869125,55.80522417258849 A 13.94,13.94 0.0 0,0 37.26337988986913,55.91522417258849 A 5.35,5.35 0.0 0,0 38.64337988986913,55.715224172588485 A 5.81,5.81 0.0 0,0 39.33337988986913,55.34522417258849 L 38.85337988986913,55.27522417258849 C 39.38337988986913,55.05522417258849 40.093379889869134,54.745224172588486 40.64337988986913,54.55522417258849 C 41.00337988986913,54.43522417258849 41.86337988986913,54.20522417258849 41.86337988986913,54.20522417258849 C 41.98337988986913,54.815224172588486 42.11337988986913,55.62522417258849 42.25337988986913,56.20522417258849 A 29.51,29.51 0.0 0,0 43.25337988986913,59.94522417258849 A 27.32,27.32 0.0 0,0 44.82337988986913,63.10522417258849 C 45.33337988986913,64.03522417258849 46.10337988986913,65.2252241725885 46.63337988986913,66.10522417258849 C 47.163379889869134,66.98522417258849 47.833379889869136,68.10522417258849 48.28337988986913,68.95522417258849 C 48.58337988986913,69.52522417258848 49.19337988986913,70.95522417258849 49.19337988986913,70.95522417258849 C 49.19337988986913,71.46522417258849 49.19337988986913,72.15522417258849 49.133379889869126,72.67522417258849 C 49.08337988986913,74.67522417258849 49.07337988986912,79.16522417258848 49.07337988986912,79.16522417258848 A 6.44,6.44 0.0 0,0 48.03337988986913,79.04522417258852 A 3.19,3.19 0.0 0,0 45.68337988986913,80.36522417258851 A 1.5,1.5 0.0 0,0 45.43337988986913,81.27522417258851 A 1.15,1.15 0.0 0,0 45.83337988986913,81.91522417258851 A 3.52,3.52 0.0 0,0 47.48337988986913,82.2952241725885 A 8.47,8.47 0.0 0,0 50.883379889869126,81.8952241725885 A 4.82,4.82 0.0 0,0 51.69337988986913,81.3152241725885 C 51.83337988986913,80.0852241725885 52.05337988986913,78.4352241725885 52.18337988986913,77.1952241725885 C 52.40337988986913,75.01522417258849 52.79337988986913,69.9252241725885 52.79337988986913,69.9252241725885 C 52.53337988986913,69.0252241725885 52.08337988986913,67.8352241725885 51.91337988986913,66.9252241725885 C 51.69337988986913,65.7952241725885 51.57337988986912,63.1052241725885 51.57337988986912,63.0952241725885 C 52.273379889869126,64.3152241725885 53.213379889869124,65.9352241725885 53.90337988986912,67.1652241725885 C 54.83337988986912,68.8352241725885 56.90337988986912,72.7752241725885 56.90337988986912,72.7752241725885 C 56.90337988986912,74.29522417258849 56.90337988986912,76.3152241725885 56.79337988986912,77.8352241725885 C 56.79337988986912,78.6152241725885 56.54337988986912,80.4252241725885 56.54337988986912,80.4252241725885 A 5.48,5.48 0.0 0,0 55.103379889869124,80.2352241725885 A 2.2,2.2 0.0 0,0 54.29337988986912,80.5652241725885 A 3.23,3.23 0.0 0,0 53.15337988986912,81.6252241725885 A 1.55,1.55 0.0 0,0 53.01337988986912,82.49522417258851 A 0.84,0.84 0.0 0,0 53.23337988986912,82.88522417258851 A 3.44,3.44 0.0 0,0 54.84337988986912,83.4352241725885 A 8.38,8.38 0.0 0,0 57.29337988986912,83.4352241725885 A 14.82,14.82 0.0 0,0 59.29337988986912,82.8152241725885 C 59.463379889869124,81.7552241725885 59.743379889869125,80.3452241725885 59.87337988986912,79.2752241725885 C 60.17337988986912,76.90522417258849 60.54337988986912,71.3452241725885 60.54337988986912,71.3452241725885 A 16.53,16.53 0.0 0,1 59.68337988986912,69.6052241725885 A 13.84,13.84 0.0 0,1 59.18337988986912,66.8152241725885 A 28.59,28.59 0.0 0,1 59.18337988986912,63.7452241725885 C 59.23337988986912,61.8652241725885 59.423379889869125,59.3652241725885 59.59337988986912,57.4952241725885 C 59.72337988986912,56.1252241725885 60.14337988986912,52.9252241725885 60.14337988986912,52.9252241725885 C 60.14337988986912,54.1852241725885 60.14337988986912,55.9252241725885 60.193379889869114,57.1352241725885 C 60.24337988986911,58.3452241725885 60.193379889869114,59.905224172588504 60.30337988986911,61.1352241725885 A 23.25,23.25 0.0 0,0 61.003379889869116,64.2152241725885 C 61.17337988986912,64.75522417258851 61.66337988986911,65.9852241725885 61.66337988986911,65.9852241725885 C 61.66337988986911,65.7352241725885 61.66337988986911,65.4052241725885 61.66337988986911,65.16522417258851 C 61.66337988986911,64.92522417258851 61.723379889869115,64.6252241725885 61.723379889869115,64.6252241725885 C 61.863379889869115,65.1952241725885 62.013379889869114,65.9752241725885 62.183379889869116,66.5452241725885 A 6.3,6.3 0.0 0,0 62.71337988986912,67.9552241725885 A 5.28,5.28 0.0 0,0 63.37337988986911,68.7252241725885 A 2.46,2.46 0.0 0,1 63.28337988986911,68.3352241725885 A 3.2,3.2 0.0 0,1 63.28337988986911,67.85522417258849 A 7.73,7.73 0.0 0,0 63.81337988986911,68.93522417258849 A 4.93,4.93 0.0 0,0 64.4333798898691,69.5552241725885 C 64.4333798898691,69.3952241725885 64.33337988986911,69.18522417258849 64.3033798898691,69.0252241725885 C 64.2733798898691,68.8652241725885 64.3033798898691,68.68522417258849 64.3033798898691,68.68522417258849 C 64.4933798898691,68.96522417258849 64.7133798898691,69.3652241725885 64.92337988986911,69.62522417258849 A 8.64,8.64 0.0 0,0 66.36337988986911,70.95522417258849 A 13.21,13.21 0.0 0,0 70.1333798898691,72.70522417258849 A 18.0,18.0 0.0 0,0 73.2733798898691,72.89522417258848 C 72.8433798898691,72.53522417258849 72.2733798898691,72.09522417258849 71.83337988986911,71.69522417258848 A 27.0,27.0 0.0 0,1 68.83337988986911,67.93522417258848 C 68.5533798898691,67.49522417258848 68.01337988986911,66.39522417258847 68.01337988986911,66.39522417258847 A 1.55,1.55 0.0 0,0 68.37337988986911,66.47522417258847 L 68.51337988986911,66.47522417258847 A 15.63,15.63 0.0 0,1 67.40337988986911,64.88522417258847 A 16.73,16.73 0.0 0,1 66.72337988986911,62.885224172588465 A 2.65,2.65 0.0 0,0 67.25337988986911,63.15522417258847 A 2.11,2.11 0.0 0,0 67.7433798898691,63.15522417258847 C 67.4433798898691,62.69522417258847 67.0233798898691,62.15522417258847 66.7433798898691,61.635224172588465 C 66.2733798898691,60.82522417258846 65.7433798898691,59.705224172588466 65.3233798898691,58.845224172588466 A 69.31,69.31 0.0 0,1 62.22337988986911,50.48522417258847 C 61.65337988986911,48.48522417258847 61.49337988986911,45.705224172588466 60.773379889869105,43.775224172588466 A 13.3,13.3 0.0 0,0 59.1433798898691,40.675224172588464 A 17.5,17.5 0.0 0,0 55.5433798898691,37.40522417258846 A 13.0,13.0 0.0 0,0 53.13337988986913,36.04522417258852 A 33.75,33.75 0.0 0,0 48.36337988986913,34.80522417258852 C 46.36337988986913,34.37522417258852 43.53337988986913,34.175224172588514 41.50337988986913,33.68522417258852 A 52.23,52.23 0.0 0,1 35.19337988986913,31.625224172588517 A 25.5,25.5 0.0 0,1 30.853379889869128,29.625224172588517 A 5.41,5.41 0.0 0,1 30.413379889869127,29.265224172588518 L 30.663379889869127,29.125224172588517 L 29.153379889869132,28.04522417258852 L 27.083379889869132,26.64522417258852 C 27.223379889869133,26.64522417258852 27.39337988986913,26.595224172588516 27.523379889869133,26.555224172588517 C 27.653379889869136,26.515224172588518 27.943379889869135,26.42522417258852 27.943379889869135,26.42522417258852 A 9.91,9.91 0.0 0,1 27.063379889869136,25.595224172588523 A 10.66,10.66 0.0 0,1 26.413379889869137,24.595224172588523 L 27.273379889869137,24.595224172588523 C 26.813379889869136,24.125224172588524 26.223379889869136,23.50522417258852 25.763379889869135,23.04522417258852 C 25.303379889869134,22.585224172588518 24.173379889869135,21.525224172588523 24.173379889869135,21.525224172588523 A 4.9,4.9 0.0 0,0 24.713379889869135,21.525224172588523 C 24.893379889869134,21.525224172588523 25.293379889869133,21.445224172588524 25.293379889869133,21.445224172588524 C 24.593379889869134,20.585224172588525 23.60337988986913,19.445224172588524 22.973379889869133,18.57522417258852 C 22.53337988986913,17.93522417258852 21.653379889869132,16.35522417258852 21.653379889869132,16.35522417258852 A 16.46,16.46 0.0 0,0 24.71337988986913,15.615224172588523 A 9.93,9.93 0.0 0,0 26.11337988986913,14.565224172588522 C 25.99337988986913,14.455224172588522 25.84337988986913,14.285224172588523 25.71337988986913,14.175224172588521 A 15.0,15.0 0.0 0,0 23.50337988986913,12.69522417258852 A 19.84,19.84 0.0 0,0 20.78337988986913,11.505224172588521 C 20.39337988986913,11.37522417258852 19.46337988986913,11.175224172588521 19.46337988986913,11.175224172588521 C 19.03337988986913,10.505224172588521 18.46337988986913,9.565224172588522 18.02337988986913,8.925224172588521 A 7.64,7.64 0.0 0,0 16.393379889869134,7.045224172588517 A 11.1,11.1 0.0 0,0 12.883379889869133,6.245224172588517 C 12.013379889869132,6.095224172588517 9.953379889869133,5.825224172588517 9.953379889869133,5.825224172588517 C 9.103379889869132,5.115224172588517 7.953379889869132,4.205224172588517 7.143379889869132,3.455224172588517 C 6.333379889869131,2.705224172588517 5.143379889869132,1.3652241725885172 4.203379889869132,0.4552241725885171 C 4.093379889869132,0.36522417258851697 3.953379889869132,0.14522417258851697 3.793379889869132,0.045224172588516964 A 0.77,0.77 0.0 0,0 3.273379889869132,0.045224172588516964 A 0.85,0.85 0.0 0,0 2.953379889869132,0.5152241725885169 A 2.22,2.22 0.0 0,0 2.953379889869132,1.225224172588517 A 11.32,11.32 0.0 0,0 1.9533798898691321,2.685224172588517 A 2.44,2.44 0.0 0,0 1.7133798898691321,3.685224172588517 A 2.2,2.2 0.0 0,0 1.9733798898691322,4.205224172588517 L 1.4833798898691322,5.255224172588517"/>
</svg>
