<?xml version="1.0" ?>
<svg xmlns="http://www.w3.org/2000/svg" xmlns:ev="http://www.w3.org/2001/xml-events" xmlns:xlink="http://www.w3.org/1999/xlink" baseProfile="full" height="178" transform="scale(0.5617977528089888 0.5617977528089888) translate(-123.0 -89.0)" version="1.1" viewBox="0 0 246 178" width="246">
	<defs/>
	<path class="cls-1" d="M 75.40990546800965,5.613364395266254 C 75.40990546800965,5.613364395266254 71.64990546800966,0.12336439526625423 68.45990546800965,0.003364395266254233 C 65.26990546800964,-0.11663560473374576 65.22990546800965,3.0033643952662543 65.61990546800965,4.573364395266254 C 66.00990546800965,6.143364395266254 66.14990546800965,7.383364395266255 64.38990546800964,7.573364395266254 C 62.62990546800963,7.763364395266254 62.30990546800964,7.883364395266255 61.77990546800964,8.223364395266255 C 61.249905468009636,8.563364395266255 60.77990546800964,7.2233643952662545 59.27990546800964,8.223364395266255 C 57.77990546800964,9.223364395266255 57.12990546800964,8.533364395266256 54.70990546800964,7.2233643952662545 C 52.289905468009636,5.913364395266254 49.70990546800964,2.843364395266255 48.36990546800964,3.143364395266255 C 47.029905468009645,3.4433643952662547 48.28990546800964,8.253364395266255 49.209905468009644,10.023364395266254 C 50.129905468009646,11.793364395266254 50.97990546800965,11.863364395266254 51.82990546800964,13.943364395266254 C 52.679905468009636,16.023364395266253 53.28990546800964,16.553364395266254 53.35990546800964,17.093364395266253 C 53.42990546800964,17.633364395266252 52.629905468009646,19.093364395266253 52.209905468009644,19.783364395266254 A 11.0,11.0 0.0 0,1 51.099905468009645,22.043364395266252 C 50.099905468009645,23.503364395266253 50.669905468009645,24.233364395266253 50.43990546800965,25.19336439526625 C 50.20990546800965,26.153364395266248 51.169905468009645,27.58336439526625 51.28990546800965,28.08336439526625 C 51.409905468009654,28.58336439526625 50.66990546800965,29.65336439526625 51.51990546800965,30.26336439526625 C 52.36990546800964,30.87336439526625 52.209905468009644,32.15336439526625 52.209905468009644,32.76336439526625 C 52.209905468009644,33.37336439526625 51.82990546800964,34.34336439526625 50.36990546800964,35.45336439526625 C 48.90990546800964,36.56336439526625 46.90990546800964,41.293364395266245 45.25990546800964,42.33336439526625 C 43.60990546800964,43.37336439526626 41.74990546800965,44.563364395266255 43.40990546800965,45.953364395266256 C 45.069905468009644,47.343364395266256 44.949905468009646,48.023364395266256 45.67990546800965,48.44336439526626 C 46.409905468009654,48.86336439526626 46.40990546800965,49.673364395266255 47.019905468009654,50.523364395266256 A 9.25,9.25 0.0 0,0 52.939905468009655,53.32336439526625 A 16.75,16.75 0.0 0,0 58.939905468009655,51.86336439526625 C 59.74990546800966,51.55336439526625 58.829905468009656,53.01336439526625 60.70990546800966,53.213364395266254 C 62.58990546800966,53.41336439526626 60.78990546800966,54.55336439526626 62.97990546800966,55.90336439526625 C 65.16990546800967,57.253364395266246 64.54990546800967,59.66336439526625 65.97990546800968,60.16336439526625 C 67.40990546800968,60.66336439526625 66.47990546800968,61.73336439526625 68.05990546800967,63.08336439526625 C 69.63990546800967,64.43336439526627 69.81990546800968,64.54336439526625 70.20990546800968,65.69336439526626 C 70.59990546800968,66.84336439526626 72.20990546800968,67.69336439526626 72.81990546800968,68.50336439526626 C 73.42990546800968,69.31336439526626 72.39990546800968,69.61336439526626 74.69990546800967,69.61336439526626 C 76.99990546800967,69.61336439526626 77.50990546800968,72.11336439526626 78.42990546800968,72.22336439526626 C 79.34990546800968,72.33336439526626 80.61990546800968,75.22336439526626 81.34990546800968,75.45336439526626 C 82.07990546800968,75.68336439526627 83.95990546800968,76.37336439526626 77.69990546800967,76.29336439526627 C 71.43990546800967,76.21336439526627 69.81990546800968,77.22336439526627 65.63990546800967,77.22336439526627 C 61.45990546800966,77.22336439526627 59.529905468009666,76.22336439526627 56.41990546800967,74.41336439526627 C 53.30990546800967,72.60336439526627 55.25990546800967,73.26336439526627 51.41990546800967,72.11336439526627 C 47.57990546800966,70.96336439526628 49.41990546800967,70.11336439526627 46.61990546800967,68.69336439526627 C 43.81990546800967,67.27336439526627 44.21990546800965,66.92336439526626 41.74990546800965,65.75336439526626 C 39.27990546800965,64.58336439526626 40.519905468009654,64.83336439526626 38.44990546800965,64.40336439526627 C 36.37990546800965,63.973364395266266 36.869905468009655,65.13336439526627 35.10990546800965,63.79336439526626 C 33.349905468009645,62.453364395266256 35.10990546800965,62.44336439526626 33.02990546800965,62.33336439526626 C 30.949905468009657,62.22336439526626 30.419905468009656,62.44336439526626 29.689905468009655,61.83336439526626 C 28.959905468009655,61.22336439526626 28.459905468009655,61.29336439526626 27.539905468009657,61.18336439526626 C 26.61990546800966,61.07336439526626 27.309905468009656,62.02336439526626 25.239905468009656,60.79336439526626 C 23.169905468009656,59.563364395266255 20.359905468009657,58.49336439526626 20.359905468009657,59.03336439526626 C 20.359905468009657,59.57336439526626 21.359905468009657,62.75336439526626 20.239905468009656,62.443364395266265 C 19.119905468009655,62.13336439526627 19.509905468009656,61.443364395266265 17.239905468009656,59.833364395266265 C 14.969905468009657,58.223364395266266 9.319905468009656,56.11336439526627 10.589905468009656,57.95336439526626 C 11.859905468009655,59.79336439526626 12.359905468009655,62.95336439526626 12.659905468009656,65.13336439526627 A 3.3,3.3 0.0 0,1 11.659905468009656,68.48336439526626 C 11.159905468009656,69.09336439526626 8.659905468009656,72.09336439526626 9.279905468009655,74.70336439526626 C 9.899905468009655,77.31336439526626 9.699905468009655,79.08336439526626 8.969905468009655,80.54336439526627 C 8.239905468009654,82.00336439526627 4.419905468009654,85.75336439526626 2.7499054680096537,87.09336439526626 C 1.0799054680096538,88.43336439526627 -0.25009453199034626,90.51336439526627 0.03990546800965372,91.16336439526626 A 12.57,12.57 0.0 0,0 2.2299054680096537,93.85336439526625 C 2.9599054680096537,94.46336439526625 4.959905468009653,95.31336439526625 5.459905468009653,95.73336439526625 C 5.959905468009653,96.15336439526625 5.769905468009654,96.54336439526625 7.5299054680096535,96.65336439526625 C 9.289905468009653,96.76336439526625 11.179905468009654,96.11336439526625 12.639905468009655,96.11336439526625 C 14.099905468009656,96.11336439526625 14.409905468009654,95.62336439526625 14.719905468009655,97.27336439526624 C 15.029905468009655,98.92336439526623 15.139905468009655,100.07336439526624 16.599905468009656,101.11336439526625 C 18.059905468009656,102.15336439526625 18.329905468009656,103.61336439526625 19.709905468009655,105.80336439526624 C 21.089905468009654,107.99336439526624 20.329905468009656,107.45336439526625 22.089905468009654,110.67336439526625 C 23.849905468009652,113.89336439526625 23.319905468009654,114.02336439526624 25.089905468009654,114.82336439526625 C 26.859905468009654,115.62336439526626 27.159905468009654,119.20336439526625 29.089905468009654,119.51336439526625 C 31.019905468009654,119.82336439526625 31.089905468009654,118.89336439526625 32.50990546800965,121.08336439526624 C 33.92990546800964,123.27336439526624 33.65990546800965,123.89336439526625 35.50990546800965,124.20336439526625 C 37.35990546800965,124.51336439526625 37.87990546800965,126.46336439526625 38.74990546800965,126.75336439526626 C 39.61990546800965,127.04336439526627 38.62990546800965,129.75336439526626 41.12990546800965,130.21336439526627 C 43.62990546800965,130.67336439526628 44.46990546800965,130.21336439526627 45.27990546800965,130.63336439526626 C 46.089905468009654,131.05336439526624 46.27990546800965,131.97336439526626 47.769905468009654,131.86336439526625 C 49.259905468009656,131.75336439526623 49.95990546800965,135.20336439526625 50.88990546800965,137.27336439526624 C 51.81990546800965,139.34336439526624 53.88990546800965,142.65336439526624 54.229905468009655,144.73336439526625 C 54.56990546800966,146.81336439526626 55.45990546800965,151.18336439526624 55.689905468009655,153.91336439526626 C 55.91990546800966,156.64336439526627 55.759905468009656,159.09336439526626 55.87990546800965,160.86336439526625 A 31.0,31.0 0.0 0,1 55.87990546800965,164.32336439526625 C 55.87990546800965,164.32336439526625 53.189905468009655,164.16336439526626 48.30990546800965,166.32336439526625 C 43.42990546800965,168.48336439526625 44.119905468009655,169.20336439526625 38.20990546800965,169.32336439526625 C 32.29990546800965,169.44336439526626 18.579905468009656,169.21336439526624 25.339905468009658,170.55336439526624 C 32.09990546800966,171.89336439526625 19.419905468009656,174.09336439526624 27.339905468009658,173.78336439526623 C 35.259905468009656,173.47336439526623 43.66990546800965,174.51336439526622 41.16990546800965,175.12336439526624 C 38.66990546800965,175.73336439526625 41.589905468009654,177.24336439526624 46.57990546800965,176.81336439526623 C 51.569905468009644,176.38336439526623 64.57990546800966,176.89336439526625 61.63990546800965,175.81336439526623 C 58.69990546800965,174.73336439526622 57.25990546800965,173.32336439526622 62.25990546800965,172.51336439526622 C 67.25990546800965,171.70336439526622 62.67990546800965,175.4333643952662 70.35990546800966,174.51336439526622 C 78.03990546800965,173.59336439526624 69.85990546800966,178.58336439526622 79.73990546800965,177.4333643952662 C 89.61990546800965,176.2833643952662 102.73990546800965,179.20336439526622 99.36990546800965,177.1233643952662 C 95.99990546800964,175.0433643952662 92.71990546800964,174.4333643952662 98.13990546800964,174.20336439526622 C 103.55990546800965,173.97336439526623 104.04990546800964,177.7433643952662 109.23990546800964,175.97336439526623 C 114.42990546800964,174.20336439526625 109.04990546800964,174.09336439526624 116.91990546800965,173.78336439526623 C 124.78990546800965,173.47336439526623 135.20990546800962,172.78336439526623 145.91990546800963,173.05336439526624 C 156.62990546800964,173.32336439526625 143.22990546800963,169.05336439526624 148.22990546800963,168.59336439526624 C 153.22990546800963,168.13336439526623 153.90990546800964,168.59336439526624 162.55990546800965,168.59336439526624 C 171.20990546800965,168.59336439526624 164.31990546800964,173.16336439526623 170.34990546800964,173.16336439526623 C 176.37990546800964,173.16336439526623 176.87990546800964,173.05336439526621 181.34990546800964,173.05336439526621 C 185.81990546800964,173.05336439526621 187.45990546800965,170.36336439526622 183.84990546800964,169.13336439526623 C 180.23990546800962,167.90336439526624 189.75990546800963,167.98336439526622 194.09990546800964,167.67336439526622 C 198.43990546800964,167.36336439526622 196.17990546800965,165.75336439526623 200.85990546800963,165.0633643952662 C 205.5399054680096,164.37336439526618 208.23990546800962,165.3733643952662 213.53990546800964,165.0633643952662 C 218.83990546800965,164.7533643952662 219.25990546800963,166.7133643952662 223.10990546800963,163.0633643952662 C 226.95990546800962,159.4133643952662 254.17990546800962,160.4533643952662 242.9699054680096,159.4133643952662 C 231.7599054680096,158.3733643952662 232.8599054680096,156.7233643952662 229.1399054680096,156.4133643952662 C 225.4199054680096,156.1033643952662 224.4499054680096,156.7233643952662 221.1399054680096,156.7233643952662 A 35.77,35.77 0.0 0,1 214.6799054680096,156.0733643952662 C 214.6799054680096,156.0733643952662 213.6099054680096,133.8333643952662 212.37990546800958,130.9533643952662 C 211.14990546800956,128.0733643952662 212.06990546800958,124.3833643952662 210.5299054680096,122.7333643952662 C 208.9899054680096,121.08336439526619 210.72990546800958,123.34336439526619 210.5299054680096,120.5433643952662 C 210.3299054680096,117.7433643952662 210.8399054680096,121.2733643952662 211.1499054680096,118.5433643952662 C 211.4599054680096,115.81336439526619 213.0299054680096,120.3033643952662 213.1499054680096,116.2333643952662 C 213.2699054680096,112.16336439526619 212.4199054680096,109.2333643952662 212.4199054680096,107.4033643952662 C 212.4199054680096,105.5733643952662 213.4899054680096,108.4033643952662 212.9599054680096,105.0233643952662 C 212.4299054680096,101.6433643952662 211.18990546800958,100.7533643952662 210.5699054680096,98.1433643952662 C 209.94990546800963,95.5333643952662 211.0699054680096,98.98336439526621 211.1899054680096,95.3333643952662 C 211.30990546800962,91.6833643952662 211.6099054680096,90.3833643952662 211.6099054680096,88.6133643952662 C 211.6099054680096,86.8433643952662 213.6099054680096,87.6133643952662 212.4199054680096,85.2733643952662 A 11.08,11.08 0.0 0,1 211.1899054680096,78.8233643952662 C 211.29990546800963,76.4433643952662 212.1099054680096,76.6333643952662 210.76990546800963,73.4433643952662 C 209.42990546800965,70.2533643952662 210.26990546800963,70.2933643952662 209.60990546800963,68.2133643952662 C 208.94990546800963,66.1333643952662 209.53990546800964,66.7533643952662 209.41990546800963,65.1033643952662 C 209.29990546800963,63.453364395266185 210.56990546800964,66.45336439526619 210.03990546800964,63.34336439526619 C 209.50990546800963,60.2333643952662 205.82990546800966,56.75336439526625 207.09990546800964,56.75336439526625 C 208.36990546800962,56.75336439526625 207.70990546800965,57.673364395266255 206.55990546800965,54.563364395266255 C 205.40990546800964,51.453364395266256 205.82990546800966,53.64336439526625 204.47990546800963,51.26336439526626 C 203.1299054680096,48.88336439526626 202.82990546800963,49.493364395266255 201.55990546800965,48.453364395266256 C 200.28990546800966,47.41336439526626 199.90990546800964,48.22336439526626 198.44990546800963,46.883364395266256 A 9.0,9.0 0.0 0,1 195.74990546800964,43.533364395266254 C 194.36990546800965,41.26336439526625 187.94990546800963,39.30336439526625 184.10990546800966,38.65336439526625 C 180.26990546800968,38.00336439526625 177.04990546800965,37.84336439526625 173.58990546800965,37.65336439526625 C 170.12990546800964,37.463364395266254 165.74990546800964,37.75336439526625 161.14990546800965,37.75336439526625 C 156.54990546800965,37.75336439526625 152.00990546800963,37.633364395266256 147.51990546800965,37.44336439526625 A 66.72,66.72 0.0 0,1 139.82990546800966,36.713364395266254 C 136.52990546800964,36.29336439526625 137.94990546800966,36.173364395266255 133.91990546800966,35.79336439526625 C 129.88990546800966,35.41336439526625 129.10990546800966,35.25336439526625 128.07990546800966,35.133364395266256 C 127.04990546800967,35.01336439526626 115.07990546800967,26.223364395266255 112.16990546800967,25.073364395266253 C 109.25990546800968,23.92336439526625 110.82990546800967,25.683364395266253 107.29990546800967,22.993364395266255 C 103.76990546800967,20.303364395266257 103.98990546800967,20.193364395266254 101.91990546800967,18.853364395266254 C 99.84990546800968,17.513364395266255 99.74990546800966,17.753364395266253 96.61990546800966,15.603364395266254 C 93.48990546800967,13.453364395266254 95.22990546800966,15.183364395266254 92.04990546800967,12.873364395266254 C 88.86990546800968,10.563364395266253 90.46990546800967,10.183364395266254 88.39990546800966,8.873364395266254 C 86.32990546800966,7.563364395266253 86.08990546800966,7.873364395266253 84.24990546800966,7.293364395266253 A 25.34,25.34 0.0 0,0 80.90990546800965,6.143364395266253 C 78.74990546800966,5.613364395266254 76.74990546800966,6.533364395266254 75.40990546800965,5.613364395266254 M 187.34990546800964,157.75336439526626 A 46.77,46.77 0.0 0,1 192.95990546800965,157.25336439526626 C 195.25990546800966,157.25336439526626 197.33990546800965,158.25336439526626 198.33990546800965,158.02336439526627 C 199.33990546800965,157.79336439526628 198.60990546800966,155.83336439526627 200.25990546800963,154.83336439526627 C 201.9099054680096,153.83336439526627 204.25990546800963,153.68336439526627 204.86990546800965,151.83336439526627 C 205.47990546800966,149.98336439526628 204.24990546800964,136.58336439526627 203.70990546800965,131.83336439526627 C 203.16990546800966,127.08336439526627 199.48990546800965,123.22336439526627 196.94990546800966,117.23336439526628 C 194.40990546800967,111.24336439526628 192.72990546800966,114.00336439526627 192.07990546800966,110.81336439526628 C 191.42990546800965,107.62336439526628 190.53990546800966,109.55336439526627 190.07990546800966,107.74336439526628 C 189.61990546800965,105.9333643952663 187.50990546800966,103.13336439526628 186.84990546800967,101.83336439526629 C 186.18990546800967,100.53336439526629 185.57990546800966,101.44336439526629 185.08990546800968,103.02336439526628 C 184.5999054680097,104.60336439526628 182.50990546800966,99.79336439526628 182.89990546800968,104.40336439526628 C 183.2899054680097,109.01336439526628 183.77990546800967,111.58336439526627 186.07990546800968,114.40336439526628 C 188.3799054680097,117.22336439526629 192.57990546800968,125.58336439526627 193.26990546800968,127.61336439526627 C 193.95990546800968,129.64336439526627 193.64990546800968,132.2233643952663 192.49990546800967,135.02336439526627 C 191.34990546800967,137.82336439526625 192.99990546800967,142.59336439526626 191.84990546800967,143.74336439526627 C 190.69990546800966,144.89336439526627 190.84990546800967,144.63336439526626 190.57990546800966,146.16336439526626 C 190.30990546800965,147.69336439526626 190.45990546800965,149.62336439526626 190.07990546800966,151.16336439526626 C 189.69990546800966,152.70336439526625 189.88990546800963,155.35336439526625 187.34990546800964,157.75336439526626 M 127.65990546800965,153.29336439526625 C 127.65990546800965,153.29336439526625 130.07990546800963,152.52336439526624 130.07990546800963,149.07336439526625 C 130.07990546800963,145.62336439526626 131.99990546800962,147.65336439526627 131.99990546800962,145.07336439526625 C 131.99990546800962,142.49336439526624 132.8799054680096,145.61336439526625 132.8799054680096,142.38336439526626 C 132.8799054680096,139.15336439526627 133.64990546800962,142.15336439526627 133.2599054680096,138.54336439526625 C 132.8699054680096,134.93336439526624 134.1899054680096,136.01336439526625 133.9199054680096,134.05336439526624 C 133.6499054680096,132.09336439526624 134.02990546800962,134.70336439526625 134.1899054680096,131.63336439526626 A 28.65,28.65 0.0 0,0 134.29990546800963,127.02336439526626 C 134.1899054680096,123.29336439526625 136.10990546800963,123.94336439526626 135.44990546800963,121.76336439526625 C 134.78990546800964,119.58336439526624 135.83990546800962,120.87336439526625 135.06990546800964,118.18336439526625 C 134.29990546800965,115.49336439526625 137.06990546800964,115.99336439526625 135.94990546800963,113.46336439526625 C 134.82990546800963,110.93336439526625 134.79990546800963,110.62336439526625 134.41990546800963,110.00336439526626 C 134.03990546800964,109.38336439526627 133.91990546800963,108.31336439526626 133.25990546800963,104.85336439526625 C 132.59990546800964,101.39336439526625 133.25990546800963,97.55336439526626 133.64990546800962,99.36336439526626 C 134.0399054680096,101.17336439526626 134.94990546800963,106.01336439526627 135.17990546800962,103.97336439526626 C 135.4099054680096,101.93336439526625 135.83990546800962,102.43336439526625 137.36990546800962,101.40336439526627 C 138.89990546800962,100.37336439526628 138.79990546800963,102.70336439526626 140.5999054680096,101.28336439526626 C 142.3999054680096,99.86336439526626 141.2199054680096,98.44336439526626 142.9099054680096,98.82336439526627 A 9.66,9.66 0.0 0,0 147.1299054680096,98.32336439526627 C 147.1299054680096,98.32336439526627 145.70990546800962,99.09336439526626 148.89990546800962,98.98336439526626 C 152.08990546800962,98.87336439526626 149.8199054680096,101.28336439526626 152.23990546800962,100.13336439526627 C 154.65990546800964,98.98336439526628 154.53990546800964,100.36336439526627 156.4699054680096,99.97336439526627 C 158.3999054680096,99.58336439526627 158.3899054680096,102.43336439526627 161.1899054680096,101.13336439526627 C 163.98990546800962,99.83336439526627 162.6099054680096,95.13336439526627 165.02990546800962,99.48336439526626 C 167.44990546800963,103.83336439526626 167.2199054680096,98.82336439526627 168.02990546800962,103.59336439526626 C 168.83990546800962,108.36336439526626 175.86990546800962,117.53336439526626 178.7899054680096,121.52336439526627 C 181.7099054680096,125.51336439526628 182.89990546800962,136.24336439526627 183.0099054680096,138.16336439526629 C 183.1199054680096,140.0833643952663 182.5099054680096,148.5333643952663 181.8599054680096,149.8433643952663 C 181.2099054680096,151.1533643952663 177.3999054680096,151.3733643952663 175.7099054680096,152.3733643952663 C 174.0199054680096,153.3733643952663 172.3699054680096,152.5233643952663 171.8699054680096,153.79336439526628 C 171.3699054680096,155.06336439526626 172.5199054680096,157.36336439526627 172.5199054680096,157.36336439526627 C 172.5199054680096,157.36336439526627 136.9099054680096,155.98336439526628 133.4599054680096,156.10336439526628 A 39.81,39.81 0.0 0,1 127.3099054680096,155.83336439526627 L 127.65990546800965,153.29336439526625 M 109.74990546800966,147.01336439526625 A 15.51,15.51 0.0 0,0 110.00990546800966,150.74336439526624 C 110.39990546800966,152.28336439526623 110.62990546800967,153.04336439526625 110.00990546800966,153.04336439526625 C 109.38990546800966,153.04336439526625 106.00990546800966,152.93336439526624 106.00990546800966,152.93336439526624 C 106.00990546800966,152.93336439526624 109.97990546800966,150.75336439526626 109.74990546800966,147.01336439526625 M 66.57990546800966,159.92336439526625 A 8.51,8.51 0.0 0,1 68.87990546800965,159.31336439526623 C 70.98990546800965,158.88336439526623 71.87990546800965,156.81336439526623 75.59990546800965,156.58336439526624 C 79.31990546800965,156.35336439526625 79.36990546800965,154.70336439526625 82.28990546800965,154.27336439526624 C 85.20990546800965,153.84336439526624 88.35990546800964,153.27336439526624 88.35990546800964,153.27336439526624 A 6.87,6.87 0.0 0,1 90.23990546800964,148.66336439526623 C 92.11990546800963,146.97336439526623 97.57990546800964,147.39336439526622 98.83990546800963,146.97336439526623 C 100.09990546800962,146.55336439526624 101.98990546800964,140.90336439526624 102.60990546800963,138.40336439526624 C 103.22990546800962,135.90336439526624 103.44990546800963,136.94336439526623 101.75990546800963,133.60336439526623 A 8.0,8.0 0.0 0,0 97.14990546800964,129.41336439526623 C 97.14990546800964,129.41336439526623 97.99990546800963,130.64336439526622 94.65990546800964,130.03336439526623 C 91.31990546800965,129.42336439526625 93.19990546800965,132.10336439526623 90.46990546800964,131.91336439526623 C 87.73990546800964,131.72336439526623 89.46990546800964,131.49336439526624 86.27990546800964,132.10336439526623 C 83.08990546800965,132.7133643952662 81.66990546800965,132.95336439526622 80.40990546800964,133.60336439526623 C 79.14990546800964,134.25336439526623 80.63990546800964,134.21336439526624 76.63990546800964,134.41336439526623 C 72.63990546800964,134.61336439526622 73.06990546800965,133.98336439526622 70.98990546800964,133.98336439526622 C 68.90990546800963,133.98336439526622 69.98990546800964,132.98336439526622 67.64990546800964,134.83336439526622 A 7.47,7.47 0.0 0,0 64.64990546800964,140.2833643952662 C 64.64990546800964,141.55336439526621 65.72990546800963,141.1333643952662 65.49990546800963,142.4033643952662 C 65.26990546800963,143.67336439526622 67.60990546800963,145.9333643952662 65.72990546800963,148.0433643952662 C 63.84990546800963,150.15336439526618 65.72990546800963,148.46336439526618 65.49990546800963,151.1933643952662 C 65.26990546800963,153.92336439526622 66.49990546800963,153.2733643952662 66.10990546800963,154.9633643952662 C 65.71990546800963,156.6533643952662 63.65990546800965,160.75336439526626 66.57990546800966,159.92336439526625"/>
</svg>
