<?xml version="1.0" ?>
<svg xmlns="http://www.w3.org/2000/svg" xmlns:ev="http://www.w3.org/2001/xml-events" xmlns:xlink="http://www.w3.org/1999/xlink" baseProfile="full" height="216" transform="scale(0.8403361344537815 0.8403361344537815) translate(-59.5 -108.0)" version="1.1" viewBox="0 0 119 216" width="119">
	<defs/>
	<path d="M 0.0,37.74198215023765 C 0.16,37.59198215023765 1.06,37.211982150237645 1.07,37.08198215023765 C 1.07,36.75198215023765 0.27,36.79198215023765 0.07000000000000006,36.70198215023765 C 0.21000000000000008,36.361982150237644 1.31,35.961982150237645 1.32,35.821982150237645 C 1.32,35.52198215023765 0.21999999999999997,35.431982150237644 0.0,35.291982150237644 C 0.28,34.87198215023764 1.07,34.98198215023764 1.38,34.59198215023764 C 1.0599999999999998,34.25198215023764 0.5299999999999999,34.10198215023764 0.21999999999999997,33.791982150237644 A 10.91,10.91 0.0 0,1 1.53,32.88198215023765 A 2.9,2.9 0.0 0,0 0.5900000000000001,32.501982150237644 C 0.8800000000000001,32.09198215023765 1.75,31.94198215023765 2.14,31.561982150237647 A 4.3,4.3 0.0 0,0 0.81,30.841982150237648 A 3.66,3.66 0.0 0,0 2.64,30.51198215023765 A 2.0,2.0 0.0 0,1 1.6400000000000001,29.51198215023765 A 4.0,4.0 0.0 0,1 3.16,29.23198215023765 A 1.26,1.26 0.0 0,1 2.67,28.501982150237648 C 2.98,28.42198215023765 3.31,28.44198215023765 3.67,28.361982150237647 A 3.31,3.31 0.0 0,0 4.33,28.111982150237647 A 0.13,0.13 0.0 0,1 4.41,28.111982150237647 A 1.14,1.14 0.0 0,1 3.97,27.401982150237647 C 4.29,27.281982150237646 4.69,27.401982150237647 4.970000000000001,27.191982150237646 C 4.760000000000001,26.951982150237647 4.660000000000001,26.661982150237645 4.32,26.511982150237646 C 6.26,26.571982150237645 3.3200000000000003,25.351982150237646 4.32,25.031982150237646 A 5.58,5.58 0.0 0,1 3.7500000000000004,22.241982150237646 C 4.3500000000000005,22.241982150237646 4.0,21.571982150237645 4.11,21.241982150237646 A 3.46,3.46 0.0 0,1 4.41,20.671982150237646 C 4.41,20.591982150237648 4.26,20.511982150237646 4.33,20.401982150237647 C 4.4,20.291982150237647 4.62,20.331982150237646 4.63,20.301982150237645 C 4.64,20.271982150237644 4.8,20.301982150237645 4.85,20.101982150237646 C 4.8999999999999995,19.901982150237647 4.739999999999999,19.951982150237647 4.76,19.861982150237647 C 4.76,19.591982150237648 4.58,19.671982150237646 4.76,19.431982150237648 A 2.94,2.94 0.0 0,1 5.34,19.061982150237647 A 1.52,1.52 0.0 0,1 5.28,18.861982150237647 A 21.67,21.67 0.0 0,1 4.45,10.861982150237647 C 4.62,8.161982150237648 4.45,5.181982150237647 5.390000000000001,2.581982150237647 A 3.52,3.52 0.0 0,1 7.75,0.02198215023764799 A 4.18,4.18 0.0 0,1 11.2,1.291982150237648 C 13.28,3.1119821502376483 14.489999999999998,5.651982150237648 16.33,7.661982150237648 A 40.0,40.0 0.0 0,1 21.23,13.961982150237649 C 21.43,13.571982150237648 21.62,13.091982150237648 22.03,12.961982150237649 A 1.91,1.91 0.0 0,0 22.3,13.961982150237649 C 22.62,14.361982150237647 22.66,14.201982150237647 22.92,13.85198215023765 A 1.38,1.38 0.0 0,1 23.23,14.251982150237648 A 3.74,3.74 0.0 0,0 23.51,13.611982150237647 A 4.59,4.59 0.0 0,0 24.32,14.33198215023765 C 24.48,14.17198215023765 24.54,13.891982150237649 24.69,13.711982150237649 C 24.85,13.861982150237651 25.32,14.49198215023765 25.580000000000002,14.461982150237649 C 25.840000000000003,14.431982150237651 25.96,13.92198215023765 26.090000000000003,13.78198215023765 C 26.300000000000004,13.97198215023765 26.67,14.47198215023765 27.020000000000003,14.391982150237649 C 27.370000000000005,14.31198215023765 27.390000000000004,13.911982150237648 27.51,13.731982150237648 C 27.85,13.871982150237649 28.590000000000003,14.591982150237648 28.85,14.60198215023765 C 29.11,14.611982150237647 29.16,14.271982150237648 29.46,14.341982150237648 C 29.76,14.411982150237648 29.79,14.701982150237647 29.85,14.801982150237649 C 30.310000000000002,14.271982150237651 30.48,14.92198215023765 30.8,15.13198215023765 C 30.8,14.99198215023765 30.94,14.871982150237649 30.970000000000002,14.74198215023765 A 0.8,0.8 0.0 0,1 31.340000000000003,15.181982150237648 C 31.590000000000003,15.181982150237648 31.700000000000003,14.961982150237649 31.980000000000004,15.01198215023765 C 31.980000000000004,15.141982150237649 32.120000000000005,15.19198215023765 32.150000000000006,15.321982150237648 C 32.550000000000004,15.321982150237648 32.650000000000006,14.81198215023765 33.080000000000005,14.871982150237649 A 1.08,1.08 0.0 0,0 33.18000000000001,15.38198215023765 C 33.550000000000004,15.38198215023765 33.760000000000005,14.981982150237648 34.120000000000005,15.01198215023765 C 34.120000000000005,15.091982150237651 34.190000000000005,15.19198215023765 34.2,15.24198215023765 A 1.0,1.0 0.0 0,1 34.86,15.001982150237652 C 34.86,15.211982150237652 34.86,15.411982150237652 34.86,15.621982150237649 C 37.06,13.411982150237652 39.16,11.521982150237651 40.8,8.771982150237651 C 42.44,6.02198215023765 44.18,1.2319821502376502 48.08,1.7719821502376503 C 51.98,2.3119821502376503 53.769999999999996,6.58198215023765 54.599999999999994,9.54198215023765 C 56.44,16.121982150237653 57.24999999999999,23.261982150237653 55.00999999999999,29.79198215023765 A 5.0,5.0 0.0 0,1 56.28999999999999,29.79198215023765 A 1.69,1.69 0.0 0,0 55.22999999999999,30.60198215023765 A 2.12,2.12 0.0 0,1 56.44999999999999,30.88198215023765 A 2.27,2.27 0.0 0,1 55.929999999999986,31.20198215023765 C 56.22999999999998,31.45198215023765 57.12999999999999,31.551982150237652 57.109999999999985,31.99198215023765 C 55.469999999999985,32.49198215023765 56.94999999999999,32.531982150237646 57.109999999999985,33.391982150237645 C 56.15999999999998,33.291982150237644 57.579999999999984,34.391982150237645 57.759999999999984,34.52198215023765 A 5.27,5.27 0.0 0,1 58.889999999999986,35.52198215023765 C 58.429999999999986,35.74198215023765 57.889999999999986,35.88198215023765 58.469999999999985,36.37198215023765 C 58.86999999999998,36.72198215023765 59.66999999999999,36.531982150237646 59.149999999999984,37.08198215023765 C 58.62999999999998,37.631982150237654 58.23999999999999,37.40198215023765 58.94999999999998,37.88198215023765 C 59.42999999999998,38.19198215023765 59.94999999999998,38.44198215023765 60.41999999999998,38.791982150237644 C 59.86999999999998,39.101982150237646 58.88999999999998,39.041982150237644 58.74999999999998,39.791982150237644 A 9.78,9.78 0.0 0,1 60.03999999999998,40.45198215023764 C 60.66999999999998,40.86198215023764 60.729999999999976,40.86198215023764 60.17999999999998,41.28198215023764 C 59.62999999999998,41.70198215023764 59.799999999999976,41.74198215023764 60.299999999999976,42.03198215023764 A 6.87,6.87 0.0 0,0 61.38999999999998,42.56198215023764 C 61.189999999999976,43.03198215023764 59.94999999999998,42.89198215023764 60.26999999999998,43.56198215023764 C 60.48999999999998,44.03198215023764 61.47999999999998,44.50198215023764 61.97999999999998,44.70198215023764 A 5.55,5.55 0.0 0,1 60.759999999999984,45.40198215023764 A 3.51,3.51 0.0 0,1 62.569999999999986,46.40198215023764 C 62.12999999999999,46.62198215023764 61.569999999999986,46.791982150237644 61.18999999999998,47.01198215023764 C 61.44999999999998,47.071982150237645 62.679999999999986,47.351982150237646 62.72999999999998,47.66198215023764 C 62.77999999999998,47.971982150237636 62.22999999999998,47.91198215023764 62.20999999999998,48.13198215023764 C 62.189999999999976,48.35198215023764 62.63999999999998,48.48198215023764 62.79999999999998,48.62198215023764 C 62.069999999999986,48.88198215023764 64.08999999999999,49.571982150237645 64.21999999999998,49.861982150237644 C 64.34999999999998,50.15198215023764 63.87999999999998,50.251982150237644 63.499999999999986,50.41198215023764 C 64.54999999999998,51.19198215023764 65.36999999999999,52.52198215023764 66.38999999999999,53.08198215023764 A 8.46,8.46 0.0 0,0 65.38999999999999,53.84198215023764 A 21.27,21.27 0.0 0,0 67.84999999999998,54.84198215023764 C 67.64999999999998,56.19198215023764 67.73999999999998,56.25198215023764 69.04999999999998,56.90198215023764 C 70.35999999999999,57.55198215023765 70.60999999999999,57.791982150237644 70.04999999999998,58.90198215023764 A 7.6,7.6 0.0 0,1 72.80999999999999,61.69198215023764 A 8.51,8.51 0.0 0,0 74.96,63.431982150237644 A 10.23,10.23 0.0 0,1 76.47999999999999,65.33198215023765 C 78.47999999999999,67.79198215023764 82.24,68.75198215023765 84.85999999999999,70.53198215023765 A 12.81,12.81 0.0 0,1 88.14999999999999,73.72198215023765 A 28.67,28.67 0.0 0,0 91.22999999999999,76.72198215023765 C 93.41999999999999,78.90198215023766 96.35,81.20198215023765 97.35,84.10198215023765 A 22.36,22.36 0.0 0,1 98.44999999999999,90.58198215023765 L 98.44999999999999,90.58198215023765 C 98.99,91.58198215023765 98.86999999999999,93.31198215023765 99.15999999999998,94.46198215023765 C 99.44999999999997,95.61198215023764 99.80999999999999,96.79198215023764 100.15999999999998,97.94198215023765 A 53.0,53.0 0.0 0,1 102.30999999999999,106.00198215023765 A 56.8,56.8 0.0 0,1 102.58999999999999,123.00198215023765 A 34.51,34.51 0.0 0,1 101.07,130.00198215023767 C 101.49,131.22198215023766 101.25,133.92198215023765 101.25999999999999,134.81198215023767 A 26.59,26.59 0.0 0,0 101.74999999999999,140.13198215023766 A 37.0,37.0 0.0 0,1 102.51999999999998,147.37198215023767 C 104.51999999999998,149.23198215023768 105.51999999999998,152.19198215023766 107.21999999999998,154.11198215023768 A 9.6,9.6 0.0 0,0 105.79999999999998,154.11198215023768 A 15.93,15.93 0.0 0,0 108.26999999999998,156.6319821502377 C 107.54999999999998,156.7119821502377 106.89999999999998,156.4119821502377 106.16999999999999,156.5419821502377 C 107.24999999999999,157.9719821502377 108.86999999999999,158.6319821502377 110.26999999999998,159.74198215023767 A 1.77,1.77 0.0 0,1 108.46999999999998,160.80198215023768 C 109.05999999999999,161.56198215023767 110.32999999999998,161.47198215023766 111.10999999999999,162.01198215023769 A 4.0,4.0 0.0 0,1 109.30999999999999,163.6219821502377 A 7.54,7.54 0.0 0,1 112.9,165.96198215023765 C 112.33000000000001,165.96198215023765 111.75,165.96198215023765 111.18,165.96198215023765 A 25.45,25.45 0.0 0,1 113.78,168.67198215023765 C 113.2,168.67198215023765 112.6,168.67198215023765 112.01,168.67198215023765 C 113.38000000000001,169.42198215023765 114.01,171.26198215023766 115.79,171.45198215023765 C 115.32000000000001,171.96198215023765 113.92,171.80198215023765 113.32000000000001,171.45198215023765 A 12.33,12.33 0.0 0,1 114.15,174.94198215023766 A 8.2,8.2 0.0 0,0 115.96000000000001,175.11198215023765 C 115.61000000000001,175.26198215023766 115.09,175.40198215023764 114.65,175.56198215023764 C 115.56,176.36198215023765 117.65,177.95198215023763 118.93,178.11198215023765 A 11.16,11.16 0.0 0,0 116.05000000000001,179.11198215023765 A 10.85,10.85 0.0 0,1 112.82000000000001,179.51198215023766 A 0.6,0.6 0.0 0,0 113.13000000000001,180.14198215023765 A 10.52,10.52 0.0 0,0 109.46000000000001,179.66198215023766 A 7.93,7.93 0.0 0,0 110.71000000000001,181.29198215023766 C 109.93,181.07198215023766 109.10000000000001,180.56198215023767 108.30000000000001,180.42198215023765 C 108.30000000000001,181.06198215023764 108.89000000000001,181.42198215023765 108.91000000000001,182.06198215023764 A 32.72,32.72 0.0 0,1 105.61000000000001,179.41198215023763 A 42.51,42.51 0.0 0,0 105.27000000000001,186.47198215023764 C 105.39000000000001,192.14198215023762 103.62,197.69198215023764 103.86000000000001,203.34198215023764 A 22.51,22.51 0.0 0,1 104.04000000000002,207.52198215023765 C 103.83000000000003,208.84198215023764 103.16000000000003,210.13198215023766 102.83000000000003,211.44198215023764 C 102.56000000000003,212.51198215023763 102.41000000000003,214.44198215023764 101.13000000000002,214.94198215023764 C 99.85000000000002,215.44198215023764 98.45000000000002,214.32198215023763 97.52000000000002,213.62198215023764 A 7.0,7.0 0.0 0,1 93.29000000000002,215.35198215023763 C 92.29000000000002,215.45198215023763 90.45000000000002,215.59198215023764 89.73000000000002,214.97198215023764 C 89.18000000000002,214.51198215023763 89.02000000000002,213.45198215023763 88.57000000000002,212.90198215023764 C 87.22000000000003,213.12198215023764 85.92000000000002,212.90198215023764 85.84000000000002,211.33198215023765 C 85.76000000000002,209.76198215023766 87.00000000000001,208.93198215023764 88.41000000000001,208.22198215023764 C 91.29,206.75198215023764 91.66000000000001,203.47198215023764 92.62,200.84198215023764 A 24.18,24.18 0.0 0,0 94.56,192.16198215023763 C 94.56,189.11198215023762 94.71000000000001,186.16198215023763 94.44,183.11198215023762 C 94.23,180.70198215023763 93.86,178.29198215023763 93.58,175.88198215023763 A 1.0,1.0 0.0 0,0 93.24,175.88198215023763 C 93.24,176.29198215023763 93.0,176.39198215023762 92.91,176.60198215023763 A 15.6,15.6 0.0 0,0 90.53,172.34198215023764 C 90.01,172.73198215023763 90.07000000000001,173.44198215023764 89.82000000000001,174.01198215023763 C 88.64,173.07198215023763 88.61000000000001,171.26198215023763 87.72000000000001,170.13198215023763 A 3.85,3.85 0.0 0,1 87.52000000000001,171.55198215023762 C 87.15,170.77198215023762 87.00000000000001,168.90198215023761 85.88000000000001,168.8419821502376 C 85.26,167.3119821502376 85.88000000000001,164.93198215023762 85.01,163.68198215023762 A 10.75,10.75 0.0 0,1 84.01,164.86198215023762 A 4.7,4.7 0.0 0,0 84.18,162.7819821502376 C 84.01,161.86198215023762 83.5,162.0419821502376 83.18,161.55198215023762 C 82.43,160.38198215023763 83.29,158.8419821502376 82.64,157.65198215023761 C 79.83,157.8419821502376 81.18,154.46198215023762 80.47,152.93198215023762 C 78.58,153.3219821502376 79.22,149.93198215023762 79.14,148.83198215023762 C 78.8,148.89198215023762 78.35,148.73198215023763 78.01,148.83198215023762 C 77.82000000000001,147.99198215023762 79.82000000000001,145.23198215023763 77.68,145.33198215023762 C 77.61000000000001,144.27198215023762 78.02000000000001,143.18198215023762 77.80000000000001,142.19198215023764 C 77.31000000000002,142.03198215023764 76.80000000000001,141.99198215023765 76.33000000000001,141.86198215023762 C 76.73000000000002,140.63198215023763 78.33000000000001,138.3119821502376 78.27000000000001,136.69198215023764 A 2.3,2.3 0.0 0,1 77.20000000000002,137.00198215023764 A 20.0,20.0 0.0 0,0 76.75000000000001,134.80198215023765 C 76.38000000000001,135.34198215023764 76.10000000000001,136.15198215023764 75.66000000000001,136.71198215023765 A 9.46,9.46 0.0 0,1 74.53000000000002,135.28198215023764 A 2.88,2.88 0.0 0,0 73.73000000000002,137.18198215023764 A 6.0,6.0 0.0 0,1 72.63000000000002,136.18198215023764 C 72.18000000000002,136.79198215023766 71.98000000000002,138.05198215023765 70.97000000000003,136.91198215023763 C 70.61000000000003,137.81198215023764 70.13000000000002,138.97198215023764 69.76000000000003,140.12198215023764 C 70.15000000000003,140.88198215023763 70.52000000000004,141.83198215023765 70.91000000000004,142.58198215023765 A 3.65,3.65 0.0 0,1 70.38000000000004,142.77198215023765 C 70.14000000000004,143.93198215023764 71.16000000000004,144.83198215023765 71.80000000000004,145.67198215023765 C 70.04000000000003,146.17198215023765 72.58000000000004,148.16198215023766 71.09000000000005,149.28198215023767 A 3.38,3.38 0.0 0,1 72.22000000000004,151.15198215023767 C 72.01000000000005,151.15198215023767 71.73000000000005,151.21198215023767 71.52000000000004,151.15198215023767 C 71.40000000000003,151.89198215023768 71.77000000000004,152.43198215023767 71.64000000000004,153.15198215023767 A 6.12,6.12 0.0 0,0 70.76000000000005,152.85198215023766 A 4.55,4.55 0.0 0,0 71.09000000000005,155.20198215023765 C 69.44000000000004,155.20198215023765 69.97000000000004,158.88198215023766 70.09000000000005,160.65198215023764 A 20.28,20.28 0.0 0,1 72.09000000000005,163.27198215023765 A 9.88,9.88 0.0 0,1 72.56000000000004,168.61198215023765 C 72.32000000000005,170.37198215023764 72.09000000000005,172.10198215023766 71.86000000000004,173.87198215023764 C 71.63000000000004,175.64198215023762 71.86000000000004,177.63198215023763 71.43000000000004,179.37198215023764 A 16.65,16.65 0.0 0,1 70.11000000000004,182.56198215023764 A 13.72,13.72 0.0 0,1 70.11000000000004,187.10198215023763 C 69.85000000000004,188.76198215023763 69.30000000000004,190.42198215023762 68.95000000000005,192.10198215023763 A 38.07,38.07 0.0 0,0 68.27000000000004,202.44198215023764 C 68.34000000000003,203.49198215023765 69.12000000000003,206.29198215023763 68.44000000000004,207.44198215023764 C 69.57000000000004,208.56198215023764 70.17000000000004,211.56198215023764 69.62000000000005,212.60198215023763 A 6.57,6.57 0.0 0,1 65.10000000000005,214.60198215023763 C 64.02000000000005,215.46198215023765 62.65000000000005,215.47198215023764 60.89000000000005,215.44198215023764 A 13.52,13.52 0.0 0,1 57.73000000000005,214.88198215023763 A 6.57,6.57 0.0 0,1 55.880000000000045,213.88198215023763 C 55.36000000000004,214.63198215023763 53.80000000000005,214.54198215023763 53.00000000000004,214.08198215023762 A 6.0,6.0 0.0 0,1 51.12000000000004,211.54198215023763 A 4.39,4.39 0.0 0,1 51.82000000000004,208.06198215023764 C 52.22000000000004,207.30198215023765 52.450000000000045,206.45198215023763 52.82000000000004,205.67198215023765 A 4.0,4.0 0.0 0,0 51.030000000000044,205.30198215023765 C 49.96000000000004,205.58198215023765 49.920000000000044,206.48198215023766 48.55000000000005,206.30198215023765 A 8.47,8.47 0.0 0,1 48.86000000000005,202.99198215023765 C 49.31000000000005,201.75198215023764 50.50000000000005,201.72198215023764 51.340000000000046,200.76198215023766 C 52.18000000000004,199.80198215023768 52.340000000000046,199.35198215023766 53.910000000000046,198.76198215023766 C 54.340000000000046,198.58198215023765 55.12000000000005,198.38198215023766 55.75000000000005,198.14198215023765 A 17.75,17.75 0.0 0,0 56.82000000000005,191.99198215023765 A 30.0,30.0 0.0 0,0 55.70000000000005,184.82198215023766 C 55.06000000000005,182.20198215023765 56.42000000000005,180.43198215023767 56.70000000000005,177.82198215023766 A 45.35,45.35 0.0 0,0 56.70000000000005,170.09198215023767 A 57.41,57.41 0.0 0,1 56.470000000000056,163.25198215023767 A 22.89,22.89 0.0 0,1 50.95000000000006,157.53198215023767 C 47.83000000000006,153.22198215023766 46.89000000000006,148.76198215023766 45.31000000000006,143.87198215023767 C 44.50000000000006,141.36198215023768 43.82000000000006,138.87198215023767 43.17000000000006,136.35198215023766 C 42.78000000000006,134.85198215023766 42.17000000000006,132.06198215023767 40.94000000000006,130.60198215023766 A 18.09,18.09 0.0 0,0 40.38000000000006,136.44198215023766 C 40.38000000000006,138.61198215023765 41.27000000000006,140.63198215023766 41.59000000000006,142.75198215023767 C 42.33000000000006,147.68198215023767 42.01000000000006,152.83198215023768 42.44000000000006,157.85198215023766 A 105.69,105.69 0.0 0,1 42.66,172.96198215023765 C 42.519999999999996,175.10198215023763 42.13999999999999,177.56198215023764 42.81999999999999,179.65198215023764 C 43.49999999999999,181.74198215023765 44.489999999999995,183.31198215023764 44.339999999999996,185.72198215023764 C 44.16,188.40198215023764 43.23,190.41198215023763 43.99999999999999,193.12198215023764 C 44.13999999999999,193.63198215023763 44.57999999999999,194.72198215023764 44.93999999999999,195.89198215023765 L 44.93999999999999,195.89198215023765 C 46.08999999999999,198.13198215023766 46.57999999999999,201.36198215023765 44.459999999999994,203.30198215023765 A 21.76,21.76 0.0 0,1 44.459999999999994,206.09198215023764 C 44.459999999999994,207.58198215023765 44.98,209.04198215023763 44.98,210.46198215023765 C 44.98,211.56198215023764 43.55,212.77198215023765 42.48,213.26198215023766 C 41.699999999999996,213.61198215023765 40.83,213.26198215023766 40.129999999999995,213.49198215023765 C 39.42999999999999,213.72198215023764 39.61,214.62198215023764 39.0,214.96198215023765 C 38.11,215.48198215023766 37.31,214.79198215023766 36.69,213.96198215023765 A 7.56,7.56 0.0 0,1 32.32,215.30198215023765 A 8.71,8.71 0.0 0,0 31.02,215.42198215023765 C 30.57,215.49198215023765 30.41,216.02198215023765 29.87,215.78198215023767 C 29.330000000000002,215.5419821502377 29.26,214.73198215023766 29.150000000000002,213.95198215023765 C 28.35,214.48198215023766 27.700000000000003,215.37198215023764 27.01,214.65198215023764 C 26.580000000000002,214.20198215023765 26.28,211.39198215023765 26.310000000000002,210.74198215023765 C 26.44,208.34198215023764 29.090000000000003,206.96198215023765 30.62,205.32198215023766 A 7.13,7.13 0.0 0,0 32.45,201.46198215023765 L 32.580000000000005,201.46198215023765 C 32.71000000000001,200.46198215023765 32.75000000000001,199.46198215023765 32.800000000000004,198.59198215023764 C 32.95,195.93198215023764 32.64000000000001,193.31198215023764 32.800000000000004,190.65198215023764 A 92.78,92.78 0.0 0,0 32.470000000000006,176.71198215023765 C 32.00000000000001,171.71198215023765 31.740000000000006,166.80198215023765 30.300000000000004,161.91198215023763 C 28.920000000000005,157.20198215023763 26.350000000000005,153.08198215023762 25.230000000000004,148.28198215023764 C 24.690000000000005,145.92198215023762 23.920000000000005,143.65198215023764 24.100000000000005,141.28198215023764 C 24.240000000000006,139.34198215023764 24.500000000000004,137.47198215023764 24.760000000000005,135.57198215023763 A 9.0,9.0 0.0 0,1 24.610000000000007,134.03198215023764 A 21.17,21.17 0.0 0,0 23.770000000000007,128.11198215023765 A 19.13,19.13 0.0 0,0 22.200000000000006,123.22198215023765 A 42.71,42.71 0.0 0,1 19.640000000000008,118.77198215023765 A 82.7,82.7 0.0 0,1 16.0,107.32198215023764 A 91.72,91.72 0.0 0,1 14.21,95.82198215023764 C 13.81,92.82198215023764 13.75,89.56198215023764 13.450000000000001,86.49198215023765 L 13.360000000000001,85.73198215023764 C 13.420000000000002,85.64198215023764 13.48,85.55198215023763 13.530000000000001,85.46198215023765 L 13.330000000000002,85.46198215023765 C 12.900000000000002,85.46198215023765 12.510000000000002,85.56198215023764 12.060000000000002,85.55198215023765 C 11.860000000000003,84.83198215023765 12.470000000000002,84.22198215023765 12.810000000000002,83.62198215023764 A 6.83,6.83 0.0 0,0 9.910000000000002,84.04198215023764 C 10.620000000000001,83.31198215023764 11.660000000000002,82.72198215023765 12.020000000000001,81.81198215023764 A 10.76,10.76 0.0 0,0 9.89,82.37198215023764 C 9.690000000000001,81.66198215023765 10.23,81.21198215023765 10.34,80.59198215023764 C 9.75,80.59198215023764 9.14,80.59198215023764 8.55,80.59198215023764 C 8.55,80.03198215023764 9.07,79.59198215023764 9.17,79.12198215023764 C 8.22,78.95198215023764 6.72,79.69198215023764 6.029999999999999,78.98198215023764 C 6.81,78.57198215023764 7.93,77.92198215023764 8.16,77.14198215023764 A 6.69,6.69 0.0 0,1 6.36,77.25198215023764 C 6.66,76.62198215023764 7.36,76.16198215023763 7.49,75.47198215023764 C 6.8500000000000005,75.47198215023764 6.18,75.47198215023764 5.49,75.47198215023764 C 5.640000000000001,74.98198215023764 6.26,74.58198215023764 6.62,74.16198215023763 C 5.99,74.16198215023763 5.32,74.16198215023763 4.69,74.16198215023763 C 5.15,73.74198215023763 5.790000000000001,73.44198215023764 5.78,72.83198215023764 A 3.85,3.85 0.0 0,1 4.16,72.63198215023763 C 4.16,72.50198215023764 4.16,72.36198215023764 4.16,72.23198215023763 C 4.58,72.07198215023763 5.85,71.75198215023762 5.79,71.29198215023763 C 5.73,70.83198215023764 4.29,70.96198215023765 4.37,69.96198215023765 A 4.92,4.92 0.0 0,0 6.800000000000001,69.29198215023764 C 4.800000000000001,68.89198215023764 4.800000000000001,68.18198215023764 5.800000000000001,66.62198215023764 A 6.45,6.45 0.0 0,1 4.340000000000001,66.72198215023764 C 4.120000000000001,65.72198215023764 5.340000000000001,65.21198215023763 5.420000000000001,64.30198215023763 A 4.0,4.0 0.0 0,1 4.170000000000001,64.44198215023764 C 4.110000000000001,63.81198215023763 4.65,63.441982150237635 4.620000000000001,62.82198215023764 C 4.360000000000001,62.89198215023764 4.110000000000001,62.82198215023764 3.8400000000000007,62.93198215023764 C 3.7200000000000006,62.20198215023764 4.130000000000001,61.60198215023764 3.9500000000000006,60.84198215023764 C 3.7300000000000004,60.84198215023764 3.3900000000000006,60.76198215023764 3.170000000000001,60.84198215023764 C 2.980000000000001,59.84198215023764 3.600000000000001,59.08198215023764 3.450000000000001,58.15198215023764 C 2.390000000000001,58.08198215023764 2.450000000000001,55.931982150237644 2.450000000000001,55.23198215023764 A 9.39,9.39 0.0 0,1 2.320000000000001,53.40198215023764 L 2.25,53.40198215023764 A 8.46,8.46 0.0 0,0 2.25,52.171982150237646 C 2.31,51.74198215023765 2.55,51.171982150237646 1.78,51.321982150237645 C 2.2800000000000002,50.90198215023764 2.4699999999999998,50.77198215023765 2.05,50.24198215023765 C 1.8299999999999998,49.97198215023764 1.5299999999999998,49.98198215023765 1.7999999999999998,49.611982150237644 C 1.91,49.44198215023764 2.36,49.351982150237646 2.5599999999999996,49.30198215023764 C 2.51,48.861982150237644 2.0699999999999994,48.541982150237644 1.9899999999999998,48.181982150237644 C 2.11,48.181982150237644 2.2199999999999998,48.101982150237646 2.34,48.09198215023764 C 2.25,47.791982150237644 1.9499999999999997,47.63198215023764 1.8299999999999998,47.35198215023764 C 1.5799999999999998,46.81198215023764 1.96,47.13198215023764 2.01,46.80198215023764 C 2.0599999999999996,46.47198215023764 0.6399999999999997,45.23198215023764 1.5999999999999999,45.291982150237644 A 1.55,1.55 0.0 0,0 0.7399999999999999,44.211982150237645 C 0.7399999999999999,43.98198215023765 0.9699999999999999,43.851982150237646 1.23,43.81198215023765 C 1.43,43.071982150237645 0.35,43.45198215023765 0.69,42.95198215023765 C 0.82,42.76198215023765 2.24,42.04198215023765 0.96,42.211982150237645 C 0.8999999999999999,41.77198215023765 1.5,41.751982150237644 1.5299999999999998,41.48198215023765 C 1.5799999999999998,41.06198215023765 1.17,41.211982150237645 0.9499999999999998,41.07198215023765 C 0.7299999999999998,40.93198215023766 0.5999999999999999,40.80198215023765 0.6999999999999998,40.341982150237655 C 0.7999999999999998,39.88198215023766 0.9299999999999998,39.82198215023765 0.8599999999999999,39.481982150237656 C 0.7799999999999999,39.481982150237656 0.6699999999999999,39.481982150237656 0.5899999999999999,39.481982150237656 C 0.47999999999999987,38.97198215023766 1.0899999999999999,38.65198215023766 1.0199999999999998,38.271982150237655 C 0.9499999999999997,37.89198215023765 0.34,37.80198215023765 0.0,37.74198215023765"/>
</svg>
