<?xml version="1.0" ?>
<svg xmlns="http://www.w3.org/2000/svg" xmlns:ev="http://www.w3.org/2001/xml-events" xmlns:xlink="http://www.w3.org/1999/xlink" baseProfile="full" height="847" transform="scale(0.15698587127158556 0.15698587127158556) translate(-318.5 -423.5)" version="1.1" viewBox="0 0 637 847" width="637">
	<defs/>
	<path d="M 636.72,198.10887558826388 C 636.22,192.8788755882639 633.72,188.1888755882639 630.57,184.10887558826388 A 66.39,66.39 0.0 0,0 624.6600000000001,177.6988755882639 C 624.2500000000001,177.3088755882639 621.6600000000001,175.20887558826388 621.6600000000001,174.9088755882639 C 621.6600000000001,174.6088755882639 622.72,174.35887558826388 623.7600000000001,174.1888755882639 C 624.8000000000002,174.0188755882639 625.8900000000001,173.8888755882639 626.2300000000001,173.8188755882639 A 0.18,0.18 0.0 0,0 626.3400000000001,173.54887558826388 A 46.63,46.63 0.0 0,1 621.5600000000002,160.24887558826387 A 45.88,45.88 0.0 0,1 620.7600000000002,153.24887558826387 C 620.7600000000002,152.49887558826387 620.4000000000002,150.31887558826386 620.9700000000003,149.82887558826388 C 621.5400000000003,149.3388755882639 623.6100000000002,150.05887558826387 624.3200000000003,150.17887558826388 A 0.2,0.2 0.0 0,0 624.5500000000003,149.93887558826387 L 610.1500000000003,111.63887558826387 C 615.7700000000003,101.32887558826387 616.0100000000003,88.97887558826388 614.7900000000003,77.43887558826387 C 614.0500000000003,70.34887558826387 612.7900000000003,63.318875588263865 611.5700000000003,56.29887558826386 C 610.1800000000003,48.248875588263864 608.6800000000003,40.19887558826386 606.7400000000002,32.29887558826386 C 605.0700000000003,25.498875588263864 603.3300000000003,18.458875588263865 600.1900000000003,12.168875588263864 C 597.8000000000003,7.368875588263864 594.2600000000003,2.5588755882638647 589.0100000000003,0.7288755882638647 C 582.9100000000003,-1.4011244117361352 576.8500000000004,1.4388755882638646 572.2000000000004,5.348875588263865 C 566.7700000000004,9.908875588263864 562.2000000000004,15.778875588263864 558.2000000000004,21.54887558826386 A 124.0,124.0 0.0 0,0 546.35,42.95887558826387 C 543.35,49.74887558826387 540.35,56.84887558826387 534.6800000000001,61.808875588263874 L 536.2700000000001,57.16887558826387 C 536.33,56.98887558826387 536.08,56.868875588263876 535.95,56.98887558826387 C 522.23,69.90887558826388 500.58000000000004,73.06887558826388 483.74000000000007,64.58887558826387 A 0.19,0.19 0.0 0,0 483.51000000000005,64.88887558826387 C 484.32000000000005,65.82887558826387 482.2300000000001,66.33887558826387 481.87000000000006,66.35887558826387 A 6.83,6.83 0.0 0,1 480.46000000000004,66.16887558826387 A 23.84,23.84 0.0 0,1 478.1,65.59887558826388 A 26.53,26.53 0.0 0,1 473.32000000000005,63.59887558826387 A 37.76,37.76 0.0 0,1 465.5,57.95887558826387 C 460.62,53.45887558826387 456.61,48.128875588263874 452.5,42.95887558826387 A 214.84,214.84 0.0 0,0 436.94,25.758875588263876 C 434.07,22.898875588263877 431.11,20.118875588263876 428.09,17.42887558826387 C 425.77,15.368875588263872 423.28,12.628875588263872 420.31,11.498875588263873 C 414.31,9.228875588263874 409.06,16.208875588263872 406.97,20.888875588263872 C 404.39000000000004,26.688875588263876 403.90000000000003,33.198875588263874 403.6,39.45887558826387 A 268.19,268.19 0.0 0,0 403.73,67.52887558826387 L 403.92,67.39887558826388 C 404.06,69.85887558826387 404.35,72.30887558826387 404.6,74.74887558826387 L 405.82000000000005,86.66887558826387 C 406.06000000000006,88.91887558826387 406.2900000000001,91.17887558826388 406.52000000000004,93.42887558826388 C 406.52000000000004,93.64887558826388 406.87000000000006,93.65887558826388 406.89000000000004,93.42887558826388 A 34.77,34.77 0.0 0,1 404.35,110.33887558826387 A 0.17,0.17 0.0 0,0 404.35,110.51887558826388 C 409.77000000000004,115.65887558826388 408.13,124.26887558826388 405.16,130.24887558826387 A 38.85,38.85 0.0 0,1 390.0,146.49887558826387 A 0.19,0.19 0.0 0,0 390.09,146.84887558826387 L 394.57,147.38887558826386 A 51.53,51.53 0.0 0,1 362.67,163.95887558826388 A 50.42,50.42 0.0 0,1 352.47,164.14887558826388 C 352.29,164.14887558826388 352.24,164.34887558826387 352.33000000000004,164.46887558826387 A 18.8,18.8 0.0 0,1 355.83000000000004,170.46887558826387 C 355.96000000000004,170.83887558826387 356.19000000000005,171.13887558826386 355.90000000000003,171.46887558826387 A 5.08,5.08 0.0 0,1 354.81000000000006,171.94887558826386 A 82.11,82.11 0.0 0,1 345.95000000000005,175.14887558826385 A 101.84,101.84 0.0 0,1 327.80000000000007,178.69887558826386 A 149.35,149.35 0.0 0,1 309.4800000000001,179.43887558826387 A 116.88,116.88 0.0 0,1 292.3500000000001,178.33887558826387 C 287.2100000000001,177.48887558826388 281.6000000000001,175.54887558826388 279.3500000000001,170.4188755882639 C 279.2600000000001,170.2188755882639 278.9600000000001,170.36887558826388 279.00000000000006,170.5688755882639 C 279.3500000000001,172.0588755882639 279.68000000000006,173.5688755882639 280.00000000000006,175.0588755882639 A 7.51,7.51 0.0 0,1 280.27000000000004,176.2888755882639 C 280.27000000000004,176.92887558826388 280.40000000000003,176.82887558826388 279.76000000000005,177.04887558826388 A 14.0,14.0 0.0 0,1 276.89000000000004,177.49887558826387 A 51.2,51.2 0.0 0,1 267.38000000000005,177.67887558826388 A 151.86,151.86 0.0 0,1 249.64000000000004,175.12887558826387 L 249.53000000000003,175.30887558826387 C 235.32000000000002,172.14887558826388 221.11,168.94887558826386 206.88000000000002,165.8888755882639 A 180.14,180.14 0.0 0,0 184.16000000000003,162.1888755882639 A 96.28,96.28 0.0 0,0 162.11,162.9188755882639 C 147.58,165.05887558826387 133.65,170.1288755882639 120.24000000000001,175.9688755882639 C 116.91000000000001,177.4188755882639 113.60000000000001,178.8988755882639 110.32000000000001,180.4588755882639 A 54.32,54.32 0.0 0,0 101.06,185.7488755882639 C 95.51,189.8488755882639 91.57000000000001,195.7488755882639 87.81,201.4188755882639 A 185.2,185.2 0.0 0,0 68.44,239.6588755882639 Q 67.50999999999999,242.1788755882639 66.64999999999999,244.7188755882639 C 66.58,244.9488755882639 66.94,245.0488755882639 67.02,244.8188755882639 L 67.02,244.8188755882639 A 542.0,542.0 0.0 0,0 45.36,304.8188755882639 C 42.24,315.3588755882639 39.55,325.9888755882639 36.94,336.65887558826387 C 34.379999999999995,347.0788755882639 31.709999999999997,357.53887558826386 27.589999999999996,367.46887558826387 C 22.86,378.9588755882639 15.87,389.1788755882639 8.84,399.3388755882639 C 8.72,399.5088755882639 8.95,399.65887558826387 9.1,399.5888755882639 L 12.82,397.8988755882639 L 2.8200000000000003,440.78887558826386 L 0.0,453.0288755882639 C 0.0,453.1988755882639 0.19,453.35887558826386 0.32,453.2088755882639 L 7.32,445.1388755882639 Q 5.87,453.0588755882639 5.0,461.0788755882639 C 4.1899999999999995,468.46887558826387 3.7199999999999998,475.8988755882639 3.58,483.3288755882639 Q 3.47,489.59887558826387 3.69,495.8688755882639 A 0.18,0.18 0.0 0,0 4.05,495.8688755882639 A 40.55,40.55 0.0 0,1 8.83,486.1388755882639 A 198.0,198.0 0.0 0,1 13.33,508.3688755882639 A 199.84,199.84 0.0 0,1 15.33,531.5388755882639 Q 15.49,538.0388755882639 15.24,544.5388755882639 A 0.2,0.2 0.0 0,0 15.6,544.6388755882639 C 20.04,537.9788755882639 24.490000000000002,531.2988755882639 28.299999999999997,524.2588755882639 C 29.24,522.5288755882639 30.129999999999995,520.7688755882639 30.979999999999997,518.9988755882639 L 30.209999999999997,535.3288755882639 C 30.209999999999997,535.528875588264 30.459999999999997,535.568875588264 30.56,535.418875588264 Q 36.19,527.288875588264 42.349999999999994,519.548875588264 C 46.16,514.768875588264 50.129999999999995,510.078875588264 53.49999999999999,504.95887558826405 A 66.0,66.0 0.0 0,0 58.21999999999999,496.41887558826403 C 58.279999999999994,496.628875588264 58.32999999999999,496.82887558826405 58.38999999999999,497.02887558826404 C 58.919999999999995,498.928875588264 59.53999999999999,500.81887558826406 60.239999999999995,502.66887558826403 C 60.3,502.82887558826405 60.559999999999995,502.858875588264 60.599999999999994,502.66887558826403 C 61.31999999999999,499.608875588264 62.029999999999994,496.548875588264 62.74999999999999,493.488875588264 L 64.88,484.358875588264 C 65.6,481.298875588264 66.31,478.238875588264 67.03,475.178875588264 Q 67.69,472.308875588264 68.37,469.448875588264 A 79.55,79.55 0.0 0,1 73.75,458.148875588264 C 74.61,466.308875588264 73.52,474.648875588264 72.81,482.778875588264 C 71.94,492.668875588264 71.0,502.558875588264 69.69,512.408875588264 A 274.23,274.23 0.0 0,1 64.44,541.138875588264 A 177.1,177.1 0.0 0,1 56.0,567.0688755882638 Q 53.8,572.3588755882638 51.16,577.4588755882638 A 48.8,48.8 0.0 0,0 45.51,587.4588755882638 A 19.54,19.54 0.0 0,0 43.83,591.1888755882638 A 11.0,11.0 0.0 0,0 43.32,593.8488755882638 A 50.55,50.55 0.0 0,0 42.0,601.0688755882638 A 48.53,48.53 0.0 0,0 41.72,608.2988755882639 C 41.72,608.2988755882639 41.72,608.2988755882639 41.72,608.2988755882639 Q 40.449999999999996,616.5488755882639 39.97,624.8888755882639 Q 39.48,633.4088755882639 39.82,641.9488755882638 C 40.05,647.7188755882638 40.71,653.4588755882638 41.08,659.2188755882638 C 41.82,670.7488755882638 40.33,682.1488755882638 38.98,693.5688755882638 C 38.309999999999995,699.2388755882638 37.699999999999996,704.9088755882639 37.489999999999995,710.6188755882638 A 135.65,135.65 0.0 0,0 38.089999999999996,727.2388755882638 A 97.0,97.0 0.0 0,1 38.559999999999995,743.3988755882638 A 37.17,37.17 0.0 0,1 37.059999999999995,751.3988755882638 C 36.63999999999999,752.7388755882638 34.879999999999995,755.7488755882638 36.91,756.5988755882638 A 1.15,1.15 0.0 0,0 38.13999999999999,756.4688755882638 A 9.66,9.66 0.0 0,0 41.81999999999999,758.2688755882638 C 44.18999999999999,758.9388755882637 46.61999999999999,759.4188755882637 49.019999999999996,759.9588755882638 C 54.169999999999995,761.1088755882638 59.36,762.1688755882639 64.6,762.8788755882638 A 86.15,86.15 0.0 0,0 79.6,763.7188755882638 A 59.69,59.69 0.0 0,0 86.91,763.0088755882638 C 89.00999999999999,762.6688755882637 91.5,762.4188755882637 93.39999999999999,761.3988755882638 C 95.07,760.4988755882638 95.21999999999998,758.8488755882638 95.11999999999999,757.1188755882638 C 94.97999999999999,754.7488755882638 94.80999999999999,752.3788755882638 94.57,750.0088755882638 A 55.24,55.24 0.0 0,0 91.67999999999999,736.1288755882638 C 90.02999999999999,731.6988755882638 87.32,727.9588755882638 84.67999999999999,724.1288755882638 A 36.11,36.11 0.0 0,1 78.67999999999999,710.7588755882638 A 71.11,71.11 0.0 0,1 77.61,696.0388755882637 C 77.61,690.5388755882637 77.82,685.0388755882637 78.12,679.5588755882637 C 78.71000000000001,668.6988755882637 79.7,657.8688755882637 80.68,647.0488755882637 C 81.68,636.5088755882638 82.68,625.9588755882637 84.56,615.5388755882637 A 142.15,142.15 0.0 0,1 93.56,585.3988755882638 C 97.73,575.5988755882638 102.56,566.0888755882638 107.23,556.5088755882638 L 121.64,526.7488755882638 L 124.91,519.9988755882638 L 126.09,525.2288755882638 A 0.19,0.19 0.0 0,0 126.44,525.2288755882638 Q 129.5,518.1488755882638 132.57,511.0888755882639 L 132.57,511.0888755882639 L 132.57,511.0888755882639 L 132.76,510.66887558826386 A 0.22,0.22 0.0 0,0 132.76,510.50887558826383 Q 133.23,508.9688755882638 133.76,507.44887558826383 A 246.0,246.0 0.0 0,0 155.93,459.75887558826383 Q 158.68,451.68887558826384 160.84,443.43887558826384 C 166.08,448.72887558826386 171.49,454.35887558826386 173.53,461.7088755882638 A 0.19,0.19 0.0 0,0 173.89000000000001,461.7088755882638 C 174.22000000000003,460.4688755882638 174.55,459.2188755882638 174.89000000000001,457.9788755882638 C 179.00000000000003,462.6588755882638 182.89000000000001,467.6888755882638 185.17000000000002,473.5588755882638 C 187.58,479.83887558826376 187.94000000000003,486.6888755882638 187.76000000000002,493.3488755882638 A 115.19,115.19 0.0 0,1 180.32000000000002,530.0588755882637 A 170.0,170.0 0.0 0,1 162.83,563.9588755882638 C 159.46,569.1088755882638 155.83,574.0888755882638 153.07000000000002,579.6388755882638 A 31.61,31.61 0.0 0,0 149.65,596.9588755882638 C 149.97,600.1888755882638 150.65,603.3788755882638 151.29,606.5588755882638 C 151.88,609.5588755882638 152.51,612.6188755882638 153.29,615.5588755882638 C 154.07,618.4988755882639 154.81,621.2688755882639 155.79999999999998,624.0488755882639 L 155.51999999999998,623.6388755882639 C 155.38,623.4388755882638 155.05999999999997,623.6388755882639 155.18999999999997,623.8288755882639 L 156.33999999999997,625.4988755882639 A 53.25,53.25 0.0 0,0 159.54999999999998,632.448875588264 A 45.63,45.63 0.0 0,0 161.98,636.318875588264 C 162.11999999999998,636.508875588264 162.45,636.318875588264 162.31,636.1288755882639 A 48.81,48.81 0.0 0,1 157.31,626.8488755882639 Q 159.95,630.7288755882639 162.61,634.6088755882639 C 164.97000000000003,638.068875588264 167.47000000000003,641.4788755882639 169.53,645.1388755882639 C 173.53,652.2388755882639 174.73,660.4988755882639 176.86,668.2788755882639 A 217.71,217.71 0.0 0,0 184.66000000000003,691.5988755882639 C 186.15000000000003,695.3488755882639 187.76000000000002,699.058875588264 189.44000000000003,702.7288755882639 A 86.3,86.3 0.0 0,1 193.95000000000002,713.9588755882639 A 38.91,38.91 0.0 0,1 195.14000000000001,719.4888755882639 A 27.11,27.11 0.0 0,0 196.14000000000001,724.2988755882639 A 7.7,7.7 0.0 0,0 198.66000000000003,728.0588755882638 A 11.06,11.06 0.0 0,0 203.0,729.9588755882638 C 207.12,730.8588755882638 211.29,731.5788755882638 215.45,732.3188755882638 C 219.60999999999999,733.0588755882638 223.85,733.7588755882639 228.06,734.4088755882639 Q 240.72,736.4088755882639 253.47,737.7488755882639 C 255.10999999999999,737.9288755882638 256.84,738.2188755882639 258.02,736.7488755882639 A 11.58,11.58 0.0 0,0 259.28999999999996,734.5988755882639 C 259.76,733.668875588264 260.28999999999996,732.7388755882639 260.71999999999997,731.808875588264 L 263.71999999999997,726.028875588264 C 264.64,724.238875588264 265.71999999999997,722.468875588264 266.44,720.608875588264 A 5.21,5.21 0.0 0,0 266.28,715.668875588264 A 19.0,19.0 0.0 0,0 262.85999999999996,711.928875588264 A 35.14,35.14 0.0 0,0 254.79999999999995,706.4888755882639 A 37.0,37.0 0.0 0,0 249.23999999999995,704.2888755882639 A 18.82,18.82 0.0 0,0 241.63999999999996,701.8288755882638 A 43.39,43.39 0.0 0,0 235.09999999999997,702.1188755882638 C 232.42999999999998,702.2888755882637 229.98999999999995,701.8988755882638 227.97999999999996,699.9988755882638 A 38.62,38.62 0.0 0,1 223.46999999999997,694.4688755882638 A 85.0,85.0 0.0 0,1 216.46999999999997,682.7188755882638 A 143.13,143.13 0.0 0,1 207.0,656.5088755882638 C 204.35,646.7188755882638 202.28,636.6688755882637 202.39,626.5088755882638 A 90.0,90.0 0.0 0,1 207.17999999999998,599.3088755882637 C 213.09999999999997,581.3088755882637 223.39999999999998,565.2488755882638 234.32999999999998,549.9488755882637 C 245.26,534.6488755882636 257.03999999999996,519.6588755882638 266.09999999999997,503.0388755882638 C 266.26,502.75887558826383 266.4,502.4688755882638 266.55999999999995,502.1788755882638 C 270.7099999999999,502.82887558826377 274.8299999999999,503.76887558826377 278.93999999999994,504.6188755882638 A 96.44,96.44 0.0 0,0 290.3999999999999,506.39887558826376 A 70.55,70.55 0.0 0,0 314.7699999999999,504.08887558826376 L 309.19,513.9588755882638 A 0.19,0.19 0.0 0,0 309.45,514.2088755882638 Q 317.4,509.6188755882639 325.76,505.79887558826385 Q 333.38,502.31887558826384 341.3,499.5188755882639 A 76.56,76.56 0.0 0,1 346.68,531.7688755882638 A 0.19,0.19 0.0 0,0 346.97,531.9288755882637 A 9.93,9.93 0.0 0,0 349.91,528.8488755882637 A 163.43,163.43 0.0 0,1 350.70000000000005,579.8488755882637 C 350.03000000000003,584.5888755882637 349.14000000000004,589.3088755882637 348.05000000000007,593.9788755882637 A 0.19,0.19 0.0 0,0 348.37000000000006,594.1588755882636 A 11.0,11.0 0.0 0,0 350.74000000000007,589.4488755882636 A 209.08,209.08 0.0 0,1 352.2300000000001,645.7588755882635 Q 351.3300000000001,653.9388755882635 349.7800000000001,662.0288755882635 C 349.7800000000001,662.1888755882635 349.9600000000001,662.3688755882636 350.0900000000001,662.2088755882635 L 351.9200000000001,660.0388755882635 A 114.5,114.5 0.0 0,1 351.18000000000006,672.4588755882635 L 348.27000000000004,707.5688755882635 L 346.83000000000004,724.9088755882635 Q 346.47,729.3088755882635 346.1,733.6888755882635 A 49.0,49.0 0.0 0,0 345.88,741.6888755882635 A 28.24,28.24 0.0 0,0 347.88,749.2988755882635 A 34.65,34.65 0.0 0,1 349.88,757.4488755882635 C 350.54,763.1688755882635 350.69,768.9788755882635 351.0,774.7288755882635 C 351.34,781.1488755882634 351.95,787.7288755882635 351.21,794.0988755882635 A 35.56,35.56 0.0 0,1 344.62,810.9588755882638 A 0.18,0.18 0.0 0,0 344.62,811.1888755882638 A 17.0,17.0 0.0 0,1 347.46,826.1888755882638 C 346.46,830.1888755882638 344.82,834.7788755882639 347.2,838.6388755882639 C 349.58,842.4988755882639 354.75,841.5788755882639 358.67,841.5288755882639 A 76.85,76.85 0.0 0,1 375.51,843.1888755882638 C 380.69,844.2888755882639 385.71999999999997,846.1888755882638 391.07,846.3088755882638 A 78.27,78.27 0.0 0,0 399.45,845.7388755882638 L 408.15999999999997,844.8988755882638 L 412.15999999999997,844.5088755882638 A 17.0,17.0 0.0 0,0 415.65999999999997,844.0688755882637 C 417.65999999999997,843.4188755882637 417.46999999999997,841.1288755882637 417.46,839.4088755882638 A 144.25,144.25 0.0 0,0 416.35999999999996,822.4088755882638 A 39.77,39.77 0.0 0,0 413.44999999999993,810.4088755882638 A 14.74,14.74 0.0 0,0 405.3499999999999,802.6688755882637 C 403.0299999999999,801.6688755882637 400.6199999999999,800.8288755882637 399.0899999999999,798.6688755882637 A 17.25,17.25 0.0 0,1 396.7,791.9588755882638 A 148.24,148.24 0.0 0,1 394.26,774.9588755882638 C 392.32,752.5388755882639 394.40999999999997,729.9588755882638 395.14,707.5588755882638 C 395.88,684.6988755882638 393.77,661.7988755882639 395.14,638.9488755882638 C 395.14,638.2388755882638 395.24,637.5188755882639 395.28999999999996,636.7988755882639 C 395.28999999999996,635.3288755882638 395.28999999999996,633.8688755882639 395.35999999999996,632.4088755882639 C 395.41999999999996,631.1488755882639 395.52,629.8788755882639 395.66999999999996,628.6188755882639 L 395.66999999999996,628.5488755882639 C 395.71999999999997,620.3988755882639 396.05999999999995,612.2388755882639 396.55999999999995,604.0988755882638 C 397.29999999999995,592.1688755882639 398.17999999999995,580.2188755882638 399.44999999999993,568.3288755882638 C 400.63999999999993,557.2288755882638 402.37999999999994,546.1188755882638 405.73999999999995,535.4388755882638 A 95.21,95.21 0.0 0,1 412.00999999999993,520.1288755882639 C 414.5399999999999,515.2688755882639 417.49999999999994,510.4088755882639 421.62999999999994,506.7188755882639 C 425.75999999999993,503.02887558826393 431.42999999999995,500.8088755882639 436.30999999999995,497.9088755882639 A 96.21,96.21 0.0 0,0 447.30999999999995,490.3088755882639 A 23.66,23.66 0.0 0,1 461.30999999999995,497.2588755882639 A 0.18,0.18 0.0 0,0 461.61999999999995,497.1788755882639 C 461.78,496.77887558826393 461.93999999999994,496.3788755882639 462.09,495.9788755882639 A 51.46,51.46 0.0 0,1 468.81,511.4888755882639 C 469.13,512.7988755882639 469.33,514.1388755882639 469.63,515.4888755882638 C 469.75,516.0488755882637 470.13,517.0788755882638 470.88,517.0088755882638 A 361.32,361.32 0.0 0,1 479.0,554.1888755882638 C 479.0,554.3688755882638 479.26,554.3388755882638 479.35,554.1888755882638 L 480.98,552.0588755882638 A 344.41,344.41 0.0 0,1 482.73,592.8088755882638 A 0.19,0.19 0.0 0,0 483.05,592.9388755882638 C 483.73,592.2988755882639 484.40000000000003,591.6488755882639 485.05,590.9988755882638 Q 489.16,616.4388755882638 491.46000000000004,642.1288755882638 Q 492.12000000000006,649.3288755882638 492.62000000000006,656.5488755882637 A 0.18,0.18 0.0 0,0 492.75000000000006,656.7188755882637 Q 492.90000000000003,672.1288755882637 493.06000000000006,687.5288755882636 Q 493.13000000000005,695.7388755882637 493.2200000000001,703.9588755882636 C 493.2800000000001,709.0188755882635 493.12000000000006,714.1588755882636 493.9500000000001,719.1788755882636 C 494.67000000000013,723.5488755882636 496.1600000000001,728.1788755882636 499.9500000000001,730.7788755882636 A 32.35,32.35 0.0 0,1 502.9500000000001,732.8388755882636 A 11.16,11.16 0.0 0,1 505.1600000000001,735.4688755882636 A 31.13,31.13 0.0 0,1 507.9000000000001,741.7588755882635 Q 510.5300000000001,749.2288755882636 512.5600000000001,756.9088755882635 C 513.71,761.2788755882635 514.37,766.1688755882635 517.0100000000001,769.9088755882635 C 518.3100000000001,771.7688755882635 520.1500000000001,773.0588755882635 521.7200000000001,774.6588755882635 A 21.8,21.8 0.0 0,1 525.7200000000001,780.8088755882635 A 159.0,159.0 0.0 0,1 531.7200000000001,795.6188755882634 C 532.1600000000002,796.8488755882635 532.5800000000002,798.0788755882635 532.9900000000001,799.3088755882635 A 0.19,0.19 0.0 0,0 533.3400000000001,799.3088755882635 A 43.49,43.49 0.0 0,0 534.9100000000002,803.8488755882635 A 0.19,0.19 0.0 0,0 535.2700000000002,803.8488755882635 L 535.7400000000002,802.0888755882635 C 538.6400000000002,809.7188755882635 547.3200000000003,812.9888755882635 554.7400000000002,814.5288755882635 C 566.0200000000002,816.8788755882636 577.6400000000002,817.3188755882635 589.1400000000002,817.0688755882635 C 595.0100000000002,816.9488755882635 600.8700000000002,816.6288755882634 606.7300000000002,816.2688755882635 L 611.0300000000002,815.9888755882636 A 19.0,19.0 0.0 0,0 614.6400000000002,815.5988755882636 C 616.6400000000002,815.0888755882636 617.9000000000002,813.5988755882636 618.9700000000003,811.8788755882636 A 22.88,22.88 0.0 0,1 620.8100000000003,809.1488755882635 C 621.5100000000003,808.3188755882635 622.4200000000003,807.6888755882635 623.0900000000003,806.8188755882635 C 624.5500000000003,804.9388755882635 623.4500000000003,802.8188755882635 622.4500000000003,801.0088755882635 A 41.0,41.0 0.0 0,0 614.2200000000003,790.6288755882636 A 50.14,50.14 0.0 0,0 590.4700000000003,778.7288755882636 C 585.3600000000002,777.7288755882636 580.0000000000002,777.7288755882636 575.0800000000003,775.8388755882636 C 570.1600000000003,773.9488755882636 566.7900000000003,770.2588755882635 563.9800000000002,766.1088755882636 C 561.1700000000002,761.9588755882636 558.5900000000003,757.1088755882636 556.0500000000003,752.6088755882636 C 553.2600000000003,747.6088755882636 550.5700000000003,742.6088755882636 548.1500000000003,737.3988755882635 A 135.0,135.0 0.0 0,1 537.8300000000003,705.3988755882635 C 533.6500000000003,683.4688755882636 534.2000000000003,660.9688755882636 535.2600000000002,638.7688755882635 C 535.3900000000002,636.0588755882635 535.5300000000002,633.3388755882636 535.6600000000002,630.6288755882636 A 0.18,0.18 0.0 0,0 535.3600000000002,630.4888755882636 Q 536.2700000000002,616.9488755882636 537.0600000000003,603.3888755882635 Q 538.0600000000003,586.0088755882635 538.7700000000003,568.5888755882636 Q 539.4800000000004,551.1688755882636 539.9800000000004,533.5888755882636 C 540.1400000000003,527.8888755882635 540.4900000000004,522.1388755882635 540.1200000000003,516.4488755882636 A 46.66,46.66 0.0 0,0 538.8800000000003,508.44887558826366 A 29.72,29.72 0.0 0,1 537.6800000000003,500.13887558826366 C 537.9100000000003,494.4988755882637 540.2900000000003,489.13887558826366 542.2800000000003,483.96887558826364 Q 545.4000000000003,475.8088755882636 548.5300000000003,467.65887558826364 L 549.8800000000003,464.15887558826364 A 0.14,0.14 0.0 0,0 549.8800000000003,464.09887558826364 L 549.8800000000003,464.09887558826364 L 550.0800000000004,463.59887558826364 A 0.15,0.15 0.0 0,0 550.0200000000004,463.40887558826364 A 25.0,25.0 0.0 0,0 550.3900000000004,460.1888755882636 L 568.2600000000004,410.9288755882636 C 571.9100000000004,400.85887558826363 576.4500000000005,390.5088755882636 575.6700000000004,379.5588755882636 C 575.2900000000004,374.1888755882636 573.9600000000004,368.8788755882636 574.1000000000004,363.46887558826364 A 26.3,26.3 0.0 0,1 578.3200000000004,350.31887558826367 C 580.8300000000004,346.21887558826364 583.9200000000004,342.50887558826366 586.3900000000004,338.37887558826367 A 32.23,32.23 0.0 0,0 589.1500000000004,332.6788755882637 L 589.6200000000005,331.1788755882637 A 11.0,11.0 0.0 0,1 590.5500000000004,333.2388755882637 L 592.5500000000004,337.6688755882637 C 592.6200000000005,337.81887558826367 592.8500000000004,337.75887558826366 592.8900000000004,337.6188755882637 C 598.8100000000004,318.01887558826365 616.6100000000005,300.7188755882637 613.8000000000004,279.07887558826366 A 12.51,12.51 0.0 0,0 617.5900000000004,283.78887558826364 C 617.7100000000004,283.8788755882636 617.8600000000004,283.78887558826364 617.8700000000003,283.6188755882636 A 206.46,206.46 0.0 0,1 621.2500000000003,252.61887558826362 Q 622.6400000000003,245.11887558826362 624.6000000000004,237.72887558826363 C 624.9000000000003,236.60887558826363 625.2100000000004,235.49887558826364 625.5200000000003,234.37887558826364 A 9.49,9.49 0.0 0,1 626.1000000000004,232.37887558826364 C 626.1800000000004,232.31887558826364 626.2200000000004,232.27887558826365 626.2300000000004,232.24887558826364 A 0.49,0.49 0.0 0,0 626.4100000000003,232.29887558826366 C 626.9100000000003,232.39887558826365 627.2900000000003,232.88887558826366 627.9100000000003,232.92887558826365 A 2.8,2.8 0.0 0,0 629.3300000000003,232.59887558826364 A 0.19,0.19 0.0 0,0 629.4200000000003,232.42887558826365 C 629.92,220.7288755882639 637.87,210.09887558826387 636.72,198.10887558826388"/>
</svg>
