<?xml version="1.0" ?>
<svg xmlns="http://www.w3.org/2000/svg" xmlns:ev="http://www.w3.org/2001/xml-events" xmlns:xlink="http://www.w3.org/1999/xlink" baseProfile="full" height="591" preserveAspectRatio="xMidYMid" transform="scale(0.2808988764044944 0.2808988764044944) translate(-178.0 -295.5)" version="1.1" viewBox="0 0 356 591" width="356">
	<defs/>
	<path d="M 73.74691504471875,0.8223081659623499 C 74.90460334471875,1.4679695459623499 75.63780593471874,2.29810560596235 76.37100852471875,3.9583777259623503 C 80.73163445471874,13.13599305596235 81.50342665471875,14.42731581596235 90.10890968471874,26.27981400596235 C 100.29656672471874,40.39212702596235 106.70244198471873,51.091658465962354 109.59666273471873,59.02406970596235 C 113.06972763471873,68.47839705596235 115.26933540471873,71.24551725596235 126.03583659471873,79.77747120596234 C 136.18490402471875,87.84823845596235 137.53554037471875,88.44778116596234 146.79704677471875,88.95508653596234 C 155.36394019471874,89.37015456596234 155.94278434471875,89.73910392596234 166.70928553471876,100.30027935596233 C 172.11183093471877,105.55780773596233 178.98078151471876,111.23040414596234 185.42524638471875,115.70391513596233 C 188.47382557471875,117.82537395596233 192.10124891471875,120.50025681596233 193.49047487471876,121.65322356596234 C 202.52044361471874,129.17056677596233 212.24502533471875,140.8847089559623 213.78860973471876,146.14223733596234 C 215.02347725471876,150.38515497596234 216.18116555471877,152.36825778596233 220.50320187471877,157.76414217596235 C 225.78997844471877,164.35911198596236 229.07009529471878,169.47828435596236 233.50790044471876,178.19471298596235 C 238.44737052471876,187.83351501596235 240.87851595471875,191.38465260596234 244.15863280471876,193.73670477596235 C 246.35824057471876,195.35085822596236 247.40016004471877,196.50382497596235 249.44540937471876,199.68601320596235 C 253.84462491471876,206.69605104596235 257.0861521547188,214.49010627596235 258.3596092847188,221.26955076596235 C 258.78409499471877,223.43712825596236 259.2857599247188,226.15812978596236 259.5172975847188,227.31109653596235 C 260.48203783471877,232.75309959596234 264.6497157147188,239.80925610596236 269.3576481347188,243.91381773596234 C 270.4381572147188,244.92842847596233 274.02699094471876,247.41883665596234 277.2685181847188,249.49417680596233 C 288.5752739147188,256.64257065596234 293.3217959447188,261.11608164596237 297.4122946047188,268.54118751596235 C 304.9372685547188,282.05395782596236 305.40034387471877,290.21696241596237 298.9944686147188,296.02791483596235 C 297.5666530447188,297.36535626596236 294.4023050247188,299.30234040596235 290.5433440247188,301.28544321596235 C 287.1474583447188,303.03795267596234 283.2499077347188,305.11329282596233 281.8606817747188,305.94342888596236 C 278.1560792147188,308.15712504596235 274.2199389947188,309.72515982596235 270.5153364347188,310.5091772159624 C 266.8107338747188,311.29319460596236 265.30573908471877,312.0772119959624 264.1480507847188,313.8297214559624 C 262.9903624847188,315.5822309159624 262.7974144347188,317.6575710659624 263.5306170247188,320.9781153059624 C 264.7268949347188,326.60459304596236 266.30906894471883,330.10961196596236 269.5505961847188,334.0758175859624 L 272.56058576471884,337.7653111859624 L 273.75686367471883,344.9137050359624 C 276.61249481471884,362.1159689459624 281.01171035471884,379.64106354596237 285.33374667471884,391.2629683859624 C 293.8234608747188,414.04559136596237 299.1488270547188,435.9058409459624 298.26126602471885,444.2533202159624 C 297.64383226471887,450.01815396596237 298.2226764147189,452.6007994859624 301.11689716471886,456.98207313596237 C 303.2779153247189,460.2564987059624 303.23932571471886,461.5478214659624 300.96253872471885,462.88526289596234 C 298.99446861471887,464.03822964596236 298.60857251471884,465.0989590559623 298.99446861471887,468.37338462596233 C 299.45754393471884,472.5240649259623 302.4289439047189,477.3665252759623 305.43893348471886,478.9345600559623 C 307.63854125471886,480.13364547596234 308.21738540471887,481.65556158596235 307.90866852471885,485.29893651596234 C 307.48418281471885,489.72632883596236 308.75763994471885,492.17061834596234 313.77428924471883,496.73636667596236 C 317.98055673471885,500.56421628596235 319.7942684047188,504.99160860596237 320.45029177471883,513.0162571859623 C 320.68182943471885,516.3829200959623 321.2220839747188,519.3806336459623 322.14823461471883,522.6550592159623 C 326.62462937471884,538.6582377059623 338.27869159471885,562.2248780759624 351.3605693847188,581.7330754859623 C 353.6759459847188,585.2380944059623 355.5282472647188,588.1435706159623 355.4510680447188,588.2358079559623 C 355.3738888247188,588.3280452959623 326.6632189847188,588.6508759859623 291.6624427147188,588.8814693359623 C 256.6616664447188,589.1581813559623 205.0287682647188,589.5732493859623 176.8969425747188,589.8038427359622 C 117.54612239471878,590.3111481059623 54.79941653471877,590.4033854459623 35.46602192471879,589.9421987459623 L 21.95965842471879,589.6654867259623 L 21.92106881471879,583.3933476059623 C 21.84388959471879,573.2011215359623 20.10735714471879,558.6737404859623 18.44800391471879,554.3847041759623 C 17.599032494718788,552.2632453559622 17.52185327471879,551.7098213159622 17.90774937471879,550.3723798859622 C 18.13928703471879,549.5422438259623 18.60236235471879,548.5737517559622 18.91107923471879,548.2970397359622 C 20.10735714471879,547.0979543159623 19.56710260471879,544.8842581559622 17.328905224718792,541.8865446059623 C 15.322245504718792,539.2116617459623 15.206476674718791,538.8888310559623 15.206476674718791,536.5828975559623 C 15.206476674718791,534.6459134159622 15.55378316471879,533.3545906559623 16.94300912471879,530.0340464159623 C 18.332235084718793,526.6673835059623 18.67954157471879,525.4682980859623 18.67954157471879,523.3929579359623 C 18.67954157471879,520.7641937459623 18.486593524718792,520.2568883759623 15.70814160471879,515.3221906859623 C 13.31558578471879,511.07927304596234 13.58571305471879,505.8217446659623 17.02018834471879,489.7263288359623 C 19.91440909471879,476.2596771959623 21.22645583471879,468.6500966459623 21.76671037471879,462.1934828459623 C 22.26837530471879,456.29029308596233 22.114016864718792,453.2003421959623 20.99491817471879,447.5277457859623 C 19.87581948471879,441.9012680459623 19.33556494471879,432.72365271596226 19.79864026471879,427.0049376359623 C 20.261715584718793,420.96339186596225 19.760050654718793,413.63052333596227 18.64095196471879,410.26386042596226 C 16.634292244718793,404.4067893359623 16.402754584718792,403.20770391596227 16.36416497471879,399.7026849959623 C 16.36416497471879,397.7657008559623 16.63429224471879,394.95246198596226 16.943009124718788,393.47666454596225 C 17.251726004718787,392.04698577596224 17.521853274718787,389.60269626596227 17.521853274718787,388.12689882596226 C 17.521853274718787,385.5442533059623 17.444674054718785,385.31365995596224 16.016858484718785,383.69950650596223 C 14.203146814718785,381.67028502596224 13.933019544718785,380.5173182759622 14.473274084718785,377.1506553659622 C 15.052118234718785,373.5995177759622 14.280326034718785,371.43194028596224 12.157897484718784,370.4173295459622 C 9.688162444718785,369.2643627959622 9.881110494718785,368.6648200859622 13.392765004718784,365.9438185559622 C 17.097367564718784,363.1305796859622 19.142616894718785,360.4556968259622 18.988258454718785,358.7493060359622 C 18.872489624718785,357.6885766259622 18.756720794718785,357.5963392859622 16.981598734718787,357.7346952959622 C 14.318915644718787,357.9652886459622 13.392765004718786,357.5502206159622 12.698152024718787,355.9821858359622 C 11.308926064718786,352.7999976059622 12.235076704718788,349.84840272596216 15.901089654718788,345.5132477459622 L 18.56377274471879,342.3771781859622 L 18.79531040471879,332.46166413596217 C 18.94966884471879,327.0196610759622 19.37415455471879,317.51921505596215 19.79864026471879,311.3393132759622 C 20.45466363471879,300.4553071559622 20.531842854718793,300.13247646596216 21.41940388471879,299.3945777459622 C 23.31029477471879,297.8726616359622 25.239775274718788,294.92106675596216 26.05015708471879,292.3845399059622 C 27.32361421471879,288.2799782759622 26.97630772471879,283.9909419659622 24.89246878471879,278.9640069359622 C 22.84721945471879,274.07542791596217 22.92439867471879,273.3836478659622 25.741440204718792,266.1430166759622 C 29.29168432471879,257.1498760259622 30.603731064718794,250.2781941959622 30.912447944718792,238.84076403596217 C 31.143985604718793,230.67775944596215 30.68091028471879,227.12662185596216 28.712840174718792,221.82297480596216 C 27.169255774718792,217.58005716596216 26.899128504718792,214.12115691596216 27.70951031471879,207.80289912596217 C 29.06014666471879,196.96501167596216 28.211175244718792,189.17095644596216 24.159266194718793,175.88877948596217 C 22.191196084718793,169.38604701596216 16.016858484718792,154.76642862596216 10.961619574718792,144.75867723596218 C 5.4818949547187925,133.92078978596217 5.520484564718792,133.96690845596217 3.6681832847187925,127.3258199759622 C 1.1212690247187929,118.1020859759622 0.0407599447187927,111.0459294659622 0.002170334718792867,103.2518742359622 C -0.036419275281207135,95.7345310259622 0.42665604471879287,92.9674108259622 2.4333157647187926,89.41627323596221 C 5.095998854718792,84.61993155596221 8.877780634718793,83.9742701759622 16.364164974718793,86.9258650559622 C 23.040167504718795,89.6007479159622 29.175915494718794,93.9359028959622 31.491292094718794,97.6715151659622 C 32.34026351471879,99.0550752659622 32.919107664718794,99.5623806359622 33.497951814718796,99.4701432959622 C 35.466021924718795,99.1473126059622 36.5079413947188,93.4285975259622 38.9390868247188,70.0464318359622 C 40.8299777147188,51.5528451659622 42.2577932847188,42.790297865962195 44.7661179347188,33.6588012059622 C 45.9623958447188,29.3236462259622 48.2005932247188,24.8040165659622 52.0595542247188,18.8547081359622 C 54.297751604718805,15.395807885962197 56.9990243047188,10.645584875962196 58.1181229947188,8.109058025962197 C 60.4334995947188,2.759292305962197 61.552598284718805,1.6524442259621968 65.6045073347188,0.6378334859621975 C 69.19334106471881,-0.28453991403780254 71.81743454471881,-0.1923025740378025 73.7469150447188,0.8223081659621975 L 73.74691504471875,0.8223081659623499"/>
</svg>
