<?xml version="1.0" ?>
<svg xmlns="http://www.w3.org/2000/svg" xmlns:ev="http://www.w3.org/2001/xml-events" xmlns:xlink="http://www.w3.org/1999/xlink" baseProfile="full" height="231" transform="scale(0.43478260869565216 0.43478260869565216) translate(-115.0 -115.5)" version="1.1" viewBox="0 0 230 231" width="230">
	<defs/>
	<path d="M 214.4059834903754,73.17948103516078 C 196.3459834903754,64.55948103516077 186.2859834903754,63.939481035160775 174.4059834903754,63.52948103516078 A 147.59,147.59 0.0 0,0 141.9459834903754,65.99948103516077 C 131.8859834903754,67.84948103516076 131.4759834903754,66.20948103516076 121.6259834903754,64.99948103516077 C 111.77598349037541,63.789481035160776 112.1759834903754,62.52948103516077 111.1559834903754,61.09948103516077 C 110.33598349037541,59.44948103516077 110.5359834903754,58.01948103516077 108.0759834903754,57.60948103516077 C 105.61598349037541,57.199481035160765 102.3259834903754,58.019481035160766 102.94598349037541,55.95948103516077 C 103.56598349037542,53.899481035160775 105.81598349037542,53.08948103516077 102.94598349037541,52.46948103516077 C 100.0759834903754,51.849481035160764 97.39598349037541,52.46948103516077 97.60598349037541,50.82948103516077 C 97.8159834903754,49.18948103516077 98.0159834903754,47.339481035160766 95.75598349037541,47.339481035160766 C 93.49598349037542,47.339481035160766 90.62598349037542,48.339481035160766 89.1859834903754,48.339481035160766 A 5.45,5.45 0.0 0,1 84.6759834903754,46.28948103516077 C 83.4459834903754,44.63948103516077 81.3859834903754,45.28948103516077 79.3359834903754,44.43948103516077 C 77.3359834903754,43.81948103516077 75.8459834903754,40.739481035160765 76.2559834903754,39.309481035160765 C 76.6659834903754,38.06948103516076 76.6659834903754,36.839481035160766 74.6159834903754,36.839481035160766 C 72.5659834903754,36.839481035160766 73.3859834903754,36.839481035160766 71.5359834903754,34.589481035160766 C 69.6859834903754,32.339481035160766 69.6859834903754,31.709481035160767 66.6059834903754,31.709481035160767 C 63.52598349037539,31.709481035160767 63.945983490375404,31.509481035160768 62.0959834903754,29.859481035160766 C 60.2459834903754,28.209481035160763 59.00598349037541,27.19948103516077 57.1659834903754,25.75948103516077 C 55.3159834903754,24.52948103516077 54.7059834903754,22.469481035160772 53.265983490375405,21.23948103516077 A 36.9,36.9 0.0 0,0 48.545983490375406,17.339481035160773 C 46.28598349037541,15.69948103516077 44.2359834903754,15.28948103516077 40.945983490375404,15.489481035160772 A 39.64,39.64 0.0 0,1 34.9959834903754,15.289481035160772 C 33.765983490375405,15.289481035160772 32.3259834903754,13.289481035160772 31.095983490375403,11.799481035160772 C 29.865983490375406,10.309481035160772 28.635983490375406,9.999481035160768 26.375983490375408,8.719481035160769 C 24.11598349037541,7.439481035160769 20.42598349037541,3.9994810351607684 16.935983490375406,1.1294810351607683 C 13.235983490375405,-1.7505189648392316 13.235983490375405,1.7394810351607681 13.235983490375405,2.1294810351607683 A 1.31,1.31 0.0 0,1 12.005983490375405,3.3794810351607683 C 11.385983490375406,3.3794810351607683 11.385983490375406,4.609481035160767 11.385983490375406,5.6394810351607685 C 11.385983490375406,6.669481035160768 11.185983490375406,6.259481035160768 9.545983490375406,7.279481035160767 C 7.695983490375407,8.279481035160767 8.925983490375407,9.949481035160767 9.545983490375406,10.769481035160767 C 10.165983490375405,11.589481035160768 10.155983490375405,11.589481035160768 12.625983490375406,15.289481035160767 A 22.22,22.22 0.0 0,1 15.705983490375404,23.49948103516077 C 17.545983490375406,24.72948103516077 16.525983490375406,26.579481035160768 15.285983490375404,25.95948103516077 C 14.045983490375404,25.339481035160773 13.005983490375405,26.36948103516077 12.005983490375405,25.99948103516077 C 11.005983490375405,25.62948103516077 11.185983490375405,24.99948103516077 9.955983490375404,25.58948103516077 C 8.725983490375404,25.99948103516077 7.695983490375405,25.79948103516077 7.695983490375405,24.58948103516077 C 7.695983490375405,23.37948103516077 6.0559834903754055,24.78948103516077 4.825983490375405,24.37948103516077 C 3.595983490375404,23.96948103516077 2.7659834903754046,23.14948103516077 1.7459834903754046,23.55948103516077 C 0.5059834903754052,23.90948103516077 0.30598349037540523,25.13948103516077 0.09598349037540525,27.39948103516077 C -0.11401650962459474,29.659481035160766 -0.3140165096245947,30.06948103516077 3.385983490375405,33.75948103516077 C 7.085983490375406,37.449481035160765 9.745983490375405,39.50948103516077 14.265983490375406,43.409481035160766 C 18.785983490375408,47.309481035160765 19.185983490375406,48.74948103516077 20.015983490375408,52.239481035160765 A 14.07,14.07 0.0 0,1 19.015983490375408,61.47948103516077 C 17.785983490375408,64.34948103516076 19.63598349037541,63.529481035160764 20.86598349037541,66.60948103516077 C 22.09598349037541,69.68948103516077 21.68598349037541,70.29948103516077 23.73598349037541,72.14948103516078 C 25.78598349037541,73.99948103516078 24.55598349037541,74.14948103516078 25.37598349037541,77.07948103516078 C 26.005983490375407,79.99948103516077 25.345983490375406,80.99948103516077 28.005983490375407,87.99948103516077 C 30.665983490375407,94.99948103516077 37.445983490375404,99.69948103516077 42.00598349037541,100.71948103516077 C 46.5259834903754,101.54948103516077 46.725983490375405,105.44948103516077 48.365983490375406,108.10948103516077 C 50.21598349037541,110.77948103516077 50.42598349037541,113.24948103516077 55.14598349037541,116.73948103516076 A 19.58,19.58 0.0 0,1 62.53598349037541,125.55948103516077 C 63.53598349037541,127.81948103516078 64.5359834903754,130.89948103516076 66.4359834903754,133.15948103516075 C 68.33598349037541,135.41948103516074 75.4359834903754,141.36948103516076 78.13598349037541,143.21948103516075 C 80.83598349037541,145.06948103516075 81.8259834903754,146.49948103516076 83.67598349037542,147.93948103516075 C 85.52598349037542,149.37948103516075 87.16598349037541,153.26948103516077 88.19598349037541,155.73948103516076 C 89.22598349037541,158.20948103516076 89.83598349037541,161.27948103516076 91.47598349037541,167.43948103516075 C 93.3259834903754,173.59948103516075 94.76598349037542,185.90948103516075 95.17598349037542,189.19948103516074 C 95.58598349037541,192.48948103516074 97.17598349037542,197.60948103516074 96.40598349037542,201.50948103516075 C 95.78598349037541,205.40948103516075 95.78598349037541,208.89948103516073 94.14598349037541,211.77948103516076 C 92.50598349037541,214.65948103516078 91.0059834903754,213.99948103516076 88.1659834903754,213.99948103516076 C 85.32598349037539,213.99948103516076 84.26598349037539,213.78948103516075 79.7459834903754,219.94948103516074 C 75.2259834903754,226.10948103516074 83.6459834903754,222.20948103516074 85.0859834903754,222.20948103516074 C 86.3159834903754,222.20948103516074 86.3159834903754,222.61948103516073 87.54598349037539,223.84948103516072 C 88.77598349037538,225.0794810351607 91.2459834903754,224.25948103516072 95.14598349037539,223.43948103516072 C 98.83598349037538,222.61948103516073 95.14598349037539,223.43948103516072 96.98598349037539,223.43948103516072 C 98.82598349037539,223.43948103516072 97.98598349037539,225.0794810351607 101.30598349037538,223.22948103516072 C 104.37598349037538,221.3894810351607 101.71598349037538,219.3294810351607 101.91598349037538,217.4894810351607 C 102.11598349037538,215.6494810351607 102.73598349037538,214.19948103516072 103.91598349037538,213.78948103516072 C 105.09598349037539,213.37948103516072 106.58598349037538,211.93948103516072 107.20598349037539,209.47948103516072 C 107.82598349037539,207.0194810351607 107.61598349037538,206.6094810351607 108.43598349037539,205.5794810351607 C 109.2559834903754,204.5494810351607 109.43598349037539,204.75948103516072 109.43598349037539,201.0594810351607 C 109.43598349037539,197.5694810351607 109.6359834903754,194.6994810351607 109.43598349037539,193.2594810351607 C 109.2259834903754,192.0294810351607 108.1959834903754,187.3094810351607 107.78598349037539,184.2594810351607 C 107.58598349037538,181.17948103516068 106.14598349037539,168.6594810351607 105.53598349037539,165.3794810351607 C 104.92598349037539,162.0994810351607 105.12598349037539,160.0394810351607 105.94598349037538,162.7094810351607 A 32.67,32.67 0.0 0,1 107.17598349037539,168.2494810351607 C 107.78598349037539,171.5294810351607 107.78598349037539,174.1994810351607 109.17598349037539,178.9194810351607 C 110.40598349037539,183.64948103516068 113.69598349037538,194.52948103516067 114.7159834903754,197.8094810351607 A 31.39,31.39 0.0 0,1 116.56598349037539,205.8094810351607 C 116.77598349037538,208.6794810351607 115.7459834903754,210.7294810351607 115.56598349037539,213.6094810351607 C 115.38598349037538,216.48948103516074 112.07598349037539,216.2694810351607 110.02598349037538,216.47948103516072 C 107.97598349037537,216.68948103516072 107.97598349037538,217.09948103516072 107.35598349037538,218.3294810351607 C 106.73598349037538,219.5594810351607 106.35598349037538,219.3294810351607 103.45598349037537,222.6394810351607 C 100.55598349037537,225.94948103516072 103.45598349037537,227.3594810351607 103.45598349037537,227.3594810351607 A 12.0,12.0 0.0 0,0 104.89598349037537,228.5894810351607 A 10.26,10.26 0.0 0,0 106.74598349037537,229.4094810351607 C 106.74598349037537,229.4094810351607 108.74598349037537,231.2594810351607 112.74598349037537,230.4094810351607 C 116.64598349037537,229.7894810351607 116.64598349037537,227.9394810351607 118.49598349037537,227.32948103516068 C 120.13598349037537,226.70948103516068 123.21598349037536,229.17948103516068 124.65598349037536,224.45948103516068 C 126.09598349037536,219.73948103516068 127.3759834903754,221.99948103516076 128.0059834903754,221.99948103516076 C 128.6359834903754,221.99948103516076 129.2359834903754,221.17948103516076 130.0059834903754,219.12948103516075 C 130.6259834903754,217.12948103516075 130.6259834903754,216.24948103516076 129.0059834903754,214.60948103516074 C 127.1559834903754,212.96948103516075 128.1859834903754,210.91948103516074 128.5959834903754,206.60948103516074 C 129.0059834903754,202.29948103516074 129.4159834903754,203.31948103516075 130.4359834903754,202.90948103516075 C 131.45598349037542,202.49948103516076 131.67598349037542,200.64948103516076 130.4359834903754,199.62948103516075 C 129.1959834903754,198.60948103516074 131.26598349037542,196.13948103516074 129.4359834903754,193.46948103516075 C 127.4359834903754,190.79948103516077 127.1759834903754,188.12948103516075 126.35598349037541,186.07948103516077 C 125.53598349037541,184.02948103516079 126.14598349037541,181.14948103516076 125.94598349037541,178.68948103516078 C 125.74598349037541,176.2294810351608 124.71598349037541,170.06948103516078 124.71598349037541,166.77948103516079 C 124.71598349037541,163.4894810351608 124.0959834903754,162.46948103516078 123.89598349037541,160.00948103516077 C 123.68598349037542,157.3394810351608 122.89598349037541,151.00948103516077 124.50598349037541,151.00948103516077 C 126.35598349037541,151.00948103516077 127.99598349037541,150.18948103516078 129.4359834903754,151.20948103516076 C 130.6659834903754,152.20948103516076 132.92598349037542,151.82948103516077 136.0059834903754,152.84948103516075 C 139.08598349037538,153.86948103516073 141.7459834903754,152.43948103516075 146.4759834903754,151.20948103516076 C 151.1959834903754,150.20948103516076 148.7259834903754,151.20948103516076 152.2159834903754,151.41948103516077 C 155.70598349037542,151.62948103516078 158.3759834903754,148.74948103516078 159.4059834903754,148.53948103516078 A 4.15,4.15 0.0 0,1 162.6859834903754,149.77948103516079 C 163.5059834903754,150.59948103516078 163.9159834903754,152.02948103516079 165.3559834903754,154.0894810351608 C 166.7959834903754,156.1494810351608 169.2559834903754,159.4194810351608 170.8959834903754,162.2994810351608 A 17.23,17.23 0.0 0,1 172.9559834903754,168.8694810351608 C 173.15598349037538,169.8694810351608 173.5659834903754,172.3594810351608 173.77598349037538,174.40948103516078 A 20.92,20.92 0.0 0,1 173.36598349037538,180.7694810351608 C 172.9559834903754,182.2094810351608 170.8959834903754,185.0794810351608 169.6659834903754,187.5494810351608 C 168.4359834903754,190.0194810351608 164.5359834903754,194.1094810351608 162.8959834903754,195.3494810351608 C 161.25598349037537,196.58948103516082 161.4559834903754,196.1694810351608 158.99598349037538,197.1894810351608 C 156.53598349037537,198.20948103516082 156.3259834903754,197.39948103516082 154.68598349037538,197.5994810351608 C 153.04598349037536,197.7994810351608 149.96598349037538,199.6594810351608 147.2959834903754,201.70948103516082 C 144.6259834903754,203.75948103516083 146.8859834903754,204.78948103516083 147.49598349037538,204.78948103516083 C 148.10598349037537,204.78948103516083 148.72598349037537,205.39948103516085 148.11598349037538,206.01948103516082 C 147.5059834903754,206.6394810351608 148.93598349037538,207.6594810351608 150.1659834903754,207.86948103516082 A 6.0,6.0 0.0 0,0 152.6259834903754,208.47948103516083 C 154.6859834903754,208.88948103516083 155.70598349037542,208.27948103516084 156.3259834903754,207.65948103516084 C 157.1459834903754,207.04948103516082 157.55598349037538,208.47948103516083 158.58598349037538,208.27948103516084 A 18.93,18.93 0.0 0,1 162.68598349037538,207.65948103516084 A 10.3,10.3 0.0 0,0 168.02598349037538,205.65948103516084 A 7.34,7.34 0.0 0,0 171.30598349037538,200.52948103516084 C 171.71598349037538,198.52948103516084 173.77598349037538,196.82948103516085 175.8259834903754,194.15948103516084 C 177.8759834903754,191.48948103516082 178.49598349037538,191.90948103516084 180.3459834903754,189.43948103516084 C 182.19598349037543,186.96948103516084 183.42598349037542,185.53948103516083 186.0859834903754,181.84948103516084 C 188.7459834903754,178.15948103516084 187.9359834903754,175.47948103516083 188.3459834903754,171.37948103516084 A 15.2,15.2 0.0 0,0 186.0859834903754,162.13948103516083 A 20.0,20.0 0.0 0,1 183.42598349037542,155.7794810351608 C 182.8059834903754,153.7794810351608 183.8359834903754,152.07948103516082 184.03598349037543,150.23948103516082 C 184.23598349037545,148.39948103516082 185.03598349037543,146.94948103516083 185.67598349037542,148.58948103516082 C 186.3159834903754,150.2294810351608 186.0859834903754,151.66948103516083 185.26598349037542,152.48948103516082 C 184.44598349037543,153.30948103516081 185.06598349037543,154.95948103516082 185.06598349037543,154.95948103516082 C 185.47598349037543,153.72948103516083 187.32598349037542,153.10948103516083 187.32598349037542,153.51948103516082 A 9.84,9.84 0.0 0,1 186.32598349037542,156.79948103516082 C 185.50598349037543,158.64948103516082 186.32598349037542,158.85948103516083 186.32598349037542,158.85948103516083 C 186.94598349037543,158.03948103516083 188.17598349037542,158.23948103516082 187.9659834903754,159.85948103516083 C 187.7559834903754,161.47948103516083 188.7859834903754,163.14948103516082 188.5859834903754,164.16948103516083 C 188.38598349037542,165.18948103516084 188.7859834903754,167.45948103516082 188.9959834903754,170.32948103516082 C 189.4059834903754,172.9994810351608 188.17598349037542,177.10948103516083 188.17598349037542,178.32948103516082 C 188.17598349037542,179.54948103516082 188.3759834903754,182.01948103516082 187.5559834903754,183.45948103516082 C 186.73598349037542,184.6894810351608 184.0659834903754,187.97948103516083 184.88598349037542,187.97948103516083 A 12.82,12.82 0.0 0,0 188.17598349037542,186.53948103516083 A 24.4,24.4 0.0 0,1 187.76598349037542,189.81948103516083 C 187.35598349037542,192.28948103516083 188.37598349037543,192.89948103516085 188.37598349037543,192.89948103516085 C 188.78598349037543,189.81948103516083 191.45598349037544,186.94948103516086 191.45598349037544,186.94948103516086 C 191.45598349037544,186.94948103516086 189.45598349037544,191.25948103516086 189.45598349037544,192.48948103516085 C 189.24598349037544,193.71948103516084 190.27598349037544,194.33948103516084 191.09598349037543,195.56948103516086 C 191.91598349037542,196.79948103516088 191.71598349037544,197.82948103516085 192.53598349037543,197.41948103516086 C 193.35598349037542,197.00948103516086 191.91598349037542,195.15948103516087 193.35598349037542,193.30948103516084 C 194.79598349037542,191.45948103516082 195.6159834903754,191.05948103516084 196.0259834903754,189.40948103516084 C 196.63598349037542,187.76948103516085 198.89598349037541,186.73948103516085 198.6959834903754,184.89948103516085 C 198.49598349037538,183.05948103516084 199.9259834903754,180.17948103516085 199.9259834903754,178.52948103516084 C 199.9259834903754,176.87948103516084 199.5159834903754,175.65948103516084 201.15598349037538,178.11948103516085 C 202.79598349037536,180.57948103516085 202.15598349037538,185.50948103516083 202.15598349037538,187.35948103516085 C 202.15598349037538,189.20948103516088 201.15598349037538,192.07948103516085 198.86598349037538,196.79948103516085 A 53.68,53.68 0.0 0,1 192.7059834903754,206.85948103516085 A 3.37,3.37 0.0 0,1 190.24598349037538,208.29948103516085 C 188.80598349037538,208.49948103516084 187.37598349037538,210.55948103516084 186.5459834903754,211.78948103516086 C 185.7259834903754,212.78948103516086 185.3159834903754,214.86948103516087 186.5459834903754,215.06948103516086 C 187.77598349037538,215.26948103516085 186.96598349037538,216.06948103516086 186.96598349037538,217.32948103516085 C 186.96598349037538,218.58948103516084 187.16598349037537,219.58948103516084 188.80598349037538,218.55948103516084 C 190.4459834903754,217.52948103516084 190.44598349037537,218.35948103516085 190.86598349037538,218.76948103516085 A 11.9,11.9 0.0 0,0 193.11598349037538,219.76948103516085 A 5.64,5.64 0.0 0,0 197.83598349037538,218.76948103516085 C 199.8959834903754,217.12948103516086 199.0759834903754,219.17948103516085 201.12598349037538,218.76948103516085 C 203.17598349037536,218.35948103516085 203.79598349037536,216.91948103516086 204.2059834903754,214.45948103516085 C 204.6159834903754,211.99948103516084 205.43598349037538,209.93948103516084 206.2559834903754,205.62948103516084 C 206.8759834903754,201.10948103516083 208.7159834903754,200.49948103516084 209.1359834903754,201.31948103516083 C 209.55598349037538,202.13948103516083 211.1859834903754,203.16948103516083 212.4159834903754,200.08948103516084 C 213.6459834903754,197.00948103516086 213.2359834903754,194.54948103516085 214.05598349037538,188.38948103516086 C 214.6759834903754,182.22948103516086 213.2359834903754,180.58948103516084 212.8259834903754,177.70948103516085 C 212.4159834903754,174.82948103516085 211.1859834903754,169.29948103516085 211.1859834903754,165.39948103516085 C 211.1859834903754,161.49948103516084 213.64598349037541,159.02948103516084 214.26598349037542,157.59948103516084 C 214.87598349037543,156.35948103516083 215.0859834903754,153.27948103516084 215.0859834903754,151.02948103516084 C 215.0859834903754,148.55948103516084 217.0859834903754,148.55948103516084 217.0859834903754,146.71948103516084 C 217.0859834903754,144.87948103516084 219.7559834903754,143.42948103516085 220.57598349037542,142.40948103516084 C 221.39598349037544,141.38948103516083 220.57598349037542,140.14948103516085 221.57598349037542,138.70948103516085 C 222.57598349037542,137.06948103516086 223.41598349037542,136.85948103516085 223.41598349037542,135.42948103516085 C 223.41598349037542,133.77948103516084 225.06598349037543,134.42948103516085 225.26598349037542,132.34948103516084 A 7.75,7.75 0.0 0,1 226.26598349037542,128.85948103516083 C 226.87598349037543,127.20948103516083 226.67598349037542,130.4994810351608 228.1159834903754,123.10948103516084 C 229.3959834903754,115.86948103516077 232.6759834903754,81.79948103516077 214.4059834903754,73.17948103516078"/>
</svg>
