<?xml version="1.0" ?>
<svg xmlns="http://www.w3.org/2000/svg" xmlns:ev="http://www.w3.org/2001/xml-events" xmlns:xlink="http://www.w3.org/1999/xlink" baseProfile="full" height="87" transform="scale(1.1494252873563218 1.1494252873563218) translate(-43.5 -43.5)" version="1.1" viewBox="0 0 87 87" width="87">
	<defs/>
	<path d="M 86.23076007359057,71.1032859316067 C 86.23076007359057,68.64328593160671 86.33076007359057,66.1032859316067 86.33076007359057,63.69328593160671 C 86.33076007359057,62.43328593160671 86.33076007359057,61.20328593160671 86.26076007359057,59.95328593160671 A 10.14,10.14 0.0 0,1 86.19076007359058,58.213285931606706 A 10.91,10.91 0.0 0,0 86.26076007359057,56.70328593160671 A 14.0,14.0 0.0 0,0 86.02076007359058,54.11328593160671 A 5.4,5.4 0.0 0,0 84.72076007359058,51.75328593160671 A 5.93,5.93 0.0 0,0 79.72076007359058,49.633285931606714 A 3.0,3.0 0.0 0,0 78.33076007359058,50.10328593160671 A 3.3,3.3 0.0 0,0 77.59076007359059,51.023285931606715 A 7.0,7.0 0.0 0,1 76.1307600735906,52.203285931606715 C 75.6407600735906,52.58328593160672 75.21076007359059,53.03328593160671 74.71076007359059,53.42328593160671 A 5.27,5.27 0.0 0,1 74.20076007359059,53.85328593160671 A 2.6,2.6 0.0 0,1 73.56076007359059,54.11328593160671 A 8.42,8.42 0.0 0,0 72.64076007359058,54.53328593160671 A 3.29,3.29 0.0 0,0 71.03076007359059,53.47328593160671 C 70.56076007359059,53.313285931606714 70.03076007359059,53.21328593160671 69.57076007359059,53.09328593160671 A 4.18,4.18 0.0 0,1 68.65076007359059,52.84328593160671 A 1.77,1.77 0.0 0,1 68.04076007359059,52.103285931606706 A 10.0,10.0 0.0 0,1 67.42076007359059,50.533285931606706 C 67.09076007359059,49.533285931606706 67.02076007359058,48.38328593160671 66.69076007359058,47.353285931606706 C 66.36076007359058,46.323285931606705 65.96076007359058,45.353285931606706 65.69076007359058,44.353285931606706 C 65.48076007359059,43.573285931606705 65.12076007359059,42.853285931606706 64.88076007359058,42.113285931606704 C 64.64076007359057,41.3732859316067 64.46076007359058,40.70328593160671 64.23076007359057,39.99328593160671 C 64.17076007359057,39.76328593160671 64.06076007359057,39.52328593160671 64.01076007359057,39.293285931606704 A 5.31,5.31 0.0 0,1 63.95076007359057,37.7532859316067 A 10.29,10.29 0.0 0,1 64.95076007359057,34.2532859316067 A 16.0,16.0 0.0 0,1 65.77076007359057,32.733285931606694 C 65.92076007359057,32.46328593160669 66.08076007359057,32.20328593160669 66.21076007359056,31.943285931606695 C 66.34076007359056,31.683285931606697 66.37076007359056,31.583285931606696 66.48076007359056,31.423285931606696 A 0.23,0.23 0.0 0,0 66.82076007359056,31.513285931606696 A 4.58,4.58 0.0 0,0 67.95076007359057,29.9532859316067 A 2.68,2.68 0.0 0,1 68.61076007359057,29.1932859316067 A 9.45,9.45 0.0 0,0 69.37076007359057,28.5332859316067 A 6.48,6.48 0.0 0,0 70.48076007359057,27.0332859316067 C 70.73076007359057,26.5632859316067 70.90076007359058,26.0332859316067 71.13076007359058,25.5632859316067 C 71.61076007359058,24.5132859316067 72.13076007359058,23.5132859316067 72.64076007359058,22.4632859316067 A 8.0,8.0 0.0 0,0 73.52076007359058,19.5332859316067 C 73.52076007359058,18.7432859316067 73.73076007359057,17.9632859316067 73.75076007359058,17.183285931606697 A 6.1,6.1 0.0 0,0 73.40076007359058,14.9532859316067 C 73.71076007359058,14.5432859316067 73.51076007359057,13.7232859316067 73.40076007359058,13.3032859316067 C 73.07076007359058,12.4932859316067 72.57076007359058,11.7132859316067 72.15076007359058,10.9232859316067 A 16.17,16.17 0.0 0,0 70.71076007359058,8.5832859316067 C 70.21076007359058,7.933285931606699 69.71076007359058,7.333285931606699 69.15076007359058,6.7032859316066995 L 68.47076007359057,5.8232859316067 A 3.59,3.59 0.0 0,0 68.09076007359057,5.423285931606699 C 67.97076007359057,5.313285931606699 67.71076007359058,5.193285931606699 67.64076007359057,5.0732859316067 A 1.49,1.49 0.0 0,1 67.50076007359057,4.5632859316067 C 67.50076007359057,4.373285931606699 67.38076007359057,4.1732859316067 67.31076007359057,3.9732859316067 A 6.34,6.34 0.0 0,0 66.79076007359058,2.8532859316067 A 13.46,13.46 0.0 0,0 65.54076007359058,0.9532859316067002 C 65.16076007359058,0.4832859316067002 64.64076007359057,-0.046714068393299835 63.96076007359058,0.00328593160670021 C 63.280760073590585,0.053285931606700254 62.470760073590576,1.0032859316067002 62.040760073590576,1.5832859316067003 C 61.610760073590576,2.1632859316067004 61.17076007359057,3.1932859316067006 60.730760073590574,3.9532859316067004 C 60.370760073590574,3.9532859316067004 59.99076007359057,3.9532859316067004 59.620760073590574,3.9532859316067004 C 59.25076007359058,3.9532859316067004 58.88076007359057,4.1332859316067 58.57076007359058,3.9532859316067004 C 57.91076007359058,3.6232859316067003 57.25076007359058,3.3132859316067 56.57076007359058,3.0132859316067 C 55.89076007359058,2.7132859316067 55.20076007359058,2.4032859316067006 54.57076007359058,2.0132859316067 A 4.63,4.63 0.0 0,0 52.89076007359058,1.3832859316067003 C 52.45076007359058,1.3332859316067003 51.78076007359058,1.3832859316067003 51.66076007359058,1.9432859316067004 A 2.86,2.86 0.0 0,0 52.09076007359058,3.433285931606701 A 9.75,9.75 0.0 0,1 52.54076007359058,4.483285931606701 A 12.35,12.35 0.0 0,1 52.87076007359058,5.7132859316067 A 10.32,10.32 0.0 0,0 53.48076007359058,7.7132859316067 A 4.34,4.34 0.0 0,0 54.22076007359058,8.7132859316067 C 54.36076007359058,8.8532859316067 54.640760073590585,9.0432859316067 54.680760073590584,9.2332859316067 C 54.72076007359058,9.4232859316067 54.680760073590584,9.4932859316067 54.680760073590584,9.6132859316067 A 4.18,4.18 0.0 0,1 54.420760073590586,10.6832859316067 C 54.280760073590585,11.1132859316067 54.16076007359059,11.563285931606702 54.05076007359059,12.0132859316067 A 22.8,22.8 0.0 0,0 50.77076007359059,12.833285931606701 C 49.77076007359059,13.1932859316067 48.670760073590586,13.5432859316067 47.600760073590585,13.833285931606701 C 45.310760073590586,14.493285931606701 43.000760073590584,15.1032859316067 40.710760073590585,15.713285931606702 C 38.420760073590586,16.323285931606705 36.140760073590585,16.9132859316067 33.87076007359059,17.5732859316067 C 31.600760073590592,18.2332859316067 29.46076007359059,18.923285931606703 27.21076007359059,19.463285931606702 C 25.94076007359059,19.763285931606703 24.69076007359059,20.053285931606702 23.44076007359059,20.463285931606702 A 5.37,5.37 0.0 0,0 21.97076007359059,21.1632859316067 A 6.61,6.61 0.0 0,0 21.39076007359059,21.6332859316067 A 1.47,1.47 0.0 0,1 20.91076007359059,21.9132859316067 A 0.2,0.2 0.0 0,0 20.65076007359059,21.8232859316067 C 19.41076007359059,22.2732859316067 18.18076007359059,22.673285931606703 16.97076007359059,23.173285931606703 A 32.39,32.39 0.0 0,0 13.430760073590589,24.933285931606704 A 7.9,7.9 0.0 0,0 11.15076007359059,26.533285931606706 A 0.69,0.69 0.0 0,0 10.98076007359059,27.243285931606707 A 0.77,0.77 0.0 0,0 11.40076007359059,27.573285931606705 A 9.92,9.92 0.0 0,1 10.13076007359059,28.573285931606705 A 7.33,7.33 0.0 0,0 9.13076007359059,29.573285931606705 C 8.66076007359059,30.113285931606704 7.790760073590591,30.973285931606704 8.00076007359059,31.773285931606704 A 0.27,0.27 0.0 0,0 8.180760073590589,31.953285931606707 L 8.300760073590588,31.953285931606707 A 36.79,36.79 0.0 0,0 4.950760073590572,36.7032859316067 A 15.36,15.36 0.0 0,0 3.7807600735905713,38.9532859316067 C 3.6107600735905714,39.4232859316067 3.3607600735905714,40.1532859316067 3.7107600735905715,40.6032859316067 A 0.25,0.25 0.0 0,0 3.9907600735905713,40.723285931606696 L 4.140760073590572,40.723285931606696 C 3.8007600735905718,41.723285931606696 3.5207600735905715,42.7932859316067 3.1407600735905716,43.7932859316067 A 9.53,9.53 0.0 0,1 2.3707600735905716,45.3632859316067 A 2.0,2.0 0.0 0,0 1.9507600735905712,46.5032859316067 A 0.25,0.25 0.0 0,0 2.330760073590571,46.7132859316067 C 2.6107600735905714,46.5532859316067 2.890760073590571,46.3832859316067 3.1807600735905712,46.2432859316067 C 2.5307600735905713,48.7132859316067 0.9507600735905712,51.0932859316067 1.5107600735905713,53.7132859316067 A 0.24,0.24 0.0 0,0 1.9207600735905712,53.8232859316067 A 1.53,1.53 0.0 0,1 2.100760073590571,53.6432859316067 A 36.25,36.25 0.0 0,1 1.540760073590571,57.5032859316067 C 1.3707600735905712,58.9532859316067 1.6507600735905712,60.7032859316067 0.9507600735905712,62.0232859316067 A 9.34,9.34 0.0 0,0 0.2207600735905713,65.2132859316067 C 0.060760073590571284,66.13328593160671 -0.22923992640942872,67.39328593160671 0.32076007359057124,68.2132859316067 A 0.34,0.34 0.0 0,0 0.6007600735905713,68.33328593160671 A 3.0,3.0 0.0 0,0 1.1907600735905712,68.1032859316067 A 8.25,8.25 0.0 0,1 0.2907600735905712,73.38328593160671 A 0.26,0.26 0.0 0,0 0.5007600735905712,73.77328593160671 A 20.86,20.86 0.0 0,0 3.9507600735905712,73.4032859316067 A 13.0,13.0 0.0 0,0 6.530760073590572,72.8232859316067 A 6.71,6.71 0.0 0,1 5.390760073590572,73.9532859316067 A 0.26,0.26 0.0 0,0 5.390760073590572,74.3932859316067 A 2.21,2.21 0.0 0,0 7.300760073590572,74.3932859316067 A 10.74,10.74 0.0 0,0 9.680760073590571,73.0032859316067 A 11.69,11.69 0.0 0,1 10.95076007359057,72.3732859316067 A 8.27,8.27 0.0 0,0 12.20076007359057,71.5732859316067 A 12.69,12.69 0.0 0,0 14.090760073590571,69.8732859316067 A 0.28,0.28 0.0 0,0 14.410760073590572,69.8732859316067 C 14.810760073590572,69.3632859316067 14.960760073590572,68.7032859316067 15.410760073590572,68.2332859316067 A 1.27,1.27 0.0 0,1 15.650760073590572,68.0432859316067 A 0.86,0.86 0.0 0,0 15.95076007359057,68.27328593160671 C 16.790760073590572,68.58328593160671 17.49076007359057,67.5432859316067 17.950760073590573,66.70328593160671 A 3.47,3.47 0.0 0,0 18.19076007359057,67.43328593160672 A 4.08,4.08 0.0 0,0 19.19076007359057,68.61328593160673 C 19.19076007359057,69.12328593160673 19.69076007359057,69.31328593160673 19.950760073590573,69.69328593160672 C 20.210760073590574,70.07328593160672 20.210760073590574,70.26328593160672 20.400760073590572,70.53328593160673 A 4.85,4.85 0.0 0,0 20.92076007359057,71.03328593160673 A 0.76,0.76 0.0 0,0 21.50076007359057,71.18328593160673 C 21.79076007359057,71.18328593160673 22.09076007359057,71.18328593160673 22.38076007359057,71.18328593160673 C 22.670760073590568,71.18328593160673 23.14076007359057,71.18328593160673 23.510760073590568,71.18328593160673 A 3.14,3.14 0.0 0,0 24.260760073590568,71.18328593160673 A 0.51,0.51 0.0 0,0 24.710760073590567,71.27328593160674 A 1.32,1.32 0.0 0,0 25.450760073590565,71.01328593160673 A 7.07,7.07 0.0 0,0 26.560760073590565,70.85328593160673 A 1.32,1.32 0.0 0,0 27.480760073590567,70.38328593160674 A 2.07,2.07 0.0 0,0 27.950760073590565,69.49328593160674 A 1.88,1.88 0.0 0,0 27.450760073590565,68.38328593160674 C 27.290760073590565,68.19328593160674 27.120760073590567,68.05328593160674 26.960760073590567,67.86328593160674 C 26.800760073590567,67.67328593160674 26.700760073590565,67.48328593160674 26.530760073590567,67.31328593160674 A 3.07,3.07 0.0 0,0 25.36076007359057,66.52328593160674 A 4.22,4.22 0.0 0,0 23.950760073590573,66.1732859316067 A 0.94,0.94 0.0 0,1 22.950760073590573,65.3532859316067 A 28.8,28.8 0.0 0,1 22.360760073590573,62.30328593160671 A 15.0,15.0 0.0 0,1 22.540760073590572,59.033285931606706 C 22.62076007359057,58.033285931606706 22.60076007359057,57.033285931606706 22.730760073590574,56.033285931606706 C 22.860760073590576,55.033285931606706 23.730760073590574,54.2232859316067 24.240760073590575,53.423285931606706 A 13.72,13.72 0.0 0,1 25.420760073590575,51.823285931606705 C 25.850760073590575,51.353285931606706 26.320760073590574,50.923285931606706 26.740760073590575,50.45328593160671 C 27.570760073590574,49.51328593160671 28.280760073590574,48.45328593160671 29.040760073590576,47.45328593160671 A 20.53,20.53 0.0 0,0 31.330760073590575,43.72328593160671 A 8.35,8.35 0.0 0,1 31.140760073590574,47.09328593160671 A 10.23,10.23 0.0 0,1 30.450760073590573,48.77328593160671 A 3.7,3.7 0.0 0,0 30.28076007359057,50.29328593160671 A 2.62,2.62 0.0 0,0 30.69076007359057,51.59328593160671 A 3.12,3.12 0.0 0,0 31.21076007359057,52.16328593160671 A 1.67,1.67 0.0 0,1 31.61076007359057,52.603285931606706 A 5.7,5.7 0.0 0,0 34.01076007359057,54.13328593160671 C 33.30076007359057,54.423285931606706 32.60076007359057,54.753285931606705 31.870760073590567,54.97328593160671 C 31.47076007359057,55.10328593160671 30.520760073590566,55.29328593160671 30.340760073590566,55.78328593160671 A 3.74,3.74 0.0 0,0 29.770760073590566,56.47328593160671 C 29.530760073590567,56.78328593160671 29.290760073590565,57.11328593160671 29.080760073590564,57.47328593160671 A 8.93,8.93 0.0 0,0 28.080760073590564,59.84328593160671 A 21.09,21.09 0.0 0,0 27.690760073590564,65.67328593160671 A 52.27,52.27 0.0 0,0 28.100760073590564,71.67328593160671 A 8.08,8.08 0.0 0,0 29.510760073590564,75.59328593160672 A 5.77,5.77 0.0 0,0 31.350760073590564,77.33328593160671 A 5.36,5.36 0.0 0,0 33.43076007359056,77.92328593160671 A 0.23,0.23 0.0 0,0 33.55076007359056,78.13328593160671 C 35.55076007359056,79.13328593160671 37.80076007359056,78.53328593160671 39.90076007359056,78.88328593160671 C 41.01076007359056,79.05328593160671 42.100760073590564,79.28328593160671 43.23076007359056,79.41328593160671 C 44.360760073590555,79.5432859316067 45.52076007359056,79.64328593160671 46.69076007359056,79.7132859316067 C 47.26076007359056,79.7132859316067 47.85076007359056,79.7832859316067 48.42076007359056,79.83328593160671 A 11.8,11.8 0.0 0,1 50.42076007359056,80.25328593160671 A 8.63,8.63 0.0 0,1 52.040760073590555,80.81328593160671 C 52.540760073590555,81.03328593160671 53.040760073590555,81.26328593160672 53.53076007359056,81.45328593160671 A 13.39,13.39 0.0 0,0 56.720760073590554,82.16328593160671 A 12.39,12.39 0.0 0,1 58.44076007359055,82.47328593160671 C 59.03076007359056,82.63328593160671 59.640760073590556,82.80328593160671 60.24076007359055,82.94328593160671 C 60.840760073590545,83.08328593160671 61.41076007359055,83.13328593160671 61.96076007359055,83.27328593160671 A 18.1,18.1 0.0 0,0 63.75076007359055,83.7432859316067 C 64.25076007359056,83.83328593160671 64.75076007359056,83.9832859316067 65.22076007359055,84.02328593160671 C 65.45076007359056,84.02328593160671 65.67076007359056,84.02328593160671 65.90076007359056,84.02328593160671 A 5.09,5.09 0.0 0,1 66.90076007359056,84.25328593160671 C 68.03076007359056,84.53328593160671 69.17076007359056,84.77328593160671 70.26076007359056,85.15328593160672 C 71.35076007359056,85.53328593160673 72.36076007359055,85.93328593160672 73.44076007359057,86.28328593160671 A 12.16,12.16 0.0 0,0 78.96076007359056,86.77328593160671 A 9.18,9.18 0.0 0,0 83.95076007359057,84.7932859316067 A 4.33,4.33 0.0 0,0 84.85076007359058,83.7032859316067 C 85.13076007359058,83.2332859316067 85.51076007359057,82.8332859316067 85.76076007359057,82.3432859316067 A 6.39,6.39 0.0 0,0 86.24076007359058,79.0632859316067 C 86.21076007359058,76.4232859316067 86.23076007359057,73.7632859316067 86.23076007359057,71.1032859316067 M 35.760760073590575,46.103285931606706 A 3.74,3.74 0.0 0,1 36.27076007359057,45.103285931606706 C 36.470760073590576,44.77328593160671 36.68076007359057,44.423285931606706 36.91076007359057,44.103285931606706 C 37.38076007359057,43.41328593160671 37.91076007359057,42.753285931606705 38.31076007359057,42.05328593160671 A 15.92,15.92 0.0 0,0 40.050760073590574,37.8532859316067 C 40.17076007359057,37.403285931606696 40.330760073590575,36.9632859316067 40.45076007359057,36.513285931606696 A 4.67,4.67 0.0 0,0 40.60076007359057,35.45328593160669 L 40.83076007359057,35.45328593160669 C 41.18076007359057,35.45328593160669 41.520760073590566,35.523285931606694 41.89076007359057,35.5432859316067 L 43.19076007359057,35.5432859316067 C 43.14076007359057,35.6832859316067 43.19076007359057,35.873285931606695 43.350760073590564,35.903285931606696 A 2.78,2.78 0.0 0,0 44.350760073590564,35.833285931606696 L 45.350760073590564,35.693285931606695 A 6.33,6.33 0.0 0,0 46.350760073590564,35.4332859316067 L 46.87076007359057,35.2832859316067 L 46.96076007359057,35.2832859316067 A 0.21,0.21 0.0 0,0 47.09076007359057,35.3832859316067 A 1.56,1.56 0.0 0,0 47.89076007359057,35.3832859316067 A 5.05,5.05 0.0 0,0 48.89076007359057,35.2232859316067 A 3.82,3.82 0.0 0,0 50.02076007359057,34.8032859316067 A 1.1,1.1 0.0 0,1 50.02076007359057,35.0632859316067 L 50.02076007359057,36.7932859316067 C 50.02076007359057,37.693285931606695 49.95076007359057,38.583285931606696 49.970760073590576,39.483285931606694 C 49.99076007359058,40.38328593160669 50.050760073590574,41.2532859316067 50.120760073590574,42.1432859316067 C 50.120760073590574,42.5932859316067 50.21076007359058,43.0432859316067 50.260760073590575,43.4932859316067 A 12.31,12.31 0.0 0,1 50.260760073590575,44.8532859316067 C 50.260760073590575,46.3832859316067 50.43076007359058,47.9232859316067 50.360760073590576,49.4532859316067 C 50.360760073590576,49.9432859316067 50.360760073590576,50.4532859316067 50.360760073590576,50.9432859316067 A 2.08,2.08 0.0 0,0 50.760760073590575,52.2032859316067 C 50.760760073590575,52.2032859316067 50.830760073590575,52.2732859316067 50.870760073590574,52.2832859316067 C 50.91076007359057,52.2932859316067 50.870760073590574,52.2832859316067 50.870760073590574,52.2832859316067 C 50.870760073590574,52.2832859316067 50.870760073590574,52.2832859316067 50.870760073590574,52.333285931606696 A 3.64,3.64 0.0 0,0 51.21076007359058,52.8932859316067 C 51.46076007359058,53.2732859316067 51.73076007359058,53.6332859316067 52.010760073590575,54.0032859316067 C 52.29076007359057,54.373285931606695 52.550760073590574,54.733285931606694 52.790760073590576,55.1132859316067 A 1.13,1.13 0.0 0,1 52.95076007359057,55.373285931606695 A 1.32,1.32 0.0 0,1 52.95076007359057,55.653285931606696 A 0.51,0.51 0.0 0,0 52.95076007359057,55.8232859316067 C 52.34076007359057,55.8232859316067 51.74076007359057,55.8232859316067 51.13076007359057,55.7732859316067 A 15.48,15.48 0.0 0,1 49.220760073590576,55.4732859316067 A 1.62,1.62 0.0 0,0 48.75076007359058,54.4732859316067 A 1.47,1.47 0.0 0,0 48.110760073590576,54.0232859316067 A 10.0,10.0 0.0 0,1 47.190760073590575,53.543285931606704 A 5.45,5.45 0.0 0,0 43.440760073590575,53.2732859316067 C 43.13076007359057,53.363285931606704 42.85076007359057,53.5032859316067 42.540760073590576,53.5932859316067 A 0.65,0.65 0.0 0,1 42.330760073590575,53.6432859316067 C 42.330760073590575,53.6432859316067 42.24076007359057,53.5932859316067 42.21076007359058,53.5732859316067 A 2.0,2.0 0.0 0,1 41.830760073590575,53.3132859316067 A 14.71,14.71 0.0 0,1 40.470760073590576,52.0632859316067 A 4.71,4.71 0.0 0,0 39.74076007359058,51.473285931606696 A 6.0,6.0 0.0 0,0 38.96076007359058,51.0332859316067 C 38.32076007359058,50.693285931606695 37.66076007359058,50.4132859316067 37.06076007359058,50.0332859316067 A 1.71,1.71 0.0 0,1 36.59076007359058,49.6632859316067 C 36.46076007359058,49.5232859316067 36.36076007359058,49.363285931606704 36.26076007359058,49.2332859316067 A 3.34,3.34 0.0 0,1 35.77076007359058,48.2332859316067 A 3.14,3.14 0.0 0,1 35.60076007359058,47.1732859316067 A 3.58,3.58 0.0 0,1 35.760760073590575,46.1032859316067 L 35.760760073590575,46.103285931606706 M 56.050760073590574,39.103285931606706 C 56.050760073590574,38.103285931606706 56.050760073590574,37.033285931606706 56.050760073590574,35.99328593160671 C 56.050760073590574,35.783285931606706 56.050760073590574,35.573285931606705 56.050760073590574,35.363285931606704 A 0.23,0.23 0.0 0,0 56.290760073590576,35.24328593160671 C 56.290760073590576,35.1532859316067 56.53076007359058,35.08328593160671 56.60076007359058,35.033285931606706 L 56.67076007359058,35.033285931606706 C 57.00076007359058,36.30328593160671 57.43076007359058,37.533285931606706 57.67076007359058,38.823285931606705 A 18.19,18.19 0.0 0,0 57.95076007359057,40.8032859316067 A 13.7,13.7 0.0 0,0 58.77076007359057,42.683285931606704 C 59.370760073590574,43.9832859316067 59.95076007359057,45.3032859316067 60.57076007359057,46.5932859316067 C 60.87076007359057,47.2032859316067 61.18076007359057,47.793285931606704 61.57076007359057,48.363285931606704 C 61.76076007359057,48.6632859316067 61.95076007359057,48.95328593160671 62.14076007359057,49.2632859316067 A 2.0,2.0 0.0 0,1 62.37076007359057,49.7232859316067 C 62.37076007359057,49.8732859316067 62.43076007359057,50.0532859316067 62.47076007359057,50.2032859316067 A 14.71,14.71 0.0 0,0 63.18076007359057,52.4832859316067 C 63.32076007359057,52.8332859316067 63.48076007359057,53.1732859316067 63.62076007359057,53.4832859316067 A 7.52,7.52 0.0 0,0 63.910760073590566,54.1932859316067 C 63.36076007359057,54.2632859316067 62.80076007359057,54.3532859316067 62.26076007359057,54.4432859316067 L 60.44076007359057,54.823285931606705 A 2.48,2.48 0.0 0,0 59.850760073590564,54.16328593160671 A 1.53,1.53 0.0 0,0 59.410760073590566,53.93328593160671 A 1.24,1.24 0.0 0,1 58.98076007359057,53.59328593160671 A 1.79,1.79 0.0 0,0 58.55076007359057,53.24328593160671 C 58.37076007359057,53.1532859316067 58.18076007359057,53.103285931606706 58.01076007359057,53.033285931606706 A 7.12,7.12 0.0 0,0 57.090760073590566,52.853285931606706 A 1.49,1.49 0.0 0,1 56.40076007359057,52.6532859316067 A 1.56,1.56 0.0 0,1 55.880760073590565,51.8832859316067 A 6.92,6.92 0.0 0,1 55.55076007359057,49.5232859316067 A 3.11,3.11 0.0 0,0 55.490760073590565,48.9332859316067 A 2.66,2.66 0.0 0,1 55.490760073590565,48.653285931606696 A 0.48,0.48 0.0 0,1 55.58076007359057,48.3932859316067 A 8.84,8.84 0.0 0,0 55.910760073590566,47.1432859316067 A 16.14,16.14 0.0 0,0 56.08076007359057,44.4532859316067 C 56.07076007359057,42.7532859316067 56.050760073590574,40.9532859316067 56.050760073590574,39.0732859316067 L 56.050760073590574,39.103285931606706 M 56.290760073590576,33.363285931606704 A 0.55,0.55 0.0 0,1 56.290760073590576,33.643285931606705 A 2.69,2.69 0.0 0,1 56.13076007359058,34.09328593160671 C 56.13076007359058,34.18328593160671 56.06076007359058,34.27328593160671 56.03076007359058,34.37328593160671 A 2.74,2.74 0.0 0,1 56.25076007359058,33.37328593160671 L 56.290760073590576,33.363285931606704"/>
</svg>
