<?xml version="1.0" ?>
<svg xmlns="http://www.w3.org/2000/svg" xmlns:ev="http://www.w3.org/2001/xml-events" xmlns:xlink="http://www.w3.org/1999/xlink" baseProfile="full" height="284" transform="scale(0.352112676056338 0.352112676056338) translate(-248.0 -142.0)" version="1.1" viewBox="0 0 496 284" width="496">
	<defs/>
	<path d="M 173.51,268.8225397323957 C 169.51,268.96253973239567 165.14999999999998,266.9225397323957 163.10999999999999,263.6425397323957 A 11.56,11.56 0.0 0,1 155.74999999999997,261.4925397323957 C 152.58999999999997,259.1225397323957 151.47999999999996,255.33253973239567 149.28999999999996,252.23253973239568 C 146.97999999999996,248.96253973239567 143.42999999999995,247.38253973239568 140.20999999999995,245.23253973239568 C 136.05999999999995,242.40253973239567 133.05999999999995,238.57253973239568 129.96999999999994,234.6925397323957 C 124.96999999999994,228.36253973239567 116.33999999999995,224.0025397323957 113.80999999999995,216.0025397323957 C 111.10999999999994,207.48253973239568 119.12999999999994,202.38253973239568 121.93999999999994,195.10253973239568 C 124.52999999999994,188.35253973239568 127.66999999999994,182.27253973239567 128.61999999999995,175.42253973239568 C 123.40999999999995,181.7225397323957 114.78999999999995,184.4725397323957 107.61999999999995,188.01253973239568 C 98.87999999999995,192.29253973239568 91.31999999999995,198.80253973239567 82.28999999999995,202.4025397323957 C 77.99999999999994,204.1225397323957 73.55999999999995,205.5025397323957 69.92999999999995,208.4825397323957 C 66.29999999999995,211.46253973239573 63.659999999999954,215.2425397323957 60.59999999999995,218.62253973239572 C 57.53999999999995,222.00253973239575 54.17999999999995,225.36253973239573 52.48999999999995,229.75253973239572 C 50.89999999999995,233.93253973239572 50.71999999999995,238.59253973239572 50.619999999999955,243.02253973239573 C 50.44999999999995,250.49253973239573 51.98999999999995,257.7225397323958 52.87999999999995,265.08253973239573 A 23.92,23.92 0.0 0,1 59.27999999999995,266.32253973239574 C 63.60999999999995,267.58253973239573 69.78999999999995,267.86253973239576 73.27999999999994,270.89253973239573 C 75.0,272.3825397323957 76.0,274.53253973239566 77.0,276.5725397323957 C 77.43,277.4225397323957 78.47,279.0025397323957 77.72,279.96253973239567 C 77.24,280.5625397323957 76.31,280.4525397323957 75.47,280.53253973239566 A 8.66,8.66 0.0 0,1 75.05,283.53253973239566 C 73.17,284.0025397323957 72.64999999999999,282.21253973239567 71.14,281.91253973239566 C 69.82000000000001,281.65253973239567 68.08,282.7025397323957 66.68,282.8325397323957 C 63.68000000000001,283.11253973239565 61.42000000000001,282.3725397323957 58.91000000000001,281.6325397323957 C 55.85000000000001,285.8325397323957 48.30000000000001,282.5025397323957 43.67000000000001,282.3625397323957 C 38.36000000000001,282.2125397323957 30.41000000000001,282.6925397323957 29.99000000000001,275.7125397323957 C 29.78000000000001,272.20253973239573 30.120000000000008,268.8025397323957 29.49000000000001,265.3025397323957 C 28.91000000000001,262.0725397323957 27.97000000000001,258.9125397323957 27.44000000000001,255.6625397323957 C 26.340000000000007,248.9025397323957 24.730000000000008,241.98253973239568 24.53000000000001,235.1225397323957 A 97.72,97.72 0.0 0,1 24.53000000000001,222.4325397323957 C 22.930000000000007,222.60253973239568 21.53000000000001,222.0825397323957 20.40000000000001,224.0925397323957 A 18.47,18.47 0.0 0,0 19.78000000000001,220.0925397323957 C 19.710000000000008,223.01253973239568 16.56000000000001,225.0325397323957 14.440000000000008,226.60253973239568 C 15.15000000000001,225.10253973239568 14.250000000000009,223.7225397323957 13.860000000000008,222.3725397323957 C 11.680000000000009,225.57253973239568 10.270000000000008,229.4325397323957 6.640000000000009,231.6125397323957 C 6.3500000000000085,228.1725397323957 5.900000000000008,225.1025397323957 5.320000000000008,221.8125397323957 C 4.740000000000008,218.52253973239567 5.8100000000000085,215.3925397323957 4.970000000000009,212.3025397323957 A 20.37,20.37 0.0 0,0 2.8600000000000088,212.5125397323957 A 18.2,18.2 0.0 0,0 3.410000000000009,206.0525397323957 C 2.210000000000009,206.0525397323957 1.410000000000009,206.9225397323957 0.410000000000009,207.2125397323957 C -0.29999999999999094,203.63253973239568 3.410000000000009,200.7525397323957 2.820000000000009,197.6125397323957 A 3.41,3.41 0.0 0,0 0.0,198.75253973239566 C 0.66,196.46253973239567 1.14,194.23253973239565 1.83,191.99253973239567 C 2.5200000000000005,189.7525397323957 4.1899999999999995,187.54253973239568 3.73,185.13253973239566 C 3.21,185.40253973239567 2.45,185.41253973239566 1.94,185.69253973239566 C 2.59,183.92253973239565 9.11,175.35253973239566 5.699999999999999,175.36253973239565 C 6.2299999999999995,171.86253973239565 11.7,171.08253973239565 12.489999999999998,167.36253973239565 C 12.049999999999999,167.29253973239565 11.779999999999998,166.99253973239564 11.329999999999998,166.92253973239565 A 55.31,55.31 0.0 0,1 15.379999999999999,161.34253973239564 C 16.13,160.34253973239564 19.77,156.16253973239563 16.33,156.62253973239564 C 16.79,154.62253973239564 19.759999999999998,152.31253973239563 19.68,150.46253973239564 C 19.14,150.53253973239563 18.4,150.27253973239564 17.88,150.36253973239565 C 18.88,149.26253973239565 20.47,148.49253973239564 21.5,147.30253973239564 C 22.53,146.11253973239565 22.23,145.58253973239565 22.87,144.30253973239564 C 23.51,143.02253973239564 27.69,139.35253973239566 24.23,138.93253973239564 C 25.41,136.49253973239564 28.310000000000002,133.93253973239564 28.75,131.39253973239565 C 25.69,131.00253973239566 27.09,129.67253973239565 28.43,127.79253973239567 C 29.509999999999998,126.26253973239567 31.1,124.70253973239566 30.63,122.64253973239566 A 17.52,17.52 0.0 0,1 28.52,121.89253973239566 C 29.99,120.59253973239566 35.519999999999996,114.89253973239566 30.4,115.64253973239566 C 31.16,114.51253973239567 32.87,112.74253973239566 32.82,111.37253973239567 C 32.04,111.37253973239567 31.17,111.25253973239566 30.4,111.26253973239567 C 31.4,109.40253973239567 33.23,108.13253973239567 34.5,106.43253973239567 A 33.37,33.37 0.0 0,0 37.79,100.36253973239566 A 30.46,30.46 0.0 0,1 42.33,94.42253973239566 A 14.0,14.0 0.0 0,1 45.0,87.19253973239567 A 7.91,7.91 0.0 0,1 42.67,88.44253973239567 C 42.0,86.00253973239568 44.75,84.85253973239567 44.76,82.53253973239568 C 44.76,80.77253973239567 42.629999999999995,79.71253973239568 45.32,78.53253973239568 A 6.39,6.39 0.0 0,1 43.32,75.53253973239568 C 46.2,74.64253973239568 43.62,71.80253973239567 44.32,70.32253973239568 C 44.64,69.62253973239568 45.72,70.15253973239568 46.03,68.58253973239569 C 46.29,67.2625397323957 45.300000000000004,66.3425397323957 45.46,65.04253973239568 C 46.46,64.75253973239568 48.83,64.33253973239569 49.15,63.14253973239568 C 49.58,61.51253973239568 47.559999999999995,60.812539732395685 46.71,59.76253973239568 C 47.71,58.53253973239568 49.81,57.67253973239568 50.42,56.24253973239568 C 50.760000000000005,55.44253973239568 49.71,54.712539732395676 50.15,54.01253973239568 C 50.589999999999996,53.312539732395685 52.64,53.19253973239568 53.33,52.82253973239568 C 56.41,51.18253973239568 54.87,47.65253973239568 58.8,46.48253973239568 C 58.98,44.01253973239568 58.8,42.252539732395675 61.339999999999996,40.88253973239568 C 62.24999999999999,40.392539732395676 62.81999999999999,41.30253973239568 63.55,40.282539732395676 C 63.879999999999995,39.822539732395676 63.55,37.80253973239568 63.55,37.20253973239568 C 64.55,37.06253973239568 65.55,36.642539732395676 66.55,36.49253973239568 C 66.67,33.49253973239568 69.84,30.782539732395676 71.92999999999999,28.832539732395677 C 74.55999999999999,26.382539732395678 77.80999999999999,23.292539732395678 80.92999999999999,21.642539732395676 C 84.92999999999999,19.572539732395676 87.64999999999999,16.782539732395676 91.3,14.312539732395674 C 94.95,11.842539732395673 99.61,11.692539732395675 103.74,10.162539732395674 A 63.37,63.37 0.0 0,1 115.27,7.362539732395674 C 119.14,6.692539732395674 122.69,5.162539732395674 126.6,4.762539732395673 C 135.69,3.8425397323956734 144.32,3.7625397323956733 153.47,3.692539732395673 A 80.06,80.06 0.0 0,1 167.99,4.642539732395673 C 171.66,5.282539732395673 174.76000000000002,5.432539732395673 177.77,6.532539732395673 C 180.23000000000002,5.992539732395673 186.27,6.3825397323956725 188.15,6.532539732395673 C 192.20000000000002,6.812539732395673 196.28,6.222539732395673 200.48000000000002,6.232539732395673 C 204.68000000000004,6.242539732395673 208.3,5.292539732395673 212.42000000000002,5.292539732395673 C 216.76000000000002,5.292539732395673 221.05,5.412539732395673 225.33,5.612539732395673 C 233.33,5.962539732395673 241.14000000000001,7.172539732395673 248.86,5.3825397323956725 A 171.65,171.65 0.0 0,1 273.19,1.8625397323956725 C 277.56,1.5025397323956726 281.33,2.5625397323956722 285.41,3.3125397323956722 A 57.28,57.28 0.0 0,1 292.41,4.662539732395672 A 5.28,5.28 0.0 0,1 292.18,3.872539732395672 C 294.02,3.5425397323956718 295.76,4.302539732395672 297.43,4.772539732395672 C 297.32,4.022539732395672 297.72,2.962539732395672 297.61,2.212539732395672 C 299.39,2.462539732395672 301.23,3.8525397323956723 302.79,4.792539732395673 C 303.09,1.0025397323956735 308.0,3.5425397323956735 310.0,4.642539732395673 C 309.74,3.7025397323956732 310.18,2.642539732395673 310.0,1.7025397323956732 C 312.44,1.2925397323956733 314.54,2.7025397323956732 316.82,3.5725397323956734 C 316.93,3.022539732395673 317.44,2.3725397323956736 317.55,1.7025397323956732 A 7.31,7.31 0.0 0,1 322.23,2.622539732395673 C 321.98,2.072539732395673 322.05,0.6925397323956733 321.84000000000003,0.08253973239567321 C 325.37,-0.5574602676043268 327.27000000000004,2.7025397323956732 330.28000000000003,3.7225397323956733 A 10.65,10.65 0.0 0,0 330.47,2.232539732395673 C 333.19000000000005,2.232539732395673 332.47,4.522539732395673 334.16,5.3825397323956725 C 336.51000000000005,6.532539732395673 336.56,4.512539732395672 339.46000000000004,4.932539732395672 C 339.52000000000004,5.822539732395672 340.17,6.582539732395672 340.18000000000006,7.472539732395672 C 342.19,6.0025397323956735 345.0,5.0025397323956735 345.06,9.092539732395673 C 350.62,6.372539732395673 347.56,9.472539732395674 351.26,11.462539732395674 C 353.82,12.832539732395675 356.53,9.462539732395674 356.9,15.012539732395675 C 361.12,14.362539732395675 363.06,10.292539732395676 364.46,17.162539732395675 C 366.65999999999997,17.352539732395677 368.09,14.242539732395674 369.96999999999997,15.462539732395674 C 371.34,16.352539732395677 370.96999999999997,21.142539732395676 371.46,22.592539732395675 C 374.88,17.812539732395674 376.65999999999997,26.402539732395674 377.27,28.512539732395673 A 31.17,31.17 0.0 0,0 379.84999999999997,25.942539732395673 A 8.12,8.12 0.0 0,1 381.27,27.622539732395673 A 11.62,11.62 0.0 0,0 382.16999999999996,25.622539732395673 C 383.04999999999995,26.322539732395672 383.34,27.052539732395672 384.29999999999995,27.02253973239567 C 384.21999999999997,27.02253973239567 384.65999999999997,26.42253973239567 385.03,26.38253973239567 A 5.74,5.74 0.0 0,1 386.09999999999997,26.892539732395672 C 387.53999999999996,27.572539732395672 390.41999999999996,30.242539732395674 390.28,27.11253973239567 C 391.77,27.02253973239567 392.28,28.90253973239567 393.28,29.59253973239567 C 395.03999999999996,30.892539732395672 394.78,28.962539732395673 395.46999999999997,27.84253973239567 C 397.2,28.642539732395672 397.2,30.42253973239567 398.30999999999995,31.68253973239567 C 399.71999999999997,33.292539732395674 400.59999999999997,30.68253973239567 401.7099999999999,29.68253973239567 C 402.4099999999999,31.232539732395672 403.7099999999999,35.37253973239567 405.61999999999995,35.362539732395675 C 406.17999999999995,35.362539732395675 406.1499999999999,34.362539732395675 406.86999999999995,34.88253973239568 A 8.91,8.91 0.0 0,1 407.10999999999996,36.58253973239568 A 9.75,9.75 0.0 0,0 408.77,39.58253973239568 A 3.13,3.13 0.0 0,1 409.46,37.83253973239568 C 410.08,39.14253973239568 411.28,41.40253973239568 412.78999999999996,41.66253973239568 A 11.0,11.0 0.0 0,0 413.22999999999996,38.93253973239568 C 414.35999999999996,40.422539732395684 415.45,42.37253973239568 417.4,43.14253973239568 C 417.48999999999995,40.14253973239568 421.25,46.742539732395684 422.4,44.062539732395685 C 422.97999999999996,44.64253973239568 423.08,45.662539732395686 423.64,46.342539732395686 A 8.76,8.76 0.0 0,0 425.71,47.812539732395685 A 11.0,11.0 0.0 0,1 427.16999999999996,49.05253973239569 A 23.82,23.82 0.0 0,1 430.16999999999996,43.19253973239569 C 431.62999999999994,41.07253973239569 433.28,37.57253973239569 435.65999999999997,36.37253973239569 C 440.84999999999997,33.72253973239569 441.71999999999997,45.14253973239569 442.15999999999997,47.92253973239569 C 442.61,51.002539732395675 443.31,54.002539732395675 444.0,57.002539732395675 A 4.64,4.64 0.0 0,1 445.0,55.92253973239568 C 445.06,56.822539732395676 445.0,57.76253973239568 445.07,58.66253973239568 A 2.84,2.84 0.0 0,1 446.65999999999997,58.52253973239568 C 446.53999999999996,59.30253973239568 446.43999999999994,60.10253973239568 446.34999999999997,60.87253973239568 C 446.7,60.69253973239568 447.07,60.87253973239568 447.40999999999997,60.73253973239568 C 447.53,62.81253973239568 447.98999999999995,64.73253973239568 448.28,66.62253973239568 C 450.22999999999996,68.08253973239567 451.59999999999997,70.62253973239568 453.14,72.32253973239568 A 25.41,25.41 0.0 0,1 457.83,80.22253973239569 C 460.21999999999997,86.36253973239569 461.15999999999997,92.96253973239568 461.71999999999997,99.49253973239568 L 462.26,105.78253973239569 A 15.55,15.55 0.0 0,1 466.34999999999997,108.24253973239568 A 6.14,6.14 0.0 0,1 468.18999999999994,111.45253973239568 C 471.29999999999995,113.51253973239568 472.99999999999994,116.45253973239568 474.68999999999994,119.91253973239567 C 476.28999999999996,123.17253973239568 477.2199999999999,127.69253973239567 479.8999999999999,130.24253973239567 C 484.2899999999999,134.42253973239568 497.0299999999999,133.37253973239567 495.2699999999999,142.66253973239566 C 494.6099999999999,146.17253973239565 490.9599999999999,147.15253973239567 487.73999999999995,147.96253973239567 C 486.84999999999997,150.51253973239568 484.35999999999996,150.73253973239568 481.5799999999999,151.24253973239567 C 480.13999999999993,151.51253973239568 478.43999999999994,152.12253973239567 477.1599999999999,151.35253973239568 A 22.56,22.56 0.0 0,1 474.8099999999999,149.35253973239568 C 473.8099999999999,151.17253973239568 471.5599999999999,152.67253973239568 469.6099999999999,152.4425397323957 A 3.29,3.29 0.0 0,1 469.7199999999999,150.98253973239568 C 468.3699999999999,151.48253973239568 466.7999999999999,151.49253973239567 467.2499999999999,149.87253973239567 C 467.4899999999999,148.99253973239567 468.1199999999999,148.60253973239566 468.1299999999999,147.58253973239567 A 3.09,3.09 0.0 0,0 467.6899999999999,146.04253973239568 C 465.7899999999999,148.4725397323957 462.51999999999987,150.86253973239567 460.01999999999987,149.6625397323957 C 459.8699999999999,148.13253973239568 461.4299999999999,146.6625397323957 462.01999999999987,145.36253973239567 A 7.0,7.0 0.0 0,0 462.5699999999999,142.49253973239567 A 11.86,11.86 0.0 0,0 462.40999999999985,140.95253973239568 A 14.16,14.16 0.0 0,1 458.90999999999985,141.0025397323957 C 458.6899999999998,139.85253973239568 459.3799999999999,138.5325397323957 458.83999999999986,137.67253973239568 A 8.0,8.0 0.0 0,1 454.83999999999986,137.48253973239568 C 454.53999999999985,136.23253973239568 455.83999999999986,136.0325397323957 455.27999999999986,134.7525397323957 C 454.96999999999986,134.0225397323957 454.05999999999983,133.6625397323957 453.46999999999986,133.10253973239568 A 7.85,7.85 0.0 0,1 448.92999999999984,132.8725397323957 A 7.0,7.0 0.0 0,0 447.92999999999984,129.2225397323957 C 445.66999999999985,130.0625397323957 441.73999999999984,130.5325397323957 440.3199999999998,129.4725397323957 C 439.0899999999998,128.5525397323957 439.8499999999998,126.5825397323957 438.6899999999998,125.3925397323957 A 9.26,9.26 0.0 0,0 436.6299999999998,123.9725397323957 C 434.8899999999998,124.3925397323957 433.8199999999998,125.5225397323957 432.16999999999985,126.4325397323957 C 430.95999999999987,127.0925397323957 429.58999999999986,127.6525397323957 428.4499999999998,128.43253973239567 A 82.0,82.0 0.0 0,0 424.8399999999998,139.12253973239567 C 423.6099999999998,143.97253973239566 424.1899999999998,149.06253973239566 422.8399999999998,153.90253973239567 C 422.1399999999998,156.36253973239567 421.0499999999998,158.24253973239567 418.4399999999998,158.67253973239568 A 16.06,16.06 0.0 0,0 418.6299999999998,163.35253973239568 A 6.67,6.67 0.0 0,0 421.7099999999998,164.2825397323957 C 422.8299999999998,164.3425397323957 425.4399999999998,163.9425397323957 424.5499999999998,165.7725397323957 C 423.82999999999976,167.2325397323957 420.5499999999998,167.5625397323957 418.0399999999998,167.6225397323957 C 418.6099999999998,168.54253973239568 419.2799999999998,169.5525397323957 418.3699999999998,170.38253973239568 A 4.26,4.26 0.0 0,1 415.64999999999975,170.82253973239568 C 414.0499999999997,175.32253973239568 410.03999999999974,171.01253973239568 407.35999999999973,169.24253973239567 A 13.0,13.0 0.0 0,1 401.35999999999973,161.08253973239567 C 400.8799999999997,159.15253973239567 400.83999999999975,157.08253973239567 400.4999999999997,155.1625397323957 A 54.18,54.18 0.0 0,1 399.4999999999997,149.4125397323957 C 399.1799999999997,144.80253973239567 399.5699999999997,140.63253973239568 398.2599999999997,136.1225397323957 C 397.3199999999997,132.88253973239568 396.3499999999997,129.6625397323957 395.2599999999997,126.4725397323957 A 5.06,5.06 0.0 0,1 392.66999999999973,128.26253973239568 C 392.66999999999973,127.8225397323957 392.4299999999997,127.45253973239569 392.4299999999997,127.0225397323957 C 391.7499999999997,127.2425397323957 390.78999999999974,129.2525397323957 390.4299999999997,129.9325397323957 C 390.15999999999974,128.7825397323957 389.9599999999997,127.7825397323957 389.59999999999974,126.6425397323957 A 21.64,21.64 0.0 0,0 387.44999999999976,136.5325397323957 C 386.90999999999974,135.6825397323957 386.2999999999998,134.88253973239568 385.72999999999973,134.0625397323957 C 384.84999999999974,132.79253973239568 384.94999999999976,132.0625397323957 384.8099999999997,130.5225397323957 C 384.5499999999997,131.1925397323957 383.7099999999997,132.7125397323957 382.8099999999997,132.2425397323957 C 382.0899999999997,131.8725397323957 382.3399999999997,130.2425397323957 382.0899999999997,129.7425397323957 C 381.3199999999997,130.5425397323957 381.0899999999997,131.8525397323957 380.0899999999997,132.5625397323957 A 3.89,3.89 0.0 0,1 379.4999999999997,130.3425397323957 C 378.1799999999997,130.7525397323957 378.4999999999997,132.51253973239568 377.5799999999997,133.3425397323957 C 376.2999999999997,134.5525397323957 377.0599999999997,132.6625397323957 376.0699999999997,131.9625397323957 C 375.3399999999997,133.1525397323957 375.0699999999997,135.0925397323957 374.0699999999997,136.0925397323957 C 372.6899999999997,137.4925397323957 373.3199999999997,135.3425397323957 372.1399999999997,134.6925397323957 C 371.35999999999973,135.54253973239568 370.8199999999997,137.64253973239568 369.3999999999997,137.45253973239568 C 369.2299999999997,136.74253973239567 368.8299999999997,135.93253973239567 368.1099999999997,135.84253973239566 C 367.88999999999965,137.04253973239565 364.4799999999997,140.63253973239566 363.30999999999966,140.59253973239566 C 363.23999999999967,139.59253973239566 363.45999999999964,138.35253973239566 362.76999999999964,137.68253973239567 C 362.48999999999967,138.26253973239568 361.44999999999965,139.48253973239568 360.76999999999964,139.52253973239567 C 359.76999999999964,139.52253973239567 360.1599999999996,138.52253973239567 359.21999999999963,138.05253973239567 A 18.23,18.23 0.0 0,1 357.00999999999965,142.27253973239567 C 356.9099999999996,141.27253973239567 356.4799999999997,140.27253973239567 356.42999999999967,139.20253973239568 C 355.05999999999966,142.0325397323957 352.20999999999964,142.52253973239567 349.9799999999997,144.63253973239568 C 350.29999999999967,143.38253973239568 351.1399999999997,142.01253973239568 350.8499999999997,140.63253973239568 C 348.4699999999997,141.26253973239568 345.9599999999997,143.2425397323957 344.2299999999997,144.9725397323957 A 9.0,9.0 0.0 0,1 343.87999999999965,142.70253973239568 C 342.6699999999997,144.42253973239568 341.87999999999965,146.62253973239567 340.57999999999964,148.1625397323957 C 340.4099999999996,147.7425397323957 340.19999999999965,146.8125397323957 339.94999999999965,145.85253973239568 C 337.46999999999963,149.4325397323957 333.94999999999965,151.7525397323957 330.12999999999965,153.92253973239568 C 329.6099999999997,160.27253973239567 328.4099999999996,166.40253973239567 327.54999999999967,172.75253973239566 C 326.4599999999997,180.80253973239567 327.7799999999997,188.81253973239566 327.67999999999967,196.86253973239567 C 327.57999999999964,204.9125397323957 329.06999999999965,212.7225397323957 328.74999999999966,220.86253973239567 C 328.44999999999965,228.56253973239566 327.0999999999997,236.27253973239567 330.01999999999964,243.60253973239568 C 331.92999999999967,248.3725397323957 338.06999999999965,253.60253973239568 340.6099999999996,258.5225397323957 C 347.4999999999996,256.14253973239573 359.9899999999996,254.7625397323957 365.6899999999996,258.4025397323957 C 367.6899999999996,259.6725397323957 372.9099999999996,265.9225397323957 372.0599999999996,268.51253973239574 C 371.2099999999996,271.10253973239577 364.8299999999996,271.31253973239575 361.1499999999996,271.12253973239575 C 358.1499999999996,274.07253973239574 353.4999999999996,271.80253973239576 349.1499999999996,272.2825397323958 A 134.94,134.94 0.0 0,1 335.09999999999957,273.2825397323958 C 330.80999999999955,273.2825397323958 325.5899999999996,272.6925397323958 324.2199999999996,268.0225397323958 C 323.60999999999956,265.9025397323958 323.55999999999955,263.8125397323958 322.2199999999996,261.9725397323958 C 321.0199999999996,260.3325397323958 319.2199999999996,259.10253973239577 317.7799999999996,257.6925397323958 C 314.6999999999996,254.69253973239577 313.67999999999955,250.92253973239576 311.5199999999996,247.43253973239578 C 309.4499999999996,246.7925397323958 307.29999999999956,243.6125397323958 306.8999999999996,242.24253973239578 C 305.8999999999996,238.8625397323958 306.5199999999996,234.9825397323958 306.3299999999996,231.50253973239577 C 306.1399999999996,228.26253973239577 305.0599999999996,225.20253973239576 304.3299999999996,222.00253973239577 C 303.5099999999996,218.37253973239578 303.5599999999996,214.69253973239577 302.9599999999996,211.00253973239577 C 302.35999999999956,207.31253973239578 301.0199999999996,204.31253973239578 300.1899999999996,200.8325397323958 C 299.1899999999996,196.78253973239578 299.1899999999996,192.59253973239578 297.8899999999996,188.62253973239578 C 296.6799999999996,184.8325397323958 294.8399999999996,181.25253973239577 293.47999999999956,177.52253973239578 C 292.17999999999955,173.97253973239577 290.9699999999996,170.31253973239578 289.56999999999954,166.81253973239578 C 288.3999999999995,163.8625397323958 286.56999999999954,161.13253973239577 285.73999999999955,158.04253973239577 A 47.62,47.62 0.0 0,1 284.63999999999953,152.92253973239576 C 281.7799999999995,153.49253973239576 278.8999999999995,152.12253973239575 276.07999999999953,151.11253973239576 C 274.4699999999995,153.94253973239577 272.30999999999955,159.75253973239577 271.68999999999954,161.00253973239577 C 269.57999999999953,165.22253973239577 268.90999999999957,169.90253973239578 268.37999999999954,174.50253973239577 C 267.30999999999955,183.62253973239578 266.1599999999995,192.66253973239577 265.6599999999995,201.89253973239576 C 265.4699999999995,205.23253973239576 265.6599999999995,209.89253973239576 264.6599999999995,213.42253973239576 A 23.75,23.75 0.0 0,1 264.1599999999995,223.79253973239577 C 262.6599999999995,228.94253973239577 258.7799999999995,232.79253973239577 254.0999999999995,235.13253973239577 C 249.4199999999995,237.47253973239577 244.6399999999995,239.97253973239577 239.9799999999995,242.76253973239577 C 235.3199999999995,245.55253973239576 229.8899999999995,246.17253973239576 224.9799999999995,248.53253973239578 C 220.2899999999995,250.78253973239578 217.18999999999951,252.8925397323958 212.4499999999995,251.18253973239578 C 207.9499999999995,255.24253973239578 201.1999999999995,254.60253973239577 195.6499999999995,252.68253973239578 C 195.4299999999995,251.32253973239577 197.3299999999995,250.50253973239577 197.8099999999995,249.32253973239577 C 198.1099999999995,248.58253973239576 198.09999999999948,247.38253973239577 198.3699999999995,246.41253973239577 C 196.8099999999995,244.21253973239578 196.62999999999948,241.34253973239578 198.9299999999995,239.31253973239578 C 200.4199999999995,237.99253973239578 204.0599999999995,235.6725397323958 206.6999999999995,235.48253973239576 C 207.3599999999995,233.48253973239576 210.1299999999995,232.76253973239577 211.77999999999952,232.00253973239577 C 214.29999999999953,230.8625397323958 216.48999999999953,229.46253973239578 219.24999999999952,228.8625397323958 C 223.8199999999995,227.8625397323958 227.24999999999952,224.1325397323958 231.89999999999952,223.0525397323958 A 41.23,41.23 0.0 0,1 237.00999999999954,222.7325397323958 C 238.00999999999954,219.3425397323958 240.21999999999954,214.99253973239578 243.26999999999953,212.90253973239578 C 242.78999999999954,211.40253973239578 242.62999999999954,209.6425397323958 242.32999999999953,208.2325397323958 A 34.12,34.12 0.0 0,1 241.59999999999954,201.1425397323958 C 241.59999999999954,196.78253973239578 241.86999999999955,192.31253973239578 241.59999999999954,187.96253973239578 C 241.32999999999953,183.6125397323958 240.42999999999955,179.0425397323958 240.14999999999955,174.50253973239577 C 239.86999999999955,169.96253973239575 239.89999999999955,165.78253973239578 238.94999999999956,161.59253973239578 C 238.46999999999957,159.44253973239577 237.94999999999956,157.28253973239578 237.45999999999955,155.16253973239577 C 237.23999999999955,154.23253973239576 236.91999999999956,153.31253973239578 236.62999999999954,152.38253973239577 A 12.39,12.39 0.0 0,1 231.17999999999955,152.27253973239576 C 231.17999999999955,152.49253973239576 231.11999999999955,152.71253973239575 231.09999999999954,152.93253973239575 A 2.74,2.74 0.0 0,1 228.45999999999955,152.21253973239575 A 21.0,21.0 0.0 0,0 227.17999999999955,154.40253973239575 C 226.10999999999956,153.88253973239574 225.99999999999955,152.61253973239576 225.05999999999955,152.05253973239576 C 223.86999999999955,151.35253973239577 223.34999999999954,152.11253973239576 222.36999999999955,152.37253973239575 C 221.38999999999956,152.63253973239574 221.57999999999956,152.87253973239575 220.36999999999955,152.56253973239575 C 219.42999999999955,152.32253973239574 219.13999999999956,151.56253973239575 217.86999999999955,151.77253973239576 C 216.86999999999955,151.94253973239574 217.60999999999956,152.71253973239575 216.23999999999955,152.32253973239577 C 215.09999999999957,152.00253973239577 215.01999999999956,150.97253973239577 213.61999999999955,151.02253973239576 C 212.87999999999954,151.02253973239576 212.47999999999956,151.85253973239577 211.40999999999954,151.76253973239577 C 210.33999999999952,151.67253973239576 209.62999999999954,150.76253973239577 208.53999999999954,150.82253973239577 C 208.63999999999953,151.39253973239576 208.60999999999953,152.02253973239576 208.75999999999954,152.64253973239576 C 207.38999999999953,151.73253973239576 206.48999999999953,150.23253973239576 204.64999999999952,150.58253973239576 C 204.58999999999952,150.93253973239575 204.36999999999952,151.13253973239577 204.30999999999952,151.48253973239576 C 202.6999999999995,151.36253973239576 202.70999999999952,148.99253973239576 201.01999999999953,149.63253973239577 C 200.18999999999951,149.95253973239576 200.69999999999953,151.45253973239576 199.46999999999952,150.92253973239576 C 199.08999999999952,150.76253973239577 198.77999999999952,148.98253973239576 198.71999999999952,148.63253973239577 C 196.6099999999995,148.93253973239578 197.2299999999995,152.55253973239576 194.8499999999995,150.63253973239577 C 194.0399999999995,149.99253973239578 194.3799999999995,148.46253973239578 192.96999999999952,149.01253973239577 C 192.51999999999953,149.17253973239576 192.01999999999953,150.56253973239578 191.8899999999995,150.96253973239575 C 190.9899999999995,150.31253973239575 190.0499999999995,149.11253973239576 188.8199999999995,149.32253973239577 C 188.8199999999995,149.86253973239576 188.49999999999952,150.16253973239577 188.5099999999995,150.71253973239575 C 187.4299999999995,150.71253973239575 186.1299999999995,149.07253973239577 185.0199999999995,148.56253973239575 A 11.43,11.43 0.0 0,0 182.90999999999948,147.81253973239575 A 33.41,33.41 0.0 0,1 176.2099999999995,160.81253973239575 C 174.2899999999995,162.98253973239574 171.8599999999995,164.57253973239574 170.0599999999995,166.88253973239574 A 32.5,32.5 0.0 0,0 166.22999999999948,174.11253973239573 C 163.56999999999948,180.20253973239573 159.67999999999947,184.02253973239573 155.54999999999947,189.04253973239574 C 153.60999999999947,191.40253973239575 152.64999999999947,194.32253973239574 151.46999999999946,197.10253973239574 C 150.35999999999945,199.66253973239574 148.55999999999946,201.93253973239575 147.57999999999947,204.51253973239574 A 35.45,35.45 0.0 0,0 145.75999999999948,212.90253973239575 C 145.54999999999947,214.69253973239574 145.75999999999948,217.90253973239575 145.12999999999948,219.78253973239575 A 44.0,44.0 0.0 0,0 150.5599999999995,225.26253973239574 C 153.9399999999995,228.43253973239572 156.4399999999995,232.26253973239574 159.2399999999995,235.93253973239572 A 32.66,32.66 0.0 0,0 167.6999999999995,243.93253973239572 C 169.43999999999951,245.09253973239572 171.1399999999995,245.42253973239573 172.96999999999952,246.3225397323957 C 174.79999999999953,247.2225397323957 176.5699999999995,248.90253973239572 178.32999999999953,250.0525397323957 C 180.24999999999952,251.3225397323957 183.05999999999952,253.0525397323957 184.71999999999952,255.2825397323957 C 187.02999999999952,255.9925397323957 188.45999999999952,257.75253973239575 189.98999999999953,260.0425397323957 C 191.25999999999954,261.9325397323957 193.17999999999952,264.7425397323957 193.86999999999952,266.89253973239573 C 195.3199999999995,271.4225397323957 190.60999999999953,269.24253973239576 188.29999999999953,269.38253973239574 C 185.15999999999954,269.57253973239574 183.36999999999952,272.9725397323957 179.95999999999952,272.7225397323957 C 177.54,272.4725397323957 175.38,270.6025397323957 173.51,268.8225397323957"/>
</svg>
