<?xml version="1.0" ?>
<svg xmlns="http://www.w3.org/2000/svg" xmlns:ev="http://www.w3.org/2001/xml-events" xmlns:xlink="http://www.w3.org/1999/xlink" baseProfile="full" height="358" transform="scale(0.27932960893854747 0.27932960893854747) translate(-202.5 -179.0)" version="1.1" viewBox="0 0 405 358" width="405">
	<defs/>
	<path d="M 293.9978169450902,296.54747558672085 A 74.0,74.0 0.0 0,1 291.59781694509024,304.10747558672085 C 290.48781694509023,307.60747558672085 289.9378169450902,309.2674755867209 286.4378169450902,310.37747558672083 C 282.7478169450902,311.66747558672085 274.0778169450902,313.87747558672083 273.7078169450902,318.85747558672085 A 6.43,6.43 0.0 0,0 270.7578169450902,322.17747558672085 C 269.8378169450902,324.5774755867208 272.04781694509023,325.86747558672084 274.4478169450902,326.22747558672086 A 6.74,6.74 0.0 0,0 274.2678169450902,330.47747558672086 C 276.1078169450902,330.83747558672087 278.1378169450902,330.10747558672085 280.1678169450902,329.36747558672084 C 280.5378169450902,331.5774755867208 281.2678169450902,333.60747558672085 283.1678169450902,333.05747558672084 C 284.4578169450902,332.68747558672084 287.4078169450902,330.10747558672085 288.87781694509016,328.05747558672084 C 291.0978169450902,328.23747558672085 293.4878169450902,328.05747558672084 295.14781694509014,326.9474755867208 C 297.36781694509017,325.4774755867208 298.2878169450901,322.5274755867208 300.31781694509016,320.67747558672085 C 303.26781694509015,318.28747558672086 304.7378169450902,317.91747558672085 304.36781694509017,313.67747558672085 A 36.26,36.26 0.0 0,1 308.05781694509017,296.67747558672085 C 311.37781694509016,297.41747558672085 314.87781694509016,298.67747558672085 317.64781694509014,299.62747558672083 C 321.33781694509014,300.73747558672085 324.2878169450901,303.68747558672084 327.64781694509014,305.7174755867208 A 94.47,94.47 0.0 0,1 337.0478169450901,313.2774755867208 C 341.65781694509013,317.3274755867208 349.0478169450901,323.0474755867208 351.9878169450901,329.49747558672084 C 350.8778169450901,333.37747558672083 346.6378169450901,336.3274755867208 343.4978169450901,338.71747558672087 C 339.0778169450901,342.03747558672086 339.2578169450901,344.2574755867209 341.2878169450901,348.30747558672084 A 14.51,14.51 0.0 0,0 341.4778169450901,353.30747558672084 C 342.39781694509014,356.30747558672084 344.4278169450901,355.30747558672084 346.63781694509015,354.04747558672085 C 346.81781694509016,354.96747558672087 347.00781694509016,356.04747558672085 347.18781694509016,356.99747558672084 A 3.32,3.32 0.0 0,0 349.0378169450902,357.17747558672085 A 18.87,18.87 0.0 0,1 352.9078169450902,353.17747558672085 C 353.8278169450902,354.46747558672087 355.11781694509017,355.75747558672083 356.2278169450902,355.75747558672083 C 358.61781694509017,355.93747558672084 359.5478169450902,352.61747558672084 360.8378169450902,350.9574755867208 C 363.9678169450902,347.0874755867208 366.9178169450902,342.6674755867208 365.9978169450902,337.12747558672083 C 368.3978169450902,335.28747558672086 370.60781694509024,333.80747558672084 368.2078169450902,329.3874755867208 C 365.9978169450902,325.1474755867208 362.4978169450902,321.8274755867208 360.0978169450902,317.7674755867208 C 360.4678169450902,314.0874755867208 356.9578169450902,311.86747558672084 354.74781694509016,308.5474755867208 C 349.2178169450902,300.6174755867208 344.05781694509017,292.5474755867208 339.07781694509015,284.2074755867208 C 333.3578169450901,274.62747558672083 323.58781694509014,279.5974755867208 315.2878169450901,275.7274755867208 A 13.0,13.0 0.0 0,0 315.83781694509014,270.5674755867208 C 315.1078169450901,266.8774755867208 311.59781694509013,267.2474755867208 308.64781694509014,267.4274755867208 C 303.64781694509014,267.7974755867208 299.06781694509016,269.2774755867208 294.45781694509014,266.8774755867208 C 296.45781694509014,265.58747558672076 298.87781694509016,264.4774755867208 300.71781694509014,263.1874755867208 L 294.08781694509014,262.63747558672077 C 297.0378169450901,260.63747558672077 299.6178169450901,258.94747558672077 301.82781694509015,255.99747558672075 A 7.83,7.83 0.0 0,1 295.74781694509016,256.9174755867208 C 296.2978169450902,255.62747558672078 297.58781694509014,254.33747558672076 297.95781694509014,252.91747558672077 C 295.95781694509014,253.28747558672077 293.52781694509014,253.83747558672076 291.68781694509016,252.72747558672077 C 294.26781694509015,252.35747558672077 295.00781694509016,249.40747558672078 297.0378169450902,248.11747558672076 C 294.0878169450902,247.74747558672075 291.1378169450902,248.11747558672076 288.36781694509017,247.74747558672075 C 290.20781694509014,246.08747558672076 292.42781694509017,244.61747558672076 293.5278169450902,242.21747558672075 C 290.9478169450902,241.66747558672074 288.1878169450902,242.58747558672076 285.4178169450902,241.29747558672076 C 288.7378169450902,239.82747558672077 290.5778169450902,237.23747558672076 293.3478169450902,234.84747558672078 C 289.6578169450902,234.65747558672078 284.49781694509016,233.3674755867208 281.17781694509017,235.3974755867208 C 282.2878169450902,234.4774755867208 283.17781694509017,233.3974755867208 284.30781694509017,232.3974755867208 C 282.64781694509014,231.84747558672078 279.88781694509015,232.21747558672078 278.2278169450902,232.3974755867208 A 11.61,11.61 0.0 0,0 279.6978169450902,229.81747558672078 C 278.0378169450902,229.62747558672078 276.5678169450902,230.18747558672078 274.9078169450902,229.99747558672078 A 4.63,4.63 0.0 0,0 275.2778169450902,227.2374755867208 A 6.65,6.65 0.0 0,0 271.9578169450902,227.2374755867208 A 8.53,8.53 0.0 0,1 276.1978169450902,224.46747558672078 C 271.1978169450902,224.09747558672078 266.9778169450902,225.38747558672077 262.5578169450902,222.99747558672078 C 260.5578169450902,221.88747558672077 257.5578169450902,219.1174755867208 254.8078169450902,217.27747558672078 A 31.17,31.17 0.0 0,1 263.10781694509024,217.27747558672078 C 267.16781694509024,217.6474755867208 273.6178169450902,218.3874755867208 276.7478169450902,220.96747558672078 A 13.71,13.71 0.0 0,1 275.2778169450902,214.50747558672077 C 279.1478169450902,215.98747558672076 281.17781694509017,220.96747558672078 285.2778169450902,222.25747558672077 A 50.61,50.61 0.0 0,1 284.9078169450902,216.90747558672078 C 287.6678169450902,218.74747558672078 289.6978169450902,221.33747558672079 292.6478169450902,222.99747558672078 C 291.7278169450902,221.1474755867208 292.0978169450902,218.93747558672078 292.6478169450902,216.90747558672078 A 27.13,27.13 0.0 0,0 301.1278169450902,224.09747558672078 C 305.9278169450902,226.6774755867208 311.2778169450902,227.60747558672077 316.6178169450902,228.8974755867208 C 314.77781694509025,227.78747558672077 314.22781694509024,224.46747558672078 313.6178169450902,222.2574755867208 C 316.7578169450902,222.9974755867208 320.4378169450902,225.0174755867208 323.3878169450902,226.1274755867208 A 14.33,14.33 0.0 0,1 320.3878169450902,219.48747558672082 C 325.73781694509023,225.57747558672082 332.9278169450902,225.01747558672082 339.9378169450902,227.41747558672083 C 337.53781694509024,225.57747558672082 332.1978169450902,223.54747558672082 333.1178169450902,219.67747558672082 A 17.92,17.92 0.0 0,0 337.53781694509024,220.9674755867208 A 4.64,4.64 0.0 0,0 336.8078169450902,218.7474755867208 C 339.3878169450902,220.2274755867208 342.5178169450902,220.04747558672082 345.28781694509024,220.7474755867208 C 344.3678169450902,219.2774755867208 343.8078169450902,217.61747558672081 342.88781694509026,216.1374755867208 C 346.75781694509027,217.2474755867208 351.5578169450903,219.08747558672079 356.16781694509024,220.0174755867208 C 355.4278169450902,218.0174755867208 354.5078169450902,215.0174755867208 353.21781694509025,213.18747558672078 C 355.97781694509024,215.58747558672079 359.84781694509024,217.4274755867208 363.16781694509024,218.90747558672078 C 367.22781694509024,220.56747558672078 371.09781694509024,222.40747558672078 374.96781694509025,224.43747558672078 C 371.83781694509025,222.22747558672077 370.91781694509024,217.6174755867208 369.25781694509027,214.43747558672078 A 19.9,19.9 0.0 0,1 373.6778169450903,216.65747558672078 C 375.1578169450903,217.57747558672077 376.26781694509026,219.2374755867208 377.9178169450903,219.97747558672077 C 376.81781694509027,217.57747558672077 375.1578169450903,213.88747558672077 373.1278169450903,212.04747558672076 C 375.33781694509025,212.59747558672078 377.9178169450903,214.43747558672075 379.76781694509026,215.72747558672077 C 379.39781694509026,214.07747558672077 378.10781694509024,210.93747558672078 376.76781694509026,209.82747558672077 C 380.08781694509025,211.67747558672076 383.76781694509026,213.70747558672076 387.27781694509025,215.36747558672076 C 386.16781694509024,213.36747558672076 385.98781694509023,211.11747558672076 384.32781694509026,209.27747558672075 C 387.45781694509026,210.19747558672074 390.59781694509024,212.04747558672076 393.5478169450903,213.33747558672076 C 392.06781694509027,211.11747558672076 392.4378169450903,207.24747558672075 388.7478169450903,206.51747558672076 C 395.01781694509026,207.24747558672075 401.1078169450903,211.67747558672076 404.6078169450903,216.65747558672078 C 403.4978169450903,211.1174755867208 401.6578169450903,206.5174755867208 397.6078169450903,202.2674755867208 C 393.9278169450903,198.3974755867208 390.6078169450903,196.7374755867208 385.6078169450903,195.0774755867208 C 387.44781694509027,193.7874755867208 391.3278169450903,193.4174755867208 393.5378169450903,194.1574755867208 A 32.48,32.48 0.0 0,0 385.6078169450903,190.0974755867208 C 383.7678169450903,189.5474755867208 380.9978169450903,188.4374755867208 378.4178169450903,188.2574755867208 A 35.06,35.06 0.0 0,0 380.25781694509027,182.3574755867208 A 98.93,98.93 0.0 0,1 369.9978169450902,186.2774755867208 A 38.34,38.34 0.0 0,0 373.1278169450902,174.2774755867208 C 372.2078169450902,177.0374755867208 368.3378169450902,178.88747558672083 365.7478169450902,180.54747558672082 A 86.45,86.45 0.0 0,1 355.79781694509023,185.88747558672083 A 10.72,10.72 0.0 0,0 358.9278169450902,179.25747558672083 A 43.14,43.14 0.0 0,1 342.33781694509025,184.78747558672083 C 343.6278169450903,183.12747558672083 345.83781694509025,179.98747558672082 344.72781694509024,177.59747558672083 C 340.6778169450902,181.59747558672083 334.03781694509024,181.09747558672083 328.5078169450902,182.38747558672083 A 8.0,8.0 0.0 0,0 331.8278169450902,178.32747558672082 C 330.7178169450902,178.32747558672082 329.4278169450902,179.06747558672083 328.3178169450902,179.25747558672083 C 326.3178169450902,179.80747558672084 324.3178169450902,179.80747558672084 322.04781694509023,180.17747558672082 C 318.91781694509024,180.54747558672082 315.22781694509024,180.17747558672082 312.46781694509025,181.8374755867208 C 313.56781694509027,179.98747558672082 314.1278169450903,177.7774755867208 315.04781694509023,175.9374755867208 C 310.04781694509023,177.2274755867208 305.45781694509026,180.54747558672082 300.29781694509023,181.4674755867208 C 300.10781694509024,179.0674755867208 301.76781694509026,176.4674755867208 302.1378169450902,174.2774755867208 C 300.4778169450902,175.0074755867208 295.4978169450902,179.4374755867208 293.6578169450902,178.88747558672083 C 291.99781694509016,178.32747558672082 293.8378169450902,172.24747558672084 292.36781694509017,170.5874755867208 C 291.25781694509016,172.0574755867208 285.17781694509017,174.0874755867208 280.92781694509017,175.9374755867208 A 28.32,28.32 0.0 0,0 281.4878169450902,165.6074755867208 C 280.56781694509016,170.0374755867208 277.05781694509017,173.5374755867208 274.2978169450902,176.8574755867208 C 274.8478169450902,175.0074755867208 276.2978169450902,172.05747558672078 274.6678169450902,170.3974755867208 C 274.1078169450902,172.9874755867208 271.8978169450902,175.3974755867208 270.2378169450902,177.2274755867208 C 270.05781694509017,175.5674755867208 270.7878169450902,173.5374755867208 269.49781694509016,172.0574755867208 C 269.12781694509016,174.0574755867208 266.36781694509017,176.11747558672081 264.88781694509015,177.5974755867208 C 265.44781694509015,174.0874755867208 266.36781694509017,168.5974755867208 263.4178169450901,165.5974755867208 C 262.4978169450901,168.5974755867208 262.1278169450901,171.4974755867208 260.27781694509014,174.2674755867208 C 258.8078169450901,176.65747558672078 256.77781694509014,178.8774755867208 255.48781694509012,181.4574755867208 C 254.7478169450901,179.9774755867208 255.48781694509012,177.02747558672078 253.63781694509012,176.2874755867208 C 251.98781694509012,181.2874755867208 248.84781694509013,186.0674755867208 245.71781694509014,190.2874755867208 A 28.62,28.62 0.0 0,0 244.78781694509013,186.4174755867208 C 243.68781694509013,187.1474755867208 242.94781694509012,189.7374755867208 242.20781694509012,191.0274755867208 A 57.0,57.0 0.0 0,0 238.88781694509012,196.5574755867208 A 13.06,13.06 0.0 0,0 238.15781694509013,192.86747558672081 C 236.67781694509014,195.63747558672083 235.38781694509012,199.13747558672083 232.80781694509014,200.79747558672082 C 232.61781694509014,199.50747558672083 233.35781694509015,198.2174755867208 232.61781694509014,197.10747558672082 C 230.03781694509013,198.95747558672082 227.45781694509014,200.79747558672082 224.69781694509015,202.45747558672082 A 9.94,9.94 0.0 0,0 225.05781694509017,197.8474755867208 C 223.76781694509017,198.5874755867208 222.84781694509016,200.42747558672082 221.37781694509016,201.3474755867208 A 35.2,35.2 0.0 0,1 216.20781694509017,204.11747558672081 A 12.65,12.65 0.0 0,1 216.39781694509017,201.5374755867208 C 213.25781694509018,204.11747558672081 208.64781694509017,204.4874755867208 204.59781694509016,204.11747558672081 C 203.30781694509017,203.92747558672082 194.81781694509016,203.5574755867208 189.65781694509016,203.3774755867208 A 10.13,10.13 0.0 0,0 191.50781694509016,197.4774755867208 C 189.10781694509015,197.8474755867208 186.70781694509014,200.2474755867208 184.30781694509017,200.7974755867208 C 184.49781694509016,198.21747558672078 186.30781694509017,195.7974755867208 186.30781694509017,193.0474755867208 C 185.20781694509017,196.9274755867208 180.40781694509016,197.4774755867208 177.45781694509017,198.21747558672078 C 178.74781694509016,196.21747558672078 180.03781694509019,194.52747558672078 179.85781694509018,191.94747558672077 C 178.3778169450902,192.68747558672078 176.7178169450902,193.78747558672077 175.05781694509017,193.60747558672077 C 175.05781694509017,191.60747558672077 177.45781694509017,189.91747558672077 177.64781694509017,187.70747558672076 A 16.61,16.61 0.0 0,1 171.74781694509016,190.09747558672075 A 30.25,30.25 0.0 0,0 173.19781694509018,181.9974755867208 C 171.19781694509018,183.8474755867208 169.69781694509018,185.6874755867208 166.92781694509017,186.0574755867208 A 30.05,30.05 0.0 0,1 169.32781694509018,179.23747558672082 C 167.66781694509018,180.88747558672083 164.89781694509017,181.6274755867208 162.32781694509018,181.6274755867208 A 17.07,17.07 0.0 0,0 164.32781694509018,175.7274755867208 C 162.8478169450902,176.0974755867208 161.19781694509018,177.5774755867208 159.89781694509017,178.3074755867208 A 14.87,14.87 0.0 0,0 161.00781694509018,173.3074755867208 C 159.89781694509017,173.86747558672081 159.16781694509018,175.3074755867208 158.0578169450902,176.07747558672082 C 158.0578169450902,174.07747558672082 158.7978169450902,172.20747558672082 158.7978169450902,170.17747558672082 C 157.31781694509021,170.91747558672083 156.0278169450902,172.38747558672083 154.3678169450902,172.57747558672082 C 154.3678169450902,170.72747558672083 155.6578169450902,169.25747558672083 155.6578169450902,167.22747558672083 C 153.8178169450902,166.85747558672082 152.3378169450902,169.06747558672083 150.3178169450902,168.51747558672082 C 152.1578169450902,166.51747558672082 153.44781694509018,164.64747558672082 153.44781694509018,161.87747558672083 C 150.86781694509017,162.24747558672084 148.6578169450902,164.64747558672084 145.88781694509018,163.72747558672083 C 146.6278169450902,161.87747558672083 148.4678169450902,160.58747558672084 149.02781694509017,158.55747558672084 A 24.63,24.63 0.0 0,0 149.94781694509015,152.28747558672083 C 146.80781694509017,154.13747558672083 144.22781694509015,155.60747558672082 140.72781694509015,156.34747558672083 C 142.01781694509015,154.13747558672083 143.48781694509015,152.10747558672082 142.72781694509015,149.52747558672084 C 141.24781694509016,150.44747558672083 139.95781694509014,152.10747558672085 138.29781694509015,152.84747558672083 A 30.52,30.52 0.0 0,1 138.29781694509015,148.78747558672083 C 137.18781694509013,148.78747558672083 135.89781694509014,151.55747558672084 134.79781694509015,152.28747558672083 C 134.97781694509015,149.52747558672084 136.26781694509015,146.38747558672083 134.42781694509014,143.99747558672084 A 20.27,20.27 0.0 0,1 129.07781694509015,151.55747558672084 C 129.26781694509015,149.89747558672084 129.99781694509014,148.41747558672085 129.62781694509016,146.75747558672083 A 4.48,4.48 0.0 0,1 125.94781694509015,149.52747558672084 A 7.1,7.1 0.0 0,1 123.94781694509015,149.70747558672085 A 12.67,12.67 0.0 0,0 125.41781694509015,146.20747558672085 C 123.75781694509016,146.01747558672085 119.88781694509015,146.20747558672085 119.14781694509016,144.72747558672086 A 14.0,14.0 0.0 0,0 124.14781694509016,141.04747558672085 C 122.30781694509015,140.30747558672084 119.72781694509015,139.19747558672086 118.98781694509016,137.16747558672085 C 120.45781694509016,136.98747558672085 123.22781694509015,136.24747558672087 124.33781694509015,134.95747558672085 A 11.1,11.1 0.0 0,1 117.87781694509016,130.89747558672084 A 11.59,11.59 0.0 0,1 119.87781694509016,129.79747558672085 A 36.88,36.88 0.0 0,1 117.29781694509016,127.02747558672087 C 116.92781694509016,126.47747558672087 116.74781694509016,126.10747558672087 116.37781694509016,125.55747558672087 C 118.95781694509016,126.29747558672086 122.08781694509015,126.29747558672086 123.01781694509016,125.18747558672086 A 20.83,20.83 0.0 0,1 119.69781694509017,122.97747558672087 A 20.0,20.0 0.0 0,1 117.11781694509017,119.09747558672088 A 11.94,11.94 0.0 0,0 123.37781694509017,120.38747558672088 C 120.98781694509017,118.73747558672088 118.77781694509018,118.38747558672088 116.92781694509017,115.59747558672088 C 115.45781694509017,113.59747558672088 113.23781694509017,110.80747558672087 113.97781694509017,108.03747558672087 C 115.08781694509017,108.21747558672088 116.37781694509017,109.14747558672087 117.66781694509017,108.95747558672088 C 116.37781694509016,107.11747558672087 114.34781694509017,105.63747558672088 113.42781694509017,103.42747558672087 C 114.71781694509018,103.42747558672087 115.81781694509017,104.34747558672088 116.92781694509017,104.71747558672088 C 115.81781694509017,103.42747558672087 114.52781694509017,102.13747558672088 113.42781694509017,100.84747558672088 C 112.68781694509018,99.92747558672087 111.94781694509017,98.63747558672088 111.02781694509017,97.52747558672088 A 6.11,6.11 0.0 0,1 109.9978169450902,96.47747558672083 A 3.23,3.23 0.0 0,1 111.10781694509019,97.58747558672083 C 113.5078169450902,99.42747558672083 116.45781694509019,99.06747558672083 119.21781694509019,98.87747558672083 C 117.0078169450902,97.76747558672083 112.3978169450902,94.26747558672083 111.84781694509019,91.50747558672083 C 112.94781694509018,91.31747558672083 113.84781694509019,91.86747558672083 114.97781694509018,92.05747558672083 C 112.76781694509019,89.84747558672083 110.18781694509018,87.99747558672082 108.15781694509019,85.59747558672083 C 110.36781694509018,86.89747558672083 114.0578169450902,85.96747558672084 116.26781694509019,87.07747558672084 C 114.97781694509018,85.96747558672084 113.87781694509019,84.86747558672084 112.58781694509018,83.57747558672084 C 111.65781694509018,82.46747558672084 108.52781694509018,80.06747558672083 108.33781694509018,78.77747558672084 C 109.26781694509019,78.77747558672084 110.33781694509018,78.96747558672084 111.33781694509018,78.96747558672084 C 109.67781694509019,77.30747558672084 107.64781694509018,75.08747558672084 105.61781694509018,74.16747558672084 C 108.37781694509019,74.16747558672084 110.40781694509019,75.27747558672084 112.80781694509018,75.64747558672084 C 110.03781694509019,73.79747558672085 107.64781694509018,71.40747558672085 104.69781694509018,69.92747558672085 C 103.40781694509018,69.18747558672085 101.92781694509019,69.00747558672084 100.63781694509018,68.08747558672084 A 5.45,5.45 0.0 0,1 99.16781694509018,66.60747558672084 A 34.11,34.11 0.0 0,0 106.72781694509018,66.60747558672084 C 109.30781694509018,66.42747558672083 111.72781694509018,65.31747558672083 114.28781694509019,64.39747558672084 C 116.12781694509019,65.31747558672085 118.28781694509019,66.05747558672084 120.36781694509018,65.50747558672084 C 123.36781694509018,64.76747558672085 122.36781694509018,63.28747558672084 120.73781694509019,61.447475586720834 C 119.07781694509019,59.447475586720834 118.15781694509019,57.20747558672083 116.67781694509019,54.99747558672083 C 114.67781694509019,51.85747558672083 111.14781694509018,48.35747558672083 107.67781694509019,46.877475586720834 A 7.0,7.0 0.0 0,0 108.59781694509019,41.53747558672084 C 107.11781694509018,40.60747558672084 104.53781694509019,40.60747558672084 102.69781694509018,40.42747558672084 A 37.0,37.0 0.0 0,1 96.60781694509018,39.13747558672084 A 33.38,33.38 0.0 0,0 87.20781694509017,37.65747558672084 A 58.3,58.3 0.0 0,0 80.20781694509017,32.86747558672084 A 53.0,53.0 0.0 0,0 71.20781694509017,28.067475586720843 A 24.67,24.67 0.0 0,1 63.27781694509017,23.277475586720843 C 60.13781694509017,20.507475586720844 57.377816945090174,19.217475586720845 53.27781694509017,20.877475586720845 A 21.93,21.93 0.0 0,1 46.45781694509017,22.727475586720846 A 76.0,76.0 0.0 0,1 33.61781694509019,12.39747558672082 C 30.997816945090197,9.63747558672082 27.897816945090195,7.997475586720818 25.127816945090196,5.577475586720818 C 22.917816945090195,3.7274755867208182 22.367816945090194,0.5774755867208184 19.227816945090193,0.047475586720818204 C 16.277816945090198,-0.32252441327918163 14.997816945090197,1.5174755867208185 14.617816945090196,3.917475586720818 C 11.857816945090196,3.7274755867208182 9.997816945090197,7.047475586720818 9.997816945090197,9.81747558672082 C 10.187816945090196,11.47747558672082 11.297816945090197,13.31747558672082 12.217816945090197,14.97747558672082 A 6.54,6.54 0.0 0,0 9.447816945090198,19.977475586720818 C 10.187816945090198,20.34747558672082 10.927816945090198,20.89747558672082 11.657816945090197,21.267475586720817 C 10.557816945090197,23.667475586720816 6.867816945090197,29.937475586720815 11.297816945090197,27.727475586720818 A 49.88,49.88 0.0 0,1 16.997816945090197,25.11747558672082 A 12.66,12.66 0.0 0,0 17.9178169450902,28.62747558672082 A 4.23,4.23 0.0 0,0 19.5778169450902,30.46747558672082 C 19.027816945090198,32.31747558672082 18.1078169450902,35.81747558672082 18.657816945090197,36.92747558672082 A 15.15,15.15 0.0 0,0 22.897816945090195,37.28747558672082 C 22.897816945090195,38.577475586720816 22.527816945090194,40.05747558672082 23.267816945090196,41.16747558672082 C 24.007816945090195,42.45747558672082 25.107816945090196,42.45747558672082 26.217816945090195,42.26747558672082 C 26.217816945090195,43.92747558672082 26.407816945090197,46.13747558672082 27.137816945090197,47.26747558672082 A 3.4,3.4 0.0 0,0 29.357816945090196,48.55747558672082 C 29.907816945090197,51.69747558672082 28.797816945090197,55.74747558672082 28.797816945090197,58.55747558672082 A 27.8,27.8 0.0 0,1 28.447816945090196,63.99747558672082 C 28.267816945090196,64.73747558672082 28.267816945090196,66.39747558672083 27.897816945090195,67.68747558672082 C 26.237816945090195,67.86747558672083 24.207816945090194,67.31747558672082 23.107816945090196,68.42747558672082 C 22.367816945090198,69.15747558672082 21.997816945090197,71.18747558672082 21.997816945090197,72.84747558672082 C 20.887816945090197,72.66747558672081 18.677816945090196,73.03747558672082 18.127816945090196,73.58747558672081 C 17.207816945090194,74.32747558672081 17.207816945090194,75.58747558672081 17.017816945090196,76.71747558672081 C 15.357816945090196,75.79747558672081 12.777816945090196,74.71747558672081 11.857816945090196,75.4274755867208 C 11.117816945090196,75.9874755867208 10.567816945090197,77.82747558672081 10.377816945090196,79.4874755867208 C 9.277816945090196,78.3774755867208 7.987816945090195,77.0874755867208 7.247816945090196,76.9074755867208 C 6.137816945090195,76.5374755867208 5.5878169450901956,77.27747558672081 5.247816945090196,78.3774755867208 C 3.377816945090196,75.45747558672082 0.6078169450901962,70.66747558672083 0.05781694509019624,75.99747558672082 C -0.31218305490980375,79.49747558672082 1.1578169450901963,82.44747558672083 2.6378169450901963,85.57747558672082 C -3.452183054909804,90.39747558672083 2.997816945090196,95.74747558672082 7.247816945090197,99.42747558672083 C 10.007816945090196,102.01747558672083 11.667816945090197,99.79747558672084 14.067816945090197,97.76747558672083 C 16.467816945090195,95.73747558672083 19.597816945090198,94.45747558672083 22.367816945090198,92.76747558672083 A 9.0,9.0 0.0 0,1 28.447816945090196,90.99747558672082 C 27.347816945090194,92.84747558672082 26.447816945090196,95.42747558672083 24.577816945090195,97.08747558672083 C 22.577816945090195,98.92747558672083 20.337816945090193,100.58747558672083 18.127816945090196,102.24747558672082 C 19.417816945090195,102.24747558672082 21.077816945090195,102.24747558672082 21.997816945090197,102.98747558672082 C 19.597816945090198,103.16747558672083 16.837816945090196,106.48747558672082 15.357816945090196,108.14747558672082 A 28.94,28.94 0.0 0,0 11.357816945090196,114.59747558672082 A 15.2,15.2 0.0 0,1 16.887816945090197,113.30747558672081 C 14.307816945090197,115.88747558672081 12.087816945090196,119.02747558672081 11.537816945090198,122.71747558672081 C 13.937816945090198,121.97747558672081 15.957816945090197,120.86747558672081 18.357816945090196,120.86747558672081 C 14.667816945090197,124.37747558672082 11.537816945090196,127.69747558672081 11.717816945090195,133.4074755867208 C 12.827816945090195,132.3074755867208 15.037816945090196,132.3074755867208 16.517816945090196,132.3074755867208 C 11.907816945090197,135.3074755867208 11.517816945090196,143.54747558672082 11.357816945090196,148.3074755867208 C 13.747816945090197,147.9374755867208 15.037816945090196,144.0674755867208 17.807816945090195,143.6974755867208 C 14.807816945090195,145.6974755867208 14.487816945090195,151.9974755867208 14.487816945090195,155.3074755867208 C 16.147816945090195,154.01747558672082 15.957816945090196,151.2574755867208 18.547816945090194,150.6974755867208 A 13.2,13.2 0.0 0,0 16.327816945090195,157.6974755867208 C 17.807816945090195,157.8874755867208 18.727816945090193,156.0374755867208 20.207816945090194,156.0374755867208 C 19.647816945090195,157.8874755867208 18.357816945090192,159.7274755867208 17.987816945090195,161.5674755867208 C 18.917816945090195,161.3874755867208 19.467816945090195,160.64747558672082 20.567816945090197,160.8374755867208 C 20.567816945090197,163.7874755867208 17.9878169450902,168.57747558672082 16.147816945090195,170.60747558672082 C 18.357816945090196,171.34747558672083 19.467816945090195,169.68747558672084 21.147816945090195,168.60747558672082 C 21.147816945090195,168.97747558672083 20.957816945090194,169.34747558672083 20.957816945090194,169.71747558672084 A 38.0,38.0 0.0 0,1 18.747816945090193,176.16747558672083 A 8.3,8.3 0.0 0,1 24.647816945090195,177.0874755867208 C 20.587816945090196,178.3774755867208 15.427816945090195,180.7774755867208 13.217816945090195,184.4674755867208 C 15.217816945090195,184.0974755867208 16.717816945090195,183.54747558672082 18.937816945090194,183.9174755867208 C 16.937816945090194,185.0174755867208 13.397816945090195,188.1574755867208 13.587816945090195,190.9174755867208 A 9.41,9.41 0.0 0,1 20.037816945090196,188.5174755867208 C 17.827816945090195,192.9474755867208 16.167816945090195,197.18747558672078 16.347816945090194,202.3474755867208 C 18.197816945090196,199.7674755867208 19.487816945090195,196.2674755867208 23.727816945090193,197.0074755867208 A 27.51,27.51 0.0 0,0 22.80781694509019,203.6374755867208 C 24.27781694509019,202.7174755867208 25.56781694509019,201.05747558672078 27.227816945090193,200.3274755867208 C 27.227816945090193,202.9074755867208 26.677816945090193,205.6674755867208 27.417816945090195,208.0674755867208 C 27.967816945090195,206.7774755867208 28.517816945090196,205.4874755867208 29.627816945090196,204.9374755867208 C 29.997816945090197,207.6974755867208 28.337816945090196,212.8574755867208 29.807816945090195,215.0774755867208 A 14.88,14.88 0.0 0,1 32.75781694509019,209.1774755867208 C 34.60781694509019,216.9174755867208 34.97781694509019,225.02747558672078 37.55781694509019,232.77747558672078 C 40.317816945090186,240.8874755867208 44.19781694509019,248.2674755867208 46.037816945090185,256.56747558672083 C 47.69781694509018,263.93747558672084 49.90781694509018,270.9474755867208 51.037816945090185,278.50747558672083 C 51.95781694509019,285.87747558672083 52.69781694509018,292.8874755867208 53.247816945090186,300.0774755867208 C 53.61781694509018,304.31747558672083 54.16781694509019,308.55747558672084 54.72781694509018,312.61747558672084 A 50.89,50.89 0.0 0,0 56.10781694509019,319.99747558672084 A 12.07,12.07 0.0 0,1 51.10781694509019,327.55747558672084 C 47.97781694509019,329.7674755867208 45.207816945090194,332.16747558672085 42.10781694509019,334.18747558672084 C 39.89781694509019,333.81747558672083 37.86781694509019,333.2674755867208 36.207816945090194,334.55747558672084 C 33.43781694509019,336.77747558672087 35.097816945090194,341.74747558672084 36.207816945090194,344.55747558672084 C 38.0478169450902,344.92747558672085 39.707816945090194,343.2674755867208 41.3678169450902,343.2674755867208 C 41.1878169450902,345.2674755867208 40.9978169450902,347.87747558672083 42.4778169450902,348.2674755867208 C 43.5778169450902,348.6374755867208 45.4778169450902,347.3474755867208 47.267816945090196,346.7874755867208 A 10.44,10.44 0.0 0,0 47.457816945090194,351.5874755867208 C 49.2978169450902,351.9574755867208 51.32781694509019,351.9574755867208 53.167816945090195,352.1374755867208 C 52.987816945090195,355.2674755867208 53.35781694509019,358.0374755867208 57.597816945090194,357.1374755867208 A 28.55,28.55 0.0 0,0 66.59781694509019,353.62747558672083 A 14.81,14.81 0.0 0,0 73.59781694509019,353.62747558672083 C 77.28781694509019,352.3374755867208 77.28781694509019,348.28747558672086 77.46781694509019,344.9674755867208 C 77.8378169450902,340.9074755867208 78.3878169450902,337.9674755867208 80.78781694509019,334.8274755867208 C 83.36781694509018,331.31747558672083 83.18781694509019,329.1074755867208 82.62781694509019,324.8274755867208 C 82.26781694509019,321.87747558672083 82.44781694509018,318.73747558672085 81.70781694509019,315.9774755867208 C 82.62781694509019,314.3174755867208 83.70781694509019,313.3974755867208 84.84781694509019,314.1374755867208 C 84.47781694509018,312.1374755867208 85.0278169450902,309.3374755867208 85.0278169450902,307.1374755867208 A 9.66,9.66 0.0 0,0 86.87781694509019,309.1374755867208 C 86.31781694509019,307.1374755867208 85.57781694509019,303.5974755867208 86.1378169450902,301.3874755867208 C 87.0578169450902,302.12747558672083 87.9778169450902,303.23747558672085 88.8978169450902,303.9674755867208 C 88.3478169450902,301.5774755867208 87.2378169450902,298.06747558672083 87.60781694509019,295.4874755867208 C 89.0878169450902,296.5974755867208 90.18781694509019,298.0674755867208 91.48781694509019,299.1774755867208 C 90.92781694509019,296.5974755867208 89.82781694509019,292.5374755867208 90.55781694509018,289.95747558672076 C 92.03781694509019,290.13747558672077 92.55781694509018,291.6174755867208 94.06781694509019,292.35747558672074 C 93.69781694509018,290.5074755867207 92.58781694509018,288.11747558672073 92.58781694509018,286.26747558672076 C 93.69781694509018,286.82747558672077 94.79781694509018,287.7474755867208 95.72781694509018,288.26747558672076 A 39.66,39.66 0.0 0,0 93.32781694509018,280.33747558672076 C 94.61781694509018,280.33747558672076 95.53781694509017,281.07747558672077 96.64781694509017,281.8174755867208 A 49.0,49.0 0.0 0,1 94.9978169450902,270.54747558672085 A 6.76,6.76 0.0 0,1 96.2878169450902,272.3874755867208 C 98.4978169450902,275.3374755867208 100.7078169450902,278.8474755867208 103.8478169450902,280.50747558672083 A 7.56,7.56 0.0 0,1 103.8478169450902,276.99747558672084 C 105.13781694509021,278.47747558672086 107.3478169450902,281.23747558672085 109.1978169450902,281.60747558672085 C 108.4578169450902,279.9474755867208 107.90781694509019,278.47747558672086 108.4578169450902,276.60747558672085 C 111.0378169450902,278.8274755867209 113.9878169450902,281.9574755867209 117.1278169450902,283.24747558672084 C 116.38781694509021,281.5874755867208 116.7578169450902,279.74747558672084 116.9378169450902,278.0874755867208 C 118.9378169450902,280.4874755867208 122.4678169450902,284.7274755867208 125.6078169450902,285.0874755867208 C 125.41781694509021,283.6074755867208 124.6878169450902,282.1374755867208 124.86781694509021,280.4774755867208 C 128.3678169450902,283.9774755867208 132.6078169450902,285.2674755867208 136.2978169450902,288.0374755867208 C 136.2978169450902,286.5574755867208 135.1978169450902,285.4474755867208 135.7478169450902,283.7974755867208 C 138.3278169450902,284.5274755867208 140.53781694509019,287.1074755867208 143.3078169450902,287.1074755867208 C 143.4878169450902,285.8174755867208 143.1178169450902,284.5274755867208 143.3078169450902,283.2374755867208 C 145.3078169450902,284.1574755867208 147.5478169450902,285.63747558672077 149.75781694509018,286.0074755867208 A 9.85,9.85 0.0 0,1 148.8378169450902,282.6874755867208 C 151.4178169450902,282.8674755867208 154.5578169450902,285.26747558672076 156.5878169450902,286.7474755867208 A 3.76,3.76 0.0 0,1 156.0278169450902,283.6074755867208 C 158.0278169450902,284.3474755867208 160.8278169450902,286.3774755867208 162.8478169450902,286.5574755867208 A 11.13,11.13 0.0 0,1 161.7478169450902,282.3174755867208 A 65.53,65.53 0.0 0,1 167.8278169450902,285.63747558672077 A 14.26,14.26 0.0 0,0 166.5378169450902,281.94747558672077 C 169.11781694509023,283.6074755867208 173.3578169450902,284.71747558672075 176.5378169450902,285.26747558672076 C 175.4278169450902,283.79747558672074 173.21781694509022,281.57747558672077 172.84781694509022,279.3674755867208 A 40.55,40.55 0.0 0,0 183.3578169450902,279.7374755867208 C 186.6778169450902,279.5474755867208 190.7378169450902,277.5274755867208 194.2378169450902,276.9674755867208 A 14.19,14.19 0.0 0,0 196.6378169450902,282.31747558672083 C 198.84781694509022,284.5274755867208 202.34781694509022,283.05747558672084 204.93781694509022,282.1374755867208 C 208.43781694509022,281.2074755867208 211.56781694509021,279.54747558672085 214.93781694509022,278.25747558672083 C 216.59781694509022,277.5274755867208 218.4478169450902,276.5974755867208 220.2878169450902,275.86747558672084 A 52.54,52.54 0.0 0,0 230.2878169450902,283.79747558672085 C 248.6178169450902,295.43747558672084 273.1378169450902,298.3874755867208 293.9978169450902,296.54747558672085"/>
</svg>
