<?xml version="1.0" ?>
<svg xmlns="http://www.w3.org/2000/svg" xmlns:ev="http://www.w3.org/2001/xml-events" xmlns:xlink="http://www.w3.org/1999/xlink" baseProfile="full" height="111" transform="scale(1.2345679012345678 1.2345679012345678) translate(-40.5 -55.5)" version="1.1" viewBox="0 0 81 111" width="81">
	<defs/>
	<path class="cls-2" d="M 7.671953978560863,98.88 L 9.911953978560863,103.58999999999999 L 11.141953978560863,96.29999999999998 L 12.711953978560864,97.63999999999999 L 13.711953978560864,90.90999999999998 A 18.8,18.8 0.0 0,0 7.661953978560864,98.90999999999998 M 66.76195397856087,92.36 L 65.19195397856087,92.48 C 65.19195397856087,92.48 63.291953978560876,86.98 63.291953978560876,84.62 C 63.291953978560876,82.26 63.291953978560876,68.46000000000001 64.07195397856087,65.32000000000001 C 64.85195397856086,62.18000000000001 66.65195397856087,58.92000000000001 66.76195397856087,57.120000000000005 C 66.76195397856087,57.120000000000005 64.18195397856087,59.370000000000005 62.281953978560864,60.940000000000005 A 3.49,3.49 0.0 0,0 60.93195397856086,63.410000000000004 C 60.601953978560864,65.76 60.031953978560864,70.7 59.47195397856086,77.22 L 59.47195397856086,84.28999999999999 L 60.15195397856086,90.8 A 5.13,5.13 0.0 0,1 64.00195397856086,96.07 L 68.49195397856086,96.07 C 68.49195397856086,96.17999999999999 69.96195397856086,93.6 66.81195397856085,92.36 M 65.19195397856086,12.12 L 65.53195397856086,9.76 L 66.76195397856087,9.0 C 66.76195397856087,12.34 65.19195397856086,12.12 65.19195397856086,12.12 M 80.00195397856086,13.91 C 81.57195397856086,12.34 80.00195397856086,8.91 80.00195397856086,8.91 C 80.00195397856086,8.91 76.30195397856086,12.0 75.73195397856087,11.22 C 75.16195397856087,10.440000000000001 77.64195397856086,7.74 76.85195397856086,4.0 A 4.7,4.7 0.0 0,0 72.85195397856086,0.0 L 68.11195397856086,6.17 A 4.81,4.81 0.0 0,1 65.11195397856086,8.07 C 61.18195397856086,8.870000000000001 58.83195397856086,13.91 58.27195397856086,15.379999999999999 A 84.33,84.33 0.0 0,1 51.20195397856086,20.31 C 50.87195397856086,20.529999999999998 52.55195397856086,22.11 55.69195397856086,22.11 A 17.0,17.0 0.0 0,0 60.06195397856086,21.11 A 8.84,8.84 0.0 0,1 54.571953978560856,23.689999999999998 A 41.0,41.0 0.0 0,1 50.20195397856086,28.4 A 3.07,3.07 0.0 0,0 49.53195397856086,28.959999999999997 A 83.0,83.0 0.0 0,1 41.891953978560856,32.959999999999994 A 13.71,13.71 0.0 0,0 45.041953978560855,33.07999999999999 A 26.0,26.0 0.0 0,1 41.67195397856086,35.65999999999999 C 33.261953978560854,40.47999999999999 22.501953978560856,44.65999999999999 11.501953978560856,51.58999999999999 C 0.5019539785608558,58.51999999999999 1.3919539785608628,82.15 1.3919539785608628,82.15 C 1.3919539785608628,82.15 3.181953978560863,81.0 6.211953978560863,74.52 A 27.16,27.16 0.0 0,1 5.431953978560863,64.08 C 5.431953978560863,64.08 6.661953978560863,71.6 8.671953978560863,74.0 C 8.221953978560864,78.22 0.9419539785608628,87.54 0.9419539785608628,87.54 A 70.37,70.37 0.0 0,0 0.7119539785608628,109.0 A 1.23,1.23 0.0 0,0 2.001953978560863,110.0 L 9.461953978560864,110.0 A 1.29,1.29 0.0 0,0 10.801953978560864,108.65 A 3.0,3.0 0.0 0,0 10.471953978560864,107.42 C 9.801953978560864,105.85000000000001 6.101953978560863,105.28 6.101953978560863,105.28 L 6.101953978560863,101.58 C 5.651953978560863,92.0 17.431953978560863,86.19 21.681953978560863,82.15 C 25.931953978560863,78.11000000000001 33.68195397856086,63.64 33.68195397856086,63.64 L 30.31195397856086,72.72 A 45.41,45.41 0.0 0,1 40.311953978560865,66.78 A 97.35,97.35 0.0 0,0 49.171953978560865,62.620000000000005 C 49.741953978560865,65.32000000000001 50.75195397856086,75.31 51.171953978560865,80.69 A 23.51,23.51 0.0 0,1 51.00195397856086,86.31 A 6.38,6.38 0.0 0,0 51.561953978560865,90.46000000000001 C 52.91195397856087,98.77000000000001 56.61195397856086,96.07000000000001 58.851953978560864,96.63000000000001 C 61.091953978560866,97.19000000000001 62.55195397856087,95.85000000000001 62.33195397856086,94.72000000000001 C 62.111953978560855,93.59000000000002 60.93195397856086,92.6 58.80195397856086,92.0 C 56.67195397856086,91.4 56.67195397856086,88.3 57.46195397856086,84.82 C 58.251953978560856,81.33999999999999 57.791953978560855,61.919999999999995 60.46195397856086,59.67999999999999 C 66.52195397856086,54.61999999999999 65.28195397856086,56.309999999999995 69.77195397856086,48.67999999999999 A 35.51,35.51 0.0 0,0 73.91195397856086,39.03999999999999 L 74.48195397856085,40.489999999999995 C 75.83195397856085,37.91 75.26195397856085,32.97 75.04195397856085,31.969999999999995 C 75.15195397856085,30.619999999999994 75.26195397856085,29.269999999999996 75.26195397856085,27.699999999999996 C 75.49195397856086,22.699999999999996 78.40195397856085,15.459999999999996 79.97195397856085,13.889999999999995" transform="translate(0)"/>
</svg>
