<?xml version="1.0" ?>
<svg xmlns="http://www.w3.org/2000/svg" xmlns:ev="http://www.w3.org/2001/xml-events" xmlns:xlink="http://www.w3.org/1999/xlink" baseProfile="full" enable-background="new 0 0 720 720" height="478" id="Layer_1" transform="scale(0.20964360587002095 0.20964360587002095) translate(-238.5 -239.0)" version="1.1" viewBox="0 0 477 478" width="477" x="0px" xml:space="preserve" y="0px">
	<defs/>
	<path d="M 219.9000000000001,3.410605131648481e-13 L 9.947598300641403e-14,3.410605131648481e-13 L 9.947598300641403e-14,219.70000000000033 C 4.800000000000097,170.20000000000033 23.0000000000001,121.50000000000034 55.70000000000009,83.70000000000033 C 96.20000000000009,34.90000000000035 157.0000000000001,5.300000000000338 219.9000000000001,3.410605131648481e-13 M 476.4000000000001,3.410605131648481e-13 L 251.30000000000013,3.410605131648481e-13 C 306.8000000000001,4.800000000000338 360.9000000000001,28.100000000000335 400.5000000000001,67.50000000000034 C 446.60000000000014,112.10000000000034 472.80000000000007,176.20000000000033 471.0000000000001,240.30000000000035 C 470.0000000000001,310.70000000000033 435.10000000000014,379.00000000000034 379.4000000000001,422.00000000000034 C 362.2000000000001,415.10000000000036 356.5000000000001,396.70000000000033 347.9000000000001,382.00000000000034 C 342.1000000000001,370.9000000000003 331.0000000000001,364.30000000000035 321.6000000000001,356.50000000000034 C 319.1000000000001,356.50000000000034 314.2000000000001,356.60000000000036 311.80000000000007,356.60000000000036 C 310.50000000000006,342.00000000000034 308.00000000000006,326.60000000000036 312.50000000000006,312.4000000000004 C 318.6000000000001,300.60000000000036 326.1000000000001,289.2000000000004 327.40000000000003,275.5000000000004 C 339.20000000000005,264.8000000000004 348.00000000000006,251.3000000000004 354.3,236.8000000000004 C 362.0,220.40000000000043 359.90000000000003,201.7000000000004 360.5,184.10000000000042 C 361.2,170.3000000000004 355.4,157.10000000000042 356.8,143.3000000000004 C 358.0,130.9000000000004 359.5,118.5000000000004 359.90000000000003,106.0000000000004 C 355.90000000000003,99.0000000000004 352.1,91.80000000000041 345.90000000000003,86.4000000000004 C 335.90000000000003,99.30000000000041 329.20000000000005,115.0000000000004 314.90000000000003,123.80000000000041 C 308.70000000000005,138.0000000000004 298.8,149.40000000000043 288.20000000000005,160.60000000000042 C 290.80000000000007,161.0000000000004 296.00000000000006,161.8000000000004 298.6,162.20000000000044 C 291.70000000000005,174.40000000000043 278.6,180.80000000000047 270.5,192.00000000000045 C 264.3,201.20000000000044 252.8,203.50000000000045 244.3,209.80000000000047 C 236.8,214.80000000000047 230.90000000000003,221.70000000000044 223.60000000000002,226.9000000000005 C 212.0,232.10000000000048 198.70000000000005,231.7000000000005 186.70000000000005,236.0000000000005 C 178.90000000000003,239.30000000000052 173.20000000000005,246.0000000000005 165.60000000000002,249.80000000000052 C 156.40000000000003,254.5000000000005 146.20000000000005,259.10000000000053 140.60000000000002,268.40000000000055 C 129.2,284.70000000000056 123.40000000000002,306.90000000000055 104.40000000000002,316.40000000000055 C 88.90000000000002,325.40000000000055 70.80000000000003,319.40000000000055 54.20000000000003,317.8000000000005 C 60.10000000000004,326.8000000000005 66.70000000000003,335.90000000000055 76.40000000000002,341.0000000000005 C 88.80000000000003,347.8000000000005 103.60000000000001,346.2000000000005 117.00000000000001,343.7000000000005 C 129.10000000000002,341.5000000000005 136.10000000000002,330.3000000000005 144.8,322.7000000000005 C 143.60000000000002,334.2000000000005 135.60000000000002,342.6000000000005 125.99999999999999,348.2000000000005 C 124.49999999999999,364.7000000000005 121.89999999999999,381.3000000000005 115.3,396.6000000000005 C 111.49999999999999,404.6000000000005 112.60000000000001,413.50000000000045 113.60000000000001,422.00000000000045 C 108.10000000000001,423.1000000000005 101.8,429.00000000000045 96.40000000000002,425.1000000000005 C 60.000000000000014,398.1000000000005 30.800000000000026,360.9000000000005 15.200000000000031,318.2000000000005 C 6.800000000000026,296.8000000000005 3.100000000000037,274.1000000000005 2.842170943040401e-14,251.5000000000005 L 2.842170943040401e-14,477.2000000000005 C 158.80000000000007,477.3000000000005 317.50000000000006,477.40000000000055 476.30000000000007,477.2000000000005 C 476.60000000000014,318.10000000000036 476.5000000000001,159.00000000000034 476.4000000000001,3.410605131648481e-13 M 170.9000000000001,403.8000000000003 C 157.9000000000001,408.3000000000003 144.7000000000001,412.3000000000003 131.4000000000001,415.9000000000003 C 128.00000000000006,398.9000000000003 138.2000000000001,384.4000000000003 144.60000000000008,369.70000000000033 C 149.50000000000006,356.30000000000035 164.50000000000006,352.00000000000034 175.2000000000001,344.30000000000035 C 175.9000000000001,354.9000000000004 174.2000000000001,365.4000000000004 169.0000000000001,374.80000000000035 C 171.30000000000013,384.00000000000034 173.30000000000013,394.30000000000035 170.9000000000001,403.8000000000003 M 252.80000000000013,376.00000000000034 C 231.0000000000001,381.4000000000003 209.2000000000001,387.30000000000035 187.9000000000001,394.50000000000034 C 187.80000000000007,387.60000000000036 187.7000000000001,380.70000000000033 187.80000000000007,373.80000000000035 C 198.20000000000005,362.70000000000033 212.9000000000001,355.10000000000036 218.70000000000005,340.30000000000035 C 224.30000000000007,329.80000000000035 224.20000000000005,317.30000000000035 229.00000000000006,306.60000000000036 C 236.10000000000008,298.7000000000004 247.80000000000007,306.9000000000004 256.70000000000005,306.2000000000004 C 261.90000000000003,327.3000000000004 253.40000000000003,350.5000000000004 264.40000000000003,370.2000000000004 C 261.7000000000001,374.10000000000036 257.0000000000001,374.80000000000035 252.80000000000013,376.00000000000034 M 280.4000000000001,366.70000000000033 C 272.30000000000007,346.9000000000003 278.1000000000001,325.00000000000034 278.4000000000001,304.30000000000035 C 282.2000000000001,303.10000000000036 286.0000000000001,301.80000000000035 289.9000000000001,300.60000000000036 C 294.7000000000001,320.4000000000004 292.0000000000001,341.30000000000035 298.30000000000007,360.60000000000036 C 292.4000000000001,362.80000000000035 286.4000000000001,364.70000000000033 280.4000000000001,366.70000000000033"/>
</svg>
