<?xml version="1.0" ?>
<svg xmlns="http://www.w3.org/2000/svg" xmlns:ev="http://www.w3.org/2001/xml-events" xmlns:xlink="http://www.w3.org/1999/xlink" baseProfile="full" height="84" transform="scale(2.0 2.0) translate(-25.0 -42.0)" version="1.1" viewBox="0 0 50 84" width="50">
	<defs/>
	<path class="cls-1" d="M 47.13,81.46699875467007 C 47.13,81.46699875467007 47.13,81.19699875467008 47.07,81.08699875467008 A 9.49,9.49 0.0 0,1 46.26,81.72699875467008 A 8.48,8.48 0.0 0,1 44.47,82.53699875467008 A 20.21,20.21 0.0 0,1 41.11,83.21699875467009 C 40.18,83.32699875467009 38.94,83.33699875467009 38.01,83.35699875467009 C 36.9,83.35699875467009 35.43,83.35699875467009 34.32,83.41699875467009 L 34.72,82.9269987546701 C 34.72,82.9269987546701 33.33,83.16699875467009 32.72,83.2369987546701 C 31.779999999999994,83.33699875467009 30.499999999999996,83.4069987546701 29.549999999999994,83.4369987546701 C 28.099999999999994,83.4369987546701 26.169999999999995,83.4369987546701 24.719999999999995,83.4369987546701 A 24.23,24.23 0.0 0,1 22.169999999999995,83.2869987546701 C 21.779999999999994,83.2869987546701 21.259999999999994,83.0969987546701 20.869999999999994,83.0169987546701 A 0.68,0.68 0.0 0,0 20.869999999999994,82.8969987546701 C 20.869999999999994,82.8969987546701 19.639999999999993,82.8969987546701 19.119999999999994,82.8969987546701 C 18.599999999999994,82.8969987546701 17.769999999999992,82.8969987546701 17.199999999999992,82.7869987546701 C 16.459999999999994,82.7069987546701 15.479999999999992,82.5469987546701 14.739999999999991,82.3969987546701 A 8.31,8.31 0.0 0,1 13.449999999999992,82.0969987546701 A 4.74,4.74 0.0 0,1 12.949999999999992,81.83699875467009 L 13.599999999999993,81.6269987546701 C 13.599999999999993,81.6269987546701 12.529999999999992,81.4969987546701 12.079999999999993,81.4169987546701 A 16.0,16.0 0.0 0,1 10.029999999999994,80.9469987546701 A 5.25,5.25 0.0 0,1 9.089999999999995,80.53699875467011 A 4.0,4.0 0.0 0,1 8.699999999999994,80.20699875467011 C 8.699999999999994,80.20699875467011 9.509999999999994,80.14699875467011 9.849999999999994,80.0869987546701 A 3.4,3.4 0.0 0,0 10.699999999999994,79.8869987546701 A 3.11,3.11 0.0 0,0 10.979999999999993,79.6569987546701 L 10.459999999999994,79.5769987546701 C 10.459999999999994,79.5769987546701 11.239999999999993,78.8569987546701 11.579999999999995,78.5769987546701 C 12.129999999999995,78.1069987546701 12.889999999999995,77.5169987546701 13.449999999999996,77.0769987546701 L 12.629999999999995,77.0769987546701 C 12.629999999999995,77.0769987546701 13.119999999999996,76.6569987546701 13.349999999999996,76.50699875467011 A 10.76,10.76 0.0 0,1 14.679999999999996,75.76699875467011 C 14.959999999999996,75.6169987546701 15.359999999999996,75.43699875467011 15.679999999999996,75.30699875467012 L 15.179999999999996,75.08699875467012 C 15.179999999999996,75.08699875467012 15.789999999999996,74.81699875467012 16.069999999999997,74.72699875467012 A 13.55,13.55 0.0 0,1 17.83,74.22699875467012 A 16.68,16.68 0.0 0,1 19.83,74.06699875467012 A 13.19,13.19 0.0 0,1 21.24,74.06699875467012 C 21.729999999999997,74.06699875467012 22.369999999999997,74.23699875467013 22.849999999999998,74.30699875467012 C 22.849999999999998,74.30699875467012 22.249999999999996,73.48699875467013 22.02,73.11699875467012 A 15.58,15.58 0.0 0,1 21.02,71.17699875467012 A 7.0,7.0 0.0 0,1 20.61,69.77699875467012 A 8.48,8.48 0.0 0,1 20.61,68.10699875467012 C 20.61,67.80699875467012 20.759999999999998,67.41699875467012 20.759999999999998,67.10699875467012 A 2.28,2.28 0.0 0,0 20.639999999999997,66.16699875467012 A 3.22,3.22 0.0 0,0 19.639999999999997,65.06699875467012 A 0.9,0.9 0.0 0,0 19.279999999999998,64.87699875467013 A 0.44,0.44 0.0 0,0 18.999999999999996,64.87699875467013 A 0.36,0.36 0.0 0,0 18.869999999999997,65.11699875467012 A 1.65,1.65 0.0 0,0 18.999999999999996,65.93699875467011 L 19.069999999999997,66.06699875467011 C 19.069999999999997,66.06699875467011 18.569999999999997,65.7769987546701 18.359999999999996,65.62699875467011 C 18.149999999999995,65.47699875467012 17.709999999999997,65.05699875467012 17.439999999999994,64.81699875467011 A 6.37,6.37 0.0 0,0 17.739999999999995,65.4169987546701 A 4.71,4.71 0.0 0,0 18.099999999999994,65.8369987546701 C 18.099999999999994,65.8369987546701 17.349999999999994,65.6369987546701 17.039999999999996,65.51699875467011 C 16.729999999999997,65.39699875467012 16.569999999999997,65.28699875467011 16.359999999999996,65.19699875467012 C 16.149999999999995,65.10699875467013 16.139999999999997,65.04699875467011 16.029999999999998,65.04699875467011 A 0.52,0.52 0.0 0,0 15.699999999999998,65.20699875467011 A 2.21,2.21 0.0 0,0 15.409999999999998,65.99699875467012 C 15.259999999999998,66.42699875467012 15.079999999999998,66.99699875467012 14.929999999999998,67.41699875467012 C 14.779999999999998,67.83699875467012 14.429999999999998,68.65699875467011 14.229999999999999,69.19699875467012 C 14.03,69.73699875467013 13.739999999999998,70.41699875467012 13.559999999999999,70.94699875467012 C 13.44,71.32699875467011 13.28,71.83699875467012 13.19,72.22699875467012 A 10.28,10.28 0.0 0,1 12.83,73.99699875467012 A 4.78,4.78 0.0 0,1 11.84,75.14699875467007 C 11.6,75.39699875467007 11.18,75.63699875467006 10.94,75.89699875467007 A 13.0,13.0 0.0 0,0 9.94,77.30699875467006 C 9.65,77.73699875467007 9.29,78.30699875467006 9.01,78.75699875467006 A 6.16,6.16 0.0 0,1 8.2,79.93699875467007 A 2.51,2.51 0.0 0,1 7.419999999999999,80.33699875467008 A 12.37,12.37 0.0 0,1 4.759999999999999,80.58699875467008 A 21.55,21.55 0.0 0,1 2.3499999999999988,80.64699875467008 A 8.31,8.31 0.0 0,1 0.84,80.46699875467007 C 0.58,80.39699875467008 0.25,80.24699875467007 0.0,80.15699875467007 A 3.43,3.43 0.0 0,1 0.38,79.39699875467007 C 0.38,79.33699875467006 0.55,79.30699875467006 0.59,79.23699875467007 C 0.6299999999999999,79.16699875467008 0.59,79.05699875467006 0.59,78.97699875467006 L 0.25999999999999995,78.97699875467006 A 4.19,4.19 0.0 0,1 0.35,78.55699875467006 A 3.26,3.26 0.0 0,1 0.9800000000000001,77.55699875467006 A 3.74,3.74 0.0 0,1 1.88,77.00699875467006 A 4.69,4.69 0.0 0,1 2.77,76.69699875467006 A 6.68,6.68 0.0 0,0 3.96,76.53699875467007 A 2.0,2.0 0.0 0,0 4.58,76.03699875467007 A 9.68,9.68 0.0 0,0 5.73,73.45699875467007 A 17.07,17.07 0.0 0,0 6.220000000000001,71.72699875467006 A 37.15,37.15 0.0 0,0 6.930000000000001,66.58699875467006 A 41.51,41.51 0.0 0,0 6.84,61.33699875467007 A 27.45,27.45 0.0 0,0 6.35,57.61699875467007 C 6.14,56.66699875467007 5.68,55.45699875467007 5.35,54.526998754670075 L 5.119999999999999,55.22699875467008 C 5.119999999999999,55.22699875467008 4.719999999999999,53.75699875467008 4.579999999999999,53.126998754670076 C 4.1,51.026998754670075 3.579999999999999,48.206998754670074 3.2399999999999993,46.126998754670076 C 3.04,44.82699875467007 2.84,43.05699875467007 2.6399999999999997,41.75699875467007 C 2.6399999999999997,41.37699875467007 2.53,40.87699875467007 2.4899999999999998,40.496998754670074 L 2.25,41.00699875467007 C 2.25,41.00699875467007 2.0,39.82699875467007 1.94,39.346998754670075 A 26.34,26.34 0.0 0,1 1.8399999999999999,36.14699875467007 C 1.8399999999999999,35.22699875467007 1.9699999999999998,33.996998754670074 2.06,33.07699875467007 C 2.06,32.666998754670075 2.18,32.07699875467007 2.23,31.716998754670072 L 1.8399999999999999,32.18699875467007 C 1.8399999999999999,32.18699875467007 1.92,30.18699875467007 2.02,29.326998754670072 C 2.16,28.326998754670072 2.49,26.91699875467007 2.69,25.88699875467007 L 2.13,26.53699875467007 C 2.13,26.53699875467007 2.27,25.64699875467007 2.37,25.26699875467007 C 2.72,23.97699875467007 3.45,22.346998754670068 3.91,21.08699875467007 A 24.3,24.3 0.0 0,0 5.0,18.08699875467007 A 7.52,7.52 0.0 0,0 5.14,16.59699875467007 C 5.14,16.306998754670072 5.04,15.92699875467007 5.02,15.596998754670071 C 4.9399999999999995,14.276998754670071 5.17,12.516998754670071 5.02,11.206998754670071 A 4.19,4.19 0.0 0,0 4.869999999999999,10.40699875467007 A 13.0,13.0 0.0 0,0 4.03,8.826998754670072 A 6.0,6.0 0.0 0,1 3.49,7.756998754670072 A 4.11,4.11 0.0 0,1 3.49,6.446998754670071 A 5.0,5.0 0.0 0,1 3.84,4.906998754670072 C 3.8999999999999995,4.766998754670072 3.99,4.516998754670072 4.14,4.476998754670072 C 4.289999999999999,4.436998754670072 4.449999999999999,4.586998754670073 4.569999999999999,4.656998754670072 A 3.89,3.89 0.0 0,1 4.959999999999999,4.976998754670072 A 4.63,4.63 0.0 0,1 5.419999999999999,4.606998754670072 A 5.1,5.1 0.0 0,1 6.009999999999999,4.406998754670072 L 5.879999999999999,4.566998754670072 A 4.0,4.0 0.0 0,0 5.659999999999999,5.036998754670072 A 3.0,3.0 0.0 0,0 5.6,5.456998754670072 C 5.6,5.456998754670072 5.949999999999999,5.736998754670072 6.119999999999999,5.836998754670072 A 2.0,2.0 0.0 0,0 6.579999999999999,6.076998754670072 A 1.09,1.09 0.0 0,0 7.02,6.076998754670072 A 1.09,1.09 0.0 0,0 7.52,5.826998754670072 A 1.62,1.62 0.0 0,0 7.75,5.266998754670071 A 14.33,14.33 0.0 0,0 7.9399999999999995,3.596998754670072 A 7.32,7.32 0.0 0,1 8.129999999999999,2.596998754670072 A 3.08,3.08 0.0 0,1 8.48,1.826998754670072 A 6.78,6.78 0.0 0,1 9.360000000000001,0.826998754670072 C 9.490000000000002,0.706998754670072 9.690000000000001,0.556998754670072 9.830000000000002,0.426998754670072 C 9.970000000000002,0.296998754670072 10.060000000000002,0.076998754670072 10.220000000000002,0.016998754670072003 A 0.58,0.58 0.0 0,1 10.630000000000003,0.06699875467007199 C 10.930000000000003,0.23699875467007203 11.050000000000002,0.7569987546700719 11.210000000000003,1.066998754670072 C 11.450000000000003,1.526998754670072 11.700000000000003,2.186998754670072 11.940000000000003,2.646998754670072 C 12.440000000000003,3.646998754670072 13.240000000000004,4.816998754670072 13.800000000000002,5.746998754670072 A 20.0,20.0 0.0 0,0 14.84,7.516998754670072 A 2.42,2.42 0.0 0,0 15.33,8.036998754670073 A 6.79,6.79 0.0 0,0 16.42,8.446998754670073 A 2.81,2.81 0.0 0,1 16.94,8.706998754670073 A 5.25,5.25 0.0 0,1 17.9,9.826998754670072 A 21.82,21.82 0.0 0,1 19.52,12.826998754670072 C 19.72,13.256998754670072 19.93,13.826998754670072 20.09,14.286998754670073 C 20.25,14.746998754670074 20.419999999999998,15.496998754670074 20.65,15.976998754670074 A 13.06,13.06 0.0 0,0 21.99,17.976998754670074 C 22.4,18.486998754670076 23.04,19.076998754670075 23.47,19.566998754670074 C 23.9,20.056998754670072 24.25,20.456998754670074 24.56,20.856998754670073 A 3.0,3.0 0.0 0,1 25.029999999999998,21.526998754670075 C 25.089999999999996,21.676998754670073 25.169999999999998,21.906998754670074 25.089999999999996,22.036998754670076 C 25.009999999999994,22.16699875467008 24.659999999999997,22.226998754670078 24.469999999999995,22.276998754670075 A 5.3,5.3 0.0 0,1 23.289999999999996,22.476998754670074 A 4.41,4.41 0.0 0,1 22.139999999999997,22.346998754670075 C 21.929999999999996,22.296998754670074 21.689999999999998,22.056998754670076 21.479999999999997,22.096998754670075 A 0.24,0.24 0.0 0,0 21.349999999999998,22.186998754670075 C 21.349999999999998,22.276998754670075 21.45,22.386998754670074 21.479999999999997,22.476998754670074 C 21.619999999999997,22.826998754670075 21.769999999999996,23.316998754670074 21.9,23.676998754670073 C 22.22,24.576998754670072 22.58,25.806998754670072 22.98,26.676998754670073 C 23.380000000000003,27.546998754670074 23.98,28.546998754670074 24.44,29.346998754670075 C 24.900000000000002,30.146998754670076 25.55,31.346998754670075 26.02,32.196998754670076 L 25.09,31.89699875467008 A 15.67,15.67 0.0 0,1 26.0,33.31699875467008 C 26.18,33.67699875467008 26.33,34.19699875467008 26.47,34.56699875467008 A 4.57,4.57 0.0 0,0 25.88,34.56699875467008 A 2.6,2.6 0.0 0,0 25.63,34.66699875467008 L 26.169999999999998,35.07699875467008 C 26.369999999999997,35.22699875467008 26.659999999999997,35.41699875467008 26.869999999999997,35.556998754670076 A 2.55,2.55 0.0 0,0 26.389999999999997,36.126998754670076 A 1.51,1.51 0.0 0,0 26.339999999999996,36.916998754670075 A 2.73,2.73 0.0 0,0 26.619999999999997,37.51699875467008 C 26.839999999999996,37.986998754670076 27.13,38.626998754670076 27.389999999999997,39.07699875467008 A 29.82,29.82 0.0 0,0 29.569999999999997,42.25699875467008 C 30.109999999999996,42.92699875467008 30.899999999999995,43.75699875467008 31.499999999999996,44.376998754670076 C 31.859999999999996,44.75699875467008 32.36,45.246998754670074 32.73,45.61699875467008 C 32.73,45.61699875467008 32.379999999999995,45.61699875467008 32.239999999999995,45.61699875467008 C 32.099999999999994,45.61699875467008 31.979999999999993,45.53699875467008 31.85999999999999,45.50699875467008 C 31.739999999999984,45.47699875467008 32.85999999999999,46.67699875467008 33.22999999999999,47.196998754670076 C 33.82999999999999,47.96699875467008 34.639999999999986,49.00699875467008 35.22999999999999,49.78699875467008 C 35.61999999999999,50.29699875467008 36.11999999999999,50.97699875467008 36.49999999999999,51.49699875467008 L 35.89999999999999,51.49699875467008 C 35.89999999999999,51.49699875467008 36.739999999999995,52.38699875467008 37.07999999999999,52.78699875467008 C 37.41999999999999,53.18699875467008 37.64999999999999,53.51699875467008 37.86999999999999,53.84699875467008 A 4.85,4.85 0.0 0,1 38.21999999999999,54.41699875467008 C 38.38999999999999,54.81699875467008 38.37999999999999,55.41699875467008 38.58999999999999,55.80699875467008 A 11.83,11.83 0.0 0,0 40.07999999999999,57.406998754670084 A 28.37,28.37 0.0 0,1 41.95,59.82699875467007 A 26.87,26.87 0.0 0,1 43.84,63.26699875467007 C 44.160000000000004,63.996998754670074 44.45,65.00699875467006 44.71,65.74699875467007 L 44.160000000000004,65.66699875467008 C 44.160000000000004,65.66699875467008 44.940000000000005,66.73699875467007 45.230000000000004,67.22699875467008 A 4.17,4.17 0.0 0,1 45.760000000000005,68.22699875467008 A 0.83,0.83 0.0 0,1 45.760000000000005,68.44699875467008 A 1.43,1.43 0.0 0,0 45.370000000000005,68.31699875467008 A 0.45,0.45 0.0 0,0 45.07000000000001,68.40699875467008 A 0.65,0.65 0.0 0,0 45.00000000000001,68.84699875467008 A 3.87,3.87 0.0 0,0 45.43000000000001,69.95699875467008 A 19.31,19.31 0.0 0,0 47.160000000000004,72.43699875467009 C 47.56,72.95699875467008 48.160000000000004,73.56699875467008 48.550000000000004,74.09699875467008 A 9.25,9.25 0.0 0,1 49.34,75.45699875467008 A 5.8,5.8 0.0 0,1 49.74,76.60699875467009 A 12.55,12.55 0.0 0,1 49.84,77.94699875467008 A 1.0,1.0 0.0 0,1 49.67,77.81699875467008 A 1.2,1.2 0.0 0,1 49.54,77.53699875467008 A 10.0,10.0 0.0 0,1 49.32,78.53699875467008 A 6.89,6.89 0.0 0,1 48.63,79.98699875467008 A 6.35,6.35 0.0 0,1 47.63,81.15699875467008 A 3.87,3.87 0.0 0,1 47.2,81.42699875467008 M 5.8999999999999995,4.566998754670072 L 5.8999999999999995,4.566998754670072 M 26.9,35.566998754670074 L 26.9,35.566998754670074 M 5.62,5.456998754670072 L 5.62,5.456998754670072"/>
</svg>
