<?xml version="1.0" ?>
<svg xmlns="http://www.w3.org/2000/svg" xmlns:ev="http://www.w3.org/2001/xml-events" xmlns:xlink="http://www.w3.org/1999/xlink" baseProfile="full" height="88" transform="scale(1.1363636363636365 1.1363636363636365) translate(-65.0 -44.0)" version="1.1" viewBox="0 0 130 88" width="130">
	<defs/>
	<path class="cls-2" d="M 125.0,19.520768831708743 C 123.12,17.19076883170874 123.59,15.100768831708743 123.15,13.360768831708743 A 20.52,20.52 0.0 0,0 119.71000000000001,7.360768831708743 A 9.81,9.81 0.0 0,0 116.80000000000001,4.730768831708743 A 7.28,7.28 0.0 0,0 115.18,4.1707688317087435 A 14.36,14.36 0.0 0,0 113.18,3.8807688317087434 A 14.0,14.0 0.0 0,0 106.95,4.880768831708743 A 8.53,8.53 0.0 0,0 104.19,6.7107688317087435 C 100.68,10.120768831708745 81.0,19.960768831708744 75.74,21.580768831708745 C 70.47999999999999,23.200768831708746 54.0,22.030768831708745 45.4,23.790768831708746 C 36.8,25.550768831708748 34.61,30.69076883170875 33.4,33.61076883170874 C 32.19,36.53076883170874 31.779999999999998,45.870768831708745 33.309999999999995,50.47076883170874 C 34.83999999999999,55.07076883170875 38.06999999999999,58.19076883170874 37.099999999999994,61.64076883170874 C 36.129999999999995,65.09076883170874 35.809999999999995,74.52076883170874 35.809999999999995,78.42076883170874 A 45.66,45.66 0.0 0,0 36.809999999999995,86.88076883170874 L 43.809999999999995,87.61076883170874 C 43.809999999999995,87.61076883170874 44.92999999999999,86.93076883170873 45.13999999999999,86.17076883170874 C 45.349999999999994,85.41076883170875 43.79,84.03076883170874 43.0,83.54076883170875 C 42.21,83.05076883170875 41.06,83.75076883170874 40.62,83.31076883170874 C 40.17999999999999,82.87076883170874 39.91,80.39076883170874 40.029999999999994,78.83076883170874 A 19.34,19.34 0.0 0,1 42.17999999999999,71.55076883170874 C 43.67999999999999,68.66076883170874 47.31999999999999,65.42076883170874 51.41,62.55076883170874 C 55.5,59.68076883170873 58.0,53.24076883170875 58.0,53.24076883170875 C 58.0,53.24076883170875 58.61,54.63076883170875 66.28999999999999,55.24076883170875 C 73.96999999999998,55.85076883170875 87.16,50.82076883170875 88.16,51.24076883170875 C 89.16,51.66076883170875 92.57,78.47076883170874 92.69,80.15076883170875 C 92.81,81.83076883170875 95.6,85.37076883170874 95.6,85.37076883170874 L 101.89,86.02076883170875 C 101.89,86.02076883170875 103.48,85.64076883170875 103.89,84.81076883170876 C 104.3,83.98076883170876 102.32,82.66076883170874 101.0,82.03076883170874 C 99.68,81.40076883170875 98.91,82.47076883170874 98.0,81.85076883170873 C 97.09,81.23076883170873 96.06,75.55076883170874 96.06,74.96076883170873 C 96.06,74.37076883170873 96.59,71.13076883170874 96.33,69.68076883170873 C 96.07,68.23076883170873 96.62,52.47076883170874 100.56,49.90076883170873 C 107.32000000000001,45.51076883170873 106.15,41.350768831708734 106.15,41.350768831708734 C 106.7,39.44076883170874 109.41000000000001,38.350768831708734 110.97,36.76076883170873 C 112.52999999999999,35.17076883170873 116.7,27.760768831708734 117.17,27.200768831708732 C 117.64,26.64076883170873 119.52,28.120768831708734 122.67,29.15076883170873 C 125.82000000000001,30.18076883170873 129.61,26.03076883170873 129.67000000000002,25.380768831708732 C 129.73000000000002,24.730768831708733 126.87,21.850768831708745 125.0,19.520768831708743 M 117.86,17.130768831708743 A 1.1,1.1 0.0 0,1 117.09,16.37076883170874 A 1.59,1.59 0.0 0,1 117.0,16.030768831708745 L 116.61,15.890768831708744 A 1.17,1.17 0.0 0,1 116.97,15.890768831708744 A 1.8,1.8 0.0 0,1 117.35,15.890768831708744 L 117.88,15.970768831708744 A 2.86,2.86 0.0 0,1 118.32,16.120768831708745 C 118.32,16.120768831708745 118.38,16.120768831708745 118.41,16.120768831708745 A 2.21,2.21 0.0 0,1 119.49,17.060768831708746 A 2.82,2.82 0.0 0,1 117.85,17.130768831708746 L 117.86,17.130768831708743 M 105.94,12.210768831708744 C 105.94,12.210768831708744 105.12,3.2807688317087447 110.67,0.6307688317087446 C 113.53,-0.7292311682912554 112.67,4.070768831708745 113.85000000000001,6.630768831708744 L 105.94,12.210768831708744 M 114.52,4.630768831708744 C 114.52,4.630768831708744 121.58,-0.4392311682912553 122.2,0.03076883170874467 C 122.82000000000001,0.5007688317087446 119.55,6.700768831708745 119.44,8.470768831708744 L 114.52,4.630768831708744 M 118.5,16.510768831708745 L 118.5,16.630768831708746 A 0.69,0.69 0.0 0,1 117.88,17.130768831708746 A 1.1,1.1 0.0 0,1 117.11,16.370768831708745 L 117.11,16.370768831708745 A 0.42,0.42 0.0 0,1 117.2,16.100768831708745 C 117.2,16.100768831708745 117.26,16.010768831708745 117.29,15.980768831708746 C 117.32000000000001,15.950768831708746 117.35000000000001,15.900768831708746 117.41000000000001,15.870768831708746 L 117.94000000000001,15.960768831708746 A 0.31,0.31 0.0 0,0 117.76,16.190768831708745 L 117.76,16.310768831708746 A 0.31,0.31 0.0 0,0 118.05000000000001,16.570768831708747 A 0.25,0.25 0.0 0,0 118.26,16.51076883170875 C 118.26,16.51076883170875 118.32000000000001,16.51076883170875 118.32000000000001,16.460768831708748 A 0.26,0.26 0.0 0,0 118.41000000000001,16.280768831708748 A 0.51,0.51 0.0 0,0 118.41000000000001,16.070768831708747 L 118.50000000000001,16.070768831708747 C 118.47,16.250768831708744 118.5,16.370768831708745 118.5,16.510768831708745 M 97.8,46.730768831708744 A 28.55,28.55 0.0 0,1 92.21,50.730768831708744 C 89.61999999999999,51.97076883170875 89.47,55.91076883170875 89.41999999999999,58.33076883170875 C 89.36999999999998,60.750768831708754 90.41999999999999,71.18076883170875 90.32999999999998,73.45076883170874 A 21.83,21.83 0.0 0,0 90.73999999999998,79.38076883170874 C 91.14999999999998,81.09076883170873 91.49999999999999,82.06076883170874 91.49999999999999,82.06076883170874 C 91.49999999999999,82.06076883170874 94.73999999999998,81.68076883170875 95.61999999999999,84.12076883170874 C 96.5,86.56076883170874 92.91,86.04076883170875 91.24,86.12076883170874 C 89.57,86.20076883170874 87.3,86.50076883170874 86.86,85.00076883170874 A 93.6,93.6 0.0 0,1 85.07,73.85076883170873 C 85.07,72.44076883170874 83.50999999999999,64.85076883170873 83.07,62.740768831708735 C 82.63,60.630768831708735 82.50999999999999,55.67076883170874 82.07,53.740768831708735 A 4.08,4.08 0.0 0,0 79.44999999999999,51.210768831708734 M 51.55,47.82076883170875 C 51.55,47.82076883170875 50.08,55.42076883170874 46.489999999999995,58.49076883170875 C 42.89999999999999,61.56076883170874 36.0,67.66076883170874 34.88,70.31076883170874 C 33.760000000000005,72.96076883170875 32.11,74.79076883170875 32.260000000000005,78.31076883170874 C 32.41000000000001,81.83076883170874 32.49,83.58076883170874 32.88,83.85076883170875 C 33.27,84.12076883170876 36.370000000000005,83.47076883170875 37.35,85.70076883170874 C 38.33,87.93076883170873 35.46,88.03076883170874 33.52,87.94076883170874 C 31.580000000000005,87.85076883170873 28.970000000000002,87.67076883170874 28.730000000000004,85.64076883170874 C 28.490000000000006,83.61076883170874 27.200000000000003,77.80076883170874 27.610000000000003,75.26076883170875 C 28.020000000000003,72.72076883170875 28.110000000000003,69.26076883170875 28.35,68.87076883170874 C 28.59,68.48076883170874 33.49,63.38076883170875 33.99,60.760768831708745 C 34.49,58.140768831708755 32.550000000000004,52.42076883170874 32.82,48.58076883170875 M 34.55,30.930768831708743 C 34.55,30.930768831708743 27.44,44.10076883170875 21.38,47.730768831708744 C 15.319999999999997,51.360768831708754 13.239999999999998,49.620768831708745 13.239999999999998,49.620768831708745 C 13.239999999999998,49.620768831708745 13.089999999999998,52.620768831708745 14.819999999999999,53.620768831708745 C 14.819999999999999,53.620768831708745 10.239999999999998,56.30076883170875 8.529999999999998,55.06076883170874 A 3.17,3.17 0.0 0,0 11.589999999999998,57.33076883170875 C 11.589999999999998,57.33076883170875 3.33,62.44076883170874 0.12,59.96076883170875 C 0.12,59.96076883170875 2.03,68.72076883170874 13.29,64.35076883170873 C 24.549999999999997,59.98076883170873 30.44,47.760768831708745 34.55,37.50076883170874 C 38.66,27.240768831708746 34.55,30.930768831708743 34.55,30.930768831708743 M 0.0,29.910768831708744 L 36.89,29.910768831708744 L 36.89,65.77076883170874 L 0.0,65.77076883170874 L 0.0,29.910768831708744" transform="translate(-0.12)"/>
</svg>
