<?xml version="1.0" ?>
<svg xmlns="http://www.w3.org/2000/svg" xmlns:ev="http://www.w3.org/2001/xml-events" xmlns:xlink="http://www.w3.org/1999/xlink" baseProfile="full" height="98" transform="scale(1.3513513513513513 1.3513513513513513) translate(-37.0 -49.0)" version="1.1" viewBox="0 0 74 98" width="74">
	<defs/>
	<path class="cls-2" d="M 5.91,76.01791605483437 C 5.91,76.41791605483438 5.91,76.81791605483437 5.91,77.21791605483438 A 2.29,2.29 0.0 0,0 6.43,77.91791605483438 C 6.779999999999999,77.69791605483438 7.109999999999999,77.47791605483438 7.43,77.21791605483438 A 1.65,1.65 0.0 0,1 6.81,76.96791605483438 A 3.6,3.6 0.0 0,1 5.91,76.01791605483437 M 7.54,89.38791605483438 A 16.42,16.42 0.0 0,1 6.0600000000000005,87.05791605483438 C 5.99,87.93791605483437 5.930000000000001,88.80791605483438 5.930000000000001,89.68791605483437 A 8.5,8.5 0.0 0,0 6.69,90.78791605483437 C 6.960000000000001,91.18791605483437 7.210000000000001,91.58791605483437 7.49,91.98791605483437 A 4.67,4.67 0.0 0,0 9.31,93.56791605483437 C 9.67,92.78791605483437 10.040000000000001,92.01791605483437 10.42,91.26791605483437 L 10.0,91.18791605483437 A 4.7,4.7 0.0 0,1 7.54,89.38791605483438 M 4.68,75.26791605483437 C 4.68,75.26791605483437 4.68,75.26791605483437 4.76,75.19791605483438 A 0.69,0.69 0.0 0,1 4.93,75.19791605483438 A 0.24,0.24 0.0 0,1 5.06,75.14791605483438 L 5.109999999999999,75.14791605483438 A 2.61,2.61 0.0 0,0 5.409999999999999,74.94791605483438 C 5.409999999999999,74.46791605483438 5.409999999999999,73.94791605483438 5.409999999999999,73.51791605483437 A 2.82,2.82 0.0 0,1 4.959999999999999,73.69791605483438 L 3.86,75.59791605483437 C 4.13,75.49791605483438 4.41,75.39791605483438 4.68,75.26791605483437 M 16.3,87.90791605483437 A 3.18,3.18 0.0 0,1 15.780000000000001,87.80791605483438 C 15.98,88.63791605483438 16.150000000000002,89.48791605483439 16.330000000000002,90.33791605483438 A 2.42,2.42 0.0 0,0 18.8,89.23791605483439 C 18.8,88.43791605483439 18.8,87.65791605483439 18.86,86.85791605483439 A 3.7,3.7 0.0 0,1 17.73,87.70791605483439 A 2.81,2.81 0.0 0,1 16.3,87.90791605483437 M 18.73,93.03791605483437 C 18.73,92.58791605483437 18.73,92.13791605483436 18.73,91.71791605483438 C 18.73,91.71791605483438 18.67,91.71791605483438 18.67,91.71791605483438 C 18.67,91.71791605483438 18.67,91.71791605483438 18.67,91.71791605483438 A 9.26,9.26 0.0 0,1 16.810000000000002,93.11791605483438 L 17.0,94.28791605483437 C 17.6,93.91791605483436 18.21,93.48791605483437 18.78,93.06791605483437 C 18.7,93.03791605483437 18.73,93.03791605483437 18.73,93.03791605483437 M 7.0,97.04791605483437 A 4.87,4.87 0.0 0,0 7.63,97.59791605483437 C 7.85,96.99791605483438 8.1,96.41791605483436 8.33,95.83791605483437 A 12.16,12.16 0.0 0,1 6.4,94.48791605483437 C 6.53,95.33791605483438 6.71,96.19791605483438 7.0,97.04791605483437 M 17.4,96.86791605483438 A 0.11,0.11 0.0 0,1 17.4,96.69791605483438 L 18.63,95.49791605483438 C 18.63,95.49791605483438 18.709999999999997,95.49791605483438 18.73,95.49791605483438 C 18.73,94.86791605483438 18.73,94.24791605483438 18.73,93.61791605483438 A 13.19,13.19 0.0 0,1 17.13,96.17791605483438 C 17.13,96.69791605483438 17.209999999999997,97.17791605483438 17.259999999999998,97.72791605483438 L 17.86,97.27791605483438 L 18.13,96.84791605483437 A 0.93,0.93 0.0 0,1 17.4,96.86791605483438 M 31.3,74.59791605483437 L 31.3,74.24791605483438 A 2.51,2.51 0.0 0,1 30.7,74.34791605483437 C 30.9,74.44791605483438 31.1,74.51791605483437 31.3,74.59791605483437 M 31.35,82.45791605483437 L 31.35,82.27791605483436 L 31.35,82.27791605483436 L 31.35,82.42791605483437 C 31.35,82.42791605483437 31.33,82.45791605483437 31.35,82.45791605483437 M 2.0,80.96791605483438 C 2.63,80.53791605483437 3.2800000000000002,80.11791605483438 3.91,79.66791605483438 C 3.5100000000000002,79.66791605483438 2.91,79.56791605483438 2.8,79.21791605483438 L 2.8,79.21791605483438 C 2.6799999999999997,79.21791605483438 2.73,78.98791605483437 2.8,79.01791605483437 A 2.47,2.47 0.0 0,0 5.31,77.91791605483438 C 5.31,77.11791605483438 5.31,76.33791605483438 5.31,75.53791605483438 A 3.91,3.91 0.0 0,1 4.18,76.38791605483438 A 3.0,3.0 0.0 0,1 3.2299999999999995,76.58791605483438 C 2.43,77.96791605483438 1.6,79.34791605483437 0.8,80.77791605483438 C 1.0,80.77791605483438 1.23,80.84791605483437 1.4300000000000002,80.87791605483437 C 1.6300000000000003,80.90791605483437 1.8,80.96791605483438 2.0,80.96791605483438 M 18.76,91.43791605483437 C 18.76,91.13791605483438 18.76,90.83791605483438 18.76,90.56791605483437 A 2.28,2.28 0.0 0,1 17.560000000000002,90.98791605483437 A 1.73,1.73 0.0 0,1 16.360000000000003,90.68791605483437 C 16.460000000000004,91.18791605483437 16.530000000000005,91.68791605483437 16.610000000000003,92.21791605483438 A 7.39,7.39 0.0 0,0 18.51,91.66791605483438 A 0.84,0.84 0.0 0,1 18.76,91.43791605483437 M 31.33,83.05791605483438 A 2.89,2.89 0.0 0,0 31.33,82.65791605483437 L 31.33,82.65791605483437 L 31.33,83.08791605483438 C 31.33,83.08791605483438 31.33,83.07791605483438 31.33,83.05791605483438 M 31.0,90.96791605483438 A 4.8,4.8 0.0 0,1 30.32,92.16791605483438 C 30.55,92.53791605483438 30.75,92.91791605483438 30.98,93.26791605483437 C 31.0,92.48791605483437 31.0,91.73791605483437 31.0,90.96791605483438 M 43.87,91.61791605483438 A 4.16,4.16 0.0 0,1 42.589999999999996,91.16791605483438 C 43.87,92.23791605483437 45.099999999999994,93.36791605483438 46.3,94.51791605483437 A 7.69,7.69 0.0 0,0 47.65,94.01791605483437 C 47.75,94.01791605483437 47.85,94.08791605483437 47.78,94.16791605483438 A 7.74,7.74 0.0 0,1 46.78,94.98791605483437 L 47.11,95.31791605483437 C 47.88,94.86791605483437 48.66,94.41791605483436 49.43,93.93791605483437 C 49.56,92.43791605483437 49.66,90.93791605483437 49.78,89.43791605483437 A 6.3,6.3 0.0 0,1 46.05,88.96791605483438 C 45.97,88.96791605483438 45.949999999999996,88.78791605483437 46.05,88.76791605483437 A 14.49,14.49 0.0 0,0 50.0,87.38791605483438 C 50.0,86.92791605483438 50.07,86.48791605483437 50.1,86.02791605483438 A 3.85,3.85 0.0 0,1 49.1,86.40791605483437 A 3.25,3.25 0.0 0,1 46.47,86.05791605483438 C 46.47,86.05791605483438 46.47,86.05791605483438 46.47,86.05791605483438 A 4.59,4.59 0.0 0,1 41.239999999999995,85.48791605483439 C 41.239999999999995,85.9179160548344 41.239999999999995,86.35791605483439 41.239999999999995,86.78791605483438 C 42.919999999999995,87.73791605483439 44.8,87.13791605483438 46.48,86.45791605483439 C 46.58,86.45791605483439 46.68,86.53791605483438 46.599999999999994,86.61791605483438 C 45.81999999999999,87.46791605483438 45.06999999999999,88.51791605483439 43.81999999999999,88.61791605483438 A 2.87,2.87 0.0 0,1 42.169999999999995,88.33791605483438 A 3.92,3.92 0.0 0,1 41.239999999999995,87.33791605483438 C 41.239999999999995,87.73791605483439 41.239999999999995,88.13791605483438 41.239999999999995,88.53791605483438 A 2.09,2.09 0.0 0,0 42.059999999999995,89.43791605483439 C 42.489999999999995,89.65791605483439 42.989999999999995,89.8079160548344 43.44,89.98791605483439 C 44.37,90.33791605483438 45.44,90.90791605483439 46.44,90.43791605483439 A 0.1,0.1 0.0 0,1 46.57,90.5879160548344 A 2.67,2.67 0.0 0,1 43.87,91.61791605483438 M 0.55,81.87791605483437 L 0.3,81.72791605483438 L 0.0,82.25791605483438 C 0.18,82.12791605483437 0.38,81.96791605483438 0.55,81.87791605483437 M 19.0,81.62791605483437 L 19.0,81.27791605483438 A 2.51,2.51 0.0 0,1 18.4,81.37791605483437 C 18.58,81.45791605483437 18.78,81.55791605483438 19.0,81.62791605483437 M 5.53,77.96791605483438 L 5.53,77.96791605483438 L 5.53,78.11791605483438 L 5.53,78.11791605483438 L 5.53,77.96791605483438 M 19.0,90.08791605483438 L 19.0,90.08791605483438 A 2.89,2.89 0.0 0,0 19.0,89.68791605483437 L 19.0,89.68791605483437 L 19.0,90.11791605483438 L 19.0,90.08791605483438 M 19.0,89.48791605483437 L 19.0,89.30791605483437 L 19.0,89.30791605483437 L 19.0,89.45791605483437 L 19.0,89.48791605483437 M 5.56,67.73791605483437 A 4.07,4.07 0.0 0,1 5.01,68.10791605483438 A 1.39,1.39 0.0 0,1 4.21,68.23791605483437 C 3.9299999999999997,68.23791605483437 3.61,68.23791605483437 3.31,68.16791605483438 L 2.75,68.96791605483438 L 2.75,68.96791605483438 L 2.85,68.96791605483438 A 0.14,0.14 0.0 0,1 2.95,68.96791605483438 A 5.13,5.13 0.0 0,0 3.6,69.06791605483437 C 4.25,68.74791605483438 4.88,68.41791605483436 5.53,68.06791605483437 L 5.56,67.73791605483437 M 6.11,67.68791605483437 L 6.11,67.68791605483437 C 6.11,67.68791605483437 6.11,67.68791605483437 6.19,67.68791605483437 A 0.13,0.13 0.0 0,0 6.11,67.68791605483437 M 4.51,67.20791605483437 A 2.33,2.33 0.0 0,1 4.08,67.10791605483438 A 2.4,2.4 0.0 0,1 3.81,67.48791605483437 A 5.93,5.93 0.0 0,0 4.76,67.28791605483437 L 4.51,67.20791605483437 M 5.86,67.18791605483437 L 5.86,67.18791605483437 A 7.0,7.0 0.0 0,0 5.86,66.38791605483438 L 5.86,67.18791605483437 M 19.36,78.52791605483438 L 19.41,78.52791605483438 C 19.41,78.24791605483438 19.41,77.99791605483438 19.36,77.71791605483438 L 19.36,78.52791605483438 M 19.38,90.03791605483437 L 19.38,92.81791605483437 A 0.11,0.11 0.0 0,1 19.48,92.86791605483437 C 19.48,92.86791605483437 19.48,92.86791605483437 19.48,92.93791605483436 C 19.48,93.00791605483435 19.48,92.93791605483436 19.48,92.93791605483436 C 19.48,92.93791605483436 19.48,92.93791605483436 19.55,92.93791605483436 A 3.14,3.14 0.0 0,0 20.2,93.68791605483436 L 21.86,91.43791605483436 A 4.76,4.76 0.0 0,1 19.38,90.03791605483437 M 5.48,78.29791605483437 L 5.48,78.54791605483437 C 5.48,78.54791605483437 5.48,78.54791605483437 5.48,78.54791605483437 L 5.48,78.36791605483437 C 5.48,78.36791605483437 5.51,78.29791605483437 5.48,78.29791605483437 M 31.08,84.67791605483437 C 31.08,84.67791605483437 31.02,84.67791605483437 31.02,84.72791605483437 C 31.02,84.77791605483436 31.02,84.72791605483437 31.02,84.72791605483437 A 5.84,5.84 0.0 0,1 27.91,86.50791605483437 A 2.0,2.0 0.0 0,1 27.03,86.40791605483437 C 27.330000000000002,86.90791605483437 27.61,87.40791605483437 27.91,87.90791605483437 A 14.4,14.4 0.0 0,0 31.0,86.02791605483438 L 31.0,86.02791605483438 C 31.08,85.55791605483438 31.08,85.12791605483437 31.08,84.67791605483437 M 19.38,88.53791605483437 A 2.11,2.11 0.0 0,0 20.209999999999997,89.43791605483437 C 20.63,89.65791605483437 21.13,89.80791605483438 21.58,89.98791605483437 C 22.029999999999998,90.16791605483436 22.34,90.28791605483437 22.74,90.43791605483437 C 22.959999999999997,90.13791605483438 23.209999999999997,89.83791605483438 23.459999999999997,89.53791605483437 C 23.159999999999997,89.18791605483437 22.859999999999996,88.80791605483437 22.589999999999996,88.45791605483437 A 2.2,2.2 0.0 0,1 21.989999999999995,88.58791605483437 A 2.89,2.89 0.0 0,1 20.329999999999995,88.30791605483437 A 3.72,3.72 0.0 0,1 19.409999999999993,87.30791605483437 C 19.41,87.75791605483438 19.38,88.13791605483438 19.38,88.53791605483437 M 30.92,88.48791605483437 A 0.14,0.14 0.0 0,1 31.020000000000003,88.48791605483437 C 31.020000000000003,87.86791605483437 31.020000000000003,87.23791605483437 31.020000000000003,86.61791605483437 A 11.42,11.42 0.0 0,1 28.870000000000005,89.73791605483437 L 29.470000000000006,90.73791605483437 A 12.46,12.46 0.0 0,0 31.0,89.55791605483438 L 31.05,89.55791605483438 L 31.05,89.32791605483438 A 1.17,1.17 0.0 0,1 29.77,89.87791605483437 A 0.11,0.11 0.0 0,1 29.77,89.70791605483437 C 30.1,89.28791605483437 30.52,88.88791605483438 30.92,88.48791605483437 M 19.43,85.47791605483438 C 19.43,85.90791605483439 19.43,86.35791605483438 19.43,86.78791605483438 C 21.1,87.78791605483438 22.98,87.13791605483438 24.66,86.45791605483439 C 24.76,86.45791605483439 24.86,86.52791605483438 24.79,86.60791605483439 A 10.06,10.06 0.0 0,1 23.259999999999998,88.13791605483439 A 6.4,6.4 0.0 0,0 24.43,88.38791605483439 C 25.06,87.63791605483439 25.69,86.88791605483439 26.34,86.15791605483439 A 5.66,5.66 0.0 0,1 25.49,85.52791605483439 A 4.63,4.63 0.0 0,1 19.43,85.47791605483438 M 48.13,96.34791605483437 L 49.13,97.41791605483436 L 49.28,95.53791605483437 A 2.85,2.85 0.0 0,1 48.6,95.71791605483438 C 48.48,95.96791605483438 48.3,96.14791605483438 48.13,96.34791605483437 M 33.6,91.51791605483437 C 33.660000000000004,91.20791605483437 33.730000000000004,90.88791605483438 33.78,90.58791605483437 A 5.0,5.0 0.0 0,1 32.08,89.58791605483437 A 3.77,3.77 0.0 0,0 33.6,91.51791605483437 M 62.0,74.41791605483438 L 62.0,74.51791605483437 A 10.36,10.36 0.0 0,0 64.0,74.61791605483437 L 63.23,73.39791605483437 A 2.85,2.85 0.0 0,1 62.0,74.41791605483438 M 62.0,72.41791605483438 L 62.0,73.49791605483438 A 6.44,6.44 0.0 0,0 63.0,73.09791605483437 C 62.88,72.86791605483437 62.73,72.66791605483436 62.6,72.43791605483437 L 62.27,72.43791605483437 L 62.0,72.41791605483438 M 64.1,75.09791605483437 A 0.82,0.82 0.0 0,1 63.849999999999994,75.21791605483438 A 0.32,0.32 0.0 0,0 64.1,75.09791605483437 M 31.7,93.86791605483438 A 5.62,5.62 0.0 0,0 32.48,95.06791605483438 L 33.099999999999994,95.26791605483439 C 33.099999999999994,94.71791605483439 33.199999999999996,94.1679160548344 33.279999999999994,93.58791605483438 A 15.31,15.31 0.0 0,1 31.68,90.96791605483438 C 31.68,91.96791605483438 31.7,92.88791605483438 31.7,93.86791605483438 M 57.62,77.89791605483438 C 57.62,77.89791605483438 57.62,77.89791605483438 57.62,77.89791605483438 C 57.62,77.89791605483438 57.69,77.84791605483439 57.72,77.84791605483439 A 6.51,6.51 0.0 0,0 60.92,76.91791605483438 C 60.870000000000005,76.81791605483438 60.800000000000004,76.71791605483438 60.75,76.61791605483438 A 1.89,1.89 0.0 0,1 60.2,76.51791605483439 A 1.59,1.59 0.0 0,1 59.2,75.96791605483439 C 59.150000000000006,75.8979160548344 59.2,75.81791605483438 59.32,75.81791605483438 A 5.0,5.0 0.0 0,0 60.53,75.89791605483438 A 1.14,1.14 0.0 0,1 60.65,74.89791605483438 L 60.58,74.89791605483438 C 60.5,74.89791605483438 60.58,74.79791605483439 60.58,74.74791605483438 A 2.65,2.65 0.0 0,1 59.43,74.49791605483438 A 4.61,4.61 0.0 0,1 53.87,74.11791605483438 C 53.87,74.54791605483439 53.87,74.99791605483438 53.87,75.41791605483438 C 55.54,76.41791605483438 57.419999999999995,75.76791605483437 59.099999999999994,75.09791605483439 C 59.199999999999996,75.09791605483439 59.3,75.16791605483438 59.23,75.24791605483439 C 58.449999999999996,76.09791605483439 57.699999999999996,77.1479160548344 56.449999999999996,77.24791605483439 A 2.81,2.81 0.0 0,1 54.71,76.96791605483438 A 3.77,3.77 0.0 0,1 53.79,75.96791605483438 C 53.79,76.36791605483438 53.79,76.76791605483437 53.79,77.16791605483438 A 2.0,2.0 0.0 0,0 54.62,78.06791605483438 A 10.88,10.88 0.0 0,0 55.989999999999995,78.61791605483438 C 56.919999999999995,78.96791605483438 57.989999999999995,79.54791605483439 58.989999999999995,79.06791605483438 A 0.1,0.1 0.0 0,1 59.10999999999999,79.21791605483439 A 2.51,2.51 0.0 0,1 57.43999999999999,80.21791605483439 A 7.72,7.72 0.0 0,0 58.63999999999999,80.3679160548344 A 3.46,3.46 0.0 0,0 60.5,79.96791605483438 C 60.5,79.96791605483438 60.5,79.96791605483438 60.57,79.89791605483438 A 0.65,0.65 0.0 0,1 60.75,79.89791605483438 C 60.75,79.89791605483438 60.82,79.89791605483438 60.87,79.89791605483438 L 60.919999999999995,79.89791605483438 A 2.61,2.61 0.0 0,0 61.21999999999999,79.69791605483438 C 61.21999999999999,79.21791605483438 61.21999999999999,78.69791605483438 61.21999999999999,78.26791605483437 A 3.91,3.91 0.0 0,1 59.669999999999995,78.66791605483438 A 4.07,4.07 0.0 0,1 57.50999999999999,78.14791605483438 A 0.13656500283747794,0.13656500283747794 0.0 0,1 57.62,77.89791605483438 M 61.07,86.42791605483437 C 61.07,85.98791605483437 61.07,85.52791605483436 61.07,85.10791605483438 C 61.07,85.10791605483438 61.02,85.10791605483438 61.02,85.10791605483438 C 61.02,85.10791605483438 61.02,85.10791605483438 61.02,85.10791605483438 A 12.72,12.72 0.0 0,1 59.82,86.10791605483438 A 10.56,10.56 0.0 0,1 60.82,86.58791605483438 L 61.12,86.35791605483438 C 61.12,86.35791605483438 61.07,86.42791605483437 61.07,86.42791605483437 M 61.32,74.74791605483438 L 61.32,74.66791605483438 A 2.51,2.51 0.0 0,1 60.72,74.76791605483437 A 0.69,0.69 0.0 0,0 60.85,74.76791605483437 A 1.33,1.33 0.0 0,1 61.32,74.74791605483438 M 2.68,69.06791605483437 C 2.68,69.06791605483437 2.68,69.06791605483437 2.68,69.06791605483437 L 2.08,69.83791605483437 L 2.96,69.38791605483436 A 2.21,2.21 0.0 0,1 2.68,69.06791605483437 M 68.71,85.80791605483438 C 68.14,85.22791605483438 67.58,84.62791605483437 67.02999999999999,84.02791605483438 A 2.67,2.67 0.0 0,1 64.39999999999999,85.02791605483438 A 4.93,4.93 0.0 0,1 61.69999999999999,83.44791605483438 L 61.69999999999999,86.22791605483438 A 0.12,0.12 0.0 0,1 61.79999999999999,86.27791605483438 C 61.79999999999999,86.27791605483438 61.79999999999999,86.27791605483438 61.79999999999999,86.34791605483437 C 61.79999999999999,86.41791605483436 61.79999999999999,86.34791605483437 61.79999999999999,86.40791605483437 C 61.79999999999999,86.46791605483438 61.79999999999999,86.40791605483437 61.86999999999999,86.40791605483437 C 63.16999999999999,88.40791605483437 66.24999999999999,88.40791605483437 68.14999999999999,87.40791605483437 C 68.24999999999999,87.40791605483437 68.35,87.47791605483437 68.27999999999999,87.55791605483438 A 6.83,6.83 0.0 0,1 66.23,88.96791605483438 L 67.31,88.96791605483438 A 5.0,5.0 0.0 0,0 69.39,88.48791605483437 C 69.49,88.48791605483437 69.56,88.53791605483437 69.51,88.63791605483438 A 5.07,5.07 0.0 0,1 68.41,89.96791605483438 A 12.1,12.1 0.0 0,0 73.41,90.36791605483438 C 72.59,90.50791605483438 69.34,86.45791605483437 68.71,85.80791605483438 M 31.68,70.68791605483437 L 31.68,71.48791605483437 L 31.73,71.48791605483437 C 31.73,71.23791605483437 31.7,70.96791605483438 31.68,70.68791605483437 M 41.17,77.71791605483438 L 41.17,78.52791605483438 L 41.17,78.52791605483438 A 7.65,7.65 0.0 0,1 41.17,77.71791605483438 M 61.75,80.17791605483437 A 4.16,4.16 0.0 0,0 64.1,80.64791605483437 C 64.03,80.54791605483437 63.92999999999999,80.44791605483437 63.849999999999994,80.34791605483437 L 63.349999999999994,79.77791605483438 A 4.5,4.5 0.0 0,1 61.8,78.87791605483437 A 11.21,11.21 0.0 0,0 61.75,80.17791605483437 M 61.7,71.11791605483438 L 61.7,71.96791605483438 L 61.7,71.96791605483438 C 61.73,71.63791605483438 61.73,71.38791605483438 61.7,71.11791605483438 M 13.32,43.33791605483437 C 12.85,46.58791605483437 12.82,49.647916054834376 11.67,52.74791605483438 A 64.51,64.51 0.0 0,1 6.09,64.08791605483438 A 2.88,2.88 0.0 0,1 6.859999999999999,64.78791605483438 A 0.51,0.51 0.0 0,1 6.859999999999999,65.40791605483439 A 0.85,0.85 0.0 0,1 6.379999999999999,65.68791605483439 A 1.08,1.08 0.0 0,1 6.839999999999999,65.98791605483439 A 3.0,3.0 0.0 0,0 7.9399999999999995,66.78791605483438 C 8.36,66.58791605483438 8.76,66.35791605483438 9.19,66.15791605483439 C 8.51,67.40791605483437 7.81,68.66791605483438 7.09,69.96791605483438 A 9.31,9.31 0.0 0,0 8.67,69.96791605483438 A 0.11,0.11 0.0 0,1 8.74,70.13791605483438 A 2.86,2.86 0.0 0,1 7.0,70.78791605483437 A 2.82,2.82 0.0 0,1 6.6,70.78791605483437 C 6.3999999999999995,71.10791605483436 6.199999999999999,71.45791605483437 6.02,71.78791605483437 L 6.02,71.96791605483438 C 6.67,72.96791605483438 8.02,72.96791605483438 9.02,73.19791605483438 A 7.51,7.51 0.0 0,0 12.51,73.34791605483439 C 12.58,73.34791605483439 12.68,73.42791605483438 12.61,73.49791605483439 A 4.61,4.61 0.0 0,1 5.8999999999999995,74.1779160548344 C 5.8999999999999995,74.5979160548344 5.8999999999999995,75.0479160548344 5.8999999999999995,75.4779160548344 C 7.579999999999999,76.4779160548344 9.45,75.82791605483439 11.129999999999999,75.1479160548344 C 11.229999999999999,75.0979160548344 11.329999999999998,75.2279160548344 11.26,75.2979160548344 A 5.67,5.67 0.0 0,1 8.95,77.2079160548344 C 8.709999999999999,77.7079160548344 8.45,78.2079160548344 8.229999999999999,78.7579160548344 C 9.129999999999999,79.10791605483439 10.229999999999999,79.60791605483439 11.11,79.1579160548344 A 0.1,0.1 0.0 0,1 11.229999999999999,79.30791605483441 A 2.75,2.75 0.0 0,1 8.579999999999998,80.30791605483441 A 5.22,5.22 0.0 0,1 7.699999999999998,80.05791605483441 A 23.42,23.42 0.0 0,0 6.879999999999998,82.6379160548344 A 5.45,5.45 0.0 0,0 12.36,82.7079160548344 C 12.459999999999999,82.7079160548344 12.559999999999999,82.7879160548344 12.49,82.8579160548344 A 7.0,7.0 0.0 0,1 10.41,84.33791605483441 L 11.48,84.25791605483441 A 4.94,4.94 0.0 0,0 13.56,83.78791605483441 C 13.66,83.73791605483441 13.74,83.78791605483441 13.690000000000001,83.93791605483442 A 5.0,5.0 0.0 0,1 9.98,86.51791605483442 A 4.61,4.61 0.0 0,1 6.33,85.35791605483442 C 6.76,86.96791605483438 8.46,87.65791605483437 10.0,88.23791605483437 A 11.26,11.26 0.0 0,0 11.72,88.75791605483437 C 12.65,87.08791605483437 13.63,85.42791605483437 14.72,83.75791605483437 C 15.040000000000001,84.75791605483437 15.350000000000001,85.83791605483437 15.620000000000001,86.87791605483437 L 16.37,86.95791605483437 A 3.46,3.46 0.0 0,0 18.25,86.55791605483437 C 18.25,86.55791605483437 18.25,86.55791605483437 18.33,86.47791605483437 A 1.46,1.46 0.0 0,1 18.5,86.47791605483437 C 18.55,86.47791605483437 18.57,86.41791605483436 18.63,86.41791605483436 L 18.63,86.41791605483436 A 1.61,1.61 0.0 0,0 18.939999999999998,86.21791605483436 C 18.939999999999998,85.74791605483436 18.939999999999998,85.21791605483436 18.939999999999998,84.79791605483436 A 4.28,4.28 0.0 0,1 17.389999999999997,85.19791605483437 A 4.1,4.1 0.0 0,1 15.229999999999997,84.66791605483436 C 15.129999999999997,84.66791605483436 15.229999999999997,84.44791605483437 15.329999999999997,84.49791605483436 L 15.329999999999997,84.49791605483436 C 15.329999999999997,84.49791605483436 15.379999999999997,84.44791605483437 15.399999999999997,84.44791605483437 A 6.55,6.55 0.0 0,0 19.0,83.30791605483438 L 19.0,83.20791605483439 A 2.2,2.2 0.0 0,1 17.95,83.20791605483439 A 1.62,1.62 0.0 0,1 16.95,82.65791605483439 C 16.95,82.57791605483439 16.95,82.50791605483438 17.08,82.50791605483438 A 4.57,4.57 0.0 0,0 18.81,82.50791605483438 A 0.08,0.08 0.0 0,1 18.88,82.50791605483438 L 19.06,82.42791605483438 C 19.06,82.22791605483438 19.06,82.02791605483438 19.06,81.82791605483439 L 18.33,81.52791605483439 C 18.259999999999998,81.52791605483439 18.33,81.4279160548344 18.33,81.37791605483439 A 2.62,2.62 0.0 0,1 16.25,80.37791605483439 C 16.2,80.3079160548344 16.25,80.17791605483438 16.35,80.20791605483439 L 16.450000000000003,80.20791605483439 C 16.450000000000003,80.20791605483439 16.500000000000004,80.20791605483439 16.550000000000004,80.20791605483439 A 6.14,6.14 0.0 0,0 19.110000000000003,80.20791605483439 C 19.110000000000003,79.80791605483438 19.110000000000003,79.43791605483439 19.110000000000003,79.03791605483438 A 4.4,4.4 0.0 0,1 18.560000000000002,79.40791605483439 A 1.48,1.48 0.0 0,1 17.76,79.53791605483438 C 17.21,79.53791605483438 16.46,79.53791605483438 16.05,79.03791605483438 C 16.05,78.95791605483439 16.05,78.85791605483438 16.13,78.85791605483438 A 8.07,8.07 0.0 0,0 18.31,78.55791605483438 A 1.23,1.23 0.0 0,0 18.06,78.55791605483438 C 17.83,78.55791605483438 17.31,78.40791605483437 17.16,78.18791605483437 C 17.01,77.96791605483438 17.16,77.87791605483437 17.31,77.77791605483438 C 17.61,77.53791605483438 18.009999999999998,77.33791605483438 18.31,77.10791605483438 C 18.31,77.10791605483438 18.31,77.10791605483438 18.31,77.10791605483438 C 18.31,77.10791605483438 18.23,77.03791605483438 18.259999999999998,76.96791605483438 A 11.74,11.74 0.0 0,1 19.209999999999997,75.35791605483438 L 19.139999999999997,75.35791605483438 C 19.039999999999996,75.28791605483438 19.189999999999998,75.13791605483438 19.289999999999996,75.23791605483437 C 19.389999999999993,75.33791605483437 19.289999999999996,75.23791605483437 19.359999999999996,75.28791605483437 C 19.429999999999996,75.33791605483437 19.489999999999995,75.28791605483437 19.489999999999995,75.38791605483436 A 4.72,4.72 0.0 0,1 20.439999999999994,76.20791605483436 A 0.54,0.54 0.0 0,1 20.489999999999995,76.83791605483435 A 1.0,1.0 0.0 0,1 20.0,76.96791605483438 A 0.92,0.92 0.0 0,1 20.45,77.26791605483437 A 2.26,2.26 0.0 0,0 22.21,78.16791605483438 A 0.09,0.09 0.0 0,1 22.21,78.33791605483438 A 4.14,4.14 0.0 0,1 19.93,79.01791605483439 A 1.78,1.78 0.0 0,1 19.6,79.01791605483439 L 19.6,80.09791605483439 A 6.34,6.34 0.0 0,0 20.900000000000002,79.56791605483438 C 20.98,79.56791605483438 21.080000000000002,79.56791605483438 21.03,79.71791605483439 A 3.7,3.7 0.0 0,1 19.580000000000002,81.04791605483439 L 19.580000000000002,81.14791605483438 A 10.11,10.11 0.0 0,0 22.160000000000004,81.14791605483438 A 0.11,0.11 0.0 0,1 22.230000000000004,81.31791605483438 A 2.79,2.79 0.0 0,1 20.480000000000004,82.07791605483439 A 4.4,4.4 0.0 0,1 19.550000000000004,81.9779160548344 C 19.550000000000004,82.3979160548344 19.550000000000004,82.82791605483439 19.550000000000004,83.24791605483439 C 20.200000000000003,84.24791605483439 21.550000000000004,84.24791605483439 22.550000000000004,84.4779160548344 A 10.5,10.5 0.0 0,0 24.700000000000003,84.77791605483439 L 24.480000000000004,84.54791605483439 A 0.09,0.09 0.0 0,1 24.480000000000004,84.39791605483438 C 24.600000000000005,84.39791605483438 24.600000000000005,84.39791605483438 24.730000000000004,84.39791605483438 C 24.860000000000003,84.39791605483438 25.100000000000005,84.64791605483438 25.300000000000004,84.72791605483438 A 4.0,4.0 0.0 0,0 26.030000000000005,84.59791605483439 C 26.110000000000003,84.59791605483439 26.210000000000004,84.67791605483438 26.130000000000006,84.74791605483439 C 26.050000000000008,84.8179160548344 26.030000000000005,84.87791605483439 25.980000000000008,84.9279160548344 A 12.17,12.17 0.0 0,0 27.28000000000001,85.1479160548344 A 6.51,6.51 0.0 0,0 30.860000000000007,84.5479160548344 C 30.940000000000005,84.47791605483441 31.010000000000005,84.4279160548344 31.090000000000007,84.3479160548344 C 31.090000000000007,84.0479160548344 31.090000000000007,83.7479160548344 31.090000000000007,83.4779160548344 A 2.2,2.2 0.0 0,1 29.890000000000008,83.8979160548344 C 29.520000000000007,83.8979160548344 28.74000000000001,83.8979160548344 28.590000000000007,83.4479160548344 L 28.540000000000006,83.4479160548344 C 28.420000000000005,83.4479160548344 28.470000000000006,83.2279160548344 28.590000000000007,83.24791605483439 A 2.44,2.44 0.0 0,0 31.090000000000007,82.1479160548344 C 31.090000000000007,81.3479160548344 31.090000000000007,80.5679160548344 31.150000000000006,79.7679160548344 A 3.7,3.7 0.0 0,1 30.020000000000007,80.6179160548344 A 3.0,3.0 0.0 0,1 28.590000000000007,80.7979160548344 A 3.48,3.48 0.0 0,1 26.210000000000008,79.5179160548344 C 26.140000000000008,79.44791605483441 26.210000000000008,79.3179160548344 26.340000000000007,79.3679160548344 A 5.34,5.34 0.0 0,0 28.590000000000007,79.8979160548344 A 3.46,3.46 0.0 0,0 30.470000000000006,79.49791605483439 C 30.470000000000006,79.49791605483439 30.470000000000006,79.49791605483439 30.540000000000006,79.4179160548344 L 30.720000000000006,79.4179160548344 C 30.770000000000007,79.4179160548344 30.790000000000006,79.3679160548344 30.840000000000007,79.3679160548344 L 30.890000000000008,79.3679160548344 A 1.74,1.74 0.0 0,0 31.19000000000001,79.1679160548344 C 31.19000000000001,78.6979160548344 31.19000000000001,78.1679160548344 31.19000000000001,77.73791605483439 A 4.1,4.1 0.0 0,1 29.640000000000008,78.14791605483438 A 4.0,4.0 0.0 0,1 27.49000000000001,77.61791605483438 C 27.38000000000001,77.61791605483438 27.49000000000001,77.39791605483438 27.59000000000001,77.43791605483437 L 27.59000000000001,77.43791605483437 A 0.12,0.12 0.0 0,1 27.67000000000001,77.43791605483437 A 6.47,6.47 0.0 0,0 31.22000000000001,76.27791605483438 L 31.22000000000001,76.17791605483438 A 2.08,2.08 0.0 0,1 30.17000000000001,76.12791605483439 A 1.62,1.62 0.0 0,1 29.17000000000001,75.57791605483439 C 29.17000000000001,75.5079160548344 29.17000000000001,75.42791605483438 29.300000000000008,75.42791605483438 A 4.38,4.38 0.0 0,0 31.03000000000001,75.42791605483438 A 0.11,0.11 0.0 0,1 31.10000000000001,75.42791605483438 L 31.28000000000001,75.35791605483439 C 31.28000000000001,75.15791605483439 31.28000000000001,74.95791605483439 31.28000000000001,74.7579160548344 L 30.550000000000008,74.4579160548344 C 30.480000000000008,74.4579160548344 30.500000000000007,74.3579160548344 30.550000000000008,74.3079160548344 A 2.62,2.62 0.0 0,1 28.470000000000006,73.3079160548344 C 28.420000000000005,73.2379160548344 28.470000000000006,73.10791605483439 28.570000000000007,73.13791605483439 L 28.67000000000001,73.13791605483439 C 28.67000000000001,73.13791605483439 28.72000000000001,73.13791605483439 28.77000000000001,73.13791605483439 A 6.14,6.14 0.0 0,0 31.33000000000001,73.13791605483439 C 31.33000000000001,72.73791605483439 31.33000000000001,72.35791605483439 31.33000000000001,71.95791605483439 A 4.14,4.14 0.0 0,1 30.78000000000001,72.33791605483438 A 1.47,1.47 0.0 0,1 29.980000000000008,72.45791605483439 C 29.430000000000007,72.45791605483439 28.680000000000007,72.45791605483439 28.28000000000001,71.95791605483439 C 28.230000000000008,71.88791605483439 28.28000000000001,71.78791605483438 28.35000000000001,71.78791605483438 A 8.07,8.07 0.0 0,0 30.53000000000001,71.48791605483439 A 0.79,0.79 0.0 0,0 30.28000000000001,71.48791605483439 C 30.050000000000008,71.48791605483439 29.53000000000001,71.33791605483438 29.38000000000001,71.10791605483439 C 29.23000000000001,70.8779160548344 29.38000000000001,70.8079160548344 29.53000000000001,70.70791605483439 A 9.92,9.92 0.0 0,1 30.53000000000001,70.03791605483438 C 30.53000000000001,70.03791605483438 30.53000000000001,70.03791605483438 30.53000000000001,70.03791605483438 C 30.53000000000001,70.03791605483438 30.45000000000001,69.96791605483439 30.480000000000008,69.88791605483438 A 12.25,12.25 0.0 0,1 31.430000000000007,68.28791605483438 L 31.360000000000007,68.28791605483438 C 31.260000000000005,68.21791605483439 31.410000000000007,68.05791605483438 31.510000000000005,68.15791605483439 C 31.610000000000003,68.2579160548344 31.560000000000006,68.15791605483439 31.580000000000005,68.21791605483439 C 31.600000000000005,68.27791605483439 31.710000000000004,68.21791605483439 31.710000000000004,68.31791605483438 A 4.42,4.42 0.0 0,1 32.660000000000004,69.13791605483438 A 0.54,0.54 0.0 0,1 32.71,69.76791605483437 A 0.93,0.93 0.0 0,1 32.230000000000004,70.03791605483437 A 1.08,1.08 0.0 0,1 32.68000000000001,70.33791605483437 A 2.19,2.19 0.0 0,0 34.43000000000001,71.23791605483437 A 0.1,0.1 0.0 0,1 34.49000000000001,71.41791605483438 A 4.13,4.13 0.0 0,1 32.21000000000001,72.08791605483438 A 2.65,2.65 0.0 0,1 32.0,71.96791605483438 L 32.0,72.96791605483438 A 6.34,6.34 0.0 0,0 33.3,72.43791605483437 C 33.379999999999995,72.43791605483437 33.48,72.43791605483437 33.43,72.58791605483438 A 3.7,3.7 0.0 0,1 31.93,73.96791605483438 L 31.93,74.06791605483437 A 10.0,10.0 0.0 0,0 34.5,74.06791605483437 A 0.11,0.11 0.0 0,1 34.58,74.23791605483437 A 2.86,2.86 0.0 0,1 32.83,74.98791605483437 A 3.83,3.83 0.0 0,1 31.9,74.88791605483438 C 31.9,75.31791605483438 31.9,75.73791605483437 31.9,76.16791605483438 C 32.55,77.16791605483438 33.9,77.16791605483438 34.9,77.38791605483438 A 7.33,7.33 0.0 0,0 38.379999999999995,77.54791605483437 C 38.449999999999996,77.54791605483437 38.55,77.61791605483437 38.48,77.68791605483437 A 4.6,4.6 0.0 0,1 31.769999999999996,78.36791605483438 C 31.769999999999996,78.79791605483439 31.769999999999996,79.24791605483438 31.769999999999996,79.66791605483438 C 33.449999999999996,80.66791605483438 35.33,80.01791605483437 37.01,79.34791605483439 A 0.1,0.1 0.0 0,1 37.129999999999995,79.49791605483439 C 36.349999999999994,80.34791605483439 35.599999999999994,81.3979160548344 34.349999999999994,81.49791605483439 A 2.72,2.72 0.0 0,1 32.699999999999996,81.21791605483439 A 3.92,3.92 0.0 0,1 31.769999999999996,80.21791605483439 C 31.769999999999996,80.6179160548344 31.769999999999996,81.01791605483439 31.769999999999996,81.4179160548344 A 2.0,2.0 0.0 0,0 32.589999999999996,82.3179160548344 A 11.66,11.66 0.0 0,0 33.97,82.8679160548344 C 34.9,83.21791605483439 35.97,83.7979160548344 36.97,83.3179160548344 A 0.1,0.1 0.0 0,1 37.1,83.4679160548344 A 2.73,2.73 0.0 0,1 34.45,84.4679160548344 A 4.9,4.9 0.0 0,1 31.65,82.96791605483438 L 31.65,85.73791605483437 A 0.12,0.12 0.0 0,1 31.75,85.79791605483437 C 31.75,85.79791605483437 31.75,85.79791605483437 31.75,85.86791605483437 C 31.75,85.93791605483436 31.75,85.86791605483437 31.75,85.86791605483437 A 0.1,0.1 0.0 0,1 31.82,85.86791605483437 A 3.63,3.63 0.0 0,0 34.5,87.44791605483437 C 34.73,86.71791605483436 34.95,86.01791605483436 35.2,85.31791605483437 C 35.88,85.76791605483437 36.53,86.23791605483437 37.2,86.71791605483438 A 4.8,4.8 0.0 0,0 38.050000000000004,86.79791605483437 L 38.050000000000004,86.79791605483437 L 38.050000000000004,86.79791605483437 A 0.09,0.09 0.0 0,1 38.17,86.79791605483437 A 3.92,3.92 0.0 0,0 39.85,86.39791605483437 C 39.85,86.39791605483437 39.85,86.33791605483437 39.92,86.31791605483437 L 40.1,86.31791605483437 A 0.24,0.24 0.0 0,1 40.22,86.31791605483437 L 40.28,86.31791605483437 A 1.74,1.74 0.0 0,0 40.58,86.11791605483437 C 40.58,85.63791605483436 40.58,85.11791605483437 40.58,84.68791605483436 A 3.91,3.91 0.0 0,1 39.03,85.08791605483437 A 4.09,4.09 0.0 0,1 37.0,84.55791605483438 C 36.9,84.55791605483438 37.0,84.32791605483438 37.1,84.37791605483437 L 37.1,84.37791605483437 C 37.1,84.37791605483437 37.1,84.37791605483437 37.17,84.37791605483437 A 6.39,6.39 0.0 0,0 40.730000000000004,83.22791605483437 L 40.730000000000004,83.12791605483437 A 2.08,2.08 0.0 0,1 39.68000000000001,83.12791605483437 A 1.62,1.62 0.0 0,1 38.68000000000001,82.57791605483438 C 38.68000000000001,82.50791605483438 38.68000000000001,82.42791605483437 38.81000000000001,82.42791605483437 A 4.33,4.33 0.0 0,0 40.53000000000001,82.42791605483437 A 0.11,0.11 0.0 0,1 40.61000000000001,82.42791605483437 L 40.790000000000006,82.35791605483438 C 40.790000000000006,82.15791605483437 40.790000000000006,81.95791605483437 40.790000000000006,81.74791605483438 L 40.06000000000001,81.44791605483438 C 39.99000000000001,81.44791605483438 40.01000000000001,81.34791605483439 40.06000000000001,81.29791605483437 A 2.61,2.61 0.0 0,1 37.98000000000001,80.29791605483437 C 37.930000000000014,80.21791605483438 37.98000000000001,80.09791605483437 38.08000000000001,80.11791605483437 L 38.180000000000014,80.11791605483437 A 0.12,0.12 0.0 0,1 38.280000000000015,80.11791605483437 A 6.49,6.49 0.0 0,0 40.84000000000002,80.11791605483437 C 40.84000000000002,79.71791605483436 40.84000000000002,79.33791605483437 40.84000000000002,78.93791605483436 A 3.58,3.58 0.0 0,1 40.29000000000002,79.31791605483436 A 1.47,1.47 0.0 0,1 39.49000000000002,79.43791605483436 C 38.940000000000026,79.38791605483436 38.190000000000026,79.43791605483436 37.79000000000002,78.93791605483436 C 37.79000000000002,78.86791605483437 37.79000000000002,78.76791605483436 37.86000000000002,78.76791605483436 A 8.07,8.07 0.0 0,0 40.04000000000002,78.46791605483436 A 0.79,0.79 0.0 0,0 39.79000000000002,78.46791605483436 C 39.560000000000024,78.46791605483436 39.04000000000002,78.31791605483436 38.89000000000002,78.08791605483437 C 38.74000000000002,77.85791605483438 38.89000000000002,77.78791605483437 39.04000000000002,77.68791605483436 A 11.87,11.87 0.0 0,1 40.09,76.96791605483438 C 40.09,76.96791605483438 40.09,76.96791605483438 40.040000000000006,76.96791605483438 C 39.99000000000001,76.96791605483438 39.96000000000001,76.88791605483438 40.040000000000006,76.81791605483437 A 13.48,13.48 0.0 0,1 40.99000000000001,75.21791605483438 L 40.92000000000001,75.16791605483438 C 40.82000000000001,75.08791605483438 40.970000000000006,74.93791605483437 41.07000000000001,75.03791605483438 C 41.17000000000001,75.13791605483439 41.07000000000001,75.03791605483438 41.14000000000001,75.03791605483438 C 41.21000000000001,75.03791605483438 41.27000000000001,75.03791605483438 41.27000000000001,75.13791605483438 A 4.46,4.46 0.0 0,1 42.27000000000001,75.96791605483438 A 0.54,0.54 0.0 0,1 42.27000000000001,76.59791605483437 A 0.93,0.93 0.0 0,1 41.79000000000001,76.86791605483437 A 1.0,1.0 0.0 0,1 42.240000000000016,77.16791605483436 A 2.21,2.21 0.0 0,0 44.000000000000014,78.06791605483437 A 0.1,0.1 0.0 0,1 44.000000000000014,78.24791605483438 A 4.07,4.07 0.0 0,1 41.73000000000001,78.91791605483438 A 2.65,2.65 0.0 0,1 41.40000000000001,78.91791605483438 L 41.40000000000001,79.96791605483438 A 6.3,6.3 0.0 0,0 42.70000000000001,79.44791605483438 C 42.78000000000001,79.44791605483438 42.88000000000001,79.49791605483438 42.83000000000001,79.59791605483439 A 3.75,3.75 0.0 0,1 41.38000000000001,80.91791605483438 L 41.38000000000001,80.96791605483438 A 9.67,9.67 0.0 0,0 43.96000000000001,80.96791605483438 C 44.03000000000001,80.96791605483438 44.080000000000005,81.09791605483437 44.03000000000001,81.14791605483438 A 2.84,2.84 0.0 0,1 42.28000000000001,81.89791605483438 A 3.83,3.83 0.0 0,1 41.35000000000001,81.79791605483439 C 41.35000000000001,82.2279160548344 41.30000000000001,82.64791605483438 41.30000000000001,83.07791605483439 C 41.95000000000001,84.07791605483439 43.30000000000001,84.07791605483439 44.30000000000001,84.29791605483439 L 45.02000000000001,84.4479160548344 C 44.72000000000001,84.07791605483439 44.45000000000001,83.6979160548344 44.17000000000001,83.3779160548344 A 0.1,0.1 0.0 0,1 44.30000000000001,83.2279160548344 A 7.09,7.09 0.0 0,0 48.95000000000001,83.77791605483439 A 11.13,11.13 0.0 0,0 53.110000000000014,81.51791605483439 L 53.110000000000014,81.51791605483439 C 53.110000000000014,81.06791605483438 53.110000000000014,80.61791605483438 53.110000000000014,80.18791605483439 C 53.110000000000014,80.18791605483439 53.110000000000014,80.18791605483439 53.110000000000014,80.18791605483439 C 53.110000000000014,80.18791605483439 53.110000000000014,80.18791605483439 53.110000000000014,80.18791605483439 A 5.72,5.72 0.0 0,1 50.0,82.12791605483437 C 48.59,82.25791605483437 47.52,81.04791605483437 46.59,80.12791605483437 A 0.1,0.1 0.0 0,1 46.59,79.97791605483437 A 0.24,0.24 0.0 0,1 46.85,79.97791605483437 C 47.07,80.05791605483437 47.25,80.27791605483436 47.52,80.35791605483436 A 13.08,13.08 0.0 0,0 49.400000000000006,80.75791605483437 A 6.61,6.61 0.0 0,0 52.980000000000004,80.15791605483437 L 53.2,79.95791605483437 A 8.43,8.43 0.0 0,1 53.2,79.07791605483438 A 2.29,2.29 0.0 0,1 52.0,79.50791605483438 C 51.62,79.50791605483438 50.85,79.50791605483438 50.7,79.05791605483438 L 50.650000000000006,79.05791605483438 A 0.10307764064044254,0.10307764064044254 0.0 0,1 50.7,78.85791605483438 A 2.46,2.46 0.0 0,0 53.2,77.75791605483438 C 53.2,76.95791605483439 53.2,76.17791605483438 53.2,75.37791605483439 A 3.91,3.91 0.0 0,1 52.07,76.22791605483438 A 3.0,3.0 0.0 0,1 50.65,76.39791605483438 A 3.46,3.46 0.0 0,1 48.269999999999996,75.12791605483439 A 0.1,0.1 0.0 0,1 48.38999999999999,74.97791605483438 A 5.5,5.5 0.0 0,0 50.64999999999999,75.49791605483438 A 3.42,3.42 0.0 0,0 52.51999999999999,75.09791605483437 C 52.51999999999999,75.09791605483437 52.51999999999999,75.04791605483437 52.59999999999999,75.02791605483438 A 0.65,0.65 0.0 0,1 52.77999999999999,75.02791605483438 A 0.18,0.18 0.0 0,1 53.0,74.96791605483438 L 53.0,74.96791605483438 A 2.61,2.61 0.0 0,0 53.3,74.76791605483437 C 53.3,74.28791605483437 53.3,73.76791605483437 53.3,73.33791605483437 A 3.91,3.91 0.0 0,1 51.739999999999995,73.73791605483437 A 4.0,4.0 0.0 0,1 49.589999999999996,73.21791605483438 C 49.489999999999995,73.21791605483438 49.589999999999996,72.98791605483437 49.69,73.03791605483437 L 49.69,73.03791605483437 C 49.69,73.03791605483437 49.69,73.03791605483437 49.76,73.03791605483437 A 6.47,6.47 0.0 0,0 53.32,71.88791605483436 L 53.32,71.78791605483437 A 2.19,2.19 0.0 0,1 52.32,71.78791605483437 A 1.59,1.59 0.0 0,1 51.32,71.23791605483437 C 51.27,71.15791605483437 51.32,71.08791605483437 51.44,71.08791605483437 A 4.58,4.58 0.0 0,0 53.169999999999995,71.08791605483437 A 0.1,0.1 0.0 0,1 53.24999999999999,71.08791605483437 C 53.24999999999999,71.08791605483437 53.36999999999999,71.08791605483437 53.419999999999995,71.00791605483437 A 4.0,4.0 0.0 0,1 53.419999999999995,70.40791605483437 L 52.69,70.10791605483438 C 52.62,70.10791605483438 52.64,70.00791605483438 52.69,69.95791605483437 A 2.58,2.58 0.0 0,1 50.62,68.95791605483437 C 50.62,68.87791605483437 50.62,68.75791605483437 50.72,68.77791605483436 L 50.82,68.77791605483436 A 0.11,0.11 0.0 0,1 50.92,68.77791605483436 A 6.44,6.44 0.0 0,0 53.47,68.77791605483436 C 53.47,68.36791605483437 53.47,67.99791605483436 53.47,67.59791605483436 A 4.07,4.07 0.0 0,1 52.92,67.96791605483436 A 1.42,1.42 0.0 0,1 52.11,68.09791605483436 C 51.56,68.09791605483436 50.81,68.09791605483436 50.41,67.59791605483436 A 0.1,0.1 0.0 0,1 50.489999999999995,67.42791605483436 A 8.0,8.0 0.0 0,0 52.66,67.12791605483436 A 0.71,0.71 0.0 0,0 52.419999999999995,67.06791605483436 C 52.19,67.01791605483436 51.66,66.91791605483435 51.51,66.69791605483435 C 51.36,66.47791605483435 51.51,66.39791605483435 51.66,66.29791605483435 A 10.74,10.74 0.0 0,1 52.72,65.61791605483434 A 0.07,0.07 0.0 0,1 52.66,65.61791605483434 C 52.589999999999996,65.61791605483434 52.589999999999996,65.53791605483434 52.66,65.46791605483433 A 12.25,12.25 0.0 0,1 53.66,63.86791605483433 L 53.58,63.86791605483433 C 53.48,63.787916054834334 53.629999999999995,63.637916054834335 53.73,63.73791605483433 A 0.35,0.35 0.0 0,1 53.809999999999995,63.73791605483433 A 0.11,0.11 0.0 0,1 53.92999999999999,63.83791605483433 A 4.0,4.0 0.0 0,1 54.92999999999999,64.66791605483434 A 0.51,0.51 0.0 0,1 54.92999999999999,65.28791605483434 A 0.85,0.85 0.0 0,1 54.459999999999994,65.56791605483434 A 1.11,1.11 0.0 0,1 54.91,65.86791605483434 A 2.24,2.24 0.0 0,0 56.66,66.76791605483434 A 0.09,0.09 0.0 0,1 56.66,66.93791605483435 A 4.14,4.14 0.0 0,1 54.379999999999995,67.61791605483435 A 1.76,1.76 0.0 0,1 54.059999999999995,67.61791605483435 L 54.059999999999995,68.69791605483435 A 6.53,6.53 0.0 0,0 55.35999999999999,68.17791605483436 C 55.42999999999999,68.11791605483435 55.529999999999994,68.17791605483436 55.47999999999999,68.31791605483436 A 3.63,3.63 0.0 0,1 54.0,69.53791605483437 L 54.0,69.63791605483436 A 9.67,9.67 0.0 0,0 56.58,69.63791605483436 A 0.12,0.12 0.0 0,1 56.66,69.81791605483437 A 2.89,2.89 0.0 0,1 54.9,70.56791605483437 A 4.24,4.24 0.0 0,1 53.98,70.46791605483438 C 53.98,70.88791605483438 53.93,71.31791605483437 53.93,71.73791605483437 C 54.58,72.73791605483437 55.93,72.73791605483437 56.93,72.96791605483438 A 7.47,7.47 0.0 0,0 60.41,73.11791605483438 C 60.489999999999995,73.11791605483438 60.589999999999996,73.19791605483438 60.51,73.26791605483439 C 60.43,73.3379160548344 60.339999999999996,73.46791605483439 60.26,73.56791605483438 A 5.67,5.67 0.0 0,0 61.339999999999996,73.44791605483438 C 61.339999999999996,73.04791605483437 61.339999999999996,72.66791605483438 61.339999999999996,72.26791605483437 A 4.45,4.45 0.0 0,1 60.79,72.64791605483437 A 1.46,1.46 0.0 0,1 59.99,72.76791605483437 C 59.440000000000005,72.76791605483437 58.690000000000005,72.76791605483437 58.29,72.26791605483437 C 58.29,72.18791605483437 58.29,72.08791605483437 58.36,72.08791605483437 A 8.0,8.0 0.0 0,0 60.54,71.78791605483437 A 1.0,1.0 0.0 0,0 60.29,71.73791605483437 C 60.07,71.73791605483437 59.54,71.58791605483437 59.39,71.36791605483437 C 59.24,71.14791605483437 59.39,71.06791605483437 59.54,70.96791605483436 A 11.87,11.87 0.0 0,1 60.54,70.28791605483435 L 60.54,70.28791605483435 C 60.47,70.28791605483435 60.47,70.20791605483436 60.54,70.13791605483435 L 60.87,69.50791605483435 C 59.61,67.50791605483435 58.339999999999996,65.50791605483435 57.089999999999996,63.507916054834354 L 58.989999999999995,63.73791605483435 C 59.239999999999995,63.73791605483435 59.339999999999996,63.43791605483435 59.19,63.26791605483435 C 56.47,60.17791605483438 53.74,57.077916054834375 51.0,53.967916054834376 L 51.0,53.967916054834376 A 7.76,7.76 0.0 0,0 53.15,53.257916054834375 A 50.11,50.11 0.0 0,0 62.56,47.17791605483438 A 0.3,0.3 0.0 0,0 62.620000000000005,46.85791605483438 C 59.56,42.85791605483438 55.45,38.09791605483438 50.300000000000004,37.647916054834376 A 0.26,0.26 0.0 0,0 50.25000000000001,37.44791605483437 A 8.06,8.06 0.0 0,0 46.52000000000001,34.81791605483437 A 0.44,0.44 0.0 0,0 46.52000000000001,34.63791605483437 C 45.65000000000001,25.47791605483437 37.06000000000001,20.377916054834373 32.33000000000001,13.31791605483437 A 17.51,17.51 0.0 0,1 29.6,6.967916054834377 C 29.220000000000002,5.0679160548343765 29.200000000000003,3.0179160548343766 27.970000000000002,1.4079160548343772 A 3.17,3.17 0.0 0,0 24.41,0.13791605483437683 A 2.46,2.46 0.0 0,0 22.89,1.7679160548343769 A 0.14,0.14 0.0 0,0 22.79,1.817916054834377 C 17.1,5.3979160548343765 18.0,12.627916054834376 19.28,18.237916054834376 L 11.090000000000002,11.177916054834377 C 10.970000000000002,11.077916054834379 10.740000000000002,11.047916054834378 10.670000000000002,11.177916054834377 C 7.290000000000002,18.657916054834377 13.470000000000002,25.767916054834377 14.100000000000001,33.17791605483438 A 43.38,43.38 0.0 0,1 13.32,43.33791605483437 M 62.55,82.85791605483438 C 62.98,83.07791605483438 63.48,83.22791605483438 63.93,83.40791605483437 C 64.85,83.75791605483437 65.93,84.32791605483438 66.93,83.87791605483437 C 66.30000000000001,83.20791605483437 65.7,82.50791605483437 65.10000000000001,81.79791605483437 A 1.73,1.73 0.0 0,1 64.35000000000001,81.97791605483438 A 2.72,2.72 0.0 0,1 62.70000000000001,81.69791605483438 A 3.92,3.92 0.0 0,1 61.77000000000001,80.69791605483438 C 61.77000000000001,81.09791605483439 61.77000000000001,81.49791605483438 61.77000000000001,81.89791605483438 A 2.0,2.0 0.0 0,0 62.55,82.85791605483438 M 61.32,83.50791605483438 L 61.32,83.50791605483438 C 61.32,83.50791605483438 61.32,83.50791605483438 61.32,83.50791605483438 L 61.32,83.10791605483438 L 61.32,83.10791605483438 L 61.32,83.50791605483438 M 53.79,79.74791605483438 L 53.79,81.47791605483438 A 0.12,0.12 0.0 0,1 53.89,81.47791605483438 C 53.89,81.47791605483438 53.89,81.47791605483438 53.89,81.54791605483437 C 53.89,81.61791605483437 53.89,81.54791605483437 53.89,81.60791605483438 C 53.89,81.66791605483438 53.94,81.60791605483438 53.97,81.60791605483438 C 55.269999999999996,83.60791605483438 58.35,83.60791605483438 60.25,82.60791605483438 C 60.35,82.60791605483438 60.45,82.67791605483437 60.38,82.75791605483438 A 7.54,7.54 0.0 0,1 59.230000000000004,83.75791605483438 A 2.7,2.7 0.0 0,0 61.13,82.60791605483438 C 61.13,81.79791605483437 61.13,81.02791605483438 61.18,80.22791605483438 A 3.91,3.91 0.0 0,1 60.05,81.07791605483438 A 3.16,3.16 0.0 0,1 58.62,81.24791605483438 A 3.42,3.42 0.0 0,1 56.449999999999996,80.24791605483438 A 5.0,5.0 0.0 0,1 53.769999999999996,78.67791605483438 L 53.79,79.74791605483438 M 61.37,82.70791605483437 L 61.37,82.70791605483437 L 61.37,82.85791605483438 L 61.37,82.85791605483438 L 61.37,82.70791605483437 M 53.41,70.26791605483437 L 53.41,69.96791605483438 A 2.51,2.51 0.0 0,1 52.809999999999995,70.06791605483437 A 2.45,2.45 0.0 0,0 53.41,70.26791605483437 M 38.59,87.90791605483437 C 38.71,88.00791605483437 38.86000000000001,88.10791605483438 38.99,88.20791605483437 A 3.0,3.0 0.0 0,0 39.36,88.03791605483437 C 39.46,88.03791605483437 39.54,88.08791605483437 39.49,88.18791605483437 A 0.85,0.85 0.0 0,1 39.31,88.45791605483437 L 40.47,89.35791605483438 A 0.79,0.79 0.0 0,0 40.589999999999996,89.20791605483437 C 40.589999999999996,88.40791605483437 40.589999999999996,87.63791605483438 40.589999999999996,86.82791605483438 A 3.77,3.77 0.0 0,1 39.459999999999994,87.68791605483437 A 1.92,1.92 0.0 0,1 38.59,87.90791605483437 M 53.44,78.14791605483438 L 53.44,77.96791605483438 L 53.44,77.96791605483438 L 53.44,78.11791605483438 L 53.44,78.14791605483438 M 53.44,78.74791605483438 L 53.44,78.74791605483438 A 2.82,2.82 0.0 0,0 53.44,78.34791605483437 L 53.44,78.34791605483437 L 53.44,78.76791605483437 L 53.44,78.74791605483438 M 59.0,84.25791605483438 A 1.0,1.0 0.0 0,1 58.72,84.07791605483438 C 58.57,84.15791605483437 58.42,84.22791605483438 58.3,84.30791605483438 A 5.12,5.12 0.0 0,1 59.0,84.25791605483438 M 40.79,81.62791605483437 L 40.79,81.27791605483438 A 2.51,2.51 0.0 0,1 40.19,81.37791605483437 A 5.72,5.72 0.0 0,0 40.79,81.62791605483437 M 40.79,89.63791605483438 L 40.79,89.63791605483438 M 40.79,89.50791605483438 L 40.79,89.50791605483438 L 40.79,89.32791605483438 L 40.79,89.32791605483438 L 40.79,89.50791605483438 M 53.14,83.96791605483438 C 53.14,83.38791605483438 53.14,82.81791605483437 53.14,82.23791605483437 C 52.84,82.78791605483437 52.54,83.36791605483437 52.19,83.88791605483438 A 6.15,6.15 0.0 0,1 53.14,83.96791605483438 M 53.79,66.38791605483438 L 53.79,67.18791605483437 L 53.839999999999996,67.18791605483437 C 53.81,66.90791605483437 53.81,66.63791605483438 53.79,66.38791605483438 M 61.1,84.82791605483438 L 61.1,84.57791605483438 A 4.09,4.09 0.0 0,1 60.57,85.15791605483437 L 60.87,85.02791605483438 C 61.0,84.96791605483438 61.0,84.90791605483437 61.1,84.82791605483438 M 6.15,94.15791605483437 L 8.43,94.15791605483437 L 8.43,97.73791605483437 L 6.15,97.73791605483437 L 6.15,94.15791605483437 M 16.97,93.58791605483438 L 19.25,93.58791605483438 L 19.25,97.73791605483439 L 16.97,97.73791605483439 L 16.97,93.58791605483438 M 0.0,81.63791605483438 L 1.03,81.63791605483438 L 1.03,82.77791605483438 L 0.0,82.77791605483438 L 0.0,81.63791605483438 M 61.37,83.33791605483438 L 73.42,83.33791605483438 L 73.42,90.73791605483439 L 61.37,90.73791605483439 L 61.37,83.33791605483438"/>
</svg>
