<?xml version="1.0" ?>
<svg xmlns="http://www.w3.org/2000/svg" xmlns:ev="http://www.w3.org/2001/xml-events" xmlns:xlink="http://www.w3.org/1999/xlink" baseProfile="full" enable-background="new 0 0 720 720" height="324" id="Layer_1" transform="scale(0.3875968992248062 0.3875968992248062) translate(-129.0 -162.0)" version="1.1" viewBox="0 0 258 324" width="258" x="0px" xml:space="preserve" y="0px">
	<defs/>
	<path d="M 100.12762914182053,156.10000000000014 C 112.62762914182053,151.5000000000001 118.92762914182055,138.40000000000015 123.12762914182053,126.60000000000014 C 129.0276291418205,106.80000000000013 128.22762914182056,84.90000000000015 121.12762914182053,65.60000000000014 C 116.92762914182055,53.50000000000014 103.62762914182053,47.00000000000014 100.42762914182055,34.40000000000015 C 97.22762914182056,23.000000000000142 95.72762914182056,11.300000000000153 92.52762914182057,1.4210854715202004e-13 C 90.12762914182059,11.500000000000142 89.22762914182056,23.20000000000013 86.92762914182055,34.800000000000125 C 85.52762914182057,42.300000000000125 78.72762914182056,46.90000000000012 74.02762914182057,52.300000000000125 C 64.72762914182056,61.500000000000114 61.52762914182057,74.80000000000013 60.02762914182057,87.30000000000013 C 57.82762914182058,107.40000000000015 60.32762914182058,129.40000000000015 72.72762914182056,146.10000000000014 C 78.72762914182056,154.30000000000013 89.92762914182055,160.20000000000016 100.12762914182053,156.10000000000014 M 168.82762914182058,159.5000000000001 C 185.52762914182057,154.9000000000001 194.52762914182057,137.4000000000001 197.82762914182058,121.60000000000014 C 200.52762914182057,101.10000000000014 200.82762914182058,78.60000000000014 189.72762914182056,60.40000000000015 C 185.12762914182053,52.600000000000136 176.32762914182058,47.100000000000136 175.12762914182053,37.70000000000016 C 172.92762914182055,26.100000000000165 170.82762914182052,14.400000000000148 167.82762914182052,3.0000000000001705 C 164.62762914182053,15.70000000000016 164.82762914182052,29.20000000000016 160.42762914182055,41.600000000000165 C 154.12762914182053,47.70000000000016 145.82762914182052,52.100000000000165 141.82762914182052,60.30000000000015 C 128.62762914182053,84.50000000000014 128.7276291418205,115.50000000000017 140.62762914182053,140.20000000000016 C 145.42762914182055,150.90000000000015 156.12762914182053,161.30000000000013 168.82762914182058,159.5000000000001 M 67.32762914182058,196.70000000000016 C 73.12762914182059,170.40000000000015 59.72762914182056,142.40000000000015 38.32762914182058,127.00000000000017 C 31.227629141820557,122.40000000000015 18.427629141820603,125.50000000000017 15.927629141820603,115.30000000000018 C 12.227629141820614,104.00000000000017 13.127629141820591,91.80000000000018 11.127629141820591,80.20000000000019 C -7.17237085817942,100.6000000000002 1.8276291418205801,128.80000000000018 5.227629141820586,152.9000000000002 C 6.727629141820586,176.6000000000002 19.727629141820557,201.30000000000018 42.62762914182059,210.4000000000002 C 52.927629141820546,215.0000000000001 65.42762914182055,207.5000000000001 67.32762914182058,196.70000000000016 M 244.72762914182056,79.90000000000015 C 243.52762914182057,93.20000000000016 246.52762914182057,108.20000000000016 238.62762914182053,119.90000000000015 C 228.32762914182052,121.90000000000015 218.0276291418205,124.70000000000016 211.0276291418205,133.30000000000013 C 191.2276291418205,151.90000000000015 180.9276291418205,183.7000000000001 194.0276291418205,208.70000000000016 C 200.9276291418205,215.40000000000015 211.7276291418205,215.80000000000018 219.7276291418205,210.90000000000015 C 244.4276291418205,197.20000000000016 256.2276291418205,167.50000000000017 254.62762914182048,140.30000000000018 C 257.8276291418206,120.10000000000014 261.8276291418206,95.00000000000011 244.72762914182056,79.90000000000015 M 185.72762914182056,239.30000000000013 L 186.32762914182058,234.90000000000015 C 185.02762914182057,235.80000000000013 182.4276291418206,237.60000000000014 181.1276291418206,238.50000000000017 C 172.82762914182058,228.40000000000015 168.22762914182061,216.20000000000016 164.9276291418206,203.6000000000002 C 158.9276291418206,177.50000000000017 120.82762914182058,167.9000000000002 102.62762914182059,187.00000000000017 C 91.32762914182058,198.70000000000016 90.62762914182059,217.00000000000017 78.32762914182058,228.1000000000002 C 67.32762914182058,238.50000000000017 49.72762914182056,237.1000000000002 39.22762914182056,248.1000000000002 C 23.82762914182058,264.2000000000002 22.82762914182058,291.8000000000002 37.927629141820546,308.4000000000002 C 48.02762914182057,319.7000000000002 65.42762914182055,326.6000000000002 79.82762914182052,319.8000000000002 C 92.7276291418205,313.20000000000016 103.62762914182053,301.6000000000002 118.7276291418205,299.70000000000016 C 131.82762914182052,297.8000000000002 144.2276291418205,304.40000000000015 154.62762914182048,311.70000000000016 C 166.62762914182048,323.10000000000014 183.9276291418205,327.00000000000017 199.52762914182046,321.00000000000017 C 223.42762914182043,308.90000000000015 231.82762914182047,275.40000000000015 217.02762914182046,253.30000000000018 C 209.72762914182056,243.20000000000016 196.42762914182055,243.20000000000016 185.72762914182056,239.30000000000013"/>
</svg>
