<?xml version="1.0" ?>
<svg xmlns="http://www.w3.org/2000/svg" xmlns:ev="http://www.w3.org/2001/xml-events" xmlns:xlink="http://www.w3.org/1999/xlink" baseProfile="full" height="87" transform="scale(2.272727272727273 2.272727272727273) translate(-22.0 -43.5)" version="1.1" viewBox="0 0 44 87" width="44">
	<defs/>
	<path d="M 43.16,54.95275084953597 A 21.87,21.87 0.0 0,0 43.8,50.02275084953597 A 37.94,37.94 0.0 0,0 43.65,44.91275084953597 C 43.49,43.19275084953597 43.11,41.50275084953597 42.93,39.80275084953597 C 42.85,38.95275084953597 42.8,38.102750849535965 42.64,37.26275084953597 C 42.55,36.79275084953597 42.01,35.75275084953597 42.52,35.422750849535966 A 0.19,0.19 0.0 0,0 42.61000000000001,35.212750849535965 C 41.87,33.432750849535964 40.87,31.762750849535962 40.0,30.022750849535964 C 39.13,28.282750849535965 38.57,26.312750849535963 37.82,24.492750849535962 C 38.03,24.492750849535962 38.22,24.492750849535962 38.43,24.492750849535962 A 0.19,0.19 0.0 0,0 38.61,24.252750849535964 C 38.28,23.472750849535963 38.07,22.652750849535963 37.75,21.872750849535965 A 0.17,0.17 0.0 0,0 37.75,21.682750849535964 A 24.62,24.62 0.0 0,1 36.14,18.582750849535962 A 6.63,6.63 0.0 0,0 37.14,18.64275084953596 A 0.19,0.19 0.0 0,0 37.3,18.36275084953596 C 36.3,16.57275084953596 35.629999999999995,14.66275084953596 34.66,12.87275084953596 A 15.14,15.14 0.0 0,0 33.01,10.38275084953596 A 8.22,8.22 0.0 0,0 32.01,9.30275084953596 C 31.839999999999996,9.152750849535959 31.669999999999998,8.992750849535959 31.479999999999997,8.85275084953596 C 31.289999999999996,8.712750849535961 31.229999999999997,8.70275084953596 31.179999999999996,8.57275084953596 A 1.7,1.7 0.0 0,1 31.179999999999996,8.17275084953596 A 2.92,2.92 0.0 0,0 30.82,7.022750849535964 A 4.21,4.21 0.0 0,1 30.48,6.502750849535964 A 4.35,4.35 0.0 0,1 30.41,5.502750849535964 A 12.18,12.18 0.0 0,0 29.68,2.5027508495359645 A 5.12,5.12 0.0 0,0 28.6,0.6027508495359639 C 28.130000000000003,0.15275084953596393 27.540000000000003,0.3627508495359639 27.0,0.6027508495359639 A 10.83,10.83 0.0 0,0 24.72,2.022750849535964 A 14.46,14.46 0.0 0,0 22.6,4.892750849535964 A 10.38,10.38 0.0 0,0 19.55,5.022750849535964 A 6.5,6.5 0.0 0,0 18.43,5.422750849535964 A 36.62,36.62 0.0 0,0 13.309999999999999,2.1227508495359646 C 12.649999999999999,1.7227508495359647 12.02,1.3027508495359648 11.379999999999999,0.8827508495359645 A 5.55,5.55 0.0 0,0 9.71,0.022750849535963985 C 9.170000000000002,-0.09724915046403601 8.91,0.27275084953596396 8.840000000000003,0.772750849535964 A 3.29,3.29 0.0 0,0 9.150000000000002,2.7227508495359642 A 17.0,17.0 0.0 0,1 10.510000000000002,5.282750849535963 C 10.86,6.392750849535964 11.129999999999999,7.532750849535963 11.510000000000002,8.652750849535963 A 1.53,1.53 0.0 0,1 11.620000000000001,9.522750849535962 C 11.55,9.792750849535961 11.46,10.092750849535962 11.39,10.372750849535961 C 11.219999999999999,10.99275084953596 11.100000000000001,11.622750849535961 10.899999999999999,12.242750849535962 C 10.84,12.512750849535962 10.73,12.512750849535962 10.57,12.702750849535963 A 0.94,0.94 0.0 0,0 10.399999999999999,13.082750849535964 A 0.74,0.74 0.0 0,0 10.59,13.792750849535963 A 6.08,6.08 0.0 0,0 10.919999999999998,15.622750849535963 A 4.0,4.0 0.0 0,1 11.11,16.622750849535965 A 1.84,1.84 0.0 0,1 10.989999999999998,17.622750849535965 C 10.849999999999998,17.832750849535966 10.52,17.972750849535966 10.329999999999998,18.132750849535967 L 9.689999999999998,18.652750849535966 A 5.74,5.74 0.0 0,0 9.219999999999999,19.202750849535967 C 9.129999999999999,19.292750849535967 8.939999999999998,19.412750849535968 8.799999999999997,19.522750849535967 C 8.439999999999998,19.522750849535967 7.969999999999998,20.002750849535968 7.799999999999998,20.262750849535966 A 1.0,1.0 0.0 0,0 8.0,21.532750849535965 A 1.32,1.32 0.0 0,0 8.52,22.692750849535965 A 6.0,6.0 0.0 0,0 9.219999999999999,23.092750849535964 A 2.67,2.67 0.0 0,1 9.93,23.842750849535964 A 3.22,3.22 0.0 0,0 11.16,24.842750849535964 A 6.0,6.0 0.0 0,0 12.970000000000002,25.362750849535963 C 13.130000000000003,26.362750849535963 13.25,27.362750849535963 13.48,28.362750849535963 A 6.9,6.9 0.0 0,0 13.790000000000003,29.462750849535965 C 13.840000000000003,29.602750849535965 13.91,29.722750849535966 13.96,29.842750849535964 A 2.67,2.67 0.0 0,1 14.150000000000002,30.592750849535964 A 26.36,26.36 0.0 0,1 13.860000000000003,38.76275084953597 C 13.630000000000003,40.10275084953597 13.340000000000003,41.40275084953597 13.160000000000004,42.76275084953597 A 10.0,10.0 0.0 0,0 12.940000000000001,44.20275084953597 A 4.0,4.0 0.0 0,1 12.760000000000002,45.032750849535965 C 12.71,45.352750849535965 12.760000000000002,45.682750849535964 12.71,46.032750849535965 C 12.66,46.38275084953597 12.620000000000001,46.62275084953597 12.57,46.922750849535966 C 12.43,47.602750849535965 12.260000000000002,48.26275084953597 12.07,48.922750849535966 A 10.21,10.21 0.0 0,0 11.620000000000001,50.672750849535966 A 8.68,8.68 0.0 0,0 11.620000000000001,52.36275084953596 C 11.620000000000001,53.05275084953596 11.530000000000001,53.77275084953596 11.530000000000001,54.48275084953596 C 11.530000000000001,55.02275084953596 11.530000000000001,55.54275084953596 11.530000000000001,56.08275084953596 A 32.73,32.73 0.0 0,1 10.900000000000002,60.08275084953596 L 10.900000000000002,60.08275084953596 A 1.6,1.6 0.0 0,1 10.850000000000001,60.29275084953596 A 21.78,21.78 0.0 0,0 6.16,60.782750849535965 A 4.78,4.78 0.0 0,0 2.75,63.002750849535964 A 0.18,0.18 0.0 0,0 2.91,63.282750849535965 L 3.1300000000000003,63.282750849535965 A 14.0,14.0 0.0 0,0 2.3200000000000003,64.93275084953596 C 2.14,65.29275084953596 1.9400000000000004,65.64275084953596 1.7400000000000002,66.00275084953596 A 1.48,1.48 0.0 0,1 0.7400000000000002,66.92275084953596 C 0.4900000000000002,66.98275084953596 0.6000000000000002,67.32275084953596 0.8400000000000002,67.29275084953596 A 6.22,6.22 0.0 0,0 2.16,66.96275084953596 C 2.16,66.96275084953596 2.16,66.96275084953596 2.23,66.96275084953596 C 1.4400000000000008,68.35275084953597 0.5900000000000009,69.69275084953597 8.881784197001252e-16,71.15275084953596 C 8.881784197001252e-16,71.27275084953597 0.0700000000000009,71.37275084953596 0.18000000000000088,71.39275084953596 A 11.25,11.25 0.0 0,1 1.6000000000000008,71.46275084953595 A 7.63,7.63 0.0 0,1 0.5200000000000009,73.77275084953597 A 0.19,0.19 0.0 0,0 0.5900000000000009,74.02275084953597 C 0.8100000000000008,74.16275084953597 1.050000000000001,74.30275084953597 1.260000000000001,74.46275084953596 A 3.46,3.46 0.0 0,1 1.7200000000000009,74.75275084953597 L 1.6100000000000008,74.82275084953596 A 0.18,0.18 0.0 0,0 1.5200000000000007,74.98275084953596 A 3.55,3.55 0.0 0,0 3.6500000000000004,77.69275084953595 C 4.32,78.02275084953595 5.0200000000000005,78.26275084953595 5.65,78.69275084953595 A 6.64,6.64 0.0 0,0 7.510000000000001,79.43275084953595 C 7.840000000000001,79.50275084953594 8.150000000000002,79.56275084953595 8.510000000000002,79.61275084953596 A 5.0,5.0 0.0 0,1 9.510000000000002,79.97275084953596 A 5.53,5.53 0.0 0,0 11.45,80.25275084953596 A 20.79,20.79 0.0 0,0 15.21,79.78275084953596 C 15.41,80.32275084953596 15.61,80.88275084953595 15.809999999999999,81.41275084953595 A 8.49,8.49 0.0 0,1 16.369999999999997,82.96275084953595 A 4.56,4.56 0.0 0,0 16.58,84.23275084953595 A 1.27,1.27 0.0 0,0 17.43,84.84275084953595 A 10.76,10.76 0.0 0,0 18.53,85.07275084953595 C 18.98,85.07275084953595 19.380000000000003,85.39275084953594 19.830000000000002,85.45275084953595 A 2.36,2.36 0.0 0,0 21.0,85.12275084953596 C 21.23,85.04275084953596 21.47,84.95275084953596 21.72,84.84275084953596 A 0.94,0.94 0.0 0,0 22.0,84.72275084953597 C 22.0,84.72275084953597 22.05,84.65275084953598 22.09,84.62275084953598 A 2.7,2.7 0.0 0,1 22.52,85.35275084953598 A 1.32,1.32 0.0 0,0 23.04,86.10275084953598 A 0.12,0.12 0.0 0,0 23.169999999999998,86.10275084953598 A 2.0,2.0 0.0 0,0 23.83,86.19275084953598 A 0.78,0.78 0.0 0,0 24.939999999999998,86.38275084953598 C 25.419999999999998,86.47275084953598 25.939999999999998,86.59275084953597 26.38,86.66275084953598 A 0.43,0.43 0.0 0,0 27.16,86.61275084953598 A 5.12,5.12 0.0 0,0 27.73,86.31275084953599 A 0.72,0.72 0.0 0,1 28.17,86.19275084953598 C 28.590000000000003,86.14275084953599 28.66,85.93275084953598 28.860000000000003,85.63275084953598 C 29.060000000000006,85.33275084953598 29.140000000000004,85.39275084953599 29.200000000000003,85.18275084953598 A 0.87,0.87 0.0 0,0 29.140000000000004,84.71275084953598 A 4.0,4.0 0.0 0,0 28.830000000000005,84.19275084953598 A 1.7,1.7 0.0 0,1 28.590000000000007,83.37275084953599 A 2.33,2.33 0.0 0,0 28.460000000000008,82.852750849536 A 3.69,3.69 0.0 0,1 28.340000000000007,82.052750849536 A 5.0,5.0 0.0 0,1 28.540000000000006,80.802750849536 A 6.85,6.85 0.0 0,0 28.200000000000006,78.062750849536 A 22.11,22.11 0.0 0,0 31.0,78.02275084953597 A 12.36,12.36 0.0 0,0 31.0,80.87275084953596 A 1.33,1.33 0.0 0,1 31.0,81.58275084953596 A 1.73,1.73 0.0 0,0 30.95,82.09275084953596 A 1.13,1.13 0.0 0,1 30.79,82.71275084953596 L 30.58,83.14275084953597 A 2.65,2.65 0.0 0,0 30.22,84.35275084953597 A 2.16,2.16 0.0 0,0 30.689999999999998,85.28275084953597 A 2.5,2.5 0.0 0,0 31.56,85.91275084953597 A 0.36,0.36 0.0 0,0 32.04,85.91275084953597 A 8.93,8.93 0.0 0,0 33.21,86.11275084953597 A 4.08,4.08 0.0 0,0 34.13,86.18275084953596 A 1.51,1.51 0.0 0,0 34.79,85.83275084953597 A 2.24,2.24 0.0 0,1 36.0,85.68275084953596 A 0.59,0.59 0.0 0,0 36.82,85.92275084953596 A 1.13,1.13 0.0 0,0 37.29,85.47275084953596 C 37.43,85.21275084953595 37.57,84.96275084953595 37.72,84.72275084953596 C 38.32,83.89275084953596 37.36,82.79275084953595 37.57,81.93275084953595 A 2.58,2.58 0.0 0,1 37.69,81.51275084953595 A 0.25,0.25 0.0 0,0 37.69,81.38275084953595 C 37.849999999999994,80.95275084953595 38.059999999999995,80.52275084953595 38.22,80.10275084953595 C 38.48,79.40275084953595 38.75,78.71275084953595 39.0,78.00275084953596 C 39.25,77.29275084953596 39.28,76.68275084953596 39.45,76.00275084953596 A 15.89,15.89 0.0 0,0 39.940000000000005,74.00275084953596 L 39.940000000000005,74.00275084953596 C 40.160000000000004,73.20275084953596 40.400000000000006,72.39275084953596 40.650000000000006,71.59275084953596 A 13.8,13.8 0.0 0,1 41.57000000000001,69.07275084953596 A 15.0,15.0 0.0 0,0 43.23,65.02275084953597 A 14.8,14.8 0.0 0,0 43.23,60.142750849535965 C 43.11,59.252750849535964 42.949999999999996,58.36275084953596 42.8,57.48275084953596 C 42.8,57.252750849535964 42.709999999999994,57.04275084953596 42.68,56.822750849535964 A 1.43,1.43 0.0 0,1 42.78,56.142750849535965 A 6.76,6.76 0.0 0,0 43.16,54.95275084953597 M 20.36,78.22275084953597 A 0.85,0.85 0.0 0,1 20.57,78.08275084953597 A 2.0,2.0 0.0 0,1 20.88,78.00275084953597 C 21.25,77.89275084953597 21.599999999999998,77.77275084953597 21.939999999999998,77.65275084953598 C 21.939999999999998,77.94275084953598 22.009999999999998,78.26275084953598 22.029999999999998,78.55275084953598 C 22.049999999999997,78.84275084953599 22.13,79.42275084953599 22.119999999999997,79.85275084953598 A 3.71,3.71 0.0 0,0 22.119999999999997,80.85275084953598 A 3.46,3.46 0.0 0,0 21.599999999999998,80.36275084953598 L 20.909999999999997,79.79275084953599 A 3.38,3.38 0.0 0,1 19.909999999999997,78.48275084953599 A 3.62,3.62 0.0 0,0 20.36,78.22275084953597"/>
</svg>
