<?xml version="1.0" ?>
<svg xmlns="http://www.w3.org/2000/svg" xmlns:ev="http://www.w3.org/2001/xml-events" xmlns:xlink="http://www.w3.org/1999/xlink" baseProfile="full" data-name="Layer 1" height="472" id="Layer_1" transform="scale(0.2336448598130841 0.2336448598130841) translate(-214.0 -236.0)" version="1.1" viewBox="0 0 428 472" width="428">
	<defs/>
	<path d="M 0.0,170.72986673044244 A 0.93,0.93 0.0 0,0 0.9299999999999997,171.65986673044245 C 2.0899999999999963,171.65986673044245 2.0799999999999983,171.24986673044245 3.009999999999998,170.32986673044243 A 25.46,25.46 0.0 0,1 6.3799999999999955,167.47986673044244 A 21.86,21.86 0.0 0,1 5.649999999999999,172.02986673044245 A 53.76,53.76 0.0 0,0 3.9399999999999977,180.90986673044245 C 3.239999999999995,187.68986673044245 4.329999999999998,194.35986673044243 5.539999999999999,201.01986673044246 C 5.609999999999999,201.44986673044247 6.149999999999999,201.48986673044246 6.43,201.25986673044247 C 7.43,200.40986673044247 8.07,199.25986673044247 9.04,198.33986673044248 C 12.189999999999998,204.33986673044248 11.310000000000002,210.8298667304425 10.57,217.33986673044248 A 44.71,44.71 0.0 0,0 10.350000000000001,227.14986673044248 C 10.660000000000004,230.0098667304425 11.509999999999998,232.74986673044248 12.009999999999998,235.56986673044247 A 67.0,67.0 0.0 0,0 12.419999999999995,244.1698667304425 C 13.549999999999997,254.76986673044252 17.849999999999994,264.69986673044247 22.879999999999995,273.9898667304425 C 25.699999999999996,279.2098667304425 28.14,284.6098667304425 31.179999999999993,289.7298667304425 C 34.05,294.5498667304425 37.11999999999999,299.25986673044247 40.17999999999999,303.9398667304425 A 139.23,139.23 0.0 0,1 49.05999999999999,319.8498667304425 C 49.05999999999999,320.2198667304425 49.14999999999999,320.5798667304425 49.17999999999999,320.9498667304425 C 49.75999999999999,327.5898667304425 49.989999999999995,334.2598667304425 50.629999999999995,340.8998667304425 C 51.269999999999996,347.5398667304425 52.08,353.9698667304425 52.47999999999999,360.5398667304425 A 207.0,207.0 0.0 0,1 51.47999999999999,399.3398667304425 C 50.68999999999998,405.5498667304425 49.55999999999999,411.7098667304425 48.79999999999998,417.9198667304425 A 157.38,157.38 0.0 0,1 46.05999999999999,435.0498667304425 A 14.61,14.61 0.0 0,0 40.629999999999995,437.2498667304425 C 37.629999999999995,439.0998667304425 34.129999999999995,439.4098667304425 31.129999999999995,441.2498667304425 C 28.679999999999993,442.7298667304425 27.409999999999997,445.4898667304425 26.499999999999993,448.1198667304425 C 25.809999999999995,450.1198667304425 25.21999999999999,452.1198667304425 24.679999999999993,454.1198667304425 C 24.33999999999999,455.39986673044245 24.249999999999993,457.9198667304425 23.449999999999996,459.01986673044246 A 0.44,0.44 0.0 0,0 23.449999999999996,459.60986673044243 A 3.24,3.24 0.0 0,0 21.799999999999997,462.72986673044244 A 0.53,0.53 0.0 0,0 22.33,463.2598667304424 A 12.29,12.29 0.0 0,0 25.33,462.8398667304424 A 5.07,5.07 0.0 0,0 26.269999999999996,462.4798667304424 A 22.0,22.0 0.0 0,0 37.17,464.25986673044235 A 13.09,13.09 0.0 0,0 41.379999999999995,462.98986673044243 A 2.0,2.0 0.0 0,0 42.92999999999999,464.33986673044245 C 45.379999999999995,464.9298667304424 48.489999999999995,464.33986673044245 50.92999999999999,464.33986673044245 C 53.8,464.33986673044245 56.639999999999986,464.70986673044246 59.44999999999999,463.98986673044243 A 60.09,60.09 0.0 0,0 67.99999999999999,460.98986673044243 A 14.0,14.0 0.0 0,0 73.69999999999999,456.48986673044243 C 76.69999999999999,452.6198667304424 76.82999999999998,448.3898667304424 76.24,443.8798667304424 A 0.49,0.49 0.0 0,0 76.47999999999999,443.4498667304424 A 108.56,108.56 0.0 0,1 80.77,413.98986673044243 C 82.53999999999999,408.09986673044244 84.55,402.35986673044243 85.3,396.23986673044243 A 56.89,56.89 0.0 0,1 87.19,385.8798667304424 A 25.66,25.66 0.0 0,0 88.64999999999999,379.0798667304424 C 88.86999999999999,373.2598667304424 86.77,367.6698667304424 87.32,361.8198667304424 C 87.86999999999999,355.96986673044245 89.75999999999999,350.3298667304424 90.55999999999999,344.48986673044243 C 90.63999999999999,343.9398667304424 90.69999999999999,343.39986673044245 90.74999999999999,342.8698667304424 A 83.58,83.58 0.0 0,0 100.23999999999998,353.3898667304424 C 103.13999999999999,358.4598667304424 107.11999999999998,362.8298667304424 110.74999999999997,367.3898667304424 A 101.25,101.25 0.0 0,1 120.97999999999996,383.3898667304424 A 8.16,8.16 0.0 0,1 125.68999999999997,388.4598667304424 A 66.65,66.65 0.0 0,0 130.0,398.08986673044245 C 131.85,395.79986673044243 134.92,402.66986673044244 135.6,403.76986673044246 C 135.92,404.29986673044243 135.66,404.82986673044246 135.01,405.35986673044243 C 138.7,410.22986673044244 142.42,415.07986673044246 145.76999999999998,420.1898667304424 C 147.76999999999998,422.48986673044243 149.7,424.73986673044243 151.64,426.91986673044244 A 8.68,8.68 0.0 0,1 153.26999999999998,429.5098667304424 A 112.27,112.27 0.0 0,1 158.60999999999999,439.8798667304424 A 2.94,2.94 0.0 0,1 155.32,444.1498667304424 A 14.79,14.79 0.0 0,1 152.68,443.4798667304424 C 147.08,443.1998667304424 141.31,443.8498667304424 136.34,446.2998667304424 A 17.31,17.31 0.0 0,0 127.13,456.7898667304424 A 0.48,0.48 0.0 0,0 126.99000000000001,457.1598667304424 L 126.99000000000001,457.2998667304424 A 20.53,20.53 0.0 0,0 126.25,463.19986673044235 A 0.48,0.48 0.0 0,0 126.44,463.58986673044234 C 126.65,465.32986673044235 127.28,467.00986673044235 127.32999999999998,468.76986673044235 C 126.74999999999997,469.42986673044237 125.95999999999998,470.01986673044235 126.49999999999997,471.11986673044237 C 126.70999999999998,471.55986673044237 127.41999999999996,471.43986673044236 127.76999999999998,471.39986673044234 A 29.31,29.31 0.0 0,1 132.45999999999998,470.9798667304423 A 34.73,34.73 0.0 0,0 138.14,470.8698667304423 A 15.34,15.34 0.0 0,0 140.95999999999998,470.0798667304423 A 0.61,0.61 0.0 0,0 141.20999999999998,470.1398667304423 C 152.73,470.1398667304423 164.20999999999998,469.6298667304423 175.77999999999997,469.5698667304423 C 181.55999999999997,469.5698667304423 187.33999999999997,469.5698667304423 193.11999999999998,469.8998667304423 C 198.57999999999998,470.1998667304423 204.01999999999998,470.98986673044226 209.48999999999998,471.23986673044226 C 221.09999999999997,471.76986673044223 232.89999999999998,470.7198667304423 244.49,469.7198667304423 C 250.03000000000003,469.23986673044226 255.57,468.7798667304423 261.1,468.1598667304423 A 34.24,34.24 0.0 0,0 267.92,466.92986673044226 A 18.47,18.47 0.0 0,0 274.16,464.2798667304423 L 274.24,464.2798667304423 A 0.56,0.56 0.0 0,0 274.71000000000004,463.8998667304423 A 16.13,16.13 0.0 0,0 278.37000000000006,460.3298667304423 C 282.44000000000005,454.72986673044227 287.2900000000001,449.8098667304423 291.46000000000004,444.3298667304423 C 295.79,445.3298667304423 300.21000000000004,445.9998667304423 304.34000000000003,447.7398667304423 L 308.1,449.34986673044233 C 311.49,450.08986673044234 314.93,450.96986673044233 318.41,451.8798667304423 C 321.89000000000004,452.78986673044227 325.41,453.7498667304423 328.93,454.6498667304423 C 335.85,457.5098667304423 343.26,456.5798667304423 350.67,456.5798667304423 C 357.16,456.5798667304423 362.72,452.8798667304423 366.42,447.3198667304423 C 367.35,444.5398667304423 362.72,442.6898667304423 363.64000000000004,442.6898667304423 C 366.89000000000004,438.9798667304423 370.16,435.2198667304423 373.39000000000004,431.3898667304423 A 74.53,74.53 0.0 0,0 389.71000000000004,408.6398667304423 A 81.46,81.46 0.0 0,0 394.27000000000004,396.1598667304423 C 396.07000000000005,389.8798667304423 397.00000000000006,382.4698667304423 397.92,375.97986673044227 C 399.78000000000003,331.5098667304423 384.03000000000003,284.2598667304423 418.31,246.27986673044228 C 418.31,245.34986673044227 410.89,241.64986673044228 406.26,242.5698667304423 C 412.75,237.0098667304423 435.90999999999997,233.3098667304423 424.78999999999996,227.7498667304423 C 404.40999999999997,216.6298667304423 377.53999999999996,224.9698667304423 361.78999999999996,243.28986673044233 A 90.51,90.51 0.0 0,0 354.28999999999996,252.04986673044232 C 342.7,267.40986673044233 335.72999999999996,286.33986673044234 333.67999999999995,305.3698667304423 C 330.00999999999993,339.3698667304423 329.91999999999996,393.2798667304423 293.12999999999994,405.7598667304423 A 80.59,80.59 0.0 0,0 292.6499999999999,394.7598667304423 C 287.6499999999999,361.1098667304423 272.7899999999999,329.6098667304423 247.51999999999992,306.0098667304423 Q 244.06999999999994,302.7998667304423 240.30999999999995,299.8698667304423 C 237.56999999999994,297.5698667304423 234.80999999999995,295.40986673044233 231.91999999999996,293.3698667304423 C 229.02999999999997,291.3298667304423 226.05999999999995,289.4298667304423 222.91999999999996,287.6398667304423 Q 218.57999999999996,284.7398667304423 213.91999999999996,282.2198667304423 Q 210.35999999999996,279.5998667304423 206.73999999999995,277.04986673044226 C 194.65999999999994,268.57986673044223 182.14999999999995,260.6598667304423 170.36999999999995,251.77986673044228 Q 167.12999999999994,248.59986673044227 164.06999999999994,245.23986673044226 A 176.0,176.0 0.0 0,1 138.06999999999994,207.67986673044226 C 137.54999999999993,207.01986673044226 137.06999999999994,206.35986673044226 136.46999999999994,205.67986673044226 C 132.84999999999994,201.74986673044225 130.53999999999994,195.09986673044224 127.75999999999993,190.46986673044225 C 124.98999999999992,184.90986673044225 136.69999999999993,191.06986673044224 131.29999999999993,185.68986673044225 C 130.75999999999993,184.98986673044226 124.46999999999991,175.51986673044226 123.85999999999993,174.82986673044223 C 122.02999999999992,172.77986673044222 119.97999999999993,170.82986673044223 118.37999999999994,168.93986673044225 C 117.81999999999994,168.22986673044224 117.28999999999994,167.50986673044224 116.80999999999995,166.77986673044225 A 16.38,16.38 0.0 0,1 113.74999999999994,162.15986673044225 A 243.0,243.0 0.0 0,1 110.08999999999995,127.49986673044225 A 12.94,12.94 0.0 0,1 110.60999999999996,125.77986673044225 C 112.46999999999997,120.21986673044225 118.94999999999996,124.84986673044224 124.03999999999996,125.63986673044226 A 7.54,7.54 0.0 0,0 126.64999999999998,125.54986673044226 C 127.53999999999996,125.54986673044226 128.39999999999998,125.54986673044226 129.24999999999997,125.45986673044226 C 130.09999999999997,125.36986673044225 130.89999999999998,125.34986673044224 131.68999999999997,125.27986673044225 C 132.22999999999996,125.22986673044224 132.80999999999997,124.71986673044225 132.57999999999996,124.10986673044226 A 56.51,56.51 0.0 0,0 112.83999999999995,98.87986673044226 C 108.44999999999996,95.71986673044226 103.50999999999993,92.87986673044226 99.88999999999996,88.87986673044226 C 95.62999999999997,84.08986673044225 94.30999999999995,78.21986673044226 92.14999999999995,72.34986673044226 C 90.51999999999995,67.94986673044225 88.61999999999995,63.44986673044225 84.77999999999994,60.509866730442255 C 80.77999999999994,57.40986673044226 76.07999999999994,55.92986673044226 71.43999999999994,54.04986673044226 A 40.77,40.77 0.0 0,1 63.98999999999994,49.59986673044226 C 61.51999999999994,45.59986673044226 59.149999999999935,41.59986673044226 56.779999999999944,37.51986673044226 C 51.650000000000006,28.559866730442433 44.94,20.28986673044243 40.150000000000006,11.149866730442433 C 38.150000000000006,7.399866730442433 34.68000000000001,-1.2401332695575675 28.88000000000001,0.14986673044243304 C 26.400000000000013,0.7398667304424329 22.790000000000006,3.2198667304424333 22.650000000000006,5.949866730442434 C 20.869999999999997,6.4998667304424345 19.0,6.989866730442433 17.799999999999997,8.399866730442433 A 16.52,16.52 0.0 0,0 14.14,14.639866730442431 A 37.62,37.62 0.0 0,0 13.43,24.799866730442435 C 13.43,25.45986673044243 13.43,26.20986673044243 13.490000000000002,26.999866730442438 C 8.75,25.55986673044244 4.910000000000004,27.34986673044244 4.390000000000001,33.86986673044244 C 3.770000000000003,41.86986673044244 6.020000000000003,49.69986673044244 7.390000000000001,57.48986673044243 C 9.219999999999999,67.48986673044243 9.200000000000003,77.59986673044243 9.29,87.72986673044242 C 9.380000000000003,97.48986673044243 10.899999999999999,107.43986673044242 10.29,117.16986673044244 C 9.68,126.89986673044245 5.710000000000001,136.29986673044243 3.4299999999999997,145.70986673044243 A 111.31,111.31 0.0 0,0 0.0,170.72986673044244"/>
</svg>
