<?xml version="1.0" ?>
<svg xmlns="http://www.w3.org/2000/svg" xmlns:ev="http://www.w3.org/2001/xml-events" xmlns:xlink="http://www.w3.org/1999/xlink" baseProfile="full" height="98" transform="scale(1.0204081632653061 1.0204081632653061) translate(-50.0 -49.0)" version="1.1" viewBox="0 0 100 98" width="100">
	<defs/>
	<path class="cls-1" d="M 56.139769903549734,65.95186315940471 L 57.00976990354974,66.21186315940471 A 29.54,29.54 0.0 0,0 65.57976990354973,67.81186315940471 C 65.74976990354973,68.5818631594047 65.92976990354973,69.3318631594047 66.09976990354973,70.04186315940471 C 66.74976990354973,72.73186315940471 67.50976990354972,75.52186315940472 67.90976990354973,78.26186315940471 C 68.35976990354973,81.26186315940471 68.69976990354974,84.31186315940471 69.15976990354973,87.32186315940471 A 20.48,20.48 0.0 0,0 70.65976990354973,93.12186315940471 C 72.00976990354972,95.8618631594047 72.48976990354973,97.52186315940472 76.14976990354972,97.52186315940472 L 86.89976990354974,97.52186315940472 A 3.0,3.0 0.0 0,0 89.44976990354974,96.33186315940472 C 90.67976990354974,94.63186315940472 89.44976990354974,92.33186315940472 88.22976990354974,91.06186315940472 C 88.12976990354974,90.95186315940472 88.01976990354974,90.86186315940472 87.90976990354974,90.76186315940473 A 14.82,14.82 0.0 0,0 85.50976990354974,89.44186315940473 A 4.36,4.36 0.0 0,1 83.75976990354974,87.51186315940473 A 15.26,15.26 0.0 0,1 82.75976990354974,83.42186315940472 C 82.44976990354974,81.24186315940472 82.26976990354974,79.00186315940472 82.12976990354974,76.79186315940473 C 81.95976990354974,74.05186315940473 81.84976990354974,71.31186315940472 81.72976990354974,68.56186315940472 A 25.92,25.92 0.0 0,1 81.88976990354973,62.401863159404726 A 25.25,25.25 0.0 0,1 83.40976990354973,58.301863159404725 C 83.87976990354973,57.21186315940472 84.30976990354974,56.10186315940472 84.71976990354973,55.00186315940473 C 85.65976990354973,52.481863159404725 86.51976990354973,49.91186315940473 87.29976990354973,47.35186315940473 A 48.28,48.28 0.0 0,0 94.85976990354973,28.72186315940473 C 95.25976990354974,26.51186315940473 95.51976990354973,24.301863159404732 95.85976990354973,22.09186315940473 A 13.06,13.06 0.0 0,1 97.00976990354974,18.09186315940473 C 98.22976990354974,15.961863159404732 99.90976990354974,13.091863159404731 99.48976990354974,10.681863159404731 A 7.0,7.0 0.0 0,0 98.66976990354975,8.501863159404731 A 1.7,1.7 0.0 0,0 98.76976990354974,7.911863159404732 A 9.0,9.0 0.0 0,0 97.76976990354974,4.011863159404732 C 96.89976990354974,2.181863159404732 95.28976990354974,-0.18813684059526814 92.85976990354975,0.011863159404732038 C 90.99976990354973,0.10186315940471022 89.81976990354973,1.6718631594047102 89.14976990354974,3.2218631594047102 C 88.40976990354973,4.95186315940471 86.63976990354973,7.58186315940471 84.49976990354973,7.87186315940471 C 84.01976990354973,7.94186315940471 83.49976990354973,8.00186315940471 83.04976990354973,8.101863159404711 C 79.73976990354973,8.80186315940471 77.69976990354974,11.48186315940471 75.92976990354973,14.101863159404711 A 13.76,13.76 0.0 0,1 71.72976990354972,18.04186315940471 C 70.36976990354972,18.93186315940471 68.40976990354973,19.851863159404708 68.13976990354972,21.57186315940471 A 2.47,2.47 0.0 0,0 68.40976990354972,23.151863159404712 A 5.15,5.15 0.0 0,0 71.06976990354971,25.62186315940471 C 70.70976990354971,26.00186315940471 70.35976990354972,26.39186315940471 70.00976990354971,26.77186315940471 A 22.9,22.9 0.0 0,1 67.9197699035497,28.86186315940471 A 9.57,9.57 0.0 0,1 66.14976990354971,30.04186315940471 A 1.94,1.94 0.0 0,0 64.99976990354973,31.95186315940471 L 64.99976990354973,31.95186315940471 A 26.37,26.37 0.0 0,1 62.669769903549735,33.52186315940471 A 1.93,1.93 0.0 0,0 61.669769903549735,35.52186315940471 A 2.12,2.12 0.0 0,0 61.92976990354974,36.181863159404706 C 58.00976990354974,39.2718631594047 54.79976990354973,39.361863159404706 48.92976990354974,40.6618631594047 A 80.0,80.0 0.0 0,0 41.00976990354974,42.5618631594047 C 34.68976990354973,44.6518631594047 30.609769903549736,48.8818631594047 26.809769903549736,54.051863159404704 C 25.199769903549736,56.2418631594047 23.729769903549734,58.541863159404706 22.059769903549736,60.691863159404704 A 15.32,15.32 0.0 0,1 17.579769903549735,64.95186315940471 A 8.2,8.2 0.0 0,1 13.629769903549736,65.95186315940471 C 8.869769903549736,65.95186315940471 5.169769903549737,63.69186315940471 3.999769903549737,59.19186315940471 A 1.83,1.83 0.0 0,0 1.999769903549737,57.84186315940471 A 2.0,2.0 0.0 0,0 0.18976990354973694,59.53186315940471 A 20.82,20.82 0.0 0,0 0.559769903549737,67.1318631594047 A 11.0,11.0 0.0 0,0 4.129769903549737,73.1318631594047 A 1.84,1.84 0.0 0,0 4.879769903549737,75.78186315940471 A 13.85,13.85 0.0 0,0 8.589769903549737,76.7218631594047 A 16.37,16.37 0.0 0,0 12.899769903549736,76.7218631594047 A 1.84,1.84 0.0 0,0 14.839769903549735,77.7218631594047 A 11.78,11.78 0.0 0,0 21.929769903549737,74.3618631594047 A 68.0,68.0 0.0 0,0 26.379769903549736,68.7518631594047 A 14.23,14.23 0.0 0,0 27.309769903549736,72.95186315940471 C 27.909769903549737,74.45186315940471 26.309769903549736,76.38186315940472 25.459769903549734,77.6118631594047 A 5.32,5.32 0.0 0,0 24.519769903549733,79.73186315940471 A 6.22,6.22 0.0 0,0 24.779769903549735,82.48186315940471 C 25.079769903549735,83.65186315940471 25.439769903549735,84.8018631594047 25.729769903549734,85.98186315940471 A 11.71,11.71 0.0 0,1 25.999769903549737,87.73186315940471 C 26.149769903549736,89.35186315940472 26.059769903549736,90.98186315940471 26.09976990354974,92.6118631594047 C 26.13976990354974,94.2418631594047 26.28976990354974,96.12186315940471 27.76976990354974,97.06186315940471 A 3.23,3.23 0.0 0,0 29.25976990354974,97.53186315940471 L 36.99976990354973,97.53186315940471 A 2.89,2.89 0.0 0,0 39.199769903549736,96.53186315940471 C 40.60976990354973,94.9118631594047 39.48976990354974,92.62186315940471 38.199769903549736,91.40186315940471 A 5.07,5.07 0.0 0,0 36.409769903549744,90.26186315940471 C 34.50976990354974,89.5818631594047 33.799769903549745,89.03186315940471 33.409769903549744,86.94186315940472 C 33.189769903549745,85.62186315940473 32.58976990354974,83.27186315940472 33.029769903549735,81.94186315940472 A 2.86,2.86 0.0 0,1 34.449769903549736,80.41186315940472 C 35.03976990354974,80.08186315940472 35.579769903549746,79.75186315940472 36.08976990354974,79.41186315940472 C 34.64976990354974,82.41186315940472 36.08976990354974,85.24186315940472 37.659769903549744,88.00186315940472 C 38.08976990354974,88.74186315940472 38.519769903549744,89.48186315940472 38.95976990354974,90.21186315940471 C 40.47976990354974,92.72186315940472 43.29976990354973,97.44186315940472 46.78976990354974,97.44186315940472 L 51.68976990354973,97.44186315940472 A 2.46,2.46 0.0 0,0 53.42976990354974,96.75186315940472 C 54.48976990354974,95.75186315940472 54.14976990354974,94.31186315940472 53.54976990354973,93.22186315940472 A 9.0,9.0 0.0 0,0 51.71976990354973,90.95186315940471 A 6.82,6.82 0.0 0,0 48.779769903549735,89.35186315940472 C 47.779769903549735,89.15186315940471 46.549769903549745,86.92186315940471 46.169769903549735,86.14186315940472 A 10.81,10.81 0.0 0,1 45.08976990354974,82.61186315940472 A 9.83,9.83 0.0 0,1 46.50976990354974,80.83186315940472 C 47.669769903549735,79.59186315940472 48.87976990354974,78.40186315940471 50.00976990354974,77.13186315940472 C 53.00976990354974,73.79186315940471 55.279769903549735,70.13186315940472 56.12976990354974,65.92186315940471 L 56.139769903549734,65.95186315940471 M 29.489769903549735,95.65186315940471 L 37.09976990354974,95.65186315940471 C 38.799769903549745,95.65186315940471 37.529769903549735,92.7518631594047 35.67976990354974,92.08186315940472 C 33.82976990354973,91.41186315940473 32.10976990354973,90.66186315940472 31.549769903549738,87.39186315940472 C 30.98976990354974,84.12186315940473 29.999769903549737,80.95186315940471 33.59976990354974,78.88186315940472 C 38.889769903549734,75.88186315940472 40.47976990354974,73.58186315940472 42.73976990354974,66.75186315940472 A 18.32,18.32 0.0 0,1 39.24976990354973,76.26186315940473 A 5.12,5.12 0.0 0,1 38.40976990354973,79.42186315940472 C 36.98976990354973,81.42186315940472 37.20976990354973,83.24186315940472 39.45976990354973,87.11186315940472 C 41.70976990354973,90.98186315940472 44.45976990354973,95.65186315940473 46.96976990354973,95.65186315940473 L 51.869769903549724,95.65186315940473 C 53.18976990354973,95.65186315940473 50.74976990354973,91.77186315940473 48.259769903549724,91.23186315940472 C 45.76976990354973,90.69186315940472 43.259769903549724,85.66186315940472 43.139769903549734,82.75186315940472 C 43.01976990354973,79.84186315940472 52.85976990354973,74.6918631594047 54.34976990354974,64.95186315940471 C 49.29976990354973,61.69186315940471 45.99976990354973,63.181863159404706 45.99976990354973,63.181863159404706 C 49.99976990354973,60.41186315940471 59.53976990354974,66.2518631594047 65.91976990354974,65.95186315940471 C 65.49976990354973,61.95186315940471 66.39976990354974,59.95186315940471 66.39976990354974,59.95186315940471 C 66.39976990354974,64.71186315940471 69.09976990354974,72.76186315940471 69.84976990354974,77.87186315940471 C 70.96976990354975,85.44186315940472 71.18976990354975,89.68186315940471 72.43976990354975,92.2218631594047 C 73.68976990354975,94.7618631594047 73.73976990354974,95.6118631594047 76.24976990354975,95.6118631594047 L 86.99976990354973,95.6118631594047 C 88.81976990354973,95.6118631594047 87.80976990354974,93.4318631594047 86.75976990354974,92.34186315940471 C 85.70976990354974,91.25186315940472 83.59976990354974,91.49186315940472 81.99976990354973,88.34186315940471 C 80.39976990354972,85.1918631594047 80.06976990354973,74.65186315940471 79.80976990354974,68.66186315940472 C 79.54976990354974,62.67186315940472 79.70976990354974,62.061863159404716 81.63976990354973,57.58186315940472 C 83.56976990354973,53.10186315940472 85.54976990354973,46.58186315940472 85.54976990354973,46.58186315940472 C 95.02976990354973,32.58186315940472 92.54976990354973,22.03186315940472 95.35976990354973,17.15186315940472 C 98.26976990354973,12.071863159404721 98.08976990354974,11.261863159404719 96.67976990354973,8.801863159404721 C 96.25976990354972,8.071863159404721 93.92976990354973,10.801863159404721 93.92976990354973,10.801863159404721 C 93.92976990354973,10.801863159404721 95.24976990354973,7.95186315940471 96.86976990354974,7.95186315940471 A 7.17,7.17 0.0 0,0 95.99976990354973,4.83186315940471 C 94.58976990354974,1.8318631594047101 92.45976990354973,0.3518631594047097 90.99976990354973,3.83186315940471 C 89.53976990354974,7.3118631594047105 86.99976990354973,9.401863159404709 84.72976990354974,9.711863159404711 C 82.45976990354974,10.02186315940471 80.93976990354973,10.101863159404711 77.59976990354974,15.04186315940471 C 74.25976990354975,19.98186315940471 69.34976990354974,20.56186315940471 70.20976990354974,22.19186315940471 C 71.82976990354975,25.291863159404713 76.04976990354974,24.19186315940471 78.73976990354974,22.71186315940471 A 9.74,9.74 0.0 0,1 74.16976990354975,25.12186315940471 C 71.16976990354975,28.01186315940471 69.91976990354975,30.20186315940471 67.02976990354975,31.651863159404712 A 7.1,7.1 0.0 0,0 68.86976990354975,31.651863159404712 C 67.49976990354975,32.26186315940471 65.00976990354975,34.321863159404714 63.599769903549756,35.08186315940471 A 8.73,8.73 0.0 0,0 65.99976990354973,34.95186315940471 C 60.26976990354973,40.95186315940471 56.90976990354973,40.82186315940471 49.21976990354973,42.51186315940471 C 41.279769903549735,44.27186315940471 36.10976990354973,44.51186315940471 28.329769903549735,55.11186315940471 C 23.559769903549736,61.601863159404715 20.639769903549734,67.70186315940471 13.569769903549735,67.79186315940471 C 8.709769903549734,67.85186315940472 3.6397699035497357,65.65186315940471 2.1397699035497357,59.711863159404714 C 2.1397699035497357,59.711863159404714 0.05976990354973566,73.42186315940471 11.139769903549736,73.45186315940471 C 11.139769903549736,73.45186315940471 9.389769903549736,74.60186315940472 5.829769903549736,74.06186315940471 A 14.17,14.17 0.0 0,0 16.409769903549737,73.82186315940471 A 4.51,4.51 0.0 0,1 14.729769903549737,75.82186315940471 C 21.819769903549737,74.91186315940472 22.429769903549737,69.21186315940471 27.179769903549737,65.31186315940471 A 18.19,18.19 0.0 0,1 29.769769903549737,58.431863159404706 C 28.459769903549738,62.431863159404706 27.589769903549737,68.17186315940471 29.189769903549738,72.1618631594047 C 30.139769903549738,74.5218631594047 28.389769903549738,76.70186315940471 27.12976990354974,78.5518631594047 C 25.86976990354974,80.4018631594047 26.59976990354974,81.0018631594047 27.689769903549738,85.42186315940471 C 28.779769903549738,89.84186315940471 27.09976990354974,95.5018631594047 29.53976990354974,95.65186315940471 L 29.489769903549735,95.65186315940471 M 79.75976990354974,92.87186315940471 C 79.75976990354974,92.87186315940471 79.02976990354973,92.5018631594047 77.39976990354974,91.74186315940472 C 75.76976990354974,90.98186315940472 75.39976990354974,88.06186315940471 74.62976990354974,79.06186315940472 C 74.29976990354974,75.12186315940473 73.77976990354975,71.06186315940472 73.48976990354974,67.18186315940473 C 73.24976990354975,63.93186315940473 76.53976990354974,59.731863159404725 76.53976990354974,59.731863159404725 A 13.43,13.43 0.0 0,0 74.41976990354974,67.73186315940472 C 75.14976990354974,69.73186315940472 75.74976990354973,71.62186315940473 76.74976990354973,78.19186315940472 C 77.74976990354973,84.76186315940471 76.63976990354973,90.00186315940472 79.74976990354973,92.91186315940472 L 79.75976990354974,92.87186315940471"/>
</svg>
