<?xml version="1.0" ?>
<svg xmlns="http://www.w3.org/2000/svg" xmlns:ev="http://www.w3.org/2001/xml-events" xmlns:xlink="http://www.w3.org/1999/xlink" baseProfile="full" data-name="Layer 1" height="251" id="Layer_1" transform="scale(0.398406374501992 0.398406374501992) translate(-242.5 -125.5)" version="1.1" viewBox="0 0 485 251" width="485">
	<defs/>
	<path d="M 343.016418728412,211.9703868455365 A 12.2,12.2 0.0 0,0 343.136418728412,208.9703868455365 A 15.06,15.06 0.0 0,0 341.776418728412,205.49038684553648 C 340.336418728412,202.4103868455365 339.526418728412,205.2803868455365 338.386418728412,206.44038684553647 C 338.17641872841205,205.44038684553647 338.036418728412,204.76038684553646 337.826418728412,203.7903868455365 L 335.68641872841204,205.2003868455365 L 335.68641872841204,199.56038684553653 L 332.55641872841204,202.47038684553655 C 331.71641872841207,202.17038684553654 330.97641872841206,201.98038684553654 330.28641872841206,201.65038684553656 C 329.59641872841206,201.32038684553658 328.54641872841205,201.55038684553654 328.15641872841206,199.53038684553655 C 327.91641872841205,198.27038684553656 325.46641872841207,197.71038684553656 323.46641872841207,196.53038684553655 C 323.46641872841207,196.27038684553656 323.22641872841206,195.05038684553654 323.02641872841207,193.85038684553655 C 319.8764187284121,193.75038684553653 316.67641872841205,194.16038684553655 315.02641872841207,189.37038684553653 C 314.79641872841205,188.68038684553653 313.02641872841207,188.93038684553653 311.96641872841207,188.62038684553653 C 310.90641872841206,188.31038684553653 310.11641872841204,187.8903868455365 308.96641872841207,187.43038684553653 C 306.84641872841206,190.16038684553655 305.0164187284121,184.43038684553653 302.6864187284121,186.12038684553653 C 301.6864187284121,184.12038684553653 301.1764187284121,180.9603868455365 298.5364187284121,183.56038684553653 C 298.4064187284121,183.69038684553652 298.0964187284121,183.82038684553652 298.07641872841214,183.78038684553655 C 296.45641872841213,180.49038684553653 293.5964187284121,182.57038684553658 291.49641872841215,181.28038684553655 C 290.7764187284121,180.83038684553657 289.79641872841216,181.11038684553654 288.97641872841217,180.86038684553654 C 287.24641872841215,180.33038684553657 285.5364187284122,179.68038684553653 283.6564187284122,179.02038684553656 C 282.10641872841217,181.80038684553654 281.72641872841217,181.78038684553655 280.5064187284122,178.76038684553657 C 279.4364187284122,179.14038684553657 278.2364187284122,180.14038684553657 277.5064187284122,179.76038684553657 C 274.6764187284122,178.27038684553656 272.7964187284122,174.13038684553658 273.1764187284122,170.76038684553657 L 271.1764187284122,169.76038684553657 L 272.02641872841224,167.09038684553656 L 267.9764187284122,166.09038684553656 A 52.76,52.76 0.0 0,0 268.34641872841223,160.01038684553657 A 53.29,53.29 0.0 0,0 267.19641872841225,153.77038684553656 A 26.17,26.17 0.0 0,1 263.19641872841225,155.69038684553658 A 6.6,6.6 0.0 0,1 260.4264187284123,155.4903868455366 A 16.05,16.05 0.0 0,1 258.5264187284123,154.96038684553662 L 258.5264187284123,152.15038684553662 L 256.4064187284123,154.4903868455366 C 256.18641872841226,153.57038684553658 255.99641872841227,152.7303868455366 255.74641872841227,151.65038684553662 C 254.38641872841225,152.65038684553662 252.79641872841228,155.1703868455366 251.74641872841227,150.4703868455366 L 251.01641872841202,152.9003868455365 L 250.48641872841205,152.4503868455365 L 250.48641872841205,148.9003868455365 L 249.81641872841203,148.31038684553653 L 247.18641872841204,152.07038684553652 L 245.47641872841203,149.2703868455365 L 243.35641872841202,150.5403868455365 L 242.35641872841202,147.0903868455365 L 239.53641872841203,148.0203868455365 A 25.67,25.67 0.0 0,0 236.88641872841202,144.6003868455365 C 236.68641872841204,144.4003868455365 235.62641872841203,145.6003868455365 234.88641872841202,146.26038684553652 L 234.47641872841203,143.42038684553654 L 231.69641872841203,144.17038684553654 L 231.69641872841203,147.54038684553655 C 229.69641872841203,147.11038684553654 229.69641872841203,147.11038684553654 230.15641872841204,144.14038684553657 L 229.52641872841204,143.51038684553657 L 226.78641872841203,148.01038684553657 L 225.05641872841204,144.3003868455366 C 225.11641872841204,144.3003868455366 224.28641872841203,144.1703868455366 224.14641872841204,144.52038684553662 C 222.08641872841204,149.57038684553663 218.94641872841206,147.8603868455366 215.67641872841205,147.38038684553663 C 213.89641872841204,147.11038684553665 211.14641872841204,146.50038684553664 210.06641872841203,150.08038684553662 C 209.96641872841204,150.40038684553662 209.41641872841203,150.80038684553665 209.19641872841203,150.70038684553663 C 207.00641872841203,149.70038684553663 205.77641872841204,151.95038684553663 204.11641872841201,152.90038684553662 C 202.66641872841203,153.7303868455366 201.186418728412,155.63038684553663 199.11641872841201,154.13038684553663 C 198.64641872841202,153.79038684553666 197.036418728412,155.25038684553664 196.36641872841201,156.32038684553663 A 7.93,7.93 0.0 0,1 190.01641872841202,160.4003868455365 C 189.01641872841202,160.4703868455365 188.01641872841202,160.6503868455365 186.36641872841201,160.86038684553648 L 188.36641872841201,163.11038684553648 A 6.2,6.2 0.0 0,1 188.17641872841202,163.8403868455365 C 185.17641872841202,170.8403868455365 179.096418728412,172.44038684553652 174.54641872841202,176.7203868455365 C 173.37641872841203,177.81038684553647 172.47641872841203,179.38038684553652 171.336418728412,180.55038684553648 A 39.11,39.11 0.0 0,1 167.88641872841202,183.4103868455365 C 165.88641872841202,184.4803868455365 163.40641872841204,185.7203868455365 160.98641872841202,187.0303868455365 C 156.376418728412,189.51038684553652 151.89641872841202,192.5803868455365 147.11641872841201,194.31038684553647 C 144.256418728412,195.31038684553647 140.936418728412,194.1003868455365 137.82641872841202,194.31038684553647 C 134.71641872841204,194.52038684553645 131.82641872841202,195.38038684553646 128.82641872841202,195.52038684553645 C 126.11641872841201,195.64038684553645 123.04641872841202,197.72038684553644 120.70641872841202,193.42038684553643 C 120.27641872841201,194.42038684553643 119.97641872841201,195.17038684553643 119.86641872841201,195.42038684553643 L 113.59641872841202,193.79038684553643 C 112.84641872841202,196.04038684553643 112.19641872841201,198.0003868455364 111.39641872841202,200.39038684553645 C 109.39641872841202,197.60038684553643 106.54641872841202,203.75038684553647 104.39641872841202,198.23038684553643 L 101.75641872841202,202.23038684553643 C 100.28641872841202,202.96038684553645 98.38641872841201,203.23038684553643 97.26641872841202,204.60038684553643 C 95.61641872841201,206.60038684553643 92.32641872841202,206.60038684553643 92.42641872841202,210.87038684553642 C 92.42641872841202,211.0703868455364 91.98641872841202,211.5103868455364 91.79641872841202,211.47038684553644 C 88.26641872841202,210.76038684553646 88.12641872841202,215.09038684553644 86.54641872841202,217.26038684553646 A 13.9,13.9 0.0 0,1 85.28641872841202,219.08038684553645 A 45.62,45.62 0.0 0,0 81.59641872841202,222.35038684553643 C 79.28641872841202,225.08038684553645 77.15641872841202,227.79038684553643 74.17641872841202,229.65038684553645 C 71.89641872841202,231.08038684553645 70.41641872841201,234.65038684553645 68.46641872841202,237.42038684553643 L 66.84641872841202,236.86038684553642 C 64.91641872841201,238.66038684553644 63.37641872841202,240.5103868455364 61.56641872841202,241.7003868455364 A 135.8,135.8 0.0 0,1 46.83641872841201,250.5803868455364 C 45.08641872841201,251.43038684553642 42.42641872841202,250.7603868455364 40.66641872841201,249.5803868455364 C 38.34641872841201,248.04038684553637 37.506418728412015,244.7103868455364 38.01641872841201,241.30038684553642 C 39.60641872841202,230.54038684553643 43.91641872841201,222.4503868455364 51.576418728412015,217.03038684553644 C 58.786418728412016,211.93038684553642 65.66641872841201,206.03038684553644 72.57641872841202,200.38038684553646 C 73.57641872841202,199.59038684553644 74.02641872841203,197.83038684553645 74.83641872841203,196.38038684553646 L 72.96641872841202,194.78038684553644 L 74.51641872841202,190.78038684553644 C 72.66641872841203,188.88038684553646 70.83641872841201,187.49038684553642 67.90641872841202,189.19038684553647 C 65.95641872841202,190.32038684553646 63.396418728412016,192.30038684553648 61.07641872841202,189.40038684553645 C 60.93641872841202,189.24038684553642 60.33641872841203,189.34038684553644 60.31641872841202,189.40038684553645 C 59.726418728412014,192.62038684553647 56.996418728412024,191.70038684553646 55.85641872841202,193.14038684553645 C 54.38641872841202,194.99038684553648 53.91641872841202,198.14038684553645 53.286418728412016,199.94038684553647 A 16.92,16.92 0.0 0,0 50.67641872841202,202.70038684553646 C 48.58641872841201,206.49038684553648 46.546418728412014,210.35038684553643 44.67641872841202,214.29038684553643 C 43.99641872841202,215.68038684553642 43.91641872841202,217.58038684553645 43.186418728412015,218.91038684553644 A 16.44,16.44 0.0 0,1 39.866418728412015,223.20038684553646 C 37.70641872841202,225.13038684553646 35.33641872841201,226.70038684553646 35.156418728412014,230.99038684553648 C 31.296418728412014,229.50038684553647 30.926418728412017,233.87038684553647 30.236418728412012,236.67038684553648 C 29.16641872841201,240.99038684553648 26.42641872841201,241.49038684553648 23.84641872841201,242.67038684553648 C 22.406418728412007,243.31038684553647 20.84641872841201,243.57038684553646 19.486418728412012,244.4703868455365 A 58.77,58.77 0.0 0,0 13.25641872841201,249.42038684553648 C 8.656418728412012,253.4703868455365 3.1164187284120093,248.25038684553647 3.126418728412009,241.56038684553647 A 52.94,52.94 0.0 0,1 6.616418728412009,222.9103868455365 C 8.73641872841201,217.2003868455365 13.18641872841201,215.36038684553648 16.336418728412013,211.44038684553647 C 20.03641872841201,206.84038684553644 24.16641872841201,203.07038684553646 26.45641872841201,196.58038684553645 C 28.59641872841201,190.49038684553648 32.10641872841201,185.21038684553645 34.85641872841201,179.44038684553647 C 36.12641872841201,176.77038684553645 36.85641872841201,173.72038684553644 38.06641872841201,170.95038684553646 C 39.80641872841201,166.81038684553647 41.00641872841201,162.21038684553645 45.45641872841201,160.95038684553646 C 47.27641872841201,160.43038684553647 48.58641872841201,157.59038684553644 51.03641872841201,158.11038684553648 C 52.03641872841201,158.31038684553647 53.16641872841201,157.5203868455365 54.23641872841201,157.18038684553647 L 52.826418728412015,155.49038684553648 L 57.30641872841201,155.1603868455365 L 58.57641872841201,152.4503868455365 L 60.486418728412005,154.8403868455365 C 61.486418728412005,152.8403868455365 62.336418728412,150.9703868455365 62.85641872841201,149.8403868455365 C 64.41641872841201,149.0203868455365 65.516418728412,148.38038684553652 66.656418728412,147.8403868455365 C 68.29641872841201,147.11038684553648 69.976418728412,146.49038684553648 71.96641872841201,145.68038684553647 C 71.82641872841201,142.92038684553648 73.516418728412,143.17038684553648 74.79641872841201,143.83038684553645 L 83.63641872841201,133.42038684553643 L 83.17641872841202,131.72038684553644 L 86.52641872841201,131.18038684553642 C 84.71641872841201,130.18038684553642 83.10641872841201,129.18038684553642 81.42641872841202,128.5103868455364 A 2.76,2.76 0.0 0,0 78.98641872841202,128.72038684553638 C 77.81641872841202,129.5203868455364 77.29641872841202,131.12038684553636 75.30641872841201,130.35038684553638 C 73.316418728412,129.5803868455364 70.82641872841201,130.41038684553638 68.56641872841202,130.63038684553635 C 67.56641872841202,130.73038684553637 66.56641872841202,131.18038684553636 65.56641872841202,131.25038684553635 A 10.1,10.1 0.0 0,1 62.73641872841202,130.92038684553637 C 60.896418728412016,130.51038684553635 59.06641872841202,129.97038684553638 57.226418728412014,129.5203868455364 C 56.226418728412014,129.2703868455364 55.226418728412014,129.0903868455364 53.92641872841202,128.8303868455364 L 54.56641872841202,130.62038684553642 C 54.396418728412016,130.7503868455364 54.19641872841202,130.99038684553642 54.09641872841202,130.9403868455364 A 26.94,26.94 0.0 0,0 40.01641872841202,128.38038684553652 C 39.20641872841202,128.38038684553652 38.33641872841202,127.67038684553654 37.53641872841202,127.18038684553653 C 36.916418728412026,126.81038684553653 36.40641872841202,126.03038684553655 35.776418728412025,125.84038684553656 C 33.25641872841202,125.09038684553656 30.716418728412023,124.49038684553653 28.026418728412025,123.84038684553656 L 28.576418728412023,122.19038684553658 L 21.34641872841202,120.9003868455365 L 21.34641872841202,120.13038684553652 L 22.426418728412017,119.39038684553651 C 16.376418728412013,112.5203868455365 8.626418728412014,108.00038684553653 5.226418728412016,97.3403868455365 C 2.226418728412016,87.8403868455365 -1.8535812715879842,78.7703868455365 0.9264187284120151,67.7703868455365 L 2.926418728412015,67.9403868455365 L 3.426418728412015,65.14038684553648 L 4.696418728412015,67.07038684553649 L 5.096418728412015,64.60038684553649 C 5.306418728412016,64.67038684553648 5.506418728412015,64.67038684553648 5.616418728412015,64.79038684553649 A 18.88,18.88 0.0 0,0 8.096418728412013,67.6503868455365 C 11.226418728412012,69.9303868455365 14.396418728412014,72.13038684553649 17.63641872841201,74.11038684553651 C 18.31641872841201,74.5203868455365 19.42641872841201,73.58038684553651 20.27641872841201,73.76038684553652 C 21.126418728412013,73.94038684553652 22.56641872841201,74.39038684553651 23.006418728412015,75.30038684553651 A 4.39,4.39 0.0 0,0 27.48641872841202,78.16038684553652 C 28.73641872841202,78.16038684553652 30.02641872841202,79.61038684553651 31.16641872841202,80.65038684553653 A 17.18,17.18 0.0 0,1 33.24641872841202,83.52038684553654 C 34.92641872841202,81.08038684553654 36.366418728412015,78.77038684553654 38.58641872841201,82.44038684553652 C 39.12641872841201,83.34038684553653 40.646418728412016,83.19038684553652 41.58641872841201,83.77038684553654 A 6.79,6.79 0.0 0,1 44.01641872841202,85.9003868455365 C 44.82641872841202,87.20038684553651 45.42641872841202,87.6803868455365 46.36641872841202,86.20038684553651 A 1.18,1.18 0.0 0,1 47.36641872841202,85.61038684553651 C 51.01641872841202,86.13038684553652 54.54641872841202,85.8703868455365 58.136418728412025,82.33038684553651 L 57.83641872841203,85.33038684553651 C 60.43641872841202,85.33038684553651 62.746418728412024,85.33038684553651 65.42641872841203,83.95038684553651 A 97.27,97.27 0.0 0,0 74.52641872841203,78.20038684553651 C 76.52641872841203,76.88038684553652 78.83641872841203,76.36038684553651 80.98641872841202,75.42038684553651 A 2.2,2.2 0.0 0,0 81.78641872841202,74.57038684553652 C 82.69641872841201,73.16038684553652 83.62641872841202,71.75038684553653 84.46641872841202,70.2703868455365 A 5.76,5.76 0.0 0,1 89.08641872841203,67.07038684553652 C 91.79641872841202,66.63038684553652 94.25641872841203,64.07038684553652 96.95641872841203,63.07038684553652 C 98.58641872841203,62.42038684553651 100.30641872841203,62.33038684553651 101.50641872841203,60.490386845536506 C 101.73641872841203,60.14038684553651 102.17641872841203,59.91038684553649 102.25641872841203,59.490386845536506 C 103.07641872841202,55.8103868455365 105.50641872841203,54.3403868455365 107.87641872841203,53.0003868455365 C 108.99641872841204,52.36038684553651 110.38641872841204,52.5303868455365 111.65641872841204,52.27038684553651 C 112.10641872841204,52.17038684553651 112.82641872841204,51.980386845536515 112.91641872841204,51.63038684553652 C 113.98641872841203,47.15038684553653 116.91641872841204,45.950386845536514 119.91641872841204,44.530386845536526 A 23.0,23.0 0.0 0,0 124.32641872841205,41.35038684553652 A 3.84,3.84 0.0 0,1 127.63641872841205,40.27038684553651 C 129.44641872841206,40.440386845536494 132.02641872841204,38.89038684553651 133.14641872841204,36.990386845536506 C 135.38641872841205,33.1803868455365 138.62641872841203,32.38038684553649 141.62641872841203,30.800386845536508 C 142.26641872841202,30.470386845536495 143.35641872841202,31.540386845536517 144.25641872841203,31.980386845536515 C 146.25641872841203,26.980386845536515 150.92641872841202,29.500386845536525 153.86641872841204,26.6203868455365 L 157.31641872841203,28.900386845536502 C 159.76641872841202,25.720386845536495 162.11641872841204,25.280386845536498 165.05641872841204,27.440386845536494 L 165.10641872841205,26.440386845536494 C 166.75641872841206,26.440386845536494 168.46641872841207,26.0903868455365 170.04641872841205,26.510386845536487 C 173.04641872841205,27.3103868455365 175.76641872841205,28.8103868455365 178.98641872841205,26.390386845536483 C 181.25641872841206,24.690386845536494 184.25641872841206,24.54038684553649 186.98641872841205,23.940386845536494 C 188.06641872841206,23.700386845536485 189.23641872841205,24.140386845536483 190.56641872841206,24.300386845536508 L 192.65641872841206,20.8703868455365 L 194.60641872841205,22.250386845536497 L 197.37641872841206,19.140386845536483 L 200.29641872841205,22.400386845536474 C 200.86641872841204,20.760386845536487 201.29641872841205,19.400386845536474 201.79641872841205,18.07038684553646 L 202.07641872841205,18.640386845536455 A 29.27,29.27 0.0 0,1 205.07641872841205,16.370386845536444 A 6.45,6.45 0.0 0,1 207.22641872841206,15.920386845536456 C 208.22641872841206,15.740386845536449 209.22641872841206,15.580386845536452 210.22641872841206,15.410386845536465 L 210.22641872841206,14.410386845536465 L 213.44641872841206,16.220386845536467 L 213.17641872841205,15.480386845536458 L 219.77641872841204,11.480386845536458 L 221.38641872841205,14.840386845536472 L 221.87641872841206,13.130386845536464 C 223.87641872841206,12.010386845536459 226.30641872841207,9.410386845536465 227.87641872841206,10.130386845536464 C 230.71641872841207,11.390386845536455 232.18641872841206,8.130386845536464 234.64641872841207,8.630386845536464 C 236.20641872841207,14.910386845536465 238.72641872841209,8.630386845536464 240.84641872841206,8.81038684553647 C 242.17641872841207,8.880386845536464 243.56641872841206,7.330386845536481 244.42641872841207,7.3003868455364795 L 246.98641872841208,10.190386845536466 C 249.85641872841205,8.940386845536466 251.7564187284121,7.690386845536466 253.7464187284121,7.370386845536473 C 255.34641872841212,7.120386845536473 257.0464187284121,7.980386845536486 259.1164187284121,8.440386845536466 L 260.1164187284121,6.170386845536456 C 260.3764187284121,7.000386845536468 260.5464187284121,7.570386845536461 260.9064187284121,8.750386845536468 L 263.56641872841215,5.1003868455364625 L 264.88641872841214,7.530386845536469 L 264.99641872841215,6.700386845536457 L 270.07641872841214,7.54038684553646 C 273.69641872841214,5.490386845536449 277.61641872841216,5.660386845536465 281.76641872841213,7.54038684553646 L 281.76641872841213,3.750386845536468 C 283.88641872841214,6.460386845536476 286.20641872841213,6.430386845536475 288.76641872841213,4.190386845536466 A 2.46,2.46 0.0 0,1 291.12641872841215,3.970386845536467 C 293.6564187284121,5.04038684553646 297.48641872841216,4.610386845536453 299.41641872841217,2.8203868455364614 C 300.7064187284122,1.6303868455364636 302.3464187284122,2.260386845536459 304.86641872841216,4.900386845536474 L 312.0864187284122,2.0503868455364795 C 312.0864187284122,2.170386845536484 312.0864187284122,2.8003868455364795 312.0864187284122,2.640386845536483 L 320.9464187284122,4.950386845536485 C 321.4364187284122,3.460386845536476 322.0864187284122,1.350386845536491 324.4564187284122,2.560386845536499 C 324.9464187284122,2.810386845536499 325.8164187284122,1.800386845536508 326.4564187284122,2.050386845536508 C 327.35641872841217,2.1403868455365114 328.2564187284122,2.1903868455364943 329.1564187284122,2.330386845536509 C 329.5964187284122,2.3903868455365114 330.30641872841215,2.4603868455365046 330.4064187284122,2.7803868455364977 C 331.11641872841216,5.150386845536502 332.4064187284122,4.050386845536508 333.5864187284122,3.850386845536491 C 334.3964187284122,3.7103868455365046 335.2664187284122,4.3003868455364795 336.0964187284122,4.250386845536497 C 338.5764187284122,4.100386845536491 341.0964187284122,3.7903868455364886 344.0964187284122,3.4903868455365057 L 345.17641872841216,5.550386845536508 A 72.71,72.71 0.0 0,1 352.6564187284122,3.080386845536509 C 353.43641872841215,2.9003868455365023 354.36641872841216,4.200386845536514 355.2764187284122,4.330386845536509 C 357.5164187284122,4.660386845536522 359.7864187284122,4.580386845536509 362.0164187284122,4.930386845536503 C 363.1764187284122,5.11038684553651 364.2464187284122,5.990386845536506 365.3964187284122,6.280386845536498 A 39.15,39.15 0.0 0,0 369.67641872841216,6.930386845536503 C 371.73641872841216,7.2103868455365046 373.7864187284122,7.4203868455365125 375.82641872841214,7.790386845536517 C 378.94641872841214,8.37038684553653 382.04641872841216,9.030386845536526 385.14641872841213,9.720386845536524 C 385.49641872841215,9.800386845536536 385.76641872841213,10.37038684553653 386.14641872841213,10.61038684553651 C 388.14641872841213,12.010386845536516 390.14641872841213,13.430386845536503 392.20641872841213,14.680386845536503 C 392.4764187284121,14.8403868455365 393.0864187284121,14.080386845536509 393.3464187284121,14.730386845536515 L 398.75641872841214,18.1203868455365 L 403.42641872841216,15.57038684553649 L 406.42641872841216,18.02038684553648 C 407.85641872841217,15.160386845536465 409.05641872841215,12.620386845536473 410.42641872841216,10.210386845536476 C 410.70641872841213,9.720386845536467 411.70641872841213,9.32038684553649 412.07641872841214,9.58038684553648 C 413.82641872841214,10.83038684553648 414.69641872841214,9.430386845536475 415.81641872841215,8.08038684553648 C 417.81641872841215,5.680386845536475 419.92641872841216,3.420386845536484 422.07641872841214,1.2403868455364773 C 424.2264187284121,-0.9396131544635296 425.89641872841213,-0.2296131544635216 426.31641872841215,3.2403868455364773 C 426.99641872841215,8.81038684553647 427.26641872841213,14.480386845536486 428.18641872841215,19.970386845536467 C 428.57641872841214,22.31038684553647 430.18641872841215,24.32038684553646 431.26641872841213,26.440386845536466 C 431.43641872841215,26.78038684553647 432.1664187284121,26.910386845536465 432.14641872841213,27.09038684553647 C 431.70641872841213,33.55038684553648 437.26641872841213,31.920386845536484 438.99641872841215,36.53038684553647 C 438.88641872841214,38.12038684553647 438.99641872841215,40.53038684553647 441.80641872841215,39.27038684553648 C 442.4064187284122,40.27038684553648 442.80641872841215,41.83038684553648 443.51641872841213,42.11038684553648 C 446.51641872841213,43.26038684553649 447.7764187284121,46.35038684553649 449.1064187284121,49.420386845536484 C 450.3164187284121,52.210386845536476 451.3564187284121,55.13038684553649 452.57641872841214,57.900386845536474 A 29.76,29.76 0.0 0,1 454.57641872841214,72.81038684553647 C 453.9064187284121,80.03038684553647 456.7764187284121,85.18038684553647 460.57641872841214,89.30038684553648 C 467.1664187284121,96.40038684553647 474.11641872841216,102.95038684553646 480.9664187284121,109.64038684553645 C 484.64641872841213,113.22038684553644 485.12641872841215,115.64038684553645 482.1764187284121,120.08038684553645 C 478.8764187284121,125.08038684553645 475.5764187284121,130.21038684553645 471.7364187284121,134.51038684553646 C 466.7364187284121,140.11038684553648 460.8264187284121,140.40038684553645 454.7364187284121,137.24038684553648 C 452.9164187284121,136.30038684553648 450.8664187284121,136.1503868455365 448.9764187284121,135.39038684553645 C 447.3164187284121,134.72038684553644 445.7864187284121,133.18038684553647 444.1164187284121,132.96038684553645 A 65.28,65.28 0.0 0,0 435.1664187284121,132.84038684553644 L 436.5364187284121,131.67038684553643 C 436.45641872841213,131.5003868455364 436.3564187284121,131.15038684553645 436.2864187284121,131.16038684553644 C 433.2864187284121,131.61038684553642 430.2864187284121,132.16038684553644 427.2864187284121,132.51038684553646 A 2.21,2.21 0.0 0,1 425.45641872841213,131.64038684553645 C 424.45641872841213,130.17038684553643 423.62641872841215,128.38038684553646 422.5264187284121,126.98038684553643 C 422.25641872841214,126.64038684553645 420.8664187284121,127.05038684553642 420.5264187284121,127.61038684553642 A 8.07,8.07 0.0 0,0 420.3064187284121,130.52038684553645 C 419.9964187284121,130.69038684553647 419.7164187284121,130.90038684553645 419.6864187284121,130.85038684553643 C 417.3764187284121,126.95038684553646 414.0464187284121,130.35038684553643 411.3464187284121,128.98038684553643 C 410.7764187284121,128.6903868455364 409.8764187284121,129.58038684553645 409.0964187284121,129.80038684553642 C 407.75641872841214,130.17038684553643 406.25641872841214,131.0703868455364 405.7464187284121,129.18038684553642 A 20.17,20.17 0.0 0,1 402.27641872841207,130.5603868455364 C 398.33641872841207,131.3203868455364 394.3864187284121,131.8903868455364 390.4364187284121,132.5603868455364 C 386.3164187284121,133.30038684553642 382.1864187284121,134.05038684553642 378.08641872841207,134.9603868455364 C 376.7664187284121,135.2603868455364 375.54641872841205,136.36038684553637 374.21641872841207,136.62038684553642 C 373.15641872841206,136.8303868455364 372.0064187284121,136.3203868455364 370.67641872841205,136.0803868455364 C 368.02641872841207,141.0803868455364 363.326418728412,139.36038684553637 359.386418728412,140.54038684553637 A 52.0,52.0 0.0 0,1 351.976418728412,141.9503868455364 C 350.716418728412,142.1403868455364 349.416418728412,141.9503868455364 348.146418728412,142.1403868455364 C 347.61641872841204,142.2103868455364 346.68641872841204,142.74038684553642 346.68641872841204,143.0603868455364 C 346.68641872841204,144.0603868455364 346.836418728412,145.6903868455364 347.29641872841205,145.9403868455364 A 69.48,69.48 0.0 0,0 353.92641872841205,148.8403868455364 C 355.05641872841204,146.3903868455364 355.92641872841205,144.0803868455364 357.92641872841205,147.29038684553637 C 358.15641872841206,147.67038684553637 358.85641872841205,148.05038684553637 359.08641872841207,147.88038684553635 C 361.3164187284121,146.19038684553635 362.08641872841207,148.66038684553632 363.40641872841206,150.06038684553636 A 40.39,40.39 0.0 0,0 367.40641872841206,153.54038684553637 L 368.2664187284121,151.82038684553635 L 368.2664187284121,152.82038684553635 L 373.6764187284121,153.82038684553635 L 379.6764187284121,157.19038684553635 C 379.6764187284121,156.25038684553635 379.5964187284121,155.53038684553633 379.5564187284121,154.76038684553635 C 379.83641872841207,154.76038684553635 380.1164187284121,154.76038684553635 380.1464187284121,154.85038684553632 C 380.90641872841206,157.65038684553633 382.1464187284121,157.58038684553634 384.27641872841207,157.2403868455363 C 385.86641872841204,156.9903868455363 387.7064187284121,158.98038684553632 389.3864187284121,160.09038684553633 A 17.06,17.06 0.0 0,0 392.9264187284121,162.31038684553636 C 393.6064187284121,163.04038684553637 394.2564187284121,163.82038684553635 394.9264187284121,164.49038684553636 C 395.7864187284121,165.29038684553637 397.14641872841213,165.75038684553635 397.4964187284121,166.80038684553637 C 398.6264187284121,170.2103868455364 401.5464187284121,169.94038684553635 403.2864187284121,171.98038684553637 C 405.0264187284121,174.0203868455364 406.7964187284121,176.12038684553636 408.5564187284121,178.2003868455364 C 410.6164187284121,180.6403868455364 412.7364187284121,183.0003868455364 414.6964187284121,185.5603868455364 A 48.0,48.0 0.0 0,1 417.52641872841207,190.3103868455364 L 417.0064187284121,191.0103868455364 L 419.2064187284121,191.0103868455364 C 419.09641872841206,192.16038684553638 418.6964187284121,193.3203868455364 418.9564187284121,194.11038684553642 C 420.15641872841206,197.66038684553644 421.16641872841205,201.48038684553643 422.9564187284121,204.47038684553644 A 24.6,24.6 0.0 0,1 426.7664187284121,215.69038684553647 C 427.1964187284121,221.22038684553644 422.7664187284121,226.37038684553647 417.8764187284121,225.59038684553644 C 412.1764187284121,224.68038684553642 407.08641872841207,222.59038684553644 403.9264187284121,215.48038684553643 A 55.68,55.68 0.0 0,0 397.5564187284121,205.0003868455364 C 396.4064187284121,203.47038684553644 394.4364187284121,202.9503868455364 392.4764187284121,201.7603868455364 C 392.0464187284121,199.7603868455364 391.3764187284121,197.41038684553638 388.4064187284121,197.6903868455364 C 387.4064187284121,197.78038684553638 385.1564187284121,197.3203868455364 385.4064187284121,194.3203868455364 C 385.4064187284121,194.0103868455364 385.06641872841215,193.5603868455364 384.8064187284121,193.3203868455364 C 380.8664187284121,189.2603868455364 376.6364187284121,186.0903868455364 371.3764187284121,186.10038684553638 A 1.52,1.52 0.0 0,1 370.6464187284121,185.74038684553636 C 368.29641872841205,184.03038684553638 367.02641872841207,184.9603868455364 366.90641872841206,188.47038684553638 L 363.48641872841205,184.78038684553638 L 361.016418728412,191.4603868455365 L 362.796418728412,192.19038684553652 L 362.086418728412,192.48038684553654 C 362.706418728412,194.85038684553655 363.426418728412,197.19038684553652 363.916418728412,199.61038684553654 C 364.406418728412,202.03038684553655 364.706418728412,204.61038684553654 365.056418728412,207.1403868455365 C 365.126418728412,207.7103868455365 364.866418728412,208.6003868455365 365.056418728412,208.8403868455365 C 366.506418728412,210.4003868455365 368.33641872841196,211.4603868455365 368.246418728412,214.5203868455365 C 368.246418728412,215.25038684553653 368.82641872841197,216.01038684553652 369.466418728412,217.5203868455365 L 371.346418728412,218.11038684553648 L 367.796418728412,220.1603868455365 L 367.896418728412,220.7903868455365 L 370.31641872841203,220.4503868455365 C 369.086418728412,222.8903868455365 370.23641872841205,223.4503868455365 372.12641872841203,223.75038684553653 C 369.076418728412,227.81038684553653 368.62641872841203,232.00038684553653 369.24641872841204,237.04038684553655 C 370.146418728412,244.36038684553654 365.17641872841205,248.67038684553654 359.85641872841205,245.79038684553655 C 356.06641872841203,243.73038684553654 353.90641872841206,239.79038684553655 352.23641872841205,235.22038684553655 C 350.03641872841206,229.22038684553655 347.84641872841206,223.16038684553655 345.55641872841204,217.22038684553655 C 344.896418728412,215.4003868455365 343.916418728412,213.81038684553653 343.016418728412,211.9703868455365"/>
</svg>
