<?xml version="1.0" ?>
<svg xmlns="http://www.w3.org/2000/svg" xmlns:ev="http://www.w3.org/2001/xml-events" xmlns:xlink="http://www.w3.org/1999/xlink" baseProfile="full" height="396" transform="scale(0.28328611898017 0.28328611898017) translate(-176.5 -198.0)" version="1.1" viewBox="0 0 353 396" width="353">
	<defs/>
	<path d="M 1.5121401613097785,207.1594656900319 L 1.0521401613097785,207.0494656900319 C 0.7021401613097784,205.0494656900319 2.0521401613097785,203.4094656900319 1.4521401613097784,201.2294656900319 A 6.32,6.32 0.0 0,1 0.6921401613097783,201.1194656900319 A 27.0,27.0 0.0 0,1 1.9021401613097781,197.5794656900319 C 2.5621401613097783,195.80946569003189 2.1221401613097783,195.9494656900319 1.9021401613097781,194.4894656900319 A 4.39,4.39 0.0 0,1 2.4221401613097786,190.98946569003192 C 2.952140161309779,189.98946569003192 4.422140161309779,188.89946569003192 2.9021401613097786,188.26946569003192 C 3.1521401613097786,186.26946569003192 5.192140161309779,183.84946569003193 4.902140161309778,181.95946569003192 C 4.532140161309778,182.13946569003193 4.232140161309778,182.0294656900319 3.902140161309778,182.1294656900319 C 3.8521401613097783,180.0394656900319 4.962140161309779,177.8794656900319 5.122140161309778,176.1294656900319 C 5.252140161309778,174.67946569003192 4.832140161309778,175.0194656900319 5.642140161309778,173.6994656900319 C 6.162140161309778,172.8494656900319 7.002140161309779,172.2194656900319 7.3021401613097785,171.3194656900319 L 6.522140161309778,171.1994656900319 C 8.002140161309777,168.5594656900319 9.372140161309778,165.7594656900319 11.072140161309777,163.1294656900319 C 12.222140161309778,161.3594656900319 13.512140161309777,158.3194656900319 15.462140161309776,156.9194656900319 C 15.872140161309776,152.7494656900319 18.112140161309775,149.7594656900319 20.922140161309777,146.3794656900319 C 26.592140161309775,139.5494656900319 31.922140161309777,136.0994656900319 40.922140161309784,134.92946569003192 C 48.312140161309785,133.98946569003192 54.982140161309786,132.44946569003193 62.36214016130978,132.47946569003193 C 67.05214016130978,126.96946569003194 75.60214016130978,127.47946569003194 81.98214016130979,124.97946569003194 C 87.98214016130979,122.58946569003194 93.98214016130979,122.56946569003195 100.22214016130978,121.32946569003194 C 107.22214016130978,119.93946569003194 114.40214016130979,121.08946569003194 121.50214016130978,121.49946569003194 C 128.02214016130978,121.88946569003194 134.97214016130977,123.32946569003194 141.45214016130976,121.93946569003194 C 144.45214016130976,121.27946569003194 147.77214016130975,121.93946569003194 150.84214016130977,121.28946569003193 C 152.37214016130977,120.92946569003193 153.28214016130977,119.81946569003193 154.77214016130978,119.44946569003193 C 156.11214016130978,119.10946569003193 159.06214016130977,120.24946569003193 158.58214016130978,117.88946569003193 C 160.0421401613098,117.88946569003193 161.58214016130978,117.99946569003193 163.00214016130977,117.95946569003192 A 9.42,9.42 0.0 0,1 162.87214016130977,115.87946569003192 C 164.61214016130978,115.69946569003191 166.49214016130978,116.30946569003193 168.34214016130977,116.24946569003193 C 167.96214016130978,115.69946569003193 168.16214016130976,115.17946569003193 167.98214016130976,114.69946569003193 C 171.23214016130976,114.56946569003193 174.77214016130975,116.45946569003193 177.65214016130975,117.02946569003193 A 20.76,20.76 0.0 0,0 175.65214016130975,113.02946569003193 C 178.04214016130973,112.94946569003193 180.65214016130975,113.02946569003193 182.26214016130976,114.77946569003193 A 18.23,18.23 0.0 0,0 181.59214016130977,112.13946569003193 C 183.17214016130978,112.13946569003193 185.05214016130978,112.01946569003192 186.26214016130976,112.74946569003193 A 3.0,3.0 0.0 0,0 185.10214016130976,110.31946569003192 A 28.0,28.0 0.0 0,0 191.16214016130976,109.94946569003191 C 190.94214016130977,109.42946569003192 191.16214016130976,108.67946569003192 191.03214016130977,108.13946569003191 A 6.88,6.88 0.0 0,1 193.76214016130976,107.8794656900319 A 2.0,2.0 0.0 0,0 193.35214016130976,105.8194656900319 A 42.0,42.0 0.0 0,0 197.48214016130976,104.0094656900319 A 5.14,5.14 0.0 0,1 196.63214016130976,100.79946569003191 C 197.31214016130977,100.88946569003191 198.13214016130976,100.69946569003191 198.80214016130975,100.79946569003191 A 8.92,8.92 0.0 0,1 198.15214016130975,97.63946569003191 A 20.55,20.55 0.0 0,1 200.87214016130974,97.91946569003191 C 201.28214016130974,95.44946569003191 199.72214016130974,93.54946569003191 203.57214016130973,93.41946569003191 A 1.65,1.65 0.0 0,0 202.06214016130974,92.08946569003191 C 204.19214016130974,91.08946569003191 205.66214016130974,89.56946569003192 208.20214016130973,89.80946569003191 C 207.95214016130973,88.53946569003192 205.97214016130974,88.01946569003191 204.75214016130974,87.58946569003191 C 207.20214016130973,86.35946569003191 209.25214016130974,86.50946569003192 211.96214016130975,86.43946569003191 C 212.48214016130976,84.71946569003191 209.96214016130975,83.97946569003192 208.78214016130974,83.35946569003191 C 209.55214016130975,82.61946569003192 215.00214016130974,82.35946569003191 216.33214016130975,82.53946569003192 C 215.75214016130974,81.70946569003192 214.77214016130975,80.93946569003192 214.22214016130974,80.14946569003192 A 15.6,15.6 0.0 0,0 218.62214016130974,79.71946569003191 A 4.43,4.43 0.0 0,1 217.68214016130975,78.11946569003192 A 17.48,17.48 0.0 0,0 221.22214016130974,77.65946569003192 C 220.65214016130975,77.26946569003192 220.54214016130973,76.71946569003192 220.28214016130974,76.31946569003192 A 24.86,24.86 0.0 0,0 226.39214016130975,74.25946569003192 C 225.80214016130975,73.81946569003192 225.86214016130975,73.50946569003192 224.93214016130975,73.40946569003192 C 226.56214016130974,72.74946569003193 228.35214016130973,72.12946569003192 230.10214016130973,72.85946569003193 C 229.73214016130973,72.44946569003193 229.49214016130972,71.64946569003193 229.18214016130975,71.23946569003192 C 230.93214016130975,70.46946569003192 233.08214016130975,70.45946569003192 234.99214016130975,70.30946569003191 C 234.31214016130974,69.75946569003192 234.54214016130976,69.30946569003191 234.34214016130974,68.70946569003192 C 235.45214016130976,68.44946569003191 240.99214016130975,67.38946569003193 241.34214016130974,65.70946569003192 A 28.0,28.0 0.0 0,1 228.67214016130976,56.61946569003191 C 224.35214016130976,50.84946569003191 236.12214016130974,47.76946569003191 240.14214016130975,46.70946569003191 C 245.34214016130974,45.32946569003191 249.32214016130976,42.809465690031914 253.75214016130974,39.939465690031916 C 258.1821401613097,37.06946569003192 262.75214016130974,34.71946569003192 267.2021401613097,31.939465690031916 A 19.78,19.78 0.0 0,1 281.05214016130975,28.699465690031914 A 28.33,28.33 0.0 0,1 285.1521401613098,23.609465690031914 C 293.6421401613098,16.179465690031915 304.84214016130977,15.549465690031916 315.78214016130977,15.939465690031916 C 317.04214016130976,15.149465690031914 318.78214016130977,14.499465690031915 319.85214016130976,13.709465690031916 C 321.62214016130974,12.449465690031914 323.50214016130974,11.099465690031916 325.17214016130976,9.709465690031916 C 326.6321401613098,8.529465690031927 333.4421401613098,1.9894656900319285 335.97214016130977,4.369465690031928 C 337.85214016130976,1.1094656900319286 341.36214016130975,-0.860534309968072 345.4021401613098,0.3694656900319284 C 349.84214016130977,1.6894656900319285 350.97214016130977,5.9894656900319285 348.7021401613098,9.609465690031929 C 349.7021401613098,14.419465690031927 350.0121401613098,19.859465690031925 348.2021401613098,24.499465690031926 C 352.47214016130977,28.049465690031926 353.4621401613098,37.259465690031924 351.8721401613098,41.59946569003193 C 349.5621401613098,47.899465690031924 343.8721401613098,52.59946569003193 341.1221401613098,58.59946569003193 A 49.25,49.25 0.0 0,0 338.91214016130976,64.98946569003193 C 339.61214016130975,67.98946569003193 337.2121401613098,72.35946569003194 338.0121401613098,75.28946569003193 C 337.4521401613098,74.76946569003194 337.0121401613098,74.94946569003193 336.4921401613098,74.71946569003194 C 336.1721401613098,75.99946569003194 337.1021401613098,77.22946569003194 337.9321401613098,78.17946569003193 A 13.33,13.33 0.0 0,0 335.8021401613098,78.45946569003193 C 335.6121401613098,79.79946569003194 336.9221401613098,80.72946569003193 337.2821401613098,81.92946569003193 C 336.83214016130984,81.67946569003193 336.21214016130983,81.81946569003193 335.6821401613098,81.67946569003193 C 335.7321401613098,82.88946569003193 336.5621401613098,84.45946569003193 336.8721401613098,85.67946569003193 A 5.63,5.63 0.0 0,0 334.7321401613098,84.59946569003193 A 62.82,62.82 0.0 0,0 335.6121401613098,92.59946569003193 A 3.8,3.8 0.0 0,0 334.5021401613098,91.27946569003194 C 334.1721401613098,94.06946569003195 334.0121401613098,96.72946569003194 335.84214016130977,99.02946569003194 A 4.0,4.0 0.0 0,1 333.3921401613098,98.49946569003194 C 333.0521401613098,99.61946569003194 333.7621401613098,100.55946569003194 334.2721401613098,101.49946569003194 C 330.2121401613098,100.76946569003194 332.8221401613098,104.49946569003194 333.2721401613098,106.56946569003195 A 13.43,13.43 0.0 0,1 330.6221401613098,106.23946569003195 C 330.0921401613098,108.23946569003195 331.7321401613098,110.06946569003195 331.1621401613098,112.09946569003195 A 5.32,5.32 0.0 0,0 329.0321401613098,111.55946569003194 C 328.96214016130983,113.26946569003194 329.5521401613098,114.81946569003195 329.3121401613098,116.55946569003194 C 328.9921401613098,116.35946569003194 328.0721401613098,116.24946569003194 327.7421401613098,116.04946569003194 C 327.2421401613098,117.83946569003194 328.2921401613098,119.77946569003194 328.0221401613098,121.62946569003194 C 327.6821401613098,121.48946569003193 327.0221401613098,121.55946569003194 326.7121401613098,121.38946569003194 C 326.47214016130977,123.22946569003194 326.9421401613098,124.96946569003194 326.99214016130975,126.69946569003194 C 326.62214016130974,126.61946569003194 326.04214016130976,126.81946569003195 325.67214016130976,126.69946569003194 A 17.41,17.41 0.0 0,0 326.01214016130973,130.93946569003194 C 321.9521401613097,131.14946569003195 323.01214016130973,133.09946569003193 323.8521401613097,136.24946569003194 C 318.6821401613097,135.30946569003194 323.4121401613097,140.48946569003195 320.8521401613097,142.67946569003195 C 320.32214016130973,142.20946569003195 319.7721401613097,142.28946569003196 319.2221401613097,142.08946569003194 C 319.0821401613097,143.60946569003195 319.5921401613097,148.35946569003195 316.5421401613097,146.55946569003194 C 316.1421401613097,148.06946569003193 316.76214016130973,149.49946569003194 316.5421401613097,151.06946569003193 C 315.8621401613097,150.97946569003193 315.0521401613097,151.15946569003194 314.3821401613097,151.06946569003193 A 37.67,37.67 0.0 0,0 314.6221401613097,157.18946569003194 A 4.07,4.07 0.0 0,0 311.3821401613097,156.34946569003193 A 43.91,43.91 0.0 0,0 310.8121401613097,161.88946569003193 C 309.96214016130966,161.78946569003193 309.2421401613097,161.42946569003192 308.39214016130967,161.35946569003193 A 15.23,15.23 0.0 0,1 307.5721401613097,165.81946569003193 C 306.9821401613097,165.65946569003194 306.2421401613097,165.81946569003193 305.71214016130966,165.56946569003193 C 305.58214016130967,166.77946569003194 305.61214016130964,168.03946569003193 305.49214016130964,169.24946569003194 A 5.06,5.06 0.0 0,1 302.79214016130965,168.42946569003195 C 302.49214016130964,171.42946569003195 303.1921401613096,172.03946569003196 300.15214016130966,171.57946569003195 C 299.9421401613097,173.57946569003195 300.45214016130967,178.89946569003195 297.5021401613097,175.23946569003195 C 297.1321401613097,177.13946569003195 297.3221401613097,179.94946569003196 295.83214016130967,181.37946569003194 C 295.5721401613097,181.09946569003193 295.02214016130966,180.87946569003194 294.83214016130967,180.60946569003193 C 293.95214016130967,181.87946569003194 294.5021401613097,183.90946569003194 293.7621401613097,185.07946569003192 C 293.65214016130966,184.7794656900319 293.3121401613097,184.40946569003194 293.1821401613097,183.98946569003192 C 292.0421401613097,184.14946569003192 292.27214016130966,185.5594656900319 291.7421401613097,186.35946569003193 C 291.6121401613097,186.16946569003193 291.3521401613097,185.91946569003193 291.2121401613097,185.71946569003194 C 290.2121401613097,186.71946569003194 289.6121401613097,188.46946569003194 288.8621401613097,190.03946569003193 L 288.8621401613097,190.03946569003193 C 289.8621401613097,194.35946569003193 288.2121401613097,199.03946569003193 288.2821401613097,203.36946569003194 C 288.01214016130973,203.14946569003195 286.9821401613097,202.79946569003195 286.7121401613097,202.58946569003194 C 286.5221401613097,204.58946569003194 286.7121401613097,208.24946569003194 283.7121401613097,208.13946569003195 C 283.5921401613097,209.29946569003195 283.8321401613097,210.80946569003194 283.25214016130974,211.78946569003196 C 282.41214016130976,213.19946569003196 281.74214016130975,212.65946569003196 281.19214016130974,214.34946569003196 C 280.75214016130974,215.73946569003195 281.0221401613097,216.91946569003196 280.3421401613097,218.34946569003196 A 19.0,19.0 0.0 0,1 278.6021401613097,221.15946569003196 C 277.8721401613097,222.21946569003197 276.8421401613097,223.05946569003197 276.1421401613097,224.07946569003195 C 275.2921401613097,225.28946569003196 275.68214016130975,226.40946569003196 275.0821401613097,227.58946569003194 C 274.4821401613097,228.76946569003192 273.49214016130975,229.03946569003193 272.62214016130974,229.79946569003195 C 271.34214016130977,230.92946569003195 271.56214016130974,232.16946569003196 270.69214016130974,233.25946569003196 C 270.31214016130974,233.72946569003196 269.44214016130974,233.60946569003195 269.12214016130974,234.13946569003195 C 268.80214016130975,234.66946569003196 268.92214016130976,235.23946569003195 268.62214016130974,235.85946569003195 C 268.09214016130977,236.92946569003195 267.30214016130975,237.85946569003195 266.62214016130974,238.96946569003197 C 265.32214016130973,241.11946569003197 263.8321401613097,243.09946569003196 262.54214016130976,245.29946569003198 C 260.04214016130976,249.54946569003198 258.6421401613098,254.379465690032 257.35214016130976,259.019465690032 C 256.06214016130974,263.659465690032 256.12214016130974,268.019465690032 253.88214016130976,272.089465690032 C 253.50214016130977,274.299465690032 253.21214016130978,276.529465690032 252.70214016130976,278.749465690032 C 251.83214016130975,282.47946569003204 250.55214016130975,286.189465690032 249.77214016130975,290.03946569003205 C 249.05214016130975,293.57946569003207 247.77214016130975,297.03946569003205 247.14214016130975,300.53946569003205 C 246.51214016130976,304.03946569003205 246.73214016130976,308.15946569003205 245.56214016130974,311.66946569003204 C 244.50214016130974,314.85946569003204 242.78214016130974,317.86946569003203 241.96214016130975,321.15946569003205 C 241.04214016130976,324.78946569003205 240.48214016130976,328.76946569003206 239.86214016130975,332.46946569003205 A 28.0,28.0 0.0 0,1 236.91214016130976,341.38946569003207 C 235.29214016130976,344.38946569003207 235.46214016130978,348.0694656900321 235.78214016130977,351.38946569003207 C 236.08214016130978,354.5094656900321 235.96214016130978,358.09946569003205 236.59214016130977,361.19946569003207 C 237.13214016130976,363.88946569003207 237.99214016130978,366.19946569003207 238.32214016130976,368.82946569003207 A 26.33,26.33 0.0 0,1 243.05214016130975,369.39946569003206 C 247.43214016130975,370.51946569003206 250.87214016130974,371.09946569003205 254.50214016130974,373.7594656900321 C 255.95214016130973,374.82946569003207 261.50214016130974,381.1194656900321 258.31214016130974,382.6094656900321 A 6.54,6.54 0.0 0,1 258.7121401613097,386.0194656900321 C 257.5521401613097,386.2294656900321 256.9121401613097,385.50946569003213 255.95214016130973,385.48946569003215 A 24.9,24.9 0.0 0,0 252.95214016130973,385.86946569003214 A 17.1,17.1 0.0 0,1 248.95214016130973,385.86946569003214 A 22.0,22.0 0.0 0,1 248.74214016130972,388.09946569003216 A 88.73,88.73 0.0 0,1 234.87214016130972,385.73946569003215 C 231.0321401613097,384.66946569003215 226.5721401613097,385.23946569003215 223.92214016130973,381.73946569003215 C 221.44214016130974,378.49946569003214 223.35214016130973,374.43946569003214 222.05214016130972,370.86946569003214 C 220.55214016130972,366.71946569003217 219.14214016130973,364.60946569003215 220.05214016130972,360.02946569003217 A 28.06,28.06 0.0 0,0 220.33214016130972,350.8194656900322 C 218.62214016130972,348.5594656900322 215.42214016130973,348.1094656900322 214.96214016130972,344.8194656900322 C 214.5021401613097,341.52946569003217 216.90214016130972,339.40946569003216 217.21214016130972,336.1994656900322 C 217.52214016130972,332.9894656900322 217.49214016130972,329.8994656900322 218.0321401613097,326.7594656900322 C 218.5421401613097,323.8194656900322 219.4221401613097,320.8794656900322 219.84214016130971,317.9394656900322 C 220.77214016130972,311.3894656900322 220.30214016130972,304.3294656900322 220.5421401613097,297.71946569003217 C 220.7721401613097,291.58946569003217 220.62214016130972,285.34946569003216 221.2321401613097,279.2594656900322 C 221.7421401613097,274.1994656900322 224.4821401613097,267.4294656900322 221.5721401613097,262.7594656900322 C 218.6921401613097,264.1094656900322 217.15214016130972,267.7594656900322 216.5721401613097,270.7594656900322 C 215.5721401613097,275.7594656900322 214.7821401613097,280.6394656900322 213.3821401613097,285.5794656900322 C 210.7221401613097,294.9394656900322 207.5021401613097,303.9394656900322 207.0421401613097,313.7594656900322 C 206.87214016130972,317.52946569003217 207.3621401613097,323.5594656900322 205.5021401613097,327.5094656900322 C 205.0421401613097,335.21946569003217 201.84214016130971,342.78946569003216 201.5021401613097,350.5594656900322 C 201.3121401613097,354.6994656900322 202.33214016130972,359.0494656900322 202.7921401613097,363.1894656900322 C 203.1921401613097,366.8494656900322 202.8921401613097,371.9794656900322 204.5821401613097,375.33946569003217 C 205.78214016130968,377.7094656900322 208.1521401613097,378.79946569003215 210.1321401613097,380.33946569003217 C 212.3121401613097,382.0794656900322 212.5321401613097,384.33946569003217 212.7921401613097,386.92946569003215 A 9.79,9.79 0.0 0,1 211.12214016130972,386.72946569003216 A 11.0,11.0 0.0 0,1 209.6021401613097,392.27946569003217 C 208.6021401613097,394.08946569003217 208.8221401613097,394.10946569003215 206.6621401613097,393.4494656900322 A 21.46,21.46 0.0 0,1 204.40214016130972,392.5794656900322 C 204.1621401613097,393.7094656900322 203.68214016130972,394.8694656900322 202.99214016130972,395.1894656900322 C 201.4721401613097,395.8694656900322 200.21214016130972,394.1894656900322 199.05214016130972,393.7494656900322 C 196.80214016130972,392.8994656900322 194.86214016130972,392.7494656900322 193.05214016130972,391.7494656900322 C 192.82214016130973,392.7994656900322 192.4721401613097,393.8294656900322 192.27214016130972,394.8494656900322 C 189.64214016130973,393.8494656900322 186.67214016130973,392.2194656900322 185.35214016130973,389.7294656900322 C 184.73214016130973,388.5294656900322 184.60214016130973,387.4094656900322 183.72214016130974,386.3194656900322 C 182.84214016130974,385.22946569003216 181.43214016130975,384.6394656900322 181.14214016130973,382.9494656900322 C 180.8521401613097,381.2594656900322 181.84214016130971,380.1394656900322 182.3121401613097,378.71946569003217 A 21.0,21.0 0.0 0,0 182.99214016130972,374.10946569003215 C 183.35214016130973,370.79946569003215 184.27214016130972,367.71946569003217 184.39214016130973,364.34946569003216 C 184.52214016130972,360.66946569003215 184.76214016130973,357.83946569003217 182.97214016130974,354.46946569003217 A 26.94,26.94 0.0 0,1 180.19214016130974,344.55946569003214 C 179.50214016130974,337.8894656900321 182.40214016130975,331.00946569003213 182.44214016130974,324.25946569003213 C 182.44214016130974,317.8894656900321 181.91214016130974,311.5194656900321 182.92214016130973,305.25946569003213 A 46.65,46.65 0.0 0,1 182.54214016130973,298.30946569003214 C 182.66214016130974,294.66946569003215 183.23214016130973,291.09946569003216 182.91214016130974,287.43946569003214 A 56.56,56.56 0.0 0,1 183.02214016130975,276.9594656900321 C 183.64214016130975,270.9594656900321 184.86214016130975,263.9594656900321 184.02214016130975,257.8494656900321 A 7.78,7.78 0.0 0,1 179.02214016130975,254.20946569003212 C 179.02214016130975,255.5994656900321 179.02214016130975,257.00946569003213 178.85214016130976,258.3894656900321 C 177.63214016130976,257.7194656900321 177.11214016130975,256.3394656900321 175.66214016130976,255.90946569003214 A 3.0,3.0 0.0 0,1 174.90214016130977,258.24946569003214 C 174.11214016130978,257.6494656900321 173.90214016130977,256.4594656900321 173.30214016130978,255.55946569003214 C 171.80214016130978,256.9494656900321 170.30214016130978,259.15946569003216 168.4821401613098,260.1994656900321 C 168.2321401613098,258.79946569003215 169.02214016130978,257.5894656900321 168.80214016130978,256.1994656900321 C 167.0721401613098,256.3394656900321 165.50214016130977,258.0794656900321 163.80214016130978,258.10946569003215 A 3.06,3.06 0.0 0,1 164.14214016130978,256.10946569003215 C 163.28214016130977,257.35946569003215 161.80214016130978,258.10946569003215 160.9121401613098,259.31946569003213 C 160.11214016130978,257.03946569003216 158.1621401613098,255.09946569003213 158.0721401613098,258.75946569003213 A 37.45,37.45 0.0 0,1 153.5021401613098,255.70946569003212 A 3.58,3.58 0.0 0,0 153.8721401613098,258.3394656900321 C 151.9421401613098,256.99946569003214 148.4121401613098,256.1794656900321 146.1921401613098,255.4794656900321 A 4.33,4.33 0.0 0,0 146.5921401613098,257.8194656900321 C 144.0521401613098,257.9894656900321 141.1821401613098,256.09946569003205 139.1121401613098,254.81946569003208 A 6.19,6.19 0.0 0,0 139.57214016130982,257.1094656900321 C 138.35214016130982,256.8094656900321 136.09214016130983,254.4794656900321 135.0221401613098,253.5394656900321 C 135.0821401613098,253.89946569003212 134.85214016130982,254.4394656900321 134.88214016130982,254.8094656900321 A 3.46,3.46 0.0 0,1 131.2721401613098,252.61946569003211 C 130.2721401613098,253.29946569003212 130.0521401613098,254.69946569003213 129.0521401613098,255.42946569003212 C 128.63214016130982,254.42946569003212 128.3021401613098,252.51946569003212 126.99214016130982,252.42946569003212 C 126.27214016130982,252.42946569003212 124.85214016130982,253.9094656900321 123.75214016130982,253.88946569003213 C 123.69214016130982,252.62946569003213 124.26214016130983,251.24946569003214 122.92214016130983,251.07946569003212 C 122.49214016130982,251.07946569003212 120.14214016130983,252.28946569003213 119.30214016130982,252.40946569003214 A 2.82,2.82 0.0 0,0 118.55214016130982,250.30946569003214 C 117.49214016130982,251.39946569003214 115.43214016130982,251.03946569003213 114.00214016130982,250.86946569003214 C 114.41214016130982,250.50946569003213 114.73214016130983,249.78946569003213 115.11214016130982,249.40946569003214 C 113.45214016130983,249.03946569003213 111.82214016130982,249.62946569003213 110.11214016130982,249.40946569003214 C 110.42214016130983,249.12946569003213 110.64214016130983,248.48946569003215 110.94214016130982,248.19946569003213 A 22.08,22.08 0.0 0,0 104.86214016130982,248.85946569003212 C 103.77214016130982,250.85946569003212 102.12214016130983,252.75946569003213 101.11214016130982,254.31946569003213 C 99.11214016130982,257.31946569003213 97.18214016130982,260.42946569003215 95.18214016130982,263.4694656900321 C 91.05214016130982,269.7294656900321 86.31214016130981,275.68946569003214 82.26214016130982,282.1694656900321 A 23.43,23.43 0.0 0,1 78.00214016130981,287.0694656900321 C 80.92214016130981,290.8694656900321 83.86214016130981,295.5394656900321 83.26214016130982,299.8694656900321 A 2.2,2.2 0.0 0,0 81.11214016130981,298.0394656900321 C 81.61214016130981,300.3494656900321 81.05214016130981,303.7494656900321 81.8821401613098,305.9794656900321 A 15.42,15.42 0.0 0,0 79.7721401613098,304.6994656900321 C 79.55214016130981,306.06946569003213 80.53214016130981,307.2194656900321 80.7121401613098,308.60946569003215 A 20.11,20.11 0.0 0,1 80.50214016130981,312.98946569003215 C 80.31214016130981,312.98946569003215 79.95214016130981,312.98946569003215 79.7421401613098,312.98946569003215 A 3.49,3.49 0.0 0,0 78.67214016130981,311.68946569003214 C 78.7721401613098,318.2794656900321 71.07214016130982,323.3294656900321 71.79214016130982,330.1594656900321 C 69.55214016130982,326.06946569003213 71.03214016130981,320.3594656900321 68.03214016130981,316.50946569003213 C 67.90214016130982,317.36946569003214 67.7421401613098,318.11946569003214 67.69214016130981,318.99946569003214 C 66.11214016130981,316.99946569003214 64.17214016130981,315.37946569003213 63.09214016130981,313.12946569003213 A 19.71,19.71 0.0 0,1 62.992140161309806,315.12946569003213 A 11.16,11.16 0.0 0,1 58.59214016130981,311.2694656900321 C 58.392140161309804,311.74946569003214 58.04214016130981,311.74946569003214 58.01214016130981,312.5294656900321 A 4.91,4.91 0.0 0,1 54.78214016130978,310.9894656900319 A 42.0,42.0 0.0 0,0 52.12214016130979,318.71946569003194 C 51.21214016130979,322.14946569003195 49.272140161309785,325.47946569003193 48.72214016130979,328.97946569003193 C 48.15214016130979,332.64946569003195 49.46214016130979,336.6094656900319 50.32214016130979,340.1694656900319 A 55.82,55.82 0.0 0,0 53.71214016130979,351.07946569003195 C 54.94214016130979,353.65946569003194 56.14214016130979,356.07946569003195 57.22214016130979,358.68946569003197 C 61.22214016130979,359.30946569003197 65.35214016130979,358.179465690032 69.31214016130978,359.38946569003195 C 73.01214016130979,360.52946569003194 78.15214016130979,361.05946569003197 81.24214016130979,363.56946569003196 C 83.24214016130979,365.21946569003194 82.54214016130979,366.88946569003195 81.10214016130979,368.30946569003197 A 10.74,10.74 0.0 0,1 81.4121401613098,372.88946569003195 C 80.15214016130979,372.94946569003196 79.1121401613098,372.14946569003195 77.82214016130979,372.00946569003196 C 76.53214016130978,371.869465690032 75.27214016130979,372.169465690032 73.88214016130979,372.14946569003195 A 7.63,7.63 0.0 0,1 71.79214016130979,371.78946569003193 C 71.57214016130979,373.2994656900319 70.79214016130979,374.27946569003194 68.63214016130979,373.57946569003195 C 65.63214016130979,372.57946569003195 63.16214016130979,372.679465690032 59.96214016130979,372.49946569003197 C 55.07214016130979,372.219465690032 46.88214016130979,373.49946569003197 43.74214016130979,368.849465690032 C 42.25214016130979,366.62946569003196 42.85214016130979,363.469465690032 43.07214016130979,360.769465690032 C 42.07214016130979,359.469465690032 40.62214016130979,358.279465690032 39.51214016130979,357.11946569003203 A 24.0,24.0 0.0 0,1 35.15214016130979,350.699465690032 C 32.912140161309786,346.039465690032 32.412140161309786,340.259465690032 30.862140161309785,335.279465690032 C 30.632140161309785,334.529465690032 30.422140161309784,333.779465690032 30.252140161309786,333.039465690032 A 45.0,45.0 0.0 0,0 28.682140161309785,337.759465690032 A 44.39,44.39 0.0 0,0 27.862140161309785,345.689465690032 C 27.672140161309784,351.319465690032 28.932140161309785,356.129465690032 29.552140161309786,361.589465690032 C 29.722140161309788,363.029465690032 29.952140161309785,364.519465690032 30.222140161309788,365.999465690032 C 32.77214016130979,367.779465690032 34.79214016130979,370.399465690032 37.59214016130979,371.509465690032 C 41.66214016130979,373.11946569003203 44.52214016130979,373.509465690032 44.082140161309795,378.66946569003204 C 42.98214016130979,378.88946569003207 41.872140161309794,378.22946569003204 40.77214016130979,378.059465690032 A 6.37,6.37 0.0 0,0 40.03214016130979,377.98946569003203 C 39.75214016130979,379.45946569003206 39.32214016130979,380.91946569003204 39.16214016130979,382.53946569003205 C 37.932140161309796,382.439465690032 37.28214016130979,381.319465690032 35.872140161309794,381.10946569003204 C 34.78214016130979,380.95946569003206 33.06214016130979,381.319465690032 31.792140161309792,381.259465690032 A 7.75,7.75 0.0 0,1 27.94214016130979,380.41946569003204 A 2.35,2.35 0.0 0,1 27.57214016130979,380.17946569003203 A 4.71,4.71 0.0 0,1 25.67214016130979,383.17946569003203 C 23.26214016130979,380.17946569003203 20.202140161309792,380.579465690032 17.09214016130979,378.85946569003204 C 13.982140161309786,377.13946569003207 14.202140161309789,373.01946569003206 13.352140161309789,369.92946569003203 A 109.73,109.73 0.0 0,1 10.05214016130979,347.809465690032 C 9.79214016130979,343.92946569003203 10.75214016130979,340.209465690032 11.14214016130979,336.36946569003203 C 11.53214016130979,332.52946569003205 11.59214016130979,328.649465690032 11.75214016130979,324.79946569003204 C 11.89214016130979,321.189465690032 11.47214016130979,316.86946569003203 13.15214016130979,313.52946569003205 C 14.612140161309789,310.61946569003203 17.94214016130979,309.79946569003204 19.82214016130979,307.27946569003205 C 22.34214016130979,303.8794656900321 22.19214016130979,298.95946569003206 22.82214016130979,294.98946569003203 C 23.24214016130979,292.17946569003203 23.722140161309788,289.39946569003206 24.08214016130979,286.59946569003205 C 23.42214016130979,286.03946569003205 22.76214016130979,285.439465690032 22.23214016130979,284.88946569003207 C 21.30214016130979,283.9394656900321 20.85214016130979,282.1294656900321 19.80214016130979,281.41946569003204 C 19.96214016130979,281.72946569003204 20.09214016130979,282.11946569003203 20.24214016130979,282.41946569003204 A 20.91,20.91 0.0 0,1 15.972140161309778,276.9894656900319 A 14.23,14.23 0.0 0,0 15.972140161309778,278.4494656900319 A 17.81,17.81 0.0 0,0 13.352140161309777,272.8194656900319 C 13.162140161309777,273.3694656900319 12.682140161309777,273.5794656900319 12.352140161309777,274.0694656900319 C 10.022140161309776,272.4594656900319 11.472140161309776,268.8694656900319 10.212140161309776,266.7794656900319 C 10.212140161309776,267.23946569003186 10.062140161309776,267.8294656900319 10.052140161309776,268.2894656900319 C 8.922140161309777,267.5294656900319 8.422140161309777,264.16946569003187 8.052140161309776,262.79946569003187 A 25.35,25.35 0.0 0,1 7.112140161309778,255.98946569003192 C 6.792140161309778,255.98946569003192 6.382140161309779,255.84946569003193 6.112140161309778,255.8794656900319 C 6.542140161309778,253.8194656900319 6.112140161309778,252.7794656900319 5.652140161309778,250.5594656900319 C 5.332140161309778,250.5594656900319 4.922140161309778,250.42946569003192 4.652140161309778,250.4494656900319 C 5.232140161309778,248.5694656900319 5.852140161309778,243.6794656900319 3.842140161309778,242.4494656900319 L 3.2521401613097782,242.9094656900319 C 3.1621401613097784,241.0094656900319 3.9721401613097784,237.9094656900319 2.862140161309778,236.42946569003192 C 2.732140161309778,236.6294656900319 2.422140161309778,236.88946569003193 2.262140161309778,237.1594656900319 C 2.362140161309778,235.5494656900319 3.082140161309778,232.1594656900319 1.9421401613097777,231.0294656900319 C 1.722140161309778,231.1994656900319 1.302140161309778,231.3794656900319 1.122140161309778,231.5394656900319 C 1.5321401613097776,230.3294656900319 2.852140161309778,225.1894656900319 0.9921401613097779,225.2894656900319 C 1.142140161309778,223.1394656900319 1.992140161309778,221.0094656900319 2.042140161309778,218.9994656900319 A 8.0,8.0 0.0 0,0 0.8621401613097778,219.42946569003192 C -1.4378598386902217,217.5594656900319 1.6021401613097783,209.91946569003193 1.5121401613097785,207.1594656900319"/>
</svg>
