<?xml version="1.0" ?>
<svg xmlns="http://www.w3.org/2000/svg" xmlns:ev="http://www.w3.org/2001/xml-events" xmlns:xlink="http://www.w3.org/1999/xlink" baseProfile="full" height="112" transform="scale(0.8928571428571429 0.8928571428571429) translate(-60.0 -56.0)" version="1.1" viewBox="0 0 120 112" width="120">
	<defs/>
	<path d="M 119.49006825869381,88.13920635822188 C 119.18006825869381,85.20920635822188 118.8700682586938,82.05920635822189 117.27006825869381,79.47920635822189 A 9.0,9.0 0.0 0,0 114.17006825869382,76.47920635822189 C 113.7800682586938,76.24920635822188 113.3800682586938,76.05920635822189 112.95006825869382,75.85920635822188 A 1.72,1.72 0.0 0,0 111.95006825869382,75.59920635822188 A 0.54,0.54 0.0 0,0 111.5000682586938,76.02920635822188 A 13.92,13.92 0.0 0,1 110.42006825869382,74.83920635822189 A 4.9,4.9 0.0 0,1 109.9700682586938,74.16920635822189 A 3.38,3.38 0.0 0,1 109.7800682586938,73.68920635822188 A 0.56,0.56 0.0 0,0 109.9700682586938,73.59920635822188 A 0.65,0.65 0.0 0,0 110.11006825869381,72.80920635822187 A 11.63,11.63 0.0 0,0 108.8700682586938,70.53920635822188 A 16.36,16.36 0.0 0,1 107.51006825869382,68.12920635822188 A 3.0,3.0 0.0 0,1 107.27006825869381,67.43920635822188 C 107.27006825869381,67.16920635822189 107.27006825869381,67.35920635822188 107.39006825869382,67.21920635822188 A 0.69,0.69 0.0 0,0 107.72006825869383,66.52920635822188 A 4.09,4.09 0.0 0,0 106.93006825869381,64.59920635822188 L 106.43006825869381,63.72920635822188 A 5.33,5.33 0.0 0,1 105.79006825869382,62.51920635822188 C 105.96006825869381,62.46920635822188 106.17006825869382,62.46920635822188 106.29006825869382,62.41920635822188 A 1.07,1.07 0.0 0,0 106.74006825869381,62.15920635822188 A 1.13,1.13 0.0 0,0 106.89006825869382,60.91920635822188 A 12.91,12.91 0.0 0,0 105.79006825869382,59.48920635822188 A 20.15,20.15 0.0 0,0 101.20006825869382,54.48920635822188 C 100.72006825869383,54.109206358221876 100.20006825869382,53.76920635822188 99.72006825869383,53.43920635822188 C 99.43006825869381,53.24920635822188 99.12006825869383,53.029206358221884 98.86006825869381,52.819206358221884 A 2.73,2.73 0.0 0,1 98.36006825869381,52.389206358221884 C 98.50006825869383,52.239206358221885 98.74006825869381,52.169206358221885 98.83006825869381,51.97920635822189 A 0.64,0.64 0.0 0,0 98.83006825869381,51.28920635822189 A 3.87,3.87 0.0 0,0 97.95006825869382,50.40920635822189 C 97.42006825869382,49.949206358221886 96.89006825869382,49.49920635822189 96.37006825869383,49.069206358221884 C 94.60006825869382,47.65920635822189 92.59006825869383,46.58920635822189 90.73006825869382,45.269206358221886 C 89.82006825869382,44.629206358221886 89.11006825869381,43.78920635822189 88.17006825869382,43.18920635822189 C 87.72006825869383,42.88920635822189 87.17006825869382,42.669206358221885 86.76006825869382,42.35920635822189 A 13.17,13.17 0.0 0,0 85.19006825869383,41.35920635822189 L 84.0000682586938,40.76920635822188 L 83.93006825869381,40.76920635822188 A 0.07,0.07 0.0 0,0 83.86006825869381,40.76920635822188 C 83.62006825869383,40.64920635822188 83.41006825869383,40.55920635822188 83.17006825869382,40.45920635822188 C 83.17006825869382,40.45920635822188 83.17006825869382,40.45920635822188 83.17006825869382,40.45920635822188 L 83.17006825869382,40.45920635822188 A 1.0,1.0 0.0 0,0 82.50006825869383,40.219206358221875 C 81.36006825869381,39.73920635822188 80.19006825869383,39.289206358221875 79.04006825869382,38.77920635822188 C 77.89006825869384,38.26920635822188 77.04006825869382,37.87920635822188 76.04006825869382,37.37920635822188 C 74.32006825869382,36.48920635822188 72.62006825869383,35.57920635822188 70.92006825869382,34.679206358221876 C 69.49006825869381,33.88920635822188 68.06006825869383,33.09920635822188 66.62006825869383,32.33920635822187 A 83.2,83.2 0.0 0,0 54.08006825869383,26.729206358221873 C 53.48006825869383,26.539206358221872 52.96006825869383,26.249206358221873 52.36006825869383,26.029206358221874 A 10.89,10.89 0.0 0,1 50.81006825869383,25.409206358221873 A 27.72,27.72 0.0 0,1 47.56006825869383,23.30920635822187 C 47.03006825869383,22.929206358221872 46.46006825869383,22.66920635822187 45.91006825869383,22.30920635822187 C 45.360068258693836,21.949206358221872 45.14006825869383,21.66920635822187 44.760068258693835,21.37920635822187 C 44.38006825869384,21.089206358221873 44.040068258693836,20.84920635822187 43.66006825869383,20.61920635822187 A 7.22,7.22 0.0 0,1 42.85006825869383,20.06920635822187 C 43.35006825869383,19.969206358221868 43.85006825869383,19.82920635822187 43.71006825869383,19.17920635822187 C 43.54006825869383,18.22920635822187 42.28006825869383,17.69920635822187 41.51006825869383,17.29920635822187 C 40.22006825869383,16.59920635822187 38.98006825869383,15.839206358221869 37.71006825869383,15.14920635822187 A 12.64,12.64 0.0 0,0 36.49006825869383,14.52920635822187 C 36.35006825869383,14.44920635822187 36.230068258693834,14.409206358221871 36.09006825869383,14.33920635822187 C 35.56006825869383,14.069206358221871 35.09006825869383,13.829206358221871 34.53006825869383,13.52920635822187 A 3.07,3.07 0.0 0,1 34.870068258693834,13.52920635822187 A 0.41,0.41 0.0 0,0 35.25006825869384,12.99920635822187 C 34.92006825869384,11.99920635822187 33.46006825869384,11.75920635822187 32.620068258693834,11.399206358221871 C 30.760068258693835,10.58920635822187 28.940068258693834,9.729206358221871 27.080068258693835,8.91920635822187 L 25.720068258693836,8.34920635822187 L 25.14006825869381,8.01920635822188 L 24.450068258693808,7.729206358221879 L 24.330068258693807,7.659206358221879 C 24.010068258693806,7.469206358221879 23.870068258693806,6.989206358221879 23.680068258693808,6.659206358221879 A 8.23,8.23 0.0 0,1 23.180068258693808,5.659206358221879 A 12.0,12.0 0.0 0,0 21.290068258693807,1.7992063582218794 C 20.530068258693806,0.8892063582218793 19.290068258693807,-0.020793641778120705 18.180068258693808,0.9592063582218794 L 18.110068258693808,1.0192063582218795 A 6.38,6.38 0.0 0,0 16.73006825869381,3.80920635822188 A 16.48,16.48 0.0 0,0 14.150068258693809,1.3792063582218794 C 13.620068258693808,1.0192063582218795 12.400068258693809,-0.15079364177812046 11.570068258693809,0.019206358221879553 C 10.230068258693809,-0.27079364177812043 10.390068258693809,2.80920635822188 10.37006825869381,3.4592063582218797 C 10.37006825869381,4.529206358221879 10.37006825869381,5.58920635822188 10.37006825869381,6.65920635822188 A 11.44,11.44 0.0 0,0 10.44006825869381,9.20920635822188 A 10.51,10.51 0.0 0,0 8.67006825869381,10.83920635822188 A 23.83,23.83 0.0 0,0 7.000068258693808,12.699206358221879 A 4.24,4.24 0.0 0,0 6.140068258693808,14.869206358221879 C 6.050068258693808,15.799206358221879 5.860068258693808,16.67920635822188 5.690068258693808,17.60920635822188 A 9.13,9.13 0.0 0,0 6.600068258693808,22.67920635822188 A 6.11,6.11 0.0 0,1 7.190068258693808,23.919206358221878 A 2.34,2.34 0.0 0,1 7.000068258693808,25.63920635822188 C 6.790068258693808,25.98920635822188 6.520068258693808,26.34920635822188 6.290068258693808,26.68920635822188 A 12.27,12.27 0.0 0,1 5.500068258693808,27.879206358221882 A 15.23,15.23 0.0 0,1 3.5000682586938083,29.959206358221884 C 3.090068258693808,30.289206358221882 2.6600682586938085,30.649206358221885 2.260068258693808,30.959206358221884 A 7.68,7.68 0.0 0,0 1.2600682586938081,31.959206358221884 A 2.29,2.29 0.0 0,0 0.5900682586938081,32.419206358221885 A 1.37,1.37 0.0 0,0 6.825869380833183e-05,33.55920635822188 A 2.65,2.65 0.0 0,0 1.6000682586938084,35.77920635822188 A 3.58,3.58 0.0 0,0 3.2500682586938083,37.01920635822188 A 11.33,11.33 0.0 0,0 5.690068258693809,38.01920635822188 A 7.88,7.88 0.0 0,0 8.860068258693808,37.929206358221876 C 10.040068258693807,37.70920635822188 11.140068258693807,37.20920635822188 12.280068258693808,36.929206358221876 A 0.32,0.32 0.0 0,0 12.400068258693807,36.929206358221876 A 2.21,2.21 0.0 0,1 14.120068258693808,37.789206358221875 A 3.0,3.0 0.0 0,1 14.860068258693808,39.869206358221874 A 14.41,14.41 0.0 0,1 14.860068258693808,41.94920635822187 C 14.790068258693807,42.70920635822187 14.380068258693807,43.399206358221875 14.240068258693809,44.16920635822187 A 0.47,0.47 0.0 0,0 14.240068258693809,44.42920635822187 C 14.100068258693808,44.85920635822187 13.810068258693809,45.28920635822187 13.650068258693809,45.66920635822187 A 5.74,5.74 0.0 0,0 13.190068258693808,47.24920635822187 A 7.41,7.41 0.0 0,0 13.240068258693809,49.24920635822187 A 2.22,2.22 0.0 0,0 13.88006825869381,50.77920635822187 A 0.8,0.8 0.0 0,0 14.820068258693809,50.77920635822187 A 0.62,0.62 0.0 0,0 14.820068258693809,50.97920635822187 A 8.87,8.87 0.0 0,0 15.080068258693808,52.13920635822187 C 15.340068258693808,52.97920635822187 15.780068258693808,53.73920635822187 15.990068258693809,54.57920635822187 A 0.52,0.52 0.0 0,0 16.28006825869381,54.86920635822187 A 34.87,34.87 0.0 0,0 18.40006825869381,58.68920635822187 A 11.46,11.46 0.0 0,0 21.40006825869381,61.769206358221865 A 0.41,0.41 0.0 0,0 21.93006825869381,61.669206358221864 A 21.46,21.46 0.0 0,0 24.93006825869381,65.58920635822186 A 7.88,7.88 0.0 0,0 27.240068258693807,67.01920635822188 A 16.81,16.81 0.0 0,0 30.040068258693807,68.01920635822188 C 30.400068258693807,69.30920635822189 30.780068258693806,70.56920635822188 31.23006825869381,71.83920635822187 A 25.09,25.09 0.0 0,1 32.23006825869381,75.03920635822188 A 22.87,22.87 0.0 0,1 32.540068258693815,78.44920635822187 C 32.70006825869381,80.66920635822187 33.540068258693815,82.79920635822187 33.85006825869382,84.98920635822188 A 15.92,15.92 0.0 0,1 34.140068258693816,87.56920635822188 C 34.140068258693816,88.49920635822188 34.070068258693816,89.43920635822188 34.02006825869382,90.36920635822187 A 0.37,0.37 0.0 0,0 33.95006825869382,90.59920635822188 L 33.95006825869382,93.67920635822188 A 3.06,3.06 0.0 0,1 33.80006825869382,94.67920635822188 A 3.49,3.49 0.0 0,0 33.710068258693816,95.91920635822187 L 33.710068258693816,96.10920635822187 L 33.56006825869382,96.10920635822187 A 3.09,3.09 0.0 0,1 33.040068258693815,96.03920635822188 A 1.8,1.8 0.0 0,0 32.13006825869382,95.91920635822187 A 4.31,4.31 0.0 0,0 29.720068258693818,95.84920635822188 A 1.81,1.81 0.0 0,0 28.95006825869382,96.39920635822187 C 28.740068258693817,96.65920635822188 28.760068258693817,97.27920635822187 28.50006825869382,97.39920635822187 C 28.24006825869382,97.51920635822188 27.71006825869382,97.51920635822188 27.380068258693818,97.65920635822188 A 1.31,1.31 0.0 0,0 26.59006825869382,98.44920635822189 A 7.11,7.11 0.0 0,1 26.18006825869382,99.80920635822189 C 25.990068258693817,100.21920635822188 25.70006825869382,100.57920635822188 25.510068258693817,100.97920635822189 A 5.8,5.8 0.0 0,0 25.18006825869382,103.43920635822188 A 1.37,1.37 0.0 0,0 26.040068258693818,104.82920635822188 A 4.0,4.0 0.0 0,0 26.95006825869382,104.89920635822187 C 27.23006825869382,104.89920635822187 27.52006825869382,104.89920635822187 27.830068258693817,104.89920635822187 A 3.75,3.75 0.0 0,1 28.980068258693816,105.08920635822187 A 4.4,4.4 0.0 0,1 29.790068258693815,105.30920635822187 C 29.840068258693815,105.30920635822187 29.570068258693816,105.13920635822187 29.860068258693815,105.30920635822187 A 1.36,1.36 0.0 0,1 30.030068258693817,105.47920635822187 A 4.63,4.63 0.0 0,0 31.030068258693817,106.00920635822187 A 5.89,5.89 0.0 0,0 32.640068258693816,106.74920635822187 A 3.84,3.84 0.0 0,0 34.210068258693816,106.52920635822187 C 35.330068258693814,106.19920635822187 36.290068258693815,105.45920635822188 37.41006825869382,105.11920635822187 A 0.3,0.3 0.0 0,0 37.65006825869382,104.92920635822188 C 38.08006825869382,104.68920635822188 38.490068258693825,104.37920635822188 38.920068258693824,104.11920635822187 A 4.44,4.44 0.0 0,0 40.160068258693826,103.11920635822187 A 5.67,5.67 0.0 0,0 40.93006825869383,101.48920635822188 C 41.12006825869383,100.94920635822187 41.31006825869383,100.41920635822189 41.50006825869383,99.86920635822187 A 2.5,2.5 0.0 0,0 42.98006825869383,100.24920635822187 A 6.94,6.94 0.0 0,0 43.98006825869383,100.05920635822187 A 4.42,4.42 0.0 0,1 44.93006825869383,100.05920635822187 C 45.93006825869383,100.05920635822187 46.82006825869383,99.96920635822187 47.78006825869383,100.05920635822187 A 12.58,12.58 0.0 0,0 50.00006825869383,100.31920635822188 A 2.0,2.0 0.0 0,0 52.00006825869381,99.43920635822188 C 52.39006825869381,98.88920635822188 53.13006825869381,98.43920635822188 52.940068258693806,97.68920635822188 A 3.0,3.0 0.0 0,1 52.6700682586938,96.85920635822188 A 9.72,9.72 0.0 0,1 52.7500682586938,95.42920635822188 C 52.8700682586938,94.42920635822188 53.2500682586938,93.42920635822188 53.340068258693805,92.42920635822188 C 53.43006825869381,91.42920635822188 53.510068258693806,90.23920635822188 53.65006825869381,89.10920635822188 A 18.61,18.61 0.0 0,0 53.800068258693805,86.52920635822188 C 53.800068258693805,84.52920635822188 53.870068258693806,82.44920635822189 53.89006825869381,80.39920635822189 A 0.36,0.36 0.0 0,0 53.84006825869381,80.20920635822189 A 31.22,31.22 0.0 0,0 53.650068258693814,74.9092063582219 C 53.34006825869381,73.34920635822189 52.750068258693815,71.9092063582219 52.430068258693815,70.31920635822189 A 3.62,3.62 0.0 0,0 54.110068258693815,70.1092063582219 A 4.35,4.35 0.0 0,1 55.35006825869382,69.67920635822189 A 4.16,4.16 0.0 0,1 56.88006825869382,70.1092063582219 A 41.33,41.33 0.0 0,0 60.680068258693815,78.31920635822189 Q 61.87006825869381,80.31920635822189 63.16006825869381,82.31920635822189 A 12.48,12.48 0.0 0,0 64.3100682586938,83.84920635822189 A 5.52,5.52 0.0 0,1 65.5000682586938,85.42920635822189 A 3.0,3.0 0.0 0,0 66.4100682586938,86.75920635822189 C 66.6000682586938,86.9092063582219 66.80006825869381,86.97920635822189 66.99006825869381,87.14920635822189 A 9.88,9.88 0.0 0,1 67.7500682586938,88.09920635822189 A 15.32,15.32 0.0 0,0 68.9000682586938,89.5292063582219 C 69.3700682586938,90.0292063582219 69.9000682586938,90.4192063582219 70.4000682586938,90.9392063582219 A 2.67,2.67 0.0 0,1 70.9000682586938,92.39920635822189 C 71.0000682586938,92.98920635822189 71.10006825869382,93.61920635822189 71.19006825869383,94.20920635822189 C 71.38006825869383,95.44920635822189 71.57006825869382,96.69920635822189 71.67006825869382,97.9392063582219 A 6.45,6.45 0.0 0,1 71.67006825869382,99.9392063582219 A 6.92,6.92 0.0 0,1 70.93006825869384,101.6092063582219 A 6.22,6.22 0.0 0,0 70.24006825869384,103.4192063582219 C 70.12006825869383,103.9192063582219 70.05006825869384,104.3492063582219 69.62006825869383,104.6092063582219 L 69.47006825869383,104.4692063582219 A 1.58,1.58 0.0 0,0 68.71006825869381,104.1892063582219 A 2.22,2.22 0.0 0,0 67.30006825869381,104.39920635822189 A 7.15,7.15 0.0 0,1 65.77006825869381,104.99920635822188 A 1.37,1.37 0.0 0,0 64.86006825869381,105.51920635822188 A 4.4,4.4 0.0 0,0 64.24006825869381,107.30920635822189 A 5.43,5.43 0.0 0,0 63.790068258693815,109.21920635822188 C 63.88006825869382,109.76920635822188 64.3400682586938,109.98920635822188 64.5300682586938,110.41920635822189 C 64.7200682586938,110.84920635822189 64.96006825869381,111.17920635822189 65.4100682586938,111.19920635822189 A 5.44,5.44 0.0 0,0 67.80006825869381,111.70920635822189 C 68.80006825869381,111.84920635822189 69.71006825869381,111.89920635822189 70.67006825869382,111.94920635822189 A 7.42,7.42 0.0 0,0 71.9100682586938,111.94920635822189 C 72.39006825869382,111.8792063582219 72.9100682586938,111.51920635822188 73.3400682586938,111.63920635822188 A 3.53,3.53 0.0 0,0 74.51006825869382,111.92920635822189 A 3.66,3.66 0.0 0,0 75.85006825869382,111.44920635822189 C 76.28006825869383,111.20920635822189 76.76006825869382,111.01920635822188 77.17006825869382,110.75920635822189 A 10.18,10.18 0.0 0,0 78.10006825869382,109.94920635822189 C 78.67006825869382,109.51920635822188 79.60006825869382,109.19920635822189 79.75006825869383,108.41920635822189 A 4.17,4.17 0.0 0,0 79.75006825869383,107.62920635822188 C 79.75006825869383,107.33920635822187 79.82006825869382,107.07920635822188 79.82006825869382,106.81920635822188 C 79.82006825869382,106.55920635822187 79.94006825869383,106.16920635822187 79.96006825869381,105.81920635822188 A 13.28,13.28 0.0 0,0 79.96006825869381,104.40920635822188 A 10.0,10.0 0.0 0,1 80.0300682586938,103.18920635822188 A 8.75,8.75 0.0 0,1 81.4100682586938,103.30920635822189 A 4.0,4.0 0.0 0,0 82.7500682586938,103.47920635822189 A 2.26,2.26 0.0 0,0 84.45006825869382,103.06920635822189 A 6.53,6.53 0.0 0,0 84.88006825869383,102.4992063582219 C 85.05006825869381,102.2592063582219 85.28006825869383,102.06920635822189 85.47006825869383,101.8292063582219 C 85.86006825869381,101.3792063582219 85.76006825869382,100.9992063582219 85.55006825869381,100.4692063582219 A 3.33,3.33 0.0 0,1 85.55006825869381,98.7792063582219 C 85.6500682586938,98.0092063582219 85.91006825869383,97.2692063582219 86.03006825869383,96.5092063582219 A 17.1,17.1 0.0 0,0 86.24006825869381,94.2392063582219 A 31.76,31.76 0.0 0,1 86.91006825869383,90.3192063582219 A 16.67,16.67 0.0 0,0 89.71006825869381,92.60920635822191 A 2.27,2.27 0.0 0,1 90.47006825869383,93.25920635822192 L 91.05006825869381,94.13920635822191 A 12.71,12.71 0.0 0,0 92.31006825869383,95.68920635822191 A 10.2,10.2 0.0 0,0 94.70006825869382,97.5992063582219 A 2.0,2.0 0.0 0,0 95.90006825869384,97.93920635822191 A 0.71,0.71 0.0 0,0 96.40006825869384,97.6792063582219 A 0.88,0.88 0.0 0,0 96.50006825869383,97.43920635822191 A 13.8,13.8 0.0 0,1 98.00006825869383,98.1492063582219 C 98.60006825869382,98.4192063582219 99.22006825869383,98.65920635822191 99.84006825869383,98.8892063582219 C 100.65006825869384,99.20920635822189 101.49006825869384,99.5092063582219 102.30006825869381,99.8292063582219 A 8.59,8.59 0.0 0,0 104.67006825869382,100.4692063582219 A 1.31,1.31 0.0 0,0 105.60006825869382,100.2992063582219 A 0.55,0.55 0.0 0,0 105.86006825869384,99.7492063582219 A 23.49,23.49 0.0 0,0 108.23006825869385,100.2992063582219 C 109.23006825869385,100.4492063582219 110.31006825869383,100.5892063582219 111.33006825869384,100.75920635822189 C 113.20006825869385,101.06920635822189 115.11006825869384,101.1592063582219 116.97006825869383,101.58920635822189 C 117.57006825869382,101.73920635822189 118.19006825869383,101.58920635822189 118.05006825869384,100.82920635822188 A 9.93,9.93 0.0 0,1 118.36006825869384,97.93920635822188 A 54.0,54.0 0.0 0,0 118.86006825869384,92.13920635822188 C 118.86006825869384,91.56920635822189 118.86006825869384,90.98920635822188 118.86006825869384,90.43920635822188 C 118.86006825869384,90.17920635822188 118.86006825869384,89.91920635822189 118.86006825869384,89.65920635822188 A 4.94,4.94 0.0 0,0 118.86006825869384,88.88920635822188 A 0.41,0.41 0.0 0,0 119.02006825869384,88.88920635822188 A 0.65,0.65 0.0 0,0 119.60006825869382,88.46920635822188 A 1.0,1.0 0.0 0,0 119.49006825869381,88.13920635822188 M 42.15006825869381,93.01920635822188 A 12.51,12.51 0.0 0,0 42.15006825869381,91.51920635822188 C 42.10006825869381,90.81920635822188 42.00006825869381,90.14920635822187 41.910068258693805,89.51920635822188 A 26.4,26.4 0.0 0,1 41.5700682586938,85.16920635822189 L 41.5700682586938,85.09920635822189 C 41.5700682586938,84.28920635822189 41.450068258693804,83.4692063582219 41.3600682586938,82.6592063582219 A 5.88,5.88 0.0 0,1 41.6000682586938,80.1292063582219 C 41.840068258693805,79.3892063582219 42.1500682586938,78.67920635822189 42.4300682586938,77.9392063582219 A 4.2,4.2 0.0 0,0 42.8200682586938,75.6692063582219 L 42.8200682586938,75.6692063582219 C 42.8200682586938,75.4092063582219 42.8200682586938,75.1692063582219 42.8200682586938,74.9092063582219 A 2.5,2.5 0.0 0,0 43.0600682586938,75.2692063582219 A 0.33,0.33 0.0 0,0 43.2500682586938,75.4092063582219 A 12.35,12.35 0.0 0,1 45.7300682586938,79.2792063582219 A 5.14,5.14 0.0 0,1 45.5900682586938,81.7092063582219 A 11.0,11.0 0.0 0,0 45.3300682586938,84.26920635822191 A 12.18,12.18 0.0 0,0 45.40006825869381,86.01920635822188 C 45.40006825869381,86.61920635822187 45.54006825869381,87.21920635822188 45.57006825869381,87.80920635822189 A 14.55,14.55 0.0 0,0 45.57006825869381,89.67920635822189 C 45.64006825869381,90.22920635822189 45.83006825869381,90.77920635822188 45.85006825869381,91.31920635822189 A 6.0,6.0 0.0 0,1 45.64006825869381,92.72920635822189 C 45.64006825869381,92.84920635822189 45.64006825869381,93.08920635822189 45.52006825869381,93.18920635822188 C 45.400068258693814,93.28920635822188 44.970068258693814,93.18920635822188 44.80006825869381,93.18920635822188 A 10.64,10.64 0.0 0,1 43.08006825869381,93.01920635822188 A 4.18,4.18 0.0 0,0 42.15006825869381,93.01920635822188 M 31.78006825869381,105.37920635822188 L 31.92006825869381,105.47920635822187 C 31.85006825869381,105.47920635822187 31.78006825869381,105.40920635822188 31.71006825869381,105.35920635822187 L 31.78006825869381,105.37920635822188"/>
</svg>
