<?xml version="1.0" ?>
<svg xmlns="http://www.w3.org/2000/svg" xmlns:ev="http://www.w3.org/2001/xml-events" xmlns:xlink="http://www.w3.org/1999/xlink" baseProfile="full" height="99" transform="scale(1.0101010101010102 1.0101010101010102) translate(-72.5 -49.5)" version="1.1" viewBox="0 0 145 99" width="145">
	<defs/>
	<path class="cls-1" d="M 95.49501587956884,56.487398330725895 C 90.07501587956884,58.1573983307259 74.64501587956885,61.597398330725895 61.70501587956884,60.85739833072589 C 63.25501587956884,51.11739833072589 62.03501587956884,46.387398330725894 62.03501587956884,46.387398330725894 C 61.64501587956884,58.887398330725894 56.71501587956884,66.3873983307259 56.44501587956884,80.7173983307259 C 56.175015879568846,95.0473983307259 55.22501587956884,98.1473983307259 52.51501587956884,98.1473983307259 L 43.60501587956884,98.1473983307259 C 41.60501587956884,98.1473983307259 44.73501587956884,94.0873983307259 48.35501587956884,93.1473983307259 C 55.35501587956884,91.40739833072591 50.05501587956884,54.9573983307259 44.57501587956884,51.3373983307259 A 32.91,32.91 0.0 0,1 45.875015879568835,57.3373983307259 C 40.52501587956884,54.0073983307259 26.955015879568844,44.5073983307259 21.365015879568844,31.1473983307259 C 23.045015879568844,30.7673983307259 25.615015879568844,31.4273983307259 26.635015879568844,30.8173983307259 C 28.095015879568844,29.9573983307259 27.875015879568842,26.5473983307259 27.875015879568842,26.5473983307259 C 27.035015879568842,32.547398330725905 24.23501587956884,29.4373983307259 19.135015879568844,29.3373983307259 C 11.525015879568844,29.1973983307259 8.715015879568844,31.0073983307259 4.935015879568844,29.0073983307259 C 4.935015879568844,29.0073983307259 2.5350158795688444,29.3273983307259 0.9350158795688442,26.4273983307259 C -0.6649841204311558,23.5273983307259 -0.4749841204311557,24.2573983307259 3.5950158795688445,21.4973983307259 C 7.665015879568845,18.737398330725902 11.805015879568844,17.6473983307259 14.025015879568844,13.3073983307259 C 15.635015879568844,10.097398330725898 19.235015879568845,8.4673983307259 21.025015879568844,7.837398330725899 A 8.73,8.73 0.0 0,0 22.805015879568845,10.007398330725898 C 21.805015879568845,7.0073983307258985 21.025015879568844,3.607398330725898 21.935015879568844,0.4573983307258979 C 22.615015879568844,-1.8926016692741021 24.585015879568843,5.457398330725898 27.865015879568844,7.877398330725898 C 34.38501587956884,9.427398330725898 42.23501587956884,14.877398330725898 50.66501587956884,16.1773983307259 C 50.66501587956884,16.1773983307259 46.66501587956884,17.1773983307259 45.58501587956884,17.5473983307259 C 53.185015879568844,17.3573983307259 55.83501587956884,19.597398330725902 64.72501587956884,20.2173983307259 C 64.72501587956884,20.2173983307259 62.01501587956884,21.3473983307259 60.83501587956884,21.7573983307259 C 60.83501587956884,21.7573983307259 77.21501587956884,23.157398330725897 89.51501587956885,22.0773983307259 C 101.81501587956886,20.9973983307259 120.00501587956884,17.727398330725897 129.13501587956887,31.8473983307259 C 138.26501587956886,45.9673983307259 131.21501587956885,71.4673983307259 144.02501587956885,76.5373983307259 C 144.02501587956885,76.5373983307259 127.75501587956884,74.2773983307259 122.22501587956884,54.8873983307259 C 127.07501587956884,39.6473983307259 122.49501587956884,35.4673983307259 122.49501587956884,35.4673983307259 C 125.73501587956883,44.1073983307259 117.31501587956883,54.8573983307259 118.69501587956884,65.46739833072591 C 119.59501587956885,72.46739833072591 120.95501587956885,73.60739833072591 117.06501587956885,83.55739833072592 C 113.17501587956885,93.50739833072592 113.26501587956885,98.39739833072592 110.19501587956884,98.39739833072592 L 101.32501587956884,98.39739833072592 C 99.51501587956884,98.39739833072592 103.40501587956884,93.59739833072592 106.32501587956884,93.32739833072593 C 109.24501587956884,93.05739833072593 109.48501587956883,90.79739833072593 111.38501587956884,85.09739833072592 C 113.28501587956885,79.39739833072592 113.64501587956885,75.68739833072593 106.95501587956885,69.53739833072592 C 99.55501587956884,62.747398330725915 94.78501587956885,54.537398330725914 97.68501587956885,41.537398330725914 C 97.70501587956885,41.6073983307259 94.70501587956885,45.0073983307259 95.49501587956884,56.487398330725895"/>
</svg>
