<?xml version="1.0" ?>
<svg xmlns="http://www.w3.org/2000/svg" xmlns:ev="http://www.w3.org/2001/xml-events" xmlns:xlink="http://www.w3.org/1999/xlink" baseProfile="full" height="96" transform="scale(1.0416666666666667 1.0416666666666667) translate(-70.0 -48.0)" version="1.1" viewBox="0 0 140 96" width="140">
	<defs/>
	<path d="M 138.3359794061812,84.0 A 3.7,3.7 0.0 0,0 139.03597940618118,81.3 C 138.97597940618118,80.97 138.8659794061812,80.47 138.56597940618119,80.3 C 138.50597940618118,80.3 138.25597940618118,80.19 138.31597940618119,80.22 A 4.86,4.86 0.0 0,0 137.8059794061812,79.94 A 5.2,5.2 0.0 0,0 136.22597940618118,79.85 A 7.83,7.83 0.0 0,0 134.86597940618117,79.91 A 1.77,1.77 0.0 0,0 133.86597940618117,80.8 A 2.35,2.35 0.0 0,1 131.72597940618118,81.66 A 8.48,8.48 0.0 0,1 128.4659794061812,79.72 A 9.3,9.3 0.0 0,0 127.4059794061812,78.88 L 127.4059794061812,78.88 C 126.6859794061812,78.38 125.9659794061812,77.94 125.1859794061812,77.46 C 124.5759794061812,77.1 123.9859794061812,76.71 123.4059794061812,76.32 C 122.8259794061812,75.92999999999999 122.3459794061812,75.42999999999999 121.7659794061812,75.1 C 121.3459794061812,74.88 120.8759794061812,74.89999999999999 120.4559794061812,74.67999999999999 A 21.51,21.51 0.0 0,1 118.3159794061812,73.32 C 115.4459794061812,71.47999999999999 112.6659794061812,69.52999999999999 109.7159794061812,67.80999999999999 C 109.7159794061812,67.55999999999999 109.77597940618121,67.32999999999998 109.8259794061812,67.08999999999999 L 110.1359794061812,67.21999999999998 A 0.38,0.38 0.0 0,0 110.55597940618121,67.16999999999999 C 111.8559794061812,65.96999999999998 111.55597940618121,63.999999999999986 111.2459794061812,62.40999999999999 L 111.2459794061812,62.2 A 0.6,0.6 0.0 0,0 111.3259794061812,62.120000000000005 C 111.94597940618121,61.00000000000001 111.6059794061812,59.53 111.4959794061812,58.31 L 111.4959794061812,58.25 A 15.0,15.0 0.0 0,1 111.66597940618121,56.58 A 0.89,0.89 0.0 0,1 112.19597940618121,56.25 A 11.0,11.0 0.0 0,1 115.33597940618121,56.16 A 22.0,22.0 0.0 0,0 120.06597940618121,56.25 A 4.11,4.11 0.0 0,0 123.06597940618121,53.91 A 2.32,2.32 0.0 0,0 125.23597940618122,51.79 A 2.14,2.14 0.0 0,0 124.90597940618122,50.1 A 3.57,3.57 0.0 0,0 123.67597940618121,49.1 A 6.0,6.0 0.0 0,0 122.95597940618121,48.97 A 1.57,1.57 0.0 0,1 122.34597940618121,48.519999999999996 C 121.89597940618121,48.129999999999995 121.45597940618121,47.709999999999994 121.00597940618121,47.269999999999996 A 17.88,17.88 0.0 0,1 118.72597940618121,44.37 A 5.0,5.0 0.0 0,1 118.11597940618121,41.12 A 11.66,11.66 0.0 0,0 117.97597940618121,37.58 A 9.9,9.9 0.0 0,0 114.63597940618122,32.0 C 115.91597940618122,31.08 116.44597940618122,29.08 116.89597940618123,27.69 C 117.47597940618122,25.85 118.28597940618123,23.6 117.61597940618122,21.69 A 0.35,0.35 0.0 0,0 117.36597940618122,21.470000000000002 L 117.25597940618123,21.470000000000002 C 117.16597940618122,21.470000000000002 117.08597940618122,21.380000000000003 117.00597940618123,21.35 A 1.67,1.67 0.0 0,0 116.27597940618122,21.3 A 6.3,6.3 0.0 0,0 114.69597940618122,21.740000000000002 A 13.64,13.64 0.0 0,0 111.79597940618122,23.270000000000003 C 110.18597940618122,24.330000000000002 108.15597940618122,25.42 107.09597940618121,27.110000000000003 A 5.0,5.0 0.0 0,0 106.87597940618122,26.220000000000002 C 106.65597940618122,25.55 106.34597940618121,24.94 106.06597940618121,24.300000000000004 A 10.82,10.82 0.0 0,0 104.39597940618121,21.490000000000006 C 103.78597940618121,20.820000000000004 102.70597940618121,19.990000000000006 101.72597940618121,20.270000000000007 C 100.7459794061812,20.550000000000008 100.28597940618121,21.580000000000005 99.86597940618121,22.35000000000001 C 99.25597940618121,23.550000000000008 98.6359794061812,24.750000000000007 98.11597940618121,25.97000000000001 A 6.61,6.61 0.0 0,1 97.66597940618122,27.0 C 97.47597940618122,27.33 97.33597940618122,27.33 96.94597940618122,27.42 A 9.0,9.0 0.0 0,0 95.02597940618122,28.060000000000002 C 92.88597940618122,28.970000000000002 91.49597940618122,30.87 90.18597940618122,32.7 A 10.45,10.45 0.0 0,1 87.09597940618121,35.57 C 86.51597940618122,35.93 85.92597940618121,36.29 85.31597940618121,36.57 C 84.70597940618121,36.85 84.06597940618121,37.1 83.45597940618121,37.43 A 29.65,29.65 0.0 0,1 77.85597940618122,33.57 A 20.42,20.42 0.0 0,1 74.07597940618122,28.47 A 90.72,90.72 0.0 0,0 66.34597940618121,17.06 C 64.83597940618121,15.2 63.28597940618121,13.36 61.665979406181215,11.579999999999998 A 43.43,43.43 0.0 0,0 56.915979406181215,6.77 A 19.67,19.67 0.0 0,0 51.915979406181215,3.8999999999999995 C 49.875979406181216,3.0 47.735979406181215,2.18 45.61597940618122,1.43 A 20.2,20.2 0.0 0,0 38.21597940618122,0.0 A 17.26,17.26 0.0 0,0 31.21597940618122,1.86 C 31.045979406181218,1.81 30.85597940618122,1.86 30.795979406181218,1.9700000000000002 A 3.25,3.25 0.0 0,0 30.265979406181216,1.83 L 29.685979406181218,1.75 A 11.92,11.92 0.0 0,0 27.795979406181218,1.75 A 28.81,28.81 0.0 0,0 24.565979406181214,2.17 A 32.85,32.85 0.0 0,0 18.015979406181216,4.43 A 40.0,40.0 0.0 0,0 12.395979406181214,7.43 C 11.895979406181214,7.77 11.285979406181214,8.24 11.395979406181214,8.94 A 2.12,2.12 0.0 0,0 11.565979406181214,9.52 C 11.565979406181214,9.6 11.675979406181213,9.69 11.695979406181214,9.74 C 11.785979406181214,10.0 11.695979406181214,9.88 11.535979406181214,10.02 A 13.77,13.77 0.0 0,0 10.535979406181214,11.02 C 10.145979406181214,11.41 9.785979406181214,11.799999999999999 9.405979406181215,12.16 A 17.67,17.67 0.0 0,0 7.065979406181215,14.780000000000001 C 6.895979406181215,15.06 7.175979406181216,15.31 7.455979406181215,15.280000000000001 C 7.735979406181214,15.250000000000002 8.175979406181215,15.110000000000001 8.535979406181214,15.06 C 6.535979406181214,17.45 4.255979406181214,19.95 4.645979406181214,23.29 A 16.22,16.22 0.0 0,0 1.5559794061812138,27.799999999999997 A 14.0,14.0 0.0 0,0 0.7459794061812137,30.609999999999996 A 16.06,16.06 0.0 0,0 0.6359794061812146,32.4 A 0.17,0.17 0.0 0,0 0.5259794061812146,32.54 A 7.91,7.91 0.0 0,0 0.015979406181214628,35.6 A 10.17,10.17 0.0 0,0 0.34597940618121464,38.800000000000004 A 0.34,0.34 0.0 0,0 0.9559794061812146,38.88 A 2.26,2.26 0.0 0,0 1.0659794061812147,38.660000000000004 A 8.29,8.29 0.0 0,1 1.5659794061812147,40.27 A 6.0,6.0 0.0 0,0 2.1859794061812146,42.080000000000005 C 2.7359794061812144,43.28000000000001 3.1859794061812146,44.78000000000001 4.235979406181214,45.620000000000005 C 4.435979406181215,45.760000000000005 4.745979406181214,45.730000000000004 4.795979406181214,45.480000000000004 C 4.845979406181214,45.230000000000004 4.935979406181214,44.7 5.045979406181214,44.34 A 21.1,21.1 0.0 0,0 8.045979406181214,48.730000000000004 A 5.78,5.78 0.0 0,0 9.615979406181214,50.15 A 0.92,0.92 0.0 0,0 10.675979406181215,50.0 A 0.34,0.34 0.0 0,0 11.235979406181215,50.13 A 9.09,9.09 0.0 0,0 13.295979406181216,47.32 A 0.31,0.31 0.0 0,0 13.565979406181215,47.46 C 14.935979406181216,47.52 15.965979406181216,46.46 16.765979406181216,45.54 A 25.69,25.69 0.0 0,1 19.32597940618121,42.37 A 0.64,0.64 0.0 0,1 19.495979406181213,42.65 A 0.34,0.34 0.0 0,0 20.055979406181216,42.79 A 6.71,6.71 0.0 0,0 21.635979406181214,39.0 A 19.43,19.43 0.0 0,0 21.885979406181214,36.69 C 22.195979406181216,39.75 21.055979406181216,42.9 19.555979406181216,45.57 A 12.33,12.33 0.0 0,1 17.07597940618121,49.0 C 16.07597940618121,49.92 14.595979406181213,50.34 13.735979406181213,51.48 A 6.08,6.08 0.0 0,0 12.735979406181213,55.349999999999994 A 26.53,26.53 0.0 0,0 13.595979406181213,60.879999999999995 C 13.815979406181214,61.8 14.065979406181214,62.74999999999999 14.345979406181213,63.669999999999995 A 10.13,10.13 0.0 0,1 14.845979406181213,65.86999999999999 C 14.985979406181213,67.72999999999999 15.095979406181213,69.64999999999999 15.425979406181213,71.52 A 3.14,3.14 0.0 0,0 17.855979406181213,74.21 A 6.52,6.52 0.0 0,0 18.935979406181218,74.27 A 3.5,3.5 0.0 0,1 20.435979406181218,74.72 A 7.58,7.58 0.0 0,0 22.775979406181214,75.72 A 0.52,0.52 0.0 0,0 23.275979406181214,76.14 C 23.775979406181214,76.14 24.165979406181215,75.61 24.615979406181218,75.45 C 25.615979406181218,75.08 26.75597940618122,75.36 27.75597940618122,74.92 A 2.88,2.88 0.0 0,0 28.835979406181217,73.92 A 2.48,2.48 0.0 0,0 29.455979406181214,72.92 C 29.705979406181214,71.8 28.925979406181213,71.33 28.25597940618122,70.61 A 7.73,7.73 0.0 0,0 27.25597940618122,69.44 A 7.09,7.09 0.0 0,0 25.75597940618122,68.52 A 1.73,1.73 0.0 0,0 24.585979406181217,68.33 C 24.245979406181213,68.44 23.965979406181212,68.66 23.635979406181214,68.41 A 1.18,1.18 0.0 0,1 23.215979406181212,67.52 A 17.57,17.57 0.0 0,0 22.29597940618121,63.519999999999996 C 21.665979406181215,62.099999999999994 20.525979406181214,60.629999999999995 20.65597940618121,58.989999999999995 A 8.77,8.77 0.0 0,1 22.495979406181213,54.75999999999999 C 23.495979406181213,53.50999999999999 25.275979406181214,52.86999999999999 26.775979406181214,52.30999999999999 A 12.31,12.31 0.0 0,0 27.055979406181216,57.70999999999999 A 37.61,37.61 0.0 0,0 29.055979406181216,64.46999999999998 C 29.305979406181216,65.04999999999998 29.535979406181212,65.60999999999999 29.75597940618121,66.18999999999998 A 3.49,3.49 0.0 0,1 30.015979406181216,67.88 A 7.32,7.32 0.0 0,0 30.175979406181213,70.6 C 30.705979406181214,72.36 32.705979406181214,72.77 34.32597940618122,72.83 A 22.67,22.67 0.0 0,0 37.71597940618122,72.64 A 7.18,7.18 0.0 0,0 40.52597940618122,71.91 A 0.23,0.23 0.0 0,0 40.725979406181224,71.91 A 2.0,2.0 0.0 0,0 41.94597940618122,70.21 A 1.82,1.82 0.0 0,0 41.80597940618122,69.13 A 1.38,1.38 0.0 0,0 41.49597940618122,68.8 A 1.55,1.55 0.0 0,1 41.30597940618122,68.32 A 3.08,3.08 0.0 0,0 39.585979406181224,66.57 A 1.28,1.28 0.0 0,0 38.825979406181226,66.42999999999999 L 38.77597940618123,66.42999999999999 A 1.8,1.8 0.0 0,0 37.77597940618123,66.92999999999999 A 3.49,3.49 0.0 0,1 37.29597940618123,66.07 C 37.07597940618123,65.58999999999999 36.885979406181235,65.07 36.65597940618123,64.58999999999999 A 13.77,13.77 0.0 0,0 35.43597940618123,62.08999999999999 A 10.4,10.4 0.0 0,1 33.87597940618123,59.35999999999999 A 5.07,5.07 0.0 0,1 34.21597940618123,56.10999999999999 A 3.6,3.6 0.0 0,1 36.21597940618123,53.739999999999995 A 11.37,11.37 0.0 0,1 38.915979406181236,53.239999999999995 A 24.09,24.09 0.0 0,0 45.285979406181234,51.709999999999994 A 38.83,38.83 0.0 0,1 49.65597940618123,58.24999999999999 A 50.29,50.29 0.0 0,0 54.015979406181216,64.84 C 54.455979406181214,65.4 54.955979406181214,65.9 55.375979406181216,66.46000000000001 C 55.79597940618122,67.02000000000001 55.515979406181216,67.57000000000001 55.54597940618122,68.13000000000001 A 3.65,3.65 0.0 0,0 56.29597940618122,70.33000000000001 A 9.0,9.0 0.0 0,0 58.165979406181215,72.0 A 31.21,31.21 0.0 0,0 61.555979406181216,74.0 A 43.78,43.78 0.0 0,0 76.01597940618122,78.54 A 47.0,47.0 0.0 0,1 83.35597940618122,79.84 A 9.0,9.0 0.0 0,1 86.75597940618123,81.46000000000001 C 87.58597940618122,82.21000000000001 88.11597940618122,83.13000000000001 89.22597940618122,83.46000000000001 A 11.41,11.41 0.0 0,0 91.03597940618123,83.71000000000001 C 91.87597940618123,83.79 92.73597940618123,83.93 93.56597940618123,84.07000000000001 A 31.19,31.19 0.0 0,1 98.01597940618122,85.3 A 37.41,37.41 0.0 0,1 102.07597940618122,86.86 A 24.67,24.67 0.0 0,1 105.35597940618122,88.86 A 0.29,0.29 0.0 0,0 105.52597940618122,89.11 A 15.85,15.85 0.0 0,0 111.01597940618122,90.92 A 16.39,16.39 0.0 0,1 114.10597940618122,91.75 A 14.35,14.35 0.0 0,0 116.99597940618122,92.53 C 118.94597940618122,92.87 120.64597940618123,93.9 122.58597940618122,94.26 C 123.50597940618123,94.42 124.47597940618122,94.62 125.39597940618123,94.7 A 23.66,23.66 0.0 0,0 128.5459794061812,95.15 L 128.5459794061812,95.15 A 7.31,7.31 0.0 0,0 132.6359794061812,95.34 C 132.7759794061812,95.65 133.1359794061812,95.68 133.5559794061812,95.43 A 14.0,14.0 0.0 0,0 135.1659794061812,93.87 A 11.36,11.36 0.0 0,0 137.3159794061812,91.97 A 3.85,3.85 0.0 0,0 137.83597940618122,88.83 A 1.88,1.88 0.0 0,0 138.0359794061812,87.16 A 4.74,4.74 0.0 0,0 137.2059794061812,86.1 C 137.1459794061812,86.1 137.1159794061812,85.99 137.0659794061812,85.96 A 0.28,0.28 0.0 0,0 136.80597940618122,85.66 L 136.80597940618122,85.66 A 2.88,2.88 0.0 0,0 137.7259794061812,85.13 A 1.84,1.84 0.0 0,0 138.3359794061812,84.0 M 102.86597940618121,74.71000000000001 C 103.09597940618121,74.71000000000001 103.31597940618121,74.71000000000001 103.53597940618121,74.65 C 103.75597940618121,74.59 103.73597940618122,74.65 103.81597940618121,74.65 L 104.14597940618121,74.79 L 105.42597940618121,75.21000000000001 A 10.5,10.5 0.0 0,1 107.90597940618122,76.35000000000001 C 108.34597940618121,76.66000000000001 108.76597940618122,76.96000000000001 109.18597940618122,77.35000000000001 C 109.43597940618122,77.55000000000001 109.62597940618122,77.80000000000001 109.87597940618122,77.99000000000001 C 110.46597940618122,78.44000000000001 111.10597940618122,78.83000000000001 111.68597940618122,79.25000000000001 A 0.29,0.29 0.0 0,0 111.85597940618122,79.52000000000001 A 14.0,14.0 0.0 0,1 113.49597940618122,80.64000000000001 C 114.07597940618122,81.03000000000002 114.72597940618122,81.33000000000001 115.33597940618122,81.64000000000001 C 116.55597940618122,82.33000000000001 117.86597940618122,82.89000000000001 119.11597940618122,83.53000000000002 C 120.36597940618122,84.17000000000002 121.84597940618123,84.87000000000002 123.20597940618123,85.53000000000002 A 29.33,29.33 0.0 0,0 127.01597940618122,87.08 A 10.0,10.0 0.0 0,0 129.2059794061812,87.61 C 129.8459794061812,87.61 130.4559794061812,87.83 131.0959794061812,87.89 A 2.1,2.1 0.0 0,1 130.8759794061812,88.22 A 0.9,0.9 0.0 0,1 130.1259794061812,88.36 A 13.65,13.65 0.0 0,1 128.6559794061812,88.11 A 8.15,8.15 0.0 0,1 127.2559794061812,87.52 C 126.3159794061812,87.13 125.3459794061812,86.86 124.3659794061812,86.52 A 11.93,11.93 0.0 0,1 122.9259794061812,85.96 A 5.76,5.76 0.0 0,0 121.6459794061812,85.46 C 121.1659794061812,85.35 120.6459794061812,85.32 120.2559794061812,85.17999999999999 L 118.8359794061812,84.77 C 117.9159794061812,84.49 116.99597940618119,84.21 116.10597940618119,83.85 A 31.23,31.23 0.0 0,1 111.10597940618119,80.85 C 110.21597940618119,80.22999999999999 109.26597940618119,79.67999999999999 108.32597940618119,79.11999999999999 A 21.17,21.17 0.0 0,0 105.42597940618118,77.58999999999999 C 104.50597940618118,77.22999999999999 103.56597940618119,76.97999999999999 102.67597940618118,76.52999999999999 A 4.53,4.53 0.0 0,1 101.50597940618118,75.71999999999998 A 4.89,4.89 0.0 0,1 100.80597940618118,74.82999999999998 L 102.86597940618121,74.71000000000001"/>
</svg>
