<?xml version="1.0" ?>
<svg xmlns="http://www.w3.org/2000/svg" xmlns:ev="http://www.w3.org/2001/xml-events" xmlns:xlink="http://www.w3.org/1999/xlink" baseProfile="full" height="800" id="Layer_1" style="enable-background:new 0 0 864 864;" transform="scale(0.12853470437017994 0.12853470437017994) translate(-389.0 -400.0)" version="1.1" viewBox="0 0 778 800" width="778" x="0px" xml:space="preserve" y="0px">
	<defs/>
	<path d="M 760.4736726102558,497.42999999999995 C 761.0036726102558,496.75 761.1936726102558,495.9599999999999 761.7236726102558,495.28 C 757.3836726102558,495.3299999999999 753.0236726102557,494.91999999999996 748.7536726102558,494.14 C 750.1836726102557,493.43999999999994 751.6236726102558,492.66999999999996 753.0536726102557,491.97 C 744.5736726102557,491.35 736.1336726102558,490.71000000000004 727.6436726102557,490.09000000000003 C 728.6936726102557,488.99 730.0836726102558,487.9100000000001 731.1336726102558,486.81000000000006 C 724.0336726102557,487.36 717.1336726102558,487.0300000000001 710.1136726102558,485.86 C 710.7836726102557,485.15999999999997 711.8336726102558,484.32000000000005 712.5136726102558,483.62 C 709.5136726102558,483.58000000000004 706.3036726102557,483.58000000000004 703.3036726102557,483.74 C 698.4036726102557,484.0 693.1436726102557,483.53999999999996 689.0036726102558,480.90999999999997 C 688.2936726102557,480.4599999999999 688.4036726102557,479.07 689.2036726102558,478.79999999999995 C 680.6636726102558,477.88999999999993 671.7436726102558,476.67999999999995 664.5336726102558,471.99999999999994 C 654.1136726102559,465.21999999999997 644.1536726102559,457.0299999999999 638.1236726102559,446.1499999999999 C 632.1036726102559,435.2999999999999 624.1136726102559,425.3499999999999 614.8436726102559,417.0899999999999 C 615.9536726102559,416.8699999999999 616.8536726102559,416.93999999999994 617.9536726102559,416.7099999999999 C 615.7036726102559,413.3299999999999 612.5136726102559,410.86999999999995 608.6936726102559,409.4799999999999 C 609.783672610256,409.0199999999999 610.5736726102559,408.1199999999999 611.663672610256,407.6499999999999 C 607.153672610256,404.9099999999999 602.3336726102559,403.06999999999994 597.173672610256,401.9599999999999 C 598.123672610256,401.2399999999999 599.0636726102559,400.56999999999994 600.023672610256,399.8399999999999 C 594.3136726102559,398.3299999999999 588.2036726102559,397.81999999999994 582.463672610256,399.19999999999993 C 583.203672610256,398.31999999999994 583.883672610256,397.38999999999993 584.623672610256,396.49999999999994 C 580.343672610256,396.60999999999996 576.243672610256,396.69999999999993 571.963672610256,396.80999999999995 C 572.8036726102561,395.8399999999999 573.643672610256,394.86999999999995 574.483672610256,393.8999999999999 C 567.433672610256,394.8299999999999 560.353672610256,392.4299999999999 553.363672610256,391.0999999999999 C 541.3036726102561,388.7999999999999 530.223672610256,383.2899999999999 519.443672610256,377.4299999999999 C 510.593672610256,372.6199999999999 503.05367261025606,365.4799999999999 494.6436726102561,359.9899999999999 C 490.92367261025606,357.5699999999999 487.93367261025605,354.26999999999987 485.4836726102561,350.5699999999999 C 484.09367261025614,348.45999999999987 481.2736726102561,347.8699999999999 478.9936726102561,347.1299999999999 C 478.5236726102561,346.9799999999999 478.07367261025615,346.9299999999999 478.2636726102561,346.32999999999987 C 478.3536726102561,346.03999999999985 478.6236726102561,345.7399999999999 478.8836726102561,345.52999999999986 C 479.30367261025606,345.1899999999999 479.58367261025614,344.6999999999999 479.66367261025607,344.16999999999985 C 479.91367261025607,342.40999999999985 478.3836726102561,342.46999999999986 477.4036726102561,342.21999999999986 C 476.6036726102561,342.01999999999987 475.80367261025606,341.82999999999987 474.9836726102561,341.70999999999987 C 473.22367261025613,341.45999999999987 471.3836726102561,341.16999999999985 469.96367261025614,340.08999999999986 C 468.55367261025606,339.01999999999987 467.6436726102561,336.86999999999983 468.6436726102561,335.39999999999986 C 466.34367261025614,333.7599999999999 464.20367261025615,332.3199999999999 461.9036726102561,330.6899999999999 C 462.6536726102561,330.0399999999999 463.44367261025616,329.2899999999999 464.19367261025616,328.6399999999999 C 458.8836726102561,326.21999999999986 452.7536726102561,322.45999999999987 448.2536726102561,318.7399999999999 C 449.4036726102561,317.9299999999999 451.3836726102561,318.6599999999999 451.93367261025617,317.8599999999999 C 449.2336726102561,316.6099999999999 445.4236726102562,314.1899999999999 442.72367261025613,312.9399999999999 C 444.2536726102561,312.71999999999986 445.7636726102562,312.4299999999999 447.30367261025617,312.20999999999987 C 443.7436726102561,310.41999999999985 439.7636726102561,308.59999999999985 437.43367261025617,305.35999999999984 C 434.4036726102562,301.1399999999998 433.08367261025614,295.8799999999998 431.44367261025616,290.9499999999998 C 430.6436726102561,288.5399999999998 430.05367261025617,286.04999999999984 429.7336726102561,283.5299999999998 C 429.5136726102561,281.8299999999998 429.4936726102561,280.1599999999998 429.45367261025615,278.4499999999998 C 429.44367261025616,277.85999999999984 429.2336726102561,276.6299999999998 429.6536726102562,276.1499999999998 C 430.20367261025615,275.5099999999998 431.7636726102562,275.7599999999998 432.5036726102562,275.7099999999998 C 433.6236726102562,275.6299999999998 434.7436726102562,275.5399999999998 435.85367261025624,275.3899999999998 C 436.80367261025617,275.2599999999998 437.7636726102562,275.1499999999998 438.72367261025624,275.0399999999998 C 439.36367261025623,274.9699999999998 440.3736726102562,275.0799999999998 440.8736726102562,274.6099999999998 C 441.4136726102562,274.1199999999998 439.83367261025614,272.4999999999998 439.5036726102562,271.9999999999998 C 438.95367261025615,271.14999999999975 438.4036726102562,270.3099999999998 437.84367261025614,269.45999999999975 C 436.70367261025615,267.7399999999997 435.5236726102562,266.02999999999975 434.2936726102562,264.3699999999998 C 431.1336726102561,260.13999999999976 427.5436726102562,256.1799999999998 423.07367261025615,253.24999999999977 C 417.4036726102561,249.52999999999975 414.2836726102561,242.9199999999998 414.82367261025615,236.1599999999998 C 415.1236726102561,232.4799999999998 415.1036726102561,228.7699999999998 415.4836726102561,225.0999999999998 C 415.6736726102562,223.2799999999998 415.3736726102561,221.4299999999998 414.57367261025615,219.7899999999998 C 413.70367261025615,218.0099999999998 412.44367261025616,216.4799999999998 411.19367261025616,214.95999999999978 C 407.33367261025614,210.27999999999977 403.18367261025617,205.2599999999998 402.47367261025613,199.01999999999978 C 402.05367261025606,195.3899999999998 402.7636726102561,191.77999999999977 403.32367261025615,188.20999999999978 C 403.71367261025614,185.6999999999998 404.34367261025614,182.8899999999998 403.44367261025616,180.42999999999978 C 402.8736726102561,178.87999999999977 401.6436726102561,177.62999999999977 400.06367261025616,177.11999999999978 C 395.1036726102561,175.51999999999978 390.0036726102561,179.02999999999977 387.9836726102561,183.58999999999978 C 386.3536726102561,187.27999999999977 384.69367261025616,190.95999999999978 383.0436726102562,194.6399999999998 C 382.05367261025617,196.83999999999978 381.06367261025616,199.0399999999998 380.08367261025614,201.23999999999978 C 379.2336726102561,203.1399999999998 378.2936726102562,205.01999999999978 377.57367261025615,206.9799999999998 C 377.3536726102561,207.5699999999998 377.1436726102562,207.8399999999998 376.6436726102562,207.32999999999979 C 373.6636726102562,204.30999999999977 371.1236726102562,201.0699999999998 369.21367261025614,197.24999999999977 C 369.09367261025614,197.00999999999976 369.1336726102562,196.71999999999977 369.32367261025615,196.51999999999978 C 370.2836726102562,195.49999999999977 371.4036726102562,194.23999999999978 372.43367261025617,193.11999999999978 C 372.5336726102562,193.00999999999976 372.44367261025616,192.82999999999979 372.2936726102562,192.83999999999978 C 370.68367261025617,193.02999999999977 368.96367261025625,193.24999999999977 367.35367261025624,193.43999999999977 C 367.11367261025623,193.46999999999977 366.8836726102562,193.34999999999977 366.7436726102562,193.14999999999978 C 365.8836726102562,191.8899999999998 364.48367261025624,190.99999999999977 362.96367261025625,190.8899999999998 C 361.2936726102562,190.76999999999978 359.57367261025627,191.4499999999998 358.4436726102563,192.6899999999998 C 357.7936726102563,193.3999999999998 357.4036726102562,194.2999999999998 357.23367261025624,195.2399999999998 C 355.57367261025627,204.3399999999998 355.72367261025624,213.9899999999998 356.4936726102562,223.2399999999998 C 357.3736726102562,233.81999999999982 355.4236726102563,244.18999999999983 353.7736726102562,254.67999999999984 C 351.5036726102562,269.1399999999998 348.3736726102562,283.8299999999998 342.0436726102562,297.02999999999986 C 337.47367261025624,306.55999999999983 333.0236726102562,315.85999999999984 328.45367261025626,325.3899999999999 C 330.9236726102563,325.2999999999999 333.46367261025625,324.83999999999986 335.6636726102562,323.71999999999986 C 334.98367261025624,328.6399999999999 333.7536726102562,333.45999999999987 332.5336726102562,338.26999999999987 C 331.4936726102562,342.34999999999985 331.3736726102562,346.2399999999999 330.33367261025626,350.3199999999999 C 331.5636726102563,349.40999999999985 332.86367261025623,348.7399999999999 334.09367261025625,347.82999999999987 C 332.95367261025626,353.3199999999999 332.1736726102562,358.7399999999999 331.0436726102562,364.22999999999985 C 332.60367261025624,363.42999999999984 334.1736726102562,362.41999999999985 335.73367261025624,361.61999999999983 C 334.60367261025624,367.34999999999985 333.8836726102562,373.1399999999998 332.7436726102562,378.86999999999983 C 333.85367261025624,377.79999999999984 335.0236726102562,376.61999999999983 336.1336726102562,375.54999999999984 C 335.6736726102562,378.54999999999984 335.47367261025613,381.41999999999985 335.0036726102562,384.41999999999985 C 336.0036726102562,384.46999999999986 337.35367261025624,384.21999999999986 338.35367261025624,384.26999999999987 C 336.97367261025624,387.51999999999987 336.47367261025624,390.9499999999999 336.6536726102562,394.47999999999985 C 337.48367261025624,393.42999999999984 338.9036726102562,392.78999999999985 340.2436726102562,392.77999999999986 C 339.22367261025624,396.45999999999987 338.8836726102562,400.20999999999987 338.95367261025615,404.02999999999986 C 340.43367261025617,403.6899999999999 342.06367261025616,403.2599999999999 343.5436726102562,402.92999999999984 C 343.47367261025613,404.54999999999984 343.5036726102561,406.16999999999985 343.6136726102561,407.77999999999986 C 343.71367261025614,409.17999999999984 343.93367261025617,410.5699999999999 344.1336726102561,411.95999999999987 C 344.30367261025617,413.14999999999986 344.4836726102561,414.41999999999985 344.96367261025614,415.52999999999986 C 345.17367261025606,416.0099999999999 345.5136726102561,416.47999999999985 345.7836726102561,416.92999999999984 C 345.7836726102561,416.92999999999984 348.82367261025615,414.67999999999984 349.3736726102561,414.5199999999998 C 349.72367261025613,415.6699999999998 349.7536726102561,417.0099999999998 349.95367261025604,418.1899999999998 C 350.16367261025607,419.4599999999998 350.3936726102561,420.72999999999985 350.6136726102561,421.99999999999983 C 350.83367261025614,423.23999999999984 351.04367261025607,424.46999999999986 351.2436726102561,425.7099999999998 C 351.34367261025614,426.30999999999983 351.44367261025604,426.9099999999998 351.5336726102561,427.5199999999998 C 351.57367261025615,427.74999999999983 351.92367261025606,429.0899999999998 351.7836726102561,429.2199999999998 C 352.7836726102561,428.2099999999998 354.0336726102561,427.0799999999998 355.0336726102561,426.0699999999998 C 355.3836726102561,429.2099999999998 355.82367261025615,432.3499999999998 356.17367261025606,435.48999999999984 C 357.2536726102561,433.23999999999984 358.3636726102561,431.52999999999986 359.44367261025604,429.27999999999986 C 359.4936726102561,434.4399999999999 359.56367261025605,439.7599999999999 359.5236726102561,444.91999999999985 C 359.5036726102561,446.86999999999983 359.69367261025604,448.80999999999983 360.1536726102561,450.70999999999987 C 361.1436726102561,454.76999999999987 361.493672610256,459.35999999999984 362.6336726102561,463.4499999999999 C 364.3536726102561,469.6099999999999 367.95367261025604,476.03999999999985 367.723672610256,482.4399999999998 C 367.503672610256,488.4799999999998 367.0136726102561,494.3399999999998 366.0236726102561,500.29999999999984 C 364.4036726102561,510.0899999999998 362.0336726102561,519.9399999999998 361.0036726102561,529.8199999999998 C 360.04367261025607,539.0399999999998 358.0036726102561,548.1199999999998 355.16367261025607,556.9499999999998 C 353.91367261025607,560.8499999999998 352.6336726102561,564.7499999999998 351.3636726102561,568.6399999999999 C 350.1536726102561,572.3599999999999 348.9036726102561,576.0399999999998 347.7836726102561,579.7799999999999 C 347.70367261025615,580.0499999999998 347.59367261025614,580.2799999999999 347.47367261025613,580.4799999999999 C 338.04367261025607,578.1499999999999 327.7736726102561,579.3599999999999 319.17367261025606,583.8799999999999 C 307.45367261025604,590.0299999999999 304.2736726102561,600.0799999999999 294.22367261025613,607.5799999999999 C 285.2636726102561,614.29 274.92367261025606,620.77 267.33367261025614,629.3599999999999 C 267.32367261025615,629.3499999999999 267.31367261025616,629.3399999999999 267.30367261025617,629.3299999999999 C 234.69367261025613,604.5799999999999 206.70367261025615,574.4399999999999 184.11367261025615,539.7299999999999 C 132.11367261025615,459.8399999999999 114.34367261025616,364.4799999999999 134.07367261025615,271.2199999999999 C 153.82367261025576,178.01 208.68367261025574,98.00999999999999 288.5836726102558,46.02 C 319.40367261025574,25.96 352.8436726102558,10.850000000000001 387.99367261025577,1.1000000000000014 L 391.9536726102557,0.0 L 387.8436726102557,0.11999999999999744 C 314.65367261025574,2.210000000000001 243.37367261025574,24.529999999999994 181.70367261025572,64.66999999999999 C 136.49367261025571,94.09 98.40367261025571,131.48000000000002 68.47367261025572,175.81 C 39.57367261025573,218.63 19.47367261025572,266.08 8.733672610255717,316.85 C -2.0063273897442855,367.62 -2.846327389744282,419.14000000000004 6.2436726102557145,470.0 C 15.653672610255711,522.65 35.33367261025572,572.26 64.76367261025572,617.47 C 88.46367261025571,653.91 117.60367261025573,685.95 151.36367261025572,712.7 C 155.16367261025573,715.72 158.94367261025573,718.62 162.60367261025573,721.3000000000001 C 227.39367261025572,769.0200000000001 304.3336726102557,795.84 385.0936726102558,798.85 C 390.12367261025577,799.0400000000001 395.14367261025575,799.13 400.15367261025574,799.13 C 477.42367261025584,799.13 552.2936726102557,776.89 617.5636726102558,734.41 C 622.5136726102559,731.1899999999999 627.3436726102558,727.89 631.9236726102558,724.61 C 637.9436726102558,720.33 643.9436726102558,715.8000000000001 649.7536726102559,711.13 L 649.9036726102559,711.02 C 651.8736726102559,709.4499999999999 653.9336726102558,707.77 656.5836726102558,705.56 C 668.1736726102558,695.8499999999999 679.3036726102558,685.39 689.6636726102558,674.4699999999999 C 718.3636726102559,644.2599999999999 742.0536726102558,609.81 760.0636726102558,572.0699999999999 L 761.8336726102558,568.3499999999999 L 759.2236726102558,571.5299999999999 C 736.1336726102558,599.6799999999998 708.7736726102557,624.1399999999999 677.9136726102558,644.2399999999999 C 670.5736726102558,649.0099999999999 663.0636726102558,653.5199999999999 655.6036726102559,657.6399999999999 C 655.5136726102559,652.6199999999999 655.7136726102559,647.4299999999998 655.0036726102559,642.4699999999999 C 653.4036726102559,631.2599999999999 651.5936726102559,619.9499999999999 650.7336726102559,608.66 C 650.3636726102559,603.81 650.053672610256,598.9599999999999 649.9036726102559,594.0899999999999 C 649.8336726102558,591.7399999999999 649.7036726102558,589.3499999999999 649.7836726102558,586.9999999999999 C 649.8536726102559,585.0699999999999 650.1536726102559,583.3099999999998 649.3936726102559,581.4299999999998 C 648.4836726102559,579.1799999999998 646.7036726102558,577.3599999999998 645.4136726102558,575.3199999999998 C 643.2536726102559,571.8899999999999 641.0136726102559,568.7299999999998 639.0936726102558,565.1599999999999 C 637.0136726102558,561.2799999999999 634.9236726102558,557.4099999999999 632.9236726102558,553.4899999999999 C 630.5136726102559,548.7699999999999 629.0536726102558,543.1099999999999 627.8936726102559,537.9399999999999 C 625.8036726102558,528.68 626.0336726102558,518.8499999999999 627.2736726102559,509.53 C 627.4936726102559,507.88 627.8036726102558,506.24 628.0736726102558,504.5899999999999 C 628.2636726102559,503.3799999999999 628.1836726102558,501.0899999999999 629.2736726102559,500.3299999999999 C 630.3336726102558,499.5899999999999 632.3736726102559,500.68999999999994 633.4136726102558,501.2099999999999 C 636.4936726102559,502.7399999999999 639.1836726102558,505.26999999999987 641.0836726102558,508.1299999999999 C 642.5836726102558,510.3899999999999 643.8836726102558,512.8999999999999 646.2736726102559,514.1799999999998 C 645.8936726102559,511.80999999999983 645.8136726102558,509.7199999999998 645.4336726102558,507.3499999999998 C 648.2636726102559,512.6999999999998 670.6136726102558,525.2199999999998 670.6136726102558,525.2199999999998 C 670.6136726102558,525.2199999999998 664.9536726102558,517.2899999999998 664.8436726102558,516.9399999999998 C 673.0636726102558,521.4399999999998 681.8536726102558,524.8599999999998 690.7936726102558,527.6799999999998 C 689.4436726102558,526.1299999999999 688.8336726102558,524.3899999999999 688.5136726102559,522.3599999999998 C 693.6536726102559,524.7899999999997 699.3736726102559,526.5699999999998 704.8636726102559,528.0599999999998 C 703.8136726102559,526.6299999999999 702.9336726102559,525.2699999999999 701.8836726102559,523.8399999999998 C 708.2836726102558,526.1699999999998 714.7636726102559,528.0199999999998 721.1536726102559,530.3399999999998 C 720.1636726102558,529.0699999999998 719.3036726102558,527.8299999999998 718.3136726102558,526.5599999999998 C 722.6036726102558,527.7799999999999 726.9536726102558,528.1699999999998 731.4036726102559,527.9599999999998 C 730.6136726102559,526.2899999999998 729.8536726102559,524.5599999999998 729.0536726102558,522.8899999999998 C 734.8236726102558,524.4199999999997 740.7536726102559,525.2799999999997 746.7336726102558,525.3899999999998 C 743.8836726102558,524.0199999999998 741.5536726102558,521.9799999999998 739.8036726102558,519.3399999999998 C 745.2936726102558,520.1499999999997 750.5736726102558,520.0699999999998 756.1136726102558,519.7199999999998 C 754.3836726102558,518.8299999999998 752.9536726102558,517.3599999999998 752.1636726102557,515.5799999999998 C 757.1736726102557,515.4799999999998 762.2436726102558,513.9699999999998 766.7036726102557,511.6899999999998 C 765.1436726102557,510.76999999999987 763.6636726102557,509.6999999999998 762.1136726102557,508.76999999999987 C 765.6936726102557,507.15999999999985 769.2736726102556,505.53999999999985 772.8536726102557,503.92999999999984 C 774.6736726102557,503.1099999999998 776.9536726102557,502.03999999999985 777.4436726102557,500.0999999999998 C 772.0536726102558,498.47 766.0936726102558,497.69000000000005 760.4736726102558,497.42999999999995 M 412.00367261025576,592.0600000000001 C 416.28367261025573,585.72 420.4536726102557,579.2900000000001 424.0836726102557,572.5500000000001 C 425.1736726102557,570.61 426.25367261025576,568.6700000000001 427.3436726102557,566.73 C 429.5536726102557,562.9300000000001 431.3136726102557,558.8100000000001 431.39367261025575,554.37 C 431.53367261025573,547.05 432.3336726102557,539.77 433.3436726102557,532.52 C 435.10367261025567,519.89 436.86367261025566,507.12 438.87367261025565,494.54999999999995 C 439.5936726102557,490.0899999999999 440.3036726102557,485.62 441.02367261025563,481.15999999999997 C 441.2036726102557,480.06999999999994 441.52367261025563,478.99999999999994 442.0636726102557,478.03 C 444.64367261025563,473.36999999999995 449.5836726102557,473.67999999999995 453.6936726102557,474.71999999999997 C 457.99367261025566,475.79999999999995 462.24367261025566,477.09999999999997 466.4336726102557,478.54999999999995 C 473.14367261025575,480.88 479.74367261025566,483.5 486.2236726102557,486.4 C 491.4436726102557,488.74 497.86367261025566,491.0799999999999 499.88367261025564,497.04999999999995 C 502.13367261025564,503.69999999999993 504.38367261025564,510.3499999999999 506.63367261025564,517.0 C 507.6836726102556,520.09 509.2136726102557,523.21 510.4136726102556,526.24 C 512.5836726102556,531.73 514.7436726102557,537.21 516.9136726102556,542.7 C 519.5136726102556,549.2900000000001 522.4236726102556,556.2 527.7236726102556,560.9100000000001 C 537.3336726102556,569.45 546.8236726102556,578.57 557.0236726102555,586.3800000000001 C 565.6436726102555,592.9800000000001 570.0436726102555,603.7200000000001 568.2636726102555,614.4200000000001 C 566.7236726102556,623.6600000000001 564.5836726102556,632.8900000000001 563.5036726102555,642.19 C 563.3436726102556,643.5200000000001 563.5136726102555,644.6500000000001 562.2636726102555,645.4300000000001 C 561.4036726102555,645.97 560.3536726102556,646.11 559.4836726102556,646.6200000000001 C 559.4836726102556,646.6200000000001 559.4736726102556,646.6200000000001 559.4736726102556,646.6100000000001 C 557.7036726102556,645.9300000000002 555.9136726102556,645.2300000000001 554.0136726102555,644.5500000000002 C 546.9636726102556,642.0100000000002 537.9536726102556,636.3700000000002 530.1736726102555,637.1200000000002 C 518.2636726102555,638.3100000000003 507.58367261025546,639.3000000000002 498.0136726102555,630.5200000000002 C 491.0536726102555,624.1200000000002 481.09367261025557,621.4200000000002 472.25367261025553,618.2300000000002 C 468.6436726102555,616.9200000000003 465.0136726102555,615.6200000000002 461.3936726102555,614.3200000000003 C 458.71367261025546,613.3500000000003 455.95367261025547,611.6400000000003 453.2636726102555,610.9400000000003 C 450.0536726102555,610.0900000000003 446.1936726102555,610.6500000000003 442.85367261025544,610.0600000000003 C 439.4436726102555,609.4700000000003 436.09367261025545,608.5100000000003 432.8936726102555,607.2300000000002 C 425.4136726102555,604.2400000000002 418.7836726102555,599.5300000000002 411.9036726102555,595.3500000000003 C 411.4136726102555,595.0500000000003 410.9036726102555,594.7300000000002 410.4036726102555,594.4000000000002 C 410.4036726102555,594.4000000000002 410.4036726102555,594.4000000000002 410.4036726102555,594.4000000000002 C 410.9436726102557,593.62 411.4736726102558,592.84 412.00367261025576,592.0600000000001 M 369.37367261025577,577.16 C 371.77367261025574,569.42 376.14367261025575,562.28 380.38367261025576,555.3399999999999 C 383.0636726102557,550.9499999999999 384.8336726102557,546.0699999999999 385.63367261025576,540.9899999999999 C 387.4436726102557,529.4099999999999 389.50367261025576,517.8599999999999 391.3036726102557,506.27999999999986 C 392.16367261025573,500.77999999999986 393.5436726102557,495.3699999999999 395.38367261025576,490.1099999999999 C 396.1736726102557,487.8599999999999 397.16367261025573,485.68999999999994 397.9636726102557,483.44999999999993 C 398.6936726102557,481.41999999999996 399.0636726102557,479.16999999999996 400.4236726102557,477.43999999999994 C 401.73367261025567,475.7699999999999 403.5836726102557,476.66999999999996 405.1736726102557,477.3299999999999 C 406.8336726102557,478.0199999999999 409.0436726102557,478.4199999999999 410.23367261025567,479.8899999999999 C 411.3336726102557,481.2499999999999 410.5436726102557,484.26999999999987 410.4536726102557,485.8699999999999 C 410.3136726102557,488.3499999999999 410.16367261025573,490.8299999999999 410.0436726102557,493.30999999999995 C 409.5536726102557,503.2399999999999 408.48367261025567,513.51 408.50367261025565,523.4499999999999 C 408.52367261025563,535.0099999999999 410.10367261025567,547.0099999999999 405.36367261025566,557.55 C 404.2236726102557,560.0899999999999 403.0636726102557,562.63 401.90367261025574,565.17 C 399.89367261025575,569.56 397.86367261025566,573.9399999999999 395.8436726102557,578.3199999999999 C 394.8336726102557,580.51 393.8336726102557,582.6999999999999 392.8336726102557,584.89 C 392.5936726102557,585.42 392.35367261025567,585.9499999999999 392.12367261025577,586.48 C 392.12367261025577,586.48 392.12367261025577,586.48 392.1136726102558,586.48 C 391.3436726102558,586.59 390.5736726102557,586.8000000000001 389.8136726102557,587.11 C 383.24367261025577,589.8100000000001 375.7936726102557,590.34 368.91367261025573,588.57 C 367.6136726102558,588.24 366.3336726102558,587.82 365.0736726102558,587.36 C 365.0736726102558,587.36 365.0636726102558,587.36 365.0636726102558,587.36 C 366.7336726102558,584.07 368.27367261025574,580.7 369.37367261025577,577.16 M 631.6136726102558,619.55 C 632.2136726102558,629.52 632.2636726102558,639.55 633.1236726102558,649.5 C 633.2336726102558,650.73 633.6136726102558,651.98 633.4836726102558,653.21 C 633.2836726102557,655.14 631.3036726102558,656.33 629.9536726102558,657.75 C 629.9536726102558,657.75 629.9536726102558,657.75 629.9536726102558,657.75 L 629.9436726102558,657.75 C 626.4936726102558,656.95 622.9836726102558,656.15 619.4236726102558,655.29 C 614.5636726102558,654.12 609.6836726102558,652.93 604.8636726102559,651.5799999999999 C 596.7336726102559,649.29 588.4136726102558,650.7199999999999 580.0336726102558,650.9699999999999 C 581.1736726102558,646.41 582.8136726102558,641.66 583.6236726102559,636.9499999999999 C 584.5036726102559,631.8199999999999 586.1736726102558,626.6899999999999 587.4136726102558,621.6199999999999 C 588.7236726102558,616.2699999999999 590.0336726102558,610.9299999999998 591.3736726102559,605.5799999999999 C 591.9236726102558,603.3899999999999 593.0536726102558,601.05 592.1236726102559,598.8299999999999 C 591.5436726102558,597.4399999999999 590.5336726102558,596.2299999999999 589.8336726102559,594.9 C 589.0136726102559,593.35 588.2336726102559,591.79 587.4836726102559,590.2099999999999 C 585.8736726102559,586.8299999999999 584.4036726102559,583.3799999999999 583.0636726102559,579.8899999999999 C 581.523672610256,575.8599999999999 580.163672610256,571.7699999999999 578.9436726102559,567.6399999999999 C 578.3336726102559,565.5699999999998 577.773672610256,563.4899999999999 577.2336726102559,561.3999999999999 C 576.9636726102559,560.3599999999999 576.7136726102559,559.3099999999998 576.4636726102559,558.2599999999999 C 576.3336726102559,557.7199999999999 575.1836726102559,555.4399999999998 576.4736726102559,555.5299999999999 C 578.7436726102559,555.6799999999998 581.2736726102559,557.0199999999999 583.3436726102559,557.9299999999998 C 585.7136726102559,558.9699999999998 587.9936726102559,560.2599999999999 589.9936726102559,561.9099999999999 C 599.7036726102559,569.9099999999999 609.2936726102558,578.4199999999998 617.5136726102559,587.9499999999998 C 625.0636726102558,596.71 630.9136726102557,608.01 631.6136726102558,619.55"/>
</svg>
