<?xml version="1.0" ?>
<svg xmlns="http://www.w3.org/2000/svg" xmlns:ev="http://www.w3.org/2001/xml-events" xmlns:xlink="http://www.w3.org/1999/xlink" baseProfile="full" height="120" transform="scale(0.8695652173913043 0.8695652173913043) translate(-57.5 -60.0)" version="1.1" viewBox="0 0 115 120" width="115">
	<defs/>
	<path d="M 1.1278572222333825,119.1 C 0.8078572222333824,116.91999999999999 0.48785722223338246,114.71 0.12785722223338247,112.53 A 3.16,3.16 0.0 0,1 0.8078572222333825,109.53 C 1.2578572222333826,109.03 1.5278572222333824,108.44 1.9778572222333826,108.03 C 4.467857222233382,105.72 4.467857222233382,102.87 3.9778572222333826,99.84 A 28.0,28.0 0.0 0,1 3.8378572222333824,96.4 C 5.8378572222333815,93.81 7.917857222233382,91.19000000000001 9.997857222233382,88.61 A 2.64,2.64 0.0 0,1 11.757857222233381,87.83 A 9.0,9.0 0.0 0,0 16.55785722223338,86.57 C 19.907857222233382,84.57 23.44785722223338,82.66999999999999 26.88785722223338,80.77 C 28.247857222233378,81.03999999999999 29.55785722223338,81.36 30.88785722223338,81.63 C 31.607857222233378,81.77 32.42785722223338,81.89999999999999 32.51785722223338,80.77 A 2.41,2.41 0.0 0,1 32.607857222233385,80.17999999999999 C 32.73785722223339,77.17999999999999 33.37785722223339,74.11999999999999 32.87785722223339,71.17999999999999 C 32.287857222233384,67.86999999999999 30.707857222233386,64.78999999999999 29.56785722223339,61.57999999999999 C 29.07785722223339,59.39999999999999 28.61785722223339,57.17999999999999 28.16785722223339,55.00999999999999 L 27.75785722223339,55.00999999999999 L 26.53785722223339,57.00999999999999 C 26.857857222233392,55.06999999999999 25.317857222233393,54.51999999999999 24.53785722223339,53.47999999999999 C 24.30785722223339,52.889999999999986 24.087857222233392,52.25999999999999 23.94785722223339,51.84999999999999 C 23.857857222233392,52.02999999999999 23.71785722223339,52.47999999999999 23.44785722223339,53.11999999999999 A 19.32,19.32 0.0 0,1 21.817857222233393,49.71999999999999 A 22.62,22.62 0.0 0,1 21.547857222233393,45.71999999999999 C 21.317857222233393,45.93999999999999 21.047857222233393,46.169999999999995 20.737857222233394,46.489999999999995 C 20.687857222233394,45.71999999999999 20.637857222233393,45.129999999999995 20.597857222233394,44.489999999999995 C 20.187857222233394,44.58 19.867857222233393,44.669999999999995 19.597857222233394,44.76 C 19.507857222233394,44.669999999999995 19.417857222233394,44.53 19.327857222233394,44.44 C 19.957857222233393,42.5 19.907857222233392,42.44 17.647857222233394,42.44 C 18.007857222233394,41.989999999999995 18.377857222233395,41.58 18.737857222233394,41.129999999999995 C 18.327857222233394,39.99999999999999 17.197857222233395,38.87 19.097857222233394,37.419999999999995 C 18.097857222233394,37.599999999999994 17.697857222233395,37.69 16.967857222233395,37.82999999999999 A 13.88,13.88 0.0 0,1 17.877857222233395,36.55999999999999 A 9.0,9.0 0.0 0,1 18.877857222233395,35.69999999999999 C 18.787857222233395,35.55999999999999 18.747857222233396,35.429999999999986 18.657857222233396,35.28999999999999 C 18.107857222233395,35.559999999999995 17.567857222233396,35.78999999999999 16.977857222233396,36.059999999999995 A 4.34,4.34 0.0 0,1 17.157857222233396,35.28999999999999 A 1.85,1.85 0.0 0,1 17.337857222233396,34.78999999999999 C 17.747857222233396,34.60999999999999 18.157857222233396,34.379999999999995 18.607857222233395,34.19999999999999 L 18.607857222233395,33.70999999999999 L 16.837857222233396,33.569999999999986 C 16.837857222233396,32.47999999999998 16.837857222233396,32.47999999999998 18.247857222233396,31.939999999999987 C 17.977857222233396,30.12999999999999 17.707857222233397,28.319999999999986 17.477857222233396,26.459999999999987 L 16.067857222233382,26.459999999999987 C 16.92785722223338,25.279999999999987 17.69785722223338,24.239999999999988 18.46785722223338,23.19999999999999 C 18.14785722223338,23.10999999999999 17.87785722223338,23.01999999999999 17.60785722223338,22.92999999999999 C 18.23785722223338,21.92999999999999 19.55785722223338,21.38999999999999 19.28785722223338,19.92999999999999 C 18.55785722223338,15.94 17.977857222233382,12.0 17.10785722223338,8.2 A 5.69,5.69 0.0 0,1 17.37785722223338,4.199999999999999 C 18.05785722223338,4.109999999999999 18.73785722223338,4.02 19.19785722223338,3.9299999999999993 C 19.68785722223338,3.0299999999999994 20.19785722223338,2.119999999999999 20.59785722223338,1.2199999999999993 C 21.187857222233383,0.72 21.817857222233382,0.32 22.17785722223338,0.0 C 24.03785722223338,2.53 25.80785722223338,4.89 27.52785722223338,7.29 L 27.61785722223338,7.38 C 28.107857222233378,7.79 28.517857222233378,8.47 29.06785722223338,8.6 C 31.50785722223338,9.19 32.27785722223338,11.14 32.99785722223338,13.129999999999999 A 7.53,7.53 0.0 0,0 36.44785722223338,17.57 A 8.0,8.0 0.0 0,1 39.61785722223338,21.87 C 38.207857222233386,21.73 37.12785722223338,21.650000000000002 36.07785722223338,21.51 A 1.0,1.0 0.0 0,1 35.80785722223338,21.73 C 36.57785722223338,22.55 37.397857222233384,23.36 38.16785722223338,24.18 C 38.25785722223338,24.63 38.29785722223338,25.04 38.34785722223338,25.31 C 39.70785722223338,26.36 40.97785722223338,27.31 42.46785722223338,28.479999999999997 A 3.94,3.94 0.0 0,0 42.46785722223338,29.029999999999998 A 4.5,4.5 0.0 0,1 43.55785722223338,29.519999999999996 C 43.42785722223338,30.569999999999997 44.23785722223338,30.379999999999995 44.77785722223338,30.519999999999996 C 45.507857222233376,31.829999999999995 46.22785722223338,33.15 46.99785722223338,34.519999999999996 A 5.3,5.3 0.0 0,1 51.70785722223338,36.239999999999995 C 52.24785722223338,36.739999999999995 52.83785722223338,37.19 53.42785722223338,37.64999999999999 C 53.837857222233374,38.04999999999999 54.24785722223338,38.40999999999999 54.69785722223338,38.81999999999999 C 56.86785722223338,40.71 58.97785722223338,42.66 61.97785722223338,43.0 A 2.35,2.35 0.0 0,1 62.567857222233386,43.05 A 0.79,0.79 0.0 0,0 62.97785722223338,43.23 C 66.72785722223338,43.82 70.66785722223338,43.91 73.92785722223338,46.349999999999994 C 74.52785722223338,47.68 74.97785722223338,49.0 76.97785722223338,49.09 A 8.11,8.11 0.0 0,1 83.90785722223339,53.25 C 84.5878572222334,54.43 85.17785722223338,55.61 85.8078572222334,56.79 Q 88.32785722223339,61.129999999999995 90.8078572222334,65.48 C 91.8078572222334,66.48 92.8878572222334,67.34 93.9278572222334,68.29 C 95.5178572222334,68.60000000000001 97.0578572222334,68.97000000000001 98.6378572222334,69.29 C 98.8178572222334,69.29 99.04785722223339,69.29 99.2278572222334,69.29 C 100.99785722223339,69.29 102.71785722223339,69.38000000000001 104.4778572222334,69.47000000000001 L 110.0978572222334,69.47000000000001 C 108.3278572222334,71.64000000000001 106.9678572222334,73.86000000000001 104.2578572222334,74.86000000000001 A 2.27,2.27 0.0 0,1 101.2578572222334,76.54000000000002 C 100.6678572222334,76.40000000000002 99.8078572222334,75.95000000000002 100.35785722223339,77.26000000000002 L 97.45785722223339,76.44000000000003 C 97.45785722223339,76.81000000000003 97.45785722223339,77.12000000000003 97.36785722223338,77.53000000000003 C 96.50785722223338,77.21000000000004 95.68785722223338,76.94000000000003 94.73785722223339,76.58000000000003 C 94.73785722223339,76.99000000000002 94.73785722223339,77.31000000000003 94.64785722223338,77.58000000000003 L 94.37785722223339,77.58000000000003 C 93.37785722223339,77.08000000000003 92.51785722223339,76.58000000000003 91.5278572222334,75.99000000000002 C 91.43785722223339,76.40000000000002 91.3878572222334,76.67000000000003 91.29785722223339,77.08000000000003 C 90.61785722223338,76.49000000000002 90.0278572222334,75.95000000000003 89.4478572222334,75.45000000000003 A 12.38,12.38 0.0 0,0 88.5378572222334,76.31000000000003 C 86.9578572222334,74.36000000000003 85.5378572222334,72.55000000000003 83.7378572222334,70.42000000000003 C 83.7378572222334,73.42000000000003 84.5478572222334,75.42000000000003 86.5478572222334,76.99000000000004 C 86.7678572222334,77.12000000000003 87.0378572222334,77.26000000000003 87.22785722223341,77.40000000000003 C 87.22785722223341,77.49000000000004 87.22785722223341,77.53000000000003 87.3578572222334,77.53000000000003 C 87.80785722223341,77.62000000000003 88.2678572222334,77.76000000000003 88.7178572222334,77.85000000000002 A 0.49,0.49 0.0 0,0 88.9878572222334,77.98000000000002 A 4.52,4.52 0.0 0,0 89.0778572222334,78.76000000000002 C 89.3478572222334,81.47000000000001 89.66785722223341,84.14000000000001 89.9378572222334,86.86000000000001 C 89.9378572222334,87.04000000000002 89.9378572222334,87.27000000000001 89.9378572222334,87.45000000000002 C 90.33785722223341,88.63000000000002 90.7078572222334,89.80000000000001 91.0678572222334,90.98000000000002 A 11.35,11.35 0.0 0,0 92.3378572222334,94.11000000000001 A 4.6,4.6 0.0 0,1 92.7378572222334,99.11000000000001 A 14.54,14.54 0.0 0,0 92.2478572222334,100.97000000000001 C 94.41785722223341,101.56000000000002 96.4578572222334,102.06000000000002 98.4978572222334,102.74000000000001 A 4.82,4.82 0.0 0,1 100.61785722223341,104.14000000000001 C 102.97785722223341,107.08000000000001 105.3278572222334,110.07000000000002 107.5478572222334,113.06000000000002 A 4.56,4.56 0.0 0,0 110.5478572222334,115.01000000000002 C 112.44785722223341,115.32000000000002 113.3478572222334,116.64000000000001 114.02785722223341,118.40000000000002 C 112.17785722223341,118.49000000000002 110.4078572222334,118.63000000000002 108.63785722223341,118.72000000000001 L 101.4878572222334,118.72000000000001 C 97.0078572222334,118.72000000000001 92.4878572222334,118.72000000000001 88.0378572222334,118.72000000000001 Q 68.4778572222334,118.72000000000001 48.9178572222334,118.81000000000002 L 16.477857222233382,118.81000000000002 C 15.117857222233383,118.81000000000002 13.807857222233382,118.72000000000001 12.477857222233382,118.81000000000002 C 11.147857222233382,118.90000000000002 9.757857222233381,118.99000000000002 8.397857222233382,119.08000000000001 L 1.2178572222333826,119.08000000000001 C 1.2178572222333826,119.28 1.1678572222333825,119.19 1.1278572222333825,119.1 M 80.97785722223338,97.31 C 81.87785722223339,97.54 82.78785722223338,97.81 83.64785722223338,98.04 L 87.12785722223339,99.63000000000001 C 87.04785722223339,97.9 86.94785722223338,96.68 86.85785722223339,95.41000000000001 C 86.49785722223339,93.83000000000001 86.1378572222334,92.24000000000001 85.7778572222334,90.70000000000002 A 7.0,7.0 0.0 0,0 85.40785722223339,89.84000000000002 C 84.40785722223339,87.94000000000001 83.50785722223338,85.99000000000002 82.5578572222334,84.09000000000002 L 82.46785722223339,84.09000000000002 L 82.46785722223339,84.09000000000002 C 82.3678572222334,83.91000000000001 82.23785722223339,83.73000000000002 82.1478572222334,83.55000000000001 C 80.3778572222334,80.33000000000001 76.9378572222334,79.38000000000001 74.1478572222334,77.48000000000002 C 72.96785722223339,79.93000000000002 74.0578572222334,83.78000000000002 76.3678572222334,85.68000000000002 A 3.49,3.49 0.0 0,1 76.3678572222334,86.40000000000002 C 75.8778572222334,89.07000000000002 75.3678572222334,91.79000000000002 74.9178572222334,94.46000000000002 C 74.73785722223339,95.37000000000002 75.10785722223339,95.91000000000003 76.0978572222334,95.82000000000002 A 3.59,3.59 0.0 0,0 76.6878572222334,96.05000000000003 C 78.23785722223339,96.45 79.59785722223339,96.91 80.97785722223338,97.31 M 70.31785722223339,90.39 C 70.08785722223338,88.85 69.85785722223339,87.39 69.63785722223338,85.81 A 0.58,0.58 0.0 0,1 69.54785722223338,85.54 C 69.31785722223337,85.31 69.13785722223338,85.09 68.90785722223337,84.86 C 66.37785722223337,82.23 63.837857222233374,79.56 61.257857222233376,76.94 C 60.577857222233376,75.35 59.89785722223338,73.72 59.17785722223338,72.14 C 59.087857222233374,71.82000000000001 58.99785722223338,71.55 58.907857222233375,71.23 C 58.49785722223338,69.60000000000001 58.047857222233375,68.02000000000001 57.727857222233375,66.39 A 2.64,2.64 0.0 0,0 55.727857222233375,64.21 A 1.66,1.66 0.0 0,0 55.27785722223337,64.21 C 55.27785722223337,64.58 55.367857222233376,64.89 55.367857222233376,64.89 C 54.867857222233376,65.25 54.59785722223337,65.48 54.27785722223337,65.66 A 2.25,2.25 0.0 0,1 53.91785722223337,65.92999999999999 C 53.41785722223337,65.8 52.91785722223337,65.66 52.32785722223337,65.52999999999999 C 52.37785722223337,65.83999999999999 52.37785722223337,66.07 52.42785722223337,66.29999999999998 A 1.31,1.31 0.0 0,1 52.14785722223337,66.47999999999999 C 51.65785722223337,66.21 51.14785722223337,65.92999999999999 50.65785722223337,65.71 C 49.97785722223337,65.57 49.11785722223337,65.02999999999999 49.25785722223337,66.42999999999999 C 49.25785722223337,66.61 49.167857222233366,66.78999999999999 49.11785722223337,66.97 C 48.93785722223337,70.42 48.847857222233365,73.86 48.61785722223337,77.3 C 48.527857222233365,79.07 48.25785722223337,80.83 48.027857222233365,82.6 C 47.847857222233365,82.86999999999999 47.71785722223336,83.19 47.53785722223336,83.46 C 47.39785722223336,84.17999999999999 47.25785722223336,84.91 47.12785722223337,85.63 L 47.12785722223337,86.22 C 47.71785722223337,87.4 50.51785722223337,88.22 52.19785722223337,87.76 C 54.637857222233364,87.53 56.317857222233364,89.03 58.07785722223337,90.39 A 0.7,0.7 0.0 0,0 58.35785722223337,90.39 C 58.66785722223337,90.66 58.98785722223337,90.89 59.35785722223337,91.16 C 59.35785722223337,91.25 59.447857222233374,91.3 59.57785722223337,91.25 A 6.2,6.2 0.0 0,0 61.75785722223337,92.11 C 63.69785722223337,92.2 65.60785722223336,92.11 67.54785722223338,92.11 A 24.0,24.0 0.0 0,1 70.40785722223337,92.52 A 12.66,12.66 0.0 0,0 70.31785722223339,90.39 M 40.65785722223338,64.94 A 0.16,0.16 0.0 0,0 40.65785722223338,64.8 A 0.1,0.1 0.0 0,0 40.56785722223338,64.71 C 40.34785722223338,65.07 40.06785722223338,65.39 39.84785722223338,65.71 C 39.52785722223338,65.21 39.16785722223338,64.61999999999999 38.757857222233376,64.03999999999999 C 38.66785722223337,65.16999999999999 38.937857222233376,66.21 38.84785722223338,67.16 C 38.47785722223338,70.15 37.97785722223338,73.0 37.52785722223338,76.0 C 37.257857222233376,77.85 36.937857222233376,79.75 36.757857222233376,81.66 A 1.46,1.46 0.0 0,0 37.437857222233376,82.88 C 38.937857222233376,83.50999999999999 40.437857222233376,83.97 42.14785722223338,84.56 C 42.377857222233374,83.83 42.55785722223337,83.24000000000001 42.73785722223338,82.65 C 42.82785722223338,82.47 42.91785722223338,82.24000000000001 43.00785722223338,82.06 C 44.277857222233386,77.9 43.23785722223338,73.69 43.00785722223338,69.52000000000001 A 5.87,5.87 0.0 0,0 43.00785722223338,68.61000000000001 C 42.87785722223338,66.94000000000001 42.73785722223338,65.31000000000002 42.607857222233385,63.73000000000001 C 42.01785722223338,63.95000000000001 41.607857222233385,64.13000000000001 40.97785722223338,64.36000000000001 C 40.97785722223338,64.3 40.787857222233384,64.62 40.65785722223338,64.94"/>
</svg>
