<?xml version="1.0" ?>
<svg xmlns="http://www.w3.org/2000/svg" xmlns:ev="http://www.w3.org/2001/xml-events" xmlns:xlink="http://www.w3.org/1999/xlink" baseProfile="full" height="476" id="Layer_1" style="enable-background:new 0 0 500 500;" transform="scale(0.21008403361344538 0.21008403361344538) translate(-243.5 -238.0)" version="1.1" viewBox="0 0 487 476" width="487" x="0px" xml:space="preserve" y="0px">
	<defs/>
	<path class="st0" d="M 233.2,20.100000000000207 C 230.5,15.70000000000021 229.79999999999998,6.700000000000211 222.6,3.6000000000002093 C 225.7,29.20000000000021 198.4,90.7000000000002 200.0,97.7000000000002 C 200.1,98.10000000000021 201.6,101.4000000000002 202.1,102.2000000000002 C 204.79999999999998,106.2000000000002 241.0,136.0000000000002 205.6,148.40000000000023 C 186.4,155.10000000000022 144.9,152.00000000000023 126.1,145.90000000000023 C 112.6,141.50000000000023 83.80000000000001,121.80000000000022 61.4,147.90000000000023 C 54.1,156.40000000000023 56.8,156.80000000000024 45.5,161.70000000000024 C 30.4,168.30000000000024 14.600000000000001,169.70000000000024 0.0,175.40000000000023 C 0.7999999999999998,179.80000000000024 9.1,180.60000000000022 12.7,181.10000000000022 C 36.0,184.50000000000023 56.49999999999999,178.00000000000023 67.0,180.70000000000022 C 103.69999999999999,190.50000000000023 129.99999999999997,162.9000000000002 161.9,194.3000000000002 C 165.20000000000002,197.60000000000022 168.3,200.8000000000002 171.9,203.8000000000002 C 191.0,219.8000000000002 211.9,231.0000000000002 234.0,240.20000000000022 C 236.6,246.70000000000024 238.9,250.60000000000022 239.2,260.50000000000017 C 239.89999999999998,283.40000000000015 226.89999999999998,278.1000000000002 245.79999999999998,309.6000000000002 C 262.1,336.9000000000002 271.5,365.7000000000002 284.2,396.00000000000017 C 285.8,399.90000000000015 293.59999999999997,415.00000000000017 293.7,417.70000000000016 C 295.8,418.8000000000002 300.9,428.8000000000002 301.7,431.10000000000014 C 304.4,433.40000000000015 318.59999999999997,458.90000000000015 322.5,465.5000000000001 C 330.2,478.5000000000001 332.9,479.2000000000001 330.8,463.4000000000001 C 330.3,459.5000000000001 329.3,454.7000000000001 329.0,451.0000000000001 L 338.3,465.0000000000001 C 339.7,466.7000000000001 341.0,468.2000000000001 342.7,467.7000000000001 C 346.59999999999997,460.5000000000001 341.09999999999997,449.8000000000001 340.3,442.5000000000001 C 342.90000000000003,445.4000000000001 346.0,451.2000000000001 350.7,450.3000000000001 C 352.2,440.8000000000001 348.5,435.7000000000001 347.2,427.5000000000001 C 351.5,429.3000000000001 349.7,430.8000000000001 354.4,431.2000000000001 C 356.9,424.8000000000001 351.9,417.8000000000001 350.2,412.7000000000001 C 354.0,414.6000000000001 353.5,416.2000000000001 359.0,416.5000000000001 C 359.2,407.3000000000001 356.5,406.2000000000001 355.0,399.60000000000014 C 358.3,400.90000000000015 356.7,401.10000000000014 360.0,401.5000000000001 C 361.6,395.2000000000001 358.8,391.8000000000001 357.4,386.3000000000001 C 360.9,381.60000000000014 358.9,389.5000000000001 361.2,376.7000000000001 L 361.5,365.1000000000001 C 361.2,361.30000000000007 360.3,363.00000000000006 359.6,359.7000000000001 C 359.6,359.5000000000001 359.5,359.3000000000001 359.5,359.1000000000001 C 358.0,343.7000000000001 343.5,291.80000000000007 337.8,272.30000000000007 C 343.5,273.00000000000006 349.3,273.70000000000005 354.7,274.00000000000006 C 366.5,274.70000000000005 378.9,275.30000000000007 388.59999999999997,279.20000000000005 C 393.2,281.00000000000006 396.79999999999995,283.80000000000007 401.29999999999995,285.90000000000003 C 405.59999999999997,287.90000000000003 414.19999999999993,286.3 419.79999999999995,287.20000000000005 C 424.99999999999994,288.1 430.69999999999993,289.6 434.59999999999997,291.80000000000007 C 438.59999999999997,294.00000000000006 443.99999999999994,296.9000000000001 448.79999999999995,296.6000000000001 C 451.29999999999995,296.4000000000001 453.69999999999993,295.50000000000006 455.4,294.00000000000006 C 458.4,291.40000000000003 456.5,290.80000000000007 460.59999999999997,288.90000000000003 C 466.09999999999997,286.3 467.99999999999994,285.3 468.99999999999994,277.8 C 477.19999999999993,276.90000000000003 480.8999999999999,274.6 478.59999999999997,266.3 C 490.29999999999995,255.60000000000005 482.2,256.8 484.7,250.20000000000002 C 485.0,249.4 487.8,246.80000000000004 486.09999999999997,240.10000000000002 C 485.09999999999997,236.00000000000003 482.9,234.60000000000002 479.99999999999994,233.3 C 483.19999999999993,221.60000000000002 473.09999999999997,220.9 471.8999999999999,218.8 C 470.0999999999999,212.9 473.2999999999999,208.3 460.69999999999993,209.60000000000002 C 457.29999999999995,187.00000000000003 417.5999999999999,207.60000000000002 393.2999999999999,201.20000000000002 C 382.0999999999999,198.3 374.8999999999999,192.3 365.6999999999999,187.4 C 361.7999999999999,185.3 343.2999999999999,172.8 339.39999999999986,172.20000000000002 C 334.29999999999984,177.60000000000002 328.9999999999999,179.9 320.6999999999999,179.60000000000002 C 325.09999999999985,176.90000000000003 335.89999999999986,177.20000000000002 342.39999999999986,158.60000000000002 C 347.9999999999999,142.3 326.89999999999986,121.10000000000001 319.4999999999999,99.60000000000001 C 316.39999999999986,90.50000000000001 321.1999999999999,88.80000000000001 317.39999999999986,82.00000000000001 C 315.4999999999999,78.70000000000002 316.4999999999999,82.00000000000001 315.9999999999999,78.60000000000001 C 315.1999999999999,72.7 317.0999999999999,73.30000000000001 310.89999999999986,66.80000000000001 C 312.6999999999999,65.00000000000001 312.59999999999985,61.20000000000002 311.89999999999986,58.60000000000001 C 310.79999999999984,54.400000000000006 308.79999999999984,55.400000000000006 305.89999999999986,54.10000000000001 C 304.79999999999984,43.60000000000001 304.4999999999999,42.70000000000001 295.89999999999986,39.20000000000001 C 295.6999999999999,34.60000000000001 294.1999999999999,24.60000000000001 291.1999999999999,20.900000000000006 C 289.89999999999986,19.300000000000004 290.39999999999986,20.000000000000007 289.2999999999999,19.20000000000001 C 286.5999999999999,20.900000000000006 286.6999999999999,26.000000000000007 280.2999999999999,27.900000000000006 C 279.4999999999999,18.60000000000001 277.9999999999999,12.600000000000007 271.5999999999999,7.000000000000009 C 270.69999999999993,13.000000000000009 271.4999999999999,17.900000000000006 266.2999999999999,20.000000000000007 C 265.3999999999999,14.30000000000001 265.1999999999999,12.000000000000009 262.6999999999999,7.700000000000008 C 261.59999999999985,5.700000000000008 260.39999999999986,4.4000000000000075 258.89999999999986,3.000000000000009 C 256.79999999999984,1.0000000000000089 256.29999999999984,0.9000000000000092 252.7999999999998,0.10000000000000853 C 252.59999999999982,0.5000000000000089 252.39999999999984,0.9000000000000092 252.2999999999998,2.200000000000008 C 251.6999999999998,10.900000000000007 254.9999999999998,4.200000000000008 250.39999999999984,18.70000000000001 C 248.29999999999984,15.80000000000001 247.39999999999984,5.9000000000000075 239.89999999999984,1.6000000000000068 C 236.69999999999985,-0.19999999999999396 239.69999999999985,1.1000000000000068 235.99999999999983,7.105427357601002e-15 C 237.7,7.200000000000211 236.29999999999998,15.000000000000208 233.2,20.100000000000207 L 233.2,20.100000000000207 M 84.39999999999998,146.3000000000002 C 87.79999999999998,146.3000000000002 90.6,149.3000000000002 90.6,153.0000000000002 C 90.6,156.7000000000002 87.79999999999998,159.7000000000002 84.39999999999998,159.7000000000002 C 80.99999999999997,159.7000000000002 78.19999999999999,156.7000000000002 78.19999999999999,153.0000000000002 C 78.19999999999999,149.3000000000002 81.0,146.3000000000002 84.39999999999998,146.3000000000002 L 84.39999999999998,146.3000000000002"/>
</svg>
