<?xml version="1.0" ?>
<svg xmlns="http://www.w3.org/2000/svg" xmlns:ev="http://www.w3.org/2001/xml-events" xmlns:xlink="http://www.w3.org/1999/xlink" baseProfile="full" height="442" id="Layer_1" style="enable-background:new 0 0 500 500;" transform="scale(0.22624434389140272 0.22624434389140272) translate(-239.0 -221.0)" version="1.1" viewBox="0 0 478 442" width="478" x="0px" xml:space="preserve" y="0px">
	<defs/>
	<path class="st0" d="M 401.0,167.20000000000002 C 402.3,172.10000000000002 403.9,174.8 404.3,180.9 C 404.7,186.6 404.40000000000003,191.8 404.3,197.5 C 404.2,219.2 339.5,329.4 329.4,339.69999999999993 C 324.59999999999997,337.79999999999995 324.4,336.69999999999993 321.4,335.19999999999993 C 325.7,343.79999999999995 343.79999999999995,348.5999999999999 354.5,353.49999999999994 C 360.1,355.99999999999994 362.0,356.29999999999995 361.8,363.8999999999999 C 361.6,375.8999999999999 356.90000000000003,394.99999999999994 353.5,406.7999999999999 C 352.8,409.0999999999999 352.2,411.2999999999999 351.5,413.4999999999999 L 349.6,418.2999999999999 C 349.0,419.1999999999999 349.0,419.0999999999999 348.5,419.5999999999999 L 346.9,418.0 C 345.59999999999997,416.8 347.29999999999995,417.4 345.4,416.9 C 343.2,420.79999999999995 342.5,421.0 339.79999999999995,420.7 L 339.9,414.3 C 340.0,414.3 339.9,414.1 339.79999999999995,414.2 L 337.19999999999993,413.5 C 336.8999999999999,399.1 344.3999999999999,379.8 345.5999999999999,369.2 L 337.2999999999999,369.3 C 338.7999999999999,364.1 341.4999999999999,366.1 343.8999999999999,361.7 C 340.69999999999993,351.5 311.7999999999999,354.7 308.3999999999999,338.59999999999997 C 307.99999999999994,343.29999999999995 311.7999999999999,347.2 314.3999999999999,349.99999999999994 C 312.5999999999999,352.69999999999993 301.49999999999994,359.59999999999997 297.8999999999999,362.3999999999999 C 293.2999999999999,366.0999999999999 295.0999999999999,366.99999999999994 294.49999999999994,373.3999999999999 C 293.8999999999999,379.99999999999994 291.29999999999995,379.69999999999993 285.8999999999999,378.19999999999993 C 286.49999999999994,383.3999999999999 287.19999999999993,387.69999999999993 287.3999999999999,393.0999999999999 C 287.69999999999993,400.8999999999999 287.99999999999994,403.4999999999999 279.3999999999999,401.5999999999999 C 278.99999999999994,407.4999999999999 282.2999999999999,420.0999999999999 274.99999999999994,418.2999999999999 C 273.69999999999993,417.9999999999999 273.09999999999997,417.1999999999999 271.3999999999999,416.4999999999999 C 271.3999999999999,421.1999999999999 271.2999999999999,423.5999999999999 269.3999999999999,427.2999999999999 C 265.5999999999999,426.9999999999999 266.2999999999999,425.8999999999999 263.5999999999999,425.5999999999999 C 261.8999999999999,429.69999999999993 263.2999999999999,429.9999999999999 259.8999999999999,432.8999999999999 C 256.8999999999999,432.3999999999999 256.0999999999999,430.99999999999994 253.99999999999994,429.69999999999993 C 253.69999999999993,431.79999999999995 253.09999999999997,434.8999999999999 251.59999999999997,435.99999999999994 C 249.09999999999997,437.8999999999999 246.59999999999997,435.79999999999995 244.89999999999998,434.99999999999994 C 244.2,436.99999999999994 243.39999999999998,438.19999999999993 242.2,439.69999999999993 C 239.3,442.99999999999994 238.10000000000002,441.79999999999995 237.3,441.5999999999999 L 234.89999999999998,435.8999999999999 L 231.7,437.99999999999994 C 231.0,438.79999999999995 231.2,438.69999999999993 231.0,439.09999999999997 L 228.10000000000002,439.09999999999997 C 227.7,435.29999999999995 230.60000000000002,433.99999999999994 231.90000000000003,431.09999999999997 L 227.20000000000005,428.2 L 227.40000000000003,424.5 C 228.70000000000005,418.1 230.8,412.0 232.20000000000005,405.6 C 236.60000000000002,385.8 230.00000000000006,358.6 234.8,335.8 C 251.0,259.5 295.8,245.9 246.90000000000003,277.3 C 238.90000000000003,282.40000000000003 229.50000000000006,287.0 217.80000000000007,288.3 C 217.70000000000005,283.7 218.50000000000006,278.90000000000003 219.70000000000005,274.90000000000003 C 220.20000000000005,273.20000000000005 220.90000000000003,271.20000000000005 221.60000000000008,269.6 C 221.70000000000005,269.3 227.50000000000006,232.60000000000005 217.20000000000005,278.1 C 215.30000000000007,286.40000000000003 218.80000000000007,288.0 209.60000000000008,290.6 C 208.70000000000005,272.8 210.30000000000007,278.70000000000005 211.20000000000005,266.0 C 202.70000000000005,261.2 206.80000000000007,260.1 202.40000000000003,256.9 C 197.00000000000006,252.9 200.20000000000005,250.20000000000002 195.20000000000005,246.6 C 192.10000000000008,244.4 191.70000000000005,242.49999999999997 191.80000000000007,238.29999999999998 C 186.40000000000003,236.99999999999997 185.50000000000006,234.19999999999996 184.90000000000003,228.79999999999998 C 180.30000000000007,226.89999999999998 179.70000000000005,225.99999999999997 179.00000000000006,220.99999999999997 C 171.50000000000006,219.79999999999998 173.80000000000007,216.29999999999998 171.20000000000005,212.79999999999998 C 170.3,211.49999999999997 168.3,210.89999999999998 166.90000000000003,208.99999999999997 C 165.0,206.49999999999997 165.10000000000002,205.19999999999996 165.3,201.99999999999997 C 158.3,200.29999999999998 156.70000000000005,198.39999999999998 156.5,191.19999999999996 C 150.10000000000002,189.89999999999995 147.8,186.89999999999995 147.3,180.39999999999995 C 144.40000000000003,179.29999999999995 142.8,178.89999999999995 141.0,176.59999999999994 C 138.60000000000002,173.49999999999994 139.40000000000003,171.59999999999994 138.10000000000002,168.49999999999994 C 135.5,167.59999999999994 130.7,167.29999999999995 127.2,166.29999999999995 C 122.7,164.99999999999994 121.2,163.49999999999994 118.10000000000001,162.19999999999996 C 118.7,159.09999999999997 119.10000000000001,160.89999999999995 118.8,159.39999999999995 C 118.7,159.29999999999995 118.39999999999999,158.99999999999994 118.3,159.19999999999996 C 118.2,159.29999999999995 117.89999999999999,158.99999999999997 117.8,158.99999999999997 L 109.5,156.39999999999998 C 105.6,154.79999999999998 103.8,153.2 100.9,151.59999999999997 L 102.4,147.49999999999997 C 95.4,146.79999999999998 90.4,144.89999999999998 85.60000000000001,141.19999999999996 C 85.80000000000001,134.39999999999995 90.80000000000001,139.49999999999997 76.7,133.59999999999997 C 74.5,132.69999999999996 71.60000000000001,131.09999999999997 70.10000000000001,129.89999999999998 C 66.80000000000001,127.39999999999996 68.30000000000001,127.59999999999995 68.60000000000001,124.09999999999995 C 60.80000000000001,120.99999999999996 54.2,120.09999999999995 48.900000000000006,114.89999999999996 C 51.00000000000001,113.19999999999997 52.7,114.19999999999997 54.30000000000001,111.99999999999996 C 52.80000000000001,109.79999999999997 42.500000000000014,106.09999999999995 39.20000000000001,103.99999999999996 L 34.60000000000001,100.29999999999997 L 36.900000000000006,99.29999999999997 C 39.400000000000006,98.59999999999997 42.00000000000001,98.89999999999996 43.50000000000001,96.59999999999997 C 41.60000000000001,94.99999999999997 31.400000000000006,92.39999999999996 28.200000000000003,90.79999999999997 C 23.1,88.29999999999997 18.000000000000004,85.49999999999997 15.600000000000001,81.19999999999997 C 20.9,81.39999999999998 23.799999999999997,81.99999999999997 29.299999999999997,81.19999999999997 C 25.199999999999996,77.39999999999998 7.399999999999999,76.29999999999997 3.1999999999999957,65.69999999999997 C 8.399999999999995,66.69999999999997 12.399999999999995,68.59999999999998 17.999999999999996,69.59999999999998 C 23.599999999999994,70.59999999999998 30.0,70.79999999999998 36.0,70.59999999999998 C 33.9,68.09999999999998 29.1,67.29999999999998 26.0,66.19999999999997 C 16.2,62.99999999999997 3.0,58.29999999999997 0.0,48.199999999999974 C 7.3999999999999915,50.10000000000001 11.999999999999993,59.20000000000002 32.89999999999999,58.000000000000014 C 30.69999999999999,56.30000000000001 27.499999999999993,55.30000000000001 25.099999999999994,54.20000000000002 C 18.199999999999996,50.90000000000002 5.599999999999994,45.000000000000014 5.699999999999996,36.000000000000014 C 10.799999999999997,38.90000000000002 17.299999999999997,42.90000000000002 23.799999999999997,45.30000000000001 C 35.5,49.500000000000014 62.099999999999994,51.400000000000006 69.39999999999999,55.000000000000014 C 79.99999999999999,60.20000000000002 98.19999999999999,71.00000000000001 84.1,63.000000000000014 C 77.39999999999999,59.30000000000001 68.1,54.40000000000002 65.7,46.30000000000001 C 71.10000000000001,47.400000000000006 71.7,49.000000000000014 78.9,48.80000000000001 C 74.9,43.80000000000001 61.900000000000006,42.60000000000001 56.3,29.000000000000018 C 59.5,29.800000000000015 65.8,33.90000000000002 70.7,35.60000000000001 C 73.3,36.500000000000014 75.9,37.30000000000001 79.10000000000001,38.2 C 80.50000000000001,38.60000000000001 81.60000000000001,38.900000000000006 83.00000000000001,39.2 C 84.50000000000001,39.5 86.40000000000002,39.900000000000006 87.80000000000001,39.0 C 75.80000000000001,30.3 60.80000000000001,27.400000000000002 56.40000000000002,11.400000000000002 C 58.60000000000002,11.900000000000002 65.80000000000003,19.000000000000004 69.20000000000002,20.900000000000002 C 73.90000000000002,23.600000000000005 80.90000000000002,26.000000000000004 86.50000000000001,26.600000000000005 C 85.70000000000002,25.500000000000004 86.30000000000001,26.100000000000005 84.90000000000002,24.900000000000002 C 81.00000000000001,21.7 76.40000000000002,19.100000000000005 72.80000000000003,15.8 C 68.60000000000002,11.900000000000002 64.20000000000003,7.0000000000000036 63.50000000000003,0.0 C 67.30000000000003,1.5 72.00000000000003,10.500000000000004 99.30000000000003,20.8 C 142.60000000000002,37.099999999999994 155.5,41.599999999999994 196.60000000000002,63.599999999999994 C 201.60000000000002,66.3 211.10000000000002,72.3 215.60000000000002,73.6 C 214.8,71.5 214.40000000000003,68.5 214.3,65.39999999999999 C 225.90000000000003,68.6 240.70000000000005,86.3 247.40000000000003,96.1 C 249.70000000000005,99.39999999999999 251.20000000000005,102.09999999999998 253.60000000000002,105.3 C 256.0,108.60000000000001 258.20000000000005,111.39999999999999 260.6,114.3 L 309.40000000000003,167.1 C 312.6,170.2 318.6,176.5 323.20000000000005,177.29999999999998 C 326.30000000000007,177.89999999999998 358.40000000000003,166.29999999999998 361.1,152.7 C 363.1,142.6 361.0,132.1 360.40000000000003,122.29999999999997 C 359.20000000000005,103.49999999999996 367.50000000000006,87.09999999999997 381.3,79.99999999999997 C 389.1,75.99999999999997 399.0,74.69999999999997 408.5,76.59999999999997 C 419.8,78.79999999999997 421.4,82.59999999999997 428.1,88.49999999999997 C 438.20000000000005,97.49999999999997 471.90000000000003,96.39999999999998 477.70000000000005,102.59999999999998 C 475.80000000000007,112.39999999999999 437.1,110.29999999999997 426.50000000000006,111.39999999999999 C 417.6000000000001,112.39999999999999 417.6000000000001,113.7 410.90000000000003,116.2 C 406.90000000000003,117.7 397.70000000000005,119.60000000000001 395.6,120.7 C 391.3,122.89999999999999 391.3,131.4 391.40000000000003,137.00000000000003 C 391.59999999999997,150.60000000000002 396.2,157.10000000000002 401.0,167.20000000000002 L 401.0,167.20000000000002 M 404.79999999999995,86.40000000000002 C 407.9,86.40000000000002 410.4,88.90000000000002 410.4,92.10000000000002 C 410.4,95.20000000000002 407.9,97.80000000000003 404.79999999999995,97.80000000000003 C 401.69999999999993,97.80000000000003 399.19999999999993,95.30000000000003 399.19999999999993,92.10000000000002 C 399.2,89.00000000000001 401.7,86.40000000000002 404.79999999999995,86.40000000000002 L 404.79999999999995,86.40000000000002"/>
</svg>
