<?xml version="1.0" ?>
<svg xmlns="http://www.w3.org/2000/svg" xmlns:ev="http://www.w3.org/2001/xml-events" xmlns:xlink="http://www.w3.org/1999/xlink" baseProfile="full" height="217" id="Layer_1" style="enable-background:new 0 0 500 500;" transform="scale(0.4608294930875576 0.4608294930875576) translate(-233.0 -108.5)" version="1.1" viewBox="0 0 466 217" width="466" x="0px" xml:space="preserve" y="0px">
	<defs/>
	<path d="M 95.90405183549032,92.23996493085824 C 97.80405183549033,82.53996493085825 95.00405183549032,76.93996493085822 90.10405183549034,72.03996493085825 C 85.50405183549034,67.33996493085826 81.20405183549033,62.53996493085825 78.90405183549032,56.43996493085825 C 81.40405183549032,54.13996493085824 83.00405183549032,55.739964930858264 84.60405183549034,56.63996493085824 C 96.10405183549034,63.33996493085823 108.60405183549034,67.43996493085825 121.50405183549034,70.53996493085825 C 128.30405183549036,72.13996493085824 134.90405183549035,73.83996493085826 141.20405183549033,76.83996493085826 C 143.70405183549033,78.03996493085825 146.00405183549034,79.83996493085826 148.30405183549033,75.63996493085827 C 149.60405183549034,73.23996493085826 153.20405183549033,74.53996493085828 155.70405183549033,75.03996493085828 C 170.30405183549033,77.93996493085828 184.80405183549033,81.13996493085827 198.00405183549034,88.13996493085827 C 201.10405183549034,89.83996493085826 204.00405183549034,91.93996493085828 208.10405183549034,90.13996493085827 C 210.60405183549034,89.03996493085828 212.90405183549035,91.73996493085826 215.20405183549033,92.93996493085828 C 220.40405183549032,95.83996493085829 225.70405183549033,98.23996493085829 231.60405183549034,99.73996493085829 C 262.4040518354903,107.43996493085828 292.5040518354903,116.83996493085829 319.7040518354903,135.9399649308583 C 325.0040518354903,126.03996493085833 327.3040518354903,115.73996493085832 328.9040518354903,105.1399649308583 C 330.4040518354903,95.73996493085829 331.2040518354903,86.1399649308583 332.7040518354903,76.73996493085829 C 335.5040518354903,59.039964930858304 341.5040518354903,42.33996493085829 348.8040518354903,25.93996493085831 C 359.40405183549035,2.0399649308583037 389.3040518354903,-7.860035069141702 415.3040518354903,7.039964930858304 C 419.7040518354903,9.539964930858304 422.60405183549034,13.539964930858304 424.90405183549035,18.039964930858304 C 429.0040518354904,26.039964930858304 431.3040518354903,34.6399649308583 434.10405183549034,43.039964930858304 C 436.60405183549034,50.539964930858304 439.40405183549035,57.93996493085831 443.40405183549035,64.83996493085832 C 446.90405183549035,70.93996493085831 451.3040518354903,76.13996493085833 457.3040518354903,80.0399649308583 C 459.5040518354903,81.43996493085831 461.7040518354903,83.0399649308583 463.40405183549035,85.0399649308583 C 465.40405183549035,87.43996493085831 465.90405183549035,90.43996493085831 464.40405183549035,93.33996493085832 C 463.0040518354904,96.0399649308583 460.20405183549036,96.5399649308583 457.5040518354904,96.13996493085833 C 444.1040518354904,94.33996493085832 430.40405183549035,93.23996493085832 420.3040518354904,82.43996493085834 C 416.5040518354904,78.33996493085834 411.9040518354904,76.13996493085833 406.1040518354904,77.43996493085834 C 398.9040518354904,78.93996493085834 397.8040518354904,80.83996493085834 395.8040518354904,88.33996493085834 C 391.3040518354904,105.63996493085835 393.4040518354904,120.83996493085834 404.20405183549036,135.83996493085834 C 413.10405183549034,148.13996493085835 418.3040518354904,162.53996493085833 418.3040518354904,178.43996493085837 C 418.3040518354904,202.23996493085838 408.20405183549036,213.5399649308584 382.9040518354904,215.5399649308584 C 362.50405183549043,217.1399649308584 342.00405183549043,216.23996493085838 321.6040518354904,214.93996493085837 C 281.8040518354904,212.5399649308584 241.90405183549043,210.43996493085837 202.10405183549042,207.33996493085834 C 161.00405183549043,204.23996493085832 120.00405183549043,200.03996493085833 78.9040518354904,196.53996493085833 C 64.80405183549041,195.33996493085834 50.60405183549042,194.63996493085835 36.504051835490415,192.9399649308583 C 25.20405183549041,191.53996493085833 19.504051835490415,185.4399649308583 16.80405183549042,175.1399649308583 C 15.204051835490418,168.9399649308583 15.204051835490418,162.73996493085832 15.90405183549042,156.4399649308583 C 18.004051835490422,136.73996493085832 15.90405183549042,117.73996493085832 9.10405183549042,99.0399649308583 C 4.504051835490422,86.33996493085832 1.5040518354904222,73.1399649308583 0.30405183549041936,59.539964930858304 C 0.004051835490418654,56.23996493085829 -0.09594816450957921,52.93996493085831 0.10405183549042007,49.6399649308583 C 0.6040518354904201,42.93996493085831 2.0040518354904187,42.23996493085829 7.804051835490419,45.6399649308583 C 13.204051835490418,48.83996493085829 13.204051835490418,48.83996493085829 15.90405183549042,42.539964930858304 C 17.30405183549042,39.23996493085829 18.204051835490418,35.6399649308583 23.30405183549042,33.839964930858315 C 24.204051835490418,42.039964930858304 24.004051835490422,50.539964930858304 30.80405183549042,56.43996493085831 C 34.70405183549042,56.43996493085831 35.70405183549042,52.43996493085831 38.30405183549042,50.73996493085832 C 44.90405183549042,46.43996493085831 53.80405183549042,45.73996493085832 58.70405183549041,49.73996493085832 C 60.304051835490405,51.03996493085833 61.70405183549041,52.639964930858326 61.10405183549042,54.73996493085832 C 60.20405183549041,57.73996493085832 58.10405183549042,56.03996493085833 56.30405183549042,55.73996493085832 C 49.30405183549042,54.639964930858326 44.80405183549042,56.43996493085831 42.70405183549042,60.839964930858315 C 40.60405183549042,65.43996493085831 42.60405183549042,71.33996493085832 47.904051835490414,75.5399649308583 C 52.70405183549041,79.33996493085832 58.30405183549042,82.0399649308583 64.20405183549042,81.83996493085832 C 75.70405183549033,81.43996493085825 85.90405183549032,83.43996493085825 95.90405183549032,92.23996493085824"/>
</svg>
