<?xml version="1.0" ?>
<svg xmlns="http://www.w3.org/2000/svg" xmlns:ev="http://www.w3.org/2001/xml-events" xmlns:xlink="http://www.w3.org/1999/xlink" baseProfile="full" height="207" id="Layer_1" style="enable-background:new 0 0 500 500;" transform="scale(0.4830917874396135 0.4830917874396135) translate(-233.0 -103.5)" version="1.1" viewBox="0 0 466 207" width="466" x="0px" xml:space="preserve" y="0px">
	<defs/>
	<path class="st0" d="M 421.2,158.921344068779 C 423.09999999999997,153.621344068779 421.9,148.121344068779 419.4,144.121344068779 L 418.4,146.121344068779 C 418.29999999999995,146.32134406877898 418.2,146.621344068779 418.09999999999997,146.72134406877902 C 417.4,148.121344068779 417.9,147.621344068779 417.2,148.421344068779 C 416.7,156.02134406877903 405.09999999999997,161.421344068779 396.7,157.52134406877903 C 399.09999999999997,153.22134406877902 398.7,149.22134406877902 393.5,147.32134406877904 C 381.3,167.12134406877905 380.7,153.62134406877905 386.0,141.72134406877902 C 381.3,137.421344068779 371.3,140.121344068779 365.7,137.52134406877903 C 373.3,137.32134406877904 394.7,136.32134406877904 399.5,140.02134406877903 C 398.7,141.22134406877902 399.7,140.421344068779 398.4,141.52134406877903 C 397.09999999999997,142.52134406877903 398.29999999999995,141.921344068779 396.09999999999997,142.72134406877902 C 394.09999999999997,143.52134406877903 392.49999999999994,143.921344068779 390.49999999999994,144.32134406877904 C 393.49999999999994,145.72134406877902 401.19999999999993,143.52134406877903 403.59999999999997,142.52134406877903 C 433.7,136.22134406877902 370.79999999999995,135.62134406877905 392.29999999999995,129.02134406877903 C 395.19999999999993,128.72134406877902 396.9,128.82134406877904 399.09999999999997,127.22134406877902 C 391.09999999999997,126.52134406877903 354.29999999999995,119.82134406877904 348.29999999999995,117.02134406877903 C 314.19999999999993,101.22134406877902 293.79999999999995,94.92134406877904 255.69999999999993,89.12134406877902 C 247.0999999999999,87.82134406877901 236.89999999999992,87.22134406877902 228.49999999999994,86.32134406877901 C 125.49999999999994,87.32134406877901 325.4,146.921344068779 362.5999999999999,145.82134406877898 C 364.7999999999999,146.22134406877896 366.7999999999999,146.52134406877897 368.4999999999999,147.921344068779 C 359.4999999999999,155.22134406877902 351.1999999999999,160.72134406877902 340.1999999999999,166.921344068779 C 334.2999999999999,170.22134406877902 313.59999999999985,181.52134406877903 307.89999999999986,182.52134406877903 L 332.59999999999985,166.421344068779 C 337.09999999999985,163.421344068779 352.89999999999986,153.621344068779 356.49999999999983,149.32134406877898 C 280.6999999999998,128.421344068779 179.89999999999984,123.421344068779 198.09999999999982,86.02134406877897 C 181.7999999999998,86.52134406877897 163.79999999999984,91.92134406877898 150.49999999999983,100.52134406877897 C 145.89999999999984,103.52134406877897 140.09999999999982,107.12134406877897 135.49999999999983,101.32134406877898 C 141.89999999999984,94.121344068779 149.69999999999982,87.82134406877898 152.89999999999984,77.02134406877897 C 159.19999999999985,55.52134406877897 146.59999999999982,2.321344068778984 103.99999999999983,0.12134406877896708 C 67.20000000000002,-1.8786559312210045 64.5,21.321344068778984 52.90000000000001,34.52134406877897 C 28.400000000000013,62.52134406877897 2.20000000000001,52.12134406877897 1.4210854715202004e-14,66.82134406877898 C 6.100000000000016,72.02134406877897 32.000000000000014,67.621344068779 40.000000000000014,66.32134406877898 C 56.90000000000001,63.621344068778996 60.80000000000002,62.321344068778984 77.70000000000002,66.72134406877899 C 85.90000000000003,68.82134406877898 86.00000000000003,70.22134406877899 86.20000000000002,79.72134406877899 C 86.60000000000002,99.92134406877898 71.40000000000003,97.621344068779 57.40000000000003,118.22134406877896 C 49.200000000000024,130.32134406877898 41.200000000000024,155.12134406877894 45.40000000000003,171.12134406877894 C 48.200000000000024,181.92134406877895 62.60000000000003,184.72134406877896 72.40000000000003,187.92134406877895 C 80.70000000000002,190.62134406877894 119.30000000000001,198.02134406877897 128.3,199.22134406877896 C 192.5,207.52134406877897 228.8,209.02134406877897 294.3,202.62134406877894 C 313.3,200.82134406877893 357.1,197.62134406877894 373.8,193.12134406877894 C 396.8,187.121344068779 446.9,175.52134406877897 421.2,158.921344068779 L 421.2,158.921344068779 M 87.9,24.621344068778996 C 91.4,24.621344068778996 94.20000000000002,27.621344068778996 94.20000000000002,31.421344068779007 C 94.20000000000002,35.121344068778996 91.4,38.22134406877902 87.9,38.22134406877902 C 84.4,38.22134406877902 81.60000000000002,35.22134406877902 81.60000000000002,31.421344068779007 C 81.6,27.72134406877899 84.4,24.621344068778996 87.9,24.621344068778996 L 87.9,24.621344068778996 M 55.1,201.121344068779 C 51.699999999999996,199.32134406877898 43.4,198.02134406877897 38.7,196.72134406877902 C 29.200000000000003,194.121344068779 4.900000000000006,185.621344068779 20.200000000000003,173.22134406877902 L 24.800000000000004,170.02134406877903 C 26.800000000000004,168.32134406877904 25.400000000000006,169.82134406877904 26.6,168.12134406877905 C 21.300000000000004,168.62134406877905 10.8,173.72134406877908 6.400000000000002,176.52134406877903 C -19.89999999999999,193.72134406877896 52.00000000000001,202.72134406877896 55.1,201.121344068779 L 55.1,201.121344068779 M 410.5,201.121344068779 C 413.9,199.32134406877898 422.2,198.02134406877897 426.9,196.72134406877902 C 436.4,194.121344068779 460.7,185.621344068779 445.4,173.22134406877902 L 440.79999999999995,170.02134406877903 C 438.79999999999995,168.32134406877904 440.29999999999995,169.82134406877904 438.99999999999994,168.12134406877905 C 444.3999999999999,168.62134406877905 454.79999999999995,173.72134406877908 459.19999999999993,176.52134406877903 C 485.6,193.72134406877896 413.7,202.72134406877896 410.5,201.121344068779 L 410.5,201.121344068779"/>
</svg>
