<?xml version="1.0" ?>
<svg xmlns="http://www.w3.org/2000/svg" xmlns:ev="http://www.w3.org/2001/xml-events" xmlns:xlink="http://www.w3.org/1999/xlink" baseProfile="full" height="308" id="Layer_1" style="enable-background:new 0 0 500 500;" transform="scale(0.3246753246753247 0.3246753246753247) translate(-237.0 -154.0)" version="1.1" viewBox="0 0 474 308" width="474" x="0px" xml:space="preserve" y="0px">
	<defs/>
	<path d="M 0.0,73.60000000000011 C 2.5,69.60000000000011 7.199999999999999,71.40000000000012 10.600000000000001,68.60000000000011 C 8.700000000000003,65.00000000000011 4.400000000000002,63.8000000000001 2.200000000000001,60.7000000000001 C 1.4000000000000004,59.60000000000011 0.10000000000000142,58.500000000000114 0.7000000000000011,57.000000000000114 C 1.3000000000000007,55.60000000000011 2.900000000000002,55.2000000000001 4.400000000000002,55.300000000000125 C 8.900000000000002,55.600000000000136 13.400000000000002,56.100000000000136 19.1,56.600000000000136 C 15.900000000000002,52.90000000000015 13.0,50.100000000000136 10.700000000000003,46.800000000000125 C 9.000000000000004,44.40000000000012 6.100000000000001,41.40000000000012 8.500000000000004,38.500000000000114 C 10.600000000000005,36.000000000000114 13.800000000000004,38.300000000000125 16.400000000000006,39.300000000000125 C 20.400000000000006,40.800000000000125 24.300000000000004,42.500000000000114 28.900000000000006,44.40000000000012 C 29.000000000000007,41.70000000000013 27.200000000000003,40.60000000000011 26.10000000000001,39.300000000000125 C 23.900000000000006,36.600000000000136 22.000000000000007,33.800000000000125 20.70000000000001,30.600000000000122 C 20.000000000000007,28.800000000000125 18.80000000000001,26.700000000000117 20.80000000000001,25.100000000000122 C 22.30000000000001,24.000000000000128 24.10000000000001,25.100000000000122 25.60000000000001,25.90000000000012 C 29.60000000000001,28.100000000000122 33.400000000000006,30.600000000000122 37.400000000000006,32.800000000000125 C 39.800000000000004,34.100000000000136 41.7,36.40000000000012 45.60000000000001,36.300000000000125 C 43.20000000000001,30.20000000000013 38.70000000000001,25.000000000000128 39.00000000000001,16.800000000000125 C 49.00000000000001,23.300000000000125 56.2,31.500000000000128 65.9,37.100000000000136 C 59.5,23.20000000000013 59.2,21.80000000000014 61.80000000000001,14.500000000000142 C 65.00000000000001,15.100000000000136 66.10000000000001,18.000000000000142 67.70000000000002,20.200000000000145 C 71.00000000000001,24.80000000000014 74.50000000000001,29.400000000000148 77.30000000000001,34.30000000000015 C 85.70000000000002,48.50000000000014 98.70000000000002,56.00000000000014 114.00000000000001,60.20000000000016 C 117.60000000000002,61.20000000000016 121.20000000000002,62.20000000000016 124.9,62.40000000000015 C 134.6,63.100000000000136 144.1,64.50000000000014 153.0,68.90000000000015 C 155.7,70.20000000000016 158.5,69.90000000000015 161.3,68.70000000000016 C 164.70000000000002,67.20000000000016 168.20000000000002,65.90000000000015 171.60000000000002,64.40000000000015 C 174.8,63.00000000000014 177.50000000000003,62.100000000000136 176.20000000000002,57.100000000000136 C 175.10000000000002,52.90000000000015 179.60000000000002,48.20000000000013 184.50000000000003,48.100000000000136 C 189.80000000000004,48.00000000000014 192.60000000000002,46.100000000000136 194.70000000000002,41.300000000000125 C 197.10000000000002,35.90000000000012 199.10000000000002,35.20000000000013 205.00000000000003,37.000000000000114 C 209.60000000000002,38.40000000000012 211.40000000000003,37.300000000000125 211.80000000000004,32.7000000000001 C 212.00000000000003,30.400000000000105 213.20000000000005,28.400000000000105 214.60000000000005,26.5000000000001 C 218.40000000000006,21.5000000000001 222.00000000000006,21.200000000000102 226.80000000000004,25.200000000000102 C 228.70000000000005,26.800000000000097 229.70000000000005,29.5000000000001 232.90000000000003,29.800000000000097 C 235.10000000000002,28.40000000000009 234.60000000000002,25.90000000000009 234.90000000000003,23.800000000000097 C 235.60000000000002,19.100000000000094 237.50000000000003,15.100000000000094 240.70000000000005,11.600000000000094 C 242.60000000000002,9.600000000000094 244.60000000000002,7.0000000000000995 247.90000000000003,8.100000000000094 C 250.70000000000005,9.100000000000094 250.8,12.0000000000001 251.3,14.5000000000001 C 252.0,18.400000000000105 251.40000000000003,22.5000000000001 253.5,27.100000000000094 C 258.8,17.40000000000009 261.7,7.100000000000094 269.3,8.526512829121202e-14 C 272.6,1.3000000000000824 271.90000000000003,3.6000000000000796 271.8,5.400000000000091 C 271.40000000000003,15.100000000000094 270.90000000000003,24.700000000000088 270.40000000000003,34.40000000000009 C 270.20000000000005,37.90000000000009 269.40000000000003,41.2000000000001 267.8,44.2000000000001 C 266.5,46.8000000000001 265.2,49.500000000000114 265.5,52.3000000000001 C 266.2,59.3000000000001 262.0,62.7000000000001 256.5,65.2000000000001 C 252.89999999999998,66.90000000000009 249.2,68.3000000000001 245.5,69.90000000000009 C 242.8,71.00000000000009 240.5,72.60000000000008 239.5,75.60000000000008 C 238.3,79.10000000000008 239.4,81.50000000000009 243.10000000000002,81.20000000000007 C 253.5,80.30000000000007 264.1,83.10000000000008 274.40000000000003,79.80000000000007 C 274.90000000000003,79.60000000000008 275.6,79.60000000000008 276.1,79.80000000000007 C 284.5,83.20000000000007 294.20000000000005,81.50000000000006 302.20000000000005,86.60000000000008 C 306.30000000000007,89.20000000000007 310.90000000000003,90.20000000000007 316.00000000000006,90.10000000000008 C 320.70000000000005,90.00000000000009 325.50000000000006,91.70000000000007 330.1000000000001,92.80000000000007 C 340.9000000000001,95.40000000000006 351.7000000000001,97.90000000000006 362.4000000000001,100.80000000000007 C 371.2000000000001,103.20000000000007 380.0000000000001,105.10000000000008 389.1000000000001,106.50000000000006 C 410.2000000000001,109.60000000000005 427.00000000000006,119.40000000000006 437.1000000000001,139.30000000000004 C 443.1000000000001,151.20000000000005 453.2000000000001,159.90000000000003 463.6000000000001,167.90000000000006 C 466.1000000000001,169.80000000000004 468.6000000000001,171.60000000000005 470.80000000000007,173.80000000000004 C 472.70000000000005,175.70000000000002 473.80000000000007,178.30000000000004 472.30000000000007,180.80000000000004 C 470.50000000000006,184.00000000000003 467.80000000000007,182.10000000000005 465.50000000000006,181.20000000000002 C 454.40000000000003,176.70000000000002 443.30000000000007,172.20000000000002 432.40000000000003,167.4 C 426.90000000000003,165.00000000000003 421.3,163.50000000000003 415.20000000000005,163.00000000000003 C 396.30000000000007,161.50000000000003 378.1,157.20000000000002 361.50000000000006,147.50000000000003 C 358.30000000000007,145.60000000000002 354.80000000000007,144.40000000000003 351.40000000000003,142.80000000000004 C 344.00000000000006,139.40000000000003 336.8,138.60000000000005 329.40000000000003,143.30000000000004 C 326.00000000000006,145.40000000000003 322.00000000000006,146.10000000000005 318.1,147.10000000000005 C 303.8,150.70000000000005 289.20000000000005,153.50000000000006 275.70000000000005,160.00000000000006 C 268.70000000000005,163.40000000000006 262.20000000000005,167.20000000000007 256.50000000000006,172.60000000000005 C 251.10000000000008,177.70000000000007 245.40000000000003,182.40000000000006 240.30000000000007,187.80000000000004 C 224.5,205.1000000000001 206.5,219.40000000000012 187.9,233.20000000000013 C 179.5,239.40000000000012 170.9,244.70000000000013 160.8,247.1000000000001 C 159.4,247.40000000000012 158.0,247.70000000000013 156.9,249.20000000000013 C 157.70000000000002,251.1000000000001 158.5,253.20000000000013 159.3,255.30000000000015 C 160.5,258.5000000000001 159.9,261.20000000000016 158.10000000000002,264.10000000000014 C 150.20000000000002,277.0000000000001 138.8,286.3000000000002 127.30000000000001,295.70000000000016 C 126.20000000000002,296.60000000000014 125.0,297.5000000000002 123.70000000000002,298.0000000000002 C 116.60000000000002,300.8000000000002 109.40000000000002,303.20000000000016 103.50000000000001,307.8000000000002 C 100.40000000000002,305.3000000000002 104.20000000000002,300.10000000000025 98.60000000000001,299.70000000000016 C 97.4,299.60000000000014 98.10000000000001,297.0000000000002 98.9,296.0000000000002 C 101.5,292.9000000000002 102.10000000000001,290.10000000000025 100.60000000000001,286.0000000000002 C 98.7,280.8000000000002 100.00000000000001,278.70000000000016 105.10000000000001,275.4000000000002 C 108.4,273.20000000000016 111.9,271.20000000000016 115.20000000000002,269.0000000000002 C 118.00000000000003,267.10000000000025 120.70000000000002,265.0000000000002 121.50000000000003,260.70000000000016 C 117.20000000000002,260.5000000000002 114.30000000000003,262.8000000000002 111.40000000000003,264.8000000000002 C 101.50000000000003,271.5000000000002 91.20000000000003,277.5000000000002 80.20000000000003,282.4000000000002 C 75.10000000000004,284.7000000000003 70.10000000000004,286.10000000000025 64.60000000000004,285.8000000000002 C 60.900000000000034,285.60000000000025 57.20000000000003,285.60000000000025 53.50000000000004,285.60000000000025 C 46.90000000000004,285.60000000000025 40.30000000000004,286.0000000000002 35.200000000000045,291.4000000000002 C 33.30000000000005,286.9000000000002 32.90000000000005,283.2000000000003 35.100000000000044,279.0000000000002 C 36.100000000000044,277.0000000000002 36.700000000000045,273.7000000000003 34.50000000000004,270.9000000000002 C 32.100000000000044,267.9000000000002 32.90000000000004,264.3000000000002 34.50000000000004,261.2000000000003 C 36.40000000000004,257.4000000000002 38.700000000000045,253.80000000000027 40.90000000000004,250.10000000000022 C 42.00000000000004,248.3000000000002 43.80000000000004,246.8000000000002 45.70000000000004,246.8000000000002 C 52.50000000000004,247.10000000000022 53.50000000000004,242.2000000000002 55.700000000000045,237.40000000000023 C 60.90000000000005,226.70000000000024 66.20000000000005,216.10000000000022 75.20000000000005,207.60000000000022 C 89.80000000000004,193.8000000000002 100.70000000000005,177.0000000000002 110.60000000000005,159.70000000000022 C 112.10000000000005,157.10000000000022 114.30000000000005,154.70000000000022 114.20000000000005,149.50000000000023 C 104.90000000000005,156.90000000000023 93.60000000000005,159.30000000000024 87.40000000000005,169.3000000000002 C 85.80000000000005,171.8000000000002 83.70000000000005,173.8000000000002 80.40000000000005,173.10000000000022 C 77.40000000000005,172.40000000000023 77.00000000000004,169.60000000000022 76.40000000000005,167.10000000000022 C 76.10000000000005,165.70000000000024 75.80000000000005,164.3000000000002 75.40000000000005,162.90000000000023 C 73.90000000000005,156.50000000000023 73.70000000000005,156.40000000000023 68.40000000000005,161.3000000000002 C 68.00000000000004,161.7000000000002 67.50000000000004,162.0000000000002 66.40000000000005,162.8000000000002 C 65.50000000000004,158.10000000000022 61.10000000000005,155.10000000000022 62.200000000000045,149.8000000000002 C 62.60000000000005,147.9000000000002 60.40000000000005,147.10000000000022 59.700000000000045,145.8000000000002 C 53.700000000000045,135.70000000000022 44.200000000000045,128.3000000000002 39.00000000000004,117.80000000000021 C 38.100000000000044,116.10000000000022 37.200000000000045,115.0000000000002 35.30000000000004,114.9000000000002 C 32.00000000000004,114.6000000000002 27.600000000000037,116.6000000000002 27.000000000000043,110.70000000000022 C 27.000000000000043,110.30000000000021 25.500000000000043,110.10000000000022 24.700000000000045,109.9000000000002 C 21.500000000000043,108.9000000000002 15.900000000000045,111.20000000000022 17.000000000000046,104.0000000000002 C 17.200000000000045,102.5000000000002 14.100000000000048,103.20000000000019 12.600000000000044,102.70000000000019 C 10.700000000000045,102.1000000000002 7.500000000000043,101.20000000000019 8.600000000000044,99.40000000000018 C 11.500000000000043,94.70000000000019 8.100000000000044,94.40000000000018 5.400000000000045,93.10000000000016 C 3.9000000000000448,92.40000000000018 2.0000000000000444,91.70000000000016 2.300000000000045,89.60000000000016 C 2.500000000000046,87.60000000000016 4.500000000000046,87.20000000000016 6.000000000000046,86.50000000000017 C 7.7000000000000455,85.60000000000016 9.900000000000045,85.40000000000018 11.700000000000045,83.00000000000017 C 7.899999999999999,79.90000000000012 2.3000000000000007,79.00000000000011 0.0,73.60000000000011"/>
</svg>
