<?xml version="1.0" ?>
<svg xmlns="http://www.w3.org/2000/svg" xmlns:ev="http://www.w3.org/2001/xml-events" xmlns:xlink="http://www.w3.org/1999/xlink" baseProfile="full" height="410" id="Layer_1" style="enable-background:new 0 0 500 500;" transform="scale(0.24390243902439024 0.24390243902439024) translate(-239.5 -205.0)" version="1.1" viewBox="0 0 479 410" width="479" x="0px" xml:space="preserve" y="0px">
	<defs/>
	<path d="M 317.3507419318129,242.70000000000005 C 332.25074193181285,242.40000000000003 346.05074193181287,242.30000000000007 359.75074193181285,240.60000000000002 C 368.95074193181284,239.40000000000003 377.55074193181287,235.8 385.75074193181285,231.40000000000003 C 396.65074193181283,225.50000000000006 408.25074193181285,222.90000000000003 420.55074193181287,223.8 C 428.95074193181284,224.40000000000003 436.6507419318129,226.60000000000002 442.25074193181285,233.60000000000002 C 446.3507419318129,238.70000000000005 452.15074193181283,240.70000000000005 458.15074193181283,242.3 C 463.65074193181283,243.7 469.0507419318128,245.0 474.5507419318128,246.5 C 476.2507419318128,247.0 478.15074193181283,247.60000000000002 478.2507419318128,249.89999999999998 C 478.3507419318128,252.5 476.2507419318128,253.29999999999995 474.2507419318128,253.79999999999995 C 467.2507419318128,255.59999999999997 460.0507419318128,256.19999999999993 452.8507419318128,255.99999999999994 C 445.7507419318128,255.79999999999995 439.45074193181284,257.29999999999995 432.95074193181284,260.29999999999995 C 420.25074193181285,265.99999999999994 406.3507419318128,267.59999999999997 392.75074193181285,270.29999999999995 C 392.25074193181285,270.4 391.75074193181285,270.4 391.25074193181285,270.49999999999994 C 365.75074193181285,274.3999999999999 365.05074193181287,274.79999999999995 347.15074193181283,293.3999999999999 C 340.15074193181283,300.69999999999993 331.25074193181285,305.49999999999994 322.75074193181285,310.5999999999999 C 316.95074193181284,314.0999999999999 311.95074193181284,318.19999999999993 307.55074193181287,323.3999999999999 C 299.8507419318129,332.5999999999999 290.45074193181284,339.5999999999999 279.55074193181287,344.49999999999994 C 268.55074193181287,349.49999999999994 258.1507419318129,355.29999999999995 248.25074193181285,362.29999999999995 C 233.75074193181285,372.69999999999993 218.05074193181287,380.9 199.95074193181284,382.79999999999995 C 197.15074193181283,383.09999999999997 195.75074193181285,384.29999999999995 195.55074193181284,386.99999999999994 C 194.95074193181284,393.99999999999994 190.55074193181284,397.8999999999999 184.35074193181285,400.3999999999999 C 177.95074193181284,402.8999999999999 171.45074193181284,405.3999999999999 165.05074193181284,407.99999999999994 C 161.05074193181284,409.59999999999997 156.95074193181284,408.8999999999999 152.85074193181285,408.99999999999994 C 150.55074193181284,409.09999999999997 148.95074193181284,407.79999999999995 147.65074193181286,406.19999999999993 C 144.95074193181287,403.0999999999999 148.55074193181287,403.29999999999995 149.75074193181285,402.19999999999993 C 150.05074193181287,401.99999999999994 150.15074193181286,401.19999999999993 150.05074193181287,400.79999999999995 C 148.05074193181287,396.99999999999994 149.75074193181285,395.79999999999995 153.45074193181287,395.69999999999993 C 154.55074193181287,395.69999999999993 155.35074193181288,394.8999999999999 154.95074193181287,393.5999999999999 C 154.65074193181286,392.3999999999999 153.55074193181287,391.8999999999999 152.65074193181286,391.9999999999999 C 150.15074193181286,392.1999999999999 147.65074193181286,392.89999999999986 145.05074193181287,393.0999999999999 C 133.05074193181287,394.0999999999999 121.05074193181285,394.7999999999999 108.95074193181286,394.9999999999999 C 106.35074193181286,394.9999999999999 103.75074193181285,394.89999999999986 101.45074193181286,393.7999999999999 C 96.75074193181285,391.5999999999999 92.15074193181286,389.8999999999999 86.85074193181286,390.7999999999999 C 85.95074193181286,390.9999999999999 84.65074193181286,390.4999999999999 83.95074193181286,389.8999999999999 C 80.55074193181285,386.7999999999999 76.75074193181285,386.5999999999999 72.45074193181286,387.69999999999993 C 69.15074193181286,388.49999999999994 66.25074193181285,387.19999999999993 64.95074193181286,383.8999999999999 C 63.65074193181287,380.5999999999999 66.05074193181285,378.69999999999993 68.35074193181286,376.99999999999994 C 76.65074193181286,370.99999999999994 85.05074193181287,365.09999999999997 93.35074193181286,359.09999999999997 C 105.05074193181287,350.59999999999997 115.45074193181286,340.79999999999995 123.25074193181287,328.4 C 126.65074193181287,322.9 131.0507419318129,318.2 135.6507419318129,313.79999999999995 C 140.4507419318129,309.19999999999993 144.75074193181288,303.99999999999994 147.85074193181288,297.99999999999994 C 148.85074193181288,295.99999999999994 149.75074193181288,294.29999999999995 146.55074193181287,293.49999999999994 C 144.45074193181287,292.99999999999994 144.15074193181286,290.8999999999999 144.15074193181286,289.09999999999997 C 144.05074193181287,284.99999999999994 143.35074193181285,280.7 144.35074193181285,276.79999999999995 C 146.85074193181285,267.29999999999995 142.15074193181286,260.4 136.75074193181285,253.99999999999994 C 133.05074193181287,249.69999999999993 128.95074193181284,245.89999999999992 127.85074193181283,239.99999999999994 C 127.35074193181283,237.49999999999994 125.75074193181284,236.69999999999993 123.55074193181282,236.39999999999992 C 119.05074193181282,235.7999999999999 116.85074193181282,232.99999999999994 116.45074193181283,228.69999999999993 C 116.15074193181283,225.89999999999992 115.15074193181283,224.0999999999999 111.75074193181283,223.89999999999992 C 108.05074193181282,223.69999999999993 107.75074193181283,220.5999999999999 107.95074193181283,217.5999999999999 C 108.15074193181283,213.9999999999999 106.45074193181283,212.7999999999999 102.85074193181283,212.69999999999993 C 95.45074193181283,212.5999999999999 95.25074193181284,212.19999999999993 95.55074193181284,204.69999999999993 C 95.55074193181284,203.69999999999993 95.55074193181284,202.5999999999999 95.65074193181283,201.5999999999999 C 96.05074193181284,198.39999999999992 95.35074193181283,196.19999999999993 91.45074193181283,195.99999999999994 C 85.75074193181283,195.79999999999995 82.85074193181283,192.19999999999993 81.55074193181282,186.89999999999992 C 79.95074193181283,180.69999999999993 77.45074193181283,175.79999999999995 70.35074193181282,173.69999999999993 C 66.15074193181282,172.39999999999992 62.35074193181283,168.69999999999993 64.05074193181282,163.09999999999997 C 64.55074193181282,161.39999999999998 63.950741931812836,160.69999999999993 62.55074193181283,160.29999999999995 C 56.85074193181283,158.79999999999995 53.150741931812824,154.19999999999993 48.55074193181283,150.99999999999994 C 47.35074193181283,150.0999999999999 45.45074193181283,148.89999999999992 46.35074193181283,147.39999999999992 C 48.55074193181283,143.5999999999999 46.150741931812824,142.69999999999993 43.55074193181283,141.19999999999993 C 39.25074193181283,138.79999999999995 36.35074193181283,134.69999999999993 32.55074193181283,131.59999999999997 C 30.65074193181283,129.99999999999994 30.350741931812827,128.19999999999993 32.35074193181283,126.39999999999996 C 34.750741931812826,124.19999999999997 33.35074193181283,122.89999999999996 31.350741931812827,121.69999999999997 C 26.350741931812827,118.79999999999997 22.850741931812827,114.29999999999997 19.250741931812826,109.99999999999999 C 16.050741931812823,106.09999999999998 16.350741931812827,105.49999999999999 21.250741931812826,104.3 C 22.150741931812824,104.10000000000001 23.250741931812826,104.3 24.150741931812824,102.89999999999999 C 22.45074193181282,100.09999999999998 19.45074193181282,98.59999999999998 17.050741931812823,96.39999999999999 C 14.25074193181282,93.8 11.45074193181282,91.09999999999998 8.75074193181282,88.39999999999999 C 7.850741931812822,87.49999999999999 7.050741931812821,86.39999999999999 7.650741931812819,84.99999999999999 C 8.45074193181282,83.3 9.95074193181282,83.3 11.550741931812817,83.69999999999997 C 13.750741931812817,84.19999999999997 15.95074193181282,84.59999999999998 18.550741931812816,85.19999999999997 C 18.450741931812814,81.79999999999997 16.050741931812816,80.99999999999997 14.350741931812818,79.79999999999997 C 8.150741931812819,75.29999999999997 4.150741931812819,69.09999999999997 0.6507419318128189,62.39999999999996 C 0.050741931812819274,61.19999999999996 -0.4492580681871807,59.99999999999996 0.6507419318128189,58.89999999999996 C 1.8507419318128182,57.79999999999997 3.0507419318128193,58.49999999999996 4.150741931812819,59.19999999999996 C 6.650741931812819,60.99999999999996 9.150741931812819,62.799999999999955 11.650741931812819,64.59999999999997 C 14.050741931812817,66.29999999999997 16.45074193181282,68.09999999999997 20.75074193181282,68.59999999999997 C 13.450741931812816,58.599999999999966 4.650741931812815,50.699999999999974 2.850741931812818,38.79999999999997 C 5.45074193181282,37.49999999999997 6.45074193181282,39.39999999999996 7.650741931812819,40.49999999999997 C 12.050741931812821,44.79999999999997 16.45074193181282,49.099999999999966 20.85074193181282,53.39999999999998 C 22.150741931812817,54.59999999999998 23.550741931812823,55.79999999999998 24.95074193181282,56.79999999999998 C 25.85074193181282,57.499999999999986 26.85074193181282,57.39999999999998 27.75074193181282,56.69999999999999 C 29.050741931812816,55.69999999999999 28.85074193181282,54.499999999999986 28.050741931812816,53.29999999999998 C 27.050741931812816,51.79999999999998 25.950741931812814,50.39999999999998 24.850741931812813,48.999999999999986 C 18.75074193181281,40.39999999999999 14.05074193181281,30.999999999999986 10.350741931812811,21.09999999999998 C 9.850741931812811,19.699999999999974 8.75074193181281,18.399999999999977 10.55074193181281,16.59999999999998 C 13.350741931812811,17.399999999999977 14.55074193181281,20.09999999999998 16.25074193181281,22.199999999999974 C 22.850741931812813,30.399999999999977 29.25074193181281,38.699999999999974 35.85074193181281,46.89999999999998 C 37.15074193181281,48.49999999999997 38.550741931812816,51.699999999999974 41.15074193181281,49.99999999999997 C 43.65074193181281,48.39999999999998 41.45074193181281,45.699999999999974 40.75074193181281,43.79999999999997 C 36.85074193181289,34.40000000000002 33.95074193181289,25.100000000000023 32.550741931812894,15.40000000000002 C 31.950741931812892,11.200000000000017 31.35074193181289,6.90000000000002 32.45074193181289,2.5000000000000213 C 37.150741931812895,13.40000000000002 39.95074193181289,25.100000000000023 46.25074193181289,35.40000000000002 C 45.15074193181289,23.700000000000017 42.55074193181289,12.000000000000021 47.65074193181289,2.1316282072803006e-14 C 50.55074193181289,2.0000000000000213 49.85074193181289,4.700000000000024 49.75074193181289,6.90000000000002 C 49.75074193181289,17.200000000000017 50.75074193181289,27.300000000000026 52.85074193181289,37.40000000000002 C 55.25074193181289,48.90000000000002 59.95074193181289,59.300000000000026 66.75074193181288,68.80000000000003 C 77.35074193181288,83.70000000000003 89.05074193181288,97.60000000000004 102.85074193181289,109.60000000000001 C 109.95074193181289,115.90000000000002 116.95074193181289,122.3 124.1507419318129,128.5 C 126.05074193181291,130.2 128.15074193181292,131.8 130.45074193181293,132.8 C 138.75074193181294,136.5 145.85074193181293,142.0 152.75074193181294,147.8 C 158.85074193181293,152.90000000000003 164.85074193181293,158.20000000000005 171.15074193181295,163.0 C 187.55074193181295,175.5 200.75074193181294,191.40000000000003 215.15074193181295,205.90000000000003 C 219.85074193181293,210.60000000000002 224.55074193181295,215.40000000000003 229.05074193181295,220.3 C 231.45074193181296,222.90000000000003 233.65074193181295,223.2 236.15074193181295,220.5 C 239.45074193181296,216.89999999999998 242.85074193181293,213.5 246.05074193181292,209.8 C 248.65074193181295,206.7 250.2507419318129,202.39999999999998 254.7507419318129,201.5 C 260.5507419318129,200.39999999999998 256.85074193181293,193.89999999999998 260.4507419318129,191.8 C 266.9507419318129,188.10000000000002 268.6507419318129,180.39999999999998 274.2507419318129,175.89999999999998 C 275.4507419318129,175.0 276.35074193181293,173.09999999999997 277.9507419318129,173.7 C 283.3507419318129,175.8 284.5507419318129,172.39999999999998 286.7507419318129,168.60000000000002 C 288.5507419318129,165.5 292.35074193181293,163.40000000000003 295.35074193181293,161.10000000000002 C 296.65074193181295,160.10000000000002 298.45074193181296,160.10000000000002 299.7507419318129,160.90000000000003 C 304.5507419318129,163.8 305.9507419318129,160.70000000000005 307.1507419318129,157.0 C 308.3507419318129,153.2 310.9507419318129,150.3 313.8507419318129,147.8 C 317.8507419318129,144.40000000000003 318.8507419318129,144.5 322.75074193181285,148.40000000000003 C 323.65074193181283,149.3 324.45074193181284,150.20000000000005 325.25074193181285,151.10000000000002 C 327.8507419318129,150.3 327.15074193181283,148.10000000000002 327.65074193181283,146.5 C 329.5507419318128,140.5 332.45074193181284,135.10000000000002 336.8507419318128,130.7 C 340.8507419318128,126.7 343.2507419318128,127.2 345.15074193181283,132.5 C 346.3507419318128,135.90000000000003 347.0507419318128,139.40000000000003 348.15074193181283,142.8 C 348.5507419318128,144.0 348.95074193181284,145.40000000000003 350.65074193181283,145.10000000000002 C 351.8507419318128,144.90000000000003 352.25074193181285,144.00000000000006 352.65074193181283,143.00000000000006 C 354.15074193181283,138.90000000000003 355.75074193181285,134.80000000000007 357.0507419318128,130.70000000000005 C 359.2507419318128,123.80000000000003 362.7507419318128,117.60000000000004 367.2507419318128,111.90000000000002 C 368.3507419318128,110.50000000000001 369.6507419318128,108.90000000000002 371.6507419318128,109.60000000000001 C 373.6507419318128,110.3 373.85074193181276,112.2 373.85074193181276,114.10000000000001 C 373.75074193181274,119.2 373.6507419318128,124.40000000000002 373.6507419318128,129.5 C 373.6507419318128,132.0 372.9507419318128,134.60000000000002 374.05074193181275,137.0 C 376.25074193181274,138.0 376.85074193181276,136.40000000000003 377.55074193181275,135.10000000000002 C 380.95074193181273,128.8 384.25074193181274,122.40000000000002 387.6507419318128,116.10000000000001 C 390.9507419318128,109.8 395.6507419318128,104.8 401.85074193181276,101.3 C 403.35074193181276,100.49999999999999 405.05074193181275,98.89999999999999 406.75074193181274,100.2 C 408.6507419318127,101.7 407.05074193181275,103.50000000000001 406.45074193181273,105.00000000000001 C 403.3507419318127,112.60000000000001 400.1507419318127,120.10000000000001 397.1507419318127,127.80000000000003 C 396.45074193181273,129.60000000000002 395.25074193181274,131.5 396.45074193181273,134.0 C 399.05074193181275,132.40000000000003 398.95074193181273,129.60000000000002 399.75074193181274,127.40000000000002 C 402.95074193181273,118.30000000000003 407.6507419318127,110.20000000000003 414.45074193181273,103.30000000000003 C 415.45074193181273,102.30000000000003 416.55074193181275,100.60000000000004 418.25074193181274,101.40000000000002 C 420.45074193181273,102.30000000000003 419.6507419318127,104.40000000000002 419.35074193181276,106.10000000000001 C 412.6507419318128,138.10000000000002 402.1507419318128,168.40000000000003 379.6507419318128,193.2 C 377.7507419318128,195.3 375.85074193181276,197.39999999999998 374.2507419318128,199.7 C 364.0507419318128,214.40000000000003 349.7507419318128,223.5 333.5507419318128,230.0 C 324.8507419318129,233.20000000000005 321.6507419318129,236.00000000000006 317.3507419318129,242.70000000000005"/>
</svg>
