<?xml version="1.0" ?>
<svg xmlns="http://www.w3.org/2000/svg" xmlns:ev="http://www.w3.org/2001/xml-events" xmlns:xlink="http://www.w3.org/1999/xlink" baseProfile="full" height="464" id="Layer_1" style="enable-background:new 0 0 500 500;" transform="scale(0.411522633744856 0.411522633744856) translate(-121.5 -232.0)" version="1.1" viewBox="0 0 243 464" width="243" x="0px" xml:space="preserve" y="0px">
	<defs/>
	<path d="M 115.23154986406223,449.1497785434754 C 104.13154986406224,451.1497785434754 94.23154986406223,453.74977854347543 84.13154986406224,454.9497785434754 C 77.23154986406223,455.74977854347543 70.53154986406224,457.74977854347543 65.03154986406224,462.4497785434754 C 62.73154986406223,464.4497785434754 60.73154986406223,464.04977854347544 59.831549864062254,460.9497785434754 C 57.73154986406226,453.54977854347544 51.93154986406225,451.9497785434754 45.23154986406226,451.54977854347544 C 40.631549864062265,451.34977854347545 36.03154986406227,451.24977854347543 31.431549864062248,450.84977854347545 C 28.031549864062242,450.54977854347544 24.631549864062237,449.64977854347546 23.631549864062237,445.84977854347545 C 22.531549864062242,441.54977854347544 25.23154986406223,438.9497785434755 28.531549864062242,437.14977854347546 C 33.43154986406225,434.4497785434755 38.53154986406224,432.14977854347546 43.63154986406224,429.84977854347545 C 50.831549864062225,426.54977854347544 58.03154986406224,423.34977854347545 65.23154986406223,420.04977854347544 C 72.63154986406224,416.64977854347546 76.23154986406223,411.14977854347546 75.43154986406222,402.74977854347543 C 74.53154986406221,393.54977854347544 73.93154986406222,384.34977854347545 73.53154986406221,375.1497785434754 C 73.33154986406223,370.5497785434754 71.2315498640622,368.0497785434754 67.13154986406221,366.24977854347543 C 40.3315498640622,355.1497785434754 22.131549864062208,334.84977854347545 7.831549864062197,310.24977854347543 C -2.2684501359377975,292.84977854347545 -1.9684501359378004,275.1497785434754 5.131549864062208,257.04977854347544 C 13.231549864062202,236.44977854347545 25.231549864062202,218.04977854347544 41.43154986406222,203.34977854347545 C 60.13154986406221,186.34977854347545 65.33154986406223,163.64977854347546 71.33154986406223,141.24977854347546 C 74.33154986406223,129.94977854347545 71.33154986406223,118.34977854347545 68.93154986406222,106.94977854347545 C 66.03154986406221,92.74977854347546 61.831549864062225,78.84977854347545 61.13154986406221,64.14977854347546 C 60.63154986406221,55.149778543475456 61.2315498640622,46.34977854347546 63.13154986406221,37.549778543475455 C 69.8315498640622,7.249778543475454 96.63154986406221,-7.350221456524544 125.8315498640622,3.649778543475456 C 142.03154986406219,9.749778543475458 154.43154986406222,20.649778543475456 159.43154986406222,37.549778543475455 C 163.6315498640622,51.649778543475456 171.6315498640622,61.94977854347545 183.6315498640622,70.04977854347547 C 192.93154986406222,76.24977854347546 201.6315498640622,83.44977854347547 210.43154986406222,90.34977854347545 C 218.43154986406222,96.54977854347547 217.73154986406223,102.04977854347547 208.53154986406224,106.54977854347547 C 205.53154986406224,107.94977854347547 202.43154986406222,109.14977854347546 199.03154986406224,109.14977854347546 C 181.23154986406223,108.84977854347545 164.13154986406226,105.84977854347545 150.13154986406226,93.74977854347546 C 144.33154986406225,88.74977854347546 137.93154986406228,86.24977854347546 130.2315498640623,86.84977854347545 C 125.33154986406228,87.24977854347546 121.93154986406228,89.34977854347545 121.33154986406228,94.34977854347545 C 119.43154986406228,112.34977854347545 116.6315498640623,130.44977854347545 122.6315498640623,148.24977854347546 C 125.9315498640623,157.94977854347545 129.63154986406226,167.44977854347545 130.8315498640623,177.74977854347546 C 131.43154986406233,182.84977854347545 134.5315498640623,185.24977854347546 139.13154986406232,186.34977854347545 C 145.93154986406233,188.04977854347544 152.73154986406234,188.44977854347545 159.73154986406234,187.64977854347546 C 186.33154986406237,184.64977854347546 208.23154986406234,193.94977854347547 225.73154986406234,213.94977854347547 C 228.33154986406237,216.94977854347547 230.93154986406233,220.04977854347547 231.93154986406233,223.94977854347547 C 237.13154986406232,243.44977854347547 242.03154986406236,262.9497785434755 242.53154986406236,283.2497785434755 C 242.93154986406233,301.8497785434755 236.83154986406237,318.14977854347546 224.93154986406233,332.4497785434755 C 220.53154986406236,337.7497785434755 216.3315498640623,343.34977854347545 212.03154986406236,348.7497785434755 C 208.33154986406237,353.3497785434755 207.13154986406238,358.64977854347546 207.63154986406238,364.4497785434755 C 209.53154986406236,385.5497785434755 208.83154986406237,406.64977854347546 208.33154986406237,427.7497785434755 C 208.03154986406236,440.64977854347546 202.4315498640624,450.4497785434755 192.4315498640624,458.14977854347546 C 186.0315498640624,463.04977854347544 180.7315498640624,463.9497785434755 174.4315498640624,458.84977854347545 C 165.2315498640624,451.4497785434755 155.33154986406237,449.24977854347543 143.9315498640624,450.64977854347546 C 137.4315498640624,451.4497785434755 136.33154986406237,449.54977854347544 138.7315498640624,443.4497785434755 C 141.13154986406238,437.34977854347545 144.33154986406242,431.34977854347545 140.9315498640624,424.5497785434755 C 139.4315498640624,421.6497785434755 141.5315498640624,420.2497785434755 144.0315498640624,419.7497785434755 C 146.63154986406244,419.2497785434755 149.33154986406242,418.4497785434755 151.83154986406242,418.7497785434755 C 161.83154986406242,420.0497785434755 171.5315498640624,417.8497785434755 181.33154986406242,416.2497785434755 C 190.13154986406244,414.7497785434755 192.93154986406245,411.2497785434755 193.43154986406245,402.2497785434755 C 193.93154986406245,391.9497785434755 192.43154986406245,381.8497785434755 191.13154986406244,371.7497785434755 C 190.5315498640624,366.7497785434755 193.73154986406246,359.7497785434755 188.83154986406242,357.3497785434755 C 185.0315498640624,355.44977854347553 180.43154986406245,361.2497785434755 175.83154986406242,362.94977854347553 C 173.0315498640624,363.94977854347553 170.13154986406244,365.1497785434755 168.0315498640624,367.04977854347555 C 159.7315498640624,374.24977854347554 149.9315498640624,376.04977854347555 139.5315498640624,376.24977854347554 C 125.03154986406241,376.54977854347555 110.6315498640624,378.1497785434755 96.2315498640624,374.6497785434755 C 88.93154986406239,372.8497785434755 86.8315498640624,375.1497785434755 87.1315498640624,382.94977854347553 C 87.43154986406242,391.8497785434755 90.03154986406241,399.8497785434755 96.43154986406242,406.24977854347554 C 98.53154986406241,408.34977854347557 100.6315498640624,410.44977854347553 102.6315498640624,412.6497785434755 C 104.43154986406242,414.5497785434755 104.6315498640624,416.24977854347554 102.7315498640624,418.6497785434755 C 98.1315498640624,424.6497785434755 98.3315498640624,424.74977854347554 103.53154986406241,430.5497785434755 C 108.23154986406223,435.8497785434754 113.53154986406221,440.8497785434754 115.23154986406223,449.1497785434754"/>
</svg>
