<?xml version="1.0" ?>
<svg xmlns="http://www.w3.org/2000/svg" xmlns:ev="http://www.w3.org/2001/xml-events" xmlns:xlink="http://www.w3.org/1999/xlink" baseProfile="full" height="363" id="Layer_1" style="enable-background:new 0 0 500 500;" transform="scale(0.27548209366391185 0.27548209366391185) translate(-245.0 -181.5)" version="1.1" viewBox="0 0 490 363" width="490" x="0px" xml:space="preserve" y="0px">
	<defs/>
	<path class="st0" d="M 204.9,235.3 C 177.4,236.40000000000003 124.20000000000002,214.10000000000002 104.9,201.3 C 97.10000000000001,196.10000000000002 93.2,192.3 83.10000000000001,189.10000000000002 C 59.5,181.60000000000002 52.80000000000001,196.10000000000002 31.000000000000007,201.10000000000002 C 19.10000000000001,203.8 7.800000000000008,198.10000000000002 7.105427357601002e-15,205.20000000000005 C 7.105427357601002e-15,221.30000000000007 44.50000000000001,227.10000000000002 57.60000000000001,229.50000000000006 C 81.0,233.90000000000003 94.4,244.50000000000006 112.5,257.00000000000006 C 120.4,262.40000000000003 127.80000000000001,268.70000000000005 135.8,274.80000000000007 C 143.8,280.9000000000001 150.5,287.00000000000006 158.4,293.30000000000007 L 179.8,313.00000000000006 C 187.20000000000002,318.90000000000003 197.0,326.1000000000001 204.60000000000002,330.90000000000003 C 245.9,357.1 282.5,363.00000000000006 337.70000000000005,362.3 C 394.4,361.6 423.80000000000007,344.2 489.30000000000007,350.90000000000003 C 486.30000000000007,344.00000000000006 453.4000000000001,317.90000000000003 445.5,311.90000000000003 C 434.6,303.50000000000006 408.5,283.6 395.9,279.1 C 397.6,271.90000000000003 409.70000000000005,253.40000000000003 414.1,244.70000000000005 C 419.29999999999995,234.40000000000003 427.0,218.60000000000002 429.70000000000005,207.10000000000002 C 429.30000000000007,207.3 428.70000000000005,207.3 428.5,207.90000000000003 L 423.70000000000005,211.90000000000003 C 418.30000000000007,216.8 413.6,221.8 407.1,222.60000000000002 C 419.9,207.40000000000003 438.1,165.20000000000002 437.29999999999995,147.10000000000002 C 434.79999999999995,152.40000000000003 425.19999999999993,166.00000000000003 418.69999999999993,168.90000000000003 C 420.69999999999993,162.00000000000003 424.79999999999995,156.20000000000005 429.0,140.40000000000003 C 432.0,129.30000000000004 434.5,116.90000000000003 434.29999999999995,104.10000000000002 C 429.19999999999993,109.00000000000003 429.0,111.80000000000001 425.69999999999993,116.80000000000001 C 423.0,120.9 419.9,124.0 417.4,127.30000000000001 C 418.5999999999999,111.80000000000001 427.0999999999999,96.9 424.0999999999999,61.5 C 419.5999999999999,64.9 412.4999999999999,86.80000000000001 402.5999999999999,88.69999999999999 C 406.4999999999999,70.79999999999998 414.4999999999999,24.39999999999999 399.4999999999999,10.999999999999986 C 390.5999999999999,42.89999999999998 377.39999999999986,72.5 360.9999999999999,100.5 C 353.0999999999999,114.1 316.29999999999995,167.4 305.4999999999999,173.0 C 297.29999999999995,162.5 301.5999999999999,155.3 299.79999999999995,137.4 L 294.0999999999999,145.6 C 292.0999999999999,126.19999999999999 296.9,100.39999999999998 284.69999999999993,87.19999999999999 C 283.0,95.79999999999998 280.19999999999993,108.79999999999998 274.5999999999999,114.5 C 274.4,114.1 274.19999999999993,87.19999999999999 273.5999999999999,81.5 C 272.4999999999999,72.0 269.5999999999999,55.7 262.9,52.7 C 260.0999999999999,64.0 260.5,82.4 251.49999999999997,89.0 C 252.29999999999998,76.0 252.6,31.700000000000003 237.19999999999996,22.400000000000006 C 237.69999999999996,40.30000000000001 236.09999999999997,46.5 230.99999999999997,60.10000000000002 L 228.29999999999998,51.10000000000002 C 225.79999999999998,35.90000000000002 221.49999999999997,18.50000000000003 211.79999999999998,6.300000000000026 C 211.39999999999998,5.700000000000031 209.6,3.7000000000000313 208.99999999999997,3.1000000000000227 C 206.19999999999996,0.8000000000000256 207.99999999999997,2.1000000000000227 204.39999999999998,2.842170943040401e-14 C 212.99999999999997,50.800000000000026 212.99999999999997,63.700000000000045 198.39999999999998,118.30000000000001 C 183.9,172.10000000000002 206.1,201.2 204.9,235.3 L 204.9,235.3 M 67.6,198.90000000000003 C 70.6,198.90000000000003 73.1,201.50000000000006 73.1,204.8 C 73.1,208.0 70.6,210.7 67.6,210.7 C 64.5,210.7 62.099999999999994,208.0 62.099999999999994,204.8 C 62.099999999999994,201.5 64.6,198.90000000000003 67.6,198.90000000000003 L 67.6,198.90000000000003"/>
</svg>
