<?xml version="1.0" ?>
<svg xmlns="http://www.w3.org/2000/svg" xmlns:ev="http://www.w3.org/2001/xml-events" xmlns:xlink="http://www.w3.org/1999/xlink" baseProfile="full" height="415" id="Layer_1" style="enable-background:new 0 0 500 500;" transform="scale(0.24096385542168675 0.24096385542168675) translate(-221.0 -207.5)" version="1.1" viewBox="0 0 442 415" width="442" x="0px" xml:space="preserve" y="0px">
	<defs/>
	<path d="M 429.20890768893935,259.3998714652248 C 432.1089076889393,263.2998714652248 437.80890768893937,261.1998714652248 441.6089076889393,265.0998714652248 C 437.70890768893935,266.7998714652248 434.8089076889393,269.2998714652248 431.1089076889393,269.3998714652248 C 416.3089076889393,269.6998714652248 404.70890768893935,278.0998714652248 392.20890768893935,284.0998714652248 C 379.30890768893937,290.1998714652248 369.90890768893934,300.0998714652248 362.20890768893935,311.5998714652248 C 358.80890768893937,316.6998714652248 354.20890768893935,318.2998714652248 348.80890768893937,319.3998714652248 C 331.80890768893937,322.6998714652248 314.9089076889394,326.0998714652248 298.00890768893936,329.3998714652248 C 296.90890768893934,329.5998714652248 295.80890768893937,329.6998714652248 294.80890768893937,330.0998714652248 C 275.30890768893937,336.99987146522477 255.50890768893936,335.5998714652248 235.60890768893938,332.49987146522477 C 231.50890768893936,331.89987146522475 230.50890768893936,333.2998714652248 229.60890768893938,336.7998714652248 C 226.80890768893937,348.0998714652248 223.50890768893936,359.19987146522476 220.9089076889394,370.49987146522477 C 219.50890768893936,376.89987146522475 217.4089076889394,383.69987146522476 222.7089076889394,389.5998714652248 C 223.50890768893942,390.49987146522477 223.9089076889394,392.0998714652248 224.00890768893942,393.3998714652248 C 224.2089076889394,395.4998714652248 223.7089076889394,397.2998714652248 220.80890768893943,396.2998714652248 C 218.80890768893943,395.5998714652248 216.80890768893943,395.0998714652248 214.4089076889394,394.2998714652248 C 212.50890768893942,404.69987146522476 202.80890768893943,402.99987146522477 196.2089076889394,405.3998714652248 C 187.10890768893944,408.5998714652248 177.30890768893943,409.6998714652248 167.7089076889394,410.8998714652248 C 161.00890768893942,411.6998714652248 154.30890768893943,412.7998714652248 147.7089076889394,413.5998714652248 C 144.60890768893944,413.99987146522477 141.30890768893943,415.0998714652248 138.50890768893942,412.49987146522477 C 137.80890768893943,411.7998714652248 135.90890768893945,411.99987146522477 136.50890768893942,410.49987146522477 C 138.80890768893943,404.5998714652248 133.80890768893943,404.7998714652248 130.90890768893945,404.2998714652248 C 125.70890768893945,403.49987146522477 121.10890768893942,399.99987146522477 114.70890768893945,401.19987146522476 C 118.60890768893945,395.7998714652248 124.00890768893946,397.89987146522475 128.30890768893943,396.89987146522475 C 132.60890768893944,395.89987146522475 137.20890768893946,396.09987146522474 141.60890768893944,395.09987146522474 C 135.30890768893943,391.7998714652247 128.50890768893947,390.89987146522475 121.80890768893944,389.69987146522476 C 117.00890768893943,388.89987146522475 112.20890768893945,387.99987146522477 107.40890768893944,387.2998714652248 C 101.40890768893944,386.2998714652248 95.60890768893944,383.2998714652248 88.40890768893944,387.0998714652248 C 91.90890768893944,379.6998714652248 97.80890768893944,380.6998714652248 102.40890768893944,378.99987146522477 C 103.00890768893943,371.69987146522476 103.00890768893943,371.7998714652248 110.00890768893943,371.0998714652248 C 124.80890768893944,369.6998714652248 139.60890768893944,370.3998714652248 154.40890768893945,371.7998714652248 C 162.70890768893946,372.5998714652248 162.40890768893945,372.19987146522476 165.10890768893944,364.49987146522477 C 168.50890768893942,354.5998714652248 172.50890768893942,344.7998714652248 176.30890768893943,334.99987146522477 C 178.60890768893944,328.99987146522477 178.50890768893942,328.5998714652248 172.4089076889394,327.69987146522476 C 153.2089076889394,324.99987146522477 135.30890768893943,318.49987146522477 117.90890768893941,310.2998714652248 C 115.70890768893942,309.2998714652248 113.40890768893941,308.2998714652248 111.40890768893941,306.99987146522477 C 87.80890768893941,290.7998714652248 61.40890768893941,278.89987146522475 38.90890768893941,261.19987146522476 C 11.908907688939408,239.99987146522477 0.4089076889394079,211.69987146522476 6.508907688939409,176.79987146522478 C 10.808907688939406,152.19987146522476 26.308907688939414,135.99987146522477 45.20890768893942,122.29987146522477 C 57.20890768893942,113.59987146522478 70.30890768893941,106.49987146522476 83.40890768893942,99.59987146522478 C 84.80890768893943,98.89987146522479 86.40890768893942,98.19987146522477 87.50890768893942,97.09987146522478 C 90.00890768893942,94.49987146522479 89.10890768893941,90.49987146522479 85.70890768893942,89.39987146522479 C 82.10890768893942,88.1998714652248 78.40890768893942,87.49987146522479 74.80890768893941,86.49987146522479 C 71.20890768893942,85.49987146522479 68.70890768893942,87.59987146522478 65.80890768893941,89.19987146522477 C 50.308907688939414,97.89987146522476 35.10890768893941,107.19987146522477 18.10890768893941,113.09987146522478 C 15.808907688939414,113.89987146522479 13.50890768893941,114.69987146522477 11.00890768893941,114.29987146522477 C 9.308907688939406,113.99987146522476 0.5089076889394093,104.49987146522476 0.10890768893941072,102.69987146522477 C -0.3910923110605893,100.49987146522479 0.9089076889394114,98.99987146522479 2.4089076889394114,97.89987146522476 C 6.008907688939409,94.99987146522476 9.50890768893941,92.09987146522475 13.308907688939414,89.59987146522475 C 22.408907688939415,83.59987146522475 30.308907688939414,76.29987146522475 38.20890768893942,68.99987146522476 C 43.808907688939414,63.799871465224754 47.20890768893942,57.89987146522476 46.70890768893942,49.799871465224754 C 45.80890768893934,30.999871465224842 64.60890768893934,3.9998714652248424 90.10890768893934,0.5998714652248438 C 106.00890768893935,-1.5001285347751576 120.00890768893935,1.7998714652248466 132.30890768893937,12.29987146522484 C 138.00890768893936,17.29987146522484 143.30890768893937,22.599871465224837 148.20890768893935,28.399871465224848 C 161.70890768893935,44.09987146522485 165.00890768893936,62.49987146522484 162.40890768893934,82.19987146522485 C 160.60890768893933,95.29987146522485 157.70890768893935,108.19987146522483 155.40890768893934,121.19987146522483 C 154.20890768893935,127.79987146522483 154.30890768893937,128.19987146522482 161.00890768893936,128.19987146522482 C 185.80890768893937,128.3998714652248 209.80890768893937,132.8998714652248 233.30890768893937,140.49987146522483 C 245.10890768893938,144.29987146522484 257.4089076889394,146.39987146522486 268.6089076889394,152.19987146522482 C 271.9089076889394,153.8998714652248 275.7089076889394,154.79987146522484 279.4089076889394,155.49987146522483 C 299.5089076889394,159.19987146522482 317.2089076889394,167.89987146522486 332.4089076889394,181.49987146522483 C 334.0089076889394,182.89987146522486 335.9089076889394,184.09987146522485 337.80890768893937,184.89987146522486 C 351.00890768893936,190.69987146522487 362.70890768893935,198.89987146522486 374.20890768893935,207.49987146522483 C 379.70890768893935,211.59987146522485 384.50890768893936,216.29987146522484 387.40890768893934,222.49987146522483 C 389.20890768893935,226.29987146522484 391.70890768893935,227.3998714652248 395.50890768893936,227.3998714652248 C 401.90890768893934,227.3998714652248 407.80890768893937,230.49987146522483 414.40890768893934,230.79987146522478 C 420.70890768893935,231.0998714652248 424.90890768893934,237.19987146522476 424.00890768893936,243.5998714652248 C 423.30890768893937,248.49987146522477 424.70890768893935,251.29987146522478 428.80890768893937,253.3998714652248 C 430.00890768893936,253.99987146522483 430.9089076889394,255.0998714652248 431.80890768893937,256.0998714652248 C 432.50890768893936,256.7998714652248 433.4089076889394,257.8998714652248 432.80890768893937,258.7998714652248 C 431.9089076889394,260.0998714652248 430.30890768893937,259.19987146522476 429.00890768893936,259.49987146522477 C 427.1089076889394,257.39987146522475 424.90890768893934,257.99987146522477 421.50890768893936,258.49987146522477 C 424.80890768893937,259.9998714652248 427.00890768893936,260.3998714652248 429.20890768893935,259.3998714652248 M 197.00890768893936,380.59987146522485 C 202.40890768893934,371.59987146522485 205.30890768893937,363.39987146522486 208.40890768893934,355.09987146522485 C 211.30890768893937,347.39987146522486 208.20890768893935,339.6998714652249 210.10890768893933,332.1998714652249 C 207.10890768893933,330.6998714652249 204.40890768893934,331.1998714652249 201.8089076889393,331.09987146522485 C 194.0089076889393,330.89987146522486 192.8089076889393,331.39987146522486 191.10890768893933,338.59987146522485 C 189.40890768893934,345.89987146522486 188.70890768893935,353.39987146522486 187.8089076889393,360.89987146522486 C 187.5089076889393,363.29987146522484 188.20890768893935,365.6998714652249 189.70890768893935,367.6998714652249 C 192.40890768893934,371.29987146522484 194.40890768893934,375.3998714652248 197.00890768893936,380.59987146522485 M 169.80890768893937,390.4998714652248 C 178.30890768893937,391.4998714652248 185.40890768893934,391.6998714652248 192.50890768893936,391.4998714652248 C 197.10890768893933,391.3998714652248 198.10890768893933,389.6998714652248 196.10890768893933,385.3998714652248 C 193.8089076889393,380.5998714652248 189.20890768893935,378.0998714652248 185.00890768893936,374.6998714652248 C 180.90890768893934,380.3998714652248 175.60890768893933,384.6998714652248 169.80890768893937,390.4998714652248 M 410.6089076889394,235.8998714652248 C 410.80890768893937,237.69987146522482 410.7089076889394,239.49987146522483 411.1089076889394,241.19987146522482 C 411.6089076889394,243.19987146522482 413.30890768893937,244.5998714652248 415.2089076889394,243.49987146522483 C 416.8089076889394,242.59987146522485 415.8089076889394,240.59987146522485 415.0089076889394,239.29987146522484 C 414.1089076889394,237.79987146522484 413.50890768893936,235.8998714652248 410.6089076889394,235.8998714652248 M 396.40890768893934,234.49987146522483 C 397.50890768893936,236.29987146522484 399.00890768893936,237.09987146522485 400.8089076889393,237.49987146522483 C 401.7089076889393,237.69987146522482 402.3089076889393,237.3998714652248 402.2089076889393,236.29987146522484 C 400.70890768893935,234.8998714652248 399.00890768893936,233.69987146522482 396.40890768893934,234.49987146522483"/>
</svg>
