<?xml version="1.0" ?>
<svg xmlns="http://www.w3.org/2000/svg" xmlns:ev="http://www.w3.org/2001/xml-events" xmlns:xlink="http://www.w3.org/1999/xlink" baseProfile="full" height="399" id="Layer_1" style="enable-background:new 0 0 500 500;" transform="scale(0.2506265664160401 0.2506265664160401) translate(-238.0 -199.5)" version="1.1" viewBox="0 0 476 399" width="476" x="0px" xml:space="preserve" y="0px">
	<defs/>
	<path d="M 460.22464716819127,389.80100322326365 C 448.42464716819126,390.9010032232637 438.22464716819127,381.7010032232636 425.62464716819125,382.80100322326365 C 427.12464716819125,388.80100322326365 433.22464716819127,388.30100322326365 436.72464716819127,391.50100322326364 C 436.12464716819125,394.10100322326366 433.8246471681913,394.80100322326365 431.72464716819127,394.60100322326366 C 415.72464716819127,393.50100322326364 399.92464716819126,397.30100322326365 384.12464716819125,397.4010032232637 C 365.62464716819125,397.5010032232637 347.22464716819127,399.10100322326366 328.72464716819127,398.0010032232637 C 296.8246471681913,396.0010032232637 265.12464716819125,392.7010032232637 234.52464716819128,382.7010032232637 C 217.42464716819126,377.10100322326366 200.72464716819127,370.60100322326366 184.22464716819127,363.60100322326366 C 169.12464716819125,357.2010032232637 155.52464716819128,348.2010032232637 144.32464716819123,336.2010032232637 C 131.42464716819126,322.4010032232637 116.22464716819125,313.3010032232637 97.62464716819125,309.8010032232637 C 86.42464716819124,307.7010032232637 75.42464716819124,304.90100322326373 64.22464716819125,302.7010032232637 C 52.42464716819126,300.4010032232637 40.42464716819126,300.3010032232637 28.424647168191257,301.5010032232637 C 20.224647168191254,302.3010032232637 11.924647168191257,302.6010032232637 3.624647168191256,302.4010032232637 C 2.3246471681912553,302.4010032232637 0.624647168191256,302.80100322326365 0.12464716819125599,301.0010032232637 C -0.375352831808744,299.4010032232637 0.7246471681912556,298.3010032232637 1.7246471681912556,297.3010032232637 C 4.224647168191254,294.8010032232637 7.224647168191254,293.2010032232637 10.524647168191258,292.2010032232637 C 14.824647168191259,290.9010032232637 19.32464716819126,289.7010032232637 23.724647168191254,288.7010032232637 C 34.92464716819126,286.10100322326366 44.62464716819125,280.60100322326366 51.42464716819126,271.3010032232637 C 60.82464716819126,258.2010032232637 73.92464716819126,255.8010032232637 88.42464716819126,256.90100322326373 C 102.52464716819125,257.90100322326373 114.82464716819125,263.40100322326373 125.62464716819126,272.50100322326375 C 127.32464716819125,274.00100322326375 129.12464716819125,275.50100322326375 130.92464716819126,276.90100322326373 C 142.3246471681913,285.8010032232637 155.12464716819125,290.40100322326373 169.52464716819128,291.1010032232637 C 177.12464716819125,291.40100322326373 183.3246471681913,288.90100322326373 188.92464716819126,283.90100322326373 C 194.3246471681913,279.00100322326375 196.8246471681913,273.6010032232637 196.62464716819125,265.90100322326373 C 195.82464716819123,244.20100322326374 193.92464716819126,222.50100322326375 189.12464716819125,201.5010032232637 C 186.12464716819125,188.60100322326372 184.42464716819126,175.40100322326373 180.72464716819127,162.5010032232637 C 177.52464716819128,151.20100322326368 176.82464716819123,138.8010032232637 183.32464716819123,127.6010032232637 C 184.82464716819123,125.00100322326371 185.22464716819127,122.2010032232637 184.82464716819123,119.30100322326369 C 182.22464716819127,102.90100322326369 186.02464716819122,87.00100322326368 189.02464716819122,71.10100322326369 C 193.02464716819122,50.00100322326368 201.12464716819125,30.201003223263697 208.52464716819122,10.20100322326369 C 210.02464716819122,6.101003223263689 211.12464716819125,0.0010032232636945082 216.2246471681912,0.0010032232636945082 C 222.4246471681912,-0.09899677673630691 219.62464716819125,7.301003223263692 222.62464716819125,11.401003223263693 C 224.62464716819125,9.301003223263692 226.32464716819123,7.20100322326369 228.2246471681912,5.401003223263693 C 231.52464716819122,2.401003223263693 233.52464716819122,2.8010032232636917 235.2246471681912,7.0010032232636945 C 236.52464716819122,10.101003223263696 237.12464716819125,13.4010032232637 238.2246471681912,17.001003223263695 C 239.7246471681912,16.10100322326369 241.02464716819122,15.4010032232637 242.12464716819125,14.601003223263689 C 245.42464716819126,12.20100322326369 248.02464716819122,12.601003223263689 249.52464716819122,16.501003223263695 C 250.9246471681912,20.001003223263695 253.2246471681912,22.501003223263695 255.82464716819123,25.201003223263697 C 259.12464716819125,28.701003223263697 259.7246471681912,33.9010032232637 259.82464716819123,38.80100322326369 C 259.82464716819123,40.401003223263686 259.5246471681912,42.501003223263695 262.12464716819125,42.401003223263686 C 268.42464716819126,42.10100322326369 269.22464716819127,47.00100322326368 270.5246471681912,51.30100322326369 C 271.7246471681912,55.2010032232637 270.4246471681912,59.2010032232637 270.4246471681912,63.401003223263686 C 272.7246471681912,65.90100322326369 277.2246471681912,62.80100322326369 279.3246471681912,66.60100322326369 C 281.52464716819117,70.70100322326368 282.8246471681912,75.0010032232637 282.52464716819117,79.7010032232637 C 282.3246471681912,83.2010032232637 282.42464716819114,85.80100322326369 286.3246471681912,88.1010032232637 C 291.6246471681912,91.1010032232637 291.3246471681912,97.40100322326371 291.1246471681912,102.7010032232637 C 290.9246471681912,106.6010032232637 290.9246471681912,109.7010032232637 294.02464716819117,112.7010032232637 C 297.1246471681912,115.7010032232637 296.8246471681912,120.00100322326371 296.3246471681912,124.00100322326371 C 295.72464716819115,128.60100322326372 295.8246471681912,132.90100322326373 298.22464716819115,137.20100322326368 C 300.52464716819117,141.20100322326368 299.22464716819115,145.5010032232637 297.72464716819115,149.60100322326372 C 296.52464716819117,152.8010032232637 295.42464716819114,155.40100322326373 298.22464716819115,159.0010032232637 C 301.72464716819115,163.5010032232637 298.92464716819114,168.8010032232637 295.8246471681912,172.20100322326368 C 292.3246471681912,176.10100322326372 292.3246471681912,179.40100322326367 294.22464716819115,183.70100322326368 C 302.42464716819114,202.40100322326367 306.02464716819117,222.3010032232637 308.72464716819115,242.40100322326373 C 309.12464716819113,245.10100322326372 308.8246471681912,248.20100322326374 310.92464716819114,250.90100322326373 C 324.3246471681911,248.8010032232637 337.52464716819117,245.40100322326373 350.72464716819115,242.10100322326372 C 364.8246471681912,238.60100322326372 378.62464716819113,234.10100322326372 392.52464716819117,229.8010032232637 C 412.1246471681912,223.70100322326368 429.42464716819114,213.5010032232637 445.22464716819115,200.5010032232637 C 446.52464716819117,199.40100322326367 447.8246471681912,198.3010032232637 449.22464716819115,197.3010032232637 C 449.62464716819113,197.0010032232637 450.22464716819115,197.0010032232637 451.92464716819114,196.60100322326372 C 449.62464716819113,203.70100322326368 443.92464716819114,207.20100322326374 439.3246471681911,212.40100322326373 C 449.62464716819113,212.40100322326373 454.8246471681911,202.10100322326372 464.5246471681911,201.90100322326373 C 465.12464716819113,206.8010032232637 458.4246471681911,206.50100322326375 459.0246471681911,211.10100322326372 C 462.7246471681911,211.60100322326372 466.12464716819113,209.8010032232637 469.7246471681911,209.3010032232637 C 474.5246471681911,208.70100322326368 476.5246471681911,210.90100322326373 475.2246471681911,215.5010032232637 C 474.3246471681911,218.70100322326368 471.1246471681911,220.20100322326368 469.3246471681911,222.90100322326367 C 470.0246471681911,223.40100322326367 470.62464716819113,223.90100322326367 471.3246471681911,224.20100322326368 C 475.2246471681911,226.40100322326367 475.42464716819114,227.40100322326367 471.7246471681911,229.60100322326366 C 469.8246471681911,230.80100322326365 467.6246471681911,231.60100322326366 465.4246471681911,232.60100322326366 C 465.9246471681911,235.10100322326366 469.6246471681911,234.20100322326368 469.9246471681911,236.80100322326365 C 469.0246471681911,239.50100322326364 466.6246471681911,240.50100322326364 464.2246471681911,241.40100322326367 C 461.7246471681911,242.40100322326367 460.5246471681911,243.20100322326368 462.1246471681911,246.30100322326365 C 463.52464716819105,249.00100322326364 460.4246471681911,250.00100322326364 458.6246471681911,251.20100322326363 C 456.1246471681911,252.80100322326365 453.2246471681911,253.30100322326365 452.52464716819105,257.4010032232636 C 451.92464716819103,260.7010032232636 447.42464716819103,261.50100322326364 444.22464716819104,262.7010032232636 C 442.124647168191,263.50100322326364 439.624647168191,263.6010032232636 439.92464716819103,266.9010032232636 C 440.02464716819105,268.00100322326364 439.02464716819105,268.9010032232636 437.824647168191,269.3010032232636 C 428.224647168191,272.70100322326357 419.92464716819103,279.70100322326357 409.024647168191,279.3010032232636 C 405.524647168191,279.20100322326357 402.424647168191,280.70100322326357 399.624647168191,282.9010032232636 C 399.22464716819104,283.3010032232636 398.72464716819104,283.50100322326364 398.22464716819104,283.9010032232636 C 386.72464716819104,293.7010032232636 376.42464716819103,304.7010032232636 366.02464716819105,315.6010032232636 C 361.1246471681911,320.7010032232636 361.92464716819103,325.8010032232636 364.6246471681911,331.3010032232636 C 366.2246471681911,334.70100322326357 368.82464716819106,337.3010032232636 371.6246471681911,339.8010032232636 C 379.9246471681911,347.3010032232636 389.2246471681911,353.6010032232636 399.6246471681911,357.6010032232636 C 408.32464716819106,361.0010032232636 415.52464716819105,367.5010032232636 424.9246471681911,368.9010032232636 C 434.82464716819106,377.9010032232636 448.4246471681911,379.9010032232636 459.4246471681911,386.8010032232636 C 459.92464716819126,387.50100322326364 460.82464716819123,387.9010032232636 460.22464716819127,389.80100322326365"/>
</svg>
