<?xml version="1.0" ?>
<svg xmlns="http://www.w3.org/2000/svg" xmlns:cc="http://creativecommons.org/ns#" xmlns:dc="http://purl.org/dc/elements/1.1/" xmlns:ev="http://www.w3.org/2001/xml-events" xmlns:inkscape="http://www.inkscape.org/namespaces/inkscape" xmlns:rdf="http://www.w3.org/1999/02/22-rdf-syntax-ns#" xmlns:sodipodi="http://sodipodi.sourceforge.net/DTD/sodipodi-0.dtd" xmlns:svg="http://www.w3.org/2000/svg" xmlns:xlink="http://www.w3.org/1999/xlink" baseProfile="full" height="94" id="svg6423" inkscape:version="1.2.2 (1:1.2.2+202212051550+b0a8486541)" sodipodi:docname="horse13.svg" transform="scale(1.0638297872340425 1.0638297872340425) translate(-61.5 -47.0)" version="1.1" viewBox="0 0 123 94" width="123">
	<defs/>
	<path d="M 56.97087956331412,93.09960454114933 C 55.886401563314124,92.41231454114933 58.61799956331412,88.37284354114934 60.90459756331412,87.28242354114933 C 62.92468856331411,86.31911054114933 68.37888356331412,80.00713854114933 68.87748056331411,78.05565454114932 C 69.0520015633141,77.37271954114932 68.8713805633141,74.34195054114933 68.47587756331411,71.32061054114932 C 68.08050556331412,68.29926854114932 67.58351756331412,63.826951541149334 67.37146456331412,61.382128541149335 L 66.98588756331412,56.93699954114933 L 62.99172856331413,56.93699954114933 C 57.73421156331413,56.93699954114933 48.36583756331414,54.905056541149335 41.531077563314135,52.28231154114933 C 40.74833156331413,51.981943541149334 32.93546856331414,61.430999541149326 30.627826563314134,65.46895054114933 C 29.239215563314136,67.89876554114933 28.882079563314132,69.13397354114933 28.876713563314137,71.52547554114932 C 28.87101356331414,74.02834154114932 28.64518456331414,74.74086654114932 27.522964563314137,75.79512254114933 C 26.78210756331414,76.49113154114933 26.175954563314136,77.59935254114933 26.175954563314136,78.25785054114932 C 26.175954563314136,80.08513354114932 22.779679563314136,82.79958854114932 20.493401563314134,82.79958854114932 L 18.619964563314117,82.79958854114932 L 18.97978356331412,80.50966654114931 C 19.209302563314118,79.04900154114931 20.004722563314118,77.43926954114932 21.176275563314118,76.06452054114932 C 23.58841556331412,73.23403454114933 25.98697956331412,68.11363554114932 26.47653256331412,64.74965254114932 C 26.711659563314118,63.13393654114932 27.78991356331412,60.43817754114932 29.17041456331412,58.01460554114932 C 30.43642056331412,55.79204054114932 31.64169256331412,53.39264054114932 31.848792563314124,52.682609541149326 C 32.21023356331413,51.44345454114933 32.14178956331413,51.40495454114932 30.143554563314122,51.723484541149325 C 28.97281456331412,51.91010254114933 26.64699956331412,51.71718454114932 24.82894456331412,51.282539541149326 C 18.21656856331412,49.701867541149326 17.12788156331412,50.091896541149325 10.550646563314121,56.39782354114933 C 8.32808056331412,58.52871154114933 5.729405063314122,60.612831541149326 4.775813063314121,61.029196541149325 C 2.7935215633141213,61.89472554114932 0.5214840633141216,62.020050541149324 0.06954056331412195,61.28879154114933 C -0.4385511366858781,60.466679541149325 1.9494061633141215,56.95452454114933 3.595068163314122,56.10352354114933 C 4.439643063314122,55.666773541149325 5.388844063314121,54.827022541149326 5.704400063314122,54.23740154114933 C 6.019950063314122,53.647784541149335 6.796786563314122,53.165371541149334 7.430687563314121,53.165371541149334 C 8.128018563314122,53.165371541149334 10.11957756331412,51.675677541149334 12.472940563314122,49.39374654114933 L 16.36263556331412,45.622120541149336 L 19.78758556331412,45.581110541149336 C 21.67130756331412,45.558590541149336 24.06115056331412,45.230398541149334 25.09834756331412,44.85184554114934 C 26.705867563314122,44.265137541149336 26.96922456331412,43.933261541149335 26.88294156331412,42.602921541149335 C 26.54355256331412,37.36997854114934 26.611764563314118,37.00919554114933 28.62501556331412,33.38929154114933 C 30.43317756331412,30.13814554114933 30.666898563314117,29.289320541149326 30.708704563314118,25.82189654114933 C 30.734624563314117,23.67386954114933 30.57344556331412,21.916022541149328 30.35056656331412,21.91557054114933 C 30.12770256331412,21.91511254114933 28.84309256331412,23.43012554114933 27.49587756331412,25.28226354114933 C 23.752856563314122,30.428150541149332 20.98511456331412,31.69261454114933 18.72662056331412,29.28856454114933 C 17.480616563314122,27.96225154114933 17.27932456331412,26.104342541149332 18.04446356331412,22.992347541149332 C 18.75066656331412,20.120043541149332 21.17937456331412,12.164209541149335 21.943463563314122,10.220211541149334 C 22.575290563314123,8.612701541149335 22.50160456331412,8.325728541149335 20.875613563314122,6.061577941149334 L 19.129101563314123,3.629607941149334 L 20.85808056331412,4.356588941149335 C 22.408675563314123,5.008561941149335 22.700756563314123,4.977640941149335 23.68908356331412,4.056872941149335 C 24.29519456331412,3.492189941149334 25.12026556331412,3.1564899411493346 25.522563563314122,3.310867941149334 C 26.64403056331412,3.7412099411493336 28.321637563314123,2.6130259411493344 28.926697563314125,1.0215933411493334 C 29.364416563314126,-0.12969685885066662 29.568220563314124,-0.2548289588506667 29.970262563314126,0.3808467411493335 C 30.245054563314124,0.8153217411493334 30.473598563314123,1.7163379411493334 30.47813556331413,2.3831069411493337 C 30.488515563314127,3.9051339411493333 30.87630056331413,3.9051339411493333 32.59056756331413,2.3831069411493337 C 33.34155356331413,1.7163379411493334 33.63057356331413,1.595104941149334 33.232823563314135,2.1137049411493334 C 32.394034563314136,3.207357941149333 32.76898256331413,3.309525941149333 34.428132563314136,2.439405941149333 L 35.60501856331414,1.8222009411493327 L 34.52741256331414,3.049815941149333 L 33.44980456331414,4.277432941149334 L 34.79681256331414,3.8624839411493332 C 35.537670563314144,3.6342629411493337 36.48667356331414,3.3183739411493334 36.90571256331414,3.160507941149333 C 37.41955356331414,2.966924941149333 37.52917356331414,3.0974779411493327 37.24241056331414,3.561464941149333 C 36.916332563314135,4.089065941149332 37.20669056331414,4.163911941149333 38.48788956331414,3.882511941149333 C 40.59429256331414,3.419866941149333 42.12730156331414,4.188846941149334 40.17942056331414,4.731003941149334 C 39.16421656331414,5.0135669411493335 39.49323756331414,5.127824941149333 41.53186056331414,5.200655941149334 C 43.01356956331414,5.253555941149333 43.86218656331414,5.418198941149333 43.41767356331414,5.566453941149334 C 42.97315956331414,5.714705941149333 42.24577556331414,5.963731941149334 41.80126256331414,6.119837941149333 C 41.32455956331414,6.287251541149333 42.01445056331414,6.710162541149334 43.483191563314136,7.1508875411493324 C 44.852760563314135,7.561856541149332 46.30753056331414,8.301008541149333 46.71601456331414,8.793442541149332 C 47.40810256331414,9.627779541149332 47.34122656331414,9.628043541149331 45.73434656331414,8.797242541149332 C 43.24799956331414,7.511835541149333 43.00948656331414,7.690157541149333 44.76468256331414,9.522187541149332 C 45.616423563314136,10.411212541149332 46.49179556331414,11.138598541149332 46.70996356331414,11.138598541149332 C 46.92812556331414,11.138598541149332 47.90091356331414,10.471828541149332 48.87171256331414,9.656888541149332 C 50.27148756331414,8.481849541149332 50.55628256331414,8.386108541149332 50.24773256331414,9.194292541149332 C 49.91723556331414,10.059961541149333 49.98219956331414,10.110872541149332 50.67918956331414,9.532424541149332 C 51.19112256331414,9.107551541149332 51.49972156331414,9.066930541149333 51.49972156331414,9.424412541149332 C 51.49972156331414,9.739546541149332 51.25331456331414,10.149684541149332 50.95212756331414,10.335819541149332 C 50.65096356331414,10.521949541149333 50.537459563314144,10.889305541149332 50.69990256331414,11.152156541149333 C 50.86234756331414,11.414999541149333 50.33207656331414,12.064592541149333 49.52151156331414,12.595697541149333 L 48.04776456331414,13.561334541149334 L 49.63904556331414,13.902625541149332 L 51.230323563314144,14.243919541149333 L 49.61391656331414,14.347634541149334 L 47.997504563314145,14.451349541149336 L 50.152718563314146,15.487791541149337 C 51.33809056331415,16.057835541149334 51.762400563314145,16.387205541149335 51.09563456331414,16.219728541149333 C 50.428855563314144,16.052253541149334 49.88331856331414,16.074552541149334 49.88331856331414,16.269258541149334 C 49.88331856331414,16.463980541149333 50.428855563314144,17.086953541149335 51.09563456331414,17.653634541149334 C 52.203998563314144,18.595641541149334 52.215545563314144,18.657010541149333 51.230241563314145,18.369521541149332 C 50.16739156331415,18.059379541149333 50.166953563314145,18.066740541149333 51.19848156331415,18.907263541149334 C 51.80340056331415,19.400161541149334 53.39358256331415,19.793492541149334 54.97009956331414,19.840185541149335 C 56.53065256331414,19.886415541149336 57.062444563314145,20.016865541149336 56.21413156331414,20.145373541149336 C 54.84152056331414,20.353445541149338 54.05794556331414,21.375996541149338 55.27124656331414,21.375996541149338 C 55.56758756331414,21.375996541149338 55.810043563314146,21.666951541149338 55.810043563314146,22.022562541149338 C 55.810043563314146,22.525444541149337 55.666272563314145,22.525444541149337 55.16347956331415,22.022562541149338 C 54.80787856331415,21.666951541149338 54.141092563314146,21.381391541149338 53.68177756331415,21.38797954114934 C 53.02682256331415,21.397379541149338 53.08416856331415,21.600828541149337 53.94751056331415,22.33088654114934 C 54.552999563314145,22.84289654114934 55.401618563314145,23.72358654114934 55.833340563314145,24.28797854114934 C 56.60011556331415,25.29044854114934 56.574700563314146,25.29254454114934 54.73242956331415,24.37871854114934 L 52.84661956331415,23.443290541149338 L 54.27425456331415,24.69956054114934 C 55.05945856331415,25.39051054114934 56.134405563314154,26.68322054114934 56.66301956331415,27.57224554114934 C 57.227108563314154,28.52093454114934 57.31622356331415,28.910440541149338 56.87873856331415,28.515152541149337 C 55.55681456331415,27.320749541149336 55.04430756331415,27.800048541149337 56.25984856331415,29.093930541149337 C 56.90690156331415,29.782683541149336 57.29034056331415,30.49218954114934 57.11190856331415,30.670611541149338 C 56.01592656331415,31.76659554114934 65.56691556331414,34.639329541149344 73.62243756331414,35.63662354114934 C 77.13312856331413,36.07125554114934 80.82559256331413,36.76951854114934 81.82793756331414,37.18831854114934 C 82.83026956331413,37.60712054114934 85.23656556331413,39.43360554114934 87.17528056331413,41.24716954114934 C 90.66219056331413,44.50900754114934 90.73432156331413,44.54458554114934 93.86436456331413,44.54657954114934 C 97.60537456331413,44.548779541149344 99.56602456331413,45.56232054114934 102.21974456331412,48.86507454114934 C 103.21702456331413,50.10624054114934 105.66959456331412,52.09413154114934 107.66990456331412,53.28259654114934 C 109.67020456331412,54.47106254114934 111.30682456331412,55.54030254114934 111.30682456331412,55.658678541149335 C 111.30682456331412,55.777056541149335 110.42097456331412,55.50376754114934 109.33828456331412,55.05139254114933 C 108.25558456331412,54.59901054114933 107.27309456331412,54.325541541149335 107.15495456331412,54.44368154114933 C 106.71828456331411,54.88033754114933 111.70076456331412,56.937528541149334 113.22804456331411,56.95117654114933 C 114.09759456331412,56.95897654114933 115.77888456331411,57.44787254114933 116.96426456331412,58.03766954114933 C 118.14962456331412,58.62747054114933 118.63456456331411,58.967822541149324 118.04185456331412,58.79401254114933 C 117.44917456331412,58.62020454114933 116.23687456331412,58.339318541149325 115.34785456331412,58.16982754114933 L 113.73144456331411,57.86166254114933 L 115.34785456331412,59.10799154114933 C 116.23687456331412,59.79347354114933 117.20672456331411,60.56964154114933 117.50306456331411,60.83281854114933 C 118.4766745633141,61.69746654114933 115.95269456331411,60.55791254114933 113.85517456331411,59.18583754114933 C 112.73787456331411,58.454954541149334 111.7040245633141,57.97665954114933 111.55772456331411,58.12295454114933 C 110.85383456331411,58.826841541149335 113.74824456331412,61.207439541149334 116.54999456331412,62.229011541149326 C 118.51711456331411,62.94626254114933 120.38554456331411,64.12070254114931 121.55872456331412,65.37734854114932 C 123.42457456331411,67.37597254114932 123.31801456331412,67.34371354114931 119.65826456331412,64.80208554114931 C 119.06558456331412,64.39047554114931 117.99846456331412,63.879243541149314 117.28685456331412,63.66602154114931 C 116.23358456331412,63.350407541149316 116.05526456331413,63.44047954114931 116.32771456331412,64.1505155411493 C 116.63612456331411,64.9541615411493 116.55786456331411,64.9541785411493 115.33162456331412,64.1507195411493 C 114.07218456331412,63.32549354114931 114.00083456331413,63.33548154114931 114.00083456331413,64.3371335411493 C 114.00083456331413,64.9192415411493 114.84946456331413,66.9946325411493 115.88665456331412,68.9491195411493 C 118.28935456331412,73.47673054114931 118.29423456331412,74.1309725411493 115.89885456331413,70.5739635411493 C 113.28279456331413,66.6893455411493 112.92736456331413,66.6179215411493 112.89947456331413,69.97123754114929 C 112.88727456331412,71.5445315411493 112.53909456331412,74.04407854114929 112.12765456331412,75.52577954114929 L 111.37959456331413,78.21980554114928 L 111.34309456331412,74.88408254114928 C 111.32269456331413,73.04942754114929 111.06424456331412,71.39849954114928 110.76790456331412,71.21534354114928 C 110.46409456331412,71.02758554114928 110.22911456331411,71.46439854114928 110.22911456331411,72.21689754114928 C 110.22911456331411,72.95088554114928 109.65267456331411,74.72304254114928 108.94815456331412,76.15501454114928 C 108.24364456331412,77.58698754114928 107.53539456331411,79.12228754114929 107.37426456331411,79.56681854114929 C 107.18772456331412,80.0816875411493 107.06591456331411,80.12569354114929 107.03883456331411,79.68798554114929 C 107.01543456331412,79.3101685411493 107.48120456331411,77.62132054114929 108.07388456331411,75.93504054114929 C 109.5321045633141,71.78615254114929 109.3835445633141,70.5685205411493 107.83468456331411,73.9743715411493 C 106.63832456331411,76.60506454114929 104.65126456331411,78.92104854114929 105.61883456331411,76.5570045411493 C 106.82143456331411,73.6186895411493 106.2819245633141,73.7815225411493 104.57267456331411,76.87273154114929 C 102.96439456331412,79.78133554114929 102.6841845633141,80.0760455411493 102.91942456331411,78.61142954114929 C 103.0752145633141,77.64148154114929 103.8137945633141,75.94858254114929 104.56068456331411,74.84942354114929 C 105.30756456331412,73.7502635411493 105.90773456331411,72.36170754114929 105.8943845633141,71.7637315411493 C 105.87608456331411,70.9184125411493 105.7094745633141,71.03615854114929 105.1480945633141,72.2928965411493 L 104.4261045633141,73.9093075411493 L 104.6890445633141,71.73483554114931 C 104.8627445633141,70.2985255411493 104.6210445633141,68.83522654114931 103.9771845633141,67.42439054114931 L 103.00241456331409,65.28844254114931 L 102.81404456331408,67.26794854114931 C 102.71038456331408,68.35667754114931 102.27553456331408,69.53805754114931 101.84755456331409,69.89323854114932 C 101.18535456331409,70.44281854114932 101.05887456331409,70.06765854114931 100.99850456331409,67.37492854114932 C 100.93600456331409,64.58417854114931 100.88081456331409,64.43335054114932 100.53064456331408,66.09664754114931 C 100.18720456331408,67.7282065411493 100.12413456331409,67.5376615411493 100.06275456331409,64.6834315411493 C 99.99515456331409,61.54026554114932 98.48360456331409,56.86165054114931 97.29921456331408,56.12964154114931 C 97.02052456331408,55.95740154114931 97.26451456331408,56.85658454114931 97.84152456331408,58.12783854114931 C 98.94993456331409,60.57001454114931 99.14292456331408,62.96359054114931 98.37541456331408,64.7496395411493 C 98.03213456331409,65.5484855411493 97.90255456331408,65.1238065411493 97.87449456331409,63.10796254114931 C 97.84249456331409,60.81218054114931 97.45069456331409,59.805215541149316 95.35861456331409,56.64232054114931 C 93.9957245633141,54.58181954114931 92.67754856331409,52.41103454114931 92.4293485633141,51.81834954114931 C 92.10032556331409,51.03263554114931 91.9688315633141,51.47610254114931 91.9439485633141,53.45553754114931 C 91.91160856331409,56.02573954114931 91.4095675633141,57.380965541149315 88.9021615633141,61.66676554114931 L 87.8687545633141,63.43312654114931 L 90.6974735633141,66.1043095411493 C 92.25327956331411,67.5734615411493 93.5261845633141,69.12399754114931 93.5261845633141,69.5499445411493 C 93.5261845633141,69.9758945411493 92.96623156331411,71.0097865411493 92.28184456331411,71.8474495411493 C 89.36483156331411,75.4177675411493 83.64562156331411,84.2221005411493 83.2037165633141,85.82256254114931 C 82.6096685633141,87.9739625411493 79.3963175633141,90.88162954114931 77.6127365633141,90.88162954114931 C 74.2101165633141,90.88162954114931 77.13000256331411,83.9087395411493 83.4989755633141,76.82493654114931 C 86.46714456331411,73.52360854114931 86.76781756331411,71.51312954114931 84.56558856331411,69.69280354114932 C 83.78607256331411,69.04845854114932 82.00181656331411,67.48961654114932 80.6005765633141,66.22871454114932 L 78.0529095633141,63.93616954114932 L 76.5712895633141,65.10160654114931 C 74.9935905633141,66.34261754114931 74.96402156331409,66.8756715411493 76.05263256331409,74.4481045411493 C 76.3343305633141,76.4075515411493 76.13347256331409,76.8969855411493 73.84123956331409,79.83615554114931 C 72.45457756331409,81.61419554114931 70.64146856331409,84.40251154114931 69.81213456331409,86.03239654114931 C 67.74868856331409,90.08763054114931 65.77433356331409,91.80858454114932 62.0821155633141,92.77029454114931 C 58.5311225633141,93.69521454114931 57.9677245633141,93.7315045411493 56.9706515633141,93.09960454114932 L 56.97087956331412,93.09960454114933 M 49.88331856331412,11.677485541149334 C 50.57982456331412,11.227369541149335 50.56560056331412,11.154044541149334 49.78041856331412,11.146933541149334 C 49.27930756331412,11.142633541149333 48.71945756331412,11.381143541149333 48.536307563314125,11.677485541149334 C 48.11486756331413,12.359397541149333 48.82814156331413,12.359397541149333 49.88331856331413,11.677485541149334 L 49.88331856331412,11.677485541149334" id="path6979" style="fill:#040404;stroke-width:0.538804"/>
</svg>
