<?xml version="1.0" ?>
<svg xmlns="http://www.w3.org/2000/svg" xmlns:cc="http://creativecommons.org/ns#" xmlns:dc="http://purl.org/dc/elements/1.1/" xmlns:ev="http://www.w3.org/2001/xml-events" xmlns:inkscape="http://www.inkscape.org/namespaces/inkscape" xmlns:rdf="http://www.w3.org/1999/02/22-rdf-syntax-ns#" xmlns:sodipodi="http://sodipodi.sourceforge.net/DTD/sodipodi-0.dtd" xmlns:svg="http://www.w3.org/2000/svg" xmlns:xlink="http://www.w3.org/1999/xlink" baseProfile="full" height="347" id="svg858" inkscape:version="1.2.2 (1:1.2.2+202212051550+b0a8486541)" sodipodi:docname="horse03.svg" transform="scale(0.2881844380403458 0.2881844380403458) translate(-205.0 -173.5)" version="1.1" viewBox="0 0 410 347" width="410">
	<defs/>
	<path d="M 24.946479012815704,346.52204 C 15.227706012815705,344.06393 14.888844012815706,343.88295 14.888844012815706,341.15064 C 14.888844012815706,336.82417000000004 18.344583012815704,332.87955 27.091725012815704,327.22145 C 31.516811012815705,324.35909 36.0656780128157,321.03513 37.20033201281571,319.83489000000003 C 40.35930601281571,316.49329 47.21730201281571,305.67595000000006 51.846671012815705,296.73274000000004 C 55.35926401281571,289.94696000000005 56.192897012815706,287.46500000000003 57.1687210128157,280.88754000000006 C 58.6073410128157,271.19059000000004 59.9397760128157,267.13183000000004 64.4490330128157,258.71091000000007 C 68.24520301281571,251.62166000000008 78.0128960128157,227.20955000000006 80.7858050128157,217.88088000000008 C 81.7065950128157,214.78313000000009 82.9454250128157,209.15012000000007 83.5387550128157,205.36308000000008 C 84.4405650128157,199.6071100000001 84.4406250128157,197.96657000000008 83.5391550128157,195.36272000000008 C 81.4717850128157,189.39126000000007 80.8713550128157,179.14565000000007 81.72618501281569,164.42655000000008 C 82.8756950128157,144.63354000000007 82.35978501281569,141.87910000000008 73.9593480128157,122.95958000000007 C 71.34200501281569,117.06479000000007 68.5436010128157,109.00959000000007 67.17396801281569,103.42789000000008 C 64.71776501281569,93.41808600000007 62.93759501281569,88.38761600000008 61.547518012815694,87.52850600000008 C 61.086757012815696,87.24373600000008 58.83975301281569,88.35421600000008 56.55418301281569,89.99623600000008 C 54.26861401281569,91.63825600000008 49.90402701281569,94.01040600000007 46.855107012815694,95.26768600000008 C 39.968427012815695,98.10752600000008 32.8600360128157,102.38660000000009 30.061575012815695,105.37698000000009 C 28.892049012815693,106.62670000000008 26.632718012815694,109.70805000000009 25.040836012815696,112.2244200000001 C 23.448954012815697,114.74080000000009 21.340672012815695,117.3640800000001 20.355772012815695,118.0539300000001 C 13.318187012815697,122.9832500000001 2.690219912815697,116.74344000000009 0.46701494281569594,106.3770200000001 C -1.101501087184304,99.0632660000001 0.8196199428156961,93.6524760000001 13.396484012815696,69.9614760000001 C 17.080660012815695,63.021598000000104 17.659642012815695,61.28356600000011 18.087132012815694,55.8807820000001 C 18.651711012815692,48.7453830000001 19.429577012815695,47.0773750000001 26.53551301281569,37.7644560000001 C 29.42310001281569,33.9800350000001 31.78567101281569,30.446070000000102 31.78567101281569,29.911199000000103 C 31.78567101281569,29.376328000000104 30.91070501281569,27.4457000000001 29.84131301281569,25.620915000000103 C 28.771921012815703,23.79613 27.476176012815703,19.962534 26.961893012815704,17.101811 C 26.447601012815703,14.241089 25.512185012815703,10.0583 24.883189012815706,7.806724 C 24.254192012815704,5.55515 23.739563012815704,3.473219 23.739563012815704,3.180212 C 23.739563012815704,1.713105 25.694453012815703,3.161992 30.673434012815704,8.319319 C 38.4109980128157,16.334046999999998 40.532282012815706,17.488072000000003 47.5270530128157,17.488072000000003 C 55.1047410128157,17.488072000000003 56.7506290128157,16.348847000000003 59.5755930128157,9.148487000000003 C 60.79340401281571,6.04449 62.524484012815705,2.716263 63.4224300128157,1.752428 L 65.0550660128157,0.0 L 65.7757070128157,1.927195 C 66.1720500128157,2.987151 67.0663270128157,6.910132 67.7629830128157,10.644929999999999 C 69.5104610128157,20.013305 70.9213870128157,21.39294 78.0118180128157,20.666505 C 83.7232050128157,20.081356 87.60929501281569,21.131292000000002 88.9408350128157,23.619279 C 89.5288750128157,24.718041999999997 89.3784350128157,25.162622 88.3066250128157,25.493529 C 87.5338050128157,25.732124 89.7298450128157,25.784656 93.1866850128157,25.610265 C 100.0321700128157,25.264924999999998 105.9563200128157,26.432273 109.5677800128157,28.838144999999997 L 111.84444001281571,30.354805999999996 L 109.4306100128157,30.816355999999995 L 107.0167800128157,31.277905999999994 L 108.9195500128157,32.328056 C 110.0515200128157,32.952793 111.8442300128157,33.17353 113.3449100128157,32.872954 C 118.8329600128157,31.773747 119.1041900128157,31.844011000000002 118.8435200128157,34.297432 C 118.5300000128157,37.248297 119.6198500128157,38.476361 125.0723800128157,41.316226 C 127.5328100128157,42.5977 131.49150001281572,45.482654 133.86947001281573,47.727235 C 137.9527900128157,51.581491 138.10929001281573,51.87173 136.68561001281572,52.949838 C 135.31831001281572,53.985248 135.55221001281572,54.094787 139.20121001281572,54.127962 C 141.41389001281573,54.148072 144.03318001281573,54.381356 145.02185001281572,54.646356 L 146.81944001281573,55.128173999999994 L 145.22301001281573,57.157709999999994 C 142.88707001281574,60.127368 143.22536001281574,61.131285999999996 147.14645001281573,62.86577199999999 C 150.12892001281574,64.185059 150.88716001281574,65.02002599999999 152.11267001281573,68.33454599999999 C 152.90815001281572,70.48601599999999 153.9421400128157,72.74599599999999 154.41043001281574,73.35671599999999 C 155.10906001281575,74.26784599999999 154.80795001281572,74.367426 152.73260001281574,73.91160599999999 L 150.20334001281574,73.35608599999999 L 153.39476001281574,80.84730599999999 C 155.91101001281575,86.75364599999999 157.47080001281574,89.18412599999999 160.76748001281572,92.33544599999999 C 164.43756001281574,95.84372599999999 165.88329001281573,96.60441599999999 172.5925600128157,98.55741599999999 C 202.14535001281573,107.15991 206.88727001281572,107.23822999999999 233.7901300128157,99.56810599999999 C 251.1420100128157,94.62101599999998 259.85813001281565,93.15596599999999 267.84831001281566,93.84345599999999 C 278.79835001281566,94.78563599999998 301.2203300128157,101.49920999999999 308.69307001281567,106.07316999999999 C 312.68769001281566,108.51822999999999 313.89440001281565,108.85610999999999 318.63202001281564,108.85610999999999 C 324.55387001281565,108.85610999999999 336.09117001281567,112.22790999999998 342.01789001281566,115.69066999999998 C 347.60385001281566,118.95432999999998 355.22356001281565,128.01852999999997 366.0658800128157,144.29748999999998 C 378.7498700128157,163.34159 384.06490001281566,168.98523999999998 394.0309500128157,173.99161999999998 C 398.99181001281573,176.48368 402.3525900128157,177.62165 405.5295800128157,177.88511 C 408.3567400128157,178.11956 409.9077400128157,178.59181999999998 409.7191100128157,179.16076999999999 C 409.3562400128157,180.25528 399.2391200128157,181.41855999999999 392.85531001281566,181.09977999999998 C 388.3325600128157,180.87393999999998 388.26972001281564,180.89968 390.03917001281565,182.25347999999997 C 393.21975001281567,184.68689999999998 400.55525001281563,188.29968999999997 405.3262400128157,189.78243999999998 C 407.87082001281567,190.57325999999998 409.95275001281567,191.46479 409.95275001281567,191.76360999999997 C 409.95275001281567,192.06242999999998 406.78460001281564,193.13818999999998 402.91241001281566,194.15417999999997 C 395.65771001281564,196.05768999999998 392.91885001281565,197.36329999999998 396.1805000128156,197.36329999999998 C 399.8171400128156,197.36329999999998 397.2939300128156,199.32038999999997 391.79446001281565,200.76528 C 383.1812000128156,203.02826 374.69321001281565,202.47383 368.0939100128156,199.21717999999998 C 357.30885001281564,193.89495 349.8486200128156,185.18898 341.17061001281564,167.79818999999998 C 338.3046900128156,162.05485999999996 335.40969001281564,156.89917999999997 334.73728001281563,156.34112999999996 C 333.6795600128156,155.46329999999998 333.5137000128156,155.74659999999997 333.50715001281566,158.44231999999997 C 333.50315001281564,160.15600999999998 332.75987001281567,165.17886999999996 331.8558000128157,169.60422999999997 C 328.1073300128157,187.95242999999996 328.2594400128157,199.21248999999997 332.3693000128157,207.61667999999997 C 334.0768600128157,211.10844999999998 335.2892800128157,212.33408999999997 339.4046900128157,214.72886999999997 C 346.3416700128157,218.76552999999998 348.6759000128157,221.22136999999998 350.0418900128157,225.92020999999997 C 351.3573200128157,230.44512999999998 352.7728200128157,243.34867999999997 352.8046300128157,251.10499999999996 C 352.84603001281573,261.20959999999997 355.98913001281574,271.79268999999994 360.5791500128157,277.28266999999994 C 361.7083800128157,278.63329999999996 362.4807200128157,280.60308999999995 362.4807200128157,282.13244999999995 C 362.4807200128157,285.21617 364.4384200128157,288.28432999999995 366.4060700128157,288.28432999999995 C 369.7161200128157,288.28432999999995 375.1527400128157,290.8222999999999 376.0470100128157,292.78498999999994 C 378.0146700128157,297.1035299999999 376.5682600128157,305.84896999999995 373.5349700128157,307.97356999999994 C 371.1833400128157,309.62071999999995 365.78306001281567,309.52487999999994 363.2380500128157,307.79083999999995 C 362.1057100128157,307.01930999999996 357.1309400128157,302.29988 352.1830000128157,297.30321999999995 L 343.1867600128157,288.21836999999994 L 343.2645600128157,279.60177999999996 C 343.3517600128157,269.94742999999994 341.9158600128157,262.35474 338.2479000128157,253.07501999999997 C 333.9428400128157,242.18351999999996 329.3328300128157,236.53581999999997 317.8948500128157,228.14056999999997 C 313.8760100128157,225.19082999999998 309.1385400128157,221.46997999999996 307.3671300128157,219.87202999999997 C 302.36442001281574,215.35919999999996 299.19703001281573,213.39544999999995 293.0856400128157,211.01767999999996 C 286.2467700128157,208.35685999999995 283.8093500128157,205.25117999999995 280.7893400128157,195.35010999999994 C 279.6924700128157,191.75402999999994 278.2533000128157,188.11083999999994 277.5911700128157,187.25411999999994 C 276.40258001281575,185.71619999999993 276.3720400128157,185.71684999999994 275.1827400128157,187.30571999999995 C 272.6487900128157,190.69087999999996 270.5683900128157,192.48811999999995 266.5077900128157,194.79989999999995 C 261.1552600128157,197.84719999999996 258.3083100128157,200.87866999999994 256.5333200128157,205.42086999999995 C 255.34201001281573,208.46940999999995 255.11362001281572,211.90558999999996 255.0633800128157,227.53625999999994 C 254.99408001281572,249.09898999999993 255.16699001281572,248.48871999999994 246.6283700128157,257.3068599999999 C 236.99490001281572,267.2556799999999 224.2390300128157,284.08962999999994 220.05392001281572,292.3772399999999 C 215.02891001281571,302.32803999999993 212.9419600128157,304.74513999999994 207.94120001281573,306.40611999999993 C 202.29747001281572,308.28066999999993 201.0202200128157,310.43125999999995 202.31313001281572,315.88247999999993 C 203.03297001281572,318.91748999999993 203.07111001281572,320.6740499999999 202.45205001281573,322.27881999999994 C 200.70203001281573,326.8152999999999 190.68715001281572,330.41524999999996 184.75843001281572,328.6389699999999 C 179.61496001281571,327.09795999999994 179.49866001281572,326.4734999999999 182.7739700128157,317.98369999999994 C 185.1918500128157,311.71640999999994 186.4140800128157,309.71774999999997 189.8650000128157,306.38812999999993 C 192.1582900128157,304.17544999999996 195.2748900128157,300.25834999999995 196.7908000128157,297.68346999999994 C 198.3067000128157,295.10858999999994 202.5802800128157,288.95331999999996 206.2876600128157,284.00507999999996 C 216.0028800128157,271.03817999999995 219.0199500128157,266.42767999999995 222.2737100128157,259.57617 L 225.1631300128157,253.49186999999998 L 224.2661500128157,230.85873999999998 C 223.7728200128157,218.41051 223.1419500128157,207.46994999999998 222.8642300128157,206.54636999999997 C 222.3952700128157,204.98679999999996 222.0338700128157,204.91703999999996 217.7923300128157,205.56725999999998 C 215.2805000128157,205.95232 207.2511300128157,208.30843 199.9492900128157,210.80306999999996 C 187.13565001281572,215.18077999999997 186.3228700128157,215.35062999999997 176.6155700128157,215.67906999999997 C 169.5711600128157,215.91740999999996 162.26004001281572,215.51477999999997 152.2122900128157,214.33515999999997 C 144.3222100128157,213.40882999999997 136.3387800128157,212.65093999999996 134.47136001281572,212.65093999999996 C 131.37322001281572,212.65093999999996 130.99242001281573,212.87979999999996 130.1203300128157,215.26592999999997 C 129.5946800128157,216.70416999999998 126.0539100128157,223.49306999999996 122.2519700128157,230.35237999999998 C 108.5961600128157,254.9896 108.1979400128157,262.44407 120.1284700128157,270.10274 C 123.0953600128157,272.00730999999996 128.8739800128157,275.28564 132.96984001281572,277.38793999999996 C 138.3132000128157,280.13053999999994 141.38162001281572,282.32052999999996 143.8320900128157,285.14053999999993 C 147.36515001281572,289.20638999999994 150.0634500128157,290.2619699999999 150.0634500128157,287.57825999999994 C 150.0634500128157,285.17492999999996 152.1424900128157,283.99641999999994 155.43866001281572,284.53130999999996 C 160.96367001281573,285.42789999999997 167.70514001281572,293.96710999999993 167.74722001281572,300.12219 C 167.7717200128157,303.70703 164.7405800128157,311.45754999999997 162.93646001281573,312.42307999999997 C 160.70439001281574,313.61764999999997 159.06515001281574,312.70131999999995 152.87959001281573,306.80132999999995 C 146.63719001281572,300.84711999999996 142.9136600128157,298.48464999999993 133.97123001281574,294.80450999999994 C 130.65221001281574,293.4386099999999 125.22109001281572,290.24468999999993 121.90207001281573,287.70689999999996 C 118.58305001281573,285.16911 112.07368001281573,281.07899999999995 107.43679001281573,278.61776 C 94.67979501281573,271.84639999999996 91.54578501281573,266.50717999999995 93.51386501281574,254.89810999999997 C 93.96448501281574,252.24008999999998 94.28048501281575,249.99509999999998 94.21609501281574,249.90925 C 94.15169501281574,249.82344999999998 91.57438501281574,254.11113999999998 88.48872501281575,259.43755 C 85.40307501281575,264.76397 79.52716401281575,274.16983999999997 75.43114801281575,280.33948 C 65.87781801281575,294.72922 62.116979012815754,302.28488 59.240769012815754,312.86654 C 56.468547012815755,323.06564 53.91719001281575,326.4206 48.29177001281575,327.26419 C 43.666609012815755,327.95777 42.52527701281576,329.51863 42.050347012815756,335.79983999999996 C 41.420538012815754,344.12935999999996 39.329298012815755,346.27072 31.426789012815757,346.67801999999995 C 28.747684012815757,346.8161099999999 25.831541012815755,346.74591999999996 24.946469012815758,346.5220699999999 L 24.946479012815704,346.52204" id="path1411" style="fill:#010101;stroke-width:0.804611"/>
</svg>
