<?xml version="1.0" ?>
<svg xmlns="http://www.w3.org/2000/svg" xmlns:cc="http://creativecommons.org/ns#" xmlns:dc="http://purl.org/dc/elements/1.1/" xmlns:ev="http://www.w3.org/2001/xml-events" xmlns:inkscape="http://www.inkscape.org/namespaces/inkscape" xmlns:rdf="http://www.w3.org/1999/02/22-rdf-syntax-ns#" xmlns:sodipodi="http://sodipodi.sourceforge.net/DTD/sodipodi-0.dtd" xmlns:svg="http://www.w3.org/2000/svg" xmlns:xlink="http://www.w3.org/1999/xlink" baseProfile="full" height="374" id="svg1413" inkscape:version="1.2.2 (1:1.2.2+202212051550+b0a8486541)" sodipodi:docname="horse04.svg" transform="scale(0.26737967914438504 0.26737967914438504) translate(-242.5 -187.0)" version="1.1" viewBox="0 0 485 374" width="485">
	<defs/>
	<path d="M 25.880826997447443,369.24671 L 19.57314699744744,364.49343 L 18.678676997447443,356.8381 C 17.853916997447442,349.77933 17.951326997447442,348.97031 19.928676997447443,346.45652 C 23.117516997447442,342.40256 22.693976997447443,338.68749 18.57314699744744,334.56666 C 16.64814699744744,332.64166 15.09289699744744,330.48916 15.11703699744744,329.78332 C 15.22009699744744,326.7701 17.971636997447444,321.05199 21.835106997447443,315.82221 C 24.116426997447444,312.73409 26.302806997447444,308.92327 26.693726997447445,307.35372 C 27.084646997447447,305.78417 28.902736997447445,301.57499 30.733936997447447,297.99999 C 32.56512699744744,294.42499000000004 34.065576997447444,290.95559000000003 34.06825699744744,290.29021 C 34.07125699744744,289.62483 36.73659699744744,280.84983 39.99192699744744,270.79021 C 43.247256997447444,260.73059 46.213506997447446,251.45305 46.583596997447444,250.17346 C 46.953696997447445,248.89387 52.07476699744745,243.04387 57.96377699744745,237.17346 C 67.92489699744745,227.24379000000002 68.90611699744746,225.90765000000002 72.04426699744745,217.99999 C 76.40944699744745,207.00037 76.83833699744746,200.5578 74.15012699744744,186.36642 C 71.88900699744744,174.42963 69.85033699744744,167.56126 64.47534699744745,153.77152 C 61.76827699744744,146.82645000000002 61.07314699744744,143.62171 61.07314699744744,138.08662 C 61.07314699744744,134.26058 61.54809699744744,129.88096000000002 62.12860699744744,128.35412000000002 C 64.49610699744746,122.12711000000002 60.59923699744744,118.68117000000002 53.747166997447444,120.94256000000003 C 48.318516997447446,122.73417000000003 46.837916997447444,125.10345000000002 46.37611699744745,132.73784000000003 C 45.61246699744745,145.36202000000003 45.716236997447446,146.49709000000004 48.09124699744745,151.49999000000003 C 49.76970699744745,155.03561000000002 50.55991699744745,158.69656000000003 50.789346997447446,163.99999000000003 C 51.11279699744745,171.47657000000004 51.10935699744745,171.48805000000002 49.68573699744744,167.67558000000002 C 47.245066997447445,161.13944000000004 45.41988699744744,161.05120000000002 47.21669699744744,167.55622000000002 C 47.81583699744744,169.72529000000003 48.074806997447446,174.38289000000003 47.792186997447445,177.90643000000003 C 47.41010699744744,182.67005000000003 47.72468699744744,185.36259000000004 49.01916699744744,188.40643000000003 C 52.800176997447444,197.29742000000002 54.574846997447445,207.18316000000004 54.511276997447446,218.99999000000003 C 54.45917699744744,228.68198000000004 54.11504699744744,231.14292000000003 52.33436699744745,234.56689000000003 C 51.171086997447446,236.80368000000004 49.51267699744745,239.22025000000002 48.649006997447444,239.93703000000002 C 47.24153699744745,241.10513000000003 47.143526997447445,240.61993 47.70393699744744,235.25827 C 48.415616997447444,228.44932 46.56127699744744,225.30146000000002 45.620916997447445,231.72220000000002 C 44.084626997447444,242.21184000000002 42.91083699744745,246.61421 40.84236699744744,249.64440000000002 C 38.01960699744744,253.77957 35.610776997447445,254.99473 36.68091699744744,251.74370000000002 C 38.96606699744744,244.80152 36.44395699744744,244.34837000000002 33.63604699744744,251.19662000000002 C 30.98279699744744,257.66768 20.153086997447442,273.06237000000004 16.63044699744744,275.37049 C 14.202256997447437,276.9615 14.252426997447438,276.75856000000005 17.56913699744744,271.57370000000003 C 23.12484699744744,262.88873 21.86220699744744,259.60434000000004 15.87026699744744,267.15458 C 12.713036997447439,271.1329 1.2506671974474406,279.51085 0.2854771774474409,278.54565 C 0.030567177447440863,278.29075 1.160427197447441,276.95598 2.796287197447441,275.5795 C 6.396497197447441,272.55012 16.07314699744744,258.05541999999997 16.07314699744744,255.69203 C 16.07314699744744,253.43142 14.78397699744744,253.55704 12.54029699744744,256.03628 C 10.37164699744744,258.43262 2.30332719744744,262.19225 0.20543717744744056,261.78402 C -0.6025828225525593,261.62678999999997 1.0442071974474407,260.07177 3.894337197447441,258.30071 C 13.43826699744744,252.37012 19.79602699744744,240.30624999999998 20.788406997447442,226.24414 C 21.236426997447442,219.89573 21.09389699744744,217.86912999999998 20.236676997447443,218.39891999999998 C 19.600996997447442,218.79178999999996 19.191646997447442,220.50128999999998 19.327016997447444,222.19779999999997 C 19.462386997447442,223.89430999999996 19.036456997447445,225.47272999999998 18.380506997447444,225.70538999999997 C 16.459146997447444,226.38688999999997 15.734846997447443,219.61924999999997 16.456856997447446,207.73150999999996 C 17.095786997447444,197.21161999999995 16.057366997447446,189.99998999999997 13.903636997447444,189.99998999999997 C 13.481386997447444,189.99998999999997 13.377466997447444,190.62946999999997 13.672696997447444,191.39883999999998 C 13.967936997447444,192.16821 13.727996997447445,193.09527999999997 13.139446997447443,193.45900999999998 C 10.904976997447443,194.83998999999997 10.205236997447443,188.49254999999997 10.042416997447443,165.36543999999998 C 9.851987197447443,138.31772999999998 10.588696997447443,133.15481999999997 16.377106997447445,120.97158999999998 C 20.397976997447447,112.50859999999997 30.183716997447444,102.10139999999998 38.073146997447445,97.89772399999998 C 42.315486997447444,95.63728399999998 43.65477699744744,95.48821399999999 61.46427699744745,95.29400399999999 L 80.35541699744746,95.08800399999998 L 87.88862299744747,91.51049399999998 C 92.03189299744747,89.54286399999998 97.93088299744747,86.41413399999998 100.99748999744747,84.55776399999998 C 104.06409999744747,82.70138399999998 109.20434999744748,80.42182199999998 112.42026999744748,79.49206999999998 C 115.63617999744747,78.56231899999999 120.22478999744747,76.93576399999998 122.61715999744747,75.87750299999999 C 125.34456999744748,74.67104199999999 130.43676999744747,73.728106 136.27002999744747,73.34936699999999 C 144.50714999744747,72.81455099999998 147.02610999744746,73.09960499999998 158.25341999744745,75.83707499999998 C 165.22757999744746,77.53752899999998 176.47757999744746,79.85966199999999 183.25341999744745,80.99737399999998 C 190.02926999744744,82.13507399999997 200.17953999744745,83.99412399999999 205.80957999744746,85.12857399999999 C 214.56125999744745,86.89203399999998 218.69506999744746,87.12984399999999 234.30957999744746,86.76810399999998 C 255.23426999744746,86.28333399999998 256.69409999744744,85.90883399999998 269.9850799974475,77.61593099999997 C 279.0037699974475,71.98872899999998 283.7455299974475,70.02689499999997 293.4670599974475,67.90062499999998 C 297.6142699974475,66.99355499999997 302.4021999974475,64.66867799999997 309.6230399974475,60.05575999999998 C 315.2671699974475,56.45009199999998 322.0649099974475,52.248467999999974 324.7291199974475,50.71881699999998 C 327.39332999744755,49.18916599999998 332.49813999744754,45.83295399999998 336.0731399974475,43.26056699999998 C 346.4880199974475,35.76655199999998 360.9467499974475,28.13342799999998 366.0138899974475,27.45409499999998 C 372.5772699974475,26.57416699999998 380.5244799974475,24.245565999999982 384.3037899974475,22.095000999999982 C 386.1019299974475,21.071793999999983 389.9114499974475,19.98090099999998 392.7693799974475,19.670793999999987 C 395.6273099974475,19.360687999999982 399.24588999744753,18.44490899999998 400.8106699974475,17.635728999999984 C 404.32504999744754,15.818371999999986 416.96987999744755,13.994258999999985 425.89549999744753,14.017051999999985 C 431.48939999744755,14.031341999999986 433.3846099974475,14.515450999999985 437.5731399974475,16.999999999999986 C 440.3231399974475,18.631241999999986 443.1894499974475,19.973568999999983 443.94270999744754,19.982947999999986 C 444.69596999744743,19.992348 449.58937999744745,15.500000000000002 454.81694999744747,10.000000000000002 C 461.65405999744746,2.8065770000000017 464.98839999744746,1.7763568394002505e-15 466.69737999744746,1.7763568394002505e-15 C 468.00404999744745,1.7763568394002505e-15 469.0677999974475,0.3375000000000018 469.0612699974475,0.7500000000000018 C 469.0222699974475,3.2151810000000016 465.92242999744747,12.590264000000001 464.1569699974475,15.582491000000001 C 460.9501399974475,21.017671999999997 461.6584199974475,21.362092000000004 466.3645299974475,16.655976000000003 C 471.1594599974475,11.861048000000002 482.9293799974475,5.456235000000001 484.34481999744753,6.871678000000001 C 486.3855499974475,8.912412000000002 478.0895599974475,20.701998000000003 471.83409999744754,24.650902000000002 C 468.3710299974475,26.837041 467.97706999744753,27.465832 468.59554999744756,29.819904 C 468.98282999744754,31.293957 469.65008999744754,35.569238 470.07835999744754,39.32052899999999 C 470.65113999744756,44.337666999999996 471.46447999744754,46.787656999999996 473.15442999744755,48.58652899999999 C 475.22037999744754,50.785630999999995 475.53217999744754,52.41562999999999 476.24938999744757,64.76599999999999 C 476.9605199974476,77.01172499999998 478.10754999744756,84.95974399999999 481.14559999744756,98.692824 C 481.6557499974476,100.99887 482.0731399974476,104.47726 482.0731399974476,106.42257000000001 C 482.0731399974476,108.36789 482.8001099974476,111.77638 483.6886199974476,113.99699000000001 C 485.2264799974476,117.84048000000001 485.1989699974476,118.31558000000001 483.11610999744755,123.88508000000002 C 481.78948999744756,127.43244000000001 479.40213999744753,131.22578000000001 477.0518899974476,133.52074000000002 C 473.82033999744755,136.67626 472.4602699974476,137.31598000000002 468.8743999974476,137.36706 C 462.0473699974476,137.46436 459.6153299974476,136.35251 455.7209799974476,131.35393000000002 C 452.8332099974476,127.64736000000002 452.07313999744764,125.78805000000003 452.07313999744764,122.43049000000002 C 452.07313999744764,119.03410000000002 451.36376999744766,117.34016000000003 448.51212999744763,113.92697000000003 C 446.5535799974476,111.58273000000003 444.34702999744763,108.49653000000002 443.60868999744764,107.06873000000003 C 441.94140999744764,103.84458000000004 433.11289999744764,95.45844400000003 426.93824999744766,91.23361400000003 C 424.38905999744765,89.48940400000004 421.15560999744764,86.69829400000003 419.7528099974476,85.03116400000003 C 418.3500099974476,83.36402400000003 416.2665999974476,82.00000400000003 415.12300999744764,82.00000400000003 C 410.21551999744764,82.00000400000003 399.3855999974476,96.47295400000003 390.42955999744765,114.99999000000003 C 387.9037699974477,120.22499000000002 384.87872999744764,125.84999000000002 383.70723999744763,127.49999000000003 C 382.5357499974476,129.14999000000003 380.90132999744765,131.67577000000003 380.0751999974476,133.11284000000003 C 379.24906999744763,134.54991000000004 376.6649199974476,138.59991000000002 374.3326399974476,142.11284000000003 C 370.79407999744757,147.44271000000003 370.0853199974476,149.32766000000004 370.0509299974476,153.49999000000003 C 370.0082299974476,158.68547000000004 367.8259899974476,175.30483000000004 366.5144499974476,180.43334000000002 C 366.1018599974476,182.04668 365.16154999744765,184.52168 364.42487999744765,185.93334000000002 C 362.44301999744766,189.73106 362.70556999744764,190.77443000000002 366.82313999744764,195.46427000000003 C 368.88563999744764,197.81342000000004 375.73418999744763,207.29191000000003 382.04213999744763,216.52758000000003 C 388.35008999744764,225.76325000000003 396.28812999744764,236.34574000000003 399.6822299974476,240.04423000000003 C 407.3766299974476,248.42868 409.5662399974476,252.22896000000003 416.07032999744763,268.48736 C 421.64319999744765,282.41798 426.5035599974476,291.36633 434.54451999744765,302.49999 C 437.32506999744766,306.34999000000005 442.19469999744763,313.35673 445.36592999744767,318.07052000000004 L 451.13180999744765,326.64105000000006 L 452.51810999744765,338.5600600000001 C 453.28057999744766,345.11552000000006 453.6048699974477,351.00934000000007 453.23877999744764,351.6574300000001 C 452.73933999744764,352.54158000000007 451.82409999744766,352.47478000000007 449.57313999744764,351.38988000000006 C 437.71420999744765,345.67424000000005 430.1478499974476,336.5486200000001 430.0950999974476,327.89787000000007 C 430.0658999974476,323.10503000000006 426.6213299974476,318.30055000000004 421.1321399974476,315.3962600000001 C 418.6895899974476,314.1039200000001 416.1393999974476,312.4735800000001 415.4650599974476,311.7732700000001 C 414.79071999744764,311.07297000000005 413.51331999744764,306.5686300000001 412.6263799974476,301.76364000000007 C 410.6601699974476,291.1116600000001 408.3869599974476,285.63716000000005 403.9508799974476,280.87068000000005 C 402.0931199974476,278.87456000000003 398.9784699974476,275.49956000000003 397.0294399974476,273.37068000000005 C 395.08039999744756,271.24180000000007 388.7976699974476,265.22499000000005 383.0678199974476,259.99999 C 377.3379699974476,254.77499000000003 371.7008699974476,249.59999000000002 370.5409299974476,248.49999000000003 C 367.91274999744763,246.00761000000003 355.2407699974476,236.45929000000004 348.57313999744764,231.94728000000003 C 345.82313999744764,230.08635000000004 342.3624999974476,227.47846000000004 340.88283999744766,226.15198000000004 C 337.43288999744766,223.05920000000003 335.34865999744767,223.89744000000005 334.55376999744766,228.69743000000003 C 334.20742999744766,230.78884000000002 331.96017999744765,238.34999000000002 329.55988999744767,245.49999000000003 C 327.1595999974477,252.64999000000003 324.6833799974477,262.30965000000003 324.05718999744767,266.96590000000003 C 323.00247999744767,274.80857000000003 318.52352999744767,290.03427000000005 314.48663999744764,299.49999 C 313.19815999744765,302.5212 312.7783699974476,306.43636000000004 312.77105999744765,315.49999 C 312.75755999744763,332.17976000000004 315.33709999744764,340.09167 323.94704999744766,349.77941000000004 C 327.31639999744766,353.57053 330.07313999744764,357.01861 330.07313999744764,357.44182000000006 C 330.07313999744764,357.8650200000001 331.19813999744764,359.5482600000001 332.57313999744764,361.1823600000001 C 335.4443399974476,364.59458000000006 335.79836999744765,367.50772000000006 333.45130999744765,368.40837000000005 C 331.4739699974476,369.1671400000001 319.73188999744764,368.17510000000004 315.4956999974477,366.89137000000005 C 311.5252599974477,365.68817000000007 308.0731399974477,359.71497000000005 308.0731399974477,354.04809000000006 C 308.0731399974477,348.58232000000004 306.6676399974477,346.14634000000007 302.5122799974477,344.41012000000006 C 297.7078699974477,342.40270000000004 295.8010899974477,339.0003500000001 295.85914999744773,332.5386500000001 C 295.91364999744775,326.47321000000005 298.4056499974477,310.60852000000006 300.7346499974477,301.4999900000001 C 301.73508999744774,297.5873500000001 302.0397299974477,293.7605200000001 301.6103099974477,290.4999900000001 C 301.2481399974477,287.7499900000001 300.8226799974477,272.44999000000007 300.6648599974477,256.4999900000001 C 300.5070399974477,240.5499900000001 300.0477599974477,226.03375000000008 299.6442399974477,224.24167000000008 C 298.6901999974477,220.0046600000001 296.6019999974477,218.99999000000008 288.7493499974477,218.99999000000008 C 285.1989499974477,218.99999000000008 278.66182999744774,218.31096000000008 274.2224099974477,217.46882000000008 C 268.1116799974477,216.3096400000001 260.6143899974477,216.00554000000008 243.3619399974477,216.21710000000007 C 221.70428999744772,216.48268000000007 220.2505099974477,216.38175000000007 214.0731399974477,214.18363000000008 C 205.0257399974477,210.96425000000008 186.3001899974477,201.90147000000007 177.73945999744768,196.59888000000007 C 169.68958999744768,191.61273000000006 161.69745999744768,188.68325000000007 157.47889999744768,189.17248000000006 C 154.79162999744767,189.48412000000008 154.5692899974477,189.91186000000008 152.8901899974477,197.99999000000005 C 150.53493999744768,209.34508000000005 149.1967199974477,216.27851000000004 147.97190999744768,223.48182000000006 C 147.41249999744767,226.77183000000005 144.99917999744767,235.32183000000006 142.60897999744768,242.48182000000006 C 135.21577999744767,264.62865000000005 133.92163999744767,282.10319000000004 138.53439999744768,297.49999 C 140.01738999744768,302.44999 142.1529899974477,307.79733000000004 143.28018999744768,309.38296 C 146.1897899974477,313.47592000000003 154.07313999744767,328.86202000000003 154.07313999744767,330.44780000000003 C 154.07313999744767,332.48664 160.75780999744768,341.92329 166.15244999744766,347.49999 C 170.57981999744766,352.07678000000004 173.01913999744767,355.70789 177.75392999744767,364.76968000000005 C 179.36554999744766,367.85412 179.36535999744768,368.1363400000001 177.75092999744768,369.75111000000004 C 175.58139999744768,371.92064000000005 162.3801499974477,372.78387000000004 158.15233999744768,371.03266 C 154.63459999744768,369.57556 148.88789999744768,362.62889 148.7531899974477,359.67086 C 148.6987899974477,358.47688 148.9772399974477,356.28226 149.3719299974477,354.79393 C 149.9523599974477,352.60510999999997 149.4890399974477,351.40394 146.9479499974477,348.5098 C 143.9410599974477,345.08513999999997 143.7247299974477,345.00563 141.90197999744768,346.65519 C 140.0886199974477,348.29626 139.88206999744767,348.26204 137.5808999974477,345.93932 C 135.86944999744767,344.21183 134.3026899974477,340.14406 132.21196999744768,331.99999 C 129.38448999744767,320.98597 127.95970999744767,317.26498000000004 122.55795999744768,306.7873 C 121.22165999744769,304.19532000000004 117.67573999744768,295.19532000000004 114.67811999744768,286.7873 C 111.68049999744768,278.37928 108.30303999744768,269.47499 107.17265999744768,266.99999 C 104.30527999744768,260.72183 104.53427999744768,256.35068 108.07283999744769,249.81742000000003 C 109.72248999744768,246.77167000000003 111.53165999744769,241.85701000000003 112.09320999744769,238.89596000000003 C 113.31963999744768,232.42900000000003 113.69790999744768,222.29109000000003 112.74820999744769,221.34139000000005 C 111.81383999744769,220.40702000000005 107.2274099974477,224.83458000000005 105.33273999744769,228.49999000000005 C 103.33712999744769,232.36070000000007 90.47250299744769,245.61581000000007 81.93590699744769,252.60700000000006 C 78.28523699744768,255.59678000000005 74.75222699744769,259.3613500000001 74.08477699744769,260.97273000000007 C 73.41732699744769,262.5841000000001 71.79173699744769,264.60980000000006 70.47235699744769,265.47429000000005 C 69.15263699744769,266.3387900000001 68.0731469974477,267.55188000000004 68.0731469974477,268.17005000000006 C 68.0731469974477,268.78823000000006 66.4924769974477,271.22301000000004 64.5605369974477,273.5806800000001 C 59.76649699744769,279.43117000000007 47.8166869974477,303.6939700000001 43.28778699744769,316.7727100000001 L 39.57314699744769,327.4999900000001 L 39.57314699744769,348.8062500000001 L 39.57314699744769,370.1125100000001 L 37.07314699744769,372.0340100000001 C 35.69814699744769,373.09084000000007 34.03659699744769,373.9655200000001 33.380826997447684,373.97775000000007 C 32.72505699744769,373.9899500000001 29.350056997447687,371.8610100000001 25.880826997447688,369.24671000000006 L 25.880826997447443,369.24671" id="path1966" style="fill:#010101"/>
</svg>
