<?xml version="1.0" ?>
<svg xmlns="http://www.w3.org/2000/svg" xmlns:cc="http://creativecommons.org/ns#" xmlns:dc="http://purl.org/dc/elements/1.1/" xmlns:ev="http://www.w3.org/2001/xml-events" xmlns:inkscape="http://www.inkscape.org/namespaces/inkscape" xmlns:rdf="http://www.w3.org/1999/02/22-rdf-syntax-ns#" xmlns:sodipodi="http://sodipodi.sourceforge.net/DTD/sodipodi-0.dtd" xmlns:svg="http://www.w3.org/2000/svg" xmlns:xlink="http://www.w3.org/1999/xlink" baseProfile="full" height="370" id="svg1382" inkscape:version="1.2.2 (1:1.2.2+202212051550+b0a8486541)" sodipodi:docname="horse14.svg" transform="scale(0.2702702702702703 0.2702702702702703) translate(-225.5 -185.0)" version="1.1" viewBox="0 0 451 370" width="451">
	<defs/>
	<path d="M 312.1479400062938,368.6001400438942 C 308.9963500062938,367.9233000438942 308.3112800062938,367.2269200438942 307.5822500062938,363.95919004389424 C 307.24171000629383,362.4327400438942 306.7086300062938,360.05701004389425 306.3976200062938,358.67982004389427 C 305.61721000629376,355.22395004389426 304.3052800062938,352.9029300438943 302.6844300062938,352.11066004389426 C 300.2548300062938,350.9230600438943 300.0841900062938,349.4608400438943 298.53190000629377,316.52795004389424 C 297.8955900062938,303.02819004389426 296.8635500062938,291.0080100438942 296.29167000629377,290.4361400438942 C 295.4716400062938,289.61611004389425 291.02119000629375,303.6252700438942 289.73417000629377,311.07782004389423 C 288.70142000629374,317.05802004389426 288.9681300062938,335.9207200438942 290.15677000629375,340.96561004389423 C 291.20984000629375,345.43517004389423 293.7611600062938,349.19122004389425 301.14342000629375,357.1401700438942 C 305.72778000629376,362.0764400438942 305.68129000629375,361.7939500438942 302.12811000629375,363.1233600438942 C 298.97521000629376,364.3030100438942 293.31206000629373,364.9762200438942 288.15903000629373,364.78392004389417 C 285.6449400062937,364.6901200438942 283.3324900062937,364.5054800438942 283.02025000629374,364.37365004389414 C 282.11004000629373,363.98926004389415 281.6710800062937,362.61020004389417 280.9552100062937,357.88578004389416 C 279.94845000629374,351.24169004389415 279.06555000629373,349.1888600438942 276.69458000629373,347.97928004389416 C 274.01585000629376,346.6126700438942 273.99077000629376,344.76508004389416 276.36544000629374,323.7361800438942 C 277.95525000629374,309.6576100438942 278.07586000629374,308.4476700438942 279.17841000629375,295.5185900438942 C 280.0747400062937,285.0076100438942 281.10728000629376,268.71621004389425 281.6799500062937,256.0491300438942 C 282.2661400062937,243.0830900438942 281.4160900062937,219.94487004389418 280.3150700062937,218.8974400438942 C 279.8455300062937,218.4507400438942 269.2167900062937,217.8238800438942 245.4370700062937,216.84037004389418 C 195.6106600062937,214.7796100438942 185.6198300062937,212.6701700438942 158.93830000629373,198.5772300438942 C 152.29660000629372,195.06915004389418 147.89687000629374,193.22207004389418 144.52193000629373,192.5249800438942 C 142.57583000629373,192.1230200438942 142.27245000629372,192.1449600438942 141.10315000629373,192.7722300438942 C 139.38476000629373,193.6940600438942 136.28159000629373,196.5613500438942 135.02382000629373,198.3894400438942 C 133.60734000629373,200.4482300438942 129.15984000629373,209.4285400438942 126.84229000629372,214.9094700438942 C 118.03633000629372,235.73518004389422 112.57403000629373,257.8843600438942 110.23642000629373,282.24490004389423 C 109.57920000629373,289.09385004389424 109.57773000629372,292.19143004389423 110.22942000629372,297.71838004389423 C 111.02134000629373,304.43825004389424 112.06099000629372,307.8974000438942 116.72812000629372,319.34092004389424 C 117.83234000629372,322.0484000438942 119.64292000629372,326.59285004389426 120.75164000629373,329.43968004389427 C 122.85152000629373,334.8315400438943 123.86225000629372,336.4245200438943 126.52175000629373,338.5337600438943 C 129.03960000629374,340.5306500438943 136.87583000629374,348.7240200438943 138.60011000629373,351.16262004389426 C 140.88495000629374,354.39398004389426 140.93638000629375,354.7162400438943 139.43272000629372,356.3806400438943 C 137.24381000629373,358.8034800438943 136.36282000629373,359.0348800438943 130.35897000629373,358.7639600438943 C 120.13409000629372,358.3025600438943 119.84688000629372,358.0908200438943 116.24912000629372,348.36072004389433 C 114.01224000629372,342.3111500438943 113.40717000629373,341.3948600438943 110.54631000629372,339.72452004389436 C 109.23116000629372,338.95669004389435 107.70727000629373,337.95253004389434 107.15989000629372,337.49307004389436 C 104.24186000629372,335.04375004389436 103.11495000629372,329.69214004389437 98.78390100629372,297.71622004389434 C 98.01116100629372,292.0111700438943 97.14076100629372,286.31584004389435 96.84966100629372,285.0599300438943 C 96.53140100629372,283.6868000438943 94.59042100629371,279.20109004389434 91.98093100629372,273.80806004389433 C 86.43394100629372,262.34410004389434 86.32427100629371,262.0155400438943 86.34681100629372,256.9281800438943 C 86.36241100629373,253.4124900438943 86.55247100629371,252.1270400438943 87.80269100629371,247.0827900438943 C 89.52000100629371,240.1540300438943 89.78035100629371,238.62705004389431 89.35555100629371,237.9751300438943 C 88.7341710062937,237.0215500438943 85.75285100629371,239.3185000438943 79.6378210062937,245.4621800438943 C 64.07703100629371,261.0958500438943 52.615131006293716,282.2875300438943 49.94521100629371,300.3603800438943 C 49.32122100629371,304.5842300438943 48.79481100629371,320.3894700438943 48.99495100629371,328.89164004389426 C 49.21988100629371,338.44505004389424 49.52544100629371,339.63131004389425 52.348291006293714,341.90936004389425 C 57.21652100629371,345.8379800438943 62.01794100629372,351.3011900438943 65.55778100629371,356.9395400438942 C 68.84695100629371,362.17852004389425 69.2449110062937,364.7216500438942 66.91433100629371,365.60774004389424 C 63.24724100629371,367.00198004389426 56.376991006293714,367.39640004389423 52.62403100629371,366.4281700438942 C 47.92363100629371,365.2155000438942 43.71160100629371,362.1352000438942 41.98588100629372,358.64838004389424 C 41.42430100629372,357.51370004389423 41.341851006293716,356.64572004389424 41.430181006293715,352.7991000438942 C 41.556231006293714,347.3095500438942 41.36418100629371,346.87762004389424 38.418471006293714,346.02624004389423 C 35.80241100629372,345.27018004389424 32.869221006293714,343.97443004389424 32.52952100629371,343.42474004389425 C 31.22529100629371,341.3144500438942 31.63736100629371,338.46607004389426 35.89193100629371,320.1823800438942 L 37.25074100629371,314.34304004389423 L 37.61115100629371,300.84322004389423 C 38.17828100629371,279.5999600438942 38.69069100629371,265.5621400438942 39.07143100629371,260.8378900438942 C 39.54580100629371,254.9518500438942 39.840991006293706,254.39773004389423 47.156221006293705,245.6614700438942 C 53.60783100629371,237.9565800438942 56.9651510062937,232.24218004389422 59.12941100629371,225.28228004389422 C 60.22319100629371,221.76476004389423 60.27759100629371,221.32436004389422 60.28044100629371,215.96433004389422 C 60.284441006293704,210.47741004389422 60.24734100629371,210.20372004389424 58.82835100629371,204.8882700438942 C 58.02809100629371,201.8907000438942 55.865661006293706,194.8248400438942 54.02295100629371,189.18637004389421 C 46.66718100629371,166.67841004389422 45.55476100629371,160.80403004389422 45.776811006293705,145.64012004389423 L 45.9055410062937,136.84959004389424 L 47.0573110062937,133.50919004389425 C 48.4526110062937,129.46254004389425 51.7941410062937,122.44195004389425 54.0395510062937,118.83929004389425 C 56.0111310062937,115.67604004389425 56.4919010062937,113.04421004389425 55.2958910062937,111.96185004389426 C 53.1660910062937,110.03440004389427 49.781911006293704,114.85536004389427 45.3863310062937,126.07866004389426 C 41.200741006293704,136.76569004389427 40.8652610062937,140.20739004389426 40.1033710062937,180.27479004389426 C 39.3584610062937,219.44802004389425 38.8674210062937,235.58819004389426 38.3060910062937,239.34713004389425 C 38.118361006293696,240.60417004389424 37.258581006293696,244.32257004389425 36.395421006293695,247.61022004389426 C 35.53230100629369,250.89788004389425 33.6315710062937,258.57201004389424 32.171611006293695,264.66384004389425 C 29.006241006293692,277.87186004389423 27.23007100629369,284.44140004389425 26.372601006293692,286.11273004389426 C 26.02531100629369,286.78960004389427 25.25571100629369,287.62672004389424 24.662391006293692,287.9730000438943 C 24.06903100629369,288.3192700438943 22.913781006293693,289.4602100438943 22.095101006293692,290.50840004389426 C 21.27645100629369,291.55659004389423 20.58126100629369,292.38088004389425 20.55018100629369,292.34015004389425 C 20.519181006293692,292.29945004389424 20.78000100629369,290.44646004389426 21.12986100629369,288.22245004389424 C 21.72407100629369,284.44537004389423 22.04689100629369,277.66779004389423 21.61186100629369,278.10281004389424 C 21.50483100629369,278.2098300438942 21.03605100629369,281.29586004389427 20.57012100629369,284.9606600438942 C 20.10415100629369,288.62546004389424 19.56877100629369,292.0293600438942 19.38037100629369,292.5248700438942 C 18.91796100629369,293.74118004389425 17.67532100629369,294.55163004389425 16.27289100629369,294.55163004389425 C 13.77964100629369,294.55163004389425 12.86248100629369,290.7676000438943 12.90647100629369,280.66260004389426 C 12.93847100629369,273.30312004389424 12.95777100629369,273.29555004389425 11.11397100629369,281.36584004389425 C 10.45120100629369,284.2667200438942 9.73185120629369,287.1010600438943 9.515431206293691,287.66438004389425 C 8.387751206293691,290.5996400438943 7.685071206293692,285.40380004389425 7.427331206293692,272.22370004389427 L 7.214141206293692,261.32344004389427 L 6.758831206293692,266.0703300438943 C 6.2868812062936925,270.99045004389427 5.787971206293692,274.0515300438943 5.211487206293692,275.56410004389426 C 4.8966372062936925,276.3901700438943 4.816617206293692,276.30309004389426 3.8836172062936924,274.11920004389424 C 2.524157206293692,270.93701004389425 1.8292772062936924,267.31055004389424 1.2296972062936924,260.26858004389425 C -0.3298827737063077,241.95258004389424 -0.4331227737063077,174.74380004389423 1.0755072062936923,159.88077004389424 C 2.5661672062936924,145.19452004389424 5.294297206293693,132.74406004389425 8.857171206293692,124.36705004389424 C 13.299731006293692,113.92183004389423 19.201231006293693,107.37865004389424 28.311411006293692,102.79751004389423 C 36.06778100629369,98.89716504389423 41.1611510062937,97.92651504389424 61.8843310062937,96.39946504389424 C 70.66445100629369,95.75247504389424 72.2072210062937,95.48758504389424 81.10422100629368,93.09947504389424 C 88.02294100629369,91.24237504389424 95.22725100629368,89.88959504389425 101.80023000629369,89.21332504389424 C 108.14947000629368,88.56006504389424 121.61308000629369,88.35514504389424 127.46857000629369,88.82262504389425 C 136.1446100062937,89.51530504389424 139.07122000629371,90.05054504389425 156.47730000629372,94.12804504389425 C 182.70071000629372,100.27106004389425 190.58595000629373,101.46774004389425 206.8071200062937,101.76619004389424 C 232.8221800062937,102.24484004389424 254.5895100062937,98.82740504389425 270.1784400062937,91.81702504389423 C 280.48578000629374,87.18178504389424 282.13385000629376,85.63156504389423 296.69266000629375,66.87699504389423 C 308.3462200062938,51.86496504389422 311.40313000629374,48.18821504389422 316.97251000629376,42.48512504389422 C 323.70616000629377,35.58982504389422 329.3137100062938,31.20360504389422 338.26538000629375,25.829885043894222 C 350.6544200062938,18.39269504389422 359.88981000629377,15.157285043894223 373.07585000629376,13.634805043894222 C 377.44601000629376,13.130215043894221 385.34880000629374,12.551545043894222 387.8696100062938,12.551545043894222 L 389.86446000629377,12.551545043894222 L 395.4123200062938,7.1893250438942236 C 401.30160000629377,1.4971050438942237 402.88612000629377,0.15539508389422352 403.3677100062938,0.4530450838942235 C 403.8838400062938,0.7720150838942235 403.6978400062938,2.8261250438942236 402.7878400062938,6.8574250438942235 C 401.9311400062938,10.652515043894223 401.70432000629376,12.551545043894222 402.10769000629375,12.551545043894222 C 403.19503000629373,12.551545043894222 406.00624000629375,9.202285043894221 409.07425000629377,4.251745043894224 C 412.5646300062938,-1.3803749561057757 413.32426000629374,-1.407134956105776 413.0227100062938,4.112635043894224 C 412.80543000629376,8.089455043894223 411.46161000629377,13.653145043894224 409.99725000629377,16.638335043894223 C 409.41640000629377,17.822425043894224 408.94119000629377,19.158865043894224 408.94119000629377,19.608215043894223 C 408.94119000629377,20.933035043894222 410.4121600062938,22.68793504389422 414.9628400062938,26.792195043894225 C 421.6616000062938,32.833855043894225 422.4439000062938,34.125155043894225 425.1677700062938,43.637135043894226 C 428.29915000629376,54.572105043894226 432.8416700062938,64.01798504389423 444.35751000629375,83.54133504389424 C 446.5697200062938,87.29176504389423 448.79785000629374,91.21287504389423 449.30890000629375,92.25493504389424 L 450.23814000629375,94.14958504389423 L 449.59616000629376,95.98461504389424 C 448.86526000629374,98.07384504389424 447.47842000629373,100.46409004389423 445.36929000629374,103.26978004389424 C 444.56977000629377,104.33343004389424 443.2467100062937,106.33737004389424 442.4292100062937,107.72297004389425 C 440.2831700062937,111.36055004389425 439.30524000629373,111.88208004389425 434.60954000629374,111.89339004389424 C 431.22773000629377,111.90139004389424 430.7819400062937,111.98279004389424 429.3043200062937,112.86035004389424 C 428.4170800062937,113.38729004389424 427.3422200062937,113.81841004389425 426.9158000062937,113.81841004389425 C 425.8629100062937,113.81841004389425 422.9815400062937,111.05706004389424 421.8796800062937,108.99209004389425 C 421.3870600062937,108.06882004389425 420.4812900062937,105.96261004389424 419.8668800062937,104.31160004389425 C 418.4914900062937,100.61591004389425 416.46863000629367,97.85431504389425 411.8790800062937,93.40671504389425 C 405.9330000062937,87.64464504389426 403.1011200062937,86.08887504389425 390.22419000629367,81.51011504389425 C 381.1233000062937,78.27403504389424 375.96368000629366,76.24890504389424 375.68952000629366,75.80534504389425 C 375.09838000629367,74.84885504389425 374.1948500062937,76.26803504389424 372.35584000629365,81.04155504389425 C 370.08686000629365,86.93113504389424 364.83055000629366,105.65622004389425 362.69164000629365,115.46932004389424 C 360.5420000062937,125.33168004389424 360.02101000629364,126.94415004389424 356.00121000629366,136.17591004389425 C 355.11951000629364,138.20085004389423 354.17826000629367,140.92135004389425 353.9095900062937,142.22144004389426 C 353.4847600062937,144.27703004389426 352.5591900062937,153.65603004389425 351.2646600062937,169.02292004389426 C 350.0223100062937,183.77002004389425 348.2458200062937,193.48170004389425 345.8296300062937,198.73490004389427 C 344.3808000062937,201.88490004389428 342.4166100062937,204.48726004389428 337.9387600062937,209.18954004389428 L 334.3450300062937,212.9633800438943 L 332.2850500062937,220.9688400438943 C 330.06645000629373,229.5907300438943 329.3319500062937,232.06739004389428 323.4975700062937,250.59900004389428 C 318.9498400062937,265.04386004389426 318.7279800062937,265.88711004389427 318.2243400062937,270.6414000438943 C 317.4161300062937,278.27071004389427 315.2836800062937,288.6214700438943 312.9361700062937,296.3097400438943 C 310.4884300062937,304.3262800438943 309.4250200062937,309.4467000438943 308.7372500062937,316.5279500438943 C 307.4308100062937,329.9790300438943 309.9443000062937,343.38317004389427 314.80945000629373,348.9102700438943 C 315.5973000062937,349.8053200438943 318.38861000629373,352.15834004389427 321.01237000629374,354.13923004389426 C 328.74762000629374,359.97916004389424 331.58459000629375,362.85978004389426 331.58459000629375,364.87411004389423 C 331.58459000629375,366.03074004389424 330.87016000629376,366.71401004389423 328.67865000629376,367.6533600438942 C 325.4884900062938,369.0207100438942 316.50290000629377,369.53538004389424 312.1482900062938,368.6001400438942 L 312.1479400062938,368.6001400438942" id="path1935" style="fill:#000000;stroke-width:0.351621"/>
</svg>
