<?xml version="1.0" ?>
<svg xmlns="http://www.w3.org/2000/svg" xmlns:cc="http://creativecommons.org/ns#" xmlns:dc="http://purl.org/dc/elements/1.1/" xmlns:ev="http://www.w3.org/2001/xml-events" xmlns:inkscape="http://www.inkscape.org/namespaces/inkscape" xmlns:rdf="http://www.w3.org/1999/02/22-rdf-syntax-ns#" xmlns:sodipodi="http://sodipodi.sourceforge.net/DTD/sodipodi-0.dtd" xmlns:svg="http://www.w3.org/2000/svg" xmlns:xlink="http://www.w3.org/1999/xlink" baseProfile="full" height="355" id="svg1386" inkscape:version="1.2.2 (1:1.2.2+202212051550+b0a8486541)" sodipodi:docname="horse01.svg" transform="scale(0.28169014084507044 0.28169014084507044) translate(-225.5 -177.5)" version="1.1" viewBox="0 0 451 355" width="451">
	<defs/>
	<path d="M 67.74656699757358,353.21319999992915 C 62.38220099757358,351.0488999999291 61.59179099757358,349.1596899999291 63.40516599757358,342.83666999992914 C 64.73443299757358,338.20190999992917 64.30728299757358,336.71654999992916 60.65966899757358,333.28989999992916 C 55.40228799757358,328.35078999992913 55.32575799757358,325.4089699999292 59.98229499757358,307.25043999992914 C 62.05442299757358,299.17000999992916 64.10911499757358,283.56453999992914 64.74849299757358,271.05118999992914 L 65.87237299757358,249.05552999992915 L 72.59477199757357,241.98874999992915 C 87.38638499757357,226.43947999992915 89.32415499757357,204.64985999992916 78.83313199757357,171.84037999992916 C 70.25112299757357,145.00109999992915 68.80034499757357,128.74420999992915 74.06607499757358,118.42250999992916 C 78.63279199757358,109.47101999992915 78.59253199757357,109.95381999992917 75.06607199757357,106.42735999992917 C 68.08994899757357,99.45123599992917 52.31594099757358,104.85860999992917 46.428034997573576,116.24454999992916 C 40.79913399757358,127.12963999992917 43.055621997573574,136.03556999992915 56.19485299757358,154.79246999992915 C 65.19762099757358,167.64431999992917 68.14976199757358,179.17694999992915 64.93874199757357,188.95070999992916 C 62.911756997573576,195.12049999992917 63.01358799757357,197.29185999992916 65.69415499757358,205.05992999992915 C 69.37969399757358,215.74044999992915 69.70625099757358,225.32760999992917 66.72356599757357,235.28288999992915 C 64.72143199757357,241.96539999992916 64.44292699757358,242.20942999992914 63.41198899757357,238.18465999992915 C 62.38180599757357,234.16275999992916 62.11358999757357,234.39924999992914 60.24760299757357,240.97294999992914 C 59.126271997573575,244.92337999992915 55.36420299757357,252.36599999992913 51.88744399757357,257.51196999992914 C 48.41070399757357,262.65794999992914 45.566085997573566,267.6604599999291 45.566085997573566,268.6286699999291 C 45.566085997573566,269.5970699999291 44.640194997573566,270.96157999992914 43.508556997573564,271.66098999992914 C 42.06052599757356,272.55575999992914 41.80469899757357,271.52271999992917 42.64493899757356,268.17562999992913 C 45.02132199757356,258.7073399999291 38.02066899757356,265.4356499999291 34.57515499757356,275.93158999992914 C 33.420065997573566,279.45034999992913 33.17749199757356,278.55018999992916 33.501570997573566,271.94793999992913 C 33.88508599757357,264.1345199999291 33.575190997573564,263.4185899999291 29.809405997573563,263.4185899999291 C 24.72020599757356,263.4185899999291 14.123042997573565,259.1104599999291 12.415288997573564,256.3473099999291 C 11.529044997573564,254.9133099999291 12.543318997573564,254.6466499999291 15.787378997573564,255.46079999992912 C 21.958404997573563,257.0097299999291 21.67849799757356,255.1797799999291 15.234694997573564,251.8475899999291 C 10.041455997573564,249.1620199999291 5.995584697573564,241.21517999992912 6.133652697573565,233.9713399999291 C 6.196322697573565,230.68278999992913 6.559686697573564,230.8524799999291 8.967655697573564,235.2958099999291 C 12.495482997573564,241.8055899999291 13.818679997573563,240.6274599999291 11.092216997573564,233.40427999992912 C 9.353110697573564,228.7968099999291 9.515921697573564,227.08447999992913 12.062658997573564,223.1976099999291 C 13.745740997573565,220.6289299999291 16.362058997573563,218.5272999999291 17.876708997573562,218.5272999999291 C 20.33786499757356,218.5272999999291 20.34253399757356,218.93868999992912 17.920698997573563,222.3962099999291 C 15.127723997573565,226.3838199999291 16.565053997573564,232.0517899999291 21.144682997573565,235.10960999992912 C 25.540509997573565,238.04477999992912 35.94814199757357,236.4983599999291 39.86610999757357,232.3279599999291 C 46.63212499757357,225.1257799999291 43.89551599757357,205.4268899999291 35.153996997573564,198.4088399999291 C 33.27199299757356,196.89786999992913 33.716721997573565,198.47653999992912 36.42206799757356,202.9098199999291 C 38.71375099757356,206.66529999992912 40.294587997573565,210.0218899999291 39.935026997573566,210.36893999992913 C 39.575465997573566,210.71585999992914 34.54397799757356,205.62315999992913 28.753917997573563,199.0516499999291 C 21.74575999757358,191.09758999992917 15.20073599757358,180.80058999992917 9.17510369757358,168.24907999992917 C 0.8606816675735799,150.9300199999292 0.11431966757357995,148.29811999992918 0.009255667573579948,135.92734999992916 C -0.09237833242642005,123.96320999992918 0.56540466757358,121.21143999992917 5.90193769757358,111.27471999992918 C 18.59970599757358,87.63121599992917 38.422782997573584,80.62035599992917 65.66498899757359,90.13822599992918 C 72.73186599757359,92.60724599992918 79.91148199757359,94.62735599992918 81.6196819975736,94.62735599992918 C 83.3278819975736,94.62735599992918 91.5799249975736,91.33836599992918 99.95754499757359,87.31849599992918 C 121.40027999757359,77.02955599992919 134.1860099975736,75.13500599992918 155.4378799975736,79.09759599992918 C 202.6508399975736,87.90084599992919 202.2214899975736,87.85194599992919 216.4128899975736,86.04125599992918 C 235.3503299975736,83.62498599992918 246.8638299975736,77.79168599992917 265.2569799975736,61.29446299992919 C 289.47636999757356,39.57153299992918 303.3710099975736,25.893839999929185 305.7098999975736,21.473143999929185 C 306.8801799975736,19.261241999929187 310.4398599975736,16.117397999929185 313.62029999757357,14.486801999929183 C 316.80075999757355,12.856224999929182 321.6870699975736,9.615684499929182 324.4787699975736,7.2856104999291835 C 327.27044999757356,4.955555499929184 331.46499999757356,3.0491304999291833 333.7999599975736,3.0491304999291833 C 336.1349199975736,3.0491304999291833 338.5427099975736,2.244373499929183 339.15060999757355,1.260769499929183 C 339.82266999757354,0.17335854992918298 348.48570999757357,-0.2598784500708171 361.25331999757356,0.15541954992918305 C 391.7752599975736,1.148235499929183 403.63984999757355,5.365161499929183 419.48891999757353,20.853625999929186 C 437.41441999757353,38.37124799992919 440.65319999757355,40.75781199992918 446.50068999757355,40.75781199992918 C 450.74960999757354,40.75781199992918 451.41970999757353,41.243823999929184 449.8231299975735,43.16759499992918 C 448.7231699975735,44.49296499992918 448.2454099975735,45.99960699992918 448.7614699975735,46.51565899992918 C 450.1032699975735,47.85744099992918 440.8030999975735,53.65901199992918 439.0486099975735,52.57467199992918 C 436.7388799975735,51.14718299992918 429.8355199975735,61.69333099992918 429.8355199975735,66.64938599992917 C 429.8355199975735,69.11842599992917 427.8908399975735,72.98934599992917 425.5140099975735,75.25143599992917 C 422.0938199975735,78.50651599992918 409.7322499975735,106.76069999992917 406.15198999757354,119.50610999992918 C 405.77607999757356,120.84433999992918 402.55579999757356,122.94057999992918 398.9957899975735,124.16445999992918 C 390.65153999757354,127.03306999992918 385.63883999757354,124.54598999992918 381.14534999757353,115.30785999992918 C 378.2192299975735,109.29208999992917 378.14963999757356,108.14783999992918 380.5054099975735,104.78451999992917 C 384.0933799975735,99.66198599992917 383.8312799975735,93.62469599992917 379.3978199975735,79.27081599992917 C 376.4515899975735,69.73199599992917 376.06643999757347,66.20691599992917 377.60216999757347,62.836316999929174 C 378.67747999757347,60.476274999929174 379.5572699975735,57.775327999929175 379.5572699975735,56.83417299992917 C 379.5572699975735,54.01898599992917 373.0523799975735,54.896412999929176 368.88089999757347,58.274266999929175 C 365.37993999757344,61.10916999992917 364.9399899975735,63.40747799992918 364.4983999975735,81.16882599992917 C 364.17133999757345,94.32376599992917 362.7113999975735,105.78905999992917 360.1233899975735,115.52672999992916 L 356.2392299975735,130.14134999992916 L 359.98315999757347,138.60514999992915 C 362.65068999757347,144.63550999992916 363.38992999757346,148.86630999992914 362.5543199975735,153.32042999992916 C 360.5080899975735,164.22781999992915 362.7252699975735,169.51911999992916 369.9062699975735,170.86630999992917 C 373.3733699975735,171.51672999992917 380.8014099975735,173.96217999992916 386.4130199975735,176.30061999992918 C 392.0246399975735,178.63905999992917 399.5353299975735,181.03208999992918 403.1034499975735,181.61847999992918 L 409.5909499975735,182.68463999992917 L 410.5985199975735,193.79638999992918 C 411.6859999975735,205.78941999992918 410.8723799975735,208.28341999992918 402.3096099975735,219.20407999992918 C 399.3074599975735,223.03294999992917 394.7163599975735,230.29689999992917 392.10716999757346,235.34626999992918 C 387.64114999757345,243.98909999992918 386.8460599975735,244.61380999992917 378.53723999757347,246.00669999992917 C 373.68293999757344,246.82066999992918 368.38499999757346,248.68670999992918 366.76402999757346,250.15356999992918 C 365.14305999757346,251.62061999992918 360.31793999757343,252.98315999992917 356.0415599975735,253.18175999992917 C 346.75067999757346,253.61289999992917 345.47023999757346,250.96879999992916 350.7815799975735,242.31968999992918 C 353.6614099975735,237.6301599999292 355.5345299975735,236.48381999992918 360.31740999757346,236.48381999992918 C 363.5910399975735,236.48381999992918 367.16869999757347,237.38307999992918 368.2677799975735,238.48219999992918 C 370.6109599975735,240.82533999992918 374.1703199975735,239.12198999992918 374.1703199975735,235.6574599999292 C 374.1703199975735,234.3319099999292 376.9911399975735,231.58294999992918 380.43882999757346,229.54882999992918 C 383.8864999975735,227.51453999992918 388.32771999757347,223.1925799999292 390.30819999757347,219.94424999992918 C 394.59696999757347,212.9099699999292 395.24497999757347,199.1699299999292 391.3583299975735,197.67847999992918 C 389.9480399975735,197.13729999992918 382.8776699975735,197.5597899999292 375.6463799975735,198.61711999992917 C 366.0985799975735,200.01328999992919 360.5319099975735,199.98882999992918 355.3159799975735,198.52781999992916 C 351.3655399975735,197.42126999992917 343.6666899975735,196.15346999992917 338.2074199975735,195.71051999992918 C 328.4333299975735,194.91744999992918 328.2379499975735,194.9965499999292 325.4371999975735,200.88035999992917 C 318.7550799975735,214.91816999992918 309.5254799975735,245.57837999992915 309.5003199975735,253.82167999992916 C 309.4859199975735,258.60618999992914 308.36623999757353,267.36914999992916 307.0125699975735,273.2947999999292 C 305.6589099975735,279.2204499999292 304.0299099975735,288.98394999992917 303.3925599975735,294.9916599999292 C 301.3857399975735,313.9081299999292 308.72299999757354,333.4491299999292 317.8326099975735,333.4491299999292 C 320.10040999757354,333.4491299999292 327.4600699975735,343.2998899999292 327.4766599975735,346.35752999992917 C 327.4892599975735,348.65577999992917 312.2573899975735,349.8874199999292 307.2822999975735,347.99031999992917 C 303.2941599975735,346.4697599999292 302.3389599975735,344.9763099999292 302.3167699975735,340.2271699999292 C 302.2833699975735,333.07814999992917 300.7612999975735,330.4852299999292 294.3040499975735,326.5773499999292 L 289.3399499975735,323.5730499999292 L 289.1084199975735,266.1121999999292 C 288.8884899975735,211.53282999992922 288.6912199975735,208.3360899999292 285.1747399975735,202.3664799999292 C 280.9975899975735,195.27528999992919 286.8155199975735,195.9199599999292 235.68343999757352,196.8825399999292 C 216.90478999757352,197.2360699999292 213.64941999757352,196.8105399999292 203.2208299975735,192.6383599999292 C 196.8458399975735,190.08788999992922 191.1080299975735,188.0011899999292 190.4701799975735,188.0011899999292 C 187.7186799975735,188.0011899999292 183.83125999757348,199.2939599999292 183.83125999757348,207.2869199999292 C 183.83125999757348,212.06649999992922 182.50387999757348,220.7931899999292 180.8815199975735,226.67932999992922 C 176.2222599975735,243.58412999992922 176.9318799975735,266.7094299999292 182.64687999757348,284.20930999992925 C 189.06512999757348,303.86271999992925 199.51643999757349,319.69622999992924 210.16085999757348,325.89230999992924 C 220.76038999757347,332.0621699999292 228.72254999757348,339.5160999999292 228.72254999757348,343.26900999992927 C 228.72254999757348,345.72132999992925 226.80392999757348,346.09859999992926 216.60189999757347,345.6516599999293 L 204.48124999757346,345.1206799999293 L 203.92179999757346,339.32826999992926 C 203.27973999757347,332.6802299999293 196.40424999757346,326.26633999992924 189.91998999757345,326.26633999992924 C 185.10891999757345,326.26633999992924 183.48011999757344,323.59171999992924 174.64310999757345,301.18018999992927 C 171.34450999757345,292.81478999992925 164.73078999757345,279.4820799999293 159.94592999757344,271.5519399999293 L 151.24619999757346,257.1337599999293 L 153.17350999757346,247.4070799999293 C 155.91768999757346,233.55792999992929 155.55708999757346,217.70825999992928 152.32164999757347,209.9647599999293 C 149.52173999757346,203.2636599999293 143.07694999757348,195.1837999999293 140.53181999757348,195.1837999999293 C 137.01389999757347,195.1837999999293 121.08135999757349,211.18069999992932 113.93692999757349,221.88619999992932 C 109.56753999757349,228.43349999992932 101.55391999757349,239.04256999992933 96.1288849975735,245.4620299999293 C 90.70386499757349,251.88147999992933 84.41448199757349,261.1739799999293 82.1525019975735,266.1120199999293 C 69.7567049975735,293.1728499999293 68.5990299975735,327.6868799999293 79.6830919975735,339.7337299999293 C 85.6174119975735,346.1835299999293 88.9606449975735,352.30364999992935 87.40144499757349,353.8628099999293 C 85.77117199757349,355.49308999992934 72.2931879975735,355.0475799999293 67.74656299757349,353.2131499999293 L 67.74656699757358,353.21319999992915" id="path1939" style="fill:#000000;stroke-width:1.79565"/>
</svg>
