<?xml version="1.0" ?>
<svg xmlns="http://www.w3.org/2000/svg" xmlns:ev="http://www.w3.org/2001/xml-events" xmlns:xlink="http://www.w3.org/1999/xlink" baseProfile="full" height="256" id="Layer_1" style="enable-background:new 0 0 500 500;" transform="scale(0.390625 0.390625) translate(-234.5 -128.0)" version="1.1" viewBox="0 0 469 256" width="469" x="0px" xml:space="preserve" y="0px">
	<defs/>
	<path d="M 59.905022447454286,200.46472585440063 C 59.70502244745428,201.96472585440063 60.00502244745428,203.56472585440065 60.60502244745429,204.96472585440063 C 62.505022447454294,210.16472585440061 62.905022447454286,215.56472585440065 62.505022447454294,220.96472585440063 C 62.30502244745429,223.3647258544006 62.505022447454294,225.76472585440064 62.505022447454294,228.16472585440061 C 62.505022447454294,230.26472585440064 63.10502244745429,232.16472585440061 64.30502244745429,233.8647258544006 C 65.40502244745429,235.46472585440063 66.40502244745429,237.16472585440061 67.0050224474543,239.0647258544006 C 67.2050224474543,239.8647258544006 67.4050224474543,240.5647258544006 67.4050224474543,241.3647258544006 C 67.4050224474543,242.96472585440063 66.7050224474543,243.76472585440058 65.2050224474543,244.26472585440058 C 64.5050224474543,244.46472585440057 63.80502244745429,244.66472585440056 63.1050224474543,244.66472585440056 C 58.6050224474543,244.56472585440054 54.1050224474543,244.56472585440054 49.7050224474543,243.56472585440054 C 49.2050224474543,243.4647258544005 48.7050224474543,243.36472585440055 48.2050224474543,243.16472585440056 C 43.9050224474543,241.76472585440058 43.005022447454294,240.56472585440054 42.6050224474543,235.96472585440057 C 42.505022447454294,234.66472585440056 42.4050224474543,233.36472585440055 41.6050224474543,232.26472585440058 C 40.805022447454306,231.0647258544006 40.1050224474543,230.96472585440057 39.005022447454294,231.8647258544006 C 37.6050224474543,232.96472585440063 36.6050224474543,232.76472585440058 36.005022447454294,231.16472585440061 C 34.6050224474543,227.76472585440064 33.6050224474543,224.16472585440061 34.1050224474543,220.3647258544006 C 34.505022447454294,217.3647258544006 35.305022447454306,214.3647258544006 36.2050224474543,211.46472585440063 C 38.2050224474543,205.3647258544006 37.805022447454306,199.3647258544006 35.505022447454294,193.3647258544006 C 34.2050224474543,189.96472585440063 32.7050224474543,186.66472585440061 31.1050224474543,183.46472585440063 C 29.505022447454298,180.26472585440064 28.005022447454298,177.06472585440065 27.305022447454302,173.56472585440065 C 26.6050224474543,170.36472585440066 26.805022447454302,167.36472585440066 28.2050224474543,164.46472585440063 C 28.7050224474543,163.46472585440063 29.1050224474543,162.46472585440063 29.6050224474543,161.56472585440065 C 31.005022447454298,159.26472585440064 31.505022447454298,156.66472585440067 31.1050224474543,154.06472585440065 C 31.005022447454298,152.86472585440066 31.005022447454298,151.66472585440067 31.305022447454302,150.46472585440063 C 32.00502244745431,146.8647258544006 31.7050224474543,143.3647258544006 30.805022447454302,139.96472585440063 C 30.505022447454305,138.76472585440064 30.005022447454305,137.66472585440061 29.305022447454302,136.66472585440061 C 22.805022447454302,126.3647258544006 17.805022447454302,115.3647258544006 14.405022447454304,103.76472585440061 C 10.205022447454304,89.4647258544006 11.505022447454305,75.3647258544006 17.2050224474543,61.76472585440061 C 19.405022447454304,56.56472585440062 22.1050224474543,51.76472585440061 25.405022447454304,47.26472585440061 C 25.805022447454302,46.664725854400615 26.2050224474543,46.06472585440062 26.7050224474543,45.4647258544006 C 26.405022447454304,44.76472585440061 25.7050224474543,44.56472585440059 25.2050224474543,44.26472585440061 C 23.005022447454298,43.06472585440062 20.805022447454302,41.76472585440061 18.805022447454302,40.164725854400615 C 16.405022447454304,38.164725854400615 14.505022447454301,35.864725854400604 13.405022447454304,32.864725854400604 C 12.205022447454304,29.664725854400615 10.105022447454303,27.26472585440061 7.305022447454302,25.464725854400598 C 5.805022447454302,24.564725854400592 4.305022447454302,23.664725854400587 2.9050224474543036,22.664725854400587 C 1.3050224474543022,21.564725854400592 0.005022447454303247,20.26472585440058 0.005022447454303247,18.164725854400587 C -0.0949775525456964,15.964725854400598 1.3050224474543022,14.664725854400587 3.605022447454303,14.864725854400575 C 5.105022447454303,15.064725854400564 6.305022447454302,15.864725854400575 7.405022447454304,16.76472585440058 C 8.205022447454304,17.46472585440057 9.005022447454305,18.164725854400587 10.005022447454305,18.664725854400587 C 11.005022447454305,19.164725854400587 11.805022447454306,19.064725854400592 12.505022447454305,18.164725854400587 C 13.205022447454304,17.364725854400575 13.805022447454306,16.364725854400575 14.305022447454306,15.464725854400598 C 15.105022447454306,14.064725854400592 16.105022447454306,12.864725854400604 17.405022447454304,11.864725854400604 C 22.905022447454304,7.764725854400609 29.105022447454306,6.164725854400615 35.805022447454306,7.864725854400604 C 38.9050224474543,8.564725854400592 41.305022447454306,10.464725854400598 43.00502244745431,13.064725854400592 C 45.20502244745431,16.364725854400604 45.4050224474543,19.864725854400604 43.70502244745431,23.364725854400604 C 42.405022447454314,26.064725854400592 40.305022447454306,28.064725854400592 37.905022447454314,29.76472585440061 C 35.305022447454306,31.664725854400615 32.405022447454314,32.864725854400604 29.005022447454312,33.864725854400604 C 30.605022447454314,34.76472585440061 31.90502244745431,34.864725854400604 33.305022447454306,34.56472585440059 C 34.50502244745431,34.26472585440058 35.6050224474543,33.76472585440058 36.6050224474543,32.9647258544006 C 37.4050224474543,32.364725854400604 38.20502244745431,31.76472585440061 38.9050224474543,30.964725854400598 C 44.1050224474543,25.564725854400592 50.505022447454294,21.76472585440061 57.2050224474543,18.664725854400587 C 67.7050224474543,13.664725854400587 78.8050224474543,10.564725854400592 90.2050224474543,8.26472585440058 C 101.30502244745429,6.064725854400592 112.5050224474543,4.564725854400578 123.70502244745428,3.364725854400575 C 134.3050224474543,2.264725854400581 144.9050224474543,1.3647258544005751 155.5050224474543,0.9647258544005695 C 174.0050224474543,0.1647258544005723 192.6050224474543,-0.3352741455994277 211.1050224474543,0.2647258544005666 C 226.2050224474543,0.8647258544005609 241.2050224474543,1.7647258544005666 256.20502244745427,2.864725854400561 C 264.3050224474543,3.4647258544005552 272.40502244745426,3.9647258544005552 280.5050224474543,4.664725854400558 C 287.5050224474543,5.264725854400552 294.40502244745426,6.764725854400552 301.20502244745427,8.564725854400564 C 312.20502244745427,11.46472585440057 323.40502244745426,13.864725854400575 334.20502244745427,17.664725854400558 C 351.70502244745427,23.764725854400552 368.90502244745426,30.564725854400564 385.3050224474543,39.26472585440055 C 391.0050224474543,42.26472585440055 396.5050224474543,45.564725854400564 401.8050224474543,49.26472585440055 C 402.1050224474543,49.46472585440054 402.4050224474543,49.66472585440056 402.70502244745427,49.86472585440055 C 404.8050224474543,51.26472585440055 405.3050224474543,51.16472585440056 407.10502244745425,49.36472585440055 C 409.90502244745426,46.564725854400535 412.80502244745423,43.96472585440054 415.90502244745426,41.66472585440056 C 417.60502244745425,40.46472585440057 418.60502244745425,40.86472585440055 419.10502244745425,42.86472585440055 C 419.60502244745425,44.76472585440055 419.40502244745426,46.76472585440055 419.5050224474542,48.66472585440056 C 419.5050224474542,49.96472585440057 419.60502244745425,51.26472585440055 420.60502244745425,52.36472585440055 C 422.0050224474542,51.66472585440056 422.80502244745423,50.46472585440054 423.60502244745425,49.26472585440055 C 426.5050224474542,45.46472585440054 429.30502244745423,41.66472585440056 432.30502244745423,37.86472585440055 C 436.60502244745425,32.26472585440055 441.40502244745426,27.164725854400558 446.40502244745426,22.264725854400552 C 447.20502244745427,21.46472585440054 448.0050224474543,20.764725854400552 448.90502244745426,20.264725854400552 C 450.0050224474543,19.664725854400558 450.5050224474543,19.864725854400547 450.70502244745427,21.064725854400564 C 450.90502244745426,22.264725854400552 450.8050224474543,23.364725854400575 450.5050224474543,24.564725854400564 C 448.40502244745426,33.26472585440055 447.90502244745426,42.16472585440056 446.90502244745426,50.96472585440057 C 446.20502244745427,56.76472585440058 444.70502244745427,62.16472585440056 441.80502244745423,67.16472585440056 C 441.10502244745425,68.46472585440057 440.5050224474542,69.76472585440055 439.60502244745425,70.96472585440057 C 437.60502244745425,73.76472585440058 436.90502244745426,76.86472585440058 436.90502244745426,80.16472585440056 C 436.90502244745426,81.76472585440055 436.80502244745423,83.36472585440055 436.5050224474543,84.96472585440057 C 436.3050224474543,86.06472585440056 436.3050224474543,87.16472585440056 436.90502244745426,88.16472585440056 C 439.20502244745427,92.06472585440056 439.5050224474543,96.36472585440055 439.80502244745423,100.76472585440055 C 440.0050224474542,104.06472585440056 439.7050224474542,107.46472585440054 440.2050224474542,110.76472585440055 C 440.7050224474542,114.36472585440055 441.7050224474542,117.86472585440055 443.2050224474542,121.16472585440056 C 444.7050224474542,124.46472585440057 446.6050224474542,127.56472585440056 448.5050224474542,130.66472585440056 C 449.2050224474542,131.66472585440056 449.9050224474542,132.66472585440056 450.9050224474542,133.46472585440057 C 452.2050224474542,134.46472585440057 453.2050224474542,135.66472585440056 454.2050224474542,136.96472585440057 C 454.6050224474542,137.46472585440057 455.0050224474542,138.0647258544006 455.5050224474542,138.36472585440055 C 456.9050224474542,139.06472585440054 458.4050224474542,139.56472585440054 459.2050224474542,141.06472585440054 C 459.6050224474542,141.76472585440052 460.6050224474542,141.66472585440056 461.4050224474542,141.66472585440056 C 462.8050224474542,141.66472585440056 464.2050224474542,141.86472585440055 465.5050224474542,142.16472585440056 C 467.5050224474542,142.66472585440056 468.10502244745425,143.46472585440057 468.10502244745425,145.56472585440054 C 468.10502244745425,147.76472585440052 467.5050224474542,149.76472585440052 466.60502244745425,151.66472585440056 C 465.10502244745425,154.66472585440056 463.70502244745427,157.76472585440058 462.80502244745423,161.06472585440054 C 462.30502244745423,163.06472585440054 461.2050224474542,164.4647258544005 458.80502244745423,164.36472585440055 C 457.80502244745423,164.26472585440052 457.0050224474542,164.86472585440055 456.30502244745423,165.46472585440057 C 452.90502244745426,168.66472585440056 448.90502244745426,168.96472585440057 444.5050224474542,168.46472585440057 C 437.7050224474542,167.66472585440056 430.9050224474542,166.46472585440057 424.2050224474542,164.76472585440058 C 416.0050224474542,162.66472585440056 407.80502244745423,161.3647258544006 399.4050224474542,160.8647258544006 C 391.7050224474542,160.46472585440063 384.2050224474542,158.66472585440061 377.0050224474542,156.16472585440061 C 372.60502244745425,154.66472585440061 368.10502244745425,153.16472585440061 363.60502244745425,151.76472585440064 C 362.90502244745426,151.56472585440065 362.20502244745427,151.06472585440065 361.30502244745423,151.36472585440066 C 361.10502244745425,152.06472585440065 361.60502244745425,152.46472585440068 361.80502244745423,152.96472585440068 C 363.7050224474542,156.96472585440068 366.2050224474542,160.66472585440067 369.40502244745426,163.7647258544007 C 373.90502244745426,168.0647258544007 376.20502244745427,173.2647258544007 376.30502244745423,179.46472585440068 C 376.30502244745423,180.7647258544007 376.40502244745426,182.0647258544007 376.40502244745426,183.36472585440066 C 376.20502244745427,187.76472585440064 376.70502244745427,192.16472585440067 377.90502244745426,196.46472585440068 C 379.30502244745423,201.66472585440067 379.20502244745427,206.86472585440066 378.0050224474543,212.16472585440067 C 377.1050224474543,216.06472585440065 376.0050224474543,220.06472585440065 376.5050224474543,224.16472585440067 C 376.8050224474543,226.7647258544007 377.20502244745427,229.36472585440066 377.6050224474543,231.86472585440066 C 377.8050224474543,233.16472585440067 377.9050224474543,234.46472585440068 377.8050224474543,235.76472585440064 C 377.70502244745427,237.86472585440066 376.70502244745427,238.56472585440065 374.6050224474543,237.96472585440063 C 373.0050224474543,237.46472585440063 371.4050224474543,236.96472585440063 369.9050224474543,236.26472585440064 C 366.50502244745434,234.86472585440066 363.1050224474543,233.46472585440063 359.7050224474543,231.96472585440063 C 358.2050224474543,231.26472585440064 356.7050224474543,230.56472585440065 355.4050224474543,229.56472585440065 C 354.2050224474543,228.56472585440065 353.4050224474543,227.46472585440063 353.50502244745434,225.86472585440066 C 353.60502244745436,223.26472585440064 352.60502244745436,221.16472585440067 350.7050224474543,219.36472585440066 C 348.1050224474543,216.86472585440066 347.50502244745434,213.86472585440066 348.6050224474543,210.36472585440066 C 349.4050224474543,207.86472585440066 350.6050224474543,205.56472585440065 351.8050224474543,203.26472585440064 C 353.3050224474543,200.26472585440064 353.9050224474543,197.16472585440061 353.6050224474543,193.76472585440064 C 353.2050224474543,190.06472585440065 351.9050224474543,186.96472585440063 348.8050224474543,184.66472585440061 C 344.8050224474543,181.76472585440064 340.9050224474543,178.46472585440063 336.3050224474543,176.46472585440063 C 332.3050224474543,174.66472585440061 328.20502244745427,173.3647258544006 324.1050224474543,171.8647258544006 C 322.4050224474543,171.26472585440058 321.8050224474543,171.5647258544006 321.6050224474543,173.3647258544006 C 321.1050224474543,177.0647258544006 320.8050224474543,180.8647258544006 320.7050224474543,184.66472585440061 C 320.6050224474543,189.46472585440063 320.4050224474543,194.3647258544006 320.4050224474543,199.26472585440064 C 320.4050224474543,208.46472585440063 323.00502244745434,217.06472585440065 326.6050224474543,225.46472585440063 C 327.3050224474543,227.06472585440065 328.5050224474543,228.3647258544006 329.6050224474543,229.66472585440061 C 330.9050224474543,231.0647258544006 332.2050224474543,232.3647258544006 333.3050224474543,233.96472585440063 C 334.1050224474543,235.16472585440061 334.8050224474543,236.46472585440063 334.9050224474543,237.96472585440063 C 335.00502244745434,239.3647258544006 334.50502244745434,240.3647258544006 333.2050224474543,240.8647258544006 C 331.50502244745434,241.5647258544006 329.7050224474543,241.8647258544006 327.9050224474543,241.96472585440063 C 324.2050224474543,242.26472585440064 320.50502244745434,242.16472585440061 316.8050224474543,241.96472585440063 C 313.8050224474543,241.8647258544006 311.70502244745427,240.66472585440061 310.6050224474543,237.76472585440064 C 309.9050224474543,235.96472585440063 308.7050224474543,234.96472585440063 306.7050224474543,235.06472585440065 C 304.50502244745434,235.06472585440065 303.00502244745434,233.66472585440067 301.9050224474543,231.86472585440066 C 300.2050224474543,229.06472585440065 299.6050224474543,225.96472585440068 299.2050224474543,222.76472585440064 C 298.7050224474543,218.96472585440063 299.1050224474543,215.26472585440064 299.50502244745434,211.46472585440063 C 299.9050224474543,206.96472585440063 299.2050224474543,202.66472585440061 297.00502244745434,198.66472585440061 C 294.30502244745435,193.8647258544006 292.4050224474543,188.8647258544006 291.2050224474543,183.5647258544006 C 290.1050224474543,178.46472585440057 288.00502244745434,173.76472585440058 285.6050224474543,169.26472585440058 C 283.6050224474543,165.46472585440057 281.5050224474543,161.66472585440056 279.4050224474543,157.8647258544006 C 278.3050224474543,155.8647258544006 277.00502244745434,153.8647258544006 275.4050224474543,152.16472585440061 C 273.9050224474543,150.5647258544006 272.4050224474543,150.0647258544006 270.2050224474543,150.96472585440063 C 261.1050224474543,154.3647258544006 251.90502244745434,157.46472585440063 242.60502244745433,160.16472585440061 C 236.60502244745433,161.8647258544006 230.40502244745434,162.66472585440061 224.20502244745433,163.46472585440063 C 217.70502244745433,164.26472585440064 211.20502244745433,165.3647258544006 204.70502244745433,166.3647258544006 C 192.30502244745432,168.26472585440058 179.90502244745431,168.96472585440063 167.5050224474543,167.76472585440058 C 158.80502244745432,166.96472585440057 150.1050224474543,165.5647258544006 141.5050224474543,164.16472585440056 C 131.0050224474543,162.36472585440055 120.5050224474543,160.56472585440054 110.10502244745429,158.76472585440058 C 107.80502244745429,158.3647258544006 105.60502244745429,157.76472585440058 103.40502244745429,156.8647258544006 C 99.10502244745429,154.96472585440063 97.60502244745429,155.66472585440061 96.00502244745428,159.96472585440063 C 93.70502244745428,166.3647258544006 91.40502244745429,172.76472585440064 90.50502244745428,179.56472585440065 C 89.20502244745428,188.96472585440063 88.60502244745427,198.26472585440064 90.70502244745428,207.66472585440067 C 91.30502244745428,210.46472585440068 92.20502244745428,213.2647258544007 93.70502244745428,215.7647258544007 C 96.40502244745429,220.2647258544007 97.90502244745429,225.0647258544007 98.50502244745428,230.2647258544007 C 98.80502244745428,232.7647258544007 99.60502244745427,235.16472585440067 100.20502244745428,237.66472585440067 C 100.70502244745428,239.66472585440067 101.60502244745429,241.2647258544007 103.10502244745429,242.66472585440067 C 104.0050224474543,243.46472585440068 104.80502244745429,244.46472585440068 105.60502244745429,245.36472585440066 C 106.40502244745429,246.36472585440066 107.10502244745429,247.46472585440068 107.5050224474543,248.76472585440064 C 108.10502244745429,250.66472585440061 107.5050224474543,251.96472585440063 105.7050224474543,252.86472585440066 C 104.6050224474543,253.36472585440066 103.4050224474543,253.66472585440067 102.1050224474543,253.86472585440066 C 99.3050224474543,254.26472585440064 96.50502244745431,254.66472585440067 93.7050224474543,255.06472585440065 C 91.2050224474543,255.36472585440066 88.80502244745429,255.16472585440067 86.4050224474543,254.46472585440063 C 84.7050224474543,253.96472585440063 83.5050224474543,252.8647258544006 83.0050224474543,251.16472585440061 C 82.60502244745429,250.0647258544006 82.30502244745429,248.96472585440063 81.9050224474543,247.8647258544006 C 81.6050224474543,246.96472585440063 81.2050224474543,246.16472585440061 80.4050224474543,245.5647258544006 C 79.4050224474543,244.76472585440058 78.9050224474543,244.8647258544006 78.1050224474543,245.8647258544006 C 76.8050224474543,247.3647258544006 75.8050224474543,247.46472585440063 74.7050224474543,245.76472585440058 C 73.2050224474543,243.46472585440057 71.9050224474543,241.0647258544006 71.30502244745429,238.3647258544006 C 70.5050224474543,234.66472585440061 70.7050224474543,230.8647258544006 71.10502244745429,227.16472585440061 C 71.70502244745428,221.8647258544006 70.90502244745429,216.76472585440064 68.30502244745429,212.0647258544006 C 66.10502244745429,208.16472585440061 63.505022447454294,204.46472585440057 60.7050224474543,200.96472585440057 C 60.50502244745428,200.46472585440063 60.30502244745428,200.26472585440064 59.905022447454286,200.46472585440063 M 25.105022447454285,24.764725854400638 C 27.005022447454284,24.464725854400626 28.905022447454282,24.164725854400643 30.805022447454288,23.464725854400626 C 31.705022447454287,23.164725854400615 32.505022447454294,22.764725854400638 33.30502244745429,22.164725854400615 C 33.905022447454286,21.664725854400615 34.30502244745429,21.06472585440062 34.005022447454294,20.26472585440061 C 33.7050224474543,19.364725854400604 33.005022447454294,19.06472585440062 32.10502244745429,19.164725854400615 C 30.205022447454294,19.464725854400626 28.205022447454294,19.664725854400615 26.40502244745429,20.464725854400626 C 25.205022447454287,20.964725854400626 24.105022447454292,21.664725854400615 23.40502244745429,22.764725854400638 C 22.805022447454288,23.664725854400643 23.00502244745429,24.264725854400638 24.105022447454292,24.56472585440065 C 24.40502244745429,24.764725854400638 24.705022447454287,24.764725854400638 25.105022447454285,24.764725854400638"/>
</svg>
