<?xml version="1.0" ?>
<svg xmlns="http://www.w3.org/2000/svg" xmlns:ev="http://www.w3.org/2001/xml-events" xmlns:xlink="http://www.w3.org/1999/xlink" baseProfile="full" height="233" id="Layer_1" style="enable-background:new 0 0 500 500;" transform="scale(0.4291845493562232 0.4291845493562232) translate(-195.5 -116.5)" version="1.1" viewBox="0 0 391 233" width="391" x="0px" xml:space="preserve" y="0px">
	<defs/>
	<path d="M 110.66077696595246,23.59999999999991 C 113.66077696595246,28.499999999999915 117.26077696595246,29.59999999999991 122.66077696595246,28.89999999999992 C 137.56077696595247,26.999999999999915 151.16077696595246,21.299999999999926 164.66077696595246,15.499999999999915 C 213.56077696595247,-5.400000000000091 262.16077696595244,-1.400000000000091 310.26077696595246,17.39999999999992 C 333.8607769659525,26.59999999999991 353.46077696595245,41.19999999999993 363.96077696595245,65.49999999999991 C 368.06077696595247,74.99999999999991 371.56077696595247,75.49999999999991 379.16077696595244,66.79999999999993 C 373.0607769659524,64.79999999999993 365.3607769659524,63.999999999999915 366.66077696595244,55.19999999999993 C 367.96077696595245,46.09999999999994 375.96077696595245,46.39999999999992 382.96077696595245,45.59999999999994 C 380.96077696595245,40.89999999999995 377.26077696595246,39.799999999999926 373.16077696595244,39.09999999999994 C 371.3607769659524,38.799999999999926 369.0607769659524,38.299999999999926 369.46077696595245,35.69999999999993 C 369.8607769659524,32.89999999999992 372.26077696595246,32.89999999999992 374.46077696595245,32.89999999999992 C 381.8607769659524,33.09999999999991 389.06077696595247,40.09999999999991 389.96077696595245,47.89999999999992 C 391.76077696595246,62.59999999999991 388.8607769659524,75.29999999999993 374.16077696595244,82.29999999999993 C 370.0607769659524,84.29999999999993 369.26077696595246,86.89999999999992 369.8607769659524,91.29999999999993 C 370.66077696595244,96.79999999999993 370.5607769659524,102.49999999999991 370.2607769659524,108.09999999999994 C 369.6607769659524,120.99999999999994 365.3607769659524,132.59999999999994 358.5607769659524,143.59999999999994 C 352.8607769659524,152.69999999999996 347.16077696595244,162.69999999999996 351.2607769659524,173.79999999999993 C 356.2607769659524,187.1999999999999 354.1607769659524,200.49999999999991 351.1607769659524,213.39999999999995 C 349.7607769659524,219.29999999999993 342.36077696595237,223.69999999999996 339.86077696595237,230.29999999999993 C 339.76077696595235,230.59999999999994 338.36077696595237,230.59999999999994 337.56077696595236,230.59999999999994 C 327.46077696595233,230.59999999999994 317.36077696595237,230.59999999999994 306.46077696595233,230.59999999999994 C 308.96077696595233,224.49999999999991 311.3607769659523,219.19999999999996 313.26077696595235,213.69999999999996 C 316.76077696595235,203.69999999999996 319.26077696595235,193.59999999999994 315.96077696595233,182.99999999999997 C 313.56077696595236,174.99999999999997 311.46077696595233,174.1 303.96077696595233,177.49999999999997 C 289.46077696595233,184.1 274.46077696595233,188.99999999999997 258.6607769659523,190.69999999999996 C 231.96077696595233,193.49999999999997 205.66077696595232,191.99999999999997 180.26077696595232,182.39999999999995 C 175.4607769659523,180.59999999999994 172.8607769659523,180.79999999999993 172.66077696595232,186.99999999999997 C 172.46077696595233,194.19999999999996 170.96077696595233,201.39999999999995 170.76077696595232,208.6 C 170.56077696595233,218.29999999999998 158.66077696595232,221.9 159.06077696595233,231.79999999999998 C 159.06077696595233,231.99999999999997 157.16077696595232,232.4 156.06077696595233,232.4 C 145.96077696595233,232.4 135.86077696595234,232.4 124.66077696595232,232.4 C 127.26077696595232,226.79999999999998 129.3607769659523,222.29999999999998 131.3607769659523,217.70000000000002 C 137.4607769659523,203.6 139.3607769659523,188.9 136.8607769659523,173.70000000000002 C 135.16077696595232,163.1 125.26077696595232,159.50000000000003 119.26077696595232,152.6 C 108.36077696595231,140.20000000000002 93.56077696595233,136.1 77.86077696595231,136.49999999999997 C 59.460776965952306,136.89999999999995 44.560776965952314,129.89999999999995 31.060776965952314,118.49999999999997 C 25.36077696595231,113.69999999999996 19.86077696595231,108.39999999999998 13.160776965952323,104.89999999999998 C 0.7607769659523242,98.39999999999998 -3.6392230340476743,83.79999999999998 3.2607769659523242,71.79999999999998 C 4.460776965952327,69.69999999999999 5.660776965952323,68.19999999999999 8.260776965952324,68.89999999999998 C 26.860776965952326,74.09999999999997 40.26077696595232,64.29999999999998 52.960776965952334,52.99999999999997 C 57.960776965952334,48.49999999999997 63.16077696595234,44.099999999999966 69.56077696595233,41.79999999999998 C 74.36077696595234,40.099999999999994 76.06077696595233,37.29999999999998 76.76077696595232,32.599999999999994 C 77.86077696595231,24.599999999999994 77.66077696595232,16.5 77.9607769659523,8.5 C 78.0607769659523,5.800000000000011 77.26077696595232,2.9000000000000057 79.1607769659523,0.0 C 84.0607769659523,4.0 88.4607769659523,7.599999999999994 93.36077696595228,11.599999999999994 C 94.26077696595229,8.900000000000006 94.96077696595228,7.0 96.1607769659523,3.5 C 101.66077696595246,10.999999999999915 106.56077696595247,16.999999999999915 110.66077696595246,23.59999999999991 M 376.76077696595246,59.59999999999991 C 379.06077696595247,59.2999999999999 381.8607769659525,58.59999999999991 381.46077696595245,55.499999999999915 C 381.26077696595246,53.499999999999915 379.16077696595244,52.499999999999915 377.16077696595244,52.89999999999992 C 375.16077696595244,53.299999999999926 372.96077696595245,53.89999999999992 372.66077696595244,56.69999999999993 C 373.26077696595246,58.6999999999999 374.8607769659525,59.7999999999999 376.76077696595246,59.59999999999991"/>
</svg>
