<?xml version="1.0" ?>
<svg xmlns="http://www.w3.org/2000/svg" xmlns:ev="http://www.w3.org/2001/xml-events" xmlns:xlink="http://www.w3.org/1999/xlink" baseProfile="full" height="220" id="Layer_1" style="enable-background:new 0 0 500 500;" transform="scale(0.45454545454545453 0.45454545454545453) translate(-220.0 -110.0)" version="1.1" viewBox="0 0 440 220" width="440" x="0px" xml:space="preserve" y="0px">
	<defs/>
	<path d="M 14.100000000000026,54.292327882639626 C 20.600000000000026,56.292327882639626 26.900000000000023,58.492327882639614 33.40000000000002,60.19232788263963 C 36.10000000000002,60.89232788263962 38.000000000000014,62.59232788263964 40.20000000000002,63.89232788263962 C 43.30000000000001,65.69232788263963 43.90000000000002,68.19232788263963 42.500000000000014,71.39232788263962 C 36.90000000000002,83.89232788263962 33.20000000000002,97.39232788263962 25.20000000000002,108.79232788263963 C 18.900000000000023,117.89232788263962 10.800000000000022,124.99232788263964 2.1316282072803006e-14,129.7923278826396 C 5.200000000000021,138.0923278826396 12.20000000000002,144.19232788263957 18.600000000000026,150.89232788263962 C 20.400000000000023,152.7923278826396 22.30000000000003,151.99232788263964 24.200000000000028,150.99232788263964 C 32.300000000000026,146.69232788263963 41.10000000000002,146.79232788263965 49.90000000000002,147.79232788263965 C 64.20000000000002,149.49232788263964 78.60000000000002,148.09232788263967 93.00000000000001,148.39232788263968 C 102.40000000000002,148.59232788263967 111.60000000000001,148.89232788263968 120.7,152.09232788263967 C 126.60000000000001,154.1923278826397 130.50000000000003,158.09232788263967 131.8,163.49232788263964 C 134.8,175.39232788263962 136.9,187.59232788263967 135.5,200.09232788263967 C 135.1,203.59232788263967 134.3,206.09232788263967 131.0,207.6923278826397 C 126.99999999999999,209.59232788263967 124.09999999999998,212.89232788263968 120.89999999999999,216.89232788263968 C 127.89999999999999,219.1923278826397 134.8,217.1923278826397 141.20000000000002,218.79232788263965 C 143.10000000000002,219.29232788263965 145.3,219.19232788263963 147.3,219.09232788263967 C 153.70000000000002,218.89232788263968 154.70000000000002,217.59232788263967 153.60000000000002,211.1923278826397 C 151.70000000000002,200.4923278826397 157.10000000000002,187.1923278826397 166.60000000000002,179.89232788263968 C 169.3,192.79232788263965 168.10000000000002,204.39232788263968 160.00000000000003,214.89232788263968 C 165.00000000000003,218.59232788263967 170.00000000000003,217.39232788263968 174.80000000000004,216.89232788263968 C 177.10000000000005,216.6923278826397 179.40000000000003,215.79232788263965 181.70000000000005,215.39232788263968 C 189.70000000000005,214.09232788263967 190.00000000000006,214.09232788263967 190.10000000000005,206.4923278826397 C 190.20000000000005,193.9923278826397 191.50000000000006,181.9923278826397 198.10000000000005,170.89232788263968 C 200.80000000000004,166.29232788263965 199.70000000000005,161.4923278826397 197.10000000000005,156.6923278826397 C 191.40000000000006,146.4923278826397 192.60000000000005,144.39232788263968 204.40000000000006,143.2923278826397 C 214.40000000000006,142.39232788263973 224.30000000000007,142.39232788263973 234.30000000000004,143.7923278826397 C 238.10000000000005,144.39232788263973 241.90000000000006,144.9923278826397 245.70000000000002,144.89232788263973 C 261.8,144.49232788263976 277.9,143.49232788263976 294.0,141.49232788263976 C 300.3,140.69232788263974 305.5,136.89232788263973 311.7,135.79232788263977 C 318.4,134.59232788263978 318.2,134.29232788263977 321.7,140.59232788263978 C 326.9,149.99232788263976 329.7,160.59232788263978 335.7,169.6923278826398 C 338.59999999999997,174.09232788263978 339.3,179.59232788263978 337.7,184.9923278826398 C 335.7,191.79232788263982 336.7,198.3923278826398 339.5,204.6923278826398 C 341.2,208.59232788263978 342.3,212.4923278826398 338.4,216.3923278826398 C 343.7,218.1923278826398 348.79999999999995,219.9923278826398 354.4,219.6923278826398 C 361.29999999999995,219.29232788263982 364.2,215.1923278826398 362.2,208.4923278826398 C 361.5,205.9923278826398 360.5,203.4923278826398 359.5,200.9923278826398 C 356.2,192.1923278826398 359.2,183.3923278826398 358.4,174.59232788263984 C 361.9,174.59232788263984 362.7,176.39232788263985 363.29999999999995,177.79232788263982 C 366.79999999999995,185.1923278826398 369.99999999999994,192.6923278826398 373.59999999999997,199.9923278826398 C 374.49999999999994,201.79232788263982 373.4,202.59232788263984 373.2,203.8923278826398 C 372.5,208.8923278826398 368.3,212.59232788263978 368.0,218.29232788263977 C 371.0,219.69232788263974 374.1,218.79232788263977 377.1,218.3923278826398 C 379.1,218.09232788263978 381.1,217.3923278826398 383.20000000000005,217.4923278826398 C 391.40000000000003,217.6923278826398 391.20000000000005,217.79232788263982 392.6,209.79232788263982 C 393.8,202.89232788263985 391.6,196.39232788263985 391.0,189.6923278826398 C 390.4,183.3923278826398 391.1,177.3923278826398 392.4,171.4923278826398 C 393.5,166.3923278826398 396.09999999999997,161.6923278826398 397.2,156.4923278826398 C 397.59999999999997,154.59232788263984 398.7,152.59232788263984 399.8,150.9923278826398 C 414.0,130.8923278826398 416.8,107.1923278826398 420.7,83.89232788263982 C 420.9,82.49232788263981 421.09999999999997,81.09232788263981 422.5,79.39232788263982 C 423.3,81.89232788263982 424.3,84.39232788263982 424.7,86.99232788263981 C 426.7,100.39232788263982 424.4,113.39232788263982 420.8,126.1923278826398 C 419.5,130.79232788263982 415.3,134.1923278826398 414.7,139.4923278826398 C 414.3,142.9923278826398 413.59999999999997,146.29232788263982 415.0,149.79232788263982 C 418.1,157.29232788263982 420.5,164.9923278826398 421.3,173.59232788263984 C 426.5,165.4923278826398 433.90000000000003,157.89232788263985 431.8,148.19232788263986 C 429.40000000000003,136.89232788263985 432.90000000000003,126.79232788263988 434.90000000000003,116.19232788263986 C 436.00000000000006,110.69232788263986 437.50000000000006,105.39232788263985 438.70000000000005,99.89232788263985 C 440.40000000000003,92.49232788263984 439.80000000000007,85.19232788263986 436.1,78.49232788263984 C 423.8,56.39232788263985 408.40000000000003,37.19232788263986 386.1,24.19232788263986 C 376.8,18.792327882639853 366.5,16.292327882639853 356.6,12.892327882639847 C 351.90000000000003,11.292327882639853 347.6,8.792327882639853 342.8,7.392327882639847 C 320.3,0.5923278826398359 297.6,-1.707672117360147 274.2,1.292327882639853 C 262.59999999999997,2.792327882639853 250.80000000000004,3.292327882639853 239.1,3.1923278826398587 C 224.2,3.0923278826398644 210.0,6.49232788263987 195.7,9.692327882639859 C 186.89999999999998,11.692327882639859 178.2,14.092327882639864 169.1,15.292327882639853 C 161.4,16.292327882639853 154.2,20.292327882639853 146.5,22.292327882639853 C 129.2,26.792327882639853 112.2,32.49232788263984 94.69999999999999,36.39232788263985 C 84.49999999999999,38.592327882639836 74.49999999999999,37.89232788263985 65.39999999999999,33.592327882639836 C 55.999999999999986,29.092327882639836 46.69999999999999,28.99232788263984 37.099999999999994,30.99232788263984 C 33.599999999999994,31.69232788263983 27.3,30.49232788263984 26.999999999999996,33.592327882639836 C 26.499999999999996,38.49232788263984 33.2,37.19232788263983 36.39999999999999,39.292327882639825 C 39.499999999999986,41.39232788263982 43.19999999999999,42.49232788263981 48.19999999999999,44.792327882639825 C 40.19999999999999,48.292327882639825 33.499999999999986,49.792327882639825 26.199999999999992,49.49232788263981 C 19.100000000000026,49.39232788263962 17.700000000000028,50.09232788263961 14.100000000000026,54.292327882639626"/>
</svg>
