<?xml version="1.0" ?>
<svg xmlns="http://www.w3.org/2000/svg" xmlns:cc="http://creativecommons.org/ns#" xmlns:dc="http://purl.org/dc/elements/1.1/" xmlns:ev="http://www.w3.org/2001/xml-events" xmlns:inkscape="http://www.inkscape.org/namespaces/inkscape" xmlns:rdf="http://www.w3.org/1999/02/22-rdf-syntax-ns#" xmlns:sodipodi="http://sodipodi.sourceforge.net/DTD/sodipodi-0.dtd" xmlns:svg="http://www.w3.org/2000/svg" xmlns:xlink="http://www.w3.org/1999/xlink" baseProfile="full" height="646" id="svg3369" inkscape:version="0.92.3 (2405546, 2018-03-11)" sodipodi:docname="Wild Flower 6.svg" transform="scale(0.3861003861003861 0.3861003861003861) translate(-129.5 -323.0)" version="1.1" viewBox="0 0 259 646" width="259">
	<defs/>
	<path d="M 252.53472941124213,201.3661060306254 C 253.63177941124215,201.34710603062538 254.74050941124213,201.9683560306254 255.9801594112421,203.1722760306254 C 257.69675941124217,204.8382560306254 257.91802941124206,205.3230860306254 258.3351094112421,208.3329960306254 C 258.5876394112421,210.1603760306254 258.65897941124206,212.0002060306254 258.4954694112421,212.4206460306254 C 258.3300694112421,212.8410760306254 258.0112594112421,215.6945660306254 257.78646941124214,218.76211603062538 C 256.94792941124206,230.22484603062537 252.75340941124213,237.3206360306254 240.9680294112421,247.21429603062538 C 237.51342941124207,250.11486603062536 237.04854941124208,250.71768603062537 235.1773494112421,254.7302660306254 C 234.0579694112421,257.12965603062537 233.2420294112421,259.1913860306254 233.3613994112421,259.31184603062536 C 233.62968941124208,259.57949603062536 242.0378694112421,256.74344603062536 246.18485941124212,254.98701603062537 C 252.30588941124213,252.39495603062537 255.52335941124213,253.13324603062537 256.14385941124215,257.27291603062537 C 256.6703494112421,260.7836760306254 253.47143941124213,267.37110603062536 246.9885594112421,276.12490603062537 C 240.12172941124211,285.39827603062537 233.93030941124212,289.9247210306254 223.33036941124212,293.42142703062535 L 217.21717941124214,295.43896003062537 L 215.93521941124212,298.23391103062534 C 213.15186941124213,304.30316803062533 207.05635941124214,318.99115103062536 207.2438994112421,319.17819903062536 C 207.56144941124208,319.49572603062535 214.29399941124208,314.7207450306254 221.0170194112421,309.41016803062536 C 224.4295694112421,306.7143760306254 227.7274194112421,304.38228003062534 228.3453694112421,304.22710703062535 C 229.82007941124212,303.85654403062534 232.1279294112421,304.84008903062534 233.0355294112421,306.22519003062536 C 234.03452941124212,307.74968903062535 233.5973694112421,310.40834803062535 231.4708194112421,315.74619803062535 C 229.0885294112421,321.7250010306253 220.52997941124212,338.65517403062535 218.5196494112421,341.36623703062537 C 215.5113194112421,345.42181503062534 215.09906941124214,345.56915903062537 196.6630294112421,349.19666003062537 L 194.3157694112421,349.6600240306253 L 191.81316941124211,355.89663803062535 C 190.43701941124212,359.32692703062537 189.4549294112421,362.27737403062537 189.63212941124212,362.45394503062533 C 189.80888941124212,362.63070503062534 191.99073941124212,361.97100903062534 194.4811094112421,360.98714903062535 C 196.97134941124207,360.0034130306253 200.0710294112421,359.11336203062535 201.36802941124208,359.00869503062535 C 203.58616941124208,358.83004103062535 203.8113494112421,358.91463503062533 205.16488941124206,360.45680503062533 C 206.22987941124208,361.66950703062537 206.68470941124204,362.73903503062536 206.90900941124207,364.56307403062533 C 207.31618941124205,367.87013703062536 206.47152941124207,374.15662003062533 205.23691941124204,377.0265160306254 C 203.90988941124206,380.11111119062537 198.48510941124206,385.22965123062534 189.19950941124202,392.15613503062536 C 180.52562941124202,398.6270180306253 177.99529941124203,400.26022103062536 176.647189411242,400.26022103062536 C 175.853969411242,400.26022103062536 175.449759411242,400.7185380306254 174.902239411242,402.23602703062534 C 173.52262941124198,406.06339803062536 169.496409411242,420.6345810306253 169.496409411242,421.79790803062536 C 169.496409411242,422.17163403062534 170.96174941124204,422.34208103062537 174.26002941124202,422.35091603062534 C 179.927989411242,422.36374603062535 182.81574941124202,423.3830090306254 184.355089411242,425.90815303062533 C 186.89272941124202,430.07036503062534 185.17183941124202,433.8712750306253 173.348719411242,450.22483603062534 C 167.189929411242,458.74374403062535 165.92464941124197,459.95871703062534 163.188779411242,459.9733600306254 C 161.47955941124198,459.9862300306254 161.05281941124198,460.1570760306254 160.87623941124198,460.91505203062536 C 158.92820941124197,469.29167503062536 154.302319411242,499.64609603062536 151.172099411242,524.5901660306254 C 146.43383941124196,562.3465060306254 143.722149411242,589.1873960306253 139.046199411242,645.3135560306254 L 130.711949411242,644.9164760306253 C 134.92712941124196,594.5809260306253 137.35599941124198,569.6489960306253 140.69961941124197,541.3235160306253 C 142.54890941124197,525.6510460306254 145.86093941124196,500.63955603062533 147.68503941124195,488.56959603062535 C 149.55105941124194,476.22414203062533 149.91115941124193,474.09413003062537 152.06750941124196,462.6546860306254 C 153.53000941124193,454.8974380306254 153.53000941124193,454.87110903062535 152.02330941124197,456.26531303062535 C 151.33918941124196,456.89980903062536 149.742229411242,457.60427403062533 148.32213941124198,457.8990170306254 C 146.14375941124197,458.35101103062533 145.566009411242,458.3024090306253 143.791329411242,457.51772003062536 C 140.67345941124202,456.13841803062536 140.09249941124202,454.99559603062534 135.96008941124202,442.0904550306253 C 134.155679411242,436.4559520306253 133.59345941124204,433.9549180306253 133.38013941124203,430.60865403062536 C 133.06007941124201,425.59920303062535 133.60109941124202,424.29426803062535 136.29845941124202,423.54935203062536 C 138.69368941124205,422.88795103062535 139.73593941124201,423.44020403062535 144.33852941124204,427.8039130306253 C 146.56002941124203,429.91014703062535 149.52138941124204,432.66381903062535 150.918939411242,433.92329803062535 C 152.31648941124203,435.18277903062534 154.13603941124202,436.84129103062537 154.963029411242,437.60926203062536 C 155.78994941124196,438.37740403062537 156.56214941124202,438.9115320306253 156.67791941124202,438.79531703062537 C 156.79347941124203,438.67975603062536 157.63677941124203,435.24293803062534 158.550449411242,431.15856903062536 C 159.464939411242,427.07432903062534 160.329289411242,423.36381503062535 160.470429411242,422.91408403062536 C 160.69074941124202,422.21607703062534 160.400229411242,422.27042203062535 158.48914941124198,423.29033203062534 C 154.38760941124198,425.47604803062535 151.19133941124196,423.89006303062536 148.44139941124197,418.3018430306254 C 143.03938941124196,407.32540103062536 141.46913941124197,394.36336803062534 145.18684941124198,391.43899203062534 C 149.24685941124196,388.24549983062536 155.13202941124197,392.87214003062536 161.649309411242,404.38138903062537 C 163.004949411242,406.77567003062535 164.16662941124198,408.55444503062535 164.23190941124201,408.33299803062533 C 164.298809411242,408.11205203062536 165.40363941124204,404.54300303062536 166.69026941124204,400.40396003062534 C 167.97719941124203,396.26486703062534 169.03012941124203,392.76557903062536 169.03012941124203,392.62770603062535 C 169.03012941124203,392.48944703062534 167.70492941124203,393.10495903062537 166.08611941124204,393.9949480306253 C 163.95148941124202,395.16832203062535 162.56611941124206,395.61363103062536 161.04515941124205,395.61363103062536 C 157.71044941124208,395.61363103062536 157.34216941124205,394.93468203062537 154.10668941124206,382.83120123062537 C 150.00010941124205,367.4723000306254 149.60245941124205,360.93595203062534 152.57853941124208,357.72471903062535 C 153.6676894112421,356.54926203062536 153.90738941124206,356.49074203062537 156.38890941124205,356.79994703062533 C 157.84510941124208,356.9811260306254 159.39510941124203,357.3201270306254 159.83157941124207,357.55319903062536 C 161.79796941124206,358.6025230306253 168.87912941124208,370.69786073062534 171.84553941124207,378.07281133062537 C 172.43831941124208,379.5456041706253 173.06721941124206,380.59164727062534 173.24226941124206,380.39695845062533 C 173.4171294112421,380.20189083062536 174.52353941124207,377.42851983062536 175.70036941124206,374.23313263062533 C 176.87676941124207,371.03780883062535 179.61535941124205,363.93627003062534 181.78503941124208,358.45234103062535 C 183.95407941124208,352.96841203062536 185.67629941124207,348.42813003062537 185.61151941124209,348.36355103062533 C 185.5465194112421,348.29789103062535 184.5600494112421,348.57818903062537 183.41976941124207,348.98347503062536 C 182.27963941124207,349.38876103062535 179.24788941124208,349.82283303062536 176.68466941124208,349.94833403062535 C 172.09925941124206,350.17244103062535 171.9977494112421,350.15539703062535 170.46321941124208,348.86441403062537 C 169.60503941124207,348.1423480306253 168.61820941124208,346.86847303062535 168.2696794112421,346.03391103062535 C 167.5188194112421,344.23878303062537 167.45373941124208,337.24538303062536 168.1194394112421,330.07894703062533 C 168.3687894112421,327.39477703062533 168.87811941124212,320.8053340306253 169.25106941124207,315.43712003062535 C 170.49293941124208,297.5732080306253 171.51209941124208,294.29026603062533 175.81493941124208,294.29026603062533 C 177.50793941124206,294.29026603062533 177.98310941124205,294.52383803062537 179.13192941124206,295.9169600306253 C 179.86939941124203,296.81149203062535 181.32968941124207,299.58279003062535 182.37647941124206,302.07536003062535 C 184.13360941124208,306.2570650306253 191.80236941124204,329.70579303062533 191.80236941124204,330.8953910306253 C 191.80236941124204,331.18262603062533 191.98543941124203,331.53122303062537 192.20891941124202,331.66922403062534 C 192.43176941124202,331.8068420306254 193.68056941124203,329.33503903062535 194.98259941124203,326.17437303062536 L 197.349369411242,320.42637903062536 L 195.94297941124202,317.8304600306254 C 191.657549411242,309.91866203062534 188.81189941124202,297.54026403062534 188.83291941124205,286.85331803062536 C 188.85191941124205,279.17888603062534 189.30953941124207,276.6958460306254 192.60876941124204,266.6668460306254 C 195.72783941124206,257.1858460306254 196.97386941124202,255.35917603062535 199.93794941124204,255.91538603062537 C 202.65097941124205,256.42419603062535 204.53257941124204,258.59311603062537 205.20553941124203,261.9876660306254 C 205.510439411242,263.52145603062536 206.27904941124203,267.42666603062537 206.917589411242,270.6647760306254 C 208.15706941124202,276.9585860306254 210.04548941124202,283.92218703062537 211.01211941124203,285.76776303062536 C 211.56891941124204,286.82913703062536 211.84706941124202,286.34665203062536 215.68970941124203,277.69479603062535 L 219.775589411242,268.49434603062537 L 218.80074941124204,264.31176603062534 C 218.26541941124205,262.01103603062535 217.43029941124203,258.65100603062535 216.94407941124203,256.84464603062537 C 214.73499941124206,248.63594603062538 214.58917941124204,243.52656603062536 216.493329411242,241.10558603062537 C 217.26418941124203,240.12557603062538 217.82459941124202,239.91068603062539 219.614409411242,239.91068603062539 L 221.797159411242,239.91068603062539 L 222.65816941124203,235.1460960306254 C 224.76375941124203,223.4903960306254 227.28637941124205,219.8936960306254 232.890839411242,220.5575660306254 C 237.57832941124204,221.1124560306254 240.375869411242,218.5667260306254 245.553379411242,209.0303760306254 C 248.38684941124197,203.8105060306254 250.43725941124197,201.4101060306254 252.531809411242,201.3669260306254 L 252.53472941124213,201.3661060306254 M 55.76432941124213,0.019506030625393578 C 47.94905941124213,-0.4470039693746344 44.52634941124214,7.502976030625405 47.74476941124212,18.643106030625404 C 49.202289411242106,23.68792603062542 50.800399411242125,33.0585660306254 50.64553941124211,35.652836030625394 C 50.60133941124212,36.41366603062539 49.51792941124211,35.63993603062539 47.42275941124211,33.34333603062538 C 40.28548941124211,25.526236030625398 35.993359411242125,23.939046030625377 32.3566394112421,27.772666030625373 C 30.552419411242113,29.67422603062539 30.32741941124209,30.37381603062539 30.37287941124211,33.963696030625385 C 30.484589411242098,42.9400960306254 37.4535294112421,53.915786030625384 45.48823941124212,57.774516030625364 C 47.78435941124212,58.87801603062536 49.46969941124212,60.12336603062539 49.35278941124213,60.62920603062537 C 49.23921941124212,61.12288603062535 48.57876941124212,65.90071603062535 47.886749411242135,71.24657603062536 C 47.19510941124213,76.59269603062535 46.467549411242146,81.10987603062534 46.26793941124214,81.28688603062534 C 46.06844941124214,81.46427603062534 44.538339411242134,78.72928603062536 42.86574941124215,75.21176603062531 C 39.40824941124214,67.9412160306253 35.93275941124216,63.56911603062531 32.937429411242164,62.7212960306253 C 29.21705941124216,61.66844603062532 20.078729411242165,65.36910603062529 13.841439411242163,70.45405603062528 C 8.573329411242156,74.7491460306253 9.872839411242154,79.85076603062527 17.57435941124217,85.11147603062528 C 20.070729411242183,86.81690603062526 25.069569411242156,90.41328603062527 28.68317941124218,93.10331603062531 C 32.29666941124219,95.7933660306253 37.06415941124217,99.11588603062529 39.276949411242185,100.48672603062533 L 43.30050941124219,102.97817603062532 L 42.77337941124219,109.27273603062531 C 42.48362941124219,112.73426603062529 42.118939411242195,115.67865603062529 41.96445941124219,115.81646603062529 C 41.811059411242184,115.9533960306253 40.382009411242194,114.88556603062528 38.793249411242186,113.44074603062529 C 31.73949941124218,107.02597603062532 24.2887294112422,103.8108360306253 17.176849411242188,104.11354603062529 C 11.643479411242197,104.34900603062528 5.657859411242185,105.72400603062528 3.0365694112421977,107.36264603062529 C 1.315179411242184,108.4400660306253 0.986279411242208,109.1251360306253 0.8145694112421893,112.0031060306253 C 0.5689894112421996,116.1177760306253 2.679249411242182,119.57653603062528 9.589889411242183,126.3916060306253 C 21.10596941124217,137.7482660306253 24.181669411242183,140.0888860306253 33.13116941124218,144.3050660306253 L 39.39068941124219,147.2526760306253 L 39.13375941124218,157.49518603062532 C 38.993549411242185,163.1284860306253 38.82695941124217,167.8313760306253 38.76887941124218,167.9431260306253 C 38.71197941124217,168.0573960306253 37.52183941124218,165.7572160306253 36.126489411242176,162.83392603062532 C 32.98167941124217,156.24630603062533 28.40679941124219,151.14000603062533 23.151599411242188,148.35344603062532 C 19.64649941124219,146.49620603062533 18.4736294112422,146.22531603062532 13.99123941124219,146.24601603062533 C 5.7700994112421995,146.28391603062533 0.648539411242183,150.02996603062533 0.32582941124218223,156.24151603062532 C 0.12065941124217261,160.28224603062532 1.269529411242189,162.1636660306253 6.849489411242189,166.88866603062533 C 11.513869411242183,170.83807603062533 11.97320941124218,171.50427603062533 14.984239411242186,178.69279603062535 C 19.881019411242193,190.38233603062534 20.070909411242184,189.59720603062536 12.578739411242196,188.66158603062536 L 6.256699411242209,187.87210603062536 L 3.6677294112422203,190.16959603062537 C 0.48055941124221135,192.99838603062537 -0.4675205887577931,196.35412603062537 0.20322941124223348,202.43265603062537 C 1.0492794112422246,210.09896603062538 4.183179411242236,213.39718603062536 11.010799411242232,213.83649603062537 C 18.652339411242224,214.32383603062536 26.315729411242245,217.50287603062537 37.24356941124222,224.73705603062538 L 42.347959411242215,228.11577603062537 L 42.84289941124223,233.07881603062538 C 43.115599411242215,235.80838603062537 43.44449941124222,239.32117603062537 43.57296941124224,240.88537603062537 L 43.805909411242254,243.72863603062535 L 42.058959411242256,241.14938603062535 C 38.26347941124226,235.54715603062536 33.79527941124226,230.77563603062535 31.483449411242248,229.85653603062536 C 28.260789411242257,228.57566603062537 24.662319411242237,229.02450603062536 21.181779411242246,231.14108603062536 C 17.473289411242234,233.39673603062536 5.172859411242257,245.57685603062535 3.1229294112422394,249.02337603062537 C 1.10337941124223,252.41850603062537 1.3677594112422469,255.87485603062538 3.8774994112422405,258.8526360306254 C 6.397359411242235,261.84203603062537 8.163829411242233,262.8035460306254 18.896019411242236,267.0213760306254 C 28.95432941124224,270.9742960306254 34.577129411242225,274.4364060306254 40.11295941124223,280.08427703062534 C 44.01487941124222,284.0659360306254 45.92370941124224,284.6126940306254 48.84567941124223,282.58341303062537 L 50.72640941124223,281.27704003062536 L 51.06603941124223,285.72244103062536 C 51.25353941124223,288.16685203062536 51.15743941124222,290.2582890306254 50.854559411242235,290.3683950306254 C 50.55028941124223,290.47953803062535 48.35232941124224,289.7901360306254 45.97085941124223,288.83719403062537 C 40.24097941124222,286.54266603062536 31.61209941124224,284.38979003062536 27.097329411242242,284.1204850306254 C 18.69399941124223,283.6192360306254 15.059429411242235,289.8706820306254 18.944379411242238,298.1337260306254 C 21.09302941124224,302.7040610306254 27.63214941124224,309.1967880306254 38.10015941124223,317.14949403062536 C 42.008959411242245,320.1188120306254 46.54507941124223,324.12596503062537 48.18112941124224,326.0549960306254 L 51.15542941124224,329.5636280306254 L 47.621599411242244,327.5265260306254 C 40.67006941124225,323.5218300306254 35.00849941124224,323.8303380306254 31.74139941124224,328.3906330306254 C 30.40280941124223,330.2583600306254 30.131729411242247,331.4707460306254 30.123399411242247,335.5883810306254 C 30.10439941124224,344.0978170306254 33.01217941124224,348.98353703062537 45.25763941124225,361.05292803062537 C 49.550569411242265,365.2843840306254 53.277619411242256,369.08807903062535 53.53770941124225,369.50504403062536 C 53.800959411242246,369.9223247306254 53.96004941124224,371.30604313062537 53.88366941124224,372.58017023062536 L 53.74472941124225,374.8979409306254 L 48.70616941124226,369.94366143062535 C 45.934189411242244,367.2192170306254 42.82693941124225,364.6107370306254 41.800599411242246,364.1464260306254 C 38.54484941124224,362.67262203062535 35.056479411242236,364.0498360306254 31.064659411242246,368.38652903062535 C 26.333429411242236,373.5265965306254 24.424289411242256,377.4068023306254 24.003539411242258,382.73777203062537 C 23.51491941124226,388.90973933062537 25.473049411242272,391.80135103062537 35.40937941124227,399.5745170306254 C 39.717209411242266,402.94413703062537 44.70634941124226,407.17262103062535 46.49553941124228,408.9723570306254 C 48.97225941124228,411.4633040306254 53.774669411242286,415.1769100306254 55.989479411242286,416.3147450306254 C 56.26470941124228,416.45481403062536 56.95482941124229,427.63479003062537 56.70149941124228,427.85991203062537 C 56.54619941124227,427.99684603062536 53.460789411242274,424.94954303062536 49.84577941124229,421.0853800306254 C 42.53566941124228,413.2708620306254 41.2700594112423,412.30430003062537 38.095199411242305,412.1149160306254 C 34.69552941124232,411.91226503062535 32.03091941124231,413.4812070306254 29.136839411242306,417.39001203062537 C 23.241249411242308,425.35262203062535 20.30222941124231,433.1997860306254 21.70122941124231,437.24367203062536 C 23.722109411242315,443.08416003062536 26.742999411242323,445.1723270306254 40.75145941124231,450.4024290306254 C 45.88974941124232,452.3210260306254 51.80402941124231,454.57231903062535 53.8945294112423,455.4062430306254 L 57.69614941124232,456.9229210306254 C 65.26130941124231,528.4773360306253 72.9738694112423,583.2204160306253 84.10914941124233,633.1831960306254 C 84.35723941124232,637.7464460306253 85.37488941124232,640.7916560306253 87.54486941124233,643.4690060306255 L 87.54486941124233,643.4690060306255 C 89.81041941124232,646.2638460306255 94.42108941124232,645.6478360306254 95.90411941124233,642.3514860306254 C 96.41860941124233,641.2082460306253 96.38325941124234,639.7553860306255 95.79239941124234,637.6927860306254 C 83.85690941124236,583.9110960306253 71.78025941124235,518.9956360306254 68.61504941124235,458.1503990306254 C 68.18198941124234,449.3426740306254 67.50682941124236,432.1844220306254 67.19269941124236,421.9859680306254 C 66.95721941124236,414.3321790306254 66.43856941124236,404.6426180306254 64.67354941124236,374.9058325306254 C 64.17482941124237,366.28604703062535 64.23921941124237,365.1951200306254 65.39959941124235,362.7310790306254 C 66.27285941124234,360.8763580306254 66.81115941124236,357.7177760306254 67.11062941124234,352.69607503062537 C 67.54180941124235,345.46739403062537 67.51780941124235,345.3393050306254 65.55178941124234,343.2460840306254 C 63.13706941124235,340.6782600306254 62.985039411242326,336.9748140306254 65.25129941124234,335.93053803062537 C 66.44853941124234,335.3787940306254 67.13701941124233,335.7821860306254 69.58148941124233,338.4635150306254 C 71.18096941124233,340.21742003062536 74.19532941124234,344.07647803062537 76.28166941124232,347.0398040306254 C 81.25777941124232,354.1087700306254 82.72696941124232,355.3512060306254 86.36684941124233,355.56830503062537 C 88.54940941124232,355.6983570306254 89.74896941124231,355.3391480306254 90.96192941124232,354.1932990306254 C 93.02370941124232,352.2454630306254 106.29608941124232,329.4930490306254 108.46461941124232,324.1891590306254 C 110.58655941124232,318.9963230306254 110.96690941124231,313.1041390306254 109.28805941124233,311.3929760306254 C 106.89523941124233,308.9526720306254 103.87970941124232,308.4330490306254 99.31820941124232,309.67252303062537 C 97.00883941124232,310.30065303062537 94.91145941124233,310.80038403062537 94.65627941124231,310.7851090306254 C 94.38482941124232,310.7722790306254 94.8399894112423,303.2364930306254 95.6547294112423,294.0441840306254 C 97.07714941124229,277.9625960306254 97.0830194112423,277.24020603062536 95.8226394112423,274.9356260306254 C 94.07051941124232,271.7319060306254 91.54668941124231,270.6326460306254 87.90618941124231,271.4851960306254 C 86.35648941124231,271.8481960306254 84.27331941124231,272.61142603062535 83.2771394112423,273.1824160306254 C 81.69184941124232,274.0910360306254 81.9609694112423,273.41662603062537 85.4348094112423,267.7635160306254 C 91.1264394112423,258.49912603062535 92.94908941124231,253.19150603062536 93.4636594112423,244.5679360306254 C 93.69470941124231,240.69094603062538 93.80959941124232,236.8981160306254 93.7287894112423,236.14043603062538 C 93.62020941124231,235.08884603062538 94.1290294112423,234.6808360306254 95.8864694112423,234.4167160306254 C 99.02225941124229,233.94514603062538 101.65314941124231,232.3337760306254 103.51563941124229,229.74279603062539 C 104.85605941124228,227.87915603062538 105.07838941124228,226.7321760306254 105.10490941124229,221.56313603062537 C 105.1301094112423,215.70755603062537 102.55860941124229,197.83254603062537 100.28685941124229,188.12353603062536 C 98.33428941124228,179.78050603062536 93.86028941124229,176.91382603062536 89.22020941124228,181.03133603062537 C 87.96936941124227,182.14158603062538 86.88065941124228,182.95260603062536 86.80167941124228,182.83233603062536 C 86.72457941124227,182.71236603062536 87.37172941124228,178.58730603062537 88.24580941124228,173.66586603062535 C 90.30020941124226,162.10249603062536 89.89833941124229,159.75676603062536 85.52471941124227,157.78058603062536 C 83.17227941124227,156.71768603062534 81.96215941124228,156.54832603062536 79.88484941124227,156.99065603062536 C 76.73201941124228,157.66216603062537 77.01595941124228,158.38637603062537 76.16865941124226,147.51780603062537 C 74.89458941124226,131.16992603062536 73.30242941124226,128.40572603062537 64.86570941124225,127.90244603062536 C 60.79270941124224,127.66004603062535 59.215119411242256,127.93414603062536 55.53231941124224,129.52612603062536 L 51.10239941124223,131.44051603062536 L 52.39083941124224,118.54943603062537 C 53.10072941124224,111.45950603062539 53.819309411242244,105.45786603062538 53.98780941124224,105.2116660306254 C 54.15698941124225,104.96672603062541 57.65527941124225,108.58323603062541 61.76147941124225,113.24940603062538 C 71.48803941124226,124.30235603062539 75.79903941124226,126.46374603062537 80.75527941124224,122.77457603062538 C 82.64130941124225,121.37015603062537 83.06426941124224,120.56361603062538 83.21236941124224,118.08026603062541 C 83.31086941124224,116.4303260306254 82.90491941124225,113.32963603062541 82.31195941124224,111.19070603062539 C 81.71918941124224,109.05127603062539 80.82641941124226,104.72993603062537 80.32700941124224,101.58744603062542 C 78.67524941124225,91.18806603062541 75.88653941124224,87.53030603062541 69.29374941124223,87.1370760306254 C 65.36959941124223,86.90287603062541 62.20692941124224,87.8672360306254 58.94504941124222,90.30109603062539 C 57.66429941124221,91.25654603062537 56.40122941124221,92.02495603062539 56.135959411242226,92.00910603062539 C 55.644819411242224,91.9839060306254 57.15453941124221,79.40842603062538 57.758689411242216,78.49085603062537 C 57.94111941124223,78.21118603062536 58.98261941124221,78.50985603062537 60.06981941124221,79.15856603062537 C 64.28695941124221,81.6680560306254 74.7795094112422,80.70850603062536 79.21321941124219,77.40787603062535 C 82.5730094112422,74.90665603062536 83.0976594112422,71.71315603062533 80.97520941124219,66.68401603062534 C 80.0304894112422,64.44622603062533 78.3269694112422,59.853666030625334 77.1885094112422,56.47844603062532 C 73.9874294112422,46.98841603062533 70.88906941124219,43.36835603062531 65.6996294112422,43.05883603062534 L 63.457619411242206,42.92561603062535 L 64.3828294112422,37.852026030625325 C 66.05694941124219,28.665086030625332 66.48887941124221,15.623136030625346 65.26252941124221,11.281586030625306 C 63.7831794112422,6.043166030625287 58.8530194112422,0.20425603062528808 55.7526394112422,0.0192960306252985 L 55.76432941124213,0.019506030625393578 M 49.88457941124213,154.9910660306254 L 54.52662941124214,160.1814360306254 C 57.08031941124213,163.0367460306254 59.15496941124215,165.6060260306254 59.138119411242144,165.8902960306254 C 59.11911941124214,166.17374603062538 58.244649411242136,167.5276660306254 57.19052941124215,168.8979960306254 C 52.846639411242165,174.54346603062538 54.86050941124216,179.4104360306254 66.14862941124215,190.5488860306254 L 73.72198941124216,198.0233860306254 L 69.45794941124217,201.5422360306254 C 67.11253941124218,203.4777660306254 63.17481941124217,205.9318360306254 60.706179411242175,206.9932860306254 C 58.23752941124218,208.0547760306254 55.33972941124219,209.4671060306254 54.267549411242186,210.1322160306254 C 52.500889411242184,211.22864603062538 51.460149411242185,211.59378603062538 51.48887941124218,211.1104060306254 C 51.48887941124218,211.0100460306254 51.261609411242176,206.7789560306254 50.97185941124218,201.7060060306254 C 49.82170941124218,181.5816360306254 49.27072941124217,165.2788260306254 49.56969941124217,160.26337603062538 L 49.88457941124213,154.9910660306254 M 53.579889411242135,227.3487560306254 C 54.10890941124214,227.4377560306254 55.87556941124214,228.2787160306254 57.84327941124212,229.3975360306254 C 60.47681941124213,230.8958260306254 64.11121941124213,232.1673560306254 68.05636941124212,232.9720660306254 L 74.18048941124212,234.2212060306254 L 71.49416941124213,237.73449603062542 C 70.01696941124212,239.66706603062542 66.01580941124212,243.8480860306254 62.602749411242115,247.0233260306254 L 56.39965941124211,252.79727603062543 L 55.215299411242114,246.0909860306254 C 53.954049411242124,238.9485960306254 52.89606941124211,227.8352860306254 53.43190941124212,227.3597360306254 C 53.46360941124212,227.32813603062542 53.503809411242116,227.3345360306254 53.57899941124211,227.3407360306254 L 53.579889411242135,227.3487560306254 M 60.180499411242124,272.7884960306254 C 60.29918941124211,272.6780660306254 61.67008941124212,274.6627760306254 63.224949411242136,277.2014460306254 C 64.77999941124213,279.7402860306254 66.72687941124212,282.2064850306254 67.55179941124214,282.6811450306254 C 69.02084941124215,283.5265680306254 68.98574941124215,283.6007410306254 65.87704941124215,286.3077640306254 C 64.13121941124214,287.8283450306254 62.47850941124216,289.0586560306254 62.20074941124216,289.0420610306254 C 61.923609411242154,289.0291910306254 61.73296941124215,288.1371710306254 61.79670941124215,287.0712510306254 C 61.861709411242146,286.00481303062537 61.46212941124216,282.4001540306254 60.93015941124216,279.0610860306254 C 60.39924941124215,275.7220860306254 60.061239411242155,272.8997260306254 60.180359411242165,272.7884960306254 L 60.180499411242124,272.7884960306254 M 107.70486941124213,358.6570040306254 C 104.72588941124212,358.4436290306254 101.01606941124214,358.9208810306254 97.07449941124213,360.1041030306254 C 88.85272941124214,362.5720590306254 77.52890941124213,366.9165140306254 74.44690941124213,368.7837350306254 C 69.41736941124213,371.8320951306254 68.29291941124214,374.2564266306254 67.76478941124213,383.1097245306254 C 67.39105941124214,389.3702640306254 67.53625941124213,391.3547780306254 68.49638941124212,393.41119703062543 C 70.37276941124213,397.4357150306254 76.90373941124213,404.1315300306254 81.58750941124211,406.8320540306254 C 86.60902941124212,409.7273180306254 90.5450294112421,410.2265360306254 93.97846941124212,408.4040170306254 C 97.21514941124212,406.6862130306254 98.34244941124211,404.9552870306254 102.77451941124212,394.9076620306254 C 104.90296941124211,390.0830510306254 108.07050941124211,383.6747272306254 109.81261941124214,380.6658860506254 C 116.32301941124214,369.4220300306254 117.22178941124213,363.8699840306254 113.09315941124214,360.4139390306254 C 111.89591941124215,359.4113300306254 110.02201941124213,358.8241690306254 107.70486941124213,358.6570040306254 M 109.61899941124213,412.1362460306254 C 103.56804941124213,411.7751600306254 94.96177941124213,416.8924900306254 84.59886941124213,427.0141130306254 C 73.09113941124212,438.2532370306254 71.61575941124212,441.6670420306254 74.01780941124213,451.5009880306254 C 75.50366941124213,457.5836220306254 76.98068941124214,460.0094660306254 80.93425941124212,462.8599890306254 C 83.23907941124213,464.5221710306254 84.87878941124211,465.1332010306254 87.43815941124211,465.2858340306254 C 94.27682941124212,465.69301403062536 96.9978694112421,462.9795570306254 100.06118941124211,452.6951200306254 C 101.95574941124212,446.3350970306254 102.10794941124212,446.0902220306254 106.74442941124212,441.9552300306254 C 114.99699941124211,434.5960000306254 119.83308941124213,423.4196280306254 117.38831941124212,417.3611580306254 C 116.22629941124211,414.4804700306254 113.04442941124213,412.3405360306254 109.61899941124213,412.1362460306254 L 109.61899941124213,412.1362460306254" id="path1032" inkscape:connector-curvature="0" style="fill:#000000;fill-opacity:1;stroke-width:1"/>
</svg>
