<?xml version="1.0" ?>
<svg xmlns="http://www.w3.org/2000/svg" xmlns:cc="http://creativecommons.org/ns#" xmlns:dc="http://purl.org/dc/elements/1.1/" xmlns:ev="http://www.w3.org/2001/xml-events" xmlns:rdf="http://www.w3.org/1999/02/22-rdf-syntax-ns#" xmlns:svg="http://www.w3.org/2000/svg" xmlns:xlink="http://www.w3.org/1999/xlink" baseProfile="full" height="351" id="svg6399" transform="scale(0.2849002849002849 0.2849002849002849) translate(-209.5 -175.5)" version="1.1" viewBox="0 0 419 351" width="419">
	<defs/>
	<path d="M 269.775362,347.811302 C 223.741872,339.978202 182.44980199999998,316.98806199999996 143.75674199999997,277.648042 C 113.01469200000001,246.391942 97.209752,225.281132 73.277312,183.507922 C 45.891408,135.706812 14.086316999999994,57.05644170000001 1.4588439999999991,5.909125000000003 L 0.0,0.0 L 5.794167999999999,4.087828999999999 C 32.169645,22.695816999999998 95.498072,41.619529 177.49166200000002,55.3942557 C 244.90482199999997,66.71952 287.410232,79.260996 335.099782,101.897464 C 397.948012,130.812292 429.123002,222.072912 415.945552,274.764502 C 412.16130200000003,288.729052 400.73276200000004,313.554872 398.08844200000004,313.554872 C 397.09195200000005,313.554872 396.27662200000003,310.503192 396.27662200000003,306.773352 C 396.27662200000003,288.863632 383.03801200000004,254.85898200000003 366.21853200000004,229.566322 C 335.242062,182.98475200000001 283.37972199999996,149.515192 216.893692,133.19899800000002 C 191.218122,126.898011 145.99125199999997,113.819897 123.734952,106.26057600000001 C 113.558692,102.80423 104.957192,100.25178700000001 104.620492,100.588508 C 103.19477199999999,102.014219 158.18060200000002,128.000937 173.810562,133.288274 C 284.028302,170.572962 355.366462,233.78035200000002 377.540522,313.798122 C 384.164802,337.702682 384.328822,337.309392 365.688202,342.219292 C 331.786322,351.148932 300.20935199999997,352.989972 269.775362,347.811302" id="path6952" style="fill:#030708;stroke-width:2.07379103"/>
</svg>
