<?xml version="1.0" ?>
<svg xmlns="http://www.w3.org/2000/svg" xmlns:cc="http://creativecommons.org/ns#" xmlns:dc="http://purl.org/dc/elements/1.1/" xmlns:ev="http://www.w3.org/2001/xml-events" xmlns:rdf="http://www.w3.org/1999/02/22-rdf-syntax-ns#" xmlns:svg="http://www.w3.org/2000/svg" xmlns:xlink="http://www.w3.org/1999/xlink" baseProfile="full" height="459" id="svg4166" transform="scale(0.2994011976047904 0.2994011976047904) translate(-167.0 -229.5)" version="1.1" viewBox="0 0 334 459" width="334">
	<defs/>
	<path d="M 149.971638,455.18690796196086 C 142.582368,451.67853796196084 133.370268,447.7901379619608 106.29433800000001,436.7508179619608 C 79.78295800000001,425.94168796196084 60.931177999999996,416.19929796196084 46.06633300000001,405.6256579619609 C 37.689225,399.66687796196084 22.734229000000006,384.7542379619608 17.985873000000005,377.6247479619609 C 6.138832999999998,359.8367979619609 0.0,338.9126079619608 0.0,316.3199979619609 L 0.0,310.60774796196085 L 5.991132999999998,310.9060479619609 C 37.35645999999999,312.46770796196085 62.193728,320.2369979619608 84.079508,335.3326879619609 C 114.19380800000002,356.10397796196094 135.114418,385.8979879619609 152.048798,432.1308779619609 C 153.917628,437.2330079619609 155.261628,440.5377979619609 155.035458,439.4748579619609 C 154.809288,438.41191796196085 153.856578,430.75872796196086 152.918338,422.46775796196084 C 151.496078,409.8998379619609 151.210838,403.08717796196083 151.202828,381.49612796196084 C 151.190728,349.0501679619608 152.323268,340.0292479619609 161.287228,301.1672479619608 C 165.774218,281.7145379619608 168.234988,266.9984479619609 169.248578,253.5563979619608 C 170.150348,241.59718796196083 170.25774800000002,222.6061779619608 169.435348,220.5331879619608 C 169.07694800000002,219.6297779619608 168.206568,221.41999796196083 166.713888,226.1307179619608 C 162.018358,240.9492779619608 153.469088,254.35668796196083 141.397358,265.83338796196085 C 132.572798,274.2229979619608 123.27149800000001,280.2681979619608 114.797878,283.12120796196086 C 109.19269800000001,285.0084279619608 107.563648,285.2013479619608 97.404258,285.18092796196083 C 87.37109799999999,285.1607279619609 85.544478,284.94258796196084 79.994348,283.1012979619609 C 64.58598799999999,277.9895279619609 53.176758,267.4752479619608 48.57738799999999,254.14872796196087 C 46.98903599999999,249.5465279619609 46.776695999999994,247.52491796196088 46.810016,237.3223479619609 C 46.84460599999999,226.7333279619609 47.03694599999999,225.15613796196092 49.02541299999999,219.15568796196092 C 53.24384799999999,206.4260679619609 58.66351799999999,197.4985179619609 67.592108,188.5717379619609 C 74.830668,181.3346379619609 80.87575799999999,177.5420179619609 95.846158,170.8454479619609 L 106.60638800000001,166.03216796196088 L 94.46808800000002,165.57550796196088 C 72.98864800000001,164.76742796196086 57.36907800000002,159.7883079619609 41.000798000000025,148.5315079619609 C 20.656170000000024,134.5401079619609 11.228326000000024,117.4764679619609 14.988834000000026,101.45195796196091 C 19.58779600000002,81.85454796196092 39.035464000000026,66.8648779619609 59.86225800000002,66.8648779619609 C 78.04473800000002,66.8648779619609 100.04419800000002,76.7791679619609 118.98100800000003,93.50736796196091 C 122.13207800000004,96.2909179619609 124.83230800000004,98.44629796196091 124.98151800000002,98.2970879619609 C 125.13072800000003,98.14788796196089 124.55373800000001,96.44543796196089 123.69931800000003,94.5138779619609 C 121.22613800000002,88.92284796196091 120.13674800000004,76.9226279619609 121.24042800000004,67.4278979619609 C 124.50802800000002,39.31739796196089 141.53946800000003,15.265757961960901 166.97872800000005,2.8366779619608735 C 172.07983800000005,0.3443879619608765 173.47338800000006,0.003487961960871644 178.57447800000006,1.7961960878665195e-05 C 183.41935800000005,-0.0029820380391072376 185.13475800000006,0.3682879619608741 189.01065800000006,2.2605279619608893 C 195.12513800000008,5.245677961960894 207.24406800000006,17.28416796196089 211.67867800000008,24.7781079619609 C 219.12493800000007,37.361367961960894 222.1627280000001,51.601637961960904 219.9358780000001,63.485567961960896 C 218.52046800000008,71.0390479619609 215.70215800000008,79.7199079619609 212.09375800000007,87.6404679619609 C 210.66525800000008,90.77608796196088 209.49647800000005,93.5095779619609 209.49647800000005,93.7148779619609 C 209.49647800000005,93.92018796196089 211.52468800000005,92.2103979619609 214.00359800000004,89.91534796196089 C 230.76740800000002,74.39501796196089 255.75105800000003,66.15576796196089 281.390098,67.6922579619609 C 292.58907800000003,68.36337796196091 298.318568,69.84108796196091 308.120198,74.58627796196092 C 314.067858,77.46567796196092 317.319898,79.67392796196091 321.868698,83.92200796196093 C 328.729558,90.32928796196094 331.004698,93.85049796196094 332.825128,100.87906796196094 C 335.064248,109.52423796196095 333.189318,120.74126796196094 328.178378,128.67912796196092 C 323.730258,135.72540796196094 314.14979800000003,143.22707796196093 303.338678,148.12907796196092 C 293.403728,152.6337879619609 266.282288,160.54596796196094 257.066378,161.62816796196094 L 252.45541800000004,162.16960796196096 L 256.293318,163.87171796196097 C 258.404168,164.80788796196097 262.914218,167.690287961961 266.315628,170.277057961961 C 285.164648,184.61174796196102 294.197408,198.887177961961 294.064028,214.13085796196097 C 293.870028,236.30350796196095 276.381548,260.535907961961 256.108728,266.722507961961 C 235.634758,272.970487961961 210.04889800000004,261.149207961961 188.504768,235.487897961961 C 185.068318,231.394717961961 180.678628,225.69344796196103 178.749908,222.81840796196101 C 176.821168,219.94335796196103 175.09414800000002,217.74002796196103 174.912068,217.92210796196102 C 174.729998,218.104187961961 175.13971800000002,220.99236796196104 175.82256800000002,224.34030796196103 C 178.376178,236.86035796196106 178.74487800000003,257.88365796196103 176.633238,270.56349796196105 C 176.420818,271.83901796196096 174.324098,283.64283796196105 171.973878,296.794207961961 C 164.835888,336.736747961961 163.394258,346.782307961961 161.149608,372.21952796196103 C 159.598038,389.802447961961 158.675838,442.476467961961 159.883148,444.5567479619609 C 160.358438,445.37571796196096 160.757898,445.6247979619609 160.770838,445.110267961961 C 160.834738,442.563567961961 168.706288,399.38851796196093 170.39552799999998,392.318827961961 C 174.817668,373.811357961961 182.236508,356.42134796196103 190.348108,345.54930796196106 C 203.358578,328.1112579619611 222.550598,315.13932796196104 247.413198,306.978867961961 C 257.722768,303.595047961961 273.121358,299.804787961961 278.26595799999996,299.384667961961 L 280.93967799999996,299.16633796196106 L 282.72027799999995,308.056407961961 C 284.95367799999997,319.207297961961 285.8083879999999,336.791547961961 284.567328,346.056587961961 C 280.202798,378.63955796196103 261.63881799999996,403.26737796196096 224.18441800000002,426.163307961961 C 214.265368,432.226827961961 160.87971800000003,458.82595796196097 158.806678,458.737417961961 C 157.986588,458.70231796196094 154.010828,457.104667961961 149.971638,455.18690796196097 L 149.971638,455.18690796196086 M 174.211128,200.9231679619609 C 185.873758,197.91430796196087 197.502828,188.78072796196088 202.38855800000002,178.79232796196092 C 207.21192800000003,168.93143796196094 208.373028,157.59588796196093 205.65020800000002,146.9497579619609 C 200.62603800000002,127.3054179619609 185.60938800000002,115.3240679619609 164.659588,114.24449796196089 C 155.039508,113.7487479619609 149.49987800000002,114.89009796196089 140.695048,119.18198796196089 C 119.96223800000001,129.2881279619609 110.806658,156.53701796196086 121.22837800000002,177.1187779619609 C 127.54690800000003,189.5972079619609 137.13505800000001,197.5384879619609 149.971638,200.92511796196086 C 155.76355800000002,202.45315796196084 168.284578,202.45215796196086 174.211128,200.92311796196086 L 174.211128,200.9231679619609" id="path4719" style="fill:#000000;stroke-width:0.77304977"/>
</svg>
