<?xml version="1.0" ?>
<svg xmlns="http://www.w3.org/2000/svg" xmlns:cc="http://creativecommons.org/ns#" xmlns:dc="http://purl.org/dc/elements/1.1/" xmlns:ev="http://www.w3.org/2001/xml-events" xmlns:rdf="http://www.w3.org/1999/02/22-rdf-syntax-ns#" xmlns:svg="http://www.w3.org/2000/svg" xmlns:xlink="http://www.w3.org/1999/xlink" baseProfile="full" height="417" id="svg1937" transform="scale(0.23980815347721823 0.23980815347721823) translate(-226.5 -208.5)" version="1.1" viewBox="0 0 453 417" width="453">
	<defs/>
	<path d="M 203.27934299999998,411.12155761047563 C 187.537783,399.53253761047563 179.360043,386.65000761047565 176.49339299999997,368.9251576104756 C 175.15503299999997,360.64983761047563 172.46108299999997,358.2979376104756 170.41829299999998,363.6213876104756 C 168.51989299999997,368.56855761047564 165.78887299999997,366.8382176104756 162.047273,358.31760761047565 C 155.488623,343.38181761047565 153.781813,327.84793761047564 157.11852299999998,313.46034761047565 C 160.98473299999998,296.7896126104756 160.945823,296.4470326104756 155.34604299999998,297.8524926104757 C 151.106743,298.91649261047564 150.47549299999997,298.29919261047564 149.27860299999998,291.91919261047565 C 147.45666299999996,282.2075026104757 154.313023,259.50098261047566 163.97872299999997,243.23608261047565 C 171.01463299999998,231.39642261047564 196.12593299999997,203.89965231047563 194.06287299999997,210.29404231047565 C 191.30938299999997,218.82842231047564 185.15000299999997,249.18849261047563 185.15000299999997,254.22620261047564 C 185.15000299999997,259.1145826104756 183.72994299999996,260.9045226104756 176.48184299999997,265.1522026104756 C 167.67975299999998,270.31056261047564 162.00625299999996,278.25245261047564 162.00625299999996,285.41546261047563 C 162.00625299999996,287.58963261047563 162.87414299999995,289.3685226104756 163.93490299999996,289.3685226104756 C 164.99565299999998,289.3685226104756 165.86355299999997,287.39191261047563 165.86355299999997,284.9760526104756 C 165.86355299999997,279.10646261047566 170.61399299999997,272.64524261047563 177.57664299999996,269.0447226104756 L 183.26963299999997,266.1007626104756 L 182.21746299999998,277.2524826104756 C 179.63863299999997,304.58508261047564 179.513963,305.08897261047565 174.318673,309.17558261047566 C 167.74970299999998,314.34272761047566 163.934903,323.6941076104756 163.934903,334.6297576104756 C 163.934903,347.49601761047563 167.084533,345.26654761047564 168.331233,331.51782761047565 C 169.157733,322.40309761047564 170.499663,318.5713776104757 174.140313,314.93073761047566 L 178.87460299999998,310.19643261047565 L 180.28137299999997,325.2087376104756 C 182.099733,344.61339761047566 185.79352299999996,358.66617761047564 193.16638299999997,374.22894761047564 C 200.20111299999996,389.07798761047565 202.85117299999996,387.09952761047566 196.07898299999997,372.05445761047565 C 187.87346299999996,353.8250476104756 182.52398299999996,329.87008761047565 186.65861299999997,329.87008761047565 C 189.47150299999998,329.87008761047565 200.44861299999997,347.63183761047566 202.97076299999998,356.26424761047565 C 204.35653299999998,361.0072976104757 205.39167299999997,362.4221776104756 205.88410299999998,360.24631761047567 C 206.979663,355.40532761047564 198.505893,338.03943761047566 190.267013,328.24112761047564 C 182.806263,319.3682276104756 181.737633,313.18956761047565 184.77899299999999,296.51008261047565 L 186.114333,289.1868326104757 L 195.55771299999998,300.36738261047566 C 200.75155299999997,306.5166926104756 207.03282299999998,316.10436761047566 209.51606299999997,321.6733476104756 C 214.43353299999998,332.70134761047564 216.82185299999998,334.87778761047565 214.80707299999997,326.49495761047564 C 212.72925299999997,317.8498376104756 207.25579299999998,308.2535926104756 199.13131299999998,299.01175261047564 C 186.33718299999998,284.4580426104757 185.32757299999997,281.20575261047566 187.812403,262.54993261047565 L 189.971623,246.33891261047563 L 197.395903,254.57112261047564 C 205.933783,264.03811261047565 212.047413,276.3409226104756 212.108683,284.17858261047564 C 212.13198300000002,287.16815261047566 212.98709300000002,289.0794626104756 214.016523,288.44324261047564 C 219.04664300000002,285.33445261047564 209.49489300000002,261.3726426104756 198.448383,249.38860261047563 C 192.600593,243.04450261047563 190.853203,239.76037261047563 191.673923,236.65639261047562 C 192.282213,234.35578261047564 193.80496300000001,227.91704261047565 195.057803,222.34808231047563 C 197.182053,212.90562228047563 200.579163,208.49519231047563 200.579163,215.17976231047564 C 200.579163,220.31284231047565 209.848353,236.68679261047564 219.323633,248.29174261047564 C 229.927163,261.27852261047565 235.294793,271.00758261047565 235.294793,277.2401226104756 C 235.294793,282.0407826104756 233.177123,282.72068261047565 227.570473,279.72008261047563 C 222.07222299999998,276.77752261047567 221.14144299999998,280.5084526104756 225.300223,288.82021261047566 C 230.11842299999998,298.44992261047565 231.691173,307.3536926104756 230.210053,316.61608761047563 C 229.176123,323.0818676104756 228.439673,324.00472761047564 225.147593,322.9598676104756 C 221.661213,321.8533476104756 221.422273,322.35273761047563 222.633563,328.2144176104756 C 225.293293,341.08561761047565 226.027533,351.36939761047563 224.766603,358.0906776104756 C 223.605003,364.28257761047564 223.005343,364.8237876104756 218.546223,363.7046076104756 C 213.611413,362.4660476104756 213.611373,362.46610761047566 214.849733,372.68693761047564 C 215.611553,378.9747376104756 215.026593,387.9082676104756 213.32956299999998,395.9023276104756 C 211.81237299999998,403.04930761047564 211.027763,410.6433576104756 211.585963,412.77797761047566 C 212.910103,417.84146761047566 212.22024299999998,417.7038976104756 203.27934299999998,411.12155761047563 M 53.279962000000005,326.1221576104756 C 59.032997,316.38303761047564 93.682333,289.49973261047563 110.71812299999999,281.55774261047566 C 125.93909299999999,274.4617826104756 142.328623,269.0480126104756 143.88327299999997,270.60264261047564 C 144.30902299999997,271.02841261047564 142.00710299999997,276.68040261047565 138.76790299999996,283.16262261047564 C 132.10316299999997,296.4999426104756 117.81604299999995,310.6323526104756 102.71757299999996,318.8225076104756 C 91.81218299999998,324.73815761047564 66.65220799999997,331.7987276104756 56.477501999999966,331.7987276104756 L 49.926720999999965,331.7987276104756 L 53.279962000000005,326.1221576104756 M 44.53833600000001,319.0929076104756 C 47.53404400000001,297.0173226104756 60.14382000000001,279.81697261047566 81.41605100000001,268.78978261047564 C 90.554573,264.05252261047565 93.95828300000002,263.4457526104756 114.27227300000001,262.9325126104756 C 137.240183,262.3522426104756 142.513023,264.0340026104756 131.630083,268.4687226104756 C 98.70543300000003,281.8852826104756 80.408353,293.56279261047564 59.072090000000024,314.77649761047564 C 50.72265400000003,323.07796761047564 43.70782200000003,329.8700876104756 43.48357900000003,329.8700876104756 C 43.25931600000003,329.8700876104756 43.73395600000003,325.0203476104756 44.53833600000003,319.0929076104756 L 44.53833600000001,319.0929076104756 M 375.682413,286.73754261047566 C 370.108823,285.19189261047563 363.290733,281.1684426104756 358.034153,276.3231326104756 C 349.443023,268.4040826104756 334.113283,259.3384026104756 332.329673,261.1220126104756 C 331.805903,261.64576261047563 334.927643,265.9258426104756 339.266813,270.6333126104756 C 343.606003,275.3407726104756 347.156243,279.8566226104756 347.156243,280.6685126104756 C 347.156243,284.0138826104756 327.09745300000003,279.8745926104756 315.397963,274.1149426104756 C 306.067673,269.52166261047563 298.733133,263.61757261047563 286.904103,251.17822261047561 C 278.14295300000003,241.96505261047562 265.923043,229.43103261047563 259.74874300000005,223.32484261047563 C 249.60216300000008,213.29017228047562 248.97872300000006,212.2226922804756 253.26491300000004,212.2226922804756 C 265.82556300000005,212.2226922804756 318.91222300000004,231.14886261047562 353.995473,248.1346026104756 C 372.128663,256.91388261047564 379.434573,259.0004126104756 374.088423,253.87300261047562 C 369.542103,249.5127026104756 327.700703,228.67053261047562 308.20082299999996,221.05284231047563 C 298.334033,217.19832231047562 282.23322299999995,212.12980228047562 272.421233,209.7894323104756 C 262.609243,207.4490823104756 254.58378299999998,205.0863723104756 254.586843,204.5390023104756 C 254.59184299999998,203.9916323104756 263.051873,200.9401126104756 273.391143,197.75784261047562 C 298.270603,190.10035261047562 327.82541299999997,189.6664426104756 352.460033,196.5969926104756 C 361.211253,199.0590026104756 368.371353,201.7612926104756 368.371353,202.6020626104756 C 368.371353,204.4019923104756 357.704803,208.36540231047562 352.860743,208.36540231047562 C 351.011003,208.36540231047562 349.025593,209.5954123104756 348.448693,211.09875231047562 C 347.358793,213.9389723104756 350.852513,216.0799823104756 356.577063,216.0799823104756 C 358.402763,216.0799823104756 366.992643,219.5116023104756 375.665703,223.7057926104756 C 387.341403,229.35203261047562 394.612013,234.5878426104756 403.673803,243.87539261047561 C 417.072693,257.6080826104756 436.92325300000005,285.1015126104756 434.903953,287.1297126104756 C 432.41308300000003,289.6315126104756 384.985443,289.3174626104756 375.682413,286.7375426104756 L 375.682413,286.73754261047566 M 109.93657300000001,254.08722261047564 C 107.28677300000001,252.74662261047564 103.38126299999999,248.88735261047563 101.25767300000001,245.5110426104756 C 97.608463,239.70911261047564 96.743403,239.36824261047562 85.49056300000001,239.29803261047562 C 75.558753,239.2362326104756 72.600538,238.39578261047564 67.65059199999999,234.23068261047564 C 54.61547099999999,223.26233261047562 64.87073799999999,204.2783523104756 87.306613,197.84454261047563 C 102.059043,193.61405261047562 129.866663,191.41337261047562 140.65225299999997,193.62277261047564 C 147.70698299999998,195.06792261047562 152.70621299999996,194.76316261047563 162.56377299999997,192.28701261047564 C 180.49701299999998,187.78233261047563 181.35927299999997,187.90804261047563 179.39948299999998,194.74142261047564 C 175.82888299999996,207.19137231047563 162.55572299999997,229.14326261047563 152.41695299999998,239.36664261047562 C 137.800763,254.10485261047563 121.28424299999998,259.82826261047563 109.93657299999998,254.08722261047564 L 109.93657300000001,254.08722261047564 M 34.203513,219.76745231047562 C 18.376253,216.03859231047562 0.0,203.54365231047564 0.0,196.51074261047563 C 0.0,191.38691261047563 9.106777000000001,183.94450261047564 18.643835000000003,181.27429261047564 C 36.584909,176.2510926104756 63.15113800000001,183.33674261047562 71.772706,195.44461261047562 C 75.72741300000001,200.99847261047563 75.75485800000001,201.26441261047563 72.22493400000002,199.82597261047562 C 66.79745500000001,197.61429261047562 43.60587400000001,196.08029261047562 37.76383300000001,197.54654261047563 C 27.730689000000012,200.06470261047562 33.033617000000014,202.57946261047562 48.37686100000001,202.57946261047562 C 56.951313000000006,202.57946261047562 63.623290000000004,203.23038231047562 63.203521000000016,204.0259423104756 C 62.78373100000001,204.8215123104756 60.75865300000002,209.15213231047562 58.70333400000002,213.64956228047564 C 55.311539,221.07149231047563 54.342993,221.81060231047562 48.216147,221.65257231047562 C 44.503504,221.55677231047562 38.197815,220.70850231047564 34.203513,219.76745231047562 M 210.387453,206.29251231047562 C 196.93085299999998,203.61896231047564 187.691793,196.5019926104756 186.705013,188.04960261047563 C 185.98584300000002,181.88929261047562 186.509453,180.75367261047563 190.819263,179.12631261047562 C 200.573113,175.44335261047564 206.319163,167.60793261047564 211.34176300000001,151.14144261047562 C 214.34767300000001,141.28654861047562 219.43251300000003,130.52444261047563 224.75653300000002,122.74892661047562 C 229.79066300000002,115.39678661047562 232.86294300000003,109.00858761047562 232.19800300000003,107.27581761047563 C 231.18039300000004,104.62393761047562 238.52381300000002,89.46122761047563 253.527463,63.23478761047562 C 256.409943,58.196207610475625 258.025883,54.073717610475626 257.11850300000003,54.073717610475626 C 255.34732300000002,54.073717610475626 242.19961300000006,74.85919761047563 235.46434300000004,88.30718761047562 C 233.20647300000005,92.81539761047563 230.81989300000004,96.50392761047563 230.16085300000003,96.50392761047563 C 227.78698300000002,96.50392761047563 231.19320300000004,54.84303761047562 234.28277300000002,46.08954761047562 C 239.967993,29.981957610475632 258.93570300000005,16.139257610475624 273.10562300000004,17.756497610475634 C 278.640573,18.388207610475632 278.69430300000005,18.51767761047563 279.260143,32.58256761047562 C 279.90279300000003,48.55716761047563 275.31842300000005,65.56296761047562 267.11487300000005,77.63557761047562 C 262.16974300000004,84.91297761047562 262.407343,91.82797761047561 267.53492300000005,89.86033761047563 C 269.08190300000007,89.26670761047562 273.70064300000007,88.24483761047563 277.79879300000005,87.58951761047562 C 284.68798300000003,86.48789761047563 285.34766300000007,86.78728761047563 286.54530300000005,91.55897761047562 C 287.25772300000006,94.39749761047563 287.46240300000005,103.92536761047562 287.00018300000005,112.73201761047562 C 285.96893300000005,132.37990561047562 279.51736300000005,147.20612261047563 269.0865830000001,153.89887261047562 C 261.67259300000006,158.65596261047563 260.9462630000001,161.0957426104756 265.2501430000001,166.78596261047562 C 268.8438930000001,171.53732261047563 268.8379530000001,177.15483261047564 265.2300430000001,185.78971261047562 C 258.99747300000007,200.70647261047563 232.37196300000008,210.66035231047562 210.38746300000008,206.29251231047562 L 210.387453,206.29251231047562 M 71.473458,187.84090261047564 C 60.617822999999994,184.0217826104756 54.858809,180.4588326104756 45.835427,171.97933261047564 C 34.023782000000004,160.87962261047562 32.524840000000005,148.81388261047562 41.698308000000004,138.6773136104756 C 44.24767000000001,135.8603096104756 43.921766000000005,134.52159561047563 38.671106,126.24215361047563 C 31.851992000000003,115.48952161047562 30.946686,104.98986761047563 36.271677000000004,98.41376761047563 C 39.244646,94.74230761047563 40.90469,94.30434761047563 47.575876,95.43143761047563 C 54.705116,96.63590761047563 55.610036,97.46512761047563 57.827092,104.82497761047563 C 64.04255900000001,125.45827161047563 70.66778500000001,138.06034461047562 81.903921,150.62247261047563 C 88.303403,157.77714261047564 95.125903,165.9213226104756 97.06506300000001,168.72066261047564 C 99.004223,171.51999261047564 105.309503,176.94340261047563 111.076833,180.7726826104756 C 116.844133,184.60197261047563 121.33279299999998,187.91878261047563 121.051613,188.14339261047562 C 120.77041299999999,188.36800261047563 111.427513,189.06983261047563 100.28958300000002,189.70303261047562 C 84.557523,190.59740261047563 78.127555,190.18187261047564 71.47345800000002,187.8409026104756 L 71.473458,187.84090261047564 M 134.04089299999998,186.38109261047563 C 119.42742299999998,181.75946261047562 104.47098299999999,171.81954261047562 100.24287299999997,163.91924261047564 C 98.53274299999998,160.72385261047563 99.03760299999999,160.48772261047563 105.59012299999998,161.41831261047562 C 109.56973299999999,161.98350261047563 115.77607299999997,163.76720261047564 119.38200299999997,165.38208261047563 C 128.98436299999997,169.68243261047564 142.25886299999996,169.25333261047564 151.80402299999997,164.33402261047564 C 156.26998299999997,162.03239261047563 160.27712299999996,160.14924261047562 160.70881299999996,160.14924261047562 C 161.14048299999996,160.14924261047562 163.74533299999996,163.55172261047562 166.49734299999997,167.71030261047562 C 169.24936299999996,171.86888261047562 173.31797299999997,175.84804261047563 175.53871299999997,176.55286261047561 C 180.92058299999997,178.26101261047563 179.61512299999998,181.21899261047562 171.57679299999998,185.5300026104756 C 163.79374299999998,189.7040926104756 145.83562299999997,190.11128261047563 134.04089299999998,186.3810926104756 L 134.04089299999998,186.38109261047563 M 314.36927299999996,182.23082261047563 C 308.53512299999994,180.78645261047564 297.87314299999997,179.01762261047563 290.67597299999994,178.30004261047563 C 277.77670299999994,177.01396261047563 277.63929299999995,176.94071261047563 281.0327429999999,173.1594126104756 C 290.4660329999999,162.64801261047563 326.7961029999999,142.42895961047563 345.2276129999999,137.43254561047564 C 351.0617629999999,135.85102361047564 364.5140629999999,134.0230876104756 375.1216129999999,133.37046561047563 C 394.3967129999999,132.18458061047562 394.4035029999999,132.18236261047565 386.6490429999999,129.60883361047564 C 380.4730029999999,127.55914561047562 376.3414529999999,127.48496461047563 366.3982529999999,129.24523561047562 C 335.4571829999999,134.72282561047564 310.8046929999999,145.06879361047564 288.5420129999999,161.91934261047564 L 275.7963529999999,171.56650261047562 L 275.7963529999999,165.28496261047565 C 275.7963529999999,160.49778261047564 277.6316329999999,157.21133261047564 283.5109429999999,151.47034261047563 C 287.7539629999999,147.32714261047562 291.2255229999999,142.48387461047565 291.2255229999999,140.7075256104756 C 291.2255229999999,138.93117661047563 292.5218429999999,136.40194661047565 294.1062429999999,135.08701361047562 C 295.6906529999999,133.77208061047563 299.6207829999999,128.09280861047563 302.8398829999999,122.46640661047562 C 308.4873229999999,112.59569761047561 320.2428129999999,100.36122761047562 324.07962299999986,100.36122761047562 C 325.10346299999986,100.36122761047562 325.9411529999999,104.26672761047563 325.9411529999999,109.04012761047562 C 325.9411529999999,117.86270061047563 328.79317299999985,120.59938061047562 331.30706299999986,114.18905161047562 C 334.1391429999999,106.96741761047562 346.83710299999984,94.39640761047562 353.18325299999987,92.53156761047562 C 356.76331299999987,91.47955761047562 364.68282299999987,89.91688761047561 370.7821729999999,89.05896761047562 C 383.49895299999986,87.27025761047562 384.7412129999999,88.94065761047563 377.28454299999987,97.80243761047562 L 372.69717299999985,103.25418761047563 L 388.37424299999986,103.29148761047563 C 401.53256299999987,103.32278761047563 405.60062299999987,104.14424761047563 413.69453299999986,108.40435761047563 C 424.49452299999984,114.08879261047562 427.94811299999986,117.57962461047563 438.87154299999986,133.8529026104756 C 443.04786299999984,140.07463361047564 448.08149299999985,146.29748061047562 450.05740299999985,147.68145261047562 C 454.62585299999984,150.88133261047562 453.04537299999987,153.3471626104756 442.97552299999984,158.7303326104756 C 436.10513299999985,162.4031326104756 431.97962299999983,163.0340426104756 415.14102299999985,162.9870226104756 C 397.48448299999984,162.93772261047562 391.06691299999983,164.17859261047562 397.64251299999984,166.3704626104756 C 402.95062299999984,168.13982261047562 396.4629029999998,171.36152261047562 385.15259299999985,172.57275261047562 C 376.3474229999999,173.51571261047562 370.57580299999984,173.0613426104756 364.42031299999985,170.9406026104756 C 353.45165299999985,167.16159261047562 350.82672299999984,169.7822526104756 359.59683299999983,175.75622261047562 C 363.34638299999983,178.31032261047562 366.1330229999998,181.2679226104756 365.7893829999998,182.32867261047562 C 364.8244029999998,185.3073926104756 326.50184299999984,185.2344526104756 314.3692729999998,182.23087261047561 L 314.36927299999996,182.23082261047563 M 180.32839299999998,173.7206526104756 C 174.13983299999998,171.13239261047562 164.44506299999998,159.89339261047562 160.30341299999998,150.50601261047564 C 152.32802299999997,132.42917961047561 153.16187299999999,114.07055161047563 162.58967299999998,100.17036761047562 L 167.03857299999999,93.61096761047563 L 162.80610299999998,81.43539761047563 C 158.900693,70.20065761047564 158.526493,61.78830761047564 161.93219299999998,61.78830761047564 C 162.704773,61.78830761047564 168.46180299999997,65.11793761047565 174.72560299999998,69.18748761047564 C 209.20345299999997,91.58752761047565 221.17999299999997,124.39850761047563 205.88294299999998,154.54622261047564 C 201.95045299999998,162.29646261047563 197.17297299999998,168.51646261047563 193.06154299999997,171.23896261047565 C 185.84086299999998,176.02031261047563 185.83132299999997,176.02218261047562 180.32839299999998,173.72065261047564 L 180.32839299999998,173.7206526104756 M 121.94023299999998,160.1420326104756 C 118.46715299999997,158.02449261047562 113.36050299999997,156.29195261047562 110.59212299999999,156.29195261047562 C 100.34665299999998,156.29195261047562 89.58834299999998,151.42720261047563 80.53427399999998,142.70023761047563 C 68.91441499999996,131.5001906104756 67.59026399999996,124.05252961047563 78.79687199999998,132.9283256104756 C 89.14430299999998,141.12365761047562 93.34245299999998,142.38023961047563 117.23376299999995,144.4332106104756 C 137.41546299999996,146.16741561047564 154.29167299999995,151.49038261047562 154.29167299999995,156.12174261047562 C 154.29167299999995,158.50860261047563 139.79084299999994,164.0079126104756 133.51969299999996,163.99933261047562 C 130.62408299999996,163.99533261047563 125.41332299999996,162.25958261047563 121.94023299999995,160.1420326104756 L 121.94023299999998,160.1420326104756 M 147.37593299999997,144.77712561047562 C 145.16341299999996,143.88222161047563 134.98504299999996,142.09672761047563 124.75735299999997,140.8093616104756 C 113.76104299999997,139.42524861047562 105.24888299999998,137.36901261047564 103.92830299999997,135.7777986104756 C 100.81068299999998,132.02130261047563 102.82517299999998,110.8176576104756 107.15356299999999,101.83008761047562 C 110.61013299999999,94.65273761047561 115.36180299999998,92.39607761047561 126.32630299999997,92.72455761047561 C 128.44781299999997,92.78805761047562 134.08910299999997,92.27799761047561 138.86250299999998,91.59096761047562 C 145.96352299999998,90.56891761047562 148.46943299999998,91.07423761047562 152.64586299999996,94.37037761047561 L 157.75029299999997,98.39894761047562 L 153.95159299999997,105.64818761047562 C 150.89278299999998,111.48546761047561 150.32352299999997,115.52695161047562 151.02890299999999,126.39794361047562 C 151.51070299999998,133.8232306104756 152.53477299999997,141.4172716104756 153.304633,143.27359461047564 C 154.828853,146.94892261047562 153.548293,147.27367261047561 147.375933,144.77712561047562 L 147.37593299999997,144.77712561047562 M 89.10822299999998,133.05419861047562 C 73.765692,126.89741561047562 59.83710699999998,107.61415761047562 59.80611399999999,92.48726761047563 C 59.79068399999999,84.44081761047562 60.501004999999985,83.07601761047562 67.746117,77.25368761047562 C 76.60454299999998,70.13485761047562 82.22567699999999,69.47306761047562 93.57064299999999,74.21329761047562 C 97.591793,75.89343761047562 101.255493,76.89444761047562 101.71219299999998,76.43774761047561 C 102.168893,75.9810476104756 103.02309299999999,71.8471776104756 103.61040299999999,67.25136761047563 C 105.25598299999999,54.374667610475626 109.19063299999999,48.39918761047562 118.83226299999998,44.13423761047562 C 126.99928299999999,40.52157761047562 127.951303,40.482647610475624 136.74045299999997,43.40192761047561 C 149.58147299999996,47.6670376104756 153.77703299999996,52.782197610475606 154.59063299999997,65.16463761047561 C 154.95657299999996,70.7342576104756 154.99591299999997,75.2906876104756 154.67803299999997,75.29002761047562 C 154.36017299999997,75.28936761047561 151.55029299999998,73.97026761047562 148.43385299999997,72.35869761047562 C 144.31715299999996,70.22986761047562 138.51881299999997,69.62568761047561 127.23087299999997,70.14936761047562 C 113.29426299999997,70.79592761047562 111.10633299999998,71.43330761047562 105.986933,76.33799761047561 C 91.67877299999998,90.04608761047561 87.47604299999998,112.16003761047561 95.46512299999998,131.7017196104756 C 96.99012299999998,135.4319656104756 95.71145299999998,135.70401261047562 89.10819299999997,133.05419861047562 L 89.10822299999998,133.05419861047562 M 214.45589299999997,113.63650261047562 C 209.30318299999996,93.27941761047562 191.25166299999998,71.37990761047561 172.13431299999996,62.29333761047562 C 158.22587299999995,55.682597610475625 151.17577299999996,47.18929761047562 149.50340299999996,35.02975761047563 C 148.03751299999996,24.37139761047564 149.28143299999996,15.968447610475636 153.75053299999996,6.339737610475623 C 157.36082299999995,-1.4386523895243783 164.87392299999996,-2.113692389524374 172.94800299999997,4.61488761047562 C 175.94645299999996,7.1136676104756305 181.57551299999997,9.74188761047563 185.45701299999996,10.45535761047563 C 193.73790299999996,11.977497610475638 204.89682299999996,23.236287610475642 210.29491299999995,35.51550761047562 C 221.48385299999995,60.96738761047561 226.49388299999995,104.22825761047562 219.67712299999994,116.52947161047562 L 216.59564299999994,122.09016561047562 L 214.45589299999997,113.63650261047562 M 96.47464299999999,106.62931761047562 C 96.53034299999999,99.65602761047562 102.34212299999999,87.25927761047562 108.74864299999999,80.44841761047562 C 112.620633,76.33204761047563 115.395083,75.11561761047562 120.09975299999999,75.4716576104756 C 123.52435299999999,75.73082761047561 129.09605299999998,75.30397761047561 132.481293,74.5231276104756 C 139.633173,72.8734376104756 144.78076299999998,75.06733761047559 153.80951299999998,83.61317761047559 C 162.07132299999998,91.43310761047559 161.79134299999998,94.02038761047558 153.25425299999998,88.74417761047559 C 148.00075299999997,85.49733761047558 144.783753,84.81371761047559 139.271573,85.77283761047559 C 135.33395299999998,86.4579776104756 128.951193,86.96895761047558 125.087693,86.9083276104756 C 113.241083,86.7224476104756 108.838963,89.59159761047559 103.15918300000001,101.2006476104756 C 100.27118300000001,107.1034976104756 97.57619300000002,111.9330976104756 97.17029300000002,111.9330976104756 C 96.76438300000001,111.9330976104756 96.45135300000001,109.5463976104756 96.47464300000001,106.6293176104756 L 96.47464299999999,106.62931761047562 M 70.256269,65.38675761047563 C 69.00857099999999,63.42164761047562 73.41352,42.06861761047563 76.16375099999999,36.75026761047562 C 77.54745600000001,34.07447761047561 80.507736,30.23072761047561 82.74214899999998,28.20860761047561 C 86.20611299999999,25.073767610475613 87.553923,24.873377610475615 91.88913299999999,26.848627610475603 C 96.22866299999998,28.82584761047559 97.569613,28.623437610475605 101.042373,25.4669976104756 C 110.00124299999999,17.324107610475608 122.82593299999999,14.904307610475598 131.739883,19.674897610475597 C 138.859363,23.485127610475587 146.577083,32.35172761047559 146.577083,36.72078761047558 C 146.577083,40.453517610475586 145.93479299999998,40.71662761047557 140.308993,39.28843761047557 C 130.69748299999998,36.848417610475565 118.25739299999998,37.80123761047557 112.768273,41.39785761047557 C 107.012213,45.169367610475575 100.60420300000001,54.796187610475556 99.06721300000001,61.981087610475555 C 98.031083,66.82464761047555 97.535233,66.98892761047554 84.51370299999999,66.80270761047555 C 77.09925899999999,66.69666761047554 70.68340699999999,66.05949761047555 70.256269,65.38675761047554 L 70.256269,65.38675761047563" id="path2490" style="fill:#070707;stroke-width:1.92864585"/>
</svg>
