<?xml version="1.0" ?>
<svg xmlns="http://www.w3.org/2000/svg" xmlns:cc="http://creativecommons.org/ns#" xmlns:dc="http://purl.org/dc/elements/1.1/" xmlns:ev="http://www.w3.org/2001/xml-events" xmlns:inkscape="http://www.inkscape.org/namespaces/inkscape" xmlns:rdf="http://www.w3.org/1999/02/22-rdf-syntax-ns#" xmlns:sodipodi="http://sodipodi.sourceforge.net/DTD/sodipodi-0.dtd" xmlns:svg="http://www.w3.org/2000/svg" xmlns:xlink="http://www.w3.org/1999/xlink" baseProfile="full" height="576" id="svg3369" inkscape:version="0.92.3 (2405546, 2018-03-11)" sodipodi:docname="Wild Flower 10.svg" transform="scale(0.34843205574912894 0.34843205574912894) translate(-143.5 -288.0)" version="1.1" viewBox="0 0 287 576" width="287">
	<defs/>
	<path d="M 107.3050655347758,0.002104602280724066 C 104.21537553477582,-0.05739539771929003 101.86687553477582,1.1445946022807334 100.17057553477581,3.623354602280699 C 99.3676155347758,4.7967146022807015 98.88524553477582,6.122304602280678 98.91192553477582,7.074514602280715 C 98.93482553477581,7.972994602280721 100.26752553477583,11.137514602280703 102.0877455347758,14.637124602280721 C 109.44432553477581,28.779824602280712 111.8782755347758,37.99978460228073 108.6913055347758,39.64917460228071 C 105.67687553477579,41.20916460228074 101.38575553477578,37.4552846022807 95.7533055347758,28.33524460228068 C 93.5890755347758,24.831114602280707 90.8648755347758,20.72355460228067 89.70158553477582,19.205424602280686 C 82.13615553477582,9.33276460228069 70.35578553477582,2.1791546022806756 61.622245534775814,2.166214602280661 C 57.905945534775825,2.160214602280689 56.211135534775806,2.8157546022806628 54.318825534775826,4.99050460228068 C 52.842555534775826,6.687024602280701 52.67453553477581,9.327274602280681 53.59821553477583,16.29103460228066 C 54.00538553477584,19.34326460228067 54.00768553477583,20.58025460228066 53.60421553477583,21.049404602280674 C 53.213075534775825,21.50468460228069 50.98213553477582,21.76685460228066 45.67312553477582,21.9830446022807 C 34.99075553477583,22.417714602280682 28.38336553477582,23.964074602280675 25.22141553477583,26.764664602280675 C 21.982945534775823,29.633064602280683 22.56674553477582,32.84788460228066 26.72150553477583,35.03089460228068 C 28.01977553477583,35.71301460228068 32.894845534775826,37.24928460228068 37.55585553477583,38.44539460228066 C 51.21956553477584,41.95176460228066 59.43917553477583,44.99110460228064 63.18004553477583,47.921984602280645 C 65.17642553477582,49.48569460228066 64.14753553477583,49.78595460228064 57.552525534775825,49.565874602280644 C 46.44831553477583,49.19476460228066 34.15515553477583,51.29222460228067 26.573125534775826,54.85111460228063 C 18.421205534775837,58.67737460228062 13.342305534775832,64.6350546022806 13.349055534775815,70.35965460228061 C 13.349055534775815,72.3100846022806 13.630255534775827,73.51250460228061 14.314715534775829,74.51096460228064 C 16.033575534775835,77.02092460228062 15.696145534775823,77.62579460228065 10.317965534775837,81.71016460228063 C 7.587995534775828,83.78350460228063 4.7470755347758455,86.22217460228063 4.004135534775841,87.13205460228062 C 0.13731553477583702,91.86904460228061 -1.1635844652241616,97.78893460228062 1.1420955347758337,100.1664846022806 C 1.7561255347758475,100.79958460228062 3.133945534775833,101.6986346022806 4.20085553477584,102.1638846022806 L 6.138755534775854,103.0075146022806 L 13.514625534775845,101.2868846022806 C 18.975105534775835,100.01106460228058 21.891955534775846,99.5703146022806 24.74562553477584,99.58967460228058 C 29.020705534775843,99.6182746022806 31.98697553477585,100.37076460228059 31.98697553477585,101.42364460228058 C 31.98697553477585,101.80275460228057 30.78983553477586,102.88489460228058 29.324855534775864,103.82782460228057 C 20.47061553477586,109.52710460228056 10.872035534775861,120.45842460228056 5.776595534775865,130.65034460228057 C 1.7486255347758544,138.70731460228058 2.4487855347758654,143.70913460228056 8.286945534775853,148.58323460228058 C 11.25905553477584,151.0644446022806 11.588285534775864,151.81036460228057 12.604115534775858,158.41997460228058 C 13.828965534775861,166.38892460228058 16.20234553477586,171.25575460228058 19.88361553477587,173.34187460228057 C 23.653295534775864,175.47797460228057 28.296775534775875,175.30817460228056 31.65602553477588,172.91178460228056 C 34.47734553477589,170.89885460228055 36.48477553477589,167.81919460228056 42.14913553477588,156.80954460228057 C 45.21258553477587,150.85496460228057 49.22914553477587,143.80716460228058 51.07319553477588,141.15084460228056 C 57.02783553477589,132.57353460228055 68.18392553477587,122.03061460228056 77.99381553477586,115.70870460228056 C 84.43851553477587,111.55531460228056 85.80269553477585,110.90549460228056 86.55617553477587,111.63389460228055 C 86.96163553477588,112.02560460228054 85.70974553477588,114.20025460228055 81.70777553477588,120.06344460228055 C 78.74174553477589,124.40896460228055 75.34698553477587,129.95081460228056 74.16290553477587,132.37767460228056 C 66.58734553477588,147.90598460228057 62.50159553477589,169.61553460228055 64.88698553477586,181.67148460228057 C 65.71292553477586,185.84514460228058 66.43008553477587,187.28830460228056 68.73536553477585,189.43083460228058 C 70.15430553477584,190.7493746022806 70.91202553477585,191.06653460228057 73.05608553477585,191.23804460228058 C 76.14754553477586,191.4860146022806 77.46425553477586,190.9345246022806 82.40427553477583,187.31350460228057 C 84.29830553477582,185.92509460228058 86.17637553477583,184.78923460228057 86.57667553477584,184.78923460228057 C 88.30297553477585,184.78923460228057 90.01964553477585,187.04073460228057 93.51810553477584,193.89575460228056 C 98.57897553477584,203.81897460228055 102.19878553477584,207.26698460228056 107.56293553477583,207.26698460228056 C 111.49394553477582,207.26698460228056 113.56866553477583,205.74485460228055 120.51811553477584,197.76371460228057 C 121.87863553477585,196.20120460228057 123.23383553477585,195.08950460228058 123.78366553477584,195.08950460228058 C 124.96338553477584,195.08950460228058 124.96390553477583,195.5762946022806 123.78366553477584,197.5236346022806 C 122.32114553477582,199.9374446022806 114.41645553477584,238.7799026022806 112.41453553477582,253.3896236022806 C 106.71123553477581,295.0122286022806 105.50322553477581,314.92361260228057 104.95945553477581,376.30876660228057 C 104.65994553477582,410.0984976022806 104.54769553477583,414.0114726022806 103.86294553477582,414.1386076022806 C 103.30915553477583,414.2411766022806 102.25650553477583,412.5695656022806 100.03530553477582,408.05980360228057 C 92.2387155347758,392.2302206022807 83.37817553477579,380.0476426022807 70.0046455347758,366.7757696022807 C 59.61846553477581,356.4685626022807 50.284195534775805,349.6527176022807 39.40813553477581,344.43145160228073 C 34.80519553477582,342.2217541022807 34.098845534775805,342.0095753022807 32.9907555347758,342.4974435022807 C 31.48884553477579,343.1591220022807 31.3244755347758,345.0078576022807 32.59790553477579,346.8889496022807 C 33.06235553477579,347.5754816022807 36.92938553477579,351.7001736022807 41.1907855347758,356.0520506022807 C 55.25170553477581,370.4111046022807 59.97501553477581,376.0932656022807 65.97708553477581,385.8657046022807 C 70.9360555347758,393.94030060228073 70.9227155347758,394.4788526022807 65.7669055347758,393.55179160228073 C 63.23919553477579,393.0965116022807 62.637255534775804,393.1268646022807 61.62554553477581,393.7688456022807 C 60.2685155347758,394.6285526022807 59.72601553477581,396.58283660228074 60.3807055347758,398.2470526022807 C 60.62753553477579,398.8748896022807 63.05455553477579,401.5352286022807 65.7772155347758,404.1590356022807 C 68.49975553477582,406.7829566022807 72.5994755347758,410.81968560228074 74.8840255347758,413.1289726022807 C 77.16879553477581,415.4381326022807 81.3649555347758,419.0666616022807 84.21159553477581,421.1916536022807 C 87.0585255347758,423.3168226022807 91.0464555347758,426.4543866022807 93.07387553477581,428.1640746022807 C 97.6581955347758,432.0304876022807 104.24869553477582,439.6830846022807 104.8771455347758,441.8722146022807 C 105.1360055347758,442.7747646022807 105.3513355347758,447.0937646022807 105.35648553477581,451.4721046022807 C 105.36788553477582,464.53352460228075 106.72593553477581,498.39380460228074 107.74268553477582,510.9427246022807 C 108.26439553477583,517.3814546022807 108.93180553477582,526.4287646022807 109.22542553477582,531.0463646022806 C 109.83521553477583,540.6323346022807 110.65232553477581,547.6147146022806 112.38405553477581,558.0424046022806 C 113.08776553477581,562.2799146022807 113.55426553477581,566.8324646022807 113.48749553477582,568.8994446022807 C 113.37061553477581,572.6705646022807 113.96110553477583,573.9611546022807 116.24611553477583,574.9082646022807 L 116.24611553477583,574.9082646022807 C 117.85484553477583,575.5723546022807 120.03727553477582,574.9540646022807 121.48404553477583,573.4143146022807 C 122.81152553477584,572.0049846022806 122.84519553477584,571.8499046022806 122.53233553477584,568.3759046022807 C 122.35481553477585,566.4058146022807 121.58220553477584,560.7918646022806 120.81508553477583,555.8983446022806 C 119.21718553477582,545.7036746022807 118.12531553477582,535.9024246022807 117.68743553477584,527.8018246022807 C 117.52079553477584,524.7112246022807 116.96551553477583,517.1239246022807 116.45302553477585,510.94272460228063 C 114.78354553477585,490.8191546022806 114.00566553477584,462.87898460228064 113.72194553477586,412.78208660228063 C 113.57592553477586,386.60898860228065 113.60342553477587,364.0314146022806 113.78724553477586,362.6080116022806 C 114.02834553477585,360.74673360228064 114.35362553477587,359.96433460228064 114.94239553477586,359.8204756022806 C 115.39252553477586,359.71052460228066 118.37403553477584,359.99457260228064 121.57000553477586,360.4508866022806 C 134.15706553477588,362.2480226022806 145.67916553477585,363.2879006022806 150.10794553477587,363.0316826022806 C 152.52455553477586,362.89194760228065 158.09613553477584,362.5723906022806 162.4907255347759,362.3214976022806 C 174.7611455347759,361.6199616022806 177.65835553477586,360.42923860228063 181.64927553477588,354.44206560228065 C 182.6833555347759,352.8910116022806 183.98049553477586,351.6534426022806 185.2080955347759,351.0476016022806 C 186.26995553477593,350.52359760228063 190.90697553477588,349.3620816022806 195.5147855347759,348.46674760228063 C 206.5495255347759,346.3225086022806 207.4420055347759,346.0495666022806 209.31833553477588,344.2351926022806 C 211.16357553477587,342.45088470228063 211.32748553477586,341.1175632022806 210.0975755347759,337.7996670022806 C 209.5352055347759,336.28205660228065 209.42829553477588,335.4191957022806 209.76657553477588,335.0920787022806 C 210.03916553477586,334.8280717022806 212.29485553477588,334.0868476822806 214.77680553477586,333.44481368228065 C 219.85919553477584,332.12976170228063 226.9226655347759,328.9077327022806 232.24948553477589,325.47209170228064 C 236.50727553477589,322.72573260228063 248.0321655347759,312.0402686022806 252.41479553477586,306.7755916022806 C 254.13021553477586,304.7151296022806 258.37281553477584,298.9201506022806 261.84586553477584,293.89789760228064 C 265.3184955347758,288.8755806022806 268.44224553477585,284.4509126022806 268.78729553477586,284.0643536022806 C 269.78067553477587,282.9520356022806 272.41490553477587,276.0098526022806 272.41490553477587,274.4944256022806 C 272.41490553477587,272.8625636022806 270.73161553477587,270.9531816022806 269.2907955347759,270.9531816022806 C 268.0117555347759,270.9531816022806 266.9440055347759,271.65980760228064 261.5219455347759,276.0916296022806 C 247.3916755347759,287.6409896022806 225.7129355347759,303.59073060228064 216.12169553477588,309.4965226022806 C 211.71123553477588,312.2121866022806 206.70673553477587,314.5016026022806 205.1769855347759,314.5016026022806 C 203.61974553477592,314.5016026022806 202.97094553477592,313.45456660228064 202.42179553477587,310.0533466022806 C 201.89722553477588,306.8081726022806 201.1988955347759,305.1820466022806 199.91837553477586,304.2080836022806 C 197.00913553477585,301.9950596022806 193.82822553477587,303.5211486022806 184.38033553477584,311.6605796022806 C 181.37089553477585,314.2534586022806 178.70676553477585,316.3755936022806 178.46314553477583,316.3755936022806 C 177.80730553477582,316.3755936022806 177.01837553477583,314.73376860228063 177.01837553477583,313.3711836022806 C 177.01837553477583,311.3847176022806 175.59766553477584,308.57913660228064 174.30461553477585,308.00938360228065 C 171.12363553477587,306.6078586022806 168.74815553477583,308.02078360228063 161.11829553477583,315.85874660228063 C 157.29649553477583,319.7840316022806 154.79403553477584,321.9942446022806 154.17010553477581,321.9942446022806 C 153.2292355347758,321.9941296022806 153.20736553477582,321.80468660228064 153.5391255347758,316.6757366022806 C 153.9107955347758,310.9226766022806 153.6656255347758,309.9198546022806 151.58729553477582,308.6028536022806 C 149.42743553477584,307.2343666022806 146.95875553477583,308.96307460228064 135.8770655347758,319.60002760228065 C 126.80689553477579,328.3063567022806 120.86330553477579,335.04408770228065 116.44930553477577,341.62765210228065 C 115.90410553477578,342.44092030228063 115.43983553477578,342.6701648022806 114.80454553477578,342.43456350228064 C 113.96981553477578,342.1247414022806 113.93562553477578,341.52084730228063 114.24274553477578,331.93430470228066 C 114.97052553477577,309.2269046022806 117.05278553477577,284.23748060228064 120.13943553477579,261.11975260228064 C 121.9412255347758,247.62522560228064 123.3629555347758,239.46289260228062 126.89114553477579,222.34303460228062 C 129.3489255347758,210.41685460228064 131.56504553477578,200.46139460228062 131.81542553477578,200.21868460228063 C 132.1000455347758,199.94323460228063 133.72096553477576,200.49472460228063 136.13952553477577,201.68922460228063 C 140.8452555347758,204.01408460228063 143.33362553477576,204.21195460228063 146.82228553477574,202.53954460228064 C 151.21792553477576,200.43213460228066 154.69582553477574,194.30996460228064 157.91183553477572,183.01614460228063 C 158.8127355347757,179.85178460228065 159.6806855347757,177.05904460228064 159.83937553477574,176.81061460228062 C 160.37368553477575,175.97472460228062 161.56011553477572,176.34960460228064 164.50147553477575,178.28119460228064 C 166.83293553477574,179.81232460228063 167.99208553477575,180.25500460228062 170.20168553477578,180.44858460228065 C 172.81723553477576,180.67879460228065 173.07831553477575,180.60263460228066 174.8152155347758,179.12814460228066 C 178.21373553477582,176.24279460228067 179.6871955347758,171.28324460228066 180.43597553477582,160.20485460228065 C 181.1153555347758,150.15622460228064 180.56146553477583,146.14641460228066 176.8947355347758,134.58268460228064 C 176.59064553477583,133.62492460228063 176.5116055347758,132.67593460228065 176.7183555347758,132.47531460228063 C 177.7617855347758,131.46636460228063 183.5443955347758,139.86974460228063 189.3146955347758,150.78159460228062 C 198.1597755347758,167.50743460228063 200.2138155347758,174.45762460228062 201.2423555347758,191.11228460228062 C 201.7812455347758,199.83510460228064 201.9789455347758,200.40888460228064 205.1493755347758,202.50615460228062 C 209.56052553477582,205.4240946022806 214.16935553477578,201.33467460228061 218.36318553477582,190.78556460228063 C 225.02760553477583,174.02055460228064 225.91039553477583,159.45430460228062 221.06652553477585,146.18335460228064 C 220.27765553477587,144.02124460228063 219.63207553477582,142.02326460228065 219.63207553477582,141.74517460228066 C 219.63207553477582,140.37158460228065 221.76789553477585,141.53899460228067 224.48728553477582,144.39938460228066 C 230.69481553477584,150.92911460228066 234.49640553477582,156.43683460228067 239.6354355347758,166.34036460228066 C 243.48998553477583,173.76852460228065 244.53931553477582,174.95666460228065 247.23201553477583,174.95666460228065 C 248.85025553477584,174.95666460228065 249.5631855347758,174.63481460228064 251.15266553477585,173.19944460228066 C 253.62338553477582,170.96718460228067 253.96687553477585,169.58427460228066 254.32853553477582,160.43823460228066 C 254.67442553477582,151.69897460228066 253.62957553477582,144.63390460228067 250.89398553477582,137.23369460228065 C 249.0055555347758,132.12460460228064 248.81342553477583,130.93812460228065 249.88033553477584,130.93812460228065 C 251.06493553477583,130.93812460228065 256.77291553477585,136.45438460228064 261.0734255347758,141.75519460228065 C 265.4319455347758,147.12707460228066 266.6704855347758,147.93913460228066 269.4250355347758,147.23038460228065 C 270.6385455347758,146.91826460228066 271.2122555347758,146.39467460228065 271.77332553477584,145.09633460228065 C 272.82945553477583,142.65207460228066 272.3213755347758,140.03719460228064 269.77699553477584,134.84279460228066 C 264.93073553477586,124.95042460228066 258.2326955347758,115.80342460228067 249.57348553477584,107.25315460228066 C 243.86682553477584,101.61852460228067 242.79905553477585,100.12491460228065 244.93521553477586,100.76436460228066 C 251.38615553477587,102.69648460228066 266.2760755347759,112.75760460228065 274.42862553477585,120.69116460228065 C 277.29358553477584,123.47943460228066 280.17813553477583,125.89031460228065 280.83539553477584,126.04970460228066 C 283.49693553477584,126.69562460228065 286.40221553477585,124.00808460228066 286.80785553477585,120.52783460228065 C 287.09763553477586,118.04313460228065 284.9373055347759,112.32368460228065 281.00783553477584,105.18250460228066 C 273.14597553477586,90.89405460228065 263.14304553477587,80.29032460228066 250.62516553477582,72.97154460228069 C 248.8938855347758,71.95932460228067 247.4079555347758,70.7951846022807 247.32502553477582,70.38737460228072 C 247.1417655347758,69.4883146022807 246.9774055347758,69.51602460228071 261.6041855347758,67.99320460228074 C 267.77690553477584,67.35054460228076 273.57069553477584,66.52507460228077 274.4769555347758,66.15924460228075 C 276.59352553477584,65.30389460228076 277.48480553477583,63.32647460228077 277.0423555347758,60.473934602280735 C 276.6592255347758,58.00235460228072 274.4384755347758,55.27088460228072 268.9492455347758,50.51721460228072 C 266.9938855347758,48.82413460228071 265.2179955347758,47.1530946022807 265.0043855347758,46.805944602280704 C 264.7632855347758,46.4148046022807 265.2758255347758,44.88962460228072 266.3491555347758,42.78456460228068 C 267.3014655347758,40.918524602280684 268.2048155347758,38.337104602280704 268.3561755347758,37.049314602280674 C 268.72670553477576,33.913184602280694 267.3658455347758,31.956664602280682 263.4803555347758,30.033534602280668 C 261.0390055347758,28.825464602280647 259.9786855347758,28.596394602280668 256.1803055347758,28.459634602280687 C 252.1517655347758,28.314174602280673 251.2670355347758,28.453634602280715 246.7010855347758,29.930164602280684 C 243.9310755347758,30.82664460228068 237.85169553477579,33.44278460228071 233.19074553477583,35.74542460228071 C 221.3884955347758,41.57596460228069 221.05621553477584,41.6271146022807 200.01825553477585,40.86733460228072 C 188.78874553477584,40.46186460228074 187.67327553477583,40.33760460228075 187.67327553477583,39.496794602280715 C 187.67327553477583,39.18009460228069 188.5169455347758,37.02640460228071 189.54925553477585,34.70847460228072 C 192.03544553477587,29.126354602280742 192.68664553477583,26.0777846022807 192.42515553477585,21.257064602280707 C 192.25105553477584,18.053294602280687 191.96586553477584,16.889554602280725 190.92856553477583,15.178374602280712 C 188.35658553477583,10.934504602280697 184.59337553477582,8.716274602280691 179.98378553477585,8.722684602280708 C 174.69174553477586,8.72868460228068 170.39335553477582,12.26283460228069 165.05262553477587,20.987034602280687 C 163.39957553477586,23.68746460228067 161.71216553477586,26.165864602280692 161.30098553477586,26.495624602280714 C 160.25755553477586,27.333054602280697 159.49702553477584,26.633634602280722 157.04234553477585,22.570844602280715 C 155.87240553477585,20.634214602280736 153.31428553477582,17.587874602280692 150.89406553477585,15.248354602280699 C 144.37899553477587,8.949864602280684 140.43229553477585,7.56455460228068 133.55619553477584,9.159644602280707 C 130.7435255347758,9.812104602280726 129.51586553477586,9.406464602280721 123.82855553477582,5.951754602280687 C 120.20197553477583,3.7492246022806626 114.80690553477582,1.5083146022806773 110.64247553477581,0.47661460228067654 C 109.44475553477581,0.17997460228065165 108.33077553477581,0.02133460228066042 107.3010355347758,0.0030146022807002737 L 107.3050655347758,0.002104602280724066" id="path906" inkscape:connector-curvature="0" style="fill:#000000;fill-opacity:1;stroke-width:0.99999994"/>
</svg>
