<?xml version="1.0" ?>
<svg xmlns="http://www.w3.org/2000/svg" xmlns:cc="http://creativecommons.org/ns#" xmlns:dc="http://purl.org/dc/elements/1.1/" xmlns:ev="http://www.w3.org/2001/xml-events" xmlns:inkscape="http://www.inkscape.org/namespaces/inkscape" xmlns:rdf="http://www.w3.org/1999/02/22-rdf-syntax-ns#" xmlns:sodipodi="http://sodipodi.sourceforge.net/DTD/sodipodi-0.dtd" xmlns:svg="http://www.w3.org/2000/svg" xmlns:xlink="http://www.w3.org/1999/xlink" baseProfile="full" height="637" id="svg3369" inkscape:version="0.92.3 (2405546, 2018-03-11)" sodipodi:docname="Wild Flower 5.svg" transform="scale(0.40160642570281124 0.40160642570281124) translate(-124.5 -318.5)" version="1.1" viewBox="0 0 249 637" width="249">
	<defs/>
	<path d="M 128.30414612261615,0.0002113468117386219 C 125.59930612261616,-0.004788653188256831 124.69674612261616,0.0772113468117368 123.67083612261615,0.42985134681174486 C 121.47122612261614,1.1855513468117351 119.38556612261613,2.3519713468117516 118.04780612261618,3.5748213468117456 C 115.22867612261618,6.151051346811755 112.46839612261618,11.629651346811727 111.41458612261619,16.739931346811773 C 110.99393612261619,18.780951346811776 111.10513612261619,24.193271346811798 111.63361612261619,27.44225134681176 C 113.1131361226162,36.532981346811766 115.68425612261618,43.929821346811764 122.0587861226162,57.43998134681175 C 124.80237612261618,63.25465134681173 127.33132612261619,70.06178134681176 128.09713612261618,73.69312134681172 C 130.92980612261618,87.1232013468117 130.9128461226162,86.87423134681171 129.45203612261616,93.57641134681171 C 129.34194612261615,94.08636134681171 129.14145612261615,94.86790134681172 129.0083561226162,95.31298134681168 C 128.8758161226162,95.75834134681168 128.7674261226162,96.4099213468117 128.7674261226162,96.76211134681171 C 128.7674261226162,97.2237513468117 128.34677612261618,97.8716913468117 127.26229612261619,99.08062134681171 C 126.4349361226162,100.00323134681173 124.33056612261618,102.42531134681172 122.5857561226162,104.46379134681172 C 120.84070612261621,106.50228134681174 118.3569661226162,109.36875134681173 117.06626612261621,110.83394134681174 C 110.1400161226162,118.69732134681175 104.9649661226162,126.07304134681175 101.4500061226162,133.09281134681174 C 99.1188561226162,137.74808134681174 97.6987561226162,141.28028134681173 95.63493612261621,147.54991134681174 C 94.83818612261621,149.97063134681173 93.56517612261621,153.82779134681175 92.80660612261622,156.12114134681173 C 91.42751612261623,160.29139134681174 89.6359061226162,165.98564134681172 89.0156561226162,168.16656134681173 C 88.66746612261622,169.39161134681174 87.7321561226162,174.09348134681173 87.33390612261621,176.62125134681173 C 86.90821612261621,179.32148134681174 86.5436661226162,186.17519134681174 86.6855861226162,188.78192134681174 C 86.76308612261619,190.18337134681175 87.0388461226162,192.32042134681174 87.30016612261619,193.53074134681174 C 88.02873612261618,196.90267134681173 87.98532612261619,197.05155134681175 84.87095612261618,201.87025134681173 C 78.95188612261617,211.02848134681173 72.55882612261618,221.69183134681174 68.46326612261618,229.23766134681173 C 59.47441612261616,245.79845134681173 50.09952612261617,269.46404134681177 39.84699612261619,301.47778234681175 C 34.77894612261619,317.30252334681177 29.5267361226162,336.9151203468117 26.354856122616184,351.8605443468117 C 22.35532612261619,370.70654354681176 17.636436122616175,402.81789234681173 15.036786122616178,428.88207934681174 C 14.31505612261617,436.11481134681173 13.444616122616168,443.45306834681173 12.713676122616164,448.45574734681173 C 10.550166122616162,463.25554134681175 9.235996122616172,476.14547134681175 7.624946122616166,498.37529134681176 C 5.915226122616161,521.9665213468118 5.517886122616176,527.3876613468117 5.3016661226161546,529.9945013468117 C 5.175306122616149,531.5233213468117 4.754656122616154,537.4649113468117 4.367026122616153,543.1980813468117 C 3.979516122616161,548.9313013468118 3.405216122616139,556.4359713468117 3.0914961226161495,559.8759713468118 C 2.7781161226161544,563.3157913468117 2.2036461226161634,571.0817813468118 1.8156761226161393,577.1334413468118 C 1.4281661226161475,583.1851613468117 1.0097161226161404,589.7004313468117 0.8881761226161302,591.6114913468117 C 0.7646261226161357,593.5223213468117 0.6135561226161315,602.1750413468117 0.5483961226161398,610.8384213468117 C 0.48439612261614684,619.5019213468117 0.31251612261613104,628.2213113468117 0.1664961226161381,630.2141913468117 C -0.08454387738385094,633.6576113468118 -0.07499387738386076,633.8758013468117 0.3563261226161387,634.6138113468118 C 0.6056861226161345,635.0412013468117 1.1584261226161345,635.6255613468118 1.5842961226161378,635.9127713468117 L 1.5842961226161378,635.9127713468117 C 3.1757361226161436,636.9853913468118 5.480706122616141,636.3676713468118 6.3737861226161385,634.6300413468118 C 7.133096122616138,633.1550813468118 7.2263661226161275,630.5543613468118 7.275846122616144,609.6790913468118 C 7.298246122616149,599.2318513468117 7.385926122616155,590.2682213468117 7.464546122616156,589.7585013468117 C 7.544946122616153,589.2485613468118 7.720096122616155,586.9148813468117 7.853186122616165,584.5720613468118 C 7.98685612261616,582.2291813468117 8.253066122616161,577.5922813468118 8.44220612261617,574.2678113468118 C 8.63203612261617,570.9433413468117 8.940916122616159,566.4493113468118 9.130076122616174,564.2813113468118 C 9.849666122616185,556.0046613468118 10.377636122616167,549.2458613468118 10.742126122616185,543.6612413468117 C 10.950486122616184,540.4761713468117 11.52715612261619,532.3976513468117 12.024676122616171,525.7088813468117 C 12.768536122616183,515.7102113468118 13.572716122616157,504.73651134681177 14.696956122616172,489.22454134681175 C 15.511406122616165,477.9934613468117 17.34759612261618,460.85307234681176 18.742866122616164,451.46678034681173 C 19.422696122616173,446.8948053468117 20.509196122616174,438.1143193468117 21.035826122616157,432.93484134681177 C 21.29472612261617,430.38669334681174 21.616536122616168,427.26019634681177 21.74935612261615,425.9861713468117 C 21.88301612261614,424.71215834681175 22.102046122616144,422.6266563468117 22.232336122616147,421.35264234681176 C 23.264926122616146,411.36507734681174 26.86817612261615,385.1210073468117 28.828256122616153,373.3128113468117 C 33.09157612261615,347.63384434681177 39.39590612261617,322.8609213468117 48.96759612261616,294.17995734681176 C 51.59796612261616,286.29872834681174 53.73759612261617,280.09262234681177 54.55794612261616,277.9653453468118 C 55.26748612261616,276.1249943468117 60.002276122616166,267.14491134681174 62.24232612261616,263.39177134681177 C 63.37296612261616,261.49750134681176 67.84935612261617,255.85307134681173 71.02168612261616,252.32057134681173 C 74.98853612261615,247.90337134681175 84.28289612261617,238.61216134681172 87.30392612261616,236.04424134681173 C 94.67817612261615,229.77529134681174 107.00597612261618,221.47887134681173 117.78355612261618,215.53121134681174 L 119.19197612261615,214.75371134681174 L 120.98532612261613,216.06317134681174 C 123.34201612261614,217.78407134681174 124.69319612261614,218.42211134681173 127.49295612261614,219.13704134681174 C 134.05057612261612,220.81138134681174 140.94409612261614,220.33823134681174 149.09534612261615,217.65299134681175 C 152.12620612261617,216.65471134681175 156.26899612261616,214.46071134681173 159.49630612261615,212.14535134681174 L 161.22118612261613,210.90700134681174 L 162.62477612261614,212.07436134681174 C 166.66248612261614,215.43450134681174 175.07927612261614,220.25567134681174 180.12570612261612,222.09804134681175 C 183.88508612261614,223.47079134681175 186.0662761226161,223.94923134681176 188.66548612261613,223.97198134681176 C 190.87194612261612,223.98878134681175 191.0606461226161,223.95518134681177 192.12221612261612,223.29697134681177 C 193.6404161226161,222.35740134681177 194.31621612261614,221.04945134681176 194.31621612261614,218.99507134681178 C 194.31621612261614,217.65236134681177 194.19714612261612,217.2159913468118 193.26627612261615,215.30190134681177 C 192.60721612261614,213.94796134681178 192.25862612261614,212.95250134681177 192.33753612261614,212.6551813468118 C 192.40613612261615,212.3929213468118 193.09122612261615,211.4484613468118 193.85765612261616,210.5566013468118 C 194.62425612261615,209.6647613468118 195.4805961226162,208.46775134681178 195.76050612261616,207.8970413468118 C 196.3809261226162,206.6315513468118 196.39491612261617,204.8383213468118 195.79420612261617,203.5648613468118 C 195.5650661226162,203.0790713468118 194.03590612261615,201.3588413468118 192.3943661226162,199.7437113468118 L 189.41017612261618,196.8072013468118 L 189.5113261226162,195.6898113468118 C 189.5708261226162,195.0753513468118 189.8932161226162,193.58292134681182 190.2363061226162,192.3726413468118 C 190.58002612261623,191.1623113468118 190.9246261226162,189.3367313468118 191.00100612261622,188.3163413468118 C 191.1211961226162,186.7140513468118 191.06780612261622,186.2968313468118 190.61910612261624,185.25290134681183 C 189.66841612261624,183.04307134681181 187.49731612261627,181.55142134681182 183.48302612261625,180.35041134681182 C 182.55406612261623,180.07242134681184 181.59280612261625,179.64402134681183 181.34832612261624,179.39949134681183 C 180.66602612261624,178.71714134681181 180.23645612261623,176.82063134681184 179.95872612261627,173.26212134681182 C 179.57402612261626,168.33280134681183 178.84219612261626,166.65699134681182 176.56468612261625,165.49760134681182 C 175.53434612261623,164.97305134681181 175.15228612261626,164.92206134681183 171.87864612261626,164.87371134681183 C 169.91827612261625,164.84561134681184 167.96902612261624,164.70803134681182 167.54651612261625,164.56875134681184 C 166.53253612261625,164.23403134681183 165.63816612261627,163.17758134681185 164.28181612261625,160.71502134681182 C 163.08888612261626,158.5493313468118 161.79982612261625,157.06105134681184 160.78183612261626,156.67270134681183 C 159.88415612261628,156.33067134681184 158.21206612261625,156.63330134681183 157.20161612261626,157.32568134681185 C 156.06995612261625,158.09897134681185 154.04714612261625,160.59196134681184 153.01158612261628,162.48994134681186 C 152.1448461226163,164.07796134681186 149.3991161226163,170.82271134681187 148.34295612261627,173.95690134681186 C 147.41482612261626,176.71183134681186 147.06960612261628,178.57852134681187 147.06960612261628,180.94056134681188 L 147.06960612261628,183.06127134681188 L 146.30479612261627,183.51280134681187 C 145.88415612261628,183.76047134681187 144.19049612261625,184.47148134681186 142.54081612261626,185.09222134681187 C 135.06832612261627,187.90394134681188 127.93522612261626,192.38663134681187 124.74447612261628,196.27636134681188 C 122.9256861226163,198.4936113468119 119.80671612261625,204.24768134681187 118.23801612261627,208.2811313468119 L 117.59104612261626,209.94433134681188 L 114.89883612261627,211.51326134681187 C 99.60099612261627,220.4317313468119 91.88887612261627,225.6871913468119 83.36818612261627,232.99935134681186 C 79.57477612261627,236.25474134681187 70.58666612261626,245.39993134681185 65.24234612261625,251.44288134681187 L 63.91194612261626,252.94784134681186 L 65.97548612261625,247.85098134681186 C 69.12118612261625,240.08067134681184 72.38359612261624,232.85378134681184 76.43450612261626,224.68662134681185 C 81.99785612261627,213.47048134681185 89.51285612261626,199.05438134681185 89.91165612261625,198.83125134681185 C 90.11270612261626,198.72005134681186 90.55223612261625,198.72901134681186 90.92772612261626,198.85365134681186 C 91.80148612261627,199.14344134681187 95.70267612261625,199.55443134681187 97.57508612261626,199.55443134681187 C 100.72006612261626,199.55443134681187 104.89437612261625,198.50646134681188 108.32728612261624,196.85526134681186 C 111.63703612261625,195.26325134681187 117.99343612261623,190.76159134681185 122.82167612261622,186.58943134681186 C 124.2501361226162,185.35516134681185 127.81385612261624,182.38036134681187 130.7421661226162,179.97946134681186 C 143.73890612261619,169.32414134681187 152.9915361226162,160.29155134681187 159.68652612261621,151.72061134681186 C 161.6869361226162,149.15982134681187 163.6455061226162,146.18871134681186 166.55724612261622,141.29650134681185 C 167.9221861226162,139.00322134681184 169.69889612261625,136.04255134681185 170.50532612261622,134.71788134681185 C 171.31219612261623,133.39332134681186 172.59722612261623,131.25015134681186 173.3614661226162,129.95518134681186 C 174.1261061226162,128.66015134681186 174.9936261226162,127.26892134681185 175.2890361226162,126.86266134681185 L 175.8253761226162,126.12357134681184 L 178.4149161226162,126.12857134681184 C 181.0680361226162,126.13357134681183 183.14774612261618,126.39028134681183 192.24003612261623,127.84300134681183 C 196.06023612261623,128.45325134681184 198.4729361226162,128.98369134681184 201.27437612261622,129.82988134681185 C 211.20475612261623,132.82911134681186 212.17314612261623,133.07656134681184 217.14223612261623,133.88613134681185 C 219.05329612261625,134.19726134681184 221.0918361226162,134.55372134681184 221.67226612261624,134.67760134681185 C 223.5538961226162,135.07972134681185 227.94750612261623,135.22069134681186 230.4609561226162,134.96066134681186 C 234.5772961226162,134.53440134681185 240.2794061226162,132.79896134681186 242.72765612261622,131.22796134681187 C 246.42868612261623,128.85300134681188 249.06500612261624,123.63708134681187 248.62637612261625,119.55494134681186 C 248.31861612261628,116.68936134681186 246.09743612261627,110.88009134681187 243.64257612261628,106.51788134681186 L 243.10230612261626,105.55881134681186 L 243.93904612261628,104.29945134681185 C 245.13909612261625,102.49234134681183 245.83645612261626,101.03424134681183 246.57660612261628,98.79053134681186 C 247.4857961226163,96.03441134681185 247.5015861226163,92.93229134681184 246.62150612261627,89.64101134681187 C 244.92947612261628,83.30855134681184 242.17768612261625,76.55262134681186 239.8755261226163,73.08067134681187 C 238.10565612261627,70.41126134681184 233.3120061226163,65.4065113468119 231.33007612261628,64.15798134681188 L 230.2300361226163,63.46540134681186 L 230.2300361226163,60.916921346811876 C 230.2300361226163,59.51546134681189 230.07447612261632,57.36016134681188 229.8902661226163,56.12736134681188 C 228.59871612261634,47.56002134681188 226.65228612261632,41.73586134681187 223.95070612261634,38.35187134681189 C 220.96707612261633,34.6146113468119 212.83811612261633,30.6619813468119 205.56078612261632,29.41064134681187 C 203.15950612261634,28.997291346811892 198.95655612261635,28.845551346811874 198.14772612261635,29.14163134681189 C 197.75796612261632,29.28429134681187 197.55977612261637,29.096631346811876 196.89645612261637,27.93225134681188 C 195.65388612261637,25.75943134681188 193.42809612261635,23.276481346811863 191.42122612261636,21.824041346811896 C 187.79241612261637,19.197541346811875 180.51369612261635,15.922101346811871 176.37285612261638,15.052281346811924 C 170.6499161226164,13.850031346811932 165.3352061226164,15.799441346811932 161.48511612261638,20.512281346811903 L 160.16757612261637,22.125401346811884 L 159.90586612261637,21.367671346811903 C 159.3891761226164,19.876811346811905 157.75914612261636,16.879651346811897 156.7004561226164,15.471241346811894 C 152.61853612261638,10.04179134681192 141.31607612261638,2.6675813468119145 133.98180612261638,0.6487513468118777 C 131.9584261226164,0.09163134681188012 131.24174612261635,0.009471346811892545 128.30748612261635,0.0027313468118563833 L 128.30414612261615,0.0002113468117386219" id="path869" inkscape:connector-curvature="0" style="fill:#000000;fill-opacity:1;stroke-width:0.99999994"/>
</svg>
