<?xml version="1.0" ?>
<svg xmlns="http://www.w3.org/2000/svg" xmlns:cc="http://creativecommons.org/ns#" xmlns:dc="http://purl.org/dc/elements/1.1/" xmlns:ev="http://www.w3.org/2001/xml-events" xmlns:rdf="http://www.w3.org/1999/02/22-rdf-syntax-ns#" xmlns:svg="http://www.w3.org/2000/svg" xmlns:xlink="http://www.w3.org/1999/xlink" baseProfile="full" height="287" id="svg7517" transform="scale(0.34843205574912894 0.34843205574912894) translate(-248.5 -143.5)" version="1.1" viewBox="0 0 497 287" width="497">
	<defs/>
	<path d="M 150.48975587207252,286.80174 C 105.1781458720725,285.48328 61.81088587207249,271.18613 9.4438858720725,240.3023 C 4.402905872072495,237.32934 0.1653958720724944,234.71397000000002 0.027205872072499915,234.49039 C -0.31199412792750536,233.94153999999997 2.5041958720725006,232.86944 9.399505872072496,230.92246 C 20.15356587207249,227.88587 36.363785872072484,225.1087 52.418205872072505,223.55239 C 63.36371587207252,222.49133 100.57315587207249,222.65339 110.74498587207249,223.80642 C 125.15069587207249,225.43938000000003 138.6642758720725,228.03616 147.5393658720725,230.87686000000002 C 151.63675587207246,232.18833 152.4323958720725,232.66834 155.80110587207247,235.86115 C 168.36083587207247,247.76503000000002 187.06398587207246,259.71166 205.20335587207245,267.4168 C 214.79871587207248,271.49267000000003 229.92934587207247,276.20581000000004 236.30236587207247,277.10406 C 237.65084587207247,277.29412 238.75414587207246,277.65552 238.75414587207246,277.90717 C 238.75414587207246,278.15883 238.49333587207246,278.36474 238.17453587207245,278.36474 C 237.85575587207245,278.36474 232.45535587207246,279.16893999999996 226.17368587207244,280.15186 C 192.81253587207243,285.37197 170.05929587207243,287.37115 150.4897558720724,286.80174 L 150.48975587207252,286.80174 M 322.6311258720725,286.59156 C 312.4359358720725,285.96913 296.45451587207253,284.32647000000003 285.41315587207254,282.76607 C 273.34491587207253,281.06055000000003 257.33613587207253,278.26815 257.33613587207253,277.8686 C 257.33613587207253,277.68927 258.9039758720725,277.27204 260.8202458720725,276.94145000000003 C 266.5925458720725,275.94558 278.7381858720725,272.30419 286.45750587207255,269.25511000000006 C 306.88198587207256,261.18755000000004 326.5503858720725,249.10431000000005 339.46171587207255,236.69205000000005 C 344.36076587207253,231.98236000000003 345.40043587207253,231.47635000000002 355.03521587207257,229.11219000000006 C 389.3015358720726,220.70407000000006 430.5957258720726,220.05944000000005 469.2222958720726,227.32971000000003 C 481.6578658720726,229.67033000000004 496.6001258720726,233.62141000000003 496.0967158720726,234.43595000000005 C 495.75500587207256,234.98884000000004 484.96948587207254,241.43919000000005 475.9324458720726,246.49532000000005 C 435.82341587207264,268.93590000000006 399.16820587207263,281.73064000000005 363.1501658720726,285.8627 C 354.6028858720726,286.84325 333.09206587207257,287.2302 322.6311258720726,286.59156 L 322.6311258720725,286.59156 M 233.59248587207253,268.23096000000004 C 216.84650587207256,263.81285 194.44442587207254,253.38258000000002 176.81422587207254,241.79532000000006 C 140.05022587207253,217.63260000000008 117.86911587207253,187.49836000000005 110.77402587207253,152.07620000000009 C 109.39000587207254,145.16638000000006 108.30890587207251,136.6964700000001 107.37610587207253,125.45472000000007 L 107.04450587207252,121.45861000000008 L 108.50762587207252,121.71255000000008 C 109.31232587207252,121.8522200000001 112.17732587207253,122.32514000000009 114.87430587207253,122.76348000000007 C 130.07127587207253,125.23345000000006 148.45061587207255,131.89289000000008 161.01343587207253,139.48120000000006 L 165.36233587207255,142.10805000000005 L 165.37033587207253,150.24542000000002 C 165.3869358720725,167.89354000000003 168.95376587207255,182.18714 177.82732587207255,200.16559 C 189.07580587207252,222.95578 207.22566587207257,244.80428 230.62484587207257,263.7224 C 235.69932587207256,267.8251 237.3755358720726,269.32298 236.56076587207258,269.02684999999997 C 236.48976587207255,269.00104999999996 235.1542158720726,268.64289999999994 233.59280587207257,268.23096 L 233.59248587207253,268.23096000000004 M 260.05722587207254,267.97384000000005 C 287.02768587207254,247.85538000000008 308.11928587207257,222.30342000000007 319.7651058720725,195.63920000000007 C 327.06197587207254,178.93229000000008 330.63140587207255,163.80048000000005 330.6316058720725,149.57304000000005 L 330.6316958720725,142.33844000000005 L 333.2997958720725,140.59175000000005 C 345.4242958720725,132.65436000000005 367.32634587207247,124.68188000000004 383.53872587207246,122.30446000000006 C 386.37763587207246,121.88816000000008 388.7755458720725,121.62017000000009 388.8674058720725,121.70893000000007 C 389.1869758720725,122.01772000000005 387.86734587207246,136.20772000000005 386.85138587207246,143.38731000000007 C 383.51574587207244,166.9597100000001 374.74969587207244,187.17907000000008 359.6621458720725,206.1006700000001 C 354.17120587207245,212.98696000000007 342.4274758720725,224.5346600000001 334.5138858720725,230.82913000000008 C 318.4167258720725,243.6328400000001 298.96654587207246,254.79003000000006 279.14648587207245,262.58949000000007 C 272.99783587207247,265.0090600000001 260.19094587207246,269.1150200000001 258.97238587207244,269.0574000000001 C 258.7821658720724,269.0484000000001 259.2703458720724,268.5608000000001 260.0572258720724,267.9738400000001 L 260.05722587207254,267.97384000000005 M 246.71773587207252,261.20221000000004 C 228.53131587207253,241.91568000000007 215.6697858720725,213.20002000000005 212.90666587207255,185.71292000000005 C 212.22734587207253,178.95514000000003 212.50579587207255,164.44532000000004 213.45642587207254,157.06571000000008 C 215.06397587207255,144.58632000000006 218.91012587207257,129.8082500000001 223.50311587207256,118.46322000000009 C 229.04019587207256,104.78624000000008 238.11384587207255,88.89300000000009 245.89610587207255,79.24005000000008 C 247.62326587207258,77.09771000000009 247.70559587207254,77.05972000000008 248.69276587207253,77.94964000000007 C 250.4665958720725,79.54872000000006 257.0718658720725,88.93939000000006 261.50037587207254,96.15812000000008 C 284.9925458720725,134.45186000000007 291.43845587207255,176.53537000000006 279.74469587207255,215.27035000000006 C 275.22545587207253,230.24012000000005 268.5204658720726,243.60652000000005 259.3578658720726,255.91153000000008 C 255.39393587207257,261.2349000000001 251.76260587207258,265.4605800000001 251.1518958720726,265.4605800000001 C 250.92162587207258,265.4605800000001 248.9262558720726,263.5443200000001 246.71773587207258,261.2022100000001 L 246.71773587207252,261.20221000000004 M 224.30150587207254,247.72997000000004 C 197.74472587207254,224.44702000000007 179.41398587207254,192.59509000000003 175.53288587207254,162.98840000000007 C 173.17866587207254,145.02942000000007 175.91529587207253,119.53685000000007 182.24999587207253,100.41659000000007 C 184.56559587207255,93.42724000000007 189.47505587207252,82.79877000000008 190.58459587207255,82.37301000000008 C 191.09702587207255,82.17637000000008 202.18629587207255,90.47283000000007 217.39867587207254,102.43403000000006 L 220.56110587207252,104.92058000000006 L 216.85216587207253,112.28213000000005 C 209.04508587207255,127.77774000000005 204.91945587207255,143.62010000000004 203.58165587207253,163.24064000000004 C 203.13408587207255,169.80490000000003 203.13757587207255,173.44599000000005 203.59605587207255,178.29026000000005 C 205.43156587207255,197.68149000000005 212.72373587207255,219.83316000000002 225.11285587207254,243.65257000000003 C 227.51233587207253,248.2658 229.41467587207256,252.03775000000002 229.34027587207254,252.03466000000003 C 229.2658758720725,252.03166000000004 226.99842587207252,250.09448000000003 224.30144587207252,247.72997000000004 L 224.30150587207254,247.72997000000004 M 269.72411587207256,251.68202000000002 C 269.72411587207256,251.42483000000004 269.93568587207255,250.99375000000003 270.19424587207254,250.72405000000003 C 271.27033587207256,249.60168000000004 278.59200587207255,234.21682000000004 281.26121587207257,227.46931 C 288.89664587207255,208.16764999999998 292.47465587207256,189.81956000000002 292.4740558720726,169.96987000000001 C 292.4740558720726,158.67088 291.9183158720726,152.43529 290.1064558720726,143.38731 C 287.6691558720726,131.21609 284.6625358720726,122.64029 279.0246258720726,111.77852999999999 L 275.4779658720726,104.94570999999999 L 290.1740458720726,93.58366999999998 C 298.2568958720726,87.33454999999998 305.1050858720726,82.22162999999998 305.3922358720726,82.22162999999998 C 306.3049258720726,82.22162999999998 311.9388958720726,94.60630999999998 314.3150858720726,101.83594999999997 C 319.1077058720726,116.41766999999999 321.01173587207256,128.89348999999999 321.05041587207256,145.96813999999995 C 321.07901587207255,158.58439999999996 320.70720587207256,162.83210999999994 318.7012358720726,172.80877999999996 C 314.1498258720726,195.44498999999996 302.3119058720726,217.47732999999994 283.2384458720726,238.81092999999998 C 277.9179758720726,244.76184999999998 269.7241158720726,252.5657 269.7241158720726,251.68201999999997 L 269.72411587207256,251.68202000000002 M 131.59436587207256,217.71282000000002 C 104.88648587207256,209.81227 74.96783587207254,191.60677000000004 63.088455872072544,176.02698000000004 C 55.30842587207253,165.82346 46.57160587207254,147.05948 42.89457587207254,132.65672000000006 C 39.853025872072536,120.74312000000009 39.26068587207253,115.83404000000007 39.33139587207255,103.12636000000006 C 39.36619587207254,96.88075000000006 39.60388587207255,90.60933000000006 39.85969587207255,89.18987000000007 L 40.32477587207255,86.60905000000008 L 42.37121587207254,86.69625000000008 C 45.60667587207253,86.83410000000006 54.144095872072555,89.77769000000006 61.47186587207254,93.28189000000009 C 72.51296587207254,98.5618400000001 82.54478587207255,105.3000800000001 90.15882587207254,112.55059000000011 C 96.33597587207255,118.43281000000013 96.64007587207253,119.04353000000009 97.03159587207254,126.3538400000001 C 97.84926587207254,141.62058000000013 100.79868587207254,155.35691000000008 106.33451587207254,169.6802100000001 C 112.50063587207255,185.63432000000012 119.91730587207253,198.2220600000001 132.27097587207254,213.70022000000012 C 134.59992587207256,216.61820000000012 136.34198587207254,218.99329000000012 136.14222587207257,218.9781700000001 C 135.94247587207258,218.9629700000001 133.89592587207255,218.3936500000001 131.59436587207256,217.71282000000008 L 131.59436587207256,217.71282000000002 M 361.98902587207255,216.01401000000004 C 372.98095587207257,202.80587000000003 384.77703587207253,182.88606000000004 390.7651758720726,167.42033000000004 C 395.9702558720726,153.97702000000004 399.25995587207257,136.97918000000004 399.2773758720726,123.43792000000002 L 399.2823758720726,120.00585000000001 L 402.25336587207255,116.72775999999999 C 410.4715358720726,107.66015999999996 419.64819587207256,100.71838 430.8957458720725,95.06094999999999 C 439.56664587207246,90.69957 453.4077158720725,85.81671 455.17611587207244,86.49529999999999 C 456.7957358720725,87.11680999999999 457.4341558720725,107.41021 456.1377658720724,117.06284 C 452.8484658720724,141.55410999999998 442.4122258720724,166.23685999999998 429.44426587207244,180.19561999999996 C 418.97470587207243,191.46508999999998 401.30161587207243,203.00392999999997 381.43570587207245,211.54058999999995 C 376.17929587207243,213.79922999999997 361.25885587207244,219.00563999999997 360.04222587207244,219.00563999999997 C 359.7438458720724,219.00563999999997 360.6200658720724,217.65939999999995 361.98938587207243,216.01400999999998 L 361.98902587207255,216.01401000000004 M 161.82150587207252,130.12619 C 158.17182587207253,127.88846999999998 145.9069058720725,122.01094999999998 140.1664358720725,119.74878000000001 C 129.67337587207254,115.61372 113.61747587207252,111.6431 107.3897258720725,111.6431 C 102.9128258720725,111.6431 102.5184558720725,111.34653000000003 100.0927258720725,106.15559000000002 C 93.59733587207249,92.25584 88.06113587207251,69.99565000000001 86.50204587207251,51.50976000000003 C 85.71298587207251,42.15390000000002 85.79801587207253,28.024200000000036 86.64337587207253,28.024200000000036 C 87.81651587207251,28.024200000000036 97.87703587207254,32.10972000000004 103.77672587207253,34.98198000000002 C 119.53515587207254,42.65390000000002 139.17877587207255,56.73356000000001 149.96202587207256,68.08552000000003 C 155.36510587207255,73.77357000000003 155.14286587207255,73.14806000000004 154.52615587207254,80.93122000000002 C 153.31351587207251,96.23584000000002 156.27640587207253,113.82347000000004 162.34657587207255,127.35272000000003 C 163.21940587207257,129.29812000000004 163.85944587207257,130.96392000000003 163.76887587207256,131.05450000000002 C 163.67827587207256,131.1451 162.80198587207258,130.72734000000003 161.82150587207258,130.12619 L 161.82150587207252,130.12619 M 332.1801958720725,131.12314000000003 C 332.1801958720725,131.03784000000002 332.9723158720725,129.08982000000003 333.9404458720725,126.79429000000005 C 340.0049858720725,112.41472000000005 342.7059258720725,96.32584000000006 341.5964858720725,81.18930000000006 L 341.0857358720725,74.22106000000005 L 342.3592658720725,72.51439000000005 C 344.6337258720725,69.46644000000003 354.4981558720725,59.998710000000045 360.0531658720725,55.532050000000055 C 369.7428458720725,47.74081000000007 384.2996858720725,38.59123000000005 394.3782158720725,33.95735000000005 C 399.82004587207246,31.455320000000057 408.5775958720725,28.024200000000036 409.52189587207243,28.024200000000036 C 410.1650158720724,28.024200000000036 410.2266258720725,29.799060000000026 409.9563558720724,40.54123000000004 C 409.4690958720724,59.90725000000003 406.71532587207236,76.25500000000005 401.0762858720724,93.25767000000005 C 399.16619587207236,99.01691000000005 395.08919587207237,108.76176000000004 393.9218158720724,110.35823000000005 C 393.42630587207236,111.03589000000005 392.0326258720724,111.36619000000007 388.1710258720724,111.72117000000003 C 371.8413258720724,113.22228000000001 351.0863258720724,120.22330000000005 334.8900858720724,129.69375000000002 C 333.3996458720724,130.56525000000005 332.18019587207243,131.20847000000003 332.18019587207243,131.12314000000003 L 332.1801958720725,131.12314000000003 M 168.58287587207252,104.91848000000002 C 163.3686558720725,85.59431000000001 163.2936158720725,67.09595000000002 168.3672358720725,51.767830000000004 C 172.85354587207252,38.214110000000005 186.41856587207252,15.518799999999999 198.1068158720725,2.0112399999999866 L 199.8471558720725,0.0 L 204.0484558720725,5.223099999999988 C 218.5754358720725,23.283169999999984 229.3599658720725,46.21736999999999 233.5601458720725,67.98214999999999 C 234.14571587207251,71.01653999999999 234.6245358720725,74.01004 234.62418587207247,74.63438 C 234.62418587207247,75.26042999999999 233.19992587207247,77.50582 231.44934587207246,79.64079999999998 C 229.70353587207245,81.76998999999998 226.65593587207246,85.66058999999998 224.67691587207247,88.28658999999999 C 222.69792587207246,90.91257999999999 220.9653858720725,93.06111999999999 220.82685587207249,93.06111999999999 C 220.68833587207246,93.06111999999999 219.3434858720725,91.9356 217.8383358720725,90.55995999999999 C 210.26373587207252,83.63719999999998 197.1115258720725,74.07691 190.7323358720725,70.85670999999999 L 187.5965058720725,69.27375 L 186.5893458720725,70.45699000000002 C 180.6925558720725,77.38464000000002 175.3420658720725,89.05073000000002 171.6370058720725,103.05882000000003 C 170.82087587207252,106.14447000000001 170.05421587207252,108.76801 169.9333158720725,108.88890000000004 C 169.81242587207254,109.00979000000001 169.2047358720725,107.22310000000004 168.58287587207252,104.91848000000005 L 168.58287587207252,104.91848000000002 M 325.52347587207254,106.99760000000003 C 320.64273587207254,88.85138000000003 316.15751587207257,78.55566000000005 309.5919958720725,70.42711000000003 L 308.61213587207254,69.21399000000002 L 305.41713587207255,70.82683000000003 C 298.98138587207256,74.07558000000003 285.85736587207253,83.60904000000002 278.25194587207255,90.55996000000002 C 276.74679587207254,91.93560000000002 275.39563587207255,93.06112000000002 275.24938587207254,93.06112000000002 C 275.1031358720725,93.06112000000002 273.7420758720725,91.38499000000002 272.22475587207254,89.33637000000002 C 270.70746587207253,87.28776000000002 267.7756658720725,83.52834000000001 265.7096758720725,80.98211 C 263.64365587207254,78.43588 261.8298858720725,75.86085 261.67902587207254,75.25984 C 261.24866587207254,73.54509999999999 262.8106758720725,64.94461000000001 264.82094587207257,57.960409999999996 C 270.48836587207256,38.27024 282.33558587207256,16.012990000000002 294.5794958720726,2.0532699999999977 L 296.3066558720726,0.0840599999999938 L 299.5487758720726,3.9539399999999887 C 307.85203587207263,13.864980000000003 315.6942658720726,26.047709999999995 322.4433958720726,39.52025999999998 C 328.2459358720726,51.103249999999974 330.5786858720726,59.510609999999986 331.42719587207256,71.89830999999998 C 332.03729587207255,80.80553999999998 329.99854587207255,97.05434999999997 327.12036587207257,106.22335999999996 L 326.14822587207254,109.32034999999996 L 325.52347587207254,106.99760000000003" id="path8070" style="fill:#010101;stroke-width:0.51616609"/>
</svg>
