<?xml version="1.0" ?>
<svg xmlns="http://www.w3.org/2000/svg" xmlns:ev="http://www.w3.org/2001/xml-events" xmlns:inkscape="http://www.inkscape.org/namespaces/inkscape" xmlns:sodipodi="http://sodipodi.sourceforge.net/DTD/sodipodi-0.dtd" xmlns:svg="http://www.w3.org/2000/svg" xmlns:xlink="http://www.w3.org/1999/xlink" baseProfile="full" height="56" id="Layer_1" inkscape:version="1.2.2 (1:1.2.2+202212051550+b0a8486541)" sodipodi:docname="farm15.svg" transform="scale(1.7857142857142858 1.7857142857142858) translate(-34.5 -28.0)" version="1.1" viewBox="0 0 69 56" width="69" x="0px" xml:space="preserve" y="0px">
	<defs/>
	<path d="M 12.652337681970266,40.59959670676494 C 12.052337681970243,40.39959670676495 11.552337681970243,40.59959670676494 11.152337681970266,40.89959670676495 C 9.852337681970255,41.79959670676493 8.652337681970266,42.79959670676493 7.452337681970278,43.699596706764964 C 5.5523376819703,45.199596706764964 3.652337681970266,46.59959670676494 1.752337681970289,48.09959670676494 C 1.5523376819703003,48.29959670676493 1.252337681970289,48.29959670676493 0.7523376819702889,48.49959670676492 C 0.7523376819702889,47.29959670676493 0.6523376819702662,46.29959670676493 0.7523376819702889,45.19959670676491 C 0.7523376819702889,44.899596706764896 1.1523376819702662,44.49959670676492 1.3523376819703117,44.29959670676493 C 2.652337681970323,43.29959670676493 4.0523376819703,42.39959670676495 5.252337681970289,41.49959670676492 C 5.652337681970266,41.19959670676491 6.152337681970266,41.09959670676494 6.152337681970266,40.399596706764896 C 5.0523376819702435,40.29959670676487 4.252337681970289,40.99959670676492 3.4523376819702776,41.49959670676492 C 2.5523376819703003,41.99959670676492 1.752337681970289,42.399596706764896 0.7523376819702889,42.899596706764896 C 0.45233768197027757,42.19959670676491 0.6523376819702662,41.49959670676492 0.5523376819703003,40.899596706764896 C 0.5523376819703003,40.599596706764885 0.5523376819703003,40.29959670676487 0.5523376819703003,39.899596706764896 C 0.5523376819703003,39.19959670676491 0.8523376819703117,38.99959670676492 1.5523376819703003,38.899596706764896 C 3.152337681970323,38.899596706764896 4.652337681970323,38.899596706764896 6.252337681970289,38.899596706764896 C 6.652337681970266,38.899596706764896 7.0523376819703,38.899596706764896 7.452337681970278,38.899596706764896 C 7.5523376819703,38.599596706764885 7.5523376819703,38.49959670676492 7.5523376819703,38.29959670676487 C 7.5523376819703,37.19959670676485 7.5523376819703,36.099596706764885 7.5523376819703,34.99959670676486 C 7.5523376819703,34.49959670676486 7.352337681970312,33.89959670676484 7.152337681970323,33.49959670676486 C 6.652337681970323,32.39959670676484 6.152337681970323,31.39959670676484 5.652337681970323,30.299596706764873 C 5.252337681970346,30.299596706764873 4.952337681970334,30.299596706764873 4.5523376819703,30.299596706764873 C 2.652337681970323,30.499596706764862 0.652337681970323,28.599596706764885 0.8523376819703117,26.69959670676485 C 0.9523376819703344,26.19959670676485 0.8523376819703117,25.799596706764873 0.5523376819703003,25.299596706764873 C -0.24766231802971106,23.799596706764873 -0.14766231802968832,22.19959670676485 0.652337681970323,20.69959670676485 C 0.8523376819703117,20.299596706764873 0.9523376819703344,19.999596706764862 0.7523376819703458,19.599596706764828 C 0.2523376819703458,18.599596706764828 0.5523376819703572,17.599596706764828 1.0523376819703572,16.69959670676485 C 1.5523376819703572,15.69959670676485 2.3523376819703685,14.89959670676484 3.4523376819703344,14.599596706764828 C 4.252337681970346,14.39959670676484 4.752337681970346,13.999596706764805 5.052337681970357,13.099596706764828 C 6.052337681970357,10.89959670676484 8.65233768197038,10.099596706764828 10.752337681970346,11.099596706764828 C 11.752337681970346,11.599596706764828 12.452337681970334,12.39959670676484 12.852337681970369,13.39959670676484 C 13.15233768197038,14.19959670676485 13.65233768197038,14.599596706764828 14.352337681970369,14.89959670676484 C 15.752337681970346,15.499596706764862 16.552337681970357,16.599596706764828 16.85233768197037,18.099596706764828 C 17.052337681970357,18.999596706764805 16.85233768197037,19.799596706764817 16.45233768197039,20.499596706764805 C 15.952337681970391,21.399596706764783 16.252337681970403,22.399596706764783 16.252337681970403,23.399596706764783 C 16.65233768197038,22.79959670676476 17.15233768197038,22.199596706764794 17.552337681970414,21.59959670676477 C 19.45233768197039,18.899596706764783 21.45233768197039,16.29959670676476 23.352337681970425,13.599596706764771 C 23.852337681970425,12.999596706764748 24.352337681970425,12.79959670676476 25.052337681970414,12.79959670676476 C 29.252337681970403,12.79959670676476 33.45233768197039,12.79959670676476 37.7523376819704,12.79959670676476 C 41.352337681970425,12.79959670676476 44.95233768197039,12.79959670676476 48.45233768197039,12.79959670676476 C 49.45233768197039,12.79959670676476 50.15233768197038,13.099596706764771 50.7523376819704,13.999596706764748 C 51.45233768197039,14.999596706764748 52.052337681970414,15.999596706764748 52.7523376819704,16.99959670676475 C 54.45233768197039,19.399596706764726 56.2523376819704,21.79959670676476 57.95233768197039,24.199596706764737 C 58.35233768197037,24.699596706764737 58.65233768197038,25.199596706764737 59.052337681970414,25.899596706764726 C 58.552337681970414,25.99959670676475 58.2523376819704,25.99959670676475 57.852337681970425,25.99959670676475 C 50.2523376819704,25.99959670676475 42.65233768197044,25.99959670676475 35.15233768197044,25.99959670676475 C 34.852337681970425,25.99959670676475 34.65233768197044,25.99959670676475 34.352337681970425,25.99959670676475 C 33.7523376819704,25.99959670676475 33.2523376819704,25.699596706764737 32.852337681970425,25.199596706764737 C 30.852337681970425,22.399596706764726 28.952337681970448,19.599596706764714 26.952337681970448,16.79959670676476 C 26.352337681970425,15.999596706764748 25.852337681970425,15.199596706764737 25.352337681970425,14.399596706764783 C 25.052337681970414,13.999596706764805 24.752337681970403,13.999596706764805 24.452337681970448,14.399596706764783 C 22.55233768197047,17.09959670676477 20.55233768197047,19.699596706764794 18.652337681970437,22.399596706764783 C 17.852337681970425,23.499596706764805 17.052337681970414,24.499596706764805 16.352337681970425,25.59959670676477 C 16.052337681970414,26.09959670676477 15.752337681970403,26.59959670676477 15.652337681970437,27.09959670676477 C 15.352337681970425,28.09959670676477 14.75233768197046,28.79959670676476 13.852337681970425,29.29959670676476 C 13.252337681970403,29.59959670676477 12.752337681970403,29.899596706764783 12.452337681970448,30.59959670676477 C 12.352337681970425,30.899596706764783 12.05233768197047,31.09959670676477 11.852337681970425,31.29959670676476 C 11.452337681970448,31.699596706764737 11.152337681970437,32.09959670676477 10.752337681970403,32.49959670676475 C 9.852337681970425,33.59959670676477 9.452337681970391,34.899596706764726 9.752337681970403,36.29959670676476 C 9.852337681970425,37.09959670676477 9.852337681970425,37.89959670676478 9.952337681970391,38.79959670676476 C 12.052337681970414,38.89959670676478 14.052337681970414,38.89959670676478 16.15233768197038,38.79959670676476 C 16.252337681970403,38.39959670676478 16.252337681970403,37.99959670676475 16.252337681970403,37.59959670676477 C 16.252337681970403,34.59959670676477 16.15233768197038,31.49959670676475 16.252337681970403,28.49959670676475 C 16.252337681970403,27.79959670676476 16.45233768197039,26.99959670676475 16.552337681970414,26.199596706764737 C 21.652337681970437,26.199596706764737 26.752337681970403,26.199596706764737 31.752337681970403,26.199596706764737 C 31.95233768197039,26.199596706764737 32.052337681970414,26.29959670676476 32.352337681970425,26.49959670676475 C 32.052337681970414,26.699596706764737 31.852337681970425,26.79959670676476 31.652337681970437,26.79959670676476 C 30.952337681970448,26.79959670676476 30.25233768197046,26.79959670676476 29.552337681970414,26.79959670676476 C 26.052337681970414,26.79959670676476 22.45233768197039,26.79959670676476 18.95233768197039,26.79959670676476 C 17.752337681970403,26.79959670676476 17.552337681970414,26.99959670676475 17.552337681970414,28.199596706764737 C 17.552337681970414,31.199596706764737 17.552337681970414,34.29959670676476 17.552337681970414,37.29959670676476 C 17.552337681970414,37.79959670676476 17.652337681970437,38.29959670676476 17.752337681970403,38.69959670676474 C 19.15233768197038,38.69959670676474 20.45233768197039,38.69959670676474 21.852337681970425,38.69959670676474 C 21.852337681970425,38.29959670676476 21.952337681970448,37.899596706764726 21.952337681970448,37.49959670676475 C 21.952337681970448,35.49959670676475 21.952337681970448,33.59959670676477 21.952337681970448,31.59959670676477 C 21.952337681970448,30.59959670676477 22.25233768197046,30.399596706764783 23.25233768197046,30.399596706764783 C 23.75233768197046,30.399596706764783 24.152337681970437,30.399596706764783 24.652337681970437,30.399596706764783 C 25.75233768197046,30.399596706764783 25.952337681970448,30.499596706764805 25.952337681970448,31.59959670676477 C 25.952337681970448,33.699596706764794 25.952337681970448,35.699596706764794 25.952337681970448,37.79959670676476 C 25.952337681970448,37.99959670676475 25.952337681970448,38.29959670676476 25.952337681970448,38.49959670676475 C 26.25233768197046,38.69959670676474 26.652337681970437,38.79959670676476 26.852337681970425,38.399596706764726 C 27.352337681970425,37.49959670676475 27.852337681970425,36.49959670676475 28.352337681970425,35.49959670676475 C 29.052337681970414,35.79959670676476 29.252337681970403,36.59959670676477 29.452337681970448,37.19959670676474 C 29.852337681970425,38.49959670676475 30.652337681970437,38.899596706764726 31.852337681970425,38.69959670676474 C 32.45233768197045,38.599596706764714 33.15233768197044,38.69959670676474 33.852337681970425,38.69959670676474 C 33.852337681970425,38.19959670676474 33.95233768197045,37.79959670676476 33.95233768197045,37.399596706764726 C 33.95233768197045,34.49959670676475 33.95233768197045,31.599596706764714 33.95233768197045,28.699596706764737 C 33.95233768197045,27.49959670676475 34.05233768197047,27.49959670676475 35.15233768197044,27.49959670676475 C 42.052337681970414,27.49959670676475 49.052337681970414,27.49959670676475 55.95233768197045,27.49959670676475 C 57.15233768197044,27.49959670676475 57.15233768197044,27.59959670676477 57.15233768197044,28.79959670676476 C 57.15233768197044,31.699596706764737 57.15233768197044,34.49959670676475 57.15233768197044,37.39959670676478 C 57.15233768197044,37.79959670676476 57.15233768197044,38.199596706764794 57.15233768197044,38.59959670676477 C 57.552337681970414,38.59959670676477 57.852337681970425,38.59959670676477 58.25233768197046,38.699596706764794 C 58.25233768197046,38.199596706764794 58.35233768197048,37.699596706764794 58.35233768197048,37.29959670676482 C 58.35233768197048,34.499596706764805 58.35233768197048,31.799596706764817 58.35233768197048,28.999596706764805 C 58.35233768197048,28.799596706764817 58.35233768197048,28.499596706764805 58.35233768197048,28.299596706764817 C 58.452337681970505,27.89959670676484 58.652337681970494,27.599596706764828 59.152337681970494,27.599596706764828 C 59.452337681970505,27.599596706764828 59.752337681970516,27.599596706764828 59.952337681970505,27.39959670676484 C 61.05233768197053,26.799596706764817 61.152337681970494,26.19959670676485 60.35233768197048,25.19959670676485 C 59.35233768197048,23.69959670676485 58.25233768197046,22.299596706764873 57.35233768197048,20.69959670676485 C 57.152337681970494,20.39959670676484 57.152337681970494,19.999596706764862 57.152337681970494,19.599596706764828 C 57.152337681970494,15.999596706764805 57.152337681970494,12.39959670676484 57.152337681970494,8.89959670676484 C 57.152337681970494,8.499596706764862 57.152337681970494,8.099596706764828 57.05233768197047,7.499596706764862 C 56.55233768197047,7.899596706764839 56.652337681970494,8.299596706764873 56.652337681970494,8.69959670676485 C 56.652337681970494,11.999596706764862 56.652337681970494,15.299596706764873 56.652337681970494,18.599596706764828 C 56.652337681970494,18.69959670676485 56.652337681970494,18.89959670676484 56.652337681970494,18.999596706764805 C 55.652337681970494,19.099596706764828 55.752337681970516,18.199596706764794 55.55233768197047,17.699596706764794 C 55.45233768197045,17.499596706764805 55.45233768197045,17.199596706764794 55.45233768197045,16.999596706764805 C 55.45233768197045,13.599596706764828 55.45233768197045,10.199596706764794 55.45233768197045,6.799596706764817 C 55.45233768197045,6.499596706764805 55.45233768197045,6.199596706764794 55.55233768197047,5.899596706764839 C 56.35233768197048,5.599596706764828 65.1523376819705,5.599596706764828 66.55233768197047,5.799596706764817 C 66.55233768197047,6.099596706764828 66.6523376819705,6.499596706764805 66.6523376819705,6.899596706764839 C 66.6523376819705,14.299596706764817 66.6523376819705,21.599596706764828 66.6523376819705,28.999596706764862 C 66.6523376819705,31.89959670676484 66.6523376819705,34.69959670676485 66.6523376819705,37.599596706764885 C 66.6523376819705,37.99959670676486 66.6523376819705,38.29959670676487 66.75233768197052,38.69959670676491 C 67.05233768197053,38.69959670676491 67.35233768197054,38.79959670676493 67.6523376819705,38.79959670676493 C 68.55233768197047,38.89959670676495 68.85233768197048,39.09959670676494 68.85233768197048,39.99959670676492 C 68.85233768197048,41.29959670676493 68.85233768197048,42.59959670676494 68.85233768197048,43.899596706764896 C 68.4523376819705,44.19959670676491 68.25233768197046,44.099596706764885 67.9523376819705,43.899596706764896 C 66.25233768197052,42.79959670676487 64.4523376819705,41.69959670676491 62.752337681970516,40.69959670676491 C 62.252337681970516,40.399596706764896 61.752337681970516,40.099596706764885 60.952337681970505,40.29959670676493 C 61.252337681970516,40.59959670676494 61.452337681970505,40.79959670676493 61.752337681970516,40.89959670676495 C 63.952337681970505,42.499596706764976 66.05233768197053,44.09959670676494 68.25233768197052,45.59959670676494 C 68.6523376819705,45.89959670676495 68.9523376819705,46.29959670676493 68.9523376819705,46.79959670676493 C 68.9523376819705,48.09959670676494 68.9523376819705,49.39959670676495 68.9523376819705,50.79959670676493 C 68.6523376819705,50.69959670676491 68.35233768197048,50.79959670676493 68.1523376819705,50.59959670676494 C 65.6523376819705,48.79959670676493 63.05233768197047,46.89959670676495 60.55233768197047,45.09959670676494 C 58.55233768197047,43.59959670676494 56.45233768197045,42.199596706764964 54.45233768197045,40.79959670676493 C 53.95233768197045,40.49959670676492 53.45233768197045,40.09959670676494 52.65233768197044,40.09959670676494 C 52.75233768197046,40.39959670676495 52.852337681970425,40.59959670676494 52.95233768197045,40.79959670676493 C 54.95233768197045,42.49959670676492 56.95233768197045,44.19959670676491 58.852337681970425,45.89959670676495 C 61.65233768197044,48.29959670676493 64.55233768197041,50.79959670676493 67.35233768197043,53.199596706764964 C 67.7523376819704,53.499596706764976 68.15233768197044,53.89959670676495 68.55233768197041,54.199596706764964 C 68.85233768197043,54.499596706764976 69.05233768197041,54.79959670676499 68.95233768197039,55.199596706764964 C 68.7523376819704,55.59959670676494 68.45233768197039,55.59959670676494 68.05233768197041,55.59959670676494 C 66.65233768197044,55.59959670676494 65.35233768197043,55.59959670676494 63.95233768197039,55.59959670676494 C 63.35233768197037,55.59959670676494 62.85233768197037,55.39959670676495 62.45233768197039,54.99959670676492 C 59.15233768197038,51.79959670676493 55.7523376819704,48.59959670676494 52.45233768197039,45.399596706764896 C 50.85233768197037,43.899596706764896 49.2523376819704,42.29959670676487 47.65233768197038,40.79959670676487 C 47.2523376819704,40.399596706764896 46.7523376819704,40.19959670676485 45.95233768197039,40.099596706764885 C 46.052337681970414,40.399596706764896 46.052337681970414,40.69959670676491 46.15233768197038,40.79959670676487 C 47.95233768197039,42.99959670676486 49.65233768197038,45.19959670676485 51.45233768197039,47.399596706764896 C 53.45233768197039,49.79959670676487 55.45233768197039,52.29959670676487 57.35233768197037,54.69959670676491 C 57.55233768197036,54.899596706764896 57.65233768197038,55.099596706764885 57.85233768197037,55.49959670676492 C 57.45233768197039,55.49959670676492 57.15233768197038,55.59959670676494 56.85233768197037,55.59959670676494 C 55.35233768197037,55.59959670676494 53.95233768197039,55.59959670676494 52.45233768197039,55.59959670676494 C 51.45233768197039,55.59959670676494 50.7523376819704,55.29959670676493 50.2523376819704,54.49959670676492 C 49.552337681970414,53.399596706764896 48.7523376819704,52.29959670676493 48.052337681970414,51.09959670676494 C 46.15233768197044,48.09959670676494 44.15233768197044,45.09959670676494 42.2523376819704,42.09959670676494 C 41.95233768197039,41.59959670676494 41.552337681970414,41.09959670676494 41.15233768197038,40.59959670676494 C 40.7523376819704,40.09959670676494 40.35233768197037,39.89959670676495 39.65233768197038,40.199596706764964 C 41.7523376819704,45.29959670676499 43.7523376819704,50.29959670676499 45.95233768197039,55.39959670676495 C 45.552337681970414,55.39959670676495 45.2523376819704,55.499596706764976 44.95233768197039,55.499596706764976 C 43.45233768197039,55.499596706764976 42.052337681970414,55.499596706764976 40.552337681970414,55.499596706764976 C 39.552337681970414,55.499596706764976 39.15233768197044,55.29959670676499 38.95233768197039,54.29959670676499 C 38.552337681970414,53.099596706765 38.35233768197037,51.79959670676499 37.95233768197039,50.599596706765 C 37.45233768197039,48.69959670676502 36.85233768197037,46.89959670676501 36.35233768197037,45.099596706765 C 35.95233768197039,43.79959670676499 35.55233768197036,42.39959670676501 35.252337681970346,41.099596706765 C 35.15233768197032,40.69959670676502 34.952337681970334,40.39959670676501 34.65233768197032,40.19959670676502 C 34.15233768197032,39.89959670676501 33.5523376819703,40.19959670676502 33.5523376819703,40.799596706765044 C 33.5523376819703,41.19959670676502 33.5523376819703,41.69959670676502 33.65233768197032,42.099596706765055 C 33.752337681970346,43.799596706765044 33.85233768197031,45.49959670676503 33.952337681970334,47.099596706765055 C 34.05233768197036,49.49959670676503 34.15233768197032,51.89959670676507 34.35233768197031,54.299596706765044 C 34.452337681970334,55.19959670676502 34.15233768197032,55.69959670676502 33.0523376819703,55.599596706765055 C 32.35233768197031,55.49959670676503 31.652337681970323,55.599596706765055 31.0523376819703,55.599596706765055 C 30.0523376819703,55.599596706765055 29.952337681970278,55.49959670676503 29.952337681970278,54.49959670676503 C 29.952337681970278,51.69959670676502 29.952337681970278,48.89959670676501 29.952337681970278,46.099596706765055 C 29.952337681970278,44.39959670676507 29.952337681970278,42.69959670676508 29.952337681970278,40.89959670676507 C 29.952337681970278,40.49959670676509 29.952337681970278,40.19959670676508 29.452337681970278,40.099596706765055 C 28.952337681970278,39.99959670676503 28.652337681970266,40.299596706765044 28.5523376819703,40.69959670676508 C 28.25233768197029,41.7995967067651 27.952337681970278,42.89959670676507 27.652337681970323,43.99959670676509 C 27.35233768197031,45.39959670676507 27.0523376819703,46.7995967067651 26.652337681970323,48.09959670676511 C 26.152337681970323,50.2995967067651 25.5523376819703,52.49959670676509 25.0523376819703,54.59959670676511 C 24.85233768197031,55.49959670676509 24.75233768197029,55.49959670676509 23.85233768197031,55.49959670676509 C 22.452337681970334,55.49959670676509 21.152337681970323,55.49959670676509 19.652337681970323,55.49959670676509 C 19.652337681970323,54.99959670676509 19.652337681970323,54.49959670676509 19.752337681970346,54.09959670676511 C 20.052337681970357,52.99959670676509 20.452337681970334,51.99959670676509 20.752337681970346,50.99959670676509 C 21.452337681970334,48.7995967067651 22.152337681970323,46.49959670676509 22.85233768197037,44.2995967067651 C 23.252337681970346,43.19959670676508 23.65233768197038,41.99959670676509 23.95233768197039,40.899596706765124 C 24.052337681970414,40.699596706765135 23.95233768197039,40.399596706765124 23.85233768197037,40.199596706765135 C 23.752337681970346,40.09959670676511 23.35233768197037,39.999596706765146 23.15233768197038,40.09959670676511 C 22.85233768197037,40.2995967067651 22.552337681970357,40.49959670676509 22.35233768197037,40.7995967067651 C 20.35233768197037,44.399596706765124 18.45233768197039,47.99959670676509 16.45233768197039,51.59959670676511 C 15.852337681970369,52.699596706765135 15.252337681970403,53.899596706765124 14.552337681970414,54.99959670676509 C 14.352337681970425,55.2995967067651 14.052337681970414,55.49959670676509 13.752337681970403,55.49959670676509 C 12.052337681970414,55.49959670676509 10.352337681970425,55.49959670676509 8.752337681970403,55.49959670676509 C 8.65233768197038,55.49959670676509 8.65233768197038,55.39959670676507 8.552337681970414,55.2995967067651 C 8.752337681970403,54.99959670676509 8.952337681970391,54.59959670676511 9.152337681970437,54.19959670676508 C 11.652337681970437,50.49959670676509 14.25233768197046,46.69959670676508 16.75233768197046,42.99959670676509 C 17.25233768197046,42.2995967067651 17.75233768197046,41.49959670676509 18.152337681970437,40.7995967067651 C 18.25233768197046,40.59959670676511 18.25233768197046,40.399596706765124 18.25233768197046,40.19959670676508 C 18.05233768197047,40.19959670676508 17.75233768197046,39.99959670676509 17.55233768197047,40.099596706765055 C 17.152337681970494,40.299596706765044 16.852337681970482,40.49959670676503 16.55233768197047,40.799596706765044 C 13.852337681970482,43.799596706765044 11.152337681970494,46.799596706765044 8.452337681970448,49.69959670676502 C 7.052337681970471,51.19959670676502 5.652337681970437,52.799596706765044 4.2523376819704595,54.299596706765044 C 3.552337681970471,55.099596706765055 2.6523376819704367,55.49959670676503 1.6523376819704367,55.299596706765044 C 1.452337681970448,55.299596706765044 1.052337681970414,55.099596706765055 1.052337681970414,54.89959670676507 C 0.9523376819703913,53.69959670676508 0.6523376819704367,52.39959670676507 1.552337681970414,51.299596706765044 C 1.9523376819703913,50.799596706765044 2.4523376819703913,50.39959670676507 2.9523376819703913,49.99959670676503 C 6.252337681970403,46.799596706765044 9.552337681970414,43.599596706765055 12.852337681970369,40.39959670676501 C 12.65233768197038,40.89959670676501 12.65233768197038,40.79959670676499 12.65233768197038,40.599596706765 L 12.652337681970266,40.59959670676494 M 48.45233768197028,14.29959670676493 C 48.45233768197028,14.199596706764908 48.45233768197028,14.099596706764942 48.45233768197028,14.099596706764942 C 47.75233768197029,13.79959670676493 31.852337681970255,13.699596706764964 28.25233768197029,13.899596706764953 C 28.0523376819703,13.899596706764953 27.85233768197031,13.999596706764976 27.452337681970278,14.099596706764942 C 28.352337681970255,14.499596706764919 38.5523376819703,14.699596706764964 47.5523376819703,14.399596706764953 C 47.95233768197028,14.399596706764953 48.15233768197032,14.29959670676493 48.45233768197028,14.29959670676493 M 29.152337681970266,16.199596706764908 C 29.352337681970255,16.49959670676492 29.452337681970278,16.79959670676493 29.652337681970266,16.79959670676493 C 29.852337681970255,16.899596706764953 30.052337681970243,16.899596706764953 30.25233768197029,16.899596706764953 C 34.85233768197031,16.899596706764953 39.45233768197028,16.899596706764953 43.95233768197028,16.899596706764953 C 44.0523376819703,16.899596706764953 44.25233768197029,16.899596706764953 44.352337681970255,16.899596706764953 C 44.75233768197023,16.79959670676493 44.95233768197028,16.59959670676494 44.75233768197023,16.199596706764964 C 39.65233768197021,16.199596706764964 34.45233768197022,16.199596706764964 29.15233768197021,16.199596706764964 L 29.152337681970266,16.199596706764908 M 47.25233768197029,18.399596706764953 C 46.95233768197028,18.399596706764953 46.85233768197031,18.29959670676493 46.652337681970266,18.29959670676493 C 41.55233768197024,18.29959670676493 36.352337681970255,18.29959670676493 31.25233768197029,18.399596706764953 C 31.25233768197029,18.399596706764953 31.152337681970266,18.399596706764953 31.152337681970266,18.499596706764976 C 31.152337681970266,18.499596706764976 31.152337681970266,18.599596706765 31.152337681970266,18.699596706764964 C 31.352337681970255,19.199596706764964 31.75233768197029,18.999596706764976 32.152337681970266,18.999596706764976 C 35.852337681970255,18.999596706764976 39.55233768197024,18.999596706764976 43.152337681970266,18.999596706764976 C 44.25233768197029,18.999596706764976 45.25233768197029,18.999596706764976 46.352337681970255,18.999596706764976 C 46.652337681970266,18.899596706764953 47.05233768197024,18.999596706764976 47.25233768197023,18.399596706764953 L 47.25233768197029,18.399596706764953 M 58.75233768197029,18.59959670676494 C 58.85233768197031,18.59959670676494 58.95233768197028,18.59959670676494 59.0523376819703,18.59959670676494 C 59.15233768197032,18.399596706764953 59.25233768197029,18.09959670676494 59.25233768197029,17.899596706764953 C 59.25233768197029,14.79959670676493 59.25233768197029,11.599596706764942 59.25233768197029,8.499596706764976 C 59.25233768197029,8.299596706764987 59.152337681970266,7.999596706764976 59.0523376819703,7.799596706764987 C 58.95233768197028,7.799596706764987 58.85233768197031,7.799596706764987 58.75233768197029,7.799596706764987 C 58.652337681970266,8.099596706764999 58.5523376819703,8.39959670676501 58.5523376819703,8.599596706764999 C 58.5523376819703,9.39959670676501 58.65233768197032,10.199596706765021 58.65233768197032,11.099596706764999 C 58.65233768197032,13.299596706764987 58.5523376819703,15.499596706764976 58.5523376819703,17.69959670676502 C 58.5523376819703,17.999596706765033 58.65233768197032,18.299596706765044 58.75233768197029,18.599596706765 L 58.75233768197029,18.59959670676494 M 60.35233768197031,7.699596706764964 C 60.25233768197029,7.999596706764976 60.15233768197032,8.199596706764964 60.15233768197032,8.499596706764976 C 60.15233768197032,10.799596706764987 60.15233768197032,13.099596706764999 60.15233768197032,15.399596706764953 C 60.15233768197032,15.599596706764942 60.252337681970346,15.79959670676493 60.35233768197031,16.09959670676494 C 60.85233768197031,15.999596706764919 61.0523376819703,15.699596706764964 61.0523376819703,15.29959670676493 C 61.0523376819703,12.999596706764919 61.0523376819703,10.79959670676493 61.0523376819703,8.499596706764919 C 60.95233768197028,8.099596706764942 60.85233768197031,7.79959670676493 60.35233768197031,7.699596706764908 L 60.35233768197031,7.699596706764964 M 44.952337681970334,31.799596706764987 C 44.952337681970334,31.799596706764987 44.952337681970334,31.799596706764987 44.952337681970334,31.799596706764987 C 44.952337681970334,32.099596706765 44.952337681970334,32.39959670676501 44.952337681970334,32.79959670676499 C 44.952337681970334,33.29959670676499 45.252337681970346,33.599596706765 45.752337681970346,33.599596706765 C 46.35233768197037,33.599596706765 46.55233768197036,33.499596706764976 46.55233768197036,32.89959670676501 C 46.55233768197036,32.29959670676499 46.55233768197036,31.599596706765 46.55233768197036,30.999596706765033 C 46.55233768197036,30.599596706765055 46.15233768197038,30.19959670676502 45.65233768197038,30.299596706765044 C 45.2523376819704,30.399596706765067 44.85233768197037,30.499596706765033 44.85233768197037,30.999596706765033 C 44.95233768197039,31.099596706765055 44.95233768197039,31.499596706765033 44.95233768197039,31.799596706765044 L 44.952337681970334,31.799596706764987 M 52.35233768197031,31.699596706764964 C 52.35233768197031,31.699596706764964 52.35233768197031,31.699596706764964 52.35233768197031,31.699596706764964 C 52.35233768197031,31.999596706764976 52.25233768197029,32.29959670676499 52.35233768197031,32.699596706764964 C 52.35233768197031,33.09959670676494 52.452337681970334,33.499596706764976 52.952337681970334,33.499596706764976 C 53.452337681970334,33.499596706764976 53.65233768197032,33.199596706764964 53.752337681970346,32.79959670676499 C 53.85233768197037,32.099596706765 53.752337681970346,31.499596706764976 53.752337681970346,30.799596706764987 C 53.752337681970346,30.39959670676501 53.35233768197037,30.199596706764964 53.05233768197036,30.199596706764964 C 52.65233768197038,30.199596706764964 52.35233768197037,30.399596706764953 52.35233768197037,30.899596706764953 C 52.35233768197037,31.09959670676494 52.35233768197037,31.399596706764953 52.35233768197037,31.699596706764964 L 52.35233768197031,31.699596706764964 M 39.0523376819703,33.499596706764976 C 39.35233768197031,32.499596706764976 39.25233768197029,31.499596706764976 39.15233768197032,30.599596706765 C 39.15233768197032,30.19959670676502 38.752337681970346,30.099596706765 38.452337681970334,30.099596706765 C 38.15233768197032,30.099596706765 37.752337681970346,30.299596706764987 37.85233768197031,30.69959670676502 C 37.85233768197031,31.499596706765033 37.952337681970334,32.39959670676501 37.952337681970334,33.19959670676502 C 37.952337681970334,33.299596706765044 38.05233768197036,33.39959670676501 38.15233768197032,33.49959670676503 C 38.35233768197031,33.49959670676503 38.65233768197032,33.49959670676503 39.0523376819703,33.49959670676503 L 39.0523376819703,33.499596706764976 M 49.75233768197029,20.699596706764964 C 48.652337681970266,20.399596706764953 47.652337681970266,20.499596706764976 46.5523376819703,20.499596706764976 C 43.95233768197028,20.499596706764976 43.95233768197028,20.499596706764976 43.45233768197028,20.899596706764953 C 44.25233768197029,20.999596706764976 48.852337681970255,20.999596706764976 49.75233768197029,20.699596706764964 M 9.852337681970312,20.499596706764976 C 8.352337681970312,19.099596706765 6.152337681970323,19.399596706764953 5.752337681970289,20.799596706764987 C 6.352337681970312,20.599596706765 7.0523376819703,20.199596706764964 7.752337681970289,20.199596706764964 C 8.452337681970278,20.199596706764964 9.152337681970266,20.399596706764953 9.852337681970312,20.499596706764976 M 2.3523376819703117,20.899596706764953 C 1.152337681970323,21.59959670676494 0.9523376819703344,22.699596706764964 1.152337681970323,23.899596706764953 C 1.152337681970323,24.199596706764964 1.4523376819703344,24.499596706764976 1.5523376819703003,24.699596706764964 C 1.652337681970323,24.999596706764976 1.8523376819703117,25.299596706764987 2.152337681970323,25.199596706764964 C 1.9523376819703344,24.399596706764953 1.5523376819703003,23.699596706764964 1.5523376819703003,22.899596706764953 C 1.652337681970323,22.29959670676493 2.152337681970323,21.59959670676494 2.3523376819703117,20.899596706764953 M 2.5523376819703003,16.999596706764976 C 2.8523376819703117,16.699596706764964 3.0523376819703003,16.499596706764976 3.3523376819703117,16.299596706764987 C 4.252337681970289,15.699596706764964 5.152337681970323,15.199596706764964 6.152337681970323,15.999596706764976 C 6.252337681970346,16.099596706765 6.5523376819703,15.999596706764976 6.752337681970346,15.899596706764953 C 5.8523376819703685,15.099596706764942 4.552337681970357,14.899596706764953 3.4523376819703344,15.499596706764976 C 2.9523376819703344,15.899596706764953 2.3523376819703117,16.099596706765 2.552337681970357,16.999596706764976 L 2.5523376819703003,16.999596706764976 M 9.752337681970289,32.29959670676499 C 10.452337681970278,31.799596706764987 10.752337681970289,30.999596706764976 10.652337681970266,30.099596706765 C 10.352337681970255,30.19959670676502 9.952337681970278,30.299596706764987 9.752337681970289,30.39959670676501 C 9.752337681970289,31.099596706765 9.752337681970289,31.69959670676502 9.752337681970289,32.29959670676499 M 7.0523376819703,30.499596706764976 C 6.752337681970289,31.199596706764964 7.152337681970323,31.399596706764953 7.652337681970323,31.699596706764964 C 7.852337681970312,31.09959670676494 7.752337681970346,30.699596706764964 7.0523376819703,30.499596706764976 M 12.252337681970289,30.399596706764953 C 11.352337681970312,30.29959670676493 11.252337681970289,30.399596706764953 11.652337681970266,31.29959670676493 C 11.852337681970255,30.99959670676492 12.052337681970243,30.699596706764908 12.252337681970289,30.399596706764953 M 61.152337681970266,5.29959670676493 C 59.75233768197029,5.29959670676493 58.25233768197029,5.29959670676493 56.852337681970255,5.29959670676493 C 55.75233768197023,5.29959670676493 55.45233768197028,4.899596706764953 55.75233768197023,3.7995967067649303 C 56.15233768197021,2.499596706764919 56.75233768197023,1.399596706764953 58.15233768197021,0.6995967067649076 C 60.3523376819702,-0.40040329323511514 63.55233768197019,-0.3004032932350924 65.45233768197022,1.6995967067649076 C 66.25233768197023,2.499596706764919 66.45233768197022,3.499596706764919 66.65233768197021,4.499596706764919 C 66.75233768197023,4.999596706764919 66.3523376819702,5.199596706764908 65.95233768197022,5.199596706764908 C 65.55233768197024,5.199596706764908 65.05233768197024,5.199596706764908 64.65233768197021,5.199596706764908 C 63.55233768197019,5.199596706764908 62.3523376819702,5.199596706764908 61.15233768197021,5.29959670676493 C 61.15233768197021,5.199596706764908 61.15233768197021,5.29959670676493 61.15233768197021,5.29959670676493 L 61.152337681970266,5.29959670676493 M 9.452337681970278,6.099596706764942 C 9.952337681970278,5.499596706764919 10.5523376819703,5.599596706764942 11.0523376819703,5.599596706764942 C 12.5523376819703,5.599596706764942 14.152337681970323,5.599596706764942 15.652337681970323,5.599596706764942 C 21.452337681970334,5.599596706764942 27.252337681970346,5.599596706764942 33.0523376819703,5.599596706764942 C 33.75233768197029,5.599596706764942 34.45233768197028,5.599596706764942 35.15233768197032,5.599596706764942 C 35.5523376819703,5.599596706764942 35.952337681970334,5.599596706764942 36.0523376819703,6.199596706764964 C 35.85233768197031,6.299596706764987 35.5523376819703,6.399596706764953 35.35233768197031,6.399596706764953 C 31.35233768197031,6.499596706764976 10.452337681970334,6.399596706764953 9.452337681970334,6.099596706764942 L 9.452337681970278,6.099596706764942 M 28.152337681970266,0.9995967067649758 C 33.45233768197028,0.9995967067649758 38.652337681970266,0.9995967067649758 43.95233768197028,0.9995967067649758 C 44.0523376819703,1.399596706764953 44.0523376819703,1.6995967067649644 43.5523376819703,1.6995967067649644 C 43.45233768197028,1.6995967067649644 43.25233768197029,1.6995967067649644 43.15233768197032,1.6995967067649644 C 38.5523376819703,1.6995967067649644 33.85233768197031,1.6995967067649644 29.252337681970346,1.6995967067649644 C 29.052337681970357,1.6995967067649644 28.752337681970346,1.6995967067649644 28.552337681970357,1.6995967067649644 C 28.052337681970357,1.6995967067649644 27.952337681970334,1.399596706764953 28.15233768197038,0.9995967067649758 L 28.152337681970266,0.9995967067649758 M 43.0523376819703,7.79959670676493 C 42.15233768197032,8.099596706764942 28.35233768197031,8.099596706764942 27.152337681970323,7.899596706764953 C 27.0523376819703,7.499596706764976 27.152337681970323,7.199596706764964 27.652337681970323,7.199596706764964 C 27.752337681970346,7.199596706764964 27.952337681970334,7.199596706764964 28.0523376819703,7.199596706764964 C 32.65233768197032,7.199596706764964 37.25233768197029,7.199596706764964 41.85233768197031,7.199596706764964 C 42.35233768197031,7.199596706764964 42.75233768197029,7.199596706764964 43.0523376819703,7.799596706764987 L 43.0523376819703,7.79959670676493 M 26.652337681970266,22.699596706764964 C 26.652337681970266,22.899596706764953 26.652337681970266,23.09959670676494 26.652337681970266,23.199596706764964 C 26.652337681970266,24.399596706764953 26.452337681970278,24.499596706764976 25.25233768197029,24.499596706764976 C 24.0523376819703,24.499596706764976 23.952337681970278,24.399596706764953 23.952337681970278,23.199596706764964 C 23.952337681970278,22.59959670676494 23.952337681970278,22.09959670676494 23.952337681970278,21.499596706764976 C 23.952337681970278,20.999596706764976 24.152337681970266,20.799596706764987 24.652337681970266,20.699596706764964 C 24.952337681970278,20.59959670676494 25.25233768197029,20.59959670676494 25.452337681970278,20.699596706764964 C 26.25233768197029,20.799596706764987 26.5523376819703,20.999596706764976 26.652337681970266,21.899596706764953 C 26.652337681970266,22.199596706764964 26.652337681970266,22.499596706764976 26.652337681970266,22.699596706764964 M 28.652337681970266,33.89959670676495 C 28.152337681970266,32.79959670676493 27.652337681970266,31.899596706764953 27.152337681970266,30.899596706764953 C 27.952337681970278,30.399596706764953 29.052337681970243,30.399596706764953 30.25233768197029,30.79959670676493 C 29.75233768197029,31.899596706764953 29.452337681970278,32.99959670676492 28.652337681970266,33.89959670676495 M 39.152337681970266,5.499596706764976 C 41.25233768197029,5.499596706764976 43.25233768197029,5.499596706764976 45.25233768197029,5.499596706764976 C 45.45233768197028,6.0995967067649985 45.0523376819703,6.199596706764964 44.652337681970266,6.199596706764964 C 43.55233768197024,6.199596706764964 42.45233768197028,6.199596706764964 41.352337681970255,6.199596706764964 C 40.75233768197023,6.199596706764964 40.25233768197023,6.199596706764964 39.652337681970266,6.199596706764964 C 39.352337681970255,6.199596706764964 39.352337681970255,6.199596706764964 39.152337681970266,5.499596706764976 M 45.45233768197028,3.999596706764976 C 45.25233768197029,3.399596706764953 45.5523376819703,3.1995967067649644 45.852337681970255,3.1995967067649644 C 47.55233768197024,3.1995967067649644 49.352337681970255,3.1995967067649644 51.05233768197024,3.1995967067649644 C 51.352337681970255,3.1995967067649644 51.55233768197024,3.299596706764987 51.55233768197024,3.5995967067649417 C 51.55233768197024,3.7995967067649303 51.25233768197023,3.999596706764919 51.05233768197024,3.999596706764919 C 49.25233768197023,3.999596706764919 47.352337681970255,3.999596706764919 45.45233768197022,3.999596706764919 L 45.45233768197028,3.999596706764976 M 30.5523376819703,32.09959670676494 C 30.5523376819703,33.89959670676495 30.5523376819703,35.79959670676493 30.5523376819703,37.59959670676494 C 30.452337681970278,37.59959670676494 30.35233768197031,37.59959670676494 30.25233768197029,37.59959670676494 C 29.85233768197031,36.79959670676493 29.452337681970278,36.09959670676494 29.152337681970266,35.29959670676493 C 29.052337681970243,34.99959670676492 29.052337681970243,34.69959670676491 29.152337681970266,34.39959670676495 C 29.452337681970278,33.59959670676494 29.852337681970255,32.79959670676493 30.25233768197029,32.09959670676494 C 30.35233768197031,31.99959670676492 30.452337681970278,32.09959670676494 30.5523376819703,32.09959670676494 M 32.35233768197031,33.499596706764976 C 31.25233768197029,33.599596706765 31.152337681970323,33.499596706764976 31.0523376819703,32.499596706764976 C 31.0523376819703,31.899596706764953 31.0523376819703,31.399596706764953 31.0523376819703,30.799596706764987 C 31.0523376819703,30.299596706764987 31.452337681970278,30.099596706765 31.85233768197031,30.099596706765 C 32.25233768197029,30.099596706765 32.5523376819703,30.299596706764987 32.65233768197032,30.69959670676502 C 32.65233768197032,31.39959670676501 32.65233768197032,32.19959670676502 32.65233768197032,32.89959670676501 C 32.5523376819703,33.099596706765 32.452337681970334,33.19959670676502 32.35233768197031,33.49959670676503 L 32.35233768197031,33.499596706764976 M 27.0523376819703,37.09959670676494 C 26.75233768197029,35.59959670676494 27.0523376819703,33.99959670676492 26.75233768197029,32.29959670676493 C 27.0523376819703,32.39959670676495 27.25233768197029,32.49959670676492 27.35233768197031,32.59959670676494 C 27.652337681970323,33.199596706764964 27.85233768197031,33.699596706764964 28.152337681970323,34.29959670676493 C 28.35233768197031,34.69959670676491 28.35233768197031,34.99959670676492 28.152337681970323,35.39959670676495 C 27.85233768197031,35.89959670676495 27.5523376819703,36.499596706764976 27.252337681970346,37.09959670676494 C 27.252337681970346,37.09959670676494 27.152337681970323,37.09959670676494 27.052337681970357,37.09959670676494 L 27.0523376819703,37.09959670676494 M 19.452337681970278,33.499596706764976 C 19.152337681970266,32.599596706765 19.352337681970255,31.599596706765 19.25233768197029,30.699596706764964 C 19.25233768197029,30.299596706764987 19.5523376819703,30.09959670676494 19.952337681970278,30.09959670676494 C 20.352337681970255,30.09959670676494 20.652337681970266,30.29959670676493 20.75233768197029,30.699596706764964 C 20.75233768197029,31.399596706764953 20.75233768197029,32.09959670676494 20.75233768197029,32.79959670676499 C 20.652337681970266,33.39959670676501 20.452337681970278,33.499596706764976 19.452337681970278,33.499596706764976 M 45.85233768197031,10.29959670676493 C 48.0523376819703,10.29959670676493 50.15233768197032,10.199596706764908 52.25233768197029,10.399596706764953 C 52.152337681970266,10.999596706764976 51.95233768197028,11.099596706764942 51.5523376819703,11.099596706764942 C 49.95233768197028,11.099596706764942 48.45233768197028,11.099596706764942 46.85233768197031,11.099596706764942 C 46.35233768197031,11.099596706764942 45.952337681970334,11.099596706764942 45.85233768197031,10.29959670676493" id="path96"/>
</svg>
