<?xml version="1.0" ?>
<svg xmlns="http://www.w3.org/2000/svg" xmlns:ev="http://www.w3.org/2001/xml-events" xmlns:xlink="http://www.w3.org/1999/xlink" baseProfile="full" height="450" id="Layer_1" style="enable-background:new 0 0 500 500;" transform="scale(0.2222222222222222 0.2222222222222222) translate(-229.0 -225.0)" version="1.1" viewBox="0 0 458 450" width="458" x="0px" xml:space="preserve" y="0px">
	<defs/>
	<path d="M 58.58221657947322,336.4 C 58.58221657947322,303.2 58.68221657947321,270.0 58.482216579473224,236.79999999999995 C 58.482216579473224,230.09999999999997 59.88221657947323,224.29999999999995 63.18221657947323,218.39999999999995 C 79.98221657947323,188.89999999999995 96.48221657947323,159.19999999999993 112.88221657947324,129.39999999999995 C 115.48221657947323,124.69999999999996 118.78221657947324,121.09999999999994 123.58221657947323,118.69999999999996 C 155.58221657947323,102.69999999999996 187.58221657947323,86.79999999999995 219.28221657947321,70.29999999999995 C 225.78221657947321,66.89999999999995 230.9822165794732,67.09999999999995 237.28221657947321,70.39999999999995 C 268.28221657947324,86.39999999999995 299.38221657947327,102.19999999999995 330.58221657947325,117.79999999999995 C 336.6822165794733,120.79999999999995 340.88221657947327,125.09999999999997 344.08221657947325,130.99999999999994 C 360.58221657947325,160.59999999999994 377.38221657947327,190.19999999999993 394.08221657947325,219.69999999999993 C 396.88221657947327,224.69999999999993 398.08221657947325,229.89999999999992 398.08221657947325,235.69999999999993 C 397.98221657947323,302.0999999999999 397.78221657947324,368.5999999999999 398.28221657947324,434.99999999999994 C 398.38221657947327,446.69999999999993 395.28221657947324,450.29999999999995 383.1822165794732,449.79999999999995 C 359.0822165794732,448.69999999999993 334.8822165794732,449.19999999999993 310.6822165794732,449.49999999999994 C 303.78221657947324,449.59999999999997 298.3822165794732,447.69999999999993 293.0822165794732,443.29999999999995 C 273.9822165794732,427.09999999999997 254.38221657947318,411.59999999999997 235.48221657947315,395.19999999999993 C 229.58221657947314,390.0999999999999 226.08221657947314,390.3999999999999 220.38221657947315,395.3999999999999 C 201.88221657947315,411.49999999999994 182.68221657947313,426.8999999999999 163.98221657947315,442.8999999999999 C 158.38221657947315,447.69999999999993 152.68221657947313,449.7999999999999 145.28221657947316,449.69999999999993 C 120.28221657947316,449.3999999999999 95.18221657947316,449.0999999999999 70.28221657947316,449.8999999999999 C 60.282216579473165,450.19999999999993 57.88221657947316,446.8999999999999 57.98221657947317,437.3999999999999 C 58.48221657947317,403.7999999999999 58.18221657947317,370.0999999999999 58.18221657947317,336.4999999999999 C 58.482216579473224,336.4 58.58221657947322,336.4 58.58221657947322,336.4 M 262.88221657947327,195.29999999999998 C 263.1822165794733,159.59999999999997 263.1822165794733,159.59999999999997 229.88221657947324,159.7 C 229.48221657947323,159.7 228.98221657947323,159.7 228.58221657947323,159.7 C 195.78221657947321,159.7 195.68221657947322,159.7 195.98221657947323,192.0 C 196.08221657947323,202.6 191.38221657947324,216.5 197.78221657947324,223.1 C 204.78221657947324,230.4 218.98221657947323,225.4 229.98221657947326,225.5 C 240.18221657947325,225.6 253.08221657947328,230.0 260.0822165794733,223.8 C 268.08221657947325,217.09999999999997 260.88221657947327,203.7 262.88221657947327,195.29999999999998 M 300.28221657947324,305.5 C 251.1822165794732,305.5 205.8822165794732,305.5 157.3822165794732,305.5 C 181.18221657947322,325.3 202.78221657947321,343.1 224.08221657947323,361.1 C 227.68221657947322,364.20000000000005 230.18221657947322,362.6 232.88221657947324,360.40000000000003 C 254.4822165794732,342.7 276.1822165794732,325.09999999999997 300.28221657947324,305.5 M 155.08221657947323,424.9 C 174.38221657947324,408.7 191.18221657947322,394.59999999999997 207.98221657947323,380.59999999999997 C 210.58221657947323,378.4 212.28221657947324,376.2 208.88221657947324,373.29999999999995 C 191.58221657947323,358.9 174.28221657947324,344.59999999999997 155.08221657947323,328.69999999999993 C 155.08221657947323,361.59999999999997 155.08221657947323,391.5 155.08221657947323,424.9 M 301.1822165794732,328.59999999999997 C 282.1822165794732,344.59999999999997 265.78221657947324,358.49999999999994 249.1822165794732,372.2 C 244.58221657947317,376.0 244.9822165794732,378.2 249.58221657947317,381.9 C 264.3822165794732,393.79999999999995 278.6822165794732,406.2 293.3822165794732,418.29999999999995 C 295.1822165794732,419.79999999999995 297.0822165794732,422.49999999999994 299.98221657947323,420.69999999999993 C 302.1822165794732,419.29999999999995 301.1822165794732,416.79999999999995 301.1822165794732,414.79999999999995 C 301.1822165794732,387.2 301.1822165794732,359.7 301.1822165794732,328.59999999999997 M 457.58221657947325,208.39999999999998 C 456.58221657947325,217.99999999999997 452.1822165794733,224.39999999999998 444.08221657947325,226.7 C 434.38221657947327,229.5 426.28221657947324,226.7 421.08221657947325,217.29999999999998 C 409.38221657947327,196.29999999999998 395.6822165794733,176.09999999999997 386.1822165794733,154.09999999999997 C 371.1822165794733,119.49999999999997 347.7822165794733,96.09999999999997 312.38221657947327,82.29999999999997 C 286.78221657947324,72.29999999999997 262.78221657947324,58.39999999999998 238.48221657947326,45.39999999999998 C 230.98221657947326,41.39999999999998 225.38221657947327,41.99999999999997 218.18221657947325,45.699999999999974 C 181.38221657947324,64.59999999999997 144.48221657947326,83.19999999999997 107.48221657947326,101.59999999999997 C 100.58221657947325,104.99999999999997 95.88221657947327,109.49999999999997 92.08221657947325,116.29999999999995 C 74.08221657947325,149.09999999999997 55.58221657947326,181.59999999999997 37.18221657947326,214.19999999999996 C 30.08221657947322,226.79999999999998 19.982216579473224,230.89999999999998 9.782216579473221,225.79999999999998 C -0.6177834205267771,220.49999999999997 -3.117783420526777,208.89999999999998 4.18221657947322,195.79999999999998 C 24.68221657947322,159.0 45.48221657947321,122.29999999999998 65.9822165794732,85.49999999999999 C 68.78221657947321,80.39999999999999 72.18221657947322,76.29999999999998 77.38221657947321,73.69999999999999 C 124.28221657947321,50.099999999999994 171.1822165794732,26.49999999999999 217.9822165794732,2.599999999999998 C 224.8822165794732,-0.9000000000000021 231.28221657947321,-0.8000000000000007 237.6822165794732,2.4999999999999964 C 285.3822165794732,26.599999999999998 332.98221657947323,50.79999999999998 380.5822165794732,74.9 C 385.2822165794732,77.30000000000001 388.9822165794732,80.9 391.5822165794732,85.60000000000001 C 411.9822165794732,122.4 432.4822165794732,159.3 452.7822165794732,196.2 C 454.98221657947323,200.2 456.1822165794732,204.89999999999998 457.58221657947325,208.39999999999998"/>
</svg>
