<?xml version="1.0" ?>
<svg xmlns="http://www.w3.org/2000/svg" xmlns:ev="http://www.w3.org/2001/xml-events" xmlns:inkscape="http://www.inkscape.org/namespaces/inkscape" xmlns:sodipodi="http://sodipodi.sourceforge.net/DTD/sodipodi-0.dtd" xmlns:svg="http://www.w3.org/2000/svg" xmlns:xlink="http://www.w3.org/1999/xlink" baseProfile="full" height="55" id="Layer_1" inkscape:version="1.2.2 (1:1.2.2+202212051550+b0a8486541)" sodipodi:docname="farm01.svg" transform="scale(1.8181818181818181 1.8181818181818181) translate(-64.0 -27.5)" version="1.1" viewBox="0 0 128 55" width="128" x="0px" xml:space="preserve" y="0px">
	<defs/>
	<path d="M 111.09999999999988,28.898681894249876 C 109.49999999999989,28.898681894249876 107.89999999999989,28.99868189424987 106.39999999999989,28.79868189424988 C 103.99999999999989,28.398681894249876 101.49999999999989,28.698681894249887 98.99999999999989,28.29868189424988 C 98.59999999999988,28.198681894249887 98.19999999999987,28.398681894249876 98.19999999999987,28.898681894249876 C 98.19999999999987,29.098681894249864 98.19999999999987,29.398681894249876 98.19999999999987,29.698681894249887 C 98.89999999999986,30.098681894249893 99.59999999999988,30.098681894249893 100.29999999999987,30.198681894249887 C 102.99999999999986,30.4986818942499 105.79999999999987,30.79868189424988 108.49999999999986,31.098681894249893 C 110.19999999999985,31.29868189424988 111.79999999999987,31.398681894249904 113.49999999999986,31.698681894249887 C 114.29999999999987,31.79868189424988 114.99999999999986,31.9986818942499 115.79999999999987,32.09868189424989 C 116.39999999999986,32.19868189424989 117.09999999999988,32.19868189424989 117.69999999999987,32.29868189424988 C 117.09999999999988,32.59868189424989 115.89999999999986,32.59868189424989 114.99999999999989,32.398681894249876 C 114.69999999999987,32.29868189424988 114.39999999999989,32.19868189424989 114.19999999999987,32.19868189424989 C 111.99999999999989,31.9986818942499 109.79999999999987,31.79868189424988 107.59999999999988,31.598681894249893 C 106.79999999999987,31.4986818942499 105.99999999999989,31.398681894249904 105.29999999999987,31.398681894249904 C 104.89999999999986,31.398681894249904 104.49999999999986,31.398681894249904 104.09999999999988,31.29868189424991 C 103.89999999999989,31.9986818942499 104.19999999999987,32.59868189424992 104.59999999999988,32.898681894249904 C 104.79999999999987,33.09868189424989 105.39999999999989,32.79868189424991 105.99999999999989,32.698681894249916 C 106.19999999999987,32.898681894249904 106.49999999999989,33.198681894249916 106.89999999999989,33.398681894249904 C 107.2999999999999,33.4986818942499 107.7999999999999,33.398681894249904 108.2999999999999,33.4986818942499 C 109.7999999999999,33.898681894249904 111.2999999999999,33.69868189424989 112.6999999999999,33.9986818942499 C 113.7999999999999,34.19868189424989 114.99999999999991,34.19868189424989 116.09999999999991,34.398681894249904 C 117.39999999999992,34.59868189424989 118.6999999999999,34.79868189424991 120.09999999999991,34.9986818942499 C 119.2999999999999,35.29868189424991 117.1999999999999,35.19868189424989 116.39999999999992,34.9986818942499 C 116.19999999999993,34.898681894249904 115.89999999999992,34.79868189424991 115.69999999999993,34.79868189424991 C 114.09999999999994,34.698681894249916 112.59999999999994,34.79868189424991 110.99999999999994,34.398681894249904 C 110.89999999999995,34.398681894249904 110.69999999999993,34.398681894249904 110.59999999999994,34.4986818942499 C 110.69999999999993,35.19868189424989 110.79999999999993,35.898681894249904 110.89999999999995,36.4986818942499 C 110.99999999999994,36.9986818942499 111.29999999999995,37.398681894249904 111.89999999999995,37.4986818942499 C 112.19999999999996,37.4986818942499 112.49999999999994,37.4986818942499 112.89999999999995,37.59868189424989 C 114.39999999999995,37.79868189424988 115.99999999999994,37.9986818942499 117.79999999999995,38.19868189424989 C 117.49999999999994,38.29868189424988 117.29999999999995,38.4986818942499 117.09999999999997,38.4986818942499 C 115.89999999999998,38.398681894249904 114.59999999999997,38.29868189424991 113.39999999999998,38.19868189424989 C 112.79999999999998,38.09868189424989 112.09999999999997,38.09868189424989 111.49999999999997,38.09868189424989 C 111.29999999999998,38.09868189424989 111.19999999999996,38.398681894249904 110.99999999999997,38.4986818942499 C 111.19999999999996,38.69868189424989 111.29999999999998,38.898681894249904 111.49999999999997,38.9986818942499 C 112.49999999999997,39.19868189424989 113.49999999999997,39.29868189424991 114.49999999999997,39.4986818942499 C 115.69999999999996,39.69868189424989 116.89999999999998,39.9986818942499 118.09999999999997,40.19868189424989 C 119.19999999999996,40.398681894249876 120.39999999999998,40.4986818942499 121.49999999999997,40.79868189424988 C 123.29999999999998,41.19868189424989 125.19999999999996,41.49868189424987 127.19999999999996,41.898681894249876 C 126.89999999999995,42.098681894249864 126.79999999999995,42.398681894249876 126.59999999999997,42.398681894249876 C 125.59999999999997,42.79868189424988 124.49999999999997,43.098681894249864 123.49999999999997,43.398681894249876 C 123.09999999999997,43.49868189424987 122.79999999999998,43.598681894249864 122.39999999999998,43.69868189424989 C 122.09999999999997,43.79868189424988 121.79999999999998,43.79868189424988 121.39999999999998,43.79868189424988 C 120.69999999999999,43.69868189424989 119.99999999999997,43.49868189424987 119.29999999999998,43.398681894249876 C 117.49999999999997,42.99868189424987 115.69999999999999,42.598681894249864 113.89999999999998,42.29868189424988 C 111.09999999999997,41.79868189424988 108.19999999999999,41.19868189424989 105.29999999999998,41.09868189424989 C 101.1,40.898681894249904 96.79999999999998,40.59868189424989 92.6,40.398681894249904 C 91.5,40.29868189424991 90.5,40.398681894249904 89.3,40.398681894249904 C 89.6,40.898681894249904 90.0,40.9986818942499 90.4,41.09868189424989 C 94.30000000000001,41.59868189424989 98.20000000000002,42.09868189424989 102.1,42.59868189424989 C 104.4,42.898681894249904 106.6,43.398681894249904 108.9,43.79868189424988 C 110.0,43.99868189424987 111.20000000000002,44.19868189424989 112.4,44.398681894249876 C 113.80000000000001,44.69868189424989 115.30000000000001,44.99868189424987 116.80000000000001,45.398681894249876 C 115.9,46.098681894249864 114.9,46.19868189424989 114.0,46.49868189424987 C 113.80000000000001,46.598681894249864 113.6,46.598681894249864 113.5,46.598681894249864 C 112.19999999999999,47.398681894249876 110.9,47.098681894249864 109.6,46.69868189424986 C 108.69999999999999,46.49868189424987 107.69999999999999,46.29868189424985 106.79999999999998,46.098681894249864 C 105.6,45.898681894249876 104.39999999999998,45.79868189424985 103.19999999999999,45.598681894249864 C 102.0,45.398681894249876 100.79999999999998,45.098681894249864 99.6,44.79868189424985 C 99.5,44.79868189424985 99.5,44.79868189424985 99.4,44.79868189424985 C 97.9,44.598681894249864 96.4,44.39868189424985 94.80000000000001,44.39868189424985 C 90.30000000000001,44.29868189424985 85.80000000000001,44.29868189424985 81.30000000000001,44.29868189424985 C 80.9,44.29868189424985 80.50000000000001,44.29868189424985 80.10000000000001,44.39868189424985 C 79.4,43.69868189424986 78.60000000000001,44.19868189424986 77.9,44.29868189424985 C 78.60000000000001,44.29868189424985 79.4,44.29868189424985 80.10000000000001,44.39868189424985 C 80.2,44.49868189424984 80.30000000000001,44.69868189424986 80.4,44.79868189424985 C 80.60000000000001,44.89868189424985 80.80000000000001,44.89868189424985 81.0,44.89868189424985 C 82.9,45.098681894249836 84.8,45.19868189424986 86.6,45.39868189424985 C 87.5,45.49868189424984 88.39999999999999,45.69868189424986 89.3,45.79868189424985 C 91.79999999999998,46.19868189424986 94.29999999999998,46.598681894249864 96.79999999999998,46.99868189424984 C 98.1,47.19868189424983 99.39999999999998,47.39868189424985 100.69999999999999,47.598681894249836 C 102.1,47.89868189424985 103.39999999999998,48.19868189424983 104.79999999999998,48.49868189424984 C 104.89999999999998,48.49868189424984 104.99999999999997,48.598681894249836 105.1,48.69868189424983 C 104.9,48.798681894249825 104.79999999999998,48.89868189424982 104.69999999999999,48.89868189424982 C 103.69999999999999,48.99868189424981 102.69999999999999,49.19868189424983 101.6,49.298681894249825 C 100.6,49.49868189424981 99.5,49.598681894249836 98.5,49.798681894249825 C 97.1,49.99868189424981 95.69999999999999,49.39868189424982 94.30000000000001,49.19868189424983 C 92.9,48.99868189424984 91.5,48.598681894249836 90.10000000000002,48.598681894249836 C 86.30000000000003,48.49868189424984 82.50000000000003,48.49868189424984 78.70000000000002,48.49868189424984 C 78.50000000000001,48.49868189424984 78.30000000000001,48.49868189424984 78.00000000000001,48.69868189424983 C 80.00000000000001,48.99868189424984 82.00000000000001,49.39868189424982 84.00000000000001,49.69868189424983 C 86.10000000000001,49.99868189424984 88.10000000000001,50.298681894249825 90.20000000000002,50.598681894249836 C 90.20000000000002,50.69868189424983 90.20000000000002,50.798681894249825 90.20000000000002,50.798681894249825 C 90.00000000000003,50.89868189424982 89.9,50.99868189424981 89.70000000000002,50.99868189424981 C 88.20000000000002,51.298681894249825 86.70000000000002,51.49868189424981 85.20000000000002,51.6986818942498 C 83.70000000000002,51.89868189424979 82.20000000000002,51.89868189424979 80.70000000000002,51.59868189424981 C 79.80000000000001,51.39868189424982 78.80000000000001,51.298681894249796 77.80000000000001,51.1986818942498 C 76.10000000000001,50.99868189424981 74.50000000000001,50.6986818942498 72.80000000000001,50.59868189424981 C 71.10000000000001,50.39868189424982 69.4,50.39868189424982 67.70000000000002,50.09868189424981 C 66.50000000000001,49.798681894249796 65.20000000000002,49.89868189424982 64.00000000000001,49.6986818942498 C 61.90000000000002,49.49868189424981 59.90000000000002,49.1986818942498 57.90000000000002,48.99868189424981 C 56.300000000000026,48.89868189424982 54.70000000000002,48.89868189424982 53.10000000000002,48.798681894249825 C 46.90000000000002,48.298681894249825 40.70000000000002,48.39868189424982 34.40000000000002,48.298681894249825 C 31.100000000000023,48.298681894249825 27.700000000000017,48.298681894249825 24.40000000000002,48.39868189424982 C 22.50000000000002,48.49868189424981 20.700000000000017,48.19868189424983 19.00000000000002,47.49868189424981 C 18.90000000000002,47.39868189424982 18.700000000000024,47.298681894249825 18.40000000000002,47.09868189424981 C 18.90000000000002,46.99868189424981 19.200000000000017,46.89868189424982 19.50000000000002,46.89868189424982 C 23.30000000000002,46.49868189424981 27.100000000000023,46.49868189424981 31.00000000000003,46.39868189424982 C 38.400000000000034,46.09868189424981 45.800000000000026,46.19868189424983 53.20000000000003,46.59868189424981 C 60.20000000000003,46.99868189424981 67.10000000000004,46.59868189424981 74.10000000000002,46.99868189424981 C 75.90000000000002,47.09868189424981 77.70000000000002,47.1986818942498 79.50000000000003,47.298681894249825 C 80.10000000000002,47.298681894249825 80.60000000000002,47.298681894249825 81.20000000000003,47.098681894249836 C 80.80000000000003,47.098681894249836 80.40000000000003,46.99868189424984 80.00000000000003,46.99868189424984 C 79.50000000000003,46.89868189424985 79.00000000000003,46.79868189424985 78.50000000000003,46.69868189424983 C 78.00000000000003,46.598681894249836 77.60000000000002,46.49868189424984 77.10000000000002,46.49868189424984 C 74.10000000000002,46.19868189424983 71.10000000000002,45.99868189424984 68.10000000000002,45.69868189424983 C 67.80000000000003,45.69868189424983 67.50000000000003,45.598681894249836 67.20000000000002,45.598681894249836 C 63.500000000000014,45.39868189424985 59.70000000000002,45.19868189424983 56.000000000000014,44.89868189424985 C 47.20000000000002,44.39868189424985 38.400000000000006,44.598681894249836 29.600000000000023,44.69868189424986 C 26.600000000000023,44.69868189424986 23.50000000000002,44.89868189424985 20.50000000000002,45.098681894249864 C 18.80000000000002,45.19868189424986 17.200000000000024,45.398681894249876 15.500000000000021,45.598681894249864 C 14.200000000000024,45.79868189424985 13.000000000000021,45.29868189424985 11.800000000000018,44.898681894249876 C 11.600000000000016,44.79868189424988 11.500000000000021,44.598681894249864 11.200000000000017,44.29868189424988 C 11.600000000000016,44.29868189424988 11.90000000000002,44.19868189424989 12.200000000000017,44.19868189424989 C 14.90000000000002,43.898681894249876 17.700000000000017,43.69868189424989 20.40000000000002,43.4986818942499 C 21.80000000000002,43.398681894249904 23.30000000000002,43.398681894249904 24.700000000000017,43.29868189424991 C 28.600000000000023,43.09868189424992 32.500000000000014,42.898681894249904 36.40000000000002,42.79868189424991 C 40.70000000000002,42.698681894249916 45.10000000000002,42.59868189424992 49.40000000000002,42.59868189424992 C 57.40000000000002,42.49868189424993 65.50000000000003,42.49868189424993 73.50000000000003,42.49868189424993 C 74.80000000000003,42.49868189424993 76.10000000000002,42.49868189424993 77.50000000000003,42.59868189424992 C 78.30000000000003,42.59868189424992 79.00000000000003,42.79868189424991 79.80000000000003,42.89868189424993 C 79.80000000000003,42.79868189424994 79.80000000000003,42.698681894249944 79.80000000000003,42.698681894249944 C 79.10000000000002,42.59868189424995 78.40000000000002,42.29868189424994 77.60000000000002,42.29868189424994 C 74.00000000000003,41.99868189424993 70.50000000000003,41.89868189424993 66.90000000000002,41.59868189424995 C 59.90000000000002,40.998681894249955 52.90000000000002,40.998681894249955 45.90000000000002,40.998681894249955 C 41.300000000000026,40.998681894249955 36.70000000000002,41.09868189424995 32.20000000000002,41.29868189424997 C 27.80000000000001,41.498681894249955 23.40000000000002,41.89868189424996 19.000000000000014,42.19868189424997 C 16.100000000000016,42.39868189424996 13.200000000000017,42.69868189424997 10.400000000000013,43.09868189424998 C 9.20000000000001,43.29868189424997 8.100000000000016,43.09868189424998 6.900000000000013,42.89868189424999 C 6.400000000000013,42.798681894249995 6.000000000000014,42.498681894249984 5.600000000000016,42.298681894249995 C 5.600000000000016,42.19868189425 5.600000000000016,42.19868189425 5.600000000000016,42.09868189425001 C 6.3000000000000185,41.99868189425001 7.000000000000014,41.798681894249995 7.700000000000017,41.69868189425 C 11.000000000000014,41.298681894249995 14.40000000000002,40.99868189425001 17.700000000000017,40.59868189425001 C 18.200000000000017,40.49868189425001 18.80000000000002,40.298681894249995 19.30000000000002,40.19868189425 C 19.00000000000002,38.99868189425001 18.600000000000016,38.798681894249995 17.600000000000016,38.99868189425001 C 17.000000000000014,39.09868189425001 16.400000000000013,39.19868189425 15.800000000000018,39.298681894250024 C 14.000000000000021,39.49868189425001 12.300000000000018,39.598681894250035 10.500000000000021,39.798681894250024 C 8.300000000000018,40.098681894250035 6.100000000000023,40.49868189425001 4.000000000000021,40.89868189425002 C 2.6000000000000227,41.09868189425001 1.40000000000002,40.798681894250024 2.1316282072803006e-14,39.99868189425001 C 0.9000000000000199,39.798681894250024 1.5000000000000213,39.49868189425001 2.1000000000000227,39.39868189425002 C 3.40000000000002,39.19868189425003 4.700000000000024,39.09868189425001 6.000000000000021,38.89868189425002 C 7.40000000000002,38.69868189425003 8.90000000000002,38.49868189425001 10.300000000000018,38.19868189425003 C 10.500000000000021,38.19868189425003 10.800000000000018,38.098681894250035 11.000000000000021,38.098681894250035 C 12.700000000000024,37.898681894250046 14.40000000000002,37.69868189425003 16.100000000000023,37.49868189425004 C 17.00000000000002,37.398681894250046 17.90000000000002,37.19868189425003 18.700000000000024,36.99868189425004 C 18.900000000000027,36.898681894250046 19.100000000000023,36.69868189425003 19.300000000000026,36.49868189425004 C 19.50000000000003,36.29868189425005 19.700000000000024,35.99868189425004 19.900000000000027,35.69868189425003 C 20.50000000000003,36.298681894250024 21.00000000000003,37.098681894250035 21.900000000000027,36.598681894250035 C 22.400000000000027,36.298681894250024 22.50000000000003,35.798681894250024 22.300000000000026,35.19868189425003 C 21.300000000000026,35.298681894250024 20.300000000000026,35.19868189425003 19.300000000000026,35.39868189425002 C 18.300000000000026,35.59868189425001 17.300000000000026,35.59868189425001 16.200000000000024,35.59868189425001 C 16.200000000000024,35.49868189425001 16.200000000000024,35.39868189425002 16.200000000000024,35.298681894249995 C 16.600000000000023,35.19868189425 16.900000000000027,35.19868189425 17.300000000000026,35.09868189425001 C 18.900000000000027,34.798681894249995 20.50000000000003,34.49868189425001 22.100000000000023,34.298681894249995 C 22.600000000000023,34.19868189425 22.90000000000002,33.998681894249984 23.100000000000023,33.498681894249984 C 23.100000000000023,33.39868189424999 23.200000000000024,33.298681894249995 23.300000000000026,33.09868189424998 C 23.700000000000024,32.59868189424998 24.400000000000027,32.59868189424998 24.700000000000024,33.19868189424997 C 25.00000000000002,33.79868189424997 25.400000000000027,33.89868189424996 26.00000000000003,33.89868189424996 C 27.20000000000003,33.79868189424997 28.400000000000034,33.89868189424996 29.600000000000023,33.29868189424997 C 29.600000000000023,32.79868189424997 29.600000000000023,32.29868189424997 29.600000000000023,31.698681894249972 C 29.40000000000002,31.598681894249978 29.200000000000017,31.498681894249984 29.00000000000003,31.498681894249984 C 27.70000000000003,31.598681894249978 26.400000000000034,31.798681894249995 25.10000000000003,31.89868189424999 C 24.00000000000003,31.998681894249984 22.900000000000027,31.998681894249984 21.800000000000033,31.998681894249984 C 24.400000000000034,31.298681894249995 27.00000000000003,31.39868189424999 29.50000000000003,30.698681894249972 C 29.600000000000023,29.598681894249978 29.600000000000023,29.39868189424996 28.70000000000003,29.298681894249967 C 27.800000000000026,29.198681894249972 26.900000000000034,29.198681894249972 26.00000000000003,29.198681894249972 C 25.400000000000027,29.198681894249972 24.800000000000026,29.198681894249972 24.20000000000003,29.098681894249978 C 25.800000000000026,28.798681894249967 27.400000000000034,28.598681894249978 29.00000000000003,28.098681894249978 C 30.600000000000023,27.598681894249978 31.70000000000003,26.298681894249967 33.300000000000026,25.598681894249978 C 33.10000000000002,25.39868189424999 33.00000000000003,25.198681894249972 32.90000000000002,25.098681894249978 C 34.60000000000002,24.298681894249967 36.70000000000002,24.198681894249972 37.90000000000002,22.098681894249978 C 39.800000000000026,21.998681894249984 41.90000000000002,21.798681894249967 43.90000000000002,21.698681894249972 C 45.90000000000002,21.598681894249978 47.90000000000002,21.39868189424996 49.90000000000002,21.298681894249967 C 50.300000000000026,21.298681894249967 50.60000000000002,21.098681894249978 50.60000000000002,20.698681894249972 C 50.70000000000002,20.198681894249972 50.800000000000026,19.598681894249978 50.40000000000002,19.098681894249978 C 48.20000000000002,19.098681894249978 46.000000000000014,19.098681894249978 43.800000000000026,19.098681894249978 C 43.800000000000026,18.998681894249984 43.800000000000026,18.89868189424999 43.800000000000026,18.89868189424999 C 44.50000000000003,18.69868189425 45.300000000000026,18.69868189425 46.00000000000003,18.69868189425 C 46.800000000000026,18.69868189425 47.50000000000003,18.69868189425 48.300000000000026,18.598681894250007 C 49.10000000000002,18.498681894250012 49.800000000000026,18.298681894249995 50.70000000000003,18.19868189425 C 50.70000000000003,17.798681894249995 50.800000000000026,17.498681894250012 50.800000000000026,17.19868189425 C 50.800000000000026,14.998681894250012 50.800000000000026,12.798681894249995 50.800000000000026,10.598681894250007 C 50.800000000000026,9.29868189425001 50.70000000000003,7.998681894250012 51.10000000000002,6.698681894250001 C 51.60000000000002,4.798681894249995 53.300000000000026,3.198681894250001 55.300000000000026,2.998681894249998 C 56.800000000000026,2.8986818942500037 58.20000000000003,2.998681894249998 59.40000000000002,4.098681894249992 C 60.500000000000014,5.098681894249992 61.20000000000002,6.298681894249995 61.20000000000002,7.798681894249995 C 61.20000000000002,10.69868189425 61.20000000000002,13.69868189425 61.20000000000002,16.598681894250007 C 61.20000000000002,16.998681894250012 61.20000000000002,17.398681894250018 61.30000000000001,17.798681894249995 C 62.000000000000014,17.798681894249995 62.60000000000001,17.798681894249995 63.30000000000001,17.798681894249995 C 63.30000000000001,17.39868189424999 63.30000000000001,16.998681894249984 63.30000000000001,16.598681894250007 C 63.30000000000001,12.898681894250018 63.30000000000001,9.19868189425 63.30000000000001,5.498681894250012 C 63.30000000000001,3.2986818942500093 64.20000000000002,1.5986818942500065 66.20000000000002,0.5986818942500065 C 68.00000000000001,-0.3013181057499992 69.80000000000001,-0.20131810574999065 71.50000000000001,0.9986818942500122 C 73.00000000000001,1.9986818942500122 73.60000000000001,3.398681894250018 73.60000000000001,5.298681894250009 C 73.50000000000001,9.098681894250007 73.60000000000001,12.898681894250018 73.60000000000001,16.69868189425 C 73.60000000000001,17.69868189425 73.60000000000001,17.69868189425 74.50000000000001,17.998681894250012 C 74.90000000000002,18.098681894250007 75.30000000000001,18.098681894250007 75.70000000000002,18.19868189425 C 77.70000000000002,18.298681894249995 79.80000000000001,18.298681894249995 81.80000000000001,18.298681894249995 C 82.80000000000001,18.298681894249995 83.70000000000002,18.498681894249984 84.70000000000002,18.598681894250007 C 85.70000000000002,18.69868189425 86.80000000000001,18.69868189425 87.80000000000001,18.798681894249995 C 90.60000000000002,18.998681894249984 93.4,19.19868189425 96.20000000000002,19.498681894249984 C 93.80000000000001,19.598681894249978 91.4,19.698681894249972 88.90000000000002,19.598681894249978 C 89.10000000000002,19.798681894249967 89.20000000000002,19.998681894249984 89.40000000000002,20.198681894249972 C 90.20000000000002,20.698681894249972 91.00000000000003,21.198681894249972 91.9,21.698681894249972 C 92.20000000000002,21.89868189424996 92.6,21.998681894249984 93.0,22.098681894249978 C 94.19999999999999,22.298681894249967 95.5,22.39868189424999 96.69999999999999,22.498681894249984 C 96.89999999999998,22.498681894249984 97.19999999999999,22.598681894249978 97.39999999999998,22.598681894249978 C 97.39999999999998,22.698681894249972 97.39999999999998,22.798681894249967 97.39999999999998,22.798681894249967 C 96.29999999999998,22.798681894249967 95.29999999999998,22.798681894249967 94.19999999999999,22.798681894249967 C 94.19999999999999,22.89868189424996 94.19999999999999,22.998681894249955 94.1,22.998681894249955 C 94.19999999999999,23.09868189424995 94.4,23.198681894249944 94.5,23.298681894249967 C 95.0,23.598681894249978 95.5,23.998681894249955 96.1,24.298681894249967 C 96.29999999999998,24.39868189424996 96.5,24.498681894249955 96.79999999999998,24.598681894249978 C 98.79999999999998,24.798681894249967 100.79999999999998,24.89868189424999 102.79999999999998,25.098681894249978 C 103.6,25.198681894249972 104.29999999999998,25.298681894249967 105.1,25.498681894249984 C 105.9,25.598681894249978 106.69999999999999,25.698681894249972 107.4,25.798681894249995 C 106.0,25.89868189424999 104.6,25.89868189424999 103.20000000000002,25.798681894249995 C 101.80000000000001,25.69868189425 100.30000000000001,25.69868189425 98.9,25.598681894250007 C 98.80000000000001,25.598681894250007 98.70000000000002,25.69868189425 98.5,25.798681894249995 C 99.0,26.098681894250007 99.4,26.39868189424999 99.9,26.798681894249995 C 99.6,27.098681894250007 99.4,27.298681894249995 99.0,27.598681894250007 C 99.4,27.69868189425 99.6,27.798681894249995 99.9,27.798681894249995 C 101.20000000000002,27.89868189424999 102.5,27.798681894249995 103.70000000000002,28.19868189425 C 104.20000000000002,28.39868189424999 104.80000000000001,28.298681894249995 105.4,28.298681894249995 C 106.20000000000002,28.298681894249995 107.0,28.39868189424999 107.80000000000001,28.598681894250007 C 108.5,28.798681894249995 109.4,28.69868189425 110.10000000000002,28.798681894249995 C 110.60000000000002,28.498681894249984 111.00000000000003,28.39868189424999 111.10000000000002,28.89868189424999 L 111.09999999999988,28.898681894249876 M 38.59999999999988,28.098681894249864 C 38.699999999999875,27.898681894249876 38.79999999999988,27.69868189424986 38.89999999999988,27.598681894249864 C 40.29999999999988,26.69868189424986 41.79999999999988,25.798681894249853 43.29999999999988,24.898681894249876 C 43.59999999999988,24.698681894249887 43.69999999999989,24.49868189424987 43.39999999999988,24.098681894249864 C 42.09999999999988,24.898681894249876 40.89999999999988,25.69868189424986 39.59999999999988,26.398681894249876 C 38.89999999999988,26.79868189424988 38.29999999999988,27.598681894249864 37.29999999999988,27.598681894249864 C 37.29999999999988,27.49868189424987 37.29999999999988,27.298681894249853 37.39999999999988,27.19868189424986 C 38.09999999999988,26.69868189424986 38.89999999999988,26.298681894249853 39.59999999999988,25.798681894249853 C 40.39999999999988,25.298681894249853 41.199999999999875,24.798681894249853 42.199999999999875,24.19868189424986 C 41.59999999999988,23.898681894249847 41.29999999999987,23.99868189424987 40.89999999999988,24.298681894249853 C 39.49999999999987,25.19868189424986 38.09999999999988,26.098681894249864 36.699999999999875,26.99868189424984 C 35.99999999999987,27.398681894249847 35.39999999999988,27.798681894249853 34.699999999999875,28.298681894249853 C 35.49999999999987,28.798681894249853 35.99999999999987,28.298681894249853 36.39999999999988,27.99868189424984 C 36.699999999999875,27.798681894249853 36.89999999999988,27.598681894249836 37.29999999999988,27.69868189424983 C 37.39999999999988,27.99868189424984 37.09999999999988,28.098681894249836 36.89999999999988,28.19868189424983 C 36.59999999999988,28.298681894249825 36.39999999999988,28.598681894249836 36.59999999999988,28.99868189424984 C 36.79999999999988,28.898681894249847 36.999999999999886,28.69868189424983 37.29999999999988,28.69868189424983 C 37.69999999999989,28.39868189424982 38.19999999999989,28.19868189424983 38.59999999999988,28.098681894249836 C 38.499999999999886,28.298681894249825 38.39999999999988,28.49868189424984 38.199999999999875,28.798681894249825 C 38.89999999999988,29.19868189424983 39.39999999999988,28.498681894249813 39.89999999999988,28.298681894249825 C 40.39999999999988,28.098681894249836 40.699999999999875,27.39868189424982 41.39999999999988,27.598681894249836 C 41.39999999999988,28.19868189424983 40.79999999999988,28.19868189424983 40.49999999999987,28.49868189424984 C 40.29999999999987,28.69868189424983 39.99999999999987,28.898681894249847 39.79999999999987,29.098681894249836 C 39.79999999999987,29.19868189424983 39.899999999999864,29.19868189424983 39.899999999999864,29.298681894249825 C 40.099999999999866,29.298681894249825 40.29999999999987,29.298681894249825 40.49999999999986,29.19868189424983 C 40.799999999999855,29.098681894249836 41.09999999999985,28.99868189424984 41.399999999999864,28.89868189424982 C 41.49999999999986,28.998681894249813 41.49999999999986,29.298681894249825 41.599999999999866,29.298681894249825 C 41.899999999999864,29.298681894249825 42.29999999999987,29.39868189424982 42.49999999999987,29.19868189424983 C 43.29999999999987,28.798681894249825 43.99999999999987,28.19868189424983 44.79999999999987,27.798681894249825 C 45.899999999999864,27.098681894249836 46.99999999999987,26.39868189424982 48.099999999999866,25.69868189424983 C 48.399999999999864,25.49868189424984 48.599999999999866,25.298681894249825 48.899999999999864,24.99868189424984 C 48.29999999999987,24.598681894249836 47.99999999999986,24.798681894249853 47.599999999999866,25.098681894249836 C 46.19999999999986,25.99868189424984 44.79999999999987,26.99868189424984 43.399999999999864,27.898681894249847 C 43.19999999999986,27.99868189424984 42.899999999999864,27.99868189424984 42.599999999999866,27.99868189424984 C 42.69999999999986,27.798681894249853 42.79999999999987,27.598681894249836 42.899999999999864,27.49868189424984 C 43.99999999999986,26.798681894249853 45.19999999999986,25.99868189424984 46.399999999999864,25.298681894249853 C 46.69999999999986,25.098681894249864 46.899999999999864,24.898681894249847 46.79999999999987,24.49868189424984 C 46.49999999999987,24.598681894249836 46.099999999999866,24.69868189424983 45.899999999999864,24.798681894249853 C 45.099999999999866,25.298681894249853 44.399999999999864,25.898681894249847 43.49999999999986,26.398681894249847 C 42.799999999999855,26.798681894249853 42.19999999999986,27.49868189424984 41.299999999999855,27.49868189424984 C 41.299999999999855,27.398681894249847 41.299999999999855,27.19868189424983 41.39999999999985,27.098681894249836 C 42.39999999999985,26.49868189424984 43.499999999999844,25.898681894249847 44.499999999999844,25.19868189424983 C 44.79999999999984,24.99868189424984 45.09999999999984,24.69868189424983 45.29999999999984,24.49868189424984 C 45.29999999999984,24.398681894249847 45.19999999999985,24.298681894249853 45.19999999999985,24.298681894249853 C 44.89999999999985,24.298681894249853 44.69999999999985,24.298681894249853 44.499999999999844,24.49868189424984 C 44.09999999999984,24.69868189424983 43.69999999999985,24.99868189424984 43.29999999999984,25.19868189424983 C 42.09999999999984,25.99868189424984 40.79999999999984,26.69868189424983 39.59999999999984,27.49868189424984 C 39.29999999999984,27.898681894249847 38.999999999999844,27.99868189424984 38.59999999999984,28.098681894249836 L 38.59999999999988,28.098681894249864 M 84.79999999999988,22.69868189424986 C 84.49999999999989,22.598681894249864 84.19999999999989,22.49868189424987 83.89999999999988,22.298681894249853 C 83.19999999999987,21.898681894249847 82.59999999999988,21.19868189424986 81.59999999999988,21.398681894249847 C 81.79999999999988,21.69868189424986 81.89999999999988,21.99868189424984 81.99999999999989,22.19868189424986 C 81.29999999999988,21.99868189424987 80.59999999999988,21.69868189424986 79.99999999999989,21.49868189424987 C 79.99999999999989,21.598681894249864 79.89999999999989,21.69868189424986 79.89999999999989,21.69868189424986 C 80.0999999999999,21.798681894249853 80.2999999999999,21.99868189424987 80.49999999999989,22.098681894249864 C 80.59999999999988,22.19868189424986 80.69999999999989,22.398681894249876 80.79999999999988,22.598681894249864 C 80.49999999999989,22.49868189424987 80.19999999999989,22.398681894249876 79.89999999999988,22.298681894249853 C 79.39999999999988,21.99868189424984 78.89999999999988,21.49868189424984 78.19999999999987,21.798681894249853 C 78.39999999999988,22.098681894249864 78.49999999999987,22.398681894249847 78.69999999999987,22.598681894249864 C 78.19999999999987,22.69868189424986 77.89999999999988,22.398681894249876 77.59999999999988,22.098681894249864 C 77.09999999999988,21.798681894249853 76.59999999999988,21.398681894249876 75.89999999999988,21.898681894249876 C 76.39999999999988,22.198681894249887 76.79999999999988,22.49868189424987 77.29999999999988,22.79868189424988 C 79.29999999999988,23.99868189424987 81.29999999999988,25.198681894249887 83.39999999999988,26.398681894249876 C 83.59999999999988,26.49868189424987 83.79999999999988,26.49868189424987 83.99999999999987,26.49868189424987 C 83.89999999999988,26.098681894249864 83.79999999999987,25.898681894249876 83.49999999999987,25.79868189424988 C 82.09999999999987,24.99868189424987 80.69999999999987,24.198681894249887 79.39999999999988,23.29868189424988 C 79.19999999999987,23.198681894249887 78.69999999999987,23.098681894249893 78.79999999999988,22.598681894249893 C 79.09999999999988,22.698681894249887 79.39999999999988,22.698681894249887 79.69999999999989,22.898681894249904 C 81.29999999999988,23.898681894249904 82.89999999999989,24.898681894249904 84.49999999999989,25.898681894249904 C 84.89999999999989,26.198681894249916 85.29999999999988,26.398681894249904 85.99999999999989,26.29868189424991 C 85.79999999999988,25.9986818942499 85.69999999999989,25.898681894249904 85.59999999999988,25.79868189424991 C 85.09999999999988,25.398681894249904 84.49999999999989,25.09868189424992 83.99999999999989,24.79868189424991 C 83.89999999999989,24.698681894249916 83.89999999999989,24.4986818942499 83.79999999999988,24.398681894249904 C 84.09999999999988,24.4986818942499 84.29999999999988,24.598681894249893 84.59999999999988,24.698681894249916 C 85.39999999999988,25.09868189424992 86.09999999999988,25.59868189424992 86.79999999999988,26.09868189424992 C 87.09999999999988,26.29868189424991 87.39999999999988,26.398681894249933 87.89999999999988,25.998681894249927 C 86.29999999999988,24.998681894249927 84.79999999999988,24.09868189424992 83.29999999999988,23.09868189424992 C 82.99999999999989,22.898681894249933 82.39999999999988,22.79868189424991 82.39999999999988,22.198681894249916 C 82.59999999999988,22.198681894249916 82.89999999999988,22.198681894249916 82.99999999999987,22.29868189424991 C 83.79999999999987,22.79868189424991 84.59999999999987,23.29868189424991 85.29999999999987,23.79868189424991 C 86.29999999999987,24.4986818942499 87.29999999999987,25.09868189424992 88.29999999999987,25.698681894249916 C 88.69999999999987,25.898681894249904 89.09999999999987,26.29868189424991 89.79999999999987,25.898681894249904 C 89.59999999999987,25.79868189424991 89.49999999999987,25.698681894249916 89.29999999999987,25.598681894249893 C 88.19999999999987,24.898681894249904 87.09999999999987,24.198681894249887 85.89999999999986,23.4986818942499 C 85.29999999999987,23.29868189424991 84.79999999999987,23.198681894249887 84.79999999999987,22.698681894249887 C 84.99999999999987,22.698681894249887 85.29999999999987,22.698681894249887 85.49999999999987,22.79868189424988 C 86.89999999999988,23.598681894249893 88.19999999999987,24.49868189424987 89.49999999999987,25.398681894249876 C 89.89999999999986,25.698681894249887 90.39999999999986,25.99868189424987 90.99999999999986,25.898681894249876 C 90.89999999999986,25.698681894249887 90.89999999999986,25.49868189424987 90.89999999999986,25.49868189424987 C 88.79999999999987,24.19868189424986 86.69999999999986,22.898681894249876 84.59999999999987,21.598681894249864 C 84.29999999999987,21.398681894249876 83.99999999999987,21.49868189424987 83.69999999999986,21.398681894249876 C 83.69999999999986,21.49868189424987 83.59999999999987,21.49868189424987 83.59999999999987,21.598681894249864 C 83.89999999999986,21.798681894249853 84.29999999999987,21.99868189424987 84.59999999999987,22.298681894249853 C 84.69999999999986,22.298681894249853 84.69999999999986,22.49868189424984 84.79999999999987,22.69868189424986 L 84.79999999999988,22.69868189424986 M 83.69999999999989,39.19868189424986 C 84.49999999999989,39.098681894249864 85.29999999999988,38.89868189424985 86.0999999999999,38.79868189424985 C 88.89999999999989,38.598681894249864 91.59999999999988,38.39868189424985 94.39999999999989,38.29868189424985 C 94.6999999999999,38.29868189424985 94.99999999999989,38.29868189424985 95.39999999999989,38.29868189424985 C 96.59999999999988,38.29868189424985 96.7999999999999,38.098681894249864 96.7999999999999,36.89868189424985 C 96.7999999999999,34.098681894249836 96.7999999999999,31.398681894249847 96.7999999999999,28.598681894249836 C 96.7999999999999,28.398681894249847 96.7999999999999,28.19868189424983 96.7999999999999,27.99868189424984 C 96.7999999999999,27.49868189424984 96.49999999999989,27.19868189424983 95.99999999999989,27.19868189424983 C 95.59999999999988,27.19868189424983 95.19999999999987,27.19868189424983 94.7999999999999,27.298681894249825 C 91.49999999999989,27.598681894249836 88.0999999999999,27.998681894249813 84.7999999999999,28.098681894249836 C 84.39999999999989,28.098681894249836 83.9999999999999,28.098681894249836 83.6999999999999,28.19868189424983 C 83.2999999999999,28.99868189424984 83.2999999999999,38.098681894249836 83.6999999999999,39.19868189424983 L 83.69999999999989,39.19868189424986 M 61.19999999999989,32.29868189424985 C 61.19999999999989,31.798681894249853 61.099999999999895,31.19868189424986 61.19999999999989,30.69868189424986 C 61.39999999999989,29.598681894249864 60.79999999999988,28.99868189424987 59.89999999999989,28.49868189424987 C 58.2999999999999,27.69868189424986 56.69999999999989,26.99868189424987 55.099999999999895,26.098681894249864 C 54.2999999999999,25.69868189424986 53.69999999999989,25.798681894249853 52.9999999999999,26.19868189424986 C 51.899999999999906,26.99868189424987 50.7999999999999,27.598681894249864 49.599999999999895,28.298681894249853 C 48.39999999999989,29.098681894249864 47.19999999999989,29.798681894249853 45.9999999999999,30.598681894249864 C 45.6999999999999,30.798681894249853 45.4999999999999,31.19868189424986 45.4999999999999,31.49868189424987 C 45.4999999999999,32.898681894249876 45.4999999999999,34.398681894249876 45.4999999999999,35.79868189424988 C 45.4999999999999,36.29868189424988 45.7999999999999,36.398681894249876 46.1999999999999,36.49868189424987 C 46.399999999999906,36.49868189424987 46.6999999999999,36.49868189424987 46.899999999999906,36.49868189424987 C 48.59999999999991,36.398681894249876 50.399999999999906,36.19868189424986 52.09999999999991,36.098681894249864 C 54.6999999999999,35.898681894249876 57.399999999999906,35.69868189424986 59.999999999999915,35.49868189424987 C 60.09999999999991,35.49868189424987 60.09999999999991,35.49868189424987 60.19999999999992,35.49868189424987 C 60.999999999999915,35.398681894249876 61.19999999999992,35.19868189424986 61.19999999999992,34.398681894249876 C 61.19999999999992,33.69868189424989 61.19999999999992,32.99868189424987 61.19999999999992,32.29868189424988 L 61.19999999999989,32.29868189424985 M 59.59999999999988,26.69868189424986 C 59.59999999999988,26.298681894249853 59.699999999999875,25.99868189424987 59.699999999999875,25.798681894249853 C 59.699999999999875,19.898681894249847 59.699999999999875,13.998681894249842 59.699999999999875,8.09868189424985 C 59.699999999999875,6.898681894249847 59.199999999999875,5.998681894249856 58.29999999999987,5.298681894249853 C 57.099999999999866,4.198681894249859 55.49999999999987,4.198681894249859 54.099999999999866,5.198681894249859 C 52.399999999999864,6.398681894249862 52.49999999999987,7.998681894249856 52.599999999999866,9.898681894249862 C 52.99999999999987,9.798681894249867 53.19999999999986,9.698681894249859 53.399999999999864,9.598681894249864 C 53.599999999999866,9.598681894249864 53.99999999999986,9.49868189424987 54.099999999999866,9.598681894249864 C 54.49999999999987,9.99868189424987 54.99999999999987,9.898681894249862 55.399999999999864,9.898681894249862 C 56.29999999999987,9.898681894249862 57.19999999999986,9.898681894249862 58.099999999999866,9.898681894249862 C 58.29999999999987,9.898681894249862 58.49999999999987,9.998681894249856 58.599999999999866,10.098681894249864 C 58.599999999999866,10.198681894249859 58.599999999999866,10.198681894249859 58.599999999999866,10.298681894249867 C 58.399999999999864,10.398681894249862 58.099999999999866,10.49868189424987 57.899999999999864,10.49868189424987 C 56.99999999999986,10.49868189424987 56.19999999999986,10.49868189424987 55.29999999999987,10.49868189424987 C 54.49999999999987,10.49868189424987 54.199999999999875,10.598681894249864 54.199999999999875,11.49868189424987 C 54.199999999999875,15.49868189424987 54.199999999999875,19.49868189424987 54.199999999999875,23.49868189424987 C 54.199999999999875,23.99868189424987 54.39999999999988,24.398681894249876 54.89999999999988,24.598681894249864 C 56.49999999999987,25.098681894249864 57.99999999999987,25.898681894249876 59.59999999999988,26.69868189424986 M 67.09999999999988,7.898681894249862 C 66.79999999999988,8.898681894249862 66.79999999999988,21.098681894249864 67.09999999999988,22.298681894249853 C 67.29999999999988,22.298681894249853 67.59999999999988,22.298681894249853 67.79999999999988,22.19868189424986 C 69.09999999999988,21.69868189424986 70.39999999999988,21.19868189424986 71.69999999999989,20.69868189424986 C 72.19999999999989,20.49868189424987 72.29999999999988,20.098681894249864 72.29999999999988,19.69868189424986 C 72.29999999999988,14.898681894249847 72.29999999999988,10.098681894249864 72.29999999999988,5.298681894249853 C 72.29999999999988,4.798681894249853 72.19999999999989,4.298681894249853 71.99999999999989,3.798681894249853 C 71.09999999999988,1.3986818942498473 68.09999999999988,0.8986818942498473 66.29999999999988,2.498681894249856 C 64.89999999999988,3.8986818942498616 65.09999999999988,5.59868189424985 65.19999999999989,7.198681894249859 C 65.99999999999989,7.698681894249859 65.99999999999989,6.698681894249859 66.69999999999989,6.698681894249859 C 66.89999999999989,7.598681894249864 67.5999999999999,7.398681894249862 68.29999999999988,7.398681894249862 C 69.09999999999988,7.398681894249862 69.89999999999988,7.398681894249862 70.69999999999989,7.398681894249862 C 70.89999999999989,7.398681894249862 70.99999999999989,7.498681894249856 71.19999999999989,7.598681894249864 C 71.19999999999989,7.698681894249859 71.19999999999989,7.798681894249867 71.19999999999989,7.798681894249867 C 69.69999999999989,7.898681894249862 68.39999999999989,7.898681894249862 67.0999999999999,7.898681894249862 L 67.09999999999988,7.898681894249862 M 69.59999999999988,32.098681894249864 C 69.59999999999988,34.19868189424986 69.59999999999988,36.19868189424986 69.59999999999988,38.29868189424985 C 70.29999999999988,38.39868189424985 70.99999999999989,38.598681894249864 71.69999999999987,38.69868189424986 C 72.39999999999988,38.79868189424985 73.19999999999987,38.79868189424985 73.89999999999988,38.89868189424985 C 74.59999999999988,38.99868189424984 74.89999999999988,38.89868189424985 74.89999999999988,38.098681894249836 C 74.89999999999988,36.49868189424984 74.89999999999988,34.89868189424985 74.89999999999988,33.298681894249825 C 74.89999999999988,33.098681894249836 74.79999999999988,32.798681894249825 74.79999999999988,32.49868189424981 C 73.09999999999988,32.49868189424981 71.39999999999988,31.89868189424982 69.59999999999988,32.09868189424981 L 69.59999999999988,32.098681894249864 M 47.29999999999988,38.598681894249864 C 47.29999999999988,38.49868189424987 47.29999999999988,38.398681894249876 47.29999999999988,38.29868189424985 C 46.69999999999989,38.29868189424985 46.19999999999989,38.29868189424985 45.59999999999988,38.29868189424985 C 44.29999999999988,38.19868189424986 42.89999999999988,38.098681894249864 41.59999999999988,37.89868189424985 C 40.199999999999875,37.69868189424986 38.89999999999988,37.39868189424985 37.499999999999886,37.39868189424985 C 34.79999999999988,37.39868189424985 32.09999999999988,37.598681894249836 29.399999999999892,37.79868189424985 C 28.999999999999886,37.79868189424985 28.799999999999898,37.99868189424984 28.69999999999989,38.29868189424985 C 28.599999999999895,38.69868189424986 28.499999999999886,39.098681894249864 28.999999999999886,39.39868189424985 C 29.499999999999886,39.29868189424985 29.899999999999892,39.19868189424986 30.299999999999883,39.19868189424986 C 33.29999999999988,38.99868189424987 36.29999999999988,39.098681894249864 39.29999999999988,38.79868189424985 C 41.69999999999989,38.49868189424984 44.09999999999988,38.69868189424986 46.499999999999886,38.598681894249864 C 46.59999999999988,38.69868189424986 46.89999999999989,38.598681894249864 47.29999999999988,38.598681894249864 M 64.99999999999989,22.99868189424987 C 65.89999999999989,22.898681894249876 65.99999999999989,22.79868189424988 65.99999999999989,21.99868189424987 C 65.99999999999989,17.69868189424986 65.99999999999989,13.398681894249876 65.99999999999989,9.098681894249864 C 65.99999999999989,8.898681894249862 65.99999999999989,8.598681894249864 65.99999999999989,8.398681894249862 C 65.89999999999989,8.198681894249859 65.69999999999989,7.998681894249856 65.49999999999989,7.898681894249862 C 65.29999999999988,7.898681894249862 65.09999999999988,8.098681894249864 64.99999999999989,8.298681894249867 C 64.89999999999989,8.49868189424987 64.99999999999989,8.798681894249867 64.99999999999989,8.99868189424987 C 64.99999999999989,12.398681894249876 64.99999999999989,15.898681894249876 64.99999999999989,19.29868189424988 C 64.99999999999989,20.598681894249893 64.99999999999989,21.698681894249887 64.99999999999989,22.99868189424987 M 53.29999999999988,23.69868189424986 C 53.29999999999988,23.398681894249847 53.39999999999988,23.098681894249864 53.39999999999988,22.798681894249853 C 53.39999999999988,18.99868189424984 53.39999999999988,15.198681894249859 53.39999999999988,11.398681894249847 C 53.39999999999988,11.198681894249859 53.39999999999988,10.998681894249842 53.39999999999988,10.898681894249847 C 53.29999999999988,10.698681894249859 53.199999999999875,10.59868189424985 52.99999999999987,10.398681894249847 C 52.79999999999987,10.498681894249842 52.599999999999866,10.698681894249859 52.49999999999987,10.898681894249847 C 52.39999999999988,11.098681894249836 52.49999999999987,11.298681894249853 52.49999999999987,11.498681894249842 C 52.49999999999987,12.998681894249842 52.49999999999987,14.498681894249842 52.49999999999987,15.998681894249842 C 52.49999999999987,18.298681894249853 52.49999999999987,20.598681894249836 52.49999999999987,22.798681894249853 C 52.599999999999866,23.298681894249853 52.599999999999866,23.69868189424986 53.29999999999987,23.69868189424986 L 53.29999999999988,23.69868189424986 M 87.29999999999988,19.298681894249853 C 87.29999999999988,19.19868189424986 87.29999999999988,19.098681894249864 87.29999999999988,19.098681894249864 C 86.89999999999988,19.098681894249864 86.49999999999989,18.99868189424987 86.09999999999988,18.99868189424987 C 82.39999999999988,18.898681894249876 78.69999999999987,18.898681894249876 74.89999999999988,18.79868189424988 C 74.69999999999987,18.79868189424988 74.49999999999987,18.79868189424988 74.29999999999988,18.79868189424988 C 73.89999999999988,18.898681894249876 73.59999999999988,19.098681894249893 73.69999999999989,19.49868189424987 C 73.79999999999988,19.69868189424986 74.0999999999999,19.898681894249876 74.39999999999989,20.098681894249864 C 74.49999999999989,20.098681894249864 74.5999999999999,20.098681894249864 74.69999999999989,20.098681894249864 C 78.79999999999988,19.798681894249853 82.99999999999989,19.598681894249864 87.0999999999999,19.298681894249853 C 87.19999999999989,19.398681894249847 87.19999999999989,19.398681894249847 87.2999999999999,19.298681894249853 L 87.29999999999988,19.298681894249853 M 48.39999999999989,37.99868189424984 C 48.39999999999989,38.098681894249836 48.39999999999989,38.19868189424983 48.39999999999989,38.29868189424985 C 49.19999999999989,38.29868189424985 49.89999999999989,38.29868189424985 50.69999999999989,38.29868189424985 C 53.89999999999989,38.19868189424986 57.099999999999895,37.99868189424984 60.19999999999989,37.89868189424985 C 60.39999999999989,37.89868189424985 60.599999999999895,37.89868189424985 60.69999999999989,37.79868189424985 C 60.79999999999988,37.69868189424986 60.999999999999886,37.49868189424984 60.999999999999886,37.39868189424985 C 60.999999999999886,37.19868189424986 60.79999999999988,36.99868189424984 60.69999999999989,36.89868189424985 C 60.39999999999989,36.79868189424985 60.099999999999895,36.89868189424985 59.79999999999988,36.89868189424985 C 58.29999999999988,36.99868189424984 56.89999999999988,37.19868189424986 55.39999999999988,37.29868189424985 C 53.09999999999988,37.49868189424984 50.79999999999988,37.598681894249864 48.59999999999988,37.79868189424985 C 48.59999999999988,37.89868189424985 48.499999999999886,37.99868189424984 48.39999999999988,37.99868189424984 L 48.39999999999989,37.99868189424984 M 42.89999999999989,22.298681894249853 C 42.89999999999989,22.398681894249847 42.89999999999989,22.49868189424984 42.89999999999989,22.598681894249864 C 43.69999999999989,22.69868189424986 44.499999999999886,22.69868189424986 45.2999999999999,22.798681894249853 C 46.7999999999999,22.99868189424984 48.2999999999999,23.298681894249853 49.7999999999999,23.49868189424984 C 50.39999999999989,23.598681894249836 50.7999999999999,23.298681894249853 50.7999999999999,22.69868189424983 C 50.7999999999999,22.19868189424983 50.4999999999999,21.99868189424984 49.7999999999999,21.99868189424984 C 47.7999999999999,22.098681894249836 45.7999999999999,22.19868189424983 43.7999999999999,22.298681894249853 C 43.599999999999895,22.19868189424986 43.2999999999999,22.298681894249853 42.89999999999989,22.298681894249853 M 51.19999999999989,25.49868189424984 C 50.89999999999989,25.298681894249853 50.69999999999989,25.098681894249836 50.499999999999886,25.19868189424983 C 49.999999999999886,25.298681894249825 49.39999999999989,25.49868189424984 48.89999999999989,25.798681894249825 C 47.19999999999989,26.798681894249825 45.499999999999886,27.89868189424982 43.69999999999989,28.998681894249813 C 43.499999999999886,29.098681894249808 43.29999999999988,29.39868189424982 43.19999999999989,29.698681894249802 C 43.29999999999988,29.798681894249796 43.29999999999988,29.89868189424979 43.39999999999989,29.998681894249813 C 46.099999999999895,28.598681894249808 48.499999999999886,26.998681894249813 51.19999999999989,25.498681894249813 L 51.19999999999989,25.49868189424984 M 102.59999999999988,31.19868189424983 C 101.29999999999987,31.098681894249836 100.19999999999987,30.89868189424982 98.99999999999989,30.89868189424982 C 98.39999999999989,30.89868189424982 98.19999999999987,31.098681894249808 98.19999999999987,31.69868189424983 C 98.19999999999987,32.298681894249825 98.29999999999987,32.49868189424984 98.89999999999986,32.598681894249836 C 99.39999999999986,32.69868189424983 99.79999999999987,32.598681894249836 100.29999999999987,32.69868189424983 C 101.69999999999987,32.798681894249825 102.19999999999987,32.49868189424984 102.59999999999988,31.19868189424983 M 32.79999999999988,28.39868189424982 C 33.499999999999886,28.19868189424983 33.89999999999988,28.098681894249808 34.29999999999988,27.89868189424982 C 36.09999999999988,26.798681894249825 37.999999999999886,25.598681894249808 39.79999999999988,24.39868189424982 C 40.29999999999988,24.098681894249808 40.19999999999989,23.89868189424982 39.999999999999886,23.598681894249808 C 39.89999999999989,23.598681894249808 39.79999999999988,23.598681894249808 39.79999999999988,23.598681894249808 C 37.59999999999988,24.89868189424982 35.29999999999988,26.298681894249796 33.09999999999988,27.598681894249808 C 32.999999999999886,27.698681894249802 32.999999999999886,27.998681894249813 32.79999999999988,28.39868189424982 M 87.19999999999987,20.998681894249813 C 87.49999999999987,21.298681894249825 87.69999999999987,21.598681894249808 87.99999999999987,21.698681894249802 C 89.89999999999986,22.89868189424979 91.79999999999987,24.098681894249808 93.69999999999987,25.298681894249796 C 94.09999999999988,25.498681894249785 94.49999999999989,25.89868189424979 95.09999999999988,25.498681894249785 C 94.99999999999989,25.298681894249796 94.89999999999989,25.09868189424978 94.69999999999987,24.998681894249785 C 92.39999999999986,23.59868189424978 90.09999999999988,22.298681894249796 87.79999999999987,20.89868189424979 C 87.69999999999987,20.89868189424979 87.49999999999987,20.998681894249785 87.19999999999987,20.998681894249785 L 87.19999999999987,20.998681894249813 M 93.09999999999988,25.598681894249808 C 92.09999999999988,24.89868189424982 91.09999999999988,24.298681894249796 90.19999999999987,23.798681894249796 C 88.99999999999987,22.998681894249785 87.79999999999987,22.298681894249796 86.59999999999988,21.498681894249785 C 86.19999999999987,21.298681894249796 85.79999999999988,20.998681894249785 85.29999999999988,21.498681894249785 C 85.59999999999988,21.698681894249773 85.89999999999988,21.89868189424979 86.19999999999989,21.998681894249785 C 88.0999999999999,23.198681894249773 89.89999999999989,24.298681894249796 91.7999999999999,25.498681894249785 C 92.1999999999999,25.798681894249796 92.49999999999989,25.89868189424979 93.09999999999991,25.59868189424978 L 93.09999999999988,25.598681894249808 M 61.499999999999886,20.798681894249796 C 61.999999999999886,20.798681894249796 62.39999999999989,20.798681894249796 62.79999999999988,20.798681894249796 C 62.999999999999886,20.798681894249796 63.29999999999988,20.498681894249785 63.29999999999988,20.39868189424979 C 63.29999999999988,19.89868189424979 63.39999999999988,19.298681894249796 63.09999999999988,18.89868189424979 C 62.79999999999988,18.498681894249785 62.199999999999875,18.798681894249796 61.79999999999988,18.89868189424979 C 61.59999999999988,18.998681894249785 61.39999999999988,19.09868189424978 61.19999999999989,19.198681894249802 C 61.29999999999988,19.698681894249802 61.39999999999989,20.198681894249802 61.499999999999886,20.798681894249796 M 108.79999999999987,34.298681894249796 C 108.09999999999988,34.298681894249796 107.39999999999986,34.1986818942498 106.69999999999987,34.1986818942498 C 106.69999999999987,35.09868189424981 106.69999999999987,35.89868189424979 106.69999999999987,36.59868189424981 C 107.19999999999987,36.798681894249796 107.39999999999986,36.6986818942498 107.59999999999988,36.298681894249796 C 107.89999999999989,35.59868189424981 108.29999999999987,34.998681894249785 108.79999999999987,34.298681894249796 M 27.399999999999864,34.798681894249796 C 27.69999999999986,35.1986818942498 27.899999999999864,35.59868189424981 28.19999999999986,35.798681894249796 C 28.499999999999858,35.998681894249785 28.999999999999858,35.998681894249785 29.399999999999864,35.89868189424979 C 29.599999999999866,35.89868189424979 29.79999999999987,35.39868189424979 29.79999999999987,35.1986818942498 C 29.79999999999987,34.89868189424979 29.599999999999866,34.59868189424981 29.399999999999864,34.49868189424981 C 29.099999999999866,34.39868189424982 28.69999999999986,34.39868189424982 28.399999999999864,34.39868189424982 C 27.999999999999858,34.39868189424982 27.79999999999987,34.59868189424981 27.399999999999864,34.798681894249825 L 27.399999999999864,34.798681894249796 M 63.19999999999986,21.798681894249796 C 62.69999999999986,21.798681894249796 62.299999999999855,21.798681894249796 61.799999999999855,21.798681894249796 C 61.299999999999855,21.89868189424979 61.09999999999985,22.298681894249796 61.39999999999985,22.698681894249802 C 61.59999999999985,22.998681894249813 62.39999999999985,23.198681894249802 62.799999999999855,22.998681894249813 C 63.299999999999855,22.698681894249802 63.49999999999986,22.39868189424982 63.19999999999986,21.798681894249825 L 63.19999999999986,21.798681894249796 M 38.99999999999986,32.998681894249785 C 38.49999999999986,32.998681894249785 38.299999999999855,33.19868189424977 38.19999999999986,33.69868189424977 C 38.19999999999986,34.09868189424978 38.599999999999866,34.59868189424978 38.99999999999986,34.59868189424978 C 39.399999999999864,34.59868189424978 39.799999999999855,34.29868189424977 39.799999999999855,33.89868189424979 C 39.799999999999855,33.39868189424979 39.39999999999985,32.998681894249785 38.99999999999986,32.998681894249785 M 101.29999999999987,33.798681894249796 C 100.89999999999986,33.798681894249796 100.49999999999986,33.89868189424979 100.09999999999988,33.89868189424979 C 100.29999999999987,34.6986818942498 100.39999999999989,35.39868189424979 100.59999999999988,36.1986818942498 C 101.29999999999987,35.1986818942498 101.29999999999987,35.1986818942498 101.29999999999987,33.798681894249796 M 35.199999999999875,32.598681894249864 C 34.99999999999987,32.99868189424987 34.699999999999875,33.398681894249876 35.199999999999875,33.79868189424985 C 35.49999999999987,33.99868189424984 35.89999999999988,34.39868189424985 36.199999999999875,33.99868189424984 C 36.39999999999988,33.79868189424985 36.49999999999987,33.39868189424985 36.39999999999988,33.19868189424983 C 36.29999999999988,32.598681894249836 35.79999999999988,32.49868189424984 35.199999999999875,32.598681894249836 L 35.199999999999875,32.598681894249864 M 21.799999999999876,38.598681894249864 C 21.399999999999878,38.99868189424987 21.599999999999874,39.398681894249876 21.799999999999876,39.79868189424985 C 21.799999999999876,39.89868189424985 21.99999999999988,39.99868189424984 22.099999999999874,39.89868189424985 C 22.199999999999875,39.89868189424985 22.39999999999987,39.79868189424985 22.39999999999987,39.69868189424986 C 22.599999999999874,39.19868189424986 22.499999999999872,38.79868189424985 21.79999999999987,38.598681894249864 L 21.799999999999876,38.598681894249864 M 28.399999999999878,49.598681894249864 C 28.59999999999988,49.598681894249864 28.699999999999875,49.598681894249864 28.899999999999878,49.598681894249864 C 30.699999999999875,49.598681894249864 32.49999999999987,49.598681894249864 34.29999999999988,49.598681894249864 C 39.69999999999989,49.69868189424986 45.19999999999989,49.79868189424985 50.59999999999988,50.098681894249864 C 52.79999999999988,50.19868189424986 54.89999999999988,50.29868189424985 57.09999999999988,50.49868189424987 C 58.999999999999886,50.69868189424986 60.999999999999886,50.898681894249876 62.89999999999988,51.19868189424986 C 63.09999999999988,51.19868189424986 63.29999999999988,51.19868189424986 63.49999999999987,51.29868189424985 C 65.49999999999987,51.49868189424984 67.59999999999987,51.598681894249864 69.59999999999987,51.89868189424985 C 71.19999999999986,52.098681894249836 72.79999999999987,52.39868189424985 74.39999999999986,52.69868189424986 C 74.69999999999986,52.69868189424986 74.89999999999986,52.89868189424985 75.39999999999986,52.99868189424987 C 74.99999999999986,53.098681894249864 74.89999999999986,53.19868189424986 74.69999999999986,53.19868189424986 C 72.39999999999986,53.39868189424985 70.09999999999987,53.598681894249864 67.79999999999986,53.79868189424985 C 66.09999999999985,53.89868189424985 64.29999999999986,53.79868189424985 62.59999999999985,53.49868189424984 C 60.89999999999985,53.19868189424983 59.19999999999985,53.098681894249836 57.49999999999986,52.99868189424984 C 54.399999999999864,52.69868189424983 51.299999999999855,52.49868189424984 48.19999999999986,52.29868189424985 C 45.99999999999986,52.19868189424986 43.69999999999986,52.098681894249864 41.49999999999986,51.89868189424985 C 39.09999999999985,51.79868189424985 36.59999999999985,51.598681894249836 34.19999999999986,51.49868189424984 C 32.99999999999986,51.39868189424985 31.69999999999986,51.19868189424983 30.599999999999866,50.69868189424983 C 30.399999999999864,50.598681894249836 30.19999999999986,50.69868189424983 30.099999999999866,50.598681894249836 C 29.599999999999866,50.49868189424984 28.999999999999872,50.298681894249825 28.499999999999872,50.098681894249836 C 28.29999999999987,49.798681894249825 28.399999999999878,49.69868189424983 28.399999999999878,49.598681894249836 L 28.399999999999878,49.598681894249864 M 52.89999999999988,53.99868189424987 C 50.699999999999875,54.898681894249876 46.79999999999988,54.69868189424986 43.59999999999988,53.69868189424986 C 43.89999999999988,53.598681894249864 43.999999999999886,53.49868189424987 44.199999999999875,53.49868189424987 C 45.89999999999988,53.598681894249864 47.699999999999875,53.69868189424986 49.39999999999988,53.79868189424988 C 50.199999999999875,53.79868189424988 50.99999999999987,53.898681894249876 51.699999999999875,53.99868189424987 C 52.199999999999875,53.99868189424987 52.49999999999987,53.99868189424987 52.89999999999988,53.99868189424987 M 111.09999999999988,28.898681894249876 C 111.79999999999987,28.898681894249876 112.59999999999988,28.898681894249876 113.29999999999987,28.898681894249876 C 112.39999999999986,29.398681894249876 111.79999999999987,29.398681894249876 111.09999999999988,28.898681894249876 C 111.09999999999988,28.898681894249876 111.09999999999988,28.898681894249876 111.09999999999988,28.898681894249876 M 118.59999999999988,38.398681894249876 C 119.09999999999988,38.398681894249876 119.59999999999988,38.398681894249876 120.09999999999988,38.398681894249876 C 119.49999999999989,38.69868189424989 119.49999999999989,38.69868189424989 118.59999999999988,38.398681894249876 M 40.999999999999886,19.298681894249853 C 41.09999999999988,19.298681894249853 41.29999999999988,19.298681894249853 41.39999999999989,19.298681894249853 C 41.39999999999989,19.298681894249853 41.39999999999989,19.298681894249853 41.39999999999989,19.298681894249853 C 41.19999999999989,19.298681894249853 41.099999999999895,19.298681894249853 40.999999999999886,19.298681894249853 C 40.999999999999886,19.298681894249853 40.999999999999886,19.298681894249853 40.999999999999886,19.298681894249853 M 88.89999999999988,34.398681894249876 C 88.89999999999988,34.79868189424988 88.99999999999987,35.29868189424988 88.99999999999987,35.69868189424989 C 88.99999999999987,36.398681894249876 88.69999999999987,36.69868189424989 87.89999999999988,36.79868189424988 C 87.09999999999988,36.898681894249876 86.69999999999987,36.59868189424989 86.59999999999988,35.898681894249876 C 86.59999999999988,35.79868189424988 86.59999999999988,35.598681894249864 86.59999999999988,35.49868189424987 C 86.59999999999988,35.098681894249864 86.59999999999988,34.79868189424988 86.59999999999988,34.49868189424987 C 87.29999999999988,33.898681894249876 87.99999999999989,33.598681894249864 88.89999999999988,34.398681894249876 M 91.49999999999989,33.79868189424985 C 92.2999999999999,33.79868189424985 92.99999999999989,33.79868189424985 93.69999999999987,33.79868189424985 C 93.69999999999987,34.29868189424985 93.79999999999987,34.79868189424985 93.79999999999987,35.19868189424986 C 93.79999999999987,36.19868189424986 92.79999999999987,36.69868189424986 91.99999999999986,36.29868189424985 C 91.79999999999987,36.19868189424986 91.59999999999985,35.89868189424985 91.59999999999985,35.598681894249864 C 91.39999999999986,35.098681894249864 91.49999999999986,34.598681894249864 91.49999999999986,33.79868189424985 L 91.49999999999989,33.79868189424985 M 52.39999999999988,34.598681894249864 C 51.699999999999875,34.69868189424986 51.39999999999988,34.398681894249876 51.39999999999988,33.598681894249864 C 51.39999999999988,32.898681894249876 51.699999999999875,32.49868189424987 52.39999999999988,32.49868189424987 C 53.699999999999875,32.398681894249876 55.09999999999988,32.19868189424986 56.39999999999988,32.098681894249864 C 57.29999999999988,31.99868189424987 57.79999999999988,32.898681894249876 57.39999999999988,33.69868189424986 C 57.29999999999988,33.89868189424985 56.99999999999987,34.19868189424986 56.79999999999988,34.19868189424986 C 55.29999999999988,34.39868189424985 53.89999999999988,34.49868189424987 52.39999999999988,34.598681894249864 M 80.69999999999987,22.598681894249864 C 81.59999999999988,22.69868189424986 82.19999999999987,23.298681894249853 82.89999999999988,23.69868189424986 C 83.19999999999987,23.798681894249853 83.29999999999988,24.098681894249864 83.59999999999988,24.298681894249853 C 83.39999999999988,24.298681894249853 83.19999999999987,24.398681894249847 83.09999999999988,24.298681894249853 C 82.29999999999988,23.798681894249853 81.59999999999988,23.398681894249847 80.79999999999988,22.898681894249847 C 80.59999999999988,22.898681894249847 80.69999999999989,22.69868189424986 80.69999999999989,22.598681894249836 L 80.69999999999987,22.598681894249864 M 41.39999999999988,28.898681894249876 C 41.59999999999988,28.29868189424988 42.09999999999988,27.99868189424987 42.699999999999875,27.99868189424987 C 42.49999999999987,28.598681894249864 42.09999999999988,28.898681894249876 41.39999999999988,28.898681894249876" id="path164"/>
</svg>
