<?xml version="1.0" ?>
<svg xmlns="http://www.w3.org/2000/svg" xmlns:ev="http://www.w3.org/2001/xml-events" xmlns:xlink="http://www.w3.org/1999/xlink" baseProfile="full" height="341" id="Layer_1" style="enable-background:new 0 0 500 500;" transform="scale(0.2932551319648094 0.2932551319648094) translate(-235.0 -170.5)" version="1.1" viewBox="0 0 470 341" width="470" x="0px" xml:space="preserve" y="0px">
	<defs/>
	<path d="M 182.2144333479541,16.406160372015975 C 197.7144333479541,31.606160372015978 208.4144333479541,47.10616037201598 206.6144333479541,68.80616037201598 C 205.6144333479541,80.80616037201598 206.3144333479541,93.00616037201597 206.5144333479541,105.20616037201599 C 206.6144333479541,108.006160372016 204.91443334795412,111.60616037201599 209.31443334795412,114.006160372016 C 213.71443334795413,106.30616037201601 212.61443334795413,97.506160372016 215.0144333479541,89.60616037201599 C 217.0144333479541,82.80616037201598 218.41443334795412,75.80616037201598 220.41443334795412,69.006160372016 C 221.21443334795413,66.406160372016 222.5144333479541,62.406160372016004 224.5144333479541,61.80616037201601 C 236.91443334795412,57.80616037201601 236.6144333479541,50.206160372016015 232.5144333479541,40.10616037201601 C 227.91443334795412,28.606160372016006 238.41443334795412,24.406160372016004 244.4144333479541,18.30616037201601 C 245.81443334795406,16.906160372016004 247.4144333479541,18.506160372016012 249.0144333479541,19.406160372016004 C 258.61443334795416,24.206160372016 265.4144333479541,20.506160372015998 266.4144333479541,10.106160372016006 C 266.9144333479541,5.206160372016001 266.2144333479541,0.2061603720160008 274.01443334795414,0.006160372016012161 C 281.81443334795415,-0.19383962798399068 281.61443334795416,4.506160372016012 281.61443334795416,9.706160372016015 C 281.51443334795414,18.006160372016012 285.7144333479542,19.006160372016012 293.31443334795415,18.506160372016012 C 320.4144333479542,16.606160372016006 347.4144333479542,18.606160372016006 374.31443334795415,21.506160372016012 C 382.51443334795414,22.406160372016018 381.61443334795416,29.106160372016006 381.61443334795416,34.40616037201602 C 381.7144333479542,39.10616037201602 380.31443334795415,43.90616037201602 373.4144333479542,42.206160372016015 C 367.7144333479542,40.80616037201601 369.9144333479542,44.50616037201601 370.4144333479542,47.00616037201601 C 373.9144333479542,64.70616037201602 377.7144333479542,82.406160372016 381.0144333479542,100.20616037201602 C 381.8144333479542,104.406160372016 384.4144333479542,108.406160372016 381.1144333479542,113.20616037201602 C 378.41443334795423,117.10616037201602 382.3144333479542,119.10616037201602 385.71443334795424,119.30616037201601 C 405.41443334795423,120.20616037201602 423.01443334795425,127.906160372016 440.81443334795426,135.106160372016 C 448.4144333479543,138.20616037201603 455.1144333479543,141.00616037201604 455.81443334795426,150.806160372016 C 456.31443334795426,157.306160372016 462.81443334795426,161.106160372016 464.21443334795424,167.806160372016 C 465.41443334795423,173.70616037201603 466.91443334795423,177.30616037201605 458.81443334795426,174.306160372016 C 457.81443334795426,173.90616037201602 456.71443334795424,173.50616037201598 455.71443334795424,173.70616037201603 C 451.81443334795426,174.40616037201602 446.71443334795424,169.106160372016 444.31443334795426,174.20616037201603 C 442.4144333479543,178.40616037201602 450.01443334795425,178.20616037201603 450.71443334795424,181.20616037201603 C 452.81443334795426,190.106160372016 462.41443334795423,194.90616037201602 461.91443334795423,205.50616037201604 C 461.6144333479542,211.60616037201606 465.1144333479542,219.20616037201603 467.21443334795424,224.10616037201606 C 471.01443334795425,233.2061603720161 466.71443334795424,241.10616037201606 468.81443334795426,249.60616037201606 C 470.31443334795426,255.7061603720161 466.9144333479543,264.50616037201604 464.51443334795425,271.50616037201604 C 461.01443334795425,281.50616037201604 456.81443334795426,292.50616037201604 449.51443334795425,299.406160372016 C 443.21443334795424,305.306160372016 440.51443334795425,315.00616037201604 430.51443334795425,317.906160372016 C 424.41443334795423,319.606160372016 419.6144333479543,325.406160372016 413.81443334795426,328.906160372016 C 400.71443334795424,336.906160372016 386.51443334795425,339.106160372016 372.71443334795424,339.806160372016 C 364.41443334795423,340.206160372016 354.81443334795426,339.906160372016 345.41443334795423,337.106160372016 C 337.51443334795425,334.70616037201603 330.51443334795425,329.606160372016 322.01443334795425,328.606160372016 C 315.01443334795425,327.806160372016 309.6144333479543,321.106160372016 305.51443334795425,317.106160372016 C 299.6144333479543,311.406160372016 292.71443334795424,305.506160372016 287.71443334795424,297.806160372016 C 281.91443334795423,288.906160372016 278.51443334795425,279.006160372016 272.81443334795426,270.206160372016 C 270.71443334795424,266.90616037201596 268.01443334795425,267.706160372016 265.4144333479543,267.706160372016 C 233.01443334795425,267.60616037201595 200.51443334795425,267.90616037201596 168.11443334795425,267.40616037201596 C 161.81443334795424,267.30616037201594 158.21443334795424,271.90616037201596 158.41443334795426,275.006160372016 C 159.01443334795425,287.806160372016 151.61443334795425,297.206160372016 145.71443334795427,306.606160372016 C 139.61443334795428,316.406160372016 130.31443334795426,324.20616037201603 119.81443334795426,329.906160372016 C 109.11443334795426,335.70616037201603 97.71443334795427,339.306160372016 85.61443334795426,339.906160372016 C 67.81443334795426,340.70616037201603 51.71443334795427,336.406160372016 36.21443334795426,326.70616037201603 C 25.214433347954262,319.906160372016 17.514433347954267,310.406160372016 11.014433347954265,300.50616037201604 C 4.614433347954263,290.906160372016 1.7144333479542642,279.10616037201606 0.41443334795426523,266.80616037201605 C -0.9855666520457351,254.10616037201606 1.3144333479542656,242.10616037201606 5.014433347954265,230.90616037201607 C 8.514433347954265,220.40616037201607 14.514433347954265,209.80616037201605 23.314433347954264,202.7061603720161 C 28.514433347954267,198.5061603720161 31.61443334795426,194.10616037201606 32.61443334795426,188.10616037201606 C 35.61443334795426,169.30616037201605 44.314433347954264,152.30616037201605 49.71443334795427,134.30616037201605 C 51.614433347954275,127.80616037201604 56.51443334795427,125.70616037201604 62.51443334795427,124.60616037201605 C 101.21443334795427,118.10616037201605 140.21443334795427,114.30616037201604 179.51443334795428,114.40616037201606 C 188.21443334795427,114.40616037201606 192.21443334795427,112.90616037201606 191.61443334795428,102.80616037201607 C 190.61443334795428,87.50616037201605 191.31443334795426,72.20616037201607 191.71443334795427,56.806160372016066 C 191.91443334795426,50.306160372016066 189.61443334795428,45.10616037201606 185.81443334795426,40.10616037201606 C 181.0144333479541,33.406160372015975 179.6144333479541,26.106160372015964 182.2144333479541,16.406160372015975"/>
</svg>
