<?xml version="1.0" ?>
<svg xmlns="http://www.w3.org/2000/svg" xmlns:ev="http://www.w3.org/2001/xml-events" xmlns:xlink="http://www.w3.org/1999/xlink" baseProfile="full" height="430" id="Layer_1" style="enable-background:new 0 0 500 500;" transform="scale(0.23255813953488372 0.23255813953488372) translate(-223.0 -215.0)" version="1.1" viewBox="0 0 446 430" width="446" x="0px" xml:space="preserve" y="0px">
	<defs/>
	<path d="M 73.50818502101754,328.4 C 74.50818502101754,332.2 77.50818502101754,333.09999999999997 79.80818502101752,334.7 C 101.50818502101751,349.7 109.00818502101751,372.8 99.80818502101752,396.5 C 91.50818502101754,417.8 67.50818502101754,432.0 45.40818502101752,428.6 C 21.20818502101752,424.90000000000003 2.108185021017526,404.5 0.5081850210175247,380.6 C -1.0918149789824767,357.3 14.70818502101752,334.8 38.30818502101753,328.0 C 45.208185021017535,326.0 46.90818502101752,324.3 43.80818502101753,317.2 C 29.80818502101753,284.9 16.508185021017532,252.29999999999995 2.7081850210175276,219.89999999999998 C -4.991814978982472,201.89999999999998 4.208185021017528,188.09999999999997 24.208185021017528,188.2 C 32.30818502101753,188.2 40.40818502101752,188.0 48.50818502101753,188.7 C 56.30818502101753,189.29999999999998 59.708185021017535,187.1 58.90818502101754,178.6 C 58.10818502101754,169.6 59.00818502101753,160.5 58.60818502101754,151.4 C 58.40818502101754,146.0 60.708185021017535,143.8 65.30818502101755,145.20000000000002 C 70.10818502101753,146.70000000000002 78.90818502101754,140.3 79.20818502101756,151.4 C 79.50818502101754,161.1 79.40818502101754,170.8 79.30818502101755,180.6 C 79.20818502101756,186.0 80.80818502101755,188.5 87.10818502101753,188.4 C 117.60818502101753,188.0 148.00818502101754,188.20000000000002 178.50818502101754,188.20000000000002 C 180.40818502101754,188.20000000000002 182.60818502101753,187.60000000000002 184.30818502101755,188.20000000000002 C 205.90818502101754,195.20000000000002 212.10818502101756,176.70000000000002 222.50818502101757,165.10000000000002 C 225.90818502101757,161.3 221.90818502101757,160.00000000000003 219.90818502101757,158.60000000000002 C 215.10818502101756,155.3 210.20818502101758,152.10000000000002 206.70818502101758,147.3 C 204.90818502101757,144.8 203.5081850210176,142.3 206.20818502101758,139.5 C 208.90818502101757,136.7 212.0081850210176,136.0 214.70818502101758,138.9 C 220.40818502101757,145.20000000000002 226.30818502101758,144.3 233.6081850210176,141.5 C 245.1081850210176,137.2 257.40818502101763,139.5 269.3081850210176,139.4 C 278.90818502101763,139.3 285.0081850210176,135.3 285.2081850210176,125.30000000000001 C 285.5081850210176,109.4 293.2081850210176,96.9 302.9081850210176,85.30000000000001 C 306.4081850210176,81.10000000000001 307.7081850210176,77.50000000000001 302.80818502101755,73.9 C 294.7081850210175,67.9 291.2081850210175,59.2 288.9081850210176,50.10000000000001 C 287.0081850210176,42.900000000000006 284.80818502101755,38.10000000000001 276.10818502101756,41.60000000000001 C 273.9081850210176,42.500000000000014 271.00818502101754,41.7 268.00818502101754,41.7 C 268.50818502101754,36.10000000000001 272.9081850210175,34.0 276.9081850210175,32.900000000000006 C 286.50818502101754,30.200000000000003 291.00818502101754,23.500000000000007 293.9081850210175,14.700000000000003 C 296.00818502101754,8.400000000000006 297.8081850210175,0.0 305.9081850210175,0.0 C 315.4081850210175,0.0 324.6081850210175,3.3999999999999986 329.7081850210175,12.5 C 333.00818502101754,18.4 335.80818502101755,24.6 338.1081850210175,31.0 C 340.5081850210175,37.599999999999994 343.4081850210175,40.0 349.8081850210175,35.2 C 352.6081850210175,33.10000000000001 356.9081850210175,28.400000000000006 359.5081850210175,31.799999999999997 C 362.8081850210175,36.099999999999994 357.40818502101746,39.7 354.40818502101746,42.89999999999999 C 350.60818502101745,46.89999999999999 345.40818502101746,47.599999999999994 340.30818502101744,48.69999999999999 C 333.40818502101746,50.19999999999999 331.10818502101745,54.19999999999999 334.2081850210174,60.79999999999998 C 336.0081850210174,64.59999999999998 337.6081850210174,68.59999999999998 340.2081850210174,71.79999999999998 C 352.0081850210174,86.49999999999999 354.0081850210174,103.19999999999999 348.4081850210174,120.39999999999998 C 342.0081850210174,139.99999999999997 346.5081850210174,157.89999999999998 353.2081850210174,176.09999999999997 C 354.4081850210174,179.49999999999997 356.1081850210174,179.79999999999995 358.9081850210174,178.29999999999995 C 360.9081850210174,177.29999999999995 362.9081850210174,176.09999999999997 365.1081850210174,175.59999999999997 C 367.6081850210174,174.99999999999997 370.7081850210174,170.79999999999995 372.4081850210174,174.29999999999995 C 373.9081850210174,177.39999999999995 375.7081850210174,182.09999999999997 370.8081850210174,185.59999999999997 C 365.9081850210174,189.09999999999997 361.3081850210174,193.09999999999997 360.3081850210174,199.59999999999997 C 362.8081850210174,201.09999999999997 364.6081850210174,199.99999999999997 366.4081850210174,199.49999999999997 C 379.7081850210174,195.09999999999997 380.4081850210174,195.29999999999998 384.6081850210174,209.19999999999996 C 386.2081850210174,214.39999999999995 389.8081850210174,214.49999999999997 393.7081850210174,213.99999999999997 C 403.2081850210174,212.59999999999997 408.0081850210174,215.89999999999998 407.30818502101744,226.0 C 406.90818502101746,232.0 410.10818502101745,234.60000000000002 416.10818502101745,235.10000000000002 C 424.5081850210174,235.70000000000005 428.30818502101744,240.5 425.90818502101746,248.8 C 424.0081850210175,255.40000000000003 426.20818502101747,258.90000000000003 432.5081850210175,261.40000000000003 C 439.20818502101747,264.00000000000006 442.3081850210175,268.8 437.3081850210175,275.70000000000005 C 433.8081850210175,280.6 433.20818502101747,284.1 439.3081850210175,288.20000000000005 C 447.6081850210175,293.70000000000005 447.70818502101747,299.40000000000003 440.4081850210175,305.90000000000003 C 436.1081850210175,309.70000000000005 436.9081850210175,312.40000000000003 439.9081850210175,316.40000000000003 C 447.6081850210175,326.50000000000006 447.2081850210175,329.00000000000006 436.6081850210175,335.3 C 431.4081850210175,338.40000000000003 431.4081850210175,341.1 433.7081850210175,346.2 C 438.4081850210175,356.5 436.4081850210175,360.3 425.4081850210175,363.5 C 421.00818502101754,364.8 420.1081850210175,367.0 420.50818502101754,371.3 C 421.60818502101756,385.2 420.9081850210175,386.1 407.30818502101755,387.0 C 402.60818502101756,387.3 402.7081850210175,389.6 402.4081850210176,393.3 C 401.4081850210176,404.90000000000003 397.9081850210176,407.5 386.9081850210176,405.0 C 382.5081850210176,404.0 380.80818502101755,404.7 379.30818502101755,409.3 C 375.7081850210175,420.6 372.80818502101755,421.90000000000003 361.60818502101756,417.3 C 356.4081850210176,415.2 353.4081850210176,417.2 351.10818502101756,421.1 C 346.30818502101755,429.20000000000005 340.80818502101755,430.40000000000003 334.10818502101756,423.6 C 330.50818502101754,420.0 327.00818502101754,420.70000000000005 324.00818502101754,424.1 C 317.7081850210175,431.20000000000005 311.80818502101755,430.20000000000005 306.50818502101754,423.20000000000005 C 303.4081850210175,419.1 300.60818502101756,418.40000000000003 296.00818502101754,421.30000000000007 C 288.2081850210175,426.20000000000005 283.80818502101755,424.70000000000005 279.4081850210175,415.80000000000007 C 277.00818502101754,410.80000000000007 274.3081850210175,408.9000000000001 268.8081850210175,411.20000000000005 C 260.70818502101747,414.6 255.9081850210175,410.6 255.30818502101747,402.80000000000007 C 254.80818502101747,396.80000000000007 252.10818502101748,396.6000000000001 247.30818502101747,396.30000000000007 C 236.4081850210175,395.70000000000005 233.20818502101744,392.1000000000001 235.10818502101748,382.1000000000001 C 236.2081850210175,376.4000000000001 232.60818502101748,376.4000000000001 229.4081850210175,375.50000000000006 C 216.8081850210175,372.00000000000006 216.7081850210175,371.80000000000007 220.00818502101748,359.80000000000007 C 220.4081850210175,358.30000000000007 220.60818502101748,355.50000000000006 220.20818502101747,355.30000000000007 C 212.30818502101747,352.6000000000001 209.40818502101746,342.20000000000005 199.50818502101748,342.30000000000007 C 180.70818502101747,342.6000000000001 161.9081850210175,342.20000000000005 143.10818502101748,342.50000000000006 C 136.80818502101747,342.6000000000001 131.60818502101748,341.40000000000003 127.50818502101748,336.50000000000006 C 121.50818502101748,329.1000000000001 113.70818502101747,326.20000000000005 104.3081850210175,327.00000000000006 C 94.00818502101754,327.4 83.60818502101753,324.9 73.50818502101754,328.4 M 215.70818502101753,194.6 C 224.20818502101753,198.4 231.80818502101752,201.79999999999998 239.40818502101754,205.1 C 257.7081850210176,213.0 257.7081850210176,213.0 271.30818502101755,199.0 C 274.7081850210175,195.5 278.10818502101756,192.1 281.4081850210176,188.5 C 282.9081850210176,186.9 285.4081850210176,185.2 283.4081850210176,182.8 C 277.60818502101756,175.8 282.0081850210176,168.8 283.80818502101755,161.3 C 269.4081850210176,160.8 255.60818502101753,161.9 240.80818502101752,155.20000000000002 C 245.30818502101752,163.3 251.10818502101753,165.9 255.7081850210175,169.8 C 258.4081850210175,172.10000000000002 260.1081850210175,174.5 257.6081850210175,178.0 C 255.30818502101747,181.2 252.9081850210175,181.5 249.30818502101747,179.8 C 244.30818502101747,177.5 241.00818502101745,169.5 235.10818502101748,172.20000000000002 C 230.30818502101747,174.50000000000003 227.50818502101748,180.70000000000002 223.80818502101747,185.10000000000002 C 221.5081850210175,188.0 219.20818502101753,190.7 215.70818502101753,194.6"/>
</svg>
