<?xml version="1.0" ?>
<svg xmlns="http://www.w3.org/2000/svg" xmlns:ev="http://www.w3.org/2001/xml-events" xmlns:inkscape="http://www.inkscape.org/namespaces/inkscape" xmlns:sodipodi="http://sodipodi.sourceforge.net/DTD/sodipodi-0.dtd" xmlns:svg="http://www.w3.org/2000/svg" xmlns:xlink="http://www.w3.org/1999/xlink" baseProfile="full" height="61" id="Layer_1" inkscape:version="1.2.2 (1:1.2.2+202212051550+b0a8486541)" sodipodi:docname="farm03.svg" transform="scale(1.7241379310344827 1.7241379310344827) translate(-29.0 -30.5)" version="1.1" viewBox="0 0 58 61" width="58" x="0px" xml:space="preserve" y="0px">
	<defs/>
	<path d="M 52.22369558876795,54.78888888888889 C 50.323695588767976,54.78888888888889 48.62369558876793,54.78888888888889 46.92369558876794,54.78888888888889 C 46.42369558876794,54.78888888888889 46.12369558876793,54.388888888888886 46.023695588767964,53.888888888888886 C 46.023695588767964,53.6888888888889 46.023695588767964,53.388888888888886 46.023695588767964,53.088888888888874 C 46.023695588767964,46.68888888888887 46.023695588767964,40.28888888888886 46.023695588767964,33.888888888888886 C 46.023695588767964,31.888888888888886 45.22369558876795,30.388888888888886 43.72369558876795,29.188888888888897 C 42.523695588767964,28.28888888888889 41.22369558876795,28.088888888888903 39.823695588767976,28.088888888888903 C 32.62369558876799,28.088888888888903 25.523695588767964,28.088888888888903 18.323695588767976,28.088888888888903 C 17.423695588768,28.088888888888903 16.523695588767964,28.188888888888897 15.723695588767953,28.388888888888914 C 13.923695588767941,28.78888888888892 12.823695588767976,29.888888888888914 12.023695588767964,31.48888888888891 C 11.623695588767987,32.388888888888914 11.523695588767964,33.388888888888914 11.523695588767964,34.388888888888914 C 11.523695588767964,40.688888888888926 11.523695588767964,46.98888888888891 11.523695588767964,53.28888888888892 C 11.523695588767964,54.48888888888891 11.223695588767953,54.78888888888892 10.023695588767964,54.78888888888892 C 8.823695588767976,54.78888888888892 7.623695588767987,54.888888888888914 6.523695588767964,54.888888888888914 C 5.4236955887679414,54.888888888888914 5.3236955887679756,54.78888888888892 5.3236955887679756,53.688888888888926 C 5.3236955887679756,48.888888888888914 5.3236955887679756,44.08888888888893 5.3236955887679756,39.28888888888892 C 5.3236955887679756,34.28888888888892 5.3236955887679756,29.388888888888914 5.3236955887679756,24.388888888888914 C 5.3236955887679756,23.48888888888891 5.523695588767964,22.78888888888892 6.023695588767964,21.98888888888891 C 7.723695588767953,19.388888888888914 9.423695588767941,16.688888888888897 11.123695588767987,14.088888888888903 C 11.823695588767976,12.988888888888908 12.823695588767976,12.488888888888908 13.923695588767998,11.988888888888908 C 17.72369558876801,10.488888888888908 21.423695588768,8.988888888888908 25.22369558876801,7.388888888888914 C 26.02369558876802,7.088888888888903 26.823695588768032,6.78888888888892 27.623695588767987,6.4888888888889085 C 28.72369558876801,5.888888888888914 29.72369558876801,6.28888888888892 30.72369558876801,6.688888888888897 C 33.12369558876799,7.688888888888897 35.52369558876802,8.688888888888897 38.02369558876802,9.688888888888897 C 40.22369558876801,10.588888888888903 42.423695588768,11.488888888888908 44.623695588768044,12.388888888888886 C 45.423695588768055,12.688888888888897 46.02369558876802,13.288888888888891 46.52369558876802,13.98888888888888 C 48.32369558876803,16.78888888888889 50.123695588768044,19.588888888888874 51.923695588768,22.388888888888886 C 52.22369558876801,22.888888888888886 52.423695588768,23.388888888888886 52.423695588768,23.98888888888888 C 52.423695588768,33.888888888888886 52.423695588768,43.78888888888889 52.423695588768,53.68888888888887 C 52.323695588767976,54.088888888888874 52.323695588767976,54.38888888888886 52.22369558876801,54.78888888888886 L 52.22369558876795,54.78888888888889 M 23.723695588767953,13.388888888888886 C 23.62369558876793,14.288888888888891 23.523695588767964,14.888888888888886 23.523695588767964,15.588888888888874 C 23.523695588767964,17.588888888888874 23.523695588767964,19.588888888888874 23.523695588767964,21.588888888888874 C 23.523695588767964,21.98888888888888 23.623695588767987,22.288888888888863 23.623695588767987,22.68888888888887 C 23.823695588767976,23.48888888888888 24.123695588767987,23.788888888888863 24.923695588768,23.788888888888863 C 27.52369558876802,23.788888888888863 30.22369558876801,23.788888888888863 32.823695588767976,23.788888888888863 C 33.523695588767964,23.788888888888863 33.923695588768,23.388888888888857 34.023695588767964,22.68888888888887 C 34.12369558876799,22.388888888888857 34.12369558876799,22.088888888888874 34.12369558876799,21.68888888888887 C 34.12369558876799,19.588888888888874 34.12369558876799,17.48888888888888 34.12369558876799,15.388888888888857 C 34.12369558876799,14.988888888888852 34.12369558876799,14.688888888888869 34.12369558876799,14.288888888888863 C 34.12369558876799,13.688888888888869 33.72369558876801,13.388888888888857 33.22369558876801,13.188888888888869 C 32.923695588768,13.088888888888874 32.62369558876799,13.088888888888874 32.32369558876803,13.088888888888874 C 30.123695588768044,13.088888888888874 27.923695588768055,13.088888888888874 25.72369558876801,13.088888888888874 C 25.02369558876802,13.088888888888874 24.423695588768,13.288888888888863 23.72369558876801,13.388888888888886 L 23.723695588767953,13.388888888888886 M 55.92369558876794,21.78888888888889 C 54.82369558876792,21.98888888888888 54.22369558876795,21.388888888888886 53.62369558876793,20.48888888888888 C 52.12369558876793,18.088888888888874 50.62369558876793,15.688888888888869 49.02369558876791,13.288888888888891 C 48.723695588767896,12.788888888888891 48.32369558876792,12.288888888888891 48.02369558876791,11.788888888888891 C 47.423695588767885,10.98888888888888 46.62369558876793,10.48888888888888 45.723695588767896,10.188888888888897 C 43.32369558876792,9.188888888888897 40.923695588767885,8.188888888888897 38.62369558876787,7.188888888888897 C 37.423695588767885,6.688888888888897 36.223695588767896,6.188888888888897 35.12369558876787,5.688888888888897 C 33.923695588767885,5.188888888888897 32.723695588767896,4.788888888888891 31.52369558876785,4.288888888888891 C 29.52369558876785,3.2888888888888914 27.623695588767873,3.688888888888897 25.623695588767873,4.48888888888888 C 24.02369558876785,5.188888888888869 22.423695588767885,5.888888888888886 20.823695588767862,6.588888888888874 C 19.22369558876784,7.288888888888863 17.52369558876785,7.888888888888886 15.923695588767885,8.588888888888874 C 15.023695588767907,8.98888888888888 14.223695588767896,9.48888888888888 13.323695588767862,9.688888888888869 C 10.823695588767862,10.288888888888863 9.423695588767885,12.088888888888874 8.22369558876784,14.088888888888874 C 7.0236955887678505,15.98888888888888 5.823695588767862,17.888888888888886 4.5236955887678505,19.788888888888863 C 4.423695588767828,19.888888888888857 4.323695588767862,19.98888888888885 4.323695588767862,20.088888888888874 C 3.823695588767862,21.588888888888874 2.6236955887678732,21.888888888888886 1.2236955887678391,21.788888888888863 C 0.32369558876786186,21.788888888888863 -0.3763044112321836,21.088888888888874 0.22369558876783913,20.088888888888874 C 0.8236955887678619,19.18888888888887 1.3236955887678619,18.288888888888863 1.9236955887678278,17.388888888888886 C 3.6236955887678164,14.788888888888891 5.323695588767805,12.188888888888897 6.923695588767828,9.588888888888874 C 7.723695588767839,8.388888888888886 8.72369558876784,7.588888888888874 10.02369558876785,7.088888888888874 C 13.02369558876785,5.888888888888886 15.923695588767828,4.688888888888869 18.923695588767828,3.48888888888888 C 21.423695588767828,2.48888888888888 23.923695588767828,1.3888888888888857 26.423695588767828,0.48888888888888005 C 27.52369558876785,0.08888888888887436 28.72369558876784,-0.21111111111110858 30.02369558876785,0.18888888888886868 C 32.82369558876786,0.8888888888888573 35.42369558876783,2.1888888888888687 38.22369558876784,3.288888888888863 C 39.92369558876783,3.8888888888888573 41.623695588767816,4.688888888888869 43.32369558876786,5.388888888888857 C 45.32369558876786,6.188888888888869 47.22369558876784,6.988888888888852 49.12369558876787,7.888888888888857 C 49.62369558876787,8.088888888888846 50.12369558876787,8.588888888888846 50.423695588767885,9.088888888888846 C 51.52369558876791,10.68888888888884 52.62369558876787,12.388888888888857 53.723695588767896,13.988888888888852 C 54.52369558876791,15.18888888888884 55.32369558876792,16.48888888888885 56.12369558876787,17.788888888888863 C 56.52369558876785,18.48888888888885 57.02369558876785,19.18888888888887 57.423695588767885,19.98888888888885 C 58.12369558876787,21.288888888888863 57.82369558876786,21.888888888888857 56.32369558876786,21.888888888888857 C 56.22369558876784,21.788888888888863 56.12369558876787,21.788888888888863 55.923695588767885,21.788888888888863 L 55.92369558876794,21.78888888888889 M 43.523695588767964,32.6888888888889 C 42.72369558876795,33.388888888888886 42.22369558876795,33.98888888888891 41.523695588767964,34.48888888888891 C 39.12369558876799,36.48888888888891 36.62369558876799,38.5888888888889 34.22369558876795,40.5888888888889 C 33.72369558876795,40.98888888888891 33.22369558876795,41.388888888888914 32.72369558876795,41.78888888888889 C 31.92369558876794,42.388888888888886 31.92369558876794,43.388888888888886 32.72369558876795,44.0888888888889 C 34.523695588767964,45.5888888888889 36.42369558876794,47.1888888888889 38.22369558876795,48.6888888888889 C 39.823695588767976,49.98888888888891 41.323695588767976,51.28888888888889 42.92369558876794,52.5888888888889 C 43.22369558876795,52.78888888888889 43.42369558876794,53.1888888888889 43.523695588767964,53.5888888888889 C 43.823695588767976,54.388888888888914 43.523695588767964,54.888888888888914 42.62369558876799,54.98888888888891 C 41.323695588767976,55.0888888888889 40.22369558876801,54.6888888888889 39.22369558876801,53.888888888888914 C 36.32369558876803,51.388888888888914 33.423695588768,48.98888888888891 30.423695588768,46.5888888888889 C 30.323695588767976,46.48888888888891 30.22369558876801,46.388888888888914 30.123695588767987,46.28888888888889 C 29.023695588767964,45.48888888888888 28.523695588767964,45.388888888888886 27.523695588767964,46.28888888888889 C 25.323695588767976,48.0888888888889 23.223695588767953,49.98888888888888 21.023695588767964,51.78888888888889 C 19.92369558876794,52.6888888888889 18.823695588767976,53.5888888888889 17.823695588767976,54.48888888888888 C 16.923695588768,55.28888888888889 15.823695588767976,55.088888888888874 14.723695588767953,54.98888888888888 C 14.223695588767953,54.98888888888888 13.923695588767941,54.18888888888887 14.12369558876793,53.68888888888887 C 14.323695588767919,53.28888888888886 14.62369558876793,52.88888888888886 15.023695588767907,52.48888888888888 C 17.32369558876792,50.48888888888888 19.723695588767896,48.588888888888874 22.023695588767907,46.68888888888887 C 23.023695588767907,45.88888888888886 24.023695588767907,45.088888888888874 25.023695588767907,44.28888888888886 C 25.923695588767885,43.588888888888874 25.923695588767885,42.588888888888874 25.023695588767907,41.88888888888886 C 21.82369558876792,39.18888888888887 18.62369558876793,36.588888888888846 15.323695588767919,33.88888888888886 C 15.023695588767907,33.588888888888846 14.723695588767896,33.28888888888886 14.423695588767941,32.98888888888885 C 14.62369558876793,32.68888888888884 14.823695588767919,32.38888888888886 15.023695588767964,32.18888888888884 C 16.023695588767964,31.088888888888846 16.823695588767976,30.98888888888885 18.023695588767964,31.98888888888885 C 21.123695588767987,34.588888888888846 24.323695588767976,37.18888888888884 27.42369558876794,39.88888888888886 C 27.523695588767964,39.98888888888885 27.62369558876793,40.088888888888846 27.723695588767953,40.088888888888846 C 28.823695588767976,40.88888888888886 29.023695588767964,40.88888888888886 30.12369558876793,40.088888888888846 C 31.32369558876792,39.18888888888884 32.52369558876791,38.18888888888884 33.62369558876793,37.288888888888835 C 35.82369558876792,35.38888888888883 38.02369558876791,33.588888888888846 40.32369558876792,31.68888888888884 C 41.12369558876793,30.98888888888885 41.42369558876794,30.98888888888885 42.223695588767896,31.788888888888835 C 42.52369558876791,31.788888888888835 42.923695588767885,32.18888888888884 43.52369558876791,32.68888888888884 L 43.523695588767964,32.6888888888889 M 2.3236955887679187,57.6888888888889 C 2.9236955887679414,57.6888888888889 3.4236955887679414,57.5888888888889 3.8236955887679187,57.5888888888889 C 20.62369558876793,57.5888888888889 37.42369558876794,57.5888888888889 54.223695588767896,57.5888888888889 C 54.62369558876787,57.5888888888889 55.32369558876792,57.388888888888914 55.423695588767885,57.98888888888891 C 55.52369558876791,58.6888888888889 55.423695588767885,59.388888888888914 55.32369558876786,60.0888888888889 C 55.32369558876786,60.1888888888889 55.02369558876785,60.28888888888889 54.923695588767885,60.388888888888914 C 54.52369558876791,60.48888888888891 54.12369558876787,60.48888888888891 53.723695588767896,60.48888888888891 C 39.423695588767885,60.48888888888891 25.123695588767873,60.48888888888891 10.823695588767919,60.48888888888891 C 8.423695588767941,60.48888888888891 6.12369558876793,60.48888888888891 3.723695588767896,60.48888888888891 C 3.4236955887678846,60.48888888888891 3.1236955887678732,60.48888888888891 2.8236955887679187,60.48888888888891 C 2.12369558876793,60.388888888888914 1.8236955887679187,60.0888888888889 1.9236955887679414,59.388888888888914 C 2.12369558876793,58.78888888888892 2.223695588767953,58.28888888888892 2.3236955887679187,57.688888888888926 L 2.3236955887679187,57.6888888888889 M 14.423695588767941,36.388888888888886 C 15.62369558876793,37.388888888888886 16.723695588767953,38.28888888888889 17.82369558876792,39.1888888888889 C 18.92369558876794,40.0888888888889 20.12369558876793,41.0888888888889 21.223695588767896,41.98888888888891 C 22.123695588767873,42.78888888888892 22.123695588767873,42.98888888888891 21.223695588767896,43.78888888888892 C 20.223695588767896,44.688888888888926 19.223695588767896,45.48888888888891 18.123695588767873,46.388888888888914 C 16.923695588767885,47.388888888888914 15.823695588767862,48.28888888888892 14.623695588767873,49.28888888888892 C 14.52369558876785,49.388888888888914 14.323695588767862,49.388888888888914 14.123695588767873,49.58888888888893 C 14.123695588767873,47.98888888888894 14.02369558876785,46.58888888888893 14.123695588767873,45.188888888888926 C 14.223695588767896,43.78888888888892 13.723695588767896,42.388888888888914 14.02369558876785,40.888888888888914 C 14.52369558876785,39.388888888888914 13.72369558876784,37.888888888888914 14.423695588767828,36.388888888888914 L 14.423695588767941,36.388888888888886 M 43.22369558876795,36.388888888888886 C 43.72369558876795,36.98888888888888 43.62369558876793,37.48888888888888 43.62369558876793,37.98888888888888 C 43.62369558876793,41.588888888888874 43.62369558876793,45.088888888888874 43.52369558876791,48.68888888888887 C 43.52369558876791,48.88888888888886 43.52369558876791,49.088888888888874 43.62369558876793,49.38888888888886 C 43.32369558876792,49.28888888888886 43.12369558876793,49.38888888888886 43.02369558876791,49.18888888888887 C 40.82369558876792,47.38888888888886 38.62369558876793,45.48888888888888 36.423695588767885,43.588888888888874 C 35.62369558876787,42.888888888888886 35.52369558876791,42.588888888888874 36.32369558876786,41.98888888888888 C 38.62369558876787,40.18888888888887 40.923695588767885,38.388888888888886 43.22369558876784,36.388888888888886 L 43.22369558876795,36.388888888888886 M 36.32369558876792,30.888888888888886 C 36.223695588767896,31.088888888888874 36.223695588767896,31.28888888888889 36.12369558876793,31.28888888888889 C 33.72369558876795,33.28888888888889 31.32369558876792,35.28888888888889 28.82369558876792,37.388888888888886 C 27.523695588767907,36.28888888888889 26.32369558876792,35.28888888888889 25.023695588767907,34.1888888888889 C 23.82369558876792,33.0888888888889 22.523695588767907,32.0888888888889 21.223695588767896,30.98888888888891 C 22.223695588767896,30.78888888888892 33.223695588767896,30.688888888888897 36.32369558876792,30.888888888888914 L 36.32369558876792,30.888888888888886 M 36.12369558876793,54.28888888888889 C 35.72369558876795,54.48888888888888 35.52369558876791,54.6888888888889 35.32369558876792,54.6888888888889 C 31.023695588767907,54.6888888888889 26.723695588767896,54.6888888888889 22.42369558876794,54.6888888888889 C 22.223695588767953,54.6888888888889 22.023695588767964,54.5888888888889 21.62369558876793,54.48888888888891 C 22.42369558876794,53.888888888888914 23.023695588767907,53.388888888888914 23.62369558876793,52.78888888888892 C 25.12369558876793,51.58888888888893 26.62369558876793,50.28888888888892 28.12369558876793,49.08888888888893 C 28.82369558876792,48.58888888888893 28.92369558876794,48.58888888888893 29.62369558876793,49.08888888888893 C 31.523695588767907,50.688888888888926 33.42369558876794,52.28888888888892 35.32369558876792,53.88888888888894 C 35.52369558876791,53.98888888888894 35.723695588767896,54.08888888888893 36.12369558876793,54.28888888888895 L 36.12369558876793,54.28888888888889 M 28.82369558876792,21.088888888888903 C 28.223695588767896,21.088888888888903 27.523695588767907,21.088888888888903 26.92369558876794,21.088888888888903 C 26.12369558876793,21.088888888888903 26.023695588767964,20.98888888888891 26.023695588767964,20.188888888888897 C 26.023695588767964,18.98888888888891 26.023695588767964,17.78888888888889 26.023695588767964,16.688888888888897 C 26.023695588767964,15.988888888888908 26.323695588767976,15.688888888888897 27.023695588767964,15.688888888888897 C 28.223695588767953,15.688888888888897 29.523695588767964,15.688888888888897 30.723695588767953,15.688888888888897 C 31.323695588767976,15.688888888888897 31.62369558876793,16.088888888888903 31.62369558876793,16.48888888888891 C 31.62369558876793,17.78888888888892 31.62369558876793,19.088888888888903 31.62369558876793,20.48888888888891 C 31.62369558876793,20.888888888888914 31.32369558876792,21.088888888888903 30.92369558876794,21.088888888888903 C 30.223695588767953,21.088888888888903 29.523695588767964,21.088888888888903 28.82369558876792,21.088888888888903 C 28.82369558876792,21.088888888888903 28.82369558876792,21.088888888888903 28.82369558876792,21.088888888888903" id="path294"/>
</svg>
