<?xml version="1.0" ?>
<svg xmlns="http://www.w3.org/2000/svg" xmlns:ev="http://www.w3.org/2001/xml-events" xmlns:xlink="http://www.w3.org/1999/xlink" baseProfile="full" height="754" id="Layer_1" style="enable-background:new 0 0 1000 800;" transform="scale(0.23201856148491878 0.23201856148491878) translate(-215.5 -377.0)" version="1.1" viewBox="0 0 431 754" width="431" x="0px" xml:space="preserve" y="0px">
	<defs/>
	<path d="M 20.559771711734868,740.6999999999999 C 20.559771711734868,740.6999999999999 23.759771711734857,740.0999999999999 25.759771711734857,752.8 L 48.25977171173486,752.8 C 48.25977171173486,752.8 41.659771711734834,742.6999999999999 32.35977171173488,735.0999999999999 C 32.35977171173488,735.0999999999999 14.959771711734902,644.6999999999999 35.85977171173488,611.4999999999999 C 38.35977171173488,607.5999999999999 40.4597717117349,603.2999999999998 42.25977171173486,598.6999999999999 C 42.35977171173488,599.4 42.459771711734845,600.0999999999999 42.659771711734834,600.9 C 37.75977171173486,618.9 45.659771711734834,666.1999999999999 52.75977171173486,700.9 C 52.85977171173488,702.0 52.959771711734845,703.1999999999999 53.159771711734834,704.4 L 53.35977171173482,704.1 C 57.659771711734834,725.1 61.55977171173481,740.7 61.55977171173481,740.7 C 61.55977171173481,740.7 64.7597717117348,740.1 66.7597717117348,752.8000000000001 L 89.2597717117348,752.8000000000001 C 89.2597717117348,752.8000000000001 82.65977171173478,742.7 73.35977171173482,735.1 C 73.35977171173482,735.1 66.55977171173481,699.7 66.55977171173481,665.1 C 67.2597717117348,661.7 68.2597717117348,658.0 68.7597717117348,655.5 C 72.15977171173478,635.4 91.95977171173479,616.7 104.65977171173478,602.0 C 109.95977171173479,595.8 113.95977171173479,588.4 118.65977171173478,581.6 C 119.65977171173478,580.2 121.2597717117348,579.4 122.55977171173475,578.3000000000001 C 123.45977171173473,579.7 124.75977171173474,581.1 125.15977171173478,582.7 C 130.15977171173478,603.6 134.85977171173477,624.3000000000001 134.55977171173475,646.3000000000001 C 134.35977171173477,663.0000000000001 136.15977171173478,674.1 137.65977171173478,682.2 L 137.35977171173477,682.1 C 137.9597717117348,685.5 138.4597717117348,689.5 138.85977171173477,693.7 C 138.65977171173478,693.7 138.4597717117348,693.8000000000001 138.4597717117348,693.8000000000001 C 138.5597717117348,693.9000000000001 138.7597717117348,694.0000000000001 138.85977171173477,694.1 C 140.85977171173477,713.4 141.85977171173477,737.5 141.85977171173477,737.5 C 145.4597717117348,744.5 146.35977171173477,753.0 146.35977171173477,753.0 L 161.25977171173474,753.0 C 161.25977171173474,744.9 153.65977171173472,736.1 153.65977171173472,736.1 C 152.75977171173474,730.5 151.65977171173472,705.6 151.15977171173472,694.0 C 152.5597717117347,679.2 148.5597717117347,664.1 155.45977171173473,650.5 C 159.95977171173473,641.4 156.3597717117347,632.2 154.95977171173473,623.0 C 153.95977171173473,615.9 152.65977171173472,608.6 152.8597717117347,601.5 C 153.3597717117347,586.5 154.3597717117347,571.5 156.0597717117347,556.7 C 157.0597717117347,547.7 166.65977171173472,541.4000000000001 175.15977171173472,543.2 C 196.65977171173472,545.0 200.75977171173474,561.6 201.0597717117347,567.0 C 201.3597717117347,571.9 202.0597717117347,576.8 202.0597717117347,581.7 C 202.0597717117347,604.4000000000001 201.3597717117347,627.2 202.0597717117347,649.9000000000001 C 202.3597717117347,659.6000000000001 205.95977171173467,669.1000000000001 207.15977171173472,678.8000000000001 C 207.25977171173474,680.0000000000001 207.45977171173473,681.1 207.65977171173472,682.3000000000001 L 207.5597717117347,682.3000000000001 C 211.0597717117347,701.4000000000001 212.8597717117347,737.7 212.8597717117347,737.7 C 217.0597717117347,744.7 217.8597717117347,753.2 217.8597717117347,753.2 L 234.75977171173474,753.2 C 234.75977171173474,745.1 226.05977171173475,736.3000000000001 226.05977171173475,736.3000000000001 C 225.05977171173475,730.6 223.85977171173477,705.1 223.35977171173477,693.7 C 223.35977171173477,690.0 223.25977171173474,686.3000000000001 223.25977171173474,682.7 C 223.25977171173474,679.7 224.05977171173475,676.7 224.35977171173477,673.7 C 225.05977171173475,667.9000000000001 226.15977171173478,662.1 226.35977171173477,656.3000000000001 C 227.15977171173478,638.8000000000001 226.65977171173478,621.1 228.65977171173472,603.8000000000001 C 230.15977171173472,591.4000000000001 235.15977171173472,579.6 238.15977171173472,567.4000000000001 C 239.95977171173467,559.9000000000001 242.25977171173474,552.2 241.95977171173467,544.7 C 241.25977171173463,530.9000000000001 245.75977171173463,519.4000000000001 254.45977171173467,510.30000000000007 C 263.75977171173463,500.5000000000001 266.6597717117347,488.30000000000007 268.75977171173463,475.6000000000001 C 270.35977171173465,466.2000000000001 271.25977171173463,456.50000000000006 271.75977171173463,447.00000000000006 C 272.5597717117346,429.20000000000005 272.4597717117347,411.40000000000003 273.1597717117346,393.70000000000005 C 273.6597717117346,381.1 275.0597717117346,368.50000000000006 275.95977171173456,355.90000000000003 C 276.1597717117346,352.90000000000003 276.1597717117346,349.8 275.6597717117346,346.90000000000003 C 272.1597717117346,329.3 268.5597717117346,311.8 264.75977171173463,294.3 C 262.75977171173463,285.2 260.1597717117346,276.3 257.75977171173463,267.3 C 255.05977171173458,257.0 252.1597717117346,246.69999999999996 249.45977171173467,236.4 C 249.0597717117347,234.79999999999998 249.25977171173463,232.4 250.0597717117347,231.1 C 256.9597717117347,220.1 255.45977171173467,208.2 253.0597717117347,196.4 C 250.65977171173472,184.8 251.75977171173474,182.6 262.75977171173474,181.3 C 300.85977171173477,176.8 333.25977171173474,159.8 360.75977171173474,131.6 C 369.6597717117347,122.50000000000001 379.4597717117348,114.50000000000001 388.4597717117348,105.60000000000001 C 391.65977171173483,102.50000000000001 393.85977171173477,98.4 396.65977171173483,94.9 C 398.3597717117349,92.80000000000001 400.0597717117348,90.5 402.15977171173483,89.0 C 414.9597717117348,79.8 423.65977171173483,67.2 428.4597717117348,52.0 C 430.85977171173477,44.400000000000006 430.35977171173477,35.89999999999999 429.9597717117348,27.499999999999996 C 420.0597717117348,39.599999999999994 421.5597717117348,62.89999999999999 403.5597717117348,71.7 C 404.85977171173477,65.3 405.25977171173486,51.900000000000006 406.0597717117348,45.400000000000006 C 407.25977171173486,34.7 408.15977171173483,24.000000000000004 408.4597717117348,13.2 C 408.5597717117348,9.8 406.65977171173483,3.3999999999999986 405.65977171173483,0.0 C 405.0597717117348,0.1999999999999993 402.75977171173486,1.3999999999999986 402.25977171173486,5.300000000000001 C 401.65977171173483,12.400000000000002 402.3597717117349,17.600000000000005 402.15977171173483,24.7 C 401.75977171173486,39.099999999999994 392.5597717117348,45.3 381.65977171173483,49.60000000000001 C 380.25977171173486,50.10000000000001 376.8597717117349,48.10000000000001 376.15977171173483,46.30000000000001 C 373.15977171173483,39.60000000000001 370.75977171173486,32.500000000000014 368.15977171173483,25.600000000000005 C 365.65977171173483,19.000000000000004 362.9597717117348,12.500000000000004 360.3597717117349,5.900000000000006 C 359.5597717117349,6.200000000000006 358.65977171173483,6.500000000000007 357.8597717117349,6.700000000000006 C 358.65977171173483,11.500000000000004 359.5597717117349,16.300000000000008 360.15977171173483,21.100000000000005 C 362.15977171173483,36.400000000000006 364.8597717117349,51.60000000000001 365.9597717117348,67.00000000000001 C 367.75977171173474,90.20000000000002 357.15977171173483,108.10000000000001 342.85977171173477,124.00000000000001 C 342.1597717117347,123.90000000000002 341.4597717117348,123.90000000000002 340.75977171173474,123.80000000000003 C 339.85977171173477,114.20000000000003 338.9597717117348,102.30000000000003 338.0597717117347,92.70000000000003 C 337.0597717117347,92.80000000000003 335.9597717117347,92.60000000000004 335.0597717117347,95.10000000000004 C 334.85977171173465,98.20000000000003 334.1597717117347,101.30000000000004 334.4597717117347,104.40000000000005 C 335.6597717117347,117.50000000000004 330.25977171173463,128.60000000000002 325.6597717117347,140.00000000000003 C 324.9597717117347,141.80000000000004 323.25977171173474,143.40000000000003 321.75977171173474,144.60000000000002 C 303.5597717117347,158.60000000000002 282.4597717117348,163.3 260.75977171173474,165.50000000000003 C 255.25977171173474,166.10000000000002 254.4597717117348,163.00000000000003 256.25977171173474,157.90000000000003 C 257.9597717117348,153.30000000000004 259.0597717117347,148.50000000000003 260.35977171173477,143.80000000000004 C 260.5597717117348,139.80000000000004 258.5597717117348,139.20000000000005 257.75977171173474,138.90000000000003 C 255.0597717117347,145.00000000000003 252.15977171173472,154.80000000000004 249.9597717117348,161.10000000000002 C 248.75977171173474,164.8 247.25977171173474,166.3 243.5597717117348,166.70000000000002 C 239.25977171173486,167.10000000000002 234.85977171173477,168.20000000000002 230.85977171173477,169.9 C 224.9597717117348,172.3 219.55977171173475,172.4 213.55977171173475,169.70000000000002 C 199.25977171173474,163.4 186.25977171173474,143.00000000000003 190.45977171173473,125.70000000000003 C 190.65977171173472,124.70000000000003 190.45977171173473,123.60000000000004 189.8597717117347,122.40000000000002 C 185.2597717117347,129.1 183.65977171173472,136.6 185.2597717117347,144.6 C 187.65977171173466,156.7 191.5597717117347,168.0 200.5597717117347,176.7 C 202.2597717117347,178.29999999999998 204.2597717117347,182.5 203.5597717117347,183.5 C 202.15977171173472,185.6 198.8597717117347,187.8 196.5597717117347,187.6 C 185.8597717117347,186.6 175.2597717117347,184.9 166.2597717117347,177.4 C 158.65977171173466,171.1 151.0597717117347,164.3 142.3597717117347,160.3 C 118.65977171173472,149.4 110.25977171173469,128.8 107.95977171173473,103.90000000000002 C 107.25977171173474,96.10000000000002 108.85977171173471,94.40000000000002 115.95977171173473,95.10000000000002 C 123.15977171173472,95.90000000000002 128.75977171173474,92.50000000000003 134.3597717117347,88.50000000000003 C 153.0597717117347,74.90000000000003 166.8597717117347,56.300000000000026 180.5597717117347,37.70000000000003 C 181.7597717117347,36.00000000000003 182.5597717117347,33.900000000000034 182.65977171173472,31.30000000000003 C 165.95977171173473,45.00000000000003 153.5597717117347,63.800000000000026 134.75977171173474,74.50000000000004 C 132.35977171173477,75.70000000000005 128.25977171173474,77.10000000000004 125.85977171173477,78.10000000000004 C 118.55977171173475,80.80000000000004 113.15977171173478,76.20000000000003 113.95977171173479,68.00000000000004 C 114.15977171173478,66.30000000000004 113.45977171173479,63.30000000000004 112.45977171173479,62.80000000000004 C 106.45977171173479,60.00000000000004 106.65977171173478,54.60000000000004 106.85977171173477,49.10000000000004 C 107.25977171173474,39.50000000000003 107.75977171173474,29.90000000000003 108.15977171173478,20.300000000000036 C 108.2597717117348,18.50000000000004 107.95977171173479,16.700000000000035 106.2597717117348,14.100000000000033 C 104.95977171173479,16.100000000000033 103.05977171173481,17.90000000000003 102.2597717117348,20.100000000000033 C 97.55977171173481,33.00000000000003 92.7597717117348,45.900000000000034 88.7597717117348,59.00000000000004 C 86.95977171173479,64.90000000000005 84.55977171173481,64.70000000000005 80.55977171173481,62.00000000000004 C 73.65977171173483,57.40000000000005 71.2597717117348,49.90000000000005 70.95977171173479,42.10000000000004 C 70.65977171173478,33.50000000000003 71.85977171173477,24.800000000000036 72.2597717117348,16.200000000000035 C 72.35977171173482,13.300000000000036 72.95977171173479,9.500000000000032 69.15977171173478,5.400000000000034 C 68.7597717117348,7.0000000000000355 68.45977171173479,8.600000000000033 67.85977171173477,10.000000000000032 C 58.559771711734754,33.50000000000003 57.65977171173478,55.50000000000004 74.85977171173477,76.30000000000003 C 80.95977171173479,83.60000000000002 84.85977171173477,93.40000000000002 88.45977171173479,102.50000000000003 C 93.2597717117348,114.60000000000004 96.85977171173477,127.20000000000003 100.95977171173479,139.60000000000002 C 102.45977171173479,144.00000000000003 101.95977171173479,146.90000000000003 96.85977171173477,145.90000000000003 C 74.15977171173478,141.00000000000003 53.359771711734766,129.80000000000004 46.65977171173478,101.30000000000005 C 45.65977171173478,96.90000000000005 46.15977171173478,92.00000000000006 46.059771711734754,87.40000000000005 C 45.95977171173473,84.50000000000004 46.059771711734754,81.60000000000005 45.15977171173478,78.70000000000005 C 39.359771711734766,90.10000000000005 36.65977171173478,101.80000000000005 41.359771711734766,114.40000000000005 C 42.359771711734766,117.00000000000004 43.45977171173479,119.70000000000006 45.059771711734754,121.90000000000005 C 55.559771711734754,136.50000000000003 66.25977171173474,151.10000000000002 77.05977171173475,165.50000000000003 C 78.75977171173474,167.80000000000004 81.25977171173474,170.30000000000004 83.75977171173474,171.00000000000003 C 92.65977171173472,173.60000000000002 96.75977171173474,180.90000000000003 101.75977171173474,188.30000000000004 C 107.55977171173475,197.00000000000003 114.65977171173472,205.10000000000005 122.15977171173472,212.20000000000005 C 126.5597717117347,216.30000000000004 132.95977171173473,218.10000000000005 138.45977171173473,220.80000000000004 C 140.15977171173472,221.60000000000005 142.05977171173475,221.90000000000003 145.25977171173474,222.80000000000004 C 139.55977171173475,226.50000000000003 138.55977171173475,230.60000000000005 141.05977171173475,235.80000000000004 C 141.65977171173478,237.10000000000005 141.35977171173477,240.20000000000002 140.45977171173473,240.90000000000006 C 132.55977171173475,246.30000000000004 129.3597717117347,257.0000000000001 118.45977171173473,259.9000000000001 C 107.65977171173472,262.80000000000007 107.95977171173473,274.5000000000001 114.65977171173472,284.2000000000001 C 120.45977171173473,292.7000000000001 127.35977171173471,293.8000000000001 135.75977171173474,295.7000000000001 C 141.85977171173477,297.1000000000001 147.55977171173475,302.6000000000001 152.45977171173473,307.3000000000001 C 154.25977171173474,309.0000000000001 153.75977171173474,313.8000000000001 153.55977171173475,317.10000000000014 C 153.25977171173474,320.5000000000001 152.45977171173473,324.10000000000014 150.95977171173473,327.10000000000014 C 149.75977171173474,329.3000000000001 147.15977171173472,332.10000000000014 145.05977171173475,332.20000000000016 C 127.45977171173473,333.20000000000016 109.85977171173477,334.60000000000014 92.25977171173474,334.10000000000014 C 73.65977171173472,333.60000000000014 55.65977171173472,338.0000000000001 40.65977171173472,351.70000000000016 C 29.759771711734743,361.70000000000016 19.059771711734697,365.90000000000015 13.65977171173472,382.70000000000016 C 11.459771711734732,389.70000000000016 4.359771711734709,420.20000000000016 7.359771711734709,430.70000000000016 C 12.65977171173472,448.70000000000016 15.859771711734709,466.60000000000014 19.35977171173471,484.60000000000014 L 19.35977171173471,484.60000000000014 L 19.35977171173471,484.60000000000014 C 20.559771711734697,490.8000000000002 21.759771711734686,497.0000000000001 23.15977171173472,503.3000000000002 C 26.45977171173473,526.3000000000002 27.45977171173473,566.2000000000002 3.759771711734743,596.6000000000001 C -10.540228288265155,614.2999999999998 20.559771711734868,740.6999999999999 20.559771711734868,740.6999999999999 M 109.15977171173483,162.59999999999985 C 98.65977171173483,167.79999999999984 79.25977171173486,163.19999999999985 76.85977171173482,151.89999999999986 C 88.05977171173487,155.69999999999985 98.55977171173487,159.09999999999985 109.15977171173483,162.59999999999985 M 153.35977171173488,190.89999999999986 C 140.9597717117349,186.79999999999987 129.75977171173486,182.99999999999986 118.55977171173487,179.29999999999987 C 129.15977171173483,173.09999999999985 150.15977171173483,180.09999999999985 153.35977171173488,190.89999999999986"/>
</svg>
