<?xml version="1.0" ?>
<svg xmlns="http://www.w3.org/2000/svg" xmlns:ev="http://www.w3.org/2001/xml-events" xmlns:xlink="http://www.w3.org/1999/xlink" baseProfile="full" height="789" id="Layer_1" style="enable-background:new 0 0 1000 800;" transform="scale(0.2247191011235955 0.2247191011235955) translate(-222.5 -394.5)" version="1.1" viewBox="0 0 445 789" width="445" x="0px" xml:space="preserve" y="0px">
	<defs/>
	<path d="M 0.4999999999998863,690.5999999999998 C 1.2999999999998977,686.0999999999998 2.099999999999909,681.5999999999998 2.9999999999998863,677.1999999999998 C 3.2999999999998977,675.4999999999998 3.599999999999909,673.5999999999998 4.599999999999909,672.3999999999999 C 7.999999999999886,668.1999999999998 8.39999999999992,663.1999999999998 8.599999999999909,658.0999999999999 C 8.999999999999886,646.3999999999999 8.799999999999898,634.5999999999999 9.499999999999886,622.8999999999999 C 9.899999999999864,615.8999999999999 8.599999999999909,609.1999999999998 7.699999999999875,602.3999999999999 C 6.199999999999875,590.0999999999999 4.699999999999875,577.7999999999998 5.199999999999875,565.3999999999999 C 5.299999999999898,562.8999999999999 5.599999999999852,560.4999999999999 5.899999999999864,557.9999999999999 C 5.999999999999886,557.4999999999999 6.299999999999841,556.7999999999998 6.799999999999841,556.4999999999999 C 17.399999999999864,547.9999999999999 23.99999999999983,536.5999999999999 28.899999999999864,523.6999999999999 C 33.499999999999886,511.4999999999999 37.999999999999886,499.29999999999995 43.199999999999875,487.3999999999999 C 46.09999999999985,480.5999999999999 48.999999999999886,473.99999999999994 49.59999999999985,466.49999999999994 C 49.99999999999983,460.69999999999993 49.99999999999983,454.79999999999995 49.59999999999985,449.09999999999997 C 48.79999999999984,439.4 47.29999999999984,429.79999999999995 46.399999999999864,420.2 C 45.399999999999864,409.7 47.59999999999985,399.59999999999997 50.59999999999985,389.7 C 53.899999999999864,378.7 57.99999999999983,368.2 63.99999999999983,358.5 C 67.69999999999982,352.5 71.79999999999984,346.6 77.99999999999983,343.2 C 83.49999999999983,340.3 89.19999999999982,337.7 94.99999999999983,335.5 C 105.79999999999984,331.4 116.8999999999998,328.8 128.29999999999984,327.3 C 134.89999999999986,326.5 141.59999999999985,325.6 148.19999999999982,327.3 C 151.29999999999984,328.1 154.29999999999984,329.6 157.29999999999984,330.90000000000003 C 167.49999999999983,335.20000000000005 178.09999999999985,338.1 188.69999999999982,341.00000000000006 C 198.49999999999983,343.80000000000007 208.49999999999983,346.40000000000003 217.3999999999998,351.90000000000003 C 220.5999999999998,353.90000000000003 223.29999999999978,353.50000000000006 226.29999999999978,352.1 C 229.0999999999998,350.8 231.79999999999978,349.40000000000003 234.49999999999977,347.90000000000003 C 240.19999999999982,344.8 246.0999999999998,344.1 252.29999999999973,345.90000000000003 C 254.99999999999977,346.70000000000005 257.89999999999975,347.6 260.6999999999997,346.50000000000006 C 262.1999999999997,345.90000000000003 263.89999999999975,345.00000000000006 264.5999999999997,343.70000000000005 C 266.2999999999997,340.50000000000006 267.5999999999997,337.1 268.89999999999964,333.6 C 269.39999999999964,332.20000000000005 268.49999999999966,331.0 267.2999999999996,330.5 C 264.39999999999964,329.2 262.1999999999996,327.3 261.6999999999996,323.8 C 261.59999999999957,323.40000000000003 261.09999999999957,323.0 260.59999999999957,322.7 C 255.59999999999957,320.0 253.09999999999957,315.5 252.59999999999957,309.59999999999997 C 252.59999999999957,308.9 252.39999999999952,308.09999999999997 252.6999999999996,307.59999999999997 C 253.7999999999996,305.2 253.59999999999957,302.9 253.2999999999996,300.4 C 252.7999999999996,296.79999999999995 254.39999999999964,293.59999999999997 255.6999999999996,290.5 C 256.89999999999964,287.5 258.2999999999996,284.5 259.39999999999964,281.5 C 259.7999999999996,280.5 259.7999999999996,279.2 259.5999999999997,278.1 C 259.1999999999997,275.8 258.5999999999997,273.5 257.89999999999964,271.3 C 256.7999999999996,267.5 257.1999999999996,264.1 259.89999999999964,261.0 C 257.49999999999966,258.6 256.6999999999996,255.7 258.39999999999964,252.10000000000002 C 257.39999999999964,252.20000000000005 256.6999999999996,252.3 255.49999999999966,252.5 C 257.6999999999997,251.5 257.6999999999997,250.0 257.49999999999966,248.0 C 257.2999999999996,245.8 257.89999999999964,243.5 258.0999999999997,241.2 C 248.59999999999968,237.2 242.79999999999973,230.5 244.6999999999997,218.6 C 241.09999999999968,215.5 237.1999999999997,212.5 233.79999999999973,209.0 C 226.59999999999974,201.6 222.1999999999997,192.6 220.79999999999973,182.1 C 220.49999999999972,179.7 220.39999999999975,177.2 220.09999999999974,174.7 C 219.99999999999972,174.1 219.59999999999974,173.39999999999998 219.09999999999974,173.0 C 208.89999999999975,165.2 200.39999999999975,155.7 194.09999999999974,144.1 C 191.39999999999975,139.1 189.49999999999972,133.7 188.99999999999972,127.79999999999998 C 188.99999999999972,127.49999999999997 188.99999999999972,127.19999999999999 189.09999999999974,126.29999999999998 C 190.99999999999972,128.39999999999998 192.59999999999974,130.2 194.19999999999976,131.89999999999998 C 199.69999999999976,137.79999999999998 205.09999999999974,143.79999999999998 211.59999999999974,148.49999999999997 C 216.89999999999975,152.19999999999996 222.49999999999972,154.89999999999998 228.99999999999972,154.79999999999998 C 230.29999999999973,154.79999999999998 230.8999999999997,154.29999999999998 231.1999999999997,153.1 C 233.09999999999968,146.6 233.6999999999997,139.9 233.29999999999973,133.1 C 232.89999999999975,125.79999999999998 231.49999999999972,118.8 229.09999999999974,111.89999999999999 C 228.49999999999972,110.1 227.39999999999975,108.8 225.89999999999975,107.69999999999999 C 215.19999999999976,99.39999999999999 206.89999999999975,88.99999999999999 201.89999999999975,75.89999999999999 C 198.09999999999974,65.99999999999999 197.19999999999976,55.9 200.69999999999976,45.699999999999996 C 202.09999999999974,41.599999999999994 205.59999999999974,35.9 207.79999999999978,34.099999999999994 C 207.99999999999977,38.39999999999999 207.99999999999977,42.699999999999996 208.29999999999978,46.9 C 208.8999999999998,56.199999999999996 209.8999999999998,65.39999999999999 213.69999999999976,74.0 C 215.39999999999975,77.9 217.79999999999978,81.1 221.69999999999976,83.3 C 221.89999999999975,80.5 222.29999999999978,77.89999999999999 222.39999999999975,75.39999999999999 C 222.69999999999976,68.1 222.79999999999973,60.800000000000004 223.19999999999976,53.4 C 223.69999999999976,44.4 224.09999999999974,35.3 227.49999999999977,26.799999999999997 C 229.19999999999976,22.4 231.89999999999975,18.999999999999993 236.19999999999982,16.999999999999993 C 231.0999999999998,38.49999999999999 230.5999999999998,59.99999999999999 235.39999999999986,81.79999999999998 C 240.19999999999982,78.09999999999998 243.79999999999984,73.79999999999998 246.79999999999984,68.89999999999998 C 252.19999999999982,59.99999999999998 255.19999999999982,50.09999999999999 256.4999999999999,39.69999999999998 C 257.39999999999986,32.59999999999998 257.79999999999984,25.399999999999977 258.4999999999999,17.899999999999977 C 259.19999999999993,19.09999999999998 259.9999999999999,19.99999999999998 260.19999999999993,21.09999999999998 C 260.9,24.69999999999998 261.4999999999999,28.399999999999977 261.9999999999999,31.99999999999998 C 262.9999999999999,39.69999999999998 263.89999999999986,47.49999999999998 264.79999999999984,55.19999999999998 C 264.79999999999984,55.29999999999998 264.79999999999984,55.29999999999998 264.79999999999984,55.399999999999984 C 266.0999999999998,60.899999999999984 269.4999999999999,62.69999999999998 273.9999999999999,59.69999999999998 C 277.69999999999993,57.19999999999998 280.9999999999999,53.99999999999998 284.39999999999986,50.99999999999998 C 285.89999999999986,49.69999999999998 287.1999999999998,48.19999999999998 288.9999999999999,46.49999999999998 C 286.5999999999999,53.49999999999998 283.19999999999993,59.19999999999998 278.69999999999993,64.09999999999997 C 273.69999999999993,69.69999999999996 267.4999999999999,73.29999999999997 261.0999999999999,76.69999999999996 C 259.4999999999999,77.49999999999996 258.4999999999999,78.69999999999996 257.39999999999986,80.19999999999996 C 253.69999999999982,84.99999999999996 249.9999999999999,89.79999999999995 245.9999999999999,94.29999999999995 C 241.69999999999993,99.09999999999995 241.69999999999993,98.99999999999996 242.4999999999999,105.69999999999996 C 242.9999999999999,110.29999999999995 243.0999999999999,114.99999999999996 243.39999999999986,119.59999999999997 C 243.89999999999986,128.09999999999997 244.0999999999999,136.59999999999997 244.89999999999986,144.99999999999997 C 246.0999999999999,158.49999999999997 251.0999999999999,170.39999999999998 258.6999999999998,181.2 C 263.4999999999998,188.1 268.89999999999986,194.39999999999998 275.1999999999998,199.79999999999998 C 277.0999999999998,201.49999999999997 279.1999999999998,203.1 281.39999999999986,204.39999999999998 C 282.5999999999999,205.2 284.1999999999998,205.59999999999997 285.6999999999998,205.59999999999997 C 288.39999999999986,205.69999999999996 289.9999999999998,207.19999999999996 291.29999999999984,209.39999999999998 C 292.6999999999998,211.89999999999998 294.39999999999986,213.59999999999997 297.1999999999998,214.49999999999997 C 302.89999999999986,216.29999999999998 308.29999999999984,215.19999999999996 314.0999999999998,213.79999999999998 C 311.89999999999975,211.39999999999998 309.79999999999984,209.29999999999998 307.79999999999984,206.89999999999998 C 300.0999999999998,197.59999999999997 294.0999999999998,187.29999999999998 291.89999999999986,174.99999999999997 C 290.89999999999986,169.19999999999996 290.9999999999999,163.39999999999998 293.0999999999999,157.79999999999998 C 293.29999999999995,157.2 293.5999999999999,156.7 293.69999999999993,156.49999999999997 C 295.69999999999993,161.99999999999997 297.5999999999999,167.79999999999998 299.9,173.19999999999996 C 307.19999999999993,189.99999999999997 319.4,200.29999999999995 336.4,204.29999999999995 C 338.4,204.79999999999995 340.4,205.29999999999995 342.4,205.59999999999997 C 343.0,205.69999999999996 343.79999999999995,205.59999999999997 344.4,205.39999999999998 C 354.5,201.79999999999998 363.79999999999995,196.59999999999997 372.19999999999993,189.7 C 392.4999999999999,172.89999999999998 405.19999999999993,151.1 410.19999999999993,124.29999999999998 C 411.79999999999995,115.59999999999998 412.29999999999995,106.79999999999998 411.29999999999995,97.99999999999999 C 411.0,94.69999999999999 409.5999999999999,91.79999999999998 407.5,89.39999999999999 C 405.4,86.99999999999999 403.70000000000005,84.49999999999999 402.6,81.3 C 400.4,74.39999999999999 397.80000000000007,67.6 395.70000000000005,60.699999999999996 C 394.80000000000007,57.699999999999996 394.9000000000001,54.49999999999999 394.4000000000001,51.4 C 394.30000000000007,50.5 393.80000000000007,49.6 393.20000000000005,48.9 C 387.9000000000001,43.199999999999996 382.9000000000001,37.3 379.0,30.299999999999997 C 377.29999999999995,27.199999999999996 376.0,24.099999999999994 376.0,20.499999999999993 C 376.20000000000005,20.39999999999999 376.29999999999995,20.199999999999996 376.5,20.099999999999994 C 379.0,22.799999999999997 381.4,25.4 383.9,28.1 C 386.1,30.6 388.19999999999993,33.2 390.5,35.5 C 391.5,36.5 392.79999999999995,37.1 394.4,38.1 C 394.69999999999993,30.6 394.0,23.700000000000003 396.6,17.299999999999997 C 396.80000000000007,17.299999999999997 396.9,17.299999999999997 397.1,17.299999999999997 C 398.20000000000005,24.299999999999997 399.4,31.4 400.5,38.4 C 404.0,37.9 405.9,35.5 406.4,31.5 C 407.29999999999995,24.9 406.19999999999993,18.5 405.1,12.1 C 404.4,8.2 403.6,4.199999999999999 403.30000000000007,0.0 C 404.6,1.4000000000000004 406.0000000000001,2.700000000000001 407.0000000000001,4.299999999999999 C 410.70000000000016,9.899999999999999 412.30000000000007,16.4 413.60000000000014,22.9 C 414.70000000000016,28.4 415.9000000000001,33.9 416.9000000000001,39.4 C 417.70000000000005,43.6 419.9000000000001,46.9 422.5000000000001,50.1 C 427.20000000000016,55.9 429.10000000000014,62.800000000000004 429.20000000000016,70.3 C 429.20000000000016,70.5 429.20000000000016,70.8 429.20000000000016,71.0 C 429.20000000000016,71.1 429.3000000000002,71.2 429.5000000000001,71.5 C 438.60000000000014,52.00000000000001 439.60000000000014,31.500000000000007 436.9000000000001,10.500000000000005 C 437.10000000000014,10.500000000000005 437.30000000000007,10.400000000000004 437.5000000000001,10.400000000000004 C 438.5000000000001,13.100000000000003 439.60000000000014,15.700000000000005 440.5000000000001,18.400000000000006 C 445.80000000000007,34.900000000000006 445.10000000000014,51.300000000000004 440.0000000000001,67.6 C 436.70000000000016,78.1 432.0000000000001,87.8 426.20000000000016,96.89999999999999 C 423.60000000000014,100.99999999999999 422.60000000000014,105.19999999999999 422.5000000000001,110.1 C 422.20000000000016,126.5 420.0000000000001,142.6 415.4000000000001,158.3 C 415.30000000000007,158.60000000000002 415.20000000000005,159.0 415.10000000000014,159.70000000000002 C 417.9000000000001,158.4 419.8000000000002,156.50000000000003 421.3000000000002,154.20000000000002 C 424.8000000000002,149.00000000000003 426.70000000000016,142.9 427.9000000000002,136.8 C 429.70000000000016,127.9 431.20000000000016,118.80000000000001 432.9000000000002,109.9 C 433.0000000000002,109.10000000000001 433.20000000000016,108.4 433.5000000000002,107.4 C 435.2000000000003,108.60000000000001 435.8000000000002,110.5 435.9000000000002,112.2 C 436.3000000000002,118.0 436.8000000000002,123.80000000000001 436.5000000000002,129.6 C 436.10000000000025,137.9 434.5000000000002,146.0 432.2000000000003,154.0 C 430.0000000000002,161.9 425.5000000000002,167.7 419.2000000000003,172.1 C 412.3000000000003,176.79999999999998 405.3000000000003,181.5 398.5000000000002,186.4 C 392.10000000000025,191.0 386.8000000000002,196.8 383.10000000000025,204.20000000000002 C 382.5000000000002,205.4 382.5000000000002,206.20000000000002 383.10000000000025,207.50000000000003 C 384.10000000000025,209.80000000000004 385.0000000000002,212.30000000000004 385.4000000000002,214.80000000000004 C 385.60000000000025,216.30000000000004 385.10000000000025,218.20000000000005 384.3000000000002,219.50000000000003 C 382.9000000000002,221.70000000000002 382.3000000000002,224.10000000000002 383.0000000000002,226.50000000000003 C 385.0000000000002,233.10000000000002 382.8000000000002,238.20000000000002 378.4000000000002,242.80000000000004 C 376.10000000000025,245.20000000000005 374.70000000000016,248.10000000000005 373.5000000000002,251.30000000000007 C 372.8000000000002,253.10000000000008 370.9000000000002,254.50000000000006 369.4000000000002,255.9000000000001 C 365.3000000000002,259.6000000000001 360.3000000000002,261.4000000000001 355.4000000000002,263.30000000000007 C 351.8000000000002,264.70000000000005 351.9000000000002,264.80000000000007 352.70000000000016,268.9000000000001 C 356.4000000000002,287.80000000000007 360.20000000000016,306.80000000000007 363.60000000000014,325.80000000000007 C 366.10000000000014,339.9000000000001 368.10000000000014,354.1000000000001 370.20000000000016,368.30000000000007 C 371.60000000000014,377.30000000000007 372.8000000000002,386.4000000000001 374.0000000000001,395.50000000000006 C 374.10000000000014,396.50000000000006 373.60000000000014,397.70000000000005 373.10000000000014,398.6000000000001 C 371.8000000000002,400.7000000000001 371.10000000000014,402.7000000000001 371.3000000000002,405.30000000000007 C 372.4000000000002,421.9000000000001 368.9000000000002,437.80000000000007 364.60000000000014,453.50000000000006 C 362.10000000000014,462.6000000000001 359.70000000000016,471.70000000000005 357.3000000000002,480.80000000000007 C 357.20000000000016,481.1000000000001 357.10000000000014,481.4000000000001 357.10000000000014,481.30000000000007 C 356.10000000000014,480.6000000000001 355.20000000000016,479.9000000000001 354.10000000000014,479.30000000000007 C 353.8000000000002,479.20000000000005 353.0000000000001,479.70000000000005 352.8000000000002,480.1000000000001 C 350.10000000000014,486.2000000000001 345.70000000000016,491.2000000000001 341.9000000000002,496.4000000000001 C 341.10000000000025,497.4000000000001 340.70000000000016,498.4000000000001 340.9000000000002,499.7000000000001 C 341.60000000000025,507.30000000000007 339.8000000000002,514.4000000000001 336.8000000000002,521.3000000000001 C 331.5000000000002,533.7 324.10000000000014,544.4000000000001 313.9000000000002,552.7 C 312.4000000000002,553.9000000000001 310.8000000000002,554.9000000000001 309.10000000000025,555.8000000000001 C 308.10000000000025,556.3000000000001 307.60000000000025,557.0000000000001 307.3000000000003,558.1 C 304.3000000000003,571.0 298.9000000000003,582.7 292.00000000000034,593.7 C 286.00000000000034,603.2 279.60000000000036,612.5 273.3000000000003,621.8000000000001 C 272.00000000000034,623.6 272.00000000000034,625.4000000000001 272.60000000000025,627.4000000000001 C 273.10000000000025,629.2 273.7000000000003,630.9000000000001 274.3000000000003,632.7 C 275.7000000000003,636.5 276.10000000000025,640.3000000000001 275.60000000000025,644.3000000000001 C 273.9000000000002,657.0000000000001 274.10000000000025,669.6 275.5000000000002,682.3000000000001 C 278.2000000000003,707.1 285.5000000000002,730.4000000000001 295.10000000000025,753.0000000000001 C 296.5000000000002,756.4000000000001 298.5000000000002,759.6000000000001 299.60000000000025,763.1000000000001 C 301.5000000000002,769.3000000000002 303.3000000000003,775.5000000000001 301.2000000000003,782.1000000000001 C 299.9000000000003,786.1000000000001 298.4000000000003,786.8000000000002 294.7000000000003,785.4000000000001 C 293.3000000000003,784.9000000000001 291.8000000000003,784.6000000000001 290.2000000000003,784.2 C 290.3000000000003,785.0 290.4000000000003,785.4000000000001 290.4000000000003,785.7 C 290.60000000000036,787.9000000000001 289.00000000000034,789.4000000000001 287.10000000000036,788.4000000000001 C 275.8000000000004,782.7 266.50000000000034,775.0000000000001 263.00000000000034,761.5000000000001 C 262.10000000000036,758.0000000000001 262.2000000000004,754.4000000000001 263.10000000000036,750.9000000000001 C 263.3000000000004,750.0000000000001 263.3000000000004,749.4000000000001 262.60000000000036,748.6000000000001 C 259.7000000000004,745.7000000000002 259.60000000000036,742.2000000000002 261.2000000000004,738.5000000000001 C 262.10000000000036,736.5000000000001 263.2000000000004,734.7000000000002 263.90000000000043,732.7000000000002 C 264.3000000000004,731.6000000000001 264.6000000000005,730.3000000000002 264.40000000000043,729.2000000000002 C 261.00000000000045,708.7000000000002 257.6000000000005,688.3000000000002 252.2000000000004,668.3000000000002 C 251.8000000000004,666.9000000000002 251.40000000000043,665.6000000000001 251.00000000000034,664.2000000000002 C 251.00000000000034,664.1000000000001 250.8000000000003,664.0000000000001 250.60000000000036,663.8000000000002 C 250.3000000000004,664.3000000000002 249.8000000000004,664.7000000000002 249.7000000000004,665.2000000000002 C 246.8000000000004,674.9000000000002 243.7000000000004,684.6000000000001 241.10000000000036,694.4000000000002 C 239.10000000000036,702.1000000000003 238.60000000000036,710.0000000000002 240.60000000000036,717.9000000000002 C 241.60000000000036,722.0000000000002 243.7000000000004,725.6000000000003 245.90000000000032,729.2000000000002 C 247.70000000000027,732.2000000000002 249.10000000000036,735.5000000000001 250.40000000000032,738.8000000000002 C 252.20000000000027,743.4000000000002 253.8000000000003,748.0000000000002 255.10000000000036,752.7000000000002 C 255.50000000000034,754.2000000000002 254.90000000000032,756.0000000000001 254.8000000000004,757.6000000000001 C 254.7000000000004,758.3000000000002 254.50000000000045,759.0000000000001 254.60000000000036,759.7000000000002 C 255.2000000000004,764.1000000000001 253.40000000000032,766.3000000000002 249.2000000000004,766.3000000000002 C 235.00000000000034,766.3000000000002 222.40000000000038,755.0000000000002 220.0000000000004,740.2000000000002 C 219.90000000000038,739.8000000000002 219.90000000000038,739.3000000000002 219.90000000000038,738.9000000000002 C 219.90000000000038,736.3000000000002 219.7000000000004,734.0000000000002 217.40000000000038,732.0000000000002 C 214.7000000000004,729.6000000000003 215.0000000000004,725.7000000000003 215.5000000000004,722.2000000000003 C 215.7000000000004,720.6000000000003 216.10000000000042,719.0000000000002 216.5000000000004,717.4000000000003 C 208.8000000000004,715.9000000000003 202.8000000000004,711.2000000000003 196.7000000000004,706.6000000000004 C 193.0000000000004,703.8000000000004 191.60000000000036,700.3000000000004 191.8000000000004,695.6000000000004 C 191.90000000000043,693.5000000000003 191.7000000000004,691.4000000000003 191.5000000000004,689.3000000000004 C 191.40000000000038,687.3000000000004 190.7000000000004,686.6000000000004 188.90000000000038,686.7000000000004 C 186.90000000000038,686.8000000000004 185.90000000000038,686.1000000000004 184.80000000000035,684.0000000000003 C 183.30000000000035,680.8000000000003 182.30000000000035,677.0000000000003 179.30000000000035,674.6000000000004 C 178.70000000000033,674.1000000000004 178.70000000000033,672.7000000000004 178.60000000000036,671.7000000000004 C 177.80000000000035,662.5000000000003 174.00000000000034,654.8000000000004 168.50000000000034,647.9000000000004 C 161.80000000000035,639.4000000000004 153.40000000000032,633.0000000000005 145.40000000000032,626.1000000000005 C 139.40000000000032,621.0000000000005 133.3000000000003,616.0000000000005 128.3000000000003,609.6000000000005 C 126.70000000000027,607.5000000000005 125.1000000000003,605.4000000000004 123.6000000000003,603.1000000000005 C 123.3000000000003,602.6000000000005 123.3000000000003,601.4000000000004 123.6000000000003,600.7000000000005 C 125.20000000000033,597.3000000000005 127.1000000000003,594.1000000000005 128.50000000000028,590.7000000000005 C 131.50000000000028,583.2000000000005 132.00000000000028,575.4000000000005 131.3000000000003,567.4000000000005 C 130.20000000000027,554.8000000000005 126.00000000000028,543.0000000000006 123.00000000000028,530.9000000000005 C 121.6000000000003,525.4000000000005 120.70000000000027,519.8000000000005 119.50000000000028,514.3000000000005 C 119.40000000000026,513.8000000000005 119.3000000000003,513.1000000000005 119.00000000000028,512.7000000000005 C 116.40000000000026,509.8000000000005 113.70000000000027,507.00000000000045 110.20000000000027,505.5000000000005 C 109.70000000000027,505.3000000000005 109.00000000000028,505.5000000000005 108.50000000000028,505.8000000000005 C 102.3000000000003,510.2000000000005 96.20000000000027,514.8000000000005 90.00000000000028,519.1000000000005 C 82.6000000000003,524.2000000000005 75.50000000000028,529.7000000000005 70.70000000000027,537.9000000000004 C 70.00000000000028,539.1000000000005 69.20000000000027,540.3000000000004 68.8000000000003,541.6000000000005 C 66.70000000000027,547.7000000000005 62.20000000000027,551.2000000000005 57.20000000000027,554.2000000000005 C 53.40000000000026,556.5000000000005 49.500000000000284,558.8000000000005 46.800000000000296,562.5000000000005 C 45.10000000000031,564.9000000000004 43.70000000000027,567.6000000000005 42.300000000000296,570.2000000000005 C 35.300000000000296,584.2000000000005 31.000000000000284,599.2000000000005 28.600000000000307,614.8000000000005 C 26.500000000000284,628.8000000000005 25.800000000000296,642.9000000000005 26.800000000000296,657.1000000000005 C 27.500000000000284,666.7000000000005 28.500000000000284,676.4000000000004 31.40000000000032,685.6000000000005 C 33.00000000000034,690.5000000000005 35.50000000000034,695.1000000000005 37.50000000000034,699.9000000000004 C 40.30000000000035,706.6000000000005 43.00000000000034,713.4000000000004 45.70000000000033,720.2000000000004 C 46.50000000000034,722.2000000000004 46.70000000000033,724.2000000000004 45.50000000000034,726.2000000000004 C 44.20000000000033,728.4000000000004 42.600000000000364,729.0000000000003 40.30000000000035,727.7000000000004 C 39.70000000000033,727.4000000000004 39.20000000000033,727.0000000000003 38.70000000000033,726.6000000000004 C 37.60000000000031,725.9000000000003 36.50000000000034,726.0000000000003 35.70000000000033,727.1000000000004 C 34.80000000000035,728.4000000000003 33.70000000000033,728.5000000000003 32.40000000000032,728.6000000000004 C 23.800000000000296,729.1000000000004 17.600000000000307,724.6000000000004 12.800000000000296,717.5000000000003 C 9.500000000000284,712.6000000000004 6.700000000000273,707.4000000000003 3.500000000000284,702.4000000000003 C 2.000000000000284,700.1000000000004 0.7000000000002728,697.8000000000003 2.8421709430404007e-13,695.1000000000004 C 0.4999999999998863,693.5999999999998 0.4999999999998863,692.0999999999998 0.4999999999998863,690.5999999999998 M 219.89999999999986,697.7999999999997 C 220.09999999999985,697.7999999999997 220.19999999999987,697.7999999999997 220.39999999999986,697.7999999999997 C 220.39999999999986,696.9999999999998 220.39999999999986,696.2999999999997 220.59999999999985,695.4999999999998 C 220.79999999999984,694.2999999999997 220.89999999999986,692.8999999999997 221.39999999999986,691.7999999999997 C 225.19999999999987,684.4999999999998 227.19999999999987,676.4999999999998 227.89999999999986,668.2999999999997 C 228.69999999999987,658.1999999999997 228.9999999999999,647.9999999999998 229.79999999999984,637.8999999999997 C 230.29999999999984,630.7999999999997 231.89999999999986,623.8999999999997 235.29999999999984,617.5999999999998 C 235.79999999999984,616.5999999999998 235.89999999999986,615.7999999999998 235.5999999999998,614.6999999999998 C 234.69999999999982,611.9999999999998 233.8999999999998,609.1999999999998 233.19999999999982,606.3999999999999 C 228.29999999999984,588.2999999999998 224.29999999999984,570.0999999999999 220.99999999999983,551.5999999999999 C 220.69999999999982,549.8999999999999 220.09999999999985,548.4999999999999 218.69999999999982,547.3999999999999 C 217.49999999999983,546.4999999999999 216.0999999999998,545.4999999999999 215.3999999999998,544.1999999999998 C 214.49999999999983,542.5999999999998 213.29999999999978,542.2999999999998 211.8999999999998,542.0999999999998 C 211.29999999999978,541.9999999999998 210.69999999999982,541.9999999999998 210.19999999999982,541.9999999999998 C 205.0999999999998,541.5999999999998 199.99999999999983,541.2999999999997 194.79999999999984,540.8999999999997 C 192.39999999999986,540.6999999999997 190.09999999999985,540.1999999999997 187.79999999999984,539.7999999999997 C 185.89999999999986,539.4999999999998 184.89999999999986,540.2999999999997 184.59999999999985,542.1999999999997 C 184.49999999999983,542.6999999999997 184.29999999999984,543.0999999999997 184.19999999999987,543.5999999999997 C 183.69999999999987,548.4999999999997 183.19999999999987,553.3999999999996 182.7999999999999,558.3999999999996 C 182.39999999999992,563.5999999999997 180.9999999999999,568.3999999999996 178.39999999999992,572.6999999999996 C 177.69999999999993,573.7999999999996 176.5999999999999,574.5999999999996 175.5999999999999,575.4999999999995 C 174.4999999999999,576.4999999999995 173.0999999999999,577.3999999999995 172.19999999999993,578.5999999999996 C 168.49999999999994,582.9999999999995 165.89999999999992,588.0999999999996 164.0999999999999,593.5999999999996 C 161.89999999999992,600.4999999999995 160.4999999999999,607.3999999999995 165.69999999999993,613.5999999999996 C 165.99999999999994,613.9999999999995 166.19999999999993,614.3999999999995 166.49999999999994,614.7999999999996 C 172.29999999999995,624.0999999999996 179.69999999999993,631.8999999999996 187.09999999999997,639.7999999999996 C 194.39999999999998,647.5999999999996 201.7,655.2999999999996 207.89999999999998,664.0999999999996 C 212.89999999999998,671.2999999999996 217.0,679.0999999999996 218.79999999999995,687.9999999999995 C 219.09999999999985,691.1999999999997 219.39999999999986,694.4999999999998 219.89999999999986,697.7999999999997 M 224.79999999999984,175.79999999999976 C 228.09999999999985,189.29999999999976 239.29999999999984,200.19999999999976 250.5999999999998,203.09999999999977 C 249.69999999999982,195.89999999999975 234.79999999999984,179.59999999999974 224.79999999999984,175.79999999999976 M 404.89999999999986,56.99999999999976 C 407.0999999999999,63.39999999999976 409.29999999999984,69.69999999999975 412.79999999999984,75.29999999999976 C 413.89999999999986,77.09999999999975 415.5999999999998,78.09999999999975 417.6999999999998,78.19999999999976 C 420.1999999999998,69.69999999999975 412.1999999999998,59.699999999999754 404.89999999999986,56.99999999999976"/>
</svg>
