<?xml version="1.0" ?>
<svg xmlns="http://www.w3.org/2000/svg" xmlns:ev="http://www.w3.org/2001/xml-events" xmlns:inkscape="http://www.inkscape.org/namespaces/inkscape" xmlns:sodipodi="http://sodipodi.sourceforge.net/DTD/sodipodi-0.dtd" xmlns:svg="http://www.w3.org/2000/svg" xmlns:xlink="http://www.w3.org/1999/xlink" baseProfile="full" height="230" id="svg8" inkscape:version="1.2.2 (1:1.2.2+202212051550+b0a8486541)" sodipodi:docname="forest04.svg" transform="scale(0.4716981132075472 0.4716981132075472) translate(-106.0 -115.0)" version="1.1" viewBox="0 0 212 230" width="212">
	<defs/>
	<path d="M 98.65791921561404,0.007521538922730997 C 98.69321921561405,-0.009578461077296652 98.73301921561404,0.007521538922730997 98.77741921561403,0.024621538922758646 C 98.95382921561404,0.11222153892276765 99.20080921561404,0.4798715389227368 99.54224921561402,1.0705615389227319 C 99.88368921561403,1.6623915389227477 100.31844921561401,2.4772915389227137 100.80898921561402,3.421941538922738 C 101.29951921561403,4.366591538922762 101.84467921561401,5.44212153892272 102.31700921561401,6.315061538922748 C 102.789329215614,7.188011538922751 103.186539215614,7.858371538922768 103.68048921561402,8.813261538922745 C 104.17556921561402,9.769291538922744 104.76853921561403,11.010991538922724 105.15094921561402,12.325531538922746 C 105.53222921561402,13.641211538922732 105.70294921561401,15.027451538922719 105.69269921561403,16.395481538922752 C 105.68369921561404,17.76465153892275 105.49124921561403,19.11220153892276 105.15436921561403,20.25033153892275 C 104.81747921561401,21.38846153892274 104.33490921561403,22.317171538922764 104.06403921561403,22.816811538922764 C 103.79088921561404,23.316451538922763 103.72714921561402,23.385881538922774 103.64406921561402,23.718211538922787 C 103.56096921561402,24.051681538922765 103.45854921561403,24.648061538922775 103.13531921561403,25.910251538922807 C 102.81322921561403,27.17357153892283 103.95704921561403,30.362611538922806 102.88493921561403,32.65936153892278 C 101.81281921561401,34.9572415389228 98.52361921561402,36.35942153892279 96.59107921561403,38.89404153892281 A 45.698196,45.698196 0.0 0,1 89.76115921561404,46.05970153892281 A 51.56867,51.56867 0.0 0,1 81.09998921561404,51.985941538922816 C 78.07938921561404,53.61575153892284 75.04627921561405,54.814201538922816 72.83374921561403,56.00354153892283 C 70.62122921561402,57.19289153892282 69.22814921561402,58.37541153892283 68.03994921561403,59.44639153892285 C 67.00424921561404,60.381931538922856 66.16202921561404,61.19683153892288 65.50191921561404,61.85239153892286 C 65.68970921561404,61.819391538922844 65.90367921561403,61.75449153892288 66.18706921561403,61.62363153892284 C 66.94164921561404,61.26853153892284 68.09571921561403,60.52306153892283 69.11547921561404,59.88343153892282 C 70.13523921561404,59.24494153892283 71.01956921561404,58.71115153892282 72.13721921561404,58.27867153892282 C 73.25485921561403,57.84731153892284 74.60581921561405,57.516121538922846 75.87938921561403,57.27370153892281 C 77.15294921561403,57.031271538922795 78.34912921561403,56.875351538922814 79.17768921561404,56.93909153892281 C 80.00510921561403,57.00279153892279 80.46263921561405,57.28508153892278 80.64359921561405,57.747161538922796 C 80.82341921561405,58.210381538922775 80.72329921561405,58.875051538922776 80.37044921561406,59.905051538922805 C 80.01762921561405,60.93506153892281 79.40758921561405,62.34065153892283 78.72243921561406,63.54138153892279 A 15.4228,15.4228 0.0 0,1 76.56225921561406,66.49141153892282 C 75.84751921561406,67.24485153892283 75.17829921561406,67.75474153892281 74.06747921561407,68.2373015389228 C 72.95666921561408,68.72101153892277 71.40311921561408,69.17854153892279 70.16369921561406,69.28893153892278 C 68.92540921561405,69.39933153892281 68.00352921561407,69.16602153892279 67.55509921561406,69.17740153892277 C 67.10781921561406,69.1945015389228 67.13854921561406,69.47445153892278 66.92002921561405,69.92060153892277 A 2.4697421,2.4697421 0.0 0,0 66.72654921561406,71.16799153892276 C 67.03383921561405,73.28491153892276 68.09001921561406,74.61197153892277 69.46260921561407,76.97245153892277 C 70.83405921561408,79.33407153892279 72.49799921561407,81.90055153892274 74.23250921561407,84.03682153892277 C 75.96701921561407,86.17309153892279 77.76981921561406,87.87801153892275 79.24938921561406,89.20052153892277 C 80.72895921561405,90.52303153892274 81.62807921561406,91.94455153892272 83.72678921561405,92.75604153892277 C 89.86130921561406,95.12676153892278 93.54998921561403,95.13473153892278 98.69888921561406,95.70379153892281 C 103.84892921561405,96.27058153892278 109.82297921561405,97.80364153892276 113.99307921561407,98.46945153892284 C 118.16318921561407,99.1352615389228 124.42517921561407,99.54384153892283 130.44247921561407,99.19216153892285 C 136.46090921561407,98.84048153892286 142.23236921561406,97.7319415389228 148.55467921561407,97.39506153892285 A 84.089597,84.089597 0.0 0,1 168.1703492156141,98.70732153892288 C 174.62012921561407,99.91943153892294 180.5725492156141,101.88612153892291 184.3773192156141,103.75493153892285 C 186.9381092156141,105.01370153892287 188.4893792156141,106.2474315389228 189.80847921561408,107.71903153892288 C 191.2618692156141,109.05520153892292 192.4705592156141,110.50973153892289 193.38219921561407,111.66038153892293 A 52.680623,52.680623 0.0 0,1 195.9475492156141,115.14875153892297 C 196.6918892156141,116.24704153892299 197.4965392156141,117.48305153892295 198.27615921561411,119.00018153892302 C 199.05463921561412,120.517301538923 199.80580921561412,122.30758153892305 200.42039921561414,124.00340153892307 C 201.03498921561416,125.69921153892312 201.51299921561414,127.30056153892303 201.61201921561414,128.75281153892308 C 201.71217921561416,130.20279153892307 201.43219921561413,131.50367153892307 200.64915921561416,132.99462153892307 C 199.8672692156142,134.48557153892307 198.55272921561416,136.20415153892304 197.68888921561418,136.35438153892312 C 196.82390921561418,136.50462153892317 196.3982492156142,135.10244153892313 196.12395921561418,133.67978153892307 C 195.8485292156142,132.25939153892307 195.72333921561417,130.8208015389231 195.2521492156142,129.32871153892302 C 195.09167921561422,128.81996153892305 194.8879492156142,128.30439153892303 194.65576921561419,127.79906153892307 C 194.12767921561417,129.90119153892306 193.5051192156142,131.98055153892312 193.0532792156142,133.82432153892307 C 192.07904921561422,137.80095153892307 191.91970921561418,140.77488153892307 191.88100921561417,143.1979615389231 C 191.84120921561416,145.61990153892305 191.91970921561418,147.48985153892306 192.22244921561415,148.99104153892313 C 192.52518921561412,150.4911015389231 193.05214921561415,151.62354153892318 194.28245921561413,153.26358153892318 A 36.926628,36.926628 0.0 0,0 199.36307921561414,158.68791153892323 C 201.3013092156141,160.35299153892322 203.29644921561416,161.57762153892327 204.82268921561413,162.55186153892328 C 206.35005921561415,163.52610153892329 207.42899921561414,164.26247153892325 208.0868392156141,165.75000153892324 C 208.74467921561413,167.2375415389232 208.9814092156141,169.47510153892324 209.00872921561412,172.56854153892323 C 209.03492921561414,175.66312153892318 208.84938921561414,179.61243153892326 208.83686921561414,184.66800153892325 C 208.82316921561417,189.7247115389232 208.98254921561417,195.88541153892322 209.12708921561412,199.74253153892323 C 209.27277921561412,203.59966153892321 209.4036592156141,205.15207153892322 209.4184592156141,206.22874153892326 C 209.43325921561407,207.3054115389233 209.3319592156141,207.90520153892328 209.12253921561407,208.85213153892323 C 208.91425921561407,209.7990515389232 208.59558921561407,211.09310153892318 208.47038921561406,211.7816715389232 C 208.3451992156141,212.4713815389232 208.41238921561407,212.55560153892316 208.64907921561408,212.8674515389232 C 208.88694921561407,213.17930153892326 209.2943992156141,213.71763153892323 209.67566921561408,214.27076153892324 C 210.05807921561407,214.8250315389232 210.4120392156141,215.39410153892322 210.65901921561405,215.79927153892322 C 210.90598921561403,216.20331153892323 211.04597921561404,216.44573153892327 211.14840921561407,216.68701153892323 C 211.25084921561407,216.92943153892327 211.31571921561405,217.17299153892327 210.85477921561406,217.62825153892322 C 210.39496921561405,218.08464153892328 209.40593921561404,218.75500153892324 208.20634921561404,219.52437153892322 C 207.00675921561404,220.29489153892325 205.60799921561406,221.15531153892323 204.756679215614,221.59691153892322 C 203.904219215614,222.0396415389232 203.59008921561403,222.05899153892324 203.36815921561399,221.9781815389232 C 203.147359215614,221.8961815389232 203.00281921561398,221.7050315389232 202.72852921561397,220.9993915389232 C 202.453099215614,220.29147153892325 202.042239215614,219.0622915389232 201.852169215614,218.2155215389232 C 201.66095921561399,217.36875153892322 201.68941921561398,216.9021215389232 201.58697921561398,216.4366215389232 C 201.48454921561395,215.96999153892318 201.25122921561396,215.50563153892324 201.18977921561398,214.95136153892315 C 201.129479215614,214.39710153892315 201.24207921561398,213.73698153892315 201.43219921561396,213.1645015389231 C 201.62339921561394,212.59202153892306 201.89427921561398,212.09807153892314 202.04792921561395,211.3765015389231 C 202.20156921561394,210.65492153892308 202.23912921561393,209.70459153892307 202.39277921561396,208.68141153892304 C 202.54642921561398,207.65709153892305 202.81615921561396,206.55993153892302 202.99825921561396,204.37700153892308 C 203.18036921561398,202.19407153892303 203.27141921561397,198.92649153892307 203.05745921561393,194.7632115389231 C 202.84120921561393,190.59994153892308 202.3176692156139,185.54095153892308 201.75998921561396,181.79991153892308 C 201.20230921561395,178.06002153892314 200.60819921561395,175.63808153892307 198.99888921561396,173.94113153892306 C 197.38842921561397,172.24531153892303 194.76162921561397,171.27449153892303 192.52747921561397,170.22513153892305 A 33.605565,33.605565 0.0 0,1 186.86413921561396,166.881311538923 C 185.27417921561394,165.71472153892296 183.93231921561394,164.507171538923 183.005879215614,163.53520153892305 C 182.079449215614,162.56438153892304 181.56955921561396,161.826871538923 181.320309215614,161.504781538923 C 181.072199215614,161.18155153892303 181.08585921561402,161.273741538923 181.38860921561403,162.22863153892297 C 181.691349215614,163.18238153892298 182.28431921561403,164.998841538923 182.818099215614,166.46703153892292 C 183.350749215614,167.93521153892289 183.824209215614,169.05400153892288 184.587889215614,170.38447153892298 C 185.351579215614,171.71381153892298 186.40434921561402,173.25483153892299 187.004139215614,174.55799153892303 C 187.602799215614,175.86115153892308 187.747339215614,176.928721538923 187.62214921561403,178.30927153892299 C 187.49694921561402,179.68982153892296 187.10087921561401,181.39019153892298 186.225659215614,183.68807153892294 C 185.350439215614,185.98482153892292 183.99606921561403,188.881361538923 182.494869215614,192.3572115389229 A 342.91857,342.91857 0.0 0,0 177.87975921561397,203.66453153892292 A 443.33578,443.33578 0.0 0,0 174.30602921561396,213.20320153892294 C 173.48884921561395,215.46125153892297 173.14512921561393,216.47418153892295 172.79686921561395,217.4746015389229 C 172.44859921561394,218.47615153892286 172.09349921561395,219.4651915389229 171.67238921561395,220.31423153892297 C 171.25128921561392,221.163281538923 170.76302921561395,221.873471538923 170.57295921561396,222.319621538923 C 170.38174921561395,222.76804153892306 170.48645921561396,222.951281538923 170.68563921561397,223.26199153892298 C 170.88480921561396,223.571561538923 171.17730921561397,224.00747153892303 171.497119215614,224.56856153892295 C 171.818079215614,225.13080153892292 172.166339215614,225.8170915389229 172.44176921561402,226.33039153892298 C 172.717199215614,226.84369153892294 172.919779215614,227.18285153892293 172.72971921561404,227.548191538923 C 172.53964921561405,227.91353153892294 171.95806921561402,228.30504153892298 170.25997921561404,228.57933153892304 C 168.55960921561402,228.853621538923 165.74159921561406,229.00841153892304 163.87392921561403,229.0482415389231 C 162.00511921561403,229.08694153892304 161.08550921561405,229.00954153892314 160.82373921561404,228.3699215389231 C 160.56196921561403,227.7302915389231 160.96030921561405,226.5284215389231 161.32906921561406,225.35843153892313 C 161.69781921561403,224.18843153892317 162.03698921561406,223.05030153892312 162.44443921561404,222.31734153892307 C 162.85188921561402,221.58325153892304 163.325349215614,221.2543315389231 163.65426921561405,220.68185153892307 C 163.98432921561405,220.10823153892306 164.16869921561405,219.29219153892302 164.48509921561404,218.42266153892308 C 164.80036921561404,217.5542715389231 165.24764921561402,216.63466153892307 165.80760921561406,215.60693153892305 C 166.36756921561405,214.58033153892302 167.03792921561407,213.44676153892306 168.13052921561408,210.91214153892304 C 169.22313921561405,208.377531538923 170.73798921561408,204.4430115389231 172.0343192156141,200.407201538923 C 173.33178921561407,196.372531538923 174.4107392156141,192.238841538923 175.06856921561408,189.22280153892302 C 175.72754921561406,186.20675153892307 175.96427921561408,184.31177153892304 175.6683692156141,182.51466153892306 C 175.3724592156141,180.7175515389231 174.54161921561408,179.02060153892307 172.56809921561407,177.02204153892308 C 170.59344921561407,175.02349153892305 167.47610921561406,172.72788153892304 164.93693921561405,169.73460153892313 C 162.39776921561403,166.7413215389231 160.44132921561405,163.05719153892312 159.32140921561407,159.17048153892313 C 158.33919921561406,155.76178153892317 157.97499921561408,152.23016153892308 157.19992921561408,149.17200153892315 C 156.89263921561408,149.17200153892315 156.48859921561407,149.15150153892318 156.20634921561407,149.15150153892318 C 154.06551921561407,149.12300153892318 153.14590921561407,149.66138153892314 151.65154921561407,150.06542153892315 C 149.64502921561407,150.60830153892312 147.74206921561407,151.48239153892314 145.75261921561406,152.08560153892313 C 141.97743921561406,153.22942153892313 138.16811921561407,154.27877153892314 134.31213921561405,155.10847153892314 C 129.63555921561405,156.11458153892318 124.23740921561406,156.64494153892315 120.15721921561405,157.47009153892316 C 116.07587921561404,158.2952315389232 112.51466921561405,158.9382815389232 110.68455921561406,159.30703153892318 C 108.85444921561407,159.67579153892314 108.76225921561405,159.7691115389232 108.24212921561406,160.63864153892314 C 107.72086921561404,161.5070415389231 106.77394921561407,163.15277153892316 105.72686921561404,166.05159153892316 C 104.67978921561405,168.9492715389232 103.54392921561404,173.06816153892316 102.80641921561406,176.40630153892312 C 102.06891921561405,179.7444315389231 101.75137921561407,182.20621153892307 101.19482921561405,185.07885153892312 C 100.63941921561405,187.9503515389231 99.84614921561405,191.2167815389231 99.19968921561406,193.9710615389231 C 98.55322921561407,196.72533153892311 98.05131921561406,198.96631153892315 97.41395921561406,201.48613153892313 C 96.77660921561406,204.00481153892315 96.00381921561404,206.80120153892312 95.55197921561407,208.52432153892312 C 95.10127921561406,210.24859153892316 94.97039921561407,210.8996015389231 94.87706921561406,211.6632915389231 C 94.78376921561406,212.42583153892303 94.72683921561406,213.30219153892313 94.59253921561407,213.90427153892313 C 94.45823921561407,214.50634153892315 94.26247921561406,214.80908153892312 94.02005921561405,215.16304153892315 C 93.77763921561404,215.51700153892318 93.49993921561406,215.90737153892314 93.34059921561405,216.44799153892313 C 93.18239921561405,216.98746153892318 93.14483921561404,217.67717153892318 93.13572921561405,218.40215153892314 C 93.12772921561404,219.12828153892315 93.14472921561403,219.89197153892314 93.02533921561405,220.48721153892313 C 92.90355921561405,221.0835915389231 92.64178921561404,221.51153153892312 92.52113921561406,221.9497115389231 C 92.39935921561406,222.3878915389231 92.41870921561406,222.90915153892308 92.37318921561405,223.29042153892306 C 92.32538921561405,223.671701538923 92.21384921561406,223.94826153892302 92.04653921561405,224.15313153892305 C 91.87923921561404,224.3579915389231 91.65502921561404,224.49115153892308 90.79004921561403,224.61179153892306 A 30.023869,30.023869 0.0 0,1 87.15030921561404,224.8451115389231 C 85.88356921561405,224.8451115389231 84.85924921561406,224.73357153892312 84.24579921561406,224.56627153892316 C 83.63120921561406,224.39896153892312 83.42634921561407,224.17475153892315 83.35805921561405,223.9129815389232 C 83.29205921561405,223.65121153892323 83.37055921561404,223.31660153892324 83.73818921561406,222.5699915389232 C 84.10694921561407,221.8222415389232 84.78526921561405,220.61809153892318 85.13808921561406,219.78954153892323 C 85.49090921561407,218.9609815389232 85.53074921561407,218.4943415389232 85.84714921561405,217.77732153892327 C 86.16354921561404,217.06030153892323 86.75878921561406,216.09289153892325 87.16851921561405,215.11637153892332 C 87.57823921561405,214.1375815389233 87.80017921561407,213.1508215389233 88.29412921561405,211.85677153892334 C 88.78693921561404,210.56272153892337 89.55175921561406,208.9636415389233 90.25967921561406,206.84217153892337 C 90.96759921561406,204.71956153892336 91.61860921561404,202.07340153892335 92.12962921561405,199.42156153892336 C 92.64178921561404,196.7685815389234 93.01508921561404,194.1042215389234 93.06175921561405,191.8791715389234 C 93.10725921561405,189.65527153892344 92.82843921561405,187.86727153892343 92.78177921561405,186.31372153892335 C 92.73507921561406,184.76017153892337 92.92289921561405,183.4376615389233 92.86717921561404,181.45390153892333 C 92.81137921561404,179.47128153892334 92.51207921561405,176.82854153892333 92.22298921561404,174.4919615389233 C 91.93504921561404,172.15538153892328 91.65619921561404,170.12496153892334 91.18273921561405,166.25190153892333 C 91.01088921561404,164.85200153892333 90.73317921561406,162.53932153892333 90.51806921561405,160.74335153892332 C 89.12272921561404,161.57760153892332 87.27326921561405,162.3458415389233 85.26332921561405,163.23358153892332 C 82.81748921561405,164.31366153892327 80.14856921561406,165.5758515389233 78.00205921561405,166.73902153892334 C 75.85440921561406,167.90219153892338 74.23029921561405,168.9663415389233 72.91461921561407,169.8256315389233 C 71.59779921561406,170.68492153892328 70.59055921561406,171.33707153892328 69.58672921561407,171.87995153892325 C 68.58289921561408,172.4228415389233 67.58361921561408,172.85874153892325 66.90528921561406,173.26392153892323 C 66.22696921561405,173.66909153892323 65.87186921561405,174.04809153892325 65.52814921561406,174.67520153892326 A 7.4513371,7.4513371 0.0 0,0 64.72462921561407,177.06300153892323 C 64.59374921561408,177.9530115389232 64.66542921561407,178.8817315389232 64.88055921561408,180.18489153892324 C 65.09452921561407,181.48918153892328 65.45189921561408,183.18158153892318 65.75008921561408,185.6877515389233 C 66.04827921561409,188.19277153892324 66.28500921561408,191.50814153892327 66.30776921561409,194.0507315389233 C 66.33056921561408,196.59331153892333 66.1416092156141,198.35741153892332 66.15981921561408,199.55245153892326 C 66.17911921561407,200.74748153892324 66.41020921561409,201.37118153892322 66.56840921561408,201.99829153892324 C 66.7277392156141,202.6242615389233 66.81195921561408,203.25364153892326 66.71408921561408,203.93652153892322 C 66.61618921561407,204.62054153892325 66.33280921561408,205.35919153892326 66.28842921561409,205.76891153892325 C 66.24292921561408,206.17750153892325 66.4363792156141,206.2583115389233 66.74594921561408,206.3732615389232 C 67.05438921561407,206.48821153892322 67.50280921561406,206.64300153892316 67.89090921561407,206.6873815389232 C 68.28014921561407,206.7317815389232 68.62158921561408,206.67028153892318 68.97782921561407,206.78638153892325 C 69.33519921561407,206.90247153892324 69.70622921561406,207.1972515389233 69.89287921561407,207.5978715389233 C 70.07953921561406,207.9984915389233 70.08066921561408,208.5277215389233 70.06928921561408,210.0425715389233 C 70.05788921561407,211.5585615389233 70.03518921561408,214.07269153892332 69.95661921561407,215.4031615389233 C 69.87921921561406,216.73136153892335 69.74036921561407,216.88273153892328 69.49225921561407,216.87135153892336 C 69.24528921561406,216.85545153892338 68.88449921561406,216.69722153892337 68.12650921561408,216.31480153892335 C 67.36736921561408,215.9323915389233 66.20988921561408,215.33601153892334 65.25044921561408,214.92629153892335 C 64.29214921561407,214.5154215389233 63.53414921561409,214.2923515389233 63.000369215614086,214.00668153892332 C 62.465449215614086,213.72214153892332 62.1331092156141,213.34770153892327 61.82353921561409,212.63409153892337 C 61.5151092156141,211.92048153892335 61.21577921561408,210.85406153892336 61.02912921561409,209.8490915389234 C 60.84132921561408,208.84298153892337 60.76735921561408,207.89378153892335 60.63532921561409,206.94913153892344 C 60.50330921561408,206.00448153892341 60.316659215614095,205.0632515389234 60.299589215614105,203.7908215389234 C 60.282489215614106,202.51725153892346 60.43501921561412,200.9079415389234 60.50330921561411,198.95832153892343 C 60.5716092156141,197.00871153892342 60.55680921561412,194.74952153892343 60.387219215614095,192.1409215389234 C 60.2176392156141,189.53233153892336 59.89212921561409,186.55953153892335 59.374289215614084,184.13076153892337 C 58.85529921561408,181.70313153892334 58.150799215614086,179.82067153892342 57.56806921561409,178.30809153892335 C 56.98534921561409,176.79665153892336 56.53123921561408,175.66080153892335 56.57789921561408,174.3610615389233 C 56.626799215614085,173.06017153892333 57.16858921561408,171.6193015389233 58.19745921561409,170.08169153892334 C 59.22746921561409,168.5440715389234 60.737769215614094,166.92110153892338 62.07278921561408,165.54624153892337 C 63.40895921561409,164.16910153892331 64.56756921561407,163.04122153892342 65.71935921561408,161.6925315389234 C 66.87114921561408,160.34385153892345 68.01610921561408,158.7766415389234 69.33633921561409,156.85889153892344 C 70.6565692156141,154.9411415389235 72.18165921561408,152.86406153892347 73.25832921561408,150.61056153892343 C 74.3816692156141,148.2626015389235 70.97637921561409,145.0610415389234 69.06090921561409,142.95891153892342 C 67.22396921561409,140.9444215389234 64.63926921561409,138.3665615389234 62.8489992156141,135.7488615389234 C 59.75555921561411,132.20017153892343 56.01793921561409,127.95381153892345 53.03375921561411,123.61184153892339 C 49.92893921561412,119.0934615389234 47.65723921561411,114.4931415389234 45.8293992156141,109.86551153892344 C 43.99928921561411,105.2378715389234 42.614179215614115,100.58178153892345 41.965449215614115,97.3005515389234 C 41.45328921561412,94.71244153892337 41.50222921561411,93.42749153892339 41.32126921561411,91.92858153892337 C 41.281469215614095,91.6053515389234 40.9877992156141,91.02490153892336 40.70211921561412,90.84394153892333 C 40.28101921561412,90.57762153892338 39.677809215614104,90.41714153892337 38.83558921561411,90.38527153892335 C 37.9910992156141,90.3533715389234 36.890529215614094,90.45357153892337 35.959539215614114,90.6595615389233 C 35.028549215614106,90.86670153892328 34.23185921561412,91.18424153892329 33.440859215614125,91.38455153892335 C 32.649849215614125,91.58486153892329 31.863409215614126,91.66908153892336 31.190769215614125,91.4892615389233 A 2.6666386,2.6666386 0.0 0,1 29.65429921561413,90.38527153892335 C 29.346999215614133,89.89929153892336 29.293509215614137,89.36892153892336 29.107989215614126,89.03773153892337 C 28.92019921561412,88.70539153892338 28.599249215614122,88.57337153892337 28.17472921561412,88.2114415389234 C 27.75020921561412,87.8495215389234 27.22096921561412,87.2588315389234 27.065049215614124,86.3073515389234 C 26.90912921561413,85.35588153892343 27.12654921561412,84.0458915389234 27.708089215614123,82.87475153892342 C 28.29081921561412,81.70476153892344 29.237739215614127,80.6758915389234 30.136859215614123,79.7983915389234 C 31.035989215614137,78.92203153892342 31.888449215614116,78.19590153892341 32.75455921561414,77.16020153892339 C 33.622959215614145,76.12450153892337 34.50613921561413,74.78037153892336 35.34494921561415,73.43738153892338 C 36.18488921561416,72.09439153892339 36.97929921561416,70.75253153892339 37.896629215614155,69.62920153892338 C 38.24489921561417,69.20354153892339 38.64324921561416,68.8438915389234 39.04727921561417,68.48765153892339 A 7.0529916,7.0529916 0.0 0,1 37.77712921561417,68.55135153892337 C 36.74597921561417,68.50245153892337 35.44168921561416,68.17804153892337 34.50272921561415,67.8161115389234 A 5.7851148,5.7851148 0.0 0,1 32.37442921561416,66.45605153892342 A 12.786891,12.786891 0.0 0,1 30.477159215614165,64.08532153892344 A 19.011324,19.011324 0.0 0,1 28.981659215614158,61.12732153892341 C 28.65273921561416,60.28511153892339 28.548029215614164,59.738811538923414 28.681199215614157,59.34843153892342 C 28.81548921561415,58.95805153892343 29.183109215614152,58.707661538923446 29.867129215614156,58.626851538923404 C 30.03784921561416,58.60635153892338 30.23018921561416,58.59725153892339 30.43618921561415,58.5949515389234 C 31.056469215614158,58.5949515389234 31.81787921561414,58.66895153892341 32.615709215614146,58.78615153892338 C 33.68099921561415,58.94208153892339 34.81229921561413,59.170841538923355 35.753539215614154,59.489521538923384 C 36.695909215614165,59.80819153892338 37.44934921561415,60.22020153892339 38.31659921561416,60.7141415389234 C 38.86062921561415,61.02258153892342 39.44107921561417,61.35833153892338 39.96119921561416,61.63603153892342 A 68.288938,68.288938 0.0 0,0 37.65079921561417,59.44627153892344 C 36.46258921561417,58.374151538923456 35.07065921561417,57.190491538923425 32.85698921561416,56.001151538923466 C 30.64446921561415,54.811801538923476 27.613629215614168,53.61449153892346 24.59416921561416,51.98355153892345 A 51.558427,51.558427 0.0 0,1 15.931859215614153,46.05844153892343 A 45.70161,45.70161 0.0 0,1 9.100809215614149,38.89278153892343 C 7.1682592156141425,36.35816153892341 3.5637992156141536,35.16768153892343 2.4916892156141444,32.86979153892344 C 1.4195672156141512,30.571911538923416 2.8797892156141387,27.171181538923463 2.5565892156141388,25.90785153892341 C 2.234499215614136,24.64567153892341 2.1309292156141453,24.050421538923388 2.0478492156141357,23.71809153892343 C 1.9647592156141371,23.384621538923454 1.901026215614138,23.315191538923443 1.6290132156141368,22.815551538923444 A 13.284253,13.284253 0.0 0,1 0.5386842156141398,20.24907153892343 C 0.20179821561413291,19.11094153892344 0.010592215614138922,17.76339153892343 0.0003492156141362557,16.394221538923432 C -0.008750784385867405,15.026191538923456 0.15968721561414156,13.638811538923449 0.5420982156141321,12.324271538923426 C 0.9245102156141343,11.00859153892344 1.5174762156141384,9.768031538923424 2.011429215614129,8.813141538923446 C 2.5065092156141304,7.857111538923448 2.9037192156141316,7.186751538923431 3.3749092156141245,6.31381153892346 C 3.847229215614121,5.440861538923457 4.393529215614123,4.365331538923442 4.884069215614119,3.419541538923454 C 5.373459215614119,2.47489153892343 5.809369215614112,1.6611315389234278 6.150799215614114,1.0693015389234688 C 6.49223921561412,0.47748153892348455 6.7392192156141135,0.11327153892347042 6.915629215614118,0.023361538923495573 A 0.15023316,0.15023316 0.0 0,1 7.03512921561412,0.005161538923516673 C 7.140979215614124,0.03476153892353295 7.211539215614124,0.2009215389235237 7.2502392156141156,0.4376515389234896 C 7.30143921561411,0.754051538923477 7.298039215614111,1.197921538923481 7.1113892156141105,1.9832315389234623 C 6.924729215614107,2.7685415389234436 6.553699215614117,3.895291538923459 6.20656921561411,4.900261538923473 C 5.859439215614103,5.905231538923488 5.535079215614104,6.78955153892349 5.234609215614114,7.649981538923498 A 94.339596,94.339596 0.0 0,0 4.326379215614111,10.398561538923502 C 3.9951892156141042,11.447921538923481 3.6093592156141057,12.705551538923487 3.3726292156141113,13.851651538923477 C 3.133619215614118,14.998891538923488 3.043709215614115,16.032311538923466 3.0687492156141047,16.834691538923494 A 7.1588377,7.1588377 0.0 0,0 3.36693921561411,18.68529153892348 C 3.5023792156141127,19.161031538923453 3.806259215614105,19.758551538923484 3.917789215614107,19.35223153892349 C 4.0281892156141055,18.94592153892347 4.228499215614107,18.216381538923486 4.780499215614114,17.070281538923496 C 5.33362921561411,15.92532153892347 6.381839215614107,14.347881538923502 6.980499215614117,12.891071538923484 C 7.156909215614121,12.45858153892351 7.359499215614122,11.798461538923505 7.387949215614114,11.548081538923498 C 7.416349215614119,11.297691538923516 7.53248921561412,10.768461538923475 7.661099215614115,10.1709415389235 A 11.161641,11.161641 0.0 0,1 8.30755921561412,8.187181538923483 C 8.576159215614126,7.576001538923492 8.801509215614118,7.162861538923494 9.087179215614114,6.741751538923495 C 9.371709215614118,6.318371538923486 9.608439215614112,5.996281538923483 9.778019215614108,5.819871538923508 C 9.947609215614108,5.642321538923511 10.051179215614113,5.607041538923511 10.091009215614108,5.691261538923527 C 10.129709215614113,5.775461538923537 10.104709215614108,5.975791538923545 10.012509215614102,6.305851538923548 C 9.921509215614108,6.6336315389235665 9.762119215614106,7.0900215389235655 9.614159215614109,7.574861538923528 C 9.463929215614115,8.060851538923544 9.323939215614104,8.576421538923512 9.255649215614113,9.242221538923502 C 9.211249215614117,9.671301538923501 9.196449215614109,10.164111538923521 9.220349215614107,10.6193615389235 A 33.801323,33.801323 0.0 0,1 11.316789215614108,8.517241538923486 A 41.190063,41.190063 0.0 0,1 15.097649215614112,5.455671538923468 C 15.980839215614111,4.827421538923488 16.289279215614116,4.693121538923492 16.587469215614107,4.588411538923481 C 16.884519215614105,4.483701538923469 17.18042921561411,4.407451538923453 17.30448921561411,4.5395115389234775 C 17.429679215614115,4.672671538923453 17.30148921561411,4.90144153892345 16.964189215614113,5.398801538923465 C 16.627299215614116,5.896161538923479 15.944419215614118,6.588151538923455 14.992949215614118,7.652301538923439 A 99.751404,99.751404 0.0 0,0 11.760659215614112,11.476411538923458 C 10.720409215614112,12.773881538923433 10.010209215614111,13.992821538923465 9.387659215614107,14.947711538923443 C 8.7650992156141,15.903741538923441 8.330329215614114,16.689051538923422 8.033279215614101,17.355991538923433 C 7.736229215614102,18.02294153892342 7.5757492156140955,18.573791538923444 7.518849215614097,18.994901538923443 C 7.461949215614098,19.41487153892342 7.507449215614102,19.70737153892344 7.612149215614096,19.845081538923466 C 7.7179992156141,19.981661538923447 7.885299215614097,19.966861538923467 8.181219215614092,19.681191538923485 C 8.477129215614099,19.396661538923468 8.901649215614086,18.842391538923493 9.523069215614086,18.086671538923497 C 10.144489215614087,17.32982153892351 10.96166921561408,16.372651538923492 11.609269215614091,15.56230153892352 C 12.255719215614093,14.751951538923493 12.739429215614095,14.081591538923533 13.394989215614089,13.176781538923535 C 14.050549215614083,12.270831538923517 14.889359215614093,11.117901538923547 15.632559215614094,9.990021538923543 A 34.140486,34.140486 0.0 0,0 17.4763292156141,6.873821538923551 A 14.716021,14.716021 0.0 0,0 18.403899215614103,4.627151538923556 A 31.218906,31.218906 0.0 0,0 19.026459215614096,2.486321538923562 C 19.186939215614103,1.8398715389235463 19.279119215614102,1.3288515389235727 19.430489215614102,0.9692015389235848 C 19.5807292156141,0.610691538923561 19.790139215614104,0.40355153892357976 19.960859215614107,0.5867915389235918 C 20.13157921561411,0.7700215389235723 20.265879215614106,1.3436415389235776 20.27725921561411,2.1790315389235957 C 20.288659215614103,3.013281538923593 20.178259215614105,4.108161538923582 19.852739215614108,5.5217215389236 A 36.561288,36.561288 0.0 0,1 18.41869921561411,10.144801538923616 C 18.353799215614117,10.309831538923618 18.28894921561411,10.463481538923588 18.22407921561411,10.622821538923631 C 18.793139215614104,10.447541538923645 19.38041921561411,10.235851538923612 19.88005921561411,9.98660153892365 C 20.635769215614104,9.611021538923637 21.188909215614117,9.15804153892367 21.699929215614105,8.711901538923655 C 22.21207921561411,8.263471538923682 22.68212921561411,7.8218815389236624 23.0338092156141,7.531651538923654 C 23.385499215614104,7.240291538923657 23.618809215614093,7.10258153892363 23.742869215614093,7.10258153892363 C 23.865789215614086,7.10258153892363 23.879449215614088,7.250541538923642 23.755369215614095,7.553281538923613 C 23.632449215614102,7.857161538923606 23.3672692156141,8.321521538923605 23.09524921561409,8.74832153892362 A 6.9198304,6.9198304 0.0 0,1 22.029959215614085,10.077651538923647 C 21.518939215614083,10.580711538923651 20.78029921561408,11.189601538923625 20.07237921561409,11.622091538923655 C 19.36673921561409,12.054581538923628 18.457369215614094,12.482521538923663 17.72441921561409,13.025411538923663 C 17.280549215614087,13.353191538923681 16.850329215614096,13.71284153892367 16.498649215614094,14.138501538923663 C 15.44929921561409,15.40524153892369 14.831289215614092,16.77896153892368 13.924199215614095,18.349581538923644 A 68.620134,68.620134 0.0 0,0 11.55119921561409,22.88503153892367 A 7.9418711,7.9418711 0.0 0,0 10.738579215614095,26.079761538923663 C 10.653179215614088,27.60713153892368 10.878569215614093,28.732741538923676 11.370239215614092,30.62545153892364 C 11.73784921561409,32.03787153892364 12.21017921561409,33.39338153892362 12.794039215614092,33.302331538923625 C 13.149139215614085,33.18283153892361 13.309609215614088,32.241601538923646 13.611219215614085,30.619761538923626 A 44.16172,44.16172 0.0 0,1 14.85860921561408,25.574431538923648 A 42.349817,42.349817 0.0 0,1 16.57717921561408,21.062881538923648 A 31.173381,31.173381 0.0 0,1 18.085209215614086,18.06960153892362 C 18.47785921561409,17.40493153892362 18.72482921561408,17.107881538923607 19.007089215614087,16.891641538923636 C 19.28934921561408,16.675391538923634 19.60688921561409,16.538821538923628 19.754839215614084,16.727751538923656 C 19.90279921561408,16.91667153892365 19.88116921561408,17.428831538923646 19.682039215614083,18.227801538923643 C 19.48172921561408,19.02563153892362 19.10614921561408,20.11141153892362 18.67137921561408,21.601221538923653 C 18.236619215614084,23.09217153892365 17.74493921561408,24.989431538923668 17.439929215614086,26.94929153892366 C 17.29993921561409,27.848411538923642 17.200919215614093,28.758921538923687 17.132629215614088,29.678531538923664 C 17.71762921561408,29.18344153892366 18.31059921561409,28.629171538923686 18.774949215614086,28.07832153892366 C 19.44302921561409,27.28504153892368 19.84251921561409,26.50314153892367 20.201029215614085,25.74856153892364 C 20.558399215614088,24.992851538923617 20.87252921561408,24.26558153892364 21.127469215614084,23.76594153892364 C 21.381269215614083,23.26516153892362 21.57474921561409,22.992011538923634 21.71587921561408,22.93511153892365 C 21.855869215614078,22.875911538923674 21.943509215614085,23.03301153892363 21.952609215614075,23.43588153892364 C 21.96060921561407,23.838781538923627 21.89000921561407,24.494341538923663 21.793269215614075,25.108931538923628 A 8.5132124,8.5132124 0.0 0,1 21.24127921561407,27.13025153892363 C 20.911219215614068,27.94857153892366 20.378579215614067,28.995651538923653 19.792439215614067,29.82876153892363 C 19.206299215614067,30.661871538923606 18.73169921561407,31.04656153892364 18.235479215614063,31.617901538923604 A 4.5343099,4.5343099 0.0 0,0 17.214579215614066,33.70295153892363 C 16.90272921561406,35.33959153892363 17.26697921561407,37.247091538923655 17.60722921561407,38.687961538923616 C 17.891759215614073,39.89097153892362 18.270759215614063,40.671721538923634 18.909249215614068,41.47411153892364 C 19.931289215614072,42.75564153892361 22.52963921561407,44.74737153892363 22.787999215614064,44.49926153892363 C 22.939369215614065,44.329671538923606 22.879099215614062,43.79703153892365 22.84599921561407,43.24162153892365 C 22.768599215614074,41.912291538923625 22.897199215614066,40.37922153892367 23.09411921561407,39.24223153892365 A 11.140016,11.140016 0.0 0,1 23.870319215614074,36.615431538923644 C 24.186719215614076,35.86426153892364 24.558889215614073,35.089201538923646 24.84455921561407,34.64646153892363 C 25.131369215614072,34.20601153892363 25.337369215614075,34.09106153892361 25.453459215614075,34.25267153892361 C 25.57068921561408,34.413151538923614 25.599139215614073,34.85019153892358 25.53765921561407,35.58087153892359 C 25.475059215614067,36.311551538923595 25.32141921561407,37.33700153892357 25.200769215614073,38.42278153892357 C 25.078989215614072,39.50856153892357 24.986809215614073,40.65351153892357 25.183669215614074,41.996511538923585 C 25.380569215614074,43.33836153892361 25.63322921561408,44.65176153892361 26.410579215614078,45.6920215389236 C 27.01491921561407,46.502361538923594 27.978919215614084,47.10102153892359 28.897389215614083,47.42425153892361 C 30.86293921561409,48.116231538923614 33.54323921561408,49.09047153892362 35.67836921561408,50.02488153892364 C 37.139729215614096,50.66451153892365 39.010809215614074,52.04620153892364 39.252099215614095,51.87206153892362 C 39.35907921561409,51.7969615389236 39.31699921561409,51.645571538923605 39.2839992156141,51.507861538923635 C 38.9459792156141,50.12845153892363 38.7263192156141,48.79342153892361 38.7376992156141,47.50733153892361 C 38.746699215614086,46.22011153892362 38.98694921561409,44.98296153892363 39.2965192156141,43.9449915389236 C 39.6072292156141,42.9070115389236 39.98736921561411,42.068211538923606 40.09662921561409,41.30111153892358 C 40.2047492156141,40.53401153892355 40.04082921561408,39.83747153892358 39.863309215614095,39.16143153892358 A 25.595406,25.595406 0.0 0,0 39.285139215614095,37.2266015389236 C 39.07344921561409,36.622261538923624 38.8401292156141,36.06571153892361 38.654619215614105,35.59225153892362 C 38.4702392156141,35.11765153892361 38.3325292156141,34.72386153892364 38.29496921561412,34.441601538923635 C 38.25736921561412,34.15821153892364 38.31996921561412,33.98635153892366 38.552189215614106,34.019351538923615 C 38.783229215614114,34.053551538923614 39.18384921561412,34.292511538923634 39.614059215614105,34.74548153892363 C 40.0442792156141,35.19846153892365 40.502939215614106,35.86540153892361 40.932019215614105,36.640471538923634 C 41.3610892156141,37.41553153892363 41.7708192156141,38.32035153892366 42.045109215614104,39.099971538923626 C 42.31825921561409,39.87959153892365 42.461659215614105,40.54539153892364 42.477599215614106,41.27038153892363 C 42.492399215614114,41.99651153892364 42.3762992156141,42.78409153892363 42.20444921561412,43.69460153892362 C 42.03372921561413,44.602831538923624 41.806099215614125,45.63169153892363 41.81861921561412,46.73796153892363 C 41.83231921561412,47.84422153892365 42.08721921561411,49.0267415389236 42.40589921561411,50.20015153892365 C 42.72456921561411,51.372421538923675 43.105849215614114,52.535591538923654 43.5007792156141,53.52235153892366 C 43.8740792156141,54.45334153892367 44.16657921561409,55.063381538923636 44.670769215614115,55.72349153892367 C 45.21251921561412,56.43255153892369 45.96596921561411,56.953811538923674 46.74444921561411,57.36809153892369 C 47.05856921561411,57.53540153892368 47.3988692156141,57.62531153892371 47.76193921561412,57.690181538923696 C 48.42432921561411,57.80969153892369 49.09354921561413,58.101051538923684 50.010879215614125,58.31274153892372 C 52.21315921561413,58.82035153892372 53.18853921561413,59.0070015389237 55.68331921561412,58.31274153892372 C 56.59040921561413,58.060071538923694 57.26986921561411,57.80855153892372 57.932259215614124,57.690181538923696 C 58.29532921561412,57.62528153892367 58.854149215614115,57.41134153892369 59.26500921561413,57.170061538923676 C 59.91943921561412,56.7853715389237 60.48053921561413,56.433691538923654 61.02228921561414,55.72463153892369 C 61.52647921561413,55.064521538923714 61.81897921561415,54.45334153892367 62.192289215614124,53.522351538923715 C 62.58721921561411,52.53559153892371 62.96848921561411,51.37242153892373 63.287169215614114,50.19901153892374 C 63.60583921561411,49.026741538923716 63.860779215614116,47.84308153892374 63.8744392156141,46.73796153892374 C 63.8881392156141,45.63169153892375 63.660469215614114,44.60283153892374 63.487479215614115,43.693461538923714 C 63.31675921561413,42.78523153892371 63.20293921561412,41.99765153892372 63.21659921561411,41.27152153892371 C 63.23139921561412,40.545391538923695 63.374799215614104,39.879591538923705 63.64908921561411,39.09997153892368 C 63.9222392156141,38.32035153892366 64.33196921561412,37.41553153892369 64.76103921561412,36.64047153892369 C 65.19011921561412,35.86540153892366 65.64878921561413,35.19846153892371 66.07899921561412,34.745481538923684 C 66.5092092156141,34.29137153892367 66.90982921561411,34.05236153892366 67.14086921561412,34.01935153892367 C 67.37304921561412,33.98525153892365 67.43564921561412,34.159341538923684 67.3980892156141,34.44046153892367 C 67.36048921561411,34.72499153892369 67.2228192156141,35.11765153892367 67.03843921561412,35.592251538923676 C 66.85292921561413,36.066851538923686 66.6196092156141,36.62226153892368 66.40791921561413,37.22774153892368 A 25.659141,25.659141 0.0 0,0 65.82974921561413,39.16256153892368 C 65.65219921561413,39.837471538923694 65.48830921561412,40.534011538923664 65.59642921561414,41.302251538923656 C 65.70568921561414,42.06821153892366 66.08582921561413,42.907011538923655 66.39653921561413,43.94499153892366 C 66.70610921561413,44.98296153892363 66.94624921561413,46.220111538923675 66.95535921561412,47.507331538923665 C 66.96435921561411,48.79342153892367 66.74707921561412,50.128451538923684 66.40905921561412,51.50786153892369 C 66.37495921561413,51.64444153892367 66.33275921561412,51.795811538923715 66.44095921561413,51.872061538923674 C 66.68224921561412,52.0462015389237 68.55446921561412,50.665641538923694 70.01468921561414,50.024881538923694 C 72.15095921561414,49.09047153892368 74.83125921561415,48.11623153892367 76.79566921561414,47.42425153892367 C 77.71413921561415,47.101021538923646 78.67813921561415,46.50236153892365 79.28248921561413,45.694291538923665 C 80.05982921561414,44.652901538923686 80.31248921561414,43.338361538923664 80.50938921561414,41.99537153892368 C 80.70628921561413,40.65351153892368 80.61523921561414,39.508561538923686 80.49228921561414,38.42278153892369 C 80.37050921561413,37.33700153892369 80.21913921561415,36.31269153892367 80.15767921561414,35.582011538923666 C 80.09507921561413,34.85133153892366 80.12347921561414,34.41315153892367 80.23957921561413,34.252671538923664 C 80.35566921561414,34.09333153892368 80.56166921561413,34.20597153892368 80.84847921561413,34.64760153892365 C 81.13528921561414,35.089201538923646 81.50631921561413,35.86540153892366 81.82271921561414,36.615431538923644 C 82.13797921561414,37.36659153892367 82.40316921561416,38.10638153892364 82.59892921561413,39.24223153892365 C 82.79581921561413,40.37922153892367 82.92442921561414,41.912291538923625 82.84703921561413,43.24162153892365 C 82.81403921561414,43.79703153892365 82.75373921561413,44.32967153892366 82.90393921561414,44.49926153892363 C 83.16342921561414,44.74737153892363 85.76063921561413,42.75564153892361 86.78267921561414,41.47411153892364 C 87.42116921561413,40.671721538923634 87.80016921561415,39.89097153892362 88.08583921561413,38.687961538923616 C 88.42727921561413,37.2470915389236 88.79147921561412,35.34186153892364 88.47849921561414,33.70409153892359 A 4.535448,4.535448 0.0 0,0 87.45758921561415,31.619041538923568 C 86.96136921561416,31.047701538923548 86.48790921561414,30.66301153892357 85.90176921561414,29.828761538923573 A 14.348405,14.348405 0.0 0,1 84.45178921561413,27.130251538923574 A 8.518903,8.518903 0.0 0,1 83.89979921561414,25.10893153892357 C 83.80309921561414,24.49434153892355 83.73248921561415,23.83878153892357 83.74159921561414,23.43588153892358 C 83.74959921561415,23.034121538923557 83.83719921561413,22.877061538923556 83.97718921561415,22.935111538923593 C 84.11831921561415,22.992011538923578 84.31293921561414,23.26516153892362 84.56673921561415,23.765941538923585 C 84.82054921561414,24.266721538923605 85.13580921561416,24.99285153892356 85.49203921561414,25.748561538923582 C 85.85054921561414,26.503141538923558 86.25003921561415,27.285041538923565 86.91811921561415,28.078321538923603 C 87.38247921561415,28.62917153892363 87.97657921561415,29.183441538923603 88.55929921561415,29.678531538923608 A 33.275507,33.275507 0.0 0,0 88.25427921561413,26.949291538923603 C 87.94926921561412,24.98943153892361 87.45645921561413,23.09103153892363 87.02168921561415,21.601221538923596 C 86.58691921561416,20.110271538923598 86.21133921561415,19.02563153892362 86.01102921561414,18.227801538923586 C 85.81185921561413,17.42883153892359 85.78908921561415,16.916671538923595 85.93822921561414,16.7277515389236 C 86.08618921561416,16.53882153892357 86.40371921561413,16.67535153892362 86.68597921561414,16.89164153892358 C 86.96823921561415,17.107881538923607 87.21634921561414,17.4037915389236 87.60786921561413,18.069601538923564 C 88.00165921561413,18.735411538923586 88.53885921561414,19.768831538923564 89.11702921561414,21.06288153892359 A 42.357784,42.357784 0.0 0,1 90.83559921561414,25.57443153892359 C 91.35572921561413,27.233821538923564 91.78024921561413,28.997921538923606 92.08185921561414,30.61976153892357 C 92.38345921561415,32.24160153892359 92.54506921561415,33.18397153892357 92.90016921561414,33.30233153892357 C 93.48402921561413,33.393331538923576 93.95521921561414,32.03787153892358 94.32282921561415,30.625451538923585 C 94.81563921561414,28.732741538923563 95.03985921561414,27.607131538923568 94.95449921561416,26.079761538923606 A 7.940733,7.940733 0.0 0,0 94.14186921561415,22.885031538923613 A 68.631515,68.631515 0.0 0,0 91.76886921561416,18.349581538923587 C 90.86177921561415,16.778961538923568 90.24377921561415,15.405241538923576 89.19441921561415,14.138501538923606 C 88.84159921561414,13.712841538923612 88.41251921561414,13.353191538923625 87.96864921561414,13.025411538923606 C 87.23569921561415,12.482521538923606 86.32746921561414,12.053451538923582 85.62068921561414,11.622091538923598 A 11.694286,11.694286 0.0 0,1 83.66310921561413,10.07765153892359 A 6.9084491,6.9084491 0.0 0,1 82.59781921561412,8.749451538923608 C 82.32580921561413,8.321521538923605 82.06175921561413,7.857161538923606 81.93769921561412,7.554421538923634 C 81.8136492156141,7.250541538923642 81.82729921561412,7.10258153892363 81.95139921561412,7.10258153892363 C 82.07431921561411,7.10258153892363 82.30762921561413,7.241431538923621 82.65931921561412,7.531651538923654 C 83.01213921561413,7.823021538923626 83.48218921561411,8.263471538923682 83.99320921561412,8.710761538923634 C 84.5053592156141,9.158041538923612 85.05849921561412,9.611021538923637 85.81420921561411,9.98660153892365 A 11.267487,11.267487 0.0 0,0 87.47018921561411,10.622821538923631 C 87.40528921561412,10.462341538923624 87.33930921561412,10.310971538923638 87.27556921561413,10.144801538923616 C 86.70650921561412,8.665231538923592 86.16589921561413,6.935271538923644 85.84152921561412,5.5217215389236 C 85.51488921561412,4.108161538923582 85.40448921561412,3.013281538923593 85.41586921561412,2.1790315389235957 C 85.42726921561413,1.3436415389235776 85.56154921561412,0.7700215389235723 85.73226921561411,0.5867915389235918 C 85.9029892156141,0.40468153892356895 86.11239921561412,0.6106915389236178 86.26263921561412,0.9692015389235848 C 86.41400921561413,1.3288515389235727 86.50619921561412,1.8398715389236031 86.66666921561412,2.486321538923562 C 86.8260092156141,3.1316415389235885 87.05477921561413,3.9112615389235543 87.29036921561413,4.626011538923535 C 87.52709921561413,5.343031538923526 87.76951921561414,5.994041538923511 88.21793921561414,6.873821538923551 A 34.155281,34.155281 0.0 0,0 90.06170921561414,9.990021538923543 C 90.80377921561416,11.117901538923547 91.64371921561414,12.270831538923517 92.29813921561416,13.176781538923535 C 92.95369921561417,14.081591538923533 93.43626921561415,14.753091538923513 94.08499921561415,15.563441538923541 C 94.73145921561414,16.37379153892357 95.54863921561414,17.329821538923568 96.17005921561415,18.086671538923554 C 96.79147921561415,18.84239153892355 97.21713921561414,19.39552153892356 97.51304921561413,19.681191538923542 C 97.80896921561413,19.965731538923535 97.97626921561414,19.983941538923546 98.08211921561414,19.845081538923523 C 98.18681921561415,19.708511538923517 98.23120921561414,19.414871538923535 98.17431921561413,18.993761538923536 C 98.11741921561412,18.572651538923537 97.95806921561413,18.022941538923533 97.65987921561413,17.355991538923547 C 97.36282921561411,16.689051538923536 96.92805921561413,15.903741538923555 96.30550921561414,14.94885153892352 C 95.68294921561414,13.992821538923522 94.97275921561413,12.775021538923511 93.93249921561414,11.477551538923535 A 99.547679,99.547679 0.0 0,0 90.69907921561415,7.653431538923542 C 89.74759921561414,6.588151538923569 89.06585921561415,5.896161538923536 88.72896921561414,5.3988015389235215 C 88.39322921561416,4.901441538923507 88.26233921561413,4.67267153892351 88.38753921561414,4.539511538923534 C 88.51272921561414,4.406351538923559 88.80863921561414,4.483711538923558 89.10682921561414,4.588411538923538 C 89.40388921561413,4.693121538923549 89.71231921561414,4.827421538923545 90.59550921561413,5.454531538923561 C 91.47982921561413,6.082781538923541 92.95256921561412,7.209521538923582 94.37750921561414,8.517241538923543 C 95.09680921561414,9.177351538923517 95.80358921561415,9.884131538923555 96.47280921561415,10.618221538923535 A 8.24689,8.24689 0.0 0,0 96.07901921561415,7.574861538923528 C 95.93105921561414,7.090021538923509 95.77171921561416,6.63363153892351 95.68066921561416,6.304711538923527 C 95.58966921561415,5.976931538923509 95.56344921561416,5.774341538923522 95.60216921561417,5.690121538923506 C 95.64196921561418,5.605921538923496 95.74557921561416,5.642321538923511 95.91515921561418,5.818731538923487 C 96.08473921561418,5.996281538923483 96.32146921561417,6.319511538923507 96.60713921561418,6.740611538923474 C 96.8928092156142,7.162861538923494 97.11587921561417,7.576001538923492 97.38561921561418,8.187181538923483 C 97.65421921561418,8.799491538923462 97.90574921561418,9.57342153892347 98.03435921561419,10.1709415389235 C 98.16068921561418,10.768461538923475 98.27904921561418,11.299961538923526 98.30750921561417,11.549211538923487 C 98.33480921561417,11.799601538923469 98.53512921561418,12.459721538923475 98.71381921561417,12.892211538923505 C 99.31133921561417,14.349011538923492 100.36068921561417,15.925321538923527 100.91268921561417,17.070281538923496 C 101.46581921561418,18.216381538923486 101.66498921561416,18.94592153892347 101.77652921561418,19.35223153892349 C 101.88692921561417,19.758551538923484 102.19193921561418,19.16103153892351 102.32737921561417,18.68529153892348 C 102.46281921561416,18.209551538923506 102.60166921561418,17.638211538923485 102.62670921561417,16.834691538923494 C 102.64950921561416,16.032311538923466 102.55840921561418,14.998891538923488 102.32168921561416,13.852791538923498 C 102.08267921561415,12.705551538923487 101.69799921561415,11.447921538923481 101.36679921561415,10.398561538923502 A 94.455685,94.455685 0.0 0,0 100.45970921561414,7.649981538923498 C 100.15923921561415,6.788421538923501 99.83373921561414,5.905231538923488 99.48660921561415,4.900261538923473 C 99.13947921561416,3.895291538923459 98.76958921561416,2.7685415389235004 98.58179921561415,1.9832315389234623 C 98.39513921561417,1.197921538923481 98.39286921561416,0.754051538923477 98.44407921561415,0.4376515389234896 C 98.48277921561416,0.20092153892346687 98.55219921561417,0.03475153892350136 98.65918921561416,0.005161538923516673 L 98.65818921561416,0.005161538923516673" id="path4" style="fill:#1a1a1a;stroke:none;stroke-width:1.61772;stroke-dashoffset:2.43;stroke-opacity:1"/>
</svg>
