<?xml version="1.0" ?>
<svg xmlns="http://www.w3.org/2000/svg" xmlns:ev="http://www.w3.org/2001/xml-events" xmlns:xlink="http://www.w3.org/1999/xlink" baseProfile="full" height="776" id="Layer_1" style="enable-background:new 0 0 1000 800;" transform="scale(0.136986301369863 0.136986301369863) translate(-365.0 -388.0)" version="1.1" viewBox="0 0 730 776" width="730" x="0px" xml:space="preserve" y="0px">
	<defs/>
	<path d="M 146.00000000000009,217.6 C 153.1000000000001,211.9 159.70000000000007,205.4 167.3000000000001,200.7 C 184.6000000000001,190.0 195.3000000000001,174.0 202.3000000000001,154.7 C 204.3000000000001,149.1 206.1000000000001,143.5 208.3000000000001,138.0 C 212.6000000000001,127.1 218.6000000000001,117.9 226.90000000000012,109.6 C 235.20000000000013,101.19999999999999 241.20000000000013,90.3 247.90000000000012,80.3 C 251.3000000000001,75.3 253.8000000000001,69.6 257.0000000000001,64.5 C 264.9000000000001,51.900000000000006 273.4000000000001,39.7 280.8000000000002,26.899999999999995 C 283.0000000000001,23.099999999999998 283.60000000000014,13.399999999999995 282.8000000000002,13.099999999999994 C 276.4000000000002,10.799999999999994 274.3000000000002,17.299999999999994 271.8000000000002,21.59999999999999 C 268.10000000000014,28.199999999999992 265.60000000000014,35.499999999999986 261.8000000000002,42.099999999999994 C 259.20000000000016,46.499999999999986 255.40000000000018,50.099999999999994 252.60000000000016,53.3 C 251.40000000000018,41.0 250.40000000000018,29.299999999999994 248.80000000000015,17.799999999999994 C 248.30000000000015,14.299999999999994 246.20000000000013,10.799999999999994 244.20000000000013,7.899999999999995 C 243.30000000000015,6.4999999999999964 240.80000000000015,6.199999999999996 239.00000000000014,5.4999999999999964 C 238.80000000000015,7.299999999999997 238.00000000000014,9.299999999999997 238.40000000000012,10.899999999999995 C 244.70000000000013,34.3 240.1000000000001,56.69999999999999 231.8000000000001,78.4 C 229.3000000000001,85.10000000000001 223.70000000000007,90.4 218.20000000000007,95.80000000000001 C 215.10000000000005,84.70000000000002 209.8000000000001,74.60000000000001 215.70000000000007,63.400000000000006 C 221.8000000000001,51.80000000000001 227.70000000000007,40.10000000000001 233.70000000000007,28.400000000000002 C 223.70000000000007,34.5 218.60000000000005,45.400000000000006 210.70000000000007,55.0 C 212.3000000000001,43.099999999999994 213.8000000000001,31.099999999999998 215.40000000000006,19.2 C 214.80000000000004,19.0 214.20000000000007,18.7 213.60000000000005,18.5 C 211.60000000000005,22.900000000000002 209.70000000000007,27.400000000000002 207.10000000000005,33.2 C 206.40000000000006,21.400000000000002 205.70000000000007,10.8 205.00000000000003,0.3000000000000007 C 204.4,0.20000000000000107 203.70000000000002,0.10000000000000142 203.10000000000005,0.0 C 202.30000000000004,4.5 200.80000000000004,9.099999999999998 200.80000000000004,13.599999999999998 C 200.80000000000004,26.499999999999996 201.70000000000002,39.400000000000006 201.80000000000004,52.400000000000006 C 201.90000000000006,57.7 201.00000000000003,62.900000000000006 200.50000000000003,68.2 C 199.80000000000004,68.2 199.20000000000002,68.2 198.50000000000003,68.2 C 196.30000000000004,58.10000000000001 194.10000000000005,48.099999999999994 191.80000000000004,38.0 C 191.40000000000006,37.8 191.00000000000003,37.7 190.50000000000003,37.5 C 189.9,40.7 188.80000000000004,43.89999999999999 188.70000000000002,47.2 C 188.4,57.60000000000001 188.70000000000002,68.1 188.4,78.5 C 188.29999999999998,83.9 187.9,89.4 187.00000000000003,94.8 C 185.80000000000004,102.0 181.80000000000004,107.6 175.50000000000003,110.8 C 166.4,115.6 159.20000000000002,110.8 158.4,100.39999999999999 C 156.79999999999998,78.89999999999999 157.6,57.69999999999999 162.70000000000002,36.79999999999998 C 163.30000000000004,34.19999999999999 162.80000000000004,31.199999999999985 162.80000000000004,28.399999999999988 C 162.20000000000002,28.199999999999985 161.50000000000003,27.99999999999999 160.90000000000006,27.899999999999988 C 159.70000000000007,30.59999999999999 158.30000000000004,33.19999999999999 157.30000000000004,35.999999999999986 C 151.30000000000004,54.3 149.50000000000003,73.29999999999998 149.10000000000005,92.5 C 148.50000000000003,115.1 148.40000000000006,137.70000000000002 147.50000000000003,160.29999999999998 C 147.30000000000004,166.6 145.20000000000002,172.79999999999998 143.00000000000003,178.99999999999997 C 127.20000000000002,148.89999999999998 120.20000000000002,116.89999999999998 122.50000000000003,82.49999999999997 C 115.60000000000002,112.09999999999997 116.10000000000002,141.09999999999997 125.9,169.69999999999996 C 128.1,175.99999999999997 130.79999999999998,182.09999999999997 132.6,188.49999999999997 C 133.1,190.39999999999998 132.1,193.89999999999998 130.6,194.99999999999997 C 125.70000000000002,198.99999999999997 119.6,199.59999999999997 115.1,194.99999999999997 C 110.29999999999998,190.09999999999997 105.4,184.39999999999998 103.19999999999999,178.09999999999997 C 99.19999999999999,166.49999999999997 96.1,154.29999999999995 94.69999999999999,142.09999999999997 C 93.79999999999998,134.09999999999997 96.79999999999998,125.59999999999997 97.69999999999999,117.29999999999995 C 98.69999999999999,108.19999999999996 99.39999999999998,98.99999999999996 98.69999999999999,89.49999999999996 C 93.89999999999998,100.79999999999995 95.1,114.09999999999997 85.79999999999998,125.49999999999997 C 80.6,114.19999999999997 75.99999999999997,104.09999999999997 71.39999999999998,93.99999999999997 C 70.69999999999999,94.29999999999997 70.09999999999997,94.69999999999997 69.39999999999998,94.99999999999997 C 70.99999999999997,101.59999999999997 72.49999999999997,108.29999999999997 74.29999999999998,114.79999999999997 C 79.39999999999998,133.39999999999998 84.6,151.89999999999998 89.79999999999998,170.49999999999997 C 93.49999999999997,183.79999999999998 98.29999999999998,196.29999999999998 108.19999999999999,205.89999999999998 C 111.79999999999998,209.39999999999998 112.69999999999999,212.89999999999998 107.6,216.09999999999997 C 88.79999999999998,197.49999999999997 79.6,174.49999999999997 80.6,146.19999999999996 C 74.5,152.69999999999996 74.5,166.29999999999995 78.79999999999998,185.29999999999995 C 81.89999999999998,198.69999999999996 88.19999999999999,209.99999999999994 96.6,220.59999999999994 C 79.79999999999998,212.39999999999995 58.400000000000006,212.79999999999993 48.599999999999994,192.29999999999993 C 44.900000000000006,184.59999999999994 43.79999999999998,175.29999999999993 41.900000000000006,166.69999999999993 C 41.099999999999994,162.89999999999992 41.099999999999994,158.89999999999992 40.70000000000002,154.99999999999994 C 40.10000000000002,154.99999999999994 39.50000000000003,154.99999999999994 38.900000000000006,154.99999999999994 C 38.900000000000006,165.19999999999993 38.900000000000006,175.49999999999994 38.900000000000006,185.69999999999993 C 38.400000000000006,185.99999999999994 37.900000000000006,186.29999999999993 37.5,186.69999999999993 C 32.5,176.59999999999994 27.5,166.49999999999994 22.5,156.49999999999994 C 21.900000000000006,156.89999999999995 21.19999999999999,157.29999999999995 20.599999999999994,157.59999999999994 C 24.19999999999999,181.29999999999993 33.5,202.09999999999994 50.29999999999998,219.09999999999994 C 26.49999999999997,209.19999999999993 10.399999999999977,192.39999999999995 5.599999999999994,164.89999999999995 C 5.0,161.49999999999994 6.199999999999989,156.19999999999996 0.0,157.09999999999994 C 0.0,164.09999999999994 0.0,170.99999999999994 0.0,177.99999999999994 C 0.5,179.39999999999995 1.1999999999999886,180.69999999999993 1.5,182.09999999999994 C 5.300000000000011,199.19999999999993 14.199999999999989,212.39999999999995 28.099999999999994,221.79999999999993 C 41.400000000000006,230.89999999999992 55.5,237.89999999999992 71.19999999999999,240.89999999999992 C 76.69999999999999,241.99999999999991 82.6,243.29999999999993 84.19999999999999,250.29999999999993 C 85.5,255.89999999999995 80.89999999999998,264.6999999999999 74.89999999999998,268.1999999999999 C 50.89999999999998,282.1999999999999 29.899999999999977,300.4999999999999 10.399999999999977,320.59999999999985 C 6.299999999999983,324.79999999999984 3.8999999999999773,331.99999999999983 2.8999999999999773,338.1999999999999 C 2.3999999999999773,341.39999999999986 5.599999999999966,346.89999999999986 8.599999999999966,348.9999999999999 C 15.299999999999955,353.5999999999999 23.399999999999977,356.2999999999999 30.99999999999997,352.5999999999999 C 39.69999999999996,348.4999999999999 47.89999999999998,351.4999999999999 56.19999999999996,352.2999999999999 C 66.19999999999996,353.2999999999999 76.09999999999997,355.4999999999999 85.99999999999997,357.3999999999999 C 96.09999999999997,359.2999999999999 99.19999999999996,362.69999999999993 98.49999999999997,373.49999999999994 C 97.39999999999998,390.69999999999993 103.99999999999997,404.29999999999995 114.29999999999998,416.69999999999993 C 116.89999999999998,419.8999999999999 120.1,422.5999999999999 122.29999999999998,426.0999999999999 C 138.4,451.5999999999999 163.1,466.2999999999999 185.99999999999997,483.0999999999999 C 194.19999999999996,489.0999999999999 203.89999999999995,492.5999999999999 212.89999999999995,497.3999999999999 C 214.29999999999993,498.0999999999999 216.49999999999997,499.3999999999999 216.39999999999995,500.19999999999993 C 216.29999999999993,501.79999999999995 215.09999999999994,503.9999999999999 213.79999999999993,504.79999999999995 C 209.09999999999994,507.5999999999999 204.29999999999993,510.0999999999999 199.29999999999993,512.3 C 189.99999999999991,516.5 180.49999999999991,520.0 171.49999999999991,524.5999999999999 C 168.49999999999991,526.0999999999999 165.09999999999994,529.6999999999999 164.59999999999994,532.8999999999999 C 162.99999999999991,541.7999999999998 162.19999999999996,550.9999999999999 162.09999999999994,560.0999999999999 C 161.89999999999995,582.1999999999999 161.89999999999995,604.3 162.49999999999991,626.3999999999999 C 162.6999999999999,632.4999999999999 163.59999999999994,639.4999999999999 166.59999999999994,644.5999999999999 C 172.59999999999994,654.8999999999999 180.19999999999996,664.0999999999999 187.19999999999996,673.6999999999999 C 188.59999999999994,675.5999999999999 190.59999999999994,676.9999999999999 192.29999999999998,678.5999999999999 C 199.1,666.4999999999999 196.9,649.4999999999999 187.1,640.6999999999999 C 188.79999999999998,640.6999999999999 189.9,640.6999999999999 190.99999999999997,640.6999999999999 C 191.39999999999995,640.0999999999999 191.69999999999996,639.5999999999999 192.1,638.9999999999999 C 189.99999999999997,637.3999999999999 187.99999999999997,635.4999999999999 185.70000000000002,634.1999999999999 C 181.30000000000004,631.6999999999999 177.9,628.9999999999999 178.1,622.9 C 178.9,600.3 179.6,577.6999999999999 179.99999999999997,555.1 C 180.1,547.5 182.49999999999997,543.8000000000001 190.1,543.7 C 202.49999999999997,543.6 214.79999999999998,542.9000000000001 227.1,542.3000000000001 C 232.49999999999997,542.0000000000001 237.79999999999998,541.7 243.1,540.9000000000001 C 264.20000000000005,538.0000000000001 285.29999999999995,535.1000000000001 306.29999999999995,532.0000000000001 C 310.5,531.4000000000001 311.9,533.3000000000001 313.5,536.8000000000001 C 320.9,552.9000000000001 323.9,570.2 326.0,587.8000000000001 C 327.69999999999993,602.2 330.4,616.3000000000001 337.1,629.1 C 346.29999999999995,646.8000000000001 347.9,666.5 349.79999999999995,686.0 C 350.9,697.0 350.79999999999995,708.3 349.79999999999995,719.3 C 348.9,728.9 343.9,736.6999999999999 337.19999999999993,743.5999999999999 C 333.0999999999999,747.8 330.69999999999993,753.8999999999999 327.5999999999999,759.0999999999999 C 328.19999999999993,760.0999999999999 328.69999999999993,761.0999999999999 329.29999999999995,761.9999999999999 C 336.9999999999999,761.2999999999998 344.9,761.2999999999998 352.4999999999999,759.7999999999998 C 358.5999999999999,758.5999999999998 361.19999999999993,753.0999999999998 362.79999999999995,746.8999999999999 C 364.0999999999999,741.7999999999998 366.29999999999995,736.8999999999999 368.5999999999999,730.6999999999998 C 372.0999999999999,733.6999999999998 374.29999999999995,735.5999999999998 378.1,738.8999999999999 C 376.79999999999995,728.5999999999999 376.20000000000005,719.7999999999998 374.6,711.2999999999998 C 369.70000000000005,684.4999999999999 364.1,657.8999999999999 359.6,630.9999999999999 C 358.1,621.7999999999998 358.70000000000005,612.1999999999999 358.6,602.6999999999999 C 358.29999999999995,580.0999999999999 358.4,557.4 357.70000000000005,534.8 C 357.5,529.0999999999999 358.9,527.0 364.0,527.1999999999999 C 381.80000000000007,527.8 399.6,527.4999999999999 417.30000000000007,529.0999999999999 C 440.4000000000001,531.3 462.6,528.3999999999999 484.4000000000001,520.5999999999999 C 489.70000000000005,518.6999999999999 492.80000000000007,519.3 495.60000000000014,525.0999999999999 C 507.5000000000001,550.1999999999999 520.4000000000001,574.6999999999999 531.7000000000002,600.0999999999999 C 540.6000000000001,619.8999999999999 541.7000000000002,641.1999999999999 534.0000000000001,661.8 C 526.7000000000002,681.4 518.4000000000001,700.5999999999999 509.5000000000001,719.5 C 506.4000000000001,726.1 500.20000000000016,731.1 495.5000000000001,736.8 C 492.5000000000001,740.5 489.70000000000016,744.5 486.70000000000016,748.0999999999999 C 484.4000000000002,750.8 481.4000000000002,752.9999999999999 479.5000000000001,755.8999999999999 C 477.20000000000016,759.5999999999999 474.5000000000001,763.8999999999999 474.4000000000001,767.9999999999999 C 474.4000000000001,769.6999999999999 480.30000000000007,772.5999999999999 483.9000000000001,773.2999999999998 C 495.60000000000014,775.7999999999998 504.10000000000014,772.1999999999998 507.10000000000014,760.2999999999998 C 507.9000000000001,757.0999999999998 510.10000000000014,754.2999999999998 512.2000000000002,750.2999999999998 C 514.5000000000001,753.1999999999998 516.2000000000002,755.3999999999999 518.3000000000002,757.9999999999999 C 519.3000000000002,756.3999999999999 520.8000000000002,754.9999999999999 521.2000000000002,753.3999999999999 C 528.2000000000002,723.0999999999999 543.8000000000002,696.7999999999998 556.0000000000001,668.8999999999999 C 561.2000000000002,656.9999999999999 566.2000000000002,644.8999999999999 571.7000000000002,633.0999999999999 C 574.5000000000001,627.1999999999999 578.0000000000001,621.4999999999999 581.8000000000002,616.3 C 584.8000000000002,612.0999999999999 585.4000000000002,608.4 582.7000000000002,604.0999999999999 C 571.8000000000002,586.4999999999999 569.7000000000002,566.1999999999999 567.0000000000001,546.8 C 575.6000000000001,554.3 583.8000000000001,562.8 593.1000000000001,569.5 C 607.4000000000001,579.8 622.3000000000002,589.4 637.4000000000001,598.3 C 656.2,609.3 668.4000000000001,625.6999999999999 676.1000000000001,646.5999999999999 C 686.4000000000001,674.3999999999999 696.1000000000001,702.4999999999999 700.0000000000001,732.0999999999999 C 701.0000000000001,739.8999999999999 698.5000000000001,748.6999999999999 695.9000000000001,756.3999999999999 C 693.9000000000001,762.2999999999998 687.2,766.9999999999999 694.2,773.3999999999999 C 698.5,777.2999999999998 711.7,775.2999999999998 715.6,769.9999999999999 C 717.5,767.3999999999999 718.8000000000001,763.9999999999999 719.5,760.6999999999999 C 720.4,756.5999999999999 720.9,752.4 720.9,748.1999999999999 C 720.9,744.4 720.1999999999999,740.4999999999999 719.6,735.4999999999999 C 723.2,737.8999999999999 725.8000000000001,739.5999999999999 728.5,741.3999999999999 C 728.9,741.1999999999998 729.4,740.8999999999999 729.8,740.6999999999998 C 728.4,736.6999999999998 727.0,732.5999999999998 725.5,728.6999999999998 C 709.9,687.2999999999998 698.6,644.3999999999999 691.4,600.5999999999998 C 688.6999999999999,584.1999999999998 684.6999999999999,573.7999999999998 669.6999999999999,566.9999999999998 C 658.8,562.0999999999998 649.3,553.0999999999998 639.8,545.0999999999998 C 625.3,532.8999999999997 624.1999999999999,516.4999999999998 629.1999999999999,499.0999999999998 C 631.5999999999999,490.7999999999998 634.9999999999999,482.7999999999998 637.5999999999999,474.5999999999998 C 640.8,464.1999999999998 643.4999999999999,453.5999999999998 646.3999999999999,443.0999999999998 C 653.3999999999999,451.8999999999998 647.4999999999999,461.1999999999998 643.8999999999999,470.1999999999998 C 652.6999999999998,475.0999999999998 661.9999999999999,470.99999999999983 666.2999999999998,460.79999999999984 C 670.3999999999999,451.09999999999985 669.0999999999998,441.29999999999984 665.4999999999999,431.79999999999984 C 661.2999999999998,420.79999999999984 653.8999999999999,412.39999999999986 644.5999999999999,406.29999999999984 C 636.4999999999999,400.89999999999986 628.1999999999999,395.09999999999985 619.1999999999999,392.29999999999984 C 602.5999999999999,387.1999999999998 589.6999999999999,376.79999999999984 576.8,365.49999999999983 C 572.8,361.99999999999983 567.6999999999999,359.1999999999998 562.6999999999999,358.1999999999998 C 528.9,351.5999999999998 495.0999999999999,344.79999999999984 461.19999999999993,339.5999999999998 C 437.19999999999993,335.8999999999998 412.9,335.0999999999998 388.79999999999995,332.0999999999998 C 370.4999999999999,329.7999999999998 352.29999999999995,326.3999999999998 334.19999999999993,322.5999999999998 C 307.0999999999999,316.9999999999998 280.9999999999999,322.5999999999998 255.1999999999999,330.0999999999998 C 228.59999999999988,337.7999999999998 200.49999999999991,329.2999999999998 182.59999999999988,306.8999999999998 C 174.09999999999988,296.2999999999998 164.99999999999986,286.1999999999998 156.3999999999999,275.7999999999998 C 152.99999999999991,271.69999999999976 150.1999999999999,267.0999999999998 146.8999999999999,262.8999999999998 C 144.59999999999988,259.8999999999998 144.8999999999999,257.6999999999998 146.99999999999991,254.49999999999986 C 153.49999999999991,244.59999999999988 152.1999999999999,233.09999999999985 151.79999999999993,221.99999999999986 C 151.79999999999993,220.79999999999987 148.29999999999993,219.69999999999985 146.39999999999995,218.59999999999985 C 135.99999999999997,232.59999999999985 129.49999999999997,237.69999999999985 124.29999999999993,234.79999999999984 C 131.8000000000001,228.5 138.90000000000006,223.0 146.00000000000009,217.6 M 186.3000000000001,120.0 C 186.90000000000012,120.4 187.50000000000009,120.80000000000001 188.1000000000001,121.1 C 189.6000000000001,160.9 177.6000000000001,184.6 154.8000000000001,188.29999999999998 C 160.00000000000009,174.2 164.70000000000007,159.39999999999998 170.90000000000012,145.29999999999998 C 174.90000000000006,136.3 181.1000000000001,128.4 186.3000000000001,120.0"/>
</svg>
