<?xml version="1.0" ?>
<svg xmlns="http://www.w3.org/2000/svg" xmlns:ev="http://www.w3.org/2001/xml-events" xmlns:xlink="http://www.w3.org/1999/xlink" baseProfile="full" height="778" id="Layer_1" style="enable-background:new 0 0 1000 800;" transform="scale(0.373134328358209 0.373134328358209) translate(-134.0 -389.0)" version="1.1" viewBox="0 0 268 778" width="268" x="0px" xml:space="preserve" y="0px">
	<defs/>
	<path class="st0" d="M 0.9395155984196322,128.90000000000003 C 2.639515598419621,145.50000000000003 10.739515598419644,159.00000000000003 19.33951559841961,172.40000000000003 C 27.939515598419632,185.80000000000004 36.83951559841961,198.90000000000003 47.73951559841959,210.30000000000004 C 58.33951559841961,221.40000000000003 69.23951559841959,232.30000000000004 79.73951559841959,243.40000000000003 C 84.93951559841958,248.9 89.83951559841961,254.70000000000002 94.83951559841961,260.4 C 95.5395155984196,261.20000000000005 96.0395155984196,262.20000000000005 96.93951559841963,263.5 C 92.23951559841964,261.70000000000005 89.73951559841964,258.20000000000005 87.33951559841961,254.60000000000005 C 85.23951559841959,251.40000000000006 82.63951559841962,249.70000000000007 79.23951559841959,248.50000000000003 C 74.73951559841959,247.00000000000003 70.33951559841961,244.80000000000004 65.93951559841958,242.90000000000003 C 61.0395155984196,240.80000000000004 59.33951559841955,241.70000000000005 58.23951559841959,247.10000000000005 C 57.139515598419564,252.60000000000005 57.5395155984196,257.80000000000007 59.73951559841959,263.0 C 62.33951559841961,269.20000000000005 65.13951559841956,275.4 70.13951559841956,279.9 C 73.33951559841955,282.70000000000005 77.23951559841959,284.70000000000005 80.93951559841958,286.70000000000005 C 84.23951559841959,288.5 87.73951559841959,289.9 91.0395155984196,291.70000000000005 C 91.83951559841961,292.1 92.5395155984196,293.6 92.5395155984196,294.6 C 92.0395155984196,306.1 91.73951559841959,317.6 90.83951559841961,329.1 C 90.23951559841959,337.20000000000005 88.73951559841959,345.20000000000005 87.73951559841959,353.29999999999995 C 86.0395155984196,366.1 87.0395155984196,378.9 89.33951559841961,391.5 C 91.0395155984196,400.9 91.13951559841962,410.0 88.43951559841963,419.29999999999995 C 86.43951559841963,426.19999999999993 85.13951559841962,433.29999999999995 83.63951559841962,440.4 C 83.23951559841964,442.5 83.23951559841964,444.70000000000005 83.23951559841964,446.79999999999995 C 83.23951559841964,457.9 82.93951559841963,469.0 83.33951559841967,480.1 C 84.13951559841968,500.6 87.63951559841968,520.5 96.83951559841967,538.9 C 98.53951559841965,542.1999999999999 97.83951559841967,546.9 98.53951559841965,550.8 C 99.73951559841964,557.4 100.43951559841963,564.3 102.63951559841968,570.5 C 107.93951559841969,585.0 109.7395155984197,600.3 113.33951559841967,615.2 C 116.43951559841969,628.0 116.43951559841969,640.9000000000001 116.53951559841965,653.9000000000001 C 116.53951559841965,657.8000000000001 117.03951559841965,661.8000000000001 117.63951559841968,665.7 C 120.13951559841968,680.3000000000001 118.03951559841965,694.8000000000001 116.83951559841967,709.3000000000001 C 115.73951559841964,722.6 114.13951559841968,735.8000000000001 112.73951559841964,749.1 C 111.93951559841963,756.3000000000001 109.53951559841965,762.9 105.53951559841965,768.8000000000001 C 104.43951559841963,770.4000000000001 104.03951559841965,771.8000000000001 105.63951559841968,773.2 C 107.63951559841968,775.1 109.93951559841969,777.3000000000001 112.63951559841968,776.0 C 113.83951559841967,775.4 114.03951559841965,772.8 114.93951559841969,770.6 C 115.33951559841967,771.5 115.63951559841968,772.1 115.7395155984197,772.7 C 117.13951559841968,778.1 117.53951559841971,778.4000000000001 122.53951559841971,777.1 C 127.33951559841972,775.9 130.5395155984197,772.4 132.83951559841972,768.1 C 133.33951559841972,767.1 133.2395155984197,765.4 132.93951559841975,764.2 C 132.13951559841973,759.4000000000001 131.13951559841973,754.7 130.23951559841976,749.9000000000001 C 129.93951559841975,748.4000000000001 130.03951559841977,746.8000000000001 129.83951559841978,745.3000000000001 C 130.1395155984198,745.2 130.4395155984198,745.1 130.6395155984198,745.0000000000001 C 131.1395155984198,746.1000000000001 131.7395155984198,747.1000000000001 132.2395155984198,748.2000000000002 L 132.7395155984198,748.1000000000001 C 132.4395155984198,746.7000000000002 132.53951559841983,745.0000000000001 131.7395155984198,744.1000000000001 C 125.03951559841983,735.4000000000001 126.23951559841981,725.4000000000001 127.4395155984198,715.5000000000001 C 129.03951559841983,702.3000000000001 131.03951559841983,689.1000000000001 133.03951559841983,675.9000000000001 C 133.33951559841984,674.0000000000001 133.7395155984198,672.0000000000001 134.63951559841985,670.4000000000001 C 137.43951559841986,665.5000000000001 138.03951559841983,660.1000000000001 138.03951559841983,654.7 C 138.13951559841985,647.5 137.7395155984198,640.2 137.53951559841983,633.0 C 137.03951559841983,619.8 138.13951559841985,606.8 140.2395155984198,593.8 C 141.2395155984198,587.9 140.4395155984198,581.6999999999999 140.33951559841984,575.5999999999999 C 140.33951559841984,573.4999999999999 139.93951559841986,571.3 140.13951559841985,569.1999999999999 C 140.53951559841983,564.4 142.43951559841986,561.8 145.73951559841987,561.0999999999999 C 150.23951559841993,560.1999999999999 154.43951559841986,561.8 155.83951559841984,566.1999999999999 C 157.33951559841984,570.9 158.03951559841988,575.9999999999999 158.33951559841984,580.9999999999999 C 159.03951559841988,590.7999999999998 158.93951559841986,600.5999999999999 159.53951559841988,610.3999999999999 C 160.23951559841993,621.9999999999999 161.73951559841993,633.5999999999999 162.03951559841988,645.1999999999998 C 162.23951559841993,651.2999999999998 160.1395155984199,657.5999999999998 160.43951559841986,663.6999999999998 C 160.83951559841984,673.4999999999998 162.1395155984199,683.2999999999998 163.2395155984198,692.9999999999998 C 164.2395155984198,701.4999999999998 164.1395155984198,709.8999999999997 162.6395155984198,718.2999999999997 C 161.6395155984198,723.6999999999997 161.83951559841984,729.2999999999997 160.93951559841975,734.7999999999997 C 160.2395155984197,739.3999999999997 158.83951559841972,743.9999999999998 157.6395155984198,748.4999999999998 C 157.33951559841984,749.6999999999998 156.7395155984198,750.6999999999998 156.1395155984198,752.4999999999998 C 157.6395155984198,751.8999999999997 158.43951559841975,751.4999999999998 159.93951559841975,750.8999999999997 C 159.53951559841977,752.7999999999997 159.43951559841975,754.1999999999997 159.03951559841977,755.4999999999998 C 157.1395155984198,760.5999999999998 157.53951559841977,765.4999999999998 159.53951559841977,770.2999999999997 C 161.03951559841977,773.9999999999998 163.43951559841975,776.7999999999997 167.33951559841972,776.8999999999997 C 170.93951559841975,776.9999999999998 172.13951559841968,773.6999999999997 173.03951559841977,769.6999999999997 C 173.6395155984198,771.1999999999997 174.03951559841977,772.0999999999997 174.33951559841972,772.8999999999997 C 175.83951559841972,776.8999999999997 179.2395155984197,778.5999999999998 182.83951559841972,776.5999999999998 C 183.93951559841975,775.9999999999998 185.03951559841977,773.8999999999997 184.83951559841972,772.6999999999998 C 184.53951559841977,769.4999999999998 183.53951559841977,766.2999999999998 182.93951559841975,763.0999999999998 C 181.93951559841975,757.7999999999998 180.83951559841972,752.4999999999998 180.03951559841977,747.0999999999998 C 179.83951559841972,745.9999999999998 180.7395155984198,744.1999999999998 181.6395155984198,743.4999999999998 C 184.03951559841977,741.5999999999998 184.7395155984198,739.0999999999998 184.83951559841984,736.0999999999998 C 185.03951559841988,731.5999999999998 185.03951559841988,726.8999999999997 188.43951559841986,723.3999999999997 C 189.33951559841984,722.4999999999998 190.6395155984199,722.0999999999998 191.83951559841984,721.4999999999998 C 192.1395155984198,721.6999999999998 192.43951559841986,721.9999999999998 192.6395155984198,722.1999999999998 C 192.93951559841975,716.9999999999998 193.33951559841984,711.8999999999999 193.53951559841977,706.6999999999998 C 194.43951559841975,689.9999999999998 195.2395155984198,673.2999999999998 196.33951559841972,656.5999999999998 C 196.63951559841968,652.4999999999998 197.7395155984197,648.2999999999998 199.03951559841977,644.3999999999997 C 203.03951559841977,632.4999999999998 203.43951559841975,620.2999999999997 203.43951559841975,607.8999999999997 C 203.43951559841975,602.0999999999998 204.03951559841977,596.3999999999997 204.1395155984198,590.5999999999998 C 204.2395155984198,586.6999999999998 204.03951559841977,582.6999999999998 204.03951559841977,578.6999999999998 C 204.03951559841977,577.2999999999998 204.03951559841977,575.9999999999998 204.03951559841977,574.5999999999998 C 204.43951559841975,574.4999999999998 204.93951559841975,574.3999999999997 205.33951559841972,574.1999999999998 C 206.93951559841975,577.7999999999998 208.93951559841975,581.2999999999998 209.93951559841975,585.0999999999998 C 213.43951559841975,598.5999999999998 213.43951559841975,612.3999999999997 212.53951559841977,626.1999999999998 C 212.1395155984198,633.1999999999998 211.2395155984198,640.1999999999998 211.33951559841972,647.1999999999998 C 211.43951559841975,651.8999999999999 213.13951559841968,656.4999999999998 213.53951559841977,661.1999999999998 C 214.7395155984198,679.3999999999999 215.53951559841977,697.5999999999998 212.43951559841975,715.6999999999998 C 211.43951559841975,721.8999999999999 211.1395155984198,728.1999999999998 210.33951559841972,735.2999999999998 C 211.63951559841968,734.1999999999998 212.13951559841968,733.7999999999998 212.93951559841975,733.1999999999998 C 212.93951559841975,736.9999999999998 212.7395155984197,740.4999999999998 213.03951559841977,743.9999999999998 C 213.2395155984198,747.0999999999998 213.43951559841975,750.3999999999997 214.6395155984198,753.0999999999998 C 216.7395155984198,757.6999999999998 222.7395155984198,757.5999999999998 225.2395155984198,753.1999999999998 C 226.6395155984198,754.0999999999998 227.83951559841984,755.2999999999998 229.1395155984198,755.5999999999998 C 232.6395155984198,756.2999999999998 234.83951559841984,754.1999999999998 234.93951559841975,750.3999999999997 C 235.03951559841977,748.8999999999997 234.93951559841975,747.3999999999997 234.43951559841975,745.9999999999998 C 230.93951559841975,736.8999999999997 230.53951559841977,726.9999999999998 229.03951559841977,717.4999999999998 C 227.6395155984198,708.3999999999997 225.6395155984198,699.1999999999998 225.33951559841972,689.9999999999998 C 224.93951559841975,677.2999999999997 225.03951559841977,664.3999999999997 228.03951559841977,651.8999999999997 C 228.7395155984198,648.9999999999998 229.1395155984198,645.8999999999997 229.1395155984198,642.8999999999997 C 229.33951559841984,635.1999999999997 229.43951559841975,627.4999999999998 229.1395155984198,619.7999999999997 C 228.7395155984198,606.4999999999998 232.2395155984198,594.2999999999997 237.1395155984198,582.3999999999997 C 241.1395155984198,572.5999999999998 244.1395155984198,562.5999999999998 244.53951559841977,551.6999999999997 C 244.7395155984198,547.0999999999997 246.43951559841975,542.6999999999997 247.03951559841977,538.0999999999997 C 248.2395155984198,529.2999999999997 249.43951559841975,520.3999999999996 250.03951559841977,511.49999999999966 C 250.53951559841977,504.0999999999997 251.43951559841975,496.7999999999997 253.1395155984198,489.49999999999966 C 255.7395155984198,477.89999999999964 255.1395155984198,465.89999999999964 254.1395155984198,454.0999999999997 C 254.03951559841977,452.99999999999966 253.1395155984198,451.99999999999966 252.7395155984198,451.1999999999997 C 253.03951559841977,450.1999999999997 253.6395155984198,449.1999999999997 253.53951559841977,448.1999999999997 C 252.03951559841977,436.5999999999997 250.1395155984198,425.1999999999997 245.2395155984198,414.5999999999997 C 244.43951559841986,412.89999999999975 243.2395155984198,411.39999999999975 242.33951559841984,409.7999999999997 C 240.93951559841986,407.39999999999975 239.1395155984198,405.2999999999997 238.1395155984198,402.6999999999997 C 235.6395155984198,396.1999999999997 234.03951559841977,389.1999999999997 227.03951559841977,386.1999999999997 C 227.2395155984198,385.89999999999964 227.53951559841977,385.5999999999997 227.7395155984198,385.2999999999997 C 227.53951559841977,385.1999999999997 227.33951559841984,384.99999999999966 227.1395155984198,384.89999999999975 C 226.7395155984198,384.6999999999997 226.33951559841984,384.5999999999997 225.93951559841975,384.39999999999975 C 225.1395155984198,384.89999999999975 224.03951559841977,384.6999999999997 222.43951559841975,382.9999999999998 C 222.43951559841975,382.9999999999998 222.53951559841977,382.9999999999998 222.53951559841977,382.9999999999998 C 222.33951559841972,382.89999999999975 222.1395155984198,382.7999999999997 221.83951559841972,382.6999999999997 C 220.33951559841972,382.39999999999975 219.33951559841972,382.1999999999997 218.33951559841972,381.89999999999975 C 213.93951559841975,380.5999999999997 209.7395155984197,378.89999999999975 204.83951559841972,379.0999999999997 C 193.33951559841972,379.39999999999975 185.53951559841977,372.7999999999997 181.93951559841975,361.1999999999997 C 180.43951559841975,356.2999999999997 178.6395155984198,351.4999999999998 177.33951559841972,346.4999999999998 C 176.63951559841968,343.7999999999997 176.93951559841975,340.89999999999975 176.7395155984197,338.0999999999998 C 176.33951559841972,330.1999999999998 173.33951559841972,323.0999999999998 170.13951559841968,316.2999999999997 C 167.2395155984197,309.89999999999975 168.43951559841963,303.5999999999998 168.83951559841972,297.2999999999997 C 169.2395155984197,291.9999999999998 173.53951559841977,288.6999999999997 178.53951559841977,288.39999999999975 C 184.1395155984198,288.0999999999998 188.43951559841975,284.9999999999998 192.33951559841972,281.1999999999998 C 200.53951559841977,273.1999999999998 205.43951559841975,263.1999999999998 206.7395155984197,251.39999999999978 C 206.83951559841972,250.39999999999978 206.93951559841975,249.39999999999978 206.83951559841972,248.39999999999978 C 206.2395155984197,242.79999999999978 204.63951559841968,241.39999999999978 199.43951559841975,242.6999999999998 C 195.7395155984197,243.5999999999998 192.1395155984198,244.9999999999998 188.1395155984198,246.2999999999998 C 191.33951559841984,243.59999999999982 194.43951559841975,241.2999999999998 197.03951559841977,238.4999999999998 C 202.1395155984198,232.8999999999998 208.7395155984198,229.3999999999998 214.03951559841977,223.9999999999998 C 219.43951559841975,218.4999999999998 225.6395155984198,213.9999999999998 231.03951559841977,208.4999999999998 C 236.93951559841975,202.4999999999998 242.53951559841977,196.1999999999998 247.93951559841975,189.5999999999998 C 249.6395155984198,187.5999999999998 250.1395155984198,184.4999999999998 250.93951559841975,182.3999999999998 C 250.93951559841975,182.4999999999998 251.1395155984198,183.19999999999982 251.43951559841975,184.9999999999998 C 253.2395155984197,181.7999999999998 254.6395155984198,179.4999999999998 255.83951559841972,176.9999999999998 C 261.3395155984197,165.6999999999998 264.03951559841977,153.3999999999998 265.03951559841977,140.8999999999998 C 266.1395155984198,127.5999999999998 266.53951559841977,114.29999999999981 267.2395155984198,100.9999999999998 C 267.2395155984198,100.1999999999998 267.1395155984198,99.4999999999998 267.1395155984198,98.6999999999998 C 266.83951559841984,98.59999999999981 266.53951559841977,98.4999999999998 266.33951559841984,98.3999999999998 C 265.7395155984198,99.8999999999998 264.93951559841986,101.3999999999998 264.6395155984198,102.9999999999998 C 263.2395155984198,110.9999999999998 261.93951559841975,118.9999999999998 260.6395155984198,126.9999999999998 C 260.2395155984198,129.3999999999998 259.43951559841975,131.6999999999998 258.83951559841984,134.0999999999998 C 258.43951559841986,134.0999999999998 258.0395155984199,134.0999999999998 257.6395155984198,134.0999999999998 C 257.43951559841975,132.29999999999978 256.7395155984198,130.3999999999998 256.93951559841975,128.5999999999998 C 257.93951559841975,119.79999999999978 258.93951559841975,111.0999999999998 260.43951559841975,102.39999999999979 C 263.43951559841975,85.0999999999998 261.43951559841975,68.89999999999979 254.03951559841977,52.999999999999794 C 247.8395155984196,39.60000000000003 240.8395155984196,26.10000000000003 232.13951559841956,13.60000000000003 C 230.7395155984196,11.60000000000003 229.13951559841956,9.700000000000031 227.43951559841952,8.10000000000003 C 226.3395155984195,7.000000000000028 224.63951559841956,6.60000000000003 223.23951559841947,5.9000000000000306 C 223.03951559841943,6.200000000000031 222.8395155984195,6.500000000000032 222.63951559841945,6.800000000000029 C 223.13951559841945,7.700000000000028 223.63951559841945,8.700000000000028 224.13951559841945,9.60000000000003 C 232.4395155984194,23.00000000000003 239.4395155984194,37.10000000000003 244.8395155984195,52.00000000000003 C 249.43951559841952,64.90000000000003 251.73951559841947,78.40000000000003 249.43951559841952,92.30000000000003 C 248.8395155984195,96.00000000000003 247.43951559841952,99.70000000000003 245.63951559841956,103.00000000000003 C 243.53951559841954,107.00000000000003 240.13951559841956,107.70000000000003 236.7395155984196,104.80000000000003 C 233.8395155984196,102.30000000000003 231.2395155984196,99.40000000000002 229.2395155984196,96.10000000000002 C 224.63951559841956,88.50000000000003 220.53951559841954,80.60000000000002 216.13951559841956,72.80000000000003 C 215.7395155984196,72.10000000000002 215.3395155984196,71.30000000000003 214.53951559841954,70.70000000000003 C 213.93951559841952,76.60000000000004 214.03951559841954,82.60000000000004 216.7395155984196,87.80000000000004 C 221.3395155984196,96.60000000000004 226.3395155984196,105.10000000000004 231.43951559841963,113.60000000000004 C 236.53951559841965,122.20000000000005 241.03951559841965,131.00000000000003 243.03951559841965,141.00000000000003 C 246.3395155984196,157.40000000000003 241.43951559841963,171.60000000000002 231.93951559841963,184.30000000000004 C 223.8395155984196,195.10000000000005 214.03951559841965,203.90000000000003 203.53951559841965,212.00000000000003 C 195.3395155984196,218.40000000000003 187.53951559841965,225.50000000000003 179.93951559841963,232.00000000000003 C 181.2395155984196,228.50000000000003 183.03951559841965,224.40000000000003 184.43951559841963,220.10000000000002 C 189.3395155984196,205.60000000000002 193.43951559841963,190.8 194.03951559841965,175.30000000000004 C 194.2395155984197,171.00000000000003 194.2395155984197,166.70000000000005 191.2395155984197,162.30000000000004 C 190.7395155984197,163.90000000000003 190.43951559841975,164.90000000000003 190.13951559841968,165.90000000000003 C 186.83951559841972,177.60000000000002 184.03951559841965,189.50000000000003 180.13951559841968,200.90000000000003 C 174.83951559841972,216.70000000000005 168.33951559841972,232.00000000000003 158.7395155984197,245.50000000000003 C 155.33951559841972,250.20000000000002 150.83951559841972,253.9 146.63951559841968,257.9 C 145.93951559841963,258.6 144.33951559841967,258.6 143.33951559841967,258.29999999999995 C 135.9395155984197,256.1 128.53951559841965,254.99999999999997 121.03951559841965,257.5 C 118.93951559841963,258.19999999999993 117.53951559841965,257.1 116.13951559841968,255.39999999999995 C 106.03951559841965,243.89999999999995 95.83951559841967,232.59999999999994 85.63951559841968,221.19999999999996 C 79.2395155984197,214.09999999999997 74.13951559841968,206.09999999999997 70.53951559841965,196.99999999999997 C 66.23951559841964,186.09999999999997 63.93951559841963,174.59999999999997 62.43951559841963,162.89999999999998 C 62.23951559841964,161.7 61.93951559841963,160.59999999999997 60.93951559841963,159.2 C 60.33951559841961,160.29999999999998 59.33951559841961,161.29999999999998 59.23951559841964,162.5 C 58.63951559841962,167.6 57.73951559841964,172.8 57.839515598419666,177.9 C 58.039515598419655,187.5 59.43951559841969,197.0 62.73951559841964,206.3 C 59.93951559841963,202.4 57.13951559841962,198.60000000000002 54.43951559841963,194.70000000000002 C 48.93951559841963,186.70000000000002 44.23951559841964,178.3 41.33951559841961,168.8 C 36.0395155984196,151.5 39.13951559841962,135.4 47.0395155984196,119.80000000000001 C 52.939515598419575,108.20000000000002 62.13951559841962,100.10000000000001 71.33951559841961,91.80000000000001 C 80.23951559841959,83.70000000000002 89.13951559841962,75.50000000000001 95.13951559841962,64.60000000000001 C 95.93951559841963,63.10000000000001 96.63951559841962,61.500000000000014 97.5395155984196,59.400000000000006 C 94.23951559841959,58.7 92.33951559841961,60.5 90.43951559841958,61.900000000000006 C 84.63951559841956,66.4 78.83951559841955,71.2 73.13951559841956,75.9 C 65.33951559841955,82.2 57.73951559841959,88.80000000000001 49.83951559841955,94.9 C 45.03951559841954,98.60000000000001 42.439515598419575,97.30000000000001 42.83951559841955,90.9 C 43.23951559841953,82.60000000000001 44.23951559841953,74.2 45.83951559841955,66.10000000000001 C 48.03951559841954,54.30000000000001 51.53951559841954,42.900000000000006 57.139515598419564,32.400000000000006 C 58.33951559841955,30.200000000000003 59.439515598419575,28.000000000000007 61.03951559841954,26.200000000000003 C 61.139515598419564,26.0 61.33951559841955,25.900000000000006 61.53951559841954,25.800000000000004 C 61.93951559841952,25.200000000000003 62.43951559841952,24.6 62.93951559841952,24.000000000000007 C 63.43951559841952,23.300000000000004 64.03951559841954,22.500000000000007 64.63951559841951,21.800000000000004 C 64.93951559841952,21.500000000000007 65.23951559841953,21.300000000000004 65.43951559841952,21.1 C 65.53951559841954,21.0 65.73951559841953,20.8 65.8395155984195,20.700000000000003 C 66.53951559841948,19.700000000000003 67.3395155984195,18.6 68.13951559841951,17.6 C 69.53951559841948,15.900000000000002 72.73951559841953,11.5 75.8395155984195,9.3 C 77.93951559841952,6.800000000000001 80.13951559841951,4.4 82.3395155984195,1.9000000000000004 C 82.43951559841952,1.8000000000000007 82.43951559841952,1.700000000000001 82.53951559841948,1.5999999999999996 C 81.93951559841946,1.0 81.43951559841946,0.5 80.8395155984195,0.0 C 75.73951559841947,3.5999999999999996 71.13951559841951,7.899999999999999 66.13951559841951,11.5 C 61.93951559841952,16.0 57.839515598419496,20.6 53.63951559841951,25.200000000000003 C 46.339515598419496,34.7 40.339515598419496,45.0 35.93951559841952,56.30000000000001 C 31.839515598419496,66.9 30.23951559841953,78.10000000000001 30.839515598419496,89.50000000000001 C 31.43951559841952,100.50000000000001 30.839515598419496,111.4 28.139515598419507,122.10000000000002 C 25.23951559841953,133.90000000000003 22.23951559841953,145.8 25.139515598419507,158.80000000000004 C 19.639515598419507,155.90000000000003 15.939515598419518,151.90000000000003 14.339515598419496,146.80000000000004 C 11.739515598419473,138.40000000000003 9.339515598419496,129.70000000000005 8.139515598419507,120.90000000000003 C 6.839515598419496,111.70000000000003 7.139515598419507,102.20000000000003 6.639515598419507,92.80000000000004 C 6.539515598419484,90.50000000000004 6.339515598419496,88.10000000000004 6.139515598419507,85.60000000000004 C 3.139515598419507,86.40000000000003 2.8395155984194957,88.90000000000003 2.3395155984194957,90.90000000000003 C -0.6604844015803906,103.60000000000002 -0.3604844015803792,116.20000000000003 0.9395155984196322,128.90000000000003 M 177.2395155984196,682.8 C 178.3395155984196,673.4 179.8395155984196,664.0999999999999 178.2395155984196,654.5 C 176.93951559841963,646.4 180.43951559841963,639.1 183.2395155984196,630.7 C 182.63951559841956,654.2 184.93951559841963,677.0 177.13951559841956,698.8000000000001 C 177.13951559841956,693.5 176.63951559841956,688.1 177.2395155984196,682.8"/>
</svg>
