<?xml version="1.0" ?>
<svg xmlns="http://www.w3.org/2000/svg" xmlns:ev="http://www.w3.org/2001/xml-events" xmlns:xlink="http://www.w3.org/1999/xlink" baseProfile="full" height="761" id="Layer_1" style="enable-background:new 0 0 1000 800;" transform="scale(0.19569471624266144 0.19569471624266144) translate(-255.5 -380.5)" version="1.1" viewBox="0 0 511 761" width="511" x="0px" xml:space="preserve" y="0px">
	<defs/>
	<path d="M 92.97602220107885,159.20000000000005 C 86.87602220107883,149.20000000000005 76.67602220107884,145.10000000000002 67.47602220107885,139.60000000000002 C 25.676022201078837,114.50000000000004 5.476022201078848,76.10000000000004 0.4760222010788482,28.80000000000004 C -0.8239777989211632,16.30000000000004 0.17602220107883682,15.900000000000041 8.076022201078842,5.30000000000004 C 9.676022201078837,18.500000000000043 3.976022201078848,32.00000000000004 13.876022201078825,44.20000000000003 C 21.376022201078825,30.70000000000003 20.276022201078803,15.000000000000028 30.876022201078825,0.9000000000000341 C 31.876022201078825,16.000000000000036 26.376022201078825,27.300000000000033 25.576022201078814,39.20000000000003 C 24.97602220107879,49.20000000000003 19.376022201078825,63.50000000000003 31.676022201078837,66.80000000000003 C 41.27602220107886,69.40000000000002 42.97602220107885,54.300000000000026 47.77602220107886,46.800000000000026 C 52.37602220107888,39.60000000000002 54.47602220107885,30.900000000000027 63.17602220107884,26.00000000000003 C 57.67602220107884,42.60000000000003 52.47602220107885,59.300000000000026 46.67602220107884,75.80000000000003 C 43.97602220107885,83.50000000000003 43.47602220107885,91.10000000000002 45.576022201078814,98.90000000000002 C 46.67602220107884,103.00000000000001 48.17602220107884,107.60000000000002 52.97602220107879,108.00000000000001 C 58.47602220107879,108.40000000000002 59.076022201078814,103.40000000000002 59.87602220107877,99.30000000000001 C 60.776022201078746,94.4 60.87602220107877,89.20000000000002 65.47602220107879,85.50000000000001 C 70.37602220107877,89.90000000000002 66.37602220107877,94.50000000000001 66.2760222010788,98.70000000000002 C 65.7760222010788,117.40000000000002 76.17602220107878,132.60000000000002 93.37602220107883,138.8 C 100.7760222010788,141.5 102.37602220107883,137.20000000000005 104.47602220107885,132.0 C 107.87602220107883,123.60000000000001 109.57602220107887,114.2 118.37602220107883,106.70000000000002 C 122.17602220107884,115.20000000000003 118.7760222010788,121.50000000000001 117.2760222010788,127.50000000000001 C 115.57602220107881,134.7 113.47602220107879,141.90000000000003 114.67602220107878,149.10000000000002 C 116.07602220107876,157.90000000000003 115.2760222010788,168.8 129.4760222010788,168.7 C 152.4760222010788,168.5 156.0760222010788,166.39999999999998 157.67602220107878,149.8 C 158.9760222010788,136.10000000000002 152.7760222010788,123.3 152.17602220107878,108.39999999999999 C 162.7760222010788,111.89999999999999 164.7760222010788,120.8 166.87602220107877,128.59999999999997 C 170.17602220107878,141.39999999999998 175.57602220107876,140.7 185.87602220107877,135.09999999999997 C 206.17602220107878,123.99999999999999 206.77602220107875,105.89999999999998 204.17602220107878,84.79999999999998 C 213.2760222010788,89.09999999999998 212.2760222010788,96.09999999999998 213.9760222010788,101.59999999999998 C 214.87602220107877,104.49999999999999 215.0760222010788,108.39999999999999 218.9760222010788,108.59999999999998 C 222.5760222010788,108.69999999999997 223.9760222010788,105.19999999999997 225.37602220107877,102.49999999999999 C 229.9760222010788,93.99999999999999 229.07602220107876,85.29999999999998 226.17602220107878,76.69999999999999 C 220.67602220107878,59.999999999999986 215.07602220107876,43.29999999999999 212.67602220107878,24.599999999999987 C 217.57602220107876,33.999999999999986 222.17602220107878,43.59999999999999 227.4760222010788,52.69999999999999 C 230.9760222010788,58.599999999999994 231.87602220107877,69.69999999999999 240.7760222010788,67.69999999999999 C 251.67602220107878,65.29999999999998 248.5760222010788,54.099999999999994 247.67602220107878,46.3 C 246.07602220107876,31.9 242.9760222010788,17.699999999999996 239.9760222010788,0.0 C 253.2760222010788,13.799999999999997 250.17602220107878,31.200000000000003 258.97602220107876,44.5 C 268.0760222010788,32.2 263.6760222010788,19.5 263.77602220107883,5.200000000000003 C 273.5760222010788,12.900000000000006 273.37602220107885,22.0 272.27602220107883,30.200000000000003 C 265.6760222010788,78.8 244.9760222010788,118.7 199.87602220107883,142.8 C 191.5760222010788,147.3 182.47602220107885,151.2 177.97602220107885,160.8 C 189.17602220107884,154.8 200.47602220107885,150.89999999999998 213.17602220107884,150.5 C 223.97602220107885,150.2 227.27602220107886,155.0 226.0760222010788,164.59999999999997 C 223.87602220107883,183.5 210.7760222010788,193.89999999999998 195.4760222010788,201.5 C 176.4760222010788,211.0 172.17602220107878,220.2 178.5760222010788,240.5 C 182.17602220107884,251.89999999999998 184.87602220107883,263.7 187.7760222010788,275.3 C 189.87602220107883,283.90000000000003 194.2760222010788,287.2 203.67602220107878,285.1 C 230.9760222010788,279.0 258.1760222010788,277.1 285.77602220107883,285.20000000000005 C 296.87602220107885,288.50000000000006 308.5760222010788,285.80000000000007 319.87602220107885,282.90000000000003 C 348.5760222010789,275.3 377.87602220107885,274.90000000000003 407.0760222010789,277.3 C 427.77602220107894,279.0 446.5760222010789,286.5 461.37602220107885,302.2 C 466.37602220107885,307.4 472.27602220107883,312.2 478.6760222010788,315.59999999999997 C 506.97602220107876,330.7 512.4760222010788,354.59999999999997 509.77602220107883,384.4 C 507.1760222010788,413.0 500.77602220107883,439.29999999999995 486.4760222010789,464.59999999999997 C 476.1760222010789,482.9 476.1760222010789,504.9 476.6760222010789,525.9 C 477.0760222010789,544.6999999999999 477.27602220107894,563.1999999999999 472.0760222010789,581.8 C 467.37602220107885,598.5 468.0760222010789,616.0 472.37602220107885,633.0999999999999 C 472.4760222010789,633.5999999999999 472.87602220107885,634.1999999999999 472.77602220107883,634.5999999999999 C 464.0760222010788,669.3 478.27602220107883,704.9999999999999 468.0760222010788,739.8 C 465.77602220107883,747.5 463.27602220107883,754.1999999999999 453.87602220107874,753.1999999999999 C 442.37602220107874,751.9999999999999 446.1760222010787,742.9999999999999 446.37602220107874,736.1999999999999 C 447.2760222010787,694.9999999999999 450.37602220107874,653.6999999999999 448.47602220107876,612.6999999999999 C 446.5760222010788,570.9 428.47602220107876,532.9999999999999 411.87602220107874,495.19999999999993 C 409.37602220107874,489.5999999999999 404.97602220107876,482.5999999999999 397.87602220107874,486.0999999999999 C 392.1760222010787,488.8999999999999 393.5760222010788,496.69999999999993 395.97602220107876,501.79999999999995 C 402.7760222010787,516.4 410.2760222010787,530.8 417.97602220107876,545.0 C 422.47602220107876,553.2 421.87602220107874,560.0 416.87602220107874,568.2 C 388.37602220107874,614.9000000000001 360.87602220107874,662.2 335.5760222010788,710.8000000000001 C 328.97602220107876,723.4000000000001 313.97602220107876,734.0000000000001 299.47602220107876,741.4000000000001 C 296.6760222010788,742.8000000000001 293.7760222010787,743.1000000000001 291.6760222010788,739.2 C 285.37602220107885,727.6 289.47602220107876,710.0 300.6760222010788,701.6 C 341.77602220107883,670.5 358.97602220107876,625.0 372.77602220107883,578.3000000000001 C 378.0760222010788,560.6 364.6760222010788,545.4000000000001 355.77602220107883,530.9000000000001 C 345.9760222010789,514.9000000000001 334.5760222010788,500.0000000000001 327.37602220107885,482.30000000000007 C 322.4760222010789,470.20000000000005 313.27602220107883,473.6000000000001 305.77602220107883,479.9000000000001 C 299.9760222010789,484.7000000000001 297.87602220107885,492.1000000000001 296.27602220107883,499.30000000000007 C 286.5760222010788,541.0000000000001 276.6760222010788,582.6 267.37602220107885,624.3000000000001 C 259.87602220107885,657.7 268.0760222010789,690.8000000000001 270.6760222010788,723.9000000000001 C 271.37602220107885,732.7 260.0760222010788,756.3000000000001 251.7760222010788,759.5000000000001 C 240.67602220107878,763.9000000000001 233.7760222010788,757.6000000000001 236.0760222010788,743.2000000000002 C 239.17602220107884,724.2000000000002 244.67602220107884,705.5000000000001 246.5760222010788,686.2000000000002 C 249.0760222010788,661.2000000000002 251.0760222010788,636.4000000000002 244.87602220107883,611.5000000000001 C 241.2760222010788,597.1000000000001 244.0760222010788,582.4000000000001 246.87602220107883,568.0000000000001 C 250.2760222010788,549.9000000000001 249.7760222010788,531.6000000000001 246.87602220107883,513.5000000000001 C 245.87602220107883,507.4000000000001 243.67602220107884,500.9000000000001 237.47602220107885,500.60000000000014 C 230.47602220107885,500.3000000000002 231.87602220107883,508.3000000000002 230.77602220107886,512.9000000000001 C 225.07602220107887,537.6000000000001 225.37602220107888,562.6000000000001 229.27602220107886,587.6000000000001 C 230.97602220107885,598.5000000000001 230.17602220107884,609.5000000000001 225.67602220107884,619.9000000000001 C 215.67602220107884,643.4000000000001 217.77602220107886,666.7 227.37602220107883,689.9000000000001 C 233.87602220107883,705.4000000000001 226.17602220107884,738.8000000000001 214.17602220107884,749.2 C 210.47602220107885,752.4000000000001 206.67602220107884,755.1 201.47602220107885,752.8000000000001 C 196.27602220107886,750.5000000000001 198.17602220107884,746.0000000000001 198.17602220107884,741.9000000000001 C 197.97602220107885,687.7 205.27602220107886,633.6000000000001 201.27602220107886,579.3000000000001 C 199.07602220107887,550.2 196.47602220107885,521.0000000000001 188.07602220107887,492.70000000000005 C 186.87602220107888,488.80000000000007 185.6760222010789,483.80000000000007 182.77602220107886,481.70000000000005 C 164.87602220107888,468.50000000000006 156.77602220107886,449.6 150.27602220107886,429.40000000000003 C 147.87602220107888,421.8 143.67602220107884,415.1 138.27602220107886,409.40000000000003 C 105.97602220107885,375.1 97.27602220107886,333.0 97.07602220107887,287.90000000000003 C 96.97602220107885,265.6 96.07602220107887,243.3 96.1760222010789,220.90000000000003 C 96.1760222010789,211.70000000000005 92.87602220107888,207.3 83.87602220107888,204.0 C 60.57602220107887,195.60000000000002 47.77602220107886,178.90000000000003 47.77602220107886,161.60000000000002 C 47.77602220107886,153.3 50.97602220107885,150.60000000000002 58.87602220107888,150.7 C 70.27602220107886,150.60000000000002 81.6760222010789,153.3 92.97602220107885,159.20000000000005"/>
</svg>
