<?xml version="1.0" ?>
<svg xmlns="http://www.w3.org/2000/svg" xmlns:ev="http://www.w3.org/2001/xml-events" xmlns:xlink="http://www.w3.org/1999/xlink" baseProfile="full" height="785" id="Layer_1" style="enable-background:new 0 0 1000 800;" transform="scale(0.28328611898017 0.28328611898017) translate(-176.5 -392.5)" version="1.1" viewBox="0 0 353 785" width="353" x="0px" xml:space="preserve" y="0px">
	<defs/>
	<path d="M 247.36566717473283,746.4999999999999 C 238.2656671747328,746.0999999999999 230.1656671747328,747.9999999999999 222.7656671747328,751.9999999999999 C 218.86566717473283,754.0999999999999 215.06566717473277,757.0999999999999 212.06566717473277,760.4999999999999 C 206.7656671747328,766.3999999999999 201.7656671747328,772.7999999999998 196.96566717473274,779.1999999999999 C 191.36566717473272,786.6999999999999 183.16566717473273,786.4999999999999 177.86566717473272,779.1999999999999 C 173.66566717473273,773.4 168.66566717473273,768.1999999999999 164.36566717473272,762.4999999999999 C 156.2656671747327,751.5999999999999 144.96566717473274,748.2999999999998 132.7656671747327,746.9999999999999 C 131.16566717473268,746.7999999999998 129.5656671747327,746.9999999999999 127.56566717473271,746.9999999999999 C 128.2656671747327,735.3999999999999 120.06566717473271,728.9999999999999 114.96566717473269,720.6999999999999 C 106.16566717473268,706.4 96.46566717473269,692.4999999999999 89.56566717473271,677.1999999999999 C 84.36566717473272,665.4 81.7656671747327,651.9 80.2656671747327,638.8 C 78.46566717473269,623.5 79.06566717473271,607.8 78.86566717473272,592.3 C 78.7656671747327,588.9 79.66566717473273,585.5999999999999 79.7656671747327,582.1999999999999 C 79.86566717473272,572.9999999999999 84.16566717473268,565.8 89.7656671747327,559.6999999999999 C 93.96566717473269,555.0999999999999 94.46566717473269,550.4999999999999 94.06566717473271,544.8 C 92.66566717473273,522.5999999999999 90.7656671747327,500.5 90.66566717473273,478.3 C 90.56566717473271,461.5 92.26566717473276,444.7 94.16566717473273,428.0 C 95.96566717473274,411.9 99.66566717473273,396.0 101.46566717473274,379.9 C 102.36566717473272,372.2 100.86566717473272,364.2 100.46566717473274,357.4 C 91.16566717473273,353.59999999999997 82.26566717473276,351.2 74.46566717473274,346.59999999999997 C 60.565667174732766,338.4 47.065667174732766,328.99999999999994 42.86566717473272,310.99999999999994 C 40.66566717473273,301.59999999999997 39.465667174732744,291.8999999999999 37.66566717473273,282.3999999999999 C 36.56566717473271,276.8999999999999 34.965667174732744,271.5999999999999 33.965667174732744,266.19999999999993 C 33.565667174732766,264.29999999999995 33.565667174732766,260.69999999999993 34.16566717473273,260.49999999999994 C 36.56566717473271,259.79999999999995 39.36566717473272,259.3999999999999 41.66566717473273,260.09999999999997 C 47.86566717473272,262.09999999999997 53.765667174732755,265.59999999999997 60.06566717473271,266.79999999999995 C 80.06566717473271,270.79999999999995 97.2656671747327,280.09999999999997 111.36566717473272,295.69999999999993 C 116.06566717473271,300.8999999999999 126.46566717473274,301.3999999999999 132.36566717473272,296.49999999999994 C 122.86566717473272,287.69999999999993 113.56566717473271,278.79999999999995 104.16566717473273,270.09999999999997 C 98.26566717473276,264.59999999999997 90.96566717473274,261.99999999999994 83.86566717473272,258.79999999999995 C 75.46566717473274,254.99999999999994 67.66566717473273,249.69999999999993 59.7656671747327,244.59999999999997 C 48.86566717473272,237.59999999999997 37.56566717473271,230.99999999999997 27.36566717473272,222.89999999999998 C 15.965667174732744,213.89999999999998 8.56566717473271,200.99999999999997 2.1656671747327323,187.79999999999998 C 0.5656671747327096,184.49999999999997 0.3656671747327209,180.1 0.26566717473275503,176.2 C -0.6343328252672222,153.7 0.46566717473274366,131.5 8.065667174732766,110.19999999999999 C 11.16566717473279,101.6 13.265667174732755,92.6 16.365667174732778,84.1 C 19.565667174732766,75.5 22.765667174732755,66.6 27.365667174732778,58.8 C 32.265667174732755,50.599999999999994 32.565667174732766,41.8 33.565667174732766,32.9 C 33.66566717473279,31.9 33.765667174732755,30.9 33.86566717473278,29.299999999999997 C 35.36566717473278,30.099999999999994 36.565667174732766,30.799999999999997 37.86566717473278,31.4 C 42.86566717473278,33.699999999999996 47.66566717473279,34.4 52.4656671747328,30.5 C 62.9656671747328,22.199999999999996 73.4656671747328,14.1 84.16566717473279,6.1 C 87.4656671747328,3.5999999999999996 91.16566717473279,1.5999999999999996 95.16566717473279,0.0 C 89.86566717473278,11.4 83.9656671747328,21.700000000000003 75.4656671747328,30.6 C 62.26566717473281,44.6 47.56566717473282,57.400000000000006 38.26566717473281,75.1 C 32.06566717473282,86.89999999999999 27.565667174732823,99.39999999999999 25.16566717473279,112.69999999999999 C 24.865667174732778,114.39999999999999 25.16566717473279,116.19999999999999 25.16566717473279,117.89999999999999 C 25.565667174732766,118.1 25.865667174732778,118.3 26.265667174732812,118.39999999999999 C 27.865667174732835,115.99999999999999 29.765667174732812,113.69999999999999 31.065667174732823,111.1 C 38.9656671747328,96.19999999999999 46.76566717473281,81.19999999999999 54.76566717473281,66.39999999999999 C 57.66566717473279,60.89999999999999 61.06566717473282,55.79999999999999 64.26566717473281,50.49999999999999 C 64.66566717473279,50.599999999999994 65.06566717473282,50.699999999999996 65.4656671747328,50.89999999999999 C 65.4656671747328,55.599999999999994 66.4656671747328,60.499999999999986 65.26566717473281,64.8 C 62.4656671747328,75.1 58.56566717473282,85.0 55.16566717473279,95.1 C 54.66566717473279,96.5 54.26566717473281,98.0 53.26566717473281,100.8 C 97.06566717473282,81.69999999999999 140.6656671747328,65.19999999999999 184.9656671747328,48.0 C 184.06566717473282,53.0 183.1656671747328,56.1 180.06566717473282,58.8 C 167.4656671747328,70.0 153.06566717473282,78.0 138.66566717473285,86.0 C 120.46566717473286,96.1 101.46566717473286,104.8 82.96566717473286,114.4 C 69.36566717473283,121.5 56.06566717473288,129.3 44.865667174732835,140.4 C 41.665667174732846,143.6 38.06566717473282,146.3 34.76566717473281,149.4 C 30.765667174732812,153.1 26.9656671747328,157.1 23.16566717473279,161.0 C 22.565667174732766,161.6 22.065667174732766,162.3 21.865667174732778,163.1 C 20.365667174732778,173.0 19.4656671747328,182.2 27.265667174732755,190.6 C 47.065667174732766,211.5 69.96566717473274,226.89999999999998 96.06566717473277,237.0 C 101.76566717473276,239.2 108.06566717473277,236.6 112.26566717473276,232.1 C 121.66566717473273,222.0 120.06566717473277,209.2 121.06566717473277,197.0 C 122.06566717473277,184.8 122.46566717473274,172.5 123.46566717473274,160.2 C 123.56566717473277,158.39999999999998 125.16566717473273,156.79999999999998 126.06566717473277,155.1 C 127.36566717473278,156.5 129.06566717473277,157.79999999999998 129.76566717473276,159.5 C 130.66566717473273,161.8 131.06566717473277,164.4 131.16566717473273,166.9 C 131.5656671747327,185.3 132.0656671747327,203.7 132.16566717473273,222.0 C 132.16566717473273,229.3 131.5656671747327,236.7 130.66566717473273,243.9 C 129.5656671747327,252.2 132.26566717473276,259.0 137.26566717473276,264.8 C 141.16566717473273,269.40000000000003 145.26566717473276,273.90000000000003 149.76566717473276,277.7 C 151.86566717473278,279.5 155.06566717473277,280.4 157.86566717473278,280.59999999999997 C 168.06566717473277,281.2 178.36566717473278,281.49999999999994 188.56566717473277,281.7 C 195.36566717473272,281.8 198.06566717473277,278.4 198.1656671747328,271.2 C 198.1656671747328,239.89999999999998 194.46566717473274,208.89999999999998 191.7656671747328,177.7 C 191.6656671747328,177.0 191.7656671747328,176.29999999999998 191.7656671747328,175.39999999999998 C 196.36566717473283,176.99999999999997 198.86566717473283,180.29999999999998 199.6656671747328,184.89999999999998 C 202.36566717473283,200.99999999999997 204.96566717473274,217.2 207.56566717473277,233.29999999999998 C 208.06566717473277,236.39999999999998 208.6656671747328,239.39999999999998 209.2656671747328,242.39999999999998 C 210.2656671747328,247.29999999999998 212.06566717473277,249.09999999999997 216.46566717473286,247.7 C 223.06566717473288,245.6 229.46566717473286,242.79999999999998 235.6656671747329,239.7 C 239.76566717473293,237.7 243.26566717473293,234.5 247.26566717473293,232.2 C 251.36566717473295,229.7 252.96566717473297,226.29999999999998 253.36566717473295,221.29999999999998 C 254.6656671747329,206.2 251.565667174733,191.79999999999998 246.46566717473297,178.2 C 238.86566717473295,157.7 234.065667174733,136.5 229.26566717473293,115.19999999999999 C 227.96566717473297,109.49999999999999 226.96566717473297,103.69999999999999 225.86566717473295,97.99999999999999 C 226.1656671747329,97.89999999999999 226.46566717473297,97.69999999999999 226.86566717473295,97.59999999999998 C 228.96566717473297,101.39999999999998 231.46566717473297,105.09999999999998 233.1656671747329,109.19999999999997 C 238.26566717473293,121.59999999999997 242.86566717473295,134.29999999999998 247.86566717473295,146.79999999999998 C 250.86566717473295,154.29999999999998 254.1656671747329,161.79999999999998 257.2656671747329,169.29999999999998 C 258.36566717473295,171.99999999999997 259.96566717473297,171.79999999999998 261.96566717473297,170.39999999999998 C 263.165667174733,169.59999999999997 264.565667174733,169.2 265.86566717473295,168.59999999999997 C 266.36566717473295,170.39999999999998 267.2656671747329,172.09999999999997 267.2656671747329,173.89999999999998 C 267.7656671747329,184.99999999999997 268.0656671747329,196.2 268.5656671747329,207.29999999999998 C 268.5656671747329,207.99999999999997 268.7656671747329,208.7 268.96566717473286,209.39999999999998 C 271.5656671747329,217.89999999999998 276.0656671747329,219.09999999999997 282.0656671747329,212.79999999999998 C 283.86566717473283,210.89999999999998 285.5656671747329,208.79999999999998 287.5656671747329,207.2 C 295.7656671747329,200.79999999999998 294.86566717473283,191.1 295.46566717473286,182.1 C 296.46566717473286,167.4 292.5656671747329,153.5 289.0656671747329,139.6 C 286.2656671747329,128.29999999999998 282.86566717473283,117.1 280.2656671747329,105.69999999999999 C 275.7656671747329,85.89999999999999 271.7656671747329,65.99999999999999 267.46566717473297,46.19999999999999 C 267.165667174733,44.89999999999999 267.065667174733,43.59999999999999 266.7656671747329,41.59999999999999 C 272.36566717473295,44.29999999999999 275.1656671747329,48.399999999999984 277.36566717473295,53.39999999999999 C 285.96566717473297,72.6 291.86566717473295,92.89999999999999 297.96566717473297,113.0 C 302.065667174733,126.6 306.065667174733,140.2 309.065667174733,154.1 C 310.86566717473295,162.29999999999998 310.565667174733,170.9 311.26566717473304,179.29999999999998 C 311.565667174733,182.39999999999998 311.565667174733,185.6 312.565667174733,188.39999999999998 C 313.76566717473304,191.79999999999998 316.26566717473304,192.2 318.36566717473295,189.49999999999997 C 320.46566717473297,186.69999999999996 322.6656671747329,183.39999999999998 323.2656671747329,180.09999999999997 C 325.7656671747329,165.89999999999998 325.0656671747329,151.49999999999997 322.36566717473295,137.49999999999997 C 320.7656671747329,129.49999999999997 316.46566717473297,121.79999999999998 312.46566717473297,114.59999999999997 C 307.96566717473297,106.29999999999997 303.36566717473295,98.29999999999997 303.665667174733,88.29999999999997 C 303.665667174733,86.89999999999996 303.665667174733,85.59999999999997 303.665667174733,82.79999999999997 C 310.26566717473304,87.29999999999997 312.86566717473306,94.09999999999997 317.665667174733,99.69999999999996 C 319.665667174733,85.09999999999997 312.165667174733,73.19999999999996 311.665667174733,60.19999999999996 C 311.96566717473297,59.89999999999996 312.36566717473306,59.69999999999996 312.665667174733,59.39999999999996 C 314.665667174733,61.69999999999996 317.36566717473306,63.69999999999996 318.665667174733,66.49999999999996 C 326.065667174733,81.89999999999996 331.86566717473306,97.99999999999996 333.46566717473297,115.39999999999995 C 333.96566717473297,120.99999999999994 334.96566717473297,125.89999999999995 339.565667174733,129.79999999999995 C 345.46566717473297,134.79999999999995 346.36566717473295,142.99999999999994 349.065667174733,149.99999999999994 C 354.96566717473297,165.09999999999994 353.665667174733,180.09999999999994 347.76566717473304,194.89999999999995 C 346.86566717473306,196.99999999999994 345.565667174733,199.19999999999996 344.065667174733,200.79999999999995 C 337.26566717473304,207.79999999999995 330.665667174733,214.99999999999994 323.36566717473295,221.29999999999995 C 313.1656671747329,230.19999999999996 300.565667174733,234.89999999999995 288.46566717473297,239.59999999999997 C 275.565667174733,244.49999999999997 263.565667174733,250.89999999999998 251.86566717473295,258.2 C 244.76566717473293,262.59999999999997 237.36566717473295,266.5 230.36566717473295,271.09999999999997 C 228.065667174733,272.59999999999997 226.36566717473295,275.4 224.6656671747329,277.79999999999995 C 223.06566717473288,280.19999999999993 221.6656671747329,282.79999999999995 220.6656671747329,285.49999999999994 C 220.1656671747329,286.8999999999999 220.76566717473293,288.69999999999993 220.86566717473295,290.29999999999995 C 222.26566717473293,289.99999999999994 224.1656671747329,290.09999999999997 224.86566717473295,289.19999999999993 C 226.86566717473295,286.3999999999999 228.1656671747329,283.0999999999999 230.1656671747329,280.29999999999995 C 236.26566717473293,271.19999999999993 244.56566717473288,265.09999999999997 253.86566717473295,260.09999999999997 C 265.6656671747329,253.79999999999995 277.065667174733,246.79999999999995 290.46566717473297,244.99999999999997 C 300.46566717473297,243.59999999999997 301.165667174733,244.29999999999998 299.96566717473297,254.89999999999998 C 297.46566717473297,277.0 290.065667174733,297.0 276.565667174733,313.79999999999995 C 268.26566717473304,323.99999999999994 258.46566717473297,333.09999999999997 245.36566717473295,336.29999999999995 C 242.6656671747329,336.99999999999994 241.1656671747329,338.4 241.1656671747329,341.49999999999994 C 241.1656671747329,343.19999999999993 240.86566717473295,344.8999999999999 240.36566717473295,346.49999999999994 C 239.36566717473295,350.09999999999997 240.36566717473295,352.79999999999995 242.96566717473297,355.09999999999997 C 252.16566717473302,363.29999999999995 261.2656671747329,371.59999999999997 270.46566717473297,379.7 C 273.86566717473295,382.59999999999997 277.665667174733,385.0 281.165667174733,387.8 C 282.165667174733,388.6 283.36566717473306,389.8 283.46566717473297,391.0 C 284.36566717473295,399.2 285.165667174733,407.4 278.96566717473297,414.2 C 276.665667174733,416.7 274.665667174733,419.59999999999997 272.46566717473297,422.2 C 269.665667174733,425.4 267.46566717473297,428.7 266.565667174733,433.4 C 265.565667174733,438.5 261.46566717473297,441.7 256.46566717473297,442.4 C 247.66566717473302,443.59999999999997 238.76566717473293,444.59999999999997 229.86566717473295,445.2 C 226.76566717473293,445.4 225.46566717473297,446.3 225.065667174733,449.59999999999997 C 223.86566717473295,458.59999999999997 225.065667174733,467.4 226.96566717473297,476.09999999999997 C 230.16566717473302,491.49999999999994 235.46566717473297,506.09999999999997 242.46566717473297,520.0999999999999 C 245.96566717473297,527.1999999999999 250.96566717473297,533.0999999999999 257.165667174733,537.8 C 263.165667174733,542.3 269.36566717473306,546.5 275.46566717473297,550.5999999999999 C 285.96566717473297,557.6999999999999 293.665667174733,567.3 294.665667174733,580.6999999999999 C 295.96566717473297,597.4 297.36566717473306,614.4999999999999 295.76566717473304,630.9999999999999 C 294.165667174733,647.0999999999999 289.86566717473306,663.1999999999999 284.86566717473306,678.5999999999999 C 281.76566717473304,687.9999999999999 275.26566717473304,696.0999999999999 270.0656671747331,704.5999999999999 C 265.76566717473315,711.6999999999999 261.26566717473315,718.6999999999999 256.5656671747331,725.4999999999999 C 251.46566717473286,731.6999999999999 246.56566717473288,737.4999999999999 247.36566717473283,746.4999999999999"/>
</svg>
