<?xml version="1.0" ?>
<svg xmlns="http://www.w3.org/2000/svg" xmlns:ev="http://www.w3.org/2001/xml-events" xmlns:xlink="http://www.w3.org/1999/xlink" baseProfile="full" height="762" id="Layer_1" style="enable-background:new 0 0 1000 800;" transform="scale(0.16420361247947454 0.16420361247947454) translate(-304.5 -381.0)" version="1.1" viewBox="0 0 609 762" width="609" x="0px" xml:space="preserve" y="0px">
	<defs/>
	<path d="M 507.84209893300033,376.30010689080035 C 521.8420989330003,377.10010689080036 531.8420989330003,370.9001068908004 541.6420989330003,364.60010689080036 C 560.6420989330003,352.50010689080034 572.3420989330003,333.9001068908004 583.7420989330003,315.10010689080036 C 587.4420989330004,309.00010689080034 590.4420989330004,302.4001068908004 596.0420989330003,297.80010689080035 C 598.7420989330003,295.60010689080036 601.6420989330003,294.10010689080036 605.1420989330003,295.80010689080035 C 608.7420989330003,297.60010689080036 609.2420989330003,300.9001068908004 608.7420989330003,304.30010689080035 C 608.3420989330003,307.10010689080036 607.8420989330003,310.00010689080034 606.7420989330003,312.60010689080036 C 591.3420989330003,349.7001068908004 569.7420989330003,380.0001068908004 530.0420989330003,395.80010689080035 C 488.6420989330003,412.30010689080035 446.3420989330002,427.2001068908003 408.6420989330003,451.9001068908004 C 404.04209893300026,454.9001068908004 398.1420989330003,456.9001068908004 399.44209893300024,465.5001068908004 C 412.44209893300024,461.3001068908004 422.94209893300024,453.2001068908004 434.1420989330003,446.8001068908004 C 455.1420989330003,434.90010689080043 476.84209893300033,425.90010689080043 501.54209893300026,426.90010689080043 C 515.1420989330003,427.40010689080043 518.8420989330002,432.1001068908004 514.0420989330003,445.1001068908004 C 504.8420989330002,470.0001068908004 490.1420989330003,491.5001068908004 471.94209893300024,510.6001068908004 C 465.94209893300024,516.8001068908005 458.04209893300026,520.5001068908005 449.2420989330002,521.7001068908005 C 446.44209893300024,522.1001068908005 443.54209893300015,522.4001068908005 440.7420989330002,522.9001068908005 C 403.94209893300024,529.8001068908005 403.8420989330002,529.9001068908005 407.8420989330002,566.7001068908005 C 409.3420989330002,580.9001068908005 406.7420989330002,594.4001068908005 400.3420989330002,606.8001068908005 C 382.04209893300026,642.1001068908005 368.14209893300017,678.8001068908005 362.04209893300026,718.1001068908005 C 357.04209893300026,750.3001068908005 313.7420989330003,772.5001068908005 276.54209893300026,755.0001068908005 C 254.0420989330003,744.5001068908005 240.6420989330003,729.0001068908005 237.3420989330003,703.7001068908005 C 233.1420989330003,671.4001068908005 222.8420989330003,640.8001068908005 207.24209893300028,612.2001068908005 C 196.0420989330003,591.6001068908005 197.74209893300028,568.8001068908005 195.94209893300027,546.8001068908005 C 194.94209893300027,534.6001068908005 191.64209893300026,528.9001068908005 178.0420989330003,527.1001068908005 C 148.3420989330003,523.2001068908005 124.74209893300028,507.9001068908004 109.54209893300029,481.3001068908004 C 105.54209893300029,474.3001068908004 101.14209893300031,467.40010689080043 98.24209893300028,459.90010689080043 C 94.44209893300027,450.20010689080044 83.8420989330003,440.3001068908004 91.94209893300027,429.8001068908004 C 99.44209893300027,419.90010689080043 112.34209893300024,424.5001068908004 122.94209893300027,425.0001068908004 C 140.5420989330003,425.8001068908004 155.74209893300028,433.4001068908004 169.44209893300027,444.5001068908004 C 182.14209893300026,454.8001068908004 195.34209893300024,464.4001068908004 210.84209893300024,470.3001068908004 C 213.84209893300024,463.7001068908004 208.94209893300027,463.1001068908004 206.94209893300027,461.40010689080043 C 180.74209893300028,439.6001068908004 151.74209893300028,423.20010689080044 119.14209893300026,412.50010689080045 C 87.14209893300026,402.00010689080045 55.24209893300025,390.40010689080043 31.642098933000256,364.1001068908005 C 18.04209893300026,348.9001068908005 10.042098933000261,330.7001068908005 2.342098933000244,312.30010689080046 C -0.1579010669997558,306.30010689080046 -2.3579010669997444,298.00010689080045 5.24209893300025,294.50010689080045 C 13.24209893300025,290.80010689080046 15.342098933000244,299.6001068908005 18.142098933000256,304.50010689080045 C 31.142098933000256,327.1001068908005 48.142098933000256,346.00010689080045 68.74209893300028,361.90010689080043 C 77.94209893300027,369.00010689080045 88.24209893300028,373.3001068908004 101.54209893300029,373.40010689080043 C 56.942098933000295,314.40010689080043 47.442098933000295,243.70010689080044 29.942098933000295,176.10010689080042 C 19.8420989330003,137.10010689080042 34.74209893300031,102.20010689080041 53.642098933000284,69.00010689080042 C 56.34209893300027,64.30010689080042 60.74209893300028,60.40010689080043 66.54209893300029,63.20010689080043 C 73.04209893300029,66.30010689080042 68.64209893300031,71.60010689080043 67.64209893300031,75.70010689080043 C 63.742098933000335,90.40010689080043 58.942098933000324,104.80010689080044 55.24209893300031,119.50010689080042 C 52.8420989330003,128.7001068908004 52.74209893300031,138.10010689080042 58.54209893300032,149.60010689080042 C 71.44209893300032,129.40010689080043 87.44209893300032,113.30010689080041 83.64209893300031,87.60010689080042 C 79.94209893300032,63.30010689080042 80.64209893300031,39.20010689080043 92.04209893300029,16.500106890800428 C 94.8420989330003,10.900106890800426 97.8420989330003,5.500106890800428 103.3420989330003,2.200106890800427 C 105.24209893300028,1.0001068908004278 107.3420989330003,-1.0998931091995736 109.74209893300028,0.7001068908004271 C 111.8420989330003,2.3001068908004285 111.64209893300026,4.900106890800426 110.94209893300027,7.200106890800427 C 109.64209893300026,11.800106890800425 108.24209893300028,16.300106890800425 106.74209893300028,20.800106890800425 C 103.04209893300029,32.30010689080042 101.24209893300028,43.90010689080043 104.14209893300026,55.90010689080043 C 109.14209893300026,76.40010689080043 120.74209893300028,81.40010689080043 138.24209893300028,69.90010689080043 C 156.44209893300027,57.90010689080043 174.3420989330003,45.20010689080043 192.3420989330003,32.90010689080043 C 197.44209893300032,29.400106890800433 202.44209893300032,25.70010689080043 208.6420989330003,24.400106890800433 C 213.74209893300034,23.300106890800432 220.0420989330003,20.70010689080043 222.8420989330003,26.500106890800435 C 225.5420989330003,32.00010689080044 218.94209893300032,34.300106890800436 215.44209893300032,37.00010689080044 C 190.04209893300035,56.300106890800436 165.74209893300034,76.80010689080044 143.0420989330003,99.20010689080044 C 126.14209893300031,115.90010689080043 108.94209893300027,132.30010689080044 94.94209893300027,151.70010689080044 C 78.84209893300024,173.90010689080043 73.74209893300028,197.00010689080045 83.84209893300024,224.00010689080045 C 94.84209893300024,253.30010689080046 102.54209893300023,283.70010689080044 114.94209893300027,312.6001068908004 C 130.84209893300024,349.6001068908004 158.84209893300024,376.5001068908004 186.84209893300024,403.6001068908004 C 193.04209893300023,409.6001068908004 196.54209893300023,407.70010689080044 197.24209893300022,399.20010689080044 C 198.54209893300023,382.6001068908004 199.9420989330002,366.00010689080045 204.9420989330002,350.00010689080045 C 206.4420989330002,345.20010689080044 207.1420989330002,338.40010689080043 213.9420989330002,338.90010689080043 C 221.6420989330002,339.40010689080043 221.1420989330002,346.6001068908004 221.54209893300023,352.1001068908004 C 222.4420989330002,363.5001068908004 223.64209893300026,374.90010689080043 223.64209893300026,386.20010689080044 C 223.64209893300026,436.30010689080046 296.04209893300026,482.30010689080046 349.3420989330002,448.30010689080046 C 382.44209893300024,427.1001068908005 395.3420989330002,398.50010689080045 393.44209893300024,360.6001068908005 C 393.1420989330003,354.00010689080045 387.44209893300024,342.6001068908005 399.6420989330003,340.9001068908005 C 411.84209893300033,339.1001068908005 411.04209893300026,350.80010689080046 413.34209893300033,358.7001068908005 C 417.84209893300033,374.4001068908005 415.44209893300035,390.7001068908005 416.94209893300035,407.6001068908005 C 423.2420989330003,407.1001068908005 426.34209893300033,402.7001068908005 429.94209893300035,399.50010689080045 C 474.84209893300033,360.20010689080044 505.84209893300033,312.4001068908005 519.7420989330003,253.9001068908005 C 521.7420989330003,245.60010689080048 523.8420989330003,237.2001068908005 526.8420989330003,229.2001068908005 C 539.6420989330003,194.5001068908005 529.1420989330003,166.4001068908005 504.2420989330003,141.1001068908005 C 473.1420989330003,109.50010689080051 440.44209893300035,79.9001068908005 406.94209893300035,51.00010689080051 C 401.94209893300035,46.70010689080051 391.7420989330003,41.20010689080051 396.34209893300033,35.00010689080051 C 402.2420989330003,27.30010689080051 411.0420989330004,35.10010689080052 417.34209893300033,39.400106890800515 C 437.34209893300033,53.100106890800504 457.34209893300033,66.8001068908005 478.94209893300035,77.90010689080052 C 496.44209893300035,86.80010689080052 508.34209893300033,79.90010689080052 509.6420989330004,59.900106890800515 C 510.44209893300035,47.400106890800515 505.6420989330004,35.60010689080052 504.34209893300044,23.300106890800517 C 503.84209893300044,18.50010689080052 500.5420989330005,11.400106890800519 506.34209893300044,9.100106890800518 C 513.6420989330004,6.2001068908005195 517.4420989330005,13.50010689080052 519.8420989330004,18.800106890800517 C 528.6420989330004,38.80010689080052 533.5420989330005,60.30010689080052 528.4420989330005,81.40010689080052 C 521.5420989330005,109.80010689080052 535.7420989330004,129.5001068908005 549.8420989330004,151.0001068908005 C 556.3420989330004,147.2001068908005 555.0420989330005,141.7001068908005 554.8420989330004,136.90010689080052 C 553.9420989330005,119.70010689080053 550.3420989330004,103.10010689080052 544.3420989330004,86.90010689080052 C 542.4420989330005,81.70010689080051 539.7420989330004,74.60010689080052 546.2420989330004,71.70010689080051 C 551.6420989330004,69.3001068908005 555.3420989330004,75.70010689080051 558.1420989330004,79.90010689080052 C 583.3420989330004,116.40010689080052 587.0420989330004,157.2001068908005 577.2420989330004,198.80010689080052 C 564.2420989330004,254.2001068908005 551.5420989330004,310.10010689080053 518.6420989330004,358.4001068908005 C 515.2420989330004,364.00010689080034 512.0420989330004,369.6001068908003 507.84209893300033,376.30010689080035"/>
</svg>
