<?xml version="1.0" ?>
<svg xmlns="http://www.w3.org/2000/svg" xmlns:cc="http://creativecommons.org/ns#" xmlns:dc="http://purl.org/dc/elements/1.1/" xmlns:ev="http://www.w3.org/2001/xml-events" xmlns:rdf="http://www.w3.org/1999/02/22-rdf-syntax-ns#" xmlns:svg="http://www.w3.org/2000/svg" xmlns:xlink="http://www.w3.org/1999/xlink" baseProfile="full" height="585" id="svg8" transform="scale(0.17094017094017094 0.17094017094017094) translate(-436.0 -292.5)" version="1.1" viewBox="0 0 872 585" width="872">
	<defs/>
	<path d="M 240.22628025957835,197.52619109437524 C 239.60518025957833,197.45419109437535 238.88741025957836,197.6934910943753 237.95644025957836,198.50579109437513 C 237.02547025957836,199.31789109437523 235.87975025957837,200.70329109437512 235.04427025957835,203.37769109437522 C 234.20881025957834,206.05199109437513 233.68561025957837,210.02399109437533 233.47118025957838,214.0081910943752 C 233.2568602595784,217.99269109437523 233.35247025957835,222.0045910943752 233.96107025957838,225.15609109437514 C 234.56960025957835,228.30779109437503 235.69085025957838,230.59899109437515 237.7441402595784,232.89099109437507 C 239.7974502595784,235.18299109437498 242.77866025957837,237.4759910943751 245.87095025957836,239.12379109437506 C 248.96324025957836,240.77109109437515 252.20884025957838,241.78459109437517 254.2644702595784,242.54189109437516 C 256.3200702595784,243.2993910943751 257.2726002595784,243.82729109437514 258.7769402595784,245.1163910943751 C 260.2812602595784,246.40609109437514 262.3359302595784,248.45799109437507 263.4581502595784,249.58009109437512 C 264.58035025957844,250.70239109437512 264.7752902595784,250.89379109437505 264.6556502595784,251.92089109437507 C 264.5360802595784,252.94759109437496 264.0923202595784,254.8563910943751 263.8827102595784,256.863191094375 C 263.6731402595784,258.8700910943751 263.6739702595784,261.0666910943751 263.81761025957843,263.6454910943751 C 263.96086025957845,266.22399109437515 264.24923025957844,269.18149109437513 264.4163902595784,270.9720910943752 C 264.5836002595784,272.7630910943751 264.6279202595784,273.38479109437526 263.6489002595784,277.01429109437527 C 262.6698002595784,280.64349109437535 260.6668302595784,287.28279109437517 257.3238002595784,292.01029109437536 C 253.98079025957838,296.7377910943753 249.30169025957838,299.55289109437535 244.40693025957836,300.6269910943754 C 239.51218025957837,301.70139109437537 234.39887025957836,301.0346910943754 228.69222025957833,300.9153910943753 C 222.98558025957834,300.7957910943753 216.63612025957832,301.2278910943753 210.45184025957832,302.08599109437523 C 204.2675702595783,302.94379109437523 198.15573025957832,304.2354910943752 187.6499702595783,304.11629109437513 C 177.14424025957834,303.99669109437514 162.24686025957834,302.46529109437506 150.06967025957834,300.50719109437523 C 137.89247025957832,298.5492910943751 128.43670025957834,296.1611910943752 120.17525025957833,294.27469109437516 C 111.91381025957834,292.38849109437524 104.84367025957833,291.00699109437505 94.19452025957834,291.4606910943751 C 83.54538025957835,291.9144910943751 69.32000025957835,294.2078910943751 56.951700259578345,297.9325910943751 C 44.58340025957834,301.657591094375 34.07354025957834,306.81459109437515 27.040954259578342,311.21439109437506 C 20.00835425957834,315.61389109437505 16.451174259578337,319.25279109437497 14.793604259578345,324.90949109437497 C 13.136034259578338,330.5663910943749 13.380864259578345,338.23889109437505 15.103874259578348,340.84739109437487 C 16.82684425957835,343.45609109437487 20.028554259578343,341.00359109437477 21.630334259578348,339.77509109437483 C 23.232134259578345,338.54769109437484 23.232854259578346,338.55079109437474 23.192564259578347,339.1108910943749 C 23.152164259578342,339.67139109437494 23.070804259578352,340.7891910943749 22.996634259578343,343.3078910943748 C 22.92243425957834,345.82609109437476 22.857004259578346,349.74509109437486 23.296014259578342,353.62819109437487 C 23.735014259578335,357.5111910943749 24.680044259578338,361.3594910943748 25.963204259578347,365.7828910943749 C 27.24638425957835,370.20669109437495 28.86710025957835,375.20259109437484 30.116410259578345,380.4360910943749 C 31.365740259578345,385.66999109437484 32.24461025957835,391.1415910943749 32.58222025957835,395.6665910943748 C 32.91983025957835,400.19149109437467 32.715430259578355,403.77269109437475 30.65529025957835,409.0405910943748 C 28.595320259578344,414.30849109437486 24.676114259578355,421.26089109437476 21.265664259578344,426.89999109437485 C 17.855204259578343,432.53909109437495 14.953974259578345,436.8607910943749 12.556434259578339,439.86599109437475 C 10.158924259578342,442.87089109437466 8.265984259578332,444.5591910943747 6.307584259578334,446.3486910943748 C 4.34916425957833,448.1384910943748 2.288044259578328,450.06259109437474 1.158244259578339,452.00419109437485 C 0.0284342595783329,453.94619109437485 -0.23882574042166027,455.97479109437495 0.20022425957833434,459.5540910943748 C 0.6392842595783321,463.13339109437493 1.7868042595783322,468.26329109437484 3.036174259578331,474.4088910943749 C 4.28554425957833,480.554291094375 5.636494259578328,487.71659109437496 6.514404259578328,495.55039109437485 C 7.392354259578326,503.3844910943749 7.796994259578327,511.8911910943748 7.695604259578332,517.8677910943748 C 7.594214259578337,523.8445910943747 6.9850342595783275,527.2917910943747 6.411014259578337,530.2295910943747 C 5.836954259578334,533.1669910943747 5.295084259578331,535.5966910943746 5.12638425957833,537.5886910943746 C 4.957784259578332,539.5808910943745 5.162384259578332,541.1309910943746 5.736034259578332,541.8399910943745 C 6.309754259578327,542.5489910943745 7.256394259578329,542.4171910943744 8.201814259578327,541.7419910943745 C 9.147274259578325,541.0668910943746 10.093194259578326,539.8500910943744 10.836384259578324,539.6135910943744 C 11.579544259578327,539.3765910943744 12.118344259578322,540.1176910943745 12.86126425957832,541.8396910943745 C 13.604194259578321,543.5620910943746 14.555294259578318,546.2885910943746 15.125674259578318,548.5403910943746 C 15.69601425957832,550.7925910943745 15.900634259578311,552.6137910943746 16.33952425957831,553.7280910943746 C 16.778384259578317,554.8419910943746 17.450544259578308,555.2469910943746 18.092244259578308,556.2265910943745 C 18.733934259578305,557.2059910943744 19.346204259578315,558.7582910943745 19.953844259578304,559.7372910943745 C 20.561474259578304,560.7163910943746 21.164854259578306,561.1210910943746 24.743914259578304,561.2558910943746 C 28.322970259578298,561.3896910943747 34.875150259578305,561.2558910943746 38.48816025957831,560.9186910943747 C 42.10116025957831,560.5811910943746 42.81808025957831,560.0084910943747 41.51462025957831,558.2350910943746 C 40.211140259578315,556.4614910943747 36.97191025957831,553.4233910943747 34.57445025957831,550.7560910943746 C 32.17697025957831,548.0883910943746 30.620120259578314,545.7935910943745 29.20195025957831,542.4168910943747 C 27.783780259578307,539.0401910943747 26.504874259578315,534.5838910943746 25.424324259578313,528.6072910943747 C 24.343784259578314,522.6306910943747 23.466074259578306,515.1351910943747 23.094594259578315,507.33509109437455 C 22.723124259578313,499.53489109437464 22.854094259578318,491.4290910943746 22.887804259578317,487.1404910943745 C 22.921504259578313,482.8518910943744 22.84720425957832,482.3117910943745 24.94538425957832,484.8434910943745 C 27.043624259578323,487.3751910943745 31.296660259578317,492.8442910943745 34.97732025957832,497.84189109437443 C 38.65797025957832,502.83949109437435 41.76674025957833,507.3637910943744 44.70443025957832,512.4624910943744 C 47.64213025957832,517.5614910943743 50.40779025957832,523.2365910943745 52.602600259578324,527.8288910943745 C 54.79741025957833,532.4212910943745 56.41807025957833,535.9347910943745 57.09330025957833,538.2309910943745 C 57.76855025957833,540.5273910943745 57.49400025957833,541.6217910943744 57.49610025957834,542.6944910943746 C 57.49810025957835,543.7669910943746 57.77228025957835,544.8482910943746 58.14387025957835,546.2324910943746 C 58.51529025957835,547.6170910943747 58.98748025957836,549.3076910943746 59.493780259578344,550.3203910943746 C 60.00009025957836,551.3331910943746 60.567800259578334,551.6881910943746 61.29549025957836,551.2404910943746 C 62.023220259578366,550.7922910943746 62.96850025957836,549.5763910943747 63.57622025957836,548.8669910943747 C 64.18398025957838,548.1579910943747 64.45512025957835,547.9542910943746 65.02960025957837,548.8999910943746 C 65.60407025957836,549.8456910943746 66.48068025957836,551.9394910943747 66.88574025957838,554.2019910943745 C 67.29082025957838,556.4640910943745 67.22298025957839,558.8942910943745 67.56070025957838,560.8860910943745 C 67.89843025957838,562.8781910943744 68.64140025957839,564.4322910943745 69.21546025957839,565.8504910943745 C 69.78951025957839,567.2687910943746 70.19689025957838,568.5532910943746 71.6486002595784,569.4645910943746 C 73.1003302595784,570.3762910943747 75.6005302595784,570.9135910943746 79.4161502595784,571.0487910943746 C 83.2317702595784,571.1824910943747 88.3609902595784,570.9148910943745 91.4675502595784,570.6785910943745 C 94.5740802595784,570.4417910943746 95.6568202595784,570.2418910943745 94.7117302595784,568.6210910943746 C 93.76665025957841,567.0001910943747 90.79701025957841,563.9576910943747 88.5009502595784,560.9187910943747 C 86.2049002595784,557.8798910943747 84.58272025957841,554.8432910943748 83.06313025957841,550.5548910943746 C 81.5435702595784,546.2662910943745 80.12284025957841,540.7300910943745 77.82672025957841,536.2391910943745 C 75.5305802595784,531.7479910943746 72.35872025957842,528.3013910943746 69.79244025957841,524.5197910943746 C 67.22619025957842,520.7378910943746 65.2670802595784,516.6184910943746 63.0047102595784,512.0600910943745 C 60.74232025957839,507.5014910943744 58.174490259578405,502.5064910943745 55.912100259578395,497.7114910943744 C 53.649740259578394,492.9167910943745 51.689900259578394,488.32279109437445 50.47428025957839,484.6423910943745 C 49.2586802595784,480.96189109437455 48.7879602595784,478.1925910943744 49.09171025957839,475.52479109437445 C 49.395460259578385,472.8574910943744 50.4745202595784,470.28979109437455 54.290010259578395,466.10269109437445 C 58.10555025957841,461.9152910943744 64.6581802595784,456.1114910943745 70.6688302595784,449.2229910943745 C 76.67945025957839,442.33449109437447 82.15068025957841,434.36129109437456 86.4052902595784,427.4389910943744 C 90.65991025957838,420.5167910943744 93.69708025957839,414.64299109437434 95.4193602595784,410.79339109437433 C 97.1416202595784,406.94409109437424 97.54854025957839,405.1214910943743 98.1899802595784,404.3106910943743 C 98.83140025957842,403.4996910943744 99.7097402595784,403.7019910943743 103.1542502595784,405.6603910943743 C 106.5987302595784,407.6190910943742 112.6098202595784,411.33499109437435 119.2281902595784,414.40779109437426 C 125.8465902595784,417.48069109437415 133.07166025957838,419.90919109437436 140.8379702595784,421.2934910943743 C 148.6043002595784,422.6780910943744 156.9116702595784,423.01699109437436 162.92131025957838,422.7468910943744 C 168.93093025957842,422.4764910943743 172.6450502595784,421.5977910943743 174.7386402595784,421.12489109437433 C 176.83224025957838,420.65199109437435 177.30602025957836,420.5838910943744 177.8467502595784,424.29839109437444 C 178.3874802595784,428.01259109437433 178.99189025957838,435.5122910943744 179.2619902595784,441.6242910943745 C 179.53206025957843,447.7361910943746 179.4679502595784,452.4638910943745 178.9952802595784,456.5495910943746 C 178.52247025957843,460.6352910943747 177.64141025957844,464.0771910943745 176.93228025957842,466.7448910943747 C 176.22313025957845,469.4124910943747 175.68369025957844,471.30569109437465 175.41360025957846,474.14219109437477 C 175.14355025957843,476.97879109437486 175.14578025957843,480.7593910943747 175.17950025957845,485.9596910943749 C 175.21320025957846,491.15959109437495 175.27870025957844,497.77869109437484 174.90722025957842,504.36339109437495 C 174.53574025957846,510.9478910943749 173.7278302595784,517.4941910943749 172.68092025957844,522.255391094375 C 171.63400025957844,527.0164910943749 170.34765025957842,529.992791094375 168.96317025957842,533.0656910943751 C 167.57869025957842,536.138491094375 166.09507025957845,539.308791094375 165.08212025957846,541.8074910943751 C 164.06915025957846,544.3061910943752 163.54651025957844,546.0672910943752 163.33484025957847,547.212791094375 C 163.12303025957846,548.3579910943749 163.27624025957846,548.8235910943749 163.87373025957845,548.5572910943749 C 164.47108025957846,548.289691094375 165.55039025957848,547.412291094375 166.86749025957846,547.310591094375 C 168.1846402595785,547.208091094375 169.76501025957845,547.8972910943751 170.90097025957846,549.4116910943751 C 172.03693025957847,550.926391094375 172.78200025957847,553.2866910943751 173.18714025957848,556.2920910943751 C 173.59231025957848,559.2972910943752 173.6573502595785,562.9465910943752 173.75868025957845,565.6815910943751 C 173.8600702595785,568.4170910943751 173.99585025957845,570.241691094375 174.7384702595785,571.4569910943751 C 175.48119025957845,572.6724910943751 176.8340402595785,573.277991094375 179.16384025957848,573.852191094375 C 181.49367025957844,574.4259910943749 184.80020025957845,574.9677910943751 188.21057025957845,574.968091094375 C 191.62091025957847,574.968091094375 195.13306025957843,574.428191094375 197.32803025957844,574.124091094375 C 199.52301025957843,573.8200910943749 200.39825025957845,573.7487910943751 199.55433025957842,572.0938910943751 C 198.71042025957843,570.4389910943751 196.14797025957841,567.199191094375 193.9532002595784,562.911191094375 C 191.7584102595784,558.6227910943751 189.9334602595784,553.285291094375 188.8528802595784,547.207191094375 C 187.7722602595784,541.129391094375 187.4331202595784,534.3119910943751 187.7370002595784,526.6807910943751 C 188.04086025957838,519.0494910943751 188.9881902595784,510.605891094375 190.67636025957842,504.325191094375 C 192.36453025957843,498.04449109437496 194.7970002595784,493.9287910943749 196.2829302595784,489.775391094375 C 197.76887025957842,485.62199109437506 198.3063602595784,481.432091094375 199.01544025957838,477.2448910943749 C 199.7245302595784,473.0577910943748 200.6051502595784,468.86929109437483 202.09091025957838,462.352291094375 C 203.5766302595784,455.8353910943749 205.6672002595784,446.9885910943749 207.4906202595784,440.26879109437505 C 209.31401025957842,433.54919109437515 210.8660102595784,428.9614910943751 211.84524025957842,426.361291094375 C 212.82443025957843,423.76099109437496 213.23133025957844,423.149391094375 214.95333025957842,422.5074910943749 C 216.6753302595784,421.86559109437485 219.71634025957843,421.1914910943749 221.37094025957845,420.8199910943749 C 223.02552025957846,420.44849109437496 223.29607025957847,420.3824910943749 224.34296025957843,424.096891094375 C 225.38988025957843,427.8110910943749 227.2117102595784,435.3037910943749 228.86633025957843,442.2937910943749 C 230.52091025957844,449.283491094375 232.00886025957846,455.76869109437484 232.78548025957843,460.49599109437486 C 233.56209025957844,465.22339109437485 233.62795025957843,468.19569109437475 233.83058025957843,470.93089109437483 C 234.03320025957845,473.66589109437473 234.37220025957845,476.1636910943748 235.28392025957845,480.5870910943747 C 236.19566025957846,485.01049109437463 237.67719025957842,491.3561910943747 238.89281025957843,499.08879109437476 C 240.10842025957845,506.8214910943748 241.0471302595784,515.8760910943747 241.15177025957843,522.0212910943746 C 241.2565802595784,528.1664910943746 240.51429025957844,531.2716910943745 239.70386025957845,534.6822910943747 C 238.89345025957846,538.0926910943747 238.01882025957843,541.8048910943746 237.61365025957843,544.3712910943748 C 237.2084902595784,546.9376910943747 237.2729502595784,548.3565910943748 237.54285025957842,548.6605910943747 C 237.81290025957844,548.9645910943748 238.2581802595784,548.2063910943748 239.25203025957842,547.7080910943746 C 240.24588025957843,547.2096910943746 241.73203025957844,547.0709910943747 242.9480002595784,547.5769910943745 C 244.1640102595784,548.0836910943744 245.10622025957844,549.2369910943746 246.0180002595784,551.2293910943745 C 246.9298102595784,553.2219910943745 247.81466025957837,556.0761910943745 248.55457025957838,559.4432910943744 C 249.2945002595784,562.8104910943744 249.91262025957838,566.7933910943746 250.4815002595784,568.8874910943744 C 251.05034025957843,570.9815910943744 251.58873025957843,571.3182910943744 255.84312025957843,571.5545910943742 C 260.0974902595784,571.7913910943741 268.1371002595784,571.9263910943741 272.3579902595784,571.8920910943743 C 276.5788602595784,571.8590910943744 277.1179902595784,571.6551910943742 275.5314102595784,569.0889910943743 C 273.9448002595784,566.5224910943743 270.23007025957844,561.5912910943744 267.56245025957844,557.5055910943743 C 264.89487025957845,553.4198910943742 263.27267025957843,550.1791910943743 262.12463025957845,547.1742910943742 C 260.97660025957845,544.1691910943741 260.30158025957843,541.3979910943742 259.45744025957845,538.9329910943743 C 258.61330025957847,536.4678910943744 257.6039302595784,534.3077910943744 256.8610002595785,531.2688910943743 C 256.11808025957845,528.2299910943743 255.6408702595785,524.3137910943744 255.16815025957845,519.6204910943743 C 254.69540025957843,514.9270910943742 254.22644025957845,509.45859109437424 254.39519025957844,504.29239109437435 C 254.56409025957845,499.1258910943743 255.37592025957844,494.2623910943744 255.51105025957844,488.5557910943744 C 255.64623025957843,482.84899109437447 255.10525025957844,476.30189109437447 254.70003025957845,471.0336910943745 C 254.29480025957844,465.7660910943746 254.02277025957846,461.7804910943744 254.42774025957846,457.4583910943745 C 254.83286025957847,453.13619109437445 255.91450025957846,448.4766910943745 256.38733025957845,443.1752910943744 C 256.86014025957843,437.87359109437443 256.72157025957847,431.9319910943743 256.65404025957844,427.3731910943743 C 256.58654025957844,422.81459109437424 256.5907402595784,419.7060910943744 256.5233302595784,417.81509109437434 C 256.4558302595784,415.9239910943743 256.3201602595784,415.3854910943744 259.7620502595784,411.6366910943743 C 263.2040802595784,407.8881910943744 270.29124025957844,400.8592910943744 277.07711025957843,393.2603910943744 C 283.86295025957844,385.66149109437447 290.6147602595784,377.18689109437446 294.8003702595784,363.56729109437447 C 298.98599025957844,349.94779109437445 300.6699202595784,331.1021910943746 301.7024402595784,317.6916910943744 C 302.7349502595784,304.28109109437446 303.1168102595784,296.30739109437445 303.4987102595784,291.77069109437434 C 303.88063025957837,287.23409109437443 304.2628102595784,286.13249109437425 304.8595502595784,285.3203910943744 C 305.45626025957836,284.50849109437445 306.2480102595784,284.00119109437446 307.8043602595784,282.7183910943743 C 309.3607002595784,281.43559109437433 311.6404502595784,279.40829109437436 312.3821202595784,276.4477910943742 C 313.1238102595784,273.48749109437426 312.3278202595784,269.5923910943743 312.0718702595784,266.0674910943742 C 311.8157502595784,262.5425910943743 312.09967025957843,259.3921910943741 312.5508702595784,257.00469109437427 C 313.0031602595784,254.61709109437425 313.6216702595784,252.99389109437425 313.8844802595784,251.5610910943742 C 314.1472902595784,250.12859109437431 314.0550502595784,248.8898910943742 314.22196025957845,247.88709109437423 C 314.38889025957843,246.88429109437425 314.81675025957844,246.1159910943743 315.2942902595785,245.3994910943743 C 315.77180025957847,244.68329109437423 316.2975102595785,244.01429109437436 317.5151302595785,243.48909109437432 C 318.7327502595785,242.9633910943744 320.64376025957847,242.5860910943743 322.6971402595785,242.08459109437422 C 324.7505002595785,241.58329109437432 326.94724025957845,240.95759109437427 329.43044025957846,239.90729109437416 C 331.9136402595785,238.8567910943741 334.68078025957846,237.3799910943742 337.11633025957843,235.11169109437424 C 339.5519002595784,232.8436910943742 341.65402025957843,229.78689109437414 342.84809025957844,225.8473910943742 C 344.04219025957843,221.9076910943743 344.3311002595784,217.0819910943742 344.4266502595784,213.3332910943741 C 344.52235025957845,209.584591094374 344.42687025957844,206.9138910943741 343.80612025957845,204.52599109437415 C 343.18536025957843,202.13819109437418 342.0402802595784,200.03539109437406 341.2042302595784,198.98479109437426 C 340.36817025957845,197.93399109437428 339.8396302595784,197.93489109437428 338.9561702595784,198.6036910943742 C 338.0726902595784,199.2725910943741 336.83348025957844,200.6103910943741 334.4219302595784,203.16509109437425 C 332.0103502595784,205.71999109437434 328.4257802595784,209.49129109437422 324.9397402595784,213.00109109437426 C 321.4537402595784,216.51099109437428 318.0646002595784,219.75839109437425 315.5337802595784,222.88619109437423 C 313.00297025957843,226.0139910943742 311.3320302595784,229.02249109437412 310.4007902595784,230.67009109437413 C 309.4695602595784,232.3174910943742 309.2758102595784,232.60479109437415 308.1908202595784,231.84569109437416 C 307.10584025957843,231.0864910943742 305.13306025957843,229.28449109437406 302.24678025957843,227.81769109437414 C 299.36047025957845,226.35129109437412 295.56907025957844,225.22589109437422 290.70704025957843,225.22129109437424 C 285.84500025957846,225.22129109437424 279.8309002595784,226.3460910943743 276.02111025957845,228.0244910943743 C 272.21131025957845,229.70309109437426 270.4128702595784,232.01289109437425 268.96120025957845,232.41729109437438 C 267.50953025957847,232.82199109437443 266.38204025957845,231.35499109437433 265.48294025957847,229.7119910943743 C 264.58385025957847,228.0693910943744 263.8951302595785,226.2101910943743 262.6850902595785,224.3447910943744 C 261.4750802595785,222.47959109437443 259.7090702595785,220.5186910943744 257.3452702595785,217.79659109437443 C 254.98145025957854,215.07459109437445 252.0233002595785,211.59399109437436 249.3491002595785,208.22739109437452 C 246.6748902595785,204.8606910943745 244.28461025957853,201.6105910943745 242.82806025957848,199.79579109437464 C 241.37151025957849,197.98109109437473 240.84729025957847,197.59769109437457 240.22618025957848,197.5259910943746 L 240.22628025957835,197.52619109437524 M 355.4003702595784,317.6417910943753 C 355.09299025957836,317.66979109437534 354.80775025957837,317.71779109437534 354.53488025957836,317.8117910943754 C 353.44343025957835,318.1852910943753 352.5795202595784,319.10329109437544 352.20519025957833,321.05619109437544 C 351.83084025957834,323.0088910943755 351.94962025957835,326.1118910943753 352.1508902595783,329.15579109437545 C 352.3518402595783,332.19969109437534 352.6406002595783,335.2416910943755 352.95649025957835,337.94109109437545 C 353.27237025957834,340.64029109437547 353.61697025957835,342.9924910943755 354.62211025957833,345.28949109437553 C 355.62729025957833,347.5867910943755 357.2877802595783,349.8285910943755 359.29790025957834,351.9248910943754 C 361.3080202595783,354.0209910943754 363.66474025957837,355.97609109437553 364.68129025957836,357.4389910943755 C 365.6978302595784,358.90179109437554 365.3770202595784,359.87279109437554 365.38892025957836,361.0585910943755 C 365.3999202595784,362.2446910943754 365.74649025957837,363.6409910943755 365.99310025957834,364.8198910943754 C 366.23976025957836,365.99909109437544 366.38724025957833,366.95829109437545 366.66265025957836,368.5866910943755 C 366.93800025957836,370.2148910943756 367.34193025957836,372.5137910943756 367.5716602595784,374.55249109437545 C 367.8013102595784,376.59149109437544 367.8577502595784,378.37319109437544 367.8002002595784,379.63639109437554 C 367.7427002595784,380.9000910943755 367.5711102595784,381.6441910943756 367.3647402595784,382.43429109437557 C 367.1582202595784,383.22429109437553 366.91879025957843,384.0590910943756 366.79865025957844,384.4757910943756 C 366.67847025957843,384.8920910943757 366.67630025957845,384.8909910943755 364.68664025957844,384.68759109437565 C 362.69706025957845,384.4840910943756 358.7165702595784,384.07849109437575 354.81801025957844,384.24099109437566 C 350.91943025957846,384.40269109437577 347.10367025957845,385.1348910943757 343.7736202595784,386.35299109437574 C 340.44355025957844,387.5714910943757 337.6011702595784,389.27769109437577 335.0426002595784,392.16099109437573 C 332.4840702595784,395.04439109437567 330.2073602595784,399.10299109437574 328.3256302595784,402.9820910943756 C 326.44387025957843,406.8615910943756 324.9573502595784,410.5623910943757 324.1452002595784,416.8570910943756 C 323.3330202595784,423.1519910943757 323.19900025957844,432.03999109437564 322.88781025957843,438.51589109437555 C 322.5766202595784,444.99179109437546 322.0888202595784,449.0555910943756 321.27658025957845,453.4413910943756 C 320.4643602595784,457.8272910943756 319.32650025957844,462.5331910943755 318.02697025957843,466.4726910943757 C 316.72741025957845,470.4116910943758 315.2649302595784,473.5817910943756 313.8029802595784,476.2213910943758 C 312.3410402595784,478.8608910943758 310.87727025957844,480.97029109437585 309.86207025957845,483.4880910943757 C 308.8468602595784,486.00609109437573 308.28137025957847,488.9295910943756 307.87527025957843,491.69119109437565 C 307.46919025957845,494.45249109437555 307.2236902595784,497.05529109437566 306.4926702595784,500.6288910943756 C 305.7616702595784,504.2026910943755 304.5431402595784,508.7503910943756 303.2865902595784,513.6548910943757 C 302.03003025957844,518.5589910943756 300.7280602595784,523.8570910943756 299.1442502595784,528.2425910943757 C 297.5604802595784,532.6283910943757 295.69175025957844,536.1177910943757 294.3923002595784,539.4885910943758 C 293.0928302595784,542.8590910943758 292.3610102595784,546.1103910943757 291.6706502595784,548.1812910943759 C 290.9802902595784,550.2522910943758 290.3328302595784,551.1463910943758 289.5205702595784,552.9332910943758 C 288.7083102595784,554.7203910943758 287.7322402595784,557.3971910943758 287.7733002595784,558.9807910943757 C 287.8143002595784,560.5645910943758 288.87115025957837,561.0514910943757 290.0485602595784,560.9293910943757 C 291.2259902595784,560.8067910943757 292.52412025957835,560.0773910943756 293.33630025957837,560.1183910943757 C 294.14847025957835,560.1603910943757 294.47234025957835,560.9716910943757 295.20333025957837,561.1743910943758 C 295.9343202595784,561.3777910943759 297.07271025957834,560.9708910943757 298.00662025957837,560.0367910943758 C 298.94052025957836,559.1027910943758 299.6727702595784,557.6404910943756 300.2819202595784,555.8944910943758 C 300.8910602595784,554.1484910943757 301.3752602595784,552.1194910943757 302.26871025957837,549.5204910943758 C 303.1621202595784,546.9213910943758 304.46486025957836,543.7548910943758 305.27337025957837,540.4246910943757 C 306.0819002595784,537.0945910943758 306.4107302595784,533.4371910943757 307.38539025957834,529.0917910943756 C 308.36001025957836,524.7463910943757 309.9866702595783,519.6344910943756 311.93595025957836,514.5583910943756 C 313.88523025957835,509.48199109437564 316.15729025957836,504.44379109437546 318.2283602595784,500.13909109437554 C 320.2994302595784,495.8345910943756 322.1698902595784,492.25999109437544 323.30694025957837,489.7425910943755 C 324.4439802595784,487.2247910943754 324.84862025957835,485.7668910943755 325.09231025957837,484.38629109437557 C 325.33590025957835,483.00559109437563 325.4177502595784,481.7013910943756 325.70196025957836,480.40169109437556 C 325.98618025957836,479.1021910943755 326.4701002595784,477.80629109437564 328.13512025957834,475.41039109437565 C 329.80012025957836,473.01409109437554 332.6455102595783,469.51909109437565 335.85366025957836,466.10779109437567 C 339.0618002595784,462.69659109437566 342.6324502595784,459.3671910943756 344.5411302595784,458.06799109437566 C 346.4497702595784,456.76869109437575 346.6966602595784,457.5030910943756 347.2246602595784,458.7211910943756 C 347.7526102595784,459.9396910943756 348.5642802595784,461.6433910943756 349.1733502595784,464.0392910943756 C 349.7823802595784,466.43529109437554 350.1857402595784,469.5184910943756 350.2728802595784,471.8341910943757 C 350.3600802595784,474.14949109437566 350.1087302595784,475.8539910943757 349.9462702595784,477.3971910943758 C 349.7837902595784,478.9402910943759 349.7007402595784,480.40319109437587 349.6196802595784,481.7026910943757 C 349.5385802595784,483.00239109437575 349.4569202595784,484.1388910943758 349.5380802595784,486.20979109437576 C 349.6194802595784,488.2807910943757 349.8621902595784,491.2887910943757 349.9027702595784,493.40039109437566 C 349.9431702595784,495.5120910943756 349.7795902595784,496.72699109437576 349.1298102595784,498.39189109437575 C 348.48001025957836,500.05679109437574 347.3467802595784,502.16989109437577 346.7783202595784,503.2254910943757 C 346.2098702595784,504.2811910943756 346.2063802595784,514.0277910943757 346.1251502595784,515.1244910943756 C 346.0437502595784,516.2210910943757 345.8829602595784,518.4157910943757 345.3957402595784,521.1774910943757 C 344.9083902595784,523.9386910943756 344.0954402595784,527.2685910943758 343.20211025957843,531.4104910943756 C 342.30875025957846,535.5528910943756 341.33451025957845,540.5057910943756 340.19740025957844,544.4855910943756 C 339.06030025957847,548.4649910943756 337.7640302595784,551.4688910943757 336.3980102595784,554.6424910943756 C 335.0319802595784,557.8162910943756 333.53840025957845,561.2982910943756 332.88166025957844,563.4117910943755 C 332.22493025957846,565.5247910943756 332.40116025957843,566.4929910943756 332.68573025957846,567.1022910943755 C 332.9702802595785,567.7111910943754 333.3760602595785,568.0393910943756 333.6600802595785,569.2576910943756 C 333.9440902595785,570.4760910943755 334.1075502595785,572.5877910943755 334.8793702595785,573.8463910943756 C 335.65119025957847,575.1048910943755 337.0336302595785,575.5089910943757 338.2923002595785,575.4683910943756 C 339.5509802595785,575.4263910943757 340.6836002595785,574.9427910943757 341.5364802595785,574.9023910943756 C 342.3893702595785,574.8633910943756 342.9595502595785,575.2676910943756 343.8934102595785,575.3487910943757 C 344.8272802595785,575.4297910943756 346.1296602595785,575.1843910943758 346.9416602595785,574.1294910943757 C 347.7536402595785,573.0738910943758 348.0771902595785,571.2045910943757 348.1990602595785,568.8492910943758 C 348.3208202595785,566.4943910943757 348.2416602595785,563.6500910943757 348.6072902595785,560.3199910943758 C 348.97276025957854,556.9896910943758 349.7831102595785,553.1769910943758 350.31104025957853,549.8470910943759 C 350.83897025957856,546.5172910943759 351.08161025957855,543.6725910943758 351.65008025957854,540.2613910943758 C 352.21857025957854,536.8503910943757 353.11034025957855,532.8722910943757 354.40981025957853,528.7707910943757 C 355.70931025957856,524.6691910943757 357.41620025957855,520.4458910943756 358.2691002595785,518.5372910943756 C 359.12196025957854,516.6288910943756 359.1224002595785,517.0318910943756 359.4067302595785,518.4932910943755 C 359.69106025957853,519.9552910943755 360.2605902595785,522.4724910943755 361.1540102595785,525.5587910943755 C 362.0474602595785,528.6449910943754 363.2623702595785,532.3003910943755 364.6431602595785,535.9550910943756 C 366.0239302595785,539.6102910943755 367.5714402595785,543.2672910943757 368.5459802595785,546.1503910943757 C 369.5205202595785,549.0337910943756 369.9231002595785,551.1429910943757 370.45112025957854,552.8892910943757 C 370.97913025957854,554.6355910943757 371.6322602595786,556.0151910943757 372.91147025957855,557.7011910943756 C 374.19070025957853,559.3870910943756 376.01519025957856,561.2980910943756 377.23345025957855,562.6382910943757 C 378.45168025957855,563.9782910943757 379.02194025957857,564.7097910943758 380.6463502595785,565.2781910943756 C 382.27078025957854,565.8463910943756 384.9507502595785,566.2503910943756 387.26536025957853,566.3722910943757 C 389.5800002595785,566.4949910943756 391.52792025957854,566.3332910943757 392.5834502595785,565.9257910943757 C 393.6389802595785,565.5199910943757 393.8044102595785,564.8688910943756 393.2965302595785,563.7976910943758 C 392.7886302595785,562.7260910943758 391.5268302595785,561.1316910943758 389.8618302595785,558.8170910943757 C 388.1967902595785,556.5022910943756 386.08804025957846,553.4190910943757 383.7327002595785,549.1553910943755 C 381.3773602595785,544.8912910943754 378.7764702595785,539.4513910943756 376.17744025957853,533.0756910943755 C 373.5784102595785,526.7000910943755 370.9814802595785,519.3867910943754 369.3570202595785,513.3766910943755 C 367.7325902595785,507.36639109437556 367.0837202595785,502.65529109437557 366.9130002595785,499.5670910943754 C 366.7421602595785,496.47879109437554 367.0802202595785,494.8609910943753 367.2831302595785,493.3181910943754 C 367.4863002595785,491.77529109437546 367.5679602595785,490.22859109437536 367.8927802595785,488.6042910943754 C 368.2175902595785,486.98009109437544 368.7894802595785,485.27749109437536 370.5763102595785,481.50089109437545 C 372.36316025957854,477.7239910943754 375.3646102595785,471.87449109437534 377.5981502595785,467.7728910943754 C 379.83166025957854,463.6713910943754 381.2925602595785,461.31919109437536 382.0235202595785,460.1413910943754 C 382.7544602595785,458.9638910943754 386.1687802595785,458.96199109437543 386.2093902595785,459.8147910943753 C 386.2501902595785,460.66789109437536 386.3295602595785,462.3709910943753 387.46677025957854,465.5792910943753 C 388.60399025957855,468.7873910943754 390.79771025957854,473.5020910943754 393.0243502595785,478.3600910943753 C 395.2509802595785,483.2179910943753 397.53902025957854,488.28019109437537 398.9901902595785,491.8973910943753 C 400.44135025957854,495.51479109437537 401.1094102595785,497.8641910943752 401.4342002595785,499.00109109437517 C 401.7590002595785,500.13789109437516 401.7590202595785,503.5475910943751 402.49021025957853,504.9285910943752 C 403.2213702595785,506.3097910943752 404.6844502595785,509.0757910943753 406.34947025957854,512.6091910943751 C 408.01448025957853,516.142191094375 409.88375025957856,520.4457910943752 411.71109025957855,525.2373910943752 C 413.5384402595786,530.0292910943751 415.32647025957857,535.3052910943752 416.5447002595786,539.4878910943753 C 417.7629502595786,543.6707910943753 418.4110102595786,546.7593910943754 418.77647025957856,549.1553910943753 C 419.14188025957856,551.5511910943753 419.22586025957855,553.2538910943754 419.73991025957855,555.2896910943753 C 420.25396025957855,557.3257910943753 421.25373025957856,559.8332910943752 421.86279025957856,561.5385910943753 C 422.4718202595786,563.2441910943753 422.71666025957853,564.2187910943753 423.08208025957856,564.5431910943753 C 423.44747025957855,564.8677910943752 423.93445025957857,564.5431910943753 424.58442025957856,564.6685910943752 C 425.2343802595786,564.7911910943751 426.0451902595786,565.3586910943752 426.99033025957857,566.5140910943751 C 427.9354802595786,567.669291094375 428.97108025957857,569.3356910943751 431.44837025957855,570.1880910943751 C 433.92567025957857,571.040691094375 437.82456025957856,571.0422910943751 440.26103025957855,570.9612910943752 C 442.69749025957856,570.8802910943753 443.66832025957854,570.7160910943751 444.1148502595786,570.2698910943752 C 444.56138025957864,569.8232910943752 444.4805602595786,569.0908910943751 443.6685202595786,567.9945910943752 C 442.85645025957865,566.8981910943753 441.31296025957863,565.4378910943751 439.5261902595786,563.2045910943752 C 437.7394002595786,560.9710910943752 435.7139502595786,557.9648910943752 432.7493202595786,551.6702910943752 C 429.7847002595786,545.3756910943753 425.8845602595786,535.7942910943752 423.16371025957864,527.9973910943752 C 420.4428702595786,520.2005910943751 418.90090025957863,514.1896910943751 418.21035025957866,509.80599109437526 C 417.51979025957866,505.42239109437537 417.68052025957866,502.6558910943752 417.3557602595787,499.9755910943752 C 417.0309902595787,497.29519109437524 416.21879025957867,494.7007910943753 415.3254102595787,492.58909109437514 C 414.4320502595787,490.47709109437506 413.45868025957867,488.8492910943751 411.9560402595787,485.2350910943751 C 410.45339025957867,481.6209910943751 408.42032025957866,476.01649109437517 407.3238102595787,470.77789109437504 C 406.2273102595787,465.5391910943749 406.0689102595787,460.66649109437503 406.0283302595787,456.48379109437496 C 405.9875302595787,452.3010910943749 406.0639302595787,448.80939109437486 407.1605302595787,445.804191094375 C 408.2570002595787,442.798791094375 410.3685002595787,440.280791094375 411.7491802595787,437.5194910943751 C 413.12988025957867,434.7581910943752 413.7798402595787,431.7540910943751 413.86117025957867,429.033491094375 C 413.94257025957864,426.31259109437497 413.45729025957866,423.8781910943751 412.63101025957866,420.0140910943751 C 411.80471025957866,416.14969109437516 410.63993025957865,410.85389109437506 409.82772025957865,406.4276910943752 C 409.01550025957863,402.00109109437517 408.5558702595787,398.4438910943752 408.48868025957864,395.8510910943751 C 408.42158025957866,393.25849109437513 408.74564025957864,391.63199109437505 409.06566025957864,390.119491094375 C 409.38574025957865,388.606791094375 409.70256025957866,387.20719109437505 409.84949025957866,385.966391094375 C 409.99636025957864,384.725391094375 409.97462025957867,383.64379109437505 409.8661902595787,382.591391094375 C 409.7574802595787,381.5392910943749 409.5611602595787,380.5192910943749 409.5559102595787,379.129491094375 C 409.5499102595787,377.73979109437505 409.7387402595787,376.0066910943749 410.3452102595787,374.23609109437507 C 410.95163025957874,372.465491094375 411.9751902595787,370.665791094375 412.6694702595787,368.3736910943751 C 413.3637602595787,366.08179109437515 413.7287302595787,363.294291094375 414.3405602595787,361.8143910943752 C 414.9523802595787,360.3347910943753 415.8127402595787,360.16389109437523 417.01866025957867,359.5607910943752 C 418.22454025957865,358.9580910943753 419.77204025957866,357.9248910943752 421.6672002595787,356.00109109437517 C 423.5623302595787,354.07729109437514 425.8058002595787,351.2649910943751 427.5785802595787,347.55859109437506 C 429.3513702595787,343.85219109437503 430.6853702595787,339.14649109437505 431.2310302595787,334.810591094375 C 431.7766502595787,330.474591094375 431.5446602595787,326.45209109437496 431.0568402595787,324.2124910943751 C 430.5689902595787,321.972691094375 429.82389025957866,321.5136910943752 428.73255025957866,321.5997910943752 C 427.64121025957866,321.68679109437517 426.20801025957866,322.32059109437523 423.99690025957864,323.84209109437506 C 421.7857902595786,325.364191094375 418.7958102595786,327.77239109437505 416.24025025957866,330.0692910943751 C 413.6847002595787,332.36659109437505 411.56185025957865,334.54909109437517 409.83896025957864,336.53059109437504 C 408.11609025957864,338.511791094375 406.7948202595786,340.294291094375 405.6748602595786,342.017191094375 C 404.55490025957863,343.7404910943751 403.6382502595786,345.407591094375 402.9205702595786,346.1542910943749 C 402.2029002595786,346.90089109437486 401.68598025957857,346.7249910943749 400.6235202595786,346.324191094375 C 399.56107025957857,345.9223910943749 397.9500202595786,345.2910910943749 395.3653402595786,344.8055910943749 C 392.7806402595786,344.3200910943749 389.1067402595786,343.9722910943749 386.1226702595786,344.15239109437493 C 383.13856025957864,344.3335910943749 380.8923302595786,345.0021910943749 379.6288402595786,345.08849109437483 C 378.3653402595786,345.1754910943748 378.1374002595786,344.65989109437487 376.98884025957864,342.64999109437485 C 375.84031025957864,340.63999109437486 373.7709502595786,337.13699109437493 371.77420025957866,333.9405910943749 C 369.7774602595787,330.744591094375 367.79778025957864,327.775391094375 365.55798025957864,325.13369109437485 C 363.3182302595786,322.4915910943748 360.79213025957864,320.1374910943748 358.86821025957863,318.87379109437484 C 357.4252902595786,317.9260910943749 356.32297025957865,317.59379109437486 355.40085025957865,317.64369109437484 L 355.4003702595784,317.6417910943753 M 349.7393702595784,0.017121094375283974 C 349.64907025957837,-0.010978905624710933 349.5470702595784,-0.010978905624710933 349.4345602595784,0.0671210943752385 C 348.9842702595784,0.29564109437524166 348.3528102595784,1.2248610943752283 347.4804102595784,2.7345910943752187 C 346.60798025957837,4.244811094375223 345.4996602595784,6.3246910943752255 344.2471302595784,8.738511094375212 C 342.9946102595784,11.15195109437525 341.5974302595784,13.901541094375261 340.3932902595784,16.130261094375214 C 339.1891902595784,18.35936109437523 338.1785302595784,20.06906109437523 336.9150402595784,22.50996109437517 C 335.6515002595784,24.949891094375175 334.1345502595784,28.116981094375205 333.1591802595784,31.475021094375165 C 332.18380025957845,34.833061094375125 331.7500702595784,38.37719109437512 331.7765902595784,41.87149109437519 C 331.80439025957844,45.365691094375165 332.29369025957845,48.805991094375145 333.1537402595784,51.71309109437516 C 334.0137602595784,54.62039109437512 335.2398602595784,56.99129109437513 335.9352602595784,58.26669109437512 C 336.6306902595784,59.54209109437511 336.7954002595784,59.71939109437517 337.0075702595784,60.56899109437518 C 337.2196602595784,61.419391094375214 337.48383025957844,62.94049109437515 338.30851025957844,66.16469109437526 C 339.1332902595784,69.38889109437537 336.28318025957844,77.9284910943752 339.02159025957843,83.79549109437517 C 341.7599602595784,89.66229109437518 350.08442025957845,92.84929109437508 355.0193402595784,99.3197910943752 C 359.95422025957845,105.79019109437513 365.7307602595784,111.92089109437529 372.4595502595784,117.61989109437513 C 379.1883202595784,123.31959109437503 386.86320025957843,128.5882910943751 394.5755602595784,132.7522910943751 C 402.2879202595784,136.91589109437518 410.0339802595784,139.975491094375 415.6845602595784,143.012691094375 C 421.3351302595784,146.05049109437505 424.8924002595784,149.0664910943749 427.9264702595784,151.80389109437488 C 430.57128025957843,154.1900910943748 432.71665025957844,156.27499109437485 434.4039602595784,157.9490910943748 C 433.9252902595784,157.86209109437482 433.37644025957843,157.6981910943748 432.6566502595784,157.36139109437477 C 430.72866025957836,156.4549910943747 427.7859502595784,154.5514910943748 425.1830502595784,152.91949109437473 C 422.5802102595784,151.28779109437482 420.3183902595784,149.93079109437463 417.4645002595784,148.8262910943747 C 414.6105802595784,147.72229109437467 411.16417025957844,146.87679109437477 407.9115802595784,146.2569910943746 C 405.4719902595784,145.79239109437458 403.14198025957836,145.45239109437466 401.2381302595784,145.38079109437467 C 400.6035202595784,145.35279109437465 400.01898025957837,145.35279109437465 399.4908302595784,145.4087910943747 C 397.3780102595784,145.5676910943746 396.21220025957837,146.2905910943748 395.7513202595784,147.4716910943746 C 395.2904402595784,148.65249109437468 395.5406202595784,150.35539109437468 396.44259025957837,152.9856910943745 C 397.34463025957837,155.6160910943745 398.90072025957835,159.20609109437441 400.65025025957834,162.2718910943745 C 402.3998102595783,165.3379910943745 404.34399025957833,167.88299109437457 406.16973025957833,169.80549109437447 C 407.99535025957834,171.72799109437437 409.7018402595783,173.02919109437448 412.5383402595783,174.26349109437456 C 415.3748402595783,175.49819109437453 419.34095025957834,176.66359109437462 422.50497025957833,176.94699109437465 C 425.66887025957834,177.23109109437473 428.0248802595783,176.62989109437467 429.1675302595783,176.66399109437475 C 430.3103202595783,176.70099109437479 430.2332302595783,177.42439109437464 430.7896202595783,178.56349109437474 C 431.34595025957833,179.7030910943747 432.78894025957834,180.95199109437476 433.24454025957834,182.40119109437478 C 433.44575025957835,183.04069109437478 433.45997025957837,183.81439109437474 433.3261402595783,184.41529109437488 C 432.7778302595783,186.8744910943749 432.4198902595783,190.02289109437493 431.9598602595783,193.7557910943749 C 431.4999402595783,197.4885910943749 430.9355202595783,201.80529109437498 431.4591102595783,205.80179109437495 C 431.9826402595783,209.79879109437502 433.5958202595783,213.472791094375 434.82305025957834,217.51559109437494 C 436.05028025957836,221.5582910943749 436.89341025957833,225.96449109437503 437.20174025957834,230.60119109437483 C 437.51003025957834,235.23789109437485 437.28204025957837,240.10559109437486 438.9381502595783,248.4822910943749 C 440.59477025957835,256.85929109437484 444.1361202595783,268.7475910943749 448.80680025957827,280.5650910943748 C 453.4774802595782,292.3825910943749 459.2787802595783,304.13409109437475 467.20504025957825,315.6687910943747 C 474.8252402595782,326.7579910943746 484.36876025957827,337.6012910943746 492.2658402595782,346.6624910943747 C 496.83873025957826,353.3475910943746 503.4368802595782,359.9254910943746 508.12751025957823,365.0716910943747 C 513.0205702595782,370.4395910943747 521.7181902595783,378.6157910943748 518.8507602595782,384.6129910943748 C 516.1001002595782,390.36599109437475 512.2063502595782,395.66939109437476 508.8351502595782,400.5671910943747 C 505.4638802595782,405.46429109437463 502.5392202595782,409.4627910943748 499.5979302595782,412.90719109437464 C 496.65655025957824,416.3515910943747 493.7001902595782,419.2357910943747 490.2899302595782,422.7484910943747 C 486.8797302595782,426.26139109437463 483.0173502595783,430.4050910943747 480.3886402595782,434.33189109437467 C 477.75998025957824,438.2586910943746 476.37980025957825,441.94109109437477 476.2572002595782,445.2619910943747 C 476.13485025957823,448.5829910943746 477.29604025957826,451.4802910943747 478.7828702595782,455.3426910943747 C 480.2696302595782,459.20509109437467 482.0701502595782,464.0132910943746 483.39330025957815,470.2139910943747 C 484.7164602595782,476.4146910943748 485.5514102595781,484.0042910943746 485.98431025957814,490.6642910943747 C 486.41695025957813,497.3245910943747 486.45350025957816,503.09779109437477 486.2782402595782,508.0771910943747 C 486.10322025957817,513.0554910943747 485.7119902595782,517.1615910943747 485.75569025957816,520.4116910943746 C 485.79969025957814,523.6615910943747 486.27987025957816,526.0713910943746 486.6157202595782,528.4840910943747 C 486.9515502595782,530.8961910943747 487.14538025957825,533.3127910943747 487.62273025957825,535.8814910943747 C 488.10013025957824,538.4493910943747 488.86304025957827,541.1730910943747 489.65308025957825,542.9957910943747 C 490.4431802595783,544.8189910943747 491.28952025957824,545.7724910943746 492.65232025957823,546.5011910943747 C 494.01497025957826,547.2296910943746 495.9524902595782,547.7998910943747 498.4004002595782,548.8471910943747 C 500.84836025957816,549.8937910943746 503.8048902595782,551.4200910943746 505.74336025957814,552.3963910943746 C 507.6818202595781,553.3726910943747 508.6005402595781,553.7982910943747 509.23251025957813,553.8225910943747 C 509.8643702595781,553.8505910943747 510.22044025957814,553.4610910943748 510.41914025957817,550.0664910943747 C 510.6181202595782,546.6722910943747 510.6791602595782,540.2466910943747 510.7076202595782,536.3766910943746 C 510.73692025957826,532.5072910943745 510.7299202595782,531.1603910943745 510.2558202595782,530.1386910943745 C 509.7804502595782,529.1172910943744 508.83130025957814,528.3581910943744 507.9206602595782,528.0593910943744 C 507.00989025957824,527.7600910943745 506.13704025957816,527.9228910943743 505.14460025957817,527.8084910943744 C 504.15204025957814,527.6938910943743 503.0044502595782,527.3002910943744 502.2161302595782,527.0083910943745 C 501.4277002595783,526.7162910943746 500.93712025957825,526.5081910943745 501.05127025957825,525.4623910943744 C 501.16559025957827,524.4170910943744 501.8887502595783,522.5324910943743 502.1399402595782,520.7867910943744 C 502.3910402595782,519.0409910943745 502.16924025957826,517.4332910943745 501.76434025957826,515.8334910943745 C 501.3595602595783,514.2332910943744 500.77358025957824,512.6418910943744 500.7246602595783,509.58999109437445 C 500.67626025957827,506.53799109437455 501.15962025957833,502.02749109437445 501.10027025957834,495.53559109437447 C 501.04037025957837,489.0439910943744 500.4348202595784,480.57419109437456 499.67412025957833,474.1761910943744 C 498.91353025957835,467.77839109437446 498.0013102595783,463.4624910943744 497.4532602595783,460.1323910943745 C 496.9050902595783,456.8022910943746 496.7225402595783,454.42969109437445 497.05592025957833,452.1580910943744 C 497.3894702595783,449.8864910943744 498.2316502595784,447.6557910943743 499.1080202595783,446.05599109437435 C 499.9844302595783,444.4565910943743 500.8939102595783,443.48849109437424 502.62436025957834,442.45279109437433 C 504.35482025957833,441.41689109437425 506.9079202595783,440.31189109437423 509.4720002595783,438.92559109437434 C 512.0360702595783,437.53909109437427 514.6075902595783,435.8732910943743 517.9689402595783,433.6779910943744 C 521.3301502595783,431.48359109437433 525.4802302595783,428.76159109437435 530.9620202595783,425.79109109437445 C 536.4437302595783,422.82059109437455 543.2626802595782,419.6009910943744 549.5072402595782,416.8420910943744 C 554.6388302595782,414.5753910943745 559.3615702595782,412.6150910943743 562.9248902595782,410.48449109437433 C 563.4730502595783,415.0718910943742 564.1802102595782,420.97319109437444 564.6177402595782,424.54999109437426 C 565.8274202595783,434.43949109437426 566.5425502595782,439.62659109437436 567.2795002595782,445.5933910943743 C 568.0163302595782,451.5602910943742 568.7807402595782,458.30779109437435 568.9233802595782,463.3710910943744 C 569.0660702595782,468.4344910943744 568.5860502595782,471.81509109437434 568.7057202595781,475.7818910943745 C 568.8250402595781,479.7486910943744 569.5376602595782,484.31289109437444 569.4187902595781,489.9942910943744 C 569.2998302595781,495.67599109437447 568.3475402595782,502.4719910943743 567.0400702595781,509.24709109437435 C 565.7325702595781,516.0218910943743 564.0730602595781,522.7808910943743 562.2663302595781,528.2006910943744 C 560.4596802595781,533.6209910943744 558.5075302595782,537.7041910943744 557.2476402595781,541.0085910943744 C 555.9877202595782,544.3125910943745 555.4195602595781,546.8353910943745 554.3735902595781,549.3312910943744 C 553.3276802595781,551.8273910943744 551.8014902595781,554.2993910943744 550.9933302595781,556.1298910943744 C 550.1850802595781,557.9605910943744 550.0894602595781,559.1528910943744 549.1861502595781,561.2683910943745 C 548.2827602595781,563.3833910943745 546.5506502595781,566.4592910943745 545.6099402595781,568.3664910943744 C 544.6692302595782,570.2741910943744 544.4690702595782,571.1289910943744 544.6410502595782,571.7955910943745 C 544.8130102595782,572.4627910943746 545.3364802595781,573.0340910943744 546.9054502595782,573.4612910943745 C 548.4743902595782,573.8891910943744 551.0916802595782,574.1745910943744 554.3246002595781,574.1745910943744 C 557.5575502595781,574.1745910943744 561.4055802595781,573.8902910943743 563.6162702595781,573.5811910943744 C 565.8268602595781,573.2720910943744 566.400100259578,572.9334910943744 566.827790259578,572.4106910943744 C 567.255480259578,571.8878910943745 567.5416102595781,571.1754910943744 567.660620259578,570.2008910943744 C 567.779580259578,569.2262910943743 567.7255202595779,567.8999910943744 568.036210259578,566.7823910943744 C 568.346950259578,565.6647910943743 569.017190259578,564.5695910943743 569.326270259578,563.0484910943744 C 569.6352802595779,561.5269910943744 569.585730259578,559.5738910943744 569.609300259578,557.7194910943745 C 569.634400259578,555.8655910943744 569.7275302595781,554.1118910943744 570.131860259578,552.7333910943744 C 570.535970259578,551.3540910943743 571.2503202595781,550.3544910943745 571.868280259578,549.4510910943743 C 572.486360259578,548.5476910943744 572.983420259578,547.7719910943742 573.327050259578,546.2342910943744 C 573.6707302595779,544.6962910943744 573.818670259578,542.4625910943744 574.056450259578,540.5131910943744 C 574.294170259578,538.5636910943745 574.623010259578,536.8972910943744 575.776520259578,532.4953910943743 C 576.929970259578,528.0938910943744 578.905970259578,520.9553910943744 580.533940259578,514.5216910943743 C 582.162020259578,508.08809109437425 583.4436802595781,502.3677910943743 585.095410259578,495.3341910943743 C 586.747210259578,488.3003910943744 588.770610259578,479.9595910943742 590.190280259578,472.6249910943743 C 591.609900259578,465.29059109437435 592.422220259578,459.00609109437437 594.305420259578,450.4813910943742 C 596.188580259578,441.95669109437426 599.084850259578,431.43989109437416 601.757260259578,424.03829109437424 C 604.4297802595779,416.6363910943742 606.8559802595779,412.4316910943742 608.185750259578,410.2122910943742 C 609.515520259578,407.9926910943743 609.745360259578,407.7576910943742 614.418270259578,406.81579109437416 C 619.0912002595779,405.87379109437416 628.186310259578,404.2294910943742 638.608150259578,402.1235910943742 C 649.030070259578,400.01749109437424 662.813780259578,398.6667910943743 674.756910259578,396.09799109437427 C 684.603490259578,393.9796910943742 694.331880259578,391.29459109437425 703.9709202595781,388.37399109437433 C 709.050640259578,386.83499109437435 713.908380259578,384.59799109437427 719.0324202595781,383.21359109437435 C 722.8491802595781,382.1821910943743 725.1971002595781,380.8125910943743 730.664690259578,380.8839910943743 C 731.3861202595781,380.8839910943743 732.415730259578,380.9319910943743 733.201260259578,380.93699109437443 C 735.180590259578,388.7487910943744 736.115530259578,397.7628910943745 738.622790259578,406.4657910943745 C 741.482670259578,416.39259109437444 746.476230259578,425.80019109437444 752.960370259578,433.4425910943744 C 759.444510259578,441.0855910943744 767.405560259578,446.9494910943745 772.447190259578,452.05329109437434 C 777.4889402595779,457.1562910943744 779.6054302595779,461.49129109437445 780.361760259578,466.0805910943743 C 781.117960259578,470.66929109437433 780.513290259578,475.5099910943743 778.832140259578,483.2105910943744 C 777.150980259578,490.9111910943743 774.397860259578,501.46679109437446 771.0864302595779,511.7712910943744 C 767.775000259578,522.0752910943745 763.9046502595779,532.1240910943743 761.1143102595779,538.5956910943744 C 758.3238602595779,545.0675910943744 756.6155002595779,547.9595910943744 755.1866602595779,550.5818910943744 C 753.7578102595779,553.2043910943744 752.613250259578,555.5590910943745 751.8064102595779,557.7776910943744 C 750.9996902595778,559.9964910943745 750.5238602595779,562.0801910943744 749.6834602595779,563.5422910943744 C 748.843070259578,565.0046910943743 747.6369002595779,565.8434910943745 746.5971402595779,567.7170910943744 C 745.5573802595779,569.5907910943745 744.685880259578,572.4967910943744 743.744950259578,575.4846910943743 C 742.804020259578,578.4720910943743 741.7930602595779,581.5426910943743 742.460320259578,583.1760910943742 C 743.127590259578,584.8103910943742 745.473200259578,585.0067910943742 750.244090259578,584.9069910943742 C 755.015110259578,584.8069910943743 762.212760259578,584.4098910943742 766.552230259578,583.7094910943742 C 770.891580259578,583.0099910943743 772.376180259578,582.0074910943742 772.8609202595779,581.0749910943744 C 773.3456602595779,580.1419910943744 772.8292202595779,579.2771910943743 772.1260602595779,577.9669910943744 C 771.4235402595779,576.6565910943743 770.5331202595779,574.9046910943744 769.7146902595779,573.4707910943744 C 768.8963802595779,572.0371910943743 768.1487102595779,570.9190910943744 767.6407902595779,570.1287910943743 C 767.1331102595778,569.3377910943743 766.865060259578,568.8714910943743 767.352360259578,567.7279910943744 C 767.8395402595779,566.5847910943744 769.085250259578,564.7685910943744 770.161120259578,562.6005910943743 C 771.2368702595779,560.4319910943743 772.1442402595779,557.9104910943743 773.0351502595779,555.3555910943744 C 773.9260502595779,552.8002910943744 774.7991502595779,550.2125910943744 776.8835402595779,544.4471910943744 C 778.9678102595778,538.6815910943744 782.2635002595779,529.7373910943743 786.0118402595779,520.0886910943743 C 789.7604302595779,510.4402910943743 793.9639902595778,500.0878910943743 797.7965202595778,491.21219109437425 C 801.6291702595778,482.33659109437417 805.0866402595778,474.94089109437414 807.3222102595779,469.0742910943743 C 809.5578902595779,463.2077910943742 810.569220259578,458.8673910943744 810.8875402595779,455.3410910943744 C 811.2063402595779,451.81469109437444 810.8387402595779,449.08909109437445 809.308990259578,445.7608910943743 C 807.779490259578,442.43279109437435 805.091770259578,438.49809109437433 803.141830259578,435.1027910943742 C 801.191890259578,431.7068910943742 799.979980259578,428.84659109437416 798.618490259578,425.0981910943742 C 797.256870259578,421.3494910943741 795.744700259578,416.7142910943742 794.971530259578,414.2769910943741 C 794.197880259578,411.8392910943742 794.1622502595781,411.6026910943742 794.797310259578,412.4260910943742 C 795.431990259578,413.2491910943743 796.737480259578,415.1317910943742 799.102860259578,417.6135910943742 C 801.4686102595781,420.0946910943742 804.893750259578,423.1788910943742 808.9552902595781,426.1597910943742 C 813.0167102595781,429.14009109437416 817.7148802595781,432.0158910943742 823.4180502595781,434.6947910943743 C 829.1214502595781,437.3732910943743 835.826430259578,439.8556910943744 839.9383602595781,444.18769109437426 C 844.0502902595781,448.5202910943742 845.5678902595781,454.7050910943742 846.9927902595781,464.2571910943743 C 848.4179902595781,473.8093910943744 849.7522902595781,486.72659109437427 850.3022902595781,497.3573910943744 C 850.852190259578,507.98849109437447 850.6181902595781,516.3321910943744 850.1554902595781,521.9065910943743 C 849.6916902595781,527.4810910943743 849.0019902595781,530.2816910943743 848.609490259578,532.8966910943743 C 848.217390259578,535.5116910943743 848.1201902595781,537.9399910943744 847.727790259578,539.7824910943743 C 847.335490259578,541.6242910943743 846.647290259578,542.8817910943744 846.160090259578,544.3438910943744 C 845.6726902595781,545.8060910943743 845.3828902595781,547.4957910943745 845.5394902595781,548.9107910943744 C 845.6959902595781,550.3256910943744 846.2907902595781,551.5107910943743 846.5519902595781,552.6993910943745 C 846.8133902595781,553.8876910943745 846.7387902595781,555.0808910943745 847.2268902595781,557.2442910943746 C 847.7143902595781,559.4075910943745 848.7625902595781,562.5467910943746 849.4641902595781,564.3532910943745 C 850.1653902595781,566.1595910943745 850.5323902595782,566.6454910943746 851.0971902595782,566.8518910943744 C 851.6621902595782,567.0580910943745 852.4711902595782,567.0106910943744 854.6460902595782,565.8826910943744 C 856.8211902595782,564.7539910943744 860.3898902595781,562.5528910943744 863.4532902595781,560.5864910943744 C 866.5166902595781,558.6199910943744 869.0424902595781,556.9117910943744 870.2192902595781,555.7474910943745 C 871.3958902595781,554.5827910943744 871.2263902595781,553.9595910943744 870.9650902595781,553.3414910943745 C 870.7036902595781,552.7235910943746 870.3483902595781,552.1105910943745 869.7185902595781,551.0770910943745 C 869.0884902595782,550.0425910943745 868.1836902595782,548.5888910943745 867.2091902595781,547.1741910943745 C 866.2344902595781,545.7598910943746 865.1918902595781,544.3835910943744 864.5855902595781,543.5871910943745 C 863.9794902595781,542.7906910943746 863.8078902595781,542.5762910943745 864.1282902595781,540.8165910943744 C 864.4489902595781,539.0571910943745 865.259790259578,535.7546910943745 865.7938902595781,533.3375910943744 C 866.3277902595781,530.9198910943744 866.5886902595781,529.3859910943743 866.5505902595781,526.6368910943743 C 866.5115902595782,523.8883910943744 866.1747902595781,519.9230910943743 865.8048902595781,510.0728910943742 C 865.435090259578,500.2226910943741 865.031090259578,484.4889910943741 865.064590259578,471.57819109437423 C 865.097590259578,458.66779109437425 865.5670902595781,448.5824910943743 865.499990259578,440.68229109437425 C 865.432990259578,432.78149109437436 864.829190259578,427.0682910943742 863.148490259578,423.26919109437426 C 861.467890259578,419.4704910943742 858.714590259578,417.58619109437427 854.814890259578,415.09889109437427 C 850.9151902595779,412.61069109437426 845.8204902595779,409.4900910943743 840.8691602595779,405.2355910943743 C 835.9179302595779,400.98079109437435 831.041380259578,395.5692910943742 827.8979502595779,391.38249109437425 C 824.7545302595779,387.19499109437425 823.4131702595779,384.30139109437414 822.6397602595779,380.4686910943742 C 821.8662202595779,376.6366910943741 821.6625902595779,371.8653910943742 821.7633702595779,365.67949109437427 C 821.8634202595779,359.4932910943742 822.2694602595778,351.89839109437435 824.7570902595779,341.7453910943743 C 825.911170259578,337.03519109437434 827.5006902595779,331.7251910943744 828.850470259578,326.35719109437423 C 829.4439202595779,327.6501910943741 829.963560259578,328.96439109437415 830.374600259578,330.26569109437423 C 831.578090259578,334.0751910943743 831.8986102595779,337.7466910943742 832.6008902595779,341.3753910943742 C 833.3031702595779,345.00429109437414 834.3900202595779,348.58269109437424 836.5963002595779,348.2010910943743 C 838.8027002595779,347.81899109437427 842.1590902595779,343.43509109437423 844.156890259578,339.62799109437424 C 846.1552902595779,335.8206910943743 846.871090259578,332.49609109437415 846.617390259578,328.79059109437435 C 846.363690259578,325.0850910943743 845.139090259578,320.9945910943743 843.5690902595779,316.66279109437437 C 841.9990802595779,312.33079109437426 840.082450259578,307.7604910943744 838.0931002595779,303.8873910943744 C 836.103750259578,300.0141910943744 834.0490102595779,296.8595910943743 832.1490902595779,294.0570910943743 C 830.2493002595778,291.2541910943744 828.5147102595779,288.8142910943743 825.6009002595779,285.14069109437423 C 823.2724902595779,282.20529109437416 820.1834802595779,278.4943910943741 816.4724702595779,275.08179109437424 C 813.1033302595779,271.32219109437415 809.1431802595779,268.1712910943743 802.6030402595779,264.95729109437434 C 792.8878702595779,260.18329109437445 777.6885502595779,255.16259109437442 761.217900259578,252.06779109437434 C 744.7470002595779,248.97309109437424 727.275000259578,247.8613910943743 711.1289302595779,248.71999109437434 C 694.9828602595779,249.5783910943744 680.244510259578,252.41159109437444 664.877470259578,253.30869109437435 C 649.510350259578,254.20579109437426 633.521720259578,253.15829109437436 622.871790259578,251.4579910943744 C 612.221900259578,249.7591910943745 596.961540259578,245.8479910943745 583.8108902595781,244.39809109437442 C 570.6640902595781,242.9488910943744 561.245960259578,242.9234910943744 545.5828502595781,236.86989109437445 C 540.2219502595781,234.7980910943745 537.9245802595781,231.16829109437435 534.146540259578,227.79049109437437 C 530.3685102595781,224.4130910943743 525.767140259578,220.06129109437438 521.3385302595781,214.60709109437448 C 516.909820259578,209.15339109437446 512.6593502595781,202.59239109437453 509.15649025957805,196.56249109437454 C 505.653670259578,190.53319109437462 502.9528102595781,187.15179109437463 502.1727702595781,181.74589109437443 C 502.0194902595781,180.68249109437443 502.30905025957816,179.2917910943745 502.6681302595781,178.55619109437453 C 503.2244602595781,177.41699109437445 503.1421002595781,176.69589109437447 504.28477025957807,176.66199109437457 C 505.42739025957803,176.62499109437454 507.783350259578,177.22909109437455 510.94733025957805,176.94509109437467 C 514.111300259578,176.66139109437472 518.077440259578,175.49059109437462 520.913940259578,174.25599109437462 C 523.750500259578,173.02169109437455 525.462350259578,171.72069109437462 527.288000259578,169.79799109437454 C 529.113740259578,167.8755910943746 531.052570259578,165.33569109437462 532.802050259578,162.27019109437447 C 534.551590259578,159.2039910943745 536.107690259578,155.61409109437454 537.009680259578,152.98369109437454 C 537.911810259578,150.35349109437448 538.167260259578,148.65059109437448 537.706410259578,147.4697910943746 C 537.245540259578,146.2891910943747 536.079780259578,145.56849109437462 533.966910259578,145.4068910943747 C 531.8541202595779,145.2479910943748 528.793350259578,145.63819109437463 525.5407302595779,146.26129109437466 C 522.2879902595779,146.8810910943746 518.8417202595779,147.72699109437463 515.9877702595779,148.83069109437474 C 513.1339102595779,149.93489109437473 510.872070259578,151.29179109437473 508.26923025957797,152.9237910943748 C 505.66635025957794,154.55529109437475 502.7237702595779,156.45939109437472 500.79562025957796,157.36569109437482 C 500.0728802595779,157.70479109437474 499.522060259578,157.8662910943749 499.042910259578,157.95339109437487 C 500.730630259578,156.2787910943748 502.87943025957793,154.1954910943748 505.525830259578,151.80789109437478 C 508.55991025957803,149.07059109437478 512.117140259578,146.05489109437485 517.767740259578,143.01729109437474 C 523.418320259578,139.98009109437476 531.164320259578,136.92029109437476 538.876740259578,132.7565910943747 C 546.589100259578,128.5926910943747 554.263900259578,123.32379109437466 560.992720259578,117.62419109437474 C 567.7214502595781,111.9246910943748 573.4979702595781,105.79449109437473 578.4329602595781,99.32409109437481 C 583.3677402595781,92.8535910943749 591.4854602595781,89.46549109437478 594.2238702595781,83.59839109437485 C 596.9622802595782,77.73189109437476 594.3191702595781,69.39289109437482 595.1437902595782,66.16899109437486 C 595.9685102595781,62.944291094374876 596.2324602595781,61.42369109437482 596.4447402595781,60.573391094374756 C 596.6571002595781,59.72369109437477 596.8162302595781,59.54609109437479 597.5116102595781,58.27079109437477 C 598.2069802595781,56.995491094374756 599.4385402595781,54.6243910943748 600.2985602595782,51.71729109437479 C 601.1586502595782,48.810591094374786 601.6492102595781,45.37009109437474 601.6757102595782,41.87579109437479 C 601.7008102595781,38.38139109437475 601.2683902595782,34.83759109437483 600.2930902595782,31.47930109437482 C 599.3177802595782,28.121631094374834 597.8007802595782,24.954781094374766 596.5372602595783,22.5142510943748 C 595.2737402595783,20.073961094374795 594.2577002595783,18.36364109437477 593.0535802595782,16.134671094374767 C 591.8493502595782,13.905941094374725 590.4577702595782,11.156601094374764 589.2051802595782,8.742791094374752 C 587.9526102595783,6.32934109437474 586.8442802595782,4.249091094374762 585.9718702595783,2.7388710943747583 C 585.0994902595783,1.2289010943748053 584.4680302595783,0.2989510943747291 584.0177402595783,0.07153109437479088 C 583.9051302595783,0.012931094374835084 583.8034202595783,-0.004068905625217667 583.7129302595783,0.021531094374836357 C 583.4412002595783,0.09963109437478579 583.2614502595784,0.521161094374861 583.1631502595783,1.1265610943748925 C 583.0316102595783,1.9341410943749224 583.0405302595783,3.0667410943749474 583.5169602595782,5.072801094374881 C 583.9933302595782,7.079111094374866 584.9377102595782,9.953391094374865 585.8249202595782,12.519341094374909 C 586.7120802595782,15.08579109437494 587.5398702595783,17.346611094374907 588.3070302595783,19.546541094374902 C 589.0743602595783,21.746841094374872 589.7797602595782,23.883941094374904 590.6258902595782,26.563001094374954 C 591.4720302595782,29.24243109437498 592.4562502595783,32.45321109437498 593.0644702595782,35.38089109437499 C 593.6728102595782,38.308391094375 593.9052902595782,40.951491094375 593.8428402595782,43.001591094375044 C 593.7812402595782,45.05139109437505 593.4210502595782,46.51109109437505 593.0753402595782,47.72629109437503 C 592.7295802595781,48.94119109437497 591.9535902595782,50.461691094375055 591.6709902595782,49.42469109437502 C 591.3883702595782,48.38789109437505 590.8774302595782,46.52569109437502 589.4664602595782,43.600491094375 C 588.0554802595782,40.67559109437502 585.3756802595782,36.64629109437499 583.8489902595782,32.926231094375 C 583.3958902595782,31.822301094375007 582.8806102595781,30.141761094374942 582.8093502595782,29.50243109437497 C 582.7383502595782,28.863111094374972 582.4377102595782,27.505521094375013 582.1126002595782,25.980541094374985 C 581.7874502595782,24.456041094374996 581.1448902595782,22.480111094374934 580.4578502595782,20.918281094374947 C 579.7707402595782,19.355971094374922 579.2005802595783,18.300231094374908 578.4710702595783,17.22228109437492 C 577.7416602595782,16.143971094374933 577.1396502595783,15.322981094374882 576.7074202595783,14.87094109437487 C 576.2752202595783,14.418891094374885 576.0076002595782,14.33080109437492 575.9072702595782,14.544321094374823 C 575.8069802595783,14.758931094374816 575.8749702595783,15.27247109437485 576.1087602595783,16.112011094374793 C 576.3423002595782,16.951061094374836 576.7447502595783,18.11075109437479 577.1266402595783,19.350721094374762 C 577.5085702595783,20.591181094374747 577.8612002595783,21.910461094374796 578.0356902595782,23.612721094374706 C 578.1480602595783,24.707131094374745 578.1917502595783,25.960161094374712 578.1335902595782,27.12351109437475 C 576.4226002595782,25.24873109437476 574.6141302595782,23.448621094374744 572.7774302595782,21.761971094374758 C 569.1403802595781,18.422601094374727 565.3771202595782,15.541741094374743 563.1210602595781,13.940131094374806 C 560.8649702595782,12.338161094374755 560.0769302595781,11.996421094374796 559.3162302595781,11.730071094374807 C 558.5556202595781,11.462511094374804 557.8004602595781,11.265951094374827 557.4818602595781,11.604651094374844 C 557.163200259578,11.943461094374811 557.492860259578,12.52850109437486 558.352780259578,13.798241094374816 C 559.214170259578,15.06774109437481 560.957550259578,16.834301094374837 563.3878002595781,19.551911094374873 C 565.8180502595781,22.269411094374846 568.989990259578,26.002251094374856 571.645230259578,29.317101094374834 C 574.300450259578,32.63219109437489 576.1140202595781,35.74459109437487 577.703600259578,38.18409109437482 C 579.293380259578,40.62329109437485 580.406220259578,42.625691094374815 581.1654902595781,44.329491094374816 C 581.924770259578,46.03349109437477 582.331350259578,47.44059109437478 582.4773402595781,48.51559109437483 C 582.6233802595781,49.590291094374834 582.5066402595781,50.33539109437481 582.2379502595782,50.68739109437479 C 581.9687202595782,51.03909109437484 581.5403602595782,50.99589109437477 580.7845702595781,50.26829109437483 C 580.0288802595782,49.540591094374804 578.9476902595782,48.12679109437488 577.3607702595781,46.19659109437487 C 575.7738002595781,44.26629109437488 573.6841202595781,41.81969109437489 572.0318202595781,39.75179109437488 C 570.3795702595781,37.68319109437493 569.1445802595781,35.966191094374835 567.4703502595781,33.655231094374926 C 565.7962302595781,31.344271094374903 563.6519702595781,28.398261094374902 561.7549202595782,25.51764109437488 C 559.8579002595782,22.63702109437486 558.1953802595782,19.804961094374903 557.0519402595781,17.559511094374898 C 555.9084502595781,15.314071094374867 555.2863302595781,13.655241094374901 554.6841202595781,11.827801094374877 C 554.0817802595781,10.00048109437489 553.498710259578,8.007471094374864 553.0892302595781,6.357311094374836 C 552.6797702595782,4.707141094374833 552.4456402595781,3.403731094374848 552.0604502595781,2.487081094374844 C 551.6753502595782,1.5704310943748396 551.1419602595781,1.0395710943748782 550.7051102595782,1.5074710943748642 C 550.2681102595782,1.9757410943748255 549.9290502595782,3.441921094374834 549.8994702595782,5.573651094374895 C 549.8696702595781,7.705381094374843 550.1464102595781,10.499251094374927 550.9772502595781,14.108631094374914 C 551.8081202595781,17.718371094374902 553.1923502595781,22.13873109437486 554.6460202595781,25.91502109437488 C 554.8093402595781,26.339001094374908 554.9758102595781,26.725521094374926 555.1413502595781,27.134371094374842 C 553.6879002595781,26.686481094374813 552.1879002595781,26.1461010943749 550.911950259578,25.512391094374834 C 548.982350259578,24.553891094374876 547.5695302595781,23.393961094374845 546.263400259578,22.251591094374817 C 544.957290259578,21.10947109437484 543.753550259578,19.984431094374827 542.855900259578,19.241641094374813 C 541.958160259578,18.49873109437476 541.364210259578,18.141741094374765 541.048720259578,18.147591094374775 C 540.7332702595779,18.147591094374775 540.699550259578,18.5224010943748 541.016120259578,19.29606109437475 C 541.332270259578,20.069961094374776 542.004120259578,21.25783109437475 542.6981002595779,22.349691094374748 C 543.392160259578,23.441911094374746 544.114790259578,24.4599410943747 545.419720259578,25.74616109437477 C 546.724660259578,27.032001094374777 548.6113802595779,28.583831094374773 550.416650259578,29.687151094374826 C 552.222070259578,30.78999109437484 554.544270259578,31.888921094374837 556.415120259578,33.27432109437484 C 557.547980259578,34.113371094374884 558.651210259578,35.02419109437483 559.5504502595779,36.110291094374816 C 562.2302002595779,39.34599109437477 563.803000259578,42.8580910943748 566.1204902595779,46.86629109437479 C 568.4379202595778,50.87469109437484 570.7652802595779,55.47139109437478 572.1788202595778,58.44929109437476 C 573.5923102595779,61.42719109437485 574.1023802595778,63.807291094374705 574.2581602595778,66.60869109437476 C 574.4747102595778,70.50869109437485 573.8985902595779,73.3806910943747 572.6415102595778,78.21379109437476 C 571.7035602595778,81.8204910943748 570.4956202595778,85.2842910943748 569.0054002595778,85.05049109437482 C 568.0994402595777,84.74869109437486 567.6906502595778,82.34489109437482 566.9206502595778,78.20289109437476 C 566.1505902595778,74.06069109437476 565.0669402595778,69.55119109437487 563.7363402595778,65.31329109437479 C 562.4057202595778,61.074891094374834 560.8249902595778,57.10179109437479 559.3490602595778,53.795391094374736 C 557.8729402595777,50.48869109437476 556.4980302595777,47.85249109437473 555.4952302595777,46.15309109437476 C 554.4924502595777,44.453791094374765 553.8595702595777,43.69449109437471 553.1382802595778,43.142891094374704 C 552.4172102595777,42.591591094374735 551.6066202595778,42.247391094374734 551.2277002595778,42.72929109437473 C 550.8488202595778,43.211191094374726 550.9089302595778,44.51659109437469 551.4183402595778,46.55579109437474 C 551.9279302595778,48.59469109437475 552.8883902595778,51.36659109437471 553.9984402595778,55.17239109437469 C 555.1084002595778,58.97879109437474 556.3638402595778,63.819691094374775 557.1446302595779,68.82429109437476 C 557.5026702595778,71.11909109437465 557.7590402595779,73.44699109437465 557.9284702595779,75.79689109437481 C 556.4383902595779,74.5342910943748 554.9226202595779,73.11609109437472 553.7371602595779,71.70899109437482 C 552.0305202595779,69.68359109437483 551.0036302595779,67.68729109437481 550.0901502595779,65.7597910943748 C 549.1765302595778,63.83259109437472 548.3764002595778,61.98009109437476 547.7277902595779,60.70289109437476 C 547.0793002595778,59.425591094374795 546.5843002595778,58.72189109437477 546.2254302595779,58.57449109437471 C 545.866530259578,58.426691094374746 545.6436102595779,58.83079109437472 545.6212502595779,59.85919109437464 C 545.5989502595779,60.88699109437471 545.7762002595779,62.55559109437468 546.0240502595778,64.12659109437459 C 546.2718002595778,65.69819109437458 546.5919802595779,67.20339109437464 547.4338602595778,69.2922910943746 C 548.2757102595779,71.3810910943746 549.6394202595778,74.05039109437462 551.1352702595779,76.17799109437465 C 552.6309102595778,78.30579109437463 553.8430102595778,79.29859109437461 555.1088502595778,80.75579109437467 C 556.4046202595778,82.24759109437468 557.3460502595779,84.13829109437461 557.7161802595779,86.07939109437461 C 558.5134702595778,90.25959109437463 557.5857402595778,95.12279109437463 556.7146302595779,98.8000910943747 C 555.9867902595779,101.87309109437479 555.0207502595779,103.87219109437478 553.388790259578,105.92009109437458 C 550.7797002595779,109.19329109437467 544.1472602595779,114.27859109437463 543.4874702595779,113.64409109437452 C 543.1029002595778,113.2125910943746 543.2525302595778,111.8506910943745 543.3350202595778,110.4326910943746 C 543.5337402595778,107.03709109437455 543.2051602595778,103.12329109437451 542.7036202595779,100.22089109437457 C 542.2018002595779,97.31869109437457 541.5283802595778,95.4326910943746 540.7222602595779,93.51469109437448 C 539.9161902595779,91.59679109437457 538.9666702595779,89.61239109437452 538.2347002595778,88.48539109437456 C 537.5026702595778,87.35829109437464 536.9755002595779,87.06709109437452 536.6779102595779,87.47829109437453 C 536.3804102595778,87.88949109437453 536.3074702595778,89.00259109437457 536.4655602595778,90.86939109437458 C 536.6235702595778,92.73549109437454 537.0146102595778,95.3529910943746 537.3256102595778,98.12519109437449 C 537.6365202595779,100.89799109437445 537.8727702595778,103.82679109437458 537.3690102595779,107.25359109437454 C 536.8655602595778,110.68119109437453 536.2178402595779,114.0359910943746 534.2336902595779,116.69239109437444 C 532.6898102595779,118.75949109437443 530.2268102595779,120.28619109437454 527.8813902595779,121.11229109437454 C 522.8639002595779,122.87919109437462 516.0196502595778,125.36539109437444 510.5663602595779,127.75299109437447 C 506.83574025957785,129.3863910943744 502.0555102595779,132.9158910943745 501.43800025957785,132.47239109437442 C 501.1646102595779,132.2745910943745 501.27608025957784,131.8926910943744 501.36190025957785,131.54159109437433 C 502.22316025957787,128.01859109437441 502.7813802595779,124.60989109437423 502.7553802595778,121.32459109437423 C 502.73028025957785,118.03879109437412 502.1210702595778,114.87899109437421 501.3292402595778,112.22889109437415 C 500.5373502595778,109.57849109437416 499.5657602595778,107.43859109437426 499.2880202595778,105.4790910943741 C 499.0104402595779,103.51989109437409 499.4282002595778,101.744891094374 499.8813302595778,100.01949109437419 C 500.33407025957774,98.29409109437415 500.8160002595778,96.62279109437418 501.3564302595778,95.07709109437428 C 501.8968602595778,93.53149109437436 502.4951602595778,92.10869109437431 502.96766025957777,90.89669109437432 C 503.4401302595778,89.6843910943744 503.7864102595778,88.6793910943743 503.8821402595778,87.95729109437434 C 503.97784025957776,87.23499109437444 503.82024025957776,86.79449109437428 503.22893025957785,86.87959109437429 C 502.6376802595779,86.96259109437437 501.61649025957786,87.57769109437436 500.5181702595778,88.73569109437426 C 499.41967025957786,89.89389109437434 498.2446102595778,91.59459109437421 497.1488102595778,93.57459109437423 C 496.0530302595778,95.5547910943742 495.0075402595778,97.86539109437422 494.3074302595778,99.85609109437428 C 493.60740025957784,101.84689109437431 493.2444002595778,103.54859109437439 493.20789025957777,105.40299109437433 C 493.17079025957776,107.25749109437425 493.46596025957774,109.26599109437439 493.90463025957774,111.58649109437442 C 494.3431802595777,113.90689109437449 494.9246002595777,116.53489109437442 494.8898402595778,119.35949109437433 C 494.8550402595778,122.1843910943744 494.2012502595778,125.20499109437424 493.38751025957777,128.19949109437425 C 492.57367025957774,131.19489109437427 491.59884025957774,134.16749109437433 490.5896602595777,136.68549109437436 C 489.6370502595777,139.06239109437433 488.89503025957777,140.62209109437435 487.6067502595778,142.3084910943744 C 486.22231025957774,144.12079109437445 484.78742025957774,145.01849109437444 483.1160602595778,145.99889109437436 C 482.0650402595778,146.6150910943743 480.6402402595778,147.16249109437445 479.71403025957784,147.32689109437433 C 478.02278025957787,147.62759109437434 476.28602025957787,148.2726910943743 473.97137025957784,148.91659109437433 C 467.5988602595778,150.68959109437424 465.11190025957785,150.21389109437428 459.4868402595779,148.91659109437433 C 457.14572025957784,148.37619109437424 455.4299702595779,147.62759109437434 453.73876025957793,147.32689109437433 C 452.81124025957797,147.16249109437445 451.9488302595779,146.93109109437432 451.14775025957795,146.5050910943744 C 449.1579902595779,145.44649109437432 447.228690259578,144.11819109437442 445.8460202595779,142.3084910943744 C 444.5577002595779,140.62209109437435 443.81575025957795,139.06239109437433 442.8631002595779,136.68549109437436 C 441.85388025957786,134.16749109437433 440.8790902595779,131.19489109437427 440.0652702595779,128.19949109437425 C 439.25148025957793,125.20499109437424 438.5976902595779,122.18469109437433 438.5629302595779,119.35949109437433 C 438.5278302595779,116.53489109437442 439.1096502595779,113.90659109437433 439.54815025957794,111.58649109437442 C 439.986710259578,109.26549109437451 440.2813702595779,107.25749109437447 440.2448902595779,105.40299109437433 C 440.2077902595779,103.54829109437424 439.8453502595779,101.84689109437431 439.1453502595779,99.85609109437428 C 438.4453802595779,97.86539109437422 437.39980025957794,95.5547910943742 436.3039702595779,93.57459109437423 C 435.2082502595779,91.59459109437421 434.03291025957793,89.89389109437434 432.9345702595779,88.73569109437426 C 431.8361202595779,87.57769109437436 430.8150902595779,86.96399109437425 430.2238402595779,86.87959109437429 C 429.6326202595779,86.7925910943743 429.4750102595779,87.23519109437439 429.5706402595779,87.95729109437434 C 429.6661402595779,88.6793910943743 430.0125902595779,89.6843910943744 430.4851202595779,90.89669109437432 C 430.95762025957794,92.10869109437431 431.5558202595779,93.53149109437436 432.09631025957793,95.07709109437428 C 432.63670025957794,96.62249109437425 433.11868025957796,98.29409109437438 433.57145025957794,100.01949109437419 C 434.02441025957796,101.74489109437422 434.44240025957794,103.51989109437409 434.1647602595779,105.4790910943741 C 433.8871802595779,107.43859109437403 432.9153502595779,109.57849109437416 432.12355025957794,112.22889109437415 C 431.33182025957797,114.87899109437421 430.72349025957794,118.03879109437412 430.69740025957793,121.32459109437423 C 430.6723002595779,124.60989109437423 431.2297402595779,128.0185910943742 432.0908702595779,131.54159109437433 C 432.1767702595779,131.89249109437424 432.28820025957793,132.27659109437423 432.0147702595779,132.47239109437442 C 431.3973902595779,132.9158910943745 426.61691025957793,129.38619109437445 422.8864002595779,127.75299109437447 C 417.4330902595779,125.36539109437444 410.5887802595779,122.87919109437439 405.5713402595779,121.11229109437454 C 403.2259602595779,120.28619109437454 400.7629302595779,118.75929109437448 399.2190702595779,116.69239109437444 C 397.23482025957793,114.03559109437447 396.5872402595779,110.68099109437435 396.0837502595779,107.25359109437454 C 395.5802602595779,103.82649109437443 395.8164902595779,100.89769109437452 396.12715025957795,98.12519109437449 C 396.43807025957796,95.35279109437442 396.82919025957796,92.73549109437454 396.98720025957795,90.86939109437458 C 397.1455102595779,89.00239109437462 397.0722002595779,87.88949109437453 396.7748302595779,87.47829109437453 C 396.4771902595779,87.06709109437452 395.9500902595779,87.35869109437454 395.2180702595779,88.48539109437456 C 394.48603025957794,89.61239109437452 393.5366802595779,91.59679109437457 392.7305002595779,93.51469109437448 C 391.9243602595779,95.43269109437438 391.2510102595779,97.31869109437457 390.7491402595779,100.22089109437457 C 390.2473702595779,103.12329109437451 389.9190202595779,107.03709109437455 390.11772025957794,110.4326910943746 C 390.20082025957794,111.8506910943745 390.34988025957796,113.2125910943746 389.96527025957795,113.64409109437452 C 389.305610259578,114.2785910943744 382.67296025957796,109.1935910943746 380.0639602595779,105.92009109437458 C 378.43184025957794,103.8723910943745 377.4659602595779,101.87309109437456 376.7381202595779,98.8000910943747 C 375.8671502595779,95.12279109437463 374.9393402595779,90.25409109437464 375.7365802595779,86.07379109437466 C 376.1067602595779,84.13279109437462 377.0481402595779,82.24239109437463 378.34388025957793,80.75049109437464 C 379.6096902595779,79.29289109437468 380.8216402595779,78.30579109437463 382.31747025957793,76.17799109437465 C 383.81319025957794,74.05039109437462 385.1770802595779,71.37569109437459 386.01890025957795,69.2868910943746 C 386.86084025957797,67.19839109437453 387.18094025957794,65.69819109437458 387.42871025957794,64.12659109437459 C 387.67647025957797,62.5558910943746 387.85392025957793,60.886491094374605 387.83151025957795,59.85919109437464 C 387.809210259578,58.831691094374605 387.585980259578,58.42669109437463 387.22730025957793,58.574491094374594 C 386.86842025957793,58.72219109437458 386.3735402595779,59.42039109437451 385.7249602595779,60.6975910943745 C 385.07638025957795,61.974591094374546 384.27613025957794,63.83259109437449 383.3625702595779,65.75979109437458 C 382.4489602595779,67.68729109437459 381.4222402595779,69.6835910943746 379.71559025957794,71.7089910943746 C 378.53013025957796,73.1160910943745 377.01437025957796,74.53429109437457 375.5242702595779,75.79689109437459 C 375.6937202595779,73.44699109437465 375.9500502595779,71.11869109437453 376.30810025957794,68.82429109437453 C 377.08894025957795,63.81969109437455 378.34430025957795,58.978791094374515 379.45432025957797,55.172391094374575 C 380.56424025957796,51.3665910943746 381.52480025957794,48.594691094374525 382.034420259578,46.55579109437463 C 382.543900259578,44.516591094374576 382.603690259578,43.21119109437461 382.225050259578,42.72929109437462 C 381.84614025957796,42.24739109437462 381.035640259578,42.59269109437457 380.31446025957797,43.14289109437459 C 379.593250259578,43.6944910943746 378.960300259578,44.45379109437454 377.957530259578,46.153091094374645 C 376.954720259578,47.852291094374664 375.579760259578,50.488391094374606 374.103700259578,53.79539109437462 C 372.62764025957796,57.101791094374676 371.047000259578,61.07489109437461 369.716420259578,65.31329109437456 C 368.385870259578,69.55119109437464 367.302150259578,74.06099109437446 366.532110259578,78.20289109437454 C 365.762070259578,82.34519109437451 365.353280259578,84.74869109437464 364.447330259578,85.05049109437459 C 362.957170259578,85.2846910943747 361.749270259578,81.82049109437457 360.811250259578,78.21379109437453 C 359.554160259578,73.38069109437447 358.983280259578,70.50349109437457 359.200030259578,66.60329109437453 C 359.355540259578,63.80169109437452 359.860420259578,61.42719109437462 361.273900259578,58.44929109437453 C 362.687420259578,55.47139109437455 365.014780259578,50.8746910943745 367.332270259578,46.86629109437456 C 369.649730259578,42.85809109437457 371.228010259578,39.3461910943746 373.907760259578,36.11029109437459 C 374.80693025957805,35.02449109437464 375.90474025957803,34.11337109437454 377.037610259578,33.27432109437461 C 378.908410259578,31.88892109437461 381.230780259578,30.789991094374614 383.036110259578,29.6871510943746 C 384.841440259578,28.58407109437462 386.72812025957796,27.03200109437455 388.03303025957797,25.746161094374543 C 389.33797025957796,24.46031109437456 390.060600259578,23.44166109437458 390.754660259578,22.34969109437452 C 391.448750259578,21.257221094374472 392.120490259578,20.069721094374472 392.436620259578,19.296061094374522 C 392.752850259578,18.522161094374496 392.719130259578,18.147591094374548 392.404020259578,18.147591094374548 C 392.088570259578,18.147591094374548 391.49447025957795,18.498371094374534 390.59684025957796,19.241641094374586 C 389.69912025957797,19.9844310943746 388.495540259578,21.109471094374612 387.18936025957794,22.25159109437459 C 385.88319025957793,23.39420109437458 384.4704802595779,24.553891094374535 382.54080025957796,25.512391094374607 C 381.26480025957795,26.145861094374595 379.764860259578,26.68672109437466 378.311370259578,27.134371094374615 C 378.476920259578,26.725521094374585 378.64887025957796,26.339241094374643 378.812160259578,25.91502109437465 C 380.265950259578,22.138981094374685 381.64466025957796,17.718611094374637 382.475500259578,14.108631094374687 C 383.306440259578,10.4992510943747 383.58828025957797,7.705381094374729 383.55870025957796,5.573651094374668 C 383.529200259578,3.4419210943747203 383.184640259578,1.9757410943747118 382.74765025957794,1.5074710943746368 C 382.31071025957795,1.0395710943746508 381.7828902595779,1.572171094374653 381.3977402595779,2.4870810943746164 C 381.0125402595779,3.4034810943745697 380.7729602595779,4.707141094374606 380.3635002595779,6.357311094374609 C 379.9540602595779,8.007471094374637 379.3763202595779,10.000481094374663 378.7740702595779,11.82780109437465 C 378.1717702595779,13.655001094374597 377.5442302595779,15.31407109437464 376.4008102595779,17.55951109437467 C 375.2573802595779,19.805201094374638 373.5948402595779,22.636771094374694 371.6978202595779,25.517641094374653 C 369.8008002595779,28.398501094374637 367.6566302595779,31.344271094374676 365.9824002595779,33.6552310943747 C 364.3082502595779,35.96639109437467 363.0731802595779,37.68379109437467 361.4209402595779,39.75179109437465 C 359.7686702595779,41.81969109437466 357.6789802595779,44.26629109437465 356.0919802595779,46.19659109437464 C 354.5050602595779,48.12679109437465 353.4239102595779,49.54059109437469 352.6681502595779,50.268291094374604 C 351.9123602595779,50.99569109437459 351.4841902595779,51.03909109437461 351.21481025957786,50.68739109437456 C 350.94559025957784,50.335391094374586 350.82970025957786,49.590491094374556 350.97541025957787,48.5155910943746 C 351.1214502595779,47.44099109437457 351.52803025957786,46.033491094374654 352.2872302595779,44.32949109437459 C 353.0464302595779,42.62569109437459 354.1595002595779,40.62289109437461 355.7491602595779,38.184091094374594 C 357.3388102595779,35.74459109437464 359.1522802595779,32.63219109437455 361.8075102595779,29.317101094374607 C 364.4627602595779,26.00225109437463 367.6347602595779,22.26977109437462 370.06495025957787,19.551911094374645 C 372.49523025957785,16.83430109437461 374.23866025957784,15.067741094374696 375.09997025957784,13.798241094374589 C 375.96166025957785,12.528741094374595 376.2895502595778,11.943461094374584 375.97089025957786,11.604651094374617 C 375.65224025957787,11.266561094374651 374.89714025957784,11.46531109437467 374.13653025957785,11.73007109437458 C 373.37588025957785,11.997511094374545 372.5877302595778,12.338161094374527 370.33166025957786,13.940131094374578 C 368.0756202595779,15.541981094374592 364.31237025957785,18.422601094374613 360.6753102595779,21.76197109437453 C 358.8386102595779,23.448621094374516 357.0302002595779,25.248731094374534 355.3191302595779,27.12351109437452 C 355.2611302595779,25.960161094374484 355.3052302595779,24.707131094374517 355.4172302595779,23.61272109437448 C 355.5919802595779,21.910461094374455 355.9443102595779,20.59118109437452 356.32626025957785,19.350721094374535 C 356.70818025957783,18.110751094374564 357.11042025957784,16.951061094374495 357.34416025957785,16.112011094374566 C 357.5777102595778,15.27247109437451 357.6460202595778,14.757471094374523 357.54566025957786,14.544321094374595 C 357.4453702595779,14.329711094374602 357.17775025957786,14.418891094374544 356.74550025957785,14.870941094374643 C 356.31327025957785,15.322981094374654 355.71135025957784,16.143971094374592 354.98188025957785,17.222281094374694 C 354.25241025957786,18.30023109437468 353.6767302595778,19.356211094374657 352.98967025957785,20.91828109437472 C 352.30259025957787,22.480111094374706 351.66547025957783,24.45604109437477 351.34034025957783,25.980541094374757 C 351.0152402595778,27.505521094374785 350.7149202595778,28.863111094374744 350.64360025957785,29.502431094374742 C 350.57250025957785,30.141511094374778 350.05706025957784,31.822541094374742 349.60393025957785,32.92623109437477 C 348.07729025957786,36.64629109437476 345.39745025957785,40.675591094374795 343.98649025957786,43.600491094374775 C 342.57558025957786,46.52569109437479 342.06453025957785,48.38789109437482 341.7819602595779,49.42469109437479 C 341.49941025957787,50.46169109437483 340.7233002595779,48.94139109437481 340.3776202595779,47.7262910943748 C 340.0318902595779,46.51109109437482 339.6725202595779,45.04609109437479 339.6101102595779,42.99629109437478 C 339.5476102595779,40.94599109437479 339.78012025957787,38.307991094374756 340.3884902595779,35.38089109437476 C 340.9966802595779,32.452961094374814 341.9809202595779,29.24243109437475 342.8270702595779,26.563001094374727 C 343.6732102595779,23.883941094374677 344.37862025957793,21.74684109437476 345.1458902595779,19.546541094374675 C 345.9131202595779,17.34661109437468 346.74085025957794,15.085791094374713 347.6280402595779,12.519341094374681 C 348.51526025957793,9.953391094374638 349.4596602595779,7.078871094374676 349.9359702595779,5.072801094374654 C 350.4123102595779,3.0667410943746063 350.4211202595779,1.934141094374695 350.28980025957793,1.1265610943746651 C 350.19150025957794,0.5209110943746964 350.01194025957795,0.09730109437464307 349.74002025957793,0.021531094374608983 L 349.7393702595784,0.017121094375283974" id="path880" style="fill:#1a1a1a;stroke-width:4.53825;stroke-dashoffset:2.43"/>
</svg>
