<?xml version="1.0" ?>
<svg xmlns="http://www.w3.org/2000/svg" xmlns:ev="http://www.w3.org/2001/xml-events" xmlns:xlink="http://www.w3.org/1999/xlink" baseProfile="full" height="778" id="Layer_1" style="enable-background:new 0 0 1000 800;" transform="scale(0.17889087656529518 0.17889087656529518) translate(-279.5 -389.0)" version="1.1" viewBox="0 0 559 778" width="559" x="0px" xml:space="preserve" y="0px">
	<defs/>
	<path d="M 177.60000000000016,293.10000000000014 C 182.10000000000016,276.8000000000001 174.40000000000018,263.60000000000014 175.80000000000015,249.60000000000014 C 184.50000000000014,262.90000000000015 192.90000000000018,276.20000000000016 197.60000000000016,291.20000000000016 C 201.50000000000014,303.60000000000014 208.90000000000018,310.60000000000014 220.80000000000015,315.90000000000015 C 243.30000000000015,325.8000000000001 262.8000000000002,340.10000000000014 270.9000000000002,365.00000000000017 C 274.0000000000002,374.6000000000002 281.3000000000002,371.90000000000015 287.60000000000014,372.6000000000002 C 295.70000000000016,373.50000000000017 303.3000000000002,372.7000000000002 307.0000000000002,363.7000000000002 C 317.0000000000002,339.4000000000002 334.5000000000002,322.2000000000002 359.4000000000002,315.4000000000002 C 392.20000000000016,306.5000000000002 411.0000000000002,286.3000000000002 418.70000000000016,254.20000000000022 C 419.70000000000016,250.20000000000022 421.20000000000016,246.4000000000002 422.60000000000014,242.50000000000023 C 422.9000000000001,241.80000000000024 423.9000000000001,241.40000000000023 425.8000000000002,239.90000000000023 C 431.5000000000002,256.4000000000002 424.3000000000002,271.9000000000002 423.5000000000002,289.10000000000025 C 453.4000000000002,268.40000000000026 465.2000000000003,239.90000000000026 469.10000000000025,207.00000000000026 C 470.0000000000002,199.70000000000024 465.0000000000002,194.20000000000024 461.0000000000002,188.70000000000024 C 453.7000000000003,178.80000000000024 446.2000000000003,169.00000000000026 439.0000000000002,159.10000000000025 C 435.60000000000025,154.40000000000026 432.0000000000002,149.80000000000024 431.7000000000003,142.10000000000025 C 441.5000000000002,145.90000000000026 443.8000000000003,155.20000000000024 449.9000000000003,160.60000000000025 C 455.9000000000003,165.80000000000024 462.60000000000036,175.70000000000024 469.3000000000003,172.30000000000024 C 475.8000000000003,169.00000000000023 473.7000000000003,157.60000000000025 472.60000000000025,149.30000000000024 C 470.8000000000003,135.70000000000024 463.7000000000003,123.90000000000023 460.60000000000025,110.70000000000024 C 484.8000000000003,135.40000000000023 482.9000000000002,169.80000000000024 493.5000000000002,199.90000000000026 C 519.9000000000002,160.70000000000027 507.60000000000025,120.30000000000027 496.10000000000025,76.60000000000026 C 510.0000000000002,89.20000000000026 511.2000000000003,104.20000000000027 519.9000000000002,119.10000000000025 C 519.8000000000002,78.80000000000025 512.3000000000002,42.700000000000244 507.70000000000016,6.10000000000025 C 523.3000000000002,31.400000000000247 530.1000000000001,59.500000000000256 533.7000000000002,88.50000000000026 C 537.4000000000002,118.00000000000026 535.6000000000001,147.70000000000027 533.6000000000001,180.50000000000026 C 549.3000000000002,162.60000000000025 545.0000000000001,141.50000000000026 551.8000000000002,124.00000000000026 C 558.7000000000002,125.70000000000024 557.7000000000002,131.00000000000026 557.9000000000002,135.00000000000026 C 559.4000000000002,170.20000000000027 551.5000000000002,201.10000000000025 519.2000000000002,221.30000000000024 C 505.10000000000014,230.20000000000024 495.20000000000016,243.20000000000024 486.9000000000002,256.90000000000026 C 488.20000000000016,259.90000000000026 490.3000000000002,259.10000000000025 491.8000000000002,259.60000000000025 C 496.0000000000002,260.90000000000026 502.4000000000002,254.60000000000025 503.8000000000002,260.10000000000025 C 505.4000000000002,266.60000000000025 496.9000000000002,266.80000000000024 493.0000000000002,267.2000000000003 C 479.2000000000003,268.5000000000003 469.8000000000002,275.90000000000026 460.5000000000002,285.2000000000003 C 445.0000000000002,300.8000000000003 427.10000000000025,313.5000000000003 408.10000000000025,324.5000000000003 C 392.60000000000025,333.40000000000026 378.8000000000003,344.6000000000003 365.5000000000002,356.5000000000003 C 362.5000000000002,359.2000000000003 358.5000000000002,361.40000000000026 358.60000000000025,366.2000000000003 C 358.60000000000025,368.3000000000003 359.2000000000003,371.2000000000003 360.60000000000025,372.40000000000026 C 362.8000000000003,374.30000000000024 364.4000000000002,371.80000000000024 365.9000000000002,370.10000000000025 C 384.5000000000002,348.2000000000003 413.4000000000002,346.2000000000003 436.8000000000002,333.60000000000025 C 442.70000000000016,330.40000000000026 443.60000000000014,335.0000000000002 444.0000000000002,339.5000000000002 C 447.9000000000002,383.30000000000024 425.8000000000002,424.30000000000024 379.0000000000002,427.60000000000025 C 366.0000000000002,428.5000000000002 360.2000000000003,435.10000000000025 356.0000000000002,446.80000000000024 C 344.7000000000003,477.90000000000026 351.9000000000002,508.10000000000025 358.60000000000025,538.4000000000002 C 363.10000000000025,558.9000000000002 369.9000000000002,578.8000000000002 377.7000000000003,598.3000000000002 C 387.0000000000002,621.5000000000002 390.9000000000003,645.7000000000002 389.2000000000003,670.7000000000002 C 387.5000000000002,696.2000000000002 379.4000000000003,718.9000000000002 360.3000000000003,736.7000000000002 C 349.60000000000025,746.7000000000002 339.3000000000003,757.0000000000001 328.3000000000003,766.6000000000001 C 313.10000000000025,779.9000000000001 296.2000000000003,780.3000000000002 278.7000000000003,771.6000000000001 C 258.2000000000003,761.4000000000001 242.50000000000026,745.6000000000001 228.60000000000022,727.8000000000002 C 219.90000000000023,716.7000000000002 212.20000000000024,704.7000000000002 203.5000000000002,693.6000000000001 C 189.5000000000002,675.7000000000002 186.7000000000002,655.8000000000002 190.90000000000018,634.1000000000001 C 195.30000000000015,611.6000000000001 202.30000000000015,589.9000000000001 210.40000000000018,568.6000000000001 C 221.5000000000002,539.2000000000002 227.0000000000002,508.8000000000002 228.80000000000015,477.70000000000016 C 229.60000000000016,463.00000000000017 223.20000000000013,449.20000000000016 217.00000000000014,436.20000000000016 C 213.40000000000012,428.70000000000016 203.90000000000012,428.8000000000002 196.40000000000012,427.00000000000017 C 153.8000000000001,416.6000000000002 133.1000000000001,390.00000000000017 133.70000000000013,346.10000000000014 C 133.90000000000012,332.5000000000001 136.40000000000012,330.40000000000015 149.30000000000015,335.90000000000015 C 172.90000000000018,346.10000000000014 199.40000000000018,351.60000000000014 214.90000000000018,376.3000000000001 C 223.0000000000002,364.8000000000001 217.40000000000018,357.90000000000015 210.10000000000016,351.7000000000001 C 190.00000000000014,334.5000000000001 169.50000000000014,317.7000000000001 149.60000000000016,300.2000000000001 C 136.80000000000015,288.9000000000001 126.30000000000015,274.5000000000001 106.90000000000018,273.7000000000001 C 103.70000000000019,273.6000000000001 98.10000000000016,272.3000000000001 99.5000000000002,267.7000000000001 C 101.10000000000022,262.4000000000001 105.60000000000022,267.4000000000001 108.80000000000021,267.2000000000001 C 110.60000000000022,267.1000000000001 112.30000000000021,266.8000000000001 115.5000000000002,266.5000000000001 C 104.70000000000019,251.80000000000013 89.90000000000018,246.60000000000014 74.20000000000019,243.7000000000001 C 44.100000000000165,238.1000000000001 21.100000000000193,221.7000000000001 1.9895196601282805e-13,195.3000000000001 C 23.600000000000193,206.1000000000001 40.5000000000002,225.4000000000001 66.20000000000019,220.8000000000001 C 65.30000000000021,214.1000000000001 59.20000000000019,214.00000000000009 55.20000000000019,211.7000000000001 C 20.100000000000193,191.6000000000001 17.400000000000176,161.6000000000001 19.400000000000176,129.4000000000001 C 19.50000000000017,127.10000000000008 19.800000000000182,124.60000000000008 22.900000000000176,124.7000000000001 C 25.300000000000182,124.8000000000001 27.300000000000182,126.2000000000001 27.800000000000182,128.8000000000001 C 28.50000000000017,133.3000000000001 29.200000000000188,137.8000000000001 29.50000000000017,142.3000000000001 C 30.70000000000016,160.1000000000001 34.900000000000176,171.1000000000001 46.400000000000176,183.3000000000001 C 34.70000000000019,118.10000000000008 43.70000000000019,57.40000000000009 73.40000000000018,8.526512829121202e-14 C 71.80000000000015,36.30000000000008 55.100000000000165,70.90000000000009 60.900000000000176,110.80000000000008 C 67.0000000000002,99.20000000000009 68.80000000000015,87.90000000000009 81.5000000000002,78.80000000000008 C 72.70000000000019,121.70000000000007 56.10000000000022,162.30000000000007 85.90000000000018,203.00000000000009 C 92.5000000000002,187.4000000000001 93.5000000000002,173.00000000000009 95.20000000000019,159.00000000000009 C 98.5000000000002,129.8000000000001 115.90000000000018,109.40000000000009 137.0000000000002,90.40000000000009 C 121.40000000000018,125.50000000000009 100.80000000000021,160.10000000000008 110.30000000000021,199.9000000000001 C 119.90000000000018,239.00000000000014 148.10000000000016,265.70000000000016 177.60000000000016,293.10000000000014"/>
</svg>
