<?xml version="1.0" ?>
<svg xmlns="http://www.w3.org/2000/svg" xmlns:ev="http://www.w3.org/2001/xml-events" xmlns:inkscape="http://www.inkscape.org/namespaces/inkscape" xmlns:sodipodi="http://sodipodi.sourceforge.net/DTD/sodipodi-0.dtd" xmlns:svg="http://www.w3.org/2000/svg" xmlns:xlink="http://www.w3.org/1999/xlink" baseProfile="full" height="3001" id="svg6" inkscape:version="1.2.2 (1:1.2.2+202212051550+b0a8486541)" sodipodi:docname="bird66.svg" style="clip-rule:evenodd;fill-rule:evenodd;image-rendering:optimizeQuality;shape-rendering:geometricPrecision;text-rendering:geometricPrecision" transform="scale(0.06281407035175879 0.06281407035175879) translate(-796.0 -1500.5)" version="1.1" viewBox="0 0 1592 3001" width="1592">
	<defs/>
	<path d="M 1088.0,7.105427357601002e-15 C 1107.33,7.105427357601002e-15 1126.67,7.105427357601002e-15 1146.0,7.105427357601002e-15 C 1254.6,10.544500000000006 1343.76,57.544500000000006 1413.5,141.0 C 1427.94,158.367 1440.77,176.867 1452.0,196.5 C 1501.02,206.115 1547.35,222.948 1591.0,247.0 C 1591.0,247.667 1591.0,248.333 1591.0,249.0 C 1546.72,299.364 1492.39,334.86400000000003 1428.0,355.5 C 1432.45,436.461 1423.78,516.1279999999999 1402.0,594.5 C 1481.18,732.717 1512.68,881.217 1496.5,1040.0 C 1482.83,1150.96 1446.83,1253.96 1388.5,1349.0 C 1314.64,1470.19 1215.48,1564.69 1091.0,1632.5 C 1044.6,1657.52 996.929,1679.86 948.0,1699.5 C 892.588,1720.97 837.254,1742.64 782.0,1764.5 C 746.529,1778.9 713.1949999999999,1796.9 682.0,1818.5 C 661.713,1838.25 645.213,1860.75 632.5,1886.0 C 611.413,1927.5 593.08,1970.17 577.5,2014.0 C 547.6610000000001,2099.18 521.6610000000001,2185.52 499.5,2273.0 C 439.081,2513.26 388.581,2755.59 348.0,3000.0 C 346.66700000000003,3000.0 345.3330000000001,3000.0 344.0,3000.0 C 296.462,2980.31 256.62800000000004,2950.31 224.50000000000003,2910.0 C 208.32200000000003,2888.16 196.32200000000003,2864.16 188.50000000000003,2838.0 C 159.98900000000003,2875.84 123.15500000000003,2902.01 78.00000000000003,2916.5 C 52.17560000000003,2922.81 26.17560000000003,2923.64 2.842170943040401e-14,2919.0 C 2.842170943040401e-14,2917.33 2.842170943040401e-14,2915.67 2.842170943040401e-14,2914.0 C 72.82610000000003,2678.71 141.32600000000002,2442.05 205.50000000000003,2204.0 C 224.40600000000003,2133.04 241.73900000000003,2061.71 257.5,1990.0 C 264.77600000000007,1957.85 269.60900000000004,1925.35 272.0,1892.5 C 272.14300000000003,1887.49 271.64300000000003,1882.66 270.5,1878.0 C 224.08100000000005,1917.62 174.91400000000002,1953.46 123.00000000000003,1985.5 C 108.22400000000003,1994.22 92.89100000000002,2001.89 77.00000000000003,2008.5 C 64.13510000000002,2014.31 50.801700000000025,2015.98 37.00000000000003,2013.5 C 32.16670000000003,2011.33 28.666700000000027,2007.83 26.50000000000003,2003.0 C 23.689300000000028,1988.04 25.689300000000028,1973.71 32.50000000000003,1960.0 C 40.48680000000003,1943.35 49.48680000000003,1927.35 59.50000000000003,1912.0 C 83.21800000000003,1877.6 109.21800000000003,1844.94 137.50000000000003,1814.0 C 158.45700000000002,1594.26 194.12400000000002,1376.92 244.50000000000003,1162.0 C 274.4630000000001,1034.45 313.46299999999997,909.781 361.5,788.0 C 395.11300000000006,703.762 436.779,624.095 486.5,549.0 C 514.091,509.096 545.591,472.26300000000003 581.0,438.5 C 605.962,415.935 633.129,396.435 662.5,380.0 C 708.544,278.061 771.711,188.227 852.0,110.5 C 891.587,73.958 936.253,44.958000000000006 986.0,23.500000000000007 C 1018.96,10.591200000000008 1052.96,2.757900000000007 1088.0,7.105427357601002e-15" fill="#000000" id="path4" style="opacity:0.998"/>
</svg>
