<?xml version="1.0" ?>
<svg xmlns="http://www.w3.org/2000/svg" xmlns:ev="http://www.w3.org/2001/xml-events" xmlns:xlink="http://www.w3.org/1999/xlink" baseProfile="full" height="410" id="Layer_1" style="enable-background:new 0 0 720 720;" transform="scale(0.24390243902439024 0.24390243902439024) translate(-259.0 -205.0)" version="1.1" viewBox="0 0 518 410" width="518" x="0px" xml:space="preserve" y="0px">
	<defs/>
	<path d="M 443.6547799525449,67.56143233778829 C 443.6547799525449,62.175432337788294 458.9587799525449,53.08543233778829 465.15777995254496,53.08543233778829 C 471.3517799525449,53.08543233778829 517.844779952545,60.53143233778829 517.844779952545,60.53143233778829 C 517.844779952545,60.53143233778829 516.742779952545,45.73343233778829 506.82177995254494,39.1174323377883 C 496.90777995254496,32.5044323377883 471.3527799525449,34.8914323377883 464.319779952545,27.8674323377883 C 457.30777995254505,20.832432337788305 437.866779952545,-6.4445676622117105 400.661779952545,1.4054323377883122 C 363.44677995254494,9.25843233778832 358.065779952545,30.34543233778831 356.001779952545,47.29443233778832 C 353.93577995254503,64.2494323377883 358.06577995254503,82.44043233778834 353.525779952545,86.9874323377883 C 348.97177995254503,91.5394323377883 296.877779952545,102.69743233778829 263.388779952545,121.7184323377883 C 229.907779952545,140.73843233778828 181.931779952545,195.72943233778827 181.931779952545,195.72943233778827 C 181.931779952545,195.72943233778827 99.66277995254502,258.1604323377883 95.53177995254502,277.1794323377883 C 95.53177995254502,277.1794323377883 -1.6292200474549787,334.64243233778825 0.02077995254502696,342.9134323377882 C 1.6707799525450326,351.1834323377882 83.12377995254504,340.0194323377882 124.87577995254505,330.5114323377883 C 166.633779952545,321.0054323377882 258.921779952545,296.19543233778825 258.921779952545,296.19543233778825 C 258.921779952545,296.19543233778825 274.852779952545,296.5594323377883 296.88977995254504,293.3664323377883 L 306.81777995254504,360.0784323377883 L 293.431779952545,359.8424323377883 C 293.417779952545,359.8424323377883 293.396779952545,359.8424323377883 293.368779952545,359.8424323377883 C 291.60877995254504,359.8424323377883 290.18077995254504,361.2504323377883 290.143779952545,363.0144323377883 C 290.108779952545,364.7944323377883 291.530779952545,366.2664323377883 293.317779952545,366.2944323377883 L 309.175779952545,366.57443233778827 C 309.814779952545,366.98843233778825 310.564779952545,367.2314323377883 311.360779952545,367.2314323377883 C 311.55177995254496,367.2314323377883 311.754779952545,367.2174323377883 311.960779952545,367.1884323377883 C 311.965779952545,367.1884323377883 311.972779952545,367.1874323377883 311.97677995254503,367.18543233778826 L 345.69977995254504,381.7354323377882 C 346.12277995254505,381.9144323377882 346.55677995254507,381.99243233778816 346.97277995254507,381.99243233778816 C 348.22277995254507,381.99243233778816 349.41077995254506,381.2694323377882 349.9457799525451,380.0494323377882 C 350.6527799525451,378.4044323377882 349.9037799525451,376.5104323377882 348.2527799525451,375.8034323377882 L 327.6197799525451,366.9004323377882 L 355.7357799525451,367.39643233778816 C 355.7567799525451,367.39643233778816 355.7797799525451,367.39643233778816 355.7917799525451,367.39643233778816 C 357.48277995254506,367.39643233778816 358.8657799525451,366.08843233778816 359.00677995254506,364.4264323377881 L 361.86077995254504,383.5864323377881 L 343.59777995254507,383.26643233778805 C 343.5847799525451,383.26643233778805 343.56277995254504,383.26643233778805 343.54777995254506,383.26643233778805 C 341.78077995254506,383.26643233778805 340.35377995254504,384.66543233778805 340.31777995254504,386.4234323377881 C 340.28177995254504,388.2124323377881 341.705779952545,389.68543233778803 343.49077995254504,389.71443233778814 L 364.28777995254507,390.0804323377881 C 364.90877995254505,390.46343233778816 365.63177995254506,390.68443233778817 366.3927799525451,390.68443233778817 C 366.5527799525451,390.68443233778817 366.7287799525451,390.6684323377882 366.89877995254506,390.64643233778816 L 410.35177995254503,409.39643233778816 C 410.76177995254506,409.56943233778816 411.19677995254506,409.65543233778817 411.626779952545,409.65543233778817 C 412.876779952545,409.65543233778817 414.06277995254504,408.9264323377881 414.58577995254495,407.7124323377882 C 415.285779952545,406.0764323377882 414.540779952545,404.18143233778824 412.89777995254497,403.4674323377882 L 382.63677995254494,390.4044323377882 L 422.762779952545,391.11343233778814 C 422.784779952545,391.11343233778814 422.804779952545,391.11343233778814 422.82077995254497,391.11343233778814 C 424.578779952545,391.11343233778814 426.00877995254496,389.71443233778814 426.058779952545,387.9474323377881 C 426.08577995254507,386.16643233778814 424.64977995254503,384.69343233778807 422.88477995254505,384.6584323377881 L 388.23877995254503,384.04943233778806 L 408.20177995254505,378.08343233778805 C 409.9097799525451,377.56843233778807 410.88477995254505,375.7744323377881 410.36777995254505,374.065432337788 C 409.85277995254506,372.3564323377881 408.058779952545,371.37743233778804 406.35177995254503,371.90043233778806 L 369.897779952545,382.801432337788 L 354.26977995254504,277.8224323377881 C 363.30277995254505,273.93543233778803 372.15677995254504,269.23343233778803 380.39477995254504,263.53543233778805 C 430.00977995254505,229.21943233778805 457.308779952545,165.95643233778807 462.262779952545,141.56043233778806 C 467.222779952545,117.17143233778805 467.222779952545,103.11243233778808 461.01777995254497,92.36343233778805 C 454.8137799525449,81.61343233778828 443.6547799525449,72.92743233778828 443.6547799525449,67.56143233778829 M 358.7857799525449,362.9514323377882 C 358.3087799525449,361.79643233778825 357.1817799525449,360.9714323377882 355.8557799525449,360.95043233778824 L 332.9947799525449,360.5444323377883 L 344.4747799525449,357.1124323377883 C 346.1837799525449,356.5954323377882 347.1627799525449,354.80043233778827 346.6397799525449,353.0934323377883 C 346.13377995254496,351.37743233778826 344.3397799525449,350.41243233778835 342.62277995254493,350.9284323377883 L 314.84577995254494,359.22843233778826 L 304.8517799525449,292.09443233778825 C 317.7927799525449,289.83043233778824 332.2517799525449,286.33043233778824 346.5687799525449,280.92743233778833 L 358.7857799525449,362.9514323377882"/>
</svg>
