<?xml version="1.0" ?>
<svg xmlns="http://www.w3.org/2000/svg" xmlns:ev="http://www.w3.org/2001/xml-events" xmlns:xlink="http://www.w3.org/1999/xlink" baseProfile="full" height="1214" id="Слой_1" style="enable-background:new 0 0 1280 1280;" transform="scale(0.11587485515643106 0.11587485515643106) translate(-431.5 -607.0)" version="1.1" viewBox="0 0 863 1214" width="863" x="0px" xml:space="preserve" y="0px">
	<defs/>
	<path d="M 472.45712912139317,1005.4209317857731 C 463.45712912139317,1007.220931785773 455.0571291213932,1008.9209317857731 446.6571291213932,1010.6209317857731 C 434.0571291213932,1013.0209317857732 421.1571291213932,1014.220931785773 409.0571291213932,1018.1209317857731 C 396.35712912139314,1022.1209317857731 383.75712912139323,1023.6209317857731 370.75712912139323,1023.1209317857731 C 368.9571291213933,1023.0209317857732 367.1571291213932,1022.720931785773 365.25712912139323,1022.6209317857731 C 359.4571291213933,1022.220931785773 353.75712912139323,1021.8209317857732 348.5571291213932,1025.720931785773 C 346.45712912139317,1027.320931785773 343.45712912139317,1027.820931785773 340.75712912139323,1028.420931785773 C 331.85712912139326,1030.420931785773 323.0571291213932,1032.520931785773 314.0571291213932,1034.020931785773 C 301.1571291213932,1036.220931785773 288.0571291213932,1038.020931785773 275.0571291213932,1039.720931785773 C 268.2571291213932,1040.620931785773 264.1571291213932,1044.720931785773 260.95712912139317,1050.320931785773 C 259.95712912139317,1052.020931785773 259.2571291213932,1054.1209317857729 257.85712912139314,1055.4209317857728 C 256.7571291213931,1056.4209317857728 254.75712912139312,1056.5209317857727 253.25712912139312,1057.1209317857729 C 253.1571291213931,1055.520931785773 252.6571291213931,1053.820931785773 252.9571291213931,1052.320931785773 C 253.25712912139312,1050.9209317857728 254.3571291213931,1049.720931785773 255.05712912139313,1048.520931785773 C 253.05712912139313,1044.720931785773 249.9571291213931,1043.420931785773 246.25712912139312,1044.520931785773 C 239.4571291213931,1046.420931785773 232.55712912139313,1048.220931785773 225.9571291213931,1050.820931785773 C 221.8571291213931,1052.4209317857728 223.75712912139312,1056.4209317857728 224.1571291213931,1059.6209317857729 C 224.4571291213931,1061.4209317857728 224.25712912139312,1063.2209317857728 224.25712912139312,1065.020931785773 C 222.6571291213931,1064.320931785773 220.9571291213931,1063.6209317857729 219.35712912139314,1062.920931785773 C 218.05712912139313,1062.3209317857732 216.75712912139312,1061.720931785773 215.25712912139312,1061.020931785773 C 215.25712912139312,1060.320931785773 215.35712912139314,1059.520931785773 215.25712912139312,1058.720931785773 C 214.75712912139312,1056.220931785773 214.75712912139312,1052.220931785773 213.35712912139314,1051.620931785773 C 210.85712912139314,1050.620931785773 207.55712912139313,1051.5209317857732 204.65712912139315,1052.120931785773 C 203.75712912139318,1052.3209317857732 203.05712912139313,1054.420931785773 202.85712912139314,1055.720931785773 C 202.55712912139313,1057.720931785773 202.95712912139317,1059.720931785773 202.65712912139315,1061.720931785773 C 202.55712912139313,1062.620931785773 201.55712912139313,1063.920931785773 200.75712912139318,1064.120931785773 C 199.95712912139317,1064.3209317857732 198.8571291213932,1063.220931785773 198.0571291213932,1062.620931785773 C 197.75712912139318,1062.3209317857732 197.75712912139318,1061.720931785773 197.5571291213932,1061.220931785773 C 194.25712912139318,1052.920931785773 194.25712912139318,1052.820931785773 185.25712912139318,1053.320931785773 C 173.25712912139318,1054.020931785773 161.3571291213932,1054.820931785773 149.45712912139317,1055.820931785773 C 145.15712912139315,1056.220931785773 141.0571291213932,1058.020931785773 136.85712912139314,1058.520931785773 C 122.15712912139315,1060.220931785773 107.95712912139317,1066.1209317857729 92.65712912139315,1064.1209317857729 C 89.65712912139315,1063.7209317857728 86.35712912139314,1066.520931785773 83.05712912139313,1067.320931785773 C 81.05712912139313,1067.820931785773 78.65712912139315,1067.9209317857728 76.65712912139315,1067.4209317857728 C 72.15712912139315,1066.320931785773 68.75712912139318,1066.4209317857728 66.05712912139313,1071.0209317857727 C 62.45712912139311,1077.2209317857728 56.75712912139312,1080.0209317857727 49.55712912139313,1080.2209317857728 C 38.75712912139312,1080.4209317857728 28.25712912139312,1079.3209317857727 18.657129121393126,1074.1209317857729 C 16.05712912139313,1072.7209317857728 14.057129121393132,1070.020931785773 12.057129121393132,1067.7209317857728 C 8.657129121393126,1063.9209317857728 5.157129121393126,1060.0209317857727 2.0571291213931318,1056.0209317857727 C -1.1428708786068569,1051.8209317857727 -0.24287087860687961,1047.6209317857727 2.2571291213931204,1043.1209317857727 C 9.357129121393115,1030.2209317857726 20.45712912139311,1025.7209317857726 34.657129121393126,1024.3209317857727 C 64.45712912139311,1021.4209317857726 94.05712912139313,1017.0209317857727 123.85712912139314,1013.9209317857726 C 134.75712912139312,1012.7209317857726 145.75712912139312,1013.7209317857726 156.65712912139315,1012.8209317857727 C 166.05712912139313,1012.0209317857727 175.35712912139314,1010.4209317857726 184.55712912139313,1008.2209317857728 C 186.75712912139312,1007.7209317857728 188.9571291213931,1003.7209317857728 189.65712912139315,1000.9209317857728 C 192.25712912139318,991.0209317857727 198.85712912139314,984.3209317857728 206.45712912139317,978.3209317857728 C 212.45712912139317,973.6209317857728 213.25712912139318,966.3209317857728 215.75712912139318,959.9209317857728 C 221.45712912139317,944.9209317857728 226.65712912139315,929.7209317857728 231.8571291213932,914.5209317857729 C 234.1571291213932,907.9209317857728 235.8571291213932,901.2209317857729 237.95712912139322,894.6209317857729 C 240.55712912139325,886.4209317857728 244.75712912139323,878.5209317857729 245.6571291213932,870.1209317857729 C 247.5571291213932,853.9209317857728 256.25712912139323,840.1209317857729 259.3571291213932,824.4209317857728 C 261.7571291213932,812.4209317857728 264.9571291213932,800.5209317857729 267.8571291213932,788.5209317857729 C 268.5571291213932,785.6209317857729 267.5571291213932,783.5209317857729 266.1571291213932,780.8209317857728 C 262.75712912139323,773.9209317857728 259.25712912139323,766.7209317857728 257.9571291213932,759.2209317857728 C 253.3571291213932,733.0209317857727 249.6571291213932,706.6209317857728 245.75712912139323,680.3209317857728 C 243.95712912139322,668.1209317857728 242.35712912139326,655.9209317857728 240.95712912139322,643.7209317857728 C 240.1571291213932,636.8209317857728 237.8571291213932,630.7209317857728 234.05712912139325,624.8209317857728 C 214.05712912139325,594.0209317857729 198.55712912139325,560.9209317857728 185.15712912139327,526.8209317857728 C 178.7571291213933,510.72093178577273 174.15712912139327,494.0209317857728 171.95712912139328,476.82093178577276 C 171.45712912139328,473.22093178577273 170.85712912139326,469.4209317857728 169.45712912139328,466.22093178577273 C 163.0571291213933,451.52093178577275 163.7571291213933,436.02093178577275 163.45712912139328,420.6209317857727 C 163.0571291213933,396.8209317857727 168.65712912139327,373.8209317857727 173.2571291213933,350.72093178577273 C 177.95712912139328,327.22093178577273 187.5571291213933,305.82093178577276 200.3571291213933,285.82093178577276 C 205.3571291213933,277.9209317857728 211.7571291213933,270.62093178577277 218.3571291213933,264.02093178577275 C 226.3571291213933,255.92093178577272 231.95712912139334,246.02093178577275 234.3571291213933,235.72093178577273 C 236.2571291213933,227.6209317857727 233.45712912139334,217.92093178577272 230.95712912139334,209.42093178577272 C 228.15712912139333,199.92093178577272 223.15712912139333,191.1209317857727 219.55712912139336,181.82093178577273 C 214.35712912139337,168.32093178577273 203.95712912139334,158.32093178577273 196.85712912139337,146.1209317857727 C 185.25712912139335,126.2209317857727 168.35712912139337,111.02093178577272 151.85712912139337,95.7209317857727 C 141.25712912139335,85.92093178577272 127.75712912139335,80.2209317857727 113.55712912139336,76.52093178577272 C 91.25712912139335,70.7209317857727 69.15712912139338,63.72093178577271 48.75712912139335,52.72093178577271 C 48.157129121393325,52.420931785772716 47.457129121393336,52.32093178577271 46.957129121393336,51.920931785772716 C 45.25712912139335,50.920931785772716 43.657129121393325,49.920931785772716 41.957129121393336,48.920931785772716 C 43.55712912139333,47.32093178577272 44.85712912139334,45.12093178577272 46.657129121393325,44.420931785772716 C 61.857129121393314,38.32093178577272 77.45712912139334,34.420931785772716 94.25712912139335,36.02093178577271 C 113.25712912139335,37.82093178577271 132.35712912139337,38.620931785772704 151.35712912139337,40.120931785772704 C 158.35712912139337,40.620931785772704 164.4571291213934,39.2209317857727 170.75712912139335,35.82093178577271 C 178.35712912139337,31.620931785772704 187.35712912139337,29.820931785772707 195.05712912139336,25.720931785772706 C 206.75712912139335,19.42093178577271 219.45712912139334,16.120931785772704 232.15712912139338,12.820931785772707 C 249.85712912139337,8.120931785772704 267.2571291213934,2.320931785772707 285.6571291213934,0.8209317857727072 C 307.0571291213934,-0.97906821422729 328.25712912139335,0.020931785772710043 349.0571291213934,5.420931785772709 C 365.85712912139337,9.720931785772706 381.85712912139337,15.720931785772713 396.0571291213934,26.120931785772704 C 426.85712912139337,48.72093178577271 446.9571291213934,78.62093178577271 458.35712912139337,114.72093178577268 C 463.75712912139335,132.0209317857727 468.6571291213933,149.42093178577267 474.85712912139337,166.42093178577267 C 484.0571291213934,191.82093178577267 495.1571291213933,216.32093178577267 511.85712912139337,237.92093178577267 C 512.6571291213934,238.92093178577267 513.5571291213935,240.12093178577265 514.6571291213934,240.72093178577268 C 525.9571291213933,246.22093178577268 531.9571291213933,256.3209317857727 538.1571291213934,266.42093178577267 C 546.0571291213932,279.12093178577265 554.3571291213934,291.62093178577265 562.3571291213934,304.32093178577264 C 582.3571291213934,336.12093178577265 599.0571291213935,369.7209317857726 613.5571291213935,404.2209317857726 C 625.6571291213934,433.2209317857726 632.8571291213934,463.7209317857726 636.2571291213935,495.0209317857726 C 637.4571291213936,506.42093178577255 638.0571291213935,517.9209317857726 639.2571291213935,529.3209317857726 C 640.2571291213935,538.7209317857726 638.6571291213934,547.5209317857726 633.8571291213934,555.7209317857726 C 633.0571291213935,557.1209317857725 632.3571291213934,558.8209317857726 632.1571291213934,560.4209317857726 C 630.2571291213935,575.2209317857726 621.7571291213935,587.0209317857726 615.3571291213934,599.9209317857726 C 612.9571291213936,604.7209317857726 611.8571291213934,610.2209317857726 610.7571291213935,615.6209317857727 C 608.6571291213934,625.5209317857726 606.8571291213934,635.4209317857726 604.9571291213936,645.4209317857726 C 604.7571291213935,646.7209317857726 604.4571291213936,648.1209317857727 604.7571291213935,649.3209317857726 C 607.3571291213934,660.2209317857726 605.5571291213935,671.1209317857725 604.9571291213936,682.1209317857725 C 604.4571291213936,692.2209317857726 605.8571291213934,702.4209317857725 605.4571291213936,712.5209317857725 C 605.1571291213936,720.1209317857725 603.4571291213936,727.6209317857725 601.8571291213934,735.1209317857725 C 599.4571291213936,746.3209317857726 599.4571291213936,757.4209317857725 601.6571291213934,768.7209317857726 C 604.9571291213933,785.7209317857726 607.1571291213934,802.8209317857726 610.1571291213934,819.9209317857726 C 613.1571291213934,837.1209317857727 616.5571291213935,854.2209317857726 619.7571291213935,871.3209317857726 C 620.0571291213935,872.8209317857726 620.5571291213935,874.2209317857726 620.5571291213935,875.7209317857726 C 620.7571291213935,892.4209317857726 628.0571291213935,906.2209317857726 639.4571291213933,917.4209317857726 C 645.4571291213933,923.3209317857726 653.6571291213934,927.3209317857726 661.4571291213933,931.1209317857727 C 666.9571291213933,933.8209317857727 675.5571291213935,943.9209317857726 675.8571291213934,950.2209317857727 C 675.9571291213933,951.8209317857727 676.9571291213933,954.0209317857726 678.2571291213933,954.8209317857727 C 681.8571291213934,956.8209317857727 685.6571291213934,959.0209317857727 689.5571291213932,959.7209317857727 C 699.7571291213933,961.6209317857727 707.0571291213932,968.0209317857726 714.8571291213932,973.8209317857727 C 719.5571291213932,977.3209317857727 724.8571291213932,980.2209317857727 729.6571291213932,983.6209317857727 C 736.3571291213932,988.3209317857727 742.7571291213933,993.3209317857727 749.3571291213932,998.1209317857727 C 759.5571291213932,1005.5209317857727 770.0571291213932,1012.5209317857727 780.0571291213932,1020.2209317857726 C 786.0571291213932,1024.8209317857725 791.3571291213932,1030.2209317857726 797.0571291213932,1035.1209317857727 C 801.1571291213934,1038.7209317857726 805.6571291213934,1042.0209317857727 809.5571291213932,1045.8209317857727 C 813.6571291213934,1049.9209317857726 817.1571291213934,1054.5209317857727 821.1571291213934,1058.7209317857728 C 829.6571291213934,1067.5209317857727 838.2571291213933,1076.2209317857728 846.8571291213934,1085.0209317857727 C 851.1571291213934,1089.4209317857728 856.3571291213934,1093.2209317857728 859.5571291213935,1098.2209317857728 C 861.9571291213936,1101.9209317857728 863.1571291213934,1107.3209317857727 862.7571291213935,1111.7209317857728 C 861.2571291213935,1127.6209317857729 855.2571291213935,1142.0209317857727 845.1571291213936,1154.5209317857727 C 842.3571291213937,1158.0209317857727 838.7571291213935,1160.9209317857728 834.8571291213937,1164.7209317857728 C 832.3571291213937,1160.2209317857728 830.3571291213937,1157.2209317857728 828.9571291213936,1153.9209317857728 C 823.8571291213937,1142.4209317857728 817.4571291213936,1132.2209317857728 808.6571291213936,1122.9209317857728 C 800.4571291213936,1114.320931785773 794.6571291213936,1103.5209317857727 787.1571291213936,1094.2209317857728 C 782.6571291213936,1088.5209317857727 777.0571291213935,1083.7209317857728 771.8571291213937,1078.6209317857729 C 766.0571291213937,1073.020931785773 760.2571291213935,1067.4209317857728 754.4571291213936,1061.9209317857728 C 753.9571291213936,1061.4209317857728 753.5571291213937,1060.9209317857728 753.0571291213937,1060.5209317857727 C 739.8571291213937,1050.5209317857727 726.5571291213937,1040.6209317857727 713.4571291213936,1030.5209317857727 C 699.1571291213936,1019.6209317857727 683.1571291213936,1012.0209317857727 666.3571291213937,1005.9209317857728 C 662.4571291213936,1004.5209317857727 660.7571291213935,1005.9209317857728 660.9571291213936,1010.0209317857727 C 661.3571291213937,1016.6209317857727 661.7571291213935,1023.3209317857727 661.9571291213936,1029.9209317857728 C 661.9571291213936,1031.2209317857728 660.7571291213935,1032.6209317857729 660.1571291213936,1034.0209317857727 C 658.9571291213936,1033.0209317857727 657.0571291213937,1032.3209317857727 656.6571291213936,1031.0209317857727 C 654.1571291213936,1023.9209317857728 651.3571291213937,1017.2209317857728 645.9571291213936,1011.6209317857727 C 644.0571291213937,1009.6209317857727 644.1571291213936,1005.8209317857727 643.5571291213937,1002.7209317857726 C 643.1571291213936,1000.7209317857726 642.9571291213936,998.7209317857726 642.6571291213936,996.7209317857726 C 642.1571291213936,996.6209317857727 641.6571291213936,996.6209317857727 641.1571291213936,996.5209317857725 C 640.0571291213937,999.3209317857725 639.1571291213936,1002.2209317857726 637.8571291213937,1005.0209317857725 C 637.3571291213937,1006.0209317857725 636.2571291213937,1006.7209317857726 635.3571291213937,1007.5209317857725 C 634.6571291213936,1006.5209317857725 633.4571291213938,1005.7209317857726 633.2571291213937,1004.6209317857724 C 632.7571291213937,1002.2209317857723 632.7571291213937,999.8209317857725 632.5571291213937,997.5209317857725 C 625.8571291213937,997.5209317857725 624.1571291213936,998.6209317857724 625.2571291213937,1004.2209317857726 C 627.3571291213937,1014.8209317857725 630.0571291213937,1025.3209317857725 633.2571291213937,1035.5209317857725 C 640.5571291213937,1058.3209317857725 647.2571291213937,1081.4209317857726 656.2571291213937,1103.5209317857725 C 664.6571291213936,1124.1209317857724 671.0571291213937,1145.2209317857726 675.8571291213937,1166.8209317857725 C 677.4571291213938,1174.2209317857726 677.3571291213937,1182.0209317857725 677.0571291213937,1189.6209317857724 C 676.9571291213938,1192.4209317857724 674.6571291213938,1196.4209317857724 672.2571291213937,1197.7209317857723 C 666.1571291213938,1200.9209317857724 659.6571291213938,1204.2209317857723 652.9571291213938,1205.0209317857723 C 641.3571291213939,1206.4209317857724 629.4571291213938,1205.9209317857724 617.7571291213937,1206.3209317857722 C 616.6571291213938,1206.3209317857722 615.3571291213939,1206.4209317857722 614.4571291213938,1207.0209317857723 C 604.6571291213938,1214.3209317857722 593.2571291213937,1214.2209317857723 582.9571291213938,1211.0209317857723 C 569.7571291213937,1206.8209317857722 556.4571291213938,1202.7209317857723 543.1571291213938,1198.8209317857722 C 528.757129121394,1194.6209317857722 519.9571291213938,1185.2209317857723 515.8571291213939,1170.5209317857723 C 509.45712912139396,1147.3209317857722 501.7571291213939,1124.4209317857724 495.45712912139396,1101.2209317857723 C 489.657129121394,1080.0209317857723 484.95712912139396,1058.6209317857724 479.85712912139394,1037.2209317857723 C 477.0571291213932,1026.3209317857732 474.85712912139314,1016.0209317857732 472.45712912139317,1005.4209317857731 M 314.0571291213932,676.6209317857731 C 311.5571291213932,682.2209317857731 314.45712912139317,687.9209317857731 312.45712912139317,694.1209317857731 C 308.45712912139317,706.5209317857731 307.5571291213932,719.8209317857732 304.7571291213931,732.6209317857731 C 302.2571291213931,743.8209317857732 299.4571291213931,755.0209317857731 295.4571291213931,765.6209317857731 C 290.6571291213931,778.3209317857732 284.1571291213931,790.4209317857731 278.8571291213931,802.9209317857731 C 273.5571291213931,815.320931785773 272.3571291213931,828.9209317857731 266.75712912139306,841.5209317857731 C 260.65712912139304,855.4209317857731 257.65712912139304,870.6209317857731 253.45712912139305,885.320931785773 C 252.05712912139307,890.220931785773 250.85712912139303,895.320931785773 249.75712912139306,900.320931785773 C 247.8571291213931,908.9209317857731 246.15712912139304,917.5209317857731 244.3571291213931,926.0209317857731 C 241.75712912139306,938.2209317857731 238.75712912139306,950.2209317857731 236.6571291213931,962.5209317857731 C 236.05712912139307,965.7209317857731 237.25712912139312,970.0209317857731 239.1571291213931,972.7209317857731 C 244.4571291213931,980.3209317857732 250.55712912139307,987.4209317857732 256.5571291213931,994.5209317857732 C 257.6571291213931,995.8209317857732 259.6571291213931,996.9209317857733 261.25712912139306,996.9209317857733 C 269.75712912139306,996.6209317857733 278.3571291213931,996.9209317857733 286.5571291213931,995.1209317857733 C 303.35712912139303,991.4209317857733 320.0571291213931,988.5209317857733 337.2571291213931,988.0209317857733 C 342.45712912139317,987.8209317857733 347.5571291213931,986.0209317857733 352.6571291213931,984.7209317857734 C 358.0571291213931,983.3209317857734 363.45712912139305,980.0209317857733 368.7571291213931,980.2209317857734 C 387.95712912139317,980.9209317857734 406.45712912139317,977.2209317857734 424.95712912139317,973.4209317857734 C 436.2571291213931,971.0209317857734 447.45712912139317,967.8209317857734 458.7571291213931,965.0209317857734 C 461.6571291213931,964.2209317857735 462.6571291213931,962.6209317857735 461.6571291213931,959.4209317857734 C 459.85712912139314,953.9209317857734 458.85712912139314,948.1209317857735 456.95712912139305,942.6209317857735 C 442.35712912139303,899.1209317857735 433.5571291213931,854.2209317857735 423.1571291213931,809.7209317857735 C 420.0571291213931,796.6209317857735 417.0571291213931,783.5209317857734 413.5571291213931,770.5209317857734 C 412.7571291213931,767.6209317857735 410.35712912139303,764.9209317857734 408.1571291213931,762.7209317857735 C 401.35712912139314,755.9209317857735 393.95712912139305,749.7209317857735 387.2571291213931,742.8209317857735 C 381.7571291213931,737.1209317857735 377.2571291213931,730.4209317857735 371.85712912139314,724.6209317857735 C 363.7571291213931,715.8209317857735 354.5571291213932,708.0209317857734 347.1571291213931,698.7209317857735 C 338.35712912139314,687.7209317857731 327.25712912139323,681.1209317857731 314.0571291213932,676.6209317857731 M 565.4571291213931,739.3209317857732 C 564.9571291213931,739.2209317857731 564.3571291213932,739.2209317857731 563.8571291213932,739.1209317857731 C 562.6571291213932,745.4209317857731 559.8571291213932,751.8209317857732 560.5571291213932,757.9209317857731 C 561.6571291213932,768.1209317857731 564.6571291213932,778.1209317857731 567.3571291213932,788.0209317857731 C 577.1571291213932,824.6209317857731 587.1571291213932,861.2209317857731 597.1571291213932,897.820931785773 C 598.8571291213932,904.120931785773 600.6571291213932,910.4209317857731 602.4571291213931,916.720931785773 C 602.9571291213931,916.820931785773 603.4571291213931,916.9209317857731 603.9571291213931,917.120931785773 C 605.4571291213931,914.920931785773 607.057129121393,912.720931785773 608.357129121393,910.420931785773 C 611.857129121393,904.2209317857729 610.857129121393,898.020931785773 609.357129121393,891.2209317857729 C 606.2571291213931,877.6209317857729 604.6571291213929,863.7209317857729 601.7571291213931,850.1209317857729 C 597.557129121393,831.0209317857729 593.357129121393,811.8209317857729 587.857129121393,793.0209317857729 C 584.057129121393,779.9209317857728 582.557129121393,765.7209317857729 572.857129121393,754.5209317857729 C 569.2571291213933,750.4209317857732 567.8571291213932,744.4209317857732 565.4571291213931,739.3209317857732"/>
</svg>
