<?xml version="1.0" ?>
<svg xmlns="http://www.w3.org/2000/svg" xmlns:ev="http://www.w3.org/2001/xml-events" xmlns:xlink="http://www.w3.org/1999/xlink" baseProfile="full" height="860" id="Слой_1" style="enable-background:new 0 0 1280 1280;" transform="scale(0.13458950201884254 0.13458950201884254) translate(-371.5 -430.0)" version="1.1" viewBox="0 0 743 860" width="743" x="0px" xml:space="preserve" y="0px">
	<defs/>
	<path d="M 125.7154549875658,106.40631415084673 C 119.2154549875658,99.50631415084675 112.7154549875658,92.70631415084674 106.31545498756583,85.8063141508467 C 93.01545498756582,71.60631415084671 79.61545498756584,57.406314150846725 66.51545498756582,43.00631415084669 C 62.61545498756584,38.70631415084668 59.215454987565806,33.9063141508467 55.915454987565795,29.106314150846686 C 52.11545498756578,23.70631415084668 50.11545498756578,17.50631415084669 50.215454987565806,10.806314150846674 C 50.31545498756583,6.9063141508466686 50.915454987565795,2.9063141508466686 54.715454987565806,0.9063141508466686 C 58.715454987565806,-1.29368584915332 62.31545498756583,0.9063141508466686 65.2154549875658,3.3063141508466742 C 70.61545498756578,7.9063141508466686 75.9154549875658,12.806314150846674 81.01545498756582,17.90631415084667 C 97.9154549875658,34.806314150846674 116.7154549875658,49.40631415084667 135.61545498756584,63.90631415084667 C 142.61545498756584,69.20631415084668 149.51545498756582,74.80631415084665 156.51545498756582,80.20631415084668 C 157.81545498756583,81.20631415084668 159.11545498756584,82.10631415084666 161.01545498756582,82.60631415084666 C 160.7154549875658,81.80631415084665 160.4154549875658,80.90631415084667 160.01545498756582,80.10631415084666 C 153.9154549875658,69.60631415084666 147.51545498756582,59.306314150846646 139.4154549875658,50.10631415084666 C 133.7154549875658,43.50631415084666 128.9154549875658,35.90631415084667 124.01545498756582,28.606314150846657 C 120.81545498756583,23.90631415084667 120.2154549875658,18.306314150846646 120.81545498756583,12.806314150846646 C 121.41545498756585,7.2063141508466515 125.01545498756582,5.306314150846646 130.01545498756582,8.206314150846652 C 132.7154549875658,9.806314150846646 135.2154549875658,11.806314150846646 137.4154549875658,14.106314150846657 C 154.01545498756582,31.20631415084665 170.51545498756582,48.306314150846646 187.11545498756578,65.50631415084663 C 196.01545498756576,74.70631415084662 205.01545498756576,83.80631415084665 214.01545498756576,93.00631415084663 C 235.81545498756577,115.50631415084663 257.71545498756575,137.9063141508466 279.4154549875658,160.50631415084663 C 292.4154549875658,174.10631415084666 305.21545498756575,187.9063141508466 318.0154549875658,201.70631415084662 C 318.8154549875658,202.50631415084663 319.11545498756584,203.70631415084662 320.11545498756584,205.4063141508466 C 321.9154549875658,201.1063141508466 320.0154549875658,197.8063141508466 322.5154549875658,195.4063141508466 C 324.71545498756586,194.70631415084662 325.5154549875658,196.4063141508466 326.5154549875658,197.6063141508466 C 329.9154549875658,201.9063141508466 332.9154549875658,206.6063141508466 336.71545498756586,210.6063141508466 C 347.5154549875658,221.8063141508466 356.0154549875658,234.8063141508466 364.8154549875659,247.50631415084658 C 366.4154549875659,249.90631415084655 368.01545498756593,252.50631415084658 371.71545498756586,252.8063141508466 C 371.11545498756584,250.00631415084658 370.4154549875659,247.50631415084658 370.21545498756586,244.9063141508466 C 369.71545498756586,239.20631415084662 371.61545498756584,237.4063141508466 377.11545498756584,238.6063141508466 C 382.5154549875658,239.8063141508466 387.8154549875659,241.20631415084662 393.11545498756584,242.6063141508466 C 393.9154549875658,242.8063141508466 394.71545498756586,242.9063141508466 396.11545498756584,243.20631415084662 C 392.4154549875658,236.70631415084662 388.21545498756586,231.4063141508466 384.0154549875658,226.20631415084662 C 379.9154549875658,221.20631415084662 378.71545498756586,215.50631415084663 380.21545498756586,209.30631415084665 C 380.61545498756584,207.50631415084663 381.4154549875659,205.80631415084665 382.21545498756586,204.20631415084662 C 383.4154549875659,202.00631415084663 385.21545498756586,200.80631415084665 387.9154549875659,200.80631415084665 C 390.51545498756593,200.90631415084667 393.21545498756586,200.80631415084665 396.4154549875659,200.80631415084665 C 395.51545498756593,199.00631415084663 394.8154549875659,197.50631415084663 394.21545498756586,196.10631415084666 C 391.11545498756584,189.60631415084666 391.8154549875659,183.50631415084663 395.71545498756586,177.60631415084666 C 399.71545498756586,171.60631415084666 405.8154549875659,169.90631415084667 412.3154549875659,173.10631415084666 C 416.8154549875659,175.30631415084665 421.21545498756586,177.70631415084668 425.61545498756584,179.90631415084667 C 426.61545498756584,180.40631415084667 427.61545498756584,180.70631415084668 429.5154549875658,181.40631415084667 C 428.71545498756586,179.5063141508467 428.3154549875658,178.30631415084665 427.71545498756586,177.20631415084668 C 424.11545498756584,170.10631415084666 420.5154549875658,162.90631415084667 418.8154549875659,155.0063141508467 C 417.11545498756584,147.6063141508467 418.8154549875659,140.40631415084667 421.3154549875659,133.5063141508467 C 422.51545498756593,130.1063141508467 425.71545498756586,129.5063141508467 428.61545498756584,131.90631415084667 C 430.0154549875658,133.0063141508467 431.21545498756586,134.5063141508467 432.21545498756586,136.0063141508467 C 436.4154549875659,142.20631415084668 440.71545498756586,148.40631415084667 444.4154549875659,154.90631415084667 C 449.01545498756593,162.90631415084667 455.8154549875659,168.70631415084668 463.3154549875659,175.40631415084667 C 462.61545498756584,173.10631415084666 462.21545498756586,171.80631415084665 461.71545498756586,170.5063141508467 C 457.61545498756584,159.8063141508467 453.0154549875658,149.1063141508467 451.9154549875659,137.6063141508467 C 450.8154549875659,126.00631415084669 450.51545498756593,114.3063141508467 450.3154549875659,102.70631415084674 C 450.3154549875659,100.10631415084671 451.61545498756584,97.20631415084674 453.11545498756584,94.90631415084673 C 454.71545498756586,92.3063141508467 457.11545498756584,92.3063141508467 459.5154549875658,94.20631415084674 C 460.4154549875658,94.90631415084673 461.21545498756586,95.80631415084676 461.8154549875658,96.80631415084676 C 470.71545498756575,111.90631415084678 481.0154549875658,126.10631415084677 488.3154549875658,142.00631415084675 C 489.9154549875658,145.60631415084677 491.8154549875658,149.00631415084675 494.21545498756575,152.40631415084673 C 493.8154549875658,149.1063141508467 493.5154549875657,145.8063141508467 493.1154549875657,142.6063141508467 C 491.71545498756575,131.8063141508467 490.6154549875657,121.10631415084671 492.3154549875658,110.3063141508467 C 493.5154549875658,102.90631415084673 494.9154549875658,95.60631415084671 496.6154549875657,88.3063141508467 C 497.21545498756575,85.70631415084668 497.9154549875657,82.20631415084668 501.4154549875657,82.00631415084669 C 505.21545498756564,81.8063141508467 505.4154549875657,85.50631415084669 506.21545498756564,88.00631415084669 C 510.31545498756566,100.50631415084669 514.2154549875656,113.00631415084669 518.1154549875656,125.50631415084669 C 518.9154549875656,128.0063141508467 519.7154549875656,130.5063141508467 521.2154549875656,133.1063141508467 C 521.5154549875656,130.70631415084674 521.9154549875657,128.40631415084673 522.1154549875656,126.00631415084669 C 523.2154549875656,115.20631415084668 524.1154549875656,104.50631415084669 525.3154549875657,93.70631415084668 C 525.6154549875656,91.3063141508467 526.5154549875657,88.8063141508467 527.5154549875657,86.60631415084666 C 528.8154549875657,83.80631415084665 531.1154549875657,82.50631415084663 532.9154549875657,83.00631415084663 C 535.4154549875657,83.80631415084665 535.7154549875656,86.00631415084663 536.1154549875657,88.20631415084662 C 536.2154549875657,89.00631415084663 536.2154549875657,89.90631415084661 536.2154549875657,90.70631415084662 C 536.0154549875657,106.30631415084665 538.5154549875657,121.6063141508466 541.5154549875657,136.70631415084662 C 544.1154549875657,149.9063141508466 547.5154549875657,162.9063141508466 550.4154549875657,176.1063141508466 C 552.9154549875657,187.8063141508466 558.3154549875657,198.3063141508466 563.7154549875656,208.9063141508466 C 570.0154549875656,221.4063141508466 576.7154549875656,233.6063141508466 583.2154549875656,246.00631415084663 C 589.9154549875657,258.70631415084665 594.7154549875656,272.20631415084665 599.1154549875656,285.8063141508467 C 599.8154549875657,287.9063141508467 600.5154549875656,289.9063141508467 601.2154549875656,291.9063141508467 C 603.6154549875656,299.8063141508467 608.0154549875656,305.9063141508466 614.1154549875656,311.60631415084663 C 625.1154549875656,321.70631415084665 631.8154549875657,334.4063141508466 633.2154549875656,349.5063141508466 C 633.7154549875656,355.0063141508466 634.5154549875656,360.4063141508466 635.3154549875657,366.10631415084663 C 638.5154549875657,366.8063141508467 641.5154549875657,367.5063141508466 644.6154549875656,368.10631415084663 C 664.7154549875656,372.10631415084663 681.0154549875656,382.9063141508466 695.8154549875657,396.70631415084665 C 712.2154549875656,412.10631415084663 721.0154549875657,431.10631415084663 723.4154549875657,453.3063141508467 C 724.5154549875657,463.20631415084665 725.2154549875656,473.20631415084665 724.5154549875657,483.20631415084665 C 724.4154549875657,484.8063141508467 725.0154549875657,486.4063141508467 725.6154549875657,487.9063141508467 C 726.1154549875657,489.3063141508467 727.0154549875657,490.5063141508467 727.9154549875657,491.8063141508467 C 735.9154549875657,503.4063141508467 739.7154549875656,516.7063141508467 742.5154549875657,530.3063141508467 C 743.4154549875657,534.5063141508467 741.8154549875657,536.1063141508466 737.5154549875657,536.0063141508467 C 734.5154549875657,535.9063141508467 732.6154549875657,534.1063141508467 730.5154549875657,532.4063141508467 C 723.8154549875657,526.9063141508467 717.3154549875657,521.2063141508467 710.6154549875657,515.6063141508467 C 707.7154549875657,513.1063141508467 704.7154549875657,510.70631415084677 701.8154549875658,508.3063141508468 C 697.2154549875657,504.50631415084683 691.9154549875658,502.8063141508468 686.1154549875657,503.00631415084683 C 681.9154549875657,503.2063141508469 677.8154549875658,503.4063141508468 673.7154549875657,504.00631415084683 C 669.1154549875657,504.60631415084686 665.2154549875657,506.9063141508468 661.9154549875658,510.10631415084686 C 656.4154549875658,515.6063141508469 652.4154549875658,522.1063141508469 650.4154549875658,529.7063141508469 C 645.3154549875658,548.9063141508469 637.9154549875658,567.3063141508469 628.1154549875658,584.6063141508469 C 624.8154549875659,590.3063141508469 620.4154549875658,595.5063141508468 616.2154549875659,600.6063141508469 C 605.8154549875659,613.6063141508469 595.2154549875659,626.6063141508469 582.3154549875659,637.2063141508469 C 572.9154549875659,644.9063141508469 562.8154549875659,651.8063141508469 553.1154549875658,659.0063141508468 C 548.6154549875658,662.4063141508468 544.1154549875658,665.9063141508468 539.5154549875658,669.2063141508469 C 536.8154549875658,671.2063141508469 535.2154549875659,673.8063141508469 534.6154549875658,677.0063141508468 C 534.0154549875658,680.1063141508469 533.6154549875658,683.2063141508469 533.2154549875659,686.4063141508468 C 532.9154549875659,688.9063141508468 533.9154549875659,690.9063141508468 535.9154549875659,692.5063141508468 C 542.8154549875659,698.0063141508468 550.0154549875659,702.9063141508468 558.4154549875659,706.2063141508469 C 567.5154549875659,709.7063141508469 576.5154549875659,713.9063141508469 585.4154549875659,717.9063141508469 C 590.0154549875659,720.006314150847 594.0154549875659,723.006314150847 597.3154549875659,726.8063141508469 C 604.1154549875658,734.4063141508469 611.1154549875658,741.8063141508469 616.1154549875658,750.7063141508469 C 620.0154549875658,757.6063141508469 623.7154549875659,764.8063141508469 627.1154549875658,772.0063141508468 C 629.8154549875659,777.7063141508469 632.0154549875658,783.6063141508469 634.2154549875659,789.5063141508468 C 637.7154549875659,798.6063141508469 634.1154549875658,806.8063141508468 630.3154549875659,814.8063141508469 C 629.9154549875659,815.706314150847 628.6154549875658,816.206314150847 627.7154549875659,816.9063141508468 C 625.2154549875659,814.8063141508469 626.0154549875658,812.4063141508468 626.3154549875659,810.2063141508468 C 626.5154549875659,808.6063141508467 627.1154549875658,807.0063141508467 627.4154549875659,805.3063141508468 C 628.0154549875659,802.2063141508468 627.4154549875659,799.3063141508468 624.9154549875659,797.1063141508467 C 622.2154549875659,794.7063141508468 620.8154549875659,791.7063141508468 620.0154549875659,788.1063141508467 C 618.3154549875659,780.2063141508468 614.3154549875659,773.2063141508468 610.8154549875659,766.1063141508467 C 610.3154549875659,765.1063141508467 609.4154549875659,764.4063141508467 608.8154549875659,763.6063141508467 C 606.8154549875659,763.8063141508468 606.3154549875659,765.0063141508467 606.2154549875659,766.4063141508467 C 606.1154549875658,768.2063141508467 606.0154549875658,770.1063141508467 606.0154549875658,771.9063141508467 C 605.9154549875658,778.0063141508467 605.7154549875659,781.5063141508467 595.7154549875659,783.5063141508467 C 594.0154549875658,779.8063141508467 598.3154549875659,777.7063141508468 597.9154549875659,774.0063141508467 C 597.5154549875659,773.8063141508467 596.9154549875659,773.4063141508467 596.2154549875659,773.1063141508467 C 593.1154549875658,771.7063141508468 591.6154549875658,770.2063141508468 592.5154549875658,767.0063141508467 C 594.5154549875658,759.9063141508467 592.2154549875659,754.8063141508467 586.5154549875658,750.6063141508467 C 585.0154549875658,749.5063141508467 584.1154549875658,747.5063141508467 583.0154549875658,745.8063141508468 C 582.0154549875658,744.3063141508468 581.1154549875658,742.7063141508468 580.0154549875658,740.8063141508468 C 579.0154549875658,741.5063141508468 578.3154549875658,741.9063141508468 577.9154549875658,742.5063141508468 C 575.5154549875658,745.7063141508469 572.6154549875658,747.2063141508469 568.4154549875658,746.7063141508469 C 565.6154549875658,746.3063141508469 560.3154549875658,750.7063141508469 560.0154549875658,753.3063141508469 C 559.9154549875658,754.2063141508469 560.3154549875658,755.3063141508469 560.9154549875658,756.1063141508469 C 562.9154549875658,759.2063141508469 565.0154549875658,762.2063141508469 567.1154549875658,765.2063141508469 C 569.1154549875658,768.1063141508469 571.4154549875658,770.7063141508469 573.2154549875659,773.7063141508469 C 576.1154549875658,778.7063141508469 579.0154549875658,783.8063141508469 581.4154549875659,789.1063141508469 C 583.7154549875659,794.1063141508469 583.115454987566,799.5063141508468 581.8154549875659,804.8063141508469 C 581.5154549875659,806.1063141508469 580.1154549875658,807.3063141508469 578.9154549875659,808.006314150847 C 577.9154549875659,808.606314150847 576.115454987566,808.9063141508469 575.3154549875659,808.3063141508469 C 574.6154549875658,807.8063141508469 574.3154549875659,805.9063141508469 574.7154549875659,804.8063141508469 C 576.1154549875658,800.2063141508469 575.0154549875658,795.9063141508469 573.8154549875659,791.506314150847 C 573.4154549875659,790.206314150847 572.5154549875659,789.006314150847 571.6154549875658,787.4063141508469 C 570.4154549875658,788.3063141508469 569.6154549875658,788.9063141508469 568.9154549875658,789.506314150847 C 565.5154549875658,792.006314150847 564.0154549875658,791.8063141508469 561.5154549875658,788.4063141508469 C 560.9154549875658,787.606314150847 560.3154549875658,786.8063141508469 559.9154549875658,785.9063141508469 C 556.6154549875658,779.106314150847 552.3154549875658,772.9063141508469 547.5154549875658,767.2063141508469 C 544.9154549875658,764.2063141508469 542.1154549875658,761.4063141508469 539.1154549875658,758.8063141508469 C 535.7154549875659,755.8063141508469 532.1154549875658,753.006314150847 528.0154549875658,749.6063141508469 C 529.3154549875658,755.1063141508469 530.7154549875659,759.9063141508468 533.1154549875658,764.5063141508468 C 535.9154549875658,769.8063141508468 538.4154549875658,775.3063141508468 540.4154549875658,780.9063141508468 C 541.3154549875658,783.4063141508468 540.9154549875658,786.5063141508468 540.7154549875657,789.2063141508468 C 540.5154549875657,791.0063141508467 539.6154549875657,793.0063141508467 537.3154549875658,792.8063141508468 C 534.7154549875657,792.6063141508467 535.0154549875658,790.3063141508468 534.9154549875658,788.6063141508467 C 534.7154549875657,786.1063141508467 535.0154549875658,783.6063141508467 534.6154549875658,781.2063141508468 C 533.9154549875658,777.2063141508468 533.5154549875658,777.1063141508467 529.3154549875659,777.4063141508468 C 525.1154549875658,777.7063141508468 523.6154549875658,776.5063141508468 524.2154549875659,772.4063141508468 C 524.7154549875659,768.5063141508468 524.0154549875658,765.4063141508468 521.6154549875658,762.2063141508468 C 520.2154549875659,760.3063141508468 519.9154549875658,757.6063141508467 519.3154549875659,755.2063141508468 C 518.9154549875659,753.8063141508468 518.7154549875659,752.4063141508468 518.4154549875659,750.6063141508467 C 515.2154549875659,751.9063141508467 512.4154549875659,752.9063141508467 509.71545498756586,754.1063141508467 C 508.8154549875659,754.5063141508467 508.11545498756584,755.3063141508468 507.5154549875658,756.0063141508467 C 505.0154549875658,758.9063141508467 502.71545498756586,761.9063141508467 500.11545498756584,764.7063141508468 C 497.3154549875659,767.7063141508468 493.0154549875658,767.1063141508467 491.0154549875658,763.5063141508467 C 490.5154549875658,762.6063141508467 490.3154549875658,761.6063141508467 490.0154549875658,760.7063141508468 C 489.11545498756584,757.8063141508468 487.11545498756584,756.5063141508467 484.11545498756584,756.2063141508468 C 480.9154549875658,755.8063141508468 479.5154549875658,756.9063141508468 479.3154549875659,760.3063141508468 C 479.21545498756586,762.3063141508468 479.3154549875659,764.2063141508468 479.3154549875659,766.2063141508468 C 473.01545498756593,766.2063141508468 470.51545498756593,762.6063141508467 472.71545498756586,756.4063141508468 C 473.61545498756584,753.9063141508468 475.3154549875659,752.1063141508469 477.71545498756586,751.1063141508469 C 479.11545498756584,750.5063141508468 480.61545498756584,750.2063141508469 481.9154549875659,749.5063141508468 C 485.9154549875659,747.3063141508468 489.3154549875659,747.7063141508469 492.71545498756586,751.1063141508469 C 495.11545498756584,753.6063141508469 497.21545498756586,753.5063141508468 499.0154549875658,750.8063141508469 C 501.61545498756584,746.8063141508469 504.71545498756586,743.506314150847 509.0154549875658,740.8063141508469 C 508.0154549875658,739.7063141508469 507.3154549875658,738.8063141508469 506.5154549875658,738.1063141508469 C 493.5154549875658,727.4063141508468 480.4154549875658,716.8063141508469 467.4154549875658,706.1063141508469 C 465.61545498756584,704.6063141508469 463.9154549875658,704.4063141508468 461.8154549875658,704.9063141508468 C 438.1154549875657,710.7063141508468 414.3154549875658,716.5063141508468 391.3154549875658,724.9063141508468 C 387.8154549875658,726.2063141508468 384.8154549875658,727.8063141508468 382.71545498756575,731.2063141508468 C 360.71545498756575,765.8063141508468 338.3154549875658,800.0063141508467 318.9154549875658,836.2063141508468 C 317.4154549875658,839.0063141508467 316.21545498756575,841.9063141508468 314.61545498756584,844.7063141508468 C 313.0154549875658,847.4063141508468 311.5154549875658,850.2063141508468 309.5154549875658,852.7063141508468 C 303.61545498756584,860.1063141508469 295.4154549875658,861.1063141508469 288.0154549875658,855.2063141508468 C 285.61545498756584,853.3063141508467 283.71545498756586,850.7063141508468 281.3154549875658,848.1063141508469 C 280.4154549875658,848.9063141508468 279.3154549875658,849.9063141508468 278.21545498756575,850.8063141508469 C 277.21545498756575,851.6063141508469 276.21545498756575,852.506314150847 275.0154549875657,853.206314150847 C 269.1154549875657,856.8063141508469 264.1154549875657,855.506314150847 261.6154549875657,849.1063141508471 C 260.0154549875657,845.0063141508472 259.5154549875657,840.406314150847 258.6154549875657,836.0063141508472 C 258.3154549875658,834.6063141508471 258.4154549875657,833.0063141508472 258.3154549875658,831.1063141508471 C 252.31545498756577,829.5063141508472 249.01545498756582,824.8063141508471 246.61545498756573,819.6063141508471 C 237.81545498756572,820.5063141508472 237.81545498756572,820.5063141508472 230.21545498756575,813.406314150847 C 228.31545498756577,814.3063141508471 226.51545498756576,815.406314150847 224.51545498756576,816.3063141508471 C 219.91545498756574,818.3063141508471 218.01545498756576,817.406314150847 216.31545498756577,812.6063141508471 C 216.11545498756578,812.1063141508471 215.9154549875658,811.7063141508471 215.51545498756576,810.906314150847 C 214.31545498756577,811.5063141508471 213.21545498756575,812.1063141508471 212.11545498756578,812.706314150847 C 207.31545498756577,815.406314150847 202.61545498756578,818.206314150847 197.7154549875658,820.706314150847 C 192.31545498756583,823.506314150847 186.61545498756578,823.906314150847 180.81545498756583,821.706314150847 C 179.2154549875658,821.1063141508471 177.81545498756583,820.906314150847 176.11545498756584,821.506314150847 C 166.41545498756585,825.1063141508469 164.51545498756582,824.6063141508469 157.61545498756584,817.006314150847 C 156.71545498756586,817.3063141508469 155.61545498756584,817.506314150847 154.51545498756582,817.906314150847 C 150.11545498756584,819.506314150847 145.7154549875658,819.3063141508471 141.2154549875658,818.3063141508471 C 138.61545498756578,817.7063141508472 135.9154549875658,816.7063141508472 133.4154549875658,817.0063141508472 C 126.9154549875658,817.7063141508472 121.9154549875658,815.8063141508471 118.61545498756578,809.5063141508472 C 116.81545498756577,810.1063141508472 115.11545498756578,810.8063141508471 113.4154549875658,811.1063141508472 C 110.01545498756582,811.8063141508472 106.61545498756578,812.9063141508472 103.2154549875658,812.8063141508472 C 100.51545498756582,812.7063141508472 97.7154549875658,811.6063141508472 95.31545498756583,810.2063141508472 C 91.01545498756582,807.6063141508472 90.91545498756585,803.5063141508472 94.91545498756585,800.4063141508473 C 98.31545498756583,797.7063141508472 101.91545498756585,795.4063141508473 105.41545498756585,792.8063141508472 C 106.71545498756586,791.8063141508472 108.01545498756587,790.8063141508472 109.91545498756585,789.3063141508472 C 105.11545498756584,788.1063141508472 102.01545498756587,785.8063141508472 100.41545498756585,781.6063141508472 C 98.81545498756583,777.5063141508472 99.41545498756585,774.1063141508472 102.61545498756584,771.2063141508472 C 104.11545498756584,769.9063141508473 105.81545498756583,768.8063141508472 107.61545498756584,767.9063141508473 C 141.11545498756584,752.0063141508473 174.01545498756582,734.8063141508472 206.61545498756584,717.0063141508473 C 230.01545498756582,704.3063141508472 253.71545498756586,692.0063141508473 276.8154549875659,678.9063141508473 C 296.11545498756584,668.0063141508473 314.8154549875659,656.2063141508472 333.71545498756586,644.7063141508472 C 345.9154549875659,637.3063141508472 354.0154549875658,626.1063141508472 360.8154549875659,613.9063141508473 C 362.9154549875659,610.2063141508472 363.71545498756586,605.8063141508472 365.01545498756593,601.7063141508472 C 368.215454987566,591.9063141508473 371.3154549875659,582.1063141508472 374.51545498756593,572.2063141508472 C 371.215454987566,571.0063141508472 368.51545498756593,571.7063141508472 365.9154549875659,573.6063141508472 C 361.51545498756593,576.9063141508472 357.01545498756593,580.1063141508472 352.71545498756586,583.5063141508472 C 347.8154549875659,587.3063141508471 342.4154549875659,589.5063141508472 336.3154549875659,590.4063141508472 C 329.3154549875659,591.5063141508472 325.4154549875659,588.6063141508472 324.61545498756584,581.6063141508472 C 324.3154549875659,579.2063141508472 324.61545498756584,576.7063141508472 324.61545498756584,574.0063141508472 C 322.8154549875659,575.1063141508472 321.11545498756584,576.1063141508472 319.4154549875658,577.1063141508472 C 309.71545498756575,582.8063141508472 299.4154549875658,583.1063141508472 289.11545498756584,579.5063141508472 C 286.3154549875659,578.5063141508472 283.71545498756586,576.3063141508471 281.5154549875658,574.1063141508472 C 278.5154549875658,571.3063141508472 275.8154549875658,568.0063141508472 273.11545498756584,564.9063141508472 C 271.5154549875658,563.2063141508471 269.71545498756586,562.4063141508472 267.3154549875659,562.9063141508472 C 254.21545498756586,565.6063141508472 244.01545498756593,559.9063141508472 234.6154549875659,551.7063141508471 C 231.3154549875659,548.8063141508471 228.4154549875659,545.7063141508471 226.9154549875659,541.4063141508472 C 226.21545498756592,539.4063141508472 224.71545498756592,537.8063141508471 223.4154549875659,535.8063141508471 C 213.1154549875659,538.3063141508471 203.51545498756593,537.2063141508471 195.71545498756592,529.8063141508471 C 188.4154549875659,522.8063141508471 182.71545498756592,514.9063141508472 185.9154549875659,503.40631415084715 C 184.8154549875659,503.2063141508471 183.71545498756592,502.90631415084715 182.71545498756592,502.7063141508471 C 176.51545498756593,501.7063141508471 171.81545498756594,498.7063141508471 169.31545498756594,492.80631415084713 C 167.51545498756593,488.5063141508472 165.81545498756594,484.2063141508471 164.21545498756592,479.80631415084713 C 163.4154549875659,477.7063141508471 162.4154549875659,476.1063141508471 160.31545498756594,475.0063141508472 C 153.21545498756592,471.40631415084715 148.01545498756593,465.90631415084715 145.51545498756593,458.2063141508472 C 145.11545498756595,456.90631415084727 144.51545498756593,455.7063141508472 144.11545498756595,454.5063141508472 C 142.51545498756593,449.30631415084713 139.81545498756594,445.30631415084713 135.41545498756597,441.80631415084713 C 126.51545498756599,434.80631415084713 123.71545498756598,424.80631415084713 124.81545498756594,413.6063141508471 C 124.91545498756597,412.90631415084704 125.01545498756593,412.30631415084713 125.11545498756595,411.6063141508471 C 125.11545498756595,411.50631415084706 125.01545498756593,411.30631415084713 124.91545498756597,411.2063141508471 C 121.51545498756599,410.40631415084715 118.11545498756595,409.7063141508471 114.81545498756594,408.80631415084713 C 108.31545498756594,406.90631415084715 103.71545498756592,402.90631415084715 101.71545498756592,396.30631415084713 C 100.41545498756591,391.80631415084713 99.21545498756592,387.30631415084713 98.31545498756594,382.80631415084713 C 97.71545498756592,380.0063141508472 96.71545498756592,378.2063141508471 93.91545498756597,376.90631415084715 C 89.51545498756599,374.90631415084715 85.41545498756597,372.40631415084715 81.41545498756597,369.7063141508471 C 75.01545498756599,365.30631415084713 71.51545498756599,359.1063141508471 71.61545498756595,351.1063141508471 C 71.71545498756598,345.1063141508471 71.51545498756593,339.1063141508471 71.71545498756598,333.1063141508471 C 71.815454987566,330.7063141508471 71.41545498756597,329.1063141508471 69.41545498756597,327.6063141508471 C 57.615454987565954,319.1063141508471 52.21545498756598,306.30631415084713 47.415454987565965,293.30631415084713 C 44.81545498756594,286.2063141508471 46.915454987565965,282.1063141508471 53.615454987565954,278.50631415084706 C 54.915454987565965,277.80631415084713 56.21545498756598,277.2063141508471 58.01545498756593,276.40631415084704 C 56.115454987565954,274.306314150847 54.41545498756591,272.50631415084706 52.81545498756594,270.6063141508471 C 50.31545498756594,267.50631415084706 47.915454987565965,264.306314150847 45.415454987565965,261.2063141508471 C 38.615454987565954,252.5063141508471 38.81545498756594,242.70631415084708 41.01545498756599,232.60631415084706 C 41.815454987566,228.80631415084704 44.21545498756598,226.40631415084707 48.315454987566,226.30631415084704 C 52.61545498756601,226.20631415084702 56.91545498756602,226.30631415084704 62.21545498756598,226.30631415084704 C 60.615454987565954,224.60631415084706 59.71545498756598,223.70631415084702 58.815454987566,222.90631415084707 C 56.41545498756602,220.80631415084704 54.01545498756599,218.70631415084708 51.51545498756599,216.80631415084704 C 40.415454987565965,208.30631415084704 33.51545498756599,196.90631415084707 29.015454987565988,183.90631415084707 C 28.11545498756601,181.40631415084707 27.715454987565977,178.70631415084708 27.61545498756601,176.10631415084706 C 27.415454987566022,172.80631415084704 28.61545498756601,171.00631415084703 31.915454987566022,170.30631415084704 C 34.91545498756602,169.60631415084706 38.215454987566034,169.20631415084702 41.215454987566034,169.50631415084703 C 46.315454987566056,169.906314150847 51.41545498756602,171.00631415084703 56.515454987566045,171.70631415084702 C 57.315454987566056,171.80631415084704 58.11545498756607,171.70631415084702 59.515454987566045,171.70631415084702 C 58.515454987566045,170.70631415084702 57.815454987566056,170.106314150847 57.11545498756607,169.50631415084703 C 43.51545498756582,158.80631415084676 30.61545498756584,148.00631415084675 17.915454987565795,137.00631415084675 C 11.515454987565818,131.40631415084673 6.415454987565795,124.60631415084677 2.2154549875658063,117.10631415084677 C 1.415454987565795,115.7063141508468 0.7154549875658063,114.10631415084677 0.315454987565829,112.50631415084675 C -0.8845450124341596,108.10631415084677 1.4154549875658518,105.70631415084674 5.915454987565852,106.50631415084675 C 7.415454987565852,106.80631415084676 8.815454987565829,107.20631415084674 10.215454987565863,107.60631415084677 C 32.21545498756586,113.60631415084677 53.815454987565886,120.90631415084678 74.91545498756585,129.60631415084677 C 79.91545498756585,131.7063141508468 85.11545498756584,133.30631415084676 90.51545498756587,134.40631415084678 C 84.31545498756589,129.2063141508468 78.01545498756587,124.10631415084677 71.81545498756589,118.90631415084678 C 60.21545498756586,109.10631415084677 48.71545498756586,99.30631415084676 38.91545498756591,87.60631415084677 C 31.21545498756592,78.40631415084678 23.815454987565886,68.90631415084678 18.01545498756593,58.40631415084678 C 16.01545498756593,54.706314150846794 14.515454987565931,50.506314150846805 13.515454987565931,46.30631415084676 C 12.21545498756592,40.50631415084675 15.615454987565954,37.706314150846765 21.315454987565943,39.60631415084677 C 23.915454987565965,40.50631415084678 26.51545498756593,41.80631415084676 28.915454987565965,43.40631415084678 C 36.31545498756594,48.506314150846805 43.915454987565965,53.30631415084676 50.915454987565965,59.006314150846805 C 68.91545498756597,73.40631415084678 88.21545498756598,85.80631415084682 108.11545498756595,97.30631415084682 C 113.71545498756598,100.5063141508468 119.21545498756598,103.90631415084684 124.81545498756594,107.2063141508468 C 125.11545498756584,106.90631415084673 125.4154549875658,106.70631415084674 125.7154549875658,106.40631415084673 M 499.0154549875658,695.1063141508467 C 494.4154549875658,696.2063141508468 489.71545498756586,697.3063141508468 485.11545498756584,698.4063141508467 C 484.8154549875659,698.8063141508467 484.5154549875658,699.2063141508467 484.21545498756586,699.7063141508467 C 485.0154549875658,700.0063141508466 485.9154549875659,700.2063141508467 486.61545498756584,700.6063141508466 C 502.71545498756586,712.4063141508466 518.7154549875659,724.4063141508466 534.8154549875659,736.2063141508467 C 543.0154549875659,742.2063141508467 551.9154549875659,742.8063141508467 561.2154549875659,738.4063141508467 C 568.2154549875659,735.0063141508467 568.8154549875659,729.8063141508467 562.5154549875658,725.5063141508467 C 558.7154549875659,722.9063141508467 554.6154549875658,720.6063141508467 550.6154549875658,718.2063141508468 C 541.3154549875659,712.8063141508468 531.8154549875659,707.5063141508467 522.5154549875658,702.0063141508467 C 520.4154549875658,700.8063141508467 518.4154549875658,700.5063141508467 516.3154549875658,701.3063141508467 C 510.1154549875657,703.6063141508466 505.3154549875658,701.5063141508467 501.0154549875658,697.0063141508467 C 500.4154549875658,696.3063141508467 499.71545498756586,695.8063141508467 499.0154549875658,695.1063141508467"/>
</svg>
