<?xml version="1.0" ?>
<svg xmlns="http://www.w3.org/2000/svg" xmlns:ev="http://www.w3.org/2001/xml-events" xmlns:xlink="http://www.w3.org/1999/xlink" baseProfile="full" height="336" id="Layer_1" style="enable-background:new 0 0 720 720;" transform="scale(0.2976190476190476 0.2976190476190476) translate(-266.0 -168.0)" version="1.1" viewBox="0 0 532 336" width="532" x="0px" xml:space="preserve" y="0px">
	<defs/>
	<path d="M 526.7692801340971,227.70465288699572 C 524.8522801340971,219.09865288699572 389.07928013409713,151.2126528869957 389.07928013409713,151.2126528869957 C 389.07928013409713,151.2126528869957 400.5872801340971,153.76465288699572 400.55928013409715,151.2126528869957 C 400.40228013409717,139.0366528869957 296.01628013409714,112.9676528869957 267.3292801340972,88.97765288699568 C 238.6432801340972,64.99065288699566 163.75028013409718,41.8976528869957 163.75028013409718,41.8976528869957 C 163.75028013409718,41.8976528869957 118.65928013409717,-7.37834711300431 67.92428013409719,0.9476528869957122 C 28.793280134097188,7.364652886995714 22.87428013409719,46.037652886995716 22.87428013409719,46.037652886995716 C -6.764719865902805,73.76365288699574 0.8872801340971961,92.88765288699571 0.8872801340971961,92.88765288699571 C 7.578280134097199,95.7556528869957 22.87428013409719,81.41165288699571 36.2662801340972,74.71665288699572 C 49.650280134097216,68.02565288699574 62.074280134097194,85.23565288699572 71.64528013409719,106.2726528869957 C 80.23328013409719,125.18265288699573 126.70828013409721,205.13165288699568 202.00528013409723,227.33865288699567 C 202.79528013409725,231.21565288699568 203.86128013409723,234.8116528869957 205.29828013409724,237.41765288699568 L 168.01628013409726,285.5846528869956 C 167.69428013409726,286.0036528869956 167.47128013409724,286.4696528869956 167.34328013409726,286.9516528869957 L 130.44728013409724,264.4516528869957 C 128.98128013409723,263.55565288699563 127.07728013409724,264.01665288699564 126.19228013409725,265.47865288699563 C 125.30328013409724,266.9336528869957 125.76128013409723,268.8346528869956 127.22228013409725,269.7296528869956 L 147.57228013409724,282.1436528869956 L 109.09128013409725,270.9316528869956 C 107.45428013409725,270.4526528869957 105.73628013409726,271.3946528869957 105.26328013409724,273.0346528869957 C 104.77628013409725,274.6716528869956 105.72228013409725,276.3926528869956 107.36628013409725,276.8696528869956 L 141.08028013409725,286.6916528869956 L 112.79628013409726,285.3396528869956 C 111.03628013409727,285.2306528869957 109.63328013409725,286.5716528869957 109.55728013409725,288.28165288699563 C 109.47528013409726,289.9856528869957 110.79728013409726,291.43465288699565 112.49528013409724,291.5126528869956 L 166.50828013409722,294.0996528869956 L 189.1752801340972,300.7026528869957 C 189.4562801340972,300.7926528869956 189.75128013409721,300.82865288699566 190.0402801340972,300.82865288699566 C 191.3742801340972,300.82865288699566 192.61328013409718,299.95365288699566 193.00528013409718,298.5996528869956 C 193.47728013409716,296.96265288699567 192.5402801340972,295.24265288699564 190.9012801340972,294.7676528869956 L 174.41628013409718,289.96365288699565 L 212.0402801340972,241.34065288699568 C 215.49628013409722,240.4436528869957 219.63028013409718,236.5566528869957 223.5262801340972,231.91365288699566 C 225.15728013409716,232.12765288699566 226.7972801340972,232.32065288699565 228.4512801340972,232.47765288699568 C 237.34728013409722,233.3206528869957 246.0452801340972,233.8756528869957 254.50828013409722,234.1986528869957 C 257.59128013409725,240.51465288699566 263.13728013409724,250.88665288699568 268.6752801340972,256.2506528869957 L 247.3552801340972,320.04065288699564 L 223.45928013409718,302.8876528869956 C 222.0672801340972,301.8946528869957 220.13828013409716,302.21265288699567 219.1432801340972,303.59765288699566 C 218.1512801340972,304.98765288699565 218.4732801340972,306.9176528869956 219.84928013409723,307.91965288699566 L 227.15728013409722,313.1596528869957 L 206.43328013409723,305.00765288699563 C 204.84228013409722,304.3806528869957 203.04628013409723,305.1636528869957 202.41928013409722,306.7586528869956 C 201.79428013409722,308.34365288699564 202.57528013409723,310.1386528869956 204.16428013409723,310.7676528869956 L 229.65628013409724,320.79565288699564 L 208.37828013409722,319.15165288699563 C 206.65028013409722,319.0286528869956 205.19028013409724,320.2926528869956 205.04928013409722,321.9956528869957 C 204.91828013409724,323.69865288699566 206.19828013409722,325.1836528869957 207.89728013409723,325.31565288699574 L 249.2922801340972,328.5186528869957 L 266.9132801340972,335.4506528869957 C 267.2682801340972,335.58965288699574 267.6662801340972,335.6636528869957 268.0362801340972,335.6636528869957 C 269.27528013409716,335.6636528869957 270.4402801340972,334.91965288699566 270.9212801340972,333.7016528869957 C 271.5432801340972,332.1096528869957 270.76128013409715,330.3116528869957 269.1732801340972,329.68865288699567 L 254.1992801340972,323.7966528869956 C 254.28628013409718,323.62665288699566 254.3642801340972,323.44965288699564 254.42628013409717,323.2626528869956 L 275.68628013409716,259.6546528869957 C 281.57828013409716,258.7976528869956 285.50128013409716,244.90165288699566 287.65028013409716,234.31765288699566 C 348.23928013409716,232.47565288699568 390.04228013409715,220.05165288699564 390.04228013409715,220.05165288699564 C 390.04228013409715,220.05165288699564 496.1782801340971,258.29965288699566 502.8682801340972,259.2556528869957 C 509.5652801340972,260.20865288699565 517.2112801340971,260.20865288699565 526.7722801340972,252.55965288699562 C 536.3332801340971,244.91365288699572 528.6742801340971,236.30765288699573 526.7692801340971,227.70465288699572"/>
</svg>
