<?xml version="1.0" ?>
<svg xmlns="http://www.w3.org/2000/svg" xmlns:ev="http://www.w3.org/2001/xml-events" xmlns:inkscape="http://www.inkscape.org/namespaces/inkscape" xmlns:sodipodi="http://sodipodi.sourceforge.net/DTD/sodipodi-0.dtd" xmlns:svg="http://www.w3.org/2000/svg" xmlns:xlink="http://www.w3.org/1999/xlink" baseProfile="full" height="1809" id="svg261" inkscape:version="1.2.2 (1:1.2.2+202212051550+b0a8486541)" sodipodi:docname="bird71.svg" style="clip-rule:evenodd;fill-rule:evenodd;image-rendering:optimizeQuality;shape-rendering:geometricPrecision;text-rendering:geometricPrecision" transform="scale(0.055279159756771695 0.055279159756771695) translate(-1500.5 -904.5)" version="1.1" viewBox="0 0 3001 1809" width="3001">
	<defs/>
	<path d="M 2910.0,0.0 C 2917.67,0.0 2925.33,0.0 2933.0,0.0 C 2930.13,8.60687 2927.46,17.2735 2925.0,26.0 C 2950.02,29.8917 2975.02,33.8917 3000.0,38.0 C 3000.0,38.6667 3000.0,39.3333 3000.0,40.0 C 2778.49,135.753 2560.15,238.587 2345.0,348.5 C 2283.04,380.808 2222.37,415.141 2163.0,451.5 C 2131.07,471.636 2100.73,493.97 2072.0,518.5 C 1994.4,585.767 1922.57,658.6 1856.5,737.0 C 1840.73,756.771 1825.73,777.104 1811.5,798.0 C 1772.58,866.171 1733.91,934.504 1695.5,1003.0 C 1661.34,1060.63 1621.34,1113.96 1575.5,1163.0 C 1532.3,1207.33 1483.47,1244.0 1429.0,1273.0 C 1407.32,1320.03 1383.82,1366.03 1358.5,1411.0 C 1324.47,1460.4 1288.97,1508.73 1252.0,1556.0 C 1273.49,1567.58 1294.83,1579.41 1316.0,1591.5 C 1290.75,1585.02 1265.41,1578.52 1240.0,1572.0 C 1219.46,1597.89 1198.8,1623.72 1178.0,1649.5 C 1211.98,1641.24 1246.31,1634.24 1281.0,1628.5 C 1300.58,1625.02 1320.24,1624.02 1340.0,1625.5 C 1362.85,1631.59 1384.85,1639.92 1406.0,1650.5 C 1433.3,1663.82 1459.97,1678.15 1486.0,1693.5 C 1448.85,1682.8 1411.18,1673.8 1373.0,1666.5 C 1352.56,1663.13 1332.23,1663.8 1312.0,1668.5 C 1297.26,1671.52 1282.6,1674.85 1268.0,1678.5 C 1227.0,1690.17 1186.0,1701.83 1145.0,1713.5 C 1101.44,1721.72 1057.77,1729.39 1014.0,1736.5 C 986.873,1740.43 961.206,1748.76 937.0,1761.5 C 909.285,1776.02 882.285,1791.52 856.0,1808.0 C 855.333,1808.0 854.667,1808.0 854.0,1808.0 C 881.135,1781.7 908.468,1755.53 936.0,1729.5 C 903.406,1735.22 870.906,1741.72 838.5,1749.0 C 836.778,1748.89 836.612,1748.39 838.0,1747.5 C 869.014,1730.66 901.014,1715.99 934.0,1703.5 C 941.534,1701.41 949.2,1700.08 957.0,1699.5 C 982.314,1698.03 1007.65,1697.03 1033.0,1696.5 C 1088.15,1659.03 1137.49,1614.7 1181.0,1563.5 C 1163.77,1563.34 1146.77,1565.34 1130.0,1569.5 C 1113.92,1573.19 1097.92,1577.19 1082.0,1581.5 C 1044.51,1592.77 1006.84,1603.44 969.0,1613.5 C 928.413,1620.93 887.746,1627.93 847.0,1634.5 C 816.493,1638.78 787.827,1648.45 761.0,1663.5 C 735.744,1677.04 710.9110000000001,1691.21 686.5,1706.0 C 686.0,1705.83 685.5,1705.67 685.0,1705.5 C 712.333,1679.5 739.667,1653.5 767.0,1627.5 C 734.038,1633.99 701.038,1640.32 668.0,1646.5 C 699.441,1628.78 732.108,1613.78 766.0,1601.5 C 775.197,1599.23 784.53,1597.9 794.0,1597.5 C 817.341,1596.6 840.674,1595.6 864.0,1594.5 C 912.627,1562.89 956.127,1525.06 994.5,1481.0 C 1034.97,1435.71 1071.81,1387.71 1105.0,1337.0 C 990.144,1330.75 878.477,1308.58 770.0,1270.5 C 645.869,1226.92 538.035,1158.42 446.5,1065.0 C 374.648,989.689 322.981,902.022 291.5,802.0 C 278.298,759.591 272.964,716.2570000000001 275.5,672.0 C 276.307,657.603 280.14,644.103 287.0,631.5 C 278.098,623.268 269.931,614.434 262.5,605.0 C 236.776,571.89 212.776,537.557 190.5,502.0 C 174.541,476.25 158.708,450.417 143.0,424.5 C 94.6848,416.004 47.0182,404.838 0.0,391.0 C 0.0,390.0 0.0,389.0 0.0,388.0 C 24.6224,361.698 52.2891,339.198 83.0,320.5 C 97.2439,311.933 111.744,303.766 126.5,296.0 C 155.939,220.58499999999998 201.439,156.752 263.0,104.5 C 344.863,40.6703 437.863,13.337000000000003 542.0,22.5 C 658.621,33.2324 757.121,80.7324 837.5,165.0 C 858.293,187.118 876.793,210.951 893.0,236.5 C 1041.32,241.187 1189.32,250.853 1337.0,265.5 C 1428.01,274.76 1519.01,284.093 1610.0,293.5 C 1684.49,301.282 1759.16,306.615 1834.0,309.5 C 1910.74,312.785 1987.07,308.785 2063.0,297.5 C 2108.04,288.491 2152.37,276.824 2196.0,262.5 C 2257.2,242.213 2317.86,220.546 2378.0,197.5 C 2481.16,156.892 2584.16,115.892 2687.0,74.5 C 2741.32,52.725 2796.32,32.725 2852.0,14.5 C 2871.23,8.6935 2890.56,3.86017 2910.0,0.0 M 1308.0,1317.0 C 1310.28,1334.17 1310.45,1351.5 1308.5,1369.0 C 1302.28,1389.11 1293.61,1408.11 1282.5,1426.0 C 1259.19,1464.14 1233.36,1500.47 1205.0,1535.0 C 1184.81,1524.8 1163.48,1520.97 1141.0,1523.5 C 1125.91,1524.85 1110.91,1526.85 1096.0,1529.5 C 1066.84,1535.13 1037.84,1541.13 1009.0,1547.5 C 1064.92,1478.59 1118.92,1408.26 1171.0,1336.5 C 1217.48,1334.65 1263.14,1328.15 1308.0,1317.0" fill="#000000" id="path259" style="opacity:0.997"/>
</svg>
