<?xml version="1.0" ?>
<svg xmlns="http://www.w3.org/2000/svg" xmlns:ev="http://www.w3.org/2001/xml-events" xmlns:xlink="http://www.w3.org/1999/xlink" baseProfile="full" height="493" id="Layer_1" style="enable-background:new 0 0 720 720;" transform="scale(0.24813895781637718 0.24813895781637718) translate(-201.5 -246.5)" version="1.1" viewBox="0 0 403 493" width="403" x="0px" xml:space="preserve" y="0px">
	<defs/>
	<path d="M 341.96900000000005,42.589670247519194 C 341.96900000000005,42.589670247519194 324.797,-7.265329752480795 253.27500000000003,0.9046702475191921 C 181.74600000000004,9.074670247519194 191.562,72.42567024751918 170.70700000000005,92.86567024751918 C 149.86500000000007,113.30667024751918 110.58200000000005,134.1356702475192 77.92400000000004,206.3526702475192 C 53.00200000000004,261.49367024751916 64.85600000000002,337.6936702475192 52.85600000000002,367.1226702475192 C 40.87300000000002,396.54367024751923 7.628000000000014,454.5876702475192 3.2730000000000246,463.3076702475191 C -1.0909999999999798,472.0296702475191 -1.0909999999999798,489.73967024751914 3.2730000000000246,490.8296702475192 C 7.628000000000014,491.9136702475191 21.80200000000002,496.0026702475192 27.79000000000002,479.65367024751913 C 27.79000000000002,479.65367024751913 45.777000000000015,494.6446702475191 64.30800000000002,471.21067024751915 C 82.83700000000002,447.7746702475191 100.27500000000003,385.65067024751914 125.89100000000002,369.84567024751914 C 134.17200000000003,364.73667024751916 145.863,362.9016702475191 159.683,361.29467024751915 L 169.127,389.51167024751913 C 169.17200000000003,389.6466702475191 169.23400000000004,389.7696702475191 169.29000000000002,389.89567024751915 L 155.90000000000003,391.90767024751915 C 154.01600000000002,392.19767024751917 152.72700000000003,393.95167024751913 153.00300000000004,395.8296702475192 C 153.26100000000002,397.5356702475192 154.72500000000002,398.7656702475192 156.40400000000005,398.7656702475192 C 156.57900000000006,398.7656702475192 156.75600000000003,398.75867024751926 156.91600000000005,398.7276702475192 L 172.87600000000003,396.3296702475192 L 207.39200000000005,403.8466702475192 C 207.63600000000008,403.9006702475192 207.88000000000005,403.9166702475193 208.12200000000007,403.9166702475193 C 209.7170000000001,403.9166702475193 211.13700000000006,402.81767024751923 211.49400000000009,401.2136702475193 C 211.89100000000008,399.3536702475193 210.70900000000006,397.5156702475193 208.85500000000008,397.11067024751935 L 192.03400000000005,393.45167024751936 L 214.53800000000007,390.0706702475194 C 216.43200000000007,389.7876702475194 217.7270000000001,388.0326702475194 217.44400000000007,386.1506702475194 C 217.1550000000001,384.26467024751935 215.38500000000005,382.96667024751935 213.5150000000001,383.2576702475194 L 196.72800000000012,385.7776702475194 L 202.6930000000001,382.9916702475194 C 204.41500000000008,382.18967024751936 205.15600000000012,380.13667024751936 204.35500000000008,378.4216702475194 C 203.5540000000001,376.6986702475194 201.48700000000008,375.9496702475194 199.7700000000001,376.75167024751937 L 177.40100000000007,387.20867024751936 C 177.36900000000009,387.06467024751936 177.33000000000004,386.92367024751934 177.28100000000006,386.78167024751934 L 168.4290000000001,360.3116702475194 C 179.0000000000001,359.1256702475194 190.5460000000001,357.7316702475194 202.5850000000001,354.98567024751935 L 233.85300000000007,406.0356702475193 C 233.87800000000004,406.07767024751934 233.90800000000007,406.11467024751926 233.9360000000001,406.15467024751933 L 218.95600000000007,409.6906702475193 C 217.1090000000001,410.12467024751925 215.9650000000001,411.9766702475192 216.4000000000001,413.83267024751933 C 216.7680000000001,415.41867024751934 218.1780000000001,416.4876702475193 219.7410000000001,416.4876702475193 C 220.00900000000007,416.4876702475193 220.2680000000001,416.45667024751936 220.5420000000001,416.3956702475193 L 240.20600000000007,411.75367024751927 L 286.10100000000006,415.5396702475192 C 286.1940000000001,415.5396702475192 286.29100000000005,415.54767024751925 286.38200000000006,415.54767024751925 C 288.15900000000005,415.54767024751925 289.6700000000001,414.18267024751924 289.8070000000001,412.38367024751926 C 289.96600000000007,410.49067024751923 288.55500000000006,408.82667024751925 286.6720000000001,408.6746702475193 L 261.91600000000005,406.62967024751936 L 292.28700000000003,399.4596702475194 C 294.141,399.0166702475194 295.285,397.1566702475194 294.84900000000005,395.3116702475194 C 294.40000000000003,393.46567024751937 292.55300000000005,392.3056702475194 290.70700000000005,392.74767024751935 L 256.40400000000005,400.8486702475194 L 270.28000000000003,391.7326702475194 C 271.88100000000003,390.68867024751944 272.322,388.5526702475194 271.278,386.9666702475194 C 270.231,385.3696702475194 268.09700000000004,384.9376702475194 266.51000000000005,385.9736702475194 L 243.03900000000004,401.38467024751935 C 242.93500000000006,401.1316702475193 242.81700000000006,400.8826702475194 242.67100000000005,400.6426702475194 L 213.04100000000005,352.2656702475194 C 229.36200000000008,347.4616702475194 246.31200000000007,339.6886702475194 262.76500000000004,326.2506702475194 C 315.812,282.9246702475194 325.619,215.89567024751938 323.98100000000005,188.0966702475194 C 322.3500000000001,160.3076702475194 309.922,135.79067024751942 328.89300000000003,113.7096702475194 C 341.36,99.20267024751939 342.78400000000005,83.46767024751941 342.78400000000005,83.46767024751941 C 342.78400000000005,83.46767024751941 374.25,78.35567024751941 402.4530000000001,65.48267024751942 C 402.4530000000001,65.48167024751919 376.3040000000001,45.861670247519186 341.96900000000005,42.589670247519194"/>
</svg>
