<?xml version="1.0" ?>
<svg xmlns="http://www.w3.org/2000/svg" xmlns:ev="http://www.w3.org/2001/xml-events" xmlns:xlink="http://www.w3.org/1999/xlink" baseProfile="full" height="685" id="Слой_1" style="enable-background:new 0 0 1280 1280;" transform="scale(0.22321428571428573 0.22321428571428573) translate(-224.0 -342.5)" version="1.1" viewBox="0 0 448 685" width="448" x="0px" xml:space="preserve" y="0px">
	<defs/>
	<path d="M 153.26589118169176,663.31993577722 C 151.9658911816918,664.9199357772202 150.66589118169173,666.61993577722 149.26589118169176,668.2199357772201 C 146.66589118169173,671.2199357772201 144.16589118169173,674.4199357772202 141.26589118169176,677.11993577722 C 139.9658911816918,678.31993577722 137.4658911816918,679.31993577722 136.16589118169173,678.81993577722 C 134.76589118169176,678.2199357772201 133.36589118169178,675.7199357772201 133.36589118169178,674.11993577722 C 133.36589118169178,670.5199357772201 133.86589118169178,666.81993577722 134.76589118169176,663.31993577722 C 135.86589118169178,658.7199357772201 137.4658911816918,654.2199357772201 138.86589118169178,649.7199357772201 C 138.56589118169182,649.4199357772202 138.16589118169173,649.11993577722 137.86589118169178,648.81993577722 C 136.4658911816918,649.9199357772202 134.9658911816918,650.9199357772202 133.66589118169173,652.11993577722 C 132.0658911816917,653.61993577722 130.5658911816917,655.31993577722 128.0658911816917,654.2199357772201 C 125.46589118169169,653.11993577722 125.56589118169171,650.7199357772201 125.86589118169167,648.7199357772201 C 126.96589118169169,642.81993577722 128.36589118169167,637.0199357772201 129.5658911816917,631.2199357772201 C 130.16589118169173,628.31993577722 130.86589118169167,625.4199357772202 131.4658911816917,622.61993577722 C 125.56589118169171,619.31993577722 123.96589118169169,616.5199357772201 125.16589118169173,610.11993577722 C 126.26589118169176,604.11993577722 127.56589118169171,598.0199357772201 129.16589118169173,592.11993577722 C 130.0658911816917,588.81993577722 129.76589118169176,586.2199357772201 127.16589118169173,584.0199357772201 C 124.86589118169178,582.11993577722 124.26589118169176,579.61993577722 124.66589118169173,576.81993577722 C 125.36589118169178,570.41993577722 125.96589118169169,563.91993577722 127.16589118169173,557.5199357772201 C 127.86589118169178,553.61993577722 127.86589118169178,550.5199357772201 125.16589118169173,547.31993577722 C 123.76589118169176,545.7199357772199 123.06589118169171,543.11993577722 122.96589118169169,540.91993577722 C 122.76589118169164,533.11993577722 123.26589118169164,525.2199357772199 126.26589118169164,517.81993577722 C 127.0658911816916,515.81993577722 126.66589118169162,514.5199357772201 125.26589118169164,512.91993577722 C 121.26589118169164,508.51993577722004 120.36589118169167,503.21993577722 121.26589118169164,497.51993577722004 C 122.16589118169162,491.61993577722006 123.5658911816916,485.7199357772201 124.26589118169164,479.81993577722 C 124.66589118169162,476.71993577722 124.66589118169162,473.41993577722 123.86589118169167,470.41993577722 C 122.46589118169169,464.91993577722 122.76589118169164,459.51993577722004 124.46589118169169,454.21993577722 C 125.26589118169164,451.81993577722 126.16589118169173,449.5199357772199 126.46589118169169,447.0199357772199 C 126.66589118169173,445.21993577722 126.56589118169171,442.8199357772199 125.46589118169169,441.61993577721995 C 123.86589118169167,439.71993577722 123.56589118169171,437.81993577722 123.76589118169164,435.61993577721995 C 125.0658911816916,424.71993577722 129.16589118169162,414.71993577722 134.66589118169162,405.31993577722 C 135.36589118169167,404.01993577722004 136.66589118169162,403.11993577721995 137.66589118169162,402.01993577722004 C 138.5658911816916,401.01993577722004 140.0658911816916,400.01993577722004 140.16589118169162,399.01993577722004 C 140.46589118169157,395.01993577722004 141.36589118169167,391.61993577722006 144.46589118169157,388.51993577722004 C 146.0658911816916,387.01993577722004 144.0658911816916,384.31993577722 141.96589118169157,384.11993577722006 C 135.46589118169157,383.3199357772201 136.0658911816916,377.11993577722006 133.66589118169162,373.41993577722 C 132.5658911816916,371.71993577722 134.86589118169167,369.51993577722004 137.46589118169157,369.31993577722 C 139.26589118169153,369.21993577722 141.16589118169162,369.51993577722004 141.66589118169162,366.61993577721995 C 140.86589118169167,366.31993577722 140.16589118169162,366.0199357772199 139.36589118169167,365.9199357772199 C 134.26589118169164,365.4199357772199 132.9658911816917,364.5199357772199 131.76589118169164,359.71993577721986 C 130.9658911816917,356.4199357772199 130.4658911816917,352.9199357772199 129.66589118169162,348.9199357772199 C 131.86589118169167,349.11993577721995 133.5658911816916,349.3199357772199 135.96589118169157,349.61993577721995 C 130.5658911816916,343.61993577721995 125.66589118169162,337.81993577722 128.76589118169153,328.9199357772199 C 124.56589118169148,321.5199357772199 123.26589118169153,314.9199357772199 125.36589118169155,311.8199357772199 C 122.6658911816915,306.9199357772199 121.36589118169155,301.71993577721986 122.36589118169155,296.11993577721984 C 122.5658911816916,295.21993577721986 122.26589118169153,294.11993577721984 121.96589118169157,293.21993577721986 C 120.86589118169155,288.61993577721984 118.66589118169162,284.0199357772198 121.0658911816916,279.11993577721984 C 121.26589118169164,278.71993577721986 121.0658911816916,278.11993577721984 120.96589118169157,277.71993577721986 C 118.86589118169155,270.3199357772199 120.0658911816916,262.9199357772199 120.46589118169157,255.4199357772199 C 121.36589118169155,240.1199357772199 124.26589118169153,225.1199357772199 127.66589118169162,210.21993577721992 C 128.76589118169164,205.21993577721992 130.86589118169167,200.51993577721993 130.76589118169164,195.21993577721992 C 130.76589118169164,193.4199357772199 132.16589118169162,191.6199357772199 133.16589118169162,189.31993577721994 C 132.16589118169162,188.91993577721996 131.0658911816916,188.31993577721994 129.96589118169157,188.01993577721993 C 118.76589118169153,184.9199357772199 107.46589118169157,182.21993577721992 96.46589118169157,178.51993577721993 C 84.96589118169157,174.71993577721992 73.5658911816916,174.01993577721993 61.5658911816916,174.4199357772199 C 43.265891181691586,174.9199357772199 24.965891181691575,174.21993577721992 6.5658911816915975,173.9199357772199 C 5.265891181691586,173.9199357772199 3.865891181691609,173.51993577721993 2.66589118169162,173.01993577721993 C -0.03410881830836843,171.81993577721994 -0.8341088183083798,169.81993577721994 0.9658911816916316,167.51993577721993 C 4.965891181691632,162.21993577721992 7.765891181691643,156.01993577721993 13.565891181691654,152.11993577721995 C 14.265891181691643,151.71993577721997 14.965891181691632,151.11993577721995 15.265891181691643,150.41993577721996 C 17.96589118169163,144.91993577721996 20.66589118169162,139.41993577721996 23.265891181691643,133.81993577721994 C 26.365891181691666,127.11993577721995 31.365891181691666,122.01993577721993 37.565891181691654,118.21993577721992 C 42.16589118169168,115.31993577721994 47.46589118169163,115.71993577721992 52.66589118169168,116.6199357772199 C 69.36589118169167,119.51993577721987 86.06589118169165,122.51993577721987 102.76589118169164,125.4199357772199 C 112.76589118169164,127.1199357772199 122.66589118169162,126.31993577721988 132.5658911816916,124.81993577721988 C 136.86589118169155,124.21993577721986 141.16589118169162,123.6199357772199 145.46589118169157,123.1199357772199 C 150.16589118169162,122.51993577721987 153.76589118169153,120.4199357772199 155.36589118169155,115.81993577721988 C 156.46589118169157,112.9199357772199 158.26589118169153,111.1199357772199 160.96589118169157,109.81993577721988 C 164.96589118169157,107.81993577721988 167.46589118169157,104.4199357772199 169.96589118169157,100.71993577721986 C 179.5658911816916,86.71993577721986 188.46589118169157,72.21993577721986 201.26589118169153,60.71993577721986 C 212.26589118169153,50.81993577721988 224.86589118169155,44.21993577721986 239.06589118169148,40.11993577721984 C 253.26589118169153,36.019935777219814 267.36589118169144,31.419935777219848 281.46589118169146,27.119935777219837 C 283.96589118169146,26.319935777219825 286.6658911816915,25.819935777219825 289.1658911816915,25.019935777219814 C 291.96589118169146,24.119935777219837 294.6658911816915,22.91993577721979 297.6658911816915,21.819935777219825 C 297.1658911816915,20.119935777219837 296.86589118169155,18.919935777219848 296.46589118169146,17.719935777219803 C 296.86589118169144,17.519935777219814 297.1658911816915,17.319935777219825 297.36589118169144,17.219935777219803 C 309.7658911816914,16.019935777219814 322.1658911816914,14.719935777219803 334.6658911816914,13.519935777219814 C 343.7658911816914,12.619935777219837 352.96589118169135,12.519935777219814 361.96589118169135,10.919935777219791 C 369.8658911816913,9.61993577721978 377.56589118169137,6.719935777219803 385.3658911816913,4.719935777219803 C 387.3658911816913,4.219935777219803 389.6658911816913,4.219935777219803 391.6658911816913,4.61993577721978 C 393.56589118169126,4.919935777219791 395.3658911816913,6.11993577721978 397.1658911816913,6.919935777219791 C 400.96589118169123,8.419935777219791 401.3658911816913,8.219935777219803 402.8658911816913,4.319935777219769 C 404.2658911816913,0.61993577721978 405.7658911816913,-0.38006422278022 409.6658911816913,0.11993577721978 C 413.96589118169123,0.61993577721978 417.46589118169123,2.7199357772198027 420.46589118169123,5.819935777219769 C 421.56589118169126,7.019935777219757 422.6658911816913,8.219935777219746 424.06589118169126,9.819935777219769 C 425.2658911816913,8.419935777219791 426.2658911816913,7.319935777219769 427.2658911816913,6.319935777219769 C 431.2658911816913,2.3199357772197686 436.46589118169135,2.4199357772197914 439.6658911816913,7.019935777219757 C 442.06589118169126,10.419935777219735 444.46589118169123,13.919935777219735 445.8658911816913,17.81993577721977 C 448.56589118169137,25.41993577721979 448.3658911816913,32.61993577721978 439.8658911816913,37.81993577721977 C 441.6658911816913,38.41993577721979 442.7658911816913,38.81993577721977 444.2658911816913,39.31993577721977 C 441.46589118169135,42.91993577721979 437.6658911816913,43.51993577721976 434.2658911816913,42.719935777219746 C 425.2658911816913,40.419935777219735 417.56589118169126,42.61993577721972 410.2658911816913,47.919935777219735 C 406.2658911816913,50.81993577721971 401.8658911816913,52.419935777219735 396.96589118169135,53.31993577721971 C 385.56589118169137,55.31993577721971 374.8658911816913,59.31993577721971 364.3658911816913,64.0199357772197 C 355.46589118169135,68.0199357772197 346.2658911816913,71.5199357772197 338.2658911816913,77.5199357772197 C 329.56589118169126,84.21993577721969 321.96589118169135,91.61993577721972 318.8658911816913,102.71993577721969 C 317.6658911816913,107.0199357772197 315.1658911816913,110.91993577721968 313.56589118169137,115.11993577721967 C 311.1658911816914,121.11993577721967 311.96589118169135,124.51993577721964 317.46589118169135,127.91993577721968 C 322.2658911816913,130.81993577721965 327.3658911816913,133.61993577721967 332.6658911816914,135.0199357772197 C 346.2658911816914,138.7199357772197 358.6658911816914,145.11993577721972 370.86589118169144,151.8199357772197 C 379.6658911816914,156.61993577721972 385.86589118169144,164.11993577721972 389.96589118169146,173.0199357772197 C 395.86589118169144,185.61993577721972 404.96589118169146,194.61993577721972 417.2658911816914,201.11993577721972 C 422.7658911816914,204.0199357772197 427.46589118169146,208.41993577721973 432.36589118169144,212.41993577721973 C 433.6658911816914,213.51993577721976 434.1658911816914,215.51993577721976 435.0658911816915,217.11993577721972 C 434.76589118169153,217.41993577721973 434.46589118169146,217.71993577721975 434.1658911816915,217.91993577721973 C 430.36589118169155,216.41993577721973 426.5658911816915,215.01993577721976 422.76589118169153,213.51993577721976 C 415.36589118169155,210.61993577721978 407.9658911816916,207.51993577721976 400.36589118169155,205.01993577721976 C 396.36589118169155,203.71993577721975 391.9658911816916,202.71993577721975 387.6658911816915,202.81993577721977 C 365.46589118169146,203.01993577721976 343.46589118169146,204.21993577721975 321.86589118169155,209.81993577721977 C 308.86589118169155,213.21993577721975 295.4658911816916,212.81993577721977 282.1658911816915,212.9199357772198 C 279.86589118169155,212.9199357772198 277.46589118169146,212.81993577721977 275.1658911816915,212.9199357772198 C 269.6658911816915,213.0199357772198 268.86589118169155,213.61993577721978 267.26589118169153,219.2199357772198 C 264.5658911816915,228.81993577721983 264.6658911816915,238.7199357772198 265.9658911816916,248.4199357772198 C 268.0658911816916,264.5199357772198 273.4658911816916,279.81993577721977 280.0658911816916,294.5199357772198 C 285.4658911816916,306.61993577721984 286.36589118169155,318.9199357772198 284.0658911816916,331.61993577721984 C 281.36589118169155,346.5199357772198 277.86589118169155,361.21993577721986 274.86589118169155,376.0199357772198 C 274.1658911816915,379.21993577721986 273.4658911816916,382.61993577721984 273.5658911816916,385.9199357772198 C 274.1658911816916,408.81993577721977 269.4658911816916,430.9199357772198 262.6658911816916,452.61993577721984 C 253.36589118169167,482.61993577721984 244.46589118169157,512.8199357772198 234.46589118169157,542.5199357772199 C 220.36589118169155,584.6199357772198 199.96589118169157,623.6199357772198 174.76589118169153,660.1199357772198 C 170.6658911816915,666.0199357772199 166.6658911816915,671.9199357772197 162.46589118169157,677.7199357772199 C 160.96589118169157,679.7199357772199 159.36589118169155,681.7199357772199 157.36589118169155,683.1199357772198 C 156.26589118169153,683.9199357772197 154.0658911816916,684.4199357772197 152.96589118169157,683.9199357772197 C 151.86589118169155,683.3199357772198 150.86589118169155,681.2199357772197 150.96589118169157,679.9199357772197 C 151.26589118169153,676.3199357772198 152.16589118169162,672.7199357772197 152.86589118169155,669.1199357772198 C 153.1658911816915,667.4199357772197 153.5658911816916,665.7199357772199 153.96589118169157,664.1199357772198 C 153.9658911816917,663.61993577722 153.66589118169173,663.4199357772202 153.26589118169176,663.31993577722"/>
</svg>
