<?xml version="1.0" ?>
<svg xmlns="http://www.w3.org/2000/svg" xmlns:ev="http://www.w3.org/2001/xml-events" xmlns:xlink="http://www.w3.org/1999/xlink" baseProfile="full" height="900" id="Слой_1" style="enable-background:new 0 0 1280 1280;" transform="scale(0.16233766233766234 0.16233766233766234) translate(-308.0 -450.0)" version="1.1" viewBox="0 0 616 900" width="616" x="0px" xml:space="preserve" y="0px">
	<defs/>
	<path d="M 321.00000000000006,419.6115251179101 C 323.7000000000001,420.81152511791015 325.2000000000001,421.81152511791015 326.8,422.2115251179101 C 345.3,426.81152511791015 363.8,431.7115251179101 382.50000000000006,435.7115251179101 C 406.00000000000006,440.7115251179101 429.8,442.4115251179102 453.90000000000003,440.7115251179101 C 481.1000000000001,438.7115251179101 508.3,437.2115251179101 535.5,435.2115251179101 C 552.2,434.0115251179101 568.9000000000001,432.2115251179101 585.6000000000001,430.6115251179101 C 593.5,429.91152511791006 601.5,429.1115251179101 609.4000000000001,428.5115251179101 C 611.2,428.41152511791006 613.1000000000001,429.0115251179101 615.1000000000001,429.31152511791004 C 615.0,433.21152511791 612.5,434.21152511791 610.2,434.71152511791 C 602.6000000000001,436.21152511791 594.9000000000001,437.71152511791 587.2,438.71152511791 C 573.5,440.51152511790997 559.8000000000002,441.91152511791006 546.1000000000001,443.51152511790997 C 533.1000000000001,445.01152511790997 520.0,446.3115251179099 507.00000000000006,447.8115251179099 C 494.3,449.3115251179099 481.6000000000001,450.8115251179099 468.90000000000003,452.3115251179099 C 457.50000000000006,453.7115251179099 446.2,455.2115251179099 434.8,456.7115251179099 C 432.00000000000006,457.1115251179099 429.2,457.6115251179099 426.50000000000006,458.51152511790985 C 422.7000000000001,459.7115251179099 421.8,462.91152511790983 424.6000000000001,465.7115251179099 C 426.3000000000001,467.3115251179099 428.7000000000001,468.8115251179099 431.00000000000006,469.2115251179099 C 439.50000000000006,470.8115251179099 448.00000000000006,472.2115251179099 456.6000000000001,473.2115251179099 C 469.8000000000001,474.7115251179099 483.1000000000001,475.91152511790995 496.3000000000001,477.01152511790985 C 507.2000000000001,477.91152511790983 518.2,478.6115251179099 529.1000000000001,479.2115251179099 C 542.4000000000001,479.91152511790995 555.7,480.41152511790995 569.0,480.91152511790995 C 573.1000000000001,481.01152511790997 577.3,480.8115251179099 581.5,480.7115251179099 C 587.2,480.6115251179099 592.8,480.2115251179099 598.5,480.3115251179099 C 600.7,480.3115251179099 603.2,481.01152511790997 605.0,482.2115251179099 C 606.3,483.01152511790985 606.8,485.1115251179099 607.7,486.6115251179099 C 606.3000000000002,487.3115251179099 604.9000000000001,488.6115251179099 603.5,488.6115251179099 C 593.2,488.91152511790983 582.9000000000001,489.01152511790985 572.6000000000001,489.1115251179099 C 568.4000000000001,489.1115251179099 564.3000000000002,488.91152511790983 560.1000000000001,488.8115251179099 C 539.3000000000002,488.41152511790995 518.5,488.3115251179099 497.7000000000001,487.41152511790995 C 476.40000000000015,486.61152511791 455.2000000000001,485.11152511791 433.90000000000015,483.8115251179099 C 422.3000000000001,483.1115251179099 410.7000000000001,482.3115251179099 399.00000000000017,481.7115251179099 C 382.40000000000015,480.91152511790995 366.2000000000002,483.3115251179099 349.90000000000015,486.1115251179099 C 338.1000000000002,488.1115251179099 326.40000000000015,490.41152511790983 314.7000000000001,492.8115251179099 C 308.6000000000001,494.01152511790997 304.00000000000006,496.41152511790995 300.1000000000001,502.41152511790995 C 284.7000000000001,526.51152511791 268.6000000000001,550.11152511791 252.2000000000001,573.51152511791 C 237.2000000000001,594.91152511791 221.50000000000006,615.8115251179099 206.00000000000006,636.8115251179099 C 203.7000000000001,639.91152511791 202.7000000000001,643.01152511791 202.8,646.91152511791 C 203.7,675.7115251179099 204.50000000000006,704.51152511791 205.00000000000006,733.2115251179099 C 205.40000000000003,758.41152511791 201.8,783.3115251179099 196.50000000000006,807.91152511791 C 192.7000000000001,825.61152511791 188.7000000000001,843.31152511791 183.90000000000003,860.7115251179099 C 181.3,870.2115251179099 177.00000000000006,879.41152511791 173.10000000000002,888.5115251179099 C 171.8,891.5115251179099 169.90000000000003,894.3115251179098 167.90000000000003,897.0115251179099 C 167.10000000000002,898.0115251179099 165.40000000000003,899.1115251179098 164.3,899.0115251179099 C 163.3,898.8115251179098 162.10000000000002,897.1115251179098 161.90000000000003,895.91152511791 C 160.00000000000006,888.0115251179099 158.20000000000005,880.0115251179099 156.70000000000005,872.11152511791 C 151.60000000000002,845.7115251179099 147.30000000000007,819.11152511791 139.70000000000005,793.31152511791 C 135.80000000000007,780.11152511791 131.80000000000007,766.9115251179101 130.50000000000006,753.11152511791 C 130.20000000000005,750.51152511791 129.20000000000005,747.91152511791 128.00000000000006,745.61152511791 C 122.70000000000005,736.31152511791 119.30000000000007,726.21152511791 116.30000000000007,716.01152511791 C 111.80000000000007,700.71152511791 107.00000000000006,685.51152511791 103.40000000000009,670.01152511791 C 99.00000000000011,651.11152511791 98.40000000000009,631.8115251179099 100.90000000000009,612.51152511791 C 102.30000000000007,602.01152511791 106.80000000000007,592.8115251179099 113.30000000000007,584.61152511791 C 120.20000000000005,575.91152511791 127.60000000000008,567.51152511791 134.4000000000001,558.71152511791 C 138.0000000000001,554.01152511791 141.4000000000001,548.9115251179101 143.80000000000007,543.51152511791 C 148.9000000000001,532.11152511791 153.30000000000007,520.51152511791 157.70000000000005,508.8115251179099 C 160.00000000000006,502.8115251179099 159.40000000000003,501.41152511790995 153.70000000000005,498.41152511790995 C 149.00000000000006,495.91152511790995 144.10000000000002,493.8115251179099 139.00000000000006,492.2115251179099 C 122.90000000000003,487.01152511790985 106.60000000000008,482.3115251179099 90.50000000000006,477.2115251179099 C 76.80000000000007,472.91152511790995 62.900000000000034,469.51152511790985 48.400000000000034,470.3115251179099 C 38.30000000000001,470.8115251179099 28.200000000000045,471.91152511790995 18.100000000000023,472.6115251179099 C 13.5,472.91152511790983 8.800000000000011,473.01152511790985 4.100000000000023,472.8115251179099 C 2.7000000000000455,472.7115251179099 1.400000000000034,471.41152511790995 0.0,470.6115251179099 C 0.8000000000000114,469.2115251179099 1.1999999999999886,467.51152511790985 2.3999999999999773,466.6115251179099 C 6.099999999999966,463.6115251179099 10.399999999999977,462.91152511790983 15.599999999999966,464.01152511790985 C 12.199999999999989,466.1115251179099 8.099999999999966,465.7115251179099 4.699999999999989,469.51152511790985 C 27.0,469.8115251179098 47.89999999999998,466.01152511790985 69.5,465.3115251179098 C 65.80000000000001,461.11152511790976 65.80000000000001,461.11152511790976 51.60000000000002,458.3115251179098 C 52.5,457.91152511790983 53.0,457.51152511790985 53.60000000000002,457.41152511790983 C 60.80000000000001,455.41152511790983 66.90000000000003,451.3115251179098 72.30000000000001,446.41152511790983 C 81.10000000000002,438.41152511790983 91.60000000000002,434.8115251179098 103.10000000000002,433.7115251179098 C 113.70000000000005,432.7115251179098 124.30000000000001,432.41152511790983 134.90000000000003,431.51152511790974 C 142.00000000000006,430.9115251179097 149.10000000000002,429.9115251179097 156.10000000000002,428.51152511790974 C 164.90000000000003,426.7115251179098 172.0,421.9115251179097 177.5,414.8115251179097 C 188.3,400.61152511790965 195.99999999999994,384.9115251179097 202.40000000000003,368.4115251179097 C 209.3,350.51152511790974 213.10000000000008,331.8115251179097 215.50000000000006,312.8115251179097 C 217.60000000000008,296.3115251179097 219.7000000000001,279.8115251179097 221.2000000000001,263.3115251179097 C 223.10000000000008,242.21152511790967 223.50000000000006,221.1115251179097 222.40000000000015,199.91152511790972 C 222.1000000000002,195.1115251179097 221.40000000000015,190.3115251179097 220.90000000000015,185.51152511790974 C 220.30000000000013,180.11152511790976 220.7000000000001,174.91152511790972 223.6000000000002,170.11152511790976 C 224.40000000000015,168.7115251179098 225.30000000000024,167.11152511790976 225.40000000000015,165.51152511790974 C 226.1000000000002,157.71152511790973 230.50000000000017,151.91152511790972 235.6000000000002,146.51152511790974 C 245.80000000000024,135.41152511790972 257.6000000000002,126.21152511790973 269.30000000000024,116.81152511790975 C 291.80000000000024,98.71152511790973 316.0000000000003,82.91152511790978 342.6000000000002,71.61152511790976 C 371.30000000000024,59.411525117909775 399.80000000000024,46.611525117909764 429.7000000000002,37.21152511790976 C 454.1000000000002,29.51152511790977 478.1000000000002,20.71152511790976 502.50000000000017,12.911525117909747 C 516.9000000000001,8.311525117909753 531.6000000000001,4.811525117909753 546.2000000000003,0.8115251179097527 C 548.3000000000002,0.21152511790975836 550.7000000000003,-0.888474882090236 552.2000000000003,1.3115251179097527 C 553.8000000000002,3.8115251179097527 551.7000000000003,5.911525117909747 550.0000000000002,7.311525117909753 C 546.1000000000001,10.511525117909741 542.5000000000002,13.711525117909758 540.6000000000001,18.611525117909764 C 539.9000000000001,20.51152511790977 537.9000000000001,21.911525117909775 536.2000000000003,23.311525117909753 C 520.8000000000002,36.81152511790975 505.50000000000017,50.41152511790975 489.90000000000026,63.71152511790976 C 459.2000000000002,90.01152511790974 429.1000000000003,117.11152511790976 396.5000000000003,141.11152511790976 C 382.90000000000026,151.2115251179098 368.40000000000026,160.11152511790976 354.40000000000026,169.7115251179098 C 349.6000000000003,173.0115251179098 344.90000000000026,176.41152511790978 340.5000000000003,180.2115251179098 C 336.70000000000033,183.5115251179098 334.80000000000024,187.91152511790978 334.6000000000003,193.0115251179098 C 334.5000000000003,195.5115251179098 334.40000000000026,198.0115251179098 334.40000000000026,200.5115251179098 C 334.90000000000026,239.8115251179098 335.5000000000003,279.11152511790976 336.0000000000003,318.3115251179098 C 336.1000000000003,328.3115251179098 336.6000000000003,338.3115251179098 335.6000000000003,348.2115251179098 C 334.6000000000003,358.91152511790983 332.0000000000003,369.41152511790983 330.40000000000026,380.11152511790976 C 329.30000000000024,387.61152511790976 328.40000000000026,395.2115251179098 327.80000000000024,402.8115251179098 C 327.6000000000002,405.51152511790985 328.2000000000002,408.41152511790983 328.90000000000026,411.11152511790976 C 329.7000000000002,414.11152511790976 328.90000000000026,415.9115251179097 326.0000000000003,416.9115251179097 C 324.7,417.31152511791004 323.40000000000003,418.31152511791004 321.00000000000006,419.6115251179101 M 122.30000000000001,473.6115251179101 C 121.69999999999999,469.2115251179101 120.30000000000001,467.81152511791015 115.5,466.91152511791006 C 117.80000000000001,469.2115251179101 120.00000000000006,471.41152511791006 122.30000000000001,473.6115251179101 M 24.100000000000023,461.7115251179101 C 31.900000000000034,459.1115251179101 39.900000000000034,458.5115251179101 48.10000000000002,459.2115251179101 C 40.400000000000034,461.91152511791006 32.30000000000001,461.91152511791006 24.100000000000023,461.7115251179101"/>
</svg>
