<?xml version="1.0" ?>
<svg xmlns="http://www.w3.org/2000/svg" xmlns:ev="http://www.w3.org/2001/xml-events" xmlns:xlink="http://www.w3.org/1999/xlink" baseProfile="full" height="462" id="Слой_1" style="enable-background:new 0 0 1280 1280;" transform="scale(0.21645021645021645 0.21645021645021645) translate(-323.5 -231.0)" version="1.1" viewBox="0 0 647 462" width="647" x="0px" xml:space="preserve" y="0px">
	<defs/>
	<path d="M 645.9999999999999,1.1130768281801693 C 639.3999999999999,2.0130768281801465 632.8999999999999,2.9130768281801807 626.2999999999998,3.813076828180158 C 608.8999999999999,6.313076828180158 591.3999999999999,8.713076828180135 573.9999999999999,11.41307682818018 C 559.3999999999999,13.713076828180192 544.7999999999998,16.013076828180203 530.1999999999999,18.813076828180158 C 516.8,21.41307682818018 503.5999999999999,24.713076828180135 490.29999999999995,27.61307682818017 C 486.5999999999999,28.41307682818018 484.0,30.41307682818018 481.9,33.31307682818016 C 474.6,43.213076828180135 467.29999999999995,53.11307682818017 459.79999999999995,62.91307682818018 C 458.4,64.71307682818019 458.0,66.21307682818019 458.79999999999995,68.31307682818016 C 459.4,70.01307682818015 459.5999999999999,71.91307682818018 459.79999999999995,73.71307682818014 C 460.5,81.51307682818015 463.5,88.51307682818015 467.19999999999993,95.21307682818014 C 470.9999999999999,102.01307682818015 474.29999999999995,109.11307682818017 477.9,116.01307682818015 C 481.4,122.71307682818019 480.5,130.01307682818015 481.0,137.11307682818017 C 481.4,143.91307682818012 481.20000000000005,150.81307682818021 481.9,157.51307682818015 C 482.4,162.61307682818017 483.69999999999993,167.61307682818017 485.1,172.61307682818017 C 485.9,175.41307682818012 488.6,175.41307682818012 490.9,174.91307682818012 C 497.9,173.41307682818012 499.4,178.11307682818017 500.19999999999993,184.11307682818017 C 500.4,185.7130768281802 498.9999999999999,187.91307682818012 497.5999999999999,189.2130768281802 C 494.9999999999999,191.61307682818017 494.69999999999993,194.01307682818015 495.9999999999999,197.2130768281802 C 497.9999999999999,202.01307682818015 495.4999999999999,208.31307682818021 490.69999999999993,210.51307682818015 C 489.79999999999995,210.91307682818012 488.4,210.3130768281801 486.4999999999999,210.11307682818017 C 487.79999999999984,206.51307682818015 488.79999999999984,203.61307682818017 489.9999999999999,200.11307682818017 C 488.89999999999986,199.7130768281802 487.39999999999986,198.7130768281802 485.9999999999999,198.81307682818021 C 483.79999999999984,199.01307682818026 481.39999999999986,199.7130768281802 479.4999999999999,200.7130768281802 C 477.9999999999999,201.51307682818015 478.69999999999993,203.51307682818015 480.5999999999999,203.91307682818024 C 482.0999999999999,204.31307682818021 483.69999999999993,204.2130768281802 485.5999999999999,204.41307682818024 C 485.0999999999999,206.7130768281802 483.89999999999986,207.01307682818026 482.19999999999993,206.7130768281802 C 478.4,206.01307682818015 476.69999999999993,204.2130768281802 475.0999999999999,199.41307682818024 C 472.29999999999995,199.2130768281802 471.0999999999999,200.7130768281802 470.0999999999999,203.2130768281802 C 465.0999999999999,215.7130768281802 459.79999999999995,228.11307682818017 454.69999999999993,240.51307682818015 C 453.29999999999995,243.8130768281801 453.69999999999993,245.3130768281801 457.0999999999999,246.8130768281801 C 464.9999999999999,250.3130768281801 472.89999999999986,253.8130768281801 480.9999999999999,256.9130768281801 C 495.29999999999984,262.3130768281801 509.79999999999984,267.4130768281801 524.0999999999999,272.7130768281801 C 528.3999999999999,274.3130768281801 532.5999999999999,276.4130768281801 536.8,278.61307682818006 C 538.6999999999999,279.61307682818006 540.4,281.01307682818003 541.8,282.51307682818003 C 545.0999999999999,286.01307682818003 544.6999999999999,288.2130768281801 540.0,289.61307682818006 C 536.1,290.8130768281801 531.9,291.41307682818 527.8,291.3130768281801 C 521.4,291.11307682818006 514.9,290.2130768281801 507.4,289.51307682818015 C 511.1,292.2130768281802 514.1,294.4130768281801 517.1,296.61307682818017 C 521.7,300.11307682818017 526.6,303.4130768281801 529.6,308.51307682818015 C 531.8000000000001,312.2130768281802 531.1,314.4130768281801 526.9,315.61307682818017 C 521.6,317.11307682818017 516.3,316.61307682818017 511.19999999999993,315.01307682818015 C 506.79999999999995,313.61307682818017 502.4,312.2130768281802 497.5999999999999,311.61307682818017 C 498.69999999999993,313.01307682818015 499.9999999999999,314.2130768281802 500.9999999999999,315.7130768281802 C 504.69999999999993,320.8130768281802 508.69999999999993,325.7130768281802 511.9999999999999,331.11307682818017 C 513.2999999999998,333.2130768281802 513.5999999999999,336.2130768281802 513.6999999999999,338.8130768281802 C 513.8,342.41307682818024 510.0999999999999,344.3130768281802 505.4999999999999,343.7130768281802 C 498.39999999999986,342.7130768281802 492.79999999999984,339.01307682818015 487.29999999999984,334.91307682818024 C 486.39999999999986,334.2130768281802 485.4999999999999,333.41307682818024 483.9999999999999,332.2130768281802 C 486.79999999999984,338.7130768281802 489.29999999999984,344.51307682818015 491.89999999999986,350.3130768281802 C 493.89999999999986,354.7130768281802 494.29999999999984,359.2130768281802 493.9999999999999,363.91307682818024 C 493.69999999999993,368.3130768281802 490.19999999999993,370.6130768281803 485.9999999999999,369.51307682818026 C 480.89999999999986,368.1130768281803 477.39999999999986,364.6130768281803 474.0999999999999,360.91307682818024 C 472.89999999999986,359.6130768281803 471.79999999999995,358.1130768281803 470.19999999999993,356.2130768281802 C 471.29999999999995,363.2130768281802 472.69999999999993,369.41307682818024 472.9999999999999,375.61307682818017 C 473.29999999999984,380.51307682818015 472.39999999999986,385.51307682818015 471.69999999999993,390.4130768281801 C 471.4,392.51307682818015 470.29999999999995,395.11307682818017 467.9,395.01307682818015 C 465.79999999999995,394.9130768281801 463.19999999999993,393.7130768281802 461.9,392.2130768281802 C 459.4,388.91307682818024 457.69999999999993,385.11307682818017 455.69999999999993,381.41307682818024 C 454.9,380.01307682818026 454.29999999999995,378.51307682818026 453.19999999999993,376.1130768281803 C 452.9,384.51307682818026 453.29999999999995,392.01307682818026 452.19999999999993,399.2130768281803 C 451.0999999999999,406.2130768281803 450.9,413.91307682818035 444.4999999999999,419.01307682818026 C 441.69999999999993,417.91307682818024 440.29999999999984,416.1130768281803 439.69999999999993,413.41307682818024 C 438.5999999999999,407.91307682818024 437.4,402.41307682818024 435.9999999999999,396.41307682818024 C 435.4999999999999,397.8130768281802 434.9999999999999,398.8130768281802 434.89999999999986,399.8130768281802 C 433.79999999999984,411.3130768281802 430.79999999999984,422.41307682818024 426.4999999999999,433.11307682818017 C 425.29999999999984,436.01307682818015 424.39999999999986,439.11307682818017 421.39999999999986,440.8130768281802 C 418.89999999999986,439.3130768281802 418.5999999999999,437.11307682818017 418.6999999999998,434.7130768281802 C 418.9999999999998,428.11307682818017 419.1999999999998,421.41307682818024 418.9999999999998,414.61307682818017 C 418.2999999999997,416.61307682818017 417.4999999999998,418.61307682818017 416.9999999999998,420.61307682818017 C 413.9999999999998,432.9130768281801 409.39999999999975,444.7130768281802 403.7999999999997,456.01307682818015 C 402.7999999999997,458.01307682818015 402.0999999999997,460.3130768281801 398.4999999999998,461.3130768281801 C 398.7999999999997,457.9130768281801 398.6999999999998,454.9130768281801 399.2999999999997,452.2130768281801 C 402.39999999999975,437.4130768281801 406.0999999999997,422.7130768281801 408.7999999999997,407.8130768281801 C 413.39999999999975,382.61307682818006 417.1999999999997,357.2130768281801 416.9999999999998,331.51307682818015 C 416.89999999999975,313.7130768281802 416.39999999999975,295.9130768281801 415.9999999999998,278.11307682818017 C 415.9999999999998,276.8130768281802 415.5999999999998,275.51307682818015 415.0999999999998,274.3130768281802 C 410.1999999999998,263.61307682818017 405.0999999999998,253.01307682818026 400.0999999999998,242.2130768281802 C 397.5999999999998,248.41307682818024 397.79999999999984,256.11307682818017 391.4999999999998,262.01307682818015 C 387.6999999999998,251.8130768281801 390.1999999999998,242.2130768281802 389.2999999999997,232.61307682818017 C 388.1999999999997,236.2130768281802 386.9999999999998,239.81307682818021 385.89999999999975,243.31307682818021 C 384.6999999999997,246.91307682818024 383.5999999999998,250.61307682818017 382.2999999999997,254.2130768281802 C 380.9999999999998,257.91307682818024 379.5999999999997,261.7130768281802 375.4999999999998,264.7130768281802 C 372.2999999999997,255.7130768281802 375.4999999999998,247.31307682818021 375.0999999999998,238.7130768281802 C 374.39999999999975,240.31307682818021 373.79999999999984,241.91307682818024 372.9999999999998,243.51307682818015 C 369.89999999999975,250.11307682818017 366.89999999999975,256.8130768281801 363.5999999999998,263.3130768281801 C 362.89999999999975,264.8130768281801 361.29999999999984,265.9130768281801 360.0999999999998,267.11307682818006 C 359.6999999999998,267.01307682818003 359.29999999999984,266.91307682818 358.89999999999975,266.8130768281801 C 358.6999999999997,265.11307682818006 358.1999999999997,263.4130768281801 358.39999999999975,261.8130768281801 C 359.1999999999997,256.11307682818006 360.0999999999998,250.3130768281801 361.39999999999975,244.61307682818006 C 362.7999999999997,238.3130768281801 364.6999999999997,232.11307682818006 365.9999999999998,225.51307682818003 C 364.1999999999998,227.81307682818 362.4999999999998,230.21307682818008 360.5999999999998,232.51307682818003 C 351.89999999999975,243.41307682818 343.1999999999998,254.51307682818003 331.4999999999998,262.51307682818003 C 329.0999999999998,264.2130768281801 326.2999999999997,265.41307682818 323.4999999999998,266.41307682818 C 320.0999999999998,267.61307682818006 316.2999999999997,267.71307682817996 313.6999999999998,264.91307682818 C 310.89999999999986,261.91307682818 311.6999999999998,258.01307682818003 312.9999999999998,254.51307682818003 C 314.0999999999998,251.61307682818006 315.89999999999975,249.11307682818006 316.89999999999975,245.91307682818 C 313.7999999999997,248.21307682817996 310.5999999999998,250.51307682818003 307.4999999999998,252.91307682818 C 300.2999999999997,258.41307682818 292.7999999999997,263.21307682817996 284.0999999999998,266.01307682818003 C 281.4999999999998,266.81307682818 278.4999999999998,267.2130768281801 275.79999999999984,266.7130768281801 C 271.4999999999999,265.9130768281801 269.1999999999998,262.2130768281801 269.39999999999986,257.7130768281801 C 264.0999999999999,260.01307682818003 258.6999999999998,262.11307682818006 253.4999999999999,264.51307682818003 C 248.79999999999984,266.61307682818006 243.89999999999986,267.01307682818003 238.89999999999986,267.11307682818006 C 237.69999999999982,267.11307682818006 236.29999999999984,266.61307682818006 235.29999999999984,265.91307682818 C 230.5999999999998,262.71307682817996 230.39999999999986,261.61307682818006 232.89999999999986,256.51307682818003 C 233.5999999999999,255.21307682818008 234.0999999999999,253.81307682818 235.0999999999999,251.71307682818008 C 221.0999999999999,255.21307682818008 208.29999999999995,261.2130768281801 193.29999999999995,259.9130768281801 C 197.29999999999995,252.21307682818008 205.29999999999995,251.11307682818017 210.89999999999998,246.71307682818008 C 195.69999999999993,250.3130768281801 181.2,257.2130768281801 164.0,255.91307682818012 C 169.0,248.91307682818012 176.10000000000002,247.21307682818008 181.89999999999998,243.21307682818008 C 181.09999999999997,243.3130768281801 180.39999999999998,243.3130768281801 179.59999999999997,243.61307682818006 C 170.2,246.51307682818003 160.89999999999998,249.71307682818008 151.49999999999994,252.41307682818 C 145.59999999999997,254.11307682818006 139.49999999999994,255.01307682818003 133.39999999999992,256.11307682818006 C 131.89999999999992,256.41307682818 130.2999999999999,255.71307682818008 127.49999999999994,255.3130768281801 C 128.99999999999994,253.61307682818006 129.59999999999997,252.41307682818012 130.49999999999994,251.91307682818012 C 135.79999999999995,248.8130768281801 141.19999999999993,245.91307682818012 146.59999999999997,243.01307682818015 C 148.59999999999997,241.91307682818012 150.59999999999997,240.91307682818012 152.39999999999998,239.61307682818017 C 135.89999999999998,243.31307682818021 119.79999999999995,248.91307682818012 102.69999999999999,249.01307682818015 C 102.0,249.01307682818015 101.39999999999998,248.3130768281801 100.19999999999999,247.7130768281802 C 104.80000000000001,243.01307682818015 110.5,241.11307682818017 115.80000000000001,238.7130768281802 C 121.19999999999999,236.2130768281802 126.80000000000001,234.01307682818015 132.2,231.2130768281802 C 131.0,231.41307682818024 129.7,231.51307682818015 128.5,231.81307682818021 C 115.39999999999998,234.7130768281802 102.19999999999999,237.91307682818024 89.10000000000002,240.61307682818017 C 82.90000000000003,241.91307682818012 76.60000000000002,242.51307682818015 70.30000000000001,243.11307682818017 C 68.40000000000003,243.31307682818021 66.5,242.51307682818015 63.30000000000001,241.91307682818012 C 71.30000000000001,234.91307682818012 80.40000000000003,233.11307682818017 88.5,228.91307682818012 C 81.89999999999998,230.21307682818008 75.30000000000001,231.61307682818017 68.69999999999999,232.61307682818017 C 60.0,234.01307682818015 51.30000000000001,235.11307682818017 42.5,236.2130768281802 C 39.69999999999999,236.61307682818017 36.89999999999998,236.51307682818015 33.89999999999998,234.11307682818017 C 47.099999999999966,226.11307682818017 61.69999999999999,223.31307682818021 75.09999999999997,217.31307682818021 C 62.49999999999994,219.31307682818021 49.99999999999994,221.51307682818026 37.39999999999998,223.31307682818021 C 25.0,225.11307682818017 12.599999999999966,227.2130768281802 0.0,224.51307682818026 C 4.399999999999977,220.81307682818021 9.5,219.01307682818026 14.600000000000023,217.51307682818026 C 46.80000000000001,207.7130768281803 79.40000000000003,199.91307682818024 112.20000000000005,192.61307682818028 C 132.20000000000005,188.11307682818028 152.20000000000005,183.91307682818024 172.30000000000007,179.81307682818033 C 195.10000000000002,175.2130768281803 218.0000000000001,170.81307682818033 240.9000000000001,166.51307682818037 C 259.4000000000001,163.01307682818037 277.9000000000001,159.51307682818037 296.4000000000001,156.31307682818033 C 303.30000000000007,155.11307682818028 310.20000000000005,154.41307682818035 317.10000000000014,153.41307682818035 C 318.60000000000014,153.2130768281803 320.20000000000016,153.1130768281804 321.3000000000002,152.31307682818033 C 326.70000000000016,148.41307682818035 333.0000000000002,146.7130768281803 339.20000000000016,145.01307682818037 C 351.0000000000001,141.6130768281804 362.8000000000002,137.91307682818035 374.10000000000014,133.1130768281804 C 377.5000000000001,131.6130768281804 379.20000000000016,129.81307682818044 378.8000000000002,126.01307682818037 C 378.5000000000002,123.41307682818035 378.70000000000016,120.81307682818033 378.70000000000016,118.1130768281804 C 362.60000000000014,120.21307682818042 359.20000000000016,117.31307682818044 357.0000000000001,107.31307682818044 C 354.10000000000014,106.91307682818046 351.10000000000014,106.71307682818042 348.20000000000016,106.01307682818049 C 344.20000000000016,105.01307682818049 340.5000000000001,103.41307682818046 339.3000000000002,99.01307682818049 C 338.70000000000016,96.8130768281805 338.9000000000002,94.3130768281805 338.70000000000016,91.3130768281805 C 336.10000000000014,90.51307682818049 332.70000000000016,89.71307682818048 329.5000000000001,88.51307682818049 C 326.30000000000007,87.3130768281805 322.80000000000007,86.51307682818049 320.5000000000001,82.71307682818048 C 322.60000000000014,81.71307682818048 324.4000000000001,80.8130768281805 326.5000000000001,79.91307682818046 C 319.80000000000007,78.11307682818045 312.9000000000001,77.31307682818044 307.10000000000014,71.71307682818048 C 309.10000000000014,70.71307682818048 310.60000000000014,69.91307682818046 312.4000000000001,69.11307682818045 C 305.60000000000014,67.01307682818043 298.20000000000005,66.71307682818048 292.30000000000007,62.01307682818043 C 294.1,58.41307682818041 297.9000000000001,60.01307682818043 300.5000000000001,58.41307682818041 C 286.10000000000014,54.1130768281804 284.0000000000001,53.1130768281804 281.4000000000001,49.51307682818043 C 283.9000000000001,46.81307682818044 287.30000000000007,48.31307682818044 291.30000000000007,47.31307682818044 C 289.20000000000005,46.51307682818043 287.9000000000001,46.11307682818045 286.6,45.61307682818045 C 281.6,43.81307682818044 276.6,42.11307682818045 271.70000000000005,40.11307682818045 C 270.0,39.413076828180465 268.70000000000005,37.913076828180465 266.5,36.413076828180465 C 269.0,35.61307682818045 270.6,35.11307682818045 272.79999999999995,34.31307682818044 C 266.69999999999993,31.913076828180465 260.79999999999995,30.21307682818042 255.39999999999998,24.913076828180465 C 258.19999999999993,24.513076828180488 259.9,24.113076828180454 261.6,24.113076828180454 C 263.4,24.113076828180454 265.20000000000005,24.51307682818043 267.1,24.313076828180442 C 259.70000000000005,20.01307682818043 250.70000000000005,18.71307682818042 244.5,12.313076828180442 C 244.60000000000002,11.913076828180465 244.70000000000005,11.413076828180465 244.70000000000005,11.01307682818043 C 246.70000000000005,11.01307682818043 248.9000000000001,10.613076828180454 250.80000000000007,11.113076828180454 C 265.4000000000001,14.313076828180442 280.20000000000005,16.913076828180465 294.6,21.01307682818043 C 320.5,28.413076828180408 346.20000000000005,36.61307682818045 371.9,44.61307682818045 C 374.9,45.51307682818043 377.79999999999995,46.713076828180476 380.4,47.61307682818045 C 383.5,40.61307682818045 386.5,33.81307682818044 389.69999999999993,27.113076828180454 C 390.79999999999995,24.913076828180465 392.19999999999993,22.713076828180476 393.9999999999999,21.113076828180454 C 404.79999999999984,11.213076828180476 417.0999999999999,4.313076828180442 431.89999999999986,2.413076828180465 C 438.29999999999984,1.6130768281804535 444.4999999999999,3.0130768281804876 450.5999999999999,4.6130768281804535 C 461.5999999999999,7.413076828180465 472.39999999999986,10.613076828180454 483.29999999999995,13.51307682818043 C 484.5,13.813076828180442 485.9,13.71307682818042 487.29999999999995,13.613076828180454 C 507.19999999999993,11.713076828180476 527.0,9.713076828180476 546.9,7.813076828180442 C 571.9,5.513076828180431 597.0,3.313076828180442 622.0,1.1130768281804535 C 628.6,0.5130768281804308 635.3,0.31307682818044213 641.9,0.013076828180430766 C 643.1,-0.08692317181959197 644.4,0.41307682818040803 645.6999999999999,0.6130768281804535 C 645.9999999999999,0.11307682818016929 645.9999999999999,0.6130768281801693 645.9999999999999,1.1130768281801693 M 492.5999999999999,183.7130768281802 C 489.39999999999986,181.11307682818017 486.5999999999999,181.2130768281802 482.5999999999999,184.31307682818021 C 482.9999999999999,188.31307682818021 486.9999999999999,185.91307682818024 488.89999999999986,187.7130768281802 C 487.1999999999998,191.7130768281802 483.79999999999984,188.01307682818015 481.39999999999986,189.7130768281802 C 483.1999999999998,191.51307682818015 485.0999999999999,192.41307682818024 487.1999999999998,191.7130768281802 C 488.5999999999998,191.31307682818021 489.9999999999998,190.11307682818017 490.79999999999984,188.91307682818024 C 491.69999999999993,187.51307682818015 491.9999999999999,185.61307682818017 492.5999999999999,183.7130768281802"/>
</svg>
