<?xml version="1.0" ?>
<svg xmlns="http://www.w3.org/2000/svg" xmlns:ev="http://www.w3.org/2001/xml-events" xmlns:xlink="http://www.w3.org/1999/xlink" baseProfile="full" height="1013" id="Слой_1" style="enable-background:new 0 0 1280 1280;" transform="scale(0.12594458438287154 0.12594458438287154) translate(-397.0 -506.5)" version="1.1" viewBox="0 0 794 1013" width="794" x="0px" xml:space="preserve" y="0px">
	<defs/>
	<path d="M 353.22799999999995,431.5999999999999 C 350.328,430.19999999999993 347.5279999999999,428.4999999999999 344.5279999999999,427.39999999999986 C 333.82799999999986,423.29999999999984 323.0279999999999,419.39999999999986 312.32799999999986,415.4999999999999 C 295.4279999999999,409.29999999999984 279.22799999999984,401.5999999999999 264.9279999999999,390.39999999999986 C 257.5279999999999,384.59999999999985 250.9279999999999,378.09999999999985 245.02799999999993,370.79999999999984 C 244.32799999999995,369.89999999999986 243.72799999999992,368.89999999999986 242.4279999999999,366.89999999999986 C 245.3279999999999,367.79999999999984 247.22799999999992,368.1999999999999 249.02799999999993,368.89999999999986 C 260.22799999999995,372.9999999999999 271.4279999999999,377.1999999999999 282.72799999999995,381.1999999999999 C 286.22799999999995,382.39999999999986 289.828,384.1999999999999 294.72799999999995,383.1999999999999 C 292.928,381.39999999999986 291.62799999999993,379.9999999999999 290.22799999999995,378.7999999999999 C 280.5279999999999,370.1999999999999 271.0279999999999,361.2999999999999 263.028,350.8999999999999 C 258.928,345.5999999999999 255.028,340.19999999999993 253.72799999999998,333.3999999999999 C 253.42799999999997,331.8999999999999 253.42799999999997,330.2999999999999 253.328,328.69999999999993 C 253.62800000000001,328.5999999999999 253.92800000000003,328.49999999999994 254.328,328.29999999999995 C 255.12800000000001,328.99999999999994 255.92800000000003,329.69999999999993 256.62800000000004,330.49999999999994 C 263.62800000000004,337.49999999999994 271.928,342.69999999999993 280.528,347.59999999999997 C 300.12800000000004,358.59999999999997 320.62800000000004,367.7 341.72800000000007,375.4 C 343.22800000000007,375.9 344.8280000000001,376.2 346.62800000000004,375.9 C 345.3280000000001,375.0 343.928,374.09999999999997 342.62800000000004,373.2 C 326.12800000000004,362.5 309.928,351.4 295.528,338.0 C 283.928,327.3 273.928,315.4 266.3280000000001,301.5 C 265.528,300.1 264.9280000000001,298.6 264.62800000000004,296.7 C 266.8280000000001,298.3 268.9280000000001,300.0 271.12800000000004,301.59999999999997 C 283.928,310.7 297.72800000000007,317.99999999999994 311.928,324.7 C 332.328,334.3 353.028,343.5 373.62800000000004,352.8 C 374.928,353.40000000000003 376.3280000000001,353.90000000000003 378.028,353.8 C 376.22800000000007,352.7 374.328,351.6 372.528,350.6 C 353.22800000000007,340.20000000000005 334.22800000000007,329.1 317.028,315.3 C 309.828,309.5 302.928,303.1 296.528,296.3 C 284.528,283.8 277.928,268.5 275.12800000000004,251.5 C 274.8280000000001,249.89999999999998 274.62800000000004,248.2 274.22800000000007,246.2 C 274.8280000000001,246.5 275.22800000000007,246.59999999999997 275.4280000000001,246.89999999999998 C 288.9280000000001,263.5 305.3280000000001,276.79999999999995 323.22800000000007,288.09999999999997 C 337.4280000000001,297.09999999999997 351.9280000000001,305.49999999999994 366.3280000000001,314.09999999999997 C 372.3280000000001,317.7 378.3280000000001,321.29999999999995 384.3280000000001,324.9 C 385.22800000000007,325.4 386.22800000000007,325.9 387.52800000000013,325.79999999999995 C 381.02800000000013,320.4 374.52800000000013,315.09999999999997 368.2280000000002,309.59999999999997 C 343.9280000000002,288.59999999999997 322.12800000000016,265.4 305.52800000000013,237.69999999999993 C 295.62800000000016,221.19999999999993 288.2280000000002,203.5999999999999 281.3280000000001,185.79999999999995 C 281.12800000000004,185.19999999999993 281.12800000000004,184.59999999999997 281.4280000000001,183.59999999999997 C 319.72800000000007,229.79999999999995 362.62800000000016,270.9 414.4280000000001,302.09999999999997 C 413.52800000000013,301.09999999999997 412.62800000000016,299.99999999999994 411.72800000000007,298.99999999999994 C 386.028,272.79999999999995 362.22800000000007,245.09999999999997 341.72800000000007,214.5999999999999 C 325.028,189.7999999999999 310.9280000000001,163.69999999999993 301.8280000000001,135.0999999999999 C 296.22800000000007,117.5999999999999 292.72800000000007,99.69999999999989 293.12800000000004,81.19999999999989 C 293.12800000000004,79.5999999999999 293.22800000000007,77.9999999999999 294.12800000000004,76.29999999999988 C 295.12800000000004,80.29999999999988 296.22800000000007,84.19999999999989 297.12800000000004,88.19999999999989 C 300.12800000000004,101.5999999999999 302.928,115.19999999999989 308.528,127.8999999999999 C 316.12800000000004,145.0999999999999 326.72800000000007,160.39999999999992 338.828,174.69999999999993 C 364.528,204.89999999999992 390.328,234.89999999999992 416.328,264.79999999999995 C 421.72799999999995,271.09999999999997 427.828,276.79999999999995 433.72799999999995,282.69999999999993 C 435.5279999999999,284.49999999999994 437.62799999999993,285.8999999999999 440.328,286.8999999999999 C 437.528,283.2999999999999 434.72799999999995,279.69999999999993 432.028,275.99999999999994 C 398.528,228.99999999999994 371.62800000000004,178.49999999999994 353.72800000000007,123.49999999999993 C 348.3280000000001,106.99999999999993 344.72800000000007,90.19999999999992 343.4280000000001,72.79999999999994 C 342.8280000000001,65.19999999999995 343.72800000000007,54.09999999999995 345.72800000000007,48.699999999999946 C 347.9280000000001,55.59999999999995 350.028,62.09999999999995 352.028,68.59999999999995 C 360.928,97.29999999999994 369.828,126.09999999999995 381.028,154.0 C 386.12800000000004,166.8 391.72800000000007,179.5 399.22800000000007,191.10000000000002 C 403.22800000000007,197.20000000000005 409.3280000000001,199.20000000000005 416.72800000000007,199.8 C 416.4280000000001,198.2 416.3280000000001,197.10000000000002 416.028,196.10000000000002 C 410.12800000000004,177.10000000000002 407.528,157.5 405.928,137.8 C 404.22799999999995,116.99999999999999 404.12800000000004,96.2 405.22799999999995,75.39999999999999 C 406.12799999999993,57.999999999999986 407.828,40.60000000000001 412.0279999999999,23.60000000000001 C 415.0279999999999,11.500000000000014 423.32799999999986,4.900000000000006 434.12799999999993,0.4000000000000057 C 434.72799999999995,0.20000000000000284 435.4279999999999,0.10000000000000853 436.0279999999999,0.0 C 436.32799999999986,0.0 436.62799999999993,0.20000000000000284 437.5279999999999,0.5999999999999943 C 436.82799999999986,2.0 436.22799999999995,3.5 435.4279999999999,4.799999999999997 C 424.4279999999999,22.89999999999999 418.72799999999984,42.60000000000001 416.82799999999986,63.7 C 414.82799999999986,86.50000000000001 417.4279999999999,108.90000000000002 421.5279999999999,131.2 C 422.5279999999999,136.60000000000002 424.12799999999993,141.90000000000003 424.9279999999999,147.3 C 425.62799999999993,151.60000000000002 427.82799999999986,154.60000000000002 431.22799999999984,157.0 C 436.82799999999986,160.89999999999998 442.4279999999999,164.89999999999998 448.0279999999998,168.7 C 461.72799999999984,178.0 461.72799999999984,178.0 466.72799999999984,193.59999999999997 C 471.1279999999998,207.39999999999998 475.4279999999999,221.2 479.82799999999986,234.89999999999998 C 482.72799999999984,244.0 486.9279999999999,252.5 492.6279999999998,260.09999999999997 C 498.1279999999998,267.29999999999995 499.72799999999984,275.2 498.32799999999986,284.09999999999997 C 497.32799999999986,290.49999999999994 497.22799999999984,296.99999999999994 500.1279999999998,303.2 C 502.72799999999984,308.7 503.32799999999986,309.09999999999997 510.0279999999998,308.2 C 509.82799999999975,307.0 509.6279999999998,305.7 509.32799999999975,304.5 C 507.1279999999997,295.0 504.7279999999997,285.4 502.7279999999997,275.9 C 502.0279999999997,272.7 501.82799999999975,269.29999999999995 501.82799999999975,266.0 C 501.82799999999975,264.1 502.5279999999998,262.1 503.42799999999977,260.4 C 505.42799999999977,256.79999999999995 507.7279999999997,253.29999999999995 510.1279999999998,249.89999999999998 C 513.0279999999998,245.7 513.8279999999999,241.09999999999997 513.5279999999998,236.2 C 513.1279999999998,229.7 512.2279999999998,223.2 514.1279999999998,216.89999999999998 C 515.1279999999998,213.5 516.1279999999998,210.0 519.7279999999998,207.29999999999995 C 518.7279999999998,222.59999999999997 517.6279999999998,237.29999999999995 517.0279999999998,251.89999999999998 C 516.4279999999998,266.59999999999997 517.1279999999998,281.2 519.1279999999998,295.7 C 521.2279999999998,310.3 523.6279999999998,324.9 526.5279999999998,339.4 C 529.4279999999998,353.59999999999997 533.6279999999998,367.59999999999997 539.3279999999997,382.2 C 541.6279999999997,368.8 543.3279999999997,356.59999999999997 546.1279999999997,344.7 C 548.3279999999997,335.2 551.8279999999997,326.0 555.2279999999997,316.8 C 556.4279999999998,313.6 558.5279999999997,310.7 560.7279999999997,308.0 C 564.0279999999997,303.9 568.4279999999998,303.2 573.8279999999997,304.6 C 573.4279999999998,305.40000000000003 573.2279999999997,306.0 572.8279999999997,306.40000000000003 C 560.7279999999997,322.00000000000006 554.2279999999997,340.00000000000006 549.9279999999998,359.00000000000006 C 545.5279999999998,378.6000000000001 544.0279999999998,398.5000000000001 545.1279999999998,418.5000000000001 C 545.7279999999998,428.10000000000014 547.3279999999999,437.70000000000016 548.9279999999998,447.10000000000014 C 552.0279999999998,464.9000000000001 555.2279999999997,482.8000000000002 558.9279999999998,500.5000000000001 C 561.5279999999998,512.5000000000001 565.2279999999997,524.3000000000001 568.2279999999997,536.2000000000002 C 570.2279999999997,544.1000000000001 571.6279999999997,552.1000000000001 573.7279999999997,560.0000000000001 C 575.2279999999997,565.4000000000001 576.9279999999998,570.9000000000001 579.4279999999998,575.9000000000001 C 586.4279999999998,590.5000000000001 589.3279999999997,605.8000000000001 587.6279999999998,621.9000000000001 C 587.5279999999998,622.4000000000001 587.5279999999998,622.9000000000001 587.5279999999998,623.4000000000001 C 587.5279999999998,623.5000000000001 587.6279999999998,623.7 587.9279999999998,624.1000000000001 C 590.2279999999997,622.8000000000002 592.4279999999998,621.5000000000001 594.7279999999997,620.3000000000002 C 606.2279999999997,614.3000000000002 618.5279999999997,610.9000000000002 631.1279999999997,608.5000000000002 C 644.2279999999997,606.1000000000003 657.5279999999997,604.8000000000002 670.8279999999997,605.4000000000002 C 681.4279999999998,605.9000000000002 692.0279999999998,607.2000000000002 702.1279999999997,610.9000000000002 C 707.8279999999997,613.0000000000002 713.0279999999997,615.7000000000002 717.7279999999997,619.5000000000002 C 719.0279999999997,620.6000000000003 720.9279999999998,621.2000000000003 722.6279999999997,621.4000000000002 C 735.0279999999997,622.9000000000002 747.3279999999997,624.4000000000002 759.4279999999997,628.0000000000002 C 772.0279999999997,631.7000000000003 783.3279999999996,637.8000000000002 793.7279999999997,646.0000000000002 C 787.0279999999997,644.2000000000003 780.4279999999998,641.9000000000002 773.6279999999997,640.8000000000002 C 766.6279999999997,639.6000000000001 759.4279999999997,639.3000000000002 752.3279999999997,639.1000000000001 C 745.2279999999997,638.9000000000001 738.2279999999997,639.9000000000001 730.6279999999997,642.7000000000002 C 751.5279999999997,646.0000000000001 772.0279999999997,646.1000000000001 792.4279999999998,652.7000000000002 C 786.5279999999997,655.4000000000002 781.3279999999997,655.9000000000002 776.0279999999998,656.1000000000001 C 768.7279999999998,656.4000000000001 761.4279999999998,656.3000000000002 754.0279999999998,656.2000000000002 C 750.5279999999998,656.2000000000002 747.6279999999998,657.1000000000001 744.6279999999998,658.9000000000002 C 735.8279999999999,664.0000000000002 726.9279999999998,668.8000000000002 718.0279999999998,673.6000000000003 C 715.7279999999998,674.9000000000002 713.2279999999998,676.1000000000003 710.7279999999998,676.8000000000003 C 694.4279999999999,681.0000000000003 681.2279999999998,691.0000000000003 667.8279999999999,700.5000000000003 C 642.4279999999999,718.6000000000004 618.6279999999998,738.6000000000004 595.3279999999999,759.2000000000004 C 581.3279999999999,771.5000000000003 567.7279999999998,784.3000000000004 553.6279999999998,796.5000000000003 C 549.5279999999998,800.0000000000003 544.6279999999998,802.8000000000003 539.7279999999998,805.2000000000004 C 521.4279999999999,814.3000000000004 502.32799999999986,821.6000000000004 483.1279999999998,828.6000000000004 C 450.5279999999998,840.6000000000004 417.6279999999998,851.7000000000004 383.72799999999984,859.4000000000003 C 369.6279999999998,862.6000000000004 355.32799999999986,864.5000000000003 341.1279999999998,867.1000000000004 C 334.92799999999977,868.2000000000004 328.72799999999984,869.3000000000004 322.5279999999998,870.6000000000004 C 313.6279999999998,872.5000000000003 305.6279999999998,876.6000000000004 298.5279999999998,882.2000000000004 C 297.5279999999998,883.0000000000003 296.32799999999975,883.8000000000004 295.32799999999975,884.6000000000004 C 286.32799999999975,892.6000000000004 275.82799999999975,897.2000000000004 264.1279999999998,899.0000000000003 C 261.32799999999975,899.4000000000003 259.32799999999975,900.8000000000003 257.42799999999977,902.8000000000003 C 228.1279999999998,933.7000000000004 198.7279999999998,964.6000000000003 169.4279999999998,995.5000000000003 C 165.4279999999998,999.7000000000004 161.7279999999998,1004.2000000000004 158.02799999999982,1008.7000000000004 C 154.2279999999998,1013.3000000000003 152.2279999999998,1013.9000000000004 146.82799999999983,1011.2000000000004 C 142.62799999999984,1009.2000000000004 139.12799999999984,1006.5000000000003 137.92799999999986,1001.7000000000004 C 137.72799999999987,1000.8000000000003 137.92799999999986,999.9000000000004 137.92799999999986,998.3000000000003 C 139.52799999999988,999.4000000000002 140.62799999999984,1000.1000000000003 141.62799999999984,1000.8000000000003 C 145.42799999999986,1003.6000000000003 149.52799999999982,1003.9000000000002 153.22799999999987,1001.2000000000004 C 159.22799999999987,996.8000000000003 164.92799999999986,991.9000000000004 170.52799999999988,986.9000000000004 C 173.42799999999986,984.3000000000005 174.92799999999986,980.6000000000005 174.8279999999999,976.6000000000005 C 174.6279999999999,969.7000000000004 178.02799999999988,964.9000000000004 183.8279999999999,961.6000000000005 C 184.8279999999999,961.0000000000006 185.8279999999999,960.4000000000004 186.8279999999999,959.8000000000005 C 190.6279999999999,957.5000000000006 191.22799999999987,955.8000000000005 189.8279999999999,951.5000000000006 C 189.4279999999999,950.2000000000006 188.9279999999999,949.0000000000006 188.22799999999987,947.8000000000005 C 183.62799999999984,939.7000000000006 177.72799999999987,938.0000000000006 169.42799999999986,942.3000000000005 C 168.92799999999986,942.6000000000005 168.42799999999986,942.9000000000004 167.32799999999983,943.6000000000005 C 168.12799999999984,939.4000000000004 170.52799999999982,937.1000000000005 173.02799999999982,935.0000000000006 C 179.2279999999998,929.6000000000005 179.9279999999998,929.6000000000005 185.62799999999984,935.4000000000007 C 192.72799999999987,942.7000000000006 193.72799999999987,942.9000000000007 202.12799999999984,937.6000000000007 C 214.52799999999982,929.8000000000008 224.92799999999986,919.8000000000008 233.12799999999984,907.7000000000006 C 234.62799999999984,905.5000000000006 236.52799999999982,903.6000000000006 238.52799999999982,901.9000000000007 C 242.62799999999984,898.4000000000007 246.32799999999983,894.4000000000007 248.12799999999984,889.3000000000006 C 251.82799999999983,878.7000000000006 259.0279999999998,871.1000000000006 267.72799999999984,864.8000000000006 C 273.5279999999998,860.6000000000006 279.72799999999984,857.1000000000006 285.9279999999999,853.6000000000006 C 291.62799999999993,850.4000000000005 292.9279999999999,847.7000000000006 290.0279999999999,841.9000000000005 C 286.5279999999999,834.9000000000005 281.12799999999993,830.0000000000006 273.5279999999999,827.6000000000006 C 268.4279999999999,826.0000000000006 263.9279999999999,827.1000000000006 260.0279999999999,830.4000000000005 C 256.62799999999993,833.3000000000005 253.32799999999995,836.4000000000005 250.22799999999992,839.6000000000006 C 216.52799999999993,872.8000000000006 182.9279999999999,906.0000000000006 149.3279999999999,939.3000000000005 C 146.72799999999987,941.9000000000004 144.02799999999988,944.4000000000004 141.4279999999999,947.0000000000006 C 139.4279999999999,949.0000000000006 137.3279999999999,949.1000000000005 135.1279999999999,947.6000000000005 C 131.9279999999999,945.4000000000004 129.22799999999992,942.7000000000004 128.4279999999999,937.8000000000005 C 133.8279999999999,941.9000000000004 137.9279999999999,939.2000000000006 142.02799999999993,936.5000000000006 C 143.52799999999993,935.5000000000006 144.9279999999999,934.3000000000005 146.4279999999999,933.2000000000006 C 149.1279999999999,931.1000000000007 151.52799999999993,929.1000000000007 149.52799999999993,924.9000000000007 C 148.82799999999995,923.5000000000006 150.02799999999993,920.6000000000007 151.12799999999996,919.0000000000006 C 152.92799999999997,916.5000000000006 155.52799999999993,914.5000000000006 157.72799999999998,912.3000000000005 C 164.62799999999996,905.5000000000006 171.528,898.8000000000005 178.328,892.0000000000006 C 178.72799999999998,891.6000000000006 178.92800000000003,891.0000000000006 179.72799999999998,889.7000000000006 C 172.22799999999998,892.8000000000006 166.22799999999998,897.5000000000006 158.42799999999997,897.4000000000007 C 163.22799999999998,891.8000000000006 165.12799999999996,883.8000000000006 173.42799999999997,881.6000000000007 C 179.528,880.0000000000007 182.92799999999997,874.5000000000007 187.32799999999995,870.6000000000007 C 187.92799999999997,870.0000000000007 188.22799999999992,868.4000000000007 187.92799999999997,867.5000000000007 C 185.42799999999997,860.1000000000007 181.22799999999998,853.8000000000006 174.72799999999998,849.2000000000007 C 172.22799999999998,847.4000000000008 169.42799999999997,847.4000000000008 166.62799999999996,848.2000000000007 C 164.52799999999993,848.8000000000008 162.62799999999996,849.7000000000007 159.82799999999995,850.8000000000008 C 163.22799999999992,845.2000000000007 166.32799999999995,840.3000000000008 170.92799999999997,836.5000000000008 C 174.32799999999995,833.7000000000008 177.028,834.3000000000008 178.92799999999997,838.3000000000008 C 181.12799999999996,842.6000000000007 182.82799999999995,847.1000000000007 184.82799999999995,851.5000000000008 C 187.82799999999995,858.1000000000008 191.42799999999997,864.2000000000008 198.42799999999997,867.9000000000008 C 199.028,867.5000000000008 199.62799999999996,867.1000000000008 200.22799999999998,866.5000000000008 C 217.028,851.0000000000008 233.72799999999998,835.6000000000008 250.528,820.1000000000008 C 251.22799999999998,819.4000000000008 252.028,818.7000000000008 252.72799999999998,818.1000000000008 C 254.22799999999998,816.7000000000008 255.62799999999996,815.2000000000008 254.828,812.9000000000008 C 254.028,810.8000000000008 252.12800000000001,810.1000000000008 250.028,809.8000000000008 C 246.528,809.4000000000008 243.12800000000001,809.2000000000007 239.62800000000001,808.9000000000008 C 229.328,808.2000000000007 219.028,807.7000000000007 208.828,806.7000000000007 C 203.72799999999998,806.2000000000007 198.828,804.7000000000007 193.828,803.6000000000007 C 193.328,802.1000000000007 192.828,801.1000000000007 192.528,800.0000000000007 C 191.12800000000001,794.4000000000007 187.328,791.0000000000007 181.92799999999997,791.0000000000007 C 172.72799999999998,791.1000000000007 164.92799999999997,787.8000000000006 156.82799999999995,784.1000000000007 C 146.32799999999995,779.3000000000008 134.92799999999997,777.2000000000007 123.52799999999993,776.0000000000007 C 119.32799999999995,775.6000000000007 114.92799999999991,776.6000000000007 110.62799999999996,776.7000000000007 C 101.32799999999995,777.0000000000007 92.02799999999993,777.6000000000007 82.72799999999998,777.3000000000008 C 67.72799999999998,776.9000000000008 52.828,775.4000000000008 37.828,775.2000000000007 C 27.02799999999999,775.0000000000007 16.22799999999998,776.1000000000007 5.427999999999997,776.5000000000007 C 4.427999999999997,776.5000000000007 3.4279999999999973,776.5000000000007 2.627999999999986,776.5000000000007 C 1.7279999999999802,772.9000000000007 0.8279999999999745,769.4000000000007 0.027999999999991587,765.9000000000007 C -0.07200000000000273,765.5000000000007 0.1279999999999859,765.0000000000007 0.1279999999999859,764.5000000000007 C 0.7279999999999802,761.3000000000006 1.3279999999999745,758.0000000000007 2.0279999999999916,754.4000000000007 C 8.427999999999997,750.9000000000007 15.527999999999992,748.7000000000006 23.02799999999999,747.8000000000006 C 33.22799999999998,746.5000000000007 43.52799999999999,745.8000000000006 53.828,745.0000000000007 C 64.12800000000001,744.1000000000007 74.328,743.0000000000007 84.62800000000001,742.7000000000007 C 100.42800000000003,742.2000000000007 116.22800000000004,741.9000000000008 132.028,742.4000000000008 C 151.328,742.9000000000008 170.62800000000001,742.4000000000008 189.828,740.1000000000008 C 212.528,737.4000000000008 234.62800000000001,732.0000000000008 256.928,727.4000000000008 C 265.028,725.7000000000007 273.22799999999995,724.1000000000008 281.928,722.4000000000008 C 280.828,721.7000000000007 279.928,721.1000000000008 279.12800000000004,720.6000000000008 C 273.8280000000001,717.5000000000008 268.3280000000001,714.6000000000008 263.22800000000007,711.4000000000008 C 257.3280000000001,707.7000000000007 255.32800000000012,702.3000000000008 256.9280000000001,695.5000000000008 C 258.3280000000001,689.7000000000008 259.62800000000004,683.8000000000008 260.72800000000007,678.0000000000008 C 261.8280000000001,672.2000000000008 259.9280000000001,667.3000000000008 254.82800000000012,664.3000000000008 C 248.7280000000001,660.7000000000007 246.32800000000012,655.7000000000007 247.2280000000001,648.9000000000008 C 247.92800000000008,643.7000000000007 246.5280000000001,639.1000000000008 243.92800000000008,634.6000000000008 C 242.62800000000007,632.3000000000009 241.42800000000008,629.9000000000008 240.62800000000007,627.4000000000008 C 239.62800000000007,624.3000000000008 240.42800000000008,622.9000000000008 243.32800000000006,621.3000000000008 C 243.42800000000008,621.2000000000007 243.62800000000007,621.2000000000007 243.82800000000006,621.1000000000007 C 250.72800000000004,617.5000000000007 251.22800000000004,613.4000000000007 245.22800000000004,608.4000000000007 C 243.72800000000004,607.1000000000007 242.12800000000001,605.9000000000007 240.32800000000006,604.9000000000007 C 236.52800000000005,602.7000000000006 234.82800000000006,599.5000000000007 234.52800000000005,595.1000000000007 C 234.12800000000007,590.5000000000007 233.42800000000003,585.9000000000007 232.62800000000007,581.3000000000008 C 232.12800000000007,578.2000000000007 232.82800000000006,575.7000000000007 235.02800000000005,573.6000000000007 C 236.92800000000003,571.7000000000007 238.92800000000003,569.9000000000007 240.72800000000004,568.0000000000007 C 243.92800000000003,564.6000000000007 245.72800000000004,560.7000000000007 245.62800000000001,555.9000000000007 C 245.528,548.5000000000007 242.92800000000003,544.7000000000006 235.828,542.0000000000007 C 227.22799999999998,538.7000000000007 227.42800000000003,538.7000000000007 226.22799999999998,529.2000000000007 C 224.328,513.5000000000007 223.528,497.7000000000007 224.22799999999998,481.9000000000008 C 224.528,475.7000000000007 225.42799999999997,469.7000000000007 227.92799999999997,463.9000000000008 C 228.92799999999997,461.7000000000007 229.12799999999996,459.1000000000008 229.22799999999998,456.6000000000008 C 229.62799999999996,449.1000000000008 229.72799999999998,441.6000000000008 230.328,434.20000000000084 C 230.62800000000001,430.4000000000009 231.528,426.6000000000008 232.92800000000003,423.1000000000008 C 236.02800000000005,414.9000000000008 242.42800000000003,411.6000000000008 251.22800000000004,412.9000000000008 C 266.928,415.2000000000007 282.22799999999995,418.9000000000008 297.428,422.9000000000008 C 311.12800000000004,426.5000000000008 324.72799999999995,430.4000000000008 338.828,431.9000000000008 C 343.62799999999993,432.4000000000008 348.428,432.4000000000008 353.22799999999995,432.7000000000007 C 353.028,432.29999999999995 353.12800000000004,431.9 353.22799999999995,431.5999999999999"/>
</svg>
