<?xml version="1.0" ?>
<svg xmlns="http://www.w3.org/2000/svg" xmlns:ev="http://www.w3.org/2001/xml-events" xmlns:xlink="http://www.w3.org/1999/xlink" baseProfile="full" height="3001" style="shape-rendering:geometricPrecision; text-rendering:geometricPrecision; image-rendering:optimizeQuality; fill-rule:evenodd; clip-rule:evenodd" transform="scale(0.04405286343612335 0.04405286343612335) translate(-1135.0 -1500.5)" version="1.1" viewBox="0 0 2270 3001" width="2270">
	<defs/>
	<path d="M 1768.0,1.4210854715202004e-14 C 1788.33,1.4210854715202004e-14 1808.67,1.4210854715202004e-14 1829.0,1.4210854715202004e-14 C 1932.49,8.826530000000014 2017.99,52.493200000000016 2085.5,131.0 C 2189.35,253.877 2237.02,396.21 2228.5,558.0 C 2226.91,594.492 2223.58,630.826 2218.5,667.0 C 2211.37,715.418 2203.71,763.751 2195.5,812.0 C 2187.65,856.679 2184.32,901.679 2185.5,947.0 C 2187.47,973.158 2192.14,998.824 2199.5,1024.0 C 2211.84,1064.01 2225.17,1103.68 2239.5,1143.0 C 2254.59,1187.0 2264.42,1232.0 2269.0,1278.0 C 2269.0,1299.0 2269.0,1320.0 2269.0,1341.0 C 2261.17,1414.28 2240.01,1483.61 2205.5,1549.0 C 2165.35,1624.34 2118.02,1694.67 2063.5,1760.0 C 2008.65,1826.53 1950.49,1890.36 1889.0,1951.5 C 1850.34,1988.84 1809.34,2023.18 1766.0,2054.5 C 1749.34,2065.83 1732.34,2076.67 1715.0,2087.0 C 1722.4,2152.66 1736.07,2216.99 1756.0,2280.0 C 1822.65,2333.48 1887.99,2388.64 1952.0,2445.5 C 1977.11,2468.61 2001.61,2492.44 2025.5,2517.0 C 2037.25,2529.41 2048.25,2542.41 2058.5,2556.0 C 2063.34,2563.0 2067.67,2570.34 2071.5,2578.0 C 2077.85,2606.05 2087.18,2633.05 2099.5,2659.0 C 2120.29,2702.58 2141.62,2745.91 2163.5,2789.0 C 2175.93,2813.64 2185.6,2839.31 2192.5,2866.0 C 2193.63,2873.55 2192.96,2880.88 2190.5,2888.0 C 2186.01,2892.76 2180.51,2894.26 2174.0,2892.5 C 2166.26,2888.09 2159.76,2882.26 2154.5,2875.0 C 2143.23,2858.14 2133.23,2840.48 2124.5,2822.0 C 2106.08,2780.41 2087.08,2739.08 2067.5,2698.0 C 2063.85,2691.53 2059.35,2685.7 2054.0,2680.5 C 2050.99,2678.28 2048.4900000000002,2678.78 2046.5,2682.0 C 2044.44,2686.18 2042.77,2690.51 2041.5,2695.0 C 2038.94,2706.91 2036.94,2718.91 2035.5,2731.0 C 2030.67,2780.65 2026.0,2830.32 2021.5,2880.0 C 2018.95,2910.51 2013.62,2940.51 2005.5,2970.0 C 2003.07,2977.37 1999.23,2983.87 1994.0,2989.5 C 1984.92,2993.1 1978.75,2990.26 1975.5,2981.0 C 1974.18,2976.4 1973.18,2971.73 1972.5,2967.0 C 1971.83,2951.0 1971.83,2935.0 1972.5,2919.0 C 1975.8,2880.3 1979.47,2841.63 1983.5,2803.0 C 1986.32,2779.64 1986.32,2756.31 1983.5,2733.0 C 1982.46,2727.09 1979.96,2721.93 1976.0,2717.5 C 1970.85,2714.31 1965.85,2714.64 1961.0,2718.5 C 1954.46,2723.37 1948.96,2729.21 1944.5,2736.0 C 1937.92,2746.17 1931.58,2756.5 1925.5,2767.0 C 1911.83,2793.0 1898.17,2819.0 1884.5,2845.0 C 1877.68,2857.14 1869.51,2868.31 1860.0,2878.5 C 1846.42,2885.28 1839.75,2880.95 1840.0,2865.5 C 1841.98,2847.55 1846.81,2830.39 1854.5,2814.0 C 1864.59,2791.41 1875.25,2769.08 1886.5,2747.0 C 1908.01,2706.65 1929.01,2665.98 1949.5,2625.0 C 1956.66,2609.67 1963.0,2594.01 1968.5,2578.0 C 1969.93,2567.95 1968.6,2558.28 1964.5,2549.0 C 1955.4,2530.45 1944.07,2513.45 1930.5,2498.0 C 1891.71,2456.53 1849.87,2418.69 1805.0,2384.5 C 1773.54,2360.6 1741.21,2337.94 1708.0,2316.5 C 1665.48,2292.75 1624.48,2266.75 1585.0,2238.5 C 1553.8,2214.3 1527.13,2185.97 1505.0,2153.5 C 1473.72,2155.41 1442.39,2156.24 1411.0,2156.0 C 1345.84,2154.74 1280.67,2153.74 1215.5,2153.0 C 1170.14,2152.74 1124.81,2153.74 1079.5,2156.0 C 1056.1,2155.58 1032.76,2154.25 1009.5,2152.0 C 1008.73,2152.14 1008.06,2152.48 1007.5,2153.0 C 1000.84,2174.97 991.84,2195.97 980.5,2216.0 C 962.895,2244.6 944.895,2272.93 926.5,2301.0 C 909.902,2329.72 900.902,2360.72 899.5,2394.0 C 894.563,2458.98 897.229,2523.65 907.5,2588.0 C 915.543,2617.8 926.543,2646.46 940.5,2674.0 C 969.632,2729.93 997.965,2786.26 1025.5,2843.0 C 1033.5,2859.99 1039.5,2877.66 1043.5,2896.0 C 1044.17,2901.33 1044.17,2906.67 1043.5,2912.0 C 1040.02,2920.65 1033.85,2923.15 1025.0,2919.5 C 1016.93,2913.55 1010.1,2906.39 1004.5,2898.0 C 994.739,2882.15 985.739,2865.82 977.5,2849.0 C 956.273,2801.33 934.273,2753.99 911.5,2707.0 C 906.158,2697.32 899.658,2688.49 892.0,2680.5 C 887.948,2677.02 884.115,2677.18 880.5,2681.0 C 874.031,2693.53 870.031,2706.86 868.5,2721.0 C 865.988,2737.94 863.988,2754.94 862.5,2772.0 C 859.139,2815.69 855.472,2859.36 851.5,2903.0 C 849.456,2926.26 845.789,2949.26 840.5,2972.0 C 838.697,2977.74 836.697,2983.41 834.5,2989.0 C 832.186,2993.48 829.02,2997.14 825.0,3000.0 C 822.0,3000.0 819.0,3000.0 816.0,3000.0 C 813.145,2997.99 810.979,2995.33 809.5,2992.0 C 806.682,2984.24 805.015,2976.24 804.5,2968.0 C 803.833,2952.0 803.833,2936.0 804.5,2920.0 C 807.352,2878.63 810.685,2837.3 814.5,2796.0 C 816.382,2773.65 816.382,2751.32 814.5,2729.0 C 813.615,2724.66 811.782,2720.83 809.0,2717.5 C 806.037,2715.65 803.037,2715.65 800.0,2717.5 C 794.833,2721.33 790.333,2725.83 786.5,2731.0 C 778.665,2742.67 771.331,2754.67 764.5,2767.0 C 749.088,2796.82 733.421,2826.49 717.5,2856.0 C 711.905,2865.53 705.571,2874.53 698.5,2883.0 C 693.694,2888.99 687.527,2891.49 680.0,2890.5 C 674.505,2886.88 672.172,2881.71 673.0,2875.0 C 675.55,2854.85 681.05,2835.51 689.5,2817.0 C 699.446,2794.5 709.78,2772.16 720.5,2750.0 C 747.117,2699.43 772.117,2648.1 795.5,2596.0 C 821.718,2521.13 840.718,2444.46 852.5,2366.0 C 857.238,2331.58 853.905,2297.91 842.5,2265.0 C 830.084,2228.75 819.084,2192.09 809.5,2155.0 C 804.765,2134.59 801.765,2113.92 800.5,2093.0 C 720.816,2051.15 657.483,1991.82 610.5,1915.0 C 605.515,1906.7 601.348,1898.03 598.0,1889.0 C 456.675,1894.0 315.342,1894.17 174.0,1889.5 C 131.428,1887.96 89.0942,1883.96 47.0,1877.5 C 32.7828,1875.32 19.116100000000003,1871.32 6.000000000000002,1865.5 C 3.477390000000002,1864.14 1.4773920000000018,1862.31 1.7763568394002505e-15,1860.0 C 1.7763568394002505e-15,1857.0 1.7763568394002505e-15,1854.0 1.7763568394002505e-15,1851.0 C 3.6757700000000018,1844.81 8.342440000000002,1839.31 14.000000000000002,1834.5 C 32.6017,1820.58 52.2684,1808.25 73.0,1797.5 C 126.488,1770.56 180.821,1745.56 236.0,1722.5 C 337.064,1681.03 438.897,1641.53 541.5,1604.0 C 560.65,1466.76 587.65,1331.1 622.5,1197.0 C 641.713,1123.36 665.713,1051.36 694.5,981.0 C 712.958,937.074 735.291,895.407 761.5,856.0 C 796.038,811.796 835.538,772.629 880.0,738.5 C 986.745,660.216 1104.25,603.049 1232.5,567.0 C 1239.44,528.18 1250.44,490.513 1265.5,454.0 C 1291.09,391.654 1319.26,330.487 1350.0,270.5 C 1335.29,225.48000000000002 1323.79,179.64600000000002 1315.5,133.0 C 1314.43,127.35900000000001 1314.09,121.69300000000001 1314.5,116.00000000000001 C 1321.93,111.85700000000001 1329.76,108.69000000000001 1338.0,106.50000000000001 C 1365.65,100.07430000000001 1393.65,96.07430000000001 1422.0,94.50000000000001 C 1445.64,92.92970000000001 1469.31,91.92970000000001 1493.0,91.50000000000001 C 1577.73,40.089700000000015 1669.4,9.589660000000015 1768.0,1.4210854715202004e-14" fill="#000000" style="opacity:0.998"/>
</svg>
