<?xml version="1.0" ?>
<svg xmlns="http://www.w3.org/2000/svg" xmlns:ev="http://www.w3.org/2001/xml-events" xmlns:xlink="http://www.w3.org/1999/xlink" baseProfile="full" height="1233" id="Слой_1" style="enable-background:new 0 0 1280 1280;" transform="scale(0.11376564277588168 0.11376564277588168) translate(-439.5 -616.5)" version="1.1" viewBox="0 0 879 1233" width="879" x="0px" xml:space="preserve" y="0px">
	<defs/>
	<path d="M 840.7000000000003,1232.2203117983042 C 830.1000000000001,1228.8203117983041 819.5000000000002,1225.0203117983042 811.1000000000001,1217.4203117983043 C 794.8000000000002,1202.6203117983043 778.7000000000003,1187.6203117983043 765.4000000000001,1169.7203117983042 C 755.5000000000002,1156.4203117983043 744.4000000000001,1143.9203117983043 733.6000000000001,1131.3203117983041 C 720.7000000000003,1116.2203117983042 707.5000000000002,1101.3203117983041 694.5000000000002,1086.2203117983042 C 686.3000000000002,1076.7203117983042 678.3000000000002,1067.1203117983043 670.1000000000001,1057.6203117983043 C 668.8000000000002,1056.1203117983043 667.3000000000002,1054.7203117983042 665.6000000000001,1053.6203117983043 C 647.8000000000002,1042.6203117983043 629.8000000000002,1031.9203117983043 612.2000000000003,1020.6203117983043 C 603.1000000000001,1014.8203117983044 593.5000000000002,1009.1203117983043 586.3000000000002,1001.3203117983044 C 568.3000000000002,981.8203117983044 545.3000000000002,970.4203117983044 522.7000000000003,957.9203117983044 C 505.50000000000017,948.4203117983044 488.50000000000017,938.4203117983044 471.50000000000017,928.6203117983044 C 470.2000000000002,927.9203117983044 468.8000000000001,927.3203117983045 467.50000000000017,926.6203117983044 C 467.3000000000001,927.0203117983044 467.00000000000017,927.3203117983045 466.8000000000001,927.7203117983045 C 474.00000000000017,933.2203117983045 481.1000000000001,938.8203117983045 488.3000000000001,944.3203117983045 C 488.1000000000001,944.6203117983044 487.90000000000015,945.0203117983045 487.8000000000001,945.3203117983045 C 481.00000000000017,942.0203117983045 474.2000000000001,938.7203117983045 467.40000000000015,935.2203117983045 C 458.90000000000015,930.9203117983045 450.6000000000002,926.2203117983045 442.00000000000017,922.0203117983044 C 439.2000000000002,920.6203117983044 435.7000000000002,920.6203117983044 432.6000000000002,920.0203117983044 C 432.30000000000024,920.7203117983045 431.90000000000015,921.3203117983044 431.6000000000002,922.0203117983044 C 436.2000000000002,926.9203117983044 440.80000000000024,931.7203117983045 445.40000000000015,936.6203117983044 C 445.2000000000001,936.9203117983044 445.00000000000017,937.1203117983044 444.90000000000015,937.4203117983044 C 429.00000000000017,930.0203117983044 413.1000000000002,922.7203117983044 397.2000000000001,915.3203117983044 C 397.00000000000006,915.6203117983043 396.8000000000001,916.0203117983044 396.6000000000001,916.3203117983044 C 402.40000000000003,920.4203117983044 408.2000000000001,924.4203117983044 414.00000000000006,928.5203117983044 C 394.90000000000003,929.4203117983044 378.00000000000006,921.1203117983044 360.1000000000001,917.7203117983045 C 367.7000000000001,924.3203117983045 376.50000000000006,928.6203117983044 386.6000000000001,930.1203117983044 C 386.50000000000006,930.7203117983045 386.40000000000003,931.2203117983045 386.3000000000001,931.8203117983045 C 381.2000000000001,931.3203117983045 375.90000000000015,931.4203117983045 371.00000000000017,930.1203117983044 C 355.2000000000002,925.8203117983045 339.6000000000002,920.9203117983044 324.20000000000016,916.3203117983045 C 324.40000000000015,916.5203117983045 324.90000000000015,917.0203117983045 325.70000000000016,918.0203117983045 C 323.8000000000002,918.4203117983045 322.20000000000016,918.7203117983046 320.20000000000016,919.1203117983046 C 320.20000000000016,921.3203117983046 320.3000000000002,923.3203117983046 320.20000000000016,925.3203117983046 C 319.90000000000015,929.3203117983046 318.40000000000015,932.4203117983046 314.3000000000002,934.0203117983046 C 312.6000000000002,934.6203117983047 311.1000000000002,936.0203117983046 309.9000000000002,937.3203117983046 C 304.3000000000002,943.8203117983046 297.4000000000002,947.5203117983046 288.9000000000002,948.6203117983046 C 287.7000000000002,948.7203117983046 286.1000000000002,949.0203117983045 285.6000000000002,949.8203117983046 C 282.9000000000002,954.2203117983046 278.50000000000017,955.1203117983046 274.1000000000002,956.2203117983046 C 262.1000000000002,959.3203117983046 250.80000000000018,956.4203117983046 240.00000000000017,951.4203117983046 C 235.70000000000016,949.4203117983046 231.50000000000017,947.3203117983046 227.40000000000015,945.0203117983046 C 226.10000000000014,944.2203117983047 225.00000000000017,942.7203117983047 224.50000000000017,941.2203117983047 C 223.70000000000016,939.0203117983046 223.50000000000017,936.7203117983047 222.90000000000015,933.7203117983047 C 214.60000000000014,936.7203117983047 206.50000000000017,939.6203117983047 199.20000000000016,942.3203117983047 C 202.90000000000015,951.9203117983047 206.70000000000016,961.1203117983047 209.60000000000014,970.5203117983048 C 210.5000000000001,973.5203117983048 209.0000000000001,977.2203117983048 208.90000000000015,980.6203117983048 C 208.80000000000013,983.0203117983048 208.60000000000014,985.6203117983048 209.20000000000016,987.9203117983047 C 210.30000000000018,992.7203117983047 208.80000000000018,995.8203117983047 203.90000000000015,997.0203117983048 C 200.50000000000017,997.8203117983047 197.30000000000013,998.1203117983048 195.70000000000016,1002.0203117983049 C 195.30000000000018,1002.920311798305 192.70000000000016,1003.1203117983048 191.10000000000014,1003.3203117983048 C 188.30000000000013,1003.6203117983048 185.20000000000016,1003.0203117983049 182.80000000000013,1004.0203117983049 C 176.10000000000014,1006.8203117983048 169.90000000000015,1005.6203117983048 164.0000000000001,1002.2203117983049 C 160.0000000000001,999.920311798305 156.30000000000013,997.1203117983049 152.30000000000013,994.7203117983049 C 151.40000000000015,994.1203117983049 149.5000000000001,993.920311798305 148.7000000000001,994.420311798305 C 139.80000000000013,1000.7203117983049 130.2000000000001,1002.5203117983049 120.7000000000001,996.8203117983049 C 115.50000000000011,993.7203117983049 111.40000000000009,988.7203117983049 106.90000000000009,984.520311798305 C 103.10000000000008,981.020311798305 99.40000000000009,977.420311798305 95.50000000000011,974.020311798305 C 94.90000000000009,973.520311798305 93.40000000000009,973.920311798305 92.40000000000009,974.120311798305 C 73.10000000000008,977.820311798305 59.10000000000008,968.420311798305 55.2000000000001,949.220311798305 C 52.40000000000009,935.720311798305 57.90000000000009,924.9203117983051 71.40000000000009,916.9203117983051 C 72.7000000000001,916.1203117983051 74.10000000000008,915.4203117983051 75.40000000000009,914.720311798305 C 72.8000000000001,903.4203117983051 75.00000000000009,896.620311798305 82.90000000000009,892.220311798305 C 84.2000000000001,891.4203117983051 85.7000000000001,890.820311798305 87.2000000000001,890.520311798305 C 94.2000000000001,888.920311798305 101.10000000000008,887.220311798305 108.10000000000008,886.020311798305 C 112.90000000000009,885.220311798305 117.80000000000007,885.620311798305 122.50000000000006,884.720311798305 C 124.60000000000008,884.320311798305 126.90000000000003,882.4203117983051 128.00000000000006,880.520311798305 C 132.90000000000003,871.520311798305 143.00000000000006,869.220311798305 151.00000000000006,875.720311798305 C 151.30000000000007,876.020311798305 151.70000000000005,876.4203117983051 152.10000000000008,876.4203117983051 C 160.80000000000007,876.9203117983051 169.60000000000008,877.220311798305 177.60000000000008,872.720311798305 C 178.30000000000007,872.320311798305 179.00000000000006,871.320311798305 179.2000000000001,870.520311798305 C 180.5000000000001,862.720311798305 186.0000000000001,859.020311798305 192.60000000000008,856.220311798305 C 195.9000000000001,854.820311798305 199.2000000000001,853.520311798305 203.9000000000001,851.620311798305 C 196.9000000000001,842.820311798305 190.30000000000007,834.120311798305 183.30000000000007,825.820311798305 C 169.30000000000007,809.120311798305 154.20000000000005,793.320311798305 141.20000000000005,775.9203117983051 C 123.00000000000006,751.4203117983051 107.50000000000006,725.1203117983051 93.00000000000006,698.220311798305 C 84.40000000000006,682.220311798305 76.40000000000006,665.9203117983051 68.10000000000005,649.820311798305 C 55.200000000000045,624.9203117983051 47.90000000000006,598.0203117983051 40.80000000000004,571.120311798305 C 31.80000000000004,536.620311798305 22.80000000000004,502.12031179830495 14.000000000000028,467.62031179830495 C 8.80000000000004,447.42031179830497 4.400000000000034,426.92031179830497 7.100000000000023,405.92031179830497 C 9.900000000000034,384.020311798305 13.300000000000011,362.220311798305 16.900000000000034,340.52031179830493 C 20.400000000000034,319.82031179830494 25.50000000000003,299.4203117983049 34.10000000000002,280.2203117983049 C 39.20000000000002,268.82031179830494 46.00000000000003,258.2203117983049 52.10000000000002,247.32031179830494 C 54.10000000000002,243.82031179830494 56.400000000000034,240.52031179830493 58.70000000000002,236.92031179830497 C 56.70000000000002,236.72031179830498 55.00000000000003,236.62031179830495 53.30000000000001,236.42031179830497 C 62.10000000000002,230.62031179830495 63.80000000000001,222.520311798305 63.70000000000002,212.72031179830498 C 63.70000000000002,207.620311798305 67.60000000000002,202.520311798305 68.70000000000002,197.22031179830498 C 69.4,193.72031179830498 68.30000000000001,189.72031179830498 68.10000000000002,186.020311798305 C 68.00000000000003,183.92031179830502 67.10000000000002,181.120311798305 68.10000000000002,179.820311798305 C 73.30000000000001,173.020311798305 72.80000000000001,165.520311798305 71.50000000000003,157.820311798305 C 70.50000000000003,151.92031179830502 70.30000000000004,146.22031179830503 73.00000000000003,140.320311798305 C 74.70000000000002,136.620311798305 73.70000000000002,132.22031179830503 70.40000000000003,129.020311798305 C 69.50000000000003,128.120311798305 68.60000000000002,127.22031179830499 67.60000000000002,126.520311798305 C 47.60000000000002,113.92031179830501 30.50000000000003,96.42031179830501 6.700000000000017,90.120311798305 C 20.100000000000023,90.120311798305 33.400000000000006,90.120311798305 45.80000000000001,90.120311798305 C 41.70000000000002,89.420311798305 38.900000000000006,85.920311798305 37.30000000000001,80.920311798305 C 36.80000000000001,79.52031179830499 33.80000000000001,78.22031179830499 32.0,78.120311798305 C 21.400000000000006,77.820311798305 10.800000000000011,78.020311798305 0.0,77.420311798305 C 23.400000000000006,65.02031179830499 45.900000000000006,50.520311798305 73.4,49.320311798304985 C 73.6,49.12031179830498 73.80000000000001,48.92031179830498 73.80000000000001,48.820311798304985 C 71.4,38.02031179830499 78.4,32.220311798304984 85.60000000000002,26.320311798304985 C 108.30000000000001,7.620311798304982 134.70000000000005,0.320311798304985 163.50000000000006,0.020311798304984308 C 195.20000000000005,-0.37968820169501427 226.00000000000006,5.120311798304982 255.20000000000005,17.220311798304984 C 268.30000000000007,22.620311798304982 280.00000000000006,31.520311798304988 291.80000000000007,39.62031179830498 C 302.20000000000005,46.820311798304985 312.6000000000001,54.42031179830498 321.80000000000007,63.020311798304974 C 336.6000000000001,76.92031179830498 349.3000000000001,92.72031179830498 357.6000000000001,111.32031179830496 C 365.7000000000001,129.42031179830497 372.8000000000001,147.92031179830497 380.50000000000006,166.22031179830498 C 382.40000000000003,170.82031179830494 384.90000000000003,175.12031179830495 387.40000000000003,180.12031179830495 C 385.3,181.32031179830494 382.6000000000001,182.82031179830494 379.3,184.72031179830498 C 382.3,189.32031179830494 385.40000000000003,194.020311798305 388.7,199.020311798305 C 386.09999999999997,199.62031179830495 384.49999999999994,200.020311798305 382.40000000000003,200.520311798305 C 382.2,207.12031179830495 382.2,213.520311798305 386.1000000000001,219.320311798305 C 387.00000000000006,220.620311798305 387.6000000000001,223.520311798305 386.90000000000003,224.320311798305 C 384.40000000000003,227.22031179830498 385.3,229.92031179830497 386.40000000000003,232.62031179830495 C 388.50000000000006,238.12031179830495 391.40000000000003,243.32031179830494 393.1000000000001,248.92031179830497 C 394.1000000000001,252.22031179830498 393.90000000000003,256.12031179830495 393.3000000000001,259.62031179830495 C 392.50000000000017,264.720311798305 392.7000000000001,269.12031179830495 396.1000000000001,273.32031179830494 C 397.50000000000006,275.12031179830495 397.7000000000001,277.92031179830497 398.40000000000003,280.42031179830497 C 399.8,285.720311798305 401.1000000000001,291.020311798305 402.40000000000003,296.32031179830494 C 403.00000000000006,298.92031179830497 404.00000000000006,301.42031179830497 404.3,304.02031179830493 C 405.00000000000006,309.82031179830494 404.59999999999997,315.7203117983049 409.7,320.32031179830494 C 411.3,321.7203117983049 411.09999999999997,325.02031179830493 411.8,327.32031179830494 C 415.3,338.92031179830497 418.59999999999997,350.7203117983049 422.59999999999997,362.12031179830495 C 428.3,378.32031179830494 434.3999999999999,394.42031179830497 440.8,410.32031179830494 C 449.8,433.02031179830493 458.3,455.82031179830494 468.50000000000006,478.02031179830493 C 479.50000000000006,502.02031179830493 492.40000000000003,525.120311798305 504.2000000000001,548.8203117983049 C 511.2000000000001,562.920311798305 517.8000000000002,577.3203117983049 524.0,591.8203117983049 C 526.2,597.020311798305 526.4000000000001,603.020311798305 527.6000000000001,608.6203117983049 C 528.0,610.3203117983049 528.2,612.0203117983049 529.0,613.5203117983049 C 530.2,615.8203117983048 531.6000000000001,618.3203117983048 533.4000000000001,620.1203117983049 C 551.0,637.2203117983049 555.8,660.4203117983049 563.7,682.2203117983049 C 566.2,689.2203117983049 568.2,696.420311798305 570.8,703.420311798305 C 574.7,713.920311798305 579.8,724.120311798305 582.5999999999999,734.920311798305 C 584.5999999999999,742.3203117983049 589.2,747.420311798305 593.3,753.2203117983049 C 607.8,773.6203117983049 622.4000000000001,794.0203117983049 636.0999999999999,814.920311798305 C 640.8,822.120311798305 643.5,830.7203117983049 646.8999999999999,838.7203117983049 C 648.3999999999999,842.3203117983049 648.6999999999998,845.8203117983049 645.6999999999998,849.2203117983049 C 644.6999999999998,850.3203117983049 644.8,852.7203117983049 644.6999999999998,854.5203117983049 C 644.5999999999999,858.2203117983049 644.6999999999998,862.0203117983049 644.6999999999998,865.7203117983049 C 644.1999999999998,865.8203117983049 643.6999999999998,865.920311798305 643.0999999999999,866.0203117983049 C 644.3,867.2203117983049 645.4999999999998,868.5203117983049 646.8,869.5203117983049 C 654.8999999999999,875.4203117983049 661.0,882.6203117983049 663.6999999999998,892.5203117983049 C 664.3,894.8203117983048 666.0999999999999,896.9203117983049 667.6999999999998,898.7203117983049 C 681.5999999999999,914.420311798305 696.1999999999998,929.5203117983049 709.4999999999998,945.8203117983049 C 718.4999999999998,956.920311798305 725.6999999999998,969.420311798305 733.7999999999997,981.3203117983049 C 735.0999999999997,983.2203117983049 736.6999999999998,985.020311798305 738.4999999999998,986.520311798305 C 747.0999999999999,994.120311798305 755.4999999999998,1001.820311798305 760.1999999999998,1012.620311798305 C 760.6999999999998,1013.7203117983049 761.3999999999999,1014.920311798305 762.3,1015.7203117983049 C 770.8,1022.8203117983048 773.8999999999999,1032.5203117983049 775.1999999999998,1043.0203117983049 C 776.1999999999998,1050.5203117983049 779.4999999999998,1057.0203117983049 783.8,1063.1203117983048 C 798.0999999999999,1083.1203117983048 812.0999999999999,1103.4203117983047 826.8,1123.0203117983049 C 837.3999999999999,1137.1203117983048 849.0999999999999,1150.420311798305 860.2,1164.1203117983048 C 863.0,1167.6203117983048 865.7,1171.3203117983048 868.1000000000001,1175.1203117983048 C 869.1000000000001,1176.7203117983047 869.7,1179.0203117983049 869.4000000000001,1180.8203117983048 C 868.5,1185.6203117983048 869.7,1189.6203117983048 871.9000000000001,1193.8203117983048 C 874.4000000000001,1198.4203117983047 876.3000000000002,1203.4203117983047 878.5,1208.220311798305 C 878.5,1211.0203117983049 878.5,1213.920311798305 878.5,1216.720311798305 C 876.3,1218.8203117983048 874.4000000000001,1221.620311798305 871.8,1222.920311798305 C 864.8,1226.220311798305 857.3999999999999,1228.920311798305 850.1999999999998,1231.820311798305 C 847.0000000000002,1232.2203117983042 843.8000000000002,1232.2203117983042 840.7000000000003,1232.2203117983042 M 173.40000000000026,987.4203117983042 C 169.90000000000026,978.5203117983042 171.40000000000026,974.6203117983042 179.40000000000026,972.4203117983042 C 181.90000000000026,971.7203117983041 184.30000000000024,970.9203117983042 184.00000000000028,968.1203117983042 C 183.6000000000003,964.4203117983042 183.6000000000003,959.5203117983042 181.3000000000003,957.3203117983043 C 174.40000000000032,950.9203117983043 174.00000000000028,951.4203117983043 164.50000000000028,954.2203117983042 C 159.90000000000026,955.6203117983042 155.20000000000027,956.9203117983043 150.6000000000003,958.3203117983043 C 146.8000000000003,959.4203117983043 142.90000000000032,960.6203117983042 139.00000000000028,961.8203117983043 C 139.3000000000003,963.4203117983043 139.50000000000028,964.4203117983043 139.70000000000027,965.5203117983043 C 142.40000000000026,978.6203117983043 152.50000000000028,984.0203117983043 163.40000000000026,988.7203117983044 C 167.10000000000025,990.5203117983042 170.50000000000028,990.7203117983041 173.40000000000026,987.4203117983042 M 286.80000000000024,909.1203117983041 C 283.80000000000024,908.7203117983041 281.10000000000025,907.420311798304 279.30000000000024,908.2203117983041 C 271.40000000000026,911.6203117983041 263.80000000000024,915.6203117983041 256.10000000000025,919.5203117983041 C 253.00000000000023,921.1203117983041 252.20000000000027,925.920311798304 254.40000000000026,928.320311798304 C 262.80000000000024,937.620311798304 280.5000000000003,942.220311798304 292.0000000000003,937.920311798304 C 294.1000000000003,937.1203117983041 296.0000000000003,935.0203117983041 297.3000000000003,933.0203117983041 C 297.6000000000003,932.5203117983041 295.3000000000003,929.820311798304 293.8000000000003,928.820311798304 C 290.2000000000003,926.320311798304 289.2000000000003,923.120311798304 290.4000000000003,919.0203117983041 C 291.1000000000003,916.820311798304 291.70000000000033,914.5203117983041 292.3000000000003,912.2203117983041 C 293.3000000000003,908.5203117983041 289.4000000000003,903.7203117983041 285.1000000000003,903.7203117983041 C 285.60000000000025,905.5203117983042 286.2000000000003,907.2203117983041 286.80000000000024,909.1203117983041 M 148.60000000000025,991.9203117983042 C 139.70000000000027,983.2203117983041 136.80000000000024,973.5203117983042 137.20000000000027,962.4203117983042 C 132.3000000000003,963.7203117983041 127.40000000000026,964.0203117983042 123.70000000000027,966.2203117983041 C 120.50000000000028,968.2203117983041 118.50000000000028,972.3203117983041 116.3000000000003,975.6203117983041 C 115.90000000000032,976.2203117983041 116.90000000000032,977.8203117983041 117.50000000000028,978.920311798304 C 118.00000000000028,979.920311798304 119.1000000000003,980.720311798304 119.20000000000027,981.6203117983041 C 119.70000000000027,988.420311798304 124.90000000000026,990.6203117983041 130.00000000000028,991.5203117983041 C 135.50000000000028,992.6203117983041 141.40000000000026,991.9203117983042 148.60000000000025,991.9203117983042 M 275.10000000000025,949.6203117983041 C 273.60000000000025,947.2203117983041 272.90000000000026,944.8203117983041 271.30000000000024,943.920311798304 C 265.60000000000025,940.6203117983041 259.7000000000002,937.820311798304 254.20000000000022,935.0203117983041 C 253.9000000000002,935.6203117983041 253.00000000000023,936.820311798304 252.6000000000002,938.2203117983041 C 251.9000000000002,941.1203117983041 251.00000000000017,944.1203117983041 251.4000000000002,946.9203117983042 C 251.6000000000002,948.1203117983042 254.9000000000002,949.4203117983042 256.8000000000002,949.5203117983042 C 262.7000000000003,949.8203117983041 268.5000000000003,949.6203117983041 275.10000000000025,949.6203117983041"/>
</svg>
