<?xml version="1.0" ?>
<svg xmlns="http://www.w3.org/2000/svg" xmlns:ev="http://www.w3.org/2001/xml-events" xmlns:xlink="http://www.w3.org/1999/xlink" baseProfile="full" height="2620" style="shape-rendering:geometricPrecision; text-rendering:geometricPrecision; image-rendering:optimizeQuality; fill-rule:evenodd; clip-rule:evenodd" transform="scale(0.03816793893129771 0.03816793893129771) translate(-1500.5 -1310.0)" version="1.1" viewBox="0 0 3001 2620" width="3001">
	<defs/>
	<path d="M 2025.0,7.105427357601002e-15 C 2025.67,7.105427357601002e-15 2026.33,7.105427357601002e-15 2027.0,7.105427357601002e-15 C 2004.77,94.9624 2003.27,190.296 2022.5,286.0 C 2041.07,376.373 2070.4,463.04 2110.5,546.0 C 2134.72,596.109 2160.72,645.109 2188.5,693.0 C 2234.75,765.164 2280.75,837.497 2326.5,910.0 C 2373.75,979.494 2420.75,1049.16 2467.5,1119.0 C 2512.21,1186.38 2552.87,1256.38 2589.5,1329.0 C 2614.4,1379.36 2632.73,1432.02 2644.5,1487.0 C 2661.01,1574.26 2649.51,1657.59 2610.0,1737.0 C 2713.62,1753.84 2792.45,1806.84 2846.5,1896.0 C 2869.4,1936.03 2883.07,1979.03 2887.5,2025.0 C 2937.1,2031.19 2974.6,2055.52 3000.0,2098.0 C 3000.0,2099.0 3000.0,2100.0 3000.0,2101.0 C 2959.13,2129.18 2913.79,2144.18 2864.0,2146.0 C 2800.7,2274.49 2713.37,2383.99 2602.0,2474.5 C 2518.77,2540.77 2424.77,2585.11 2320.0,2607.5 C 2291.73,2612.9 2263.39,2616.73 2235.0,2619.0 C 2208.33,2619.0 2181.67,2619.0 2155.0,2619.0 C 2072.21,2612.4 1991.87,2594.24 1914.0,2564.5 C 1842.1,2537.88 1774.1,2503.88 1710.0,2462.5 C 1658.38,2428.86 1608.71,2392.52 1561.0,2353.5 C 1519.74,2318.91 1479.08,2283.58 1439.0,2247.5 C 1430.33,2241.17 1421.67,2234.83 1413.0,2228.5 C 1369.82,2201.08 1327.15,2172.91 1285.0,2144.0 C 1199.21,2166.7 1113.54,2189.86 1028.0,2213.5 C 940.472,2237.14 851.805,2255.14 762.0,2267.5 C 658.78,2281.35 555.78,2280.02 453.0,2263.5 C 331.357,2241.64 220.024,2195.64 119.0,2125.5 C 77.4367,2096.11 37.77,2064.28 0.0,2030.0 C 0.0,2029.33 0.0,2028.67 0.0,2028.0 C 107.464,2060.7 216.797,2085.2 328.0,2101.5 C 448.018,2118.99 568.352,2121.65 689.0,2109.5 C 779.193,2099.87 866.193,2077.87 950.0,2043.5 C 998.841,2022.76 1044.17,1996.43 1086.0,1964.5 C 1090.09,1961.45 1093.76,1957.95 1097.0,1954.0 C 908.041,1840.32 735.875,1704.32 580.5,1546.0 C 506.729,1469.36 441.395,1386.36 384.5,1297.0 C 338.878,1224.25 303.378,1146.75 278.0,1064.5 C 278.333,1064.33 278.667,1064.17 279.0,1064.0 C 347.955,1169.16 425.122,1268.16 510.5,1361.0 C 606.831,1465.4 714.331,1555.57 833.0,1631.5 C 1015.59,1745.4 1214.26,1814.07 1429.0,1837.5 C 1523.73,1848.23 1618.73,1852.23 1714.0,1849.5 C 1718.67,1846.5 1723.33,1843.5 1728.0,1840.5 C 1707.23,1813.92 1700.73,1784.09 1708.5,1751.0 C 1718.45,1716.08 1736.29,1685.91 1762.0,1660.5 C 1742.38,1612.97 1750.05,1570.3 1785.0,1532.5 C 1786.89,1532.34 1788.39,1533.17 1789.5,1535.0 C 1787.43,1529.86 1784.76,1524.86 1781.5,1520.0 C 1758.79,1475.44 1756.62,1429.94 1775.0,1383.5 C 1754.6,1361.74 1738.1,1337.24 1725.5,1310.0 C 1716.34,1289.18 1711.67,1267.51 1711.5,1245.0 C 1663.71,1211.22 1625.05,1169.22 1595.5,1119.0 C 1575.1,1083.14 1563.6,1044.64 1561.0,1003.5 C 1561.02,1000.414 1561.36,997.414 1562.0,994.5 C 1504.53,952.705 1456.37,902.205 1417.5,843.0 C 1385.93,793.609 1367.93,739.609 1363.5,681.0 C 1360.83,643.184 1366.0,606.517 1379.0,571.0 C 1320.15,488.637 1274.98,398.97 1243.5,302.0 C 1223.7,238.506 1213.2,173.506 1212.0,107.0 C 1212.07,83.44800000000001 1214.24,60.114700000000006 1218.5,37.00000000000001 C 1237.45,145.865 1279.12,244.865 1343.5,334.0 C 1390.93,399.187 1444.77,459.02 1505.0,513.5 C 1545.54,550.384 1587.54,585.384 1631.0,618.5 C 1701.51,668.254 1771.84,718.254 1842.0,768.5 C 1862.92,782.209 1883.75,796.043 1904.5,810.0 C 1895.74,748.912 1902.41,689.578 1924.5,632.0 C 1936.23,602.971 1952.73,577.138 1974.0,554.5 C 1945.62,439.174 1939.45,322.674 1955.5,205.0 C 1964.02,147.774 1980.02,92.774 2003.5,40.00000000000001 C 2009.92,26.162100000000006 2017.08,12.828700000000007 2025.0,7.105427357601002e-15" fill="#000000" style="opacity:0.997"/>
</svg>
