<?xml version="1.0" ?>
<svg xmlns="http://www.w3.org/2000/svg" xmlns:ev="http://www.w3.org/2001/xml-events" xmlns:xlink="http://www.w3.org/1999/xlink" baseProfile="full" height="2829" style="shape-rendering:geometricPrecision; text-rendering:geometricPrecision; image-rendering:optimizeQuality; fill-rule:evenodd; clip-rule:evenodd" transform="scale(0.03534817956875221 0.03534817956875221) translate(-1500.5 -1414.5)" version="1.1" viewBox="0 0 3001 2829" width="3001">
	<defs/>
	<path d="M 2590.0,4.263256414560601e-14 C 2591.0,4.263256414560601e-14 2592.0,4.263256414560601e-14 2593.0,4.263256414560601e-14 C 2501.49,91.01530000000004 2398.83,166.84900000000005 2285.0,227.50000000000006 C 2268.76,260.75800000000004 2246.76,289.75800000000004 2219.0,314.50000000000006 C 2179.49,347.7780000000001 2135.82,374.7780000000001 2088.0,395.50000000000006 C 2049.97,412.06700000000006 2010.97,426.06700000000006 1971.0,437.50000000000006 C 2048.07,445.92500000000007 2125.07,454.92500000000007 2202.0,464.50000000000006 C 2289.68,475.17900000000003 2377.68,481.01200000000006 2466.0,482.00000000000006 C 2570.67,483.04200000000003 2673.67,470.54200000000003 2775.0,444.50000000000006 C 2791.1,439.97600000000006 2807.1,435.14200000000005 2823.0,430.00000000000006 C 2824.33,430.66700000000003 2824.33,431.3330000000001 2823.0,432.00000000000006 C 2714.2,500.72300000000007 2597.87,553.223 2474.0,589.5 C 2451.58,618.264 2424.58,641.598 2393.0,659.5 C 2377.46,667.771 2361.79,675.771 2346.0,683.5 C 2308.66,697.419 2270.33,707.752 2231.0,714.5 C 2182.55,722.64 2133.88,729.14 2085.0,734.0 C 2068.86,766.639 2044.53,791.139 2012.0,807.5 C 1987.75,819.473 1962.41,828.473 1936.0,834.5 C 1924.25,847.517 1911.91,859.85 1899.0,871.5 C 1849.37,904.499 1795.03,926.166 1736.0,936.5 C 1716.42,939.677 1696.92,942.844 1677.5,946.0 C 1654.6,995.232 1617.43,1028.73 1566.0,1046.5 C 1548.96,1051.93 1531.62,1056.09 1514.0,1059.0 C 1516.54,1105.6 1497.87,1140.6 1458.0,1164.0 C 1472.82,1190.64 1481.49,1219.14 1484.0,1249.5 C 1484.16,1272.39 1475.83,1291.39 1459.0,1306.5 C 1590.75,1342.98 1724.09,1372.32 1859.0,1394.5 C 2051.03,1426.3 2244.03,1434.3 2438.0,1418.5 C 2630.83,1400.96 2818.16,1359.13 3000.0,1293.0 C 3000.0,1293.67 3000.0,1294.33 3000.0,1295.0 C 2939.06,1359.08 2871.4,1414.58 2797.0,1461.5 C 2599.65,1585.28 2384.32,1654.61 2151.0,1669.5 C 2104.71,1672.55 2058.38,1673.55 2012.0,1672.5 C 1976.62,1671.34 1941.29,1669.67 1906.0,1667.5 C 2103.76,1755.46 2282.76,1871.13 2443.0,2014.5 C 2595.05,2152.82 2716.88,2313.66 2808.5,2497.0 C 2852.86,2586.75 2886.53,2680.41 2909.5,2778.0 C 2913.0,2794.65 2916.16,2811.32 2919.0,2828.0 C 2918.33,2828.0 2917.67,2828.0 2917.0,2828.0 C 2835.78,2690.61 2741.62,2562.61 2634.5,2444.0 C 2528.38,2327.47 2409.55,2226.97 2278.0,2142.5 C 2110.95,2038.46 1931.29,1963.79 1739.0,1918.5 C 1618.91,1890.37 1497.58,1869.37 1375.0,1855.5 C 1266.74,1843.44 1158.41,1832.11 1050.0,1821.5 C 969.991,1813.37 890.324,1802.71 811.0,1789.5 C 727.783,1775.7 646.45,1754.7 567.0,1726.5 C 387.648,1662.14 250.481,1547.64 155.5,1383.0 C 111.819,1304.64 77.4857,1222.31 52.5,1136.0 C 37.3031,1083.21 24.3031,1029.88 13.500000000000002,976.0 C 4.640250000000002,929.02 1.6402500000000018,881.687 4.500000000000002,834.0 C 9.492240000000002,787.526 22.658900000000003,743.526 44.0,702.0 C 25.069500000000005,671.456 12.236200000000002,638.456 5.500000000000002,603.0 C 3.603460000000002,591.868 1.7701300000000018,580.868 1.7763568394002505e-15,570.0 C 1.7763568394002505e-15,566.0 1.7763568394002505e-15,562.0 1.7763568394002505e-15,558.0 C 48.3844,549.763 92.3844,560.096 132.0,589.0 C 222.701,514.236 326.368,486.40200000000004 443.0,505.50000000000006 C 549.992,527.198 632.825,583.698 691.5,675.0 C 732.236,742.609 750.736,815.942 747.0,895.0 C 779.73,902.183 811.73,911.85 843.0,924.0 C 853.723,884.663 860.89,844.663 864.5,804.0 C 866.83,780.046 868.496,756.046 869.5,732.0 C 871.103,686.342 872.436,640.675 873.5,595.0 C 874.445,550.054 878.445,505.38700000000006 885.5,461.00000000000006 C 899.17,369.7730000000001 942.004,295.9390000000001 1014.0,239.50000000000006 C 1082.23,187.37200000000007 1159.56,162.53900000000004 1246.0,165.00000000000006 C 1275.44,165.17500000000007 1304.77,167.00800000000004 1334.0,170.50000000000006 C 1400.26,180.04400000000004 1466.59,189.04400000000004 1533.0,197.50000000000006 C 1577.28,202.42300000000006 1621.61,203.09000000000003 1666.0,199.50000000000006 C 1720.22,190.22200000000004 1774.88,183.22200000000004 1830.0,178.50000000000006 C 1917.15,171.33500000000004 2004.15,162.66800000000006 2091.0,152.50000000000006 C 2185.29,141.30800000000005 2277.96,122.30800000000005 2369.0,95.50000000000004 C 2446.6,72.35940000000004 2520.26,40.52610000000004 2590.0,4.263256414560601e-14" fill="#000000" style="opacity:1"/>
</svg>
