<?xml version="1.0" ?>
<svg xmlns="http://www.w3.org/2000/svg" xmlns:ev="http://www.w3.org/2001/xml-events" xmlns:xlink="http://www.w3.org/1999/xlink" baseProfile="full" height="530" id="Layer_1" style="enable-background:new 0 0 720 720;" transform="scale(0.4444444444444444 0.4444444444444444) translate(-112.5 -265.0)" version="1.1" viewBox="0 0 225 530" width="225" x="0px" xml:space="preserve" y="0px">
	<defs/>
	<path d="M 221.2885518829479,495.5093549670041 C 215.1975518829479,480.30135496700416 172.98255188294792,334.27835496700413 172.2335518829479,326.2893549670041 C 171.47455188294788,318.3053549670041 186.3025518829479,257.0793549670041 188.57855188294786,233.8803549670041 C 190.8635518829479,210.6813549670041 189.08555188294787,164.92335496700412 179.84255188294787,138.80935496700414 C 173.73155188294788,121.58535496700414 153.6015518829479,106.10635496700412 144.0865518829479,95.07435496700414 C 134.5745518829479,84.05135496700414 122.79155188294789,51.34435496700415 118.23155188294788,43.74135496700414 C 113.66955188294787,36.13635496700415 98.08055188294787,-7.593645032995866 45.21955188294788,1.1503549670041338 C -7.638448117052121,9.898354967004138 3.3955518829478706,41.83635496700414 3.3955518829478706,41.83635496700414 C -7.638448117052121,68.46035496700414 11.750551882947889,81.01035496700415 11.750551882947889,81.01035496700415 C 10.226551882947888,78.72535496700415 11.750551882947889,71.12035496700413 11.750551882947889,71.12035496700413 C 15.926551882947876,73.02135496700414 25.82255188294789,71.12035496700413 25.82255188294789,71.12035496700413 C 41.035551882947914,82.91135496700413 36.09655188294789,103.44035496700413 36.09655188294789,103.44035496700413 C 35.70555188294787,130.44235496700412 18.216551882947897,153.2603549670041 33.42955188294792,199.6573549670041 C 56.76755188294794,270.8353549670041 86.67355188294789,303.85835496700406 94.26555188294793,309.9403549670041 C 101.88655188294791,316.02135496700413 149.79255188294792,390.5533549670041 149.79255188294792,390.5533549670041 L 179.46255188294793,468.1353549670041 L 183.25755188294795,456.7223549670041 C 183.25755188294795,456.7223549670041 219.01155188294797,525.1723549670041 221.28755188294792,528.9783549670041 C 223.5725518829479,532.7773549670042 227.3655518829479,510.7223549670041 221.2885518829479,495.5093549670041"/>
</svg>
