<?xml version="1.0" ?>
<svg xmlns="http://www.w3.org/2000/svg" xmlns:ev="http://www.w3.org/2001/xml-events" xmlns:xlink="http://www.w3.org/1999/xlink" baseProfile="full" height="575" id="Слой_1" style="enable-background:new 0 0 1280 1280;" transform="scale(0.1834862385321101 0.1834862385321101) translate(-272.5 -287.5)" version="1.1" viewBox="0 0 545 575" width="545" x="0px" xml:space="preserve" y="0px">
	<defs/>
	<path d="M 83.10000000000014,574.1999999999998 C 82.60000000000014,571.8 84.20000000000016,570.5999999999999 85.60000000000014,569.0999999999999 C 102.20000000000016,552.3 118.90000000000015,535.5999999999999 135.40000000000015,518.6999999999998 C 143.1000000000002,510.8999999999999 150.7000000000001,502.8999999999999 157.90000000000015,494.59999999999985 C 160.50000000000017,491.59999999999985 162.2000000000001,487.49999999999983 163.90000000000015,483.7999999999999 C 169.7000000000001,471.3999999999999 175.30000000000013,458.7999999999999 181.00000000000017,446.2999999999999 C 182.20000000000022,443.59999999999985 183.50000000000017,440.99999999999994 184.90000000000015,437.99999999999994 C 180.2000000000001,436.3999999999999 175.90000000000015,435.59999999999997 171.40000000000015,436.49999999999994 C 168.7000000000001,436.99999999999994 165.80000000000013,437.49999999999994 163.00000000000017,437.2 C 160.80000000000013,436.99999999999994 158.50000000000017,436.09999999999997 156.6000000000002,434.8 C 155.20000000000022,433.90000000000003 154.20000000000022,433.59999999999997 152.6000000000002,433.7 C 147.40000000000015,433.90000000000003 142.20000000000022,433.49999999999994 139.00000000000017,428.3 C 134.00000000000017,428.40000000000003 129.00000000000017,428.90000000000003 124.30000000000018,426.59999999999997 C 122.1000000000002,425.49999999999994 120.20000000000016,424.3999999999999 119.4000000000002,421.99999999999994 C 118.80000000000018,420.2 117.70000000000022,419.3999999999999 115.80000000000018,419.2999999999999 C 114.20000000000016,419.1999999999999 112.50000000000017,418.7999999999999 110.9000000000002,418.2999999999999 C 105.80000000000018,416.6999999999999 101.80000000000018,413.99999999999994 102.1000000000002,407.6999999999999 C 93.70000000000022,405.1999999999999 85.4000000000002,402.49999999999983 86.1000000000002,390.8999999999999 C 85.00000000000017,390.3999999999999 83.6000000000002,389.8999999999999 82.30000000000018,389.2999999999999 C 74.50000000000017,386.2999999999999 70.1000000000002,379.3999999999999 70.4000000000002,370.99999999999994 C 70.6000000000002,366.7 73.20000000000022,363.7 75.80000000000018,360.7 C 76.9000000000002,359.49999999999994 78.20000000000016,358.49999999999994 79.00000000000017,356.8 C 77.50000000000017,357.3 76.00000000000017,357.8 74.6000000000002,358.40000000000003 C 73.20000000000022,358.90000000000003 71.9000000000002,359.6000000000001 70.4000000000002,360.00000000000006 C 63.30000000000018,361.8 58.400000000000205,360.7000000000001 54.700000000000216,352.6000000000001 C 53.30000000000024,349.40000000000003 52.200000000000216,346.1000000000001 51.30000000000024,342.7000000000001 C 49.200000000000216,335.1000000000001 50.10000000000025,328.2000000000001 56.60000000000025,322.90000000000015 C 57.10000000000025,322.50000000000017 57.80000000000024,322.3000000000001 58.40000000000026,322.00000000000017 C 58.20000000000027,321.6000000000002 58.10000000000025,321.2000000000002 57.90000000000026,320.8000000000001 C 56.20000000000027,320.8000000000001 54.60000000000025,320.7000000000001 52.90000000000026,320.8000000000001 C 47.30000000000024,321.00000000000017 43.40000000000026,318.8000000000001 41.10000000000025,313.50000000000017 C 37.20000000000027,304.7000000000002 36.10000000000025,295.7000000000002 38.80000000000024,286.3000000000001 C 39.90000000000026,282.3000000000001 42.90000000000026,279.90000000000015 46.10000000000025,277.8000000000001 C 47.40000000000026,276.90000000000015 48.90000000000026,276.3000000000001 50.20000000000027,274.8000000000001 C 48.000000000000284,274.8000000000001 45.800000000000296,274.8000000000001 43.60000000000025,274.8000000000001 C 35.60000000000025,274.7000000000001 31.40000000000026,271.3000000000001 29.30000000000024,263.6000000000001 C 27.30000000000024,256.1000000000001 26.500000000000227,248.60000000000008 28.40000000000026,241.00000000000006 C 29.80000000000024,235.3 31.10000000000025,229.50000000000006 38.000000000000284,226.8 C 27.40000000000026,216.7 25.600000000000307,203.2 21.90000000000026,190.59999999999997 C 19.30000000000024,182.09999999999997 22.000000000000284,179.09999999999997 30.90000000000026,179.7 C 33.90000000000026,179.90000000000003 36.80000000000024,180.7 39.70000000000027,181.2 C 40.800000000000296,181.40000000000003 41.90000000000026,181.49999999999994 43.20000000000027,181.09999999999997 C 40.60000000000025,179.39999999999992 38.000000000000284,177.59999999999997 35.300000000000296,176.2 C 26.500000000000284,171.49999999999994 21.300000000000296,163.8 17.700000000000273,154.8 C 15.700000000000273,149.7 14.000000000000284,144.5 12.10000000000025,139.3 C 12.000000000000227,139.10000000000002 11.900000000000261,139.0 11.900000000000261,138.8 C 11.900000000000261,136.60000000000002 11.200000000000273,133.8 12.200000000000273,132.2 C 13.700000000000273,130.0 16.60000000000025,130.7 19.10000000000025,131.7 C 25.10000000000025,134.2 31.10000000000025,136.59999999999997 37.10000000000025,139.0 C 37.70000000000027,139.2 38.20000000000027,139.5 39.10000000000025,139.3 C 19.80000000000024,125.0 7.700000000000273,106.0 2.2737367544323206e-13,84.0 C 2.4000000000002046,81.60000000000002 4.400000000000205,82.60000000000002 6.10000000000025,83.39999999999998 C 7.9000000000002615,84.19999999999999 9.500000000000227,85.39999999999998 11.10000000000025,86.59999999999997 C 26.700000000000273,98.19999999999999 42.30000000000024,109.89999999999998 57.80000000000024,121.49999999999994 C 59.00000000000023,122.39999999999992 60.30000000000024,123.09999999999997 62.10000000000025,123.39999999999992 C 61.60000000000025,122.7999999999999 61.30000000000024,121.99999999999994 60.70000000000027,121.49999999999994 C 49.60000000000025,110.49999999999994 38.800000000000296,99.19999999999993 29.60000000000025,86.59999999999997 C 26.000000000000227,81.69999999999999 23.200000000000273,76.09999999999997 20.500000000000227,70.69999999999999 C 18.000000000000227,65.69999999999999 15.900000000000205,60.39999999999998 13.800000000000239,55.19999999999999 C 12.400000000000261,51.80000000000001 12.60000000000025,51.0 14.10000000000025,48.0 C 18.90000000000026,50.30000000000001 23.000000000000227,53.5 26.90000000000026,57.10000000000002 C 35.20000000000027,64.70000000000005 43.500000000000284,72.40000000000003 51.80000000000024,79.90000000000003 C 61.700000000000216,88.80000000000001 71.60000000000025,97.70000000000005 81.50000000000023,106.40000000000003 C 85.30000000000024,109.70000000000005 89.4000000000002,112.70000000000005 93.9000000000002,115.30000000000001 C 93.50000000000023,114.69999999999999 93.20000000000022,113.90000000000003 92.70000000000022,113.40000000000003 C 76.9000000000002,96.10000000000002 62.50000000000023,77.60000000000002 49.200000000000216,58.30000000000001 C 47.50000000000023,55.900000000000034 46.00000000000023,53.19999999999999 44.80000000000024,50.5 C 41.50000000000023,42.89999999999998 38.40000000000026,35.19999999999999 35.40000000000026,27.5 C 34.80000000000024,26.0 35.000000000000284,24.19999999999999 34.80000000000024,22.100000000000023 C 38.700000000000216,22.700000000000045 41.200000000000216,24.400000000000034 43.200000000000216,26.600000000000023 C 51.900000000000205,35.900000000000034 60.60000000000019,45.30000000000001 69.30000000000024,54.700000000000045 C 73.60000000000025,59.30000000000007 77.90000000000026,63.900000000000034 82.30000000000024,68.40000000000003 C 90.40000000000026,76.70000000000005 98.50000000000023,85.00000000000006 106.70000000000022,93.30000000000001 C 107.30000000000024,93.90000000000003 107.9000000000002,94.40000000000003 109.00000000000023,95.30000000000001 C 109.00000000000023,92.69999999999999 107.4000000000002,91.30000000000001 106.4000000000002,89.80000000000001 C 98.50000000000023,78.30000000000001 90.00000000000023,67.19999999999999 82.70000000000022,55.30000000000001 C 75.50000000000023,43.60000000000002 67.6000000000002,32.19999999999999 64.1000000000002,18.600000000000023 C 62.60000000000019,12.700000000000045 60.700000000000216,6.900000000000034 58.80000000000018,0.0 C 60.900000000000205,0.19999999999998863 62.30000000000018,-0.10000000000002274 63.20000000000016,0.5 C 64.90000000000015,1.5 66.50000000000017,2.8000000000000114 67.80000000000018,4.300000000000011 C 70.80000000000018,7.699999999999989 73.6000000000002,11.199999999999989 76.4000000000002,14.699999999999989 C 87.30000000000018,28.099999999999966 98.30000000000018,41.5 109.20000000000022,54.89999999999998 C 117.50000000000023,65.09999999999997 125.6000000000002,75.39999999999998 134.00000000000023,85.5 C 140.30000000000024,93.19999999999999 146.90000000000026,100.69999999999999 153.40000000000026,108.19999999999999 C 165.90000000000026,122.59999999999997 178.40000000000026,137.0 191.1000000000003,151.3 C 197.70000000000033,158.8 204.6000000000003,165.90000000000003 211.1000000000003,173.50000000000006 C 215.50000000000028,178.60000000000008 219.70000000000033,184.10000000000008 223.6000000000003,189.60000000000008 C 230.50000000000028,199.2000000000001 237.00000000000028,209.00000000000006 244.00000000000028,218.50000000000006 C 248.6000000000003,224.8 253.40000000000026,231.00000000000006 258.6000000000003,236.7000000000001 C 262.90000000000026,241.50000000000006 265.40000000000026,246.90000000000015 266.80000000000035,252.90000000000015 C 267.30000000000035,255.00000000000017 267.80000000000035,257.1000000000002 268.30000000000035,259.2000000000001 C 269.1000000000003,262.6000000000001 271.1000000000003,265.00000000000006 273.9000000000004,267.1000000000001 C 278.30000000000035,270.6000000000001 282.4000000000004,274.50000000000006 286.6000000000004,278.3000000000001 C 293.80000000000047,284.7000000000001 300.6000000000004,291.50000000000017 306.80000000000047,298.90000000000015 C 307.0000000000005,299.1000000000002 307.4000000000005,299.1000000000002 307.80000000000047,299.3000000000001 C 312.1000000000004,286.1000000000001 318.9000000000005,273.7000000000001 320.80000000000047,259.7000000000001 C 321.0000000000005,258.2000000000001 322.20000000000044,256.90000000000015 322.9000000000005,255.50000000000006 C 323.4000000000005,254.3 323.9000000000005,253.10000000000008 324.10000000000053,251.8 C 324.9000000000005,245.40000000000003 325.5000000000005,238.90000000000003 326.20000000000056,232.50000000000006 C 326.4000000000006,230.7000000000001 326.8000000000006,229.00000000000006 327.9000000000006,227.3 C 328.10000000000065,228.7 328.4000000000006,230.00000000000006 328.70000000000056,231.8 C 328.70000000000056,220.2 328.70000000000056,209.2 328.70000000000056,197.7 C 331.10000000000053,200.59999999999997 331.10000000000053,200.59999999999997 331.4000000000006,208.49999999999994 C 331.60000000000065,212.2999999999999 331.70000000000056,215.99999999999994 332.4000000000006,219.7999999999999 C 333.4000000000006,203.99999999999994 331.20000000000056,188.19999999999987 330.5000000000006,172.39999999999992 C 333.70000000000067,184.69999999999987 333.3000000000006,197.89999999999992 339.9000000000006,209.39999999999992 C 337.10000000000065,189.09999999999997 336.0000000000006,168.59999999999997 331.20000000000056,148.49999999999994 C 336.5000000000005,163.09999999999997 338.4000000000006,178.7999999999999 345.0000000000005,193.09999999999997 C 344.4000000000005,188.49999999999994 343.80000000000047,183.99999999999994 343.10000000000053,179.39999999999992 C 342.4000000000005,174.7999999999999 341.60000000000053,170.19999999999987 340.70000000000056,165.69999999999987 C 339.8000000000006,160.99999999999983 338.9000000000006,156.19999999999987 337.9000000000006,151.4999999999999 C 336.9000000000006,146.9999999999999 335.9000000000006,142.39999999999986 334.8000000000006,137.89999999999986 C 333.70000000000056,133.39999999999986 332.5000000000006,128.89999999999986 331.4000000000006,124.49999999999989 C 331.8000000000006,124.39999999999986 332.20000000000056,124.2999999999999 332.60000000000065,124.19999999999987 C 333.8000000000007,127.49999999999989 335.0000000000006,130.89999999999986 336.10000000000065,134.2999999999999 C 344.9000000000006,161.59999999999985 353.60000000000065,188.99999999999994 362.4000000000006,216.2999999999999 C 364.3000000000006,222.09999999999985 367.0000000000006,227.69999999999987 368.4000000000006,233.69999999999987 C 370.10000000000065,241.39999999999992 370.70000000000056,249.39999999999992 372.10000000000065,257.2999999999999 C 372.8000000000007,261.2999999999999 374.3000000000007,265.2999999999999 375.60000000000065,269.1999999999999 C 377.10000000000065,274.09999999999985 377.60000000000065,278.8999999999999 376.3000000000007,283.8999999999999 C 375.50000000000074,286.8999999999999 375.8000000000007,289.6999999999999 378.00000000000074,292.2999999999999 C 379.7000000000008,294.2999999999999 380.8000000000007,296.6999999999999 382.50000000000074,299.3999999999999 C 385.50000000000074,295.3999999999999 388.3000000000007,291.7999999999999 390.8000000000007,288.1999999999999 C 397.3000000000007,279.09999999999985 404.4000000000007,270.59999999999985 414.3000000000007,264.8999999999999 C 417.3000000000007,263.1999999999999 420.60000000000065,261.99999999999994 423.9000000000007,260.8999999999999 C 428.8000000000007,259.2999999999999 433.9000000000007,258.2999999999999 438.70000000000067,256.59999999999997 C 443.70000000000067,254.8 448.70000000000067,254.39999999999992 453.9000000000007,254.89999999999992 C 461.50000000000074,255.69999999999987 469.10000000000076,256.3999999999999 476.4000000000007,258.6999999999999 C 484.4000000000007,261.2999999999999 491.4000000000007,265.59999999999985 498.00000000000074,270.59999999999985 C 515.3000000000006,283.7999999999999 523.6000000000008,301.8999999999998 527.3000000000006,322.6999999999999 C 527.4000000000008,323.1999999999999 527.6000000000006,323.6999999999999 527.5000000000007,324.1999999999999 C 526.6000000000008,331.99999999999983 530.7000000000007,337.8999999999999 535.2000000000007,343.49999999999983 C 539.2000000000007,348.49999999999983 541.9000000000008,354.09999999999985 544.1000000000008,360.09999999999985 C 544.3000000000009,360.6999999999999 544.3000000000009,361.2999999999999 544.6000000000008,362.7999999999999 C 540.4000000000008,361.1999999999999 536.8000000000009,359.7999999999999 532.4000000000008,358.09999999999985 C 534.0000000000007,362.99999999999983 535.3000000000006,366.99999999999983 536.7000000000007,371.2999999999999 C 533.8000000000006,372.1999999999999 531.4000000000008,370.7999999999999 529.2000000000007,369.59999999999985 C 523.8000000000006,366.6999999999999 518.5000000000007,363.59999999999985 513.1000000000006,360.59999999999985 C 509.10000000000065,358.3999999999998 505.0000000000006,357.1999999999999 500.20000000000067,358.2999999999999 C 494.9000000000007,359.49999999999994 489.4000000000007,360.09999999999985 484.0000000000006,360.49999999999994 C 479.8000000000006,360.8999999999999 477.60000000000065,363.3999999999999 476.4000000000006,366.7999999999999 C 475.10000000000065,370.3999999999999 474.60000000000065,374.1999999999999 473.70000000000056,377.8999999999999 C 472.3000000000006,383.99999999999994 471.20000000000056,390.1999999999999 469.3000000000006,396.1999999999999 C 466.5000000000006,405.1999999999999 462.8000000000006,413.99999999999983 460.0000000000006,422.99999999999983 C 456.3000000000006,434.8999999999998 449.0000000000006,444.59999999999985 440.9000000000006,453.59999999999985 C 431.9000000000006,463.59999999999985 421.3000000000006,471.99999999999983 410.70000000000056,480.2999999999999 C 404.70000000000056,484.99999999999994 398.4000000000006,489.3999999999999 392.20000000000056,493.8999999999999 C 384.8000000000006,499.1999999999999 376.70000000000056,502.6999999999999 368.10000000000053,505.49999999999994 C 361.70000000000056,507.49999999999994 355.3000000000006,509.8999999999999 348.3000000000006,512.3999999999999 C 351.3000000000006,516.8999999999999 353.60000000000053,521.0999999999999 357.3000000000006,524.5 C 362.0000000000006,528.7 363.3000000000006,535.5999999999999 360.10000000000053,541.0999999999999 C 359.10000000000053,542.8 357.20000000000056,544.5 355.4000000000005,545.2 C 352.9000000000005,546.0999999999999 350.10000000000053,546.0999999999999 346.60000000000053,546.5999999999999 C 347.4000000000005,545.2 347.70000000000056,544.5999999999999 348.0000000000005,544.0999999999999 C 351.5000000000005,539.5999999999999 351.5000000000005,539.0 348.4000000000005,534.0999999999999 C 347.9000000000005,533.3 347.20000000000044,532.3 347.20000000000044,531.3999999999999 C 347.20000000000044,525.0999999999999 342.5000000000004,521.3999999999999 339.1000000000004,517.0 C 337.5000000000004,515.0 335.4000000000004,515.3999999999999 333.20000000000044,516.0999999999999 C 331.1000000000004,516.8 329.80000000000047,517.8999999999999 329.30000000000047,520.0999999999999 C 328.0000000000005,527.0 330.30000000000047,532.0999999999999 336.70000000000044,535.0999999999999 C 339.6000000000004,536.5 341.0000000000004,538.3 341.5000000000004,541.3999999999999 C 342.1000000000004,545.0999999999999 343.70000000000044,548.6999999999998 341.9000000000004,552.5 C 340.70000000000033,555.0999999999999 339.0000000000004,556.8 335.5000000000004,557.7 C 336.80000000000035,554.2 339.4000000000004,551.2 337.5000000000004,547.8 C 337.30000000000035,547.4000000000001 336.30000000000035,547.5 335.5000000000004,547.2 C 334.0000000000004,550.8 333.1000000000004,554.8 328.0000000000004,556.8 C 328.80000000000035,554.8 329.4000000000004,553.5999999999999 329.70000000000044,552.4000000000001 C 330.4000000000005,549.3 331.0000000000004,546.2 327.5000000000004,544.0 C 326.6000000000004,543.4000000000001 325.80000000000035,542.3 325.4000000000004,541.3 C 323.5000000000004,535.9000000000001 318.80000000000035,533.5999999999999 314.30000000000035,531.2 C 311.6000000000003,529.7 308.70000000000033,529.9000000000001 306.4000000000004,532.0999999999999 C 302.80000000000035,535.5 298.5000000000004,538.2 296.9000000000004,543.3999999999999 C 296.70000000000033,544.1999999999998 295.80000000000035,545.0 295.0000000000004,545.5 C 290.4000000000004,548.8 289.9000000000004,550.8 292.30000000000035,555.8999999999999 C 292.6000000000003,556.3999999999999 292.70000000000033,557.0 293.0000000000004,557.8 C 287.6000000000004,556.0 285.9000000000004,553.1999999999998 286.80000000000035,548.3 C 286.9000000000004,547.5999999999999 287.1000000000003,547.0 287.1000000000003,546.3 C 287.1000000000003,541.3999999999999 289.5000000000003,538.0999999999999 293.30000000000035,535.1999999999998 C 297.20000000000033,532.3 300.80000000000035,528.8 303.30000000000035,523.8 C 301.80000000000035,523.5999999999999 300.70000000000033,523.3 299.6000000000003,523.1999999999998 C 291.80000000000035,522.8999999999999 283.90000000000026,522.9999999999998 276.20000000000033,522.3 C 265.5000000000003,521.3 254.70000000000033,520.0 244.1000000000003,518.3999999999999 C 241.30000000000035,518.0 238.50000000000028,516.3 236.1000000000003,514.8 C 233.50000000000028,513.0999999999999 231.80000000000035,510.3999999999999 232.20000000000033,507.1999999999999 C 232.90000000000038,502.49999999999983 231.30000000000035,499.1999999999999 227.40000000000038,496.6999999999999 C 226.0000000000004,495.7999999999999 224.90000000000038,494.49999999999983 223.0000000000004,492.7999999999999 C 221.5000000000004,494.59999999999985 220.40000000000038,496.59999999999985 218.80000000000035,497.7999999999999 C 215.30000000000035,500.2999999999999 211.6000000000003,502.49999999999994 207.90000000000038,504.6999999999999 C 202.60000000000042,507.8999999999999 197.5000000000004,511.1999999999999 192.0000000000004,513.9999999999998 C 186.40000000000038,516.7999999999997 180.5000000000004,518.8999999999999 174.80000000000035,521.5999999999999 C 172.5000000000004,522.6999999999998 170.0000000000004,523.9999999999998 168.30000000000035,525.8999999999999 C 162.20000000000033,532.8999999999999 156.40000000000038,540.1999999999998 150.6000000000003,547.4999999999998 C 145.80000000000035,553.5999999999999 140.6000000000003,559.5999999999999 136.6000000000003,566.1999999999998 C 133.8000000000003,570.8 130.00000000000028,570.8 125.8000000000003,570.6999999999998 C 123.70000000000027,570.6999999999998 121.50000000000028,569.8 119.40000000000032,569.5999999999999 C 116.50000000000034,569.3999999999999 113.6000000000003,569.5999999999999 110.20000000000033,569.5999999999999 C 110.70000000000033,567.5999999999999 111.00000000000034,566.1999999999998 111.40000000000032,564.5999999999999 C 110.6000000000003,564.8 110.00000000000034,564.6999999999998 109.70000000000033,564.9999999999998 C 102.80000000000035,570.0999999999999 94.80000000000035,571.9999999999998 86.6000000000003,573.7999999999997 C 86.20000000000033,573.8999999999999 85.8000000000003,574.2999999999997 85.40000000000032,574.4999999999998 C 84.40000000000015,574.1999999999998 83.7000000000001,574.1999999999998 83.10000000000014,574.1999999999998"/>
</svg>
