<?xml version="1.0" ?>
<svg xmlns="http://www.w3.org/2000/svg" xmlns:ev="http://www.w3.org/2001/xml-events" xmlns:xlink="http://www.w3.org/1999/xlink" baseProfile="full" height="432" id="Layer_1" style="enable-background:new 0 0 720 720;" transform="scale(0.23148148148148148 0.23148148148148148) translate(-217.5 -216.0)" version="1.1" viewBox="0 0 435 432" width="435" x="0px" xml:space="preserve" y="0px">
	<defs/>
	<path d="M 434.31064530438425,53.83117289227965 L 404.96064530438423,41.66417289227965 C 404.96064530438423,41.66417289227965 397.0926453043842,-7.009827107720355 329.0906453043842,0.8611728922796544 C 261.06964530438415,8.728172892279645 245.3286453043842,70.29517289227965 245.3286453043842,70.29517289227965 C 245.3286453043842,70.29517289227965 170.87064530438417,93.20617289227965 153.69064530438422,204.16317289227968 C 153.69064530438422,204.16317289227968 89.98264530438422,232.06917289227968 72.0926453043842,242.09717289227964 C 54.19664530438419,252.12417289227963 21.278645304384213,274.3181728922797 20.552645304384214,280.7551728922797 C 20.552645304384214,280.7551728922797 -3.7883546956157943,292.92917289227967 0.5086453043842027,298.6581728922797 C 4.8056453043842,304.3701728922797 59.925645304384204,281.4701728922797 59.925645304384204,281.4701728922797 C 59.925645304384204,281.4701728922797 80.6796453043842,285.05017289227965 100.01764530438422,282.90217289227974 C 119.33664530438423,280.75617289227966 158.7106453043842,259.27717289227974 158.7106453043842,259.27717289227974 C 158.7106453043842,259.27717289227974 168.82764530438422,281.5141728922797 198.5856453043842,297.3751728922797 C 202.6846453043842,309.17917289227967 211.5306453043842,329.32517289227974 225.89464530438423,336.2251728922797 L 257.53164530438426,382.48817289227975 L 234.61764530438424,383.15617289227976 C 232.43564530438422,383.20917289227975 230.72264530438426,385.0431728922797 230.79164530438422,387.2081728922798 C 230.84664530438423,389.34917289227974 232.6026453043842,391.0341728922798 234.73064530438424,391.0341728922798 C 234.76464530438423,391.0341728922798 234.80064530438423,391.0341728922798 234.84764530438426,391.0341728922798 L 264.3556453043842,390.1791728922798 L 295.99264530438427,427.80517289227976 C 296.7706453043843,428.7321728922798 297.8886453043842,429.2121728922798 299.0066453043843,429.2121728922798 C 299.9086453043842,429.2121728922798 300.8166453043842,428.9051728922798 301.5576453043842,428.2841728922798 C 303.2176453043843,426.87817289227985 303.44464530438427,424.39817289227983 302.03164530438426,422.72917289227985 L 279.0876453043842,395.4321728922798 L 323.51764530438425,412.00317289227985 C 323.96864530438427,412.1691728922799 324.4326453043842,412.25717289227987 324.8946453043842,412.25717289227987 C 326.4876453043843,412.25717289227987 327.99764530438426,411.2781728922798 328.5906453043842,409.6881728922799 C 329.3506453043842,407.6461728922799 328.3126453043842,405.3751728922799 326.27664530438426,404.6251728922799 L 293.2946453043843,392.3141728922799 L 314.3986453043842,394.3081728922799 C 316.5916453043842,394.50717289227987 318.4866453043843,392.9191728922799 318.68964530438427,390.75317289227996 C 318.8986453043842,388.58617289227993 317.3076453043842,386.66517289228 315.1406453043843,386.45417289228 L 269.16664530438425,382.11717289228 C 269.06564530438425,381.91717289227995 268.95564530438423,381.72017289227995 268.8226453043843,381.52917289228003 L 236.85164530438428,334.75817289227996 C 238.5266453043843,329.60517289227994 236.82264530438428,319.53717289227995 234.39464530438428,309.88117289228 C 245.1876453043843,312.01717289228 257.36964530438433,313.18917289228 271.09364530438427,312.96317289228 C 279.17564530438426,312.83217289228 286.9006453043843,312.17617289227996 294.2786453043843,311.0721728922799 C 298.85064530438433,319.51417289227993 305.83064530438435,328.7651728922799 315.55164530438435,332.34017289227995 L 351.3186453043843,384.63317289227996 L 328.3906453043843,385.30217289227994 C 326.21464530438436,385.35517289227994 324.50364530438435,387.1791728922799 324.56564530438436,389.35317289228 C 324.6356453043843,391.53817289227993 326.3966453043844,393.23317289228 328.6256453043843,393.18017289228 L 358.1346453043843,392.32517289227997 L 389.7846453043844,429.95117289227994 C 390.5596453043844,430.8761728922799 391.67764530438444,431.3571728922799 392.7956453043844,431.3571728922799 C 393.69564530438436,431.3571728922799 394.5886453043844,431.05117289227985 395.3286453043844,430.42217289227995 C 397.00464530438444,429.0251728922799 397.20664530438444,426.5431728922799 395.8186453043844,424.8751728922799 L 372.8466453043844,397.57117289227995 L 417.2846453043844,414.14317289227995 C 417.7426453043844,414.31617289227995 418.21164530438443,414.4041728922799 418.6746453043844,414.4041728922799 C 420.25864530438434,414.4041728922799 421.7766453043844,413.41717289227995 422.3626453043844,411.83517289227996 C 423.1316453043844,409.79017289228 422.09164530438443,407.5201728922799 420.0486453043844,406.76117289228 L 387.08064530438446,394.46417289228 L 408.17164530438447,396.45617289227994 C 410.36964530438445,396.6551728922799 412.2656453043845,395.0591728922799 412.46664530438443,392.89817289227994 C 412.66764530438445,390.73317289228 411.0876453043844,388.81217289227993 408.90264530438446,388.6021728922799 L 362.9396453043844,384.25717289227987 C 362.83964530438436,384.0581728922799 362.7316453043844,383.8651728922798 362.6036453043844,383.6751728922799 L 324.8436453043844,328.45017289227985 C 325.97464530438435,322.5241728922798 324.0436453043844,312.45917289227987 322.0106453043844,304.39717289227985 C 376.6706453043844,285.93017289227987 406.8726453043844,241.97917289227982 416.41364530438443,215.61217289227986 C 428.59064530438445,181.96917289227983 437.1756453043844,150.47217289227987 409.97564530438444,106.80117289227985 L 407.8276453043844,70.29217289227986 C 407.8266453043842,70.29617289227966 426.44064530438425,62.417172892279666 434.31064530438425,53.83117289227965"/>
</svg>
