<?xml version="1.0" ?>
<svg xmlns="http://www.w3.org/2000/svg" xmlns:ev="http://www.w3.org/2001/xml-events" xmlns:xlink="http://www.w3.org/1999/xlink" baseProfile="full" height="2785" style="shape-rendering:geometricPrecision; text-rendering:geometricPrecision; image-rendering:optimizeQuality; fill-rule:evenodd; clip-rule:evenodd" transform="scale(0.03590664272890485 0.03590664272890485) translate(-1500.5 -1392.5)" version="1.1" viewBox="0 0 3001 2785" width="3001">
	<defs/>
	<path d="M 2029.0,8.526512829121202e-14 C 2029.33,8.526512829121202e-14 2029.67,8.526512829121202e-14 2030.0,8.526512829121202e-14 C 2031.44,42.18160000000009 2027.28,83.84830000000008 2017.5,125.00000000000009 C 1996.9,211.16000000000008 1962.9,291.49300000000005 1915.5,366.0000000000001 C 1879.74,421.6100000000001 1839.57,473.9430000000001 1795.0,523.0000000000001 C 1807.8,586.9200000000001 1800.64,648.5860000000001 1773.5,708.0000000000001 C 1744.58,767.6040000000002 1704.41,818.4370000000001 1653.0,860.5000000000001 C 1621.07,886.4710000000001 1587.07,909.4710000000001 1551.0,929.5000000000001 C 1552.02,930.0190000000001 1552.68,930.8530000000001 1553.0,932.0000000000001 C 1545.68,974.1560000000001 1529.51,1012.4900000000001 1504.5,1047.0 C 1478.17,1082.67 1446.67,1112.83 1410.0,1137.5 C 1485.78,1128.24 1561.78,1126.57 1638.0,1132.5 C 1675.74,1135.05 1713.4,1138.39 1751.0,1142.5 C 1840.77,1152.99 1930.44,1164.32 2020.0,1176.5 C 2107.66,1185.57 2195.33,1194.57 2283.0,1203.5 C 2360.96,1208.63 2438.96,1209.29 2517.0,1205.5 C 2609.75,1200.62 2700.09,1183.28 2788.0,1153.5 C 2866.28,1125.89 2936.94,1085.72 3000.0,1033.0 C 3000.0,1034.0 3000.0,1035.0 3000.0,1036.0 C 2975.7,1073.16 2947.04,1107.0 2914.0,1137.5 C 2830.67,1211.2 2736.01,1266.53 2630.0,1303.5 C 2592.17,1316.71 2553.83,1328.21 2515.0,1338.0 C 2493.55,1390.96 2459.55,1434.13 2413.0,1467.5 C 2359.29,1504.41 2299.96,1527.41 2235.0,1536.5 C 2186.47,1543.05 2137.8,1544.72 2089.0,1541.5 C 2059.27,1573.86 2023.61,1597.52 1982.0,1612.5 C 1924.07,1632.74 1864.57,1639.58 1803.5,1633.0 C 1774.94,1662.37 1740.44,1681.54 1700.0,1690.5 C 1686.14,1693.64 1672.14,1695.81 1658.0,1697.0 C 1642.9,1742.94 1613.23,1775.77 1569.0,1795.5 C 1561.52,1798.08 1554.18,1800.91 1547.0,1804.0 C 1547.82,1804.89 1548.82,1805.22 1550.0,1805.0 C 1551.53,1842.94 1538.86,1875.1 1512.0,1901.5 C 1502.13,1909.94 1491.13,1916.61 1479.0,1921.5 C 1480.31,1924.39 1481.98,1927.06 1484.0,1929.5 C 1611.76,1976.69 1743.43,2007.02 1879.0,2020.5 C 2070.66,2037.2 2258.33,2016.87 2442.0,1959.5 C 2587.31,1913.67 2725.64,1852.34 2857.0,1775.5 C 2897.0,1752.17 2936.34,1727.84 2975.0,1702.5 C 2976.0,1701.83 2977.0,1701.83 2978.0,1702.5 C 2920.08,1769.77 2854.75,1828.44 2782.0,1878.5 C 2673.87,1950.9 2558.54,2010.24 2436.0,2056.5 C 2243.78,2128.89 2045.78,2178.39 1842.0,2205.0 C 1847.84,2219.69 1855.01,2233.69 1863.5,2247.0 C 1897.64,2300.5 1938.47,2348.67 1986.0,2391.5 C 2073.06,2468.25 2170.06,2530.25 2277.0,2577.5 C 2396.93,2630.03 2521.26,2668.7 2650.0,2693.5 C 2714.97,2706.16 2780.3,2716.5 2846.0,2724.5 C 2752.9,2758.75 2656.9,2778.59 2558.0,2784.0 C 2533.0,2784.0 2508.0,2784.0 2483.0,2784.0 C 2362.76,2777.11 2248.09,2747.94 2139.0,2696.5 C 2052.06,2654.72 1970.06,2605.39 1893.0,2548.5 C 1803.55,2481.09 1715.55,2411.76 1629.0,2340.5 C 1614.77,2329.27 1600.27,2318.43 1585.5,2308.0 C 1570.08,2311.55 1554.58,2314.72 1539.0,2317.5 C 1492.68,2324.11 1446.68,2332.44 1401.0,2342.5 C 1383.82,2347.23 1366.82,2352.56 1350.0,2358.5 C 1253.95,2392.63 1157.29,2424.96 1060.0,2455.5 C 995.81,2475.47 930.477,2490.47 864.0,2500.5 C 710.912,2518.06 568.912,2486.39 438.0,2405.5 C 357.892,2352.73 292.725,2285.56 242.5,2204.0 C 189.994,2117.18 152.327,2024.18 129.5,1925.0 C 113.852,1857.45 103.519,1789.12 98.5,1720.0 C 68.3307,1703.84 42.3307,1682.51 20.5,1656.0 C 13.4011,1646.78 6.56776,1637.44 0.0,1628.0 C 0.0,1627.0 0.0,1626.0 0.0,1625.0 C 30.4598,1601.24 64.9598,1591.57 103.5,1596.0 C 114.951,1556.09 133.951,1520.42 160.5,1489.0 C 248.43,1391.36 357.263,1354.52 487.0,1378.5 C 559.648,1396.22 618.815,1434.38 664.5,1493.0 C 656.876,1464.5 649.542,1435.84 642.5,1407.0 C 632.133,1363.1 626.633,1318.6 626.0,1273.5 C 626.27,1183.69 653.436,1103.19 707.5,1032.0 C 739.111,992.7210000000001 774.945,957.8870000000001 815.0,927.5000000000001 C 850.971,900.5400000000001 888.305,875.5400000000001 927.0,852.5000000000001 C 965.517,830.0720000000001 1004.52,808.4060000000001 1044.0,787.5000000000001 C 1127.93,744.7010000000001 1212.26,702.7010000000001 1297.0,661.5000000000001 C 1375.67,619.8330000000001 1454.33,578.1670000000001 1533.0,536.5000000000001 C 1621.06,485.9820000000001 1704.06,428.31600000000003 1782.0,363.5000000000001 C 1854.48,301.8650000000001 1915.31,230.6990000000001 1964.5,150.00000000000009 C 1992.3,102.73300000000009 2013.8,52.73260000000008 2029.0,8.526512829121202e-14" fill="#000000" style="opacity:0.997"/>
</svg>
