<?xml version="1.0" ?>
<svg xmlns="http://www.w3.org/2000/svg" xmlns:ev="http://www.w3.org/2001/xml-events" xmlns:xlink="http://www.w3.org/1999/xlink" baseProfile="full" height="1188" id="Слой_1" style="enable-background:new 0 0 1280 1280;" transform="scale(0.08417508417508418 0.08417508417508418) translate(-639.5 -594.0)" version="1.1" viewBox="0 0 1279 1188" width="1279" x="0px" xml:space="preserve" y="0px">
	<defs/>
	<path d="M 0.299999999999796,1011.4499999999999 C 29.699999999999793,970.05 64.7999999999998,934.2499999999999 103.39999999999979,901.2499999999999 C 137.5999999999998,872.0499999999998 170.5999999999998,841.5499999999998 203.7999999999998,811.2499999999999 C 210.09999999999982,805.4499999999999 215.19999999999982,798.2499999999999 220.3999999999998,791.3499999999999 C 221.69999999999982,789.6499999999999 221.3999999999998,786.7499999999999 221.7999999999998,784.4499999999999 C 219.59999999999982,784.05 217.09999999999982,782.8499999999999 215.19999999999982,783.4499999999999 C 203.49999999999983,787.15 191.8999999999998,791.15 180.2999999999998,795.2499999999999 C 171.4999999999998,798.3499999999999 162.8999999999998,801.8499999999999 154.09999999999982,804.9499999999999 C 151.7999999999998,805.7499999999999 149.09999999999982,805.4499999999999 146.59999999999982,805.55 C 146.2999999999998,805.05 145.99999999999983,804.55 145.7999999999998,803.9499999999999 C 147.3999999999998,802.05 148.59999999999982,799.65 150.59999999999982,798.15 C 156.89999999999984,793.55 163.09999999999982,788.55 169.89999999999984,784.85 C 199.49999999999983,768.95 225.29999999999984,748.0500000000001 249.99999999999983,725.5500000000001 C 295.79999999999984,683.95 338.49999999999983,639.35 380.79999999999984,594.35 C 416.29999999999984,556.65 453.8999999999998,521.5500000000001 496.3999999999998,491.75 C 532.9999999999998,466.04999999999995 565.2999999999997,435.05 598.4999999999998,405.35 C 639.4999999999998,368.75 680.7999999999997,332.55 724.3999999999997,299.05 C 730.3999999999997,294.45 735.2999999999997,288.35 740.8999999999997,283.25 C 742.5999999999998,281.65 745.0999999999998,280.75 747.3999999999997,279.85 C 752.6999999999997,277.75 758.8999999999997,276.85 763.3999999999997,273.65000000000003 C 787.2999999999997,256.15000000000003 806.1999999999997,234.04999999999998 818.3999999999997,207.05 C 822.5999999999998,197.75 823.3999999999997,186.85000000000002 825.8999999999997,176.65 C 833.9999999999998,144.05 844.9999999999998,112.65 863.6999999999997,84.25 C 882.6999999999997,55.35 906.5999999999997,31.85 939.0999999999997,18.85 C 954.4999999999997,12.75 970.9999999999997,9.550000000000004 986.5999999999997,3.950000000000003 C 1002.9999999999997,-1.9499999999999957 1019.3999999999996,-0.04999999999999716 1035.8999999999999,2.0500000000000043 C 1058.8999999999999,4.950000000000003 1081.8999999999999,8.450000000000003 1103.3999999999999,17.15 C 1118.1,23.15 1131.9999999999998,31.249999999999993 1145.6999999999998,39.25000000000001 C 1154.6,44.45000000000001 1161.2999999999997,52.45000000000001 1164.6,62.35 C 1167.3999999999999,70.65 1173.1999999999998,74.94999999999999 1181.3999999999999,75.85 C 1195.8,77.44999999999999 1210.3,78.15 1224.6,80.05000000000001 C 1237.8,81.75 1250.8,84.35 1263.8,87.04999999999998 C 1267.8999999999999,87.94999999999999 1271.8999999999999,90.04999999999998 1275.7,92.04999999999998 C 1277.2,92.85 1278.6000000000001,94.85 1278.9,96.54999999999998 C 1279.0,97.35 1276.5,99.04999999999998 1275.0,99.54999999999998 C 1262.6,103.35 1250.2,107.04999999999998 1237.8,110.74999999999997 C 1226.3,114.14999999999998 1214.8,117.24999999999997 1203.5,121.24999999999997 C 1173.7,131.54999999999998 1152.7,151.94999999999996 1137.5,179.04999999999998 C 1118.0,213.74999999999997 1105.0,250.45000000000002 1100.4,289.95000000000005 C 1096.2,326.35 1092.9,362.75000000000006 1088.2,399.05000000000007 C 1085.7,418.75000000000006 1081.2,438.25000000000006 1077.5,457.8500000000001 C 1071.3,490.55000000000007 1065.6,523.35 1058.4,555.7500000000001 C 1054.5,573.1500000000001 1047.7,589.9500000000002 1042.2,607.0500000000001 C 1041.0,610.6500000000001 1039.9,614.35 1038.6000000000001,617.95 C 1035.8000000000002,625.45 1031.9,631.75 1024.5000000000002,635.95 C 1021.5000000000001,637.6500000000001 1018.3000000000001,641.1500000000001 1017.5000000000001,644.45 C 1015.9000000000001,651.25 1012.8000000000001,657.0500000000001 1008.1000000000001,661.75 C 988.2000000000002,681.35 971.4000000000001,703.45 954.3000000000002,725.35 C 949.9000000000002,731.0500000000001 944.0000000000002,734.35 937.9000000000002,738.0500000000001 C 918.1000000000003,750.0500000000001 898.7000000000002,762.5500000000001 879.1000000000003,774.95 C 868.4000000000002,781.6500000000001 857.8000000000003,788.5500000000001 847.0000000000002,795.1500000000001 C 837.9000000000002,800.6500000000001 828.6000000000003,805.3500000000001 818.1000000000003,808.2500000000001 C 802.1000000000003,812.6500000000001 786.8000000000003,819.3500000000001 770.9000000000002,824.2500000000001 C 758.1000000000003,828.2500000000001 744.7000000000002,830.4500000000002 731.8000000000002,834.4500000000002 C 724.0000000000002,836.9500000000002 716.4000000000002,840.6500000000002 709.5000000000002,845.1500000000002 C 702.0000000000002,849.9500000000002 700.5000000000002,857.4500000000002 701.8000000000002,866.6500000000002 C 702.9000000000002,874.7500000000002 701.8000000000002,883.5500000000002 700.0000000000002,891.6500000000002 C 697.3000000000002,903.9500000000002 693.2000000000003,915.9500000000002 689.8000000000002,928.1500000000002 C 689.3000000000002,930.0500000000002 689.1000000000001,932.5500000000002 689.9000000000002,934.2500000000002 C 707.3000000000002,967.0500000000002 723.5000000000002,1000.5500000000003 745.8000000000002,1030.3500000000001 C 756.7000000000002,1044.95 768.6000000000001,1058.95 780.8000000000002,1072.65 C 795.7000000000002,1089.5500000000002 814.6000000000001,1099.25 837.0000000000002,1103.3500000000001 C 866.3000000000002,1108.7500000000002 895.5000000000002,1114.5500000000002 925.3000000000002,1116.65 C 936.4000000000002,1117.45 947.6000000000001,1117.5500000000002 958.7000000000002,1118.25 C 969.4000000000002,1118.95 978.9000000000002,1122.35 985.0000000000001,1132.05 C 985.4000000000001,1132.6499999999999 985.8000000000001,1133.35 985.5000000000001,1134.85 C 982.1000000000001,1133.25 978.7000000000002,1131.6499999999999 975.4000000000001,1130.05 C 968.1000000000001,1126.55 961.4000000000001,1124.75 953.3000000000001,1129.45 C 948.9000000000001,1132.05 942.2,1131.95 936.7,1131.45 C 916.2,1129.55 895.7,1126.8500000000001 875.2,1124.75 C 852.2,1122.35 829.2,1120.25 806.1,1118.05 C 803.4,1117.75 800.6,1118.05 796.4,1118.05 C 798.0,1120.95 798.6999999999999,1122.75 799.8,1124.1499999999999 C 808.0999999999999,1134.55 819.6999999999999,1139.4499999999998 831.9,1143.2499999999998 C 856.6,1150.9499999999998 882.1999999999999,1152.5499999999997 907.8,1153.3499999999997 C 925.6999999999999,1153.9499999999996 943.6999999999999,1155.0499999999997 961.5999999999999,1156.2499999999998 C 964.3999999999999,1156.4499999999998 967.3,1157.2499999999998 969.6999999999999,1158.6499999999999 C 971.0999999999999,1159.4499999999998 971.5999999999999,1161.7499999999998 972.4999999999999,1163.35 C 970.9999999999999,1163.9499999999998 969.3999999999999,1164.9499999999998 967.8999999999999,1164.9499999999998 C 948.8999999999999,1165.4499999999998 929.9999999999999,1165.6499999999999 910.9999999999999,1166.2499999999998 C 907.8999999999999,1166.3499999999997 904.4999999999999,1166.9499999999998 901.8999999999999,1168.3499999999997 C 899.7999999999998,1169.5499999999997 897.1999999999998,1172.2499999999998 897.0999999999999,1174.3499999999997 C 896.6999999999999,1180.5499999999997 893.9999999999999,1184.6499999999996 888.5999999999999,1187.1499999999996 C 884.3,1187.1499999999996 879.8999999999999,1187.1499999999996 875.5999999999999,1187.1499999999996 C 875.1999999999999,1186.8499999999997 874.8,1186.4499999999996 874.3999999999999,1186.3499999999997 C 847.3999999999999,1179.0499999999997 819.6999999999998,1176.8499999999997 791.8999999999999,1175.2499999999998 C 758.9999999999999,1173.3499999999997 725.9999999999999,1172.4499999999998 693.0999999999999,1170.8499999999997 C 683.8,1170.4499999999996 674.4999999999999,1169.3499999999997 665.3,1168.2499999999998 C 663.6999999999999,1168.0499999999997 662.4,1166.2499999999998 660.9,1165.1499999999999 C 662.4,1164.05 663.8,1162.7499999999998 665.4,1161.85 C 666.4,1161.35 667.6,1161.25 668.8,1161.1499999999999 C 678.9,1160.4499999999998 689.0,1159.7499999999998 699.1999999999999,1159.2499999999998 C 714.3,1158.5499999999997 729.1999999999999,1157.0499999999997 742.8,1150.2499999999998 C 747.8,1147.7499999999998 752.5,1143.8499999999997 756.3,1139.6499999999999 C 759.9,1135.7499999999998 758.0,1132.2499999999998 752.6999999999999,1132.1499999999999 C 747.5999999999999,1131.9499999999998 742.4,1132.55 737.1999999999999,1132.6499999999999 C 724.9,1132.85 712.5999999999999,1133.9499999999998 700.4,1132.85 C 692.5,1132.1499999999999 684.8,1128.4499999999998 677.1999999999999,1125.75 C 670.6999999999999,1123.45 665.4999999999999,1124.65 661.0999999999999,1129.85 C 658.0999999999999,1133.35 655.0999999999999,1136.9499999999998 651.8,1140.35 C 650.4,1141.75 648.5999999999999,1142.75 646.8,1144.05 C 644.0,1137.35 645.5999999999999,1131.1499999999999 651.5999999999999,1127.45 C 655.8999999999999,1124.75 660.8,1122.15 665.6999999999999,1121.55 C 679.6999999999999,1119.85 693.8,1119.25 707.9,1118.1499999999999 C 719.5,1117.2499999999998 731.1,1116.55 742.6,1115.05 C 748.6,1114.25 751.7,1110.35 751.5,1104.25 C 751.3,1099.05 750.6,1093.65 748.9,1088.65 C 743.6,1072.75 734.4,1058.75 724.9,1045.0500000000002 C 701.0,1010.6500000000002 672.9,979.6500000000002 644.8,948.7500000000003 C 632.8,935.5500000000003 621.4,921.9500000000004 610.0999999999999,908.1500000000003 C 601.5999999999999,897.8500000000004 598.5999999999999,885.8500000000004 600.8,872.5500000000003 C 601.3,869.2500000000003 601.9,865.9500000000003 602.3,862.6500000000003 C 603.5,854.0500000000003 601.5,850.4500000000003 593.0,849.3500000000004 C 576.7,847.2500000000003 560.3,845.0500000000004 543.9,844.4500000000004 C 498.20000000000005,842.7500000000003 452.70000000000005,845.7500000000003 407.3,851.0500000000004 C 364.1,856.0500000000004 321.3,863.0500000000004 279.3,874.4500000000004 C 249.10000000000002,882.6500000000004 219.3,892.4500000000004 188.8,898.5500000000004 C 160.5,904.2500000000005 137.3,916.9500000000004 116.7,936.5500000000004 C 99.7,952.7500000000005 82.0,968.1500000000004 64.0,983.2500000000003 C 50.0,995.0500000000003 34.900000000000006,1005.4500000000004 17.900000000000002,1012.6500000000004 C 12.100000000000001,1015.1500000000004 6.200000000000003,1016.3500000000005 3.552713678800501e-15,1014.1500000000004 C 0.299999999999796,1013.4499999999999 0.299999999999796,1012.4499999999999 0.299999999999796,1011.4499999999999"/>
</svg>
