<?xml version="1.0" ?>
<svg xmlns="http://www.w3.org/2000/svg" xmlns:ev="http://www.w3.org/2001/xml-events" xmlns:xlink="http://www.w3.org/1999/xlink" baseProfile="full" height="485" id="Layer_1" style="enable-background:new 0 0 720 720;" transform="scale(0.3401360544217687 0.3401360544217687) translate(-147.0 -242.5)" version="1.1" viewBox="0 0 294 485" width="294" x="0px" xml:space="preserve" y="0px">
	<defs/>
	<path d="M 293.49506728947836,432.0598405211322 C 293.1840672894784,430.2418405211322 291.45406728947836,429.02684052113216 289.6360672894784,429.3458405211321 L 259.7490672894784,434.6258405211321 L 268.6960672894784,430.2318405211321 C 270.3440672894784,429.42684052113214 271.03806728947836,427.4148405211321 270.22606728947835,425.7658405211321 C 269.40606728947836,424.10884052113204 267.40906728947834,423.421840521132 265.74606728947833,424.2348405211321 L 242.25106728947833,435.77784052113213 L 191.74806728947834,363.91484052113213 C 195.00306728947834,359.02084052113213 192.23506728947837,347.60384052113216 199.09306728947837,324.3888405211321 C 212.6930672894784,316.94384052113213 227.11506728947836,306.66984052113213 236.34906728947834,293.39584052113213 C 258.26306728947833,261.89784052113214 262.8330672894783,234.0528405211321 262.8330672894783,234.0528405211321 C 278.34406728947835,233.13584052113214 274.6870672894783,192.5078405211321 268.76306728947833,167.40584052113212 C 262.8330672894783,142.2958405211321 246.84706728947833,132.7068405211321 234.0720672894783,121.29684052113211 C 221.28906728947828,109.88184052113212 216.27506728947827,92.07584052113211 198.91406728947828,57.84384052113211 C 181.57606728947826,23.602840521132123 142.3070672894783,-6.526159478867896 109.89306728947827,1.229840521132104 C 77.49206728947826,8.99284052113211 69.27106728947825,33.0378405211321 65.93106728947828,37.59984052113211 C 62.5720672894783,42.1628405211321 59.8290672894783,38.82084052113211 42.18106728947828,41.86784052113211 C 24.532067289478277,44.904840521132115 15.402067289478282,54.94684052113212 15.402067289478282,54.94684052113212 C 16.317067289478274,59.82584052113211 56.0360672894783,61.497840521132105 56.0360672894783,61.497840521132105 C 71.09806728947831,66.96984052113211 101.6850672894783,93.91184052113209 104.87206728947831,113.9908405211321 C 108.08106728947831,134.08284052113208 74.28406728947829,152.33784052113208 54.66206728947833,208.03484052113208 C 35.03906728947834,263.7248405211321 28.643067289478324,340.4198405211321 28.18406728947832,362.7938405211321 C 27.718067289478313,385.1518405211321 35.94906728947831,374.2028405211321 35.94906728947831,374.2028405211321 C 35.94906728947831,374.2028405211321 -7.874932710521705,466.86884052113203 1.2500672894782952,479.66084052113206 C 9.452067289478293,491.1398405211321 26.1260672894783,477.56984052113205 29.431067289478307,474.68984052113206 C 28.1260672894783,476.1298405211321 26.536067289478297,480.2508405211321 47.35706728947832,482.8468405211321 C 72.9250672894783,486.04084052113205 86.61806728947835,417.56584052113215 91.1730672894783,402.9658405211321 C 94.4830672894783,392.3918405211321 105.90006728947827,370.3708405211321 111.96806728947831,358.98684052113214 C 114.58206728947829,367.65184052113216 118.54406728947833,375.71984052113214 124.28306728947831,376.2568405211321 L 165.3030672894783,434.63284052113215 L 148.94106728947827,437.52284052113214 C 147.1300672894783,437.8508405211321 145.9230672894783,439.57084052113214 146.24406728947827,441.3898405211321 C 146.52506728947827,443.01684052113205 147.94206728947825,444.15584052113206 149.52506728947827,444.15584052113206 C 149.71706728947828,444.15584052113206 149.91706728947827,444.1408405211321 150.11606728947828,444.0958405211321 L 168.41006728947826,440.8648405211321 L 210.99606728947828,443.4898405211321 C 211.06406728947826,443.49784052113216 211.13106728947827,443.5058405211321 211.20506728947828,443.5058405211321 C 212.9490672894783,443.5058405211321 214.42906728947827,442.13684052113206 214.53206728947828,440.36884052113214 C 214.6350672894783,438.5208405211322 213.24406728947827,436.9388405211322 211.4040672894783,436.8358405211321 L 196.46006728947827,435.91184052113215 L 216.50606728947827,432.3698405211321 C 218.31906728947826,432.0448405211321 219.53006728947827,430.3218405211321 219.22006728947827,428.50184052113207 C 218.89506728947828,426.68484052113206 217.15706728947828,425.47884052113204 215.3440672894783,425.796840521132 L 189.20506728947828,430.413840521132 L 196.0260672894783,427.061840521132 C 197.67906728947833,426.248840521132 198.36906728947832,424.24384052113203 197.55606728947828,422.586840521132 C 196.74206728947826,420.93084052113204 194.73006728947826,420.250840521132 193.08106728947826,421.06384052113197 L 171.41706728947827,431.7048405211319 L 130.5410672894783,373.54084052113194 C 132.0480672894783,371.3158405211319 132.28706728947827,367.72584052113194 132.7500672894783,362.25984052113193 C 146.0170672894783,353.5278405211319 163.30606728947828,339.50284052113193 163.30606728947828,339.50284052113193 C 163.30606728947828,339.50284052113193 165.93706728947825,338.7508405211319 170.25106728947827,337.2248405211319 C 172.37406728947826,348.6308405211319 177.04006728947826,366.1968405211319 185.69806728947827,366.6898405211319 C 185.7980672894783,366.95484052113187 185.9180672894783,367.2118405211319 186.08806728947826,367.4538405211319 L 236.19606728947826,438.7828405211319 C 236.1900672894783,438.78584052113195 236.18406728947826,438.78984052113185 236.17906728947827,438.79384052113187 L 218.21106728947825,441.96784052113185 C 216.39306728947827,442.29384052113187 215.18906728947826,444.0168405211318 215.50506728947823,445.8348405211318 C 215.79506728947825,447.45284052113186 217.19806728947822,448.59284052113185 218.79506728947825,448.59284052113185 C 218.98306728947824,448.59284052113185 219.18206728947825,448.57784052113186 219.38006728947823,448.5418405211318 L 239.11306728947824,445.0568405211318 L 284.9170672894782,447.8918405211318 C 284.9940672894782,447.89984052113186 285.0600672894782,447.89984052113186 285.12506728947824,447.89984052113186 C 286.88006728947823,447.89984052113186 288.35006728947826,446.5378405211319 288.4530672894782,444.7648405211319 C 288.5780672894782,442.9158405211318 287.1740672894782,441.3408405211319 285.3340672894782,441.2198405211319 L 267.1680672894782,440.1008405211319 L 290.7970672894782,435.9278405211319 C 292.60806728947836,435.60984052113224 293.8200672894784,433.86984052113223 293.49506728947836,432.0598405211322"/>
</svg>
